<?xml version="1.0" encoding="utf-8" standalone="no"?>
<!DOCTYPE svg PUBLIC "-//W3C//DTD SVG 1.1//EN"
  "http://www.w3.org/Graphics/SVG/1.1/DTD/svg11.dtd">
<svg xmlns:xlink="http://www.w3.org/1999/xlink" width="460.8pt" height="345.6pt" viewBox="0 0 460.8 345.6" xmlns="http://www.w3.org/2000/svg" version="1.1">
 <metadata>
  <rdf:RDF xmlns:dc="http://purl.org/dc/elements/1.1/" xmlns:cc="http://creativecommons.org/ns#" xmlns:rdf="http://www.w3.org/1999/02/22-rdf-syntax-ns#">
   <cc:Work>
    <dc:type rdf:resource="http://purl.org/dc/dcmitype/StillImage"/>
    <dc:date>2025-12-26T12:50:15.253197</dc:date>
    <dc:format>image/svg+xml</dc:format>
    <dc:creator>
     <cc:Agent>
      <dc:title>Matplotlib v3.10.8, https://matplotlib.org/</dc:title>
     </cc:Agent>
    </dc:creator>
   </cc:Work>
  </rdf:RDF>
 </metadata>
 <defs>
  <style type="text/css">*{stroke-linejoin: round; stroke-linecap: butt}</style>
 </defs>
 <g id="figure_1">
  <g id="patch_1">
   <path d="M 0 345.6 
L 460.8 345.6 
L 460.8 0 
L 0 0 
z
" style="fill: #ffffff"/>
  </g>
  <g id="axes_1">
   <g id="patch_2">
    <path d="M 57.6 307.584 
L 414.72 307.584 
L 414.72 41.472 
L 57.6 41.472 
z
" style="fill: #ffffff"/>
   </g>
   <g id="matplotlib.axis_1">
    <g id="xtick_1">
     <g id="line2d_1">
      <defs>
       <path id="m44cb298ad4" d="M 0 0 
L 0 3.5 
" style="stroke: #000000; stroke-width: 0.8"/>
      </defs>
      <g>
       <use xlink:href="#m44cb298ad4" x="73.832727" y="307.584" style="stroke: #000000; stroke-width: 0.8"/>
      </g>
     </g>
     <g id="text_1">
      <!-- 0 -->
      <g transform="translate(70.651477 322.182437) scale(0.1 -0.1)">
       <defs>
        <path id="DejaVuSans-30" d="M 2034 4250 
Q 1547 4250 1301 3770 
Q 1056 3291 1056 2328 
Q 1056 1369 1301 889 
Q 1547 409 2034 409 
Q 2525 409 2770 889 
Q 3016 1369 3016 2328 
Q 3016 3291 2770 3770 
Q 2525 4250 2034 4250 
z
M 2034 4750 
Q 2819 4750 3233 4129 
Q 3647 3509 3647 2328 
Q 3647 1150 3233 529 
Q 2819 -91 2034 -91 
Q 1250 -91 836 529 
Q 422 1150 422 2328 
Q 422 3509 836 4129 
Q 1250 4750 2034 4750 
z
" transform="scale(0.015625)"/>
       </defs>
       <use xlink:href="#DejaVuSans-30"/>
      </g>
     </g>
    </g>
    <g id="xtick_2">
     <g id="line2d_2">
      <g>
       <use xlink:href="#m44cb298ad4" x="138.828632" y="307.584" style="stroke: #000000; stroke-width: 0.8"/>
      </g>
     </g>
     <g id="text_2">
      <!-- 1 -->
      <g transform="translate(135.647382 322.182437) scale(0.1 -0.1)">
       <defs>
        <path id="DejaVuSans-31" d="M 794 531 
L 1825 531 
L 1825 4091 
L 703 3866 
L 703 4441 
L 1819 4666 
L 2450 4666 
L 2450 531 
L 3481 531 
L 3481 0 
L 794 0 
L 794 531 
z
" transform="scale(0.015625)"/>
       </defs>
       <use xlink:href="#DejaVuSans-31"/>
      </g>
     </g>
    </g>
    <g id="xtick_3">
     <g id="line2d_3">
      <g>
       <use xlink:href="#m44cb298ad4" x="203.824537" y="307.584" style="stroke: #000000; stroke-width: 0.8"/>
      </g>
     </g>
     <g id="text_3">
      <!-- 2 -->
      <g transform="translate(200.643287 322.182437) scale(0.1 -0.1)">
       <defs>
        <path id="DejaVuSans-32" d="M 1228 531 
L 3431 531 
L 3431 0 
L 469 0 
L 469 531 
Q 828 903 1448 1529 
Q 2069 2156 2228 2338 
Q 2531 2678 2651 2914 
Q 2772 3150 2772 3378 
Q 2772 3750 2511 3984 
Q 2250 4219 1831 4219 
Q 1534 4219 1204 4116 
Q 875 4013 500 3803 
L 500 4441 
Q 881 4594 1212 4672 
Q 1544 4750 1819 4750 
Q 2544 4750 2975 4387 
Q 3406 4025 3406 3419 
Q 3406 3131 3298 2873 
Q 3191 2616 2906 2266 
Q 2828 2175 2409 1742 
Q 1991 1309 1228 531 
z
" transform="scale(0.015625)"/>
       </defs>
       <use xlink:href="#DejaVuSans-32"/>
      </g>
     </g>
    </g>
    <g id="xtick_4">
     <g id="line2d_4">
      <g>
       <use xlink:href="#m44cb298ad4" x="268.820442" y="307.584" style="stroke: #000000; stroke-width: 0.8"/>
      </g>
     </g>
     <g id="text_4">
      <!-- 3 -->
      <g transform="translate(265.639192 322.182437) scale(0.1 -0.1)">
       <defs>
        <path id="DejaVuSans-33" d="M 2597 2516 
Q 3050 2419 3304 2112 
Q 3559 1806 3559 1356 
Q 3559 666 3084 287 
Q 2609 -91 1734 -91 
Q 1441 -91 1130 -33 
Q 819 25 488 141 
L 488 750 
Q 750 597 1062 519 
Q 1375 441 1716 441 
Q 2309 441 2620 675 
Q 2931 909 2931 1356 
Q 2931 1769 2642 2001 
Q 2353 2234 1838 2234 
L 1294 2234 
L 1294 2753 
L 1863 2753 
Q 2328 2753 2575 2939 
Q 2822 3125 2822 3475 
Q 2822 3834 2567 4026 
Q 2313 4219 1838 4219 
Q 1578 4219 1281 4162 
Q 984 4106 628 3988 
L 628 4550 
Q 988 4650 1302 4700 
Q 1616 4750 1894 4750 
Q 2613 4750 3031 4423 
Q 3450 4097 3450 3541 
Q 3450 3153 3228 2886 
Q 3006 2619 2597 2516 
z
" transform="scale(0.015625)"/>
       </defs>
       <use xlink:href="#DejaVuSans-33"/>
      </g>
     </g>
    </g>
    <g id="xtick_5">
     <g id="line2d_5">
      <g>
       <use xlink:href="#m44cb298ad4" x="333.816347" y="307.584" style="stroke: #000000; stroke-width: 0.8"/>
      </g>
     </g>
     <g id="text_5">
      <!-- 4 -->
      <g transform="translate(330.635097 322.182437) scale(0.1 -0.1)">
       <defs>
        <path id="DejaVuSans-34" d="M 2419 4116 
L 825 1625 
L 2419 1625 
L 2419 4116 
z
M 2253 4666 
L 3047 4666 
L 3047 1625 
L 3713 1625 
L 3713 1100 
L 3047 1100 
L 3047 0 
L 2419 0 
L 2419 1100 
L 313 1100 
L 313 1709 
L 2253 4666 
z
" transform="scale(0.015625)"/>
       </defs>
       <use xlink:href="#DejaVuSans-34"/>
      </g>
     </g>
    </g>
    <g id="xtick_6">
     <g id="line2d_6">
      <g>
       <use xlink:href="#m44cb298ad4" x="398.812252" y="307.584" style="stroke: #000000; stroke-width: 0.8"/>
      </g>
     </g>
     <g id="text_6">
      <!-- 5 -->
      <g transform="translate(395.631002 322.182437) scale(0.1 -0.1)">
       <defs>
        <path id="DejaVuSans-35" d="M 691 4666 
L 3169 4666 
L 3169 4134 
L 1269 4134 
L 1269 2991 
Q 1406 3038 1543 3061 
Q 1681 3084 1819 3084 
Q 2600 3084 3056 2656 
Q 3513 2228 3513 1497 
Q 3513 744 3044 326 
Q 2575 -91 1722 -91 
Q 1428 -91 1123 -41 
Q 819 9 494 109 
L 494 744 
Q 775 591 1075 516 
Q 1375 441 1709 441 
Q 2250 441 2565 725 
Q 2881 1009 2881 1497 
Q 2881 1984 2565 2268 
Q 2250 2553 1709 2553 
Q 1456 2553 1204 2497 
Q 953 2441 691 2322 
L 691 4666 
z
" transform="scale(0.015625)"/>
       </defs>
       <use xlink:href="#DejaVuSans-35"/>
      </g>
     </g>
    </g>
    <g id="text_7">
     <!-- 1e−7 -->
     <g transform="translate(387.462188 334.860562) scale(0.1 -0.1)">
      <defs>
       <path id="DejaVuSans-65" d="M 3597 1894 
L 3597 1613 
L 953 1613 
Q 991 1019 1311 708 
Q 1631 397 2203 397 
Q 2534 397 2845 478 
Q 3156 559 3463 722 
L 3463 178 
Q 3153 47 2828 -22 
Q 2503 -91 2169 -91 
Q 1331 -91 842 396 
Q 353 884 353 1716 
Q 353 2575 817 3079 
Q 1281 3584 2069 3584 
Q 2775 3584 3186 3129 
Q 3597 2675 3597 1894 
z
M 3022 2063 
Q 3016 2534 2758 2815 
Q 2500 3097 2075 3097 
Q 1594 3097 1305 2825 
Q 1016 2553 972 2059 
L 3022 2063 
z
" transform="scale(0.015625)"/>
       <path id="DejaVuSans-2212" d="M 678 2272 
L 4684 2272 
L 4684 1741 
L 678 1741 
L 678 2272 
z
" transform="scale(0.015625)"/>
       <path id="DejaVuSans-37" d="M 525 4666 
L 3525 4666 
L 3525 4397 
L 1831 0 
L 1172 0 
L 2766 4134 
L 525 4134 
L 525 4666 
z
" transform="scale(0.015625)"/>
      </defs>
      <use xlink:href="#DejaVuSans-31"/>
      <use xlink:href="#DejaVuSans-65" transform="translate(63.623047 0)"/>
      <use xlink:href="#DejaVuSans-2212" transform="translate(125.146484 0)"/>
      <use xlink:href="#DejaVuSans-37" transform="translate(208.935547 0)"/>
     </g>
    </g>
   </g>
   <g id="matplotlib.axis_2">
    <g id="ytick_1">
     <g id="line2d_7">
      <defs>
       <path id="md7260b79f9" d="M 0 0 
L -3.5 0 
" style="stroke: #000000; stroke-width: 0.8"/>
      </defs>
      <g>
       <use xlink:href="#md7260b79f9" x="57.6" y="278.678543" style="stroke: #000000; stroke-width: 0.8"/>
      </g>
     </g>
     <g id="text_8">
      <!-- −200 -->
      <g transform="translate(23.132812 282.477762) scale(0.1 -0.1)">
       <use xlink:href="#DejaVuSans-2212"/>
       <use xlink:href="#DejaVuSans-32" transform="translate(83.789062 0)"/>
       <use xlink:href="#DejaVuSans-30" transform="translate(147.412109 0)"/>
       <use xlink:href="#DejaVuSans-30" transform="translate(211.035156 0)"/>
      </g>
     </g>
    </g>
    <g id="ytick_2">
     <g id="line2d_8">
      <g>
       <use xlink:href="#md7260b79f9" x="57.6" y="221.889798" style="stroke: #000000; stroke-width: 0.8"/>
      </g>
     </g>
     <g id="text_9">
      <!-- −100 -->
      <g transform="translate(23.132812 225.689017) scale(0.1 -0.1)">
       <use xlink:href="#DejaVuSans-2212"/>
       <use xlink:href="#DejaVuSans-31" transform="translate(83.789062 0)"/>
       <use xlink:href="#DejaVuSans-30" transform="translate(147.412109 0)"/>
       <use xlink:href="#DejaVuSans-30" transform="translate(211.035156 0)"/>
      </g>
     </g>
    </g>
    <g id="ytick_3">
     <g id="line2d_9">
      <g>
       <use xlink:href="#md7260b79f9" x="57.6" y="165.101053" style="stroke: #000000; stroke-width: 0.8"/>
      </g>
     </g>
     <g id="text_10">
      <!-- 0 -->
      <g transform="translate(44.2375 168.900272) scale(0.1 -0.1)">
       <use xlink:href="#DejaVuSans-30"/>
      </g>
     </g>
    </g>
    <g id="ytick_4">
     <g id="line2d_10">
      <g>
       <use xlink:href="#md7260b79f9" x="57.6" y="108.312308" style="stroke: #000000; stroke-width: 0.8"/>
      </g>
     </g>
     <g id="text_11">
      <!-- 100 -->
      <g transform="translate(31.5125 112.111527) scale(0.1 -0.1)">
       <use xlink:href="#DejaVuSans-31"/>
       <use xlink:href="#DejaVuSans-30" transform="translate(63.623047 0)"/>
       <use xlink:href="#DejaVuSans-30" transform="translate(127.246094 0)"/>
      </g>
     </g>
    </g>
    <g id="ytick_5">
     <g id="line2d_11">
      <g>
       <use xlink:href="#md7260b79f9" x="57.6" y="51.523563" style="stroke: #000000; stroke-width: 0.8"/>
      </g>
     </g>
     <g id="text_12">
      <!-- 200 -->
      <g transform="translate(31.5125 55.322782) scale(0.1 -0.1)">
       <use xlink:href="#DejaVuSans-32"/>
       <use xlink:href="#DejaVuSans-30" transform="translate(63.623047 0)"/>
       <use xlink:href="#DejaVuSans-30" transform="translate(127.246094 0)"/>
      </g>
     </g>
    </g>
   </g>
   <g id="line2d_12">
    <path d="M 73.832727 142.300405 
L 74.157707 145.849701 
L 74.482686 145.849701 
L 74.807666 149.398997 
L 75.457625 149.398997 
L 75.782604 156.49759 
L 76.107584 156.49759 
L 76.432563 160.046886 
L 76.757543 160.046886 
L 77.082523 167.145478 
L 77.407502 163.596182 
L 78.057461 170.694775 
L 78.382441 170.694775 
L 78.70742 174.244071 
L 79.682359 174.244071 
L 80.007338 181.342663 
L 80.657297 174.244071 
L 80.982277 184.891959 
L 81.307256 184.891959 
L 81.632236 188.441256 
L 81.957215 188.441256 
L 82.282195 195.539848 
L 82.607174 184.891959 
L 82.932154 195.539848 
L 83.257133 199.089144 
L 83.907093 191.990552 
L 84.232072 199.089144 
L 84.882031 199.089144 
L 85.53199 206.187737 
L 85.85697 206.187737 
L 86.181949 209.737033 
L 86.506929 209.737033 
L 87.156888 216.835625 
L 87.481867 216.835625 
L 87.806847 213.286329 
L 88.456806 220.384921 
L 88.781785 220.384921 
L 89.106765 216.835625 
L 89.431744 220.384921 
L 89.756724 220.384921 
L 90.406683 227.483514 
L 90.731663 227.483514 
L 91.056642 223.934218 
L 91.381622 231.03281 
L 91.706601 234.582106 
L 92.35656 234.582106 
L 92.68154 238.131402 
L 93.006519 238.131402 
L 93.656478 245.229995 
L 93.981458 241.680699 
L 94.956396 252.328587 
L 95.606355 252.328587 
L 95.931335 255.877883 
L 96.256314 252.328587 
L 96.581294 262.976476 
L 96.906274 259.42718 
L 97.231253 259.42718 
L 97.556233 266.525772 
L 97.881212 270.075068 
L 98.206192 266.525772 
L 98.856151 273.624364 
L 99.18113 270.075068 
L 99.50611 270.075068 
L 100.156069 277.173661 
L 100.481048 273.624364 
L 101.455987 273.624364 
L 101.780966 277.173661 
L 102.105946 273.624364 
L 102.430925 273.624364 
L 102.755905 277.173661 
L 103.730844 277.173661 
L 104.055823 280.722957 
L 104.380803 273.624364 
L 104.705782 273.624364 
L 105.030762 270.075068 
L 105.355741 273.624364 
L 105.680721 273.624364 
L 106.0057 270.075068 
L 106.33068 270.075068 
L 106.655659 266.525772 
L 106.980639 270.075068 
L 107.305618 266.525772 
L 108.280557 266.525772 
L 108.605536 259.42718 
L 108.930516 262.976476 
L 109.255495 262.976476 
L 109.580475 255.877883 
L 109.905455 252.328587 
L 110.880393 252.328587 
L 111.855332 241.680699 
L 112.180311 241.680699 
L 112.83027 234.582106 
L 113.15525 238.131402 
L 113.480229 234.582106 
L 113.805209 227.483514 
L 114.130188 227.483514 
L 114.455168 231.03281 
L 114.780147 223.934218 
L 115.430106 216.835625 
L 116.405045 216.835625 
L 116.730025 213.286329 
L 117.055004 206.187737 
L 117.379984 209.737033 
L 118.029943 202.63844 
L 118.354922 206.187737 
L 118.679902 206.187737 
L 119.004881 195.539848 
L 119.329861 199.089144 
L 119.65484 195.539848 
L 119.97982 188.441256 
L 120.304799 184.891959 
L 120.629779 184.891959 
L 120.954758 188.441256 
L 122.254676 174.244071 
L 122.579656 177.793367 
L 123.229615 170.694775 
L 123.879574 170.694775 
L 124.204554 167.145478 
L 124.854513 167.145478 
L 125.829451 156.49759 
L 126.47941 156.49759 
L 126.80439 152.948294 
L 127.129369 152.948294 
L 127.454349 145.849701 
L 127.779328 149.398997 
L 128.104308 145.849701 
L 129.079247 145.849701 
L 129.404226 138.751109 
L 129.729206 142.300405 
L 130.054185 138.751109 
L 130.379165 131.652516 
L 130.704144 135.201813 
L 131.029124 135.201813 
L 131.354103 131.652516 
L 132.329042 131.652516 
L 132.654021 124.553924 
L 133.30398 124.553924 
L 133.62896 121.004628 
L 133.953939 121.004628 
L 134.278919 124.553924 
L 134.603898 117.455332 
L 134.928878 117.455332 
L 135.253857 121.004628 
L 135.578837 113.906035 
L 135.903817 110.356739 
L 136.228796 113.906035 
L 136.878755 106.807443 
L 137.203735 110.356739 
L 137.528714 103.258147 
L 137.853694 99.708851 
L 138.178673 106.807443 
L 138.828632 99.708851 
L 139.153612 103.258147 
L 139.803571 96.159554 
L 140.45353 96.159554 
L 140.778509 89.060962 
L 142.078428 89.060962 
L 143.053366 78.413073 
L 143.378346 81.96237 
L 144.028305 74.863777 
L 144.353284 78.413073 
L 144.678264 74.863777 
L 145.003243 67.765185 
L 145.328223 71.314481 
L 145.653202 71.314481 
L 145.978182 64.215889 
L 146.303161 60.666592 
L 146.628141 64.215889 
L 147.2781 64.215889 
L 148.253038 53.568 
L 148.578018 57.117296 
L 149.552957 57.117296 
L 149.877936 60.666592 
L 150.202916 53.568 
L 150.527895 57.117296 
L 151.177854 57.117296 
L 151.502834 53.568 
L 151.827813 53.568 
L 152.152793 60.666592 
L 152.477772 57.117296 
L 153.127731 57.117296 
L 153.452711 53.568 
L 153.77769 57.117296 
L 154.427649 57.117296 
L 155.077609 64.215889 
L 155.402588 60.666592 
L 156.052547 67.765185 
L 157.027486 67.765185 
L 157.677445 74.863777 
L 158.002424 71.314481 
L 158.327404 74.863777 
L 158.652383 74.863777 
L 158.977363 78.413073 
L 159.302342 78.413073 
L 159.952301 85.511666 
L 160.277281 92.610258 
L 160.60226 89.060962 
L 160.92724 92.610258 
L 161.252219 92.610258 
L 161.577199 96.159554 
L 161.902179 92.610258 
L 162.552138 99.708851 
L 162.877117 106.807443 
L 163.852056 106.807443 
L 164.502015 113.906035 
L 164.826994 113.906035 
L 165.476953 121.004628 
L 165.801933 121.004628 
L 166.451892 128.10322 
L 166.776871 124.553924 
L 167.101851 128.10322 
L 167.42683 128.10322 
L 167.75181 135.201813 
L 168.401769 135.201813 
L 168.726749 138.751109 
L 169.051728 138.751109 
L 169.701687 145.849701 
L 170.026667 145.849701 
L 170.676626 152.948294 
L 171.001605 152.948294 
L 171.651564 160.046886 
L 171.976544 156.49759 
L 172.626503 163.596182 
L 172.951482 163.596182 
L 173.276462 167.145478 
L 173.601441 167.145478 
L 173.926421 170.694775 
L 174.2514 167.145478 
L 174.57638 174.244071 
L 175.226339 174.244071 
L 175.876298 181.342663 
L 176.201278 181.342663 
L 176.526257 184.891959 
L 177.176216 184.891959 
L 177.501196 188.441256 
L 177.826175 184.891959 
L 178.151155 188.441256 
L 178.476134 195.539848 
L 178.801114 191.990552 
L 179.126093 195.539848 
L 179.451073 195.539848 
L 179.776052 202.63844 
L 180.101032 199.089144 
L 180.426011 199.089144 
L 181.075971 206.187737 
L 181.40095 202.63844 
L 182.050909 209.737033 
L 182.700868 209.737033 
L 183.025848 213.286329 
L 183.350827 220.384921 
L 183.675807 220.384921 
L 184.000786 216.835625 
L 184.650745 216.835625 
L 184.975725 223.934218 
L 185.300704 227.483514 
L 185.625684 223.934218 
L 185.950663 227.483514 
L 186.275643 227.483514 
L 186.600622 223.934218 
L 187.250581 231.03281 
L 187.575561 231.03281 
L 187.900541 234.582106 
L 188.5505 234.582106 
L 189.200459 241.680699 
L 189.850418 241.680699 
L 190.175397 248.779291 
L 190.825356 248.779291 
L 191.475315 255.877883 
L 191.800295 255.877883 
L 192.450254 262.976476 
L 193.100213 262.976476 
L 193.425192 266.525772 
L 194.400131 266.525772 
L 194.725111 270.075068 
L 195.05009 266.525772 
L 195.37507 277.173661 
L 195.700049 270.075068 
L 196.025029 270.075068 
L 196.350008 280.722957 
L 196.999967 273.624364 
L 197.324947 280.722957 
L 197.649926 280.722957 
L 197.974906 273.624364 
L 198.624865 273.624364 
L 198.949844 277.173661 
L 199.274824 273.624364 
L 199.924783 273.624364 
L 200.249762 270.075068 
L 200.574742 277.173661 
L 200.899722 273.624364 
L 201.224701 266.525772 
L 201.87466 273.624364 
L 202.19964 266.525772 
L 202.524619 270.075068 
L 202.849599 270.075068 
L 203.499558 262.976476 
L 203.824537 270.075068 
L 204.474496 262.976476 
L 204.799476 262.976476 
L 205.774414 252.328587 
L 206.099394 252.328587 
L 206.424373 248.779291 
L 206.749353 248.779291 
L 207.074333 252.328587 
L 207.399312 241.680699 
L 207.724292 241.680699 
L 208.049271 245.229995 
L 208.374251 238.131402 
L 208.69923 234.582106 
L 209.349189 234.582106 
L 209.999148 227.483514 
L 210.324128 227.483514 
L 210.649107 223.934218 
L 210.974087 223.934218 
L 211.299066 220.384921 
L 211.624046 213.286329 
L 211.949025 216.835625 
L 212.274005 216.835625 
L 212.598984 206.187737 
L 212.923964 209.737033 
L 213.248943 209.737033 
L 213.573923 206.187737 
L 213.898903 199.089144 
L 214.223882 202.63844 
L 214.548862 199.089144 
L 214.873841 199.089144 
L 215.198821 195.539848 
L 215.5238 195.539848 
L 215.84878 188.441256 
L 216.823718 188.441256 
L 217.148698 184.891959 
L 217.473677 184.891959 
L 218.123636 177.793367 
L 218.448616 177.793367 
L 219.098575 170.694775 
L 219.748534 170.694775 
L 220.723473 160.046886 
L 221.698411 160.046886 
L 222.023391 152.948294 
L 222.34837 156.49759 
L 222.998329 149.398997 
L 223.323309 149.398997 
L 223.648288 152.948294 
L 223.973268 145.849701 
L 224.298247 142.300405 
L 224.623227 145.849701 
L 224.948206 142.300405 
L 225.598165 142.300405 
L 225.923145 138.751109 
L 226.248124 131.652516 
L 226.573104 135.201813 
L 226.898084 131.652516 
L 227.873022 131.652516 
L 228.198002 124.553924 
L 228.522981 128.10322 
L 228.847961 128.10322 
L 229.17294 124.553924 
L 229.49792 124.553924 
L 229.822899 121.004628 
L 230.147879 124.553924 
L 230.472858 121.004628 
L 230.797838 113.906035 
L 231.122817 113.906035 
L 231.447797 110.356739 
L 231.772776 113.906035 
L 232.097756 110.356739 
L 233.072695 110.356739 
L 233.397674 103.258147 
L 233.722654 106.807443 
L 234.047633 106.807443 
L 234.697592 99.708851 
L 235.672531 99.708851 
L 236.647469 89.060962 
L 236.972449 92.610258 
L 237.622408 85.511666 
L 237.947387 85.511666 
L 238.272367 89.060962 
L 238.597346 81.96237 
L 239.247305 81.96237 
L 239.572285 74.863777 
L 239.897265 71.314481 
L 240.222244 74.863777 
L 240.547224 71.314481 
L 240.872203 71.314481 
L 241.522162 64.215889 
L 242.172121 64.215889 
L 242.82208 57.117296 
L 243.14706 57.117296 
L 243.472039 60.666592 
L 243.797019 57.117296 
L 244.121998 60.666592 
L 244.446978 60.666592 
L 244.771957 57.117296 
L 245.096937 57.117296 
L 245.421916 53.568 
L 245.746896 57.117296 
L 246.071876 57.117296 
L 246.396855 53.568 
L 246.721835 57.117296 
L 247.046814 53.568 
L 247.371794 57.117296 
L 248.346732 57.117296 
L 248.671712 60.666592 
L 248.996691 53.568 
L 249.64665 60.666592 
L 249.97163 57.117296 
L 250.296609 57.117296 
L 250.621589 60.666592 
L 250.946568 60.666592 
L 251.271548 64.215889 
L 252.246486 64.215889 
L 252.571466 67.765185 
L 252.896446 67.765185 
L 253.221425 71.314481 
L 253.546405 71.314481 
L 253.871384 74.863777 
L 254.196364 71.314481 
L 254.521343 78.413073 
L 254.846323 81.96237 
L 255.821261 81.96237 
L 256.146241 89.060962 
L 256.47122 92.610258 
L 256.7962 89.060962 
L 257.121179 92.610258 
L 257.446159 92.610258 
L 257.771138 96.159554 
L 258.096118 96.159554 
L 259.071057 106.807443 
L 259.396036 103.258147 
L 259.721016 110.356739 
L 260.695954 110.356739 
L 261.020934 117.455332 
L 261.345913 121.004628 
L 261.670893 121.004628 
L 261.995872 117.455332 
L 262.320852 124.553924 
L 262.645831 124.553924 
L 263.29579 131.652516 
L 263.62077 131.652516 
L 263.945749 135.201813 
L 264.270729 142.300405 
L 264.595708 135.201813 
L 264.920688 142.300405 
L 265.245667 145.849701 
L 265.895627 145.849701 
L 266.220606 149.398997 
L 266.545586 149.398997 
L 266.870565 152.948294 
L 267.195545 152.948294 
L 267.520524 156.49759 
L 267.845504 152.948294 
L 268.170483 160.046886 
L 268.495463 163.596182 
L 268.820442 163.596182 
L 269.470401 170.694775 
L 269.795381 167.145478 
L 270.44534 174.244071 
L 270.770319 170.694775 
L 271.095299 174.244071 
L 271.420278 174.244071 
L 271.745258 177.793367 
L 272.070238 184.891959 
L 272.395217 181.342663 
L 273.045176 181.342663 
L 273.370156 188.441256 
L 274.020115 188.441256 
L 274.345094 191.990552 
L 274.670074 199.089144 
L 274.995053 195.539848 
L 275.645012 202.63844 
L 275.969992 199.089144 
L 276.619951 199.089144 
L 276.94493 206.187737 
L 277.26991 206.187737 
L 277.594889 209.737033 
L 277.919869 209.737033 
L 278.244848 206.187737 
L 278.569828 213.286329 
L 279.219787 213.286329 
L 279.869746 220.384921 
L 280.194726 216.835625 
L 280.844685 223.934218 
L 281.169664 223.934218 
L 281.494644 220.384921 
L 281.819623 227.483514 
L 282.144603 227.483514 
L 282.469582 231.03281 
L 283.444521 231.03281 
L 283.7695 238.131402 
L 284.09448 234.582106 
L 284.419459 234.582106 
L 284.744439 241.680699 
L 285.069419 245.229995 
L 285.394398 241.680699 
L 286.044357 248.779291 
L 286.369337 245.229995 
L 286.694316 248.779291 
L 287.019296 248.779291 
L 287.344275 255.877883 
L 287.994234 255.877883 
L 288.319214 259.42718 
L 288.644193 259.42718 
L 289.294152 266.525772 
L 289.619132 266.525772 
L 290.269091 273.624364 
L 290.59407 270.075068 
L 291.244029 277.173661 
L 291.569009 273.624364 
L 292.218968 273.624364 
L 292.543948 277.173661 
L 293.193907 277.173661 
L 293.843866 270.075068 
L 294.168845 277.173661 
L 294.493825 277.173661 
L 294.818804 273.624364 
L 295.143784 277.173661 
L 295.468763 277.173661 
L 295.793743 273.624364 
L 296.118722 273.624364 
L 296.443702 277.173661 
L 296.768681 270.075068 
L 297.093661 266.525772 
L 297.41864 273.624364 
L 297.74362 273.624364 
L 298.393579 266.525772 
L 298.718559 270.075068 
L 299.043538 266.525772 
L 300.018477 266.525772 
L 300.343456 262.976476 
L 300.668436 266.525772 
L 300.993415 255.877883 
L 301.318395 262.976476 
L 302.618313 248.779291 
L 302.943292 248.779291 
L 303.268272 245.229995 
L 303.593251 245.229995 
L 303.918231 241.680699 
L 304.24321 234.582106 
L 304.56819 238.131402 
L 305.218149 231.03281 
L 305.868108 231.03281 
L 306.193088 223.934218 
L 306.518067 223.934218 
L 306.843047 227.483514 
L 307.168026 220.384921 
L 307.493006 216.835625 
L 307.817985 216.835625 
L 308.142965 213.286329 
L 308.467944 213.286329 
L 308.792924 209.737033 
L 309.117903 209.737033 
L 309.442883 202.63844 
L 309.767862 209.737033 
L 310.092842 202.63844 
L 310.417821 199.089144 
L 310.742801 199.089144 
L 311.067781 202.63844 
L 311.39276 191.990552 
L 312.042719 191.990552 
L 312.692678 184.891959 
L 313.017658 184.891959 
L 313.667617 177.793367 
L 313.992596 181.342663 
L 314.317576 174.244071 
L 314.642555 170.694775 
L 314.967535 174.244071 
L 315.617494 167.145478 
L 315.942473 167.145478 
L 316.267453 170.694775 
L 316.592432 160.046886 
L 316.917412 163.596182 
L 317.242391 163.596182 
L 317.567371 156.49759 
L 317.892351 152.948294 
L 318.867289 152.948294 
L 319.192269 149.398997 
L 319.517248 149.398997 
L 319.842228 145.849701 
L 320.167207 149.398997 
L 320.492187 142.300405 
L 320.817166 142.300405 
L 321.142146 145.849701 
L 321.467125 142.300405 
L 321.792105 135.201813 
L 322.117084 138.751109 
L 322.442064 138.751109 
L 322.767043 131.652516 
L 323.092023 131.652516 
L 323.417002 128.10322 
L 324.391941 128.10322 
L 325.0419 121.004628 
L 326.016839 121.004628 
L 326.341818 117.455332 
L 326.666798 117.455332 
L 326.991777 113.906035 
L 327.316757 117.455332 
L 327.641736 117.455332 
L 327.966716 110.356739 
L 328.291695 110.356739 
L 328.616675 106.807443 
L 329.591613 106.807443 
L 329.916593 103.258147 
L 330.241572 96.159554 
L 330.566552 106.807443 
L 330.891532 103.258147 
L 331.216511 96.159554 
L 331.541491 99.708851 
L 331.86647 96.159554 
L 332.19145 89.060962 
L 332.516429 92.610258 
L 332.841409 92.610258 
L 333.816347 81.96237 
L 334.141327 89.060962 
L 334.791286 81.96237 
L 335.116265 81.96237 
L 335.441245 74.863777 
L 335.766224 78.413073 
L 336.416183 71.314481 
L 336.741163 71.314481 
L 337.066143 74.863777 
L 337.391122 64.215889 
L 337.716102 67.765185 
L 338.041081 67.765185 
L 338.366061 60.666592 
L 338.69104 64.215889 
L 339.01602 60.666592 
L 339.665979 60.666592 
L 339.990958 57.117296 
L 340.315938 57.117296 
L 340.640917 53.568 
L 340.965897 57.117296 
L 341.940835 57.117296 
L 342.265815 60.666592 
L 342.590794 53.568 
L 342.915774 53.568 
L 343.240753 57.117296 
L 344.215692 57.117296 
L 344.540672 60.666592 
L 345.190631 60.666592 
L 345.51561 57.117296 
L 345.84059 57.117296 
L 346.165569 60.666592 
L 346.815528 60.666592 
L 347.465487 67.765185 
L 347.790467 60.666592 
L 348.115446 67.765185 
L 348.440426 67.765185 
L 348.765405 64.215889 
L 349.415364 71.314481 
L 349.740344 71.314481 
L 350.715283 81.96237 
L 351.040262 78.413073 
L 351.690221 85.511666 
L 352.015201 85.511666 
L 352.66516 92.610258 
L 352.990139 92.610258 
L 353.315119 96.159554 
L 353.640098 103.258147 
L 353.965078 96.159554 
L 354.290057 99.708851 
L 354.615037 99.708851 
L 355.589975 110.356739 
L 355.914955 106.807443 
L 356.239934 110.356739 
L 356.564914 117.455332 
L 356.889894 117.455332 
L 357.214873 113.906035 
L 357.539853 117.455332 
L 357.864832 124.553924 
L 358.189812 121.004628 
L 358.514791 124.553924 
L 358.839771 131.652516 
L 359.16475 131.652516 
L 359.48973 128.10322 
L 360.139689 135.201813 
L 360.464668 135.201813 
L 361.114627 142.300405 
L 361.439607 138.751109 
L 361.764586 145.849701 
L 362.089566 145.849701 
L 363.064505 156.49759 
L 363.389484 152.948294 
L 363.714464 160.046886 
L 364.039443 163.596182 
L 364.364423 160.046886 
L 364.689402 160.046886 
L 365.014382 163.596182 
L 365.339361 170.694775 
L 365.664341 167.145478 
L 365.98932 167.145478 
L 366.3143 170.694775 
L 366.639279 170.694775 
L 366.964259 177.793367 
L 367.939197 177.793367 
L 368.264177 184.891959 
L 368.914136 184.891959 
L 369.239115 188.441256 
L 369.564095 184.891959 
L 370.214054 191.990552 
L 370.539034 191.990552 
L 370.864013 195.539848 
L 371.188993 195.539848 
L 371.513972 199.089144 
L 371.838952 195.539848 
L 372.163931 202.63844 
L 372.81389 202.63844 
L 373.463849 209.737033 
L 373.788829 206.187737 
L 374.113808 209.737033 
L 374.438788 216.835625 
L 374.763767 209.737033 
L 375.088747 213.286329 
L 375.413726 213.286329 
L 375.738706 216.835625 
L 376.713645 216.835625 
L 377.688583 227.483514 
L 378.013563 223.934218 
L 378.338542 227.483514 
L 378.663522 234.582106 
L 378.988501 227.483514 
L 379.313481 231.03281 
L 379.63846 238.131402 
L 379.96344 234.582106 
L 380.288419 234.582106 
L 380.938378 241.680699 
L 381.263358 241.680699 
L 381.588337 248.779291 
L 381.913317 245.229995 
L 382.238296 245.229995 
L 382.563276 252.328587 
L 383.213235 252.328587 
L 383.863194 259.42718 
L 384.188174 255.877883 
L 384.513153 262.976476 
L 384.838133 266.525772 
L 385.163112 262.976476 
L 386.138051 273.624364 
L 386.46303 273.624364 
L 386.78801 270.075068 
L 387.112989 273.624364 
L 387.437969 270.075068 
L 387.762948 277.173661 
L 388.412907 270.075068 
L 388.737887 277.173661 
L 389.062867 277.173661 
L 389.387846 273.624364 
L 389.712826 277.173661 
L 390.687764 277.173661 
L 391.012744 273.624364 
L 391.337723 277.173661 
L 391.987682 270.075068 
L 392.312662 273.624364 
L 392.637641 270.075068 
L 392.962621 270.075068 
L 393.2876 273.624364 
L 393.61258 270.075068 
L 394.262539 270.075068 
L 394.587518 266.525772 
L 395.237477 266.525772 
L 395.887437 259.42718 
L 396.212416 262.976476 
L 396.537396 259.42718 
L 396.862375 259.42718 
L 397.837314 248.779291 
L 398.162293 255.877883 
L 398.487273 248.779291 
L 398.487273 248.779291 
" clip-path="url(#p9c51635a4b)" style="fill: none; stroke: #1f77b4; stroke-width: 1.5; stroke-linecap: square"/>
   </g>
   <g id="line2d_13">
    <path d="M 73.832727 64.783747 
L 74.157707 61.234451 
L 74.482686 68.333043 
L 74.807666 61.234451 
L 75.132645 68.333043 
L 76.107584 68.333043 
L 76.432563 64.783747 
L 76.757543 64.783747 
L 77.082523 71.882339 
L 77.407502 68.333043 
L 78.057461 75.431636 
L 78.70742 68.333043 
L 79.0324 71.882339 
L 80.007338 71.882339 
L 80.332318 75.431636 
L 80.657297 82.530228 
L 80.982277 82.530228 
L 81.307256 78.980932 
L 81.632236 78.980932 
L 81.957215 82.530228 
L 82.282195 82.530228 
L 82.932154 89.62882 
L 83.257133 89.62882 
L 83.582113 86.079524 
L 83.907093 89.62882 
L 84.557052 89.62882 
L 84.882031 93.178117 
L 85.207011 93.178117 
L 85.53199 96.727413 
L 85.85697 96.727413 
L 86.181949 103.826005 
L 86.506929 100.276709 
L 86.831908 100.276709 
L 87.481867 107.375301 
L 87.806847 103.826005 
L 88.131826 110.924598 
L 88.456806 110.924598 
L 88.781785 114.473894 
L 89.431744 114.473894 
L 90.081704 121.572486 
L 90.406683 121.572486 
L 91.381622 132.220375 
L 92.031581 132.220375 
L 92.68154 139.318967 
L 93.006519 139.318967 
L 93.656478 146.41756 
L 93.981458 146.41756 
L 94.631417 153.516152 
L 94.956396 149.966856 
L 95.281376 157.065448 
L 95.606355 157.065448 
L 95.931335 164.164041 
L 96.256314 167.713337 
L 96.906274 167.713337 
L 97.881212 178.361225 
L 98.206192 174.811929 
L 98.531171 178.361225 
L 98.856151 185.459818 
L 99.18113 181.910522 
L 99.50611 185.459818 
L 100.156069 185.459818 
L 100.481048 192.55841 
L 100.806028 192.55841 
L 101.131007 199.657003 
L 101.455987 199.657003 
L 102.105946 206.755595 
L 102.430925 206.755595 
L 102.755905 210.304891 
L 103.080885 210.304891 
L 104.055823 220.95278 
L 104.380803 220.95278 
L 104.705782 224.502076 
L 105.355741 224.502076 
L 105.680721 228.051372 
L 106.0057 228.051372 
L 106.33068 231.600668 
L 106.655659 238.699261 
L 106.980639 242.248557 
L 107.955577 242.248557 
L 108.280557 245.797853 
L 108.605536 245.797853 
L 108.930516 252.896446 
L 109.255495 256.445742 
L 109.580475 256.445742 
L 109.905455 252.896446 
L 110.230434 252.896446 
L 110.880393 259.995038 
L 111.205373 259.995038 
L 111.855332 267.09363 
L 112.83027 267.09363 
L 113.480229 274.192223 
L 113.805209 274.192223 
L 114.455168 281.290815 
L 114.780147 277.741519 
L 115.755086 277.741519 
L 116.080066 281.290815 
L 116.405045 277.741519 
L 116.730025 284.840111 
L 117.055004 288.389408 
L 117.379984 288.389408 
L 117.704963 291.938704 
L 118.029943 288.389408 
L 118.679902 288.389408 
L 119.004881 284.840111 
L 119.329861 291.938704 
L 119.65484 291.938704 
L 119.97982 288.389408 
L 120.954758 288.389408 
L 121.279738 291.938704 
L 121.604717 288.389408 
L 121.929697 291.938704 
L 123.229615 291.938704 
L 123.554595 288.389408 
L 123.879574 288.389408 
L 124.204554 291.938704 
L 125.179492 291.938704 
L 125.504472 288.389408 
L 125.829451 288.389408 
L 126.154431 281.290815 
L 126.47941 288.389408 
L 126.80439 281.290815 
L 127.129369 284.840111 
L 128.104308 284.840111 
L 128.429287 277.741519 
L 128.754267 281.290815 
L 129.079247 277.741519 
L 130.054185 277.741519 
L 130.704144 270.642927 
L 131.029124 270.642927 
L 131.354103 267.09363 
L 131.679083 267.09363 
L 132.004062 263.544334 
L 132.329042 267.09363 
L 132.654021 267.09363 
L 132.979001 263.544334 
L 133.30398 263.544334 
L 133.62896 256.445742 
L 134.278919 256.445742 
L 134.603898 252.896446 
L 134.928878 256.445742 
L 136.553776 238.699261 
L 136.878755 242.248557 
L 137.203735 235.149965 
L 137.528714 238.699261 
L 137.853694 235.149965 
L 138.178673 238.699261 
L 138.503653 231.600668 
L 139.153612 224.502076 
L 139.478591 224.502076 
L 139.803571 220.95278 
L 140.45353 220.95278 
L 140.778509 213.854187 
L 141.103489 213.854187 
L 141.428468 206.755595 
L 141.753448 206.755595 
L 142.403407 199.657003 
L 142.728387 203.206299 
L 143.053366 203.206299 
L 143.378346 206.755595 
L 143.703325 196.107706 
L 144.028305 196.107706 
L 144.353284 192.55841 
L 144.678264 192.55841 
L 145.003243 181.910522 
L 145.328223 189.009114 
L 145.978182 181.910522 
L 146.303161 174.811929 
L 146.628141 174.811929 
L 146.95312 171.262633 
L 147.2781 174.811929 
L 147.603079 167.713337 
L 148.578018 167.713337 
L 148.902998 160.614744 
L 149.227977 157.065448 
L 149.552957 157.065448 
L 150.202916 149.966856 
L 150.527895 149.966856 
L 151.502834 139.318967 
L 151.827813 139.318967 
L 152.152793 132.220375 
L 152.477772 135.769671 
L 152.802752 128.671079 
L 153.452711 128.671079 
L 154.10267 121.572486 
L 154.427649 121.572486 
L 154.752629 118.02319 
L 155.077609 118.02319 
L 155.402588 114.473894 
L 155.727568 114.473894 
L 156.052547 110.924598 
L 156.377527 110.924598 
L 157.352465 100.276709 
L 157.677445 103.826005 
L 158.002424 96.727413 
L 158.327404 100.276709 
L 158.652383 100.276709 
L 158.977363 103.826005 
L 159.302342 96.727413 
L 159.952301 89.62882 
L 161.252219 89.62882 
L 161.577199 82.530228 
L 161.902179 78.980932 
L 162.227158 82.530228 
L 162.552138 78.980932 
L 162.877117 82.530228 
L 163.202097 71.882339 
L 163.527076 78.980932 
L 163.852056 75.431636 
L 164.177035 78.980932 
L 164.826994 71.882339 
L 166.451892 71.882339 
L 166.776871 68.333043 
L 168.07679 68.333043 
L 168.401769 64.783747 
L 168.726749 68.333043 
L 169.701687 68.333043 
L 170.026667 61.234451 
L 170.351646 64.783747 
L 170.676626 64.783747 
L 171.001605 61.234451 
L 171.651564 68.333043 
L 171.976544 64.783747 
L 172.301523 68.333043 
L 172.626503 64.783747 
L 172.951482 68.333043 
L 173.276462 68.333043 
L 173.601441 64.783747 
L 173.926421 71.882339 
L 174.57638 78.980932 
L 174.90136 71.882339 
L 175.226339 71.882339 
L 175.551319 75.431636 
L 176.201278 75.431636 
L 176.526257 78.980932 
L 176.851237 75.431636 
L 177.176216 75.431636 
L 177.501196 78.980932 
L 178.151155 78.980932 
L 178.476134 82.530228 
L 178.801114 78.980932 
L 179.126093 86.079524 
L 179.451073 86.079524 
L 179.776052 93.178117 
L 180.101032 93.178117 
L 180.426011 89.62882 
L 180.750991 93.178117 
L 181.40095 93.178117 
L 182.050909 100.276709 
L 182.375889 96.727413 
L 182.700868 103.826005 
L 183.350827 103.826005 
L 183.675807 110.924598 
L 184.000786 107.375301 
L 184.975725 118.02319 
L 185.625684 118.02319 
L 185.950663 121.572486 
L 186.275643 121.572486 
L 186.600622 125.121782 
L 186.925602 132.220375 
L 188.22552 132.220375 
L 188.5505 135.769671 
L 188.875479 142.868263 
L 189.200459 135.769671 
L 189.525438 146.41756 
L 189.850418 146.41756 
L 190.175397 153.516152 
L 190.825356 153.516152 
L 191.475315 160.614744 
L 191.800295 157.065448 
L 192.125274 164.164041 
L 192.450254 167.713337 
L 193.750172 167.713337 
L 194.075152 178.361225 
L 194.400131 174.811929 
L 194.725111 178.361225 
L 195.37507 192.55841 
L 195.700049 185.459818 
L 196.025029 192.55841 
L 196.674988 192.55841 
L 197.649926 203.206299 
L 197.974906 203.206299 
L 198.299885 206.755595 
L 198.949844 206.755595 
L 199.274824 213.854187 
L 199.599803 210.304891 
L 199.924783 220.95278 
L 200.574742 228.051372 
L 201.224701 228.051372 
L 201.549681 231.600668 
L 201.87466 231.600668 
L 202.849599 242.248557 
L 203.174578 238.699261 
L 203.499558 242.248557 
L 204.149517 242.248557 
L 204.474496 249.347149 
L 204.799476 245.797853 
L 205.124455 252.896446 
L 205.449435 256.445742 
L 205.774414 256.445742 
L 206.099394 259.995038 
L 206.424373 256.445742 
L 206.749353 259.995038 
L 207.399312 259.995038 
L 207.724292 267.09363 
L 208.049271 270.642927 
L 208.374251 270.642927 
L 208.69923 267.09363 
L 209.02421 270.642927 
L 209.349189 270.642927 
L 209.674169 274.192223 
L 209.999148 274.192223 
L 210.649107 281.290815 
L 210.974087 281.290815 
L 211.299066 284.840111 
L 211.624046 277.741519 
L 212.274005 284.840111 
L 212.598984 281.290815 
L 212.923964 288.389408 
L 214.223882 288.389408 
L 214.548862 284.840111 
L 214.873841 288.389408 
L 215.198821 284.840111 
L 215.84878 291.938704 
L 216.498739 291.938704 
L 216.823718 288.389408 
L 217.148698 295.488 
L 217.473677 291.938704 
L 217.798657 291.938704 
L 218.123636 295.488 
L 218.448616 295.488 
L 218.773595 291.938704 
L 219.098575 291.938704 
L 219.423554 288.389408 
L 219.748534 288.389408 
L 220.073514 291.938704 
L 220.398493 288.389408 
L 221.048452 288.389408 
L 221.373432 291.938704 
L 221.698411 291.938704 
L 222.023391 284.840111 
L 222.34837 288.389408 
L 222.67335 284.840111 
L 223.323309 284.840111 
L 223.648288 281.290815 
L 224.298247 281.290815 
L 224.948206 274.192223 
L 225.273186 277.741519 
L 225.598165 270.642927 
L 226.248124 277.741519 
L 226.573104 277.741519 
L 227.223063 270.642927 
L 227.548043 270.642927 
L 228.198002 263.544334 
L 228.522981 263.544334 
L 228.847961 259.995038 
L 229.49792 259.995038 
L 230.147879 252.896446 
L 230.472858 256.445742 
L 230.797838 249.347149 
L 231.122817 249.347149 
L 231.447797 252.896446 
L 232.422735 242.248557 
L 232.747715 242.248557 
L 233.397674 235.149965 
L 233.722654 238.699261 
L 235.022572 224.502076 
L 235.672531 224.502076 
L 235.99751 217.403484 
L 236.972449 217.403484 
L 237.297428 213.854187 
L 237.622408 206.755595 
L 238.272367 206.755595 
L 238.597346 199.657003 
L 239.247305 199.657003 
L 239.572285 192.55841 
L 239.897265 192.55841 
L 240.222244 189.009114 
L 240.547224 181.910522 
L 240.872203 192.55841 
L 241.197183 178.361225 
L 241.847142 185.459818 
L 242.172121 185.459818 
L 242.497101 174.811929 
L 242.82208 178.361225 
L 243.472039 171.262633 
L 243.797019 164.164041 
L 244.121998 167.713337 
L 245.746896 149.966856 
L 246.071876 153.516152 
L 246.396855 142.868263 
L 246.721835 146.41756 
L 247.371794 146.41756 
L 247.696773 139.318967 
L 248.346732 132.220375 
L 248.996691 132.220375 
L 249.64665 125.121782 
L 249.97163 125.121782 
L 250.946568 114.473894 
L 251.271548 114.473894 
L 251.596527 107.375301 
L 251.921507 110.924598 
L 252.246486 110.924598 
L 252.571466 114.473894 
L 252.896446 107.375301 
L 253.221425 107.375301 
L 254.196364 96.727413 
L 254.521343 100.276709 
L 254.846323 100.276709 
L 255.171302 93.178117 
L 255.496282 89.62882 
L 255.821261 89.62882 
L 256.146241 86.079524 
L 256.47122 89.62882 
L 256.7962 82.530228 
L 257.121179 86.079524 
L 257.771138 86.079524 
L 258.096118 82.530228 
L 258.421097 82.530228 
L 258.746077 78.980932 
L 259.071057 78.980932 
L 259.396036 75.431636 
L 259.721016 78.980932 
L 260.045995 75.431636 
L 260.370975 75.431636 
L 261.020934 68.333043 
L 261.345913 68.333043 
L 261.670893 71.882339 
L 261.995872 64.783747 
L 262.320852 71.882339 
L 262.645831 75.431636 
L 263.62077 64.783747 
L 264.595708 64.783747 
L 264.920688 68.333043 
L 265.245667 68.333043 
L 265.570647 64.783747 
L 266.870565 64.783747 
L 267.195545 61.234451 
L 267.520524 64.783747 
L 267.845504 64.783747 
L 268.170483 71.882339 
L 268.495463 68.333043 
L 268.820442 68.333043 
L 269.145422 71.882339 
L 269.795381 71.882339 
L 270.12036 68.333043 
L 270.44534 75.431636 
L 270.770319 71.882339 
L 271.095299 71.882339 
L 271.420278 75.431636 
L 271.745258 71.882339 
L 272.070238 78.980932 
L 272.395217 75.431636 
L 273.045176 82.530228 
L 274.020115 82.530228 
L 274.345094 86.079524 
L 274.995053 86.079524 
L 275.320033 89.62882 
L 275.645012 89.62882 
L 275.969992 86.079524 
L 276.619951 93.178117 
L 276.94493 89.62882 
L 277.26991 93.178117 
L 277.594889 93.178117 
L 277.919869 96.727413 
L 278.244848 103.826005 
L 278.569828 103.826005 
L 278.894808 107.375301 
L 279.219787 103.826005 
L 279.869746 110.924598 
L 280.194726 110.924598 
L 280.519705 114.473894 
L 280.844685 114.473894 
L 281.169664 118.02319 
L 281.819623 118.02319 
L 282.144603 121.572486 
L 282.469582 128.671079 
L 282.794562 121.572486 
L 283.119541 132.220375 
L 283.444521 135.769671 
L 284.09448 135.769671 
L 284.744439 142.868263 
L 285.394398 142.868263 
L 285.719378 149.966856 
L 286.044357 153.516152 
L 286.369337 149.966856 
L 287.019296 157.065448 
L 287.344275 157.065448 
L 287.669255 164.164041 
L 287.994234 160.614744 
L 288.319214 167.713337 
L 288.969173 174.811929 
L 289.294152 171.262633 
L 289.619132 174.811929 
L 289.944111 174.811929 
L 290.269091 178.361225 
L 290.59407 178.361225 
L 290.91905 189.009114 
L 291.244029 189.009114 
L 291.569009 185.459818 
L 291.893989 189.009114 
L 292.543948 189.009114 
L 292.868927 199.657003 
L 293.193907 199.657003 
L 294.168845 210.304891 
L 294.818804 210.304891 
L 295.143784 213.854187 
L 295.468763 213.854187 
L 296.118722 220.95278 
L 296.443702 228.051372 
L 296.768681 224.502076 
L 297.093661 224.502076 
L 297.41864 228.051372 
L 297.74362 228.051372 
L 298.0686 235.149965 
L 298.393579 231.600668 
L 298.718559 238.699261 
L 299.368518 245.797853 
L 300.343456 245.797853 
L 300.668436 249.347149 
L 300.993415 249.347149 
L 301.318395 252.896446 
L 301.643374 259.995038 
L 301.968354 256.445742 
L 302.618313 263.544334 
L 302.943292 259.995038 
L 303.268272 263.544334 
L 303.593251 263.544334 
L 304.56819 274.192223 
L 304.89317 270.642927 
L 305.218149 270.642927 
L 305.543129 274.192223 
L 306.193088 274.192223 
L 306.843047 281.290815 
L 307.168026 277.741519 
L 307.493006 281.290815 
L 307.817985 281.290815 
L 308.142965 277.741519 
L 308.467944 284.840111 
L 308.792924 281.290815 
L 309.117903 284.840111 
L 309.442883 284.840111 
L 309.767862 288.389408 
L 310.092842 288.389408 
L 310.417821 284.840111 
L 310.742801 291.938704 
L 311.067781 284.840111 
L 311.71774 291.938704 
L 312.042719 291.938704 
L 312.367699 288.389408 
L 313.342637 288.389408 
L 313.667617 291.938704 
L 313.992596 284.840111 
L 314.317576 291.938704 
L 315.942473 291.938704 
L 316.267453 288.389408 
L 316.592432 288.389408 
L 316.917412 291.938704 
L 317.242391 291.938704 
L 317.567371 284.840111 
L 317.892351 288.389408 
L 318.54231 281.290815 
L 318.867289 284.840111 
L 319.192269 277.741519 
L 319.517248 284.840111 
L 319.842228 281.290815 
L 320.167207 284.840111 
L 320.492187 277.741519 
L 321.142146 277.741519 
L 321.467125 274.192223 
L 321.792105 274.192223 
L 322.117084 277.741519 
L 322.442064 274.192223 
L 322.767043 274.192223 
L 323.741982 263.544334 
L 324.066962 267.09363 
L 324.391941 263.544334 
L 325.36688 263.544334 
L 325.691859 256.445742 
L 326.341818 256.445742 
L 326.991777 249.347149 
L 327.316757 252.896446 
L 328.941654 235.149965 
L 329.266634 238.699261 
L 329.591613 231.600668 
L 330.241572 231.600668 
L 330.566552 235.149965 
L 330.891532 228.051372 
L 331.86647 217.403484 
L 332.841409 217.403484 
L 334.141327 203.206299 
L 334.466306 203.206299 
L 334.791286 196.107706 
L 335.116265 199.657003 
L 335.441245 196.107706 
L 335.766224 199.657003 
L 336.091204 192.55841 
L 336.416183 192.55841 
L 336.741163 185.459818 
L 337.066143 185.459818 
L 337.391122 178.361225 
L 337.716102 181.910522 
L 338.041081 181.910522 
L 338.366061 174.811929 
L 338.69104 171.262633 
L 339.01602 171.262633 
L 339.340999 167.713337 
L 339.665979 167.713337 
L 339.990958 160.614744 
L 340.640917 160.614744 
L 340.965897 157.065448 
L 341.290876 157.065448 
L 341.615856 149.966856 
L 341.940835 153.516152 
L 342.265815 146.41756 
L 342.590794 146.41756 
L 342.915774 142.868263 
L 343.240753 142.868263 
L 344.540672 128.671079 
L 344.865651 128.671079 
L 345.190631 121.572486 
L 345.51561 125.121782 
L 346.165569 125.121782 
L 346.490549 121.572486 
L 346.815528 114.473894 
L 347.140508 118.02319 
L 347.465487 110.924598 
L 348.440426 110.924598 
L 349.090385 103.826005 
L 349.415364 103.826005 
L 349.740344 100.276709 
L 350.065324 100.276709 
L 350.390303 93.178117 
L 350.715283 96.727413 
L 351.365242 96.727413 
L 352.015201 89.62882 
L 352.34018 89.62882 
L 352.66516 86.079524 
L 353.315119 86.079524 
L 353.640098 82.530228 
L 354.290057 82.530228 
L 354.615037 75.431636 
L 354.940016 75.431636 
L 355.264996 82.530228 
L 355.589975 71.882339 
L 356.239934 78.980932 
L 356.564914 75.431636 
L 356.889894 75.431636 
L 357.214873 71.882339 
L 357.864832 71.882339 
L 358.189812 68.333043 
L 358.514791 68.333043 
L 358.839771 71.882339 
L 359.16475 71.882339 
L 359.48973 68.333043 
L 359.814709 68.333043 
L 360.139689 64.783747 
L 360.464668 68.333043 
L 360.789648 64.783747 
L 361.114627 64.783747 
L 361.439607 68.333043 
L 362.089566 68.333043 
L 362.414545 64.783747 
L 362.739525 68.333043 
L 363.064505 64.783747 
L 363.389484 64.783747 
L 364.039443 71.882339 
L 364.364423 68.333043 
L 365.339361 68.333043 
L 365.664341 71.882339 
L 365.98932 64.783747 
L 366.3143 71.882339 
L 366.639279 75.431636 
L 367.289238 75.431636 
L 367.614218 71.882339 
L 367.939197 75.431636 
L 368.264177 75.431636 
L 368.589156 78.980932 
L 368.914136 78.980932 
L 369.239115 82.530228 
L 369.889075 82.530228 
L 370.214054 78.980932 
L 370.539034 78.980932 
L 370.864013 89.62882 
L 371.188993 86.079524 
L 372.163931 96.727413 
L 372.488911 93.178117 
L 372.81389 93.178117 
L 373.463849 100.276709 
L 373.788829 96.727413 
L 374.113808 103.826005 
L 374.438788 107.375301 
L 374.763767 103.826005 
L 375.088747 103.826005 
L 375.413726 107.375301 
L 375.738706 107.375301 
L 376.063686 114.473894 
L 376.388665 110.924598 
L 377.363604 121.572486 
L 377.688583 121.572486 
L 378.013563 125.121782 
L 378.663522 125.121782 
L 379.313481 132.220375 
L 379.63846 139.318967 
L 380.613399 139.318967 
L 380.938378 142.868263 
L 381.588337 142.868263 
L 381.913317 149.966856 
L 382.563276 157.065448 
L 383.213235 157.065448 
L 383.863194 164.164041 
L 384.188174 160.614744 
L 384.513153 174.811929 
L 384.838133 171.262633 
L 385.163112 174.811929 
L 385.488092 171.262633 
L 385.813071 174.811929 
L 386.138051 174.811929 
L 386.46303 185.459818 
L 386.78801 178.361225 
L 387.112989 185.459818 
L 387.437969 189.009114 
L 387.762948 196.107706 
L 388.087928 192.55841 
L 388.737887 199.657003 
L 389.062867 196.107706 
L 389.712826 203.206299 
L 390.037805 210.304891 
L 390.687764 210.304891 
L 391.012744 213.854187 
L 391.337723 213.854187 
L 392.637641 228.051372 
L 392.962621 228.051372 
L 393.2876 231.600668 
L 393.61258 231.600668 
L 393.937559 235.149965 
L 394.262539 235.149965 
L 395.237477 245.797853 
L 396.212416 245.797853 
L 396.862375 252.896446 
L 397.512334 252.896446 
L 397.837314 259.995038 
L 398.162293 263.544334 
L 398.487273 259.995038 
L 398.487273 259.995038 
" clip-path="url(#p9c51635a4b)" style="fill: none; stroke: #ff7f0e; stroke-width: 1.5; stroke-linecap: square"/>
   </g>
   <g id="line2d_14">
    <path d="M 73.832727 151.31303 
L 81.307256 151.334325 
L 85.53199 151.323678 
L 88.456806 151.323678 
L 92.68154 151.305931 
L 97.556233 151.302382 
L 102.430925 151.30948 
L 107.305618 151.302382 
L 110.230434 151.302382 
L 114.130188 151.25979 
L 116.405045 151.273987 
L 126.154431 151.277537 
L 137.528714 151.295283 
L 140.45353 151.277537 
L 143.703325 151.277537 
L 149.552957 151.302382 
L 156.377527 151.337875 
L 162.877117 151.298832 
L 168.07679 151.295283 
L 181.075971 151.330776 
L 187.250581 151.302382 
L 398.487273 151.288185 
L 398.487273 151.288185 
" clip-path="url(#p9c51635a4b)" style="fill: none; stroke: #2ca02c; stroke-width: 1.5; stroke-linecap: square"/>
   </g>
   <g id="patch_3">
    <path d="M 57.6 307.584 
L 57.6 41.472 
" style="fill: none; stroke: #000000; stroke-width: 0.8; stroke-linejoin: miter; stroke-linecap: square"/>
   </g>
   <g id="patch_4">
    <path d="M 414.72 307.584 
L 414.72 41.472 
" style="fill: none; stroke: #000000; stroke-width: 0.8; stroke-linejoin: miter; stroke-linecap: square"/>
   </g>
   <g id="patch_5">
    <path d="M 57.6 307.584 
L 414.72 307.584 
" style="fill: none; stroke: #000000; stroke-width: 0.8; stroke-linejoin: miter; stroke-linecap: square"/>
   </g>
   <g id="patch_6">
    <path d="M 57.6 41.472 
L 414.72 41.472 
" style="fill: none; stroke: #000000; stroke-width: 0.8; stroke-linejoin: miter; stroke-linecap: square"/>
   </g>
  </g>
 </g>
 <defs>
  <clipPath id="p9c51635a4b">
   <rect x="57.6" y="41.472" width="357.12" height="266.112"/>
  </clipPath>
 </defs>
</svg>
