<?xml version="1.0" encoding="utf-8" standalone="no"?>
<!DOCTYPE svg PUBLIC "-//W3C//DTD SVG 1.1//EN"
  "http://www.w3.org/Graphics/SVG/1.1/DTD/svg11.dtd">
<svg xmlns:xlink="http://www.w3.org/1999/xlink" width="460.8pt" height="345.6pt" viewBox="0 0 460.8 345.6" xmlns="http://www.w3.org/2000/svg" version="1.1">
 <metadata>
  <rdf:RDF xmlns:dc="http://purl.org/dc/elements/1.1/" xmlns:cc="http://creativecommons.org/ns#" xmlns:rdf="http://www.w3.org/1999/02/22-rdf-syntax-ns#">
   <cc:Work>
    <dc:type rdf:resource="http://purl.org/dc/dcmitype/StillImage"/>
    <dc:date>2025-12-28T07:49:24.491723</dc:date>
    <dc:format>image/svg+xml</dc:format>
    <dc:creator>
     <cc:Agent>
      <dc:title>Matplotlib v3.10.8, https://matplotlib.org/</dc:title>
     </cc:Agent>
    </dc:creator>
   </cc:Work>
  </rdf:RDF>
 </metadata>
 <defs>
  <style type="text/css">*{stroke-linejoin: round; stroke-linecap: butt}</style>
 </defs>
 <g id="figure_1">
  <g id="patch_1">
   <path d="M 0 345.6 
L 460.8 345.6 
L 460.8 0 
L 0 0 
z
" style="fill: #ffffff"/>
  </g>
  <g id="axes_1">
   <g id="patch_2">
    <path d="M 57.6 307.584 
L 414.72 307.584 
L 414.72 41.472 
L 57.6 41.472 
z
" style="fill: #ffffff"/>
   </g>
   <g id="matplotlib.axis_1">
    <g id="xtick_1">
     <g id="line2d_1">
      <defs>
       <path id="m781ff56892" d="M 0 0 
L 0 3.5 
" style="stroke: #000000; stroke-width: 0.8"/>
      </defs>
      <g>
       <use xlink:href="#m781ff56892" x="73.832727" y="307.584" style="stroke: #000000; stroke-width: 0.8"/>
      </g>
     </g>
     <g id="text_1">
      <!-- 0 -->
      <g transform="translate(70.651477 322.182437) scale(0.1 -0.1)">
       <defs>
        <path id="DejaVuSans-30" d="M 2034 4250 
Q 1547 4250 1301 3770 
Q 1056 3291 1056 2328 
Q 1056 1369 1301 889 
Q 1547 409 2034 409 
Q 2525 409 2770 889 
Q 3016 1369 3016 2328 
Q 3016 3291 2770 3770 
Q 2525 4250 2034 4250 
z
M 2034 4750 
Q 2819 4750 3233 4129 
Q 3647 3509 3647 2328 
Q 3647 1150 3233 529 
Q 2819 -91 2034 -91 
Q 1250 -91 836 529 
Q 422 1150 422 2328 
Q 422 3509 836 4129 
Q 1250 4750 2034 4750 
z
" transform="scale(0.015625)"/>
       </defs>
       <use xlink:href="#DejaVuSans-30"/>
      </g>
     </g>
    </g>
    <g id="xtick_2">
     <g id="line2d_2">
      <g>
       <use xlink:href="#m781ff56892" x="138.828632" y="307.584" style="stroke: #000000; stroke-width: 0.8"/>
      </g>
     </g>
     <g id="text_2">
      <!-- 1 -->
      <g transform="translate(135.647382 322.182437) scale(0.1 -0.1)">
       <defs>
        <path id="DejaVuSans-31" d="M 794 531 
L 1825 531 
L 1825 4091 
L 703 3866 
L 703 4441 
L 1819 4666 
L 2450 4666 
L 2450 531 
L 3481 531 
L 3481 0 
L 794 0 
L 794 531 
z
" transform="scale(0.015625)"/>
       </defs>
       <use xlink:href="#DejaVuSans-31"/>
      </g>
     </g>
    </g>
    <g id="xtick_3">
     <g id="line2d_3">
      <g>
       <use xlink:href="#m781ff56892" x="203.824537" y="307.584" style="stroke: #000000; stroke-width: 0.8"/>
      </g>
     </g>
     <g id="text_3">
      <!-- 2 -->
      <g transform="translate(200.643287 322.182437) scale(0.1 -0.1)">
       <defs>
        <path id="DejaVuSans-32" d="M 1228 531 
L 3431 531 
L 3431 0 
L 469 0 
L 469 531 
Q 828 903 1448 1529 
Q 2069 2156 2228 2338 
Q 2531 2678 2651 2914 
Q 2772 3150 2772 3378 
Q 2772 3750 2511 3984 
Q 2250 4219 1831 4219 
Q 1534 4219 1204 4116 
Q 875 4013 500 3803 
L 500 4441 
Q 881 4594 1212 4672 
Q 1544 4750 1819 4750 
Q 2544 4750 2975 4387 
Q 3406 4025 3406 3419 
Q 3406 3131 3298 2873 
Q 3191 2616 2906 2266 
Q 2828 2175 2409 1742 
Q 1991 1309 1228 531 
z
" transform="scale(0.015625)"/>
       </defs>
       <use xlink:href="#DejaVuSans-32"/>
      </g>
     </g>
    </g>
    <g id="xtick_4">
     <g id="line2d_4">
      <g>
       <use xlink:href="#m781ff56892" x="268.820442" y="307.584" style="stroke: #000000; stroke-width: 0.8"/>
      </g>
     </g>
     <g id="text_4">
      <!-- 3 -->
      <g transform="translate(265.639192 322.182437) scale(0.1 -0.1)">
       <defs>
        <path id="DejaVuSans-33" d="M 2597 2516 
Q 3050 2419 3304 2112 
Q 3559 1806 3559 1356 
Q 3559 666 3084 287 
Q 2609 -91 1734 -91 
Q 1441 -91 1130 -33 
Q 819 25 488 141 
L 488 750 
Q 750 597 1062 519 
Q 1375 441 1716 441 
Q 2309 441 2620 675 
Q 2931 909 2931 1356 
Q 2931 1769 2642 2001 
Q 2353 2234 1838 2234 
L 1294 2234 
L 1294 2753 
L 1863 2753 
Q 2328 2753 2575 2939 
Q 2822 3125 2822 3475 
Q 2822 3834 2567 4026 
Q 2313 4219 1838 4219 
Q 1578 4219 1281 4162 
Q 984 4106 628 3988 
L 628 4550 
Q 988 4650 1302 4700 
Q 1616 4750 1894 4750 
Q 2613 4750 3031 4423 
Q 3450 4097 3450 3541 
Q 3450 3153 3228 2886 
Q 3006 2619 2597 2516 
z
" transform="scale(0.015625)"/>
       </defs>
       <use xlink:href="#DejaVuSans-33"/>
      </g>
     </g>
    </g>
    <g id="xtick_5">
     <g id="line2d_5">
      <g>
       <use xlink:href="#m781ff56892" x="333.816347" y="307.584" style="stroke: #000000; stroke-width: 0.8"/>
      </g>
     </g>
     <g id="text_5">
      <!-- 4 -->
      <g transform="translate(330.635097 322.182437) scale(0.1 -0.1)">
       <defs>
        <path id="DejaVuSans-34" d="M 2419 4116 
L 825 1625 
L 2419 1625 
L 2419 4116 
z
M 2253 4666 
L 3047 4666 
L 3047 1625 
L 3713 1625 
L 3713 1100 
L 3047 1100 
L 3047 0 
L 2419 0 
L 2419 1100 
L 313 1100 
L 313 1709 
L 2253 4666 
z
" transform="scale(0.015625)"/>
       </defs>
       <use xlink:href="#DejaVuSans-34"/>
      </g>
     </g>
    </g>
    <g id="xtick_6">
     <g id="line2d_6">
      <g>
       <use xlink:href="#m781ff56892" x="398.812252" y="307.584" style="stroke: #000000; stroke-width: 0.8"/>
      </g>
     </g>
     <g id="text_6">
      <!-- 5 -->
      <g transform="translate(395.631002 322.182437) scale(0.1 -0.1)">
       <defs>
        <path id="DejaVuSans-35" d="M 691 4666 
L 3169 4666 
L 3169 4134 
L 1269 4134 
L 1269 2991 
Q 1406 3038 1543 3061 
Q 1681 3084 1819 3084 
Q 2600 3084 3056 2656 
Q 3513 2228 3513 1497 
Q 3513 744 3044 326 
Q 2575 -91 1722 -91 
Q 1428 -91 1123 -41 
Q 819 9 494 109 
L 494 744 
Q 775 591 1075 516 
Q 1375 441 1709 441 
Q 2250 441 2565 725 
Q 2881 1009 2881 1497 
Q 2881 1984 2565 2268 
Q 2250 2553 1709 2553 
Q 1456 2553 1204 2497 
Q 953 2441 691 2322 
L 691 4666 
z
" transform="scale(0.015625)"/>
       </defs>
       <use xlink:href="#DejaVuSans-35"/>
      </g>
     </g>
    </g>
    <g id="text_7">
     <!-- 1e−7 -->
     <g transform="translate(387.462188 334.860562) scale(0.1 -0.1)">
      <defs>
       <path id="DejaVuSans-65" d="M 3597 1894 
L 3597 1613 
L 953 1613 
Q 991 1019 1311 708 
Q 1631 397 2203 397 
Q 2534 397 2845 478 
Q 3156 559 3463 722 
L 3463 178 
Q 3153 47 2828 -22 
Q 2503 -91 2169 -91 
Q 1331 -91 842 396 
Q 353 884 353 1716 
Q 353 2575 817 3079 
Q 1281 3584 2069 3584 
Q 2775 3584 3186 3129 
Q 3597 2675 3597 1894 
z
M 3022 2063 
Q 3016 2534 2758 2815 
Q 2500 3097 2075 3097 
Q 1594 3097 1305 2825 
Q 1016 2553 972 2059 
L 3022 2063 
z
" transform="scale(0.015625)"/>
       <path id="DejaVuSans-2212" d="M 678 2272 
L 4684 2272 
L 4684 1741 
L 678 1741 
L 678 2272 
z
" transform="scale(0.015625)"/>
       <path id="DejaVuSans-37" d="M 525 4666 
L 3525 4666 
L 3525 4397 
L 1831 0 
L 1172 0 
L 2766 4134 
L 525 4134 
L 525 4666 
z
" transform="scale(0.015625)"/>
      </defs>
      <use xlink:href="#DejaVuSans-31"/>
      <use xlink:href="#DejaVuSans-65" transform="translate(63.623047 0)"/>
      <use xlink:href="#DejaVuSans-2212" transform="translate(125.146484 0)"/>
      <use xlink:href="#DejaVuSans-37" transform="translate(208.935547 0)"/>
     </g>
    </g>
   </g>
   <g id="matplotlib.axis_2">
    <g id="ytick_1">
     <g id="line2d_7">
      <defs>
       <path id="m50a07ec1bd" d="M 0 0 
L -3.5 0 
" style="stroke: #000000; stroke-width: 0.8"/>
      </defs>
      <g>
       <use xlink:href="#m50a07ec1bd" x="57.6" y="267.816138" style="stroke: #000000; stroke-width: 0.8"/>
      </g>
     </g>
     <g id="text_8">
      <!-- −200 -->
      <g transform="translate(23.132812 271.615357) scale(0.1 -0.1)">
       <use xlink:href="#DejaVuSans-2212"/>
       <use xlink:href="#DejaVuSans-32" transform="translate(83.789062 0)"/>
       <use xlink:href="#DejaVuSans-30" transform="translate(147.412109 0)"/>
       <use xlink:href="#DejaVuSans-30" transform="translate(211.035156 0)"/>
      </g>
     </g>
    </g>
    <g id="ytick_2">
     <g id="line2d_8">
      <g>
       <use xlink:href="#m50a07ec1bd" x="57.6" y="215.605055" style="stroke: #000000; stroke-width: 0.8"/>
      </g>
     </g>
     <g id="text_9">
      <!-- −100 -->
      <g transform="translate(23.132812 219.404274) scale(0.1 -0.1)">
       <use xlink:href="#DejaVuSans-2212"/>
       <use xlink:href="#DejaVuSans-31" transform="translate(83.789062 0)"/>
       <use xlink:href="#DejaVuSans-30" transform="translate(147.412109 0)"/>
       <use xlink:href="#DejaVuSans-30" transform="translate(211.035156 0)"/>
      </g>
     </g>
    </g>
    <g id="ytick_3">
     <g id="line2d_9">
      <g>
       <use xlink:href="#m50a07ec1bd" x="57.6" y="163.393973" style="stroke: #000000; stroke-width: 0.8"/>
      </g>
     </g>
     <g id="text_10">
      <!-- 0 -->
      <g transform="translate(44.2375 167.193191) scale(0.1 -0.1)">
       <use xlink:href="#DejaVuSans-30"/>
      </g>
     </g>
    </g>
    <g id="ytick_4">
     <g id="line2d_10">
      <g>
       <use xlink:href="#m50a07ec1bd" x="57.6" y="111.18289" style="stroke: #000000; stroke-width: 0.8"/>
      </g>
     </g>
     <g id="text_11">
      <!-- 100 -->
      <g transform="translate(31.5125 114.982109) scale(0.1 -0.1)">
       <use xlink:href="#DejaVuSans-31"/>
       <use xlink:href="#DejaVuSans-30" transform="translate(63.623047 0)"/>
       <use xlink:href="#DejaVuSans-30" transform="translate(127.246094 0)"/>
      </g>
     </g>
    </g>
    <g id="ytick_5">
     <g id="line2d_11">
      <g>
       <use xlink:href="#m50a07ec1bd" x="57.6" y="58.971807" style="stroke: #000000; stroke-width: 0.8"/>
      </g>
     </g>
     <g id="text_12">
      <!-- 200 -->
      <g transform="translate(31.5125 62.771026) scale(0.1 -0.1)">
       <use xlink:href="#DejaVuSans-32"/>
       <use xlink:href="#DejaVuSans-30" transform="translate(63.623047 0)"/>
       <use xlink:href="#DejaVuSans-30" transform="translate(127.246094 0)"/>
      </g>
     </g>
    </g>
   </g>
   <g id="line2d_12">
    <path d="M 73.832727 174.306116 
L 74.157707 174.306116 
L 74.482686 167.779732 
L 75.132645 167.779732 
L 75.457625 164.516539 
L 75.782604 164.516539 
L 76.107584 157.990155 
L 76.432563 154.726962 
L 76.757543 157.990155 
L 77.407502 151.46377 
L 77.732482 154.726962 
L 78.382441 148.200578 
L 78.70742 151.46377 
L 79.0324 148.200578 
L 79.357379 138.411001 
L 79.682359 141.674193 
L 80.007338 138.411001 
L 80.657297 138.411001 
L 80.982277 135.147808 
L 81.307256 135.147808 
L 81.632236 128.621424 
L 81.957215 131.884616 
L 82.607174 125.358231 
L 82.932154 128.621424 
L 83.257133 128.621424 
L 83.907093 122.095039 
L 84.232072 125.358231 
L 84.557052 118.831847 
L 84.882031 118.831847 
L 85.207011 115.568654 
L 85.53199 118.831847 
L 86.181949 112.305462 
L 86.506929 115.568654 
L 86.831908 109.04227 
L 87.156888 112.305462 
L 87.481867 109.04227 
L 88.456806 109.04227 
L 88.781785 102.515885 
L 89.106765 105.779077 
L 89.431744 105.779077 
L 90.081704 99.252693 
L 91.056642 99.252693 
L 91.381622 92.726308 
L 91.706601 92.726308 
L 92.031581 89.463116 
L 92.35656 92.726308 
L 92.68154 89.463116 
L 93.656478 89.463116 
L 93.981458 82.936731 
L 94.631417 82.936731 
L 95.606355 73.147154 
L 96.581294 73.147154 
L 97.231253 66.620769 
L 97.881212 66.620769 
L 98.206192 63.357577 
L 98.856151 63.357577 
L 99.18113 60.094385 
L 99.50611 60.094385 
L 99.831089 63.357577 
L 100.481048 56.831192 
L 101.131007 56.831192 
L 101.455987 60.094385 
L 102.105946 53.568 
L 102.430925 53.568 
L 102.755905 56.831192 
L 103.080885 53.568 
L 103.405864 56.831192 
L 103.730844 56.831192 
L 104.055823 60.094385 
L 104.380803 56.831192 
L 105.030762 63.357577 
L 105.355741 60.094385 
L 106.0057 60.094385 
L 106.33068 63.357577 
L 107.630598 63.357577 
L 108.280557 69.883962 
L 108.605536 66.620769 
L 108.930516 73.147154 
L 109.255495 76.410346 
L 109.580475 73.147154 
L 109.905455 76.410346 
L 110.230434 82.936731 
L 110.555414 82.936731 
L 110.880393 79.673539 
L 111.205373 86.199923 
L 111.530352 86.199923 
L 111.855332 92.726308 
L 112.505291 92.726308 
L 113.15525 99.252693 
L 113.480229 95.9895 
L 113.805209 102.515885 
L 114.455168 109.04227 
L 115.105127 109.04227 
L 115.430106 112.305462 
L 116.080066 112.305462 
L 116.405045 118.831847 
L 117.055004 125.358231 
L 117.379984 122.095039 
L 117.704963 125.358231 
L 118.029943 122.095039 
L 118.354922 131.884616 
L 119.004881 131.884616 
L 119.329861 138.411001 
L 119.65484 141.674193 
L 119.97982 138.411001 
L 120.304799 144.937385 
L 120.629779 144.937385 
L 120.954758 148.200578 
L 121.604717 148.200578 
L 121.929697 154.726962 
L 122.254676 154.726962 
L 122.579656 157.990155 
L 123.229615 157.990155 
L 123.554595 161.253347 
L 123.879574 161.253347 
L 124.204554 164.516539 
L 124.529533 164.516539 
L 124.854513 174.306116 
L 125.179492 171.042924 
L 125.504472 171.042924 
L 126.154431 177.569309 
L 126.80439 177.569309 
L 127.129369 184.095693 
L 127.454349 184.095693 
L 127.779328 187.358886 
L 128.104308 184.095693 
L 128.429287 184.095693 
L 128.754267 190.622078 
L 129.404226 190.622078 
L 129.729206 193.88527 
L 130.054185 200.411655 
L 130.379165 197.148463 
L 130.704144 197.148463 
L 131.029124 203.674847 
L 131.679083 197.148463 
L 132.979001 210.201232 
L 133.30398 206.93804 
L 133.62896 206.93804 
L 133.953939 216.727617 
L 134.278919 210.201232 
L 135.253857 219.990809 
L 135.578837 216.727617 
L 136.228796 223.254001 
L 136.878755 223.254001 
L 137.528714 229.780386 
L 137.853694 229.780386 
L 138.178673 233.043578 
L 138.503653 229.780386 
L 138.828632 229.780386 
L 139.153612 236.306771 
L 139.803571 236.306771 
L 140.12855 239.569963 
L 140.45353 239.569963 
L 140.778509 236.306771 
L 141.103489 242.833155 
L 141.428468 246.096348 
L 141.753448 242.833155 
L 142.078428 246.096348 
L 142.403407 246.096348 
L 142.728387 249.35954 
L 143.053366 249.35954 
L 143.378346 255.885925 
L 143.703325 255.885925 
L 144.028305 252.622732 
L 144.353284 262.41231 
L 144.678264 259.149117 
L 145.003243 262.41231 
L 145.328223 262.41231 
L 145.653202 268.938694 
L 145.978182 265.675502 
L 146.628141 272.201887 
L 146.95312 268.938694 
L 147.2781 272.201887 
L 147.603079 268.938694 
L 147.928059 272.201887 
L 148.902998 272.201887 
L 149.227977 268.938694 
L 149.552957 275.465079 
L 149.877936 275.465079 
L 150.202916 272.201887 
L 150.527895 272.201887 
L 150.852875 275.465079 
L 151.177854 272.201887 
L 152.152793 272.201887 
L 152.802752 265.675502 
L 153.127731 268.938694 
L 153.452711 268.938694 
L 153.77769 265.675502 
L 154.10267 265.675502 
L 154.427649 259.149117 
L 154.752629 262.41231 
L 155.077609 262.41231 
L 155.402588 259.149117 
L 155.727568 262.41231 
L 156.052547 262.41231 
L 156.377527 255.885925 
L 157.027486 255.885925 
L 157.677445 249.35954 
L 158.327404 249.35954 
L 158.652383 242.833155 
L 158.977363 242.833155 
L 159.302342 236.306771 
L 159.627322 233.043578 
L 159.952301 236.306771 
L 160.60226 229.780386 
L 160.92724 233.043578 
L 161.252219 229.780386 
L 161.577199 223.254001 
L 162.227158 223.254001 
L 162.552138 216.727617 
L 162.877117 216.727617 
L 163.202097 210.201232 
L 163.527076 213.464424 
L 164.177035 206.93804 
L 164.502015 206.93804 
L 164.826994 200.411655 
L 165.151974 200.411655 
L 165.801933 193.88527 
L 166.126912 197.148463 
L 166.451892 193.88527 
L 166.776871 187.358886 
L 167.42683 187.358886 
L 168.07679 180.832501 
L 168.401769 174.306116 
L 168.726749 177.569309 
L 169.051728 177.569309 
L 170.026667 167.779732 
L 170.351646 171.042924 
L 171.001605 164.516539 
L 171.651564 164.516539 
L 171.976544 157.990155 
L 172.626503 157.990155 
L 173.601441 148.200578 
L 173.926421 151.46377 
L 174.57638 144.937385 
L 174.90136 144.937385 
L 175.226339 141.674193 
L 175.876298 141.674193 
L 176.201278 135.147808 
L 176.526257 135.147808 
L 176.851237 138.411001 
L 177.501196 131.884616 
L 177.826175 131.884616 
L 178.476134 125.358231 
L 179.451073 125.358231 
L 180.101032 118.831847 
L 180.750991 118.831847 
L 181.075971 115.568654 
L 181.72593 115.568654 
L 182.050909 118.831847 
L 182.375889 112.305462 
L 182.700868 115.568654 
L 183.350827 109.04227 
L 183.675807 109.04227 
L 184.000786 105.779077 
L 184.325766 109.04227 
L 184.650745 109.04227 
L 185.300704 102.515885 
L 185.625684 95.9895 
L 185.950663 99.252693 
L 186.275643 99.252693 
L 186.600622 95.9895 
L 186.925602 95.9895 
L 187.250581 99.252693 
L 187.575561 92.726308 
L 187.900541 95.9895 
L 188.5505 89.463116 
L 188.875479 89.463116 
L 189.200459 86.199923 
L 189.525438 89.463116 
L 190.825356 76.410346 
L 191.150336 79.673539 
L 192.125274 69.883962 
L 192.450254 73.147154 
L 192.775233 66.620769 
L 193.100213 69.883962 
L 193.750172 63.357577 
L 194.400131 63.357577 
L 194.725111 60.094385 
L 195.05009 63.357577 
L 195.37507 63.357577 
L 195.700049 60.094385 
L 196.025029 53.568 
L 196.350008 60.094385 
L 196.674988 56.831192 
L 197.974906 56.831192 
L 198.299885 60.094385 
L 198.624865 60.094385 
L 198.949844 56.831192 
L 199.924783 56.831192 
L 200.249762 60.094385 
L 200.899722 60.094385 
L 201.224701 56.831192 
L 201.549681 63.357577 
L 201.87466 60.094385 
L 202.19964 63.357577 
L 202.524619 63.357577 
L 202.849599 66.620769 
L 203.174578 63.357577 
L 203.824537 69.883962 
L 204.149517 66.620769 
L 204.799476 73.147154 
L 205.124455 73.147154 
L 205.449435 76.410346 
L 206.099394 76.410346 
L 206.424373 82.936731 
L 206.749353 86.199923 
L 207.399312 86.199923 
L 208.049271 92.726308 
L 208.374251 92.726308 
L 209.02421 99.252693 
L 209.674169 99.252693 
L 210.974087 112.305462 
L 211.624046 112.305462 
L 211.949025 118.831847 
L 212.598984 118.831847 
L 212.923964 122.095039 
L 213.248943 128.621424 
L 213.573923 125.358231 
L 214.223882 131.884616 
L 214.548862 131.884616 
L 215.198821 138.411001 
L 215.5238 138.411001 
L 215.84878 144.937385 
L 216.823718 144.937385 
L 217.473677 151.46377 
L 217.798657 151.46377 
L 218.448616 157.990155 
L 218.773595 154.726962 
L 219.098575 161.253347 
L 219.423554 164.516539 
L 220.073514 164.516539 
L 221.048452 174.306116 
L 221.373432 174.306116 
L 221.698411 171.042924 
L 222.67335 180.832501 
L 222.998329 177.569309 
L 223.648288 190.622078 
L 223.973268 180.832501 
L 224.298247 187.358886 
L 224.623227 190.622078 
L 225.273186 190.622078 
L 225.598165 197.148463 
L 225.923145 197.148463 
L 226.248124 200.411655 
L 226.573104 197.148463 
L 226.898084 197.148463 
L 227.223063 193.88527 
L 227.548043 203.674847 
L 228.198002 203.674847 
L 228.522981 206.93804 
L 228.847961 213.464424 
L 229.17294 206.93804 
L 229.822899 213.464424 
L 230.147879 210.201232 
L 230.472858 213.464424 
L 230.797838 213.464424 
L 231.772776 223.254001 
L 232.422735 216.727617 
L 232.747715 226.517194 
L 233.397674 226.517194 
L 234.047633 233.043578 
L 234.372613 229.780386 
L 234.697592 229.780386 
L 235.022572 233.043578 
L 235.347551 233.043578 
L 235.672531 236.306771 
L 235.99751 236.306771 
L 236.32249 239.569963 
L 236.647469 239.569963 
L 236.972449 242.833155 
L 237.297428 242.833155 
L 237.622408 239.569963 
L 237.947387 249.35954 
L 238.597346 249.35954 
L 239.247305 255.885925 
L 239.897265 255.885925 
L 240.222244 259.149117 
L 240.547224 255.885925 
L 240.872203 262.41231 
L 241.197183 262.41231 
L 241.522162 268.938694 
L 241.847142 272.201887 
L 242.172121 268.938694 
L 242.497101 268.938694 
L 242.82208 265.675502 
L 243.14706 272.201887 
L 243.472039 268.938694 
L 243.797019 272.201887 
L 244.121998 272.201887 
L 244.446978 275.465079 
L 245.421916 275.465079 
L 245.746896 268.938694 
L 246.071876 272.201887 
L 246.396855 272.201887 
L 246.721835 275.465079 
L 247.046814 272.201887 
L 247.371794 272.201887 
L 248.021753 265.675502 
L 248.346732 268.938694 
L 248.671712 268.938694 
L 248.996691 265.675502 
L 249.321671 268.938694 
L 249.64665 268.938694 
L 249.97163 265.675502 
L 250.296609 265.675502 
L 250.621589 268.938694 
L 250.946568 262.41231 
L 251.271548 262.41231 
L 251.596527 255.885925 
L 251.921507 255.885925 
L 252.246486 259.149117 
L 253.221425 249.35954 
L 253.546405 252.622732 
L 253.871384 246.096348 
L 254.196364 242.833155 
L 254.521343 246.096348 
L 255.171302 239.569963 
L 255.496282 239.569963 
L 255.821261 236.306771 
L 256.146241 229.780386 
L 256.47122 233.043578 
L 256.7962 229.780386 
L 257.121179 229.780386 
L 257.446159 223.254001 
L 257.771138 223.254001 
L 258.096118 219.990809 
L 258.421097 213.464424 
L 258.746077 216.727617 
L 259.396036 210.201232 
L 260.045995 210.201232 
L 260.370975 203.674847 
L 260.695954 200.411655 
L 261.020934 203.674847 
L 261.345913 197.148463 
L 261.670893 197.148463 
L 261.995872 193.88527 
L 262.320852 193.88527 
L 263.29579 184.095693 
L 263.62077 177.569309 
L 263.945749 184.095693 
L 264.595708 177.569309 
L 265.245667 177.569309 
L 265.895627 171.042924 
L 266.220606 174.306116 
L 266.545586 167.779732 
L 266.870565 164.516539 
L 267.195545 164.516539 
L 267.520524 167.779732 
L 267.845504 161.253347 
L 268.820442 151.46377 
L 269.145422 154.726962 
L 269.470401 148.200578 
L 270.44534 148.200578 
L 270.770319 141.674193 
L 271.095299 144.937385 
L 272.070238 135.147808 
L 272.395217 138.411001 
L 272.720197 138.411001 
L 273.045176 135.147808 
L 273.370156 128.621424 
L 273.695135 128.621424 
L 274.020115 125.358231 
L 274.345094 128.621424 
L 274.670074 122.095039 
L 274.995053 128.621424 
L 275.320033 128.621424 
L 275.645012 125.358231 
L 275.969992 118.831847 
L 276.294971 122.095039 
L 276.619951 122.095039 
L 277.594889 112.305462 
L 277.919869 115.568654 
L 278.244848 115.568654 
L 279.219787 105.779077 
L 279.544767 109.04227 
L 279.869746 109.04227 
L 280.194726 102.515885 
L 280.519705 105.779077 
L 280.844685 105.779077 
L 281.169664 102.515885 
L 281.819623 102.515885 
L 282.144603 95.9895 
L 283.444521 95.9895 
L 284.419459 86.199923 
L 285.069419 86.199923 
L 285.394398 82.936731 
L 285.719378 82.936731 
L 286.044357 86.199923 
L 286.369337 79.673539 
L 287.019296 79.673539 
L 287.344275 73.147154 
L 287.994234 73.147154 
L 288.319214 69.883962 
L 288.969173 69.883962 
L 289.619132 63.357577 
L 290.269091 63.357577 
L 290.59407 60.094385 
L 290.91905 63.357577 
L 291.244029 63.357577 
L 291.569009 60.094385 
L 292.218968 60.094385 
L 292.543948 56.831192 
L 292.868927 56.831192 
L 293.193907 53.568 
L 293.843866 60.094385 
L 294.168845 56.831192 
L 294.493825 56.831192 
L 294.818804 53.568 
L 295.143784 56.831192 
L 295.468763 56.831192 
L 295.793743 53.568 
L 296.118722 56.831192 
L 296.443702 63.357577 
L 296.768681 60.094385 
L 297.093661 60.094385 
L 297.41864 63.357577 
L 297.74362 60.094385 
L 298.393579 60.094385 
L 298.718559 66.620769 
L 300.018477 66.620769 
L 300.343456 69.883962 
L 300.668436 69.883962 
L 301.318395 76.410346 
L 301.643374 82.936731 
L 301.968354 79.673539 
L 302.618313 86.199923 
L 302.943292 86.199923 
L 303.268272 82.936731 
L 303.593251 89.463116 
L 303.918231 92.726308 
L 304.24321 99.252693 
L 304.56819 95.9895 
L 305.218149 95.9895 
L 305.543129 102.515885 
L 306.193088 102.515885 
L 306.518067 105.779077 
L 306.843047 112.305462 
L 307.168026 109.04227 
L 307.493006 115.568654 
L 307.817985 115.568654 
L 308.142965 118.831847 
L 308.467944 118.831847 
L 309.442883 128.621424 
L 310.092842 128.621424 
L 310.742801 135.147808 
L 311.39276 135.147808 
L 311.71774 141.674193 
L 312.367699 141.674193 
L 312.692678 148.200578 
L 313.017658 148.200578 
L 313.342637 151.46377 
L 313.667617 151.46377 
L 314.642555 161.253347 
L 315.292514 161.253347 
L 315.942473 167.779732 
L 316.592432 167.779732 
L 316.917412 171.042924 
L 317.242391 177.569309 
L 317.567371 171.042924 
L 317.892351 177.569309 
L 318.21733 177.569309 
L 318.54231 180.832501 
L 319.192269 180.832501 
L 319.517248 187.358886 
L 319.842228 184.095693 
L 320.492187 190.622078 
L 320.817166 184.095693 
L 321.142146 193.88527 
L 321.792105 193.88527 
L 322.442064 200.411655 
L 322.767043 197.148463 
L 323.092023 200.411655 
L 323.417002 206.93804 
L 323.741982 203.674847 
L 324.066962 203.674847 
L 324.391941 206.93804 
L 324.716921 206.93804 
L 325.36688 213.464424 
L 325.691859 210.201232 
L 326.016839 210.201232 
L 326.341818 216.727617 
L 326.666798 213.464424 
L 326.991777 219.990809 
L 327.316757 219.990809 
L 327.641736 223.254001 
L 327.966716 219.990809 
L 328.616675 226.517194 
L 329.591613 226.517194 
L 329.916593 229.780386 
L 330.241572 229.780386 
L 330.566552 233.043578 
L 330.891532 233.043578 
L 331.216511 229.780386 
L 331.541491 236.306771 
L 332.19145 236.306771 
L 332.841409 242.833155 
L 333.166388 242.833155 
L 333.816347 249.35954 
L 334.141327 246.096348 
L 334.466306 249.35954 
L 334.791286 249.35954 
L 335.116265 255.885925 
L 335.766224 255.885925 
L 336.091204 259.149117 
L 336.416183 255.885925 
L 336.741163 262.41231 
L 337.066143 265.675502 
L 337.391122 262.41231 
L 337.716102 268.938694 
L 338.366061 268.938694 
L 338.69104 272.201887 
L 339.990958 272.201887 
L 340.315938 275.465079 
L 340.640917 272.201887 
L 340.965897 272.201887 
L 341.290876 275.465079 
L 341.615856 272.201887 
L 341.940835 275.465079 
L 342.265815 272.201887 
L 342.590794 272.201887 
L 342.915774 275.465079 
L 343.240753 275.465079 
L 343.565733 268.938694 
L 343.890713 272.201887 
L 344.215692 272.201887 
L 344.540672 268.938694 
L 345.51561 268.938694 
L 345.84059 265.675502 
L 346.165569 265.675502 
L 346.815528 259.149117 
L 347.140508 262.41231 
L 347.465487 259.149117 
L 348.440426 259.149117 
L 348.765405 249.35954 
L 349.090385 252.622732 
L 349.415364 252.622732 
L 349.740344 246.096348 
L 350.065324 246.096348 
L 350.390303 242.833155 
L 351.040262 242.833155 
L 351.365242 236.306771 
L 351.690221 236.306771 
L 352.015201 233.043578 
L 352.34018 233.043578 
L 352.66516 229.780386 
L 352.990139 223.254001 
L 353.315119 229.780386 
L 353.640098 226.517194 
L 353.965078 216.727617 
L 354.290057 216.727617 
L 354.615037 219.990809 
L 354.940016 213.464424 
L 355.589975 206.93804 
L 356.239934 206.93804 
L 356.564914 203.674847 
L 356.889894 197.148463 
L 357.214873 193.88527 
L 357.539853 197.148463 
L 358.189812 190.622078 
L 358.514791 190.622078 
L 359.16475 184.095693 
L 359.814709 184.095693 
L 360.139689 177.569309 
L 360.464668 174.306116 
L 361.439607 174.306116 
L 362.414545 164.516539 
L 362.739525 167.779732 
L 363.389484 161.253347 
L 363.714464 161.253347 
L 364.039443 157.990155 
L 364.364423 157.990155 
L 364.689402 154.726962 
L 365.014382 154.726962 
L 365.664341 148.200578 
L 366.3143 148.200578 
L 366.639279 144.937385 
L 366.964259 144.937385 
L 367.289238 138.411001 
L 367.939197 138.411001 
L 368.264177 135.147808 
L 368.589156 135.147808 
L 368.914136 131.884616 
L 369.239115 135.147808 
L 369.564095 131.884616 
L 370.214054 131.884616 
L 370.539034 125.358231 
L 370.864013 125.358231 
L 371.188993 122.095039 
L 371.513972 125.358231 
L 372.81389 112.305462 
L 373.13887 115.568654 
L 374.113808 115.568654 
L 374.763767 109.04227 
L 375.088747 112.305462 
L 375.413726 112.305462 
L 375.738706 105.779077 
L 377.038624 105.779077 
L 378.013563 95.9895 
L 378.338542 99.252693 
L 378.988501 92.726308 
L 379.313481 95.9895 
L 379.96344 89.463116 
L 380.613399 89.463116 
L 381.263358 82.936731 
L 381.913317 82.936731 
L 382.563276 76.410346 
L 382.888256 76.410346 
L 383.213235 69.883962 
L 383.538215 76.410346 
L 384.188174 69.883962 
L 384.838133 69.883962 
L 385.163112 63.357577 
L 385.488092 66.620769 
L 385.813071 63.357577 
L 386.138051 63.357577 
L 386.46303 56.831192 
L 387.112989 63.357577 
L 387.437969 63.357577 
L 388.087928 56.831192 
L 389.062867 56.831192 
L 389.387846 53.568 
L 389.712826 56.831192 
L 390.037805 56.831192 
L 390.362785 53.568 
L 390.687764 56.831192 
L 392.312662 56.831192 
L 392.637641 60.094385 
L 393.2876 60.094385 
L 393.61258 56.831192 
L 393.937559 63.357577 
L 394.262539 60.094385 
L 394.912498 66.620769 
L 395.562457 66.620769 
L 396.212416 73.147154 
L 396.537396 69.883962 
L 396.862375 69.883962 
L 397.837314 79.673539 
L 398.487273 79.673539 
L 398.487273 79.673539 
" clip-path="url(#pb808ce50db)" style="fill: none; stroke: #1f77b4; stroke-width: 1.5; stroke-linecap: square"/>
   </g>
   <g id="line2d_13">
    <path d="M 73.832727 288.961615 
L 75.132645 288.961615 
L 75.457625 292.224808 
L 75.782604 288.961615 
L 76.107584 292.224808 
L 77.407502 292.224808 
L 78.057461 285.698423 
L 78.382441 288.961615 
L 78.70742 288.961615 
L 79.0324 285.698423 
L 80.007338 285.698423 
L 80.332318 282.435231 
L 80.657297 285.698423 
L 80.982277 282.435231 
L 81.632236 282.435231 
L 81.957215 285.698423 
L 82.282195 279.172038 
L 82.932154 279.172038 
L 83.582113 272.645654 
L 83.907093 275.908846 
L 84.882031 266.119269 
L 85.207011 266.119269 
L 85.53199 262.856077 
L 85.85697 266.119269 
L 86.181949 259.592884 
L 86.506929 262.856077 
L 86.831908 262.856077 
L 87.806847 253.0665 
L 88.131826 253.0665 
L 88.456806 249.803307 
L 89.106765 249.803307 
L 90.731663 233.487346 
L 91.056642 236.750538 
L 91.381622 230.224153 
L 91.706601 233.487346 
L 92.031581 230.224153 
L 92.35656 233.487346 
L 92.68154 226.960961 
L 93.981458 213.908192 
L 94.631417 213.908192 
L 94.956396 207.381807 
L 95.281376 204.118615 
L 95.606355 204.118615 
L 95.931335 197.59223 
L 96.256314 200.855422 
L 96.581294 197.59223 
L 97.231253 197.59223 
L 97.556233 200.855422 
L 97.881212 191.065845 
L 98.206192 191.065845 
L 98.531171 184.539461 
L 98.856151 184.539461 
L 99.18113 178.013076 
L 99.50611 181.276268 
L 100.156069 174.749884 
L 100.481048 164.960307 
L 101.455987 164.960307 
L 101.780966 158.433922 
L 102.105946 161.697114 
L 102.430925 158.433922 
L 102.755905 158.433922 
L 103.080885 155.17073 
L 103.405864 148.644345 
L 103.730844 148.644345 
L 104.705782 138.854768 
L 105.030762 142.11796 
L 105.355741 135.591576 
L 106.33068 125.801999 
L 106.655659 125.801999 
L 106.980639 119.275614 
L 107.305618 122.538806 
L 107.955577 122.538806 
L 108.280557 119.275614 
L 108.605536 112.749229 
L 108.930516 112.749229 
L 109.580475 106.222845 
L 110.230434 106.222845 
L 111.205373 96.433268 
L 111.855332 96.433268 
L 112.180311 89.906883 
L 112.505291 93.170075 
L 113.15525 93.170075 
L 113.805209 86.64369 
L 114.130188 86.64369 
L 114.780147 80.117306 
L 115.105127 80.117306 
L 115.430106 76.854113 
L 116.080066 76.854113 
L 116.405045 73.590921 
L 116.730025 73.590921 
L 117.055004 76.854113 
L 117.379984 70.327729 
L 117.704963 73.590921 
L 118.354922 73.590921 
L 119.004881 67.064536 
L 119.329861 67.064536 
L 119.65484 63.801344 
L 119.97982 67.064536 
L 120.304799 67.064536 
L 120.629779 63.801344 
L 121.279738 63.801344 
L 121.604717 60.538152 
L 121.929697 60.538152 
L 122.254676 63.801344 
L 122.579656 57.274959 
L 122.904636 63.801344 
L 123.229615 67.064536 
L 123.554595 63.801344 
L 123.879574 63.801344 
L 124.204554 60.538152 
L 124.529533 63.801344 
L 124.854513 63.801344 
L 125.179492 60.538152 
L 125.829451 67.064536 
L 126.154431 60.538152 
L 126.47941 63.801344 
L 127.129369 63.801344 
L 127.454349 67.064536 
L 127.779328 63.801344 
L 128.429287 70.327729 
L 129.079247 70.327729 
L 129.404226 73.590921 
L 129.729206 73.590921 
L 130.054185 70.327729 
L 130.704144 76.854113 
L 131.679083 76.854113 
L 132.004062 80.117306 
L 132.329042 76.854113 
L 132.654021 83.380498 
L 132.979001 80.117306 
L 133.30398 83.380498 
L 133.62896 93.170075 
L 133.953939 89.906883 
L 134.603898 89.906883 
L 134.928878 93.170075 
L 135.253857 93.170075 
L 135.578837 96.433268 
L 135.903817 96.433268 
L 136.553776 102.959652 
L 137.528714 102.959652 
L 137.853694 106.222845 
L 138.178673 106.222845 
L 138.503653 112.749229 
L 139.153612 119.275614 
L 139.478591 119.275614 
L 139.803571 122.538806 
L 140.12855 122.538806 
L 141.103489 132.328383 
L 141.753448 132.328383 
L 142.403407 138.854768 
L 142.728387 135.591576 
L 143.053366 145.381153 
L 143.378346 138.854768 
L 143.703325 148.644345 
L 144.028305 151.907537 
L 144.353284 151.907537 
L 144.678264 155.17073 
L 145.003243 155.17073 
L 145.328223 161.697114 
L 145.653202 158.433922 
L 145.978182 158.433922 
L 146.303161 168.223499 
L 146.628141 171.486691 
L 146.95312 171.486691 
L 147.2781 168.223499 
L 147.603079 171.486691 
L 147.928059 168.223499 
L 148.253038 178.013076 
L 148.578018 178.013076 
L 148.902998 181.276268 
L 149.552957 194.329038 
L 149.877936 191.065845 
L 150.202916 191.065845 
L 151.827813 207.381807 
L 152.152793 204.118615 
L 152.477772 210.644999 
L 153.127731 210.644999 
L 154.10267 220.434576 
L 154.427649 226.960961 
L 154.752629 226.960961 
L 155.077609 230.224153 
L 155.402588 230.224153 
L 155.727568 233.487346 
L 156.052547 233.487346 
L 157.027486 243.276923 
L 157.352465 240.01373 
L 158.002424 246.540115 
L 158.327404 246.540115 
L 158.652383 253.0665 
L 158.977363 246.540115 
L 159.302342 253.0665 
L 159.952301 259.592884 
L 160.60226 259.592884 
L 160.92724 262.856077 
L 161.252219 262.856077 
L 161.902179 269.382461 
L 162.877117 269.382461 
L 163.202097 272.645654 
L 163.527076 272.645654 
L 163.852056 275.908846 
L 164.177035 272.645654 
L 164.502015 279.172038 
L 164.826994 282.435231 
L 165.151974 282.435231 
L 165.476953 279.172038 
L 165.801933 279.172038 
L 166.126912 282.435231 
L 166.451892 279.172038 
L 167.101851 285.698423 
L 168.07679 285.698423 
L 168.401769 288.961615 
L 168.726749 285.698423 
L 169.051728 288.961615 
L 169.376708 285.698423 
L 169.701687 292.224808 
L 170.026667 295.488 
L 170.351646 292.224808 
L 170.676626 292.224808 
L 171.001605 288.961615 
L 171.651564 288.961615 
L 171.976544 292.224808 
L 172.626503 292.224808 
L 172.951482 288.961615 
L 173.601441 288.961615 
L 173.926421 285.698423 
L 174.2514 288.961615 
L 174.57638 285.698423 
L 174.90136 288.961615 
L 175.226339 288.961615 
L 175.551319 285.698423 
L 175.876298 288.961615 
L 176.201278 285.698423 
L 176.526257 285.698423 
L 176.851237 282.435231 
L 177.176216 282.435231 
L 177.501196 285.698423 
L 177.826175 282.435231 
L 178.151155 282.435231 
L 178.476134 279.172038 
L 178.801114 272.645654 
L 179.126093 272.645654 
L 179.451073 275.908846 
L 179.776052 269.382461 
L 180.101032 272.645654 
L 180.750991 272.645654 
L 181.075971 266.119269 
L 181.40095 266.119269 
L 181.72593 262.856077 
L 182.700868 262.856077 
L 183.675807 253.0665 
L 184.000786 253.0665 
L 184.325766 249.803307 
L 184.650745 249.803307 
L 184.975725 246.540115 
L 185.625684 246.540115 
L 185.950663 243.276923 
L 186.275643 243.276923 
L 187.575561 230.224153 
L 188.22552 230.224153 
L 188.5505 223.697769 
L 188.875479 223.697769 
L 189.525438 217.171384 
L 189.850418 217.171384 
L 190.175397 210.644999 
L 190.500377 213.908192 
L 191.475315 204.118615 
L 191.800295 204.118615 
L 192.125274 197.59223 
L 192.450254 197.59223 
L 193.100213 191.065845 
L 193.425192 194.329038 
L 193.750172 187.802653 
L 194.075152 187.802653 
L 194.400131 184.539461 
L 194.725111 178.013076 
L 195.05009 184.539461 
L 195.37507 174.749884 
L 195.700049 174.749884 
L 196.025029 178.013076 
L 196.350008 178.013076 
L 196.674988 168.223499 
L 196.999967 168.223499 
L 197.324947 164.960307 
L 197.649926 164.960307 
L 199.274824 148.644345 
L 199.599803 148.644345 
L 199.924783 142.11796 
L 200.249762 142.11796 
L 200.574742 135.591576 
L 200.899722 138.854768 
L 201.224701 135.591576 
L 201.549681 135.591576 
L 202.524619 125.801999 
L 202.849599 125.801999 
L 203.499558 119.275614 
L 203.824537 119.275614 
L 204.799476 109.486037 
L 205.449435 109.486037 
L 205.774414 102.959652 
L 206.099394 102.959652 
L 206.424373 106.222845 
L 206.749353 106.222845 
L 207.074333 96.433268 
L 207.399312 93.170075 
L 207.724292 93.170075 
L 208.049271 96.433268 
L 208.374251 93.170075 
L 208.69923 93.170075 
L 209.349189 86.64369 
L 209.674169 86.64369 
L 209.999148 83.380498 
L 210.649107 83.380498 
L 210.974087 76.854113 
L 211.299066 80.117306 
L 211.949025 80.117306 
L 212.598984 73.590921 
L 212.923964 73.590921 
L 213.248943 70.327729 
L 214.223882 70.327729 
L 214.548862 67.064536 
L 215.198821 67.064536 
L 215.5238 63.801344 
L 215.84878 67.064536 
L 216.173759 60.538152 
L 216.498739 67.064536 
L 216.823718 67.064536 
L 217.148698 70.327729 
L 217.473677 63.801344 
L 217.798657 60.538152 
L 218.123636 63.801344 
L 218.448616 63.801344 
L 218.773595 60.538152 
L 219.098575 60.538152 
L 219.423554 63.801344 
L 222.023391 63.801344 
L 222.34837 67.064536 
L 222.67335 63.801344 
L 223.648288 63.801344 
L 224.298247 70.327729 
L 224.623227 70.327729 
L 224.948206 67.064536 
L 225.273186 70.327729 
L 225.923145 70.327729 
L 226.248124 76.854113 
L 226.573104 70.327729 
L 226.898084 76.854113 
L 227.223063 80.117306 
L 227.873022 80.117306 
L 228.198002 76.854113 
L 228.522981 83.380498 
L 228.847961 83.380498 
L 229.822899 93.170075 
L 230.147879 89.906883 
L 231.122817 89.906883 
L 231.447797 96.433268 
L 231.772776 89.906883 
L 232.422735 102.959652 
L 232.747715 106.222845 
L 233.072695 102.959652 
L 233.722654 109.486037 
L 234.372613 109.486037 
L 234.697592 116.012422 
L 235.347551 116.012422 
L 235.672531 119.275614 
L 235.99751 119.275614 
L 236.32249 122.538806 
L 236.647469 129.065191 
L 236.972449 125.801999 
L 237.622408 138.854768 
L 237.947387 142.11796 
L 238.272367 138.854768 
L 238.597346 138.854768 
L 239.247305 145.381153 
L 239.572285 145.381153 
L 239.897265 151.907537 
L 240.222244 151.907537 
L 240.872203 158.433922 
L 241.197183 158.433922 
L 241.847142 164.960307 
L 242.172121 161.697114 
L 242.497101 171.486691 
L 243.14706 178.013076 
L 243.472039 174.749884 
L 243.797019 178.013076 
L 244.121998 178.013076 
L 244.446978 181.276268 
L 244.771957 181.276268 
L 245.096937 191.065845 
L 245.421916 194.329038 
L 245.746896 187.802653 
L 246.396855 194.329038 
L 246.721835 194.329038 
L 247.046814 200.855422 
L 247.371794 200.855422 
L 247.696773 204.118615 
L 248.021753 210.644999 
L 248.346732 213.908192 
L 248.996691 213.908192 
L 249.64665 220.434576 
L 249.97163 220.434576 
L 250.296609 226.960961 
L 250.946568 226.960961 
L 251.596527 233.487346 
L 251.921507 230.224153 
L 252.246486 236.750538 
L 252.571466 236.750538 
L 252.896446 240.01373 
L 253.221425 246.540115 
L 253.871384 246.540115 
L 254.196364 249.803307 
L 254.521343 249.803307 
L 254.846323 253.0665 
L 255.171302 253.0665 
L 255.496282 256.329692 
L 255.821261 262.856077 
L 256.146241 256.329692 
L 256.7962 262.856077 
L 257.121179 259.592884 
L 257.446159 266.119269 
L 257.771138 262.856077 
L 258.096118 269.382461 
L 258.421097 272.645654 
L 258.746077 272.645654 
L 259.071057 275.908846 
L 259.396036 272.645654 
L 260.045995 272.645654 
L 260.695954 279.172038 
L 261.670893 279.172038 
L 261.995872 282.435231 
L 262.320852 279.172038 
L 262.645831 285.698423 
L 262.970811 282.435231 
L 263.62077 288.961615 
L 264.270729 288.961615 
L 264.595708 285.698423 
L 264.920688 285.698423 
L 265.245667 288.961615 
L 265.570647 288.961615 
L 265.895627 292.224808 
L 266.220606 288.961615 
L 267.195545 288.961615 
L 267.520524 285.698423 
L 267.845504 288.961615 
L 268.170483 285.698423 
L 268.495463 292.224808 
L 268.820442 295.488 
L 269.470401 288.961615 
L 270.12036 288.961615 
L 270.44534 285.698423 
L 270.770319 288.961615 
L 271.095299 288.961615 
L 271.420278 285.698423 
L 272.070238 285.698423 
L 272.720197 279.172038 
L 273.045176 282.435231 
L 273.370156 279.172038 
L 273.695135 282.435231 
L 274.020115 279.172038 
L 274.345094 279.172038 
L 274.670074 275.908846 
L 275.320033 275.908846 
L 275.645012 272.645654 
L 276.294971 272.645654 
L 277.26991 262.856077 
L 277.919869 262.856077 
L 278.569828 256.329692 
L 278.894808 259.592884 
L 279.219787 259.592884 
L 280.194726 249.803307 
L 280.519705 253.0665 
L 280.844685 246.540115 
L 281.169664 243.276923 
L 281.494644 246.540115 
L 281.819623 243.276923 
L 282.144603 236.750538 
L 282.469582 236.750538 
L 283.119541 230.224153 
L 283.444521 230.224153 
L 283.7695 226.960961 
L 284.09448 226.960961 
L 284.419459 230.224153 
L 284.744439 226.960961 
L 285.069419 220.434576 
L 285.394398 217.171384 
L 285.719378 217.171384 
L 286.694316 207.381807 
L 287.019296 207.381807 
L 287.344275 204.118615 
L 287.669255 204.118615 
L 288.319214 197.59223 
L 288.644193 197.59223 
L 288.969173 191.065845 
L 289.619132 191.065845 
L 289.944111 194.329038 
L 290.269091 184.539461 
L 290.59407 184.539461 
L 291.244029 178.013076 
L 291.569009 171.486691 
L 291.893989 174.749884 
L 292.543948 168.223499 
L 292.868927 168.223499 
L 293.518886 161.697114 
L 293.843866 161.697114 
L 294.168845 151.907537 
L 294.493825 158.433922 
L 295.143784 151.907537 
L 295.468763 151.907537 
L 295.793743 145.381153 
L 296.118722 145.381153 
L 296.443702 138.854768 
L 296.768681 135.591576 
L 297.41864 135.591576 
L 297.74362 132.328383 
L 298.0686 125.801999 
L 298.393579 125.801999 
L 298.718559 122.538806 
L 299.043538 125.801999 
L 299.368518 116.012422 
L 299.693497 119.275614 
L 300.343456 119.275614 
L 300.668436 116.012422 
L 300.993415 109.486037 
L 301.318395 109.486037 
L 301.643374 106.222845 
L 301.968354 106.222845 
L 302.293333 102.959652 
L 302.618313 102.959652 
L 302.943292 96.433268 
L 303.268272 99.69646 
L 303.593251 96.433268 
L 303.918231 89.906883 
L 304.24321 89.906883 
L 304.56819 83.380498 
L 304.89317 89.906883 
L 305.543129 89.906883 
L 305.868108 83.380498 
L 306.193088 83.380498 
L 306.518067 80.117306 
L 306.843047 80.117306 
L 307.168026 76.854113 
L 307.817985 76.854113 
L 308.142965 73.590921 
L 308.792924 73.590921 
L 309.117903 70.327729 
L 309.442883 73.590921 
L 309.767862 63.801344 
L 310.092842 70.327729 
L 310.742801 70.327729 
L 311.39276 63.801344 
L 311.71774 67.064536 
L 312.042719 63.801344 
L 312.367699 67.064536 
L 313.017658 67.064536 
L 313.342637 60.538152 
L 313.667617 63.801344 
L 313.992596 60.538152 
L 314.317576 60.538152 
L 314.642555 63.801344 
L 314.967535 60.538152 
L 315.292514 67.064536 
L 315.617494 63.801344 
L 315.942473 67.064536 
L 316.267453 67.064536 
L 316.592432 63.801344 
L 317.892351 63.801344 
L 318.21733 67.064536 
L 318.54231 60.538152 
L 318.867289 67.064536 
L 319.192269 63.801344 
L 319.517248 63.801344 
L 319.842228 67.064536 
L 320.167207 63.801344 
L 320.492187 70.327729 
L 320.817166 73.590921 
L 321.142146 73.590921 
L 321.467125 70.327729 
L 321.792105 73.590921 
L 322.117084 70.327729 
L 322.767043 76.854113 
L 323.741982 76.854113 
L 324.066962 80.117306 
L 324.716921 80.117306 
L 325.0419 86.64369 
L 325.36688 80.117306 
L 326.016839 93.170075 
L 327.316757 93.170075 
L 328.616675 106.222845 
L 328.941654 102.959652 
L 329.266634 102.959652 
L 330.241572 112.749229 
L 330.566552 109.486037 
L 331.216511 122.538806 
L 332.19145 122.538806 
L 332.516429 129.065191 
L 332.841409 132.328383 
L 333.166388 132.328383 
L 333.816347 138.854768 
L 334.141327 135.591576 
L 334.466306 138.854768 
L 334.791286 138.854768 
L 335.116265 142.11796 
L 335.441245 148.644345 
L 335.766224 145.381153 
L 336.091204 155.17073 
L 336.741163 161.697114 
L 337.066143 158.433922 
L 337.716102 164.960307 
L 338.366061 164.960307 
L 338.69104 171.486691 
L 339.340999 178.013076 
L 339.665979 171.486691 
L 340.315938 178.013076 
L 340.640917 184.539461 
L 340.965897 184.539461 
L 341.615856 191.065845 
L 341.940835 197.59223 
L 342.590794 197.59223 
L 343.240753 204.118615 
L 343.565733 204.118615 
L 344.215692 210.644999 
L 344.540672 210.644999 
L 345.190631 217.171384 
L 345.51561 217.171384 
L 345.84059 220.434576 
L 346.165569 220.434576 
L 346.490549 223.697769 
L 346.815528 230.224153 
L 347.140508 233.487346 
L 347.790467 233.487346 
L 348.440426 240.01373 
L 348.765405 240.01373 
L 349.090385 246.540115 
L 350.065324 246.540115 
L 350.390303 249.803307 
L 350.715283 249.803307 
L 351.040262 253.0665 
L 351.365242 253.0665 
L 352.34018 262.856077 
L 352.66516 259.592884 
L 352.990139 266.119269 
L 353.640098 266.119269 
L 354.290057 272.645654 
L 355.264996 272.645654 
L 355.589975 275.908846 
L 355.914955 272.645654 
L 356.239934 279.172038 
L 356.564914 275.908846 
L 356.889894 282.435231 
L 357.864832 282.435231 
L 358.189812 285.698423 
L 358.514791 282.435231 
L 358.839771 285.698423 
L 359.16475 285.698423 
L 359.48973 288.961615 
L 359.814709 288.961615 
L 360.139689 285.698423 
L 361.114627 285.698423 
L 361.439607 288.961615 
L 361.764586 285.698423 
L 362.089566 292.224808 
L 362.414545 288.961615 
L 362.739525 292.224808 
L 363.064505 288.961615 
L 363.389484 288.961615 
L 363.714464 285.698423 
L 364.039443 285.698423 
L 364.689402 292.224808 
L 365.014382 292.224808 
L 365.664341 285.698423 
L 365.98932 288.961615 
L 366.3143 285.698423 
L 366.639279 285.698423 
L 366.964259 282.435231 
L 367.289238 288.961615 
L 367.614218 285.698423 
L 367.939197 288.961615 
L 368.589156 282.435231 
L 369.239115 282.435231 
L 369.564095 275.908846 
L 369.889075 282.435231 
L 370.214054 275.908846 
L 370.539034 275.908846 
L 370.864013 272.645654 
L 371.188993 272.645654 
L 371.513972 269.382461 
L 371.838952 272.645654 
L 372.163931 269.382461 
L 372.488911 272.645654 
L 372.81389 272.645654 
L 373.463849 266.119269 
L 373.788829 266.119269 
L 374.113808 259.592884 
L 374.438788 259.592884 
L 374.763767 256.329692 
L 375.413726 256.329692 
L 375.738706 249.803307 
L 376.388665 249.803307 
L 376.713645 243.276923 
L 377.038624 243.276923 
L 377.363604 240.01373 
L 377.688583 243.276923 
L 378.338542 243.276923 
L 378.663522 236.750538 
L 378.988501 233.487346 
L 379.313481 233.487346 
L 379.63846 230.224153 
L 379.96344 223.697769 
L 380.613399 223.697769 
L 381.263358 217.171384 
L 381.588337 217.171384 
L 381.913317 213.908192 
L 382.238296 213.908192 
L 382.563276 207.381807 
L 382.888256 207.381807 
L 383.213235 210.644999 
L 383.538215 204.118615 
L 384.838133 191.065845 
L 385.163112 191.065845 
L 385.488092 194.329038 
L 385.813071 191.065845 
L 386.138051 181.276268 
L 386.46303 184.539461 
L 386.78801 181.276268 
L 387.112989 174.749884 
L 387.437969 178.013076 
L 387.762948 171.486691 
L 388.087928 174.749884 
L 388.412907 171.486691 
L 388.737887 171.486691 
L 389.062867 164.960307 
L 390.362785 151.907537 
L 390.687764 151.907537 
L 391.662703 142.11796 
L 391.987682 142.11796 
L 392.962621 132.328383 
L 393.2876 132.328383 
L 393.61258 135.591576 
L 393.937559 132.328383 
L 394.262539 125.801999 
L 394.587518 122.538806 
L 394.912498 122.538806 
L 395.562457 116.012422 
L 395.887437 116.012422 
L 396.212416 112.749229 
L 396.537396 112.749229 
L 396.862375 109.486037 
L 397.187355 109.486037 
L 397.837314 102.959652 
L 398.162293 96.433268 
L 398.487273 102.959652 
L 398.487273 102.959652 
" clip-path="url(#pb808ce50db)" style="fill: none; stroke: #ff7f0e; stroke-width: 1.5; stroke-linecap: square"/>
   </g>
   <g id="line2d_14">
    <path d="M 73.832727 148.691332 
L 398.487273 148.789228 
L 398.487273 148.789228 
" clip-path="url(#pb808ce50db)" style="fill: none; stroke: #2ca02c; stroke-width: 1.5; stroke-linecap: square"/>
   </g>
   <g id="patch_3">
    <path d="M 57.6 307.584 
L 57.6 41.472 
" style="fill: none; stroke: #000000; stroke-width: 0.8; stroke-linejoin: miter; stroke-linecap: square"/>
   </g>
   <g id="patch_4">
    <path d="M 414.72 307.584 
L 414.72 41.472 
" style="fill: none; stroke: #000000; stroke-width: 0.8; stroke-linejoin: miter; stroke-linecap: square"/>
   </g>
   <g id="patch_5">
    <path d="M 57.6 307.584 
L 414.72 307.584 
" style="fill: none; stroke: #000000; stroke-width: 0.8; stroke-linejoin: miter; stroke-linecap: square"/>
   </g>
   <g id="patch_6">
    <path d="M 57.6 41.472 
L 414.72 41.472 
" style="fill: none; stroke: #000000; stroke-width: 0.8; stroke-linejoin: miter; stroke-linecap: square"/>
   </g>
  </g>
 </g>
 <defs>
  <clipPath id="pb808ce50db">
   <rect x="57.6" y="41.472" width="357.12" height="266.112"/>
  </clipPath>
 </defs>
</svg>
