<?xml version="1.0" encoding="utf-8" standalone="no"?>
<!DOCTYPE svg PUBLIC "-//W3C//DTD SVG 1.1//EN"
  "http://www.w3.org/Graphics/SVG/1.1/DTD/svg11.dtd">
<svg xmlns:xlink="http://www.w3.org/1999/xlink" width="460.8pt" height="345.6pt" viewBox="0 0 460.8 345.6" xmlns="http://www.w3.org/2000/svg" version="1.1">
 <metadata>
  <rdf:RDF xmlns:dc="http://purl.org/dc/elements/1.1/" xmlns:cc="http://creativecommons.org/ns#" xmlns:rdf="http://www.w3.org/1999/02/22-rdf-syntax-ns#">
   <cc:Work>
    <dc:type rdf:resource="http://purl.org/dc/dcmitype/StillImage"/>
    <dc:date>2025-12-23T02:03:44.420243</dc:date>
    <dc:format>image/svg+xml</dc:format>
    <dc:creator>
     <cc:Agent>
      <dc:title>Matplotlib v3.10.8, https://matplotlib.org/</dc:title>
     </cc:Agent>
    </dc:creator>
   </cc:Work>
  </rdf:RDF>
 </metadata>
 <defs>
  <style type="text/css">*{stroke-linejoin: round; stroke-linecap: butt}</style>
 </defs>
 <g id="figure_1">
  <g id="patch_1">
   <path d="M 0 345.6 
L 460.8 345.6 
L 460.8 0 
L 0 0 
z
" style="fill: #ffffff"/>
  </g>
  <g id="axes_1">
   <g id="patch_2">
    <path d="M 57.6 307.584 
L 414.72 307.584 
L 414.72 41.472 
L 57.6 41.472 
z
" style="fill: #ffffff"/>
   </g>
   <g id="matplotlib.axis_1">
    <g id="xtick_1">
     <g id="line2d_1">
      <defs>
       <path id="m463a8cea76" d="M 0 0 
L 0 3.5 
" style="stroke: #000000; stroke-width: 0.8"/>
      </defs>
      <g>
       <use xlink:href="#m463a8cea76" x="73.832727" y="307.584" style="stroke: #000000; stroke-width: 0.8"/>
      </g>
     </g>
     <g id="text_1">
      <!-- 0 -->
      <g transform="translate(70.651477 322.182437) scale(0.1 -0.1)">
       <defs>
        <path id="DejaVuSans-30" d="M 2034 4250 
Q 1547 4250 1301 3770 
Q 1056 3291 1056 2328 
Q 1056 1369 1301 889 
Q 1547 409 2034 409 
Q 2525 409 2770 889 
Q 3016 1369 3016 2328 
Q 3016 3291 2770 3770 
Q 2525 4250 2034 4250 
z
M 2034 4750 
Q 2819 4750 3233 4129 
Q 3647 3509 3647 2328 
Q 3647 1150 3233 529 
Q 2819 -91 2034 -91 
Q 1250 -91 836 529 
Q 422 1150 422 2328 
Q 422 3509 836 4129 
Q 1250 4750 2034 4750 
z
" transform="scale(0.015625)"/>
       </defs>
       <use xlink:href="#DejaVuSans-30"/>
      </g>
     </g>
    </g>
    <g id="xtick_2">
     <g id="line2d_2">
      <g>
       <use xlink:href="#m463a8cea76" x="138.828632" y="307.584" style="stroke: #000000; stroke-width: 0.8"/>
      </g>
     </g>
     <g id="text_2">
      <!-- 1 -->
      <g transform="translate(135.647382 322.182437) scale(0.1 -0.1)">
       <defs>
        <path id="DejaVuSans-31" d="M 794 531 
L 1825 531 
L 1825 4091 
L 703 3866 
L 703 4441 
L 1819 4666 
L 2450 4666 
L 2450 531 
L 3481 531 
L 3481 0 
L 794 0 
L 794 531 
z
" transform="scale(0.015625)"/>
       </defs>
       <use xlink:href="#DejaVuSans-31"/>
      </g>
     </g>
    </g>
    <g id="xtick_3">
     <g id="line2d_3">
      <g>
       <use xlink:href="#m463a8cea76" x="203.824537" y="307.584" style="stroke: #000000; stroke-width: 0.8"/>
      </g>
     </g>
     <g id="text_3">
      <!-- 2 -->
      <g transform="translate(200.643287 322.182437) scale(0.1 -0.1)">
       <defs>
        <path id="DejaVuSans-32" d="M 1228 531 
L 3431 531 
L 3431 0 
L 469 0 
L 469 531 
Q 828 903 1448 1529 
Q 2069 2156 2228 2338 
Q 2531 2678 2651 2914 
Q 2772 3150 2772 3378 
Q 2772 3750 2511 3984 
Q 2250 4219 1831 4219 
Q 1534 4219 1204 4116 
Q 875 4013 500 3803 
L 500 4441 
Q 881 4594 1212 4672 
Q 1544 4750 1819 4750 
Q 2544 4750 2975 4387 
Q 3406 4025 3406 3419 
Q 3406 3131 3298 2873 
Q 3191 2616 2906 2266 
Q 2828 2175 2409 1742 
Q 1991 1309 1228 531 
z
" transform="scale(0.015625)"/>
       </defs>
       <use xlink:href="#DejaVuSans-32"/>
      </g>
     </g>
    </g>
    <g id="xtick_4">
     <g id="line2d_4">
      <g>
       <use xlink:href="#m463a8cea76" x="268.820442" y="307.584" style="stroke: #000000; stroke-width: 0.8"/>
      </g>
     </g>
     <g id="text_4">
      <!-- 3 -->
      <g transform="translate(265.639192 322.182437) scale(0.1 -0.1)">
       <defs>
        <path id="DejaVuSans-33" d="M 2597 2516 
Q 3050 2419 3304 2112 
Q 3559 1806 3559 1356 
Q 3559 666 3084 287 
Q 2609 -91 1734 -91 
Q 1441 -91 1130 -33 
Q 819 25 488 141 
L 488 750 
Q 750 597 1062 519 
Q 1375 441 1716 441 
Q 2309 441 2620 675 
Q 2931 909 2931 1356 
Q 2931 1769 2642 2001 
Q 2353 2234 1838 2234 
L 1294 2234 
L 1294 2753 
L 1863 2753 
Q 2328 2753 2575 2939 
Q 2822 3125 2822 3475 
Q 2822 3834 2567 4026 
Q 2313 4219 1838 4219 
Q 1578 4219 1281 4162 
Q 984 4106 628 3988 
L 628 4550 
Q 988 4650 1302 4700 
Q 1616 4750 1894 4750 
Q 2613 4750 3031 4423 
Q 3450 4097 3450 3541 
Q 3450 3153 3228 2886 
Q 3006 2619 2597 2516 
z
" transform="scale(0.015625)"/>
       </defs>
       <use xlink:href="#DejaVuSans-33"/>
      </g>
     </g>
    </g>
    <g id="xtick_5">
     <g id="line2d_5">
      <g>
       <use xlink:href="#m463a8cea76" x="333.816347" y="307.584" style="stroke: #000000; stroke-width: 0.8"/>
      </g>
     </g>
     <g id="text_5">
      <!-- 4 -->
      <g transform="translate(330.635097 322.182437) scale(0.1 -0.1)">
       <defs>
        <path id="DejaVuSans-34" d="M 2419 4116 
L 825 1625 
L 2419 1625 
L 2419 4116 
z
M 2253 4666 
L 3047 4666 
L 3047 1625 
L 3713 1625 
L 3713 1100 
L 3047 1100 
L 3047 0 
L 2419 0 
L 2419 1100 
L 313 1100 
L 313 1709 
L 2253 4666 
z
" transform="scale(0.015625)"/>
       </defs>
       <use xlink:href="#DejaVuSans-34"/>
      </g>
     </g>
    </g>
    <g id="xtick_6">
     <g id="line2d_6">
      <g>
       <use xlink:href="#m463a8cea76" x="398.812252" y="307.584" style="stroke: #000000; stroke-width: 0.8"/>
      </g>
     </g>
     <g id="text_6">
      <!-- 5 -->
      <g transform="translate(395.631002 322.182437) scale(0.1 -0.1)">
       <defs>
        <path id="DejaVuSans-35" d="M 691 4666 
L 3169 4666 
L 3169 4134 
L 1269 4134 
L 1269 2991 
Q 1406 3038 1543 3061 
Q 1681 3084 1819 3084 
Q 2600 3084 3056 2656 
Q 3513 2228 3513 1497 
Q 3513 744 3044 326 
Q 2575 -91 1722 -91 
Q 1428 -91 1123 -41 
Q 819 9 494 109 
L 494 744 
Q 775 591 1075 516 
Q 1375 441 1709 441 
Q 2250 441 2565 725 
Q 2881 1009 2881 1497 
Q 2881 1984 2565 2268 
Q 2250 2553 1709 2553 
Q 1456 2553 1204 2497 
Q 953 2441 691 2322 
L 691 4666 
z
" transform="scale(0.015625)"/>
       </defs>
       <use xlink:href="#DejaVuSans-35"/>
      </g>
     </g>
    </g>
    <g id="text_7">
     <!-- 1e−7 -->
     <g transform="translate(387.462188 334.860562) scale(0.1 -0.1)">
      <defs>
       <path id="DejaVuSans-65" d="M 3597 1894 
L 3597 1613 
L 953 1613 
Q 991 1019 1311 708 
Q 1631 397 2203 397 
Q 2534 397 2845 478 
Q 3156 559 3463 722 
L 3463 178 
Q 3153 47 2828 -22 
Q 2503 -91 2169 -91 
Q 1331 -91 842 396 
Q 353 884 353 1716 
Q 353 2575 817 3079 
Q 1281 3584 2069 3584 
Q 2775 3584 3186 3129 
Q 3597 2675 3597 1894 
z
M 3022 2063 
Q 3016 2534 2758 2815 
Q 2500 3097 2075 3097 
Q 1594 3097 1305 2825 
Q 1016 2553 972 2059 
L 3022 2063 
z
" transform="scale(0.015625)"/>
       <path id="DejaVuSans-2212" d="M 678 2272 
L 4684 2272 
L 4684 1741 
L 678 1741 
L 678 2272 
z
" transform="scale(0.015625)"/>
       <path id="DejaVuSans-37" d="M 525 4666 
L 3525 4666 
L 3525 4397 
L 1831 0 
L 1172 0 
L 2766 4134 
L 525 4134 
L 525 4666 
z
" transform="scale(0.015625)"/>
      </defs>
      <use xlink:href="#DejaVuSans-31"/>
      <use xlink:href="#DejaVuSans-65" transform="translate(63.623047 0)"/>
      <use xlink:href="#DejaVuSans-2212" transform="translate(125.146484 0)"/>
      <use xlink:href="#DejaVuSans-37" transform="translate(208.935547 0)"/>
     </g>
    </g>
   </g>
   <g id="matplotlib.axis_2">
    <g id="ytick_1">
     <g id="line2d_7">
      <defs>
       <path id="m17b1c9209d" d="M 0 0 
L -3.5 0 
" style="stroke: #000000; stroke-width: 0.8"/>
      </defs>
      <g>
       <use xlink:href="#m17b1c9209d" x="57.6" y="275.938925" style="stroke: #000000; stroke-width: 0.8"/>
      </g>
     </g>
     <g id="text_8">
      <!-- 0 -->
      <g transform="translate(44.2375 279.738144) scale(0.1 -0.1)">
       <use xlink:href="#DejaVuSans-30"/>
      </g>
     </g>
    </g>
    <g id="ytick_2">
     <g id="line2d_8">
      <g>
       <use xlink:href="#m17b1c9209d" x="57.6" y="236.840739" style="stroke: #000000; stroke-width: 0.8"/>
      </g>
     </g>
     <g id="text_9">
      <!-- 10 -->
      <g transform="translate(37.875 240.639958) scale(0.1 -0.1)">
       <use xlink:href="#DejaVuSans-31"/>
       <use xlink:href="#DejaVuSans-30" transform="translate(63.623047 0)"/>
      </g>
     </g>
    </g>
    <g id="ytick_3">
     <g id="line2d_9">
      <g>
       <use xlink:href="#m17b1c9209d" x="57.6" y="197.742553" style="stroke: #000000; stroke-width: 0.8"/>
      </g>
     </g>
     <g id="text_10">
      <!-- 20 -->
      <g transform="translate(37.875 201.541772) scale(0.1 -0.1)">
       <use xlink:href="#DejaVuSans-32"/>
       <use xlink:href="#DejaVuSans-30" transform="translate(63.623047 0)"/>
      </g>
     </g>
    </g>
    <g id="ytick_4">
     <g id="line2d_10">
      <g>
       <use xlink:href="#m17b1c9209d" x="57.6" y="158.644368" style="stroke: #000000; stroke-width: 0.8"/>
      </g>
     </g>
     <g id="text_11">
      <!-- 30 -->
      <g transform="translate(37.875 162.443586) scale(0.1 -0.1)">
       <use xlink:href="#DejaVuSans-33"/>
       <use xlink:href="#DejaVuSans-30" transform="translate(63.623047 0)"/>
      </g>
     </g>
    </g>
    <g id="ytick_5">
     <g id="line2d_11">
      <g>
       <use xlink:href="#m17b1c9209d" x="57.6" y="119.546182" style="stroke: #000000; stroke-width: 0.8"/>
      </g>
     </g>
     <g id="text_12">
      <!-- 40 -->
      <g transform="translate(37.875 123.345401) scale(0.1 -0.1)">
       <use xlink:href="#DejaVuSans-34"/>
       <use xlink:href="#DejaVuSans-30" transform="translate(63.623047 0)"/>
      </g>
     </g>
    </g>
    <g id="ytick_6">
     <g id="line2d_12">
      <g>
       <use xlink:href="#m17b1c9209d" x="57.6" y="80.447996" style="stroke: #000000; stroke-width: 0.8"/>
      </g>
     </g>
     <g id="text_13">
      <!-- 50 -->
      <g transform="translate(37.875 84.247215) scale(0.1 -0.1)">
       <use xlink:href="#DejaVuSans-35"/>
       <use xlink:href="#DejaVuSans-30" transform="translate(63.623047 0)"/>
      </g>
     </g>
    </g>
   </g>
   <g id="line2d_13">
    <path d="M 73.832727 256.878562 
L 74.157707 256.878562 
L 75.132645 256.145471 
L 75.457625 256.389835 
L 75.782604 255.901108 
L 76.107584 256.145471 
L 76.432563 255.901108 
L 76.757543 256.389835 
L 77.082523 256.145471 
L 77.407502 256.145471 
L 78.382441 256.878562 
L 78.70742 256.634199 
L 79.0324 256.878562 
L 79.357379 256.878562 
L 80.007338 256.389835 
L 80.332318 256.389835 
L 80.657297 256.878562 
L 80.982277 256.389835 
L 81.632236 256.389835 
L 82.282195 256.878562 
L 82.607174 256.878562 
L 82.932154 256.634199 
L 83.257133 256.634199 
L 83.582113 256.878562 
L 83.907093 256.634199 
L 84.232072 256.634199 
L 84.557052 256.389835 
L 84.882031 256.634199 
L 85.53199 256.634199 
L 85.85697 256.878562 
L 86.181949 256.389835 
L 86.506929 256.634199 
L 88.131826 256.634199 
L 88.456806 256.389835 
L 88.781785 256.878562 
L 89.106765 256.634199 
L 89.431744 256.878562 
L 89.756724 257.367289 
L 90.081704 258.833471 
L 90.731663 262.987653 
L 91.381622 265.431289 
L 91.706601 268.119289 
L 93.006519 282.29238 
L 93.331499 283.758562 
L 93.981458 284.247289 
L 94.306437 284.247289 
L 94.631417 284.002926 
L 94.956396 283.025471 
L 95.281376 281.070562 
L 95.931335 274.961471 
L 96.256314 273.495289 
L 96.581294 273.495289 
L 96.906274 274.22838 
L 97.556233 272.762199 
L 97.881212 271.54038 
L 98.206192 271.54038 
L 99.18113 275.938926 
L 99.50611 275.694562 
L 99.831089 275.205835 
L 100.156069 275.938926 
L 100.481048 277.160744 
L 100.806028 278.871289 
L 101.131007 278.871289 
L 101.455987 277.893835 
L 101.780966 275.938926 
L 102.105946 275.938926 
L 102.755905 277.893835 
L 103.080885 277.160744 
L 103.405864 275.450199 
L 103.730844 274.472744 
L 104.055823 274.717108 
L 104.380803 275.694562 
L 104.705782 276.183289 
L 105.355741 274.961471 
L 105.680721 275.205835 
L 106.0057 276.183289 
L 106.655659 276.672017 
L 106.980639 275.694562 
L 107.305618 275.694562 
L 107.630598 276.183289 
L 107.955577 277.160744 
L 108.280557 277.160744 
L 108.930516 276.183289 
L 109.255495 275.938926 
L 109.905455 276.427653 
L 110.555414 276.427653 
L 110.880393 276.183289 
L 111.530352 276.183289 
L 111.855332 276.427653 
L 112.180311 275.694562 
L 112.505291 275.938926 
L 112.83027 275.694562 
L 113.15525 276.183289 
L 113.480229 276.427653 
L 113.805209 276.183289 
L 114.130188 276.183289 
L 114.455168 275.938926 
L 115.105127 276.427653 
L 115.755086 276.427653 
L 116.080066 276.183289 
L 117.055004 276.183289 
L 117.379984 275.938926 
L 117.704963 276.183289 
L 118.029943 275.938926 
L 118.354922 275.938926 
L 118.679902 276.183289 
L 119.329861 276.183289 
L 119.65484 275.938926 
L 119.97982 275.938926 
L 120.304799 276.183289 
L 120.629779 276.183289 
L 120.954758 276.427653 
L 121.279738 276.427653 
L 121.604717 276.183289 
L 121.929697 275.694562 
L 122.254676 276.183289 
L 122.579656 275.938926 
L 122.904636 276.183289 
L 123.879574 276.183289 
L 124.204554 275.938926 
L 124.529533 276.183289 
L 124.854513 275.938926 
L 125.179492 276.183289 
L 125.504472 276.183289 
L 125.829451 275.938926 
L 126.154431 276.427653 
L 126.80439 276.427653 
L 127.129369 275.938926 
L 127.454349 276.183289 
L 127.779328 275.938926 
L 128.104308 276.183289 
L 128.754267 276.183289 
L 129.079247 275.938926 
L 129.404226 276.183289 
L 129.729206 276.183289 
L 130.054185 275.938926 
L 130.379165 275.938926 
L 130.704144 276.183289 
L 131.354103 276.183289 
L 131.679083 276.672017 
L 132.004062 276.672017 
L 132.979001 275.938926 
L 133.30398 276.183289 
L 134.928878 276.183289 
L 135.253857 275.938926 
L 135.578837 276.183289 
L 136.228796 276.183289 
L 136.553776 276.427653 
L 136.878755 276.427653 
L 137.203735 276.183289 
L 137.528714 276.183289 
L 137.853694 276.427653 
L 138.178673 276.183289 
L 139.478591 276.183289 
L 139.803571 276.427653 
L 140.45353 275.938926 
L 140.778509 276.183289 
L 141.103489 276.183289 
L 141.428468 276.427653 
L 141.753448 276.183289 
L 142.403407 276.183289 
L 142.728387 275.938926 
L 143.053366 276.427653 
L 143.378346 276.183289 
L 143.703325 276.672017 
L 144.028305 276.183289 
L 144.353284 276.427653 
L 145.328223 276.427653 
L 145.653202 276.183289 
L 145.978182 276.183289 
L 146.303161 276.427653 
L 147.2781 276.427653 
L 147.603079 276.672017 
L 147.928059 276.183289 
L 148.253038 276.672017 
L 149.227977 276.672017 
L 149.552957 276.91638 
L 151.502834 276.91638 
L 152.477772 277.649471 
L 153.127731 277.649471 
L 153.452711 277.160744 
L 154.10267 274.472744 
L 155.077609 268.119289 
L 155.727568 262.987653 
L 156.052547 260.78838 
L 156.702506 258.833471 
L 157.027486 258.344744 
L 158.327404 255.41238 
L 158.652383 255.41238 
L 159.302342 254.190562 
L 159.627322 253.946199 
L 159.952301 253.946199 
L 160.277281 253.701835 
L 160.60226 253.946199 
L 160.92724 253.946199 
L 162.227158 255.901108 
L 162.552138 256.145471 
L 162.877117 256.634199 
L 163.202097 256.878562 
L 163.527076 256.878562 
L 163.852056 257.367289 
L 164.177035 257.122926 
L 164.502015 257.367289 
L 164.826994 257.122926 
L 165.476953 257.611653 
L 167.101851 257.611653 
L 168.07679 256.878562 
L 168.401769 256.878562 
L 168.726749 256.389835 
L 169.051728 256.878562 
L 169.376708 256.634199 
L 170.676626 256.634199 
L 171.001605 256.389835 
L 171.326585 256.389835 
L 171.651564 256.145471 
L 171.976544 256.145471 
L 172.301523 255.901108 
L 172.626503 256.389835 
L 172.951482 256.389835 
L 173.276462 256.145471 
L 173.926421 256.634199 
L 174.2514 257.122926 
L 174.57638 256.634199 
L 174.90136 256.634199 
L 175.226339 256.389835 
L 175.551319 256.389835 
L 175.876298 256.634199 
L 176.526257 256.634199 
L 176.851237 256.389835 
L 177.176216 256.634199 
L 177.501196 256.389835 
L 178.476134 257.122926 
L 179.126093 256.634199 
L 179.451073 256.878562 
L 179.776052 256.634199 
L 180.101032 256.634199 
L 180.426011 256.389835 
L 180.750991 256.634199 
L 181.075971 256.634199 
L 181.40095 256.878562 
L 181.72593 256.878562 
L 182.050909 256.634199 
L 182.700868 256.634199 
L 183.025848 256.878562 
L 183.675807 256.878562 
L 184.325766 256.389835 
L 184.650745 256.878562 
L 184.975725 256.389835 
L 185.625684 257.367289 
L 186.925602 263.965108 
L 187.250581 265.186926 
L 187.900541 272.029108 
L 188.5505 279.848744 
L 189.200459 283.758562 
L 189.525438 283.758562 
L 189.850418 284.247289 
L 190.500377 283.758562 
L 190.825356 282.781108 
L 191.150336 280.826199 
L 191.800295 275.205835 
L 192.125274 273.495289 
L 192.450254 273.495289 
L 192.775233 273.739653 
L 193.100213 273.739653 
L 193.750172 271.54038 
L 194.075152 271.54038 
L 195.05009 275.938926 
L 195.37507 275.938926 
L 195.700049 275.205835 
L 196.025029 275.694562 
L 196.674988 278.871289 
L 196.999967 279.115653 
L 197.649926 276.183289 
L 197.974906 275.938926 
L 198.624865 277.893835 
L 198.949844 277.405108 
L 199.599803 274.472744 
L 199.924783 274.961471 
L 200.249762 276.183289 
L 200.574742 276.183289 
L 200.899722 275.694562 
L 201.224701 274.717108 
L 201.549681 275.205835 
L 202.19964 276.672017 
L 202.524619 276.427653 
L 202.849599 275.694562 
L 203.174578 275.450199 
L 203.824537 277.405108 
L 204.149517 277.160744 
L 204.799476 276.183289 
L 205.124455 275.938926 
L 205.449435 276.427653 
L 205.774414 276.427653 
L 206.099394 276.672017 
L 206.424373 276.183289 
L 207.074333 276.183289 
L 207.399312 275.938926 
L 207.724292 275.938926 
L 208.049271 275.694562 
L 208.374251 275.694562 
L 208.69923 276.183289 
L 209.02421 276.427653 
L 209.349189 276.427653 
L 209.674169 276.183289 
L 209.999148 276.427653 
L 210.324128 275.694562 
L 210.649107 276.427653 
L 210.974087 276.183289 
L 211.624046 276.183289 
L 211.949025 276.427653 
L 212.598984 275.938926 
L 212.923964 276.183289 
L 215.198821 276.183289 
L 215.5238 275.938926 
L 216.173759 275.938926 
L 216.498739 276.183289 
L 216.823718 276.183289 
L 217.148698 276.427653 
L 217.798657 275.938926 
L 218.448616 275.938926 
L 218.773595 276.183289 
L 220.073514 276.183289 
L 220.398493 276.427653 
L 220.723473 275.938926 
L 221.048452 276.183289 
L 221.373432 275.938926 
L 221.698411 276.183289 
L 222.998329 276.183289 
L 223.323309 275.938926 
L 223.648288 275.938926 
L 224.298247 276.427653 
L 224.623227 276.183289 
L 224.948206 276.183289 
L 225.273186 275.938926 
L 225.598165 276.183289 
L 225.923145 275.938926 
L 226.248124 276.427653 
L 226.898084 276.427653 
L 227.223063 276.183289 
L 227.873022 276.183289 
L 228.198002 275.938926 
L 229.17294 275.938926 
L 229.49792 276.183289 
L 230.797838 276.183289 
L 231.122817 275.938926 
L 231.447797 276.427653 
L 231.772776 276.183289 
L 232.747715 276.183289 
L 233.072695 276.427653 
L 233.397674 276.427653 
L 233.722654 275.938926 
L 234.047633 275.938926 
L 234.372613 276.183289 
L 235.022572 276.183289 
L 235.347551 276.427653 
L 235.672531 276.183289 
L 236.32249 276.183289 
L 236.647469 276.427653 
L 236.972449 276.183289 
L 238.272367 276.183289 
L 238.597346 276.427653 
L 238.922326 276.427653 
L 239.247305 276.183289 
L 239.572285 276.183289 
L 239.897265 276.672017 
L 240.222244 276.427653 
L 240.547224 276.427653 
L 240.872203 276.183289 
L 241.522162 276.183289 
L 241.847142 276.427653 
L 242.172121 276.183289 
L 242.497101 276.427653 
L 242.82208 276.183289 
L 243.14706 276.427653 
L 244.121998 276.427653 
L 244.771957 276.91638 
L 245.421916 276.91638 
L 245.746896 277.160744 
L 246.071876 276.91638 
L 246.396855 277.160744 
L 246.721835 276.91638 
L 247.371794 276.91638 
L 248.346732 277.649471 
L 248.671712 277.649471 
L 248.996691 277.405108 
L 249.321671 276.91638 
L 249.97163 274.717108 
L 250.296609 272.762199 
L 251.271548 265.431289 
L 251.921507 260.78838 
L 252.571466 259.077835 
L 254.196364 255.656744 
L 254.521343 255.41238 
L 254.846323 254.679289 
L 255.171302 254.434926 
L 255.496282 253.946199 
L 255.821261 253.701835 
L 256.146241 253.946199 
L 256.47122 253.946199 
L 256.7962 254.190562 
L 257.121179 254.190562 
L 257.446159 255.168017 
L 257.771138 255.168017 
L 258.096118 255.901108 
L 258.746077 256.389835 
L 259.071057 256.389835 
L 259.721016 257.367289 
L 260.370975 257.367289 
L 260.695954 257.611653 
L 261.345913 257.611653 
L 261.670893 257.856017 
L 261.995872 257.856017 
L 262.320852 257.367289 
L 262.645831 257.856017 
L 262.970811 257.367289 
L 263.29579 257.611653 
L 263.945749 257.122926 
L 264.595708 257.122926 
L 264.920688 256.878562 
L 265.245667 256.878562 
L 265.570647 257.122926 
L 265.895627 256.634199 
L 266.545586 256.634199 
L 266.870565 256.389835 
L 267.195545 256.389835 
L 267.520524 255.901108 
L 267.845504 256.389835 
L 268.170483 256.145471 
L 268.820442 256.145471 
L 269.145422 256.389835 
L 269.795381 256.389835 
L 270.12036 256.878562 
L 270.770319 256.878562 
L 271.095299 256.389835 
L 271.745258 256.878562 
L 272.070238 256.634199 
L 272.395217 256.634199 
L 272.720197 256.389835 
L 273.045176 256.634199 
L 273.370156 256.389835 
L 273.695135 256.634199 
L 274.020115 256.634199 
L 274.345094 256.878562 
L 274.670074 256.878562 
L 274.995053 256.634199 
L 275.320033 256.634199 
L 275.645012 256.389835 
L 275.969992 256.634199 
L 276.294971 256.389835 
L 276.94493 256.878562 
L 277.26991 256.634199 
L 277.594889 256.634199 
L 277.919869 256.389835 
L 278.244848 256.878562 
L 278.569828 256.389835 
L 279.219787 256.878562 
L 279.544767 256.634199 
L 279.869746 256.634199 
L 280.194726 256.389835 
L 280.519705 256.634199 
L 280.844685 256.634199 
L 281.169664 256.878562 
L 281.494644 257.367289 
L 281.819623 259.077835 
L 282.144603 261.521471 
L 283.119541 265.431289 
L 283.7695 271.784744 
L 284.419459 279.60438 
L 284.744439 282.29238 
L 285.394398 284.002926 
L 285.719378 284.491653 
L 286.044357 284.002926 
L 286.369337 284.002926 
L 286.694316 283.025471 
L 287.344275 277.893835 
L 287.669255 274.961471 
L 287.994234 273.495289 
L 288.319214 273.250926 
L 288.644193 273.984017 
L 288.969173 273.495289 
L 289.619132 271.54038 
L 289.944111 271.296017 
L 290.91905 275.938926 
L 291.244029 275.450199 
L 291.569009 275.205835 
L 291.893989 275.694562 
L 292.543948 278.871289 
L 292.868927 279.115653 
L 293.518886 275.938926 
L 293.843866 275.938926 
L 294.493825 277.649471 
L 294.818804 276.91638 
L 295.468763 274.472744 
L 295.793743 274.961471 
L 296.118722 275.694562 
L 296.443702 275.938926 
L 296.768681 275.450199 
L 297.093661 274.717108 
L 297.41864 275.205835 
L 297.74362 276.183289 
L 298.0686 276.672017 
L 298.393579 276.672017 
L 298.718559 275.450199 
L 299.043538 275.450199 
L 299.368518 276.183289 
L 299.693497 277.405108 
L 300.018477 277.160744 
L 300.343456 276.672017 
L 300.668436 275.694562 
L 300.993415 275.938926 
L 301.318395 276.427653 
L 301.643374 276.427653 
L 301.968354 276.183289 
L 303.593251 276.183289 
L 303.918231 275.694562 
L 304.24321 275.938926 
L 304.56819 275.938926 
L 304.89317 276.183289 
L 305.543129 276.183289 
L 306.193088 275.694562 
L 306.518067 276.183289 
L 306.843047 276.183289 
L 307.168026 276.427653 
L 307.493006 276.427653 
L 307.817985 276.183289 
L 308.142965 276.427653 
L 308.467944 276.183289 
L 308.792924 276.183289 
L 309.117903 275.938926 
L 309.442883 276.427653 
L 309.767862 275.938926 
L 310.092842 276.183289 
L 311.067781 276.183289 
L 311.39276 275.938926 
L 312.367699 275.938926 
L 312.692678 276.183289 
L 313.342637 276.183289 
L 313.667617 275.938926 
L 313.992596 276.183289 
L 314.317576 275.694562 
L 314.642555 276.183289 
L 314.967535 275.938926 
L 315.292514 276.427653 
L 315.617494 276.183289 
L 316.592432 276.183289 
L 316.917412 275.938926 
L 317.567371 275.938926 
L 318.21733 276.427653 
L 318.54231 276.427653 
L 318.867289 275.938926 
L 319.192269 276.183289 
L 319.517248 275.938926 
L 319.842228 276.183289 
L 320.167207 275.938926 
L 320.492187 276.427653 
L 321.142146 275.938926 
L 321.467125 275.938926 
L 321.792105 276.427653 
L 322.117084 276.427653 
L 322.442064 276.183289 
L 322.767043 276.183289 
L 323.092023 276.427653 
L 323.417002 276.183289 
L 323.741982 276.427653 
L 324.066962 276.183289 
L 324.391941 276.183289 
L 324.716921 275.694562 
L 325.0419 275.938926 
L 325.36688 275.938926 
L 325.691859 276.183289 
L 326.666798 276.183289 
L 326.991777 275.938926 
L 327.316757 276.183289 
L 327.641736 275.938926 
L 327.966716 275.938926 
L 328.291695 276.183289 
L 328.616675 276.183289 
L 328.941654 276.427653 
L 329.266634 276.427653 
L 329.916593 275.938926 
L 330.241572 276.183289 
L 331.541491 276.183289 
L 331.86647 275.938926 
L 332.19145 275.938926 
L 332.516429 276.183289 
L 332.841409 275.938926 
L 333.166388 276.183289 
L 333.816347 276.183289 
L 334.141327 275.938926 
L 334.466306 276.183289 
L 335.116265 276.183289 
L 335.441245 276.427653 
L 335.766224 276.183289 
L 336.091204 276.427653 
L 336.416183 276.183289 
L 336.741163 276.183289 
L 337.066143 276.427653 
L 339.340999 276.427653 
L 339.990958 276.91638 
L 340.315938 276.427653 
L 340.640917 277.160744 
L 340.965897 276.672017 
L 341.290876 276.91638 
L 341.615856 276.91638 
L 341.940835 277.160744 
L 342.265815 277.160744 
L 342.590794 276.91638 
L 343.565733 276.91638 
L 343.890713 277.405108 
L 344.540672 277.893835 
L 345.190631 276.91638 
L 345.84059 274.717108 
L 348.115446 259.566562 
L 349.740344 256.145471 
L 350.390303 255.168017 
L 350.715283 254.434926 
L 351.040262 254.679289 
L 351.365242 253.946199 
L 351.690221 253.946199 
L 352.015201 253.701835 
L 352.66516 254.190562 
L 353.315119 255.168017 
L 353.640098 255.41238 
L 353.965078 255.901108 
L 354.290057 255.901108 
L 354.615037 256.389835 
L 355.589975 257.122926 
L 355.914955 256.878562 
L 356.239934 257.367289 
L 356.564914 257.122926 
L 356.889894 257.611653 
L 357.539853 257.611653 
L 357.864832 257.856017 
L 358.189812 257.611653 
L 358.514791 257.611653 
L 358.839771 257.367289 
L 359.16475 257.367289 
L 359.48973 256.878562 
L 359.814709 257.122926 
L 360.139689 257.122926 
L 360.464668 256.878562 
L 360.789648 257.122926 
L 361.114627 256.878562 
L 361.439607 257.122926 
L 361.764586 256.634199 
L 362.739525 256.634199 
L 363.064505 256.145471 
L 363.389484 256.145471 
L 363.714464 255.901108 
L 364.039443 255.901108 
L 364.364423 256.145471 
L 364.689402 255.901108 
L 365.014382 256.145471 
L 365.339361 256.634199 
L 365.664341 256.634199 
L 365.98932 256.878562 
L 366.639279 256.878562 
L 366.964259 256.389835 
L 367.289238 256.634199 
L 368.264177 256.634199 
L 368.589156 256.389835 
L 368.914136 256.389835 
L 369.239115 256.145471 
L 369.564095 256.878562 
L 369.889075 256.878562 
L 370.214054 257.122926 
L 370.539034 256.878562 
L 370.864013 256.878562 
L 371.513972 256.389835 
L 371.838952 256.634199 
L 372.163931 256.389835 
L 372.488911 256.634199 
L 374.113808 256.634199 
L 374.438788 256.389835 
L 374.763767 256.634199 
L 375.088747 256.389835 
L 375.413726 256.634199 
L 376.063686 256.634199 
L 376.388665 256.878562 
L 376.713645 256.389835 
L 377.038624 257.122926 
L 377.363604 257.367289 
L 377.688583 259.077835 
L 378.013563 261.521471 
L 378.988501 265.431289 
L 379.63846 272.029108 
L 380.288419 279.60438 
L 380.613399 282.29238 
L 380.938378 283.514199 
L 381.263358 284.002926 
L 381.588337 284.247289 
L 382.238296 283.758562 
L 382.563276 282.781108 
L 382.888256 281.070562 
L 383.538215 275.205835 
L 383.863194 273.495289 
L 384.188174 273.250926 
L 384.513153 273.984017 
L 384.838133 273.495289 
L 385.488092 271.784744 
L 385.813071 271.784744 
L 386.138051 273.006562 
L 386.46303 274.961471 
L 386.78801 275.938926 
L 387.112989 275.694562 
L 387.437969 275.205835 
L 387.762948 275.450199 
L 388.412907 278.871289 
L 388.737887 279.115653 
L 389.387846 276.183289 
L 389.712826 275.938926 
L 390.037805 277.160744 
L 390.362785 277.893835 
L 390.687764 277.160744 
L 391.337723 274.717108 
L 391.662703 275.205835 
L 391.987682 275.938926 
L 392.312662 275.938926 
L 392.962621 274.961471 
L 393.2876 275.205835 
L 393.61258 276.183289 
L 393.937559 276.672017 
L 394.262539 276.183289 
L 394.587518 275.450199 
L 394.912498 275.450199 
L 395.562457 277.160744 
L 395.887437 277.160744 
L 396.212416 276.672017 
L 396.537396 275.938926 
L 396.862375 276.183289 
L 397.187355 276.183289 
L 397.512334 276.427653 
L 397.837314 276.183289 
L 398.487273 276.183289 
L 398.487273 276.183289 
" clip-path="url(#p79e4d2ab41)" style="fill: none; stroke: #1f77b4; stroke-width: 1.5; stroke-linecap: square"/>
   </g>
   <g id="line2d_14">
    <path d="M 73.832727 275.938926 
L 74.157707 275.694562 
L 74.482686 276.183289 
L 74.807666 276.183289 
L 75.132645 276.427653 
L 75.457625 276.427653 
L 75.782604 275.938926 
L 76.107584 276.427653 
L 76.432563 276.427653 
L 77.082523 275.938926 
L 78.057461 276.672017 
L 78.70742 276.183289 
L 79.0324 276.183289 
L 79.357379 275.938926 
L 79.682359 276.427653 
L 80.332318 276.427653 
L 80.982277 275.938926 
L 81.307256 276.427653 
L 81.632236 276.672017 
L 81.957215 276.183289 
L 82.282195 276.427653 
L 82.607174 276.183289 
L 82.932154 276.427653 
L 84.557052 276.427653 
L 84.882031 275.938926 
L 85.207011 276.183289 
L 85.53199 276.672017 
L 85.85697 276.183289 
L 86.181949 276.183289 
L 86.831908 276.672017 
L 87.156888 276.183289 
L 87.481867 276.183289 
L 87.806847 275.938926 
L 88.131826 275.938926 
L 88.456806 276.183289 
L 88.781785 276.672017 
L 89.106765 276.672017 
L 89.431744 276.183289 
L 89.756724 275.938926 
L 90.081704 276.427653 
L 90.406683 276.427653 
L 90.731663 276.672017 
L 91.056642 276.427653 
L 91.381622 275.938926 
L 92.031581 276.427653 
L 93.006519 276.427653 
L 93.331499 276.183289 
L 93.981458 276.183289 
L 94.306437 276.427653 
L 94.631417 276.427653 
L 94.956396 276.672017 
L 95.281376 276.183289 
L 95.606355 276.427653 
L 96.256314 276.427653 
L 96.581294 276.183289 
L 96.906274 276.672017 
L 97.231253 276.672017 
L 97.556233 276.427653 
L 100.481048 276.427653 
L 101.131007 276.91638 
L 102.105946 276.91638 
L 102.430925 277.160744 
L 103.080885 277.160744 
L 103.405864 277.405108 
L 103.730844 276.91638 
L 104.705782 277.649471 
L 105.680721 277.649471 
L 106.0057 277.405108 
L 106.33068 276.91638 
L 106.655659 275.694562 
L 107.305618 272.029108 
L 108.930516 260.055289 
L 110.230434 256.878562 
L 110.555414 255.901108 
L 111.205373 255.41238 
L 111.530352 255.41238 
L 112.180311 253.946199 
L 112.505291 253.701835 
L 112.83027 253.701835 
L 113.480229 254.190562 
L 113.805209 253.946199 
L 114.130188 254.190562 
L 114.455168 254.679289 
L 115.105127 255.901108 
L 115.430106 255.901108 
L 115.755086 256.145471 
L 116.080066 256.634199 
L 116.405045 256.878562 
L 116.730025 257.611653 
L 117.055004 257.122926 
L 117.379984 256.878562 
L 118.029943 257.856017 
L 118.354922 258.10038 
L 118.679902 257.856017 
L 119.329861 257.856017 
L 119.65484 257.611653 
L 119.97982 257.611653 
L 120.304799 257.856017 
L 120.629779 257.367289 
L 120.954758 257.122926 
L 121.279738 257.122926 
L 121.604717 256.878562 
L 121.929697 257.367289 
L 122.254676 257.367289 
L 122.579656 256.878562 
L 123.229615 256.878562 
L 123.554595 256.634199 
L 123.879574 256.878562 
L 124.204554 256.145471 
L 124.529533 256.389835 
L 124.854513 256.145471 
L 125.179492 256.389835 
L 125.504472 256.389835 
L 125.829451 256.634199 
L 126.154431 256.389835 
L 126.80439 256.389835 
L 127.129369 256.634199 
L 127.454349 256.634199 
L 127.779328 256.389835 
L 128.754267 256.389835 
L 129.079247 256.634199 
L 129.404226 256.634199 
L 129.729206 256.878562 
L 130.054185 256.634199 
L 130.379165 256.878562 
L 130.704144 256.878562 
L 131.029124 257.122926 
L 131.354103 256.878562 
L 131.679083 256.878562 
L 132.004062 256.634199 
L 132.329042 256.878562 
L 132.654021 256.878562 
L 132.979001 256.634199 
L 133.30398 256.634199 
L 133.62896 256.878562 
L 133.953939 256.634199 
L 134.278919 256.878562 
L 135.903817 256.878562 
L 136.228796 256.634199 
L 136.553776 256.878562 
L 137.528714 256.878562 
L 137.853694 257.122926 
L 138.178673 257.856017 
L 138.503653 259.077835 
L 139.153612 262.010199 
L 139.478591 262.987653 
L 140.12855 267.386199 
L 140.778509 274.717108 
L 141.428468 282.048017 
L 141.753448 284.002926 
L 142.078428 285.224744 
L 142.728387 286.690926 
L 143.053366 286.690926 
L 143.378346 285.957835 
L 143.703325 284.247289 
L 144.678264 275.450199 
L 145.003243 274.22838 
L 145.328223 273.984017 
L 145.653202 273.495289 
L 146.628141 270.074199 
L 146.95312 270.807289 
L 147.603079 273.250926 
L 147.928059 273.250926 
L 148.253038 273.495289 
L 148.578018 274.472744 
L 149.227977 278.871289 
L 149.552957 278.871289 
L 150.202916 276.672017 
L 150.527895 277.405108 
L 151.177854 279.848744 
L 151.502834 279.115653 
L 151.827813 276.91638 
L 152.152793 275.694562 
L 152.477772 275.694562 
L 152.802752 276.427653 
L 153.127731 276.672017 
L 153.77769 274.472744 
L 154.10267 274.717108 
L 154.427649 275.694562 
L 154.752629 275.938926 
L 155.402588 274.472744 
L 155.727568 274.717108 
L 156.052547 275.694562 
L 156.377527 277.160744 
L 156.702506 277.160744 
L 157.352465 275.450199 
L 157.677445 275.938926 
L 158.002424 277.160744 
L 158.327404 277.893835 
L 158.652383 277.405108 
L 158.977363 276.183289 
L 159.302342 275.938926 
L 159.627322 276.672017 
L 159.952301 276.91638 
L 160.277281 276.672017 
L 160.60226 275.938926 
L 160.92724 275.938926 
L 161.577199 276.427653 
L 161.902179 276.91638 
L 162.552138 275.450199 
L 162.877117 275.205835 
L 163.527076 276.672017 
L 163.852056 276.672017 
L 164.177035 275.938926 
L 164.502015 275.694562 
L 164.826994 276.183289 
L 165.476953 276.672017 
L 165.801933 276.183289 
L 166.126912 275.938926 
L 166.451892 276.183289 
L 166.776871 276.672017 
L 167.101851 276.91638 
L 167.75181 275.938926 
L 168.07679 275.694562 
L 168.726749 276.672017 
L 169.051728 276.672017 
L 169.701687 275.694562 
L 170.026667 275.938926 
L 170.351646 275.938926 
L 170.676626 276.427653 
L 171.326585 276.427653 
L 171.651564 276.183289 
L 172.301523 276.183289 
L 172.626503 276.427653 
L 172.951482 276.427653 
L 173.276462 275.938926 
L 173.926421 276.427653 
L 174.2514 276.427653 
L 174.90136 275.938926 
L 175.226339 276.183289 
L 175.876298 276.183289 
L 176.201278 276.427653 
L 176.851237 275.938926 
L 177.176216 276.183289 
L 177.501196 276.183289 
L 177.826175 276.427653 
L 178.151155 276.183289 
L 178.476134 276.183289 
L 178.801114 275.938926 
L 179.126093 276.427653 
L 179.451073 276.427653 
L 179.776052 276.183289 
L 180.101032 276.427653 
L 180.426011 276.183289 
L 180.750991 276.183289 
L 181.40095 276.672017 
L 182.050909 276.183289 
L 182.375889 276.183289 
L 182.700868 276.427653 
L 183.025848 276.91638 
L 183.350827 276.427653 
L 184.000786 275.938926 
L 184.325766 276.427653 
L 184.650745 276.672017 
L 185.300704 276.183289 
L 185.625684 276.427653 
L 185.950663 276.183289 
L 186.275643 276.427653 
L 186.600622 276.427653 
L 186.925602 276.672017 
L 187.250581 276.183289 
L 187.575561 275.938926 
L 187.900541 276.427653 
L 188.22552 276.427653 
L 188.5505 276.672017 
L 189.200459 276.183289 
L 189.525438 276.672017 
L 189.850418 276.427653 
L 190.175397 276.427653 
L 190.500377 276.672017 
L 190.825356 276.427653 
L 191.150336 276.427653 
L 191.475315 276.672017 
L 191.800295 276.427653 
L 192.125274 276.672017 
L 192.450254 276.427653 
L 192.775233 276.427653 
L 193.100213 276.672017 
L 193.425192 276.427653 
L 193.750172 276.672017 
L 194.075152 276.183289 
L 194.725111 276.672017 
L 196.674988 276.672017 
L 197.324947 277.160744 
L 197.649926 276.672017 
L 197.974906 276.672017 
L 198.949844 277.405108 
L 199.599803 276.91638 
L 199.924783 276.91638 
L 200.249762 277.405108 
L 201.224701 278.138199 
L 201.549681 277.893835 
L 201.87466 277.405108 
L 202.19964 277.405108 
L 202.524619 276.183289 
L 203.824537 267.141835 
L 204.474496 261.765835 
L 204.799476 260.055289 
L 206.749353 255.41238 
L 207.074333 255.656744 
L 207.724292 254.679289 
L 208.049271 253.701835 
L 208.374251 253.457471 
L 208.69923 253.457471 
L 209.02421 253.701835 
L 209.349189 253.701835 
L 209.999148 254.190562 
L 211.299066 256.145471 
L 211.624046 256.145471 
L 211.949025 256.389835 
L 212.274005 256.878562 
L 212.598984 257.122926 
L 212.923964 257.122926 
L 213.248943 256.878562 
L 213.573923 257.122926 
L 213.898903 257.611653 
L 214.548862 258.10038 
L 214.873841 257.856017 
L 215.198821 257.367289 
L 215.84878 257.856017 
L 216.173759 257.611653 
L 216.498739 257.122926 
L 216.823718 257.367289 
L 217.148698 256.878562 
L 217.473677 257.122926 
L 217.798657 257.122926 
L 218.123636 257.367289 
L 218.448616 256.878562 
L 219.423554 256.878562 
L 220.073514 256.389835 
L 221.048452 256.389835 
L 221.373432 256.145471 
L 221.698411 256.389835 
L 222.023391 256.389835 
L 222.34837 256.145471 
L 222.67335 256.634199 
L 223.323309 257.122926 
L 223.648288 256.634199 
L 223.973268 256.389835 
L 224.298247 256.389835 
L 224.623227 256.634199 
L 224.948206 256.634199 
L 225.273186 256.878562 
L 225.598165 256.634199 
L 225.923145 256.878562 
L 227.223063 256.878562 
L 227.548043 256.634199 
L 228.198002 256.634199 
L 228.522981 256.878562 
L 228.847961 256.634199 
L 229.49792 256.634199 
L 229.822899 257.122926 
L 230.147879 256.878562 
L 230.797838 256.878562 
L 231.122817 256.634199 
L 231.447797 256.878562 
L 231.772776 256.634199 
L 232.097756 256.878562 
L 232.422735 256.878562 
L 232.747715 256.634199 
L 233.072695 256.878562 
L 233.397674 256.878562 
L 233.722654 257.122926 
L 234.047633 257.611653 
L 234.372613 258.833471 
L 235.022572 262.010199 
L 235.347551 262.987653 
L 235.672531 264.698199 
L 235.99751 267.141835 
L 236.647469 274.961471 
L 237.297428 282.29238 
L 237.622408 284.247289 
L 238.272367 286.202199 
L 238.597346 286.690926 
L 238.922326 286.935289 
L 239.247305 285.957835 
L 239.572285 284.247289 
L 240.872203 274.22838 
L 241.197183 273.984017 
L 241.847142 272.273471 
L 242.172121 271.051653 
L 242.497101 270.318562 
L 242.82208 271.051653 
L 243.472039 273.250926 
L 243.797019 273.739653 
L 244.121998 273.739653 
L 244.446978 274.472744 
L 245.096937 278.871289 
L 245.421916 278.871289 
L 246.071876 276.91638 
L 246.396855 277.160744 
L 247.046814 279.848744 
L 247.371794 278.871289 
L 248.021753 275.694562 
L 248.346732 275.694562 
L 248.671712 276.427653 
L 248.996691 276.672017 
L 249.321671 275.938926 
L 249.64665 274.472744 
L 249.97163 274.717108 
L 250.621589 276.183289 
L 251.271548 274.717108 
L 251.596527 274.717108 
L 252.246486 277.160744 
L 252.571466 277.160744 
L 253.221425 275.694562 
L 253.546405 276.183289 
L 254.196364 277.893835 
L 254.521343 277.405108 
L 254.846323 276.427653 
L 255.171302 276.183289 
L 255.496282 276.91638 
L 255.821261 277.160744 
L 256.47122 276.183289 
L 256.7962 275.450199 
L 257.446159 276.672017 
L 257.771138 276.672017 
L 258.421097 275.205835 
L 258.746077 275.205835 
L 259.396036 276.672017 
L 259.721016 276.672017 
L 260.370975 275.694562 
L 260.695954 275.938926 
L 261.020934 276.427653 
L 261.345913 276.427653 
L 261.670893 276.672017 
L 261.995872 276.183289 
L 262.645831 276.672017 
L 262.970811 276.672017 
L 263.62077 276.183289 
L 263.945749 275.694562 
L 264.595708 276.672017 
L 264.920688 276.91638 
L 265.570647 275.938926 
L 265.895627 275.694562 
L 266.220606 276.183289 
L 266.545586 276.427653 
L 266.870565 276.427653 
L 267.520524 275.938926 
L 267.845504 276.183289 
L 268.495463 276.183289 
L 268.820442 276.427653 
L 269.145422 275.938926 
L 269.470401 276.427653 
L 269.795381 276.427653 
L 270.12036 276.91638 
L 270.770319 275.938926 
L 271.095299 276.183289 
L 271.420278 276.183289 
L 271.745258 276.672017 
L 272.070238 276.672017 
L 272.720197 276.183289 
L 273.370156 276.183289 
L 273.695135 276.672017 
L 274.670074 275.938926 
L 274.995053 276.427653 
L 275.320033 276.672017 
L 275.645012 276.672017 
L 276.294971 276.183289 
L 276.619951 276.427653 
L 276.94493 276.427653 
L 277.26991 276.672017 
L 277.594889 276.183289 
L 277.919869 276.427653 
L 278.244848 276.427653 
L 278.569828 276.672017 
L 279.219787 276.672017 
L 279.544767 276.183289 
L 279.869746 276.183289 
L 280.519705 276.672017 
L 281.169664 276.183289 
L 281.494644 276.183289 
L 282.469582 276.91638 
L 282.794562 276.427653 
L 283.119541 276.672017 
L 283.444521 276.427653 
L 283.7695 276.427653 
L 284.09448 276.672017 
L 284.419459 276.672017 
L 284.744439 276.427653 
L 285.394398 276.427653 
L 285.719378 276.672017 
L 286.044357 276.672017 
L 286.369337 276.427653 
L 287.344275 276.427653 
L 287.669255 276.672017 
L 289.294152 276.672017 
L 289.944111 276.183289 
L 290.269091 276.427653 
L 290.59407 276.427653 
L 290.91905 276.91638 
L 291.893989 276.183289 
L 292.218968 276.427653 
L 292.543948 276.91638 
L 292.868927 277.160744 
L 293.193907 277.160744 
L 293.518886 276.91638 
L 293.843866 276.91638 
L 294.493825 277.405108 
L 294.818804 277.405108 
L 295.143784 276.91638 
L 295.468763 277.160744 
L 295.793743 277.160744 
L 296.118722 277.649471 
L 296.443702 277.649471 
L 296.768681 277.893835 
L 297.41864 277.893835 
L 297.74362 277.649471 
L 298.0686 277.160744 
L 299.043538 272.273471 
L 300.343456 261.521471 
L 300.668436 259.810926 
L 300.993415 259.322199 
L 301.318395 259.077835 
L 302.293333 256.145471 
L 302.618313 255.656744 
L 302.943292 255.901108 
L 303.268272 255.41238 
L 303.918231 254.190562 
L 304.24321 253.701835 
L 304.89317 254.190562 
L 305.218149 254.190562 
L 305.543129 253.946199 
L 305.868108 254.190562 
L 306.193088 254.679289 
L 306.518067 255.656744 
L 306.843047 255.656744 
L 307.817985 256.389835 
L 308.142965 257.122926 
L 308.467944 257.367289 
L 308.792924 257.122926 
L 309.442883 257.122926 
L 309.767862 257.367289 
L 310.092842 257.856017 
L 310.417821 258.10038 
L 310.742801 257.856017 
L 311.39276 257.856017 
L 311.71774 258.10038 
L 312.042719 257.611653 
L 312.367699 257.611653 
L 313.017658 257.122926 
L 313.992596 257.122926 
L 314.317576 256.878562 
L 314.642555 256.878562 
L 314.967535 256.634199 
L 315.292514 256.878562 
L 315.942473 256.389835 
L 317.242391 256.389835 
L 317.567371 256.145471 
L 317.892351 256.389835 
L 318.21733 256.389835 
L 318.54231 256.634199 
L 319.192269 256.634199 
L 319.517248 256.389835 
L 320.167207 256.389835 
L 320.492187 256.634199 
L 320.817166 256.634199 
L 321.142146 256.389835 
L 321.467125 256.878562 
L 323.092023 256.878562 
L 323.741982 256.389835 
L 324.066962 256.878562 
L 324.391941 256.634199 
L 325.36688 256.634199 
L 325.691859 256.878562 
L 326.016839 256.878562 
L 326.341818 256.634199 
L 326.666798 256.878562 
L 327.316757 256.878562 
L 327.641736 256.634199 
L 327.966716 256.878562 
L 328.291695 256.634199 
L 328.616675 256.878562 
L 328.941654 256.634199 
L 329.266634 256.878562 
L 329.591613 256.878562 
L 329.916593 257.611653 
L 331.541491 264.698199 
L 331.86647 267.141835 
L 333.491368 284.247289 
L 334.141327 286.202199 
L 334.466306 286.690926 
L 334.791286 286.690926 
L 335.116265 286.202199 
L 335.441245 284.491653 
L 336.416183 275.205835 
L 336.741163 273.984017 
L 337.391122 273.006562 
L 338.366061 270.074199 
L 338.69104 270.807289 
L 339.01602 272.517835 
L 339.340999 273.495289 
L 339.990958 273.495289 
L 340.315938 274.717108 
L 340.965897 278.626926 
L 341.290876 279.115653 
L 341.940835 276.91638 
L 342.265815 277.160744 
L 342.915774 279.60438 
L 343.240753 279.115653 
L 343.890713 275.450199 
L 344.215692 275.694562 
L 344.540672 276.427653 
L 344.865651 276.672017 
L 345.51561 274.717108 
L 345.84059 274.717108 
L 346.490549 275.938926 
L 346.815528 275.450199 
L 347.140508 274.22838 
L 347.465487 274.717108 
L 348.115446 277.405108 
L 348.440426 277.160744 
L 349.090385 275.450199 
L 349.415364 275.938926 
L 349.740344 277.160744 
L 350.065324 277.649471 
L 350.715283 276.183289 
L 351.040262 276.183289 
L 351.365242 276.427653 
L 351.690221 277.405108 
L 352.66516 275.450199 
L 353.315119 276.91638 
L 353.640098 276.91638 
L 354.290057 275.205835 
L 354.615037 275.205835 
L 355.264996 276.672017 
L 355.589975 276.672017 
L 355.914955 276.183289 
L 356.239934 275.938926 
L 356.564914 275.938926 
L 356.889894 276.672017 
L 357.214873 276.672017 
L 357.539853 276.183289 
L 357.864832 275.938926 
L 358.189812 276.183289 
L 358.514791 276.672017 
L 358.839771 276.672017 
L 359.48973 276.183289 
L 359.814709 275.694562 
L 360.464668 276.672017 
L 360.789648 276.672017 
L 361.114627 276.427653 
L 361.439607 275.938926 
L 361.764586 275.694562 
L 362.089566 275.938926 
L 362.414545 276.427653 
L 362.739525 276.427653 
L 363.389484 275.938926 
L 363.714464 276.183289 
L 365.014382 276.183289 
L 365.339361 276.427653 
L 366.3143 276.427653 
L 366.964259 275.938926 
L 367.289238 276.183289 
L 367.614218 276.672017 
L 367.939197 276.427653 
L 368.264177 276.427653 
L 368.589156 276.183289 
L 368.914136 276.183289 
L 369.239115 276.427653 
L 369.889075 276.427653 
L 370.214054 276.183289 
L 370.539034 276.183289 
L 370.864013 276.672017 
L 371.513972 276.672017 
L 371.838952 276.183289 
L 372.163931 275.938926 
L 372.488911 276.427653 
L 372.81389 276.672017 
L 373.13887 276.427653 
L 373.788829 276.427653 
L 374.113808 276.672017 
L 374.438788 276.672017 
L 374.763767 276.427653 
L 375.088747 276.427653 
L 375.413726 276.183289 
L 376.388665 276.91638 
L 376.713645 276.672017 
L 377.363604 275.694562 
L 377.688583 275.938926 
L 378.013563 276.427653 
L 378.663522 276.427653 
L 378.988501 276.183289 
L 379.313481 276.427653 
L 379.63846 276.183289 
L 380.288419 276.672017 
L 380.938378 276.183289 
L 381.263358 276.183289 
L 381.588337 276.427653 
L 381.913317 276.183289 
L 382.238296 276.427653 
L 383.863194 276.427653 
L 384.188174 276.183289 
L 384.513153 276.427653 
L 385.163112 276.427653 
L 385.488092 276.672017 
L 385.813071 276.427653 
L 386.138051 276.427653 
L 386.46303 276.672017 
L 386.78801 276.672017 
L 387.112989 276.91638 
L 387.762948 276.427653 
L 388.412907 276.91638 
L 389.062867 276.91638 
L 389.387846 276.672017 
L 390.362785 277.405108 
L 390.687764 277.160744 
L 391.012744 277.160744 
L 391.337723 276.91638 
L 391.987682 277.405108 
L 392.312662 277.893835 
L 393.2876 277.893835 
L 393.61258 277.649471 
L 393.937559 276.91638 
L 394.262539 275.694562 
L 394.912498 272.029108 
L 396.537396 259.810926 
L 396.862375 259.566562 
L 397.187355 259.077835 
L 398.487273 255.41238 
L 398.487273 255.41238 
" clip-path="url(#p79e4d2ab41)" style="fill: none; stroke: #ff7f0e; stroke-width: 1.5; stroke-linecap: square"/>
   </g>
   <g id="line2d_15">
    <path d="M 73.832727 285.713455 
L 74.157707 280.826182 
L 74.482686 283.269818 
L 74.807666 283.269818 
L 75.132645 285.713455 
L 75.457625 280.826182 
L 75.782604 280.826182 
L 76.107584 278.382545 
L 76.432563 283.269818 
L 77.082523 278.382545 
L 77.407502 283.269818 
L 77.732482 280.826182 
L 78.057461 280.826182 
L 78.70742 285.713455 
L 79.0324 285.713455 
L 79.357379 280.826182 
L 79.682359 283.269818 
L 80.007338 283.269818 
L 80.332318 285.713455 
L 80.657297 283.269818 
L 81.632236 283.269818 
L 81.957215 278.382545 
L 82.282195 283.269818 
L 82.607174 285.713455 
L 82.932154 283.269818 
L 83.257133 278.382545 
L 84.232072 285.713455 
L 84.557052 278.382545 
L 84.882031 283.269818 
L 85.207011 280.826182 
L 85.53199 280.826182 
L 85.85697 283.269818 
L 87.481867 283.269818 
L 87.806847 285.713455 
L 88.456806 280.826182 
L 88.781785 280.826182 
L 89.431744 285.713455 
L 89.756724 283.269818 
L 90.081704 285.713455 
L 90.406683 283.269818 
L 91.706601 283.269818 
L 92.35656 273.495273 
L 92.68154 263.720727 
L 93.006519 258.833455 
L 93.981458 219.735273 
L 94.306437 224.622545 
L 94.631417 236.840727 
L 94.956396 231.953455 
L 95.281376 217.291636 
L 95.606355 190.411636 
L 95.931335 173.306182 
L 96.256314 168.418909 
L 96.906274 187.968 
L 97.231253 185.524364 
L 97.881212 131.764364 
L 98.206192 117.102545 
L 98.531171 126.877091 
L 98.856151 143.982545 
L 99.18113 151.313455 
L 100.156069 87.778909 
L 100.806028 112.215273 
L 101.131007 109.771636 
L 101.780966 78.004364 
L 102.105946 78.004364 
L 102.430925 92.666182 
L 102.755905 92.666182 
L 103.080885 80.448 
L 103.405864 63.342545 
L 103.730844 56.011636 
L 104.380803 85.335273 
L 104.705782 85.335273 
L 105.355741 53.568 
L 105.680721 53.568 
L 106.33068 78.004364 
L 106.655659 73.117091 
L 107.305618 60.898909 
L 107.630598 68.229818 
L 107.955577 65.786182 
L 108.280557 70.673455 
L 108.605536 65.786182 
L 108.930516 65.786182 
L 109.255495 68.229818 
L 109.905455 80.448 
L 110.230434 78.004364 
L 110.555414 70.673455 
L 111.205373 70.673455 
L 111.855332 82.891636 
L 112.83027 82.891636 
L 113.15525 80.448 
L 113.480229 82.891636 
L 113.805209 87.778909 
L 114.130188 87.778909 
L 114.780147 92.666182 
L 115.105127 97.553455 
L 115.430106 97.553455 
L 115.755086 95.109818 
L 116.080066 97.553455 
L 116.405045 95.109818 
L 116.730025 97.553455 
L 117.055004 104.884364 
L 117.379984 104.884364 
L 117.704963 102.440727 
L 118.029943 102.440727 
L 118.679902 97.553455 
L 119.004881 104.884364 
L 119.329861 107.328 
L 119.65484 104.884364 
L 119.97982 104.884364 
L 120.304799 102.440727 
L 120.629779 104.884364 
L 120.954758 99.997091 
L 121.279738 102.440727 
L 121.604717 99.997091 
L 122.579656 99.997091 
L 122.904636 102.440727 
L 123.229615 97.553455 
L 123.554595 95.109818 
L 123.879574 95.109818 
L 124.204554 92.666182 
L 124.854513 92.666182 
L 125.179492 90.222545 
L 125.829451 90.222545 
L 126.154431 87.778909 
L 126.47941 87.778909 
L 126.80439 85.335273 
L 127.129369 85.335273 
L 127.779328 80.448 
L 128.104308 82.891636 
L 128.429287 82.891636 
L 128.754267 78.004364 
L 129.079247 75.560727 
L 129.404226 78.004364 
L 130.379165 78.004364 
L 130.704144 75.560727 
L 131.029124 75.560727 
L 131.354103 70.673455 
L 131.679083 75.560727 
L 132.329042 75.560727 
L 132.654021 73.117091 
L 132.979001 75.560727 
L 133.30398 75.560727 
L 133.62896 80.448 
L 133.953939 78.004364 
L 134.278919 78.004364 
L 134.603898 82.891636 
L 134.928878 82.891636 
L 135.903817 90.222545 
L 136.228796 95.109818 
L 136.553776 90.222545 
L 136.878755 97.553455 
L 137.203735 99.997091 
L 137.528714 104.884364 
L 137.853694 107.328 
L 138.178673 107.328 
L 138.828632 117.102545 
L 139.153612 117.102545 
L 139.803571 126.877091 
L 140.12855 129.320727 
L 141.103489 148.869818 
L 141.753448 153.757091 
L 142.403407 163.531636 
L 143.053366 175.749818 
L 143.703325 185.524364 
L 144.028305 192.855273 
L 144.353284 192.855273 
L 144.678264 197.742545 
L 145.328223 212.404364 
L 145.653202 214.848 
L 146.628141 234.397091 
L 146.95312 234.397091 
L 147.2781 241.728 
L 147.603079 244.171636 
L 147.928059 253.946182 
L 148.253038 253.946182 
L 148.578018 258.833455 
L 148.902998 261.277091 
L 149.552957 271.051636 
L 149.877936 273.495273 
L 150.202916 280.826182 
L 150.852875 280.826182 
L 151.177854 283.269818 
L 151.827813 293.044364 
L 152.152793 290.600727 
L 152.477772 290.600727 
L 152.802752 288.157091 
L 153.127731 290.600727 
L 153.452711 290.600727 
L 153.77769 293.044364 
L 154.10267 290.600727 
L 154.427649 290.600727 
L 154.752629 285.713455 
L 155.077609 288.157091 
L 156.052547 280.826182 
L 156.377527 280.826182 
L 156.702506 285.713455 
L 157.027486 285.713455 
L 157.352465 283.269818 
L 157.677445 285.713455 
L 158.002424 283.269818 
L 158.327404 283.269818 
L 158.977363 288.157091 
L 159.302342 285.713455 
L 159.627322 285.713455 
L 159.952301 278.382545 
L 160.60226 283.269818 
L 160.92724 280.826182 
L 161.577199 280.826182 
L 162.227158 285.713455 
L 162.552138 280.826182 
L 162.877117 283.269818 
L 163.202097 280.826182 
L 163.852056 285.713455 
L 164.177035 285.713455 
L 164.502015 283.269818 
L 164.826994 283.269818 
L 165.151974 280.826182 
L 165.476953 280.826182 
L 165.801933 283.269818 
L 166.126912 283.269818 
L 166.451892 278.382545 
L 166.776871 278.382545 
L 167.101851 280.826182 
L 167.42683 280.826182 
L 167.75181 278.382545 
L 168.07679 285.713455 
L 168.401769 283.269818 
L 168.726749 283.269818 
L 169.051728 280.826182 
L 169.376708 285.713455 
L 170.026667 285.713455 
L 170.351646 280.826182 
L 170.676626 283.269818 
L 171.001605 283.269818 
L 171.651564 278.382545 
L 171.976544 280.826182 
L 172.301523 278.382545 
L 172.626503 285.713455 
L 172.951482 280.826182 
L 173.276462 283.269818 
L 173.601441 278.382545 
L 173.926421 280.826182 
L 174.2514 285.713455 
L 174.57638 288.157091 
L 174.90136 288.157091 
L 175.226339 285.713455 
L 175.551319 280.826182 
L 175.876298 280.826182 
L 176.201278 283.269818 
L 176.526257 283.269818 
L 176.851237 280.826182 
L 178.151155 280.826182 
L 178.476134 285.713455 
L 178.801114 283.269818 
L 180.101032 283.269818 
L 180.426011 285.713455 
L 180.750991 283.269818 
L 181.075971 283.269818 
L 181.40095 285.713455 
L 181.72593 285.713455 
L 182.050909 283.269818 
L 182.375889 285.713455 
L 183.350827 278.382545 
L 183.675807 285.713455 
L 184.000786 283.269818 
L 184.975725 283.269818 
L 185.300704 285.713455 
L 185.625684 285.713455 
L 185.950663 278.382545 
L 186.275643 280.826182 
L 186.600622 285.713455 
L 187.250581 280.826182 
L 187.575561 280.826182 
L 187.900541 278.382545 
L 188.22552 273.495273 
L 188.5505 263.720727 
L 188.875479 258.833455 
L 189.525438 229.509818 
L 189.850418 219.735273 
L 190.175397 222.178909 
L 190.500377 229.509818 
L 190.825356 229.509818 
L 191.150336 214.848 
L 191.800295 173.306182 
L 192.125274 168.418909 
L 192.450254 175.749818 
L 192.775233 190.411636 
L 193.100213 183.080727 
L 193.425192 161.088 
L 193.750172 126.877091 
L 194.075152 117.102545 
L 194.400131 126.877091 
L 194.725111 146.426182 
L 195.05009 148.869818 
L 196.025029 90.222545 
L 196.350008 95.109818 
L 196.674988 112.215273 
L 196.999967 109.771636 
L 197.649926 75.560727 
L 197.974906 78.004364 
L 198.299885 90.222545 
L 198.624865 95.109818 
L 199.599803 56.011636 
L 200.249762 85.335273 
L 200.574742 85.335273 
L 201.224701 56.011636 
L 201.549681 53.568 
L 201.87466 68.229818 
L 202.19964 75.560727 
L 202.524619 73.117091 
L 202.849599 60.898909 
L 203.174578 58.455273 
L 203.824537 70.673455 
L 204.149517 68.229818 
L 204.474496 63.342545 
L 204.799476 63.342545 
L 205.449435 78.004364 
L 205.774414 78.004364 
L 206.099394 75.560727 
L 206.424373 70.673455 
L 206.749353 68.229818 
L 207.399312 82.891636 
L 207.724292 82.891636 
L 208.049271 80.448 
L 208.374251 82.891636 
L 208.69923 82.891636 
L 209.02421 85.335273 
L 209.349189 85.335273 
L 209.674169 87.778909 
L 209.999148 87.778909 
L 210.649107 92.666182 
L 210.974087 97.553455 
L 211.299066 99.997091 
L 211.624046 99.997091 
L 211.949025 95.109818 
L 212.274005 95.109818 
L 212.598984 99.997091 
L 213.248943 104.884364 
L 213.573923 104.884364 
L 214.223882 99.997091 
L 214.548862 95.109818 
L 215.198821 104.884364 
L 215.5238 104.884364 
L 215.84878 107.328 
L 216.173759 102.440727 
L 216.498739 102.440727 
L 216.823718 104.884364 
L 217.148698 99.997091 
L 217.473677 99.997091 
L 217.798657 102.440727 
L 218.123636 99.997091 
L 218.448616 99.997091 
L 218.773595 102.440727 
L 219.423554 97.553455 
L 219.748534 87.778909 
L 220.073514 92.666182 
L 220.398493 90.222545 
L 220.723473 92.666182 
L 221.048452 90.222545 
L 221.373432 90.222545 
L 221.698411 87.778909 
L 222.023391 90.222545 
L 222.998329 82.891636 
L 223.648288 82.891636 
L 223.973268 85.335273 
L 224.623227 80.448 
L 224.948206 73.117091 
L 225.273186 73.117091 
L 225.598165 75.560727 
L 225.923145 80.448 
L 226.248124 75.560727 
L 226.573104 75.560727 
L 226.898084 73.117091 
L 227.223063 75.560727 
L 227.548043 73.117091 
L 228.198002 73.117091 
L 228.522981 75.560727 
L 228.847961 75.560727 
L 229.17294 78.004364 
L 229.49792 78.004364 
L 229.822899 80.448 
L 230.147879 75.560727 
L 230.472858 80.448 
L 231.122817 85.335273 
L 231.447797 90.222545 
L 232.097756 90.222545 
L 232.422735 95.109818 
L 232.747715 95.109818 
L 233.072695 97.553455 
L 233.397674 102.440727 
L 233.722654 102.440727 
L 234.047633 104.884364 
L 234.372613 112.215273 
L 234.697592 114.658909 
L 235.347551 124.433455 
L 235.99751 129.320727 
L 236.647469 141.538909 
L 237.622408 156.200727 
L 237.947387 158.644364 
L 238.597346 170.862545 
L 238.922326 173.306182 
L 239.247305 178.193455 
L 240.222244 200.186182 
L 240.547224 200.186182 
L 241.197183 212.404364 
L 241.522162 217.291636 
L 241.847142 219.735273 
L 242.82208 239.284364 
L 243.14706 241.728 
L 243.797019 251.502545 
L 244.121998 253.946182 
L 244.771957 263.720727 
L 245.096937 263.720727 
L 245.421916 268.608 
L 245.746896 271.051636 
L 246.071876 275.938909 
L 246.721835 280.826182 
L 247.046814 285.713455 
L 247.371794 285.713455 
L 248.021753 295.488 
L 248.346732 290.600727 
L 248.671712 290.600727 
L 248.996691 288.157091 
L 249.321671 290.600727 
L 249.64665 285.713455 
L 249.97163 290.600727 
L 250.296609 288.157091 
L 250.621589 290.600727 
L 250.946568 283.269818 
L 251.596527 283.269818 
L 251.921507 280.826182 
L 252.246486 280.826182 
L 252.571466 285.713455 
L 252.896446 285.713455 
L 253.221425 288.157091 
L 253.546405 280.826182 
L 253.871384 280.826182 
L 254.196364 283.269818 
L 254.521343 288.157091 
L 254.846323 285.713455 
L 255.496282 285.713455 
L 256.146241 280.826182 
L 256.47122 283.269818 
L 256.7962 283.269818 
L 257.121179 280.826182 
L 257.446159 280.826182 
L 257.771138 283.269818 
L 258.096118 283.269818 
L 258.421097 285.713455 
L 258.746077 280.826182 
L 259.071057 280.826182 
L 259.396036 285.713455 
L 259.721016 283.269818 
L 260.370975 283.269818 
L 260.695954 278.382545 
L 261.020934 280.826182 
L 261.345913 275.938909 
L 261.670893 280.826182 
L 261.995872 278.382545 
L 262.320852 278.382545 
L 262.645831 280.826182 
L 263.29579 280.826182 
L 263.62077 283.269818 
L 263.945749 283.269818 
L 264.595708 278.382545 
L 265.570647 285.713455 
L 265.895627 280.826182 
L 266.220606 280.826182 
L 266.545586 278.382545 
L 266.870565 283.269818 
L 267.195545 278.382545 
L 267.845504 278.382545 
L 268.495463 283.269818 
L 268.820442 283.269818 
L 269.470401 278.382545 
L 269.795381 278.382545 
L 270.770319 285.713455 
L 271.095299 283.269818 
L 271.420278 285.713455 
L 271.745258 280.826182 
L 272.070238 285.713455 
L 272.395217 283.269818 
L 272.720197 283.269818 
L 273.045176 280.826182 
L 273.370156 283.269818 
L 273.695135 283.269818 
L 274.020115 285.713455 
L 274.345094 283.269818 
L 274.670074 283.269818 
L 274.995053 285.713455 
L 275.645012 280.826182 
L 275.969992 285.713455 
L 276.619951 285.713455 
L 276.94493 280.826182 
L 277.26991 283.269818 
L 277.594889 283.269818 
L 277.919869 285.713455 
L 278.244848 283.269818 
L 278.894808 283.269818 
L 279.219787 285.713455 
L 279.544767 280.826182 
L 279.869746 283.269818 
L 280.194726 280.826182 
L 280.844685 280.826182 
L 281.169664 285.713455 
L 281.494644 288.157091 
L 281.819623 285.713455 
L 282.144603 278.382545 
L 282.469582 285.713455 
L 282.794562 283.269818 
L 283.119541 285.713455 
L 283.444521 283.269818 
L 284.09448 273.495273 
L 284.419459 266.164364 
L 284.744439 253.946182 
L 285.069419 246.615273 
L 285.719378 222.178909 
L 286.044357 224.622545 
L 286.369337 236.840727 
L 286.694316 231.953455 
L 287.019296 214.848 
L 287.344275 187.968 
L 287.669255 170.862545 
L 287.994234 168.418909 
L 288.644193 190.411636 
L 288.969173 183.080727 
L 289.944111 114.658909 
L 290.269091 126.877091 
L 290.59407 146.426182 
L 290.91905 148.869818 
L 291.893989 90.222545 
L 292.543948 112.215273 
L 292.868927 112.215273 
L 293.518886 78.004364 
L 293.843866 78.004364 
L 294.168845 90.222545 
L 294.493825 97.553455 
L 294.818804 82.891636 
L 295.143784 60.898909 
L 295.468763 56.011636 
L 296.118722 85.335273 
L 296.443702 82.891636 
L 297.093661 53.568 
L 297.41864 56.011636 
L 298.0686 75.560727 
L 299.043538 60.898909 
L 299.368518 63.342545 
L 299.693497 70.673455 
L 300.018477 70.673455 
L 300.343456 60.898909 
L 300.668436 60.898909 
L 301.318395 73.117091 
L 301.643374 75.560727 
L 301.968354 75.560727 
L 302.293333 73.117091 
L 302.618313 75.560727 
L 302.943292 75.560727 
L 303.268272 80.448 
L 303.593251 82.891636 
L 304.24321 82.891636 
L 304.56819 85.335273 
L 304.89317 85.335273 
L 305.218149 87.778909 
L 305.868108 87.778909 
L 306.518067 92.666182 
L 306.843047 92.666182 
L 307.493006 97.553455 
L 307.817985 97.553455 
L 308.142965 95.109818 
L 308.467944 97.553455 
L 308.792924 102.440727 
L 309.117903 104.884364 
L 309.442883 104.884364 
L 309.767862 99.997091 
L 310.742801 99.997091 
L 311.067781 102.440727 
L 311.39276 107.328 
L 311.71774 102.440727 
L 312.042719 99.997091 
L 312.367699 102.440727 
L 312.692678 99.997091 
L 313.017658 104.884364 
L 313.342637 99.997091 
L 313.667617 102.440727 
L 313.992596 97.553455 
L 314.317576 102.440727 
L 314.642555 102.440727 
L 314.967535 97.553455 
L 315.292514 97.553455 
L 315.617494 95.109818 
L 315.942473 90.222545 
L 316.267453 95.109818 
L 316.592432 95.109818 
L 316.917412 92.666182 
L 317.242391 87.778909 
L 317.567371 90.222545 
L 317.892351 87.778909 
L 318.21733 87.778909 
L 318.54231 82.891636 
L 318.867289 85.335273 
L 319.192269 82.891636 
L 320.167207 82.891636 
L 320.492187 80.448 
L 320.817166 80.448 
L 321.142146 75.560727 
L 321.792105 80.448 
L 322.442064 75.560727 
L 322.767043 75.560727 
L 323.092023 73.117091 
L 323.417002 78.004364 
L 324.066962 78.004364 
L 324.391941 75.560727 
L 324.716921 75.560727 
L 325.0419 80.448 
L 325.36688 82.891636 
L 325.691859 80.448 
L 326.341818 80.448 
L 326.666798 82.891636 
L 326.991777 90.222545 
L 327.641736 90.222545 
L 327.966716 92.666182 
L 328.291695 97.553455 
L 328.616675 99.997091 
L 328.941654 97.553455 
L 329.266634 104.884364 
L 329.591613 104.884364 
L 329.916593 112.215273 
L 330.566552 117.102545 
L 330.891532 124.433455 
L 331.216511 126.877091 
L 331.541491 124.433455 
L 332.841409 143.982545 
L 333.816347 163.531636 
L 334.141327 161.088 
L 334.466306 170.862545 
L 335.766224 190.411636 
L 336.416183 202.629818 
L 336.741163 202.629818 
L 337.391122 217.291636 
L 337.716102 219.735273 
L 338.041081 224.622545 
L 338.69104 239.284364 
L 339.340999 244.171636 
L 339.665979 251.502545 
L 340.315938 256.389818 
L 340.640917 261.277091 
L 340.965897 263.720727 
L 341.615856 275.938909 
L 341.940835 275.938909 
L 342.265815 278.382545 
L 342.590794 283.269818 
L 342.915774 283.269818 
L 343.240753 285.713455 
L 343.565733 290.600727 
L 343.890713 290.600727 
L 344.215692 295.488 
L 344.540672 288.157091 
L 344.865651 290.600727 
L 345.190631 290.600727 
L 345.51561 293.044364 
L 346.165569 288.157091 
L 346.815528 288.157091 
L 347.140508 283.269818 
L 347.465487 283.269818 
L 347.790467 280.826182 
L 348.440426 280.826182 
L 348.765405 285.713455 
L 349.090385 288.157091 
L 349.415364 285.713455 
L 349.740344 278.382545 
L 350.065324 283.269818 
L 350.390303 285.713455 
L 350.715283 290.600727 
L 351.040262 285.713455 
L 351.365242 285.713455 
L 351.690221 283.269818 
L 352.34018 283.269818 
L 352.66516 280.826182 
L 352.990139 283.269818 
L 353.315119 280.826182 
L 353.965078 280.826182 
L 354.290057 285.713455 
L 354.615037 285.713455 
L 354.940016 283.269818 
L 355.264996 285.713455 
L 355.914955 285.713455 
L 356.564914 280.826182 
L 356.889894 280.826182 
L 357.214873 283.269818 
L 357.539853 280.826182 
L 357.864832 280.826182 
L 358.189812 278.382545 
L 358.514791 273.495273 
L 358.839771 275.938909 
L 359.16475 283.269818 
L 359.814709 283.269818 
L 360.139689 275.938909 
L 360.464668 283.269818 
L 360.789648 280.826182 
L 361.114627 283.269818 
L 362.089566 283.269818 
L 362.739525 278.382545 
L 363.064505 280.826182 
L 363.389484 278.382545 
L 364.039443 278.382545 
L 364.364423 283.269818 
L 364.689402 280.826182 
L 365.014382 283.269818 
L 365.339361 275.938909 
L 365.664341 283.269818 
L 365.98932 278.382545 
L 366.3143 283.269818 
L 366.639279 285.713455 
L 366.964259 285.713455 
L 367.289238 280.826182 
L 367.614218 283.269818 
L 367.939197 280.826182 
L 368.264177 283.269818 
L 368.589156 283.269818 
L 368.914136 280.826182 
L 369.239115 280.826182 
L 369.564095 283.269818 
L 369.889075 283.269818 
L 370.214054 280.826182 
L 371.188993 280.826182 
L 371.513972 283.269818 
L 371.838952 280.826182 
L 372.163931 283.269818 
L 373.463849 283.269818 
L 373.788829 285.713455 
L 374.438788 280.826182 
L 375.413726 288.157091 
L 375.738706 280.826182 
L 376.388665 280.826182 
L 376.713645 285.713455 
L 377.038624 285.713455 
L 377.363604 288.157091 
L 377.688583 283.269818 
L 378.013563 283.269818 
L 378.338542 280.826182 
L 378.663522 285.713455 
L 378.988501 285.713455 
L 379.313481 283.269818 
L 379.96344 271.051636 
L 380.613399 261.277091 
L 381.263358 231.953455 
L 381.588337 219.735273 
L 381.913317 224.622545 
L 382.238296 231.953455 
L 382.563276 231.953455 
L 383.213235 192.855273 
L 383.538215 168.418909 
L 383.863194 168.418909 
L 384.188174 180.637091 
L 384.513153 187.968 
L 384.838133 183.080727 
L 385.488092 131.764364 
L 385.813071 119.546182 
L 386.138051 124.433455 
L 386.46303 148.869818 
L 386.78801 148.869818 
L 387.112989 131.764364 
L 387.437969 102.440727 
L 387.762948 87.778909 
L 388.412907 114.658909 
L 388.737887 107.328 
L 389.387846 75.560727 
L 389.712826 75.560727 
L 390.037805 90.222545 
L 390.362785 97.553455 
L 390.687764 85.335273 
L 391.012744 63.342545 
L 391.337723 58.455273 
L 391.987682 85.335273 
L 392.312662 85.335273 
L 392.962621 58.455273 
L 393.2876 56.011636 
L 393.61258 68.229818 
L 393.937559 75.560727 
L 394.262539 70.673455 
L 394.587518 63.342545 
L 394.912498 60.898909 
L 395.237477 63.342545 
L 395.562457 73.117091 
L 395.887437 70.673455 
L 396.537396 60.898909 
L 397.187355 73.117091 
L 397.512334 78.004364 
L 397.837314 75.560727 
L 398.162293 70.673455 
L 398.487273 70.673455 
L 398.487273 70.673455 
" clip-path="url(#p79e4d2ab41)" style="fill: none; stroke: #2ca02c; stroke-width: 1.5; stroke-linecap: square"/>
   </g>
   <g id="patch_3">
    <path d="M 57.6 307.584 
L 57.6 41.472 
" style="fill: none; stroke: #000000; stroke-width: 0.8; stroke-linejoin: miter; stroke-linecap: square"/>
   </g>
   <g id="patch_4">
    <path d="M 414.72 307.584 
L 414.72 41.472 
" style="fill: none; stroke: #000000; stroke-width: 0.8; stroke-linejoin: miter; stroke-linecap: square"/>
   </g>
   <g id="patch_5">
    <path d="M 57.6 307.584 
L 414.72 307.584 
" style="fill: none; stroke: #000000; stroke-width: 0.8; stroke-linejoin: miter; stroke-linecap: square"/>
   </g>
   <g id="patch_6">
    <path d="M 57.6 41.472 
L 414.72 41.472 
" style="fill: none; stroke: #000000; stroke-width: 0.8; stroke-linejoin: miter; stroke-linecap: square"/>
   </g>
  </g>
 </g>
 <defs>
  <clipPath id="p79e4d2ab41">
   <rect x="57.6" y="41.472" width="357.12" height="266.112"/>
  </clipPath>
 </defs>
</svg>
