<?xml version="1.0" encoding="utf-8" standalone="no"?>
<!DOCTYPE svg PUBLIC "-//W3C//DTD SVG 1.1//EN"
  "http://www.w3.org/Graphics/SVG/1.1/DTD/svg11.dtd">
<svg xmlns:xlink="http://www.w3.org/1999/xlink" width="460.8pt" height="345.6pt" viewBox="0 0 460.8 345.6" xmlns="http://www.w3.org/2000/svg" version="1.1">
 <metadata>
  <rdf:RDF xmlns:dc="http://purl.org/dc/elements/1.1/" xmlns:cc="http://creativecommons.org/ns#" xmlns:rdf="http://www.w3.org/1999/02/22-rdf-syntax-ns#">
   <cc:Work>
    <dc:type rdf:resource="http://purl.org/dc/dcmitype/StillImage"/>
    <dc:date>2025-12-29T09:09:00.946725</dc:date>
    <dc:format>image/svg+xml</dc:format>
    <dc:creator>
     <cc:Agent>
      <dc:title>Matplotlib v3.10.8, https://matplotlib.org/</dc:title>
     </cc:Agent>
    </dc:creator>
   </cc:Work>
  </rdf:RDF>
 </metadata>
 <defs>
  <style type="text/css">*{stroke-linejoin: round; stroke-linecap: butt}</style>
 </defs>
 <g id="figure_1">
  <g id="patch_1">
   <path d="M 0 345.6 
L 460.8 345.6 
L 460.8 0 
L 0 0 
z
" style="fill: #ffffff"/>
  </g>
  <g id="axes_1">
   <g id="patch_2">
    <path d="M 57.6 307.584 
L 414.72 307.584 
L 414.72 41.472 
L 57.6 41.472 
z
" style="fill: #ffffff"/>
   </g>
   <g id="matplotlib.axis_1">
    <g id="xtick_1">
     <g id="line2d_1">
      <defs>
       <path id="m760421ec05" d="M 0 0 
L 0 3.5 
" style="stroke: #000000; stroke-width: 0.8"/>
      </defs>
      <g>
       <use xlink:href="#m760421ec05" x="73.832727" y="307.584" style="stroke: #000000; stroke-width: 0.8"/>
      </g>
     </g>
     <g id="text_1">
      <!-- 0 -->
      <g transform="translate(70.651477 322.182437) scale(0.1 -0.1)">
       <defs>
        <path id="DejaVuSans-30" d="M 2034 4250 
Q 1547 4250 1301 3770 
Q 1056 3291 1056 2328 
Q 1056 1369 1301 889 
Q 1547 409 2034 409 
Q 2525 409 2770 889 
Q 3016 1369 3016 2328 
Q 3016 3291 2770 3770 
Q 2525 4250 2034 4250 
z
M 2034 4750 
Q 2819 4750 3233 4129 
Q 3647 3509 3647 2328 
Q 3647 1150 3233 529 
Q 2819 -91 2034 -91 
Q 1250 -91 836 529 
Q 422 1150 422 2328 
Q 422 3509 836 4129 
Q 1250 4750 2034 4750 
z
" transform="scale(0.015625)"/>
       </defs>
       <use xlink:href="#DejaVuSans-30"/>
      </g>
     </g>
    </g>
    <g id="xtick_2">
     <g id="line2d_2">
      <g>
       <use xlink:href="#m760421ec05" x="138.828632" y="307.584" style="stroke: #000000; stroke-width: 0.8"/>
      </g>
     </g>
     <g id="text_2">
      <!-- 1 -->
      <g transform="translate(135.647382 322.182437) scale(0.1 -0.1)">
       <defs>
        <path id="DejaVuSans-31" d="M 794 531 
L 1825 531 
L 1825 4091 
L 703 3866 
L 703 4441 
L 1819 4666 
L 2450 4666 
L 2450 531 
L 3481 531 
L 3481 0 
L 794 0 
L 794 531 
z
" transform="scale(0.015625)"/>
       </defs>
       <use xlink:href="#DejaVuSans-31"/>
      </g>
     </g>
    </g>
    <g id="xtick_3">
     <g id="line2d_3">
      <g>
       <use xlink:href="#m760421ec05" x="203.824537" y="307.584" style="stroke: #000000; stroke-width: 0.8"/>
      </g>
     </g>
     <g id="text_3">
      <!-- 2 -->
      <g transform="translate(200.643287 322.182437) scale(0.1 -0.1)">
       <defs>
        <path id="DejaVuSans-32" d="M 1228 531 
L 3431 531 
L 3431 0 
L 469 0 
L 469 531 
Q 828 903 1448 1529 
Q 2069 2156 2228 2338 
Q 2531 2678 2651 2914 
Q 2772 3150 2772 3378 
Q 2772 3750 2511 3984 
Q 2250 4219 1831 4219 
Q 1534 4219 1204 4116 
Q 875 4013 500 3803 
L 500 4441 
Q 881 4594 1212 4672 
Q 1544 4750 1819 4750 
Q 2544 4750 2975 4387 
Q 3406 4025 3406 3419 
Q 3406 3131 3298 2873 
Q 3191 2616 2906 2266 
Q 2828 2175 2409 1742 
Q 1991 1309 1228 531 
z
" transform="scale(0.015625)"/>
       </defs>
       <use xlink:href="#DejaVuSans-32"/>
      </g>
     </g>
    </g>
    <g id="xtick_4">
     <g id="line2d_4">
      <g>
       <use xlink:href="#m760421ec05" x="268.820442" y="307.584" style="stroke: #000000; stroke-width: 0.8"/>
      </g>
     </g>
     <g id="text_4">
      <!-- 3 -->
      <g transform="translate(265.639192 322.182437) scale(0.1 -0.1)">
       <defs>
        <path id="DejaVuSans-33" d="M 2597 2516 
Q 3050 2419 3304 2112 
Q 3559 1806 3559 1356 
Q 3559 666 3084 287 
Q 2609 -91 1734 -91 
Q 1441 -91 1130 -33 
Q 819 25 488 141 
L 488 750 
Q 750 597 1062 519 
Q 1375 441 1716 441 
Q 2309 441 2620 675 
Q 2931 909 2931 1356 
Q 2931 1769 2642 2001 
Q 2353 2234 1838 2234 
L 1294 2234 
L 1294 2753 
L 1863 2753 
Q 2328 2753 2575 2939 
Q 2822 3125 2822 3475 
Q 2822 3834 2567 4026 
Q 2313 4219 1838 4219 
Q 1578 4219 1281 4162 
Q 984 4106 628 3988 
L 628 4550 
Q 988 4650 1302 4700 
Q 1616 4750 1894 4750 
Q 2613 4750 3031 4423 
Q 3450 4097 3450 3541 
Q 3450 3153 3228 2886 
Q 3006 2619 2597 2516 
z
" transform="scale(0.015625)"/>
       </defs>
       <use xlink:href="#DejaVuSans-33"/>
      </g>
     </g>
    </g>
    <g id="xtick_5">
     <g id="line2d_5">
      <g>
       <use xlink:href="#m760421ec05" x="333.816347" y="307.584" style="stroke: #000000; stroke-width: 0.8"/>
      </g>
     </g>
     <g id="text_5">
      <!-- 4 -->
      <g transform="translate(330.635097 322.182437) scale(0.1 -0.1)">
       <defs>
        <path id="DejaVuSans-34" d="M 2419 4116 
L 825 1625 
L 2419 1625 
L 2419 4116 
z
M 2253 4666 
L 3047 4666 
L 3047 1625 
L 3713 1625 
L 3713 1100 
L 3047 1100 
L 3047 0 
L 2419 0 
L 2419 1100 
L 313 1100 
L 313 1709 
L 2253 4666 
z
" transform="scale(0.015625)"/>
       </defs>
       <use xlink:href="#DejaVuSans-34"/>
      </g>
     </g>
    </g>
    <g id="xtick_6">
     <g id="line2d_6">
      <g>
       <use xlink:href="#m760421ec05" x="398.812252" y="307.584" style="stroke: #000000; stroke-width: 0.8"/>
      </g>
     </g>
     <g id="text_6">
      <!-- 5 -->
      <g transform="translate(395.631002 322.182437) scale(0.1 -0.1)">
       <defs>
        <path id="DejaVuSans-35" d="M 691 4666 
L 3169 4666 
L 3169 4134 
L 1269 4134 
L 1269 2991 
Q 1406 3038 1543 3061 
Q 1681 3084 1819 3084 
Q 2600 3084 3056 2656 
Q 3513 2228 3513 1497 
Q 3513 744 3044 326 
Q 2575 -91 1722 -91 
Q 1428 -91 1123 -41 
Q 819 9 494 109 
L 494 744 
Q 775 591 1075 516 
Q 1375 441 1709 441 
Q 2250 441 2565 725 
Q 2881 1009 2881 1497 
Q 2881 1984 2565 2268 
Q 2250 2553 1709 2553 
Q 1456 2553 1204 2497 
Q 953 2441 691 2322 
L 691 4666 
z
" transform="scale(0.015625)"/>
       </defs>
       <use xlink:href="#DejaVuSans-35"/>
      </g>
     </g>
    </g>
    <g id="text_7">
     <!-- 1e−7 -->
     <g transform="translate(387.462188 334.860562) scale(0.1 -0.1)">
      <defs>
       <path id="DejaVuSans-65" d="M 3597 1894 
L 3597 1613 
L 953 1613 
Q 991 1019 1311 708 
Q 1631 397 2203 397 
Q 2534 397 2845 478 
Q 3156 559 3463 722 
L 3463 178 
Q 3153 47 2828 -22 
Q 2503 -91 2169 -91 
Q 1331 -91 842 396 
Q 353 884 353 1716 
Q 353 2575 817 3079 
Q 1281 3584 2069 3584 
Q 2775 3584 3186 3129 
Q 3597 2675 3597 1894 
z
M 3022 2063 
Q 3016 2534 2758 2815 
Q 2500 3097 2075 3097 
Q 1594 3097 1305 2825 
Q 1016 2553 972 2059 
L 3022 2063 
z
" transform="scale(0.015625)"/>
       <path id="DejaVuSans-2212" d="M 678 2272 
L 4684 2272 
L 4684 1741 
L 678 1741 
L 678 2272 
z
" transform="scale(0.015625)"/>
       <path id="DejaVuSans-37" d="M 525 4666 
L 3525 4666 
L 3525 4397 
L 1831 0 
L 1172 0 
L 2766 4134 
L 525 4134 
L 525 4666 
z
" transform="scale(0.015625)"/>
      </defs>
      <use xlink:href="#DejaVuSans-31"/>
      <use xlink:href="#DejaVuSans-65" transform="translate(63.623047 0)"/>
      <use xlink:href="#DejaVuSans-2212" transform="translate(125.146484 0)"/>
      <use xlink:href="#DejaVuSans-37" transform="translate(208.935547 0)"/>
     </g>
    </g>
   </g>
   <g id="matplotlib.axis_2">
    <g id="ytick_1">
     <g id="line2d_7">
      <defs>
       <path id="m46a0ff640f" d="M 0 0 
L -3.5 0 
" style="stroke: #000000; stroke-width: 0.8"/>
      </defs>
      <g>
       <use xlink:href="#m46a0ff640f" x="57.6" y="266.602009" style="stroke: #000000; stroke-width: 0.8"/>
      </g>
     </g>
     <g id="text_8">
      <!-- −20 -->
      <g transform="translate(29.495313 270.401227) scale(0.1 -0.1)">
       <use xlink:href="#DejaVuSans-2212"/>
       <use xlink:href="#DejaVuSans-32" transform="translate(83.789062 0)"/>
       <use xlink:href="#DejaVuSans-30" transform="translate(147.412109 0)"/>
      </g>
     </g>
    </g>
    <g id="ytick_2">
     <g id="line2d_8">
      <g>
       <use xlink:href="#m46a0ff640f" x="57.6" y="220.384459" style="stroke: #000000; stroke-width: 0.8"/>
      </g>
     </g>
     <g id="text_9">
      <!-- 0 -->
      <g transform="translate(44.2375 224.183678) scale(0.1 -0.1)">
       <use xlink:href="#DejaVuSans-30"/>
      </g>
     </g>
    </g>
    <g id="ytick_3">
     <g id="line2d_9">
      <g>
       <use xlink:href="#m46a0ff640f" x="57.6" y="174.16691" style="stroke: #000000; stroke-width: 0.8"/>
      </g>
     </g>
     <g id="text_10">
      <!-- 20 -->
      <g transform="translate(37.875 177.966129) scale(0.1 -0.1)">
       <use xlink:href="#DejaVuSans-32"/>
       <use xlink:href="#DejaVuSans-30" transform="translate(63.623047 0)"/>
      </g>
     </g>
    </g>
    <g id="ytick_4">
     <g id="line2d_10">
      <g>
       <use xlink:href="#m46a0ff640f" x="57.6" y="127.94936" style="stroke: #000000; stroke-width: 0.8"/>
      </g>
     </g>
     <g id="text_11">
      <!-- 40 -->
      <g transform="translate(37.875 131.748579) scale(0.1 -0.1)">
       <use xlink:href="#DejaVuSans-34"/>
       <use xlink:href="#DejaVuSans-30" transform="translate(63.623047 0)"/>
      </g>
     </g>
    </g>
    <g id="ytick_5">
     <g id="line2d_11">
      <g>
       <use xlink:href="#m46a0ff640f" x="57.6" y="81.731811" style="stroke: #000000; stroke-width: 0.8"/>
      </g>
     </g>
     <g id="text_12">
      <!-- 60 -->
      <g transform="translate(37.875 85.53103) scale(0.1 -0.1)">
       <defs>
        <path id="DejaVuSans-36" d="M 2113 2584 
Q 1688 2584 1439 2293 
Q 1191 2003 1191 1497 
Q 1191 994 1439 701 
Q 1688 409 2113 409 
Q 2538 409 2786 701 
Q 3034 994 3034 1497 
Q 3034 2003 2786 2293 
Q 2538 2584 2113 2584 
z
M 3366 4563 
L 3366 3988 
Q 3128 4100 2886 4159 
Q 2644 4219 2406 4219 
Q 1781 4219 1451 3797 
Q 1122 3375 1075 2522 
Q 1259 2794 1537 2939 
Q 1816 3084 2150 3084 
Q 2853 3084 3261 2657 
Q 3669 2231 3669 1497 
Q 3669 778 3244 343 
Q 2819 -91 2113 -91 
Q 1303 -91 875 529 
Q 447 1150 447 2328 
Q 447 3434 972 4092 
Q 1497 4750 2381 4750 
Q 2619 4750 2861 4703 
Q 3103 4656 3366 4563 
z
" transform="scale(0.015625)"/>
       </defs>
       <use xlink:href="#DejaVuSans-36"/>
       <use xlink:href="#DejaVuSans-30" transform="translate(63.623047 0)"/>
      </g>
     </g>
    </g>
   </g>
   <g id="line2d_12">
    <path d="M 73.832727 222.189829 
L 75.132645 222.189829 
L 75.457625 223.995202 
L 76.107584 223.995202 
L 76.432563 222.189829 
L 76.757543 222.189829 
L 77.082523 220.384456 
L 77.407502 223.995202 
L 77.732482 222.189829 
L 78.057461 223.995202 
L 79.0324 223.995202 
L 79.357379 222.189829 
L 79.682359 223.995202 
L 81.307256 223.995202 
L 81.632236 222.189829 
L 81.957215 223.995202 
L 82.282195 222.189829 
L 83.257133 222.189829 
L 83.582113 223.995202 
L 83.907093 220.384456 
L 84.232072 220.384456 
L 84.557052 218.579082 
L 85.53199 207.746844 
L 86.506929 193.303859 
L 86.831908 195.109232 
L 87.156888 198.719978 
L 87.481867 195.109232 
L 87.806847 187.887739 
L 88.456806 169.834008 
L 88.781785 169.834008 
L 89.106765 173.444754 
L 89.431744 178.860874 
L 89.756724 177.0555 
L 90.081704 168.028635 
L 90.406683 153.58565 
L 90.731663 144.558784 
L 91.706601 162.612515 
L 92.031581 157.196396 
L 92.68154 137.337291 
L 93.006519 135.531918 
L 93.331499 139.142665 
L 93.656478 144.558784 
L 93.981458 140.948038 
L 94.631417 130.115799 
L 94.956396 130.115799 
L 95.281376 135.531918 
L 95.606355 135.531918 
L 95.931335 133.726545 
L 96.256314 124.699679 
L 96.581294 121.088933 
L 97.231253 131.921172 
L 97.556233 133.726545 
L 98.206192 121.088933 
L 98.531171 121.088933 
L 98.856151 124.699679 
L 99.18113 126.505053 
L 99.50611 126.505053 
L 99.831089 124.699679 
L 100.156069 124.699679 
L 100.806028 128.310426 
L 101.780966 122.894306 
L 102.105946 122.894306 
L 102.430925 126.505053 
L 102.755905 131.921172 
L 103.080885 131.921172 
L 103.730844 124.699679 
L 104.380803 128.310426 
L 104.705782 131.921172 
L 105.030762 133.726545 
L 105.355741 130.115799 
L 105.680721 131.921172 
L 106.0057 130.115799 
L 106.33068 133.726545 
L 106.655659 133.726545 
L 107.305618 130.115799 
L 107.630598 130.115799 
L 107.955577 133.726545 
L 108.605536 137.337291 
L 108.930516 135.531918 
L 109.255495 131.921172 
L 109.580475 130.115799 
L 109.905455 130.115799 
L 110.230434 133.726545 
L 110.555414 135.531918 
L 110.880393 135.531918 
L 111.205373 131.921172 
L 111.530352 133.726545 
L 112.505291 133.726545 
L 112.83027 131.921172 
L 113.15525 133.726545 
L 113.480229 131.921172 
L 113.805209 133.726545 
L 114.455168 133.726545 
L 114.780147 130.115799 
L 115.105127 128.310426 
L 115.430106 130.115799 
L 115.755086 128.310426 
L 116.080066 130.115799 
L 116.405045 128.310426 
L 116.730025 130.115799 
L 117.055004 130.115799 
L 117.379984 126.505053 
L 117.704963 124.699679 
L 118.354922 124.699679 
L 119.004881 128.310426 
L 119.97982 122.894306 
L 120.629779 122.894306 
L 120.954758 124.699679 
L 121.604717 124.699679 
L 121.929697 122.894306 
L 122.579656 122.894306 
L 122.904636 121.088933 
L 123.229615 121.088933 
L 123.554595 122.894306 
L 123.879574 121.088933 
L 124.204554 121.088933 
L 124.529533 122.894306 
L 124.854513 122.894306 
L 125.179492 124.699679 
L 125.504472 124.699679 
L 125.829451 122.894306 
L 126.154431 122.894306 
L 126.47941 126.505053 
L 126.80439 126.505053 
L 127.129369 130.115799 
L 127.454349 130.115799 
L 127.779328 128.310426 
L 128.429287 128.310426 
L 129.079247 131.921172 
L 129.404226 135.531918 
L 129.729206 135.531918 
L 130.054185 137.337291 
L 130.379165 137.337291 
L 132.004062 146.364157 
L 132.329042 149.974903 
L 132.654021 149.974903 
L 132.979001 151.780277 
L 133.30398 155.391023 
L 133.62896 155.391023 
L 133.953939 159.001769 
L 134.278919 159.001769 
L 134.603898 162.612515 
L 134.928878 162.612515 
L 135.253857 166.223262 
L 136.553776 173.444754 
L 136.878755 177.0555 
L 137.528714 180.666247 
L 138.178673 187.887739 
L 138.503653 187.887739 
L 139.478591 193.303859 
L 139.803571 196.914605 
L 140.45353 200.525351 
L 140.778509 200.525351 
L 141.753448 205.941471 
L 142.078428 209.552217 
L 142.403407 209.552217 
L 143.053366 213.162963 
L 143.378346 213.162963 
L 143.703325 216.773709 
L 144.028305 216.773709 
L 144.353284 218.579082 
L 144.678264 216.773709 
L 145.003243 220.384456 
L 145.328223 218.579082 
L 145.653202 222.189829 
L 145.978182 222.189829 
L 146.303161 223.995202 
L 146.95312 223.995202 
L 147.2781 225.800575 
L 147.928059 225.800575 
L 148.253038 223.995202 
L 149.552957 223.995202 
L 149.877936 222.189829 
L 151.827813 222.189829 
L 152.152793 220.384456 
L 152.477772 222.189829 
L 152.802752 220.384456 
L 153.452711 220.384456 
L 153.77769 222.189829 
L 154.427649 222.189829 
L 154.752629 223.995202 
L 155.077609 222.189829 
L 156.052547 222.189829 
L 156.377527 220.384456 
L 156.702506 222.189829 
L 158.652383 222.189829 
L 158.977363 220.384456 
L 159.302342 222.189829 
L 159.627322 220.384456 
L 159.952301 222.189829 
L 160.277281 220.384456 
L 160.60226 222.189829 
L 161.902179 222.189829 
L 162.227158 223.995202 
L 162.552138 222.189829 
L 163.852056 222.189829 
L 164.177035 223.995202 
L 164.502015 222.189829 
L 165.151974 222.189829 
L 165.476953 220.384456 
L 165.801933 222.189829 
L 166.126912 220.384456 
L 166.451892 222.189829 
L 167.75181 222.189829 
L 168.07679 223.995202 
L 169.701687 223.995202 
L 170.026667 220.384456 
L 170.351646 223.995202 
L 170.676626 220.384456 
L 171.001605 222.189829 
L 171.326585 220.384456 
L 171.651564 222.189829 
L 171.976544 222.189829 
L 172.301523 223.995202 
L 172.626503 222.189829 
L 173.276462 222.189829 
L 173.601441 223.995202 
L 173.926421 223.995202 
L 174.2514 222.189829 
L 174.57638 223.995202 
L 176.201278 223.995202 
L 176.526257 222.189829 
L 177.501196 222.189829 
L 177.826175 223.995202 
L 178.151155 222.189829 
L 178.476134 225.800575 
L 178.801114 223.995202 
L 179.776052 223.995202 
L 180.101032 220.384456 
L 180.750991 216.773709 
L 181.075971 211.35759 
L 181.40095 209.552217 
L 182.050909 195.109232 
L 182.375889 193.303859 
L 182.700868 193.303859 
L 183.025848 196.914605 
L 183.350827 195.109232 
L 183.675807 187.887739 
L 184.325766 169.834008 
L 184.650745 168.028635 
L 185.300704 177.0555 
L 185.625684 177.0555 
L 185.950663 168.028635 
L 186.275643 153.58565 
L 186.600622 146.364157 
L 186.925602 148.16953 
L 187.575561 162.612515 
L 187.900541 157.196396 
L 188.5505 135.531918 
L 188.875479 135.531918 
L 189.525438 144.558784 
L 189.850418 140.948038 
L 190.175397 133.726545 
L 190.500377 130.115799 
L 190.825356 130.115799 
L 191.150336 135.531918 
L 191.475315 135.531918 
L 191.800295 131.921172 
L 192.125274 122.894306 
L 192.450254 122.894306 
L 192.775233 126.505053 
L 193.425192 135.531918 
L 193.750172 126.505053 
L 194.075152 122.894306 
L 194.400131 121.088933 
L 195.05009 128.310426 
L 195.37507 128.310426 
L 196.025029 124.699679 
L 196.350008 126.505053 
L 196.674988 126.505053 
L 196.999967 130.115799 
L 197.324947 124.699679 
L 197.649926 122.894306 
L 197.974906 122.894306 
L 198.299885 126.505053 
L 198.624865 131.921172 
L 199.274824 128.310426 
L 199.599803 124.699679 
L 199.924783 126.505053 
L 200.249762 130.115799 
L 200.899722 130.115799 
L 201.224701 128.310426 
L 201.549681 130.115799 
L 201.87466 130.115799 
L 202.19964 133.726545 
L 202.524619 133.726545 
L 202.849599 130.115799 
L 203.174578 128.310426 
L 203.499558 130.115799 
L 203.824537 133.726545 
L 204.149517 135.531918 
L 204.474496 135.531918 
L 204.799476 131.921172 
L 205.124455 130.115799 
L 205.449435 130.115799 
L 206.099394 133.726545 
L 206.424373 133.726545 
L 206.749353 137.337291 
L 207.074333 131.921172 
L 207.399312 131.921172 
L 207.724292 130.115799 
L 208.049271 133.726545 
L 208.374251 133.726545 
L 209.02421 130.115799 
L 209.349189 130.115799 
L 209.674169 133.726545 
L 209.999148 131.921172 
L 210.324128 133.726545 
L 211.299066 128.310426 
L 211.624046 128.310426 
L 211.949025 131.921172 
L 212.274005 130.115799 
L 212.598984 130.115799 
L 212.923964 126.505053 
L 213.573923 126.505053 
L 213.898903 124.699679 
L 214.223882 124.699679 
L 214.873841 128.310426 
L 215.5238 124.699679 
L 215.84878 124.699679 
L 216.173759 122.894306 
L 216.498739 122.894306 
L 216.823718 121.088933 
L 217.148698 124.699679 
L 217.473677 122.894306 
L 217.798657 122.894306 
L 218.448616 119.28356 
L 218.773595 119.28356 
L 219.423554 122.894306 
L 219.748534 121.088933 
L 220.073514 121.088933 
L 220.398493 119.28356 
L 220.723473 122.894306 
L 221.048452 124.699679 
L 221.373432 122.894306 
L 221.698411 122.894306 
L 222.023391 121.088933 
L 222.34837 124.699679 
L 222.67335 124.699679 
L 222.998329 128.310426 
L 223.323309 130.115799 
L 223.973268 126.505053 
L 225.273186 133.726545 
L 225.598165 133.726545 
L 226.248124 137.337291 
L 226.573104 137.337291 
L 226.898084 140.948038 
L 227.223063 140.948038 
L 227.548043 146.364157 
L 227.873022 144.558784 
L 228.198002 148.16953 
L 229.17294 153.58565 
L 229.49792 157.196396 
L 229.822899 159.001769 
L 230.147879 159.001769 
L 230.797838 162.612515 
L 231.447797 169.834008 
L 232.097756 173.444754 
L 232.422735 173.444754 
L 232.747715 178.860874 
L 233.072695 178.860874 
L 233.397674 182.47162 
L 233.722654 182.47162 
L 234.047633 186.082366 
L 234.372613 187.887739 
L 234.697592 191.498485 
L 235.022572 193.303859 
L 235.347551 193.303859 
L 235.672531 196.914605 
L 235.99751 198.719978 
L 236.32249 202.330724 
L 236.972449 202.330724 
L 237.947387 207.746844 
L 238.272367 211.35759 
L 238.597346 213.162963 
L 238.922326 211.35759 
L 239.247305 213.162963 
L 239.572285 216.773709 
L 239.897265 214.968336 
L 240.222244 218.579082 
L 240.547224 216.773709 
L 241.847142 223.995202 
L 242.497101 223.995202 
L 242.82208 222.189829 
L 243.14706 223.995202 
L 243.797019 223.995202 
L 244.121998 225.800575 
L 244.446978 223.995202 
L 245.746896 223.995202 
L 246.396855 220.384456 
L 246.721835 222.189829 
L 247.046814 220.384456 
L 248.996691 220.384456 
L 249.321671 218.579082 
L 249.64665 220.384456 
L 249.97163 220.384456 
L 250.296609 222.189829 
L 251.271548 222.189829 
L 251.596527 220.384456 
L 251.921507 222.189829 
L 252.246486 222.189829 
L 252.571466 223.995202 
L 252.896446 223.995202 
L 253.221425 222.189829 
L 254.521343 222.189829 
L 254.846323 220.384456 
L 256.146241 220.384456 
L 256.47122 222.189829 
L 256.7962 220.384456 
L 257.446159 223.995202 
L 258.096118 223.995202 
L 258.421097 222.189829 
L 258.746077 223.995202 
L 259.071057 222.189829 
L 260.045995 222.189829 
L 260.370975 220.384456 
L 260.695954 223.995202 
L 261.345913 220.384456 
L 261.670893 222.189829 
L 261.995872 222.189829 
L 262.320852 223.995202 
L 262.645831 223.995202 
L 262.970811 222.189829 
L 263.29579 223.995202 
L 263.62077 222.189829 
L 264.270729 225.800575 
L 264.920688 222.189829 
L 265.570647 222.189829 
L 265.895627 223.995202 
L 266.220606 223.995202 
L 266.545586 222.189829 
L 267.520524 222.189829 
L 267.845504 223.995202 
L 268.170483 222.189829 
L 268.495463 223.995202 
L 268.820442 222.189829 
L 269.145422 225.800575 
L 269.470401 222.189829 
L 270.12036 222.189829 
L 270.44534 223.995202 
L 271.745258 223.995202 
L 272.070238 222.189829 
L 272.395217 222.189829 
L 272.720197 225.800575 
L 273.045176 223.995202 
L 273.695135 223.995202 
L 274.020115 220.384456 
L 274.670074 223.995202 
L 274.995053 223.995202 
L 275.320033 222.189829 
L 275.645012 222.189829 
L 276.619951 216.773709 
L 277.919869 196.914605 
L 278.244848 193.303859 
L 278.894808 196.914605 
L 279.219787 195.109232 
L 279.544767 187.887739 
L 280.194726 169.834008 
L 280.519705 168.028635 
L 281.169664 178.860874 
L 281.494644 177.0555 
L 281.819623 168.028635 
L 282.144603 153.58565 
L 282.469582 144.558784 
L 282.794562 146.364157 
L 283.119541 159.001769 
L 283.444521 162.612515 
L 283.7695 157.196396 
L 284.419459 135.531918 
L 284.744439 135.531918 
L 285.069419 139.142665 
L 285.394398 144.558784 
L 285.719378 142.753411 
L 286.369337 130.115799 
L 286.694316 131.921172 
L 287.019296 135.531918 
L 287.344275 135.531918 
L 288.319214 121.088933 
L 288.644193 128.310426 
L 288.969173 131.921172 
L 289.294152 133.726545 
L 289.944111 124.699679 
L 290.269091 121.088933 
L 290.91905 128.310426 
L 291.569009 124.699679 
L 291.893989 124.699679 
L 292.868927 130.115799 
L 293.518886 122.894306 
L 293.843866 124.699679 
L 294.493825 131.921172 
L 294.818804 131.921172 
L 295.468763 124.699679 
L 295.793743 124.699679 
L 296.118722 130.115799 
L 296.443702 131.921172 
L 296.768681 131.921172 
L 297.093661 130.115799 
L 297.74362 130.115799 
L 298.0686 135.531918 
L 298.393579 131.921172 
L 298.718559 133.726545 
L 299.043538 130.115799 
L 299.368518 131.921172 
L 299.693497 131.921172 
L 300.018477 137.337291 
L 300.343456 139.142665 
L 300.668436 133.726545 
L 301.318395 130.115799 
L 301.643374 131.921172 
L 301.968354 135.531918 
L 302.618313 135.531918 
L 302.943292 131.921172 
L 303.268272 133.726545 
L 303.918231 133.726545 
L 304.24321 135.531918 
L 304.89317 131.921172 
L 305.218149 131.921172 
L 305.543129 133.726545 
L 306.193088 133.726545 
L 306.518067 131.921172 
L 306.843047 128.310426 
L 307.168026 128.310426 
L 307.817985 131.921172 
L 308.142965 131.921172 
L 308.467944 130.115799 
L 308.792924 126.505053 
L 309.117903 128.310426 
L 309.767862 124.699679 
L 310.092842 126.505053 
L 310.417821 124.699679 
L 310.742801 130.115799 
L 311.067781 126.505053 
L 311.39276 126.505053 
L 311.71774 122.894306 
L 312.692678 122.894306 
L 313.017658 124.699679 
L 313.342637 122.894306 
L 313.667617 124.699679 
L 313.992596 122.894306 
L 315.292514 122.894306 
L 315.617494 119.28356 
L 315.942473 122.894306 
L 316.267453 122.894306 
L 316.592432 124.699679 
L 317.242391 124.699679 
L 317.892351 121.088933 
L 318.21733 122.894306 
L 318.867289 130.115799 
L 319.192269 128.310426 
L 319.517248 130.115799 
L 319.842228 128.310426 
L 320.167207 128.310426 
L 320.817166 131.921172 
L 321.142146 135.531918 
L 321.467125 133.726545 
L 322.442064 139.142665 
L 322.767043 139.142665 
L 323.092023 142.753411 
L 324.066962 148.16953 
L 324.391941 148.16953 
L 324.716921 153.58565 
L 325.36688 157.196396 
L 326.016839 157.196396 
L 326.341818 162.612515 
L 326.666798 162.612515 
L 326.991777 166.223262 
L 327.316757 168.028635 
L 327.641736 171.639381 
L 327.966716 171.639381 
L 328.291695 173.444754 
L 328.941654 180.666247 
L 329.591613 184.276993 
L 329.916593 187.887739 
L 330.241572 189.693112 
L 330.566552 189.693112 
L 330.891532 193.303859 
L 331.216511 191.498485 
L 331.541491 196.914605 
L 332.516429 202.330724 
L 332.841409 202.330724 
L 333.166388 204.136097 
L 333.491368 207.746844 
L 333.816347 209.552217 
L 334.141327 209.552217 
L 334.466306 211.35759 
L 334.791286 211.35759 
L 335.441245 218.579082 
L 336.741163 218.579082 
L 337.391122 222.189829 
L 337.716102 222.189829 
L 338.041081 223.995202 
L 338.366061 222.189829 
L 339.01602 225.800575 
L 339.340999 223.995202 
L 339.990958 223.995202 
L 340.315938 225.800575 
L 340.965897 225.800575 
L 341.615856 222.189829 
L 342.590794 222.189829 
L 342.915774 220.384456 
L 343.890713 220.384456 
L 344.215692 222.189829 
L 344.540672 220.384456 
L 344.865651 222.189829 
L 345.190631 220.384456 
L 345.51561 222.189829 
L 345.84059 222.189829 
L 346.490549 225.800575 
L 346.815528 223.995202 
L 347.465487 223.995202 
L 347.790467 222.189829 
L 348.115446 222.189829 
L 348.440426 223.995202 
L 348.765405 222.189829 
L 349.740344 222.189829 
L 350.065324 223.995202 
L 350.390303 222.189829 
L 351.040262 222.189829 
L 351.365242 220.384456 
L 352.015201 220.384456 
L 352.34018 222.189829 
L 353.315119 222.189829 
L 353.640098 223.995202 
L 354.290057 223.995202 
L 354.940016 220.384456 
L 355.264996 222.189829 
L 356.889894 222.189829 
L 357.214873 220.384456 
L 357.539853 222.189829 
L 358.514791 222.189829 
L 358.839771 223.995202 
L 360.464668 223.995202 
L 360.789648 222.189829 
L 361.439607 222.189829 
L 361.764586 223.995202 
L 362.089566 223.995202 
L 362.414545 222.189829 
L 362.739525 223.995202 
L 363.064505 222.189829 
L 363.389484 222.189829 
L 363.714464 220.384456 
L 364.364423 223.995202 
L 365.014382 223.995202 
L 365.339361 222.189829 
L 365.664341 223.995202 
L 365.98932 223.995202 
L 366.3143 222.189829 
L 366.639279 225.800575 
L 366.964259 223.995202 
L 367.289238 223.995202 
L 367.614218 222.189829 
L 367.939197 223.995202 
L 368.264177 222.189829 
L 368.914136 222.189829 
L 369.239115 223.995202 
L 369.564095 222.189829 
L 369.889075 223.995202 
L 370.214054 222.189829 
L 370.539034 223.995202 
L 371.188993 223.995202 
L 371.513972 222.189829 
L 371.838952 222.189829 
L 372.163931 218.579082 
L 372.488911 216.773709 
L 373.788829 195.109232 
L 374.113808 193.303859 
L 374.438788 195.109232 
L 374.763767 195.109232 
L 375.088747 193.303859 
L 375.413726 187.887739 
L 376.063686 169.834008 
L 376.388665 169.834008 
L 376.713645 173.444754 
L 377.038624 178.860874 
L 377.363604 177.0555 
L 378.338542 148.16953 
L 378.663522 148.16953 
L 379.313481 162.612515 
L 379.63846 157.196396 
L 380.288419 137.337291 
L 380.613399 135.531918 
L 380.938378 139.142665 
L 381.263358 144.558784 
L 381.588337 142.753411 
L 382.238296 131.921172 
L 382.563276 131.921172 
L 382.888256 135.531918 
L 383.213235 137.337291 
L 383.538215 133.726545 
L 383.863194 124.699679 
L 384.188174 124.699679 
L 384.513153 126.505053 
L 384.838133 133.726545 
L 385.163112 133.726545 
L 385.813071 122.894306 
L 386.138051 121.088933 
L 386.46303 126.505053 
L 386.78801 126.505053 
L 387.112989 130.115799 
L 387.437969 126.505053 
L 387.762948 124.699679 
L 388.087928 126.505053 
L 388.412907 126.505053 
L 388.737887 130.115799 
L 389.062867 124.699679 
L 389.387846 122.894306 
L 389.712826 122.894306 
L 390.362785 131.921172 
L 390.687764 131.921172 
L 391.012744 130.115799 
L 391.337723 124.699679 
L 391.987682 128.310426 
L 392.312662 133.726545 
L 392.962621 130.115799 
L 393.61258 130.115799 
L 393.937559 133.726545 
L 394.262539 133.726545 
L 394.912498 130.115799 
L 395.237477 131.921172 
L 395.562457 131.921172 
L 395.887437 137.337291 
L 396.212416 137.337291 
L 396.537396 133.726545 
L 397.187355 130.115799 
L 397.512334 133.726545 
L 398.162293 137.337291 
L 398.487273 135.531918 
L 398.487273 135.531918 
" clip-path="url(#pb30cf303b9)" style="fill: none; stroke: #1f77b4; stroke-width: 1.5; stroke-linecap: square"/>
   </g>
   <g id="line2d_13">
    <path d="M 73.832727 130.115799 
L 74.157707 131.921172 
L 74.482686 130.115799 
L 74.807666 130.115799 
L 75.132645 126.505053 
L 76.432563 126.505053 
L 76.757543 124.699679 
L 77.082523 126.505053 
L 77.407502 126.505053 
L 78.382441 121.088933 
L 78.70742 122.894306 
L 79.0324 122.894306 
L 79.357379 121.088933 
L 79.682359 122.894306 
L 80.007338 119.28356 
L 80.332318 121.088933 
L 80.657297 119.28356 
L 80.982277 119.28356 
L 81.632236 122.894306 
L 82.932154 122.894306 
L 83.257133 121.088933 
L 83.582113 122.894306 
L 83.907093 122.894306 
L 84.232072 126.505053 
L 84.557052 126.505053 
L 85.207011 130.115799 
L 85.85697 130.115799 
L 86.506929 133.726545 
L 86.831908 133.726545 
L 87.156888 135.531918 
L 87.481867 139.142665 
L 87.806847 140.948038 
L 88.131826 140.948038 
L 88.456806 142.753411 
L 89.106765 149.974903 
L 89.756724 149.974903 
L 90.406683 157.196396 
L 91.381622 162.612515 
L 91.706601 166.223262 
L 92.35656 169.834008 
L 92.68154 173.444754 
L 93.656478 178.860874 
L 94.306437 187.887739 
L 94.631417 187.887739 
L 95.281376 191.498485 
L 95.606355 195.109232 
L 95.931335 196.914605 
L 96.256314 200.525351 
L 96.581294 200.525351 
L 96.906274 204.136097 
L 97.231253 204.136097 
L 97.881212 207.746844 
L 98.206192 211.35759 
L 98.856151 214.968336 
L 99.50611 214.968336 
L 99.831089 218.579082 
L 100.156069 218.579082 
L 100.481048 223.995202 
L 100.806028 223.995202 
L 101.131007 225.800575 
L 101.455987 222.189829 
L 102.430925 227.605948 
L 103.080885 227.605948 
L 104.055823 222.189829 
L 104.705782 225.800575 
L 105.680721 220.384456 
L 106.0057 216.773709 
L 106.33068 216.773709 
L 106.655659 218.579082 
L 107.630598 218.579082 
L 107.955577 216.773709 
L 108.280557 216.773709 
L 108.605536 220.384456 
L 108.930516 220.384456 
L 109.580475 223.995202 
L 110.230434 220.384456 
L 110.880393 223.995202 
L 111.530352 223.995202 
L 111.855332 222.189829 
L 112.505291 222.189829 
L 112.83027 223.995202 
L 113.480229 223.995202 
L 113.805209 222.189829 
L 114.130188 223.995202 
L 114.455168 222.189829 
L 114.780147 223.995202 
L 115.105127 223.995202 
L 115.430106 222.189829 
L 116.080066 222.189829 
L 116.405045 223.995202 
L 116.730025 223.995202 
L 117.379984 220.384456 
L 117.704963 222.189829 
L 118.029943 222.189829 
L 118.354922 223.995202 
L 118.679902 223.995202 
L 119.004881 225.800575 
L 119.329861 220.384456 
L 119.65484 222.189829 
L 119.97982 222.189829 
L 120.629779 225.800575 
L 121.604717 220.384456 
L 121.929697 223.995202 
L 122.254676 222.189829 
L 122.579656 223.995202 
L 122.904636 223.995202 
L 123.229615 222.189829 
L 123.554595 222.189829 
L 124.204554 225.800575 
L 124.529533 225.800575 
L 124.854513 223.995202 
L 125.179492 223.995202 
L 125.504472 220.384456 
L 125.829451 222.189829 
L 126.154431 222.189829 
L 126.47941 223.995202 
L 128.104308 223.995202 
L 128.429287 222.189829 
L 128.754267 223.995202 
L 131.354103 223.995202 
L 131.679083 225.800575 
L 132.329042 225.800575 
L 132.654021 222.189829 
L 132.979001 223.995202 
L 133.953939 223.995202 
L 134.278919 222.189829 
L 134.928878 222.189829 
L 135.253857 223.995202 
L 136.228796 223.995202 
L 136.878755 220.384456 
L 137.203735 216.773709 
L 137.528714 214.968336 
L 138.178673 204.136097 
L 138.503653 204.136097 
L 138.828632 202.330724 
L 139.153612 196.914605 
L 139.478591 195.109232 
L 140.45353 178.860874 
L 140.778509 177.0555 
L 141.103489 178.860874 
L 141.428468 177.0555 
L 141.753448 173.444754 
L 142.078428 164.417888 
L 142.403407 160.807142 
L 142.728387 159.001769 
L 143.053366 153.58565 
L 143.378346 151.780277 
L 143.703325 153.58565 
L 144.028305 149.974903 
L 144.353284 142.753411 
L 144.678264 140.948038 
L 145.003243 142.753411 
L 145.328223 137.337291 
L 145.653202 137.337291 
L 146.303161 128.310426 
L 146.95312 131.921172 
L 147.2781 130.115799 
L 147.603079 126.505053 
L 147.928059 124.699679 
L 148.253038 119.28356 
L 148.578018 119.28356 
L 148.902998 121.088933 
L 149.227977 124.699679 
L 149.552957 124.699679 
L 149.877936 121.088933 
L 150.202916 119.28356 
L 150.527895 115.672814 
L 151.177854 119.28356 
L 151.502834 122.894306 
L 151.827813 119.28356 
L 152.152793 121.088933 
L 153.452711 121.088933 
L 153.77769 119.28356 
L 154.427649 122.894306 
L 154.752629 126.505053 
L 155.077609 128.310426 
L 155.402588 126.505053 
L 155.727568 122.894306 
L 156.052547 122.894306 
L 156.377527 126.505053 
L 156.702506 128.310426 
L 157.027486 131.921172 
L 157.352465 128.310426 
L 158.002424 128.310426 
L 158.977363 133.726545 
L 159.952301 133.726545 
L 160.277281 137.337291 
L 160.60226 135.531918 
L 160.92724 135.531918 
L 161.252219 133.726545 
L 161.902179 137.337291 
L 162.877117 137.337291 
L 163.202097 135.531918 
L 164.177035 135.531918 
L 164.502015 137.337291 
L 164.826994 137.337291 
L 165.151974 135.531918 
L 165.476953 137.337291 
L 165.801933 135.531918 
L 167.42683 135.531918 
L 167.75181 133.726545 
L 168.07679 137.337291 
L 169.376708 130.115799 
L 169.701687 133.726545 
L 170.026667 130.115799 
L 170.676626 130.115799 
L 171.001605 128.310426 
L 171.326585 124.699679 
L 171.976544 128.310426 
L 172.301523 128.310426 
L 172.951482 124.699679 
L 173.276462 124.699679 
L 173.601441 122.894306 
L 173.926421 124.699679 
L 174.2514 122.894306 
L 175.226339 122.894306 
L 175.551319 121.088933 
L 175.876298 122.894306 
L 176.201278 122.894306 
L 176.526257 121.088933 
L 177.176216 121.088933 
L 177.501196 124.699679 
L 177.826175 122.894306 
L 178.476134 122.894306 
L 178.801114 121.088933 
L 179.451073 124.699679 
L 180.101032 124.699679 
L 181.075971 130.115799 
L 181.40095 130.115799 
L 181.72593 131.921172 
L 182.050909 131.921172 
L 182.375889 135.531918 
L 183.025848 135.531918 
L 183.350827 139.142665 
L 183.675807 140.948038 
L 184.000786 140.948038 
L 184.325766 144.558784 
L 184.650745 146.364157 
L 184.975725 146.364157 
L 185.300704 149.974903 
L 185.950663 153.58565 
L 186.275643 157.196396 
L 186.600622 159.001769 
L 186.925602 159.001769 
L 187.250581 162.612515 
L 187.575561 164.417888 
L 187.900541 169.834008 
L 188.22552 169.834008 
L 188.875479 177.0555 
L 189.525438 180.666247 
L 190.175397 187.887739 
L 190.500377 189.693112 
L 191.150336 189.693112 
L 191.800295 198.719978 
L 193.100213 205.941471 
L 193.425192 205.941471 
L 193.750172 209.552217 
L 194.725111 214.968336 
L 195.37507 214.968336 
L 195.700049 218.579082 
L 196.999967 225.800575 
L 197.649926 222.189829 
L 197.974906 225.800575 
L 198.299885 227.605948 
L 198.624865 227.605948 
L 199.274824 223.995202 
L 199.599803 223.995202 
L 199.924783 225.800575 
L 200.249762 225.800575 
L 200.574742 222.189829 
L 200.899722 220.384456 
L 201.549681 220.384456 
L 202.19964 216.773709 
L 202.524619 216.773709 
L 203.174578 220.384456 
L 203.499558 218.579082 
L 204.474496 218.579082 
L 204.799476 220.384456 
L 205.124455 223.995202 
L 205.774414 220.384456 
L 206.099394 222.189829 
L 206.424373 222.189829 
L 206.749353 223.995202 
L 207.074333 222.189829 
L 207.399312 222.189829 
L 207.724292 220.384456 
L 208.049271 220.384456 
L 208.69923 223.995202 
L 209.02421 222.189829 
L 209.999148 222.189829 
L 210.324128 223.995202 
L 210.649107 222.189829 
L 211.299066 222.189829 
L 211.624046 220.384456 
L 211.949025 220.384456 
L 212.598984 223.995202 
L 213.248943 216.773709 
L 214.223882 222.189829 
L 214.873841 222.189829 
L 215.198821 220.384456 
L 215.5238 220.384456 
L 216.498739 225.800575 
L 216.823718 222.189829 
L 217.148698 222.189829 
L 217.473677 220.384456 
L 218.123636 223.995202 
L 218.448616 222.189829 
L 220.073514 222.189829 
L 220.398493 223.995202 
L 220.723473 223.995202 
L 221.048452 222.189829 
L 221.373432 222.189829 
L 221.698411 223.995202 
L 222.023391 223.995202 
L 222.34837 222.189829 
L 223.648288 222.189829 
L 223.973268 223.995202 
L 224.298247 223.995202 
L 224.623227 222.189829 
L 225.598165 222.189829 
L 225.923145 223.995202 
L 226.573104 220.384456 
L 226.898084 222.189829 
L 228.198002 222.189829 
L 228.522981 220.384456 
L 229.17294 223.995202 
L 229.49792 223.995202 
L 229.822899 222.189829 
L 230.797838 222.189829 
L 231.122817 225.800575 
L 231.447797 223.995202 
L 231.772776 223.995202 
L 232.097756 225.800575 
L 232.422735 220.384456 
L 232.747715 220.384456 
L 233.072695 218.579082 
L 233.397674 214.968336 
L 233.722654 207.746844 
L 234.372613 204.136097 
L 234.697592 200.525351 
L 235.022572 198.719978 
L 235.99751 184.276993 
L 236.32249 180.666247 
L 237.297428 175.250127 
L 237.622408 171.639381 
L 238.597346 157.196396 
L 238.922326 153.58565 
L 239.247305 151.780277 
L 239.572285 151.780277 
L 240.547224 140.948038 
L 241.522162 135.531918 
L 242.172121 128.310426 
L 242.497101 130.115799 
L 243.14706 130.115799 
L 243.472039 128.310426 
L 244.121998 119.28356 
L 244.446978 117.478187 
L 244.771957 121.088933 
L 245.096937 126.505053 
L 245.421916 122.894306 
L 245.746896 121.088933 
L 246.071876 117.478187 
L 246.396855 117.478187 
L 246.721835 119.28356 
L 248.021753 119.28356 
L 248.346732 121.088933 
L 248.671712 121.088933 
L 248.996691 122.894306 
L 249.64665 119.28356 
L 249.97163 119.28356 
L 250.296609 122.894306 
L 250.946568 126.505053 
L 251.271548 122.894306 
L 251.921507 122.894306 
L 252.246486 126.505053 
L 252.896446 130.115799 
L 253.221425 128.310426 
L 253.546405 130.115799 
L 254.196364 130.115799 
L 254.521343 128.310426 
L 254.846323 130.115799 
L 255.171302 133.726545 
L 256.146241 133.726545 
L 256.47122 135.531918 
L 257.771138 135.531918 
L 258.421097 139.142665 
L 258.746077 135.531918 
L 259.071057 135.531918 
L 259.396036 137.337291 
L 260.045995 137.337291 
L 260.370975 139.142665 
L 260.695954 137.337291 
L 261.345913 137.337291 
L 261.670893 135.531918 
L 261.995872 135.531918 
L 262.320852 137.337291 
L 262.970811 133.726545 
L 263.29579 135.531918 
L 263.62077 133.726545 
L 263.945749 133.726545 
L 264.270729 135.531918 
L 264.595708 131.921172 
L 264.920688 130.115799 
L 265.245667 130.115799 
L 265.895627 133.726545 
L 267.195545 126.505053 
L 267.520524 128.310426 
L 267.845504 128.310426 
L 268.170483 126.505053 
L 268.820442 126.505053 
L 269.145422 122.894306 
L 269.470401 124.699679 
L 269.795381 122.894306 
L 270.12036 122.894306 
L 270.44534 121.088933 
L 270.770319 122.894306 
L 271.420278 122.894306 
L 271.745258 121.088933 
L 272.070238 121.088933 
L 272.395217 119.28356 
L 272.720197 121.088933 
L 273.045176 119.28356 
L 273.695135 122.894306 
L 274.020115 122.894306 
L 274.345094 121.088933 
L 274.670074 122.894306 
L 275.320033 122.894306 
L 276.294971 128.310426 
L 276.619951 128.310426 
L 276.94493 130.115799 
L 277.594889 130.115799 
L 278.569828 135.531918 
L 278.894808 139.142665 
L 279.544767 139.142665 
L 279.869746 142.753411 
L 280.194726 144.558784 
L 280.519705 144.558784 
L 280.844685 148.16953 
L 281.169664 149.974903 
L 281.494644 153.58565 
L 282.794562 160.807142 
L 283.119541 164.417888 
L 283.7695 168.028635 
L 284.09448 171.639381 
L 284.744439 175.250127 
L 285.069419 178.860874 
L 285.719378 182.47162 
L 286.044357 186.082366 
L 286.369337 187.887739 
L 286.694316 191.498485 
L 287.019296 191.498485 
L 287.344275 195.109232 
L 287.669255 196.914605 
L 287.994234 200.525351 
L 289.619132 209.552217 
L 289.944111 213.162963 
L 290.269091 213.162963 
L 290.59407 214.968336 
L 291.244029 214.968336 
L 292.218968 225.800575 
L 292.868927 225.800575 
L 293.193907 223.995202 
L 293.518886 223.995202 
L 294.493825 229.411321 
L 295.143784 225.800575 
L 295.468763 225.800575 
L 295.793743 223.995202 
L 296.118722 225.800575 
L 296.768681 222.189829 
L 297.093661 222.189829 
L 297.74362 218.579082 
L 298.393579 218.579082 
L 298.718559 216.773709 
L 299.043538 220.384456 
L 299.368518 218.579082 
L 300.018477 218.579082 
L 300.993415 223.995202 
L 301.643374 220.384456 
L 301.968354 220.384456 
L 302.293333 223.995202 
L 302.618313 225.800575 
L 302.943292 222.189829 
L 303.268272 223.995202 
L 303.593251 222.189829 
L 303.918231 223.995202 
L 304.24321 222.189829 
L 304.56819 222.189829 
L 304.89317 223.995202 
L 305.218149 222.189829 
L 305.543129 222.189829 
L 305.868108 223.995202 
L 306.193088 223.995202 
L 306.518067 225.800575 
L 306.843047 222.189829 
L 307.168026 223.995202 
L 307.493006 222.189829 
L 307.817985 223.995202 
L 308.142965 223.995202 
L 308.467944 225.800575 
L 308.792924 222.189829 
L 309.117903 220.384456 
L 309.442883 220.384456 
L 309.767862 223.995202 
L 310.417821 223.995202 
L 310.742801 222.189829 
L 311.39276 222.189829 
L 312.042719 225.800575 
L 312.367699 225.800575 
L 313.342637 220.384456 
L 313.667617 220.384456 
L 313.992596 223.995202 
L 314.317576 225.800575 
L 314.642555 222.189829 
L 314.967535 220.384456 
L 315.292514 222.189829 
L 316.267453 222.189829 
L 316.592432 223.995202 
L 317.242391 223.995202 
L 317.567371 225.800575 
L 317.892351 225.800575 
L 318.54231 222.189829 
L 318.867289 222.189829 
L 319.192269 223.995202 
L 320.817166 223.995202 
L 321.142146 222.189829 
L 321.467125 222.189829 
L 321.792105 223.995202 
L 322.117084 223.995202 
L 322.442064 222.189829 
L 322.767043 222.189829 
L 323.092023 223.995202 
L 323.417002 223.995202 
L 323.741982 222.189829 
L 324.066962 223.995202 
L 324.391941 222.189829 
L 324.716921 225.800575 
L 325.0419 225.800575 
L 325.36688 223.995202 
L 325.691859 223.995202 
L 326.016839 222.189829 
L 326.341818 222.189829 
L 326.991777 225.800575 
L 327.316757 223.995202 
L 327.641736 225.800575 
L 327.966716 223.995202 
L 328.291695 223.995202 
L 328.616675 222.189829 
L 328.941654 218.579082 
L 329.591613 207.746844 
L 330.241572 204.136097 
L 330.566552 200.525351 
L 330.891532 198.719978 
L 331.216511 195.109232 
L 331.541491 187.887739 
L 332.19145 180.666247 
L 333.166388 175.250127 
L 333.491368 171.639381 
L 334.466306 157.196396 
L 334.791286 155.391023 
L 335.116265 151.780277 
L 335.766224 148.16953 
L 336.416183 140.948038 
L 336.741163 139.142665 
L 337.066143 139.142665 
L 337.391122 135.531918 
L 337.716102 133.726545 
L 338.041081 130.115799 
L 338.366061 128.310426 
L 338.69104 131.921172 
L 339.01602 131.921172 
L 339.665979 122.894306 
L 339.990958 119.28356 
L 340.315938 119.28356 
L 340.640917 122.894306 
L 340.965897 124.699679 
L 341.290876 124.699679 
L 341.615856 122.894306 
L 342.265815 115.672814 
L 342.915774 119.28356 
L 343.565733 119.28356 
L 343.890713 121.088933 
L 344.540672 121.088933 
L 344.865651 119.28356 
L 345.190631 119.28356 
L 345.51561 121.088933 
L 345.84059 121.088933 
L 346.165569 122.894306 
L 346.490549 126.505053 
L 346.815528 126.505053 
L 347.140508 122.894306 
L 347.465487 121.088933 
L 347.790467 126.505053 
L 348.115446 126.505053 
L 348.765405 130.115799 
L 349.090385 130.115799 
L 349.415364 128.310426 
L 349.740344 128.310426 
L 350.390303 131.921172 
L 351.040262 131.921172 
L 351.365242 133.726545 
L 351.690221 133.726545 
L 352.015201 135.531918 
L 352.34018 133.726545 
L 352.66516 133.726545 
L 352.990139 135.531918 
L 353.315119 133.726545 
L 353.640098 135.531918 
L 353.965078 139.142665 
L 354.290057 139.142665 
L 354.940016 135.531918 
L 355.264996 137.337291 
L 355.589975 135.531918 
L 355.914955 137.337291 
L 356.889894 137.337291 
L 357.539853 133.726545 
L 358.189812 137.337291 
L 358.839771 133.726545 
L 359.16475 135.531918 
L 359.48973 133.726545 
L 360.464668 133.726545 
L 361.114627 130.115799 
L 361.439607 130.115799 
L 361.764586 131.921172 
L 362.089566 131.921172 
L 362.414545 128.310426 
L 362.739525 126.505053 
L 363.389484 126.505053 
L 363.714464 124.699679 
L 364.039443 126.505053 
L 364.364423 126.505053 
L 365.014382 122.894306 
L 365.98932 122.894306 
L 366.3143 121.088933 
L 366.639279 122.894306 
L 366.964259 121.088933 
L 367.289238 122.894306 
L 367.939197 119.28356 
L 368.589156 122.894306 
L 368.914136 119.28356 
L 369.239115 122.894306 
L 370.214054 122.894306 
L 370.539034 121.088933 
L 370.864013 122.894306 
L 371.188993 122.894306 
L 371.513972 126.505053 
L 372.163931 126.505053 
L 372.488911 128.310426 
L 373.13887 128.310426 
L 374.113808 133.726545 
L 374.438788 137.337291 
L 374.763767 137.337291 
L 375.088747 140.948038 
L 375.413726 140.948038 
L 376.388665 146.364157 
L 376.713645 149.974903 
L 377.038624 151.780277 
L 377.363604 151.780277 
L 377.688583 157.196396 
L 378.338542 157.196396 
L 378.988501 164.417888 
L 379.313481 166.223262 
L 379.96344 173.444754 
L 380.288419 175.250127 
L 380.613399 175.250127 
L 380.938378 177.0555 
L 381.263358 180.666247 
L 381.913317 189.693112 
L 382.563276 189.693112 
L 382.888256 193.303859 
L 383.538215 196.914605 
L 383.863194 200.525351 
L 384.513153 204.136097 
L 384.838133 204.136097 
L 385.163112 205.941471 
L 385.488092 209.552217 
L 386.46303 214.968336 
L 386.78801 214.968336 
L 387.762948 220.384456 
L 388.087928 223.995202 
L 389.062867 223.995202 
L 389.387846 225.800575 
L 389.712826 225.800575 
L 390.037805 227.605948 
L 390.687764 227.605948 
L 391.337723 223.995202 
L 391.662703 223.995202 
L 391.987682 222.189829 
L 392.312662 223.995202 
L 392.962621 220.384456 
L 393.2876 220.384456 
L 393.937559 216.773709 
L 394.262539 218.579082 
L 394.587518 218.579082 
L 394.912498 216.773709 
L 395.237477 218.579082 
L 395.562457 216.773709 
L 395.887437 218.579082 
L 396.212416 216.773709 
L 396.537396 218.579082 
L 396.862375 222.189829 
L 397.187355 220.384456 
L 397.512334 222.189829 
L 397.837314 220.384456 
L 398.162293 220.384456 
L 398.487273 223.995202 
L 398.487273 223.995202 
" clip-path="url(#pb30cf303b9)" style="fill: none; stroke: #ff7f0e; stroke-width: 1.5; stroke-linecap: square"/>
   </g>
   <g id="line2d_14">
    <path d="M 73.832727 114.950687 
L 74.157707 114.950687 
L 74.807666 133.004418 
L 75.132645 140.22591 
L 75.457625 136.615164 
L 75.782604 143.836657 
L 76.107584 147.447403 
L 76.432563 158.279642 
L 76.757543 158.279642 
L 77.082523 161.890388 
L 77.732482 179.944119 
L 78.057461 176.333373 
L 78.70742 194.387104 
L 79.0324 197.997851 
L 79.357379 197.997851 
L 79.682359 205.219343 
L 80.007338 208.83009 
L 80.332318 216.051582 
L 80.657297 216.051582 
L 80.982277 226.883821 
L 81.307256 226.883821 
L 81.957215 241.326806 
L 82.282195 241.326806 
L 82.607174 248.548299 
L 82.932154 252.159045 
L 83.582113 252.159045 
L 83.907093 262.991284 
L 84.232072 266.60203 
L 84.557052 266.60203 
L 84.882031 273.823522 
L 85.207011 273.823522 
L 85.53199 277.434269 
L 85.85697 273.823522 
L 86.181949 281.045015 
L 86.506929 281.045015 
L 86.831908 284.655761 
L 87.481867 284.655761 
L 88.131826 291.877254 
L 88.456806 288.266507 
L 88.781785 288.266507 
L 89.106765 291.877254 
L 89.431744 291.877254 
L 89.756724 288.266507 
L 90.081704 291.877254 
L 90.731663 291.877254 
L 91.056642 284.655761 
L 91.381622 291.877254 
L 91.706601 288.266507 
L 92.031581 288.266507 
L 92.35656 284.655761 
L 92.68154 284.655761 
L 93.006519 281.045015 
L 93.331499 281.045015 
L 93.656478 273.823522 
L 93.981458 273.823522 
L 94.306437 270.212776 
L 94.631417 270.212776 
L 94.956396 266.60203 
L 95.281376 266.60203 
L 95.931335 259.380537 
L 96.256314 248.548299 
L 96.581294 252.159045 
L 96.906274 244.937552 
L 97.231253 244.937552 
L 97.556233 237.71606 
L 97.881212 234.105313 
L 98.206192 226.883821 
L 99.831089 208.83009 
L 100.156069 201.608597 
L 100.806028 194.387104 
L 101.455987 179.944119 
L 101.780966 179.944119 
L 102.105946 172.722627 
L 102.430925 172.722627 
L 102.755905 161.890388 
L 103.080885 165.501134 
L 103.405864 158.279642 
L 103.730844 154.668896 
L 104.380803 136.615164 
L 104.705782 136.615164 
L 105.030762 129.393672 
L 105.355741 129.393672 
L 105.680721 125.782925 
L 106.0057 118.561433 
L 106.33068 114.950687 
L 106.655659 107.729194 
L 106.980639 107.729194 
L 107.305618 100.507701 
L 107.630598 104.118448 
L 107.955577 96.896955 
L 108.280557 93.286209 
L 108.605536 93.286209 
L 108.930516 89.675463 
L 109.255495 82.45397 
L 109.580475 82.45397 
L 110.555414 71.621731 
L 111.530352 71.621731 
L 111.855332 64.400239 
L 112.180311 64.400239 
L 112.505291 60.789493 
L 112.83027 68.010985 
L 113.15525 64.400239 
L 113.805209 64.400239 
L 114.130188 68.010985 
L 114.780147 60.789493 
L 115.105127 68.010985 
L 115.430106 64.400239 
L 115.755086 64.400239 
L 116.080066 68.010985 
L 116.405045 68.010985 
L 116.730025 75.232478 
L 117.055004 68.010985 
L 117.379984 75.232478 
L 117.704963 78.843224 
L 118.029943 86.064716 
L 118.354922 82.45397 
L 119.004881 89.675463 
L 119.329861 96.896955 
L 119.65484 93.286209 
L 119.97982 100.507701 
L 120.629779 107.729194 
L 120.954758 104.118448 
L 121.279738 111.33994 
L 121.604717 114.950687 
L 121.929697 122.172179 
L 122.254676 122.172179 
L 122.579656 129.393672 
L 123.229615 136.615164 
L 123.554595 143.836657 
L 124.204554 151.058149 
L 124.529533 161.890388 
L 124.854513 158.279642 
L 125.504472 172.722627 
L 126.154431 179.944119 
L 126.47941 187.165612 
L 126.80439 190.776358 
L 127.129369 197.997851 
L 127.454349 197.997851 
L 127.779328 205.219343 
L 128.104308 208.83009 
L 128.429287 216.051582 
L 128.754267 216.051582 
L 129.079247 223.273075 
L 129.729206 230.494567 
L 130.054185 230.494567 
L 130.379165 237.71606 
L 131.029124 244.937552 
L 131.354103 244.937552 
L 131.679083 252.159045 
L 132.004062 255.769791 
L 132.329042 262.991284 
L 132.654021 259.380537 
L 132.979001 266.60203 
L 133.30398 270.212776 
L 133.62896 270.212776 
L 133.953939 273.823522 
L 134.278919 273.823522 
L 134.928878 281.045015 
L 135.253857 277.434269 
L 135.903817 284.655761 
L 136.228796 284.655761 
L 136.553776 281.045015 
L 136.878755 284.655761 
L 137.853694 284.655761 
L 138.178673 288.266507 
L 138.503653 288.266507 
L 138.828632 284.655761 
L 139.153612 284.655761 
L 139.478591 281.045015 
L 139.803571 281.045015 
L 140.12855 284.655761 
L 140.45353 277.434269 
L 140.778509 277.434269 
L 141.103489 281.045015 
L 141.428468 277.434269 
L 141.753448 270.212776 
L 142.403407 270.212776 
L 142.728387 266.60203 
L 143.053366 259.380537 
L 143.378346 262.991284 
L 143.703325 255.769791 
L 144.028305 255.769791 
L 144.353284 252.159045 
L 144.678264 244.937552 
L 145.003243 244.937552 
L 145.328223 241.326806 
L 145.653202 234.105313 
L 146.628141 223.273075 
L 146.95312 216.051582 
L 147.2781 212.440836 
L 147.603079 205.219343 
L 147.928059 205.219343 
L 148.253038 190.776358 
L 148.578018 194.387104 
L 148.902998 183.554866 
L 149.227977 187.165612 
L 150.202916 165.501134 
L 150.527895 165.501134 
L 150.852875 154.668896 
L 151.177854 151.058149 
L 151.502834 151.058149 
L 151.827813 143.836657 
L 152.152793 133.004418 
L 152.477772 133.004418 
L 152.802752 129.393672 
L 153.452711 114.950687 
L 153.77769 114.950687 
L 154.10267 111.33994 
L 154.427649 111.33994 
L 154.752629 100.507701 
L 155.077609 96.896955 
L 155.727568 96.896955 
L 156.052547 86.064716 
L 156.377527 82.45397 
L 156.702506 86.064716 
L 157.027486 78.843224 
L 157.352465 75.232478 
L 157.677445 75.232478 
L 158.002424 68.010985 
L 158.327404 68.010985 
L 158.652383 64.400239 
L 158.977363 68.010985 
L 159.302342 68.010985 
L 160.277281 57.178746 
L 160.60226 60.789493 
L 160.92724 60.789493 
L 161.252219 57.178746 
L 161.902179 57.178746 
L 162.227158 53.568 
L 162.552138 53.568 
L 162.877117 57.178746 
L 163.202097 57.178746 
L 163.527076 60.789493 
L 163.852056 60.789493 
L 164.177035 64.400239 
L 164.502015 64.400239 
L 165.151974 71.621731 
L 165.476953 71.621731 
L 166.126912 78.843224 
L 166.451892 75.232478 
L 166.776871 82.45397 
L 167.101851 86.064716 
L 167.42683 86.064716 
L 167.75181 89.675463 
L 168.07679 96.896955 
L 168.726749 104.118448 
L 169.051728 104.118448 
L 169.376708 114.950687 
L 170.351646 125.782925 
L 171.001605 140.22591 
L 171.651564 140.22591 
L 171.976544 147.447403 
L 172.301523 158.279642 
L 172.626503 158.279642 
L 172.951482 161.890388 
L 173.926421 183.554866 
L 174.2514 183.554866 
L 174.57638 190.776358 
L 174.90136 194.387104 
L 175.226339 205.219343 
L 175.551319 205.219343 
L 176.201278 219.662328 
L 176.526257 223.273075 
L 176.851237 223.273075 
L 177.176216 230.494567 
L 177.501196 230.494567 
L 177.826175 237.71606 
L 178.151155 237.71606 
L 178.476134 248.548299 
L 179.126093 255.769791 
L 179.451073 252.159045 
L 179.776052 262.991284 
L 180.101032 262.991284 
L 181.40095 277.434269 
L 181.72593 277.434269 
L 182.050909 273.823522 
L 182.375889 281.045015 
L 182.700868 284.655761 
L 183.350827 284.655761 
L 184.000786 291.877254 
L 184.325766 291.877254 
L 184.650745 288.266507 
L 184.975725 291.877254 
L 185.625684 291.877254 
L 185.950663 295.488 
L 186.275643 288.266507 
L 186.600622 291.877254 
L 186.925602 291.877254 
L 187.250581 284.655761 
L 187.575561 284.655761 
L 187.900541 288.266507 
L 188.875479 277.434269 
L 189.200459 281.045015 
L 189.525438 277.434269 
L 189.850418 270.212776 
L 190.175397 273.823522 
L 190.500377 270.212776 
L 190.825356 270.212776 
L 191.150336 266.60203 
L 191.475315 259.380537 
L 191.800295 255.769791 
L 192.125274 255.769791 
L 192.450254 248.548299 
L 192.775233 248.548299 
L 193.100213 244.937552 
L 193.425192 237.71606 
L 194.725111 223.273075 
L 195.05009 212.440836 
L 195.37507 212.440836 
L 195.700049 208.83009 
L 196.025029 201.608597 
L 197.324947 187.165612 
L 197.649926 176.333373 
L 198.299885 169.111881 
L 198.624865 161.890388 
L 199.924783 147.447403 
L 200.249762 136.615164 
L 200.574742 136.615164 
L 201.549681 125.782925 
L 201.87466 118.561433 
L 202.19964 114.950687 
L 202.524619 107.729194 
L 202.849599 104.118448 
L 203.174578 107.729194 
L 203.499558 104.118448 
L 204.149517 89.675463 
L 204.799476 89.675463 
L 205.124455 86.064716 
L 205.449435 78.843224 
L 205.774414 78.843224 
L 206.099394 71.621731 
L 206.424373 75.232478 
L 206.749353 71.621731 
L 207.074333 71.621731 
L 207.399312 68.010985 
L 207.724292 68.010985 
L 208.049271 60.789493 
L 208.374251 60.789493 
L 208.69923 64.400239 
L 209.02421 60.789493 
L 209.349189 60.789493 
L 209.674169 64.400239 
L 210.324128 64.400239 
L 210.649107 60.789493 
L 210.974087 64.400239 
L 211.299066 64.400239 
L 211.624046 68.010985 
L 212.598984 68.010985 
L 212.923964 71.621731 
L 213.573923 71.621731 
L 213.898903 78.843224 
L 214.223882 82.45397 
L 214.548862 82.45397 
L 214.873841 89.675463 
L 215.198821 89.675463 
L 216.498739 104.118448 
L 216.823718 111.33994 
L 217.148698 111.33994 
L 217.473677 114.950687 
L 218.123636 129.393672 
L 218.448616 125.782925 
L 219.098575 140.22591 
L 219.423554 140.22591 
L 219.748534 143.836657 
L 220.398493 158.279642 
L 221.048452 158.279642 
L 221.373432 169.111881 
L 221.698411 172.722627 
L 222.023391 183.554866 
L 222.34837 187.165612 
L 222.67335 194.387104 
L 222.998329 194.387104 
L 223.323309 201.608597 
L 223.648288 201.608597 
L 224.298247 216.051582 
L 224.623227 216.051582 
L 224.948206 219.662328 
L 225.273186 226.883821 
L 225.598165 226.883821 
L 225.923145 234.105313 
L 226.248124 234.105313 
L 226.573104 241.326806 
L 227.548043 252.159045 
L 227.873022 252.159045 
L 228.198002 262.991284 
L 228.522981 266.60203 
L 228.847961 262.991284 
L 229.49792 270.212776 
L 230.147879 270.212776 
L 230.472858 277.434269 
L 230.797838 277.434269 
L 231.122817 281.045015 
L 231.447797 273.823522 
L 231.772776 284.655761 
L 233.072695 284.655761 
L 233.397674 288.266507 
L 233.722654 288.266507 
L 234.372613 281.045015 
L 234.697592 284.655761 
L 235.672531 284.655761 
L 235.99751 281.045015 
L 236.32249 284.655761 
L 236.647469 273.823522 
L 236.972449 277.434269 
L 237.297428 273.823522 
L 237.947387 273.823522 
L 238.922326 262.991284 
L 239.247305 255.769791 
L 239.897265 255.769791 
L 240.222244 252.159045 
L 240.547224 244.937552 
L 241.522162 234.105313 
L 241.847142 226.883821 
L 242.172121 226.883821 
L 242.497101 219.662328 
L 243.472039 208.83009 
L 243.797019 201.608597 
L 244.121998 197.997851 
L 244.446978 190.776358 
L 244.771957 187.165612 
L 245.096937 187.165612 
L 245.421916 179.944119 
L 245.746896 169.111881 
L 246.071876 172.722627 
L 246.396855 161.890388 
L 246.721835 158.279642 
L 247.046814 151.058149 
L 247.371794 151.058149 
L 248.021753 136.615164 
L 248.671712 129.393672 
L 248.996691 129.393672 
L 249.321671 122.172179 
L 249.64665 111.33994 
L 249.97163 107.729194 
L 250.296609 107.729194 
L 250.621589 100.507701 
L 250.946568 96.896955 
L 251.271548 96.896955 
L 251.921507 89.675463 
L 252.246486 78.843224 
L 252.571466 82.45397 
L 252.896446 78.843224 
L 253.221425 78.843224 
L 253.546405 71.621731 
L 254.196364 64.400239 
L 254.521343 68.010985 
L 254.846323 60.789493 
L 255.821261 60.789493 
L 256.146241 53.568 
L 256.47122 57.178746 
L 256.7962 57.178746 
L 257.121179 60.789493 
L 257.446159 53.568 
L 257.771138 57.178746 
L 258.096118 57.178746 
L 258.421097 60.789493 
L 259.396036 60.789493 
L 259.721016 64.400239 
L 260.045995 60.789493 
L 260.370975 60.789493 
L 260.695954 68.010985 
L 261.345913 68.010985 
L 261.670893 75.232478 
L 261.995872 75.232478 
L 262.320852 82.45397 
L 262.645831 78.843224 
L 262.970811 86.064716 
L 263.29579 89.675463 
L 263.62077 96.896955 
L 263.945749 96.896955 
L 264.270729 104.118448 
L 264.595708 104.118448 
L 264.920688 111.33994 
L 265.245667 111.33994 
L 265.895627 125.782925 
L 266.220606 129.393672 
L 266.545586 129.393672 
L 266.870565 136.615164 
L 267.195545 140.22591 
L 267.520524 147.447403 
L 267.845504 147.447403 
L 268.170483 158.279642 
L 269.145422 169.111881 
L 270.12036 190.776358 
L 270.44534 190.776358 
L 270.770319 194.387104 
L 271.095299 205.219343 
L 271.420278 205.219343 
L 271.745258 208.83009 
L 272.070238 216.051582 
L 272.395217 219.662328 
L 272.720197 226.883821 
L 273.045176 223.273075 
L 273.370156 237.71606 
L 273.695135 237.71606 
L 274.020115 244.937552 
L 274.345094 248.548299 
L 274.670074 248.548299 
L 274.995053 255.769791 
L 275.320033 259.380537 
L 275.645012 259.380537 
L 275.969992 266.60203 
L 276.294971 266.60203 
L 276.619951 270.212776 
L 276.94493 270.212776 
L 277.26991 273.823522 
L 277.594889 281.045015 
L 277.919869 281.045015 
L 278.244848 273.823522 
L 278.569828 281.045015 
L 279.219787 288.266507 
L 280.194726 288.266507 
L 280.519705 295.488 
L 280.844685 288.266507 
L 281.169664 288.266507 
L 281.494644 295.488 
L 282.144603 288.266507 
L 282.469582 291.877254 
L 282.794562 288.266507 
L 283.119541 288.266507 
L 283.444521 284.655761 
L 283.7695 288.266507 
L 284.419459 281.045015 
L 284.744439 284.655761 
L 285.069419 281.045015 
L 285.394398 281.045015 
L 285.719378 277.434269 
L 286.044357 270.212776 
L 286.369337 266.60203 
L 286.694316 266.60203 
L 287.994234 252.159045 
L 288.319214 252.159045 
L 288.644193 241.326806 
L 288.969173 244.937552 
L 289.294152 237.71606 
L 290.269091 226.883821 
L 290.59407 219.662328 
L 290.91905 219.662328 
L 291.244029 212.440836 
L 291.569009 208.83009 
L 291.893989 201.608597 
L 292.218968 197.997851 
L 292.543948 190.776358 
L 292.868927 190.776358 
L 293.518886 183.554866 
L 293.843866 172.722627 
L 294.168845 169.111881 
L 294.493825 161.890388 
L 294.818804 161.890388 
L 295.143784 154.668896 
L 295.468763 154.668896 
L 296.443702 133.004418 
L 296.768681 133.004418 
L 297.093661 129.393672 
L 297.74362 114.950687 
L 298.0686 114.950687 
L 298.393579 107.729194 
L 298.718559 107.729194 
L 299.043538 100.507701 
L 299.368518 100.507701 
L 299.693497 93.286209 
L 300.018477 93.286209 
L 300.343456 86.064716 
L 301.318395 86.064716 
L 301.643374 71.621731 
L 301.968354 75.232478 
L 302.293333 75.232478 
L 302.943292 68.010985 
L 303.918231 68.010985 
L 304.24321 64.400239 
L 304.56819 64.400239 
L 304.89317 60.789493 
L 305.543129 68.010985 
L 305.868108 64.400239 
L 306.518067 64.400239 
L 306.843047 60.789493 
L 307.168026 68.010985 
L 307.493006 71.621731 
L 307.817985 68.010985 
L 308.142965 68.010985 
L 308.467944 75.232478 
L 308.792924 71.621731 
L 309.117903 78.843224 
L 309.442883 75.232478 
L 309.767862 82.45397 
L 310.092842 82.45397 
L 310.417821 89.675463 
L 310.742801 89.675463 
L 311.067781 93.286209 
L 311.39276 93.286209 
L 311.71774 100.507701 
L 312.042719 100.507701 
L 312.367699 104.118448 
L 312.692678 111.33994 
L 313.017658 111.33994 
L 313.342637 114.950687 
L 313.667617 122.172179 
L 313.992596 125.782925 
L 314.317576 133.004418 
L 314.642555 129.393672 
L 314.967535 140.22591 
L 315.617494 147.447403 
L 316.267453 161.890388 
L 316.592432 161.890388 
L 316.917412 165.501134 
L 317.242391 165.501134 
L 317.567371 172.722627 
L 317.892351 187.165612 
L 318.21733 187.165612 
L 318.867289 194.387104 
L 319.192269 201.608597 
L 319.517248 205.219343 
L 319.842228 205.219343 
L 320.167207 216.051582 
L 320.492187 216.051582 
L 320.817166 223.273075 
L 321.467125 230.494567 
L 321.792105 237.71606 
L 322.117084 237.71606 
L 322.442064 241.326806 
L 322.767043 248.548299 
L 323.417002 255.769791 
L 323.741982 255.769791 
L 324.716921 266.60203 
L 325.0419 266.60203 
L 325.36688 270.212776 
L 325.691859 270.212776 
L 326.016839 277.434269 
L 326.666798 277.434269 
L 327.316757 284.655761 
L 327.641736 281.045015 
L 328.291695 288.266507 
L 328.616675 288.266507 
L 328.941654 284.655761 
L 329.266634 288.266507 
L 329.591613 288.266507 
L 329.916593 284.655761 
L 330.241572 284.655761 
L 330.566552 288.266507 
L 331.216511 288.266507 
L 331.541491 281.045015 
L 332.19145 281.045015 
L 332.516429 284.655761 
L 332.841409 273.823522 
L 333.491368 273.823522 
L 334.466306 262.991284 
L 334.791286 262.991284 
L 336.091204 248.548299 
L 336.416183 248.548299 
L 336.741163 244.937552 
L 337.066143 237.71606 
L 337.391122 234.105313 
L 337.716102 234.105313 
L 338.041081 223.273075 
L 338.366061 219.662328 
L 338.69104 219.662328 
L 339.340999 205.219343 
L 339.665979 205.219343 
L 339.990958 197.997851 
L 340.315938 197.997851 
L 340.640917 183.554866 
L 340.965897 183.554866 
L 341.290876 176.333373 
L 341.615856 176.333373 
L 341.940835 165.501134 
L 342.265815 165.501134 
L 342.590794 161.890388 
L 342.915774 154.668896 
L 343.240753 143.836657 
L 343.565733 140.22591 
L 343.890713 140.22591 
L 344.540672 125.782925 
L 344.865651 125.782925 
L 345.190631 118.561433 
L 345.51561 118.561433 
L 345.84059 107.729194 
L 346.165569 111.33994 
L 346.490549 100.507701 
L 346.815528 104.118448 
L 347.465487 89.675463 
L 347.790467 86.064716 
L 348.115446 89.675463 
L 348.440426 82.45397 
L 348.765405 78.843224 
L 349.090385 78.843224 
L 349.740344 71.621731 
L 350.390303 71.621731 
L 350.715283 68.010985 
L 351.040262 60.789493 
L 351.365242 60.789493 
L 351.690221 57.178746 
L 352.015201 60.789493 
L 353.315119 60.789493 
L 353.640098 53.568 
L 354.290057 60.789493 
L 354.615037 57.178746 
L 355.264996 57.178746 
L 355.914955 64.400239 
L 356.239934 60.789493 
L 356.564914 68.010985 
L 356.889894 68.010985 
L 357.214873 75.232478 
L 357.864832 75.232478 
L 358.189812 78.843224 
L 358.514791 86.064716 
L 358.839771 86.064716 
L 359.16475 89.675463 
L 359.48973 96.896955 
L 359.814709 93.286209 
L 360.139689 96.896955 
L 360.464668 104.118448 
L 360.789648 107.729194 
L 361.114627 114.950687 
L 361.439607 111.33994 
L 361.764586 122.172179 
L 362.089566 125.782925 
L 362.414545 133.004418 
L 363.389484 143.836657 
L 363.714464 151.058149 
L 364.364423 158.279642 
L 365.014382 172.722627 
L 365.339361 176.333373 
L 365.664341 183.554866 
L 366.3143 190.776358 
L 366.639279 190.776358 
L 366.964259 201.608597 
L 367.289238 205.219343 
L 367.614218 212.440836 
L 368.264177 219.662328 
L 368.589156 226.883821 
L 368.914136 230.494567 
L 369.564095 230.494567 
L 369.889075 244.937552 
L 370.214054 248.548299 
L 370.539034 244.937552 
L 371.513972 266.60203 
L 371.838952 259.380537 
L 372.163931 266.60203 
L 372.81389 273.823522 
L 373.13887 273.823522 
L 374.113808 284.655761 
L 374.438788 281.045015 
L 374.763767 281.045015 
L 375.088747 288.266507 
L 375.413726 284.655761 
L 375.738706 284.655761 
L 376.388665 291.877254 
L 376.713645 288.266507 
L 377.688583 288.266507 
L 378.013563 291.877254 
L 378.338542 291.877254 
L 378.663522 288.266507 
L 379.313481 288.266507 
L 379.63846 284.655761 
L 380.288419 284.655761 
L 380.938378 277.434269 
L 381.588337 277.434269 
L 381.913317 273.823522 
L 382.238296 266.60203 
L 382.563276 270.212776 
L 382.888256 262.991284 
L 383.213235 259.380537 
L 383.538215 259.380537 
L 383.863194 252.159045 
L 384.188174 248.548299 
L 384.513153 248.548299 
L 384.838133 237.71606 
L 385.163112 237.71606 
L 385.813071 230.494567 
L 386.138051 223.273075 
L 386.46303 219.662328 
L 386.78801 219.662328 
L 387.112989 216.051582 
L 387.437969 205.219343 
L 387.762948 205.219343 
L 388.087928 197.997851 
L 388.412907 194.387104 
L 388.737887 187.165612 
L 389.712826 176.333373 
L 390.037805 165.501134 
L 391.012744 154.668896 
L 391.337723 147.447403 
L 391.662703 147.447403 
L 391.987682 140.22591 
L 392.312662 140.22591 
L 392.637641 129.393672 
L 392.962621 129.393672 
L 393.2876 125.782925 
L 393.61258 118.561433 
L 393.937559 118.561433 
L 394.262539 111.33994 
L 394.587518 111.33994 
L 394.912498 104.118448 
L 395.562457 96.896955 
L 395.887437 96.896955 
L 396.537396 82.45397 
L 396.862375 89.675463 
L 397.512334 82.45397 
L 397.837314 75.232478 
L 398.487273 75.232478 
L 398.487273 75.232478 
" clip-path="url(#pb30cf303b9)" style="fill: none; stroke: #2ca02c; stroke-width: 1.5; stroke-linecap: square"/>
   </g>
   <g id="patch_3">
    <path d="M 57.6 307.584 
L 57.6 41.472 
" style="fill: none; stroke: #000000; stroke-width: 0.8; stroke-linejoin: miter; stroke-linecap: square"/>
   </g>
   <g id="patch_4">
    <path d="M 414.72 307.584 
L 414.72 41.472 
" style="fill: none; stroke: #000000; stroke-width: 0.8; stroke-linejoin: miter; stroke-linecap: square"/>
   </g>
   <g id="patch_5">
    <path d="M 57.6 307.584 
L 414.72 307.584 
" style="fill: none; stroke: #000000; stroke-width: 0.8; stroke-linejoin: miter; stroke-linecap: square"/>
   </g>
   <g id="patch_6">
    <path d="M 57.6 41.472 
L 414.72 41.472 
" style="fill: none; stroke: #000000; stroke-width: 0.8; stroke-linejoin: miter; stroke-linecap: square"/>
   </g>
  </g>
 </g>
 <defs>
  <clipPath id="pb30cf303b9">
   <rect x="57.6" y="41.472" width="357.12" height="266.112"/>
  </clipPath>
 </defs>
</svg>
