<?xml version="1.0" encoding="utf-8" standalone="no"?>
<!DOCTYPE svg PUBLIC "-//W3C//DTD SVG 1.1//EN"
  "http://www.w3.org/Graphics/SVG/1.1/DTD/svg11.dtd">
<svg xmlns:xlink="http://www.w3.org/1999/xlink" width="460.8pt" height="345.6pt" viewBox="0 0 460.8 345.6" xmlns="http://www.w3.org/2000/svg" version="1.1">
 <metadata>
  <rdf:RDF xmlns:dc="http://purl.org/dc/elements/1.1/" xmlns:cc="http://creativecommons.org/ns#" xmlns:rdf="http://www.w3.org/1999/02/22-rdf-syntax-ns#">
   <cc:Work>
    <dc:type rdf:resource="http://purl.org/dc/dcmitype/StillImage"/>
    <dc:date>2025-12-31T14:32:48.604200</dc:date>
    <dc:format>image/svg+xml</dc:format>
    <dc:creator>
     <cc:Agent>
      <dc:title>Matplotlib v3.10.8, https://matplotlib.org/</dc:title>
     </cc:Agent>
    </dc:creator>
   </cc:Work>
  </rdf:RDF>
 </metadata>
 <defs>
  <style type="text/css">*{stroke-linejoin: round; stroke-linecap: butt}</style>
 </defs>
 <g id="figure_1">
  <g id="patch_1">
   <path d="M 0 345.6 
L 460.8 345.6 
L 460.8 0 
L 0 0 
z
" style="fill: #ffffff"/>
  </g>
  <g id="axes_1">
   <g id="patch_2">
    <path d="M 57.6 307.584 
L 414.72 307.584 
L 414.72 41.472 
L 57.6 41.472 
z
" style="fill: #ffffff"/>
   </g>
   <g id="matplotlib.axis_1">
    <g id="xtick_1">
     <g id="line2d_1">
      <defs>
       <path id="mf7c5e51928" d="M 0 0 
L 0 3.5 
" style="stroke: #000000; stroke-width: 0.8"/>
      </defs>
      <g>
       <use xlink:href="#mf7c5e51928" x="73.832727" y="307.584" style="stroke: #000000; stroke-width: 0.8"/>
      </g>
     </g>
     <g id="text_1">
      <!-- 0 -->
      <g transform="translate(70.651477 322.182437) scale(0.1 -0.1)">
       <defs>
        <path id="DejaVuSans-30" d="M 2034 4250 
Q 1547 4250 1301 3770 
Q 1056 3291 1056 2328 
Q 1056 1369 1301 889 
Q 1547 409 2034 409 
Q 2525 409 2770 889 
Q 3016 1369 3016 2328 
Q 3016 3291 2770 3770 
Q 2525 4250 2034 4250 
z
M 2034 4750 
Q 2819 4750 3233 4129 
Q 3647 3509 3647 2328 
Q 3647 1150 3233 529 
Q 2819 -91 2034 -91 
Q 1250 -91 836 529 
Q 422 1150 422 2328 
Q 422 3509 836 4129 
Q 1250 4750 2034 4750 
z
" transform="scale(0.015625)"/>
       </defs>
       <use xlink:href="#DejaVuSans-30"/>
      </g>
     </g>
    </g>
    <g id="xtick_2">
     <g id="line2d_2">
      <g>
       <use xlink:href="#mf7c5e51928" x="138.828632" y="307.584" style="stroke: #000000; stroke-width: 0.8"/>
      </g>
     </g>
     <g id="text_2">
      <!-- 1 -->
      <g transform="translate(135.647382 322.182437) scale(0.1 -0.1)">
       <defs>
        <path id="DejaVuSans-31" d="M 794 531 
L 1825 531 
L 1825 4091 
L 703 3866 
L 703 4441 
L 1819 4666 
L 2450 4666 
L 2450 531 
L 3481 531 
L 3481 0 
L 794 0 
L 794 531 
z
" transform="scale(0.015625)"/>
       </defs>
       <use xlink:href="#DejaVuSans-31"/>
      </g>
     </g>
    </g>
    <g id="xtick_3">
     <g id="line2d_3">
      <g>
       <use xlink:href="#mf7c5e51928" x="203.824537" y="307.584" style="stroke: #000000; stroke-width: 0.8"/>
      </g>
     </g>
     <g id="text_3">
      <!-- 2 -->
      <g transform="translate(200.643287 322.182437) scale(0.1 -0.1)">
       <defs>
        <path id="DejaVuSans-32" d="M 1228 531 
L 3431 531 
L 3431 0 
L 469 0 
L 469 531 
Q 828 903 1448 1529 
Q 2069 2156 2228 2338 
Q 2531 2678 2651 2914 
Q 2772 3150 2772 3378 
Q 2772 3750 2511 3984 
Q 2250 4219 1831 4219 
Q 1534 4219 1204 4116 
Q 875 4013 500 3803 
L 500 4441 
Q 881 4594 1212 4672 
Q 1544 4750 1819 4750 
Q 2544 4750 2975 4387 
Q 3406 4025 3406 3419 
Q 3406 3131 3298 2873 
Q 3191 2616 2906 2266 
Q 2828 2175 2409 1742 
Q 1991 1309 1228 531 
z
" transform="scale(0.015625)"/>
       </defs>
       <use xlink:href="#DejaVuSans-32"/>
      </g>
     </g>
    </g>
    <g id="xtick_4">
     <g id="line2d_4">
      <g>
       <use xlink:href="#mf7c5e51928" x="268.820442" y="307.584" style="stroke: #000000; stroke-width: 0.8"/>
      </g>
     </g>
     <g id="text_4">
      <!-- 3 -->
      <g transform="translate(265.639192 322.182437) scale(0.1 -0.1)">
       <defs>
        <path id="DejaVuSans-33" d="M 2597 2516 
Q 3050 2419 3304 2112 
Q 3559 1806 3559 1356 
Q 3559 666 3084 287 
Q 2609 -91 1734 -91 
Q 1441 -91 1130 -33 
Q 819 25 488 141 
L 488 750 
Q 750 597 1062 519 
Q 1375 441 1716 441 
Q 2309 441 2620 675 
Q 2931 909 2931 1356 
Q 2931 1769 2642 2001 
Q 2353 2234 1838 2234 
L 1294 2234 
L 1294 2753 
L 1863 2753 
Q 2328 2753 2575 2939 
Q 2822 3125 2822 3475 
Q 2822 3834 2567 4026 
Q 2313 4219 1838 4219 
Q 1578 4219 1281 4162 
Q 984 4106 628 3988 
L 628 4550 
Q 988 4650 1302 4700 
Q 1616 4750 1894 4750 
Q 2613 4750 3031 4423 
Q 3450 4097 3450 3541 
Q 3450 3153 3228 2886 
Q 3006 2619 2597 2516 
z
" transform="scale(0.015625)"/>
       </defs>
       <use xlink:href="#DejaVuSans-33"/>
      </g>
     </g>
    </g>
    <g id="xtick_5">
     <g id="line2d_5">
      <g>
       <use xlink:href="#mf7c5e51928" x="333.816347" y="307.584" style="stroke: #000000; stroke-width: 0.8"/>
      </g>
     </g>
     <g id="text_5">
      <!-- 4 -->
      <g transform="translate(330.635097 322.182437) scale(0.1 -0.1)">
       <defs>
        <path id="DejaVuSans-34" d="M 2419 4116 
L 825 1625 
L 2419 1625 
L 2419 4116 
z
M 2253 4666 
L 3047 4666 
L 3047 1625 
L 3713 1625 
L 3713 1100 
L 3047 1100 
L 3047 0 
L 2419 0 
L 2419 1100 
L 313 1100 
L 313 1709 
L 2253 4666 
z
" transform="scale(0.015625)"/>
       </defs>
       <use xlink:href="#DejaVuSans-34"/>
      </g>
     </g>
    </g>
    <g id="xtick_6">
     <g id="line2d_6">
      <g>
       <use xlink:href="#mf7c5e51928" x="398.812252" y="307.584" style="stroke: #000000; stroke-width: 0.8"/>
      </g>
     </g>
     <g id="text_6">
      <!-- 5 -->
      <g transform="translate(395.631002 322.182437) scale(0.1 -0.1)">
       <defs>
        <path id="DejaVuSans-35" d="M 691 4666 
L 3169 4666 
L 3169 4134 
L 1269 4134 
L 1269 2991 
Q 1406 3038 1543 3061 
Q 1681 3084 1819 3084 
Q 2600 3084 3056 2656 
Q 3513 2228 3513 1497 
Q 3513 744 3044 326 
Q 2575 -91 1722 -91 
Q 1428 -91 1123 -41 
Q 819 9 494 109 
L 494 744 
Q 775 591 1075 516 
Q 1375 441 1709 441 
Q 2250 441 2565 725 
Q 2881 1009 2881 1497 
Q 2881 1984 2565 2268 
Q 2250 2553 1709 2553 
Q 1456 2553 1204 2497 
Q 953 2441 691 2322 
L 691 4666 
z
" transform="scale(0.015625)"/>
       </defs>
       <use xlink:href="#DejaVuSans-35"/>
      </g>
     </g>
    </g>
    <g id="text_7">
     <!-- 1e−7 -->
     <g transform="translate(387.462188 334.860562) scale(0.1 -0.1)">
      <defs>
       <path id="DejaVuSans-65" d="M 3597 1894 
L 3597 1613 
L 953 1613 
Q 991 1019 1311 708 
Q 1631 397 2203 397 
Q 2534 397 2845 478 
Q 3156 559 3463 722 
L 3463 178 
Q 3153 47 2828 -22 
Q 2503 -91 2169 -91 
Q 1331 -91 842 396 
Q 353 884 353 1716 
Q 353 2575 817 3079 
Q 1281 3584 2069 3584 
Q 2775 3584 3186 3129 
Q 3597 2675 3597 1894 
z
M 3022 2063 
Q 3016 2534 2758 2815 
Q 2500 3097 2075 3097 
Q 1594 3097 1305 2825 
Q 1016 2553 972 2059 
L 3022 2063 
z
" transform="scale(0.015625)"/>
       <path id="DejaVuSans-2212" d="M 678 2272 
L 4684 2272 
L 4684 1741 
L 678 1741 
L 678 2272 
z
" transform="scale(0.015625)"/>
       <path id="DejaVuSans-37" d="M 525 4666 
L 3525 4666 
L 3525 4397 
L 1831 0 
L 1172 0 
L 2766 4134 
L 525 4134 
L 525 4666 
z
" transform="scale(0.015625)"/>
      </defs>
      <use xlink:href="#DejaVuSans-31"/>
      <use xlink:href="#DejaVuSans-65" transform="translate(63.623047 0)"/>
      <use xlink:href="#DejaVuSans-2212" transform="translate(125.146484 0)"/>
      <use xlink:href="#DejaVuSans-37" transform="translate(208.935547 0)"/>
     </g>
    </g>
   </g>
   <g id="matplotlib.axis_2">
    <g id="ytick_1">
     <g id="line2d_7">
      <defs>
       <path id="m0679c03070" d="M 0 0 
L -3.5 0 
" style="stroke: #000000; stroke-width: 0.8"/>
      </defs>
      <g>
       <use xlink:href="#m0679c03070" x="57.6" y="305.494417" style="stroke: #000000; stroke-width: 0.8"/>
      </g>
     </g>
     <g id="text_8">
      <!-- −60 -->
      <g transform="translate(29.495313 309.293636) scale(0.1 -0.1)">
       <defs>
        <path id="DejaVuSans-36" d="M 2113 2584 
Q 1688 2584 1439 2293 
Q 1191 2003 1191 1497 
Q 1191 994 1439 701 
Q 1688 409 2113 409 
Q 2538 409 2786 701 
Q 3034 994 3034 1497 
Q 3034 2003 2786 2293 
Q 2538 2584 2113 2584 
z
M 3366 4563 
L 3366 3988 
Q 3128 4100 2886 4159 
Q 2644 4219 2406 4219 
Q 1781 4219 1451 3797 
Q 1122 3375 1075 2522 
Q 1259 2794 1537 2939 
Q 1816 3084 2150 3084 
Q 2853 3084 3261 2657 
Q 3669 2231 3669 1497 
Q 3669 778 3244 343 
Q 2819 -91 2113 -91 
Q 1303 -91 875 529 
Q 447 1150 447 2328 
Q 447 3434 972 4092 
Q 1497 4750 2381 4750 
Q 2619 4750 2861 4703 
Q 3103 4656 3366 4563 
z
" transform="scale(0.015625)"/>
       </defs>
       <use xlink:href="#DejaVuSans-2212"/>
       <use xlink:href="#DejaVuSans-36" transform="translate(83.789062 0)"/>
       <use xlink:href="#DejaVuSans-30" transform="translate(147.412109 0)"/>
      </g>
     </g>
    </g>
    <g id="ytick_2">
     <g id="line2d_8">
      <g>
       <use xlink:href="#m0679c03070" x="57.6" y="267.823176" style="stroke: #000000; stroke-width: 0.8"/>
      </g>
     </g>
     <g id="text_9">
      <!-- −40 -->
      <g transform="translate(29.495313 271.622395) scale(0.1 -0.1)">
       <use xlink:href="#DejaVuSans-2212"/>
       <use xlink:href="#DejaVuSans-34" transform="translate(83.789062 0)"/>
       <use xlink:href="#DejaVuSans-30" transform="translate(147.412109 0)"/>
      </g>
     </g>
    </g>
    <g id="ytick_3">
     <g id="line2d_9">
      <g>
       <use xlink:href="#m0679c03070" x="57.6" y="230.151935" style="stroke: #000000; stroke-width: 0.8"/>
      </g>
     </g>
     <g id="text_10">
      <!-- −20 -->
      <g transform="translate(29.495313 233.951154) scale(0.1 -0.1)">
       <use xlink:href="#DejaVuSans-2212"/>
       <use xlink:href="#DejaVuSans-32" transform="translate(83.789062 0)"/>
       <use xlink:href="#DejaVuSans-30" transform="translate(147.412109 0)"/>
      </g>
     </g>
    </g>
    <g id="ytick_4">
     <g id="line2d_10">
      <g>
       <use xlink:href="#m0679c03070" x="57.6" y="192.480694" style="stroke: #000000; stroke-width: 0.8"/>
      </g>
     </g>
     <g id="text_11">
      <!-- 0 -->
      <g transform="translate(44.2375 196.279913) scale(0.1 -0.1)">
       <use xlink:href="#DejaVuSans-30"/>
      </g>
     </g>
    </g>
    <g id="ytick_5">
     <g id="line2d_11">
      <g>
       <use xlink:href="#m0679c03070" x="57.6" y="154.809453" style="stroke: #000000; stroke-width: 0.8"/>
      </g>
     </g>
     <g id="text_12">
      <!-- 20 -->
      <g transform="translate(37.875 158.608672) scale(0.1 -0.1)">
       <use xlink:href="#DejaVuSans-32"/>
       <use xlink:href="#DejaVuSans-30" transform="translate(63.623047 0)"/>
      </g>
     </g>
    </g>
    <g id="ytick_6">
     <g id="line2d_12">
      <g>
       <use xlink:href="#m0679c03070" x="57.6" y="117.138213" style="stroke: #000000; stroke-width: 0.8"/>
      </g>
     </g>
     <g id="text_13">
      <!-- 40 -->
      <g transform="translate(37.875 120.937431) scale(0.1 -0.1)">
       <use xlink:href="#DejaVuSans-34"/>
       <use xlink:href="#DejaVuSans-30" transform="translate(63.623047 0)"/>
      </g>
     </g>
    </g>
    <g id="ytick_7">
     <g id="line2d_13">
      <g>
       <use xlink:href="#m0679c03070" x="57.6" y="79.466972" style="stroke: #000000; stroke-width: 0.8"/>
      </g>
     </g>
     <g id="text_14">
      <!-- 60 -->
      <g transform="translate(37.875 83.26619) scale(0.1 -0.1)">
       <use xlink:href="#DejaVuSans-36"/>
       <use xlink:href="#DejaVuSans-30" transform="translate(63.623047 0)"/>
      </g>
     </g>
    </g>
    <g id="ytick_8">
     <g id="line2d_14">
      <g>
       <use xlink:href="#m0679c03070" x="57.6" y="41.795731" style="stroke: #000000; stroke-width: 0.8"/>
      </g>
     </g>
     <g id="text_15">
      <!-- 80 -->
      <g transform="translate(37.875 45.594949) scale(0.1 -0.1)">
       <defs>
        <path id="DejaVuSans-38" d="M 2034 2216 
Q 1584 2216 1326 1975 
Q 1069 1734 1069 1313 
Q 1069 891 1326 650 
Q 1584 409 2034 409 
Q 2484 409 2743 651 
Q 3003 894 3003 1313 
Q 3003 1734 2745 1975 
Q 2488 2216 2034 2216 
z
M 1403 2484 
Q 997 2584 770 2862 
Q 544 3141 544 3541 
Q 544 4100 942 4425 
Q 1341 4750 2034 4750 
Q 2731 4750 3128 4425 
Q 3525 4100 3525 3541 
Q 3525 3141 3298 2862 
Q 3072 2584 2669 2484 
Q 3125 2378 3379 2068 
Q 3634 1759 3634 1313 
Q 3634 634 3220 271 
Q 2806 -91 2034 -91 
Q 1263 -91 848 271 
Q 434 634 434 1313 
Q 434 1759 690 2068 
Q 947 2378 1403 2484 
z
M 1172 3481 
Q 1172 3119 1398 2916 
Q 1625 2713 2034 2713 
Q 2441 2713 2670 2916 
Q 2900 3119 2900 3481 
Q 2900 3844 2670 4047 
Q 2441 4250 2034 4250 
Q 1625 4250 1398 4047 
Q 1172 3844 1172 3481 
z
" transform="scale(0.015625)"/>
       </defs>
       <use xlink:href="#DejaVuSans-38"/>
       <use xlink:href="#DejaVuSans-30" transform="translate(63.623047 0)"/>
      </g>
     </g>
    </g>
   </g>
   <g id="line2d_15">
    <path d="M 73.832727 193.952224 
L 74.157707 195.423757 
L 74.482686 195.423757 
L 74.807666 193.952224 
L 75.457625 193.952224 
L 75.782604 195.423757 
L 77.732482 195.423757 
L 78.057461 196.89529 
L 78.70742 193.952224 
L 79.682359 193.952224 
L 80.007338 195.423757 
L 80.332318 195.423757 
L 80.657297 193.952224 
L 81.307256 193.952224 
L 81.632236 195.423757 
L 82.607174 195.423757 
L 82.932154 193.952224 
L 83.582113 196.89529 
L 84.232072 193.952224 
L 84.557052 193.952224 
L 84.882031 192.480691 
L 85.207011 195.423757 
L 85.53199 195.423757 
L 85.85697 193.952224 
L 86.181949 195.423757 
L 86.506929 193.952224 
L 86.831908 193.952224 
L 87.156888 195.423757 
L 87.481867 193.952224 
L 88.131826 193.952224 
L 88.456806 195.423757 
L 89.431744 191.009158 
L 91.056642 170.407697 
L 91.381622 170.407697 
L 91.706601 173.350763 
L 92.031581 173.350763 
L 92.35656 167.464631 
L 93.006519 149.806236 
L 93.331499 145.391637 
L 93.656478 148.334703 
L 93.981458 155.692368 
L 94.306437 158.635434 
L 94.631417 152.749302 
L 95.281376 126.261709 
L 95.606355 124.790176 
L 96.256314 138.033973 
L 96.581294 138.033973 
L 97.231253 121.84711 
L 97.556233 118.904045 
L 98.206192 124.790176 
L 98.856151 118.904045 
L 99.18113 114.489446 
L 99.831089 120.375577 
L 100.156069 121.84711 
L 100.806028 108.603314 
L 101.131007 107.131781 
L 101.455987 110.074847 
L 101.780966 117.432512 
L 102.105946 120.375577 
L 102.755905 111.54638 
L 103.080885 110.074847 
L 103.405864 111.54638 
L 103.730844 114.489446 
L 104.055823 114.489446 
L 104.380803 111.54638 
L 104.705782 111.54638 
L 105.030762 113.017913 
L 105.355741 117.432512 
L 106.0057 117.432512 
L 106.33068 113.017913 
L 106.655659 111.54638 
L 106.980639 114.489446 
L 107.630598 123.318643 
L 107.955577 124.790176 
L 108.930516 115.960979 
L 109.255495 120.375577 
L 109.580475 121.84711 
L 109.905455 124.790176 
L 110.555414 127.733242 
L 111.205373 124.790176 
L 111.855332 124.790176 
L 112.505291 127.733242 
L 112.83027 127.733242 
L 113.15525 129.204775 
L 113.805209 129.204775 
L 114.130188 127.733242 
L 114.455168 129.204775 
L 114.780147 127.733242 
L 115.105127 129.204775 
L 115.755086 129.204775 
L 116.080066 132.147841 
L 117.055004 127.733242 
L 117.379984 127.733242 
L 117.704963 126.261709 
L 118.029943 127.733242 
L 118.354922 130.676308 
L 118.679902 129.204775 
L 119.004881 129.204775 
L 119.329861 126.261709 
L 119.65484 127.733242 
L 119.97982 124.790176 
L 120.304799 124.790176 
L 120.629779 123.318643 
L 120.954758 124.790176 
L 121.279738 123.318643 
L 121.929697 123.318643 
L 122.254676 118.904045 
L 122.579656 118.904045 
L 122.904636 117.432512 
L 123.229615 118.904045 
L 123.554595 118.904045 
L 123.879574 117.432512 
L 124.204554 117.432512 
L 124.529533 114.489446 
L 124.854513 114.489446 
L 125.179492 113.017913 
L 126.154431 113.017913 
L 126.80439 110.074847 
L 127.129369 111.54638 
L 127.454349 108.603314 
L 128.104308 108.603314 
L 128.429287 107.131781 
L 128.754267 108.603314 
L 129.079247 107.131781 
L 129.404226 108.603314 
L 129.729206 107.131781 
L 130.054185 108.603314 
L 130.379165 107.131781 
L 130.704144 107.131781 
L 131.029124 105.660248 
L 131.354103 107.131781 
L 131.679083 107.131781 
L 132.004062 110.074847 
L 132.329042 110.074847 
L 132.654021 108.603314 
L 132.979001 110.074847 
L 133.30398 108.603314 
L 134.278919 113.017913 
L 134.603898 113.017913 
L 134.928878 114.489446 
L 135.253857 117.432512 
L 135.578837 117.432512 
L 135.903817 118.904045 
L 136.228796 118.904045 
L 136.553776 121.84711 
L 137.853694 127.733242 
L 138.178673 130.676308 
L 138.503653 130.676308 
L 139.153612 136.56244 
L 139.478591 136.56244 
L 140.45353 145.391637 
L 140.778509 146.86317 
L 141.103489 149.806236 
L 142.403407 155.692368 
L 142.728387 160.106967 
L 143.053366 161.5785 
L 143.378346 164.521566 
L 144.353284 168.936164 
L 144.678264 171.87923 
L 145.328223 174.822296 
L 145.653202 179.236895 
L 145.978182 177.765362 
L 146.303161 180.708428 
L 146.95312 183.651494 
L 147.2781 186.59456 
L 147.928059 189.537626 
L 148.253038 189.537626 
L 149.552957 195.423757 
L 149.877936 193.952224 
L 150.202916 195.423757 
L 150.527895 195.423757 
L 150.852875 198.366823 
L 151.502834 198.366823 
L 152.152793 195.423757 
L 153.127731 195.423757 
L 153.452711 193.952224 
L 153.77769 195.423757 
L 154.10267 193.952224 
L 154.752629 193.952224 
L 155.077609 191.009158 
L 155.727568 191.009158 
L 156.052547 193.952224 
L 156.377527 192.480691 
L 156.702506 193.952224 
L 157.027486 191.009158 
L 157.677445 191.009158 
L 158.327404 193.952224 
L 158.652383 192.480691 
L 158.977363 192.480691 
L 159.302342 193.952224 
L 160.277281 193.952224 
L 160.60226 195.423757 
L 160.92724 193.952224 
L 161.252219 193.952224 
L 161.577199 192.480691 
L 161.902179 193.952224 
L 162.227158 192.480691 
L 162.552138 193.952224 
L 162.877117 192.480691 
L 163.852056 192.480691 
L 164.177035 195.423757 
L 164.502015 193.952224 
L 165.151974 193.952224 
L 165.476953 192.480691 
L 165.801933 192.480691 
L 166.451892 195.423757 
L 167.101851 195.423757 
L 167.42683 193.952224 
L 168.726749 193.952224 
L 169.051728 195.423757 
L 169.376708 192.480691 
L 169.701687 193.952224 
L 170.026667 193.952224 
L 170.351646 195.423757 
L 170.676626 193.952224 
L 171.326585 193.952224 
L 171.651564 195.423757 
L 171.976544 193.952224 
L 172.951482 193.952224 
L 173.276462 195.423757 
L 173.926421 195.423757 
L 174.2514 193.952224 
L 174.90136 193.952224 
L 175.226339 195.423757 
L 175.876298 195.423757 
L 176.526257 192.480691 
L 176.851237 195.423757 
L 177.176216 193.952224 
L 177.501196 195.423757 
L 178.801114 195.423757 
L 179.126093 196.89529 
L 179.451073 195.423757 
L 179.776052 195.423757 
L 180.101032 193.952224 
L 180.426011 193.952224 
L 180.750991 195.423757 
L 181.40095 195.423757 
L 181.72593 193.952224 
L 182.050909 195.423757 
L 182.700868 195.423757 
L 183.025848 193.952224 
L 183.350827 193.952224 
L 183.675807 195.423757 
L 184.325766 195.423757 
L 184.650745 193.952224 
L 184.975725 193.952224 
L 185.300704 189.537626 
L 185.625684 188.066093 
L 186.925602 168.936164 
L 187.250581 171.87923 
L 187.900541 171.87923 
L 188.22552 167.464631 
L 188.875479 149.806236 
L 189.200459 145.391637 
L 190.175397 158.635434 
L 190.500377 151.277769 
L 191.150336 127.733242 
L 191.475315 123.318643 
L 192.125274 138.033973 
L 192.450254 139.505506 
L 193.100213 120.375577 
L 193.425192 117.432512 
L 193.750172 121.84711 
L 194.075152 123.318643 
L 194.400131 121.84711 
L 194.725111 115.960979 
L 195.05009 113.017913 
L 195.37507 115.960979 
L 195.700049 120.375577 
L 196.025029 121.84711 
L 196.350008 115.960979 
L 196.674988 107.131781 
L 196.999967 105.660248 
L 197.324947 110.074847 
L 197.649926 118.904045 
L 197.974906 120.375577 
L 198.299885 117.432512 
L 198.624865 111.54638 
L 198.949844 108.603314 
L 199.599803 114.489446 
L 199.924783 114.489446 
L 200.249762 113.017913 
L 200.574742 114.489446 
L 200.899722 114.489446 
L 201.224701 118.904045 
L 201.549681 118.904045 
L 202.19964 113.017913 
L 202.524619 111.54638 
L 203.499558 123.318643 
L 203.824537 123.318643 
L 204.149517 121.84711 
L 204.474496 117.432512 
L 204.799476 115.960979 
L 205.449435 123.318643 
L 206.099394 126.261709 
L 206.749353 126.261709 
L 207.074333 124.790176 
L 207.724292 124.790176 
L 208.049271 127.733242 
L 208.374251 126.261709 
L 208.69923 129.204775 
L 209.02421 130.676308 
L 209.674169 130.676308 
L 210.649107 126.261709 
L 211.299066 129.204775 
L 211.624046 132.147841 
L 211.949025 130.676308 
L 212.274005 130.676308 
L 212.923964 127.733242 
L 213.248943 129.204775 
L 213.573923 127.733242 
L 213.898903 127.733242 
L 214.223882 129.204775 
L 214.548862 129.204775 
L 214.873841 127.733242 
L 215.198821 127.733242 
L 215.5238 126.261709 
L 215.84878 123.318643 
L 216.173759 124.790176 
L 216.498739 121.84711 
L 216.823718 124.790176 
L 217.148698 124.790176 
L 217.473677 123.318643 
L 217.798657 123.318643 
L 218.123636 118.904045 
L 218.448616 120.375577 
L 218.773595 117.432512 
L 219.098575 118.904045 
L 219.423554 118.904045 
L 220.398493 114.489446 
L 221.048452 114.489446 
L 221.373432 111.54638 
L 222.998329 111.54638 
L 223.323309 110.074847 
L 223.648288 110.074847 
L 223.973268 107.131781 
L 224.298247 105.660248 
L 224.948206 108.603314 
L 225.273186 107.131781 
L 225.598165 107.131781 
L 225.923145 108.603314 
L 226.248124 105.660248 
L 226.898084 105.660248 
L 227.223063 107.131781 
L 227.548043 107.131781 
L 227.873022 108.603314 
L 228.522981 108.603314 
L 228.847961 110.074847 
L 229.17294 108.603314 
L 229.49792 110.074847 
L 229.822899 110.074847 
L 230.472858 113.017913 
L 230.797838 115.960979 
L 231.122817 117.432512 
L 232.097756 117.432512 
L 232.422735 121.84711 
L 233.072695 124.790176 
L 233.397674 124.790176 
L 234.047633 130.676308 
L 234.372613 132.147841 
L 234.697592 132.147841 
L 235.022572 135.090907 
L 235.99751 139.505506 
L 236.647469 146.86317 
L 236.972449 148.334703 
L 237.297428 148.334703 
L 237.622408 152.749302 
L 238.272367 155.692368 
L 238.597346 158.635434 
L 238.922326 160.106967 
L 239.247305 165.993099 
L 239.572285 165.993099 
L 239.897265 168.936164 
L 240.547224 171.87923 
L 240.872203 174.822296 
L 241.197183 176.293829 
L 241.522162 179.236895 
L 241.847142 177.765362 
L 242.172121 179.236895 
L 242.82208 185.123027 
L 243.14706 186.59456 
L 243.472039 186.59456 
L 243.797019 188.066093 
L 244.121998 188.066093 
L 244.446978 192.480691 
L 244.771957 192.480691 
L 245.096937 193.952224 
L 245.421916 193.952224 
L 245.746896 195.423757 
L 246.396855 195.423757 
L 246.721835 196.89529 
L 247.046814 195.423757 
L 247.371794 198.366823 
L 247.696773 195.423757 
L 248.021753 196.89529 
L 248.671712 196.89529 
L 249.321671 193.952224 
L 249.64665 193.952224 
L 249.97163 192.480691 
L 250.296609 193.952224 
L 250.621589 192.480691 
L 251.596527 192.480691 
L 251.921507 193.952224 
L 252.246486 192.480691 
L 252.571466 193.952224 
L 253.221425 193.952224 
L 253.546405 192.480691 
L 253.871384 193.952224 
L 254.521343 193.952224 
L 254.846323 195.423757 
L 255.171302 193.952224 
L 255.821261 193.952224 
L 256.146241 195.423757 
L 257.121179 195.423757 
L 257.446159 193.952224 
L 258.096118 193.952224 
L 258.421097 195.423757 
L 258.746077 193.952224 
L 259.396036 193.952224 
L 259.721016 192.480691 
L 260.045995 195.423757 
L 260.370975 192.480691 
L 260.695954 193.952224 
L 261.670893 193.952224 
L 261.995872 195.423757 
L 262.320852 195.423757 
L 262.645831 193.952224 
L 263.62077 193.952224 
L 263.945749 195.423757 
L 264.270729 195.423757 
L 264.920688 192.480691 
L 265.245667 193.952224 
L 265.570647 193.952224 
L 265.895627 195.423757 
L 266.545586 192.480691 
L 267.195545 195.423757 
L 267.845504 192.480691 
L 268.170483 193.952224 
L 268.820442 193.952224 
L 269.145422 195.423757 
L 269.470401 195.423757 
L 269.795381 193.952224 
L 270.12036 193.952224 
L 270.44534 196.89529 
L 270.770319 193.952224 
L 272.070238 193.952224 
L 272.395217 192.480691 
L 272.720197 193.952224 
L 273.045176 193.952224 
L 273.370156 195.423757 
L 274.995053 195.423757 
L 275.320033 193.952224 
L 275.645012 195.423757 
L 275.969992 193.952224 
L 276.619951 193.952224 
L 276.94493 195.423757 
L 277.919869 195.423757 
L 278.244848 193.952224 
L 278.569828 195.423757 
L 278.894808 193.952224 
L 279.219787 195.423757 
L 279.869746 195.423757 
L 280.194726 193.952224 
L 280.519705 193.952224 
L 280.844685 192.480691 
L 281.494644 186.59456 
L 282.794562 170.407697 
L 283.119541 170.407697 
L 283.7695 173.350763 
L 284.09448 167.464631 
L 284.744439 149.806236 
L 285.069419 145.391637 
L 285.394398 148.334703 
L 286.044357 158.635434 
L 286.369337 151.277769 
L 287.019296 127.733242 
L 287.344275 126.261709 
L 287.994234 139.505506 
L 288.319214 139.505506 
L 288.969173 121.84711 
L 289.294152 118.904045 
L 289.619132 121.84711 
L 289.944111 126.261709 
L 290.269091 123.318643 
L 290.91905 113.017913 
L 291.569009 120.375577 
L 291.893989 121.84711 
L 292.218968 115.960979 
L 292.543948 107.131781 
L 292.868927 104.188715 
L 293.193907 110.074847 
L 293.518886 118.904045 
L 293.843866 118.904045 
L 294.168845 115.960979 
L 294.493825 108.603314 
L 294.818804 108.603314 
L 295.143784 113.017913 
L 295.468763 114.489446 
L 296.118722 111.54638 
L 296.768681 114.489446 
L 297.093661 118.904045 
L 297.41864 118.904045 
L 298.0686 113.017913 
L 298.393579 111.54638 
L 299.368518 124.790176 
L 299.693497 121.84711 
L 300.018477 121.84711 
L 300.343456 118.904045 
L 300.668436 117.432512 
L 300.993415 120.375577 
L 301.318395 121.84711 
L 301.643374 126.261709 
L 302.943292 126.261709 
L 303.268272 124.790176 
L 303.593251 126.261709 
L 304.24321 126.261709 
L 304.56819 129.204775 
L 304.89317 129.204775 
L 305.218149 130.676308 
L 305.543129 130.676308 
L 306.193088 127.733242 
L 306.518067 124.790176 
L 306.843047 129.204775 
L 307.493006 132.147841 
L 308.792924 126.261709 
L 309.117903 127.733242 
L 310.092842 127.733242 
L 310.417821 130.676308 
L 310.742801 129.204775 
L 311.067781 126.261709 
L 311.39276 124.790176 
L 311.71774 121.84711 
L 312.042719 123.318643 
L 312.367699 123.318643 
L 313.017658 126.261709 
L 313.667617 120.375577 
L 313.992596 120.375577 
L 314.642555 117.432512 
L 314.967535 118.904045 
L 315.292514 118.904045 
L 315.942473 115.960979 
L 316.267453 115.960979 
L 316.592432 114.489446 
L 316.917412 111.54638 
L 317.242391 113.017913 
L 317.567371 111.54638 
L 319.192269 111.54638 
L 319.517248 108.603314 
L 319.842228 107.131781 
L 320.167207 107.131781 
L 320.492187 105.660248 
L 320.817166 108.603314 
L 321.142146 110.074847 
L 321.467125 108.603314 
L 321.792105 108.603314 
L 322.117084 107.131781 
L 322.442064 107.131781 
L 322.767043 105.660248 
L 323.092023 108.603314 
L 323.417002 107.131781 
L 324.066962 110.074847 
L 325.36688 110.074847 
L 326.666798 115.960979 
L 327.316757 115.960979 
L 327.641736 120.375577 
L 327.966716 118.904045 
L 328.616675 124.790176 
L 328.941654 126.261709 
L 329.266634 126.261709 
L 329.591613 127.733242 
L 329.916593 130.676308 
L 330.241572 132.147841 
L 330.566552 135.090907 
L 330.891532 135.090907 
L 331.216511 138.033973 
L 331.541491 139.505506 
L 331.86647 142.448572 
L 332.516429 145.391637 
L 333.166388 151.277769 
L 333.491368 152.749302 
L 333.816347 155.692368 
L 334.141327 155.692368 
L 334.466306 160.106967 
L 334.791286 161.5785 
L 335.116265 164.521566 
L 336.091204 168.936164 
L 336.416183 173.350763 
L 337.066143 176.293829 
L 337.391122 176.293829 
L 338.366061 180.708428 
L 338.69104 185.123027 
L 339.01602 185.123027 
L 339.665979 188.066093 
L 339.990958 188.066093 
L 340.315938 191.009158 
L 341.290876 195.423757 
L 341.615856 193.952224 
L 341.940835 195.423757 
L 342.265815 195.423757 
L 342.590794 196.89529 
L 342.915774 196.89529 
L 343.240753 198.366823 
L 343.890713 195.423757 
L 344.540672 195.423757 
L 344.865651 196.89529 
L 345.51561 193.952224 
L 345.84059 193.952224 
L 346.165569 192.480691 
L 346.490549 192.480691 
L 346.815528 193.952224 
L 347.140508 192.480691 
L 347.465487 193.952224 
L 347.790467 192.480691 
L 348.115446 192.480691 
L 348.440426 195.423757 
L 348.765405 192.480691 
L 349.415364 192.480691 
L 349.740344 193.952224 
L 350.715283 193.952224 
L 351.040262 192.480691 
L 351.365242 192.480691 
L 351.690221 193.952224 
L 352.34018 193.952224 
L 352.66516 195.423757 
L 352.990139 193.952224 
L 353.315119 193.952224 
L 353.640098 195.423757 
L 353.965078 195.423757 
L 354.290057 193.952224 
L 354.615037 193.952224 
L 354.940016 192.480691 
L 355.264996 193.952224 
L 355.589975 192.480691 
L 355.914955 193.952224 
L 357.214873 193.952224 
L 357.539853 195.423757 
L 358.189812 195.423757 
L 358.514791 193.952224 
L 358.839771 195.423757 
L 359.16475 192.480691 
L 359.48973 193.952224 
L 363.389484 193.952224 
L 363.714464 192.480691 
L 364.039443 193.952224 
L 364.364423 193.952224 
L 364.689402 195.423757 
L 365.664341 195.423757 
L 365.98932 193.952224 
L 366.639279 193.952224 
L 366.964259 195.423757 
L 367.289238 193.952224 
L 367.614218 196.89529 
L 368.589156 192.480691 
L 368.914136 193.952224 
L 370.214054 193.952224 
L 370.539034 195.423757 
L 371.513972 195.423757 
L 371.838952 193.952224 
L 372.163931 195.423757 
L 372.488911 193.952224 
L 372.81389 195.423757 
L 373.463849 195.423757 
L 373.788829 196.89529 
L 374.113808 193.952224 
L 374.438788 195.423757 
L 375.088747 195.423757 
L 375.413726 193.952224 
L 376.063686 193.952224 
L 376.388665 192.480691 
L 376.713645 193.952224 
L 377.363604 186.59456 
L 377.688583 183.651494 
L 378.663522 168.936164 
L 378.988501 170.407697 
L 379.313481 170.407697 
L 379.63846 171.87923 
L 380.288419 158.635434 
L 380.613399 148.334703 
L 380.938378 145.391637 
L 381.263358 148.334703 
L 381.588337 154.220835 
L 381.913317 157.163901 
L 382.238296 149.806236 
L 382.888256 126.261709 
L 383.213235 124.790176 
L 383.863194 138.033973 
L 384.188174 139.505506 
L 384.838133 121.84711 
L 385.163112 118.904045 
L 385.488092 121.84711 
L 385.813071 123.318643 
L 386.138051 121.84711 
L 386.46303 115.960979 
L 386.78801 114.489446 
L 387.112989 115.960979 
L 387.762948 123.318643 
L 388.412907 107.131781 
L 388.737887 107.131781 
L 389.062867 111.54638 
L 389.387846 118.904045 
L 389.712826 118.904045 
L 390.037805 115.960979 
L 390.362785 110.074847 
L 390.687764 107.131781 
L 391.337723 114.489446 
L 391.987682 114.489446 
L 392.312662 113.017913 
L 392.637641 114.489446 
L 392.962621 117.432512 
L 393.2876 118.904045 
L 393.61258 117.432512 
L 393.937559 113.017913 
L 394.262539 113.017913 
L 394.587518 114.489446 
L 395.237477 124.790176 
L 395.562457 121.84711 
L 395.887437 121.84711 
L 396.212416 117.432512 
L 396.537396 117.432512 
L 397.187355 123.318643 
L 397.512334 124.790176 
L 397.837314 124.790176 
L 398.162293 126.261709 
L 398.487273 123.318643 
L 398.487273 123.318643 
" clip-path="url(#p92e8164b8f)" style="fill: none; stroke: #1f77b4; stroke-width: 1.5; stroke-linecap: square"/>
   </g>
   <g id="line2d_16">
    <path d="M 73.832727 121.84711 
L 74.482686 121.84711 
L 75.457625 117.432512 
L 76.107584 117.432512 
L 76.757543 114.489446 
L 78.057461 114.489446 
L 78.382441 111.54638 
L 79.357379 111.54638 
L 79.682359 110.074847 
L 80.007338 111.54638 
L 80.332318 111.54638 
L 80.657297 108.603314 
L 80.982277 107.131781 
L 81.632236 110.074847 
L 81.957215 110.074847 
L 82.282195 108.603314 
L 82.607174 108.603314 
L 82.932154 110.074847 
L 83.257133 110.074847 
L 83.582113 108.603314 
L 84.557052 108.603314 
L 84.882031 110.074847 
L 85.207011 113.017913 
L 86.181949 113.017913 
L 86.831908 115.960979 
L 87.156888 118.904045 
L 87.806847 118.904045 
L 88.131826 123.318643 
L 88.456806 121.84711 
L 88.781785 121.84711 
L 89.106765 126.261709 
L 90.081704 130.676308 
L 90.731663 136.56244 
L 91.056642 135.090907 
L 91.381622 136.56244 
L 92.031581 142.448572 
L 92.35656 143.920104 
L 92.68154 146.86317 
L 93.006519 146.86317 
L 93.331499 149.806236 
L 93.656478 154.220835 
L 93.981458 155.692368 
L 94.306437 158.635434 
L 95.281376 163.050033 
L 95.931335 168.936164 
L 97.556233 176.293829 
L 98.206192 182.179961 
L 98.856151 185.123027 
L 99.18113 183.651494 
L 99.50611 185.123027 
L 99.831089 188.066093 
L 100.156069 189.537626 
L 100.481048 193.952224 
L 100.806028 192.480691 
L 101.455987 192.480691 
L 101.780966 193.952224 
L 102.105946 196.89529 
L 102.430925 198.366823 
L 103.080885 198.366823 
L 103.405864 196.89529 
L 103.730844 198.366823 
L 104.055823 198.366823 
L 104.380803 196.89529 
L 105.030762 196.89529 
L 105.355741 193.952224 
L 105.680721 192.480691 
L 106.655659 192.480691 
L 106.980639 191.009158 
L 107.305618 191.009158 
L 107.630598 189.537626 
L 108.280557 189.537626 
L 108.605536 191.009158 
L 108.930516 193.952224 
L 109.255495 195.423757 
L 109.580475 195.423757 
L 109.905455 193.952224 
L 110.230434 195.423757 
L 110.555414 193.952224 
L 110.880393 195.423757 
L 111.205373 195.423757 
L 111.530352 196.89529 
L 111.855332 193.952224 
L 112.505291 191.009158 
L 113.480229 195.423757 
L 114.455168 195.423757 
L 114.780147 193.952224 
L 115.755086 193.952224 
L 116.080066 192.480691 
L 116.730025 192.480691 
L 117.055004 193.952224 
L 118.029943 193.952224 
L 118.354922 195.423757 
L 118.679902 195.423757 
L 119.329861 192.480691 
L 119.65484 193.952224 
L 121.604717 193.952224 
L 121.929697 195.423757 
L 122.579656 195.423757 
L 123.229615 192.480691 
L 123.554595 192.480691 
L 123.879574 193.952224 
L 124.204554 193.952224 
L 124.529533 195.423757 
L 124.854513 195.423757 
L 125.179492 193.952224 
L 125.504472 193.952224 
L 125.829451 195.423757 
L 127.129369 195.423757 
L 127.454349 193.952224 
L 129.079247 193.952224 
L 129.404226 195.423757 
L 129.729206 195.423757 
L 130.054185 193.952224 
L 130.379165 193.952224 
L 130.704144 195.423757 
L 131.679083 195.423757 
L 132.004062 192.480691 
L 132.654021 195.423757 
L 132.979001 193.952224 
L 133.30398 195.423757 
L 133.62896 195.423757 
L 133.953939 196.89529 
L 134.278919 193.952224 
L 134.603898 193.952224 
L 134.928878 195.423757 
L 135.253857 195.423757 
L 135.578837 193.952224 
L 136.228796 196.89529 
L 137.203735 192.480691 
L 137.528714 189.537626 
L 138.178673 180.708428 
L 138.503653 180.708428 
L 138.828632 177.765362 
L 139.153612 176.293829 
L 139.478591 173.350763 
L 140.778509 157.163901 
L 141.103489 157.163901 
L 141.753448 154.220835 
L 142.078428 151.277769 
L 142.403407 145.391637 
L 142.728387 142.448572 
L 143.053366 138.033973 
L 143.378346 136.56244 
L 143.703325 136.56244 
L 144.028305 135.090907 
L 145.003243 126.261709 
L 145.328223 126.261709 
L 145.978182 120.375577 
L 146.628141 117.432512 
L 146.95312 117.432512 
L 147.2781 118.904045 
L 147.603079 118.904045 
L 148.253038 113.017913 
L 148.578018 111.54638 
L 148.902998 111.54638 
L 149.552957 114.489446 
L 149.877936 113.017913 
L 150.202916 113.017913 
L 150.527895 110.074847 
L 150.852875 111.54638 
L 151.177854 110.074847 
L 151.502834 111.54638 
L 152.152793 111.54638 
L 153.127731 115.960979 
L 153.452711 113.017913 
L 153.77769 111.54638 
L 154.10267 111.54638 
L 154.752629 117.432512 
L 155.077609 118.904045 
L 155.402588 117.432512 
L 155.727568 117.432512 
L 156.052547 115.960979 
L 156.377527 115.960979 
L 156.702506 120.375577 
L 157.027486 121.84711 
L 157.677445 121.84711 
L 158.002424 120.375577 
L 158.327404 123.318643 
L 158.652383 124.790176 
L 158.977363 123.318643 
L 159.627322 123.318643 
L 159.952301 126.261709 
L 160.277281 127.733242 
L 160.92724 127.733242 
L 161.252219 126.261709 
L 161.902179 126.261709 
L 162.227158 127.733242 
L 162.552138 127.733242 
L 162.877117 129.204775 
L 163.202097 127.733242 
L 164.177035 127.733242 
L 164.502015 129.204775 
L 164.826994 127.733242 
L 166.451892 127.733242 
L 166.776871 124.790176 
L 167.101851 124.790176 
L 167.42683 126.261709 
L 167.75181 124.790176 
L 168.07679 126.261709 
L 168.401769 124.790176 
L 168.726749 124.790176 
L 169.051728 121.84711 
L 169.376708 121.84711 
L 169.701687 123.318643 
L 170.026667 121.84711 
L 170.351646 121.84711 
L 171.001605 118.904045 
L 171.326585 118.904045 
L 171.976544 115.960979 
L 172.951482 115.960979 
L 173.276462 114.489446 
L 173.926421 114.489446 
L 174.90136 110.074847 
L 175.226339 110.074847 
L 175.551319 111.54638 
L 175.876298 111.54638 
L 176.201278 108.603314 
L 176.851237 108.603314 
L 177.176216 107.131781 
L 177.501196 108.603314 
L 178.151155 108.603314 
L 178.476134 107.131781 
L 178.801114 108.603314 
L 179.126093 111.54638 
L 179.451073 108.603314 
L 179.776052 110.074847 
L 180.426011 110.074847 
L 181.075971 113.017913 
L 181.72593 113.017913 
L 182.050909 114.489446 
L 182.375889 113.017913 
L 183.025848 118.904045 
L 183.675807 118.904045 
L 184.000786 120.375577 
L 184.325766 123.318643 
L 184.650745 123.318643 
L 184.975725 124.790176 
L 185.300704 127.733242 
L 185.625684 127.733242 
L 186.275643 133.619374 
L 187.250581 138.033973 
L 187.575561 138.033973 
L 187.900541 140.977039 
L 188.22552 145.391637 
L 188.5505 145.391637 
L 189.200459 151.277769 
L 189.525438 152.749302 
L 189.850418 155.692368 
L 190.175397 157.163901 
L 190.500377 160.106967 
L 190.825356 161.5785 
L 191.150336 161.5785 
L 191.475315 165.993099 
L 191.800295 167.464631 
L 192.125274 170.407697 
L 192.450254 171.87923 
L 192.775233 171.87923 
L 193.425192 174.822296 
L 193.750172 177.765362 
L 194.075152 182.179961 
L 194.725111 185.123027 
L 195.05009 183.651494 
L 195.37507 183.651494 
L 195.700049 188.066093 
L 196.025029 189.537626 
L 196.350008 193.952224 
L 196.674988 192.480691 
L 197.324947 192.480691 
L 197.649926 195.423757 
L 198.299885 198.366823 
L 198.624865 198.366823 
L 198.949844 195.423757 
L 199.274824 195.423757 
L 200.249762 199.838356 
L 200.574742 196.89529 
L 200.899722 196.89529 
L 201.224701 193.952224 
L 201.549681 193.952224 
L 201.87466 192.480691 
L 202.524619 192.480691 
L 203.174578 189.537626 
L 204.149517 189.537626 
L 204.799476 192.480691 
L 205.124455 195.423757 
L 205.449435 195.423757 
L 205.774414 193.952224 
L 206.099394 193.952224 
L 206.424373 192.480691 
L 207.074333 195.423757 
L 207.399312 193.952224 
L 207.724292 193.952224 
L 208.374251 191.009158 
L 208.69923 193.952224 
L 209.349189 196.89529 
L 209.674169 195.423757 
L 209.999148 195.423757 
L 210.324128 193.952224 
L 210.649107 195.423757 
L 210.974087 195.423757 
L 211.299066 196.89529 
L 211.624046 193.952224 
L 211.949025 192.480691 
L 212.598984 192.480691 
L 213.248943 195.423757 
L 214.223882 195.423757 
L 214.548862 193.952224 
L 214.873841 193.952224 
L 215.198821 192.480691 
L 215.5238 195.423757 
L 215.84878 193.952224 
L 216.173759 195.423757 
L 216.498739 193.952224 
L 216.823718 195.423757 
L 217.148698 193.952224 
L 217.473677 195.423757 
L 217.798657 195.423757 
L 218.123636 196.89529 
L 218.773595 193.952224 
L 219.098575 193.952224 
L 219.423554 195.423757 
L 219.748534 193.952224 
L 220.073514 193.952224 
L 220.398493 195.423757 
L 221.373432 195.423757 
L 221.698411 196.89529 
L 222.023391 195.423757 
L 222.34837 196.89529 
L 222.67335 196.89529 
L 222.998329 193.952224 
L 223.323309 195.423757 
L 223.648288 193.952224 
L 223.973268 193.952224 
L 224.298247 196.89529 
L 224.623227 196.89529 
L 225.598165 192.480691 
L 226.248124 195.423757 
L 226.898084 195.423757 
L 227.223063 193.952224 
L 227.548043 195.423757 
L 227.873022 193.952224 
L 228.198002 193.952224 
L 228.522981 195.423757 
L 229.49792 195.423757 
L 229.822899 196.89529 
L 230.147879 196.89529 
L 230.472858 193.952224 
L 231.122817 196.89529 
L 231.772776 196.89529 
L 232.097756 193.952224 
L 232.422735 192.480691 
L 232.747715 195.423757 
L 233.072695 193.952224 
L 233.397674 191.009158 
L 234.372613 177.765362 
L 234.697592 179.236895 
L 235.022572 177.765362 
L 236.32249 161.5785 
L 236.972449 155.692368 
L 237.297428 157.163901 
L 237.622408 154.220835 
L 237.947387 152.749302 
L 238.597346 142.448572 
L 238.922326 140.977039 
L 239.247305 138.033973 
L 240.222244 133.619374 
L 240.547224 129.204775 
L 241.522162 124.790176 
L 242.172121 118.904045 
L 242.82208 118.904045 
L 243.14706 120.375577 
L 243.472039 118.904045 
L 244.121998 113.017913 
L 244.771957 110.074847 
L 245.096937 113.017913 
L 245.746896 113.017913 
L 246.071876 111.54638 
L 246.721835 111.54638 
L 247.046814 110.074847 
L 247.696773 110.074847 
L 248.346732 113.017913 
L 248.671712 115.960979 
L 248.996691 115.960979 
L 249.321671 113.017913 
L 249.97163 110.074847 
L 250.621589 118.904045 
L 250.946568 118.904045 
L 251.596527 115.960979 
L 251.921507 115.960979 
L 252.571466 118.904045 
L 252.896446 121.84711 
L 253.221425 121.84711 
L 253.546405 120.375577 
L 253.871384 121.84711 
L 254.196364 121.84711 
L 254.521343 124.790176 
L 254.846323 126.261709 
L 255.171302 121.84711 
L 255.821261 124.790176 
L 256.146241 124.790176 
L 256.47122 127.733242 
L 257.121179 127.733242 
L 257.446159 126.261709 
L 257.771138 126.261709 
L 258.096118 129.204775 
L 258.421097 129.204775 
L 258.746077 130.676308 
L 259.396036 127.733242 
L 259.721016 129.204775 
L 260.045995 129.204775 
L 260.695954 126.261709 
L 261.020934 127.733242 
L 261.670893 127.733242 
L 261.995872 129.204775 
L 262.320852 127.733242 
L 262.645831 124.790176 
L 262.970811 124.790176 
L 263.29579 126.261709 
L 263.62077 124.790176 
L 263.945749 126.261709 
L 264.270729 126.261709 
L 264.595708 123.318643 
L 264.920688 121.84711 
L 266.545586 121.84711 
L 266.870565 118.904045 
L 267.195545 117.432512 
L 267.520524 118.904045 
L 268.495463 114.489446 
L 269.795381 114.489446 
L 270.12036 113.017913 
L 270.44534 113.017913 
L 270.770319 110.074847 
L 271.095299 110.074847 
L 271.420278 111.54638 
L 271.745258 111.54638 
L 272.070238 108.603314 
L 273.370156 108.603314 
L 273.695135 107.131781 
L 274.020115 110.074847 
L 274.345094 107.131781 
L 274.670074 110.074847 
L 274.995053 108.603314 
L 275.320033 110.074847 
L 275.645012 108.603314 
L 275.969992 108.603314 
L 276.294971 111.54638 
L 277.594889 111.54638 
L 277.919869 113.017913 
L 278.244848 113.017913 
L 278.894808 118.904045 
L 279.219787 118.904045 
L 279.544767 120.375577 
L 279.869746 120.375577 
L 280.844685 124.790176 
L 281.169664 124.790176 
L 281.819623 130.676308 
L 282.144603 130.676308 
L 282.794562 136.56244 
L 283.119541 136.56244 
L 283.444521 138.033973 
L 283.7695 142.448572 
L 284.09448 143.920104 
L 284.419459 146.86317 
L 284.744439 148.334703 
L 285.069419 151.277769 
L 285.394398 151.277769 
L 285.719378 157.163901 
L 286.044357 157.163901 
L 286.369337 158.635434 
L 286.694316 163.050033 
L 287.019296 163.050033 
L 287.344275 164.521566 
L 287.669255 167.464631 
L 287.994234 171.87923 
L 288.319214 171.87923 
L 289.294152 176.293829 
L 290.269091 185.123027 
L 290.59407 185.123027 
L 290.91905 183.651494 
L 291.244029 186.59456 
L 291.569009 186.59456 
L 291.893989 192.480691 
L 292.218968 193.952224 
L 292.868927 191.009158 
L 293.193907 191.009158 
L 293.843866 196.89529 
L 294.168845 198.366823 
L 294.493825 198.366823 
L 294.818804 196.89529 
L 295.468763 196.89529 
L 295.793743 198.366823 
L 296.443702 198.366823 
L 296.768681 195.423757 
L 297.093661 193.952224 
L 297.41864 193.952224 
L 297.74362 192.480691 
L 298.0686 192.480691 
L 298.393579 191.009158 
L 298.718559 191.009158 
L 299.368518 188.066093 
L 299.693497 191.009158 
L 300.018477 189.537626 
L 300.343456 189.537626 
L 300.993415 195.423757 
L 301.318395 195.423757 
L 301.643374 193.952224 
L 302.618313 193.952224 
L 302.943292 195.423757 
L 303.593251 192.480691 
L 303.918231 193.952224 
L 304.24321 192.480691 
L 304.56819 192.480691 
L 305.218149 195.423757 
L 305.543129 195.423757 
L 305.868108 196.89529 
L 306.193088 196.89529 
L 306.518067 195.423757 
L 307.168026 195.423757 
L 307.493006 196.89529 
L 308.467944 192.480691 
L 309.117903 195.423757 
L 309.442883 193.952224 
L 309.767862 193.952224 
L 310.092842 196.89529 
L 310.417821 193.952224 
L 310.742801 192.480691 
L 311.067781 193.952224 
L 311.71774 193.952224 
L 312.042719 195.423757 
L 312.367699 193.952224 
L 313.342637 193.952224 
L 313.992596 196.89529 
L 314.317576 195.423757 
L 314.642555 195.423757 
L 315.292514 192.480691 
L 315.942473 195.423757 
L 316.267453 195.423757 
L 316.592432 193.952224 
L 316.917412 195.423757 
L 317.242391 195.423757 
L 317.567371 193.952224 
L 317.892351 193.952224 
L 318.21733 195.423757 
L 318.54231 195.423757 
L 318.867289 193.952224 
L 320.167207 193.952224 
L 320.492187 196.89529 
L 320.817166 195.423757 
L 322.442064 195.423757 
L 322.767043 193.952224 
L 323.092023 193.952224 
L 323.417002 195.423757 
L 324.066962 192.480691 
L 324.391941 195.423757 
L 324.716921 196.89529 
L 325.0419 195.423757 
L 325.36688 196.89529 
L 326.016839 193.952224 
L 326.341818 195.423757 
L 326.666798 195.423757 
L 326.991777 193.952224 
L 327.641736 196.89529 
L 327.966716 193.952224 
L 328.291695 195.423757 
L 328.616675 195.423757 
L 328.941654 192.480691 
L 329.591613 183.651494 
L 330.566552 179.236895 
L 331.216511 173.350763 
L 332.19145 160.106967 
L 333.166388 155.692368 
L 333.491368 152.749302 
L 333.816347 151.277769 
L 334.466306 140.977039 
L 334.791286 138.033973 
L 335.116265 138.033973 
L 335.766224 135.090907 
L 336.091204 132.147841 
L 336.416183 130.676308 
L 336.741163 127.733242 
L 337.391122 124.790176 
L 338.366061 115.960979 
L 339.01602 118.904045 
L 339.340999 117.432512 
L 339.665979 114.489446 
L 339.990958 113.017913 
L 340.315938 110.074847 
L 340.640917 110.074847 
L 341.290876 113.017913 
L 341.615856 113.017913 
L 341.940835 111.54638 
L 342.265815 113.017913 
L 342.590794 111.54638 
L 343.240753 111.54638 
L 343.565733 108.603314 
L 343.890713 111.54638 
L 344.540672 114.489446 
L 344.865651 113.017913 
L 345.190631 113.017913 
L 345.51561 111.54638 
L 345.84059 111.54638 
L 346.490549 117.432512 
L 346.815528 118.904045 
L 347.465487 115.960979 
L 347.790467 115.960979 
L 348.115446 117.432512 
L 348.440426 120.375577 
L 348.765405 120.375577 
L 349.090385 123.318643 
L 349.415364 123.318643 
L 349.740344 120.375577 
L 350.715283 124.790176 
L 351.040262 123.318643 
L 351.365242 123.318643 
L 351.690221 124.790176 
L 352.015201 127.733242 
L 352.34018 126.261709 
L 353.315119 126.261709 
L 353.640098 127.733242 
L 353.965078 127.733242 
L 354.290057 129.204775 
L 354.615037 129.204775 
L 354.940016 127.733242 
L 355.589975 127.733242 
L 355.914955 129.204775 
L 356.239934 127.733242 
L 357.539853 127.733242 
L 357.864832 129.204775 
L 359.16475 123.318643 
L 359.814709 126.261709 
L 360.139689 124.790176 
L 360.464668 124.790176 
L 360.789648 120.375577 
L 361.114627 121.84711 
L 361.439607 120.375577 
L 361.764586 120.375577 
L 362.089566 121.84711 
L 362.414545 121.84711 
L 362.739525 118.904045 
L 363.064505 118.904045 
L 363.389484 115.960979 
L 363.714464 117.432512 
L 364.039443 117.432512 
L 364.364423 114.489446 
L 364.689402 114.489446 
L 365.014382 115.960979 
L 365.339361 114.489446 
L 365.664341 114.489446 
L 365.98932 113.017913 
L 366.3143 113.017913 
L 366.639279 111.54638 
L 366.964259 108.603314 
L 367.289238 111.54638 
L 367.614218 111.54638 
L 368.589156 107.131781 
L 368.914136 108.603314 
L 369.564095 108.603314 
L 369.889075 110.074847 
L 370.214054 108.603314 
L 370.539034 108.603314 
L 370.864013 110.074847 
L 371.513972 110.074847 
L 371.838952 108.603314 
L 372.163931 108.603314 
L 372.488911 110.074847 
L 372.81389 113.017913 
L 373.13887 113.017913 
L 373.463849 114.489446 
L 373.788829 113.017913 
L 374.113808 115.960979 
L 374.438788 117.432512 
L 374.763767 117.432512 
L 375.413726 120.375577 
L 376.063686 120.375577 
L 376.388665 123.318643 
L 377.363604 127.733242 
L 378.013563 133.619374 
L 378.988501 138.033973 
L 379.313481 138.033973 
L 379.63846 140.977039 
L 379.96344 142.448572 
L 380.613399 148.334703 
L 380.938378 149.806236 
L 381.913317 158.635434 
L 382.238296 160.106967 
L 382.563276 160.106967 
L 382.888256 163.050033 
L 383.213235 164.521566 
L 383.863194 171.87923 
L 384.513153 174.822296 
L 384.838133 174.822296 
L 385.163112 177.765362 
L 385.488092 179.236895 
L 386.138051 185.123027 
L 386.46303 183.651494 
L 387.437969 188.066093 
L 387.762948 191.009158 
L 388.087928 192.480691 
L 388.412907 192.480691 
L 388.737887 193.952224 
L 389.062867 192.480691 
L 389.712826 198.366823 
L 390.362785 198.366823 
L 390.687764 195.423757 
L 391.012744 196.89529 
L 391.662703 196.89529 
L 391.987682 198.366823 
L 392.312662 198.366823 
L 392.637641 196.89529 
L 392.962621 193.952224 
L 393.2876 193.952224 
L 393.61258 192.480691 
L 394.262539 192.480691 
L 394.587518 191.009158 
L 395.237477 191.009158 
L 395.562457 189.537626 
L 395.887437 191.009158 
L 396.537396 191.009158 
L 396.862375 193.952224 
L 397.187355 193.952224 
L 397.512334 195.423757 
L 397.837314 193.952224 
L 398.162293 193.952224 
L 398.487273 195.423757 
L 398.487273 195.423757 
" clip-path="url(#p92e8164b8f)" style="fill: none; stroke: #ff7f0e; stroke-width: 1.5; stroke-linecap: square"/>
   </g>
   <g id="line2d_17">
    <path d="M 73.832727 103.60012 
L 74.157707 103.60012 
L 74.482686 109.486252 
L 74.807666 118.315449 
L 75.457625 118.315449 
L 75.782604 130.087713 
L 76.107584 133.030779 
L 76.432563 138.91691 
L 76.757543 135.973845 
L 77.082523 144.803042 
L 77.407502 147.746108 
L 78.057461 159.518372 
L 78.70742 165.404503 
L 79.0324 171.290635 
L 79.357379 174.233701 
L 79.682359 180.119833 
L 80.332318 186.005964 
L 80.657297 186.005964 
L 80.982277 194.835162 
L 81.307256 197.778228 
L 81.632236 206.607426 
L 81.957215 203.66436 
L 82.282195 209.550491 
L 82.607174 212.493557 
L 82.932154 218.379689 
L 83.257133 218.379689 
L 83.582113 224.265821 
L 83.907093 227.208887 
L 84.232072 227.208887 
L 84.882031 233.095018 
L 85.207011 238.98115 
L 85.85697 238.98115 
L 86.831908 247.810348 
L 87.156888 244.867282 
L 87.481867 250.753414 
L 87.806847 247.810348 
L 88.131826 250.753414 
L 88.781785 250.753414 
L 89.106765 253.69648 
L 89.431744 253.69648 
L 89.756724 250.753414 
L 90.081704 253.69648 
L 90.731663 253.69648 
L 91.056642 250.753414 
L 91.381622 253.69648 
L 92.031581 253.69648 
L 92.35656 247.810348 
L 93.331499 247.810348 
L 93.656478 241.924216 
L 93.981458 241.924216 
L 95.281376 230.151953 
L 95.931335 230.151953 
L 96.256314 221.322755 
L 96.906274 221.322755 
L 97.231253 218.379689 
L 97.556233 206.607426 
L 97.881212 209.550491 
L 98.206192 203.66436 
L 98.856151 197.778228 
L 99.18113 191.892096 
L 99.831089 186.005964 
L 100.156069 177.176767 
L 100.806028 177.176767 
L 101.455987 162.461437 
L 101.780966 162.461437 
L 102.430925 156.575306 
L 102.755905 144.803042 
L 103.080885 144.803042 
L 103.405864 138.91691 
L 103.730844 135.973845 
L 104.055823 130.087713 
L 104.380803 130.087713 
L 104.705782 121.258515 
L 105.030762 121.258515 
L 105.355741 112.429318 
L 105.680721 109.486252 
L 106.0057 109.486252 
L 106.33068 103.60012 
L 106.980639 97.713988 
L 107.305618 91.827856 
L 107.630598 91.827856 
L 107.955577 85.941725 
L 108.280557 85.941725 
L 108.605536 80.055593 
L 108.930516 80.055593 
L 109.255495 74.169461 
L 109.580475 74.169461 
L 110.230434 68.283329 
L 110.555414 62.397198 
L 110.880393 62.397198 
L 111.205373 65.340264 
L 111.530352 59.454132 
L 112.83027 59.454132 
L 113.15525 53.568 
L 113.480229 56.511066 
L 114.130188 56.511066 
L 114.455168 53.568 
L 114.780147 53.568 
L 115.430106 59.454132 
L 115.755086 56.511066 
L 116.080066 56.511066 
L 116.730025 62.397198 
L 117.055004 59.454132 
L 117.379984 68.283329 
L 117.704963 65.340264 
L 118.029943 68.283329 
L 118.354922 68.283329 
L 118.679902 74.169461 
L 119.329861 80.055593 
L 119.65484 80.055593 
L 119.97982 85.941725 
L 120.629779 91.827856 
L 120.954758 88.884791 
L 121.604717 103.60012 
L 122.254676 103.60012 
L 122.904636 118.315449 
L 123.229615 121.258515 
L 123.554595 121.258515 
L 123.879574 130.087713 
L 124.854513 138.91691 
L 125.179492 147.746108 
L 125.504472 150.689174 
L 125.829451 156.575306 
L 126.154431 156.575306 
L 126.47941 162.461437 
L 127.454349 171.290635 
L 127.779328 180.119833 
L 128.104308 183.062899 
L 128.429287 188.94903 
L 128.754267 186.005964 
L 129.079247 197.778228 
L 129.404226 200.721294 
L 129.729206 200.721294 
L 130.054185 203.66436 
L 130.704144 215.436623 
L 131.029124 218.379689 
L 131.354103 218.379689 
L 131.679083 221.322755 
L 132.004062 227.208887 
L 132.329042 227.208887 
L 132.654021 230.151953 
L 132.979001 236.038084 
L 133.62896 241.924216 
L 133.953939 236.038084 
L 134.278919 241.924216 
L 134.603898 244.867282 
L 135.253857 244.867282 
L 135.578837 250.753414 
L 135.903817 250.753414 
L 136.228796 253.69648 
L 136.553776 247.810348 
L 137.203735 253.69648 
L 137.528714 253.69648 
L 137.853694 250.753414 
L 138.178673 253.69648 
L 138.828632 253.69648 
L 139.153612 247.810348 
L 139.478591 250.753414 
L 140.45353 250.753414 
L 141.103489 244.867282 
L 141.428468 247.810348 
L 141.753448 241.924216 
L 142.078428 238.98115 
L 142.403407 241.924216 
L 143.053366 230.151953 
L 143.378346 230.151953 
L 143.703325 227.208887 
L 144.028305 227.208887 
L 144.353284 221.322755 
L 144.678264 221.322755 
L 145.003243 215.436623 
L 145.328223 215.436623 
L 145.653202 209.550491 
L 146.628141 200.721294 
L 146.95312 191.892096 
L 147.2781 188.94903 
L 147.603079 188.94903 
L 148.253038 177.176767 
L 148.578018 174.233701 
L 148.902998 168.347569 
L 149.227977 171.290635 
L 149.552957 159.518372 
L 149.877936 156.575306 
L 150.202916 150.689174 
L 150.527895 150.689174 
L 150.852875 144.803042 
L 151.177854 141.859976 
L 151.502834 133.030779 
L 152.802752 121.258515 
L 153.452711 109.486252 
L 153.77769 109.486252 
L 154.10267 106.543186 
L 154.752629 94.770922 
L 155.077609 94.770922 
L 155.402588 88.884791 
L 155.727568 91.827856 
L 156.052547 85.941725 
L 156.702506 80.055593 
L 157.027486 80.055593 
L 157.352465 74.169461 
L 157.677445 71.226395 
L 158.002424 71.226395 
L 158.327404 65.340264 
L 158.652383 62.397198 
L 158.977363 65.340264 
L 159.302342 62.397198 
L 159.627322 62.397198 
L 159.952301 56.511066 
L 160.277281 59.454132 
L 160.60226 56.511066 
L 160.92724 59.454132 
L 161.252219 56.511066 
L 161.902179 56.511066 
L 162.227158 59.454132 
L 162.552138 56.511066 
L 162.877117 56.511066 
L 163.202097 62.397198 
L 163.852056 56.511066 
L 164.826994 65.340264 
L 165.151974 62.397198 
L 165.476953 65.340264 
L 165.801933 65.340264 
L 166.126912 74.169461 
L 166.776871 74.169461 
L 167.101851 77.112527 
L 167.42683 82.998659 
L 167.75181 82.998659 
L 168.07679 85.941725 
L 168.726749 97.713988 
L 169.051728 97.713988 
L 169.376708 100.657054 
L 169.701687 106.543186 
L 170.026667 109.486252 
L 170.351646 109.486252 
L 170.676626 115.372383 
L 171.001605 118.315449 
L 171.326585 124.201581 
L 171.651564 127.144647 
L 171.976544 133.030779 
L 172.301523 135.973845 
L 172.626503 141.859976 
L 172.951482 141.859976 
L 173.926421 159.518372 
L 174.2514 159.518372 
L 175.226339 177.176767 
L 175.551319 174.233701 
L 175.876298 183.062899 
L 176.526257 188.94903 
L 176.851237 194.835162 
L 177.176216 197.778228 
L 177.501196 203.66436 
L 177.826175 206.607426 
L 178.151155 206.607426 
L 178.476134 209.550491 
L 178.801114 218.379689 
L 179.126093 221.322755 
L 179.451073 218.379689 
L 179.776052 221.322755 
L 180.101032 227.208887 
L 180.426011 236.038084 
L 180.750991 233.095018 
L 181.075971 236.038084 
L 181.40095 236.038084 
L 181.72593 238.98115 
L 182.050909 238.98115 
L 183.025848 247.810348 
L 183.350827 247.810348 
L 184.000786 253.69648 
L 185.625684 253.69648 
L 185.950663 250.753414 
L 186.275643 256.639545 
L 186.600622 253.69648 
L 187.900541 253.69648 
L 188.22552 250.753414 
L 188.5505 244.867282 
L 188.875479 244.867282 
L 189.200459 247.810348 
L 189.525438 244.867282 
L 189.850418 238.98115 
L 190.175397 241.924216 
L 190.500377 238.98115 
L 190.825356 238.98115 
L 191.150336 230.151953 
L 191.475315 230.151953 
L 193.425192 212.493557 
L 193.750172 206.607426 
L 194.075152 203.66436 
L 194.400131 203.66436 
L 195.05009 191.892096 
L 195.37507 191.892096 
L 195.700049 186.005964 
L 196.025029 183.062899 
L 196.350008 174.233701 
L 196.674988 174.233701 
L 196.999967 168.347569 
L 197.649926 162.461437 
L 197.974906 156.575306 
L 198.299885 156.575306 
L 198.624865 150.689174 
L 198.949844 141.859976 
L 199.599803 135.973845 
L 200.249762 124.201581 
L 200.574742 124.201581 
L 201.224701 118.315449 
L 201.549681 106.543186 
L 201.87466 106.543186 
L 202.524619 100.657054 
L 202.849599 94.770922 
L 203.174578 91.827856 
L 203.499558 91.827856 
L 203.824537 88.884791 
L 204.149517 80.055593 
L 204.474496 80.055593 
L 204.799476 77.112527 
L 205.124455 77.112527 
L 206.099394 68.283329 
L 206.424373 71.226395 
L 206.749353 65.340264 
L 207.074333 65.340264 
L 207.399312 62.397198 
L 207.724292 62.397198 
L 208.374251 56.511066 
L 208.69923 59.454132 
L 209.02421 59.454132 
L 209.674169 53.568 
L 209.999148 56.511066 
L 210.324128 56.511066 
L 210.649107 53.568 
L 211.299066 59.454132 
L 211.949025 59.454132 
L 212.274005 62.397198 
L 212.598984 62.397198 
L 212.923964 68.283329 
L 213.248943 65.340264 
L 213.573923 65.340264 
L 213.898903 68.283329 
L 214.223882 74.169461 
L 214.548862 68.283329 
L 215.198821 80.055593 
L 215.84878 80.055593 
L 216.173759 88.884791 
L 216.823718 94.770922 
L 217.148698 94.770922 
L 217.473677 97.713988 
L 218.123636 109.486252 
L 218.448616 112.429318 
L 218.773595 118.315449 
L 219.098575 118.315449 
L 219.423554 124.201581 
L 219.748534 124.201581 
L 220.398493 135.973845 
L 221.048452 141.859976 
L 221.373432 150.689174 
L 221.698411 153.63224 
L 222.023391 159.518372 
L 222.34837 159.518372 
L 223.323309 177.176767 
L 224.298247 186.005964 
L 224.623227 191.892096 
L 225.273186 197.778228 
L 225.598165 203.66436 
L 226.248124 203.66436 
L 226.573104 212.493557 
L 226.898084 215.436623 
L 227.223063 221.322755 
L 227.548043 218.379689 
L 227.873022 227.208887 
L 228.198002 224.265821 
L 228.522981 230.151953 
L 229.17294 236.038084 
L 229.49792 236.038084 
L 229.822899 241.924216 
L 230.147879 238.98115 
L 230.472858 241.924216 
L 230.797838 247.810348 
L 231.122817 241.924216 
L 232.097756 250.753414 
L 232.747715 250.753414 
L 233.072695 253.69648 
L 234.047633 253.69648 
L 234.372613 250.753414 
L 234.697592 250.753414 
L 235.022572 253.69648 
L 235.347551 247.810348 
L 235.672531 247.810348 
L 235.99751 253.69648 
L 236.32249 247.810348 
L 236.647469 244.867282 
L 236.972449 247.810348 
L 237.297428 244.867282 
L 237.622408 244.867282 
L 237.947387 236.038084 
L 238.272367 238.98115 
L 238.597346 233.095018 
L 238.922326 230.151953 
L 239.247305 230.151953 
L 239.572285 224.265821 
L 239.897265 227.208887 
L 240.222244 224.265821 
L 240.547224 218.379689 
L 241.197183 212.493557 
L 241.847142 200.721294 
L 242.172121 200.721294 
L 242.82208 194.835162 
L 243.14706 186.005964 
L 243.472039 188.94903 
L 243.797019 180.119833 
L 244.121998 180.119833 
L 244.446978 177.176767 
L 245.096937 165.404503 
L 245.421916 165.404503 
L 245.746896 153.63224 
L 246.396855 147.746108 
L 247.046814 135.973845 
L 247.371794 135.973845 
L 248.021753 130.087713 
L 248.346732 118.315449 
L 248.671712 124.201581 
L 249.321671 109.486252 
L 250.621589 97.713988 
L 250.946568 91.827856 
L 252.246486 80.055593 
L 252.896446 80.055593 
L 253.221425 77.112527 
L 253.546405 68.283329 
L 253.871384 65.340264 
L 254.196364 68.283329 
L 254.846323 62.397198 
L 255.171302 62.397198 
L 255.496282 59.454132 
L 255.821261 59.454132 
L 256.146241 56.511066 
L 256.47122 56.511066 
L 256.7962 59.454132 
L 257.446159 53.568 
L 257.771138 56.511066 
L 258.096118 56.511066 
L 258.421097 59.454132 
L 258.746077 53.568 
L 259.071057 56.511066 
L 259.396036 56.511066 
L 259.721016 59.454132 
L 260.045995 59.454132 
L 260.370975 62.397198 
L 260.695954 62.397198 
L 261.020934 65.340264 
L 261.345913 62.397198 
L 261.670893 65.340264 
L 261.995872 74.169461 
L 262.320852 71.226395 
L 262.645831 74.169461 
L 262.970811 80.055593 
L 263.29579 80.055593 
L 263.62077 85.941725 
L 263.945749 85.941725 
L 264.270729 91.827856 
L 264.595708 91.827856 
L 264.920688 97.713988 
L 265.245667 97.713988 
L 265.570647 100.657054 
L 265.895627 106.543186 
L 266.545586 112.429318 
L 266.870565 121.258515 
L 267.845504 130.087713 
L 268.170483 135.973845 
L 268.495463 138.91691 
L 268.820442 144.803042 
L 269.145422 144.803042 
L 269.470401 153.63224 
L 269.795381 153.63224 
L 270.12036 159.518372 
L 270.44534 162.461437 
L 270.770319 171.290635 
L 271.095299 174.233701 
L 271.420278 183.062899 
L 271.745258 177.176767 
L 272.395217 191.892096 
L 272.720197 191.892096 
L 273.045176 194.835162 
L 273.370156 200.721294 
L 273.695135 203.66436 
L 274.020115 209.550491 
L 274.345094 206.607426 
L 274.670074 218.379689 
L 274.995053 218.379689 
L 275.320033 221.322755 
L 275.645012 227.208887 
L 275.969992 224.265821 
L 276.294971 230.151953 
L 276.94493 236.038084 
L 277.26991 236.038084 
L 277.594889 241.924216 
L 277.919869 244.867282 
L 278.569828 244.867282 
L 278.894808 247.810348 
L 279.219787 247.810348 
L 279.544767 244.867282 
L 279.869746 250.753414 
L 280.194726 250.753414 
L 280.519705 253.69648 
L 281.494644 253.69648 
L 281.819623 256.639545 
L 282.144603 253.69648 
L 282.794562 253.69648 
L 283.444521 247.810348 
L 283.7695 250.753414 
L 284.09448 247.810348 
L 284.419459 250.753414 
L 284.744439 244.867282 
L 285.069419 247.810348 
L 286.044357 238.98115 
L 286.694316 238.98115 
L 287.019296 236.038084 
L 287.344275 227.208887 
L 287.994234 227.208887 
L 288.319214 224.265821 
L 288.644193 215.436623 
L 288.969173 215.436623 
L 289.619132 209.550491 
L 289.944111 203.66436 
L 290.269091 203.66436 
L 290.59407 197.778228 
L 290.91905 194.835162 
L 291.244029 188.94903 
L 292.218968 180.119833 
L 292.543948 171.290635 
L 292.868927 168.347569 
L 293.193907 168.347569 
L 293.518886 159.518372 
L 294.493825 150.689174 
L 294.818804 144.803042 
L 295.143784 135.973845 
L 295.468763 138.91691 
L 296.118722 127.144647 
L 296.768681 121.258515 
L 297.093661 115.372383 
L 297.41864 112.429318 
L 297.74362 103.60012 
L 298.0686 103.60012 
L 298.393579 100.657054 
L 298.718559 94.770922 
L 299.043538 91.827856 
L 299.368518 91.827856 
L 300.018477 85.941725 
L 300.343456 80.055593 
L 300.668436 77.112527 
L 300.993415 77.112527 
L 301.643374 71.226395 
L 301.968354 71.226395 
L 302.293333 65.340264 
L 302.618313 65.340264 
L 302.943292 62.397198 
L 303.268272 62.397198 
L 303.918231 56.511066 
L 304.24321 56.511066 
L 304.56819 59.454132 
L 305.218149 59.454132 
L 305.543129 53.568 
L 306.193088 53.568 
L 306.518067 56.511066 
L 307.168026 56.511066 
L 307.493006 59.454132 
L 308.142965 59.454132 
L 308.792924 65.340264 
L 309.117903 62.397198 
L 310.417821 74.169461 
L 310.742801 71.226395 
L 311.067781 80.055593 
L 311.39276 80.055593 
L 311.71774 85.941725 
L 312.367699 91.827856 
L 312.692678 91.827856 
L 313.017658 97.713988 
L 313.342637 97.713988 
L 313.667617 106.543186 
L 314.317576 112.429318 
L 314.642555 112.429318 
L 314.967535 121.258515 
L 315.292514 124.201581 
L 315.617494 130.087713 
L 315.942473 130.087713 
L 316.267453 138.91691 
L 316.592432 141.859976 
L 316.917412 147.746108 
L 317.242391 150.689174 
L 317.567371 156.575306 
L 317.892351 156.575306 
L 318.21733 165.404503 
L 318.54231 162.461437 
L 318.867289 168.347569 
L 319.192269 177.176767 
L 319.842228 183.062899 
L 320.167207 188.94903 
L 320.492187 191.892096 
L 320.817166 197.778228 
L 321.142146 194.835162 
L 321.467125 200.721294 
L 321.792105 203.66436 
L 322.117084 209.550491 
L 322.767043 215.436623 
L 323.092023 215.436623 
L 323.417002 224.265821 
L 323.741982 221.322755 
L 324.391941 233.095018 
L 324.716921 230.151953 
L 326.016839 241.924216 
L 326.341818 241.924216 
L 326.991777 247.810348 
L 327.641736 247.810348 
L 327.966716 250.753414 
L 328.291695 250.753414 
L 328.616675 253.69648 
L 329.266634 247.810348 
L 329.591613 256.639545 
L 330.241572 250.753414 
L 330.566552 253.69648 
L 330.891532 250.753414 
L 331.216511 250.753414 
L 331.541491 244.867282 
L 331.86647 247.810348 
L 332.516429 247.810348 
L 332.841409 244.867282 
L 333.166388 244.867282 
L 333.491368 241.924216 
L 333.816347 241.924216 
L 334.141327 236.038084 
L 334.791286 236.038084 
L 335.116265 230.151953 
L 335.766224 224.265821 
L 336.416183 224.265821 
L 336.741163 212.493557 
L 337.066143 215.436623 
L 337.391122 206.607426 
L 337.716102 203.66436 
L 338.041081 203.66436 
L 338.366061 197.778228 
L 339.01602 191.892096 
L 339.340999 186.005964 
L 339.990958 180.119833 
L 340.315938 174.233701 
L 340.640917 165.404503 
L 340.965897 168.347569 
L 341.290876 162.461437 
L 341.615856 159.518372 
L 341.940835 147.746108 
L 342.265815 150.689174 
L 342.590794 141.859976 
L 344.215692 127.144647 
L 344.865651 112.429318 
L 345.190631 112.429318 
L 345.51561 109.486252 
L 345.84059 100.657054 
L 346.165569 100.657054 
L 346.490549 97.713988 
L 346.815528 97.713988 
L 347.140508 88.884791 
L 347.465487 85.941725 
L 347.790467 85.941725 
L 348.115446 80.055593 
L 348.440426 77.112527 
L 348.765405 77.112527 
L 349.090385 74.169461 
L 349.415364 74.169461 
L 349.740344 68.283329 
L 350.065324 65.340264 
L 350.390303 68.283329 
L 350.715283 62.397198 
L 351.040262 59.454132 
L 352.015201 59.454132 
L 352.34018 53.568 
L 352.66516 59.454132 
L 352.990139 56.511066 
L 354.290057 56.511066 
L 354.615037 59.454132 
L 354.940016 53.568 
L 355.589975 59.454132 
L 356.239934 59.454132 
L 356.564914 65.340264 
L 356.889894 65.340264 
L 357.214873 68.283329 
L 357.539853 68.283329 
L 357.864832 71.226395 
L 358.189812 71.226395 
L 358.514791 77.112527 
L 358.839771 80.055593 
L 359.16475 80.055593 
L 359.814709 91.827856 
L 360.139689 88.884791 
L 360.464668 91.827856 
L 360.789648 97.713988 
L 361.114627 97.713988 
L 361.439607 100.657054 
L 361.764586 109.486252 
L 362.414545 115.372383 
L 362.739525 115.372383 
L 363.064505 124.201581 
L 363.389484 127.144647 
L 363.714464 133.030779 
L 364.039443 135.973845 
L 364.364423 135.973845 
L 365.014382 147.746108 
L 365.339361 147.746108 
L 365.664341 153.63224 
L 365.98932 162.461437 
L 366.3143 162.461437 
L 366.639279 168.347569 
L 366.964259 171.290635 
L 367.614218 183.062899 
L 367.939197 183.062899 
L 368.264177 188.94903 
L 368.589156 191.892096 
L 368.914136 197.778228 
L 369.239115 200.721294 
L 369.564095 206.607426 
L 369.889075 209.550491 
L 370.214054 215.436623 
L 370.539034 215.436623 
L 370.864013 218.379689 
L 371.188993 224.265821 
L 371.513972 224.265821 
L 371.838952 221.322755 
L 372.163931 230.151953 
L 372.488911 233.095018 
L 372.81389 238.98115 
L 373.13887 233.095018 
L 373.463849 238.98115 
L 374.113808 244.867282 
L 374.438788 244.867282 
L 375.088747 250.753414 
L 375.413726 250.753414 
L 375.738706 247.810348 
L 376.063686 250.753414 
L 376.388665 256.639545 
L 377.038624 250.753414 
L 377.363604 253.69648 
L 377.688583 253.69648 
L 378.013563 256.639545 
L 378.338542 250.753414 
L 378.663522 253.69648 
L 378.988501 250.753414 
L 379.313481 253.69648 
L 379.63846 253.69648 
L 379.96344 250.753414 
L 380.288419 250.753414 
L 381.263358 241.924216 
L 381.913317 241.924216 
L 382.238296 236.038084 
L 382.563276 236.038084 
L 382.888256 233.095018 
L 383.213235 233.095018 
L 383.538215 224.265821 
L 383.863194 227.208887 
L 384.188174 221.322755 
L 384.513153 221.322755 
L 384.838133 218.379689 
L 385.163112 209.550491 
L 385.488092 209.550491 
L 385.813071 206.607426 
L 386.138051 200.721294 
L 386.46303 197.778228 
L 386.78801 191.892096 
L 387.112989 188.94903 
L 387.437969 183.062899 
L 387.762948 183.062899 
L 388.087928 177.176767 
L 388.412907 174.233701 
L 388.737887 162.461437 
L 389.062867 165.404503 
L 389.387846 162.461437 
L 389.712826 156.575306 
L 390.037805 153.63224 
L 390.362785 147.746108 
L 391.012744 141.859976 
L 391.337723 133.030779 
L 391.662703 130.087713 
L 391.987682 130.087713 
L 392.637641 115.372383 
L 392.962621 115.372383 
L 393.61258 109.486252 
L 393.937559 103.60012 
L 394.262539 103.60012 
L 394.587518 97.713988 
L 394.912498 97.713988 
L 395.237477 91.827856 
L 396.212416 82.998659 
L 396.862375 71.226395 
L 397.187355 77.112527 
L 397.512334 74.169461 
L 397.837314 68.283329 
L 398.487273 62.397198 
L 398.487273 62.397198 
" clip-path="url(#p92e8164b8f)" style="fill: none; stroke: #2ca02c; stroke-width: 1.5; stroke-linecap: square"/>
   </g>
   <g id="line2d_18">
    <path d="M 73.832727 163.050036 
L 74.157707 163.050036 
L 74.482686 165.993101 
L 74.807666 165.993101 
L 75.132645 168.936167 
L 75.457625 168.936167 
L 75.782604 171.879233 
L 76.107584 177.765365 
L 76.432563 180.708431 
L 76.757543 180.708431 
L 77.082523 183.651497 
L 78.057461 183.651497 
L 78.382441 189.537628 
L 78.70742 189.537628 
L 79.682359 198.366826 
L 80.007338 195.42376 
L 80.332318 201.309892 
L 80.657297 198.366826 
L 80.982277 207.196024 
L 81.307256 204.252958 
L 82.607174 216.025221 
L 82.932154 216.025221 
L 83.582113 221.911353 
L 83.907093 221.911353 
L 84.232072 224.854419 
L 84.557052 230.740551 
L 84.882031 230.740551 
L 85.207011 233.683617 
L 85.53199 230.740551 
L 85.85697 230.740551 
L 86.181949 236.626682 
L 86.506929 239.569748 
L 86.831908 239.569748 
L 87.481867 245.45588 
L 87.806847 245.45588 
L 88.131826 248.398946 
L 88.456806 248.398946 
L 88.781785 251.342012 
L 89.106765 248.398946 
L 89.431744 254.285078 
L 89.756724 254.285078 
L 90.406683 260.171209 
L 91.056642 260.171209 
L 91.706601 266.057341 
L 92.031581 266.057341 
L 92.68154 271.943473 
L 93.006519 266.057341 
L 93.981458 274.886539 
L 94.306437 271.943473 
L 94.631417 271.943473 
L 94.956396 277.829605 
L 95.606355 277.829605 
L 95.931335 280.772671 
L 96.256314 277.829605 
L 96.581294 283.715736 
L 98.206192 283.715736 
L 98.531171 286.658802 
L 98.856151 286.658802 
L 99.18113 283.715736 
L 99.50611 286.658802 
L 99.831089 286.658802 
L 100.156069 289.601868 
L 100.481048 286.658802 
L 100.806028 289.601868 
L 101.780966 289.601868 
L 102.105946 286.658802 
L 102.430925 286.658802 
L 102.755905 292.544934 
L 103.405864 292.544934 
L 103.730844 295.488 
L 104.055823 292.544934 
L 104.380803 292.544934 
L 105.030762 286.658802 
L 105.355741 292.544934 
L 105.680721 289.601868 
L 106.655659 289.601868 
L 106.980639 292.544934 
L 107.630598 286.658802 
L 107.955577 289.601868 
L 108.280557 289.601868 
L 108.605536 286.658802 
L 109.580475 286.658802 
L 109.905455 280.772671 
L 110.230434 283.715736 
L 110.555414 280.772671 
L 111.530352 280.772671 
L 111.855332 277.829605 
L 112.180311 280.772671 
L 112.83027 274.886539 
L 113.15525 277.829605 
L 113.805209 271.943473 
L 114.455168 271.943473 
L 114.780147 266.057341 
L 115.105127 266.057341 
L 115.430106 263.114275 
L 115.755086 266.057341 
L 116.080066 260.171209 
L 116.405045 263.114275 
L 117.055004 257.228144 
L 117.379984 260.171209 
L 119.004881 245.45588 
L 119.65484 245.45588 
L 120.629779 236.626682 
L 120.954758 236.626682 
L 121.279738 233.683617 
L 121.604717 233.683617 
L 122.254676 227.797485 
L 122.579656 227.797485 
L 122.904636 224.854419 
L 123.229615 224.854419 
L 123.879574 218.968287 
L 124.204554 218.968287 
L 125.179492 210.13909 
L 125.504472 204.252958 
L 125.829451 207.196024 
L 126.154431 207.196024 
L 126.47941 201.309892 
L 126.80439 201.309892 
L 127.454349 195.42376 
L 127.779328 198.366826 
L 128.104308 195.42376 
L 128.429287 189.537628 
L 128.754267 189.537628 
L 129.079247 186.594563 
L 129.404226 186.594563 
L 130.704144 174.822299 
L 131.354103 174.822299 
L 131.679083 171.879233 
L 132.004062 171.879233 
L 132.329042 165.993101 
L 132.654021 163.050036 
L 132.979001 165.993101 
L 133.62896 160.10697 
L 133.953939 160.10697 
L 134.928878 151.277772 
L 135.903817 151.277772 
L 136.878755 142.448574 
L 137.203735 142.448574 
L 137.853694 136.562443 
L 138.178673 139.505509 
L 138.828632 133.619377 
L 139.478591 133.619377 
L 139.803571 130.676311 
L 140.12855 130.676311 
L 140.45353 127.733245 
L 140.778509 127.733245 
L 141.103489 124.790179 
L 141.428468 124.790179 
L 142.078428 118.904047 
L 142.403407 121.847113 
L 142.728387 118.904047 
L 144.678264 118.904047 
L 145.653202 110.07485 
L 145.978182 110.07485 
L 146.303161 113.017916 
L 146.628141 107.131784 
L 146.95312 110.07485 
L 147.2781 107.131784 
L 147.603079 110.07485 
L 147.928059 110.07485 
L 148.253038 107.131784 
L 148.578018 110.07485 
L 148.902998 107.131784 
L 149.877936 107.131784 
L 150.202916 104.188718 
L 150.527895 107.131784 
L 150.852875 107.131784 
L 151.177854 104.188718 
L 151.502834 107.131784 
L 151.827813 104.188718 
L 152.152793 107.131784 
L 152.477772 104.188718 
L 152.802752 107.131784 
L 153.127731 104.188718 
L 153.452711 104.188718 
L 153.77769 107.131784 
L 155.402588 107.131784 
L 155.727568 110.07485 
L 156.052547 107.131784 
L 156.377527 110.07485 
L 156.702506 110.07485 
L 157.027486 107.131784 
L 157.352465 110.07485 
L 157.677445 110.07485 
L 158.002424 113.017916 
L 158.977363 113.017916 
L 159.302342 115.960982 
L 159.627322 115.960982 
L 159.952301 121.847113 
L 160.277281 118.904047 
L 160.60226 121.847113 
L 162.227158 121.847113 
L 162.552138 124.790179 
L 162.877117 124.790179 
L 163.202097 130.676311 
L 163.527076 127.733245 
L 164.502015 136.562443 
L 164.826994 133.619377 
L 165.151974 139.505509 
L 165.801933 139.505509 
L 166.126912 142.448574 
L 166.451892 142.448574 
L 166.776871 145.39164 
L 167.101851 145.39164 
L 167.75181 151.277772 
L 168.07679 151.277772 
L 168.401769 154.220838 
L 168.726749 151.277772 
L 169.051728 151.277772 
L 169.376708 160.10697 
L 169.701687 163.050036 
L 170.026667 163.050036 
L 170.351646 165.993101 
L 170.676626 165.993101 
L 171.001605 168.936167 
L 171.326585 168.936167 
L 171.976544 174.822299 
L 172.301523 174.822299 
L 173.276462 183.651497 
L 173.926421 183.651497 
L 174.2514 186.594563 
L 174.57638 192.480694 
L 174.90136 192.480694 
L 175.551319 198.366826 
L 175.876298 198.366826 
L 176.526257 204.252958 
L 177.176216 204.252958 
L 178.151155 213.082155 
L 178.476134 213.082155 
L 179.126093 218.968287 
L 179.451073 218.968287 
L 180.750991 230.740551 
L 181.40095 230.740551 
L 182.375889 239.569748 
L 182.700868 236.626682 
L 184.325766 251.342012 
L 184.650745 248.398946 
L 184.975725 251.342012 
L 185.300704 257.228144 
L 185.625684 251.342012 
L 185.950663 257.228144 
L 186.275643 257.228144 
L 186.600622 260.171209 
L 187.250581 260.171209 
L 187.575561 263.114275 
L 188.22552 263.114275 
L 188.5505 269.000407 
L 189.850418 269.000407 
L 190.500377 274.886539 
L 190.825356 274.886539 
L 191.150336 277.829605 
L 192.125274 277.829605 
L 192.450254 280.772671 
L 192.775233 280.772671 
L 193.100213 277.829605 
L 194.075152 286.658802 
L 194.400131 283.715736 
L 194.725111 283.715736 
L 195.37507 289.601868 
L 195.700049 289.601868 
L 196.025029 286.658802 
L 196.350008 289.601868 
L 196.674988 286.658802 
L 196.999967 286.658802 
L 197.324947 289.601868 
L 198.624865 289.601868 
L 198.949844 292.544934 
L 199.599803 286.658802 
L 199.924783 289.601868 
L 200.899722 289.601868 
L 201.224701 292.544934 
L 201.87466 292.544934 
L 202.19964 286.658802 
L 202.524619 289.601868 
L 202.849599 286.658802 
L 203.174578 289.601868 
L 203.499558 286.658802 
L 203.824537 286.658802 
L 204.149517 289.601868 
L 204.799476 289.601868 
L 205.449435 283.715736 
L 205.774414 286.658802 
L 206.424373 280.772671 
L 206.749353 283.715736 
L 207.399312 277.829605 
L 208.69923 277.829605 
L 209.02421 271.943473 
L 209.349189 274.886539 
L 209.999148 274.886539 
L 210.324128 269.000407 
L 210.649107 266.057341 
L 210.974087 269.000407 
L 211.624046 263.114275 
L 212.274005 263.114275 
L 212.598984 257.228144 
L 213.248943 257.228144 
L 213.573923 251.342012 
L 214.548862 251.342012 
L 214.873841 248.398946 
L 215.198821 248.398946 
L 215.5238 245.45588 
L 215.84878 239.569748 
L 216.173759 242.512814 
L 216.823718 236.626682 
L 217.148698 236.626682 
L 217.798657 230.740551 
L 218.448616 230.740551 
L 218.773595 224.854419 
L 219.423554 218.968287 
L 219.748534 221.911353 
L 220.073514 216.025221 
L 220.398493 216.025221 
L 220.723473 213.082155 
L 221.048452 207.196024 
L 221.373432 213.082155 
L 222.67335 201.309892 
L 222.998329 201.309892 
L 223.323309 195.42376 
L 223.648288 195.42376 
L 224.623227 186.594563 
L 224.948206 186.594563 
L 225.273186 183.651497 
L 225.598165 183.651497 
L 226.248124 177.765365 
L 226.898084 177.765365 
L 227.223063 171.879233 
L 227.873022 171.879233 
L 228.198002 168.936167 
L 228.522981 168.936167 
L 229.49792 160.10697 
L 230.147879 160.10697 
L 231.447797 148.334706 
L 232.422735 148.334706 
L 232.747715 142.448574 
L 233.072695 142.448574 
L 233.397674 139.505509 
L 233.722654 139.505509 
L 234.047633 136.562443 
L 234.372613 139.505509 
L 235.022572 133.619377 
L 235.347551 133.619377 
L 235.672531 130.676311 
L 235.99751 130.676311 
L 236.32249 127.733245 
L 237.297428 127.733245 
L 237.622408 121.847113 
L 237.947387 124.790179 
L 238.272367 124.790179 
L 238.597346 118.904047 
L 239.247305 118.904047 
L 239.572285 115.960982 
L 240.872203 115.960982 
L 241.522162 110.07485 
L 241.847142 110.07485 
L 242.172121 113.017916 
L 242.497101 113.017916 
L 242.82208 110.07485 
L 243.472039 110.07485 
L 243.797019 107.131784 
L 245.421916 107.131784 
L 245.746896 104.188718 
L 246.071876 107.131784 
L 246.396855 107.131784 
L 246.721835 104.188718 
L 247.046814 104.188718 
L 247.371794 107.131784 
L 247.696773 107.131784 
L 248.021753 104.188718 
L 248.346732 107.131784 
L 248.671712 107.131784 
L 248.996691 104.188718 
L 249.321671 107.131784 
L 249.64665 104.188718 
L 249.97163 104.188718 
L 250.296609 107.131784 
L 250.621589 107.131784 
L 250.946568 110.07485 
L 251.271548 107.131784 
L 251.596527 110.07485 
L 251.921507 104.188718 
L 252.896446 113.017916 
L 253.221425 113.017916 
L 253.546405 110.07485 
L 253.871384 113.017916 
L 254.521343 113.017916 
L 254.846323 115.960982 
L 255.171302 113.017916 
L 255.496282 115.960982 
L 255.821261 113.017916 
L 256.146241 118.904047 
L 256.47122 118.904047 
L 256.7962 121.847113 
L 257.446159 121.847113 
L 257.771138 124.790179 
L 258.096118 121.847113 
L 258.421097 121.847113 
L 258.746077 127.733245 
L 259.071057 127.733245 
L 259.396036 130.676311 
L 260.045995 130.676311 
L 260.370975 133.619377 
L 261.020934 133.619377 
L 261.670893 139.505509 
L 261.995872 145.39164 
L 262.320852 142.448574 
L 262.645831 142.448574 
L 262.970811 148.334706 
L 263.62077 148.334706 
L 264.270729 154.220838 
L 264.595708 154.220838 
L 265.245667 160.10697 
L 265.570647 160.10697 
L 265.895627 163.050036 
L 266.220606 163.050036 
L 266.545586 165.993101 
L 266.870565 165.993101 
L 267.520524 171.879233 
L 267.845504 171.879233 
L 268.820442 180.708431 
L 269.145422 180.708431 
L 270.12036 189.537628 
L 270.44534 189.537628 
L 270.770319 192.480694 
L 271.095299 192.480694 
L 271.420278 195.42376 
L 271.745258 201.309892 
L 272.395217 201.309892 
L 273.045176 207.196024 
L 273.370156 207.196024 
L 273.695135 213.082155 
L 274.020115 213.082155 
L 274.345094 216.025221 
L 274.670074 216.025221 
L 274.995053 218.968287 
L 275.320033 218.968287 
L 275.969992 224.854419 
L 276.294971 224.854419 
L 277.26991 233.683617 
L 277.594889 233.683617 
L 277.919869 236.626682 
L 278.244848 236.626682 
L 278.569828 242.512814 
L 278.894808 245.45588 
L 279.219787 242.512814 
L 279.544767 248.398946 
L 280.519705 248.398946 
L 281.169664 254.285078 
L 281.494644 254.285078 
L 281.819623 251.342012 
L 282.144603 257.228144 
L 282.469582 260.171209 
L 283.444521 260.171209 
L 283.7695 269.000407 
L 284.09448 269.000407 
L 284.419459 266.057341 
L 284.744439 271.943473 
L 285.394398 271.943473 
L 285.719378 274.886539 
L 286.044357 274.886539 
L 286.369337 271.943473 
L 286.694316 271.943473 
L 287.669255 280.772671 
L 288.319214 280.772671 
L 288.644193 277.829605 
L 288.969173 280.772671 
L 289.294152 286.658802 
L 289.619132 283.715736 
L 289.944111 289.601868 
L 290.269091 289.601868 
L 290.59407 283.715736 
L 291.244029 283.715736 
L 291.569009 286.658802 
L 292.218968 286.658802 
L 292.543948 292.544934 
L 292.868927 289.601868 
L 294.493825 289.601868 
L 294.818804 292.544934 
L 295.793743 292.544934 
L 296.118722 289.601868 
L 296.443702 292.544934 
L 296.768681 292.544934 
L 297.093661 289.601868 
L 298.393579 289.601868 
L 298.718559 286.658802 
L 300.343456 286.658802 
L 300.668436 283.715736 
L 300.993415 286.658802 
L 301.318395 283.715736 
L 301.643374 286.658802 
L 302.293333 280.772671 
L 303.268272 280.772671 
L 303.593251 277.829605 
L 303.918231 277.829605 
L 304.24321 274.886539 
L 304.56819 277.829605 
L 304.89317 277.829605 
L 305.218149 274.886539 
L 305.543129 274.886539 
L 306.193088 269.000407 
L 306.518067 269.000407 
L 307.493006 260.171209 
L 308.467944 260.171209 
L 308.792924 257.228144 
L 309.117903 257.228144 
L 309.442883 251.342012 
L 309.767862 254.285078 
L 310.417821 248.398946 
L 310.742801 251.342012 
L 312.042719 239.569748 
L 312.367699 239.569748 
L 313.017658 233.683617 
L 313.667617 233.683617 
L 313.992596 227.797485 
L 314.317576 227.797485 
L 314.642555 224.854419 
L 314.967535 224.854419 
L 315.292514 218.968287 
L 315.942473 218.968287 
L 316.267453 216.025221 
L 316.592432 216.025221 
L 318.21733 201.309892 
L 318.867289 201.309892 
L 319.192269 195.42376 
L 319.842228 189.537628 
L 320.167207 192.480694 
L 320.492187 192.480694 
L 320.817166 186.594563 
L 321.142146 183.651497 
L 321.467125 183.651497 
L 322.117084 177.765365 
L 322.442064 177.765365 
L 322.767043 174.822299 
L 323.092023 174.822299 
L 324.066962 165.993101 
L 324.391941 165.993101 
L 325.0419 160.10697 
L 325.691859 160.10697 
L 326.016839 154.220838 
L 326.666798 154.220838 
L 327.316757 148.334706 
L 327.641736 148.334706 
L 327.966716 145.39164 
L 328.291695 145.39164 
L 328.941654 139.505509 
L 329.916593 139.505509 
L 330.241572 133.619377 
L 330.566552 136.562443 
L 331.216511 130.676311 
L 331.86647 130.676311 
L 332.19145 124.790179 
L 332.841409 124.790179 
L 333.166388 121.847113 
L 333.491368 121.847113 
L 333.816347 118.904047 
L 334.791286 118.904047 
L 335.116265 115.960982 
L 337.066143 115.960982 
L 337.391122 110.07485 
L 337.716102 113.017916 
L 338.041081 110.07485 
L 338.366061 110.07485 
L 338.69104 107.131784 
L 339.01602 107.131784 
L 339.340999 110.07485 
L 339.665979 107.131784 
L 339.990958 110.07485 
L 340.315938 104.188718 
L 340.640917 107.131784 
L 341.290876 107.131784 
L 341.615856 104.188718 
L 342.265815 110.07485 
L 342.590794 104.188718 
L 342.915774 107.131784 
L 343.240753 107.131784 
L 343.565733 104.188718 
L 343.890713 107.131784 
L 344.215692 104.188718 
L 344.865651 104.188718 
L 345.190631 107.131784 
L 345.84059 101.245652 
L 346.490549 107.131784 
L 347.140508 107.131784 
L 347.465487 110.07485 
L 347.790467 107.131784 
L 348.115446 110.07485 
L 348.440426 107.131784 
L 349.090385 113.017916 
L 351.040262 113.017916 
L 351.690221 118.904047 
L 352.015201 115.960982 
L 352.66516 121.847113 
L 352.990139 118.904047 
L 353.315119 121.847113 
L 353.640098 121.847113 
L 353.965078 124.790179 
L 354.615037 124.790179 
L 354.940016 127.733245 
L 355.264996 127.733245 
L 355.589975 133.619377 
L 355.914955 130.676311 
L 356.239934 130.676311 
L 356.564914 139.505509 
L 356.889894 139.505509 
L 357.214873 136.562443 
L 357.539853 142.448574 
L 358.189812 142.448574 
L 358.514791 145.39164 
L 359.16475 145.39164 
L 359.814709 151.277772 
L 360.464668 151.277772 
L 360.789648 157.163904 
L 361.114627 157.163904 
L 361.439607 160.10697 
L 361.764586 165.993101 
L 362.089566 168.936167 
L 362.739525 168.936167 
L 363.064505 171.879233 
L 363.389484 171.879233 
L 364.039443 177.765365 
L 364.364423 177.765365 
L 364.689402 180.708431 
L 365.014382 180.708431 
L 365.339361 186.594563 
L 365.664341 186.594563 
L 365.98932 192.480694 
L 366.3143 189.537628 
L 366.639279 189.537628 
L 366.964259 198.366826 
L 367.289238 201.309892 
L 367.614218 198.366826 
L 367.939197 204.252958 
L 368.264177 201.309892 
L 368.589156 207.196024 
L 368.914136 207.196024 
L 369.564095 213.082155 
L 370.214054 213.082155 
L 370.539034 218.968287 
L 370.864013 218.968287 
L 371.188993 221.911353 
L 371.838952 221.911353 
L 372.163931 227.797485 
L 372.81389 233.683617 
L 373.463849 233.683617 
L 373.788829 239.569748 
L 374.438788 239.569748 
L 374.763767 242.512814 
L 375.088747 239.569748 
L 376.063686 248.398946 
L 376.388665 248.398946 
L 376.713645 251.342012 
L 377.038624 251.342012 
L 377.363604 257.228144 
L 378.013563 257.228144 
L 378.663522 263.114275 
L 378.988501 257.228144 
L 379.313481 263.114275 
L 379.63846 263.114275 
L 380.288419 269.000407 
L 380.613399 269.000407 
L 381.263358 274.886539 
L 381.588337 274.886539 
L 381.913317 271.943473 
L 382.563276 271.943473 
L 382.888256 277.829605 
L 383.213235 277.829605 
L 383.538215 283.715736 
L 383.863194 280.772671 
L 384.513153 280.772671 
L 384.838133 283.715736 
L 386.138051 283.715736 
L 386.46303 286.658802 
L 387.437969 286.658802 
L 387.762948 289.601868 
L 388.737887 289.601868 
L 389.062867 292.544934 
L 389.387846 286.658802 
L 389.712826 289.601868 
L 391.012744 289.601868 
L 391.337723 292.544934 
L 391.987682 292.544934 
L 392.312662 289.601868 
L 392.962621 289.601868 
L 393.2876 292.544934 
L 393.937559 292.544934 
L 394.262539 295.488 
L 394.587518 289.601868 
L 395.237477 289.601868 
L 395.562457 286.658802 
L 395.887437 289.601868 
L 396.212416 286.658802 
L 397.512334 286.658802 
L 397.837314 283.715736 
L 398.487273 283.715736 
L 398.487273 283.715736 
" clip-path="url(#p92e8164b8f)" style="fill: none; stroke: #d62728; stroke-width: 1.5; stroke-linecap: square"/>
   </g>
   <g id="patch_3">
    <path d="M 57.6 307.584 
L 57.6 41.472 
" style="fill: none; stroke: #000000; stroke-width: 0.8; stroke-linejoin: miter; stroke-linecap: square"/>
   </g>
   <g id="patch_4">
    <path d="M 414.72 307.584 
L 414.72 41.472 
" style="fill: none; stroke: #000000; stroke-width: 0.8; stroke-linejoin: miter; stroke-linecap: square"/>
   </g>
   <g id="patch_5">
    <path d="M 57.6 307.584 
L 414.72 307.584 
" style="fill: none; stroke: #000000; stroke-width: 0.8; stroke-linejoin: miter; stroke-linecap: square"/>
   </g>
   <g id="patch_6">
    <path d="M 57.6 41.472 
L 414.72 41.472 
" style="fill: none; stroke: #000000; stroke-width: 0.8; stroke-linejoin: miter; stroke-linecap: square"/>
   </g>
  </g>
 </g>
 <defs>
  <clipPath id="p92e8164b8f">
   <rect x="57.6" y="41.472" width="357.12" height="266.112"/>
  </clipPath>
 </defs>
</svg>
