<?xml version="1.0" encoding="utf-8" standalone="no"?>
<!DOCTYPE svg PUBLIC "-//W3C//DTD SVG 1.1//EN"
  "http://www.w3.org/Graphics/SVG/1.1/DTD/svg11.dtd">
<svg xmlns:xlink="http://www.w3.org/1999/xlink" width="460.8pt" height="345.6pt" viewBox="0 0 460.8 345.6" xmlns="http://www.w3.org/2000/svg" version="1.1">
 <metadata>
  <rdf:RDF xmlns:dc="http://purl.org/dc/elements/1.1/" xmlns:cc="http://creativecommons.org/ns#" xmlns:rdf="http://www.w3.org/1999/02/22-rdf-syntax-ns#">
   <cc:Work>
    <dc:type rdf:resource="http://purl.org/dc/dcmitype/StillImage"/>
    <dc:date>2025-12-29T09:09:42.011622</dc:date>
    <dc:format>image/svg+xml</dc:format>
    <dc:creator>
     <cc:Agent>
      <dc:title>Matplotlib v3.10.8, https://matplotlib.org/</dc:title>
     </cc:Agent>
    </dc:creator>
   </cc:Work>
  </rdf:RDF>
 </metadata>
 <defs>
  <style type="text/css">*{stroke-linejoin: round; stroke-linecap: butt}</style>
 </defs>
 <g id="figure_1">
  <g id="patch_1">
   <path d="M 0 345.6 
L 460.8 345.6 
L 460.8 0 
L 0 0 
z
" style="fill: #ffffff"/>
  </g>
  <g id="axes_1">
   <g id="patch_2">
    <path d="M 57.6 307.584 
L 414.72 307.584 
L 414.72 41.472 
L 57.6 41.472 
z
" style="fill: #ffffff"/>
   </g>
   <g id="matplotlib.axis_1">
    <g id="xtick_1">
     <g id="line2d_1">
      <defs>
       <path id="m6be810012a" d="M 0 0 
L 0 3.5 
" style="stroke: #000000; stroke-width: 0.8"/>
      </defs>
      <g>
       <use xlink:href="#m6be810012a" x="73.832727" y="307.584" style="stroke: #000000; stroke-width: 0.8"/>
      </g>
     </g>
     <g id="text_1">
      <!-- 0 -->
      <g transform="translate(70.651477 322.182437) scale(0.1 -0.1)">
       <defs>
        <path id="DejaVuSans-30" d="M 2034 4250 
Q 1547 4250 1301 3770 
Q 1056 3291 1056 2328 
Q 1056 1369 1301 889 
Q 1547 409 2034 409 
Q 2525 409 2770 889 
Q 3016 1369 3016 2328 
Q 3016 3291 2770 3770 
Q 2525 4250 2034 4250 
z
M 2034 4750 
Q 2819 4750 3233 4129 
Q 3647 3509 3647 2328 
Q 3647 1150 3233 529 
Q 2819 -91 2034 -91 
Q 1250 -91 836 529 
Q 422 1150 422 2328 
Q 422 3509 836 4129 
Q 1250 4750 2034 4750 
z
" transform="scale(0.015625)"/>
       </defs>
       <use xlink:href="#DejaVuSans-30"/>
      </g>
     </g>
    </g>
    <g id="xtick_2">
     <g id="line2d_2">
      <g>
       <use xlink:href="#m6be810012a" x="138.828632" y="307.584" style="stroke: #000000; stroke-width: 0.8"/>
      </g>
     </g>
     <g id="text_2">
      <!-- 1 -->
      <g transform="translate(135.647382 322.182437) scale(0.1 -0.1)">
       <defs>
        <path id="DejaVuSans-31" d="M 794 531 
L 1825 531 
L 1825 4091 
L 703 3866 
L 703 4441 
L 1819 4666 
L 2450 4666 
L 2450 531 
L 3481 531 
L 3481 0 
L 794 0 
L 794 531 
z
" transform="scale(0.015625)"/>
       </defs>
       <use xlink:href="#DejaVuSans-31"/>
      </g>
     </g>
    </g>
    <g id="xtick_3">
     <g id="line2d_3">
      <g>
       <use xlink:href="#m6be810012a" x="203.824537" y="307.584" style="stroke: #000000; stroke-width: 0.8"/>
      </g>
     </g>
     <g id="text_3">
      <!-- 2 -->
      <g transform="translate(200.643287 322.182437) scale(0.1 -0.1)">
       <defs>
        <path id="DejaVuSans-32" d="M 1228 531 
L 3431 531 
L 3431 0 
L 469 0 
L 469 531 
Q 828 903 1448 1529 
Q 2069 2156 2228 2338 
Q 2531 2678 2651 2914 
Q 2772 3150 2772 3378 
Q 2772 3750 2511 3984 
Q 2250 4219 1831 4219 
Q 1534 4219 1204 4116 
Q 875 4013 500 3803 
L 500 4441 
Q 881 4594 1212 4672 
Q 1544 4750 1819 4750 
Q 2544 4750 2975 4387 
Q 3406 4025 3406 3419 
Q 3406 3131 3298 2873 
Q 3191 2616 2906 2266 
Q 2828 2175 2409 1742 
Q 1991 1309 1228 531 
z
" transform="scale(0.015625)"/>
       </defs>
       <use xlink:href="#DejaVuSans-32"/>
      </g>
     </g>
    </g>
    <g id="xtick_4">
     <g id="line2d_4">
      <g>
       <use xlink:href="#m6be810012a" x="268.820442" y="307.584" style="stroke: #000000; stroke-width: 0.8"/>
      </g>
     </g>
     <g id="text_4">
      <!-- 3 -->
      <g transform="translate(265.639192 322.182437) scale(0.1 -0.1)">
       <defs>
        <path id="DejaVuSans-33" d="M 2597 2516 
Q 3050 2419 3304 2112 
Q 3559 1806 3559 1356 
Q 3559 666 3084 287 
Q 2609 -91 1734 -91 
Q 1441 -91 1130 -33 
Q 819 25 488 141 
L 488 750 
Q 750 597 1062 519 
Q 1375 441 1716 441 
Q 2309 441 2620 675 
Q 2931 909 2931 1356 
Q 2931 1769 2642 2001 
Q 2353 2234 1838 2234 
L 1294 2234 
L 1294 2753 
L 1863 2753 
Q 2328 2753 2575 2939 
Q 2822 3125 2822 3475 
Q 2822 3834 2567 4026 
Q 2313 4219 1838 4219 
Q 1578 4219 1281 4162 
Q 984 4106 628 3988 
L 628 4550 
Q 988 4650 1302 4700 
Q 1616 4750 1894 4750 
Q 2613 4750 3031 4423 
Q 3450 4097 3450 3541 
Q 3450 3153 3228 2886 
Q 3006 2619 2597 2516 
z
" transform="scale(0.015625)"/>
       </defs>
       <use xlink:href="#DejaVuSans-33"/>
      </g>
     </g>
    </g>
    <g id="xtick_5">
     <g id="line2d_5">
      <g>
       <use xlink:href="#m6be810012a" x="333.816347" y="307.584" style="stroke: #000000; stroke-width: 0.8"/>
      </g>
     </g>
     <g id="text_5">
      <!-- 4 -->
      <g transform="translate(330.635097 322.182437) scale(0.1 -0.1)">
       <defs>
        <path id="DejaVuSans-34" d="M 2419 4116 
L 825 1625 
L 2419 1625 
L 2419 4116 
z
M 2253 4666 
L 3047 4666 
L 3047 1625 
L 3713 1625 
L 3713 1100 
L 3047 1100 
L 3047 0 
L 2419 0 
L 2419 1100 
L 313 1100 
L 313 1709 
L 2253 4666 
z
" transform="scale(0.015625)"/>
       </defs>
       <use xlink:href="#DejaVuSans-34"/>
      </g>
     </g>
    </g>
    <g id="xtick_6">
     <g id="line2d_6">
      <g>
       <use xlink:href="#m6be810012a" x="398.812252" y="307.584" style="stroke: #000000; stroke-width: 0.8"/>
      </g>
     </g>
     <g id="text_6">
      <!-- 5 -->
      <g transform="translate(395.631002 322.182437) scale(0.1 -0.1)">
       <defs>
        <path id="DejaVuSans-35" d="M 691 4666 
L 3169 4666 
L 3169 4134 
L 1269 4134 
L 1269 2991 
Q 1406 3038 1543 3061 
Q 1681 3084 1819 3084 
Q 2600 3084 3056 2656 
Q 3513 2228 3513 1497 
Q 3513 744 3044 326 
Q 2575 -91 1722 -91 
Q 1428 -91 1123 -41 
Q 819 9 494 109 
L 494 744 
Q 775 591 1075 516 
Q 1375 441 1709 441 
Q 2250 441 2565 725 
Q 2881 1009 2881 1497 
Q 2881 1984 2565 2268 
Q 2250 2553 1709 2553 
Q 1456 2553 1204 2497 
Q 953 2441 691 2322 
L 691 4666 
z
" transform="scale(0.015625)"/>
       </defs>
       <use xlink:href="#DejaVuSans-35"/>
      </g>
     </g>
    </g>
    <g id="text_7">
     <!-- 1e−7 -->
     <g transform="translate(387.462188 334.860562) scale(0.1 -0.1)">
      <defs>
       <path id="DejaVuSans-65" d="M 3597 1894 
L 3597 1613 
L 953 1613 
Q 991 1019 1311 708 
Q 1631 397 2203 397 
Q 2534 397 2845 478 
Q 3156 559 3463 722 
L 3463 178 
Q 3153 47 2828 -22 
Q 2503 -91 2169 -91 
Q 1331 -91 842 396 
Q 353 884 353 1716 
Q 353 2575 817 3079 
Q 1281 3584 2069 3584 
Q 2775 3584 3186 3129 
Q 3597 2675 3597 1894 
z
M 3022 2063 
Q 3016 2534 2758 2815 
Q 2500 3097 2075 3097 
Q 1594 3097 1305 2825 
Q 1016 2553 972 2059 
L 3022 2063 
z
" transform="scale(0.015625)"/>
       <path id="DejaVuSans-2212" d="M 678 2272 
L 4684 2272 
L 4684 1741 
L 678 1741 
L 678 2272 
z
" transform="scale(0.015625)"/>
       <path id="DejaVuSans-37" d="M 525 4666 
L 3525 4666 
L 3525 4397 
L 1831 0 
L 1172 0 
L 2766 4134 
L 525 4134 
L 525 4666 
z
" transform="scale(0.015625)"/>
      </defs>
      <use xlink:href="#DejaVuSans-31"/>
      <use xlink:href="#DejaVuSans-65" transform="translate(63.623047 0)"/>
      <use xlink:href="#DejaVuSans-2212" transform="translate(125.146484 0)"/>
      <use xlink:href="#DejaVuSans-37" transform="translate(208.935547 0)"/>
     </g>
    </g>
   </g>
   <g id="matplotlib.axis_2">
    <g id="ytick_1">
     <g id="line2d_7">
      <defs>
       <path id="mea38555c2f" d="M 0 0 
L -3.5 0 
" style="stroke: #000000; stroke-width: 0.8"/>
      </defs>
      <g>
       <use xlink:href="#mea38555c2f" x="57.6" y="265.24798" style="stroke: #000000; stroke-width: 0.8"/>
      </g>
     </g>
     <g id="text_8">
      <!-- −20 -->
      <g transform="translate(29.495313 269.047199) scale(0.1 -0.1)">
       <use xlink:href="#DejaVuSans-2212"/>
       <use xlink:href="#DejaVuSans-32" transform="translate(83.789062 0)"/>
       <use xlink:href="#DejaVuSans-30" transform="translate(147.412109 0)"/>
      </g>
     </g>
    </g>
    <g id="ytick_2">
     <g id="line2d_8">
      <g>
       <use xlink:href="#mea38555c2f" x="57.6" y="222.239983" style="stroke: #000000; stroke-width: 0.8"/>
      </g>
     </g>
     <g id="text_9">
      <!-- 0 -->
      <g transform="translate(44.2375 226.039202) scale(0.1 -0.1)">
       <use xlink:href="#DejaVuSans-30"/>
      </g>
     </g>
    </g>
    <g id="ytick_3">
     <g id="line2d_9">
      <g>
       <use xlink:href="#mea38555c2f" x="57.6" y="179.231985" style="stroke: #000000; stroke-width: 0.8"/>
      </g>
     </g>
     <g id="text_10">
      <!-- 20 -->
      <g transform="translate(37.875 183.031204) scale(0.1 -0.1)">
       <use xlink:href="#DejaVuSans-32"/>
       <use xlink:href="#DejaVuSans-30" transform="translate(63.623047 0)"/>
      </g>
     </g>
    </g>
    <g id="ytick_4">
     <g id="line2d_10">
      <g>
       <use xlink:href="#mea38555c2f" x="57.6" y="136.223988" style="stroke: #000000; stroke-width: 0.8"/>
      </g>
     </g>
     <g id="text_11">
      <!-- 40 -->
      <g transform="translate(37.875 140.023207) scale(0.1 -0.1)">
       <use xlink:href="#DejaVuSans-34"/>
       <use xlink:href="#DejaVuSans-30" transform="translate(63.623047 0)"/>
      </g>
     </g>
    </g>
    <g id="ytick_5">
     <g id="line2d_11">
      <g>
       <use xlink:href="#mea38555c2f" x="57.6" y="93.215991" style="stroke: #000000; stroke-width: 0.8"/>
      </g>
     </g>
     <g id="text_12">
      <!-- 60 -->
      <g transform="translate(37.875 97.01521) scale(0.1 -0.1)">
       <defs>
        <path id="DejaVuSans-36" d="M 2113 2584 
Q 1688 2584 1439 2293 
Q 1191 2003 1191 1497 
Q 1191 994 1439 701 
Q 1688 409 2113 409 
Q 2538 409 2786 701 
Q 3034 994 3034 1497 
Q 3034 2003 2786 2293 
Q 2538 2584 2113 2584 
z
M 3366 4563 
L 3366 3988 
Q 3128 4100 2886 4159 
Q 2644 4219 2406 4219 
Q 1781 4219 1451 3797 
Q 1122 3375 1075 2522 
Q 1259 2794 1537 2939 
Q 1816 3084 2150 3084 
Q 2853 3084 3261 2657 
Q 3669 2231 3669 1497 
Q 3669 778 3244 343 
Q 2819 -91 2113 -91 
Q 1303 -91 875 529 
Q 447 1150 447 2328 
Q 447 3434 972 4092 
Q 1497 4750 2381 4750 
Q 2619 4750 2861 4703 
Q 3103 4656 3366 4563 
z
" transform="scale(0.015625)"/>
       </defs>
       <use xlink:href="#DejaVuSans-36"/>
       <use xlink:href="#DejaVuSans-30" transform="translate(63.623047 0)"/>
      </g>
     </g>
    </g>
    <g id="ytick_6">
     <g id="line2d_12">
      <g>
       <use xlink:href="#mea38555c2f" x="57.6" y="50.207993" style="stroke: #000000; stroke-width: 0.8"/>
      </g>
     </g>
     <g id="text_13">
      <!-- 80 -->
      <g transform="translate(37.875 54.007212) scale(0.1 -0.1)">
       <defs>
        <path id="DejaVuSans-38" d="M 2034 2216 
Q 1584 2216 1326 1975 
Q 1069 1734 1069 1313 
Q 1069 891 1326 650 
Q 1584 409 2034 409 
Q 2484 409 2743 651 
Q 3003 894 3003 1313 
Q 3003 1734 2745 1975 
Q 2488 2216 2034 2216 
z
M 1403 2484 
Q 997 2584 770 2862 
Q 544 3141 544 3541 
Q 544 4100 942 4425 
Q 1341 4750 2034 4750 
Q 2731 4750 3128 4425 
Q 3525 4100 3525 3541 
Q 3525 3141 3298 2862 
Q 3072 2584 2669 2484 
Q 3125 2378 3379 2068 
Q 3634 1759 3634 1313 
Q 3634 634 3220 271 
Q 2806 -91 2034 -91 
Q 1263 -91 848 271 
Q 434 634 434 1313 
Q 434 1759 690 2068 
Q 947 2378 1403 2484 
z
M 1172 3481 
Q 1172 3119 1398 2916 
Q 1625 2713 2034 2713 
Q 2441 2713 2670 2916 
Q 2900 3119 2900 3481 
Q 2900 3844 2670 4047 
Q 2441 4250 2034 4250 
Q 1625 4250 1398 4047 
Q 1172 3844 1172 3481 
z
" transform="scale(0.015625)"/>
       </defs>
       <use xlink:href="#DejaVuSans-38"/>
       <use xlink:href="#DejaVuSans-30" transform="translate(63.623047 0)"/>
      </g>
     </g>
    </g>
   </g>
   <g id="line2d_13">
    <path d="M 73.832727 225.59998 
L 74.157707 223.91998 
L 74.482686 225.59998 
L 75.457625 225.59998 
L 75.782604 222.23998 
L 76.107584 223.91998 
L 76.432563 222.23998 
L 76.757543 223.91998 
L 77.082523 223.91998 
L 77.407502 225.59998 
L 77.732482 223.91998 
L 78.382441 223.91998 
L 78.70742 225.59998 
L 79.0324 225.59998 
L 79.357379 223.91998 
L 79.682359 225.59998 
L 80.982277 225.59998 
L 81.307256 223.91998 
L 81.957215 223.91998 
L 82.282195 225.59998 
L 82.607174 223.91998 
L 83.257133 223.91998 
L 83.582113 225.59998 
L 83.907093 222.23998 
L 84.232072 222.23998 
L 84.557052 220.55998 
L 84.882031 217.19998 
L 86.181949 197.03998 
L 86.506929 195.35998 
L 87.156888 198.71998 
L 87.481867 195.35998 
L 88.456806 168.47998 
L 88.781785 170.15998 
L 89.106765 178.55998 
L 89.431744 181.91998 
L 89.756724 173.51998 
L 90.406683 148.31998 
L 90.731663 146.63998 
L 91.381622 161.75998 
L 91.706601 161.75998 
L 92.35656 141.59998 
L 92.68154 138.23998 
L 93.006519 139.91998 
L 93.331499 144.95998 
L 93.656478 143.27998 
L 94.306437 133.19998 
L 94.631417 133.19998 
L 94.956396 136.55998 
L 95.281376 138.23998 
L 95.606355 133.19998 
L 95.931335 124.79998 
L 96.256314 123.11998 
L 96.581294 126.47998 
L 96.906274 133.19998 
L 97.231253 134.87998 
L 97.881212 124.79998 
L 98.206192 123.11998 
L 98.531171 123.11998 
L 98.856151 128.15998 
L 99.18113 128.15998 
L 99.50611 124.79998 
L 99.831089 124.79998 
L 100.156069 126.47998 
L 100.481048 131.51998 
L 100.806028 128.15998 
L 101.131007 123.11998 
L 101.455987 121.43998 
L 101.780966 123.11998 
L 102.105946 131.51998 
L 102.430925 133.19998 
L 102.755905 133.19998 
L 103.080885 129.83998 
L 103.405864 128.15998 
L 104.055823 128.15998 
L 104.380803 133.19998 
L 104.705782 131.51998 
L 105.355741 131.51998 
L 105.680721 133.19998 
L 106.0057 136.55998 
L 106.33068 133.19998 
L 106.980639 129.83998 
L 107.955577 139.91998 
L 108.280557 139.91998 
L 108.930516 133.19998 
L 109.255495 131.51998 
L 109.580475 136.55998 
L 109.905455 136.55998 
L 110.230434 138.23998 
L 110.555414 138.23998 
L 111.205373 134.87998 
L 111.530352 134.87998 
L 111.855332 136.55998 
L 112.180311 133.19998 
L 112.505291 136.55998 
L 112.83027 134.87998 
L 113.480229 134.87998 
L 113.805209 133.19998 
L 114.130188 133.19998 
L 114.455168 131.51998 
L 114.780147 133.19998 
L 115.105127 131.51998 
L 115.430106 133.19998 
L 116.405045 133.19998 
L 116.730025 129.83998 
L 117.055004 131.51998 
L 117.379984 128.15998 
L 117.704963 126.47998 
L 118.029943 126.47998 
L 118.679902 129.83998 
L 119.004881 129.83998 
L 119.329861 128.15998 
L 119.65484 123.11998 
L 119.97982 124.79998 
L 120.304799 123.11998 
L 120.629779 126.47998 
L 120.954758 126.47998 
L 121.279738 128.15998 
L 121.604717 124.79998 
L 121.929697 123.11998 
L 122.254676 124.79998 
L 122.579656 124.79998 
L 122.904636 126.47998 
L 123.554595 123.11998 
L 123.879574 124.79998 
L 124.529533 124.79998 
L 125.179492 128.15998 
L 125.504472 123.11998 
L 125.829451 124.79998 
L 126.154431 124.79998 
L 126.47941 128.15998 
L 126.80439 128.15998 
L 127.454349 131.51998 
L 127.779328 128.15998 
L 128.754267 133.19998 
L 129.079247 138.23998 
L 130.054185 138.23998 
L 130.379165 141.59998 
L 130.704144 141.59998 
L 131.029124 143.27998 
L 131.354103 146.63998 
L 131.679083 148.31998 
L 132.004062 148.31998 
L 132.329042 151.67998 
L 132.654021 151.67998 
L 132.979001 155.03998 
L 133.953939 160.07998 
L 134.278919 163.43998 
L 134.603898 163.43998 
L 134.928878 166.79998 
L 135.253857 168.47998 
L 135.578837 171.83998 
L 135.903817 173.51998 
L 136.228796 176.87998 
L 137.528714 183.59998 
L 138.178673 190.31998 
L 139.478591 197.03998 
L 139.803571 200.39998 
L 140.12855 202.07998 
L 140.45353 202.07998 
L 140.778509 205.43998 
L 141.428468 208.79998 
L 141.753448 208.79998 
L 142.078428 212.15998 
L 142.403407 212.15998 
L 143.378346 217.19998 
L 143.703325 220.55998 
L 144.353284 220.55998 
L 144.678264 222.23998 
L 145.003243 222.23998 
L 145.328223 223.91998 
L 145.653202 222.23998 
L 145.978182 225.59998 
L 146.303161 227.27998 
L 146.628141 223.91998 
L 146.95312 225.59998 
L 148.253038 225.59998 
L 148.578018 223.91998 
L 148.902998 225.59998 
L 149.227977 223.91998 
L 149.552957 225.59998 
L 150.202916 222.23998 
L 150.527895 223.91998 
L 150.852875 222.23998 
L 151.177854 223.91998 
L 151.502834 223.91998 
L 152.152793 220.55998 
L 152.477772 222.23998 
L 152.802752 222.23998 
L 153.127731 218.87998 
L 153.452711 220.55998 
L 153.77769 220.55998 
L 154.10267 223.91998 
L 156.377527 223.91998 
L 156.702506 225.59998 
L 157.027486 223.91998 
L 157.677445 223.91998 
L 158.002424 225.59998 
L 158.327404 222.23998 
L 158.652383 223.91998 
L 158.977363 222.23998 
L 159.627322 222.23998 
L 159.952301 223.91998 
L 160.277281 223.91998 
L 160.60226 222.23998 
L 160.92724 223.91998 
L 161.252219 222.23998 
L 161.577199 223.91998 
L 161.902179 223.91998 
L 162.227158 225.59998 
L 162.552138 223.91998 
L 162.877117 225.59998 
L 163.202097 223.91998 
L 163.527076 223.91998 
L 163.852056 225.59998 
L 164.177035 223.91998 
L 164.502015 225.59998 
L 164.826994 223.91998 
L 165.151974 223.91998 
L 165.476953 222.23998 
L 166.126912 225.59998 
L 166.451892 222.23998 
L 166.776871 223.91998 
L 167.42683 223.91998 
L 167.75181 225.59998 
L 168.401769 225.59998 
L 168.726749 222.23998 
L 169.051728 225.59998 
L 169.701687 225.59998 
L 170.026667 223.91998 
L 170.351646 223.91998 
L 170.676626 225.59998 
L 171.326585 225.59998 
L 171.651564 222.23998 
L 171.976544 223.91998 
L 172.951482 223.91998 
L 173.276462 225.59998 
L 174.90136 225.59998 
L 175.226339 223.91998 
L 175.551319 225.59998 
L 175.876298 223.91998 
L 176.851237 223.91998 
L 177.176216 225.59998 
L 177.501196 223.91998 
L 178.151155 223.91998 
L 178.476134 225.59998 
L 179.451073 225.59998 
L 179.776052 223.91998 
L 180.101032 223.91998 
L 180.750991 217.19998 
L 182.050909 195.35998 
L 182.375889 195.35998 
L 182.700868 198.71998 
L 183.025848 197.03998 
L 183.350827 193.67998 
L 184.325766 170.15998 
L 184.975725 176.87998 
L 185.300704 181.91998 
L 185.625684 173.51998 
L 186.275643 149.99998 
L 186.600622 146.63998 
L 187.250581 161.75998 
L 187.575561 161.75998 
L 188.5505 134.87998 
L 189.200459 144.95998 
L 189.850418 138.23998 
L 190.175397 131.51998 
L 190.825356 138.23998 
L 191.150336 138.23998 
L 191.475315 133.19998 
L 191.800295 124.79998 
L 192.125274 121.43998 
L 192.450254 124.79998 
L 192.775233 133.19998 
L 193.100213 133.19998 
L 193.425192 129.83998 
L 193.750172 121.43998 
L 194.075152 121.43998 
L 194.400131 124.79998 
L 194.725111 124.79998 
L 195.05009 128.15998 
L 195.37507 123.11998 
L 196.025029 126.47998 
L 196.350008 129.83998 
L 196.674988 128.15998 
L 196.999967 124.79998 
L 197.649926 121.43998 
L 197.974906 129.83998 
L 198.624865 133.19998 
L 198.949844 129.83998 
L 199.599803 126.47998 
L 199.924783 128.15998 
L 200.249762 133.19998 
L 200.899722 133.19998 
L 201.224701 131.51998 
L 201.87466 134.87998 
L 202.19964 134.87998 
L 202.524619 131.51998 
L 202.849599 129.83998 
L 203.174578 133.19998 
L 203.499558 134.87998 
L 203.824537 138.23998 
L 204.149517 138.23998 
L 204.799476 131.51998 
L 205.449435 134.87998 
L 205.774414 138.23998 
L 206.099394 138.23998 
L 206.424373 136.55998 
L 206.749353 138.23998 
L 207.074333 136.55998 
L 207.724292 136.55998 
L 208.049271 133.19998 
L 208.374251 136.55998 
L 208.69923 134.87998 
L 209.02421 136.55998 
L 209.349189 136.55998 
L 209.999148 133.19998 
L 210.649107 133.19998 
L 210.974087 131.51998 
L 212.923964 131.51998 
L 213.248943 128.15998 
L 213.573923 128.15998 
L 213.898903 126.47998 
L 214.223882 129.83998 
L 214.873841 129.83998 
L 215.198821 126.47998 
L 215.5238 124.79998 
L 215.84878 126.47998 
L 216.173759 124.79998 
L 216.498739 126.47998 
L 216.823718 124.79998 
L 217.148698 126.47998 
L 217.473677 126.47998 
L 218.123636 123.11998 
L 218.448616 123.11998 
L 218.773595 124.79998 
L 219.098575 123.11998 
L 219.423554 124.79998 
L 219.748534 123.11998 
L 220.398493 126.47998 
L 220.723473 124.79998 
L 221.373432 124.79998 
L 221.698411 126.47998 
L 222.023391 126.47998 
L 222.67335 129.83998 
L 223.323309 129.83998 
L 223.648288 128.15998 
L 223.973268 131.51998 
L 224.298247 129.83998 
L 224.623227 133.19998 
L 225.598165 138.23998 
L 225.923145 138.23998 
L 226.248124 139.91998 
L 226.573104 139.91998 
L 226.898084 143.27998 
L 227.223063 144.95998 
L 227.548043 148.31998 
L 227.873022 148.31998 
L 228.198002 151.67998 
L 228.522981 151.67998 
L 228.847961 153.35998 
L 229.17294 158.39998 
L 229.49792 158.39998 
L 229.822899 161.75998 
L 230.472858 165.11998 
L 230.797838 168.47998 
L 231.122817 170.15998 
L 231.447797 173.51998 
L 231.772776 173.51998 
L 232.422735 176.87998 
L 232.747715 181.91998 
L 233.072695 183.59998 
L 233.397674 186.95998 
L 233.722654 186.95998 
L 234.047633 188.63998 
L 234.372613 191.99998 
L 234.697592 191.99998 
L 235.022572 195.35998 
L 235.347551 197.03998 
L 235.672531 200.39998 
L 236.647469 205.43998 
L 236.972449 205.43998 
L 237.297428 208.79998 
L 237.622408 208.79998 
L 240.222244 222.23998 
L 240.547224 220.55998 
L 240.872203 220.55998 
L 241.197183 222.23998 
L 241.522162 222.23998 
L 241.847142 225.59998 
L 242.497101 225.59998 
L 242.82208 223.91998 
L 243.14706 225.59998 
L 244.121998 225.59998 
L 244.446978 223.91998 
L 244.771957 227.27998 
L 245.096937 225.59998 
L 245.421916 225.59998 
L 245.746896 223.91998 
L 246.071876 223.91998 
L 246.396855 222.23998 
L 247.371794 222.23998 
L 247.696773 223.91998 
L 248.021753 222.23998 
L 248.671712 222.23998 
L 248.996691 220.55998 
L 249.321671 222.23998 
L 249.64665 222.23998 
L 249.97163 223.91998 
L 250.946568 223.91998 
L 251.271548 225.59998 
L 251.596527 223.91998 
L 252.571466 223.91998 
L 252.896446 222.23998 
L 253.221425 223.91998 
L 253.546405 223.91998 
L 253.871384 225.59998 
L 254.196364 223.91998 
L 254.521343 223.91998 
L 254.846323 220.55998 
L 255.171302 222.23998 
L 255.496282 222.23998 
L 255.821261 223.91998 
L 256.146241 222.23998 
L 257.121179 222.23998 
L 257.446159 223.91998 
L 257.771138 223.91998 
L 258.096118 225.59998 
L 258.421097 223.91998 
L 259.071057 223.91998 
L 259.396036 225.59998 
L 259.721016 225.59998 
L 260.045995 223.91998 
L 260.370975 223.91998 
L 260.695954 222.23998 
L 261.345913 222.23998 
L 261.670893 223.91998 
L 262.970811 223.91998 
L 263.29579 225.59998 
L 263.62077 223.91998 
L 263.945749 225.59998 
L 264.920688 225.59998 
L 265.245667 223.91998 
L 265.570647 227.27998 
L 266.220606 223.91998 
L 266.545586 223.91998 
L 266.870565 225.59998 
L 267.520524 225.59998 
L 268.170483 222.23998 
L 268.495463 223.91998 
L 268.820442 223.91998 
L 269.145422 225.59998 
L 270.12036 225.59998 
L 270.44534 223.91998 
L 270.770319 225.59998 
L 271.420278 225.59998 
L 271.745258 223.91998 
L 272.070238 225.59998 
L 273.045176 225.59998 
L 273.370156 223.91998 
L 273.695135 225.59998 
L 274.020115 223.91998 
L 274.345094 223.91998 
L 274.670074 225.59998 
L 274.995053 223.91998 
L 275.320033 225.59998 
L 275.645012 222.23998 
L 275.969992 222.23998 
L 276.294971 220.55998 
L 277.919869 195.35998 
L 278.569828 198.71998 
L 278.894808 198.71998 
L 279.219787 193.67998 
L 279.869746 175.19998 
L 280.194726 170.15998 
L 280.519705 171.83998 
L 280.844685 175.19998 
L 281.169664 181.91998 
L 281.494644 175.19998 
L 282.144603 149.99998 
L 282.469582 148.31998 
L 282.794562 153.35998 
L 283.119541 161.75998 
L 283.444521 161.75998 
L 284.419459 134.87998 
L 285.069419 144.95998 
L 285.394398 144.95998 
L 286.044357 129.83998 
L 286.694316 136.55998 
L 287.019296 138.23998 
L 287.344275 133.19998 
L 287.669255 124.79998 
L 287.994234 121.43998 
L 288.969173 134.87998 
L 289.294152 131.51998 
L 289.619132 123.11998 
L 289.944111 121.43998 
L 290.269091 126.47998 
L 290.59407 128.15998 
L 290.91905 126.47998 
L 291.244029 123.11998 
L 291.569009 126.47998 
L 291.893989 126.47998 
L 292.218968 131.51998 
L 293.193907 121.43998 
L 293.518886 123.11998 
L 294.168845 133.19998 
L 294.493825 133.19998 
L 294.818804 128.15998 
L 295.143784 126.47998 
L 296.118722 131.51998 
L 296.443702 129.83998 
L 296.768681 133.19998 
L 297.093661 131.51998 
L 297.74362 134.87998 
L 298.393579 131.51998 
L 298.718559 128.15998 
L 299.043538 133.19998 
L 299.368518 134.87998 
L 299.693497 138.23998 
L 300.343456 134.87998 
L 300.668436 134.87998 
L 300.993415 133.19998 
L 301.318395 134.87998 
L 301.643374 134.87998 
L 301.968354 136.55998 
L 302.293333 134.87998 
L 302.618313 136.55998 
L 302.943292 134.87998 
L 303.268272 134.87998 
L 303.593251 133.19998 
L 303.918231 133.19998 
L 304.24321 134.87998 
L 304.56819 134.87998 
L 304.89317 136.55998 
L 305.218149 134.87998 
L 306.193088 134.87998 
L 306.843047 131.51998 
L 307.168026 133.19998 
L 307.493006 131.51998 
L 307.817985 133.19998 
L 308.467944 133.19998 
L 308.792924 131.51998 
L 309.117903 128.15998 
L 309.442883 126.47998 
L 310.092842 129.83998 
L 310.417821 129.83998 
L 310.742801 131.51998 
L 311.39276 124.79998 
L 311.71774 123.11998 
L 312.042719 124.79998 
L 312.367699 128.15998 
L 312.692678 128.15998 
L 313.667617 123.11998 
L 313.992596 124.79998 
L 314.642555 124.79998 
L 314.967535 123.11998 
L 315.292514 124.79998 
L 315.617494 123.11998 
L 315.942473 126.47998 
L 316.267453 124.79998 
L 316.592432 126.47998 
L 316.917412 124.79998 
L 317.242391 124.79998 
L 317.567371 126.47998 
L 317.892351 126.47998 
L 318.867289 131.51998 
L 319.192269 129.83998 
L 319.517248 131.51998 
L 320.167207 131.51998 
L 320.492187 134.87998 
L 321.142146 138.23998 
L 321.467125 138.23998 
L 321.792105 139.91998 
L 322.442064 139.91998 
L 322.767043 144.95998 
L 324.716921 155.03998 
L 325.0419 158.39998 
L 325.36688 158.39998 
L 325.691859 161.75998 
L 326.016839 161.75998 
L 326.666798 168.47998 
L 326.991777 170.15998 
L 327.316757 173.51998 
L 327.641736 171.83998 
L 327.966716 176.87998 
L 328.291695 176.87998 
L 328.616675 181.91998 
L 328.941654 183.59998 
L 329.266634 186.95998 
L 330.891532 195.35998 
L 331.216511 198.71998 
L 331.86647 202.07998 
L 332.19145 202.07998 
L 332.516429 207.11998 
L 332.841409 207.11998 
L 334.791286 217.19998 
L 335.116265 217.19998 
L 335.441245 218.87998 
L 335.766224 218.87998 
L 336.091204 222.23998 
L 336.416183 220.55998 
L 337.391122 225.59998 
L 337.716102 225.59998 
L 338.041081 222.23998 
L 338.366061 227.27998 
L 338.69104 225.59998 
L 340.640917 225.59998 
L 340.965897 223.91998 
L 341.290876 225.59998 
L 341.615856 222.23998 
L 342.915774 222.23998 
L 343.240753 220.55998 
L 343.565733 222.23998 
L 343.890713 222.23998 
L 344.215692 220.55998 
L 345.190631 220.55998 
L 345.51561 222.23998 
L 345.84059 225.59998 
L 346.165569 223.91998 
L 349.090385 223.91998 
L 349.415364 225.59998 
L 349.740344 223.91998 
L 350.065324 223.91998 
L 350.390303 222.23998 
L 350.715283 222.23998 
L 351.040262 223.91998 
L 351.690221 223.91998 
L 352.015201 222.23998 
L 352.34018 223.91998 
L 352.66516 223.91998 
L 352.990139 222.23998 
L 353.315119 223.91998 
L 355.264996 223.91998 
L 355.589975 225.59998 
L 355.914955 223.91998 
L 356.239934 223.91998 
L 356.564914 222.23998 
L 356.889894 223.91998 
L 357.214873 222.23998 
L 357.539853 223.91998 
L 358.514791 223.91998 
L 358.839771 222.23998 
L 359.16475 225.59998 
L 359.48973 223.91998 
L 360.139689 223.91998 
L 360.464668 225.59998 
L 360.789648 223.91998 
L 361.114627 225.59998 
L 361.439607 225.59998 
L 361.764586 223.91998 
L 362.089566 225.59998 
L 362.414545 223.91998 
L 362.739525 223.91998 
L 363.064505 225.59998 
L 363.389484 225.59998 
L 364.039443 222.23998 
L 364.364423 225.59998 
L 365.014382 225.59998 
L 365.339361 223.91998 
L 365.664341 225.59998 
L 366.3143 225.59998 
L 366.639279 227.27998 
L 366.964259 225.59998 
L 367.614218 225.59998 
L 367.939197 223.91998 
L 368.264177 225.59998 
L 368.914136 225.59998 
L 369.239115 223.91998 
L 369.564095 225.59998 
L 369.889075 223.91998 
L 370.539034 223.91998 
L 370.864013 225.59998 
L 371.188993 223.91998 
L 371.838952 223.91998 
L 372.488911 217.19998 
L 373.788829 195.35998 
L 374.113808 197.03998 
L 374.438788 197.03998 
L 374.763767 198.71998 
L 375.088747 193.67998 
L 375.413726 185.27998 
L 375.738706 173.51998 
L 376.063686 170.15998 
L 376.388665 171.83998 
L 377.038624 180.23998 
L 377.363604 173.51998 
L 378.013563 148.31998 
L 378.338542 148.31998 
L 378.988501 163.43998 
L 379.313481 161.75998 
L 379.96344 141.59998 
L 380.288419 136.55998 
L 380.938378 144.95998 
L 381.263358 143.27998 
L 381.588337 136.55998 
L 381.913317 133.19998 
L 382.238296 133.19998 
L 382.888256 139.91998 
L 383.538215 124.79998 
L 383.863194 123.11998 
L 384.513153 133.19998 
L 384.838133 133.19998 
L 385.163112 131.51998 
L 385.488092 124.79998 
L 385.813071 123.11998 
L 386.138051 124.79998 
L 386.46303 128.15998 
L 386.78801 128.15998 
L 387.112989 123.11998 
L 387.437969 126.47998 
L 387.762948 128.15998 
L 388.087928 133.19998 
L 388.737887 124.79998 
L 389.062867 123.11998 
L 389.387846 124.79998 
L 389.712826 128.15998 
L 390.037805 133.19998 
L 390.362785 134.87998 
L 390.687764 128.15998 
L 391.012744 126.47998 
L 391.337723 126.47998 
L 391.662703 129.83998 
L 391.987682 131.51998 
L 392.962621 131.51998 
L 393.2876 134.87998 
L 393.937559 134.87998 
L 394.587518 131.51998 
L 394.912498 133.19998 
L 395.237477 133.19998 
L 395.562457 138.23998 
L 395.887437 134.87998 
L 396.212416 134.87998 
L 396.537396 133.19998 
L 396.862375 133.19998 
L 397.837314 138.23998 
L 398.162293 134.87998 
L 398.487273 136.55998 
L 398.487273 136.55998 
" clip-path="url(#p3031cedca9)" style="fill: none; stroke: #1f77b4; stroke-width: 1.5; stroke-linecap: square"/>
   </g>
   <g id="line2d_14">
    <path d="M 73.832727 134.87998 
L 74.157707 131.51998 
L 74.807666 131.51998 
L 75.132645 129.83998 
L 75.457625 129.83998 
L 75.782604 126.47998 
L 76.107584 128.15998 
L 76.757543 128.15998 
L 77.407502 124.79998 
L 77.732482 124.79998 
L 78.057461 123.11998 
L 78.70742 123.11998 
L 79.0324 124.79998 
L 79.357379 124.79998 
L 79.682359 123.11998 
L 80.332318 123.11998 
L 80.657297 121.43998 
L 80.982277 121.43998 
L 81.307256 123.11998 
L 82.282195 123.11998 
L 82.607174 121.43998 
L 82.932154 123.11998 
L 83.582113 123.11998 
L 83.907093 126.47998 
L 84.232072 128.15998 
L 84.557052 126.47998 
L 85.207011 129.83998 
L 85.53199 129.83998 
L 85.85697 131.51998 
L 86.181949 131.51998 
L 86.506929 134.87998 
L 86.831908 134.87998 
L 87.156888 138.23998 
L 88.781785 146.63998 
L 89.106765 149.99998 
L 90.081704 155.03998 
L 90.731663 161.75998 
L 91.056642 161.75998 
L 91.381622 166.79998 
L 91.706601 168.47998 
L 92.031581 171.83998 
L 92.68154 175.19998 
L 93.006519 178.55998 
L 93.656478 181.91998 
L 94.306437 190.31998 
L 94.631417 191.99998 
L 94.956396 191.99998 
L 95.931335 202.07998 
L 96.581294 205.43998 
L 97.231253 205.43998 
L 97.881212 212.15998 
L 98.206192 213.83998 
L 98.531171 217.19998 
L 98.856151 215.51998 
L 99.18113 217.19998 
L 99.50611 220.55998 
L 100.156069 223.91998 
L 100.481048 223.91998 
L 101.131007 227.27998 
L 101.455987 225.59998 
L 101.780966 227.27998 
L 102.105946 230.63998 
L 102.430925 230.63998 
L 102.755905 228.95998 
L 103.080885 228.95998 
L 103.405864 227.27998 
L 103.730844 227.27998 
L 104.380803 223.91998 
L 104.705782 225.59998 
L 105.030762 225.59998 
L 105.355741 222.23998 
L 105.680721 220.55998 
L 106.0057 220.55998 
L 106.33068 218.87998 
L 106.655659 220.55998 
L 107.305618 220.55998 
L 107.630598 218.87998 
L 107.955577 218.87998 
L 108.930516 223.91998 
L 109.580475 223.91998 
L 109.905455 222.23998 
L 110.230434 223.91998 
L 110.555414 223.91998 
L 110.880393 225.59998 
L 111.530352 225.59998 
L 111.855332 223.91998 
L 112.180311 223.91998 
L 112.505291 225.59998 
L 112.83027 223.91998 
L 113.15525 223.91998 
L 113.480229 222.23998 
L 114.130188 225.59998 
L 114.455168 225.59998 
L 114.780147 223.91998 
L 115.105127 223.91998 
L 115.430106 222.23998 
L 115.755086 225.59998 
L 116.080066 223.91998 
L 116.405045 225.59998 
L 116.730025 225.59998 
L 117.055004 222.23998 
L 117.704963 222.23998 
L 118.029943 225.59998 
L 118.354922 225.59998 
L 119.004881 222.23998 
L 119.65484 225.59998 
L 119.97982 225.59998 
L 120.304799 223.91998 
L 120.954758 223.91998 
L 121.279738 222.23998 
L 121.929697 225.59998 
L 122.254676 225.59998 
L 122.579656 223.91998 
L 122.904636 223.91998 
L 123.229615 222.23998 
L 123.554595 223.91998 
L 123.879574 223.91998 
L 124.204554 225.59998 
L 124.854513 222.23998 
L 125.504472 222.23998 
L 125.829451 223.91998 
L 126.47941 223.91998 
L 126.80439 225.59998 
L 127.129369 225.59998 
L 127.454349 223.91998 
L 128.754267 223.91998 
L 129.079247 225.59998 
L 129.404226 223.91998 
L 129.729206 223.91998 
L 130.054185 225.59998 
L 130.379165 223.91998 
L 130.704144 225.59998 
L 132.329042 225.59998 
L 132.654021 223.91998 
L 132.979001 223.91998 
L 133.30398 225.59998 
L 133.62896 225.59998 
L 133.953939 223.91998 
L 134.603898 223.91998 
L 134.928878 225.59998 
L 135.253857 225.59998 
L 135.578837 223.91998 
L 135.903817 225.59998 
L 136.228796 225.59998 
L 136.553776 223.91998 
L 136.878755 223.91998 
L 137.203735 222.23998 
L 137.528714 215.51998 
L 138.503653 205.43998 
L 138.828632 205.43998 
L 139.153612 200.39998 
L 139.478591 198.71998 
L 139.803571 190.31998 
L 140.45353 181.91998 
L 140.778509 178.55998 
L 141.103489 178.55998 
L 141.428468 176.87998 
L 142.728387 158.39998 
L 143.053366 156.71998 
L 143.378346 153.35998 
L 144.028305 149.99998 
L 144.353284 144.95998 
L 145.003243 141.59998 
L 145.978182 131.51998 
L 146.303161 129.83998 
L 146.628141 131.51998 
L 146.95312 131.51998 
L 147.2781 133.19998 
L 148.253038 118.07998 
L 148.578018 119.75998 
L 148.902998 123.11998 
L 149.227977 124.79998 
L 149.552957 124.79998 
L 149.877936 121.43998 
L 150.202916 119.75998 
L 151.177854 119.75998 
L 151.502834 121.43998 
L 152.152793 121.43998 
L 152.477772 124.79998 
L 153.127731 124.79998 
L 153.452711 119.75998 
L 153.77769 119.75998 
L 154.427649 126.47998 
L 154.752629 128.15998 
L 155.077609 126.47998 
L 155.402588 126.47998 
L 155.727568 124.79998 
L 156.052547 124.79998 
L 156.702506 131.51998 
L 158.002424 131.51998 
L 158.327404 133.19998 
L 158.977363 133.19998 
L 159.627322 136.55998 
L 160.60226 136.55998 
L 160.92724 138.23998 
L 161.252219 136.55998 
L 161.577199 136.55998 
L 161.902179 139.91998 
L 162.227158 141.59998 
L 162.877117 138.23998 
L 163.202097 138.23998 
L 163.527076 139.91998 
L 164.177035 139.91998 
L 164.502015 141.59998 
L 165.151974 141.59998 
L 165.476953 139.91998 
L 165.801933 139.91998 
L 166.126912 136.55998 
L 166.776871 136.55998 
L 167.101851 138.23998 
L 167.42683 138.23998 
L 168.07679 134.87998 
L 168.726749 134.87998 
L 169.051728 131.51998 
L 169.701687 131.51998 
L 170.026667 133.19998 
L 170.351646 131.51998 
L 170.676626 131.51998 
L 171.001605 129.83998 
L 171.326585 126.47998 
L 171.651564 126.47998 
L 172.301523 129.83998 
L 172.626503 129.83998 
L 172.951482 126.47998 
L 173.276462 124.79998 
L 174.2514 124.79998 
L 174.57638 123.11998 
L 174.90136 124.79998 
L 175.226339 123.11998 
L 176.201278 123.11998 
L 176.526257 121.43998 
L 177.176216 121.43998 
L 177.501196 123.11998 
L 178.151155 123.11998 
L 178.476134 121.43998 
L 179.126093 124.79998 
L 179.451073 124.79998 
L 179.776052 126.47998 
L 180.101032 126.47998 
L 180.426011 128.15998 
L 180.750991 128.15998 
L 181.075971 129.83998 
L 181.40095 129.83998 
L 181.72593 133.19998 
L 182.050909 134.87998 
L 182.375889 134.87998 
L 183.350827 139.91998 
L 183.675807 143.27998 
L 184.325766 146.63998 
L 184.975725 146.63998 
L 185.300704 151.67998 
L 185.625684 153.35998 
L 186.275643 160.07998 
L 187.250581 165.11998 
L 188.22552 175.19998 
L 188.5505 175.19998 
L 188.875479 178.55998 
L 189.200459 180.23998 
L 189.850418 186.95998 
L 191.150336 193.67998 
L 191.475315 197.03998 
L 191.800295 202.07998 
L 192.775233 207.11998 
L 193.100213 207.11998 
L 193.425192 210.47998 
L 193.750172 210.47998 
L 194.075152 213.83998 
L 194.725111 217.19998 
L 195.05009 217.19998 
L 195.37507 218.87998 
L 195.700049 222.23998 
L 196.674988 227.27998 
L 196.999967 225.59998 
L 197.649926 225.59998 
L 198.624865 230.63998 
L 199.274824 227.27998 
L 199.599803 227.27998 
L 199.924783 228.95998 
L 200.249762 225.59998 
L 200.574742 223.91998 
L 201.224701 223.91998 
L 201.549681 222.23998 
L 201.87466 218.87998 
L 202.19964 220.55998 
L 202.524619 220.55998 
L 202.849599 222.23998 
L 203.174578 220.55998 
L 203.499558 220.55998 
L 203.824537 218.87998 
L 204.149517 218.87998 
L 204.474496 220.55998 
L 204.799476 225.59998 
L 205.124455 225.59998 
L 205.449435 223.91998 
L 206.099394 223.91998 
L 206.749353 227.27998 
L 207.399312 223.91998 
L 207.724292 223.91998 
L 208.049271 225.59998 
L 209.02421 225.59998 
L 209.349189 222.23998 
L 210.324128 227.27998 
L 210.649107 223.91998 
L 210.974087 222.23998 
L 211.299066 223.91998 
L 211.624046 222.23998 
L 211.949025 225.59998 
L 212.274005 223.91998 
L 212.598984 223.91998 
L 212.923964 222.23998 
L 213.248943 222.23998 
L 213.573923 223.91998 
L 213.898903 223.91998 
L 214.223882 227.27998 
L 214.548862 223.91998 
L 214.873841 222.23998 
L 215.198821 222.23998 
L 215.5238 225.59998 
L 216.173759 225.59998 
L 216.498739 223.91998 
L 216.823718 223.91998 
L 217.148698 222.23998 
L 217.473677 222.23998 
L 217.798657 225.59998 
L 218.123636 227.27998 
L 218.448616 225.59998 
L 218.773595 222.23998 
L 219.098575 222.23998 
L 219.423554 225.59998 
L 219.748534 223.91998 
L 220.073514 223.91998 
L 220.398493 225.59998 
L 220.723473 223.91998 
L 222.34837 223.91998 
L 222.67335 225.59998 
L 222.998329 223.91998 
L 223.323309 225.59998 
L 223.973268 225.59998 
L 224.298247 223.91998 
L 224.623227 225.59998 
L 224.948206 225.59998 
L 225.273186 223.91998 
L 225.598165 223.91998 
L 225.923145 225.59998 
L 226.248124 223.91998 
L 227.223063 223.91998 
L 227.548043 225.59998 
L 227.873022 223.91998 
L 228.198002 225.59998 
L 228.847961 225.59998 
L 229.17294 227.27998 
L 229.49792 225.59998 
L 229.822899 227.27998 
L 230.147879 227.27998 
L 230.472858 223.91998 
L 230.797838 225.59998 
L 232.422735 225.59998 
L 232.747715 222.23998 
L 233.072695 222.23998 
L 233.397674 215.51998 
L 233.722654 212.15998 
L 234.047633 207.11998 
L 234.372613 207.11998 
L 234.697592 203.75998 
L 235.022572 202.07998 
L 236.647469 178.55998 
L 237.297428 175.19998 
L 237.622408 171.83998 
L 238.597346 158.39998 
L 238.922326 156.71998 
L 239.247305 156.71998 
L 239.572285 151.67998 
L 239.897265 149.99998 
L 240.222244 146.63998 
L 240.547224 141.59998 
L 240.872203 139.91998 
L 241.197183 139.91998 
L 241.522162 136.55998 
L 242.172121 128.15998 
L 242.497101 131.51998 
L 242.82208 133.19998 
L 243.14706 133.19998 
L 243.472039 129.83998 
L 243.797019 123.11998 
L 244.121998 121.43998 
L 244.446978 121.43998 
L 244.771957 123.11998 
L 245.096937 126.47998 
L 245.421916 126.47998 
L 246.071876 119.75998 
L 246.396855 119.75998 
L 246.721835 123.11998 
L 247.046814 121.43998 
L 248.021753 121.43998 
L 248.671712 124.79998 
L 248.996691 121.43998 
L 249.64665 121.43998 
L 250.296609 124.79998 
L 250.621589 129.83998 
L 250.946568 128.15998 
L 251.271548 124.79998 
L 251.596527 124.79998 
L 252.896446 131.51998 
L 254.196364 131.51998 
L 254.846323 134.87998 
L 255.171302 134.87998 
L 255.821261 138.23998 
L 256.146241 136.55998 
L 256.47122 138.23998 
L 256.7962 138.23998 
L 257.121179 136.55998 
L 257.446159 136.55998 
L 257.771138 139.91998 
L 258.421097 139.91998 
L 258.746077 138.23998 
L 259.396036 138.23998 
L 259.721016 139.91998 
L 260.045995 139.91998 
L 260.370975 138.23998 
L 260.695954 138.23998 
L 261.020934 139.91998 
L 261.345913 139.91998 
L 261.995872 136.55998 
L 262.320852 138.23998 
L 262.645831 136.55998 
L 262.970811 136.55998 
L 263.29579 138.23998 
L 263.945749 134.87998 
L 264.270729 134.87998 
L 264.595708 131.51998 
L 264.920688 133.19998 
L 265.895627 133.19998 
L 266.545586 129.83998 
L 267.195545 129.83998 
L 267.520524 128.15998 
L 267.845504 128.15998 
L 268.170483 124.79998 
L 268.495463 126.47998 
L 268.820442 124.79998 
L 269.470401 124.79998 
L 269.795381 123.11998 
L 270.12036 124.79998 
L 270.44534 123.11998 
L 271.420278 123.11998 
L 271.745258 121.43998 
L 272.395217 121.43998 
L 272.720197 123.11998 
L 273.045176 121.43998 
L 273.370156 121.43998 
L 273.695135 123.11998 
L 274.670074 123.11998 
L 274.995053 124.79998 
L 275.320033 124.79998 
L 275.969992 128.15998 
L 276.294971 128.15998 
L 276.619951 129.83998 
L 277.26991 129.83998 
L 277.594889 134.87998 
L 278.569828 134.87998 
L 278.894808 138.23998 
L 279.544767 141.59998 
L 279.869746 144.95998 
L 280.194726 143.27998 
L 280.519705 148.31998 
L 280.844685 149.99998 
L 281.169664 149.99998 
L 281.819623 156.71998 
L 282.469582 160.07998 
L 282.794562 163.43998 
L 283.119541 165.11998 
L 283.444521 168.47998 
L 283.7695 168.47998 
L 284.744439 178.55998 
L 285.394398 181.91998 
L 286.044357 188.63998 
L 286.369337 190.31998 
L 286.694316 193.67998 
L 287.019296 195.35998 
L 287.344275 198.71998 
L 287.669255 200.39998 
L 287.994234 203.75998 
L 288.319214 205.43998 
L 288.969173 205.43998 
L 289.294152 210.47998 
L 289.619132 212.15998 
L 289.944111 215.51998 
L 290.269091 215.51998 
L 290.91905 218.87998 
L 291.244029 218.87998 
L 291.569009 220.55998 
L 292.218968 227.27998 
L 292.543948 225.59998 
L 293.193907 225.59998 
L 293.518886 228.95998 
L 293.843866 227.27998 
L 294.168845 227.27998 
L 294.493825 228.95998 
L 294.818804 227.27998 
L 295.468763 227.27998 
L 295.793743 225.59998 
L 296.443702 225.59998 
L 297.093661 222.23998 
L 297.41864 222.23998 
L 297.74362 218.87998 
L 298.0686 217.19998 
L 298.393579 220.55998 
L 299.043538 220.55998 
L 299.368518 218.87998 
L 299.693497 218.87998 
L 300.343456 222.23998 
L 300.668436 222.23998 
L 300.993415 223.91998 
L 301.318395 223.91998 
L 301.643374 222.23998 
L 301.968354 223.91998 
L 302.618313 223.91998 
L 302.943292 225.59998 
L 303.593251 222.23998 
L 303.918231 225.59998 
L 304.24321 223.91998 
L 304.89317 223.91998 
L 305.218149 222.23998 
L 305.543129 223.91998 
L 305.868108 222.23998 
L 306.518067 225.59998 
L 307.168026 222.23998 
L 307.817985 225.59998 
L 308.142965 225.59998 
L 308.792924 222.23998 
L 309.117903 223.91998 
L 309.767862 223.91998 
L 310.092842 225.59998 
L 310.742801 222.23998 
L 311.067781 222.23998 
L 311.71774 225.59998 
L 312.042719 225.59998 
L 312.367699 223.91998 
L 313.667617 223.91998 
L 313.992596 225.59998 
L 314.317576 225.59998 
L 314.967535 222.23998 
L 315.617494 225.59998 
L 315.942473 225.59998 
L 316.267453 223.91998 
L 317.567371 223.91998 
L 317.892351 225.59998 
L 318.54231 225.59998 
L 318.867289 223.91998 
L 319.192269 225.59998 
L 319.517248 225.59998 
L 319.842228 223.91998 
L 320.492187 223.91998 
L 320.817166 222.23998 
L 321.142146 223.91998 
L 321.792105 223.91998 
L 322.117084 225.59998 
L 322.442064 223.91998 
L 324.391941 223.91998 
L 325.0419 227.27998 
L 325.691859 223.91998 
L 326.341818 223.91998 
L 326.666798 225.59998 
L 326.991777 223.91998 
L 327.316757 227.27998 
L 327.641736 227.27998 
L 328.291695 223.91998 
L 328.616675 223.91998 
L 328.941654 222.23998 
L 329.591613 210.47998 
L 330.241572 207.11998 
L 330.566552 203.75998 
L 330.891532 202.07998 
L 331.216511 195.35998 
L 331.541491 191.99998 
L 332.19145 183.59998 
L 332.516429 180.23998 
L 332.841409 178.55998 
L 333.166388 175.19998 
L 333.491368 173.51998 
L 334.466306 158.39998 
L 335.441245 153.35998 
L 336.416183 143.27998 
L 337.391122 138.23998 
L 337.716102 133.19998 
L 338.366061 129.83998 
L 338.69104 133.19998 
L 339.01602 133.19998 
L 339.340999 129.83998 
L 339.665979 123.11998 
L 339.990958 121.43998 
L 340.315938 121.43998 
L 341.290876 126.47998 
L 341.615856 121.43998 
L 341.940835 121.43998 
L 342.265815 119.75998 
L 342.590794 119.75998 
L 342.915774 123.11998 
L 343.240753 121.43998 
L 343.890713 121.43998 
L 344.215692 123.11998 
L 344.540672 123.11998 
L 344.865651 121.43998 
L 345.190631 123.11998 
L 345.84059 123.11998 
L 346.165569 124.79998 
L 346.490549 128.15998 
L 346.815528 128.15998 
L 347.140508 124.79998 
L 347.465487 126.47998 
L 347.790467 126.47998 
L 348.115446 129.83998 
L 348.440426 129.83998 
L 348.765405 131.51998 
L 349.740344 131.51998 
L 350.390303 134.87998 
L 350.715283 134.87998 
L 351.040262 136.55998 
L 351.365242 136.55998 
L 351.690221 138.23998 
L 352.34018 138.23998 
L 352.66516 136.55998 
L 352.990139 138.23998 
L 353.315119 138.23998 
L 353.640098 141.59998 
L 354.290057 141.59998 
L 354.615037 139.91998 
L 355.264996 139.91998 
L 355.589975 138.23998 
L 355.914955 141.59998 
L 356.239934 139.91998 
L 357.864832 139.91998 
L 358.189812 138.23998 
L 359.814709 138.23998 
L 360.139689 134.87998 
L 360.464668 133.19998 
L 360.789648 134.87998 
L 361.114627 134.87998 
L 361.439607 133.19998 
L 361.764586 133.19998 
L 362.089566 131.51998 
L 362.414545 131.51998 
L 362.739525 129.83998 
L 363.064505 129.83998 
L 363.389484 128.15998 
L 363.714464 128.15998 
L 364.039443 126.47998 
L 365.014382 126.47998 
L 365.339361 124.79998 
L 366.3143 124.79998 
L 366.639279 121.43998 
L 366.964259 123.11998 
L 367.289238 121.43998 
L 367.614218 123.11998 
L 367.939197 121.43998 
L 368.264177 123.11998 
L 368.589156 121.43998 
L 368.914136 123.11998 
L 369.564095 123.11998 
L 369.889075 124.79998 
L 370.214054 123.11998 
L 370.539034 123.11998 
L 370.864013 124.79998 
L 371.188993 124.79998 
L 371.513972 126.47998 
L 372.163931 126.47998 
L 372.488911 129.83998 
L 373.13887 129.83998 
L 373.463849 131.51998 
L 373.788829 134.87998 
L 374.113808 136.55998 
L 374.438788 136.55998 
L 374.763767 138.23998 
L 375.088747 141.59998 
L 375.413726 141.59998 
L 375.738706 144.95998 
L 376.063686 144.95998 
L 376.388665 148.31998 
L 377.038624 151.67998 
L 377.363604 155.03998 
L 378.338542 160.07998 
L 378.663522 163.43998 
L 378.988501 165.11998 
L 379.63846 171.83998 
L 380.288419 175.19998 
L 380.613399 178.55998 
L 380.938378 178.55998 
L 381.263358 183.59998 
L 381.588337 185.27998 
L 381.913317 188.63998 
L 382.238296 190.31998 
L 382.563276 190.31998 
L 382.888256 195.35998 
L 383.213235 197.03998 
L 383.863194 203.75998 
L 384.188174 205.43998 
L 384.513153 205.43998 
L 385.163112 208.79998 
L 385.813071 215.51998 
L 386.138051 217.19998 
L 386.46303 217.19998 
L 387.762948 223.91998 
L 388.737887 223.91998 
L 389.712826 228.95998 
L 390.037805 228.95998 
L 390.362785 227.27998 
L 390.687764 228.95998 
L 391.012744 228.95998 
L 391.662703 225.59998 
L 391.987682 227.27998 
L 393.61258 218.87998 
L 394.262539 218.87998 
L 394.587518 220.55998 
L 394.912498 220.55998 
L 395.562457 217.19998 
L 395.887437 220.55998 
L 396.212416 222.23998 
L 396.537396 225.59998 
L 396.862375 225.59998 
L 397.187355 222.23998 
L 397.512334 222.23998 
L 397.837314 223.91998 
L 398.162293 223.91998 
L 398.487273 227.27998 
L 398.487273 227.27998 
" clip-path="url(#p3031cedca9)" style="fill: none; stroke: #ff7f0e; stroke-width: 1.5; stroke-linecap: square"/>
   </g>
   <g id="line2d_15">
    <path d="M 73.832727 120.768 
L 74.482686 127.488 
L 75.132645 140.928 
L 75.457625 144.288 
L 75.782604 144.288 
L 76.432563 157.728 
L 76.757543 167.808 
L 77.082523 164.448 
L 77.407502 177.888 
L 77.732482 177.888 
L 78.057461 184.608 
L 78.382441 187.968 
L 78.70742 194.688 
L 79.0324 198.048 
L 79.357379 208.128 
L 79.682359 204.768 
L 80.007338 214.848 
L 80.657297 221.568 
L 81.307256 235.008 
L 81.632236 238.368 
L 81.957215 245.088 
L 82.282195 241.728 
L 82.607174 248.448 
L 82.932154 251.808 
L 83.257133 258.528 
L 83.582113 258.528 
L 83.907093 265.248 
L 84.557052 271.968 
L 84.882031 271.968 
L 85.53199 278.688 
L 85.85697 278.688 
L 86.181949 282.048 
L 86.506929 282.048 
L 86.831908 288.768 
L 87.156888 288.768 
L 87.481867 285.408 
L 87.806847 288.768 
L 88.131826 288.768 
L 88.456806 292.128 
L 88.781785 288.768 
L 89.431744 295.488 
L 89.756724 295.488 
L 90.081704 292.128 
L 90.731663 292.128 
L 91.381622 285.408 
L 91.706601 288.768 
L 92.35656 288.768 
L 92.68154 278.688 
L 93.006519 285.408 
L 93.656478 278.688 
L 93.981458 278.688 
L 94.306437 275.328 
L 94.631417 268.608 
L 94.956396 268.608 
L 95.281376 261.888 
L 95.606355 258.528 
L 95.931335 261.888 
L 96.256314 251.808 
L 96.581294 248.448 
L 96.906274 248.448 
L 97.556233 241.728 
L 97.881212 228.288 
L 98.206192 231.648 
L 98.531171 224.928 
L 98.856151 221.568 
L 99.18113 214.848 
L 99.50611 214.848 
L 99.831089 208.128 
L 100.156069 204.768 
L 100.806028 191.328 
L 101.131007 191.328 
L 101.780966 177.888 
L 102.755905 167.808 
L 103.080885 161.088 
L 103.405864 161.088 
L 104.055823 144.288 
L 104.380803 140.928 
L 104.705782 134.208 
L 105.030762 134.208 
L 105.355741 130.848 
L 105.680721 120.768 
L 106.0057 117.408 
L 106.33068 117.408 
L 106.655659 110.688 
L 106.980639 107.328 
L 107.305618 107.328 
L 107.630598 103.968 
L 108.280557 90.528 
L 108.930516 90.528 
L 110.880393 70.368 
L 111.205373 70.368 
L 111.530352 67.008 
L 111.855332 70.368 
L 112.180311 63.648 
L 112.505291 67.008 
L 113.15525 67.008 
L 113.480229 63.648 
L 113.805209 67.008 
L 115.430106 67.008 
L 115.755086 73.728 
L 116.080066 67.008 
L 116.405045 73.728 
L 116.730025 77.088 
L 117.055004 73.728 
L 117.379984 73.728 
L 117.704963 80.448 
L 118.354922 87.168 
L 118.679902 83.808 
L 119.004881 93.888 
L 119.329861 93.888 
L 119.65484 97.248 
L 119.97982 103.968 
L 120.304799 107.328 
L 120.629779 107.328 
L 120.954758 110.688 
L 121.279738 110.688 
L 121.604717 117.408 
L 121.929697 127.488 
L 122.579656 127.488 
L 122.904636 137.568 
L 123.229615 140.928 
L 123.554595 147.648 
L 123.879574 147.648 
L 124.204554 157.728 
L 124.529533 157.728 
L 124.854513 161.088 
L 125.504472 174.528 
L 126.154431 191.328 
L 126.47941 187.968 
L 126.80439 191.328 
L 127.454349 208.128 
L 127.779328 204.768 
L 128.104308 214.848 
L 128.429287 218.208 
L 128.754267 224.928 
L 129.079247 221.568 
L 129.404226 235.008 
L 129.729206 235.008 
L 130.054185 241.728 
L 131.029124 251.808 
L 131.354103 258.528 
L 131.679083 251.808 
L 132.004062 261.888 
L 132.654021 268.608 
L 132.979001 268.608 
L 133.30398 271.968 
L 133.62896 278.688 
L 133.953939 282.048 
L 134.278919 275.328 
L 134.603898 282.048 
L 135.253857 282.048 
L 135.903817 288.768 
L 136.228796 285.408 
L 136.553776 292.128 
L 136.878755 285.408 
L 137.203735 285.408 
L 137.528714 292.128 
L 138.178673 285.408 
L 138.828632 292.128 
L 139.478591 285.408 
L 139.803571 285.408 
L 140.12855 288.768 
L 140.778509 282.048 
L 141.103489 282.048 
L 141.428468 278.688 
L 141.753448 278.688 
L 142.078428 271.968 
L 142.403407 268.608 
L 142.728387 268.608 
L 143.703325 258.528 
L 144.028305 258.528 
L 144.353284 255.168 
L 144.678264 245.088 
L 145.003243 245.088 
L 145.328223 238.368 
L 145.653202 238.368 
L 145.978182 231.648 
L 146.303161 231.648 
L 146.628141 224.928 
L 146.95312 221.568 
L 147.2781 211.488 
L 148.253038 201.408 
L 148.578018 191.328 
L 148.902998 191.328 
L 149.227977 184.608 
L 149.552957 181.248 
L 149.877936 167.808 
L 150.202916 174.528 
L 150.527895 167.808 
L 150.852875 157.728 
L 152.152793 144.288 
L 152.477772 130.848 
L 152.802752 130.848 
L 153.127731 127.488 
L 153.77769 114.048 
L 154.10267 114.048 
L 154.427649 110.688 
L 154.752629 103.968 
L 155.077609 100.608 
L 155.402588 100.608 
L 155.727568 93.888 
L 156.052547 90.528 
L 156.377527 83.808 
L 157.027486 83.808 
L 157.352465 80.448 
L 157.677445 70.368 
L 158.327404 70.368 
L 158.977363 63.648 
L 159.627322 63.648 
L 159.952301 67.008 
L 160.277281 60.288 
L 160.60226 60.288 
L 160.92724 56.928 
L 161.252219 56.928 
L 161.577199 60.288 
L 161.902179 56.928 
L 162.227158 60.288 
L 162.552138 60.288 
L 162.877117 53.568 
L 163.202097 60.288 
L 163.527076 63.648 
L 163.852056 63.648 
L 164.177035 60.288 
L 164.502015 67.008 
L 164.826994 70.368 
L 165.476953 70.368 
L 165.801933 77.088 
L 166.126912 77.088 
L 166.451892 83.808 
L 166.776871 83.808 
L 167.101851 87.168 
L 167.42683 93.888 
L 167.75181 97.248 
L 168.07679 97.248 
L 168.401769 103.968 
L 168.726749 107.328 
L 169.051728 107.328 
L 170.026667 127.488 
L 170.351646 127.488 
L 170.676626 130.848 
L 171.651564 151.008 
L 171.976544 154.368 
L 172.301523 161.088 
L 172.626503 164.448 
L 172.951482 171.168 
L 173.276462 171.168 
L 173.601441 181.248 
L 174.57638 191.328 
L 175.551319 211.488 
L 175.876298 208.128 
L 176.201278 221.568 
L 177.826175 238.368 
L 178.151155 248.448 
L 178.476134 248.448 
L 178.801114 251.808 
L 179.126093 258.528 
L 179.451073 261.888 
L 179.776052 261.888 
L 180.101032 268.608 
L 180.426011 271.968 
L 180.750991 278.688 
L 181.075971 271.968 
L 181.40095 278.688 
L 181.72593 282.048 
L 182.375889 282.048 
L 182.700868 285.408 
L 183.025848 292.128 
L 183.350827 292.128 
L 183.675807 288.768 
L 184.000786 288.768 
L 184.325766 292.128 
L 184.975725 292.128 
L 185.300704 295.488 
L 185.625684 292.128 
L 185.950663 295.488 
L 186.275643 288.768 
L 186.600622 295.488 
L 186.925602 292.128 
L 187.250581 292.128 
L 187.575561 288.768 
L 187.900541 288.768 
L 188.22552 285.408 
L 188.5505 288.768 
L 188.875479 282.048 
L 189.200459 282.048 
L 190.175397 271.968 
L 190.500377 271.968 
L 190.825356 268.608 
L 191.150336 268.608 
L 191.475315 258.528 
L 191.800295 261.888 
L 192.125274 251.808 
L 192.450254 251.808 
L 193.100213 245.088 
L 193.425192 238.368 
L 193.750172 235.008 
L 194.075152 228.288 
L 194.400131 228.288 
L 194.725111 221.568 
L 195.05009 218.208 
L 195.37507 211.488 
L 196.350008 201.408 
L 196.674988 187.968 
L 196.999967 191.328 
L 197.974906 171.168 
L 198.949844 161.088 
L 199.274824 151.008 
L 199.924783 144.288 
L 200.574742 130.848 
L 200.899722 134.208 
L 201.549681 127.488 
L 201.87466 114.048 
L 202.19964 114.048 
L 202.524619 110.688 
L 202.849599 110.688 
L 203.499558 103.968 
L 203.824537 97.248 
L 204.149517 97.248 
L 204.474496 87.168 
L 204.799476 83.808 
L 205.124455 87.168 
L 205.774414 73.728 
L 206.099394 77.088 
L 206.424373 73.728 
L 206.749353 73.728 
L 207.074333 67.008 
L 207.399312 73.728 
L 208.374251 63.648 
L 209.02421 63.648 
L 209.349189 67.008 
L 209.674169 60.288 
L 209.999148 60.288 
L 210.324128 63.648 
L 210.974087 63.648 
L 211.624046 70.368 
L 212.274005 70.368 
L 212.598984 73.728 
L 212.923964 70.368 
L 213.248943 77.088 
L 214.548862 90.528 
L 214.873841 83.808 
L 215.198821 90.528 
L 215.5238 93.888 
L 215.84878 100.608 
L 216.173759 100.608 
L 216.498739 110.688 
L 216.823718 110.688 
L 217.473677 117.408 
L 217.798657 124.128 
L 218.123636 127.488 
L 218.448616 134.208 
L 219.098575 140.928 
L 219.423554 147.648 
L 219.748534 151.008 
L 220.073514 151.008 
L 220.723473 164.448 
L 221.373432 171.168 
L 222.34837 191.328 
L 222.67335 187.968 
L 222.998329 198.048 
L 223.323309 201.408 
L 223.648288 211.488 
L 223.973268 211.488 
L 224.298247 218.208 
L 224.623227 221.568 
L 224.948206 228.288 
L 225.273186 228.288 
L 225.598165 235.008 
L 226.573104 245.088 
L 226.898084 251.808 
L 227.548043 258.528 
L 227.873022 255.168 
L 228.198002 268.608 
L 228.522981 265.248 
L 228.847961 268.608 
L 229.49792 268.608 
L 229.822899 278.688 
L 230.147879 282.048 
L 230.472858 275.328 
L 230.797838 278.688 
L 231.122817 285.408 
L 231.447797 282.048 
L 231.772776 282.048 
L 232.097756 285.408 
L 232.422735 285.408 
L 232.747715 288.768 
L 233.072695 282.048 
L 233.397674 285.408 
L 233.722654 285.408 
L 234.047633 288.768 
L 234.697592 288.768 
L 235.022572 285.408 
L 235.347551 288.768 
L 235.672531 282.048 
L 235.99751 278.688 
L 236.32249 285.408 
L 236.647469 278.688 
L 237.297428 278.688 
L 237.622408 275.328 
L 237.947387 275.328 
L 238.272367 265.248 
L 238.597346 268.608 
L 239.572285 258.528 
L 239.897265 251.808 
L 240.222244 251.808 
L 240.547224 248.448 
L 240.872203 241.728 
L 241.197183 231.648 
L 241.522162 235.008 
L 241.847142 231.648 
L 242.172121 224.928 
L 243.14706 214.848 
L 243.472039 204.768 
L 244.446978 194.688 
L 244.771957 187.968 
L 245.096937 184.608 
L 245.421916 177.888 
L 245.746896 177.888 
L 246.071876 167.808 
L 246.396855 164.448 
L 246.721835 164.448 
L 247.371794 147.648 
L 247.696773 147.648 
L 248.671712 127.488 
L 248.996691 130.848 
L 249.321671 117.408 
L 249.64665 117.408 
L 249.97163 110.688 
L 250.296609 107.328 
L 250.621589 107.328 
L 251.271548 93.888 
L 251.596527 90.528 
L 251.921507 90.528 
L 252.896446 80.448 
L 253.221425 80.448 
L 253.871384 73.728 
L 254.196364 73.728 
L 254.521343 67.008 
L 255.171302 67.008 
L 255.496282 60.288 
L 255.821261 63.648 
L 256.146241 63.648 
L 256.47122 53.568 
L 257.121179 60.288 
L 257.446159 56.928 
L 258.421097 56.928 
L 258.746077 63.648 
L 259.071057 56.928 
L 259.396036 63.648 
L 259.721016 63.648 
L 260.045995 67.008 
L 260.695954 67.008 
L 261.020934 73.728 
L 261.345913 77.088 
L 261.995872 77.088 
L 262.320852 83.808 
L 262.970811 83.808 
L 263.29579 90.528 
L 263.62077 93.888 
L 263.945749 100.608 
L 264.270729 100.608 
L 264.595708 107.328 
L 264.920688 110.688 
L 265.245667 117.408 
L 265.895627 124.128 
L 266.220606 134.208 
L 266.545586 134.208 
L 267.195545 140.928 
L 267.520524 151.008 
L 267.845504 154.368 
L 268.170483 154.368 
L 268.495463 164.448 
L 268.820442 167.808 
L 269.145422 177.888 
L 269.470401 174.528 
L 269.795381 184.608 
L 270.44534 191.328 
L 270.770319 198.048 
L 271.095299 201.408 
L 271.745258 214.848 
L 272.395217 221.568 
L 272.720197 228.288 
L 273.695135 238.368 
L 274.020115 245.088 
L 274.345094 248.448 
L 274.670074 245.088 
L 275.320033 261.888 
L 275.645012 265.248 
L 275.969992 265.248 
L 276.619951 271.968 
L 276.94493 278.688 
L 277.26991 275.328 
L 277.594889 282.048 
L 277.919869 285.408 
L 278.569828 285.408 
L 279.544767 295.488 
L 279.869746 288.768 
L 280.194726 292.128 
L 280.519705 292.128 
L 280.844685 288.768 
L 281.169664 292.128 
L 281.494644 292.128 
L 281.819623 295.488 
L 282.144603 295.488 
L 282.469582 292.128 
L 283.119541 292.128 
L 283.7695 285.408 
L 284.09448 285.408 
L 284.419459 288.768 
L 284.744439 285.408 
L 285.069419 275.328 
L 285.394398 278.688 
L 285.719378 275.328 
L 286.044357 275.328 
L 286.369337 268.608 
L 286.694316 265.248 
L 287.019296 265.248 
L 287.344275 261.888 
L 287.669255 255.168 
L 287.994234 255.168 
L 288.319214 248.448 
L 288.644193 245.088 
L 288.969173 238.368 
L 289.294152 238.368 
L 289.944111 231.648 
L 290.269091 218.208 
L 290.59407 221.568 
L 291.244029 214.848 
L 291.893989 201.408 
L 292.543948 194.688 
L 293.193907 181.248 
L 293.518886 177.888 
L 294.168845 164.448 
L 294.493825 164.448 
L 294.818804 157.728 
L 295.143784 157.728 
L 295.468763 144.288 
L 295.793743 144.288 
L 296.443702 137.568 
L 296.768681 130.848 
L 297.74362 120.768 
L 298.0686 107.328 
L 298.393579 110.688 
L 298.718559 110.688 
L 299.368518 97.248 
L 300.018477 97.248 
L 300.343456 93.888 
L 300.668436 83.808 
L 300.993415 87.168 
L 301.318395 80.448 
L 301.643374 80.448 
L 302.293333 73.728 
L 302.943292 73.728 
L 303.268272 67.008 
L 303.918231 67.008 
L 304.24321 63.648 
L 304.89317 63.648 
L 305.218149 67.008 
L 305.543129 67.008 
L 305.868108 60.288 
L 306.193088 63.648 
L 306.518067 63.648 
L 306.843047 67.008 
L 307.168026 67.008 
L 307.817985 73.728 
L 308.142965 73.728 
L 308.467944 70.368 
L 309.117903 77.088 
L 309.442883 77.088 
L 309.767862 80.448 
L 310.092842 87.168 
L 310.417821 87.168 
L 310.742801 90.528 
L 311.067781 90.528 
L 311.39276 93.888 
L 311.71774 100.608 
L 313.017658 114.048 
L 313.342637 124.128 
L 313.667617 120.768 
L 313.992596 127.488 
L 314.317576 137.568 
L 314.967535 137.568 
L 315.942473 157.728 
L 316.267453 154.368 
L 316.592432 167.808 
L 316.917412 167.808 
L 317.242391 174.528 
L 317.567371 177.888 
L 317.892351 187.968 
L 318.867289 198.048 
L 319.192269 204.768 
L 319.517248 208.128 
L 319.842228 214.848 
L 320.167207 214.848 
L 320.492187 221.568 
L 320.817166 224.928 
L 321.142146 231.648 
L 321.467125 231.648 
L 321.792105 238.368 
L 322.117084 241.728 
L 322.442064 248.448 
L 322.767043 248.448 
L 323.417002 255.168 
L 323.741982 261.888 
L 324.066962 261.888 
L 324.716921 268.608 
L 325.0419 268.608 
L 326.016839 278.688 
L 326.666798 278.688 
L 327.641736 288.768 
L 327.966716 285.408 
L 328.616675 292.128 
L 328.941654 292.128 
L 329.266634 285.408 
L 329.591613 285.408 
L 329.916593 292.128 
L 330.566552 285.408 
L 331.541491 285.408 
L 331.86647 278.688 
L 332.516429 285.408 
L 333.491368 275.328 
L 333.816347 275.328 
L 334.141327 271.968 
L 334.466306 265.248 
L 334.791286 261.888 
L 335.116265 261.888 
L 335.441245 258.528 
L 335.766224 251.808 
L 336.091204 248.448 
L 336.741163 248.448 
L 337.066143 235.008 
L 337.391122 238.368 
L 337.716102 228.288 
L 338.041081 228.288 
L 338.366061 221.568 
L 338.69104 221.568 
L 339.01602 214.848 
L 339.340999 211.488 
L 339.665979 201.408 
L 339.990958 201.408 
L 340.315938 198.048 
L 340.965897 181.248 
L 341.290876 181.248 
L 341.615856 174.528 
L 341.940835 171.168 
L 342.265815 161.088 
L 342.590794 161.088 
L 342.915774 154.368 
L 343.240753 151.008 
L 343.890713 137.568 
L 344.540672 130.848 
L 344.865651 120.768 
L 345.190631 120.768 
L 345.51561 114.048 
L 347.140508 97.248 
L 347.465487 90.528 
L 347.790467 87.168 
L 348.115446 80.448 
L 348.440426 87.168 
L 348.765405 80.448 
L 350.390303 63.648 
L 350.715283 67.008 
L 351.040262 60.288 
L 351.365242 56.928 
L 351.690221 63.648 
L 352.015201 60.288 
L 352.34018 60.288 
L 352.66516 53.568 
L 352.990139 56.928 
L 353.315119 53.568 
L 353.640098 60.288 
L 353.965078 56.928 
L 354.290057 56.928 
L 354.615037 60.288 
L 354.940016 60.288 
L 355.264996 56.928 
L 356.239934 67.008 
L 356.564914 67.008 
L 357.539853 77.088 
L 357.864832 73.728 
L 358.189812 80.448 
L 358.514791 83.808 
L 358.839771 90.528 
L 359.16475 93.888 
L 359.48973 93.888 
L 359.814709 97.248 
L 360.139689 107.328 
L 360.464668 103.968 
L 361.114627 117.408 
L 361.439607 117.408 
L 361.764586 120.768 
L 362.089566 130.848 
L 362.414545 134.208 
L 362.739525 140.928 
L 363.064505 137.568 
L 363.389484 151.008 
L 364.364423 161.088 
L 365.339361 181.248 
L 365.664341 181.248 
L 366.3143 194.688 
L 366.964259 201.408 
L 367.289238 208.128 
L 367.614218 211.488 
L 367.939197 218.208 
L 368.264177 218.208 
L 368.589156 228.288 
L 368.914136 231.648 
L 369.239115 238.368 
L 369.564095 238.368 
L 369.889075 245.088 
L 370.539034 251.808 
L 370.864013 248.448 
L 371.513972 261.888 
L 371.838952 265.248 
L 372.163931 265.248 
L 372.488911 271.968 
L 372.81389 271.968 
L 373.13887 278.688 
L 373.463849 271.968 
L 373.788829 282.048 
L 374.113808 282.048 
L 374.438788 285.408 
L 374.763767 285.408 
L 375.738706 295.488 
L 376.063686 288.768 
L 376.388665 288.768 
L 376.713645 292.128 
L 377.038624 292.128 
L 377.363604 288.768 
L 377.688583 295.488 
L 378.013563 292.128 
L 378.338542 295.488 
L 378.663522 285.408 
L 378.988501 288.768 
L 379.313481 288.768 
L 379.63846 285.408 
L 380.288419 285.408 
L 380.613399 282.048 
L 380.938378 282.048 
L 381.263358 275.328 
L 381.913317 275.328 
L 382.238296 268.608 
L 382.888256 268.608 
L 383.213235 261.888 
L 383.538215 258.528 
L 383.863194 248.448 
L 384.188174 251.808 
L 384.838133 245.088 
L 385.163112 238.368 
L 386.138051 228.288 
L 386.46303 218.208 
L 386.78801 214.848 
L 387.112989 214.848 
L 387.437969 208.128 
L 387.762948 198.048 
L 388.087928 198.048 
L 388.412907 194.688 
L 388.737887 194.688 
L 389.062867 181.248 
L 389.387846 177.888 
L 389.712826 171.168 
L 390.037805 171.168 
L 390.362785 164.448 
L 390.687764 164.448 
L 391.337723 151.008 
L 391.662703 140.928 
L 391.987682 140.928 
L 392.312662 137.568 
L 392.962621 124.128 
L 393.2876 124.128 
L 393.61258 117.408 
L 393.937559 114.048 
L 394.262539 103.968 
L 394.587518 110.688 
L 394.912498 103.968 
L 395.237477 103.968 
L 395.887437 90.528 
L 396.537396 90.528 
L 396.862375 83.808 
L 397.187355 80.448 
L 397.512334 80.448 
L 397.837314 73.728 
L 398.487273 73.728 
L 398.487273 73.728 
" clip-path="url(#p3031cedca9)" style="fill: none; stroke: #2ca02c; stroke-width: 1.5; stroke-linecap: square"/>
   </g>
   <g id="patch_3">
    <path d="M 57.6 307.584 
L 57.6 41.472 
" style="fill: none; stroke: #000000; stroke-width: 0.8; stroke-linejoin: miter; stroke-linecap: square"/>
   </g>
   <g id="patch_4">
    <path d="M 414.72 307.584 
L 414.72 41.472 
" style="fill: none; stroke: #000000; stroke-width: 0.8; stroke-linejoin: miter; stroke-linecap: square"/>
   </g>
   <g id="patch_5">
    <path d="M 57.6 307.584 
L 414.72 307.584 
" style="fill: none; stroke: #000000; stroke-width: 0.8; stroke-linejoin: miter; stroke-linecap: square"/>
   </g>
   <g id="patch_6">
    <path d="M 57.6 41.472 
L 414.72 41.472 
" style="fill: none; stroke: #000000; stroke-width: 0.8; stroke-linejoin: miter; stroke-linecap: square"/>
   </g>
  </g>
 </g>
 <defs>
  <clipPath id="p3031cedca9">
   <rect x="57.6" y="41.472" width="357.12" height="266.112"/>
  </clipPath>
 </defs>
</svg>
