<?xml version="1.0" encoding="utf-8" standalone="no"?>
<!DOCTYPE svg PUBLIC "-//W3C//DTD SVG 1.1//EN"
  "http://www.w3.org/Graphics/SVG/1.1/DTD/svg11.dtd">
<svg xmlns:xlink="http://www.w3.org/1999/xlink" width="460.8pt" height="345.6pt" viewBox="0 0 460.8 345.6" xmlns="http://www.w3.org/2000/svg" version="1.1">
 <metadata>
  <rdf:RDF xmlns:dc="http://purl.org/dc/elements/1.1/" xmlns:cc="http://creativecommons.org/ns#" xmlns:rdf="http://www.w3.org/1999/02/22-rdf-syntax-ns#">
   <cc:Work>
    <dc:type rdf:resource="http://purl.org/dc/dcmitype/StillImage"/>
    <dc:date>2025-12-31T11:26:07.652734</dc:date>
    <dc:format>image/svg+xml</dc:format>
    <dc:creator>
     <cc:Agent>
      <dc:title>Matplotlib v3.10.8, https://matplotlib.org/</dc:title>
     </cc:Agent>
    </dc:creator>
   </cc:Work>
  </rdf:RDF>
 </metadata>
 <defs>
  <style type="text/css">*{stroke-linejoin: round; stroke-linecap: butt}</style>
 </defs>
 <g id="figure_1">
  <g id="patch_1">
   <path d="M 0 345.6 
L 460.8 345.6 
L 460.8 0 
L 0 0 
z
" style="fill: #ffffff"/>
  </g>
  <g id="axes_1">
   <g id="patch_2">
    <path d="M 57.6 307.584 
L 414.72 307.584 
L 414.72 41.472 
L 57.6 41.472 
z
" style="fill: #ffffff"/>
   </g>
   <g id="matplotlib.axis_1">
    <g id="xtick_1">
     <g id="line2d_1">
      <defs>
       <path id="m26087c47c8" d="M 0 0 
L 0 3.5 
" style="stroke: #000000; stroke-width: 0.8"/>
      </defs>
      <g>
       <use xlink:href="#m26087c47c8" x="73.832727" y="307.584" style="stroke: #000000; stroke-width: 0.8"/>
      </g>
     </g>
     <g id="text_1">
      <!-- 0 -->
      <g transform="translate(70.651477 322.182437) scale(0.1 -0.1)">
       <defs>
        <path id="DejaVuSans-30" d="M 2034 4250 
Q 1547 4250 1301 3770 
Q 1056 3291 1056 2328 
Q 1056 1369 1301 889 
Q 1547 409 2034 409 
Q 2525 409 2770 889 
Q 3016 1369 3016 2328 
Q 3016 3291 2770 3770 
Q 2525 4250 2034 4250 
z
M 2034 4750 
Q 2819 4750 3233 4129 
Q 3647 3509 3647 2328 
Q 3647 1150 3233 529 
Q 2819 -91 2034 -91 
Q 1250 -91 836 529 
Q 422 1150 422 2328 
Q 422 3509 836 4129 
Q 1250 4750 2034 4750 
z
" transform="scale(0.015625)"/>
       </defs>
       <use xlink:href="#DejaVuSans-30"/>
      </g>
     </g>
    </g>
    <g id="xtick_2">
     <g id="line2d_2">
      <g>
       <use xlink:href="#m26087c47c8" x="138.828632" y="307.584" style="stroke: #000000; stroke-width: 0.8"/>
      </g>
     </g>
     <g id="text_2">
      <!-- 1 -->
      <g transform="translate(135.647382 322.182437) scale(0.1 -0.1)">
       <defs>
        <path id="DejaVuSans-31" d="M 794 531 
L 1825 531 
L 1825 4091 
L 703 3866 
L 703 4441 
L 1819 4666 
L 2450 4666 
L 2450 531 
L 3481 531 
L 3481 0 
L 794 0 
L 794 531 
z
" transform="scale(0.015625)"/>
       </defs>
       <use xlink:href="#DejaVuSans-31"/>
      </g>
     </g>
    </g>
    <g id="xtick_3">
     <g id="line2d_3">
      <g>
       <use xlink:href="#m26087c47c8" x="203.824537" y="307.584" style="stroke: #000000; stroke-width: 0.8"/>
      </g>
     </g>
     <g id="text_3">
      <!-- 2 -->
      <g transform="translate(200.643287 322.182437) scale(0.1 -0.1)">
       <defs>
        <path id="DejaVuSans-32" d="M 1228 531 
L 3431 531 
L 3431 0 
L 469 0 
L 469 531 
Q 828 903 1448 1529 
Q 2069 2156 2228 2338 
Q 2531 2678 2651 2914 
Q 2772 3150 2772 3378 
Q 2772 3750 2511 3984 
Q 2250 4219 1831 4219 
Q 1534 4219 1204 4116 
Q 875 4013 500 3803 
L 500 4441 
Q 881 4594 1212 4672 
Q 1544 4750 1819 4750 
Q 2544 4750 2975 4387 
Q 3406 4025 3406 3419 
Q 3406 3131 3298 2873 
Q 3191 2616 2906 2266 
Q 2828 2175 2409 1742 
Q 1991 1309 1228 531 
z
" transform="scale(0.015625)"/>
       </defs>
       <use xlink:href="#DejaVuSans-32"/>
      </g>
     </g>
    </g>
    <g id="xtick_4">
     <g id="line2d_4">
      <g>
       <use xlink:href="#m26087c47c8" x="268.820442" y="307.584" style="stroke: #000000; stroke-width: 0.8"/>
      </g>
     </g>
     <g id="text_4">
      <!-- 3 -->
      <g transform="translate(265.639192 322.182437) scale(0.1 -0.1)">
       <defs>
        <path id="DejaVuSans-33" d="M 2597 2516 
Q 3050 2419 3304 2112 
Q 3559 1806 3559 1356 
Q 3559 666 3084 287 
Q 2609 -91 1734 -91 
Q 1441 -91 1130 -33 
Q 819 25 488 141 
L 488 750 
Q 750 597 1062 519 
Q 1375 441 1716 441 
Q 2309 441 2620 675 
Q 2931 909 2931 1356 
Q 2931 1769 2642 2001 
Q 2353 2234 1838 2234 
L 1294 2234 
L 1294 2753 
L 1863 2753 
Q 2328 2753 2575 2939 
Q 2822 3125 2822 3475 
Q 2822 3834 2567 4026 
Q 2313 4219 1838 4219 
Q 1578 4219 1281 4162 
Q 984 4106 628 3988 
L 628 4550 
Q 988 4650 1302 4700 
Q 1616 4750 1894 4750 
Q 2613 4750 3031 4423 
Q 3450 4097 3450 3541 
Q 3450 3153 3228 2886 
Q 3006 2619 2597 2516 
z
" transform="scale(0.015625)"/>
       </defs>
       <use xlink:href="#DejaVuSans-33"/>
      </g>
     </g>
    </g>
    <g id="xtick_5">
     <g id="line2d_5">
      <g>
       <use xlink:href="#m26087c47c8" x="333.816347" y="307.584" style="stroke: #000000; stroke-width: 0.8"/>
      </g>
     </g>
     <g id="text_5">
      <!-- 4 -->
      <g transform="translate(330.635097 322.182437) scale(0.1 -0.1)">
       <defs>
        <path id="DejaVuSans-34" d="M 2419 4116 
L 825 1625 
L 2419 1625 
L 2419 4116 
z
M 2253 4666 
L 3047 4666 
L 3047 1625 
L 3713 1625 
L 3713 1100 
L 3047 1100 
L 3047 0 
L 2419 0 
L 2419 1100 
L 313 1100 
L 313 1709 
L 2253 4666 
z
" transform="scale(0.015625)"/>
       </defs>
       <use xlink:href="#DejaVuSans-34"/>
      </g>
     </g>
    </g>
    <g id="xtick_6">
     <g id="line2d_6">
      <g>
       <use xlink:href="#m26087c47c8" x="398.812252" y="307.584" style="stroke: #000000; stroke-width: 0.8"/>
      </g>
     </g>
     <g id="text_6">
      <!-- 5 -->
      <g transform="translate(395.631002 322.182437) scale(0.1 -0.1)">
       <defs>
        <path id="DejaVuSans-35" d="M 691 4666 
L 3169 4666 
L 3169 4134 
L 1269 4134 
L 1269 2991 
Q 1406 3038 1543 3061 
Q 1681 3084 1819 3084 
Q 2600 3084 3056 2656 
Q 3513 2228 3513 1497 
Q 3513 744 3044 326 
Q 2575 -91 1722 -91 
Q 1428 -91 1123 -41 
Q 819 9 494 109 
L 494 744 
Q 775 591 1075 516 
Q 1375 441 1709 441 
Q 2250 441 2565 725 
Q 2881 1009 2881 1497 
Q 2881 1984 2565 2268 
Q 2250 2553 1709 2553 
Q 1456 2553 1204 2497 
Q 953 2441 691 2322 
L 691 4666 
z
" transform="scale(0.015625)"/>
       </defs>
       <use xlink:href="#DejaVuSans-35"/>
      </g>
     </g>
    </g>
    <g id="text_7">
     <!-- 1e−7 -->
     <g transform="translate(387.462188 334.860562) scale(0.1 -0.1)">
      <defs>
       <path id="DejaVuSans-65" d="M 3597 1894 
L 3597 1613 
L 953 1613 
Q 991 1019 1311 708 
Q 1631 397 2203 397 
Q 2534 397 2845 478 
Q 3156 559 3463 722 
L 3463 178 
Q 3153 47 2828 -22 
Q 2503 -91 2169 -91 
Q 1331 -91 842 396 
Q 353 884 353 1716 
Q 353 2575 817 3079 
Q 1281 3584 2069 3584 
Q 2775 3584 3186 3129 
Q 3597 2675 3597 1894 
z
M 3022 2063 
Q 3016 2534 2758 2815 
Q 2500 3097 2075 3097 
Q 1594 3097 1305 2825 
Q 1016 2553 972 2059 
L 3022 2063 
z
" transform="scale(0.015625)"/>
       <path id="DejaVuSans-2212" d="M 678 2272 
L 4684 2272 
L 4684 1741 
L 678 1741 
L 678 2272 
z
" transform="scale(0.015625)"/>
       <path id="DejaVuSans-37" d="M 525 4666 
L 3525 4666 
L 3525 4397 
L 1831 0 
L 1172 0 
L 2766 4134 
L 525 4134 
L 525 4666 
z
" transform="scale(0.015625)"/>
      </defs>
      <use xlink:href="#DejaVuSans-31"/>
      <use xlink:href="#DejaVuSans-65" transform="translate(63.623047 0)"/>
      <use xlink:href="#DejaVuSans-2212" transform="translate(125.146484 0)"/>
      <use xlink:href="#DejaVuSans-37" transform="translate(208.935547 0)"/>
     </g>
    </g>
   </g>
   <g id="matplotlib.axis_2">
    <g id="ytick_1">
     <g id="line2d_7">
      <defs>
       <path id="m7a8589d5d3" d="M 0 0 
L -3.5 0 
" style="stroke: #000000; stroke-width: 0.8"/>
      </defs>
      <g>
       <use xlink:href="#m7a8589d5d3" x="57.6" y="275.328017" style="stroke: #000000; stroke-width: 0.8"/>
      </g>
     </g>
     <g id="text_8">
      <!-- 0 -->
      <g transform="translate(44.2375 279.127235) scale(0.1 -0.1)">
       <use xlink:href="#DejaVuSans-30"/>
      </g>
     </g>
    </g>
    <g id="ytick_2">
     <g id="line2d_8">
      <g>
       <use xlink:href="#m7a8589d5d3" x="57.6" y="235.008012" style="stroke: #000000; stroke-width: 0.8"/>
      </g>
     </g>
     <g id="text_9">
      <!-- 10 -->
      <g transform="translate(37.875 238.807231) scale(0.1 -0.1)">
       <use xlink:href="#DejaVuSans-31"/>
       <use xlink:href="#DejaVuSans-30" transform="translate(63.623047 0)"/>
      </g>
     </g>
    </g>
    <g id="ytick_3">
     <g id="line2d_9">
      <g>
       <use xlink:href="#m7a8589d5d3" x="57.6" y="194.688008" style="stroke: #000000; stroke-width: 0.8"/>
      </g>
     </g>
     <g id="text_10">
      <!-- 20 -->
      <g transform="translate(37.875 198.487227) scale(0.1 -0.1)">
       <use xlink:href="#DejaVuSans-32"/>
       <use xlink:href="#DejaVuSans-30" transform="translate(63.623047 0)"/>
      </g>
     </g>
    </g>
    <g id="ytick_4">
     <g id="line2d_10">
      <g>
       <use xlink:href="#m7a8589d5d3" x="57.6" y="154.368004" style="stroke: #000000; stroke-width: 0.8"/>
      </g>
     </g>
     <g id="text_11">
      <!-- 30 -->
      <g transform="translate(37.875 158.167223) scale(0.1 -0.1)">
       <use xlink:href="#DejaVuSans-33"/>
       <use xlink:href="#DejaVuSans-30" transform="translate(63.623047 0)"/>
      </g>
     </g>
    </g>
    <g id="ytick_5">
     <g id="line2d_11">
      <g>
       <use xlink:href="#m7a8589d5d3" x="57.6" y="114.048" style="stroke: #000000; stroke-width: 0.8"/>
      </g>
     </g>
     <g id="text_12">
      <!-- 40 -->
      <g transform="translate(37.875 117.847219) scale(0.1 -0.1)">
       <use xlink:href="#DejaVuSans-34"/>
       <use xlink:href="#DejaVuSans-30" transform="translate(63.623047 0)"/>
      </g>
     </g>
    </g>
    <g id="ytick_6">
     <g id="line2d_12">
      <g>
       <use xlink:href="#m7a8589d5d3" x="57.6" y="73.727996" style="stroke: #000000; stroke-width: 0.8"/>
      </g>
     </g>
     <g id="text_13">
      <!-- 50 -->
      <g transform="translate(37.875 77.527215) scale(0.1 -0.1)">
       <use xlink:href="#DejaVuSans-35"/>
       <use xlink:href="#DejaVuSans-30" transform="translate(63.623047 0)"/>
      </g>
     </g>
    </g>
   </g>
   <g id="line2d_13">
    <path d="M 73.832727 255.609013 
L 74.157707 255.924013 
L 74.482686 255.924013 
L 74.807666 255.609013 
L 75.132645 255.609013 
L 75.782604 254.979013 
L 76.107584 255.294013 
L 76.432563 255.924013 
L 77.082523 255.294013 
L 77.407502 255.924013 
L 77.732482 255.609013 
L 78.057461 255.609013 
L 78.382441 255.294013 
L 78.70742 255.294013 
L 79.0324 254.979013 
L 79.357379 254.979013 
L 79.682359 255.294013 
L 80.007338 255.294013 
L 80.332318 255.609013 
L 80.657297 255.609013 
L 80.982277 255.924013 
L 81.307256 255.924013 
L 81.632236 256.239013 
L 82.282195 255.609013 
L 82.607174 255.924013 
L 82.932154 255.609013 
L 83.257133 255.609013 
L 83.582113 255.294013 
L 83.907093 255.609013 
L 84.232072 255.609013 
L 84.557052 256.239013 
L 84.882031 256.239013 
L 85.207011 255.924013 
L 85.53199 256.239013 
L 85.85697 256.239013 
L 86.181949 256.554013 
L 86.506929 256.554013 
L 86.831908 256.239013 
L 87.156888 256.554013 
L 87.481867 258.129013 
L 87.806847 260.964014 
L 88.456806 263.484014 
L 88.781785 265.374014 
L 89.106765 268.524015 
L 90.081704 280.809017 
L 90.406683 283.014017 
L 90.731663 283.644017 
L 91.381622 284.274018 
L 91.706601 283.959017 
L 92.031581 283.959017 
L 92.35656 282.699017 
L 93.006519 277.659016 
L 93.656478 272.934016 
L 93.981458 272.619016 
L 94.306437 272.934016 
L 94.631417 272.934016 
L 94.956396 271.674015 
L 95.281376 271.359015 
L 95.606355 271.989016 
L 96.256314 274.824016 
L 96.581294 274.824016 
L 96.906274 274.509016 
L 97.231253 274.824016 
L 98.206192 279.549017 
L 98.531171 278.289017 
L 98.856151 276.399016 
L 99.18113 275.454016 
L 99.50611 275.769016 
L 99.831089 277.029016 
L 100.156069 277.029016 
L 100.481048 276.399016 
L 100.806028 275.139016 
L 101.455987 275.139016 
L 101.780966 275.769016 
L 102.430925 274.509016 
L 102.755905 274.509016 
L 103.405864 276.714016 
L 103.730844 276.714016 
L 104.055823 276.399016 
L 104.380803 275.139016 
L 104.705782 275.139016 
L 105.355741 276.399016 
L 105.680721 276.714016 
L 106.33068 276.084016 
L 106.655659 276.084016 
L 106.980639 276.399016 
L 107.305618 276.399016 
L 107.630598 275.769016 
L 108.280557 275.769016 
L 108.605536 276.714016 
L 108.930516 276.399016 
L 109.580475 275.139016 
L 110.230434 275.769016 
L 110.555414 276.399016 
L 110.880393 276.714016 
L 111.530352 276.084016 
L 111.855332 276.399016 
L 112.180311 276.399016 
L 112.505291 275.769016 
L 112.83027 275.454016 
L 113.15525 275.454016 
L 113.480229 275.769016 
L 113.805209 276.399016 
L 114.130188 276.714016 
L 114.780147 276.084016 
L 115.105127 275.454016 
L 115.430106 275.454016 
L 115.755086 275.139016 
L 116.080066 275.769016 
L 116.405045 275.769016 
L 116.730025 276.084016 
L 117.379984 276.084016 
L 118.354922 275.139016 
L 118.679902 275.454016 
L 119.004881 276.084016 
L 119.97982 276.084016 
L 120.304799 275.769016 
L 120.629779 275.769016 
L 120.954758 275.454016 
L 121.279738 275.454016 
L 121.929697 276.084016 
L 122.579656 276.084016 
L 122.904636 275.769016 
L 123.229615 276.084016 
L 123.554595 275.769016 
L 124.529533 275.769016 
L 124.854513 276.084016 
L 125.504472 276.084016 
L 125.829451 275.769016 
L 126.47941 275.769016 
L 126.80439 275.454016 
L 127.129369 276.399016 
L 127.779328 276.399016 
L 128.104308 275.769016 
L 128.429287 275.769016 
L 128.754267 275.454016 
L 129.404226 276.084016 
L 129.729206 276.084016 
L 130.054185 276.399016 
L 130.379165 276.084016 
L 130.704144 276.084016 
L 131.029124 275.769016 
L 131.354103 275.769016 
L 131.679083 276.084016 
L 132.004062 276.084016 
L 132.329042 276.399016 
L 132.654021 276.399016 
L 132.979001 276.084016 
L 133.30398 276.399016 
L 133.953939 275.769016 
L 134.928878 275.769016 
L 135.253857 276.084016 
L 135.903817 276.084016 
L 136.228796 275.769016 
L 137.203735 275.769016 
L 137.528714 276.399016 
L 137.853694 276.084016 
L 138.178673 276.399016 
L 138.503653 276.084016 
L 138.828632 276.399016 
L 139.153612 276.084016 
L 139.478591 276.084016 
L 139.803571 276.399016 
L 140.45353 276.399016 
L 140.778509 276.714016 
L 141.103489 276.399016 
L 141.428468 275.769016 
L 141.753448 275.769016 
L 142.078428 276.084016 
L 142.403407 276.714016 
L 142.728387 276.714016 
L 143.053366 276.084016 
L 143.703325 276.714016 
L 144.028305 276.714016 
L 144.353284 276.399016 
L 145.003243 276.399016 
L 145.328223 276.084016 
L 145.653202 276.714016 
L 145.978182 276.399016 
L 146.303161 276.399016 
L 146.628141 276.714016 
L 146.95312 276.399016 
L 147.2781 276.399016 
L 147.603079 276.084016 
L 147.928059 276.714016 
L 148.253038 276.714016 
L 148.578018 276.399016 
L 148.902998 276.714016 
L 149.227977 276.714016 
L 149.877936 276.084016 
L 150.202916 276.714016 
L 150.527895 276.399016 
L 150.852875 276.399016 
L 151.177854 276.084016 
L 151.502834 276.084016 
L 151.827813 276.399016 
L 152.152793 275.769016 
L 152.802752 275.139016 
L 153.127731 275.139016 
L 153.452711 274.509016 
L 153.77769 273.564016 
L 154.427649 270.099015 
L 155.727568 260.964014 
L 156.377527 259.074013 
L 156.702506 258.759013 
L 158.002424 255.294013 
L 158.652383 254.034013 
L 159.302342 253.404012 
L 159.627322 252.774012 
L 159.952301 252.459012 
L 160.277281 252.459012 
L 160.60226 253.089012 
L 160.92724 253.089012 
L 161.252219 253.719013 
L 161.577199 254.034013 
L 161.902179 254.979013 
L 162.552138 254.979013 
L 163.202097 255.609013 
L 163.527076 256.239013 
L 164.177035 256.239013 
L 164.826994 256.869013 
L 165.151974 256.869013 
L 165.476953 257.184013 
L 165.801933 257.814013 
L 166.126912 257.184013 
L 166.451892 257.184013 
L 166.776871 256.869013 
L 167.101851 256.239013 
L 167.42683 256.239013 
L 167.75181 255.924013 
L 168.07679 256.239013 
L 168.401769 255.924013 
L 168.726749 256.239013 
L 169.051728 255.924013 
L 169.376708 256.239013 
L 169.701687 256.239013 
L 170.676626 255.294013 
L 171.001605 255.609013 
L 171.326585 255.294013 
L 171.651564 255.609013 
L 171.976544 255.609013 
L 172.301523 255.294013 
L 172.951482 255.294013 
L 173.601441 255.924013 
L 173.926421 255.924013 
L 174.2514 255.609013 
L 174.57638 255.924013 
L 174.90136 255.924013 
L 175.876298 254.979013 
L 176.201278 255.609013 
L 176.526257 255.924013 
L 177.176216 255.924013 
L 177.501196 256.239013 
L 177.826175 256.239013 
L 178.151155 255.609013 
L 178.476134 255.924013 
L 178.801114 255.924013 
L 179.451073 255.294013 
L 179.776052 255.294013 
L 180.101032 255.924013 
L 180.750991 255.924013 
L 181.075971 255.609013 
L 181.40095 256.239013 
L 182.375889 256.239013 
L 182.700868 255.924013 
L 183.025848 256.554013 
L 184.000786 263.169014 
L 184.650745 265.689015 
L 185.300704 272.934016 
L 185.950663 280.179017 
L 186.275643 282.384017 
L 186.600622 283.644017 
L 186.925602 283.959017 
L 187.250581 284.589018 
L 187.900541 283.959017 
L 188.22552 282.699017 
L 188.5505 280.809017 
L 189.200459 275.139016 
L 189.525438 273.564016 
L 189.850418 272.934016 
L 190.175397 273.249016 
L 190.500377 272.934016 
L 190.825356 271.989016 
L 191.150336 271.674015 
L 191.475315 271.989016 
L 192.125274 275.139016 
L 192.450254 275.139016 
L 193.100213 274.509016 
L 193.425192 275.769016 
L 193.750172 278.289017 
L 194.075152 279.549017 
L 194.400131 278.919017 
L 194.725111 277.029016 
L 195.05009 276.084016 
L 195.37507 276.084016 
L 195.700049 277.344016 
L 196.025029 277.344016 
L 196.674988 275.139016 
L 196.999967 275.454016 
L 197.324947 276.084016 
L 197.649926 276.084016 
L 198.299885 274.509016 
L 198.624865 274.509016 
L 199.274824 276.714016 
L 199.599803 276.714016 
L 200.249762 275.139016 
L 200.574742 275.454016 
L 200.899722 276.399016 
L 201.549681 277.029016 
L 201.87466 276.714016 
L 202.19964 277.029016 
L 202.849599 276.399016 
L 203.174578 275.769016 
L 203.499558 275.454016 
L 203.824537 275.454016 
L 204.149517 275.769016 
L 204.474496 276.714016 
L 205.124455 276.714016 
L 205.449435 276.084016 
L 205.774414 275.769016 
L 206.424373 276.399016 
L 206.749353 276.084016 
L 207.074333 276.084016 
L 207.399312 276.399016 
L 207.724292 276.084016 
L 208.049271 276.399016 
L 208.374251 275.769016 
L 209.349189 275.769016 
L 209.674169 276.399016 
L 209.999148 276.714016 
L 210.649107 276.084016 
L 211.624046 276.084016 
L 211.949025 276.399016 
L 212.274005 276.084016 
L 212.598984 276.399016 
L 213.248943 276.399016 
L 214.223882 275.454016 
L 214.873841 276.084016 
L 215.198821 275.769016 
L 215.5238 275.769016 
L 215.84878 276.399016 
L 216.173759 276.084016 
L 216.498739 276.084016 
L 216.823718 275.454016 
L 217.798657 276.399016 
L 218.123636 276.084016 
L 218.448616 276.399016 
L 219.098575 275.769016 
L 219.423554 275.769016 
L 219.748534 275.454016 
L 220.073514 276.084016 
L 222.67335 276.084016 
L 222.998329 276.399016 
L 223.323309 275.769016 
L 223.648288 276.084016 
L 223.973268 275.454016 
L 224.298247 275.769016 
L 224.623227 275.769016 
L 225.273186 276.399016 
L 225.598165 275.769016 
L 225.923145 276.084016 
L 226.248124 276.084016 
L 226.573104 276.399016 
L 227.223063 275.769016 
L 227.548043 276.084016 
L 227.873022 275.454016 
L 228.198002 275.769016 
L 228.522981 275.769016 
L 228.847961 276.084016 
L 229.17294 276.084016 
L 229.49792 275.769016 
L 230.797838 275.769016 
L 231.122817 276.084016 
L 231.447797 275.769016 
L 231.772776 275.769016 
L 232.097756 275.454016 
L 232.747715 275.454016 
L 233.397674 276.084016 
L 234.372613 276.084016 
L 234.697592 276.399016 
L 235.022572 276.399016 
L 235.347551 275.769016 
L 235.672531 275.769016 
L 235.99751 275.454016 
L 236.647469 276.084016 
L 237.622408 276.084016 
L 237.947387 275.769016 
L 238.272367 275.769016 
L 238.597346 276.399016 
L 239.572285 276.399016 
L 240.222244 277.029016 
L 240.547224 276.399016 
L 241.197183 276.399016 
L 241.522162 276.714016 
L 242.497101 276.714016 
L 242.82208 277.029016 
L 243.472039 276.399016 
L 244.121998 276.399016 
L 244.446978 276.714016 
L 245.746896 276.714016 
L 246.071876 277.029016 
L 247.046814 276.084016 
L 247.371794 276.084016 
L 247.696773 276.399016 
L 248.671712 275.454016 
L 248.996691 275.454016 
L 249.321671 275.139016 
L 249.64665 273.879016 
L 251.271548 263.799014 
L 251.921507 260.019014 
L 252.246486 258.759013 
L 252.571466 258.444013 
L 252.896446 257.814013 
L 253.871384 254.979013 
L 254.196364 254.979013 
L 254.846323 253.404012 
L 255.171302 252.774012 
L 255.496282 252.774012 
L 255.821261 252.459012 
L 256.146241 252.459012 
L 256.47122 253.089012 
L 256.7962 253.089012 
L 257.771138 254.979013 
L 258.096118 255.294013 
L 258.746077 255.294013 
L 259.396036 255.924013 
L 259.721016 255.609013 
L 260.045995 255.924013 
L 260.370975 255.924013 
L 260.695954 256.554013 
L 261.020934 256.554013 
L 261.345913 256.869013 
L 261.995872 256.869013 
L 262.320852 256.554013 
L 262.970811 256.554013 
L 263.29579 255.924013 
L 263.62077 255.924013 
L 263.945749 255.609013 
L 264.270729 255.609013 
L 264.595708 255.924013 
L 264.920688 255.924013 
L 265.245667 256.239013 
L 265.570647 255.924013 
L 265.895627 255.924013 
L 266.220606 256.239013 
L 266.545586 256.239013 
L 266.870565 255.609013 
L 267.195545 255.609013 
L 267.520524 255.294013 
L 267.845504 254.664013 
L 268.495463 255.294013 
L 268.820442 255.924013 
L 269.145422 256.239013 
L 269.470401 255.609013 
L 269.795381 255.924013 
L 270.12036 255.924013 
L 270.44534 256.239013 
L 270.770319 255.924013 
L 271.095299 255.294013 
L 271.420278 255.609013 
L 271.745258 255.609013 
L 272.070238 255.924013 
L 272.395217 255.609013 
L 272.720197 256.239013 
L 273.045176 255.924013 
L 273.370156 256.239013 
L 274.020115 256.239013 
L 274.670074 255.609013 
L 274.995053 255.924013 
L 275.320033 255.609013 
L 275.645012 255.609013 
L 275.969992 255.924013 
L 276.294971 255.924013 
L 276.619951 255.609013 
L 277.26991 256.239013 
L 277.594889 255.924013 
L 277.919869 256.239013 
L 278.244848 255.924013 
L 278.569828 255.924013 
L 278.894808 256.869013 
L 279.219787 258.444013 
L 279.544767 260.964014 
L 279.869746 262.539014 
L 280.519705 264.744014 
L 282.144603 282.699017 
L 282.469582 283.644017 
L 283.119541 284.274018 
L 283.7695 284.274018 
L 284.09448 282.699017 
L 284.744439 277.659016 
L 285.069419 274.824016 
L 285.394398 273.564016 
L 285.719378 272.934016 
L 286.044357 272.934016 
L 286.369337 272.304016 
L 286.694316 271.989016 
L 287.019296 271.359015 
L 287.344275 271.989016 
L 287.994234 275.139016 
L 288.644193 274.509016 
L 288.969173 274.509016 
L 289.294152 276.084016 
L 289.619132 278.289017 
L 289.944111 279.549017 
L 290.91905 276.084016 
L 291.244029 276.084016 
L 291.569009 277.029016 
L 291.893989 277.344016 
L 292.218968 276.714016 
L 292.543948 275.454016 
L 293.193907 275.454016 
L 293.518886 275.769016 
L 294.168845 274.509016 
L 294.493825 274.824016 
L 294.818804 276.084016 
L 295.143784 276.714016 
L 295.468763 276.714016 
L 295.793743 276.399016 
L 296.118722 275.454016 
L 296.443702 275.454016 
L 296.768681 275.769016 
L 297.093661 276.399016 
L 297.41864 276.714016 
L 297.74362 276.399016 
L 298.0686 276.714016 
L 298.393579 276.084016 
L 298.718559 276.399016 
L 299.043538 276.399016 
L 299.368518 275.769016 
L 299.693497 275.769016 
L 300.343456 276.399016 
L 300.993415 276.399016 
L 301.318395 275.454016 
L 301.643374 275.769016 
L 301.968354 275.769016 
L 302.618313 276.399016 
L 302.943292 276.084016 
L 303.268272 276.084016 
L 303.593251 275.769016 
L 303.918231 275.769016 
L 304.24321 276.084016 
L 304.56819 276.084016 
L 304.89317 275.769016 
L 305.543129 276.399016 
L 305.868108 276.084016 
L 306.193088 276.399016 
L 306.518067 275.769016 
L 307.168026 275.769016 
L 307.493006 275.454016 
L 308.142965 276.084016 
L 308.792924 276.084016 
L 309.117903 275.769016 
L 309.767862 276.399016 
L 310.092842 276.084016 
L 310.742801 276.084016 
L 311.39276 276.714016 
L 311.71774 276.399016 
L 312.042719 276.399016 
L 312.367699 276.084016 
L 312.692678 276.084016 
L 313.017658 276.399016 
L 313.342637 276.084016 
L 313.667617 276.399016 
L 313.992596 276.399016 
L 314.317576 276.084016 
L 314.967535 276.084016 
L 315.617494 275.454016 
L 315.942473 276.084016 
L 316.267453 276.084016 
L 316.592432 276.399016 
L 316.917412 276.399016 
L 317.242391 276.084016 
L 317.567371 276.084016 
L 317.892351 276.399016 
L 318.21733 276.084016 
L 318.54231 276.084016 
L 318.867289 276.714016 
L 319.192269 276.399016 
L 319.517248 276.714016 
L 320.167207 276.084016 
L 320.492187 276.084016 
L 320.817166 275.769016 
L 321.142146 275.769016 
L 321.467125 275.454016 
L 321.792105 276.084016 
L 322.117084 276.084016 
L 322.442064 276.399016 
L 322.767043 276.084016 
L 323.092023 276.084016 
L 323.417002 275.769016 
L 323.741982 275.769016 
L 324.391941 276.399016 
L 324.716921 276.084016 
L 325.0419 276.084016 
L 325.36688 275.769016 
L 325.691859 275.769016 
L 326.341818 276.399016 
L 326.666798 276.084016 
L 326.991777 276.399016 
L 327.966716 276.399016 
L 328.616675 275.769016 
L 328.941654 275.769016 
L 329.266634 276.399016 
L 329.591613 276.084016 
L 329.916593 276.084016 
L 330.241572 276.399016 
L 330.891532 276.399016 
L 331.541491 275.769016 
L 331.86647 275.769016 
L 332.19145 276.399016 
L 332.516429 276.084016 
L 332.841409 276.084016 
L 333.166388 275.769016 
L 333.491368 276.084016 
L 333.816347 275.769016 
L 334.141327 275.769016 
L 335.116265 276.714016 
L 335.441245 276.084016 
L 335.766224 276.399016 
L 336.091204 276.084016 
L 336.416183 276.084016 
L 336.741163 275.769016 
L 337.066143 275.769016 
L 337.391122 276.399016 
L 337.716102 276.399016 
L 338.041081 276.714016 
L 338.366061 276.399016 
L 338.69104 276.399016 
L 339.01602 276.084016 
L 339.665979 276.714016 
L 340.315938 276.714016 
L 340.640917 276.399016 
L 340.965897 277.029016 
L 341.290876 276.399016 
L 341.940835 276.399016 
L 342.265815 276.714016 
L 342.590794 276.714016 
L 342.915774 276.084016 
L 343.240753 276.084016 
L 343.565733 275.454016 
L 343.890713 276.084016 
L 344.215692 275.769016 
L 344.540672 275.769016 
L 344.865651 275.454016 
L 345.190631 274.824016 
L 345.84059 271.989016 
L 346.165569 270.414015 
L 347.465487 260.964014 
L 347.790467 260.334014 
L 348.115446 259.074013 
L 348.440426 258.444013 
L 348.765405 257.499013 
L 349.090385 257.184013 
L 349.415364 256.554013 
L 349.740344 255.609013 
L 350.065324 255.294013 
L 350.715283 253.719013 
L 351.040262 253.404012 
L 351.365242 252.774012 
L 351.690221 252.774012 
L 352.015201 252.459012 
L 352.34018 252.774012 
L 352.990139 254.034013 
L 353.315119 253.719013 
L 353.640098 254.664013 
L 353.965078 254.664013 
L 354.290057 255.294013 
L 354.615037 255.609013 
L 354.940016 255.294013 
L 355.264996 255.609013 
L 355.589975 255.609013 
L 355.914955 256.239013 
L 356.239934 256.239013 
L 356.889894 256.869013 
L 357.864832 256.869013 
L 358.189812 257.184013 
L 359.814709 255.609013 
L 360.139689 255.609013 
L 360.464668 255.924013 
L 361.114627 255.924013 
L 361.439607 255.609013 
L 361.764586 255.924013 
L 362.089566 255.609013 
L 362.414545 255.609013 
L 362.739525 255.294013 
L 363.714464 255.294013 
L 364.039443 255.609013 
L 364.364423 255.294013 
L 364.689402 255.609013 
L 365.014382 255.609013 
L 365.339361 255.924013 
L 365.98932 255.924013 
L 366.3143 255.609013 
L 366.639279 255.609013 
L 366.964259 255.294013 
L 367.289238 255.294013 
L 367.614218 255.609013 
L 368.264177 255.609013 
L 368.589156 256.554013 
L 368.914136 255.924013 
L 369.239115 256.239013 
L 369.564095 255.924013 
L 370.214054 255.924013 
L 370.539034 255.609013 
L 371.513972 255.609013 
L 371.838952 255.294013 
L 372.163931 255.924013 
L 372.488911 255.924013 
L 372.81389 255.609013 
L 373.788829 256.554013 
L 374.113808 255.609013 
L 374.438788 255.924013 
L 374.763767 256.554013 
L 376.713645 268.524015 
L 378.013563 282.699017 
L 378.338542 283.644017 
L 378.663522 283.644017 
L 379.313481 284.274018 
L 379.63846 283.959017 
L 379.96344 282.384017 
L 381.263358 273.564016 
L 381.588337 272.934016 
L 381.913317 272.934016 
L 382.238296 272.619016 
L 382.563276 271.989016 
L 382.888256 271.989016 
L 383.213235 272.304016 
L 383.863194 274.824016 
L 384.188174 275.454016 
L 384.513153 274.509016 
L 384.838133 274.824016 
L 385.163112 276.399016 
L 385.488092 278.604017 
L 385.813071 279.234017 
L 386.138051 278.289017 
L 386.78801 275.454016 
L 387.437969 276.714016 
L 387.762948 277.659016 
L 388.737887 275.139016 
L 389.062867 275.139016 
L 389.387846 275.454016 
L 389.712826 274.824016 
L 390.037805 274.824016 
L 390.362785 274.509016 
L 391.012744 276.714016 
L 391.337723 276.714016 
L 391.987682 275.139016 
L 392.312662 275.139016 
L 392.962621 277.029016 
L 393.2876 276.714016 
L 393.61258 276.714016 
L 394.262539 276.084016 
L 394.587518 276.399016 
L 395.237477 275.769016 
L 395.562457 275.769016 
L 395.887437 276.399016 
L 396.212416 276.714016 
L 396.537396 276.399016 
L 396.862375 276.399016 
L 397.187355 275.769016 
L 397.837314 275.139016 
L 398.162293 275.454016 
L 398.487273 276.084016 
L 398.487273 276.084016 
" clip-path="url(#pc2f1b4c47e)" style="fill: none; stroke: #1f77b4; stroke-width: 1.5; stroke-linecap: square"/>
   </g>
   <g id="line2d_14">
    <path d="M 73.832727 276.084016 
L 74.157707 276.084016 
L 74.482686 275.454016 
L 74.807666 275.454016 
L 75.132645 276.084016 
L 75.457625 276.399016 
L 75.782604 275.769016 
L 76.432563 275.139016 
L 76.757543 275.769016 
L 77.082523 275.769016 
L 77.407502 276.084016 
L 78.057461 276.084016 
L 78.382441 275.769016 
L 79.0324 275.769016 
L 79.357379 276.084016 
L 79.682359 275.769016 
L 80.332318 276.399016 
L 80.657297 275.769016 
L 80.982277 275.769016 
L 81.632236 275.139016 
L 81.957215 275.769016 
L 82.282195 276.084016 
L 83.257133 276.084016 
L 83.582113 275.454016 
L 83.907093 275.769016 
L 84.232072 275.769016 
L 84.557052 276.084016 
L 85.207011 276.084016 
L 85.53199 275.769016 
L 86.181949 275.769016 
L 86.506929 275.454016 
L 86.831908 275.454016 
L 87.156888 276.399016 
L 87.806847 276.399016 
L 88.131826 276.084016 
L 88.456806 275.454016 
L 88.781785 275.454016 
L 89.106765 275.769016 
L 89.431744 275.769016 
L 89.756724 276.084016 
L 90.081704 276.084016 
L 90.406683 275.769016 
L 90.731663 276.399016 
L 91.056642 275.769016 
L 91.381622 276.084016 
L 91.706601 275.769016 
L 92.031581 276.084016 
L 92.35656 276.084016 
L 93.006519 275.454016 
L 93.331499 275.454016 
L 93.656478 275.769016 
L 94.631417 275.769016 
L 94.956396 276.084016 
L 95.606355 276.084016 
L 95.931335 276.399016 
L 96.256314 276.399016 
L 96.581294 276.084016 
L 96.906274 275.454016 
L 97.231253 275.769016 
L 97.556233 275.769016 
L 97.881212 276.399016 
L 98.206192 276.399016 
L 98.531171 276.084016 
L 98.856151 276.084016 
L 99.18113 275.769016 
L 99.50611 276.084016 
L 99.831089 276.714016 
L 100.481048 276.084016 
L 101.131007 276.714016 
L 101.780966 276.714016 
L 102.105946 276.399016 
L 102.430925 276.399016 
L 102.755905 276.714016 
L 103.080885 276.714016 
L 103.405864 276.084016 
L 104.055823 275.454016 
L 104.380803 274.824016 
L 104.705782 274.509016 
L 105.030762 275.139016 
L 105.355741 275.139016 
L 106.0057 273.564016 
L 106.33068 272.934016 
L 106.980639 268.839015 
L 107.955577 261.909014 
L 109.905455 256.554013 
L 110.230434 256.239013 
L 110.555414 255.609013 
L 111.205373 253.404012 
L 111.530352 252.774012 
L 111.855332 252.774012 
L 112.180311 252.459012 
L 112.505291 252.774012 
L 112.83027 252.459012 
L 113.15525 252.459012 
L 113.480229 253.089012 
L 113.805209 254.034013 
L 114.780147 254.034013 
L 115.430106 255.294013 
L 115.755086 254.979013 
L 116.405045 254.979013 
L 116.730025 255.609013 
L 117.379984 257.184013 
L 117.704963 257.184013 
L 118.029943 256.554013 
L 118.354922 256.869013 
L 118.679902 256.869013 
L 119.004881 257.184013 
L 119.329861 257.184013 
L 119.97982 255.924013 
L 120.304799 256.239013 
L 120.629779 256.239013 
L 120.954758 256.554013 
L 121.279738 255.924013 
L 121.604717 256.239013 
L 122.254676 256.239013 
L 122.579656 255.924013 
L 122.904636 255.924013 
L 123.229615 255.294013 
L 123.879574 255.294013 
L 124.204554 254.979013 
L 124.854513 255.609013 
L 125.179492 255.609013 
L 125.504472 255.294013 
L 125.829451 255.924013 
L 126.80439 254.979013 
L 127.129369 255.294013 
L 127.454349 255.294013 
L 127.779328 254.979013 
L 128.104308 255.609013 
L 129.079247 255.609013 
L 129.404226 255.294013 
L 129.729206 255.924013 
L 130.054185 256.239013 
L 130.379165 255.609013 
L 131.354103 255.609013 
L 131.679083 255.294013 
L 132.329042 255.294013 
L 133.30398 256.239013 
L 133.62896 255.924013 
L 134.278919 255.924013 
L 134.603898 256.239013 
L 134.928878 257.499013 
L 135.253857 259.389013 
L 135.903817 261.594014 
L 136.553776 266.004015 
L 136.878755 268.524015 
L 137.528714 276.399016 
L 138.178673 283.329017 
L 138.503653 284.904018 
L 138.828632 285.219018 
L 139.153612 285.849018 
L 139.478591 286.164018 
L 139.803571 286.164018 
L 140.12855 285.534018 
L 140.45353 283.644017 
L 141.103489 275.769016 
L 141.428468 273.879016 
L 141.753448 273.564016 
L 143.053366 269.784015 
L 143.378346 269.784015 
L 144.028305 271.989016 
L 144.353284 272.619016 
L 145.003243 272.619016 
L 145.328223 274.509016 
L 145.653202 277.344016 
L 145.978182 278.289017 
L 146.303161 278.289017 
L 146.95312 276.399016 
L 147.2781 277.029016 
L 147.603079 278.919017 
L 147.928059 279.549017 
L 148.902998 274.824016 
L 149.227977 275.139016 
L 149.552957 276.084016 
L 149.877936 275.769016 
L 150.527895 274.509016 
L 150.852875 274.509016 
L 151.177854 275.454016 
L 151.502834 275.769016 
L 152.152793 274.194016 
L 152.477772 274.509016 
L 153.127731 277.344016 
L 153.452711 277.344016 
L 154.10267 275.769016 
L 154.427649 275.769016 
L 154.752629 276.714016 
L 155.077609 277.029016 
L 155.402588 277.029016 
L 155.727568 276.399016 
L 156.052547 276.084016 
L 156.377527 276.399016 
L 157.027486 276.399016 
L 157.352465 276.084016 
L 157.677445 275.139016 
L 158.002424 275.139016 
L 158.327404 276.399016 
L 158.652383 276.714016 
L 158.977363 276.084016 
L 159.627322 274.509016 
L 160.277281 276.399016 
L 160.92724 276.399016 
L 161.252219 275.769016 
L 161.577199 275.454016 
L 161.902179 275.769016 
L 162.552138 275.769016 
L 162.877117 275.454016 
L 163.202097 275.454016 
L 164.177035 276.399016 
L 164.502015 275.139016 
L 165.151974 275.139016 
L 165.476953 275.769016 
L 166.126912 276.399016 
L 166.451892 276.084016 
L 166.776871 275.454016 
L 167.101851 275.139016 
L 167.42683 275.769016 
L 167.75181 276.714016 
L 168.07679 276.399016 
L 168.401769 275.454016 
L 169.051728 275.454016 
L 169.376708 276.084016 
L 169.701687 276.084016 
L 170.351646 275.454016 
L 171.326585 276.399016 
L 171.651564 275.769016 
L 172.301523 275.139016 
L 172.626503 276.084016 
L 172.951482 276.084016 
L 173.276462 276.399016 
L 173.601441 276.084016 
L 173.926421 276.084016 
L 174.57638 276.714016 
L 175.551319 275.769016 
L 175.876298 275.769016 
L 176.201278 276.084016 
L 176.851237 276.084016 
L 177.176216 275.454016 
L 177.501196 275.454016 
L 178.476134 276.399016 
L 178.801114 275.769016 
L 181.075971 275.769016 
L 181.40095 276.084016 
L 181.72593 276.084016 
L 182.050909 275.769016 
L 182.375889 275.769016 
L 182.700868 275.454016 
L 183.350827 276.084016 
L 184.000786 276.084016 
L 184.325766 275.769016 
L 184.650745 275.769016 
L 184.975725 276.084016 
L 185.950663 276.084016 
L 186.275643 275.769016 
L 186.600622 276.084016 
L 186.925602 276.084016 
L 187.250581 275.769016 
L 188.22552 275.769016 
L 188.5505 276.084016 
L 190.500377 276.084016 
L 190.825356 276.399016 
L 191.150336 276.084016 
L 191.475315 276.399016 
L 192.125274 276.399016 
L 192.775233 275.769016 
L 193.100213 276.084016 
L 193.425192 276.084016 
L 193.750172 276.399016 
L 194.075152 276.399016 
L 194.400131 276.084016 
L 194.725111 276.084016 
L 195.37507 276.714016 
L 196.674988 276.714016 
L 196.999967 277.029016 
L 197.649926 277.029016 
L 197.974906 276.714016 
L 198.299885 275.769016 
L 198.624865 276.399016 
L 198.949844 276.714016 
L 199.274824 276.399016 
L 199.599803 275.769016 
L 199.924783 275.454016 
L 200.249762 274.824016 
L 200.574742 275.139016 
L 200.899722 275.139016 
L 201.224701 274.824016 
L 201.87466 273.564016 
L 202.524619 271.044015 
L 202.849599 269.154015 
L 203.499558 263.169014 
L 203.824537 261.594014 
L 204.474496 260.019014 
L 204.799476 259.389013 
L 205.449435 257.184013 
L 206.099394 255.609013 
L 206.424373 254.979013 
L 206.749353 254.664013 
L 207.074333 253.404012 
L 207.399312 252.774012 
L 207.724292 252.774012 
L 208.049271 253.089012 
L 208.374251 252.459012 
L 209.02421 252.459012 
L 209.674169 254.034013 
L 209.999148 254.034013 
L 210.324128 253.719013 
L 210.974087 254.349013 
L 211.299066 255.294013 
L 211.949025 255.294013 
L 212.274005 255.609013 
L 212.598984 255.609013 
L 212.923964 256.554013 
L 213.248943 256.869013 
L 213.898903 256.869013 
L 214.223882 256.554013 
L 214.548862 257.184013 
L 214.873841 257.184013 
L 215.5238 256.554013 
L 215.84878 255.924013 
L 216.498739 256.554013 
L 217.148698 256.554013 
L 217.798657 255.924013 
L 218.123636 255.924013 
L 218.448616 256.239013 
L 218.773595 255.294013 
L 219.423554 255.294013 
L 219.748534 255.609013 
L 220.073514 255.294013 
L 220.398493 255.294013 
L 220.723473 254.664013 
L 221.698411 255.609013 
L 222.023391 255.609013 
L 222.67335 254.979013 
L 223.323309 254.979013 
L 223.648288 255.294013 
L 223.973268 254.979013 
L 224.298247 255.609013 
L 224.623227 255.294013 
L 224.948206 255.609013 
L 225.273186 255.294013 
L 225.598165 255.609013 
L 225.923145 256.239013 
L 226.248124 255.924013 
L 226.573104 255.924013 
L 227.223063 255.294013 
L 227.548043 255.294013 
L 227.873022 255.924013 
L 228.198002 255.609013 
L 228.522981 255.609013 
L 228.847961 255.924013 
L 229.822899 255.924013 
L 230.147879 255.609013 
L 230.472858 256.239013 
L 230.797838 257.184013 
L 231.447797 260.649014 
L 232.097756 262.854014 
L 233.072695 272.304016 
L 234.047633 283.329017 
L 234.697592 285.534018 
L 235.022572 286.164018 
L 235.347551 286.479018 
L 235.672531 286.164018 
L 235.99751 284.904018 
L 236.32249 283.014017 
L 237.297428 273.564016 
L 237.622408 272.934016 
L 237.947387 272.934016 
L 238.272367 272.304016 
L 238.922326 269.469015 
L 239.247305 269.784015 
L 240.222244 272.934016 
L 240.547224 272.934016 
L 240.872203 273.249016 
L 241.197183 274.824016 
L 241.522162 277.659016 
L 241.847142 278.919017 
L 242.172121 278.604017 
L 242.497101 277.659016 
L 242.82208 276.084016 
L 243.797019 279.549017 
L 244.771957 275.139016 
L 245.096937 275.139016 
L 245.421916 276.399016 
L 245.746896 276.399016 
L 246.396855 274.194016 
L 246.721835 274.194016 
L 247.371794 275.769016 
L 247.696773 275.139016 
L 248.021753 273.879016 
L 248.346732 273.879016 
L 248.996691 277.029016 
L 249.321671 277.029016 
L 249.97163 274.824016 
L 250.296609 275.139016 
L 250.621589 276.714016 
L 250.946568 277.659016 
L 251.921507 275.769016 
L 252.246486 276.399016 
L 252.571466 276.714016 
L 252.896446 276.084016 
L 253.221425 275.139016 
L 253.546405 274.824016 
L 254.196364 276.084016 
L 254.521343 276.399016 
L 255.496282 274.509016 
L 256.47122 277.029016 
L 256.7962 276.084016 
L 257.121179 275.769016 
L 257.446159 275.139016 
L 257.771138 275.769016 
L 258.096118 276.084016 
L 258.421097 276.084016 
L 258.746077 275.769016 
L 259.071057 275.769016 
L 259.721016 276.399016 
L 260.045995 276.399016 
L 260.370975 275.139016 
L 260.695954 274.824016 
L 261.020934 275.139016 
L 261.345913 275.769016 
L 261.670893 276.714016 
L 261.995872 276.714016 
L 262.645831 275.139016 
L 262.970811 275.454016 
L 263.29579 276.084016 
L 263.62077 276.399016 
L 264.595708 275.454016 
L 264.920688 276.084016 
L 265.245667 276.399016 
L 266.220606 275.454016 
L 266.870565 276.084016 
L 267.195545 276.084016 
L 267.520524 275.769016 
L 267.845504 275.139016 
L 268.170483 275.139016 
L 268.495463 275.769016 
L 268.820442 276.084016 
L 269.145422 276.084016 
L 269.795381 275.454016 
L 270.12036 276.084016 
L 270.44534 276.399016 
L 271.095299 275.769016 
L 271.420278 275.769016 
L 272.070238 276.399016 
L 272.395217 276.084016 
L 272.720197 276.084016 
L 273.045176 275.769016 
L 273.695135 275.769016 
L 274.020115 276.084016 
L 274.995053 276.084016 
L 275.320033 275.769016 
L 275.645012 275.769016 
L 275.969992 276.084016 
L 276.94493 276.084016 
L 277.26991 275.769016 
L 277.594889 275.769016 
L 277.919869 276.399016 
L 278.244848 276.084016 
L 278.894808 276.084016 
L 279.544767 276.714016 
L 279.869746 276.084016 
L 280.194726 275.769016 
L 280.519705 276.084016 
L 280.844685 276.084016 
L 281.169664 275.769016 
L 281.494644 275.769016 
L 281.819623 276.399016 
L 282.144603 276.084016 
L 285.069419 276.084016 
L 285.394398 275.769016 
L 286.044357 276.399016 
L 286.694316 275.769016 
L 287.344275 276.399016 
L 287.669255 276.084016 
L 288.319214 276.084016 
L 288.644193 275.769016 
L 288.969173 276.084016 
L 289.944111 276.084016 
L 290.269091 275.769016 
L 290.59407 275.769016 
L 290.91905 276.399016 
L 291.893989 276.399016 
L 292.218968 276.714016 
L 292.868927 276.714016 
L 293.193907 277.029016 
L 293.518886 277.029016 
L 293.843866 276.714016 
L 294.168845 276.084016 
L 294.493825 276.399016 
L 294.818804 276.399016 
L 295.468763 275.769016 
L 295.793743 274.824016 
L 296.118722 275.139016 
L 296.443702 275.139016 
L 297.093661 274.509016 
L 297.41864 274.509016 
L 298.0686 272.619016 
L 298.718559 268.839015 
L 299.368518 263.484014 
L 299.693497 261.594014 
L 300.018477 260.649014 
L 300.343456 260.334014 
L 300.993415 257.814013 
L 302.293333 255.294013 
L 303.268272 252.459012 
L 303.593251 252.459012 
L 303.918231 252.774012 
L 304.56819 252.144012 
L 305.543129 254.034013 
L 305.868108 254.349013 
L 306.193088 254.349013 
L 307.168026 255.294013 
L 307.493006 254.979013 
L 308.142965 255.609013 
L 308.467944 255.609013 
L 308.792924 256.239013 
L 309.117903 256.554013 
L 309.442883 257.184013 
L 309.767862 256.869013 
L 310.092842 257.184013 
L 310.742801 257.184013 
L 311.39276 256.554013 
L 311.71774 256.554013 
L 312.042719 256.869013 
L 312.367699 256.869013 
L 312.692678 256.554013 
L 313.017658 256.554013 
L 313.342637 256.239013 
L 314.317576 256.239013 
L 314.642555 255.924013 
L 314.967535 255.924013 
L 315.292514 255.294013 
L 315.942473 255.924013 
L 316.592432 255.294013 
L 317.242391 255.924013 
L 317.567371 255.924013 
L 318.21733 255.294013 
L 318.54231 255.294013 
L 318.867289 254.979013 
L 319.192269 254.979013 
L 319.517248 255.294013 
L 319.842228 255.924013 
L 320.167207 255.609013 
L 320.492187 255.924013 
L 320.817166 255.924013 
L 321.142146 256.239013 
L 321.792105 255.609013 
L 322.117084 255.924013 
L 322.442064 255.924013 
L 322.767043 255.294013 
L 323.417002 255.924013 
L 323.741982 255.924013 
L 324.391941 255.294013 
L 324.716921 255.924013 
L 325.0419 256.239013 
L 325.36688 256.239013 
L 325.691859 255.609013 
L 326.016839 255.609013 
L 326.341818 256.239013 
L 327.641736 261.594014 
L 328.291695 265.059014 
L 329.266634 276.399016 
L 329.916593 283.329017 
L 330.566552 285.849018 
L 331.216511 286.479018 
L 331.541491 286.479018 
L 331.86647 285.219018 
L 332.19145 283.014017 
L 332.841409 275.769016 
L 333.166388 273.564016 
L 334.141327 272.619016 
L 334.466306 271.044015 
L 334.791286 270.099015 
L 335.116265 269.784015 
L 336.091204 273.249016 
L 336.416183 272.934016 
L 336.741163 273.249016 
L 337.066143 274.824016 
L 337.716102 278.604017 
L 338.041081 278.604017 
L 338.366061 277.029016 
L 338.69104 276.399016 
L 339.01602 277.344016 
L 339.340999 278.919017 
L 339.665979 279.549017 
L 339.990958 278.289017 
L 340.640917 274.824016 
L 340.965897 275.139016 
L 341.290876 276.084016 
L 341.615856 276.084016 
L 342.265815 274.194016 
L 342.590794 274.509016 
L 342.915774 275.454016 
L 343.240753 275.454016 
L 343.890713 273.879016 
L 344.215692 274.194016 
L 344.865651 277.344016 
L 345.190631 277.029016 
L 345.84059 274.824016 
L 346.165569 275.454016 
L 346.490549 276.714016 
L 346.815528 277.344016 
L 347.140508 276.714016 
L 347.465487 275.769016 
L 347.790467 275.454016 
L 348.115446 276.399016 
L 348.440426 276.714016 
L 349.090385 275.454016 
L 349.415364 275.139016 
L 350.065324 276.399016 
L 350.390303 276.714016 
L 350.715283 276.084016 
L 351.040262 274.824016 
L 351.365242 274.824016 
L 351.690221 275.139016 
L 352.015201 276.399016 
L 352.34018 277.029016 
L 352.66516 276.399016 
L 352.990139 275.139016 
L 353.315119 275.454016 
L 353.640098 276.399016 
L 354.290057 276.399016 
L 354.615037 275.769016 
L 354.940016 275.769016 
L 355.264996 276.399016 
L 355.914955 276.399016 
L 356.564914 275.139016 
L 356.889894 275.454016 
L 357.539853 276.714016 
L 357.864832 276.399016 
L 358.189812 275.139016 
L 359.48973 276.399016 
L 359.814709 276.084016 
L 360.139689 276.084016 
L 360.464668 275.769016 
L 360.789648 275.769016 
L 361.114627 276.084016 
L 361.764586 275.454016 
L 362.089566 275.454016 
L 362.739525 276.714016 
L 363.389484 276.084016 
L 363.714464 275.454016 
L 364.039443 275.139016 
L 364.364423 275.769016 
L 365.014382 276.399016 
L 365.664341 275.769016 
L 365.98932 276.084016 
L 366.3143 275.769016 
L 366.964259 275.769016 
L 367.289238 275.454016 
L 367.614218 276.084016 
L 367.939197 276.399016 
L 368.264177 276.399016 
L 368.589156 275.769016 
L 368.914136 275.454016 
L 369.564095 275.454016 
L 369.889075 275.769016 
L 370.864013 275.769016 
L 371.188993 276.084016 
L 371.513972 276.084016 
L 372.163931 275.454016 
L 372.488911 276.084016 
L 372.81389 276.084016 
L 373.13887 276.399016 
L 373.463849 276.084016 
L 374.763767 276.084016 
L 375.088747 276.399016 
L 375.413726 276.399016 
L 375.738706 276.084016 
L 376.063686 276.084016 
L 376.388665 275.769016 
L 377.038624 275.769016 
L 377.688583 276.399016 
L 378.013563 275.769016 
L 379.313481 275.769016 
L 379.63846 276.084016 
L 380.288419 276.084016 
L 380.613399 275.769016 
L 380.938378 276.084016 
L 381.263358 275.769016 
L 381.913317 275.769016 
L 382.238296 276.084016 
L 383.213235 276.084016 
L 383.538215 276.714016 
L 384.513153 275.769016 
L 384.838133 275.769016 
L 385.488092 276.399016 
L 385.813071 276.399016 
L 386.138051 276.714016 
L 386.46303 276.084016 
L 387.112989 276.714016 
L 387.762948 276.714016 
L 388.087928 276.084016 
L 388.412907 276.714016 
L 388.737887 277.029016 
L 389.387846 277.029016 
L 390.362785 276.084016 
L 390.687764 276.399016 
L 391.012744 276.399016 
L 391.662703 274.824016 
L 391.987682 274.824016 
L 392.312662 275.139016 
L 392.637641 274.824016 
L 392.962621 274.824016 
L 393.2876 274.194016 
L 394.262539 270.414015 
L 395.562457 261.594014 
L 396.212416 260.019014 
L 396.537396 259.389013 
L 397.187355 256.869013 
L 397.512334 256.239013 
L 397.837314 255.924013 
L 398.162293 255.294013 
L 398.487273 254.349013 
L 398.487273 254.349013 
" clip-path="url(#pc2f1b4c47e)" style="fill: none; stroke: #ff7f0e; stroke-width: 1.5; stroke-linecap: square"/>
   </g>
   <g id="line2d_15">
    <path d="M 73.832727 285.408 
L 74.157707 282.888 
L 74.482686 282.888 
L 74.807666 280.368 
L 75.457625 285.408 
L 75.782604 282.888 
L 76.107584 277.848 
L 76.432563 282.888 
L 78.057461 282.888 
L 78.382441 285.408 
L 78.70742 280.368 
L 79.0324 280.368 
L 79.357379 285.408 
L 79.682359 287.928 
L 80.007338 285.408 
L 80.332318 285.408 
L 80.657297 282.888 
L 80.982277 285.408 
L 81.307256 280.368 
L 81.632236 285.408 
L 82.607174 285.408 
L 82.932154 282.888 
L 83.582113 282.888 
L 83.907093 280.368 
L 84.557052 285.408 
L 85.207011 280.368 
L 85.53199 285.408 
L 85.85697 287.928 
L 86.181949 285.408 
L 86.506929 280.368 
L 86.831908 282.888 
L 87.481867 282.888 
L 87.806847 285.408 
L 88.781785 285.408 
L 89.106765 280.368 
L 90.081704 257.688 
L 90.731663 235.008 
L 91.056642 227.448 
L 91.381622 232.488 
L 92.031581 227.448 
L 93.006519 172.008 
L 93.331499 166.968 
L 93.656478 177.048 
L 93.981458 192.168 
L 94.306437 187.128 
L 95.281376 114.048 
L 95.606355 116.568 
L 95.931335 136.728 
L 96.256314 146.808 
L 96.581294 136.728 
L 96.906274 111.528 
L 97.231253 101.448 
L 97.556233 98.928 
L 97.881212 106.488 
L 98.206192 101.448 
L 98.531171 83.808 
L 98.856151 78.768 
L 99.18113 83.808 
L 99.50611 98.928 
L 99.831089 101.448 
L 100.156069 86.328 
L 100.481048 63.648 
L 100.806028 53.568 
L 101.780966 88.848 
L 102.105946 73.728 
L 102.430925 68.688 
L 102.755905 66.168 
L 103.080885 71.208 
L 103.405864 73.728 
L 103.730844 66.168 
L 104.055823 66.168 
L 105.030762 81.288 
L 105.355741 81.288 
L 105.680721 71.208 
L 106.0057 66.168 
L 106.33068 71.208 
L 106.655659 83.808 
L 106.980639 91.368 
L 107.305618 86.328 
L 107.630598 88.848 
L 107.955577 86.328 
L 108.280557 86.328 
L 108.605536 88.848 
L 108.930516 86.328 
L 109.255495 91.368 
L 109.580475 98.928 
L 109.905455 96.408 
L 110.230434 103.968 
L 110.555414 103.968 
L 110.880393 101.448 
L 111.205373 93.888 
L 111.530352 98.928 
L 111.855332 101.448 
L 112.180311 111.528 
L 112.505291 111.528 
L 112.83027 116.568 
L 113.15525 111.528 
L 113.480229 109.008 
L 113.805209 111.528 
L 114.455168 111.528 
L 114.780147 116.568 
L 115.105127 111.528 
L 115.430106 116.568 
L 115.755086 119.088 
L 116.405045 109.008 
L 117.055004 109.008 
L 117.379984 114.048 
L 117.704963 109.008 
L 118.029943 116.568 
L 118.354922 111.528 
L 118.679902 111.528 
L 119.004881 109.008 
L 119.329861 103.968 
L 119.65484 101.448 
L 119.97982 103.968 
L 120.304799 98.928 
L 120.629779 101.448 
L 121.279738 101.448 
L 121.604717 96.408 
L 121.929697 93.888 
L 122.254676 88.848 
L 122.579656 91.368 
L 122.904636 88.848 
L 123.229615 93.888 
L 123.554595 91.368 
L 124.529533 76.248 
L 125.179492 76.248 
L 125.504472 73.728 
L 125.829451 73.728 
L 126.154431 76.248 
L 126.47941 71.208 
L 127.454349 63.648 
L 127.779328 63.648 
L 128.104308 61.128 
L 128.429287 63.648 
L 128.754267 61.128 
L 129.404226 61.128 
L 129.729206 58.608 
L 130.054185 61.128 
L 130.704144 56.088 
L 131.029124 56.088 
L 132.004062 63.648 
L 132.329042 61.128 
L 132.654021 61.128 
L 132.979001 63.648 
L 133.30398 61.128 
L 133.953939 71.208 
L 134.278919 71.208 
L 134.603898 76.248 
L 134.928878 76.248 
L 135.253857 78.768 
L 135.578837 83.808 
L 135.903817 83.808 
L 136.228796 88.848 
L 136.553776 96.408 
L 136.878755 98.928 
L 137.203735 98.928 
L 137.528714 106.488 
L 137.853694 109.008 
L 138.178673 114.048 
L 138.503653 116.568 
L 139.153612 129.168 
L 139.803571 139.248 
L 140.12855 141.768 
L 140.778509 156.888 
L 141.103489 156.888 
L 142.078428 177.048 
L 142.403407 182.088 
L 143.378346 202.248 
L 143.703325 202.248 
L 144.028305 212.328 
L 144.353284 214.848 
L 145.328223 237.528 
L 145.653202 237.528 
L 145.978182 242.568 
L 146.303161 242.568 
L 146.95312 257.688 
L 147.603079 262.728 
L 147.928059 267.768 
L 148.253038 270.288 
L 148.578018 275.328 
L 148.902998 275.328 
L 149.227977 280.368 
L 149.552957 280.368 
L 149.877936 285.408 
L 150.202916 287.928 
L 150.527895 292.968 
L 150.852875 290.448 
L 151.177854 290.448 
L 151.827813 285.408 
L 152.152793 287.928 
L 152.477772 287.928 
L 152.802752 285.408 
L 153.127731 285.408 
L 153.452711 282.888 
L 153.77769 282.888 
L 154.10267 277.848 
L 154.427649 282.888 
L 154.752629 277.848 
L 155.077609 277.848 
L 155.402588 280.368 
L 156.377527 280.368 
L 156.702506 277.848 
L 157.027486 280.368 
L 157.352465 285.408 
L 157.677445 285.408 
L 158.002424 280.368 
L 158.327404 280.368 
L 158.652383 282.888 
L 159.302342 277.848 
L 159.627322 280.368 
L 159.952301 277.848 
L 160.277281 280.368 
L 160.92724 280.368 
L 161.252219 277.848 
L 161.902179 277.848 
L 162.227158 282.888 
L 162.552138 285.408 
L 163.202097 280.368 
L 163.852056 285.408 
L 164.177035 285.408 
L 164.502015 280.368 
L 166.451892 280.368 
L 166.776871 282.888 
L 167.101851 280.368 
L 168.07679 280.368 
L 168.401769 277.848 
L 168.726749 282.888 
L 169.051728 285.408 
L 169.376708 285.408 
L 169.701687 280.368 
L 170.026667 282.888 
L 170.351646 280.368 
L 170.676626 282.888 
L 171.326585 282.888 
L 171.651564 280.368 
L 171.976544 282.888 
L 172.301523 280.368 
L 172.626503 280.368 
L 172.951482 282.888 
L 173.276462 282.888 
L 173.601441 280.368 
L 173.926421 280.368 
L 174.2514 285.408 
L 174.57638 285.408 
L 174.90136 280.368 
L 175.226339 282.888 
L 175.551319 280.368 
L 175.876298 280.368 
L 176.201278 282.888 
L 176.526257 280.368 
L 176.851237 280.368 
L 177.176216 282.888 
L 177.501196 280.368 
L 178.151155 285.408 
L 178.801114 280.368 
L 179.126093 282.888 
L 179.451073 282.888 
L 179.776052 285.408 
L 180.101032 280.368 
L 180.426011 282.888 
L 180.750991 280.368 
L 181.40095 285.408 
L 181.72593 285.408 
L 182.050909 282.888 
L 182.375889 285.408 
L 182.700868 282.888 
L 183.025848 285.408 
L 183.350827 282.888 
L 183.675807 282.888 
L 184.000786 280.368 
L 184.650745 285.408 
L 184.975725 282.888 
L 185.300704 270.288 
L 185.625684 267.768 
L 185.950663 255.168 
L 186.275643 247.608 
L 186.600622 232.488 
L 186.925602 227.448 
L 187.250581 227.448 
L 187.575561 229.968 
L 187.900541 224.928 
L 188.22552 212.328 
L 188.875479 166.968 
L 189.200459 161.928 
L 189.850418 189.648 
L 190.175397 192.168 
L 190.825356 134.208 
L 191.150336 116.568 
L 191.475315 119.088 
L 191.800295 136.728 
L 192.125274 144.288 
L 192.450254 134.208 
L 193.100213 96.408 
L 193.425192 98.928 
L 193.750172 103.968 
L 194.075152 101.448 
L 194.400131 83.808 
L 194.725111 76.248 
L 195.05009 83.808 
L 195.37507 101.448 
L 195.700049 101.448 
L 196.025029 88.848 
L 196.350008 66.168 
L 196.674988 56.088 
L 196.999967 66.168 
L 197.324947 83.808 
L 197.649926 86.328 
L 197.974906 83.808 
L 198.299885 68.688 
L 198.624865 63.648 
L 198.949844 68.688 
L 199.274824 68.688 
L 199.599803 66.168 
L 199.924783 68.688 
L 200.249762 68.688 
L 200.574742 81.288 
L 200.899722 83.808 
L 201.224701 81.288 
L 201.549681 71.208 
L 201.87466 68.688 
L 202.19964 68.688 
L 202.524619 83.808 
L 202.849599 88.848 
L 203.174578 91.368 
L 203.499558 86.328 
L 203.824537 86.328 
L 204.149517 88.848 
L 204.474496 86.328 
L 204.799476 86.328 
L 205.449435 91.368 
L 205.774414 103.968 
L 206.099394 103.968 
L 206.424373 109.008 
L 206.749353 101.448 
L 207.399312 96.408 
L 207.724292 101.448 
L 208.049271 111.528 
L 208.374251 116.568 
L 208.69923 109.008 
L 209.02421 111.528 
L 209.349189 111.528 
L 209.999148 106.488 
L 210.324128 111.528 
L 210.649107 111.528 
L 210.974087 116.568 
L 211.299066 114.048 
L 211.624046 119.088 
L 211.949025 114.048 
L 212.598984 109.008 
L 212.923964 111.528 
L 213.248943 111.528 
L 213.573923 116.568 
L 213.898903 114.048 
L 214.223882 114.048 
L 214.548862 111.528 
L 214.873841 106.488 
L 215.84878 106.488 
L 216.173759 109.008 
L 216.498739 103.968 
L 216.823718 106.488 
L 218.123636 86.328 
L 218.448616 88.848 
L 218.773595 93.888 
L 219.098575 93.888 
L 219.423554 91.368 
L 220.073514 81.288 
L 220.398493 78.768 
L 221.373432 78.768 
L 221.698411 73.728 
L 222.023391 76.248 
L 222.34837 71.208 
L 222.67335 71.208 
L 222.998329 66.168 
L 223.323309 63.648 
L 223.973268 63.648 
L 224.298247 61.128 
L 224.623227 63.648 
L 224.948206 63.648 
L 225.598165 58.608 
L 226.248124 58.608 
L 226.573104 61.128 
L 226.898084 61.128 
L 227.223063 63.648 
L 228.198002 63.648 
L 228.522981 61.128 
L 229.17294 66.168 
L 229.49792 66.168 
L 229.822899 68.688 
L 230.147879 73.728 
L 230.472858 76.248 
L 230.797838 76.248 
L 231.447797 86.328 
L 232.097756 91.368 
L 232.422735 98.928 
L 232.747715 98.928 
L 233.072695 103.968 
L 233.397674 103.968 
L 233.722654 109.008 
L 234.047633 111.528 
L 234.372613 121.608 
L 235.347551 136.728 
L 235.99751 141.768 
L 236.972449 161.928 
L 237.297428 161.928 
L 237.622408 174.528 
L 237.947387 177.048 
L 238.597346 192.168 
L 238.922326 194.688 
L 239.572285 207.288 
L 239.897265 209.808 
L 240.547224 224.928 
L 240.872203 227.448 
L 241.522162 240.048 
L 241.847142 242.568 
L 242.172121 247.608 
L 242.497101 250.128 
L 242.82208 260.208 
L 243.472039 265.248 
L 243.797019 265.248 
L 244.771957 280.368 
L 245.096937 282.888 
L 245.421916 280.368 
L 245.746896 282.888 
L 246.071876 287.928 
L 246.396855 285.408 
L 246.721835 292.968 
L 247.046814 290.448 
L 247.371794 292.968 
L 247.696773 285.408 
L 248.021753 290.448 
L 248.671712 290.448 
L 248.996691 287.928 
L 249.97163 287.928 
L 250.296609 282.888 
L 250.946568 277.848 
L 251.271548 280.368 
L 251.921507 280.368 
L 252.246486 282.888 
L 252.571466 282.888 
L 252.896446 280.368 
L 253.221425 282.888 
L 253.871384 282.888 
L 254.196364 285.408 
L 254.521343 285.408 
L 254.846323 282.888 
L 255.171302 282.888 
L 255.496282 277.848 
L 256.47122 277.848 
L 256.7962 275.328 
L 257.446159 280.368 
L 257.771138 280.368 
L 258.096118 277.848 
L 258.421097 282.888 
L 258.746077 280.368 
L 259.071057 282.888 
L 259.396036 280.368 
L 260.045995 280.368 
L 260.370975 282.888 
L 260.695954 280.368 
L 261.020934 280.368 
L 261.345913 282.888 
L 261.995872 277.848 
L 262.320852 280.368 
L 262.645831 285.408 
L 263.29579 280.368 
L 263.62077 280.368 
L 263.945749 277.848 
L 264.270729 277.848 
L 264.595708 282.888 
L 264.920688 285.408 
L 265.245667 282.888 
L 265.570647 282.888 
L 265.895627 277.848 
L 266.545586 282.888 
L 266.870565 282.888 
L 267.195545 280.368 
L 267.520524 282.888 
L 268.170483 282.888 
L 268.495463 277.848 
L 268.820442 282.888 
L 269.145422 280.368 
L 269.470401 280.368 
L 269.795381 282.888 
L 270.44534 282.888 
L 270.770319 285.408 
L 271.095299 280.368 
L 271.420278 280.368 
L 271.745258 282.888 
L 272.070238 282.888 
L 272.395217 280.368 
L 272.720197 282.888 
L 273.045176 282.888 
L 273.370156 285.408 
L 273.695135 282.888 
L 274.995053 282.888 
L 275.320033 285.408 
L 275.645012 285.408 
L 275.969992 282.888 
L 276.294971 282.888 
L 276.619951 280.368 
L 277.594889 280.368 
L 278.244848 285.408 
L 278.569828 285.408 
L 278.894808 277.848 
L 279.219787 282.888 
L 280.519705 282.888 
L 280.844685 277.848 
L 281.169664 275.328 
L 281.819623 252.648 
L 282.144603 245.088 
L 282.469582 232.488 
L 282.794562 224.928 
L 283.7695 232.488 
L 284.744439 166.968 
L 285.069419 164.448 
L 285.719378 189.648 
L 286.044357 187.128 
L 286.369337 164.448 
L 286.694316 131.688 
L 287.019296 114.048 
L 287.344275 119.088 
L 287.994234 144.288 
L 288.319214 134.208 
L 288.644193 114.048 
L 288.969173 101.448 
L 289.294152 98.928 
L 289.619132 106.488 
L 289.944111 98.928 
L 290.269091 83.808 
L 290.59407 76.248 
L 290.91905 83.808 
L 291.244029 98.928 
L 291.569009 103.968 
L 292.543948 56.088 
L 293.518886 86.328 
L 293.843866 81.288 
L 294.493825 63.648 
L 294.818804 68.688 
L 295.143784 68.688 
L 295.468763 66.168 
L 295.793743 66.168 
L 296.118722 68.688 
L 296.443702 78.768 
L 296.768681 83.808 
L 297.093661 78.768 
L 297.74362 66.168 
L 298.0686 71.208 
L 299.043538 91.368 
L 299.368518 91.368 
L 299.693497 83.808 
L 300.018477 88.848 
L 300.343456 86.328 
L 300.668436 86.328 
L 300.993415 88.848 
L 301.318395 96.408 
L 301.643374 98.928 
L 301.968354 103.968 
L 302.293333 101.448 
L 302.618313 101.448 
L 302.943292 98.928 
L 303.268272 93.888 
L 304.24321 114.048 
L 304.56819 114.048 
L 304.89317 109.008 
L 305.218149 111.528 
L 305.543129 106.488 
L 305.868108 111.528 
L 306.193088 111.528 
L 306.518067 109.008 
L 307.168026 119.088 
L 307.493006 114.048 
L 307.817985 114.048 
L 308.142965 109.008 
L 308.467944 106.488 
L 308.792924 109.008 
L 309.117903 114.048 
L 309.442883 114.048 
L 309.767862 116.568 
L 310.092842 111.528 
L 310.742801 106.488 
L 311.067781 106.488 
L 311.39276 103.968 
L 311.71774 103.968 
L 312.042719 101.448 
L 312.367699 103.968 
L 312.692678 101.448 
L 313.017658 101.448 
L 313.342637 98.928 
L 313.992596 86.328 
L 314.967535 93.888 
L 315.292514 88.848 
L 315.617494 88.848 
L 316.267453 76.248 
L 317.567371 76.248 
L 317.892351 73.728 
L 318.54231 73.728 
L 318.867289 68.688 
L 319.192269 61.128 
L 319.517248 63.648 
L 319.842228 63.648 
L 320.167207 66.168 
L 320.492187 63.648 
L 320.817166 63.648 
L 321.467125 58.608 
L 321.792105 61.128 
L 322.117084 58.608 
L 322.442064 58.608 
L 322.767043 63.648 
L 323.092023 58.608 
L 323.417002 58.608 
L 323.741982 61.128 
L 324.391941 61.128 
L 324.716921 66.168 
L 325.0419 68.688 
L 325.691859 68.688 
L 326.016839 76.248 
L 326.341818 76.248 
L 326.991777 81.288 
L 327.316757 81.288 
L 327.641736 83.808 
L 327.966716 91.368 
L 328.291695 93.888 
L 328.941654 103.968 
L 329.266634 103.968 
L 329.591613 109.008 
L 330.241572 121.608 
L 330.566552 126.648 
L 330.891532 126.648 
L 331.86647 146.808 
L 332.19145 149.328 
L 332.516429 154.368 
L 333.166388 169.488 
L 333.491368 172.008 
L 334.141327 182.088 
L 334.466306 189.648 
L 334.791286 192.168 
L 335.116265 202.248 
L 335.441245 207.288 
L 335.766224 214.848 
L 336.091204 217.368 
L 337.066143 240.048 
L 337.391122 240.048 
L 337.716102 242.568 
L 338.041081 247.608 
L 338.69104 252.648 
L 339.340999 265.248 
L 339.665979 265.248 
L 340.315938 275.328 
L 340.640917 277.848 
L 340.965897 282.888 
L 341.290876 277.848 
L 341.615856 285.408 
L 341.940835 285.408 
L 342.590794 290.448 
L 343.565733 290.448 
L 343.890713 287.928 
L 344.865651 287.928 
L 345.190631 285.408 
L 345.51561 285.408 
L 345.84059 287.928 
L 346.165569 285.408 
L 346.490549 277.848 
L 346.815528 277.848 
L 347.140508 275.328 
L 347.465487 280.368 
L 348.440426 280.368 
L 348.765405 285.408 
L 349.090385 282.888 
L 350.065324 282.888 
L 350.390303 280.368 
L 350.715283 280.368 
L 351.040262 277.848 
L 351.365242 280.368 
L 351.690221 277.848 
L 352.34018 282.888 
L 352.66516 280.368 
L 352.990139 280.368 
L 353.315119 282.888 
L 353.640098 282.888 
L 353.965078 285.408 
L 354.290057 282.888 
L 354.615037 285.408 
L 354.940016 285.408 
L 355.264996 280.368 
L 355.589975 277.848 
L 355.914955 285.408 
L 356.239934 285.408 
L 356.564914 282.888 
L 356.889894 277.848 
L 357.214873 282.888 
L 357.864832 277.848 
L 358.189812 277.848 
L 358.514791 282.888 
L 358.839771 282.888 
L 359.16475 285.408 
L 359.48973 280.368 
L 359.814709 277.848 
L 360.139689 277.848 
L 360.464668 280.368 
L 360.789648 280.368 
L 361.114627 282.888 
L 361.764586 282.888 
L 362.089566 277.848 
L 362.414545 282.888 
L 364.364423 282.888 
L 364.689402 280.368 
L 365.014382 280.368 
L 365.339361 282.888 
L 365.664341 282.888 
L 365.98932 280.368 
L 366.3143 282.888 
L 366.964259 282.888 
L 367.289238 277.848 
L 367.614218 285.408 
L 367.939197 282.888 
L 368.589156 282.888 
L 368.914136 285.408 
L 369.564095 285.408 
L 369.889075 282.888 
L 370.214054 282.888 
L 370.539034 285.408 
L 370.864013 285.408 
L 371.188993 280.368 
L 371.838952 285.408 
L 372.163931 285.408 
L 372.488911 282.888 
L 372.81389 285.408 
L 373.13887 282.888 
L 373.463849 285.408 
L 374.763767 285.408 
L 375.088747 280.368 
L 375.413726 282.888 
L 376.063686 282.888 
L 376.713645 277.848 
L 377.038624 270.288 
L 377.363604 267.768 
L 378.338542 232.488 
L 378.663522 227.448 
L 378.988501 229.968 
L 379.313481 229.968 
L 379.63846 227.448 
L 379.96344 212.328 
L 380.613399 166.968 
L 380.938378 161.928 
L 381.588337 184.608 
L 381.913317 187.128 
L 382.888256 109.008 
L 383.213235 116.568 
L 383.863194 141.768 
L 384.188174 131.688 
L 384.838133 96.408 
L 385.163112 98.928 
L 385.488092 98.928 
L 385.813071 96.408 
L 386.46303 73.728 
L 386.78801 81.288 
L 387.112989 101.448 
L 387.437969 101.448 
L 387.762948 88.848 
L 388.087928 61.128 
L 388.412907 53.568 
L 389.387846 91.368 
L 390.037805 68.688 
L 391.012744 68.688 
L 391.337723 66.168 
L 391.662703 66.168 
L 391.987682 68.688 
L 392.312662 81.288 
L 392.637641 83.808 
L 392.962621 83.808 
L 393.2876 68.688 
L 393.61258 66.168 
L 393.937559 66.168 
L 394.587518 88.848 
L 394.912498 88.848 
L 395.237477 86.328 
L 396.212416 86.328 
L 396.537396 88.848 
L 396.862375 88.848 
L 397.187355 91.368 
L 397.837314 109.008 
L 398.162293 109.008 
L 398.487273 98.928 
L 398.487273 98.928 
" clip-path="url(#pc2f1b4c47e)" style="fill: none; stroke: #2ca02c; stroke-width: 1.5; stroke-linecap: square"/>
   </g>
   <g id="line2d_16">
    <path d="M 73.832727 93.888 
L 74.157707 93.888 
L 74.482686 91.368 
L 74.807666 91.368 
L 75.132645 88.848 
L 75.457625 83.808 
L 75.782604 83.808 
L 76.107584 86.328 
L 76.757543 81.288 
L 77.407502 71.208 
L 77.732482 71.208 
L 78.057461 76.248 
L 78.382441 76.248 
L 78.70742 71.208 
L 79.0324 68.688 
L 79.357379 68.688 
L 79.682359 66.168 
L 80.007338 66.168 
L 80.332318 63.648 
L 80.982277 63.648 
L 81.307256 66.168 
L 81.957215 66.168 
L 82.607174 61.128 
L 83.257133 61.128 
L 83.907093 66.168 
L 84.882031 66.168 
L 85.207011 71.208 
L 85.53199 73.728 
L 85.85697 73.728 
L 86.181949 78.768 
L 86.506929 78.768 
L 88.131826 91.368 
L 88.456806 98.928 
L 88.781785 101.448 
L 89.106765 109.008 
L 89.756724 114.048 
L 90.081704 114.048 
L 90.406683 124.128 
L 91.056642 134.208 
L 91.381622 141.768 
L 91.706601 144.288 
L 92.68154 159.408 
L 93.006519 161.928 
L 94.306437 189.648 
L 94.631417 189.648 
L 95.281376 199.728 
L 95.931335 217.368 
L 96.256314 219.888 
L 96.581294 227.448 
L 96.906274 229.968 
L 97.231253 235.008 
L 97.881212 250.128 
L 98.531171 250.128 
L 98.856151 252.648 
L 99.831089 272.808 
L 100.156069 272.808 
L 100.481048 267.768 
L 101.455987 287.928 
L 101.780966 290.448 
L 102.105946 287.928 
L 102.430925 287.928 
L 102.755905 292.968 
L 103.080885 295.488 
L 103.405864 295.488 
L 103.730844 287.928 
L 104.380803 292.968 
L 105.030762 287.928 
L 105.680721 277.848 
L 106.0057 280.368 
L 106.655659 280.368 
L 106.980639 277.848 
L 107.305618 272.808 
L 107.630598 272.808 
L 107.955577 270.288 
L 108.605536 285.408 
L 108.930516 285.408 
L 109.255495 282.888 
L 109.580475 285.408 
L 109.905455 282.888 
L 110.555414 287.928 
L 110.880393 282.888 
L 111.205373 282.888 
L 111.530352 277.848 
L 111.855332 275.328 
L 112.505291 280.368 
L 112.83027 277.848 
L 113.15525 282.888 
L 113.480229 285.408 
L 114.780147 285.408 
L 115.105127 282.888 
L 115.430106 285.408 
L 115.755086 280.368 
L 116.080066 277.848 
L 116.730025 282.888 
L 117.055004 282.888 
L 117.379984 285.408 
L 118.029943 285.408 
L 118.354922 287.928 
L 118.679902 282.888 
L 119.004881 280.368 
L 119.329861 280.368 
L 119.65484 282.888 
L 119.97982 282.888 
L 120.629779 277.848 
L 121.279738 282.888 
L 121.604717 287.928 
L 121.929697 285.408 
L 122.254676 287.928 
L 122.579656 287.928 
L 122.904636 282.888 
L 123.229615 280.368 
L 123.554595 280.368 
L 124.204554 285.408 
L 124.854513 280.368 
L 125.504472 285.408 
L 125.829451 282.888 
L 126.154431 282.888 
L 126.47941 285.408 
L 126.80439 285.408 
L 127.129369 282.888 
L 128.429287 282.888 
L 128.754267 285.408 
L 130.379165 285.408 
L 130.704144 282.888 
L 131.029124 285.408 
L 131.354103 282.888 
L 131.679083 277.848 
L 132.004062 285.408 
L 132.329042 282.888 
L 132.979001 287.928 
L 133.30398 285.408 
L 134.603898 285.408 
L 134.928878 287.928 
L 135.253857 285.408 
L 135.578837 287.928 
L 135.903817 285.408 
L 136.228796 285.408 
L 136.553776 282.888 
L 136.878755 277.848 
L 137.853694 257.688 
L 138.178673 255.168 
L 139.478591 222.408 
L 140.12855 204.768 
L 140.778509 192.168 
L 141.103489 189.648 
L 141.428468 184.608 
L 142.403407 154.368 
L 142.728387 149.328 
L 143.053366 146.808 
L 144.028305 131.688 
L 145.003243 111.528 
L 145.328223 106.488 
L 145.978182 93.888 
L 146.303161 93.888 
L 146.628141 96.408 
L 146.95312 96.408 
L 147.928059 76.248 
L 148.253038 73.728 
L 148.578018 81.288 
L 148.902998 83.808 
L 149.227977 81.288 
L 149.552957 76.248 
L 149.877936 73.728 
L 150.202916 73.728 
L 150.852875 68.688 
L 151.177854 68.688 
L 151.827813 78.768 
L 152.152793 81.288 
L 152.802752 76.248 
L 153.127731 71.208 
L 153.452711 68.688 
L 154.10267 88.848 
L 155.077609 81.288 
L 155.402588 81.288 
L 155.727568 83.808 
L 156.052547 88.848 
L 156.377527 91.368 
L 156.702506 88.848 
L 157.027486 91.368 
L 157.352465 96.408 
L 157.677445 93.888 
L 158.002424 98.928 
L 158.327404 93.888 
L 158.652383 93.888 
L 159.302342 111.528 
L 159.627322 111.528 
L 160.277281 106.488 
L 160.60226 101.448 
L 161.252219 111.528 
L 161.577199 114.048 
L 161.902179 114.048 
L 162.227158 109.008 
L 162.877117 109.008 
L 163.202097 116.568 
L 163.852056 111.528 
L 164.177035 111.528 
L 164.826994 116.568 
L 165.476953 111.528 
L 165.801933 106.488 
L 166.451892 106.488 
L 166.776871 114.048 
L 167.101851 111.528 
L 167.75181 101.448 
L 168.07679 98.928 
L 168.401769 101.448 
L 168.726749 101.448 
L 169.051728 98.928 
L 169.376708 98.928 
L 169.701687 93.888 
L 170.676626 93.888 
L 171.001605 83.808 
L 171.326585 81.288 
L 171.651564 83.808 
L 171.976544 88.848 
L 172.301523 86.328 
L 172.626503 86.328 
L 173.276462 71.208 
L 173.926421 76.248 
L 174.2514 76.248 
L 175.226339 68.688 
L 176.201278 68.688 
L 176.526257 63.648 
L 176.851237 63.648 
L 177.176216 68.688 
L 177.501196 66.168 
L 177.826175 66.168 
L 178.151155 63.648 
L 178.801114 63.648 
L 179.126093 68.688 
L 179.451073 66.168 
L 179.776052 71.208 
L 180.426011 66.168 
L 180.750991 71.208 
L 181.075971 71.208 
L 181.40095 73.728 
L 181.72593 71.208 
L 182.700868 86.328 
L 183.025848 86.328 
L 183.350827 88.848 
L 183.675807 88.848 
L 184.325766 101.448 
L 184.650745 106.488 
L 184.975725 109.008 
L 185.300704 114.048 
L 185.950663 119.088 
L 186.925602 134.208 
L 187.250581 136.728 
L 187.900541 151.848 
L 188.22552 154.368 
L 188.5505 161.928 
L 189.200459 166.968 
L 189.525438 177.048 
L 189.850418 182.088 
L 190.500377 197.208 
L 191.150336 202.248 
L 192.125274 222.408 
L 192.450254 224.928 
L 193.100213 235.008 
L 193.750172 247.608 
L 194.075152 247.608 
L 194.400131 252.648 
L 194.725111 252.648 
L 195.700049 275.328 
L 196.025029 275.328 
L 196.350008 272.808 
L 196.999967 277.848 
L 197.324947 285.408 
L 197.649926 285.408 
L 197.974906 287.928 
L 198.299885 285.408 
L 198.624865 290.448 
L 198.949844 292.968 
L 199.599803 292.968 
L 199.924783 290.448 
L 200.899722 290.448 
L 201.549681 280.368 
L 201.87466 277.848 
L 202.524619 277.848 
L 203.174578 272.808 
L 203.499558 267.768 
L 203.824537 267.768 
L 204.474496 282.888 
L 204.799476 285.408 
L 205.124455 282.888 
L 205.449435 282.888 
L 206.424373 290.448 
L 206.749353 287.928 
L 207.399312 277.848 
L 207.724292 277.848 
L 208.049271 280.368 
L 208.374251 280.368 
L 208.69923 282.888 
L 209.349189 282.888 
L 209.674169 285.408 
L 209.999148 290.448 
L 210.324128 285.408 
L 210.649107 282.888 
L 210.974087 285.408 
L 211.624046 280.368 
L 211.949025 280.368 
L 212.274005 277.848 
L 212.598984 277.848 
L 213.573923 285.408 
L 213.898903 285.408 
L 214.223882 280.368 
L 214.548862 280.368 
L 214.873841 277.848 
L 215.198821 282.888 
L 215.5238 282.888 
L 215.84878 280.368 
L 216.173759 280.368 
L 216.498739 282.888 
L 217.148698 282.888 
L 217.473677 285.408 
L 218.123636 285.408 
L 218.448616 282.888 
L 218.773595 285.408 
L 219.098575 280.368 
L 219.748534 280.368 
L 220.398493 285.408 
L 220.723473 285.408 
L 221.048452 282.888 
L 221.373432 287.928 
L 222.023391 282.888 
L 222.34837 282.888 
L 222.67335 285.408 
L 222.998329 285.408 
L 223.323309 280.368 
L 223.648288 280.368 
L 224.298247 285.408 
L 224.623227 285.408 
L 224.948206 287.928 
L 225.273186 285.408 
L 225.598165 287.928 
L 225.923145 287.928 
L 226.573104 282.888 
L 226.898084 282.888 
L 227.223063 280.368 
L 227.548043 282.888 
L 228.522981 282.888 
L 228.847961 285.408 
L 229.17294 285.408 
L 229.49792 287.928 
L 230.147879 282.888 
L 230.472858 282.888 
L 230.797838 287.928 
L 231.122817 285.408 
L 231.447797 287.928 
L 231.772776 287.928 
L 232.097756 285.408 
L 232.422735 285.408 
L 233.397674 260.208 
L 233.722654 250.128 
L 234.372613 245.088 
L 234.697592 240.048 
L 235.99751 199.728 
L 236.647469 189.648 
L 236.972449 189.648 
L 237.297428 184.608 
L 237.622408 172.008 
L 237.947387 164.448 
L 238.272367 151.848 
L 239.247305 136.728 
L 239.572285 134.208 
L 240.222244 121.608 
L 240.547224 119.088 
L 240.872203 109.008 
L 241.197183 106.488 
L 241.522162 96.408 
L 241.847142 93.888 
L 242.172121 96.408 
L 242.497101 101.448 
L 242.82208 98.928 
L 243.14706 93.888 
L 243.797019 73.728 
L 244.446978 78.768 
L 244.771957 86.328 
L 245.421916 73.728 
L 245.746896 71.208 
L 246.071876 71.208 
L 246.396855 73.728 
L 246.721835 73.728 
L 247.046814 68.688 
L 247.696773 78.768 
L 248.021753 81.288 
L 248.346732 78.768 
L 248.996691 68.688 
L 249.321671 66.168 
L 249.97163 86.328 
L 250.296609 86.328 
L 250.946568 76.248 
L 251.271548 78.768 
L 251.921507 88.848 
L 252.246486 88.848 
L 252.571466 91.368 
L 252.896446 91.368 
L 253.546405 96.408 
L 254.196364 96.408 
L 254.521343 93.888 
L 255.171302 106.488 
L 255.496282 109.008 
L 256.146241 103.968 
L 256.47122 98.928 
L 257.121179 111.528 
L 257.446159 114.048 
L 257.771138 111.528 
L 258.096118 114.048 
L 258.421097 111.528 
L 259.071057 111.528 
L 259.396036 114.048 
L 259.721016 111.528 
L 260.045995 111.528 
L 260.695954 116.568 
L 261.345913 111.528 
L 261.670893 103.968 
L 261.995872 106.488 
L 262.320852 111.528 
L 262.970811 111.528 
L 263.29579 109.008 
L 263.62077 103.968 
L 264.270729 103.968 
L 264.595708 101.448 
L 265.245667 91.368 
L 265.570647 93.888 
L 266.220606 93.888 
L 266.545586 88.848 
L 266.870565 81.288 
L 267.195545 83.808 
L 267.520524 83.808 
L 268.170483 88.848 
L 268.820442 76.248 
L 269.145422 73.728 
L 269.795381 73.728 
L 270.44534 68.688 
L 270.770319 68.688 
L 271.095299 66.168 
L 271.420278 66.168 
L 271.745258 63.648 
L 273.045176 63.648 
L 273.370156 66.168 
L 273.695135 66.168 
L 274.345094 61.128 
L 274.995053 66.168 
L 275.320033 66.168 
L 275.645012 63.648 
L 275.969992 66.168 
L 276.294971 66.168 
L 276.619951 68.688 
L 276.94493 73.728 
L 277.26991 71.208 
L 277.919869 76.248 
L 278.894808 91.368 
L 279.544767 91.368 
L 279.869746 93.888 
L 280.194726 98.928 
L 280.844685 111.528 
L 281.819623 119.088 
L 282.144603 124.128 
L 282.469582 126.648 
L 282.794562 139.248 
L 283.119541 141.768 
L 285.069419 172.008 
L 285.394398 179.568 
L 285.719378 182.088 
L 287.019296 202.248 
L 287.344275 212.328 
L 287.669255 217.368 
L 287.994234 224.928 
L 288.319214 227.448 
L 288.644193 227.448 
L 289.294152 245.088 
L 289.619132 250.128 
L 290.269091 250.128 
L 290.59407 252.648 
L 290.91905 257.688 
L 291.569009 272.808 
L 292.218968 272.808 
L 292.868927 277.848 
L 293.193907 285.408 
L 293.843866 290.448 
L 294.493825 290.448 
L 294.818804 292.968 
L 295.468763 292.968 
L 296.118722 287.928 
L 296.443702 290.448 
L 296.768681 287.928 
L 297.41864 277.848 
L 298.0686 277.848 
L 298.393579 280.368 
L 298.718559 277.848 
L 299.043538 270.288 
L 299.368518 267.768 
L 299.693497 272.808 
L 300.018477 275.328 
L 300.343456 282.888 
L 300.668436 285.408 
L 300.993415 285.408 
L 301.318395 277.848 
L 301.968354 287.928 
L 302.293333 287.928 
L 302.618313 285.408 
L 302.943292 280.368 
L 303.268272 277.848 
L 303.593251 280.368 
L 304.24321 280.368 
L 304.56819 282.888 
L 304.89317 280.368 
L 305.543129 285.408 
L 306.193088 285.408 
L 306.518067 280.368 
L 308.142965 280.368 
L 308.467944 277.848 
L 308.792924 282.888 
L 309.442883 287.928 
L 310.417821 280.368 
L 310.742801 282.888 
L 311.39276 277.848 
L 311.71774 277.848 
L 312.042719 280.368 
L 312.367699 280.368 
L 312.692678 282.888 
L 313.017658 282.888 
L 313.342637 285.408 
L 313.667617 282.888 
L 313.992596 285.408 
L 314.317576 285.408 
L 315.292514 277.848 
L 315.942473 277.848 
L 316.592432 282.888 
L 316.917412 280.368 
L 317.567371 285.408 
L 318.54231 285.408 
L 318.867289 280.368 
L 319.192269 282.888 
L 319.842228 282.888 
L 320.167207 287.928 
L 320.492187 282.888 
L 320.817166 280.368 
L 321.467125 285.408 
L 321.792105 285.408 
L 322.117084 282.888 
L 323.741982 282.888 
L 324.066962 277.848 
L 324.391941 282.888 
L 325.0419 287.928 
L 325.36688 287.928 
L 326.016839 282.888 
L 326.341818 282.888 
L 326.666798 285.408 
L 327.966716 285.408 
L 328.291695 282.888 
L 328.616675 277.848 
L 329.266634 255.168 
L 329.916593 250.128 
L 330.566552 240.048 
L 331.86647 199.728 
L 332.19145 194.688 
L 332.516429 187.128 
L 332.841409 189.648 
L 333.166388 184.608 
L 334.466306 141.768 
L 334.791286 141.768 
L 335.116265 139.248 
L 335.441245 134.208 
L 336.091204 121.608 
L 336.741163 111.528 
L 337.716102 91.368 
L 338.041081 93.888 
L 338.366061 98.928 
L 338.69104 98.928 
L 339.01602 91.368 
L 339.340999 78.768 
L 339.665979 71.208 
L 339.990958 73.728 
L 340.315938 81.288 
L 340.640917 83.808 
L 340.965897 83.808 
L 341.615856 68.688 
L 341.940835 73.728 
L 342.265815 73.728 
L 342.915774 68.688 
L 343.240753 68.688 
L 343.890713 81.288 
L 344.215692 78.768 
L 344.540672 73.728 
L 344.865651 71.208 
L 345.190631 71.208 
L 345.84059 86.328 
L 346.165569 86.328 
L 346.815528 76.248 
L 347.140508 76.248 
L 347.790467 91.368 
L 348.115446 88.848 
L 348.440426 91.368 
L 348.765405 91.368 
L 349.415364 96.408 
L 349.740344 93.888 
L 350.065324 88.848 
L 350.390303 93.888 
L 351.040262 106.488 
L 351.365242 109.008 
L 351.690221 109.008 
L 352.015201 101.448 
L 352.34018 101.448 
L 352.66516 103.968 
L 352.990139 111.528 
L 353.640098 111.528 
L 353.965078 109.008 
L 354.290057 109.008 
L 354.615037 114.048 
L 354.940016 114.048 
L 355.264996 109.008 
L 355.589975 111.528 
L 355.914955 109.008 
L 356.239934 111.528 
L 356.564914 116.568 
L 356.889894 116.568 
L 357.214873 114.048 
L 357.539853 106.488 
L 358.189812 106.488 
L 358.514791 111.528 
L 358.839771 111.528 
L 359.16475 106.488 
L 359.48973 103.968 
L 359.814709 103.968 
L 360.464668 98.928 
L 361.114627 98.928 
L 361.439607 96.408 
L 361.764586 96.408 
L 362.414545 91.368 
L 363.064505 81.288 
L 363.389484 81.288 
L 363.714464 86.328 
L 364.039443 83.808 
L 364.364423 83.808 
L 364.689402 76.248 
L 365.339361 71.208 
L 365.664341 71.208 
L 365.98932 73.728 
L 366.3143 73.728 
L 366.639279 68.688 
L 367.289238 68.688 
L 368.264177 61.128 
L 368.589156 63.648 
L 368.914136 61.128 
L 369.239115 63.648 
L 369.889075 63.648 
L 370.214054 61.128 
L 370.539034 61.128 
L 370.864013 63.648 
L 371.188993 68.688 
L 371.513972 71.208 
L 371.838952 66.168 
L 372.81389 73.728 
L 373.13887 73.728 
L 373.788829 78.768 
L 374.113808 78.768 
L 374.763767 88.848 
L 375.413726 88.848 
L 375.738706 93.888 
L 376.063686 96.408 
L 376.388665 106.488 
L 376.713645 111.528 
L 377.038624 111.528 
L 377.363604 114.048 
L 377.688583 119.088 
L 378.013563 129.168 
L 378.338542 129.168 
L 378.988501 141.768 
L 379.313481 141.768 
L 379.96344 154.368 
L 380.288419 159.408 
L 380.938378 172.008 
L 381.263358 174.528 
L 381.588337 184.608 
L 382.238296 194.688 
L 382.563276 202.248 
L 382.888256 202.248 
L 383.863194 222.408 
L 384.188174 222.408 
L 384.838133 232.488 
L 385.488092 250.128 
L 385.813071 250.128 
L 386.138051 247.608 
L 386.46303 250.128 
L 386.78801 262.728 
L 387.112989 270.288 
L 387.762948 275.328 
L 388.087928 272.808 
L 388.412907 272.808 
L 388.737887 280.368 
L 389.387846 285.408 
L 389.712826 282.888 
L 390.037805 282.888 
L 390.687764 292.968 
L 391.012744 292.968 
L 391.337723 290.448 
L 391.662703 282.888 
L 391.987682 287.928 
L 392.312662 290.448 
L 392.637641 290.448 
L 392.962621 287.928 
L 393.61258 275.328 
L 394.587518 275.328 
L 395.237477 265.248 
L 395.562457 272.808 
L 395.887437 275.328 
L 396.212416 282.888 
L 396.537396 285.408 
L 396.862375 280.368 
L 397.187355 282.888 
L 397.512334 282.888 
L 397.837314 287.928 
L 398.162293 287.928 
L 398.487273 285.408 
L 398.487273 285.408 
" clip-path="url(#pc2f1b4c47e)" style="fill: none; stroke: #d62728; stroke-width: 1.5; stroke-linecap: square"/>
   </g>
   <g id="patch_3">
    <path d="M 57.6 307.584 
L 57.6 41.472 
" style="fill: none; stroke: #000000; stroke-width: 0.8; stroke-linejoin: miter; stroke-linecap: square"/>
   </g>
   <g id="patch_4">
    <path d="M 414.72 307.584 
L 414.72 41.472 
" style="fill: none; stroke: #000000; stroke-width: 0.8; stroke-linejoin: miter; stroke-linecap: square"/>
   </g>
   <g id="patch_5">
    <path d="M 57.6 307.584 
L 414.72 307.584 
" style="fill: none; stroke: #000000; stroke-width: 0.8; stroke-linejoin: miter; stroke-linecap: square"/>
   </g>
   <g id="patch_6">
    <path d="M 57.6 41.472 
L 414.72 41.472 
" style="fill: none; stroke: #000000; stroke-width: 0.8; stroke-linejoin: miter; stroke-linecap: square"/>
   </g>
  </g>
 </g>
 <defs>
  <clipPath id="pc2f1b4c47e">
   <rect x="57.6" y="41.472" width="357.12" height="266.112"/>
  </clipPath>
 </defs>
</svg>
