<?xml version="1.0" encoding="utf-8" standalone="no"?>
<!DOCTYPE svg PUBLIC "-//W3C//DTD SVG 1.1//EN"
  "http://www.w3.org/Graphics/SVG/1.1/DTD/svg11.dtd">
<svg xmlns:xlink="http://www.w3.org/1999/xlink" width="460.8pt" height="345.6pt" viewBox="0 0 460.8 345.6" xmlns="http://www.w3.org/2000/svg" version="1.1">
 <metadata>
  <rdf:RDF xmlns:dc="http://purl.org/dc/elements/1.1/" xmlns:cc="http://creativecommons.org/ns#" xmlns:rdf="http://www.w3.org/1999/02/22-rdf-syntax-ns#">
   <cc:Work>
    <dc:type rdf:resource="http://purl.org/dc/dcmitype/StillImage"/>
    <dc:date>2025-12-29T10:31:23.703301</dc:date>
    <dc:format>image/svg+xml</dc:format>
    <dc:creator>
     <cc:Agent>
      <dc:title>Matplotlib v3.10.8, https://matplotlib.org/</dc:title>
     </cc:Agent>
    </dc:creator>
   </cc:Work>
  </rdf:RDF>
 </metadata>
 <defs>
  <style type="text/css">*{stroke-linejoin: round; stroke-linecap: butt}</style>
 </defs>
 <g id="figure_1">
  <g id="patch_1">
   <path d="M 0 345.6 
L 460.8 345.6 
L 460.8 0 
L 0 0 
z
" style="fill: #ffffff"/>
  </g>
  <g id="axes_1">
   <g id="patch_2">
    <path d="M 57.6 307.584 
L 414.72 307.584 
L 414.72 41.472 
L 57.6 41.472 
z
" style="fill: #ffffff"/>
   </g>
   <g id="matplotlib.axis_1">
    <g id="xtick_1">
     <g id="line2d_1">
      <defs>
       <path id="mb2246c83ae" d="M 0 0 
L 0 3.5 
" style="stroke: #000000; stroke-width: 0.8"/>
      </defs>
      <g>
       <use xlink:href="#mb2246c83ae" x="73.832727" y="307.584" style="stroke: #000000; stroke-width: 0.8"/>
      </g>
     </g>
     <g id="text_1">
      <!-- 0 -->
      <g transform="translate(70.651477 322.182437) scale(0.1 -0.1)">
       <defs>
        <path id="DejaVuSans-30" d="M 2034 4250 
Q 1547 4250 1301 3770 
Q 1056 3291 1056 2328 
Q 1056 1369 1301 889 
Q 1547 409 2034 409 
Q 2525 409 2770 889 
Q 3016 1369 3016 2328 
Q 3016 3291 2770 3770 
Q 2525 4250 2034 4250 
z
M 2034 4750 
Q 2819 4750 3233 4129 
Q 3647 3509 3647 2328 
Q 3647 1150 3233 529 
Q 2819 -91 2034 -91 
Q 1250 -91 836 529 
Q 422 1150 422 2328 
Q 422 3509 836 4129 
Q 1250 4750 2034 4750 
z
" transform="scale(0.015625)"/>
       </defs>
       <use xlink:href="#DejaVuSans-30"/>
      </g>
     </g>
    </g>
    <g id="xtick_2">
     <g id="line2d_2">
      <g>
       <use xlink:href="#mb2246c83ae" x="138.828632" y="307.584" style="stroke: #000000; stroke-width: 0.8"/>
      </g>
     </g>
     <g id="text_2">
      <!-- 1 -->
      <g transform="translate(135.647382 322.182437) scale(0.1 -0.1)">
       <defs>
        <path id="DejaVuSans-31" d="M 794 531 
L 1825 531 
L 1825 4091 
L 703 3866 
L 703 4441 
L 1819 4666 
L 2450 4666 
L 2450 531 
L 3481 531 
L 3481 0 
L 794 0 
L 794 531 
z
" transform="scale(0.015625)"/>
       </defs>
       <use xlink:href="#DejaVuSans-31"/>
      </g>
     </g>
    </g>
    <g id="xtick_3">
     <g id="line2d_3">
      <g>
       <use xlink:href="#mb2246c83ae" x="203.824537" y="307.584" style="stroke: #000000; stroke-width: 0.8"/>
      </g>
     </g>
     <g id="text_3">
      <!-- 2 -->
      <g transform="translate(200.643287 322.182437) scale(0.1 -0.1)">
       <defs>
        <path id="DejaVuSans-32" d="M 1228 531 
L 3431 531 
L 3431 0 
L 469 0 
L 469 531 
Q 828 903 1448 1529 
Q 2069 2156 2228 2338 
Q 2531 2678 2651 2914 
Q 2772 3150 2772 3378 
Q 2772 3750 2511 3984 
Q 2250 4219 1831 4219 
Q 1534 4219 1204 4116 
Q 875 4013 500 3803 
L 500 4441 
Q 881 4594 1212 4672 
Q 1544 4750 1819 4750 
Q 2544 4750 2975 4387 
Q 3406 4025 3406 3419 
Q 3406 3131 3298 2873 
Q 3191 2616 2906 2266 
Q 2828 2175 2409 1742 
Q 1991 1309 1228 531 
z
" transform="scale(0.015625)"/>
       </defs>
       <use xlink:href="#DejaVuSans-32"/>
      </g>
     </g>
    </g>
    <g id="xtick_4">
     <g id="line2d_4">
      <g>
       <use xlink:href="#mb2246c83ae" x="268.820442" y="307.584" style="stroke: #000000; stroke-width: 0.8"/>
      </g>
     </g>
     <g id="text_4">
      <!-- 3 -->
      <g transform="translate(265.639192 322.182437) scale(0.1 -0.1)">
       <defs>
        <path id="DejaVuSans-33" d="M 2597 2516 
Q 3050 2419 3304 2112 
Q 3559 1806 3559 1356 
Q 3559 666 3084 287 
Q 2609 -91 1734 -91 
Q 1441 -91 1130 -33 
Q 819 25 488 141 
L 488 750 
Q 750 597 1062 519 
Q 1375 441 1716 441 
Q 2309 441 2620 675 
Q 2931 909 2931 1356 
Q 2931 1769 2642 2001 
Q 2353 2234 1838 2234 
L 1294 2234 
L 1294 2753 
L 1863 2753 
Q 2328 2753 2575 2939 
Q 2822 3125 2822 3475 
Q 2822 3834 2567 4026 
Q 2313 4219 1838 4219 
Q 1578 4219 1281 4162 
Q 984 4106 628 3988 
L 628 4550 
Q 988 4650 1302 4700 
Q 1616 4750 1894 4750 
Q 2613 4750 3031 4423 
Q 3450 4097 3450 3541 
Q 3450 3153 3228 2886 
Q 3006 2619 2597 2516 
z
" transform="scale(0.015625)"/>
       </defs>
       <use xlink:href="#DejaVuSans-33"/>
      </g>
     </g>
    </g>
    <g id="xtick_5">
     <g id="line2d_5">
      <g>
       <use xlink:href="#mb2246c83ae" x="333.816347" y="307.584" style="stroke: #000000; stroke-width: 0.8"/>
      </g>
     </g>
     <g id="text_5">
      <!-- 4 -->
      <g transform="translate(330.635097 322.182437) scale(0.1 -0.1)">
       <defs>
        <path id="DejaVuSans-34" d="M 2419 4116 
L 825 1625 
L 2419 1625 
L 2419 4116 
z
M 2253 4666 
L 3047 4666 
L 3047 1625 
L 3713 1625 
L 3713 1100 
L 3047 1100 
L 3047 0 
L 2419 0 
L 2419 1100 
L 313 1100 
L 313 1709 
L 2253 4666 
z
" transform="scale(0.015625)"/>
       </defs>
       <use xlink:href="#DejaVuSans-34"/>
      </g>
     </g>
    </g>
    <g id="xtick_6">
     <g id="line2d_6">
      <g>
       <use xlink:href="#mb2246c83ae" x="398.812252" y="307.584" style="stroke: #000000; stroke-width: 0.8"/>
      </g>
     </g>
     <g id="text_6">
      <!-- 5 -->
      <g transform="translate(395.631002 322.182437) scale(0.1 -0.1)">
       <defs>
        <path id="DejaVuSans-35" d="M 691 4666 
L 3169 4666 
L 3169 4134 
L 1269 4134 
L 1269 2991 
Q 1406 3038 1543 3061 
Q 1681 3084 1819 3084 
Q 2600 3084 3056 2656 
Q 3513 2228 3513 1497 
Q 3513 744 3044 326 
Q 2575 -91 1722 -91 
Q 1428 -91 1123 -41 
Q 819 9 494 109 
L 494 744 
Q 775 591 1075 516 
Q 1375 441 1709 441 
Q 2250 441 2565 725 
Q 2881 1009 2881 1497 
Q 2881 1984 2565 2268 
Q 2250 2553 1709 2553 
Q 1456 2553 1204 2497 
Q 953 2441 691 2322 
L 691 4666 
z
" transform="scale(0.015625)"/>
       </defs>
       <use xlink:href="#DejaVuSans-35"/>
      </g>
     </g>
    </g>
    <g id="text_7">
     <!-- 1e−7 -->
     <g transform="translate(387.462188 334.860562) scale(0.1 -0.1)">
      <defs>
       <path id="DejaVuSans-65" d="M 3597 1894 
L 3597 1613 
L 953 1613 
Q 991 1019 1311 708 
Q 1631 397 2203 397 
Q 2534 397 2845 478 
Q 3156 559 3463 722 
L 3463 178 
Q 3153 47 2828 -22 
Q 2503 -91 2169 -91 
Q 1331 -91 842 396 
Q 353 884 353 1716 
Q 353 2575 817 3079 
Q 1281 3584 2069 3584 
Q 2775 3584 3186 3129 
Q 3597 2675 3597 1894 
z
M 3022 2063 
Q 3016 2534 2758 2815 
Q 2500 3097 2075 3097 
Q 1594 3097 1305 2825 
Q 1016 2553 972 2059 
L 3022 2063 
z
" transform="scale(0.015625)"/>
       <path id="DejaVuSans-2212" d="M 678 2272 
L 4684 2272 
L 4684 1741 
L 678 1741 
L 678 2272 
z
" transform="scale(0.015625)"/>
       <path id="DejaVuSans-37" d="M 525 4666 
L 3525 4666 
L 3525 4397 
L 1831 0 
L 1172 0 
L 2766 4134 
L 525 4134 
L 525 4666 
z
" transform="scale(0.015625)"/>
      </defs>
      <use xlink:href="#DejaVuSans-31"/>
      <use xlink:href="#DejaVuSans-65" transform="translate(63.623047 0)"/>
      <use xlink:href="#DejaVuSans-2212" transform="translate(125.146484 0)"/>
      <use xlink:href="#DejaVuSans-37" transform="translate(208.935547 0)"/>
     </g>
    </g>
   </g>
   <g id="matplotlib.axis_2">
    <g id="ytick_1">
     <g id="line2d_7">
      <defs>
       <path id="m59ef829ad7" d="M 0 0 
L -3.5 0 
" style="stroke: #000000; stroke-width: 0.8"/>
      </defs>
      <g>
       <use xlink:href="#m59ef829ad7" x="57.6" y="282.19571" style="stroke: #000000; stroke-width: 0.8"/>
      </g>
     </g>
     <g id="text_8">
      <!-- 0 -->
      <g transform="translate(44.2375 285.994928) scale(0.1 -0.1)">
       <use xlink:href="#DejaVuSans-30"/>
      </g>
     </g>
    </g>
    <g id="ytick_2">
     <g id="line2d_8">
      <g>
       <use xlink:href="#m59ef829ad7" x="57.6" y="239.660321" style="stroke: #000000; stroke-width: 0.8"/>
      </g>
     </g>
     <g id="text_9">
      <!-- 10 -->
      <g transform="translate(37.875 243.45954) scale(0.1 -0.1)">
       <use xlink:href="#DejaVuSans-31"/>
       <use xlink:href="#DejaVuSans-30" transform="translate(63.623047 0)"/>
      </g>
     </g>
    </g>
    <g id="ytick_3">
     <g id="line2d_9">
      <g>
       <use xlink:href="#m59ef829ad7" x="57.6" y="197.124932" style="stroke: #000000; stroke-width: 0.8"/>
      </g>
     </g>
     <g id="text_10">
      <!-- 20 -->
      <g transform="translate(37.875 200.924151) scale(0.1 -0.1)">
       <use xlink:href="#DejaVuSans-32"/>
       <use xlink:href="#DejaVuSans-30" transform="translate(63.623047 0)"/>
      </g>
     </g>
    </g>
    <g id="ytick_4">
     <g id="line2d_10">
      <g>
       <use xlink:href="#m59ef829ad7" x="57.6" y="154.589543" style="stroke: #000000; stroke-width: 0.8"/>
      </g>
     </g>
     <g id="text_11">
      <!-- 30 -->
      <g transform="translate(37.875 158.388762) scale(0.1 -0.1)">
       <use xlink:href="#DejaVuSans-33"/>
       <use xlink:href="#DejaVuSans-30" transform="translate(63.623047 0)"/>
      </g>
     </g>
    </g>
    <g id="ytick_5">
     <g id="line2d_11">
      <g>
       <use xlink:href="#m59ef829ad7" x="57.6" y="112.054154" style="stroke: #000000; stroke-width: 0.8"/>
      </g>
     </g>
     <g id="text_12">
      <!-- 40 -->
      <g transform="translate(37.875 115.853373) scale(0.1 -0.1)">
       <use xlink:href="#DejaVuSans-34"/>
       <use xlink:href="#DejaVuSans-30" transform="translate(63.623047 0)"/>
      </g>
     </g>
    </g>
    <g id="ytick_6">
     <g id="line2d_12">
      <g>
       <use xlink:href="#m59ef829ad7" x="57.6" y="69.518765" style="stroke: #000000; stroke-width: 0.8"/>
      </g>
     </g>
     <g id="text_13">
      <!-- 50 -->
      <g transform="translate(37.875 73.317984) scale(0.1 -0.1)">
       <use xlink:href="#DejaVuSans-35"/>
       <use xlink:href="#DejaVuSans-30" transform="translate(63.623047 0)"/>
      </g>
     </g>
    </g>
   </g>
   <g id="line2d_13">
    <path d="M 73.832727 260.928018 
L 74.157707 260.928018 
L 74.482686 261.45971 
L 75.132645 260.928018 
L 75.782604 260.928018 
L 76.107584 261.45971 
L 76.432563 261.193864 
L 76.757543 261.45971 
L 77.082523 260.928018 
L 77.732482 261.45971 
L 78.057461 261.45971 
L 78.382441 261.193864 
L 78.70742 260.662172 
L 79.0324 260.928018 
L 79.357379 260.928018 
L 79.682359 261.725557 
L 80.007338 261.725557 
L 80.332318 261.45971 
L 80.657297 260.928018 
L 80.982277 260.928018 
L 81.307256 261.193864 
L 81.957215 261.193864 
L 82.282195 260.928018 
L 82.607174 263.852326 
L 82.932154 268.105864 
L 83.257133 270.764326 
L 83.907093 270.764326 
L 84.232072 272.891095 
L 85.85697 286.715095 
L 86.506929 289.10771 
L 86.831908 289.905249 
L 87.156888 290.171095 
L 87.481867 289.905249 
L 87.806847 289.10771 
L 88.131826 286.980941 
L 88.781785 281.664018 
L 89.106765 280.334787 
L 89.431744 280.334787 
L 89.756724 280.068941 
L 90.081704 279.537249 
L 90.406683 278.73971 
L 91.056642 278.73971 
L 91.381622 279.803095 
L 91.706601 281.398172 
L 92.031581 281.664018 
L 92.35656 281.132326 
L 92.68154 280.86648 
L 93.006519 281.929864 
L 93.656478 285.385864 
L 93.981458 285.120018 
L 94.306437 283.259095 
L 94.631417 282.19571 
L 94.956396 282.19571 
L 95.281376 283.790787 
L 95.606355 284.32248 
L 95.931335 283.259095 
L 96.256314 281.132326 
L 96.581294 280.600634 
L 97.231253 283.259095 
L 97.556233 283.259095 
L 97.881212 281.132326 
L 98.206192 279.803095 
L 98.531171 280.600634 
L 98.856151 282.993249 
L 99.18113 284.056634 
L 99.50611 282.993249 
L 99.831089 281.132326 
L 100.156069 280.86648 
L 100.806028 284.588326 
L 101.131007 284.588326 
L 101.780966 281.132326 
L 102.105946 281.398172 
L 102.755905 284.32248 
L 103.405864 281.398172 
L 103.730844 281.132326 
L 104.380803 283.524941 
L 104.705782 283.524941 
L 105.355741 281.132326 
L 105.680721 281.398172 
L 106.33068 282.993249 
L 106.655659 282.993249 
L 107.305618 281.929864 
L 107.630598 282.461557 
L 107.955577 283.259095 
L 108.280557 282.993249 
L 108.605536 282.461557 
L 108.930516 281.664018 
L 109.255495 282.19571 
L 109.580475 282.993249 
L 109.905455 283.259095 
L 110.230434 282.993249 
L 110.880393 281.929864 
L 111.205373 282.461557 
L 111.530352 282.727403 
L 111.855332 282.727403 
L 112.180311 282.461557 
L 112.505291 282.461557 
L 112.83027 282.19571 
L 113.480229 282.727403 
L 114.130188 282.727403 
L 114.455168 282.461557 
L 115.105127 282.461557 
L 115.430106 282.727403 
L 116.405045 281.929864 
L 116.730025 282.461557 
L 117.379984 282.993249 
L 117.704963 282.993249 
L 118.029943 282.19571 
L 118.354922 282.19571 
L 118.679902 281.664018 
L 119.004881 282.461557 
L 119.329861 282.727403 
L 119.97982 282.19571 
L 120.304799 282.19571 
L 120.629779 282.727403 
L 120.954758 282.993249 
L 121.279738 282.461557 
L 121.929697 281.929864 
L 122.254676 282.19571 
L 122.579656 282.727403 
L 122.904636 282.727403 
L 123.554595 282.19571 
L 124.204554 282.727403 
L 124.529533 283.259095 
L 124.854513 282.461557 
L 125.504472 281.929864 
L 125.829451 282.993249 
L 126.154431 282.461557 
L 126.47941 282.727403 
L 126.80439 281.664018 
L 127.129369 282.19571 
L 127.454349 282.461557 
L 127.779328 282.993249 
L 128.104308 282.727403 
L 128.429287 282.19571 
L 128.754267 282.19571 
L 129.729206 282.993249 
L 130.054185 282.461557 
L 130.704144 282.461557 
L 131.029124 282.993249 
L 131.354103 282.993249 
L 132.004062 281.929864 
L 132.329042 281.929864 
L 132.979001 282.993249 
L 133.30398 282.993249 
L 133.953939 281.929864 
L 134.278919 281.929864 
L 134.603898 282.727403 
L 134.928878 282.727403 
L 135.253857 282.461557 
L 135.578837 281.929864 
L 136.228796 282.461557 
L 136.553776 282.993249 
L 136.878755 282.461557 
L 137.203735 282.19571 
L 137.528714 282.19571 
L 138.178673 282.727403 
L 138.503653 282.727403 
L 138.828632 282.461557 
L 139.153612 282.727403 
L 140.12855 282.727403 
L 140.45353 282.461557 
L 140.778509 282.461557 
L 141.103489 282.727403 
L 141.428468 283.259095 
L 141.753448 283.259095 
L 142.078428 282.461557 
L 142.403407 282.19571 
L 142.728387 282.19571 
L 143.053366 282.461557 
L 143.378346 282.993249 
L 144.028305 282.993249 
L 144.353284 282.461557 
L 144.678264 282.461557 
L 145.003243 282.727403 
L 145.653202 282.727403 
L 145.978182 282.461557 
L 146.95312 282.461557 
L 147.2781 282.993249 
L 147.603079 283.259095 
L 147.928059 283.259095 
L 148.253038 282.993249 
L 148.578018 282.993249 
L 148.902998 281.929864 
L 149.877936 277.41048 
L 150.527895 275.017864 
L 150.852875 273.688634 
L 151.827813 267.04248 
L 152.152793 265.447403 
L 152.477772 265.181557 
L 152.802752 264.649864 
L 153.127731 263.852326 
L 153.452711 262.523095 
L 153.77769 261.991403 
L 154.427649 261.991403 
L 154.752629 261.45971 
L 155.077609 259.864634 
L 155.402588 259.598787 
L 155.727568 259.598787 
L 156.052547 260.396326 
L 156.377527 260.396326 
L 156.702506 259.864634 
L 157.027486 259.864634 
L 157.352465 259.332941 
L 158.002424 260.662172 
L 158.327404 260.928018 
L 158.977363 259.864634 
L 159.627322 261.193864 
L 159.952301 261.45971 
L 160.277281 261.193864 
L 160.92724 261.725557 
L 161.252219 262.257249 
L 161.577199 262.523095 
L 161.902179 261.725557 
L 162.552138 261.193864 
L 163.202097 262.257249 
L 163.527076 262.257249 
L 164.177035 260.928018 
L 164.502015 261.193864 
L 164.826994 261.725557 
L 165.151974 261.725557 
L 165.476953 261.193864 
L 165.801933 260.928018 
L 166.451892 261.45971 
L 166.776871 261.45971 
L 167.75181 260.662172 
L 168.07679 261.193864 
L 168.401769 261.45971 
L 168.726749 261.45971 
L 169.051728 261.193864 
L 169.376708 260.662172 
L 170.026667 261.193864 
L 170.351646 261.991403 
L 171.001605 260.662172 
L 171.326585 260.928018 
L 171.651564 260.928018 
L 171.976544 261.45971 
L 172.301523 261.193864 
L 172.626503 261.45971 
L 172.951482 260.928018 
L 173.276462 261.45971 
L 173.601441 261.45971 
L 173.926421 261.991403 
L 174.57638 260.662172 
L 174.90136 260.662172 
L 175.226339 260.928018 
L 175.551319 261.725557 
L 175.876298 261.45971 
L 176.201278 261.45971 
L 176.526257 261.193864 
L 176.851237 261.193864 
L 177.176216 261.45971 
L 177.501196 261.193864 
L 178.151155 261.193864 
L 178.476134 264.118172 
L 178.801114 268.37171 
L 179.126093 270.764326 
L 179.451073 270.49848 
L 179.776052 270.764326 
L 180.101032 272.891095 
L 181.72593 286.715095 
L 182.375889 289.10771 
L 182.700868 289.639403 
L 183.025848 290.436941 
L 183.350827 290.171095 
L 183.675807 288.841864 
L 184.650745 281.664018 
L 184.975725 280.334787 
L 185.950663 279.537249 
L 186.275643 278.473864 
L 186.600622 278.473864 
L 186.925602 278.73971 
L 187.575561 281.398172 
L 187.900541 281.398172 
L 188.22552 281.132326 
L 188.5505 280.600634 
L 188.875479 281.929864 
L 189.525438 285.65171 
L 189.850418 284.854172 
L 190.500377 281.929864 
L 190.825356 282.461557 
L 191.150336 284.056634 
L 191.475315 284.32248 
L 191.800295 282.993249 
L 192.125274 281.132326 
L 192.450254 280.600634 
L 193.100213 283.259095 
L 193.425192 283.259095 
L 193.750172 281.132326 
L 194.075152 280.068941 
L 194.400131 280.86648 
L 194.725111 282.993249 
L 195.05009 284.32248 
L 195.700049 280.86648 
L 196.025029 280.86648 
L 196.674988 284.588326 
L 196.999967 284.32248 
L 197.649926 281.132326 
L 197.974906 281.664018 
L 198.624865 284.056634 
L 198.949844 283.259095 
L 199.274824 281.398172 
L 199.599803 280.86648 
L 200.249762 283.524941 
L 200.574742 284.056634 
L 201.224701 281.132326 
L 201.549681 281.398172 
L 201.87466 282.461557 
L 202.19964 282.993249 
L 202.524619 282.993249 
L 202.849599 282.19571 
L 203.174578 281.929864 
L 203.499558 282.19571 
L 203.824537 283.259095 
L 204.149517 282.993249 
L 204.799476 281.929864 
L 205.124455 281.929864 
L 205.774414 282.993249 
L 206.099394 282.727403 
L 206.424373 282.19571 
L 206.749353 282.461557 
L 207.074333 282.461557 
L 207.724292 282.993249 
L 208.049271 282.461557 
L 208.69923 281.929864 
L 209.02421 282.461557 
L 209.349189 282.461557 
L 209.674169 282.993249 
L 209.999148 282.993249 
L 210.324128 282.461557 
L 210.974087 282.461557 
L 211.299066 282.727403 
L 211.949025 282.19571 
L 212.598984 282.19571 
L 212.923964 282.727403 
L 213.248943 282.993249 
L 213.573923 282.993249 
L 213.898903 282.19571 
L 214.223882 282.19571 
L 214.548862 281.929864 
L 214.873841 282.461557 
L 215.5238 282.461557 
L 215.84878 281.929864 
L 216.173759 282.19571 
L 216.498739 282.727403 
L 216.823718 282.993249 
L 217.798657 282.19571 
L 218.123636 282.461557 
L 218.448616 282.993249 
L 218.773595 282.993249 
L 219.098575 282.19571 
L 219.423554 281.929864 
L 219.748534 282.19571 
L 220.073514 282.993249 
L 220.398493 282.993249 
L 221.048452 281.929864 
L 221.373432 281.929864 
L 221.698411 282.727403 
L 222.023391 282.993249 
L 222.34837 282.727403 
L 222.67335 281.929864 
L 222.998329 282.19571 
L 223.323309 282.727403 
L 223.648288 282.993249 
L 223.973268 282.993249 
L 224.298247 282.19571 
L 224.623227 281.929864 
L 224.948206 282.19571 
L 225.273186 282.993249 
L 225.598165 282.993249 
L 226.248124 282.461557 
L 226.573104 282.461557 
L 227.223063 282.993249 
L 227.548043 282.461557 
L 228.198002 281.929864 
L 228.847961 283.259095 
L 229.17294 282.993249 
L 229.49792 282.19571 
L 229.822899 282.461557 
L 230.147879 282.19571 
L 230.472858 282.727403 
L 230.797838 282.993249 
L 231.122817 282.461557 
L 231.447797 282.19571 
L 231.772776 282.727403 
L 232.422735 283.259095 
L 232.747715 282.461557 
L 233.072695 282.461557 
L 233.397674 282.19571 
L 233.722654 282.727403 
L 234.047633 282.727403 
L 234.372613 282.993249 
L 234.697592 282.461557 
L 235.022572 282.727403 
L 235.347551 282.727403 
L 235.672531 282.993249 
L 235.99751 282.461557 
L 236.32249 282.461557 
L 236.647469 282.19571 
L 237.297428 283.259095 
L 237.622408 283.259095 
L 237.947387 282.993249 
L 238.272367 282.461557 
L 238.597346 282.461557 
L 239.572285 283.259095 
L 239.897265 282.727403 
L 240.222244 282.993249 
L 241.197183 282.993249 
L 242.172121 282.19571 
L 242.82208 282.19571 
L 243.14706 283.259095 
L 243.472039 283.524941 
L 244.446978 282.727403 
L 244.771957 281.929864 
L 245.421916 278.73971 
L 246.721835 273.156941 
L 247.371794 268.903403 
L 247.696773 266.776634 
L 248.021753 265.447403 
L 248.346732 265.181557 
L 248.671712 264.649864 
L 249.97163 261.725557 
L 250.296609 261.45971 
L 250.621589 261.45971 
L 250.946568 260.13048 
L 251.271548 259.864634 
L 251.596527 259.864634 
L 251.921507 260.396326 
L 252.246486 260.396326 
L 252.571466 259.864634 
L 252.896446 259.598787 
L 253.221425 259.598787 
L 253.546405 260.396326 
L 253.871384 260.662172 
L 254.196364 260.662172 
L 254.846323 260.13048 
L 255.171302 260.396326 
L 255.496282 260.928018 
L 255.821261 261.725557 
L 256.146241 261.193864 
L 256.47122 261.193864 
L 256.7962 261.45971 
L 257.121179 262.257249 
L 257.446159 262.523095 
L 258.096118 261.45971 
L 258.421097 261.45971 
L 259.071057 262.523095 
L 259.396036 262.523095 
L 260.045995 261.193864 
L 260.370975 261.45971 
L 260.695954 261.45971 
L 261.020934 261.725557 
L 261.670893 260.662172 
L 261.995872 261.193864 
L 262.645831 261.725557 
L 263.29579 260.662172 
L 263.62077 260.662172 
L 263.945749 261.193864 
L 264.595708 261.725557 
L 264.920688 261.193864 
L 265.245667 260.928018 
L 265.570647 260.928018 
L 265.895627 261.193864 
L 266.220606 261.991403 
L 266.545586 261.193864 
L 266.870565 260.928018 
L 267.195545 260.928018 
L 267.520524 261.193864 
L 267.845504 261.193864 
L 268.170483 261.45971 
L 268.495463 260.928018 
L 268.820442 260.928018 
L 269.145422 261.45971 
L 269.470401 261.45971 
L 269.795381 261.725557 
L 270.12036 261.45971 
L 270.44534 260.928018 
L 271.095299 260.928018 
L 271.420278 261.991403 
L 271.745258 261.45971 
L 272.070238 261.45971 
L 272.395217 260.928018 
L 272.720197 260.928018 
L 273.045176 261.193864 
L 273.370156 261.193864 
L 273.695135 260.928018 
L 274.020115 261.45971 
L 274.345094 264.118172 
L 274.670074 268.37171 
L 274.995053 270.764326 
L 275.320033 270.49848 
L 275.645012 270.764326 
L 276.294971 275.815403 
L 276.94493 282.461557 
L 277.594889 286.715095 
L 278.244848 289.10771 
L 278.569828 290.171095 
L 278.894808 290.436941 
L 279.219787 290.171095 
L 279.544767 288.841864 
L 280.194726 284.056634 
L 280.519705 281.398172 
L 280.844685 280.334787 
L 281.169664 280.334787 
L 281.494644 279.803095 
L 281.819623 279.803095 
L 282.144603 279.005557 
L 282.469582 278.73971 
L 282.794562 278.73971 
L 283.444521 281.132326 
L 283.7695 281.664018 
L 284.09448 281.132326 
L 284.419459 280.86648 
L 285.069419 283.790787 
L 285.394398 285.65171 
L 285.719378 285.120018 
L 286.369337 281.929864 
L 286.694316 282.461557 
L 287.019296 284.32248 
L 287.344275 284.588326 
L 287.669255 283.259095 
L 287.994234 281.132326 
L 288.319214 280.86648 
L 288.969173 283.259095 
L 289.294152 283.259095 
L 289.619132 280.86648 
L 289.944111 280.334787 
L 290.269091 280.86648 
L 290.59407 283.524941 
L 290.91905 284.056634 
L 291.244029 282.993249 
L 291.569009 280.86648 
L 291.893989 280.86648 
L 292.218968 283.259095 
L 292.543948 284.588326 
L 292.868927 284.588326 
L 293.193907 282.461557 
L 293.518886 281.398172 
L 293.843866 281.398172 
L 294.493825 284.056634 
L 295.468763 281.132326 
L 296.118722 283.790787 
L 296.443702 283.790787 
L 296.768681 282.727403 
L 297.093661 281.132326 
L 297.41864 281.664018 
L 298.0686 283.259095 
L 298.393579 282.993249 
L 299.043538 281.929864 
L 299.693497 283.259095 
L 300.018477 282.993249 
L 300.668436 281.929864 
L 301.318395 282.993249 
L 301.643374 283.259095 
L 301.968354 282.993249 
L 302.293333 282.19571 
L 302.943292 282.19571 
L 303.268272 282.993249 
L 304.24321 282.19571 
L 304.56819 282.19571 
L 304.89317 282.461557 
L 305.218149 282.461557 
L 305.543129 282.727403 
L 306.193088 282.727403 
L 306.518067 282.461557 
L 306.843047 282.461557 
L 307.168026 282.727403 
L 307.817985 282.19571 
L 308.142965 282.19571 
L 309.117903 282.993249 
L 309.442883 282.993249 
L 309.767862 282.461557 
L 310.092842 282.19571 
L 310.417821 282.19571 
L 310.742801 282.727403 
L 311.067781 282.993249 
L 311.71774 281.929864 
L 312.042719 282.19571 
L 312.367699 282.727403 
L 312.692678 282.461557 
L 313.017658 282.461557 
L 313.342637 281.929864 
L 313.667617 281.929864 
L 314.317576 282.993249 
L 314.642555 282.993249 
L 314.967535 282.19571 
L 315.292514 281.929864 
L 315.617494 282.19571 
L 315.942473 282.993249 
L 316.592432 282.461557 
L 316.917412 281.929864 
L 317.567371 282.993249 
L 317.892351 282.727403 
L 318.21733 282.727403 
L 318.54231 282.19571 
L 318.867289 282.461557 
L 319.192269 282.461557 
L 319.517248 282.993249 
L 319.842228 282.727403 
L 320.167207 282.19571 
L 320.492187 281.929864 
L 320.817166 282.19571 
L 321.142146 282.993249 
L 321.467125 282.993249 
L 321.792105 282.461557 
L 322.442064 282.461557 
L 322.767043 282.727403 
L 323.092023 282.461557 
L 323.417002 282.727403 
L 323.741982 282.19571 
L 324.066962 281.929864 
L 324.391941 282.727403 
L 324.716921 282.993249 
L 325.0419 282.993249 
L 325.36688 282.461557 
L 325.691859 282.19571 
L 326.016839 282.19571 
L 326.341818 282.727403 
L 326.666798 282.993249 
L 326.991777 282.461557 
L 327.316757 282.19571 
L 327.641736 282.461557 
L 327.966716 282.993249 
L 328.616675 282.993249 
L 328.941654 282.19571 
L 329.266634 282.461557 
L 329.591613 282.461557 
L 329.916593 282.727403 
L 330.891532 282.727403 
L 331.216511 282.461557 
L 331.541491 282.727403 
L 331.86647 282.727403 
L 332.516429 282.19571 
L 333.166388 283.259095 
L 333.816347 282.727403 
L 334.141327 282.19571 
L 334.466306 282.19571 
L 334.791286 282.461557 
L 335.116265 282.993249 
L 335.441245 283.259095 
L 336.416183 282.461557 
L 337.066143 282.993249 
L 337.716102 282.461557 
L 338.69104 282.461557 
L 339.01602 283.259095 
L 339.340999 283.524941 
L 339.665979 283.524941 
L 339.990958 282.993249 
L 340.315938 282.727403 
L 340.965897 280.334787 
L 342.265815 274.486172 
L 342.590794 273.422787 
L 343.890713 265.181557 
L 344.540672 264.649864 
L 345.190631 262.788941 
L 345.51561 261.991403 
L 345.84059 261.991403 
L 346.165569 261.725557 
L 346.490549 261.193864 
L 346.815528 260.13048 
L 347.465487 259.598787 
L 347.790467 260.396326 
L 348.115446 260.662172 
L 348.440426 260.13048 
L 348.765405 259.332941 
L 349.090385 259.332941 
L 349.740344 260.662172 
L 350.065324 260.662172 
L 350.390303 260.13048 
L 350.715283 260.13048 
L 351.040262 260.396326 
L 351.365242 261.193864 
L 351.690221 261.45971 
L 352.015201 261.193864 
L 352.34018 261.193864 
L 352.66516 261.45971 
L 352.990139 262.257249 
L 353.640098 262.257249 
L 354.290057 260.928018 
L 354.615037 261.991403 
L 354.940016 262.257249 
L 355.264996 262.257249 
L 355.589975 261.725557 
L 355.914955 260.928018 
L 356.239934 260.928018 
L 356.564914 261.45971 
L 356.889894 261.45971 
L 357.214873 260.928018 
L 357.539853 260.928018 
L 357.864832 260.662172 
L 358.514791 261.991403 
L 359.16475 260.662172 
L 359.48973 260.662172 
L 359.814709 261.45971 
L 360.139689 261.725557 
L 361.439607 260.662172 
L 361.764586 261.193864 
L 362.089566 261.45971 
L 362.414545 261.45971 
L 362.739525 261.193864 
L 363.064505 260.662172 
L 363.389484 261.193864 
L 363.714464 261.45971 
L 364.364423 261.45971 
L 364.689402 260.928018 
L 365.014382 261.45971 
L 365.339361 261.725557 
L 365.664341 261.725557 
L 365.98932 261.193864 
L 366.639279 260.662172 
L 366.964259 261.193864 
L 367.614218 261.725557 
L 367.939197 261.725557 
L 368.264177 260.928018 
L 368.914136 261.45971 
L 369.564095 260.928018 
L 369.889075 261.45971 
L 370.864013 271.030172 
L 371.188993 270.764326 
L 371.513972 271.030172 
L 371.838952 273.156941 
L 373.463849 286.980941 
L 374.113808 289.373557 
L 374.438788 289.905249 
L 374.763767 290.702787 
L 375.088747 290.171095 
L 375.413726 289.10771 
L 376.713645 280.334787 
L 377.038624 280.334787 
L 377.363604 280.068941 
L 377.688583 279.537249 
L 378.338542 278.208018 
L 378.663522 278.473864 
L 378.988501 280.334787 
L 379.313481 281.398172 
L 379.63846 281.664018 
L 379.96344 280.86648 
L 380.288419 280.86648 
L 380.613399 282.19571 
L 381.263358 285.385864 
L 381.588337 284.854172 
L 382.238296 281.929864 
L 382.563276 282.461557 
L 382.888256 284.056634 
L 383.213235 284.32248 
L 383.863194 281.132326 
L 384.188174 280.86648 
L 384.838133 283.259095 
L 385.163112 282.993249 
L 385.488092 280.86648 
L 385.813071 280.068941 
L 386.138051 281.132326 
L 386.46303 283.259095 
L 386.78801 284.32248 
L 387.437969 280.86648 
L 387.762948 280.86648 
L 388.412907 284.588326 
L 388.737887 284.32248 
L 389.387846 281.398172 
L 389.712826 281.664018 
L 390.037805 283.259095 
L 390.362785 283.790787 
L 391.012744 281.398172 
L 391.337723 281.132326 
L 391.662703 282.461557 
L 391.987682 283.259095 
L 392.312662 283.524941 
L 392.637641 282.19571 
L 392.962621 281.398172 
L 393.2876 281.664018 
L 393.937559 283.259095 
L 394.262539 282.993249 
L 394.587518 282.19571 
L 394.912498 282.19571 
L 395.562457 283.259095 
L 396.212416 282.19571 
L 396.537396 281.929864 
L 396.862375 281.929864 
L 397.187355 282.993249 
L 397.512334 282.993249 
L 397.837314 282.461557 
L 398.162293 282.19571 
L 398.487273 282.19571 
L 398.487273 282.19571 
" clip-path="url(#p143484088f)" style="fill: none; stroke: #1f77b4; stroke-width: 1.5; stroke-linecap: square"/>
   </g>
   <g id="line2d_14">
    <path d="M 73.832727 282.727403 
L 74.157707 282.727403 
L 74.482686 282.461557 
L 74.807666 282.727403 
L 75.132645 282.727403 
L 75.782604 282.19571 
L 76.107584 282.19571 
L 76.757543 282.727403 
L 77.082523 282.727403 
L 77.407502 282.461557 
L 78.70742 282.461557 
L 79.0324 282.727403 
L 79.357379 282.461557 
L 79.682359 282.461557 
L 80.007338 282.727403 
L 80.332318 282.461557 
L 81.632236 282.461557 
L 82.282195 282.993249 
L 82.932154 282.461557 
L 83.257133 282.461557 
L 83.582113 282.727403 
L 83.907093 282.727403 
L 84.232072 282.993249 
L 84.557052 282.993249 
L 84.882031 282.461557 
L 85.53199 282.993249 
L 85.85697 282.727403 
L 86.181949 282.727403 
L 86.506929 282.19571 
L 87.481867 282.993249 
L 88.131826 282.461557 
L 88.456806 282.461557 
L 88.781785 282.727403 
L 89.106765 282.461557 
L 89.431744 282.727403 
L 89.756724 282.727403 
L 90.081704 282.461557 
L 90.406683 282.461557 
L 90.731663 282.727403 
L 92.68154 282.727403 
L 93.006519 282.461557 
L 93.656478 282.461557 
L 94.306437 282.993249 
L 94.631417 282.993249 
L 95.281376 282.461557 
L 95.931335 282.993249 
L 96.256314 282.993249 
L 96.906274 282.461557 
L 97.556233 282.993249 
L 97.881212 282.993249 
L 98.206192 283.259095 
L 98.531171 282.993249 
L 98.856151 282.993249 
L 99.18113 283.259095 
L 99.50611 283.259095 
L 99.831089 283.524941 
L 100.156069 283.524941 
L 100.806028 282.993249 
L 101.455987 282.993249 
L 101.780966 283.259095 
L 102.105946 282.727403 
L 102.755905 282.19571 
L 103.080885 282.19571 
L 104.055823 281.398172 
L 104.380803 281.398172 
L 104.705782 281.132326 
L 105.030762 281.398172 
L 105.680721 281.398172 
L 106.0057 280.86648 
L 106.980639 275.549557 
L 107.955577 268.105864 
L 108.605536 265.447403 
L 109.255495 263.58648 
L 109.905455 261.193864 
L 110.230434 260.928018 
L 111.205373 259.332941 
L 111.530352 258.535403 
L 111.855332 258.535403 
L 112.180311 258.269557 
L 112.505291 258.535403 
L 113.15525 258.535403 
L 113.480229 258.801249 
L 114.130188 259.864634 
L 114.455168 260.13048 
L 114.780147 260.13048 
L 115.105127 260.396326 
L 115.755086 261.725557 
L 116.080066 261.45971 
L 116.405045 261.45971 
L 116.730025 261.991403 
L 117.379984 262.523095 
L 117.704963 262.523095 
L 118.029943 262.788941 
L 118.354922 262.523095 
L 119.004881 262.523095 
L 119.329861 262.788941 
L 119.97982 262.257249 
L 120.304799 261.725557 
L 120.629779 261.991403 
L 120.954758 262.523095 
L 121.279738 261.991403 
L 121.929697 261.45971 
L 122.904636 261.45971 
L 123.229615 260.928018 
L 124.529533 260.928018 
L 124.854513 261.193864 
L 125.179492 260.662172 
L 125.504472 260.662172 
L 125.829451 260.928018 
L 126.154431 261.45971 
L 126.47941 261.193864 
L 126.80439 261.45971 
L 127.129369 260.928018 
L 127.779328 261.45971 
L 128.429287 261.45971 
L 128.754267 261.193864 
L 129.079247 261.193864 
L 129.729206 261.725557 
L 130.054185 261.45971 
L 130.379165 261.45971 
L 130.704144 261.193864 
L 131.029124 261.45971 
L 131.354103 261.45971 
L 131.679083 261.193864 
L 132.004062 261.45971 
L 132.329042 261.45971 
L 132.654021 261.725557 
L 132.979001 261.45971 
L 133.30398 261.725557 
L 133.953939 261.725557 
L 134.278919 261.45971 
L 134.603898 261.45971 
L 134.928878 261.991403 
L 135.578837 264.91571 
L 136.553776 269.966787 
L 137.203735 276.081249 
L 138.178673 288.310172 
L 138.828632 292.032018 
L 139.478591 293.361249 
L 139.803571 293.627095 
L 140.12855 293.095403 
L 140.45353 290.968634 
L 141.428468 281.664018 
L 142.078428 279.803095 
L 142.403407 279.271403 
L 143.378346 276.081249 
L 143.703325 276.878787 
L 144.028305 278.473864 
L 144.353284 279.271403 
L 145.003243 279.803095 
L 145.328223 281.132326 
L 145.653202 283.790787 
L 145.978182 285.385864 
L 146.303161 285.120018 
L 146.628141 283.790787 
L 146.95312 283.259095 
L 147.2781 283.790787 
L 147.603079 285.65171 
L 147.928059 286.183403 
L 148.253038 285.120018 
L 148.578018 282.993249 
L 148.902998 281.929864 
L 149.227977 282.461557 
L 149.552957 282.727403 
L 149.877936 282.727403 
L 150.527895 280.86648 
L 150.852875 281.398172 
L 151.177854 282.19571 
L 151.502834 281.929864 
L 151.827813 281.132326 
L 152.152793 280.86648 
L 152.477772 281.132326 
L 152.802752 282.993249 
L 153.127731 284.056634 
L 153.452711 283.259095 
L 153.77769 281.929864 
L 154.10267 281.398172 
L 154.752629 284.056634 
L 155.077609 284.32248 
L 155.727568 282.461557 
L 156.052547 282.727403 
L 156.377527 283.259095 
L 156.702506 283.259095 
L 157.352465 281.929864 
L 157.677445 281.929864 
L 158.327404 283.259095 
L 158.652383 282.727403 
L 158.977363 281.664018 
L 159.302342 281.398172 
L 159.952301 282.993249 
L 160.277281 283.259095 
L 160.60226 282.727403 
L 160.92724 281.929864 
L 161.252219 282.19571 
L 161.577199 282.727403 
L 161.902179 282.993249 
L 162.227158 282.993249 
L 162.877117 282.461557 
L 163.527076 282.993249 
L 164.177035 282.461557 
L 164.502015 281.929864 
L 164.826994 282.461557 
L 165.476953 282.993249 
L 165.801933 282.993249 
L 166.126912 282.19571 
L 166.451892 282.19571 
L 166.776871 282.461557 
L 167.101851 282.461557 
L 167.42683 282.993249 
L 167.75181 282.993249 
L 168.07679 282.461557 
L 168.401769 282.19571 
L 168.726749 282.461557 
L 169.051728 282.461557 
L 169.376708 282.727403 
L 169.701687 282.19571 
L 170.026667 282.461557 
L 170.351646 282.461557 
L 170.676626 282.993249 
L 171.326585 282.461557 
L 171.651564 282.461557 
L 171.976544 282.19571 
L 172.301523 282.19571 
L 172.626503 282.993249 
L 172.951482 282.993249 
L 173.276462 282.461557 
L 173.601441 282.19571 
L 174.2514 282.727403 
L 174.57638 282.727403 
L 174.90136 282.461557 
L 175.226339 282.727403 
L 175.551319 282.461557 
L 176.526257 282.461557 
L 176.851237 282.19571 
L 177.176216 282.19571 
L 177.501196 282.461557 
L 177.826175 282.993249 
L 178.151155 282.993249 
L 178.476134 282.19571 
L 178.801114 282.19571 
L 179.126093 282.461557 
L 179.451073 282.993249 
L 179.776052 282.993249 
L 180.101032 282.461557 
L 180.426011 282.461557 
L 180.750991 282.727403 
L 181.40095 282.727403 
L 181.72593 282.461557 
L 182.050909 282.461557 
L 182.375889 282.727403 
L 182.700868 282.461557 
L 183.025848 282.993249 
L 183.350827 282.993249 
L 183.675807 282.461557 
L 184.000786 282.19571 
L 184.975725 282.993249 
L 185.300704 282.727403 
L 185.625684 282.727403 
L 185.950663 282.461557 
L 186.275643 282.727403 
L 187.575561 282.727403 
L 187.900541 282.461557 
L 188.22552 282.993249 
L 188.875479 282.461557 
L 189.200459 282.461557 
L 189.850418 282.993249 
L 190.175397 282.993249 
L 190.500377 282.727403 
L 191.475315 282.727403 
L 191.800295 282.993249 
L 192.125274 282.727403 
L 193.100213 282.727403 
L 193.750172 283.259095 
L 194.075152 283.259095 
L 194.400131 282.993249 
L 194.725111 282.993249 
L 195.05009 283.259095 
L 195.37507 283.259095 
L 195.700049 283.524941 
L 196.350008 282.993249 
L 196.674988 283.259095 
L 197.324947 283.259095 
L 197.974906 282.727403 
L 198.299885 282.993249 
L 198.624865 282.461557 
L 198.949844 282.461557 
L 199.599803 281.398172 
L 199.924783 281.664018 
L 200.249762 281.398172 
L 200.574742 281.398172 
L 201.224701 281.929864 
L 201.549681 281.398172 
L 201.87466 280.600634 
L 202.524619 277.942172 
L 204.149517 266.510787 
L 204.474496 265.181557 
L 205.124455 263.58648 
L 205.449435 262.257249 
L 206.099394 260.662172 
L 206.749353 260.13048 
L 207.074333 259.067095 
L 207.399312 258.535403 
L 207.724292 258.269557 
L 208.374251 258.269557 
L 208.69923 258.535403 
L 209.02421 258.535403 
L 209.349189 259.067095 
L 209.674169 259.067095 
L 210.324128 260.396326 
L 210.649107 260.13048 
L 210.974087 260.13048 
L 211.299066 261.193864 
L 211.949025 261.725557 
L 212.274005 261.725557 
L 213.248943 262.523095 
L 214.223882 262.523095 
L 214.548862 262.788941 
L 214.873841 262.523095 
L 215.198821 262.788941 
L 215.5238 262.257249 
L 215.84878 261.991403 
L 216.498739 261.991403 
L 216.823718 262.257249 
L 217.148698 262.257249 
L 217.473677 261.725557 
L 217.798657 261.45971 
L 218.448616 261.45971 
L 219.098575 260.928018 
L 220.073514 260.928018 
L 220.398493 261.193864 
L 220.723473 260.928018 
L 221.373432 260.928018 
L 222.023391 261.45971 
L 222.34837 261.193864 
L 222.998329 261.193864 
L 223.323309 260.928018 
L 223.973268 261.45971 
L 225.273186 261.45971 
L 225.598165 261.725557 
L 225.923145 261.45971 
L 226.248124 261.45971 
L 226.573104 261.193864 
L 226.898084 261.193864 
L 227.548043 261.725557 
L 227.873022 261.45971 
L 228.847961 261.45971 
L 229.17294 261.725557 
L 229.49792 261.45971 
L 229.822899 261.725557 
L 230.147879 261.725557 
L 230.472858 261.193864 
L 230.797838 261.725557 
L 232.422735 269.966787 
L 232.747715 272.359403 
L 233.397674 280.86648 
L 234.047633 288.310172 
L 234.372613 290.702787 
L 235.022572 293.095403 
L 235.347551 293.627095 
L 235.672531 293.627095 
L 235.99751 293.095403 
L 236.32249 291.23448 
L 237.297428 281.664018 
L 237.947387 279.803095 
L 238.272367 279.537249 
L 238.922326 276.878787 
L 239.247305 276.347095 
L 239.572285 277.144634 
L 240.222244 279.537249 
L 240.547224 279.537249 
L 240.872203 279.803095 
L 241.197183 281.132326 
L 241.522162 283.790787 
L 241.847142 285.385864 
L 242.172121 285.385864 
L 242.497101 283.790787 
L 242.82208 283.259095 
L 243.14706 284.056634 
L 243.472039 285.917557 
L 243.797019 286.449249 
L 244.771957 281.664018 
L 245.096937 281.929864 
L 245.421916 282.993249 
L 245.746896 282.727403 
L 246.071876 281.398172 
L 246.396855 280.600634 
L 246.721835 281.132326 
L 247.046814 282.19571 
L 247.371794 282.19571 
L 247.696773 281.132326 
L 248.021753 280.600634 
L 248.346732 281.398172 
L 248.671712 282.993249 
L 248.996691 283.790787 
L 249.321671 283.524941 
L 249.64665 282.19571 
L 249.97163 281.664018 
L 250.621589 284.056634 
L 250.946568 284.056634 
L 251.271548 282.993249 
L 251.596527 282.461557 
L 251.921507 282.727403 
L 252.246486 283.524941 
L 252.571466 283.259095 
L 253.221425 281.664018 
L 253.546405 282.19571 
L 254.196364 283.524941 
L 254.846323 281.664018 
L 255.171302 281.398172 
L 255.496282 281.929864 
L 255.821261 282.993249 
L 256.146241 283.259095 
L 256.7962 281.929864 
L 257.121179 282.19571 
L 257.446159 282.727403 
L 257.771138 282.993249 
L 258.096118 282.727403 
L 258.421097 282.727403 
L 258.746077 282.461557 
L 259.071057 282.993249 
L 259.396036 283.259095 
L 259.721016 282.993249 
L 260.045995 282.461557 
L 260.370975 282.19571 
L 260.695954 282.19571 
L 261.345913 283.524941 
L 261.670893 282.993249 
L 261.995872 282.19571 
L 262.320852 281.929864 
L 262.645831 281.929864 
L 262.970811 282.461557 
L 263.29579 282.727403 
L 263.62077 282.727403 
L 264.270729 282.19571 
L 264.595708 282.727403 
L 265.570647 282.727403 
L 265.895627 282.461557 
L 266.545586 282.993249 
L 266.870565 282.727403 
L 267.195545 282.727403 
L 267.520524 282.461557 
L 267.845504 282.461557 
L 268.170483 282.727403 
L 268.495463 282.727403 
L 268.820442 282.993249 
L 269.145422 282.461557 
L 269.470401 282.19571 
L 269.795381 282.461557 
L 270.12036 282.461557 
L 270.44534 282.727403 
L 270.770319 282.727403 
L 271.095299 282.461557 
L 271.745258 282.993249 
L 272.395217 282.461557 
L 272.720197 282.461557 
L 273.045176 282.727403 
L 273.695135 282.727403 
L 274.020115 282.993249 
L 274.670074 282.461557 
L 274.995053 282.461557 
L 275.645012 282.993249 
L 275.969992 282.993249 
L 276.294971 282.19571 
L 276.94493 282.727403 
L 277.594889 282.727403 
L 277.919869 282.461557 
L 278.244848 282.461557 
L 278.569828 282.727403 
L 279.869746 282.727403 
L 280.194726 282.461557 
L 280.844685 282.993249 
L 281.494644 282.461557 
L 281.819623 282.727403 
L 283.119541 282.727403 
L 283.444521 282.993249 
L 283.7695 282.727403 
L 284.09448 282.727403 
L 284.419459 282.993249 
L 284.744439 282.727403 
L 285.394398 282.727403 
L 285.719378 282.461557 
L 286.044357 282.993249 
L 286.369337 283.259095 
L 286.694316 282.461557 
L 287.344275 282.993249 
L 288.319214 282.993249 
L 288.644193 282.727403 
L 288.969173 282.727403 
L 289.619132 283.259095 
L 289.944111 283.259095 
L 290.269091 283.524941 
L 290.59407 283.259095 
L 290.91905 283.524941 
L 291.244029 283.259095 
L 292.218968 283.259095 
L 292.543948 282.993249 
L 293.843866 282.993249 
L 294.168845 282.461557 
L 294.493825 282.19571 
L 294.818804 282.19571 
L 295.468763 281.664018 
L 295.793743 281.132326 
L 296.118722 281.132326 
L 296.443702 281.398172 
L 296.768681 281.398172 
L 297.093661 281.664018 
L 297.41864 281.398172 
L 297.74362 280.600634 
L 298.393579 277.676326 
L 299.043538 272.891095 
L 300.018477 266.510787 
L 300.343456 265.181557 
L 300.668436 264.649864 
L 300.993415 263.58648 
L 301.318395 261.991403 
L 301.968354 260.662172 
L 302.293333 260.396326 
L 302.618313 259.864634 
L 303.268272 258.535403 
L 303.593251 258.535403 
L 303.918231 258.269557 
L 304.24321 258.535403 
L 304.56819 258.535403 
L 304.89317 258.269557 
L 305.868108 259.864634 
L 306.193088 260.13048 
L 306.518067 260.13048 
L 306.843047 260.662172 
L 307.493006 261.193864 
L 307.817985 261.725557 
L 308.142965 261.991403 
L 308.467944 261.725557 
L 308.792924 262.257249 
L 309.442883 262.788941 
L 310.092842 262.257249 
L 310.742801 262.788941 
L 311.067781 262.788941 
L 311.39276 262.523095 
L 311.71774 261.991403 
L 312.692678 261.991403 
L 313.017658 262.257249 
L 313.342637 261.991403 
L 313.667617 261.193864 
L 313.992596 261.45971 
L 314.642555 261.45971 
L 315.292514 260.928018 
L 315.617494 260.928018 
L 315.942473 261.193864 
L 316.267453 261.193864 
L 316.592432 260.928018 
L 316.917412 260.396326 
L 317.242391 260.928018 
L 317.567371 261.193864 
L 317.892351 261.193864 
L 318.21733 261.45971 
L 318.54231 261.193864 
L 319.192269 261.193864 
L 319.842228 261.725557 
L 320.492187 261.193864 
L 320.817166 261.45971 
L 321.142146 261.45971 
L 321.467125 261.725557 
L 322.117084 261.725557 
L 322.442064 261.45971 
L 323.092023 261.45971 
L 323.417002 261.725557 
L 323.741982 261.725557 
L 324.066962 261.193864 
L 324.391941 261.725557 
L 324.716921 261.45971 
L 325.0419 261.725557 
L 325.36688 261.45971 
L 325.691859 261.725557 
L 326.016839 261.45971 
L 326.341818 261.45971 
L 326.666798 261.991403 
L 327.316757 264.649864 
L 327.641736 266.776634 
L 328.291695 269.435095 
L 328.941654 276.347095 
L 330.241572 290.968634 
L 330.891532 292.829557 
L 331.216511 293.361249 
L 331.541491 293.627095 
L 331.86647 293.095403 
L 332.19145 291.23448 
L 333.166388 281.929864 
L 333.491368 280.068941 
L 333.816347 280.068941 
L 334.466306 278.208018 
L 334.791286 276.878787 
L 335.116265 276.347095 
L 335.441245 277.144634 
L 335.766224 278.73971 
L 336.091204 279.537249 
L 336.416183 279.537249 
L 336.741163 279.803095 
L 337.066143 281.132326 
L 337.716102 285.120018 
L 338.041081 285.385864 
L 338.366061 284.056634 
L 338.69104 283.259095 
L 339.01602 284.056634 
L 339.340999 285.65171 
L 339.665979 285.917557 
L 339.990958 284.854172 
L 340.315938 282.993249 
L 340.640917 281.929864 
L 340.965897 282.19571 
L 341.290876 282.727403 
L 341.615856 282.461557 
L 342.265815 280.600634 
L 342.590794 280.86648 
L 342.915774 281.929864 
L 343.240753 282.19571 
L 343.890713 280.334787 
L 344.215692 281.398172 
L 344.540672 283.259095 
L 344.865651 283.790787 
L 345.51561 281.929864 
L 345.84059 281.929864 
L 346.815528 284.056634 
L 347.465487 282.727403 
L 347.790467 282.727403 
L 348.115446 283.259095 
L 348.440426 282.993249 
L 348.765405 282.461557 
L 349.090385 281.664018 
L 349.415364 282.19571 
L 349.740344 282.993249 
L 350.065324 283.259095 
L 350.715283 281.132326 
L 351.040262 281.132326 
L 352.015201 283.259095 
L 352.34018 282.461557 
L 352.66516 282.19571 
L 352.990139 282.19571 
L 353.315119 282.461557 
L 353.640098 282.993249 
L 353.965078 282.993249 
L 354.290057 282.19571 
L 354.615037 282.19571 
L 354.940016 282.993249 
L 355.589975 282.993249 
L 356.239934 281.929864 
L 356.564914 282.19571 
L 357.214873 283.259095 
L 357.864832 282.19571 
L 358.189812 281.929864 
L 358.514791 281.929864 
L 358.839771 282.727403 
L 359.16475 282.993249 
L 359.48973 282.461557 
L 359.814709 282.727403 
L 360.139689 282.19571 
L 360.789648 282.727403 
L 361.764586 282.727403 
L 362.089566 282.461557 
L 362.414545 282.727403 
L 363.064505 282.727403 
L 363.389484 282.461557 
L 363.714464 281.929864 
L 364.364423 282.993249 
L 365.014382 282.461557 
L 365.664341 282.461557 
L 365.98932 282.727403 
L 366.639279 282.727403 
L 366.964259 282.461557 
L 367.614218 282.461557 
L 367.939197 282.727403 
L 368.264177 282.727403 
L 368.589156 282.461557 
L 368.914136 282.461557 
L 369.564095 282.993249 
L 369.889075 282.727403 
L 370.539034 282.727403 
L 370.864013 282.19571 
L 371.513972 282.727403 
L 372.163931 282.727403 
L 372.488911 282.461557 
L 372.81389 282.727403 
L 373.13887 282.727403 
L 373.463849 282.993249 
L 373.788829 282.461557 
L 374.113808 282.461557 
L 374.438788 282.727403 
L 375.413726 282.727403 
L 375.738706 282.461557 
L 376.063686 282.461557 
L 376.388665 282.727403 
L 376.713645 282.727403 
L 377.038624 282.993249 
L 377.688583 282.461557 
L 378.013563 282.727403 
L 378.988501 282.727403 
L 379.313481 282.461557 
L 379.63846 282.727403 
L 381.588337 282.727403 
L 381.913317 282.993249 
L 382.238296 282.993249 
L 382.563276 282.461557 
L 382.888256 282.461557 
L 383.213235 282.993249 
L 383.538215 282.727403 
L 383.863194 282.993249 
L 384.513153 282.461557 
L 385.813071 283.524941 
L 386.46303 282.993249 
L 386.78801 283.259095 
L 387.112989 283.259095 
L 387.437969 283.524941 
L 387.762948 283.524941 
L 388.087928 283.259095 
L 389.387846 283.259095 
L 390.362785 282.461557 
L 390.687764 281.929864 
L 391.012744 282.19571 
L 391.662703 281.132326 
L 392.637641 281.929864 
L 392.962621 281.929864 
L 393.2876 281.398172 
L 393.61258 280.600634 
L 394.262539 277.676326 
L 394.912498 272.891095 
L 395.887437 266.244941 
L 396.212416 265.181557 
L 396.537396 264.649864 
L 397.512334 261.45971 
L 398.162293 260.396326 
L 398.487273 259.598787 
L 398.487273 259.598787 
" clip-path="url(#p143484088f)" style="fill: none; stroke: #ff7f0e; stroke-width: 1.5; stroke-linecap: square"/>
   </g>
   <g id="line2d_15">
    <path d="M 73.832727 290.171077 
L 74.157707 290.171077 
L 74.482686 292.829538 
L 74.807666 287.512615 
L 75.457625 287.512615 
L 75.782604 290.171077 
L 76.107584 287.512615 
L 76.432563 287.512615 
L 77.082523 292.829538 
L 77.407502 290.171077 
L 77.732482 295.488 
L 78.057461 292.829538 
L 78.382441 292.829538 
L 78.70742 290.171077 
L 79.0324 292.829538 
L 79.357379 292.829538 
L 79.682359 295.488 
L 80.007338 290.171077 
L 80.332318 287.512615 
L 80.657297 292.829538 
L 81.307256 287.512615 
L 81.632236 292.829538 
L 81.957215 290.171077 
L 82.282195 292.829538 
L 82.607174 287.512615 
L 82.932154 292.829538 
L 83.907093 292.829538 
L 84.232072 295.488 
L 84.557052 292.829538 
L 84.882031 292.829538 
L 85.207011 290.171077 
L 85.53199 290.171077 
L 85.85697 292.829538 
L 86.181949 292.829538 
L 86.506929 290.171077 
L 86.831908 292.829538 
L 87.156888 290.171077 
L 87.806847 290.171077 
L 88.131826 292.829538 
L 88.456806 290.171077 
L 88.781785 290.171077 
L 89.106765 287.512615 
L 89.431744 290.171077 
L 91.056642 250.294154 
L 91.381622 234.343385 
L 91.706601 226.368 
L 92.031581 234.343385 
L 92.35656 237.001846 
L 92.68154 231.684923 
L 93.656478 167.881846 
L 93.981458 170.540308 
L 94.631417 199.783385 
L 94.956396 189.149538 
L 95.281376 162.564923 
L 95.606355 125.346462 
L 95.931335 117.371077 
L 96.581294 154.589538 
L 96.906274 154.589538 
L 97.556233 109.395692 
L 97.881212 101.420308 
L 98.206192 101.420308 
L 98.531171 114.712615 
L 98.856151 112.054154 
L 99.50611 85.469538 
L 99.831089 88.128 
L 100.156069 101.420308 
L 100.481048 109.395692 
L 101.131007 64.201846 
L 101.455987 58.884923 
L 102.105946 90.786462 
L 102.430925 96.103385 
L 102.755905 85.469538 
L 103.080885 64.201846 
L 103.405864 56.226462 
L 104.055823 74.835692 
L 104.380803 74.835692 
L 104.705782 69.518769 
L 105.030762 69.518769 
L 105.680721 80.152615 
L 106.0057 77.494154 
L 106.33068 66.860308 
L 106.655659 61.543385 
L 106.980639 64.201846 
L 107.305618 72.177231 
L 107.630598 85.469538 
L 107.955577 85.469538 
L 108.280557 80.152615 
L 108.605536 66.860308 
L 108.930516 69.518769 
L 109.255495 74.835692 
L 109.580475 77.494154 
L 109.905455 82.811077 
L 110.230434 77.494154 
L 110.880393 88.128 
L 111.205373 82.811077 
L 111.530352 80.152615 
L 112.180311 80.152615 
L 112.505291 82.811077 
L 112.83027 90.786462 
L 113.15525 93.444923 
L 113.480229 90.786462 
L 113.805209 80.152615 
L 114.130188 82.811077 
L 114.455168 80.152615 
L 114.780147 88.128 
L 115.105127 90.786462 
L 116.080066 90.786462 
L 116.405045 85.469538 
L 116.730025 85.469538 
L 117.055004 88.128 
L 117.704963 82.811077 
L 118.679902 90.786462 
L 119.004881 82.811077 
L 119.329861 82.811077 
L 119.65484 77.494154 
L 119.97982 77.494154 
L 120.304799 82.811077 
L 120.629779 82.811077 
L 121.279738 77.494154 
L 121.604717 72.177231 
L 122.254676 72.177231 
L 122.579656 69.518769 
L 122.904636 69.518769 
L 123.229615 72.177231 
L 123.879574 72.177231 
L 124.204554 66.860308 
L 124.529533 66.860308 
L 124.854513 61.543385 
L 125.179492 58.884923 
L 126.154431 66.860308 
L 126.47941 66.860308 
L 126.80439 56.226462 
L 127.129369 53.568 
L 127.454349 56.226462 
L 127.779328 56.226462 
L 128.104308 58.884923 
L 128.429287 64.201846 
L 128.754267 61.543385 
L 129.079247 61.543385 
L 129.404226 58.884923 
L 129.729206 64.201846 
L 130.379165 58.884923 
L 130.704144 64.201846 
L 131.029124 64.201846 
L 131.679083 69.518769 
L 132.004062 64.201846 
L 132.329042 64.201846 
L 132.979001 74.835692 
L 133.30398 74.835692 
L 133.62896 82.811077 
L 133.953939 82.811077 
L 134.278919 88.128 
L 134.603898 85.469538 
L 134.928878 93.444923 
L 135.253857 93.444923 
L 136.228796 101.420308 
L 136.878755 117.371077 
L 137.203735 114.712615 
L 137.528714 117.371077 
L 137.853694 122.688 
L 138.178673 125.346462 
L 138.503653 130.663385 
L 139.153612 143.955692 
L 139.478591 149.272615 
L 139.803571 149.272615 
L 140.12855 157.248 
L 140.45353 159.906462 
L 141.103489 170.540308 
L 141.753448 183.832615 
L 142.078428 189.149538 
L 142.403407 189.149538 
L 142.728387 194.466462 
L 143.053366 205.100308 
L 143.378346 207.758769 
L 143.703325 207.758769 
L 144.678264 229.026462 
L 145.003243 229.026462 
L 145.328223 239.660308 
L 145.978182 239.660308 
L 146.303161 242.318769 
L 147.2781 258.269538 
L 147.603079 255.611077 
L 147.928059 260.928 
L 148.253038 268.903385 
L 148.902998 268.903385 
L 149.227977 274.220308 
L 149.552957 274.220308 
L 149.877936 276.878769 
L 150.202916 276.878769 
L 150.527895 284.854154 
L 151.502834 284.854154 
L 151.827813 290.171077 
L 152.152793 287.512615 
L 152.477772 292.829538 
L 152.802752 287.512615 
L 153.452711 292.829538 
L 154.10267 287.512615 
L 154.427649 292.829538 
L 154.752629 290.171077 
L 155.077609 292.829538 
L 155.402588 284.854154 
L 155.727568 292.829538 
L 156.052547 290.171077 
L 156.377527 290.171077 
L 156.702506 284.854154 
L 157.027486 287.512615 
L 157.352465 287.512615 
L 157.677445 290.171077 
L 158.002424 284.854154 
L 158.327404 282.195692 
L 158.652383 284.854154 
L 158.977363 284.854154 
L 159.627322 290.171077 
L 159.952301 290.171077 
L 160.277281 292.829538 
L 160.60226 287.512615 
L 160.92724 292.829538 
L 161.577199 292.829538 
L 161.902179 287.512615 
L 162.227158 292.829538 
L 162.877117 292.829538 
L 163.202097 287.512615 
L 163.527076 284.854154 
L 163.852056 287.512615 
L 164.502015 287.512615 
L 164.826994 290.171077 
L 165.151974 287.512615 
L 165.476953 287.512615 
L 165.801933 284.854154 
L 166.126912 290.171077 
L 166.451892 290.171077 
L 166.776871 292.829538 
L 167.101851 290.171077 
L 167.75181 290.171077 
L 168.07679 292.829538 
L 168.401769 290.171077 
L 169.051728 290.171077 
L 169.376708 287.512615 
L 169.701687 287.512615 
L 170.026667 290.171077 
L 170.351646 284.854154 
L 170.676626 287.512615 
L 171.001605 284.854154 
L 171.326585 290.171077 
L 171.651564 290.171077 
L 171.976544 292.829538 
L 172.301523 290.171077 
L 172.951482 290.171077 
L 173.276462 292.829538 
L 173.601441 287.512615 
L 174.2514 292.829538 
L 174.90136 287.512615 
L 175.551319 292.829538 
L 175.876298 292.829538 
L 176.201278 287.512615 
L 176.526257 290.171077 
L 178.151155 290.171077 
L 178.476134 295.488 
L 179.126093 290.171077 
L 179.451073 292.829538 
L 179.776052 290.171077 
L 180.101032 290.171077 
L 180.426011 295.488 
L 180.750991 295.488 
L 181.075971 290.171077 
L 181.40095 287.512615 
L 181.72593 290.171077 
L 182.375889 290.171077 
L 182.700868 287.512615 
L 183.350827 292.829538 
L 183.675807 292.829538 
L 184.325766 287.512615 
L 184.650745 290.171077 
L 184.975725 290.171077 
L 185.300704 287.512615 
L 185.625684 282.195692 
L 186.925602 247.635692 
L 187.250581 237.001846 
L 187.575561 231.684923 
L 187.900541 229.026462 
L 188.22552 234.343385 
L 188.5505 229.026462 
L 188.875479 213.075692 
L 189.200459 183.832615 
L 189.525438 167.881846 
L 189.850418 173.198769 
L 190.175397 186.491077 
L 190.500377 194.466462 
L 190.825356 186.491077 
L 191.475315 130.663385 
L 191.800295 114.712615 
L 192.450254 154.589538 
L 192.775233 154.589538 
L 193.750172 93.444923 
L 194.075152 106.737231 
L 194.400131 109.395692 
L 194.725111 106.737231 
L 195.37507 80.152615 
L 195.700049 85.469538 
L 196.025029 104.078769 
L 196.350008 104.078769 
L 196.674988 90.786462 
L 196.999967 64.201846 
L 197.324947 61.543385 
L 197.649926 72.177231 
L 197.974906 93.444923 
L 198.299885 96.103385 
L 198.949844 61.543385 
L 199.274824 58.884923 
L 199.924783 74.835692 
L 200.249762 74.835692 
L 200.574742 69.518769 
L 200.899722 66.860308 
L 201.224701 74.835692 
L 201.549681 77.494154 
L 201.87466 77.494154 
L 202.19964 61.543385 
L 202.524619 61.543385 
L 202.849599 64.201846 
L 203.174578 77.494154 
L 203.499558 82.811077 
L 203.824537 80.152615 
L 204.149517 74.835692 
L 204.474496 66.860308 
L 205.124455 72.177231 
L 205.449435 80.152615 
L 205.774414 82.811077 
L 206.099394 77.494154 
L 206.424373 82.811077 
L 206.749353 82.811077 
L 207.074333 85.469538 
L 207.399312 80.152615 
L 207.724292 82.811077 
L 208.049271 82.811077 
L 208.69923 93.444923 
L 209.02421 90.786462 
L 209.349189 90.786462 
L 209.674169 88.128 
L 209.999148 80.152615 
L 210.324128 77.494154 
L 210.649107 88.128 
L 210.974087 90.786462 
L 211.299066 88.128 
L 211.624046 90.786462 
L 211.949025 88.128 
L 212.274005 90.786462 
L 212.598984 82.811077 
L 212.923964 85.469538 
L 213.248943 82.811077 
L 213.898903 88.128 
L 214.548862 88.128 
L 214.873841 85.469538 
L 215.198821 80.152615 
L 215.5238 77.494154 
L 215.84878 80.152615 
L 216.173759 80.152615 
L 216.823718 85.469538 
L 217.148698 82.811077 
L 217.473677 77.494154 
L 217.798657 69.518769 
L 218.123636 74.835692 
L 218.448616 72.177231 
L 218.773595 72.177231 
L 219.098575 69.518769 
L 219.423554 72.177231 
L 220.073514 72.177231 
L 220.723473 58.884923 
L 221.048452 61.543385 
L 221.373432 61.543385 
L 222.023391 66.860308 
L 222.34837 66.860308 
L 222.67335 64.201846 
L 222.998329 58.884923 
L 223.323309 61.543385 
L 223.648288 61.543385 
L 223.973268 64.201846 
L 224.298247 64.201846 
L 224.623227 61.543385 
L 224.948206 61.543385 
L 225.273186 64.201846 
L 225.598165 64.201846 
L 225.923145 61.543385 
L 226.248124 64.201846 
L 226.573104 61.543385 
L 226.898084 64.201846 
L 227.223063 69.518769 
L 227.548043 72.177231 
L 227.873022 72.177231 
L 228.198002 69.518769 
L 228.522981 74.835692 
L 228.847961 72.177231 
L 229.17294 77.494154 
L 229.49792 80.152615 
L 229.822899 85.469538 
L 230.147879 85.469538 
L 230.797838 90.786462 
L 231.447797 101.420308 
L 231.772776 98.761846 
L 232.097756 101.420308 
L 232.422735 112.054154 
L 233.072695 117.371077 
L 233.397674 114.712615 
L 233.722654 122.688 
L 234.047633 125.346462 
L 234.697592 141.297231 
L 235.022572 143.955692 
L 235.347551 149.272615 
L 235.99751 154.589538 
L 236.32249 159.906462 
L 236.972449 173.198769 
L 237.297428 175.857231 
L 237.947387 189.149538 
L 238.272367 194.466462 
L 238.597346 194.466462 
L 238.922326 207.758769 
L 239.247305 205.100308 
L 239.572285 210.417231 
L 239.897265 213.075692 
L 240.872203 234.343385 
L 241.522162 239.660308 
L 241.847142 244.977231 
L 242.172121 244.977231 
L 242.497101 247.635692 
L 243.14706 258.269538 
L 243.472039 260.928 
L 243.797019 260.928 
L 244.121998 266.244923 
L 244.446978 268.903385 
L 244.771957 274.220308 
L 245.096937 271.561846 
L 245.421916 276.878769 
L 245.746896 279.537231 
L 246.071876 284.854154 
L 246.396855 279.537231 
L 246.721835 284.854154 
L 247.046814 287.512615 
L 247.371794 284.854154 
L 247.696773 284.854154 
L 248.021753 290.171077 
L 248.346732 290.171077 
L 248.671712 292.829538 
L 248.996691 284.854154 
L 249.321671 292.829538 
L 251.271548 292.829538 
L 251.596527 287.512615 
L 251.921507 290.171077 
L 252.246486 290.171077 
L 252.571466 287.512615 
L 253.871384 287.512615 
L 254.196364 279.537231 
L 254.521343 287.512615 
L 254.846323 284.854154 
L 255.171302 287.512615 
L 255.496282 287.512615 
L 255.821261 290.171077 
L 256.146241 287.512615 
L 256.47122 290.171077 
L 256.7962 287.512615 
L 257.121179 287.512615 
L 257.446159 290.171077 
L 257.771138 290.171077 
L 258.096118 287.512615 
L 258.746077 292.829538 
L 259.071057 292.829538 
L 259.396036 284.854154 
L 259.721016 287.512615 
L 260.045995 284.854154 
L 260.695954 290.171077 
L 261.345913 284.854154 
L 261.670893 290.171077 
L 261.995872 287.512615 
L 262.645831 292.829538 
L 262.970811 287.512615 
L 263.62077 287.512615 
L 263.945749 292.829538 
L 264.270729 292.829538 
L 264.595708 287.512615 
L 264.920688 290.171077 
L 266.220606 290.171077 
L 266.545586 287.512615 
L 267.195545 287.512615 
L 267.845504 292.829538 
L 268.170483 287.512615 
L 268.495463 287.512615 
L 269.145422 292.829538 
L 269.470401 292.829538 
L 269.795381 287.512615 
L 270.12036 292.829538 
L 270.44534 290.171077 
L 271.745258 290.171077 
L 272.070238 292.829538 
L 272.395217 287.512615 
L 273.045176 292.829538 
L 273.370156 287.512615 
L 273.695135 287.512615 
L 274.670074 295.488 
L 274.995053 290.171077 
L 275.320033 292.829538 
L 275.645012 292.829538 
L 275.969992 295.488 
L 276.294971 295.488 
L 276.619951 292.829538 
L 277.26991 292.829538 
L 277.594889 290.171077 
L 277.919869 292.829538 
L 278.244848 292.829538 
L 278.894808 287.512615 
L 279.219787 292.829538 
L 279.544767 295.488 
L 279.869746 292.829538 
L 280.194726 287.512615 
L 280.519705 292.829538 
L 280.844685 292.829538 
L 281.169664 290.171077 
L 281.494644 284.854154 
L 282.469582 258.269538 
L 283.119541 231.684923 
L 283.444521 226.368 
L 283.7695 229.026462 
L 284.09448 234.343385 
L 284.419459 231.684923 
L 285.394398 167.881846 
L 285.719378 170.540308 
L 286.369337 197.124923 
L 286.694316 186.491077 
L 287.344275 128.004923 
L 287.669255 120.029538 
L 287.994234 130.663385 
L 288.319214 151.931077 
L 288.644193 157.248 
L 289.294152 104.078769 
L 289.619132 98.761846 
L 290.269091 114.712615 
L 290.59407 106.737231 
L 291.244029 80.152615 
L 291.569009 88.128 
L 291.893989 101.420308 
L 292.218968 101.420308 
L 292.868927 64.201846 
L 293.193907 56.226462 
L 293.843866 93.444923 
L 294.168845 93.444923 
L 294.818804 61.543385 
L 295.143784 58.884923 
L 295.468763 69.518769 
L 296.118722 74.835692 
L 296.443702 64.201846 
L 296.768681 64.201846 
L 297.093661 69.518769 
L 297.41864 77.494154 
L 297.74362 74.835692 
L 298.393579 56.226462 
L 298.718559 61.543385 
L 299.043538 74.835692 
L 299.368518 82.811077 
L 299.693497 80.152615 
L 300.343456 66.860308 
L 300.668436 69.518769 
L 300.993415 69.518769 
L 301.318395 77.494154 
L 301.968354 82.811077 
L 303.268272 82.811077 
L 303.593251 74.835692 
L 303.918231 77.494154 
L 304.24321 85.469538 
L 304.89317 90.786462 
L 305.218149 88.128 
L 305.543129 82.811077 
L 305.868108 82.811077 
L 306.193088 80.152615 
L 306.518067 88.128 
L 306.843047 88.128 
L 307.168026 90.786462 
L 307.493006 90.786462 
L 307.817985 85.469538 
L 308.467944 85.469538 
L 308.792924 82.811077 
L 309.117903 82.811077 
L 309.442883 85.469538 
L 311.067781 85.469538 
L 311.39276 72.177231 
L 311.71774 77.494154 
L 312.367699 82.811077 
L 312.692678 82.811077 
L 313.017658 80.152615 
L 313.342637 74.835692 
L 313.667617 74.835692 
L 313.992596 72.177231 
L 314.317576 72.177231 
L 314.642555 74.835692 
L 314.967535 72.177231 
L 315.292514 66.860308 
L 315.617494 72.177231 
L 315.942473 72.177231 
L 316.592432 61.543385 
L 316.917412 64.201846 
L 317.242391 64.201846 
L 317.567371 66.860308 
L 317.892351 66.860308 
L 319.192269 56.226462 
L 319.517248 61.543385 
L 319.842228 64.201846 
L 320.492187 58.884923 
L 320.817166 61.543385 
L 321.142146 61.543385 
L 321.467125 64.201846 
L 321.792105 58.884923 
L 322.117084 64.201846 
L 322.442064 64.201846 
L 323.417002 72.177231 
L 323.741982 69.518769 
L 324.391941 69.518769 
L 325.0419 82.811077 
L 325.36688 85.469538 
L 325.691859 82.811077 
L 326.341818 88.128 
L 326.666798 93.444923 
L 326.991777 90.786462 
L 327.316757 98.761846 
L 327.641736 98.761846 
L 328.291695 112.054154 
L 329.266634 120.029538 
L 329.591613 120.029538 
L 330.566552 141.297231 
L 330.891532 143.955692 
L 331.541491 154.589538 
L 331.86647 162.564923 
L 332.19145 159.906462 
L 332.841409 173.198769 
L 334.466306 199.783385 
L 335.116265 205.100308 
L 335.441245 215.734154 
L 335.766224 218.392615 
L 336.091204 218.392615 
L 337.066143 239.660308 
L 337.391122 239.660308 
L 337.716102 242.318769 
L 338.041081 242.318769 
L 338.69104 255.611077 
L 339.01602 258.269538 
L 339.340999 258.269538 
L 339.665979 266.244923 
L 339.990958 263.586462 
L 340.315938 268.903385 
L 340.965897 274.220308 
L 341.290876 274.220308 
L 341.615856 276.878769 
L 341.940835 282.195692 
L 342.265815 284.854154 
L 342.590794 282.195692 
L 342.915774 287.512615 
L 343.565733 287.512615 
L 343.890713 290.171077 
L 344.865651 290.171077 
L 345.190631 287.512615 
L 345.51561 287.512615 
L 345.84059 292.829538 
L 346.165569 290.171077 
L 346.490549 292.829538 
L 346.815528 292.829538 
L 347.140508 290.171077 
L 347.465487 292.829538 
L 347.790467 287.512615 
L 348.115446 290.171077 
L 348.440426 287.512615 
L 349.090385 287.512615 
L 349.415364 290.171077 
L 349.740344 284.854154 
L 350.065324 284.854154 
L 350.390303 282.195692 
L 350.715283 282.195692 
L 351.040262 290.171077 
L 351.365242 292.829538 
L 351.690221 290.171077 
L 352.015201 292.829538 
L 352.34018 290.171077 
L 352.66516 292.829538 
L 352.990139 287.512615 
L 353.315119 292.829538 
L 353.640098 287.512615 
L 353.965078 287.512615 
L 354.615037 292.829538 
L 355.264996 292.829538 
L 355.589975 284.854154 
L 356.239934 290.171077 
L 356.564914 290.171077 
L 356.889894 284.854154 
L 357.214873 287.512615 
L 357.539853 287.512615 
L 357.864832 292.829538 
L 358.189812 284.854154 
L 358.514791 292.829538 
L 358.839771 290.171077 
L 359.16475 290.171077 
L 359.48973 292.829538 
L 360.464668 292.829538 
L 360.789648 287.512615 
L 361.114627 287.512615 
L 361.439607 290.171077 
L 361.764586 290.171077 
L 362.089566 287.512615 
L 362.414545 287.512615 
L 363.064505 292.829538 
L 363.389484 287.512615 
L 363.714464 292.829538 
L 364.364423 287.512615 
L 365.014382 292.829538 
L 365.664341 292.829538 
L 365.98932 287.512615 
L 366.3143 287.512615 
L 366.639279 290.171077 
L 366.964259 287.512615 
L 367.289238 287.512615 
L 367.614218 290.171077 
L 368.264177 290.171077 
L 368.589156 284.854154 
L 368.914136 290.171077 
L 369.239115 290.171077 
L 369.564095 287.512615 
L 369.889075 290.171077 
L 370.539034 290.171077 
L 370.864013 292.829538 
L 371.188993 287.512615 
L 371.838952 292.829538 
L 372.163931 290.171077 
L 372.488911 290.171077 
L 372.81389 292.829538 
L 373.13887 290.171077 
L 373.463849 292.829538 
L 373.788829 287.512615 
L 374.113808 290.171077 
L 375.413726 290.171077 
L 375.738706 292.829538 
L 376.063686 292.829538 
L 376.388665 290.171077 
L 377.038624 290.171077 
L 377.363604 284.854154 
L 377.688583 274.220308 
L 378.013563 268.903385 
L 378.663522 244.977231 
L 378.988501 231.684923 
L 379.313481 229.026462 
L 379.96344 234.343385 
L 380.288419 229.026462 
L 381.263358 173.198769 
L 381.588337 173.198769 
L 381.913317 189.149538 
L 382.238296 197.124923 
L 382.563276 186.491077 
L 383.213235 125.346462 
L 383.538215 117.371077 
L 384.188174 149.272615 
L 384.513153 151.931077 
L 385.163112 106.737231 
L 385.488092 93.444923 
L 386.138051 117.371077 
L 386.46303 109.395692 
L 386.78801 90.786462 
L 387.112989 80.152615 
L 387.762948 101.420308 
L 388.087928 98.761846 
L 388.737887 61.543385 
L 389.062867 61.543385 
L 389.387846 69.518769 
L 389.712826 96.103385 
L 390.037805 93.444923 
L 390.687764 61.543385 
L 391.012744 56.226462 
L 391.337723 69.518769 
L 391.662703 77.494154 
L 391.987682 72.177231 
L 392.312662 61.543385 
L 392.962621 72.177231 
L 393.61258 72.177231 
L 393.937559 61.543385 
L 394.262539 58.884923 
L 394.587518 61.543385 
L 394.912498 74.835692 
L 395.237477 80.152615 
L 395.562457 80.152615 
L 396.212416 64.201846 
L 396.537396 66.860308 
L 396.862375 77.494154 
L 397.512334 77.494154 
L 397.837314 80.152615 
L 398.162293 77.494154 
L 398.487273 77.494154 
L 398.487273 77.494154 
" clip-path="url(#p143484088f)" style="fill: none; stroke: #2ca02c; stroke-width: 1.5; stroke-linecap: square"/>
   </g>
   <g id="patch_3">
    <path d="M 57.6 307.584 
L 57.6 41.472 
" style="fill: none; stroke: #000000; stroke-width: 0.8; stroke-linejoin: miter; stroke-linecap: square"/>
   </g>
   <g id="patch_4">
    <path d="M 414.72 307.584 
L 414.72 41.472 
" style="fill: none; stroke: #000000; stroke-width: 0.8; stroke-linejoin: miter; stroke-linecap: square"/>
   </g>
   <g id="patch_5">
    <path d="M 57.6 307.584 
L 414.72 307.584 
" style="fill: none; stroke: #000000; stroke-width: 0.8; stroke-linejoin: miter; stroke-linecap: square"/>
   </g>
   <g id="patch_6">
    <path d="M 57.6 41.472 
L 414.72 41.472 
" style="fill: none; stroke: #000000; stroke-width: 0.8; stroke-linejoin: miter; stroke-linecap: square"/>
   </g>
  </g>
 </g>
 <defs>
  <clipPath id="p143484088f">
   <rect x="57.6" y="41.472" width="357.12" height="266.112"/>
  </clipPath>
 </defs>
</svg>
