<?xml version="1.0" encoding="utf-8" standalone="no"?>
<!DOCTYPE svg PUBLIC "-//W3C//DTD SVG 1.1//EN"
  "http://www.w3.org/Graphics/SVG/1.1/DTD/svg11.dtd">
<svg xmlns:xlink="http://www.w3.org/1999/xlink" width="460.8pt" height="345.6pt" viewBox="0 0 460.8 345.6" xmlns="http://www.w3.org/2000/svg" version="1.1">
 <metadata>
  <rdf:RDF xmlns:dc="http://purl.org/dc/elements/1.1/" xmlns:cc="http://creativecommons.org/ns#" xmlns:rdf="http://www.w3.org/1999/02/22-rdf-syntax-ns#">
   <cc:Work>
    <dc:type rdf:resource="http://purl.org/dc/dcmitype/StillImage"/>
    <dc:date>2025-12-31T09:37:08.173468</dc:date>
    <dc:format>image/svg+xml</dc:format>
    <dc:creator>
     <cc:Agent>
      <dc:title>Matplotlib v3.10.8, https://matplotlib.org/</dc:title>
     </cc:Agent>
    </dc:creator>
   </cc:Work>
  </rdf:RDF>
 </metadata>
 <defs>
  <style type="text/css">*{stroke-linejoin: round; stroke-linecap: butt}</style>
 </defs>
 <g id="figure_1">
  <g id="patch_1">
   <path d="M 0 345.6 
L 460.8 345.6 
L 460.8 0 
L 0 0 
z
" style="fill: #ffffff"/>
  </g>
  <g id="axes_1">
   <g id="patch_2">
    <path d="M 57.6 307.584 
L 414.72 307.584 
L 414.72 41.472 
L 57.6 41.472 
z
" style="fill: #ffffff"/>
   </g>
   <g id="matplotlib.axis_1">
    <g id="xtick_1">
     <g id="line2d_1">
      <defs>
       <path id="m4bd917c760" d="M 0 0 
L 0 3.5 
" style="stroke: #000000; stroke-width: 0.8"/>
      </defs>
      <g>
       <use xlink:href="#m4bd917c760" x="73.832727" y="307.584" style="stroke: #000000; stroke-width: 0.8"/>
      </g>
     </g>
     <g id="text_1">
      <!-- 0 -->
      <g transform="translate(70.651477 322.182437) scale(0.1 -0.1)">
       <defs>
        <path id="DejaVuSans-30" d="M 2034 4250 
Q 1547 4250 1301 3770 
Q 1056 3291 1056 2328 
Q 1056 1369 1301 889 
Q 1547 409 2034 409 
Q 2525 409 2770 889 
Q 3016 1369 3016 2328 
Q 3016 3291 2770 3770 
Q 2525 4250 2034 4250 
z
M 2034 4750 
Q 2819 4750 3233 4129 
Q 3647 3509 3647 2328 
Q 3647 1150 3233 529 
Q 2819 -91 2034 -91 
Q 1250 -91 836 529 
Q 422 1150 422 2328 
Q 422 3509 836 4129 
Q 1250 4750 2034 4750 
z
" transform="scale(0.015625)"/>
       </defs>
       <use xlink:href="#DejaVuSans-30"/>
      </g>
     </g>
    </g>
    <g id="xtick_2">
     <g id="line2d_2">
      <g>
       <use xlink:href="#m4bd917c760" x="138.828632" y="307.584" style="stroke: #000000; stroke-width: 0.8"/>
      </g>
     </g>
     <g id="text_2">
      <!-- 1 -->
      <g transform="translate(135.647382 322.182437) scale(0.1 -0.1)">
       <defs>
        <path id="DejaVuSans-31" d="M 794 531 
L 1825 531 
L 1825 4091 
L 703 3866 
L 703 4441 
L 1819 4666 
L 2450 4666 
L 2450 531 
L 3481 531 
L 3481 0 
L 794 0 
L 794 531 
z
" transform="scale(0.015625)"/>
       </defs>
       <use xlink:href="#DejaVuSans-31"/>
      </g>
     </g>
    </g>
    <g id="xtick_3">
     <g id="line2d_3">
      <g>
       <use xlink:href="#m4bd917c760" x="203.824537" y="307.584" style="stroke: #000000; stroke-width: 0.8"/>
      </g>
     </g>
     <g id="text_3">
      <!-- 2 -->
      <g transform="translate(200.643287 322.182437) scale(0.1 -0.1)">
       <defs>
        <path id="DejaVuSans-32" d="M 1228 531 
L 3431 531 
L 3431 0 
L 469 0 
L 469 531 
Q 828 903 1448 1529 
Q 2069 2156 2228 2338 
Q 2531 2678 2651 2914 
Q 2772 3150 2772 3378 
Q 2772 3750 2511 3984 
Q 2250 4219 1831 4219 
Q 1534 4219 1204 4116 
Q 875 4013 500 3803 
L 500 4441 
Q 881 4594 1212 4672 
Q 1544 4750 1819 4750 
Q 2544 4750 2975 4387 
Q 3406 4025 3406 3419 
Q 3406 3131 3298 2873 
Q 3191 2616 2906 2266 
Q 2828 2175 2409 1742 
Q 1991 1309 1228 531 
z
" transform="scale(0.015625)"/>
       </defs>
       <use xlink:href="#DejaVuSans-32"/>
      </g>
     </g>
    </g>
    <g id="xtick_4">
     <g id="line2d_4">
      <g>
       <use xlink:href="#m4bd917c760" x="268.820442" y="307.584" style="stroke: #000000; stroke-width: 0.8"/>
      </g>
     </g>
     <g id="text_4">
      <!-- 3 -->
      <g transform="translate(265.639192 322.182437) scale(0.1 -0.1)">
       <defs>
        <path id="DejaVuSans-33" d="M 2597 2516 
Q 3050 2419 3304 2112 
Q 3559 1806 3559 1356 
Q 3559 666 3084 287 
Q 2609 -91 1734 -91 
Q 1441 -91 1130 -33 
Q 819 25 488 141 
L 488 750 
Q 750 597 1062 519 
Q 1375 441 1716 441 
Q 2309 441 2620 675 
Q 2931 909 2931 1356 
Q 2931 1769 2642 2001 
Q 2353 2234 1838 2234 
L 1294 2234 
L 1294 2753 
L 1863 2753 
Q 2328 2753 2575 2939 
Q 2822 3125 2822 3475 
Q 2822 3834 2567 4026 
Q 2313 4219 1838 4219 
Q 1578 4219 1281 4162 
Q 984 4106 628 3988 
L 628 4550 
Q 988 4650 1302 4700 
Q 1616 4750 1894 4750 
Q 2613 4750 3031 4423 
Q 3450 4097 3450 3541 
Q 3450 3153 3228 2886 
Q 3006 2619 2597 2516 
z
" transform="scale(0.015625)"/>
       </defs>
       <use xlink:href="#DejaVuSans-33"/>
      </g>
     </g>
    </g>
    <g id="xtick_5">
     <g id="line2d_5">
      <g>
       <use xlink:href="#m4bd917c760" x="333.816347" y="307.584" style="stroke: #000000; stroke-width: 0.8"/>
      </g>
     </g>
     <g id="text_5">
      <!-- 4 -->
      <g transform="translate(330.635097 322.182437) scale(0.1 -0.1)">
       <defs>
        <path id="DejaVuSans-34" d="M 2419 4116 
L 825 1625 
L 2419 1625 
L 2419 4116 
z
M 2253 4666 
L 3047 4666 
L 3047 1625 
L 3713 1625 
L 3713 1100 
L 3047 1100 
L 3047 0 
L 2419 0 
L 2419 1100 
L 313 1100 
L 313 1709 
L 2253 4666 
z
" transform="scale(0.015625)"/>
       </defs>
       <use xlink:href="#DejaVuSans-34"/>
      </g>
     </g>
    </g>
    <g id="xtick_6">
     <g id="line2d_6">
      <g>
       <use xlink:href="#m4bd917c760" x="398.812252" y="307.584" style="stroke: #000000; stroke-width: 0.8"/>
      </g>
     </g>
     <g id="text_6">
      <!-- 5 -->
      <g transform="translate(395.631002 322.182437) scale(0.1 -0.1)">
       <defs>
        <path id="DejaVuSans-35" d="M 691 4666 
L 3169 4666 
L 3169 4134 
L 1269 4134 
L 1269 2991 
Q 1406 3038 1543 3061 
Q 1681 3084 1819 3084 
Q 2600 3084 3056 2656 
Q 3513 2228 3513 1497 
Q 3513 744 3044 326 
Q 2575 -91 1722 -91 
Q 1428 -91 1123 -41 
Q 819 9 494 109 
L 494 744 
Q 775 591 1075 516 
Q 1375 441 1709 441 
Q 2250 441 2565 725 
Q 2881 1009 2881 1497 
Q 2881 1984 2565 2268 
Q 2250 2553 1709 2553 
Q 1456 2553 1204 2497 
Q 953 2441 691 2322 
L 691 4666 
z
" transform="scale(0.015625)"/>
       </defs>
       <use xlink:href="#DejaVuSans-35"/>
      </g>
     </g>
    </g>
    <g id="text_7">
     <!-- 1e−7 -->
     <g transform="translate(387.462188 334.860562) scale(0.1 -0.1)">
      <defs>
       <path id="DejaVuSans-65" d="M 3597 1894 
L 3597 1613 
L 953 1613 
Q 991 1019 1311 708 
Q 1631 397 2203 397 
Q 2534 397 2845 478 
Q 3156 559 3463 722 
L 3463 178 
Q 3153 47 2828 -22 
Q 2503 -91 2169 -91 
Q 1331 -91 842 396 
Q 353 884 353 1716 
Q 353 2575 817 3079 
Q 1281 3584 2069 3584 
Q 2775 3584 3186 3129 
Q 3597 2675 3597 1894 
z
M 3022 2063 
Q 3016 2534 2758 2815 
Q 2500 3097 2075 3097 
Q 1594 3097 1305 2825 
Q 1016 2553 972 2059 
L 3022 2063 
z
" transform="scale(0.015625)"/>
       <path id="DejaVuSans-2212" d="M 678 2272 
L 4684 2272 
L 4684 1741 
L 678 1741 
L 678 2272 
z
" transform="scale(0.015625)"/>
       <path id="DejaVuSans-37" d="M 525 4666 
L 3525 4666 
L 3525 4397 
L 1831 0 
L 1172 0 
L 2766 4134 
L 525 4134 
L 525 4666 
z
" transform="scale(0.015625)"/>
      </defs>
      <use xlink:href="#DejaVuSans-31"/>
      <use xlink:href="#DejaVuSans-65" transform="translate(63.623047 0)"/>
      <use xlink:href="#DejaVuSans-2212" transform="translate(125.146484 0)"/>
      <use xlink:href="#DejaVuSans-37" transform="translate(208.935547 0)"/>
     </g>
    </g>
   </g>
   <g id="matplotlib.axis_2">
    <g id="ytick_1">
     <g id="line2d_7">
      <defs>
       <path id="m9e10e3d1ca" d="M 0 0 
L -3.5 0 
" style="stroke: #000000; stroke-width: 0.8"/>
      </defs>
      <g>
       <use xlink:href="#m9e10e3d1ca" x="57.6" y="280.208859" style="stroke: #000000; stroke-width: 0.8"/>
      </g>
     </g>
     <g id="text_8">
      <!-- 0 -->
      <g transform="translate(44.2375 284.008078) scale(0.1 -0.1)">
       <use xlink:href="#DejaVuSans-30"/>
      </g>
     </g>
    </g>
    <g id="ytick_2">
     <g id="line2d_8">
      <g>
       <use xlink:href="#m9e10e3d1ca" x="57.6" y="239.464434" style="stroke: #000000; stroke-width: 0.8"/>
      </g>
     </g>
     <g id="text_9">
      <!-- 10 -->
      <g transform="translate(37.875 243.263652) scale(0.1 -0.1)">
       <use xlink:href="#DejaVuSans-31"/>
       <use xlink:href="#DejaVuSans-30" transform="translate(63.623047 0)"/>
      </g>
     </g>
    </g>
    <g id="ytick_3">
     <g id="line2d_9">
      <g>
       <use xlink:href="#m9e10e3d1ca" x="57.6" y="198.720008" style="stroke: #000000; stroke-width: 0.8"/>
      </g>
     </g>
     <g id="text_10">
      <!-- 20 -->
      <g transform="translate(37.875 202.519227) scale(0.1 -0.1)">
       <use xlink:href="#DejaVuSans-32"/>
       <use xlink:href="#DejaVuSans-30" transform="translate(63.623047 0)"/>
      </g>
     </g>
    </g>
    <g id="ytick_4">
     <g id="line2d_10">
      <g>
       <use xlink:href="#m9e10e3d1ca" x="57.6" y="157.975583" style="stroke: #000000; stroke-width: 0.8"/>
      </g>
     </g>
     <g id="text_11">
      <!-- 30 -->
      <g transform="translate(37.875 161.774802) scale(0.1 -0.1)">
       <use xlink:href="#DejaVuSans-33"/>
       <use xlink:href="#DejaVuSans-30" transform="translate(63.623047 0)"/>
      </g>
     </g>
    </g>
    <g id="ytick_5">
     <g id="line2d_11">
      <g>
       <use xlink:href="#m9e10e3d1ca" x="57.6" y="117.231158" style="stroke: #000000; stroke-width: 0.8"/>
      </g>
     </g>
     <g id="text_12">
      <!-- 40 -->
      <g transform="translate(37.875 121.030377) scale(0.1 -0.1)">
       <use xlink:href="#DejaVuSans-34"/>
       <use xlink:href="#DejaVuSans-30" transform="translate(63.623047 0)"/>
      </g>
     </g>
    </g>
    <g id="ytick_6">
     <g id="line2d_12">
      <g>
       <use xlink:href="#m9e10e3d1ca" x="57.6" y="76.486733" style="stroke: #000000; stroke-width: 0.8"/>
      </g>
     </g>
     <g id="text_13">
      <!-- 50 -->
      <g transform="translate(37.875 80.285951) scale(0.1 -0.1)">
       <use xlink:href="#DejaVuSans-35"/>
       <use xlink:href="#DejaVuSans-30" transform="translate(63.623047 0)"/>
      </g>
     </g>
    </g>
   </g>
   <g id="line2d_13">
    <path d="M 73.832727 260.282287 
L 74.157707 260.282287 
L 74.482686 260.600603 
L 74.807666 260.600603 
L 75.457625 259.963971 
L 76.432563 259.963971 
L 76.757543 259.645655 
L 77.082523 260.282287 
L 77.407502 259.963971 
L 77.732482 260.282287 
L 79.0324 260.282287 
L 79.357379 259.963971 
L 79.682359 259.963971 
L 80.007338 260.282287 
L 80.332318 259.963971 
L 80.657297 259.963971 
L 80.982277 260.600603 
L 81.307256 260.282287 
L 81.632236 260.282287 
L 81.957215 260.600603 
L 82.282195 261.237234 
L 82.607174 260.918918 
L 82.932154 260.918918 
L 83.257133 260.600603 
L 83.582113 260.600603 
L 83.907093 260.282287 
L 84.232072 260.282287 
L 84.557052 259.645655 
L 84.882031 259.645655 
L 85.207011 260.282287 
L 85.53199 259.963971 
L 85.85697 260.600603 
L 86.506929 260.600603 
L 86.831908 260.918918 
L 87.156888 262.510498 
L 87.806847 266.966919 
L 88.456806 269.19513 
L 89.106765 275.243131 
L 89.756724 284.155975 
L 90.406683 288.294081 
L 91.056642 289.567344 
L 91.381622 288.930712 
L 91.706601 288.930712 
L 92.031581 288.294081 
L 92.35656 286.384186 
L 93.331499 278.107974 
L 93.656478 277.789658 
L 93.981458 278.107974 
L 94.306437 277.789658 
L 94.956396 275.879763 
L 95.281376 275.879763 
L 96.256314 280.336185 
L 96.581294 279.699553 
L 96.906274 279.381237 
L 97.556233 281.609448 
L 97.881212 284.474291 
L 98.206192 284.155975 
L 98.856151 280.336185 
L 99.18113 280.654501 
L 99.50611 281.927764 
L 99.831089 282.564396 
L 100.481048 279.699553 
L 100.806028 279.699553 
L 101.131007 280.017869 
L 101.455987 281.291132 
L 101.780966 280.972816 
L 102.105946 279.381237 
L 102.430925 279.062921 
L 102.755905 279.381237 
L 103.080885 281.291132 
L 103.405864 281.927764 
L 103.730844 281.609448 
L 104.055823 280.336185 
L 104.380803 280.017869 
L 104.705782 280.017869 
L 105.030762 281.609448 
L 105.355741 281.927764 
L 106.0057 280.654501 
L 106.33068 280.972816 
L 106.655659 281.609448 
L 106.980639 281.291132 
L 107.305618 280.336185 
L 107.955577 280.336185 
L 108.280557 281.291132 
L 108.605536 281.609448 
L 108.930516 281.291132 
L 109.255495 280.017869 
L 109.580475 280.017869 
L 110.230434 280.654501 
L 110.555414 281.609448 
L 111.205373 280.972816 
L 111.530352 280.336185 
L 112.180311 280.972816 
L 112.505291 280.654501 
L 112.83027 280.654501 
L 113.15525 280.336185 
L 113.805209 280.336185 
L 114.130188 281.291132 
L 114.780147 281.291132 
L 115.105127 280.654501 
L 116.080066 280.654501 
L 116.405045 280.972816 
L 116.730025 280.336185 
L 117.055004 280.654501 
L 117.704963 280.654501 
L 118.029943 280.972816 
L 118.679902 280.972816 
L 119.329861 280.336185 
L 119.65484 280.654501 
L 120.304799 280.654501 
L 120.629779 280.972816 
L 120.954758 280.654501 
L 121.279738 280.654501 
L 121.604717 281.291132 
L 122.254676 281.291132 
L 122.579656 280.972816 
L 122.904636 280.972816 
L 123.229615 281.291132 
L 123.879574 281.291132 
L 124.204554 280.654501 
L 125.504472 280.654501 
L 125.829451 280.972816 
L 126.47941 280.336185 
L 126.80439 281.291132 
L 127.129369 281.291132 
L 127.454349 281.609448 
L 127.779328 280.972816 
L 128.104308 280.654501 
L 128.754267 280.654501 
L 129.079247 280.972816 
L 129.729206 280.972816 
L 130.054185 280.336185 
L 130.379165 280.972816 
L 130.704144 280.654501 
L 132.004062 280.654501 
L 132.654021 281.291132 
L 133.30398 280.654501 
L 133.62896 280.654501 
L 133.953939 280.972816 
L 134.278919 280.972816 
L 134.603898 280.654501 
L 134.928878 280.972816 
L 135.253857 280.654501 
L 135.578837 280.972816 
L 135.903817 280.654501 
L 137.528714 280.654501 
L 138.178673 281.291132 
L 138.503653 280.972816 
L 138.828632 280.972816 
L 139.153612 280.654501 
L 139.478591 280.972816 
L 139.803571 280.654501 
L 140.12855 280.972816 
L 140.778509 280.972816 
L 141.103489 280.654501 
L 141.428468 280.972816 
L 141.753448 280.972816 
L 142.078428 281.291132 
L 142.728387 280.654501 
L 143.053366 280.972816 
L 145.003243 280.972816 
L 145.653202 281.609448 
L 145.978182 280.972816 
L 146.303161 280.654501 
L 146.628141 280.654501 
L 146.95312 280.972816 
L 147.928059 280.972816 
L 148.253038 281.291132 
L 148.902998 281.291132 
L 149.227977 280.972816 
L 149.552957 280.972816 
L 149.877936 281.291132 
L 150.202916 280.972816 
L 150.852875 280.972816 
L 151.502834 280.336185 
L 151.827813 280.972816 
L 152.802752 281.927764 
L 153.127731 281.291132 
L 153.452711 280.972816 
L 154.10267 278.42629 
L 155.077609 271.423341 
L 155.727568 266.648604 
L 156.377527 263.465445 
L 157.027486 261.237234 
L 157.352465 260.600603 
L 158.002424 259.963971 
L 158.652383 258.372392 
L 158.977363 258.054076 
L 159.302342 258.054076 
L 159.952301 257.417444 
L 160.277281 257.417444 
L 160.60226 257.099128 
L 161.252219 257.73576 
L 161.902179 259.009023 
L 162.227158 259.327339 
L 162.552138 259.963971 
L 162.877117 259.963971 
L 163.527076 260.600603 
L 163.852056 261.237234 
L 164.177035 261.55555 
L 164.502015 261.237234 
L 164.826994 261.55555 
L 165.151974 261.55555 
L 165.476953 261.873866 
L 165.801933 261.55555 
L 167.42683 261.55555 
L 167.75181 261.237234 
L 168.401769 259.963971 
L 168.726749 259.963971 
L 169.376708 260.600603 
L 170.351646 259.645655 
L 170.676626 260.600603 
L 171.001605 260.282287 
L 171.326585 260.282287 
L 171.651564 259.963971 
L 171.976544 260.282287 
L 172.301523 259.963971 
L 172.951482 259.963971 
L 173.276462 259.645655 
L 173.601441 259.963971 
L 173.926421 259.963971 
L 174.57638 260.600603 
L 175.551319 259.645655 
L 175.876298 260.282287 
L 176.201278 260.282287 
L 176.526257 260.600603 
L 176.851237 260.282287 
L 177.176216 260.600603 
L 177.501196 260.600603 
L 177.826175 260.918918 
L 178.476134 260.282287 
L 178.801114 260.600603 
L 179.451073 260.600603 
L 179.776052 260.918918 
L 180.101032 260.600603 
L 180.426011 259.963971 
L 180.750991 259.645655 
L 181.075971 260.282287 
L 181.40095 260.282287 
L 181.72593 260.600603 
L 182.050909 260.600603 
L 182.700868 261.237234 
L 183.025848 262.828813 
L 183.675807 267.285235 
L 184.325766 268.876814 
L 184.975725 275.561447 
L 185.625684 284.155975 
L 186.275643 288.612397 
L 186.925602 289.249028 
L 187.575561 289.249028 
L 187.900541 288.294081 
L 188.22552 286.702502 
L 188.875479 280.017869 
L 189.200459 278.42629 
L 189.525438 278.107974 
L 189.850418 278.42629 
L 190.175397 278.42629 
L 190.825356 275.879763 
L 191.150336 275.561447 
L 191.800295 279.699553 
L 192.125274 280.972816 
L 192.450254 279.699553 
L 192.775233 279.699553 
L 193.100213 280.336185 
L 193.750172 283.837659 
L 194.075152 284.155975 
L 194.725111 280.972816 
L 195.05009 280.972816 
L 195.700049 282.564396 
L 196.025029 281.609448 
L 196.350008 279.699553 
L 196.674988 279.699553 
L 196.999967 280.336185 
L 197.324947 281.609448 
L 197.649926 281.609448 
L 197.974906 280.017869 
L 198.299885 279.381237 
L 198.624865 280.017869 
L 198.949844 281.291132 
L 199.274824 281.609448 
L 199.599803 281.291132 
L 199.924783 279.699553 
L 200.249762 279.699553 
L 200.899722 281.927764 
L 201.224701 281.927764 
L 201.549681 281.291132 
L 201.87466 280.336185 
L 202.19964 280.336185 
L 202.524619 281.291132 
L 202.849599 281.609448 
L 203.174578 281.291132 
L 203.499558 280.654501 
L 203.824537 280.336185 
L 204.149517 280.654501 
L 204.474496 281.291132 
L 204.799476 281.609448 
L 205.449435 280.336185 
L 205.774414 280.336185 
L 206.099394 280.972816 
L 206.424373 281.291132 
L 207.074333 281.291132 
L 207.399312 280.654501 
L 207.724292 280.654501 
L 208.049271 281.291132 
L 208.374251 281.291132 
L 209.02421 280.654501 
L 209.349189 280.654501 
L 209.674169 280.972816 
L 209.999148 281.609448 
L 210.324128 281.291132 
L 210.649107 281.291132 
L 210.974087 280.654501 
L 211.624046 280.654501 
L 211.949025 280.972816 
L 212.274005 280.972816 
L 212.598984 280.654501 
L 213.898903 280.654501 
L 214.223882 280.972816 
L 214.548862 280.972816 
L 214.873841 280.336185 
L 215.84878 281.291132 
L 216.173759 280.654501 
L 216.498739 280.654501 
L 216.823718 280.972816 
L 217.148698 280.654501 
L 217.798657 281.291132 
L 218.448616 280.017869 
L 218.773595 280.336185 
L 219.098575 280.972816 
L 219.423554 281.291132 
L 219.748534 281.291132 
L 220.073514 280.336185 
L 220.398493 280.972816 
L 220.723473 280.654501 
L 221.048452 280.654501 
L 221.373432 280.972816 
L 222.023391 280.336185 
L 222.34837 280.336185 
L 222.67335 281.291132 
L 223.323309 281.291132 
L 223.648288 280.972816 
L 223.973268 280.972816 
L 224.298247 280.654501 
L 224.948206 281.291132 
L 225.273186 280.972816 
L 225.598165 280.972816 
L 225.923145 280.654501 
L 226.573104 281.291132 
L 226.898084 280.972816 
L 227.223063 280.972816 
L 227.548043 280.654501 
L 227.873022 281.291132 
L 228.198002 281.291132 
L 228.847961 280.654501 
L 229.17294 280.654501 
L 229.822899 281.291132 
L 230.147879 280.972816 
L 231.122817 280.972816 
L 231.447797 280.654501 
L 232.747715 280.654501 
L 233.072695 280.972816 
L 233.397674 280.972816 
L 233.722654 280.654501 
L 234.047633 280.654501 
L 234.372613 280.972816 
L 234.697592 280.972816 
L 235.022572 281.291132 
L 235.672531 281.291132 
L 235.99751 280.972816 
L 236.32249 280.972816 
L 236.647469 281.609448 
L 236.972449 281.291132 
L 237.297428 281.291132 
L 237.622408 280.972816 
L 237.947387 280.972816 
L 238.272367 281.291132 
L 238.597346 281.291132 
L 238.922326 280.972816 
L 239.572285 280.972816 
L 239.897265 281.609448 
L 240.872203 280.654501 
L 241.197183 281.291132 
L 241.522162 280.972816 
L 241.847142 281.291132 
L 242.172121 281.291132 
L 242.497101 280.972816 
L 242.82208 281.291132 
L 243.14706 280.654501 
L 243.472039 280.972816 
L 243.797019 280.654501 
L 244.121998 280.972816 
L 244.446978 281.609448 
L 245.096937 281.609448 
L 245.421916 281.291132 
L 245.746896 281.291132 
L 246.071876 280.972816 
L 246.396855 280.972816 
L 246.721835 280.654501 
L 247.371794 280.654501 
L 247.696773 280.972816 
L 248.021753 280.972816 
L 248.346732 281.291132 
L 248.671712 281.927764 
L 248.996691 281.609448 
L 249.321671 280.972816 
L 249.64665 279.699553 
L 250.946568 271.423341 
L 251.921507 265.057024 
L 252.571466 262.828813 
L 252.896446 262.192182 
L 253.546405 259.963971 
L 253.871384 259.645655 
L 254.196364 259.009023 
L 254.521343 258.690707 
L 254.846323 258.054076 
L 255.171302 258.054076 
L 255.496282 257.417444 
L 256.146241 257.417444 
L 256.47122 257.73576 
L 256.7962 257.73576 
L 257.121179 257.417444 
L 257.446159 258.054076 
L 258.096118 259.645655 
L 258.746077 259.645655 
L 259.396036 260.918918 
L 259.721016 261.237234 
L 260.045995 260.918918 
L 260.370975 260.918918 
L 260.695954 261.237234 
L 261.020934 261.237234 
L 261.345913 261.55555 
L 261.670893 261.55555 
L 261.995872 261.873866 
L 262.320852 261.55555 
L 262.645831 261.55555 
L 262.970811 261.873866 
L 263.29579 261.237234 
L 263.62077 261.237234 
L 263.945749 260.282287 
L 264.595708 260.282287 
L 264.920688 260.600603 
L 265.245667 260.282287 
L 265.895627 260.282287 
L 266.220606 260.918918 
L 266.545586 260.918918 
L 267.520524 259.963971 
L 267.845504 260.282287 
L 268.495463 260.282287 
L 268.820442 260.600603 
L 269.145422 259.963971 
L 269.470401 260.282287 
L 269.795381 259.963971 
L 270.12036 260.282287 
L 270.44534 260.282287 
L 270.770319 260.600603 
L 271.095299 260.600603 
L 271.420278 260.282287 
L 271.745258 260.600603 
L 272.395217 260.600603 
L 272.720197 260.282287 
L 273.045176 260.282287 
L 273.370156 260.918918 
L 274.020115 260.918918 
L 274.345094 260.600603 
L 274.995053 260.600603 
L 275.320033 260.918918 
L 275.645012 260.600603 
L 275.969992 260.600603 
L 276.294971 260.282287 
L 276.619951 260.282287 
L 276.94493 260.600603 
L 277.594889 260.600603 
L 277.919869 260.282287 
L 278.244848 260.918918 
L 278.569828 261.237234 
L 278.894808 262.828813 
L 279.219787 265.37534 
L 279.869746 268.558499 
L 280.194726 269.513446 
L 280.844685 276.198079 
L 281.494644 284.792606 
L 282.144603 289.249028 
L 282.469582 289.249028 
L 282.794562 289.88566 
L 283.119541 289.249028 
L 283.444521 289.249028 
L 283.7695 288.294081 
L 284.09448 286.384186 
L 285.069419 278.744605 
L 285.394398 278.107974 
L 285.719378 278.107974 
L 286.044357 277.789658 
L 286.369337 276.83471 
L 286.694316 275.243131 
L 287.019296 276.198079 
L 287.669255 280.017869 
L 287.994234 280.972816 
L 288.644193 279.699553 
L 288.969173 280.336185 
L 289.619132 283.837659 
L 289.944111 283.837659 
L 290.59407 281.291132 
L 290.91905 281.291132 
L 291.569009 282.882711 
L 291.893989 281.609448 
L 292.218968 279.699553 
L 292.543948 279.699553 
L 293.193907 280.972816 
L 293.518886 280.972816 
L 294.168845 279.062921 
L 294.493825 279.699553 
L 294.818804 281.291132 
L 295.143784 281.609448 
L 295.468763 281.291132 
L 295.793743 280.017869 
L 296.118722 279.699553 
L 296.443702 280.654501 
L 296.768681 282.24608 
L 297.093661 282.24608 
L 297.74362 280.972816 
L 298.0686 280.972816 
L 298.393579 281.609448 
L 299.043538 280.972816 
L 299.368518 280.336185 
L 300.018477 280.972816 
L 300.343456 280.972816 
L 300.668436 281.291132 
L 300.993415 280.654501 
L 301.643374 280.654501 
L 301.968354 280.972816 
L 302.293333 280.972816 
L 302.618313 280.654501 
L 302.943292 280.972816 
L 303.268272 280.336185 
L 303.593251 280.972816 
L 303.918231 280.972816 
L 304.24321 281.291132 
L 304.56819 281.291132 
L 305.218149 280.654501 
L 305.868108 281.291132 
L 306.518067 281.291132 
L 306.843047 280.654501 
L 307.493006 280.654501 
L 308.142965 281.291132 
L 308.467944 280.654501 
L 308.792924 280.654501 
L 309.117903 280.336185 
L 309.442883 280.972816 
L 309.767862 280.972816 
L 310.092842 280.654501 
L 310.742801 280.654501 
L 311.067781 280.972816 
L 311.39276 280.654501 
L 311.71774 280.972816 
L 312.042719 280.654501 
L 312.692678 280.654501 
L 313.017658 280.972816 
L 313.342637 280.972816 
L 313.667617 280.336185 
L 313.992596 280.336185 
L 314.317576 280.017869 
L 314.642555 280.336185 
L 314.967535 280.336185 
L 315.292514 280.972816 
L 315.617494 280.972816 
L 315.942473 280.654501 
L 316.267453 280.972816 
L 316.592432 280.654501 
L 316.917412 280.972816 
L 317.242391 280.654501 
L 317.567371 280.972816 
L 317.892351 280.654501 
L 318.867289 280.654501 
L 319.192269 281.291132 
L 319.517248 280.654501 
L 319.842228 280.654501 
L 320.167207 280.972816 
L 320.492187 280.336185 
L 320.817166 280.654501 
L 321.142146 280.336185 
L 321.467125 280.336185 
L 321.792105 280.654501 
L 322.767043 280.654501 
L 323.092023 280.336185 
L 323.417002 280.972816 
L 323.741982 281.291132 
L 324.066962 280.654501 
L 324.716921 280.654501 
L 325.0419 281.291132 
L 325.36688 281.291132 
L 325.691859 280.972816 
L 326.016839 280.972816 
L 326.341818 280.654501 
L 326.991777 281.291132 
L 327.641736 281.291132 
L 327.966716 280.972816 
L 328.941654 280.972816 
L 329.266634 280.336185 
L 329.591613 280.972816 
L 329.916593 280.972816 
L 330.241572 281.291132 
L 330.566552 281.291132 
L 330.891532 280.972816 
L 331.216511 281.291132 
L 331.541491 280.654501 
L 331.86647 280.972816 
L 332.19145 280.972816 
L 332.516429 281.291132 
L 332.841409 281.291132 
L 333.166388 280.972816 
L 333.816347 280.972816 
L 334.141327 281.291132 
L 334.466306 281.291132 
L 334.791286 280.972816 
L 335.116265 280.972816 
L 335.441245 281.291132 
L 335.766224 281.291132 
L 336.091204 280.972816 
L 336.416183 280.972816 
L 336.741163 280.654501 
L 337.066143 281.291132 
L 337.391122 280.972816 
L 338.041081 280.972816 
L 338.366061 281.609448 
L 338.69104 281.609448 
L 339.340999 280.972816 
L 339.665979 280.972816 
L 339.990958 281.609448 
L 340.965897 281.609448 
L 341.290876 281.291132 
L 341.615856 281.291132 
L 341.940835 280.654501 
L 342.265815 281.291132 
L 342.590794 280.972816 
L 342.915774 280.972816 
L 343.240753 280.654501 
L 343.565733 280.654501 
L 343.890713 280.972816 
L 344.215692 281.927764 
L 344.540672 282.24608 
L 344.865651 281.609448 
L 345.190631 281.291132 
L 345.84059 278.42629 
L 347.790467 265.37534 
L 348.115446 263.783761 
L 349.415364 260.282287 
L 349.740344 259.645655 
L 350.065324 259.645655 
L 350.390303 259.327339 
L 350.715283 258.054076 
L 351.040262 257.73576 
L 351.690221 257.73576 
L 352.015201 257.099128 
L 352.34018 257.099128 
L 352.66516 257.73576 
L 352.990139 258.054076 
L 353.315119 258.690707 
L 353.640098 259.009023 
L 353.965078 259.645655 
L 354.290057 259.963971 
L 354.615037 259.963971 
L 355.264996 260.600603 
L 355.589975 261.237234 
L 355.914955 260.918918 
L 356.564914 261.55555 
L 357.214873 261.55555 
L 357.539853 261.237234 
L 358.189812 261.237234 
L 358.514791 261.873866 
L 359.16475 261.237234 
L 359.48973 260.600603 
L 359.814709 260.282287 
L 360.139689 260.282287 
L 360.789648 260.918918 
L 361.439607 260.282287 
L 361.764586 260.600603 
L 363.064505 260.600603 
L 363.389484 260.282287 
L 363.714464 260.600603 
L 364.039443 260.282287 
L 364.689402 260.282287 
L 365.014382 259.645655 
L 365.98932 260.600603 
L 366.3143 260.282287 
L 366.964259 260.918918 
L 367.289238 260.918918 
L 367.939197 260.282287 
L 368.914136 260.282287 
L 369.239115 260.600603 
L 369.564095 260.600603 
L 369.889075 260.918918 
L 370.214054 260.600603 
L 370.539034 260.600603 
L 370.864013 260.282287 
L 371.188993 260.600603 
L 371.513972 260.282287 
L 372.81389 260.282287 
L 373.13887 259.963971 
L 373.463849 260.600603 
L 373.788829 260.600603 
L 374.438788 261.237234 
L 374.763767 262.828813 
L 375.413726 266.966919 
L 376.063686 269.19513 
L 376.713645 276.198079 
L 377.363604 284.792606 
L 378.013563 288.930712 
L 378.338542 288.930712 
L 378.663522 289.567344 
L 378.988501 289.249028 
L 379.63846 287.975765 
L 379.96344 286.384186 
L 380.938378 278.107974 
L 381.263358 277.789658 
L 381.588337 278.42629 
L 381.913317 278.107974 
L 382.563276 275.879763 
L 382.888256 275.879763 
L 383.538215 280.017869 
L 383.863194 280.654501 
L 384.188174 279.699553 
L 384.513153 279.381237 
L 384.838133 280.336185 
L 385.163112 282.564396 
L 385.488092 283.837659 
L 385.813071 283.837659 
L 386.46303 280.336185 
L 386.78801 280.654501 
L 387.112989 282.24608 
L 387.437969 282.882711 
L 387.762948 281.609448 
L 388.087928 279.699553 
L 388.412907 279.062921 
L 388.737887 279.699553 
L 389.062867 281.291132 
L 389.387846 281.291132 
L 389.712826 279.699553 
L 390.037805 278.744605 
L 390.687764 280.972816 
L 391.012744 281.927764 
L 391.337723 281.291132 
L 391.662703 280.017869 
L 391.987682 280.017869 
L 392.312662 280.654501 
L 392.637641 281.927764 
L 392.962621 282.24608 
L 393.2876 281.291132 
L 393.937559 280.654501 
L 394.262539 281.291132 
L 394.587518 281.291132 
L 394.912498 280.654501 
L 395.237477 280.972816 
L 395.562457 280.654501 
L 395.887437 281.291132 
L 396.212416 281.609448 
L 396.537396 281.291132 
L 396.862375 280.654501 
L 397.512334 280.017869 
L 398.162293 281.291132 
L 398.487273 280.972816 
L 398.487273 280.972816 
" clip-path="url(#p633d5a3466)" style="fill: none; stroke: #1f77b4; stroke-width: 1.5; stroke-linecap: square"/>
   </g>
   <g id="line2d_14">
    <path d="M 73.832727 280.654501 
L 74.157707 280.654501 
L 74.482686 280.336185 
L 74.807666 280.336185 
L 75.132645 280.654501 
L 75.457625 280.654501 
L 76.107584 281.291132 
L 76.432563 280.654501 
L 77.407502 280.654501 
L 77.732482 280.972816 
L 78.057461 280.972816 
L 78.382441 280.654501 
L 78.70742 280.654501 
L 79.0324 280.972816 
L 79.357379 280.972816 
L 80.007338 280.336185 
L 80.332318 280.972816 
L 80.657297 280.654501 
L 81.307256 280.654501 
L 81.632236 280.972816 
L 81.957215 280.972816 
L 82.282195 280.654501 
L 82.932154 280.654501 
L 83.257133 280.972816 
L 83.582113 280.654501 
L 84.882031 280.654501 
L 85.207011 280.972816 
L 85.53199 280.972816 
L 85.85697 280.336185 
L 86.181949 280.654501 
L 87.481867 280.654501 
L 87.806847 280.972816 
L 88.131826 280.972816 
L 88.456806 281.291132 
L 88.781785 280.654501 
L 89.431744 280.654501 
L 89.756724 280.972816 
L 90.731663 280.972816 
L 91.056642 280.654501 
L 92.031581 280.654501 
L 92.35656 280.972816 
L 92.68154 280.972816 
L 93.006519 280.336185 
L 93.331499 280.972816 
L 93.656478 280.654501 
L 93.981458 280.972816 
L 94.306437 280.336185 
L 94.631417 280.336185 
L 94.956396 280.654501 
L 95.931335 280.654501 
L 96.256314 280.972816 
L 96.581294 280.972816 
L 97.231253 280.336185 
L 97.556233 280.972816 
L 98.531171 280.972816 
L 98.856151 281.291132 
L 99.18113 280.654501 
L 99.50611 280.654501 
L 99.831089 281.291132 
L 100.156069 281.609448 
L 100.481048 281.291132 
L 100.806028 281.291132 
L 101.131007 280.972816 
L 101.455987 280.972816 
L 102.105946 281.609448 
L 102.430925 280.654501 
L 102.755905 280.654501 
L 103.080885 280.336185 
L 103.405864 280.654501 
L 104.055823 280.654501 
L 104.380803 280.336185 
L 104.705782 280.654501 
L 105.030762 281.291132 
L 105.355741 281.609448 
L 105.680721 280.972816 
L 106.0057 280.972816 
L 106.33068 280.336185 
L 106.655659 279.062921 
L 107.305618 273.969868 
L 108.280557 266.966919 
L 108.605536 265.057024 
L 110.230434 260.600603 
L 110.555414 260.600603 
L 111.530352 258.690707 
L 111.855332 257.73576 
L 112.180311 257.417444 
L 112.505291 257.417444 
L 113.15525 256.780812 
L 113.480229 256.780812 
L 113.805209 257.099128 
L 114.455168 258.690707 
L 114.780147 258.690707 
L 115.105127 259.009023 
L 115.755086 260.282287 
L 116.080066 259.963971 
L 116.405045 259.963971 
L 117.379984 260.918918 
L 118.029943 260.918918 
L 118.354922 261.55555 
L 118.679902 261.873866 
L 119.329861 261.873866 
L 119.97982 261.237234 
L 120.954758 261.237234 
L 121.604717 260.600603 
L 122.904636 260.600603 
L 123.229615 259.963971 
L 123.554595 259.963971 
L 124.204554 259.327339 
L 124.854513 259.963971 
L 125.179492 259.645655 
L 125.504472 259.963971 
L 125.829451 260.600603 
L 126.154431 260.600603 
L 126.47941 259.963971 
L 126.80439 259.963971 
L 127.129369 260.282287 
L 127.779328 260.282287 
L 128.104308 260.600603 
L 128.754267 259.963971 
L 129.079247 260.282287 
L 130.704144 260.282287 
L 131.029124 260.918918 
L 131.354103 260.918918 
L 131.679083 259.963971 
L 132.329042 259.963971 
L 132.979001 260.600603 
L 133.30398 260.600603 
L 133.62896 260.282287 
L 134.278919 260.282287 
L 134.928878 260.918918 
L 135.578837 263.783761 
L 136.553776 268.558499 
L 137.203735 273.651552 
L 138.503653 288.930712 
L 138.828632 289.88566 
L 139.153612 290.203976 
L 139.803571 291.477239 
L 140.12855 291.477239 
L 140.45353 290.522292 
L 141.753448 278.744605 
L 142.403407 277.471342 
L 143.378346 274.6065 
L 143.703325 274.6065 
L 144.028305 275.561447 
L 144.353284 277.153026 
L 144.678264 277.789658 
L 145.003243 277.789658 
L 145.328223 278.42629 
L 145.653202 280.017869 
L 146.303161 283.837659 
L 146.628141 283.837659 
L 146.95312 282.24608 
L 147.2781 281.291132 
L 147.603079 281.927764 
L 147.928059 283.837659 
L 148.253038 284.155975 
L 149.227977 279.699553 
L 149.552957 280.336185 
L 149.877936 281.291132 
L 150.202916 280.972816 
L 150.852875 278.744605 
L 151.177854 279.062921 
L 151.502834 280.654501 
L 151.827813 280.654501 
L 152.477772 278.744605 
L 152.802752 279.062921 
L 153.452711 282.24608 
L 153.77769 282.564396 
L 154.427649 280.017869 
L 154.752629 280.654501 
L 155.077609 281.927764 
L 155.402588 282.24608 
L 155.727568 282.24608 
L 156.052547 280.654501 
L 156.377527 280.017869 
L 156.702506 280.336185 
L 157.027486 281.291132 
L 157.352465 281.291132 
L 157.677445 280.336185 
L 158.002424 280.017869 
L 158.327404 280.017869 
L 158.977363 281.609448 
L 159.302342 281.291132 
L 159.952301 279.699553 
L 160.60226 280.972816 
L 160.92724 281.927764 
L 161.252219 281.609448 
L 161.577199 280.336185 
L 161.902179 280.017869 
L 162.227158 280.972816 
L 162.552138 281.291132 
L 162.877117 281.291132 
L 163.202097 280.654501 
L 163.527076 280.654501 
L 163.852056 280.972816 
L 164.502015 280.972816 
L 164.826994 280.336185 
L 165.151974 280.017869 
L 165.476953 280.017869 
L 166.126912 281.291132 
L 166.451892 281.609448 
L 167.101851 279.699553 
L 167.42683 280.017869 
L 168.07679 281.291132 
L 168.726749 281.291132 
L 169.051728 280.654501 
L 169.376708 280.972816 
L 170.026667 280.336185 
L 170.351646 280.972816 
L 171.001605 280.336185 
L 171.326585 280.972816 
L 171.976544 280.972816 
L 172.301523 280.336185 
L 172.626503 280.336185 
L 173.276462 280.972816 
L 173.926421 280.972816 
L 174.2514 280.654501 
L 174.57638 280.654501 
L 174.90136 280.336185 
L 175.226339 280.654501 
L 175.551319 280.654501 
L 175.876298 281.291132 
L 176.201278 280.972816 
L 176.851237 280.972816 
L 177.176216 280.654501 
L 178.151155 280.654501 
L 178.476134 280.972816 
L 179.126093 280.972816 
L 179.451073 280.654501 
L 180.426011 280.654501 
L 180.750991 280.972816 
L 181.075971 280.654501 
L 181.40095 280.654501 
L 181.72593 280.972816 
L 182.050909 280.972816 
L 182.375889 280.654501 
L 182.700868 280.654501 
L 183.025848 280.336185 
L 183.350827 280.972816 
L 183.675807 281.291132 
L 184.000786 281.291132 
L 184.325766 280.972816 
L 184.650745 280.972816 
L 184.975725 280.336185 
L 185.300704 280.654501 
L 186.275643 280.654501 
L 186.600622 280.336185 
L 186.925602 280.654501 
L 187.250581 280.336185 
L 187.575561 280.336185 
L 187.900541 280.654501 
L 188.5505 280.654501 
L 188.875479 280.972816 
L 189.200459 280.336185 
L 189.850418 280.972816 
L 190.175397 280.972816 
L 190.825356 280.336185 
L 191.150336 280.654501 
L 191.800295 280.654501 
L 192.125274 281.291132 
L 192.775233 280.654501 
L 193.425192 280.654501 
L 194.075152 281.291132 
L 194.400131 281.291132 
L 195.05009 280.654501 
L 195.37507 280.654501 
L 195.700049 280.972816 
L 196.999967 280.972816 
L 197.324947 281.291132 
L 197.649926 281.291132 
L 197.974906 280.972816 
L 198.299885 280.972816 
L 198.624865 280.654501 
L 199.599803 280.654501 
L 199.924783 280.336185 
L 200.574742 280.972816 
L 200.899722 280.972816 
L 201.224701 281.291132 
L 201.87466 281.291132 
L 202.524619 278.744605 
L 203.174578 274.288184 
L 204.149517 266.648604 
L 204.474496 265.057024 
L 204.799476 264.420393 
L 205.449435 262.192182 
L 205.774414 260.918918 
L 206.099394 260.282287 
L 206.749353 259.645655 
L 207.074333 259.009023 
L 207.399312 258.054076 
L 207.724292 257.73576 
L 208.374251 256.462497 
L 208.69923 256.780812 
L 209.02421 256.780812 
L 209.349189 257.417444 
L 209.674169 257.417444 
L 210.324128 258.690707 
L 211.624046 259.963971 
L 211.949025 259.963971 
L 212.274005 259.645655 
L 212.598984 259.645655 
L 213.248943 261.237234 
L 213.573923 261.55555 
L 213.898903 261.237234 
L 214.223882 261.55555 
L 214.548862 262.192182 
L 215.5238 261.237234 
L 215.84878 261.237234 
L 216.173759 260.918918 
L 216.498739 260.918918 
L 216.823718 260.600603 
L 217.148698 260.600603 
L 217.473677 260.282287 
L 217.798657 260.282287 
L 218.123636 260.918918 
L 218.448616 260.918918 
L 219.098575 260.282287 
L 219.748534 260.282287 
L 220.073514 259.963971 
L 220.398493 259.963971 
L 220.723473 259.645655 
L 221.048452 259.645655 
L 221.373432 260.282287 
L 221.698411 260.282287 
L 222.023391 260.600603 
L 222.34837 260.600603 
L 222.67335 260.282287 
L 222.998329 259.645655 
L 223.648288 260.282287 
L 223.973268 259.963971 
L 224.623227 260.600603 
L 225.273186 259.963971 
L 225.923145 259.963971 
L 226.248124 260.282287 
L 226.573104 260.282287 
L 226.898084 260.918918 
L 227.223063 260.600603 
L 227.548043 260.600603 
L 227.873022 260.282287 
L 228.522981 260.282287 
L 228.847961 260.600603 
L 229.17294 260.282287 
L 229.49792 260.282287 
L 229.822899 260.918918 
L 230.147879 260.600603 
L 230.797838 261.237234 
L 231.447797 264.102077 
L 232.747715 270.786709 
L 233.072695 273.651552 
L 234.047633 286.06587 
L 234.372613 288.612397 
L 234.697592 290.203976 
L 235.347551 291.477239 
L 235.672531 291.477239 
L 235.99751 291.795555 
L 236.32249 290.522292 
L 236.972449 284.155975 
L 237.297428 280.654501 
L 237.622408 278.744605 
L 237.947387 278.107974 
L 238.272367 277.789658 
L 239.247305 274.6065 
L 239.572285 274.6065 
L 240.547224 278.107974 
L 240.872203 278.107974 
L 241.197183 278.42629 
L 242.172121 284.155975 
L 242.497101 284.155975 
L 242.82208 281.927764 
L 243.14706 281.609448 
L 243.472039 282.24608 
L 243.797019 284.155975 
L 244.121998 284.792606 
L 244.446978 283.201027 
L 244.771957 280.972816 
L 245.096937 279.699553 
L 245.746896 280.972816 
L 246.071876 280.654501 
L 246.721835 278.744605 
L 247.046814 279.062921 
L 247.371794 280.017869 
L 247.696773 280.336185 
L 248.346732 278.744605 
L 248.671712 279.062921 
L 249.321671 281.927764 
L 249.64665 282.24608 
L 250.296609 280.017869 
L 250.621589 280.654501 
L 250.946568 281.609448 
L 251.271548 281.927764 
L 251.596527 281.927764 
L 252.246486 280.336185 
L 252.571466 280.972816 
L 252.896446 281.291132 
L 253.221425 281.291132 
L 253.871384 280.017869 
L 254.196364 280.336185 
L 254.846323 281.927764 
L 255.496282 279.699553 
L 255.821261 279.699553 
L 256.146241 280.336185 
L 256.47122 281.291132 
L 256.7962 281.609448 
L 257.121179 281.609448 
L 257.771138 280.336185 
L 258.746077 281.291132 
L 259.396036 280.017869 
L 259.721016 280.654501 
L 260.045995 281.609448 
L 260.370975 280.972816 
L 261.020934 280.336185 
L 261.670893 280.336185 
L 261.995872 281.291132 
L 262.645831 281.291132 
L 262.970811 280.336185 
L 263.62077 280.336185 
L 263.945749 280.654501 
L 265.245667 280.654501 
L 265.895627 281.291132 
L 266.545586 280.654501 
L 267.195545 280.654501 
L 267.520524 281.291132 
L 267.845504 280.972816 
L 268.170483 280.972816 
L 268.495463 280.336185 
L 268.820442 280.654501 
L 269.145422 281.291132 
L 269.470401 281.291132 
L 269.795381 280.654501 
L 270.44534 280.654501 
L 270.770319 280.972816 
L 272.720197 280.972816 
L 273.045176 280.654501 
L 273.370156 280.972816 
L 274.020115 280.336185 
L 274.345094 280.654501 
L 274.670074 280.654501 
L 274.995053 280.972816 
L 275.320033 280.972816 
L 275.645012 281.291132 
L 276.619951 280.336185 
L 276.94493 280.654501 
L 277.594889 280.654501 
L 277.919869 280.972816 
L 278.569828 280.336185 
L 278.894808 280.336185 
L 279.544767 280.972816 
L 280.194726 280.336185 
L 280.519705 280.654501 
L 280.844685 280.654501 
L 281.169664 280.336185 
L 281.494644 280.336185 
L 282.144603 280.972816 
L 282.794562 280.336185 
L 283.119541 280.654501 
L 283.444521 280.654501 
L 283.7695 280.972816 
L 284.09448 280.972816 
L 284.419459 280.654501 
L 285.394398 280.654501 
L 286.044357 281.291132 
L 286.369337 280.654501 
L 286.694316 280.336185 
L 287.019296 280.336185 
L 287.344275 280.972816 
L 288.644193 280.972816 
L 288.969173 280.654501 
L 289.294152 280.972816 
L 290.269091 280.972816 
L 290.59407 280.654501 
L 291.244029 281.291132 
L 291.569009 280.972816 
L 292.218968 281.609448 
L 293.193907 280.654501 
L 293.518886 281.291132 
L 293.843866 281.291132 
L 294.493825 280.654501 
L 294.818804 280.972816 
L 295.143784 280.972816 
L 295.468763 281.291132 
L 295.793743 280.972816 
L 296.118722 281.291132 
L 296.768681 281.291132 
L 297.093661 281.609448 
L 297.41864 281.609448 
L 297.74362 280.972816 
L 298.393579 278.744605 
L 298.718559 276.83471 
L 300.018477 266.330288 
L 300.993415 262.828813 
L 301.318395 262.510498 
L 301.643374 261.873866 
L 301.968354 260.282287 
L 302.293333 259.645655 
L 302.618313 259.645655 
L 302.943292 259.009023 
L 303.268272 258.690707 
L 303.593251 257.73576 
L 304.24321 257.099128 
L 304.89317 257.099128 
L 305.218149 256.462497 
L 305.868108 257.73576 
L 306.193088 258.054076 
L 306.843047 259.327339 
L 307.168026 259.327339 
L 307.493006 259.645655 
L 307.817985 259.645655 
L 308.467944 260.282287 
L 308.792924 260.282287 
L 309.117903 260.918918 
L 309.442883 261.237234 
L 310.092842 261.237234 
L 310.417821 260.918918 
L 310.742801 261.55555 
L 311.067781 261.55555 
L 311.39276 260.918918 
L 312.042719 260.918918 
L 312.367699 261.237234 
L 312.692678 261.237234 
L 313.342637 260.600603 
L 314.642555 260.600603 
L 314.967535 260.282287 
L 315.292514 260.600603 
L 315.617494 259.963971 
L 315.942473 259.963971 
L 316.592432 259.327339 
L 317.242391 259.963971 
L 317.567371 259.645655 
L 317.892351 259.963971 
L 318.21733 259.963971 
L 318.54231 260.282287 
L 318.867289 259.963971 
L 319.192269 260.282287 
L 319.517248 259.963971 
L 319.842228 259.963971 
L 320.167207 260.282287 
L 320.492187 259.963971 
L 321.142146 259.963971 
L 321.792105 260.600603 
L 322.117084 260.600603 
L 322.442064 260.282287 
L 323.741982 260.282287 
L 324.066962 260.600603 
L 324.391941 260.282287 
L 324.716921 260.600603 
L 325.0419 260.282287 
L 325.36688 260.600603 
L 325.691859 260.600603 
L 326.016839 260.282287 
L 326.666798 260.282287 
L 328.616675 270.150078 
L 329.266634 277.153026 
L 329.916593 286.384186 
L 330.241572 288.930712 
L 330.566552 290.203976 
L 331.541491 292.113871 
L 331.86647 291.795555 
L 332.19145 290.203976 
L 332.516429 287.657449 
L 333.166388 280.972816 
L 333.491368 279.062921 
L 333.816347 278.744605 
L 334.141327 278.107974 
L 334.466306 277.153026 
L 334.791286 275.561447 
L 335.116265 274.6065 
L 335.441245 274.924815 
L 336.091204 277.471342 
L 336.416183 278.107974 
L 337.066143 278.744605 
L 337.391122 280.336185 
L 337.716102 282.882711 
L 338.041081 284.155975 
L 338.366061 283.519343 
L 338.69104 281.927764 
L 339.01602 281.291132 
L 339.665979 283.837659 
L 339.990958 284.474291 
L 340.315938 283.519343 
L 340.640917 280.654501 
L 340.965897 279.381237 
L 341.290876 280.017869 
L 341.615856 280.972816 
L 341.940835 280.972816 
L 342.265815 279.381237 
L 342.590794 278.42629 
L 343.240753 280.336185 
L 343.565733 280.336185 
L 344.215692 279.062921 
L 344.540672 279.381237 
L 345.190631 282.24608 
L 345.51561 282.564396 
L 346.165569 280.336185 
L 346.490549 280.336185 
L 346.815528 281.609448 
L 347.140508 282.24608 
L 347.465487 281.927764 
L 347.790467 281.291132 
L 348.115446 280.972816 
L 348.440426 280.972816 
L 348.765405 281.609448 
L 349.090385 281.609448 
L 349.415364 280.972816 
L 349.740344 280.017869 
L 350.065324 280.336185 
L 350.390303 280.972816 
L 350.715283 281.291132 
L 351.040262 280.654501 
L 351.365242 279.699553 
L 351.690221 279.381237 
L 352.015201 280.017869 
L 352.66516 281.609448 
L 352.990139 280.654501 
L 353.640098 280.017869 
L 353.965078 280.017869 
L 354.290057 280.654501 
L 354.615037 280.654501 
L 354.940016 280.972816 
L 355.264996 280.336185 
L 355.914955 280.972816 
L 356.239934 280.972816 
L 356.564914 280.336185 
L 357.214873 279.699553 
L 357.539853 280.336185 
L 357.864832 281.291132 
L 359.16475 280.017869 
L 359.48973 280.336185 
L 359.814709 281.291132 
L 360.789648 280.336185 
L 361.114627 280.336185 
L 361.764586 280.972816 
L 362.414545 280.336185 
L 363.064505 280.972816 
L 363.714464 280.972816 
L 364.364423 280.336185 
L 365.339361 281.291132 
L 365.98932 280.017869 
L 366.964259 280.972816 
L 367.289238 280.972816 
L 367.614218 280.654501 
L 368.264177 280.654501 
L 368.589156 280.972816 
L 368.914136 280.654501 
L 369.239115 280.654501 
L 369.564095 280.017869 
L 370.214054 280.654501 
L 370.539034 281.291132 
L 370.864013 280.972816 
L 371.188993 280.972816 
L 371.513972 280.336185 
L 371.838952 280.017869 
L 372.163931 280.654501 
L 372.81389 280.654501 
L 373.13887 280.972816 
L 373.788829 280.336185 
L 374.113808 280.336185 
L 374.438788 280.654501 
L 374.763767 280.336185 
L 375.088747 280.336185 
L 375.738706 280.972816 
L 376.063686 280.654501 
L 376.388665 280.972816 
L 376.713645 280.654501 
L 377.038624 280.654501 
L 377.363604 280.336185 
L 377.688583 280.972816 
L 378.338542 280.972816 
L 378.663522 280.654501 
L 378.988501 280.654501 
L 379.313481 280.972816 
L 379.63846 280.654501 
L 379.96344 280.972816 
L 380.288419 280.972816 
L 380.613399 280.654501 
L 380.938378 280.654501 
L 381.588337 281.291132 
L 381.913317 281.291132 
L 382.563276 280.654501 
L 383.213235 280.654501 
L 383.863194 281.291132 
L 384.188174 280.972816 
L 384.838133 280.972816 
L 385.163112 280.654501 
L 385.488092 280.654501 
L 385.813071 281.291132 
L 386.138051 281.291132 
L 386.46303 280.654501 
L 386.78801 280.654501 
L 387.762948 281.609448 
L 388.087928 281.609448 
L 388.412907 280.972816 
L 388.737887 281.291132 
L 389.062867 281.291132 
L 389.387846 280.972816 
L 389.712826 281.291132 
L 390.037805 280.972816 
L 390.687764 280.972816 
L 391.012744 281.291132 
L 391.662703 280.654501 
L 391.987682 280.654501 
L 392.312662 281.291132 
L 392.637641 281.609448 
L 392.962621 282.24608 
L 393.937559 280.336185 
L 394.262539 278.744605 
L 395.237477 271.741657 
L 395.562457 268.558499 
L 396.212416 265.37534 
L 397.837314 260.918918 
L 398.487273 259.645655 
L 398.487273 259.645655 
" clip-path="url(#p633d5a3466)" style="fill: none; stroke: #ff7f0e; stroke-width: 1.5; stroke-linecap: square"/>
   </g>
   <g id="line2d_15">
    <path d="M 73.832727 287.848421 
L 74.157707 285.301895 
L 74.482686 285.301895 
L 74.807666 290.394947 
L 75.132645 292.941474 
L 75.457625 290.394947 
L 75.782604 285.301895 
L 76.107584 290.394947 
L 76.757543 290.394947 
L 77.082523 287.848421 
L 77.732482 287.848421 
L 78.057461 290.394947 
L 78.382441 287.848421 
L 78.70742 287.848421 
L 79.0324 285.301895 
L 79.357379 287.848421 
L 79.682359 282.755368 
L 80.332318 287.848421 
L 80.657297 287.848421 
L 80.982277 285.301895 
L 81.307256 287.848421 
L 81.632236 287.848421 
L 81.957215 290.394947 
L 82.282195 290.394947 
L 82.607174 287.848421 
L 83.257133 287.848421 
L 83.582113 285.301895 
L 83.907093 285.301895 
L 84.232072 287.848421 
L 84.557052 287.848421 
L 84.882031 285.301895 
L 85.207011 287.848421 
L 85.53199 292.941474 
L 85.85697 290.394947 
L 86.181949 285.301895 
L 86.831908 290.394947 
L 88.456806 290.394947 
L 88.781785 285.301895 
L 89.106765 282.755368 
L 89.431744 277.662316 
L 90.081704 254.743579 
L 90.406683 244.557474 
L 90.731663 229.278316 
L 91.056642 224.185263 
L 91.381622 229.278316 
L 91.706601 236.917895 
L 92.031581 229.278316 
L 93.006519 165.615158 
L 93.331499 168.161684 
L 93.656478 185.987368 
L 93.981458 193.626947 
L 94.306437 180.894316 
L 94.956396 122.324211 
L 95.281376 117.231158 
L 95.931335 150.336 
L 96.256314 147.789474 
L 96.581294 119.777684 
L 96.906274 101.952 
L 97.231253 99.405474 
L 97.556233 114.684632 
L 97.881212 119.777684 
L 98.531171 86.672842 
L 98.856151 81.579789 
L 99.50611 107.045053 
L 99.831089 107.045053 
L 100.481048 66.300632 
L 100.806028 71.393684 
L 101.455987 104.498526 
L 102.105946 81.579789 
L 102.430925 71.393684 
L 103.080885 91.765895 
L 103.405864 89.219368 
L 104.055823 79.033263 
L 104.380803 79.033263 
L 104.705782 91.765895 
L 105.030762 99.405474 
L 105.680721 84.126316 
L 106.0057 84.126316 
L 106.655659 101.952 
L 106.980639 99.405474 
L 107.305618 101.952 
L 107.630598 96.858947 
L 107.955577 99.405474 
L 108.280557 104.498526 
L 108.605536 104.498526 
L 108.930516 107.045053 
L 109.580475 107.045053 
L 109.905455 109.591579 
L 110.230434 114.684632 
L 110.555414 114.684632 
L 111.205373 109.591579 
L 111.530352 109.591579 
L 111.855332 117.231158 
L 112.180311 117.231158 
L 112.505291 119.777684 
L 112.83027 117.231158 
L 113.805209 117.231158 
L 114.130188 122.324211 
L 114.455168 122.324211 
L 114.780147 117.231158 
L 115.105127 117.231158 
L 115.430106 122.324211 
L 115.755086 119.777684 
L 116.080066 114.684632 
L 116.405045 117.231158 
L 116.730025 112.138105 
L 117.055004 114.684632 
L 117.379984 112.138105 
L 117.704963 117.231158 
L 118.679902 109.591579 
L 119.004881 104.498526 
L 119.65484 104.498526 
L 121.279738 91.765895 
L 121.604717 91.765895 
L 122.254676 86.672842 
L 122.579656 79.033263 
L 122.904636 89.219368 
L 123.229615 84.126316 
L 123.554595 81.579789 
L 124.204554 71.393684 
L 124.854513 71.393684 
L 125.179492 66.300632 
L 125.829451 66.300632 
L 126.47941 61.207579 
L 126.80439 63.754105 
L 127.454349 63.754105 
L 127.779328 56.114526 
L 128.104308 61.207579 
L 128.429287 61.207579 
L 128.754267 58.661053 
L 129.079247 58.661053 
L 129.729206 53.568 
L 130.054185 58.661053 
L 130.379165 56.114526 
L 130.704144 58.661053 
L 131.679083 58.661053 
L 132.004062 66.300632 
L 132.329042 63.754105 
L 132.654021 66.300632 
L 132.979001 63.754105 
L 133.30398 71.393684 
L 134.278919 79.033263 
L 134.603898 79.033263 
L 134.928878 81.579789 
L 135.253857 91.765895 
L 135.578837 89.219368 
L 135.903817 94.312421 
L 136.228796 104.498526 
L 136.553776 104.498526 
L 136.878755 107.045053 
L 137.203735 112.138105 
L 137.528714 114.684632 
L 137.853694 122.324211 
L 138.178673 122.324211 
L 138.503653 129.963789 
L 138.828632 132.510316 
L 139.153612 140.149895 
L 139.478591 142.696421 
L 140.45353 163.068632 
L 140.778509 163.068632 
L 141.103489 168.161684 
L 141.753448 183.440842 
L 142.078428 185.987368 
L 142.403407 191.080421 
L 143.053366 208.906105 
L 143.378346 206.359579 
L 143.703325 213.999158 
L 144.353284 219.092211 
L 145.003243 231.824842 
L 145.328223 236.917895 
L 145.653202 244.557474 
L 145.978182 242.010947 
L 146.628141 252.197053 
L 147.2781 257.290105 
L 147.603079 262.383158 
L 148.253038 267.476211 
L 148.578018 267.476211 
L 148.902998 272.569263 
L 149.227977 272.569263 
L 149.552957 275.115789 
L 150.202916 275.115789 
L 150.527895 280.208842 
L 150.852875 282.755368 
L 151.177854 280.208842 
L 152.152793 287.848421 
L 152.477772 285.301895 
L 152.802752 285.301895 
L 153.452711 290.394947 
L 153.77769 285.301895 
L 154.10267 290.394947 
L 154.427649 287.848421 
L 154.752629 287.848421 
L 155.077609 280.208842 
L 155.402588 282.755368 
L 155.727568 282.755368 
L 156.052547 285.301895 
L 156.702506 280.208842 
L 157.027486 282.755368 
L 157.677445 282.755368 
L 158.652383 290.394947 
L 158.977363 285.301895 
L 159.302342 287.848421 
L 159.627322 287.848421 
L 159.952301 290.394947 
L 160.277281 285.301895 
L 160.60226 285.301895 
L 161.252219 290.394947 
L 161.577199 285.301895 
L 161.902179 282.755368 
L 162.227158 285.301895 
L 162.552138 285.301895 
L 162.877117 280.208842 
L 163.202097 285.301895 
L 163.527076 282.755368 
L 163.852056 287.848421 
L 164.177035 282.755368 
L 164.502015 287.848421 
L 165.476953 287.848421 
L 165.801933 290.394947 
L 166.126912 287.848421 
L 166.451892 290.394947 
L 166.776871 285.301895 
L 167.101851 285.301895 
L 167.42683 287.848421 
L 167.75181 282.755368 
L 168.07679 282.755368 
L 168.401769 287.848421 
L 169.051728 287.848421 
L 169.376708 282.755368 
L 169.701687 285.301895 
L 170.026667 282.755368 
L 170.351646 285.301895 
L 170.676626 290.394947 
L 171.001605 290.394947 
L 171.326585 285.301895 
L 171.651564 287.848421 
L 171.976544 285.301895 
L 172.301523 287.848421 
L 172.626503 287.848421 
L 172.951482 285.301895 
L 173.276462 285.301895 
L 173.601441 290.394947 
L 173.926421 287.848421 
L 174.2514 290.394947 
L 174.57638 285.301895 
L 174.90136 287.848421 
L 175.226339 282.755368 
L 175.876298 287.848421 
L 176.526257 287.848421 
L 176.851237 290.394947 
L 177.176216 285.301895 
L 177.501196 285.301895 
L 177.826175 290.394947 
L 178.151155 287.848421 
L 178.476134 287.848421 
L 178.801114 290.394947 
L 179.126093 287.848421 
L 179.451073 290.394947 
L 179.776052 287.848421 
L 180.101032 287.848421 
L 180.426011 285.301895 
L 180.750991 287.848421 
L 182.375889 287.848421 
L 182.700868 290.394947 
L 183.025848 287.848421 
L 183.350827 290.394947 
L 183.675807 285.301895 
L 184.000786 290.394947 
L 184.650745 290.394947 
L 184.975725 280.208842 
L 185.300704 277.662316 
L 185.950663 257.290105 
L 186.600622 226.731789 
L 186.925602 224.185263 
L 187.250581 231.824842 
L 187.575561 231.824842 
L 187.900541 226.731789 
L 188.875479 163.068632 
L 189.200459 168.161684 
L 189.850418 191.080421 
L 190.175397 175.801263 
L 190.825356 122.324211 
L 191.150336 119.777684 
L 191.800295 150.336 
L 192.125274 147.789474 
L 192.775233 96.858947 
L 193.100213 96.858947 
L 193.425192 109.591579 
L 193.750172 114.684632 
L 194.075152 104.498526 
L 194.400131 86.672842 
L 194.725111 84.126316 
L 195.37507 104.498526 
L 195.700049 104.498526 
L 196.350008 68.847158 
L 196.674988 73.940211 
L 197.324947 101.952 
L 197.649926 94.312421 
L 197.974906 79.033263 
L 198.299885 71.393684 
L 198.949844 86.672842 
L 199.274824 86.672842 
L 199.599803 84.126316 
L 199.924783 79.033263 
L 200.249762 84.126316 
L 200.899722 99.405474 
L 201.224701 94.312421 
L 201.549681 86.672842 
L 201.87466 86.672842 
L 202.19964 89.219368 
L 202.524619 99.405474 
L 202.849599 104.498526 
L 203.174578 99.405474 
L 203.499558 96.858947 
L 203.824537 96.858947 
L 204.149517 101.952 
L 204.474496 104.498526 
L 204.799476 109.591579 
L 205.124455 104.498526 
L 205.774414 109.591579 
L 206.099394 117.231158 
L 206.424373 117.231158 
L 206.749353 112.138105 
L 207.074333 109.591579 
L 207.399312 109.591579 
L 207.724292 114.684632 
L 208.049271 122.324211 
L 208.374251 119.777684 
L 208.69923 119.777684 
L 209.02421 117.231158 
L 209.349189 117.231158 
L 209.674169 114.684632 
L 209.999148 122.324211 
L 210.324128 119.777684 
L 210.649107 119.777684 
L 210.974087 117.231158 
L 211.299066 119.777684 
L 211.624046 117.231158 
L 211.949025 122.324211 
L 212.274005 119.777684 
L 212.598984 114.684632 
L 212.923964 112.138105 
L 213.248943 117.231158 
L 214.873841 104.498526 
L 215.198821 107.045053 
L 215.5238 104.498526 
L 215.84878 107.045053 
L 216.173759 99.405474 
L 216.498739 99.405474 
L 216.823718 94.312421 
L 217.148698 96.858947 
L 217.473677 94.312421 
L 217.798657 89.219368 
L 218.123636 86.672842 
L 218.448616 86.672842 
L 218.773595 84.126316 
L 219.423554 84.126316 
L 219.748534 79.033263 
L 220.073514 71.393684 
L 220.398493 71.393684 
L 220.723473 73.940211 
L 221.048452 73.940211 
L 221.373432 68.847158 
L 222.023391 68.847158 
L 222.34837 66.300632 
L 222.67335 66.300632 
L 222.998329 63.754105 
L 223.323309 58.661053 
L 223.648288 61.207579 
L 223.973268 56.114526 
L 224.623227 61.207579 
L 224.948206 58.661053 
L 225.273186 53.568 
L 225.598165 58.661053 
L 225.923145 58.661053 
L 226.248124 63.754105 
L 226.573104 58.661053 
L 226.898084 58.661053 
L 227.873022 66.300632 
L 228.198002 66.300632 
L 228.847961 71.393684 
L 229.17294 71.393684 
L 230.147879 79.033263 
L 230.472858 79.033263 
L 231.447797 94.312421 
L 231.772776 94.312421 
L 232.097756 99.405474 
L 232.422735 101.952 
L 232.747715 107.045053 
L 233.072695 114.684632 
L 233.397674 114.684632 
L 233.722654 119.777684 
L 234.047633 127.417263 
L 234.372613 127.417263 
L 235.022572 140.149895 
L 235.347551 142.696421 
L 236.32249 163.068632 
L 236.647469 168.161684 
L 236.972449 170.708211 
L 237.297428 180.894316 
L 237.947387 185.987368 
L 238.597346 196.173474 
L 238.922326 206.359579 
L 239.247305 211.452632 
L 239.572285 211.452632 
L 239.897265 216.545684 
L 240.222244 224.185263 
L 240.872203 229.278316 
L 241.522162 242.010947 
L 241.847142 247.104 
L 242.172121 242.010947 
L 242.497101 252.197053 
L 242.82208 252.197053 
L 243.14706 257.290105 
L 243.472039 259.836632 
L 243.797019 264.929684 
L 244.446978 270.022737 
L 244.771957 270.022737 
L 245.096937 275.115789 
L 246.071876 275.115789 
L 246.396855 280.208842 
L 247.046814 285.301895 
L 247.371794 280.208842 
L 247.696773 287.848421 
L 248.021753 285.301895 
L 248.346732 287.848421 
L 248.671712 285.301895 
L 248.996691 285.301895 
L 249.64665 290.394947 
L 249.97163 285.301895 
L 250.296609 285.301895 
L 250.621589 282.755368 
L 250.946568 285.301895 
L 251.271548 282.755368 
L 251.596527 285.301895 
L 252.246486 285.301895 
L 252.571466 277.662316 
L 252.896446 282.755368 
L 253.221425 282.755368 
L 253.546405 287.848421 
L 253.871384 287.848421 
L 254.196364 290.394947 
L 254.846323 290.394947 
L 255.171302 285.301895 
L 255.496282 287.848421 
L 255.821261 287.848421 
L 256.146241 285.301895 
L 256.47122 285.301895 
L 256.7962 290.394947 
L 257.121179 287.848421 
L 257.446159 287.848421 
L 257.771138 280.208842 
L 258.096118 282.755368 
L 258.421097 282.755368 
L 258.746077 285.301895 
L 259.071057 282.755368 
L 259.396036 285.301895 
L 259.721016 285.301895 
L 260.045995 287.848421 
L 260.370975 285.301895 
L 260.695954 285.301895 
L 261.020934 287.848421 
L 261.345913 285.301895 
L 261.670893 285.301895 
L 261.995872 287.848421 
L 262.320852 287.848421 
L 262.645831 290.394947 
L 262.970811 282.755368 
L 263.29579 287.848421 
L 263.945749 282.755368 
L 264.595708 282.755368 
L 265.245667 287.848421 
L 265.570647 282.755368 
L 265.895627 285.301895 
L 266.220606 285.301895 
L 266.545586 287.848421 
L 266.870565 285.301895 
L 267.195545 290.394947 
L 267.845504 290.394947 
L 268.170483 285.301895 
L 268.495463 287.848421 
L 268.820442 287.848421 
L 269.145422 290.394947 
L 269.470401 287.848421 
L 270.12036 287.848421 
L 270.770319 282.755368 
L 271.095299 285.301895 
L 272.070238 285.301895 
L 272.395217 287.848421 
L 272.720197 285.301895 
L 273.370156 285.301895 
L 273.695135 290.394947 
L 274.020115 287.848421 
L 275.320033 287.848421 
L 275.645012 290.394947 
L 275.969992 285.301895 
L 276.294971 285.301895 
L 276.619951 287.848421 
L 276.94493 285.301895 
L 277.594889 285.301895 
L 278.244848 290.394947 
L 278.569828 285.301895 
L 278.894808 287.848421 
L 279.869746 287.848421 
L 280.194726 290.394947 
L 280.519705 287.848421 
L 280.844685 282.755368 
L 281.169664 270.022737 
L 281.494644 264.929684 
L 281.819623 257.290105 
L 282.469582 224.185263 
L 282.794562 221.638737 
L 283.444521 239.464421 
L 283.7695 226.731789 
L 284.09448 208.906105 
L 284.419459 183.440842 
L 284.744439 168.161684 
L 285.069419 168.161684 
L 285.719378 193.626947 
L 286.044357 183.440842 
L 286.694316 122.324211 
L 287.019296 122.324211 
L 287.669255 150.336 
L 287.994234 145.242947 
L 288.319214 119.777684 
L 288.644193 104.498526 
L 288.969173 99.405474 
L 289.294152 117.231158 
L 289.619132 119.777684 
L 289.944111 107.045053 
L 290.269091 89.219368 
L 290.59407 84.126316 
L 291.244029 109.591579 
L 291.569009 101.952 
L 292.218968 68.847158 
L 292.543948 73.940211 
L 293.193907 99.405474 
L 293.843866 81.579789 
L 294.168845 71.393684 
L 294.818804 89.219368 
L 295.143784 89.219368 
L 295.793743 79.033263 
L 296.118722 84.126316 
L 296.443702 94.312421 
L 296.768681 96.858947 
L 297.41864 84.126316 
L 297.74362 84.126316 
L 298.0686 86.672842 
L 298.393579 101.952 
L 298.718559 104.498526 
L 299.043538 104.498526 
L 299.368518 96.858947 
L 300.018477 101.952 
L 300.343456 107.045053 
L 300.668436 107.045053 
L 300.993415 104.498526 
L 301.318395 107.045053 
L 301.643374 114.684632 
L 302.293333 114.684632 
L 302.618313 109.591579 
L 303.268272 109.591579 
L 303.918231 122.324211 
L 304.24321 119.777684 
L 304.56819 114.684632 
L 305.218149 114.684632 
L 305.543129 117.231158 
L 305.868108 122.324211 
L 306.193088 119.777684 
L 306.843047 119.777684 
L 307.168026 117.231158 
L 307.493006 119.777684 
L 308.142965 114.684632 
L 308.467944 109.591579 
L 309.442883 117.231158 
L 309.767862 112.138105 
L 310.092842 112.138105 
L 310.417821 107.045053 
L 311.067781 107.045053 
L 311.39276 104.498526 
L 312.042719 104.498526 
L 312.367699 99.405474 
L 312.692678 99.405474 
L 313.342637 94.312421 
L 313.667617 86.672842 
L 313.992596 89.219368 
L 314.317576 86.672842 
L 314.642555 89.219368 
L 314.967535 84.126316 
L 315.292514 84.126316 
L 315.617494 81.579789 
L 315.942473 76.486737 
L 316.267453 73.940211 
L 317.242391 73.940211 
L 317.567371 68.847158 
L 317.892351 66.300632 
L 318.21733 68.847158 
L 318.54231 66.300632 
L 318.867289 58.661053 
L 319.192269 61.207579 
L 319.517248 61.207579 
L 319.842228 63.754105 
L 320.167207 56.114526 
L 320.492187 61.207579 
L 320.817166 58.661053 
L 321.142146 58.661053 
L 321.467125 56.114526 
L 322.442064 63.754105 
L 322.767043 56.114526 
L 323.092023 61.207579 
L 323.417002 63.754105 
L 324.066962 63.754105 
L 324.716921 68.847158 
L 325.0419 73.940211 
L 325.36688 71.393684 
L 325.691859 79.033263 
L 326.016839 79.033263 
L 326.666798 89.219368 
L 326.991777 89.219368 
L 327.641736 101.952 
L 327.966716 99.405474 
L 328.291695 107.045053 
L 329.266634 114.684632 
L 329.591613 124.870737 
L 330.241572 135.056842 
L 330.566552 135.056842 
L 330.891532 142.696421 
L 331.216511 145.242947 
L 331.541491 152.882526 
L 331.86647 155.429053 
L 332.19145 160.522105 
L 332.841409 175.801263 
L 333.491368 180.894316 
L 334.141327 193.626947 
L 334.466306 196.173474 
L 334.791286 206.359579 
L 335.441245 216.545684 
L 335.766224 216.545684 
L 336.416183 226.731789 
L 337.066143 242.010947 
L 337.391122 244.557474 
L 337.716102 244.557474 
L 338.041081 249.650526 
L 338.366061 249.650526 
L 339.01602 259.836632 
L 339.340999 259.836632 
L 339.665979 262.383158 
L 340.640917 277.662316 
L 340.965897 270.022737 
L 341.290876 277.662316 
L 341.615856 275.115789 
L 341.940835 280.208842 
L 342.590794 285.301895 
L 342.915774 285.301895 
L 343.240753 287.848421 
L 343.565733 282.755368 
L 344.215692 287.848421 
L 344.540672 287.848421 
L 344.865651 285.301895 
L 345.190631 285.301895 
L 345.51561 290.394947 
L 345.84059 290.394947 
L 346.165569 285.301895 
L 346.490549 287.848421 
L 346.815528 285.301895 
L 347.790467 285.301895 
L 348.115446 282.755368 
L 348.440426 282.755368 
L 348.765405 277.662316 
L 349.090385 285.301895 
L 350.065324 285.301895 
L 350.390303 290.394947 
L 351.040262 290.394947 
L 351.365242 287.848421 
L 351.690221 290.394947 
L 352.015201 287.848421 
L 352.34018 287.848421 
L 352.66516 290.394947 
L 352.990139 287.848421 
L 353.640098 287.848421 
L 353.965078 282.755368 
L 354.290057 287.848421 
L 354.940016 287.848421 
L 355.264996 285.301895 
L 355.589975 285.301895 
L 355.914955 287.848421 
L 356.239934 287.848421 
L 356.564914 282.755368 
L 356.889894 287.848421 
L 358.839771 287.848421 
L 359.16475 282.755368 
L 359.814709 287.848421 
L 360.139689 285.301895 
L 360.464668 285.301895 
L 360.789648 287.848421 
L 361.114627 285.301895 
L 361.439607 287.848421 
L 361.764586 282.755368 
L 362.089566 287.848421 
L 362.414545 285.301895 
L 363.064505 285.301895 
L 363.714464 290.394947 
L 364.039443 290.394947 
L 364.689402 285.301895 
L 365.014382 287.848421 
L 365.339361 285.301895 
L 365.664341 285.301895 
L 365.98932 287.848421 
L 366.3143 287.848421 
L 366.964259 282.755368 
L 367.289238 287.848421 
L 369.239115 287.848421 
L 369.564095 285.301895 
L 369.889075 287.848421 
L 370.864013 287.848421 
L 371.188993 292.941474 
L 371.513972 290.394947 
L 371.838952 290.394947 
L 372.163931 282.755368 
L 372.488911 290.394947 
L 372.81389 287.848421 
L 373.788829 287.848421 
L 374.113808 290.394947 
L 374.438788 290.394947 
L 374.763767 287.848421 
L 376.388665 287.848421 
L 377.688583 254.743579 
L 378.338542 229.278316 
L 378.663522 221.638737 
L 379.313481 236.917895 
L 379.63846 229.278316 
L 380.288419 180.894316 
L 380.613399 165.615158 
L 380.938378 168.161684 
L 381.588337 193.626947 
L 381.913317 178.347789 
L 382.563276 119.777684 
L 382.888256 119.777684 
L 383.538215 150.336 
L 383.863194 142.696421 
L 384.513153 96.858947 
L 384.838133 99.405474 
L 385.163112 112.138105 
L 385.488092 117.231158 
L 385.813071 107.045053 
L 386.138051 86.672842 
L 386.46303 79.033263 
L 387.112989 107.045053 
L 387.437969 104.498526 
L 387.762948 79.033263 
L 388.087928 66.300632 
L 388.412907 68.847158 
L 388.737887 89.219368 
L 389.062867 101.952 
L 390.037805 73.940211 
L 390.362785 76.486737 
L 390.687764 86.672842 
L 391.012744 89.219368 
L 391.662703 73.940211 
L 391.987682 81.579789 
L 392.312662 94.312421 
L 392.637641 99.405474 
L 392.962621 89.219368 
L 393.2876 84.126316 
L 393.61258 84.126316 
L 394.262539 101.952 
L 394.587518 101.952 
L 394.912498 99.405474 
L 395.237477 99.405474 
L 395.562457 96.858947 
L 395.887437 104.498526 
L 396.212416 107.045053 
L 396.862375 107.045053 
L 397.512334 112.138105 
L 397.837314 117.231158 
L 398.162293 114.684632 
L 398.487273 114.684632 
L 398.487273 114.684632 
" clip-path="url(#p633d5a3466)" style="fill: none; stroke: #2ca02c; stroke-width: 1.5; stroke-linecap: square"/>
   </g>
   <g id="line2d_16">
    <path d="M 73.832727 94.312421 
L 74.482686 89.219368 
L 75.132645 89.219368 
L 75.782604 79.033263 
L 76.107584 79.033263 
L 76.432563 76.486737 
L 77.082523 76.486737 
L 77.407502 73.940211 
L 77.732482 68.847158 
L 78.70742 68.847158 
L 79.0324 71.393684 
L 79.357379 68.847158 
L 79.682359 63.754105 
L 80.332318 63.754105 
L 80.657297 61.207579 
L 81.307256 61.207579 
L 81.632236 63.754105 
L 81.957215 63.754105 
L 82.282195 58.661053 
L 82.607174 61.207579 
L 82.932154 61.207579 
L 83.582113 66.300632 
L 83.907093 66.300632 
L 84.232072 68.847158 
L 84.882031 68.847158 
L 85.207011 73.940211 
L 85.53199 73.940211 
L 86.181949 79.033263 
L 86.506929 84.126316 
L 88.131826 96.858947 
L 89.431744 117.231158 
L 90.081704 122.324211 
L 91.056642 137.603368 
L 91.381622 145.242947 
L 91.706601 147.789474 
L 92.68154 163.068632 
L 93.006519 165.615158 
L 93.331499 170.708211 
L 93.981458 185.987368 
L 94.306437 188.533895 
L 94.631417 193.626947 
L 94.956396 196.173474 
L 95.281376 201.266526 
L 95.931335 213.999158 
L 96.256314 219.092211 
L 96.581294 226.731789 
L 96.906274 224.185263 
L 97.556233 234.371368 
L 97.881212 242.010947 
L 98.206192 244.557474 
L 98.531171 244.557474 
L 98.856151 247.104 
L 99.50611 257.290105 
L 99.831089 264.929684 
L 100.156069 264.929684 
L 100.481048 262.383158 
L 100.806028 267.476211 
L 101.131007 270.022737 
L 101.455987 275.115789 
L 102.105946 275.115789 
L 103.080885 282.755368 
L 103.730844 277.662316 
L 104.055823 277.662316 
L 104.380803 285.301895 
L 105.030762 285.301895 
L 105.355741 282.755368 
L 105.680721 277.662316 
L 106.0057 282.755368 
L 106.33068 282.755368 
L 106.655659 287.848421 
L 106.980639 287.848421 
L 107.305618 282.755368 
L 107.630598 272.569263 
L 108.280557 277.662316 
L 108.605536 282.755368 
L 108.930516 285.301895 
L 109.905455 285.301895 
L 110.230434 290.394947 
L 110.555414 290.394947 
L 110.880393 292.941474 
L 111.530352 292.941474 
L 111.855332 287.848421 
L 112.505291 287.848421 
L 112.83027 282.755368 
L 113.15525 285.301895 
L 113.480229 285.301895 
L 113.805209 287.848421 
L 114.130188 285.301895 
L 114.455168 287.848421 
L 114.780147 285.301895 
L 115.430106 290.394947 
L 115.755086 290.394947 
L 116.405045 285.301895 
L 117.055004 285.301895 
L 117.379984 287.848421 
L 118.354922 287.848421 
L 118.679902 290.394947 
L 119.329861 290.394947 
L 119.97982 285.301895 
L 120.304799 290.394947 
L 120.629779 290.394947 
L 121.279738 280.208842 
L 121.604717 287.848421 
L 121.929697 290.394947 
L 122.579656 290.394947 
L 123.229615 285.301895 
L 123.554595 287.848421 
L 124.204554 287.848421 
L 124.529533 285.301895 
L 125.179492 285.301895 
L 125.829451 290.394947 
L 126.47941 290.394947 
L 126.80439 295.488 
L 127.129369 292.941474 
L 127.454349 292.941474 
L 127.779328 287.848421 
L 128.104308 287.848421 
L 128.429287 282.755368 
L 129.404226 290.394947 
L 129.729206 290.394947 
L 130.054185 287.848421 
L 130.704144 292.941474 
L 131.029124 292.941474 
L 131.679083 287.848421 
L 132.654021 287.848421 
L 132.979001 290.394947 
L 133.30398 290.394947 
L 133.62896 287.848421 
L 133.953939 287.848421 
L 134.278919 290.394947 
L 134.928878 290.394947 
L 135.253857 292.941474 
L 135.578837 292.941474 
L 135.903817 290.394947 
L 136.553776 290.394947 
L 136.878755 282.755368 
L 137.203735 282.755368 
L 138.828632 247.104 
L 139.153612 242.010947 
L 139.478591 234.371368 
L 140.12855 211.452632 
L 140.778509 196.173474 
L 141.428468 191.080421 
L 142.403407 165.615158 
L 142.728387 155.429053 
L 143.378346 150.336 
L 144.028305 137.603368 
L 144.353284 132.510316 
L 144.678264 129.963789 
L 145.003243 124.870737 
L 145.328223 122.324211 
L 146.303161 101.952 
L 146.95312 107.045053 
L 147.2781 107.045053 
L 147.603079 101.952 
L 148.253038 86.672842 
L 148.578018 91.765895 
L 148.902998 94.312421 
L 149.552957 94.312421 
L 149.877936 89.219368 
L 150.202916 86.672842 
L 150.527895 86.672842 
L 150.852875 89.219368 
L 151.177854 86.672842 
L 151.502834 81.579789 
L 152.152793 91.765895 
L 152.477772 94.312421 
L 152.802752 94.312421 
L 153.127731 91.765895 
L 153.452711 84.126316 
L 154.10267 94.312421 
L 154.427649 101.952 
L 154.752629 104.498526 
L 155.077609 101.952 
L 155.402588 96.858947 
L 155.727568 94.312421 
L 156.377527 104.498526 
L 156.702506 107.045053 
L 157.677445 107.045053 
L 158.002424 114.684632 
L 158.327404 109.591579 
L 158.652383 107.045053 
L 158.977363 109.591579 
L 159.302342 114.684632 
L 159.952301 119.777684 
L 160.277281 117.231158 
L 160.60226 117.231158 
L 160.92724 114.684632 
L 161.252219 114.684632 
L 161.902179 119.777684 
L 162.552138 119.777684 
L 162.877117 114.684632 
L 163.202097 117.231158 
L 164.826994 117.231158 
L 165.151974 114.684632 
L 165.476953 114.684632 
L 166.451892 107.045053 
L 167.101851 107.045053 
L 167.42683 109.591579 
L 167.75181 107.045053 
L 168.07679 101.952 
L 168.726749 96.858947 
L 169.376708 96.858947 
L 169.701687 94.312421 
L 170.026667 89.219368 
L 170.676626 89.219368 
L 171.001605 84.126316 
L 171.976544 76.486737 
L 172.301523 76.486737 
L 172.626503 79.033263 
L 173.276462 73.940211 
L 173.601441 73.940211 
L 174.2514 68.847158 
L 174.57638 71.393684 
L 174.90136 71.393684 
L 175.876298 63.754105 
L 176.201278 63.754105 
L 176.526257 58.661053 
L 176.851237 61.207579 
L 177.176216 61.207579 
L 177.501196 63.754105 
L 177.826175 63.754105 
L 178.151155 61.207579 
L 178.801114 61.207579 
L 179.126093 63.754105 
L 179.451073 63.754105 
L 179.776052 68.847158 
L 180.101032 71.393684 
L 180.750991 71.393684 
L 181.72593 79.033263 
L 182.050909 79.033263 
L 182.375889 81.579789 
L 182.700868 86.672842 
L 183.675807 94.312421 
L 184.000786 101.952 
L 184.325766 104.498526 
L 184.650745 109.591579 
L 184.975725 112.138105 
L 185.300704 117.231158 
L 185.625684 119.777684 
L 186.275643 129.963789 
L 186.925602 135.056842 
L 187.250581 140.149895 
L 187.575561 150.336 
L 188.22552 160.522105 
L 188.875479 165.615158 
L 189.850418 185.987368 
L 190.175397 191.080421 
L 190.825356 196.173474 
L 191.800295 216.545684 
L 192.450254 221.638737 
L 193.100213 231.824842 
L 193.425192 234.371368 
L 194.075152 244.557474 
L 194.400131 247.104 
L 194.725111 247.104 
L 195.700049 262.383158 
L 196.350008 262.383158 
L 197.649926 272.569263 
L 197.974906 272.569263 
L 198.299885 275.115789 
L 198.624865 280.208842 
L 198.949844 280.208842 
L 199.274824 277.662316 
L 199.599803 285.301895 
L 199.924783 282.755368 
L 200.249762 282.755368 
L 200.574742 287.848421 
L 200.899722 287.848421 
L 201.224701 282.755368 
L 201.549681 280.208842 
L 201.87466 280.208842 
L 202.524619 285.301895 
L 202.849599 282.755368 
L 203.174578 282.755368 
L 203.499558 277.662316 
L 204.149517 277.662316 
L 204.799476 287.848421 
L 205.774414 287.848421 
L 206.099394 290.394947 
L 206.424373 290.394947 
L 206.749353 292.941474 
L 207.074333 290.394947 
L 207.399312 290.394947 
L 207.724292 287.848421 
L 208.049271 290.394947 
L 208.374251 285.301895 
L 209.02421 285.301895 
L 209.349189 287.848421 
L 209.674169 285.301895 
L 209.999148 287.848421 
L 210.324128 285.301895 
L 211.299066 292.941474 
L 211.624046 287.848421 
L 211.949025 285.301895 
L 213.248943 285.301895 
L 213.898903 290.394947 
L 214.548862 290.394947 
L 214.873841 287.848421 
L 215.198821 290.394947 
L 215.5238 287.848421 
L 216.498739 287.848421 
L 216.823718 285.301895 
L 217.148698 285.301895 
L 217.798657 290.394947 
L 218.123636 290.394947 
L 218.448616 287.848421 
L 219.098575 287.848421 
L 219.423554 285.301895 
L 219.748534 285.301895 
L 220.073514 282.755368 
L 220.398493 287.848421 
L 221.048452 287.848421 
L 221.373432 292.941474 
L 221.698411 290.394947 
L 223.323309 290.394947 
L 223.648288 287.848421 
L 223.973268 290.394947 
L 224.623227 290.394947 
L 224.948206 287.848421 
L 225.273186 287.848421 
L 225.598165 292.941474 
L 225.923145 290.394947 
L 226.573104 295.488 
L 227.548043 287.848421 
L 228.198002 287.848421 
L 228.522981 285.301895 
L 228.847961 290.394947 
L 229.822899 290.394947 
L 230.147879 287.848421 
L 230.472858 287.848421 
L 230.797838 290.394947 
L 231.122817 295.488 
L 231.447797 292.941474 
L 231.772776 292.941474 
L 232.097756 287.848421 
L 232.422735 287.848421 
L 232.747715 285.301895 
L 233.397674 275.115789 
L 233.722654 262.383158 
L 235.022572 242.010947 
L 235.347551 234.371368 
L 235.672531 221.638737 
L 235.99751 213.999158 
L 236.32249 201.266526 
L 236.647469 196.173474 
L 236.972449 196.173474 
L 237.297428 191.080421 
L 237.947387 173.254737 
L 238.597346 155.429053 
L 239.247305 150.336 
L 239.572285 145.242947 
L 240.222244 132.510316 
L 240.872203 122.324211 
L 241.197183 122.324211 
L 242.172121 101.952 
L 242.82208 107.045053 
L 243.14706 107.045053 
L 244.121998 86.672842 
L 244.446978 86.672842 
L 244.771957 91.765895 
L 245.421916 91.765895 
L 245.746896 89.219368 
L 246.071876 84.126316 
L 246.396855 86.672842 
L 246.721835 86.672842 
L 247.046814 84.126316 
L 247.371794 86.672842 
L 247.696773 86.672842 
L 248.021753 89.219368 
L 248.346732 94.312421 
L 248.671712 94.312421 
L 248.996691 89.219368 
L 249.321671 86.672842 
L 249.64665 89.219368 
L 250.296609 101.952 
L 250.621589 101.952 
L 251.271548 96.858947 
L 251.596527 101.952 
L 252.246486 101.952 
L 252.571466 104.498526 
L 252.896446 109.591579 
L 253.221425 109.591579 
L 253.546405 107.045053 
L 253.871384 109.591579 
L 254.521343 109.591579 
L 255.171302 114.684632 
L 255.496282 119.777684 
L 255.821261 117.231158 
L 256.146241 119.777684 
L 256.47122 114.684632 
L 256.7962 117.231158 
L 257.771138 117.231158 
L 258.096118 119.777684 
L 258.421097 119.777684 
L 258.746077 114.684632 
L 259.071057 117.231158 
L 259.396036 117.231158 
L 260.045995 112.138105 
L 260.370975 114.684632 
L 260.695954 114.684632 
L 261.020934 117.231158 
L 261.345913 117.231158 
L 261.995872 112.138105 
L 262.320852 107.045053 
L 262.645831 104.498526 
L 263.29579 109.591579 
L 263.945749 104.498526 
L 264.270729 99.405474 
L 264.920688 94.312421 
L 265.245667 96.858947 
L 265.570647 94.312421 
L 265.895627 89.219368 
L 266.220606 91.765895 
L 266.545586 89.219368 
L 266.870565 84.126316 
L 267.195545 86.672842 
L 267.520524 81.579789 
L 267.845504 79.033263 
L 268.170483 81.579789 
L 268.495463 81.579789 
L 268.820442 76.486737 
L 269.470401 71.393684 
L 269.795381 71.393684 
L 270.12036 68.847158 
L 270.44534 71.393684 
L 271.745258 61.207579 
L 272.070238 63.754105 
L 272.395217 63.754105 
L 272.720197 61.207579 
L 273.045176 61.207579 
L 273.695135 66.300632 
L 274.345094 61.207579 
L 274.670074 63.754105 
L 274.995053 63.754105 
L 275.645012 68.847158 
L 276.294971 68.847158 
L 276.619951 73.940211 
L 276.94493 73.940211 
L 277.919869 81.579789 
L 278.244848 81.579789 
L 278.569828 89.219368 
L 278.894808 91.765895 
L 279.219787 91.765895 
L 279.544767 96.858947 
L 280.519705 104.498526 
L 280.844685 112.138105 
L 281.169664 114.684632 
L 281.494644 119.777684 
L 281.819623 122.324211 
L 282.144603 129.963789 
L 282.469582 129.963789 
L 283.119541 142.696421 
L 283.444521 147.789474 
L 284.09448 160.522105 
L 284.744439 165.615158 
L 285.069419 175.801263 
L 285.394398 180.894316 
L 285.719378 183.440842 
L 286.044357 188.533895 
L 286.369337 196.173474 
L 287.019296 201.266526 
L 287.669255 216.545684 
L 287.994234 219.092211 
L 288.319214 224.185263 
L 288.644193 224.185263 
L 289.294152 239.464421 
L 289.619132 239.464421 
L 289.944111 244.557474 
L 290.269091 247.104 
L 290.59407 244.557474 
L 290.91905 249.650526 
L 291.569009 262.383158 
L 291.893989 262.383158 
L 292.218968 264.929684 
L 292.543948 264.929684 
L 293.193907 270.022737 
L 293.518886 275.115789 
L 293.843866 277.662316 
L 294.168845 275.115789 
L 294.493825 277.662316 
L 294.818804 277.662316 
L 295.143784 280.208842 
L 295.468763 280.208842 
L 295.793743 277.662316 
L 296.118722 282.755368 
L 296.443702 285.301895 
L 296.768681 285.301895 
L 297.093661 280.208842 
L 297.41864 277.662316 
L 297.74362 280.208842 
L 298.0686 280.208842 
L 298.393579 287.848421 
L 298.718559 285.301895 
L 299.043538 280.208842 
L 299.368518 277.662316 
L 299.693497 277.662316 
L 300.018477 275.115789 
L 300.343456 282.755368 
L 300.668436 285.301895 
L 300.993415 282.755368 
L 301.643374 282.755368 
L 301.968354 285.301895 
L 302.293333 292.941474 
L 302.618313 292.941474 
L 303.268272 287.848421 
L 303.918231 287.848421 
L 304.24321 285.301895 
L 305.218149 285.301895 
L 305.543129 287.848421 
L 305.868108 285.301895 
L 306.193088 287.848421 
L 306.518067 287.848421 
L 306.843047 290.394947 
L 307.168026 290.394947 
L 308.142965 282.755368 
L 308.467944 282.755368 
L 308.792924 285.301895 
L 309.117903 285.301895 
L 309.442883 287.848421 
L 310.742801 287.848421 
L 311.067781 285.301895 
L 311.39276 285.301895 
L 311.71774 282.755368 
L 312.367699 287.848421 
L 313.017658 282.755368 
L 313.992596 290.394947 
L 314.317576 290.394947 
L 314.642555 287.848421 
L 315.942473 287.848421 
L 316.267453 285.301895 
L 316.592432 285.301895 
L 316.917412 287.848421 
L 317.242391 287.848421 
L 317.567371 290.394947 
L 317.892351 287.848421 
L 318.21733 290.394947 
L 319.517248 290.394947 
L 319.842228 287.848421 
L 322.117084 287.848421 
L 322.767043 292.941474 
L 323.092023 287.848421 
L 323.417002 287.848421 
L 323.741982 290.394947 
L 324.066962 285.301895 
L 324.391941 290.394947 
L 324.716921 290.394947 
L 325.0419 287.848421 
L 325.36688 292.941474 
L 326.016839 287.848421 
L 326.666798 287.848421 
L 326.991777 290.394947 
L 327.316757 290.394947 
L 327.966716 285.301895 
L 328.616675 285.301895 
L 328.941654 280.208842 
L 329.266634 267.476211 
L 329.591613 264.929684 
L 330.241572 249.650526 
L 330.566552 247.104 
L 331.216511 229.278316 
L 332.19145 203.813053 
L 332.516429 193.626947 
L 332.841409 191.080421 
L 333.166388 193.626947 
L 333.816347 175.801263 
L 334.141327 163.068632 
L 334.466306 155.429053 
L 335.116265 150.336 
L 335.441245 145.242947 
L 336.091204 132.510316 
L 336.416183 129.963789 
L 336.741163 124.870737 
L 337.066143 124.870737 
L 337.716102 104.498526 
L 338.041081 99.405474 
L 338.366061 104.498526 
L 338.69104 107.045053 
L 339.01602 107.045053 
L 339.340999 101.952 
L 339.665979 91.765895 
L 339.990958 86.672842 
L 340.315938 86.672842 
L 340.640917 91.765895 
L 340.965897 94.312421 
L 341.290876 94.312421 
L 341.615856 89.219368 
L 341.940835 86.672842 
L 342.265815 89.219368 
L 342.915774 84.126316 
L 343.240753 84.126316 
L 343.565733 86.672842 
L 343.890713 91.765895 
L 344.215692 94.312421 
L 344.540672 94.312421 
L 344.865651 89.219368 
L 345.190631 86.672842 
L 345.51561 86.672842 
L 345.84059 91.765895 
L 346.490549 104.498526 
L 346.815528 99.405474 
L 347.140508 96.858947 
L 347.790467 96.858947 
L 348.115446 101.952 
L 348.440426 104.498526 
L 348.765405 104.498526 
L 349.415364 109.591579 
L 349.740344 109.591579 
L 350.065324 107.045053 
L 350.715283 112.138105 
L 351.040262 112.138105 
L 351.365242 117.231158 
L 352.015201 117.231158 
L 352.34018 114.684632 
L 352.990139 114.684632 
L 353.640098 119.777684 
L 354.290057 119.777684 
L 355.264996 112.138105 
L 355.589975 119.777684 
L 355.914955 119.777684 
L 356.239934 114.684632 
L 356.564914 114.684632 
L 356.889894 117.231158 
L 357.214873 117.231158 
L 357.539853 112.138105 
L 357.864832 109.591579 
L 358.189812 104.498526 
L 358.839771 104.498526 
L 359.16475 107.045053 
L 359.48973 107.045053 
L 360.139689 96.858947 
L 360.464668 94.312421 
L 360.789648 94.312421 
L 361.114627 96.858947 
L 361.439607 91.765895 
L 361.764586 91.765895 
L 362.414545 86.672842 
L 362.739525 86.672842 
L 363.064505 84.126316 
L 363.389484 79.033263 
L 363.714464 79.033263 
L 364.039443 76.486737 
L 364.364423 79.033263 
L 364.689402 73.940211 
L 365.014382 73.940211 
L 365.339361 71.393684 
L 365.664341 66.300632 
L 365.98932 68.847158 
L 366.3143 73.940211 
L 366.639279 68.847158 
L 366.964259 68.847158 
L 367.289238 66.300632 
L 367.614218 66.300632 
L 368.264177 61.207579 
L 368.589156 63.754105 
L 369.239115 58.661053 
L 369.564095 61.207579 
L 370.864013 61.207579 
L 371.188993 66.300632 
L 371.838952 66.300632 
L 372.163931 68.847158 
L 372.488911 73.940211 
L 372.81389 73.940211 
L 374.438788 86.672842 
L 374.763767 94.312421 
L 375.088747 94.312421 
L 375.413726 99.405474 
L 375.738706 101.952 
L 376.063686 101.952 
L 376.388665 107.045053 
L 376.713645 114.684632 
L 377.038624 114.684632 
L 377.363604 122.324211 
L 377.688583 124.870737 
L 378.013563 129.963789 
L 378.338542 137.603368 
L 378.988501 142.696421 
L 379.96344 163.068632 
L 380.288419 163.068632 
L 380.613399 165.615158 
L 380.938378 170.708211 
L 381.588337 183.440842 
L 382.238296 193.626947 
L 382.888256 206.359579 
L 383.213235 208.906105 
L 383.863194 219.092211 
L 384.513153 224.185263 
L 385.488092 244.557474 
L 385.813071 247.104 
L 386.46303 247.104 
L 387.112989 259.836632 
L 387.437969 264.929684 
L 388.412907 264.929684 
L 388.737887 270.022737 
L 389.387846 275.115789 
L 390.037805 275.115789 
L 390.362785 277.662316 
L 390.687764 282.755368 
L 391.012744 282.755368 
L 391.337723 280.208842 
L 391.662703 275.115789 
L 391.987682 285.301895 
L 392.962621 285.301895 
L 393.61258 280.208842 
L 393.937559 285.301895 
L 394.262539 287.848421 
L 394.912498 282.755368 
L 395.237477 277.662316 
L 395.887437 277.662316 
L 396.212416 282.755368 
L 396.537396 285.301895 
L 396.862375 282.755368 
L 397.187355 287.848421 
L 397.512334 285.301895 
L 397.837314 287.848421 
L 398.162293 292.941474 
L 398.487273 292.941474 
L 398.487273 292.941474 
" clip-path="url(#p633d5a3466)" style="fill: none; stroke: #d62728; stroke-width: 1.5; stroke-linecap: square"/>
   </g>
   <g id="patch_3">
    <path d="M 57.6 307.584 
L 57.6 41.472 
" style="fill: none; stroke: #000000; stroke-width: 0.8; stroke-linejoin: miter; stroke-linecap: square"/>
   </g>
   <g id="patch_4">
    <path d="M 414.72 307.584 
L 414.72 41.472 
" style="fill: none; stroke: #000000; stroke-width: 0.8; stroke-linejoin: miter; stroke-linecap: square"/>
   </g>
   <g id="patch_5">
    <path d="M 57.6 307.584 
L 414.72 307.584 
" style="fill: none; stroke: #000000; stroke-width: 0.8; stroke-linejoin: miter; stroke-linecap: square"/>
   </g>
   <g id="patch_6">
    <path d="M 57.6 41.472 
L 414.72 41.472 
" style="fill: none; stroke: #000000; stroke-width: 0.8; stroke-linejoin: miter; stroke-linecap: square"/>
   </g>
  </g>
 </g>
 <defs>
  <clipPath id="p633d5a3466">
   <rect x="57.6" y="41.472" width="357.12" height="266.112"/>
  </clipPath>
 </defs>
</svg>
