<?xml version="1.0" encoding="utf-8" standalone="no"?>
<!DOCTYPE svg PUBLIC "-//W3C//DTD SVG 1.1//EN"
  "http://www.w3.org/Graphics/SVG/1.1/DTD/svg11.dtd">
<svg xmlns:xlink="http://www.w3.org/1999/xlink" width="460.8pt" height="345.6pt" viewBox="0 0 460.8 345.6" xmlns="http://www.w3.org/2000/svg" version="1.1">
 <metadata>
  <rdf:RDF xmlns:dc="http://purl.org/dc/elements/1.1/" xmlns:cc="http://creativecommons.org/ns#" xmlns:rdf="http://www.w3.org/1999/02/22-rdf-syntax-ns#">
   <cc:Work>
    <dc:type rdf:resource="http://purl.org/dc/dcmitype/StillImage"/>
    <dc:date>2025-12-31T12:41:44.699699</dc:date>
    <dc:format>image/svg+xml</dc:format>
    <dc:creator>
     <cc:Agent>
      <dc:title>Matplotlib v3.10.8, https://matplotlib.org/</dc:title>
     </cc:Agent>
    </dc:creator>
   </cc:Work>
  </rdf:RDF>
 </metadata>
 <defs>
  <style type="text/css">*{stroke-linejoin: round; stroke-linecap: butt}</style>
 </defs>
 <g id="figure_1">
  <g id="patch_1">
   <path d="M 0 345.6 
L 460.8 345.6 
L 460.8 0 
L 0 0 
z
" style="fill: #ffffff"/>
  </g>
  <g id="axes_1">
   <g id="patch_2">
    <path d="M 57.6 307.584 
L 414.72 307.584 
L 414.72 41.472 
L 57.6 41.472 
z
" style="fill: #ffffff"/>
   </g>
   <g id="matplotlib.axis_1">
    <g id="xtick_1">
     <g id="line2d_1">
      <defs>
       <path id="m90f1641d00" d="M 0 0 
L 0 3.5 
" style="stroke: #000000; stroke-width: 0.8"/>
      </defs>
      <g>
       <use xlink:href="#m90f1641d00" x="73.832727" y="307.584" style="stroke: #000000; stroke-width: 0.8"/>
      </g>
     </g>
     <g id="text_1">
      <!-- 0 -->
      <g transform="translate(70.651477 322.182437) scale(0.1 -0.1)">
       <defs>
        <path id="DejaVuSans-30" d="M 2034 4250 
Q 1547 4250 1301 3770 
Q 1056 3291 1056 2328 
Q 1056 1369 1301 889 
Q 1547 409 2034 409 
Q 2525 409 2770 889 
Q 3016 1369 3016 2328 
Q 3016 3291 2770 3770 
Q 2525 4250 2034 4250 
z
M 2034 4750 
Q 2819 4750 3233 4129 
Q 3647 3509 3647 2328 
Q 3647 1150 3233 529 
Q 2819 -91 2034 -91 
Q 1250 -91 836 529 
Q 422 1150 422 2328 
Q 422 3509 836 4129 
Q 1250 4750 2034 4750 
z
" transform="scale(0.015625)"/>
       </defs>
       <use xlink:href="#DejaVuSans-30"/>
      </g>
     </g>
    </g>
    <g id="xtick_2">
     <g id="line2d_2">
      <g>
       <use xlink:href="#m90f1641d00" x="138.828632" y="307.584" style="stroke: #000000; stroke-width: 0.8"/>
      </g>
     </g>
     <g id="text_2">
      <!-- 1 -->
      <g transform="translate(135.647382 322.182437) scale(0.1 -0.1)">
       <defs>
        <path id="DejaVuSans-31" d="M 794 531 
L 1825 531 
L 1825 4091 
L 703 3866 
L 703 4441 
L 1819 4666 
L 2450 4666 
L 2450 531 
L 3481 531 
L 3481 0 
L 794 0 
L 794 531 
z
" transform="scale(0.015625)"/>
       </defs>
       <use xlink:href="#DejaVuSans-31"/>
      </g>
     </g>
    </g>
    <g id="xtick_3">
     <g id="line2d_3">
      <g>
       <use xlink:href="#m90f1641d00" x="203.824537" y="307.584" style="stroke: #000000; stroke-width: 0.8"/>
      </g>
     </g>
     <g id="text_3">
      <!-- 2 -->
      <g transform="translate(200.643287 322.182437) scale(0.1 -0.1)">
       <defs>
        <path id="DejaVuSans-32" d="M 1228 531 
L 3431 531 
L 3431 0 
L 469 0 
L 469 531 
Q 828 903 1448 1529 
Q 2069 2156 2228 2338 
Q 2531 2678 2651 2914 
Q 2772 3150 2772 3378 
Q 2772 3750 2511 3984 
Q 2250 4219 1831 4219 
Q 1534 4219 1204 4116 
Q 875 4013 500 3803 
L 500 4441 
Q 881 4594 1212 4672 
Q 1544 4750 1819 4750 
Q 2544 4750 2975 4387 
Q 3406 4025 3406 3419 
Q 3406 3131 3298 2873 
Q 3191 2616 2906 2266 
Q 2828 2175 2409 1742 
Q 1991 1309 1228 531 
z
" transform="scale(0.015625)"/>
       </defs>
       <use xlink:href="#DejaVuSans-32"/>
      </g>
     </g>
    </g>
    <g id="xtick_4">
     <g id="line2d_4">
      <g>
       <use xlink:href="#m90f1641d00" x="268.820442" y="307.584" style="stroke: #000000; stroke-width: 0.8"/>
      </g>
     </g>
     <g id="text_4">
      <!-- 3 -->
      <g transform="translate(265.639192 322.182437) scale(0.1 -0.1)">
       <defs>
        <path id="DejaVuSans-33" d="M 2597 2516 
Q 3050 2419 3304 2112 
Q 3559 1806 3559 1356 
Q 3559 666 3084 287 
Q 2609 -91 1734 -91 
Q 1441 -91 1130 -33 
Q 819 25 488 141 
L 488 750 
Q 750 597 1062 519 
Q 1375 441 1716 441 
Q 2309 441 2620 675 
Q 2931 909 2931 1356 
Q 2931 1769 2642 2001 
Q 2353 2234 1838 2234 
L 1294 2234 
L 1294 2753 
L 1863 2753 
Q 2328 2753 2575 2939 
Q 2822 3125 2822 3475 
Q 2822 3834 2567 4026 
Q 2313 4219 1838 4219 
Q 1578 4219 1281 4162 
Q 984 4106 628 3988 
L 628 4550 
Q 988 4650 1302 4700 
Q 1616 4750 1894 4750 
Q 2613 4750 3031 4423 
Q 3450 4097 3450 3541 
Q 3450 3153 3228 2886 
Q 3006 2619 2597 2516 
z
" transform="scale(0.015625)"/>
       </defs>
       <use xlink:href="#DejaVuSans-33"/>
      </g>
     </g>
    </g>
    <g id="xtick_5">
     <g id="line2d_5">
      <g>
       <use xlink:href="#m90f1641d00" x="333.816347" y="307.584" style="stroke: #000000; stroke-width: 0.8"/>
      </g>
     </g>
     <g id="text_5">
      <!-- 4 -->
      <g transform="translate(330.635097 322.182437) scale(0.1 -0.1)">
       <defs>
        <path id="DejaVuSans-34" d="M 2419 4116 
L 825 1625 
L 2419 1625 
L 2419 4116 
z
M 2253 4666 
L 3047 4666 
L 3047 1625 
L 3713 1625 
L 3713 1100 
L 3047 1100 
L 3047 0 
L 2419 0 
L 2419 1100 
L 313 1100 
L 313 1709 
L 2253 4666 
z
" transform="scale(0.015625)"/>
       </defs>
       <use xlink:href="#DejaVuSans-34"/>
      </g>
     </g>
    </g>
    <g id="xtick_6">
     <g id="line2d_6">
      <g>
       <use xlink:href="#m90f1641d00" x="398.812252" y="307.584" style="stroke: #000000; stroke-width: 0.8"/>
      </g>
     </g>
     <g id="text_6">
      <!-- 5 -->
      <g transform="translate(395.631002 322.182437) scale(0.1 -0.1)">
       <defs>
        <path id="DejaVuSans-35" d="M 691 4666 
L 3169 4666 
L 3169 4134 
L 1269 4134 
L 1269 2991 
Q 1406 3038 1543 3061 
Q 1681 3084 1819 3084 
Q 2600 3084 3056 2656 
Q 3513 2228 3513 1497 
Q 3513 744 3044 326 
Q 2575 -91 1722 -91 
Q 1428 -91 1123 -41 
Q 819 9 494 109 
L 494 744 
Q 775 591 1075 516 
Q 1375 441 1709 441 
Q 2250 441 2565 725 
Q 2881 1009 2881 1497 
Q 2881 1984 2565 2268 
Q 2250 2553 1709 2553 
Q 1456 2553 1204 2497 
Q 953 2441 691 2322 
L 691 4666 
z
" transform="scale(0.015625)"/>
       </defs>
       <use xlink:href="#DejaVuSans-35"/>
      </g>
     </g>
    </g>
    <g id="text_7">
     <!-- 1e−7 -->
     <g transform="translate(387.462188 334.860562) scale(0.1 -0.1)">
      <defs>
       <path id="DejaVuSans-65" d="M 3597 1894 
L 3597 1613 
L 953 1613 
Q 991 1019 1311 708 
Q 1631 397 2203 397 
Q 2534 397 2845 478 
Q 3156 559 3463 722 
L 3463 178 
Q 3153 47 2828 -22 
Q 2503 -91 2169 -91 
Q 1331 -91 842 396 
Q 353 884 353 1716 
Q 353 2575 817 3079 
Q 1281 3584 2069 3584 
Q 2775 3584 3186 3129 
Q 3597 2675 3597 1894 
z
M 3022 2063 
Q 3016 2534 2758 2815 
Q 2500 3097 2075 3097 
Q 1594 3097 1305 2825 
Q 1016 2553 972 2059 
L 3022 2063 
z
" transform="scale(0.015625)"/>
       <path id="DejaVuSans-2212" d="M 678 2272 
L 4684 2272 
L 4684 1741 
L 678 1741 
L 678 2272 
z
" transform="scale(0.015625)"/>
       <path id="DejaVuSans-37" d="M 525 4666 
L 3525 4666 
L 3525 4397 
L 1831 0 
L 1172 0 
L 2766 4134 
L 525 4134 
L 525 4666 
z
" transform="scale(0.015625)"/>
      </defs>
      <use xlink:href="#DejaVuSans-31"/>
      <use xlink:href="#DejaVuSans-65" transform="translate(63.623047 0)"/>
      <use xlink:href="#DejaVuSans-2212" transform="translate(125.146484 0)"/>
      <use xlink:href="#DejaVuSans-37" transform="translate(208.935547 0)"/>
     </g>
    </g>
   </g>
   <g id="matplotlib.axis_2">
    <g id="ytick_1">
     <g id="line2d_7">
      <defs>
       <path id="m4ba82d3a64" d="M 0 0 
L -3.5 0 
" style="stroke: #000000; stroke-width: 0.8"/>
      </defs>
      <g>
       <use xlink:href="#m4ba82d3a64" x="57.6" y="299.347759" style="stroke: #000000; stroke-width: 0.8"/>
      </g>
     </g>
     <g id="text_8">
      <!-- 0 -->
      <g transform="translate(44.2375 303.146977) scale(0.1 -0.1)">
       <use xlink:href="#DejaVuSans-30"/>
      </g>
     </g>
    </g>
    <g id="ytick_2">
     <g id="line2d_8">
      <g>
       <use xlink:href="#m4ba82d3a64" x="57.6" y="246.747263" style="stroke: #000000; stroke-width: 0.8"/>
      </g>
     </g>
     <g id="text_9">
      <!-- 10 -->
      <g transform="translate(37.875 250.546482) scale(0.1 -0.1)">
       <use xlink:href="#DejaVuSans-31"/>
       <use xlink:href="#DejaVuSans-30" transform="translate(63.623047 0)"/>
      </g>
     </g>
    </g>
    <g id="ytick_3">
     <g id="line2d_9">
      <g>
       <use xlink:href="#m4ba82d3a64" x="57.6" y="194.146768" style="stroke: #000000; stroke-width: 0.8"/>
      </g>
     </g>
     <g id="text_10">
      <!-- 20 -->
      <g transform="translate(37.875 197.945987) scale(0.1 -0.1)">
       <use xlink:href="#DejaVuSans-32"/>
       <use xlink:href="#DejaVuSans-30" transform="translate(63.623047 0)"/>
      </g>
     </g>
    </g>
    <g id="ytick_4">
     <g id="line2d_10">
      <g>
       <use xlink:href="#m4ba82d3a64" x="57.6" y="141.546273" style="stroke: #000000; stroke-width: 0.8"/>
      </g>
     </g>
     <g id="text_11">
      <!-- 30 -->
      <g transform="translate(37.875 145.345492) scale(0.1 -0.1)">
       <use xlink:href="#DejaVuSans-33"/>
       <use xlink:href="#DejaVuSans-30" transform="translate(63.623047 0)"/>
      </g>
     </g>
    </g>
    <g id="ytick_5">
     <g id="line2d_11">
      <g>
       <use xlink:href="#m4ba82d3a64" x="57.6" y="88.945778" style="stroke: #000000; stroke-width: 0.8"/>
      </g>
     </g>
     <g id="text_12">
      <!-- 40 -->
      <g transform="translate(37.875 92.744997) scale(0.1 -0.1)">
       <use xlink:href="#DejaVuSans-34"/>
       <use xlink:href="#DejaVuSans-30" transform="translate(63.623047 0)"/>
      </g>
     </g>
    </g>
   </g>
   <g id="line2d_12">
    <path d="M 73.832727 167.415196 
L 74.157707 167.415196 
L 74.482686 167.579573 
L 75.132645 168.154891 
L 75.457625 168.319268 
L 75.782604 168.319268 
L 77.082523 167.661761 
L 77.407502 167.661761 
L 77.732482 167.826138 
L 78.057461 167.74395 
L 79.0324 167.086443 
L 79.682359 167.333008 
L 80.332318 167.579573 
L 80.982277 167.579573 
L 81.632236 167.908326 
L 82.932154 166.675502 
L 83.907093 166.839879 
L 84.232072 166.675502 
L 84.882031 166.922067 
L 85.53199 167.579573 
L 85.85697 167.497385 
L 86.506929 167.004255 
L 86.831908 167.004255 
L 87.156888 166.839879 
L 87.481867 166.511125 
L 87.806847 166.511125 
L 88.456806 166.839879 
L 88.781785 167.168632 
L 89.106765 167.25082 
L 89.756724 166.675502 
L 90.081704 166.593314 
L 90.406683 166.922067 
L 91.056642 167.168632 
L 91.381622 167.168632 
L 91.706601 167.004255 
L 92.031581 167.004255 
L 93.006519 166.346749 
L 93.656478 166.428937 
L 94.956396 166.839879 
L 95.281376 166.593314 
L 95.606355 166.593314 
L 96.256314 166.264561 
L 96.906274 166.182372 
L 97.231253 166.017996 
L 97.556233 166.017996 
L 98.856151 167.086443 
L 99.831089 166.839879 
L 100.156069 167.004255 
L 100.806028 166.922067 
L 101.780966 165.607054 
L 102.105946 165.689243 
L 102.430925 165.935807 
L 102.755905 165.935807 
L 103.405864 165.196113 
L 103.730844 165.36049 
L 104.380803 166.675502 
L 104.705782 166.839879 
L 105.355741 165.442678 
L 105.680721 165.196113 
L 106.33068 166.182372 
L 106.655659 165.853619 
L 106.980639 165.278301 
L 107.305618 165.031736 
L 107.630598 165.36049 
L 107.955577 166.100184 
L 108.280557 166.511125 
L 108.605536 166.511125 
L 109.255495 165.853619 
L 109.905455 165.771431 
L 110.230434 165.442678 
L 110.555414 165.36049 
L 110.880393 165.442678 
L 111.205373 165.853619 
L 111.530352 165.935807 
L 112.180311 164.949548 
L 112.505291 165.278301 
L 113.15525 166.922067 
L 113.480229 167.086443 
L 114.130188 165.935807 
L 114.455168 165.607054 
L 114.780147 165.524866 
L 115.105127 165.689243 
L 115.755086 165.607054 
L 116.080066 165.771431 
L 116.730025 166.428937 
L 117.379984 166.346749 
L 117.704963 166.428937 
L 118.029943 166.75769 
L 118.354922 166.593314 
L 119.329861 165.196113 
L 119.65484 165.278301 
L 120.304799 166.264561 
L 120.954758 166.264561 
L 121.279738 166.428937 
L 121.929697 167.333008 
L 122.254676 167.333008 
L 122.904636 166.264561 
L 123.229615 166.100184 
L 123.554595 166.100184 
L 124.204554 166.75769 
L 124.529533 166.593314 
L 125.179492 165.771431 
L 125.504472 166.017996 
L 126.80439 167.497385 
L 127.129369 167.415196 
L 128.104308 166.593314 
L 129.079247 166.839879 
L 129.404226 166.75769 
L 130.054185 165.935807 
L 130.379165 166.017996 
L 131.029124 167.168632 
L 131.354103 167.826138 
L 131.679083 167.990514 
L 132.329042 167.497385 
L 132.979001 167.579573 
L 134.603898 166.428937 
L 135.253857 166.75769 
L 136.553776 168.237079 
L 137.203735 167.661761 
L 137.528714 167.25082 
L 138.178673 167.086443 
L 138.503653 166.675502 
L 138.828632 166.593314 
L 139.153612 166.75769 
L 139.803571 168.072703 
L 140.12855 168.401456 
L 140.45353 168.401456 
L 140.778509 168.237079 
L 141.428468 168.154891 
L 142.078428 167.74395 
L 143.053366 166.675502 
L 143.703325 166.75769 
L 144.028305 167.086443 
L 144.678264 168.154891 
L 145.328223 168.401456 
L 146.303161 168.401456 
L 146.95312 167.990514 
L 147.2781 167.826138 
L 147.928059 168.237079 
L 148.578018 168.648021 
L 149.227977 168.565832 
L 149.552957 168.483644 
L 149.877936 168.565832 
L 150.852875 168.237079 
L 151.177854 167.908326 
L 151.827813 167.661761 
L 152.152793 167.826138 
L 153.127731 168.730209 
L 153.77769 168.483644 
L 154.10267 168.154891 
L 154.427649 168.401456 
L 154.752629 168.894586 
L 155.077609 169.058962 
L 155.402588 168.894586 
L 156.052547 168.154891 
L 156.377527 168.237079 
L 156.702506 168.565832 
L 157.027486 168.648021 
L 157.677445 168.154891 
L 158.002424 168.154891 
L 158.652383 168.812397 
L 158.977363 168.730209 
L 159.302342 168.154891 
L 159.627322 167.826138 
L 159.952301 167.826138 
L 160.60226 168.565832 
L 160.92724 168.730209 
L 161.577199 168.648021 
L 161.902179 168.565832 
L 162.552138 168.154891 
L 162.877117 167.990514 
L 163.202097 167.990514 
L 163.527076 168.237079 
L 164.177035 168.154891 
L 164.502015 167.826138 
L 164.826994 167.74395 
L 165.151974 167.826138 
L 165.801933 168.401456 
L 166.126912 168.565832 
L 167.101851 167.826138 
L 167.42683 167.826138 
L 167.75181 168.154891 
L 168.401769 168.401456 
L 169.051728 167.497385 
L 169.701687 167.415196 
L 170.351646 168.072703 
L 170.676626 168.319268 
L 171.976544 167.74395 
L 172.626503 167.579573 
L 172.951482 167.74395 
L 173.276462 167.74395 
L 173.601441 167.579573 
L 173.926421 167.25082 
L 174.2514 167.086443 
L 174.90136 167.25082 
L 175.226339 167.497385 
L 176.201278 167.579573 
L 176.851237 167.908326 
L 177.176216 167.74395 
L 178.151155 166.593314 
L 179.126093 166.839879 
L 179.451073 166.593314 
L 179.776052 166.593314 
L 180.101032 166.75769 
L 180.426011 167.168632 
L 181.075971 167.415196 
L 183.025848 166.511125 
L 183.350827 166.511125 
L 184.325766 167.25082 
L 185.300704 166.511125 
L 186.275643 167.25082 
L 187.900541 166.75769 
L 188.22552 166.428937 
L 188.5505 166.264561 
L 189.525438 166.675502 
L 190.825356 166.593314 
L 191.150336 166.511125 
L 191.800295 166.100184 
L 192.125274 166.182372 
L 192.775233 165.935807 
L 194.400131 167.086443 
L 194.725111 166.922067 
L 195.05009 167.004255 
L 195.700049 166.839879 
L 196.025029 167.168632 
L 196.999967 165.689243 
L 197.324947 165.689243 
L 197.649926 166.017996 
L 197.974906 166.100184 
L 198.299885 165.771431 
L 198.624865 165.278301 
L 198.949844 165.278301 
L 199.274824 165.689243 
L 199.599803 166.511125 
L 199.924783 166.922067 
L 200.249762 166.428937 
L 200.899722 165.113925 
L 201.549681 165.935807 
L 201.87466 166.017996 
L 202.19964 165.442678 
L 202.524619 165.113925 
L 202.849599 165.196113 
L 203.499558 166.511125 
L 203.824537 166.675502 
L 204.474496 166.017996 
L 204.799476 165.853619 
L 205.124455 165.853619 
L 205.774414 165.36049 
L 206.099394 165.442678 
L 206.424373 165.771431 
L 206.749353 165.935807 
L 207.074333 165.607054 
L 207.399312 165.113925 
L 207.724292 165.113925 
L 208.69923 167.086443 
L 209.02421 166.75769 
L 209.674169 165.524866 
L 209.999148 165.524866 
L 210.324128 165.689243 
L 211.299066 165.689243 
L 211.949025 166.428937 
L 212.598984 166.182372 
L 213.573923 166.675502 
L 213.898903 166.346749 
L 214.223882 165.607054 
L 214.548862 165.196113 
L 214.873841 165.113925 
L 215.5238 166.100184 
L 215.84878 166.264561 
L 216.498739 166.264561 
L 217.473677 167.333008 
L 218.773595 165.853619 
L 219.423554 166.675502 
L 219.748534 166.593314 
L 220.398493 165.853619 
L 220.723473 165.853619 
L 222.023391 167.497385 
L 222.67335 167.25082 
L 222.998329 166.922067 
L 223.648288 166.593314 
L 223.973268 166.593314 
L 224.298247 166.839879 
L 224.623227 166.75769 
L 224.948206 166.428937 
L 225.273186 165.935807 
L 225.598165 165.853619 
L 226.248124 167.004255 
L 226.573104 167.579573 
L 226.898084 167.908326 
L 227.223063 167.908326 
L 227.548043 167.497385 
L 228.522981 167.415196 
L 228.847961 167.25082 
L 229.49792 166.593314 
L 230.472858 166.675502 
L 230.797838 166.922067 
L 231.447797 168.072703 
L 231.772776 168.401456 
L 233.072695 167.168632 
L 233.397674 167.086443 
L 234.047633 166.675502 
L 234.372613 166.75769 
L 235.347551 168.401456 
L 235.672531 168.401456 
L 235.99751 168.237079 
L 236.647469 168.154891 
L 237.297428 167.74395 
L 237.622408 167.497385 
L 237.947387 167.004255 
L 238.597346 166.75769 
L 238.922326 166.675502 
L 239.247305 166.839879 
L 240.222244 168.154891 
L 241.197183 168.319268 
L 241.522162 168.319268 
L 242.497101 167.661761 
L 243.14706 168.072703 
L 243.797019 168.648021 
L 244.771957 168.401456 
L 245.096937 168.565832 
L 245.746896 168.401456 
L 246.721835 167.74395 
L 247.371794 167.661761 
L 247.696773 167.908326 
L 248.021753 168.483644 
L 248.346732 168.648021 
L 248.996691 168.401456 
L 249.321671 168.154891 
L 249.64665 168.237079 
L 250.296609 169.058962 
L 250.621589 168.976774 
L 251.271548 168.319268 
L 251.596527 168.319268 
L 252.246486 168.730209 
L 252.896446 168.154891 
L 253.221425 168.237079 
L 253.871384 168.812397 
L 254.196364 168.812397 
L 254.846323 167.908326 
L 255.171302 167.826138 
L 256.146241 168.894586 
L 256.47122 168.976774 
L 257.771138 168.319268 
L 258.096118 167.990514 
L 258.746077 168.237079 
L 259.071057 168.319268 
L 260.370975 167.74395 
L 261.020934 168.401456 
L 261.345913 168.565832 
L 261.670893 168.401456 
L 262.320852 167.826138 
L 262.645831 167.826138 
L 262.970811 168.154891 
L 263.62077 168.401456 
L 264.595708 167.333008 
L 264.920688 167.415196 
L 265.570647 167.990514 
L 265.895627 168.237079 
L 266.220606 168.319268 
L 266.870565 168.154891 
L 267.195545 167.826138 
L 267.845504 167.579573 
L 268.170483 167.74395 
L 268.820442 167.661761 
L 269.470401 167.086443 
L 269.795381 167.004255 
L 270.44534 167.415196 
L 271.095299 167.579573 
L 271.420278 167.497385 
L 271.745258 167.579573 
L 272.070238 167.826138 
L 272.395217 167.74395 
L 272.720197 167.415196 
L 273.045176 166.922067 
L 273.370156 166.675502 
L 273.695135 166.593314 
L 274.020115 166.839879 
L 274.995053 166.593314 
L 275.645012 167.004255 
L 275.969992 167.25082 
L 276.294971 167.333008 
L 277.26991 167.004255 
L 278.244848 166.428937 
L 278.569828 166.511125 
L 278.894808 166.75769 
L 279.219787 167.168632 
L 279.544767 167.25082 
L 279.869746 167.168632 
L 280.194726 166.75769 
L 280.519705 166.675502 
L 280.844685 166.75769 
L 281.494644 167.25082 
L 282.144603 167.168632 
L 282.469582 167.086443 
L 282.794562 166.839879 
L 283.119541 166.75769 
L 283.444521 166.511125 
L 284.09448 166.428937 
L 284.419459 166.675502 
L 284.744439 166.593314 
L 285.719378 166.75769 
L 286.369337 166.675502 
L 287.994234 165.935807 
L 289.619132 167.168632 
L 290.269091 166.922067 
L 291.244029 167.004255 
L 291.569009 166.75769 
L 292.218968 165.689243 
L 292.543948 165.607054 
L 293.193907 166.017996 
L 293.518886 165.935807 
L 293.843866 165.36049 
L 294.168845 165.196113 
L 294.493825 165.524866 
L 295.143784 166.922067 
L 295.468763 166.593314 
L 296.118722 165.36049 
L 296.443702 165.36049 
L 296.768681 165.935807 
L 297.093661 166.182372 
L 297.74362 165.196113 
L 298.0686 165.196113 
L 298.718559 166.428937 
L 299.043538 166.675502 
L 299.368518 166.511125 
L 299.693497 166.017996 
L 300.668436 165.689243 
L 301.318395 165.442678 
L 301.643374 165.771431 
L 301.968354 165.935807 
L 302.293333 165.689243 
L 302.618313 165.196113 
L 302.943292 165.278301 
L 303.268272 165.771431 
L 303.593251 166.675502 
L 303.918231 167.168632 
L 304.24321 167.004255 
L 304.89317 165.524866 
L 305.218149 165.689243 
L 305.868108 165.689243 
L 306.193088 165.524866 
L 306.518067 165.607054 
L 307.168026 166.346749 
L 307.493006 166.428937 
L 307.817985 166.264561 
L 308.142965 166.346749 
L 308.467944 166.675502 
L 308.792924 166.75769 
L 309.117903 166.428937 
L 309.767862 165.278301 
L 310.092842 165.196113 
L 311.067781 166.346749 
L 311.71774 166.264561 
L 312.042719 166.428937 
L 312.367699 167.004255 
L 312.692678 167.25082 
L 313.017658 167.086443 
L 313.667617 166.100184 
L 313.992596 166.017996 
L 314.642555 166.675502 
L 314.967535 166.75769 
L 315.292514 166.264561 
L 315.617494 166.017996 
L 315.942473 165.935807 
L 316.267453 166.182372 
L 316.917412 167.086443 
L 317.567371 167.497385 
L 318.21733 167.086443 
L 318.54231 166.839879 
L 318.867289 166.75769 
L 319.842228 166.922067 
L 320.167207 166.593314 
L 320.492187 166.100184 
L 320.817166 165.935807 
L 321.142146 166.264561 
L 322.117084 167.990514 
L 322.442064 167.908326 
L 322.767043 167.661761 
L 323.417002 167.579573 
L 323.741982 167.497385 
L 325.0419 166.593314 
L 325.36688 166.593314 
L 326.016839 167.004255 
L 326.991777 168.401456 
L 327.316757 168.319268 
L 327.641736 167.990514 
L 327.966716 167.497385 
L 329.266634 166.75769 
L 329.591613 166.839879 
L 329.916593 167.25082 
L 330.566552 168.483644 
L 331.216511 168.401456 
L 331.541491 168.154891 
L 331.86647 168.319268 
L 332.516429 167.908326 
L 332.841409 167.661761 
L 333.491368 166.922067 
L 333.816347 166.75769 
L 334.466306 166.839879 
L 335.441245 168.319268 
L 335.766224 168.483644 
L 336.091204 168.401456 
L 336.416183 168.483644 
L 337.066143 168.319268 
L 337.391122 167.908326 
L 337.716102 167.826138 
L 338.366061 167.990514 
L 339.01602 168.648021 
L 340.965897 168.565832 
L 341.940835 167.74395 
L 342.590794 167.661761 
L 342.915774 167.908326 
L 343.240753 168.319268 
L 343.890713 168.565832 
L 344.865651 168.319268 
L 345.51561 169.058962 
L 345.84059 169.058962 
L 346.490549 168.401456 
L 346.815528 168.319268 
L 347.140508 168.401456 
L 347.465487 168.648021 
L 347.790467 168.483644 
L 348.115446 168.154891 
L 348.440426 168.072703 
L 348.765405 168.237079 
L 349.090385 168.648021 
L 349.415364 168.648021 
L 349.740344 168.401456 
L 350.065324 167.990514 
L 350.390303 167.826138 
L 350.715283 167.908326 
L 351.365242 168.730209 
L 351.690221 168.812397 
L 352.34018 168.565832 
L 352.66516 168.483644 
L 353.315119 167.990514 
L 354.940016 168.072703 
L 355.589975 167.661761 
L 355.914955 167.908326 
L 356.239934 168.319268 
L 356.564914 168.483644 
L 357.214873 168.237079 
L 357.539853 167.826138 
L 357.864832 167.74395 
L 358.189812 167.826138 
L 358.514791 168.154891 
L 358.839771 168.319268 
L 359.48973 167.74395 
L 359.814709 167.333008 
L 360.464668 167.579573 
L 361.114627 168.237079 
L 361.439607 168.319268 
L 361.764586 168.237079 
L 362.414545 167.826138 
L 362.739525 167.661761 
L 364.039443 167.579573 
L 365.014382 167.086443 
L 365.339361 167.168632 
L 365.664341 167.415196 
L 366.639279 167.497385 
L 367.289238 167.74395 
L 367.614218 167.908326 
L 368.589156 166.75769 
L 369.239115 166.839879 
L 369.564095 166.922067 
L 370.539034 166.75769 
L 370.864013 166.922067 
L 371.513972 167.497385 
L 372.163931 167.25082 
L 373.13887 166.593314 
L 373.788829 166.511125 
L 374.113808 166.675502 
L 374.763767 167.25082 
L 375.088747 167.25082 
L 375.738706 166.593314 
L 376.063686 166.593314 
L 377.038624 167.25082 
L 378.013563 166.922067 
L 378.338542 166.675502 
L 378.663522 166.593314 
L 378.988501 166.346749 
L 380.938378 166.75769 
L 381.913317 166.428937 
L 382.238296 166.182372 
L 382.563276 166.182372 
L 383.213235 165.935807 
L 383.538215 166.017996 
L 384.838133 167.086443 
L 386.138051 166.839879 
L 386.78801 166.922067 
L 387.762948 165.607054 
L 388.087928 165.607054 
L 388.412907 165.935807 
L 388.737887 165.853619 
L 389.387846 165.196113 
L 389.712826 165.442678 
L 390.362785 166.839879 
L 390.687764 166.75769 
L 391.337723 165.442678 
L 391.662703 165.36049 
L 391.987682 165.853619 
L 392.312662 166.100184 
L 392.962621 165.196113 
L 393.2876 165.113925 
L 394.262539 166.593314 
L 394.587518 166.511125 
L 394.912498 166.100184 
L 396.537396 165.36049 
L 396.862375 165.524866 
L 397.187355 165.935807 
L 397.512334 165.771431 
L 397.837314 165.196113 
L 398.162293 165.031736 
L 398.487273 165.36049 
L 398.487273 165.36049 
" clip-path="url(#pd4c5cb61e0)" style="fill: none; stroke: #1f77b4; stroke-width: 1.5; stroke-linecap: square"/>
   </g>
   <g id="line2d_13">
    <path d="M 73.832727 291.185016 
L 77.407502 291.168579 
L 80.657297 291.176798 
L 82.607174 291.185016 
L 86.831908 291.185016 
L 90.731663 291.185016 
L 95.606355 291.168579 
L 97.231253 291.193235 
L 101.780966 291.185016 
L 398.487273 291.201454 
L 398.487273 291.201454 
" clip-path="url(#pd4c5cb61e0)" style="fill: none; stroke: #ff7f0e; stroke-width: 1.5; stroke-linecap: square"/>
   </g>
   <g id="line2d_14">
    <path d="M 73.832727 54.472071 
L 74.482686 54.307695 
L 74.807666 54.389883 
L 75.132645 54.225506 
L 76.757543 54.307695 
L 77.407502 54.636448 
L 77.732482 54.636448 
L 78.057461 54.800824 
L 79.682359 54.718636 
L 80.007338 54.636448 
L 80.332318 54.389883 
L 81.957215 54.472071 
L 82.932154 54.883012 
L 83.257133 54.965201 
L 84.232072 54.554259 
L 84.557052 54.636448 
L 84.882031 54.472071 
L 85.207011 54.472071 
L 85.53199 54.143318 
L 86.181949 54.389883 
L 86.831908 54.800824 
L 87.481867 54.718636 
L 88.456806 54.965201 
L 89.431744 54.636448 
L 89.756724 54.800824 
L 90.406683 54.636448 
L 90.731663 54.389883 
L 91.381622 54.472071 
L 92.031581 55.047389 
L 92.68154 55.129577 
L 93.006519 55.129577 
L 93.331499 54.883012 
L 93.656478 54.965201 
L 93.981458 54.883012 
L 94.631417 54.307695 
L 94.956396 54.307695 
L 95.931335 54.965201 
L 96.906274 55.047389 
L 97.556233 55.293954 
L 97.881212 55.211766 
L 98.531171 54.472071 
L 98.856151 54.472071 
L 99.50611 54.718636 
L 100.481048 54.554259 
L 101.131007 55.047389 
L 101.455987 55.540519 
L 101.780966 55.540519 
L 102.430925 55.129577 
L 102.755905 55.129577 
L 103.080885 55.293954 
L 103.405864 55.129577 
L 104.055823 54.472071 
L 104.380803 54.389883 
L 104.705782 54.554259 
L 105.355741 55.211766 
L 106.33068 55.047389 
L 106.655659 55.293954 
L 106.980639 55.293954 
L 107.305618 55.129577 
L 107.630598 54.800824 
L 107.955577 54.718636 
L 108.605536 54.800824 
L 109.255495 54.389883 
L 109.580475 54.472071 
L 110.555414 55.45833 
L 111.205373 55.540519 
L 111.530352 55.376142 
L 111.855332 55.45833 
L 112.505291 55.211766 
L 114.130188 54.800824 
L 115.755086 55.622707 
L 116.405045 55.540519 
L 116.730025 55.293954 
L 117.055004 55.211766 
L 117.379984 54.965201 
L 118.354922 55.129577 
L 119.65484 55.129577 
L 119.97982 55.293954 
L 120.629779 55.293954 
L 120.954758 55.45833 
L 121.604717 55.376142 
L 122.254676 54.800824 
L 122.579656 54.636448 
L 123.554595 55.047389 
L 123.879574 55.129577 
L 124.204554 55.047389 
L 125.504472 55.293954 
L 125.829451 55.129577 
L 126.47941 55.129577 
L 127.454349 54.636448 
L 127.779328 54.636448 
L 128.754267 55.129577 
L 129.079247 55.129577 
L 129.729206 54.800824 
L 130.054185 54.883012 
L 130.704144 54.636448 
L 131.029124 54.472071 
L 131.679083 54.718636 
L 132.004062 54.718636 
L 132.329042 54.554259 
L 132.979001 54.554259 
L 133.62896 54.883012 
L 135.253857 54.554259 
L 136.228796 54.636448 
L 136.878755 54.800824 
L 137.203735 54.718636 
L 137.528714 54.389883 
L 138.178673 54.472071 
L 139.478591 54.472071 
L 140.45353 54.883012 
L 141.428468 54.636448 
L 142.078428 54.883012 
L 142.403407 54.718636 
L 142.728387 54.389883 
L 143.378346 54.307695 
L 143.703325 54.472071 
L 144.678264 54.472071 
L 145.003243 54.636448 
L 145.328223 54.554259 
L 145.978182 54.800824 
L 146.628141 54.472071 
L 146.95312 54.636448 
L 147.603079 54.554259 
L 147.928059 54.307695 
L 148.578018 54.307695 
L 148.902998 54.554259 
L 149.552957 54.636448 
L 150.202916 54.965201 
L 150.852875 54.965201 
L 151.827813 54.225506 
L 152.477772 54.472071 
L 152.802752 54.389883 
L 153.127731 54.143318 
L 153.452711 54.06113 
L 153.77769 54.143318 
L 154.427649 54.554259 
L 154.752629 54.636448 
L 155.727568 54.307695 
L 156.052547 54.472071 
L 156.377527 54.307695 
L 156.702506 53.896753 
L 157.027486 53.732377 
L 157.677445 53.978941 
L 158.002424 54.143318 
L 158.327404 53.978941 
L 158.977363 54.143318 
L 159.627322 54.718636 
L 159.952301 54.636448 
L 160.277281 54.389883 
L 160.60226 54.307695 
L 160.92724 53.978941 
L 161.252219 54.06113 
L 161.577199 53.978941 
L 162.227158 53.568 
L 162.552138 53.814565 
L 162.877117 53.896753 
L 163.527076 54.307695 
L 163.852056 54.225506 
L 164.502015 54.307695 
L 165.476953 54.225506 
L 165.801933 54.143318 
L 166.126912 53.896753 
L 166.776871 53.978941 
L 167.101851 53.814565 
L 168.07679 54.143318 
L 168.401769 54.389883 
L 169.051728 54.472071 
L 169.376708 54.389883 
L 169.701687 54.472071 
L 170.351646 54.389883 
L 171.001605 54.307695 
L 171.326585 54.06113 
L 172.626503 54.472071 
L 172.951482 54.718636 
L 173.601441 54.883012 
L 173.926421 54.718636 
L 174.90136 54.718636 
L 175.226339 54.472071 
L 175.876298 54.389883 
L 176.201278 54.554259 
L 176.526257 54.389883 
L 177.501196 54.472071 
L 177.826175 54.636448 
L 178.151155 54.965201 
L 178.801114 54.883012 
L 179.126093 54.636448 
L 179.776052 54.554259 
L 180.101032 54.554259 
L 180.750991 54.225506 
L 181.075971 54.225506 
L 182.050909 54.636448 
L 183.025848 54.718636 
L 183.675807 54.965201 
L 184.000786 54.965201 
L 184.325766 54.718636 
L 185.300704 54.636448 
L 186.600622 54.389883 
L 187.250581 54.800824 
L 187.575561 55.047389 
L 188.875479 54.965201 
L 189.200459 54.800824 
L 189.850418 54.225506 
L 190.175397 54.143318 
L 190.500377 54.472071 
L 191.150336 54.800824 
L 192.125274 54.800824 
L 192.775233 55.211766 
L 193.100213 55.129577 
L 193.750172 54.554259 
L 194.075152 54.472071 
L 195.05009 54.718636 
L 195.37507 54.554259 
L 196.025029 54.636448 
L 196.999967 55.540519 
L 197.649926 55.047389 
L 198.624865 55.047389 
L 198.949844 54.883012 
L 199.274824 54.472071 
L 199.924783 54.389883 
L 200.249762 54.883012 
L 200.574742 55.129577 
L 201.549681 55.047389 
L 202.19964 55.45833 
L 203.174578 54.800824 
L 204.149517 54.800824 
L 204.799476 54.554259 
L 205.124455 54.718636 
L 205.774414 55.540519 
L 206.099394 55.704895 
L 209.349189 54.965201 
L 209.674169 54.965201 
L 210.974087 55.540519 
L 211.624046 55.622707 
L 212.923964 54.883012 
L 213.573923 55.129577 
L 214.548862 54.965201 
L 215.198821 55.293954 
L 215.5238 55.211766 
L 215.84878 55.293954 
L 216.173759 55.211766 
L 216.823718 55.293954 
L 217.148698 55.129577 
L 217.473677 54.800824 
L 218.123636 54.472071 
L 218.773595 54.965201 
L 219.423554 54.883012 
L 220.398493 55.376142 
L 221.373432 54.965201 
L 222.023391 55.047389 
L 222.67335 54.636448 
L 223.323309 54.636448 
L 223.973268 55.129577 
L 224.623227 54.883012 
L 225.598165 54.800824 
L 225.923145 54.554259 
L 226.898084 54.636448 
L 227.223063 54.718636 
L 227.873022 54.636448 
L 228.522981 54.636448 
L 228.847961 54.883012 
L 229.17294 54.883012 
L 229.49792 54.636448 
L 231.447797 54.718636 
L 232.097756 54.800824 
L 232.422735 54.636448 
L 232.747715 54.718636 
L 233.072695 54.554259 
L 233.397674 54.554259 
L 233.722654 54.389883 
L 234.047633 54.472071 
L 234.697592 54.389883 
L 235.347551 54.636448 
L 235.672531 54.800824 
L 235.99751 54.800824 
L 236.32249 54.636448 
L 237.297428 54.800824 
L 238.597346 54.389883 
L 238.922326 54.225506 
L 239.572285 54.472071 
L 239.897265 54.307695 
L 240.222244 54.307695 
L 240.547224 54.554259 
L 240.872203 54.554259 
L 241.197183 54.718636 
L 242.172121 54.554259 
L 242.497101 54.636448 
L 244.121998 54.307695 
L 244.771957 54.554259 
L 245.421916 54.718636 
L 245.746896 54.965201 
L 246.396855 54.883012 
L 246.721835 54.554259 
L 247.371794 54.307695 
L 247.696773 54.472071 
L 248.671712 54.06113 
L 248.996691 54.225506 
L 249.321671 54.225506 
L 249.64665 54.472071 
L 249.97163 54.554259 
L 250.621589 54.307695 
L 251.271548 54.472071 
L 251.596527 54.389883 
L 252.246486 53.814565 
L 252.571466 53.732377 
L 253.221425 54.143318 
L 254.196364 54.143318 
L 254.846323 54.636448 
L 255.171302 54.718636 
L 255.821261 54.225506 
L 256.47122 54.143318 
L 256.7962 54.143318 
L 257.121179 53.814565 
L 257.446159 53.650188 
L 258.096118 53.896753 
L 258.421097 54.143318 
L 259.071057 54.225506 
L 260.045995 54.307695 
L 260.370975 54.389883 
L 260.695954 54.307695 
L 261.020934 54.06113 
L 261.670893 53.978941 
L 262.970811 53.896753 
L 263.62077 54.307695 
L 264.595708 54.554259 
L 264.920688 54.307695 
L 265.570647 54.307695 
L 265.895627 54.143318 
L 266.870565 54.143318 
L 267.195545 54.389883 
L 267.845504 54.472071 
L 268.820442 54.883012 
L 269.795381 54.800824 
L 271.420278 54.472071 
L 272.720197 54.389883 
L 273.370156 54.965201 
L 273.695135 55.047389 
L 274.345094 54.718636 
L 274.995053 54.718636 
L 275.645012 54.472071 
L 276.294971 54.307695 
L 277.26991 54.718636 
L 277.594889 54.800824 
L 277.919869 54.718636 
L 278.569828 54.965201 
L 279.219787 55.129577 
L 279.869746 54.883012 
L 281.819623 54.472071 
L 282.144603 54.636448 
L 282.794562 55.211766 
L 283.7695 55.047389 
L 284.419459 54.965201 
L 285.069419 54.389883 
L 285.719378 54.389883 
L 286.369337 54.883012 
L 287.344275 54.883012 
L 287.994234 55.293954 
L 288.644193 55.047389 
L 288.969173 54.718636 
L 289.294152 54.554259 
L 289.944111 54.636448 
L 290.269091 54.718636 
L 290.91905 54.472071 
L 291.244029 54.636448 
L 291.893989 55.376142 
L 292.218968 55.622707 
L 292.543948 55.540519 
L 292.868927 55.211766 
L 293.518886 54.965201 
L 293.843866 55.211766 
L 294.493825 54.636448 
L 294.818804 54.307695 
L 295.143784 54.389883 
L 295.793743 55.129577 
L 296.443702 55.047389 
L 297.74362 55.376142 
L 298.718559 54.718636 
L 299.043538 54.965201 
L 300.018477 54.472071 
L 300.343456 54.636448 
L 300.993415 55.45833 
L 301.318395 55.376142 
L 301.643374 55.540519 
L 302.618313 55.45833 
L 303.593251 55.211766 
L 303.918231 54.965201 
L 304.89317 54.965201 
L 306.193088 55.540519 
L 307.168026 55.540519 
L 307.817985 54.965201 
L 308.467944 55.047389 
L 308.792924 55.211766 
L 309.117903 55.047389 
L 310.092842 55.047389 
L 311.067781 55.45833 
L 312.692678 54.965201 
L 313.017658 54.636448 
L 313.342637 54.636448 
L 313.992596 54.965201 
L 314.967535 55.047389 
L 315.292514 55.293954 
L 315.942473 55.376142 
L 316.267453 55.293954 
L 316.592432 55.047389 
L 318.21733 54.554259 
L 318.867289 54.965201 
L 319.192269 55.211766 
L 319.517248 55.047389 
L 319.842228 55.047389 
L 320.167207 54.883012 
L 320.817166 54.883012 
L 321.467125 54.636448 
L 323.092023 54.554259 
L 323.417002 54.472071 
L 324.066962 54.883012 
L 324.391941 54.965201 
L 325.0419 54.718636 
L 325.36688 54.554259 
L 326.341818 54.636448 
L 326.991777 54.718636 
L 327.316757 54.636448 
L 327.641736 54.718636 
L 328.616675 54.307695 
L 329.591613 54.472071 
L 329.916593 54.307695 
L 330.566552 54.472071 
L 330.891532 54.718636 
L 332.841409 54.636448 
L 333.166388 54.554259 
L 333.491368 54.307695 
L 333.816347 54.225506 
L 334.141327 54.389883 
L 335.766224 54.472071 
L 336.416183 54.554259 
L 338.041081 54.554259 
L 338.69104 54.225506 
L 339.340999 54.307695 
L 339.990958 54.718636 
L 340.315938 54.636448 
L 340.640917 54.718636 
L 340.965897 54.965201 
L 341.290876 55.047389 
L 341.940835 54.718636 
L 342.265815 54.389883 
L 343.565733 54.389883 
L 343.890713 54.143318 
L 344.215692 54.06113 
L 344.540672 54.225506 
L 344.865651 54.554259 
L 345.190631 54.718636 
L 345.84059 54.307695 
L 346.490549 54.472071 
L 347.140508 54.225506 
L 347.465487 53.896753 
L 348.115446 53.732377 
L 348.440426 54.06113 
L 349.415364 54.06113 
L 350.390303 54.800824 
L 351.040262 54.389883 
L 351.365242 54.143318 
L 351.690221 54.307695 
L 352.34018 54.06113 
L 352.66516 53.814565 
L 353.315119 53.732377 
L 353.640098 54.143318 
L 353.965078 54.307695 
L 354.940016 54.389883 
L 355.589975 54.472071 
L 356.564914 54.06113 
L 358.514791 54.06113 
L 359.16475 54.307695 
L 359.814709 54.472071 
L 361.114627 54.225506 
L 362.739525 54.307695 
L 363.389484 54.718636 
L 363.714464 54.718636 
L 364.039443 54.883012 
L 364.689402 54.883012 
L 365.014382 54.718636 
L 365.664341 54.718636 
L 366.639279 54.307695 
L 367.614218 54.472071 
L 367.939197 54.389883 
L 368.589156 54.883012 
L 369.564095 54.800824 
L 370.214054 54.472071 
L 371.188993 54.389883 
L 371.513972 54.307695 
L 374.438788 54.965201 
L 374.763767 54.965201 
L 375.088747 54.718636 
L 376.063686 54.636448 
L 377.038624 54.472071 
L 377.363604 54.554259 
L 378.013563 55.129577 
L 378.663522 55.211766 
L 379.96344 54.883012 
L 380.613399 54.307695 
L 381.263358 54.718636 
L 381.588337 54.965201 
L 382.563276 54.883012 
L 383.213235 55.293954 
L 383.538215 55.293954 
L 383.863194 55.129577 
L 384.513153 54.554259 
L 384.838133 54.554259 
L 385.163112 54.718636 
L 386.46303 54.636448 
L 387.112989 55.211766 
L 387.437969 55.540519 
L 387.762948 55.540519 
L 388.412907 55.129577 
L 389.062867 55.211766 
L 389.387846 55.129577 
L 390.037805 54.389883 
L 390.687764 54.636448 
L 391.012744 55.047389 
L 391.337723 55.211766 
L 392.312662 55.129577 
L 392.637641 55.376142 
L 392.962621 55.45833 
L 393.937559 54.800824 
L 394.262539 54.965201 
L 395.237477 54.472071 
L 395.562457 54.554259 
L 396.537396 55.622707 
L 397.187355 55.622707 
L 397.512334 55.45833 
L 398.487273 55.376142 
L 398.487273 55.376142 
" clip-path="url(#pd4c5cb61e0)" style="fill: none; stroke: #2ca02c; stroke-width: 1.5; stroke-linecap: square"/>
   </g>
   <g id="line2d_15">
    <path d="M 73.832727 295.455125 
L 398.487273 295.430468 
L 398.487273 295.430468 
" clip-path="url(#pd4c5cb61e0)" style="fill: none; stroke: #d62728; stroke-width: 1.5; stroke-linecap: square"/>
   </g>
   <g id="patch_3">
    <path d="M 57.6 307.584 
L 57.6 41.472 
" style="fill: none; stroke: #000000; stroke-width: 0.8; stroke-linejoin: miter; stroke-linecap: square"/>
   </g>
   <g id="patch_4">
    <path d="M 414.72 307.584 
L 414.72 41.472 
" style="fill: none; stroke: #000000; stroke-width: 0.8; stroke-linejoin: miter; stroke-linecap: square"/>
   </g>
   <g id="patch_5">
    <path d="M 57.6 307.584 
L 414.72 307.584 
" style="fill: none; stroke: #000000; stroke-width: 0.8; stroke-linejoin: miter; stroke-linecap: square"/>
   </g>
   <g id="patch_6">
    <path d="M 57.6 41.472 
L 414.72 41.472 
" style="fill: none; stroke: #000000; stroke-width: 0.8; stroke-linejoin: miter; stroke-linecap: square"/>
   </g>
  </g>
 </g>
 <defs>
  <clipPath id="pd4c5cb61e0">
   <rect x="57.6" y="41.472" width="357.12" height="266.112"/>
  </clipPath>
 </defs>
</svg>
