<?xml version="1.0" encoding="utf-8" standalone="no"?>
<!DOCTYPE svg PUBLIC "-//W3C//DTD SVG 1.1//EN"
  "http://www.w3.org/Graphics/SVG/1.1/DTD/svg11.dtd">
<svg xmlns:xlink="http://www.w3.org/1999/xlink" width="460.8pt" height="345.6pt" viewBox="0 0 460.8 345.6" xmlns="http://www.w3.org/2000/svg" version="1.1">
 <metadata>
  <rdf:RDF xmlns:dc="http://purl.org/dc/elements/1.1/" xmlns:cc="http://creativecommons.org/ns#" xmlns:rdf="http://www.w3.org/1999/02/22-rdf-syntax-ns#">
   <cc:Work>
    <dc:type rdf:resource="http://purl.org/dc/dcmitype/StillImage"/>
    <dc:date>2025-12-30T05:11:57.934453</dc:date>
    <dc:format>image/svg+xml</dc:format>
    <dc:creator>
     <cc:Agent>
      <dc:title>Matplotlib v3.10.8, https://matplotlib.org/</dc:title>
     </cc:Agent>
    </dc:creator>
   </cc:Work>
  </rdf:RDF>
 </metadata>
 <defs>
  <style type="text/css">*{stroke-linejoin: round; stroke-linecap: butt}</style>
 </defs>
 <g id="figure_1">
  <g id="patch_1">
   <path d="M 0 345.6 
L 460.8 345.6 
L 460.8 0 
L 0 0 
z
" style="fill: #ffffff"/>
  </g>
  <g id="axes_1">
   <g id="patch_2">
    <path d="M 57.6 307.584 
L 414.72 307.584 
L 414.72 41.472 
L 57.6 41.472 
z
" style="fill: #ffffff"/>
   </g>
   <g id="matplotlib.axis_1">
    <g id="xtick_1">
     <g id="line2d_1">
      <defs>
       <path id="m7272b320dc" d="M 0 0 
L 0 3.5 
" style="stroke: #000000; stroke-width: 0.8"/>
      </defs>
      <g>
       <use xlink:href="#m7272b320dc" x="73.832727" y="307.584" style="stroke: #000000; stroke-width: 0.8"/>
      </g>
     </g>
     <g id="text_1">
      <!-- 0 -->
      <g transform="translate(70.651477 322.182437) scale(0.1 -0.1)">
       <defs>
        <path id="DejaVuSans-30" d="M 2034 4250 
Q 1547 4250 1301 3770 
Q 1056 3291 1056 2328 
Q 1056 1369 1301 889 
Q 1547 409 2034 409 
Q 2525 409 2770 889 
Q 3016 1369 3016 2328 
Q 3016 3291 2770 3770 
Q 2525 4250 2034 4250 
z
M 2034 4750 
Q 2819 4750 3233 4129 
Q 3647 3509 3647 2328 
Q 3647 1150 3233 529 
Q 2819 -91 2034 -91 
Q 1250 -91 836 529 
Q 422 1150 422 2328 
Q 422 3509 836 4129 
Q 1250 4750 2034 4750 
z
" transform="scale(0.015625)"/>
       </defs>
       <use xlink:href="#DejaVuSans-30"/>
      </g>
     </g>
    </g>
    <g id="xtick_2">
     <g id="line2d_2">
      <g>
       <use xlink:href="#m7272b320dc" x="138.828632" y="307.584" style="stroke: #000000; stroke-width: 0.8"/>
      </g>
     </g>
     <g id="text_2">
      <!-- 1 -->
      <g transform="translate(135.647382 322.182437) scale(0.1 -0.1)">
       <defs>
        <path id="DejaVuSans-31" d="M 794 531 
L 1825 531 
L 1825 4091 
L 703 3866 
L 703 4441 
L 1819 4666 
L 2450 4666 
L 2450 531 
L 3481 531 
L 3481 0 
L 794 0 
L 794 531 
z
" transform="scale(0.015625)"/>
       </defs>
       <use xlink:href="#DejaVuSans-31"/>
      </g>
     </g>
    </g>
    <g id="xtick_3">
     <g id="line2d_3">
      <g>
       <use xlink:href="#m7272b320dc" x="203.824537" y="307.584" style="stroke: #000000; stroke-width: 0.8"/>
      </g>
     </g>
     <g id="text_3">
      <!-- 2 -->
      <g transform="translate(200.643287 322.182437) scale(0.1 -0.1)">
       <defs>
        <path id="DejaVuSans-32" d="M 1228 531 
L 3431 531 
L 3431 0 
L 469 0 
L 469 531 
Q 828 903 1448 1529 
Q 2069 2156 2228 2338 
Q 2531 2678 2651 2914 
Q 2772 3150 2772 3378 
Q 2772 3750 2511 3984 
Q 2250 4219 1831 4219 
Q 1534 4219 1204 4116 
Q 875 4013 500 3803 
L 500 4441 
Q 881 4594 1212 4672 
Q 1544 4750 1819 4750 
Q 2544 4750 2975 4387 
Q 3406 4025 3406 3419 
Q 3406 3131 3298 2873 
Q 3191 2616 2906 2266 
Q 2828 2175 2409 1742 
Q 1991 1309 1228 531 
z
" transform="scale(0.015625)"/>
       </defs>
       <use xlink:href="#DejaVuSans-32"/>
      </g>
     </g>
    </g>
    <g id="xtick_4">
     <g id="line2d_4">
      <g>
       <use xlink:href="#m7272b320dc" x="268.820442" y="307.584" style="stroke: #000000; stroke-width: 0.8"/>
      </g>
     </g>
     <g id="text_4">
      <!-- 3 -->
      <g transform="translate(265.639192 322.182437) scale(0.1 -0.1)">
       <defs>
        <path id="DejaVuSans-33" d="M 2597 2516 
Q 3050 2419 3304 2112 
Q 3559 1806 3559 1356 
Q 3559 666 3084 287 
Q 2609 -91 1734 -91 
Q 1441 -91 1130 -33 
Q 819 25 488 141 
L 488 750 
Q 750 597 1062 519 
Q 1375 441 1716 441 
Q 2309 441 2620 675 
Q 2931 909 2931 1356 
Q 2931 1769 2642 2001 
Q 2353 2234 1838 2234 
L 1294 2234 
L 1294 2753 
L 1863 2753 
Q 2328 2753 2575 2939 
Q 2822 3125 2822 3475 
Q 2822 3834 2567 4026 
Q 2313 4219 1838 4219 
Q 1578 4219 1281 4162 
Q 984 4106 628 3988 
L 628 4550 
Q 988 4650 1302 4700 
Q 1616 4750 1894 4750 
Q 2613 4750 3031 4423 
Q 3450 4097 3450 3541 
Q 3450 3153 3228 2886 
Q 3006 2619 2597 2516 
z
" transform="scale(0.015625)"/>
       </defs>
       <use xlink:href="#DejaVuSans-33"/>
      </g>
     </g>
    </g>
    <g id="xtick_5">
     <g id="line2d_5">
      <g>
       <use xlink:href="#m7272b320dc" x="333.816347" y="307.584" style="stroke: #000000; stroke-width: 0.8"/>
      </g>
     </g>
     <g id="text_5">
      <!-- 4 -->
      <g transform="translate(330.635097 322.182437) scale(0.1 -0.1)">
       <defs>
        <path id="DejaVuSans-34" d="M 2419 4116 
L 825 1625 
L 2419 1625 
L 2419 4116 
z
M 2253 4666 
L 3047 4666 
L 3047 1625 
L 3713 1625 
L 3713 1100 
L 3047 1100 
L 3047 0 
L 2419 0 
L 2419 1100 
L 313 1100 
L 313 1709 
L 2253 4666 
z
" transform="scale(0.015625)"/>
       </defs>
       <use xlink:href="#DejaVuSans-34"/>
      </g>
     </g>
    </g>
    <g id="xtick_6">
     <g id="line2d_6">
      <g>
       <use xlink:href="#m7272b320dc" x="398.812252" y="307.584" style="stroke: #000000; stroke-width: 0.8"/>
      </g>
     </g>
     <g id="text_6">
      <!-- 5 -->
      <g transform="translate(395.631002 322.182437) scale(0.1 -0.1)">
       <defs>
        <path id="DejaVuSans-35" d="M 691 4666 
L 3169 4666 
L 3169 4134 
L 1269 4134 
L 1269 2991 
Q 1406 3038 1543 3061 
Q 1681 3084 1819 3084 
Q 2600 3084 3056 2656 
Q 3513 2228 3513 1497 
Q 3513 744 3044 326 
Q 2575 -91 1722 -91 
Q 1428 -91 1123 -41 
Q 819 9 494 109 
L 494 744 
Q 775 591 1075 516 
Q 1375 441 1709 441 
Q 2250 441 2565 725 
Q 2881 1009 2881 1497 
Q 2881 1984 2565 2268 
Q 2250 2553 1709 2553 
Q 1456 2553 1204 2497 
Q 953 2441 691 2322 
L 691 4666 
z
" transform="scale(0.015625)"/>
       </defs>
       <use xlink:href="#DejaVuSans-35"/>
      </g>
     </g>
    </g>
    <g id="text_7">
     <!-- 1e−7 -->
     <g transform="translate(387.462188 334.860562) scale(0.1 -0.1)">
      <defs>
       <path id="DejaVuSans-65" d="M 3597 1894 
L 3597 1613 
L 953 1613 
Q 991 1019 1311 708 
Q 1631 397 2203 397 
Q 2534 397 2845 478 
Q 3156 559 3463 722 
L 3463 178 
Q 3153 47 2828 -22 
Q 2503 -91 2169 -91 
Q 1331 -91 842 396 
Q 353 884 353 1716 
Q 353 2575 817 3079 
Q 1281 3584 2069 3584 
Q 2775 3584 3186 3129 
Q 3597 2675 3597 1894 
z
M 3022 2063 
Q 3016 2534 2758 2815 
Q 2500 3097 2075 3097 
Q 1594 3097 1305 2825 
Q 1016 2553 972 2059 
L 3022 2063 
z
" transform="scale(0.015625)"/>
       <path id="DejaVuSans-2212" d="M 678 2272 
L 4684 2272 
L 4684 1741 
L 678 1741 
L 678 2272 
z
" transform="scale(0.015625)"/>
       <path id="DejaVuSans-37" d="M 525 4666 
L 3525 4666 
L 3525 4397 
L 1831 0 
L 1172 0 
L 2766 4134 
L 525 4134 
L 525 4666 
z
" transform="scale(0.015625)"/>
      </defs>
      <use xlink:href="#DejaVuSans-31"/>
      <use xlink:href="#DejaVuSans-65" transform="translate(63.623047 0)"/>
      <use xlink:href="#DejaVuSans-2212" transform="translate(125.146484 0)"/>
      <use xlink:href="#DejaVuSans-37" transform="translate(208.935547 0)"/>
     </g>
    </g>
   </g>
   <g id="matplotlib.axis_2">
    <g id="ytick_1">
     <g id="line2d_7">
      <defs>
       <path id="m2f179ca0ed" d="M 0 0 
L -3.5 0 
" style="stroke: #000000; stroke-width: 0.8"/>
      </defs>
      <g>
       <use xlink:href="#m2f179ca0ed" x="57.6" y="299.281348" style="stroke: #000000; stroke-width: 0.8"/>
      </g>
     </g>
     <g id="text_8">
      <!-- 0 -->
      <g transform="translate(44.2375 303.080566) scale(0.1 -0.1)">
       <use xlink:href="#DejaVuSans-30"/>
      </g>
     </g>
    </g>
    <g id="ytick_2">
     <g id="line2d_8">
      <g>
       <use xlink:href="#m2f179ca0ed" x="57.6" y="245.974045" style="stroke: #000000; stroke-width: 0.8"/>
      </g>
     </g>
     <g id="text_9">
      <!-- 10 -->
      <g transform="translate(37.875 249.773264) scale(0.1 -0.1)">
       <use xlink:href="#DejaVuSans-31"/>
       <use xlink:href="#DejaVuSans-30" transform="translate(63.623047 0)"/>
      </g>
     </g>
    </g>
    <g id="ytick_3">
     <g id="line2d_9">
      <g>
       <use xlink:href="#m2f179ca0ed" x="57.6" y="192.666743" style="stroke: #000000; stroke-width: 0.8"/>
      </g>
     </g>
     <g id="text_10">
      <!-- 20 -->
      <g transform="translate(37.875 196.465961) scale(0.1 -0.1)">
       <use xlink:href="#DejaVuSans-32"/>
       <use xlink:href="#DejaVuSans-30" transform="translate(63.623047 0)"/>
      </g>
     </g>
    </g>
    <g id="ytick_4">
     <g id="line2d_10">
      <g>
       <use xlink:href="#m2f179ca0ed" x="57.6" y="139.35944" style="stroke: #000000; stroke-width: 0.8"/>
      </g>
     </g>
     <g id="text_11">
      <!-- 30 -->
      <g transform="translate(37.875 143.158659) scale(0.1 -0.1)">
       <use xlink:href="#DejaVuSans-33"/>
       <use xlink:href="#DejaVuSans-30" transform="translate(63.623047 0)"/>
      </g>
     </g>
    </g>
    <g id="ytick_5">
     <g id="line2d_11">
      <g>
       <use xlink:href="#m2f179ca0ed" x="57.6" y="86.052138" style="stroke: #000000; stroke-width: 0.8"/>
      </g>
     </g>
     <g id="text_12">
      <!-- 40 -->
      <g transform="translate(37.875 89.851356) scale(0.1 -0.1)">
       <use xlink:href="#DejaVuSans-34"/>
       <use xlink:href="#DejaVuSans-30" transform="translate(63.623047 0)"/>
      </g>
     </g>
    </g>
   </g>
   <g id="line2d_12">
    <path d="M 73.832727 169.890531 
L 74.482686 169.640653 
L 75.132645 170.306995 
L 75.457625 170.306995 
L 76.107584 169.557361 
L 77.082523 169.723946 
L 77.732482 169.057605 
L 78.057461 169.140897 
L 78.70742 169.890531 
L 79.0324 169.973824 
L 79.682359 169.390775 
L 80.007338 169.640653 
L 80.332318 170.057117 
L 80.657297 170.057117 
L 81.307256 169.307483 
L 81.632236 169.390775 
L 82.282195 169.807239 
L 82.607174 169.723946 
L 83.582113 169.057605 
L 83.907093 169.390775 
L 84.232072 169.474068 
L 84.882031 169.22419 
L 85.85697 169.973824 
L 86.181949 169.723946 
L 86.831908 168.891019 
L 87.156888 169.057605 
L 87.806847 169.890531 
L 88.131826 169.890531 
L 88.781785 169.307483 
L 89.756724 169.307483 
L 90.081704 168.891019 
L 90.406683 168.724434 
L 90.731663 168.891019 
L 91.381622 169.557361 
L 92.35656 169.640653 
L 93.006519 169.890531 
L 93.981458 169.140897 
L 94.956396 169.140897 
L 95.281376 168.724434 
L 95.606355 168.641141 
L 95.931335 168.807727 
L 96.581294 169.973824 
L 96.906274 170.057117 
L 97.556233 169.390775 
L 98.206192 169.973824 
L 98.531171 169.807239 
L 99.18113 169.140897 
L 99.50611 169.140897 
L 99.831089 169.390775 
L 100.156069 169.807239 
L 100.806028 169.390775 
L 101.131007 169.390775 
L 101.780966 170.47358 
L 102.105946 170.223702 
L 102.755905 169.057605 
L 103.080885 169.22419 
L 103.730844 170.223702 
L 104.055823 169.973824 
L 104.705782 168.724434 
L 105.030762 169.057605 
L 105.355741 169.890531 
L 105.680721 170.390287 
L 106.0057 170.306995 
L 106.33068 170.057117 
L 106.980639 170.306995 
L 107.305618 170.057117 
L 107.955577 168.891019 
L 108.280557 168.974312 
L 108.930516 169.807239 
L 109.255495 169.723946 
L 109.580475 169.390775 
L 109.905455 169.22419 
L 110.230434 169.807239 
L 110.555414 170.640165 
L 110.880393 170.723458 
L 111.530352 169.307483 
L 111.855332 169.390775 
L 112.505291 170.223702 
L 112.83027 169.807239 
L 113.15525 168.974312 
L 113.480229 168.807727 
L 113.805209 169.140897 
L 114.130188 169.723946 
L 114.455168 169.973824 
L 115.105127 169.640653 
L 115.430106 169.890531 
L 116.080066 170.890043 
L 116.405045 170.640165 
L 117.055004 169.557361 
L 117.379984 169.474068 
L 117.704963 169.557361 
L 118.029943 169.474068 
L 118.354922 168.974312 
L 118.679902 168.724434 
L 119.004881 169.22419 
L 119.329861 170.47358 
L 119.65484 171.056629 
L 119.97982 170.890043 
L 120.629779 169.807239 
L 120.954758 169.890531 
L 121.279738 170.140409 
L 121.604717 170.223702 
L 122.254676 169.140897 
L 122.579656 169.057605 
L 123.554595 170.140409 
L 123.879574 170.057117 
L 124.204554 170.140409 
L 124.854513 170.723458 
L 125.179492 170.556873 
L 125.829451 169.723946 
L 126.154431 169.723946 
L 126.80439 169.973824 
L 127.129369 169.723946 
L 127.779328 169.723946 
L 128.429287 170.723458 
L 129.404226 170.057117 
L 130.379165 170.057117 
L 131.029124 169.807239 
L 131.354103 169.807239 
L 132.004062 170.223702 
L 132.654021 170.140409 
L 132.979001 169.973824 
L 133.62896 169.890531 
L 133.953939 169.640653 
L 134.603898 169.723946 
L 134.928878 170.057117 
L 135.253857 170.223702 
L 135.903817 170.140409 
L 136.228796 170.057117 
L 137.203735 170.306995 
L 137.528714 170.057117 
L 137.853694 169.640653 
L 138.178673 169.474068 
L 139.153612 169.390775 
L 139.803571 169.807239 
L 140.12855 169.723946 
L 140.45353 169.474068 
L 140.778509 169.390775 
L 142.403407 169.890531 
L 142.728387 169.723946 
L 143.053366 169.807239 
L 143.703325 170.306995 
L 144.028305 170.057117 
L 144.353284 169.640653 
L 145.328223 169.390775 
L 145.978182 169.557361 
L 146.303161 169.22419 
L 146.628141 169.057605 
L 147.928059 169.973824 
L 148.902998 169.973824 
L 149.877936 169.474068 
L 151.177854 169.474068 
L 151.502834 169.140897 
L 151.827813 169.057605 
L 152.152793 169.22419 
L 152.802752 169.973824 
L 153.127731 170.057117 
L 153.77769 169.807239 
L 154.10267 169.557361 
L 155.402588 169.557361 
L 156.052547 169.807239 
L 156.377527 169.890531 
L 157.677445 169.22419 
L 158.652383 169.723946 
L 159.302342 169.140897 
L 159.952301 169.307483 
L 160.277281 169.723946 
L 160.92724 170.140409 
L 161.902179 169.640653 
L 162.552138 170.306995 
L 162.877117 170.390287 
L 163.202097 170.140409 
L 163.527076 169.723946 
L 164.177035 169.307483 
L 164.826994 168.891019 
L 165.151974 168.891019 
L 165.476953 169.140897 
L 166.126912 170.306995 
L 166.451892 170.140409 
L 167.101851 169.390775 
L 167.42683 169.557361 
L 168.07679 170.390287 
L 168.401769 170.306995 
L 168.726749 169.723946 
L 169.376708 169.640653 
L 169.701687 169.807239 
L 170.026667 169.640653 
L 170.351646 169.140897 
L 170.676626 169.140897 
L 171.001605 169.307483 
L 171.326585 169.807239 
L 171.651564 170.057117 
L 171.976544 169.890531 
L 172.301523 169.474068 
L 172.626503 169.474068 
L 173.276462 170.057117 
L 173.601441 169.973824 
L 174.2514 169.307483 
L 174.57638 169.390775 
L 174.90136 169.723946 
L 175.226339 169.807239 
L 176.201278 169.057605 
L 177.176216 169.474068 
L 177.501196 169.140897 
L 177.826175 169.22419 
L 178.476134 169.890531 
L 178.801114 169.973824 
L 179.126093 169.640653 
L 179.451073 169.140897 
L 179.776052 168.891019 
L 180.101032 169.22419 
L 180.426011 169.807239 
L 180.750991 169.973824 
L 181.075971 169.890531 
L 181.72593 169.307483 
L 182.375889 169.390775 
L 183.025848 168.891019 
L 183.350827 168.807727 
L 183.675807 168.974312 
L 184.000786 169.390775 
L 185.950663 169.890531 
L 186.275643 169.640653 
L 186.600622 169.140897 
L 186.925602 169.057605 
L 187.250581 169.22419 
L 187.575561 169.22419 
L 188.22552 168.724434 
L 188.5505 168.724434 
L 188.875479 168.974312 
L 189.525438 170.057117 
L 189.850418 169.973824 
L 190.175397 169.640653 
L 190.500377 169.474068 
L 190.825356 169.807239 
L 191.150336 169.890531 
L 192.450254 168.974312 
L 192.775233 169.557361 
L 193.100213 169.807239 
L 193.750172 169.390775 
L 194.075152 169.474068 
L 194.400131 170.223702 
L 194.725111 170.47358 
L 195.05009 170.140409 
L 195.37507 169.474068 
L 195.700049 169.140897 
L 196.025029 169.390775 
L 196.674988 170.223702 
L 196.999967 169.807239 
L 197.324947 169.057605 
L 197.649926 168.807727 
L 198.299885 170.223702 
L 198.624865 170.47358 
L 198.949844 170.223702 
L 199.274824 170.140409 
L 199.599803 170.390287 
L 199.924783 170.390287 
L 200.574742 169.390775 
L 200.899722 168.891019 
L 201.87466 169.973824 
L 202.524619 169.390775 
L 202.849599 169.474068 
L 203.499558 170.806751 
L 203.824537 170.723458 
L 204.149517 169.890531 
L 204.474496 169.390775 
L 204.799476 169.640653 
L 205.124455 170.140409 
L 205.449435 170.223702 
L 205.774414 169.807239 
L 206.099394 169.057605 
L 206.424373 168.807727 
L 206.749353 169.22419 
L 207.074333 169.973824 
L 207.399312 170.057117 
L 208.049271 169.723946 
L 209.02421 170.973336 
L 209.999148 169.474068 
L 210.324128 169.390775 
L 210.649107 169.557361 
L 210.974087 169.390775 
L 211.299066 168.807727 
L 211.624046 168.807727 
L 211.949025 169.474068 
L 212.274005 170.640165 
L 212.598984 171.056629 
L 212.923964 170.723458 
L 213.248943 170.140409 
L 213.573923 169.890531 
L 213.898903 169.973824 
L 214.223882 170.223702 
L 214.548862 169.973824 
L 215.198821 169.140897 
L 215.5238 169.22419 
L 216.173759 170.140409 
L 216.498739 170.223702 
L 216.823718 169.973824 
L 217.148698 170.140409 
L 217.473677 170.640165 
L 217.798657 170.723458 
L 218.448616 169.973824 
L 218.773595 169.723946 
L 219.098575 169.640653 
L 219.748534 169.890531 
L 220.398493 169.640653 
L 220.723473 169.807239 
L 221.373432 170.640165 
L 222.34837 169.973824 
L 222.998329 169.890531 
L 223.323309 169.890531 
L 223.973268 169.640653 
L 224.298247 169.723946 
L 224.623227 170.057117 
L 224.948206 170.223702 
L 227.223063 169.640653 
L 227.873022 170.057117 
L 228.198002 170.223702 
L 229.49792 170.223702 
L 229.822899 170.47358 
L 230.147879 170.390287 
L 230.797838 169.723946 
L 231.122817 169.557361 
L 232.097756 169.557361 
L 232.422735 169.723946 
L 233.072695 169.807239 
L 233.397674 169.474068 
L 234.047633 169.557361 
L 234.697592 169.807239 
L 235.347551 169.890531 
L 235.672531 169.640653 
L 236.647469 170.390287 
L 236.972449 170.140409 
L 237.297428 169.723946 
L 237.947387 169.474068 
L 238.922326 169.640653 
L 239.247305 169.390775 
L 239.572285 169.307483 
L 239.897265 169.390775 
L 240.222244 169.723946 
L 240.872203 170.057117 
L 241.847142 170.057117 
L 242.497101 169.640653 
L 243.472039 169.474068 
L 244.121998 169.390775 
L 244.446978 169.140897 
L 244.771957 169.057605 
L 245.421916 169.640653 
L 245.746896 169.973824 
L 246.071876 170.057117 
L 247.046814 169.640653 
L 247.371794 169.557361 
L 247.696773 169.640653 
L 248.346732 169.557361 
L 248.671712 169.807239 
L 248.996691 169.890531 
L 249.97163 169.557361 
L 250.296609 169.307483 
L 250.621589 169.307483 
L 251.271548 169.557361 
L 251.596527 169.640653 
L 251.921507 169.390775 
L 252.571466 169.22419 
L 253.871384 170.140409 
L 254.521343 169.723946 
L 254.846323 169.807239 
L 255.496282 170.306995 
L 255.821261 170.390287 
L 256.146241 170.140409 
L 256.47122 169.723946 
L 257.121179 169.307483 
L 257.446159 169.057605 
L 257.771138 168.974312 
L 258.096118 169.057605 
L 259.071057 170.47358 
L 260.045995 169.557361 
L 260.695954 170.223702 
L 261.020934 170.390287 
L 261.345913 170.140409 
L 261.670893 169.723946 
L 261.995872 169.557361 
L 262.645831 169.807239 
L 262.970811 169.640653 
L 263.29579 169.22419 
L 263.62077 169.140897 
L 263.945749 169.390775 
L 264.270729 169.890531 
L 264.595708 170.057117 
L 264.920688 169.890531 
L 265.245667 169.474068 
L 265.570647 169.557361 
L 266.220606 170.223702 
L 266.545586 170.057117 
L 266.870565 169.474068 
L 267.195545 169.307483 
L 267.520524 169.474068 
L 267.845504 169.807239 
L 268.170483 169.890531 
L 269.145422 169.140897 
L 269.470401 169.390775 
L 269.795381 169.474068 
L 270.770319 169.307483 
L 271.420278 169.973824 
L 271.745258 170.057117 
L 272.395217 168.974312 
L 272.720197 168.891019 
L 273.370156 169.890531 
L 273.695135 169.973824 
L 274.020115 169.807239 
L 274.345094 169.390775 
L 274.995053 169.307483 
L 275.320033 169.307483 
L 275.645012 168.974312 
L 275.969992 168.807727 
L 276.294971 168.891019 
L 276.619951 169.140897 
L 276.94493 169.557361 
L 277.919869 169.557361 
L 278.569828 169.890531 
L 278.894808 169.807239 
L 279.219787 169.557361 
L 279.544767 169.057605 
L 280.194726 169.140897 
L 280.519705 169.140897 
L 280.844685 168.807727 
L 281.169664 168.641141 
L 281.494644 168.641141 
L 281.819623 169.057605 
L 282.144603 169.723946 
L 282.469582 170.057117 
L 282.794562 170.057117 
L 283.119541 169.640653 
L 283.444521 169.640653 
L 283.7695 169.890531 
L 284.09448 169.890531 
L 284.419459 169.640653 
L 284.744439 169.22419 
L 285.069419 169.057605 
L 285.394398 169.140897 
L 285.719378 169.640653 
L 286.044357 169.723946 
L 286.369337 169.474068 
L 286.694316 169.390775 
L 287.019296 169.723946 
L 287.344275 170.306995 
L 287.669255 170.390287 
L 288.644193 169.22419 
L 288.969173 169.474068 
L 289.294152 170.057117 
L 289.619132 170.223702 
L 290.269091 168.891019 
L 290.59407 168.807727 
L 291.244029 170.306995 
L 291.569009 170.47358 
L 291.893989 170.140409 
L 292.218968 170.057117 
L 292.543948 170.306995 
L 292.868927 170.306995 
L 293.843866 168.974312 
L 294.168845 169.22419 
L 294.493825 169.723946 
L 294.818804 169.807239 
L 295.468763 169.307483 
L 295.793743 169.474068 
L 296.443702 170.890043 
L 296.768681 170.47358 
L 297.093661 169.640653 
L 297.41864 169.307483 
L 298.0686 170.057117 
L 298.393579 170.057117 
L 299.043538 168.974312 
L 299.368518 168.974312 
L 300.018477 169.973824 
L 300.343456 169.973824 
L 300.668436 169.807239 
L 300.993415 169.807239 
L 301.643374 170.723458 
L 301.968354 170.723458 
L 302.943292 169.474068 
L 303.268272 169.390775 
L 303.593251 169.557361 
L 304.24321 168.807727 
L 304.56819 168.974312 
L 305.218149 170.806751 
L 305.543129 170.973336 
L 305.868108 170.556873 
L 306.193088 169.890531 
L 306.518067 169.807239 
L 307.168026 170.057117 
L 307.493006 169.807239 
L 307.817985 169.307483 
L 308.142965 169.057605 
L 308.467944 169.140897 
L 308.792924 169.807239 
L 309.117903 170.140409 
L 309.442883 170.140409 
L 309.767862 169.973824 
L 310.417821 170.640165 
L 311.067781 170.223702 
L 311.39276 169.807239 
L 311.71774 169.640653 
L 312.367699 169.890531 
L 313.017658 169.557361 
L 313.342637 169.640653 
L 313.667617 169.973824 
L 313.992596 170.556873 
L 314.317576 170.640165 
L 315.292514 169.890531 
L 315.942473 169.807239 
L 316.267453 169.890531 
L 316.917412 169.640653 
L 317.892351 170.140409 
L 320.167207 169.640653 
L 320.817166 170.057117 
L 321.142146 170.223702 
L 321.467125 170.223702 
L 321.792105 170.057117 
L 322.442064 170.306995 
L 322.767043 170.47358 
L 323.092023 170.306995 
L 323.741982 169.640653 
L 324.066962 169.474068 
L 324.391941 169.557361 
L 324.716921 169.474068 
L 325.36688 169.807239 
L 325.691859 169.807239 
L 326.016839 169.640653 
L 326.341818 169.307483 
L 326.666798 169.557361 
L 326.991777 169.557361 
L 327.316757 169.723946 
L 327.641736 169.723946 
L 327.966716 169.890531 
L 328.616675 169.640653 
L 329.591613 170.306995 
L 330.241572 169.640653 
L 330.566552 169.640653 
L 331.216511 169.390775 
L 331.86647 169.474068 
L 332.19145 169.22419 
L 332.516429 169.22419 
L 332.841409 169.474068 
L 333.166388 169.890531 
L 334.791286 169.973824 
L 335.116265 169.640653 
L 335.441245 169.474068 
L 336.416183 169.390775 
L 337.716102 169.057605 
L 338.366061 169.723946 
L 338.69104 169.973824 
L 339.01602 169.973824 
L 339.990958 169.557361 
L 340.640917 169.640653 
L 340.965897 169.557361 
L 341.615856 169.807239 
L 342.590794 169.723946 
L 343.565733 169.307483 
L 343.890713 169.390775 
L 344.215692 169.640653 
L 344.540672 169.640653 
L 344.865651 169.22419 
L 345.51561 169.307483 
L 346.490549 170.140409 
L 346.815528 170.140409 
L 347.140508 169.890531 
L 347.465487 169.807239 
L 347.790467 169.973824 
L 348.115446 170.390287 
L 348.440426 170.556873 
L 348.765405 170.390287 
L 350.065324 169.140897 
L 350.715283 168.974312 
L 351.365242 169.474068 
L 351.690221 170.140409 
L 352.015201 170.223702 
L 352.990139 169.474068 
L 353.640098 170.306995 
L 353.965078 170.390287 
L 354.615037 169.557361 
L 354.940016 169.557361 
L 355.264996 169.723946 
L 355.589975 169.723946 
L 355.914955 169.390775 
L 356.239934 169.22419 
L 356.564914 169.22419 
L 357.214873 169.973824 
L 357.539853 169.973824 
L 358.189812 169.474068 
L 358.514791 169.640653 
L 358.839771 170.057117 
L 359.16475 170.140409 
L 359.814709 169.390775 
L 360.139689 169.307483 
L 360.464668 169.474068 
L 360.789648 169.807239 
L 361.114627 169.807239 
L 361.439607 169.557361 
L 361.764586 169.140897 
L 362.089566 169.140897 
L 362.414545 169.474068 
L 362.739525 169.557361 
L 363.389484 169.140897 
L 363.714464 169.307483 
L 364.039443 169.807239 
L 364.364423 170.057117 
L 364.689402 169.890531 
L 365.339361 169.057605 
L 365.664341 169.140897 
L 366.3143 170.140409 
L 366.964259 169.890531 
L 367.289238 169.474068 
L 367.939197 169.390775 
L 368.264177 169.390775 
L 368.914136 168.807727 
L 369.239115 168.891019 
L 369.889075 169.557361 
L 370.864013 169.557361 
L 371.513972 169.973824 
L 371.838952 169.890531 
L 372.488911 169.22419 
L 372.81389 169.307483 
L 373.463849 169.140897 
L 374.113808 168.724434 
L 374.438788 168.891019 
L 375.088747 169.890531 
L 375.413726 170.140409 
L 376.063686 169.557361 
L 376.713645 169.973824 
L 377.038624 169.890531 
L 377.688583 169.22419 
L 378.013563 169.057605 
L 378.338542 169.140897 
L 378.663522 169.723946 
L 378.988501 169.807239 
L 379.313481 169.557361 
L 379.63846 169.474068 
L 380.288419 170.390287 
L 380.613399 170.306995 
L 381.263358 169.22419 
L 381.588337 169.307483 
L 381.913317 169.640653 
L 382.238296 170.140409 
L 382.563276 169.973824 
L 383.213235 168.807727 
L 383.538215 168.974312 
L 383.863194 169.890531 
L 384.188174 170.390287 
L 384.838133 170.057117 
L 385.163112 170.140409 
L 385.488092 170.390287 
L 385.813071 170.140409 
L 386.138051 169.723946 
L 386.46303 169.057605 
L 386.78801 169.140897 
L 387.437969 169.890531 
L 387.762948 169.807239 
L 388.412907 169.390775 
L 388.737887 169.723946 
L 389.062867 170.723458 
L 389.387846 170.806751 
L 390.037805 169.474068 
L 390.362785 169.390775 
L 391.012744 170.223702 
L 391.337723 170.057117 
L 391.662703 169.307483 
L 391.987682 168.974312 
L 392.312662 169.140897 
L 392.962621 170.140409 
L 393.61258 169.723946 
L 393.937559 169.890531 
L 394.587518 170.973336 
L 394.912498 170.806751 
L 395.562457 169.640653 
L 395.887437 169.474068 
L 396.212416 169.640653 
L 396.537396 169.640653 
L 397.187355 168.724434 
L 397.512334 169.140897 
L 397.837314 170.223702 
L 398.162293 170.890043 
L 398.487273 170.890043 
L 398.487273 170.890043 
" clip-path="url(#p0491f085e9)" style="fill: none; stroke: #1f77b4; stroke-width: 1.5; stroke-linecap: square"/>
   </g>
   <g id="line2d_13">
    <path d="M 73.832727 291.215553 
L 398.487273 291.282187 
L 398.487273 291.282187 
" clip-path="url(#p0491f085e9)" style="fill: none; stroke: #ff7f0e; stroke-width: 1.5; stroke-linecap: square"/>
   </g>
   <g id="line2d_14">
    <path d="M 73.832727 54.983975 
L 75.132645 54.650805 
L 75.457625 54.734097 
L 75.782604 54.567512 
L 78.382441 54.567512 
L 79.0324 55.233853 
L 79.357379 55.233853 
L 80.007338 54.983975 
L 80.657297 54.81739 
L 80.982277 54.484219 
L 81.307256 54.400927 
L 81.632236 54.151049 
L 81.957215 54.234341 
L 83.257133 55.233853 
L 83.582113 55.067268 
L 83.907093 55.150561 
L 84.557052 54.81739 
L 84.882031 54.81739 
L 85.207011 54.983975 
L 85.53199 54.81739 
L 85.85697 54.900683 
L 86.181949 54.650805 
L 86.831908 54.400927 
L 87.481867 54.734097 
L 88.131826 55.483731 
L 88.456806 55.650317 
L 88.781785 55.400439 
L 89.106765 55.317146 
L 90.081704 54.317634 
L 90.731663 54.317634 
L 91.056642 54.484219 
L 91.381622 54.484219 
L 92.68154 55.733609 
L 93.006519 55.983487 
L 93.656478 56.06678 
L 95.281376 54.151049 
L 95.931335 54.317634 
L 96.256314 54.567512 
L 96.581294 54.650805 
L 96.906274 55.233853 
L 97.556233 55.900195 
L 98.856151 55.483731 
L 99.50611 54.400927 
L 100.156069 54.151049 
L 100.481048 54.400927 
L 100.806028 55.067268 
L 101.455987 55.650317 
L 102.105946 55.733609 
L 102.755905 55.816902 
L 103.730844 54.650805 
L 104.380803 54.650805 
L 105.355741 53.984463 
L 105.680721 54.234341 
L 106.0057 55.067268 
L 106.655659 55.983487 
L 106.980639 55.983487 
L 107.305618 56.150073 
L 107.955577 55.567024 
L 108.930516 53.568 
L 109.580475 54.567512 
L 109.905455 55.233853 
L 110.230434 55.317146 
L 110.555414 55.233853 
L 110.880393 55.317146 
L 111.205373 55.733609 
L 111.530352 55.650317 
L 111.855332 55.150561 
L 112.180311 54.400927 
L 112.505291 54.234341 
L 112.83027 54.400927 
L 113.15525 54.734097 
L 113.480229 54.650805 
L 113.805209 54.151049 
L 114.130188 53.901171 
L 114.455168 54.234341 
L 115.105127 55.233853 
L 115.430106 55.400439 
L 115.755086 55.150561 
L 116.080066 55.150561 
L 116.405045 55.567024 
L 116.730025 55.650317 
L 117.055004 55.400439 
L 117.704963 53.984463 
L 118.029943 53.651293 
L 118.354922 53.817878 
L 118.679902 54.151049 
L 119.329861 54.234341 
L 119.97982 54.900683 
L 120.629779 55.983487 
L 120.954758 55.816902 
L 121.279738 55.233853 
L 121.929697 54.734097 
L 122.254676 54.734097 
L 122.904636 54.151049 
L 123.229615 54.067756 
L 123.554595 54.317634 
L 123.879574 54.734097 
L 124.854513 55.233853 
L 125.179492 54.983975 
L 125.829451 55.317146 
L 126.154431 55.233853 
L 126.47941 54.983975 
L 127.129369 54.234341 
L 127.779328 54.234341 
L 128.104308 54.650805 
L 128.429287 54.734097 
L 129.079247 55.150561 
L 129.729206 55.400439 
L 130.054185 55.233853 
L 130.379165 54.734097 
L 130.704144 54.567512 
L 131.354103 54.983975 
L 131.679083 55.067268 
L 132.004062 54.983975 
L 132.329042 54.650805 
L 134.928878 55.233853 
L 135.253857 55.150561 
L 135.578837 54.734097 
L 135.903817 54.650805 
L 136.228796 54.734097 
L 136.553776 54.650805 
L 136.878755 54.400927 
L 137.528714 54.234341 
L 138.178673 54.734097 
L 138.503653 55.233853 
L 139.478591 55.733609 
L 139.803571 55.733609 
L 140.12855 55.483731 
L 140.778509 54.650805 
L 142.078428 54.067756 
L 142.403407 54.234341 
L 143.053366 54.983975 
L 143.703325 54.900683 
L 144.028305 54.81739 
L 144.678264 55.150561 
L 145.003243 55.150561 
L 145.978182 54.650805 
L 146.628141 54.81739 
L 147.2781 54.234341 
L 147.603079 54.317634 
L 148.253038 54.900683 
L 148.578018 54.81739 
L 148.902998 54.983975 
L 149.227977 54.983975 
L 149.877936 55.233853 
L 150.852875 54.650805 
L 151.177854 54.400927 
L 151.827813 54.484219 
L 152.152793 54.234341 
L 152.477772 54.234341 
L 153.127731 54.900683 
L 153.452711 55.150561 
L 153.77769 55.067268 
L 154.10267 55.150561 
L 154.427649 54.983975 
L 154.752629 54.983975 
L 155.077609 54.81739 
L 155.402588 54.400927 
L 155.727568 54.317634 
L 156.377527 54.567512 
L 156.702506 54.983975 
L 157.677445 54.900683 
L 158.002424 55.150561 
L 158.652383 55.067268 
L 158.977363 54.567512 
L 159.302342 54.317634 
L 159.627322 54.317634 
L 159.952301 54.650805 
L 160.277281 54.81739 
L 162.227158 54.734097 
L 162.877117 54.650805 
L 163.202097 54.900683 
L 163.852056 54.81739 
L 164.177035 54.484219 
L 165.476953 54.734097 
L 166.126912 54.81739 
L 166.451892 54.983975 
L 167.101851 54.900683 
L 167.75181 54.81739 
L 168.07679 54.734097 
L 168.401769 54.81739 
L 169.376708 54.484219 
L 169.701687 54.650805 
L 170.676626 54.567512 
L 171.001605 54.484219 
L 171.326585 54.734097 
L 171.651564 55.150561 
L 171.976544 55.150561 
L 172.301523 55.317146 
L 173.276462 54.900683 
L 173.601441 54.900683 
L 173.926421 54.567512 
L 174.2514 54.400927 
L 174.57638 54.067756 
L 175.226339 54.567512 
L 175.876298 55.233853 
L 176.851237 55.150561 
L 177.176216 54.900683 
L 177.501196 54.81739 
L 178.151155 54.900683 
L 178.476134 54.81739 
L 178.801114 54.900683 
L 179.776052 54.400927 
L 180.426011 54.81739 
L 181.075971 55.483731 
L 181.40095 55.733609 
L 182.050909 55.317146 
L 182.375889 54.734097 
L 182.700868 54.484219 
L 183.675807 54.317634 
L 184.000786 54.400927 
L 184.975725 55.233853 
L 185.300704 55.567024 
L 186.275643 55.983487 
L 186.600622 55.900195 
L 187.250581 55.150561 
L 187.575561 54.567512 
L 187.900541 54.317634 
L 188.5505 54.234341 
L 188.875479 54.234341 
L 189.850418 55.400439 
L 190.500377 55.983487 
L 191.475315 55.650317 
L 191.800295 55.317146 
L 192.775233 53.984463 
L 193.100213 54.234341 
L 193.750172 55.150561 
L 194.725111 55.816902 
L 195.05009 55.983487 
L 195.700049 55.650317 
L 196.350008 54.900683 
L 196.674988 54.650805 
L 197.324947 54.734097 
L 197.649926 54.484219 
L 197.974906 53.984463 
L 198.299885 54.067756 
L 199.599803 55.983487 
L 199.924783 56.150073 
L 200.249762 56.06678 
L 200.899722 55.317146 
L 201.549681 53.734585 
L 201.87466 53.651293 
L 202.19964 54.067756 
L 202.849599 55.317146 
L 203.499558 55.317146 
L 203.824537 55.650317 
L 204.149517 55.816902 
L 204.799476 55.067268 
L 205.124455 54.400927 
L 205.449435 54.234341 
L 206.099394 54.81739 
L 206.424373 54.650805 
L 206.749353 54.151049 
L 207.074333 54.067756 
L 207.399312 54.400927 
L 208.049271 55.483731 
L 208.69923 55.150561 
L 209.674169 55.650317 
L 209.999148 55.317146 
L 210.649107 53.901171 
L 210.974087 53.568 
L 211.624046 54.151049 
L 211.949025 54.317634 
L 212.274005 54.317634 
L 212.598984 54.567512 
L 213.248943 55.733609 
L 213.573923 55.900195 
L 213.898903 55.650317 
L 214.548862 54.81739 
L 215.84878 54.234341 
L 216.173759 54.151049 
L 216.823718 54.567512 
L 217.148698 54.983975 
L 217.473677 55.150561 
L 218.123636 55.067268 
L 218.448616 55.233853 
L 219.423554 54.900683 
L 220.073514 54.151049 
L 220.723473 54.400927 
L 221.048452 54.650805 
L 221.373432 54.650805 
L 221.698411 54.983975 
L 222.67335 55.400439 
L 223.323309 54.734097 
L 223.973268 54.650805 
L 224.298247 54.983975 
L 224.623227 54.983975 
L 225.273186 54.650805 
L 225.598165 54.650805 
L 226.573104 55.067268 
L 227.873022 55.317146 
L 228.198002 54.983975 
L 228.522981 54.81739 
L 228.847961 54.81739 
L 229.17294 54.650805 
L 229.822899 54.567512 
L 230.147879 54.234341 
L 230.472858 54.234341 
L 231.122817 54.900683 
L 231.447797 55.400439 
L 231.772776 55.483731 
L 232.097756 55.733609 
L 232.747715 55.733609 
L 233.722654 54.734097 
L 234.697592 54.234341 
L 235.347551 54.317634 
L 235.99751 54.983975 
L 236.647469 55.067268 
L 236.972449 54.81739 
L 237.947387 55.233853 
L 238.597346 54.734097 
L 239.247305 54.81739 
L 239.572285 54.567512 
L 240.547224 54.400927 
L 241.197183 54.900683 
L 242.497101 55.233853 
L 243.14706 55.150561 
L 243.797019 54.567512 
L 244.121998 54.484219 
L 244.446978 54.567512 
L 244.771957 54.317634 
L 245.096937 54.234341 
L 245.421916 54.400927 
L 245.746896 54.81739 
L 246.071876 54.983975 
L 246.396855 55.317146 
L 247.696773 54.983975 
L 248.021753 54.650805 
L 248.671712 54.400927 
L 248.996691 54.567512 
L 249.321671 54.983975 
L 249.64665 55.150561 
L 249.97163 54.983975 
L 250.621589 55.067268 
L 251.271548 55.150561 
L 251.596527 55.067268 
L 251.921507 54.650805 
L 252.571466 54.400927 
L 252.896446 54.734097 
L 253.221425 54.900683 
L 253.871384 54.81739 
L 254.196364 54.650805 
L 254.521343 54.81739 
L 254.846323 54.81739 
L 255.171302 54.567512 
L 256.146241 54.81739 
L 257.446159 54.567512 
L 257.771138 54.567512 
L 258.096118 54.734097 
L 258.746077 54.650805 
L 259.396036 54.900683 
L 260.045995 54.983975 
L 260.370975 54.650805 
L 260.695954 54.650805 
L 261.020934 54.81739 
L 262.320852 54.567512 
L 262.645831 54.650805 
L 263.62077 54.400927 
L 264.270729 54.734097 
L 264.595708 55.067268 
L 265.245667 55.317146 
L 265.570647 54.983975 
L 265.895627 54.81739 
L 266.545586 54.734097 
L 266.870565 54.400927 
L 267.195545 54.317634 
L 267.520524 54.067756 
L 267.845504 54.400927 
L 268.170483 54.567512 
L 268.820442 55.233853 
L 269.145422 55.317146 
L 269.795381 55.067268 
L 270.12036 54.900683 
L 270.44534 54.900683 
L 270.770319 54.734097 
L 271.420278 54.81739 
L 272.395217 54.400927 
L 272.720197 54.400927 
L 273.370156 54.81739 
L 273.695135 55.317146 
L 274.345094 55.650317 
L 274.670074 55.483731 
L 275.969992 54.234341 
L 276.619951 54.317634 
L 277.26991 54.650805 
L 277.919869 55.317146 
L 278.894808 55.983487 
L 279.544767 55.816902 
L 280.844685 54.234341 
L 281.169664 54.151049 
L 281.819623 54.400927 
L 282.144603 54.567512 
L 282.469582 54.900683 
L 282.794562 55.483731 
L 283.119541 55.816902 
L 283.444521 55.983487 
L 283.7695 55.733609 
L 284.09448 55.650317 
L 284.744439 55.150561 
L 285.394398 54.234341 
L 285.719378 54.067756 
L 286.369337 54.650805 
L 286.694316 55.233853 
L 287.019296 55.567024 
L 288.319214 55.816902 
L 289.294152 54.734097 
L 290.269091 54.567512 
L 290.91905 53.984463 
L 291.569009 54.567512 
L 291.893989 55.400439 
L 292.218968 55.900195 
L 292.543948 56.06678 
L 292.868927 56.06678 
L 293.518886 55.650317 
L 293.843866 55.067268 
L 294.168845 54.151049 
L 294.493825 53.568 
L 294.818804 53.568 
L 295.468763 54.983975 
L 295.793743 55.233853 
L 296.443702 55.317146 
L 297.093661 55.567024 
L 297.41864 55.317146 
L 298.0686 54.151049 
L 298.393579 54.234341 
L 298.718559 54.567512 
L 299.043538 54.734097 
L 299.693497 54.067756 
L 300.018477 53.984463 
L 300.993415 55.317146 
L 301.968354 55.233853 
L 302.293333 55.567024 
L 302.618313 55.650317 
L 303.593251 53.734585 
L 303.918231 53.734585 
L 304.56819 54.151049 
L 305.543129 54.734097 
L 306.193088 55.900195 
L 306.518067 55.983487 
L 306.843047 55.650317 
L 307.168026 54.900683 
L 307.493006 54.650805 
L 308.142965 54.484219 
L 308.792924 54.067756 
L 309.117903 54.151049 
L 309.442883 54.484219 
L 309.767862 54.650805 
L 310.092842 54.983975 
L 310.417821 54.983975 
L 310.742801 55.150561 
L 311.067781 55.067268 
L 311.71774 55.233853 
L 312.042719 55.150561 
L 312.692678 54.234341 
L 313.017658 54.151049 
L 313.667617 54.317634 
L 313.992596 54.650805 
L 314.317576 54.650805 
L 315.292514 55.317146 
L 315.942473 54.983975 
L 316.267453 54.650805 
L 316.592432 54.567512 
L 317.242391 54.983975 
L 317.892351 54.734097 
L 318.21733 54.567512 
L 318.54231 54.567512 
L 319.517248 55.067268 
L 320.167207 55.067268 
L 320.492187 55.233853 
L 321.792105 54.650805 
L 322.117084 54.567512 
L 322.442064 54.650805 
L 322.767043 54.234341 
L 323.092023 54.067756 
L 323.741982 54.484219 
L 324.716921 55.567024 
L 325.0419 55.733609 
L 325.36688 55.650317 
L 326.016839 55.067268 
L 326.666798 54.484219 
L 326.991777 54.234341 
L 327.966716 54.067756 
L 328.291695 54.234341 
L 328.941654 54.900683 
L 329.916593 54.734097 
L 330.241572 55.067268 
L 330.891532 55.150561 
L 331.216511 54.900683 
L 332.841409 54.400927 
L 333.166388 54.151049 
L 334.141327 54.900683 
L 334.791286 54.983975 
L 335.441245 55.233853 
L 337.066143 54.484219 
L 338.041081 54.317634 
L 338.366061 54.400927 
L 339.01602 55.067268 
L 339.340999 55.233853 
L 339.665979 55.067268 
L 340.640917 54.983975 
L 340.965897 54.484219 
L 341.290876 54.317634 
L 341.615856 54.317634 
L 342.265815 54.983975 
L 342.590794 55.067268 
L 342.915774 54.900683 
L 343.565733 54.900683 
L 344.215692 55.150561 
L 344.540672 54.900683 
L 344.865651 54.400927 
L 345.190631 54.317634 
L 345.51561 54.484219 
L 345.84059 54.81739 
L 346.165569 54.734097 
L 346.490549 54.81739 
L 346.815528 54.734097 
L 347.465487 54.900683 
L 348.115446 54.484219 
L 348.765405 54.734097 
L 349.415364 54.900683 
L 349.740344 54.650805 
L 350.065324 54.567512 
L 351.040262 54.81739 
L 351.690221 54.734097 
L 352.990139 54.983975 
L 353.965078 54.567512 
L 354.615037 54.650805 
L 355.264996 54.400927 
L 355.914955 54.734097 
L 356.564914 54.400927 
L 357.539853 55.233853 
L 358.189812 55.150561 
L 359.16475 54.734097 
L 359.48973 54.734097 
L 360.139689 54.151049 
L 360.464668 54.067756 
L 360.789648 54.317634 
L 361.439607 55.233853 
L 362.739525 55.150561 
L 363.389484 54.81739 
L 364.039443 54.983975 
L 364.364423 54.734097 
L 365.014382 54.650805 
L 365.664341 54.400927 
L 366.639279 55.400439 
L 367.289238 55.650317 
L 367.939197 55.067268 
L 368.589156 54.317634 
L 369.889075 54.400927 
L 370.539034 55.067268 
L 371.513972 55.983487 
L 371.838952 56.06678 
L 372.163931 55.816902 
L 372.488911 55.816902 
L 373.463849 54.400927 
L 373.788829 54.151049 
L 374.763767 54.400927 
L 375.088747 54.650805 
L 375.413726 55.150561 
L 376.388665 55.900195 
L 377.038624 55.650317 
L 377.688583 54.983975 
L 378.338542 54.151049 
L 378.663522 54.151049 
L 378.988501 54.400927 
L 379.63846 55.400439 
L 379.96344 55.483731 
L 380.288419 55.733609 
L 380.938378 55.816902 
L 381.588337 55.483731 
L 381.913317 54.983975 
L 382.563276 54.567512 
L 382.888256 54.734097 
L 383.538215 54.234341 
L 383.863194 54.151049 
L 384.188174 54.400927 
L 384.838133 55.567024 
L 385.488092 56.06678 
L 385.813071 56.06678 
L 386.138051 55.900195 
L 386.78801 54.900683 
L 387.112989 54.067756 
L 387.437969 53.568 
L 387.762948 53.734585 
L 388.412907 55.067268 
L 388.737887 55.317146 
L 389.387846 55.400439 
L 389.712826 55.733609 
L 390.037805 55.733609 
L 390.687764 54.567512 
L 391.012744 54.317634 
L 391.337723 54.400927 
L 391.662703 54.734097 
L 391.987682 54.734097 
L 392.637641 54.067756 
L 392.962621 54.067756 
L 393.61258 55.233853 
L 393.937559 55.400439 
L 394.262539 55.233853 
L 394.587518 55.233853 
L 395.237477 55.816902 
L 395.562457 55.483731 
L 396.212416 54.067756 
L 396.537396 53.734585 
L 396.862375 53.651293 
L 397.187355 54.151049 
L 398.162293 54.317634 
L 398.487273 54.983975 
L 398.487273 54.983975 
" clip-path="url(#p0491f085e9)" style="fill: none; stroke: #2ca02c; stroke-width: 1.5; stroke-linecap: square"/>
   </g>
   <g id="line2d_15">
    <path d="M 73.832727 295.396378 
L 79.0324 295.429695 
L 83.907093 295.404707 
L 88.131826 295.413037 
L 92.031581 295.413037 
L 93.981458 295.454683 
L 98.531171 295.446354 
L 100.481048 295.446354 
L 102.105946 295.471341 
L 243.797019 295.37139 
L 245.746896 295.37972 
L 247.046814 295.429695 
L 248.671712 295.37972 
L 251.596527 295.438024 
L 256.7962 295.404707 
L 261.670893 295.429695 
L 264.270729 295.404707 
L 267.845504 295.396378 
L 269.145422 295.37972 
L 271.095299 295.396378 
L 272.395217 295.421366 
L 274.020115 295.404707 
L 398.487273 295.404707 
L 398.487273 295.404707 
" clip-path="url(#p0491f085e9)" style="fill: none; stroke: #d62728; stroke-width: 1.5; stroke-linecap: square"/>
   </g>
   <g id="patch_3">
    <path d="M 57.6 307.584 
L 57.6 41.472 
" style="fill: none; stroke: #000000; stroke-width: 0.8; stroke-linejoin: miter; stroke-linecap: square"/>
   </g>
   <g id="patch_4">
    <path d="M 414.72 307.584 
L 414.72 41.472 
" style="fill: none; stroke: #000000; stroke-width: 0.8; stroke-linejoin: miter; stroke-linecap: square"/>
   </g>
   <g id="patch_5">
    <path d="M 57.6 307.584 
L 414.72 307.584 
" style="fill: none; stroke: #000000; stroke-width: 0.8; stroke-linejoin: miter; stroke-linecap: square"/>
   </g>
   <g id="patch_6">
    <path d="M 57.6 41.472 
L 414.72 41.472 
" style="fill: none; stroke: #000000; stroke-width: 0.8; stroke-linejoin: miter; stroke-linecap: square"/>
   </g>
  </g>
 </g>
 <defs>
  <clipPath id="p0491f085e9">
   <rect x="57.6" y="41.472" width="357.12" height="266.112"/>
  </clipPath>
 </defs>
</svg>
