<?xml version="1.0" encoding="utf-8" standalone="no"?>
<!DOCTYPE svg PUBLIC "-//W3C//DTD SVG 1.1//EN"
  "http://www.w3.org/Graphics/SVG/1.1/DTD/svg11.dtd">
<svg xmlns:xlink="http://www.w3.org/1999/xlink" width="460.8pt" height="345.6pt" viewBox="0 0 460.8 345.6" xmlns="http://www.w3.org/2000/svg" version="1.1">
 <metadata>
  <rdf:RDF xmlns:dc="http://purl.org/dc/elements/1.1/" xmlns:cc="http://creativecommons.org/ns#" xmlns:rdf="http://www.w3.org/1999/02/22-rdf-syntax-ns#">
   <cc:Work>
    <dc:type rdf:resource="http://purl.org/dc/dcmitype/StillImage"/>
    <dc:date>2025-12-31T12:22:56.500921</dc:date>
    <dc:format>image/svg+xml</dc:format>
    <dc:creator>
     <cc:Agent>
      <dc:title>Matplotlib v3.10.8, https://matplotlib.org/</dc:title>
     </cc:Agent>
    </dc:creator>
   </cc:Work>
  </rdf:RDF>
 </metadata>
 <defs>
  <style type="text/css">*{stroke-linejoin: round; stroke-linecap: butt}</style>
 </defs>
 <g id="figure_1">
  <g id="patch_1">
   <path d="M 0 345.6 
L 460.8 345.6 
L 460.8 0 
L 0 0 
z
" style="fill: #ffffff"/>
  </g>
  <g id="axes_1">
   <g id="patch_2">
    <path d="M 57.6 307.584 
L 414.72 307.584 
L 414.72 41.472 
L 57.6 41.472 
z
" style="fill: #ffffff"/>
   </g>
   <g id="matplotlib.axis_1">
    <g id="xtick_1">
     <g id="line2d_1">
      <defs>
       <path id="m11cba074f0" d="M 0 0 
L 0 3.5 
" style="stroke: #000000; stroke-width: 0.8"/>
      </defs>
      <g>
       <use xlink:href="#m11cba074f0" x="73.832727" y="307.584" style="stroke: #000000; stroke-width: 0.8"/>
      </g>
     </g>
     <g id="text_1">
      <!-- 0 -->
      <g transform="translate(70.651477 322.182437) scale(0.1 -0.1)">
       <defs>
        <path id="DejaVuSans-30" d="M 2034 4250 
Q 1547 4250 1301 3770 
Q 1056 3291 1056 2328 
Q 1056 1369 1301 889 
Q 1547 409 2034 409 
Q 2525 409 2770 889 
Q 3016 1369 3016 2328 
Q 3016 3291 2770 3770 
Q 2525 4250 2034 4250 
z
M 2034 4750 
Q 2819 4750 3233 4129 
Q 3647 3509 3647 2328 
Q 3647 1150 3233 529 
Q 2819 -91 2034 -91 
Q 1250 -91 836 529 
Q 422 1150 422 2328 
Q 422 3509 836 4129 
Q 1250 4750 2034 4750 
z
" transform="scale(0.015625)"/>
       </defs>
       <use xlink:href="#DejaVuSans-30"/>
      </g>
     </g>
    </g>
    <g id="xtick_2">
     <g id="line2d_2">
      <g>
       <use xlink:href="#m11cba074f0" x="138.828632" y="307.584" style="stroke: #000000; stroke-width: 0.8"/>
      </g>
     </g>
     <g id="text_2">
      <!-- 1 -->
      <g transform="translate(135.647382 322.182437) scale(0.1 -0.1)">
       <defs>
        <path id="DejaVuSans-31" d="M 794 531 
L 1825 531 
L 1825 4091 
L 703 3866 
L 703 4441 
L 1819 4666 
L 2450 4666 
L 2450 531 
L 3481 531 
L 3481 0 
L 794 0 
L 794 531 
z
" transform="scale(0.015625)"/>
       </defs>
       <use xlink:href="#DejaVuSans-31"/>
      </g>
     </g>
    </g>
    <g id="xtick_3">
     <g id="line2d_3">
      <g>
       <use xlink:href="#m11cba074f0" x="203.824537" y="307.584" style="stroke: #000000; stroke-width: 0.8"/>
      </g>
     </g>
     <g id="text_3">
      <!-- 2 -->
      <g transform="translate(200.643287 322.182437) scale(0.1 -0.1)">
       <defs>
        <path id="DejaVuSans-32" d="M 1228 531 
L 3431 531 
L 3431 0 
L 469 0 
L 469 531 
Q 828 903 1448 1529 
Q 2069 2156 2228 2338 
Q 2531 2678 2651 2914 
Q 2772 3150 2772 3378 
Q 2772 3750 2511 3984 
Q 2250 4219 1831 4219 
Q 1534 4219 1204 4116 
Q 875 4013 500 3803 
L 500 4441 
Q 881 4594 1212 4672 
Q 1544 4750 1819 4750 
Q 2544 4750 2975 4387 
Q 3406 4025 3406 3419 
Q 3406 3131 3298 2873 
Q 3191 2616 2906 2266 
Q 2828 2175 2409 1742 
Q 1991 1309 1228 531 
z
" transform="scale(0.015625)"/>
       </defs>
       <use xlink:href="#DejaVuSans-32"/>
      </g>
     </g>
    </g>
    <g id="xtick_4">
     <g id="line2d_4">
      <g>
       <use xlink:href="#m11cba074f0" x="268.820442" y="307.584" style="stroke: #000000; stroke-width: 0.8"/>
      </g>
     </g>
     <g id="text_4">
      <!-- 3 -->
      <g transform="translate(265.639192 322.182437) scale(0.1 -0.1)">
       <defs>
        <path id="DejaVuSans-33" d="M 2597 2516 
Q 3050 2419 3304 2112 
Q 3559 1806 3559 1356 
Q 3559 666 3084 287 
Q 2609 -91 1734 -91 
Q 1441 -91 1130 -33 
Q 819 25 488 141 
L 488 750 
Q 750 597 1062 519 
Q 1375 441 1716 441 
Q 2309 441 2620 675 
Q 2931 909 2931 1356 
Q 2931 1769 2642 2001 
Q 2353 2234 1838 2234 
L 1294 2234 
L 1294 2753 
L 1863 2753 
Q 2328 2753 2575 2939 
Q 2822 3125 2822 3475 
Q 2822 3834 2567 4026 
Q 2313 4219 1838 4219 
Q 1578 4219 1281 4162 
Q 984 4106 628 3988 
L 628 4550 
Q 988 4650 1302 4700 
Q 1616 4750 1894 4750 
Q 2613 4750 3031 4423 
Q 3450 4097 3450 3541 
Q 3450 3153 3228 2886 
Q 3006 2619 2597 2516 
z
" transform="scale(0.015625)"/>
       </defs>
       <use xlink:href="#DejaVuSans-33"/>
      </g>
     </g>
    </g>
    <g id="xtick_5">
     <g id="line2d_5">
      <g>
       <use xlink:href="#m11cba074f0" x="333.816347" y="307.584" style="stroke: #000000; stroke-width: 0.8"/>
      </g>
     </g>
     <g id="text_5">
      <!-- 4 -->
      <g transform="translate(330.635097 322.182437) scale(0.1 -0.1)">
       <defs>
        <path id="DejaVuSans-34" d="M 2419 4116 
L 825 1625 
L 2419 1625 
L 2419 4116 
z
M 2253 4666 
L 3047 4666 
L 3047 1625 
L 3713 1625 
L 3713 1100 
L 3047 1100 
L 3047 0 
L 2419 0 
L 2419 1100 
L 313 1100 
L 313 1709 
L 2253 4666 
z
" transform="scale(0.015625)"/>
       </defs>
       <use xlink:href="#DejaVuSans-34"/>
      </g>
     </g>
    </g>
    <g id="xtick_6">
     <g id="line2d_6">
      <g>
       <use xlink:href="#m11cba074f0" x="398.812252" y="307.584" style="stroke: #000000; stroke-width: 0.8"/>
      </g>
     </g>
     <g id="text_6">
      <!-- 5 -->
      <g transform="translate(395.631002 322.182437) scale(0.1 -0.1)">
       <defs>
        <path id="DejaVuSans-35" d="M 691 4666 
L 3169 4666 
L 3169 4134 
L 1269 4134 
L 1269 2991 
Q 1406 3038 1543 3061 
Q 1681 3084 1819 3084 
Q 2600 3084 3056 2656 
Q 3513 2228 3513 1497 
Q 3513 744 3044 326 
Q 2575 -91 1722 -91 
Q 1428 -91 1123 -41 
Q 819 9 494 109 
L 494 744 
Q 775 591 1075 516 
Q 1375 441 1709 441 
Q 2250 441 2565 725 
Q 2881 1009 2881 1497 
Q 2881 1984 2565 2268 
Q 2250 2553 1709 2553 
Q 1456 2553 1204 2497 
Q 953 2441 691 2322 
L 691 4666 
z
" transform="scale(0.015625)"/>
       </defs>
       <use xlink:href="#DejaVuSans-35"/>
      </g>
     </g>
    </g>
    <g id="text_7">
     <!-- 1e−7 -->
     <g transform="translate(387.462188 334.860562) scale(0.1 -0.1)">
      <defs>
       <path id="DejaVuSans-65" d="M 3597 1894 
L 3597 1613 
L 953 1613 
Q 991 1019 1311 708 
Q 1631 397 2203 397 
Q 2534 397 2845 478 
Q 3156 559 3463 722 
L 3463 178 
Q 3153 47 2828 -22 
Q 2503 -91 2169 -91 
Q 1331 -91 842 396 
Q 353 884 353 1716 
Q 353 2575 817 3079 
Q 1281 3584 2069 3584 
Q 2775 3584 3186 3129 
Q 3597 2675 3597 1894 
z
M 3022 2063 
Q 3016 2534 2758 2815 
Q 2500 3097 2075 3097 
Q 1594 3097 1305 2825 
Q 1016 2553 972 2059 
L 3022 2063 
z
" transform="scale(0.015625)"/>
       <path id="DejaVuSans-2212" d="M 678 2272 
L 4684 2272 
L 4684 1741 
L 678 1741 
L 678 2272 
z
" transform="scale(0.015625)"/>
       <path id="DejaVuSans-37" d="M 525 4666 
L 3525 4666 
L 3525 4397 
L 1831 0 
L 1172 0 
L 2766 4134 
L 525 4134 
L 525 4666 
z
" transform="scale(0.015625)"/>
      </defs>
      <use xlink:href="#DejaVuSans-31"/>
      <use xlink:href="#DejaVuSans-65" transform="translate(63.623047 0)"/>
      <use xlink:href="#DejaVuSans-2212" transform="translate(125.146484 0)"/>
      <use xlink:href="#DejaVuSans-37" transform="translate(208.935547 0)"/>
     </g>
    </g>
   </g>
   <g id="matplotlib.axis_2">
    <g id="ytick_1">
     <g id="line2d_7">
      <defs>
       <path id="meadc8b11ab" d="M 0 0 
L -3.5 0 
" style="stroke: #000000; stroke-width: 0.8"/>
      </defs>
      <g>
       <use xlink:href="#meadc8b11ab" x="57.6" y="299.324976" style="stroke: #000000; stroke-width: 0.8"/>
      </g>
     </g>
     <g id="text_8">
      <!-- 0 -->
      <g transform="translate(44.2375 303.124194) scale(0.1 -0.1)">
       <use xlink:href="#DejaVuSans-30"/>
      </g>
     </g>
    </g>
    <g id="ytick_2">
     <g id="line2d_8">
      <g>
       <use xlink:href="#meadc8b11ab" x="57.6" y="266.810988" style="stroke: #000000; stroke-width: 0.8"/>
      </g>
     </g>
     <g id="text_9">
      <!-- 5 -->
      <g transform="translate(44.2375 270.610207) scale(0.1 -0.1)">
       <use xlink:href="#DejaVuSans-35"/>
      </g>
     </g>
    </g>
    <g id="ytick_3">
     <g id="line2d_9">
      <g>
       <use xlink:href="#meadc8b11ab" x="57.6" y="234.297" style="stroke: #000000; stroke-width: 0.8"/>
      </g>
     </g>
     <g id="text_10">
      <!-- 10 -->
      <g transform="translate(37.875 238.096219) scale(0.1 -0.1)">
       <use xlink:href="#DejaVuSans-31"/>
       <use xlink:href="#DejaVuSans-30" transform="translate(63.623047 0)"/>
      </g>
     </g>
    </g>
    <g id="ytick_4">
     <g id="line2d_10">
      <g>
       <use xlink:href="#meadc8b11ab" x="57.6" y="201.783013" style="stroke: #000000; stroke-width: 0.8"/>
      </g>
     </g>
     <g id="text_11">
      <!-- 15 -->
      <g transform="translate(37.875 205.582231) scale(0.1 -0.1)">
       <use xlink:href="#DejaVuSans-31"/>
       <use xlink:href="#DejaVuSans-35" transform="translate(63.623047 0)"/>
      </g>
     </g>
    </g>
    <g id="ytick_5">
     <g id="line2d_11">
      <g>
       <use xlink:href="#meadc8b11ab" x="57.6" y="169.269025" style="stroke: #000000; stroke-width: 0.8"/>
      </g>
     </g>
     <g id="text_12">
      <!-- 20 -->
      <g transform="translate(37.875 173.068244) scale(0.1 -0.1)">
       <use xlink:href="#DejaVuSans-32"/>
       <use xlink:href="#DejaVuSans-30" transform="translate(63.623047 0)"/>
      </g>
     </g>
    </g>
    <g id="ytick_6">
     <g id="line2d_12">
      <g>
       <use xlink:href="#meadc8b11ab" x="57.6" y="136.755037" style="stroke: #000000; stroke-width: 0.8"/>
      </g>
     </g>
     <g id="text_13">
      <!-- 25 -->
      <g transform="translate(37.875 140.554256) scale(0.1 -0.1)">
       <use xlink:href="#DejaVuSans-32"/>
       <use xlink:href="#DejaVuSans-35" transform="translate(63.623047 0)"/>
      </g>
     </g>
    </g>
    <g id="ytick_7">
     <g id="line2d_13">
      <g>
       <use xlink:href="#meadc8b11ab" x="57.6" y="104.24105" style="stroke: #000000; stroke-width: 0.8"/>
      </g>
     </g>
     <g id="text_14">
      <!-- 30 -->
      <g transform="translate(37.875 108.040269) scale(0.1 -0.1)">
       <use xlink:href="#DejaVuSans-33"/>
       <use xlink:href="#DejaVuSans-30" transform="translate(63.623047 0)"/>
      </g>
     </g>
    </g>
    <g id="ytick_8">
     <g id="line2d_14">
      <g>
       <use xlink:href="#meadc8b11ab" x="57.6" y="71.727062" style="stroke: #000000; stroke-width: 0.8"/>
      </g>
     </g>
     <g id="text_15">
      <!-- 35 -->
      <g transform="translate(37.875 75.526281) scale(0.1 -0.1)">
       <use xlink:href="#DejaVuSans-33"/>
       <use xlink:href="#DejaVuSans-35" transform="translate(63.623047 0)"/>
      </g>
     </g>
    </g>
   </g>
   <g id="line2d_15">
    <path d="M 73.832727 169.441349 
L 74.482686 169.746168 
L 75.132645 169.94938 
L 75.782604 169.339743 
L 76.432563 168.526893 
L 76.757543 168.526893 
L 77.407502 168.831712 
L 79.0324 168.425287 
L 79.357379 168.831712 
L 80.332318 169.13653 
L 82.607174 167.81565 
L 83.582113 167.81565 
L 84.232072 168.222074 
L 84.557052 168.628499 
L 84.882031 168.831712 
L 85.53199 168.730105 
L 86.506929 168.120468 
L 87.156888 168.425287 
L 87.481867 168.425287 
L 87.806847 168.222074 
L 88.131826 167.81565 
L 88.781785 167.510831 
L 89.431744 168.222074 
L 90.081704 168.730105 
L 90.731663 168.831712 
L 91.056642 168.526893 
L 91.706601 167.409225 
L 92.031581 167.307618 
L 92.35656 167.409225 
L 93.331499 168.323681 
L 94.306437 168.222074 
L 94.956396 167.917256 
L 95.281376 167.714043 
L 95.606355 167.307618 
L 95.931335 167.104406 
L 96.256314 167.104406 
L 96.581294 167.409225 
L 97.231253 168.323681 
L 97.556233 168.526893 
L 99.18113 168.018862 
L 99.50611 168.222074 
L 100.156069 167.510831 
L 100.481048 167.409225 
L 100.806028 167.104406 
L 101.131007 167.104406 
L 102.105946 166.18995 
L 103.080885 168.425287 
L 103.405864 168.628499 
L 104.380803 166.697981 
L 105.355741 166.901194 
L 105.680721 166.697981 
L 106.0057 166.697981 
L 106.33068 166.901194 
L 106.655659 167.307618 
L 106.980639 168.120468 
L 107.305618 168.222074 
L 108.280557 166.697981 
L 108.605536 166.596375 
L 108.930516 167.0028 
L 109.255495 167.104406 
L 109.580475 166.901194 
L 111.205373 167.0028 
L 111.530352 167.206012 
L 112.180311 168.120468 
L 112.505291 168.120468 
L 113.15525 167.206012 
L 113.480229 166.901194 
L 114.130188 167.409225 
L 114.455168 167.714043 
L 115.430106 166.697981 
L 115.755086 167.0028 
L 116.730025 168.323681 
L 117.379984 167.714043 
L 117.704963 167.104406 
L 118.029943 166.901194 
L 120.304799 167.714043 
L 120.954758 168.120468 
L 121.604717 168.018862 
L 122.254676 167.917256 
L 122.904636 168.222074 
L 123.554595 167.917256 
L 124.204554 167.206012 
L 124.529533 167.206012 
L 124.854513 167.409225 
L 125.504472 168.323681 
L 126.47941 168.120468 
L 127.129369 168.628499 
L 127.779328 169.13653 
L 128.104308 168.831712 
L 129.079247 167.0028 
L 129.404226 167.206012 
L 130.379165 168.628499 
L 130.704144 168.831712 
L 131.354103 168.831712 
L 131.679083 169.034924 
L 132.004062 169.441349 
L 132.329042 169.542955 
L 132.654021 169.238137 
L 133.30398 168.120468 
L 133.62896 168.018862 
L 134.278919 168.526893 
L 134.603898 168.831712 
L 135.253857 168.933318 
L 135.578837 168.831712 
L 136.228796 168.933318 
L 136.553776 168.831712 
L 136.878755 168.933318 
L 137.528714 168.628499 
L 137.853694 168.628499 
L 138.178673 168.933318 
L 138.503653 169.441349 
L 139.153612 169.746168 
L 140.12855 169.238137 
L 140.778509 169.13653 
L 141.103489 169.238137 
L 142.403407 168.730105 
L 142.728387 168.526893 
L 143.053366 168.730105 
L 143.378346 169.13653 
L 145.653202 169.847774 
L 145.978182 169.746168 
L 147.2781 170.050986 
L 147.603079 169.94938 
L 148.253038 169.441349 
L 148.578018 169.339743 
L 148.902998 169.441349 
L 149.552957 170.152593 
L 149.877936 170.050986 
L 150.202916 169.644561 
L 151.177854 169.441349 
L 151.502834 170.050986 
L 151.827813 170.152593 
L 152.477772 169.847774 
L 153.127731 169.542955 
L 153.452711 169.644561 
L 154.10267 170.152593 
L 155.077609 170.355805 
L 155.727568 169.94938 
L 156.052547 169.94938 
L 156.377527 169.441349 
L 157.027486 169.339743 
L 157.677445 169.847774 
L 158.002424 169.847774 
L 158.327404 169.542955 
L 158.977363 169.441349 
L 159.627322 170.355805 
L 159.952301 170.863836 
L 160.277281 170.863836 
L 160.92724 169.94938 
L 161.577199 169.644561 
L 161.902179 169.644561 
L 162.227158 169.339743 
L 164.177035 169.339743 
L 164.502015 169.644561 
L 165.151974 170.457411 
L 165.476953 170.457411 
L 166.451892 169.13653 
L 166.776871 169.13653 
L 167.101851 169.441349 
L 167.42683 169.542955 
L 167.75181 169.339743 
L 168.07679 168.933318 
L 168.401769 168.730105 
L 169.051728 168.831712 
L 169.376708 169.238137 
L 170.676626 170.050986 
L 171.001605 170.050986 
L 171.326585 169.847774 
L 171.651564 169.441349 
L 171.976544 168.730105 
L 172.626503 168.628499 
L 173.276462 168.831712 
L 174.57638 168.323681 
L 174.90136 168.526893 
L 175.226339 168.933318 
L 176.201278 169.238137 
L 176.526257 168.933318 
L 177.501196 168.628499 
L 178.151155 168.120468 
L 178.801114 167.81565 
L 180.101032 168.323681 
L 180.426011 168.730105 
L 181.075971 169.034924 
L 181.72593 168.526893 
L 182.050909 168.120468 
L 182.375889 168.018862 
L 183.025848 168.526893 
L 183.350827 168.526893 
L 184.325766 167.714043 
L 184.650745 167.612437 
L 185.950663 168.730105 
L 186.275643 168.933318 
L 186.600622 168.831712 
L 187.250581 167.917256 
L 187.575561 167.409225 
L 187.900541 167.307618 
L 188.22552 167.409225 
L 189.200459 168.222074 
L 189.525438 168.323681 
L 189.850418 168.120468 
L 190.500377 168.018862 
L 192.125274 167.0028 
L 192.450254 167.307618 
L 193.100213 168.222074 
L 193.750172 168.323681 
L 195.05009 168.018862 
L 195.37507 168.120468 
L 195.700049 167.917256 
L 196.025029 167.510831 
L 197.974906 166.18995 
L 198.949844 168.323681 
L 199.274824 168.628499 
L 199.599803 168.120468 
L 199.924783 167.307618 
L 200.249762 166.799587 
L 200.899722 166.799587 
L 201.224701 167.0028 
L 201.87466 166.697981 
L 202.19964 167.0028 
L 202.849599 168.018862 
L 203.174578 168.120468 
L 203.499558 167.714043 
L 203.824537 167.104406 
L 204.474496 166.596375 
L 205.124455 167.104406 
L 206.424373 166.799587 
L 207.074333 166.901194 
L 208.049271 168.120468 
L 208.69923 167.81565 
L 209.02421 167.307618 
L 209.674169 167.0028 
L 210.324128 167.612437 
L 211.299066 166.901194 
L 211.624046 167.104406 
L 212.274005 168.222074 
L 212.598984 168.425287 
L 213.898903 166.901194 
L 214.223882 166.901194 
L 214.548862 167.206012 
L 215.84878 167.307618 
L 216.823718 168.120468 
L 217.473677 168.018862 
L 217.798657 167.917256 
L 219.098575 168.222074 
L 219.748534 167.409225 
L 220.073514 167.104406 
L 220.398493 167.104406 
L 220.723473 167.307618 
L 221.048452 167.917256 
L 221.373432 168.222074 
L 221.698411 168.323681 
L 222.023391 168.120468 
L 222.67335 168.222074 
L 223.323309 169.034924 
L 223.648288 169.13653 
L 224.298247 168.222074 
L 224.623227 167.307618 
L 224.948206 166.901194 
L 225.273186 167.0028 
L 226.248124 168.526893 
L 226.573104 168.730105 
L 227.223063 168.628499 
L 227.873022 169.339743 
L 228.198002 169.542955 
L 228.522981 169.13653 
L 229.17294 167.917256 
L 229.822899 168.018862 
L 230.147879 168.526893 
L 230.797838 168.933318 
L 231.122817 168.730105 
L 231.447797 168.831712 
L 232.097756 168.730105 
L 232.747715 168.730105 
L 233.072695 168.526893 
L 233.722654 168.526893 
L 234.697592 169.644561 
L 235.347551 169.644561 
L 235.99751 169.13653 
L 236.647469 169.034924 
L 237.297428 169.238137 
L 238.597346 168.526893 
L 240.222244 169.542955 
L 240.872203 169.542955 
L 241.197183 169.847774 
L 241.522162 169.94938 
L 242.172121 169.847774 
L 242.82208 169.94938 
L 243.472039 170.050986 
L 243.797019 169.644561 
L 244.446978 169.339743 
L 244.771957 169.339743 
L 245.421916 170.152593 
L 245.746896 170.050986 
L 246.071876 169.644561 
L 246.721835 169.339743 
L 247.046814 169.441349 
L 247.371794 170.050986 
L 247.696773 170.254199 
L 248.021753 170.152593 
L 248.671712 169.644561 
L 249.321671 169.644561 
L 250.296609 170.457411 
L 250.946568 170.355805 
L 251.271548 170.050986 
L 251.921507 169.94938 
L 252.246486 169.542955 
L 252.571466 169.339743 
L 253.221425 169.644561 
L 253.546405 169.847774 
L 253.871384 169.847774 
L 254.196364 169.644561 
L 254.521343 169.238137 
L 254.846323 169.339743 
L 255.171302 169.746168 
L 255.496282 170.457411 
L 255.821261 170.76223 
L 256.146241 170.863836 
L 256.7962 169.94938 
L 257.446159 169.644561 
L 257.771138 169.644561 
L 258.421097 169.238137 
L 259.396036 169.238137 
L 259.721016 169.441349 
L 260.045995 169.441349 
L 260.370975 169.746168 
L 261.020934 170.559017 
L 261.345913 170.457411 
L 262.320852 169.238137 
L 262.645831 169.13653 
L 263.29579 169.441349 
L 263.62077 169.339743 
L 264.270729 168.730105 
L 264.595708 168.730105 
L 264.920688 168.933318 
L 265.245667 169.339743 
L 265.570647 169.339743 
L 265.895627 169.644561 
L 266.220606 169.746168 
L 266.545586 170.050986 
L 266.870565 170.050986 
L 267.520524 169.441349 
L 267.845504 168.933318 
L 268.495463 168.628499 
L 269.470401 168.831712 
L 269.795381 168.831712 
L 270.12036 168.628499 
L 270.770319 168.526893 
L 271.095299 169.034924 
L 271.745258 169.238137 
L 273.370156 168.628499 
L 274.020115 168.120468 
L 274.670074 167.917256 
L 274.995053 168.120468 
L 275.645012 168.222074 
L 275.969992 168.425287 
L 276.294971 168.831712 
L 276.94493 169.034924 
L 277.594889 168.526893 
L 277.919869 168.120468 
L 278.244848 168.120468 
L 278.569828 168.526893 
L 279.219787 168.526893 
L 280.194726 167.714043 
L 280.844685 167.81565 
L 281.494644 168.526893 
L 281.819623 168.526893 
L 282.144603 168.730105 
L 282.469582 168.628499 
L 282.794562 168.323681 
L 283.444521 167.409225 
L 283.7695 167.206012 
L 284.419459 167.714043 
L 285.069419 168.222074 
L 285.394398 168.323681 
L 286.694316 167.917256 
L 287.669255 166.901194 
L 287.994234 167.0028 
L 288.644193 167.714043 
L 288.969173 168.222074 
L 289.294152 168.425287 
L 289.619132 168.323681 
L 289.944111 168.018862 
L 291.244029 168.018862 
L 291.569009 167.612437 
L 293.193907 166.596375 
L 293.518886 166.18995 
L 293.843866 166.18995 
L 295.143784 168.425287 
L 295.468763 167.917256 
L 295.793743 167.104406 
L 296.118722 166.596375 
L 296.768681 166.697981 
L 297.093661 166.799587 
L 297.74362 166.596375 
L 298.0686 166.799587 
L 298.718559 168.018862 
L 299.043538 168.120468 
L 300.018477 166.697981 
L 300.343456 166.596375 
L 300.993415 167.104406 
L 302.293333 166.799587 
L 302.943292 166.901194 
L 303.268272 167.206012 
L 303.593251 167.714043 
L 304.24321 168.018862 
L 304.56819 167.714043 
L 304.89317 167.206012 
L 305.218149 167.0028 
L 305.868108 167.307618 
L 306.193088 167.612437 
L 306.518067 167.409225 
L 306.843047 167.0028 
L 307.168026 166.799587 
L 307.493006 167.104406 
L 308.142965 168.222074 
L 308.467944 168.222074 
L 309.117903 167.510831 
L 309.442883 167.0028 
L 310.092842 166.901194 
L 310.742801 167.206012 
L 311.067781 167.307618 
L 311.39276 167.206012 
L 312.042719 167.510831 
L 312.692678 168.120468 
L 313.667617 167.917256 
L 313.992596 167.917256 
L 314.642555 168.323681 
L 314.967535 168.222074 
L 315.942473 166.901194 
L 316.592432 167.409225 
L 317.242391 168.120468 
L 318.54231 168.222074 
L 319.517248 169.034924 
L 320.817166 166.901194 
L 321.142146 167.0028 
L 322.117084 168.526893 
L 322.442064 168.628499 
L 322.767043 168.425287 
L 323.092023 168.628499 
L 323.741982 169.339743 
L 324.066962 169.339743 
L 324.391941 169.13653 
L 325.0419 167.917256 
L 325.36688 167.917256 
L 325.691859 168.120468 
L 326.016839 168.628499 
L 326.666798 168.933318 
L 327.316757 168.831712 
L 328.941654 168.730105 
L 329.266634 168.425287 
L 329.916593 168.933318 
L 330.566552 169.644561 
L 331.216511 169.542955 
L 331.86647 169.238137 
L 332.19145 169.238137 
L 332.516429 169.441349 
L 333.166388 169.13653 
L 333.491368 169.13653 
L 334.466306 168.526893 
L 335.116265 169.13653 
L 335.441245 169.13653 
L 336.091204 169.441349 
L 337.391122 169.94938 
L 337.716102 169.746168 
L 338.041081 169.847774 
L 338.366061 169.746168 
L 339.01602 170.050986 
L 339.340999 170.050986 
L 339.665979 169.542955 
L 340.315938 169.13653 
L 340.640917 169.238137 
L 340.965897 169.847774 
L 341.290876 170.152593 
L 341.615856 170.050986 
L 341.940835 169.542955 
L 342.590794 169.238137 
L 343.565733 170.050986 
L 344.215692 169.94938 
L 344.865651 169.542955 
L 345.190631 169.644561 
L 345.51561 169.94938 
L 346.815528 170.355805 
L 348.440426 169.238137 
L 348.765405 169.339743 
L 349.090385 169.644561 
L 349.740344 169.847774 
L 350.390303 169.339743 
L 350.715283 169.441349 
L 351.040262 169.847774 
L 351.365242 170.457411 
L 351.690221 170.76223 
L 352.015201 170.76223 
L 352.66516 169.94938 
L 352.990139 169.644561 
L 353.640098 169.542955 
L 353.965078 169.339743 
L 355.914955 169.441349 
L 356.239934 169.644561 
L 356.564914 170.152593 
L 357.214873 170.457411 
L 357.539853 170.050986 
L 357.864832 169.441349 
L 358.189812 169.13653 
L 358.839771 169.238137 
L 359.16475 169.441349 
L 359.48973 169.339743 
L 360.139689 168.628499 
L 360.464668 168.628499 
L 361.114627 169.13653 
L 362.414545 169.94938 
L 362.739525 169.94938 
L 363.064505 169.746168 
L 363.714464 168.831712 
L 364.039443 168.526893 
L 364.364423 168.526893 
L 364.689402 168.831712 
L 365.339361 168.730105 
L 365.98932 168.425287 
L 366.639279 168.526893 
L 366.964259 168.831712 
L 367.939197 169.13653 
L 368.589156 168.831712 
L 369.239115 168.526893 
L 369.564095 168.222074 
L 369.889075 168.120468 
L 370.214054 167.81565 
L 371.188993 168.018862 
L 371.513972 168.018862 
L 372.488911 168.933318 
L 372.81389 168.933318 
L 373.788829 168.222074 
L 375.088747 168.628499 
L 375.413726 168.222074 
L 376.063686 167.714043 
L 376.713645 167.917256 
L 377.688583 168.730105 
L 378.013563 168.831712 
L 378.663522 168.526893 
L 379.313481 167.409225 
L 379.63846 167.307618 
L 379.96344 167.409225 
L 380.288419 167.81565 
L 381.263358 168.323681 
L 382.888256 167.714043 
L 383.538215 167.104406 
L 383.863194 167.206012 
L 384.838133 168.425287 
L 385.163112 168.526893 
L 385.813071 168.222074 
L 386.138051 168.222074 
L 386.46303 168.018862 
L 386.78801 168.222074 
L 387.112989 168.120468 
L 387.762948 167.510831 
L 388.412907 167.206012 
L 389.387846 166.291556 
L 389.712826 166.291556 
L 390.037805 166.799587 
L 390.687764 168.323681 
L 391.012744 168.526893 
L 391.337723 168.018862 
L 391.662703 167.206012 
L 391.987682 166.697981 
L 392.637641 166.697981 
L 392.962621 166.901194 
L 393.61258 166.596375 
L 393.937559 166.799587 
L 394.587518 168.120468 
L 394.912498 168.120468 
L 395.887437 166.697981 
L 396.212416 166.697981 
L 396.862375 167.0028 
L 398.162293 166.697981 
L 398.487273 166.697981 
L 398.487273 166.697981 
" clip-path="url(#p2f00fd6822)" style="fill: none; stroke: #1f77b4; stroke-width: 1.5; stroke-linecap: square"/>
   </g>
   <g id="line2d_16">
    <path d="M 73.832727 291.084305 
L 398.487273 291.104627 
L 398.487273 291.104627 
" clip-path="url(#p2f00fd6822)" style="fill: none; stroke: #ff7f0e; stroke-width: 1.5; stroke-linecap: square"/>
   </g>
   <g id="line2d_17">
    <path d="M 73.832727 54.482456 
L 75.132645 54.177637 
L 75.457625 54.177637 
L 75.782604 54.38085 
L 76.107584 54.38085 
L 77.082523 55.193699 
L 77.407502 55.295306 
L 77.732482 55.092093 
L 78.70742 54.990487 
L 79.357379 54.482456 
L 80.007338 54.38085 
L 81.632236 54.990487 
L 82.282195 55.803337 
L 82.607174 55.904943 
L 82.932154 55.498518 
L 83.257133 55.295306 
L 83.582113 54.888881 
L 83.907093 54.787275 
L 84.232072 54.482456 
L 84.882031 54.38085 
L 85.85697 54.787275 
L 86.831908 55.498518 
L 87.156888 56.006549 
L 87.481867 56.108155 
L 87.806847 56.006549 
L 88.456806 55.295306 
L 89.756724 54.177637 
L 90.081704 54.177637 
L 91.056642 55.600124 
L 91.381622 55.904943 
L 92.031581 56.006549 
L 92.68154 55.701731 
L 93.006519 55.193699 
L 93.331499 54.38085 
L 93.656478 54.076031 
L 93.981458 53.974425 
L 94.631417 54.584062 
L 94.956396 55.092093 
L 95.281376 55.295306 
L 95.606355 55.701731 
L 96.256314 56.006549 
L 96.581294 56.006549 
L 97.556233 54.990487 
L 97.881212 54.584062 
L 98.206192 54.584062 
L 98.531171 54.279244 
L 99.50611 54.685668 
L 100.156069 55.295306 
L 100.806028 56.209762 
L 101.455987 56.108155 
L 102.105946 55.193699 
L 103.080885 54.38085 
L 103.730844 54.076031 
L 105.030762 56.006549 
L 105.355741 56.006549 
L 105.680721 55.803337 
L 106.0057 55.803337 
L 107.630598 54.38085 
L 107.955577 54.38085 
L 108.605536 55.092093 
L 108.930516 54.990487 
L 109.580475 55.701731 
L 109.905455 56.209762 
L 110.555414 56.412974 
L 111.855332 54.888881 
L 112.180311 54.990487 
L 113.15525 54.685668 
L 113.480229 55.092093 
L 113.805209 55.803337 
L 114.130188 56.209762 
L 114.455168 56.412974 
L 115.105127 55.904943 
L 115.755086 55.701731 
L 116.405045 55.092093 
L 116.730025 54.584062 
L 117.055004 54.482456 
L 117.704963 55.295306 
L 118.354922 55.600124 
L 118.679902 55.701731 
L 119.004881 56.006549 
L 119.65484 56.006549 
L 120.304799 55.295306 
L 120.629779 54.990487 
L 121.604717 54.990487 
L 121.929697 54.787275 
L 122.254676 54.787275 
L 122.904636 55.295306 
L 123.554595 56.108155 
L 124.204554 56.006549 
L 124.529533 55.498518 
L 126.154431 54.584062 
L 126.47941 54.685668 
L 126.80439 54.990487 
L 127.129369 55.092093 
L 127.779328 55.600124 
L 128.429287 55.498518 
L 128.754267 55.498518 
L 129.079247 55.193699 
L 129.404226 55.092093 
L 129.729206 54.685668 
L 130.379165 54.482456 
L 130.704144 54.685668 
L 131.029124 54.584062 
L 131.354103 54.888881 
L 132.004062 55.092093 
L 132.329042 54.990487 
L 132.654021 55.193699 
L 132.979001 55.193699 
L 133.30398 54.990487 
L 133.62896 54.482456 
L 133.953939 54.584062 
L 134.278919 54.38085 
L 134.603898 54.685668 
L 135.253857 54.584062 
L 135.903817 54.685668 
L 136.878755 55.295306 
L 138.503653 54.279244 
L 139.478591 54.279244 
L 139.803571 54.584062 
L 140.12855 54.584062 
L 140.45353 54.990487 
L 142.078428 54.990487 
L 143.053366 54.279244 
L 143.378346 54.482456 
L 144.028305 54.38085 
L 145.328223 54.888881 
L 145.653202 55.193699 
L 146.95312 54.685668 
L 147.2781 54.482456 
L 147.603079 54.482456 
L 148.253038 54.177637 
L 148.902998 54.482456 
L 149.877936 55.600124 
L 150.202916 55.600124 
L 151.502834 54.787275 
L 151.827813 54.38085 
L 152.152793 54.177637 
L 152.802752 54.177637 
L 153.127731 53.974425 
L 153.452711 54.177637 
L 154.10267 54.888881 
L 154.427649 54.888881 
L 154.752629 55.092093 
L 155.402588 54.787275 
L 155.727568 54.482456 
L 156.052547 54.38085 
L 156.377527 54.076031 
L 157.352465 53.771212 
L 157.677445 53.974425 
L 158.002424 54.38085 
L 158.652383 54.685668 
L 158.977363 54.990487 
L 159.627322 55.092093 
L 159.952301 54.990487 
L 160.277281 54.482456 
L 160.60226 54.279244 
L 160.92724 53.771212 
L 161.577199 53.669606 
L 162.227158 53.872819 
L 162.877117 54.584062 
L 163.202097 54.888881 
L 164.177035 54.787275 
L 164.826994 54.482456 
L 165.151974 54.584062 
L 166.451892 53.872819 
L 166.776871 53.974425 
L 167.42683 54.584062 
L 167.75181 54.584062 
L 168.401769 54.990487 
L 169.051728 54.888881 
L 169.376708 54.888881 
L 170.026667 54.38085 
L 171.976544 54.482456 
L 172.626503 55.193699 
L 172.951482 55.295306 
L 173.276462 55.193699 
L 173.601441 55.295306 
L 173.926421 54.990487 
L 174.57638 54.990487 
L 175.551319 54.482456 
L 175.876298 54.38085 
L 176.201278 54.482456 
L 176.526257 54.38085 
L 177.501196 55.092093 
L 178.151155 55.701731 
L 178.801114 55.600124 
L 179.451073 54.888881 
L 179.776052 54.787275 
L 180.101032 54.38085 
L 180.426011 54.177637 
L 181.075971 54.38085 
L 181.40095 54.685668 
L 181.72593 54.584062 
L 182.375889 55.295306 
L 182.700868 55.701731 
L 183.350827 56.006549 
L 184.000786 55.701731 
L 184.650745 54.990487 
L 184.975725 54.787275 
L 185.625684 54.076031 
L 186.275643 54.482456 
L 186.600622 55.295306 
L 186.925602 55.498518 
L 187.250581 56.006549 
L 187.900541 56.209762 
L 188.22552 56.006549 
L 188.875479 55.092093 
L 189.525438 53.974425 
L 189.850418 53.974425 
L 190.825356 54.888881 
L 191.475315 55.803337 
L 191.800295 56.108155 
L 192.450254 56.108155 
L 194.075152 54.584062 
L 194.725111 54.38085 
L 195.05009 54.482456 
L 195.37507 54.888881 
L 196.025029 55.396912 
L 196.674988 56.311368 
L 196.999967 56.412974 
L 197.649926 55.904943 
L 198.299885 55.092093 
L 198.949844 54.584062 
L 199.274824 54.38085 
L 199.924783 54.482456 
L 200.574742 56.006549 
L 200.899722 56.209762 
L 202.19964 55.701731 
L 202.524619 55.396912 
L 203.174578 54.482456 
L 203.824537 54.38085 
L 204.799476 55.193699 
L 205.124455 55.295306 
L 206.099394 56.412974 
L 206.424373 56.311368 
L 206.749353 55.904943 
L 207.074333 55.295306 
L 207.399312 54.990487 
L 207.724292 54.888881 
L 208.049271 54.990487 
L 208.69923 54.685668 
L 209.02421 54.685668 
L 209.349189 55.092093 
L 209.999148 56.311368 
L 210.974087 55.904943 
L 211.299066 55.600124 
L 211.949025 55.396912 
L 212.274005 54.888881 
L 212.923964 54.584062 
L 213.573923 55.295306 
L 213.898903 55.600124 
L 214.548862 55.701731 
L 215.198821 56.108155 
L 215.5238 56.006549 
L 216.498739 54.888881 
L 216.823718 54.787275 
L 217.148698 55.092093 
L 217.798657 54.787275 
L 218.123636 54.584062 
L 218.773595 55.295306 
L 219.098575 55.904943 
L 219.423554 56.209762 
L 219.748534 56.108155 
L 220.398493 55.600124 
L 222.023391 54.482456 
L 222.67335 54.888881 
L 222.998329 55.295306 
L 223.648288 55.600124 
L 224.298247 55.701731 
L 224.948206 55.193699 
L 225.923145 54.482456 
L 226.898084 54.685668 
L 227.548043 54.787275 
L 227.873022 54.888881 
L 228.198002 55.193699 
L 228.522981 55.092093 
L 228.847961 55.193699 
L 229.17294 54.888881 
L 230.147879 54.584062 
L 230.797838 54.685668 
L 231.122817 54.482456 
L 231.447797 54.482456 
L 232.747715 55.295306 
L 234.697592 54.177637 
L 235.347551 54.177637 
L 235.99751 54.787275 
L 236.647469 54.888881 
L 237.297428 54.990487 
L 237.947387 54.990487 
L 238.597346 54.482456 
L 238.922326 54.279244 
L 239.572285 54.38085 
L 240.547224 54.38085 
L 240.872203 54.584062 
L 241.197183 54.990487 
L 241.847142 55.193699 
L 243.472039 54.279244 
L 243.797019 54.279244 
L 244.121998 54.076031 
L 244.771957 54.482456 
L 245.421916 55.295306 
L 246.396855 55.295306 
L 247.046814 54.787275 
L 247.371794 54.685668 
L 247.696773 54.177637 
L 248.021753 53.974425 
L 248.671712 54.076031 
L 249.64665 54.482456 
L 250.296609 54.990487 
L 250.621589 55.092093 
L 251.271548 54.685668 
L 251.596527 54.685668 
L 251.921507 54.177637 
L 252.896446 53.669606 
L 253.221425 53.669606 
L 254.196364 54.584062 
L 254.521343 54.685668 
L 254.846323 54.990487 
L 255.496282 55.092093 
L 255.821261 54.990487 
L 256.7962 53.771212 
L 257.121179 53.568 
L 257.446159 53.568 
L 258.421097 54.177637 
L 258.746077 54.584062 
L 259.396036 54.990487 
L 260.370975 54.38085 
L 261.345913 54.38085 
L 261.995872 53.872819 
L 262.320852 53.669606 
L 262.645831 53.771212 
L 262.970811 54.177637 
L 264.270729 54.888881 
L 264.595708 54.990487 
L 265.245667 54.787275 
L 265.570647 54.482456 
L 266.545586 54.279244 
L 266.870565 54.279244 
L 267.195545 54.482456 
L 267.520524 54.38085 
L 267.845504 54.482456 
L 268.170483 54.888881 
L 268.820442 55.295306 
L 269.795381 55.295306 
L 270.12036 54.990487 
L 272.070238 54.38085 
L 273.045176 54.685668 
L 273.695135 55.396912 
L 274.345094 55.701731 
L 274.995053 55.295306 
L 275.320033 54.787275 
L 276.294971 54.279244 
L 277.26991 54.38085 
L 277.594889 54.685668 
L 277.919869 54.787275 
L 278.894808 55.701731 
L 279.869746 55.600124 
L 280.194726 55.295306 
L 280.519705 54.685668 
L 281.494644 54.177637 
L 281.819623 54.177637 
L 283.119541 55.803337 
L 283.444521 55.803337 
L 283.7695 56.006549 
L 284.419459 55.498518 
L 285.394398 54.076031 
L 285.719378 53.771212 
L 286.044357 54.279244 
L 286.369337 54.482456 
L 287.344275 55.600124 
L 287.669255 55.904943 
L 287.994234 56.006549 
L 289.619132 54.482456 
L 290.269091 54.279244 
L 291.244029 54.685668 
L 291.569009 54.888881 
L 292.543948 56.108155 
L 292.868927 56.311368 
L 293.193907 56.209762 
L 293.518886 55.600124 
L 295.143784 54.177637 
L 295.468763 54.177637 
L 295.793743 54.482456 
L 296.118722 54.990487 
L 296.443702 55.803337 
L 296.768681 56.006549 
L 298.0686 55.600124 
L 298.393579 55.295306 
L 299.043538 54.482456 
L 299.368518 54.279244 
L 299.693497 54.279244 
L 300.018477 54.482456 
L 300.343456 54.888881 
L 300.993415 55.396912 
L 301.968354 56.209762 
L 302.293333 56.209762 
L 302.943292 55.295306 
L 303.268272 54.990487 
L 303.593251 54.990487 
L 303.918231 54.787275 
L 304.89317 54.685668 
L 305.218149 55.092093 
L 305.543129 55.803337 
L 305.868108 56.209762 
L 306.193088 56.412974 
L 306.843047 55.803337 
L 307.817985 55.396912 
L 308.467944 54.584062 
L 309.442883 55.295306 
L 309.767862 55.600124 
L 310.092842 55.498518 
L 311.067781 56.006549 
L 311.39276 56.006549 
L 312.042719 55.193699 
L 312.367699 54.888881 
L 313.017658 54.990487 
L 313.667617 54.888881 
L 314.317576 54.787275 
L 315.292514 56.108155 
L 315.617494 56.108155 
L 316.592432 55.396912 
L 317.567371 54.584062 
L 318.54231 54.990487 
L 319.192269 55.498518 
L 320.492187 55.396912 
L 320.817166 55.092093 
L 321.467125 54.787275 
L 321.792105 54.584062 
L 322.767043 54.685668 
L 323.092023 54.888881 
L 323.417002 54.888881 
L 324.066962 55.193699 
L 324.391941 55.295306 
L 325.691859 54.482456 
L 326.016839 54.482456 
L 326.341818 54.685668 
L 326.666798 54.584062 
L 326.991777 54.685668 
L 327.316757 54.482456 
L 328.616675 55.193699 
L 329.591613 54.888881 
L 329.916593 54.482456 
L 330.891532 54.177637 
L 331.541491 54.685668 
L 331.86647 54.990487 
L 332.19145 55.092093 
L 332.516429 54.990487 
L 332.841409 55.092093 
L 333.166388 54.990487 
L 333.491368 55.092093 
L 334.466306 54.482456 
L 334.791286 54.482456 
L 335.116265 54.279244 
L 335.441245 54.482456 
L 336.416183 54.38085 
L 337.066143 55.092093 
L 337.391122 55.295306 
L 338.366061 54.787275 
L 338.69104 54.888881 
L 339.340999 54.38085 
L 340.315938 54.177637 
L 340.640917 54.482456 
L 341.290876 55.295306 
L 341.940835 55.396912 
L 342.590794 55.193699 
L 342.915774 54.787275 
L 344.215692 53.974425 
L 345.51561 54.38085 
L 345.84059 54.787275 
L 346.165569 54.990487 
L 346.815528 54.685668 
L 347.140508 54.787275 
L 347.790467 54.38085 
L 348.115446 53.974425 
L 349.090385 53.771212 
L 349.415364 53.974425 
L 349.740344 54.38085 
L 350.065324 54.584062 
L 350.390303 54.990487 
L 350.715283 54.990487 
L 351.040262 55.193699 
L 351.365242 55.193699 
L 351.690221 54.990487 
L 352.66516 53.872819 
L 352.990139 53.872819 
L 353.315119 53.669606 
L 354.615037 54.482456 
L 354.940016 54.888881 
L 355.589975 54.990487 
L 356.239934 54.584062 
L 356.564914 54.584062 
L 356.889894 54.38085 
L 357.214873 54.38085 
L 358.189812 53.872819 
L 358.514791 53.872819 
L 358.839771 54.38085 
L 360.789648 55.092093 
L 361.439607 54.482456 
L 362.414545 54.279244 
L 364.039443 54.888881 
L 364.689402 55.193699 
L 365.98932 55.092093 
L 367.289238 54.279244 
L 368.264177 54.38085 
L 369.564095 55.295306 
L 369.889075 55.600124 
L 370.539034 55.498518 
L 371.838952 54.279244 
L 372.163931 54.279244 
L 372.488911 54.076031 
L 374.113808 55.092093 
L 374.438788 55.600124 
L 375.088747 55.904943 
L 375.413726 55.803337 
L 377.363604 54.076031 
L 378.013563 54.279244 
L 378.338542 55.092093 
L 378.988501 56.006549 
L 379.313481 55.904943 
L 379.63846 56.006549 
L 380.288419 55.498518 
L 380.938378 54.38085 
L 381.263358 54.076031 
L 381.913317 54.076031 
L 382.888256 55.193699 
L 383.863194 56.006549 
L 384.188174 55.904943 
L 384.838133 55.193699 
L 385.488092 54.685668 
L 386.138051 54.38085 
L 386.46303 54.38085 
L 386.78801 54.584062 
L 387.112989 54.482456 
L 387.437969 54.787275 
L 388.087928 55.803337 
L 388.412907 56.108155 
L 388.737887 56.209762 
L 389.062867 56.108155 
L 389.387846 55.803337 
L 389.712826 55.092093 
L 390.037805 54.787275 
L 390.687764 54.482456 
L 391.012744 54.279244 
L 391.662703 54.584062 
L 392.312662 55.803337 
L 392.637641 56.108155 
L 392.962621 56.006549 
L 393.2876 55.701731 
L 393.61258 55.600124 
L 393.937559 55.701731 
L 394.262539 55.498518 
L 394.587518 55.092093 
L 394.912498 54.482456 
L 395.237477 54.279244 
L 395.562457 54.279244 
L 397.837314 56.51458 
L 398.162293 56.412974 
L 398.487273 55.803337 
L 398.487273 55.803337 
" clip-path="url(#p2f00fd6822)" style="fill: none; stroke: #2ca02c; stroke-width: 1.5; stroke-linecap: square"/>
   </g>
   <g id="line2d_18">
    <path d="M 73.832727 295.467679 
L 137.853694 295.376233 
L 139.478591 295.366073 
L 143.053366 295.396554 
L 144.353284 295.406715 
L 145.328223 295.406715 
L 146.303161 295.437197 
L 398.487273 295.427036 
L 398.487273 295.427036 
" clip-path="url(#p2f00fd6822)" style="fill: none; stroke: #d62728; stroke-width: 1.5; stroke-linecap: square"/>
   </g>
   <g id="patch_3">
    <path d="M 57.6 307.584 
L 57.6 41.472 
" style="fill: none; stroke: #000000; stroke-width: 0.8; stroke-linejoin: miter; stroke-linecap: square"/>
   </g>
   <g id="patch_4">
    <path d="M 414.72 307.584 
L 414.72 41.472 
" style="fill: none; stroke: #000000; stroke-width: 0.8; stroke-linejoin: miter; stroke-linecap: square"/>
   </g>
   <g id="patch_5">
    <path d="M 57.6 307.584 
L 414.72 307.584 
" style="fill: none; stroke: #000000; stroke-width: 0.8; stroke-linejoin: miter; stroke-linecap: square"/>
   </g>
   <g id="patch_6">
    <path d="M 57.6 41.472 
L 414.72 41.472 
" style="fill: none; stroke: #000000; stroke-width: 0.8; stroke-linejoin: miter; stroke-linecap: square"/>
   </g>
  </g>
 </g>
 <defs>
  <clipPath id="p2f00fd6822">
   <rect x="57.6" y="41.472" width="357.12" height="266.112"/>
  </clipPath>
 </defs>
</svg>
