<?xml version="1.0" encoding="utf-8" standalone="no"?>
<!DOCTYPE svg PUBLIC "-//W3C//DTD SVG 1.1//EN"
  "http://www.w3.org/Graphics/SVG/1.1/DTD/svg11.dtd">
<svg xmlns:xlink="http://www.w3.org/1999/xlink" width="460.8pt" height="345.6pt" viewBox="0 0 460.8 345.6" xmlns="http://www.w3.org/2000/svg" version="1.1">
 <metadata>
  <rdf:RDF xmlns:dc="http://purl.org/dc/elements/1.1/" xmlns:cc="http://creativecommons.org/ns#" xmlns:rdf="http://www.w3.org/1999/02/22-rdf-syntax-ns#">
   <cc:Work>
    <dc:type rdf:resource="http://purl.org/dc/dcmitype/StillImage"/>
    <dc:date>2025-12-29T22:07:57.350817</dc:date>
    <dc:format>image/svg+xml</dc:format>
    <dc:creator>
     <cc:Agent>
      <dc:title>Matplotlib v3.10.8, https://matplotlib.org/</dc:title>
     </cc:Agent>
    </dc:creator>
   </cc:Work>
  </rdf:RDF>
 </metadata>
 <defs>
  <style type="text/css">*{stroke-linejoin: round; stroke-linecap: butt}</style>
 </defs>
 <g id="figure_1">
  <g id="patch_1">
   <path d="M 0 345.6 
L 460.8 345.6 
L 460.8 0 
L 0 0 
z
" style="fill: #ffffff"/>
  </g>
  <g id="axes_1">
   <g id="patch_2">
    <path d="M 57.6 307.584 
L 414.72 307.584 
L 414.72 41.472 
L 57.6 41.472 
z
" style="fill: #ffffff"/>
   </g>
   <g id="matplotlib.axis_1">
    <g id="xtick_1">
     <g id="line2d_1">
      <defs>
       <path id="m88be48f76f" d="M 0 0 
L 0 3.5 
" style="stroke: #000000; stroke-width: 0.8"/>
      </defs>
      <g>
       <use xlink:href="#m88be48f76f" x="73.832727" y="307.584" style="stroke: #000000; stroke-width: 0.8"/>
      </g>
     </g>
     <g id="text_1">
      <!-- 0 -->
      <g transform="translate(70.651477 322.182437) scale(0.1 -0.1)">
       <defs>
        <path id="DejaVuSans-30" d="M 2034 4250 
Q 1547 4250 1301 3770 
Q 1056 3291 1056 2328 
Q 1056 1369 1301 889 
Q 1547 409 2034 409 
Q 2525 409 2770 889 
Q 3016 1369 3016 2328 
Q 3016 3291 2770 3770 
Q 2525 4250 2034 4250 
z
M 2034 4750 
Q 2819 4750 3233 4129 
Q 3647 3509 3647 2328 
Q 3647 1150 3233 529 
Q 2819 -91 2034 -91 
Q 1250 -91 836 529 
Q 422 1150 422 2328 
Q 422 3509 836 4129 
Q 1250 4750 2034 4750 
z
" transform="scale(0.015625)"/>
       </defs>
       <use xlink:href="#DejaVuSans-30"/>
      </g>
     </g>
    </g>
    <g id="xtick_2">
     <g id="line2d_2">
      <g>
       <use xlink:href="#m88be48f76f" x="138.828632" y="307.584" style="stroke: #000000; stroke-width: 0.8"/>
      </g>
     </g>
     <g id="text_2">
      <!-- 1 -->
      <g transform="translate(135.647382 322.182437) scale(0.1 -0.1)">
       <defs>
        <path id="DejaVuSans-31" d="M 794 531 
L 1825 531 
L 1825 4091 
L 703 3866 
L 703 4441 
L 1819 4666 
L 2450 4666 
L 2450 531 
L 3481 531 
L 3481 0 
L 794 0 
L 794 531 
z
" transform="scale(0.015625)"/>
       </defs>
       <use xlink:href="#DejaVuSans-31"/>
      </g>
     </g>
    </g>
    <g id="xtick_3">
     <g id="line2d_3">
      <g>
       <use xlink:href="#m88be48f76f" x="203.824537" y="307.584" style="stroke: #000000; stroke-width: 0.8"/>
      </g>
     </g>
     <g id="text_3">
      <!-- 2 -->
      <g transform="translate(200.643287 322.182437) scale(0.1 -0.1)">
       <defs>
        <path id="DejaVuSans-32" d="M 1228 531 
L 3431 531 
L 3431 0 
L 469 0 
L 469 531 
Q 828 903 1448 1529 
Q 2069 2156 2228 2338 
Q 2531 2678 2651 2914 
Q 2772 3150 2772 3378 
Q 2772 3750 2511 3984 
Q 2250 4219 1831 4219 
Q 1534 4219 1204 4116 
Q 875 4013 500 3803 
L 500 4441 
Q 881 4594 1212 4672 
Q 1544 4750 1819 4750 
Q 2544 4750 2975 4387 
Q 3406 4025 3406 3419 
Q 3406 3131 3298 2873 
Q 3191 2616 2906 2266 
Q 2828 2175 2409 1742 
Q 1991 1309 1228 531 
z
" transform="scale(0.015625)"/>
       </defs>
       <use xlink:href="#DejaVuSans-32"/>
      </g>
     </g>
    </g>
    <g id="xtick_4">
     <g id="line2d_4">
      <g>
       <use xlink:href="#m88be48f76f" x="268.820442" y="307.584" style="stroke: #000000; stroke-width: 0.8"/>
      </g>
     </g>
     <g id="text_4">
      <!-- 3 -->
      <g transform="translate(265.639192 322.182437) scale(0.1 -0.1)">
       <defs>
        <path id="DejaVuSans-33" d="M 2597 2516 
Q 3050 2419 3304 2112 
Q 3559 1806 3559 1356 
Q 3559 666 3084 287 
Q 2609 -91 1734 -91 
Q 1441 -91 1130 -33 
Q 819 25 488 141 
L 488 750 
Q 750 597 1062 519 
Q 1375 441 1716 441 
Q 2309 441 2620 675 
Q 2931 909 2931 1356 
Q 2931 1769 2642 2001 
Q 2353 2234 1838 2234 
L 1294 2234 
L 1294 2753 
L 1863 2753 
Q 2328 2753 2575 2939 
Q 2822 3125 2822 3475 
Q 2822 3834 2567 4026 
Q 2313 4219 1838 4219 
Q 1578 4219 1281 4162 
Q 984 4106 628 3988 
L 628 4550 
Q 988 4650 1302 4700 
Q 1616 4750 1894 4750 
Q 2613 4750 3031 4423 
Q 3450 4097 3450 3541 
Q 3450 3153 3228 2886 
Q 3006 2619 2597 2516 
z
" transform="scale(0.015625)"/>
       </defs>
       <use xlink:href="#DejaVuSans-33"/>
      </g>
     </g>
    </g>
    <g id="xtick_5">
     <g id="line2d_5">
      <g>
       <use xlink:href="#m88be48f76f" x="333.816347" y="307.584" style="stroke: #000000; stroke-width: 0.8"/>
      </g>
     </g>
     <g id="text_5">
      <!-- 4 -->
      <g transform="translate(330.635097 322.182437) scale(0.1 -0.1)">
       <defs>
        <path id="DejaVuSans-34" d="M 2419 4116 
L 825 1625 
L 2419 1625 
L 2419 4116 
z
M 2253 4666 
L 3047 4666 
L 3047 1625 
L 3713 1625 
L 3713 1100 
L 3047 1100 
L 3047 0 
L 2419 0 
L 2419 1100 
L 313 1100 
L 313 1709 
L 2253 4666 
z
" transform="scale(0.015625)"/>
       </defs>
       <use xlink:href="#DejaVuSans-34"/>
      </g>
     </g>
    </g>
    <g id="xtick_6">
     <g id="line2d_6">
      <g>
       <use xlink:href="#m88be48f76f" x="398.812252" y="307.584" style="stroke: #000000; stroke-width: 0.8"/>
      </g>
     </g>
     <g id="text_6">
      <!-- 5 -->
      <g transform="translate(395.631002 322.182437) scale(0.1 -0.1)">
       <defs>
        <path id="DejaVuSans-35" d="M 691 4666 
L 3169 4666 
L 3169 4134 
L 1269 4134 
L 1269 2991 
Q 1406 3038 1543 3061 
Q 1681 3084 1819 3084 
Q 2600 3084 3056 2656 
Q 3513 2228 3513 1497 
Q 3513 744 3044 326 
Q 2575 -91 1722 -91 
Q 1428 -91 1123 -41 
Q 819 9 494 109 
L 494 744 
Q 775 591 1075 516 
Q 1375 441 1709 441 
Q 2250 441 2565 725 
Q 2881 1009 2881 1497 
Q 2881 1984 2565 2268 
Q 2250 2553 1709 2553 
Q 1456 2553 1204 2497 
Q 953 2441 691 2322 
L 691 4666 
z
" transform="scale(0.015625)"/>
       </defs>
       <use xlink:href="#DejaVuSans-35"/>
      </g>
     </g>
    </g>
    <g id="text_7">
     <!-- 1e−7 -->
     <g transform="translate(387.462188 334.860562) scale(0.1 -0.1)">
      <defs>
       <path id="DejaVuSans-65" d="M 3597 1894 
L 3597 1613 
L 953 1613 
Q 991 1019 1311 708 
Q 1631 397 2203 397 
Q 2534 397 2845 478 
Q 3156 559 3463 722 
L 3463 178 
Q 3153 47 2828 -22 
Q 2503 -91 2169 -91 
Q 1331 -91 842 396 
Q 353 884 353 1716 
Q 353 2575 817 3079 
Q 1281 3584 2069 3584 
Q 2775 3584 3186 3129 
Q 3597 2675 3597 1894 
z
M 3022 2063 
Q 3016 2534 2758 2815 
Q 2500 3097 2075 3097 
Q 1594 3097 1305 2825 
Q 1016 2553 972 2059 
L 3022 2063 
z
" transform="scale(0.015625)"/>
       <path id="DejaVuSans-2212" d="M 678 2272 
L 4684 2272 
L 4684 1741 
L 678 1741 
L 678 2272 
z
" transform="scale(0.015625)"/>
       <path id="DejaVuSans-37" d="M 525 4666 
L 3525 4666 
L 3525 4397 
L 1831 0 
L 1172 0 
L 2766 4134 
L 525 4134 
L 525 4666 
z
" transform="scale(0.015625)"/>
      </defs>
      <use xlink:href="#DejaVuSans-31"/>
      <use xlink:href="#DejaVuSans-65" transform="translate(63.623047 0)"/>
      <use xlink:href="#DejaVuSans-2212" transform="translate(125.146484 0)"/>
      <use xlink:href="#DejaVuSans-37" transform="translate(208.935547 0)"/>
     </g>
    </g>
   </g>
   <g id="matplotlib.axis_2">
    <g id="ytick_1">
     <g id="line2d_7">
      <defs>
       <path id="mccd01b4dc5" d="M 0 0 
L -3.5 0 
" style="stroke: #000000; stroke-width: 0.8"/>
      </defs>
      <g>
       <use xlink:href="#mccd01b4dc5" x="57.6" y="304.050949" style="stroke: #000000; stroke-width: 0.8"/>
      </g>
     </g>
     <g id="text_8">
      <!-- 0 -->
      <g transform="translate(44.2375 307.850168) scale(0.1 -0.1)">
       <use xlink:href="#DejaVuSans-30"/>
      </g>
     </g>
    </g>
    <g id="ytick_2">
     <g id="line2d_8">
      <g>
       <use xlink:href="#mccd01b4dc5" x="57.6" y="246.069288" style="stroke: #000000; stroke-width: 0.8"/>
      </g>
     </g>
     <g id="text_9">
      <!-- 10 -->
      <g transform="translate(37.875 249.868507) scale(0.1 -0.1)">
       <use xlink:href="#DejaVuSans-31"/>
       <use xlink:href="#DejaVuSans-30" transform="translate(63.623047 0)"/>
      </g>
     </g>
    </g>
    <g id="ytick_3">
     <g id="line2d_9">
      <g>
       <use xlink:href="#mccd01b4dc5" x="57.6" y="188.087628" style="stroke: #000000; stroke-width: 0.8"/>
      </g>
     </g>
     <g id="text_10">
      <!-- 20 -->
      <g transform="translate(37.875 191.886846) scale(0.1 -0.1)">
       <use xlink:href="#DejaVuSans-32"/>
       <use xlink:href="#DejaVuSans-30" transform="translate(63.623047 0)"/>
      </g>
     </g>
    </g>
    <g id="ytick_4">
     <g id="line2d_10">
      <g>
       <use xlink:href="#mccd01b4dc5" x="57.6" y="130.105967" style="stroke: #000000; stroke-width: 0.8"/>
      </g>
     </g>
     <g id="text_11">
      <!-- 30 -->
      <g transform="translate(37.875 133.905185) scale(0.1 -0.1)">
       <use xlink:href="#DejaVuSans-33"/>
       <use xlink:href="#DejaVuSans-30" transform="translate(63.623047 0)"/>
      </g>
     </g>
    </g>
    <g id="ytick_5">
     <g id="line2d_11">
      <g>
       <use xlink:href="#mccd01b4dc5" x="57.6" y="72.124306" style="stroke: #000000; stroke-width: 0.8"/>
      </g>
     </g>
     <g id="text_12">
      <!-- 40 -->
      <g transform="translate(37.875 75.923525) scale(0.1 -0.1)">
       <use xlink:href="#DejaVuSans-34"/>
       <use xlink:href="#DejaVuSans-30" transform="translate(63.623047 0)"/>
      </g>
     </g>
    </g>
   </g>
   <g id="line2d_12">
    <path d="M 73.832727 180.46159 
L 74.157707 181.095764 
L 74.482686 180.914571 
L 74.807666 180.370993 
L 77.082523 180.280397 
L 77.407502 180.552186 
L 77.732482 180.370993 
L 78.382441 180.370993 
L 79.0324 181.005168 
L 79.357379 180.914571 
L 79.682359 180.552186 
L 80.007338 180.008608 
L 80.332318 180.008608 
L 80.982277 180.46159 
L 81.632236 180.370993 
L 81.957215 180.189801 
L 82.282195 180.280397 
L 82.607174 180.642782 
L 83.257133 180.370993 
L 83.582113 180.189801 
L 83.907093 180.370993 
L 84.882031 180.46159 
L 85.207011 180.099204 
L 85.53199 180.189801 
L 86.181949 180.642782 
L 86.831908 180.370993 
L 87.481867 180.189801 
L 88.131826 180.280397 
L 88.781785 180.008608 
L 89.756724 180.280397 
L 90.081704 180.189801 
L 90.406683 179.827415 
L 90.731663 179.918012 
L 91.381622 181.18636 
L 91.706601 180.823975 
L 92.031581 180.280397 
L 92.35656 180.008608 
L 93.331499 180.642782 
L 93.656478 180.552186 
L 93.981458 179.827415 
L 94.306437 179.46503 
L 94.956396 180.552186 
L 95.606355 180.823975 
L 95.931335 180.823975 
L 96.256314 180.642782 
L 97.556233 180.642782 
L 97.881212 180.370993 
L 98.531171 180.189801 
L 98.856151 180.370993 
L 99.50611 180.280397 
L 100.156069 180.189801 
L 100.806028 180.642782 
L 101.131007 181.18636 
L 102.105946 180.280397 
L 102.430925 180.552186 
L 102.755905 181.18636 
L 103.080885 181.548746 
L 103.405864 180.914571 
L 103.730844 180.008608 
L 104.055823 179.827415 
L 104.380803 180.189801 
L 104.705782 181.276957 
L 105.030762 181.911131 
L 105.355741 181.458149 
L 105.680721 180.46159 
L 106.0057 179.827415 
L 106.33068 180.099204 
L 106.655659 180.914571 
L 106.980639 181.276957 
L 107.630598 180.280397 
L 107.955577 180.189801 
L 108.605536 180.914571 
L 109.580475 180.823975 
L 110.230434 181.276957 
L 111.205373 180.46159 
L 111.855332 181.18636 
L 112.180311 181.095764 
L 112.505291 180.46159 
L 112.83027 180.189801 
L 113.15525 180.370993 
L 113.480229 180.914571 
L 113.805209 181.18636 
L 114.130188 181.005168 
L 114.455168 180.642782 
L 114.780147 180.552186 
L 115.430106 181.367553 
L 115.755086 181.367553 
L 116.405045 180.823975 
L 116.730025 180.823975 
L 117.055004 180.642782 
L 117.704963 180.642782 
L 118.029943 180.823975 
L 118.354922 181.18636 
L 118.679902 181.367553 
L 119.329861 180.642782 
L 119.65484 180.733379 
L 120.304799 181.548746 
L 120.954758 181.458149 
L 121.604717 180.733379 
L 121.929697 181.095764 
L 122.254676 181.18636 
L 123.229615 180.914571 
L 123.554595 181.095764 
L 124.204554 181.005168 
L 124.529533 180.823975 
L 125.179492 181.276957 
L 125.504472 181.458149 
L 126.154431 181.005168 
L 126.47941 180.914571 
L 126.80439 181.005168 
L 127.129369 181.367553 
L 127.779328 181.095764 
L 128.104308 180.823975 
L 128.429287 180.914571 
L 128.754267 181.276957 
L 129.079247 181.458149 
L 129.404226 181.18636 
L 129.729206 180.733379 
L 130.379165 180.642782 
L 130.704144 180.823975 
L 131.354103 180.733379 
L 131.679083 180.733379 
L 132.329042 181.095764 
L 132.979001 181.095764 
L 133.62896 181.548746 
L 134.278919 181.276957 
L 134.928878 180.46159 
L 135.903817 180.914571 
L 136.228796 180.642782 
L 136.553776 180.552186 
L 137.203735 181.005168 
L 137.528714 181.548746 
L 137.853694 181.458149 
L 138.503653 180.552186 
L 138.828632 180.642782 
L 139.153612 180.914571 
L 140.45353 180.642782 
L 140.778509 180.733379 
L 141.428468 181.18636 
L 142.728387 181.458149 
L 143.378346 180.46159 
L 144.028305 180.733379 
L 144.353284 181.005168 
L 144.678264 180.823975 
L 145.003243 180.46159 
L 145.328223 180.280397 
L 146.303161 181.276957 
L 146.628141 181.18636 
L 146.95312 180.823975 
L 147.2781 180.733379 
L 148.253038 180.914571 
L 149.227977 180.733379 
L 149.552957 180.914571 
L 149.877936 180.914571 
L 150.527895 180.280397 
L 151.177854 181.005168 
L 151.827813 181.18636 
L 152.477772 180.552186 
L 152.802752 180.552186 
L 153.127731 180.823975 
L 154.427649 180.552186 
L 156.052547 181.005168 
L 156.377527 180.733379 
L 156.702506 180.642782 
L 157.677445 180.823975 
L 158.652383 180.280397 
L 158.977363 180.46159 
L 159.627322 181.276957 
L 160.92724 180.642782 
L 161.252219 180.914571 
L 162.227158 180.370993 
L 164.177035 180.46159 
L 164.826994 181.276957 
L 165.151974 181.095764 
L 165.476953 180.733379 
L 166.126912 180.642782 
L 166.451892 181.005168 
L 166.776871 180.914571 
L 167.42683 180.189801 
L 168.07679 180.642782 
L 168.726749 180.733379 
L 169.376708 180.280397 
L 169.701687 180.642782 
L 170.026667 181.18636 
L 170.351646 181.005168 
L 170.676626 180.642782 
L 171.001605 180.46159 
L 174.2514 180.552186 
L 175.226339 181.005168 
L 175.876298 180.189801 
L 176.526257 180.189801 
L 176.851237 180.552186 
L 177.501196 180.280397 
L 177.826175 180.099204 
L 178.151155 180.189801 
L 178.476134 180.552186 
L 178.801114 180.552186 
L 179.451073 180.189801 
L 180.426011 180.552186 
L 181.075971 180.189801 
L 182.050909 180.552186 
L 182.375889 180.370993 
L 182.700868 180.46159 
L 184.650745 180.008608 
L 184.975725 180.008608 
L 185.300704 180.189801 
L 185.950663 180.099204 
L 186.275643 179.918012 
L 186.600622 180.008608 
L 187.250581 181.18636 
L 187.575561 181.005168 
L 187.900541 180.370993 
L 188.22552 180.099204 
L 188.875479 180.552186 
L 189.200459 180.733379 
L 189.525438 180.642782 
L 189.850418 179.827415 
L 190.175397 179.374433 
L 190.500377 179.827415 
L 190.825356 180.552186 
L 191.150336 180.823975 
L 191.800295 180.914571 
L 192.450254 180.642782 
L 193.100213 180.823975 
L 193.425192 180.733379 
L 194.075152 180.280397 
L 194.400131 180.189801 
L 194.725111 180.370993 
L 195.700049 180.189801 
L 196.025029 180.189801 
L 196.350008 180.370993 
L 196.999967 181.095764 
L 197.324947 180.914571 
L 197.974906 180.280397 
L 198.299885 180.46159 
L 198.624865 181.18636 
L 198.949844 181.458149 
L 199.274824 180.914571 
L 199.599803 179.918012 
L 199.924783 179.827415 
L 200.249762 180.099204 
L 200.574742 181.276957 
L 200.899722 181.820535 
L 201.224701 181.548746 
L 201.549681 180.46159 
L 201.87466 179.918012 
L 202.19964 180.189801 
L 202.524619 181.005168 
L 202.849599 181.367553 
L 203.499558 180.280397 
L 203.824537 180.189801 
L 204.474496 180.914571 
L 205.449435 180.914571 
L 205.774414 181.18636 
L 206.099394 181.276957 
L 206.424373 180.914571 
L 206.749353 180.370993 
L 207.074333 180.552186 
L 207.724292 181.18636 
L 208.049271 181.095764 
L 208.374251 180.46159 
L 208.69923 180.189801 
L 209.02421 180.552186 
L 209.349189 181.095764 
L 209.674169 181.18636 
L 210.324128 180.733379 
L 210.649107 180.552186 
L 211.299066 181.367553 
L 211.624046 181.367553 
L 212.274005 180.823975 
L 212.923964 180.733379 
L 213.248943 180.823975 
L 213.573923 180.642782 
L 214.548862 181.18636 
L 214.873841 180.914571 
L 215.198821 180.46159 
L 215.84878 180.914571 
L 216.173759 181.367553 
L 216.498739 181.458149 
L 216.823718 181.276957 
L 217.148698 180.914571 
L 217.473677 180.733379 
L 218.123636 181.005168 
L 219.098575 180.823975 
L 219.748534 181.005168 
L 220.398493 180.642782 
L 220.723473 181.005168 
L 221.373432 181.276957 
L 222.34837 180.733379 
L 222.998329 181.276957 
L 224.298247 181.005168 
L 224.623227 181.458149 
L 224.948206 181.458149 
L 225.273186 181.095764 
L 225.598165 180.552186 
L 227.548043 180.642782 
L 227.873022 181.005168 
L 228.198002 181.18636 
L 228.522981 181.095764 
L 229.49792 181.548746 
L 230.147879 181.276957 
L 230.797838 180.552186 
L 231.772776 180.914571 
L 232.422735 180.46159 
L 232.747715 180.642782 
L 233.397674 181.548746 
L 233.722654 181.548746 
L 234.372613 180.552186 
L 235.022572 181.005168 
L 235.99751 180.46159 
L 236.32249 180.642782 
L 236.647469 180.642782 
L 237.297428 181.095764 
L 237.947387 181.367553 
L 238.272367 181.639342 
L 238.597346 181.458149 
L 238.922326 180.914571 
L 239.247305 180.642782 
L 239.572285 180.642782 
L 240.222244 181.005168 
L 240.547224 180.914571 
L 240.872203 180.46159 
L 241.197183 180.280397 
L 241.847142 180.914571 
L 242.172121 181.18636 
L 242.497101 181.095764 
L 242.82208 180.823975 
L 243.14706 180.733379 
L 243.797019 181.005168 
L 244.771957 180.46159 
L 245.421916 180.914571 
L 245.746896 180.823975 
L 246.396855 180.189801 
L 247.046814 180.914571 
L 247.371794 181.18636 
L 247.696773 181.18636 
L 248.346732 180.552186 
L 248.996691 180.823975 
L 249.321671 180.642782 
L 251.596527 180.733379 
L 251.921507 180.914571 
L 252.896446 180.46159 
L 253.221425 180.823975 
L 253.546405 180.823975 
L 254.196364 180.46159 
L 254.521343 180.099204 
L 255.496282 181.276957 
L 255.821261 181.18636 
L 256.47122 180.642782 
L 256.7962 180.552186 
L 257.121179 180.733379 
L 258.096118 180.099204 
L 258.746077 180.189801 
L 259.721016 180.189801 
L 260.695954 181.18636 
L 261.020934 181.005168 
L 261.345913 180.552186 
L 261.995872 180.552186 
L 262.320852 180.823975 
L 262.645831 180.823975 
L 262.970811 180.280397 
L 263.29579 180.189801 
L 264.270729 180.642782 
L 264.595708 180.733379 
L 264.920688 180.370993 
L 265.245667 180.280397 
L 265.570647 180.552186 
L 265.895627 181.005168 
L 266.220606 181.005168 
L 266.545586 180.552186 
L 267.520524 180.370993 
L 268.170483 180.46159 
L 268.495463 180.280397 
L 269.145422 180.370993 
L 269.795381 180.46159 
L 270.12036 180.552186 
L 270.44534 180.914571 
L 271.095299 181.005168 
L 271.745258 180.280397 
L 272.070238 180.099204 
L 273.045176 180.552186 
L 273.695135 180.189801 
L 274.670074 180.552186 
L 274.995053 180.280397 
L 275.320033 180.189801 
L 275.645012 180.370993 
L 276.619951 180.370993 
L 276.94493 180.099204 
L 277.919869 180.46159 
L 278.244848 180.280397 
L 278.894808 180.189801 
L 279.544767 180.099204 
L 280.194726 180.099204 
L 280.519705 179.918012 
L 281.494644 180.189801 
L 281.819623 180.099204 
L 282.144603 179.736819 
L 282.469582 180.008608 
L 283.119541 181.095764 
L 284.09448 180.099204 
L 285.069419 180.733379 
L 285.394398 180.552186 
L 285.719378 179.736819 
L 286.044357 179.374433 
L 286.369337 179.827415 
L 286.694316 180.552186 
L 287.344275 180.823975 
L 287.669255 180.733379 
L 287.994234 180.46159 
L 289.294152 180.733379 
L 289.944111 180.099204 
L 290.59407 180.46159 
L 290.91905 180.189801 
L 291.893989 180.189801 
L 292.218968 180.370993 
L 292.543948 180.823975 
L 292.868927 181.005168 
L 293.518886 180.552186 
L 293.843866 180.280397 
L 294.168845 180.552186 
L 294.493825 181.18636 
L 294.818804 181.548746 
L 295.793743 179.827415 
L 296.118722 180.280397 
L 296.443702 181.458149 
L 296.768681 181.911131 
L 297.093661 181.458149 
L 297.41864 180.46159 
L 297.74362 179.827415 
L 298.0686 180.189801 
L 298.393579 181.005168 
L 298.718559 181.367553 
L 299.368518 180.280397 
L 299.693497 180.280397 
L 300.018477 180.733379 
L 300.668436 181.005168 
L 301.318395 181.095764 
L 301.968354 181.367553 
L 302.618313 180.733379 
L 303.268272 181.005168 
L 303.593251 181.18636 
L 303.918231 181.095764 
L 304.56819 180.189801 
L 304.89317 180.552186 
L 305.218149 181.095764 
L 305.543129 181.367553 
L 306.193088 180.914571 
L 306.518067 180.733379 
L 307.168026 181.548746 
L 307.493006 181.548746 
L 307.817985 181.18636 
L 308.467944 180.914571 
L 308.792924 180.823975 
L 309.117903 180.914571 
L 309.442883 180.733379 
L 309.767862 180.823975 
L 310.417821 181.367553 
L 311.067781 180.642782 
L 311.39276 180.733379 
L 311.71774 181.095764 
L 312.042719 181.639342 
L 312.692678 181.367553 
L 313.017658 181.005168 
L 313.342637 180.823975 
L 313.992596 181.095764 
L 314.317576 181.095764 
L 314.642555 180.823975 
L 315.617494 181.095764 
L 316.267453 180.733379 
L 316.917412 181.18636 
L 317.242391 181.458149 
L 317.892351 180.914571 
L 318.21733 180.914571 
L 318.867289 181.367553 
L 319.192269 181.276957 
L 319.842228 180.823975 
L 320.167207 181.005168 
L 320.492187 181.367553 
L 320.817166 181.548746 
L 321.467125 180.642782 
L 323.417002 180.733379 
L 324.066962 181.18636 
L 324.716921 181.095764 
L 325.0419 181.18636 
L 325.36688 181.458149 
L 325.691859 181.458149 
L 326.016839 181.276957 
L 326.666798 180.370993 
L 326.991777 180.552186 
L 327.316757 180.914571 
L 327.641736 180.823975 
L 327.966716 180.552186 
L 328.616675 180.642782 
L 329.266634 181.367553 
L 329.591613 181.367553 
L 330.241572 180.552186 
L 330.566552 180.823975 
L 330.891532 180.914571 
L 331.216511 180.823975 
L 331.541491 180.552186 
L 331.86647 180.642782 
L 332.516429 180.552186 
L 332.841409 180.914571 
L 333.491368 181.18636 
L 333.816347 181.458149 
L 334.141327 181.548746 
L 334.466306 181.367553 
L 334.791286 180.823975 
L 335.116265 180.552186 
L 335.441245 180.552186 
L 335.766224 180.823975 
L 336.091204 180.914571 
L 336.416183 180.823975 
L 336.741163 180.370993 
L 337.066143 180.280397 
L 338.041081 181.18636 
L 338.366061 181.095764 
L 338.69104 180.823975 
L 339.01602 180.733379 
L 339.340999 181.005168 
L 339.665979 181.005168 
L 339.990958 180.733379 
L 340.965897 180.642782 
L 341.290876 180.914571 
L 341.615856 180.823975 
L 341.940835 180.46159 
L 342.265815 180.280397 
L 342.915774 181.005168 
L 343.240753 181.095764 
L 343.890713 180.823975 
L 344.540672 180.552186 
L 344.865651 180.733379 
L 346.165569 180.46159 
L 346.490549 180.46159 
L 346.815528 180.823975 
L 347.140508 180.642782 
L 347.790467 180.914571 
L 348.440426 180.46159 
L 348.765405 180.552186 
L 349.090385 180.823975 
L 349.740344 180.733379 
L 350.065324 180.552186 
L 350.390303 180.099204 
L 351.365242 181.18636 
L 352.015201 180.914571 
L 352.66516 180.642782 
L 352.990139 180.823975 
L 353.640098 180.370993 
L 353.965078 180.189801 
L 354.615037 180.280397 
L 355.589975 180.189801 
L 356.239934 180.914571 
L 356.564914 181.095764 
L 357.539853 180.552186 
L 358.189812 180.823975 
L 358.514791 180.823975 
L 359.16475 180.099204 
L 359.814709 180.733379 
L 360.464668 180.642782 
L 360.789648 180.280397 
L 361.439607 180.552186 
L 361.764586 181.18636 
L 362.089566 181.095764 
L 362.739525 180.370993 
L 365.014382 180.46159 
L 365.664341 180.552186 
L 365.98932 180.552186 
L 366.3143 180.914571 
L 366.639279 181.095764 
L 366.964259 181.095764 
L 367.939197 180.099204 
L 368.264177 180.280397 
L 368.589156 180.642782 
L 369.239115 180.370993 
L 369.564095 180.189801 
L 370.539034 180.642782 
L 371.188993 180.189801 
L 371.513972 180.370993 
L 372.488911 180.280397 
L 373.13887 180.189801 
L 373.463849 180.552186 
L 373.788829 180.552186 
L 374.438788 180.280397 
L 375.413726 180.099204 
L 375.738706 180.189801 
L 376.388665 179.918012 
L 376.713645 180.099204 
L 377.038624 180.008608 
L 377.363604 180.189801 
L 378.013563 179.827415 
L 378.338542 180.008608 
L 378.663522 180.733379 
L 378.988501 181.095764 
L 379.313481 180.823975 
L 379.63846 180.280397 
L 379.96344 180.008608 
L 380.288419 180.370993 
L 380.938378 180.733379 
L 381.263358 180.552186 
L 381.588337 179.736819 
L 381.913317 179.46503 
L 382.238296 179.918012 
L 382.563276 180.642782 
L 383.213235 180.914571 
L 383.863194 180.552186 
L 384.838133 180.914571 
L 385.488092 180.46159 
L 385.813071 180.189801 
L 386.46303 180.370993 
L 386.78801 180.099204 
L 387.112989 180.280397 
L 387.437969 180.099204 
L 388.087928 180.370993 
L 388.412907 180.823975 
L 388.737887 180.914571 
L 389.712826 180.280397 
L 390.037805 180.552186 
L 390.362785 181.276957 
L 390.687764 181.548746 
L 391.337723 180.099204 
L 391.662703 179.918012 
L 391.987682 180.280397 
L 392.312662 181.458149 
L 392.637641 181.820535 
L 392.962621 181.458149 
L 393.2876 180.370993 
L 393.61258 179.918012 
L 393.937559 180.189801 
L 394.262539 181.095764 
L 394.587518 181.367553 
L 395.237477 180.189801 
L 395.562457 180.189801 
L 396.212416 180.914571 
L 397.187355 180.914571 
L 397.512334 181.18636 
L 397.837314 181.18636 
L 398.487273 180.552186 
L 398.487273 180.552186 
" clip-path="url(#p97942df8d8)" style="fill: none; stroke: #1f77b4; stroke-width: 1.5; stroke-linecap: square"/>
   </g>
   <g id="line2d_13">
    <path d="M 73.832727 295.406463 
L 132.654021 295.297748 
L 134.928878 295.306807 
L 135.903817 295.343046 
L 137.853694 295.333986 
L 175.876298 295.442702 
L 179.776052 295.442702 
L 219.748534 295.333986 
L 223.648288 295.333986 
L 226.898084 295.315867 
L 263.29579 295.415523 
L 265.245667 295.415523 
L 269.145422 295.415523 
L 272.070238 295.442702 
L 315.942473 295.333986 
L 319.517248 295.333986 
L 320.492187 295.333986 
L 321.467125 295.315867 
L 322.767043 295.324927 
L 326.666798 295.315867 
L 331.216511 295.333986 
L 335.116265 295.315867 
L 336.091204 295.361165 
L 338.366061 295.333986 
L 343.240753 295.361165 
L 347.465487 295.352105 
L 379.63846 295.451761 
L 380.613399 295.442702 
L 384.513153 295.433642 
L 385.813071 295.415523 
L 388.087928 295.397404 
L 389.062867 295.415523 
L 389.712826 295.388344 
L 390.687764 295.442702 
L 391.987682 295.442702 
L 393.61258 295.424583 
L 396.212416 295.397404 
L 398.487273 295.379284 
L 398.487273 295.379284 
" clip-path="url(#p97942df8d8)" style="fill: none; stroke: #ff7f0e; stroke-width: 1.5; stroke-linecap: square"/>
   </g>
   <g id="line2d_14">
    <path d="M 73.832727 55.470523 
L 74.157707 55.017542 
L 74.482686 54.926945 
L 75.132645 55.56112 
L 75.782604 55.289331 
L 76.107584 54.836349 
L 77.082523 55.289331 
L 77.732482 55.017542 
L 78.382441 55.289331 
L 79.0324 55.56112 
L 79.682359 55.470523 
L 80.982277 55.742312 
L 81.307256 55.379927 
L 81.957215 55.289331 
L 82.607174 55.198734 
L 82.932154 55.470523 
L 83.582113 55.651716 
L 83.907093 55.56112 
L 84.232072 55.742312 
L 84.882031 55.470523 
L 85.53199 55.198734 
L 85.85697 55.289331 
L 87.156888 55.017542 
L 87.481867 55.017542 
L 87.806847 55.198734 
L 88.456806 55.832909 
L 88.781785 55.923505 
L 89.431744 55.651716 
L 90.081704 55.651716 
L 91.056642 54.745753 
L 91.381622 54.745753 
L 91.706601 54.56456 
L 92.031581 54.836349 
L 92.68154 54.655156 
L 93.006519 54.836349 
L 93.656478 55.742312 
L 93.981458 55.923505 
L 94.631417 55.289331 
L 94.956396 55.017542 
L 95.931335 54.926945 
L 96.581294 54.836349 
L 98.531171 55.289331 
L 99.50611 54.655156 
L 99.831089 54.836349 
L 101.131007 54.56456 
L 101.455987 54.655156 
L 101.780966 55.108138 
L 102.105946 55.289331 
L 102.430925 55.289331 
L 102.755905 55.108138 
L 103.080885 54.655156 
L 103.405864 54.655156 
L 103.730844 55.198734 
L 104.055823 55.289331 
L 104.380803 55.017542 
L 104.705782 54.202174 
L 105.030762 53.930385 
L 105.355741 54.202174 
L 105.680721 54.836349 
L 106.0057 55.017542 
L 106.655659 54.655156 
L 107.305618 55.289331 
L 107.630598 55.651716 
L 107.955577 55.379927 
L 108.605536 54.020982 
L 108.930516 54.292771 
L 109.255495 54.745753 
L 109.580475 54.836349 
L 109.905455 54.292771 
L 110.230434 54.111578 
L 110.555414 54.111578 
L 111.205373 55.198734 
L 111.530352 55.108138 
L 112.180311 54.655156 
L 112.505291 54.56456 
L 112.83027 54.836349 
L 113.15525 54.926945 
L 113.480229 54.292771 
L 113.805209 53.930385 
L 114.130188 54.111578 
L 114.455168 54.655156 
L 114.780147 54.926945 
L 115.105127 54.655156 
L 115.755086 53.930385 
L 116.080066 54.292771 
L 116.405045 54.836349 
L 116.730025 55.108138 
L 117.379984 54.745753 
L 117.704963 54.383367 
L 118.354922 54.56456 
L 118.679902 54.473964 
L 119.004881 54.202174 
L 120.629779 54.745753 
L 121.604717 54.292771 
L 121.929697 54.383367 
L 122.579656 54.836349 
L 123.229615 54.111578 
L 123.554595 54.020982 
L 123.879574 54.292771 
L 124.529533 55.108138 
L 124.854513 55.017542 
L 125.504472 54.56456 
L 125.829451 54.836349 
L 126.154431 54.836349 
L 126.47941 54.655156 
L 127.129369 53.658596 
L 127.454349 54.020982 
L 127.779328 54.655156 
L 128.104308 54.56456 
L 128.754267 54.111578 
L 129.079247 54.202174 
L 129.729206 55.289331 
L 130.054185 55.198734 
L 130.704144 54.292771 
L 131.029124 54.56456 
L 131.354103 54.655156 
L 131.679083 54.473964 
L 132.329042 53.568 
L 132.654021 53.839789 
L 132.979001 54.473964 
L 133.30398 54.473964 
L 134.278919 54.020982 
L 134.928878 54.836349 
L 135.253857 54.655156 
L 135.903817 53.839789 
L 136.228796 54.111578 
L 136.553776 54.202174 
L 137.528714 53.839789 
L 137.853694 54.111578 
L 138.178673 54.836349 
L 138.503653 54.926945 
L 138.828632 54.836349 
L 139.153612 54.56456 
L 139.478591 54.111578 
L 139.803571 54.020982 
L 140.45353 54.111578 
L 141.103489 53.658596 
L 141.753448 54.383367 
L 143.378346 55.379927 
L 144.028305 55.108138 
L 144.353284 54.745753 
L 145.328223 54.383367 
L 145.653202 54.202174 
L 146.303161 54.202174 
L 146.628141 54.56456 
L 147.603079 54.836349 
L 148.253038 54.745753 
L 148.578018 54.926945 
L 149.227977 54.655156 
L 150.202916 54.383367 
L 151.827813 55.198734 
L 153.77769 54.56456 
L 154.10267 54.202174 
L 155.077609 54.292771 
L 155.402588 54.383367 
L 155.727568 54.655156 
L 156.052547 54.745753 
L 156.377527 55.198734 
L 156.702506 55.379927 
L 157.027486 55.289331 
L 157.352465 54.655156 
L 157.677445 54.383367 
L 158.002424 54.473964 
L 158.327404 54.745753 
L 158.652383 54.836349 
L 159.302342 53.930385 
L 159.627322 54.020982 
L 159.952301 54.655156 
L 160.277281 54.926945 
L 160.92724 54.836349 
L 161.252219 54.56456 
L 161.902179 55.108138 
L 162.227158 55.198734 
L 162.877117 54.202174 
L 163.202097 54.111578 
L 164.177035 54.836349 
L 164.502015 54.473964 
L 164.826994 54.56456 
L 165.476953 55.198734 
L 165.801933 55.289331 
L 166.126912 55.198734 
L 166.451892 54.836349 
L 166.776871 54.745753 
L 167.101851 54.836349 
L 167.42683 55.198734 
L 167.75181 54.926945 
L 168.07679 54.473964 
L 168.401769 54.292771 
L 168.726749 54.655156 
L 169.376708 55.742312 
L 170.026667 54.926945 
L 170.351646 54.926945 
L 171.001605 55.56112 
L 171.651564 55.289331 
L 171.976544 55.017542 
L 172.301523 55.017542 
L 172.626503 55.289331 
L 172.951482 55.289331 
L 173.601441 55.017542 
L 174.2514 55.289331 
L 174.57638 55.651716 
L 176.201278 55.651716 
L 176.526257 55.832909 
L 176.851237 55.742312 
L 177.501196 55.289331 
L 177.826175 55.379927 
L 178.151155 55.289331 
L 178.476134 55.470523 
L 179.126093 55.56112 
L 179.776052 55.832909 
L 180.750991 55.651716 
L 181.075971 55.289331 
L 181.40095 55.108138 
L 181.72593 55.198734 
L 182.050909 55.108138 
L 182.375889 55.289331 
L 183.350827 55.108138 
L 184.000786 55.56112 
L 184.325766 55.832909 
L 184.650745 55.923505 
L 185.950663 55.651716 
L 186.275643 55.289331 
L 187.250581 54.745753 
L 187.575561 54.926945 
L 188.5505 54.745753 
L 188.875479 54.926945 
L 189.850418 55.923505 
L 190.175397 55.742312 
L 190.500377 55.289331 
L 191.150336 54.926945 
L 191.800295 54.926945 
L 192.125274 54.745753 
L 192.450254 54.745753 
L 192.775233 55.017542 
L 193.750172 55.108138 
L 194.400131 55.289331 
L 195.700049 54.655156 
L 196.025029 54.745753 
L 196.999967 54.473964 
L 197.649926 54.926945 
L 197.974906 55.289331 
L 198.624865 55.108138 
L 198.949844 54.56456 
L 199.274824 54.745753 
L 199.599803 55.108138 
L 199.924783 55.198734 
L 200.574742 54.383367 
L 200.899722 53.930385 
L 201.224701 54.202174 
L 201.549681 54.836349 
L 201.87466 54.836349 
L 202.19964 54.655156 
L 202.524619 54.655156 
L 202.849599 54.836349 
L 203.174578 55.470523 
L 203.499558 55.56112 
L 203.824537 55.289331 
L 204.149517 54.473964 
L 204.474496 54.111578 
L 204.799476 54.292771 
L 205.124455 54.745753 
L 205.449435 54.655156 
L 206.099394 53.839789 
L 206.424373 54.020982 
L 206.749353 54.745753 
L 207.074333 55.017542 
L 207.399312 54.926945 
L 208.049271 54.473964 
L 208.374251 54.745753 
L 209.02421 54.836349 
L 209.349189 54.202174 
L 209.674169 53.839789 
L 209.999148 54.020982 
L 210.649107 54.745753 
L 210.974087 54.655156 
L 211.299066 54.111578 
L 211.624046 54.020982 
L 212.274005 54.836349 
L 212.923964 55.017542 
L 213.248943 54.655156 
L 213.898903 54.383367 
L 214.223882 54.56456 
L 215.5238 54.292771 
L 216.173759 54.836349 
L 216.823718 54.56456 
L 217.798657 54.383367 
L 218.123636 54.745753 
L 218.773595 54.655156 
L 219.098575 54.111578 
L 219.748534 54.383367 
L 220.073514 54.926945 
L 220.398493 55.108138 
L 221.048452 54.745753 
L 221.373432 54.836349 
L 221.698411 54.745753 
L 222.023391 54.836349 
L 222.34837 54.56456 
L 222.67335 53.930385 
L 222.998329 53.658596 
L 223.973268 54.926945 
L 224.298247 54.473964 
L 224.623227 54.292771 
L 224.948206 54.292771 
L 225.598165 55.379927 
L 225.923145 55.198734 
L 226.248124 54.745753 
L 226.573104 54.56456 
L 226.898084 54.56456 
L 227.223063 54.745753 
L 227.548043 54.655156 
L 227.873022 54.020982 
L 228.198002 53.749193 
L 229.17294 54.745753 
L 229.49792 54.383367 
L 229.822899 54.202174 
L 230.147879 54.202174 
L 230.797838 54.926945 
L 231.122817 54.745753 
L 231.447797 54.202174 
L 231.772776 53.930385 
L 232.747715 54.202174 
L 233.072695 53.839789 
L 233.397674 53.839789 
L 233.722654 54.202174 
L 234.047633 54.836349 
L 234.372613 55.198734 
L 235.022572 54.56456 
L 235.347551 54.111578 
L 236.32249 54.111578 
L 236.647469 53.839789 
L 237.297428 53.930385 
L 237.947387 54.745753 
L 238.922326 55.108138 
L 239.572285 55.379927 
L 239.897265 55.017542 
L 241.522162 54.202174 
L 241.847142 54.202174 
L 242.172121 54.383367 
L 242.497101 54.383367 
L 243.14706 54.836349 
L 244.446978 54.926945 
L 244.771957 55.017542 
L 245.421916 54.56456 
L 246.071876 54.473964 
L 247.046814 54.836349 
L 247.371794 55.198734 
L 247.696773 55.108138 
L 248.346732 55.198734 
L 248.996691 54.836349 
L 249.321671 54.836349 
L 249.64665 54.473964 
L 250.296609 54.202174 
L 250.621589 54.383367 
L 250.946568 54.292771 
L 251.596527 54.56456 
L 252.571466 55.470523 
L 252.896446 55.198734 
L 253.546405 54.473964 
L 254.521343 54.745753 
L 255.171302 54.020982 
L 255.496282 54.020982 
L 255.821261 54.655156 
L 256.47122 55.108138 
L 256.7962 54.836349 
L 257.121179 54.745753 
L 257.446159 54.836349 
L 257.771138 55.198734 
L 258.096118 55.108138 
L 258.421097 54.745753 
L 258.746077 54.202174 
L 259.071057 54.020982 
L 259.721016 54.745753 
L 260.370975 54.655156 
L 260.695954 54.473964 
L 261.670893 55.470523 
L 262.320852 54.655156 
L 262.645831 54.655156 
L 262.970811 54.926945 
L 263.29579 55.017542 
L 263.62077 54.836349 
L 264.270729 54.202174 
L 264.595708 54.473964 
L 264.920688 55.289331 
L 265.245667 55.651716 
L 265.570647 55.470523 
L 265.895627 54.926945 
L 266.220606 54.836349 
L 266.545586 55.017542 
L 266.870565 55.56112 
L 267.195545 55.379927 
L 267.520524 55.017542 
L 267.845504 54.926945 
L 268.820442 55.379927 
L 269.145422 55.017542 
L 269.470401 54.926945 
L 270.12036 55.198734 
L 270.770319 55.651716 
L 271.095299 55.379927 
L 271.420278 55.379927 
L 272.070238 55.651716 
L 272.720197 55.56112 
L 273.045176 55.379927 
L 273.370156 55.379927 
L 273.695135 55.198734 
L 274.345094 55.289331 
L 275.969992 55.832909 
L 277.26991 55.198734 
L 277.594889 55.289331 
L 277.919869 55.198734 
L 278.244848 55.289331 
L 278.569828 55.198734 
L 278.894808 54.926945 
L 279.219787 55.017542 
L 280.194726 55.742312 
L 280.844685 55.923505 
L 281.819623 55.56112 
L 282.469582 55.108138 
L 283.119541 54.655156 
L 283.7695 54.926945 
L 284.09448 54.655156 
L 284.419459 54.655156 
L 285.069419 55.198734 
L 285.394398 55.651716 
L 285.719378 55.832909 
L 286.044357 55.651716 
L 286.694316 54.926945 
L 287.994234 54.836349 
L 288.319214 54.745753 
L 288.644193 54.836349 
L 288.969173 55.108138 
L 289.294152 54.926945 
L 289.944111 55.108138 
L 291.893989 54.56456 
L 292.218968 54.655156 
L 292.543948 54.473964 
L 292.868927 54.473964 
L 293.518886 54.926945 
L 293.843866 55.289331 
L 294.168845 55.289331 
L 294.818804 54.56456 
L 295.143784 54.745753 
L 295.468763 55.108138 
L 295.793743 55.108138 
L 296.118722 54.745753 
L 296.443702 54.202174 
L 296.768681 54.020982 
L 297.093661 54.202174 
L 297.41864 54.745753 
L 298.0686 54.655156 
L 298.393579 54.56456 
L 298.718559 54.655156 
L 299.043538 55.289331 
L 299.368518 55.651716 
L 299.693497 55.198734 
L 300.018477 54.383367 
L 300.343456 54.020982 
L 300.668436 54.202174 
L 300.993415 54.56456 
L 301.318395 54.655156 
L 301.968354 53.839789 
L 302.293333 54.020982 
L 302.943292 55.108138 
L 303.268272 54.926945 
L 303.593251 54.56456 
L 303.918231 54.383367 
L 304.56819 54.926945 
L 304.89317 54.655156 
L 305.218149 54.111578 
L 305.543129 53.839789 
L 305.868108 53.930385 
L 306.518067 54.655156 
L 307.168026 54.202174 
L 307.493006 53.930385 
L 308.142965 54.745753 
L 308.467944 55.017542 
L 309.442883 54.473964 
L 310.092842 54.383367 
L 311.067781 54.202174 
L 311.71774 54.473964 
L 312.367699 54.655156 
L 313.342637 54.202174 
L 314.317576 54.745753 
L 315.292514 54.020982 
L 315.617494 54.202174 
L 315.942473 54.745753 
L 316.267453 54.926945 
L 317.242391 54.745753 
L 317.567371 54.926945 
L 318.21733 54.56456 
L 318.54231 53.839789 
L 318.867289 53.658596 
L 319.517248 54.56456 
L 319.842228 54.655156 
L 320.492187 53.930385 
L 320.817166 54.202174 
L 321.142146 54.836349 
L 321.467125 55.108138 
L 321.792105 55.108138 
L 322.442064 54.383367 
L 322.767043 54.56456 
L 323.417002 54.473964 
L 323.741982 53.930385 
L 324.066962 53.749193 
L 324.391941 53.930385 
L 324.716921 54.383367 
L 325.0419 54.56456 
L 325.36688 54.383367 
L 325.691859 54.020982 
L 326.016839 54.020982 
L 326.341818 54.56456 
L 326.666798 54.745753 
L 326.991777 54.655156 
L 327.641736 53.930385 
L 328.291695 54.202174 
L 328.616675 54.292771 
L 328.941654 53.839789 
L 329.591613 54.202174 
L 330.241572 55.108138 
L 330.566552 55.108138 
L 330.891532 54.383367 
L 331.216511 54.111578 
L 331.541491 54.020982 
L 331.86647 54.202174 
L 332.516429 53.839789 
L 332.841409 53.839789 
L 333.816347 54.655156 
L 334.141327 54.655156 
L 334.466306 54.836349 
L 334.791286 55.198734 
L 335.441245 55.470523 
L 335.766224 55.198734 
L 336.091204 54.745753 
L 337.066143 54.292771 
L 337.716102 54.111578 
L 339.01602 54.836349 
L 339.340999 54.745753 
L 339.665979 54.926945 
L 340.640917 54.836349 
L 340.965897 54.745753 
L 341.290876 54.473964 
L 342.265815 54.473964 
L 343.565733 55.198734 
L 345.190631 54.745753 
L 345.84059 54.111578 
L 346.165569 54.202174 
L 346.490549 54.111578 
L 347.140508 54.383367 
L 347.465487 54.473964 
L 347.790467 54.745753 
L 348.440426 55.470523 
L 348.765405 55.289331 
L 349.090385 54.745753 
L 349.415364 54.473964 
L 349.740344 54.56456 
L 350.065324 54.836349 
L 350.390303 54.836349 
L 351.040262 53.930385 
L 351.365242 54.202174 
L 352.015201 55.017542 
L 352.34018 55.108138 
L 352.66516 54.745753 
L 352.990139 54.655156 
L 353.640098 55.198734 
L 353.965078 55.289331 
L 354.290057 54.655156 
L 354.940016 54.020982 
L 355.589975 54.745753 
L 355.914955 54.836349 
L 356.239934 54.56456 
L 356.564914 54.56456 
L 356.889894 54.745753 
L 357.539853 55.470523 
L 358.189812 54.655156 
L 358.514791 54.745753 
L 359.16475 55.198734 
L 360.139689 54.292771 
L 361.114627 55.651716 
L 361.764586 55.198734 
L 362.089566 54.836349 
L 362.739525 55.56112 
L 363.064505 55.56112 
L 363.389484 55.108138 
L 363.714464 55.017542 
L 364.039443 55.108138 
L 364.364423 55.379927 
L 364.689402 55.379927 
L 365.339361 55.017542 
L 365.98932 55.198734 
L 366.3143 55.56112 
L 366.964259 55.651716 
L 367.289238 55.56112 
L 368.264177 55.742312 
L 368.914136 55.470523 
L 370.864013 55.56112 
L 371.838952 55.742312 
L 372.163931 55.742312 
L 372.81389 55.289331 
L 373.788829 55.017542 
L 374.113808 55.289331 
L 374.763767 55.017542 
L 375.088747 54.926945 
L 376.063686 55.832909 
L 376.713645 55.742312 
L 377.363604 55.832909 
L 378.988501 54.56456 
L 379.313481 54.745753 
L 380.288419 54.655156 
L 380.938378 55.198734 
L 381.263358 55.742312 
L 381.588337 55.742312 
L 382.563276 55.198734 
L 382.888256 54.836349 
L 383.538215 55.017542 
L 384.188174 54.745753 
L 384.513153 55.017542 
L 385.163112 55.198734 
L 385.813071 55.108138 
L 386.46303 55.108138 
L 387.112989 54.56456 
L 387.762948 54.836349 
L 388.087928 54.56456 
L 388.412907 54.473964 
L 389.062867 54.655156 
L 390.037805 55.379927 
L 390.687764 54.655156 
L 391.337723 55.108138 
L 391.662703 55.379927 
L 392.312662 54.111578 
L 392.637641 54.020982 
L 393.2876 54.745753 
L 393.61258 54.926945 
L 394.262539 54.655156 
L 394.587518 54.926945 
L 394.912498 55.470523 
L 395.237477 55.742312 
L 395.562457 55.379927 
L 395.887437 54.473964 
L 396.212416 54.202174 
L 396.537396 54.383367 
L 396.862375 54.836349 
L 397.187355 54.655156 
L 397.837314 53.930385 
L 398.162293 54.202174 
L 398.487273 54.655156 
L 398.487273 54.655156 
" clip-path="url(#p97942df8d8)" style="fill: none; stroke: #2ca02c; stroke-width: 1.5; stroke-linecap: square"/>
   </g>
   <g id="patch_3">
    <path d="M 57.6 307.584 
L 57.6 41.472 
" style="fill: none; stroke: #000000; stroke-width: 0.8; stroke-linejoin: miter; stroke-linecap: square"/>
   </g>
   <g id="patch_4">
    <path d="M 414.72 307.584 
L 414.72 41.472 
" style="fill: none; stroke: #000000; stroke-width: 0.8; stroke-linejoin: miter; stroke-linecap: square"/>
   </g>
   <g id="patch_5">
    <path d="M 57.6 307.584 
L 414.72 307.584 
" style="fill: none; stroke: #000000; stroke-width: 0.8; stroke-linejoin: miter; stroke-linecap: square"/>
   </g>
   <g id="patch_6">
    <path d="M 57.6 41.472 
L 414.72 41.472 
" style="fill: none; stroke: #000000; stroke-width: 0.8; stroke-linejoin: miter; stroke-linecap: square"/>
   </g>
  </g>
 </g>
 <defs>
  <clipPath id="p97942df8d8">
   <rect x="57.6" y="41.472" width="357.12" height="266.112"/>
  </clipPath>
 </defs>
</svg>
