<?xml version="1.0" encoding="utf-8" standalone="no"?>
<!DOCTYPE svg PUBLIC "-//W3C//DTD SVG 1.1//EN"
  "http://www.w3.org/Graphics/SVG/1.1/DTD/svg11.dtd">
<svg xmlns:xlink="http://www.w3.org/1999/xlink" width="460.8pt" height="345.6pt" viewBox="0 0 460.8 345.6" xmlns="http://www.w3.org/2000/svg" version="1.1">
 <metadata>
  <rdf:RDF xmlns:dc="http://purl.org/dc/elements/1.1/" xmlns:cc="http://creativecommons.org/ns#" xmlns:rdf="http://www.w3.org/1999/02/22-rdf-syntax-ns#">
   <cc:Work>
    <dc:type rdf:resource="http://purl.org/dc/dcmitype/StillImage"/>
    <dc:date>2025-12-29T09:26:38.553365</dc:date>
    <dc:format>image/svg+xml</dc:format>
    <dc:creator>
     <cc:Agent>
      <dc:title>Matplotlib v3.10.8, https://matplotlib.org/</dc:title>
     </cc:Agent>
    </dc:creator>
   </cc:Work>
  </rdf:RDF>
 </metadata>
 <defs>
  <style type="text/css">*{stroke-linejoin: round; stroke-linecap: butt}</style>
 </defs>
 <g id="figure_1">
  <g id="patch_1">
   <path d="M 0 345.6 
L 460.8 345.6 
L 460.8 0 
L 0 0 
z
" style="fill: #ffffff"/>
  </g>
  <g id="axes_1">
   <g id="patch_2">
    <path d="M 57.6 307.584 
L 414.72 307.584 
L 414.72 41.472 
L 57.6 41.472 
z
" style="fill: #ffffff"/>
   </g>
   <g id="matplotlib.axis_1">
    <g id="xtick_1">
     <g id="line2d_1">
      <defs>
       <path id="m4cfbde6411" d="M 0 0 
L 0 3.5 
" style="stroke: #000000; stroke-width: 0.8"/>
      </defs>
      <g>
       <use xlink:href="#m4cfbde6411" x="73.832727" y="307.584" style="stroke: #000000; stroke-width: 0.8"/>
      </g>
     </g>
     <g id="text_1">
      <!-- 0 -->
      <g transform="translate(70.651477 322.182437) scale(0.1 -0.1)">
       <defs>
        <path id="DejaVuSans-30" d="M 2034 4250 
Q 1547 4250 1301 3770 
Q 1056 3291 1056 2328 
Q 1056 1369 1301 889 
Q 1547 409 2034 409 
Q 2525 409 2770 889 
Q 3016 1369 3016 2328 
Q 3016 3291 2770 3770 
Q 2525 4250 2034 4250 
z
M 2034 4750 
Q 2819 4750 3233 4129 
Q 3647 3509 3647 2328 
Q 3647 1150 3233 529 
Q 2819 -91 2034 -91 
Q 1250 -91 836 529 
Q 422 1150 422 2328 
Q 422 3509 836 4129 
Q 1250 4750 2034 4750 
z
" transform="scale(0.015625)"/>
       </defs>
       <use xlink:href="#DejaVuSans-30"/>
      </g>
     </g>
    </g>
    <g id="xtick_2">
     <g id="line2d_2">
      <g>
       <use xlink:href="#m4cfbde6411" x="138.828632" y="307.584" style="stroke: #000000; stroke-width: 0.8"/>
      </g>
     </g>
     <g id="text_2">
      <!-- 1 -->
      <g transform="translate(135.647382 322.182437) scale(0.1 -0.1)">
       <defs>
        <path id="DejaVuSans-31" d="M 794 531 
L 1825 531 
L 1825 4091 
L 703 3866 
L 703 4441 
L 1819 4666 
L 2450 4666 
L 2450 531 
L 3481 531 
L 3481 0 
L 794 0 
L 794 531 
z
" transform="scale(0.015625)"/>
       </defs>
       <use xlink:href="#DejaVuSans-31"/>
      </g>
     </g>
    </g>
    <g id="xtick_3">
     <g id="line2d_3">
      <g>
       <use xlink:href="#m4cfbde6411" x="203.824537" y="307.584" style="stroke: #000000; stroke-width: 0.8"/>
      </g>
     </g>
     <g id="text_3">
      <!-- 2 -->
      <g transform="translate(200.643287 322.182437) scale(0.1 -0.1)">
       <defs>
        <path id="DejaVuSans-32" d="M 1228 531 
L 3431 531 
L 3431 0 
L 469 0 
L 469 531 
Q 828 903 1448 1529 
Q 2069 2156 2228 2338 
Q 2531 2678 2651 2914 
Q 2772 3150 2772 3378 
Q 2772 3750 2511 3984 
Q 2250 4219 1831 4219 
Q 1534 4219 1204 4116 
Q 875 4013 500 3803 
L 500 4441 
Q 881 4594 1212 4672 
Q 1544 4750 1819 4750 
Q 2544 4750 2975 4387 
Q 3406 4025 3406 3419 
Q 3406 3131 3298 2873 
Q 3191 2616 2906 2266 
Q 2828 2175 2409 1742 
Q 1991 1309 1228 531 
z
" transform="scale(0.015625)"/>
       </defs>
       <use xlink:href="#DejaVuSans-32"/>
      </g>
     </g>
    </g>
    <g id="xtick_4">
     <g id="line2d_4">
      <g>
       <use xlink:href="#m4cfbde6411" x="268.820442" y="307.584" style="stroke: #000000; stroke-width: 0.8"/>
      </g>
     </g>
     <g id="text_4">
      <!-- 3 -->
      <g transform="translate(265.639192 322.182437) scale(0.1 -0.1)">
       <defs>
        <path id="DejaVuSans-33" d="M 2597 2516 
Q 3050 2419 3304 2112 
Q 3559 1806 3559 1356 
Q 3559 666 3084 287 
Q 2609 -91 1734 -91 
Q 1441 -91 1130 -33 
Q 819 25 488 141 
L 488 750 
Q 750 597 1062 519 
Q 1375 441 1716 441 
Q 2309 441 2620 675 
Q 2931 909 2931 1356 
Q 2931 1769 2642 2001 
Q 2353 2234 1838 2234 
L 1294 2234 
L 1294 2753 
L 1863 2753 
Q 2328 2753 2575 2939 
Q 2822 3125 2822 3475 
Q 2822 3834 2567 4026 
Q 2313 4219 1838 4219 
Q 1578 4219 1281 4162 
Q 984 4106 628 3988 
L 628 4550 
Q 988 4650 1302 4700 
Q 1616 4750 1894 4750 
Q 2613 4750 3031 4423 
Q 3450 4097 3450 3541 
Q 3450 3153 3228 2886 
Q 3006 2619 2597 2516 
z
" transform="scale(0.015625)"/>
       </defs>
       <use xlink:href="#DejaVuSans-33"/>
      </g>
     </g>
    </g>
    <g id="xtick_5">
     <g id="line2d_5">
      <g>
       <use xlink:href="#m4cfbde6411" x="333.816347" y="307.584" style="stroke: #000000; stroke-width: 0.8"/>
      </g>
     </g>
     <g id="text_5">
      <!-- 4 -->
      <g transform="translate(330.635097 322.182437) scale(0.1 -0.1)">
       <defs>
        <path id="DejaVuSans-34" d="M 2419 4116 
L 825 1625 
L 2419 1625 
L 2419 4116 
z
M 2253 4666 
L 3047 4666 
L 3047 1625 
L 3713 1625 
L 3713 1100 
L 3047 1100 
L 3047 0 
L 2419 0 
L 2419 1100 
L 313 1100 
L 313 1709 
L 2253 4666 
z
" transform="scale(0.015625)"/>
       </defs>
       <use xlink:href="#DejaVuSans-34"/>
      </g>
     </g>
    </g>
    <g id="xtick_6">
     <g id="line2d_6">
      <g>
       <use xlink:href="#m4cfbde6411" x="398.812252" y="307.584" style="stroke: #000000; stroke-width: 0.8"/>
      </g>
     </g>
     <g id="text_6">
      <!-- 5 -->
      <g transform="translate(395.631002 322.182437) scale(0.1 -0.1)">
       <defs>
        <path id="DejaVuSans-35" d="M 691 4666 
L 3169 4666 
L 3169 4134 
L 1269 4134 
L 1269 2991 
Q 1406 3038 1543 3061 
Q 1681 3084 1819 3084 
Q 2600 3084 3056 2656 
Q 3513 2228 3513 1497 
Q 3513 744 3044 326 
Q 2575 -91 1722 -91 
Q 1428 -91 1123 -41 
Q 819 9 494 109 
L 494 744 
Q 775 591 1075 516 
Q 1375 441 1709 441 
Q 2250 441 2565 725 
Q 2881 1009 2881 1497 
Q 2881 1984 2565 2268 
Q 2250 2553 1709 2553 
Q 1456 2553 1204 2497 
Q 953 2441 691 2322 
L 691 4666 
z
" transform="scale(0.015625)"/>
       </defs>
       <use xlink:href="#DejaVuSans-35"/>
      </g>
     </g>
    </g>
    <g id="text_7">
     <!-- 1e−7 -->
     <g transform="translate(387.462188 334.860562) scale(0.1 -0.1)">
      <defs>
       <path id="DejaVuSans-65" d="M 3597 1894 
L 3597 1613 
L 953 1613 
Q 991 1019 1311 708 
Q 1631 397 2203 397 
Q 2534 397 2845 478 
Q 3156 559 3463 722 
L 3463 178 
Q 3153 47 2828 -22 
Q 2503 -91 2169 -91 
Q 1331 -91 842 396 
Q 353 884 353 1716 
Q 353 2575 817 3079 
Q 1281 3584 2069 3584 
Q 2775 3584 3186 3129 
Q 3597 2675 3597 1894 
z
M 3022 2063 
Q 3016 2534 2758 2815 
Q 2500 3097 2075 3097 
Q 1594 3097 1305 2825 
Q 1016 2553 972 2059 
L 3022 2063 
z
" transform="scale(0.015625)"/>
       <path id="DejaVuSans-2212" d="M 678 2272 
L 4684 2272 
L 4684 1741 
L 678 1741 
L 678 2272 
z
" transform="scale(0.015625)"/>
       <path id="DejaVuSans-37" d="M 525 4666 
L 3525 4666 
L 3525 4397 
L 1831 0 
L 1172 0 
L 2766 4134 
L 525 4134 
L 525 4666 
z
" transform="scale(0.015625)"/>
      </defs>
      <use xlink:href="#DejaVuSans-31"/>
      <use xlink:href="#DejaVuSans-65" transform="translate(63.623047 0)"/>
      <use xlink:href="#DejaVuSans-2212" transform="translate(125.146484 0)"/>
      <use xlink:href="#DejaVuSans-37" transform="translate(208.935547 0)"/>
     </g>
    </g>
   </g>
   <g id="matplotlib.axis_2">
    <g id="ytick_1">
     <g id="line2d_7">
      <defs>
       <path id="mf4bc88cdea" d="M 0 0 
L -3.5 0 
" style="stroke: #000000; stroke-width: 0.8"/>
      </defs>
      <g>
       <use xlink:href="#mf4bc88cdea" x="57.6" y="289.370464" style="stroke: #000000; stroke-width: 0.8"/>
      </g>
     </g>
     <g id="text_8">
      <!-- −40 -->
      <g transform="translate(29.495313 293.169683) scale(0.1 -0.1)">
       <use xlink:href="#DejaVuSans-2212"/>
       <use xlink:href="#DejaVuSans-34" transform="translate(83.789062 0)"/>
       <use xlink:href="#DejaVuSans-30" transform="translate(147.412109 0)"/>
      </g>
     </g>
    </g>
    <g id="ytick_2">
     <g id="line2d_8">
      <g>
       <use xlink:href="#mf4bc88cdea" x="57.6" y="253.777639" style="stroke: #000000; stroke-width: 0.8"/>
      </g>
     </g>
     <g id="text_9">
      <!-- −20 -->
      <g transform="translate(29.495313 257.576858) scale(0.1 -0.1)">
       <use xlink:href="#DejaVuSans-2212"/>
       <use xlink:href="#DejaVuSans-32" transform="translate(83.789062 0)"/>
       <use xlink:href="#DejaVuSans-30" transform="translate(147.412109 0)"/>
      </g>
     </g>
    </g>
    <g id="ytick_3">
     <g id="line2d_9">
      <g>
       <use xlink:href="#mf4bc88cdea" x="57.6" y="218.184813" style="stroke: #000000; stroke-width: 0.8"/>
      </g>
     </g>
     <g id="text_10">
      <!-- 0 -->
      <g transform="translate(44.2375 221.984032) scale(0.1 -0.1)">
       <use xlink:href="#DejaVuSans-30"/>
      </g>
     </g>
    </g>
    <g id="ytick_4">
     <g id="line2d_10">
      <g>
       <use xlink:href="#mf4bc88cdea" x="57.6" y="182.591988" style="stroke: #000000; stroke-width: 0.8"/>
      </g>
     </g>
     <g id="text_11">
      <!-- 20 -->
      <g transform="translate(37.875 186.391207) scale(0.1 -0.1)">
       <use xlink:href="#DejaVuSans-32"/>
       <use xlink:href="#DejaVuSans-30" transform="translate(63.623047 0)"/>
      </g>
     </g>
    </g>
    <g id="ytick_5">
     <g id="line2d_11">
      <g>
       <use xlink:href="#mf4bc88cdea" x="57.6" y="146.999163" style="stroke: #000000; stroke-width: 0.8"/>
      </g>
     </g>
     <g id="text_12">
      <!-- 40 -->
      <g transform="translate(37.875 150.798381) scale(0.1 -0.1)">
       <use xlink:href="#DejaVuSans-34"/>
       <use xlink:href="#DejaVuSans-30" transform="translate(63.623047 0)"/>
      </g>
     </g>
    </g>
    <g id="ytick_6">
     <g id="line2d_12">
      <g>
       <use xlink:href="#mf4bc88cdea" x="57.6" y="111.406337" style="stroke: #000000; stroke-width: 0.8"/>
      </g>
     </g>
     <g id="text_13">
      <!-- 60 -->
      <g transform="translate(37.875 115.205556) scale(0.1 -0.1)">
       <defs>
        <path id="DejaVuSans-36" d="M 2113 2584 
Q 1688 2584 1439 2293 
Q 1191 2003 1191 1497 
Q 1191 994 1439 701 
Q 1688 409 2113 409 
Q 2538 409 2786 701 
Q 3034 994 3034 1497 
Q 3034 2003 2786 2293 
Q 2538 2584 2113 2584 
z
M 3366 4563 
L 3366 3988 
Q 3128 4100 2886 4159 
Q 2644 4219 2406 4219 
Q 1781 4219 1451 3797 
Q 1122 3375 1075 2522 
Q 1259 2794 1537 2939 
Q 1816 3084 2150 3084 
Q 2853 3084 3261 2657 
Q 3669 2231 3669 1497 
Q 3669 778 3244 343 
Q 2819 -91 2113 -91 
Q 1303 -91 875 529 
Q 447 1150 447 2328 
Q 447 3434 972 4092 
Q 1497 4750 2381 4750 
Q 2619 4750 2861 4703 
Q 3103 4656 3366 4563 
z
" transform="scale(0.015625)"/>
       </defs>
       <use xlink:href="#DejaVuSans-36"/>
       <use xlink:href="#DejaVuSans-30" transform="translate(63.623047 0)"/>
      </g>
     </g>
    </g>
    <g id="ytick_7">
     <g id="line2d_13">
      <g>
       <use xlink:href="#mf4bc88cdea" x="57.6" y="75.813512" style="stroke: #000000; stroke-width: 0.8"/>
      </g>
     </g>
     <g id="text_14">
      <!-- 80 -->
      <g transform="translate(37.875 79.612731) scale(0.1 -0.1)">
       <defs>
        <path id="DejaVuSans-38" d="M 2034 2216 
Q 1584 2216 1326 1975 
Q 1069 1734 1069 1313 
Q 1069 891 1326 650 
Q 1584 409 2034 409 
Q 2484 409 2743 651 
Q 3003 894 3003 1313 
Q 3003 1734 2745 1975 
Q 2488 2216 2034 2216 
z
M 1403 2484 
Q 997 2584 770 2862 
Q 544 3141 544 3541 
Q 544 4100 942 4425 
Q 1341 4750 2034 4750 
Q 2731 4750 3128 4425 
Q 3525 4100 3525 3541 
Q 3525 3141 3298 2862 
Q 3072 2584 2669 2484 
Q 3125 2378 3379 2068 
Q 3634 1759 3634 1313 
Q 3634 634 3220 271 
Q 2806 -91 2034 -91 
Q 1263 -91 848 271 
Q 434 634 434 1313 
Q 434 1759 690 2068 
Q 947 2378 1403 2484 
z
M 1172 3481 
Q 1172 3119 1398 2916 
Q 1625 2713 2034 2713 
Q 2441 2713 2670 2916 
Q 2900 3119 2900 3481 
Q 2900 3844 2670 4047 
Q 2441 4250 2034 4250 
Q 1625 4250 1398 4047 
Q 1172 3844 1172 3481 
z
" transform="scale(0.015625)"/>
       </defs>
       <use xlink:href="#DejaVuSans-38"/>
       <use xlink:href="#DejaVuSans-30" transform="translate(63.623047 0)"/>
      </g>
     </g>
    </g>
   </g>
   <g id="line2d_14">
    <path d="M 73.832727 218.184811 
L 74.157707 219.575155 
L 74.807666 219.575155 
L 75.132645 220.9655 
L 75.457625 219.575155 
L 75.782604 219.575155 
L 76.107584 220.9655 
L 77.407502 220.9655 
L 77.732482 218.184811 
L 78.057461 220.9655 
L 78.382441 219.575155 
L 79.357379 219.575155 
L 79.682359 218.184811 
L 80.007338 219.575155 
L 80.332318 219.575155 
L 80.657297 218.184811 
L 80.982277 220.9655 
L 81.307256 219.575155 
L 81.632236 219.575155 
L 82.282195 222.355845 
L 82.932154 219.575155 
L 83.257133 220.9655 
L 83.582113 219.575155 
L 83.907093 220.9655 
L 84.232072 219.575155 
L 84.557052 220.9655 
L 85.85697 220.9655 
L 86.181949 222.355845 
L 86.506929 220.9655 
L 87.156888 220.9655 
L 87.481867 218.184811 
L 87.806847 216.794466 
L 88.131826 212.623431 
L 88.456806 211.233087 
L 89.431744 195.939293 
L 89.756724 194.548949 
L 90.081704 194.548949 
L 90.406683 195.939293 
L 90.731663 193.158604 
L 91.381622 176.474466 
L 91.706601 172.303431 
L 92.031581 172.303431 
L 92.35656 179.255155 
L 92.68154 180.6455 
L 93.006519 173.693776 
L 93.331499 159.790328 
L 93.656478 152.838604 
L 93.981458 150.057914 
L 94.631417 162.571018 
L 94.956396 161.180673 
L 95.606355 141.715845 
L 95.931335 141.715845 
L 96.256314 143.10619 
L 96.581294 147.277224 
L 97.231253 138.935155 
L 97.556233 137.544811 
L 98.206192 144.496535 
L 98.856151 134.764121 
L 99.18113 127.812397 
L 99.50611 129.202742 
L 100.156069 138.935155 
L 100.481048 137.544811 
L 100.806028 131.983431 
L 101.131007 129.202742 
L 101.455987 129.202742 
L 101.780966 131.983431 
L 102.755905 131.983431 
L 103.080885 134.764121 
L 103.405864 136.154466 
L 104.055823 133.373776 
L 104.380803 129.202742 
L 104.705782 130.593087 
L 105.355741 140.3255 
L 105.680721 140.3255 
L 106.0057 136.154466 
L 106.33068 134.764121 
L 106.655659 134.764121 
L 106.980639 137.544811 
L 107.630598 140.3255 
L 108.280557 140.3255 
L 108.605536 141.715845 
L 108.930516 140.3255 
L 109.255495 143.10619 
L 109.580475 140.3255 
L 109.905455 138.935155 
L 110.230434 140.3255 
L 110.555414 143.10619 
L 111.205373 145.88688 
L 111.855332 143.10619 
L 112.180311 143.10619 
L 112.505291 141.715845 
L 112.83027 143.10619 
L 113.15525 145.88688 
L 113.805209 145.88688 
L 114.130188 141.715845 
L 114.455168 144.496535 
L 114.780147 140.3255 
L 115.105127 141.715845 
L 115.430106 141.715845 
L 115.755086 143.10619 
L 116.080066 143.10619 
L 117.055004 138.935155 
L 117.704963 138.935155 
L 118.029943 140.3255 
L 118.679902 137.544811 
L 119.004881 137.544811 
L 119.329861 136.154466 
L 119.65484 137.544811 
L 119.97982 133.373776 
L 120.304799 133.373776 
L 120.629779 131.983431 
L 121.929697 131.983431 
L 122.254676 129.202742 
L 122.579656 129.202742 
L 123.229615 126.422052 
L 124.204554 126.422052 
L 124.529533 123.641362 
L 124.854513 125.031707 
L 125.179492 122.251018 
L 125.504472 123.641362 
L 126.154431 123.641362 
L 126.47941 122.251018 
L 126.80439 123.641362 
L 127.129369 123.641362 
L 127.454349 122.251018 
L 128.429287 122.251018 
L 128.754267 123.641362 
L 129.404226 123.641362 
L 129.729206 122.251018 
L 130.054185 126.422052 
L 130.379165 125.031707 
L 130.704144 125.031707 
L 131.354103 127.812397 
L 131.679083 127.812397 
L 132.004062 130.593087 
L 132.329042 131.983431 
L 132.654021 130.593087 
L 132.979001 130.593087 
L 133.30398 131.983431 
L 134.278919 140.3255 
L 134.603898 141.715845 
L 134.928878 141.715845 
L 135.253857 144.496535 
L 135.578837 144.496535 
L 135.903817 148.667569 
L 136.228796 150.057914 
L 136.553776 150.057914 
L 136.878755 154.228949 
L 137.853694 158.399983 
L 138.503653 165.351707 
L 138.828632 168.132397 
L 139.153612 169.522742 
L 139.803571 175.084121 
L 140.12855 176.474466 
L 140.45353 179.255155 
L 140.778509 180.6455 
L 141.103489 183.42619 
L 141.428468 184.816535 
L 141.753448 187.597224 
L 142.078428 188.987569 
L 142.728387 194.548949 
L 143.053366 195.939293 
L 143.703325 201.500673 
L 145.328223 208.452397 
L 145.653202 211.233087 
L 145.978182 211.233087 
L 147.603079 218.184811 
L 148.253038 218.184811 
L 148.578018 220.9655 
L 148.902998 220.9655 
L 149.227977 222.355845 
L 149.552957 222.355845 
L 149.877936 220.9655 
L 150.527895 220.9655 
L 150.852875 222.355845 
L 151.177854 222.355845 
L 151.502834 219.575155 
L 151.827813 218.184811 
L 152.152793 219.575155 
L 152.477772 219.575155 
L 152.802752 220.9655 
L 153.452711 218.184811 
L 153.77769 218.184811 
L 154.10267 216.794466 
L 154.427649 219.575155 
L 154.752629 220.9655 
L 155.077609 219.575155 
L 155.402588 219.575155 
L 155.727568 216.794466 
L 156.377527 219.575155 
L 156.702506 218.184811 
L 157.027486 218.184811 
L 157.352465 219.575155 
L 157.677445 219.575155 
L 158.002424 218.184811 
L 158.327404 219.575155 
L 158.652383 218.184811 
L 159.302342 218.184811 
L 159.952301 220.9655 
L 160.92724 216.794466 
L 161.252219 220.9655 
L 161.577199 219.575155 
L 161.902179 219.575155 
L 162.227158 218.184811 
L 162.877117 218.184811 
L 163.527076 220.9655 
L 163.852056 218.184811 
L 164.177035 220.9655 
L 164.502015 219.575155 
L 165.151974 219.575155 
L 165.476953 220.9655 
L 165.801933 220.9655 
L 166.126912 218.184811 
L 166.451892 220.9655 
L 166.776871 219.575155 
L 168.401769 219.575155 
L 168.726749 220.9655 
L 169.051728 219.575155 
L 169.376708 220.9655 
L 170.026667 220.9655 
L 170.351646 219.575155 
L 170.676626 220.9655 
L 171.001605 220.9655 
L 171.326585 219.575155 
L 171.976544 219.575155 
L 172.301523 220.9655 
L 172.626503 219.575155 
L 172.951482 219.575155 
L 173.276462 220.9655 
L 173.926421 220.9655 
L 174.2514 219.575155 
L 174.57638 220.9655 
L 174.90136 219.575155 
L 175.226339 220.9655 
L 176.201278 220.9655 
L 176.526257 219.575155 
L 176.851237 220.9655 
L 178.151155 220.9655 
L 178.476134 219.575155 
L 179.451073 219.575155 
L 179.776052 220.9655 
L 180.101032 219.575155 
L 180.426011 220.9655 
L 181.075971 220.9655 
L 181.72593 218.184811 
L 182.050909 218.184811 
L 182.375889 212.623431 
L 182.700868 209.842742 
L 183.675807 194.548949 
L 184.000786 194.548949 
L 184.325766 195.939293 
L 184.650745 194.548949 
L 184.975725 190.377914 
L 185.625684 175.084121 
L 185.950663 172.303431 
L 186.275643 175.084121 
L 186.600622 179.255155 
L 186.925602 177.864811 
L 187.250581 172.303431 
L 187.575561 158.399983 
L 187.900541 150.057914 
L 188.22552 151.448259 
L 188.875479 163.961362 
L 189.200459 159.790328 
L 189.850418 141.715845 
L 190.175397 140.3255 
L 190.825356 147.277224 
L 191.475315 137.544811 
L 191.800295 137.544811 
L 192.125274 138.935155 
L 192.450254 143.10619 
L 192.775233 138.935155 
L 193.425192 126.422052 
L 193.750172 130.593087 
L 194.075152 137.544811 
L 194.400131 140.3255 
L 194.725111 137.544811 
L 195.05009 129.202742 
L 195.37507 129.202742 
L 196.350008 133.373776 
L 196.674988 131.983431 
L 197.324947 131.983431 
L 197.649926 136.154466 
L 197.974906 134.764121 
L 198.624865 129.202742 
L 198.949844 130.593087 
L 199.599803 138.935155 
L 199.924783 138.935155 
L 200.249762 136.154466 
L 200.574742 136.154466 
L 200.899722 134.764121 
L 201.549681 140.3255 
L 202.19964 140.3255 
L 202.524619 138.935155 
L 202.849599 141.715845 
L 203.174578 140.3255 
L 203.499558 141.715845 
L 203.824537 140.3255 
L 204.474496 140.3255 
L 204.799476 143.10619 
L 205.449435 145.88688 
L 205.774414 144.496535 
L 206.099394 141.715845 
L 206.424373 141.715845 
L 207.399312 145.88688 
L 207.724292 144.496535 
L 208.049271 144.496535 
L 208.69923 141.715845 
L 209.999148 141.715845 
L 210.324128 143.10619 
L 211.624046 137.544811 
L 211.949025 140.3255 
L 212.598984 137.544811 
L 213.573923 137.544811 
L 215.198821 130.593087 
L 215.5238 131.983431 
L 215.84878 130.593087 
L 216.173759 131.983431 
L 216.498739 129.202742 
L 217.148698 126.422052 
L 217.473677 127.812397 
L 217.798657 127.812397 
L 218.123636 125.031707 
L 218.448616 127.812397 
L 218.773595 125.031707 
L 219.423554 122.251018 
L 220.073514 122.251018 
L 220.398493 123.641362 
L 221.373432 123.641362 
L 221.698411 122.251018 
L 222.023391 122.251018 
L 222.34837 123.641362 
L 222.67335 122.251018 
L 222.998329 123.641362 
L 223.323309 122.251018 
L 223.648288 123.641362 
L 223.973268 123.641362 
L 224.623227 126.422052 
L 224.948206 125.031707 
L 225.273186 125.031707 
L 226.573104 130.593087 
L 226.898084 130.593087 
L 227.223063 131.983431 
L 227.548043 134.764121 
L 228.522981 138.935155 
L 228.847961 143.10619 
L 229.17294 141.715845 
L 229.49792 144.496535 
L 229.822899 145.88688 
L 230.472858 151.448259 
L 230.797838 151.448259 
L 231.122817 155.619293 
L 231.447797 155.619293 
L 232.422735 163.961362 
L 233.072695 166.742052 
L 233.397674 169.522742 
L 233.722654 170.913087 
L 234.047633 175.084121 
L 234.372613 176.474466 
L 235.022572 182.035845 
L 235.347551 183.42619 
L 235.99751 188.987569 
L 236.32249 190.377914 
L 236.647469 193.158604 
L 236.972449 194.548949 
L 237.297428 197.329638 
L 237.622408 198.719983 
L 237.947387 201.500673 
L 238.597346 204.281362 
L 238.922326 204.281362 
L 239.247305 208.452397 
L 239.572285 208.452397 
L 240.547224 212.623431 
L 240.872203 215.404121 
L 241.197183 215.404121 
L 241.522162 218.184811 
L 241.847142 218.184811 
L 242.172121 219.575155 
L 242.497101 219.575155 
L 242.82208 222.355845 
L 243.14706 223.74619 
L 244.121998 219.575155 
L 244.771957 222.355845 
L 245.421916 222.355845 
L 245.746896 220.9655 
L 246.071876 218.184811 
L 246.396855 218.184811 
L 246.721835 219.575155 
L 247.371794 219.575155 
L 247.696773 216.794466 
L 248.021753 216.794466 
L 248.346732 219.575155 
L 248.671712 218.184811 
L 248.996691 219.575155 
L 249.64665 219.575155 
L 249.97163 218.184811 
L 250.296609 219.575155 
L 250.621589 218.184811 
L 250.946568 219.575155 
L 251.271548 218.184811 
L 251.596527 220.9655 
L 251.921507 220.9655 
L 252.246486 219.575155 
L 252.571466 219.575155 
L 252.896446 218.184811 
L 253.546405 220.9655 
L 254.196364 220.9655 
L 254.521343 219.575155 
L 254.846323 219.575155 
L 255.171302 218.184811 
L 255.496282 220.9655 
L 255.821261 219.575155 
L 256.47122 219.575155 
L 256.7962 218.184811 
L 257.121179 219.575155 
L 257.446159 219.575155 
L 257.771138 220.9655 
L 258.096118 219.575155 
L 259.396036 219.575155 
L 259.721016 218.184811 
L 260.045995 219.575155 
L 261.345913 219.575155 
L 261.670893 220.9655 
L 261.995872 219.575155 
L 262.970811 219.575155 
L 263.29579 218.184811 
L 263.945749 220.9655 
L 264.595708 220.9655 
L 264.920688 218.184811 
L 265.245667 220.9655 
L 265.570647 219.575155 
L 266.220606 219.575155 
L 266.545586 220.9655 
L 266.870565 220.9655 
L 267.195545 219.575155 
L 267.520524 219.575155 
L 267.845504 218.184811 
L 268.170483 219.575155 
L 269.145422 219.575155 
L 269.470401 220.9655 
L 269.795381 219.575155 
L 270.770319 219.575155 
L 271.095299 220.9655 
L 271.745258 220.9655 
L 272.070238 219.575155 
L 272.395217 219.575155 
L 272.720197 220.9655 
L 273.045176 219.575155 
L 274.020115 219.575155 
L 274.345094 220.9655 
L 274.995053 220.9655 
L 275.320033 219.575155 
L 275.645012 220.9655 
L 276.619951 212.623431 
L 277.919869 195.939293 
L 278.244848 194.548949 
L 278.569828 195.939293 
L 278.894808 194.548949 
L 279.544767 182.035845 
L 279.869746 173.693776 
L 280.194726 170.913087 
L 280.519705 173.693776 
L 280.844685 179.255155 
L 281.169664 180.6455 
L 282.144603 150.057914 
L 282.469582 151.448259 
L 283.119541 163.961362 
L 283.444521 158.399983 
L 284.09448 140.3255 
L 284.419459 141.715845 
L 284.744439 145.88688 
L 285.069419 147.277224 
L 285.719378 137.544811 
L 286.369337 140.3255 
L 286.694316 143.10619 
L 287.019296 138.935155 
L 287.344275 130.593087 
L 287.669255 127.812397 
L 287.994234 130.593087 
L 288.319214 137.544811 
L 288.644193 138.935155 
L 288.969173 136.154466 
L 289.294152 130.593087 
L 289.619132 129.202742 
L 289.944111 131.983431 
L 290.269091 133.373776 
L 290.59407 133.373776 
L 290.91905 131.983431 
L 291.244029 131.983431 
L 291.893989 137.544811 
L 292.543948 131.983431 
L 292.868927 127.812397 
L 293.193907 130.593087 
L 293.518886 136.154466 
L 293.843866 138.935155 
L 294.168845 138.935155 
L 294.493825 134.764121 
L 295.143784 134.764121 
L 295.468763 137.544811 
L 295.793743 138.935155 
L 296.118722 137.544811 
L 296.443702 140.3255 
L 296.768681 140.3255 
L 297.093661 141.715845 
L 297.41864 140.3255 
L 297.74362 140.3255 
L 298.0686 138.935155 
L 298.393579 138.935155 
L 299.043538 144.496535 
L 299.368518 144.496535 
L 299.693497 143.10619 
L 300.018477 143.10619 
L 300.343456 141.715845 
L 300.668436 141.715845 
L 300.993415 143.10619 
L 301.318395 143.10619 
L 301.643374 144.496535 
L 301.968354 143.10619 
L 302.293333 143.10619 
L 302.618313 141.715845 
L 302.943292 141.715845 
L 303.268272 140.3255 
L 303.593251 140.3255 
L 303.918231 141.715845 
L 304.24321 141.715845 
L 304.56819 143.10619 
L 305.868108 137.544811 
L 306.518067 137.544811 
L 306.843047 138.935155 
L 307.168026 137.544811 
L 307.493006 137.544811 
L 307.817985 134.764121 
L 308.142965 134.764121 
L 309.442883 129.202742 
L 309.767862 130.593087 
L 310.092842 130.593087 
L 310.417821 131.983431 
L 311.067781 126.422052 
L 311.39276 126.422052 
L 311.71774 125.031707 
L 312.042719 127.812397 
L 312.367699 125.031707 
L 312.692678 125.031707 
L 313.017658 123.641362 
L 313.342637 123.641362 
L 313.667617 122.251018 
L 313.992596 122.251018 
L 314.317576 123.641362 
L 314.967535 123.641362 
L 315.617494 120.860673 
L 315.942473 122.251018 
L 316.267453 122.251018 
L 316.592432 120.860673 
L 316.917412 120.860673 
L 317.242391 123.641362 
L 318.54231 123.641362 
L 318.867289 125.031707 
L 319.192269 123.641362 
L 319.517248 126.422052 
L 319.842228 126.422052 
L 320.167207 129.202742 
L 320.492187 129.202742 
L 320.817166 131.983431 
L 321.142146 131.983431 
L 321.792105 134.764121 
L 322.117084 134.764121 
L 322.442064 138.935155 
L 322.767043 140.3255 
L 323.092023 143.10619 
L 323.417002 143.10619 
L 324.066962 145.88688 
L 324.716921 151.448259 
L 325.0419 152.838604 
L 325.36688 155.619293 
L 325.691859 157.009638 
L 326.016839 159.790328 
L 326.341818 161.180673 
L 326.991777 166.742052 
L 327.316757 168.132397 
L 327.641736 170.913087 
L 327.966716 172.303431 
L 328.291695 176.474466 
L 328.616675 177.864811 
L 328.941654 180.6455 
L 329.266634 182.035845 
L 329.591613 184.816535 
L 330.241572 187.597224 
L 330.566552 191.768259 
L 330.891532 193.158604 
L 331.216511 195.939293 
L 331.541491 197.329638 
L 332.19145 202.891018 
L 332.516429 204.281362 
L 332.841409 204.281362 
L 333.816347 208.452397 
L 334.141327 211.233087 
L 335.766224 218.184811 
L 336.091204 218.184811 
L 336.416183 219.575155 
L 336.741163 219.575155 
L 337.391122 222.355845 
L 337.716102 220.9655 
L 338.041081 220.9655 
L 338.366061 222.355845 
L 339.665979 222.355845 
L 340.640917 218.184811 
L 340.965897 220.9655 
L 341.615856 218.184811 
L 341.940835 218.184811 
L 342.265815 216.794466 
L 342.590794 219.575155 
L 342.915774 219.575155 
L 343.240753 220.9655 
L 343.565733 218.184811 
L 343.890713 219.575155 
L 344.215692 216.794466 
L 344.540672 218.184811 
L 344.865651 218.184811 
L 345.190631 219.575155 
L 345.51561 219.575155 
L 345.84059 218.184811 
L 346.165569 219.575155 
L 346.815528 219.575155 
L 347.140508 220.9655 
L 347.790467 220.9655 
L 348.115446 219.575155 
L 348.440426 220.9655 
L 348.765405 219.575155 
L 349.415364 219.575155 
L 349.740344 220.9655 
L 350.390303 218.184811 
L 350.715283 219.575155 
L 351.040262 218.184811 
L 351.365242 219.575155 
L 352.990139 219.575155 
L 353.315119 218.184811 
L 353.640098 220.9655 
L 353.965078 219.575155 
L 354.290057 220.9655 
L 354.615037 219.575155 
L 354.940016 219.575155 
L 355.264996 218.184811 
L 355.589975 218.184811 
L 355.914955 219.575155 
L 356.239934 218.184811 
L 356.889894 218.184811 
L 357.539853 220.9655 
L 358.189812 220.9655 
L 358.514791 218.184811 
L 358.839771 219.575155 
L 359.814709 219.575155 
L 360.139689 220.9655 
L 360.464668 218.184811 
L 360.789648 220.9655 
L 361.439607 220.9655 
L 361.764586 219.575155 
L 362.414545 219.575155 
L 362.739525 222.355845 
L 363.064505 220.9655 
L 363.389484 220.9655 
L 363.714464 219.575155 
L 364.039443 220.9655 
L 365.339361 220.9655 
L 365.664341 222.355845 
L 365.98932 220.9655 
L 366.3143 220.9655 
L 366.639279 219.575155 
L 366.964259 220.9655 
L 367.289238 219.575155 
L 367.614218 220.9655 
L 368.589156 220.9655 
L 368.914136 219.575155 
L 369.239115 220.9655 
L 369.564095 219.575155 
L 369.889075 219.575155 
L 370.214054 218.184811 
L 370.539034 215.404121 
L 372.163931 195.939293 
L 373.13887 195.939293 
L 374.113808 173.693776 
L 374.438788 172.303431 
L 375.088747 179.255155 
L 375.413726 177.864811 
L 376.063686 155.619293 
L 376.388665 150.057914 
L 376.713645 152.838604 
L 377.038624 159.790328 
L 377.363604 163.961362 
L 377.688583 158.399983 
L 378.338542 141.715845 
L 378.663522 141.715845 
L 378.988501 145.88688 
L 379.313481 145.88688 
L 379.63846 144.496535 
L 379.96344 137.544811 
L 380.288419 137.544811 
L 380.613399 141.715845 
L 380.938378 143.10619 
L 381.263358 138.935155 
L 381.588337 130.593087 
L 381.913317 127.812397 
L 382.238296 130.593087 
L 382.563276 137.544811 
L 382.888256 138.935155 
L 383.213235 136.154466 
L 383.538215 130.593087 
L 383.863194 127.812397 
L 384.513153 133.373776 
L 384.838133 133.373776 
L 385.163112 130.593087 
L 385.488092 133.373776 
L 386.138051 136.154466 
L 386.46303 134.764121 
L 386.78801 130.593087 
L 387.112989 129.202742 
L 387.437969 131.983431 
L 387.762948 137.544811 
L 388.087928 140.3255 
L 388.412907 138.935155 
L 388.737887 136.154466 
L 389.062867 134.764121 
L 389.712826 137.544811 
L 390.037805 140.3255 
L 390.362785 138.935155 
L 390.687764 140.3255 
L 391.012744 140.3255 
L 391.337723 141.715845 
L 391.662703 141.715845 
L 391.987682 140.3255 
L 392.312662 140.3255 
L 392.637641 138.935155 
L 392.962621 141.715845 
L 393.61258 144.496535 
L 393.937559 144.496535 
L 394.262539 143.10619 
L 394.587518 140.3255 
L 394.912498 140.3255 
L 395.237477 144.496535 
L 396.537396 144.496535 
L 397.187355 141.715845 
L 397.837314 141.715845 
L 398.162293 143.10619 
L 398.487273 143.10619 
L 398.487273 143.10619 
" clip-path="url(#pb2cefa1706)" style="fill: none; stroke: #1f77b4; stroke-width: 1.5; stroke-linecap: square"/>
   </g>
   <g id="line2d_15">
    <path d="M 73.832727 144.496535 
L 74.157707 144.496535 
L 74.482686 145.88688 
L 74.807666 144.496535 
L 75.132645 145.88688 
L 75.457625 143.10619 
L 75.782604 144.496535 
L 76.107584 141.715845 
L 76.757543 141.715845 
L 77.082523 138.935155 
L 77.407502 140.3255 
L 78.057461 137.544811 
L 78.382441 137.544811 
L 78.70742 136.154466 
L 79.0324 133.373776 
L 79.357379 133.373776 
L 79.682359 134.764121 
L 80.657297 130.593087 
L 80.982277 130.593087 
L 81.307256 129.202742 
L 82.607174 129.202742 
L 82.932154 126.422052 
L 83.257133 125.031707 
L 83.907093 125.031707 
L 84.232072 122.251018 
L 84.557052 122.251018 
L 84.882031 123.641362 
L 85.53199 123.641362 
L 85.85697 122.251018 
L 86.181949 122.251018 
L 86.506929 123.641362 
L 86.831908 123.641362 
L 87.156888 125.031707 
L 87.481867 123.641362 
L 88.131826 126.422052 
L 88.456806 125.031707 
L 88.781785 127.812397 
L 89.431744 127.812397 
L 90.081704 130.593087 
L 90.406683 133.373776 
L 90.731663 134.764121 
L 91.056642 134.764121 
L 91.381622 136.154466 
L 92.35656 144.496535 
L 93.331499 148.667569 
L 94.306437 157.009638 
L 94.956396 159.790328 
L 95.606355 166.742052 
L 95.931335 168.132397 
L 96.906274 176.474466 
L 97.556233 183.42619 
L 97.881212 184.816535 
L 98.206192 187.597224 
L 98.856151 190.377914 
L 99.50611 197.329638 
L 99.831089 198.719983 
L 100.156069 201.500673 
L 100.481048 202.891018 
L 100.806028 205.671707 
L 101.131007 207.062052 
L 101.455987 211.233087 
L 101.780966 212.623431 
L 102.105946 212.623431 
L 102.430925 214.013776 
L 102.755905 216.794466 
L 103.730844 220.9655 
L 104.055823 220.9655 
L 104.380803 222.355845 
L 104.705782 225.136535 
L 105.355741 225.136535 
L 105.680721 223.74619 
L 106.33068 226.52688 
L 106.655659 223.74619 
L 106.980639 222.355845 
L 107.305618 219.575155 
L 107.630598 220.9655 
L 107.955577 219.575155 
L 108.280557 219.575155 
L 108.605536 216.794466 
L 108.930516 215.404121 
L 109.255495 212.623431 
L 109.580475 214.013776 
L 109.905455 216.794466 
L 110.230434 216.794466 
L 110.880393 214.013776 
L 111.205373 215.404121 
L 111.530352 218.184811 
L 111.855332 219.575155 
L 112.180311 222.355845 
L 113.15525 218.184811 
L 113.480229 218.184811 
L 113.805209 220.9655 
L 114.130188 220.9655 
L 114.455168 218.184811 
L 114.780147 216.794466 
L 115.105127 218.184811 
L 115.430106 220.9655 
L 116.405045 220.9655 
L 116.730025 219.575155 
L 117.379984 222.355845 
L 117.704963 219.575155 
L 118.029943 218.184811 
L 118.679902 218.184811 
L 119.329861 220.9655 
L 119.97982 220.9655 
L 120.304799 219.575155 
L 120.629779 220.9655 
L 120.954758 219.575155 
L 121.279738 219.575155 
L 121.604717 220.9655 
L 121.929697 219.575155 
L 122.254676 216.794466 
L 122.579656 218.184811 
L 122.904636 218.184811 
L 123.229615 220.9655 
L 123.554595 222.355845 
L 124.204554 219.575155 
L 124.854513 219.575155 
L 125.179492 220.9655 
L 125.504472 220.9655 
L 125.829451 219.575155 
L 127.129369 219.575155 
L 127.454349 220.9655 
L 127.779328 220.9655 
L 128.104308 219.575155 
L 128.429287 220.9655 
L 128.754267 220.9655 
L 129.079247 219.575155 
L 130.704144 219.575155 
L 131.029124 220.9655 
L 131.354103 219.575155 
L 131.679083 220.9655 
L 132.979001 220.9655 
L 133.30398 219.575155 
L 133.62896 220.9655 
L 133.953939 219.575155 
L 134.278919 220.9655 
L 135.578837 220.9655 
L 135.903817 219.575155 
L 136.878755 219.575155 
L 137.203735 220.9655 
L 137.528714 219.575155 
L 137.853694 219.575155 
L 138.178673 222.355845 
L 138.503653 220.9655 
L 138.828632 220.9655 
L 139.153612 218.184811 
L 140.12855 207.062052 
L 140.778509 201.500673 
L 141.103489 201.500673 
L 142.078428 186.20688 
L 142.728387 177.864811 
L 143.053366 176.474466 
L 143.378346 176.474466 
L 144.353284 162.571018 
L 144.678264 157.009638 
L 145.003243 154.228949 
L 145.328223 152.838604 
L 145.653202 148.667569 
L 145.978182 148.667569 
L 146.303161 147.277224 
L 146.628141 143.10619 
L 146.95312 141.715845 
L 147.603079 136.154466 
L 147.928059 130.593087 
L 148.253038 129.202742 
L 148.578018 130.593087 
L 148.902998 130.593087 
L 149.227977 131.983431 
L 149.552957 129.202742 
L 149.877936 123.641362 
L 150.202916 120.860673 
L 150.852875 123.641362 
L 151.177854 126.422052 
L 151.502834 126.422052 
L 151.827813 123.641362 
L 152.152793 122.251018 
L 153.127731 122.251018 
L 153.452711 120.860673 
L 154.10267 126.422052 
L 154.752629 126.422052 
L 155.077609 123.641362 
L 155.402588 123.641362 
L 155.727568 126.422052 
L 156.052547 127.812397 
L 156.377527 131.983431 
L 157.027486 129.202742 
L 157.677445 129.202742 
L 158.002424 131.983431 
L 158.652383 134.764121 
L 158.977363 137.544811 
L 159.302342 138.935155 
L 159.627322 137.544811 
L 159.952301 137.544811 
L 160.277281 136.154466 
L 160.60226 140.3255 
L 160.92724 141.715845 
L 161.252219 141.715845 
L 161.577199 143.10619 
L 162.552138 143.10619 
L 163.202097 145.88688 
L 163.527076 145.88688 
L 163.852056 147.277224 
L 164.177035 147.277224 
L 164.502015 148.667569 
L 164.826994 147.277224 
L 165.476953 147.277224 
L 165.801933 148.667569 
L 166.126912 147.277224 
L 166.451892 147.277224 
L 166.776871 148.667569 
L 167.101851 148.667569 
L 167.75181 145.88688 
L 168.07679 147.277224 
L 168.401769 145.88688 
L 169.376708 145.88688 
L 169.701687 141.715845 
L 170.026667 141.715845 
L 170.351646 143.10619 
L 170.676626 140.3255 
L 171.001605 140.3255 
L 171.326585 138.935155 
L 171.651564 138.935155 
L 171.976544 140.3255 
L 172.301523 138.935155 
L 172.626503 136.154466 
L 172.951482 134.764121 
L 173.276462 134.764121 
L 173.601441 133.373776 
L 174.2514 133.373776 
L 175.226339 129.202742 
L 175.551319 129.202742 
L 175.876298 127.812397 
L 176.201278 129.202742 
L 176.851237 126.422052 
L 177.176216 126.422052 
L 177.826175 123.641362 
L 178.801114 123.641362 
L 179.126093 122.251018 
L 179.451073 123.641362 
L 179.776052 122.251018 
L 180.101032 122.251018 
L 180.426011 123.641362 
L 181.40095 123.641362 
L 181.72593 125.031707 
L 182.050909 123.641362 
L 182.700868 126.422052 
L 183.025848 125.031707 
L 183.350827 127.812397 
L 183.675807 127.812397 
L 184.000786 130.593087 
L 184.325766 130.593087 
L 185.300704 134.764121 
L 185.950663 140.3255 
L 186.275643 140.3255 
L 186.925602 145.88688 
L 187.250581 147.277224 
L 187.900541 152.838604 
L 188.22552 152.838604 
L 188.875479 159.790328 
L 189.200459 161.180673 
L 190.175397 169.522742 
L 190.500377 170.913087 
L 191.475315 179.255155 
L 191.800295 183.42619 
L 192.450254 186.20688 
L 193.100213 191.768259 
L 193.425192 195.939293 
L 193.750172 197.329638 
L 194.075152 200.110328 
L 195.05009 204.281362 
L 195.37507 208.452397 
L 196.999967 215.404121 
L 197.324947 218.184811 
L 198.299885 222.355845 
L 198.949844 222.355845 
L 199.274824 225.136535 
L 199.924783 225.136535 
L 200.249762 222.355845 
L 200.574742 223.74619 
L 200.899722 222.355845 
L 201.224701 222.355845 
L 201.87466 219.575155 
L 202.524619 219.575155 
L 202.849599 216.794466 
L 203.499558 214.013776 
L 203.824537 214.013776 
L 204.474496 216.794466 
L 204.799476 216.794466 
L 205.124455 214.013776 
L 205.449435 214.013776 
L 206.099394 220.9655 
L 206.424373 222.355845 
L 206.749353 219.575155 
L 207.074333 218.184811 
L 207.399312 218.184811 
L 207.724292 219.575155 
L 208.049271 219.575155 
L 208.374251 220.9655 
L 208.69923 218.184811 
L 209.02421 216.794466 
L 209.349189 218.184811 
L 209.674169 220.9655 
L 209.999148 222.355845 
L 210.324128 222.355845 
L 210.649107 219.575155 
L 210.974087 219.575155 
L 211.624046 222.355845 
L 212.274005 216.794466 
L 212.598984 218.184811 
L 212.923964 218.184811 
L 213.248943 219.575155 
L 213.573923 219.575155 
L 213.898903 220.9655 
L 214.223882 218.184811 
L 214.873841 218.184811 
L 215.198821 220.9655 
L 215.5238 220.9655 
L 216.498739 216.794466 
L 216.823718 219.575155 
L 217.473677 219.575155 
L 217.798657 220.9655 
L 218.123636 220.9655 
L 218.448616 218.184811 
L 219.098575 220.9655 
L 219.423554 219.575155 
L 220.398493 219.575155 
L 220.723473 218.184811 
L 221.048452 218.184811 
L 221.373432 220.9655 
L 222.34837 220.9655 
L 222.67335 219.575155 
L 223.648288 219.575155 
L 223.973268 220.9655 
L 224.298247 219.575155 
L 224.948206 219.575155 
L 225.273186 220.9655 
L 225.598165 220.9655 
L 225.923145 219.575155 
L 226.898084 219.575155 
L 227.223063 220.9655 
L 227.873022 218.184811 
L 228.522981 220.9655 
L 228.847961 219.575155 
L 229.17294 220.9655 
L 229.49792 220.9655 
L 229.822899 219.575155 
L 230.147879 219.575155 
L 230.472858 220.9655 
L 231.122817 220.9655 
L 231.447797 219.575155 
L 231.772776 219.575155 
L 232.097756 220.9655 
L 232.422735 220.9655 
L 232.747715 222.355845 
L 233.722654 214.013776 
L 234.047633 208.452397 
L 234.697592 202.891018 
L 235.347551 200.110328 
L 235.99751 190.377914 
L 236.32249 183.42619 
L 236.972449 176.474466 
L 237.297428 175.084121 
L 237.622408 175.084121 
L 239.572285 151.448259 
L 239.897265 150.057914 
L 240.222244 147.277224 
L 241.197183 143.10619 
L 242.172121 130.593087 
L 242.497101 129.202742 
L 242.82208 130.593087 
L 243.14706 133.373776 
L 243.472039 131.983431 
L 244.121998 123.641362 
L 244.446978 122.251018 
L 244.771957 122.251018 
L 245.096937 126.422052 
L 246.071876 122.251018 
L 246.721835 122.251018 
L 247.046814 120.860673 
L 247.696773 123.641362 
L 248.021753 123.641362 
L 248.346732 126.422052 
L 248.671712 125.031707 
L 248.996691 125.031707 
L 249.64665 122.251018 
L 249.97163 126.422052 
L 250.946568 130.593087 
L 251.271548 129.202742 
L 251.596527 130.593087 
L 251.921507 129.202742 
L 252.246486 131.983431 
L 252.571466 133.373776 
L 252.896446 136.154466 
L 253.546405 138.935155 
L 253.871384 136.154466 
L 254.196364 137.544811 
L 254.521343 136.154466 
L 254.846323 137.544811 
L 255.496282 144.496535 
L 256.146241 141.715845 
L 256.7962 144.496535 
L 257.446159 144.496535 
L 257.771138 147.277224 
L 258.096118 147.277224 
L 258.421097 145.88688 
L 259.071057 145.88688 
L 259.396036 147.277224 
L 259.721016 147.277224 
L 260.045995 145.88688 
L 260.695954 148.667569 
L 261.020934 147.277224 
L 261.995872 147.277224 
L 262.645831 144.496535 
L 262.970811 147.277224 
L 263.29579 144.496535 
L 263.62077 144.496535 
L 263.945749 143.10619 
L 264.920688 143.10619 
L 265.245667 141.715845 
L 265.570647 141.715845 
L 266.545586 137.544811 
L 266.870565 137.544811 
L 268.170483 131.983431 
L 268.495463 133.373776 
L 269.795381 127.812397 
L 270.12036 129.202742 
L 270.44534 126.422052 
L 270.770319 127.812397 
L 271.420278 125.031707 
L 271.745258 125.031707 
L 272.070238 123.641362 
L 272.395217 125.031707 
L 273.045176 122.251018 
L 273.370156 125.031707 
L 273.695135 123.641362 
L 274.670074 123.641362 
L 274.995053 125.031707 
L 275.320033 125.031707 
L 275.645012 123.641362 
L 276.294971 126.422052 
L 276.619951 126.422052 
L 276.94493 125.031707 
L 277.26991 127.812397 
L 277.919869 130.593087 
L 278.244848 130.593087 
L 278.569828 131.983431 
L 278.894808 134.764121 
L 280.844685 143.10619 
L 281.494644 148.667569 
L 281.819623 150.057914 
L 282.144603 154.228949 
L 282.469582 155.619293 
L 282.794562 158.399983 
L 283.119541 158.399983 
L 283.7695 165.351707 
L 284.09448 168.132397 
L 284.419459 169.522742 
L 284.744439 172.303431 
L 285.069419 173.693776 
L 285.719378 180.6455 
L 286.044357 182.035845 
L 286.694316 187.597224 
L 287.019296 188.987569 
L 287.669255 195.939293 
L 287.994234 197.329638 
L 288.319214 200.110328 
L 288.644193 201.500673 
L 288.969173 204.281362 
L 289.294152 205.671707 
L 289.619132 209.842742 
L 289.944111 211.233087 
L 290.269091 211.233087 
L 291.244029 215.404121 
L 291.569009 219.575155 
L 291.893989 219.575155 
L 292.218968 220.9655 
L 292.543948 220.9655 
L 293.193907 223.74619 
L 293.843866 223.74619 
L 294.168845 225.136535 
L 294.493825 223.74619 
L 295.143784 223.74619 
L 295.468763 220.9655 
L 295.793743 220.9655 
L 296.118722 218.184811 
L 296.443702 219.575155 
L 297.093661 216.794466 
L 297.41864 214.013776 
L 297.74362 212.623431 
L 298.718559 216.794466 
L 299.043538 216.794466 
L 299.693497 214.013776 
L 300.018477 219.575155 
L 300.343456 220.9655 
L 300.993415 220.9655 
L 301.318395 218.184811 
L 301.643374 218.184811 
L 302.293333 220.9655 
L 302.618313 219.575155 
L 302.943292 216.794466 
L 303.918231 220.9655 
L 304.24321 220.9655 
L 304.56819 222.355845 
L 304.89317 219.575155 
L 305.218149 219.575155 
L 305.543129 220.9655 
L 306.193088 220.9655 
L 306.843047 215.404121 
L 307.493006 220.9655 
L 307.817985 220.9655 
L 308.142965 219.575155 
L 309.442883 219.575155 
L 309.767862 220.9655 
L 310.092842 218.184811 
L 310.417821 218.184811 
L 310.742801 216.794466 
L 311.067781 218.184811 
L 311.39276 218.184811 
L 311.71774 220.9655 
L 312.042719 219.575155 
L 312.692678 219.575155 
L 313.017658 218.184811 
L 313.342637 220.9655 
L 313.992596 220.9655 
L 314.317576 219.575155 
L 314.967535 219.575155 
L 315.292514 218.184811 
L 315.617494 220.9655 
L 316.917412 220.9655 
L 317.242391 219.575155 
L 318.54231 219.575155 
L 318.867289 220.9655 
L 319.192269 220.9655 
L 319.517248 219.575155 
L 319.842228 219.575155 
L 320.167207 220.9655 
L 320.492187 219.575155 
L 321.142146 222.355845 
L 321.467125 220.9655 
L 321.792105 220.9655 
L 322.117084 219.575155 
L 322.442064 220.9655 
L 322.767043 219.575155 
L 323.092023 220.9655 
L 324.066962 220.9655 
L 324.391941 222.355845 
L 324.716921 222.355845 
L 325.0419 219.575155 
L 325.691859 219.575155 
L 326.016839 222.355845 
L 326.341818 222.355845 
L 326.666798 220.9655 
L 326.991777 220.9655 
L 327.316757 219.575155 
L 327.966716 214.013776 
L 328.616675 205.671707 
L 329.266634 202.891018 
L 330.241572 188.987569 
L 330.891532 177.864811 
L 331.216511 175.084121 
L 331.541491 176.474466 
L 331.86647 175.084121 
L 332.19145 172.303431 
L 332.516429 166.742052 
L 332.841409 158.399983 
L 333.166388 154.228949 
L 333.491368 154.228949 
L 333.816347 151.448259 
L 334.141327 150.057914 
L 334.466306 147.277224 
L 334.791286 145.88688 
L 335.441245 140.3255 
L 336.091204 133.373776 
L 336.416183 130.593087 
L 336.741163 130.593087 
L 337.066143 131.983431 
L 337.391122 134.764121 
L 337.716102 131.983431 
L 338.366061 122.251018 
L 338.69104 120.860673 
L 339.01602 123.641362 
L 339.665979 126.422052 
L 340.640917 122.251018 
L 341.615856 122.251018 
L 341.940835 125.031707 
L 342.590794 127.812397 
L 342.915774 126.422052 
L 343.240753 122.251018 
L 343.890713 125.031707 
L 344.215692 127.812397 
L 345.190631 131.983431 
L 345.84059 129.202742 
L 346.490549 131.983431 
L 346.815528 134.764121 
L 347.140508 136.154466 
L 347.465487 138.935155 
L 348.115446 136.154466 
L 348.440426 136.154466 
L 349.090385 138.935155 
L 349.740344 144.496535 
L 350.390303 144.496535 
L 350.715283 143.10619 
L 351.040262 143.10619 
L 352.015201 147.277224 
L 353.640098 147.277224 
L 353.965078 148.667569 
L 354.290057 147.277224 
L 354.615037 148.667569 
L 354.940016 148.667569 
L 355.264996 147.277224 
L 355.589975 148.667569 
L 355.914955 145.88688 
L 356.239934 144.496535 
L 356.564914 145.88688 
L 357.539853 145.88688 
L 357.864832 144.496535 
L 358.514791 144.496535 
L 358.839771 141.715845 
L 359.48973 141.715845 
L 360.139689 138.935155 
L 360.789648 138.935155 
L 361.114627 136.154466 
L 361.764586 133.373776 
L 362.089566 133.373776 
L 362.414545 131.983431 
L 363.389484 131.983431 
L 363.714464 130.593087 
L 364.039443 127.812397 
L 364.364423 129.202742 
L 364.689402 127.812397 
L 365.339361 127.812397 
L 365.98932 125.031707 
L 366.3143 122.251018 
L 366.639279 122.251018 
L 366.964259 123.641362 
L 367.614218 123.641362 
L 367.939197 125.031707 
L 368.264177 122.251018 
L 369.239115 122.251018 
L 369.889075 125.031707 
L 370.214054 123.641362 
L 370.864013 126.422052 
L 371.513972 126.422052 
L 372.81389 131.983431 
L 373.13887 134.764121 
L 373.463849 133.373776 
L 373.788829 136.154466 
L 374.438788 138.935155 
L 375.088747 145.88688 
L 375.413726 144.496535 
L 376.713645 155.619293 
L 377.038624 155.619293 
L 377.688583 162.571018 
L 378.338542 168.132397 
L 378.663522 169.522742 
L 378.988501 172.303431 
L 379.313481 173.693776 
L 379.63846 176.474466 
L 380.288419 183.42619 
L 380.938378 186.20688 
L 381.263358 188.987569 
L 381.588337 193.158604 
L 381.913317 194.548949 
L 382.238296 197.329638 
L 382.563276 198.719983 
L 382.888256 202.891018 
L 383.213235 204.281362 
L 383.538215 207.062052 
L 383.863194 208.452397 
L 384.188174 211.233087 
L 384.513153 212.623431 
L 384.838133 212.623431 
L 385.163112 214.013776 
L 385.488092 216.794466 
L 386.78801 222.355845 
L 387.112989 222.355845 
L 387.762948 225.136535 
L 388.087928 223.74619 
L 389.062867 223.74619 
L 390.362785 218.184811 
L 390.687764 218.184811 
L 391.337723 215.404121 
L 391.662703 215.404121 
L 391.987682 214.013776 
L 392.312662 214.013776 
L 392.962621 216.794466 
L 393.2876 214.013776 
L 394.262539 218.184811 
L 394.587518 220.9655 
L 394.912498 220.9655 
L 395.237477 219.575155 
L 395.562457 219.575155 
L 395.887437 218.184811 
L 396.212416 218.184811 
L 396.537396 219.575155 
L 396.862375 218.184811 
L 397.512334 218.184811 
L 398.162293 220.9655 
L 398.487273 220.9655 
L 398.487273 220.9655 
" clip-path="url(#pb2cefa1706)" style="fill: none; stroke: #ff7f0e; stroke-width: 1.5; stroke-linecap: square"/>
   </g>
   <g id="line2d_16">
    <path d="M 73.832727 70.252138 
L 74.157707 75.813517 
L 74.482686 84.155586 
L 74.807666 84.155586 
L 75.132645 86.936276 
L 75.457625 92.497655 
L 76.107584 98.059034 
L 76.432563 98.059034 
L 76.757543 106.401103 
L 77.082523 109.181793 
L 77.732482 123.085241 
L 78.057461 125.865931 
L 78.70742 136.98869 
L 79.0324 139.769379 
L 80.007338 156.453517 
L 80.332318 156.453517 
L 81.307256 178.699034 
L 81.632236 178.699034 
L 81.957215 187.041103 
L 82.282195 189.821793 
L 83.907093 217.62869 
L 84.232072 220.409379 
L 84.557052 225.970759 
L 84.882031 234.312828 
L 85.53199 234.312828 
L 86.506929 256.558345 
L 86.831908 253.777655 
L 87.156888 259.339034 
L 87.481867 262.119724 
L 87.806847 270.461793 
L 88.131826 270.461793 
L 89.106765 278.803862 
L 89.431744 276.023172 
L 89.756724 281.584552 
L 90.081704 284.365241 
L 90.406683 284.365241 
L 91.056642 289.926621 
L 91.381622 289.926621 
L 91.706601 292.70731 
L 92.031581 287.145931 
L 92.35656 292.70731 
L 93.006519 292.70731 
L 93.331499 289.926621 
L 93.656478 292.70731 
L 94.306437 292.70731 
L 94.631417 287.145931 
L 94.956396 289.926621 
L 95.281376 287.145931 
L 95.606355 287.145931 
L 95.931335 284.365241 
L 96.256314 284.365241 
L 96.906274 278.803862 
L 97.231253 273.242483 
L 97.556233 276.023172 
L 97.881212 273.242483 
L 98.206192 267.681103 
L 98.531171 267.681103 
L 99.18113 262.119724 
L 99.50611 256.558345 
L 99.831089 248.216276 
L 100.156069 250.996966 
L 100.806028 239.874207 
L 101.131007 231.532138 
L 102.105946 223.190069 
L 102.430925 212.06731 
L 102.755905 212.06731 
L 103.080885 209.286621 
L 103.405864 203.725241 
L 103.730844 200.944552 
L 104.380803 189.821793 
L 104.705782 187.041103 
L 105.355741 173.137655 
L 105.680721 170.356966 
L 106.33068 159.234207 
L 106.655659 156.453517 
L 107.630598 139.769379 
L 107.955577 136.98869 
L 108.280557 128.646621 
L 108.605536 128.646621 
L 108.930516 120.304552 
L 109.255495 120.304552 
L 109.905455 114.743172 
L 110.230434 106.401103 
L 110.555414 103.620414 
L 110.880393 98.059034 
L 111.530352 92.497655 
L 111.855332 92.497655 
L 112.180311 86.936276 
L 112.505291 86.936276 
L 112.83027 78.594207 
L 113.15525 78.594207 
L 113.805209 73.032828 
L 114.130188 73.032828 
L 114.455168 70.252138 
L 115.105127 70.252138 
L 115.430106 61.910069 
L 115.755086 61.910069 
L 116.080066 64.690759 
L 116.405045 64.690759 
L 116.730025 61.910069 
L 117.055004 64.690759 
L 117.379984 64.690759 
L 117.704963 67.471448 
L 118.029943 61.910069 
L 118.354922 64.690759 
L 118.679902 64.690759 
L 119.004881 70.252138 
L 119.65484 70.252138 
L 119.97982 73.032828 
L 120.304799 78.594207 
L 120.629779 75.813517 
L 120.954758 78.594207 
L 121.279738 84.155586 
L 121.604717 84.155586 
L 121.929697 86.936276 
L 122.254676 92.497655 
L 122.904636 98.059034 
L 123.229615 98.059034 
L 123.879574 109.181793 
L 124.204554 111.962483 
L 124.854513 123.085241 
L 125.179492 123.085241 
L 125.504472 128.646621 
L 125.829451 131.42731 
L 126.47941 145.330759 
L 127.129369 150.892138 
L 127.454349 159.234207 
L 127.779328 162.014897 
L 128.104308 167.576276 
L 128.429287 167.576276 
L 129.404226 189.821793 
L 129.729206 192.602483 
L 130.054185 198.163862 
L 130.379165 200.944552 
L 130.704144 209.286621 
L 131.029124 206.505931 
L 131.679083 220.409379 
L 132.329042 225.970759 
L 132.654021 231.532138 
L 132.979001 234.312828 
L 133.30398 242.654897 
L 133.62896 239.874207 
L 133.953939 245.435586 
L 134.278919 248.216276 
L 134.603898 253.777655 
L 134.928878 256.558345 
L 135.253857 262.119724 
L 135.578837 262.119724 
L 135.903817 267.681103 
L 136.228796 264.900414 
L 136.878755 276.023172 
L 137.203735 273.242483 
L 138.503653 284.365241 
L 138.828632 278.803862 
L 139.153612 284.365241 
L 140.778509 284.365241 
L 141.103489 287.145931 
L 141.428468 281.584552 
L 141.753448 281.584552 
L 142.078428 284.365241 
L 142.728387 278.803862 
L 143.053366 281.584552 
L 143.378346 278.803862 
L 143.703325 278.803862 
L 144.028305 270.461793 
L 144.353284 270.461793 
L 145.003243 264.900414 
L 145.328223 264.900414 
L 145.653202 262.119724 
L 145.978182 256.558345 
L 146.303161 256.558345 
L 146.628141 248.216276 
L 147.2781 242.654897 
L 147.928059 231.532138 
L 148.253038 231.532138 
L 148.578018 225.970759 
L 148.902998 223.190069 
L 149.227977 214.848 
L 150.202916 206.505931 
L 150.527895 198.163862 
L 151.177854 192.602483 
L 151.502834 187.041103 
L 152.152793 173.137655 
L 152.477772 173.137655 
L 153.127731 156.453517 
L 153.77769 150.892138 
L 154.10267 145.330759 
L 154.427649 136.98869 
L 154.752629 134.208 
L 155.077609 125.865931 
L 155.402588 125.865931 
L 155.727568 120.304552 
L 156.052547 111.962483 
L 156.377527 111.962483 
L 156.702506 106.401103 
L 157.027486 98.059034 
L 157.352465 98.059034 
L 157.677445 95.278345 
L 158.002424 89.716966 
L 158.977363 81.374897 
L 159.302342 81.374897 
L 159.627322 70.252138 
L 159.952301 70.252138 
L 160.277281 67.471448 
L 160.92724 67.471448 
L 161.252219 61.910069 
L 161.577199 59.129379 
L 161.902179 59.129379 
L 162.227158 56.34869 
L 162.552138 56.34869 
L 162.877117 59.129379 
L 163.527076 53.568 
L 164.177035 59.129379 
L 164.502015 59.129379 
L 164.826994 53.568 
L 165.801933 61.910069 
L 166.451892 61.910069 
L 167.101851 67.471448 
L 167.42683 67.471448 
L 168.07679 78.594207 
L 168.401769 78.594207 
L 169.051728 84.155586 
L 169.701687 95.278345 
L 170.026667 92.497655 
L 171.001605 109.181793 
L 171.326585 111.962483 
L 172.301523 128.646621 
L 172.626503 131.42731 
L 173.276462 142.550069 
L 173.926421 148.111448 
L 174.2514 156.453517 
L 174.57638 159.234207 
L 174.90136 167.576276 
L 175.226339 170.356966 
L 175.551319 178.699034 
L 175.876298 181.479724 
L 176.526257 192.602483 
L 176.851237 195.383172 
L 177.176216 200.944552 
L 177.501196 209.286621 
L 177.826175 209.286621 
L 178.151155 214.848 
L 178.476134 223.190069 
L 178.801114 225.970759 
L 179.126093 231.532138 
L 179.451073 234.312828 
L 180.101032 245.435586 
L 180.426011 245.435586 
L 180.750991 253.777655 
L 181.40095 259.339034 
L 181.72593 264.900414 
L 182.050909 264.900414 
L 182.375889 273.242483 
L 182.700868 276.023172 
L 183.025848 276.023172 
L 183.675807 281.584552 
L 184.000786 278.803862 
L 184.325766 281.584552 
L 184.650745 287.145931 
L 184.975725 287.145931 
L 185.300704 289.926621 
L 185.625684 287.145931 
L 185.950663 289.926621 
L 186.275643 289.926621 
L 186.600622 292.70731 
L 186.925602 289.926621 
L 187.575561 295.488 
L 187.900541 295.488 
L 188.22552 289.926621 
L 188.5505 292.70731 
L 188.875479 292.70731 
L 189.525438 287.145931 
L 189.850418 289.926621 
L 190.175397 284.365241 
L 190.500377 284.365241 
L 190.825356 278.803862 
L 191.150336 278.803862 
L 191.475315 273.242483 
L 191.800295 273.242483 
L 192.125274 270.461793 
L 192.450254 270.461793 
L 192.775233 264.900414 
L 193.100213 262.119724 
L 193.425192 256.558345 
L 194.400131 248.216276 
L 194.725111 242.654897 
L 195.05009 239.874207 
L 195.37507 234.312828 
L 195.700049 234.312828 
L 196.025029 223.190069 
L 196.350008 225.970759 
L 196.674988 217.62869 
L 196.999967 214.848 
L 197.649926 203.725241 
L 197.974906 200.944552 
L 198.299885 195.383172 
L 198.624865 184.260414 
L 198.949844 184.260414 
L 199.924783 167.576276 
L 200.249762 164.795586 
L 200.574742 159.234207 
L 200.899722 156.453517 
L 201.224701 145.330759 
L 201.549681 142.550069 
L 201.87466 136.98869 
L 202.19964 136.98869 
L 202.849599 125.865931 
L 203.499558 120.304552 
L 203.824537 114.743172 
L 204.474496 109.181793 
L 204.799476 100.839724 
L 205.124455 98.059034 
L 205.449435 92.497655 
L 205.774414 92.497655 
L 206.099394 89.716966 
L 206.424373 84.155586 
L 206.749353 81.374897 
L 207.074333 81.374897 
L 208.049271 73.032828 
L 208.69923 73.032828 
L 209.02421 67.471448 
L 209.349189 67.471448 
L 209.674169 70.252138 
L 209.999148 64.690759 
L 210.324128 61.910069 
L 210.649107 64.690759 
L 211.299066 64.690759 
L 211.624046 61.910069 
L 212.274005 61.910069 
L 212.923964 67.471448 
L 213.248943 67.471448 
L 213.898903 73.032828 
L 214.223882 70.252138 
L 214.873841 81.374897 
L 215.5238 81.374897 
L 216.173759 86.936276 
L 216.498739 95.278345 
L 216.823718 92.497655 
L 217.148698 98.059034 
L 217.473677 100.839724 
L 217.798657 106.401103 
L 218.448616 111.962483 
L 219.098575 125.865931 
L 219.423554 123.085241 
L 220.073514 136.98869 
L 220.398493 136.98869 
L 220.723473 142.550069 
L 221.373432 156.453517 
L 221.698411 159.234207 
L 222.023391 159.234207 
L 222.34837 167.576276 
L 222.67335 170.356966 
L 222.998329 178.699034 
L 223.323309 181.479724 
L 223.648288 189.821793 
L 223.973268 192.602483 
L 224.623227 203.725241 
L 224.948206 206.505931 
L 225.273186 212.06731 
L 225.923145 217.62869 
L 226.898084 234.312828 
L 227.223063 234.312828 
L 227.548043 242.654897 
L 227.873022 239.874207 
L 228.198002 245.435586 
L 228.522981 248.216276 
L 228.847961 253.777655 
L 229.17294 256.558345 
L 229.49792 262.119724 
L 229.822899 262.119724 
L 230.147879 264.900414 
L 230.472858 270.461793 
L 231.122817 270.461793 
L 231.447797 276.023172 
L 232.097756 281.584552 
L 232.422735 273.242483 
L 232.747715 278.803862 
L 233.397674 284.365241 
L 233.722654 284.365241 
L 234.047633 287.145931 
L 234.372613 284.365241 
L 234.697592 287.145931 
L 235.022572 281.584552 
L 235.672531 287.145931 
L 235.99751 284.365241 
L 236.32249 278.803862 
L 236.972449 278.803862 
L 237.297428 281.584552 
L 237.622408 273.242483 
L 237.947387 276.023172 
L 239.247305 264.900414 
L 239.572285 264.900414 
L 239.897265 262.119724 
L 240.547224 250.996966 
L 240.872203 250.996966 
L 241.197183 248.216276 
L 241.847142 237.093517 
L 242.497101 231.532138 
L 242.82208 223.190069 
L 243.14706 223.190069 
L 243.472039 214.848 
L 243.797019 212.06731 
L 244.446978 200.944552 
L 245.096937 195.383172 
L 245.746896 181.479724 
L 246.071876 178.699034 
L 246.721835 164.795586 
L 247.046814 162.014897 
L 247.371794 156.453517 
L 247.696773 156.453517 
L 248.021753 142.550069 
L 248.346732 142.550069 
L 248.671712 136.98869 
L 248.996691 134.208 
L 249.321671 125.865931 
L 250.296609 117.523862 
L 250.621589 106.401103 
L 251.271548 100.839724 
L 251.596527 92.497655 
L 251.921507 92.497655 
L 252.246486 89.716966 
L 252.571466 89.716966 
L 252.896446 86.936276 
L 253.221425 78.594207 
L 253.546405 75.813517 
L 253.871384 75.813517 
L 254.196364 70.252138 
L 254.846323 64.690759 
L 255.171302 64.690759 
L 255.496282 67.471448 
L 255.821261 59.129379 
L 256.146241 56.34869 
L 256.47122 59.129379 
L 257.121179 53.568 
L 257.771138 53.568 
L 258.096118 56.34869 
L 258.421097 56.34869 
L 258.746077 59.129379 
L 259.071057 56.34869 
L 259.396036 59.129379 
L 260.045995 59.129379 
L 260.695954 64.690759 
L 261.020934 64.690759 
L 261.345913 67.471448 
L 261.670893 73.032828 
L 261.995872 73.032828 
L 262.320852 75.813517 
L 262.645831 81.374897 
L 262.970811 84.155586 
L 263.29579 89.716966 
L 263.62077 84.155586 
L 263.945749 92.497655 
L 264.270729 95.278345 
L 264.920688 106.401103 
L 265.245667 109.181793 
L 265.570647 114.743172 
L 266.220606 120.304552 
L 266.545586 125.865931 
L 266.870565 134.208 
L 267.195545 134.208 
L 267.845504 145.330759 
L 268.495463 159.234207 
L 268.820442 159.234207 
L 269.470401 173.137655 
L 269.795381 178.699034 
L 270.12036 181.479724 
L 270.44534 189.821793 
L 270.770319 192.602483 
L 271.095299 198.163862 
L 271.420278 200.944552 
L 271.745258 206.505931 
L 272.070238 214.848 
L 272.395217 217.62869 
L 273.045176 228.751448 
L 273.370156 231.532138 
L 273.695135 237.093517 
L 274.020115 237.093517 
L 274.345094 245.435586 
L 274.670074 248.216276 
L 274.995053 253.777655 
L 275.320033 253.777655 
L 275.645012 259.339034 
L 275.969992 262.119724 
L 276.294971 267.681103 
L 276.619951 267.681103 
L 277.26991 278.803862 
L 277.919869 278.803862 
L 278.569828 284.365241 
L 278.894808 289.926621 
L 279.219787 284.365241 
L 279.544767 289.926621 
L 280.194726 289.926621 
L 280.519705 292.70731 
L 281.169664 292.70731 
L 281.494644 295.488 
L 281.819623 289.926621 
L 282.144603 295.488 
L 282.794562 289.926621 
L 284.09448 289.926621 
L 284.419459 281.584552 
L 285.069419 281.584552 
L 285.719378 276.023172 
L 286.044357 276.023172 
L 286.369337 270.461793 
L 286.694316 270.461793 
L 287.019296 262.119724 
L 287.344275 262.119724 
L 287.994234 256.558345 
L 288.644193 245.435586 
L 288.969173 245.435586 
L 289.294152 239.874207 
L 289.619132 231.532138 
L 289.944111 231.532138 
L 290.269091 223.190069 
L 290.59407 223.190069 
L 291.569009 206.505931 
L 291.893989 206.505931 
L 292.218968 198.163862 
L 292.868927 192.602483 
L 293.518886 175.918345 
L 294.168845 170.356966 
L 294.493825 164.795586 
L 294.818804 156.453517 
L 295.143784 153.672828 
L 295.468763 145.330759 
L 296.443702 136.98869 
L 296.768681 131.42731 
L 297.093661 128.646621 
L 297.41864 120.304552 
L 297.74362 117.523862 
L 298.0686 117.523862 
L 299.043538 100.839724 
L 299.693497 95.278345 
L 300.018477 89.716966 
L 300.343456 89.716966 
L 300.668436 86.936276 
L 300.993415 86.936276 
L 301.318395 78.594207 
L 301.643374 78.594207 
L 301.968354 75.813517 
L 302.293333 75.813517 
L 302.618313 67.471448 
L 302.943292 70.252138 
L 303.268272 70.252138 
L 303.593251 64.690759 
L 304.56819 64.690759 
L 304.89317 67.471448 
L 305.218149 61.910069 
L 305.543129 64.690759 
L 306.843047 64.690759 
L 307.493006 70.252138 
L 307.817985 67.471448 
L 309.117903 78.594207 
L 309.442883 78.594207 
L 309.767862 81.374897 
L 310.092842 86.936276 
L 310.417821 84.155586 
L 311.067781 98.059034 
L 312.042719 106.401103 
L 312.692678 117.523862 
L 313.017658 114.743172 
L 313.667617 128.646621 
L 313.992596 128.646621 
L 314.317576 131.42731 
L 314.642555 142.550069 
L 314.967535 148.111448 
L 315.617494 153.672828 
L 316.592432 170.356966 
L 316.917412 173.137655 
L 317.892351 189.821793 
L 318.21733 189.821793 
L 318.867289 203.725241 
L 319.517248 209.286621 
L 319.842228 214.848 
L 320.167207 217.62869 
L 320.492187 225.970759 
L 320.817166 223.190069 
L 321.142146 234.312828 
L 321.467125 234.312828 
L 321.792105 242.654897 
L 322.117084 245.435586 
L 322.442064 245.435586 
L 323.092023 256.558345 
L 323.417002 253.777655 
L 324.066962 264.900414 
L 324.391941 264.900414 
L 324.716921 267.681103 
L 325.0419 273.242483 
L 325.36688 276.023172 
L 325.691859 276.023172 
L 326.016839 273.242483 
L 326.341818 278.803862 
L 326.666798 278.803862 
L 326.991777 281.584552 
L 327.316757 281.584552 
L 327.641736 284.365241 
L 327.966716 284.365241 
L 328.291695 287.145931 
L 328.616675 281.584552 
L 329.266634 287.145931 
L 329.916593 281.584552 
L 330.241572 284.365241 
L 330.566552 284.365241 
L 330.891532 281.584552 
L 331.216511 273.242483 
L 331.541491 281.584552 
L 331.86647 276.023172 
L 332.19145 278.803862 
L 332.516429 276.023172 
L 332.841409 270.461793 
L 333.166388 267.681103 
L 333.491368 270.461793 
L 333.816347 262.119724 
L 334.141327 262.119724 
L 334.466306 256.558345 
L 334.791286 253.777655 
L 335.116265 245.435586 
L 335.766224 239.874207 
L 336.091204 239.874207 
L 336.416183 231.532138 
L 336.741163 228.751448 
L 337.066143 223.190069 
L 337.391122 223.190069 
L 337.716102 214.848 
L 338.041081 212.06731 
L 338.366061 206.505931 
L 338.69104 206.505931 
L 339.01602 195.383172 
L 339.665979 189.821793 
L 340.315938 175.918345 
L 340.640917 170.356966 
L 340.965897 167.576276 
L 341.290876 162.014897 
L 341.615856 153.672828 
L 341.940835 153.672828 
L 342.590794 139.769379 
L 342.915774 136.98869 
L 343.240753 131.42731 
L 343.565733 128.646621 
L 343.890713 123.085241 
L 344.215692 114.743172 
L 344.540672 111.962483 
L 344.865651 111.962483 
L 345.190631 103.620414 
L 346.490549 92.497655 
L 346.815528 84.155586 
L 347.140508 84.155586 
L 347.465487 78.594207 
L 347.790467 78.594207 
L 349.090385 67.471448 
L 349.415364 61.910069 
L 350.065324 61.910069 
L 350.390303 59.129379 
L 351.040262 59.129379 
L 351.365242 56.34869 
L 351.690221 56.34869 
L 352.015201 53.568 
L 352.66516 53.568 
L 352.990139 59.129379 
L 353.965078 59.129379 
L 354.290057 61.910069 
L 354.615037 61.910069 
L 355.264996 67.471448 
L 355.914955 67.471448 
L 356.239934 75.813517 
L 356.564914 78.594207 
L 356.889894 84.155586 
L 357.214873 81.374897 
L 357.864832 86.936276 
L 358.189812 92.497655 
L 358.514791 95.278345 
L 359.48973 111.962483 
L 359.814709 111.962483 
L 360.789648 128.646621 
L 361.114627 131.42731 
L 361.764586 142.550069 
L 362.089566 150.892138 
L 362.414545 148.111448 
L 363.064505 162.014897 
L 363.714464 173.137655 
L 364.039443 181.479724 
L 364.364423 184.260414 
L 364.689402 189.821793 
L 365.014382 192.602483 
L 365.664341 206.505931 
L 366.3143 212.06731 
L 366.964259 223.190069 
L 367.289238 231.532138 
L 367.614218 228.751448 
L 367.939197 237.093517 
L 368.589156 242.654897 
L 368.914136 250.996966 
L 369.239115 253.777655 
L 369.564095 259.339034 
L 369.889075 262.119724 
L 370.214054 259.339034 
L 370.539034 264.900414 
L 370.864013 273.242483 
L 371.188993 276.023172 
L 371.513972 273.242483 
L 372.163931 278.803862 
L 372.488911 287.145931 
L 372.81389 281.584552 
L 373.13887 284.365241 
L 373.463849 284.365241 
L 373.788829 289.926621 
L 374.438788 289.926621 
L 375.088747 295.488 
L 375.413726 292.70731 
L 375.738706 292.70731 
L 376.063686 289.926621 
L 376.388665 292.70731 
L 377.038624 292.70731 
L 377.363604 289.926621 
L 377.688583 292.70731 
L 378.013563 281.584552 
L 378.338542 287.145931 
L 378.663522 284.365241 
L 378.988501 287.145931 
L 379.313481 281.584552 
L 379.63846 281.584552 
L 379.96344 276.023172 
L 380.288419 276.023172 
L 380.613399 270.461793 
L 380.938378 267.681103 
L 381.263358 267.681103 
L 381.913317 256.558345 
L 382.238296 253.777655 
L 382.563276 253.777655 
L 382.888256 248.216276 
L 383.213235 237.093517 
L 383.538215 239.874207 
L 383.863194 231.532138 
L 384.838133 223.190069 
L 385.488092 212.06731 
L 385.813071 203.725241 
L 386.138051 200.944552 
L 386.46303 200.944552 
L 387.112989 187.041103 
L 387.437969 184.260414 
L 388.087928 173.137655 
L 388.412907 164.795586 
L 388.737887 164.795586 
L 390.362785 136.98869 
L 390.687764 139.769379 
L 391.012744 128.646621 
L 391.662703 123.085241 
L 392.312662 111.962483 
L 392.637641 111.962483 
L 392.962621 109.181793 
L 393.2876 103.620414 
L 393.61258 95.278345 
L 393.937559 95.278345 
L 394.587518 89.716966 
L 394.912498 84.155586 
L 395.562457 78.594207 
L 395.887437 78.594207 
L 396.212416 73.032828 
L 396.862375 73.032828 
L 397.187355 67.471448 
L 397.512334 67.471448 
L 397.837314 64.690759 
L 398.487273 64.690759 
L 398.487273 64.690759 
" clip-path="url(#pb2cefa1706)" style="fill: none; stroke: #2ca02c; stroke-width: 1.5; stroke-linecap: square"/>
   </g>
   <g id="patch_3">
    <path d="M 57.6 307.584 
L 57.6 41.472 
" style="fill: none; stroke: #000000; stroke-width: 0.8; stroke-linejoin: miter; stroke-linecap: square"/>
   </g>
   <g id="patch_4">
    <path d="M 414.72 307.584 
L 414.72 41.472 
" style="fill: none; stroke: #000000; stroke-width: 0.8; stroke-linejoin: miter; stroke-linecap: square"/>
   </g>
   <g id="patch_5">
    <path d="M 57.6 307.584 
L 414.72 307.584 
" style="fill: none; stroke: #000000; stroke-width: 0.8; stroke-linejoin: miter; stroke-linecap: square"/>
   </g>
   <g id="patch_6">
    <path d="M 57.6 41.472 
L 414.72 41.472 
" style="fill: none; stroke: #000000; stroke-width: 0.8; stroke-linejoin: miter; stroke-linecap: square"/>
   </g>
  </g>
 </g>
 <defs>
  <clipPath id="pb2cefa1706">
   <rect x="57.6" y="41.472" width="357.12" height="266.112"/>
  </clipPath>
 </defs>
</svg>
