<?xml version="1.0" encoding="utf-8" standalone="no"?>
<!DOCTYPE svg PUBLIC "-//W3C//DTD SVG 1.1//EN"
  "http://www.w3.org/Graphics/SVG/1.1/DTD/svg11.dtd">
<svg xmlns:xlink="http://www.w3.org/1999/xlink" width="460.8pt" height="345.6pt" viewBox="0 0 460.8 345.6" xmlns="http://www.w3.org/2000/svg" version="1.1">
 <metadata>
  <rdf:RDF xmlns:dc="http://purl.org/dc/elements/1.1/" xmlns:cc="http://creativecommons.org/ns#" xmlns:rdf="http://www.w3.org/1999/02/22-rdf-syntax-ns#">
   <cc:Work>
    <dc:type rdf:resource="http://purl.org/dc/dcmitype/StillImage"/>
    <dc:date>2025-12-29T21:05:12.476435</dc:date>
    <dc:format>image/svg+xml</dc:format>
    <dc:creator>
     <cc:Agent>
      <dc:title>Matplotlib v3.10.8, https://matplotlib.org/</dc:title>
     </cc:Agent>
    </dc:creator>
   </cc:Work>
  </rdf:RDF>
 </metadata>
 <defs>
  <style type="text/css">*{stroke-linejoin: round; stroke-linecap: butt}</style>
 </defs>
 <g id="figure_1">
  <g id="patch_1">
   <path d="M 0 345.6 
L 460.8 345.6 
L 460.8 0 
L 0 0 
z
" style="fill: #ffffff"/>
  </g>
  <g id="axes_1">
   <g id="patch_2">
    <path d="M 57.6 307.584 
L 414.72 307.584 
L 414.72 41.472 
L 57.6 41.472 
z
" style="fill: #ffffff"/>
   </g>
   <g id="matplotlib.axis_1">
    <g id="xtick_1">
     <g id="line2d_1">
      <defs>
       <path id="mbd7b6650a2" d="M 0 0 
L 0 3.5 
" style="stroke: #000000; stroke-width: 0.8"/>
      </defs>
      <g>
       <use xlink:href="#mbd7b6650a2" x="73.832727" y="307.584" style="stroke: #000000; stroke-width: 0.8"/>
      </g>
     </g>
     <g id="text_1">
      <!-- 0 -->
      <g transform="translate(70.651477 322.182437) scale(0.1 -0.1)">
       <defs>
        <path id="DejaVuSans-30" d="M 2034 4250 
Q 1547 4250 1301 3770 
Q 1056 3291 1056 2328 
Q 1056 1369 1301 889 
Q 1547 409 2034 409 
Q 2525 409 2770 889 
Q 3016 1369 3016 2328 
Q 3016 3291 2770 3770 
Q 2525 4250 2034 4250 
z
M 2034 4750 
Q 2819 4750 3233 4129 
Q 3647 3509 3647 2328 
Q 3647 1150 3233 529 
Q 2819 -91 2034 -91 
Q 1250 -91 836 529 
Q 422 1150 422 2328 
Q 422 3509 836 4129 
Q 1250 4750 2034 4750 
z
" transform="scale(0.015625)"/>
       </defs>
       <use xlink:href="#DejaVuSans-30"/>
      </g>
     </g>
    </g>
    <g id="xtick_2">
     <g id="line2d_2">
      <g>
       <use xlink:href="#mbd7b6650a2" x="138.828632" y="307.584" style="stroke: #000000; stroke-width: 0.8"/>
      </g>
     </g>
     <g id="text_2">
      <!-- 1 -->
      <g transform="translate(135.647382 322.182437) scale(0.1 -0.1)">
       <defs>
        <path id="DejaVuSans-31" d="M 794 531 
L 1825 531 
L 1825 4091 
L 703 3866 
L 703 4441 
L 1819 4666 
L 2450 4666 
L 2450 531 
L 3481 531 
L 3481 0 
L 794 0 
L 794 531 
z
" transform="scale(0.015625)"/>
       </defs>
       <use xlink:href="#DejaVuSans-31"/>
      </g>
     </g>
    </g>
    <g id="xtick_3">
     <g id="line2d_3">
      <g>
       <use xlink:href="#mbd7b6650a2" x="203.824537" y="307.584" style="stroke: #000000; stroke-width: 0.8"/>
      </g>
     </g>
     <g id="text_3">
      <!-- 2 -->
      <g transform="translate(200.643287 322.182437) scale(0.1 -0.1)">
       <defs>
        <path id="DejaVuSans-32" d="M 1228 531 
L 3431 531 
L 3431 0 
L 469 0 
L 469 531 
Q 828 903 1448 1529 
Q 2069 2156 2228 2338 
Q 2531 2678 2651 2914 
Q 2772 3150 2772 3378 
Q 2772 3750 2511 3984 
Q 2250 4219 1831 4219 
Q 1534 4219 1204 4116 
Q 875 4013 500 3803 
L 500 4441 
Q 881 4594 1212 4672 
Q 1544 4750 1819 4750 
Q 2544 4750 2975 4387 
Q 3406 4025 3406 3419 
Q 3406 3131 3298 2873 
Q 3191 2616 2906 2266 
Q 2828 2175 2409 1742 
Q 1991 1309 1228 531 
z
" transform="scale(0.015625)"/>
       </defs>
       <use xlink:href="#DejaVuSans-32"/>
      </g>
     </g>
    </g>
    <g id="xtick_4">
     <g id="line2d_4">
      <g>
       <use xlink:href="#mbd7b6650a2" x="268.820442" y="307.584" style="stroke: #000000; stroke-width: 0.8"/>
      </g>
     </g>
     <g id="text_4">
      <!-- 3 -->
      <g transform="translate(265.639192 322.182437) scale(0.1 -0.1)">
       <defs>
        <path id="DejaVuSans-33" d="M 2597 2516 
Q 3050 2419 3304 2112 
Q 3559 1806 3559 1356 
Q 3559 666 3084 287 
Q 2609 -91 1734 -91 
Q 1441 -91 1130 -33 
Q 819 25 488 141 
L 488 750 
Q 750 597 1062 519 
Q 1375 441 1716 441 
Q 2309 441 2620 675 
Q 2931 909 2931 1356 
Q 2931 1769 2642 2001 
Q 2353 2234 1838 2234 
L 1294 2234 
L 1294 2753 
L 1863 2753 
Q 2328 2753 2575 2939 
Q 2822 3125 2822 3475 
Q 2822 3834 2567 4026 
Q 2313 4219 1838 4219 
Q 1578 4219 1281 4162 
Q 984 4106 628 3988 
L 628 4550 
Q 988 4650 1302 4700 
Q 1616 4750 1894 4750 
Q 2613 4750 3031 4423 
Q 3450 4097 3450 3541 
Q 3450 3153 3228 2886 
Q 3006 2619 2597 2516 
z
" transform="scale(0.015625)"/>
       </defs>
       <use xlink:href="#DejaVuSans-33"/>
      </g>
     </g>
    </g>
    <g id="xtick_5">
     <g id="line2d_5">
      <g>
       <use xlink:href="#mbd7b6650a2" x="333.816347" y="307.584" style="stroke: #000000; stroke-width: 0.8"/>
      </g>
     </g>
     <g id="text_5">
      <!-- 4 -->
      <g transform="translate(330.635097 322.182437) scale(0.1 -0.1)">
       <defs>
        <path id="DejaVuSans-34" d="M 2419 4116 
L 825 1625 
L 2419 1625 
L 2419 4116 
z
M 2253 4666 
L 3047 4666 
L 3047 1625 
L 3713 1625 
L 3713 1100 
L 3047 1100 
L 3047 0 
L 2419 0 
L 2419 1100 
L 313 1100 
L 313 1709 
L 2253 4666 
z
" transform="scale(0.015625)"/>
       </defs>
       <use xlink:href="#DejaVuSans-34"/>
      </g>
     </g>
    </g>
    <g id="xtick_6">
     <g id="line2d_6">
      <g>
       <use xlink:href="#mbd7b6650a2" x="398.812252" y="307.584" style="stroke: #000000; stroke-width: 0.8"/>
      </g>
     </g>
     <g id="text_6">
      <!-- 5 -->
      <g transform="translate(395.631002 322.182437) scale(0.1 -0.1)">
       <defs>
        <path id="DejaVuSans-35" d="M 691 4666 
L 3169 4666 
L 3169 4134 
L 1269 4134 
L 1269 2991 
Q 1406 3038 1543 3061 
Q 1681 3084 1819 3084 
Q 2600 3084 3056 2656 
Q 3513 2228 3513 1497 
Q 3513 744 3044 326 
Q 2575 -91 1722 -91 
Q 1428 -91 1123 -41 
Q 819 9 494 109 
L 494 744 
Q 775 591 1075 516 
Q 1375 441 1709 441 
Q 2250 441 2565 725 
Q 2881 1009 2881 1497 
Q 2881 1984 2565 2268 
Q 2250 2553 1709 2553 
Q 1456 2553 1204 2497 
Q 953 2441 691 2322 
L 691 4666 
z
" transform="scale(0.015625)"/>
       </defs>
       <use xlink:href="#DejaVuSans-35"/>
      </g>
     </g>
    </g>
    <g id="text_7">
     <!-- 1e−7 -->
     <g transform="translate(387.462188 334.860562) scale(0.1 -0.1)">
      <defs>
       <path id="DejaVuSans-65" d="M 3597 1894 
L 3597 1613 
L 953 1613 
Q 991 1019 1311 708 
Q 1631 397 2203 397 
Q 2534 397 2845 478 
Q 3156 559 3463 722 
L 3463 178 
Q 3153 47 2828 -22 
Q 2503 -91 2169 -91 
Q 1331 -91 842 396 
Q 353 884 353 1716 
Q 353 2575 817 3079 
Q 1281 3584 2069 3584 
Q 2775 3584 3186 3129 
Q 3597 2675 3597 1894 
z
M 3022 2063 
Q 3016 2534 2758 2815 
Q 2500 3097 2075 3097 
Q 1594 3097 1305 2825 
Q 1016 2553 972 2059 
L 3022 2063 
z
" transform="scale(0.015625)"/>
       <path id="DejaVuSans-2212" d="M 678 2272 
L 4684 2272 
L 4684 1741 
L 678 1741 
L 678 2272 
z
" transform="scale(0.015625)"/>
       <path id="DejaVuSans-37" d="M 525 4666 
L 3525 4666 
L 3525 4397 
L 1831 0 
L 1172 0 
L 2766 4134 
L 525 4134 
L 525 4666 
z
" transform="scale(0.015625)"/>
      </defs>
      <use xlink:href="#DejaVuSans-31"/>
      <use xlink:href="#DejaVuSans-65" transform="translate(63.623047 0)"/>
      <use xlink:href="#DejaVuSans-2212" transform="translate(125.146484 0)"/>
      <use xlink:href="#DejaVuSans-37" transform="translate(208.935547 0)"/>
     </g>
    </g>
   </g>
   <g id="matplotlib.axis_2">
    <g id="ytick_1">
     <g id="line2d_7">
      <defs>
       <path id="me1feb16d9b" d="M 0 0 
L -3.5 0 
" style="stroke: #000000; stroke-width: 0.8"/>
      </defs>
      <g>
       <use xlink:href="#me1feb16d9b" x="57.6" y="282.340191" style="stroke: #000000; stroke-width: 0.8"/>
      </g>
     </g>
     <g id="text_8">
      <!-- 0 -->
      <g transform="translate(44.2375 286.13941) scale(0.1 -0.1)">
       <use xlink:href="#DejaVuSans-30"/>
      </g>
     </g>
    </g>
    <g id="ytick_2">
     <g id="line2d_8">
      <g>
       <use xlink:href="#me1feb16d9b" x="57.6" y="240.267143" style="stroke: #000000; stroke-width: 0.8"/>
      </g>
     </g>
     <g id="text_9">
      <!-- 10 -->
      <g transform="translate(37.875 244.066362) scale(0.1 -0.1)">
       <use xlink:href="#DejaVuSans-31"/>
       <use xlink:href="#DejaVuSans-30" transform="translate(63.623047 0)"/>
      </g>
     </g>
    </g>
    <g id="ytick_3">
     <g id="line2d_9">
      <g>
       <use xlink:href="#me1feb16d9b" x="57.6" y="198.194096" style="stroke: #000000; stroke-width: 0.8"/>
      </g>
     </g>
     <g id="text_10">
      <!-- 20 -->
      <g transform="translate(37.875 201.993314) scale(0.1 -0.1)">
       <use xlink:href="#DejaVuSans-32"/>
       <use xlink:href="#DejaVuSans-30" transform="translate(63.623047 0)"/>
      </g>
     </g>
    </g>
    <g id="ytick_4">
     <g id="line2d_10">
      <g>
       <use xlink:href="#me1feb16d9b" x="57.6" y="156.121048" style="stroke: #000000; stroke-width: 0.8"/>
      </g>
     </g>
     <g id="text_11">
      <!-- 30 -->
      <g transform="translate(37.875 159.920267) scale(0.1 -0.1)">
       <use xlink:href="#DejaVuSans-33"/>
       <use xlink:href="#DejaVuSans-30" transform="translate(63.623047 0)"/>
      </g>
     </g>
    </g>
    <g id="ytick_5">
     <g id="line2d_11">
      <g>
       <use xlink:href="#me1feb16d9b" x="57.6" y="114.048" style="stroke: #000000; stroke-width: 0.8"/>
      </g>
     </g>
     <g id="text_12">
      <!-- 40 -->
      <g transform="translate(37.875 117.847219) scale(0.1 -0.1)">
       <use xlink:href="#DejaVuSans-34"/>
       <use xlink:href="#DejaVuSans-30" transform="translate(63.623047 0)"/>
      </g>
     </g>
    </g>
    <g id="ytick_6">
     <g id="line2d_12">
      <g>
       <use xlink:href="#me1feb16d9b" x="57.6" y="71.974952" style="stroke: #000000; stroke-width: 0.8"/>
      </g>
     </g>
     <g id="text_13">
      <!-- 50 -->
      <g transform="translate(37.875 75.774171) scale(0.1 -0.1)">
       <use xlink:href="#DejaVuSans-35"/>
       <use xlink:href="#DejaVuSans-30" transform="translate(63.623047 0)"/>
      </g>
     </g>
    </g>
   </g>
   <g id="line2d_13">
    <path d="M 73.832727 261.829583 
L 74.157707 261.829583 
L 74.482686 261.566627 
L 74.807666 261.040714 
L 75.132645 260.777757 
L 75.457625 261.040714 
L 75.782604 261.566627 
L 76.107584 261.829583 
L 76.757543 261.829583 
L 77.082523 261.566627 
L 77.407502 261.829583 
L 77.732482 261.566627 
L 78.382441 261.566627 
L 78.70742 261.30367 
L 79.0324 261.829583 
L 79.357379 261.829583 
L 79.682359 261.566627 
L 80.657297 261.566627 
L 80.982277 262.09254 
L 81.307256 262.09254 
L 81.632236 261.566627 
L 82.607174 261.566627 
L 82.932154 261.829583 
L 83.257133 261.30367 
L 83.582113 261.566627 
L 83.907093 261.566627 
L 84.232072 261.829583 
L 84.557052 261.829583 
L 84.882031 262.09254 
L 85.207011 261.566627 
L 85.53199 261.30367 
L 85.85697 261.829583 
L 86.181949 263.670279 
L 86.831908 270.507148 
L 87.481867 270.507148 
L 87.806847 272.610801 
L 89.431744 286.810453 
L 90.081704 289.440018 
L 91.056642 290.228888 
L 91.381622 289.440018 
L 91.706601 287.862279 
L 92.68154 281.025409 
L 93.006519 280.499496 
L 93.331499 280.499496 
L 93.656478 280.23654 
L 94.306437 278.921757 
L 94.631417 279.184714 
L 94.956396 279.973583 
L 95.281376 281.288366 
L 95.606355 281.551322 
L 95.931335 281.025409 
L 96.256314 281.025409 
L 96.906274 283.917931 
L 97.231253 285.49567 
L 97.556233 285.232714 
L 98.206192 282.340192 
L 98.531171 282.603148 
L 98.856151 283.917931 
L 99.18113 284.443844 
L 99.50611 283.654975 
L 100.156069 281.025409 
L 100.481048 281.551322 
L 101.131007 282.866105 
L 101.780966 281.288366 
L 102.105946 281.288366 
L 102.755905 283.654975 
L 103.080885 283.392018 
L 103.730844 281.551322 
L 104.055823 281.814279 
L 104.705782 284.180888 
L 105.030762 283.917931 
L 105.355741 282.603148 
L 105.680721 281.814279 
L 106.33068 282.866105 
L 106.655659 283.129061 
L 106.980639 282.340192 
L 107.305618 282.340192 
L 107.630598 282.866105 
L 107.955577 283.129061 
L 108.280557 282.866105 
L 108.605536 282.077235 
L 108.930516 281.814279 
L 109.255495 282.340192 
L 109.580475 283.129061 
L 109.905455 283.392018 
L 110.230434 283.129061 
L 110.555414 282.603148 
L 110.880393 282.340192 
L 111.205373 282.603148 
L 111.530352 283.129061 
L 111.855332 283.129061 
L 112.180311 282.603148 
L 112.505291 282.603148 
L 112.83027 283.129061 
L 113.15525 283.129061 
L 113.480229 282.866105 
L 113.805209 282.340192 
L 114.130188 282.077235 
L 114.455168 282.340192 
L 114.780147 282.866105 
L 115.105127 282.866105 
L 115.430106 282.603148 
L 116.080066 282.603148 
L 116.730025 282.077235 
L 117.055004 282.077235 
L 117.704963 283.129061 
L 118.029943 283.392018 
L 118.679902 282.340192 
L 119.004881 282.340192 
L 119.65484 282.866105 
L 119.97982 282.866105 
L 120.304799 282.603148 
L 120.954758 282.603148 
L 121.279738 283.129061 
L 121.604717 282.603148 
L 122.254676 282.077235 
L 122.579656 282.340192 
L 122.904636 283.129061 
L 123.879574 282.340192 
L 124.204554 282.340192 
L 124.529533 282.866105 
L 124.854513 282.603148 
L 125.179492 282.866105 
L 125.504472 282.340192 
L 125.829451 282.603148 
L 126.154431 282.603148 
L 126.47941 283.129061 
L 126.80439 282.603148 
L 127.129369 282.340192 
L 127.454349 282.340192 
L 127.779328 282.603148 
L 128.104308 283.129061 
L 128.429287 283.129061 
L 128.754267 282.866105 
L 129.079247 282.866105 
L 129.404226 282.603148 
L 129.729206 282.603148 
L 130.054185 282.340192 
L 130.704144 282.340192 
L 131.029124 282.866105 
L 131.354103 282.603148 
L 131.679083 283.129061 
L 132.004062 282.603148 
L 132.329042 281.814279 
L 132.654021 282.603148 
L 132.979001 282.603148 
L 133.30398 283.129061 
L 133.62896 282.866105 
L 133.953939 282.340192 
L 134.278919 282.603148 
L 135.253857 282.603148 
L 135.578837 282.866105 
L 135.903817 282.603148 
L 136.228796 283.129061 
L 137.203735 282.340192 
L 137.853694 282.866105 
L 138.178673 282.866105 
L 138.503653 282.603148 
L 139.153612 282.603148 
L 139.803571 283.129061 
L 140.12855 283.129061 
L 140.45353 282.603148 
L 140.778509 282.340192 
L 141.428468 282.866105 
L 141.753448 282.866105 
L 142.078428 282.603148 
L 142.403407 282.603148 
L 142.728387 282.866105 
L 143.053366 282.866105 
L 143.378346 283.129061 
L 143.703325 282.603148 
L 144.028305 282.340192 
L 144.353284 282.866105 
L 145.003243 283.392018 
L 145.328223 283.129061 
L 145.653202 282.340192 
L 145.978182 282.340192 
L 146.303161 282.603148 
L 146.628141 283.129061 
L 147.603079 283.917931 
L 148.253038 283.917931 
L 148.578018 283.392018 
L 150.202916 277.869931 
L 151.502834 271.033061 
L 152.477772 266.036888 
L 153.452711 263.407322 
L 153.77769 262.355496 
L 154.10267 261.829583 
L 154.427649 261.566627 
L 154.752629 261.829583 
L 155.077609 261.566627 
L 155.402588 260.514801 
L 155.727568 259.988888 
L 156.052547 259.725931 
L 156.377527 260.514801 
L 156.702506 260.251844 
L 157.677445 260.251844 
L 158.002424 260.777757 
L 158.652383 261.30367 
L 159.302342 261.30367 
L 159.627322 261.566627 
L 159.952301 262.09254 
L 160.277281 262.355496 
L 160.92724 261.30367 
L 161.577199 262.355496 
L 161.902179 262.09254 
L 162.227158 262.09254 
L 162.552138 261.566627 
L 162.877117 261.829583 
L 163.202097 262.355496 
L 163.527076 262.355496 
L 164.177035 261.829583 
L 164.826994 261.829583 
L 165.151974 262.355496 
L 165.476953 262.09254 
L 165.801933 261.566627 
L 166.126912 261.30367 
L 166.451892 261.30367 
L 166.776871 261.829583 
L 167.101851 261.30367 
L 168.07679 261.30367 
L 168.401769 261.566627 
L 168.726749 261.566627 
L 169.051728 261.30367 
L 169.376708 261.30367 
L 169.701687 261.829583 
L 170.676626 261.829583 
L 171.001605 261.30367 
L 171.326585 261.30367 
L 171.651564 261.566627 
L 171.976544 262.355496 
L 172.301523 261.829583 
L 172.626503 261.829583 
L 172.951482 261.566627 
L 173.926421 261.566627 
L 174.2514 261.30367 
L 174.57638 261.30367 
L 174.90136 261.829583 
L 175.226339 261.566627 
L 175.551319 261.829583 
L 175.876298 261.566627 
L 176.201278 261.566627 
L 176.526257 261.829583 
L 176.851237 261.829583 
L 177.176216 262.09254 
L 177.501196 261.30367 
L 177.826175 261.040714 
L 178.151155 261.30367 
L 178.476134 261.30367 
L 178.801114 261.566627 
L 180.426011 261.566627 
L 180.750991 261.829583 
L 181.075971 261.566627 
L 181.40095 261.566627 
L 181.72593 261.829583 
L 182.050909 263.407322 
L 182.700868 270.507148 
L 183.025848 270.770105 
L 183.350827 270.770105 
L 183.675807 272.347844 
L 185.300704 286.547496 
L 185.625684 288.388192 
L 185.950663 289.440018 
L 186.275643 289.702975 
L 186.600622 289.702975 
L 186.925602 290.228888 
L 187.250581 289.440018 
L 187.575561 287.862279 
L 188.22552 282.603148 
L 188.5505 281.025409 
L 188.875479 280.23654 
L 189.200459 280.23654 
L 189.525438 279.973583 
L 190.175397 278.658801 
L 190.500377 278.921757 
L 191.150336 281.288366 
L 191.475315 281.551322 
L 192.125274 281.025409 
L 192.450254 281.814279 
L 192.775233 284.443844 
L 193.100213 285.232714 
L 193.425192 284.969757 
L 194.075152 282.340192 
L 194.400131 282.603148 
L 194.725111 283.917931 
L 195.05009 284.443844 
L 195.37507 283.654975 
L 195.700049 282.077235 
L 196.025029 281.288366 
L 196.350008 281.551322 
L 196.999967 282.866105 
L 197.649926 281.025409 
L 197.974906 281.288366 
L 198.624865 283.654975 
L 198.949844 283.392018 
L 199.599803 281.288366 
L 199.924783 281.814279 
L 200.249762 283.129061 
L 200.574742 283.917931 
L 200.899722 283.654975 
L 201.549681 282.340192 
L 201.87466 282.603148 
L 202.19964 283.129061 
L 202.524619 283.129061 
L 202.849599 282.340192 
L 203.174578 282.340192 
L 203.499558 282.866105 
L 203.824537 283.129061 
L 204.474496 282.077235 
L 204.799476 281.814279 
L 205.124455 282.077235 
L 205.449435 283.129061 
L 205.774414 283.392018 
L 206.099394 282.866105 
L 206.424373 282.077235 
L 206.749353 282.340192 
L 207.074333 282.866105 
L 207.399312 283.129061 
L 207.724292 282.603148 
L 208.049271 282.340192 
L 208.374251 282.866105 
L 208.69923 282.866105 
L 209.02421 283.392018 
L 209.349189 282.340192 
L 209.674169 282.077235 
L 209.999148 282.077235 
L 210.324128 282.603148 
L 210.649107 282.866105 
L 210.974087 282.603148 
L 211.949025 282.603148 
L 212.274005 282.866105 
L 212.598984 282.340192 
L 212.923964 282.603148 
L 213.248943 282.340192 
L 213.573923 283.129061 
L 213.898903 283.129061 
L 214.223882 282.866105 
L 214.548862 282.077235 
L 214.873841 282.077235 
L 215.198821 282.340192 
L 215.5238 282.866105 
L 215.84878 282.866105 
L 216.173759 282.340192 
L 216.498739 282.340192 
L 217.148698 282.866105 
L 217.473677 282.866105 
L 217.798657 282.340192 
L 218.123636 282.077235 
L 218.448616 282.077235 
L 218.773595 282.866105 
L 219.098575 282.866105 
L 220.073514 282.077235 
L 220.398493 282.603148 
L 220.723473 282.866105 
L 221.048452 282.603148 
L 221.373432 282.077235 
L 221.698411 282.340192 
L 222.023391 282.866105 
L 222.34837 283.129061 
L 222.67335 282.866105 
L 222.998329 282.340192 
L 223.323309 282.077235 
L 223.973268 283.129061 
L 224.298247 283.129061 
L 224.948206 282.603148 
L 225.273186 282.603148 
L 225.598165 282.340192 
L 226.573104 282.340192 
L 227.223063 282.866105 
L 227.548043 282.866105 
L 227.873022 282.603148 
L 228.198002 282.077235 
L 228.847961 282.603148 
L 229.17294 283.129061 
L 229.49792 282.603148 
L 229.822899 282.603148 
L 230.147879 282.077235 
L 231.122817 282.866105 
L 231.772776 282.340192 
L 232.097756 282.866105 
L 232.422735 283.129061 
L 232.747715 282.866105 
L 233.072695 282.340192 
L 233.397674 282.340192 
L 233.722654 282.603148 
L 234.047633 282.340192 
L 234.372613 282.603148 
L 235.347551 282.603148 
L 235.672531 282.866105 
L 235.99751 282.866105 
L 236.647469 282.340192 
L 236.972449 282.340192 
L 237.622408 282.866105 
L 237.947387 282.866105 
L 238.272367 282.603148 
L 238.922326 283.129061 
L 239.247305 282.603148 
L 239.572285 282.866105 
L 239.897265 282.603148 
L 240.222244 282.866105 
L 240.547224 282.866105 
L 240.872203 283.129061 
L 241.197183 282.866105 
L 241.522162 282.340192 
L 242.172121 282.340192 
L 242.82208 283.392018 
L 243.14706 283.654975 
L 243.472039 283.654975 
L 243.797019 283.917931 
L 244.121998 283.654975 
L 244.446978 283.129061 
L 244.771957 282.340192 
L 245.096937 280.762453 
L 245.421916 280.23654 
L 246.071876 277.869931 
L 247.046814 272.610801 
L 248.346732 265.773931 
L 248.671712 265.248018 
L 249.321671 263.407322 
L 249.64665 262.09254 
L 249.97163 261.829583 
L 250.296609 261.30367 
L 250.621589 261.566627 
L 250.946568 261.30367 
L 251.596527 259.725931 
L 251.921507 259.462975 
L 252.246486 259.988888 
L 252.896446 260.514801 
L 253.221425 259.725931 
L 253.546405 259.988888 
L 254.196364 261.30367 
L 254.846323 260.777757 
L 255.171302 261.30367 
L 255.496282 261.30367 
L 255.821261 262.09254 
L 256.146241 262.09254 
L 256.7962 261.566627 
L 257.446159 262.618453 
L 258.421097 261.829583 
L 259.071057 262.355496 
L 259.396036 262.355496 
L 260.045995 261.829583 
L 260.370975 261.829583 
L 260.695954 262.09254 
L 261.020934 262.09254 
L 261.995872 261.30367 
L 262.320852 261.30367 
L 262.645831 261.829583 
L 262.970811 261.566627 
L 263.29579 261.566627 
L 263.62077 261.30367 
L 264.270729 261.829583 
L 265.245667 261.040714 
L 265.570647 261.829583 
L 266.220606 261.829583 
L 266.870565 260.777757 
L 267.195545 261.30367 
L 267.520524 261.566627 
L 267.845504 262.09254 
L 268.170483 262.09254 
L 268.820442 261.566627 
L 269.470401 262.09254 
L 269.795381 261.566627 
L 270.44534 261.040714 
L 270.770319 261.829583 
L 271.095299 261.566627 
L 272.070238 261.566627 
L 272.395217 261.829583 
L 272.720197 262.355496 
L 273.045176 262.09254 
L 273.370156 261.566627 
L 273.695135 261.30367 
L 274.020115 261.30367 
L 274.345094 261.566627 
L 274.670074 262.09254 
L 274.995053 261.829583 
L 275.320033 261.30367 
L 275.969992 261.829583 
L 276.294971 261.829583 
L 276.619951 262.09254 
L 276.94493 261.566627 
L 277.26991 261.30367 
L 277.594889 261.566627 
L 277.919869 263.670279 
L 278.569828 270.770105 
L 278.894808 270.770105 
L 279.219787 270.507148 
L 279.544767 272.610801 
L 280.844685 284.180888 
L 281.169664 286.810453 
L 281.494644 288.388192 
L 281.819623 289.177061 
L 282.144603 289.440018 
L 282.469582 289.965931 
L 282.794562 289.965931 
L 283.119541 289.440018 
L 283.7695 285.232714 
L 284.09448 282.340192 
L 284.419459 280.762453 
L 284.744439 280.499496 
L 285.069419 280.499496 
L 285.394398 279.973583 
L 286.044357 278.658801 
L 286.369337 279.184714 
L 286.694316 279.973583 
L 287.019296 281.288366 
L 287.344275 281.288366 
L 287.669255 281.025409 
L 287.994234 281.025409 
L 288.319214 282.077235 
L 288.644193 284.180888 
L 288.969173 285.232714 
L 289.294152 284.706801 
L 289.944111 282.340192 
L 290.269091 282.866105 
L 290.59407 283.917931 
L 290.91905 284.443844 
L 291.893989 281.288366 
L 292.218968 281.551322 
L 292.868927 282.866105 
L 293.518886 281.288366 
L 293.843866 281.288366 
L 294.493825 283.654975 
L 294.818804 283.129061 
L 295.468763 281.551322 
L 296.443702 283.917931 
L 296.768681 283.917931 
L 297.41864 282.077235 
L 298.0686 283.129061 
L 298.393579 283.129061 
L 298.718559 282.340192 
L 299.043538 282.077235 
L 299.693497 283.129061 
L 300.018477 282.603148 
L 300.343456 281.814279 
L 300.668436 281.814279 
L 301.643374 283.392018 
L 302.293333 282.340192 
L 302.943292 282.340192 
L 303.268272 282.866105 
L 303.918231 282.340192 
L 304.24321 282.866105 
L 304.56819 282.603148 
L 304.89317 282.866105 
L 305.218149 282.603148 
L 305.543129 282.077235 
L 305.868108 282.340192 
L 306.193088 282.340192 
L 306.518067 282.603148 
L 307.168026 282.603148 
L 307.493006 282.340192 
L 307.817985 282.603148 
L 308.142965 282.340192 
L 308.792924 282.340192 
L 309.767862 283.129061 
L 310.092842 282.866105 
L 310.417821 282.077235 
L 310.742801 281.814279 
L 311.39276 282.866105 
L 311.71774 283.129061 
L 312.042719 282.340192 
L 312.367699 282.603148 
L 312.692678 282.603148 
L 313.017658 282.866105 
L 313.342637 282.603148 
L 313.667617 282.077235 
L 313.992596 281.814279 
L 314.317576 282.077235 
L 314.642555 282.866105 
L 314.967535 282.866105 
L 315.292514 282.340192 
L 315.617494 282.077235 
L 315.942473 282.340192 
L 316.267453 282.866105 
L 316.592432 283.129061 
L 317.242391 282.077235 
L 317.567371 282.340192 
L 317.892351 283.129061 
L 318.21733 283.129061 
L 318.867289 282.077235 
L 319.192269 282.077235 
L 319.517248 282.603148 
L 320.167207 283.129061 
L 320.817166 282.603148 
L 321.142146 282.603148 
L 321.467125 282.340192 
L 321.792105 282.340192 
L 322.117084 282.077235 
L 322.442064 282.077235 
L 322.767043 282.340192 
L 323.092023 282.866105 
L 323.417002 282.603148 
L 323.741982 282.603148 
L 324.066962 282.340192 
L 324.391941 282.340192 
L 325.0419 282.866105 
L 325.36688 282.866105 
L 326.016839 282.340192 
L 326.341818 282.340192 
L 326.666798 282.866105 
L 326.991777 282.603148 
L 327.641736 282.603148 
L 327.966716 283.129061 
L 328.616675 283.129061 
L 328.941654 282.603148 
L 329.266634 282.340192 
L 329.591613 282.603148 
L 329.916593 282.603148 
L 330.241572 282.866105 
L 330.566552 282.340192 
L 330.891532 282.340192 
L 331.216511 282.866105 
L 331.541491 282.866105 
L 331.86647 283.129061 
L 332.19145 282.603148 
L 332.516429 282.603148 
L 332.841409 282.077235 
L 333.166388 282.866105 
L 333.816347 282.866105 
L 334.141327 282.603148 
L 334.466306 282.866105 
L 335.441245 282.866105 
L 335.766224 282.340192 
L 336.091204 282.603148 
L 336.416183 283.129061 
L 336.741163 283.392018 
L 337.066143 283.129061 
L 337.391122 282.603148 
L 337.716102 282.340192 
L 338.041081 282.340192 
L 338.366061 283.129061 
L 338.69104 283.129061 
L 339.01602 283.654975 
L 339.340999 283.654975 
L 339.665979 283.917931 
L 339.990958 283.917931 
L 340.315938 283.129061 
L 340.965897 280.499496 
L 341.290876 279.973583 
L 341.940835 278.132888 
L 344.215692 265.773931 
L 344.540672 264.722105 
L 344.865651 264.196192 
L 346.165569 261.30367 
L 346.490549 261.829583 
L 346.815528 261.30367 
L 347.465487 259.988888 
L 347.790467 259.462975 
L 348.115446 259.988888 
L 348.765405 260.514801 
L 349.090385 259.725931 
L 349.740344 260.777757 
L 350.065324 260.777757 
L 350.390303 261.040714 
L 350.715283 260.777757 
L 351.365242 261.30367 
L 351.690221 262.09254 
L 352.015201 261.829583 
L 352.34018 261.829583 
L 352.66516 261.566627 
L 353.315119 262.09254 
L 353.640098 262.09254 
L 353.965078 262.355496 
L 354.290057 261.566627 
L 354.615037 262.09254 
L 355.264996 262.618453 
L 355.589975 262.09254 
L 355.914955 261.829583 
L 356.239934 261.829583 
L 356.889894 262.355496 
L 357.214873 262.09254 
L 357.539853 261.566627 
L 359.16475 261.566627 
L 359.48973 261.040714 
L 359.814709 261.566627 
L 360.139689 261.30367 
L 361.114627 261.30367 
L 361.439607 261.829583 
L 361.764586 262.09254 
L 362.089566 261.829583 
L 362.414545 261.30367 
L 362.739525 261.040714 
L 363.714464 261.829583 
L 364.039443 261.566627 
L 364.364423 261.829583 
L 364.689402 261.566627 
L 365.014382 261.829583 
L 365.339361 261.566627 
L 365.98932 261.566627 
L 366.3143 261.30367 
L 366.964259 261.829583 
L 367.289238 261.829583 
L 367.614218 261.30367 
L 368.589156 262.09254 
L 368.914136 261.829583 
L 369.239115 261.30367 
L 369.564095 261.566627 
L 369.889075 261.30367 
L 370.214054 261.566627 
L 370.539034 261.566627 
L 370.864013 261.829583 
L 371.188993 261.30367 
L 371.513972 261.30367 
L 371.838952 261.829583 
L 372.488911 261.829583 
L 372.81389 261.566627 
L 373.13887 261.566627 
L 373.463849 261.829583 
L 373.788829 263.407322 
L 374.438788 270.244192 
L 374.763767 270.770105 
L 375.088747 270.507148 
L 375.413726 272.610801 
L 377.038624 286.547496 
L 377.363604 288.388192 
L 377.688583 289.440018 
L 378.663522 290.228888 
L 378.988501 289.702975 
L 379.313481 287.862279 
L 379.96344 282.603148 
L 380.288419 280.762453 
L 381.263358 279.973583 
L 381.913317 278.658801 
L 382.238296 278.921757 
L 382.888256 281.288366 
L 383.213235 281.551322 
L 383.538215 281.025409 
L 383.863194 281.288366 
L 384.188174 282.340192 
L 384.513153 284.180888 
L 384.838133 285.232714 
L 385.163112 284.969757 
L 385.488092 283.392018 
L 385.813071 282.603148 
L 386.138051 282.603148 
L 386.46303 283.917931 
L 386.78801 284.443844 
L 387.112989 283.654975 
L 387.762948 280.762453 
L 388.737887 282.866105 
L 389.062867 282.340192 
L 389.387846 281.288366 
L 389.712826 281.288366 
L 390.362785 283.654975 
L 390.687764 283.392018 
L 391.337723 281.288366 
L 391.662703 282.077235 
L 391.987682 283.392018 
L 392.312662 283.917931 
L 392.637641 283.917931 
L 392.962621 282.603148 
L 393.2876 282.077235 
L 393.61258 282.340192 
L 393.937559 282.866105 
L 394.262539 283.129061 
L 394.587518 282.340192 
L 394.912498 282.340192 
L 395.237477 282.603148 
L 395.562457 283.129061 
L 395.887437 282.603148 
L 396.212416 281.814279 
L 396.537396 281.551322 
L 397.187355 282.866105 
L 397.512334 283.129061 
L 397.837314 282.866105 
L 398.162293 282.340192 
L 398.487273 282.340192 
L 398.487273 282.340192 
" clip-path="url(#p5781573144)" style="fill: none; stroke: #1f77b4; stroke-width: 1.5; stroke-linecap: square"/>
   </g>
   <g id="line2d_14">
    <path d="M 73.832727 283.129061 
L 74.482686 282.077235 
L 74.807666 282.340192 
L 75.132645 282.866105 
L 75.782604 282.866105 
L 76.107584 282.603148 
L 76.757543 282.603148 
L 77.082523 282.866105 
L 77.407502 282.603148 
L 78.057461 282.603148 
L 78.382441 282.340192 
L 78.70742 283.129061 
L 79.0324 283.129061 
L 79.357379 282.603148 
L 80.007338 282.603148 
L 80.657297 283.129061 
L 81.307256 282.603148 
L 81.957215 282.603148 
L 82.282195 283.129061 
L 82.607174 282.866105 
L 82.932154 282.866105 
L 83.582113 282.340192 
L 84.232072 282.866105 
L 84.557052 282.603148 
L 85.207011 282.603148 
L 85.53199 282.866105 
L 86.181949 282.866105 
L 86.506929 282.603148 
L 86.831908 282.866105 
L 87.156888 282.603148 
L 87.481867 282.866105 
L 88.131826 282.866105 
L 88.456806 282.603148 
L 88.781785 282.603148 
L 89.431744 283.129061 
L 89.756724 282.603148 
L 90.406683 282.603148 
L 91.056642 283.129061 
L 91.706601 282.603148 
L 92.35656 282.603148 
L 92.68154 282.866105 
L 93.331499 282.866105 
L 93.981458 282.340192 
L 94.306437 282.866105 
L 94.631417 282.866105 
L 94.956396 282.603148 
L 95.281376 282.866105 
L 95.606355 282.603148 
L 95.931335 282.866105 
L 96.906274 282.866105 
L 97.231253 282.603148 
L 97.556233 282.866105 
L 98.531171 282.866105 
L 98.856151 282.603148 
L 99.18113 282.603148 
L 99.50611 283.129061 
L 99.831089 283.129061 
L 100.156069 282.866105 
L 101.131007 282.866105 
L 101.780966 283.392018 
L 102.105946 283.392018 
L 102.430925 283.129061 
L 103.730844 283.129061 
L 104.055823 283.392018 
L 104.380803 283.392018 
L 104.705782 283.917931 
L 105.355741 283.917931 
L 105.680721 284.443844 
L 106.0057 284.706801 
L 106.33068 284.180888 
L 106.655659 283.129061 
L 107.305618 279.184714 
L 107.955577 273.925583 
L 108.605536 267.877583 
L 109.255495 264.722105 
L 110.555414 260.777757 
L 110.880393 260.251844 
L 111.530352 259.725931 
L 111.855332 258.937061 
L 112.505291 258.411148 
L 112.83027 258.411148 
L 113.15525 258.937061 
L 113.480229 258.674105 
L 113.805209 258.674105 
L 114.130188 258.937061 
L 114.780147 260.251844 
L 115.105127 260.777757 
L 115.430106 261.040714 
L 115.755086 261.040714 
L 116.405045 262.09254 
L 116.730025 262.355496 
L 117.055004 262.09254 
L 117.379984 262.09254 
L 117.704963 262.355496 
L 118.029943 262.881409 
L 119.329861 262.881409 
L 119.65484 263.144366 
L 119.97982 262.881409 
L 120.304799 262.881409 
L 120.629779 262.355496 
L 120.954758 262.09254 
L 121.929697 262.09254 
L 122.254676 261.829583 
L 122.579656 261.30367 
L 122.904636 261.829583 
L 123.229615 261.829583 
L 123.554595 261.566627 
L 123.879574 261.566627 
L 124.204554 261.040714 
L 124.529533 261.040714 
L 124.854513 261.30367 
L 125.179492 261.040714 
L 125.504472 261.040714 
L 125.829451 261.30367 
L 126.154431 261.040714 
L 126.47941 261.829583 
L 126.80439 261.829583 
L 127.129369 261.566627 
L 127.779328 261.566627 
L 128.104308 261.829583 
L 128.429287 261.829583 
L 128.754267 261.566627 
L 129.079247 261.566627 
L 129.404226 261.040714 
L 129.729206 261.566627 
L 130.054185 261.829583 
L 130.379165 261.829583 
L 130.704144 262.09254 
L 131.029124 261.829583 
L 131.354103 261.829583 
L 131.679083 262.09254 
L 132.004062 261.829583 
L 132.329042 261.829583 
L 132.654021 261.566627 
L 132.979001 261.829583 
L 134.603898 261.829583 
L 134.928878 262.09254 
L 135.253857 262.09254 
L 135.578837 261.829583 
L 135.903817 261.829583 
L 136.228796 261.566627 
L 136.553776 261.566627 
L 136.878755 261.829583 
L 138.178673 261.829583 
L 138.828632 262.355496 
L 139.153612 263.407322 
L 140.778509 271.821931 
L 141.428468 279.710627 
L 142.078428 287.862279 
L 142.403407 290.491844 
L 142.728387 291.806627 
L 143.703325 293.910279 
L 144.028305 293.647322 
L 144.353284 291.806627 
L 145.653202 280.762453 
L 145.978182 280.499496 
L 146.303161 279.973583 
L 146.628141 278.921757 
L 146.95312 277.081061 
L 147.2781 276.292192 
L 147.603079 277.344018 
L 147.928059 279.184714 
L 148.253038 280.23654 
L 148.578018 279.973583 
L 148.902998 279.44767 
L 149.227977 280.499496 
L 149.877936 285.49567 
L 150.202916 285.758627 
L 150.852875 283.129061 
L 151.177854 283.654975 
L 151.502834 286.021583 
L 151.827813 287.073409 
L 152.152793 285.49567 
L 152.477772 283.129061 
L 152.802752 281.814279 
L 153.452711 283.917931 
L 153.77769 283.392018 
L 154.10267 281.551322 
L 154.427649 280.499496 
L 154.752629 281.288366 
L 155.077609 282.866105 
L 155.402588 282.866105 
L 155.727568 281.288366 
L 156.052547 280.499496 
L 156.377527 281.288366 
L 156.702506 283.392018 
L 157.027486 284.706801 
L 157.677445 281.814279 
L 158.002424 281.814279 
L 158.652383 284.443844 
L 158.977363 284.443844 
L 159.302342 283.129061 
L 159.627322 282.340192 
L 159.952301 282.866105 
L 160.277281 283.917931 
L 160.60226 283.917931 
L 161.252219 281.814279 
L 161.577199 282.077235 
L 161.902179 283.392018 
L 162.227158 283.917931 
L 162.877117 281.551322 
L 163.202097 281.288366 
L 163.852056 283.392018 
L 164.177035 283.392018 
L 164.502015 282.866105 
L 164.826994 282.077235 
L 165.151974 282.340192 
L 165.801933 283.654975 
L 166.451892 282.603148 
L 166.776871 282.340192 
L 167.42683 283.654975 
L 168.401769 282.077235 
L 169.051728 283.129061 
L 169.376708 283.392018 
L 170.026667 282.340192 
L 170.351646 282.340192 
L 171.326585 283.129061 
L 171.976544 282.603148 
L 172.301523 282.603148 
L 172.626503 283.129061 
L 172.951482 282.866105 
L 173.276462 282.866105 
L 173.601441 282.603148 
L 173.926421 282.603148 
L 174.2514 282.866105 
L 174.57638 282.866105 
L 174.90136 283.129061 
L 175.226339 282.603148 
L 175.551319 282.340192 
L 175.876298 282.603148 
L 176.201278 282.603148 
L 176.526257 283.129061 
L 177.176216 282.603148 
L 177.501196 282.603148 
L 177.826175 282.866105 
L 178.801114 282.866105 
L 179.126093 282.603148 
L 180.750991 282.603148 
L 181.075971 282.340192 
L 181.40095 282.866105 
L 182.050909 282.866105 
L 182.375889 282.603148 
L 182.700868 282.603148 
L 183.025848 282.866105 
L 183.350827 282.603148 
L 183.675807 282.866105 
L 184.000786 282.603148 
L 184.325766 282.866105 
L 184.650745 282.603148 
L 185.300704 282.603148 
L 185.625684 282.866105 
L 185.950663 282.866105 
L 186.275643 282.603148 
L 186.600622 282.603148 
L 186.925602 282.866105 
L 187.250581 282.603148 
L 188.5505 282.603148 
L 188.875479 282.866105 
L 189.200459 282.866105 
L 189.525438 282.603148 
L 190.825356 282.603148 
L 191.150336 282.866105 
L 191.475315 282.866105 
L 191.800295 282.603148 
L 192.125274 282.866105 
L 193.100213 282.866105 
L 193.425192 283.129061 
L 194.075152 282.603148 
L 194.400131 282.866105 
L 195.37507 282.866105 
L 195.700049 283.129061 
L 196.025029 282.866105 
L 196.350008 283.129061 
L 196.674988 282.866105 
L 196.999967 282.866105 
L 197.649926 283.392018 
L 198.949844 283.392018 
L 199.274824 283.129061 
L 199.599803 283.392018 
L 199.924783 283.392018 
L 200.899722 284.180888 
L 201.224701 284.180888 
L 201.549681 284.443844 
L 201.87466 284.443844 
L 202.19964 284.180888 
L 202.849599 281.551322 
L 203.824537 274.18854 
L 204.474496 268.14054 
L 204.799476 265.773931 
L 206.424373 260.777757 
L 206.749353 260.251844 
L 207.074333 260.251844 
L 208.049271 258.674105 
L 208.374251 258.411148 
L 209.02421 258.937061 
L 209.349189 258.674105 
L 209.674169 258.674105 
L 209.999148 259.200018 
L 210.649107 260.514801 
L 210.974087 260.514801 
L 211.299066 261.040714 
L 211.624046 261.30367 
L 211.949025 261.829583 
L 212.598984 262.355496 
L 213.573923 262.355496 
L 213.898903 263.144366 
L 214.223882 263.407322 
L 214.548862 262.881409 
L 214.873841 262.618453 
L 215.5238 263.144366 
L 215.84878 263.144366 
L 216.173759 262.618453 
L 216.823718 262.09254 
L 217.148698 262.09254 
L 217.473677 262.355496 
L 217.798657 261.829583 
L 218.123636 261.829583 
L 218.448616 261.566627 
L 218.773595 261.566627 
L 219.098575 261.829583 
L 219.423554 261.829583 
L 219.748534 261.040714 
L 220.073514 261.30367 
L 220.723473 261.30367 
L 221.048452 261.040714 
L 221.373432 261.30367 
L 221.698411 261.30367 
L 222.023391 261.566627 
L 222.34837 261.566627 
L 222.67335 261.829583 
L 223.973268 261.829583 
L 224.298247 262.09254 
L 224.623227 261.829583 
L 224.948206 261.30367 
L 225.923145 262.09254 
L 226.248124 261.829583 
L 226.898084 261.829583 
L 227.223063 262.09254 
L 227.873022 262.09254 
L 228.522981 261.566627 
L 228.847961 261.566627 
L 229.17294 261.829583 
L 229.822899 261.829583 
L 230.147879 261.566627 
L 230.472858 261.829583 
L 230.797838 261.829583 
L 231.122817 262.09254 
L 231.772776 261.566627 
L 232.747715 261.566627 
L 233.072695 261.829583 
L 233.722654 261.829583 
L 234.047633 262.09254 
L 234.372613 261.829583 
L 234.697592 262.355496 
L 235.347551 264.722105 
L 236.647469 271.821931 
L 237.297428 279.710627 
L 237.947387 287.862279 
L 238.272367 290.491844 
L 238.922326 292.858453 
L 239.247305 293.384366 
L 239.572285 293.647322 
L 239.897265 293.384366 
L 240.222244 291.54367 
L 241.197183 282.603148 
L 241.522162 281.025409 
L 241.847142 280.762453 
L 242.497101 278.658801 
L 242.82208 277.081061 
L 243.14706 276.292192 
L 243.472039 277.344018 
L 243.797019 279.184714 
L 244.121998 280.23654 
L 244.771957 279.184714 
L 245.096937 280.762453 
L 245.421916 283.654975 
L 245.746896 285.49567 
L 246.071876 285.758627 
L 246.721835 283.129061 
L 247.046814 283.917931 
L 247.371794 285.758627 
L 247.696773 286.810453 
L 248.021753 285.49567 
L 248.346732 282.866105 
L 248.671712 281.551322 
L 249.321671 283.917931 
L 249.64665 283.129061 
L 249.97163 281.288366 
L 250.296609 280.499496 
L 250.621589 281.288366 
L 250.946568 282.603148 
L 251.271548 282.603148 
L 251.921507 280.23654 
L 252.246486 281.288366 
L 252.571466 283.392018 
L 252.896446 284.706801 
L 253.546405 281.814279 
L 253.871384 281.814279 
L 254.521343 284.443844 
L 254.846323 284.443844 
L 255.171302 283.129061 
L 255.496282 282.603148 
L 256.146241 283.654975 
L 256.47122 283.654975 
L 256.7962 282.603148 
L 257.121179 282.077235 
L 257.446159 282.077235 
L 257.771138 283.129061 
L 258.096118 283.392018 
L 258.421097 282.866105 
L 258.746077 281.814279 
L 259.071057 281.288366 
L 259.721016 283.654975 
L 260.045995 283.654975 
L 260.370975 282.603148 
L 260.695954 282.077235 
L 261.020934 282.077235 
L 261.345913 283.129061 
L 261.995872 283.129061 
L 262.320852 282.340192 
L 262.645831 282.340192 
L 262.970811 282.866105 
L 263.29579 283.654975 
L 263.62077 283.129061 
L 263.945749 282.340192 
L 264.270729 282.340192 
L 264.595708 282.603148 
L 265.245667 283.654975 
L 265.895627 282.340192 
L 266.545586 282.340192 
L 266.870565 282.866105 
L 267.520524 282.866105 
L 268.170483 282.340192 
L 268.495463 282.866105 
L 269.145422 282.866105 
L 269.470401 282.603148 
L 269.795381 282.603148 
L 270.12036 282.866105 
L 270.770319 282.866105 
L 271.095299 282.603148 
L 272.070238 282.603148 
L 272.395217 283.129061 
L 272.720197 283.129061 
L 273.045176 282.603148 
L 273.695135 282.603148 
L 274.345094 283.129061 
L 274.995053 282.603148 
L 275.320033 282.603148 
L 275.645012 282.866105 
L 276.294971 282.866105 
L 276.619951 282.603148 
L 276.94493 282.603148 
L 277.26991 282.866105 
L 278.244848 282.866105 
L 278.569828 282.603148 
L 278.894808 282.603148 
L 279.219787 282.866105 
L 279.869746 282.866105 
L 280.194726 282.603148 
L 280.519705 283.129061 
L 280.844685 283.129061 
L 281.169664 282.603148 
L 281.494644 282.866105 
L 281.819623 282.603148 
L 282.469582 282.603148 
L 282.794562 283.129061 
L 283.119541 283.129061 
L 283.7695 282.603148 
L 284.09448 282.603148 
L 284.419459 282.866105 
L 285.069419 282.866105 
L 285.394398 282.603148 
L 285.719378 282.603148 
L 286.044357 282.866105 
L 287.019296 282.866105 
L 287.344275 282.603148 
L 287.669255 282.866105 
L 287.994234 282.866105 
L 288.319214 282.603148 
L 288.969173 282.603148 
L 289.294152 282.866105 
L 289.944111 282.866105 
L 290.269091 282.603148 
L 290.59407 282.603148 
L 291.244029 283.129061 
L 292.218968 283.129061 
L 292.543948 282.866105 
L 293.193907 282.866105 
L 293.518886 283.392018 
L 293.843866 283.129061 
L 294.168845 283.392018 
L 294.493825 283.392018 
L 294.818804 283.129061 
L 295.143784 283.392018 
L 295.468763 283.129061 
L 295.793743 283.129061 
L 296.443702 283.654975 
L 296.768681 283.654975 
L 297.093661 284.180888 
L 297.41864 284.443844 
L 297.74362 284.443844 
L 298.0686 284.180888 
L 298.393579 282.866105 
L 299.043538 279.184714 
L 300.668436 266.036888 
L 301.318395 263.670279 
L 301.643374 262.881409 
L 301.968354 261.30367 
L 302.293333 261.040714 
L 302.618313 260.251844 
L 303.268272 259.725931 
L 303.593251 259.200018 
L 304.24321 258.674105 
L 304.56819 258.674105 
L 304.89317 258.937061 
L 305.218149 258.937061 
L 305.543129 258.674105 
L 306.193088 259.725931 
L 306.518067 260.514801 
L 307.168026 261.040714 
L 307.493006 261.040714 
L 308.142965 262.355496 
L 309.117903 262.355496 
L 310.092842 263.144366 
L 310.742801 262.618453 
L 311.39276 263.144366 
L 311.71774 263.144366 
L 312.042719 262.881409 
L 312.367699 262.355496 
L 312.692678 262.09254 
L 313.667617 262.09254 
L 314.317576 261.566627 
L 314.642555 261.566627 
L 314.967535 261.829583 
L 315.292514 261.829583 
L 316.267453 261.040714 
L 316.917412 261.566627 
L 317.242391 261.040714 
L 317.567371 261.040714 
L 317.892351 261.30367 
L 318.21733 261.829583 
L 318.867289 261.829583 
L 319.192269 261.566627 
L 319.517248 261.829583 
L 319.842228 261.566627 
L 320.167207 261.566627 
L 320.492187 261.829583 
L 320.817166 261.30367 
L 321.142146 261.566627 
L 321.467125 262.09254 
L 321.792105 261.829583 
L 322.117084 262.09254 
L 322.442064 261.829583 
L 323.092023 261.829583 
L 323.417002 262.09254 
L 323.741982 261.566627 
L 324.066962 261.829583 
L 325.691859 261.829583 
L 326.016839 262.09254 
L 326.341818 261.829583 
L 326.666798 262.09254 
L 326.991777 262.09254 
L 327.966716 261.30367 
L 328.291695 261.829583 
L 328.616675 261.829583 
L 328.941654 261.566627 
L 329.266634 261.566627 
L 329.916593 262.09254 
L 330.241572 261.829583 
L 330.566552 262.355496 
L 330.891532 263.144366 
L 331.86647 268.14054 
L 332.19145 269.455322 
L 332.841409 275.503322 
L 333.816347 288.651148 
L 334.466306 291.54367 
L 335.116265 293.910279 
L 335.441245 293.910279 
L 335.766224 293.384366 
L 336.091204 291.54367 
L 337.066143 282.340192 
L 337.391122 281.025409 
L 337.716102 280.762453 
L 338.041081 279.973583 
L 338.69104 276.818105 
L 339.01602 276.292192 
L 339.340999 277.344018 
L 339.665979 279.184714 
L 339.990958 279.973583 
L 340.315938 279.973583 
L 340.640917 279.710627 
L 340.965897 280.499496 
L 341.615856 285.758627 
L 341.940835 285.758627 
L 342.590794 282.866105 
L 342.915774 283.917931 
L 343.240753 286.021583 
L 343.565733 286.810453 
L 343.890713 285.49567 
L 344.215692 282.866105 
L 344.540672 281.814279 
L 345.190631 283.654975 
L 345.51561 283.129061 
L 346.165569 280.499496 
L 346.815528 282.866105 
L 347.140508 282.866105 
L 347.790467 280.23654 
L 348.115446 281.551322 
L 348.440426 283.654975 
L 348.765405 284.443844 
L 349.090385 283.654975 
L 349.415364 282.077235 
L 349.740344 282.077235 
L 350.390303 284.706801 
L 350.715283 284.706801 
L 351.365242 282.340192 
L 351.690221 282.866105 
L 352.015201 284.180888 
L 352.34018 283.917931 
L 352.66516 282.603148 
L 352.990139 281.814279 
L 353.315119 282.077235 
L 353.640098 283.392018 
L 353.965078 283.654975 
L 354.940016 281.288366 
L 355.589975 283.392018 
L 355.914955 283.392018 
L 356.564914 282.077235 
L 356.889894 282.077235 
L 357.214873 283.392018 
L 357.539853 283.392018 
L 357.864832 283.129061 
L 358.189812 282.603148 
L 358.514791 282.603148 
L 358.839771 283.392018 
L 359.16475 283.392018 
L 359.48973 283.129061 
L 360.139689 282.077235 
L 360.464668 282.340192 
L 360.789648 283.392018 
L 361.114627 283.392018 
L 361.439607 283.129061 
L 361.764586 282.340192 
L 362.089566 282.077235 
L 362.414545 282.340192 
L 362.739525 283.129061 
L 363.064505 283.129061 
L 363.714464 282.603148 
L 364.039443 282.603148 
L 364.689402 283.129061 
L 365.339361 282.603148 
L 365.664341 282.603148 
L 366.3143 283.129061 
L 366.964259 282.603148 
L 367.614218 282.603148 
L 368.264177 283.129061 
L 368.589156 282.603148 
L 368.914136 282.603148 
L 369.239115 282.340192 
L 370.214054 283.129061 
L 370.539034 282.603148 
L 371.188993 282.603148 
L 371.513972 282.866105 
L 371.838952 282.866105 
L 372.163931 282.603148 
L 372.81389 282.603148 
L 373.13887 282.866105 
L 373.788829 282.866105 
L 374.113808 282.603148 
L 374.763767 282.603148 
L 375.413726 283.129061 
L 376.063686 282.603148 
L 376.388665 282.866105 
L 377.363604 282.866105 
L 377.688583 282.603148 
L 378.013563 282.603148 
L 378.663522 283.129061 
L 378.988501 282.603148 
L 379.313481 282.866105 
L 379.63846 282.603148 
L 380.288419 283.129061 
L 380.613399 283.129061 
L 380.938378 282.603148 
L 381.263358 282.603148 
L 381.913317 283.129061 
L 382.238296 283.129061 
L 382.563276 282.866105 
L 383.863194 282.866105 
L 384.188174 282.603148 
L 384.513153 282.866105 
L 384.838133 282.866105 
L 385.163112 282.603148 
L 385.488092 283.129061 
L 385.813071 283.129061 
L 386.138051 282.603148 
L 386.46303 282.603148 
L 387.112989 283.129061 
L 387.437969 282.866105 
L 387.762948 282.866105 
L 388.087928 283.129061 
L 388.412907 282.866105 
L 388.737887 283.129061 
L 389.062867 283.129061 
L 389.387846 283.392018 
L 389.712826 283.129061 
L 390.037805 283.392018 
L 390.362785 283.129061 
L 391.337723 283.129061 
L 392.312662 283.917931 
L 392.637641 283.917931 
L 393.2876 284.443844 
L 393.61258 284.443844 
L 393.937559 284.180888 
L 394.587518 281.288366 
L 395.237477 276.555148 
L 396.537396 265.773931 
L 396.862375 264.459148 
L 397.187355 263.933235 
L 398.162293 260.777757 
L 398.487273 260.251844 
L 398.487273 260.251844 
" clip-path="url(#p5781573144)" style="fill: none; stroke: #ff7f0e; stroke-width: 1.5; stroke-linecap: square"/>
   </g>
   <g id="line2d_15">
    <path d="M 73.832727 290.22887 
L 74.157707 295.488 
L 74.482686 292.858435 
L 74.807666 292.858435 
L 75.132645 290.22887 
L 75.782604 290.22887 
L 76.107584 292.858435 
L 76.432563 290.22887 
L 76.757543 290.22887 
L 77.082523 284.969739 
L 77.407502 290.22887 
L 77.732482 292.858435 
L 78.057461 292.858435 
L 78.382441 287.599304 
L 78.70742 290.22887 
L 79.0324 290.22887 
L 79.357379 292.858435 
L 79.682359 290.22887 
L 80.007338 292.858435 
L 80.332318 290.22887 
L 80.657297 290.22887 
L 80.982277 287.599304 
L 81.307256 292.858435 
L 81.957215 292.858435 
L 82.282195 284.969739 
L 82.607174 290.22887 
L 82.932154 292.858435 
L 83.582113 287.599304 
L 83.907093 290.22887 
L 84.232072 290.22887 
L 84.557052 292.858435 
L 85.53199 292.858435 
L 86.181949 287.599304 
L 86.506929 292.858435 
L 86.831908 292.858435 
L 87.481867 287.599304 
L 87.806847 292.858435 
L 88.781785 292.858435 
L 89.106765 290.22887 
L 89.431744 292.858435 
L 89.756724 292.858435 
L 90.406683 287.599304 
L 90.731663 290.22887 
L 91.056642 290.22887 
L 91.381622 287.599304 
L 91.706601 292.858435 
L 92.35656 292.858435 
L 92.68154 287.599304 
L 93.006519 292.858435 
L 93.656478 287.599304 
L 94.306437 269.192348 
L 95.606355 227.119304 
L 95.931335 235.008 
L 96.256314 237.637565 
L 96.581294 232.378435 
L 97.556233 174.528 
L 97.881212 169.26887 
L 98.531171 198.194087 
L 98.856151 195.564522 
L 99.50611 132.454957 
L 99.831089 119.30713 
L 100.481048 148.232348 
L 100.806028 153.491478 
L 101.131007 137.714087 
L 101.455987 111.418435 
L 101.780966 95.641043 
L 102.430925 114.048 
L 102.755905 114.048 
L 103.080885 90.381913 
L 103.405864 85.122783 
L 103.730844 85.122783 
L 104.055823 103.529739 
L 104.380803 106.159304 
L 104.705782 90.381913 
L 105.030762 64.086261 
L 105.355741 56.197565 
L 105.680721 66.715826 
L 106.0057 87.752348 
L 106.33068 95.641043 
L 106.980639 64.086261 
L 107.305618 61.456696 
L 107.630598 66.715826 
L 107.955577 77.234087 
L 108.605536 66.715826 
L 108.930516 66.715826 
L 109.580475 79.863652 
L 109.905455 74.604522 
L 110.555414 61.456696 
L 110.880393 61.456696 
L 111.530352 85.122783 
L 111.855332 85.122783 
L 112.505291 69.345391 
L 112.83027 66.715826 
L 113.15525 77.234087 
L 113.480229 79.863652 
L 113.805209 85.122783 
L 114.130188 82.493217 
L 114.455168 85.122783 
L 114.780147 85.122783 
L 115.105127 82.493217 
L 115.755086 82.493217 
L 116.080066 79.863652 
L 116.730025 90.381913 
L 117.055004 93.011478 
L 118.029943 85.122783 
L 118.679902 85.122783 
L 119.004881 95.641043 
L 119.329861 95.641043 
L 119.97982 90.381913 
L 120.304799 85.122783 
L 120.629779 90.381913 
L 120.954758 90.381913 
L 121.279738 87.752348 
L 121.929697 87.752348 
L 122.254676 90.381913 
L 123.879574 77.234087 
L 124.204554 85.122783 
L 124.854513 85.122783 
L 125.179492 82.493217 
L 125.504472 74.604522 
L 126.80439 74.604522 
L 127.129369 77.234087 
L 127.454349 71.974957 
L 127.779328 71.974957 
L 128.429287 66.715826 
L 128.754267 66.715826 
L 129.079247 64.086261 
L 129.404226 66.715826 
L 129.729206 66.715826 
L 130.054185 69.345391 
L 131.029124 61.456696 
L 131.354103 61.456696 
L 131.679083 58.82713 
L 132.004062 61.456696 
L 132.329042 66.715826 
L 132.654021 66.715826 
L 132.979001 61.456696 
L 133.30398 66.715826 
L 133.62896 64.086261 
L 133.953939 64.086261 
L 134.278919 61.456696 
L 134.603898 66.715826 
L 134.928878 69.345391 
L 135.903817 69.345391 
L 137.203735 79.863652 
L 137.528714 85.122783 
L 137.853694 87.752348 
L 138.178673 85.122783 
L 138.503653 90.381913 
L 138.828632 93.011478 
L 139.153612 100.900174 
L 139.478591 95.641043 
L 139.803571 103.529739 
L 140.12855 106.159304 
L 140.45353 116.677565 
L 140.778509 119.30713 
L 141.103489 119.30713 
L 141.428468 121.936696 
L 141.753448 127.195826 
L 142.078428 127.195826 
L 143.053366 148.232348 
L 143.378346 148.232348 
L 143.703325 156.121043 
L 144.028305 158.750609 
L 144.353284 166.639304 
L 144.678264 169.26887 
L 145.003243 177.157565 
L 145.328223 179.78713 
L 145.653202 187.675826 
L 146.303161 192.934957 
L 146.95312 208.712348 
L 147.2781 208.712348 
L 147.928059 213.971478 
L 148.578018 224.489739 
L 149.227977 237.637565 
L 149.552957 242.896696 
L 149.877936 242.896696 
L 150.852875 258.674087 
L 151.177854 261.303652 
L 151.502834 258.674087 
L 152.152793 269.192348 
L 152.477772 269.192348 
L 153.127731 279.710609 
L 153.452711 279.710609 
L 153.77769 274.451478 
L 154.10267 282.340174 
L 154.752629 287.599304 
L 155.077609 282.340174 
L 155.402588 284.969739 
L 155.727568 284.969739 
L 156.377527 290.22887 
L 156.702506 290.22887 
L 157.027486 292.858435 
L 157.352465 290.22887 
L 157.677445 290.22887 
L 158.002424 292.858435 
L 158.327404 292.858435 
L 158.652383 290.22887 
L 158.977363 284.969739 
L 159.302342 290.22887 
L 159.627322 292.858435 
L 159.952301 290.22887 
L 160.277281 284.969739 
L 160.60226 287.599304 
L 160.92724 284.969739 
L 161.577199 290.22887 
L 162.552138 290.22887 
L 162.877117 287.599304 
L 163.202097 290.22887 
L 163.527076 290.22887 
L 163.852056 292.858435 
L 164.177035 287.599304 
L 164.502015 292.858435 
L 164.826994 292.858435 
L 165.151974 295.488 
L 165.476953 284.969739 
L 165.801933 287.599304 
L 166.126912 282.340174 
L 166.776871 287.599304 
L 167.101851 287.599304 
L 167.42683 284.969739 
L 167.75181 287.599304 
L 168.07679 284.969739 
L 168.726749 290.22887 
L 169.051728 287.599304 
L 169.701687 287.599304 
L 170.351646 292.858435 
L 170.676626 284.969739 
L 171.001605 290.22887 
L 171.326585 287.599304 
L 171.976544 287.599304 
L 172.301523 290.22887 
L 172.626503 287.599304 
L 172.951482 287.599304 
L 173.276462 284.969739 
L 173.926421 290.22887 
L 174.2514 290.22887 
L 174.57638 287.599304 
L 174.90136 287.599304 
L 175.551319 292.858435 
L 175.876298 287.599304 
L 176.201278 290.22887 
L 176.526257 287.599304 
L 177.501196 287.599304 
L 177.826175 290.22887 
L 178.151155 290.22887 
L 178.476134 284.969739 
L 178.801114 287.599304 
L 179.451073 287.599304 
L 179.776052 282.340174 
L 180.426011 292.858435 
L 180.750991 292.858435 
L 181.075971 284.969739 
L 181.40095 290.22887 
L 183.025848 290.22887 
L 183.350827 292.858435 
L 183.675807 287.599304 
L 184.325766 292.858435 
L 184.975725 287.599304 
L 185.300704 287.599304 
L 185.950663 292.858435 
L 186.275643 287.599304 
L 186.600622 290.22887 
L 186.925602 287.599304 
L 187.250581 290.22887 
L 188.22552 290.22887 
L 188.5505 292.858435 
L 188.875479 287.599304 
L 189.200459 290.22887 
L 189.850418 279.710609 
L 190.175397 266.562783 
L 190.500377 261.303652 
L 191.150336 237.637565 
L 191.475315 227.119304 
L 192.125274 237.637565 
L 192.450254 232.378435 
L 192.775233 216.601043 
L 193.100213 190.305391 
L 193.425192 174.528 
L 193.750172 171.898435 
L 194.075152 179.78713 
L 194.400131 195.564522 
L 194.725111 195.564522 
L 195.37507 129.825391 
L 195.700049 119.30713 
L 196.025029 124.566261 
L 196.350008 150.861913 
L 196.674988 156.121043 
L 196.999967 142.973217 
L 197.324947 111.418435 
L 197.649926 98.270609 
L 197.974906 103.529739 
L 198.299885 114.048 
L 198.624865 111.418435 
L 199.274824 85.122783 
L 199.599803 87.752348 
L 199.924783 103.529739 
L 200.249762 103.529739 
L 200.899722 66.715826 
L 201.224701 58.82713 
L 202.19964 98.270609 
L 202.524619 85.122783 
L 202.849599 66.715826 
L 203.174578 61.456696 
L 203.499558 66.715826 
L 203.824537 74.604522 
L 204.149517 74.604522 
L 204.474496 69.345391 
L 204.799476 66.715826 
L 205.449435 79.863652 
L 205.774414 74.604522 
L 206.424373 61.456696 
L 207.074333 71.974957 
L 207.399312 85.122783 
L 207.724292 85.122783 
L 208.049271 79.863652 
L 208.374251 69.345391 
L 208.69923 66.715826 
L 209.02421 71.974957 
L 209.349189 82.493217 
L 209.674169 82.493217 
L 209.999148 79.863652 
L 210.324128 85.122783 
L 210.649107 82.493217 
L 211.624046 82.493217 
L 211.949025 85.122783 
L 212.274005 85.122783 
L 212.598984 95.641043 
L 212.923964 98.270609 
L 213.248943 95.641043 
L 213.573923 87.752348 
L 213.898903 85.122783 
L 214.223882 85.122783 
L 214.548862 87.752348 
L 214.873841 93.011478 
L 215.5238 93.011478 
L 215.84878 87.752348 
L 216.173759 85.122783 
L 216.498739 87.752348 
L 216.823718 87.752348 
L 217.148698 93.011478 
L 217.473677 82.493217 
L 217.798657 90.381913 
L 218.123636 93.011478 
L 218.448616 90.381913 
L 218.773595 85.122783 
L 219.098575 82.493217 
L 220.073514 82.493217 
L 220.398493 85.122783 
L 220.723473 85.122783 
L 221.373432 74.604522 
L 222.023391 74.604522 
L 222.34837 77.234087 
L 222.67335 71.974957 
L 222.998329 77.234087 
L 223.323309 77.234087 
L 223.648288 74.604522 
L 223.973268 74.604522 
L 224.298247 66.715826 
L 224.623227 66.715826 
L 224.948206 64.086261 
L 225.273186 64.086261 
L 225.598165 66.715826 
L 225.923145 71.974957 
L 226.248124 66.715826 
L 226.573104 58.82713 
L 226.898084 64.086261 
L 227.223063 61.456696 
L 227.548043 64.086261 
L 227.873022 64.086261 
L 228.198002 66.715826 
L 228.522981 64.086261 
L 229.822899 64.086261 
L 230.147879 66.715826 
L 230.472858 64.086261 
L 231.122817 69.345391 
L 231.772776 69.345391 
L 233.072695 79.863652 
L 233.397674 85.122783 
L 233.722654 85.122783 
L 234.047633 90.381913 
L 234.372613 93.011478 
L 234.697592 93.011478 
L 235.022572 95.641043 
L 235.347551 100.900174 
L 235.672531 100.900174 
L 235.99751 106.159304 
L 236.32249 114.048 
L 236.647469 114.048 
L 236.972449 119.30713 
L 237.297428 121.936696 
L 237.622408 127.195826 
L 237.947387 135.084522 
L 238.272367 137.714087 
L 238.597346 145.602783 
L 238.922326 145.602783 
L 239.247305 150.861913 
L 239.897265 156.121043 
L 240.872203 177.157565 
L 241.197183 179.78713 
L 241.522162 187.675826 
L 241.847142 187.675826 
L 242.497101 198.194087 
L 242.82208 208.712348 
L 243.14706 213.971478 
L 243.472039 213.971478 
L 243.797019 219.230609 
L 244.121998 221.860174 
L 244.446978 227.119304 
L 245.096937 240.26713 
L 245.746896 245.526261 
L 246.071876 242.896696 
L 246.721835 256.044522 
L 247.046814 258.674087 
L 247.371794 258.674087 
L 247.696773 261.303652 
L 248.346732 271.821913 
L 248.671712 269.192348 
L 248.996691 277.081043 
L 249.321671 277.081043 
L 250.296609 284.969739 
L 250.621589 290.22887 
L 250.946568 290.22887 
L 251.271548 287.599304 
L 252.246486 295.488 
L 252.571466 290.22887 
L 253.221425 295.488 
L 253.546405 295.488 
L 253.871384 290.22887 
L 254.196364 292.858435 
L 254.521343 290.22887 
L 255.171302 290.22887 
L 255.496282 292.858435 
L 255.821261 292.858435 
L 256.146241 290.22887 
L 256.47122 284.969739 
L 256.7962 287.599304 
L 257.121179 292.858435 
L 257.446159 292.858435 
L 257.771138 287.599304 
L 258.096118 290.22887 
L 258.421097 290.22887 
L 258.746077 292.858435 
L 259.071057 290.22887 
L 259.396036 292.858435 
L 259.721016 287.599304 
L 260.045995 287.599304 
L 260.370975 290.22887 
L 261.345913 290.22887 
L 261.670893 284.969739 
L 261.995872 284.969739 
L 262.320852 290.22887 
L 262.645831 290.22887 
L 262.970811 287.599304 
L 263.62077 287.599304 
L 263.945749 290.22887 
L 264.270729 287.599304 
L 264.595708 295.488 
L 264.920688 290.22887 
L 265.570647 290.22887 
L 265.895627 292.858435 
L 266.545586 292.858435 
L 266.870565 284.969739 
L 267.195545 287.599304 
L 268.495463 287.599304 
L 268.820442 290.22887 
L 269.145422 290.22887 
L 269.470401 287.599304 
L 269.795381 292.858435 
L 270.44534 287.599304 
L 270.770319 290.22887 
L 271.420278 290.22887 
L 271.745258 292.858435 
L 272.070238 287.599304 
L 272.395217 287.599304 
L 272.720197 290.22887 
L 274.345094 290.22887 
L 274.670074 284.969739 
L 274.995053 292.858435 
L 275.320033 290.22887 
L 276.294971 290.22887 
L 276.619951 292.858435 
L 276.94493 292.858435 
L 277.26991 287.599304 
L 277.594889 287.599304 
L 277.919869 290.22887 
L 278.244848 290.22887 
L 278.569828 287.599304 
L 278.894808 290.22887 
L 279.219787 290.22887 
L 279.544767 292.858435 
L 279.869746 287.599304 
L 280.194726 290.22887 
L 280.519705 287.599304 
L 280.844685 287.599304 
L 281.169664 284.969739 
L 281.494644 290.22887 
L 281.819623 290.22887 
L 282.144603 292.858435 
L 282.469582 287.599304 
L 282.794562 287.599304 
L 283.119541 290.22887 
L 283.7695 290.22887 
L 284.09448 292.858435 
L 284.419459 290.22887 
L 284.744439 290.22887 
L 285.069419 284.969739 
L 285.394398 284.969739 
L 285.719378 279.710609 
L 286.044357 271.821913 
L 287.019296 232.378435 
L 287.344275 229.74887 
L 287.669255 229.74887 
L 287.994234 237.637565 
L 288.319214 235.008 
L 288.644193 213.971478 
L 288.969173 185.046261 
L 289.294152 169.26887 
L 289.619132 169.26887 
L 290.269091 195.564522 
L 290.59407 192.934957 
L 291.569009 119.30713 
L 291.893989 127.195826 
L 292.218968 148.232348 
L 292.543948 153.491478 
L 293.193907 111.418435 
L 293.518886 98.270609 
L 293.843866 103.529739 
L 294.168845 111.418435 
L 294.493825 111.418435 
L 294.818804 93.011478 
L 295.143784 82.493217 
L 295.468763 85.122783 
L 295.793743 106.159304 
L 296.118722 103.529739 
L 296.443702 90.381913 
L 296.768681 66.715826 
L 297.093661 53.568 
L 297.41864 66.715826 
L 297.74362 90.381913 
L 298.0686 93.011478 
L 298.393579 82.493217 
L 298.718559 64.086261 
L 299.043538 58.82713 
L 299.368518 64.086261 
L 299.693497 77.234087 
L 300.018477 77.234087 
L 300.668436 66.715826 
L 300.993415 77.234087 
L 301.318395 82.493217 
L 301.643374 79.863652 
L 301.968354 66.715826 
L 302.293333 61.456696 
L 302.618313 64.086261 
L 302.943292 79.863652 
L 303.268272 85.122783 
L 303.593251 85.122783 
L 304.24321 69.345391 
L 304.56819 66.715826 
L 304.89317 71.974957 
L 305.218149 82.493217 
L 305.543129 85.122783 
L 305.868108 79.863652 
L 306.193088 85.122783 
L 306.518067 82.493217 
L 306.843047 85.122783 
L 307.493006 79.863652 
L 307.817985 79.863652 
L 308.142965 85.122783 
L 308.467944 87.752348 
L 308.792924 93.011478 
L 309.117903 93.011478 
L 309.442883 85.122783 
L 309.767862 82.493217 
L 310.092842 82.493217 
L 310.417821 87.752348 
L 310.742801 95.641043 
L 311.067781 93.011478 
L 311.39276 93.011478 
L 311.71774 87.752348 
L 312.367699 87.752348 
L 312.692678 82.493217 
L 313.017658 90.381913 
L 313.342637 90.381913 
L 313.667617 87.752348 
L 314.317576 93.011478 
L 314.642555 87.752348 
L 314.967535 79.863652 
L 315.292514 77.234087 
L 315.617494 79.863652 
L 315.942473 85.122783 
L 316.267453 82.493217 
L 316.592432 87.752348 
L 317.242391 77.234087 
L 317.567371 74.604522 
L 318.21733 74.604522 
L 318.54231 77.234087 
L 318.867289 77.234087 
L 319.192269 74.604522 
L 319.517248 77.234087 
L 320.167207 66.715826 
L 320.492187 64.086261 
L 320.817166 64.086261 
L 321.142146 66.715826 
L 321.467125 66.715826 
L 321.792105 69.345391 
L 322.117084 64.086261 
L 322.442064 61.456696 
L 323.092023 61.456696 
L 323.741982 66.715826 
L 324.066962 64.086261 
L 324.716921 64.086261 
L 325.0419 61.456696 
L 326.016839 61.456696 
L 326.341818 66.715826 
L 326.666798 66.715826 
L 326.991777 74.604522 
L 327.316757 71.974957 
L 328.291695 71.974957 
L 328.941654 82.493217 
L 329.266634 79.863652 
L 329.591613 82.493217 
L 329.916593 87.752348 
L 330.241572 87.752348 
L 330.566552 90.381913 
L 330.891532 98.270609 
L 331.216511 98.270609 
L 331.541491 103.529739 
L 331.86647 106.159304 
L 332.19145 111.418435 
L 332.516429 114.048 
L 332.841409 119.30713 
L 333.166388 119.30713 
L 333.491368 121.936696 
L 334.141327 137.714087 
L 334.466306 140.343652 
L 335.116265 150.861913 
L 335.441245 153.491478 
L 335.766224 158.750609 
L 336.091204 161.380174 
L 336.416183 166.639304 
L 336.741163 174.528 
L 337.066143 177.157565 
L 337.391122 185.046261 
L 337.716102 187.675826 
L 338.366061 198.194087 
L 339.01602 211.341913 
L 339.665979 216.601043 
L 339.990958 221.860174 
L 340.315938 229.74887 
L 340.640917 232.378435 
L 340.965897 240.26713 
L 341.290876 242.896696 
L 341.615856 242.896696 
L 341.940835 250.785391 
L 342.265815 250.785391 
L 342.590794 261.303652 
L 342.915774 263.933217 
L 343.565733 263.933217 
L 344.540672 279.710609 
L 344.865651 274.451478 
L 345.190631 274.451478 
L 345.51561 279.710609 
L 346.490549 287.599304 
L 347.140508 287.599304 
L 347.465487 284.969739 
L 347.790467 292.858435 
L 348.115446 290.22887 
L 348.440426 292.858435 
L 348.765405 290.22887 
L 349.090385 292.858435 
L 349.415364 292.858435 
L 349.740344 295.488 
L 350.065324 292.858435 
L 350.390303 292.858435 
L 350.715283 290.22887 
L 351.040262 290.22887 
L 351.365242 287.599304 
L 351.690221 292.858435 
L 352.015201 290.22887 
L 352.34018 284.969739 
L 352.66516 282.340174 
L 352.990139 287.599304 
L 353.315119 287.599304 
L 353.640098 290.22887 
L 353.965078 287.599304 
L 354.290057 290.22887 
L 354.615037 290.22887 
L 354.940016 295.488 
L 355.264996 290.22887 
L 355.589975 287.599304 
L 355.914955 287.599304 
L 356.239934 290.22887 
L 356.564914 287.599304 
L 356.889894 290.22887 
L 357.214873 290.22887 
L 357.539853 284.969739 
L 357.864832 282.340174 
L 358.189812 287.599304 
L 358.514791 287.599304 
L 358.839771 284.969739 
L 359.16475 284.969739 
L 359.814709 290.22887 
L 360.139689 295.488 
L 360.464668 292.858435 
L 360.789648 292.858435 
L 361.439607 287.599304 
L 361.764586 287.599304 
L 362.089566 290.22887 
L 362.414545 290.22887 
L 363.064505 284.969739 
L 363.389484 290.22887 
L 363.714464 287.599304 
L 364.039443 290.22887 
L 365.339361 290.22887 
L 365.664341 287.599304 
L 365.98932 290.22887 
L 366.3143 290.22887 
L 366.639279 287.599304 
L 366.964259 287.599304 
L 367.289238 292.858435 
L 368.264177 284.969739 
L 368.589156 290.22887 
L 368.914136 292.858435 
L 369.239115 292.858435 
L 369.564095 290.22887 
L 370.539034 290.22887 
L 370.864013 287.599304 
L 371.188993 287.599304 
L 371.513972 290.22887 
L 371.838952 290.22887 
L 372.163931 287.599304 
L 372.488911 292.858435 
L 373.463849 284.969739 
L 373.788829 292.858435 
L 374.113808 290.22887 
L 374.438788 290.22887 
L 374.763767 292.858435 
L 375.088747 290.22887 
L 375.738706 295.488 
L 376.063686 290.22887 
L 376.388665 287.599304 
L 376.713645 290.22887 
L 377.038624 290.22887 
L 377.363604 287.599304 
L 377.688583 292.858435 
L 378.338542 292.858435 
L 378.663522 287.599304 
L 378.988501 295.488 
L 379.313481 292.858435 
L 380.288419 292.858435 
L 380.613399 290.22887 
L 380.938378 295.488 
L 382.238296 261.303652 
L 382.888256 237.637565 
L 383.213235 232.378435 
L 383.538215 235.008 
L 384.188174 235.008 
L 384.838133 192.934957 
L 385.163112 171.898435 
L 385.488092 169.26887 
L 386.138051 200.823652 
L 386.46303 190.305391 
L 387.437969 116.677565 
L 387.762948 127.195826 
L 388.087928 150.861913 
L 388.412907 156.121043 
L 388.737887 142.973217 
L 389.062867 111.418435 
L 389.387846 100.900174 
L 389.712826 103.529739 
L 390.037805 114.048 
L 390.362785 111.418435 
L 391.012744 79.863652 
L 391.337723 85.122783 
L 391.662703 98.270609 
L 391.987682 106.159304 
L 392.312662 90.381913 
L 392.637641 66.715826 
L 392.962621 53.568 
L 393.937559 100.900174 
L 394.262539 79.863652 
L 394.912498 58.82713 
L 395.562457 74.604522 
L 395.887437 74.604522 
L 396.212416 69.345391 
L 396.537396 69.345391 
L 397.187355 79.863652 
L 397.512334 79.863652 
L 398.162293 56.197565 
L 398.487273 61.456696 
L 398.487273 61.456696 
" clip-path="url(#p5781573144)" style="fill: none; stroke: #2ca02c; stroke-width: 1.5; stroke-linecap: square"/>
   </g>
   <g id="patch_3">
    <path d="M 57.6 307.584 
L 57.6 41.472 
" style="fill: none; stroke: #000000; stroke-width: 0.8; stroke-linejoin: miter; stroke-linecap: square"/>
   </g>
   <g id="patch_4">
    <path d="M 414.72 307.584 
L 414.72 41.472 
" style="fill: none; stroke: #000000; stroke-width: 0.8; stroke-linejoin: miter; stroke-linecap: square"/>
   </g>
   <g id="patch_5">
    <path d="M 57.6 307.584 
L 414.72 307.584 
" style="fill: none; stroke: #000000; stroke-width: 0.8; stroke-linejoin: miter; stroke-linecap: square"/>
   </g>
   <g id="patch_6">
    <path d="M 57.6 41.472 
L 414.72 41.472 
" style="fill: none; stroke: #000000; stroke-width: 0.8; stroke-linejoin: miter; stroke-linecap: square"/>
   </g>
  </g>
 </g>
 <defs>
  <clipPath id="p5781573144">
   <rect x="57.6" y="41.472" width="357.12" height="266.112"/>
  </clipPath>
 </defs>
</svg>
