<?xml version="1.0" encoding="utf-8" standalone="no"?>
<!DOCTYPE svg PUBLIC "-//W3C//DTD SVG 1.1//EN"
  "http://www.w3.org/Graphics/SVG/1.1/DTD/svg11.dtd">
<svg xmlns:xlink="http://www.w3.org/1999/xlink" width="460.8pt" height="345.6pt" viewBox="0 0 460.8 345.6" xmlns="http://www.w3.org/2000/svg" version="1.1">
 <metadata>
  <rdf:RDF xmlns:dc="http://purl.org/dc/elements/1.1/" xmlns:cc="http://creativecommons.org/ns#" xmlns:rdf="http://www.w3.org/1999/02/22-rdf-syntax-ns#">
   <cc:Work>
    <dc:type rdf:resource="http://purl.org/dc/dcmitype/StillImage"/>
    <dc:date>2025-12-29T08:12:49.324648</dc:date>
    <dc:format>image/svg+xml</dc:format>
    <dc:creator>
     <cc:Agent>
      <dc:title>Matplotlib v3.10.8, https://matplotlib.org/</dc:title>
     </cc:Agent>
    </dc:creator>
   </cc:Work>
  </rdf:RDF>
 </metadata>
 <defs>
  <style type="text/css">*{stroke-linejoin: round; stroke-linecap: butt}</style>
 </defs>
 <g id="figure_1">
  <g id="patch_1">
   <path d="M 0 345.6 
L 460.8 345.6 
L 460.8 0 
L 0 0 
z
" style="fill: #ffffff"/>
  </g>
  <g id="axes_1">
   <g id="patch_2">
    <path d="M 57.6 307.584 
L 414.72 307.584 
L 414.72 41.472 
L 57.6 41.472 
z
" style="fill: #ffffff"/>
   </g>
   <g id="matplotlib.axis_1">
    <g id="xtick_1">
     <g id="line2d_1">
      <defs>
       <path id="m083b4f4ec6" d="M 0 0 
L 0 3.5 
" style="stroke: #000000; stroke-width: 0.8"/>
      </defs>
      <g>
       <use xlink:href="#m083b4f4ec6" x="73.832727" y="307.584" style="stroke: #000000; stroke-width: 0.8"/>
      </g>
     </g>
     <g id="text_1">
      <!-- 0 -->
      <g transform="translate(70.651477 322.182437) scale(0.1 -0.1)">
       <defs>
        <path id="DejaVuSans-30" d="M 2034 4250 
Q 1547 4250 1301 3770 
Q 1056 3291 1056 2328 
Q 1056 1369 1301 889 
Q 1547 409 2034 409 
Q 2525 409 2770 889 
Q 3016 1369 3016 2328 
Q 3016 3291 2770 3770 
Q 2525 4250 2034 4250 
z
M 2034 4750 
Q 2819 4750 3233 4129 
Q 3647 3509 3647 2328 
Q 3647 1150 3233 529 
Q 2819 -91 2034 -91 
Q 1250 -91 836 529 
Q 422 1150 422 2328 
Q 422 3509 836 4129 
Q 1250 4750 2034 4750 
z
" transform="scale(0.015625)"/>
       </defs>
       <use xlink:href="#DejaVuSans-30"/>
      </g>
     </g>
    </g>
    <g id="xtick_2">
     <g id="line2d_2">
      <g>
       <use xlink:href="#m083b4f4ec6" x="138.828632" y="307.584" style="stroke: #000000; stroke-width: 0.8"/>
      </g>
     </g>
     <g id="text_2">
      <!-- 1 -->
      <g transform="translate(135.647382 322.182437) scale(0.1 -0.1)">
       <defs>
        <path id="DejaVuSans-31" d="M 794 531 
L 1825 531 
L 1825 4091 
L 703 3866 
L 703 4441 
L 1819 4666 
L 2450 4666 
L 2450 531 
L 3481 531 
L 3481 0 
L 794 0 
L 794 531 
z
" transform="scale(0.015625)"/>
       </defs>
       <use xlink:href="#DejaVuSans-31"/>
      </g>
     </g>
    </g>
    <g id="xtick_3">
     <g id="line2d_3">
      <g>
       <use xlink:href="#m083b4f4ec6" x="203.824537" y="307.584" style="stroke: #000000; stroke-width: 0.8"/>
      </g>
     </g>
     <g id="text_3">
      <!-- 2 -->
      <g transform="translate(200.643287 322.182437) scale(0.1 -0.1)">
       <defs>
        <path id="DejaVuSans-32" d="M 1228 531 
L 3431 531 
L 3431 0 
L 469 0 
L 469 531 
Q 828 903 1448 1529 
Q 2069 2156 2228 2338 
Q 2531 2678 2651 2914 
Q 2772 3150 2772 3378 
Q 2772 3750 2511 3984 
Q 2250 4219 1831 4219 
Q 1534 4219 1204 4116 
Q 875 4013 500 3803 
L 500 4441 
Q 881 4594 1212 4672 
Q 1544 4750 1819 4750 
Q 2544 4750 2975 4387 
Q 3406 4025 3406 3419 
Q 3406 3131 3298 2873 
Q 3191 2616 2906 2266 
Q 2828 2175 2409 1742 
Q 1991 1309 1228 531 
z
" transform="scale(0.015625)"/>
       </defs>
       <use xlink:href="#DejaVuSans-32"/>
      </g>
     </g>
    </g>
    <g id="xtick_4">
     <g id="line2d_4">
      <g>
       <use xlink:href="#m083b4f4ec6" x="268.820442" y="307.584" style="stroke: #000000; stroke-width: 0.8"/>
      </g>
     </g>
     <g id="text_4">
      <!-- 3 -->
      <g transform="translate(265.639192 322.182437) scale(0.1 -0.1)">
       <defs>
        <path id="DejaVuSans-33" d="M 2597 2516 
Q 3050 2419 3304 2112 
Q 3559 1806 3559 1356 
Q 3559 666 3084 287 
Q 2609 -91 1734 -91 
Q 1441 -91 1130 -33 
Q 819 25 488 141 
L 488 750 
Q 750 597 1062 519 
Q 1375 441 1716 441 
Q 2309 441 2620 675 
Q 2931 909 2931 1356 
Q 2931 1769 2642 2001 
Q 2353 2234 1838 2234 
L 1294 2234 
L 1294 2753 
L 1863 2753 
Q 2328 2753 2575 2939 
Q 2822 3125 2822 3475 
Q 2822 3834 2567 4026 
Q 2313 4219 1838 4219 
Q 1578 4219 1281 4162 
Q 984 4106 628 3988 
L 628 4550 
Q 988 4650 1302 4700 
Q 1616 4750 1894 4750 
Q 2613 4750 3031 4423 
Q 3450 4097 3450 3541 
Q 3450 3153 3228 2886 
Q 3006 2619 2597 2516 
z
" transform="scale(0.015625)"/>
       </defs>
       <use xlink:href="#DejaVuSans-33"/>
      </g>
     </g>
    </g>
    <g id="xtick_5">
     <g id="line2d_5">
      <g>
       <use xlink:href="#m083b4f4ec6" x="333.816347" y="307.584" style="stroke: #000000; stroke-width: 0.8"/>
      </g>
     </g>
     <g id="text_5">
      <!-- 4 -->
      <g transform="translate(330.635097 322.182437) scale(0.1 -0.1)">
       <defs>
        <path id="DejaVuSans-34" d="M 2419 4116 
L 825 1625 
L 2419 1625 
L 2419 4116 
z
M 2253 4666 
L 3047 4666 
L 3047 1625 
L 3713 1625 
L 3713 1100 
L 3047 1100 
L 3047 0 
L 2419 0 
L 2419 1100 
L 313 1100 
L 313 1709 
L 2253 4666 
z
" transform="scale(0.015625)"/>
       </defs>
       <use xlink:href="#DejaVuSans-34"/>
      </g>
     </g>
    </g>
    <g id="xtick_6">
     <g id="line2d_6">
      <g>
       <use xlink:href="#m083b4f4ec6" x="398.812252" y="307.584" style="stroke: #000000; stroke-width: 0.8"/>
      </g>
     </g>
     <g id="text_6">
      <!-- 5 -->
      <g transform="translate(395.631002 322.182437) scale(0.1 -0.1)">
       <defs>
        <path id="DejaVuSans-35" d="M 691 4666 
L 3169 4666 
L 3169 4134 
L 1269 4134 
L 1269 2991 
Q 1406 3038 1543 3061 
Q 1681 3084 1819 3084 
Q 2600 3084 3056 2656 
Q 3513 2228 3513 1497 
Q 3513 744 3044 326 
Q 2575 -91 1722 -91 
Q 1428 -91 1123 -41 
Q 819 9 494 109 
L 494 744 
Q 775 591 1075 516 
Q 1375 441 1709 441 
Q 2250 441 2565 725 
Q 2881 1009 2881 1497 
Q 2881 1984 2565 2268 
Q 2250 2553 1709 2553 
Q 1456 2553 1204 2497 
Q 953 2441 691 2322 
L 691 4666 
z
" transform="scale(0.015625)"/>
       </defs>
       <use xlink:href="#DejaVuSans-35"/>
      </g>
     </g>
    </g>
    <g id="text_7">
     <!-- 1e−7 -->
     <g transform="translate(387.462188 334.860562) scale(0.1 -0.1)">
      <defs>
       <path id="DejaVuSans-65" d="M 3597 1894 
L 3597 1613 
L 953 1613 
Q 991 1019 1311 708 
Q 1631 397 2203 397 
Q 2534 397 2845 478 
Q 3156 559 3463 722 
L 3463 178 
Q 3153 47 2828 -22 
Q 2503 -91 2169 -91 
Q 1331 -91 842 396 
Q 353 884 353 1716 
Q 353 2575 817 3079 
Q 1281 3584 2069 3584 
Q 2775 3584 3186 3129 
Q 3597 2675 3597 1894 
z
M 3022 2063 
Q 3016 2534 2758 2815 
Q 2500 3097 2075 3097 
Q 1594 3097 1305 2825 
Q 1016 2553 972 2059 
L 3022 2063 
z
" transform="scale(0.015625)"/>
       <path id="DejaVuSans-2212" d="M 678 2272 
L 4684 2272 
L 4684 1741 
L 678 1741 
L 678 2272 
z
" transform="scale(0.015625)"/>
       <path id="DejaVuSans-37" d="M 525 4666 
L 3525 4666 
L 3525 4397 
L 1831 0 
L 1172 0 
L 2766 4134 
L 525 4134 
L 525 4666 
z
" transform="scale(0.015625)"/>
      </defs>
      <use xlink:href="#DejaVuSans-31"/>
      <use xlink:href="#DejaVuSans-65" transform="translate(63.623047 0)"/>
      <use xlink:href="#DejaVuSans-2212" transform="translate(125.146484 0)"/>
      <use xlink:href="#DejaVuSans-37" transform="translate(208.935547 0)"/>
     </g>
    </g>
   </g>
   <g id="matplotlib.axis_2">
    <g id="ytick_1">
     <g id="line2d_7">
      <defs>
       <path id="m5498a686d4" d="M 0 0 
L -3.5 0 
" style="stroke: #000000; stroke-width: 0.8"/>
      </defs>
      <g>
       <use xlink:href="#m5498a686d4" x="57.6" y="300.93118" style="stroke: #000000; stroke-width: 0.8"/>
      </g>
     </g>
     <g id="text_8">
      <!-- −40 -->
      <g transform="translate(29.495313 304.730399) scale(0.1 -0.1)">
       <use xlink:href="#DejaVuSans-2212"/>
       <use xlink:href="#DejaVuSans-34" transform="translate(83.789062 0)"/>
       <use xlink:href="#DejaVuSans-30" transform="translate(147.412109 0)"/>
      </g>
     </g>
    </g>
    <g id="ytick_2">
     <g id="line2d_8">
      <g>
       <use xlink:href="#m5498a686d4" x="57.6" y="262.223982" style="stroke: #000000; stroke-width: 0.8"/>
      </g>
     </g>
     <g id="text_9">
      <!-- −20 -->
      <g transform="translate(29.495313 266.023201) scale(0.1 -0.1)">
       <use xlink:href="#DejaVuSans-2212"/>
       <use xlink:href="#DejaVuSans-32" transform="translate(83.789062 0)"/>
       <use xlink:href="#DejaVuSans-30" transform="translate(147.412109 0)"/>
      </g>
     </g>
    </g>
    <g id="ytick_3">
     <g id="line2d_9">
      <g>
       <use xlink:href="#m5498a686d4" x="57.6" y="223.516785" style="stroke: #000000; stroke-width: 0.8"/>
      </g>
     </g>
     <g id="text_10">
      <!-- 0 -->
      <g transform="translate(44.2375 227.316003) scale(0.1 -0.1)">
       <use xlink:href="#DejaVuSans-30"/>
      </g>
     </g>
    </g>
    <g id="ytick_4">
     <g id="line2d_10">
      <g>
       <use xlink:href="#m5498a686d4" x="57.6" y="184.809587" style="stroke: #000000; stroke-width: 0.8"/>
      </g>
     </g>
     <g id="text_11">
      <!-- 20 -->
      <g transform="translate(37.875 188.608806) scale(0.1 -0.1)">
       <use xlink:href="#DejaVuSans-32"/>
       <use xlink:href="#DejaVuSans-30" transform="translate(63.623047 0)"/>
      </g>
     </g>
    </g>
    <g id="ytick_5">
     <g id="line2d_11">
      <g>
       <use xlink:href="#m5498a686d4" x="57.6" y="146.102389" style="stroke: #000000; stroke-width: 0.8"/>
      </g>
     </g>
     <g id="text_12">
      <!-- 40 -->
      <g transform="translate(37.875 149.901608) scale(0.1 -0.1)">
       <use xlink:href="#DejaVuSans-34"/>
       <use xlink:href="#DejaVuSans-30" transform="translate(63.623047 0)"/>
      </g>
     </g>
    </g>
    <g id="ytick_6">
     <g id="line2d_12">
      <g>
       <use xlink:href="#m5498a686d4" x="57.6" y="107.395192" style="stroke: #000000; stroke-width: 0.8"/>
      </g>
     </g>
     <g id="text_13">
      <!-- 60 -->
      <g transform="translate(37.875 111.19441) scale(0.1 -0.1)">
       <defs>
        <path id="DejaVuSans-36" d="M 2113 2584 
Q 1688 2584 1439 2293 
Q 1191 2003 1191 1497 
Q 1191 994 1439 701 
Q 1688 409 2113 409 
Q 2538 409 2786 701 
Q 3034 994 3034 1497 
Q 3034 2003 2786 2293 
Q 2538 2584 2113 2584 
z
M 3366 4563 
L 3366 3988 
Q 3128 4100 2886 4159 
Q 2644 4219 2406 4219 
Q 1781 4219 1451 3797 
Q 1122 3375 1075 2522 
Q 1259 2794 1537 2939 
Q 1816 3084 2150 3084 
Q 2853 3084 3261 2657 
Q 3669 2231 3669 1497 
Q 3669 778 3244 343 
Q 2819 -91 2113 -91 
Q 1303 -91 875 529 
Q 447 1150 447 2328 
Q 447 3434 972 4092 
Q 1497 4750 2381 4750 
Q 2619 4750 2861 4703 
Q 3103 4656 3366 4563 
z
" transform="scale(0.015625)"/>
       </defs>
       <use xlink:href="#DejaVuSans-36"/>
       <use xlink:href="#DejaVuSans-30" transform="translate(63.623047 0)"/>
      </g>
     </g>
    </g>
    <g id="ytick_7">
     <g id="line2d_13">
      <g>
       <use xlink:href="#m5498a686d4" x="57.6" y="68.687994" style="stroke: #000000; stroke-width: 0.8"/>
      </g>
     </g>
     <g id="text_14">
      <!-- 80 -->
      <g transform="translate(37.875 72.487213) scale(0.1 -0.1)">
       <defs>
        <path id="DejaVuSans-38" d="M 2034 2216 
Q 1584 2216 1326 1975 
Q 1069 1734 1069 1313 
Q 1069 891 1326 650 
Q 1584 409 2034 409 
Q 2484 409 2743 651 
Q 3003 894 3003 1313 
Q 3003 1734 2745 1975 
Q 2488 2216 2034 2216 
z
M 1403 2484 
Q 997 2584 770 2862 
Q 544 3141 544 3541 
Q 544 4100 942 4425 
Q 1341 4750 2034 4750 
Q 2731 4750 3128 4425 
Q 3525 4100 3525 3541 
Q 3525 3141 3298 2862 
Q 3072 2584 2669 2484 
Q 3125 2378 3379 2068 
Q 3634 1759 3634 1313 
Q 3634 634 3220 271 
Q 2806 -91 2034 -91 
Q 1263 -91 848 271 
Q 434 634 434 1313 
Q 434 1759 690 2068 
Q 947 2378 1403 2484 
z
M 1172 3481 
Q 1172 3119 1398 2916 
Q 1625 2713 2034 2713 
Q 2441 2713 2670 2916 
Q 2900 3119 2900 3481 
Q 2900 3844 2670 4047 
Q 2441 4250 2034 4250 
Q 1625 4250 1398 4047 
Q 1172 3844 1172 3481 
z
" transform="scale(0.015625)"/>
       </defs>
       <use xlink:href="#DejaVuSans-38"/>
       <use xlink:href="#DejaVuSans-30" transform="translate(63.623047 0)"/>
      </g>
     </g>
    </g>
   </g>
   <g id="line2d_14">
    <path d="M 73.832727 225.028782 
L 74.807666 225.028782 
L 75.132645 226.540782 
L 75.457625 225.028782 
L 75.782604 225.028782 
L 76.107584 223.516782 
L 76.432563 225.028782 
L 76.757543 223.516782 
L 77.082523 225.028782 
L 77.407502 225.028782 
L 77.732482 226.540782 
L 78.70742 226.540782 
L 79.0324 225.028782 
L 79.357379 226.540782 
L 79.682359 225.028782 
L 80.007338 226.540782 
L 80.332318 226.540782 
L 80.657297 225.028782 
L 81.307256 225.028782 
L 81.632236 226.540782 
L 81.957215 225.028782 
L 82.607174 225.028782 
L 82.932154 226.540782 
L 83.907093 226.540782 
L 84.557052 223.516782 
L 84.882031 220.492782 
L 86.181949 200.836782 
L 86.506929 194.788782 
L 86.831908 196.300782 
L 87.156888 200.836782 
L 87.481867 202.348782 
L 87.806847 194.788782 
L 88.456806 173.620782 
L 88.781785 169.084782 
L 89.106765 173.620782 
L 89.431744 181.180782 
L 89.756724 182.692782 
L 90.081704 173.620782 
L 90.406683 158.500782 
L 90.731663 150.940782 
L 91.056642 150.940782 
L 91.381622 158.500782 
L 91.706601 161.524782 
L 92.031581 156.988782 
L 92.35656 143.380782 
L 92.68154 138.844782 
L 93.006519 138.844782 
L 93.331499 144.892782 
L 93.656478 144.892782 
L 94.306437 129.772782 
L 94.631417 131.284782 
L 95.281376 138.844782 
L 95.606355 134.308782 
L 95.931335 126.748782 
L 96.256314 122.212782 
L 96.581294 125.236782 
L 97.231253 132.796782 
L 97.556233 126.748782 
L 97.881212 123.724782 
L 98.206192 122.212782 
L 98.531171 126.748782 
L 98.856151 128.260782 
L 99.50611 120.700782 
L 99.831089 122.212782 
L 100.481048 129.772782 
L 100.806028 129.772782 
L 101.131007 123.724782 
L 101.455987 120.700782 
L 101.780966 122.212782 
L 102.105946 125.236782 
L 102.430925 131.284782 
L 102.755905 128.260782 
L 103.080885 128.260782 
L 103.405864 125.236782 
L 104.055823 128.260782 
L 104.705782 128.260782 
L 105.030762 126.748782 
L 105.680721 132.796782 
L 106.0057 134.308782 
L 106.980639 129.772782 
L 107.305618 131.284782 
L 107.630598 134.308782 
L 110.230434 134.308782 
L 110.555414 137.332782 
L 110.880393 135.820782 
L 111.530352 135.820782 
L 111.855332 132.796782 
L 112.180311 134.308782 
L 112.505291 134.308782 
L 112.83027 135.820782 
L 113.15525 134.308782 
L 113.480229 134.308782 
L 113.805209 132.796782 
L 114.455168 132.796782 
L 114.780147 131.284782 
L 115.105127 131.284782 
L 115.430106 129.772782 
L 115.755086 131.284782 
L 116.080066 131.284782 
L 116.405045 132.796782 
L 116.730025 132.796782 
L 117.055004 128.260782 
L 117.704963 125.236782 
L 118.029943 128.260782 
L 118.354922 128.260782 
L 118.679902 126.748782 
L 119.65484 126.748782 
L 119.97982 122.212782 
L 120.304799 122.212782 
L 120.954758 125.236782 
L 121.279738 123.724782 
L 121.604717 125.236782 
L 121.929697 122.212782 
L 122.579656 122.212782 
L 122.904636 120.700782 
L 123.229615 123.724782 
L 123.879574 120.700782 
L 124.529533 120.700782 
L 124.854513 122.212782 
L 125.179492 120.700782 
L 125.504472 122.212782 
L 125.829451 120.700782 
L 126.47941 123.724782 
L 126.80439 126.748782 
L 127.454349 126.748782 
L 127.779328 125.236782 
L 128.104308 125.236782 
L 128.429287 129.772782 
L 128.754267 128.260782 
L 129.079247 131.284782 
L 129.404226 131.284782 
L 130.054185 134.308782 
L 130.379165 134.308782 
L 131.029124 140.356782 
L 132.004062 144.892782 
L 132.329042 147.916782 
L 132.654021 147.916782 
L 133.30398 150.940782 
L 133.62896 155.476782 
L 133.953939 156.988782 
L 134.278919 160.012782 
L 134.603898 161.524782 
L 134.928878 164.548782 
L 135.253857 166.060782 
L 135.903817 172.108782 
L 136.228796 173.620782 
L 136.553776 178.156782 
L 136.878755 178.156782 
L 137.528714 184.204782 
L 137.853694 185.716782 
L 138.178673 188.740782 
L 138.503653 190.252782 
L 138.828632 193.276782 
L 139.153612 194.788782 
L 139.478591 197.812782 
L 139.803571 199.324782 
L 140.12855 202.348782 
L 140.45353 203.860782 
L 140.778509 203.860782 
L 141.103489 208.396782 
L 141.428468 208.396782 
L 141.753448 211.420782 
L 142.078428 212.932782 
L 142.403407 212.932782 
L 142.728387 217.468782 
L 143.378346 220.492782 
L 143.703325 220.492782 
L 144.353284 223.516782 
L 144.678264 223.516782 
L 145.653202 228.052782 
L 145.978182 226.540782 
L 146.303161 228.052782 
L 147.928059 228.052782 
L 148.578018 225.028782 
L 149.227977 225.028782 
L 149.552957 223.516782 
L 150.852875 223.516782 
L 151.177854 222.004782 
L 151.502834 223.516782 
L 151.827813 222.004782 
L 152.152793 225.028782 
L 152.802752 222.004782 
L 153.127731 223.516782 
L 153.452711 223.516782 
L 153.77769 225.028782 
L 154.10267 225.028782 
L 154.427649 226.540782 
L 154.752629 223.516782 
L 155.077609 225.028782 
L 155.402588 223.516782 
L 155.727568 225.028782 
L 156.052547 225.028782 
L 156.377527 223.516782 
L 156.702506 225.028782 
L 157.027486 225.028782 
L 157.352465 226.540782 
L 157.677445 225.028782 
L 158.002424 226.540782 
L 158.327404 226.540782 
L 158.652383 223.516782 
L 160.277281 223.516782 
L 160.60226 222.004782 
L 160.92724 225.028782 
L 161.252219 223.516782 
L 161.577199 223.516782 
L 161.902179 225.028782 
L 162.227158 225.028782 
L 162.552138 226.540782 
L 163.202097 223.516782 
L 163.527076 223.516782 
L 163.852056 225.028782 
L 164.177035 225.028782 
L 164.502015 223.516782 
L 164.826994 225.028782 
L 165.151974 223.516782 
L 165.476953 225.028782 
L 165.801933 223.516782 
L 166.451892 226.540782 
L 166.776871 223.516782 
L 167.101851 225.028782 
L 167.42683 223.516782 
L 167.75181 225.028782 
L 168.401769 225.028782 
L 168.726749 226.540782 
L 169.376708 226.540782 
L 169.701687 223.516782 
L 170.026667 225.028782 
L 170.351646 223.516782 
L 170.676626 225.028782 
L 173.926421 225.028782 
L 174.2514 223.516782 
L 174.57638 226.540782 
L 174.90136 225.028782 
L 175.226339 226.540782 
L 175.551319 225.028782 
L 175.876298 225.028782 
L 176.201278 223.516782 
L 176.526257 226.540782 
L 179.776052 226.540782 
L 180.101032 223.516782 
L 180.426011 223.516782 
L 181.075971 217.468782 
L 182.050909 199.324782 
L 182.375889 196.300782 
L 182.700868 196.300782 
L 183.025848 199.324782 
L 183.350827 200.836782 
L 183.675807 196.300782 
L 184.325766 173.620782 
L 184.650745 169.084782 
L 184.975725 172.108782 
L 185.625684 182.692782 
L 186.600622 147.916782 
L 186.925602 149.428782 
L 187.250581 156.988782 
L 187.575561 161.524782 
L 187.900541 156.988782 
L 188.22552 144.892782 
L 188.5505 140.356782 
L 188.875479 140.356782 
L 189.200459 144.892782 
L 189.525438 144.892782 
L 190.175397 132.796782 
L 190.500377 131.284782 
L 190.825356 137.332782 
L 191.150336 140.356782 
L 191.475315 135.820782 
L 191.800295 126.748782 
L 192.125274 122.212782 
L 193.100213 134.308782 
L 193.750172 122.212782 
L 194.075152 122.212782 
L 194.725111 129.772782 
L 195.37507 122.212782 
L 195.700049 120.700782 
L 196.025029 126.748782 
L 196.350008 129.772782 
L 196.674988 128.260782 
L 197.324947 119.188782 
L 197.974906 125.236782 
L 198.299885 129.772782 
L 199.274824 125.236782 
L 199.924783 131.284782 
L 200.574742 128.260782 
L 200.899722 128.260782 
L 201.87466 132.796782 
L 202.19964 129.772782 
L 202.849599 129.772782 
L 204.149517 135.820782 
L 204.474496 132.796782 
L 204.799476 134.308782 
L 205.124455 134.308782 
L 205.449435 131.284782 
L 205.774414 134.308782 
L 206.099394 132.796782 
L 206.424373 135.820782 
L 206.749353 135.820782 
L 207.074333 134.308782 
L 207.399312 134.308782 
L 207.724292 132.796782 
L 208.049271 132.796782 
L 208.374251 134.308782 
L 208.69923 134.308782 
L 209.02421 132.796782 
L 209.349189 134.308782 
L 209.674169 132.796782 
L 209.999148 132.796782 
L 210.324128 134.308782 
L 210.649107 131.284782 
L 210.974087 132.796782 
L 211.299066 129.772782 
L 211.624046 132.796782 
L 211.949025 131.284782 
L 212.274005 132.796782 
L 213.573923 126.748782 
L 213.898903 126.748782 
L 214.223882 128.260782 
L 214.873841 128.260782 
L 215.5238 125.236782 
L 216.173759 125.236782 
L 216.498739 122.212782 
L 216.823718 126.748782 
L 217.473677 123.724782 
L 217.798657 120.700782 
L 218.448616 120.700782 
L 219.098575 123.724782 
L 219.423554 122.212782 
L 219.748534 122.212782 
L 220.073514 120.700782 
L 220.723473 123.724782 
L 221.373432 123.724782 
L 221.698411 120.700782 
L 222.023391 123.724782 
L 222.34837 123.724782 
L 222.67335 126.748782 
L 223.973268 126.748782 
L 224.623227 129.772782 
L 224.948206 132.796782 
L 225.273186 132.796782 
L 226.573104 138.844782 
L 226.898084 138.844782 
L 227.223063 141.868782 
L 227.548043 143.380782 
L 227.873022 146.404782 
L 229.17294 152.452782 
L 229.49792 155.476782 
L 229.822899 156.988782 
L 230.147879 160.012782 
L 230.472858 161.524782 
L 230.797838 164.548782 
L 231.122817 169.084782 
L 231.447797 167.572782 
L 231.772776 172.108782 
L 232.097756 172.108782 
L 232.747715 179.668782 
L 233.072695 181.180782 
L 233.722654 187.228782 
L 234.697592 191.764782 
L 235.99751 203.860782 
L 236.647469 206.884782 
L 236.972449 206.884782 
L 237.297428 208.396782 
L 237.622408 212.932782 
L 237.947387 212.932782 
L 238.272367 215.956782 
L 239.897265 223.516782 
L 240.222244 222.004782 
L 240.547224 225.028782 
L 241.522162 229.564782 
L 241.847142 229.564782 
L 242.497101 226.540782 
L 242.82208 229.564782 
L 243.472039 226.540782 
L 244.771957 226.540782 
L 245.096937 225.028782 
L 245.421916 225.028782 
L 245.746896 223.516782 
L 246.071876 225.028782 
L 246.396855 223.516782 
L 246.721835 225.028782 
L 247.046814 223.516782 
L 247.371794 223.516782 
L 247.696773 222.004782 
L 248.021753 223.516782 
L 248.671712 223.516782 
L 248.996691 222.004782 
L 249.321671 222.004782 
L 250.296609 226.540782 
L 250.946568 223.516782 
L 251.271548 225.028782 
L 251.596527 228.052782 
L 251.921507 226.540782 
L 252.246486 223.516782 
L 252.571466 225.028782 
L 252.896446 225.028782 
L 253.221425 226.540782 
L 253.546405 226.540782 
L 253.871384 225.028782 
L 254.196364 225.028782 
L 254.521343 223.516782 
L 256.47122 223.516782 
L 257.121179 226.540782 
L 257.446159 225.028782 
L 257.771138 226.540782 
L 258.096118 225.028782 
L 258.421097 225.028782 
L 258.746077 223.516782 
L 259.071057 225.028782 
L 259.396036 223.516782 
L 259.721016 226.540782 
L 260.045995 226.540782 
L 260.370975 225.028782 
L 260.695954 225.028782 
L 261.020934 223.516782 
L 261.345913 225.028782 
L 261.995872 225.028782 
L 262.320852 226.540782 
L 262.645831 226.540782 
L 263.29579 223.516782 
L 263.62077 225.028782 
L 263.945749 225.028782 
L 264.270729 226.540782 
L 264.595708 225.028782 
L 264.920688 225.028782 
L 265.245667 226.540782 
L 265.570647 223.516782 
L 265.895627 225.028782 
L 266.220606 225.028782 
L 266.545586 226.540782 
L 266.870565 226.540782 
L 267.195545 225.028782 
L 267.520524 225.028782 
L 267.845504 223.516782 
L 268.170483 226.540782 
L 268.495463 225.028782 
L 268.820442 226.540782 
L 269.145422 225.028782 
L 269.470401 226.540782 
L 269.795381 225.028782 
L 270.12036 226.540782 
L 270.770319 226.540782 
L 271.095299 225.028782 
L 271.420278 225.028782 
L 271.745258 226.540782 
L 272.070238 225.028782 
L 272.395217 225.028782 
L 272.720197 226.540782 
L 273.045176 223.516782 
L 273.370156 225.028782 
L 273.695135 225.028782 
L 274.020115 226.540782 
L 274.345094 225.028782 
L 274.670074 226.540782 
L 275.969992 226.540782 
L 276.294971 223.516782 
L 278.244848 196.300782 
L 278.569828 196.300782 
L 278.894808 199.324782 
L 279.219787 200.836782 
L 279.544767 194.788782 
L 280.519705 169.084782 
L 281.494644 182.692782 
L 281.819623 173.620782 
L 282.144603 158.500782 
L 282.469582 149.428782 
L 282.794562 149.428782 
L 283.119541 160.012782 
L 283.444521 163.036782 
L 283.7695 158.500782 
L 284.09448 146.404782 
L 284.419459 140.356782 
L 284.744439 138.844782 
L 285.069419 144.892782 
L 285.394398 144.892782 
L 286.044357 132.796782 
L 286.369337 131.284782 
L 287.019296 138.844782 
L 287.344275 137.332782 
L 287.669255 126.748782 
L 287.994234 123.724782 
L 288.644193 129.772782 
L 288.969173 134.308782 
L 289.294152 126.748782 
L 289.619132 125.236782 
L 289.944111 122.212782 
L 290.269091 126.748782 
L 290.59407 126.748782 
L 290.91905 125.236782 
L 291.244029 120.700782 
L 291.569009 120.700782 
L 292.218968 129.772782 
L 292.543948 128.260782 
L 293.193907 120.700782 
L 294.168845 129.772782 
L 294.818804 126.748782 
L 295.143784 123.724782 
L 295.468763 125.236782 
L 295.793743 128.260782 
L 296.118722 129.772782 
L 296.443702 129.772782 
L 296.768681 128.260782 
L 297.093661 129.772782 
L 297.41864 132.796782 
L 298.0686 132.796782 
L 298.393579 129.772782 
L 298.718559 131.284782 
L 299.043538 131.284782 
L 299.368518 134.308782 
L 299.693497 134.308782 
L 300.018477 135.820782 
L 300.343456 131.284782 
L 300.668436 132.796782 
L 301.643374 132.796782 
L 302.293333 135.820782 
L 302.618313 134.308782 
L 302.943292 135.820782 
L 303.268272 132.796782 
L 303.593251 132.796782 
L 303.918231 134.308782 
L 304.24321 134.308782 
L 304.56819 135.820782 
L 304.89317 132.796782 
L 305.218149 132.796782 
L 305.543129 131.284782 
L 305.868108 132.796782 
L 306.518067 132.796782 
L 307.168026 129.772782 
L 307.817985 129.772782 
L 308.142965 131.284782 
L 308.792924 128.260782 
L 309.117903 128.260782 
L 309.442883 126.748782 
L 310.092842 126.748782 
L 310.417821 129.772782 
L 310.742801 126.748782 
L 311.067781 126.748782 
L 311.39276 123.724782 
L 311.71774 122.212782 
L 312.042719 122.212782 
L 312.692678 125.236782 
L 313.017658 123.724782 
L 313.342637 123.724782 
L 313.667617 122.212782 
L 314.642555 122.212782 
L 314.967535 123.724782 
L 315.292514 120.700782 
L 315.617494 122.212782 
L 315.942473 120.700782 
L 316.267453 120.700782 
L 316.917412 123.724782 
L 317.242391 122.212782 
L 317.567371 122.212782 
L 317.892351 123.724782 
L 318.21733 123.724782 
L 318.54231 126.748782 
L 318.867289 126.748782 
L 319.192269 125.236782 
L 319.517248 126.748782 
L 319.842228 126.748782 
L 320.492187 129.772782 
L 320.817166 132.796782 
L 321.142146 131.284782 
L 321.467125 134.308782 
L 321.792105 134.308782 
L 322.117084 137.332782 
L 324.066962 146.404782 
L 324.716921 152.452782 
L 325.0419 153.964782 
L 325.36688 153.964782 
L 326.016839 160.012782 
L 326.666798 163.036782 
L 326.991777 166.060782 
L 327.316757 166.060782 
L 327.641736 172.108782 
L 327.966716 172.108782 
L 328.291695 175.132782 
L 328.616675 176.644782 
L 329.266634 184.204782 
L 329.916593 190.252782 
L 330.241572 190.252782 
L 330.891532 193.276782 
L 332.19145 205.372782 
L 332.516429 205.372782 
L 333.166388 208.396782 
L 333.491368 211.420782 
L 333.816347 211.420782 
L 334.466306 217.468782 
L 334.791286 217.468782 
L 335.116265 220.492782 
L 335.441245 222.004782 
L 336.091204 222.004782 
L 336.741163 225.028782 
L 337.066143 225.028782 
L 337.716102 228.052782 
L 338.041081 226.540782 
L 339.990958 226.540782 
L 340.315938 228.052782 
L 340.965897 225.028782 
L 341.290876 222.004782 
L 341.615856 223.516782 
L 341.940835 223.516782 
L 342.265815 225.028782 
L 342.590794 223.516782 
L 342.915774 223.516782 
L 343.240753 222.004782 
L 343.565733 223.516782 
L 343.890713 223.516782 
L 344.215692 225.028782 
L 344.865651 222.004782 
L 345.51561 225.028782 
L 346.165569 225.028782 
L 346.490549 223.516782 
L 346.815528 225.028782 
L 347.140508 223.516782 
L 347.465487 225.028782 
L 347.790467 225.028782 
L 348.115446 226.540782 
L 348.440426 226.540782 
L 348.765405 223.516782 
L 349.090385 225.028782 
L 349.415364 225.028782 
L 349.740344 226.540782 
L 350.390303 223.516782 
L 351.365242 223.516782 
L 351.690221 222.004782 
L 352.015201 225.028782 
L 352.34018 223.516782 
L 352.66516 225.028782 
L 352.990139 223.516782 
L 353.640098 226.540782 
L 353.965078 226.540782 
L 354.290057 225.028782 
L 354.615037 225.028782 
L 354.940016 223.516782 
L 355.264996 225.028782 
L 355.589975 225.028782 
L 355.914955 226.540782 
L 356.239934 225.028782 
L 356.564914 225.028782 
L 356.889894 223.516782 
L 357.214873 223.516782 
L 357.539853 225.028782 
L 358.514791 225.028782 
L 358.839771 223.516782 
L 359.16475 223.516782 
L 359.48973 225.028782 
L 360.139689 225.028782 
L 360.464668 226.540782 
L 360.789648 225.028782 
L 361.114627 226.540782 
L 361.439607 225.028782 
L 361.764586 226.540782 
L 362.089566 225.028782 
L 362.414545 226.540782 
L 362.739525 225.028782 
L 363.064505 225.028782 
L 363.389484 223.516782 
L 363.714464 225.028782 
L 364.039443 223.516782 
L 364.689402 226.540782 
L 365.014382 225.028782 
L 365.339361 226.540782 
L 365.98932 226.540782 
L 366.3143 228.052782 
L 366.639279 228.052782 
L 367.289238 225.028782 
L 367.614218 225.028782 
L 367.939197 223.516782 
L 368.264177 225.028782 
L 368.589156 225.028782 
L 368.914136 226.540782 
L 369.239115 225.028782 
L 369.564095 225.028782 
L 369.889075 223.516782 
L 370.214054 223.516782 
L 370.539034 225.028782 
L 370.864013 225.028782 
L 371.188993 226.540782 
L 371.838952 226.540782 
L 372.163931 225.028782 
L 372.488911 218.980782 
L 372.81389 218.980782 
L 374.113808 196.300782 
L 374.438788 196.300782 
L 374.763767 200.836782 
L 375.088747 200.836782 
L 375.738706 184.204782 
L 376.063686 173.620782 
L 376.388665 169.084782 
L 376.713645 173.620782 
L 377.038624 181.180782 
L 377.363604 181.180782 
L 377.688583 172.108782 
L 378.338542 149.428782 
L 378.663522 150.940782 
L 379.313481 164.548782 
L 379.63846 156.988782 
L 380.288419 138.844782 
L 380.613399 140.356782 
L 380.938378 144.892782 
L 381.263358 146.404782 
L 381.913317 132.796782 
L 382.238296 131.284782 
L 382.563276 137.332782 
L 382.888256 138.844782 
L 383.213235 137.332782 
L 383.538215 125.236782 
L 383.863194 122.212782 
L 384.188174 125.236782 
L 384.513153 132.796782 
L 384.838133 134.308782 
L 385.488092 123.724782 
L 385.813071 123.724782 
L 386.46303 129.772782 
L 386.78801 125.236782 
L 387.437969 122.212782 
L 388.087928 129.772782 
L 388.412907 129.772782 
L 388.737887 123.724782 
L 389.062867 120.700782 
L 389.387846 122.212782 
L 389.712826 128.260782 
L 390.037805 129.772782 
L 391.012744 125.236782 
L 391.337723 126.748782 
L 391.662703 129.772782 
L 391.987682 128.260782 
L 392.637641 128.260782 
L 392.962621 131.284782 
L 393.2876 131.284782 
L 393.61258 134.308782 
L 393.937559 131.284782 
L 394.262539 129.772782 
L 394.587518 129.772782 
L 395.562457 134.308782 
L 396.537396 134.308782 
L 396.862375 132.796782 
L 397.187355 134.308782 
L 397.512334 134.308782 
L 397.837314 135.820782 
L 398.162293 134.308782 
L 398.487273 134.308782 
L 398.487273 134.308782 
" clip-path="url(#pc9745e6ceb)" style="fill: none; stroke: #1f77b4; stroke-width: 1.5; stroke-linecap: square"/>
   </g>
   <g id="line2d_15">
    <path d="M 73.832727 132.796782 
L 74.157707 132.796782 
L 74.807666 129.772782 
L 75.132645 129.772782 
L 75.457625 128.260782 
L 76.107584 128.260782 
L 76.432563 126.748782 
L 77.082523 126.748782 
L 77.407502 125.236782 
L 77.732482 125.236782 
L 78.057461 126.748782 
L 78.70742 123.724782 
L 79.0324 123.724782 
L 79.357379 122.212782 
L 79.682359 122.212782 
L 80.007338 120.700782 
L 80.657297 120.700782 
L 80.982277 122.212782 
L 81.307256 122.212782 
L 81.632236 120.700782 
L 82.282195 120.700782 
L 82.932154 123.724782 
L 83.257133 123.724782 
L 83.582113 125.236782 
L 83.907093 123.724782 
L 84.557052 123.724782 
L 84.882031 128.260782 
L 85.85697 128.260782 
L 86.181949 131.284782 
L 86.506929 132.796782 
L 86.831908 132.796782 
L 87.156888 134.308782 
L 87.481867 137.332782 
L 87.806847 138.844782 
L 88.456806 144.892782 
L 88.781785 146.404782 
L 89.106765 146.404782 
L 89.431744 147.916782 
L 89.756724 150.940782 
L 90.081704 152.452782 
L 90.731663 158.500782 
L 91.056642 158.500782 
L 91.706601 167.572782 
L 92.031581 169.084782 
L 92.68154 175.132782 
L 93.006519 173.620782 
L 93.981458 185.716782 
L 94.631417 188.740782 
L 95.606355 197.812782 
L 95.931335 202.348782 
L 97.231253 208.396782 
L 97.556233 208.396782 
L 98.206192 215.956782 
L 98.531171 218.980782 
L 98.856151 220.492782 
L 99.18113 218.980782 
L 99.50611 218.980782 
L 100.481048 228.052782 
L 100.806028 229.564782 
L 101.131007 229.564782 
L 101.455987 228.052782 
L 102.105946 231.076782 
L 102.430925 229.564782 
L 102.755905 229.564782 
L 103.730844 225.028782 
L 104.055823 226.540782 
L 104.380803 226.540782 
L 104.705782 225.028782 
L 105.030762 222.004782 
L 105.355741 222.004782 
L 105.680721 220.492782 
L 106.33068 220.492782 
L 106.655659 218.980782 
L 106.980639 222.004782 
L 107.305618 222.004782 
L 107.630598 220.492782 
L 108.280557 223.516782 
L 108.605536 222.004782 
L 108.930516 225.028782 
L 109.905455 225.028782 
L 110.230434 222.004782 
L 110.555414 223.516782 
L 110.880393 223.516782 
L 111.205373 225.028782 
L 111.530352 225.028782 
L 111.855332 226.540782 
L 112.180311 226.540782 
L 112.505291 225.028782 
L 112.83027 225.028782 
L 113.15525 226.540782 
L 113.480229 226.540782 
L 113.805209 228.052782 
L 114.455168 225.028782 
L 115.755086 225.028782 
L 116.080066 226.540782 
L 116.405045 225.028782 
L 118.354922 225.028782 
L 118.679902 226.540782 
L 119.004881 225.028782 
L 119.65484 225.028782 
L 119.97982 226.540782 
L 120.629779 226.540782 
L 121.279738 223.516782 
L 121.604717 225.028782 
L 122.254676 225.028782 
L 122.579656 226.540782 
L 122.904636 226.540782 
L 123.229615 225.028782 
L 123.554595 225.028782 
L 123.879574 226.540782 
L 124.204554 225.028782 
L 124.529533 226.540782 
L 125.504472 226.540782 
L 125.829451 225.028782 
L 126.47941 225.028782 
L 127.129369 228.052782 
L 127.454349 226.540782 
L 128.104308 226.540782 
L 128.429287 225.028782 
L 128.754267 225.028782 
L 129.079247 226.540782 
L 129.404226 225.028782 
L 129.729206 225.028782 
L 130.054185 223.516782 
L 131.029124 228.052782 
L 131.354103 228.052782 
L 131.679083 226.540782 
L 132.654021 226.540782 
L 132.979001 228.052782 
L 133.62896 225.028782 
L 134.278919 225.028782 
L 134.603898 223.516782 
L 135.578837 228.052782 
L 135.903817 228.052782 
L 136.228796 226.540782 
L 136.553776 226.540782 
L 137.203735 223.516782 
L 137.528714 220.492782 
L 137.853694 214.444782 
L 138.178673 211.420782 
L 138.503653 209.908782 
L 139.153612 203.860782 
L 139.803571 194.788782 
L 140.12855 187.228782 
L 140.778509 181.180782 
L 141.103489 179.668782 
L 141.428468 176.644782 
L 141.753448 175.132782 
L 142.078428 170.596782 
L 142.403407 163.036782 
L 142.728387 158.500782 
L 143.053366 156.988782 
L 143.378346 156.988782 
L 143.703325 152.452782 
L 144.028305 150.940782 
L 144.678264 143.380782 
L 145.003243 140.356782 
L 145.653202 137.332782 
L 146.303161 128.260782 
L 146.628141 128.260782 
L 146.95312 129.772782 
L 147.2781 129.772782 
L 147.603079 126.748782 
L 148.253038 119.188782 
L 148.578018 119.188782 
L 148.902998 122.212782 
L 149.227977 123.724782 
L 149.552957 120.700782 
L 149.877936 119.188782 
L 150.202916 114.652782 
L 150.852875 117.676782 
L 151.177854 120.700782 
L 151.827813 117.676782 
L 152.152793 119.188782 
L 152.477772 119.188782 
L 152.802752 120.700782 
L 153.127731 117.676782 
L 153.452711 119.188782 
L 153.77769 119.188782 
L 154.752629 123.724782 
L 155.077609 123.724782 
L 155.402588 120.700782 
L 156.052547 123.724782 
L 156.377527 128.260782 
L 156.702506 125.236782 
L 157.352465 128.260782 
L 158.002424 128.260782 
L 158.977363 132.796782 
L 159.302342 132.796782 
L 159.952301 135.820782 
L 160.60226 132.796782 
L 160.92724 134.308782 
L 161.252219 137.332782 
L 161.577199 138.844782 
L 161.902179 137.332782 
L 163.202097 137.332782 
L 163.527076 138.844782 
L 163.852056 138.844782 
L 164.177035 140.356782 
L 164.502015 140.356782 
L 164.826994 137.332782 
L 165.151974 138.844782 
L 165.476953 138.844782 
L 165.801933 137.332782 
L 166.126912 137.332782 
L 166.451892 138.844782 
L 166.776871 138.844782 
L 167.101851 137.332782 
L 167.42683 137.332782 
L 168.07679 134.308782 
L 168.401769 134.308782 
L 168.726749 135.820782 
L 169.051728 134.308782 
L 169.701687 134.308782 
L 170.026667 132.796782 
L 170.351646 132.796782 
L 170.676626 131.284782 
L 171.001605 128.260782 
L 171.326585 129.772782 
L 171.976544 129.772782 
L 172.951482 125.236782 
L 174.57638 125.236782 
L 174.90136 123.724782 
L 175.876298 123.724782 
L 176.526257 120.700782 
L 176.851237 123.724782 
L 177.501196 123.724782 
L 177.826175 120.700782 
L 178.151155 120.700782 
L 178.801114 123.724782 
L 179.451073 123.724782 
L 179.776052 125.236782 
L 180.101032 123.724782 
L 180.426011 123.724782 
L 180.750991 128.260782 
L 181.075971 128.260782 
L 181.40095 126.748782 
L 181.72593 129.772782 
L 182.050909 131.284782 
L 182.375889 134.308782 
L 182.700868 132.796782 
L 183.025848 134.308782 
L 183.350827 137.332782 
L 183.675807 138.844782 
L 184.325766 144.892782 
L 184.650745 144.892782 
L 185.625684 149.428782 
L 186.275643 156.988782 
L 186.600622 156.988782 
L 186.925602 158.500782 
L 187.250581 163.036782 
L 187.575561 164.548782 
L 188.22552 170.596782 
L 188.5505 175.132782 
L 189.200459 178.156782 
L 189.850418 187.228782 
L 190.175397 188.740782 
L 190.500377 191.764782 
L 191.150336 194.788782 
L 191.475315 199.324782 
L 191.800295 199.324782 
L 192.125274 203.860782 
L 193.425192 209.908782 
L 193.750172 212.932782 
L 194.075152 217.468782 
L 194.725111 220.492782 
L 195.05009 218.980782 
L 195.37507 222.004782 
L 196.025029 225.028782 
L 196.350008 228.052782 
L 196.674988 229.564782 
L 196.999967 228.052782 
L 197.649926 228.052782 
L 197.974906 231.076782 
L 198.299885 231.076782 
L 199.274824 226.540782 
L 199.599803 228.052782 
L 199.924783 226.540782 
L 200.249762 226.540782 
L 200.899722 223.516782 
L 201.224701 220.492782 
L 201.549681 220.492782 
L 201.87466 218.980782 
L 202.524619 218.980782 
L 202.849599 222.004782 
L 203.824537 222.004782 
L 204.149517 223.516782 
L 204.474496 223.516782 
L 204.799476 225.028782 
L 205.449435 225.028782 
L 205.774414 226.540782 
L 206.424373 223.516782 
L 207.074333 226.540782 
L 207.399312 225.028782 
L 207.724292 225.028782 
L 208.049271 226.540782 
L 208.374251 226.540782 
L 208.69923 225.028782 
L 209.02421 225.028782 
L 209.349189 228.052782 
L 209.999148 228.052782 
L 210.324128 225.028782 
L 210.649107 225.028782 
L 210.974087 226.540782 
L 211.299066 225.028782 
L 211.624046 225.028782 
L 211.949025 226.540782 
L 212.274005 226.540782 
L 212.923964 223.516782 
L 213.248943 223.516782 
L 213.898903 226.540782 
L 214.223882 225.028782 
L 214.548862 226.540782 
L 214.873841 223.516782 
L 215.198821 225.028782 
L 215.84878 225.028782 
L 216.173759 226.540782 
L 216.498739 226.540782 
L 216.823718 225.028782 
L 217.473677 225.028782 
L 217.798657 223.516782 
L 218.123636 225.028782 
L 218.448616 225.028782 
L 218.773595 226.540782 
L 219.098575 225.028782 
L 219.748534 225.028782 
L 220.073514 223.516782 
L 220.398493 226.540782 
L 220.723473 226.540782 
L 221.048452 225.028782 
L 221.373432 226.540782 
L 221.698411 225.028782 
L 224.298247 225.028782 
L 224.948206 228.052782 
L 225.273186 225.028782 
L 225.598165 226.540782 
L 225.923145 225.028782 
L 226.248124 225.028782 
L 226.573104 226.540782 
L 227.873022 226.540782 
L 228.198002 225.028782 
L 228.522981 225.028782 
L 228.847961 226.540782 
L 229.822899 226.540782 
L 230.147879 225.028782 
L 230.472858 226.540782 
L 231.447797 226.540782 
L 231.772776 228.052782 
L 232.097756 228.052782 
L 233.072695 223.516782 
L 234.047633 211.420782 
L 234.372613 208.396782 
L 234.697592 206.884782 
L 236.647469 181.180782 
L 237.297428 178.156782 
L 237.622408 175.132782 
L 237.947387 170.596782 
L 238.272367 163.036782 
L 238.922326 155.476782 
L 239.247305 156.988782 
L 239.572285 155.476782 
L 240.547224 141.868782 
L 240.872203 141.868782 
L 241.197183 140.356782 
L 241.522162 137.332782 
L 242.172121 129.772782 
L 242.497101 129.772782 
L 242.82208 131.284782 
L 243.14706 131.284782 
L 244.121998 119.188782 
L 245.096937 123.724782 
L 245.746896 117.676782 
L 246.396855 117.676782 
L 246.721835 119.188782 
L 247.046814 117.676782 
L 247.371794 119.188782 
L 247.696773 117.676782 
L 248.021753 117.676782 
L 248.346732 120.700782 
L 249.321671 116.164782 
L 249.97163 122.212782 
L 250.296609 122.212782 
L 250.621589 123.724782 
L 250.946568 122.212782 
L 251.271548 122.212782 
L 251.596527 120.700782 
L 251.921507 123.724782 
L 252.246486 125.236782 
L 252.571466 128.260782 
L 252.896446 128.260782 
L 253.221425 126.748782 
L 253.546405 128.260782 
L 254.196364 128.260782 
L 254.521343 129.772782 
L 254.846323 132.796782 
L 255.171302 134.308782 
L 255.496282 132.796782 
L 256.146241 132.796782 
L 256.7962 135.820782 
L 257.121179 135.820782 
L 257.771138 138.844782 
L 258.421097 135.820782 
L 258.746077 140.356782 
L 259.071057 138.844782 
L 260.695954 138.844782 
L 261.020934 137.332782 
L 261.345913 138.844782 
L 262.320852 138.844782 
L 262.645831 137.332782 
L 263.29579 137.332782 
L 263.62077 135.820782 
L 264.270729 135.820782 
L 264.595708 134.308782 
L 264.920688 134.308782 
L 265.245667 132.796782 
L 265.570647 134.308782 
L 266.870565 128.260782 
L 267.195545 129.772782 
L 267.520524 129.772782 
L 267.845504 128.260782 
L 268.170483 129.772782 
L 268.495463 128.260782 
L 268.820442 125.236782 
L 269.145422 125.236782 
L 269.470401 126.748782 
L 270.12036 123.724782 
L 270.44534 123.724782 
L 270.770319 125.236782 
L 271.745258 120.700782 
L 272.070238 122.212782 
L 272.395217 120.700782 
L 272.720197 122.212782 
L 273.045176 122.212782 
L 273.370156 120.700782 
L 273.695135 122.212782 
L 274.345094 122.212782 
L 274.670074 123.724782 
L 275.645012 123.724782 
L 275.969992 125.236782 
L 276.294971 125.236782 
L 276.94493 128.260782 
L 277.26991 128.260782 
L 278.244848 132.796782 
L 278.569828 135.820782 
L 279.219787 135.820782 
L 279.869746 141.868782 
L 280.194726 141.868782 
L 280.519705 144.892782 
L 280.844685 146.404782 
L 281.169664 149.428782 
L 281.494644 150.940782 
L 282.144603 156.988782 
L 282.469582 158.500782 
L 283.119541 164.548782 
L 283.444521 166.060782 
L 284.09448 172.108782 
L 284.419459 173.620782 
L 286.044357 188.740782 
L 286.369337 190.252782 
L 286.694316 193.276782 
L 287.019296 193.276782 
L 287.669255 199.324782 
L 288.319214 206.884782 
L 288.644193 209.908782 
L 288.969173 209.908782 
L 289.294152 211.420782 
L 289.619132 214.444782 
L 289.944111 215.956782 
L 290.269091 220.492782 
L 291.244029 220.492782 
L 292.218968 229.564782 
L 292.868927 229.564782 
L 293.193907 228.052782 
L 293.518886 229.564782 
L 293.843866 229.564782 
L 294.168845 231.076782 
L 294.818804 228.052782 
L 295.143784 229.564782 
L 295.468763 228.052782 
L 295.793743 225.028782 
L 296.443702 225.028782 
L 297.093661 222.004782 
L 297.74362 222.004782 
L 298.0686 218.980782 
L 298.718559 222.004782 
L 299.043538 222.004782 
L 299.368518 223.516782 
L 299.693497 222.004782 
L 300.343456 222.004782 
L 300.668436 225.028782 
L 302.293333 225.028782 
L 302.618313 222.004782 
L 302.943292 223.516782 
L 303.268272 226.540782 
L 303.593251 226.540782 
L 303.918231 225.028782 
L 304.24321 226.540782 
L 304.56819 225.028782 
L 305.218149 225.028782 
L 305.543129 226.540782 
L 305.868108 226.540782 
L 306.193088 225.028782 
L 306.518067 225.028782 
L 306.843047 223.516782 
L 307.168026 226.540782 
L 307.493006 228.052782 
L 307.817985 225.028782 
L 308.142965 225.028782 
L 308.467944 223.516782 
L 309.117903 223.516782 
L 309.442883 225.028782 
L 311.39276 225.028782 
L 311.71774 226.540782 
L 312.367699 226.540782 
L 313.017658 223.516782 
L 313.667617 223.516782 
L 313.992596 226.540782 
L 314.317576 226.540782 
L 314.642555 225.028782 
L 315.942473 225.028782 
L 316.267453 228.052782 
L 316.592432 225.028782 
L 316.917412 225.028782 
L 317.242391 226.540782 
L 317.567371 226.540782 
L 317.892351 225.028782 
L 318.21733 225.028782 
L 318.54231 226.540782 
L 318.867289 225.028782 
L 319.192269 226.540782 
L 320.817166 226.540782 
L 321.142146 228.052782 
L 321.467125 226.540782 
L 321.792105 223.516782 
L 322.117084 223.516782 
L 322.442064 226.540782 
L 322.767043 228.052782 
L 323.092023 228.052782 
L 323.417002 225.028782 
L 323.741982 225.028782 
L 324.066962 226.540782 
L 324.391941 226.540782 
L 324.716921 225.028782 
L 325.0419 226.540782 
L 325.691859 226.540782 
L 326.016839 225.028782 
L 326.341818 226.540782 
L 327.316757 226.540782 
L 327.641736 228.052782 
L 327.966716 228.052782 
L 328.616675 225.028782 
L 329.591613 215.956782 
L 330.241572 208.396782 
L 330.566552 206.884782 
L 332.516429 181.180782 
L 332.841409 178.156782 
L 333.166388 178.156782 
L 334.141327 163.036782 
L 334.466306 156.988782 
L 334.791286 155.476782 
L 335.116265 155.476782 
L 335.441245 153.964782 
L 335.766224 150.940782 
L 336.416183 141.868782 
L 336.741163 141.868782 
L 337.066143 140.356782 
L 338.041081 128.260782 
L 338.69104 131.284782 
L 339.01602 129.772782 
L 339.340999 126.748782 
L 339.665979 120.700782 
L 340.315938 117.676782 
L 340.640917 122.212782 
L 340.965897 123.724782 
L 341.615856 117.676782 
L 341.940835 116.164782 
L 342.265815 117.676782 
L 342.590794 117.676782 
L 342.915774 119.188782 
L 343.240753 117.676782 
L 343.565733 117.676782 
L 343.890713 119.188782 
L 344.540672 119.188782 
L 344.865651 117.676782 
L 345.190631 117.676782 
L 345.51561 119.188782 
L 345.84059 119.188782 
L 346.165569 123.724782 
L 346.490549 123.724782 
L 347.140508 120.700782 
L 347.465487 122.212782 
L 347.790467 122.212782 
L 348.115446 126.748782 
L 348.440426 126.748782 
L 348.765405 128.260782 
L 349.090385 128.260782 
L 349.415364 126.748782 
L 350.065324 129.772782 
L 350.390303 129.772782 
L 351.365242 134.308782 
L 351.690221 134.308782 
L 352.015201 131.284782 
L 352.66516 134.308782 
L 352.990139 134.308782 
L 353.965078 138.844782 
L 354.615037 135.820782 
L 354.940016 137.332782 
L 355.264996 137.332782 
L 355.589975 138.844782 
L 355.914955 138.844782 
L 356.239934 137.332782 
L 356.889894 140.356782 
L 357.214873 137.332782 
L 357.539853 138.844782 
L 357.864832 138.844782 
L 358.189812 137.332782 
L 359.16475 137.332782 
L 359.814709 134.308782 
L 360.139689 135.820782 
L 360.464668 135.820782 
L 361.114627 132.796782 
L 361.764586 132.796782 
L 362.414545 129.772782 
L 362.739525 129.772782 
L 363.064505 131.284782 
L 363.389484 128.260782 
L 363.714464 129.772782 
L 364.039443 128.260782 
L 364.364423 128.260782 
L 364.689402 125.236782 
L 365.014382 123.724782 
L 365.339361 125.236782 
L 365.664341 125.236782 
L 365.98932 126.748782 
L 366.639279 123.724782 
L 367.289238 123.724782 
L 367.614218 122.212782 
L 369.239115 122.212782 
L 369.564095 120.700782 
L 369.889075 120.700782 
L 370.539034 123.724782 
L 370.864013 123.724782 
L 371.188993 125.236782 
L 371.838952 125.236782 
L 372.163931 126.748782 
L 372.81389 126.748782 
L 373.13887 128.260782 
L 373.463849 131.284782 
L 373.788829 131.284782 
L 374.113808 132.796782 
L 374.438788 135.820782 
L 374.763767 137.332782 
L 375.088747 135.820782 
L 376.063686 144.892782 
L 376.388665 146.404782 
L 376.713645 146.404782 
L 377.363604 152.452782 
L 378.013563 155.476782 
L 378.338542 160.012782 
L 378.988501 163.036782 
L 379.313481 166.060782 
L 379.63846 170.596782 
L 379.96344 172.108782 
L 380.288419 175.132782 
L 380.613399 175.132782 
L 380.938378 178.156782 
L 381.588337 187.228782 
L 382.238296 190.252782 
L 382.888256 196.300782 
L 383.213235 196.300782 
L 383.538215 199.324782 
L 383.863194 205.372782 
L 385.163112 211.420782 
L 385.488092 214.444782 
L 385.813071 215.956782 
L 386.138051 218.980782 
L 386.46303 220.492782 
L 387.112989 220.492782 
L 387.437969 222.004782 
L 387.762948 226.540782 
L 388.412907 229.564782 
L 389.712826 229.564782 
L 390.037805 231.076782 
L 390.362785 231.076782 
L 391.012744 228.052782 
L 391.337723 228.052782 
L 391.662703 226.540782 
L 391.987682 226.540782 
L 392.962621 222.004782 
L 393.2876 222.004782 
L 393.61258 218.980782 
L 393.937559 220.492782 
L 394.262539 220.492782 
L 394.587518 218.980782 
L 394.912498 222.004782 
L 395.562457 222.004782 
L 395.887437 223.516782 
L 396.212416 222.004782 
L 397.187355 226.540782 
L 397.837314 223.516782 
L 398.162293 223.516782 
L 398.487273 225.028782 
L 398.487273 225.028782 
" clip-path="url(#pc9745e6ceb)" style="fill: none; stroke: #ff7f0e; stroke-width: 1.5; stroke-linecap: square"/>
   </g>
   <g id="line2d_16">
    <path d="M 73.832727 117.072 
L 74.807666 126.144 
L 75.132645 135.216 
L 75.457625 138.24 
L 75.782604 144.288 
L 76.432563 150.336 
L 77.082523 162.432 
L 77.732482 168.48 
L 78.057461 177.552 
L 78.70742 183.6 
L 79.357379 198.72 
L 79.682359 201.744 
L 80.007338 201.744 
L 80.332318 210.816 
L 80.657297 213.84 
L 81.307256 225.936 
L 81.632236 228.96 
L 81.957215 235.008 
L 82.282195 238.032 
L 82.607174 235.008 
L 83.257133 250.128 
L 83.582113 256.176 
L 83.907093 256.176 
L 84.232072 262.224 
L 84.882031 268.272 
L 85.207011 265.248 
L 85.53199 274.32 
L 85.85697 274.32 
L 86.181949 280.368 
L 86.506929 277.344 
L 86.831908 280.368 
L 87.156888 286.416 
L 87.481867 286.416 
L 87.806847 283.392 
L 88.456806 289.44 
L 88.781785 289.44 
L 89.106765 286.416 
L 90.081704 295.488 
L 90.406683 289.44 
L 90.731663 292.464 
L 91.381622 292.464 
L 91.706601 286.416 
L 92.68154 286.416 
L 93.006519 280.368 
L 93.331499 280.368 
L 93.656478 283.392 
L 94.306437 271.296 
L 94.631417 271.296 
L 94.956396 268.272 
L 95.281376 271.296 
L 95.606355 265.248 
L 95.931335 265.248 
L 96.256314 253.152 
L 96.581294 253.152 
L 97.231253 247.104 
L 97.556233 247.104 
L 97.881212 241.056 
L 98.206192 231.984 
L 98.856151 231.984 
L 99.18113 228.96 
L 99.50611 216.864 
L 99.831089 216.864 
L 100.156069 207.792 
L 100.481048 207.792 
L 100.806028 198.72 
L 101.131007 201.744 
L 101.455987 192.672 
L 101.780966 189.648 
L 102.105946 180.576 
L 102.755905 174.528 
L 103.080885 174.528 
L 103.405864 162.432 
L 103.730844 156.384 
L 104.055823 156.384 
L 104.705782 144.288 
L 105.030762 144.288 
L 106.0057 126.144 
L 106.33068 123.12 
L 106.655659 117.072 
L 106.980639 120.096 
L 107.305618 117.072 
L 107.630598 108 
L 107.955577 104.976 
L 108.280557 104.976 
L 108.605536 95.904 
L 108.930516 95.904 
L 110.230434 83.808 
L 110.880393 83.808 
L 111.205373 77.76 
L 111.530352 77.76 
L 111.855332 71.712 
L 112.180311 74.736 
L 112.83027 68.688 
L 113.15525 71.712 
L 113.480229 71.712 
L 113.805209 65.664 
L 114.130188 68.688 
L 114.780147 68.688 
L 115.105127 65.664 
L 115.430106 71.712 
L 115.755086 71.712 
L 116.080066 74.736 
L 116.405045 68.688 
L 116.730025 74.736 
L 117.055004 71.712 
L 117.379984 77.76 
L 117.704963 77.76 
L 118.679902 86.832 
L 119.004881 86.832 
L 119.97982 95.904 
L 120.304799 95.904 
L 120.629779 108 
L 120.954758 108 
L 121.279738 114.048 
L 121.604717 114.048 
L 121.929697 123.12 
L 122.254676 123.12 
L 122.579656 129.168 
L 123.229615 135.216 
L 123.554595 144.288 
L 123.879574 144.288 
L 124.204554 147.312 
L 124.529533 153.36 
L 124.854513 156.384 
L 125.179492 162.432 
L 125.504472 165.456 
L 125.829451 177.552 
L 126.47941 183.6 
L 126.80439 183.6 
L 127.129369 189.648 
L 127.454349 192.672 
L 128.429287 210.816 
L 129.729206 222.912 
L 130.054185 231.984 
L 130.379165 231.984 
L 131.029124 238.032 
L 131.679083 253.152 
L 132.004062 250.128 
L 132.329042 256.176 
L 132.654021 256.176 
L 132.979001 262.224 
L 133.30398 265.248 
L 133.62896 265.248 
L 133.953939 271.296 
L 134.278919 274.32 
L 134.603898 271.296 
L 135.253857 277.344 
L 135.903817 277.344 
L 136.553776 283.392 
L 136.878755 289.44 
L 137.203735 280.368 
L 137.528714 286.416 
L 138.178673 286.416 
L 138.503653 283.392 
L 139.153612 283.392 
L 139.478591 286.416 
L 139.803571 280.368 
L 140.12855 283.392 
L 140.45353 283.392 
L 141.103489 277.344 
L 142.078428 277.344 
L 142.403407 265.248 
L 142.728387 271.296 
L 143.053366 265.248 
L 143.378346 265.248 
L 143.703325 262.224 
L 144.028305 256.176 
L 144.353284 253.152 
L 144.678264 253.152 
L 145.003243 244.08 
L 145.978182 235.008 
L 146.303161 228.96 
L 146.628141 228.96 
L 146.95312 222.912 
L 147.2781 219.888 
L 147.603079 210.816 
L 147.928059 210.816 
L 148.253038 204.768 
L 148.578018 201.744 
L 148.902998 195.696 
L 149.227977 192.672 
L 149.552957 186.624 
L 149.877936 183.6 
L 150.527895 168.48 
L 150.852875 168.48 
L 151.502834 156.384 
L 151.827813 156.384 
L 152.477772 144.288 
L 152.802752 135.216 
L 153.127731 135.216 
L 153.452711 126.144 
L 153.77769 126.144 
L 154.10267 120.096 
L 154.752629 114.048 
L 155.077609 108 
L 155.402588 98.928 
L 155.727568 98.928 
L 156.052547 95.904 
L 156.377527 89.856 
L 156.702506 86.832 
L 157.027486 86.832 
L 157.352465 83.808 
L 157.677445 83.808 
L 158.002424 74.736 
L 158.327404 74.736 
L 158.977363 68.688 
L 159.302342 68.688 
L 159.627322 65.664 
L 159.952301 65.664 
L 160.277281 62.64 
L 160.60226 56.592 
L 160.92724 62.64 
L 161.252219 62.64 
L 161.577199 59.616 
L 161.902179 53.568 
L 162.227158 59.616 
L 162.552138 59.616 
L 162.877117 62.64 
L 163.202097 56.592 
L 163.527076 62.64 
L 163.852056 62.64 
L 164.177035 65.664 
L 164.826994 65.664 
L 165.151974 68.688 
L 165.801933 68.688 
L 166.126912 74.736 
L 167.101851 83.808 
L 167.42683 89.856 
L 168.07679 95.904 
L 168.401769 95.904 
L 168.726749 101.952 
L 169.051728 104.976 
L 169.376708 111.024 
L 169.701687 114.048 
L 170.026667 120.096 
L 170.351646 120.096 
L 170.676626 129.168 
L 171.001605 129.168 
L 171.976544 147.312 
L 172.301523 147.312 
L 172.626503 156.384 
L 172.951482 159.408 
L 173.276462 165.456 
L 173.601441 165.456 
L 174.2514 180.576 
L 174.57638 183.6 
L 174.90136 189.648 
L 175.226339 198.72 
L 175.551319 201.744 
L 175.876298 207.792 
L 176.201278 207.792 
L 176.851237 219.888 
L 177.501196 225.936 
L 178.476134 244.08 
L 178.801114 241.056 
L 179.126093 250.128 
L 179.451073 250.128 
L 179.776052 253.152 
L 180.101032 259.2 
L 180.426011 259.2 
L 181.075971 271.296 
L 181.40095 271.296 
L 182.050909 277.344 
L 182.375889 277.344 
L 183.025848 283.392 
L 183.350827 283.392 
L 183.675807 286.416 
L 184.000786 280.368 
L 184.325766 286.416 
L 184.650745 286.416 
L 184.975725 289.44 
L 185.950663 289.44 
L 186.275643 292.464 
L 186.600622 286.416 
L 186.925602 286.416 
L 187.250581 289.44 
L 187.575561 289.44 
L 187.900541 283.392 
L 188.22552 286.416 
L 188.5505 283.392 
L 188.875479 283.392 
L 189.200459 277.344 
L 189.525438 280.368 
L 190.500377 271.296 
L 190.825356 271.296 
L 191.150336 265.248 
L 191.475315 265.248 
L 191.800295 256.176 
L 192.450254 256.176 
L 192.775233 253.152 
L 193.100213 247.104 
L 193.425192 244.08 
L 193.750172 238.032 
L 194.075152 235.008 
L 194.400131 225.936 
L 194.725111 231.984 
L 195.700049 213.84 
L 196.025029 210.816 
L 196.350008 204.768 
L 196.674988 201.744 
L 196.999967 195.696 
L 197.324947 195.696 
L 197.974906 183.6 
L 198.299885 174.528 
L 198.624865 174.528 
L 198.949844 168.48 
L 199.274824 165.456 
L 199.599803 156.384 
L 199.924783 156.384 
L 200.249762 147.312 
L 200.574742 147.312 
L 200.899722 144.288 
L 201.224701 135.216 
L 201.87466 129.168 
L 202.19964 120.096 
L 202.849599 120.096 
L 203.499558 108 
L 203.824537 108 
L 204.149517 101.952 
L 205.449435 89.856 
L 205.774414 89.856 
L 206.099394 83.808 
L 206.424373 80.784 
L 207.074333 80.784 
L 207.399312 71.712 
L 207.724292 71.712 
L 208.049271 74.736 
L 208.374251 68.688 
L 208.69923 65.664 
L 209.02421 68.688 
L 209.349189 68.688 
L 209.674169 71.712 
L 209.999148 65.664 
L 210.324128 68.688 
L 210.649107 65.664 
L 210.974087 68.688 
L 211.949025 68.688 
L 212.274005 71.712 
L 212.598984 68.688 
L 212.923964 71.712 
L 213.248943 77.76 
L 213.573923 80.784 
L 213.898903 80.784 
L 214.873841 89.856 
L 215.198821 89.856 
L 215.5238 95.904 
L 215.84878 95.904 
L 216.498739 101.952 
L 216.823718 108 
L 217.798657 117.072 
L 218.123636 126.144 
L 218.448616 126.144 
L 219.098575 132.192 
L 219.423554 144.288 
L 220.073514 150.336 
L 220.398493 147.312 
L 221.048452 162.432 
L 221.373432 168.48 
L 221.698411 171.504 
L 222.34837 183.6 
L 222.67335 186.624 
L 222.998329 186.624 
L 223.323309 192.672 
L 223.648288 201.744 
L 223.973268 204.768 
L 224.298247 204.768 
L 224.948206 219.888 
L 225.273186 225.936 
L 225.598165 219.888 
L 225.923145 231.984 
L 226.248124 231.984 
L 226.898084 238.032 
L 227.548043 250.128 
L 227.873022 253.152 
L 228.198002 253.152 
L 228.522981 259.2 
L 228.847961 262.224 
L 229.17294 262.224 
L 229.49792 265.248 
L 229.822899 271.296 
L 230.147879 271.296 
L 230.472858 277.344 
L 230.797838 274.32 
L 231.122817 277.344 
L 231.447797 277.344 
L 232.097756 283.392 
L 233.072695 283.392 
L 233.397674 280.368 
L 234.047633 286.416 
L 234.372613 286.416 
L 234.697592 283.392 
L 235.022572 283.392 
L 235.347551 286.416 
L 235.99751 280.368 
L 236.647469 280.368 
L 236.972449 277.344 
L 237.297428 277.344 
L 237.622408 274.32 
L 237.947387 274.32 
L 238.272367 271.296 
L 238.597346 265.248 
L 239.247305 265.248 
L 239.897265 253.152 
L 240.547224 253.152 
L 240.872203 250.128 
L 241.197183 241.056 
L 241.522162 241.056 
L 241.847142 235.008 
L 242.497101 228.96 
L 242.82208 222.912 
L 243.14706 219.888 
L 243.797019 207.792 
L 244.121998 207.792 
L 244.446978 204.768 
L 244.771957 195.696 
L 245.421916 189.648 
L 245.746896 183.6 
L 246.071876 180.576 
L 246.396855 168.48 
L 246.721835 168.48 
L 247.046814 162.432 
L 247.371794 159.408 
L 247.696773 153.36 
L 248.021753 144.288 
L 248.346732 144.288 
L 248.671712 141.264 
L 248.996691 132.192 
L 249.97163 123.12 
L 250.296609 114.048 
L 250.621589 114.048 
L 251.271548 108 
L 251.596527 95.904 
L 251.921507 98.928 
L 252.246486 92.88 
L 252.571466 92.88 
L 252.896446 86.832 
L 253.546405 80.784 
L 253.871384 80.784 
L 254.196364 71.712 
L 254.521343 71.712 
L 254.846323 74.736 
L 255.171302 68.688 
L 255.496282 65.664 
L 255.821261 65.664 
L 256.146241 62.64 
L 256.47122 65.664 
L 256.7962 59.616 
L 257.121179 56.592 
L 257.446159 56.592 
L 257.771138 59.616 
L 259.396036 59.616 
L 259.721016 62.64 
L 260.045995 68.688 
L 260.370975 62.64 
L 260.695954 65.664 
L 261.020934 71.712 
L 261.670893 77.76 
L 261.995872 74.736 
L 262.320852 80.784 
L 262.645831 83.808 
L 262.970811 89.856 
L 263.29579 86.832 
L 263.62077 92.88 
L 263.945749 95.904 
L 264.270729 101.952 
L 264.595708 101.952 
L 264.920688 104.976 
L 265.245667 111.024 
L 265.570647 114.048 
L 265.895627 114.048 
L 266.220606 123.12 
L 266.545586 126.144 
L 266.870565 135.216 
L 267.195545 135.216 
L 267.520524 144.288 
L 267.845504 147.312 
L 268.170483 153.36 
L 268.495463 156.384 
L 268.820442 162.432 
L 269.145422 165.456 
L 269.470401 174.528 
L 269.795381 174.528 
L 270.44534 189.648 
L 270.770319 189.648 
L 271.095299 192.672 
L 271.420278 204.768 
L 271.745258 207.792 
L 272.070238 213.84 
L 272.395217 210.816 
L 272.720197 222.912 
L 273.045176 222.912 
L 273.370156 231.984 
L 274.020115 238.032 
L 274.670074 250.128 
L 274.995053 247.104 
L 275.645012 259.2 
L 275.969992 259.2 
L 276.619951 265.248 
L 276.94493 271.296 
L 277.26991 274.32 
L 277.594889 268.272 
L 278.244848 280.368 
L 278.569828 280.368 
L 279.219787 286.416 
L 279.544767 286.416 
L 279.869746 289.44 
L 280.194726 286.416 
L 280.519705 289.44 
L 280.844685 289.44 
L 281.169664 292.464 
L 281.494644 289.44 
L 281.819623 292.464 
L 282.469582 292.464 
L 282.794562 286.416 
L 283.119541 289.44 
L 283.7695 289.44 
L 284.09448 286.416 
L 284.419459 286.416 
L 284.744439 283.392 
L 285.069419 283.392 
L 285.719378 277.344 
L 286.044357 277.344 
L 286.369337 274.32 
L 286.694316 268.272 
L 287.019296 268.272 
L 287.344275 265.248 
L 287.669255 265.248 
L 287.994234 256.176 
L 288.319214 256.176 
L 288.969173 250.128 
L 289.294152 244.08 
L 290.269091 235.008 
L 290.59407 225.936 
L 290.91905 222.912 
L 291.244029 222.912 
L 291.569009 216.864 
L 291.893989 207.792 
L 292.218968 204.768 
L 292.543948 204.768 
L 292.868927 201.744 
L 293.518886 186.624 
L 293.843866 180.576 
L 294.493825 174.528 
L 295.143784 162.432 
L 295.468763 162.432 
L 295.793743 150.336 
L 296.118722 150.336 
L 296.768681 144.288 
L 297.093661 135.216 
L 297.41864 132.192 
L 297.74362 126.144 
L 298.0686 126.144 
L 298.718559 120.096 
L 299.043538 114.048 
L 299.368518 114.048 
L 299.693497 104.976 
L 300.018477 104.976 
L 300.343456 98.928 
L 300.668436 95.904 
L 300.993415 89.856 
L 301.318395 89.856 
L 301.643374 86.832 
L 301.968354 86.832 
L 302.293333 80.784 
L 302.618313 80.784 
L 302.943292 77.76 
L 303.268272 80.784 
L 303.593251 71.712 
L 303.918231 74.736 
L 304.24321 68.688 
L 304.56819 71.712 
L 304.89317 68.688 
L 305.868108 68.688 
L 306.193088 65.664 
L 306.518067 68.688 
L 307.493006 68.688 
L 308.467944 77.76 
L 308.792924 74.736 
L 309.767862 83.808 
L 310.417821 83.808 
L 310.742801 89.856 
L 311.067781 92.88 
L 311.39276 92.88 
L 311.71774 98.928 
L 312.367699 104.976 
L 312.692678 104.976 
L 313.017658 114.048 
L 313.342637 117.072 
L 313.667617 123.12 
L 313.992596 120.096 
L 314.317576 129.168 
L 314.642555 129.168 
L 314.967535 138.24 
L 315.292514 141.264 
L 315.617494 147.312 
L 316.267453 153.36 
L 316.592432 153.36 
L 316.917412 159.408 
L 317.242391 168.48 
L 317.892351 174.528 
L 318.21733 183.6 
L 318.54231 183.6 
L 318.867289 192.672 
L 319.192269 192.672 
L 319.517248 201.744 
L 320.167207 207.792 
L 320.492187 213.84 
L 320.817166 216.864 
L 321.142146 222.912 
L 322.117084 231.984 
L 322.442064 241.056 
L 323.092023 241.056 
L 323.741982 253.152 
L 324.066962 256.176 
L 324.391941 256.176 
L 324.716921 262.224 
L 326.016839 274.32 
L 326.341818 274.32 
L 326.666798 277.344 
L 326.991777 274.32 
L 327.316757 280.368 
L 327.641736 280.368 
L 327.966716 283.392 
L 328.616675 283.392 
L 329.266634 289.44 
L 329.591613 283.392 
L 329.916593 286.416 
L 330.241572 283.392 
L 330.566552 286.416 
L 330.891532 283.392 
L 331.216511 286.416 
L 331.541491 283.392 
L 331.86647 283.392 
L 332.19145 277.344 
L 332.516429 280.368 
L 332.841409 280.368 
L 333.491368 274.32 
L 333.816347 274.32 
L 334.141327 271.296 
L 334.466306 271.296 
L 334.791286 262.224 
L 335.116265 262.224 
L 335.441245 259.2 
L 335.766224 259.2 
L 336.091204 253.152 
L 337.066143 244.08 
L 337.391122 238.032 
L 338.041081 231.984 
L 338.366061 225.936 
L 339.01602 219.888 
L 339.340999 213.84 
L 339.665979 213.84 
L 339.990958 201.744 
L 340.315938 204.768 
L 340.640917 195.696 
L 340.965897 192.672 
L 341.290876 186.624 
L 342.265815 177.552 
L 342.590794 162.432 
L 343.565733 153.36 
L 343.890713 144.288 
L 344.215692 144.288 
L 344.865651 138.24 
L 345.190631 126.144 
L 345.51561 126.144 
L 345.84059 117.072 
L 346.165569 117.072 
L 346.490549 111.024 
L 346.815528 108 
L 347.140508 101.952 
L 347.465487 98.928 
L 347.790467 92.88 
L 348.115446 89.856 
L 348.440426 89.856 
L 348.765405 86.832 
L 349.090385 80.784 
L 349.415364 80.784 
L 349.740344 77.76 
L 350.065324 77.76 
L 350.390303 71.712 
L 350.715283 71.712 
L 351.040262 68.688 
L 351.365242 68.688 
L 352.015201 62.64 
L 352.66516 62.64 
L 353.315119 56.592 
L 353.640098 62.64 
L 353.965078 59.616 
L 354.290057 59.616 
L 354.615037 62.64 
L 354.940016 62.64 
L 355.264996 65.664 
L 355.589975 59.616 
L 355.914955 65.664 
L 356.239934 65.664 
L 356.889894 71.712 
L 357.214873 68.688 
L 357.539853 74.736 
L 357.864832 77.76 
L 358.189812 74.736 
L 358.839771 86.832 
L 359.16475 86.832 
L 359.48973 89.856 
L 359.814709 95.904 
L 360.139689 98.928 
L 360.464668 104.976 
L 360.789648 108 
L 361.114627 114.048 
L 361.439607 114.048 
L 361.764586 120.096 
L 362.089566 123.12 
L 362.739525 135.216 
L 363.064505 138.24 
L 363.389484 138.24 
L 363.714464 147.312 
L 364.039443 150.336 
L 364.364423 156.384 
L 364.689402 159.408 
L 365.014382 168.48 
L 365.339361 171.504 
L 365.664341 177.552 
L 365.98932 174.528 
L 366.639279 192.672 
L 366.964259 195.696 
L 367.939197 213.84 
L 368.914136 222.912 
L 369.564095 235.008 
L 369.889075 235.008 
L 370.214054 241.056 
L 370.539034 244.08 
L 370.864013 253.152 
L 371.188993 250.128 
L 371.513972 259.2 
L 371.838952 259.2 
L 372.163931 265.248 
L 372.488911 268.272 
L 372.81389 268.272 
L 373.13887 271.296 
L 373.463849 277.344 
L 373.788829 274.32 
L 374.113808 277.344 
L 374.438788 283.392 
L 375.088747 283.392 
L 375.738706 289.44 
L 376.063686 289.44 
L 376.388665 283.392 
L 376.713645 292.464 
L 377.363604 292.464 
L 377.688583 289.44 
L 378.338542 289.44 
L 378.663522 295.488 
L 378.988501 286.416 
L 379.313481 289.44 
L 379.63846 289.44 
L 380.288419 283.392 
L 380.613399 283.392 
L 380.938378 280.368 
L 381.263358 283.392 
L 381.588337 277.344 
L 381.913317 277.344 
L 382.238296 274.32 
L 382.563276 274.32 
L 382.888256 268.272 
L 383.863194 259.2 
L 384.188174 253.152 
L 384.513153 253.152 
L 385.163112 247.104 
L 385.488092 235.008 
L 385.813071 235.008 
L 386.138051 231.984 
L 386.46303 231.984 
L 386.78801 222.912 
L 387.112989 222.912 
L 387.437969 213.84 
L 387.762948 210.816 
L 388.087928 204.768 
L 388.412907 201.744 
L 388.737887 201.744 
L 389.062867 195.696 
L 389.387846 183.6 
L 390.687764 171.504 
L 391.337723 159.408 
L 391.662703 156.384 
L 391.987682 147.312 
L 392.312662 150.336 
L 392.637641 141.264 
L 392.962621 141.264 
L 393.61258 126.144 
L 393.937559 120.096 
L 394.262539 123.12 
L 394.587518 114.048 
L 394.912498 114.048 
L 395.237477 111.024 
L 395.887437 98.928 
L 396.212416 95.904 
L 396.862375 95.904 
L 397.187355 86.832 
L 397.512334 86.832 
L 397.837314 80.784 
L 398.487273 80.784 
L 398.487273 80.784 
" clip-path="url(#pc9745e6ceb)" style="fill: none; stroke: #2ca02c; stroke-width: 1.5; stroke-linecap: square"/>
   </g>
   <g id="patch_3">
    <path d="M 57.6 307.584 
L 57.6 41.472 
" style="fill: none; stroke: #000000; stroke-width: 0.8; stroke-linejoin: miter; stroke-linecap: square"/>
   </g>
   <g id="patch_4">
    <path d="M 414.72 307.584 
L 414.72 41.472 
" style="fill: none; stroke: #000000; stroke-width: 0.8; stroke-linejoin: miter; stroke-linecap: square"/>
   </g>
   <g id="patch_5">
    <path d="M 57.6 307.584 
L 414.72 307.584 
" style="fill: none; stroke: #000000; stroke-width: 0.8; stroke-linejoin: miter; stroke-linecap: square"/>
   </g>
   <g id="patch_6">
    <path d="M 57.6 41.472 
L 414.72 41.472 
" style="fill: none; stroke: #000000; stroke-width: 0.8; stroke-linejoin: miter; stroke-linecap: square"/>
   </g>
  </g>
 </g>
 <defs>
  <clipPath id="pc9745e6ceb">
   <rect x="57.6" y="41.472" width="357.12" height="266.112"/>
  </clipPath>
 </defs>
</svg>
