<?xml version="1.0" encoding="utf-8" standalone="no"?>
<!DOCTYPE svg PUBLIC "-//W3C//DTD SVG 1.1//EN"
  "http://www.w3.org/Graphics/SVG/1.1/DTD/svg11.dtd">
<svg xmlns:xlink="http://www.w3.org/1999/xlink" width="460.8pt" height="345.6pt" viewBox="0 0 460.8 345.6" xmlns="http://www.w3.org/2000/svg" version="1.1">
 <metadata>
  <rdf:RDF xmlns:dc="http://purl.org/dc/elements/1.1/" xmlns:cc="http://creativecommons.org/ns#" xmlns:rdf="http://www.w3.org/1999/02/22-rdf-syntax-ns#">
   <cc:Work>
    <dc:type rdf:resource="http://purl.org/dc/dcmitype/StillImage"/>
    <dc:date>2025-12-31T14:12:38.703946</dc:date>
    <dc:format>image/svg+xml</dc:format>
    <dc:creator>
     <cc:Agent>
      <dc:title>Matplotlib v3.10.8, https://matplotlib.org/</dc:title>
     </cc:Agent>
    </dc:creator>
   </cc:Work>
  </rdf:RDF>
 </metadata>
 <defs>
  <style type="text/css">*{stroke-linejoin: round; stroke-linecap: butt}</style>
 </defs>
 <g id="figure_1">
  <g id="patch_1">
   <path d="M 0 345.6 
L 460.8 345.6 
L 460.8 0 
L 0 0 
z
" style="fill: #ffffff"/>
  </g>
  <g id="axes_1">
   <g id="patch_2">
    <path d="M 57.6 307.584 
L 414.72 307.584 
L 414.72 41.472 
L 57.6 41.472 
z
" style="fill: #ffffff"/>
   </g>
   <g id="matplotlib.axis_1">
    <g id="xtick_1">
     <g id="line2d_1">
      <defs>
       <path id="m581ecefdb5" d="M 0 0 
L 0 3.5 
" style="stroke: #000000; stroke-width: 0.8"/>
      </defs>
      <g>
       <use xlink:href="#m581ecefdb5" x="73.832727" y="307.584" style="stroke: #000000; stroke-width: 0.8"/>
      </g>
     </g>
     <g id="text_1">
      <!-- 0 -->
      <g transform="translate(70.651477 322.182437) scale(0.1 -0.1)">
       <defs>
        <path id="DejaVuSans-30" d="M 2034 4250 
Q 1547 4250 1301 3770 
Q 1056 3291 1056 2328 
Q 1056 1369 1301 889 
Q 1547 409 2034 409 
Q 2525 409 2770 889 
Q 3016 1369 3016 2328 
Q 3016 3291 2770 3770 
Q 2525 4250 2034 4250 
z
M 2034 4750 
Q 2819 4750 3233 4129 
Q 3647 3509 3647 2328 
Q 3647 1150 3233 529 
Q 2819 -91 2034 -91 
Q 1250 -91 836 529 
Q 422 1150 422 2328 
Q 422 3509 836 4129 
Q 1250 4750 2034 4750 
z
" transform="scale(0.015625)"/>
       </defs>
       <use xlink:href="#DejaVuSans-30"/>
      </g>
     </g>
    </g>
    <g id="xtick_2">
     <g id="line2d_2">
      <g>
       <use xlink:href="#m581ecefdb5" x="138.828632" y="307.584" style="stroke: #000000; stroke-width: 0.8"/>
      </g>
     </g>
     <g id="text_2">
      <!-- 1 -->
      <g transform="translate(135.647382 322.182437) scale(0.1 -0.1)">
       <defs>
        <path id="DejaVuSans-31" d="M 794 531 
L 1825 531 
L 1825 4091 
L 703 3866 
L 703 4441 
L 1819 4666 
L 2450 4666 
L 2450 531 
L 3481 531 
L 3481 0 
L 794 0 
L 794 531 
z
" transform="scale(0.015625)"/>
       </defs>
       <use xlink:href="#DejaVuSans-31"/>
      </g>
     </g>
    </g>
    <g id="xtick_3">
     <g id="line2d_3">
      <g>
       <use xlink:href="#m581ecefdb5" x="203.824537" y="307.584" style="stroke: #000000; stroke-width: 0.8"/>
      </g>
     </g>
     <g id="text_3">
      <!-- 2 -->
      <g transform="translate(200.643287 322.182437) scale(0.1 -0.1)">
       <defs>
        <path id="DejaVuSans-32" d="M 1228 531 
L 3431 531 
L 3431 0 
L 469 0 
L 469 531 
Q 828 903 1448 1529 
Q 2069 2156 2228 2338 
Q 2531 2678 2651 2914 
Q 2772 3150 2772 3378 
Q 2772 3750 2511 3984 
Q 2250 4219 1831 4219 
Q 1534 4219 1204 4116 
Q 875 4013 500 3803 
L 500 4441 
Q 881 4594 1212 4672 
Q 1544 4750 1819 4750 
Q 2544 4750 2975 4387 
Q 3406 4025 3406 3419 
Q 3406 3131 3298 2873 
Q 3191 2616 2906 2266 
Q 2828 2175 2409 1742 
Q 1991 1309 1228 531 
z
" transform="scale(0.015625)"/>
       </defs>
       <use xlink:href="#DejaVuSans-32"/>
      </g>
     </g>
    </g>
    <g id="xtick_4">
     <g id="line2d_4">
      <g>
       <use xlink:href="#m581ecefdb5" x="268.820442" y="307.584" style="stroke: #000000; stroke-width: 0.8"/>
      </g>
     </g>
     <g id="text_4">
      <!-- 3 -->
      <g transform="translate(265.639192 322.182437) scale(0.1 -0.1)">
       <defs>
        <path id="DejaVuSans-33" d="M 2597 2516 
Q 3050 2419 3304 2112 
Q 3559 1806 3559 1356 
Q 3559 666 3084 287 
Q 2609 -91 1734 -91 
Q 1441 -91 1130 -33 
Q 819 25 488 141 
L 488 750 
Q 750 597 1062 519 
Q 1375 441 1716 441 
Q 2309 441 2620 675 
Q 2931 909 2931 1356 
Q 2931 1769 2642 2001 
Q 2353 2234 1838 2234 
L 1294 2234 
L 1294 2753 
L 1863 2753 
Q 2328 2753 2575 2939 
Q 2822 3125 2822 3475 
Q 2822 3834 2567 4026 
Q 2313 4219 1838 4219 
Q 1578 4219 1281 4162 
Q 984 4106 628 3988 
L 628 4550 
Q 988 4650 1302 4700 
Q 1616 4750 1894 4750 
Q 2613 4750 3031 4423 
Q 3450 4097 3450 3541 
Q 3450 3153 3228 2886 
Q 3006 2619 2597 2516 
z
" transform="scale(0.015625)"/>
       </defs>
       <use xlink:href="#DejaVuSans-33"/>
      </g>
     </g>
    </g>
    <g id="xtick_5">
     <g id="line2d_5">
      <g>
       <use xlink:href="#m581ecefdb5" x="333.816347" y="307.584" style="stroke: #000000; stroke-width: 0.8"/>
      </g>
     </g>
     <g id="text_5">
      <!-- 4 -->
      <g transform="translate(330.635097 322.182437) scale(0.1 -0.1)">
       <defs>
        <path id="DejaVuSans-34" d="M 2419 4116 
L 825 1625 
L 2419 1625 
L 2419 4116 
z
M 2253 4666 
L 3047 4666 
L 3047 1625 
L 3713 1625 
L 3713 1100 
L 3047 1100 
L 3047 0 
L 2419 0 
L 2419 1100 
L 313 1100 
L 313 1709 
L 2253 4666 
z
" transform="scale(0.015625)"/>
       </defs>
       <use xlink:href="#DejaVuSans-34"/>
      </g>
     </g>
    </g>
    <g id="xtick_6">
     <g id="line2d_6">
      <g>
       <use xlink:href="#m581ecefdb5" x="398.812252" y="307.584" style="stroke: #000000; stroke-width: 0.8"/>
      </g>
     </g>
     <g id="text_6">
      <!-- 5 -->
      <g transform="translate(395.631002 322.182437) scale(0.1 -0.1)">
       <defs>
        <path id="DejaVuSans-35" d="M 691 4666 
L 3169 4666 
L 3169 4134 
L 1269 4134 
L 1269 2991 
Q 1406 3038 1543 3061 
Q 1681 3084 1819 3084 
Q 2600 3084 3056 2656 
Q 3513 2228 3513 1497 
Q 3513 744 3044 326 
Q 2575 -91 1722 -91 
Q 1428 -91 1123 -41 
Q 819 9 494 109 
L 494 744 
Q 775 591 1075 516 
Q 1375 441 1709 441 
Q 2250 441 2565 725 
Q 2881 1009 2881 1497 
Q 2881 1984 2565 2268 
Q 2250 2553 1709 2553 
Q 1456 2553 1204 2497 
Q 953 2441 691 2322 
L 691 4666 
z
" transform="scale(0.015625)"/>
       </defs>
       <use xlink:href="#DejaVuSans-35"/>
      </g>
     </g>
    </g>
    <g id="text_7">
     <!-- 1e−7 -->
     <g transform="translate(387.462188 334.860562) scale(0.1 -0.1)">
      <defs>
       <path id="DejaVuSans-65" d="M 3597 1894 
L 3597 1613 
L 953 1613 
Q 991 1019 1311 708 
Q 1631 397 2203 397 
Q 2534 397 2845 478 
Q 3156 559 3463 722 
L 3463 178 
Q 3153 47 2828 -22 
Q 2503 -91 2169 -91 
Q 1331 -91 842 396 
Q 353 884 353 1716 
Q 353 2575 817 3079 
Q 1281 3584 2069 3584 
Q 2775 3584 3186 3129 
Q 3597 2675 3597 1894 
z
M 3022 2063 
Q 3016 2534 2758 2815 
Q 2500 3097 2075 3097 
Q 1594 3097 1305 2825 
Q 1016 2553 972 2059 
L 3022 2063 
z
" transform="scale(0.015625)"/>
       <path id="DejaVuSans-2212" d="M 678 2272 
L 4684 2272 
L 4684 1741 
L 678 1741 
L 678 2272 
z
" transform="scale(0.015625)"/>
       <path id="DejaVuSans-37" d="M 525 4666 
L 3525 4666 
L 3525 4397 
L 1831 0 
L 1172 0 
L 2766 4134 
L 525 4134 
L 525 4666 
z
" transform="scale(0.015625)"/>
      </defs>
      <use xlink:href="#DejaVuSans-31"/>
      <use xlink:href="#DejaVuSans-65" transform="translate(63.623047 0)"/>
      <use xlink:href="#DejaVuSans-2212" transform="translate(125.146484 0)"/>
      <use xlink:href="#DejaVuSans-37" transform="translate(208.935547 0)"/>
     </g>
    </g>
   </g>
   <g id="matplotlib.axis_2">
    <g id="ytick_1">
     <g id="line2d_7">
      <defs>
       <path id="m9718f07194" d="M 0 0 
L -3.5 0 
" style="stroke: #000000; stroke-width: 0.8"/>
      </defs>
      <g>
       <use xlink:href="#m9718f07194" x="57.6" y="304.60693" style="stroke: #000000; stroke-width: 0.8"/>
      </g>
     </g>
     <g id="text_8">
      <!-- −60 -->
      <g transform="translate(29.495313 308.406149) scale(0.1 -0.1)">
       <defs>
        <path id="DejaVuSans-36" d="M 2113 2584 
Q 1688 2584 1439 2293 
Q 1191 2003 1191 1497 
Q 1191 994 1439 701 
Q 1688 409 2113 409 
Q 2538 409 2786 701 
Q 3034 994 3034 1497 
Q 3034 2003 2786 2293 
Q 2538 2584 2113 2584 
z
M 3366 4563 
L 3366 3988 
Q 3128 4100 2886 4159 
Q 2644 4219 2406 4219 
Q 1781 4219 1451 3797 
Q 1122 3375 1075 2522 
Q 1259 2794 1537 2939 
Q 1816 3084 2150 3084 
Q 2853 3084 3261 2657 
Q 3669 2231 3669 1497 
Q 3669 778 3244 343 
Q 2819 -91 2113 -91 
Q 1303 -91 875 529 
Q 447 1150 447 2328 
Q 447 3434 972 4092 
Q 1497 4750 2381 4750 
Q 2619 4750 2861 4703 
Q 3103 4656 3366 4563 
z
" transform="scale(0.015625)"/>
       </defs>
       <use xlink:href="#DejaVuSans-2212"/>
       <use xlink:href="#DejaVuSans-36" transform="translate(83.789062 0)"/>
       <use xlink:href="#DejaVuSans-30" transform="translate(147.412109 0)"/>
      </g>
     </g>
    </g>
    <g id="ytick_2">
     <g id="line2d_8">
      <g>
       <use xlink:href="#m9718f07194" x="57.6" y="270.276819" style="stroke: #000000; stroke-width: 0.8"/>
      </g>
     </g>
     <g id="text_9">
      <!-- −40 -->
      <g transform="translate(29.495313 274.076038) scale(0.1 -0.1)">
       <use xlink:href="#DejaVuSans-2212"/>
       <use xlink:href="#DejaVuSans-34" transform="translate(83.789062 0)"/>
       <use xlink:href="#DejaVuSans-30" transform="translate(147.412109 0)"/>
      </g>
     </g>
    </g>
    <g id="ytick_3">
     <g id="line2d_9">
      <g>
       <use xlink:href="#m9718f07194" x="57.6" y="235.946708" style="stroke: #000000; stroke-width: 0.8"/>
      </g>
     </g>
     <g id="text_10">
      <!-- −20 -->
      <g transform="translate(29.495313 239.745927) scale(0.1 -0.1)">
       <use xlink:href="#DejaVuSans-2212"/>
       <use xlink:href="#DejaVuSans-32" transform="translate(83.789062 0)"/>
       <use xlink:href="#DejaVuSans-30" transform="translate(147.412109 0)"/>
      </g>
     </g>
    </g>
    <g id="ytick_4">
     <g id="line2d_10">
      <g>
       <use xlink:href="#m9718f07194" x="57.6" y="201.616598" style="stroke: #000000; stroke-width: 0.8"/>
      </g>
     </g>
     <g id="text_11">
      <!-- 0 -->
      <g transform="translate(44.2375 205.415817) scale(0.1 -0.1)">
       <use xlink:href="#DejaVuSans-30"/>
      </g>
     </g>
    </g>
    <g id="ytick_5">
     <g id="line2d_11">
      <g>
       <use xlink:href="#m9718f07194" x="57.6" y="167.286487" style="stroke: #000000; stroke-width: 0.8"/>
      </g>
     </g>
     <g id="text_12">
      <!-- 20 -->
      <g transform="translate(37.875 171.085706) scale(0.1 -0.1)">
       <use xlink:href="#DejaVuSans-32"/>
       <use xlink:href="#DejaVuSans-30" transform="translate(63.623047 0)"/>
      </g>
     </g>
    </g>
    <g id="ytick_6">
     <g id="line2d_12">
      <g>
       <use xlink:href="#m9718f07194" x="57.6" y="132.956376" style="stroke: #000000; stroke-width: 0.8"/>
      </g>
     </g>
     <g id="text_13">
      <!-- 40 -->
      <g transform="translate(37.875 136.755595) scale(0.1 -0.1)">
       <use xlink:href="#DejaVuSans-34"/>
       <use xlink:href="#DejaVuSans-30" transform="translate(63.623047 0)"/>
      </g>
     </g>
    </g>
    <g id="ytick_7">
     <g id="line2d_13">
      <g>
       <use xlink:href="#m9718f07194" x="57.6" y="98.626266" style="stroke: #000000; stroke-width: 0.8"/>
      </g>
     </g>
     <g id="text_14">
      <!-- 60 -->
      <g transform="translate(37.875 102.425484) scale(0.1 -0.1)">
       <use xlink:href="#DejaVuSans-36"/>
       <use xlink:href="#DejaVuSans-30" transform="translate(63.623047 0)"/>
      </g>
     </g>
    </g>
    <g id="ytick_8">
     <g id="line2d_14">
      <g>
       <use xlink:href="#m9718f07194" x="57.6" y="64.296155" style="stroke: #000000; stroke-width: 0.8"/>
      </g>
     </g>
     <g id="text_15">
      <!-- 80 -->
      <g transform="translate(37.875 68.095374) scale(0.1 -0.1)">
       <defs>
        <path id="DejaVuSans-38" d="M 2034 2216 
Q 1584 2216 1326 1975 
Q 1069 1734 1069 1313 
Q 1069 891 1326 650 
Q 1584 409 2034 409 
Q 2484 409 2743 651 
Q 3003 894 3003 1313 
Q 3003 1734 2745 1975 
Q 2488 2216 2034 2216 
z
M 1403 2484 
Q 997 2584 770 2862 
Q 544 3141 544 3541 
Q 544 4100 942 4425 
Q 1341 4750 2034 4750 
Q 2731 4750 3128 4425 
Q 3525 4100 3525 3541 
Q 3525 3141 3298 2862 
Q 3072 2584 2669 2484 
Q 3125 2378 3379 2068 
Q 3634 1759 3634 1313 
Q 3634 634 3220 271 
Q 2806 -91 2034 -91 
Q 1263 -91 848 271 
Q 434 634 434 1313 
Q 434 1759 690 2068 
Q 947 2378 1403 2484 
z
M 1172 3481 
Q 1172 3119 1398 2916 
Q 1625 2713 2034 2713 
Q 2441 2713 2670 2916 
Q 2900 3119 2900 3481 
Q 2900 3844 2670 4047 
Q 2441 4250 2034 4250 
Q 1625 4250 1398 4047 
Q 1172 3844 1172 3481 
z
" transform="scale(0.015625)"/>
       </defs>
       <use xlink:href="#DejaVuSans-38"/>
       <use xlink:href="#DejaVuSans-30" transform="translate(63.623047 0)"/>
      </g>
     </g>
    </g>
   </g>
   <g id="line2d_15">
    <path d="M 73.832727 202.957615 
L 74.157707 202.957615 
L 74.482686 201.616595 
L 75.132645 204.298635 
L 75.457625 204.298635 
L 75.782604 202.957615 
L 76.107584 202.957615 
L 76.432563 205.639655 
L 76.757543 205.639655 
L 77.082523 204.298635 
L 77.407502 204.298635 
L 77.732482 205.639655 
L 78.057461 204.298635 
L 78.70742 204.298635 
L 79.0324 202.957615 
L 80.332318 202.957615 
L 80.657297 204.298635 
L 80.982277 201.616595 
L 81.307256 202.957615 
L 81.632236 205.639655 
L 81.957215 204.298635 
L 82.282195 204.298635 
L 82.607174 205.639655 
L 82.932154 204.298635 
L 83.907093 204.298635 
L 84.232072 202.957615 
L 84.882031 202.957615 
L 85.207011 205.639655 
L 85.53199 204.298635 
L 85.85697 204.298635 
L 86.181949 202.957615 
L 86.506929 202.957615 
L 86.831908 205.639655 
L 87.156888 205.639655 
L 87.806847 202.957615 
L 88.131826 204.298635 
L 89.106765 204.298635 
L 89.431744 200.275575 
L 89.756724 198.934555 
L 90.406683 190.888435 
L 90.731663 184.183335 
L 91.381622 177.478235 
L 91.706601 178.819255 
L 92.031581 181.501295 
L 92.35656 176.137215 
L 93.331499 150.657834 
L 93.656478 154.680894 
L 93.981458 161.385994 
L 94.306437 164.068034 
L 94.631417 156.021914 
L 95.281376 133.224574 
L 95.606355 130.542533 
L 96.256314 143.952734 
L 96.581294 142.611714 
L 96.906274 131.883554 
L 97.556233 122.496413 
L 97.881212 127.860493 
L 98.206192 129.201513 
L 98.856151 117.132333 
L 99.18113 117.132333 
L 99.831089 126.519473 
L 100.156069 123.837433 
L 100.481048 114.450293 
L 100.806028 110.427233 
L 101.131007 111.768253 
L 101.780966 121.155393 
L 102.430925 115.791313 
L 102.755905 111.768253 
L 103.080885 114.450293 
L 103.405864 114.450293 
L 103.730844 115.791313 
L 104.055823 114.450293 
L 104.380803 114.450293 
L 104.705782 117.132333 
L 105.030762 121.155393 
L 105.355741 119.814373 
L 105.680721 117.132333 
L 106.0057 115.791313 
L 106.33068 117.132333 
L 106.655659 119.814373 
L 106.980639 119.814373 
L 107.305618 121.155393 
L 107.630598 125.178453 
L 107.955577 125.178453 
L 108.605536 122.496413 
L 109.255495 122.496413 
L 109.905455 129.201513 
L 110.230434 130.542533 
L 110.555414 129.201513 
L 110.880393 126.519473 
L 111.205373 126.519473 
L 111.855332 129.201513 
L 112.180311 131.883554 
L 112.505291 130.542533 
L 112.83027 131.883554 
L 113.15525 131.883554 
L 113.480229 133.224574 
L 114.455168 129.201513 
L 115.105127 134.565594 
L 115.430106 135.906614 
L 116.405045 131.883554 
L 117.379984 131.883554 
L 117.704963 130.542533 
L 118.029943 131.883554 
L 118.354922 130.542533 
L 118.679902 131.883554 
L 119.004881 131.883554 
L 119.329861 130.542533 
L 119.65484 126.519473 
L 120.304799 126.519473 
L 120.954758 129.201513 
L 121.279738 125.178453 
L 122.254676 121.155393 
L 122.579656 121.155393 
L 122.904636 119.814373 
L 123.229615 121.155393 
L 123.554595 118.473353 
L 123.879574 118.473353 
L 124.204554 117.132333 
L 124.529533 117.132333 
L 124.854513 114.450293 
L 125.179492 113.109273 
L 125.829451 113.109273 
L 126.154431 115.791313 
L 126.47941 111.768253 
L 126.80439 111.768253 
L 127.454349 109.086213 
L 128.429287 109.086213 
L 128.754267 106.404173 
L 129.079247 109.086213 
L 129.729206 109.086213 
L 130.054185 106.404173 
L 130.379165 106.404173 
L 131.354103 110.427233 
L 131.679083 107.745193 
L 132.004062 109.086213 
L 132.329042 107.745193 
L 132.979001 110.427233 
L 133.30398 110.427233 
L 133.62896 113.109273 
L 133.953939 113.109273 
L 134.278919 114.450293 
L 134.603898 114.450293 
L 134.928878 115.791313 
L 135.253857 115.791313 
L 135.578837 118.473353 
L 135.903817 118.473353 
L 136.553776 125.178453 
L 136.878755 125.178453 
L 137.528714 127.860493 
L 138.178673 133.224574 
L 138.503653 133.224574 
L 138.828632 137.247634 
L 139.153612 138.588654 
L 139.803571 143.952734 
L 140.12855 147.975794 
L 140.45353 149.316814 
L 140.778509 149.316814 
L 142.728387 165.409054 
L 143.703325 169.432114 
L 144.353284 174.796195 
L 144.678264 178.819255 
L 145.003243 180.160275 
L 145.328223 182.842315 
L 145.653202 184.183335 
L 145.978182 184.183335 
L 146.303161 188.206395 
L 146.628141 189.547415 
L 146.95312 192.229455 
L 147.2781 193.570475 
L 147.603079 193.570475 
L 147.928059 194.911495 
L 148.253038 197.593535 
L 149.227977 201.616595 
L 149.552957 201.616595 
L 149.877936 202.957615 
L 150.202916 202.957615 
L 150.527895 205.639655 
L 152.152793 205.639655 
L 152.477772 204.298635 
L 152.802752 205.639655 
L 153.127731 204.298635 
L 153.77769 204.298635 
L 154.752629 200.275575 
L 155.077609 201.616595 
L 155.402588 200.275575 
L 155.727568 202.957615 
L 156.052547 201.616595 
L 157.677445 201.616595 
L 158.002424 200.275575 
L 158.652383 202.957615 
L 159.302342 202.957615 
L 159.627322 204.298635 
L 159.952301 204.298635 
L 160.277281 202.957615 
L 161.252219 202.957615 
L 161.577199 204.298635 
L 162.227158 204.298635 
L 162.552138 202.957615 
L 164.177035 202.957615 
L 164.502015 201.616595 
L 164.826994 204.298635 
L 165.151974 202.957615 
L 165.476953 202.957615 
L 165.801933 201.616595 
L 166.776871 205.639655 
L 167.42683 202.957615 
L 167.75181 202.957615 
L 168.07679 201.616595 
L 168.726749 204.298635 
L 169.051728 204.298635 
L 169.376708 202.957615 
L 171.001605 202.957615 
L 171.326585 204.298635 
L 171.651564 202.957615 
L 171.976544 204.298635 
L 172.301523 202.957615 
L 172.951482 205.639655 
L 173.276462 204.298635 
L 173.601441 204.298635 
L 173.926421 202.957615 
L 174.2514 204.298635 
L 174.57638 204.298635 
L 174.90136 202.957615 
L 175.551319 202.957615 
L 175.876298 204.298635 
L 176.201278 201.616595 
L 176.851237 204.298635 
L 177.176216 204.298635 
L 177.501196 202.957615 
L 177.826175 202.957615 
L 178.151155 205.639655 
L 178.476134 202.957615 
L 178.801114 202.957615 
L 179.126093 204.298635 
L 179.776052 204.298635 
L 180.101032 202.957615 
L 180.426011 204.298635 
L 180.750991 204.298635 
L 181.075971 202.957615 
L 181.40095 202.957615 
L 181.72593 204.298635 
L 182.700868 204.298635 
L 183.025848 202.957615 
L 184.000786 202.957615 
L 184.325766 204.298635 
L 184.975725 201.616595 
L 185.300704 197.593535 
L 185.625684 197.593535 
L 186.275643 190.888435 
L 186.925602 177.478235 
L 187.250581 176.137215 
L 187.575561 178.819255 
L 187.900541 180.160275 
L 188.22552 176.137215 
L 189.200459 150.657834 
L 189.525438 153.339874 
L 189.850418 160.044974 
L 190.175397 164.068034 
L 190.500377 156.021914 
L 191.150336 131.883554 
L 191.475315 130.542533 
L 192.125274 142.611714 
L 192.450254 141.270694 
L 193.100213 125.178453 
L 193.425192 123.837433 
L 193.750172 127.860493 
L 194.075152 127.860493 
L 194.725111 117.132333 
L 195.05009 117.132333 
L 195.37507 122.496413 
L 195.700049 125.178453 
L 196.025029 122.496413 
L 196.350008 113.109273 
L 196.674988 107.745193 
L 196.999967 109.086213 
L 197.649926 121.155393 
L 198.299885 114.450293 
L 198.624865 111.768253 
L 198.949844 114.450293 
L 199.599803 114.450293 
L 199.924783 113.109273 
L 200.249762 114.450293 
L 200.574742 117.132333 
L 201.224701 119.814373 
L 201.549681 115.791313 
L 202.19964 115.791313 
L 202.849599 121.155393 
L 203.499558 123.837433 
L 203.824537 123.837433 
L 204.474496 121.155393 
L 204.799476 121.155393 
L 205.774414 129.201513 
L 206.099394 129.201513 
L 206.749353 126.519473 
L 207.074333 126.519473 
L 207.399312 129.201513 
L 207.724292 130.542533 
L 208.049271 130.542533 
L 208.374251 131.883554 
L 209.02421 131.883554 
L 209.349189 134.565594 
L 209.674169 131.883554 
L 209.999148 130.542533 
L 210.324128 130.542533 
L 211.299066 134.565594 
L 211.624046 134.565594 
L 212.598984 130.542533 
L 212.923964 131.883554 
L 213.248943 130.542533 
L 213.573923 131.883554 
L 214.548862 131.883554 
L 215.198821 129.201513 
L 215.5238 126.519473 
L 216.498739 126.519473 
L 216.823718 129.201513 
L 217.798657 121.155393 
L 218.448616 121.155393 
L 218.773595 122.496413 
L 219.098575 121.155393 
L 219.423554 118.473353 
L 219.748534 118.473353 
L 221.048452 113.109273 
L 221.698411 113.109273 
L 222.023391 115.791313 
L 222.34837 113.109273 
L 223.323309 109.086213 
L 224.298247 109.086213 
L 224.623227 107.745193 
L 224.948206 109.086213 
L 225.273186 109.086213 
L 225.923145 106.404173 
L 226.898084 106.404173 
L 227.223063 109.086213 
L 227.548043 109.086213 
L 227.873022 107.745193 
L 228.522981 107.745193 
L 228.847961 110.427233 
L 229.17294 110.427233 
L 229.49792 111.768253 
L 229.822899 111.768253 
L 230.147879 113.109273 
L 230.472858 115.791313 
L 230.797838 115.791313 
L 231.122817 117.132333 
L 231.447797 115.791313 
L 232.097756 121.155393 
L 232.422735 125.178453 
L 233.072695 127.860493 
L 233.397674 127.860493 
L 233.722654 131.883554 
L 234.047633 133.224574 
L 234.372613 135.906614 
L 235.022572 138.588654 
L 235.672531 143.952734 
L 235.99751 145.293754 
L 236.647469 150.657834 
L 237.297428 153.339874 
L 237.947387 161.385994 
L 238.272367 162.727014 
L 238.922326 168.091094 
L 239.897265 172.114154 
L 240.547224 180.160275 
L 240.872203 181.501295 
L 241.197183 184.183335 
L 241.522162 184.183335 
L 241.847142 186.865375 
L 242.82208 190.888435 
L 243.14706 193.570475 
L 243.472039 193.570475 
L 244.121998 196.252515 
L 244.446978 200.275575 
L 244.771957 200.275575 
L 245.096937 201.616595 
L 245.421916 200.275575 
L 245.746896 202.957615 
L 246.071876 202.957615 
L 246.396855 204.298635 
L 246.721835 206.980675 
L 247.046814 206.980675 
L 247.696773 204.298635 
L 248.021753 205.639655 
L 248.671712 205.639655 
L 248.996691 204.298635 
L 249.97163 204.298635 
L 250.296609 202.957615 
L 250.621589 200.275575 
L 250.946568 202.957615 
L 251.271548 201.616595 
L 251.921507 201.616595 
L 252.246486 202.957615 
L 252.571466 202.957615 
L 252.896446 201.616595 
L 253.221425 202.957615 
L 253.546405 202.957615 
L 253.871384 201.616595 
L 254.196364 201.616595 
L 254.846323 204.298635 
L 255.496282 204.298635 
L 255.821261 202.957615 
L 256.47122 202.957615 
L 256.7962 205.639655 
L 257.121179 204.298635 
L 257.771138 204.298635 
L 258.096118 202.957615 
L 258.421097 204.298635 
L 258.746077 202.957615 
L 259.071057 202.957615 
L 259.396036 201.616595 
L 259.721016 202.957615 
L 260.045995 202.957615 
L 260.370975 201.616595 
L 260.695954 202.957615 
L 261.670893 202.957615 
L 262.320852 205.639655 
L 262.645831 204.298635 
L 262.970811 204.298635 
L 263.29579 202.957615 
L 264.595708 202.957615 
L 264.920688 204.298635 
L 265.245667 202.957615 
L 266.220606 202.957615 
L 266.545586 204.298635 
L 266.870565 202.957615 
L 267.195545 204.298635 
L 267.520524 202.957615 
L 267.845504 202.957615 
L 268.170483 204.298635 
L 268.495463 202.957615 
L 268.820442 205.639655 
L 269.145422 205.639655 
L 269.795381 202.957615 
L 270.12036 202.957615 
L 270.44534 204.298635 
L 270.770319 202.957615 
L 271.095299 204.298635 
L 271.420278 202.957615 
L 271.745258 204.298635 
L 272.070238 202.957615 
L 272.395217 204.298635 
L 272.720197 202.957615 
L 273.045176 204.298635 
L 273.370156 202.957615 
L 273.695135 202.957615 
L 274.020115 204.298635 
L 274.345094 202.957615 
L 274.670074 204.298635 
L 274.995053 202.957615 
L 275.320033 204.298635 
L 276.94493 204.298635 
L 277.26991 202.957615 
L 277.594889 202.957615 
L 277.919869 204.298635 
L 278.244848 204.298635 
L 278.569828 202.957615 
L 278.894808 202.957615 
L 279.219787 204.298635 
L 279.869746 204.298635 
L 280.194726 202.957615 
L 280.519705 202.957615 
L 281.169664 200.275575 
L 281.494644 197.593535 
L 282.469582 184.183335 
L 282.794562 177.478235 
L 283.119541 177.478235 
L 283.444521 180.160275 
L 283.7695 180.160275 
L 284.09448 174.796195 
L 284.419459 166.750074 
L 284.744439 154.680894 
L 285.069419 149.316814 
L 285.394398 151.998854 
L 285.719378 160.044974 
L 286.044357 162.727014 
L 286.369337 157.362934 
L 287.019296 131.883554 
L 287.344275 130.542533 
L 287.994234 143.952734 
L 288.319214 141.270694 
L 288.969173 123.837433 
L 289.294152 123.837433 
L 289.619132 127.860493 
L 289.944111 125.178453 
L 290.59407 115.791313 
L 290.91905 117.132333 
L 291.569009 126.519473 
L 291.893989 122.496413 
L 292.218968 113.109273 
L 292.543948 107.745193 
L 292.868927 110.427233 
L 293.193907 118.473353 
L 293.518886 122.496413 
L 293.843866 119.814373 
L 294.168845 114.450293 
L 294.493825 111.768253 
L 294.818804 113.109273 
L 295.143784 113.109273 
L 295.468763 114.450293 
L 295.793743 113.109273 
L 296.118722 114.450293 
L 296.443702 118.473353 
L 296.768681 119.814373 
L 297.093661 118.473353 
L 297.41864 115.791313 
L 297.74362 114.450293 
L 298.0686 114.450293 
L 298.718559 121.155393 
L 299.368518 123.837433 
L 299.693497 123.837433 
L 300.018477 122.496413 
L 300.343456 119.814373 
L 300.993415 122.496413 
L 301.643374 129.201513 
L 301.968354 130.542533 
L 302.618313 125.178453 
L 302.943292 127.860493 
L 303.268272 127.860493 
L 303.593251 130.542533 
L 303.918231 131.883554 
L 304.24321 130.542533 
L 304.56819 131.883554 
L 304.89317 130.542533 
L 305.218149 134.565594 
L 305.543129 131.883554 
L 305.868108 131.883554 
L 306.193088 129.201513 
L 306.518067 130.542533 
L 306.843047 133.224574 
L 307.493006 135.906614 
L 307.817985 133.224574 
L 308.467944 130.542533 
L 309.117903 133.224574 
L 309.442883 131.883554 
L 309.767862 131.883554 
L 310.092842 130.542533 
L 310.742801 130.542533 
L 311.067781 129.201513 
L 311.39276 126.519473 
L 312.042719 126.519473 
L 312.692678 129.201513 
L 313.017658 126.519473 
L 313.342637 125.178453 
L 313.667617 121.155393 
L 314.967535 121.155393 
L 315.292514 118.473353 
L 315.617494 118.473353 
L 315.942473 117.132333 
L 316.267453 117.132333 
L 316.592432 114.450293 
L 316.917412 113.109273 
L 317.567371 113.109273 
L 317.892351 114.450293 
L 318.21733 113.109273 
L 318.54231 110.427233 
L 318.867289 109.086213 
L 319.192269 110.427233 
L 319.842228 110.427233 
L 320.492187 107.745193 
L 321.142146 107.745193 
L 321.467125 109.086213 
L 321.792105 106.404173 
L 322.442064 106.404173 
L 322.767043 109.086213 
L 323.092023 110.427233 
L 323.417002 109.086213 
L 323.741982 109.086213 
L 324.066962 106.404173 
L 324.391941 109.086213 
L 325.0419 111.768253 
L 325.691859 111.768253 
L 326.016839 115.791313 
L 326.341818 115.791313 
L 326.666798 117.132333 
L 326.991777 115.791313 
L 327.316757 117.132333 
L 328.291695 125.178453 
L 328.616675 125.178453 
L 328.941654 127.860493 
L 329.591613 130.542533 
L 329.916593 133.224574 
L 330.241572 134.565594 
L 330.566552 137.247634 
L 330.891532 137.247634 
L 331.216511 142.611714 
L 331.86647 145.293754 
L 332.841409 153.339874 
L 333.166388 154.680894 
L 333.491368 157.362934 
L 334.141327 164.068034 
L 334.466306 165.409054 
L 334.791286 168.091094 
L 335.116265 169.432114 
L 335.441245 172.114154 
L 336.091204 174.796195 
L 336.416183 180.160275 
L 337.066143 182.842315 
L 337.391122 185.524355 
L 337.716102 185.524355 
L 338.041081 186.865375 
L 338.366061 190.888435 
L 339.340999 194.911495 
L 339.665979 194.911495 
L 339.990958 198.934555 
L 340.315938 200.275575 
L 341.290876 200.275575 
L 341.615856 202.957615 
L 341.940835 202.957615 
L 342.265815 205.639655 
L 343.240753 205.639655 
L 343.565733 204.298635 
L 343.890713 205.639655 
L 344.215692 204.298635 
L 344.540672 204.298635 
L 344.865651 202.957615 
L 345.190631 205.639655 
L 345.51561 204.298635 
L 345.84059 204.298635 
L 346.165569 201.616595 
L 346.490549 200.275575 
L 346.815528 201.616595 
L 347.140508 201.616595 
L 347.465487 202.957615 
L 347.790467 201.616595 
L 348.115446 202.957615 
L 348.440426 201.616595 
L 348.765405 201.616595 
L 349.090385 202.957615 
L 349.415364 201.616595 
L 350.065324 201.616595 
L 350.715283 204.298635 
L 351.040262 202.957615 
L 351.365242 204.298635 
L 351.690221 202.957615 
L 353.640098 202.957615 
L 353.965078 204.298635 
L 354.290057 204.298635 
L 354.615037 201.616595 
L 355.264996 201.616595 
L 355.589975 202.957615 
L 356.239934 202.957615 
L 356.564914 201.616595 
L 357.539853 201.616595 
L 357.864832 204.298635 
L 358.514791 204.298635 
L 358.839771 202.957615 
L 359.16475 204.298635 
L 359.48973 204.298635 
L 359.814709 202.957615 
L 360.464668 202.957615 
L 360.789648 204.298635 
L 361.114627 204.298635 
L 361.439607 202.957615 
L 361.764586 202.957615 
L 362.089566 201.616595 
L 362.414545 202.957615 
L 363.389484 202.957615 
L 363.714464 204.298635 
L 364.039443 202.957615 
L 364.364423 204.298635 
L 364.689402 204.298635 
L 365.014382 202.957615 
L 365.339361 202.957615 
L 365.664341 204.298635 
L 365.98932 202.957615 
L 366.639279 205.639655 
L 367.289238 202.957615 
L 367.939197 202.957615 
L 368.264177 204.298635 
L 368.589156 202.957615 
L 368.914136 204.298635 
L 369.564095 204.298635 
L 369.889075 202.957615 
L 370.539034 202.957615 
L 370.864013 205.639655 
L 371.188993 205.639655 
L 371.513972 204.298635 
L 372.163931 204.298635 
L 372.488911 202.957615 
L 372.81389 202.957615 
L 373.13887 204.298635 
L 374.113808 204.298635 
L 374.438788 201.616595 
L 374.763767 204.298635 
L 376.063686 204.298635 
L 376.388665 202.957615 
L 376.713645 202.957615 
L 377.363604 197.593535 
L 377.688583 192.229455 
L 378.013563 189.547415 
L 378.663522 180.160275 
L 378.988501 176.137215 
L 379.313481 178.819255 
L 379.63846 180.160275 
L 379.96344 176.137215 
L 380.613399 156.021914 
L 380.938378 151.998854 
L 381.263358 153.339874 
L 381.588337 161.385994 
L 381.913317 164.068034 
L 382.238296 157.362934 
L 382.888256 130.542533 
L 383.213235 130.542533 
L 383.863194 145.293754 
L 384.188174 142.611714 
L 384.838133 123.837433 
L 385.163112 123.837433 
L 385.488092 127.860493 
L 385.813071 127.860493 
L 386.138051 122.496413 
L 386.46303 114.450293 
L 387.437969 126.519473 
L 387.762948 122.496413 
L 388.087928 111.768253 
L 388.412907 109.086213 
L 388.737887 110.427233 
L 389.387846 119.814373 
L 390.037805 114.450293 
L 390.362785 113.109273 
L 390.687764 114.450293 
L 391.012744 113.109273 
L 391.337723 114.450293 
L 391.662703 111.768253 
L 392.312662 117.132333 
L 392.637641 118.473353 
L 392.962621 118.473353 
L 393.2876 114.450293 
L 393.61258 115.791313 
L 393.937559 114.450293 
L 394.262539 117.132333 
L 394.587518 121.155393 
L 395.237477 123.837433 
L 395.562457 123.837433 
L 396.212416 121.155393 
L 396.862375 121.155393 
L 397.187355 126.519473 
L 397.512334 129.201513 
L 397.837314 130.542533 
L 398.162293 129.201513 
L 398.487273 125.178453 
L 398.487273 125.178453 
" clip-path="url(#p6153c08f83)" style="fill: none; stroke: #1f77b4; stroke-width: 1.5; stroke-linecap: square"/>
   </g>
   <g id="line2d_16">
    <path d="M 73.832727 123.837433 
L 74.157707 123.837433 
L 74.807666 121.155393 
L 75.132645 121.155393 
L 75.782604 118.473353 
L 76.757543 118.473353 
L 78.057461 113.109273 
L 78.382441 114.450293 
L 78.70742 114.450293 
L 79.0324 113.109273 
L 79.357379 113.109273 
L 79.682359 111.768253 
L 80.007338 111.768253 
L 80.657297 109.086213 
L 80.982277 109.086213 
L 81.307256 110.427233 
L 81.632236 110.427233 
L 81.957215 109.086213 
L 82.282195 110.427233 
L 82.607174 109.086213 
L 83.257133 109.086213 
L 83.907093 111.768253 
L 84.557052 111.768253 
L 85.207011 114.450293 
L 85.53199 113.109273 
L 85.85697 114.450293 
L 86.181949 114.450293 
L 86.506929 117.132333 
L 86.831908 118.473353 
L 87.156888 118.473353 
L 87.481867 121.155393 
L 87.806847 121.155393 
L 88.131826 123.837433 
L 89.431744 129.201513 
L 90.081704 134.565594 
L 90.731663 137.247634 
L 91.056642 139.929674 
L 91.381622 139.929674 
L 91.706601 145.293754 
L 92.031581 147.975794 
L 92.68154 150.657834 
L 93.006519 153.339874 
L 93.331499 154.680894 
L 93.656478 158.703954 
L 93.981458 160.044974 
L 94.631417 165.409054 
L 94.956396 166.750074 
L 95.281376 169.432114 
L 95.606355 170.773134 
L 96.256314 177.478235 
L 96.581294 180.160275 
L 97.556233 184.183335 
L 97.881212 186.865375 
L 98.206192 190.888435 
L 98.531171 192.229455 
L 98.856151 192.229455 
L 99.18113 190.888435 
L 100.481048 201.616595 
L 101.131007 198.934555 
L 101.455987 201.616595 
L 101.780966 202.957615 
L 102.105946 205.639655 
L 102.430925 206.980675 
L 102.755905 205.639655 
L 103.405864 205.639655 
L 103.730844 206.980675 
L 104.055823 206.980675 
L 104.380803 208.321695 
L 106.0057 201.616595 
L 106.33068 201.616595 
L 106.655659 200.275575 
L 106.980639 200.275575 
L 107.305618 198.934555 
L 107.630598 198.934555 
L 107.955577 197.593535 
L 108.605536 200.275575 
L 108.930516 200.275575 
L 109.255495 202.957615 
L 109.580475 204.298635 
L 109.905455 204.298635 
L 110.230434 202.957615 
L 110.880393 202.957615 
L 111.530352 205.639655 
L 111.855332 202.957615 
L 112.180311 201.616595 
L 112.505291 201.616595 
L 113.15525 204.298635 
L 113.480229 204.298635 
L 113.805209 205.639655 
L 114.455168 202.957615 
L 114.780147 202.957615 
L 115.105127 205.639655 
L 116.080066 201.616595 
L 116.405045 201.616595 
L 116.730025 202.957615 
L 117.055004 202.957615 
L 117.379984 204.298635 
L 119.004881 204.298635 
L 119.329861 202.957615 
L 119.65484 202.957615 
L 119.97982 204.298635 
L 120.629779 204.298635 
L 120.954758 202.957615 
L 121.604717 202.957615 
L 122.254676 205.639655 
L 122.579656 204.298635 
L 122.904636 205.639655 
L 123.554595 202.957615 
L 124.204554 205.639655 
L 124.529533 204.298635 
L 125.829451 204.298635 
L 126.154431 205.639655 
L 126.47941 205.639655 
L 127.129369 202.957615 
L 127.454349 204.298635 
L 128.104308 204.298635 
L 128.429287 205.639655 
L 128.754267 204.298635 
L 129.079247 204.298635 
L 129.404226 205.639655 
L 129.729206 205.639655 
L 130.054185 204.298635 
L 130.379165 204.298635 
L 130.704144 205.639655 
L 131.029124 204.298635 
L 131.354103 205.639655 
L 132.329042 201.616595 
L 132.654021 204.298635 
L 132.979001 205.639655 
L 133.30398 204.298635 
L 134.278919 204.298635 
L 134.603898 205.639655 
L 134.928878 205.639655 
L 135.253857 204.298635 
L 135.578837 205.639655 
L 135.903817 205.639655 
L 136.228796 202.957615 
L 136.553776 202.957615 
L 136.878755 204.298635 
L 137.203735 202.957615 
L 137.528714 200.275575 
L 138.503653 189.547415 
L 138.828632 188.206395 
L 140.778509 165.409054 
L 141.103489 162.727014 
L 141.428468 162.727014 
L 141.753448 160.044974 
L 143.378346 141.270694 
L 143.703325 139.929674 
L 144.353284 134.565594 
L 145.003243 131.883554 
L 145.653202 126.519473 
L 145.978182 122.496413 
L 146.628141 119.814373 
L 147.2781 122.496413 
L 147.603079 119.814373 
L 147.928059 114.450293 
L 148.253038 114.450293 
L 148.578018 113.109273 
L 148.902998 115.791313 
L 149.227977 115.791313 
L 149.552957 113.109273 
L 149.877936 113.109273 
L 150.202916 114.450293 
L 150.852875 111.768253 
L 151.177854 109.086213 
L 151.827813 111.768253 
L 152.477772 117.132333 
L 153.127731 114.450293 
L 153.452711 111.768253 
L 153.77769 111.768253 
L 154.427649 119.814373 
L 154.752629 118.473353 
L 155.402588 118.473353 
L 155.727568 117.132333 
L 156.052547 117.132333 
L 156.377527 119.814373 
L 156.702506 119.814373 
L 157.027486 122.496413 
L 157.352465 123.837433 
L 158.977363 123.837433 
L 159.627322 129.201513 
L 159.952301 129.201513 
L 160.277281 127.860493 
L 161.252219 127.860493 
L 161.902179 130.542533 
L 162.552138 130.542533 
L 162.877117 129.201513 
L 163.202097 131.883554 
L 163.527076 130.542533 
L 163.852056 131.883554 
L 164.177035 129.201513 
L 164.826994 131.883554 
L 165.801933 131.883554 
L 166.126912 129.201513 
L 166.776871 129.201513 
L 167.101851 130.542533 
L 167.42683 130.542533 
L 168.401769 126.519473 
L 168.726749 123.837433 
L 169.051728 125.178453 
L 169.376708 123.837433 
L 170.026667 123.837433 
L 170.676626 121.155393 
L 171.001605 121.155393 
L 171.326585 118.473353 
L 172.301523 118.473353 
L 172.626503 115.791313 
L 173.276462 115.791313 
L 173.926421 113.109273 
L 174.2514 113.109273 
L 174.57638 114.450293 
L 175.226339 111.768253 
L 175.876298 111.768253 
L 176.201278 110.427233 
L 176.526257 110.427233 
L 176.851237 109.086213 
L 177.176216 109.086213 
L 177.501196 110.427233 
L 177.826175 109.086213 
L 178.151155 109.086213 
L 178.476134 110.427233 
L 178.801114 109.086213 
L 179.126093 109.086213 
L 179.451073 110.427233 
L 179.776052 110.427233 
L 180.101032 111.768253 
L 180.426011 111.768253 
L 181.075971 114.450293 
L 181.72593 114.450293 
L 182.050909 115.791313 
L 182.375889 115.791313 
L 182.700868 118.473353 
L 183.025848 118.473353 
L 183.675807 121.155393 
L 184.000786 123.837433 
L 184.325766 123.837433 
L 184.650745 127.860493 
L 184.975725 127.860493 
L 185.300704 129.201513 
L 185.625684 131.883554 
L 185.950663 133.224574 
L 186.600622 138.588654 
L 186.925602 139.929674 
L 187.900541 147.975794 
L 188.22552 147.975794 
L 188.5505 151.998854 
L 188.875479 153.339874 
L 189.200459 157.362934 
L 189.525438 158.703954 
L 190.175397 164.068034 
L 190.500377 165.409054 
L 190.825356 168.091094 
L 191.150336 169.432114 
L 191.475315 173.455174 
L 191.800295 174.796195 
L 192.450254 180.160275 
L 193.100213 182.842315 
L 193.425192 182.842315 
L 193.750172 185.524355 
L 194.400131 192.229455 
L 194.725111 192.229455 
L 195.05009 193.570475 
L 195.37507 193.570475 
L 196.025029 198.934555 
L 196.350008 200.275575 
L 197.324947 200.275575 
L 197.649926 202.957615 
L 197.974906 204.298635 
L 198.299885 206.980675 
L 198.624865 205.639655 
L 199.599803 205.639655 
L 199.924783 206.980675 
L 200.574742 206.980675 
L 200.899722 204.298635 
L 201.224701 204.298635 
L 201.549681 202.957615 
L 201.87466 202.957615 
L 202.19964 201.616595 
L 202.524619 201.616595 
L 202.849599 198.934555 
L 203.174578 200.275575 
L 203.499558 200.275575 
L 203.824537 198.934555 
L 204.474496 198.934555 
L 205.124455 201.616595 
L 205.449435 204.298635 
L 205.774414 202.957615 
L 206.099394 202.957615 
L 206.424373 201.616595 
L 206.749353 202.957615 
L 207.074333 202.957615 
L 207.399312 205.639655 
L 208.049271 200.275575 
L 208.374251 200.275575 
L 209.02421 202.957615 
L 209.349189 205.639655 
L 210.324128 201.616595 
L 210.649107 202.957615 
L 210.974087 202.957615 
L 211.299066 204.298635 
L 211.624046 202.957615 
L 211.949025 200.275575 
L 212.274005 200.275575 
L 212.923964 202.957615 
L 215.198821 202.957615 
L 215.5238 201.616595 
L 215.84878 201.616595 
L 216.173759 202.957615 
L 217.473677 202.957615 
L 217.798657 204.298635 
L 219.098575 204.298635 
L 219.423554 202.957615 
L 220.073514 202.957615 
L 220.398493 204.298635 
L 220.723473 202.957615 
L 221.373432 202.957615 
L 221.698411 204.298635 
L 222.67335 204.298635 
L 222.998329 202.957615 
L 223.648288 202.957615 
L 223.973268 204.298635 
L 224.623227 204.298635 
L 224.948206 202.957615 
L 225.598165 202.957615 
L 226.248124 205.639655 
L 226.573104 202.957615 
L 226.898084 205.639655 
L 227.223063 204.298635 
L 227.548043 204.298635 
L 227.873022 202.957615 
L 228.198002 202.957615 
L 228.522981 204.298635 
L 228.847961 202.957615 
L 229.17294 205.639655 
L 229.49792 204.298635 
L 229.822899 204.298635 
L 230.147879 202.957615 
L 230.797838 202.957615 
L 231.447797 205.639655 
L 231.772776 205.639655 
L 232.097756 202.957615 
L 232.422735 204.298635 
L 232.747715 202.957615 
L 233.072695 202.957615 
L 234.372613 188.206395 
L 234.697592 188.206395 
L 235.022572 185.524355 
L 236.972449 162.727014 
L 237.297428 162.727014 
L 237.622408 160.044974 
L 238.272367 150.657834 
L 238.922326 142.611714 
L 239.572285 139.929674 
L 240.222244 134.565594 
L 240.872203 131.883554 
L 241.522162 126.519473 
L 242.172121 119.814373 
L 242.497101 121.155393 
L 243.14706 121.155393 
L 243.472039 119.814373 
L 244.121998 111.768253 
L 244.446978 111.768253 
L 244.771957 114.450293 
L 245.096937 115.791313 
L 245.746896 113.109273 
L 246.396855 113.109273 
L 246.721835 111.768253 
L 247.046814 111.768253 
L 247.371794 110.427233 
L 247.696773 111.768253 
L 248.021753 114.450293 
L 248.346732 115.791313 
L 248.671712 115.791313 
L 248.996691 114.450293 
L 249.321671 111.768253 
L 249.64665 111.768253 
L 250.296609 118.473353 
L 250.621589 118.473353 
L 250.946568 117.132333 
L 251.921507 117.132333 
L 252.246486 119.814373 
L 252.571466 121.155393 
L 252.896446 123.837433 
L 253.221425 122.496413 
L 253.546405 123.837433 
L 254.521343 123.837433 
L 255.171302 126.519473 
L 255.496282 129.201513 
L 255.821261 129.201513 
L 256.146241 127.860493 
L 256.47122 127.860493 
L 256.7962 126.519473 
L 257.121179 129.201513 
L 257.446159 130.542533 
L 258.746077 130.542533 
L 259.071057 131.883554 
L 259.396036 131.883554 
L 260.045995 129.201513 
L 260.695954 131.883554 
L 261.020934 130.542533 
L 261.345913 131.883554 
L 262.320852 127.860493 
L 262.645831 129.201513 
L 263.29579 129.201513 
L 263.945749 126.519473 
L 264.270729 127.860493 
L 265.570647 122.496413 
L 265.895627 125.178453 
L 267.520524 118.473353 
L 268.495463 118.473353 
L 269.145422 115.791313 
L 269.470401 113.109273 
L 269.795381 114.450293 
L 270.12036 113.109273 
L 270.44534 114.450293 
L 271.095299 111.768253 
L 271.420278 111.768253 
L 271.745258 110.427233 
L 272.395217 110.427233 
L 272.720197 109.086213 
L 273.045176 110.427233 
L 273.370156 109.086213 
L 273.695135 110.427233 
L 274.020115 110.427233 
L 274.345094 109.086213 
L 274.670074 109.086213 
L 274.995053 110.427233 
L 275.320033 109.086213 
L 275.645012 110.427233 
L 275.969992 110.427233 
L 276.619951 113.109273 
L 276.94493 113.109273 
L 277.26991 114.450293 
L 277.594889 114.450293 
L 278.244848 117.132333 
L 278.569828 117.132333 
L 278.894808 119.814373 
L 279.544767 119.814373 
L 279.869746 123.837433 
L 280.844685 127.860493 
L 281.494644 133.224574 
L 282.794562 138.588654 
L 283.119541 141.270694 
L 283.444521 145.293754 
L 284.419459 149.316814 
L 284.744439 151.998854 
L 285.394398 158.703954 
L 285.719378 161.385994 
L 286.044357 162.727014 
L 286.369337 166.750074 
L 286.694316 166.750074 
L 287.019296 168.091094 
L 287.669255 173.455174 
L 287.994234 177.478235 
L 288.319214 178.819255 
L 288.644193 181.501295 
L 288.969173 181.501295 
L 290.269091 192.229455 
L 290.91905 192.229455 
L 291.244029 193.570475 
L 291.569009 196.252515 
L 291.893989 200.275575 
L 292.218968 201.616595 
L 292.543948 200.275575 
L 292.868927 200.275575 
L 293.193907 201.616595 
L 293.518886 204.298635 
L 293.843866 205.639655 
L 294.168845 208.321695 
L 294.493825 206.980675 
L 294.818804 206.980675 
L 295.143784 205.639655 
L 295.468763 205.639655 
L 295.793743 206.980675 
L 296.443702 206.980675 
L 297.41864 202.957615 
L 297.74362 202.957615 
L 298.393579 200.275575 
L 299.043538 200.275575 
L 299.368518 198.934555 
L 299.693497 200.275575 
L 300.018477 198.934555 
L 300.343456 198.934555 
L 300.668436 201.616595 
L 301.318395 204.298635 
L 301.643374 202.957615 
L 301.968354 202.957615 
L 302.293333 204.298635 
L 302.618313 204.298635 
L 302.943292 205.639655 
L 303.268272 205.639655 
L 303.593251 202.957615 
L 304.24321 200.275575 
L 304.56819 201.616595 
L 304.89317 204.298635 
L 305.218149 205.639655 
L 305.868108 202.957615 
L 306.193088 202.957615 
L 306.843047 205.639655 
L 307.168026 204.298635 
L 307.493006 204.298635 
L 307.817985 201.616595 
L 308.792924 201.616595 
L 309.117903 202.957615 
L 309.767862 202.957615 
L 310.092842 204.298635 
L 310.417821 202.957615 
L 312.367699 202.957615 
L 312.692678 204.298635 
L 313.017658 202.957615 
L 313.342637 202.957615 
L 313.667617 204.298635 
L 313.992596 204.298635 
L 314.317576 202.957615 
L 314.642555 202.957615 
L 314.967535 201.616595 
L 315.292514 202.957615 
L 315.617494 201.616595 
L 315.942473 202.957615 
L 316.267453 202.957615 
L 316.592432 201.616595 
L 317.242391 201.616595 
L 317.567371 204.298635 
L 317.892351 205.639655 
L 318.21733 204.298635 
L 318.867289 204.298635 
L 319.192269 202.957615 
L 319.517248 202.957615 
L 319.842228 204.298635 
L 320.167207 202.957615 
L 320.492187 202.957615 
L 320.817166 204.298635 
L 321.142146 204.298635 
L 321.467125 202.957615 
L 321.792105 202.957615 
L 322.117084 204.298635 
L 322.442064 202.957615 
L 323.092023 205.639655 
L 323.417002 202.957615 
L 323.741982 204.298635 
L 325.0419 204.298635 
L 325.36688 202.957615 
L 325.691859 204.298635 
L 326.016839 202.957615 
L 326.341818 202.957615 
L 326.991777 205.639655 
L 327.316757 204.298635 
L 328.291695 204.298635 
L 328.616675 202.957615 
L 328.941654 202.957615 
L 329.266634 200.275575 
L 329.591613 193.570475 
L 329.916593 189.547415 
L 330.566552 186.865375 
L 331.216511 181.501295 
L 331.86647 172.114154 
L 332.19145 169.432114 
L 332.516429 164.068034 
L 333.491368 160.044974 
L 335.116265 141.270694 
L 335.441245 139.929674 
L 335.766224 137.247634 
L 336.091204 135.906614 
L 336.416183 133.224574 
L 337.066143 130.542533 
L 337.716102 122.496413 
L 338.041081 121.155393 
L 338.366061 121.155393 
L 338.69104 123.837433 
L 339.01602 121.155393 
L 339.340999 119.814373 
L 339.665979 115.791313 
L 340.315938 113.109273 
L 340.640917 115.791313 
L 340.965897 114.450293 
L 341.290876 115.791313 
L 341.940835 113.109273 
L 342.265815 114.450293 
L 342.590794 113.109273 
L 342.915774 110.427233 
L 343.240753 110.427233 
L 343.890713 115.791313 
L 344.215692 117.132333 
L 344.540672 115.791313 
L 344.865651 113.109273 
L 345.190631 111.768253 
L 345.51561 111.768253 
L 346.165569 118.473353 
L 346.490549 119.814373 
L 346.815528 119.814373 
L 347.140508 117.132333 
L 347.465487 118.473353 
L 347.790467 117.132333 
L 348.115446 117.132333 
L 349.090385 125.178453 
L 349.415364 125.178453 
L 349.740344 123.837433 
L 350.390303 123.837433 
L 350.715283 126.519473 
L 351.040262 126.519473 
L 351.365242 129.201513 
L 352.015201 129.201513 
L 352.34018 126.519473 
L 352.990139 129.201513 
L 353.315119 129.201513 
L 353.965078 131.883554 
L 354.290057 131.883554 
L 354.615037 130.542533 
L 354.940016 130.542533 
L 355.264996 133.224574 
L 355.914955 130.542533 
L 356.239934 131.883554 
L 356.564914 131.883554 
L 356.889894 133.224574 
L 357.539853 130.542533 
L 357.864832 130.542533 
L 358.189812 127.860493 
L 358.514791 129.201513 
L 358.839771 129.201513 
L 359.16475 130.542533 
L 359.48973 130.542533 
L 360.139689 125.178453 
L 360.464668 125.178453 
L 360.789648 123.837433 
L 361.114627 125.178453 
L 361.439607 123.837433 
L 362.089566 123.837433 
L 362.414545 122.496413 
L 362.739525 119.814373 
L 363.389484 119.814373 
L 363.714464 117.132333 
L 364.039443 118.473353 
L 364.364423 118.473353 
L 365.664341 113.109273 
L 365.98932 114.450293 
L 366.3143 113.109273 
L 366.639279 113.109273 
L 366.964259 111.768253 
L 367.289238 111.768253 
L 367.614218 110.427233 
L 367.939197 110.427233 
L 368.264177 111.768253 
L 368.914136 109.086213 
L 369.889075 109.086213 
L 370.214054 107.745193 
L 370.539034 109.086213 
L 371.188993 109.086213 
L 371.513972 110.427233 
L 371.838952 110.427233 
L 372.488911 113.109273 
L 373.13887 113.109273 
L 373.463849 114.450293 
L 373.788829 114.450293 
L 374.113808 115.791313 
L 374.438788 118.473353 
L 374.763767 119.814373 
L 375.088747 119.814373 
L 375.738706 122.496413 
L 376.063686 125.178453 
L 376.388665 126.519473 
L 376.713645 129.201513 
L 377.363604 131.883554 
L 377.688583 134.565594 
L 378.338542 137.247634 
L 378.988501 142.611714 
L 379.313481 143.952734 
L 379.63846 146.634774 
L 379.96344 147.975794 
L 380.288419 150.657834 
L 380.613399 151.998854 
L 380.938378 154.680894 
L 381.588337 161.385994 
L 381.913317 162.727014 
L 382.238296 166.750074 
L 382.563276 168.091094 
L 382.888256 170.773134 
L 383.538215 173.455174 
L 384.188174 180.160275 
L 384.513153 181.501295 
L 384.838133 181.501295 
L 385.163112 182.842315 
L 385.813071 189.547415 
L 386.138051 192.229455 
L 387.112989 192.229455 
L 387.762948 200.275575 
L 388.087928 201.616595 
L 388.412907 201.616595 
L 388.737887 198.934555 
L 389.062867 200.275575 
L 390.037805 208.321695 
L 390.362785 208.321695 
L 391.012744 205.639655 
L 391.662703 208.321695 
L 391.987682 208.321695 
L 392.962621 204.298635 
L 393.2876 204.298635 
L 393.937559 201.616595 
L 394.262539 201.616595 
L 394.912498 198.934555 
L 395.562457 198.934555 
L 395.887437 197.593535 
L 396.537396 200.275575 
L 396.862375 202.957615 
L 397.187355 204.298635 
L 397.512334 204.298635 
L 397.837314 202.957615 
L 398.162293 202.957615 
L 398.487273 204.298635 
L 398.487273 204.298635 
" clip-path="url(#p6153c08f83)" style="fill: none; stroke: #ff7f0e; stroke-width: 1.5; stroke-linecap: square"/>
   </g>
   <g id="line2d_17">
    <path d="M 73.832727 104.526761 
L 74.157707 115.254921 
L 74.482686 115.254921 
L 74.807666 123.301042 
L 75.132645 120.619002 
L 75.457625 128.665122 
L 75.782604 131.347162 
L 76.432563 142.075322 
L 76.757543 144.757362 
L 77.407502 155.485522 
L 78.057461 160.849603 
L 78.382441 168.895723 
L 79.0324 174.259803 
L 80.007338 190.352043 
L 80.332318 193.034083 
L 80.657297 201.080203 
L 80.982277 201.080203 
L 81.307256 203.762244 
L 82.282195 219.854484 
L 82.932154 219.854484 
L 83.582113 233.264684 
L 83.907093 233.264684 
L 84.232072 235.946724 
L 84.557052 241.310804 
L 84.882031 241.310804 
L 85.207011 246.674885 
L 85.53199 243.992844 
L 85.85697 252.038965 
L 86.181949 252.038965 
L 86.506929 254.721005 
L 86.831908 254.721005 
L 87.806847 262.767125 
L 88.131826 260.085085 
L 88.456806 260.085085 
L 88.781785 262.767125 
L 89.106765 262.767125 
L 89.431744 260.085085 
L 90.406683 268.131205 
L 90.731663 260.085085 
L 91.056642 262.767125 
L 91.706601 262.767125 
L 92.031581 260.085085 
L 92.35656 260.085085 
L 92.68154 257.403045 
L 93.006519 260.085085 
L 93.331499 254.721005 
L 93.981458 249.356925 
L 94.306437 249.356925 
L 95.281376 241.310804 
L 95.606355 241.310804 
L 95.931335 230.582644 
L 96.256314 233.264684 
L 96.581294 233.264684 
L 96.906274 227.900604 
L 97.231253 225.218564 
L 97.556233 217.172444 
L 97.881212 214.490404 
L 98.206192 214.490404 
L 98.856151 201.080203 
L 99.18113 201.080203 
L 99.50611 195.716123 
L 99.831089 187.670003 
L 100.156069 190.352043 
L 100.481048 184.987963 
L 100.806028 182.305923 
L 101.131007 171.577763 
L 101.455987 171.577763 
L 101.780966 163.531643 
L 102.105946 163.531643 
L 102.430925 160.849603 
L 102.755905 155.485522 
L 103.080885 147.439402 
L 103.405864 144.757362 
L 103.730844 136.711242 
L 104.055823 136.711242 
L 104.380803 134.029202 
L 104.705782 128.665122 
L 105.030762 120.619002 
L 106.0057 112.572881 
L 106.33068 104.526761 
L 106.655659 104.526761 
L 106.980639 101.844721 
L 107.305618 96.480641 
L 107.630598 93.798601 
L 107.955577 88.434521 
L 108.280557 85.752481 
L 108.605536 85.752481 
L 108.930516 80.388401 
L 109.255495 77.706361 
L 109.580475 77.706361 
L 110.230434 66.9782 
L 111.205373 66.9782 
L 111.530352 61.61412 
L 111.855332 61.61412 
L 112.505291 56.25004 
L 112.83027 58.93208 
L 113.805209 58.93208 
L 114.130188 56.25004 
L 114.455168 58.93208 
L 115.105127 58.93208 
L 115.430106 53.568 
L 115.755086 61.61412 
L 116.080066 58.93208 
L 116.405045 61.61412 
L 116.730025 61.61412 
L 117.055004 66.9782 
L 117.379984 64.29616 
L 117.704963 69.66024 
L 118.354922 75.024321 
L 118.679902 75.024321 
L 119.004881 80.388401 
L 119.329861 80.388401 
L 119.65484 83.070441 
L 119.97982 88.434521 
L 120.629779 93.798601 
L 120.954758 99.162681 
L 121.279738 101.844721 
L 121.604717 107.208801 
L 121.929697 104.526761 
L 122.254676 115.254921 
L 122.579656 115.254921 
L 123.879574 136.711242 
L 124.204554 139.393282 
L 124.529533 139.393282 
L 125.504472 155.485522 
L 125.829451 155.485522 
L 126.47941 168.895723 
L 126.80439 174.259803 
L 127.129369 171.577763 
L 127.454349 184.987963 
L 128.754267 195.716123 
L 129.079247 203.762244 
L 129.404226 206.444284 
L 129.729206 206.444284 
L 130.379165 217.172444 
L 130.704144 219.854484 
L 131.029124 225.218564 
L 131.679083 230.582644 
L 132.004062 235.946724 
L 132.329042 230.582644 
L 132.654021 241.310804 
L 132.979001 241.310804 
L 133.62896 246.674885 
L 133.953939 246.674885 
L 134.603898 252.038965 
L 134.928878 249.356925 
L 135.578837 260.085085 
L 136.878755 260.085085 
L 137.203735 262.767125 
L 137.528714 257.403045 
L 137.853694 262.767125 
L 138.503653 262.767125 
L 138.828632 260.085085 
L 139.153612 262.767125 
L 139.478591 260.085085 
L 139.803571 262.767125 
L 140.12855 254.721005 
L 140.45353 254.721005 
L 140.778509 257.403045 
L 142.078428 246.674885 
L 142.403407 246.674885 
L 142.728387 238.628764 
L 143.053366 241.310804 
L 144.353284 230.582644 
L 144.678264 225.218564 
L 145.003243 222.536524 
L 145.328223 217.172444 
L 145.978182 211.808364 
L 146.303161 206.444284 
L 146.95312 201.080203 
L 147.2781 195.716123 
L 147.603079 193.034083 
L 147.928059 184.987963 
L 148.253038 184.987963 
L 148.578018 179.623883 
L 148.902998 176.941843 
L 149.877936 160.849603 
L 150.202916 160.849603 
L 150.527895 150.121442 
L 150.852875 147.439402 
L 151.177854 147.439402 
L 151.502834 142.075322 
L 151.827813 134.029202 
L 152.152793 134.029202 
L 152.477772 128.665122 
L 152.802752 125.983082 
L 153.127731 115.254921 
L 153.452711 115.254921 
L 153.77769 109.890841 
L 154.10267 109.890841 
L 154.427649 101.844721 
L 155.077609 96.480641 
L 155.402588 96.480641 
L 155.727568 88.434521 
L 157.027486 77.706361 
L 157.352465 77.706361 
L 158.002424 72.34228 
L 158.327404 64.29616 
L 158.652383 66.9782 
L 158.977363 64.29616 
L 159.302342 64.29616 
L 159.952301 58.93208 
L 160.277281 61.61412 
L 160.92724 56.25004 
L 161.577199 56.25004 
L 161.902179 58.93208 
L 162.227158 56.25004 
L 162.877117 56.25004 
L 163.202097 61.61412 
L 163.527076 58.93208 
L 163.852056 61.61412 
L 164.177035 61.61412 
L 164.502015 64.29616 
L 165.151974 64.29616 
L 165.476953 66.9782 
L 165.801933 72.34228 
L 166.126912 69.66024 
L 166.451892 75.024321 
L 167.101851 80.388401 
L 167.42683 80.388401 
L 167.75181 88.434521 
L 168.07679 91.116561 
L 168.401769 96.480641 
L 168.726749 93.798601 
L 169.051728 101.844721 
L 169.376708 101.844721 
L 169.701687 109.890841 
L 170.351646 115.254921 
L 171.001605 125.983082 
L 171.326585 125.983082 
L 172.301523 142.075322 
L 172.626503 142.075322 
L 173.276462 155.485522 
L 173.601441 160.849603 
L 173.926421 158.167562 
L 174.2514 168.895723 
L 174.57638 168.895723 
L 175.226339 182.305923 
L 175.551319 184.987963 
L 176.201278 195.716123 
L 176.526257 195.716123 
L 177.176216 206.444284 
L 177.501196 209.126324 
L 177.826175 209.126324 
L 178.151155 217.172444 
L 178.476134 219.854484 
L 178.801114 225.218564 
L 179.126093 219.854484 
L 179.451073 233.264684 
L 179.776052 233.264684 
L 180.101032 238.628764 
L 180.426011 241.310804 
L 180.750991 241.310804 
L 181.075971 243.992844 
L 181.40095 249.356925 
L 181.72593 246.674885 
L 182.050909 249.356925 
L 182.375889 254.721005 
L 183.025848 254.721005 
L 183.350827 260.085085 
L 183.675807 262.767125 
L 184.000786 262.767125 
L 184.325766 260.085085 
L 184.650745 265.449165 
L 184.975725 265.449165 
L 185.300704 262.767125 
L 185.625684 265.449165 
L 185.950663 265.449165 
L 186.275643 262.767125 
L 186.600622 265.449165 
L 186.925602 262.767125 
L 187.575561 262.767125 
L 188.22552 257.403045 
L 188.875479 257.403045 
L 189.200459 254.721005 
L 189.525438 249.356925 
L 189.850418 252.038965 
L 190.175397 252.038965 
L 190.500377 246.674885 
L 190.825356 243.992844 
L 191.150336 243.992844 
L 191.800295 238.628764 
L 192.125274 230.582644 
L 192.450254 227.900604 
L 192.775233 227.900604 
L 193.100213 225.218564 
L 193.425192 214.490404 
L 193.750172 217.172444 
L 194.075152 211.808364 
L 194.400131 211.808364 
L 194.725111 203.762244 
L 195.05009 201.080203 
L 195.700049 190.352043 
L 196.350008 184.987963 
L 196.674988 179.623883 
L 196.999967 176.941843 
L 197.324947 168.895723 
L 197.649926 166.213683 
L 197.974906 160.849603 
L 198.299885 158.167562 
L 198.624865 150.121442 
L 198.949844 147.439402 
L 199.274824 142.075322 
L 199.599803 142.075322 
L 199.924783 131.347162 
L 200.249762 131.347162 
L 200.574742 123.301042 
L 200.899722 120.619002 
L 201.224701 115.254921 
L 201.87466 109.890841 
L 202.19964 109.890841 
L 202.524619 99.162681 
L 202.849599 96.480641 
L 203.174578 96.480641 
L 203.499558 91.116561 
L 203.824537 88.434521 
L 204.149517 88.434521 
L 204.474496 83.070441 
L 204.799476 83.070441 
L 205.124455 75.024321 
L 205.449435 77.706361 
L 205.774414 72.34228 
L 206.099394 69.66024 
L 206.424373 69.66024 
L 206.749353 66.9782 
L 207.074333 66.9782 
L 207.399312 64.29616 
L 207.724292 58.93208 
L 209.349189 58.93208 
L 209.674169 56.25004 
L 210.324128 56.25004 
L 210.649107 61.61412 
L 210.974087 56.25004 
L 211.299066 58.93208 
L 211.624046 58.93208 
L 211.949025 61.61412 
L 212.274005 61.61412 
L 212.598984 64.29616 
L 212.923964 64.29616 
L 213.248943 69.66024 
L 213.898903 69.66024 
L 214.223882 72.34228 
L 214.548862 77.706361 
L 215.198821 83.070441 
L 215.5238 83.070441 
L 215.84878 91.116561 
L 216.173759 91.116561 
L 216.823718 96.480641 
L 217.148698 101.844721 
L 217.473677 104.526761 
L 217.798657 112.572881 
L 218.123636 109.890841 
L 218.448616 117.936962 
L 218.773595 120.619002 
L 219.098575 125.983082 
L 219.423554 128.665122 
L 220.073514 139.393282 
L 220.398493 142.075322 
L 220.723473 142.075322 
L 221.373432 155.485522 
L 221.698411 160.849603 
L 222.023391 163.531643 
L 222.34837 168.895723 
L 222.67335 171.577763 
L 222.998329 179.623883 
L 223.323309 179.623883 
L 224.298247 195.716123 
L 224.623227 195.716123 
L 224.948206 201.080203 
L 225.598165 214.490404 
L 225.923145 209.126324 
L 226.248124 217.172444 
L 226.573104 219.854484 
L 226.898084 225.218564 
L 227.873022 233.264684 
L 228.198002 238.628764 
L 228.522981 238.628764 
L 228.847961 241.310804 
L 229.17294 246.674885 
L 229.49792 246.674885 
L 229.822899 249.356925 
L 230.147879 249.356925 
L 230.797838 254.721005 
L 231.122817 252.038965 
L 231.447797 260.085085 
L 232.097756 260.085085 
L 232.422735 257.403045 
L 232.747715 262.767125 
L 233.072695 260.085085 
L 233.397674 265.449165 
L 233.722654 260.085085 
L 235.99751 260.085085 
L 236.32249 254.721005 
L 236.647469 257.403045 
L 236.972449 252.038965 
L 237.297428 252.038965 
L 238.272367 243.992844 
L 238.597346 243.992844 
L 238.922326 238.628764 
L 241.197183 219.854484 
L 241.522162 209.126324 
L 241.847142 211.808364 
L 242.172121 209.126324 
L 242.497101 203.762244 
L 242.82208 201.080203 
L 243.14706 195.716123 
L 243.797019 190.352043 
L 244.446978 176.941843 
L 245.096937 171.577763 
L 245.421916 163.531643 
L 245.746896 163.531643 
L 246.071876 158.167562 
L 246.396855 155.485522 
L 246.721835 147.439402 
L 247.046814 144.757362 
L 247.371794 139.393282 
L 248.021753 134.029202 
L 249.321671 112.572881 
L 250.296609 104.526761 
L 250.621589 99.162681 
L 251.596527 91.116561 
L 251.921507 83.070441 
L 252.246486 85.752481 
L 252.571466 83.070441 
L 252.896446 77.706361 
L 253.871384 69.66024 
L 254.196364 72.34228 
L 254.521343 64.29616 
L 255.171302 64.29616 
L 255.821261 58.93208 
L 256.7962 58.93208 
L 257.121179 53.568 
L 257.446159 53.568 
L 257.771138 58.93208 
L 258.096118 56.25004 
L 258.746077 56.25004 
L 259.071057 58.93208 
L 259.396036 58.93208 
L 259.721016 56.25004 
L 260.045995 56.25004 
L 260.370975 61.61412 
L 260.695954 64.29616 
L 261.020934 64.29616 
L 261.345913 69.66024 
L 261.995872 75.024321 
L 262.320852 75.024321 
L 262.970811 80.388401 
L 263.29579 85.752481 
L 264.270729 93.798601 
L 264.595708 99.162681 
L 264.920688 96.480641 
L 265.570647 109.890841 
L 265.895627 109.890841 
L 266.220606 115.254921 
L 266.545586 117.936962 
L 267.195545 128.665122 
L 267.520524 128.665122 
L 267.845504 139.393282 
L 268.170483 142.075322 
L 268.495463 147.439402 
L 268.820442 150.121442 
L 269.145422 155.485522 
L 269.470401 158.167562 
L 269.795381 163.531643 
L 270.12036 163.531643 
L 270.770319 176.941843 
L 271.420278 182.305923 
L 271.745258 190.352043 
L 272.070238 193.034083 
L 272.395217 201.080203 
L 272.720197 198.398163 
L 273.370156 211.808364 
L 273.695135 211.808364 
L 274.020115 217.172444 
L 274.345094 219.854484 
L 274.995053 230.582644 
L 275.320033 227.900604 
L 275.645012 233.264684 
L 275.969992 235.946724 
L 276.294971 241.310804 
L 276.619951 238.628764 
L 276.94493 243.992844 
L 277.594889 249.356925 
L 277.919869 249.356925 
L 278.244848 254.721005 
L 278.894808 254.721005 
L 279.219787 257.403045 
L 279.544767 262.767125 
L 279.869746 262.767125 
L 280.194726 265.449165 
L 280.519705 260.085085 
L 281.169664 265.449165 
L 281.494644 265.449165 
L 281.819623 262.767125 
L 282.144603 265.449165 
L 282.794562 265.449165 
L 283.119541 257.403045 
L 283.444521 262.767125 
L 283.7695 262.767125 
L 284.09448 257.403045 
L 284.744439 257.403045 
L 285.069419 254.721005 
L 285.394398 257.403045 
L 285.719378 249.356925 
L 286.044357 246.674885 
L 286.369337 246.674885 
L 287.019296 235.946724 
L 287.344275 238.628764 
L 287.669255 235.946724 
L 287.994234 235.946724 
L 288.319214 227.900604 
L 288.644193 227.900604 
L 288.969173 225.218564 
L 289.294152 219.854484 
L 289.944111 214.490404 
L 290.269091 206.444284 
L 290.59407 209.126324 
L 290.91905 198.398163 
L 291.244029 195.716123 
L 291.569009 190.352043 
L 291.893989 187.670003 
L 292.218968 182.305923 
L 292.543948 179.623883 
L 292.868927 174.259803 
L 293.193907 171.577763 
L 293.518886 163.531643 
L 293.843866 163.531643 
L 294.168845 160.849603 
L 294.818804 147.439402 
L 295.143784 142.075322 
L 295.468763 139.393282 
L 295.793743 139.393282 
L 296.118722 128.665122 
L 296.443702 123.301042 
L 296.768681 125.983082 
L 297.41864 112.572881 
L 297.74362 112.572881 
L 298.0686 107.208801 
L 298.393579 107.208801 
L 298.718559 96.480641 
L 299.043538 96.480641 
L 300.993415 80.388401 
L 301.318395 75.024321 
L 301.643374 72.34228 
L 301.968354 72.34228 
L 302.293333 66.9782 
L 302.618313 64.29616 
L 303.268272 64.29616 
L 303.593251 61.61412 
L 303.918231 56.25004 
L 304.24321 61.61412 
L 304.89317 61.61412 
L 305.543129 56.25004 
L 305.868108 58.93208 
L 306.193088 58.93208 
L 306.518067 53.568 
L 307.168026 58.93208 
L 307.493006 58.93208 
L 308.142965 64.29616 
L 308.467944 64.29616 
L 308.792924 66.9782 
L 309.117903 61.61412 
L 309.442883 69.66024 
L 309.767862 72.34228 
L 310.092842 77.706361 
L 310.417821 77.706361 
L 311.39276 85.752481 
L 311.71774 85.752481 
L 312.367699 96.480641 
L 312.692678 99.162681 
L 313.017658 99.162681 
L 313.992596 115.254921 
L 314.317576 115.254921 
L 314.642555 120.619002 
L 314.967535 120.619002 
L 315.292514 128.665122 
L 315.617494 131.347162 
L 315.942473 139.393282 
L 316.267453 142.075322 
L 316.592432 147.439402 
L 317.242391 152.803482 
L 317.892351 163.531643 
L 318.21733 166.213683 
L 318.54231 174.259803 
L 318.867289 176.941843 
L 319.192269 182.305923 
L 319.517248 182.305923 
L 319.842228 190.352043 
L 320.167207 193.034083 
L 320.492187 198.398163 
L 320.817166 201.080203 
L 321.142146 206.444284 
L 321.467125 206.444284 
L 321.792105 211.808364 
L 322.117084 214.490404 
L 322.767043 225.218564 
L 323.092023 227.900604 
L 323.417002 227.900604 
L 323.741982 233.264684 
L 324.066962 235.946724 
L 324.391941 241.310804 
L 324.716921 238.628764 
L 325.0419 243.992844 
L 326.991777 260.085085 
L 327.316757 257.403045 
L 327.641736 257.403045 
L 327.966716 260.085085 
L 328.616675 260.085085 
L 329.266634 265.449165 
L 329.591613 265.449165 
L 329.916593 257.403045 
L 330.566552 262.767125 
L 330.891532 262.767125 
L 331.216511 260.085085 
L 331.541491 260.085085 
L 331.86647 254.721005 
L 332.19145 257.403045 
L 332.516429 252.038965 
L 333.166388 252.038965 
L 333.816347 246.674885 
L 334.141327 246.674885 
L 334.466306 241.310804 
L 334.791286 243.992844 
L 335.116265 235.946724 
L 335.441245 235.946724 
L 336.091204 230.582644 
L 336.416183 225.218564 
L 337.391122 217.172444 
L 337.716102 209.126324 
L 338.041081 206.444284 
L 338.366061 206.444284 
L 339.01602 195.716123 
L 339.340999 193.034083 
L 339.665979 187.670003 
L 339.990958 187.670003 
L 340.315938 176.941843 
L 340.640917 176.941843 
L 341.290876 166.213683 
L 341.615856 163.531643 
L 341.940835 158.167562 
L 342.265815 150.121442 
L 342.590794 150.121442 
L 342.915774 139.393282 
L 343.240753 139.393282 
L 343.565733 136.711242 
L 343.890713 131.347162 
L 344.215692 123.301042 
L 344.540672 123.301042 
L 344.865651 117.936962 
L 345.190631 115.254921 
L 345.51561 109.890841 
L 345.84059 109.890841 
L 346.165569 101.844721 
L 346.490549 101.844721 
L 346.815528 96.480641 
L 347.140508 93.798601 
L 347.465487 85.752481 
L 347.790467 88.434521 
L 348.115446 83.070441 
L 348.765405 77.706361 
L 349.090385 77.706361 
L 349.415364 69.66024 
L 349.740344 72.34228 
L 350.065324 64.29616 
L 350.390303 69.66024 
L 350.715283 61.61412 
L 351.040262 64.29616 
L 351.365242 61.61412 
L 351.690221 61.61412 
L 352.015201 58.93208 
L 352.990139 58.93208 
L 353.315119 56.25004 
L 353.640098 56.25004 
L 353.965078 58.93208 
L 354.290057 56.25004 
L 354.940016 56.25004 
L 355.589975 61.61412 
L 355.914955 58.93208 
L 356.239934 64.29616 
L 356.564914 64.29616 
L 356.889894 69.66024 
L 357.214873 69.66024 
L 358.189812 77.706361 
L 358.514791 77.706361 
L 358.839771 80.388401 
L 359.16475 85.752481 
L 359.48973 83.070441 
L 359.814709 85.752481 
L 360.139689 96.480641 
L 361.114627 104.526761 
L 361.439607 109.890841 
L 361.764586 109.890841 
L 362.414545 120.619002 
L 362.739525 123.301042 
L 363.389484 136.711242 
L 363.714464 134.029202 
L 364.364423 147.439402 
L 364.689402 152.803482 
L 365.014382 152.803482 
L 365.98932 168.895723 
L 366.3143 171.577763 
L 366.639279 179.623883 
L 367.289238 184.987963 
L 368.264177 201.080203 
L 369.239115 209.126324 
L 369.564095 217.172444 
L 369.889075 217.172444 
L 370.214054 219.854484 
L 370.539034 225.218564 
L 370.864013 227.900604 
L 371.188993 233.264684 
L 371.513972 230.582644 
L 371.838952 241.310804 
L 372.163931 241.310804 
L 372.488911 243.992844 
L 372.81389 243.992844 
L 373.788829 252.038965 
L 374.438788 252.038965 
L 374.763767 257.403045 
L 375.088747 260.085085 
L 375.413726 260.085085 
L 375.738706 262.767125 
L 376.063686 260.085085 
L 376.388665 265.449165 
L 376.713645 260.085085 
L 377.038624 265.449165 
L 377.363604 265.449165 
L 377.688583 262.767125 
L 378.013563 265.449165 
L 378.338542 265.449165 
L 378.663522 260.085085 
L 378.988501 265.449165 
L 379.313481 260.085085 
L 379.96344 260.085085 
L 380.613399 254.721005 
L 380.938378 257.403045 
L 381.263358 252.038965 
L 381.588337 254.721005 
L 381.913317 243.992844 
L 382.238296 246.674885 
L 382.563276 246.674885 
L 382.888256 241.310804 
L 383.538215 235.946724 
L 383.863194 230.582644 
L 384.188174 227.900604 
L 384.513153 222.536524 
L 384.838133 222.536524 
L 385.163112 217.172444 
L 385.488092 217.172444 
L 385.813071 209.126324 
L 386.138051 209.126324 
L 386.78801 198.398163 
L 387.112989 190.352043 
L 387.437969 193.034083 
L 387.762948 190.352043 
L 388.087928 182.305923 
L 388.737887 176.941843 
L 389.062867 168.895723 
L 389.387846 166.213683 
L 390.037805 155.485522 
L 390.362785 152.803482 
L 390.687764 147.439402 
L 391.012744 139.393282 
L 391.337723 139.393282 
L 391.662703 136.711242 
L 391.987682 131.347162 
L 392.312662 123.301042 
L 392.637641 123.301042 
L 392.962621 117.936962 
L 393.2876 117.936962 
L 393.61258 109.890841 
L 393.937559 109.890841 
L 394.262539 99.162681 
L 395.562457 88.434521 
L 396.212416 77.706361 
L 396.537396 77.706361 
L 396.862375 80.388401 
L 397.187355 80.388401 
L 397.512334 72.34228 
L 397.837314 72.34228 
L 398.162293 66.9782 
L 398.487273 66.9782 
L 398.487273 66.9782 
" clip-path="url(#p6153c08f83)" style="fill: none; stroke: #2ca02c; stroke-width: 1.5; stroke-linecap: square"/>
   </g>
   <g id="line2d_18">
    <path d="M 73.832727 134.565596 
L 74.157707 142.611716 
L 74.482686 145.293756 
L 74.807666 145.293756 
L 75.457625 156.021917 
L 75.782604 156.021917 
L 76.432563 166.750077 
L 76.757543 169.432117 
L 77.082523 174.796197 
L 77.407502 177.478237 
L 78.057461 188.206397 
L 79.0324 196.252518 
L 79.357379 206.980678 
L 79.682359 209.662718 
L 80.007338 209.662718 
L 80.332318 217.708838 
L 80.982277 223.072918 
L 81.307256 228.436998 
L 81.957215 233.801079 
L 82.282195 239.165159 
L 82.932154 244.529239 
L 83.257133 252.575359 
L 83.907093 252.575359 
L 84.557052 263.303519 
L 84.882031 263.303519 
L 85.207011 265.985559 
L 85.53199 271.349639 
L 86.506929 271.349639 
L 86.831908 276.71372 
L 87.156888 279.39576 
L 87.481867 276.71372 
L 87.806847 276.71372 
L 88.131826 282.0778 
L 88.456806 282.0778 
L 88.781785 284.75984 
L 89.106765 282.0778 
L 89.756724 287.44188 
L 90.406683 287.44188 
L 90.731663 290.12392 
L 91.056642 290.12392 
L 91.381622 287.44188 
L 91.706601 290.12392 
L 92.031581 290.12392 
L 92.35656 292.80596 
L 92.68154 290.12392 
L 93.006519 290.12392 
L 93.331499 292.80596 
L 93.981458 292.80596 
L 94.306437 290.12392 
L 95.931335 290.12392 
L 96.256314 284.75984 
L 96.581294 284.75984 
L 96.906274 287.44188 
L 97.231253 287.44188 
L 97.556233 284.75984 
L 97.881212 284.75984 
L 98.206192 282.0778 
L 98.531171 284.75984 
L 99.831089 284.75984 
L 100.156069 287.44188 
L 100.481048 287.44188 
L 100.806028 284.75984 
L 101.131007 287.44188 
L 101.455987 284.75984 
L 101.780966 287.44188 
L 102.430925 287.44188 
L 102.755905 290.12392 
L 103.080885 287.44188 
L 104.380803 287.44188 
L 104.705782 284.75984 
L 106.33068 284.75984 
L 106.655659 282.0778 
L 106.980639 282.0778 
L 107.305618 284.75984 
L 108.280557 284.75984 
L 108.605536 282.0778 
L 108.930516 284.75984 
L 109.255495 282.0778 
L 109.905455 287.44188 
L 110.230434 284.75984 
L 110.555414 284.75984 
L 110.880393 287.44188 
L 112.505291 287.44188 
L 112.83027 284.75984 
L 113.15525 287.44188 
L 113.480229 284.75984 
L 114.130188 284.75984 
L 114.455168 287.44188 
L 115.105127 282.0778 
L 115.430106 282.0778 
L 115.755086 287.44188 
L 116.080066 284.75984 
L 116.730025 284.75984 
L 117.055004 282.0778 
L 117.379984 282.0778 
L 117.704963 287.44188 
L 118.029943 284.75984 
L 118.354922 284.75984 
L 118.679902 282.0778 
L 119.65484 282.0778 
L 119.97982 279.39576 
L 120.304799 279.39576 
L 120.629779 276.71372 
L 120.954758 279.39576 
L 121.604717 274.031679 
L 121.929697 276.71372 
L 122.579656 265.985559 
L 122.904636 265.985559 
L 123.554595 255.257399 
L 123.879574 252.575359 
L 124.204554 247.211279 
L 124.529533 244.529239 
L 125.179492 233.801079 
L 125.504472 231.119038 
L 125.829451 225.754958 
L 126.154431 225.754958 
L 127.454349 204.298638 
L 127.779328 204.298638 
L 128.104308 198.934558 
L 128.429287 196.252518 
L 129.729206 174.796197 
L 130.704144 166.750077 
L 131.029124 161.385997 
L 131.354103 161.385997 
L 132.004062 150.657837 
L 132.329042 150.657837 
L 132.979001 145.293756 
L 133.30398 139.929676 
L 133.953939 139.929676 
L 134.278919 137.247636 
L 134.928878 137.247636 
L 135.253857 131.883556 
L 135.578837 131.883556 
L 136.228796 126.519476 
L 136.553776 126.519476 
L 136.878755 129.201516 
L 137.203735 123.837436 
L 137.528714 126.519476 
L 137.853694 126.519476 
L 138.503653 121.155396 
L 138.828632 123.837436 
L 139.478591 123.837436 
L 139.803571 121.155396 
L 140.12855 126.519476 
L 141.103489 126.519476 
L 141.428468 123.837436 
L 141.753448 123.837436 
L 142.078428 126.519476 
L 142.403407 126.519476 
L 142.728387 129.201516 
L 143.053366 129.201516 
L 143.378346 126.519476 
L 143.703325 129.201516 
L 144.028305 126.519476 
L 144.353284 126.519476 
L 144.678264 129.201516 
L 145.653202 129.201516 
L 145.978182 126.519476 
L 146.303161 129.201516 
L 146.628141 129.201516 
L 146.95312 131.883556 
L 147.2781 129.201516 
L 147.928059 129.201516 
L 148.253038 131.883556 
L 148.578018 129.201516 
L 149.227977 129.201516 
L 149.552957 126.519476 
L 151.502834 126.519476 
L 151.827813 123.837436 
L 152.477772 129.201516 
L 154.10267 129.201516 
L 154.427649 131.883556 
L 156.052547 131.883556 
L 156.377527 129.201516 
L 156.702506 129.201516 
L 157.027486 126.519476 
L 157.677445 131.883556 
L 158.002424 129.201516 
L 158.327404 129.201516 
L 158.652383 131.883556 
L 158.977363 126.519476 
L 159.302342 126.519476 
L 159.627322 123.837436 
L 159.952301 126.519476 
L 160.60226 126.519476 
L 160.92724 129.201516 
L 164.826994 129.201516 
L 165.151974 131.883556 
L 165.476953 129.201516 
L 165.801933 131.883556 
L 166.126912 129.201516 
L 166.776871 129.201516 
L 167.101851 131.883556 
L 167.42683 129.201516 
L 168.07679 134.565596 
L 168.726749 134.565596 
L 169.051728 137.247636 
L 169.376708 134.565596 
L 169.701687 139.929676 
L 170.026667 139.929676 
L 171.326585 150.657837 
L 171.651564 158.703957 
L 171.976544 161.385997 
L 172.301523 161.385997 
L 173.926421 188.206397 
L 174.2514 188.206397 
L 174.57638 196.252518 
L 175.226339 201.616598 
L 175.551319 206.980678 
L 175.876298 209.662718 
L 176.851237 225.754958 
L 177.826175 233.801079 
L 178.151155 239.165159 
L 178.476134 241.847199 
L 178.801114 247.211279 
L 179.126093 249.893319 
L 179.451073 255.257399 
L 179.776052 257.939439 
L 180.101032 257.939439 
L 180.750991 263.303519 
L 181.075971 263.303519 
L 181.40095 265.985559 
L 181.72593 271.349639 
L 182.375889 271.349639 
L 182.700868 274.031679 
L 183.025848 274.031679 
L 183.675807 279.39576 
L 184.000786 279.39576 
L 184.325766 284.75984 
L 184.650745 282.0778 
L 184.975725 282.0778 
L 185.625684 287.44188 
L 186.600622 287.44188 
L 186.925602 290.12392 
L 188.22552 290.12392 
L 188.5505 292.80596 
L 188.875479 290.12392 
L 189.200459 292.80596 
L 189.525438 292.80596 
L 189.850418 290.12392 
L 190.500377 290.12392 
L 190.825356 292.80596 
L 191.150336 290.12392 
L 191.475315 290.12392 
L 191.800295 287.44188 
L 192.450254 287.44188 
L 192.775233 284.75984 
L 193.100213 287.44188 
L 193.425192 282.0778 
L 193.750172 287.44188 
L 194.075152 284.75984 
L 194.400131 287.44188 
L 194.725111 287.44188 
L 195.05009 284.75984 
L 195.37507 284.75984 
L 195.700049 287.44188 
L 196.025029 284.75984 
L 196.350008 287.44188 
L 196.674988 284.75984 
L 196.999967 287.44188 
L 197.649926 287.44188 
L 197.974906 284.75984 
L 198.299885 287.44188 
L 199.924783 287.44188 
L 200.249762 284.75984 
L 201.549681 284.75984 
L 201.87466 282.0778 
L 202.19964 284.75984 
L 203.499558 284.75984 
L 203.824537 282.0778 
L 204.149517 284.75984 
L 205.124455 284.75984 
L 205.449435 282.0778 
L 206.099394 287.44188 
L 206.424373 284.75984 
L 206.749353 287.44188 
L 207.399312 287.44188 
L 207.724292 284.75984 
L 208.049271 287.44188 
L 208.374251 287.44188 
L 208.69923 284.75984 
L 209.349189 284.75984 
L 209.999148 290.12392 
L 210.324128 287.44188 
L 210.649107 287.44188 
L 210.974087 284.75984 
L 211.299066 284.75984 
L 211.624046 282.0778 
L 211.949025 284.75984 
L 212.274005 282.0778 
L 212.598984 282.0778 
L 212.923964 284.75984 
L 213.573923 284.75984 
L 213.898903 279.39576 
L 214.223882 282.0778 
L 215.198821 282.0778 
L 215.5238 284.75984 
L 216.173759 279.39576 
L 216.823718 279.39576 
L 217.798657 271.349639 
L 218.123636 271.349639 
L 218.773595 265.985559 
L 219.423554 255.257399 
L 220.073514 249.893319 
L 220.398493 244.529239 
L 220.723473 241.847199 
L 221.048452 236.483119 
L 221.373432 233.801079 
L 221.698411 225.754958 
L 222.023391 223.072918 
L 222.34837 217.708838 
L 222.67335 215.026798 
L 222.998329 209.662718 
L 223.323309 206.980678 
L 223.973268 196.252518 
L 224.298247 193.570478 
L 224.623227 188.206397 
L 225.273186 182.842317 
L 225.598165 177.478237 
L 225.923145 174.796197 
L 226.573104 164.068037 
L 227.548043 156.021917 
L 227.873022 150.657837 
L 228.198002 147.975797 
L 228.522981 147.975797 
L 228.847961 145.293756 
L 229.17294 145.293756 
L 229.49792 142.611716 
L 229.822899 137.247636 
L 230.147879 139.929676 
L 230.797838 134.565596 
L 231.122817 134.565596 
L 231.772776 129.201516 
L 232.097756 129.201516 
L 232.422735 126.519476 
L 232.747715 126.519476 
L 233.072695 123.837436 
L 233.397674 123.837436 
L 233.722654 126.519476 
L 234.047633 123.837436 
L 234.697592 123.837436 
L 235.022572 121.155396 
L 235.347551 123.837436 
L 236.32249 123.837436 
L 236.647469 126.519476 
L 236.972449 123.837436 
L 237.622408 123.837436 
L 237.947387 121.155396 
L 238.272367 123.837436 
L 238.922326 123.837436 
L 239.247305 129.201516 
L 239.897265 123.837436 
L 240.222244 123.837436 
L 240.547224 129.201516 
L 241.522162 129.201516 
L 241.847142 131.883556 
L 242.172121 129.201516 
L 242.497101 129.201516 
L 242.82208 131.883556 
L 243.14706 129.201516 
L 244.446978 129.201516 
L 244.771957 126.519476 
L 245.421916 126.519476 
L 245.746896 129.201516 
L 246.071876 129.201516 
L 246.396855 126.519476 
L 248.996691 126.519476 
L 249.321671 129.201516 
L 250.296609 129.201516 
L 250.621589 126.519476 
L 250.946568 129.201516 
L 253.871384 129.201516 
L 254.196364 126.519476 
L 254.521343 129.201516 
L 254.846323 126.519476 
L 255.171302 126.519476 
L 255.496282 123.837436 
L 255.821261 123.837436 
L 256.146241 126.519476 
L 257.121179 126.519476 
L 257.446159 129.201516 
L 257.771138 129.201516 
L 258.096118 126.519476 
L 258.746077 126.519476 
L 259.071057 129.201516 
L 261.345913 129.201516 
L 261.670893 131.883556 
L 263.29579 131.883556 
L 263.62077 134.565596 
L 263.945749 131.883556 
L 264.270729 134.565596 
L 264.595708 131.883556 
L 264.920688 137.247636 
L 265.245667 137.247636 
L 265.895627 142.611716 
L 266.220606 142.611716 
L 266.545586 147.975797 
L 267.195545 153.339877 
L 267.520524 161.385997 
L 267.845504 164.068037 
L 268.170483 164.068037 
L 268.495463 169.432117 
L 268.820442 172.114157 
L 269.470401 182.842317 
L 269.795381 185.524357 
L 270.770319 201.616598 
L 271.420278 206.980678 
L 272.070238 217.708838 
L 272.395217 220.390878 
L 272.720197 225.754958 
L 273.045176 228.436998 
L 273.370156 233.801079 
L 273.695135 233.801079 
L 274.345094 244.529239 
L 275.645012 255.257399 
L 275.969992 260.621479 
L 276.294971 263.303519 
L 276.619951 263.303519 
L 276.94493 271.349639 
L 277.26991 268.667599 
L 277.919869 274.031679 
L 278.569828 274.031679 
L 279.544767 282.0778 
L 280.194726 282.0778 
L 280.519705 284.75984 
L 281.169664 284.75984 
L 281.494644 287.44188 
L 281.819623 284.75984 
L 282.144603 290.12392 
L 282.794562 290.12392 
L 283.119541 292.80596 
L 283.444521 290.12392 
L 283.7695 295.488 
L 284.09448 295.488 
L 284.419459 292.80596 
L 284.744439 292.80596 
L 285.069419 290.12392 
L 285.719378 295.488 
L 286.044357 292.80596 
L 286.369337 292.80596 
L 286.694316 290.12392 
L 287.344275 290.12392 
L 287.669255 287.44188 
L 288.319214 287.44188 
L 288.644193 284.75984 
L 288.969173 287.44188 
L 289.294152 287.44188 
L 289.619132 284.75984 
L 289.944111 287.44188 
L 290.269091 284.75984 
L 290.59407 287.44188 
L 291.244029 287.44188 
L 291.569009 284.75984 
L 292.218968 284.75984 
L 292.868927 290.12392 
L 293.193907 287.44188 
L 293.518886 290.12392 
L 293.843866 290.12392 
L 294.168845 287.44188 
L 296.118722 287.44188 
L 296.443702 284.75984 
L 297.093661 284.75984 
L 297.41864 282.0778 
L 297.74362 284.75984 
L 298.0686 284.75984 
L 298.393579 287.44188 
L 299.043538 287.44188 
L 299.368518 284.75984 
L 299.693497 284.75984 
L 300.018477 282.0778 
L 300.343456 284.75984 
L 300.668436 282.0778 
L 300.993415 282.0778 
L 301.318395 284.75984 
L 301.643374 284.75984 
L 301.968354 287.44188 
L 303.593251 287.44188 
L 303.918231 290.12392 
L 304.24321 284.75984 
L 304.56819 284.75984 
L 304.89317 287.44188 
L 305.543129 287.44188 
L 305.868108 284.75984 
L 306.518067 284.75984 
L 306.843047 282.0778 
L 307.168026 284.75984 
L 309.117903 284.75984 
L 309.442883 282.0778 
L 309.767862 284.75984 
L 310.417821 284.75984 
L 310.742801 282.0778 
L 312.042719 282.0778 
L 313.017658 274.031679 
L 313.342637 276.71372 
L 313.667617 271.349639 
L 314.317576 271.349639 
L 314.967535 260.621479 
L 315.617494 255.257399 
L 316.267453 244.529239 
L 316.592432 241.847199 
L 317.567371 225.754958 
L 317.892351 223.072918 
L 318.21733 215.026798 
L 318.54231 215.026798 
L 318.867289 212.344758 
L 319.192269 204.298638 
L 320.167207 196.252518 
L 320.492187 190.888438 
L 320.817166 182.842317 
L 321.467125 177.478237 
L 322.117084 166.750077 
L 322.442064 166.750077 
L 322.767043 164.068037 
L 323.092023 158.703957 
L 324.716921 145.293756 
L 325.0419 145.293756 
L 326.016839 137.247636 
L 326.341818 137.247636 
L 326.666798 131.883556 
L 327.316757 131.883556 
L 327.966716 126.519476 
L 328.291695 126.519476 
L 328.616675 123.837436 
L 328.941654 123.837436 
L 329.266634 129.201516 
L 329.591613 126.519476 
L 329.916593 126.519476 
L 330.241572 123.837436 
L 330.566552 123.837436 
L 330.891532 121.155396 
L 331.216511 123.837436 
L 331.541491 121.155396 
L 331.86647 123.837436 
L 332.19145 123.837436 
L 332.516429 126.519476 
L 332.841409 123.837436 
L 333.816347 123.837436 
L 334.141327 126.519476 
L 335.116265 126.519476 
L 335.441245 129.201516 
L 335.766224 126.519476 
L 337.066143 126.519476 
L 337.391122 129.201516 
L 338.041081 129.201516 
L 338.366061 126.519476 
L 338.69104 129.201516 
L 339.340999 129.201516 
L 339.665979 131.883556 
L 339.990958 129.201516 
L 340.640917 129.201516 
L 340.965897 123.837436 
L 341.290876 126.519476 
L 341.615856 123.837436 
L 342.265815 129.201516 
L 342.590794 126.519476 
L 342.915774 126.519476 
L 343.240753 129.201516 
L 343.565733 126.519476 
L 343.890713 126.519476 
L 344.215692 123.837436 
L 344.540672 129.201516 
L 345.51561 129.201516 
L 345.84059 131.883556 
L 346.165569 129.201516 
L 349.090385 129.201516 
L 349.415364 126.519476 
L 349.740344 129.201516 
L 350.390303 129.201516 
L 350.715283 131.883556 
L 351.040262 126.519476 
L 352.990139 126.519476 
L 353.315119 129.201516 
L 353.640098 129.201516 
L 353.965078 126.519476 
L 354.615037 126.519476 
L 354.940016 129.201516 
L 355.264996 129.201516 
L 355.589975 126.519476 
L 355.914955 129.201516 
L 356.239934 129.201516 
L 356.564914 131.883556 
L 357.214873 131.883556 
L 357.539853 129.201516 
L 358.189812 129.201516 
L 358.514791 131.883556 
L 359.16475 131.883556 
L 359.48973 129.201516 
L 360.139689 134.565596 
L 360.464668 134.565596 
L 360.789648 137.247636 
L 361.114627 137.247636 
L 362.089566 145.293756 
L 362.414545 145.293756 
L 362.739525 147.975797 
L 363.064505 153.339877 
L 363.389484 156.021917 
L 364.039443 166.750077 
L 364.364423 169.432117 
L 364.689402 174.796197 
L 365.014382 177.478237 
L 365.664341 188.206397 
L 365.98932 190.888438 
L 366.639279 201.616598 
L 367.614218 209.662718 
L 367.939197 217.708838 
L 368.589156 223.072918 
L 369.239115 233.801079 
L 369.564095 236.483119 
L 369.889075 236.483119 
L 370.539034 247.211279 
L 370.864013 247.211279 
L 371.513972 257.939439 
L 371.838952 260.621479 
L 372.163931 260.621479 
L 372.488911 263.303519 
L 372.81389 268.667599 
L 373.13887 268.667599 
L 373.463849 271.349639 
L 373.788829 271.349639 
L 374.763767 279.39576 
L 375.088747 279.39576 
L 375.413726 276.71372 
L 375.738706 282.0778 
L 376.063686 282.0778 
L 376.713645 287.44188 
L 377.038624 284.75984 
L 377.363604 284.75984 
L 377.688583 287.44188 
L 378.663522 287.44188 
L 379.313481 292.80596 
L 379.63846 290.12392 
L 380.613399 290.12392 
L 380.938378 292.80596 
L 381.588337 292.80596 
L 381.913317 295.488 
L 382.563276 290.12392 
L 382.888256 290.12392 
L 383.213235 292.80596 
L 383.863194 287.44188 
L 384.838133 287.44188 
L 385.163112 284.75984 
L 385.488092 287.44188 
L 385.813071 287.44188 
L 386.138051 284.75984 
L 386.78801 284.75984 
L 387.112989 287.44188 
L 387.437969 287.44188 
L 387.762948 284.75984 
L 388.087928 284.75984 
L 388.412907 287.44188 
L 389.387846 287.44188 
L 389.712826 290.12392 
L 390.037805 287.44188 
L 390.362785 287.44188 
L 390.687764 284.75984 
L 391.012744 284.75984 
L 391.337723 287.44188 
L 392.312662 287.44188 
L 392.637641 284.75984 
L 392.962621 287.44188 
L 393.2876 284.75984 
L 393.61258 284.75984 
L 393.937559 282.0778 
L 394.912498 282.0778 
L 395.237477 284.75984 
L 395.887437 284.75984 
L 396.212416 282.0778 
L 396.537396 284.75984 
L 398.487273 284.75984 
L 398.487273 284.75984 
" clip-path="url(#p6153c08f83)" style="fill: none; stroke: #d62728; stroke-width: 1.5; stroke-linecap: square"/>
   </g>
   <g id="patch_3">
    <path d="M 57.6 307.584 
L 57.6 41.472 
" style="fill: none; stroke: #000000; stroke-width: 0.8; stroke-linejoin: miter; stroke-linecap: square"/>
   </g>
   <g id="patch_4">
    <path d="M 414.72 307.584 
L 414.72 41.472 
" style="fill: none; stroke: #000000; stroke-width: 0.8; stroke-linejoin: miter; stroke-linecap: square"/>
   </g>
   <g id="patch_5">
    <path d="M 57.6 307.584 
L 414.72 307.584 
" style="fill: none; stroke: #000000; stroke-width: 0.8; stroke-linejoin: miter; stroke-linecap: square"/>
   </g>
   <g id="patch_6">
    <path d="M 57.6 41.472 
L 414.72 41.472 
" style="fill: none; stroke: #000000; stroke-width: 0.8; stroke-linejoin: miter; stroke-linecap: square"/>
   </g>
  </g>
 </g>
 <defs>
  <clipPath id="p6153c08f83">
   <rect x="57.6" y="41.472" width="357.12" height="266.112"/>
  </clipPath>
 </defs>
</svg>
