<?xml version="1.0" encoding="utf-8" standalone="no"?>
<!DOCTYPE svg PUBLIC "-//W3C//DTD SVG 1.1//EN"
  "http://www.w3.org/Graphics/SVG/1.1/DTD/svg11.dtd">
<svg xmlns:xlink="http://www.w3.org/1999/xlink" width="460.8pt" height="345.6pt" viewBox="0 0 460.8 345.6" xmlns="http://www.w3.org/2000/svg" version="1.1">
 <metadata>
  <rdf:RDF xmlns:dc="http://purl.org/dc/elements/1.1/" xmlns:cc="http://creativecommons.org/ns#" xmlns:rdf="http://www.w3.org/1999/02/22-rdf-syntax-ns#">
   <cc:Work>
    <dc:type rdf:resource="http://purl.org/dc/dcmitype/StillImage"/>
    <dc:date>2025-12-29T08:19:41.207495</dc:date>
    <dc:format>image/svg+xml</dc:format>
    <dc:creator>
     <cc:Agent>
      <dc:title>Matplotlib v3.10.8, https://matplotlib.org/</dc:title>
     </cc:Agent>
    </dc:creator>
   </cc:Work>
  </rdf:RDF>
 </metadata>
 <defs>
  <style type="text/css">*{stroke-linejoin: round; stroke-linecap: butt}</style>
 </defs>
 <g id="figure_1">
  <g id="patch_1">
   <path d="M 0 345.6 
L 460.8 345.6 
L 460.8 0 
L 0 0 
z
" style="fill: #ffffff"/>
  </g>
  <g id="axes_1">
   <g id="patch_2">
    <path d="M 57.6 307.584 
L 414.72 307.584 
L 414.72 41.472 
L 57.6 41.472 
z
" style="fill: #ffffff"/>
   </g>
   <g id="matplotlib.axis_1">
    <g id="xtick_1">
     <g id="line2d_1">
      <defs>
       <path id="m860b9479ed" d="M 0 0 
L 0 3.5 
" style="stroke: #000000; stroke-width: 0.8"/>
      </defs>
      <g>
       <use xlink:href="#m860b9479ed" x="73.832727" y="307.584" style="stroke: #000000; stroke-width: 0.8"/>
      </g>
     </g>
     <g id="text_1">
      <!-- 0 -->
      <g transform="translate(70.651477 322.182437) scale(0.1 -0.1)">
       <defs>
        <path id="DejaVuSans-30" d="M 2034 4250 
Q 1547 4250 1301 3770 
Q 1056 3291 1056 2328 
Q 1056 1369 1301 889 
Q 1547 409 2034 409 
Q 2525 409 2770 889 
Q 3016 1369 3016 2328 
Q 3016 3291 2770 3770 
Q 2525 4250 2034 4250 
z
M 2034 4750 
Q 2819 4750 3233 4129 
Q 3647 3509 3647 2328 
Q 3647 1150 3233 529 
Q 2819 -91 2034 -91 
Q 1250 -91 836 529 
Q 422 1150 422 2328 
Q 422 3509 836 4129 
Q 1250 4750 2034 4750 
z
" transform="scale(0.015625)"/>
       </defs>
       <use xlink:href="#DejaVuSans-30"/>
      </g>
     </g>
    </g>
    <g id="xtick_2">
     <g id="line2d_2">
      <g>
       <use xlink:href="#m860b9479ed" x="138.828632" y="307.584" style="stroke: #000000; stroke-width: 0.8"/>
      </g>
     </g>
     <g id="text_2">
      <!-- 1 -->
      <g transform="translate(135.647382 322.182437) scale(0.1 -0.1)">
       <defs>
        <path id="DejaVuSans-31" d="M 794 531 
L 1825 531 
L 1825 4091 
L 703 3866 
L 703 4441 
L 1819 4666 
L 2450 4666 
L 2450 531 
L 3481 531 
L 3481 0 
L 794 0 
L 794 531 
z
" transform="scale(0.015625)"/>
       </defs>
       <use xlink:href="#DejaVuSans-31"/>
      </g>
     </g>
    </g>
    <g id="xtick_3">
     <g id="line2d_3">
      <g>
       <use xlink:href="#m860b9479ed" x="203.824537" y="307.584" style="stroke: #000000; stroke-width: 0.8"/>
      </g>
     </g>
     <g id="text_3">
      <!-- 2 -->
      <g transform="translate(200.643287 322.182437) scale(0.1 -0.1)">
       <defs>
        <path id="DejaVuSans-32" d="M 1228 531 
L 3431 531 
L 3431 0 
L 469 0 
L 469 531 
Q 828 903 1448 1529 
Q 2069 2156 2228 2338 
Q 2531 2678 2651 2914 
Q 2772 3150 2772 3378 
Q 2772 3750 2511 3984 
Q 2250 4219 1831 4219 
Q 1534 4219 1204 4116 
Q 875 4013 500 3803 
L 500 4441 
Q 881 4594 1212 4672 
Q 1544 4750 1819 4750 
Q 2544 4750 2975 4387 
Q 3406 4025 3406 3419 
Q 3406 3131 3298 2873 
Q 3191 2616 2906 2266 
Q 2828 2175 2409 1742 
Q 1991 1309 1228 531 
z
" transform="scale(0.015625)"/>
       </defs>
       <use xlink:href="#DejaVuSans-32"/>
      </g>
     </g>
    </g>
    <g id="xtick_4">
     <g id="line2d_4">
      <g>
       <use xlink:href="#m860b9479ed" x="268.820442" y="307.584" style="stroke: #000000; stroke-width: 0.8"/>
      </g>
     </g>
     <g id="text_4">
      <!-- 3 -->
      <g transform="translate(265.639192 322.182437) scale(0.1 -0.1)">
       <defs>
        <path id="DejaVuSans-33" d="M 2597 2516 
Q 3050 2419 3304 2112 
Q 3559 1806 3559 1356 
Q 3559 666 3084 287 
Q 2609 -91 1734 -91 
Q 1441 -91 1130 -33 
Q 819 25 488 141 
L 488 750 
Q 750 597 1062 519 
Q 1375 441 1716 441 
Q 2309 441 2620 675 
Q 2931 909 2931 1356 
Q 2931 1769 2642 2001 
Q 2353 2234 1838 2234 
L 1294 2234 
L 1294 2753 
L 1863 2753 
Q 2328 2753 2575 2939 
Q 2822 3125 2822 3475 
Q 2822 3834 2567 4026 
Q 2313 4219 1838 4219 
Q 1578 4219 1281 4162 
Q 984 4106 628 3988 
L 628 4550 
Q 988 4650 1302 4700 
Q 1616 4750 1894 4750 
Q 2613 4750 3031 4423 
Q 3450 4097 3450 3541 
Q 3450 3153 3228 2886 
Q 3006 2619 2597 2516 
z
" transform="scale(0.015625)"/>
       </defs>
       <use xlink:href="#DejaVuSans-33"/>
      </g>
     </g>
    </g>
    <g id="xtick_5">
     <g id="line2d_5">
      <g>
       <use xlink:href="#m860b9479ed" x="333.816347" y="307.584" style="stroke: #000000; stroke-width: 0.8"/>
      </g>
     </g>
     <g id="text_5">
      <!-- 4 -->
      <g transform="translate(330.635097 322.182437) scale(0.1 -0.1)">
       <defs>
        <path id="DejaVuSans-34" d="M 2419 4116 
L 825 1625 
L 2419 1625 
L 2419 4116 
z
M 2253 4666 
L 3047 4666 
L 3047 1625 
L 3713 1625 
L 3713 1100 
L 3047 1100 
L 3047 0 
L 2419 0 
L 2419 1100 
L 313 1100 
L 313 1709 
L 2253 4666 
z
" transform="scale(0.015625)"/>
       </defs>
       <use xlink:href="#DejaVuSans-34"/>
      </g>
     </g>
    </g>
    <g id="xtick_6">
     <g id="line2d_6">
      <g>
       <use xlink:href="#m860b9479ed" x="398.812252" y="307.584" style="stroke: #000000; stroke-width: 0.8"/>
      </g>
     </g>
     <g id="text_6">
      <!-- 5 -->
      <g transform="translate(395.631002 322.182437) scale(0.1 -0.1)">
       <defs>
        <path id="DejaVuSans-35" d="M 691 4666 
L 3169 4666 
L 3169 4134 
L 1269 4134 
L 1269 2991 
Q 1406 3038 1543 3061 
Q 1681 3084 1819 3084 
Q 2600 3084 3056 2656 
Q 3513 2228 3513 1497 
Q 3513 744 3044 326 
Q 2575 -91 1722 -91 
Q 1428 -91 1123 -41 
Q 819 9 494 109 
L 494 744 
Q 775 591 1075 516 
Q 1375 441 1709 441 
Q 2250 441 2565 725 
Q 2881 1009 2881 1497 
Q 2881 1984 2565 2268 
Q 2250 2553 1709 2553 
Q 1456 2553 1204 2497 
Q 953 2441 691 2322 
L 691 4666 
z
" transform="scale(0.015625)"/>
       </defs>
       <use xlink:href="#DejaVuSans-35"/>
      </g>
     </g>
    </g>
    <g id="text_7">
     <!-- 1e−7 -->
     <g transform="translate(387.462188 334.860562) scale(0.1 -0.1)">
      <defs>
       <path id="DejaVuSans-65" d="M 3597 1894 
L 3597 1613 
L 953 1613 
Q 991 1019 1311 708 
Q 1631 397 2203 397 
Q 2534 397 2845 478 
Q 3156 559 3463 722 
L 3463 178 
Q 3153 47 2828 -22 
Q 2503 -91 2169 -91 
Q 1331 -91 842 396 
Q 353 884 353 1716 
Q 353 2575 817 3079 
Q 1281 3584 2069 3584 
Q 2775 3584 3186 3129 
Q 3597 2675 3597 1894 
z
M 3022 2063 
Q 3016 2534 2758 2815 
Q 2500 3097 2075 3097 
Q 1594 3097 1305 2825 
Q 1016 2553 972 2059 
L 3022 2063 
z
" transform="scale(0.015625)"/>
       <path id="DejaVuSans-2212" d="M 678 2272 
L 4684 2272 
L 4684 1741 
L 678 1741 
L 678 2272 
z
" transform="scale(0.015625)"/>
       <path id="DejaVuSans-37" d="M 525 4666 
L 3525 4666 
L 3525 4397 
L 1831 0 
L 1172 0 
L 2766 4134 
L 525 4134 
L 525 4666 
z
" transform="scale(0.015625)"/>
      </defs>
      <use xlink:href="#DejaVuSans-31"/>
      <use xlink:href="#DejaVuSans-65" transform="translate(63.623047 0)"/>
      <use xlink:href="#DejaVuSans-2212" transform="translate(125.146484 0)"/>
      <use xlink:href="#DejaVuSans-37" transform="translate(208.935547 0)"/>
     </g>
    </g>
   </g>
   <g id="matplotlib.axis_2">
    <g id="ytick_1">
     <g id="line2d_7">
      <defs>
       <path id="m9953d69b25" d="M 0 0 
L -3.5 0 
" style="stroke: #000000; stroke-width: 0.8"/>
      </defs>
      <g>
       <use xlink:href="#m9953d69b25" x="57.6" y="297.877313" style="stroke: #000000; stroke-width: 0.8"/>
      </g>
     </g>
     <g id="text_8">
      <!-- −40 -->
      <g transform="translate(29.495313 301.676532) scale(0.1 -0.1)">
       <use xlink:href="#DejaVuSans-2212"/>
       <use xlink:href="#DejaVuSans-34" transform="translate(83.789062 0)"/>
       <use xlink:href="#DejaVuSans-30" transform="translate(147.412109 0)"/>
      </g>
     </g>
    </g>
    <g id="ytick_2">
     <g id="line2d_8">
      <g>
       <use xlink:href="#m9953d69b25" x="57.6" y="259.647982" style="stroke: #000000; stroke-width: 0.8"/>
      </g>
     </g>
     <g id="text_9">
      <!-- −20 -->
      <g transform="translate(29.495313 263.447201) scale(0.1 -0.1)">
       <use xlink:href="#DejaVuSans-2212"/>
       <use xlink:href="#DejaVuSans-32" transform="translate(83.789062 0)"/>
       <use xlink:href="#DejaVuSans-30" transform="translate(147.412109 0)"/>
      </g>
     </g>
    </g>
    <g id="ytick_3">
     <g id="line2d_9">
      <g>
       <use xlink:href="#m9953d69b25" x="57.6" y="221.418651" style="stroke: #000000; stroke-width: 0.8"/>
      </g>
     </g>
     <g id="text_10">
      <!-- 0 -->
      <g transform="translate(44.2375 225.21787) scale(0.1 -0.1)">
       <use xlink:href="#DejaVuSans-30"/>
      </g>
     </g>
    </g>
    <g id="ytick_4">
     <g id="line2d_10">
      <g>
       <use xlink:href="#m9953d69b25" x="57.6" y="183.18932" style="stroke: #000000; stroke-width: 0.8"/>
      </g>
     </g>
     <g id="text_11">
      <!-- 20 -->
      <g transform="translate(37.875 186.988539) scale(0.1 -0.1)">
       <use xlink:href="#DejaVuSans-32"/>
       <use xlink:href="#DejaVuSans-30" transform="translate(63.623047 0)"/>
      </g>
     </g>
    </g>
    <g id="ytick_5">
     <g id="line2d_11">
      <g>
       <use xlink:href="#m9953d69b25" x="57.6" y="144.959989" style="stroke: #000000; stroke-width: 0.8"/>
      </g>
     </g>
     <g id="text_12">
      <!-- 40 -->
      <g transform="translate(37.875 148.759208) scale(0.1 -0.1)">
       <use xlink:href="#DejaVuSans-34"/>
       <use xlink:href="#DejaVuSans-30" transform="translate(63.623047 0)"/>
      </g>
     </g>
    </g>
    <g id="ytick_6">
     <g id="line2d_12">
      <g>
       <use xlink:href="#m9953d69b25" x="57.6" y="106.730658" style="stroke: #000000; stroke-width: 0.8"/>
      </g>
     </g>
     <g id="text_13">
      <!-- 60 -->
      <g transform="translate(37.875 110.529877) scale(0.1 -0.1)">
       <defs>
        <path id="DejaVuSans-36" d="M 2113 2584 
Q 1688 2584 1439 2293 
Q 1191 2003 1191 1497 
Q 1191 994 1439 701 
Q 1688 409 2113 409 
Q 2538 409 2786 701 
Q 3034 994 3034 1497 
Q 3034 2003 2786 2293 
Q 2538 2584 2113 2584 
z
M 3366 4563 
L 3366 3988 
Q 3128 4100 2886 4159 
Q 2644 4219 2406 4219 
Q 1781 4219 1451 3797 
Q 1122 3375 1075 2522 
Q 1259 2794 1537 2939 
Q 1816 3084 2150 3084 
Q 2853 3084 3261 2657 
Q 3669 2231 3669 1497 
Q 3669 778 3244 343 
Q 2819 -91 2113 -91 
Q 1303 -91 875 529 
Q 447 1150 447 2328 
Q 447 3434 972 4092 
Q 1497 4750 2381 4750 
Q 2619 4750 2861 4703 
Q 3103 4656 3366 4563 
z
" transform="scale(0.015625)"/>
       </defs>
       <use xlink:href="#DejaVuSans-36"/>
       <use xlink:href="#DejaVuSans-30" transform="translate(63.623047 0)"/>
      </g>
     </g>
    </g>
    <g id="ytick_7">
     <g id="line2d_13">
      <g>
       <use xlink:href="#m9953d69b25" x="57.6" y="68.501327" style="stroke: #000000; stroke-width: 0.8"/>
      </g>
     </g>
     <g id="text_14">
      <!-- 80 -->
      <g transform="translate(37.875 72.300546) scale(0.1 -0.1)">
       <defs>
        <path id="DejaVuSans-38" d="M 2034 2216 
Q 1584 2216 1326 1975 
Q 1069 1734 1069 1313 
Q 1069 891 1326 650 
Q 1584 409 2034 409 
Q 2484 409 2743 651 
Q 3003 894 3003 1313 
Q 3003 1734 2745 1975 
Q 2488 2216 2034 2216 
z
M 1403 2484 
Q 997 2584 770 2862 
Q 544 3141 544 3541 
Q 544 4100 942 4425 
Q 1341 4750 2034 4750 
Q 2731 4750 3128 4425 
Q 3525 4100 3525 3541 
Q 3525 3141 3298 2862 
Q 3072 2584 2669 2484 
Q 3125 2378 3379 2068 
Q 3634 1759 3634 1313 
Q 3634 634 3220 271 
Q 2806 -91 2034 -91 
Q 1263 -91 848 271 
Q 434 634 434 1313 
Q 434 1759 690 2068 
Q 947 2378 1403 2484 
z
M 1172 3481 
Q 1172 3119 1398 2916 
Q 1625 2713 2034 2713 
Q 2441 2713 2670 2916 
Q 2900 3119 2900 3481 
Q 2900 3844 2670 4047 
Q 2441 4250 2034 4250 
Q 1625 4250 1398 4047 
Q 1172 3844 1172 3481 
z
" transform="scale(0.015625)"/>
       </defs>
       <use xlink:href="#DejaVuSans-38"/>
       <use xlink:href="#DejaVuSans-30" transform="translate(63.623047 0)"/>
      </g>
     </g>
    </g>
   </g>
   <g id="line2d_14">
    <path d="M 73.832727 222.911982 
L 74.482686 222.911982 
L 74.807666 224.405315 
L 75.132645 221.418648 
L 75.457625 222.911982 
L 75.782604 222.911982 
L 76.107584 224.405315 
L 76.432563 224.405315 
L 76.757543 222.911982 
L 77.082523 222.911982 
L 77.407502 221.418648 
L 77.732482 224.405315 
L 78.057461 225.898648 
L 78.382441 222.911982 
L 79.0324 225.898648 
L 79.682359 222.911982 
L 80.657297 222.911982 
L 80.982277 224.405315 
L 81.307256 222.911982 
L 81.632236 224.405315 
L 81.957215 222.911982 
L 82.282195 224.405315 
L 82.607174 222.911982 
L 82.932154 224.405315 
L 83.257133 224.405315 
L 83.582113 222.911982 
L 83.907093 222.911982 
L 84.232072 224.405315 
L 84.557052 221.418648 
L 84.882031 216.938648 
L 85.207011 215.445315 
L 85.53199 212.458648 
L 86.506929 196.031982 
L 86.831908 196.031982 
L 87.156888 199.018648 
L 87.481867 199.018648 
L 88.131826 182.591982 
L 88.456806 172.138648 
L 88.781785 170.645315 
L 89.106765 172.138648 
L 89.431744 179.605315 
L 89.756724 179.605315 
L 90.081704 170.645315 
L 90.406683 155.711982 
L 90.731663 146.751982 
L 91.056642 148.245315 
L 91.706601 163.178648 
L 92.031581 160.191982 
L 92.68154 139.285315 
L 93.006519 139.285315 
L 93.331499 143.765315 
L 93.656478 143.765315 
L 93.981458 140.778648 
L 94.306437 133.311982 
L 94.631417 133.311982 
L 95.281376 140.778648 
L 95.606355 136.298648 
L 95.931335 124.351982 
L 96.256314 122.858648 
L 96.581294 124.351982 
L 96.906274 131.818648 
L 97.231253 136.298648 
L 97.556233 131.818648 
L 97.881212 124.351982 
L 98.206192 119.871982 
L 98.531171 127.338648 
L 99.18113 127.338648 
L 99.50611 122.858648 
L 99.831089 124.351982 
L 100.481048 133.311982 
L 100.806028 131.818648 
L 101.131007 124.351982 
L 101.455987 121.365315 
L 101.780966 122.858648 
L 102.430925 134.805315 
L 102.755905 133.311982 
L 103.405864 124.351982 
L 103.730844 127.338648 
L 104.705782 131.818648 
L 105.030762 130.325315 
L 106.0057 134.805315 
L 106.33068 133.311982 
L 106.655659 130.325315 
L 106.980639 130.325315 
L 107.305618 131.818648 
L 107.630598 136.298648 
L 107.955577 137.791982 
L 108.280557 137.791982 
L 108.605536 133.311982 
L 108.930516 134.805315 
L 109.255495 133.311982 
L 109.580475 133.311982 
L 110.230434 136.298648 
L 111.205373 136.298648 
L 111.530352 133.311982 
L 111.855332 133.311982 
L 112.180311 131.818648 
L 112.505291 133.311982 
L 112.83027 136.298648 
L 113.15525 134.805315 
L 113.480229 131.818648 
L 113.805209 130.325315 
L 114.130188 131.818648 
L 114.455168 130.325315 
L 114.780147 131.818648 
L 115.105127 128.831982 
L 115.430106 128.831982 
L 115.755086 130.325315 
L 116.405045 130.325315 
L 117.379984 125.845315 
L 117.704963 125.845315 
L 118.029943 127.338648 
L 118.679902 127.338648 
L 119.004881 125.845315 
L 119.329861 125.845315 
L 119.65484 122.858648 
L 119.97982 121.365315 
L 120.304799 122.858648 
L 120.629779 122.858648 
L 120.954758 124.351982 
L 121.279738 122.858648 
L 121.604717 122.858648 
L 121.929697 119.871982 
L 122.579656 119.871982 
L 123.229615 122.858648 
L 123.554595 121.365315 
L 123.879574 121.365315 
L 124.204554 119.871982 
L 124.529533 122.858648 
L 124.854513 121.365315 
L 125.179492 122.858648 
L 125.504472 121.365315 
L 126.154431 121.365315 
L 126.47941 122.858648 
L 126.80439 127.338648 
L 127.129369 125.845315 
L 127.454349 127.338648 
L 127.779328 125.845315 
L 128.429287 128.831982 
L 128.754267 131.818648 
L 129.404226 131.818648 
L 129.729206 133.311982 
L 130.054185 133.311982 
L 130.379165 136.298648 
L 130.704144 136.298648 
L 131.029124 139.285315 
L 131.354103 140.778648 
L 132.004062 146.751982 
L 132.329042 146.751982 
L 132.654021 148.245315 
L 132.979001 148.245315 
L 133.62896 155.711982 
L 133.953939 157.205315 
L 134.278919 160.191982 
L 134.603898 160.191982 
L 134.928878 163.178648 
L 135.578837 166.165315 
L 136.228796 172.138648 
L 136.553776 173.631982 
L 137.203735 179.605315 
L 137.528714 181.098648 
L 137.853694 184.085315 
L 139.153612 190.058648 
L 139.478591 194.538648 
L 140.778509 200.511982 
L 141.103489 200.511982 
L 141.428468 204.991982 
L 141.753448 204.991982 
L 142.078428 206.485315 
L 142.403407 209.471982 
L 142.728387 209.471982 
L 143.053366 210.965315 
L 143.378346 213.951982 
L 143.703325 215.445315 
L 144.353284 215.445315 
L 144.678264 216.938648 
L 145.003243 216.938648 
L 145.328223 219.925315 
L 146.303161 219.925315 
L 146.628141 221.418648 
L 147.2781 221.418648 
L 147.603079 222.911982 
L 147.928059 221.418648 
L 148.253038 222.911982 
L 148.578018 222.911982 
L 148.902998 224.405315 
L 149.227977 224.405315 
L 149.552957 222.911982 
L 149.877936 222.911982 
L 150.202916 221.418648 
L 150.527895 224.405315 
L 150.852875 222.911982 
L 151.177854 222.911982 
L 151.502834 219.925315 
L 151.827813 221.418648 
L 152.152793 219.925315 
L 152.477772 219.925315 
L 152.802752 221.418648 
L 153.127731 219.925315 
L 153.452711 222.911982 
L 153.77769 222.911982 
L 154.10267 224.405315 
L 155.077609 224.405315 
L 155.402588 222.911982 
L 155.727568 225.898648 
L 156.052547 222.911982 
L 156.377527 222.911982 
L 156.702506 221.418648 
L 157.027486 222.911982 
L 158.002424 222.911982 
L 158.327404 221.418648 
L 158.977363 221.418648 
L 159.302342 222.911982 
L 160.277281 222.911982 
L 160.60226 221.418648 
L 160.92724 222.911982 
L 161.902179 222.911982 
L 162.227158 224.405315 
L 162.552138 224.405315 
L 162.877117 222.911982 
L 163.202097 224.405315 
L 163.527076 221.418648 
L 163.852056 222.911982 
L 164.177035 222.911982 
L 164.502015 224.405315 
L 164.826994 224.405315 
L 165.151974 222.911982 
L 165.476953 222.911982 
L 165.801933 221.418648 
L 166.126912 222.911982 
L 166.451892 222.911982 
L 166.776871 224.405315 
L 167.101851 222.911982 
L 167.42683 222.911982 
L 167.75181 224.405315 
L 168.401769 224.405315 
L 168.726749 222.911982 
L 169.051728 224.405315 
L 169.376708 222.911982 
L 170.026667 222.911982 
L 170.351646 224.405315 
L 171.001605 221.418648 
L 171.326585 224.405315 
L 171.651564 222.911982 
L 171.976544 224.405315 
L 172.301523 222.911982 
L 172.626503 224.405315 
L 173.601441 224.405315 
L 173.926421 222.911982 
L 174.2514 225.898648 
L 174.57638 224.405315 
L 176.526257 224.405315 
L 176.851237 222.911982 
L 177.176216 224.405315 
L 177.501196 222.911982 
L 177.826175 224.405315 
L 178.476134 224.405315 
L 178.801114 222.911982 
L 179.126093 222.911982 
L 179.451073 224.405315 
L 179.776052 224.405315 
L 180.101032 222.911982 
L 180.426011 222.911982 
L 180.750991 218.431982 
L 181.075971 216.938648 
L 181.40095 210.965315 
L 181.72593 207.978648 
L 182.050909 199.018648 
L 182.375889 196.031982 
L 182.700868 196.031982 
L 183.025848 199.018648 
L 183.350827 197.525315 
L 183.675807 193.045315 
L 184.325766 172.138648 
L 184.650745 170.645315 
L 184.975725 173.631982 
L 185.300704 179.605315 
L 185.625684 181.098648 
L 186.600622 146.751982 
L 186.925602 149.738648 
L 187.575561 163.178648 
L 187.900541 155.711982 
L 188.5505 137.791982 
L 188.875479 139.285315 
L 189.200459 142.271982 
L 189.525438 143.765315 
L 190.175397 133.311982 
L 190.500377 133.311982 
L 190.825356 137.791982 
L 191.150336 139.285315 
L 191.475315 134.805315 
L 191.800295 124.351982 
L 192.125274 122.858648 
L 192.450254 124.351982 
L 192.775233 133.311982 
L 193.100213 134.805315 
L 194.075152 122.858648 
L 194.725111 128.831982 
L 195.05009 127.338648 
L 195.37507 122.858648 
L 195.700049 124.351982 
L 196.025029 130.325315 
L 196.350008 131.818648 
L 196.674988 128.831982 
L 196.999967 122.858648 
L 197.649926 122.858648 
L 198.299885 133.311982 
L 198.624865 133.311982 
L 198.949844 127.338648 
L 199.274824 125.845315 
L 199.924783 128.831982 
L 200.249762 131.818648 
L 200.574742 130.325315 
L 200.899722 130.325315 
L 201.224701 133.311982 
L 201.549681 134.805315 
L 201.87466 133.311982 
L 202.19964 130.325315 
L 202.524619 131.818648 
L 202.849599 127.338648 
L 203.174578 131.818648 
L 203.824537 134.805315 
L 204.149517 134.805315 
L 204.799476 131.818648 
L 205.449435 131.818648 
L 206.099394 134.805315 
L 206.424373 137.791982 
L 206.749353 137.791982 
L 207.074333 134.805315 
L 207.399312 130.325315 
L 207.724292 131.818648 
L 208.049271 131.818648 
L 208.374251 134.805315 
L 208.69923 133.311982 
L 209.349189 133.311982 
L 209.674169 131.818648 
L 210.649107 131.818648 
L 211.299066 128.831982 
L 211.624046 130.325315 
L 212.274005 130.325315 
L 212.598984 127.338648 
L 212.923964 127.338648 
L 213.248943 124.351982 
L 213.573923 124.351982 
L 214.223882 127.338648 
L 214.548862 127.338648 
L 214.873841 124.351982 
L 215.198821 124.351982 
L 216.173759 119.871982 
L 216.498739 122.858648 
L 217.473677 122.858648 
L 217.798657 119.871982 
L 218.123636 119.871982 
L 218.448616 118.378648 
L 218.773595 121.365315 
L 219.098575 122.858648 
L 219.423554 122.858648 
L 220.073514 119.871982 
L 220.398493 122.858648 
L 221.048452 122.858648 
L 221.373432 121.365315 
L 221.698411 121.365315 
L 222.023391 122.858648 
L 222.34837 125.845315 
L 222.67335 127.338648 
L 222.998329 124.351982 
L 223.323309 127.338648 
L 223.648288 125.845315 
L 223.973268 125.845315 
L 224.298247 128.831982 
L 225.598165 134.805315 
L 225.923145 134.805315 
L 226.898084 139.285315 
L 227.548043 146.751982 
L 227.873022 146.751982 
L 228.522981 149.738648 
L 228.847961 149.738648 
L 229.17294 154.218648 
L 229.49792 154.218648 
L 229.822899 158.698648 
L 230.147879 158.698648 
L 230.472858 160.191982 
L 230.797838 163.178648 
L 231.122817 164.671982 
L 231.447797 167.658648 
L 231.772776 169.151982 
L 232.747715 178.111982 
L 233.397674 181.098648 
L 233.722654 184.085315 
L 234.047633 185.578648 
L 234.372613 188.565315 
L 234.697592 188.565315 
L 235.022572 190.058648 
L 235.99751 199.018648 
L 236.32249 199.018648 
L 236.647469 200.511982 
L 236.972449 203.498648 
L 237.297428 203.498648 
L 237.622408 204.991982 
L 237.947387 207.978648 
L 238.597346 207.978648 
L 238.922326 212.458648 
L 239.247305 213.951982 
L 239.572285 216.938648 
L 239.897265 213.951982 
L 240.547224 216.938648 
L 240.872203 216.938648 
L 241.197183 218.431982 
L 241.522162 218.431982 
L 242.172121 221.418648 
L 242.497101 221.418648 
L 242.82208 222.911982 
L 243.472039 222.911982 
L 243.797019 221.418648 
L 244.121998 224.405315 
L 244.771957 224.405315 
L 245.096937 222.911982 
L 245.421916 222.911982 
L 245.746896 224.405315 
L 246.396855 224.405315 
L 246.721835 221.418648 
L 247.696773 221.418648 
L 248.021753 219.925315 
L 248.346732 219.925315 
L 248.671712 218.431982 
L 249.321671 221.418648 
L 249.64665 221.418648 
L 249.97163 222.911982 
L 250.621589 222.911982 
L 250.946568 224.405315 
L 251.596527 224.405315 
L 251.921507 221.418648 
L 252.246486 222.911982 
L 252.571466 222.911982 
L 252.896446 221.418648 
L 253.221425 224.405315 
L 253.546405 222.911982 
L 253.871384 222.911982 
L 254.196364 219.925315 
L 254.521343 221.418648 
L 254.846323 221.418648 
L 255.171302 222.911982 
L 255.496282 221.418648 
L 255.821261 222.911982 
L 256.146241 222.911982 
L 256.47122 221.418648 
L 256.7962 222.911982 
L 257.121179 222.911982 
L 257.446159 224.405315 
L 257.771138 222.911982 
L 258.096118 222.911982 
L 258.421097 224.405315 
L 258.746077 222.911982 
L 259.071057 222.911982 
L 259.396036 221.418648 
L 259.721016 222.911982 
L 260.045995 221.418648 
L 261.345913 221.418648 
L 261.995872 224.405315 
L 262.320852 221.418648 
L 262.645831 222.911982 
L 263.29579 222.911982 
L 263.62077 224.405315 
L 264.270729 224.405315 
L 264.595708 221.418648 
L 264.920688 224.405315 
L 265.245667 221.418648 
L 265.570647 222.911982 
L 265.895627 221.418648 
L 266.545586 224.405315 
L 266.870565 222.911982 
L 267.520524 222.911982 
L 267.845504 224.405315 
L 268.495463 224.405315 
L 268.820442 225.898648 
L 269.145422 224.405315 
L 269.470401 224.405315 
L 269.795381 222.911982 
L 270.12036 224.405315 
L 271.420278 224.405315 
L 272.070238 221.418648 
L 272.720197 224.405315 
L 273.045176 222.911982 
L 274.020115 222.911982 
L 274.345094 224.405315 
L 274.670074 224.405315 
L 274.995053 222.911982 
L 275.320033 222.911982 
L 275.645012 221.418648 
L 275.969992 222.911982 
L 276.294971 219.925315 
L 276.619951 218.431982 
L 276.94493 215.445315 
L 277.594889 206.485315 
L 277.919869 199.018648 
L 278.244848 194.538648 
L 278.569828 194.538648 
L 278.894808 199.018648 
L 279.219787 197.525315 
L 279.544767 191.551982 
L 280.194726 170.645315 
L 280.519705 169.151982 
L 280.844685 172.138648 
L 281.169664 179.605315 
L 281.494644 179.605315 
L 281.819623 169.151982 
L 282.144603 154.218648 
L 282.469582 145.258648 
L 282.794562 148.245315 
L 283.444521 163.178648 
L 283.7695 157.205315 
L 284.09448 145.258648 
L 284.419459 139.285315 
L 284.744439 139.285315 
L 285.069419 143.765315 
L 285.394398 142.271982 
L 285.719378 139.285315 
L 286.044357 131.818648 
L 286.369337 133.311982 
L 287.019296 140.778648 
L 287.344275 134.805315 
L 287.669255 124.351982 
L 287.994234 121.365315 
L 288.319214 124.351982 
L 288.644193 133.311982 
L 288.969173 136.298648 
L 289.294152 131.818648 
L 289.619132 124.351982 
L 289.944111 122.858648 
L 290.269091 125.845315 
L 290.59407 127.338648 
L 290.91905 125.845315 
L 291.244029 122.858648 
L 291.569009 124.351982 
L 292.218968 130.325315 
L 292.543948 128.831982 
L 293.193907 119.871982 
L 293.518886 121.365315 
L 293.843866 128.831982 
L 294.168845 133.311982 
L 294.493825 131.818648 
L 294.818804 128.831982 
L 295.468763 125.845315 
L 295.793743 127.338648 
L 296.118722 130.325315 
L 296.443702 130.325315 
L 296.768681 128.831982 
L 297.74362 133.311982 
L 298.0686 131.818648 
L 298.393579 128.831982 
L 298.718559 128.831982 
L 299.043538 131.818648 
L 299.368518 133.311982 
L 299.693497 136.298648 
L 300.018477 134.805315 
L 300.343456 134.805315 
L 300.668436 133.311982 
L 300.993415 130.325315 
L 301.318395 131.818648 
L 301.643374 131.818648 
L 302.293333 134.805315 
L 302.943292 134.805315 
L 303.268272 131.818648 
L 303.593251 130.325315 
L 304.56819 134.805315 
L 304.89317 133.311982 
L 305.218149 133.311982 
L 305.543129 131.818648 
L 305.868108 131.818648 
L 306.193088 128.831982 
L 306.518067 131.818648 
L 306.843047 128.831982 
L 307.168026 130.325315 
L 307.493006 128.831982 
L 307.817985 128.831982 
L 308.142965 130.325315 
L 308.467944 127.338648 
L 309.117903 124.351982 
L 309.767862 124.351982 
L 310.092842 128.831982 
L 311.067781 124.351982 
L 311.39276 121.365315 
L 311.71774 122.858648 
L 312.042719 121.365315 
L 312.367699 122.858648 
L 312.692678 122.858648 
L 313.017658 124.351982 
L 313.342637 121.365315 
L 313.667617 119.871982 
L 314.642555 119.871982 
L 314.967535 121.365315 
L 315.292514 121.365315 
L 315.617494 122.858648 
L 315.942473 122.858648 
L 316.592432 119.871982 
L 316.917412 122.858648 
L 317.242391 122.858648 
L 317.567371 121.365315 
L 317.892351 121.365315 
L 318.54231 127.338648 
L 319.192269 127.338648 
L 319.517248 124.351982 
L 320.167207 127.338648 
L 320.492187 130.325315 
L 321.142146 133.311982 
L 321.792105 133.311982 
L 322.117084 137.791982 
L 322.442064 137.791982 
L 322.767043 140.778648 
L 323.092023 142.271982 
L 323.417002 145.258648 
L 323.741982 146.751982 
L 324.066962 146.751982 
L 324.391941 149.738648 
L 324.716921 149.738648 
L 325.0419 152.725315 
L 325.36688 154.218648 
L 326.016839 160.191982 
L 326.666798 163.178648 
L 326.991777 163.178648 
L 327.641736 170.645315 
L 327.966716 173.631982 
L 328.616675 176.618648 
L 328.941654 179.605315 
L 329.266634 181.098648 
L 329.591613 184.085315 
L 330.566552 188.565315 
L 331.216511 196.031982 
L 332.19145 200.511982 
L 332.516429 203.498648 
L 332.841409 203.498648 
L 333.166388 206.485315 
L 333.491368 206.485315 
L 335.441245 215.445315 
L 335.766224 213.951982 
L 337.066143 219.925315 
L 337.391122 218.431982 
L 338.041081 221.418648 
L 338.69104 221.418648 
L 339.01602 222.911982 
L 340.315938 222.911982 
L 340.640917 224.405315 
L 340.965897 224.405315 
L 341.290876 222.911982 
L 342.265815 222.911982 
L 342.590794 221.418648 
L 342.915774 222.911982 
L 343.565733 219.925315 
L 345.190631 219.925315 
L 346.165569 224.405315 
L 346.490549 222.911982 
L 346.815528 224.405315 
L 347.140508 222.911982 
L 347.465487 224.405315 
L 347.790467 222.911982 
L 349.415364 222.911982 
L 349.740344 224.405315 
L 350.065324 221.418648 
L 350.715283 221.418648 
L 351.040262 222.911982 
L 351.365242 222.911982 
L 351.690221 221.418648 
L 352.015201 222.911982 
L 352.990139 222.911982 
L 353.315119 224.405315 
L 353.640098 222.911982 
L 354.940016 222.911982 
L 355.264996 221.418648 
L 355.589975 222.911982 
L 356.239934 222.911982 
L 356.564914 221.418648 
L 357.214873 224.405315 
L 357.864832 224.405315 
L 358.189812 222.911982 
L 359.48973 222.911982 
L 359.814709 224.405315 
L 360.464668 224.405315 
L 360.789648 222.911982 
L 363.064505 222.911982 
L 363.389484 221.418648 
L 363.714464 224.405315 
L 364.039443 224.405315 
L 364.364423 222.911982 
L 365.014382 225.898648 
L 365.339361 224.405315 
L 366.3143 224.405315 
L 366.639279 225.898648 
L 366.964259 224.405315 
L 367.939197 224.405315 
L 368.264177 222.911982 
L 368.589156 222.911982 
L 368.914136 224.405315 
L 369.239115 222.911982 
L 369.889075 222.911982 
L 370.214054 224.405315 
L 370.864013 224.405315 
L 371.188993 222.911982 
L 371.513972 224.405315 
L 371.838952 224.405315 
L 372.81389 215.445315 
L 373.463849 204.991982 
L 373.788829 197.525315 
L 374.113808 197.525315 
L 374.438788 194.538648 
L 374.763767 199.018648 
L 375.088747 197.525315 
L 375.413726 191.551982 
L 376.063686 169.151982 
L 376.388665 167.658648 
L 377.038624 181.098648 
L 377.363604 179.605315 
L 378.338542 146.751982 
L 378.663522 148.245315 
L 379.313481 164.671982 
L 379.63846 157.205315 
L 380.288419 137.791982 
L 380.613399 139.285315 
L 380.938378 142.271982 
L 381.263358 142.271982 
L 381.588337 136.298648 
L 381.913317 133.311982 
L 382.238296 133.311982 
L 382.888256 140.778648 
L 383.213235 134.805315 
L 383.538215 125.845315 
L 383.863194 121.365315 
L 384.188174 125.845315 
L 384.513153 133.311982 
L 384.838133 134.805315 
L 385.163112 131.818648 
L 385.488092 124.351982 
L 385.813071 124.351982 
L 386.138051 125.845315 
L 386.46303 128.831982 
L 387.112989 122.858648 
L 388.087928 131.818648 
L 388.412907 130.325315 
L 388.737887 122.858648 
L 389.062867 119.871982 
L 389.387846 121.365315 
L 389.712826 130.325315 
L 390.037805 133.311982 
L 390.362785 131.818648 
L 390.687764 127.338648 
L 391.012744 125.845315 
L 391.337723 127.338648 
L 391.662703 127.338648 
L 391.987682 130.325315 
L 392.637641 130.325315 
L 393.61258 134.805315 
L 393.937559 131.818648 
L 394.587518 128.831982 
L 395.562457 137.791982 
L 396.537396 133.311982 
L 396.862375 133.311982 
L 397.187355 134.805315 
L 397.512334 133.311982 
L 397.837314 136.298648 
L 398.487273 136.298648 
L 398.487273 136.298648 
" clip-path="url(#p1e49623647)" style="fill: none; stroke: #1f77b4; stroke-width: 1.5; stroke-linecap: square"/>
   </g>
   <g id="line2d_15">
    <path d="M 73.832727 131.818648 
L 74.157707 130.325315 
L 74.482686 130.325315 
L 74.807666 127.338648 
L 76.107584 127.338648 
L 76.757543 124.351982 
L 77.082523 124.351982 
L 77.407502 122.858648 
L 77.732482 124.351982 
L 78.057461 122.858648 
L 78.382441 122.858648 
L 78.70742 121.365315 
L 79.0324 122.858648 
L 79.357379 122.858648 
L 79.682359 119.871982 
L 80.332318 119.871982 
L 80.982277 122.858648 
L 81.307256 122.858648 
L 81.632236 121.365315 
L 82.932154 121.365315 
L 83.582113 124.351982 
L 83.907093 124.351982 
L 84.232072 125.845315 
L 84.557052 125.845315 
L 84.882031 127.338648 
L 85.207011 127.338648 
L 85.85697 130.325315 
L 86.181949 133.311982 
L 86.506929 133.311982 
L 87.156888 136.298648 
L 87.481867 139.285315 
L 88.456806 143.765315 
L 88.781785 148.245315 
L 89.106765 146.751982 
L 89.756724 152.725315 
L 90.081704 157.205315 
L 90.406683 157.205315 
L 90.731663 160.191982 
L 91.056642 161.685315 
L 91.381622 166.165315 
L 91.706601 167.658648 
L 92.031581 170.645315 
L 92.68154 173.631982 
L 93.006519 176.618648 
L 93.331499 178.111982 
L 93.656478 184.085315 
L 93.981458 187.071982 
L 94.631417 190.058648 
L 95.281376 196.031982 
L 95.606355 196.031982 
L 95.931335 197.525315 
L 96.256314 200.511982 
L 96.581294 204.991982 
L 96.906274 206.485315 
L 97.231253 206.485315 
L 97.881212 209.471982 
L 98.531171 215.445315 
L 99.18113 218.431982 
L 99.50611 216.938648 
L 99.831089 218.431982 
L 100.156069 221.418648 
L 100.481048 225.898648 
L 100.806028 225.898648 
L 101.131007 224.405315 
L 101.455987 224.405315 
L 102.430925 228.885315 
L 103.405864 224.405315 
L 103.730844 225.898648 
L 104.380803 225.898648 
L 104.705782 224.405315 
L 105.030762 221.418648 
L 105.680721 221.418648 
L 106.33068 218.431982 
L 106.655659 219.925315 
L 106.980639 218.431982 
L 107.305618 219.925315 
L 108.280557 219.925315 
L 108.605536 218.431982 
L 108.930516 218.431982 
L 109.255495 222.911982 
L 109.580475 222.911982 
L 109.905455 221.418648 
L 110.230434 222.911982 
L 110.555414 221.418648 
L 111.205373 224.405315 
L 111.530352 222.911982 
L 111.855332 225.898648 
L 112.505291 222.911982 
L 112.83027 222.911982 
L 113.15525 221.418648 
L 113.805209 224.405315 
L 114.130188 224.405315 
L 114.455168 222.911982 
L 114.780147 224.405315 
L 115.105127 222.911982 
L 115.430106 222.911982 
L 115.755086 224.405315 
L 116.080066 224.405315 
L 116.405045 222.911982 
L 116.730025 222.911982 
L 117.055004 221.418648 
L 117.379984 221.418648 
L 117.704963 224.405315 
L 118.029943 222.911982 
L 118.679902 222.911982 
L 119.004881 221.418648 
L 119.329861 222.911982 
L 119.65484 221.418648 
L 119.97982 222.911982 
L 120.629779 222.911982 
L 120.954758 221.418648 
L 121.604717 224.405315 
L 121.929697 222.911982 
L 122.579656 222.911982 
L 122.904636 224.405315 
L 123.229615 224.405315 
L 123.554595 221.418648 
L 123.879574 222.911982 
L 124.854513 222.911982 
L 125.179492 224.405315 
L 125.504472 222.911982 
L 125.829451 222.911982 
L 126.154431 224.405315 
L 128.104308 224.405315 
L 128.429287 222.911982 
L 128.754267 224.405315 
L 129.404226 224.405315 
L 129.729206 222.911982 
L 130.054185 222.911982 
L 130.379165 224.405315 
L 131.029124 224.405315 
L 131.354103 225.898648 
L 131.679083 225.898648 
L 132.004062 222.911982 
L 132.329042 222.911982 
L 132.654021 224.405315 
L 132.979001 224.405315 
L 133.30398 225.898648 
L 133.953939 222.911982 
L 134.278919 222.911982 
L 134.603898 224.405315 
L 134.928878 222.911982 
L 135.253857 224.405315 
L 135.578837 224.405315 
L 135.903817 225.898648 
L 136.878755 221.418648 
L 137.203735 221.418648 
L 137.528714 213.951982 
L 137.853694 212.458648 
L 138.503653 204.991982 
L 139.478591 196.031982 
L 140.12855 185.578648 
L 140.778509 178.111982 
L 141.103489 175.125315 
L 141.753448 172.138648 
L 142.078428 167.658648 
L 142.403407 160.191982 
L 143.378346 151.231982 
L 143.703325 151.231982 
L 144.028305 146.751982 
L 144.678264 143.765315 
L 145.003243 140.778648 
L 145.978182 128.831982 
L 146.303161 127.338648 
L 146.628141 128.831982 
L 146.95312 131.818648 
L 147.2781 130.325315 
L 148.253038 118.378648 
L 148.578018 119.871982 
L 148.902998 122.858648 
L 149.227977 122.858648 
L 149.552957 121.365315 
L 149.877936 118.378648 
L 150.202916 116.885315 
L 150.527895 118.378648 
L 150.852875 116.885315 
L 151.177854 118.378648 
L 151.502834 118.378648 
L 151.827813 119.871982 
L 152.152793 119.871982 
L 152.477772 121.365315 
L 152.802752 121.365315 
L 153.127731 118.378648 
L 153.452711 118.378648 
L 153.77769 121.365315 
L 154.427649 124.351982 
L 155.077609 124.351982 
L 155.402588 121.365315 
L 156.052547 124.351982 
L 156.377527 127.338648 
L 156.702506 127.338648 
L 157.352465 130.325315 
L 158.002424 127.338648 
L 158.327404 128.831982 
L 158.652383 131.818648 
L 159.627322 136.298648 
L 159.952301 134.805315 
L 160.277281 134.805315 
L 160.60226 133.311982 
L 160.92724 133.311982 
L 161.252219 137.791982 
L 161.577199 139.285315 
L 161.902179 139.285315 
L 162.552138 136.298648 
L 162.877117 137.791982 
L 163.202097 136.298648 
L 163.527076 136.298648 
L 163.852056 137.791982 
L 164.177035 137.791982 
L 164.502015 139.285315 
L 164.826994 137.791982 
L 165.151974 137.791982 
L 165.476953 136.298648 
L 166.126912 136.298648 
L 166.451892 137.791982 
L 166.776871 137.791982 
L 167.42683 134.805315 
L 168.07679 134.805315 
L 168.401769 133.311982 
L 169.376708 133.311982 
L 169.701687 131.818648 
L 170.026667 131.818648 
L 170.351646 130.325315 
L 170.676626 130.325315 
L 171.001605 127.338648 
L 171.326585 128.831982 
L 171.651564 127.338648 
L 171.976544 127.338648 
L 172.301523 125.845315 
L 172.626503 122.858648 
L 172.951482 124.351982 
L 173.276462 124.351982 
L 173.601441 122.858648 
L 175.226339 122.858648 
L 175.551319 121.365315 
L 175.876298 121.365315 
L 176.201278 119.871982 
L 176.526257 121.365315 
L 177.501196 121.365315 
L 177.826175 119.871982 
L 178.151155 122.858648 
L 178.476134 124.351982 
L 178.801114 122.858648 
L 179.451073 122.858648 
L 180.426011 127.338648 
L 181.40095 127.338648 
L 181.72593 128.831982 
L 182.050909 131.818648 
L 183.350827 137.791982 
L 183.675807 142.271982 
L 184.000786 143.765315 
L 184.325766 143.765315 
L 184.650745 146.751982 
L 184.975725 148.245315 
L 185.300704 151.231982 
L 185.625684 152.725315 
L 186.275643 158.698648 
L 186.600622 158.698648 
L 187.250581 164.671982 
L 187.575561 166.165315 
L 188.22552 173.631982 
L 188.5505 175.125315 
L 188.875479 175.125315 
L 189.200459 178.111982 
L 189.850418 185.578648 
L 190.175397 188.565315 
L 190.500377 190.058648 
L 190.825356 193.045315 
L 191.475315 196.031982 
L 191.800295 200.511982 
L 192.450254 203.498648 
L 192.775233 206.485315 
L 193.100213 204.991982 
L 193.425192 204.991982 
L 194.075152 213.951982 
L 194.400131 215.445315 
L 194.725111 215.445315 
L 195.05009 218.431982 
L 195.37507 215.445315 
L 195.700049 219.925315 
L 196.025029 221.418648 
L 196.350008 224.405315 
L 196.999967 224.405315 
L 197.324947 222.911982 
L 197.649926 224.405315 
L 197.974906 228.885315 
L 198.624865 225.898648 
L 198.949844 227.391982 
L 199.274824 225.898648 
L 199.599803 225.898648 
L 200.249762 222.911982 
L 200.899722 222.911982 
L 201.224701 219.925315 
L 202.19964 219.925315 
L 202.524619 216.938648 
L 202.849599 218.431982 
L 203.174578 221.418648 
L 203.499558 219.925315 
L 204.474496 219.925315 
L 205.124455 222.911982 
L 205.449435 221.418648 
L 205.774414 222.911982 
L 206.099394 222.911982 
L 206.424373 224.405315 
L 207.074333 224.405315 
L 207.399312 222.911982 
L 207.724292 222.911982 
L 208.049271 224.405315 
L 208.374251 224.405315 
L 208.69923 221.418648 
L 209.02421 221.418648 
L 209.674169 224.405315 
L 209.999148 224.405315 
L 210.324128 222.911982 
L 210.974087 222.911982 
L 211.299066 224.405315 
L 212.274005 224.405315 
L 212.598984 221.418648 
L 213.248943 221.418648 
L 213.573923 224.405315 
L 213.898903 222.911982 
L 214.548862 222.911982 
L 214.873841 224.405315 
L 215.198821 222.911982 
L 215.5238 222.911982 
L 215.84878 224.405315 
L 216.173759 222.911982 
L 216.498739 224.405315 
L 216.823718 222.911982 
L 217.473677 222.911982 
L 217.798657 224.405315 
L 218.123636 222.911982 
L 218.448616 224.405315 
L 218.773595 224.405315 
L 219.098575 222.911982 
L 219.423554 222.911982 
L 219.748534 221.418648 
L 220.073514 222.911982 
L 220.723473 222.911982 
L 221.048452 224.405315 
L 221.373432 222.911982 
L 222.34837 222.911982 
L 222.67335 224.405315 
L 223.323309 224.405315 
L 223.973268 221.418648 
L 224.298247 221.418648 
L 224.623227 222.911982 
L 224.948206 222.911982 
L 225.273186 224.405315 
L 225.598165 222.911982 
L 226.573104 222.911982 
L 226.898084 224.405315 
L 227.223063 224.405315 
L 227.548043 222.911982 
L 227.873022 222.911982 
L 228.198002 224.405315 
L 228.522981 222.911982 
L 229.17294 225.898648 
L 229.822899 222.911982 
L 230.147879 224.405315 
L 230.472858 224.405315 
L 230.797838 222.911982 
L 231.122817 222.911982 
L 231.447797 225.898648 
L 231.772776 224.405315 
L 232.097756 225.898648 
L 232.422735 222.911982 
L 232.747715 222.911982 
L 233.072695 219.925315 
L 234.047633 207.978648 
L 234.372613 206.485315 
L 234.697592 202.005315 
L 235.022572 200.511982 
L 236.972449 175.125315 
L 237.622408 172.138648 
L 238.272367 160.191982 
L 238.597346 157.205315 
L 238.922326 152.725315 
L 239.247305 152.725315 
L 239.572285 151.231982 
L 240.222244 143.765315 
L 240.872203 140.778648 
L 241.847142 128.831982 
L 242.172121 128.831982 
L 242.497101 130.325315 
L 242.82208 130.325315 
L 243.14706 128.831982 
L 243.472039 125.845315 
L 243.797019 119.871982 
L 244.121998 118.378648 
L 244.446978 121.365315 
L 244.771957 122.858648 
L 245.096937 121.365315 
L 245.421916 121.365315 
L 245.746896 119.871982 
L 246.071876 119.871982 
L 246.721835 116.885315 
L 247.046814 118.378648 
L 247.696773 118.378648 
L 248.021753 121.365315 
L 248.671712 121.365315 
L 248.996691 118.378648 
L 249.321671 118.378648 
L 249.64665 119.871982 
L 249.97163 122.858648 
L 250.296609 124.351982 
L 250.621589 124.351982 
L 250.946568 122.858648 
L 251.271548 124.351982 
L 251.596527 122.858648 
L 251.921507 124.351982 
L 252.246486 127.338648 
L 252.571466 128.831982 
L 253.871384 128.831982 
L 254.196364 130.325315 
L 254.521343 130.325315 
L 254.846323 133.311982 
L 255.171302 134.805315 
L 256.7962 134.805315 
L 257.446159 137.791982 
L 257.771138 137.791982 
L 258.096118 139.285315 
L 258.421097 139.285315 
L 258.746077 136.298648 
L 259.071057 137.791982 
L 259.396036 136.298648 
L 260.045995 139.285315 
L 260.370975 139.285315 
L 260.695954 136.298648 
L 261.020934 137.791982 
L 261.670893 137.791982 
L 261.995872 136.298648 
L 262.320852 136.298648 
L 262.645831 137.791982 
L 263.29579 137.791982 
L 263.62077 134.805315 
L 263.945749 134.805315 
L 264.595708 131.818648 
L 265.570647 131.818648 
L 265.895627 128.831982 
L 266.545586 128.831982 
L 266.870565 127.338648 
L 267.195545 127.338648 
L 267.520524 125.845315 
L 267.845504 127.338648 
L 268.170483 125.845315 
L 268.495463 125.845315 
L 269.145422 122.858648 
L 269.470401 124.351982 
L 270.12036 121.365315 
L 270.44534 122.858648 
L 270.770319 122.858648 
L 271.420278 119.871982 
L 271.745258 119.871982 
L 272.070238 121.365315 
L 272.395217 119.871982 
L 272.720197 121.365315 
L 273.370156 121.365315 
L 273.695135 122.858648 
L 274.020115 121.365315 
L 274.345094 121.365315 
L 274.670074 122.858648 
L 275.320033 122.858648 
L 275.645012 124.351982 
L 275.969992 124.351982 
L 276.619951 127.338648 
L 276.94493 127.338648 
L 277.26991 130.325315 
L 277.594889 128.831982 
L 277.919869 130.325315 
L 278.569828 136.298648 
L 278.894808 137.791982 
L 279.219787 137.791982 
L 279.544767 139.285315 
L 280.194726 145.258648 
L 280.519705 145.258648 
L 280.844685 148.245315 
L 281.169664 149.738648 
L 281.494644 152.725315 
L 281.819623 154.218648 
L 282.469582 160.191982 
L 282.794562 160.191982 
L 283.119541 163.178648 
L 283.444521 167.658648 
L 284.09448 170.645315 
L 284.419459 173.631982 
L 284.744439 175.125315 
L 285.394398 182.591982 
L 285.719378 184.085315 
L 286.369337 190.058648 
L 286.694316 190.058648 
L 287.019296 191.551982 
L 287.344275 196.031982 
L 287.669255 197.525315 
L 288.319214 203.498648 
L 289.294152 207.978648 
L 289.619132 210.965315 
L 289.944111 212.458648 
L 290.269091 215.445315 
L 291.244029 215.445315 
L 291.569009 216.938648 
L 292.218968 222.911982 
L 292.543948 224.405315 
L 292.868927 224.405315 
L 293.193907 222.911982 
L 293.518886 222.911982 
L 293.843866 225.898648 
L 294.168845 227.391982 
L 294.818804 227.391982 
L 295.143784 224.405315 
L 296.443702 224.405315 
L 297.41864 219.925315 
L 297.74362 219.925315 
L 298.393579 216.938648 
L 298.718559 216.938648 
L 299.043538 219.925315 
L 299.368518 218.431982 
L 299.693497 219.925315 
L 300.018477 218.431982 
L 300.668436 221.418648 
L 301.643374 221.418648 
L 301.968354 222.911982 
L 302.293333 221.418648 
L 302.618313 221.418648 
L 302.943292 224.405315 
L 303.268272 225.898648 
L 303.593251 225.898648 
L 303.918231 224.405315 
L 304.24321 221.418648 
L 305.218149 221.418648 
L 305.868108 224.405315 
L 306.193088 222.911982 
L 306.843047 222.911982 
L 307.168026 224.405315 
L 308.142965 224.405315 
L 308.467944 222.911982 
L 309.117903 222.911982 
L 309.442883 221.418648 
L 309.767862 221.418648 
L 310.092842 222.911982 
L 310.742801 222.911982 
L 311.067781 221.418648 
L 311.39276 221.418648 
L 311.71774 222.911982 
L 313.017658 222.911982 
L 313.342637 224.405315 
L 313.667617 224.405315 
L 313.992596 225.898648 
L 314.317576 224.405315 
L 314.642555 224.405315 
L 315.292514 221.418648 
L 315.942473 221.418648 
L 316.267453 224.405315 
L 316.592432 222.911982 
L 317.567371 222.911982 
L 317.892351 221.418648 
L 318.54231 224.405315 
L 319.192269 224.405315 
L 319.517248 222.911982 
L 320.167207 222.911982 
L 320.817166 225.898648 
L 321.142146 224.405315 
L 321.792105 224.405315 
L 322.117084 222.911982 
L 322.442064 222.911982 
L 322.767043 224.405315 
L 323.092023 224.405315 
L 323.417002 222.911982 
L 323.741982 222.911982 
L 324.066962 224.405315 
L 326.016839 224.405315 
L 326.341818 222.911982 
L 326.666798 222.911982 
L 326.991777 224.405315 
L 327.966716 224.405315 
L 328.291695 222.911982 
L 328.616675 222.911982 
L 328.941654 219.925315 
L 329.916593 207.978648 
L 330.566552 204.991982 
L 330.891532 202.005315 
L 331.541491 191.551982 
L 332.516429 178.111982 
L 333.166388 175.125315 
L 334.791286 154.218648 
L 335.441245 151.231982 
L 336.091204 143.765315 
L 336.741163 140.778648 
L 337.066143 137.791982 
L 337.716102 127.338648 
L 338.041081 127.338648 
L 338.366061 130.325315 
L 339.01602 130.325315 
L 339.990958 118.378648 
L 340.965897 122.858648 
L 341.290876 122.858648 
L 341.940835 116.885315 
L 342.265815 118.378648 
L 342.915774 118.378648 
L 343.240753 119.871982 
L 344.865651 119.871982 
L 345.190631 118.378648 
L 345.51561 118.378648 
L 346.165569 125.845315 
L 346.490549 125.845315 
L 346.815528 122.858648 
L 347.140508 121.365315 
L 347.465487 124.351982 
L 347.790467 125.845315 
L 348.115446 125.845315 
L 348.440426 128.831982 
L 348.765405 130.325315 
L 349.090385 128.831982 
L 349.415364 130.325315 
L 350.390303 130.325315 
L 350.715283 131.818648 
L 351.040262 134.805315 
L 351.365242 136.298648 
L 351.690221 134.805315 
L 352.015201 134.805315 
L 352.34018 136.298648 
L 353.315119 136.298648 
L 353.640098 139.285315 
L 353.965078 139.285315 
L 354.290057 137.791982 
L 356.564914 137.791982 
L 356.889894 139.285315 
L 357.214873 136.298648 
L 357.539853 136.298648 
L 357.864832 137.791982 
L 358.514791 134.805315 
L 359.48973 134.805315 
L 359.814709 133.311982 
L 360.139689 133.311982 
L 360.464668 134.805315 
L 360.789648 131.818648 
L 361.114627 131.818648 
L 361.439607 133.311982 
L 362.414545 128.831982 
L 363.064505 128.831982 
L 363.389484 127.338648 
L 363.714464 127.338648 
L 364.039443 125.845315 
L 364.364423 125.845315 
L 365.014382 122.858648 
L 365.339361 124.351982 
L 365.664341 124.351982 
L 365.98932 122.858648 
L 366.3143 122.858648 
L 366.639279 121.365315 
L 366.964259 121.365315 
L 367.289238 119.871982 
L 367.614218 121.365315 
L 367.939197 119.871982 
L 368.264177 122.858648 
L 368.914136 119.871982 
L 369.239115 121.365315 
L 370.214054 121.365315 
L 370.539034 122.858648 
L 370.864013 125.845315 
L 371.188993 122.858648 
L 371.513972 124.351982 
L 371.838952 124.351982 
L 372.81389 128.831982 
L 373.13887 127.338648 
L 373.463849 130.325315 
L 374.438788 134.805315 
L 374.763767 137.791982 
L 375.088747 136.298648 
L 375.413726 139.285315 
L 375.738706 143.765315 
L 376.713645 148.245315 
L 377.038624 151.231982 
L 377.688583 154.218648 
L 378.013563 158.698648 
L 378.338542 158.698648 
L 378.663522 161.685315 
L 378.988501 163.178648 
L 379.313481 166.165315 
L 379.96344 173.631982 
L 380.288419 173.631982 
L 380.613399 178.111982 
L 381.263358 181.098648 
L 381.913317 187.071982 
L 382.238296 188.565315 
L 382.563276 191.551982 
L 382.888256 193.045315 
L 383.213235 197.525315 
L 383.538215 199.018648 
L 383.863194 202.005315 
L 384.513153 204.991982 
L 384.838133 204.991982 
L 385.163112 207.978648 
L 385.488092 209.471982 
L 386.138051 215.445315 
L 386.46303 215.445315 
L 386.78801 216.938648 
L 387.112989 216.938648 
L 387.437969 218.431982 
L 388.087928 224.405315 
L 388.412907 224.405315 
L 388.737887 222.911982 
L 389.062867 224.405315 
L 389.387846 224.405315 
L 390.362785 228.885315 
L 390.687764 225.898648 
L 391.337723 225.898648 
L 391.662703 227.391982 
L 391.987682 224.405315 
L 392.312662 222.911982 
L 392.637641 222.911982 
L 392.962621 221.418648 
L 393.61258 221.418648 
L 393.937559 219.925315 
L 394.262539 219.925315 
L 394.587518 218.431982 
L 394.912498 218.431982 
L 395.237477 219.925315 
L 395.887437 216.938648 
L 396.537396 219.925315 
L 396.862375 222.911982 
L 398.162293 222.911982 
L 398.487273 224.405315 
L 398.487273 224.405315 
" clip-path="url(#p1e49623647)" style="fill: none; stroke: #ff7f0e; stroke-width: 1.5; stroke-linecap: square"/>
   </g>
   <g id="line2d_16">
    <path d="M 73.832727 119.274667 
L 74.482686 131.221333 
L 74.807666 131.221333 
L 76.107584 155.114667 
L 76.432563 158.101333 
L 77.407502 176.021333 
L 77.732482 179.008 
L 78.70742 196.928 
L 79.0324 196.928 
L 79.357379 202.901333 
L 79.682359 211.861333 
L 80.007338 214.848 
L 80.332318 214.848 
L 80.982277 229.781333 
L 81.307256 232.768 
L 81.632236 232.768 
L 81.957215 241.728 
L 82.282195 241.728 
L 82.607174 250.688 
L 83.257133 256.661333 
L 83.582113 262.634667 
L 83.907093 265.621333 
L 84.232072 262.634667 
L 84.557052 268.608 
L 86.506929 286.528 
L 86.831908 280.554667 
L 87.156888 286.528 
L 87.481867 286.528 
L 87.806847 289.514667 
L 88.131826 286.528 
L 89.106765 295.488 
L 89.431744 289.514667 
L 89.756724 289.514667 
L 90.081704 292.501333 
L 90.406683 292.501333 
L 90.731663 286.528 
L 91.056642 289.514667 
L 91.706601 289.514667 
L 92.031581 280.554667 
L 92.35656 283.541333 
L 92.68154 283.541333 
L 93.006519 280.554667 
L 93.331499 280.554667 
L 93.981458 274.581333 
L 94.306437 274.581333 
L 94.631417 265.621333 
L 94.956396 265.621333 
L 95.606355 259.648 
L 95.931335 253.674667 
L 96.906274 244.714667 
L 97.231253 238.741333 
L 97.556233 238.741333 
L 98.531171 220.821333 
L 98.856151 217.834667 
L 99.18113 217.834667 
L 99.50611 211.861333 
L 99.831089 202.901333 
L 100.481048 196.928 
L 100.806028 187.968 
L 101.131007 187.968 
L 101.780966 181.994667 
L 102.430925 164.074667 
L 102.755905 167.061333 
L 103.080885 161.088 
L 103.405864 158.101333 
L 103.730844 149.141333 
L 104.380803 143.168 
L 105.030762 131.221333 
L 105.680721 125.248 
L 106.33068 113.301333 
L 106.655659 113.301333 
L 106.980639 107.328 
L 107.305618 110.314667 
L 107.630598 101.354667 
L 108.605536 92.394667 
L 108.930516 86.421333 
L 109.580475 86.421333 
L 109.905455 80.448 
L 110.230434 80.448 
L 111.530352 68.501333 
L 111.855332 71.488 
L 112.505291 65.514667 
L 112.83027 65.514667 
L 113.15525 68.501333 
L 114.130188 68.501333 
L 114.455168 65.514667 
L 114.780147 68.501333 
L 115.105127 65.514667 
L 116.080066 74.474667 
L 116.405045 68.501333 
L 116.730025 68.501333 
L 117.055004 74.474667 
L 117.379984 77.461333 
L 117.704963 86.421333 
L 118.029943 80.448 
L 118.354922 86.421333 
L 118.679902 89.408 
L 119.004881 89.408 
L 119.329861 92.394667 
L 119.97982 104.341333 
L 120.304799 107.328 
L 120.629779 104.341333 
L 121.279738 116.288 
L 121.929697 122.261333 
L 122.254676 128.234667 
L 122.579656 131.221333 
L 122.904636 137.194667 
L 123.229615 137.194667 
L 123.879574 152.128 
L 124.204554 155.114667 
L 124.854513 167.061333 
L 125.179492 170.048 
L 125.504472 176.021333 
L 125.829451 176.021333 
L 126.154431 181.994667 
L 126.47941 190.954667 
L 127.129369 196.928 
L 127.779328 211.861333 
L 128.104308 214.848 
L 128.429287 214.848 
L 128.754267 220.821333 
L 129.729206 229.781333 
L 130.379165 241.728 
L 131.354103 250.688 
L 131.679083 256.661333 
L 132.004062 259.648 
L 132.329042 259.648 
L 132.654021 265.621333 
L 133.30398 271.594667 
L 133.62896 268.608 
L 134.603898 277.568 
L 134.928878 277.568 
L 135.253857 280.554667 
L 135.578837 280.554667 
L 135.903817 283.541333 
L 136.228796 280.554667 
L 136.878755 286.528 
L 137.528714 280.554667 
L 137.853694 286.528 
L 138.503653 286.528 
L 138.828632 277.568 
L 139.153612 283.541333 
L 139.478591 283.541333 
L 140.12855 277.568 
L 141.103489 277.568 
L 141.428468 268.608 
L 142.403407 268.608 
L 142.728387 259.648 
L 143.053366 262.634667 
L 143.378346 256.661333 
L 143.703325 256.661333 
L 144.028305 247.701333 
L 144.353284 247.701333 
L 144.678264 241.728 
L 145.653202 232.768 
L 145.978182 226.794667 
L 146.303161 223.808 
L 146.628141 214.848 
L 146.95312 211.861333 
L 147.2781 211.861333 
L 147.928059 196.928 
L 148.253038 196.928 
L 148.902998 184.981333 
L 149.227977 176.021333 
L 149.552957 179.008 
L 149.877936 170.048 
L 150.202916 167.061333 
L 150.527895 161.088 
L 150.852875 158.101333 
L 151.177854 149.141333 
L 151.502834 152.128 
L 151.827813 140.181333 
L 152.152793 134.208 
L 152.477772 134.208 
L 153.127731 122.261333 
L 153.452711 122.261333 
L 153.77769 116.288 
L 154.10267 113.301333 
L 154.427649 104.341333 
L 154.752629 104.341333 
L 155.077609 98.368 
L 155.727568 92.394667 
L 156.052547 86.421333 
L 156.377527 86.421333 
L 156.702506 83.434667 
L 157.027486 74.474667 
L 157.352465 71.488 
L 157.677445 74.474667 
L 158.002424 71.488 
L 158.327404 65.514667 
L 159.302342 65.514667 
L 159.627322 59.541333 
L 159.952301 56.554667 
L 160.60226 56.554667 
L 160.92724 53.568 
L 161.252219 56.554667 
L 161.902179 56.554667 
L 162.227158 53.568 
L 162.877117 59.541333 
L 163.202097 59.541333 
L 163.527076 56.554667 
L 163.852056 62.528 
L 164.502015 68.501333 
L 164.826994 65.514667 
L 165.151974 71.488 
L 165.476953 71.488 
L 166.451892 80.448 
L 166.776871 86.421333 
L 167.75181 95.381333 
L 168.07679 101.354667 
L 168.726749 101.354667 
L 169.376708 116.288 
L 169.701687 122.261333 
L 170.026667 122.261333 
L 170.351646 131.221333 
L 170.676626 131.221333 
L 171.001605 140.181333 
L 171.326585 143.168 
L 171.651564 152.128 
L 172.626503 161.088 
L 173.601441 179.008 
L 173.926421 181.994667 
L 174.90136 199.914667 
L 175.226339 199.914667 
L 175.551319 208.874667 
L 175.876298 211.861333 
L 176.201278 217.834667 
L 176.526257 220.821333 
L 177.176216 235.754667 
L 177.501196 238.741333 
L 177.826175 238.741333 
L 178.151155 241.728 
L 178.476134 250.688 
L 178.801114 250.688 
L 179.126093 253.674667 
L 179.451073 259.648 
L 180.101032 265.621333 
L 180.426011 265.621333 
L 180.750991 271.594667 
L 181.72593 280.554667 
L 182.050909 280.554667 
L 182.700868 286.528 
L 183.025848 283.541333 
L 183.675807 289.514667 
L 184.000786 289.514667 
L 184.325766 286.528 
L 184.975725 292.501333 
L 185.300704 292.501333 
L 185.625684 286.528 
L 185.950663 292.501333 
L 186.275643 289.514667 
L 186.600622 289.514667 
L 186.925602 286.528 
L 187.900541 286.528 
L 188.22552 283.541333 
L 188.5505 277.568 
L 188.875479 280.554667 
L 189.525438 274.581333 
L 189.850418 274.581333 
L 190.175397 271.594667 
L 190.500377 271.594667 
L 190.825356 262.634667 
L 191.150336 262.634667 
L 191.800295 256.661333 
L 192.125274 250.688 
L 192.450254 250.688 
L 192.775233 244.714667 
L 193.100213 244.714667 
L 193.750172 229.781333 
L 194.075152 232.768 
L 194.725111 214.848 
L 195.05009 214.848 
L 195.37507 211.861333 
L 195.700049 211.861333 
L 196.025029 196.928 
L 196.350008 196.928 
L 196.674988 190.954667 
L 197.324947 184.981333 
L 198.299885 167.061333 
L 198.624865 158.101333 
L 198.949844 158.101333 
L 199.274824 155.114667 
L 199.599803 146.154667 
L 200.249762 140.181333 
L 200.574742 134.208 
L 200.899722 134.208 
L 201.224701 125.248 
L 201.549681 128.234667 
L 201.87466 116.288 
L 203.499558 101.354667 
L 203.824537 95.381333 
L 204.149517 95.381333 
L 204.474496 89.408 
L 205.124455 83.434667 
L 206.099394 83.434667 
L 206.424373 77.461333 
L 207.074333 71.488 
L 207.724292 71.488 
L 208.049271 68.501333 
L 208.69923 68.501333 
L 209.02421 62.528 
L 209.674169 68.501333 
L 209.999148 65.514667 
L 210.324128 68.501333 
L 210.649107 65.514667 
L 211.299066 71.488 
L 211.624046 68.501333 
L 211.949025 74.474667 
L 212.274005 77.461333 
L 212.598984 77.461333 
L 212.923964 74.474667 
L 213.573923 80.448 
L 213.898903 86.421333 
L 214.548862 86.421333 
L 214.873841 92.394667 
L 215.198821 92.394667 
L 215.5238 98.368 
L 215.84878 101.354667 
L 216.173759 110.314667 
L 216.498739 113.301333 
L 216.823718 110.314667 
L 217.148698 116.288 
L 217.473677 119.274667 
L 218.123636 131.221333 
L 218.773595 137.194667 
L 219.098575 146.154667 
L 219.423554 146.154667 
L 219.748534 149.141333 
L 220.398493 161.088 
L 220.723473 164.074667 
L 221.698411 181.994667 
L 222.023391 181.994667 
L 222.34837 190.954667 
L 222.67335 190.954667 
L 222.998329 196.928 
L 223.323309 199.914667 
L 223.648288 208.874667 
L 223.973268 211.861333 
L 224.298247 217.834667 
L 224.623227 217.834667 
L 224.948206 220.821333 
L 225.273186 229.781333 
L 225.598165 229.781333 
L 226.248124 241.728 
L 226.898084 247.701333 
L 227.223063 247.701333 
L 227.548043 253.674667 
L 228.198002 259.648 
L 228.522981 259.648 
L 228.847961 262.634667 
L 229.17294 268.608 
L 229.822899 268.608 
L 230.472858 280.554667 
L 230.797838 277.568 
L 231.122817 277.568 
L 232.097756 286.528 
L 232.422735 280.554667 
L 232.747715 283.541333 
L 233.072695 280.554667 
L 233.397674 283.541333 
L 234.047633 283.541333 
L 234.372613 286.528 
L 235.022572 280.554667 
L 235.347551 280.554667 
L 235.672531 283.541333 
L 235.99751 277.568 
L 236.32249 274.581333 
L 236.972449 274.581333 
L 237.297428 271.594667 
L 237.622408 265.621333 
L 237.947387 268.608 
L 238.272367 262.634667 
L 238.597346 262.634667 
L 239.897265 250.688 
L 240.222244 241.728 
L 240.547224 244.714667 
L 240.872203 238.741333 
L 241.197183 235.754667 
L 241.522162 229.781333 
L 241.847142 226.794667 
L 242.172121 226.794667 
L 242.497101 220.821333 
L 242.82208 211.861333 
L 243.14706 211.861333 
L 243.472039 205.888 
L 243.797019 202.901333 
L 244.121998 193.941333 
L 244.446978 193.941333 
L 244.771957 187.968 
L 245.096937 184.981333 
L 245.746896 167.061333 
L 246.071876 167.061333 
L 246.721835 155.114667 
L 247.371794 149.141333 
L 247.696773 143.168 
L 248.021753 134.208 
L 248.346732 134.208 
L 248.671712 128.234667 
L 248.996691 128.234667 
L 249.321671 116.288 
L 249.97163 110.314667 
L 250.296609 104.341333 
L 251.271548 95.381333 
L 251.596527 89.408 
L 251.921507 86.421333 
L 252.246486 86.421333 
L 252.896446 80.448 
L 253.221425 74.474667 
L 254.196364 65.514667 
L 254.521343 65.514667 
L 255.171302 59.541333 
L 255.496282 62.528 
L 255.821261 56.554667 
L 256.146241 56.554667 
L 256.47122 59.541333 
L 257.121179 53.568 
L 257.446159 56.554667 
L 257.771138 56.554667 
L 258.096118 59.541333 
L 258.421097 53.568 
L 258.746077 59.541333 
L 259.071057 56.554667 
L 259.721016 62.528 
L 260.045995 62.528 
L 260.370975 68.501333 
L 261.020934 68.501333 
L 261.995872 77.461333 
L 262.320852 77.461333 
L 262.970811 89.408 
L 264.270729 101.354667 
L 265.245667 119.274667 
L 266.220606 128.234667 
L 267.195545 146.154667 
L 267.520524 146.154667 
L 267.845504 155.114667 
L 268.170483 158.101333 
L 268.495463 167.061333 
L 268.820442 167.061333 
L 269.145422 176.021333 
L 269.470401 176.021333 
L 269.795381 187.968 
L 270.12036 190.954667 
L 270.44534 196.928 
L 270.770319 199.914667 
L 271.095299 205.888 
L 271.420278 208.874667 
L 272.070238 220.821333 
L 272.395217 220.821333 
L 272.720197 223.808 
L 273.045176 232.768 
L 273.370156 235.754667 
L 273.695135 241.728 
L 274.020115 241.728 
L 274.670074 253.674667 
L 275.969992 265.621333 
L 276.294971 271.594667 
L 276.619951 268.608 
L 276.94493 274.581333 
L 277.26991 277.568 
L 277.919869 277.568 
L 278.244848 283.541333 
L 278.569828 283.541333 
L 278.894808 286.528 
L 279.219787 283.541333 
L 279.544767 289.514667 
L 279.869746 289.514667 
L 280.194726 295.488 
L 280.519705 292.501333 
L 281.169664 292.501333 
L 281.494644 295.488 
L 281.819623 286.528 
L 282.469582 292.501333 
L 283.119541 286.528 
L 283.444521 289.514667 
L 283.7695 286.528 
L 284.09448 286.528 
L 284.419459 277.568 
L 284.744439 280.554667 
L 285.069419 277.568 
L 285.394398 277.568 
L 285.719378 271.594667 
L 286.044357 271.594667 
L 286.369337 268.608 
L 286.694316 268.608 
L 287.019296 259.648 
L 287.344275 256.661333 
L 287.669255 256.661333 
L 288.319214 244.714667 
L 288.644193 244.714667 
L 288.969173 238.741333 
L 289.294152 241.728 
L 289.619132 229.781333 
L 289.944111 229.781333 
L 290.269091 223.808 
L 290.59407 220.821333 
L 290.91905 214.848 
L 291.244029 211.861333 
L 291.569009 205.888 
L 291.893989 202.901333 
L 292.218968 193.941333 
L 292.543948 193.941333 
L 293.518886 176.021333 
L 293.843866 173.034667 
L 294.168845 167.061333 
L 294.493825 164.074667 
L 294.818804 158.101333 
L 295.143784 158.101333 
L 295.468763 149.141333 
L 295.793743 146.154667 
L 296.443702 134.208 
L 296.768681 134.208 
L 297.093661 131.221333 
L 297.41864 122.261333 
L 297.74362 122.261333 
L 298.393579 110.314667 
L 298.718559 107.328 
L 299.043538 107.328 
L 299.368518 104.341333 
L 300.018477 92.394667 
L 300.343456 92.394667 
L 300.993415 86.421333 
L 301.318395 86.421333 
L 301.643374 83.434667 
L 301.968354 83.434667 
L 302.618313 71.488 
L 302.943292 71.488 
L 303.268272 74.474667 
L 303.593251 68.501333 
L 303.918231 65.514667 
L 304.24321 65.514667 
L 304.56819 68.501333 
L 304.89317 65.514667 
L 306.843047 65.514667 
L 307.493006 71.488 
L 307.817985 68.501333 
L 308.467944 74.474667 
L 309.117903 74.474667 
L 309.442883 80.448 
L 309.767862 83.434667 
L 310.092842 89.408 
L 310.417821 83.434667 
L 310.742801 92.394667 
L 311.067781 92.394667 
L 311.39276 101.354667 
L 312.042719 107.328 
L 312.367699 107.328 
L 312.692678 113.301333 
L 313.017658 113.301333 
L 313.667617 128.234667 
L 314.317576 128.234667 
L 314.642555 137.194667 
L 314.967535 140.181333 
L 315.292514 146.154667 
L 315.617494 149.141333 
L 315.942473 158.101333 
L 316.267453 158.101333 
L 316.592432 164.074667 
L 316.917412 167.061333 
L 317.242391 176.021333 
L 317.567371 179.008 
L 317.892351 184.981333 
L 318.21733 187.968 
L 318.867289 199.914667 
L 319.517248 205.888 
L 320.167207 217.834667 
L 320.492187 220.821333 
L 320.817166 220.821333 
L 321.792105 238.741333 
L 323.092023 250.688 
L 323.417002 250.688 
L 323.741982 253.674667 
L 324.066962 262.634667 
L 324.716921 262.634667 
L 325.0419 265.621333 
L 325.36688 271.594667 
L 325.691859 274.581333 
L 326.016839 265.621333 
L 326.341818 274.581333 
L 326.991777 280.554667 
L 327.316757 277.568 
L 327.966716 283.541333 
L 328.291695 283.541333 
L 328.616675 280.554667 
L 329.266634 286.528 
L 329.591613 283.541333 
L 329.916593 283.541333 
L 330.241572 286.528 
L 330.566552 286.528 
L 330.891532 283.541333 
L 331.216511 277.568 
L 331.541491 280.554667 
L 331.86647 277.568 
L 332.19145 277.568 
L 332.516429 274.581333 
L 332.841409 274.581333 
L 333.166388 271.594667 
L 333.491368 271.594667 
L 333.816347 265.621333 
L 334.141327 265.621333 
L 334.466306 262.634667 
L 335.116265 250.688 
L 335.766224 250.688 
L 336.091204 247.701333 
L 336.416183 241.728 
L 336.741163 241.728 
L 337.066143 232.768 
L 337.716102 226.794667 
L 338.041081 220.821333 
L 338.366061 220.821333 
L 338.69104 214.848 
L 339.01602 205.888 
L 339.340999 205.888 
L 339.990958 193.941333 
L 340.315938 184.981333 
L 340.640917 184.981333 
L 340.965897 181.994667 
L 341.290876 176.021333 
L 341.615856 164.074667 
L 341.940835 164.074667 
L 342.265815 158.101333 
L 342.590794 158.101333 
L 342.915774 149.141333 
L 343.565733 143.168 
L 344.215692 131.221333 
L 344.865651 125.248 
L 345.51561 110.314667 
L 346.165569 104.341333 
L 346.490549 107.328 
L 346.815528 95.381333 
L 348.440426 80.448 
L 348.765405 80.448 
L 349.090385 77.461333 
L 349.415364 68.501333 
L 350.065324 68.501333 
L 350.390303 65.514667 
L 350.715283 59.541333 
L 351.040262 62.528 
L 351.365242 59.541333 
L 351.690221 62.528 
L 352.015201 56.554667 
L 353.315119 56.554667 
L 353.640098 59.541333 
L 354.290057 59.541333 
L 354.615037 56.554667 
L 355.264996 62.528 
L 355.914955 62.528 
L 356.889894 71.488 
L 357.214873 68.501333 
L 357.539853 77.461333 
L 357.864832 77.461333 
L 358.189812 86.421333 
L 358.514791 86.421333 
L 358.839771 92.394667 
L 359.16475 92.394667 
L 359.48973 95.381333 
L 359.814709 95.381333 
L 360.789648 113.301333 
L 361.114627 116.288 
L 361.764586 128.234667 
L 362.089566 131.221333 
L 362.414545 131.221333 
L 362.739525 140.181333 
L 363.064505 143.168 
L 363.389484 149.141333 
L 363.714464 152.128 
L 364.039443 161.088 
L 364.364423 164.074667 
L 364.689402 170.048 
L 365.014382 170.048 
L 365.664341 184.981333 
L 365.98932 187.968 
L 366.3143 187.968 
L 366.964259 205.888 
L 367.289238 208.874667 
L 367.614218 208.874667 
L 367.939197 217.834667 
L 368.264177 220.821333 
L 368.914136 232.768 
L 369.239115 235.754667 
L 369.564095 241.728 
L 369.889075 244.714667 
L 370.214054 244.714667 
L 370.864013 256.661333 
L 371.188993 256.661333 
L 371.513972 259.648 
L 371.838952 268.608 
L 372.163931 268.608 
L 372.488911 274.581333 
L 372.81389 271.594667 
L 373.13887 277.568 
L 373.463849 277.568 
L 374.438788 286.528 
L 374.763767 286.528 
L 375.088747 289.514667 
L 375.413726 286.528 
L 375.738706 286.528 
L 376.063686 289.514667 
L 377.363604 289.514667 
L 377.688583 295.488 
L 378.013563 286.528 
L 378.338542 289.514667 
L 378.988501 289.514667 
L 379.313481 286.528 
L 379.63846 286.528 
L 379.96344 280.554667 
L 380.288419 280.554667 
L 380.613399 277.568 
L 381.263358 277.568 
L 381.588337 274.581333 
L 381.913317 268.608 
L 382.238296 268.608 
L 382.888256 262.634667 
L 383.213235 253.674667 
L 383.538215 256.661333 
L 383.863194 250.688 
L 384.188174 250.688 
L 384.513153 244.714667 
L 384.838133 244.714667 
L 385.163112 238.741333 
L 385.488092 235.754667 
L 385.813071 226.794667 
L 386.138051 223.808 
L 386.46303 217.834667 
L 387.112989 211.861333 
L 387.762948 199.914667 
L 388.087928 196.928 
L 388.412907 187.968 
L 388.737887 184.981333 
L 389.062867 184.981333 
L 390.362785 161.088 
L 391.012744 155.114667 
L 391.337723 149.141333 
L 391.662703 146.154667 
L 391.987682 140.181333 
L 392.312662 131.221333 
L 392.637641 131.221333 
L 393.2876 125.248 
L 393.61258 119.274667 
L 393.937559 116.288 
L 394.262539 110.314667 
L 394.587518 110.314667 
L 394.912498 104.341333 
L 395.887437 95.381333 
L 396.212416 86.421333 
L 396.537396 89.408 
L 397.512334 80.448 
L 397.837314 80.448 
L 398.162293 77.461333 
L 398.487273 77.461333 
L 398.487273 77.461333 
" clip-path="url(#p1e49623647)" style="fill: none; stroke: #2ca02c; stroke-width: 1.5; stroke-linecap: square"/>
   </g>
   <g id="patch_3">
    <path d="M 57.6 307.584 
L 57.6 41.472 
" style="fill: none; stroke: #000000; stroke-width: 0.8; stroke-linejoin: miter; stroke-linecap: square"/>
   </g>
   <g id="patch_4">
    <path d="M 414.72 307.584 
L 414.72 41.472 
" style="fill: none; stroke: #000000; stroke-width: 0.8; stroke-linejoin: miter; stroke-linecap: square"/>
   </g>
   <g id="patch_5">
    <path d="M 57.6 307.584 
L 414.72 307.584 
" style="fill: none; stroke: #000000; stroke-width: 0.8; stroke-linejoin: miter; stroke-linecap: square"/>
   </g>
   <g id="patch_6">
    <path d="M 57.6 41.472 
L 414.72 41.472 
" style="fill: none; stroke: #000000; stroke-width: 0.8; stroke-linejoin: miter; stroke-linecap: square"/>
   </g>
  </g>
 </g>
 <defs>
  <clipPath id="p1e49623647">
   <rect x="57.6" y="41.472" width="357.12" height="266.112"/>
  </clipPath>
 </defs>
</svg>
