<?xml version="1.0" encoding="utf-8" standalone="no"?>
<!DOCTYPE svg PUBLIC "-//W3C//DTD SVG 1.1//EN"
  "http://www.w3.org/Graphics/SVG/1.1/DTD/svg11.dtd">
<svg xmlns:xlink="http://www.w3.org/1999/xlink" width="460.8pt" height="345.6pt" viewBox="0 0 460.8 345.6" xmlns="http://www.w3.org/2000/svg" version="1.1">
 <metadata>
  <rdf:RDF xmlns:dc="http://purl.org/dc/elements/1.1/" xmlns:cc="http://creativecommons.org/ns#" xmlns:rdf="http://www.w3.org/1999/02/22-rdf-syntax-ns#">
   <cc:Work>
    <dc:type rdf:resource="http://purl.org/dc/dcmitype/StillImage"/>
    <dc:date>2025-12-29T08:22:39.736737</dc:date>
    <dc:format>image/svg+xml</dc:format>
    <dc:creator>
     <cc:Agent>
      <dc:title>Matplotlib v3.10.8, https://matplotlib.org/</dc:title>
     </cc:Agent>
    </dc:creator>
   </cc:Work>
  </rdf:RDF>
 </metadata>
 <defs>
  <style type="text/css">*{stroke-linejoin: round; stroke-linecap: butt}</style>
 </defs>
 <g id="figure_1">
  <g id="patch_1">
   <path d="M 0 345.6 
L 460.8 345.6 
L 460.8 0 
L 0 0 
z
" style="fill: #ffffff"/>
  </g>
  <g id="axes_1">
   <g id="patch_2">
    <path d="M 57.6 307.584 
L 414.72 307.584 
L 414.72 41.472 
L 57.6 41.472 
z
" style="fill: #ffffff"/>
   </g>
   <g id="matplotlib.axis_1">
    <g id="xtick_1">
     <g id="line2d_1">
      <defs>
       <path id="mfb646cbde0" d="M 0 0 
L 0 3.5 
" style="stroke: #000000; stroke-width: 0.8"/>
      </defs>
      <g>
       <use xlink:href="#mfb646cbde0" x="73.832727" y="307.584" style="stroke: #000000; stroke-width: 0.8"/>
      </g>
     </g>
     <g id="text_1">
      <!-- 0 -->
      <g transform="translate(70.651477 322.182437) scale(0.1 -0.1)">
       <defs>
        <path id="DejaVuSans-30" d="M 2034 4250 
Q 1547 4250 1301 3770 
Q 1056 3291 1056 2328 
Q 1056 1369 1301 889 
Q 1547 409 2034 409 
Q 2525 409 2770 889 
Q 3016 1369 3016 2328 
Q 3016 3291 2770 3770 
Q 2525 4250 2034 4250 
z
M 2034 4750 
Q 2819 4750 3233 4129 
Q 3647 3509 3647 2328 
Q 3647 1150 3233 529 
Q 2819 -91 2034 -91 
Q 1250 -91 836 529 
Q 422 1150 422 2328 
Q 422 3509 836 4129 
Q 1250 4750 2034 4750 
z
" transform="scale(0.015625)"/>
       </defs>
       <use xlink:href="#DejaVuSans-30"/>
      </g>
     </g>
    </g>
    <g id="xtick_2">
     <g id="line2d_2">
      <g>
       <use xlink:href="#mfb646cbde0" x="138.828632" y="307.584" style="stroke: #000000; stroke-width: 0.8"/>
      </g>
     </g>
     <g id="text_2">
      <!-- 1 -->
      <g transform="translate(135.647382 322.182437) scale(0.1 -0.1)">
       <defs>
        <path id="DejaVuSans-31" d="M 794 531 
L 1825 531 
L 1825 4091 
L 703 3866 
L 703 4441 
L 1819 4666 
L 2450 4666 
L 2450 531 
L 3481 531 
L 3481 0 
L 794 0 
L 794 531 
z
" transform="scale(0.015625)"/>
       </defs>
       <use xlink:href="#DejaVuSans-31"/>
      </g>
     </g>
    </g>
    <g id="xtick_3">
     <g id="line2d_3">
      <g>
       <use xlink:href="#mfb646cbde0" x="203.824537" y="307.584" style="stroke: #000000; stroke-width: 0.8"/>
      </g>
     </g>
     <g id="text_3">
      <!-- 2 -->
      <g transform="translate(200.643287 322.182437) scale(0.1 -0.1)">
       <defs>
        <path id="DejaVuSans-32" d="M 1228 531 
L 3431 531 
L 3431 0 
L 469 0 
L 469 531 
Q 828 903 1448 1529 
Q 2069 2156 2228 2338 
Q 2531 2678 2651 2914 
Q 2772 3150 2772 3378 
Q 2772 3750 2511 3984 
Q 2250 4219 1831 4219 
Q 1534 4219 1204 4116 
Q 875 4013 500 3803 
L 500 4441 
Q 881 4594 1212 4672 
Q 1544 4750 1819 4750 
Q 2544 4750 2975 4387 
Q 3406 4025 3406 3419 
Q 3406 3131 3298 2873 
Q 3191 2616 2906 2266 
Q 2828 2175 2409 1742 
Q 1991 1309 1228 531 
z
" transform="scale(0.015625)"/>
       </defs>
       <use xlink:href="#DejaVuSans-32"/>
      </g>
     </g>
    </g>
    <g id="xtick_4">
     <g id="line2d_4">
      <g>
       <use xlink:href="#mfb646cbde0" x="268.820442" y="307.584" style="stroke: #000000; stroke-width: 0.8"/>
      </g>
     </g>
     <g id="text_4">
      <!-- 3 -->
      <g transform="translate(265.639192 322.182437) scale(0.1 -0.1)">
       <defs>
        <path id="DejaVuSans-33" d="M 2597 2516 
Q 3050 2419 3304 2112 
Q 3559 1806 3559 1356 
Q 3559 666 3084 287 
Q 2609 -91 1734 -91 
Q 1441 -91 1130 -33 
Q 819 25 488 141 
L 488 750 
Q 750 597 1062 519 
Q 1375 441 1716 441 
Q 2309 441 2620 675 
Q 2931 909 2931 1356 
Q 2931 1769 2642 2001 
Q 2353 2234 1838 2234 
L 1294 2234 
L 1294 2753 
L 1863 2753 
Q 2328 2753 2575 2939 
Q 2822 3125 2822 3475 
Q 2822 3834 2567 4026 
Q 2313 4219 1838 4219 
Q 1578 4219 1281 4162 
Q 984 4106 628 3988 
L 628 4550 
Q 988 4650 1302 4700 
Q 1616 4750 1894 4750 
Q 2613 4750 3031 4423 
Q 3450 4097 3450 3541 
Q 3450 3153 3228 2886 
Q 3006 2619 2597 2516 
z
" transform="scale(0.015625)"/>
       </defs>
       <use xlink:href="#DejaVuSans-33"/>
      </g>
     </g>
    </g>
    <g id="xtick_5">
     <g id="line2d_5">
      <g>
       <use xlink:href="#mfb646cbde0" x="333.816347" y="307.584" style="stroke: #000000; stroke-width: 0.8"/>
      </g>
     </g>
     <g id="text_5">
      <!-- 4 -->
      <g transform="translate(330.635097 322.182437) scale(0.1 -0.1)">
       <defs>
        <path id="DejaVuSans-34" d="M 2419 4116 
L 825 1625 
L 2419 1625 
L 2419 4116 
z
M 2253 4666 
L 3047 4666 
L 3047 1625 
L 3713 1625 
L 3713 1100 
L 3047 1100 
L 3047 0 
L 2419 0 
L 2419 1100 
L 313 1100 
L 313 1709 
L 2253 4666 
z
" transform="scale(0.015625)"/>
       </defs>
       <use xlink:href="#DejaVuSans-34"/>
      </g>
     </g>
    </g>
    <g id="xtick_6">
     <g id="line2d_6">
      <g>
       <use xlink:href="#mfb646cbde0" x="398.812252" y="307.584" style="stroke: #000000; stroke-width: 0.8"/>
      </g>
     </g>
     <g id="text_6">
      <!-- 5 -->
      <g transform="translate(395.631002 322.182437) scale(0.1 -0.1)">
       <defs>
        <path id="DejaVuSans-35" d="M 691 4666 
L 3169 4666 
L 3169 4134 
L 1269 4134 
L 1269 2991 
Q 1406 3038 1543 3061 
Q 1681 3084 1819 3084 
Q 2600 3084 3056 2656 
Q 3513 2228 3513 1497 
Q 3513 744 3044 326 
Q 2575 -91 1722 -91 
Q 1428 -91 1123 -41 
Q 819 9 494 109 
L 494 744 
Q 775 591 1075 516 
Q 1375 441 1709 441 
Q 2250 441 2565 725 
Q 2881 1009 2881 1497 
Q 2881 1984 2565 2268 
Q 2250 2553 1709 2553 
Q 1456 2553 1204 2497 
Q 953 2441 691 2322 
L 691 4666 
z
" transform="scale(0.015625)"/>
       </defs>
       <use xlink:href="#DejaVuSans-35"/>
      </g>
     </g>
    </g>
    <g id="text_7">
     <!-- 1e−7 -->
     <g transform="translate(387.462188 334.860562) scale(0.1 -0.1)">
      <defs>
       <path id="DejaVuSans-65" d="M 3597 1894 
L 3597 1613 
L 953 1613 
Q 991 1019 1311 708 
Q 1631 397 2203 397 
Q 2534 397 2845 478 
Q 3156 559 3463 722 
L 3463 178 
Q 3153 47 2828 -22 
Q 2503 -91 2169 -91 
Q 1331 -91 842 396 
Q 353 884 353 1716 
Q 353 2575 817 3079 
Q 1281 3584 2069 3584 
Q 2775 3584 3186 3129 
Q 3597 2675 3597 1894 
z
M 3022 2063 
Q 3016 2534 2758 2815 
Q 2500 3097 2075 3097 
Q 1594 3097 1305 2825 
Q 1016 2553 972 2059 
L 3022 2063 
z
" transform="scale(0.015625)"/>
       <path id="DejaVuSans-2212" d="M 678 2272 
L 4684 2272 
L 4684 1741 
L 678 1741 
L 678 2272 
z
" transform="scale(0.015625)"/>
       <path id="DejaVuSans-37" d="M 525 4666 
L 3525 4666 
L 3525 4397 
L 1831 0 
L 1172 0 
L 2766 4134 
L 525 4134 
L 525 4666 
z
" transform="scale(0.015625)"/>
      </defs>
      <use xlink:href="#DejaVuSans-31"/>
      <use xlink:href="#DejaVuSans-65" transform="translate(63.623047 0)"/>
      <use xlink:href="#DejaVuSans-2212" transform="translate(125.146484 0)"/>
      <use xlink:href="#DejaVuSans-37" transform="translate(208.935547 0)"/>
     </g>
    </g>
   </g>
   <g id="matplotlib.axis_2">
    <g id="ytick_1">
     <g id="line2d_7">
      <defs>
       <path id="mf3d6bb812c" d="M 0 0 
L -3.5 0 
" style="stroke: #000000; stroke-width: 0.8"/>
      </defs>
      <g>
       <use xlink:href="#mf3d6bb812c" x="57.6" y="297.877313" style="stroke: #000000; stroke-width: 0.8"/>
      </g>
     </g>
     <g id="text_8">
      <!-- −40 -->
      <g transform="translate(29.495313 301.676532) scale(0.1 -0.1)">
       <use xlink:href="#DejaVuSans-2212"/>
       <use xlink:href="#DejaVuSans-34" transform="translate(83.789062 0)"/>
       <use xlink:href="#DejaVuSans-30" transform="translate(147.412109 0)"/>
      </g>
     </g>
    </g>
    <g id="ytick_2">
     <g id="line2d_8">
      <g>
       <use xlink:href="#mf3d6bb812c" x="57.6" y="259.647982" style="stroke: #000000; stroke-width: 0.8"/>
      </g>
     </g>
     <g id="text_9">
      <!-- −20 -->
      <g transform="translate(29.495313 263.447201) scale(0.1 -0.1)">
       <use xlink:href="#DejaVuSans-2212"/>
       <use xlink:href="#DejaVuSans-32" transform="translate(83.789062 0)"/>
       <use xlink:href="#DejaVuSans-30" transform="translate(147.412109 0)"/>
      </g>
     </g>
    </g>
    <g id="ytick_3">
     <g id="line2d_9">
      <g>
       <use xlink:href="#mf3d6bb812c" x="57.6" y="221.418651" style="stroke: #000000; stroke-width: 0.8"/>
      </g>
     </g>
     <g id="text_10">
      <!-- 0 -->
      <g transform="translate(44.2375 225.21787) scale(0.1 -0.1)">
       <use xlink:href="#DejaVuSans-30"/>
      </g>
     </g>
    </g>
    <g id="ytick_4">
     <g id="line2d_10">
      <g>
       <use xlink:href="#mf3d6bb812c" x="57.6" y="183.18932" style="stroke: #000000; stroke-width: 0.8"/>
      </g>
     </g>
     <g id="text_11">
      <!-- 20 -->
      <g transform="translate(37.875 186.988539) scale(0.1 -0.1)">
       <use xlink:href="#DejaVuSans-32"/>
       <use xlink:href="#DejaVuSans-30" transform="translate(63.623047 0)"/>
      </g>
     </g>
    </g>
    <g id="ytick_5">
     <g id="line2d_11">
      <g>
       <use xlink:href="#mf3d6bb812c" x="57.6" y="144.959989" style="stroke: #000000; stroke-width: 0.8"/>
      </g>
     </g>
     <g id="text_12">
      <!-- 40 -->
      <g transform="translate(37.875 148.759208) scale(0.1 -0.1)">
       <use xlink:href="#DejaVuSans-34"/>
       <use xlink:href="#DejaVuSans-30" transform="translate(63.623047 0)"/>
      </g>
     </g>
    </g>
    <g id="ytick_6">
     <g id="line2d_12">
      <g>
       <use xlink:href="#mf3d6bb812c" x="57.6" y="106.730658" style="stroke: #000000; stroke-width: 0.8"/>
      </g>
     </g>
     <g id="text_13">
      <!-- 60 -->
      <g transform="translate(37.875 110.529877) scale(0.1 -0.1)">
       <defs>
        <path id="DejaVuSans-36" d="M 2113 2584 
Q 1688 2584 1439 2293 
Q 1191 2003 1191 1497 
Q 1191 994 1439 701 
Q 1688 409 2113 409 
Q 2538 409 2786 701 
Q 3034 994 3034 1497 
Q 3034 2003 2786 2293 
Q 2538 2584 2113 2584 
z
M 3366 4563 
L 3366 3988 
Q 3128 4100 2886 4159 
Q 2644 4219 2406 4219 
Q 1781 4219 1451 3797 
Q 1122 3375 1075 2522 
Q 1259 2794 1537 2939 
Q 1816 3084 2150 3084 
Q 2853 3084 3261 2657 
Q 3669 2231 3669 1497 
Q 3669 778 3244 343 
Q 2819 -91 2113 -91 
Q 1303 -91 875 529 
Q 447 1150 447 2328 
Q 447 3434 972 4092 
Q 1497 4750 2381 4750 
Q 2619 4750 2861 4703 
Q 3103 4656 3366 4563 
z
" transform="scale(0.015625)"/>
       </defs>
       <use xlink:href="#DejaVuSans-36"/>
       <use xlink:href="#DejaVuSans-30" transform="translate(63.623047 0)"/>
      </g>
     </g>
    </g>
    <g id="ytick_7">
     <g id="line2d_13">
      <g>
       <use xlink:href="#mf3d6bb812c" x="57.6" y="68.501327" style="stroke: #000000; stroke-width: 0.8"/>
      </g>
     </g>
     <g id="text_14">
      <!-- 80 -->
      <g transform="translate(37.875 72.300546) scale(0.1 -0.1)">
       <defs>
        <path id="DejaVuSans-38" d="M 2034 2216 
Q 1584 2216 1326 1975 
Q 1069 1734 1069 1313 
Q 1069 891 1326 650 
Q 1584 409 2034 409 
Q 2484 409 2743 651 
Q 3003 894 3003 1313 
Q 3003 1734 2745 1975 
Q 2488 2216 2034 2216 
z
M 1403 2484 
Q 997 2584 770 2862 
Q 544 3141 544 3541 
Q 544 4100 942 4425 
Q 1341 4750 2034 4750 
Q 2731 4750 3128 4425 
Q 3525 4100 3525 3541 
Q 3525 3141 3298 2862 
Q 3072 2584 2669 2484 
Q 3125 2378 3379 2068 
Q 3634 1759 3634 1313 
Q 3634 634 3220 271 
Q 2806 -91 2034 -91 
Q 1263 -91 848 271 
Q 434 634 434 1313 
Q 434 1759 690 2068 
Q 947 2378 1403 2484 
z
M 1172 3481 
Q 1172 3119 1398 2916 
Q 1625 2713 2034 2713 
Q 2441 2713 2670 2916 
Q 2900 3119 2900 3481 
Q 2900 3844 2670 4047 
Q 2441 4250 2034 4250 
Q 1625 4250 1398 4047 
Q 1172 3844 1172 3481 
z
" transform="scale(0.015625)"/>
       </defs>
       <use xlink:href="#DejaVuSans-38"/>
       <use xlink:href="#DejaVuSans-30" transform="translate(63.623047 0)"/>
      </g>
     </g>
    </g>
   </g>
   <g id="line2d_14">
    <path d="M 73.832727 221.418648 
L 74.157707 222.911982 
L 74.482686 222.911982 
L 74.807666 224.405315 
L 75.457625 224.405315 
L 75.782604 222.911982 
L 76.107584 222.911982 
L 76.432563 224.405315 
L 76.757543 222.911982 
L 77.407502 222.911982 
L 77.732482 224.405315 
L 79.0324 224.405315 
L 79.357379 225.898648 
L 79.682359 224.405315 
L 80.982277 224.405315 
L 81.307256 222.911982 
L 81.632236 224.405315 
L 81.957215 222.911982 
L 82.932154 222.911982 
L 83.257133 224.405315 
L 83.907093 224.405315 
L 84.232072 222.911982 
L 84.557052 224.405315 
L 84.882031 219.925315 
L 85.207011 218.431982 
L 85.53199 215.445315 
L 86.181949 204.991982 
L 86.506929 197.525315 
L 86.831908 194.538648 
L 87.156888 194.538648 
L 87.481867 199.018648 
L 87.806847 196.031982 
L 88.131826 190.058648 
L 88.781785 172.138648 
L 89.106765 172.138648 
L 89.431744 175.125315 
L 89.756724 179.605315 
L 90.081704 175.125315 
L 91.056642 146.751982 
L 91.381622 151.231982 
L 91.706601 160.191982 
L 92.031581 164.671982 
L 93.006519 136.298648 
L 93.331499 139.285315 
L 93.656478 143.765315 
L 93.981458 145.258648 
L 94.631417 134.805315 
L 95.281376 137.791982 
L 95.606355 137.791982 
L 95.931335 134.805315 
L 96.256314 127.338648 
L 96.581294 125.845315 
L 96.906274 128.831982 
L 97.231253 139.285315 
L 97.556233 136.298648 
L 98.206192 122.858648 
L 98.531171 121.365315 
L 99.18113 130.325315 
L 99.50611 130.325315 
L 99.831089 125.845315 
L 100.156069 127.338648 
L 100.481048 130.325315 
L 100.806028 131.818648 
L 101.455987 125.845315 
L 101.780966 124.351982 
L 102.105946 124.351982 
L 102.430925 131.818648 
L 102.755905 134.805315 
L 103.080885 131.818648 
L 103.405864 127.338648 
L 103.730844 125.845315 
L 104.705782 134.805315 
L 105.030762 133.311982 
L 105.355741 133.311982 
L 105.680721 131.818648 
L 106.33068 134.805315 
L 106.980639 131.818648 
L 107.305618 131.818648 
L 107.630598 136.298648 
L 108.280557 136.298648 
L 109.255495 131.818648 
L 109.580475 131.818648 
L 109.905455 134.805315 
L 110.230434 134.805315 
L 110.555414 137.791982 
L 110.880393 136.298648 
L 111.205373 136.298648 
L 111.530352 134.805315 
L 111.855332 131.818648 
L 112.180311 133.311982 
L 112.505291 131.818648 
L 112.83027 136.298648 
L 113.15525 134.805315 
L 113.480229 134.805315 
L 113.805209 131.818648 
L 114.130188 131.818648 
L 114.780147 128.831982 
L 115.105127 131.818648 
L 115.430106 131.818648 
L 115.755086 128.831982 
L 116.080066 128.831982 
L 116.405045 130.325315 
L 116.730025 130.325315 
L 117.055004 127.338648 
L 117.704963 124.351982 
L 118.029943 127.338648 
L 118.354922 125.845315 
L 118.679902 127.338648 
L 119.329861 124.351982 
L 119.65484 124.351982 
L 119.97982 121.365315 
L 120.304799 122.858648 
L 120.629779 121.365315 
L 120.954758 124.351982 
L 121.604717 124.351982 
L 121.929697 122.858648 
L 122.254676 119.871982 
L 122.904636 119.871982 
L 123.229615 122.858648 
L 123.879574 122.858648 
L 124.204554 121.365315 
L 125.504472 121.365315 
L 125.829451 122.858648 
L 126.154431 122.858648 
L 126.80439 125.845315 
L 127.129369 128.831982 
L 127.779328 125.845315 
L 128.104308 125.845315 
L 128.429287 128.831982 
L 129.079247 131.818648 
L 129.404226 131.818648 
L 129.729206 134.805315 
L 130.054185 133.311982 
L 130.379165 134.805315 
L 130.704144 137.791982 
L 131.029124 139.285315 
L 131.354103 142.271982 
L 131.679083 143.765315 
L 132.004062 146.751982 
L 132.329042 148.245315 
L 132.654021 148.245315 
L 133.30398 151.231982 
L 133.62896 155.711982 
L 134.278919 158.698648 
L 134.603898 161.685315 
L 135.253857 164.671982 
L 135.578837 167.658648 
L 135.903817 169.151982 
L 136.228796 172.138648 
L 136.878755 175.125315 
L 137.203735 178.111982 
L 137.528714 182.591982 
L 137.853694 182.591982 
L 138.178673 184.085315 
L 138.503653 184.085315 
L 138.828632 188.565315 
L 139.803571 193.045315 
L 140.12855 197.525315 
L 140.45353 197.525315 
L 141.103489 200.511982 
L 141.428468 203.498648 
L 142.078428 203.498648 
L 142.403407 206.485315 
L 143.053366 209.471982 
L 143.378346 212.458648 
L 143.703325 210.965315 
L 144.028305 212.458648 
L 144.678264 212.458648 
L 145.003243 213.951982 
L 145.328223 216.938648 
L 145.978182 216.938648 
L 146.303161 218.431982 
L 146.628141 216.938648 
L 146.95312 218.431982 
L 147.2781 218.431982 
L 147.603079 219.925315 
L 147.928059 219.925315 
L 148.253038 218.431982 
L 148.578018 219.925315 
L 148.902998 218.431982 
L 149.227977 221.418648 
L 149.552957 218.431982 
L 149.877936 216.938648 
L 150.202916 216.938648 
L 150.527895 218.431982 
L 150.852875 218.431982 
L 151.177854 215.445315 
L 151.502834 213.951982 
L 152.152793 213.951982 
L 152.477772 215.445315 
L 152.802752 218.431982 
L 153.452711 221.418648 
L 153.77769 224.405315 
L 154.427649 224.405315 
L 154.752629 225.898648 
L 155.077609 222.911982 
L 156.052547 222.911982 
L 156.702506 219.925315 
L 157.027486 219.925315 
L 158.002424 224.405315 
L 158.652383 224.405315 
L 158.977363 222.911982 
L 159.302342 219.925315 
L 159.627322 222.911982 
L 159.952301 221.418648 
L 160.277281 222.911982 
L 160.60226 221.418648 
L 160.92724 222.911982 
L 161.252219 221.418648 
L 161.577199 222.911982 
L 161.902179 222.911982 
L 162.227158 221.418648 
L 162.877117 221.418648 
L 163.202097 222.911982 
L 163.852056 222.911982 
L 164.177035 224.405315 
L 164.502015 222.911982 
L 164.826994 222.911982 
L 165.151974 221.418648 
L 165.476953 222.911982 
L 165.801933 221.418648 
L 166.451892 224.405315 
L 166.776871 224.405315 
L 167.101851 222.911982 
L 168.726749 222.911982 
L 169.051728 224.405315 
L 169.376708 222.911982 
L 169.701687 222.911982 
L 170.026667 224.405315 
L 170.351646 222.911982 
L 172.626503 222.911982 
L 172.951482 224.405315 
L 173.276462 222.911982 
L 173.601441 222.911982 
L 173.926421 224.405315 
L 174.57638 224.405315 
L 174.90136 222.911982 
L 175.226339 224.405315 
L 175.551319 222.911982 
L 175.876298 222.911982 
L 176.201278 224.405315 
L 176.851237 224.405315 
L 177.176216 221.418648 
L 177.501196 222.911982 
L 178.801114 222.911982 
L 179.126093 224.405315 
L 179.451073 224.405315 
L 179.776052 222.911982 
L 180.101032 222.911982 
L 180.426011 224.405315 
L 180.750991 219.925315 
L 181.075971 218.431982 
L 181.40095 215.445315 
L 182.050909 204.991982 
L 182.375889 197.525315 
L 182.700868 194.538648 
L 183.025848 194.538648 
L 183.350827 196.031982 
L 183.675807 196.031982 
L 184.000786 190.058648 
L 184.650745 172.138648 
L 184.975725 170.645315 
L 185.300704 173.631982 
L 185.625684 179.605315 
L 185.950663 176.618648 
L 186.600622 152.725315 
L 186.925602 148.245315 
L 187.250581 152.725315 
L 187.575561 161.685315 
L 187.900541 163.178648 
L 188.875479 136.298648 
L 189.525438 146.751982 
L 189.850418 146.751982 
L 190.500377 133.311982 
L 190.825356 136.298648 
L 191.150336 136.298648 
L 191.475315 137.791982 
L 192.450254 125.845315 
L 193.100213 137.791982 
L 193.425192 136.298648 
L 194.075152 122.858648 
L 194.400131 124.351982 
L 195.05009 131.818648 
L 195.700049 125.845315 
L 196.674988 130.325315 
L 196.999967 128.831982 
L 197.324947 125.845315 
L 197.649926 124.351982 
L 197.974906 127.338648 
L 198.299885 133.311982 
L 198.624865 134.805315 
L 198.949844 133.311982 
L 199.599803 125.845315 
L 200.249762 131.818648 
L 200.574742 133.311982 
L 201.224701 133.311982 
L 201.549681 131.818648 
L 201.87466 133.311982 
L 202.19964 131.818648 
L 202.524619 133.311982 
L 202.849599 131.818648 
L 203.174578 131.818648 
L 203.499558 134.805315 
L 203.824537 134.805315 
L 204.149517 136.298648 
L 204.799476 133.311982 
L 205.449435 133.311982 
L 205.774414 134.805315 
L 206.099394 134.805315 
L 206.424373 137.791982 
L 207.724292 131.818648 
L 208.049271 131.818648 
L 208.374251 133.311982 
L 208.69923 136.298648 
L 209.02421 136.298648 
L 209.349189 134.805315 
L 209.674169 130.325315 
L 209.999148 131.818648 
L 210.324128 131.818648 
L 210.649107 130.325315 
L 210.974087 131.818648 
L 211.299066 128.831982 
L 211.624046 130.325315 
L 211.949025 128.831982 
L 212.274005 128.831982 
L 212.598984 127.338648 
L 212.923964 127.338648 
L 213.573923 124.351982 
L 213.898903 125.845315 
L 214.223882 124.351982 
L 214.548862 125.845315 
L 215.198821 125.845315 
L 215.5238 122.858648 
L 215.84878 121.365315 
L 216.173759 121.365315 
L 216.498739 119.871982 
L 216.823718 124.351982 
L 217.148698 122.858648 
L 217.473677 122.858648 
L 217.798657 121.365315 
L 218.123636 118.378648 
L 218.448616 119.871982 
L 218.773595 119.871982 
L 219.098575 121.365315 
L 219.423554 121.365315 
L 219.748534 122.858648 
L 220.073514 121.365315 
L 220.398493 122.858648 
L 220.723473 122.858648 
L 221.048452 121.365315 
L 221.373432 122.858648 
L 221.698411 121.365315 
L 222.023391 124.351982 
L 222.67335 124.351982 
L 222.998329 127.338648 
L 223.648288 127.338648 
L 223.973268 125.845315 
L 224.298247 127.338648 
L 224.948206 133.311982 
L 225.273186 133.311982 
L 225.598165 134.805315 
L 225.923145 134.805315 
L 226.898084 139.285315 
L 227.223063 142.271982 
L 227.548043 143.765315 
L 227.873022 146.751982 
L 228.198002 146.751982 
L 228.522981 148.245315 
L 228.847961 151.231982 
L 229.17294 152.725315 
L 229.49792 155.711982 
L 229.822899 157.205315 
L 230.147879 160.191982 
L 230.472858 160.191982 
L 231.122817 166.165315 
L 231.447797 166.165315 
L 232.422735 175.125315 
L 232.747715 175.125315 
L 233.072695 176.618648 
L 233.397674 179.605315 
L 233.722654 181.098648 
L 234.047633 185.578648 
L 234.372613 185.578648 
L 234.697592 188.565315 
L 235.347551 191.551982 
L 235.672531 196.031982 
L 235.99751 196.031982 
L 236.32249 199.018648 
L 236.647469 200.511982 
L 237.297428 200.511982 
L 237.622408 204.991982 
L 237.947387 204.991982 
L 238.272367 206.485315 
L 238.597346 206.485315 
L 238.922326 209.471982 
L 239.897265 213.951982 
L 240.222244 212.458648 
L 240.547224 212.458648 
L 241.522162 216.938648 
L 241.847142 216.938648 
L 242.172121 218.431982 
L 242.497101 216.938648 
L 243.14706 219.925315 
L 243.472039 218.431982 
L 243.797019 218.431982 
L 244.121998 219.925315 
L 244.446978 219.925315 
L 244.771957 218.431982 
L 245.096937 219.925315 
L 245.421916 218.431982 
L 245.746896 218.431982 
L 246.071876 219.925315 
L 246.396855 219.925315 
L 246.721835 218.431982 
L 247.046814 215.445315 
L 247.371794 216.938648 
L 247.696773 213.951982 
L 248.021753 216.938648 
L 248.346732 216.938648 
L 248.996691 219.925315 
L 249.321671 222.911982 
L 249.64665 224.405315 
L 251.271548 224.405315 
L 251.596527 225.898648 
L 252.896446 219.925315 
L 253.221425 222.911982 
L 254.196364 222.911982 
L 254.521343 224.405315 
L 255.496282 224.405315 
L 255.821261 222.911982 
L 256.146241 222.911982 
L 256.47122 221.418648 
L 256.7962 222.911982 
L 257.121179 221.418648 
L 257.446159 222.911982 
L 257.771138 222.911982 
L 258.096118 219.925315 
L 258.421097 221.418648 
L 258.746077 221.418648 
L 259.071057 222.911982 
L 259.396036 222.911982 
L 259.721016 224.405315 
L 260.370975 224.405315 
L 260.695954 222.911982 
L 261.670893 222.911982 
L 261.995872 224.405315 
L 262.970811 224.405315 
L 263.29579 221.418648 
L 263.62077 222.911982 
L 263.945749 222.911982 
L 264.270729 224.405315 
L 264.595708 222.911982 
L 265.245667 222.911982 
L 265.570647 221.418648 
L 265.895627 222.911982 
L 266.220606 221.418648 
L 266.545586 222.911982 
L 266.870565 222.911982 
L 267.195545 224.405315 
L 267.845504 224.405315 
L 268.170483 222.911982 
L 268.495463 222.911982 
L 268.820442 224.405315 
L 269.145422 224.405315 
L 269.470401 222.911982 
L 270.12036 222.911982 
L 270.770319 225.898648 
L 271.095299 224.405315 
L 273.370156 224.405315 
L 273.695135 222.911982 
L 274.020115 224.405315 
L 274.345094 222.911982 
L 274.670074 224.405315 
L 274.995053 222.911982 
L 275.320033 222.911982 
L 275.969992 225.898648 
L 276.294971 222.911982 
L 276.619951 221.418648 
L 277.26991 215.445315 
L 277.919869 206.485315 
L 278.244848 199.018648 
L 278.569828 194.538648 
L 278.894808 193.045315 
L 279.219787 197.525315 
L 279.544767 196.031982 
L 279.869746 191.551982 
L 280.519705 173.631982 
L 280.844685 172.138648 
L 281.169664 175.125315 
L 281.494644 179.605315 
L 281.819623 176.618648 
L 282.794562 148.245315 
L 283.444521 163.178648 
L 283.7695 166.165315 
L 284.744439 137.791982 
L 285.069419 139.285315 
L 285.719378 146.751982 
L 286.369337 136.298648 
L 286.694316 136.298648 
L 287.344275 139.285315 
L 287.994234 127.338648 
L 288.319214 127.338648 
L 288.969173 137.791982 
L 289.294152 136.298648 
L 289.619132 131.818648 
L 289.944111 122.858648 
L 290.269091 122.858648 
L 290.91905 130.325315 
L 291.244029 130.325315 
L 291.569009 127.338648 
L 291.893989 127.338648 
L 292.218968 130.325315 
L 292.543948 131.818648 
L 293.193907 125.845315 
L 293.518886 125.845315 
L 293.843866 127.338648 
L 294.168845 133.311982 
L 294.493825 134.805315 
L 294.818804 133.311982 
L 295.143784 127.338648 
L 295.468763 127.338648 
L 296.118722 130.325315 
L 296.443702 133.311982 
L 297.41864 133.311982 
L 297.74362 134.805315 
L 298.0686 133.311982 
L 298.393579 133.311982 
L 298.718559 131.818648 
L 299.043538 133.311982 
L 299.368518 136.298648 
L 299.693497 136.298648 
L 300.018477 139.285315 
L 300.343456 134.805315 
L 300.668436 133.311982 
L 301.318395 133.311982 
L 301.968354 136.298648 
L 302.943292 136.298648 
L 303.593251 133.311982 
L 303.918231 134.805315 
L 304.24321 133.311982 
L 304.56819 133.311982 
L 305.218149 136.298648 
L 305.543129 130.325315 
L 305.868108 130.325315 
L 306.193088 128.831982 
L 306.843047 131.818648 
L 307.168026 130.325315 
L 307.493006 130.325315 
L 307.817985 128.831982 
L 308.142965 130.325315 
L 308.467944 128.831982 
L 308.792924 128.831982 
L 309.117903 127.338648 
L 309.442883 127.338648 
L 310.092842 124.351982 
L 310.417821 127.338648 
L 311.39276 122.858648 
L 311.71774 122.858648 
L 312.042719 121.365315 
L 312.367699 121.365315 
L 312.692678 122.858648 
L 313.342637 122.858648 
L 313.667617 119.871982 
L 313.992596 121.365315 
L 314.317576 119.871982 
L 314.967535 122.858648 
L 315.292514 121.365315 
L 315.617494 124.351982 
L 315.942473 121.365315 
L 316.917412 121.365315 
L 317.567371 124.351982 
L 317.892351 124.351982 
L 318.21733 122.858648 
L 318.54231 125.845315 
L 318.867289 125.845315 
L 319.192269 128.831982 
L 319.517248 127.338648 
L 320.167207 127.338648 
L 320.817166 133.311982 
L 321.467125 133.311982 
L 322.442064 137.791982 
L 323.092023 143.765315 
L 323.417002 143.765315 
L 325.0419 151.231982 
L 325.36688 154.218648 
L 325.691859 155.711982 
L 326.016839 161.685315 
L 326.341818 161.685315 
L 327.316757 166.165315 
L 327.966716 172.138648 
L 328.616675 175.125315 
L 328.941654 178.111982 
L 329.266634 179.605315 
L 329.591613 182.591982 
L 329.916593 184.085315 
L 330.241572 187.071982 
L 331.216511 191.551982 
L 331.541491 194.538648 
L 331.86647 196.031982 
L 332.19145 196.031982 
L 332.516429 199.018648 
L 333.491368 203.498648 
L 333.816347 203.498648 
L 334.141327 204.991982 
L 334.466306 207.978648 
L 334.791286 209.471982 
L 335.116265 209.471982 
L 335.441245 213.951982 
L 335.766224 212.458648 
L 336.091204 212.458648 
L 336.416183 213.951982 
L 336.741163 213.951982 
L 337.066143 215.445315 
L 337.391122 215.445315 
L 338.041081 218.431982 
L 338.366061 218.431982 
L 338.69104 219.925315 
L 339.01602 218.431982 
L 339.990958 218.431982 
L 340.315938 219.925315 
L 340.640917 218.431982 
L 340.965897 218.431982 
L 341.290876 216.938648 
L 341.615856 218.431982 
L 342.265815 218.431982 
L 343.240753 213.951982 
L 343.565733 213.951982 
L 343.890713 215.445315 
L 344.215692 215.445315 
L 344.540672 218.431982 
L 344.865651 218.431982 
L 345.51561 224.405315 
L 345.84059 225.898648 
L 346.165569 225.898648 
L 346.490549 224.405315 
L 347.465487 224.405315 
L 347.790467 222.911982 
L 348.115446 222.911982 
L 348.440426 221.418648 
L 348.765405 221.418648 
L 349.090385 222.911982 
L 349.415364 222.911982 
L 349.740344 224.405315 
L 350.065324 224.405315 
L 350.390303 222.911982 
L 350.715283 224.405315 
L 351.365242 224.405315 
L 351.690221 222.911982 
L 352.015201 222.911982 
L 352.34018 221.418648 
L 352.990139 221.418648 
L 353.315119 222.911982 
L 353.640098 221.418648 
L 353.965078 221.418648 
L 354.290057 222.911982 
L 354.615037 221.418648 
L 354.940016 221.418648 
L 355.264996 222.911982 
L 355.589975 222.911982 
L 355.914955 225.898648 
L 356.889894 221.418648 
L 357.214873 221.418648 
L 357.539853 224.405315 
L 357.864832 222.911982 
L 358.189812 222.911982 
L 358.514791 224.405315 
L 358.839771 222.911982 
L 359.16475 222.911982 
L 359.48973 224.405315 
L 359.814709 222.911982 
L 360.139689 224.405315 
L 360.464668 222.911982 
L 360.789648 222.911982 
L 361.114627 224.405315 
L 361.439607 224.405315 
L 362.089566 221.418648 
L 362.414545 224.405315 
L 363.064505 224.405315 
L 363.389484 222.911982 
L 363.714464 224.405315 
L 365.98932 224.405315 
L 366.3143 225.898648 
L 366.639279 224.405315 
L 366.964259 225.898648 
L 367.289238 222.911982 
L 367.614218 225.898648 
L 367.939197 222.911982 
L 368.589156 222.911982 
L 368.914136 224.405315 
L 370.539034 224.405315 
L 370.864013 222.911982 
L 371.188993 225.898648 
L 371.838952 225.898648 
L 372.488911 219.925315 
L 372.81389 219.925315 
L 373.13887 213.951982 
L 373.463849 212.458648 
L 374.438788 193.045315 
L 374.763767 193.045315 
L 375.088747 196.031982 
L 375.413726 196.031982 
L 375.738706 191.551982 
L 376.388665 173.631982 
L 376.713645 172.138648 
L 377.363604 179.605315 
L 377.688583 175.125315 
L 378.013563 167.658648 
L 378.338542 154.218648 
L 378.663522 148.245315 
L 378.988501 152.725315 
L 379.313481 161.685315 
L 379.63846 163.178648 
L 379.96344 155.711982 
L 380.613399 134.805315 
L 380.938378 137.791982 
L 381.588337 148.245315 
L 382.238296 134.805315 
L 382.563276 133.311982 
L 382.888256 136.298648 
L 383.213235 140.778648 
L 383.863194 125.845315 
L 384.188174 124.351982 
L 384.838133 136.298648 
L 385.163112 137.791982 
L 385.813071 122.858648 
L 386.138051 122.858648 
L 386.78801 130.325315 
L 387.112989 131.818648 
L 387.437969 127.338648 
L 387.762948 127.338648 
L 388.087928 128.831982 
L 388.412907 133.311982 
L 389.062867 124.351982 
L 389.387846 122.858648 
L 389.712826 125.845315 
L 390.037805 133.311982 
L 390.362785 134.805315 
L 390.687764 133.311982 
L 391.012744 127.338648 
L 391.337723 125.845315 
L 391.662703 127.338648 
L 392.312662 134.805315 
L 392.637641 131.818648 
L 393.2876 131.818648 
L 393.61258 134.805315 
L 394.262539 131.818648 
L 394.912498 131.818648 
L 395.887437 136.298648 
L 396.212416 134.805315 
L 396.537396 136.298648 
L 396.862375 133.311982 
L 397.187355 133.311982 
L 397.512334 134.805315 
L 397.837314 134.805315 
L 398.162293 136.298648 
L 398.487273 134.805315 
L 398.487273 134.805315 
" clip-path="url(#p711d4c9ae7)" style="fill: none; stroke: #1f77b4; stroke-width: 1.5; stroke-linecap: square"/>
   </g>
   <g id="line2d_15">
    <path d="M 73.832727 130.325315 
L 74.482686 130.325315 
L 75.132645 127.338648 
L 76.107584 127.338648 
L 76.432563 124.351982 
L 76.757543 125.845315 
L 77.082523 124.351982 
L 77.407502 121.365315 
L 77.732482 121.365315 
L 78.057461 122.858648 
L 78.382441 121.365315 
L 79.357379 121.365315 
L 79.682359 119.871982 
L 80.007338 119.871982 
L 80.332318 121.365315 
L 80.657297 119.871982 
L 80.982277 121.365315 
L 82.932154 121.365315 
L 83.582113 124.351982 
L 83.907093 122.858648 
L 84.232072 124.351982 
L 84.557052 124.351982 
L 84.882031 127.338648 
L 85.53199 127.338648 
L 85.85697 128.831982 
L 86.181949 131.818648 
L 86.506929 131.818648 
L 87.156888 134.805315 
L 87.481867 137.791982 
L 88.131826 140.778648 
L 88.456806 143.765315 
L 88.781785 145.258648 
L 89.106765 145.258648 
L 89.431744 146.751982 
L 90.081704 154.218648 
L 91.056642 158.698648 
L 91.381622 163.178648 
L 92.031581 166.165315 
L 92.68154 173.631982 
L 93.006519 173.631982 
L 93.981458 182.591982 
L 94.306437 187.071982 
L 94.631417 187.071982 
L 94.956396 190.058648 
L 95.281376 191.551982 
L 95.606355 194.538648 
L 95.931335 196.031982 
L 96.906274 204.991982 
L 97.881212 204.991982 
L 98.206192 210.965315 
L 98.531171 213.951982 
L 98.856151 213.951982 
L 99.18113 215.445315 
L 99.50611 213.951982 
L 99.831089 213.951982 
L 100.806028 222.911982 
L 102.105946 222.911982 
L 102.755905 225.898648 
L 103.405864 225.898648 
L 103.730844 224.405315 
L 104.055823 225.898648 
L 104.380803 225.898648 
L 104.705782 222.911982 
L 105.680721 222.911982 
L 106.0057 221.418648 
L 106.33068 221.418648 
L 106.655659 219.925315 
L 106.980639 219.925315 
L 107.305618 218.431982 
L 108.930516 218.431982 
L 109.255495 221.418648 
L 109.580475 222.911982 
L 109.905455 222.911982 
L 110.230434 219.925315 
L 111.205373 224.405315 
L 111.530352 224.405315 
L 111.855332 222.911982 
L 112.180311 224.405315 
L 112.505291 224.405315 
L 112.83027 221.418648 
L 113.805209 221.418648 
L 114.455168 224.405315 
L 114.780147 224.405315 
L 115.105127 222.911982 
L 115.430106 222.911982 
L 115.755086 224.405315 
L 116.405045 224.405315 
L 116.730025 222.911982 
L 119.65484 222.911982 
L 119.97982 224.405315 
L 120.304799 222.911982 
L 121.279738 222.911982 
L 121.604717 224.405315 
L 122.254676 224.405315 
L 122.579656 225.898648 
L 123.229615 222.911982 
L 123.554595 222.911982 
L 123.879574 224.405315 
L 124.204554 221.418648 
L 124.854513 224.405315 
L 125.179492 224.405315 
L 125.504472 222.911982 
L 126.47941 222.911982 
L 127.129369 225.898648 
L 127.454349 224.405315 
L 128.104308 224.405315 
L 128.429287 222.911982 
L 128.754267 224.405315 
L 129.079247 222.911982 
L 129.404226 222.911982 
L 130.054185 225.898648 
L 130.379165 222.911982 
L 131.029124 225.898648 
L 131.354103 225.898648 
L 131.679083 224.405315 
L 132.004062 225.898648 
L 132.329042 222.911982 
L 132.654021 224.405315 
L 134.278919 224.405315 
L 134.603898 222.911982 
L 134.928878 222.911982 
L 135.253857 224.405315 
L 135.578837 227.391982 
L 135.903817 222.911982 
L 136.228796 224.405315 
L 136.553776 224.405315 
L 137.203735 221.418648 
L 137.528714 218.431982 
L 137.853694 212.458648 
L 138.178673 210.965315 
L 138.503653 207.978648 
L 138.828632 203.498648 
L 139.153612 202.005315 
L 139.478591 199.018648 
L 140.45353 182.591982 
L 140.778509 178.111982 
L 141.103489 178.111982 
L 141.428468 175.125315 
L 141.753448 173.631982 
L 142.078428 170.645315 
L 142.403407 163.178648 
L 143.053366 155.711982 
L 143.703325 152.725315 
L 144.028305 146.751982 
L 145.003243 142.271982 
L 145.328223 137.791982 
L 145.653202 137.791982 
L 145.978182 131.818648 
L 146.303161 128.831982 
L 146.95312 131.818648 
L 147.2781 131.818648 
L 147.603079 128.831982 
L 148.253038 119.871982 
L 148.902998 122.858648 
L 149.227977 122.858648 
L 149.552957 124.351982 
L 149.877936 122.858648 
L 150.202916 119.871982 
L 150.852875 119.871982 
L 151.177854 121.365315 
L 151.502834 119.871982 
L 151.827813 119.871982 
L 152.477772 122.858648 
L 152.802752 122.858648 
L 153.452711 119.871982 
L 153.77769 119.871982 
L 154.10267 122.858648 
L 154.427649 124.351982 
L 154.752629 127.338648 
L 155.077609 127.338648 
L 155.402588 124.351982 
L 155.727568 125.845315 
L 156.052547 125.845315 
L 156.377527 127.338648 
L 156.702506 130.325315 
L 157.352465 130.325315 
L 157.677445 131.818648 
L 158.002424 130.325315 
L 158.327404 131.818648 
L 158.652383 131.818648 
L 158.977363 134.805315 
L 159.302342 133.311982 
L 159.627322 136.298648 
L 160.277281 139.285315 
L 160.60226 134.805315 
L 160.92724 134.805315 
L 161.252219 136.298648 
L 161.577199 139.285315 
L 162.227158 139.285315 
L 162.552138 137.791982 
L 162.877117 137.791982 
L 163.202097 136.298648 
L 163.527076 137.791982 
L 163.852056 137.791982 
L 164.177035 139.285315 
L 164.502015 139.285315 
L 164.826994 137.791982 
L 165.151974 137.791982 
L 165.476953 139.285315 
L 165.801933 136.298648 
L 166.126912 136.298648 
L 166.451892 137.791982 
L 166.776871 137.791982 
L 167.101851 136.298648 
L 167.42683 133.311982 
L 167.75181 134.805315 
L 168.07679 133.311982 
L 168.726749 133.311982 
L 169.051728 131.818648 
L 169.701687 131.818648 
L 170.351646 128.831982 
L 170.676626 130.325315 
L 171.001605 127.338648 
L 171.326585 125.845315 
L 171.651564 127.338648 
L 171.976544 127.338648 
L 172.626503 124.351982 
L 172.951482 124.351982 
L 173.276462 122.858648 
L 173.926421 122.858648 
L 174.2514 121.365315 
L 174.57638 122.858648 
L 174.90136 122.858648 
L 175.551319 119.871982 
L 175.876298 121.365315 
L 176.201278 119.871982 
L 177.176216 119.871982 
L 177.501196 118.378648 
L 177.826175 119.871982 
L 178.476134 119.871982 
L 178.801114 122.858648 
L 179.451073 122.858648 
L 179.776052 124.351982 
L 180.426011 124.351982 
L 181.075971 127.338648 
L 181.40095 127.338648 
L 182.050909 130.325315 
L 182.375889 133.311982 
L 182.700868 134.805315 
L 183.025848 134.805315 
L 183.675807 137.791982 
L 184.325766 143.765315 
L 184.975725 146.751982 
L 185.300704 149.738648 
L 185.625684 149.738648 
L 185.950663 154.218648 
L 186.275643 155.711982 
L 186.600622 155.711982 
L 187.250581 163.178648 
L 187.575561 164.671982 
L 188.5505 173.631982 
L 189.200459 176.618648 
L 189.525438 179.605315 
L 190.175397 187.071982 
L 190.825356 190.058648 
L 191.150336 193.045315 
L 192.125274 197.525315 
L 192.775233 204.991982 
L 193.425192 204.991982 
L 193.750172 207.978648 
L 194.075152 209.471982 
L 194.400131 213.951982 
L 194.725111 213.951982 
L 195.05009 215.445315 
L 195.700049 215.445315 
L 196.025029 216.938648 
L 196.350008 221.418648 
L 196.674988 222.911982 
L 196.999967 222.911982 
L 197.324947 221.418648 
L 197.649926 221.418648 
L 197.974906 222.911982 
L 198.299885 225.898648 
L 199.924783 225.898648 
L 200.249762 224.405315 
L 200.899722 224.405315 
L 201.224701 222.911982 
L 201.87466 222.911982 
L 202.524619 219.925315 
L 204.149517 219.925315 
L 204.474496 218.431982 
L 204.799476 219.925315 
L 205.124455 219.925315 
L 205.449435 222.911982 
L 206.749353 222.911982 
L 207.074333 224.405315 
L 207.724292 224.405315 
L 208.049271 225.898648 
L 208.374251 222.911982 
L 208.69923 222.911982 
L 209.02421 219.925315 
L 209.999148 224.405315 
L 210.324128 224.405315 
L 210.649107 222.911982 
L 211.299066 222.911982 
L 211.624046 224.405315 
L 211.949025 224.405315 
L 212.274005 225.898648 
L 212.598984 222.911982 
L 212.923964 221.418648 
L 213.248943 222.911982 
L 213.573923 222.911982 
L 213.898903 224.405315 
L 214.223882 222.911982 
L 214.548862 222.911982 
L 214.873841 221.418648 
L 215.198821 222.911982 
L 216.498739 222.911982 
L 216.823718 224.405315 
L 217.148698 222.911982 
L 218.448616 222.911982 
L 218.773595 225.898648 
L 219.098575 225.898648 
L 219.423554 222.911982 
L 219.748534 222.911982 
L 220.073514 224.405315 
L 220.398493 224.405315 
L 220.723473 222.911982 
L 221.048452 222.911982 
L 221.373432 224.405315 
L 221.698411 222.911982 
L 222.34837 222.911982 
L 222.67335 225.898648 
L 222.998329 224.405315 
L 223.323309 225.898648 
L 223.648288 224.405315 
L 223.973268 224.405315 
L 224.298247 222.911982 
L 224.623227 222.911982 
L 224.948206 224.405315 
L 225.598165 224.405315 
L 225.923145 222.911982 
L 226.248124 224.405315 
L 227.873022 224.405315 
L 228.198002 225.898648 
L 228.522981 222.911982 
L 228.847961 224.405315 
L 229.17294 222.911982 
L 230.147879 222.911982 
L 230.797838 225.898648 
L 231.122817 225.898648 
L 231.447797 224.405315 
L 231.772776 225.898648 
L 232.097756 224.405315 
L 232.747715 224.405315 
L 233.072695 221.418648 
L 234.047633 209.471982 
L 234.372613 207.978648 
L 235.022572 202.005315 
L 235.99751 187.071982 
L 236.32249 181.098648 
L 236.647469 179.605315 
L 236.972449 179.605315 
L 237.622408 173.631982 
L 238.272367 163.178648 
L 238.597346 157.205315 
L 239.247305 154.218648 
L 239.572285 151.231982 
L 239.897265 149.738648 
L 240.222244 145.258648 
L 240.547224 143.765315 
L 240.872203 140.778648 
L 241.197183 140.778648 
L 241.847142 130.325315 
L 242.172121 130.325315 
L 242.497101 128.831982 
L 242.82208 131.818648 
L 243.14706 131.818648 
L 243.472039 128.831982 
L 243.797019 122.858648 
L 244.121998 119.871982 
L 244.446978 119.871982 
L 244.771957 122.858648 
L 245.096937 124.351982 
L 245.421916 122.858648 
L 245.746896 122.858648 
L 246.071876 119.871982 
L 247.371794 119.871982 
L 247.696773 121.365315 
L 248.021753 119.871982 
L 248.346732 122.858648 
L 248.671712 122.858648 
L 248.996691 121.365315 
L 249.321671 118.378648 
L 249.97163 124.351982 
L 250.296609 125.845315 
L 250.946568 125.845315 
L 251.271548 124.351982 
L 251.596527 124.351982 
L 252.246486 127.338648 
L 252.571466 131.818648 
L 253.221425 128.831982 
L 253.546405 130.325315 
L 254.521343 130.325315 
L 255.171302 136.298648 
L 255.496282 134.805315 
L 255.821261 134.805315 
L 256.146241 136.298648 
L 256.47122 136.298648 
L 256.7962 134.805315 
L 257.121179 137.791982 
L 257.446159 137.791982 
L 257.771138 139.285315 
L 258.096118 139.285315 
L 258.421097 137.791982 
L 258.746077 139.285315 
L 259.396036 139.285315 
L 259.721016 137.791982 
L 260.045995 139.285315 
L 260.695954 139.285315 
L 261.020934 137.791982 
L 261.670893 137.791982 
L 261.995872 136.298648 
L 263.29579 136.298648 
L 263.62077 133.311982 
L 263.945749 134.805315 
L 264.595708 131.818648 
L 265.570647 131.818648 
L 266.220606 128.831982 
L 266.545586 128.831982 
L 266.870565 127.338648 
L 267.195545 127.338648 
L 267.520524 125.845315 
L 268.170483 125.845315 
L 268.495463 124.351982 
L 269.470401 124.351982 
L 269.795381 121.365315 
L 270.12036 121.365315 
L 270.44534 122.858648 
L 270.770319 122.858648 
L 271.420278 119.871982 
L 273.045176 119.871982 
L 273.370156 121.365315 
L 273.695135 119.871982 
L 274.020115 119.871982 
L 274.670074 122.858648 
L 274.995053 122.858648 
L 275.320033 121.365315 
L 275.645012 124.351982 
L 275.969992 124.351982 
L 276.294971 125.845315 
L 276.94493 125.845315 
L 277.26991 128.831982 
L 277.594889 128.831982 
L 278.244848 131.818648 
L 278.569828 134.805315 
L 278.894808 133.311982 
L 279.869746 142.271982 
L 280.194726 142.271982 
L 280.519705 145.258648 
L 280.844685 146.751982 
L 281.169664 149.738648 
L 281.494644 151.231982 
L 282.144603 157.205315 
L 282.469582 157.205315 
L 282.794562 158.698648 
L 283.119541 163.178648 
L 283.444521 164.671982 
L 284.09448 170.645315 
L 284.419459 172.138648 
L 284.744439 175.125315 
L 285.394398 178.111982 
L 285.719378 181.098648 
L 286.369337 188.565315 
L 287.344275 193.045315 
L 287.994234 199.018648 
L 288.319214 200.511982 
L 288.644193 203.498648 
L 289.619132 207.978648 
L 290.269091 213.951982 
L 291.244029 213.951982 
L 291.893989 216.938648 
L 292.543948 222.911982 
L 292.868927 222.911982 
L 293.193907 221.418648 
L 293.518886 221.418648 
L 294.168845 224.405315 
L 294.818804 224.405315 
L 295.143784 225.898648 
L 295.468763 224.405315 
L 295.793743 225.898648 
L 296.768681 225.898648 
L 297.74362 221.418648 
L 298.0686 221.418648 
L 298.393579 219.925315 
L 299.693497 219.925315 
L 300.018477 218.431982 
L 300.668436 218.431982 
L 300.993415 219.925315 
L 301.318395 222.911982 
L 301.968354 222.911982 
L 302.293333 221.418648 
L 302.943292 224.405315 
L 303.268272 224.405315 
L 303.593251 225.898648 
L 303.918231 224.405315 
L 304.24321 224.405315 
L 304.89317 221.418648 
L 305.218149 221.418648 
L 305.868108 224.405315 
L 306.193088 224.405315 
L 306.843047 221.418648 
L 307.168026 222.911982 
L 307.493006 222.911982 
L 308.142965 225.898648 
L 308.467944 222.911982 
L 308.792924 221.418648 
L 309.442883 221.418648 
L 310.092842 224.405315 
L 310.417821 222.911982 
L 311.71774 222.911982 
L 312.367699 225.898648 
L 313.017658 222.911982 
L 313.667617 222.911982 
L 313.992596 224.405315 
L 314.317576 222.911982 
L 314.642555 222.911982 
L 314.967535 224.405315 
L 315.292514 222.911982 
L 316.592432 222.911982 
L 316.917412 224.405315 
L 317.567371 224.405315 
L 317.892351 222.911982 
L 318.54231 222.911982 
L 318.867289 225.898648 
L 319.517248 225.898648 
L 320.167207 222.911982 
L 321.142146 222.911982 
L 321.467125 224.405315 
L 321.792105 222.911982 
L 322.117084 222.911982 
L 322.442064 224.405315 
L 323.417002 224.405315 
L 323.741982 222.911982 
L 324.066962 222.911982 
L 324.391941 224.405315 
L 325.691859 224.405315 
L 326.016839 222.911982 
L 326.666798 225.898648 
L 326.991777 222.911982 
L 327.641736 225.898648 
L 328.291695 225.898648 
L 328.616675 222.911982 
L 328.941654 221.418648 
L 329.916593 209.471982 
L 330.241572 206.485315 
L 330.566552 204.991982 
L 332.516429 178.111982 
L 332.841409 178.111982 
L 333.166388 176.618648 
L 333.491368 173.631982 
L 334.141327 163.178648 
L 334.791286 155.711982 
L 335.116265 152.725315 
L 335.766224 149.738648 
L 336.741163 140.778648 
L 337.066143 139.285315 
L 337.716102 130.325315 
L 338.041081 128.831982 
L 338.366061 128.831982 
L 338.69104 131.818648 
L 339.01602 130.325315 
L 339.340999 127.338648 
L 339.665979 121.365315 
L 340.640917 121.365315 
L 340.965897 124.351982 
L 341.290876 122.858648 
L 341.615856 119.871982 
L 342.265815 119.871982 
L 342.590794 118.378648 
L 342.915774 118.378648 
L 343.240753 119.871982 
L 343.565733 119.871982 
L 343.890713 121.365315 
L 344.865651 121.365315 
L 345.190631 119.871982 
L 346.490549 125.845315 
L 346.815528 124.351982 
L 347.140508 125.845315 
L 347.465487 124.351982 
L 347.790467 125.845315 
L 348.115446 125.845315 
L 348.440426 130.325315 
L 349.090385 130.325315 
L 349.415364 128.831982 
L 349.740344 130.325315 
L 350.065324 130.325315 
L 350.390303 133.311982 
L 350.715283 134.805315 
L 351.040262 134.805315 
L 351.365242 137.791982 
L 352.015201 134.805315 
L 352.990139 134.805315 
L 353.315119 137.791982 
L 353.640098 139.285315 
L 353.965078 137.791982 
L 354.290057 137.791982 
L 354.615037 136.298648 
L 354.940016 137.791982 
L 356.564914 137.791982 
L 356.889894 136.298648 
L 357.214873 136.298648 
L 357.539853 137.791982 
L 357.864832 137.791982 
L 358.189812 136.298648 
L 358.514791 136.298648 
L 358.839771 134.805315 
L 359.48973 134.805315 
L 360.139689 131.818648 
L 360.464668 133.311982 
L 361.439607 128.831982 
L 361.764586 130.325315 
L 362.089566 130.325315 
L 362.739525 127.338648 
L 363.064505 127.338648 
L 363.389484 125.845315 
L 364.364423 125.845315 
L 364.689402 122.858648 
L 365.014382 121.365315 
L 366.3143 121.365315 
L 366.639279 119.871982 
L 367.289238 119.871982 
L 367.614218 118.378648 
L 368.264177 121.365315 
L 368.914136 118.378648 
L 369.239115 119.871982 
L 370.214054 119.871982 
L 370.539034 121.365315 
L 370.864013 121.365315 
L 371.188993 122.858648 
L 371.838952 122.858648 
L 372.488911 125.845315 
L 372.81389 125.845315 
L 373.13887 127.338648 
L 373.463849 130.325315 
L 373.788829 130.325315 
L 374.438788 133.311982 
L 374.763767 136.298648 
L 375.088747 136.298648 
L 375.413726 137.791982 
L 375.738706 140.778648 
L 376.388665 143.765315 
L 376.713645 146.751982 
L 377.038624 146.751982 
L 377.363604 151.231982 
L 378.013563 154.218648 
L 378.338542 157.205315 
L 378.663522 161.685315 
L 378.988501 161.685315 
L 380.288419 173.631982 
L 380.938378 176.618648 
L 381.913317 185.578648 
L 382.238296 187.071982 
L 382.563276 190.058648 
L 383.538215 194.538648 
L 384.838133 206.485315 
L 385.488092 206.485315 
L 385.813071 207.978648 
L 386.46303 215.445315 
L 386.78801 215.445315 
L 387.112989 213.951982 
L 387.762948 216.938648 
L 388.087928 221.418648 
L 388.412907 222.911982 
L 389.062867 222.911982 
L 389.387846 221.418648 
L 389.712826 222.911982 
L 390.037805 225.898648 
L 390.362785 225.898648 
L 390.687764 227.391982 
L 391.012744 224.405315 
L 391.337723 225.898648 
L 391.987682 225.898648 
L 392.637641 222.911982 
L 392.962621 222.911982 
L 393.2876 221.418648 
L 393.937559 221.418648 
L 394.587518 218.431982 
L 394.912498 218.431982 
L 395.237477 219.925315 
L 395.562457 219.925315 
L 395.887437 218.431982 
L 396.212416 219.925315 
L 396.537396 219.925315 
L 396.862375 221.418648 
L 397.187355 221.418648 
L 397.512334 222.911982 
L 397.837314 221.418648 
L 398.162293 222.911982 
L 398.487273 222.911982 
L 398.487273 222.911982 
" clip-path="url(#p711d4c9ae7)" style="fill: none; stroke: #ff7f0e; stroke-width: 1.5; stroke-linecap: square"/>
   </g>
   <g id="line2d_16">
    <path d="M 73.832727 125.248 
L 74.157707 134.208 
L 74.807666 140.181333 
L 75.132645 146.154667 
L 75.457625 149.141333 
L 76.432563 167.061333 
L 76.757543 170.048 
L 77.082523 179.008 
L 77.407502 181.994667 
L 77.732482 187.968 
L 78.057461 196.928 
L 78.382441 196.928 
L 78.70742 199.914667 
L 79.0324 205.888 
L 79.357379 214.848 
L 79.682359 217.834667 
L 80.007338 217.834667 
L 80.332318 226.794667 
L 80.657297 229.781333 
L 80.982277 235.754667 
L 81.307256 238.741333 
L 81.632236 244.714667 
L 81.957215 247.701333 
L 82.282195 256.661333 
L 82.607174 250.688 
L 83.257133 262.634667 
L 83.582113 262.634667 
L 83.907093 265.621333 
L 84.232072 271.594667 
L 84.882031 277.568 
L 85.207011 274.581333 
L 85.53199 283.541333 
L 85.85697 283.541333 
L 86.181949 286.528 
L 86.831908 286.528 
L 87.481867 292.501333 
L 87.806847 286.528 
L 88.456806 292.501333 
L 88.781785 289.514667 
L 89.106765 289.514667 
L 89.431744 292.501333 
L 90.081704 292.501333 
L 90.406683 286.528 
L 90.731663 289.514667 
L 91.056642 286.528 
L 91.706601 286.528 
L 92.35656 280.554667 
L 92.68154 280.554667 
L 93.006519 274.581333 
L 93.656478 274.581333 
L 94.306437 262.634667 
L 94.956396 262.634667 
L 95.281376 259.648 
L 95.606355 250.688 
L 95.931335 250.688 
L 96.256314 244.714667 
L 96.581294 244.714667 
L 96.906274 238.741333 
L 97.881212 229.781333 
L 98.206192 217.834667 
L 98.531171 211.861333 
L 98.856151 214.848 
L 99.18113 208.874667 
L 99.50611 199.914667 
L 99.831089 199.914667 
L 100.156069 193.941333 
L 100.481048 190.954667 
L 100.806028 179.008 
L 101.131007 179.008 
L 101.455987 176.021333 
L 101.780966 170.048 
L 102.105946 167.061333 
L 102.755905 155.114667 
L 103.080885 155.114667 
L 103.405864 146.154667 
L 104.055823 140.181333 
L 104.705782 125.248 
L 105.355741 125.248 
L 106.0057 113.301333 
L 106.33068 110.314667 
L 106.655659 101.354667 
L 106.980639 101.354667 
L 107.305618 98.368 
L 107.630598 98.368 
L 107.955577 89.408 
L 108.280557 92.394667 
L 108.605536 83.434667 
L 109.255495 83.434667 
L 109.580475 80.448 
L 109.905455 74.474667 
L 110.230434 74.474667 
L 110.555414 71.488 
L 110.880393 71.488 
L 111.205373 65.514667 
L 111.530352 68.501333 
L 112.180311 68.501333 
L 112.505291 65.514667 
L 113.15525 65.514667 
L 113.480229 68.501333 
L 113.805209 62.528 
L 114.455168 68.501333 
L 114.780147 65.514667 
L 115.105127 65.514667 
L 115.755086 71.488 
L 116.080066 80.448 
L 116.405045 74.474667 
L 116.730025 74.474667 
L 117.055004 77.461333 
L 117.379984 83.434667 
L 117.704963 83.434667 
L 118.354922 95.381333 
L 118.679902 95.381333 
L 119.004881 92.394667 
L 119.329861 98.368 
L 119.65484 107.328 
L 119.97982 107.328 
L 120.304799 110.314667 
L 120.629779 116.288 
L 120.954758 119.274667 
L 121.279738 125.248 
L 121.604717 125.248 
L 121.929697 137.194667 
L 122.254676 134.208 
L 122.904636 146.154667 
L 123.229615 149.141333 
L 123.879574 161.088 
L 124.204554 161.088 
L 124.854513 173.034667 
L 125.179492 173.034667 
L 125.504472 179.008 
L 126.47941 202.901333 
L 126.80439 199.914667 
L 127.129369 208.874667 
L 127.454349 208.874667 
L 128.104308 220.821333 
L 128.754267 226.794667 
L 129.079247 232.768 
L 129.404226 232.768 
L 129.729206 235.754667 
L 130.379165 247.701333 
L 130.704144 247.701333 
L 131.029124 253.674667 
L 131.679083 259.648 
L 132.004062 259.648 
L 132.329042 265.621333 
L 132.979001 271.594667 
L 133.30398 271.594667 
L 134.278919 280.554667 
L 134.603898 277.568 
L 135.253857 283.541333 
L 135.578837 280.554667 
L 135.903817 280.554667 
L 136.878755 289.514667 
L 137.203735 277.568 
L 137.528714 283.541333 
L 137.853694 280.554667 
L 138.178673 283.541333 
L 138.503653 283.541333 
L 138.828632 280.554667 
L 139.153612 283.541333 
L 139.478591 283.541333 
L 139.803571 277.568 
L 140.12855 274.581333 
L 140.45353 277.568 
L 140.778509 271.594667 
L 141.103489 268.608 
L 142.078428 268.608 
L 142.403407 259.648 
L 142.728387 259.648 
L 143.053366 250.688 
L 143.378346 250.688 
L 144.028305 244.714667 
L 144.353284 244.714667 
L 144.678264 238.741333 
L 145.003243 229.781333 
L 145.328223 229.781333 
L 145.653202 226.794667 
L 145.978182 217.834667 
L 147.2781 205.888 
L 147.603079 193.941333 
L 147.928059 196.928 
L 148.253038 187.968 
L 148.578018 184.981333 
L 148.902998 179.008 
L 149.227977 176.021333 
L 149.552957 167.061333 
L 149.877936 164.074667 
L 150.202916 152.128 
L 150.527895 155.114667 
L 151.177854 143.168 
L 151.502834 134.208 
L 151.827813 134.208 
L 152.477772 128.234667 
L 152.802752 119.274667 
L 153.127731 116.288 
L 153.452711 110.314667 
L 153.77769 107.328 
L 154.10267 101.354667 
L 154.427649 101.354667 
L 155.077609 95.381333 
L 155.402588 83.434667 
L 156.052547 83.434667 
L 156.377527 77.461333 
L 156.702506 74.474667 
L 157.027486 74.474667 
L 157.352465 71.488 
L 157.677445 71.488 
L 158.002424 65.514667 
L 158.327404 62.528 
L 158.652383 62.528 
L 158.977363 59.541333 
L 159.302342 59.541333 
L 159.627322 53.568 
L 159.952301 56.554667 
L 160.277281 56.554667 
L 160.60226 53.568 
L 160.92724 53.568 
L 161.252219 59.541333 
L 161.902179 53.568 
L 162.877117 62.528 
L 163.202097 59.541333 
L 163.852056 65.514667 
L 164.177035 65.514667 
L 164.502015 68.501333 
L 164.826994 68.501333 
L 165.151974 74.474667 
L 165.476953 77.461333 
L 165.801933 74.474667 
L 166.451892 86.421333 
L 166.776871 86.421333 
L 167.101851 92.394667 
L 167.42683 95.381333 
L 168.07679 107.328 
L 168.401769 104.341333 
L 168.726749 113.301333 
L 169.051728 116.288 
L 169.376708 125.248 
L 169.701687 125.248 
L 170.026667 131.221333 
L 170.351646 134.208 
L 170.676626 140.181333 
L 171.001605 143.168 
L 171.651564 158.101333 
L 172.301523 164.074667 
L 172.626503 170.048 
L 173.276462 184.981333 
L 173.601441 181.994667 
L 174.2514 196.928 
L 174.57638 202.901333 
L 174.90136 205.888 
L 175.551319 217.834667 
L 175.876298 220.821333 
L 176.201278 220.821333 
L 176.526257 226.794667 
L 176.851237 235.754667 
L 177.176216 238.741333 
L 177.501196 238.741333 
L 178.476134 256.661333 
L 178.801114 253.674667 
L 179.126093 262.634667 
L 179.451073 262.634667 
L 179.776052 265.621333 
L 180.101032 271.594667 
L 180.426011 271.594667 
L 180.750991 274.581333 
L 181.075971 283.541333 
L 181.40095 274.581333 
L 182.050909 286.528 
L 182.375889 286.528 
L 182.700868 283.541333 
L 183.025848 289.514667 
L 183.675807 295.488 
L 184.000786 286.528 
L 184.325766 289.514667 
L 185.950663 289.514667 
L 186.275643 292.501333 
L 186.600622 286.528 
L 187.250581 286.528 
L 187.900541 280.554667 
L 188.875479 280.554667 
L 189.200459 271.594667 
L 189.525438 274.581333 
L 189.850418 271.594667 
L 190.175397 265.621333 
L 190.500377 265.621333 
L 190.825356 259.648 
L 191.475315 253.674667 
L 191.800295 247.701333 
L 192.125274 244.714667 
L 192.450254 244.714667 
L 193.100213 232.768 
L 194.075152 223.808 
L 194.400131 211.861333 
L 194.725111 211.861333 
L 195.37507 205.888 
L 196.350008 187.968 
L 196.674988 187.968 
L 196.999967 179.008 
L 197.649926 173.034667 
L 197.974906 161.088 
L 198.299885 155.114667 
L 198.624865 155.114667 
L 199.274824 149.141333 
L 199.599803 140.181333 
L 199.924783 140.181333 
L 200.249762 131.221333 
L 200.574742 131.221333 
L 200.899722 125.248 
L 201.224701 122.261333 
L 201.549681 116.288 
L 201.87466 113.301333 
L 202.19964 104.341333 
L 202.849599 104.341333 
L 203.174578 98.368 
L 204.149517 89.408 
L 204.474496 89.408 
L 204.799476 80.448 
L 205.124455 83.434667 
L 205.449435 80.448 
L 205.774414 80.448 
L 206.099394 74.474667 
L 206.424373 71.488 
L 207.074333 71.488 
L 207.399312 65.514667 
L 207.724292 68.501333 
L 208.049271 68.501333 
L 208.374251 62.528 
L 208.69923 59.541333 
L 209.02421 65.514667 
L 209.674169 71.488 
L 209.999148 65.514667 
L 210.324128 68.501333 
L 210.649107 65.514667 
L 211.299066 71.488 
L 211.624046 71.488 
L 212.274005 77.461333 
L 212.598984 74.474667 
L 212.923964 77.461333 
L 213.248943 83.434667 
L 213.573923 86.421333 
L 213.898903 86.421333 
L 214.223882 92.394667 
L 214.548862 92.394667 
L 214.873841 98.368 
L 215.198821 95.381333 
L 215.5238 104.341333 
L 215.84878 107.328 
L 216.173759 113.301333 
L 216.498739 113.301333 
L 216.823718 119.274667 
L 217.148698 122.261333 
L 217.473677 131.221333 
L 217.798657 128.234667 
L 218.448616 143.168 
L 219.098575 143.168 
L 220.073514 167.061333 
L 220.398493 167.061333 
L 220.723473 173.034667 
L 221.048452 176.021333 
L 221.373432 181.994667 
L 221.698411 184.981333 
L 222.023391 193.941333 
L 222.34837 196.928 
L 222.67335 202.901333 
L 222.998329 205.888 
L 223.323309 205.888 
L 223.973268 220.821333 
L 224.298247 220.821333 
L 224.623227 223.808 
L 224.948206 229.781333 
L 225.273186 238.741333 
L 225.598165 235.754667 
L 225.923145 241.728 
L 226.248124 244.714667 
L 226.898084 256.661333 
L 227.223063 256.661333 
L 227.548043 262.634667 
L 227.873022 265.621333 
L 228.198002 262.634667 
L 228.522981 265.621333 
L 228.847961 271.594667 
L 229.49792 271.594667 
L 230.472858 280.554667 
L 230.797838 274.581333 
L 231.122817 280.554667 
L 231.447797 277.568 
L 232.422735 286.528 
L 232.747715 283.541333 
L 233.072695 283.541333 
L 233.397674 280.554667 
L 234.047633 286.528 
L 234.372613 280.554667 
L 235.022572 280.554667 
L 235.347551 277.568 
L 235.672531 277.568 
L 235.99751 274.581333 
L 236.32249 277.568 
L 237.947387 262.634667 
L 238.272367 262.634667 
L 238.597346 253.674667 
L 238.922326 250.688 
L 239.247305 250.688 
L 239.572285 247.701333 
L 239.897265 241.728 
L 240.222244 241.728 
L 240.547224 235.754667 
L 240.872203 235.754667 
L 241.197183 223.808 
L 241.522162 226.794667 
L 242.497101 208.874667 
L 243.472039 199.914667 
L 244.121998 184.981333 
L 244.771957 179.008 
L 245.096937 170.048 
L 245.421916 170.048 
L 246.071876 158.101333 
L 246.396855 149.141333 
L 246.721835 149.141333 
L 247.046814 143.168 
L 247.371794 140.181333 
L 247.696773 134.208 
L 248.021753 125.248 
L 248.346732 128.234667 
L 248.671712 122.261333 
L 249.321671 107.328 
L 249.64665 107.328 
L 250.296609 95.381333 
L 250.621589 98.368 
L 250.946568 92.394667 
L 251.271548 89.408 
L 251.596527 80.448 
L 251.921507 83.434667 
L 252.246486 77.461333 
L 252.571466 74.474667 
L 252.896446 74.474667 
L 253.221425 68.501333 
L 253.546405 68.501333 
L 253.871384 65.514667 
L 254.196364 59.541333 
L 254.846323 59.541333 
L 255.171302 56.554667 
L 256.146241 56.554667 
L 256.47122 59.541333 
L 256.7962 53.568 
L 257.121179 56.554667 
L 257.446159 53.568 
L 257.771138 56.554667 
L 258.096118 53.568 
L 258.421097 56.554667 
L 258.746077 56.554667 
L 259.071057 59.541333 
L 259.396036 59.541333 
L 260.045995 65.514667 
L 260.695954 65.514667 
L 261.670893 83.434667 
L 261.995872 80.448 
L 262.320852 86.421333 
L 262.645831 89.408 
L 262.970811 95.381333 
L 263.945749 104.341333 
L 264.270729 110.314667 
L 264.595708 110.314667 
L 264.920688 116.288 
L 265.245667 125.248 
L 265.895627 125.248 
L 266.870565 149.141333 
L 267.195545 146.154667 
L 267.845504 161.088 
L 268.170483 167.061333 
L 268.495463 170.048 
L 269.470401 187.968 
L 269.795381 187.968 
L 270.12036 193.941333 
L 270.44534 202.901333 
L 271.095299 208.874667 
L 271.745258 223.808 
L 272.070238 229.781333 
L 272.395217 223.808 
L 272.720197 235.754667 
L 273.045176 238.741333 
L 273.370156 244.714667 
L 274.020115 250.688 
L 274.670074 262.634667 
L 274.995053 259.648 
L 275.320033 262.634667 
L 275.645012 271.594667 
L 276.294971 271.594667 
L 276.619951 274.581333 
L 276.94493 280.554667 
L 277.26991 283.541333 
L 277.594889 280.554667 
L 277.919869 286.528 
L 278.244848 286.528 
L 278.569828 289.514667 
L 278.894808 286.528 
L 279.869746 295.488 
L 280.519705 289.514667 
L 280.844685 292.501333 
L 281.169664 292.501333 
L 281.494644 289.514667 
L 281.819623 289.514667 
L 282.144603 292.501333 
L 282.469582 292.501333 
L 282.794562 286.528 
L 283.119541 289.514667 
L 283.7695 283.541333 
L 284.09448 283.541333 
L 284.744439 277.568 
L 285.069419 277.568 
L 285.394398 271.594667 
L 285.719378 268.608 
L 286.044357 268.608 
L 286.369337 265.621333 
L 286.694316 256.661333 
L 287.019296 256.661333 
L 287.344275 253.674667 
L 287.669255 253.674667 
L 287.994234 244.714667 
L 288.319214 244.714667 
L 288.644193 238.741333 
L 288.969173 235.754667 
L 289.294152 229.781333 
L 289.944111 223.808 
L 290.269091 217.834667 
L 290.59407 208.874667 
L 291.244029 208.874667 
L 291.893989 190.954667 
L 292.218968 190.954667 
L 292.543948 184.981333 
L 292.868927 181.994667 
L 293.193907 173.034667 
L 293.518886 173.034667 
L 293.843866 164.074667 
L 294.493825 158.101333 
L 294.818804 152.128 
L 295.468763 146.154667 
L 296.118722 131.221333 
L 297.41864 119.274667 
L 297.74362 113.301333 
L 298.0686 110.314667 
L 298.393579 104.341333 
L 298.718559 104.341333 
L 299.043538 98.368 
L 299.368518 98.368 
L 299.693497 92.394667 
L 300.993415 80.448 
L 301.318395 80.448 
L 301.968354 74.474667 
L 302.293333 68.501333 
L 302.618313 71.488 
L 303.268272 71.488 
L 303.593251 65.514667 
L 303.918231 68.501333 
L 304.24321 62.528 
L 304.56819 62.528 
L 304.89317 65.514667 
L 305.218149 65.514667 
L 305.868108 71.488 
L 306.518067 65.514667 
L 306.843047 71.488 
L 307.168026 68.501333 
L 307.493006 68.501333 
L 307.817985 74.474667 
L 308.142965 77.461333 
L 308.467944 83.434667 
L 308.792924 77.461333 
L 309.117903 83.434667 
L 309.442883 83.434667 
L 309.767862 89.408 
L 310.092842 92.394667 
L 310.417821 92.394667 
L 310.742801 98.368 
L 311.067781 101.354667 
L 311.39276 101.354667 
L 312.042719 113.301333 
L 312.367699 116.288 
L 312.692678 116.288 
L 313.667617 134.208 
L 313.992596 134.208 
L 314.317576 140.181333 
L 314.642555 143.168 
L 315.292514 158.101333 
L 315.942473 164.074667 
L 316.267453 173.034667 
L 316.592432 170.048 
L 316.917412 176.021333 
L 317.242391 184.981333 
L 317.892351 190.954667 
L 318.21733 196.928 
L 318.54231 205.888 
L 319.192269 205.888 
L 319.517248 217.834667 
L 319.842228 217.834667 
L 320.167207 223.808 
L 320.492187 226.794667 
L 321.142146 238.741333 
L 321.467125 241.728 
L 321.792105 238.741333 
L 322.442064 250.688 
L 322.767043 253.674667 
L 323.092023 253.674667 
L 323.417002 259.648 
L 323.741982 262.634667 
L 324.066962 271.594667 
L 324.391941 262.634667 
L 324.716921 274.581333 
L 325.0419 271.594667 
L 325.691859 277.568 
L 326.341818 277.568 
L 326.666798 280.554667 
L 326.991777 277.568 
L 327.316757 280.554667 
L 327.641736 286.528 
L 328.291695 280.554667 
L 328.941654 286.528 
L 329.266634 286.528 
L 329.591613 280.554667 
L 329.916593 286.528 
L 330.241572 280.554667 
L 330.891532 280.554667 
L 331.216511 277.568 
L 331.541491 280.554667 
L 331.86647 280.554667 
L 332.19145 274.581333 
L 332.516429 271.594667 
L 332.841409 271.594667 
L 333.166388 268.608 
L 333.491368 262.634667 
L 333.816347 265.621333 
L 334.466306 259.648 
L 334.791286 250.688 
L 335.116265 250.688 
L 335.441245 247.701333 
L 335.766224 247.701333 
L 336.091204 241.728 
L 337.066143 232.768 
L 337.391122 220.821333 
L 337.716102 220.821333 
L 338.041081 217.834667 
L 338.69104 205.888 
L 339.01602 202.901333 
L 339.340999 196.928 
L 339.665979 196.928 
L 339.990958 181.994667 
L 340.315938 184.981333 
L 340.640917 176.021333 
L 340.965897 176.021333 
L 341.615856 161.088 
L 341.940835 158.101333 
L 342.265815 152.128 
L 342.590794 143.168 
L 342.915774 143.168 
L 343.240753 140.181333 
L 343.890713 125.248 
L 344.215692 128.234667 
L 344.540672 122.261333 
L 344.865651 119.274667 
L 345.190631 110.314667 
L 346.165569 101.354667 
L 346.815528 89.408 
L 347.140508 89.408 
L 347.465487 83.434667 
L 347.790467 74.474667 
L 348.115446 77.461333 
L 348.440426 77.461333 
L 348.765405 74.474667 
L 349.090385 65.514667 
L 349.415364 68.501333 
L 350.065324 68.501333 
L 350.390303 59.541333 
L 350.715283 62.528 
L 351.040262 56.554667 
L 351.690221 56.554667 
L 352.015201 53.568 
L 352.34018 56.554667 
L 352.66516 56.554667 
L 352.990139 53.568 
L 353.640098 53.568 
L 353.965078 56.554667 
L 354.290057 56.554667 
L 354.615037 62.528 
L 355.264996 62.528 
L 355.914955 68.501333 
L 356.239934 68.501333 
L 356.889894 74.474667 
L 357.214873 74.474667 
L 357.539853 80.448 
L 357.864832 83.434667 
L 358.189812 80.448 
L 358.514791 86.421333 
L 358.839771 95.381333 
L 359.16475 95.381333 
L 359.48973 98.368 
L 359.814709 107.328 
L 360.789648 116.288 
L 361.114627 122.261333 
L 361.439607 125.248 
L 361.764586 131.221333 
L 362.089566 134.208 
L 363.064505 152.128 
L 363.389484 152.128 
L 363.714464 158.101333 
L 364.039443 167.061333 
L 364.364423 170.048 
L 364.689402 170.048 
L 365.014382 181.994667 
L 365.664341 193.941333 
L 365.98932 190.954667 
L 366.964259 214.848 
L 367.289238 214.848 
L 367.939197 226.794667 
L 368.264177 235.754667 
L 368.589156 232.768 
L 368.914136 235.754667 
L 369.239115 244.714667 
L 369.564095 244.714667 
L 369.889075 250.688 
L 370.214054 253.674667 
L 370.864013 265.621333 
L 371.188993 259.648 
L 371.513972 271.594667 
L 371.838952 271.594667 
L 373.463849 286.528 
L 373.788829 283.541333 
L 374.763767 292.501333 
L 375.088747 289.514667 
L 375.413726 289.514667 
L 375.738706 292.501333 
L 376.063686 292.501333 
L 376.388665 286.528 
L 376.713645 289.514667 
L 377.688583 289.514667 
L 378.013563 292.501333 
L 378.338542 289.514667 
L 378.663522 289.514667 
L 378.988501 280.554667 
L 379.313481 286.528 
L 379.63846 286.528 
L 379.96344 283.541333 
L 380.288419 277.568 
L 380.613399 277.568 
L 380.938378 274.581333 
L 381.263358 274.581333 
L 381.588337 265.621333 
L 381.913317 268.608 
L 382.238296 262.634667 
L 383.863194 247.701333 
L 384.188174 238.741333 
L 384.513153 235.754667 
L 384.838133 235.754667 
L 385.163112 229.781333 
L 385.488092 226.794667 
L 385.813071 220.821333 
L 386.46303 214.848 
L 386.78801 205.888 
L 387.112989 205.888 
L 387.762948 193.941333 
L 388.087928 184.981333 
L 388.412907 184.981333 
L 389.062867 179.008 
L 389.387846 167.061333 
L 390.037805 161.088 
L 390.687764 149.141333 
L 391.012744 149.141333 
L 391.337723 143.168 
L 391.662703 140.181333 
L 391.987682 131.221333 
L 392.312662 128.234667 
L 392.637641 122.261333 
L 392.962621 122.261333 
L 393.2876 116.288 
L 393.61258 113.301333 
L 393.937559 107.328 
L 394.262539 104.341333 
L 394.587518 98.368 
L 395.237477 98.368 
L 395.562457 89.408 
L 396.212416 83.434667 
L 396.537396 86.421333 
L 397.512334 77.461333 
L 397.837314 77.461333 
L 398.487273 71.488 
L 398.487273 71.488 
" clip-path="url(#p711d4c9ae7)" style="fill: none; stroke: #2ca02c; stroke-width: 1.5; stroke-linecap: square"/>
   </g>
   <g id="patch_3">
    <path d="M 57.6 307.584 
L 57.6 41.472 
" style="fill: none; stroke: #000000; stroke-width: 0.8; stroke-linejoin: miter; stroke-linecap: square"/>
   </g>
   <g id="patch_4">
    <path d="M 414.72 307.584 
L 414.72 41.472 
" style="fill: none; stroke: #000000; stroke-width: 0.8; stroke-linejoin: miter; stroke-linecap: square"/>
   </g>
   <g id="patch_5">
    <path d="M 57.6 307.584 
L 414.72 307.584 
" style="fill: none; stroke: #000000; stroke-width: 0.8; stroke-linejoin: miter; stroke-linecap: square"/>
   </g>
   <g id="patch_6">
    <path d="M 57.6 41.472 
L 414.72 41.472 
" style="fill: none; stroke: #000000; stroke-width: 0.8; stroke-linejoin: miter; stroke-linecap: square"/>
   </g>
  </g>
 </g>
 <defs>
  <clipPath id="p711d4c9ae7">
   <rect x="57.6" y="41.472" width="357.12" height="266.112"/>
  </clipPath>
 </defs>
</svg>
