<?xml version="1.0" encoding="utf-8" standalone="no"?>
<!DOCTYPE svg PUBLIC "-//W3C//DTD SVG 1.1//EN"
  "http://www.w3.org/Graphics/SVG/1.1/DTD/svg11.dtd">
<svg xmlns:xlink="http://www.w3.org/1999/xlink" width="460.8pt" height="345.6pt" viewBox="0 0 460.8 345.6" xmlns="http://www.w3.org/2000/svg" version="1.1">
 <metadata>
  <rdf:RDF xmlns:dc="http://purl.org/dc/elements/1.1/" xmlns:cc="http://creativecommons.org/ns#" xmlns:rdf="http://www.w3.org/1999/02/22-rdf-syntax-ns#">
   <cc:Work>
    <dc:type rdf:resource="http://purl.org/dc/dcmitype/StillImage"/>
    <dc:date>2025-12-29T23:58:12.722735</dc:date>
    <dc:format>image/svg+xml</dc:format>
    <dc:creator>
     <cc:Agent>
      <dc:title>Matplotlib v3.10.8, https://matplotlib.org/</dc:title>
     </cc:Agent>
    </dc:creator>
   </cc:Work>
  </rdf:RDF>
 </metadata>
 <defs>
  <style type="text/css">*{stroke-linejoin: round; stroke-linecap: butt}</style>
 </defs>
 <g id="figure_1">
  <g id="patch_1">
   <path d="M 0 345.6 
L 460.8 345.6 
L 460.8 0 
L 0 0 
z
" style="fill: #ffffff"/>
  </g>
  <g id="axes_1">
   <g id="patch_2">
    <path d="M 57.6 307.584 
L 414.72 307.584 
L 414.72 41.472 
L 57.6 41.472 
z
" style="fill: #ffffff"/>
   </g>
   <g id="matplotlib.axis_1">
    <g id="xtick_1">
     <g id="line2d_1">
      <defs>
       <path id="m883fda72d8" d="M 0 0 
L 0 3.5 
" style="stroke: #000000; stroke-width: 0.8"/>
      </defs>
      <g>
       <use xlink:href="#m883fda72d8" x="73.832727" y="307.584" style="stroke: #000000; stroke-width: 0.8"/>
      </g>
     </g>
     <g id="text_1">
      <!-- 0 -->
      <g transform="translate(70.651477 322.182437) scale(0.1 -0.1)">
       <defs>
        <path id="DejaVuSans-30" d="M 2034 4250 
Q 1547 4250 1301 3770 
Q 1056 3291 1056 2328 
Q 1056 1369 1301 889 
Q 1547 409 2034 409 
Q 2525 409 2770 889 
Q 3016 1369 3016 2328 
Q 3016 3291 2770 3770 
Q 2525 4250 2034 4250 
z
M 2034 4750 
Q 2819 4750 3233 4129 
Q 3647 3509 3647 2328 
Q 3647 1150 3233 529 
Q 2819 -91 2034 -91 
Q 1250 -91 836 529 
Q 422 1150 422 2328 
Q 422 3509 836 4129 
Q 1250 4750 2034 4750 
z
" transform="scale(0.015625)"/>
       </defs>
       <use xlink:href="#DejaVuSans-30"/>
      </g>
     </g>
    </g>
    <g id="xtick_2">
     <g id="line2d_2">
      <g>
       <use xlink:href="#m883fda72d8" x="138.828632" y="307.584" style="stroke: #000000; stroke-width: 0.8"/>
      </g>
     </g>
     <g id="text_2">
      <!-- 1 -->
      <g transform="translate(135.647382 322.182437) scale(0.1 -0.1)">
       <defs>
        <path id="DejaVuSans-31" d="M 794 531 
L 1825 531 
L 1825 4091 
L 703 3866 
L 703 4441 
L 1819 4666 
L 2450 4666 
L 2450 531 
L 3481 531 
L 3481 0 
L 794 0 
L 794 531 
z
" transform="scale(0.015625)"/>
       </defs>
       <use xlink:href="#DejaVuSans-31"/>
      </g>
     </g>
    </g>
    <g id="xtick_3">
     <g id="line2d_3">
      <g>
       <use xlink:href="#m883fda72d8" x="203.824537" y="307.584" style="stroke: #000000; stroke-width: 0.8"/>
      </g>
     </g>
     <g id="text_3">
      <!-- 2 -->
      <g transform="translate(200.643287 322.182437) scale(0.1 -0.1)">
       <defs>
        <path id="DejaVuSans-32" d="M 1228 531 
L 3431 531 
L 3431 0 
L 469 0 
L 469 531 
Q 828 903 1448 1529 
Q 2069 2156 2228 2338 
Q 2531 2678 2651 2914 
Q 2772 3150 2772 3378 
Q 2772 3750 2511 3984 
Q 2250 4219 1831 4219 
Q 1534 4219 1204 4116 
Q 875 4013 500 3803 
L 500 4441 
Q 881 4594 1212 4672 
Q 1544 4750 1819 4750 
Q 2544 4750 2975 4387 
Q 3406 4025 3406 3419 
Q 3406 3131 3298 2873 
Q 3191 2616 2906 2266 
Q 2828 2175 2409 1742 
Q 1991 1309 1228 531 
z
" transform="scale(0.015625)"/>
       </defs>
       <use xlink:href="#DejaVuSans-32"/>
      </g>
     </g>
    </g>
    <g id="xtick_4">
     <g id="line2d_4">
      <g>
       <use xlink:href="#m883fda72d8" x="268.820442" y="307.584" style="stroke: #000000; stroke-width: 0.8"/>
      </g>
     </g>
     <g id="text_4">
      <!-- 3 -->
      <g transform="translate(265.639192 322.182437) scale(0.1 -0.1)">
       <defs>
        <path id="DejaVuSans-33" d="M 2597 2516 
Q 3050 2419 3304 2112 
Q 3559 1806 3559 1356 
Q 3559 666 3084 287 
Q 2609 -91 1734 -91 
Q 1441 -91 1130 -33 
Q 819 25 488 141 
L 488 750 
Q 750 597 1062 519 
Q 1375 441 1716 441 
Q 2309 441 2620 675 
Q 2931 909 2931 1356 
Q 2931 1769 2642 2001 
Q 2353 2234 1838 2234 
L 1294 2234 
L 1294 2753 
L 1863 2753 
Q 2328 2753 2575 2939 
Q 2822 3125 2822 3475 
Q 2822 3834 2567 4026 
Q 2313 4219 1838 4219 
Q 1578 4219 1281 4162 
Q 984 4106 628 3988 
L 628 4550 
Q 988 4650 1302 4700 
Q 1616 4750 1894 4750 
Q 2613 4750 3031 4423 
Q 3450 4097 3450 3541 
Q 3450 3153 3228 2886 
Q 3006 2619 2597 2516 
z
" transform="scale(0.015625)"/>
       </defs>
       <use xlink:href="#DejaVuSans-33"/>
      </g>
     </g>
    </g>
    <g id="xtick_5">
     <g id="line2d_5">
      <g>
       <use xlink:href="#m883fda72d8" x="333.816347" y="307.584" style="stroke: #000000; stroke-width: 0.8"/>
      </g>
     </g>
     <g id="text_5">
      <!-- 4 -->
      <g transform="translate(330.635097 322.182437) scale(0.1 -0.1)">
       <defs>
        <path id="DejaVuSans-34" d="M 2419 4116 
L 825 1625 
L 2419 1625 
L 2419 4116 
z
M 2253 4666 
L 3047 4666 
L 3047 1625 
L 3713 1625 
L 3713 1100 
L 3047 1100 
L 3047 0 
L 2419 0 
L 2419 1100 
L 313 1100 
L 313 1709 
L 2253 4666 
z
" transform="scale(0.015625)"/>
       </defs>
       <use xlink:href="#DejaVuSans-34"/>
      </g>
     </g>
    </g>
    <g id="xtick_6">
     <g id="line2d_6">
      <g>
       <use xlink:href="#m883fda72d8" x="398.812252" y="307.584" style="stroke: #000000; stroke-width: 0.8"/>
      </g>
     </g>
     <g id="text_6">
      <!-- 5 -->
      <g transform="translate(395.631002 322.182437) scale(0.1 -0.1)">
       <defs>
        <path id="DejaVuSans-35" d="M 691 4666 
L 3169 4666 
L 3169 4134 
L 1269 4134 
L 1269 2991 
Q 1406 3038 1543 3061 
Q 1681 3084 1819 3084 
Q 2600 3084 3056 2656 
Q 3513 2228 3513 1497 
Q 3513 744 3044 326 
Q 2575 -91 1722 -91 
Q 1428 -91 1123 -41 
Q 819 9 494 109 
L 494 744 
Q 775 591 1075 516 
Q 1375 441 1709 441 
Q 2250 441 2565 725 
Q 2881 1009 2881 1497 
Q 2881 1984 2565 2268 
Q 2250 2553 1709 2553 
Q 1456 2553 1204 2497 
Q 953 2441 691 2322 
L 691 4666 
z
" transform="scale(0.015625)"/>
       </defs>
       <use xlink:href="#DejaVuSans-35"/>
      </g>
     </g>
    </g>
    <g id="text_7">
     <!-- 1e−7 -->
     <g transform="translate(387.462188 334.860562) scale(0.1 -0.1)">
      <defs>
       <path id="DejaVuSans-65" d="M 3597 1894 
L 3597 1613 
L 953 1613 
Q 991 1019 1311 708 
Q 1631 397 2203 397 
Q 2534 397 2845 478 
Q 3156 559 3463 722 
L 3463 178 
Q 3153 47 2828 -22 
Q 2503 -91 2169 -91 
Q 1331 -91 842 396 
Q 353 884 353 1716 
Q 353 2575 817 3079 
Q 1281 3584 2069 3584 
Q 2775 3584 3186 3129 
Q 3597 2675 3597 1894 
z
M 3022 2063 
Q 3016 2534 2758 2815 
Q 2500 3097 2075 3097 
Q 1594 3097 1305 2825 
Q 1016 2553 972 2059 
L 3022 2063 
z
" transform="scale(0.015625)"/>
       <path id="DejaVuSans-2212" d="M 678 2272 
L 4684 2272 
L 4684 1741 
L 678 1741 
L 678 2272 
z
" transform="scale(0.015625)"/>
       <path id="DejaVuSans-37" d="M 525 4666 
L 3525 4666 
L 3525 4397 
L 1831 0 
L 1172 0 
L 2766 4134 
L 525 4134 
L 525 4666 
z
" transform="scale(0.015625)"/>
      </defs>
      <use xlink:href="#DejaVuSans-31"/>
      <use xlink:href="#DejaVuSans-65" transform="translate(63.623047 0)"/>
      <use xlink:href="#DejaVuSans-2212" transform="translate(125.146484 0)"/>
      <use xlink:href="#DejaVuSans-37" transform="translate(208.935547 0)"/>
     </g>
    </g>
   </g>
   <g id="matplotlib.axis_2">
    <g id="ytick_1">
     <g id="line2d_7">
      <defs>
       <path id="m056a5b438e" d="M 0 0 
L -3.5 0 
" style="stroke: #000000; stroke-width: 0.8"/>
      </defs>
      <g>
       <use xlink:href="#m056a5b438e" x="57.6" y="304.218442" style="stroke: #000000; stroke-width: 0.8"/>
      </g>
     </g>
     <g id="text_8">
      <!-- 0 -->
      <g transform="translate(44.2375 308.017661) scale(0.1 -0.1)">
       <use xlink:href="#DejaVuSans-30"/>
      </g>
     </g>
    </g>
    <g id="ytick_2">
     <g id="line2d_8">
      <g>
       <use xlink:href="#m056a5b438e" x="57.6" y="270.383453" style="stroke: #000000; stroke-width: 0.8"/>
      </g>
     </g>
     <g id="text_9">
      <!-- 5 -->
      <g transform="translate(44.2375 274.182672) scale(0.1 -0.1)">
       <use xlink:href="#DejaVuSans-35"/>
      </g>
     </g>
    </g>
    <g id="ytick_3">
     <g id="line2d_9">
      <g>
       <use xlink:href="#m056a5b438e" x="57.6" y="236.548465" style="stroke: #000000; stroke-width: 0.8"/>
      </g>
     </g>
     <g id="text_10">
      <!-- 10 -->
      <g transform="translate(37.875 240.347684) scale(0.1 -0.1)">
       <use xlink:href="#DejaVuSans-31"/>
       <use xlink:href="#DejaVuSans-30" transform="translate(63.623047 0)"/>
      </g>
     </g>
    </g>
    <g id="ytick_4">
     <g id="line2d_10">
      <g>
       <use xlink:href="#m056a5b438e" x="57.6" y="202.713476" style="stroke: #000000; stroke-width: 0.8"/>
      </g>
     </g>
     <g id="text_11">
      <!-- 15 -->
      <g transform="translate(37.875 206.512695) scale(0.1 -0.1)">
       <use xlink:href="#DejaVuSans-31"/>
       <use xlink:href="#DejaVuSans-35" transform="translate(63.623047 0)"/>
      </g>
     </g>
    </g>
    <g id="ytick_5">
     <g id="line2d_11">
      <g>
       <use xlink:href="#m056a5b438e" x="57.6" y="168.878487" style="stroke: #000000; stroke-width: 0.8"/>
      </g>
     </g>
     <g id="text_12">
      <!-- 20 -->
      <g transform="translate(37.875 172.677706) scale(0.1 -0.1)">
       <use xlink:href="#DejaVuSans-32"/>
       <use xlink:href="#DejaVuSans-30" transform="translate(63.623047 0)"/>
      </g>
     </g>
    </g>
    <g id="ytick_6">
     <g id="line2d_12">
      <g>
       <use xlink:href="#m056a5b438e" x="57.6" y="135.043499" style="stroke: #000000; stroke-width: 0.8"/>
      </g>
     </g>
     <g id="text_13">
      <!-- 25 -->
      <g transform="translate(37.875 138.842717) scale(0.1 -0.1)">
       <use xlink:href="#DejaVuSans-32"/>
       <use xlink:href="#DejaVuSans-35" transform="translate(63.623047 0)"/>
      </g>
     </g>
    </g>
    <g id="ytick_7">
     <g id="line2d_13">
      <g>
       <use xlink:href="#m056a5b438e" x="57.6" y="101.20851" style="stroke: #000000; stroke-width: 0.8"/>
      </g>
     </g>
     <g id="text_14">
      <!-- 30 -->
      <g transform="translate(37.875 105.007729) scale(0.1 -0.1)">
       <use xlink:href="#DejaVuSans-33"/>
       <use xlink:href="#DejaVuSans-30" transform="translate(63.623047 0)"/>
      </g>
     </g>
    </g>
    <g id="ytick_8">
     <g id="line2d_14">
      <g>
       <use xlink:href="#m056a5b438e" x="57.6" y="67.373521" style="stroke: #000000; stroke-width: 0.8"/>
      </g>
     </g>
     <g id="text_15">
      <!-- 35 -->
      <g transform="translate(37.875 71.17274) scale(0.1 -0.1)">
       <use xlink:href="#DejaVuSans-33"/>
       <use xlink:href="#DejaVuSans-35" transform="translate(63.623047 0)"/>
      </g>
     </g>
    </g>
   </g>
   <g id="line2d_15">
    <path d="M 73.832727 180.631071 
L 74.157707 180.736805 
L 75.132645 179.785196 
L 75.782604 180.102399 
L 76.107584 180.102399 
L 76.432563 179.785196 
L 76.757543 179.785196 
L 77.732482 180.419602 
L 78.057461 180.313868 
L 78.382441 180.419602 
L 78.70742 180.208133 
L 79.357379 180.419602 
L 80.332318 179.573727 
L 80.657297 179.679462 
L 81.307256 180.736805 
L 81.632236 180.736805 
L 82.607174 179.679462 
L 83.257133 179.785196 
L 83.582113 179.785196 
L 83.907093 179.573727 
L 84.557052 179.573727 
L 84.882031 179.785196 
L 85.207011 180.313868 
L 85.53199 180.525336 
L 85.85697 180.419602 
L 86.181949 180.102399 
L 87.156888 180.313868 
L 87.481867 179.89093 
L 87.806847 179.256524 
L 88.131826 179.15079 
L 89.431744 179.573727 
L 89.756724 179.996665 
L 90.081704 180.208133 
L 90.406683 180.102399 
L 90.731663 180.208133 
L 91.056642 180.736805 
L 91.381622 180.631071 
L 92.35656 179.15079 
L 93.331499 179.573727 
L 93.656478 179.996665 
L 93.981458 180.102399 
L 94.306437 179.679462 
L 94.631417 179.89093 
L 94.956396 180.313868 
L 95.931335 179.996665 
L 96.581294 179.256524 
L 96.906274 179.362259 
L 97.231253 179.256524 
L 97.556233 179.362259 
L 97.881212 179.785196 
L 98.531171 180.208133 
L 99.50611 179.467993 
L 99.831089 179.573727 
L 100.156069 180.419602 
L 100.481048 180.736805 
L 100.806028 180.525336 
L 101.780966 178.727853 
L 102.105946 179.045056 
L 102.430925 179.785196 
L 102.755905 180.208133 
L 103.080885 180.419602 
L 103.730844 179.467993 
L 104.055823 179.467993 
L 104.705782 181.159743 
L 105.030762 181.58268 
L 105.355741 181.054008 
L 105.680721 179.785196 
L 106.0057 179.15079 
L 106.33068 179.045056 
L 107.305618 180.736805 
L 107.955577 179.785196 
L 108.605536 179.89093 
L 108.930516 180.525336 
L 109.255495 180.84254 
L 109.905455 180.525336 
L 110.555414 180.208133 
L 110.880393 180.102399 
L 111.530352 180.419602 
L 111.855332 180.631071 
L 112.505291 180.313868 
L 112.83027 179.785196 
L 113.15525 179.573727 
L 113.805209 180.208133 
L 114.130188 180.736805 
L 114.455168 180.84254 
L 114.780147 180.736805 
L 115.105127 180.313868 
L 115.430106 180.313868 
L 116.080066 180.84254 
L 116.405045 180.948274 
L 117.379984 179.785196 
L 117.704963 179.996665 
L 118.354922 180.84254 
L 118.679902 180.84254 
L 119.004881 180.313868 
L 119.329861 180.102399 
L 119.65484 180.313868 
L 119.97982 180.84254 
L 120.304799 181.054008 
L 120.629779 180.948274 
L 121.279738 179.785196 
L 121.604717 179.785196 
L 121.929697 179.996665 
L 122.254676 180.631071 
L 122.579656 180.84254 
L 123.879574 180.525336 
L 124.204554 180.736805 
L 124.854513 180.419602 
L 125.179492 180.736805 
L 126.47941 180.419602 
L 127.454349 180.736805 
L 128.104308 180.419602 
L 128.429287 180.102399 
L 128.754267 180.208133 
L 129.404226 180.948274 
L 129.729206 180.948274 
L 130.054185 180.631071 
L 130.704144 180.313868 
L 131.029124 180.525336 
L 132.654021 180.102399 
L 132.979001 180.525336 
L 133.30398 181.265477 
L 133.62896 181.58268 
L 133.953939 181.265477 
L 134.278919 181.159743 
L 134.928878 180.631071 
L 136.228796 179.785196 
L 136.878755 179.996665 
L 137.203735 180.631071 
L 137.853694 181.054008 
L 138.828632 180.419602 
L 139.478591 180.525336 
L 139.803571 179.996665 
L 140.45353 180.313868 
L 141.753448 181.054008 
L 142.403407 181.159743 
L 143.053366 180.736805 
L 143.378346 180.102399 
L 143.703325 179.996665 
L 144.353284 180.313868 
L 144.678264 180.525336 
L 145.003243 180.419602 
L 145.328223 180.102399 
L 145.653202 180.102399 
L 146.303161 180.948274 
L 146.628141 181.054008 
L 146.95312 180.84254 
L 147.2781 180.102399 
L 147.603079 179.679462 
L 147.928059 179.785196 
L 148.578018 180.84254 
L 148.902998 180.84254 
L 149.227977 180.102399 
L 149.552957 179.679462 
L 149.877936 179.89093 
L 150.202916 180.419602 
L 150.527895 181.265477 
L 150.852875 181.265477 
L 151.177854 180.84254 
L 151.502834 180.208133 
L 151.827813 180.208133 
L 152.477772 180.948274 
L 152.802752 180.736805 
L 153.127731 179.89093 
L 153.452711 179.362259 
L 153.77769 179.362259 
L 154.427649 180.736805 
L 155.077609 180.525336 
L 155.402588 180.208133 
L 155.727568 180.525336 
L 156.052547 181.054008 
L 156.377527 181.265477 
L 157.027486 179.89093 
L 157.677445 179.573727 
L 158.327404 180.313868 
L 158.977363 179.996665 
L 159.627322 180.948274 
L 159.952301 181.58268 
L 160.277281 181.265477 
L 160.92724 179.785196 
L 161.252219 179.785196 
L 161.577199 180.313868 
L 161.902179 180.419602 
L 162.552138 179.679462 
L 162.877117 179.15079 
L 163.202097 179.467993 
L 163.852056 181.159743 
L 164.177035 181.054008 
L 164.826994 180.102399 
L 165.151974 179.996665 
L 165.476953 180.419602 
L 166.126912 180.736805 
L 166.776871 179.785196 
L 167.101851 179.679462 
L 167.75181 180.736805 
L 168.07679 180.736805 
L 169.051728 179.89093 
L 169.376708 180.102399 
L 169.701687 180.525336 
L 170.026667 180.631071 
L 170.351646 180.419602 
L 171.001605 179.679462 
L 171.651564 179.996665 
L 171.976544 180.102399 
L 172.626503 179.785196 
L 173.601441 180.313868 
L 174.2514 180.208133 
L 174.57638 180.102399 
L 175.226339 180.313868 
L 175.876298 179.996665 
L 176.201278 179.679462 
L 176.526257 179.785196 
L 177.501196 180.631071 
L 178.151155 179.89093 
L 178.476134 179.467993 
L 178.801114 179.785196 
L 179.451073 179.785196 
L 179.776052 179.573727 
L 180.426011 179.467993 
L 180.750991 179.89093 
L 181.075971 180.525336 
L 181.40095 180.631071 
L 182.050909 180.208133 
L 182.700868 180.419602 
L 183.025848 180.313868 
L 184.000786 179.15079 
L 184.325766 179.15079 
L 184.650745 179.362259 
L 184.975725 179.362259 
L 185.625684 179.89093 
L 186.275643 180.208133 
L 186.600622 180.102399 
L 186.925602 180.631071 
L 187.250581 180.631071 
L 187.575561 180.313868 
L 187.900541 179.467993 
L 188.22552 179.15079 
L 188.875479 179.256524 
L 189.525438 180.102399 
L 189.850418 180.102399 
L 190.175397 179.785196 
L 190.500377 179.996665 
L 190.825356 180.419602 
L 191.150336 180.525336 
L 191.475315 180.419602 
L 192.450254 179.467993 
L 193.100213 179.467993 
L 194.400131 180.313868 
L 194.725111 180.102399 
L 195.05009 179.573727 
L 195.37507 179.467993 
L 196.350008 180.84254 
L 196.674988 180.631071 
L 197.324947 179.256524 
L 197.649926 178.833587 
L 198.624865 180.313868 
L 198.949844 180.419602 
L 199.599803 179.467993 
L 199.924783 179.573727 
L 200.574742 181.159743 
L 200.899722 181.688414 
L 201.224701 181.054008 
L 201.549681 179.785196 
L 201.87466 179.15079 
L 202.19964 179.045056 
L 203.174578 180.84254 
L 203.824537 179.785196 
L 204.149517 179.573727 
L 204.474496 179.785196 
L 204.799476 180.525336 
L 205.124455 180.948274 
L 206.424373 180.102399 
L 208.049271 180.525336 
L 208.374251 180.313868 
L 208.69923 179.89093 
L 209.02421 179.679462 
L 209.349189 179.89093 
L 209.999148 180.736805 
L 210.649107 180.631071 
L 210.974087 180.208133 
L 211.624046 180.525336 
L 212.274005 181.054008 
L 212.598984 180.419602 
L 213.248943 179.89093 
L 214.223882 180.84254 
L 214.548862 180.736805 
L 214.873841 180.102399 
L 215.198821 179.996665 
L 215.5238 180.208133 
L 215.84878 180.84254 
L 216.173759 181.054008 
L 216.498739 180.84254 
L 216.823718 180.208133 
L 217.148698 179.89093 
L 217.798657 179.996665 
L 218.123636 180.631071 
L 218.448616 180.948274 
L 219.423554 180.419602 
L 220.398493 180.631071 
L 220.723473 180.419602 
L 221.048452 180.631071 
L 222.023391 180.313868 
L 223.323309 180.631071 
L 223.973268 180.313868 
L 224.298247 179.996665 
L 224.948206 180.419602 
L 225.273186 180.84254 
L 225.598165 180.948274 
L 226.573104 180.208133 
L 227.223063 180.313868 
L 228.198002 179.996665 
L 228.522981 180.102399 
L 228.847961 180.525336 
L 229.17294 181.371211 
L 229.49792 181.688414 
L 230.472858 180.736805 
L 231.122817 180.525336 
L 231.772776 179.89093 
L 232.097756 179.785196 
L 232.747715 180.102399 
L 233.072695 180.525336 
L 233.722654 181.054008 
L 234.697592 180.525336 
L 235.022572 180.631071 
L 235.347551 180.419602 
L 235.672531 179.996665 
L 236.647469 180.419602 
L 237.947387 181.265477 
L 238.272367 181.265477 
L 239.572285 179.996665 
L 239.897265 179.996665 
L 240.547224 180.525336 
L 241.522162 180.102399 
L 242.172121 180.948274 
L 242.497101 181.159743 
L 243.472039 179.785196 
L 243.797019 179.679462 
L 244.121998 180.419602 
L 244.446978 180.84254 
L 244.771957 180.84254 
L 245.421916 179.679462 
L 245.746896 179.89093 
L 246.396855 181.265477 
L 246.721835 181.371211 
L 247.371794 180.208133 
L 247.696773 180.208133 
L 248.346732 181.054008 
L 248.671712 180.84254 
L 248.996691 179.996665 
L 249.321671 179.467993 
L 249.64665 179.362259 
L 249.97163 180.102399 
L 250.621589 180.84254 
L 251.271548 180.102399 
L 252.246486 181.265477 
L 253.221425 179.679462 
L 253.546405 179.785196 
L 253.871384 180.313868 
L 254.846323 180.208133 
L 255.171302 180.525336 
L 255.821261 181.476946 
L 256.146241 181.371211 
L 256.7962 179.785196 
L 257.121179 179.785196 
L 257.771138 180.631071 
L 258.096118 180.313868 
L 258.746077 179.256524 
L 259.071057 179.573727 
L 259.721016 181.265477 
L 260.045995 181.159743 
L 260.695954 180.102399 
L 261.020934 179.89093 
L 261.345913 180.313868 
L 261.995872 180.631071 
L 262.645831 179.573727 
L 262.970811 179.467993 
L 263.62077 180.631071 
L 263.945749 180.736805 
L 264.595708 179.89093 
L 264.920688 179.89093 
L 265.895627 180.736805 
L 266.870565 179.679462 
L 267.845504 179.89093 
L 268.495463 179.679462 
L 269.145422 179.996665 
L 269.470401 180.313868 
L 269.795381 180.208133 
L 270.12036 180.313868 
L 270.44534 180.102399 
L 271.095299 180.419602 
L 271.420278 180.313868 
L 272.070238 179.573727 
L 272.720197 180.102399 
L 273.045176 180.525336 
L 273.695135 180.208133 
L 274.020115 179.785196 
L 274.345094 179.573727 
L 274.670074 179.89093 
L 274.995053 179.679462 
L 276.294971 179.573727 
L 276.94493 180.313868 
L 277.26991 180.525336 
L 278.244848 180.208133 
L 278.569828 180.419602 
L 278.894808 180.419602 
L 279.544767 179.362259 
L 280.194726 179.256524 
L 280.519705 179.467993 
L 280.844685 179.362259 
L 281.819623 180.208133 
L 282.144603 180.102399 
L 282.469582 180.208133 
L 282.794562 180.631071 
L 283.119541 180.736805 
L 283.7695 179.362259 
L 284.419459 179.15079 
L 284.744439 179.362259 
L 285.069419 179.89093 
L 285.719378 180.208133 
L 286.044357 179.785196 
L 287.019296 180.631071 
L 287.344275 180.525336 
L 288.319214 179.362259 
L 289.619132 179.89093 
L 289.944111 180.208133 
L 290.269091 180.313868 
L 291.244029 179.467993 
L 291.569009 179.89093 
L 292.218968 180.948274 
L 292.543948 180.84254 
L 293.193907 179.362259 
L 293.518886 179.045056 
L 293.843866 179.362259 
L 294.493825 180.419602 
L 294.818804 180.419602 
L 295.468763 179.467993 
L 295.793743 179.573727 
L 296.443702 181.159743 
L 296.768681 181.476946 
L 297.093661 181.054008 
L 297.74362 179.045056 
L 298.0686 179.045056 
L 298.718559 180.525336 
L 299.043538 180.84254 
L 299.693497 179.89093 
L 300.018477 179.679462 
L 300.343456 179.89093 
L 300.668436 180.525336 
L 300.993415 180.84254 
L 301.318395 180.736805 
L 301.643374 180.419602 
L 301.968354 180.419602 
L 302.293333 180.208133 
L 302.943292 180.313868 
L 303.268272 180.208133 
L 303.593251 180.631071 
L 304.24321 180.313868 
L 304.56819 179.89093 
L 304.89317 179.679462 
L 305.218149 179.785196 
L 305.868108 180.631071 
L 306.193088 180.736805 
L 306.843047 180.208133 
L 307.817985 180.948274 
L 308.142965 180.84254 
L 308.792924 179.89093 
L 309.117903 179.785196 
L 309.442883 179.996665 
L 310.092842 180.948274 
L 310.417821 180.736805 
L 310.742801 180.102399 
L 311.067781 179.89093 
L 311.39276 180.102399 
L 311.71774 180.84254 
L 312.042719 181.159743 
L 312.367699 180.948274 
L 313.017658 179.89093 
L 313.342637 179.679462 
L 313.667617 179.89093 
L 313.992596 180.525336 
L 314.317576 180.736805 
L 314.642555 180.736805 
L 315.292514 180.313868 
L 315.942473 180.631071 
L 316.592432 180.313868 
L 316.917412 180.631071 
L 317.892351 180.419602 
L 318.867289 180.419602 
L 319.192269 180.631071 
L 319.842228 180.313868 
L 320.167207 179.996665 
L 320.817166 180.419602 
L 321.142146 180.84254 
L 321.467125 180.948274 
L 322.117084 180.313868 
L 322.442064 180.208133 
L 322.767043 180.525336 
L 323.092023 180.525336 
L 324.066962 179.785196 
L 324.716921 180.525336 
L 325.0419 181.371211 
L 325.36688 181.58268 
L 326.341818 180.736805 
L 326.991777 180.419602 
L 327.641736 179.785196 
L 328.616675 180.102399 
L 329.591613 181.054008 
L 330.566552 180.419602 
L 330.891532 180.525336 
L 331.216511 180.208133 
L 331.541491 180.102399 
L 332.841409 180.631071 
L 333.816347 181.476946 
L 334.141327 181.159743 
L 334.791286 180.84254 
L 335.116265 180.208133 
L 335.441245 180.102399 
L 335.766224 180.208133 
L 336.091204 180.525336 
L 336.741163 180.525336 
L 337.391122 180.102399 
L 337.716102 180.736805 
L 338.366061 181.265477 
L 338.69104 180.948274 
L 339.340999 179.89093 
L 339.665979 179.785196 
L 339.990958 180.525336 
L 340.315938 180.948274 
L 340.640917 180.84254 
L 341.290876 179.785196 
L 341.615856 179.89093 
L 342.265815 181.371211 
L 342.590794 181.476946 
L 343.240753 180.313868 
L 343.565733 180.419602 
L 344.215692 181.159743 
L 344.540672 180.84254 
L 344.865651 179.996665 
L 345.190631 179.573727 
L 345.51561 179.679462 
L 346.165569 180.736805 
L 346.490549 180.84254 
L 347.140508 180.313868 
L 347.790467 181.159743 
L 348.115446 181.371211 
L 348.765405 180.419602 
L 349.090385 179.785196 
L 349.415364 179.785196 
L 349.740344 180.208133 
L 350.715283 180.102399 
L 351.365242 181.054008 
L 351.690221 181.58268 
L 352.015201 181.265477 
L 352.66516 179.996665 
L 352.990139 179.785196 
L 353.315119 180.313868 
L 353.640098 180.525336 
L 353.965078 180.313868 
L 354.615037 179.362259 
L 354.940016 179.679462 
L 355.589975 181.265477 
L 355.914955 181.265477 
L 356.564914 180.102399 
L 356.889894 179.996665 
L 357.539853 180.525336 
L 357.864832 180.525336 
L 358.514791 179.679462 
L 358.839771 179.573727 
L 359.48973 180.736805 
L 359.814709 180.948274 
L 360.464668 179.89093 
L 361.114627 180.208133 
L 361.764586 180.631071 
L 362.089566 180.419602 
L 362.414545 179.89093 
L 362.739525 179.679462 
L 363.064505 179.89093 
L 364.039443 179.89093 
L 364.364423 179.679462 
L 365.014382 179.996665 
L 365.339361 180.208133 
L 367.289238 180.208133 
L 367.614218 179.785196 
L 368.264177 179.679462 
L 368.914136 180.631071 
L 369.564095 180.525336 
L 369.889075 179.89093 
L 370.214054 179.679462 
L 371.838952 179.573727 
L 372.163931 179.467993 
L 372.81389 180.208133 
L 373.463849 180.525336 
L 373.788829 180.102399 
L 374.438788 180.525336 
L 374.763767 180.419602 
L 375.413726 179.467993 
L 376.063686 179.362259 
L 376.388665 179.362259 
L 377.688583 180.208133 
L 378.338542 180.313868 
L 378.663522 180.736805 
L 378.988501 180.736805 
L 379.313481 180.313868 
L 379.63846 179.467993 
L 379.96344 179.15079 
L 380.288419 179.15079 
L 380.938378 179.679462 
L 381.263358 179.996665 
L 381.588337 180.102399 
L 381.913317 179.679462 
L 382.238296 179.89093 
L 382.563276 180.419602 
L 382.888256 180.525336 
L 383.538215 179.996665 
L 384.188174 179.362259 
L 385.488092 179.89093 
L 385.813071 180.208133 
L 386.138051 180.313868 
L 387.112989 179.467993 
L 387.437969 179.785196 
L 387.762948 180.525336 
L 388.087928 180.948274 
L 388.412907 180.631071 
L 388.737887 179.89093 
L 389.387846 178.939321 
L 390.037805 179.89093 
L 390.362785 180.525336 
L 390.687764 180.525336 
L 391.012744 180.102399 
L 391.337723 179.362259 
L 391.662703 179.573727 
L 392.312662 181.265477 
L 392.637641 181.476946 
L 392.962621 181.054008 
L 393.61258 179.045056 
L 393.937559 179.15079 
L 394.587518 180.525336 
L 394.912498 180.736805 
L 395.562457 179.89093 
L 395.887437 179.679462 
L 396.212416 179.89093 
L 396.537396 180.525336 
L 396.862375 180.84254 
L 398.162293 180.102399 
L 398.487273 180.208133 
L 398.487273 180.208133 
" clip-path="url(#p8cd4581482)" style="fill: none; stroke: #1f77b4; stroke-width: 1.5; stroke-linecap: square"/>
   </g>
   <g id="line2d_16">
    <path d="M 73.832727 295.392839 
L 77.732482 295.424559 
L 78.70742 295.413986 
L 80.657297 295.435133 
L 131.354103 295.329398 
L 134.278919 295.339972 
L 180.101032 295.445706 
L 183.350827 295.45628 
L 187.575561 295.424559 
L 191.150336 295.445706 
L 194.075152 295.45628 
L 222.67335 295.350545 
L 226.573104 295.318825 
L 230.147879 295.350545 
L 232.097756 295.318825 
L 235.99751 295.339972 
L 272.720197 295.445706 
L 274.995053 295.413986 
L 326.991777 295.308252 
L 328.941654 295.339972 
L 330.566552 295.350545 
L 369.564095 295.445706 
L 370.864013 295.424559 
L 398.487273 295.424559 
L 398.487273 295.424559 
" clip-path="url(#p8cd4581482)" style="fill: none; stroke: #ff7f0e; stroke-width: 1.5; stroke-linecap: square"/>
   </g>
   <g id="line2d_17">
    <path d="M 73.832727 54.413875 
L 74.482686 54.625343 
L 75.132645 54.30814 
L 75.457625 54.519609 
L 77.082523 53.885203 
L 78.057461 54.519609 
L 78.382441 54.30814 
L 79.0324 54.202406 
L 79.357379 54.519609 
L 80.007338 54.625343 
L 80.982277 54.413875 
L 81.307256 54.413875 
L 81.632236 54.731078 
L 82.932154 54.30814 
L 83.257133 54.731078 
L 83.907093 54.836812 
L 84.232072 54.413875 
L 85.207011 54.519609 
L 85.85697 55.154015 
L 86.181949 54.731078 
L 86.831908 54.625343 
L 87.806847 54.836812 
L 88.456806 54.731078 
L 88.781785 54.625343 
L 89.106765 54.942546 
L 89.431744 54.836812 
L 89.756724 54.942546 
L 90.406683 54.413875 
L 92.031581 54.836812 
L 92.68154 54.625343 
L 93.006519 55.048281 
L 93.656478 55.154015 
L 93.981458 54.836812 
L 94.631417 54.731078 
L 94.956396 55.048281 
L 95.606355 54.942546 
L 95.931335 54.836812 
L 96.256314 55.048281 
L 96.581294 54.836812 
L 96.906274 55.154015 
L 97.231253 55.25975 
L 97.881212 54.836812 
L 98.531171 54.942546 
L 98.856151 55.365484 
L 100.156069 54.942546 
L 100.806028 55.048281 
L 101.455987 55.048281 
L 101.780966 54.731078 
L 103.080885 54.836812 
L 104.055823 55.048281 
L 104.380803 54.942546 
L 105.030762 55.25975 
L 105.355741 55.365484 
L 105.680721 55.154015 
L 106.655659 55.25975 
L 106.980639 54.836812 
L 107.305618 54.625343 
L 107.630598 54.731078 
L 107.955577 54.625343 
L 108.930516 55.154015 
L 109.905455 55.25975 
L 110.555414 55.576953 
L 111.205373 54.942546 
L 111.530352 54.942546 
L 111.855332 55.25975 
L 112.505291 55.048281 
L 112.83027 54.731078 
L 113.15525 54.625343 
L 113.480229 54.731078 
L 113.805209 55.154015 
L 114.455168 55.471218 
L 114.780147 55.154015 
L 115.430106 54.836812 
L 116.080066 55.25975 
L 116.405045 54.942546 
L 117.055004 55.154015 
L 117.379984 55.048281 
L 118.029943 55.365484 
L 118.679902 55.154015 
L 119.004881 55.365484 
L 119.65484 55.25975 
L 119.97982 54.942546 
L 120.304799 54.836812 
L 120.629779 54.519609 
L 121.929697 55.365484 
L 122.904636 55.365484 
L 123.229615 55.576953 
L 123.554595 55.471218 
L 123.879574 55.048281 
L 125.179492 54.625343 
L 125.504472 54.836812 
L 126.47941 54.519609 
L 127.454349 55.154015 
L 127.779328 54.942546 
L 128.104308 54.942546 
L 128.754267 54.625343 
L 130.054185 54.625343 
L 130.379165 54.202406 
L 131.354103 54.519609 
L 132.004062 54.413875 
L 132.329042 54.413875 
L 132.654021 54.836812 
L 133.30398 54.731078 
L 133.62896 54.731078 
L 133.953939 54.413875 
L 134.603898 54.30814 
L 134.928878 54.413875 
L 135.253857 54.30814 
L 135.578837 53.990937 
L 137.203735 54.413875 
L 138.828632 54.519609 
L 139.478591 53.990937 
L 139.803571 53.885203 
L 140.45353 54.30814 
L 140.778509 54.30814 
L 141.103489 54.519609 
L 141.753448 54.413875 
L 142.728387 54.625343 
L 143.703325 54.096672 
L 144.353284 54.202406 
L 144.678264 54.096672 
L 146.303161 54.625343 
L 146.628141 54.519609 
L 146.95312 54.625343 
L 147.928059 54.413875 
L 148.253038 54.413875 
L 148.902998 53.885203 
L 149.877936 54.096672 
L 150.527895 54.202406 
L 150.852875 54.413875 
L 151.177854 54.413875 
L 151.502834 54.625343 
L 154.752629 53.568 
L 155.077609 53.673734 
L 155.402588 54.096672 
L 156.052547 54.202406 
L 156.377527 53.990937 
L 157.027486 54.096672 
L 158.327404 54.202406 
L 158.977363 53.673734 
L 159.302342 53.568 
L 160.92724 53.990937 
L 161.252219 53.990937 
L 161.577199 53.779469 
L 161.902179 54.096672 
L 162.552138 54.096672 
L 163.202097 53.568 
L 164.502015 53.885203 
L 165.476953 53.885203 
L 165.801933 54.30814 
L 166.451892 54.519609 
L 166.776871 54.096672 
L 167.42683 53.779469 
L 168.401769 53.990937 
L 169.376708 54.096672 
L 170.026667 54.519609 
L 171.001605 54.30814 
L 171.326585 54.30814 
L 171.651564 54.625343 
L 171.976544 54.30814 
L 172.301523 54.30814 
L 172.626503 54.096672 
L 173.601441 54.202406 
L 173.926421 54.413875 
L 174.2514 54.413875 
L 174.57638 54.202406 
L 176.201278 54.625343 
L 176.526257 54.413875 
L 176.851237 54.625343 
L 177.176216 54.413875 
L 177.501196 54.625343 
L 178.151155 54.413875 
L 178.476134 54.519609 
L 178.801114 54.413875 
L 179.451073 54.942546 
L 180.101032 54.413875 
L 181.075971 54.519609 
L 181.72593 55.048281 
L 182.050909 55.048281 
L 182.375889 54.731078 
L 182.700868 54.731078 
L 183.025848 54.519609 
L 183.350827 54.836812 
L 183.675807 54.942546 
L 184.325766 54.731078 
L 184.650745 54.942546 
L 184.975725 54.731078 
L 185.300704 54.942546 
L 186.925602 54.519609 
L 187.250581 54.836812 
L 187.575561 54.731078 
L 187.900541 54.836812 
L 188.22552 54.731078 
L 189.525438 55.25975 
L 190.175397 54.519609 
L 190.500377 54.625343 
L 190.825356 54.942546 
L 191.475315 54.731078 
L 192.450254 54.942546 
L 192.775233 54.942546 
L 193.100213 55.154015 
L 193.425192 54.942546 
L 194.400131 54.942546 
L 195.05009 55.576953 
L 195.37507 55.048281 
L 195.700049 54.836812 
L 196.025029 54.836812 
L 196.350008 55.048281 
L 197.649926 54.942546 
L 197.974906 54.731078 
L 198.299885 54.836812 
L 198.624865 54.731078 
L 199.274824 55.048281 
L 199.599803 54.836812 
L 201.224701 55.25975 
L 201.87466 55.048281 
L 202.19964 55.365484 
L 202.849599 55.048281 
L 203.174578 54.625343 
L 203.824537 54.625343 
L 204.799476 55.154015 
L 205.774414 55.048281 
L 206.424373 55.576953 
L 207.074333 55.048281 
L 207.724292 55.154015 
L 208.049271 55.25975 
L 208.374251 54.942546 
L 209.02421 54.731078 
L 209.349189 54.836812 
L 209.674169 55.154015 
L 210.324128 55.365484 
L 210.649107 55.25975 
L 210.974087 54.836812 
L 211.299066 54.836812 
L 211.624046 55.048281 
L 211.949025 55.048281 
L 212.274005 54.836812 
L 213.898903 55.25975 
L 215.84878 55.154015 
L 216.173759 54.625343 
L 216.823718 54.731078 
L 218.123636 55.25975 
L 218.448616 55.471218 
L 218.773595 55.365484 
L 219.098575 55.471218 
L 219.748534 55.25975 
L 220.073514 54.942546 
L 220.723473 54.731078 
L 221.048452 54.836812 
L 221.373432 54.625343 
L 222.023391 54.731078 
L 222.34837 54.519609 
L 222.67335 54.519609 
L 223.648288 55.365484 
L 224.298247 54.836812 
L 224.623227 54.731078 
L 225.273186 54.836812 
L 225.923145 54.519609 
L 226.573104 54.413875 
L 227.873022 54.413875 
L 228.847961 54.942546 
L 229.49792 54.836812 
L 229.822899 54.413875 
L 231.447797 54.30814 
L 231.772776 53.990937 
L 233.072695 54.30814 
L 233.722654 54.202406 
L 234.047633 54.625343 
L 234.697592 54.413875 
L 235.022572 53.990937 
L 235.347551 53.885203 
L 235.672531 54.096672 
L 235.99751 53.990937 
L 236.647469 54.413875 
L 236.972449 54.30814 
L 237.622408 54.413875 
L 238.272367 54.30814 
L 238.597346 54.519609 
L 238.922326 54.30814 
L 239.247305 54.30814 
L 239.572285 54.096672 
L 240.547224 54.30814 
L 240.872203 54.096672 
L 241.522162 54.413875 
L 241.847142 54.519609 
L 242.172121 54.413875 
L 242.82208 54.625343 
L 243.472039 54.30814 
L 243.797019 54.413875 
L 244.446978 54.30814 
L 244.771957 53.885203 
L 245.421916 53.779469 
L 246.071876 54.096672 
L 247.696773 54.519609 
L 250.621589 53.568 
L 251.271548 54.096672 
L 251.921507 54.202406 
L 252.246486 54.30814 
L 252.571466 54.096672 
L 253.221425 54.30814 
L 253.871384 54.202406 
L 254.196364 54.30814 
L 255.171302 53.673734 
L 256.7962 54.096672 
L 257.771138 53.885203 
L 258.421097 54.202406 
L 259.071057 53.673734 
L 260.045995 54.096672 
L 260.370975 53.885203 
L 260.695954 53.990937 
L 261.020934 53.885203 
L 261.670893 54.413875 
L 262.645831 54.30814 
L 262.970811 53.779469 
L 263.29579 53.779469 
L 263.62077 53.990937 
L 264.920688 53.990937 
L 265.245667 54.202406 
L 265.570647 54.202406 
L 265.895627 54.519609 
L 266.545586 54.30814 
L 267.520524 54.519609 
L 268.170483 54.202406 
L 268.495463 53.990937 
L 269.470401 54.096672 
L 269.795381 54.413875 
L 270.770319 54.202406 
L 271.095299 54.519609 
L 274.670074 54.519609 
L 274.995053 54.836812 
L 275.320033 54.731078 
L 275.645012 54.836812 
L 275.969992 54.519609 
L 276.294971 54.519609 
L 276.619951 54.30814 
L 277.594889 55.154015 
L 278.244848 54.836812 
L 278.569828 54.519609 
L 279.219787 54.836812 
L 279.544767 54.942546 
L 280.519705 54.731078 
L 280.844685 54.942546 
L 281.494644 54.942546 
L 281.819623 54.625343 
L 282.144603 54.519609 
L 283.444521 55.048281 
L 284.09448 54.731078 
L 285.394398 55.154015 
L 285.719378 54.731078 
L 287.994234 54.731078 
L 288.644193 55.048281 
L 289.619132 54.836812 
L 290.269091 54.836812 
L 290.59407 55.365484 
L 290.91905 55.471218 
L 291.893989 54.942546 
L 293.843866 54.836812 
L 294.168845 54.625343 
L 294.493825 54.836812 
L 295.793743 54.942546 
L 297.093661 55.25975 
L 297.41864 55.048281 
L 297.74362 55.25975 
L 298.0686 55.25975 
L 298.718559 54.942546 
L 299.043538 54.942546 
L 299.368518 54.413875 
L 300.018477 54.731078 
L 302.293333 55.365484 
L 302.943292 54.942546 
L 303.918231 55.154015 
L 304.56819 54.625343 
L 306.193088 55.154015 
L 306.518067 54.942546 
L 309.117903 54.942546 
L 309.442883 55.25975 
L 309.767862 55.048281 
L 310.417821 55.25975 
L 311.067781 55.154015 
L 311.39276 55.154015 
L 312.367699 54.625343 
L 313.342637 55.154015 
L 314.317576 55.25975 
L 314.642555 55.576953 
L 315.617494 55.25975 
L 315.942473 54.836812 
L 316.592432 54.731078 
L 317.892351 54.625343 
L 318.21733 54.519609 
L 319.517248 55.25975 
L 319.842228 55.25975 
L 320.167207 54.731078 
L 321.467125 54.731078 
L 322.117084 54.413875 
L 322.442064 54.519609 
L 322.767043 54.413875 
L 323.417002 54.519609 
L 324.066962 54.519609 
L 324.716921 54.836812 
L 325.0419 54.942546 
L 325.36688 54.519609 
L 325.691859 54.413875 
L 326.016839 54.625343 
L 326.341818 54.413875 
L 326.991777 54.30814 
L 327.966716 54.096672 
L 328.616675 54.413875 
L 328.941654 54.413875 
L 329.266634 54.202406 
L 329.591613 54.202406 
L 330.241572 54.519609 
L 331.216511 53.990937 
L 331.541491 53.885203 
L 331.86647 53.990937 
L 332.19145 54.30814 
L 332.841409 54.413875 
L 333.166388 54.202406 
L 333.491368 54.413875 
L 333.816347 54.30814 
L 334.141327 54.625343 
L 335.766224 54.096672 
L 336.416183 54.30814 
L 336.741163 54.096672 
L 337.066143 54.096672 
L 337.391122 54.413875 
L 338.041081 54.731078 
L 338.366061 54.519609 
L 338.69104 54.625343 
L 341.290876 53.779469 
L 341.940835 54.096672 
L 342.265815 54.096672 
L 343.240753 54.731078 
L 343.565733 54.519609 
L 343.890713 54.519609 
L 344.215692 54.30814 
L 345.84059 54.202406 
L 346.165569 53.779469 
L 346.490549 53.568 
L 347.465487 54.096672 
L 348.440426 54.30814 
L 348.765405 54.202406 
L 349.090385 54.413875 
L 349.415364 54.202406 
L 350.065324 54.096672 
L 350.715283 53.779469 
L 351.365242 53.568 
L 352.015201 53.990937 
L 354.615037 53.885203 
L 354.940016 53.673734 
L 355.264996 53.673734 
L 355.914955 53.990937 
L 356.239934 53.990937 
L 356.564914 53.779469 
L 358.189812 54.30814 
L 359.16475 53.673734 
L 359.48973 53.990937 
L 359.814709 53.885203 
L 360.464668 53.990937 
L 361.114627 54.096672 
L 361.439607 54.30814 
L 361.764586 54.30814 
L 362.089566 54.519609 
L 362.414545 54.519609 
L 362.739525 54.30814 
L 363.389484 54.519609 
L 363.714464 54.30814 
L 364.039443 54.30814 
L 364.364423 53.990937 
L 364.689402 54.096672 
L 365.014382 53.990937 
L 365.339361 54.30814 
L 365.98932 54.413875 
L 366.639279 54.30814 
L 367.939197 54.625343 
L 368.264177 54.30814 
L 368.589156 54.625343 
L 369.239115 54.731078 
L 370.214054 54.413875 
L 370.539034 54.625343 
L 371.188993 54.731078 
L 371.513972 54.836812 
L 371.838952 54.731078 
L 372.163931 54.413875 
L 372.488911 54.413875 
L 373.463849 55.048281 
L 373.788829 55.048281 
L 374.113808 54.836812 
L 376.713645 54.836812 
L 377.038624 55.154015 
L 377.688583 54.836812 
L 378.663522 54.625343 
L 378.988501 54.942546 
L 379.63846 55.048281 
L 379.96344 54.731078 
L 380.613399 54.942546 
L 380.938378 55.365484 
L 381.913317 54.731078 
L 382.238296 54.942546 
L 382.563276 54.836812 
L 382.888256 54.942546 
L 383.538215 54.731078 
L 384.838133 55.25975 
L 385.488092 54.942546 
L 385.813071 54.836812 
L 386.46303 55.365484 
L 386.78801 55.471218 
L 387.762948 54.731078 
L 388.412907 55.048281 
L 389.387846 54.942546 
L 389.712826 54.836812 
L 390.037805 54.942546 
L 390.362785 54.836812 
L 390.687764 55.048281 
L 391.012744 54.836812 
L 391.337723 55.048281 
L 391.987682 55.048281 
L 392.637641 55.576953 
L 392.962621 55.154015 
L 394.587518 55.048281 
L 394.912498 54.731078 
L 396.212416 54.836812 
L 396.537396 55.25975 
L 397.187355 55.154015 
L 397.837314 55.576953 
L 398.487273 55.25975 
L 398.487273 55.25975 
" clip-path="url(#p8cd4581482)" style="fill: none; stroke: #2ca02c; stroke-width: 1.5; stroke-linecap: square"/>
   </g>
   <g id="patch_3">
    <path d="M 57.6 307.584 
L 57.6 41.472 
" style="fill: none; stroke: #000000; stroke-width: 0.8; stroke-linejoin: miter; stroke-linecap: square"/>
   </g>
   <g id="patch_4">
    <path d="M 414.72 307.584 
L 414.72 41.472 
" style="fill: none; stroke: #000000; stroke-width: 0.8; stroke-linejoin: miter; stroke-linecap: square"/>
   </g>
   <g id="patch_5">
    <path d="M 57.6 307.584 
L 414.72 307.584 
" style="fill: none; stroke: #000000; stroke-width: 0.8; stroke-linejoin: miter; stroke-linecap: square"/>
   </g>
   <g id="patch_6">
    <path d="M 57.6 41.472 
L 414.72 41.472 
" style="fill: none; stroke: #000000; stroke-width: 0.8; stroke-linejoin: miter; stroke-linecap: square"/>
   </g>
  </g>
 </g>
 <defs>
  <clipPath id="p8cd4581482">
   <rect x="57.6" y="41.472" width="357.12" height="266.112"/>
  </clipPath>
 </defs>
</svg>
