<?xml version="1.0" encoding="utf-8" standalone="no"?>
<!DOCTYPE svg PUBLIC "-//W3C//DTD SVG 1.1//EN"
  "http://www.w3.org/Graphics/SVG/1.1/DTD/svg11.dtd">
<svg xmlns:xlink="http://www.w3.org/1999/xlink" width="460.8pt" height="345.6pt" viewBox="0 0 460.8 345.6" xmlns="http://www.w3.org/2000/svg" version="1.1">
 <metadata>
  <rdf:RDF xmlns:dc="http://purl.org/dc/elements/1.1/" xmlns:cc="http://creativecommons.org/ns#" xmlns:rdf="http://www.w3.org/1999/02/22-rdf-syntax-ns#">
   <cc:Work>
    <dc:type rdf:resource="http://purl.org/dc/dcmitype/StillImage"/>
    <dc:date>2025-12-29T23:59:22.842553</dc:date>
    <dc:format>image/svg+xml</dc:format>
    <dc:creator>
     <cc:Agent>
      <dc:title>Matplotlib v3.10.8, https://matplotlib.org/</dc:title>
     </cc:Agent>
    </dc:creator>
   </cc:Work>
  </rdf:RDF>
 </metadata>
 <defs>
  <style type="text/css">*{stroke-linejoin: round; stroke-linecap: butt}</style>
 </defs>
 <g id="figure_1">
  <g id="patch_1">
   <path d="M 0 345.6 
L 460.8 345.6 
L 460.8 0 
L 0 0 
z
" style="fill: #ffffff"/>
  </g>
  <g id="axes_1">
   <g id="patch_2">
    <path d="M 57.6 307.584 
L 414.72 307.584 
L 414.72 41.472 
L 57.6 41.472 
z
" style="fill: #ffffff"/>
   </g>
   <g id="matplotlib.axis_1">
    <g id="xtick_1">
     <g id="line2d_1">
      <defs>
       <path id="mea68a22859" d="M 0 0 
L 0 3.5 
" style="stroke: #000000; stroke-width: 0.8"/>
      </defs>
      <g>
       <use xlink:href="#mea68a22859" x="73.832727" y="307.584" style="stroke: #000000; stroke-width: 0.8"/>
      </g>
     </g>
     <g id="text_1">
      <!-- 0 -->
      <g transform="translate(70.651477 322.182437) scale(0.1 -0.1)">
       <defs>
        <path id="DejaVuSans-30" d="M 2034 4250 
Q 1547 4250 1301 3770 
Q 1056 3291 1056 2328 
Q 1056 1369 1301 889 
Q 1547 409 2034 409 
Q 2525 409 2770 889 
Q 3016 1369 3016 2328 
Q 3016 3291 2770 3770 
Q 2525 4250 2034 4250 
z
M 2034 4750 
Q 2819 4750 3233 4129 
Q 3647 3509 3647 2328 
Q 3647 1150 3233 529 
Q 2819 -91 2034 -91 
Q 1250 -91 836 529 
Q 422 1150 422 2328 
Q 422 3509 836 4129 
Q 1250 4750 2034 4750 
z
" transform="scale(0.015625)"/>
       </defs>
       <use xlink:href="#DejaVuSans-30"/>
      </g>
     </g>
    </g>
    <g id="xtick_2">
     <g id="line2d_2">
      <g>
       <use xlink:href="#mea68a22859" x="138.828632" y="307.584" style="stroke: #000000; stroke-width: 0.8"/>
      </g>
     </g>
     <g id="text_2">
      <!-- 1 -->
      <g transform="translate(135.647382 322.182437) scale(0.1 -0.1)">
       <defs>
        <path id="DejaVuSans-31" d="M 794 531 
L 1825 531 
L 1825 4091 
L 703 3866 
L 703 4441 
L 1819 4666 
L 2450 4666 
L 2450 531 
L 3481 531 
L 3481 0 
L 794 0 
L 794 531 
z
" transform="scale(0.015625)"/>
       </defs>
       <use xlink:href="#DejaVuSans-31"/>
      </g>
     </g>
    </g>
    <g id="xtick_3">
     <g id="line2d_3">
      <g>
       <use xlink:href="#mea68a22859" x="203.824537" y="307.584" style="stroke: #000000; stroke-width: 0.8"/>
      </g>
     </g>
     <g id="text_3">
      <!-- 2 -->
      <g transform="translate(200.643287 322.182437) scale(0.1 -0.1)">
       <defs>
        <path id="DejaVuSans-32" d="M 1228 531 
L 3431 531 
L 3431 0 
L 469 0 
L 469 531 
Q 828 903 1448 1529 
Q 2069 2156 2228 2338 
Q 2531 2678 2651 2914 
Q 2772 3150 2772 3378 
Q 2772 3750 2511 3984 
Q 2250 4219 1831 4219 
Q 1534 4219 1204 4116 
Q 875 4013 500 3803 
L 500 4441 
Q 881 4594 1212 4672 
Q 1544 4750 1819 4750 
Q 2544 4750 2975 4387 
Q 3406 4025 3406 3419 
Q 3406 3131 3298 2873 
Q 3191 2616 2906 2266 
Q 2828 2175 2409 1742 
Q 1991 1309 1228 531 
z
" transform="scale(0.015625)"/>
       </defs>
       <use xlink:href="#DejaVuSans-32"/>
      </g>
     </g>
    </g>
    <g id="xtick_4">
     <g id="line2d_4">
      <g>
       <use xlink:href="#mea68a22859" x="268.820442" y="307.584" style="stroke: #000000; stroke-width: 0.8"/>
      </g>
     </g>
     <g id="text_4">
      <!-- 3 -->
      <g transform="translate(265.639192 322.182437) scale(0.1 -0.1)">
       <defs>
        <path id="DejaVuSans-33" d="M 2597 2516 
Q 3050 2419 3304 2112 
Q 3559 1806 3559 1356 
Q 3559 666 3084 287 
Q 2609 -91 1734 -91 
Q 1441 -91 1130 -33 
Q 819 25 488 141 
L 488 750 
Q 750 597 1062 519 
Q 1375 441 1716 441 
Q 2309 441 2620 675 
Q 2931 909 2931 1356 
Q 2931 1769 2642 2001 
Q 2353 2234 1838 2234 
L 1294 2234 
L 1294 2753 
L 1863 2753 
Q 2328 2753 2575 2939 
Q 2822 3125 2822 3475 
Q 2822 3834 2567 4026 
Q 2313 4219 1838 4219 
Q 1578 4219 1281 4162 
Q 984 4106 628 3988 
L 628 4550 
Q 988 4650 1302 4700 
Q 1616 4750 1894 4750 
Q 2613 4750 3031 4423 
Q 3450 4097 3450 3541 
Q 3450 3153 3228 2886 
Q 3006 2619 2597 2516 
z
" transform="scale(0.015625)"/>
       </defs>
       <use xlink:href="#DejaVuSans-33"/>
      </g>
     </g>
    </g>
    <g id="xtick_5">
     <g id="line2d_5">
      <g>
       <use xlink:href="#mea68a22859" x="333.816347" y="307.584" style="stroke: #000000; stroke-width: 0.8"/>
      </g>
     </g>
     <g id="text_5">
      <!-- 4 -->
      <g transform="translate(330.635097 322.182437) scale(0.1 -0.1)">
       <defs>
        <path id="DejaVuSans-34" d="M 2419 4116 
L 825 1625 
L 2419 1625 
L 2419 4116 
z
M 2253 4666 
L 3047 4666 
L 3047 1625 
L 3713 1625 
L 3713 1100 
L 3047 1100 
L 3047 0 
L 2419 0 
L 2419 1100 
L 313 1100 
L 313 1709 
L 2253 4666 
z
" transform="scale(0.015625)"/>
       </defs>
       <use xlink:href="#DejaVuSans-34"/>
      </g>
     </g>
    </g>
    <g id="xtick_6">
     <g id="line2d_6">
      <g>
       <use xlink:href="#mea68a22859" x="398.812252" y="307.584" style="stroke: #000000; stroke-width: 0.8"/>
      </g>
     </g>
     <g id="text_6">
      <!-- 5 -->
      <g transform="translate(395.631002 322.182437) scale(0.1 -0.1)">
       <defs>
        <path id="DejaVuSans-35" d="M 691 4666 
L 3169 4666 
L 3169 4134 
L 1269 4134 
L 1269 2991 
Q 1406 3038 1543 3061 
Q 1681 3084 1819 3084 
Q 2600 3084 3056 2656 
Q 3513 2228 3513 1497 
Q 3513 744 3044 326 
Q 2575 -91 1722 -91 
Q 1428 -91 1123 -41 
Q 819 9 494 109 
L 494 744 
Q 775 591 1075 516 
Q 1375 441 1709 441 
Q 2250 441 2565 725 
Q 2881 1009 2881 1497 
Q 2881 1984 2565 2268 
Q 2250 2553 1709 2553 
Q 1456 2553 1204 2497 
Q 953 2441 691 2322 
L 691 4666 
z
" transform="scale(0.015625)"/>
       </defs>
       <use xlink:href="#DejaVuSans-35"/>
      </g>
     </g>
    </g>
    <g id="text_7">
     <!-- 1e−7 -->
     <g transform="translate(387.462188 334.860562) scale(0.1 -0.1)">
      <defs>
       <path id="DejaVuSans-65" d="M 3597 1894 
L 3597 1613 
L 953 1613 
Q 991 1019 1311 708 
Q 1631 397 2203 397 
Q 2534 397 2845 478 
Q 3156 559 3463 722 
L 3463 178 
Q 3153 47 2828 -22 
Q 2503 -91 2169 -91 
Q 1331 -91 842 396 
Q 353 884 353 1716 
Q 353 2575 817 3079 
Q 1281 3584 2069 3584 
Q 2775 3584 3186 3129 
Q 3597 2675 3597 1894 
z
M 3022 2063 
Q 3016 2534 2758 2815 
Q 2500 3097 2075 3097 
Q 1594 3097 1305 2825 
Q 1016 2553 972 2059 
L 3022 2063 
z
" transform="scale(0.015625)"/>
       <path id="DejaVuSans-2212" d="M 678 2272 
L 4684 2272 
L 4684 1741 
L 678 1741 
L 678 2272 
z
" transform="scale(0.015625)"/>
       <path id="DejaVuSans-37" d="M 525 4666 
L 3525 4666 
L 3525 4397 
L 1831 0 
L 1172 0 
L 2766 4134 
L 525 4134 
L 525 4666 
z
" transform="scale(0.015625)"/>
      </defs>
      <use xlink:href="#DejaVuSans-31"/>
      <use xlink:href="#DejaVuSans-65" transform="translate(63.623047 0)"/>
      <use xlink:href="#DejaVuSans-2212" transform="translate(125.146484 0)"/>
      <use xlink:href="#DejaVuSans-37" transform="translate(208.935547 0)"/>
     </g>
    </g>
   </g>
   <g id="matplotlib.axis_2">
    <g id="ytick_1">
     <g id="line2d_7">
      <defs>
       <path id="m2ec29ddbd7" d="M 0 0 
L -3.5 0 
" style="stroke: #000000; stroke-width: 0.8"/>
      </defs>
      <g>
       <use xlink:href="#m2ec29ddbd7" x="57.6" y="304.250276" style="stroke: #000000; stroke-width: 0.8"/>
      </g>
     </g>
     <g id="text_8">
      <!-- 0 -->
      <g transform="translate(44.2375 308.049495) scale(0.1 -0.1)">
       <use xlink:href="#DejaVuSans-30"/>
      </g>
     </g>
    </g>
    <g id="ytick_2">
     <g id="line2d_8">
      <g>
       <use xlink:href="#m2ec29ddbd7" x="57.6" y="274.334942" style="stroke: #000000; stroke-width: 0.8"/>
      </g>
     </g>
     <g id="text_9">
      <!-- 5 -->
      <g transform="translate(44.2375 278.134161) scale(0.1 -0.1)">
       <use xlink:href="#DejaVuSans-35"/>
      </g>
     </g>
    </g>
    <g id="ytick_3">
     <g id="line2d_9">
      <g>
       <use xlink:href="#m2ec29ddbd7" x="57.6" y="244.419607" style="stroke: #000000; stroke-width: 0.8"/>
      </g>
     </g>
     <g id="text_10">
      <!-- 10 -->
      <g transform="translate(37.875 248.218826) scale(0.1 -0.1)">
       <use xlink:href="#DejaVuSans-31"/>
       <use xlink:href="#DejaVuSans-30" transform="translate(63.623047 0)"/>
      </g>
     </g>
    </g>
    <g id="ytick_4">
     <g id="line2d_10">
      <g>
       <use xlink:href="#m2ec29ddbd7" x="57.6" y="214.504273" style="stroke: #000000; stroke-width: 0.8"/>
      </g>
     </g>
     <g id="text_11">
      <!-- 15 -->
      <g transform="translate(37.875 218.303492) scale(0.1 -0.1)">
       <use xlink:href="#DejaVuSans-31"/>
       <use xlink:href="#DejaVuSans-35" transform="translate(63.623047 0)"/>
      </g>
     </g>
    </g>
    <g id="ytick_5">
     <g id="line2d_11">
      <g>
       <use xlink:href="#m2ec29ddbd7" x="57.6" y="184.588938" style="stroke: #000000; stroke-width: 0.8"/>
      </g>
     </g>
     <g id="text_12">
      <!-- 20 -->
      <g transform="translate(37.875 188.388157) scale(0.1 -0.1)">
       <use xlink:href="#DejaVuSans-32"/>
       <use xlink:href="#DejaVuSans-30" transform="translate(63.623047 0)"/>
      </g>
     </g>
    </g>
    <g id="ytick_6">
     <g id="line2d_12">
      <g>
       <use xlink:href="#m2ec29ddbd7" x="57.6" y="154.673604" style="stroke: #000000; stroke-width: 0.8"/>
      </g>
     </g>
     <g id="text_13">
      <!-- 25 -->
      <g transform="translate(37.875 158.472823) scale(0.1 -0.1)">
       <use xlink:href="#DejaVuSans-32"/>
       <use xlink:href="#DejaVuSans-35" transform="translate(63.623047 0)"/>
      </g>
     </g>
    </g>
    <g id="ytick_7">
     <g id="line2d_13">
      <g>
       <use xlink:href="#m2ec29ddbd7" x="57.6" y="124.758269" style="stroke: #000000; stroke-width: 0.8"/>
      </g>
     </g>
     <g id="text_14">
      <!-- 30 -->
      <g transform="translate(37.875 128.557488) scale(0.1 -0.1)">
       <use xlink:href="#DejaVuSans-33"/>
       <use xlink:href="#DejaVuSans-30" transform="translate(63.623047 0)"/>
      </g>
     </g>
    </g>
    <g id="ytick_8">
     <g id="line2d_14">
      <g>
       <use xlink:href="#m2ec29ddbd7" x="57.6" y="94.842935" style="stroke: #000000; stroke-width: 0.8"/>
      </g>
     </g>
     <g id="text_15">
      <!-- 35 -->
      <g transform="translate(37.875 98.642154) scale(0.1 -0.1)">
       <use xlink:href="#DejaVuSans-33"/>
       <use xlink:href="#DejaVuSans-35" transform="translate(63.623047 0)"/>
      </g>
     </g>
    </g>
    <g id="ytick_9">
     <g id="line2d_15">
      <g>
       <use xlink:href="#m2ec29ddbd7" x="57.6" y="64.9276" style="stroke: #000000; stroke-width: 0.8"/>
      </g>
     </g>
     <g id="text_16">
      <!-- 40 -->
      <g transform="translate(37.875 68.726819) scale(0.1 -0.1)">
       <use xlink:href="#DejaVuSans-34"/>
       <use xlink:href="#DejaVuSans-30" transform="translate(63.623047 0)"/>
      </g>
     </g>
    </g>
   </g>
   <g id="line2d_16">
    <path d="M 73.832727 179.522029 
L 74.157707 179.802485 
L 74.482686 180.269912 
L 75.132645 180.082941 
L 75.457625 179.802485 
L 76.107584 179.802485 
L 77.407502 179.148087 
L 77.732482 179.054602 
L 78.70742 179.709 
L 79.0324 180.082941 
L 79.357379 179.989456 
L 79.682359 180.176427 
L 80.007338 180.176427 
L 80.332318 180.363397 
L 80.657297 180.363397 
L 81.307256 179.709 
L 81.957215 178.774145 
L 82.282195 178.400204 
L 82.932154 178.68066 
L 83.257133 178.961116 
L 84.232072 180.269912 
L 85.207011 180.176427 
L 85.53199 180.082941 
L 86.181949 179.428543 
L 87.481867 178.774145 
L 88.131826 178.961116 
L 88.456806 179.241572 
L 89.106765 180.082941 
L 89.431744 180.269912 
L 90.081704 180.176427 
L 90.731663 179.428543 
L 91.381622 179.241572 
L 92.031581 178.119747 
L 92.35656 178.306718 
L 93.656478 180.737339 
L 93.981458 180.550368 
L 94.306437 179.802485 
L 94.631417 179.522029 
L 95.606355 179.241572 
L 95.931335 179.335058 
L 96.906274 179.148087 
L 97.231253 179.148087 
L 97.556233 179.522029 
L 98.206192 180.456883 
L 98.531171 180.082941 
L 99.18113 178.867631 
L 99.50611 178.867631 
L 100.156069 180.082941 
L 100.481048 180.176427 
L 101.455987 178.867631 
L 101.780966 178.961116 
L 102.105946 179.615514 
L 102.430925 179.989456 
L 102.755905 180.550368 
L 103.080885 180.269912 
L 103.730844 178.961116 
L 104.055823 178.961116 
L 104.705782 180.082941 
L 105.030762 180.456883 
L 105.355741 180.082941 
L 105.680721 179.335058 
L 106.0057 179.054602 
L 106.33068 179.522029 
L 106.655659 180.269912 
L 106.980639 180.737339 
L 108.280557 179.054602 
L 108.605536 179.335058 
L 108.930516 179.335058 
L 109.255495 179.522029 
L 109.580475 179.89597 
L 111.855332 180.550368 
L 112.180311 180.269912 
L 112.505291 179.802485 
L 112.83027 179.054602 
L 113.15525 178.961116 
L 113.480229 179.148087 
L 113.805209 179.615514 
L 114.455168 179.89597 
L 115.105127 180.269912 
L 115.755086 180.92431 
L 116.080066 180.92431 
L 116.405045 180.643854 
L 117.379984 179.241572 
L 118.029943 179.709 
L 118.354922 179.89597 
L 118.679902 179.709 
L 119.004881 179.709 
L 119.329861 179.989456 
L 119.97982 181.111281 
L 120.304799 180.92431 
L 120.954758 179.802485 
L 123.229615 179.709 
L 123.554595 179.989456 
L 124.529533 179.989456 
L 125.179492 181.111281 
L 125.504472 180.92431 
L 126.154431 179.709 
L 126.47941 179.709 
L 126.80439 180.082941 
L 127.129369 180.269912 
L 127.779328 179.428543 
L 128.104308 179.335058 
L 128.429287 179.615514 
L 129.079247 180.550368 
L 130.379165 180.269912 
L 130.704144 180.269912 
L 131.029124 180.082941 
L 131.354103 179.522029 
L 131.679083 179.522029 
L 132.329042 180.176427 
L 132.979001 180.176427 
L 133.62896 180.456883 
L 133.953939 180.550368 
L 134.603898 180.269912 
L 134.928878 179.989456 
L 135.253857 180.082941 
L 135.903817 179.989456 
L 136.553776 179.989456 
L 136.878755 179.802485 
L 137.203735 179.89597 
L 137.528714 180.176427 
L 138.178673 179.802485 
L 138.503653 179.428543 
L 138.828632 179.428543 
L 139.153612 179.89597 
L 139.478591 179.89597 
L 140.12855 180.363397 
L 140.45353 180.550368 
L 141.103489 180.456883 
L 141.428468 180.643854 
L 142.728387 179.802485 
L 143.053366 179.522029 
L 143.378346 179.428543 
L 144.028305 179.89597 
L 144.678264 180.643854 
L 145.003243 180.550368 
L 145.328223 180.082941 
L 145.978182 179.989456 
L 146.628141 180.269912 
L 146.95312 179.989456 
L 147.603079 178.961116 
L 147.928059 179.054602 
L 148.578018 180.269912 
L 148.902998 180.363397 
L 149.552957 179.615514 
L 149.877936 179.89597 
L 150.202916 180.550368 
L 150.527895 180.830825 
L 150.852875 180.643854 
L 151.502834 179.335058 
L 152.152793 180.082941 
L 152.477772 180.176427 
L 153.127731 178.774145 
L 153.452711 178.867631 
L 154.10267 180.737339 
L 154.427649 180.737339 
L 155.077609 179.522029 
L 155.402588 179.802485 
L 155.727568 180.269912 
L 156.052547 180.363397 
L 157.027486 179.054602 
L 157.352465 179.335058 
L 157.677445 179.989456 
L 158.002424 180.082941 
L 158.652383 179.709 
L 158.977363 179.802485 
L 159.302342 180.363397 
L 159.627322 180.643854 
L 159.952301 180.363397 
L 160.277281 179.522029 
L 160.60226 179.148087 
L 160.92724 179.428543 
L 161.577199 180.269912 
L 162.227158 179.522029 
L 162.552138 179.428543 
L 162.877117 179.615514 
L 163.202097 180.082941 
L 163.527076 180.269912 
L 164.177035 179.428543 
L 164.826994 179.335058 
L 165.151974 179.709 
L 165.476953 179.802485 
L 165.801933 180.082941 
L 166.776871 180.363397 
L 167.42683 180.176427 
L 168.401769 179.241572 
L 169.376708 179.335058 
L 170.351646 180.269912 
L 170.676626 180.082941 
L 171.001605 180.082941 
L 171.326585 179.709 
L 171.976544 179.709 
L 173.276462 179.054602 
L 173.601441 179.054602 
L 173.926421 179.335058 
L 174.57638 179.615514 
L 174.90136 180.082941 
L 175.876298 180.176427 
L 176.201278 180.363397 
L 176.526257 180.363397 
L 176.851237 180.176427 
L 177.176216 179.802485 
L 177.501196 179.148087 
L 178.151155 178.493689 
L 178.476134 178.493689 
L 179.451073 179.335058 
L 179.776052 179.89597 
L 180.101032 180.176427 
L 180.750991 180.269912 
L 181.075971 180.269912 
L 181.40095 180.082941 
L 182.050909 179.335058 
L 182.700868 179.054602 
L 183.025848 178.961116 
L 183.350827 178.68066 
L 184.000786 178.774145 
L 184.975725 179.989456 
L 185.625684 180.269912 
L 185.950663 180.176427 
L 186.275643 179.709 
L 186.925602 179.428543 
L 187.250581 179.335058 
L 187.900541 178.119747 
L 188.22552 178.400204 
L 188.875479 179.615514 
L 189.200459 180.363397 
L 189.525438 180.830825 
L 190.500377 179.615514 
L 191.150336 179.335058 
L 191.800295 179.428543 
L 192.450254 179.148087 
L 193.100213 179.148087 
L 193.425192 179.522029 
L 194.075152 180.456883 
L 194.400131 180.082941 
L 195.05009 178.867631 
L 195.37507 178.774145 
L 196.025029 179.989456 
L 196.350008 180.082941 
L 196.674988 179.615514 
L 196.999967 179.428543 
L 197.324947 178.867631 
L 197.649926 178.961116 
L 198.624865 180.363397 
L 198.949844 180.269912 
L 199.599803 178.774145 
L 199.924783 178.961116 
L 200.899722 180.550368 
L 201.224701 180.082941 
L 201.549681 179.241572 
L 201.87466 178.961116 
L 202.849599 180.550368 
L 203.174578 180.363397 
L 203.499558 179.615514 
L 203.824537 179.241572 
L 204.149517 179.054602 
L 204.799476 179.335058 
L 205.774414 180.176427 
L 206.099394 180.269912 
L 206.424373 180.176427 
L 207.724292 180.550368 
L 208.049271 180.363397 
L 208.69923 179.054602 
L 209.02421 179.054602 
L 209.999148 179.709 
L 210.324128 179.989456 
L 210.649107 179.89597 
L 211.299066 180.550368 
L 211.949025 181.017795 
L 212.274005 180.643854 
L 212.923964 179.522029 
L 213.248943 179.241572 
L 214.223882 179.802485 
L 214.548862 179.615514 
L 215.198821 179.709 
L 215.5238 180.550368 
L 215.84878 181.017795 
L 216.173759 180.830825 
L 216.823718 179.802485 
L 217.473677 179.709 
L 217.798657 179.89597 
L 218.773595 179.615514 
L 219.098575 179.709 
L 219.423554 180.082941 
L 220.398493 179.89597 
L 221.048452 181.017795 
L 221.373432 180.830825 
L 222.023391 179.709 
L 222.67335 179.989456 
L 222.998329 180.269912 
L 223.323309 179.89597 
L 223.648288 179.241572 
L 223.973268 179.241572 
L 224.298247 179.522029 
L 224.623227 180.176427 
L 224.948206 180.456883 
L 225.273186 180.550368 
L 225.598165 180.269912 
L 226.573104 180.269912 
L 226.898084 180.082941 
L 227.223063 179.615514 
L 227.548043 179.615514 
L 227.873022 179.802485 
L 228.198002 180.176427 
L 228.847961 180.269912 
L 229.17294 180.456883 
L 230.147879 180.363397 
L 230.797838 179.89597 
L 231.447797 179.89597 
L 232.097756 180.176427 
L 232.422735 179.89597 
L 232.747715 179.989456 
L 233.072695 179.89597 
L 233.397674 180.176427 
L 234.047633 179.89597 
L 234.372613 179.615514 
L 234.697592 179.615514 
L 235.022572 179.89597 
L 235.99751 180.269912 
L 236.32249 180.550368 
L 237.622408 180.550368 
L 237.947387 180.363397 
L 238.272367 179.89597 
L 238.597346 179.89597 
L 239.247305 179.522029 
L 239.897265 179.89597 
L 240.222244 180.456883 
L 240.547224 180.737339 
L 240.872203 180.643854 
L 241.197183 180.269912 
L 241.522162 180.082941 
L 242.172121 180.176427 
L 242.497101 180.363397 
L 243.14706 179.522029 
L 243.472039 179.054602 
L 243.797019 179.241572 
L 244.446978 180.363397 
L 244.771957 180.363397 
L 245.421916 179.709 
L 245.746896 179.989456 
L 246.071876 180.737339 
L 246.396855 181.017795 
L 246.721835 180.643854 
L 247.046814 179.89597 
L 247.371794 179.522029 
L 248.021753 180.363397 
L 248.346732 180.269912 
L 248.996691 178.867631 
L 249.321671 178.961116 
L 249.97163 180.92431 
L 250.296609 180.92431 
L 250.946568 179.709 
L 251.271548 179.802485 
L 251.596527 180.363397 
L 251.921507 180.643854 
L 252.571466 179.428543 
L 252.896446 179.241572 
L 253.221425 179.522029 
L 253.546405 180.176427 
L 253.871384 180.269912 
L 254.521343 179.89597 
L 255.496282 180.830825 
L 255.821261 180.456883 
L 256.146241 179.709 
L 256.47122 179.335058 
L 256.7962 179.428543 
L 257.121179 180.176427 
L 257.446159 180.363397 
L 257.771138 180.176427 
L 258.421097 179.428543 
L 259.071057 180.176427 
L 259.396036 180.363397 
L 259.721016 180.082941 
L 260.045995 179.522029 
L 260.695954 179.335058 
L 261.020934 179.709 
L 262.320852 180.363397 
L 262.645831 180.269912 
L 262.970811 180.363397 
L 263.29579 180.176427 
L 263.945749 179.335058 
L 264.270729 179.148087 
L 264.595708 179.335058 
L 265.245667 179.241572 
L 266.220606 180.176427 
L 266.545586 180.176427 
L 267.520524 179.709 
L 267.845504 179.709 
L 268.820442 179.241572 
L 269.470401 179.054602 
L 270.44534 179.709 
L 270.770319 179.989456 
L 271.095299 179.89597 
L 272.070238 180.456883 
L 272.395217 180.363397 
L 272.720197 180.082941 
L 274.020115 178.400204 
L 274.670074 178.587174 
L 275.969992 180.269912 
L 276.294971 180.082941 
L 276.619951 180.269912 
L 276.94493 180.269912 
L 277.26991 180.082941 
L 277.919869 179.335058 
L 278.244848 179.054602 
L 279.544767 178.68066 
L 280.194726 179.335058 
L 280.519705 179.709 
L 281.494644 180.176427 
L 281.819623 180.176427 
L 282.144603 179.615514 
L 282.469582 179.335058 
L 283.119541 179.241572 
L 283.444521 178.493689 
L 283.7695 178.119747 
L 284.09448 178.306718 
L 284.419459 178.774145 
L 285.069419 180.363397 
L 285.394398 180.737339 
L 285.719378 180.363397 
L 286.044357 179.802485 
L 286.694316 179.241572 
L 287.669255 179.148087 
L 288.644193 178.961116 
L 289.619132 179.89597 
L 289.944111 180.269912 
L 290.269091 180.082941 
L 290.59407 179.615514 
L 290.91905 178.867631 
L 291.244029 178.68066 
L 291.893989 179.89597 
L 292.218968 180.082941 
L 292.868927 179.241572 
L 293.193907 178.774145 
L 293.518886 178.867631 
L 293.843866 179.241572 
L 294.493825 180.269912 
L 294.818804 180.176427 
L 295.468763 178.774145 
L 295.793743 178.867631 
L 296.443702 180.082941 
L 296.768681 180.456883 
L 297.41864 179.241572 
L 297.74362 179.054602 
L 298.0686 179.428543 
L 298.393579 180.176427 
L 298.718559 180.643854 
L 299.693497 179.241572 
L 300.018477 179.054602 
L 300.343456 179.241572 
L 300.668436 179.241572 
L 300.993415 179.709 
L 301.968354 180.269912 
L 302.293333 180.082941 
L 302.618313 180.176427 
L 302.943292 180.082941 
L 303.268272 180.363397 
L 303.918231 180.269912 
L 304.56819 179.054602 
L 304.89317 178.961116 
L 305.218149 179.148087 
L 305.543129 179.522029 
L 306.843047 180.269912 
L 307.168026 180.643854 
L 307.817985 180.92431 
L 308.142965 180.550368 
L 308.792924 179.335058 
L 309.442883 179.335058 
L 310.092842 179.89597 
L 310.417821 179.615514 
L 311.067781 179.89597 
L 311.71774 181.111281 
L 312.367699 180.269912 
L 312.692678 179.709 
L 314.317576 179.615514 
L 314.642555 179.522029 
L 315.292514 179.989456 
L 315.942473 179.89597 
L 316.267453 179.989456 
L 316.917412 181.017795 
L 317.242391 180.830825 
L 317.892351 179.615514 
L 318.21733 179.709 
L 318.867289 180.269912 
L 319.192269 179.989456 
L 319.517248 179.522029 
L 319.842228 179.335058 
L 320.167207 179.615514 
L 320.492187 180.269912 
L 321.142146 180.550368 
L 321.467125 180.269912 
L 322.442064 180.363397 
L 322.767043 180.082941 
L 323.092023 179.522029 
L 323.417002 179.522029 
L 324.391941 180.269912 
L 325.0419 180.363397 
L 325.36688 180.643854 
L 326.341818 180.269912 
L 326.666798 180.082941 
L 326.991777 180.176427 
L 327.641736 180.082941 
L 327.966716 180.176427 
L 328.291695 179.989456 
L 329.266634 180.176427 
L 329.591613 180.176427 
L 330.241572 179.522029 
L 330.566552 179.615514 
L 330.891532 179.989456 
L 331.216511 179.989456 
L 332.516429 180.643854 
L 333.491368 180.550368 
L 333.816347 180.363397 
L 334.466306 179.709 
L 335.116265 179.428543 
L 335.441245 179.522029 
L 336.416183 180.550368 
L 336.741163 180.550368 
L 337.066143 180.082941 
L 337.716102 179.989456 
L 338.366061 180.269912 
L 338.69104 179.989456 
L 339.340999 178.961116 
L 339.665979 179.148087 
L 340.315938 180.363397 
L 340.640917 180.363397 
L 341.290876 179.709 
L 341.615856 179.989456 
L 341.940835 180.830825 
L 342.265815 180.92431 
L 342.590794 180.643854 
L 343.240753 179.522029 
L 343.890713 180.269912 
L 344.215692 180.269912 
L 344.865651 178.867631 
L 345.190631 179.054602 
L 345.84059 180.830825 
L 346.165569 180.92431 
L 346.815528 179.709 
L 347.140508 179.89597 
L 347.465487 180.363397 
L 347.790467 180.550368 
L 348.765405 179.241572 
L 349.090385 179.428543 
L 349.415364 180.082941 
L 349.740344 180.269912 
L 350.065324 179.989456 
L 350.390303 179.89597 
L 351.365242 180.830825 
L 351.690221 180.363397 
L 352.015201 179.522029 
L 352.34018 179.241572 
L 352.66516 179.428543 
L 352.990139 180.176427 
L 353.315119 180.269912 
L 353.640098 180.176427 
L 354.290057 179.335058 
L 355.264996 180.082941 
L 356.239934 179.335058 
L 356.564914 179.335058 
L 356.889894 179.802485 
L 357.539853 179.89597 
L 357.864832 179.989456 
L 358.189812 180.363397 
L 358.839771 180.363397 
L 360.139689 179.148087 
L 361.439607 179.522029 
L 362.089566 180.176427 
L 362.739525 180.082941 
L 363.064505 179.802485 
L 363.389484 179.802485 
L 364.039443 179.428543 
L 364.364423 179.428543 
L 364.689402 179.148087 
L 365.014382 179.148087 
L 365.339361 178.961116 
L 366.3143 179.709 
L 366.964259 179.989456 
L 368.264177 180.269912 
L 368.589156 180.082941 
L 369.889075 178.400204 
L 370.864013 178.867631 
L 371.838952 180.176427 
L 372.163931 180.269912 
L 372.81389 180.176427 
L 373.13887 180.176427 
L 373.463849 179.709 
L 373.788829 179.522029 
L 374.113808 179.148087 
L 375.413726 178.774145 
L 375.738706 178.961116 
L 376.713645 180.082941 
L 377.363604 180.269912 
L 377.688583 180.176427 
L 378.013563 179.709 
L 378.663522 179.428543 
L 378.988501 179.335058 
L 379.313481 178.587174 
L 379.63846 178.119747 
L 379.96344 178.400204 
L 380.613399 179.709 
L 380.938378 180.456883 
L 381.263358 180.737339 
L 381.588337 180.363397 
L 381.913317 179.802485 
L 382.238296 179.522029 
L 383.863194 179.148087 
L 384.188174 179.241572 
L 384.513153 179.148087 
L 384.838133 179.335058 
L 385.813071 180.456883 
L 386.138051 180.082941 
L 386.78801 178.961116 
L 387.112989 178.867631 
L 387.762948 180.082941 
L 388.087928 180.082941 
L 389.062867 178.867631 
L 389.387846 179.054602 
L 390.362785 180.363397 
L 390.687764 180.269912 
L 391.012744 179.709 
L 391.337723 178.867631 
L 391.662703 178.961116 
L 392.637641 180.456883 
L 392.962621 180.082941 
L 393.2876 179.428543 
L 393.61258 179.054602 
L 394.587518 180.737339 
L 395.887437 179.054602 
L 397.187355 179.89597 
L 397.512334 180.176427 
L 398.487273 180.176427 
L 398.487273 180.176427 
" clip-path="url(#p2e265caeff)" style="fill: none; stroke: #1f77b4; stroke-width: 1.5; stroke-linecap: square"/>
   </g>
   <g id="line2d_17">
    <path d="M 73.832727 295.403863 
L 134.603898 295.310378 
L 135.903817 295.338423 
L 177.176216 295.441257 
L 178.801114 295.450606 
L 180.750991 295.431909 
L 225.273186 295.347772 
L 226.573104 295.338423 
L 270.44534 295.431909 
L 272.070238 295.441257 
L 275.645012 295.431909 
L 279.869746 295.459954 
L 281.169664 295.450606 
L 285.394398 295.42256 
L 289.619132 295.441257 
L 320.817166 295.347772 
L 322.767043 295.329075 
L 364.039443 295.42256 
L 365.339361 295.403863 
L 368.264177 295.42256 
L 369.889075 295.478651 
L 372.163931 295.450606 
L 375.413726 295.459954 
L 398.487273 295.385166 
L 398.487273 295.385166 
" clip-path="url(#p2e265caeff)" style="fill: none; stroke: #ff7f0e; stroke-width: 1.5; stroke-linecap: square"/>
   </g>
   <g id="line2d_18">
    <path d="M 73.832727 54.128913 
L 75.782604 54.689825 
L 76.432563 54.409369 
L 76.757543 54.315883 
L 77.082523 54.409369 
L 77.407502 54.035427 
L 77.732482 53.941942 
L 78.70742 54.222398 
L 79.357379 54.689825 
L 79.682359 54.876796 
L 80.007338 54.783311 
L 80.982277 54.970281 
L 82.282195 54.59634 
L 82.607174 54.315883 
L 83.257133 54.222398 
L 84.882031 55.063767 
L 85.207011 55.157252 
L 85.53199 55.531194 
L 85.85697 55.531194 
L 86.506929 54.876796 
L 86.831908 54.783311 
L 87.156888 54.502854 
L 87.481867 54.689825 
L 87.806847 54.59634 
L 88.131826 54.689825 
L 88.456806 54.502854 
L 89.106765 54.970281 
L 89.756724 55.250738 
L 90.081704 55.157252 
L 90.406683 54.783311 
L 91.381622 54.970281 
L 91.706601 54.783311 
L 92.031581 54.783311 
L 92.35656 54.409369 
L 93.006519 54.409369 
L 93.331499 54.689825 
L 93.656478 54.59634 
L 94.306437 55.063767 
L 94.631417 55.344223 
L 95.281376 55.437709 
L 95.606355 55.063767 
L 95.931335 54.876796 
L 96.256314 54.876796 
L 96.906274 54.502854 
L 97.881212 54.59634 
L 98.206192 54.783311 
L 98.531171 55.250738 
L 99.18113 55.718165 
L 99.50611 55.437709 
L 100.481048 55.157252 
L 100.806028 54.783311 
L 102.105946 54.409369 
L 102.430925 54.689825 
L 102.755905 54.689825 
L 103.080885 54.970281 
L 103.405864 55.063767 
L 103.730844 55.437709 
L 104.705782 55.624679 
L 106.980639 54.409369 
L 107.305618 54.409369 
L 107.955577 55.250738 
L 108.930516 55.437709 
L 109.255495 55.344223 
L 109.580475 55.531194 
L 109.905455 55.437709 
L 110.555414 54.970281 
L 111.205373 54.689825 
L 111.530352 55.063767 
L 111.855332 55.250738 
L 112.83027 54.783311 
L 113.15525 54.970281 
L 113.480229 55.344223 
L 114.130188 55.250738 
L 114.780147 54.970281 
L 115.430106 54.876796 
L 116.080066 54.876796 
L 116.405045 54.502854 
L 117.055004 55.344223 
L 117.704963 55.157252 
L 118.029943 55.344223 
L 119.329861 54.970281 
L 119.65484 54.59634 
L 119.97982 54.502854 
L 120.954758 54.876796 
L 121.279738 55.250738 
L 121.604717 55.063767 
L 121.929697 55.250738 
L 122.579656 55.157252 
L 122.904636 55.063767 
L 123.229615 55.344223 
L 123.554595 55.250738 
L 124.204554 54.502854 
L 124.854513 54.59634 
L 126.154431 54.689825 
L 126.47941 54.876796 
L 127.779328 54.876796 
L 128.104308 54.59634 
L 128.429287 54.502854 
L 129.079247 54.59634 
L 129.404226 54.315883 
L 129.729206 54.222398 
L 130.379165 54.502854 
L 130.704144 54.689825 
L 131.679083 54.689825 
L 132.329042 54.409369 
L 132.654021 54.689825 
L 132.979001 54.689825 
L 133.62896 54.222398 
L 133.953939 54.128913 
L 135.578837 54.502854 
L 136.878755 54.409369 
L 137.528714 53.941942 
L 138.503653 54.128913 
L 139.153612 53.941942 
L 140.45353 54.59634 
L 140.778509 54.59634 
L 141.428468 54.315883 
L 141.753448 54.315883 
L 142.078428 54.502854 
L 142.403407 54.128913 
L 144.028305 54.128913 
L 144.353284 54.315883 
L 144.678264 54.315883 
L 145.003243 54.128913 
L 145.328223 54.502854 
L 145.978182 54.689825 
L 146.628141 54.315883 
L 147.603079 54.222398 
L 148.902998 53.941942 
L 149.877936 54.222398 
L 150.202916 54.128913 
L 150.527895 54.409369 
L 151.502834 54.59634 
L 152.152793 53.941942 
L 152.477772 54.128913 
L 153.452711 54.035427 
L 153.77769 53.754971 
L 154.10267 53.661485 
L 156.052547 54.128913 
L 158.652383 54.035427 
L 159.302342 53.568 
L 160.277281 54.222398 
L 160.92724 53.941942 
L 161.252219 53.848456 
L 161.902179 54.222398 
L 162.227158 54.222398 
L 162.552138 53.848456 
L 163.202097 53.568 
L 164.177035 54.035427 
L 164.826994 53.754971 
L 165.476953 54.315883 
L 166.126912 54.409369 
L 166.451892 54.128913 
L 167.101851 54.035427 
L 168.726749 54.035427 
L 169.051728 54.222398 
L 170.026667 54.315883 
L 171.326585 54.689825 
L 173.926421 54.035427 
L 174.2514 54.222398 
L 174.57638 54.128913 
L 174.90136 54.222398 
L 175.226339 54.59634 
L 176.526257 54.876796 
L 177.501196 54.783311 
L 178.801114 54.035427 
L 179.126093 54.035427 
L 179.451073 54.315883 
L 179.776052 54.315883 
L 181.72593 55.344223 
L 182.375889 54.876796 
L 183.025848 54.409369 
L 183.675807 54.59634 
L 184.000786 54.409369 
L 184.325766 54.502854 
L 184.650745 54.783311 
L 184.975725 54.689825 
L 185.625684 55.063767 
L 185.950663 54.876796 
L 187.575561 54.783311 
L 188.5505 54.222398 
L 188.875479 54.59634 
L 189.850418 54.689825 
L 190.500377 55.157252 
L 190.825356 55.437709 
L 192.450254 54.59634 
L 193.425192 54.315883 
L 193.750172 54.409369 
L 194.075152 54.876796 
L 194.400131 55.063767 
L 194.725111 55.437709 
L 195.05009 55.624679 
L 196.350008 54.970281 
L 196.674988 54.876796 
L 196.999967 54.59634 
L 197.324947 54.59634 
L 197.649926 54.409369 
L 198.299885 54.409369 
L 200.249762 55.531194 
L 201.549681 54.783311 
L 201.87466 54.876796 
L 202.524619 54.409369 
L 202.849599 54.315883 
L 203.174578 54.409369 
L 203.824537 55.063767 
L 204.799476 55.063767 
L 205.449435 55.437709 
L 206.749353 54.689825 
L 207.074333 54.689825 
L 207.724292 55.250738 
L 208.049271 54.876796 
L 209.02421 54.876796 
L 209.674169 55.344223 
L 210.324128 54.876796 
L 211.299066 54.689825 
L 211.624046 54.783311 
L 211.949025 54.59634 
L 212.598984 54.783311 
L 212.923964 55.063767 
L 213.573923 55.250738 
L 213.898903 55.157252 
L 214.223882 55.250738 
L 215.5238 54.502854 
L 216.498739 54.502854 
L 217.148698 55.250738 
L 217.473677 55.344223 
L 217.798657 55.157252 
L 218.773595 55.344223 
L 219.423554 55.250738 
L 220.398493 54.502854 
L 221.048452 54.689825 
L 221.698411 54.59634 
L 222.67335 55.157252 
L 224.623227 54.689825 
L 224.948206 54.689825 
L 225.923145 54.222398 
L 226.248124 54.502854 
L 227.223063 54.783311 
L 228.198002 54.502854 
L 228.847961 54.59634 
L 230.147879 54.315883 
L 231.447797 54.59634 
L 232.422735 54.409369 
L 232.747715 54.502854 
L 233.397674 54.035427 
L 234.372613 54.222398 
L 235.022572 53.941942 
L 235.347551 54.035427 
L 235.672531 54.502854 
L 235.99751 54.502854 
L 236.32249 54.689825 
L 237.622408 54.409369 
L 238.272367 54.409369 
L 238.597346 53.941942 
L 239.247305 54.035427 
L 239.897265 54.315883 
L 240.547224 54.222398 
L 241.197183 54.502854 
L 241.847142 54.783311 
L 242.497101 54.315883 
L 243.14706 54.502854 
L 243.472039 54.409369 
L 244.121998 53.941942 
L 244.446978 53.848456 
L 246.071876 54.315883 
L 246.396855 54.222398 
L 247.046814 54.689825 
L 247.371794 54.502854 
L 247.696773 54.128913 
L 248.021753 54.035427 
L 248.671712 54.222398 
L 248.996691 54.035427 
L 249.321671 54.035427 
L 249.64665 53.661485 
L 249.97163 53.568 
L 252.571466 54.222398 
L 252.896446 54.035427 
L 253.546405 54.035427 
L 253.871384 54.222398 
L 254.196364 53.941942 
L 254.521343 53.941942 
L 255.171302 53.568 
L 256.146241 54.128913 
L 256.47122 54.035427 
L 256.7962 53.754971 
L 257.121179 53.754971 
L 257.771138 54.035427 
L 258.096118 54.035427 
L 258.746077 53.568 
L 259.396036 53.754971 
L 259.721016 54.035427 
L 260.045995 53.848456 
L 260.695954 53.848456 
L 261.670893 54.409369 
L 262.320852 54.128913 
L 263.29579 53.941942 
L 263.62077 54.128913 
L 264.595708 53.941942 
L 264.920688 54.128913 
L 265.570647 54.222398 
L 266.870565 54.689825 
L 267.195545 54.502854 
L 267.520524 54.689825 
L 268.495463 54.222398 
L 268.820442 54.222398 
L 269.145422 54.035427 
L 270.44534 54.128913 
L 270.770319 54.315883 
L 271.095299 54.689825 
L 271.420278 54.689825 
L 271.745258 54.876796 
L 272.070238 54.876796 
L 272.395217 54.689825 
L 273.045176 54.876796 
L 274.020115 54.409369 
L 274.995053 54.128913 
L 275.320033 54.315883 
L 275.645012 54.315883 
L 276.94493 55.063767 
L 277.26991 55.437709 
L 278.244848 54.876796 
L 278.569828 54.502854 
L 278.894808 54.315883 
L 279.869746 54.502854 
L 280.194726 54.409369 
L 280.519705 54.689825 
L 281.494644 55.063767 
L 281.819623 54.876796 
L 283.444521 54.783311 
L 283.7695 54.59634 
L 284.09448 54.222398 
L 284.744439 54.502854 
L 285.069419 54.783311 
L 285.394398 54.502854 
L 286.044357 54.876796 
L 286.369337 55.344223 
L 286.694316 55.437709 
L 288.319214 54.59634 
L 288.644193 54.59634 
L 289.294152 54.222398 
L 289.619132 54.409369 
L 290.269091 55.250738 
L 291.244029 55.437709 
L 292.218968 55.063767 
L 292.543948 54.783311 
L 293.193907 54.502854 
L 293.518886 54.315883 
L 294.168845 54.409369 
L 294.493825 54.502854 
L 295.468763 55.344223 
L 296.768681 55.344223 
L 297.093661 55.157252 
L 297.41864 54.783311 
L 298.718559 54.315883 
L 299.693497 54.970281 
L 300.018477 55.250738 
L 300.343456 55.157252 
L 300.668436 55.344223 
L 300.993415 55.250738 
L 301.643374 55.344223 
L 301.968354 55.250738 
L 302.618313 54.59634 
L 303.593251 55.063767 
L 304.24321 54.783311 
L 304.56819 54.689825 
L 304.89317 54.876796 
L 305.218149 55.250738 
L 305.868108 55.250738 
L 306.193088 54.876796 
L 306.843047 54.689825 
L 307.493006 54.783311 
L 308.142965 54.689825 
L 308.792924 55.157252 
L 309.117903 55.344223 
L 310.092842 55.157252 
L 310.417821 55.157252 
L 310.742801 54.876796 
L 311.067781 54.876796 
L 311.39276 54.59634 
L 312.042719 54.502854 
L 312.692678 55.063767 
L 313.667617 55.344223 
L 314.317576 55.250738 
L 314.967535 55.250738 
L 315.942473 54.689825 
L 316.267453 54.689825 
L 316.592432 54.502854 
L 316.917412 54.689825 
L 317.892351 54.689825 
L 318.54231 54.970281 
L 318.867289 55.063767 
L 319.192269 54.876796 
L 319.517248 54.970281 
L 320.167207 54.502854 
L 320.817166 54.59634 
L 321.142146 54.409369 
L 322.117084 54.502854 
L 322.767043 54.783311 
L 323.417002 54.783311 
L 323.741982 54.59634 
L 325.0419 54.502854 
L 325.36688 54.128913 
L 325.691859 54.035427 
L 326.341818 54.315883 
L 326.666798 54.502854 
L 328.616675 54.409369 
L 329.916593 54.128913 
L 330.241572 54.222398 
L 330.891532 53.848456 
L 331.86647 54.689825 
L 332.516429 54.783311 
L 332.841409 54.502854 
L 333.816347 54.409369 
L 334.466306 54.128913 
L 334.791286 53.941942 
L 335.116265 53.941942 
L 335.441245 54.222398 
L 335.766224 54.315883 
L 336.091204 54.222398 
L 336.741163 54.409369 
L 337.066143 54.689825 
L 337.716102 54.970281 
L 338.041081 54.59634 
L 338.366061 54.409369 
L 339.665979 54.315883 
L 339.990958 53.941942 
L 340.640917 53.848456 
L 340.965897 54.035427 
L 341.615856 54.035427 
L 342.915774 54.783311 
L 343.565733 54.315883 
L 343.890713 54.035427 
L 344.865651 54.315883 
L 345.51561 53.661485 
L 346.490549 53.754971 
L 346.815528 54.035427 
L 347.465487 54.222398 
L 347.790467 54.128913 
L 348.115446 54.222398 
L 349.090385 54.035427 
L 349.740344 54.128913 
L 350.065324 54.222398 
L 350.715283 53.754971 
L 351.365242 53.568 
L 351.690221 53.941942 
L 352.015201 54.128913 
L 352.66516 54.035427 
L 352.990139 53.848456 
L 353.640098 54.128913 
L 353.965078 54.128913 
L 354.290057 53.941942 
L 354.615037 53.568 
L 354.940016 53.568 
L 355.264996 53.941942 
L 356.889894 53.848456 
L 357.214873 54.222398 
L 357.864832 54.502854 
L 358.514791 54.035427 
L 358.839771 53.848456 
L 359.48973 54.222398 
L 360.139689 53.941942 
L 360.464668 54.128913 
L 360.789648 54.035427 
L 361.439607 54.315883 
L 362.089566 54.315883 
L 362.414545 54.59634 
L 363.714464 54.59634 
L 364.039443 54.409369 
L 364.689402 54.409369 
L 365.339361 53.941942 
L 366.639279 54.409369 
L 366.964259 54.59634 
L 367.289238 54.59634 
L 367.614218 54.876796 
L 368.264177 54.970281 
L 369.889075 54.502854 
L 370.214054 54.222398 
L 370.539034 54.128913 
L 372.163931 54.689825 
L 373.463849 55.344223 
L 374.438788 54.502854 
L 374.763767 54.409369 
L 375.413726 54.502854 
L 375.738706 54.502854 
L 376.063686 54.689825 
L 376.388665 54.59634 
L 377.038624 55.063767 
L 377.363604 55.063767 
L 377.688583 54.876796 
L 378.338542 54.970281 
L 379.313481 54.876796 
L 379.96344 54.409369 
L 380.613399 54.502854 
L 381.263358 54.689825 
L 381.588337 54.59634 
L 382.238296 55.344223 
L 382.563276 55.437709 
L 382.888256 55.157252 
L 383.213235 55.157252 
L 384.513153 54.502854 
L 385.163112 54.409369 
L 385.813071 54.689825 
L 386.46303 55.437709 
L 386.78801 55.531194 
L 387.762948 55.063767 
L 389.062867 54.59634 
L 389.387846 54.409369 
L 390.037805 54.409369 
L 391.012744 55.063767 
L 391.662703 55.624679 
L 391.987682 55.437709 
L 392.312662 55.437709 
L 392.962621 54.970281 
L 393.2876 54.689825 
L 393.61258 54.783311 
L 394.262539 54.59634 
L 394.587518 54.315883 
L 395.237477 54.783311 
L 395.562457 55.250738 
L 395.887437 55.157252 
L 397.187355 55.437709 
L 397.512334 55.437709 
L 398.487273 54.689825 
L 398.487273 54.689825 
" clip-path="url(#p2e265caeff)" style="fill: none; stroke: #2ca02c; stroke-width: 1.5; stroke-linecap: square"/>
   </g>
   <g id="patch_3">
    <path d="M 57.6 307.584 
L 57.6 41.472 
" style="fill: none; stroke: #000000; stroke-width: 0.8; stroke-linejoin: miter; stroke-linecap: square"/>
   </g>
   <g id="patch_4">
    <path d="M 414.72 307.584 
L 414.72 41.472 
" style="fill: none; stroke: #000000; stroke-width: 0.8; stroke-linejoin: miter; stroke-linecap: square"/>
   </g>
   <g id="patch_5">
    <path d="M 57.6 307.584 
L 414.72 307.584 
" style="fill: none; stroke: #000000; stroke-width: 0.8; stroke-linejoin: miter; stroke-linecap: square"/>
   </g>
   <g id="patch_6">
    <path d="M 57.6 41.472 
L 414.72 41.472 
" style="fill: none; stroke: #000000; stroke-width: 0.8; stroke-linejoin: miter; stroke-linecap: square"/>
   </g>
  </g>
 </g>
 <defs>
  <clipPath id="p2e265caeff">
   <rect x="57.6" y="41.472" width="357.12" height="266.112"/>
  </clipPath>
 </defs>
</svg>
