<?xml version="1.0" encoding="utf-8" standalone="no"?>
<!DOCTYPE svg PUBLIC "-//W3C//DTD SVG 1.1//EN"
  "http://www.w3.org/Graphics/SVG/1.1/DTD/svg11.dtd">
<svg xmlns:xlink="http://www.w3.org/1999/xlink" width="460.8pt" height="345.6pt" viewBox="0 0 460.8 345.6" xmlns="http://www.w3.org/2000/svg" version="1.1">
 <metadata>
  <rdf:RDF xmlns:dc="http://purl.org/dc/elements/1.1/" xmlns:cc="http://creativecommons.org/ns#" xmlns:rdf="http://www.w3.org/1999/02/22-rdf-syntax-ns#">
   <cc:Work>
    <dc:type rdf:resource="http://purl.org/dc/dcmitype/StillImage"/>
    <dc:date>2025-12-31T15:09:58.446534</dc:date>
    <dc:format>image/svg+xml</dc:format>
    <dc:creator>
     <cc:Agent>
      <dc:title>Matplotlib v3.10.8, https://matplotlib.org/</dc:title>
     </cc:Agent>
    </dc:creator>
   </cc:Work>
  </rdf:RDF>
 </metadata>
 <defs>
  <style type="text/css">*{stroke-linejoin: round; stroke-linecap: butt}</style>
 </defs>
 <g id="figure_1">
  <g id="patch_1">
   <path d="M 0 345.6 
L 460.8 345.6 
L 460.8 0 
L 0 0 
z
" style="fill: #ffffff"/>
  </g>
  <g id="axes_1">
   <g id="patch_2">
    <path d="M 57.6 307.584 
L 414.72 307.584 
L 414.72 41.472 
L 57.6 41.472 
z
" style="fill: #ffffff"/>
   </g>
   <g id="matplotlib.axis_1">
    <g id="xtick_1">
     <g id="line2d_1">
      <defs>
       <path id="mea08f633eb" d="M 0 0 
L 0 3.5 
" style="stroke: #000000; stroke-width: 0.8"/>
      </defs>
      <g>
       <use xlink:href="#mea08f633eb" x="73.832727" y="307.584" style="stroke: #000000; stroke-width: 0.8"/>
      </g>
     </g>
     <g id="text_1">
      <!-- 0 -->
      <g transform="translate(70.651477 322.182437) scale(0.1 -0.1)">
       <defs>
        <path id="DejaVuSans-30" d="M 2034 4250 
Q 1547 4250 1301 3770 
Q 1056 3291 1056 2328 
Q 1056 1369 1301 889 
Q 1547 409 2034 409 
Q 2525 409 2770 889 
Q 3016 1369 3016 2328 
Q 3016 3291 2770 3770 
Q 2525 4250 2034 4250 
z
M 2034 4750 
Q 2819 4750 3233 4129 
Q 3647 3509 3647 2328 
Q 3647 1150 3233 529 
Q 2819 -91 2034 -91 
Q 1250 -91 836 529 
Q 422 1150 422 2328 
Q 422 3509 836 4129 
Q 1250 4750 2034 4750 
z
" transform="scale(0.015625)"/>
       </defs>
       <use xlink:href="#DejaVuSans-30"/>
      </g>
     </g>
    </g>
    <g id="xtick_2">
     <g id="line2d_2">
      <g>
       <use xlink:href="#mea08f633eb" x="138.828632" y="307.584" style="stroke: #000000; stroke-width: 0.8"/>
      </g>
     </g>
     <g id="text_2">
      <!-- 1 -->
      <g transform="translate(135.647382 322.182437) scale(0.1 -0.1)">
       <defs>
        <path id="DejaVuSans-31" d="M 794 531 
L 1825 531 
L 1825 4091 
L 703 3866 
L 703 4441 
L 1819 4666 
L 2450 4666 
L 2450 531 
L 3481 531 
L 3481 0 
L 794 0 
L 794 531 
z
" transform="scale(0.015625)"/>
       </defs>
       <use xlink:href="#DejaVuSans-31"/>
      </g>
     </g>
    </g>
    <g id="xtick_3">
     <g id="line2d_3">
      <g>
       <use xlink:href="#mea08f633eb" x="203.824537" y="307.584" style="stroke: #000000; stroke-width: 0.8"/>
      </g>
     </g>
     <g id="text_3">
      <!-- 2 -->
      <g transform="translate(200.643287 322.182437) scale(0.1 -0.1)">
       <defs>
        <path id="DejaVuSans-32" d="M 1228 531 
L 3431 531 
L 3431 0 
L 469 0 
L 469 531 
Q 828 903 1448 1529 
Q 2069 2156 2228 2338 
Q 2531 2678 2651 2914 
Q 2772 3150 2772 3378 
Q 2772 3750 2511 3984 
Q 2250 4219 1831 4219 
Q 1534 4219 1204 4116 
Q 875 4013 500 3803 
L 500 4441 
Q 881 4594 1212 4672 
Q 1544 4750 1819 4750 
Q 2544 4750 2975 4387 
Q 3406 4025 3406 3419 
Q 3406 3131 3298 2873 
Q 3191 2616 2906 2266 
Q 2828 2175 2409 1742 
Q 1991 1309 1228 531 
z
" transform="scale(0.015625)"/>
       </defs>
       <use xlink:href="#DejaVuSans-32"/>
      </g>
     </g>
    </g>
    <g id="xtick_4">
     <g id="line2d_4">
      <g>
       <use xlink:href="#mea08f633eb" x="268.820442" y="307.584" style="stroke: #000000; stroke-width: 0.8"/>
      </g>
     </g>
     <g id="text_4">
      <!-- 3 -->
      <g transform="translate(265.639192 322.182437) scale(0.1 -0.1)">
       <defs>
        <path id="DejaVuSans-33" d="M 2597 2516 
Q 3050 2419 3304 2112 
Q 3559 1806 3559 1356 
Q 3559 666 3084 287 
Q 2609 -91 1734 -91 
Q 1441 -91 1130 -33 
Q 819 25 488 141 
L 488 750 
Q 750 597 1062 519 
Q 1375 441 1716 441 
Q 2309 441 2620 675 
Q 2931 909 2931 1356 
Q 2931 1769 2642 2001 
Q 2353 2234 1838 2234 
L 1294 2234 
L 1294 2753 
L 1863 2753 
Q 2328 2753 2575 2939 
Q 2822 3125 2822 3475 
Q 2822 3834 2567 4026 
Q 2313 4219 1838 4219 
Q 1578 4219 1281 4162 
Q 984 4106 628 3988 
L 628 4550 
Q 988 4650 1302 4700 
Q 1616 4750 1894 4750 
Q 2613 4750 3031 4423 
Q 3450 4097 3450 3541 
Q 3450 3153 3228 2886 
Q 3006 2619 2597 2516 
z
" transform="scale(0.015625)"/>
       </defs>
       <use xlink:href="#DejaVuSans-33"/>
      </g>
     </g>
    </g>
    <g id="xtick_5">
     <g id="line2d_5">
      <g>
       <use xlink:href="#mea08f633eb" x="333.816347" y="307.584" style="stroke: #000000; stroke-width: 0.8"/>
      </g>
     </g>
     <g id="text_5">
      <!-- 4 -->
      <g transform="translate(330.635097 322.182437) scale(0.1 -0.1)">
       <defs>
        <path id="DejaVuSans-34" d="M 2419 4116 
L 825 1625 
L 2419 1625 
L 2419 4116 
z
M 2253 4666 
L 3047 4666 
L 3047 1625 
L 3713 1625 
L 3713 1100 
L 3047 1100 
L 3047 0 
L 2419 0 
L 2419 1100 
L 313 1100 
L 313 1709 
L 2253 4666 
z
" transform="scale(0.015625)"/>
       </defs>
       <use xlink:href="#DejaVuSans-34"/>
      </g>
     </g>
    </g>
    <g id="xtick_6">
     <g id="line2d_6">
      <g>
       <use xlink:href="#mea08f633eb" x="398.812252" y="307.584" style="stroke: #000000; stroke-width: 0.8"/>
      </g>
     </g>
     <g id="text_6">
      <!-- 5 -->
      <g transform="translate(395.631002 322.182437) scale(0.1 -0.1)">
       <defs>
        <path id="DejaVuSans-35" d="M 691 4666 
L 3169 4666 
L 3169 4134 
L 1269 4134 
L 1269 2991 
Q 1406 3038 1543 3061 
Q 1681 3084 1819 3084 
Q 2600 3084 3056 2656 
Q 3513 2228 3513 1497 
Q 3513 744 3044 326 
Q 2575 -91 1722 -91 
Q 1428 -91 1123 -41 
Q 819 9 494 109 
L 494 744 
Q 775 591 1075 516 
Q 1375 441 1709 441 
Q 2250 441 2565 725 
Q 2881 1009 2881 1497 
Q 2881 1984 2565 2268 
Q 2250 2553 1709 2553 
Q 1456 2553 1204 2497 
Q 953 2441 691 2322 
L 691 4666 
z
" transform="scale(0.015625)"/>
       </defs>
       <use xlink:href="#DejaVuSans-35"/>
      </g>
     </g>
    </g>
    <g id="text_7">
     <!-- 1e−7 -->
     <g transform="translate(387.462188 334.860562) scale(0.1 -0.1)">
      <defs>
       <path id="DejaVuSans-65" d="M 3597 1894 
L 3597 1613 
L 953 1613 
Q 991 1019 1311 708 
Q 1631 397 2203 397 
Q 2534 397 2845 478 
Q 3156 559 3463 722 
L 3463 178 
Q 3153 47 2828 -22 
Q 2503 -91 2169 -91 
Q 1331 -91 842 396 
Q 353 884 353 1716 
Q 353 2575 817 3079 
Q 1281 3584 2069 3584 
Q 2775 3584 3186 3129 
Q 3597 2675 3597 1894 
z
M 3022 2063 
Q 3016 2534 2758 2815 
Q 2500 3097 2075 3097 
Q 1594 3097 1305 2825 
Q 1016 2553 972 2059 
L 3022 2063 
z
" transform="scale(0.015625)"/>
       <path id="DejaVuSans-2212" d="M 678 2272 
L 4684 2272 
L 4684 1741 
L 678 1741 
L 678 2272 
z
" transform="scale(0.015625)"/>
       <path id="DejaVuSans-37" d="M 525 4666 
L 3525 4666 
L 3525 4397 
L 1831 0 
L 1172 0 
L 2766 4134 
L 525 4134 
L 525 4666 
z
" transform="scale(0.015625)"/>
      </defs>
      <use xlink:href="#DejaVuSans-31"/>
      <use xlink:href="#DejaVuSans-65" transform="translate(63.623047 0)"/>
      <use xlink:href="#DejaVuSans-2212" transform="translate(125.146484 0)"/>
      <use xlink:href="#DejaVuSans-37" transform="translate(208.935547 0)"/>
     </g>
    </g>
   </g>
   <g id="matplotlib.axis_2">
    <g id="ytick_1">
     <g id="line2d_7">
      <defs>
       <path id="m4e091aadec" d="M 0 0 
L -3.5 0 
" style="stroke: #000000; stroke-width: 0.8"/>
      </defs>
      <g>
       <use xlink:href="#m4e091aadec" x="57.6" y="263.648217" style="stroke: #000000; stroke-width: 0.8"/>
      </g>
     </g>
     <g id="text_8">
      <!-- −200 -->
      <g transform="translate(23.132812 267.447436) scale(0.1 -0.1)">
       <use xlink:href="#DejaVuSans-2212"/>
       <use xlink:href="#DejaVuSans-32" transform="translate(83.789062 0)"/>
       <use xlink:href="#DejaVuSans-30" transform="translate(147.412109 0)"/>
       <use xlink:href="#DejaVuSans-30" transform="translate(211.035156 0)"/>
      </g>
     </g>
    </g>
    <g id="ytick_2">
     <g id="line2d_8">
      <g>
       <use xlink:href="#m4e091aadec" x="57.6" y="213.703446" style="stroke: #000000; stroke-width: 0.8"/>
      </g>
     </g>
     <g id="text_9">
      <!-- −100 -->
      <g transform="translate(23.132812 217.502665) scale(0.1 -0.1)">
       <use xlink:href="#DejaVuSans-2212"/>
       <use xlink:href="#DejaVuSans-31" transform="translate(83.789062 0)"/>
       <use xlink:href="#DejaVuSans-30" transform="translate(147.412109 0)"/>
       <use xlink:href="#DejaVuSans-30" transform="translate(211.035156 0)"/>
      </g>
     </g>
    </g>
    <g id="ytick_3">
     <g id="line2d_9">
      <g>
       <use xlink:href="#m4e091aadec" x="57.6" y="163.758675" style="stroke: #000000; stroke-width: 0.8"/>
      </g>
     </g>
     <g id="text_10">
      <!-- 0 -->
      <g transform="translate(44.2375 167.557894) scale(0.1 -0.1)">
       <use xlink:href="#DejaVuSans-30"/>
      </g>
     </g>
    </g>
    <g id="ytick_4">
     <g id="line2d_10">
      <g>
       <use xlink:href="#m4e091aadec" x="57.6" y="113.813904" style="stroke: #000000; stroke-width: 0.8"/>
      </g>
     </g>
     <g id="text_11">
      <!-- 100 -->
      <g transform="translate(31.5125 117.613122) scale(0.1 -0.1)">
       <use xlink:href="#DejaVuSans-31"/>
       <use xlink:href="#DejaVuSans-30" transform="translate(63.623047 0)"/>
       <use xlink:href="#DejaVuSans-30" transform="translate(127.246094 0)"/>
      </g>
     </g>
    </g>
    <g id="ytick_5">
     <g id="line2d_11">
      <g>
       <use xlink:href="#m4e091aadec" x="57.6" y="63.869133" style="stroke: #000000; stroke-width: 0.8"/>
      </g>
     </g>
     <g id="text_12">
      <!-- 200 -->
      <g transform="translate(31.5125 67.668351) scale(0.1 -0.1)">
       <use xlink:href="#DejaVuSans-32"/>
       <use xlink:href="#DejaVuSans-30" transform="translate(63.623047 0)"/>
       <use xlink:href="#DejaVuSans-30" transform="translate(127.246094 0)"/>
      </g>
     </g>
    </g>
   </g>
   <g id="line2d_12">
    <path d="M 73.832727 173.298155 
L 74.157707 176.419703 
L 74.482686 173.298155 
L 74.807666 173.298155 
L 75.132645 170.176607 
L 75.457625 173.298155 
L 76.107584 167.055059 
L 76.432563 167.055059 
L 76.757543 170.176607 
L 77.732482 170.176607 
L 78.057461 163.933511 
L 78.382441 167.055059 
L 78.70742 163.933511 
L 79.0324 163.933511 
L 79.357379 160.811963 
L 79.682359 163.933511 
L 80.007338 160.811963 
L 80.982277 160.811963 
L 81.307256 157.690415 
L 81.957215 157.690415 
L 82.282195 160.811963 
L 82.607174 157.690415 
L 82.932154 157.690415 
L 83.257133 151.44732 
L 83.582113 154.568868 
L 83.907093 151.44732 
L 84.232072 151.44732 
L 84.882031 157.690415 
L 85.207011 151.44732 
L 85.53199 154.568868 
L 85.85697 154.568868 
L 86.181949 151.44732 
L 86.506929 145.204224 
L 87.156888 151.44732 
L 87.481867 151.44732 
L 87.806847 148.325772 
L 88.131826 148.325772 
L 88.456806 145.204224 
L 89.106765 145.204224 
L 89.431744 142.082676 
L 89.756724 145.204224 
L 90.081704 145.204224 
L 90.406683 142.082676 
L 91.381622 142.082676 
L 91.706601 135.83958 
L 92.031581 138.961128 
L 92.35656 135.83958 
L 92.68154 138.961128 
L 93.656478 129.596485 
L 93.981458 132.718032 
L 94.306437 129.596485 
L 94.956396 129.596485 
L 95.281376 132.718032 
L 95.606355 123.353389 
L 95.931335 123.353389 
L 96.256314 126.474937 
L 96.581294 123.353389 
L 96.906274 117.110293 
L 98.206192 117.110293 
L 98.856151 110.867197 
L 99.18113 113.988745 
L 99.50611 110.867197 
L 100.481048 110.867197 
L 100.806028 107.745649 
L 101.780966 107.745649 
L 102.105946 101.502554 
L 102.430925 104.624102 
L 102.755905 104.624102 
L 103.080885 107.745649 
L 103.405864 104.624102 
L 103.730844 104.624102 
L 104.055823 101.502554 
L 104.380803 104.624102 
L 104.705782 101.502554 
L 105.030762 101.502554 
L 105.355741 104.624102 
L 105.680721 110.867197 
L 106.0057 101.502554 
L 106.655659 107.745649 
L 107.305618 101.502554 
L 107.630598 104.624102 
L 107.955577 104.624102 
L 108.280557 107.745649 
L 108.605536 104.624102 
L 108.930516 104.624102 
L 109.255495 101.502554 
L 109.580475 107.745649 
L 109.905455 107.745649 
L 110.230434 104.624102 
L 110.555414 110.867197 
L 110.880393 110.867197 
L 111.205373 107.745649 
L 111.855332 113.988745 
L 112.180311 113.988745 
L 112.505291 110.867197 
L 112.83027 113.988745 
L 113.15525 113.988745 
L 113.480229 117.110293 
L 113.805209 117.110293 
L 114.130188 120.231841 
L 114.455168 113.988745 
L 114.780147 120.231841 
L 115.105127 123.353389 
L 115.430106 120.231841 
L 116.080066 126.474937 
L 116.405045 123.353389 
L 116.730025 123.353389 
L 117.379984 129.596485 
L 117.704963 126.474937 
L 118.029943 126.474937 
L 118.679902 132.718032 
L 119.329861 132.718032 
L 119.65484 129.596485 
L 119.97982 135.83958 
L 120.304799 135.83958 
L 120.629779 132.718032 
L 121.279738 138.961128 
L 121.604717 135.83958 
L 121.929697 138.961128 
L 122.579656 138.961128 
L 122.904636 135.83958 
L 123.229615 135.83958 
L 123.879574 142.082676 
L 124.529533 142.082676 
L 124.854513 138.961128 
L 125.179492 145.204224 
L 125.504472 145.204224 
L 125.829451 142.082676 
L 126.154431 148.325772 
L 127.129369 148.325772 
L 127.454349 151.44732 
L 128.104308 145.204224 
L 129.079247 154.568868 
L 129.404226 148.325772 
L 129.729206 151.44732 
L 130.054185 148.325772 
L 130.379165 154.568868 
L 130.704144 151.44732 
L 131.029124 154.568868 
L 131.354103 154.568868 
L 131.679083 157.690415 
L 132.004062 154.568868 
L 132.329042 154.568868 
L 132.654021 157.690415 
L 132.979001 157.690415 
L 133.30398 154.568868 
L 133.62896 157.690415 
L 133.953939 154.568868 
L 134.278919 160.811963 
L 134.928878 160.811963 
L 135.253857 157.690415 
L 135.578837 160.811963 
L 136.553776 160.811963 
L 136.878755 167.055059 
L 137.203735 163.933511 
L 137.528714 167.055059 
L 138.178673 167.055059 
L 138.503653 163.933511 
L 138.828632 167.055059 
L 139.153612 167.055059 
L 139.478591 170.176607 
L 139.803571 170.176607 
L 140.12855 173.298155 
L 140.45353 170.176607 
L 140.778509 173.298155 
L 141.428468 173.298155 
L 141.753448 176.419703 
L 142.078428 182.662798 
L 142.403407 179.541251 
L 142.728387 179.541251 
L 143.053366 182.662798 
L 143.378346 182.662798 
L 143.703325 179.541251 
L 144.028305 185.784346 
L 144.353284 185.784346 
L 144.678264 188.905894 
L 145.653202 188.905894 
L 145.978182 195.14899 
L 146.95312 195.14899 
L 147.2781 201.392086 
L 147.603079 198.270538 
L 147.928059 198.270538 
L 148.253038 204.513634 
L 148.578018 201.392086 
L 149.227977 201.392086 
L 149.552957 204.513634 
L 150.527895 204.513634 
L 150.852875 201.392086 
L 151.177854 207.635181 
L 151.502834 207.635181 
L 151.827813 204.513634 
L 152.152793 207.635181 
L 152.477772 207.635181 
L 152.802752 204.513634 
L 153.452711 210.756729 
L 154.10267 204.513634 
L 154.752629 204.513634 
L 155.077609 207.635181 
L 155.727568 207.635181 
L 156.052547 198.270538 
L 156.377527 207.635181 
L 157.027486 201.392086 
L 157.352465 204.513634 
L 157.677445 204.513634 
L 158.002424 201.392086 
L 158.327404 204.513634 
L 158.652383 204.513634 
L 158.977363 201.392086 
L 159.627322 201.392086 
L 159.952301 198.270538 
L 160.277281 201.392086 
L 160.92724 195.14899 
L 161.252219 195.14899 
L 161.577199 198.270538 
L 161.902179 192.027442 
L 162.227158 188.905894 
L 162.877117 195.14899 
L 163.202097 188.905894 
L 163.527076 188.905894 
L 163.852056 192.027442 
L 164.177035 188.905894 
L 164.502015 182.662798 
L 164.826994 185.784346 
L 165.476953 185.784346 
L 165.801933 182.662798 
L 166.126912 182.662798 
L 166.451892 179.541251 
L 166.776871 182.662798 
L 167.42683 176.419703 
L 167.75181 179.541251 
L 168.07679 179.541251 
L 168.401769 176.419703 
L 169.051728 176.419703 
L 169.701687 170.176607 
L 170.026667 173.298155 
L 170.676626 173.298155 
L 171.001605 170.176607 
L 171.976544 170.176607 
L 172.626503 163.933511 
L 173.276462 170.176607 
L 173.601441 163.933511 
L 173.926421 167.055059 
L 174.2514 167.055059 
L 174.90136 160.811963 
L 175.226339 163.933511 
L 175.551319 160.811963 
L 175.876298 163.933511 
L 176.201278 160.811963 
L 176.526257 160.811963 
L 176.851237 157.690415 
L 177.176216 160.811963 
L 177.826175 154.568868 
L 178.151155 157.690415 
L 178.476134 157.690415 
L 178.801114 154.568868 
L 179.451073 154.568868 
L 179.776052 151.44732 
L 181.72593 151.44732 
L 182.050909 148.325772 
L 182.375889 151.44732 
L 182.700868 148.325772 
L 183.025848 148.325772 
L 183.350827 145.204224 
L 183.675807 151.44732 
L 184.000786 145.204224 
L 184.325766 148.325772 
L 184.975725 148.325772 
L 185.625684 142.082676 
L 185.950663 145.204224 
L 186.275643 145.204224 
L 187.250581 135.83958 
L 187.575561 138.961128 
L 187.900541 135.83958 
L 188.22552 138.961128 
L 188.5505 138.961128 
L 188.875479 135.83958 
L 189.850418 135.83958 
L 190.175397 129.596485 
L 190.500377 126.474937 
L 191.150336 126.474937 
L 191.475315 129.596485 
L 192.450254 120.231841 
L 192.775233 123.353389 
L 193.100213 117.110293 
L 193.750172 117.110293 
L 194.075152 120.231841 
L 194.400131 113.988745 
L 195.37507 113.988745 
L 195.700049 110.867197 
L 196.025029 110.867197 
L 196.350008 107.745649 
L 196.674988 107.745649 
L 196.999967 104.624102 
L 197.649926 104.624102 
L 197.974906 107.745649 
L 198.299885 104.624102 
L 198.949844 104.624102 
L 199.274824 107.745649 
L 199.599803 101.502554 
L 199.924783 107.745649 
L 200.249762 107.745649 
L 200.899722 101.502554 
L 201.224701 104.624102 
L 201.87466 104.624102 
L 202.19964 101.502554 
L 202.524619 104.624102 
L 202.849599 101.502554 
L 203.174578 104.624102 
L 203.499558 104.624102 
L 203.824537 101.502554 
L 204.149517 107.745649 
L 204.474496 107.745649 
L 204.799476 104.624102 
L 205.124455 107.745649 
L 205.774414 107.745649 
L 206.099394 104.624102 
L 206.424373 107.745649 
L 206.749353 107.745649 
L 207.074333 110.867197 
L 207.399312 110.867197 
L 207.724292 113.988745 
L 208.049271 107.745649 
L 208.374251 113.988745 
L 209.349189 113.988745 
L 209.674169 120.231841 
L 209.999148 113.988745 
L 210.324128 120.231841 
L 210.649107 120.231841 
L 210.974087 123.353389 
L 211.299066 117.110293 
L 211.624046 123.353389 
L 211.949025 123.353389 
L 212.274005 126.474937 
L 212.598984 123.353389 
L 212.923964 126.474937 
L 213.248943 123.353389 
L 213.573923 129.596485 
L 213.898903 129.596485 
L 214.223882 126.474937 
L 214.548862 129.596485 
L 214.873841 135.83958 
L 215.198821 129.596485 
L 215.84878 135.83958 
L 216.498739 135.83958 
L 216.823718 132.718032 
L 217.473677 138.961128 
L 218.123636 138.961128 
L 218.448616 135.83958 
L 218.773595 138.961128 
L 219.423554 138.961128 
L 220.073514 145.204224 
L 220.398493 142.082676 
L 220.723473 142.082676 
L 221.048452 145.204224 
L 221.698411 145.204224 
L 222.023391 142.082676 
L 222.67335 148.325772 
L 222.998329 145.204224 
L 223.323309 145.204224 
L 223.648288 148.325772 
L 224.298247 148.325772 
L 225.273186 157.690415 
L 225.598165 151.44732 
L 225.923145 154.568868 
L 226.573104 154.568868 
L 226.898084 151.44732 
L 227.223063 154.568868 
L 227.548043 154.568868 
L 227.873022 157.690415 
L 228.198002 154.568868 
L 228.522981 157.690415 
L 228.847961 154.568868 
L 229.17294 157.690415 
L 229.822899 157.690415 
L 230.147879 160.811963 
L 230.472858 160.811963 
L 230.797838 157.690415 
L 231.447797 163.933511 
L 231.772776 160.811963 
L 232.097756 160.811963 
L 232.422735 163.933511 
L 233.072695 163.933511 
L 233.397674 167.055059 
L 233.722654 167.055059 
L 234.047633 160.811963 
L 234.697592 167.055059 
L 235.022572 167.055059 
L 235.672531 173.298155 
L 235.99751 167.055059 
L 236.972449 176.419703 
L 237.297428 173.298155 
L 237.622408 173.298155 
L 238.272367 179.541251 
L 239.247305 179.541251 
L 239.572285 185.784346 
L 240.547224 185.784346 
L 240.872203 192.027442 
L 241.197183 188.905894 
L 241.522162 192.027442 
L 241.847142 198.270538 
L 242.497101 192.027442 
L 242.82208 198.270538 
L 243.472039 198.270538 
L 243.797019 204.513634 
L 244.446978 198.270538 
L 245.096937 204.513634 
L 245.421916 201.392086 
L 246.071876 207.635181 
L 246.396855 204.513634 
L 246.721835 204.513634 
L 247.046814 207.635181 
L 247.371794 204.513634 
L 248.346732 204.513634 
L 248.671712 210.756729 
L 248.996691 207.635181 
L 249.321671 207.635181 
L 249.64665 204.513634 
L 249.97163 207.635181 
L 250.296609 204.513634 
L 250.621589 204.513634 
L 251.271548 210.756729 
L 251.596527 204.513634 
L 251.921507 207.635181 
L 252.246486 207.635181 
L 252.571466 204.513634 
L 253.221425 204.513634 
L 253.546405 201.392086 
L 253.871384 204.513634 
L 254.196364 204.513634 
L 254.846323 198.270538 
L 255.171302 201.392086 
L 255.496282 201.392086 
L 255.821261 198.270538 
L 256.146241 198.270538 
L 256.47122 201.392086 
L 257.121179 195.14899 
L 257.446159 198.270538 
L 258.096118 192.027442 
L 258.746077 192.027442 
L 259.071057 188.905894 
L 259.721016 188.905894 
L 260.045995 185.784346 
L 260.695954 185.784346 
L 261.020934 182.662798 
L 261.345913 185.784346 
L 261.670893 185.784346 
L 261.995872 179.541251 
L 262.320852 182.662798 
L 262.645831 182.662798 
L 262.970811 179.541251 
L 263.29579 179.541251 
L 263.62077 176.419703 
L 263.945749 176.419703 
L 264.270729 179.541251 
L 265.245667 170.176607 
L 265.570647 176.419703 
L 265.895627 170.176607 
L 266.220606 170.176607 
L 266.545586 173.298155 
L 267.195545 173.298155 
L 267.520524 170.176607 
L 268.170483 170.176607 
L 268.495463 167.055059 
L 268.820442 170.176607 
L 269.470401 163.933511 
L 269.795381 167.055059 
L 270.44534 160.811963 
L 270.770319 163.933511 
L 271.095299 163.933511 
L 271.420278 160.811963 
L 271.745258 160.811963 
L 272.070238 163.933511 
L 272.720197 157.690415 
L 273.045176 160.811963 
L 273.370156 157.690415 
L 273.695135 157.690415 
L 274.020115 154.568868 
L 274.345094 157.690415 
L 274.670074 154.568868 
L 275.320033 154.568868 
L 275.645012 148.325772 
L 275.969992 154.568868 
L 276.294971 151.44732 
L 276.619951 151.44732 
L 276.94493 154.568868 
L 277.26991 154.568868 
L 277.594889 148.325772 
L 277.919869 154.568868 
L 278.244848 151.44732 
L 278.569828 151.44732 
L 278.894808 148.325772 
L 279.869746 148.325772 
L 280.194726 145.204224 
L 280.519705 148.325772 
L 280.844685 142.082676 
L 281.169664 148.325772 
L 281.819623 142.082676 
L 282.469582 142.082676 
L 282.794562 138.961128 
L 283.119541 142.082676 
L 283.7695 142.082676 
L 284.09448 135.83958 
L 285.394398 135.83958 
L 285.719378 132.718032 
L 286.044357 126.474937 
L 286.369337 129.596485 
L 286.694316 126.474937 
L 287.344275 126.474937 
L 287.669255 129.596485 
L 287.994234 123.353389 
L 288.644193 123.353389 
L 288.969173 120.231841 
L 289.294152 113.988745 
L 289.619132 117.110293 
L 290.269091 117.110293 
L 290.91905 110.867197 
L 291.244029 110.867197 
L 291.569009 113.988745 
L 291.893989 107.745649 
L 292.543948 107.745649 
L 292.868927 110.867197 
L 293.193907 104.624102 
L 293.843866 110.867197 
L 294.168845 107.745649 
L 294.493825 101.502554 
L 294.818804 104.624102 
L 295.143784 104.624102 
L 295.468763 107.745649 
L 295.793743 104.624102 
L 296.118722 104.624102 
L 296.443702 101.502554 
L 296.768681 104.624102 
L 297.093661 104.624102 
L 297.41864 101.502554 
L 297.74362 104.624102 
L 298.0686 101.502554 
L 298.393579 101.502554 
L 298.718559 104.624102 
L 299.368518 104.624102 
L 299.693497 101.502554 
L 300.018477 104.624102 
L 300.343456 104.624102 
L 300.668436 107.745649 
L 300.993415 107.745649 
L 301.318395 104.624102 
L 301.643374 104.624102 
L 301.968354 110.867197 
L 302.293333 107.745649 
L 302.618313 107.745649 
L 303.268272 113.988745 
L 303.593251 107.745649 
L 303.918231 113.988745 
L 304.24321 117.110293 
L 304.56819 117.110293 
L 304.89317 113.988745 
L 305.218149 117.110293 
L 305.543129 117.110293 
L 305.868108 120.231841 
L 306.518067 120.231841 
L 306.843047 117.110293 
L 307.168026 123.353389 
L 307.493006 120.231841 
L 307.817985 120.231841 
L 308.467944 126.474937 
L 308.792924 123.353389 
L 309.117903 129.596485 
L 309.767862 129.596485 
L 310.092842 126.474937 
L 310.742801 132.718032 
L 311.71774 132.718032 
L 312.042719 129.596485 
L 312.367699 138.961128 
L 312.692678 135.83958 
L 313.342637 135.83958 
L 313.667617 138.961128 
L 313.992596 135.83958 
L 314.642555 142.082676 
L 314.967535 142.082676 
L 315.292514 138.961128 
L 315.617494 138.961128 
L 315.942473 142.082676 
L 317.242391 142.082676 
L 317.567371 145.204224 
L 318.21733 145.204224 
L 318.867289 151.44732 
L 319.192269 148.325772 
L 319.517248 148.325772 
L 319.842228 151.44732 
L 320.167207 148.325772 
L 320.492187 148.325772 
L 320.817166 151.44732 
L 321.142146 151.44732 
L 321.467125 154.568868 
L 322.117084 154.568868 
L 322.442064 151.44732 
L 322.767043 157.690415 
L 323.092023 154.568868 
L 323.417002 154.568868 
L 324.066962 160.811963 
L 324.391941 154.568868 
L 324.716921 157.690415 
L 325.36688 157.690415 
L 325.691859 154.568868 
L 326.016839 157.690415 
L 326.341818 157.690415 
L 326.991777 163.933511 
L 327.641736 157.690415 
L 327.966716 163.933511 
L 328.941654 163.933511 
L 329.266634 167.055059 
L 329.591613 163.933511 
L 329.916593 167.055059 
L 330.241572 167.055059 
L 330.566552 170.176607 
L 330.891532 167.055059 
L 331.216511 167.055059 
L 331.86647 173.298155 
L 332.19145 173.298155 
L 332.516429 170.176607 
L 332.841409 170.176607 
L 333.166388 176.419703 
L 333.491368 179.541251 
L 333.816347 176.419703 
L 334.141327 179.541251 
L 334.466306 185.784346 
L 334.791286 182.662798 
L 335.116265 185.784346 
L 336.416183 185.784346 
L 337.066143 192.027442 
L 337.716102 192.027442 
L 338.041081 188.905894 
L 338.366061 195.14899 
L 338.69104 192.027442 
L 339.01602 192.027442 
L 339.665979 204.513634 
L 339.990958 204.513634 
L 340.315938 201.392086 
L 340.640917 204.513634 
L 340.965897 201.392086 
L 341.290876 201.392086 
L 341.615856 204.513634 
L 342.915774 204.513634 
L 343.240753 201.392086 
L 343.565733 210.756729 
L 343.890713 204.513634 
L 344.215692 204.513634 
L 344.865651 210.756729 
L 345.190631 204.513634 
L 345.51561 207.635181 
L 346.165569 207.635181 
L 346.490549 204.513634 
L 346.815528 204.513634 
L 347.140508 207.635181 
L 347.790467 207.635181 
L 348.440426 201.392086 
L 348.765405 207.635181 
L 349.415364 201.392086 
L 349.740344 207.635181 
L 350.065324 204.513634 
L 350.390303 204.513634 
L 350.715283 201.392086 
L 351.040262 207.635181 
L 352.015201 198.270538 
L 352.66516 198.270538 
L 352.990139 192.027442 
L 353.315119 195.14899 
L 353.640098 192.027442 
L 353.965078 195.14899 
L 354.290057 192.027442 
L 354.615037 192.027442 
L 354.940016 188.905894 
L 355.264996 195.14899 
L 355.589975 188.905894 
L 356.239934 188.905894 
L 356.889894 182.662798 
L 357.864832 182.662798 
L 358.189812 179.541251 
L 358.514791 179.541251 
L 358.839771 173.298155 
L 359.16475 182.662798 
L 359.48973 176.419703 
L 359.814709 176.419703 
L 360.139689 179.541251 
L 360.464668 179.541251 
L 360.789648 176.419703 
L 361.439607 176.419703 
L 362.089566 170.176607 
L 362.739525 170.176607 
L 363.064505 173.298155 
L 363.389484 170.176607 
L 363.714464 170.176607 
L 364.039443 163.933511 
L 364.364423 170.176607 
L 365.014382 163.933511 
L 365.664341 170.176607 
L 365.98932 160.811963 
L 366.3143 167.055059 
L 366.639279 163.933511 
L 366.964259 163.933511 
L 367.289238 160.811963 
L 367.614218 160.811963 
L 367.939197 157.690415 
L 368.264177 160.811963 
L 368.589156 160.811963 
L 369.239115 154.568868 
L 369.564095 157.690415 
L 369.889075 157.690415 
L 370.214054 154.568868 
L 370.539034 157.690415 
L 370.864013 157.690415 
L 371.188993 151.44732 
L 371.513972 154.568868 
L 371.838952 154.568868 
L 372.488911 148.325772 
L 372.81389 151.44732 
L 373.463849 151.44732 
L 374.113808 145.204224 
L 374.438788 145.204224 
L 374.763767 148.325772 
L 375.088747 148.325772 
L 375.413726 145.204224 
L 375.738706 151.44732 
L 376.388665 145.204224 
L 376.713645 148.325772 
L 377.038624 148.325772 
L 377.363604 145.204224 
L 377.688583 138.961128 
L 378.013563 142.082676 
L 378.338542 142.082676 
L 378.663522 145.204224 
L 379.63846 135.83958 
L 379.96344 142.082676 
L 380.288419 135.83958 
L 380.613399 132.718032 
L 381.263358 132.718032 
L 381.588337 129.596485 
L 381.913317 132.718032 
L 382.238296 129.596485 
L 382.563276 129.596485 
L 382.888256 123.353389 
L 383.863194 123.353389 
L 384.188174 120.231841 
L 384.513153 120.231841 
L 384.838133 117.110293 
L 385.163112 120.231841 
L 385.488092 113.988745 
L 385.813071 117.110293 
L 386.138051 113.988745 
L 386.46303 117.110293 
L 386.78801 110.867197 
L 387.112989 113.988745 
L 387.437969 113.988745 
L 387.762948 110.867197 
L 388.087928 104.624102 
L 388.412907 107.745649 
L 389.387846 107.745649 
L 389.712826 104.624102 
L 390.687764 104.624102 
L 391.012744 101.502554 
L 391.337723 104.624102 
L 391.662703 104.624102 
L 391.987682 101.502554 
L 392.637641 107.745649 
L 393.2876 101.502554 
L 393.61258 104.624102 
L 393.937559 101.502554 
L 394.262539 104.624102 
L 394.912498 104.624102 
L 395.237477 101.502554 
L 395.562457 104.624102 
L 395.887437 104.624102 
L 396.212416 101.502554 
L 396.862375 107.745649 
L 397.187355 104.624102 
L 397.837314 110.867197 
L 398.162293 110.867197 
L 398.487273 107.745649 
L 398.487273 107.745649 
" clip-path="url(#pfed7a173ed)" style="fill: none; stroke: #1f77b4; stroke-width: 1.5; stroke-linecap: square"/>
   </g>
   <g id="line2d_13">
    <path d="M 73.832727 279.880258 
L 74.157707 287.684129 
L 74.807666 287.684129 
L 75.132645 295.488 
L 75.457625 287.684129 
L 75.782604 287.684129 
L 76.107584 295.488 
L 76.432563 287.684129 
L 76.757543 287.684129 
L 77.082523 295.488 
L 77.407502 272.076387 
L 77.732482 287.684129 
L 78.057461 295.488 
L 78.70742 295.488 
L 79.0324 287.684129 
L 79.682359 287.684129 
L 80.007338 279.880258 
L 80.332318 287.684129 
L 80.657297 279.880258 
L 80.982277 279.880258 
L 81.307256 272.076387 
L 81.957215 272.076387 
L 82.282195 279.880258 
L 82.607174 264.272516 
L 82.932154 279.880258 
L 83.582113 279.880258 
L 83.907093 272.076387 
L 84.232072 272.076387 
L 84.557052 264.272516 
L 84.882031 272.076387 
L 85.207011 256.468645 
L 85.53199 264.272516 
L 85.85697 264.272516 
L 86.831908 240.860903 
L 87.156888 240.860903 
L 87.481867 248.664774 
L 87.806847 240.860903 
L 88.131826 240.860903 
L 88.456806 248.664774 
L 88.781785 248.664774 
L 89.431744 233.057032 
L 90.081704 233.057032 
L 90.406683 225.253161 
L 90.731663 233.057032 
L 91.381622 233.057032 
L 91.706601 225.253161 
L 92.031581 225.253161 
L 92.35656 217.44929 
L 92.68154 233.057032 
L 93.006519 217.44929 
L 93.656478 233.057032 
L 93.981458 233.057032 
L 94.306437 217.44929 
L 94.956396 217.44929 
L 95.281376 209.645419 
L 96.256314 209.645419 
L 96.906274 194.037677 
L 97.231253 201.841548 
L 97.556233 194.037677 
L 97.881212 201.841548 
L 98.206192 186.233806 
L 98.856151 201.841548 
L 99.50611 186.233806 
L 99.831089 186.233806 
L 100.156069 178.429935 
L 100.481048 178.429935 
L 100.806028 170.626065 
L 101.131007 178.429935 
L 101.780966 162.822194 
L 102.105946 170.626065 
L 102.430925 162.822194 
L 103.080885 162.822194 
L 103.405864 147.214452 
L 103.730844 162.822194 
L 104.380803 162.822194 
L 104.705782 155.018323 
L 105.355741 155.018323 
L 105.680721 147.214452 
L 106.655659 147.214452 
L 106.980639 139.410581 
L 107.305618 147.214452 
L 107.630598 139.410581 
L 107.955577 123.802839 
L 108.280557 131.60671 
L 108.605536 123.802839 
L 108.930516 123.802839 
L 109.255495 139.410581 
L 109.580475 131.60671 
L 109.905455 115.998968 
L 110.230434 123.802839 
L 110.555414 115.998968 
L 111.205373 115.998968 
L 111.530352 108.195097 
L 111.855332 108.195097 
L 112.180311 92.587355 
L 112.505291 100.391226 
L 112.83027 100.391226 
L 113.15525 92.587355 
L 113.480229 108.195097 
L 113.805209 92.587355 
L 114.130188 92.587355 
L 114.455168 108.195097 
L 114.780147 108.195097 
L 115.105127 92.587355 
L 115.755086 92.587355 
L 116.080066 84.783484 
L 116.405045 92.587355 
L 117.055004 92.587355 
L 117.379984 84.783484 
L 118.029943 84.783484 
L 118.354922 76.979613 
L 118.679902 84.783484 
L 119.004881 69.175742 
L 119.65484 84.783484 
L 119.97982 84.783484 
L 120.304799 69.175742 
L 120.954758 69.175742 
L 121.279738 76.979613 
L 121.604717 61.371871 
L 121.929697 69.175742 
L 122.254676 61.371871 
L 122.579656 61.371871 
L 122.904636 69.175742 
L 123.554595 53.568 
L 123.879574 69.175742 
L 124.204554 53.568 
L 124.529533 69.175742 
L 124.854513 69.175742 
L 125.179492 76.979613 
L 125.504472 61.371871 
L 125.829451 61.371871 
L 126.154431 69.175742 
L 127.779328 69.175742 
L 128.104308 76.979613 
L 128.754267 61.371871 
L 129.079247 84.783484 
L 129.404226 61.371871 
L 129.729206 76.979613 
L 130.054185 84.783484 
L 130.379165 84.783484 
L 130.704144 76.979613 
L 131.029124 76.979613 
L 131.354103 92.587355 
L 131.679083 84.783484 
L 132.004062 84.783484 
L 132.654021 100.391226 
L 132.979001 92.587355 
L 133.30398 92.587355 
L 133.62896 100.391226 
L 133.953939 92.587355 
L 134.278919 100.391226 
L 134.603898 100.391226 
L 135.253857 115.998968 
L 137.203735 115.998968 
L 137.528714 123.802839 
L 137.853694 123.802839 
L 138.178673 108.195097 
L 138.503653 123.802839 
L 139.153612 123.802839 
L 139.478591 131.60671 
L 139.803571 123.802839 
L 140.45353 139.410581 
L 140.778509 139.410581 
L 141.428468 123.802839 
L 141.753448 131.60671 
L 142.403407 131.60671 
L 142.728387 139.410581 
L 144.028305 139.410581 
L 144.678264 155.018323 
L 145.003243 139.410581 
L 145.328223 155.018323 
L 145.978182 170.626065 
L 146.628141 155.018323 
L 147.2781 170.626065 
L 147.928059 170.626065 
L 148.253038 178.429935 
L 148.578018 170.626065 
L 148.902998 178.429935 
L 149.552957 178.429935 
L 149.877936 186.233806 
L 150.202916 178.429935 
L 150.527895 186.233806 
L 150.852875 186.233806 
L 151.177854 194.037677 
L 152.152793 194.037677 
L 152.477772 201.841548 
L 153.127731 201.841548 
L 153.452711 209.645419 
L 153.77769 194.037677 
L 154.10267 201.841548 
L 154.427649 201.841548 
L 155.077609 217.44929 
L 155.402588 201.841548 
L 155.727568 217.44929 
L 156.052547 217.44929 
L 156.377527 233.057032 
L 156.702506 225.253161 
L 157.677445 225.253161 
L 158.002424 240.860903 
L 158.327404 233.057032 
L 158.652383 240.860903 
L 158.977363 240.860903 
L 159.302342 248.664774 
L 159.627322 240.860903 
L 160.60226 240.860903 
L 160.92724 256.468645 
L 161.252219 256.468645 
L 161.577199 264.272516 
L 161.902179 256.468645 
L 162.227158 264.272516 
L 162.552138 256.468645 
L 163.202097 256.468645 
L 163.527076 264.272516 
L 163.852056 264.272516 
L 164.177035 256.468645 
L 164.502015 256.468645 
L 164.826994 264.272516 
L 165.151974 264.272516 
L 165.476953 272.076387 
L 165.801933 264.272516 
L 166.126912 264.272516 
L 166.451892 279.880258 
L 166.776871 287.684129 
L 167.101851 279.880258 
L 168.07679 279.880258 
L 168.401769 272.076387 
L 168.726749 287.684129 
L 169.051728 279.880258 
L 169.376708 279.880258 
L 169.701687 287.684129 
L 170.026667 279.880258 
L 170.351646 287.684129 
L 170.676626 287.684129 
L 171.001605 279.880258 
L 171.651564 295.488 
L 172.301523 295.488 
L 172.626503 287.684129 
L 172.951482 295.488 
L 173.276462 287.684129 
L 174.90136 287.684129 
L 175.226339 279.880258 
L 175.551319 287.684129 
L 175.876298 287.684129 
L 176.201278 272.076387 
L 177.176216 295.488 
L 177.826175 279.880258 
L 178.151155 279.880258 
L 178.476134 272.076387 
L 179.451073 272.076387 
L 179.776052 264.272516 
L 181.075971 264.272516 
L 181.40095 248.664774 
L 182.050909 264.272516 
L 182.375889 264.272516 
L 182.700868 248.664774 
L 183.025848 240.860903 
L 184.650745 240.860903 
L 184.975725 233.057032 
L 185.625684 233.057032 
L 185.950663 225.253161 
L 186.275643 233.057032 
L 186.600622 217.44929 
L 186.925602 233.057032 
L 187.575561 233.057032 
L 187.900541 225.253161 
L 189.200459 225.253161 
L 189.525438 233.057032 
L 190.175397 217.44929 
L 191.475315 217.44929 
L 191.800295 201.841548 
L 192.125274 209.645419 
L 192.775233 209.645419 
L 193.100213 201.841548 
L 193.750172 201.841548 
L 194.400131 186.233806 
L 195.05009 186.233806 
L 195.37507 178.429935 
L 196.025029 178.429935 
L 196.350008 162.822194 
L 196.674988 178.429935 
L 196.999967 155.018323 
L 197.324947 170.626065 
L 197.974906 186.233806 
L 198.299885 162.822194 
L 198.624865 162.822194 
L 198.949844 170.626065 
L 199.274824 162.822194 
L 200.249762 162.822194 
L 200.574742 155.018323 
L 201.224701 155.018323 
L 201.549681 147.214452 
L 201.87466 147.214452 
L 202.19964 139.410581 
L 202.524619 147.214452 
L 203.174578 147.214452 
L 203.499558 139.410581 
L 203.824537 139.410581 
L 204.474496 123.802839 
L 205.449435 123.802839 
L 205.774414 115.998968 
L 206.099394 115.998968 
L 206.424373 108.195097 
L 206.749353 108.195097 
L 207.074333 115.998968 
L 207.399312 100.391226 
L 207.724292 108.195097 
L 208.374251 108.195097 
L 208.69923 100.391226 
L 209.02421 100.391226 
L 209.349189 108.195097 
L 209.674169 92.587355 
L 209.999148 100.391226 
L 210.649107 100.391226 
L 210.974087 92.587355 
L 211.299066 92.587355 
L 211.624046 84.783484 
L 211.949025 84.783484 
L 212.274005 92.587355 
L 212.598984 76.979613 
L 213.248943 92.587355 
L 213.573923 92.587355 
L 214.223882 76.979613 
L 214.548862 92.587355 
L 215.198821 76.979613 
L 215.84878 76.979613 
L 216.173759 69.175742 
L 216.498739 76.979613 
L 217.148698 61.371871 
L 217.473677 76.979613 
L 217.798657 53.568 
L 218.123636 69.175742 
L 218.448616 69.175742 
L 218.773595 76.979613 
L 219.423554 61.371871 
L 219.748534 61.371871 
L 220.073514 69.175742 
L 220.398493 61.371871 
L 220.723473 69.175742 
L 221.698411 69.175742 
L 222.023391 61.371871 
L 222.34837 61.371871 
L 222.67335 76.979613 
L 222.998329 53.568 
L 223.323309 69.175742 
L 223.648288 76.979613 
L 224.298247 76.979613 
L 224.623227 69.175742 
L 224.948206 69.175742 
L 225.273186 84.783484 
L 225.598165 76.979613 
L 225.923145 76.979613 
L 226.248124 84.783484 
L 226.573104 76.979613 
L 226.898084 84.783484 
L 227.223063 76.979613 
L 227.548043 76.979613 
L 227.873022 84.783484 
L 228.198002 76.979613 
L 228.522981 92.587355 
L 228.847961 100.391226 
L 229.822899 100.391226 
L 230.147879 108.195097 
L 230.472858 100.391226 
L 231.122817 115.998968 
L 231.447797 108.195097 
L 231.772776 108.195097 
L 232.097756 115.998968 
L 233.072695 115.998968 
L 233.397674 108.195097 
L 233.722654 123.802839 
L 234.372613 139.410581 
L 234.697592 123.802839 
L 235.022572 123.802839 
L 235.347551 115.998968 
L 235.672531 123.802839 
L 236.32249 123.802839 
L 236.647469 131.60671 
L 237.297428 131.60671 
L 237.622408 123.802839 
L 237.947387 131.60671 
L 238.272367 131.60671 
L 238.597346 123.802839 
L 239.572285 147.214452 
L 240.222244 147.214452 
L 240.547224 155.018323 
L 240.872203 147.214452 
L 241.197183 155.018323 
L 241.522162 155.018323 
L 241.847142 162.822194 
L 243.14706 162.822194 
L 243.472039 170.626065 
L 243.797019 162.822194 
L 244.121998 178.429935 
L 244.446978 178.429935 
L 244.771957 194.037677 
L 245.096937 178.429935 
L 245.421916 178.429935 
L 245.746896 186.233806 
L 246.396855 186.233806 
L 246.721835 194.037677 
L 247.046814 194.037677 
L 247.371794 186.233806 
L 247.696773 194.037677 
L 248.021753 186.233806 
L 248.346732 186.233806 
L 248.671712 201.841548 
L 248.996691 186.233806 
L 249.321671 209.645419 
L 249.64665 209.645419 
L 249.97163 217.44929 
L 250.296609 201.841548 
L 250.621589 201.841548 
L 251.596527 225.253161 
L 251.921507 225.253161 
L 252.246486 233.057032 
L 252.571466 225.253161 
L 253.221425 225.253161 
L 253.546405 233.057032 
L 253.871384 233.057032 
L 254.196364 225.253161 
L 254.521343 240.860903 
L 255.171302 256.468645 
L 255.821261 240.860903 
L 256.146241 256.468645 
L 256.47122 248.664774 
L 256.7962 248.664774 
L 257.121179 256.468645 
L 258.096118 256.468645 
L 258.421097 248.664774 
L 259.071057 264.272516 
L 259.396036 248.664774 
L 259.721016 264.272516 
L 260.045995 272.076387 
L 260.370975 272.076387 
L 260.695954 264.272516 
L 261.020934 264.272516 
L 261.345913 272.076387 
L 261.670893 272.076387 
L 261.995872 264.272516 
L 262.320852 272.076387 
L 262.645831 272.076387 
L 262.970811 279.880258 
L 263.29579 272.076387 
L 263.62077 272.076387 
L 263.945749 279.880258 
L 264.270729 279.880258 
L 264.595708 272.076387 
L 264.920688 279.880258 
L 265.245667 295.488 
L 265.570647 287.684129 
L 265.895627 295.488 
L 266.220606 287.684129 
L 266.545586 295.488 
L 266.870565 287.684129 
L 267.195545 287.684129 
L 267.520524 295.488 
L 267.845504 287.684129 
L 268.170483 295.488 
L 268.495463 287.684129 
L 269.470401 287.684129 
L 269.795381 279.880258 
L 270.44534 295.488 
L 270.770319 295.488 
L 271.095299 287.684129 
L 271.420278 287.684129 
L 271.745258 279.880258 
L 272.070238 287.684129 
L 273.045176 287.684129 
L 273.370156 272.076387 
L 273.695135 279.880258 
L 274.020115 272.076387 
L 274.345094 272.076387 
L 274.670074 279.880258 
L 274.995053 272.076387 
L 275.320033 272.076387 
L 275.645012 279.880258 
L 275.969992 279.880258 
L 276.294971 264.272516 
L 276.94493 264.272516 
L 277.26991 256.468645 
L 277.919869 256.468645 
L 278.569828 240.860903 
L 278.894808 248.664774 
L 279.544767 233.057032 
L 279.869746 240.860903 
L 280.194726 233.057032 
L 280.519705 240.860903 
L 281.169664 240.860903 
L 281.494644 233.057032 
L 283.444521 233.057032 
L 283.7695 225.253161 
L 284.09448 225.253161 
L 284.419459 217.44929 
L 284.744439 217.44929 
L 285.069419 225.253161 
L 285.394398 209.645419 
L 285.719378 225.253161 
L 286.369337 225.253161 
L 286.694316 217.44929 
L 287.669255 217.44929 
L 287.994234 201.841548 
L 288.319214 209.645419 
L 288.644193 209.645419 
L 288.969173 194.037677 
L 290.269091 194.037677 
L 290.59407 186.233806 
L 291.244029 186.233806 
L 291.569009 194.037677 
L 291.893989 178.429935 
L 292.543948 178.429935 
L 292.868927 170.626065 
L 293.193907 170.626065 
L 293.518886 162.822194 
L 293.843866 170.626065 
L 294.168845 162.822194 
L 294.493825 162.822194 
L 294.818804 155.018323 
L 295.143784 155.018323 
L 295.468763 162.822194 
L 295.793743 147.214452 
L 296.118722 162.822194 
L 296.768681 162.822194 
L 297.093661 155.018323 
L 297.74362 155.018323 
L 298.0686 147.214452 
L 298.718559 147.214452 
L 299.368518 131.60671 
L 299.693497 139.410581 
L 300.343456 123.802839 
L 300.668436 131.60671 
L 300.993415 108.195097 
L 301.318395 123.802839 
L 301.643374 131.60671 
L 302.293333 115.998968 
L 302.943292 115.998968 
L 303.268272 108.195097 
L 304.24321 108.195097 
L 304.56819 92.587355 
L 305.868108 92.587355 
L 306.193088 84.783484 
L 306.518067 100.391226 
L 307.168026 100.391226 
L 307.493006 84.783484 
L 307.817985 92.587355 
L 308.467944 92.587355 
L 308.792924 84.783484 
L 309.442883 84.783484 
L 309.767862 76.979613 
L 310.092842 84.783484 
L 310.742801 69.175742 
L 311.067781 84.783484 
L 311.39276 69.175742 
L 311.71774 76.979613 
L 312.042719 76.979613 
L 312.367699 84.783484 
L 312.692678 69.175742 
L 313.667617 69.175742 
L 313.992596 61.371871 
L 314.642555 76.979613 
L 314.967535 61.371871 
L 315.617494 61.371871 
L 315.942473 53.568 
L 316.267453 69.175742 
L 316.592432 61.371871 
L 316.917412 69.175742 
L 319.517248 69.175742 
L 319.842228 76.979613 
L 320.167207 69.175742 
L 320.492187 76.979613 
L 320.817166 76.979613 
L 321.142146 61.371871 
L 321.467125 84.783484 
L 321.792105 69.175742 
L 322.117084 84.783484 
L 322.442064 84.783484 
L 322.767043 92.587355 
L 323.092023 76.979613 
L 323.741982 92.587355 
L 324.066962 84.783484 
L 324.391941 92.587355 
L 325.36688 92.587355 
L 325.691859 100.391226 
L 326.016839 92.587355 
L 326.666798 108.195097 
L 326.991777 92.587355 
L 327.641736 123.802839 
L 327.966716 123.802839 
L 328.291695 115.998968 
L 329.266634 115.998968 
L 329.591613 123.802839 
L 330.241572 123.802839 
L 330.566552 115.998968 
L 330.891532 131.60671 
L 331.216511 115.998968 
L 331.541491 123.802839 
L 331.86647 123.802839 
L 332.19145 115.998968 
L 332.516429 123.802839 
L 332.841409 139.410581 
L 333.166388 139.410581 
L 333.491368 131.60671 
L 333.816347 139.410581 
L 334.141327 139.410581 
L 334.466306 131.60671 
L 334.791286 139.410581 
L 335.441245 139.410581 
L 335.766224 147.214452 
L 337.391122 147.214452 
L 337.716102 155.018323 
L 338.041081 170.626065 
L 338.366061 178.429935 
L 338.69104 162.822194 
L 339.01602 162.822194 
L 339.340999 170.626065 
L 339.990958 170.626065 
L 340.315938 186.233806 
L 340.640917 186.233806 
L 340.965897 178.429935 
L 341.615856 178.429935 
L 341.940835 186.233806 
L 342.265815 186.233806 
L 342.590794 178.429935 
L 342.915774 194.037677 
L 343.240753 201.841548 
L 343.565733 201.841548 
L 343.890713 194.037677 
L 344.865651 194.037677 
L 345.51561 209.645419 
L 345.84059 201.841548 
L 346.165569 201.841548 
L 346.490549 209.645419 
L 347.140508 209.645419 
L 347.465487 217.44929 
L 347.790467 209.645419 
L 348.115446 217.44929 
L 348.440426 233.057032 
L 349.090385 233.057032 
L 349.415364 225.253161 
L 350.390303 248.664774 
L 351.690221 248.664774 
L 352.015201 240.860903 
L 352.34018 240.860903 
L 352.66516 248.664774 
L 352.990139 240.860903 
L 353.315119 248.664774 
L 353.640098 264.272516 
L 354.615037 264.272516 
L 354.940016 256.468645 
L 355.264996 264.272516 
L 355.589975 256.468645 
L 355.914955 264.272516 
L 358.189812 264.272516 
L 358.514791 272.076387 
L 358.839771 287.684129 
L 359.16475 287.684129 
L 359.48973 279.880258 
L 360.139689 279.880258 
L 360.464668 287.684129 
L 360.789648 279.880258 
L 361.439607 295.488 
L 361.764586 279.880258 
L 362.089566 279.880258 
L 362.414545 287.684129 
L 363.064505 287.684129 
L 363.389484 279.880258 
L 363.714464 295.488 
L 364.039443 295.488 
L 364.364423 287.684129 
L 364.689402 295.488 
L 365.014382 287.684129 
L 365.339361 295.488 
L 365.664341 287.684129 
L 366.639279 287.684129 
L 366.964259 279.880258 
L 367.289238 287.684129 
L 367.614218 279.880258 
L 367.939197 279.880258 
L 368.264177 287.684129 
L 368.589156 272.076387 
L 368.914136 272.076387 
L 369.564095 287.684129 
L 370.214054 272.076387 
L 371.838952 272.076387 
L 372.163931 256.468645 
L 372.488911 264.272516 
L 373.13887 248.664774 
L 373.463849 256.468645 
L 373.788829 240.860903 
L 374.763767 264.272516 
L 375.088747 248.664774 
L 375.413726 248.664774 
L 375.738706 240.860903 
L 376.063686 240.860903 
L 376.388665 233.057032 
L 376.713645 240.860903 
L 377.038624 240.860903 
L 377.363604 233.057032 
L 377.688583 233.057032 
L 378.013563 225.253161 
L 378.338542 225.253161 
L 378.663522 233.057032 
L 378.988501 217.44929 
L 379.313481 233.057032 
L 379.96344 233.057032 
L 380.288419 225.253161 
L 380.938378 225.253161 
L 381.263358 233.057032 
L 381.588337 217.44929 
L 381.913317 217.44929 
L 382.238296 225.253161 
L 382.563276 217.44929 
L 382.888256 217.44929 
L 383.538215 201.841548 
L 383.863194 217.44929 
L 384.188174 201.841548 
L 384.513153 201.841548 
L 384.838133 209.645419 
L 385.163112 209.645419 
L 385.488092 194.037677 
L 385.813071 186.233806 
L 386.138051 194.037677 
L 386.46303 186.233806 
L 387.437969 186.233806 
L 387.762948 178.429935 
L 388.087928 178.429935 
L 388.412907 170.626065 
L 388.737887 170.626065 
L 389.062867 178.429935 
L 389.387846 155.018323 
L 389.712826 170.626065 
L 390.362785 170.626065 
L 391.012744 155.018323 
L 391.337723 155.018323 
L 391.662703 162.822194 
L 391.987682 155.018323 
L 393.2876 155.018323 
L 393.937559 139.410581 
L 394.262539 147.214452 
L 394.587518 131.60671 
L 394.912498 147.214452 
L 395.562457 147.214452 
L 395.887437 131.60671 
L 396.537396 131.60671 
L 396.862375 123.802839 
L 397.837314 123.802839 
L 398.487273 108.195097 
L 398.487273 108.195097 
" clip-path="url(#pfed7a173ed)" style="fill: none; stroke: #ff7f0e; stroke-width: 1.5; stroke-linecap: square"/>
   </g>
   <g id="line2d_14">
    <path d="M 73.832727 151.176588 
L 83.582113 151.192196 
L 398.487273 151.142251 
L 398.487273 151.142251 
" clip-path="url(#pfed7a173ed)" style="fill: none; stroke: #2ca02c; stroke-width: 1.5; stroke-linecap: square"/>
   </g>
   <g id="line2d_15">
    <path d="M 73.832727 145.023954 
L 86.831908 145.003664 
L 93.981458 145.005225 
L 99.18113 145.011468 
L 124.204554 145.023954 
L 136.228796 145.01615 
L 147.928059 145.017711 
L 172.301523 145.008346 
L 186.600622 145.03488 
L 205.124455 145.01615 
L 209.999148 145.030197 
L 216.498739 145.01615 
L 229.822899 144.998982 
L 236.647469 145.023954 
L 247.371794 145.030197 
L 266.870565 145.01615 
L 278.894808 145.008346 
L 290.59407 145.011468 
L 398.487273 145.01615 
L 398.487273 145.01615 
" clip-path="url(#pfed7a173ed)" style="fill: none; stroke: #d62728; stroke-width: 1.5; stroke-linecap: square"/>
   </g>
   <g id="patch_3">
    <path d="M 57.6 307.584 
L 57.6 41.472 
" style="fill: none; stroke: #000000; stroke-width: 0.8; stroke-linejoin: miter; stroke-linecap: square"/>
   </g>
   <g id="patch_4">
    <path d="M 414.72 307.584 
L 414.72 41.472 
" style="fill: none; stroke: #000000; stroke-width: 0.8; stroke-linejoin: miter; stroke-linecap: square"/>
   </g>
   <g id="patch_5">
    <path d="M 57.6 307.584 
L 414.72 307.584 
" style="fill: none; stroke: #000000; stroke-width: 0.8; stroke-linejoin: miter; stroke-linecap: square"/>
   </g>
   <g id="patch_6">
    <path d="M 57.6 41.472 
L 414.72 41.472 
" style="fill: none; stroke: #000000; stroke-width: 0.8; stroke-linejoin: miter; stroke-linecap: square"/>
   </g>
  </g>
 </g>
 <defs>
  <clipPath id="pfed7a173ed">
   <rect x="57.6" y="41.472" width="357.12" height="266.112"/>
  </clipPath>
 </defs>
</svg>
