<?xml version="1.0" encoding="utf-8" standalone="no"?>
<!DOCTYPE svg PUBLIC "-//W3C//DTD SVG 1.1//EN"
  "http://www.w3.org/Graphics/SVG/1.1/DTD/svg11.dtd">
<svg xmlns:xlink="http://www.w3.org/1999/xlink" width="460.8pt" height="345.6pt" viewBox="0 0 460.8 345.6" xmlns="http://www.w3.org/2000/svg" version="1.1">
 <metadata>
  <rdf:RDF xmlns:dc="http://purl.org/dc/elements/1.1/" xmlns:cc="http://creativecommons.org/ns#" xmlns:rdf="http://www.w3.org/1999/02/22-rdf-syntax-ns#">
   <cc:Work>
    <dc:type rdf:resource="http://purl.org/dc/dcmitype/StillImage"/>
    <dc:date>2025-12-30T06:16:57.269629</dc:date>
    <dc:format>image/svg+xml</dc:format>
    <dc:creator>
     <cc:Agent>
      <dc:title>Matplotlib v3.10.8, https://matplotlib.org/</dc:title>
     </cc:Agent>
    </dc:creator>
   </cc:Work>
  </rdf:RDF>
 </metadata>
 <defs>
  <style type="text/css">*{stroke-linejoin: round; stroke-linecap: butt}</style>
 </defs>
 <g id="figure_1">
  <g id="patch_1">
   <path d="M 0 345.6 
L 460.8 345.6 
L 460.8 0 
L 0 0 
z
" style="fill: #ffffff"/>
  </g>
  <g id="axes_1">
   <g id="patch_2">
    <path d="M 57.6 307.584 
L 414.72 307.584 
L 414.72 41.472 
L 57.6 41.472 
z
" style="fill: #ffffff"/>
   </g>
   <g id="matplotlib.axis_1">
    <g id="xtick_1">
     <g id="line2d_1">
      <defs>
       <path id="m47a725df00" d="M 0 0 
L 0 3.5 
" style="stroke: #000000; stroke-width: 0.8"/>
      </defs>
      <g>
       <use xlink:href="#m47a725df00" x="73.832727" y="307.584" style="stroke: #000000; stroke-width: 0.8"/>
      </g>
     </g>
     <g id="text_1">
      <!-- 0 -->
      <g transform="translate(70.651477 322.182437) scale(0.1 -0.1)">
       <defs>
        <path id="DejaVuSans-30" d="M 2034 4250 
Q 1547 4250 1301 3770 
Q 1056 3291 1056 2328 
Q 1056 1369 1301 889 
Q 1547 409 2034 409 
Q 2525 409 2770 889 
Q 3016 1369 3016 2328 
Q 3016 3291 2770 3770 
Q 2525 4250 2034 4250 
z
M 2034 4750 
Q 2819 4750 3233 4129 
Q 3647 3509 3647 2328 
Q 3647 1150 3233 529 
Q 2819 -91 2034 -91 
Q 1250 -91 836 529 
Q 422 1150 422 2328 
Q 422 3509 836 4129 
Q 1250 4750 2034 4750 
z
" transform="scale(0.015625)"/>
       </defs>
       <use xlink:href="#DejaVuSans-30"/>
      </g>
     </g>
    </g>
    <g id="xtick_2">
     <g id="line2d_2">
      <g>
       <use xlink:href="#m47a725df00" x="138.828632" y="307.584" style="stroke: #000000; stroke-width: 0.8"/>
      </g>
     </g>
     <g id="text_2">
      <!-- 1 -->
      <g transform="translate(135.647382 322.182437) scale(0.1 -0.1)">
       <defs>
        <path id="DejaVuSans-31" d="M 794 531 
L 1825 531 
L 1825 4091 
L 703 3866 
L 703 4441 
L 1819 4666 
L 2450 4666 
L 2450 531 
L 3481 531 
L 3481 0 
L 794 0 
L 794 531 
z
" transform="scale(0.015625)"/>
       </defs>
       <use xlink:href="#DejaVuSans-31"/>
      </g>
     </g>
    </g>
    <g id="xtick_3">
     <g id="line2d_3">
      <g>
       <use xlink:href="#m47a725df00" x="203.824537" y="307.584" style="stroke: #000000; stroke-width: 0.8"/>
      </g>
     </g>
     <g id="text_3">
      <!-- 2 -->
      <g transform="translate(200.643287 322.182437) scale(0.1 -0.1)">
       <defs>
        <path id="DejaVuSans-32" d="M 1228 531 
L 3431 531 
L 3431 0 
L 469 0 
L 469 531 
Q 828 903 1448 1529 
Q 2069 2156 2228 2338 
Q 2531 2678 2651 2914 
Q 2772 3150 2772 3378 
Q 2772 3750 2511 3984 
Q 2250 4219 1831 4219 
Q 1534 4219 1204 4116 
Q 875 4013 500 3803 
L 500 4441 
Q 881 4594 1212 4672 
Q 1544 4750 1819 4750 
Q 2544 4750 2975 4387 
Q 3406 4025 3406 3419 
Q 3406 3131 3298 2873 
Q 3191 2616 2906 2266 
Q 2828 2175 2409 1742 
Q 1991 1309 1228 531 
z
" transform="scale(0.015625)"/>
       </defs>
       <use xlink:href="#DejaVuSans-32"/>
      </g>
     </g>
    </g>
    <g id="xtick_4">
     <g id="line2d_4">
      <g>
       <use xlink:href="#m47a725df00" x="268.820442" y="307.584" style="stroke: #000000; stroke-width: 0.8"/>
      </g>
     </g>
     <g id="text_4">
      <!-- 3 -->
      <g transform="translate(265.639192 322.182437) scale(0.1 -0.1)">
       <defs>
        <path id="DejaVuSans-33" d="M 2597 2516 
Q 3050 2419 3304 2112 
Q 3559 1806 3559 1356 
Q 3559 666 3084 287 
Q 2609 -91 1734 -91 
Q 1441 -91 1130 -33 
Q 819 25 488 141 
L 488 750 
Q 750 597 1062 519 
Q 1375 441 1716 441 
Q 2309 441 2620 675 
Q 2931 909 2931 1356 
Q 2931 1769 2642 2001 
Q 2353 2234 1838 2234 
L 1294 2234 
L 1294 2753 
L 1863 2753 
Q 2328 2753 2575 2939 
Q 2822 3125 2822 3475 
Q 2822 3834 2567 4026 
Q 2313 4219 1838 4219 
Q 1578 4219 1281 4162 
Q 984 4106 628 3988 
L 628 4550 
Q 988 4650 1302 4700 
Q 1616 4750 1894 4750 
Q 2613 4750 3031 4423 
Q 3450 4097 3450 3541 
Q 3450 3153 3228 2886 
Q 3006 2619 2597 2516 
z
" transform="scale(0.015625)"/>
       </defs>
       <use xlink:href="#DejaVuSans-33"/>
      </g>
     </g>
    </g>
    <g id="xtick_5">
     <g id="line2d_5">
      <g>
       <use xlink:href="#m47a725df00" x="333.816347" y="307.584" style="stroke: #000000; stroke-width: 0.8"/>
      </g>
     </g>
     <g id="text_5">
      <!-- 4 -->
      <g transform="translate(330.635097 322.182437) scale(0.1 -0.1)">
       <defs>
        <path id="DejaVuSans-34" d="M 2419 4116 
L 825 1625 
L 2419 1625 
L 2419 4116 
z
M 2253 4666 
L 3047 4666 
L 3047 1625 
L 3713 1625 
L 3713 1100 
L 3047 1100 
L 3047 0 
L 2419 0 
L 2419 1100 
L 313 1100 
L 313 1709 
L 2253 4666 
z
" transform="scale(0.015625)"/>
       </defs>
       <use xlink:href="#DejaVuSans-34"/>
      </g>
     </g>
    </g>
    <g id="xtick_6">
     <g id="line2d_6">
      <g>
       <use xlink:href="#m47a725df00" x="398.812252" y="307.584" style="stroke: #000000; stroke-width: 0.8"/>
      </g>
     </g>
     <g id="text_6">
      <!-- 5 -->
      <g transform="translate(395.631002 322.182437) scale(0.1 -0.1)">
       <defs>
        <path id="DejaVuSans-35" d="M 691 4666 
L 3169 4666 
L 3169 4134 
L 1269 4134 
L 1269 2991 
Q 1406 3038 1543 3061 
Q 1681 3084 1819 3084 
Q 2600 3084 3056 2656 
Q 3513 2228 3513 1497 
Q 3513 744 3044 326 
Q 2575 -91 1722 -91 
Q 1428 -91 1123 -41 
Q 819 9 494 109 
L 494 744 
Q 775 591 1075 516 
Q 1375 441 1709 441 
Q 2250 441 2565 725 
Q 2881 1009 2881 1497 
Q 2881 1984 2565 2268 
Q 2250 2553 1709 2553 
Q 1456 2553 1204 2497 
Q 953 2441 691 2322 
L 691 4666 
z
" transform="scale(0.015625)"/>
       </defs>
       <use xlink:href="#DejaVuSans-35"/>
      </g>
     </g>
    </g>
    <g id="text_7">
     <!-- 1e−7 -->
     <g transform="translate(387.462188 334.860562) scale(0.1 -0.1)">
      <defs>
       <path id="DejaVuSans-65" d="M 3597 1894 
L 3597 1613 
L 953 1613 
Q 991 1019 1311 708 
Q 1631 397 2203 397 
Q 2534 397 2845 478 
Q 3156 559 3463 722 
L 3463 178 
Q 3153 47 2828 -22 
Q 2503 -91 2169 -91 
Q 1331 -91 842 396 
Q 353 884 353 1716 
Q 353 2575 817 3079 
Q 1281 3584 2069 3584 
Q 2775 3584 3186 3129 
Q 3597 2675 3597 1894 
z
M 3022 2063 
Q 3016 2534 2758 2815 
Q 2500 3097 2075 3097 
Q 1594 3097 1305 2825 
Q 1016 2553 972 2059 
L 3022 2063 
z
" transform="scale(0.015625)"/>
       <path id="DejaVuSans-2212" d="M 678 2272 
L 4684 2272 
L 4684 1741 
L 678 1741 
L 678 2272 
z
" transform="scale(0.015625)"/>
       <path id="DejaVuSans-37" d="M 525 4666 
L 3525 4666 
L 3525 4397 
L 1831 0 
L 1172 0 
L 2766 4134 
L 525 4134 
L 525 4666 
z
" transform="scale(0.015625)"/>
      </defs>
      <use xlink:href="#DejaVuSans-31"/>
      <use xlink:href="#DejaVuSans-65" transform="translate(63.623047 0)"/>
      <use xlink:href="#DejaVuSans-2212" transform="translate(125.146484 0)"/>
      <use xlink:href="#DejaVuSans-37" transform="translate(208.935547 0)"/>
     </g>
    </g>
   </g>
   <g id="matplotlib.axis_2">
    <g id="ytick_1">
     <g id="line2d_7">
      <defs>
       <path id="mefabd9d9a1" d="M 0 0 
L -3.5 0 
" style="stroke: #000000; stroke-width: 0.8"/>
      </defs>
      <g>
       <use xlink:href="#mefabd9d9a1" x="57.6" y="305.164807" style="stroke: #000000; stroke-width: 0.8"/>
      </g>
     </g>
     <g id="text_8">
      <!-- −300 -->
      <g transform="translate(23.132812 308.964026) scale(0.1 -0.1)">
       <use xlink:href="#DejaVuSans-2212"/>
       <use xlink:href="#DejaVuSans-33" transform="translate(83.789062 0)"/>
       <use xlink:href="#DejaVuSans-30" transform="translate(147.412109 0)"/>
       <use xlink:href="#DejaVuSans-30" transform="translate(211.035156 0)"/>
      </g>
     </g>
    </g>
    <g id="ytick_2">
     <g id="line2d_8">
      <g>
       <use xlink:href="#mefabd9d9a1" x="57.6" y="258.246992" style="stroke: #000000; stroke-width: 0.8"/>
      </g>
     </g>
     <g id="text_9">
      <!-- −200 -->
      <g transform="translate(23.132812 262.046211) scale(0.1 -0.1)">
       <use xlink:href="#DejaVuSans-2212"/>
       <use xlink:href="#DejaVuSans-32" transform="translate(83.789062 0)"/>
       <use xlink:href="#DejaVuSans-30" transform="translate(147.412109 0)"/>
       <use xlink:href="#DejaVuSans-30" transform="translate(211.035156 0)"/>
      </g>
     </g>
    </g>
    <g id="ytick_3">
     <g id="line2d_9">
      <g>
       <use xlink:href="#mefabd9d9a1" x="57.6" y="211.329176" style="stroke: #000000; stroke-width: 0.8"/>
      </g>
     </g>
     <g id="text_10">
      <!-- −100 -->
      <g transform="translate(23.132812 215.128395) scale(0.1 -0.1)">
       <use xlink:href="#DejaVuSans-2212"/>
       <use xlink:href="#DejaVuSans-31" transform="translate(83.789062 0)"/>
       <use xlink:href="#DejaVuSans-30" transform="translate(147.412109 0)"/>
       <use xlink:href="#DejaVuSans-30" transform="translate(211.035156 0)"/>
      </g>
     </g>
    </g>
    <g id="ytick_4">
     <g id="line2d_10">
      <g>
       <use xlink:href="#mefabd9d9a1" x="57.6" y="164.411361" style="stroke: #000000; stroke-width: 0.8"/>
      </g>
     </g>
     <g id="text_11">
      <!-- 0 -->
      <g transform="translate(44.2375 168.21058) scale(0.1 -0.1)">
       <use xlink:href="#DejaVuSans-30"/>
      </g>
     </g>
    </g>
    <g id="ytick_5">
     <g id="line2d_11">
      <g>
       <use xlink:href="#mefabd9d9a1" x="57.6" y="117.493546" style="stroke: #000000; stroke-width: 0.8"/>
      </g>
     </g>
     <g id="text_12">
      <!-- 100 -->
      <g transform="translate(31.5125 121.292765) scale(0.1 -0.1)">
       <use xlink:href="#DejaVuSans-31"/>
       <use xlink:href="#DejaVuSans-30" transform="translate(63.623047 0)"/>
       <use xlink:href="#DejaVuSans-30" transform="translate(127.246094 0)"/>
      </g>
     </g>
    </g>
    <g id="ytick_6">
     <g id="line2d_12">
      <g>
       <use xlink:href="#mefabd9d9a1" x="57.6" y="70.575731" style="stroke: #000000; stroke-width: 0.8"/>
      </g>
     </g>
     <g id="text_13">
      <!-- 200 -->
      <g transform="translate(31.5125 74.374949) scale(0.1 -0.1)">
       <use xlink:href="#DejaVuSans-32"/>
       <use xlink:href="#DejaVuSans-30" transform="translate(63.623047 0)"/>
       <use xlink:href="#DejaVuSans-30" transform="translate(127.246094 0)"/>
      </g>
     </g>
    </g>
   </g>
   <g id="line2d_13">
    <path d="M 73.832727 174.088118 
L 74.482686 174.088118 
L 74.807666 181.419027 
L 75.132645 174.088118 
L 75.782604 174.088118 
L 76.432563 159.4263 
L 76.757543 166.757209 
L 77.082523 159.4263 
L 77.407502 166.757209 
L 77.732482 159.4263 
L 78.057461 159.4263 
L 78.382441 152.095391 
L 78.70742 159.4263 
L 79.0324 159.4263 
L 79.357379 152.095391 
L 80.007338 152.095391 
L 80.332318 144.764481 
L 80.982277 144.764481 
L 81.307256 137.433572 
L 81.632236 137.433572 
L 81.957215 130.102663 
L 82.282195 137.433572 
L 82.607174 137.433572 
L 82.932154 130.102663 
L 83.582113 130.102663 
L 83.907093 144.764481 
L 84.232072 130.102663 
L 84.557052 122.771754 
L 84.882031 130.102663 
L 85.53199 115.440845 
L 85.85697 122.771754 
L 86.506929 122.771754 
L 86.831908 115.440845 
L 87.156888 115.440845 
L 87.481867 122.771754 
L 87.806847 122.771754 
L 88.131826 115.440845 
L 88.456806 122.771754 
L 88.781785 100.779027 
L 89.106765 115.440845 
L 89.431744 108.109936 
L 89.756724 108.109936 
L 90.081704 115.440845 
L 90.406683 115.440845 
L 90.731663 108.109936 
L 91.706601 108.109936 
L 92.031581 100.779027 
L 92.68154 100.779027 
L 93.006519 108.109936 
L 93.981458 86.117209 
L 94.306437 100.779027 
L 94.956396 86.117209 
L 95.281376 93.448118 
L 95.606355 93.448118 
L 95.931335 86.117209 
L 96.906274 86.117209 
L 97.231253 78.7863 
L 98.856151 78.7863 
L 99.18113 64.124481 
L 99.50611 78.7863 
L 99.831089 71.455391 
L 100.156069 78.7863 
L 100.481048 71.455391 
L 102.105946 71.455391 
L 102.430925 64.124481 
L 102.755905 78.7863 
L 103.080885 71.455391 
L 104.055823 71.455391 
L 104.380803 64.124481 
L 104.705782 78.7863 
L 105.030762 71.455391 
L 105.355741 71.455391 
L 105.680721 78.7863 
L 106.0057 78.7863 
L 106.33068 71.455391 
L 106.655659 78.7863 
L 108.280557 78.7863 
L 108.605536 86.117209 
L 109.255495 86.117209 
L 109.580475 78.7863 
L 109.905455 86.117209 
L 110.555414 86.117209 
L 111.205373 100.779027 
L 111.530352 93.448118 
L 111.855332 108.109936 
L 112.180311 108.109936 
L 112.83027 93.448118 
L 113.15525 108.109936 
L 113.480229 108.109936 
L 113.805209 115.440845 
L 114.130188 115.440845 
L 114.455168 108.109936 
L 114.780147 108.109936 
L 115.105127 122.771754 
L 115.430106 115.440845 
L 115.755086 115.440845 
L 116.080066 122.771754 
L 117.055004 122.771754 
L 117.379984 130.102663 
L 117.704963 130.102663 
L 118.029943 122.771754 
L 118.679902 137.433572 
L 119.97982 137.433572 
L 120.304799 152.095391 
L 120.629779 144.764481 
L 121.279738 144.764481 
L 121.604717 159.4263 
L 121.929697 152.095391 
L 122.254676 159.4263 
L 123.229615 159.4263 
L 123.554595 166.757209 
L 124.854513 166.757209 
L 125.179492 159.4263 
L 125.504472 174.088118 
L 126.47941 174.088118 
L 126.80439 188.749936 
L 127.129369 181.419027 
L 127.454349 181.419027 
L 127.779328 188.749936 
L 128.104308 188.749936 
L 128.429287 181.419027 
L 128.754267 188.749936 
L 129.079247 188.749936 
L 129.404226 203.411754 
L 129.729206 188.749936 
L 130.379165 188.749936 
L 130.704144 196.080845 
L 131.354103 196.080845 
L 131.679083 210.742663 
L 132.329042 196.080845 
L 132.654021 210.742663 
L 134.928878 210.742663 
L 135.253857 218.073572 
L 135.578837 210.742663 
L 135.903817 218.073572 
L 136.553776 218.073572 
L 136.878755 225.404481 
L 137.203735 225.404481 
L 137.528714 218.073572 
L 137.853694 232.735391 
L 138.178673 232.735391 
L 138.828632 218.073572 
L 139.153612 232.735391 
L 140.45353 232.735391 
L 140.778509 225.404481 
L 141.103489 240.0663 
L 142.078428 240.0663 
L 142.403407 247.397209 
L 142.728387 240.0663 
L 143.053366 247.397209 
L 144.028305 247.397209 
L 144.353284 254.728118 
L 144.678264 254.728118 
L 145.003243 262.059027 
L 145.328223 254.728118 
L 145.978182 254.728118 
L 146.303161 262.059027 
L 146.628141 262.059027 
L 146.95312 254.728118 
L 147.603079 269.389936 
L 148.902998 269.389936 
L 149.227977 262.059027 
L 149.877936 262.059027 
L 150.202916 269.389936 
L 150.527895 269.389936 
L 150.852875 262.059027 
L 151.177854 262.059027 
L 151.502834 269.389936 
L 151.827813 262.059027 
L 152.477772 262.059027 
L 152.802752 269.389936 
L 153.452711 254.728118 
L 153.77769 269.389936 
L 154.427649 254.728118 
L 156.052547 254.728118 
L 156.377527 247.397209 
L 156.702506 254.728118 
L 157.027486 247.397209 
L 157.677445 247.397209 
L 158.002424 254.728118 
L 158.327404 247.397209 
L 159.302342 247.397209 
L 159.627322 240.0663 
L 159.952301 240.0663 
L 160.277281 232.735391 
L 160.60226 240.0663 
L 160.92724 232.735391 
L 161.252219 232.735391 
L 161.577199 218.073572 
L 161.902179 232.735391 
L 162.227158 218.073572 
L 162.552138 218.073572 
L 162.877117 225.404481 
L 163.202097 225.404481 
L 163.527076 210.742663 
L 163.852056 218.073572 
L 164.177035 210.742663 
L 164.502015 210.742663 
L 164.826994 203.411754 
L 165.801933 203.411754 
L 166.126912 196.080845 
L 166.451892 196.080845 
L 166.776871 188.749936 
L 167.101851 196.080845 
L 167.42683 188.749936 
L 167.75181 188.749936 
L 168.07679 196.080845 
L 168.401769 196.080845 
L 168.726749 181.419027 
L 169.701687 181.419027 
L 170.026667 174.088118 
L 171.326585 174.088118 
L 171.976544 159.4263 
L 172.301523 166.757209 
L 172.626503 159.4263 
L 172.951482 159.4263 
L 173.276462 166.757209 
L 173.601441 166.757209 
L 173.926421 159.4263 
L 174.57638 159.4263 
L 175.226339 144.764481 
L 175.551319 152.095391 
L 175.876298 152.095391 
L 176.201278 144.764481 
L 176.851237 144.764481 
L 177.176216 137.433572 
L 177.501196 144.764481 
L 177.826175 137.433572 
L 178.801114 137.433572 
L 179.126093 130.102663 
L 180.426011 130.102663 
L 180.750991 122.771754 
L 181.075971 130.102663 
L 181.40095 130.102663 
L 181.72593 122.771754 
L 182.050909 122.771754 
L 182.375889 115.440845 
L 182.700868 115.440845 
L 183.025848 122.771754 
L 183.350827 108.109936 
L 184.000786 122.771754 
L 184.325766 108.109936 
L 184.650745 122.771754 
L 184.975725 108.109936 
L 185.300704 108.109936 
L 185.625684 100.779027 
L 185.950663 108.109936 
L 186.600622 108.109936 
L 186.925602 100.779027 
L 187.250581 100.779027 
L 187.575561 93.448118 
L 187.900541 108.109936 
L 188.22552 100.779027 
L 189.200459 100.779027 
L 189.525438 86.117209 
L 190.175397 100.779027 
L 190.825356 86.117209 
L 191.150336 93.448118 
L 191.800295 93.448118 
L 192.125274 86.117209 
L 192.450254 86.117209 
L 192.775233 78.7863 
L 193.100213 86.117209 
L 193.425192 78.7863 
L 194.075152 78.7863 
L 194.400131 86.117209 
L 194.725111 71.455391 
L 195.700049 71.455391 
L 196.025029 64.124481 
L 196.350008 71.455391 
L 196.999967 71.455391 
L 197.324947 78.7863 
L 197.974906 64.124481 
L 198.299885 71.455391 
L 198.624865 71.455391 
L 198.949844 64.124481 
L 199.599803 78.7863 
L 199.924783 64.124481 
L 200.574742 78.7863 
L 200.899722 78.7863 
L 201.224701 71.455391 
L 201.87466 71.455391 
L 202.19964 86.117209 
L 202.524619 78.7863 
L 202.849599 78.7863 
L 203.174578 71.455391 
L 203.499558 78.7863 
L 204.149517 78.7863 
L 204.799476 93.448118 
L 205.124455 86.117209 
L 205.449435 93.448118 
L 206.099394 93.448118 
L 206.424373 86.117209 
L 206.749353 93.448118 
L 207.074333 93.448118 
L 207.399312 100.779027 
L 207.724292 93.448118 
L 208.049271 100.779027 
L 208.374251 93.448118 
L 208.69923 100.779027 
L 209.02421 100.779027 
L 209.349189 108.109936 
L 209.674169 108.109936 
L 209.999148 115.440845 
L 210.324128 108.109936 
L 210.649107 108.109936 
L 210.974087 115.440845 
L 211.624046 115.440845 
L 212.274005 130.102663 
L 212.923964 130.102663 
L 213.248943 122.771754 
L 213.898903 137.433572 
L 214.223882 137.433572 
L 214.548862 130.102663 
L 214.873841 144.764481 
L 215.198821 144.764481 
L 215.5238 137.433572 
L 215.84878 144.764481 
L 216.173759 144.764481 
L 216.498739 152.095391 
L 216.823718 144.764481 
L 217.148698 144.764481 
L 217.798657 159.4263 
L 218.123636 152.095391 
L 218.773595 152.095391 
L 219.098575 159.4263 
L 219.423554 159.4263 
L 219.748534 166.757209 
L 220.073514 166.757209 
L 220.398493 174.088118 
L 220.723473 166.757209 
L 221.048452 174.088118 
L 221.373432 174.088118 
L 221.698411 181.419027 
L 222.023391 174.088118 
L 222.67335 174.088118 
L 222.998329 188.749936 
L 223.323309 181.419027 
L 223.648288 188.749936 
L 223.973268 174.088118 
L 224.298247 188.749936 
L 224.948206 188.749936 
L 225.273186 196.080845 
L 225.598165 196.080845 
L 225.923145 188.749936 
L 226.248124 188.749936 
L 226.898084 203.411754 
L 227.873022 203.411754 
L 228.198002 210.742663 
L 228.522981 203.411754 
L 229.17294 203.411754 
L 229.49792 210.742663 
L 230.147879 210.742663 
L 230.472858 218.073572 
L 230.797838 218.073572 
L 231.122817 210.742663 
L 231.447797 218.073572 
L 231.772776 218.073572 
L 232.097756 225.404481 
L 232.422735 218.073572 
L 232.747715 218.073572 
L 233.072695 225.404481 
L 233.722654 225.404481 
L 234.047633 218.073572 
L 234.372613 218.073572 
L 235.022572 232.735391 
L 235.347551 225.404481 
L 235.672531 240.0663 
L 236.32249 225.404481 
L 236.647469 240.0663 
L 237.947387 240.0663 
L 238.272367 247.397209 
L 238.597346 247.397209 
L 238.922326 240.0663 
L 239.247305 247.397209 
L 239.897265 247.397209 
L 240.222244 254.728118 
L 240.547224 247.397209 
L 241.197183 262.059027 
L 241.847142 262.059027 
L 242.172121 269.389936 
L 242.497101 262.059027 
L 243.472039 262.059027 
L 243.797019 269.389936 
L 244.446978 269.389936 
L 244.771957 262.059027 
L 245.096937 269.389936 
L 245.421916 262.059027 
L 245.746896 262.059027 
L 246.396855 276.720845 
L 246.721835 262.059027 
L 247.046814 262.059027 
L 247.371794 269.389936 
L 247.696773 269.389936 
L 248.021753 254.728118 
L 248.346732 262.059027 
L 248.996691 262.059027 
L 249.321671 254.728118 
L 250.296609 254.728118 
L 250.621589 262.059027 
L 250.946568 254.728118 
L 251.271548 254.728118 
L 251.596527 262.059027 
L 251.921507 247.397209 
L 252.571466 262.059027 
L 253.221425 247.397209 
L 254.196364 247.397209 
L 254.521343 240.0663 
L 254.846323 240.0663 
L 255.171302 232.735391 
L 255.496282 240.0663 
L 255.821261 240.0663 
L 256.146241 232.735391 
L 256.47122 240.0663 
L 257.121179 225.404481 
L 257.771138 225.404481 
L 258.096118 218.073572 
L 259.396036 218.073572 
L 259.721016 210.742663 
L 260.045995 218.073572 
L 260.370975 203.411754 
L 260.695954 210.742663 
L 261.020934 203.411754 
L 261.995872 203.411754 
L 262.320852 188.749936 
L 262.645831 196.080845 
L 262.970811 196.080845 
L 263.62077 181.419027 
L 263.945749 188.749936 
L 264.270729 188.749936 
L 264.595708 181.419027 
L 264.920688 181.419027 
L 265.245667 188.749936 
L 265.570647 166.757209 
L 265.895627 181.419027 
L 266.220606 174.088118 
L 266.870565 174.088118 
L 267.195545 181.419027 
L 267.520524 166.757209 
L 267.845504 174.088118 
L 268.495463 159.4263 
L 269.795381 159.4263 
L 270.44534 144.764481 
L 270.770319 144.764481 
L 271.095299 152.095391 
L 272.395217 152.095391 
L 272.720197 137.433572 
L 273.045176 144.764481 
L 273.695135 144.764481 
L 274.020115 130.102663 
L 274.345094 130.102663 
L 274.670074 137.433572 
L 274.995053 137.433572 
L 275.320033 130.102663 
L 275.645012 130.102663 
L 275.969992 115.440845 
L 276.294971 130.102663 
L 276.619951 130.102663 
L 276.94493 122.771754 
L 277.26991 122.771754 
L 277.594889 130.102663 
L 277.919869 122.771754 
L 278.894808 122.771754 
L 279.219787 108.109936 
L 279.544767 115.440845 
L 280.844685 115.440845 
L 281.169664 100.779027 
L 281.494644 115.440845 
L 281.819623 115.440845 
L 282.144603 108.109936 
L 282.794562 108.109936 
L 283.119541 100.779027 
L 284.09448 100.779027 
L 284.419459 93.448118 
L 284.744439 100.779027 
L 285.069419 93.448118 
L 285.394398 100.779027 
L 285.719378 93.448118 
L 286.044357 93.448118 
L 286.369337 78.7863 
L 286.694316 100.779027 
L 287.019296 86.117209 
L 287.344275 86.117209 
L 287.669255 93.448118 
L 287.994234 86.117209 
L 289.294152 86.117209 
L 289.619132 71.455391 
L 289.944111 78.7863 
L 290.269091 78.7863 
L 290.59407 86.117209 
L 290.91905 78.7863 
L 291.244029 78.7863 
L 291.569009 64.124481 
L 291.893989 71.455391 
L 292.218968 71.455391 
L 292.543948 64.124481 
L 293.193907 78.7863 
L 293.518886 64.124481 
L 293.843866 71.455391 
L 294.493825 71.455391 
L 294.818804 64.124481 
L 295.143784 71.455391 
L 295.793743 71.455391 
L 296.118722 78.7863 
L 296.443702 78.7863 
L 296.768681 64.124481 
L 297.41864 78.7863 
L 297.74362 71.455391 
L 298.393579 86.117209 
L 298.718559 71.455391 
L 299.043538 78.7863 
L 299.693497 78.7863 
L 300.018477 71.455391 
L 300.343456 78.7863 
L 300.668436 78.7863 
L 300.993415 93.448118 
L 301.318395 86.117209 
L 301.643374 93.448118 
L 301.968354 86.117209 
L 302.293333 100.779027 
L 302.618313 86.117209 
L 302.943292 100.779027 
L 303.268272 100.779027 
L 303.593251 108.109936 
L 303.918231 93.448118 
L 304.56819 108.109936 
L 304.89317 108.109936 
L 305.218149 93.448118 
L 305.543129 108.109936 
L 305.868108 115.440845 
L 306.193088 115.440845 
L 306.518067 108.109936 
L 306.843047 115.440845 
L 307.168026 108.109936 
L 308.142965 130.102663 
L 308.467944 130.102663 
L 308.792924 137.433572 
L 309.117903 122.771754 
L 309.442883 137.433572 
L 310.092842 137.433572 
L 310.417821 130.102663 
L 310.742801 130.102663 
L 311.067781 144.764481 
L 311.39276 144.764481 
L 311.71774 137.433572 
L 312.042719 144.764481 
L 312.367699 137.433572 
L 313.017658 152.095391 
L 313.342637 144.764481 
L 313.992596 159.4263 
L 314.317576 152.095391 
L 314.642555 159.4263 
L 315.617494 159.4263 
L 316.267453 174.088118 
L 316.592432 174.088118 
L 316.917412 166.757209 
L 317.242391 174.088118 
L 317.567371 159.4263 
L 317.892351 181.419027 
L 318.21733 174.088118 
L 318.54231 181.419027 
L 318.867289 181.419027 
L 319.192269 188.749936 
L 319.517248 181.419027 
L 319.842228 188.749936 
L 320.492187 188.749936 
L 320.817166 181.419027 
L 321.142146 196.080845 
L 321.467125 196.080845 
L 321.792105 203.411754 
L 322.117084 196.080845 
L 322.767043 196.080845 
L 323.092023 203.411754 
L 323.741982 203.411754 
L 324.066962 210.742663 
L 324.391941 210.742663 
L 324.716921 196.080845 
L 325.0419 210.742663 
L 325.691859 210.742663 
L 326.016839 203.411754 
L 326.341818 210.742663 
L 326.666798 210.742663 
L 326.991777 218.073572 
L 327.316757 210.742663 
L 327.641736 218.073572 
L 327.966716 203.411754 
L 328.291695 225.404481 
L 328.616675 225.404481 
L 328.941654 218.073572 
L 329.266634 232.735391 
L 329.591613 232.735391 
L 329.916593 225.404481 
L 330.241572 225.404481 
L 330.566552 232.735391 
L 330.891532 232.735391 
L 331.216511 225.404481 
L 331.86647 240.0663 
L 332.19145 240.0663 
L 332.516429 232.735391 
L 332.841409 240.0663 
L 333.166388 225.404481 
L 333.491368 240.0663 
L 333.816347 247.397209 
L 334.141327 247.397209 
L 334.466306 240.0663 
L 334.791286 247.397209 
L 335.116265 247.397209 
L 335.766224 262.059027 
L 336.091204 254.728118 
L 336.416183 254.728118 
L 336.741163 262.059027 
L 337.066143 254.728118 
L 337.391122 262.059027 
L 337.716102 254.728118 
L 338.041081 262.059027 
L 338.366061 254.728118 
L 338.69104 269.389936 
L 339.01602 269.389936 
L 339.340999 262.059027 
L 339.665979 269.389936 
L 339.990958 269.389936 
L 340.315938 262.059027 
L 340.640917 262.059027 
L 340.965897 269.389936 
L 341.290876 269.389936 
L 341.615856 262.059027 
L 341.940835 269.389936 
L 342.265815 262.059027 
L 342.590794 269.389936 
L 342.915774 262.059027 
L 346.490549 262.059027 
L 346.815528 254.728118 
L 347.790467 254.728118 
L 348.115446 247.397209 
L 348.440426 254.728118 
L 348.765405 240.0663 
L 349.090385 247.397209 
L 349.415364 240.0663 
L 349.740344 240.0663 
L 350.065324 247.397209 
L 350.390303 247.397209 
L 350.715283 240.0663 
L 351.365242 240.0663 
L 351.690221 247.397209 
L 352.015201 232.735391 
L 352.34018 232.735391 
L 352.66516 225.404481 
L 352.990139 232.735391 
L 353.315119 232.735391 
L 353.965078 218.073572 
L 354.290057 225.404481 
L 354.615037 210.742663 
L 354.940016 210.742663 
L 355.264996 218.073572 
L 355.589975 218.073572 
L 355.914955 203.411754 
L 356.239934 210.742663 
L 356.889894 210.742663 
L 357.214873 196.080845 
L 357.539853 203.411754 
L 358.189812 203.411754 
L 358.514791 196.080845 
L 358.839771 196.080845 
L 359.16475 181.419027 
L 359.48973 196.080845 
L 360.139689 181.419027 
L 360.464668 188.749936 
L 360.789648 188.749936 
L 361.114627 174.088118 
L 361.439607 181.419027 
L 361.764586 181.419027 
L 362.089566 166.757209 
L 364.039443 166.757209 
L 364.364423 152.095391 
L 364.689402 166.757209 
L 365.014382 159.4263 
L 365.664341 159.4263 
L 365.98932 166.757209 
L 366.3143 152.095391 
L 366.639279 152.095391 
L 366.964259 159.4263 
L 367.289238 144.764481 
L 367.614218 137.433572 
L 367.939197 144.764481 
L 368.589156 144.764481 
L 368.914136 137.433572 
L 369.239115 137.433572 
L 369.564095 130.102663 
L 369.889075 144.764481 
L 370.214054 137.433572 
L 371.188993 137.433572 
L 371.513972 130.102663 
L 371.838952 137.433572 
L 372.163931 130.102663 
L 372.488911 130.102663 
L 372.81389 122.771754 
L 373.463849 122.771754 
L 373.788829 130.102663 
L 374.113808 115.440845 
L 374.438788 122.771754 
L 374.763767 108.109936 
L 375.088747 115.440845 
L 375.413726 108.109936 
L 375.738706 115.440845 
L 376.063686 115.440845 
L 376.388665 122.771754 
L 376.713645 108.109936 
L 377.038624 115.440845 
L 377.363604 108.109936 
L 377.688583 108.109936 
L 378.013563 100.779027 
L 378.338542 108.109936 
L 378.663522 108.109936 
L 378.988501 115.440845 
L 379.96344 93.448118 
L 380.288419 100.779027 
L 380.938378 100.779027 
L 381.263358 93.448118 
L 381.588337 100.779027 
L 381.913317 93.448118 
L 382.888256 93.448118 
L 383.213235 78.7863 
L 383.538215 86.117209 
L 384.513153 86.117209 
L 385.163112 71.455391 
L 385.488092 86.117209 
L 386.138051 71.455391 
L 386.78801 86.117209 
L 387.112989 71.455391 
L 387.437969 78.7863 
L 387.762948 71.455391 
L 388.087928 71.455391 
L 388.412907 64.124481 
L 388.737887 64.124481 
L 389.387846 78.7863 
L 389.712826 71.455391 
L 390.037805 71.455391 
L 390.362785 56.793572 
L 390.687764 71.455391 
L 391.012744 71.455391 
L 391.337723 64.124481 
L 391.662703 78.7863 
L 391.987682 78.7863 
L 392.312662 64.124481 
L 392.637641 71.455391 
L 392.962621 71.455391 
L 393.2876 78.7863 
L 393.61258 71.455391 
L 393.937559 78.7863 
L 395.237477 78.7863 
L 395.562457 71.455391 
L 395.887437 86.117209 
L 396.212416 86.117209 
L 396.537396 78.7863 
L 397.187355 93.448118 
L 397.512334 78.7863 
L 397.837314 93.448118 
L 398.162293 93.448118 
L 398.487273 100.779027 
L 398.487273 100.779027 
" clip-path="url(#p56f2483f29)" style="fill: none; stroke: #1f77b4; stroke-width: 1.5; stroke-linecap: square"/>
   </g>
   <g id="line2d_14">
    <path d="M 73.832727 280.826182 
L 74.157707 280.826182 
L 74.482686 288.157091 
L 74.807666 280.826182 
L 75.132645 288.157091 
L 77.407502 288.157091 
L 77.732482 280.826182 
L 78.057461 295.488 
L 78.70742 295.488 
L 79.0324 288.157091 
L 79.682359 288.157091 
L 80.007338 280.826182 
L 80.332318 280.826182 
L 80.657297 288.157091 
L 80.982277 288.157091 
L 81.307256 280.826182 
L 81.632236 280.826182 
L 81.957215 273.495273 
L 82.282195 273.495273 
L 82.607174 280.826182 
L 82.932154 266.164364 
L 83.257133 273.495273 
L 83.582113 273.495273 
L 83.907093 280.826182 
L 84.232072 273.495273 
L 84.557052 273.495273 
L 85.207011 258.833455 
L 86.181949 258.833455 
L 86.506929 251.502545 
L 86.831908 251.502545 
L 87.481867 236.840727 
L 87.806847 251.502545 
L 88.131826 236.840727 
L 88.781785 251.502545 
L 89.106765 251.502545 
L 89.431744 236.840727 
L 89.756724 229.509818 
L 90.081704 236.840727 
L 90.406683 229.509818 
L 90.731663 236.840727 
L 91.056642 229.509818 
L 91.706601 229.509818 
L 92.031581 222.178909 
L 92.68154 222.178909 
L 93.006519 229.509818 
L 93.331499 214.848 
L 93.981458 229.509818 
L 94.306437 229.509818 
L 94.631417 214.848 
L 96.581294 214.848 
L 96.906274 207.517091 
L 97.231253 207.517091 
L 97.881212 192.855273 
L 98.206192 200.186182 
L 98.531171 185.524364 
L 99.18113 200.186182 
L 99.50611 200.186182 
L 100.156069 185.524364 
L 100.806028 185.524364 
L 101.131007 178.193455 
L 101.780966 178.193455 
L 102.105946 170.862545 
L 102.430925 170.862545 
L 102.755905 163.531636 
L 103.080885 163.531636 
L 103.405864 170.862545 
L 103.730844 156.200727 
L 104.380803 170.862545 
L 104.705782 156.200727 
L 105.355741 156.200727 
L 105.680721 148.869818 
L 106.980639 148.869818 
L 107.305618 141.538909 
L 107.630598 141.538909 
L 107.955577 134.208 
L 108.280557 134.208 
L 108.605536 141.538909 
L 108.930516 126.877091 
L 109.255495 134.208 
L 109.580475 134.208 
L 109.905455 126.877091 
L 110.230434 126.877091 
L 110.555414 119.546182 
L 111.205373 119.546182 
L 111.530352 112.215273 
L 111.855332 112.215273 
L 112.180311 119.546182 
L 112.505291 104.884364 
L 112.83027 104.884364 
L 113.15525 97.553455 
L 113.480229 97.553455 
L 113.805209 104.884364 
L 114.130188 90.222545 
L 114.455168 97.553455 
L 114.780147 97.553455 
L 115.105127 104.884364 
L 115.430106 90.222545 
L 117.379984 90.222545 
L 117.704963 82.891636 
L 118.029943 90.222545 
L 118.679902 75.560727 
L 119.004881 90.222545 
L 119.329861 75.560727 
L 119.65484 82.891636 
L 120.304799 82.891636 
L 120.629779 75.560727 
L 120.954758 75.560727 
L 121.279738 82.891636 
L 121.604717 75.560727 
L 122.579656 75.560727 
L 122.904636 68.229818 
L 123.229615 68.229818 
L 123.554595 60.898909 
L 123.879574 60.898909 
L 124.204554 75.560727 
L 124.529533 53.568 
L 124.854513 68.229818 
L 125.179492 75.560727 
L 125.829451 60.898909 
L 126.154431 68.229818 
L 127.454349 68.229818 
L 127.779328 75.560727 
L 128.104308 75.560727 
L 128.429287 68.229818 
L 128.754267 68.229818 
L 129.079247 60.898909 
L 129.404226 75.560727 
L 129.729206 60.898909 
L 130.054185 68.229818 
L 130.379165 82.891636 
L 130.704144 75.560727 
L 131.354103 75.560727 
L 131.679083 90.222545 
L 132.004062 90.222545 
L 132.329042 82.891636 
L 132.654021 90.222545 
L 133.30398 90.222545 
L 133.62896 97.553455 
L 133.953939 90.222545 
L 134.603898 104.884364 
L 134.928878 97.553455 
L 135.253857 112.215273 
L 136.553776 112.215273 
L 136.878755 119.546182 
L 137.203735 112.215273 
L 137.528714 119.546182 
L 138.503653 119.546182 
L 138.828632 126.877091 
L 139.153612 126.877091 
L 139.478591 119.546182 
L 139.803571 126.877091 
L 140.12855 119.546182 
L 140.45353 134.208 
L 141.103489 134.208 
L 141.428468 126.877091 
L 141.753448 134.208 
L 143.378346 134.208 
L 143.703325 141.538909 
L 144.028305 134.208 
L 144.353284 141.538909 
L 145.328223 141.538909 
L 145.653202 148.869818 
L 145.978182 163.531636 
L 146.628141 163.531636 
L 146.95312 156.200727 
L 147.2781 163.531636 
L 147.603079 163.531636 
L 147.928059 170.862545 
L 149.227977 170.862545 
L 149.552957 178.193455 
L 149.877936 178.193455 
L 150.202916 185.524364 
L 150.527895 178.193455 
L 150.852875 185.524364 
L 151.177854 185.524364 
L 151.502834 192.855273 
L 152.152793 192.855273 
L 152.477772 200.186182 
L 152.802752 192.855273 
L 153.127731 192.855273 
L 153.452711 200.186182 
L 155.077609 200.186182 
L 155.402588 207.517091 
L 155.727568 200.186182 
L 156.052547 214.848 
L 156.377527 214.848 
L 156.702506 229.509818 
L 157.027486 214.848 
L 157.677445 229.509818 
L 159.302342 229.509818 
L 159.627322 236.840727 
L 159.952301 236.840727 
L 160.277281 244.171636 
L 160.60226 244.171636 
L 160.92724 236.840727 
L 161.252219 244.171636 
L 161.577199 258.833455 
L 162.877117 258.833455 
L 163.202097 266.164364 
L 163.527076 258.833455 
L 163.852056 258.833455 
L 164.177035 266.164364 
L 164.502015 258.833455 
L 164.826994 258.833455 
L 165.151974 266.164364 
L 165.476953 258.833455 
L 165.801933 273.495273 
L 166.126912 258.833455 
L 166.776871 273.495273 
L 168.726749 273.495273 
L 169.051728 280.826182 
L 169.376708 280.826182 
L 169.701687 273.495273 
L 170.351646 273.495273 
L 171.001605 288.157091 
L 171.326585 273.495273 
L 171.651564 280.826182 
L 171.976544 295.488 
L 172.301523 288.157091 
L 172.626503 295.488 
L 172.951482 288.157091 
L 173.276462 288.157091 
L 173.601441 280.826182 
L 173.926421 288.157091 
L 175.226339 288.157091 
L 175.551319 280.826182 
L 176.201278 280.826182 
L 176.526257 273.495273 
L 177.176216 288.157091 
L 177.826175 288.157091 
L 178.151155 280.826182 
L 178.476134 280.826182 
L 179.126093 266.164364 
L 179.451073 273.495273 
L 180.101032 258.833455 
L 180.426011 266.164364 
L 181.075971 251.502545 
L 181.40095 258.833455 
L 181.72593 244.171636 
L 182.050909 266.164364 
L 182.375889 266.164364 
L 182.700868 258.833455 
L 183.025848 244.171636 
L 183.350827 251.502545 
L 183.675807 244.171636 
L 184.975725 244.171636 
L 185.300704 229.509818 
L 185.625684 236.840727 
L 185.950663 229.509818 
L 186.275643 229.509818 
L 186.600622 236.840727 
L 186.925602 222.178909 
L 187.250581 236.840727 
L 187.575561 229.509818 
L 187.900541 236.840727 
L 188.22552 222.178909 
L 189.850418 222.178909 
L 190.175397 229.509818 
L 191.150336 207.517091 
L 191.475315 214.848 
L 191.800295 214.848 
L 192.125274 200.186182 
L 192.775233 214.848 
L 193.100213 214.848 
L 193.425192 192.855273 
L 193.750172 200.186182 
L 194.400131 200.186182 
L 194.725111 192.855273 
L 195.37507 192.855273 
L 196.025029 178.193455 
L 196.999967 178.193455 
L 197.324947 163.531636 
L 197.974906 178.193455 
L 198.299885 178.193455 
L 198.949844 163.531636 
L 200.574742 163.531636 
L 201.224701 148.869818 
L 202.19964 148.869818 
L 202.524619 134.208 
L 202.849599 148.869818 
L 203.499558 148.869818 
L 203.824537 134.208 
L 205.124455 134.208 
L 205.449435 126.877091 
L 205.774414 126.877091 
L 206.099394 119.546182 
L 206.749353 119.546182 
L 207.074333 112.215273 
L 207.399312 112.215273 
L 207.724292 104.884364 
L 208.374251 119.546182 
L 208.69923 119.546182 
L 209.02421 104.884364 
L 209.349189 97.553455 
L 209.674169 104.884364 
L 209.999148 97.553455 
L 210.324128 104.884364 
L 210.649107 97.553455 
L 210.974087 97.553455 
L 211.299066 90.222545 
L 211.949025 90.222545 
L 212.274005 82.891636 
L 212.598984 97.553455 
L 212.923964 82.891636 
L 213.248943 90.222545 
L 213.898903 90.222545 
L 214.223882 82.891636 
L 214.548862 82.891636 
L 214.873841 90.222545 
L 215.198821 82.891636 
L 216.173759 82.891636 
L 216.498739 75.560727 
L 216.823718 82.891636 
L 217.148698 82.891636 
L 217.473677 68.229818 
L 217.798657 82.891636 
L 218.123636 60.898909 
L 218.448616 75.560727 
L 219.098575 75.560727 
L 219.423554 68.229818 
L 220.073514 68.229818 
L 220.398493 75.560727 
L 220.723473 60.898909 
L 221.048452 68.229818 
L 221.698411 68.229818 
L 222.023391 60.898909 
L 222.34837 60.898909 
L 222.67335 53.568 
L 222.998329 68.229818 
L 223.323309 60.898909 
L 223.973268 75.560727 
L 226.248124 75.560727 
L 226.573104 82.891636 
L 227.548043 82.891636 
L 227.873022 75.560727 
L 228.198002 90.222545 
L 228.522981 82.891636 
L 228.847961 90.222545 
L 229.17294 104.884364 
L 229.49792 104.884364 
L 229.822899 97.553455 
L 230.147879 97.553455 
L 230.472858 104.884364 
L 230.797838 97.553455 
L 231.447797 112.215273 
L 231.772776 112.215273 
L 232.097756 97.553455 
L 232.422735 112.215273 
L 232.747715 112.215273 
L 233.072695 104.884364 
L 233.397674 119.546182 
L 233.722654 104.884364 
L 234.047633 119.546182 
L 234.372613 126.877091 
L 235.672531 126.877091 
L 235.99751 134.208 
L 236.32249 134.208 
L 236.647469 126.877091 
L 236.972449 134.208 
L 237.297428 126.877091 
L 237.622408 134.208 
L 237.947387 134.208 
L 238.272367 126.877091 
L 238.597346 141.538909 
L 238.922326 119.546182 
L 239.247305 134.208 
L 239.897265 148.869818 
L 240.222244 141.538909 
L 240.547224 148.869818 
L 241.847142 148.869818 
L 242.172121 156.200727 
L 243.472039 156.200727 
L 243.797019 170.862545 
L 244.121998 156.200727 
L 244.446978 170.862545 
L 244.771957 178.193455 
L 245.421916 178.193455 
L 245.746896 170.862545 
L 246.071876 178.193455 
L 246.396855 178.193455 
L 246.721835 185.524364 
L 247.046814 185.524364 
L 247.371794 192.855273 
L 247.696773 185.524364 
L 248.346732 185.524364 
L 248.996691 200.186182 
L 249.321671 185.524364 
L 249.64665 200.186182 
L 250.296609 214.848 
L 250.621589 200.186182 
L 250.946568 200.186182 
L 251.271548 207.517091 
L 251.921507 207.517091 
L 252.246486 214.848 
L 252.571466 214.848 
L 252.896446 222.178909 
L 253.871384 222.178909 
L 254.196364 229.509818 
L 254.521343 222.178909 
L 254.846323 236.840727 
L 255.171302 244.171636 
L 256.47122 244.171636 
L 256.7962 251.502545 
L 257.121179 244.171636 
L 257.446159 251.502545 
L 258.096118 251.502545 
L 258.421097 258.833455 
L 258.746077 258.833455 
L 259.071057 251.502545 
L 259.396036 258.833455 
L 259.721016 258.833455 
L 260.045995 266.164364 
L 261.345913 266.164364 
L 261.670893 273.495273 
L 261.995872 266.164364 
L 262.320852 266.164364 
L 262.645831 273.495273 
L 263.62077 273.495273 
L 263.945749 266.164364 
L 264.270729 273.495273 
L 264.595708 273.495273 
L 264.920688 266.164364 
L 265.245667 273.495273 
L 265.570647 288.157091 
L 265.895627 280.826182 
L 266.545586 280.826182 
L 266.870565 288.157091 
L 267.195545 288.157091 
L 267.520524 280.826182 
L 267.845504 288.157091 
L 268.495463 288.157091 
L 268.820442 280.826182 
L 269.470401 280.826182 
L 269.795381 288.157091 
L 270.12036 280.826182 
L 270.44534 288.157091 
L 271.420278 288.157091 
L 271.745258 280.826182 
L 272.070238 288.157091 
L 272.395217 288.157091 
L 272.720197 280.826182 
L 273.695135 280.826182 
L 274.020115 273.495273 
L 274.670074 273.495273 
L 274.995053 280.826182 
L 275.320033 258.833455 
L 276.294971 280.826182 
L 276.619951 266.164364 
L 276.94493 266.164364 
L 277.594889 251.502545 
L 278.244848 251.502545 
L 278.569828 258.833455 
L 279.544767 236.840727 
L 279.869746 236.840727 
L 280.194726 244.171636 
L 280.519705 229.509818 
L 281.169664 244.171636 
L 281.494644 244.171636 
L 281.819623 236.840727 
L 282.144603 236.840727 
L 282.469582 229.509818 
L 283.7695 229.509818 
L 284.09448 222.178909 
L 284.744439 222.178909 
L 285.069419 214.848 
L 285.394398 229.509818 
L 285.719378 207.517091 
L 286.044357 222.178909 
L 286.369337 229.509818 
L 286.694316 222.178909 
L 287.019296 222.178909 
L 287.344275 214.848 
L 287.669255 214.848 
L 287.994234 207.517091 
L 288.319214 214.848 
L 288.644193 207.517091 
L 288.969173 207.517091 
L 289.294152 200.186182 
L 289.619132 200.186182 
L 290.269091 185.524364 
L 290.59407 200.186182 
L 290.91905 178.193455 
L 291.244029 192.855273 
L 291.569009 192.855273 
L 291.893989 200.186182 
L 292.218968 178.193455 
L 292.543948 178.193455 
L 292.868927 170.862545 
L 293.518886 170.862545 
L 293.843866 178.193455 
L 294.493825 163.531636 
L 294.818804 170.862545 
L 295.143784 156.200727 
L 295.468763 156.200727 
L 295.793743 163.531636 
L 296.118722 148.869818 
L 296.768681 163.531636 
L 297.41864 148.869818 
L 297.74362 156.200727 
L 298.0686 156.200727 
L 298.393579 148.869818 
L 298.718559 148.869818 
L 299.043538 141.538909 
L 299.368518 141.538909 
L 299.693497 134.208 
L 300.343456 134.208 
L 300.668436 126.877091 
L 300.993415 134.208 
L 301.318395 119.546182 
L 301.643374 126.877091 
L 301.968354 126.877091 
L 302.293333 119.546182 
L 302.943292 119.546182 
L 303.268272 112.215273 
L 304.24321 112.215273 
L 304.89317 97.553455 
L 305.218149 104.884364 
L 305.543129 97.553455 
L 305.868108 97.553455 
L 306.193088 104.884364 
L 306.518067 90.222545 
L 307.168026 104.884364 
L 307.493006 97.553455 
L 307.817985 97.553455 
L 308.142965 90.222545 
L 309.767862 90.222545 
L 310.092842 82.891636 
L 310.417821 90.222545 
L 311.067781 75.560727 
L 311.39276 90.222545 
L 311.71774 68.229818 
L 312.042719 82.891636 
L 312.367699 90.222545 
L 313.017658 75.560727 
L 313.992596 75.560727 
L 314.317576 68.229818 
L 315.942473 68.229818 
L 316.267453 60.898909 
L 316.592432 68.229818 
L 316.917412 53.568 
L 317.242391 68.229818 
L 317.567371 68.229818 
L 317.892351 75.560727 
L 318.21733 60.898909 
L 318.867289 75.560727 
L 319.192269 75.560727 
L 319.517248 68.229818 
L 320.492187 68.229818 
L 320.817166 82.891636 
L 321.142146 68.229818 
L 321.467125 68.229818 
L 321.792105 82.891636 
L 322.117084 68.229818 
L 322.442064 82.891636 
L 322.767043 82.891636 
L 323.092023 90.222545 
L 323.417002 82.891636 
L 323.741982 90.222545 
L 324.391941 90.222545 
L 324.716921 97.553455 
L 325.0419 90.222545 
L 325.36688 97.553455 
L 326.666798 97.553455 
L 326.991777 104.884364 
L 327.316757 97.553455 
L 327.641736 112.215273 
L 327.966716 112.215273 
L 328.291695 119.546182 
L 329.266634 119.546182 
L 329.591613 112.215273 
L 329.916593 126.877091 
L 330.566552 126.877091 
L 330.891532 119.546182 
L 331.216511 126.877091 
L 331.86647 126.877091 
L 332.19145 134.208 
L 332.516429 119.546182 
L 333.491368 141.538909 
L 333.816347 134.208 
L 334.466306 134.208 
L 334.791286 141.538909 
L 335.116265 134.208 
L 335.441245 141.538909 
L 337.066143 141.538909 
L 337.391122 148.869818 
L 337.716102 141.538909 
L 338.041081 156.200727 
L 338.69104 170.862545 
L 339.01602 156.200727 
L 339.340999 163.531636 
L 339.990958 163.531636 
L 340.640917 178.193455 
L 342.265815 178.193455 
L 342.590794 185.524364 
L 342.915774 178.193455 
L 343.240753 185.524364 
L 343.565733 200.186182 
L 343.890713 200.186182 
L 344.215692 192.855273 
L 344.865651 192.855273 
L 345.190631 200.186182 
L 345.51561 192.855273 
L 345.84059 207.517091 
L 346.165569 200.186182 
L 346.490549 200.186182 
L 346.815528 207.517091 
L 347.465487 207.517091 
L 347.790467 214.848 
L 348.115446 200.186182 
L 348.765405 229.509818 
L 349.090385 229.509818 
L 349.415364 222.178909 
L 349.740344 229.509818 
L 350.065324 229.509818 
L 350.390303 236.840727 
L 350.715283 229.509818 
L 351.040262 236.840727 
L 352.34018 236.840727 
L 352.990139 251.502545 
L 353.315119 236.840727 
L 353.640098 251.502545 
L 354.290057 266.164364 
L 354.615037 266.164364 
L 354.940016 258.833455 
L 355.914955 258.833455 
L 356.239934 266.164364 
L 356.889894 266.164364 
L 357.214873 258.833455 
L 357.539853 266.164364 
L 357.864832 266.164364 
L 358.189812 273.495273 
L 358.514791 258.833455 
L 359.16475 288.157091 
L 359.48973 280.826182 
L 359.814709 280.826182 
L 360.139689 273.495273 
L 360.464668 273.495273 
L 360.789648 280.826182 
L 361.114627 273.495273 
L 361.439607 280.826182 
L 362.089566 280.826182 
L 362.414545 288.157091 
L 362.739525 280.826182 
L 363.064505 280.826182 
L 363.389484 288.157091 
L 363.714464 280.826182 
L 364.364423 295.488 
L 364.689402 288.157091 
L 365.014382 295.488 
L 365.339361 288.157091 
L 367.289238 288.157091 
L 367.614218 280.826182 
L 367.939197 280.826182 
L 368.264177 273.495273 
L 368.589156 288.157091 
L 368.914136 266.164364 
L 369.239115 280.826182 
L 369.564095 288.157091 
L 369.889075 288.157091 
L 370.539034 273.495273 
L 370.864013 273.495273 
L 371.188993 266.164364 
L 371.513972 266.164364 
L 371.838952 273.495273 
L 372.163931 266.164364 
L 372.488911 266.164364 
L 372.81389 258.833455 
L 373.13887 258.833455 
L 373.463849 251.502545 
L 373.788829 258.833455 
L 374.113808 244.171636 
L 374.438788 244.171636 
L 374.763767 258.833455 
L 375.088747 258.833455 
L 376.063686 236.840727 
L 376.388665 236.840727 
L 376.713645 244.171636 
L 377.038624 236.840727 
L 377.363604 244.171636 
L 377.688583 229.509818 
L 378.013563 236.840727 
L 378.663522 222.178909 
L 378.988501 229.509818 
L 379.313481 214.848 
L 379.96344 229.509818 
L 380.288419 229.509818 
L 380.613399 222.178909 
L 380.938378 229.509818 
L 381.588337 214.848 
L 381.913317 222.178909 
L 382.238296 222.178909 
L 382.563276 214.848 
L 383.213235 214.848 
L 383.863194 200.186182 
L 384.188174 207.517091 
L 384.513153 192.855273 
L 385.488092 214.848 
L 385.813071 192.855273 
L 386.46303 192.855273 
L 386.78801 185.524364 
L 387.762948 185.524364 
L 388.087928 178.193455 
L 388.737887 178.193455 
L 389.062867 170.862545 
L 389.387846 178.193455 
L 389.712826 156.200727 
L 390.037805 178.193455 
L 390.362785 170.862545 
L 390.687764 178.193455 
L 391.012744 163.531636 
L 391.337723 163.531636 
L 391.662703 156.200727 
L 392.312662 156.200727 
L 392.637641 163.531636 
L 392.962621 163.531636 
L 393.2876 148.869818 
L 393.937559 148.869818 
L 394.262539 141.538909 
L 394.587518 156.200727 
L 394.912498 134.208 
L 395.562457 148.869818 
L 395.887437 148.869818 
L 396.862375 126.877091 
L 397.187355 126.877091 
L 397.512334 134.208 
L 397.837314 126.877091 
L 398.162293 126.877091 
L 398.487273 119.546182 
L 398.487273 119.546182 
" clip-path="url(#p56f2483f29)" style="fill: none; stroke: #ff7f0e; stroke-width: 1.5; stroke-linecap: square"/>
   </g>
   <g id="line2d_15">
    <path d="M 73.832727 152.658273 
L 126.80439 152.760905 
L 128.104308 152.782898 
L 129.729206 152.702258 
L 132.654021 152.731582 
L 133.953939 152.71692 
L 135.253857 152.782898 
L 144.353284 152.680265 
L 146.95312 152.687596 
L 398.487273 152.768236 
L 398.487273 152.768236 
" clip-path="url(#p56f2483f29)" style="fill: none; stroke: #2ca02c; stroke-width: 1.5; stroke-linecap: square"/>
   </g>
   <g id="line2d_16">
    <path d="M 73.832727 145.107202 
L 94.631417 145.091074 
L 98.531171 145.111601 
L 120.954758 145.105736 
L 133.953939 145.094006 
L 140.12855 145.129195 
L 398.487273 145.115999 
L 398.487273 145.115999 
" clip-path="url(#p56f2483f29)" style="fill: none; stroke: #d62728; stroke-width: 1.5; stroke-linecap: square"/>
   </g>
   <g id="patch_3">
    <path d="M 57.6 307.584 
L 57.6 41.472 
" style="fill: none; stroke: #000000; stroke-width: 0.8; stroke-linejoin: miter; stroke-linecap: square"/>
   </g>
   <g id="patch_4">
    <path d="M 414.72 307.584 
L 414.72 41.472 
" style="fill: none; stroke: #000000; stroke-width: 0.8; stroke-linejoin: miter; stroke-linecap: square"/>
   </g>
   <g id="patch_5">
    <path d="M 57.6 307.584 
L 414.72 307.584 
" style="fill: none; stroke: #000000; stroke-width: 0.8; stroke-linejoin: miter; stroke-linecap: square"/>
   </g>
   <g id="patch_6">
    <path d="M 57.6 41.472 
L 414.72 41.472 
" style="fill: none; stroke: #000000; stroke-width: 0.8; stroke-linejoin: miter; stroke-linecap: square"/>
   </g>
  </g>
 </g>
 <defs>
  <clipPath id="p56f2483f29">
   <rect x="57.6" y="41.472" width="357.12" height="266.112"/>
  </clipPath>
 </defs>
</svg>
