<?xml version="1.0" encoding="utf-8" standalone="no"?>
<!DOCTYPE svg PUBLIC "-//W3C//DTD SVG 1.1//EN"
  "http://www.w3.org/Graphics/SVG/1.1/DTD/svg11.dtd">
<svg xmlns:xlink="http://www.w3.org/1999/xlink" width="460.8pt" height="345.6pt" viewBox="0 0 460.8 345.6" xmlns="http://www.w3.org/2000/svg" version="1.1">
 <metadata>
  <rdf:RDF xmlns:dc="http://purl.org/dc/elements/1.1/" xmlns:cc="http://creativecommons.org/ns#" xmlns:rdf="http://www.w3.org/1999/02/22-rdf-syntax-ns#">
   <cc:Work>
    <dc:type rdf:resource="http://purl.org/dc/dcmitype/StillImage"/>
    <dc:date>2025-12-26T12:11:09.803807</dc:date>
    <dc:format>image/svg+xml</dc:format>
    <dc:creator>
     <cc:Agent>
      <dc:title>Matplotlib v3.10.8, https://matplotlib.org/</dc:title>
     </cc:Agent>
    </dc:creator>
   </cc:Work>
  </rdf:RDF>
 </metadata>
 <defs>
  <style type="text/css">*{stroke-linejoin: round; stroke-linecap: butt}</style>
 </defs>
 <g id="figure_1">
  <g id="patch_1">
   <path d="M 0 345.6 
L 460.8 345.6 
L 460.8 0 
L 0 0 
z
" style="fill: #ffffff"/>
  </g>
  <g id="axes_1">
   <g id="patch_2">
    <path d="M 57.6 307.584 
L 414.72 307.584 
L 414.72 41.472 
L 57.6 41.472 
z
" style="fill: #ffffff"/>
   </g>
   <g id="matplotlib.axis_1">
    <g id="xtick_1">
     <g id="line2d_1">
      <defs>
       <path id="m4e64d6fafd" d="M 0 0 
L 0 3.5 
" style="stroke: #000000; stroke-width: 0.8"/>
      </defs>
      <g>
       <use xlink:href="#m4e64d6fafd" x="73.832727" y="307.584" style="stroke: #000000; stroke-width: 0.8"/>
      </g>
     </g>
     <g id="text_1">
      <!-- 0 -->
      <g transform="translate(70.651477 322.182437) scale(0.1 -0.1)">
       <defs>
        <path id="DejaVuSans-30" d="M 2034 4250 
Q 1547 4250 1301 3770 
Q 1056 3291 1056 2328 
Q 1056 1369 1301 889 
Q 1547 409 2034 409 
Q 2525 409 2770 889 
Q 3016 1369 3016 2328 
Q 3016 3291 2770 3770 
Q 2525 4250 2034 4250 
z
M 2034 4750 
Q 2819 4750 3233 4129 
Q 3647 3509 3647 2328 
Q 3647 1150 3233 529 
Q 2819 -91 2034 -91 
Q 1250 -91 836 529 
Q 422 1150 422 2328 
Q 422 3509 836 4129 
Q 1250 4750 2034 4750 
z
" transform="scale(0.015625)"/>
       </defs>
       <use xlink:href="#DejaVuSans-30"/>
      </g>
     </g>
    </g>
    <g id="xtick_2">
     <g id="line2d_2">
      <g>
       <use xlink:href="#m4e64d6fafd" x="138.828632" y="307.584" style="stroke: #000000; stroke-width: 0.8"/>
      </g>
     </g>
     <g id="text_2">
      <!-- 1 -->
      <g transform="translate(135.647382 322.182437) scale(0.1 -0.1)">
       <defs>
        <path id="DejaVuSans-31" d="M 794 531 
L 1825 531 
L 1825 4091 
L 703 3866 
L 703 4441 
L 1819 4666 
L 2450 4666 
L 2450 531 
L 3481 531 
L 3481 0 
L 794 0 
L 794 531 
z
" transform="scale(0.015625)"/>
       </defs>
       <use xlink:href="#DejaVuSans-31"/>
      </g>
     </g>
    </g>
    <g id="xtick_3">
     <g id="line2d_3">
      <g>
       <use xlink:href="#m4e64d6fafd" x="203.824537" y="307.584" style="stroke: #000000; stroke-width: 0.8"/>
      </g>
     </g>
     <g id="text_3">
      <!-- 2 -->
      <g transform="translate(200.643287 322.182437) scale(0.1 -0.1)">
       <defs>
        <path id="DejaVuSans-32" d="M 1228 531 
L 3431 531 
L 3431 0 
L 469 0 
L 469 531 
Q 828 903 1448 1529 
Q 2069 2156 2228 2338 
Q 2531 2678 2651 2914 
Q 2772 3150 2772 3378 
Q 2772 3750 2511 3984 
Q 2250 4219 1831 4219 
Q 1534 4219 1204 4116 
Q 875 4013 500 3803 
L 500 4441 
Q 881 4594 1212 4672 
Q 1544 4750 1819 4750 
Q 2544 4750 2975 4387 
Q 3406 4025 3406 3419 
Q 3406 3131 3298 2873 
Q 3191 2616 2906 2266 
Q 2828 2175 2409 1742 
Q 1991 1309 1228 531 
z
" transform="scale(0.015625)"/>
       </defs>
       <use xlink:href="#DejaVuSans-32"/>
      </g>
     </g>
    </g>
    <g id="xtick_4">
     <g id="line2d_4">
      <g>
       <use xlink:href="#m4e64d6fafd" x="268.820442" y="307.584" style="stroke: #000000; stroke-width: 0.8"/>
      </g>
     </g>
     <g id="text_4">
      <!-- 3 -->
      <g transform="translate(265.639192 322.182437) scale(0.1 -0.1)">
       <defs>
        <path id="DejaVuSans-33" d="M 2597 2516 
Q 3050 2419 3304 2112 
Q 3559 1806 3559 1356 
Q 3559 666 3084 287 
Q 2609 -91 1734 -91 
Q 1441 -91 1130 -33 
Q 819 25 488 141 
L 488 750 
Q 750 597 1062 519 
Q 1375 441 1716 441 
Q 2309 441 2620 675 
Q 2931 909 2931 1356 
Q 2931 1769 2642 2001 
Q 2353 2234 1838 2234 
L 1294 2234 
L 1294 2753 
L 1863 2753 
Q 2328 2753 2575 2939 
Q 2822 3125 2822 3475 
Q 2822 3834 2567 4026 
Q 2313 4219 1838 4219 
Q 1578 4219 1281 4162 
Q 984 4106 628 3988 
L 628 4550 
Q 988 4650 1302 4700 
Q 1616 4750 1894 4750 
Q 2613 4750 3031 4423 
Q 3450 4097 3450 3541 
Q 3450 3153 3228 2886 
Q 3006 2619 2597 2516 
z
" transform="scale(0.015625)"/>
       </defs>
       <use xlink:href="#DejaVuSans-33"/>
      </g>
     </g>
    </g>
    <g id="xtick_5">
     <g id="line2d_5">
      <g>
       <use xlink:href="#m4e64d6fafd" x="333.816347" y="307.584" style="stroke: #000000; stroke-width: 0.8"/>
      </g>
     </g>
     <g id="text_5">
      <!-- 4 -->
      <g transform="translate(330.635097 322.182437) scale(0.1 -0.1)">
       <defs>
        <path id="DejaVuSans-34" d="M 2419 4116 
L 825 1625 
L 2419 1625 
L 2419 4116 
z
M 2253 4666 
L 3047 4666 
L 3047 1625 
L 3713 1625 
L 3713 1100 
L 3047 1100 
L 3047 0 
L 2419 0 
L 2419 1100 
L 313 1100 
L 313 1709 
L 2253 4666 
z
" transform="scale(0.015625)"/>
       </defs>
       <use xlink:href="#DejaVuSans-34"/>
      </g>
     </g>
    </g>
    <g id="xtick_6">
     <g id="line2d_6">
      <g>
       <use xlink:href="#m4e64d6fafd" x="398.812252" y="307.584" style="stroke: #000000; stroke-width: 0.8"/>
      </g>
     </g>
     <g id="text_6">
      <!-- 5 -->
      <g transform="translate(395.631002 322.182437) scale(0.1 -0.1)">
       <defs>
        <path id="DejaVuSans-35" d="M 691 4666 
L 3169 4666 
L 3169 4134 
L 1269 4134 
L 1269 2991 
Q 1406 3038 1543 3061 
Q 1681 3084 1819 3084 
Q 2600 3084 3056 2656 
Q 3513 2228 3513 1497 
Q 3513 744 3044 326 
Q 2575 -91 1722 -91 
Q 1428 -91 1123 -41 
Q 819 9 494 109 
L 494 744 
Q 775 591 1075 516 
Q 1375 441 1709 441 
Q 2250 441 2565 725 
Q 2881 1009 2881 1497 
Q 2881 1984 2565 2268 
Q 2250 2553 1709 2553 
Q 1456 2553 1204 2497 
Q 953 2441 691 2322 
L 691 4666 
z
" transform="scale(0.015625)"/>
       </defs>
       <use xlink:href="#DejaVuSans-35"/>
      </g>
     </g>
    </g>
    <g id="text_7">
     <!-- 1e−7 -->
     <g transform="translate(387.462188 334.860562) scale(0.1 -0.1)">
      <defs>
       <path id="DejaVuSans-65" d="M 3597 1894 
L 3597 1613 
L 953 1613 
Q 991 1019 1311 708 
Q 1631 397 2203 397 
Q 2534 397 2845 478 
Q 3156 559 3463 722 
L 3463 178 
Q 3153 47 2828 -22 
Q 2503 -91 2169 -91 
Q 1331 -91 842 396 
Q 353 884 353 1716 
Q 353 2575 817 3079 
Q 1281 3584 2069 3584 
Q 2775 3584 3186 3129 
Q 3597 2675 3597 1894 
z
M 3022 2063 
Q 3016 2534 2758 2815 
Q 2500 3097 2075 3097 
Q 1594 3097 1305 2825 
Q 1016 2553 972 2059 
L 3022 2063 
z
" transform="scale(0.015625)"/>
       <path id="DejaVuSans-2212" d="M 678 2272 
L 4684 2272 
L 4684 1741 
L 678 1741 
L 678 2272 
z
" transform="scale(0.015625)"/>
       <path id="DejaVuSans-37" d="M 525 4666 
L 3525 4666 
L 3525 4397 
L 1831 0 
L 1172 0 
L 2766 4134 
L 525 4134 
L 525 4666 
z
" transform="scale(0.015625)"/>
      </defs>
      <use xlink:href="#DejaVuSans-31"/>
      <use xlink:href="#DejaVuSans-65" transform="translate(63.623047 0)"/>
      <use xlink:href="#DejaVuSans-2212" transform="translate(125.146484 0)"/>
      <use xlink:href="#DejaVuSans-37" transform="translate(208.935547 0)"/>
     </g>
    </g>
   </g>
   <g id="matplotlib.axis_2">
    <g id="ytick_1">
     <g id="line2d_7">
      <defs>
       <path id="mcef80bdd16" d="M 0 0 
L -3.5 0 
" style="stroke: #000000; stroke-width: 0.8"/>
      </defs>
      <g>
       <use xlink:href="#mcef80bdd16" x="57.6" y="263.398493" style="stroke: #000000; stroke-width: 0.8"/>
      </g>
     </g>
     <g id="text_8">
      <!-- −200 -->
      <g transform="translate(23.132812 267.197712) scale(0.1 -0.1)">
       <use xlink:href="#DejaVuSans-2212"/>
       <use xlink:href="#DejaVuSans-32" transform="translate(83.789062 0)"/>
       <use xlink:href="#DejaVuSans-30" transform="translate(147.412109 0)"/>
       <use xlink:href="#DejaVuSans-30" transform="translate(211.035156 0)"/>
      </g>
     </g>
    </g>
    <g id="ytick_2">
     <g id="line2d_8">
      <g>
       <use xlink:href="#mcef80bdd16" x="57.6" y="213.453722" style="stroke: #000000; stroke-width: 0.8"/>
      </g>
     </g>
     <g id="text_9">
      <!-- −100 -->
      <g transform="translate(23.132812 217.252941) scale(0.1 -0.1)">
       <use xlink:href="#DejaVuSans-2212"/>
       <use xlink:href="#DejaVuSans-31" transform="translate(83.789062 0)"/>
       <use xlink:href="#DejaVuSans-30" transform="translate(147.412109 0)"/>
       <use xlink:href="#DejaVuSans-30" transform="translate(211.035156 0)"/>
      </g>
     </g>
    </g>
    <g id="ytick_3">
     <g id="line2d_9">
      <g>
       <use xlink:href="#mcef80bdd16" x="57.6" y="163.508951" style="stroke: #000000; stroke-width: 0.8"/>
      </g>
     </g>
     <g id="text_10">
      <!-- 0 -->
      <g transform="translate(44.2375 167.30817) scale(0.1 -0.1)">
       <use xlink:href="#DejaVuSans-30"/>
      </g>
     </g>
    </g>
    <g id="ytick_4">
     <g id="line2d_10">
      <g>
       <use xlink:href="#mcef80bdd16" x="57.6" y="113.56418" style="stroke: #000000; stroke-width: 0.8"/>
      </g>
     </g>
     <g id="text_11">
      <!-- 100 -->
      <g transform="translate(31.5125 117.363399) scale(0.1 -0.1)">
       <use xlink:href="#DejaVuSans-31"/>
       <use xlink:href="#DejaVuSans-30" transform="translate(63.623047 0)"/>
       <use xlink:href="#DejaVuSans-30" transform="translate(127.246094 0)"/>
      </g>
     </g>
    </g>
    <g id="ytick_5">
     <g id="line2d_11">
      <g>
       <use xlink:href="#mcef80bdd16" x="57.6" y="63.619409" style="stroke: #000000; stroke-width: 0.8"/>
      </g>
     </g>
     <g id="text_12">
      <!-- 200 -->
      <g transform="translate(31.5125 67.418627) scale(0.1 -0.1)">
       <use xlink:href="#DejaVuSans-32"/>
       <use xlink:href="#DejaVuSans-30" transform="translate(63.623047 0)"/>
       <use xlink:href="#DejaVuSans-30" transform="translate(127.246094 0)"/>
      </g>
     </g>
    </g>
   </g>
   <g id="line2d_12">
    <path d="M 73.832727 148.900058 
L 74.157707 156.703929 
L 74.482686 156.703929 
L 74.807666 148.900058 
L 75.132645 148.900058 
L 75.457625 156.703929 
L 75.782604 156.703929 
L 76.107584 164.5078 
L 76.432563 164.5078 
L 76.757543 156.703929 
L 77.082523 156.703929 
L 77.407502 172.311671 
L 78.382441 172.311671 
L 78.70742 180.115542 
L 79.0324 172.311671 
L 79.357379 180.115542 
L 81.632236 180.115542 
L 81.957215 187.919413 
L 82.282195 180.115542 
L 82.932154 195.723284 
L 83.582113 195.723284 
L 83.907093 203.527155 
L 84.232072 195.723284 
L 84.557052 195.723284 
L 84.882031 203.527155 
L 85.207011 195.723284 
L 85.53199 195.723284 
L 85.85697 203.527155 
L 87.481867 203.527155 
L 87.806847 211.331026 
L 88.131826 211.331026 
L 88.456806 203.527155 
L 89.106765 219.134897 
L 89.431744 211.331026 
L 89.756724 219.134897 
L 91.381622 219.134897 
L 91.706601 226.938768 
L 92.35656 226.938768 
L 92.68154 219.134897 
L 93.006519 226.938768 
L 93.331499 226.938768 
L 93.656478 219.134897 
L 93.981458 234.742639 
L 94.306437 242.54651 
L 94.631417 234.742639 
L 94.956396 234.742639 
L 95.281376 242.54651 
L 95.606355 242.54651 
L 95.931335 234.742639 
L 96.256314 250.350381 
L 96.581294 242.54651 
L 96.906274 250.350381 
L 97.231253 250.350381 
L 97.556233 258.154252 
L 97.881212 242.54651 
L 98.206192 258.154252 
L 98.531171 250.350381 
L 98.856151 250.350381 
L 99.50611 265.958123 
L 99.831089 265.958123 
L 100.156069 258.154252 
L 100.481048 265.958123 
L 101.131007 265.958123 
L 101.455987 258.154252 
L 101.780966 258.154252 
L 102.105946 265.958123 
L 102.430925 258.154252 
L 102.755905 265.958123 
L 103.080885 258.154252 
L 103.405864 265.958123 
L 103.730844 265.958123 
L 104.055823 258.154252 
L 104.380803 258.154252 
L 104.705782 265.958123 
L 105.030762 258.154252 
L 105.355741 265.958123 
L 105.680721 265.958123 
L 106.0057 250.350381 
L 106.33068 250.350381 
L 106.655659 258.154252 
L 106.980639 258.154252 
L 107.305618 250.350381 
L 107.630598 258.154252 
L 107.955577 258.154252 
L 108.280557 242.54651 
L 108.605536 250.350381 
L 108.930516 242.54651 
L 109.255495 258.154252 
L 109.580475 242.54651 
L 109.905455 258.154252 
L 110.230434 242.54651 
L 110.555414 250.350381 
L 110.880393 250.350381 
L 111.205373 234.742639 
L 112.505291 234.742639 
L 112.83027 226.938768 
L 113.15525 226.938768 
L 113.480229 219.134897 
L 113.805209 226.938768 
L 114.130188 211.331026 
L 114.455168 219.134897 
L 115.105127 219.134897 
L 115.430106 211.331026 
L 115.755086 219.134897 
L 116.080066 211.331026 
L 116.405045 211.331026 
L 116.730025 203.527155 
L 118.354922 203.527155 
L 118.679902 195.723284 
L 119.004881 203.527155 
L 119.329861 195.723284 
L 120.304799 195.723284 
L 120.629779 187.919413 
L 120.954758 187.919413 
L 121.279738 180.115542 
L 121.604717 187.919413 
L 121.929697 180.115542 
L 122.579656 180.115542 
L 122.904636 172.311671 
L 123.229615 180.115542 
L 123.879574 164.5078 
L 124.204554 172.311671 
L 124.529533 172.311671 
L 124.854513 164.5078 
L 125.179492 172.311671 
L 125.504472 172.311671 
L 125.829451 156.703929 
L 126.154431 156.703929 
L 126.47941 164.5078 
L 126.80439 156.703929 
L 127.129369 156.703929 
L 127.454349 148.900058 
L 127.779328 148.900058 
L 128.104308 156.703929 
L 128.754267 141.096187 
L 129.079247 148.900058 
L 129.404226 148.900058 
L 129.729206 141.096187 
L 130.379165 141.096187 
L 130.704144 156.703929 
L 131.029124 141.096187 
L 131.354103 148.900058 
L 132.004062 133.292316 
L 133.953939 133.292316 
L 134.278919 125.488445 
L 134.603898 133.292316 
L 134.928878 125.488445 
L 135.578837 125.488445 
L 135.903817 133.292316 
L 136.228796 117.684575 
L 136.553776 125.488445 
L 137.203735 125.488445 
L 137.528714 109.880704 
L 137.853694 117.684575 
L 138.503653 117.684575 
L 138.828632 125.488445 
L 139.153612 109.880704 
L 139.478591 102.076833 
L 139.803571 109.880704 
L 140.778509 109.880704 
L 141.103489 117.684575 
L 141.753448 102.076833 
L 142.403407 102.076833 
L 142.728387 94.272962 
L 144.028305 94.272962 
L 144.678264 78.66522 
L 145.003243 94.272962 
L 145.328223 78.66522 
L 145.653202 78.66522 
L 145.978182 86.469091 
L 146.303161 86.469091 
L 146.628141 70.861349 
L 147.2781 86.469091 
L 147.928059 70.861349 
L 148.578018 70.861349 
L 148.902998 78.66522 
L 149.552957 78.66522 
L 149.877936 63.057478 
L 150.202916 78.66522 
L 150.852875 78.66522 
L 151.177854 70.861349 
L 151.502834 78.66522 
L 151.827813 63.057478 
L 152.477772 78.66522 
L 152.802752 70.861349 
L 153.127731 70.861349 
L 153.452711 78.66522 
L 153.77769 70.861349 
L 154.10267 78.66522 
L 154.752629 78.66522 
L 155.077609 70.861349 
L 155.402588 86.469091 
L 155.727568 78.66522 
L 156.052547 78.66522 
L 156.377527 86.469091 
L 156.702506 86.469091 
L 157.027486 78.66522 
L 157.677445 94.272962 
L 158.002424 86.469091 
L 158.977363 86.469091 
L 159.627322 102.076833 
L 159.952301 94.272962 
L 160.277281 94.272962 
L 160.60226 102.076833 
L 161.252219 102.076833 
L 161.577199 109.880704 
L 161.902179 109.880704 
L 162.227158 102.076833 
L 162.877117 117.684575 
L 163.202097 117.684575 
L 163.527076 109.880704 
L 163.852056 117.684575 
L 164.177035 117.684575 
L 164.502015 125.488445 
L 165.151974 125.488445 
L 165.476953 117.684575 
L 165.801933 141.096187 
L 166.126912 125.488445 
L 166.451892 133.292316 
L 166.776871 133.292316 
L 167.101851 141.096187 
L 167.42683 133.292316 
L 167.75181 133.292316 
L 168.07679 148.900058 
L 168.401769 141.096187 
L 169.051728 141.096187 
L 169.376708 148.900058 
L 170.676626 148.900058 
L 171.001605 156.703929 
L 171.326585 156.703929 
L 171.651564 164.5078 
L 172.301523 164.5078 
L 172.626503 156.703929 
L 173.276462 172.311671 
L 173.601441 164.5078 
L 173.926421 164.5078 
L 174.2514 172.311671 
L 174.90136 172.311671 
L 175.226339 180.115542 
L 175.551319 180.115542 
L 175.876298 172.311671 
L 176.201278 180.115542 
L 176.526257 172.311671 
L 176.851237 187.919413 
L 177.176216 187.919413 
L 177.501196 195.723284 
L 177.826175 187.919413 
L 178.151155 187.919413 
L 178.476134 195.723284 
L 179.126093 180.115542 
L 179.451073 195.723284 
L 179.776052 195.723284 
L 180.101032 203.527155 
L 180.426011 195.723284 
L 181.075971 195.723284 
L 181.40095 203.527155 
L 181.72593 195.723284 
L 182.375889 211.331026 
L 185.300704 211.331026 
L 185.625684 219.134897 
L 185.950663 211.331026 
L 186.275643 211.331026 
L 186.600622 219.134897 
L 186.925602 211.331026 
L 187.250581 211.331026 
L 187.575561 226.938768 
L 187.900541 226.938768 
L 188.22552 219.134897 
L 188.5505 226.938768 
L 188.875479 242.54651 
L 189.525438 226.938768 
L 190.175397 242.54651 
L 191.475315 242.54651 
L 191.800295 250.350381 
L 192.125274 242.54651 
L 192.450254 242.54651 
L 193.100213 258.154252 
L 193.425192 242.54651 
L 194.075152 258.154252 
L 194.400131 250.350381 
L 194.725111 258.154252 
L 195.700049 258.154252 
L 196.025029 265.958123 
L 196.350008 258.154252 
L 196.674988 258.154252 
L 196.999967 265.958123 
L 197.324947 265.958123 
L 197.649926 258.154252 
L 197.974906 258.154252 
L 198.299885 265.958123 
L 198.624865 265.958123 
L 198.949844 250.350381 
L 199.274824 265.958123 
L 199.599803 265.958123 
L 199.924783 258.154252 
L 200.574742 258.154252 
L 200.899722 265.958123 
L 201.224701 258.154252 
L 201.549681 265.958123 
L 201.87466 250.350381 
L 202.19964 265.958123 
L 202.849599 250.350381 
L 203.174578 258.154252 
L 203.824537 258.154252 
L 204.149517 250.350381 
L 204.474496 258.154252 
L 205.124455 242.54651 
L 205.449435 250.350381 
L 206.099394 250.350381 
L 206.424373 242.54651 
L 206.749353 242.54651 
L 207.074333 234.742639 
L 207.399312 242.54651 
L 207.724292 242.54651 
L 208.049271 234.742639 
L 208.374251 242.54651 
L 209.02421 226.938768 
L 209.349189 226.938768 
L 209.674169 234.742639 
L 209.999148 219.134897 
L 210.974087 219.134897 
L 211.299066 211.331026 
L 211.624046 219.134897 
L 212.274005 203.527155 
L 212.598984 211.331026 
L 212.923964 211.331026 
L 213.248943 203.527155 
L 213.573923 211.331026 
L 213.898903 211.331026 
L 214.223882 187.919413 
L 214.873841 203.527155 
L 215.198821 195.723284 
L 215.5238 195.723284 
L 215.84878 187.919413 
L 216.173759 195.723284 
L 216.498739 187.919413 
L 217.148698 187.919413 
L 217.473677 172.311671 
L 217.798657 187.919413 
L 218.123636 172.311671 
L 218.448616 180.115542 
L 218.773595 180.115542 
L 219.098575 187.919413 
L 219.748534 172.311671 
L 220.398493 172.311671 
L 221.048452 156.703929 
L 221.373432 164.5078 
L 221.698411 164.5078 
L 222.023391 156.703929 
L 222.34837 156.703929 
L 222.67335 141.096187 
L 222.998329 156.703929 
L 223.323309 156.703929 
L 223.648288 148.900058 
L 223.973268 148.900058 
L 224.298247 156.703929 
L 224.948206 141.096187 
L 225.273186 156.703929 
L 225.598165 148.900058 
L 225.923145 148.900058 
L 226.248124 133.292316 
L 226.573104 141.096187 
L 226.898084 141.096187 
L 227.223063 148.900058 
L 227.873022 133.292316 
L 228.198002 141.096187 
L 228.522981 133.292316 
L 228.847961 133.292316 
L 229.17294 125.488445 
L 229.49792 141.096187 
L 229.822899 125.488445 
L 230.472858 141.096187 
L 230.797838 125.488445 
L 232.422735 125.488445 
L 232.747715 117.684575 
L 233.072695 117.684575 
L 233.397674 125.488445 
L 234.047633 109.880704 
L 234.372613 125.488445 
L 235.022572 109.880704 
L 235.347551 117.684575 
L 235.672531 117.684575 
L 235.99751 109.880704 
L 236.972449 109.880704 
L 237.297428 117.684575 
L 237.622408 102.076833 
L 237.947387 94.272962 
L 238.272367 94.272962 
L 238.597346 102.076833 
L 238.922326 102.076833 
L 239.247305 94.272962 
L 239.572285 102.076833 
L 239.897265 102.076833 
L 240.222244 78.66522 
L 240.547224 94.272962 
L 240.872203 86.469091 
L 241.197183 86.469091 
L 241.522162 78.66522 
L 241.847142 86.469091 
L 242.497101 86.469091 
L 242.82208 78.66522 
L 243.14706 86.469091 
L 243.472039 78.66522 
L 243.797019 86.469091 
L 244.446978 70.861349 
L 244.771957 78.66522 
L 245.096937 78.66522 
L 245.421916 70.861349 
L 245.746896 78.66522 
L 246.396855 78.66522 
L 246.721835 70.861349 
L 247.696773 70.861349 
L 248.021753 78.66522 
L 248.346732 78.66522 
L 248.671712 70.861349 
L 248.996691 78.66522 
L 249.321671 78.66522 
L 249.64665 70.861349 
L 249.97163 70.861349 
L 250.296609 86.469091 
L 250.621589 78.66522 
L 251.596527 78.66522 
L 251.921507 70.861349 
L 252.896446 94.272962 
L 253.221425 86.469091 
L 253.546405 86.469091 
L 253.871384 78.66522 
L 254.196364 94.272962 
L 254.521343 86.469091 
L 254.846323 86.469091 
L 255.496282 102.076833 
L 255.821261 94.272962 
L 256.146241 102.076833 
L 256.7962 102.076833 
L 257.121179 94.272962 
L 257.771138 109.880704 
L 258.096118 109.880704 
L 258.421097 117.684575 
L 258.746077 117.684575 
L 259.071057 109.880704 
L 259.396036 117.684575 
L 259.721016 117.684575 
L 260.045995 109.880704 
L 260.370975 125.488445 
L 260.695954 125.488445 
L 261.020934 117.684575 
L 261.345913 133.292316 
L 261.670893 141.096187 
L 261.995872 125.488445 
L 262.320852 125.488445 
L 262.970811 141.096187 
L 263.29579 141.096187 
L 263.62077 148.900058 
L 264.270729 133.292316 
L 264.595708 148.900058 
L 264.920688 148.900058 
L 265.245667 141.096187 
L 265.895627 156.703929 
L 266.220606 148.900058 
L 266.545586 148.900058 
L 266.870565 156.703929 
L 267.195545 148.900058 
L 267.520524 156.703929 
L 267.845504 156.703929 
L 268.170483 164.5078 
L 268.820442 164.5078 
L 269.145422 172.311671 
L 269.470401 156.703929 
L 269.795381 172.311671 
L 270.770319 172.311671 
L 271.095299 187.919413 
L 271.420278 180.115542 
L 272.720197 180.115542 
L 273.045176 187.919413 
L 274.345094 187.919413 
L 274.670074 180.115542 
L 274.995053 195.723284 
L 275.320033 187.919413 
L 275.645012 195.723284 
L 276.94493 195.723284 
L 277.26991 203.527155 
L 277.594889 195.723284 
L 277.919869 203.527155 
L 278.244848 203.527155 
L 278.569828 211.331026 
L 279.219787 211.331026 
L 279.544767 203.527155 
L 279.869746 203.527155 
L 280.194726 219.134897 
L 280.519705 211.331026 
L 280.844685 211.331026 
L 281.169664 219.134897 
L 281.494644 219.134897 
L 281.819623 211.331026 
L 282.144603 219.134897 
L 283.444521 219.134897 
L 284.09448 234.742639 
L 284.419459 226.938768 
L 284.744439 226.938768 
L 285.069419 219.134897 
L 285.394398 234.742639 
L 286.044357 234.742639 
L 286.694316 250.350381 
L 287.019296 234.742639 
L 287.669255 250.350381 
L 287.994234 250.350381 
L 288.319214 242.54651 
L 288.969173 258.154252 
L 289.944111 258.154252 
L 290.269091 250.350381 
L 290.59407 258.154252 
L 291.569009 258.154252 
L 291.893989 265.958123 
L 292.218968 258.154252 
L 292.543948 258.154252 
L 292.868927 265.958123 
L 293.193907 265.958123 
L 293.518886 258.154252 
L 293.843866 265.958123 
L 294.493825 265.958123 
L 294.818804 258.154252 
L 295.468763 258.154252 
L 295.793743 265.958123 
L 296.118722 258.154252 
L 296.443702 258.154252 
L 296.768681 265.958123 
L 297.093661 265.958123 
L 297.41864 258.154252 
L 297.74362 258.154252 
L 298.0686 265.958123 
L 298.393579 258.154252 
L 299.368518 258.154252 
L 299.693497 250.350381 
L 300.018477 258.154252 
L 300.343456 258.154252 
L 300.668436 242.54651 
L 300.993415 250.350381 
L 301.318395 250.350381 
L 301.643374 242.54651 
L 301.968354 242.54651 
L 302.293333 250.350381 
L 302.618313 242.54651 
L 303.268272 242.54651 
L 303.593251 234.742639 
L 303.918231 234.742639 
L 304.24321 242.54651 
L 304.56819 226.938768 
L 305.543129 226.938768 
L 305.868108 219.134897 
L 306.193088 226.938768 
L 306.518067 219.134897 
L 307.493006 219.134897 
L 307.817985 211.331026 
L 308.792924 211.331026 
L 309.117903 203.527155 
L 310.092842 203.527155 
L 310.417821 195.723284 
L 310.742801 203.527155 
L 311.067781 187.919413 
L 311.39276 195.723284 
L 311.71774 195.723284 
L 312.042719 180.115542 
L 312.367699 195.723284 
L 312.692678 195.723284 
L 313.017658 180.115542 
L 313.342637 187.919413 
L 313.667617 187.919413 
L 313.992596 180.115542 
L 314.317576 180.115542 
L 314.642555 172.311671 
L 315.292514 172.311671 
L 315.617494 164.5078 
L 317.892351 164.5078 
L 318.21733 156.703929 
L 318.54231 164.5078 
L 319.192269 148.900058 
L 319.517248 156.703929 
L 319.842228 156.703929 
L 320.167207 148.900058 
L 320.492187 156.703929 
L 320.817166 148.900058 
L 321.142146 148.900058 
L 321.467125 141.096187 
L 321.792105 148.900058 
L 322.442064 133.292316 
L 323.092023 148.900058 
L 323.417002 141.096187 
L 324.066962 141.096187 
L 324.716921 125.488445 
L 325.0419 133.292316 
L 326.016839 133.292316 
L 326.666798 117.684575 
L 326.991777 133.292316 
L 327.316757 125.488445 
L 327.641736 125.488445 
L 327.966716 117.684575 
L 328.291695 125.488445 
L 328.616675 117.684575 
L 328.941654 117.684575 
L 329.266634 125.488445 
L 329.591613 117.684575 
L 330.891532 117.684575 
L 331.216511 109.880704 
L 331.541491 109.880704 
L 331.86647 102.076833 
L 332.19145 109.880704 
L 332.841409 109.880704 
L 333.166388 102.076833 
L 333.491368 109.880704 
L 333.816347 102.076833 
L 334.791286 102.076833 
L 335.116265 94.272962 
L 336.416183 94.272962 
L 337.066143 78.66522 
L 337.391122 86.469091 
L 337.716102 78.66522 
L 339.990958 78.66522 
L 340.315938 70.861349 
L 340.640917 78.66522 
L 340.965897 70.861349 
L 341.290876 78.66522 
L 341.615856 70.861349 
L 341.940835 78.66522 
L 342.265815 63.057478 
L 342.590794 86.469091 
L 342.915774 70.861349 
L 343.565733 70.861349 
L 343.890713 78.66522 
L 344.215692 70.861349 
L 344.540672 78.66522 
L 344.865651 70.861349 
L 345.190631 78.66522 
L 345.51561 63.057478 
L 345.84059 78.66522 
L 346.165569 70.861349 
L 346.490549 78.66522 
L 347.140508 78.66522 
L 347.465487 70.861349 
L 347.790467 86.469091 
L 348.115446 78.66522 
L 348.440426 78.66522 
L 348.765405 86.469091 
L 349.090385 86.469091 
L 349.415364 78.66522 
L 349.740344 86.469091 
L 350.715283 86.469091 
L 351.040262 94.272962 
L 351.365242 94.272962 
L 351.690221 102.076833 
L 352.015201 102.076833 
L 352.34018 94.272962 
L 352.990139 109.880704 
L 353.315119 102.076833 
L 353.640098 102.076833 
L 354.290057 117.684575 
L 354.940016 117.684575 
L 355.264996 125.488445 
L 355.589975 117.684575 
L 356.239934 117.684575 
L 356.564914 125.488445 
L 357.214873 125.488445 
L 357.539853 133.292316 
L 357.864832 125.488445 
L 358.189812 133.292316 
L 358.839771 133.292316 
L 359.48973 148.900058 
L 359.814709 141.096187 
L 360.139689 148.900058 
L 360.464668 141.096187 
L 360.789648 141.096187 
L 361.114627 148.900058 
L 361.439607 148.900058 
L 361.764586 141.096187 
L 362.089566 156.703929 
L 362.414545 148.900058 
L 362.739525 156.703929 
L 363.064505 148.900058 
L 363.389484 164.5078 
L 364.364423 164.5078 
L 364.689402 172.311671 
L 365.014382 156.703929 
L 365.339361 172.311671 
L 365.664341 180.115542 
L 366.3143 164.5078 
L 366.964259 180.115542 
L 367.614218 180.115542 
L 367.939197 187.919413 
L 368.264177 172.311671 
L 368.589156 187.919413 
L 368.914136 180.115542 
L 369.239115 180.115542 
L 369.889075 195.723284 
L 370.214054 187.919413 
L 370.539034 187.919413 
L 370.864013 195.723284 
L 372.163931 195.723284 
L 372.488911 203.527155 
L 372.81389 195.723284 
L 373.463849 195.723284 
L 373.788829 203.527155 
L 374.113808 203.527155 
L 374.438788 195.723284 
L 375.088747 211.331026 
L 375.738706 211.331026 
L 376.063686 219.134897 
L 376.388665 211.331026 
L 377.363604 211.331026 
L 377.688583 226.938768 
L 378.013563 219.134897 
L 378.338542 219.134897 
L 378.663522 211.331026 
L 378.988501 226.938768 
L 379.313481 219.134897 
L 379.63846 219.134897 
L 379.96344 234.742639 
L 380.288419 226.938768 
L 380.938378 226.938768 
L 381.263358 234.742639 
L 381.588337 234.742639 
L 381.913317 226.938768 
L 382.563276 242.54651 
L 383.213235 242.54651 
L 383.538215 250.350381 
L 383.863194 242.54651 
L 384.188174 250.350381 
L 384.513153 242.54651 
L 385.163112 258.154252 
L 385.488092 258.154252 
L 385.813071 250.350381 
L 386.138051 258.154252 
L 387.762948 258.154252 
L 388.087928 265.958123 
L 388.412907 258.154252 
L 389.062867 258.154252 
L 389.387846 265.958123 
L 389.712826 258.154252 
L 390.037805 258.154252 
L 390.362785 265.958123 
L 390.687764 265.958123 
L 391.012744 258.154252 
L 391.337723 265.958123 
L 391.987682 265.958123 
L 392.312662 258.154252 
L 392.637641 258.154252 
L 392.962621 265.958123 
L 393.2876 265.958123 
L 393.61258 258.154252 
L 393.937559 265.958123 
L 394.262539 258.154252 
L 394.587518 265.958123 
L 395.237477 250.350381 
L 395.562457 250.350381 
L 395.887437 258.154252 
L 396.212416 250.350381 
L 396.537396 250.350381 
L 396.862375 258.154252 
L 397.512334 242.54651 
L 397.837314 242.54651 
L 398.162293 250.350381 
L 398.487273 250.350381 
L 398.487273 250.350381 
" clip-path="url(#pec64218129)" style="fill: none; stroke: #1f77b4; stroke-width: 1.5; stroke-linecap: square"/>
   </g>
   <g id="line2d_13">
    <path d="M 73.832727 61.371871 
L 74.157707 69.175742 
L 74.482686 69.175742 
L 74.807666 61.371871 
L 75.132645 69.175742 
L 75.457625 61.371871 
L 75.782604 61.371871 
L 76.107584 69.175742 
L 76.432563 53.568 
L 77.082523 84.783484 
L 77.732482 69.175742 
L 78.057461 69.175742 
L 78.382441 76.979613 
L 78.70742 76.979613 
L 79.0324 69.175742 
L 79.357379 76.979613 
L 80.982277 76.979613 
L 81.307256 84.783484 
L 81.632236 76.979613 
L 81.957215 92.587355 
L 82.282195 100.391226 
L 82.607174 100.391226 
L 82.932154 92.587355 
L 83.257133 100.391226 
L 83.907093 100.391226 
L 84.232072 108.195097 
L 85.207011 108.195097 
L 85.53199 115.998968 
L 85.85697 115.998968 
L 86.181949 108.195097 
L 86.506929 115.998968 
L 86.831908 108.195097 
L 87.156888 123.802839 
L 87.481867 123.802839 
L 87.806847 131.60671 
L 88.131826 123.802839 
L 88.781785 123.802839 
L 89.106765 131.60671 
L 89.431744 131.60671 
L 89.756724 123.802839 
L 90.081704 139.410581 
L 90.406683 131.60671 
L 90.731663 139.410581 
L 91.056642 131.60671 
L 91.381622 131.60671 
L 91.706601 139.410581 
L 92.031581 131.60671 
L 92.35656 147.214452 
L 92.68154 139.410581 
L 93.006519 155.018323 
L 93.331499 147.214452 
L 94.631417 147.214452 
L 95.281376 162.822194 
L 95.606355 155.018323 
L 95.931335 162.822194 
L 96.256314 162.822194 
L 96.581294 155.018323 
L 96.906274 170.626065 
L 97.231253 162.822194 
L 97.556233 178.429935 
L 97.881212 178.429935 
L 98.206192 186.233806 
L 98.531171 178.429935 
L 99.831089 178.429935 
L 100.156069 186.233806 
L 100.806028 186.233806 
L 101.131007 194.037677 
L 101.455987 186.233806 
L 101.780966 186.233806 
L 102.105946 201.841548 
L 102.430925 186.233806 
L 102.755905 201.841548 
L 103.080885 201.841548 
L 103.405864 209.645419 
L 103.730844 201.841548 
L 104.380803 201.841548 
L 104.705782 209.645419 
L 105.030762 209.645419 
L 105.355741 217.44929 
L 106.0057 217.44929 
L 106.33068 225.253161 
L 106.655659 217.44929 
L 106.980639 217.44929 
L 107.305618 233.057032 
L 107.630598 209.645419 
L 107.955577 233.057032 
L 108.280557 233.057032 
L 108.605536 240.860903 
L 108.930516 233.057032 
L 109.255495 233.057032 
L 109.580475 240.860903 
L 110.230434 240.860903 
L 110.555414 248.664774 
L 110.880393 248.664774 
L 111.205373 240.860903 
L 111.530352 248.664774 
L 111.855332 240.860903 
L 112.180311 240.860903 
L 112.505291 256.468645 
L 112.83027 256.468645 
L 113.15525 248.664774 
L 113.480229 264.272516 
L 115.755086 264.272516 
L 116.080066 279.880258 
L 116.730025 264.272516 
L 117.055004 264.272516 
L 117.704963 279.880258 
L 118.029943 264.272516 
L 118.354922 279.880258 
L 118.679902 279.880258 
L 119.004881 287.684129 
L 119.329861 287.684129 
L 119.65484 279.880258 
L 119.97982 287.684129 
L 120.304799 279.880258 
L 120.629779 279.880258 
L 120.954758 287.684129 
L 121.279738 287.684129 
L 121.604717 279.880258 
L 121.929697 287.684129 
L 122.254676 272.076387 
L 122.904636 287.684129 
L 123.229615 272.076387 
L 123.554595 279.880258 
L 123.879574 295.488 
L 124.204554 295.488 
L 124.854513 279.880258 
L 125.179492 287.684129 
L 125.504472 287.684129 
L 125.829451 279.880258 
L 126.80439 279.880258 
L 127.129369 272.076387 
L 127.454349 279.880258 
L 127.779328 264.272516 
L 128.104308 279.880258 
L 128.429287 264.272516 
L 128.754267 272.076387 
L 129.404226 272.076387 
L 129.729206 264.272516 
L 130.379165 264.272516 
L 130.704144 256.468645 
L 131.679083 256.468645 
L 132.329042 240.860903 
L 132.654021 240.860903 
L 132.979001 233.057032 
L 133.62896 233.057032 
L 133.953939 240.860903 
L 134.603898 240.860903 
L 134.928878 233.057032 
L 136.553776 233.057032 
L 136.878755 225.253161 
L 137.203735 225.253161 
L 137.853694 209.645419 
L 138.178673 209.645419 
L 138.503653 217.44929 
L 139.153612 217.44929 
L 139.478591 225.253161 
L 140.45353 201.841548 
L 140.778509 209.645419 
L 141.428468 209.645419 
L 141.753448 201.841548 
L 142.078428 201.841548 
L 142.403407 194.037677 
L 142.728387 194.037677 
L 143.053366 186.233806 
L 143.378346 186.233806 
L 143.703325 194.037677 
L 144.028305 178.429935 
L 144.353284 186.233806 
L 145.328223 186.233806 
L 145.653202 178.429935 
L 146.628141 178.429935 
L 146.95312 170.626065 
L 147.2781 178.429935 
L 147.603079 162.822194 
L 148.253038 162.822194 
L 148.578018 155.018323 
L 148.902998 162.822194 
L 149.227977 155.018323 
L 149.552957 162.822194 
L 150.527895 162.822194 
L 151.177854 147.214452 
L 151.502834 147.214452 
L 151.827813 139.410581 
L 152.152793 147.214452 
L 152.477772 147.214452 
L 152.802752 139.410581 
L 153.127731 139.410581 
L 153.77769 123.802839 
L 154.10267 131.60671 
L 154.427649 115.998968 
L 154.752629 131.60671 
L 155.077609 139.410581 
L 156.052547 115.998968 
L 157.677445 115.998968 
L 158.002424 108.195097 
L 158.327404 108.195097 
L 158.652383 100.391226 
L 158.977363 100.391226 
L 159.302342 108.195097 
L 159.627322 100.391226 
L 159.952301 108.195097 
L 160.277281 100.391226 
L 160.60226 100.391226 
L 160.92724 92.587355 
L 161.902179 92.587355 
L 162.227158 84.783484 
L 162.552138 92.587355 
L 162.877117 92.587355 
L 163.202097 84.783484 
L 163.527076 84.783484 
L 163.852056 76.979613 
L 164.177035 76.979613 
L 164.502015 84.783484 
L 164.826994 69.175742 
L 165.151974 84.783484 
L 165.801933 84.783484 
L 166.451892 69.175742 
L 166.776871 69.175742 
L 167.101851 76.979613 
L 167.42683 69.175742 
L 167.75181 76.979613 
L 168.07679 69.175742 
L 168.726749 69.175742 
L 169.051728 61.371871 
L 169.376708 61.371871 
L 169.701687 76.979613 
L 170.026667 61.371871 
L 170.351646 76.979613 
L 170.676626 84.783484 
L 171.326585 69.175742 
L 172.951482 69.175742 
L 173.276462 76.979613 
L 173.601441 61.371871 
L 173.926421 76.979613 
L 174.57638 61.371871 
L 174.90136 76.979613 
L 175.551319 76.979613 
L 176.201278 92.587355 
L 176.526257 84.783484 
L 177.501196 84.783484 
L 177.826175 100.391226 
L 178.476134 100.391226 
L 178.801114 92.587355 
L 179.126093 100.391226 
L 179.451073 92.587355 
L 179.776052 100.391226 
L 180.101032 100.391226 
L 180.426011 92.587355 
L 180.750991 108.195097 
L 181.075971 115.998968 
L 182.700868 115.998968 
L 183.025848 131.60671 
L 183.350827 123.802839 
L 183.675807 123.802839 
L 184.000786 115.998968 
L 184.325766 131.60671 
L 184.650745 115.998968 
L 185.300704 131.60671 
L 185.625684 123.802839 
L 186.600622 147.214452 
L 186.925602 131.60671 
L 187.250581 139.410581 
L 187.575561 139.410581 
L 187.900541 131.60671 
L 188.22552 139.410581 
L 189.200459 139.410581 
L 189.525438 147.214452 
L 189.850418 139.410581 
L 190.500377 155.018323 
L 190.825356 147.214452 
L 191.150336 162.822194 
L 192.450254 162.822194 
L 192.775233 170.626065 
L 193.425192 170.626065 
L 193.750172 178.429935 
L 194.075152 178.429935 
L 194.400131 170.626065 
L 195.05009 186.233806 
L 195.37507 170.626065 
L 195.700049 178.429935 
L 196.025029 178.429935 
L 196.674988 194.037677 
L 197.649926 194.037677 
L 197.974906 186.233806 
L 198.299885 201.841548 
L 199.599803 201.841548 
L 199.924783 209.645419 
L 200.249762 209.645419 
L 200.574742 201.841548 
L 200.899722 217.44929 
L 201.224701 209.645419 
L 201.549681 209.645419 
L 201.87466 217.44929 
L 202.19964 233.057032 
L 202.524619 225.253161 
L 203.174578 225.253161 
L 203.499558 233.057032 
L 204.149517 233.057032 
L 204.474496 240.860903 
L 204.799476 233.057032 
L 205.124455 240.860903 
L 205.449435 233.057032 
L 205.774414 233.057032 
L 206.099394 240.860903 
L 206.424373 233.057032 
L 206.749353 248.664774 
L 207.074333 256.468645 
L 207.399312 256.468645 
L 207.724292 248.664774 
L 208.374251 264.272516 
L 208.69923 256.468645 
L 209.02421 256.468645 
L 209.349189 264.272516 
L 209.674169 264.272516 
L 209.999148 256.468645 
L 210.649107 256.468645 
L 211.299066 272.076387 
L 211.624046 264.272516 
L 212.598984 287.684129 
L 212.923964 279.880258 
L 213.248943 279.880258 
L 213.573923 272.076387 
L 213.898903 272.076387 
L 214.223882 279.880258 
L 214.873841 279.880258 
L 215.198821 287.684129 
L 215.5238 279.880258 
L 216.173759 279.880258 
L 216.498739 287.684129 
L 216.823718 272.076387 
L 217.798657 295.488 
L 218.448616 279.880258 
L 218.773595 287.684129 
L 219.098575 287.684129 
L 219.423554 279.880258 
L 219.748534 287.684129 
L 220.073514 279.880258 
L 220.398493 279.880258 
L 220.723473 287.684129 
L 221.048452 279.880258 
L 221.373432 279.880258 
L 221.698411 287.684129 
L 222.023391 272.076387 
L 222.34837 287.684129 
L 222.998329 287.684129 
L 223.323309 279.880258 
L 223.648288 279.880258 
L 223.973268 272.076387 
L 224.623227 272.076387 
L 224.948206 279.880258 
L 225.273186 264.272516 
L 225.598165 256.468645 
L 225.923145 264.272516 
L 226.248124 256.468645 
L 226.898084 256.468645 
L 227.223063 240.860903 
L 227.873022 256.468645 
L 228.198002 256.468645 
L 229.17294 233.057032 
L 229.49792 240.860903 
L 229.822899 233.057032 
L 230.472858 233.057032 
L 230.797838 225.253161 
L 231.122817 233.057032 
L 231.447797 225.253161 
L 232.097756 225.253161 
L 232.422735 217.44929 
L 233.397674 240.860903 
L 233.722654 225.253161 
L 234.047633 217.44929 
L 234.372613 225.253161 
L 234.697592 217.44929 
L 235.022572 225.253161 
L 235.347551 217.44929 
L 235.672531 217.44929 
L 235.99751 209.645419 
L 236.32249 209.645419 
L 236.972449 194.037677 
L 237.297428 209.645419 
L 237.622408 194.037677 
L 237.947387 194.037677 
L 238.272367 201.841548 
L 238.597346 201.841548 
L 238.922326 194.037677 
L 239.247305 194.037677 
L 239.572285 186.233806 
L 240.872203 186.233806 
L 241.197183 178.429935 
L 241.522162 186.233806 
L 241.847142 170.626065 
L 242.172121 170.626065 
L 242.497101 178.429935 
L 242.82208 155.018323 
L 243.14706 170.626065 
L 243.472039 178.429935 
L 243.797019 178.429935 
L 244.446978 162.822194 
L 245.096937 162.822194 
L 245.421916 155.018323 
L 245.746896 155.018323 
L 246.071876 162.822194 
L 246.396855 147.214452 
L 247.046814 147.214452 
L 247.371794 139.410581 
L 247.696773 139.410581 
L 248.021753 131.60671 
L 248.346732 139.410581 
L 248.671712 139.410581 
L 248.996691 147.214452 
L 249.321671 131.60671 
L 249.64665 139.410581 
L 250.296609 123.802839 
L 250.621589 131.60671 
L 250.946568 123.802839 
L 251.921507 123.802839 
L 252.246486 115.998968 
L 252.896446 115.998968 
L 253.221425 108.195097 
L 253.546405 115.998968 
L 254.196364 115.998968 
L 254.846323 100.391226 
L 255.171302 108.195097 
L 255.496282 100.391226 
L 256.47122 100.391226 
L 256.7962 92.587355 
L 257.446159 92.587355 
L 257.771138 76.979613 
L 258.096118 92.587355 
L 258.421097 76.979613 
L 259.071057 92.587355 
L 259.721016 76.979613 
L 260.045995 84.783484 
L 260.370975 76.979613 
L 260.695954 84.783484 
L 261.020934 76.979613 
L 261.670893 76.979613 
L 261.995872 69.175742 
L 262.320852 76.979613 
L 262.970811 61.371871 
L 263.29579 76.979613 
L 263.62077 61.371871 
L 263.945749 76.979613 
L 264.270729 76.979613 
L 264.595708 84.783484 
L 264.920688 69.175742 
L 265.245667 69.175742 
L 265.570647 76.979613 
L 265.895627 69.175742 
L 267.520524 69.175742 
L 267.845504 61.371871 
L 268.170483 61.371871 
L 268.495463 76.979613 
L 268.820442 61.371871 
L 269.145422 76.979613 
L 271.420278 76.979613 
L 271.745258 84.783484 
L 272.070238 84.783484 
L 272.395217 76.979613 
L 272.720197 84.783484 
L 273.045176 84.783484 
L 273.370156 76.979613 
L 273.695135 92.587355 
L 274.020115 84.783484 
L 274.670074 100.391226 
L 274.995053 100.391226 
L 275.320033 92.587355 
L 275.969992 108.195097 
L 276.294971 100.391226 
L 276.94493 115.998968 
L 277.919869 115.998968 
L 278.244848 108.195097 
L 278.569828 108.195097 
L 278.894808 115.998968 
L 279.219787 108.195097 
L 279.544767 123.802839 
L 279.869746 123.802839 
L 280.194726 139.410581 
L 280.519705 123.802839 
L 280.844685 131.60671 
L 281.819623 131.60671 
L 282.144603 139.410581 
L 282.469582 139.410581 
L 282.794562 131.60671 
L 283.119541 139.410581 
L 283.444521 131.60671 
L 283.7695 131.60671 
L 284.09448 139.410581 
L 284.419459 131.60671 
L 284.744439 147.214452 
L 285.069419 147.214452 
L 285.394398 155.018323 
L 285.719378 147.214452 
L 286.044357 155.018323 
L 286.369337 155.018323 
L 286.694316 147.214452 
L 287.344275 162.822194 
L 287.994234 162.822194 
L 288.319214 170.626065 
L 288.644193 162.822194 
L 288.969173 162.822194 
L 289.294152 178.429935 
L 289.619132 155.018323 
L 290.269091 186.233806 
L 290.59407 186.233806 
L 290.91905 178.429935 
L 291.569009 178.429935 
L 291.893989 186.233806 
L 292.543948 186.233806 
L 292.868927 194.037677 
L 293.193907 186.233806 
L 293.518886 194.037677 
L 294.168845 194.037677 
L 294.493825 201.841548 
L 294.818804 194.037677 
L 295.143784 209.645419 
L 296.118722 209.645419 
L 296.443702 217.44929 
L 296.768681 217.44929 
L 297.093661 209.645419 
L 297.74362 225.253161 
L 298.0686 217.44929 
L 298.393579 217.44929 
L 298.718559 225.253161 
L 299.368518 225.253161 
L 299.693497 233.057032 
L 300.018477 225.253161 
L 300.993415 248.664774 
L 301.318395 240.860903 
L 302.293333 240.860903 
L 302.618313 248.664774 
L 302.943292 248.664774 
L 303.268272 256.468645 
L 303.593251 248.664774 
L 303.918231 256.468645 
L 304.24321 240.860903 
L 304.89317 256.468645 
L 305.218149 248.664774 
L 305.543129 264.272516 
L 305.868108 272.076387 
L 306.193088 272.076387 
L 306.518067 264.272516 
L 306.843047 272.076387 
L 307.168026 264.272516 
L 307.493006 272.076387 
L 307.817985 264.272516 
L 308.142965 264.272516 
L 308.467944 272.076387 
L 308.792924 264.272516 
L 309.117903 272.076387 
L 309.767862 272.076387 
L 310.092842 279.880258 
L 310.417821 272.076387 
L 310.742801 272.076387 
L 311.067781 287.684129 
L 311.71774 287.684129 
L 312.042719 279.880258 
L 312.367699 279.880258 
L 312.692678 287.684129 
L 313.017658 279.880258 
L 313.342637 287.684129 
L 313.667617 287.684129 
L 313.992596 279.880258 
L 314.967535 279.880258 
L 315.292514 287.684129 
L 315.617494 279.880258 
L 315.942473 279.880258 
L 316.267453 295.488 
L 316.592432 287.684129 
L 316.917412 287.684129 
L 317.242391 279.880258 
L 317.567371 287.684129 
L 318.21733 272.076387 
L 318.54231 279.880258 
L 319.192269 279.880258 
L 319.517248 272.076387 
L 319.842228 272.076387 
L 320.167207 264.272516 
L 320.492187 272.076387 
L 320.817166 256.468645 
L 321.142146 272.076387 
L 321.467125 272.076387 
L 322.117084 256.468645 
L 322.442064 264.272516 
L 322.767043 256.468645 
L 323.092023 256.468645 
L 323.417002 248.664774 
L 323.741982 248.664774 
L 324.066962 256.468645 
L 324.391941 248.664774 
L 324.716921 248.664774 
L 325.36688 233.057032 
L 325.691859 240.860903 
L 326.016839 225.253161 
L 326.991777 248.664774 
L 327.316757 233.057032 
L 327.641736 225.253161 
L 329.591613 225.253161 
L 329.916593 217.44929 
L 330.891532 217.44929 
L 331.216511 209.645419 
L 331.541491 209.645419 
L 331.86647 217.44929 
L 332.19145 217.44929 
L 332.516429 201.841548 
L 332.841409 209.645419 
L 333.166388 201.841548 
L 333.491368 201.841548 
L 333.816347 194.037677 
L 334.141327 201.841548 
L 334.466306 201.841548 
L 334.791286 194.037677 
L 335.116265 194.037677 
L 335.441245 186.233806 
L 336.091204 186.233806 
L 336.416183 178.429935 
L 336.741163 178.429935 
L 337.066143 186.233806 
L 337.391122 186.233806 
L 337.716102 170.626065 
L 338.041081 178.429935 
L 338.366061 178.429935 
L 338.69104 170.626065 
L 339.665979 170.626065 
L 339.990958 155.018323 
L 340.315938 162.822194 
L 340.965897 147.214452 
L 341.290876 155.018323 
L 341.615856 147.214452 
L 342.265815 162.822194 
L 342.915774 147.214452 
L 343.565733 147.214452 
L 343.890713 139.410581 
L 344.865651 139.410581 
L 345.190631 131.60671 
L 345.84059 131.60671 
L 346.165569 123.802839 
L 346.490549 131.60671 
L 346.815528 108.195097 
L 347.140508 123.802839 
L 347.465487 131.60671 
L 348.115446 115.998968 
L 348.440426 123.802839 
L 348.765405 115.998968 
L 349.090385 115.998968 
L 349.415364 108.195097 
L 350.065324 108.195097 
L 350.390303 100.391226 
L 351.690221 100.391226 
L 352.015201 84.783484 
L 352.66516 100.391226 
L 352.990139 100.391226 
L 353.315119 92.587355 
L 354.290057 92.587355 
L 354.615037 84.783484 
L 355.264996 84.783484 
L 355.589975 76.979613 
L 355.914955 84.783484 
L 356.564914 69.175742 
L 356.889894 84.783484 
L 357.214873 69.175742 
L 357.539853 84.783484 
L 358.189812 84.783484 
L 358.839771 69.175742 
L 359.16475 76.979613 
L 359.48973 76.979613 
L 359.814709 69.175742 
L 360.464668 69.175742 
L 360.789648 61.371871 
L 361.114627 76.979613 
L 361.439607 61.371871 
L 361.764586 61.371871 
L 362.089566 76.979613 
L 362.414545 53.568 
L 362.739525 61.371871 
L 363.064505 76.979613 
L 363.389484 76.979613 
L 363.714464 61.371871 
L 364.039443 69.175742 
L 365.339361 69.175742 
L 365.664341 76.979613 
L 365.98932 69.175742 
L 366.3143 76.979613 
L 366.639279 69.175742 
L 366.964259 69.175742 
L 367.289238 84.783484 
L 367.614218 69.175742 
L 367.939197 84.783484 
L 368.264177 84.783484 
L 368.589156 92.587355 
L 368.914136 92.587355 
L 369.239115 84.783484 
L 369.564095 92.587355 
L 369.889075 92.587355 
L 370.539034 108.195097 
L 371.188993 92.587355 
L 371.838952 108.195097 
L 372.163931 100.391226 
L 372.488911 108.195097 
L 372.81389 100.391226 
L 373.13887 115.998968 
L 373.463849 115.998968 
L 373.788829 123.802839 
L 374.113808 115.998968 
L 374.438788 115.998968 
L 374.763767 123.802839 
L 375.738706 123.802839 
L 376.063686 131.60671 
L 376.388665 123.802839 
L 376.713645 131.60671 
L 377.038624 123.802839 
L 377.363604 123.802839 
L 377.688583 139.410581 
L 378.013563 123.802839 
L 378.338542 139.410581 
L 378.663522 147.214452 
L 378.988501 147.214452 
L 379.313481 139.410581 
L 379.63846 147.214452 
L 379.96344 139.410581 
L 380.613399 139.410581 
L 381.263358 155.018323 
L 381.588337 155.018323 
L 381.913317 147.214452 
L 382.238296 155.018323 
L 382.563276 155.018323 
L 382.888256 162.822194 
L 383.213235 147.214452 
L 383.538215 162.822194 
L 383.863194 170.626065 
L 384.513153 170.626065 
L 384.838133 162.822194 
L 385.163112 162.822194 
L 385.488092 170.626065 
L 385.813071 170.626065 
L 386.46303 186.233806 
L 386.78801 178.429935 
L 387.112989 186.233806 
L 387.437969 178.429935 
L 387.762948 178.429935 
L 388.087928 186.233806 
L 388.412907 178.429935 
L 388.737887 194.037677 
L 389.062867 201.841548 
L 389.387846 194.037677 
L 389.712826 201.841548 
L 390.037805 194.037677 
L 390.362785 201.841548 
L 391.012744 201.841548 
L 391.337723 209.645419 
L 391.987682 209.645419 
L 392.312662 217.44929 
L 392.962621 201.841548 
L 393.2876 217.44929 
L 393.61258 209.645419 
L 393.937559 217.44929 
L 394.262539 233.057032 
L 394.587518 240.860903 
L 394.912498 225.253161 
L 395.237477 233.057032 
L 396.537396 233.057032 
L 396.862375 240.860903 
L 397.187355 240.860903 
L 397.512334 248.664774 
L 397.837314 240.860903 
L 398.162293 240.860903 
L 398.487273 248.664774 
L 398.487273 248.664774 
" clip-path="url(#pec64218129)" style="fill: none; stroke: #ff7f0e; stroke-width: 1.5; stroke-linecap: square"/>
   </g>
   <g id="line2d_14">
    <path d="M 73.832727 151.312812 
L 78.057461 151.414263 
L 81.307256 151.437674 
L 84.557052 151.484498 
L 88.456806 151.383047 
L 90.731663 151.398655 
L 93.656478 151.281597 
L 96.581294 151.383047 
L 105.680721 151.265989 
L 110.880393 151.422067 
L 114.130188 151.437674 
L 116.080066 151.445478 
L 119.65484 151.36744 
L 121.604717 151.36744 
L 123.554595 151.281597 
L 139.478591 151.359636 
L 140.778509 151.437674 
L 142.728387 151.336224 
L 146.628141 151.437674 
L 148.253038 151.453282 
L 153.127731 151.445478 
L 155.727568 151.344028 
L 157.027486 151.265989 
L 159.302342 151.32842 
L 164.826994 151.289401 
L 166.776871 151.336224 
L 170.351646 151.344028 
L 172.626503 151.406459 
L 178.476134 151.515713 
L 179.776052 151.515713 
L 184.650745 151.390851 
L 185.950663 151.437674 
L 197.324947 151.273793 
L 203.499558 151.383047 
L 206.099394 151.46889 
L 208.049271 151.383047 
L 212.598984 151.398655 
L 215.5238 151.351832 
L 217.473677 151.351832 
L 221.048452 151.273793 
L 223.648288 151.297205 
L 229.17294 151.265989 
L 232.097756 151.375243 
L 233.722654 151.32842 
L 234.697592 151.289401 
L 236.972449 151.42987 
L 239.572285 151.351832 
L 241.847142 151.398655 
L 243.797019 151.484498 
L 249.321671 151.461086 
L 250.946568 151.406459 
L 253.546405 151.305009 
L 255.171302 151.336224 
L 256.7962 151.320616 
L 259.071057 151.219166 
L 260.370975 151.258185 
L 262.970811 151.336224 
L 270.770319 151.414263 
L 272.395217 151.390851 
L 277.594889 151.42987 
L 279.869746 151.359636 
L 282.794562 151.390851 
L 284.09448 151.265989 
L 286.044357 151.320616 
L 288.969173 151.375243 
L 291.893989 151.265989 
L 299.043538 151.351832 
L 300.993415 151.484498 
L 303.593251 151.390851 
L 304.89317 151.398655 
L 308.792924 151.383047 
L 310.092842 151.312812 
L 313.992596 151.32842 
L 315.617494 151.273793 
L 331.216511 151.359636 
L 332.516429 151.445478 
L 336.416183 151.36744 
L 341.290876 151.383047 
L 343.565733 151.437674 
L 347.465487 151.344028 
L 349.090385 151.289401 
L 350.715283 151.344028 
L 355.264996 151.219166 
L 367.289238 151.398655 
L 368.914136 151.42987 
L 371.513972 151.507909 
L 375.088747 151.344028 
L 391.987682 151.234774 
L 393.61258 151.265989 
L 397.512334 151.461086 
L 398.487273 151.406459 
L 398.487273 151.406459 
" clip-path="url(#pec64218129)" style="fill: none; stroke: #2ca02c; stroke-width: 1.5; stroke-linecap: square"/>
   </g>
   <g id="patch_3">
    <path d="M 57.6 307.584 
L 57.6 41.472 
" style="fill: none; stroke: #000000; stroke-width: 0.8; stroke-linejoin: miter; stroke-linecap: square"/>
   </g>
   <g id="patch_4">
    <path d="M 414.72 307.584 
L 414.72 41.472 
" style="fill: none; stroke: #000000; stroke-width: 0.8; stroke-linejoin: miter; stroke-linecap: square"/>
   </g>
   <g id="patch_5">
    <path d="M 57.6 307.584 
L 414.72 307.584 
" style="fill: none; stroke: #000000; stroke-width: 0.8; stroke-linejoin: miter; stroke-linecap: square"/>
   </g>
   <g id="patch_6">
    <path d="M 57.6 41.472 
L 414.72 41.472 
" style="fill: none; stroke: #000000; stroke-width: 0.8; stroke-linejoin: miter; stroke-linecap: square"/>
   </g>
  </g>
 </g>
 <defs>
  <clipPath id="pec64218129">
   <rect x="57.6" y="41.472" width="357.12" height="266.112"/>
  </clipPath>
 </defs>
</svg>
