<?xml version="1.0" encoding="utf-8" standalone="no"?>
<!DOCTYPE svg PUBLIC "-//W3C//DTD SVG 1.1//EN"
  "http://www.w3.org/Graphics/SVG/1.1/DTD/svg11.dtd">
<svg xmlns:xlink="http://www.w3.org/1999/xlink" width="460.8pt" height="345.6pt" viewBox="0 0 460.8 345.6" xmlns="http://www.w3.org/2000/svg" version="1.1">
 <metadata>
  <rdf:RDF xmlns:dc="http://purl.org/dc/elements/1.1/" xmlns:cc="http://creativecommons.org/ns#" xmlns:rdf="http://www.w3.org/1999/02/22-rdf-syntax-ns#">
   <cc:Work>
    <dc:type rdf:resource="http://purl.org/dc/dcmitype/StillImage"/>
    <dc:date>2025-12-30T07:19:41.437186</dc:date>
    <dc:format>image/svg+xml</dc:format>
    <dc:creator>
     <cc:Agent>
      <dc:title>Matplotlib v3.10.8, https://matplotlib.org/</dc:title>
     </cc:Agent>
    </dc:creator>
   </cc:Work>
  </rdf:RDF>
 </metadata>
 <defs>
  <style type="text/css">*{stroke-linejoin: round; stroke-linecap: butt}</style>
 </defs>
 <g id="figure_1">
  <g id="patch_1">
   <path d="M 0 345.6 
L 460.8 345.6 
L 460.8 0 
L 0 0 
z
" style="fill: #ffffff"/>
  </g>
  <g id="axes_1">
   <g id="patch_2">
    <path d="M 57.6 307.584 
L 414.72 307.584 
L 414.72 41.472 
L 57.6 41.472 
z
" style="fill: #ffffff"/>
   </g>
   <g id="matplotlib.axis_1">
    <g id="xtick_1">
     <g id="line2d_1">
      <defs>
       <path id="m0fe91365d4" d="M 0 0 
L 0 3.5 
" style="stroke: #000000; stroke-width: 0.8"/>
      </defs>
      <g>
       <use xlink:href="#m0fe91365d4" x="73.832727" y="307.584" style="stroke: #000000; stroke-width: 0.8"/>
      </g>
     </g>
     <g id="text_1">
      <!-- 0 -->
      <g transform="translate(70.651477 322.182437) scale(0.1 -0.1)">
       <defs>
        <path id="DejaVuSans-30" d="M 2034 4250 
Q 1547 4250 1301 3770 
Q 1056 3291 1056 2328 
Q 1056 1369 1301 889 
Q 1547 409 2034 409 
Q 2525 409 2770 889 
Q 3016 1369 3016 2328 
Q 3016 3291 2770 3770 
Q 2525 4250 2034 4250 
z
M 2034 4750 
Q 2819 4750 3233 4129 
Q 3647 3509 3647 2328 
Q 3647 1150 3233 529 
Q 2819 -91 2034 -91 
Q 1250 -91 836 529 
Q 422 1150 422 2328 
Q 422 3509 836 4129 
Q 1250 4750 2034 4750 
z
" transform="scale(0.015625)"/>
       </defs>
       <use xlink:href="#DejaVuSans-30"/>
      </g>
     </g>
    </g>
    <g id="xtick_2">
     <g id="line2d_2">
      <g>
       <use xlink:href="#m0fe91365d4" x="138.828632" y="307.584" style="stroke: #000000; stroke-width: 0.8"/>
      </g>
     </g>
     <g id="text_2">
      <!-- 1 -->
      <g transform="translate(135.647382 322.182437) scale(0.1 -0.1)">
       <defs>
        <path id="DejaVuSans-31" d="M 794 531 
L 1825 531 
L 1825 4091 
L 703 3866 
L 703 4441 
L 1819 4666 
L 2450 4666 
L 2450 531 
L 3481 531 
L 3481 0 
L 794 0 
L 794 531 
z
" transform="scale(0.015625)"/>
       </defs>
       <use xlink:href="#DejaVuSans-31"/>
      </g>
     </g>
    </g>
    <g id="xtick_3">
     <g id="line2d_3">
      <g>
       <use xlink:href="#m0fe91365d4" x="203.824537" y="307.584" style="stroke: #000000; stroke-width: 0.8"/>
      </g>
     </g>
     <g id="text_3">
      <!-- 2 -->
      <g transform="translate(200.643287 322.182437) scale(0.1 -0.1)">
       <defs>
        <path id="DejaVuSans-32" d="M 1228 531 
L 3431 531 
L 3431 0 
L 469 0 
L 469 531 
Q 828 903 1448 1529 
Q 2069 2156 2228 2338 
Q 2531 2678 2651 2914 
Q 2772 3150 2772 3378 
Q 2772 3750 2511 3984 
Q 2250 4219 1831 4219 
Q 1534 4219 1204 4116 
Q 875 4013 500 3803 
L 500 4441 
Q 881 4594 1212 4672 
Q 1544 4750 1819 4750 
Q 2544 4750 2975 4387 
Q 3406 4025 3406 3419 
Q 3406 3131 3298 2873 
Q 3191 2616 2906 2266 
Q 2828 2175 2409 1742 
Q 1991 1309 1228 531 
z
" transform="scale(0.015625)"/>
       </defs>
       <use xlink:href="#DejaVuSans-32"/>
      </g>
     </g>
    </g>
    <g id="xtick_4">
     <g id="line2d_4">
      <g>
       <use xlink:href="#m0fe91365d4" x="268.820442" y="307.584" style="stroke: #000000; stroke-width: 0.8"/>
      </g>
     </g>
     <g id="text_4">
      <!-- 3 -->
      <g transform="translate(265.639192 322.182437) scale(0.1 -0.1)">
       <defs>
        <path id="DejaVuSans-33" d="M 2597 2516 
Q 3050 2419 3304 2112 
Q 3559 1806 3559 1356 
Q 3559 666 3084 287 
Q 2609 -91 1734 -91 
Q 1441 -91 1130 -33 
Q 819 25 488 141 
L 488 750 
Q 750 597 1062 519 
Q 1375 441 1716 441 
Q 2309 441 2620 675 
Q 2931 909 2931 1356 
Q 2931 1769 2642 2001 
Q 2353 2234 1838 2234 
L 1294 2234 
L 1294 2753 
L 1863 2753 
Q 2328 2753 2575 2939 
Q 2822 3125 2822 3475 
Q 2822 3834 2567 4026 
Q 2313 4219 1838 4219 
Q 1578 4219 1281 4162 
Q 984 4106 628 3988 
L 628 4550 
Q 988 4650 1302 4700 
Q 1616 4750 1894 4750 
Q 2613 4750 3031 4423 
Q 3450 4097 3450 3541 
Q 3450 3153 3228 2886 
Q 3006 2619 2597 2516 
z
" transform="scale(0.015625)"/>
       </defs>
       <use xlink:href="#DejaVuSans-33"/>
      </g>
     </g>
    </g>
    <g id="xtick_5">
     <g id="line2d_5">
      <g>
       <use xlink:href="#m0fe91365d4" x="333.816347" y="307.584" style="stroke: #000000; stroke-width: 0.8"/>
      </g>
     </g>
     <g id="text_5">
      <!-- 4 -->
      <g transform="translate(330.635097 322.182437) scale(0.1 -0.1)">
       <defs>
        <path id="DejaVuSans-34" d="M 2419 4116 
L 825 1625 
L 2419 1625 
L 2419 4116 
z
M 2253 4666 
L 3047 4666 
L 3047 1625 
L 3713 1625 
L 3713 1100 
L 3047 1100 
L 3047 0 
L 2419 0 
L 2419 1100 
L 313 1100 
L 313 1709 
L 2253 4666 
z
" transform="scale(0.015625)"/>
       </defs>
       <use xlink:href="#DejaVuSans-34"/>
      </g>
     </g>
    </g>
    <g id="xtick_6">
     <g id="line2d_6">
      <g>
       <use xlink:href="#m0fe91365d4" x="398.812252" y="307.584" style="stroke: #000000; stroke-width: 0.8"/>
      </g>
     </g>
     <g id="text_6">
      <!-- 5 -->
      <g transform="translate(395.631002 322.182437) scale(0.1 -0.1)">
       <defs>
        <path id="DejaVuSans-35" d="M 691 4666 
L 3169 4666 
L 3169 4134 
L 1269 4134 
L 1269 2991 
Q 1406 3038 1543 3061 
Q 1681 3084 1819 3084 
Q 2600 3084 3056 2656 
Q 3513 2228 3513 1497 
Q 3513 744 3044 326 
Q 2575 -91 1722 -91 
Q 1428 -91 1123 -41 
Q 819 9 494 109 
L 494 744 
Q 775 591 1075 516 
Q 1375 441 1709 441 
Q 2250 441 2565 725 
Q 2881 1009 2881 1497 
Q 2881 1984 2565 2268 
Q 2250 2553 1709 2553 
Q 1456 2553 1204 2497 
Q 953 2441 691 2322 
L 691 4666 
z
" transform="scale(0.015625)"/>
       </defs>
       <use xlink:href="#DejaVuSans-35"/>
      </g>
     </g>
    </g>
    <g id="text_7">
     <!-- 1e−7 -->
     <g transform="translate(387.462188 334.860562) scale(0.1 -0.1)">
      <defs>
       <path id="DejaVuSans-65" d="M 3597 1894 
L 3597 1613 
L 953 1613 
Q 991 1019 1311 708 
Q 1631 397 2203 397 
Q 2534 397 2845 478 
Q 3156 559 3463 722 
L 3463 178 
Q 3153 47 2828 -22 
Q 2503 -91 2169 -91 
Q 1331 -91 842 396 
Q 353 884 353 1716 
Q 353 2575 817 3079 
Q 1281 3584 2069 3584 
Q 2775 3584 3186 3129 
Q 3597 2675 3597 1894 
z
M 3022 2063 
Q 3016 2534 2758 2815 
Q 2500 3097 2075 3097 
Q 1594 3097 1305 2825 
Q 1016 2553 972 2059 
L 3022 2063 
z
" transform="scale(0.015625)"/>
       <path id="DejaVuSans-2212" d="M 678 2272 
L 4684 2272 
L 4684 1741 
L 678 1741 
L 678 2272 
z
" transform="scale(0.015625)"/>
       <path id="DejaVuSans-37" d="M 525 4666 
L 3525 4666 
L 3525 4397 
L 1831 0 
L 1172 0 
L 2766 4134 
L 525 4134 
L 525 4666 
z
" transform="scale(0.015625)"/>
      </defs>
      <use xlink:href="#DejaVuSans-31"/>
      <use xlink:href="#DejaVuSans-65" transform="translate(63.623047 0)"/>
      <use xlink:href="#DejaVuSans-2212" transform="translate(125.146484 0)"/>
      <use xlink:href="#DejaVuSans-37" transform="translate(208.935547 0)"/>
     </g>
    </g>
   </g>
   <g id="matplotlib.axis_2">
    <g id="ytick_1">
     <g id="line2d_7">
      <defs>
       <path id="m0f51c6f16e" d="M 0 0 
L -3.5 0 
" style="stroke: #000000; stroke-width: 0.8"/>
      </defs>
      <g>
       <use xlink:href="#m0f51c6f16e" x="57.6" y="290.273287" style="stroke: #000000; stroke-width: 0.8"/>
      </g>
     </g>
     <g id="text_8">
      <!-- −300 -->
      <g transform="translate(23.132812 294.072505) scale(0.1 -0.1)">
       <use xlink:href="#DejaVuSans-2212"/>
       <use xlink:href="#DejaVuSans-33" transform="translate(83.789062 0)"/>
       <use xlink:href="#DejaVuSans-30" transform="translate(147.412109 0)"/>
       <use xlink:href="#DejaVuSans-30" transform="translate(211.035156 0)"/>
      </g>
     </g>
    </g>
    <g id="ytick_2">
     <g id="line2d_8">
      <g>
       <use xlink:href="#m0f51c6f16e" x="57.6" y="247.265289" style="stroke: #000000; stroke-width: 0.8"/>
      </g>
     </g>
     <g id="text_9">
      <!-- −200 -->
      <g transform="translate(23.132812 251.064508) scale(0.1 -0.1)">
       <use xlink:href="#DejaVuSans-2212"/>
       <use xlink:href="#DejaVuSans-32" transform="translate(83.789062 0)"/>
       <use xlink:href="#DejaVuSans-30" transform="translate(147.412109 0)"/>
       <use xlink:href="#DejaVuSans-30" transform="translate(211.035156 0)"/>
      </g>
     </g>
    </g>
    <g id="ytick_3">
     <g id="line2d_9">
      <g>
       <use xlink:href="#m0f51c6f16e" x="57.6" y="204.257292" style="stroke: #000000; stroke-width: 0.8"/>
      </g>
     </g>
     <g id="text_10">
      <!-- −100 -->
      <g transform="translate(23.132812 208.056511) scale(0.1 -0.1)">
       <use xlink:href="#DejaVuSans-2212"/>
       <use xlink:href="#DejaVuSans-31" transform="translate(83.789062 0)"/>
       <use xlink:href="#DejaVuSans-30" transform="translate(147.412109 0)"/>
       <use xlink:href="#DejaVuSans-30" transform="translate(211.035156 0)"/>
      </g>
     </g>
    </g>
    <g id="ytick_4">
     <g id="line2d_10">
      <g>
       <use xlink:href="#m0f51c6f16e" x="57.6" y="161.249294" style="stroke: #000000; stroke-width: 0.8"/>
      </g>
     </g>
     <g id="text_11">
      <!-- 0 -->
      <g transform="translate(44.2375 165.048513) scale(0.1 -0.1)">
       <use xlink:href="#DejaVuSans-30"/>
      </g>
     </g>
    </g>
    <g id="ytick_5">
     <g id="line2d_11">
      <g>
       <use xlink:href="#m0f51c6f16e" x="57.6" y="118.241297" style="stroke: #000000; stroke-width: 0.8"/>
      </g>
     </g>
     <g id="text_12">
      <!-- 100 -->
      <g transform="translate(31.5125 122.040516) scale(0.1 -0.1)">
       <use xlink:href="#DejaVuSans-31"/>
       <use xlink:href="#DejaVuSans-30" transform="translate(63.623047 0)"/>
       <use xlink:href="#DejaVuSans-30" transform="translate(127.246094 0)"/>
      </g>
     </g>
    </g>
    <g id="ytick_6">
     <g id="line2d_12">
      <g>
       <use xlink:href="#m0f51c6f16e" x="57.6" y="75.2333" style="stroke: #000000; stroke-width: 0.8"/>
      </g>
     </g>
     <g id="text_13">
      <!-- 200 -->
      <g transform="translate(31.5125 79.032518) scale(0.1 -0.1)">
       <use xlink:href="#DejaVuSans-32"/>
       <use xlink:href="#DejaVuSans-30" transform="translate(63.623047 0)"/>
       <use xlink:href="#DejaVuSans-30" transform="translate(127.246094 0)"/>
      </g>
     </g>
    </g>
   </g>
   <g id="line2d_13">
    <path d="M 73.832727 176.839655 
L 74.157707 176.839655 
L 74.482686 163.399655 
L 75.132645 176.839655 
L 75.457625 163.399655 
L 76.432563 163.399655 
L 76.757543 156.679655 
L 77.082523 156.679655 
L 77.407502 149.959655 
L 79.0324 149.959655 
L 79.357379 143.239655 
L 79.682359 143.239655 
L 80.007338 149.959655 
L 80.982277 129.799655 
L 81.307256 136.519655 
L 81.632236 136.519655 
L 81.957215 129.799655 
L 82.282195 136.519655 
L 82.932154 123.079655 
L 83.257133 129.799655 
L 83.582113 129.799655 
L 83.907093 123.079655 
L 84.232072 123.079655 
L 84.557052 129.799655 
L 84.882031 116.359655 
L 85.207011 123.079655 
L 85.53199 123.079655 
L 86.181949 109.639655 
L 86.506929 116.359655 
L 86.831908 116.359655 
L 87.156888 123.079655 
L 87.481867 116.359655 
L 87.806847 102.919655 
L 88.131826 102.919655 
L 88.456806 109.639655 
L 88.781785 109.639655 
L 89.106765 102.919655 
L 89.431744 102.919655 
L 89.756724 109.639655 
L 90.081704 102.919655 
L 91.056642 102.919655 
L 91.381622 96.199655 
L 91.706601 96.199655 
L 92.031581 102.919655 
L 92.68154 89.479655 
L 93.006519 96.199655 
L 93.331499 89.479655 
L 93.656478 96.199655 
L 94.306437 82.759655 
L 94.631417 89.479655 
L 94.956396 89.479655 
L 95.281376 82.759655 
L 95.606355 89.479655 
L 95.931335 82.759655 
L 96.256314 82.759655 
L 96.581294 76.039655 
L 96.906274 82.759655 
L 97.231253 82.759655 
L 97.881212 69.319655 
L 98.531171 69.319655 
L 98.856151 76.039655 
L 99.18113 62.599655 
L 99.50611 62.599655 
L 99.831089 69.319655 
L 101.455987 69.319655 
L 101.780966 62.599655 
L 102.105946 62.599655 
L 102.430925 69.319655 
L 102.755905 69.319655 
L 103.080885 62.599655 
L 103.730844 62.599655 
L 104.055823 76.039655 
L 104.380803 69.319655 
L 105.030762 69.319655 
L 105.355741 76.039655 
L 105.680721 69.319655 
L 106.0057 76.039655 
L 106.655659 76.039655 
L 106.980639 69.319655 
L 107.955577 89.479655 
L 108.280557 82.759655 
L 108.605536 89.479655 
L 108.930516 76.039655 
L 109.255495 89.479655 
L 109.580475 82.759655 
L 109.905455 82.759655 
L 110.555414 96.199655 
L 110.880393 89.479655 
L 111.205373 96.199655 
L 112.180311 96.199655 
L 112.505291 102.919655 
L 113.15525 102.919655 
L 113.480229 109.639655 
L 113.805209 102.919655 
L 114.130188 102.919655 
L 114.455168 116.359655 
L 114.780147 116.359655 
L 115.105127 109.639655 
L 115.755086 123.079655 
L 116.080066 116.359655 
L 116.730025 129.799655 
L 117.055004 123.079655 
L 117.704963 123.079655 
L 118.354922 136.519655 
L 119.329861 136.519655 
L 119.65484 143.239655 
L 120.629779 143.239655 
L 120.954758 149.959655 
L 121.604717 149.959655 
L 121.929697 156.679655 
L 123.229615 156.679655 
L 123.554595 163.399655 
L 123.879574 163.399655 
L 124.204554 156.679655 
L 124.529533 163.399655 
L 124.854513 176.839655 
L 125.179492 163.399655 
L 125.504472 163.399655 
L 125.829451 176.839655 
L 126.154431 183.559655 
L 126.47941 176.839655 
L 126.80439 176.839655 
L 127.129369 183.559655 
L 127.454349 183.559655 
L 127.779328 176.839655 
L 128.104308 176.839655 
L 128.429287 190.279655 
L 128.754267 196.999655 
L 129.079247 190.279655 
L 129.729206 190.279655 
L 130.054185 196.999655 
L 130.379165 190.279655 
L 131.029124 203.719655 
L 131.354103 203.719655 
L 131.679083 196.999655 
L 132.004062 210.439655 
L 132.329042 210.439655 
L 132.654021 203.719655 
L 132.979001 210.439655 
L 133.30398 203.719655 
L 133.62896 210.439655 
L 134.928878 210.439655 
L 135.253857 217.159655 
L 135.578837 217.159655 
L 135.903817 210.439655 
L 136.228796 223.879655 
L 137.203735 223.879655 
L 137.528714 230.599655 
L 137.853694 217.159655 
L 138.178673 223.879655 
L 138.503653 223.879655 
L 138.828632 230.599655 
L 140.12855 230.599655 
L 140.45353 237.319655 
L 141.103489 237.319655 
L 141.428468 230.599655 
L 141.753448 244.039655 
L 142.078428 237.319655 
L 142.403407 244.039655 
L 142.728387 257.479655 
L 143.053366 244.039655 
L 143.378346 250.759655 
L 145.328223 250.759655 
L 145.653202 257.479655 
L 146.628141 257.479655 
L 146.95312 264.199655 
L 147.2781 257.479655 
L 147.603079 264.199655 
L 149.877936 264.199655 
L 150.202916 257.479655 
L 150.527895 257.479655 
L 150.852875 264.199655 
L 151.177854 257.479655 
L 151.502834 257.479655 
L 151.827813 264.199655 
L 152.152793 264.199655 
L 152.477772 257.479655 
L 153.77769 257.479655 
L 154.10267 250.759655 
L 154.427649 257.479655 
L 154.752629 257.479655 
L 155.077609 250.759655 
L 155.402588 250.759655 
L 155.727568 244.039655 
L 156.052547 250.759655 
L 156.377527 244.039655 
L 157.027486 244.039655 
L 157.352465 250.759655 
L 157.677445 237.319655 
L 158.002424 244.039655 
L 158.327404 244.039655 
L 158.977363 230.599655 
L 159.302342 230.599655 
L 159.627322 237.319655 
L 159.952301 230.599655 
L 160.60226 230.599655 
L 160.92724 223.879655 
L 161.577199 223.879655 
L 161.902179 210.439655 
L 162.227158 223.879655 
L 162.552138 223.879655 
L 162.877117 210.439655 
L 163.852056 210.439655 
L 164.177035 203.719655 
L 165.151974 203.719655 
L 165.476953 196.999655 
L 165.801933 196.999655 
L 166.126912 190.279655 
L 166.451892 196.999655 
L 167.101851 183.559655 
L 167.42683 183.559655 
L 167.75181 190.279655 
L 168.07679 183.559655 
L 168.726749 183.559655 
L 169.051728 176.839655 
L 169.701687 176.839655 
L 170.026667 170.119655 
L 171.001605 170.119655 
L 171.326585 156.679655 
L 171.651564 163.399655 
L 171.976544 163.399655 
L 172.301523 156.679655 
L 172.626503 163.399655 
L 172.951482 163.399655 
L 173.276462 149.959655 
L 173.601441 156.679655 
L 173.926421 156.679655 
L 174.2514 149.959655 
L 174.57638 149.959655 
L 174.90136 143.239655 
L 175.226339 143.239655 
L 175.551319 149.959655 
L 176.201278 136.519655 
L 176.526257 136.519655 
L 176.851237 143.239655 
L 177.501196 129.799655 
L 179.126093 129.799655 
L 179.776052 116.359655 
L 180.101032 123.079655 
L 180.750991 123.079655 
L 181.075971 116.359655 
L 181.40095 116.359655 
L 181.72593 102.919655 
L 182.375889 116.359655 
L 182.700868 109.639655 
L 183.025848 109.639655 
L 183.350827 116.359655 
L 183.675807 102.919655 
L 184.000786 109.639655 
L 184.650745 109.639655 
L 184.975725 102.919655 
L 185.625684 102.919655 
L 185.950663 109.639655 
L 186.275643 102.919655 
L 186.600622 102.919655 
L 186.925602 89.479655 
L 187.250581 102.919655 
L 187.575561 89.479655 
L 187.900541 89.479655 
L 188.22552 96.199655 
L 189.850418 96.199655 
L 190.175397 82.759655 
L 191.150336 82.759655 
L 191.475315 89.479655 
L 192.125274 76.039655 
L 192.450254 82.759655 
L 193.100213 69.319655 
L 193.750172 82.759655 
L 194.075152 69.319655 
L 194.400131 69.319655 
L 194.725111 76.039655 
L 195.05009 76.039655 
L 195.37507 62.599655 
L 195.700049 69.319655 
L 196.674988 69.319655 
L 196.999967 62.599655 
L 197.324947 62.599655 
L 197.649926 76.039655 
L 197.974906 62.599655 
L 198.299885 62.599655 
L 198.624865 69.319655 
L 198.949844 69.319655 
L 199.274824 62.599655 
L 199.599803 76.039655 
L 199.924783 69.319655 
L 200.249762 69.319655 
L 200.574742 62.599655 
L 200.899722 69.319655 
L 201.224701 69.319655 
L 201.549681 76.039655 
L 201.87466 69.319655 
L 202.19964 76.039655 
L 202.524619 69.319655 
L 202.849599 76.039655 
L 203.174578 69.319655 
L 203.824537 82.759655 
L 204.799476 82.759655 
L 205.124455 89.479655 
L 205.774414 76.039655 
L 206.749353 96.199655 
L 207.074333 89.479655 
L 207.399312 96.199655 
L 207.724292 89.479655 
L 208.049271 102.919655 
L 208.374251 96.199655 
L 208.69923 102.919655 
L 209.02421 102.919655 
L 209.349189 109.639655 
L 209.674169 102.919655 
L 210.324128 116.359655 
L 210.649107 109.639655 
L 211.299066 109.639655 
L 211.949025 123.079655 
L 212.598984 123.079655 
L 212.923964 116.359655 
L 213.248943 129.799655 
L 213.898903 129.799655 
L 214.548862 143.239655 
L 214.873841 136.519655 
L 215.198821 136.519655 
L 215.5238 143.239655 
L 216.498739 143.239655 
L 216.823718 149.959655 
L 218.123636 149.959655 
L 218.448616 156.679655 
L 219.098575 156.679655 
L 219.748534 170.119655 
L 220.073514 163.399655 
L 220.398493 170.119655 
L 220.723473 170.119655 
L 221.048452 176.839655 
L 221.373432 163.399655 
L 222.023391 176.839655 
L 222.998329 176.839655 
L 223.323309 170.119655 
L 223.648288 183.559655 
L 224.298247 183.559655 
L 224.623227 190.279655 
L 224.948206 190.279655 
L 225.273186 183.559655 
L 225.598165 196.999655 
L 225.923145 196.999655 
L 226.248124 190.279655 
L 226.573104 190.279655 
L 226.898084 196.999655 
L 227.223063 196.999655 
L 227.548043 203.719655 
L 227.873022 196.999655 
L 228.198002 203.719655 
L 228.522981 196.999655 
L 228.847961 203.719655 
L 229.49792 203.719655 
L 230.147879 217.159655 
L 230.472858 210.439655 
L 231.122817 223.879655 
L 231.772776 210.439655 
L 232.097756 217.159655 
L 232.422735 217.159655 
L 232.747715 223.879655 
L 233.072695 217.159655 
L 233.397674 230.599655 
L 233.722654 217.159655 
L 234.047633 230.599655 
L 234.372613 230.599655 
L 234.697592 223.879655 
L 235.347551 237.319655 
L 235.672531 230.599655 
L 236.32249 244.039655 
L 236.647469 237.319655 
L 237.622408 237.319655 
L 237.947387 244.039655 
L 238.922326 244.039655 
L 239.247305 250.759655 
L 239.572285 244.039655 
L 240.222244 244.039655 
L 240.547224 257.479655 
L 241.847142 257.479655 
L 242.172121 250.759655 
L 242.497101 257.479655 
L 242.82208 257.479655 
L 243.14706 264.199655 
L 243.472039 264.199655 
L 244.121998 250.759655 
L 244.446978 264.199655 
L 244.771957 257.479655 
L 245.096937 257.479655 
L 245.421916 264.199655 
L 245.746896 264.199655 
L 246.071876 257.479655 
L 246.396855 257.479655 
L 246.721835 264.199655 
L 247.046814 257.479655 
L 247.371794 264.199655 
L 247.696773 264.199655 
L 248.021753 257.479655 
L 248.346732 264.199655 
L 248.671712 257.479655 
L 248.996691 257.479655 
L 249.321671 250.759655 
L 249.64665 257.479655 
L 249.97163 257.479655 
L 250.296609 250.759655 
L 250.621589 250.759655 
L 250.946568 257.479655 
L 251.271548 250.759655 
L 251.596527 250.759655 
L 251.921507 257.479655 
L 252.246486 250.759655 
L 252.571466 250.759655 
L 252.896446 244.039655 
L 253.221425 250.759655 
L 253.546405 244.039655 
L 253.871384 244.039655 
L 254.521343 230.599655 
L 254.846323 237.319655 
L 255.171302 237.319655 
L 255.496282 230.599655 
L 255.821261 230.599655 
L 256.146241 237.319655 
L 256.47122 223.879655 
L 256.7962 230.599655 
L 257.121179 223.879655 
L 257.446159 223.879655 
L 258.096118 210.439655 
L 258.421097 210.439655 
L 258.746077 217.159655 
L 259.071057 210.439655 
L 259.396036 210.439655 
L 259.721016 203.719655 
L 260.045995 210.439655 
L 260.695954 196.999655 
L 261.020934 203.719655 
L 261.345913 203.719655 
L 261.670893 190.279655 
L 261.995872 196.999655 
L 262.645831 183.559655 
L 264.595708 183.559655 
L 264.920688 163.399655 
L 265.245667 176.839655 
L 265.570647 170.119655 
L 266.220606 170.119655 
L 266.545586 176.839655 
L 266.870565 163.399655 
L 267.195545 170.119655 
L 267.520524 163.399655 
L 267.845504 163.399655 
L 268.170483 156.679655 
L 268.495463 163.399655 
L 268.820442 156.679655 
L 269.145422 163.399655 
L 269.470401 156.679655 
L 269.795381 156.679655 
L 270.12036 143.239655 
L 270.44534 143.239655 
L 270.770319 149.959655 
L 271.095299 143.239655 
L 271.745258 143.239655 
L 272.070238 136.519655 
L 272.395217 143.239655 
L 272.720197 143.239655 
L 273.370156 129.799655 
L 273.695135 129.799655 
L 274.020115 136.519655 
L 274.345094 129.799655 
L 274.670074 129.799655 
L 275.320033 116.359655 
L 275.645012 129.799655 
L 276.294971 116.359655 
L 276.619951 123.079655 
L 276.94493 123.079655 
L 277.26991 116.359655 
L 277.594889 116.359655 
L 277.919869 123.079655 
L 278.569828 109.639655 
L 278.894808 109.639655 
L 279.219787 116.359655 
L 279.544767 116.359655 
L 279.869746 109.639655 
L 280.194726 109.639655 
L 280.519705 96.199655 
L 280.844685 109.639655 
L 281.169664 102.919655 
L 281.819623 102.919655 
L 282.144603 109.639655 
L 282.469582 96.199655 
L 284.744439 96.199655 
L 285.069419 89.479655 
L 285.394398 96.199655 
L 285.719378 82.759655 
L 286.044357 89.479655 
L 286.369337 89.479655 
L 286.694316 82.759655 
L 287.019296 89.479655 
L 287.669255 76.039655 
L 287.994234 82.759655 
L 288.319214 76.039655 
L 288.644193 76.039655 
L 288.969173 69.319655 
L 289.294152 76.039655 
L 289.619132 69.319655 
L 289.944111 76.039655 
L 290.269091 69.319655 
L 290.59407 69.319655 
L 290.91905 62.599655 
L 291.244029 76.039655 
L 291.569009 62.599655 
L 291.893989 62.599655 
L 292.218968 69.319655 
L 292.543948 69.319655 
L 292.868927 62.599655 
L 293.193907 69.319655 
L 293.843866 69.319655 
L 294.168845 55.879655 
L 294.493825 69.319655 
L 295.143784 69.319655 
L 295.468763 62.599655 
L 295.793743 69.319655 
L 296.118722 62.599655 
L 296.443702 76.039655 
L 296.768681 69.319655 
L 297.41864 69.319655 
L 297.74362 82.759655 
L 298.0686 69.319655 
L 298.393579 76.039655 
L 298.718559 76.039655 
L 299.043538 82.759655 
L 299.368518 69.319655 
L 299.693497 82.759655 
L 300.018477 82.759655 
L 300.343456 89.479655 
L 300.668436 82.759655 
L 300.993415 89.479655 
L 301.318395 82.759655 
L 301.643374 96.199655 
L 301.968354 89.479655 
L 302.618313 89.479655 
L 302.943292 96.199655 
L 303.268272 89.479655 
L 303.918231 102.919655 
L 304.24321 102.919655 
L 304.56819 96.199655 
L 304.89317 102.919655 
L 305.218149 102.919655 
L 305.543129 116.359655 
L 305.868108 109.639655 
L 306.518067 109.639655 
L 306.843047 116.359655 
L 307.493006 116.359655 
L 308.142965 129.799655 
L 308.467944 123.079655 
L 309.117903 136.519655 
L 309.442883 129.799655 
L 310.092842 129.799655 
L 310.417821 136.519655 
L 311.71774 136.519655 
L 312.367699 149.959655 
L 312.692678 143.239655 
L 313.342637 156.679655 
L 313.667617 149.959655 
L 313.992596 163.399655 
L 314.642555 163.399655 
L 314.967535 156.679655 
L 315.292514 163.399655 
L 316.267453 163.399655 
L 316.592432 170.119655 
L 316.917412 163.399655 
L 317.242391 170.119655 
L 317.567371 170.119655 
L 317.892351 163.399655 
L 318.21733 170.119655 
L 318.54231 183.559655 
L 318.867289 176.839655 
L 319.192269 190.279655 
L 319.517248 190.279655 
L 319.842228 183.559655 
L 320.167207 190.279655 
L 320.817166 190.279655 
L 321.142146 196.999655 
L 321.467125 190.279655 
L 321.792105 196.999655 
L 322.117084 190.279655 
L 322.442064 203.719655 
L 322.767043 196.999655 
L 323.092023 196.999655 
L 323.741982 210.439655 
L 324.066962 196.999655 
L 324.716921 210.439655 
L 325.0419 203.719655 
L 325.36688 203.719655 
L 325.691859 210.439655 
L 326.016839 210.439655 
L 326.341818 217.159655 
L 326.666798 210.439655 
L 327.316757 210.439655 
L 327.641736 223.879655 
L 327.966716 223.879655 
L 328.291695 217.159655 
L 328.941654 230.599655 
L 329.266634 223.879655 
L 329.591613 223.879655 
L 329.916593 230.599655 
L 330.241572 223.879655 
L 330.891532 223.879655 
L 331.216511 237.319655 
L 331.86647 223.879655 
L 332.19145 237.319655 
L 332.516429 230.599655 
L 332.841409 237.319655 
L 333.816347 237.319655 
L 334.141327 244.039655 
L 334.466306 237.319655 
L 334.791286 244.039655 
L 335.116265 257.479655 
L 335.766224 244.039655 
L 336.091204 244.039655 
L 336.741163 257.479655 
L 337.391122 257.479655 
L 337.716102 250.759655 
L 338.041081 264.199655 
L 338.366061 257.479655 
L 338.69104 257.479655 
L 339.340999 270.919655 
L 339.665979 264.199655 
L 339.990958 264.199655 
L 340.315938 270.919655 
L 340.640917 264.199655 
L 341.290876 264.199655 
L 341.615856 257.479655 
L 341.940835 264.199655 
L 342.265815 257.479655 
L 342.915774 257.479655 
L 343.240753 264.199655 
L 343.565733 257.479655 
L 344.215692 257.479655 
L 344.540672 264.199655 
L 344.865651 257.479655 
L 345.190631 257.479655 
L 345.51561 264.199655 
L 346.165569 250.759655 
L 346.490549 257.479655 
L 346.815528 250.759655 
L 347.140508 257.479655 
L 347.465487 244.039655 
L 347.790467 250.759655 
L 348.115446 244.039655 
L 348.440426 250.759655 
L 348.765405 244.039655 
L 349.740344 244.039655 
L 350.065324 237.319655 
L 350.715283 237.319655 
L 351.040262 230.599655 
L 351.690221 230.599655 
L 352.015201 223.879655 
L 352.34018 230.599655 
L 352.990139 230.599655 
L 353.315119 217.159655 
L 353.965078 217.159655 
L 354.290057 210.439655 
L 354.615037 217.159655 
L 354.940016 217.159655 
L 355.589975 203.719655 
L 355.914955 210.439655 
L 356.239934 203.719655 
L 356.564914 203.719655 
L 356.889894 196.999655 
L 357.539853 196.999655 
L 357.864832 190.279655 
L 358.189812 190.279655 
L 358.514791 183.559655 
L 358.839771 190.279655 
L 359.16475 190.279655 
L 359.48973 176.839655 
L 360.139689 190.279655 
L 360.464668 176.839655 
L 360.789648 183.559655 
L 361.439607 170.119655 
L 362.739525 170.119655 
L 363.064505 163.399655 
L 363.389484 163.399655 
L 363.714464 156.679655 
L 364.039443 163.399655 
L 364.364423 156.679655 
L 364.689402 156.679655 
L 365.014382 163.399655 
L 365.339361 163.399655 
L 365.98932 149.959655 
L 366.3143 149.959655 
L 366.964259 136.519655 
L 367.289238 143.239655 
L 367.939197 143.239655 
L 368.264177 136.519655 
L 368.589156 136.519655 
L 368.914136 129.799655 
L 369.239115 136.519655 
L 369.564095 129.799655 
L 370.539034 129.799655 
L 370.864013 123.079655 
L 371.188993 129.799655 
L 371.513972 129.799655 
L 372.163931 116.359655 
L 372.81389 116.359655 
L 373.13887 123.079655 
L 373.463849 116.359655 
L 373.788829 116.359655 
L 374.113808 102.919655 
L 374.438788 116.359655 
L 374.763767 116.359655 
L 375.088747 109.639655 
L 375.413726 109.639655 
L 375.738706 116.359655 
L 376.063686 109.639655 
L 376.713645 109.639655 
L 377.363604 96.199655 
L 377.688583 102.919655 
L 378.663522 102.919655 
L 379.313481 89.479655 
L 379.63846 102.919655 
L 379.96344 89.479655 
L 380.613399 89.479655 
L 380.938378 102.919655 
L 381.263358 89.479655 
L 382.238296 89.479655 
L 382.563276 76.039655 
L 382.888256 82.759655 
L 383.213235 82.759655 
L 383.538215 89.479655 
L 384.513153 69.319655 
L 384.838133 76.039655 
L 385.163112 76.039655 
L 385.488092 69.319655 
L 386.138051 82.759655 
L 386.46303 69.319655 
L 386.78801 76.039655 
L 387.112989 69.319655 
L 387.437969 69.319655 
L 387.762948 62.599655 
L 388.412907 62.599655 
L 388.737887 69.319655 
L 389.062867 62.599655 
L 389.712826 62.599655 
L 390.037805 69.319655 
L 390.362785 69.319655 
L 390.687764 62.599655 
L 391.012744 76.039655 
L 391.337723 76.039655 
L 391.662703 69.319655 
L 391.987682 76.039655 
L 392.312662 69.319655 
L 392.637641 76.039655 
L 392.962621 69.319655 
L 393.61258 69.319655 
L 393.937559 76.039655 
L 394.587518 76.039655 
L 394.912498 69.319655 
L 395.237477 82.759655 
L 395.562457 76.039655 
L 395.887437 76.039655 
L 396.537396 89.479655 
L 396.862375 82.759655 
L 397.187355 89.479655 
L 397.837314 89.479655 
L 398.162293 82.759655 
L 398.487273 89.479655 
L 398.487273 89.479655 
" clip-path="url(#p1a481d3c19)" style="fill: none; stroke: #1f77b4; stroke-width: 1.5; stroke-linecap: square"/>
   </g>
   <g id="line2d_14">
    <path d="M 73.832727 275.328 
L 74.157707 268.608 
L 74.482686 275.328 
L 74.807666 275.328 
L 75.132645 282.048 
L 75.457625 275.328 
L 75.782604 282.048 
L 76.107584 275.328 
L 76.432563 275.328 
L 76.757543 282.048 
L 77.082523 275.328 
L 78.057461 295.488 
L 78.382441 282.048 
L 79.0324 282.048 
L 79.357379 275.328 
L 79.682359 275.328 
L 80.007338 282.048 
L 80.332318 275.328 
L 80.657297 275.328 
L 80.982277 282.048 
L 81.307256 268.608 
L 81.632236 268.608 
L 81.957215 275.328 
L 82.282195 261.888 
L 82.932154 275.328 
L 83.257133 275.328 
L 83.907093 261.888 
L 84.232072 261.888 
L 84.557052 255.168 
L 85.53199 255.168 
L 85.85697 248.448 
L 86.181949 248.448 
L 86.506929 241.728 
L 87.156888 241.728 
L 87.481867 228.288 
L 87.806847 235.008 
L 88.131826 235.008 
L 88.456806 241.728 
L 88.781785 235.008 
L 89.431744 235.008 
L 89.756724 228.288 
L 90.731663 228.288 
L 91.056642 221.568 
L 91.381622 221.568 
L 91.706601 214.848 
L 92.031581 221.568 
L 92.35656 221.568 
L 92.68154 208.128 
L 93.006519 221.568 
L 93.331499 228.288 
L 93.656478 228.288 
L 93.981458 214.848 
L 94.306437 208.128 
L 94.631417 214.848 
L 95.281376 214.848 
L 95.606355 208.128 
L 95.931335 221.568 
L 96.256314 208.128 
L 96.581294 208.128 
L 96.906274 201.408 
L 97.231253 201.408 
L 97.556233 208.128 
L 97.881212 187.968 
L 98.531171 201.408 
L 98.856151 187.968 
L 99.50611 187.968 
L 99.831089 181.248 
L 100.481048 181.248 
L 100.806028 174.528 
L 101.131007 181.248 
L 101.780966 167.808 
L 102.105946 167.808 
L 102.430925 161.088 
L 102.755905 167.808 
L 103.080885 154.368 
L 103.730844 167.808 
L 104.055823 161.088 
L 104.380803 161.088 
L 104.705782 154.368 
L 105.680721 154.368 
L 106.0057 147.648 
L 106.655659 147.648 
L 106.980639 140.928 
L 107.305618 147.648 
L 107.630598 134.208 
L 107.955577 140.928 
L 108.280557 134.208 
L 108.605536 134.208 
L 108.930516 140.928 
L 109.255495 140.928 
L 109.905455 127.488 
L 110.230434 127.488 
L 110.555414 120.768 
L 111.530352 120.768 
L 111.855332 100.608 
L 112.180311 107.328 
L 112.505291 107.328 
L 112.83027 100.608 
L 113.15525 107.328 
L 113.480229 87.168 
L 113.805209 100.608 
L 114.130188 107.328 
L 114.455168 107.328 
L 115.105127 93.888 
L 116.080066 93.888 
L 116.405045 87.168 
L 116.730025 93.888 
L 117.055004 80.448 
L 117.379984 87.168 
L 117.704963 87.168 
L 118.029943 80.448 
L 118.354922 87.168 
L 118.679902 73.728 
L 119.004881 87.168 
L 119.65484 87.168 
L 119.97982 80.448 
L 120.954758 80.448 
L 121.279738 73.728 
L 121.929697 73.728 
L 122.254676 67.008 
L 122.579656 73.728 
L 123.229615 60.288 
L 123.554595 73.728 
L 123.879574 60.288 
L 124.204554 67.008 
L 126.80439 67.008 
L 127.129369 73.728 
L 127.454349 67.008 
L 128.104308 67.008 
L 128.429287 60.288 
L 128.754267 67.008 
L 129.079247 60.288 
L 129.404226 73.728 
L 129.729206 73.728 
L 130.054185 80.448 
L 130.379165 73.728 
L 130.704144 73.728 
L 131.029124 80.448 
L 132.004062 80.448 
L 132.329042 87.168 
L 132.654021 87.168 
L 132.979001 93.888 
L 133.30398 87.168 
L 133.62896 87.168 
L 133.953939 93.888 
L 134.278919 80.448 
L 134.603898 100.608 
L 134.928878 107.328 
L 136.878755 107.328 
L 137.203735 114.048 
L 137.528714 114.048 
L 137.853694 107.328 
L 138.178673 114.048 
L 138.828632 114.048 
L 139.153612 120.768 
L 139.478591 114.048 
L 140.12855 127.488 
L 140.45353 127.488 
L 140.778509 120.768 
L 141.103489 127.488 
L 141.428468 127.488 
L 141.753448 134.208 
L 142.078428 134.208 
L 142.403407 127.488 
L 142.728387 134.208 
L 143.053366 127.488 
L 143.378346 134.208 
L 143.703325 127.488 
L 144.353284 140.928 
L 144.678264 127.488 
L 145.003243 140.928 
L 145.653202 154.368 
L 145.978182 147.648 
L 146.628141 147.648 
L 147.2781 161.088 
L 147.603079 154.368 
L 147.928059 161.088 
L 148.578018 161.088 
L 148.902998 167.808 
L 149.227977 167.808 
L 149.552957 174.528 
L 149.877936 167.808 
L 150.527895 181.248 
L 152.152793 181.248 
L 152.802752 194.688 
L 153.127731 194.688 
L 153.452711 187.968 
L 154.10267 187.968 
L 154.752629 201.408 
L 155.077609 194.688 
L 155.402588 208.128 
L 155.727568 208.128 
L 156.052547 214.848 
L 156.377527 208.128 
L 157.027486 208.128 
L 157.352465 214.848 
L 157.677445 214.848 
L 158.327404 228.288 
L 158.652383 221.568 
L 158.977363 221.568 
L 159.302342 228.288 
L 159.627322 228.288 
L 159.952301 235.008 
L 160.277281 228.288 
L 161.252219 248.448 
L 161.577199 248.448 
L 161.902179 241.728 
L 162.227158 241.728 
L 162.552138 248.448 
L 163.202097 248.448 
L 163.527076 255.168 
L 163.852056 248.448 
L 164.177035 255.168 
L 164.502015 255.168 
L 164.826994 248.448 
L 165.151974 261.888 
L 165.476953 248.448 
L 165.801933 261.888 
L 166.126912 261.888 
L 166.451892 268.608 
L 166.776871 261.888 
L 167.42683 261.888 
L 167.75181 268.608 
L 168.401769 268.608 
L 168.726749 275.328 
L 169.051728 268.608 
L 169.376708 275.328 
L 169.701687 268.608 
L 170.026667 268.608 
L 170.351646 275.328 
L 170.676626 261.888 
L 171.326585 288.768 
L 171.651564 282.048 
L 172.301523 282.048 
L 172.626503 275.328 
L 172.951482 275.328 
L 173.276462 282.048 
L 173.601441 282.048 
L 173.926421 288.768 
L 174.2514 282.048 
L 174.57638 282.048 
L 174.90136 275.328 
L 175.226339 275.328 
L 175.551319 282.048 
L 175.876298 268.608 
L 176.526257 282.048 
L 177.176216 282.048 
L 177.501196 268.608 
L 177.826175 268.608 
L 178.151155 275.328 
L 178.476134 268.608 
L 179.451073 268.608 
L 179.776052 255.168 
L 180.101032 261.888 
L 180.426011 248.448 
L 180.750991 261.888 
L 181.075971 241.728 
L 181.40095 255.168 
L 182.050909 255.168 
L 182.375889 248.448 
L 183.025848 248.448 
L 183.350827 241.728 
L 184.325766 241.728 
L 184.975725 228.288 
L 185.950663 228.288 
L 186.275643 214.848 
L 186.925602 228.288 
L 187.250581 228.288 
L 187.575561 221.568 
L 190.175397 221.568 
L 190.500377 208.128 
L 191.150336 208.128 
L 191.475315 201.408 
L 191.800295 214.848 
L 192.125274 208.128 
L 192.775233 208.128 
L 193.100213 201.408 
L 193.425192 201.408 
L 193.750172 194.688 
L 194.725111 194.688 
L 195.37507 181.248 
L 195.700049 181.248 
L 196.025029 174.528 
L 196.350008 181.248 
L 196.674988 167.808 
L 197.324947 181.248 
L 197.649926 181.248 
L 197.974906 167.808 
L 198.299885 167.808 
L 198.624865 161.088 
L 198.949844 161.088 
L 199.274824 167.808 
L 199.599803 161.088 
L 199.924783 161.088 
L 200.249762 154.368 
L 200.899722 154.368 
L 201.224701 147.648 
L 201.549681 154.368 
L 201.87466 140.928 
L 202.524619 154.368 
L 202.849599 147.648 
L 203.174578 147.648 
L 203.499558 140.928 
L 203.824537 140.928 
L 204.149517 134.208 
L 204.474496 140.928 
L 204.799476 134.208 
L 205.124455 140.928 
L 205.449435 127.488 
L 206.099394 127.488 
L 206.424373 114.048 
L 206.749353 120.768 
L 207.074333 107.328 
L 207.399312 114.048 
L 208.049271 114.048 
L 208.69923 100.608 
L 209.02421 107.328 
L 209.349189 100.608 
L 209.674169 107.328 
L 209.999148 100.608 
L 210.324128 100.608 
L 210.649107 93.888 
L 210.974087 100.608 
L 211.624046 87.168 
L 211.949025 100.608 
L 212.274005 80.448 
L 212.923964 93.888 
L 213.248943 93.888 
L 213.898903 80.448 
L 214.548862 93.888 
L 214.873841 80.448 
L 215.198821 80.448 
L 215.5238 87.168 
L 215.84878 73.728 
L 216.173759 80.448 
L 216.823718 67.008 
L 217.148698 80.448 
L 217.473677 67.008 
L 218.123636 80.448 
L 218.773595 67.008 
L 219.098575 73.728 
L 219.423554 67.008 
L 219.748534 73.728 
L 220.073514 60.288 
L 220.398493 60.288 
L 220.723473 73.728 
L 221.373432 60.288 
L 221.698411 67.008 
L 222.023391 53.568 
L 222.34837 67.008 
L 222.67335 53.568 
L 222.998329 67.008 
L 223.323309 73.728 
L 223.648288 67.008 
L 224.623227 67.008 
L 224.948206 73.728 
L 226.248124 73.728 
L 226.573104 80.448 
L 227.223063 67.008 
L 227.548043 87.168 
L 227.873022 73.728 
L 228.522981 100.608 
L 229.17294 87.168 
L 229.822899 100.608 
L 230.147879 93.888 
L 230.472858 93.888 
L 231.122817 107.328 
L 231.447797 100.608 
L 231.772776 100.608 
L 232.097756 107.328 
L 232.422735 100.608 
L 232.747715 107.328 
L 233.072695 107.328 
L 233.722654 120.768 
L 235.347551 120.768 
L 235.672531 127.488 
L 236.32249 127.488 
L 236.647469 120.768 
L 236.972449 120.768 
L 237.297428 127.488 
L 237.622408 120.768 
L 237.947387 134.208 
L 238.272367 120.768 
L 238.597346 134.208 
L 238.922326 140.928 
L 239.247305 140.928 
L 239.897265 127.488 
L 240.222244 140.928 
L 241.197183 140.928 
L 241.522162 154.368 
L 241.847142 147.648 
L 242.172121 147.648 
L 242.497101 154.368 
L 242.82208 154.368 
L 243.14706 161.088 
L 243.472039 154.368 
L 243.797019 167.808 
L 244.121998 167.808 
L 244.446978 174.528 
L 244.771957 167.808 
L 245.421916 167.808 
L 245.746896 174.528 
L 246.396855 174.528 
L 246.721835 181.248 
L 247.046814 174.528 
L 247.371794 181.248 
L 248.021753 181.248 
L 248.346732 187.968 
L 248.671712 174.528 
L 248.996691 187.968 
L 249.321671 194.688 
L 249.97163 194.688 
L 250.296609 187.968 
L 250.621589 201.408 
L 251.596527 201.408 
L 251.921507 208.128 
L 252.571466 208.128 
L 252.896446 214.848 
L 253.221425 208.128 
L 253.546405 228.288 
L 253.871384 214.848 
L 254.846323 235.008 
L 255.171302 228.288 
L 255.496282 228.288 
L 255.821261 235.008 
L 256.146241 235.008 
L 256.47122 241.728 
L 257.771138 241.728 
L 258.096118 248.448 
L 258.421097 241.728 
L 258.746077 248.448 
L 259.071057 241.728 
L 259.396036 255.168 
L 259.721016 255.168 
L 260.045995 268.608 
L 260.370975 255.168 
L 261.670893 255.168 
L 261.995872 261.888 
L 263.945749 261.888 
L 264.270729 255.168 
L 264.595708 268.608 
L 264.920688 275.328 
L 265.570647 275.328 
L 265.895627 268.608 
L 266.220606 275.328 
L 267.195545 275.328 
L 267.520524 282.048 
L 267.845504 275.328 
L 268.495463 275.328 
L 268.820442 282.048 
L 269.145422 282.048 
L 269.470401 275.328 
L 269.795381 282.048 
L 270.44534 282.048 
L 270.770319 275.328 
L 271.095299 282.048 
L 271.420278 282.048 
L 272.070238 268.608 
L 272.720197 282.048 
L 273.370156 268.608 
L 274.345094 268.608 
L 274.670074 255.168 
L 274.995053 261.888 
L 275.320033 261.888 
L 275.645012 268.608 
L 275.969992 261.888 
L 276.294971 261.888 
L 276.619951 255.168 
L 276.94493 255.168 
L 277.26991 248.448 
L 277.594889 255.168 
L 278.244848 241.728 
L 278.894808 241.728 
L 279.219787 235.008 
L 279.544767 241.728 
L 279.869746 221.568 
L 280.194726 235.008 
L 280.519705 241.728 
L 280.844685 241.728 
L 281.169664 228.288 
L 281.819623 228.288 
L 282.144603 221.568 
L 282.469582 228.288 
L 282.794562 221.568 
L 283.119541 228.288 
L 283.444521 221.568 
L 284.09448 221.568 
L 284.419459 214.848 
L 284.744439 221.568 
L 285.069419 214.848 
L 285.394398 221.568 
L 286.044357 221.568 
L 286.369337 208.128 
L 286.694316 214.848 
L 287.019296 214.848 
L 287.344275 208.128 
L 287.669255 214.848 
L 287.994234 214.848 
L 288.644193 201.408 
L 288.969173 201.408 
L 289.294152 194.688 
L 289.619132 194.688 
L 289.944111 201.408 
L 290.269091 187.968 
L 290.59407 194.688 
L 291.244029 194.688 
L 291.893989 181.248 
L 292.543948 181.248 
L 292.868927 174.528 
L 293.518886 174.528 
L 294.168845 161.088 
L 294.493825 161.088 
L 294.818804 154.368 
L 295.143784 167.808 
L 295.468763 147.648 
L 295.793743 161.088 
L 296.118722 167.808 
L 296.768681 154.368 
L 297.41864 154.368 
L 297.74362 147.648 
L 298.718559 147.648 
L 299.368518 134.208 
L 299.693497 140.928 
L 300.018477 134.208 
L 300.343456 140.928 
L 300.668436 120.768 
L 300.993415 134.208 
L 301.643374 134.208 
L 302.293333 120.768 
L 302.618313 120.768 
L 302.943292 114.048 
L 303.918231 114.048 
L 304.24321 100.608 
L 304.56819 107.328 
L 304.89317 100.608 
L 305.218149 100.608 
L 305.543129 107.328 
L 305.868108 87.168 
L 306.193088 100.608 
L 306.518067 100.608 
L 306.843047 93.888 
L 307.168026 93.888 
L 307.493006 87.168 
L 308.792924 87.168 
L 309.117903 93.888 
L 309.442883 80.448 
L 309.767862 93.888 
L 310.092842 80.448 
L 310.417821 80.448 
L 310.742801 87.168 
L 311.067781 73.728 
L 311.39276 87.168 
L 312.042719 87.168 
L 312.692678 73.728 
L 313.342637 73.728 
L 313.667617 67.008 
L 313.992596 73.728 
L 314.317576 67.008 
L 315.292514 67.008 
L 315.617494 53.568 
L 315.942473 67.008 
L 316.267453 53.568 
L 316.592432 73.728 
L 316.917412 73.728 
L 317.242391 67.008 
L 317.567371 67.008 
L 317.892351 60.288 
L 318.21733 67.008 
L 318.54231 60.288 
L 318.867289 67.008 
L 319.842228 67.008 
L 320.167207 73.728 
L 320.817166 60.288 
L 321.142146 73.728 
L 321.467125 60.288 
L 321.792105 73.728 
L 322.442064 87.168 
L 322.767043 80.448 
L 323.092023 80.448 
L 323.417002 87.168 
L 324.391941 87.168 
L 324.716921 93.888 
L 325.0419 87.168 
L 325.36688 93.888 
L 326.016839 93.888 
L 326.341818 100.608 
L 326.666798 87.168 
L 326.991777 114.048 
L 327.316757 107.328 
L 327.641736 114.048 
L 327.966716 100.608 
L 328.616675 114.048 
L 328.941654 107.328 
L 329.591613 120.768 
L 329.916593 120.768 
L 330.241572 114.048 
L 330.566552 120.768 
L 330.891532 114.048 
L 331.216511 114.048 
L 331.541491 120.768 
L 331.86647 114.048 
L 332.19145 127.488 
L 332.516429 127.488 
L 332.841409 134.208 
L 333.166388 127.488 
L 334.466306 127.488 
L 334.791286 134.208 
L 335.116265 134.208 
L 335.441245 127.488 
L 335.766224 134.208 
L 336.091204 134.208 
L 336.416183 127.488 
L 336.741163 140.928 
L 337.066143 134.208 
L 337.391122 147.648 
L 337.716102 147.648 
L 338.041081 154.368 
L 338.366061 147.648 
L 338.69104 147.648 
L 339.01602 161.088 
L 339.665979 161.088 
L 339.990958 167.808 
L 341.615856 167.808 
L 341.940835 174.528 
L 342.590794 174.528 
L 342.915774 181.248 
L 343.240753 181.248 
L 343.565733 187.968 
L 343.890713 181.248 
L 344.215692 187.968 
L 344.865651 187.968 
L 345.190631 194.688 
L 345.51561 194.688 
L 345.84059 187.968 
L 346.165569 201.408 
L 346.490549 194.688 
L 346.815528 194.688 
L 347.140508 208.128 
L 347.465487 194.688 
L 348.115446 208.128 
L 348.440426 221.568 
L 348.765405 208.128 
L 349.090385 214.848 
L 349.415364 214.848 
L 349.740344 221.568 
L 350.390303 221.568 
L 350.715283 228.288 
L 352.015201 228.288 
L 352.34018 241.728 
L 352.66516 228.288 
L 353.315119 255.168 
L 353.965078 241.728 
L 354.290057 248.448 
L 354.615037 248.448 
L 354.940016 255.168 
L 355.264996 248.448 
L 355.914955 261.888 
L 356.239934 255.168 
L 357.214873 255.168 
L 357.539853 261.888 
L 357.864832 248.448 
L 358.189812 261.888 
L 358.514791 261.888 
L 358.839771 275.328 
L 359.48973 261.888 
L 359.814709 268.608 
L 360.789648 268.608 
L 361.114627 275.328 
L 361.764586 275.328 
L 362.089566 268.608 
L 362.414545 275.328 
L 362.739525 275.328 
L 363.064505 268.608 
L 363.389484 282.048 
L 365.014382 282.048 
L 365.339361 275.328 
L 365.664341 282.048 
L 366.964259 282.048 
L 367.289238 268.608 
L 367.614218 275.328 
L 367.939197 275.328 
L 368.264177 268.608 
L 368.914136 282.048 
L 369.239115 275.328 
L 369.564095 275.328 
L 369.889075 268.608 
L 370.539034 268.608 
L 370.864013 261.888 
L 371.188993 268.608 
L 371.838952 255.168 
L 372.163931 261.888 
L 372.488911 261.888 
L 372.81389 248.448 
L 373.13887 255.168 
L 373.463849 241.728 
L 373.788829 248.448 
L 374.113808 248.448 
L 374.438788 255.168 
L 374.763767 241.728 
L 375.088747 235.008 
L 375.413726 235.008 
L 375.738706 241.728 
L 376.063686 241.728 
L 376.388665 228.288 
L 376.713645 235.008 
L 377.038624 228.288 
L 377.688583 228.288 
L 378.013563 221.568 
L 378.338542 228.288 
L 378.663522 214.848 
L 379.313481 228.288 
L 379.63846 228.288 
L 380.288419 214.848 
L 380.613399 221.568 
L 380.938378 214.848 
L 381.263358 221.568 
L 381.913317 221.568 
L 382.563276 208.128 
L 382.888256 208.128 
L 383.213235 201.408 
L 383.538215 214.848 
L 383.863194 194.688 
L 384.188174 208.128 
L 384.838133 208.128 
L 385.813071 187.968 
L 386.138051 194.688 
L 386.46303 187.968 
L 386.78801 194.688 
L 387.112989 194.688 
L 387.437969 181.248 
L 388.087928 181.248 
L 388.412907 174.528 
L 388.737887 174.528 
L 389.062867 161.088 
L 389.712826 174.528 
L 390.037805 174.528 
L 390.362785 161.088 
L 391.337723 161.088 
L 391.662703 154.368 
L 391.987682 161.088 
L 392.312662 161.088 
L 392.637641 154.368 
L 393.2876 154.368 
L 393.61258 147.648 
L 393.937559 154.368 
L 394.262539 140.928 
L 394.912498 154.368 
L 395.562457 140.928 
L 396.212416 140.928 
L 396.537396 134.208 
L 397.187355 134.208 
L 397.837314 120.768 
L 398.162293 120.768 
L 398.487273 114.048 
L 398.487273 114.048 
" clip-path="url(#p1a481d3c19)" style="fill: none; stroke: #ff7f0e; stroke-width: 1.5; stroke-linecap: square"/>
   </g>
   <g id="line2d_15">
    <path d="M 73.832727 149.995123 
L 76.757543 149.968243 
L 83.582113 150.015283 
L 86.831908 149.988403 
L 93.656478 149.954803 
L 101.455987 150.008563 
L 103.405864 150.028723 
L 106.655659 150.055603 
L 108.930516 150.042163 
L 110.880393 150.069043 
L 162.877117 149.961523 
L 167.101851 149.981683 
L 171.651564 149.968243 
L 174.90136 150.001843 
L 177.826175 150.022003 
L 398.487273 150.062323 
L 398.487273 150.062323 
" clip-path="url(#p1a481d3c19)" style="fill: none; stroke: #2ca02c; stroke-width: 1.5; stroke-linecap: square"/>
   </g>
   <g id="line2d_16">
    <path d="M 73.832727 142.027408 
L 80.332318 142.0516 
L 86.506929 142.043536 
L 95.281376 142.034128 
L 99.50611 142.028752 
L 109.255495 142.040848 
L 112.505291 142.061008 
L 118.354922 142.079824 
L 136.553776 142.036816 
L 167.75181 142.059664 
L 180.426011 142.012624 
L 187.575561 142.087888 
L 196.350008 142.04488 
L 200.249762 142.048912 
L 222.998329 142.06504 
L 225.598165 142.020688 
L 233.722654 142.05832 
L 237.947387 142.042192 
L 245.096937 142.059664 
L 247.696773 142.04488 
L 272.070238 142.052944 
L 279.219787 142.034128 
L 398.487273 142.028752 
L 398.487273 142.028752 
" clip-path="url(#p1a481d3c19)" style="fill: none; stroke: #d62728; stroke-width: 1.5; stroke-linecap: square"/>
   </g>
   <g id="patch_3">
    <path d="M 57.6 307.584 
L 57.6 41.472 
" style="fill: none; stroke: #000000; stroke-width: 0.8; stroke-linejoin: miter; stroke-linecap: square"/>
   </g>
   <g id="patch_4">
    <path d="M 414.72 307.584 
L 414.72 41.472 
" style="fill: none; stroke: #000000; stroke-width: 0.8; stroke-linejoin: miter; stroke-linecap: square"/>
   </g>
   <g id="patch_5">
    <path d="M 57.6 307.584 
L 414.72 307.584 
" style="fill: none; stroke: #000000; stroke-width: 0.8; stroke-linejoin: miter; stroke-linecap: square"/>
   </g>
   <g id="patch_6">
    <path d="M 57.6 41.472 
L 414.72 41.472 
" style="fill: none; stroke: #000000; stroke-width: 0.8; stroke-linejoin: miter; stroke-linecap: square"/>
   </g>
  </g>
 </g>
 <defs>
  <clipPath id="p1a481d3c19">
   <rect x="57.6" y="41.472" width="357.12" height="266.112"/>
  </clipPath>
 </defs>
</svg>
