<?xml version="1.0" encoding="utf-8" standalone="no"?>
<!DOCTYPE svg PUBLIC "-//W3C//DTD SVG 1.1//EN"
  "http://www.w3.org/Graphics/SVG/1.1/DTD/svg11.dtd">
<svg xmlns:xlink="http://www.w3.org/1999/xlink" width="460.8pt" height="345.6pt" viewBox="0 0 460.8 345.6" xmlns="http://www.w3.org/2000/svg" version="1.1">
 <metadata>
  <rdf:RDF xmlns:dc="http://purl.org/dc/elements/1.1/" xmlns:cc="http://creativecommons.org/ns#" xmlns:rdf="http://www.w3.org/1999/02/22-rdf-syntax-ns#">
   <cc:Work>
    <dc:type rdf:resource="http://purl.org/dc/dcmitype/StillImage"/>
    <dc:date>2025-12-23T02:04:25.372208</dc:date>
    <dc:format>image/svg+xml</dc:format>
    <dc:creator>
     <cc:Agent>
      <dc:title>Matplotlib v3.10.8, https://matplotlib.org/</dc:title>
     </cc:Agent>
    </dc:creator>
   </cc:Work>
  </rdf:RDF>
 </metadata>
 <defs>
  <style type="text/css">*{stroke-linejoin: round; stroke-linecap: butt}</style>
 </defs>
 <g id="figure_1">
  <g id="patch_1">
   <path d="M 0 345.6 
L 460.8 345.6 
L 460.8 0 
L 0 0 
z
" style="fill: #ffffff"/>
  </g>
  <g id="axes_1">
   <g id="patch_2">
    <path d="M 57.6 307.584 
L 414.72 307.584 
L 414.72 41.472 
L 57.6 41.472 
z
" style="fill: #ffffff"/>
   </g>
   <g id="matplotlib.axis_1">
    <g id="xtick_1">
     <g id="line2d_1">
      <defs>
       <path id="m884e1ad75b" d="M 0 0 
L 0 3.5 
" style="stroke: #000000; stroke-width: 0.8"/>
      </defs>
      <g>
       <use xlink:href="#m884e1ad75b" x="73.832727" y="307.584" style="stroke: #000000; stroke-width: 0.8"/>
      </g>
     </g>
     <g id="text_1">
      <!-- 0 -->
      <g transform="translate(70.651477 322.182437) scale(0.1 -0.1)">
       <defs>
        <path id="DejaVuSans-30" d="M 2034 4250 
Q 1547 4250 1301 3770 
Q 1056 3291 1056 2328 
Q 1056 1369 1301 889 
Q 1547 409 2034 409 
Q 2525 409 2770 889 
Q 3016 1369 3016 2328 
Q 3016 3291 2770 3770 
Q 2525 4250 2034 4250 
z
M 2034 4750 
Q 2819 4750 3233 4129 
Q 3647 3509 3647 2328 
Q 3647 1150 3233 529 
Q 2819 -91 2034 -91 
Q 1250 -91 836 529 
Q 422 1150 422 2328 
Q 422 3509 836 4129 
Q 1250 4750 2034 4750 
z
" transform="scale(0.015625)"/>
       </defs>
       <use xlink:href="#DejaVuSans-30"/>
      </g>
     </g>
    </g>
    <g id="xtick_2">
     <g id="line2d_2">
      <g>
       <use xlink:href="#m884e1ad75b" x="138.828632" y="307.584" style="stroke: #000000; stroke-width: 0.8"/>
      </g>
     </g>
     <g id="text_2">
      <!-- 1 -->
      <g transform="translate(135.647382 322.182437) scale(0.1 -0.1)">
       <defs>
        <path id="DejaVuSans-31" d="M 794 531 
L 1825 531 
L 1825 4091 
L 703 3866 
L 703 4441 
L 1819 4666 
L 2450 4666 
L 2450 531 
L 3481 531 
L 3481 0 
L 794 0 
L 794 531 
z
" transform="scale(0.015625)"/>
       </defs>
       <use xlink:href="#DejaVuSans-31"/>
      </g>
     </g>
    </g>
    <g id="xtick_3">
     <g id="line2d_3">
      <g>
       <use xlink:href="#m884e1ad75b" x="203.824537" y="307.584" style="stroke: #000000; stroke-width: 0.8"/>
      </g>
     </g>
     <g id="text_3">
      <!-- 2 -->
      <g transform="translate(200.643287 322.182437) scale(0.1 -0.1)">
       <defs>
        <path id="DejaVuSans-32" d="M 1228 531 
L 3431 531 
L 3431 0 
L 469 0 
L 469 531 
Q 828 903 1448 1529 
Q 2069 2156 2228 2338 
Q 2531 2678 2651 2914 
Q 2772 3150 2772 3378 
Q 2772 3750 2511 3984 
Q 2250 4219 1831 4219 
Q 1534 4219 1204 4116 
Q 875 4013 500 3803 
L 500 4441 
Q 881 4594 1212 4672 
Q 1544 4750 1819 4750 
Q 2544 4750 2975 4387 
Q 3406 4025 3406 3419 
Q 3406 3131 3298 2873 
Q 3191 2616 2906 2266 
Q 2828 2175 2409 1742 
Q 1991 1309 1228 531 
z
" transform="scale(0.015625)"/>
       </defs>
       <use xlink:href="#DejaVuSans-32"/>
      </g>
     </g>
    </g>
    <g id="xtick_4">
     <g id="line2d_4">
      <g>
       <use xlink:href="#m884e1ad75b" x="268.820442" y="307.584" style="stroke: #000000; stroke-width: 0.8"/>
      </g>
     </g>
     <g id="text_4">
      <!-- 3 -->
      <g transform="translate(265.639192 322.182437) scale(0.1 -0.1)">
       <defs>
        <path id="DejaVuSans-33" d="M 2597 2516 
Q 3050 2419 3304 2112 
Q 3559 1806 3559 1356 
Q 3559 666 3084 287 
Q 2609 -91 1734 -91 
Q 1441 -91 1130 -33 
Q 819 25 488 141 
L 488 750 
Q 750 597 1062 519 
Q 1375 441 1716 441 
Q 2309 441 2620 675 
Q 2931 909 2931 1356 
Q 2931 1769 2642 2001 
Q 2353 2234 1838 2234 
L 1294 2234 
L 1294 2753 
L 1863 2753 
Q 2328 2753 2575 2939 
Q 2822 3125 2822 3475 
Q 2822 3834 2567 4026 
Q 2313 4219 1838 4219 
Q 1578 4219 1281 4162 
Q 984 4106 628 3988 
L 628 4550 
Q 988 4650 1302 4700 
Q 1616 4750 1894 4750 
Q 2613 4750 3031 4423 
Q 3450 4097 3450 3541 
Q 3450 3153 3228 2886 
Q 3006 2619 2597 2516 
z
" transform="scale(0.015625)"/>
       </defs>
       <use xlink:href="#DejaVuSans-33"/>
      </g>
     </g>
    </g>
    <g id="xtick_5">
     <g id="line2d_5">
      <g>
       <use xlink:href="#m884e1ad75b" x="333.816347" y="307.584" style="stroke: #000000; stroke-width: 0.8"/>
      </g>
     </g>
     <g id="text_5">
      <!-- 4 -->
      <g transform="translate(330.635097 322.182437) scale(0.1 -0.1)">
       <defs>
        <path id="DejaVuSans-34" d="M 2419 4116 
L 825 1625 
L 2419 1625 
L 2419 4116 
z
M 2253 4666 
L 3047 4666 
L 3047 1625 
L 3713 1625 
L 3713 1100 
L 3047 1100 
L 3047 0 
L 2419 0 
L 2419 1100 
L 313 1100 
L 313 1709 
L 2253 4666 
z
" transform="scale(0.015625)"/>
       </defs>
       <use xlink:href="#DejaVuSans-34"/>
      </g>
     </g>
    </g>
    <g id="xtick_6">
     <g id="line2d_6">
      <g>
       <use xlink:href="#m884e1ad75b" x="398.812252" y="307.584" style="stroke: #000000; stroke-width: 0.8"/>
      </g>
     </g>
     <g id="text_6">
      <!-- 5 -->
      <g transform="translate(395.631002 322.182437) scale(0.1 -0.1)">
       <defs>
        <path id="DejaVuSans-35" d="M 691 4666 
L 3169 4666 
L 3169 4134 
L 1269 4134 
L 1269 2991 
Q 1406 3038 1543 3061 
Q 1681 3084 1819 3084 
Q 2600 3084 3056 2656 
Q 3513 2228 3513 1497 
Q 3513 744 3044 326 
Q 2575 -91 1722 -91 
Q 1428 -91 1123 -41 
Q 819 9 494 109 
L 494 744 
Q 775 591 1075 516 
Q 1375 441 1709 441 
Q 2250 441 2565 725 
Q 2881 1009 2881 1497 
Q 2881 1984 2565 2268 
Q 2250 2553 1709 2553 
Q 1456 2553 1204 2497 
Q 953 2441 691 2322 
L 691 4666 
z
" transform="scale(0.015625)"/>
       </defs>
       <use xlink:href="#DejaVuSans-35"/>
      </g>
     </g>
    </g>
    <g id="text_7">
     <!-- 1e−7 -->
     <g transform="translate(387.462188 334.860562) scale(0.1 -0.1)">
      <defs>
       <path id="DejaVuSans-65" d="M 3597 1894 
L 3597 1613 
L 953 1613 
Q 991 1019 1311 708 
Q 1631 397 2203 397 
Q 2534 397 2845 478 
Q 3156 559 3463 722 
L 3463 178 
Q 3153 47 2828 -22 
Q 2503 -91 2169 -91 
Q 1331 -91 842 396 
Q 353 884 353 1716 
Q 353 2575 817 3079 
Q 1281 3584 2069 3584 
Q 2775 3584 3186 3129 
Q 3597 2675 3597 1894 
z
M 3022 2063 
Q 3016 2534 2758 2815 
Q 2500 3097 2075 3097 
Q 1594 3097 1305 2825 
Q 1016 2553 972 2059 
L 3022 2063 
z
" transform="scale(0.015625)"/>
       <path id="DejaVuSans-2212" d="M 678 2272 
L 4684 2272 
L 4684 1741 
L 678 1741 
L 678 2272 
z
" transform="scale(0.015625)"/>
       <path id="DejaVuSans-37" d="M 525 4666 
L 3525 4666 
L 3525 4397 
L 1831 0 
L 1172 0 
L 2766 4134 
L 525 4134 
L 525 4666 
z
" transform="scale(0.015625)"/>
      </defs>
      <use xlink:href="#DejaVuSans-31"/>
      <use xlink:href="#DejaVuSans-65" transform="translate(63.623047 0)"/>
      <use xlink:href="#DejaVuSans-2212" transform="translate(125.146484 0)"/>
      <use xlink:href="#DejaVuSans-37" transform="translate(208.935547 0)"/>
     </g>
    </g>
   </g>
   <g id="matplotlib.axis_2">
    <g id="ytick_1">
     <g id="line2d_7">
      <defs>
       <path id="m247be0449c" d="M 0 0 
L -3.5 0 
" style="stroke: #000000; stroke-width: 0.8"/>
      </defs>
      <g>
       <use xlink:href="#m247be0449c" x="57.6" y="276.134416" style="stroke: #000000; stroke-width: 0.8"/>
      </g>
     </g>
     <g id="text_8">
      <!-- 0 -->
      <g transform="translate(44.2375 279.933635) scale(0.1 -0.1)">
       <use xlink:href="#DejaVuSans-30"/>
      </g>
     </g>
    </g>
    <g id="ytick_2">
     <g id="line2d_8">
      <g>
       <use xlink:href="#m247be0449c" x="57.6" y="237.427212" style="stroke: #000000; stroke-width: 0.8"/>
      </g>
     </g>
     <g id="text_9">
      <!-- 10 -->
      <g transform="translate(37.875 241.226431) scale(0.1 -0.1)">
       <use xlink:href="#DejaVuSans-31"/>
       <use xlink:href="#DejaVuSans-30" transform="translate(63.623047 0)"/>
      </g>
     </g>
    </g>
    <g id="ytick_3">
     <g id="line2d_9">
      <g>
       <use xlink:href="#m247be0449c" x="57.6" y="198.720008" style="stroke: #000000; stroke-width: 0.8"/>
      </g>
     </g>
     <g id="text_10">
      <!-- 20 -->
      <g transform="translate(37.875 202.519227) scale(0.1 -0.1)">
       <use xlink:href="#DejaVuSans-32"/>
       <use xlink:href="#DejaVuSans-30" transform="translate(63.623047 0)"/>
      </g>
     </g>
    </g>
    <g id="ytick_4">
     <g id="line2d_10">
      <g>
       <use xlink:href="#m247be0449c" x="57.6" y="160.012804" style="stroke: #000000; stroke-width: 0.8"/>
      </g>
     </g>
     <g id="text_11">
      <!-- 30 -->
      <g transform="translate(37.875 163.812023) scale(0.1 -0.1)">
       <use xlink:href="#DejaVuSans-33"/>
       <use xlink:href="#DejaVuSans-30" transform="translate(63.623047 0)"/>
      </g>
     </g>
    </g>
    <g id="ytick_5">
     <g id="line2d_11">
      <g>
       <use xlink:href="#m247be0449c" x="57.6" y="121.3056" style="stroke: #000000; stroke-width: 0.8"/>
      </g>
     </g>
     <g id="text_12">
      <!-- 40 -->
      <g transform="translate(37.875 125.104819) scale(0.1 -0.1)">
       <use xlink:href="#DejaVuSans-34"/>
       <use xlink:href="#DejaVuSans-30" transform="translate(63.623047 0)"/>
      </g>
     </g>
    </g>
    <g id="ytick_6">
     <g id="line2d_12">
      <g>
       <use xlink:href="#m247be0449c" x="57.6" y="82.598396" style="stroke: #000000; stroke-width: 0.8"/>
      </g>
     </g>
     <g id="text_13">
      <!-- 50 -->
      <g transform="translate(37.875 86.397615) scale(0.1 -0.1)">
       <use xlink:href="#DejaVuSans-35"/>
       <use xlink:href="#DejaVuSans-30" transform="translate(63.623047 0)"/>
      </g>
     </g>
    </g>
    <g id="ytick_7">
     <g id="line2d_13">
      <g>
       <use xlink:href="#m247be0449c" x="57.6" y="43.891192" style="stroke: #000000; stroke-width: 0.8"/>
      </g>
     </g>
     <g id="text_14">
      <!-- 60 -->
      <g transform="translate(37.875 47.690411) scale(0.1 -0.1)">
       <defs>
        <path id="DejaVuSans-36" d="M 2113 2584 
Q 1688 2584 1439 2293 
Q 1191 2003 1191 1497 
Q 1191 994 1439 701 
Q 1688 409 2113 409 
Q 2538 409 2786 701 
Q 3034 994 3034 1497 
Q 3034 2003 2786 2293 
Q 2538 2584 2113 2584 
z
M 3366 4563 
L 3366 3988 
Q 3128 4100 2886 4159 
Q 2644 4219 2406 4219 
Q 1781 4219 1451 3797 
Q 1122 3375 1075 2522 
Q 1259 2794 1537 2939 
Q 1816 3084 2150 3084 
Q 2853 3084 3261 2657 
Q 3669 2231 3669 1497 
Q 3669 778 3244 343 
Q 2819 -91 2113 -91 
Q 1303 -91 875 529 
Q 447 1150 447 2328 
Q 447 3434 972 4092 
Q 1497 4750 2381 4750 
Q 2619 4750 2861 4703 
Q 3103 4656 3366 4563 
z
" transform="scale(0.015625)"/>
       </defs>
       <use xlink:href="#DejaVuSans-36"/>
       <use xlink:href="#DejaVuSans-30" transform="translate(63.623047 0)"/>
      </g>
     </g>
    </g>
   </g>
   <g id="line2d_14">
    <path d="M 73.832727 257.022737 
L 74.482686 257.022737 
L 75.457625 256.296977 
L 76.107584 256.296977 
L 76.432563 256.538897 
L 76.757543 256.296977 
L 77.407502 256.780817 
L 77.732482 256.780817 
L 78.057461 257.022737 
L 78.382441 257.022737 
L 78.70742 257.264657 
L 79.0324 257.022737 
L 79.357379 257.022737 
L 79.682359 256.780817 
L 80.007338 256.780817 
L 80.332318 257.022737 
L 80.982277 257.022737 
L 81.307256 256.780817 
L 81.632236 256.780817 
L 81.957215 257.022737 
L 82.282195 257.022737 
L 82.607174 257.264657 
L 82.932154 257.022737 
L 83.257133 257.022737 
L 83.582113 256.780817 
L 83.907093 257.022737 
L 84.232072 256.538897 
L 84.557052 257.022737 
L 84.882031 256.780817 
L 85.85697 256.780817 
L 86.181949 257.022737 
L 86.506929 257.022737 
L 86.831908 257.264657 
L 87.156888 257.022737 
L 87.481867 257.022737 
L 87.806847 257.264657 
L 88.131826 257.022737 
L 88.456806 257.022737 
L 88.781785 256.780817 
L 89.106765 257.264657 
L 89.431744 257.264657 
L 89.756724 257.990417 
L 90.731663 263.796497 
L 91.056642 264.764177 
L 91.381622 266.215697 
L 93.006519 282.908177 
L 93.331499 283.875857 
L 93.656478 284.359697 
L 93.981458 284.117777 
L 94.306437 284.359697 
L 94.956396 282.666257 
L 96.256314 273.473297 
L 96.906274 273.957137 
L 97.231253 273.715217 
L 97.881212 271.537937 
L 98.206192 271.779857 
L 98.856151 275.408657 
L 99.18113 276.134417 
L 99.50611 275.892497 
L 99.831089 275.166737 
L 100.156069 276.376337 
L 100.481048 278.069777 
L 100.806028 279.037457 
L 101.131007 278.553617 
L 101.780966 276.134417 
L 102.105946 276.376337 
L 102.430925 277.344017 
L 102.755905 277.827857 
L 103.080885 276.860177 
L 103.405864 275.408657 
L 103.730844 274.924817 
L 104.380803 275.892497 
L 104.705782 276.134417 
L 105.030762 275.166737 
L 105.355741 274.924817 
L 105.680721 275.408657 
L 106.0057 276.376337 
L 106.33068 276.860177 
L 106.980639 275.650577 
L 107.305618 275.650577 
L 107.955577 277.585937 
L 108.280557 277.344017 
L 108.605536 276.860177 
L 108.930516 276.134417 
L 109.255495 276.376337 
L 109.580475 276.376337 
L 109.905455 276.860177 
L 110.230434 276.376337 
L 110.555414 276.618257 
L 110.880393 276.376337 
L 111.205373 276.376337 
L 111.530352 276.134417 
L 112.180311 276.134417 
L 112.505291 275.892497 
L 112.83027 276.134417 
L 113.15525 276.618257 
L 113.480229 276.618257 
L 113.805209 276.376337 
L 114.130188 276.376337 
L 114.455168 276.134417 
L 114.780147 276.134417 
L 115.105127 276.618257 
L 115.430106 276.618257 
L 115.755086 276.376337 
L 116.405045 276.376337 
L 116.730025 276.134417 
L 117.055004 276.134417 
L 117.379984 276.618257 
L 117.704963 276.134417 
L 118.029943 276.134417 
L 118.354922 276.376337 
L 118.679902 276.376337 
L 119.004881 276.618257 
L 119.329861 276.376337 
L 119.65484 276.376337 
L 119.97982 276.134417 
L 120.304799 276.376337 
L 120.629779 276.134417 
L 120.954758 276.618257 
L 121.604717 276.618257 
L 121.929697 276.134417 
L 122.254676 275.892497 
L 122.579656 276.134417 
L 122.904636 276.134417 
L 123.229615 276.376337 
L 124.529533 276.376337 
L 124.854513 276.618257 
L 125.179492 276.134417 
L 125.504472 276.376337 
L 125.829451 276.134417 
L 126.154431 276.376337 
L 126.47941 276.376337 
L 126.80439 276.618257 
L 127.129369 276.134417 
L 127.454349 276.134417 
L 127.779328 276.376337 
L 129.404226 276.376337 
L 129.729206 276.134417 
L 130.054185 276.376337 
L 130.379165 276.134417 
L 130.704144 276.618257 
L 131.029124 276.134417 
L 131.354103 276.376337 
L 131.679083 276.376337 
L 132.004062 276.618257 
L 132.329042 276.134417 
L 132.654021 276.376337 
L 132.979001 276.376337 
L 133.30398 276.134417 
L 133.62896 276.376337 
L 133.953939 276.860177 
L 134.603898 276.376337 
L 135.253857 276.376337 
L 135.578837 276.134417 
L 135.903817 276.618257 
L 136.228796 276.134417 
L 136.553776 276.376337 
L 136.878755 276.376337 
L 137.203735 276.618257 
L 137.853694 276.134417 
L 138.178673 276.376337 
L 138.503653 276.134417 
L 139.153612 276.618257 
L 139.478591 276.618257 
L 139.803571 276.376337 
L 140.778509 276.376337 
L 141.103489 276.618257 
L 141.428468 276.376337 
L 142.728387 276.376337 
L 143.053366 276.134417 
L 143.378346 276.376337 
L 143.703325 276.376337 
L 144.028305 276.618257 
L 145.003243 276.618257 
L 145.328223 276.860177 
L 145.653202 276.860177 
L 145.978182 276.376337 
L 146.303161 276.618257 
L 147.928059 276.618257 
L 148.253038 276.860177 
L 148.578018 276.618257 
L 148.902998 276.860177 
L 149.552957 276.860177 
L 149.877936 277.102097 
L 150.527895 277.102097 
L 150.852875 277.344017 
L 151.177854 277.102097 
L 151.502834 277.102097 
L 152.477772 277.827857 
L 152.802752 277.827857 
L 153.127731 277.585937 
L 153.77769 275.892497 
L 154.752629 270.328337 
L 155.727568 262.586897 
L 156.377527 259.441937 
L 156.702506 259.441937 
L 157.677445 256.780817 
L 158.327404 255.813137 
L 158.977363 255.329297 
L 159.302342 254.603537 
L 159.627322 254.361617 
L 160.60226 254.361617 
L 160.92724 254.603537 
L 161.252219 255.087377 
L 161.577199 255.329297 
L 161.902179 256.055057 
L 162.552138 256.538897 
L 162.877117 257.022737 
L 163.527076 257.506577 
L 163.852056 257.506577 
L 164.177035 257.748497 
L 164.502015 257.506577 
L 165.476953 258.232337 
L 165.801933 257.990417 
L 166.451892 257.990417 
L 166.776871 257.748497 
L 167.101851 258.232337 
L 167.42683 257.506577 
L 168.07679 257.022737 
L 168.401769 257.022737 
L 168.726749 257.264657 
L 169.376708 257.264657 
L 169.701687 257.022737 
L 170.351646 257.022737 
L 170.676626 257.264657 
L 171.326585 256.296977 
L 171.651564 256.538897 
L 171.976544 256.296977 
L 172.301523 256.780817 
L 172.626503 256.538897 
L 172.951482 256.538897 
L 173.276462 256.780817 
L 173.601441 256.780817 
L 173.926421 257.264657 
L 174.57638 257.264657 
L 174.90136 256.780817 
L 175.226339 257.022737 
L 175.551319 256.780817 
L 175.876298 257.022737 
L 176.526257 257.022737 
L 176.851237 257.264657 
L 177.176216 256.780817 
L 177.501196 257.264657 
L 177.826175 257.022737 
L 178.151155 257.264657 
L 178.476134 257.022737 
L 179.126093 257.022737 
L 179.451073 257.264657 
L 179.776052 257.264657 
L 180.101032 256.780817 
L 180.426011 257.022737 
L 180.750991 256.780817 
L 181.40095 257.264657 
L 182.050909 257.264657 
L 182.375889 256.780817 
L 182.700868 257.022737 
L 183.025848 256.780817 
L 183.350827 256.780817 
L 183.675807 257.022737 
L 184.000786 256.780817 
L 184.325766 257.022737 
L 184.975725 257.022737 
L 185.300704 257.264657 
L 185.625684 258.232337 
L 187.250581 266.457617 
L 187.575561 269.360657 
L 188.5505 280.730897 
L 188.875479 282.666257 
L 189.200459 283.875857 
L 189.525438 284.117777 
L 189.850418 284.117777 
L 190.175397 284.359697 
L 190.825356 282.666257 
L 192.125274 273.473297 
L 192.450254 273.473297 
L 192.775233 273.715217 
L 193.100213 273.715217 
L 193.750172 271.537937 
L 194.075152 272.263697 
L 195.05009 276.134417 
L 195.37507 275.892497 
L 195.700049 275.408657 
L 196.025029 276.376337 
L 196.674988 279.279377 
L 196.999967 279.037457 
L 197.324947 277.344017 
L 197.649926 276.376337 
L 197.974906 276.376337 
L 198.299885 277.585937 
L 198.624865 277.827857 
L 198.949844 276.860177 
L 199.274824 275.408657 
L 199.599803 274.924817 
L 200.249762 276.134417 
L 200.574742 276.134417 
L 200.899722 275.166737 
L 201.224701 274.682897 
L 201.549681 275.408657 
L 201.87466 276.618257 
L 202.19964 276.860177 
L 202.524619 276.134417 
L 203.174578 275.650577 
L 203.499558 276.860177 
L 203.824537 277.344017 
L 204.149517 277.102097 
L 204.474496 276.376337 
L 204.799476 276.134417 
L 205.449435 276.618257 
L 205.774414 276.618257 
L 206.099394 276.376337 
L 207.724292 276.376337 
L 208.374251 275.892497 
L 209.349189 276.618257 
L 209.999148 276.134417 
L 210.324128 276.134417 
L 210.974087 276.618257 
L 211.949025 276.618257 
L 212.274005 276.376337 
L 212.598984 276.618257 
L 212.923964 276.376337 
L 213.248943 276.376337 
L 213.573923 276.134417 
L 213.898903 276.376337 
L 214.223882 276.134417 
L 214.548862 276.376337 
L 215.198821 276.376337 
L 215.5238 276.134417 
L 216.498739 276.134417 
L 216.823718 276.618257 
L 217.148698 276.618257 
L 217.473677 276.376337 
L 217.798657 276.376337 
L 218.123636 276.134417 
L 218.448616 276.376337 
L 218.773595 276.134417 
L 219.098575 276.618257 
L 219.423554 276.376337 
L 219.748534 276.376337 
L 220.073514 276.134417 
L 220.398493 276.134417 
L 220.723473 275.892497 
L 221.048452 276.134417 
L 221.698411 276.134417 
L 222.34837 276.618257 
L 222.998329 276.134417 
L 223.323309 276.134417 
L 223.648288 276.376337 
L 223.973268 276.134417 
L 224.298247 276.618257 
L 224.623227 276.376337 
L 224.948206 276.376337 
L 225.273186 276.134417 
L 225.598165 276.134417 
L 226.248124 276.618257 
L 226.573104 276.618257 
L 226.898084 276.376337 
L 227.548043 276.376337 
L 227.873022 276.618257 
L 228.198002 276.618257 
L 228.522981 276.376337 
L 228.847961 276.376337 
L 229.17294 276.134417 
L 229.49792 276.376337 
L 229.822899 276.134417 
L 230.147879 276.376337 
L 230.797838 276.376337 
L 231.122817 276.134417 
L 232.097756 276.134417 
L 232.747715 276.618257 
L 233.072695 276.618257 
L 233.397674 276.376337 
L 233.722654 276.376337 
L 234.047633 275.892497 
L 234.372613 276.134417 
L 234.697592 276.860177 
L 235.022572 276.376337 
L 235.347551 276.860177 
L 235.672531 276.376337 
L 235.99751 276.134417 
L 236.647469 276.618257 
L 236.972449 276.618257 
L 237.297428 276.376337 
L 237.947387 276.376337 
L 238.272367 276.618257 
L 238.597346 276.618257 
L 238.922326 276.376337 
L 239.247305 276.376337 
L 239.572285 276.134417 
L 239.897265 276.618257 
L 240.222244 276.618257 
L 240.547224 276.376337 
L 240.872203 276.618257 
L 241.197183 276.376337 
L 241.522162 276.376337 
L 241.847142 276.618257 
L 242.172121 276.618257 
L 242.497101 276.134417 
L 242.82208 276.618257 
L 243.14706 276.860177 
L 243.472039 276.618257 
L 243.797019 276.618257 
L 244.121998 276.860177 
L 244.771957 276.860177 
L 245.096937 277.344017 
L 245.421916 277.102097 
L 246.071876 277.102097 
L 246.396855 277.344017 
L 246.721835 277.102097 
L 247.371794 277.102097 
L 248.021753 277.585937 
L 248.346732 278.069777 
L 248.996691 277.585937 
L 249.321671 277.102097 
L 250.296609 272.263697 
L 251.921507 260.893457 
L 252.246486 259.683857 
L 252.571466 259.200017 
L 253.871384 256.296977 
L 254.196364 256.055057 
L 254.846323 255.087377 
L 255.171302 254.361617 
L 255.496282 254.361617 
L 255.821261 254.119697 
L 256.146241 254.361617 
L 256.47122 254.119697 
L 256.7962 254.603537 
L 257.121179 254.845457 
L 257.446159 255.329297 
L 257.771138 256.055057 
L 258.096118 256.055057 
L 258.421097 256.780817 
L 258.746077 257.022737 
L 259.071057 257.506577 
L 259.396036 257.748497 
L 259.721016 257.264657 
L 260.045995 257.506577 
L 260.370975 257.506577 
L 260.695954 257.748497 
L 261.020934 257.748497 
L 261.345913 257.990417 
L 261.670893 257.990417 
L 261.995872 257.748497 
L 262.320852 257.990417 
L 262.645831 257.748497 
L 262.970811 257.748497 
L 263.29579 257.506577 
L 263.62077 257.506577 
L 263.945749 257.022737 
L 264.270729 257.264657 
L 265.245667 257.264657 
L 265.570647 256.780817 
L 265.895627 257.264657 
L 266.220606 257.022737 
L 266.545586 257.022737 
L 266.870565 256.780817 
L 267.195545 256.780817 
L 267.520524 256.538897 
L 267.845504 256.780817 
L 268.170483 256.538897 
L 269.145422 256.538897 
L 269.470401 257.022737 
L 269.795381 257.264657 
L 270.44534 257.264657 
L 270.770319 257.022737 
L 271.095299 257.264657 
L 271.420278 256.538897 
L 271.745258 257.022737 
L 272.070238 256.780817 
L 272.395217 257.022737 
L 272.720197 256.780817 
L 273.045176 256.780817 
L 273.695135 257.264657 
L 274.020115 257.264657 
L 274.345094 257.022737 
L 274.995053 257.022737 
L 275.320033 257.264657 
L 275.645012 257.264657 
L 275.969992 256.780817 
L 276.294971 257.022737 
L 276.619951 256.538897 
L 276.94493 257.022737 
L 277.594889 257.022737 
L 277.919869 256.780817 
L 278.244848 256.780817 
L 278.569828 257.022737 
L 280.519705 257.022737 
L 280.844685 257.264657 
L 281.169664 257.022737 
L 281.494644 258.232337 
L 281.819623 259.925777 
L 282.144603 262.344977 
L 283.119541 266.699537 
L 283.444521 269.360657 
L 284.419459 280.488977 
L 284.744439 282.908177 
L 285.069419 283.875857 
L 285.394398 284.359697 
L 285.719378 283.875857 
L 286.044357 284.117777 
L 286.694316 282.666257 
L 287.344275 277.344017 
L 287.669255 274.199057 
L 287.994234 273.473297 
L 288.319214 273.473297 
L 288.644193 273.957137 
L 288.969173 273.473297 
L 289.294152 272.263697 
L 289.619132 271.537937 
L 289.944111 272.263697 
L 290.269091 273.473297 
L 290.59407 275.408657 
L 290.91905 276.376337 
L 291.244029 275.650577 
L 291.569009 275.408657 
L 291.893989 276.134417 
L 292.218968 278.069777 
L 292.543948 279.037457 
L 292.868927 278.795537 
L 293.518886 275.892497 
L 293.843866 276.376337 
L 294.168845 277.827857 
L 294.493825 277.827857 
L 294.818804 276.860177 
L 295.143784 275.408657 
L 295.468763 274.924817 
L 295.793743 275.408657 
L 296.118722 276.134417 
L 296.443702 275.892497 
L 296.768681 275.166737 
L 297.093661 275.166737 
L 297.41864 275.408657 
L 297.74362 276.376337 
L 298.0686 276.860177 
L 298.393579 276.376337 
L 298.718559 275.650577 
L 299.043538 275.892497 
L 299.693497 277.344017 
L 300.018477 277.344017 
L 300.668436 276.134417 
L 300.993415 276.134417 
L 301.318395 276.618257 
L 301.643374 276.860177 
L 301.968354 276.376337 
L 302.293333 276.376337 
L 302.618313 276.134417 
L 302.943292 276.376337 
L 303.268272 276.376337 
L 303.593251 276.134417 
L 303.918231 275.650577 
L 305.218149 276.618257 
L 305.543129 276.376337 
L 305.868108 276.376337 
L 306.193088 276.134417 
L 306.518067 276.376337 
L 307.168026 276.376337 
L 307.493006 276.618257 
L 307.817985 276.376337 
L 308.142965 276.376337 
L 308.792924 275.892497 
L 309.117903 276.376337 
L 309.767862 276.376337 
L 310.092842 276.134417 
L 310.742801 276.618257 
L 311.067781 276.376337 
L 311.39276 276.376337 
L 311.71774 276.134417 
L 312.367699 276.134417 
L 312.692678 276.860177 
L 313.017658 276.860177 
L 313.992596 276.134417 
L 314.642555 276.134417 
L 314.967535 276.376337 
L 315.292514 276.134417 
L 315.942473 276.618257 
L 316.267453 276.134417 
L 317.567371 276.134417 
L 317.892351 276.618257 
L 318.21733 276.376337 
L 318.54231 276.618257 
L 319.192269 276.134417 
L 319.517248 276.134417 
L 319.842228 276.618257 
L 320.167207 276.618257 
L 320.492187 276.134417 
L 320.817166 276.376337 
L 321.142146 276.376337 
L 321.467125 276.134417 
L 321.792105 276.618257 
L 322.117084 276.618257 
L 322.767043 276.134417 
L 323.092023 276.618257 
L 323.741982 276.618257 
L 324.066962 276.376337 
L 326.016839 276.376337 
L 326.341818 276.618257 
L 326.991777 276.618257 
L 327.316757 276.376337 
L 327.641736 276.618257 
L 327.966716 276.134417 
L 328.291695 276.860177 
L 328.941654 276.860177 
L 329.266634 276.376337 
L 329.591613 276.376337 
L 329.916593 276.134417 
L 330.566552 276.618257 
L 330.891532 276.376337 
L 331.216511 276.618257 
L 331.541491 276.618257 
L 332.19145 276.134417 
L 332.516429 276.618257 
L 332.841409 276.376337 
L 333.166388 276.376337 
L 333.491368 276.618257 
L 333.816347 276.134417 
L 334.141327 276.376337 
L 334.791286 276.376337 
L 335.116265 276.134417 
L 335.441245 276.618257 
L 335.766224 276.618257 
L 336.091204 276.376337 
L 336.416183 276.376337 
L 336.741163 276.618257 
L 338.041081 276.618257 
L 338.366061 276.376337 
L 338.69104 276.618257 
L 339.01602 276.618257 
L 339.340999 276.860177 
L 339.665979 276.376337 
L 340.315938 276.860177 
L 340.640917 276.860177 
L 340.965897 277.102097 
L 341.940835 277.102097 
L 342.265815 277.344017 
L 342.590794 277.344017 
L 342.915774 277.102097 
L 343.565733 277.102097 
L 343.890713 277.585937 
L 344.215692 277.585937 
L 344.540672 278.069777 
L 344.865651 277.585937 
L 345.190631 276.860177 
L 345.84059 274.199057 
L 346.490549 269.844497 
L 347.465487 262.828817 
L 348.115446 259.925777 
L 350.065324 255.813137 
L 350.390303 255.571217 
L 351.365242 254.119697 
L 352.015201 254.119697 
L 352.66516 254.603537 
L 353.315119 255.571217 
L 353.965078 256.055057 
L 354.290057 256.780817 
L 354.615037 256.780817 
L 354.940016 257.264657 
L 355.264996 257.264657 
L 355.914955 257.748497 
L 356.239934 257.506577 
L 356.564914 257.748497 
L 356.889894 257.748497 
L 357.214873 258.232337 
L 357.539853 257.990417 
L 358.514791 257.990417 
L 359.16475 257.506577 
L 359.48973 257.748497 
L 359.814709 257.264657 
L 361.764586 257.264657 
L 362.089566 257.022737 
L 362.414545 257.264657 
L 362.739525 256.538897 
L 363.714464 256.538897 
L 364.039443 256.296977 
L 364.689402 256.780817 
L 365.014382 256.538897 
L 365.339361 257.022737 
L 366.964259 257.022737 
L 367.289238 256.538897 
L 367.614218 257.022737 
L 367.939197 256.780817 
L 368.264177 257.022737 
L 368.589156 257.022737 
L 368.914136 256.780817 
L 369.239115 257.022737 
L 369.564095 256.780817 
L 369.889075 257.264657 
L 370.214054 256.780817 
L 370.539034 257.022737 
L 371.513972 257.022737 
L 371.838952 256.780817 
L 372.488911 256.780817 
L 372.81389 257.022737 
L 373.13887 256.780817 
L 373.788829 257.264657 
L 374.113808 257.022737 
L 374.438788 257.264657 
L 374.763767 256.780817 
L 375.088747 257.264657 
L 375.413726 256.780817 
L 375.738706 257.022737 
L 376.713645 257.022737 
L 377.038624 257.264657 
L 377.363604 257.990417 
L 377.688583 259.683857 
L 378.013563 262.344977 
L 378.663522 265.006097 
L 378.988501 266.457617 
L 379.63846 273.473297 
L 380.288419 280.730897 
L 380.613399 282.666257 
L 380.938378 283.875857 
L 381.263358 284.359697 
L 381.588337 284.117777 
L 381.913317 284.117777 
L 382.238296 283.633937 
L 382.563276 282.908177 
L 382.888256 280.488977 
L 383.213235 277.102097 
L 383.538215 274.924817 
L 383.863194 273.715217 
L 384.188174 273.715217 
L 384.513153 273.957137 
L 384.838133 273.715217 
L 385.163112 272.263697 
L 385.488092 271.779857 
L 385.813071 272.021777 
L 386.46303 275.166737 
L 386.78801 276.134417 
L 387.112989 275.892497 
L 387.437969 275.166737 
L 387.762948 276.134417 
L 388.412907 279.279377 
L 388.737887 278.795537 
L 389.387846 275.892497 
L 389.712826 276.134417 
L 390.037805 277.585937 
L 390.362785 277.585937 
L 390.687764 277.102097 
L 391.012744 275.166737 
L 391.337723 274.924817 
L 391.662703 275.408657 
L 391.987682 276.376337 
L 392.312662 276.134417 
L 392.637641 275.166737 
L 392.962621 274.924817 
L 393.937559 276.860177 
L 394.587518 275.650577 
L 395.237477 276.618257 
L 395.562457 277.585937 
L 395.887437 277.585937 
L 396.212416 276.376337 
L 396.537396 276.134417 
L 396.862375 276.376337 
L 397.187355 276.376337 
L 397.512334 276.618257 
L 397.837314 276.618257 
L 398.162293 276.376337 
L 398.487273 276.376337 
L 398.487273 276.376337 
" clip-path="url(#p6cf315fc4c)" style="fill: none; stroke: #1f77b4; stroke-width: 1.5; stroke-linecap: square"/>
   </g>
   <g id="line2d_15">
    <path d="M 73.832727 275.892497 
L 74.157707 275.892497 
L 74.482686 276.618257 
L 75.132645 276.618257 
L 75.457625 276.376337 
L 75.782604 276.618257 
L 76.757543 276.618257 
L 77.082523 276.376337 
L 77.732482 276.376337 
L 78.057461 276.618257 
L 78.382441 276.618257 
L 78.70742 276.134417 
L 79.357379 276.134417 
L 79.682359 276.618257 
L 80.007338 276.860177 
L 80.657297 276.376337 
L 80.982277 276.376337 
L 81.307256 276.618257 
L 81.632236 276.376337 
L 82.282195 276.376337 
L 82.607174 276.134417 
L 83.582113 276.860177 
L 83.907093 276.618257 
L 84.232072 276.134417 
L 84.557052 276.134417 
L 84.882031 276.618257 
L 85.85697 276.618257 
L 86.181949 276.376337 
L 86.506929 276.376337 
L 87.156888 276.860177 
L 87.481867 276.618257 
L 87.806847 276.134417 
L 88.781785 276.860177 
L 89.106765 276.618257 
L 89.431744 276.134417 
L 89.756724 276.376337 
L 90.081704 276.860177 
L 90.406683 276.860177 
L 90.731663 276.618257 
L 91.381622 276.618257 
L 91.706601 276.376337 
L 92.35656 276.860177 
L 93.006519 276.376337 
L 93.331499 276.618257 
L 93.656478 276.376337 
L 93.981458 276.618257 
L 94.306437 276.618257 
L 94.631417 276.376337 
L 95.281376 276.860177 
L 95.606355 276.618257 
L 95.931335 276.618257 
L 96.256314 276.376337 
L 96.581294 276.618257 
L 97.231253 276.618257 
L 97.556233 276.860177 
L 97.881212 276.376337 
L 98.206192 276.618257 
L 98.856151 276.618257 
L 99.18113 276.860177 
L 99.50611 276.618257 
L 100.156069 276.618257 
L 100.806028 277.102097 
L 101.131007 277.102097 
L 101.455987 276.860177 
L 101.780966 277.102097 
L 102.105946 277.102097 
L 102.755905 277.585937 
L 103.080885 277.344017 
L 103.405864 277.344017 
L 103.730844 277.102097 
L 104.055823 277.102097 
L 104.705782 278.311697 
L 105.030762 277.827857 
L 105.355741 278.069777 
L 105.680721 278.069777 
L 106.0057 277.827857 
L 106.655659 275.650577 
L 106.980639 273.957137 
L 108.930516 260.167697 
L 109.255495 259.683857 
L 109.580475 259.441937 
L 110.230434 257.022737 
L 110.555414 256.296977 
L 111.530352 255.571217 
L 112.180311 254.361617 
L 112.505291 254.119697 
L 112.83027 254.119697 
L 113.15525 254.361617 
L 113.480229 254.361617 
L 114.130188 254.845457 
L 115.105127 256.296977 
L 115.430106 256.296977 
L 115.755086 256.538897 
L 116.080066 257.022737 
L 117.055004 257.748497 
L 117.379984 257.506577 
L 117.704963 257.748497 
L 118.029943 257.748497 
L 118.354922 258.474257 
L 118.679902 258.232337 
L 119.004881 258.232337 
L 119.329861 257.990417 
L 119.65484 257.990417 
L 119.97982 258.232337 
L 120.304799 257.990417 
L 120.629779 257.506577 
L 122.254676 257.506577 
L 122.579656 257.748497 
L 122.904636 257.022737 
L 123.229615 257.022737 
L 123.554595 257.264657 
L 123.879574 256.780817 
L 124.204554 256.538897 
L 124.854513 256.538897 
L 125.179492 256.780817 
L 126.154431 256.780817 
L 126.47941 257.264657 
L 126.80439 257.022737 
L 127.129369 257.264657 
L 127.454349 257.022737 
L 127.779328 257.264657 
L 128.104308 256.780817 
L 128.429287 256.780817 
L 128.754267 257.022737 
L 129.404226 257.022737 
L 129.729206 257.264657 
L 130.054185 257.022737 
L 130.379165 257.264657 
L 130.704144 257.022737 
L 131.029124 257.022737 
L 131.354103 257.264657 
L 131.679083 257.264657 
L 132.004062 257.022737 
L 132.654021 257.022737 
L 132.979001 257.506577 
L 133.30398 257.022737 
L 133.62896 257.022737 
L 133.953939 257.264657 
L 134.278919 257.264657 
L 134.603898 257.022737 
L 134.928878 257.264657 
L 135.253857 257.022737 
L 135.578837 257.264657 
L 135.903817 257.264657 
L 136.228796 257.022737 
L 136.553776 257.264657 
L 136.878755 257.264657 
L 137.203735 257.022737 
L 137.528714 257.022737 
L 137.853694 257.506577 
L 138.178673 258.232337 
L 138.828632 261.377297 
L 139.478591 263.796497 
L 139.803571 265.731857 
L 140.45353 272.505617 
L 141.103489 280.488977 
L 141.428468 283.150097 
L 141.753448 284.843537 
L 142.078428 285.811217 
L 142.728387 286.778897 
L 143.053366 286.778897 
L 143.378346 285.569297 
L 143.703325 283.633937 
L 144.353284 277.102097 
L 144.678264 274.924817 
L 145.003243 274.440977 
L 145.328223 274.199057 
L 145.978182 272.021777 
L 146.303161 270.812177 
L 146.628141 270.328337 
L 147.2781 272.989457 
L 147.603079 273.715217 
L 147.928059 273.715217 
L 148.253038 273.957137 
L 148.578018 275.408657 
L 149.227977 279.037457 
L 149.552957 279.037457 
L 149.877936 277.827857 
L 150.202916 277.102097 
L 151.177854 280.005137 
L 151.502834 278.553617 
L 151.827813 276.376337 
L 152.152793 275.892497 
L 152.477772 276.376337 
L 152.802752 277.102097 
L 153.127731 276.618257 
L 153.452711 275.408657 
L 153.77769 274.924817 
L 154.427649 275.892497 
L 154.752629 275.892497 
L 155.077609 275.166737 
L 155.402588 274.924817 
L 155.727568 275.166737 
L 156.377527 277.585937 
L 156.702506 277.344017 
L 157.027486 275.892497 
L 157.352465 275.892497 
L 158.002424 277.827857 
L 158.327404 277.827857 
L 158.977363 276.376337 
L 159.302342 276.618257 
L 159.627322 277.102097 
L 159.952301 277.344017 
L 160.277281 276.376337 
L 160.60226 275.892497 
L 160.92724 275.892497 
L 161.577199 277.102097 
L 161.902179 276.860177 
L 162.227158 275.650577 
L 162.552138 275.408657 
L 162.877117 275.892497 
L 163.202097 276.618257 
L 163.527076 276.860177 
L 163.852056 276.618257 
L 164.177035 276.134417 
L 164.502015 276.134417 
L 165.151974 276.618257 
L 165.476953 276.618257 
L 165.801933 276.376337 
L 166.126912 276.376337 
L 166.451892 276.618257 
L 166.776871 277.102097 
L 167.101851 276.860177 
L 167.42683 276.134417 
L 167.75181 275.892497 
L 168.07679 275.892497 
L 168.726749 276.860177 
L 169.051728 276.860177 
L 169.701687 275.892497 
L 170.026667 275.650577 
L 170.351646 276.376337 
L 170.676626 276.618257 
L 171.001605 276.618257 
L 171.326585 276.376337 
L 172.301523 276.376337 
L 172.626503 276.134417 
L 172.951482 276.134417 
L 173.276462 276.376337 
L 173.601441 276.376337 
L 173.926421 276.860177 
L 174.2514 276.618257 
L 174.57638 276.618257 
L 174.90136 276.134417 
L 175.226339 276.134417 
L 175.876298 276.618257 
L 176.201278 276.618257 
L 176.851237 276.134417 
L 177.501196 276.618257 
L 177.826175 276.376337 
L 178.476134 276.376337 
L 178.801114 276.134417 
L 179.126093 276.618257 
L 179.776052 276.618257 
L 180.426011 276.134417 
L 181.075971 276.618257 
L 181.40095 276.618257 
L 181.72593 276.376337 
L 182.050909 276.618257 
L 182.375889 276.618257 
L 182.700868 276.860177 
L 183.350827 276.376337 
L 184.000786 276.376337 
L 184.325766 276.618257 
L 184.975725 276.618257 
L 185.300704 276.134417 
L 185.625684 276.134417 
L 186.600622 276.860177 
L 187.250581 276.376337 
L 187.900541 276.376337 
L 188.5505 276.860177 
L 189.200459 276.376337 
L 189.525438 276.618257 
L 189.850418 276.618257 
L 190.175397 276.860177 
L 190.825356 276.376337 
L 191.150336 276.376337 
L 191.475315 276.618257 
L 192.125274 276.618257 
L 192.450254 276.376337 
L 192.775233 276.860177 
L 193.100213 276.860177 
L 193.750172 276.376337 
L 194.075152 276.618257 
L 194.400131 276.618257 
L 195.05009 277.102097 
L 195.37507 276.618257 
L 195.700049 276.618257 
L 196.025029 276.376337 
L 196.350008 276.618257 
L 196.674988 276.618257 
L 196.999967 277.102097 
L 197.324947 277.102097 
L 197.649926 276.860177 
L 198.299885 277.344017 
L 199.274824 277.344017 
L 199.599803 277.102097 
L 200.249762 277.585937 
L 200.574742 278.069777 
L 200.899722 278.069777 
L 201.224701 277.827857 
L 201.549681 278.069777 
L 201.87466 277.827857 
L 202.524619 275.650577 
L 204.149517 264.038417 
L 204.799476 259.925777 
L 205.124455 259.441937 
L 205.449435 259.200017 
L 206.424373 256.055057 
L 207.074333 256.055057 
L 207.399312 255.813137 
L 208.049271 254.119697 
L 208.69923 254.119697 
L 209.349189 254.603537 
L 209.999148 254.603537 
L 210.649107 256.055057 
L 211.624046 256.780817 
L 211.949025 257.264657 
L 212.598984 257.748497 
L 213.248943 257.264657 
L 213.573923 257.748497 
L 214.548862 258.474257 
L 215.198821 257.990417 
L 215.5238 258.232337 
L 216.173759 258.232337 
L 216.498739 257.506577 
L 216.823718 257.506577 
L 217.148698 257.748497 
L 217.473677 257.506577 
L 218.123636 257.506577 
L 218.448616 257.264657 
L 219.098575 257.264657 
L 219.748534 256.780817 
L 220.073514 256.780817 
L 220.398493 256.296977 
L 220.723473 256.780817 
L 221.373432 256.780817 
L 221.698411 256.538897 
L 222.023391 256.780817 
L 222.34837 256.780817 
L 222.67335 257.022737 
L 223.323309 257.022737 
L 223.648288 256.538897 
L 223.973268 256.780817 
L 224.623227 256.780817 
L 225.273186 257.264657 
L 225.598165 257.022737 
L 225.923145 257.264657 
L 226.248124 257.264657 
L 226.573104 257.506577 
L 226.898084 257.264657 
L 227.223063 257.264657 
L 227.548043 257.022737 
L 228.522981 257.022737 
L 228.847961 256.780817 
L 229.17294 257.264657 
L 230.472858 257.264657 
L 230.797838 257.022737 
L 231.122817 257.264657 
L 231.447797 257.264657 
L 231.772776 257.506577 
L 232.097756 257.022737 
L 232.422735 257.022737 
L 232.747715 257.264657 
L 233.072695 257.022737 
L 233.397674 257.264657 
L 233.722654 257.748497 
L 234.047633 258.474257 
L 234.697592 261.377297 
L 235.347551 264.038417 
L 235.672531 265.973777 
L 235.99751 268.634897 
L 237.297428 283.392017 
L 237.947387 285.811217 
L 238.272367 286.295057 
L 238.922326 286.778897 
L 239.572285 283.392017 
L 240.222244 277.102097 
L 240.547224 275.166737 
L 241.847142 272.021777 
L 242.172121 270.812177 
L 242.497101 270.570257 
L 242.82208 271.537937 
L 243.14706 273.231377 
L 244.121998 273.957137 
L 245.096937 279.037457 
L 245.421916 278.795537 
L 245.746896 277.585937 
L 246.071876 277.102097 
L 247.046814 279.763217 
L 247.371794 278.795537 
L 247.696773 276.618257 
L 248.021753 275.892497 
L 248.346732 276.376337 
L 248.671712 276.618257 
L 248.996691 276.618257 
L 249.64665 274.682897 
L 250.296609 276.134417 
L 250.621589 275.892497 
L 251.271548 274.682897 
L 251.596527 275.408657 
L 252.246486 277.827857 
L 252.571466 277.585937 
L 252.896446 276.134417 
L 253.221425 275.650577 
L 253.871384 277.827857 
L 254.196364 277.827857 
L 254.846323 276.376337 
L 255.171302 276.376337 
L 255.496282 277.344017 
L 255.821261 277.344017 
L 256.47122 276.134417 
L 256.7962 275.892497 
L 257.121179 276.376337 
L 257.446159 277.102097 
L 257.771138 276.618257 
L 258.096118 275.892497 
L 258.421097 275.650577 
L 258.746077 275.892497 
L 259.396036 277.102097 
L 259.721016 276.860177 
L 260.045995 276.134417 
L 260.370975 276.134417 
L 261.020934 276.618257 
L 261.345913 276.618257 
L 261.670893 276.376337 
L 261.995872 276.376337 
L 262.970811 277.102097 
L 263.62077 275.892497 
L 264.270729 276.376337 
L 264.595708 277.102097 
L 264.920688 276.860177 
L 265.245667 276.134417 
L 266.220606 276.134417 
L 266.545586 276.618257 
L 266.870565 276.860177 
L 267.195545 276.376337 
L 267.520524 276.134417 
L 267.845504 276.376337 
L 268.170483 276.860177 
L 268.820442 276.376337 
L 269.470401 276.376337 
L 269.795381 276.860177 
L 270.12036 276.860177 
L 270.44534 276.376337 
L 270.770319 276.134417 
L 271.095299 276.376337 
L 271.420278 276.376337 
L 271.745258 276.860177 
L 272.395217 276.376337 
L 273.045176 276.376337 
L 273.370156 276.618257 
L 273.695135 276.618257 
L 274.020115 276.376337 
L 274.670074 276.376337 
L 275.320033 276.860177 
L 275.645012 276.376337 
L 275.969992 276.376337 
L 276.294971 276.134417 
L 276.619951 276.376337 
L 276.94493 276.860177 
L 277.26991 276.860177 
L 277.594889 276.376337 
L 277.919869 276.376337 
L 278.569828 276.860177 
L 279.219787 276.376337 
L 279.544767 276.376337 
L 280.519705 277.102097 
L 280.844685 276.376337 
L 281.169664 276.134417 
L 281.494644 276.134417 
L 281.819623 276.618257 
L 282.144603 276.860177 
L 282.469582 276.860177 
L 282.794562 276.376337 
L 283.444521 276.376337 
L 283.7695 276.618257 
L 284.419459 276.618257 
L 284.744439 276.376337 
L 285.394398 276.376337 
L 285.719378 276.860177 
L 286.044357 276.618257 
L 286.369337 276.860177 
L 287.019296 276.376337 
L 287.669255 276.860177 
L 287.994234 276.618257 
L 288.644193 276.618257 
L 288.969173 276.860177 
L 289.294152 276.860177 
L 289.619132 276.618257 
L 289.944111 276.618257 
L 290.269091 276.376337 
L 290.91905 276.860177 
L 291.244029 276.618257 
L 292.218968 276.618257 
L 292.543948 277.102097 
L 292.868927 277.344017 
L 293.193907 277.102097 
L 293.518886 276.618257 
L 293.843866 277.102097 
L 294.168845 277.344017 
L 294.818804 277.344017 
L 295.143784 277.102097 
L 295.793743 277.102097 
L 296.118722 277.827857 
L 296.443702 277.827857 
L 296.768681 278.069777 
L 297.41864 277.585937 
L 297.74362 277.585937 
L 298.0686 277.102097 
L 299.043538 271.537937 
L 300.668436 259.925777 
L 300.993415 259.683857 
L 301.318395 259.200017 
L 302.293333 256.055057 
L 302.618313 255.813137 
L 302.943292 255.813137 
L 303.268272 255.571217 
L 303.593251 255.087377 
L 303.918231 254.361617 
L 304.24321 254.119697 
L 304.56819 254.603537 
L 304.89317 254.361617 
L 305.218149 254.361617 
L 306.193088 255.087377 
L 306.518067 256.296977 
L 306.843047 256.296977 
L 307.168026 256.538897 
L 307.493006 256.538897 
L 307.817985 256.780817 
L 308.142965 257.506577 
L 308.467944 257.748497 
L 308.792924 257.748497 
L 309.117903 257.506577 
L 309.442883 257.748497 
L 309.767862 258.232337 
L 310.092842 258.474257 
L 310.417821 258.232337 
L 310.742801 258.232337 
L 311.067781 257.990417 
L 311.39276 257.990417 
L 311.71774 258.232337 
L 312.692678 257.506577 
L 313.342637 257.506577 
L 313.667617 257.748497 
L 314.317576 257.264657 
L 314.967535 257.264657 
L 315.617494 256.780817 
L 315.942473 256.780817 
L 316.267453 256.296977 
L 316.917412 256.780817 
L 318.21733 256.780817 
L 318.867289 257.264657 
L 319.192269 257.022737 
L 319.517248 257.022737 
L 319.842228 256.780817 
L 320.167207 257.022737 
L 320.817166 257.022737 
L 321.142146 257.264657 
L 323.092023 257.264657 
L 323.417002 257.022737 
L 323.741982 257.022737 
L 324.066962 257.264657 
L 324.391941 257.022737 
L 325.0419 257.022737 
L 325.36688 257.264657 
L 327.316757 257.264657 
L 327.641736 257.022737 
L 327.966716 257.022737 
L 328.291695 257.264657 
L 328.616675 257.022737 
L 328.941654 257.264657 
L 329.266634 257.264657 
L 329.591613 257.506577 
L 329.916593 258.474257 
L 331.541491 266.215697 
L 331.86647 268.876817 
L 333.166388 283.150097 
L 333.491368 284.843537 
L 334.466306 286.778897 
L 334.791286 286.295057 
L 335.116265 285.569297 
L 335.441245 283.392017 
L 336.091204 277.102097 
L 336.416183 274.924817 
L 337.066143 273.957137 
L 337.391122 273.231377 
L 338.041081 270.570257 
L 338.366061 270.570257 
L 339.01602 272.989457 
L 339.340999 273.715217 
L 339.665979 273.715217 
L 339.990958 273.957137 
L 340.315938 275.408657 
L 340.640917 277.827857 
L 340.965897 279.279377 
L 341.290876 278.795537 
L 341.615856 277.585937 
L 341.940835 277.102097 
L 342.265815 278.069777 
L 342.590794 279.521297 
L 342.915774 280.005137 
L 343.890713 275.650577 
L 344.215692 276.134417 
L 344.540672 277.102097 
L 344.865651 276.618257 
L 345.190631 275.408657 
L 345.51561 274.682897 
L 345.84059 275.166737 
L 346.165569 276.376337 
L 346.490549 276.134417 
L 346.815528 274.924817 
L 347.140508 274.682897 
L 347.465487 275.166737 
L 347.790467 276.860177 
L 348.115446 277.827857 
L 348.440426 277.344017 
L 348.765405 276.134417 
L 349.090385 275.650577 
L 349.740344 277.827857 
L 350.065324 278.069777 
L 350.715283 276.376337 
L 351.040262 276.376337 
L 351.365242 277.102097 
L 351.690221 277.344017 
L 352.34018 275.892497 
L 352.66516 275.892497 
L 353.315119 277.102097 
L 353.640098 276.618257 
L 354.290057 275.408657 
L 354.615037 275.650577 
L 354.940016 276.618257 
L 355.264996 277.102097 
L 355.589975 276.618257 
L 355.914955 275.892497 
L 356.239934 276.134417 
L 356.889894 277.102097 
L 357.214873 276.618257 
L 357.539853 276.376337 
L 357.864832 276.376337 
L 358.189812 276.618257 
L 358.514791 277.102097 
L 359.16475 276.618257 
L 359.48973 275.892497 
L 359.814709 275.892497 
L 360.139689 276.618257 
L 360.464668 276.860177 
L 360.789648 276.618257 
L 361.114627 276.134417 
L 361.439607 275.892497 
L 362.414545 276.618257 
L 362.739525 276.618257 
L 363.389484 276.134417 
L 363.714464 276.618257 
L 364.039443 276.376337 
L 364.364423 276.376337 
L 365.014382 275.892497 
L 365.339361 276.618257 
L 365.664341 276.860177 
L 365.98932 276.860177 
L 366.3143 276.618257 
L 366.639279 276.134417 
L 367.289238 276.618257 
L 367.614218 276.618257 
L 367.939197 276.860177 
L 368.264177 276.376337 
L 368.589156 276.376337 
L 368.914136 276.618257 
L 369.564095 276.618257 
L 369.889075 276.376337 
L 370.214054 275.892497 
L 370.539034 276.134417 
L 370.864013 276.860177 
L 371.188993 276.860177 
L 371.513972 276.376337 
L 372.163931 276.376337 
L 372.488911 276.618257 
L 374.763767 276.618257 
L 375.088747 276.376337 
L 375.413726 275.892497 
L 375.738706 276.618257 
L 376.063686 276.860177 
L 376.388665 276.860177 
L 377.038624 276.376337 
L 377.363604 276.618257 
L 377.688583 276.376337 
L 378.013563 276.618257 
L 378.988501 276.618257 
L 379.313481 276.376337 
L 379.96344 276.860177 
L 380.288419 276.376337 
L 380.613399 276.618257 
L 380.938378 276.134417 
L 381.263358 276.860177 
L 381.588337 276.618257 
L 382.238296 276.618257 
L 382.563276 276.860177 
L 382.888256 276.618257 
L 383.538215 276.618257 
L 383.863194 276.376337 
L 384.188174 276.860177 
L 384.513153 276.860177 
L 384.838133 276.618257 
L 385.163112 276.618257 
L 385.488092 276.376337 
L 385.813071 276.376337 
L 386.138051 276.860177 
L 386.46303 276.860177 
L 386.78801 277.102097 
L 387.112989 276.618257 
L 387.437969 276.618257 
L 388.087928 277.102097 
L 389.062867 277.102097 
L 389.387846 276.860177 
L 389.712826 277.344017 
L 390.037805 277.344017 
L 390.362785 277.585937 
L 391.012744 277.102097 
L 391.662703 277.585937 
L 391.987682 277.585937 
L 392.312662 278.069777 
L 392.637641 278.311697 
L 393.61258 277.585937 
L 393.937559 276.860177 
L 394.587518 273.473297 
L 395.562457 266.215697 
L 396.212416 261.135377 
L 396.537396 259.925777 
L 397.187355 258.958097 
L 398.162293 256.055057 
L 398.487273 255.813137 
L 398.487273 255.813137 
" clip-path="url(#p6cf315fc4c)" style="fill: none; stroke: #ff7f0e; stroke-width: 1.5; stroke-linecap: square"/>
   </g>
   <g id="line2d_16">
    <path d="M 73.832727 285.8112 
L 74.807666 285.8112 
L 75.132645 280.9728 
L 75.457625 283.392 
L 76.107584 278.5536 
L 76.432563 278.5536 
L 77.082523 283.392 
L 77.407502 280.9728 
L 77.732482 276.1344 
L 78.057461 280.9728 
L 78.382441 280.9728 
L 78.70742 285.8112 
L 79.357379 285.8112 
L 79.682359 283.392 
L 80.007338 283.392 
L 80.332318 278.5536 
L 80.982277 283.392 
L 81.632236 278.5536 
L 81.957215 283.392 
L 82.607174 283.392 
L 82.932154 280.9728 
L 83.257133 283.392 
L 84.232072 283.392 
L 84.557052 285.8112 
L 84.882031 283.392 
L 85.207011 283.392 
L 85.53199 280.9728 
L 86.181949 285.8112 
L 86.506929 280.9728 
L 87.156888 280.9728 
L 87.481867 283.392 
L 87.806847 283.392 
L 88.131826 278.5536 
L 88.456806 283.392 
L 88.781785 280.9728 
L 89.106765 280.9728 
L 89.756724 285.8112 
L 90.081704 283.392 
L 90.406683 283.392 
L 90.731663 280.9728 
L 91.381622 285.8112 
L 91.706601 283.392 
L 92.031581 278.5536 
L 92.35656 276.1344 
L 92.68154 271.296 
L 93.006519 264.0384 
L 93.981458 227.7504 
L 94.306437 222.912 
L 94.956396 232.5888 
L 95.281376 227.7504 
L 95.606355 210.816 
L 95.931335 184.2048 
L 96.256314 169.6896 
L 96.581294 172.1088 
L 96.906274 184.2048 
L 97.231253 186.624 
L 97.556233 179.3664 
L 98.206192 128.5632 
L 98.531171 118.8864 
L 99.18113 150.336 
L 99.50611 145.4976 
L 100.156069 94.6944 
L 100.481048 92.2752 
L 100.806028 109.2096 
L 101.131007 116.4672 
L 101.455987 109.2096 
L 102.105946 75.3408 
L 102.430925 82.5984 
L 102.755905 97.1136 
L 103.080885 97.1136 
L 103.730844 58.4064 
L 104.055823 60.8256 
L 104.705782 89.856 
L 105.030762 85.0176 
L 105.355741 65.664 
L 105.680721 55.9872 
L 106.0057 60.8256 
L 106.33068 70.5024 
L 106.655659 75.3408 
L 106.980639 72.9216 
L 107.305618 63.2448 
L 107.630598 63.2448 
L 107.955577 70.5024 
L 108.280557 72.9216 
L 108.605536 72.9216 
L 108.930516 65.664 
L 109.255495 63.2448 
L 109.905455 77.76 
L 110.230434 80.1792 
L 110.555414 75.3408 
L 110.880393 72.9216 
L 111.205373 72.9216 
L 111.530352 77.76 
L 111.855332 80.1792 
L 112.180311 85.0176 
L 112.505291 85.0176 
L 112.83027 82.5984 
L 113.480229 87.4368 
L 113.805209 92.2752 
L 114.130188 89.856 
L 114.780147 94.6944 
L 115.105127 94.6944 
L 115.430106 99.5328 
L 116.405045 99.5328 
L 116.730025 97.1136 
L 117.055004 99.5328 
L 117.379984 106.7904 
L 118.354922 99.5328 
L 119.004881 104.3712 
L 119.329861 101.952 
L 119.65484 106.7904 
L 119.97982 104.3712 
L 120.304799 106.7904 
L 121.279738 99.5328 
L 121.604717 101.952 
L 121.929697 101.952 
L 122.254676 99.5328 
L 122.579656 101.952 
L 123.554595 101.952 
L 123.879574 99.5328 
L 124.204554 94.6944 
L 124.529533 94.6944 
L 124.854513 97.1136 
L 125.179492 94.6944 
L 125.504472 94.6944 
L 126.47941 87.4368 
L 126.80439 89.856 
L 127.129369 87.4368 
L 127.454349 87.4368 
L 128.104308 82.5984 
L 128.429287 85.0176 
L 128.754267 85.0176 
L 129.079247 80.1792 
L 129.404226 80.1792 
L 129.729206 75.3408 
L 130.054185 80.1792 
L 130.704144 80.1792 
L 131.029124 77.76 
L 131.679083 77.76 
L 132.004062 80.1792 
L 132.329042 80.1792 
L 132.654021 77.76 
L 133.62896 77.76 
L 133.953939 80.1792 
L 134.278919 80.1792 
L 134.603898 82.5984 
L 134.928878 80.1792 
L 135.253857 87.4368 
L 135.903817 92.2752 
L 136.228796 92.2752 
L 136.553776 89.856 
L 136.878755 94.6944 
L 137.203735 101.952 
L 137.528714 101.952 
L 137.853694 104.3712 
L 138.178673 109.2096 
L 138.503653 109.2096 
L 139.803571 128.5632 
L 140.12855 126.144 
L 141.103489 145.4976 
L 141.753448 150.336 
L 142.403407 162.432 
L 142.728387 162.432 
L 143.378346 179.3664 
L 143.703325 179.3664 
L 144.028305 184.2048 
L 144.353284 193.8816 
L 144.678264 198.72 
L 145.328223 203.5584 
L 145.653202 218.0736 
L 145.978182 220.4928 
L 146.303161 227.7504 
L 146.628141 230.1696 
L 147.2781 242.2656 
L 147.928059 247.104 
L 148.902998 261.6192 
L 149.227977 261.6192 
L 149.877936 273.7152 
L 150.202916 278.5536 
L 150.527895 278.5536 
L 150.852875 280.9728 
L 151.177854 280.9728 
L 151.502834 285.8112 
L 152.802752 295.488 
L 153.127731 290.6496 
L 153.452711 290.6496 
L 153.77769 293.0688 
L 154.10267 293.0688 
L 154.427649 290.6496 
L 155.402588 290.6496 
L 155.727568 283.392 
L 156.052547 283.392 
L 156.377527 278.5536 
L 156.702506 280.9728 
L 157.027486 285.8112 
L 158.002424 285.8112 
L 158.327404 280.9728 
L 158.652383 283.392 
L 158.977363 288.2304 
L 159.302342 288.2304 
L 159.952301 283.392 
L 160.60226 283.392 
L 160.92724 280.9728 
L 161.252219 283.392 
L 161.577199 280.9728 
L 161.902179 280.9728 
L 162.552138 285.8112 
L 163.202097 285.8112 
L 163.527076 283.392 
L 164.502015 283.392 
L 164.826994 280.9728 
L 165.151974 283.392 
L 165.476953 283.392 
L 165.801933 285.8112 
L 166.126912 278.5536 
L 166.451892 283.392 
L 166.776871 280.9728 
L 167.101851 280.9728 
L 167.75181 285.8112 
L 168.401769 285.8112 
L 168.726749 280.9728 
L 169.051728 280.9728 
L 169.701687 285.8112 
L 170.026667 283.392 
L 170.351646 285.8112 
L 171.001605 285.8112 
L 171.326585 280.9728 
L 171.651564 283.392 
L 171.976544 280.9728 
L 172.301523 280.9728 
L 172.626503 283.392 
L 172.951482 283.392 
L 173.276462 280.9728 
L 173.601441 283.392 
L 173.926421 278.5536 
L 174.57638 283.392 
L 174.90136 288.2304 
L 175.226339 283.392 
L 176.201278 283.392 
L 176.526257 280.9728 
L 176.851237 283.392 
L 178.151155 283.392 
L 178.476134 285.8112 
L 179.126093 285.8112 
L 179.451073 283.392 
L 179.776052 285.8112 
L 180.101032 283.392 
L 180.426011 285.8112 
L 180.750991 285.8112 
L 181.075971 283.392 
L 181.40095 283.392 
L 181.72593 280.9728 
L 182.050909 288.2304 
L 182.375889 285.8112 
L 182.700868 285.8112 
L 183.025848 283.392 
L 183.675807 288.2304 
L 184.000786 285.8112 
L 184.325766 280.9728 
L 184.650745 280.9728 
L 185.300704 285.8112 
L 185.625684 283.392 
L 185.950663 285.8112 
L 186.275643 283.392 
L 186.600622 285.8112 
L 186.925602 283.392 
L 187.250581 283.392 
L 187.575561 285.8112 
L 188.5505 271.296 
L 189.200459 256.7808 
L 189.525438 237.4272 
L 189.850418 225.3312 
L 190.175397 222.912 
L 190.825356 232.5888 
L 191.150336 230.1696 
L 192.125274 167.2704 
L 192.450254 169.6896 
L 193.100213 191.4624 
L 193.425192 179.3664 
L 194.075152 126.144 
L 194.400131 123.7248 
L 194.725111 133.4016 
L 195.05009 150.336 
L 195.37507 147.9168 
L 196.025029 94.6944 
L 196.350008 92.2752 
L 196.999967 116.4672 
L 197.324947 109.2096 
L 197.974906 75.3408 
L 198.299885 82.5984 
L 198.624865 97.1136 
L 198.949844 97.1136 
L 199.599803 60.8256 
L 199.924783 58.4064 
L 200.574742 92.2752 
L 200.899722 85.0176 
L 201.224701 65.664 
L 201.549681 55.9872 
L 202.19964 77.76 
L 202.849599 72.9216 
L 203.174578 65.664 
L 203.499558 63.2448 
L 203.824537 70.5024 
L 204.149517 72.9216 
L 204.474496 70.5024 
L 204.799476 65.664 
L 205.124455 63.2448 
L 205.774414 80.1792 
L 206.099394 80.1792 
L 206.424373 72.9216 
L 206.749353 72.9216 
L 207.074333 75.3408 
L 207.399312 80.1792 
L 208.049271 85.0176 
L 208.374251 85.0176 
L 208.69923 82.5984 
L 209.999148 92.2752 
L 210.324128 89.856 
L 210.649107 89.856 
L 210.974087 92.2752 
L 211.299066 97.1136 
L 212.923964 97.1136 
L 213.248943 104.3712 
L 213.573923 106.7904 
L 213.898903 104.3712 
L 214.223882 99.5328 
L 214.548862 97.1136 
L 214.873841 99.5328 
L 215.198821 106.7904 
L 215.5238 104.3712 
L 215.84878 106.7904 
L 216.173759 106.7904 
L 216.498739 101.952 
L 216.823718 99.5328 
L 217.148698 104.3712 
L 217.473677 101.952 
L 217.798657 104.3712 
L 218.123636 97.1136 
L 218.448616 101.952 
L 218.773595 99.5328 
L 219.098575 101.952 
L 219.423554 97.1136 
L 220.073514 92.2752 
L 220.398493 97.1136 
L 221.698411 87.4368 
L 222.023391 87.4368 
L 222.34837 89.856 
L 222.67335 89.856 
L 223.323309 85.0176 
L 223.648288 85.0176 
L 223.973268 82.5984 
L 224.298247 87.4368 
L 224.623227 82.5984 
L 225.273186 77.76 
L 226.248124 77.76 
L 226.573104 80.1792 
L 226.898084 80.1792 
L 227.223063 75.3408 
L 227.548043 77.76 
L 227.873022 77.76 
L 228.198002 80.1792 
L 228.522981 75.3408 
L 228.847961 77.76 
L 229.17294 77.76 
L 229.822899 82.5984 
L 230.472858 82.5984 
L 230.797838 85.0176 
L 231.122817 85.0176 
L 231.447797 89.856 
L 231.772776 92.2752 
L 232.422735 92.2752 
L 232.747715 94.6944 
L 233.397674 104.3712 
L 233.722654 104.3712 
L 234.047633 109.2096 
L 234.372613 106.7904 
L 235.022572 118.8864 
L 235.347551 121.3056 
L 235.672531 126.144 
L 235.99751 133.4016 
L 236.32249 133.4016 
L 236.647469 135.8208 
L 236.972449 145.4976 
L 237.297428 145.4976 
L 237.622408 150.336 
L 238.597346 169.6896 
L 238.922326 169.6896 
L 239.247305 179.3664 
L 239.572285 181.7856 
L 240.222244 193.8816 
L 240.547224 196.3008 
L 241.197183 208.3968 
L 241.522162 208.3968 
L 242.82208 235.008 
L 243.14706 239.8464 
L 243.472039 242.2656 
L 243.797019 247.104 
L 244.121998 249.5232 
L 244.771957 261.6192 
L 245.421916 266.4576 
L 246.071876 276.1344 
L 246.396855 283.392 
L 246.721835 280.9728 
L 247.046814 280.9728 
L 247.371794 283.392 
L 247.696773 283.392 
L 248.021753 288.2304 
L 248.346732 290.6496 
L 248.996691 290.6496 
L 249.321671 288.2304 
L 249.64665 293.0688 
L 250.296609 293.0688 
L 250.621589 288.2304 
L 250.946568 290.6496 
L 251.271548 288.2304 
L 251.596527 288.2304 
L 251.921507 280.9728 
L 252.571466 280.9728 
L 252.896446 283.392 
L 253.221425 283.392 
L 253.546405 285.8112 
L 253.871384 283.392 
L 254.196364 283.392 
L 254.521343 280.9728 
L 254.846323 288.2304 
L 255.171302 285.8112 
L 256.146241 285.8112 
L 256.47122 283.392 
L 256.7962 285.8112 
L 257.121179 278.5536 
L 257.446159 278.5536 
L 258.096118 283.392 
L 258.421097 280.9728 
L 258.746077 280.9728 
L 259.071057 283.392 
L 259.721016 283.392 
L 260.045995 288.2304 
L 260.370975 285.8112 
L 260.695954 280.9728 
L 261.020934 278.5536 
L 261.345913 280.9728 
L 261.670893 278.5536 
L 261.995872 283.392 
L 262.645831 278.5536 
L 262.970811 278.5536 
L 263.29579 280.9728 
L 263.62077 280.9728 
L 263.945749 285.8112 
L 264.595708 280.9728 
L 264.920688 280.9728 
L 265.245667 283.392 
L 265.570647 283.392 
L 265.895627 285.8112 
L 266.220606 283.392 
L 266.545586 283.392 
L 266.870565 285.8112 
L 267.195545 285.8112 
L 267.520524 280.9728 
L 267.845504 278.5536 
L 268.170483 280.9728 
L 269.145422 280.9728 
L 269.470401 278.5536 
L 269.795381 280.9728 
L 270.12036 278.5536 
L 270.44534 285.8112 
L 270.770319 285.8112 
L 271.095299 288.2304 
L 271.420278 283.392 
L 271.745258 280.9728 
L 272.070238 280.9728 
L 272.395217 283.392 
L 272.720197 280.9728 
L 273.045176 280.9728 
L 273.370156 283.392 
L 273.695135 278.5536 
L 274.020115 280.9728 
L 274.345094 280.9728 
L 274.670074 285.8112 
L 274.995053 283.392 
L 275.320033 278.5536 
L 275.645012 283.392 
L 275.969992 283.392 
L 276.294971 285.8112 
L 276.619951 283.392 
L 277.26991 283.392 
L 277.594889 285.8112 
L 277.919869 280.9728 
L 278.244848 283.392 
L 278.569828 280.9728 
L 278.894808 280.9728 
L 279.544767 285.8112 
L 280.194726 285.8112 
L 280.519705 278.5536 
L 280.844685 283.392 
L 281.169664 283.392 
L 281.494644 285.8112 
L 281.819623 283.392 
L 282.469582 283.392 
L 282.794562 285.8112 
L 283.119541 283.392 
L 283.444521 283.392 
L 283.7695 280.9728 
L 284.09448 276.1344 
L 284.419459 266.4576 
L 284.744439 264.0384 
L 285.069419 254.3616 
L 285.719378 225.3312 
L 286.044357 220.4928 
L 286.694316 235.008 
L 287.019296 227.7504 
L 287.994234 172.1088 
L 288.319214 169.6896 
L 288.969173 191.4624 
L 289.294152 174.528 
L 289.944111 126.144 
L 290.269091 118.8864 
L 290.91905 147.9168 
L 291.244029 145.4976 
L 291.893989 97.1136 
L 292.218968 94.6944 
L 292.868927 114.048 
L 293.193907 109.2096 
L 293.518886 87.4368 
L 293.843866 75.3408 
L 294.493825 94.6944 
L 294.818804 92.2752 
L 295.468763 60.8256 
L 295.793743 63.2448 
L 296.118722 72.9216 
L 296.443702 89.856 
L 296.768681 82.5984 
L 297.093661 65.664 
L 297.41864 55.9872 
L 297.74362 60.8256 
L 298.0686 72.9216 
L 298.393579 77.76 
L 298.718559 65.664 
L 299.043538 60.8256 
L 299.368518 63.2448 
L 299.693497 68.0832 
L 300.018477 70.5024 
L 300.343456 70.5024 
L 300.668436 65.664 
L 300.993415 65.664 
L 301.318395 70.5024 
L 301.643374 77.76 
L 301.968354 77.76 
L 302.293333 75.3408 
L 302.618313 70.5024 
L 302.943292 70.5024 
L 303.593251 82.5984 
L 303.918231 82.5984 
L 304.24321 85.0176 
L 304.56819 85.0176 
L 304.89317 82.5984 
L 305.218149 82.5984 
L 305.543129 89.856 
L 305.868108 89.856 
L 306.193088 92.2752 
L 306.518067 87.4368 
L 306.843047 94.6944 
L 307.493006 99.5328 
L 307.817985 99.5328 
L 308.142965 97.1136 
L 308.467944 97.1136 
L 309.442883 104.3712 
L 309.767862 104.3712 
L 310.417821 94.6944 
L 311.067781 104.3712 
L 312.042719 104.3712 
L 312.367699 101.952 
L 313.342637 101.952 
L 313.667617 99.5328 
L 313.992596 101.952 
L 314.317576 99.5328 
L 314.642555 99.5328 
L 314.967535 101.952 
L 315.292514 97.1136 
L 315.617494 94.6944 
L 316.267453 94.6944 
L 316.592432 97.1136 
L 316.917412 94.6944 
L 317.242391 94.6944 
L 317.567371 89.856 
L 317.892351 92.2752 
L 318.21733 92.2752 
L 318.54231 87.4368 
L 319.192269 87.4368 
L 319.517248 82.5984 
L 319.842228 80.1792 
L 320.167207 85.0176 
L 320.817166 80.1792 
L 321.792105 80.1792 
L 322.117084 77.76 
L 322.442064 80.1792 
L 322.767043 77.76 
L 323.741982 77.76 
L 324.066962 80.1792 
L 324.391941 80.1792 
L 324.716921 75.3408 
L 325.0419 77.76 
L 325.36688 77.76 
L 325.691859 80.1792 
L 326.341818 80.1792 
L 327.316757 87.4368 
L 327.641736 92.2752 
L 328.291695 92.2752 
L 328.616675 94.6944 
L 328.941654 94.6944 
L 329.591613 106.7904 
L 329.916593 104.3712 
L 330.566552 114.048 
L 330.891532 116.4672 
L 331.216511 121.3056 
L 331.541491 130.9824 
L 332.516429 138.24 
L 333.166388 147.9168 
L 333.491368 155.1744 
L 334.141327 160.0128 
L 334.791286 172.1088 
L 335.116265 174.528 
L 335.441245 184.2048 
L 335.766224 186.624 
L 336.091204 193.8816 
L 336.416183 196.3008 
L 336.741163 201.1392 
L 337.391122 215.6544 
L 337.716102 218.0736 
L 338.041081 222.912 
L 338.69104 235.008 
L 339.01602 239.8464 
L 339.340999 242.2656 
L 339.990958 254.3616 
L 340.315938 254.3616 
L 340.640917 259.2 
L 340.965897 266.4576 
L 341.290876 266.4576 
L 341.615856 268.8768 
L 341.940835 276.1344 
L 342.590794 280.9728 
L 342.915774 278.5536 
L 343.890713 293.0688 
L 344.865651 293.0688 
L 345.190631 295.488 
L 345.51561 288.2304 
L 345.84059 290.6496 
L 346.165569 290.6496 
L 346.815528 285.8112 
L 347.140508 288.2304 
L 347.465487 283.392 
L 347.790467 283.392 
L 348.115446 276.1344 
L 348.440426 280.9728 
L 349.090385 285.8112 
L 349.415364 283.392 
L 349.740344 283.392 
L 350.065324 280.9728 
L 350.390303 285.8112 
L 350.715283 285.8112 
L 351.040262 288.2304 
L 351.365242 285.8112 
L 351.690221 280.9728 
L 352.34018 280.9728 
L 352.66516 283.392 
L 352.990139 283.392 
L 353.315119 278.5536 
L 354.290057 285.8112 
L 354.940016 285.8112 
L 355.264996 283.392 
L 355.589975 285.8112 
L 355.914955 283.392 
L 356.239934 283.392 
L 356.889894 278.5536 
L 357.214873 280.9728 
L 357.539853 285.8112 
L 357.864832 285.8112 
L 358.189812 280.9728 
L 358.514791 273.7152 
L 358.839771 278.5536 
L 359.16475 278.5536 
L 359.814709 283.392 
L 360.139689 283.392 
L 360.464668 280.9728 
L 360.789648 285.8112 
L 361.114627 280.9728 
L 361.439607 280.9728 
L 361.764586 283.392 
L 362.089566 283.392 
L 362.414545 285.8112 
L 363.064505 285.8112 
L 363.389484 283.392 
L 363.714464 276.1344 
L 364.039443 278.5536 
L 365.339361 278.5536 
L 365.98932 283.392 
L 366.3143 283.392 
L 366.639279 285.8112 
L 366.964259 285.8112 
L 367.614218 280.9728 
L 368.264177 285.8112 
L 368.589156 285.8112 
L 368.914136 280.9728 
L 369.239115 278.5536 
L 369.564095 278.5536 
L 370.214054 283.392 
L 370.539034 283.392 
L 370.864013 280.9728 
L 371.188993 283.392 
L 371.513972 278.5536 
L 372.163931 283.392 
L 372.488911 283.392 
L 372.81389 280.9728 
L 373.13887 280.9728 
L 373.463849 288.2304 
L 373.788829 288.2304 
L 374.113808 278.5536 
L 374.438788 280.9728 
L 374.763767 280.9728 
L 375.088747 285.8112 
L 375.738706 285.8112 
L 376.063686 283.392 
L 376.388665 283.392 
L 376.713645 278.5536 
L 377.038624 283.392 
L 377.363604 285.8112 
L 378.013563 280.9728 
L 378.338542 283.392 
L 378.663522 283.392 
L 378.988501 285.8112 
L 379.313481 278.5536 
L 379.63846 280.9728 
L 380.613399 266.4576 
L 381.913317 218.0736 
L 382.563276 232.5888 
L 382.888256 227.7504 
L 383.863194 172.1088 
L 384.188174 172.1088 
L 384.513153 179.3664 
L 384.838133 193.8816 
L 385.163112 181.7856 
L 385.813071 126.144 
L 386.138051 123.7248 
L 386.78801 150.336 
L 387.112989 145.4976 
L 387.762948 97.1136 
L 388.087928 89.856 
L 388.737887 116.4672 
L 389.062867 109.2096 
L 389.712826 75.3408 
L 390.362785 94.6944 
L 390.687764 97.1136 
L 391.337723 60.8256 
L 391.662703 63.2448 
L 392.312662 87.4368 
L 392.637641 80.1792 
L 393.2876 53.568 
L 393.61258 58.4064 
L 393.937559 72.9216 
L 394.262539 77.76 
L 394.587518 75.3408 
L 394.912498 60.8256 
L 395.237477 58.4064 
L 395.887437 75.3408 
L 396.212416 72.9216 
L 396.537396 68.0832 
L 396.862375 68.0832 
L 397.512334 77.76 
L 397.837314 80.1792 
L 398.162293 77.76 
L 398.487273 70.5024 
L 398.487273 70.5024 
" clip-path="url(#p6cf315fc4c)" style="fill: none; stroke: #2ca02c; stroke-width: 1.5; stroke-linecap: square"/>
   </g>
   <g id="patch_3">
    <path d="M 57.6 307.584 
L 57.6 41.472 
" style="fill: none; stroke: #000000; stroke-width: 0.8; stroke-linejoin: miter; stroke-linecap: square"/>
   </g>
   <g id="patch_4">
    <path d="M 414.72 307.584 
L 414.72 41.472 
" style="fill: none; stroke: #000000; stroke-width: 0.8; stroke-linejoin: miter; stroke-linecap: square"/>
   </g>
   <g id="patch_5">
    <path d="M 57.6 307.584 
L 414.72 307.584 
" style="fill: none; stroke: #000000; stroke-width: 0.8; stroke-linejoin: miter; stroke-linecap: square"/>
   </g>
   <g id="patch_6">
    <path d="M 57.6 41.472 
L 414.72 41.472 
" style="fill: none; stroke: #000000; stroke-width: 0.8; stroke-linejoin: miter; stroke-linecap: square"/>
   </g>
  </g>
 </g>
 <defs>
  <clipPath id="p6cf315fc4c">
   <rect x="57.6" y="41.472" width="357.12" height="266.112"/>
  </clipPath>
 </defs>
</svg>
