<?xml version="1.0" encoding="utf-8" standalone="no"?>
<!DOCTYPE svg PUBLIC "-//W3C//DTD SVG 1.1//EN"
  "http://www.w3.org/Graphics/SVG/1.1/DTD/svg11.dtd">
<svg xmlns:xlink="http://www.w3.org/1999/xlink" width="460.8pt" height="345.6pt" viewBox="0 0 460.8 345.6" xmlns="http://www.w3.org/2000/svg" version="1.1">
 <metadata>
  <rdf:RDF xmlns:dc="http://purl.org/dc/elements/1.1/" xmlns:cc="http://creativecommons.org/ns#" xmlns:rdf="http://www.w3.org/1999/02/22-rdf-syntax-ns#">
   <cc:Work>
    <dc:type rdf:resource="http://purl.org/dc/dcmitype/StillImage"/>
    <dc:date>2025-12-26T14:27:45.996585</dc:date>
    <dc:format>image/svg+xml</dc:format>
    <dc:creator>
     <cc:Agent>
      <dc:title>Matplotlib v3.10.8, https://matplotlib.org/</dc:title>
     </cc:Agent>
    </dc:creator>
   </cc:Work>
  </rdf:RDF>
 </metadata>
 <defs>
  <style type="text/css">*{stroke-linejoin: round; stroke-linecap: butt}</style>
 </defs>
 <g id="figure_1">
  <g id="patch_1">
   <path d="M 0 345.6 
L 460.8 345.6 
L 460.8 0 
L 0 0 
z
" style="fill: #ffffff"/>
  </g>
  <g id="axes_1">
   <g id="patch_2">
    <path d="M 57.6 307.584 
L 414.72 307.584 
L 414.72 41.472 
L 57.6 41.472 
z
" style="fill: #ffffff"/>
   </g>
   <g id="matplotlib.axis_1">
    <g id="xtick_1">
     <g id="line2d_1">
      <defs>
       <path id="me572ba384f" d="M 0 0 
L 0 3.5 
" style="stroke: #000000; stroke-width: 0.8"/>
      </defs>
      <g>
       <use xlink:href="#me572ba384f" x="73.832727" y="307.584" style="stroke: #000000; stroke-width: 0.8"/>
      </g>
     </g>
     <g id="text_1">
      <!-- 0 -->
      <g transform="translate(70.651477 322.182437) scale(0.1 -0.1)">
       <defs>
        <path id="DejaVuSans-30" d="M 2034 4250 
Q 1547 4250 1301 3770 
Q 1056 3291 1056 2328 
Q 1056 1369 1301 889 
Q 1547 409 2034 409 
Q 2525 409 2770 889 
Q 3016 1369 3016 2328 
Q 3016 3291 2770 3770 
Q 2525 4250 2034 4250 
z
M 2034 4750 
Q 2819 4750 3233 4129 
Q 3647 3509 3647 2328 
Q 3647 1150 3233 529 
Q 2819 -91 2034 -91 
Q 1250 -91 836 529 
Q 422 1150 422 2328 
Q 422 3509 836 4129 
Q 1250 4750 2034 4750 
z
" transform="scale(0.015625)"/>
       </defs>
       <use xlink:href="#DejaVuSans-30"/>
      </g>
     </g>
    </g>
    <g id="xtick_2">
     <g id="line2d_2">
      <g>
       <use xlink:href="#me572ba384f" x="138.828632" y="307.584" style="stroke: #000000; stroke-width: 0.8"/>
      </g>
     </g>
     <g id="text_2">
      <!-- 1 -->
      <g transform="translate(135.647382 322.182437) scale(0.1 -0.1)">
       <defs>
        <path id="DejaVuSans-31" d="M 794 531 
L 1825 531 
L 1825 4091 
L 703 3866 
L 703 4441 
L 1819 4666 
L 2450 4666 
L 2450 531 
L 3481 531 
L 3481 0 
L 794 0 
L 794 531 
z
" transform="scale(0.015625)"/>
       </defs>
       <use xlink:href="#DejaVuSans-31"/>
      </g>
     </g>
    </g>
    <g id="xtick_3">
     <g id="line2d_3">
      <g>
       <use xlink:href="#me572ba384f" x="203.824537" y="307.584" style="stroke: #000000; stroke-width: 0.8"/>
      </g>
     </g>
     <g id="text_3">
      <!-- 2 -->
      <g transform="translate(200.643287 322.182437) scale(0.1 -0.1)">
       <defs>
        <path id="DejaVuSans-32" d="M 1228 531 
L 3431 531 
L 3431 0 
L 469 0 
L 469 531 
Q 828 903 1448 1529 
Q 2069 2156 2228 2338 
Q 2531 2678 2651 2914 
Q 2772 3150 2772 3378 
Q 2772 3750 2511 3984 
Q 2250 4219 1831 4219 
Q 1534 4219 1204 4116 
Q 875 4013 500 3803 
L 500 4441 
Q 881 4594 1212 4672 
Q 1544 4750 1819 4750 
Q 2544 4750 2975 4387 
Q 3406 4025 3406 3419 
Q 3406 3131 3298 2873 
Q 3191 2616 2906 2266 
Q 2828 2175 2409 1742 
Q 1991 1309 1228 531 
z
" transform="scale(0.015625)"/>
       </defs>
       <use xlink:href="#DejaVuSans-32"/>
      </g>
     </g>
    </g>
    <g id="xtick_4">
     <g id="line2d_4">
      <g>
       <use xlink:href="#me572ba384f" x="268.820442" y="307.584" style="stroke: #000000; stroke-width: 0.8"/>
      </g>
     </g>
     <g id="text_4">
      <!-- 3 -->
      <g transform="translate(265.639192 322.182437) scale(0.1 -0.1)">
       <defs>
        <path id="DejaVuSans-33" d="M 2597 2516 
Q 3050 2419 3304 2112 
Q 3559 1806 3559 1356 
Q 3559 666 3084 287 
Q 2609 -91 1734 -91 
Q 1441 -91 1130 -33 
Q 819 25 488 141 
L 488 750 
Q 750 597 1062 519 
Q 1375 441 1716 441 
Q 2309 441 2620 675 
Q 2931 909 2931 1356 
Q 2931 1769 2642 2001 
Q 2353 2234 1838 2234 
L 1294 2234 
L 1294 2753 
L 1863 2753 
Q 2328 2753 2575 2939 
Q 2822 3125 2822 3475 
Q 2822 3834 2567 4026 
Q 2313 4219 1838 4219 
Q 1578 4219 1281 4162 
Q 984 4106 628 3988 
L 628 4550 
Q 988 4650 1302 4700 
Q 1616 4750 1894 4750 
Q 2613 4750 3031 4423 
Q 3450 4097 3450 3541 
Q 3450 3153 3228 2886 
Q 3006 2619 2597 2516 
z
" transform="scale(0.015625)"/>
       </defs>
       <use xlink:href="#DejaVuSans-33"/>
      </g>
     </g>
    </g>
    <g id="xtick_5">
     <g id="line2d_5">
      <g>
       <use xlink:href="#me572ba384f" x="333.816347" y="307.584" style="stroke: #000000; stroke-width: 0.8"/>
      </g>
     </g>
     <g id="text_5">
      <!-- 4 -->
      <g transform="translate(330.635097 322.182437) scale(0.1 -0.1)">
       <defs>
        <path id="DejaVuSans-34" d="M 2419 4116 
L 825 1625 
L 2419 1625 
L 2419 4116 
z
M 2253 4666 
L 3047 4666 
L 3047 1625 
L 3713 1625 
L 3713 1100 
L 3047 1100 
L 3047 0 
L 2419 0 
L 2419 1100 
L 313 1100 
L 313 1709 
L 2253 4666 
z
" transform="scale(0.015625)"/>
       </defs>
       <use xlink:href="#DejaVuSans-34"/>
      </g>
     </g>
    </g>
    <g id="xtick_6">
     <g id="line2d_6">
      <g>
       <use xlink:href="#me572ba384f" x="398.812252" y="307.584" style="stroke: #000000; stroke-width: 0.8"/>
      </g>
     </g>
     <g id="text_6">
      <!-- 5 -->
      <g transform="translate(395.631002 322.182437) scale(0.1 -0.1)">
       <defs>
        <path id="DejaVuSans-35" d="M 691 4666 
L 3169 4666 
L 3169 4134 
L 1269 4134 
L 1269 2991 
Q 1406 3038 1543 3061 
Q 1681 3084 1819 3084 
Q 2600 3084 3056 2656 
Q 3513 2228 3513 1497 
Q 3513 744 3044 326 
Q 2575 -91 1722 -91 
Q 1428 -91 1123 -41 
Q 819 9 494 109 
L 494 744 
Q 775 591 1075 516 
Q 1375 441 1709 441 
Q 2250 441 2565 725 
Q 2881 1009 2881 1497 
Q 2881 1984 2565 2268 
Q 2250 2553 1709 2553 
Q 1456 2553 1204 2497 
Q 953 2441 691 2322 
L 691 4666 
z
" transform="scale(0.015625)"/>
       </defs>
       <use xlink:href="#DejaVuSans-35"/>
      </g>
     </g>
    </g>
    <g id="text_7">
     <!-- 1e−7 -->
     <g transform="translate(387.462188 334.860562) scale(0.1 -0.1)">
      <defs>
       <path id="DejaVuSans-65" d="M 3597 1894 
L 3597 1613 
L 953 1613 
Q 991 1019 1311 708 
Q 1631 397 2203 397 
Q 2534 397 2845 478 
Q 3156 559 3463 722 
L 3463 178 
Q 3153 47 2828 -22 
Q 2503 -91 2169 -91 
Q 1331 -91 842 396 
Q 353 884 353 1716 
Q 353 2575 817 3079 
Q 1281 3584 2069 3584 
Q 2775 3584 3186 3129 
Q 3597 2675 3597 1894 
z
M 3022 2063 
Q 3016 2534 2758 2815 
Q 2500 3097 2075 3097 
Q 1594 3097 1305 2825 
Q 1016 2553 972 2059 
L 3022 2063 
z
" transform="scale(0.015625)"/>
       <path id="DejaVuSans-2212" d="M 678 2272 
L 4684 2272 
L 4684 1741 
L 678 1741 
L 678 2272 
z
" transform="scale(0.015625)"/>
       <path id="DejaVuSans-37" d="M 525 4666 
L 3525 4666 
L 3525 4397 
L 1831 0 
L 1172 0 
L 2766 4134 
L 525 4134 
L 525 4666 
z
" transform="scale(0.015625)"/>
      </defs>
      <use xlink:href="#DejaVuSans-31"/>
      <use xlink:href="#DejaVuSans-65" transform="translate(63.623047 0)"/>
      <use xlink:href="#DejaVuSans-2212" transform="translate(125.146484 0)"/>
      <use xlink:href="#DejaVuSans-37" transform="translate(208.935547 0)"/>
     </g>
    </g>
   </g>
   <g id="matplotlib.axis_2">
    <g id="ytick_1">
     <g id="line2d_7">
      <defs>
       <path id="m356a6ac971" d="M 0 0 
L -3.5 0 
" style="stroke: #000000; stroke-width: 0.8"/>
      </defs>
      <g>
       <use xlink:href="#m356a6ac971" x="57.6" y="273.369594" style="stroke: #000000; stroke-width: 0.8"/>
      </g>
     </g>
     <g id="text_8">
      <!-- −150 -->
      <g transform="translate(23.132812 277.168812) scale(0.1 -0.1)">
       <use xlink:href="#DejaVuSans-2212"/>
       <use xlink:href="#DejaVuSans-31" transform="translate(83.789062 0)"/>
       <use xlink:href="#DejaVuSans-35" transform="translate(147.412109 0)"/>
       <use xlink:href="#DejaVuSans-30" transform="translate(211.035156 0)"/>
      </g>
     </g>
    </g>
    <g id="ytick_2">
     <g id="line2d_8">
      <g>
       <use xlink:href="#m356a6ac971" x="57.6" y="233.872447" style="stroke: #000000; stroke-width: 0.8"/>
      </g>
     </g>
     <g id="text_9">
      <!-- −100 -->
      <g transform="translate(23.132812 237.671666) scale(0.1 -0.1)">
       <use xlink:href="#DejaVuSans-2212"/>
       <use xlink:href="#DejaVuSans-31" transform="translate(83.789062 0)"/>
       <use xlink:href="#DejaVuSans-30" transform="translate(147.412109 0)"/>
       <use xlink:href="#DejaVuSans-30" transform="translate(211.035156 0)"/>
      </g>
     </g>
    </g>
    <g id="ytick_3">
     <g id="line2d_9">
      <g>
       <use xlink:href="#m356a6ac971" x="57.6" y="194.3753" style="stroke: #000000; stroke-width: 0.8"/>
      </g>
     </g>
     <g id="text_10">
      <!-- −50 -->
      <g transform="translate(29.495313 198.174519) scale(0.1 -0.1)">
       <use xlink:href="#DejaVuSans-2212"/>
       <use xlink:href="#DejaVuSans-35" transform="translate(83.789062 0)"/>
       <use xlink:href="#DejaVuSans-30" transform="translate(147.412109 0)"/>
      </g>
     </g>
    </g>
    <g id="ytick_4">
     <g id="line2d_10">
      <g>
       <use xlink:href="#m356a6ac971" x="57.6" y="154.878153" style="stroke: #000000; stroke-width: 0.8"/>
      </g>
     </g>
     <g id="text_11">
      <!-- 0 -->
      <g transform="translate(44.2375 158.677372) scale(0.1 -0.1)">
       <use xlink:href="#DejaVuSans-30"/>
      </g>
     </g>
    </g>
    <g id="ytick_5">
     <g id="line2d_11">
      <g>
       <use xlink:href="#m356a6ac971" x="57.6" y="115.381006" style="stroke: #000000; stroke-width: 0.8"/>
      </g>
     </g>
     <g id="text_12">
      <!-- 50 -->
      <g transform="translate(37.875 119.180225) scale(0.1 -0.1)">
       <use xlink:href="#DejaVuSans-35"/>
       <use xlink:href="#DejaVuSans-30" transform="translate(63.623047 0)"/>
      </g>
     </g>
    </g>
    <g id="ytick_6">
     <g id="line2d_12">
      <g>
       <use xlink:href="#m356a6ac971" x="57.6" y="75.883859" style="stroke: #000000; stroke-width: 0.8"/>
      </g>
     </g>
     <g id="text_13">
      <!-- 100 -->
      <g transform="translate(31.5125 79.683078) scale(0.1 -0.1)">
       <use xlink:href="#DejaVuSans-31"/>
       <use xlink:href="#DejaVuSans-30" transform="translate(63.623047 0)"/>
       <use xlink:href="#DejaVuSans-30" transform="translate(127.246094 0)"/>
      </g>
     </g>
    </g>
   </g>
   <g id="line2d_13">
    <path d="M 73.832727 204.565607 
L 74.157707 209.50275 
L 74.482686 204.565607 
L 74.807666 209.50275 
L 75.132645 204.565607 
L 75.457625 204.565607 
L 75.782604 194.691322 
L 76.107584 199.628464 
L 76.432563 199.628464 
L 76.757543 189.754179 
L 77.082523 194.691322 
L 77.407502 194.691322 
L 77.732482 184.817036 
L 78.057461 189.754179 
L 78.382441 189.754179 
L 78.70742 179.879893 
L 79.0324 179.879893 
L 79.357379 174.94275 
L 79.682359 179.879893 
L 80.007338 179.879893 
L 80.332318 174.94275 
L 80.657297 174.94275 
L 80.982277 170.005607 
L 81.632236 170.005607 
L 81.957215 165.068464 
L 82.282195 165.068464 
L 82.607174 170.005607 
L 82.932154 155.194179 
L 83.257133 165.068464 
L 83.582113 165.068464 
L 83.907093 155.194179 
L 84.232072 150.257036 
L 84.557052 155.194179 
L 84.882031 150.257036 
L 85.53199 150.257036 
L 86.181949 140.38275 
L 86.506929 145.319893 
L 86.831908 140.38275 
L 87.806847 140.38275 
L 88.131826 130.508464 
L 88.456806 135.445607 
L 88.781785 135.445607 
L 89.431744 125.571322 
L 90.081704 125.571322 
L 90.406683 130.508464 
L 91.381622 115.697036 
L 91.706601 120.634179 
L 92.031581 120.634179 
L 92.35656 110.759893 
L 93.006519 120.634179 
L 93.331499 110.759893 
L 93.981458 110.759893 
L 94.306437 105.82275 
L 94.631417 105.82275 
L 94.956396 100.885607 
L 95.281376 100.885607 
L 95.606355 105.82275 
L 95.931335 100.885607 
L 96.256314 105.82275 
L 96.581294 95.948464 
L 96.906274 100.885607 
L 97.231253 100.885607 
L 97.556233 95.948464 
L 98.206192 95.948464 
L 98.531171 86.074179 
L 98.856151 86.074179 
L 99.18113 95.948464 
L 99.50611 86.074179 
L 99.831089 81.137036 
L 100.806028 81.137036 
L 101.131007 76.199893 
L 102.430925 76.199893 
L 103.080885 66.325607 
L 103.405864 71.26275 
L 103.730844 66.325607 
L 104.055823 76.199893 
L 104.380803 71.26275 
L 104.705782 71.26275 
L 105.030762 61.388464 
L 105.680721 71.26275 
L 106.33068 61.388464 
L 106.980639 61.388464 
L 107.305618 71.26275 
L 107.630598 66.325607 
L 108.605536 66.325607 
L 108.930516 61.388464 
L 109.580475 71.26275 
L 110.230434 61.388464 
L 110.555414 61.388464 
L 111.205373 71.26275 
L 111.530352 61.388464 
L 111.855332 66.325607 
L 112.180311 61.388464 
L 112.505291 71.26275 
L 112.83027 71.26275 
L 113.15525 66.325607 
L 113.805209 76.199893 
L 114.130188 71.26275 
L 115.755086 71.26275 
L 116.405045 81.137036 
L 116.730025 76.199893 
L 117.379984 76.199893 
L 117.704963 86.074179 
L 118.029943 81.137036 
L 118.354922 81.137036 
L 119.004881 91.011322 
L 119.329861 86.074179 
L 119.65484 91.011322 
L 119.97982 91.011322 
L 120.304799 95.948464 
L 120.629779 91.011322 
L 120.954758 95.948464 
L 121.279738 95.948464 
L 121.604717 100.885607 
L 121.929697 95.948464 
L 122.254676 100.885607 
L 122.579656 100.885607 
L 122.904636 105.82275 
L 123.229615 105.82275 
L 123.554595 110.759893 
L 123.879574 110.759893 
L 124.204554 115.697036 
L 124.529533 110.759893 
L 124.854513 120.634179 
L 125.179492 115.697036 
L 125.504472 115.697036 
L 125.829451 120.634179 
L 126.154431 120.634179 
L 126.80439 130.508464 
L 127.129369 125.571322 
L 127.779328 125.571322 
L 128.104308 135.445607 
L 129.079247 135.445607 
L 129.404226 140.38275 
L 129.729206 140.38275 
L 130.379165 150.257036 
L 130.704144 145.319893 
L 131.029124 145.319893 
L 131.354103 150.257036 
L 131.679083 150.257036 
L 132.004062 155.194179 
L 132.654021 155.194179 
L 132.979001 150.257036 
L 133.30398 160.131322 
L 133.62896 160.131322 
L 133.953939 165.068464 
L 134.278919 165.068464 
L 134.603898 170.005607 
L 134.928878 165.068464 
L 135.578837 174.94275 
L 136.553776 174.94275 
L 136.878755 179.879893 
L 137.203735 179.879893 
L 137.528714 174.94275 
L 137.853694 179.879893 
L 138.178673 174.94275 
L 138.503653 184.817036 
L 138.828632 184.817036 
L 139.153612 189.754179 
L 140.12855 189.754179 
L 140.45353 199.628464 
L 141.103489 199.628464 
L 141.428468 194.691322 
L 141.753448 199.628464 
L 142.078428 199.628464 
L 142.403407 204.565607 
L 142.728387 204.565607 
L 143.053366 209.50275 
L 143.378346 204.565607 
L 143.703325 209.50275 
L 144.678264 209.50275 
L 145.003243 219.377036 
L 145.328223 214.439893 
L 145.653202 219.377036 
L 146.628141 219.377036 
L 146.95312 224.314179 
L 147.2781 224.314179 
L 147.603079 229.251322 
L 147.928059 229.251322 
L 148.253038 224.314179 
L 148.578018 224.314179 
L 148.902998 229.251322 
L 149.552957 229.251322 
L 150.202916 239.125607 
L 150.527895 234.188464 
L 151.177854 244.06275 
L 151.502834 239.125607 
L 152.152793 239.125607 
L 152.477772 244.06275 
L 153.452711 244.06275 
L 153.77769 239.125607 
L 154.10267 248.999893 
L 154.427649 248.999893 
L 154.752629 244.06275 
L 155.402588 244.06275 
L 155.727568 239.125607 
L 156.052547 248.999893 
L 156.702506 248.999893 
L 157.027486 244.06275 
L 157.352465 244.06275 
L 157.677445 248.999893 
L 158.002424 248.999893 
L 158.327404 244.06275 
L 158.652383 248.999893 
L 158.977363 244.06275 
L 159.302342 248.999893 
L 159.627322 248.999893 
L 159.952301 239.125607 
L 160.277281 244.06275 
L 160.60226 244.06275 
L 160.92724 239.125607 
L 161.577199 248.999893 
L 161.902179 239.125607 
L 162.552138 239.125607 
L 162.877117 244.06275 
L 163.202097 239.125607 
L 163.527076 239.125607 
L 164.177035 229.251322 
L 166.126912 229.251322 
L 166.451892 224.314179 
L 166.776871 224.314179 
L 167.101851 229.251322 
L 167.42683 224.314179 
L 167.75181 224.314179 
L 168.07679 219.377036 
L 168.401769 219.377036 
L 168.726749 209.50275 
L 169.051728 214.439893 
L 169.376708 209.50275 
L 170.026667 209.50275 
L 170.351646 204.565607 
L 170.676626 204.565607 
L 171.001605 209.50275 
L 171.326585 199.628464 
L 171.976544 199.628464 
L 172.301523 194.691322 
L 173.276462 194.691322 
L 173.926421 184.817036 
L 174.2514 184.817036 
L 174.57638 179.879893 
L 174.90136 184.817036 
L 175.551319 174.94275 
L 175.876298 179.879893 
L 176.201278 179.879893 
L 176.526257 170.005607 
L 176.851237 170.005607 
L 177.176216 174.94275 
L 177.826175 165.068464 
L 178.476134 165.068464 
L 178.801114 160.131322 
L 179.451073 160.131322 
L 179.776052 155.194179 
L 180.426011 155.194179 
L 180.750991 150.257036 
L 181.075971 150.257036 
L 181.72593 140.38275 
L 182.050909 145.319893 
L 182.375889 145.319893 
L 182.700868 140.38275 
L 183.025848 140.38275 
L 183.350827 135.445607 
L 184.325766 135.445607 
L 184.650745 130.508464 
L 185.625684 130.508464 
L 185.950663 120.634179 
L 186.275643 125.571322 
L 186.600622 125.571322 
L 186.925602 120.634179 
L 187.250581 125.571322 
L 187.575561 120.634179 
L 187.900541 120.634179 
L 188.22552 110.759893 
L 188.5505 115.697036 
L 188.875479 110.759893 
L 189.200459 115.697036 
L 189.850418 105.82275 
L 190.500377 105.82275 
L 190.825356 100.885607 
L 191.150336 105.82275 
L 191.800295 105.82275 
L 192.125274 100.885607 
L 192.450254 100.885607 
L 192.775233 95.948464 
L 193.100213 95.948464 
L 193.425192 86.074179 
L 193.750172 91.011322 
L 194.400131 91.011322 
L 195.37507 76.199893 
L 195.700049 86.074179 
L 196.025029 81.137036 
L 196.999967 81.137036 
L 197.324947 71.26275 
L 197.974906 81.137036 
L 198.624865 71.26275 
L 199.274824 71.26275 
L 199.599803 76.199893 
L 200.249762 66.325607 
L 200.899722 66.325607 
L 201.224701 71.26275 
L 201.549681 66.325607 
L 202.849599 66.325607 
L 203.174578 71.26275 
L 204.149517 56.451322 
L 204.799476 66.325607 
L 205.124455 66.325607 
L 205.449435 61.388464 
L 205.774414 61.388464 
L 206.099394 66.325607 
L 206.424373 66.325607 
L 206.749353 61.388464 
L 207.074333 66.325607 
L 207.724292 66.325607 
L 208.049271 71.26275 
L 208.374251 71.26275 
L 209.02421 61.388464 
L 209.674169 71.26275 
L 209.999148 71.26275 
L 210.324128 66.325607 
L 210.649107 71.26275 
L 210.974087 71.26275 
L 211.299066 76.199893 
L 211.624046 71.26275 
L 211.949025 71.26275 
L 212.598984 81.137036 
L 212.923964 76.199893 
L 213.248943 86.074179 
L 213.898903 86.074179 
L 214.223882 81.137036 
L 214.548862 86.074179 
L 215.198821 86.074179 
L 215.5238 91.011322 
L 215.84878 91.011322 
L 216.173759 86.074179 
L 216.498739 91.011322 
L 216.823718 91.011322 
L 217.473677 100.885607 
L 218.123636 100.885607 
L 218.448616 105.82275 
L 219.423554 105.82275 
L 220.073514 115.697036 
L 220.723473 115.697036 
L 221.048452 120.634179 
L 221.373432 110.759893 
L 221.698411 120.634179 
L 222.34837 120.634179 
L 222.998329 130.508464 
L 223.323309 130.508464 
L 223.648288 135.445607 
L 223.973268 135.445607 
L 224.298247 130.508464 
L 224.623227 130.508464 
L 224.948206 140.38275 
L 225.273186 140.38275 
L 225.598165 145.319893 
L 226.573104 145.319893 
L 226.898084 150.257036 
L 227.548043 150.257036 
L 227.873022 155.194179 
L 228.522981 155.194179 
L 229.17294 165.068464 
L 229.49792 160.131322 
L 230.147879 160.131322 
L 230.472858 170.005607 
L 230.797838 174.94275 
L 231.122817 170.005607 
L 231.772776 170.005607 
L 232.097756 174.94275 
L 232.747715 174.94275 
L 233.397674 184.817036 
L 234.047633 184.817036 
L 234.372613 189.754179 
L 234.697592 184.817036 
L 235.022572 184.817036 
L 235.347551 189.754179 
L 235.672531 189.754179 
L 235.99751 194.691322 
L 236.647469 194.691322 
L 236.972449 189.754179 
L 237.622408 199.628464 
L 237.947387 194.691322 
L 238.272367 204.565607 
L 238.922326 204.565607 
L 239.247305 209.50275 
L 239.572285 209.50275 
L 239.897265 214.439893 
L 240.222244 204.565607 
L 240.547224 214.439893 
L 242.172121 214.439893 
L 242.497101 224.314179 
L 242.82208 224.314179 
L 243.14706 219.377036 
L 243.797019 229.251322 
L 244.446978 229.251322 
L 244.771957 239.125607 
L 245.096937 229.251322 
L 245.421916 229.251322 
L 246.071876 239.125607 
L 246.721835 239.125607 
L 247.046814 234.188464 
L 248.021753 248.999893 
L 248.346732 239.125607 
L 248.671712 244.06275 
L 248.996691 244.06275 
L 249.321671 239.125607 
L 249.97163 248.999893 
L 250.296609 244.06275 
L 252.246486 244.06275 
L 252.571466 239.125607 
L 253.221425 248.999893 
L 253.546405 244.06275 
L 253.871384 244.06275 
L 254.196364 248.999893 
L 254.521343 244.06275 
L 255.496282 244.06275 
L 255.821261 239.125607 
L 256.146241 244.06275 
L 256.47122 239.125607 
L 256.7962 244.06275 
L 257.121179 244.06275 
L 257.446159 239.125607 
L 257.771138 239.125607 
L 258.096118 244.06275 
L 258.746077 234.188464 
L 259.071057 239.125607 
L 259.396036 239.125607 
L 259.721016 234.188464 
L 260.045995 234.188464 
L 260.370975 239.125607 
L 261.020934 229.251322 
L 261.670893 229.251322 
L 261.995872 224.314179 
L 262.320852 229.251322 
L 262.645831 224.314179 
L 262.970811 214.439893 
L 263.29579 229.251322 
L 264.270729 214.439893 
L 264.595708 219.377036 
L 264.920688 214.439893 
L 265.570647 214.439893 
L 266.220606 204.565607 
L 267.195545 204.565607 
L 268.170483 189.754179 
L 268.495463 199.628464 
L 269.145422 189.754179 
L 269.795381 189.754179 
L 270.12036 184.817036 
L 271.095299 184.817036 
L 271.420278 174.94275 
L 272.395217 174.94275 
L 272.720197 170.005607 
L 273.045176 170.005607 
L 273.370156 165.068464 
L 273.695135 170.005607 
L 274.345094 160.131322 
L 274.670074 160.131322 
L 274.995053 165.068464 
L 275.320033 155.194179 
L 276.294971 155.194179 
L 276.619951 145.319893 
L 276.94493 150.257036 
L 277.594889 150.257036 
L 278.569828 135.445607 
L 278.894808 140.38275 
L 279.219787 140.38275 
L 279.544767 135.445607 
L 279.869746 135.445607 
L 280.194726 140.38275 
L 280.519705 130.508464 
L 280.844685 135.445607 
L 281.169664 135.445607 
L 281.494644 125.571322 
L 281.819623 120.634179 
L 282.144603 125.571322 
L 282.794562 125.571322 
L 283.119541 120.634179 
L 283.444521 120.634179 
L 283.7695 115.697036 
L 284.419459 115.697036 
L 284.744439 110.759893 
L 285.069419 115.697036 
L 285.719378 105.82275 
L 286.044357 105.82275 
L 286.369337 110.759893 
L 286.694316 105.82275 
L 287.019296 95.948464 
L 287.344275 105.82275 
L 287.994234 105.82275 
L 288.319214 95.948464 
L 288.644193 100.885607 
L 289.294152 91.011322 
L 290.59407 91.011322 
L 290.91905 81.137036 
L 291.244029 86.074179 
L 291.893989 86.074179 
L 292.218968 76.199893 
L 292.868927 76.199893 
L 293.193907 81.137036 
L 293.518886 71.26275 
L 293.843866 76.199893 
L 294.168845 71.26275 
L 295.793743 71.26275 
L 296.118722 66.325607 
L 296.443702 76.199893 
L 297.093661 66.325607 
L 297.41864 66.325607 
L 297.74362 71.26275 
L 298.0686 66.325607 
L 298.393579 71.26275 
L 298.718559 61.388464 
L 299.043538 66.325607 
L 299.368518 61.388464 
L 299.693497 66.325607 
L 300.993415 66.325607 
L 301.318395 61.388464 
L 301.968354 71.26275 
L 302.618313 61.388464 
L 302.943292 61.388464 
L 303.268272 66.325607 
L 304.24321 66.325607 
L 304.56819 61.388464 
L 304.89317 66.325607 
L 306.193088 66.325607 
L 306.843047 76.199893 
L 307.493006 76.199893 
L 307.817985 71.26275 
L 308.467944 81.137036 
L 308.792924 81.137036 
L 309.117903 76.199893 
L 309.767862 76.199893 
L 310.092842 86.074179 
L 310.417821 86.074179 
L 310.742801 81.137036 
L 311.39276 91.011322 
L 312.042719 91.011322 
L 312.367699 95.948464 
L 313.342637 95.948464 
L 313.992596 105.82275 
L 314.642555 105.82275 
L 314.967535 100.885607 
L 315.292514 110.759893 
L 315.617494 115.697036 
L 315.942473 110.759893 
L 316.592432 120.634179 
L 316.917412 115.697036 
L 317.567371 125.571322 
L 317.892351 125.571322 
L 318.21733 120.634179 
L 318.54231 120.634179 
L 318.867289 130.508464 
L 319.192269 130.508464 
L 319.517248 135.445607 
L 319.842228 130.508464 
L 320.167207 130.508464 
L 320.492187 140.38275 
L 320.817166 135.445607 
L 321.142146 140.38275 
L 321.467125 140.38275 
L 321.792105 145.319893 
L 322.117084 145.319893 
L 322.442064 150.257036 
L 323.417002 150.257036 
L 323.741982 155.194179 
L 324.391941 155.194179 
L 324.716921 160.131322 
L 325.36688 160.131322 
L 325.691859 165.068464 
L 326.341818 165.068464 
L 326.991777 174.94275 
L 327.316757 170.005607 
L 327.966716 179.879893 
L 328.291695 174.94275 
L 328.616675 174.94275 
L 329.266634 184.817036 
L 329.591613 184.817036 
L 329.916593 179.879893 
L 330.241572 184.817036 
L 330.566552 179.879893 
L 331.216511 189.754179 
L 331.541491 189.754179 
L 331.86647 194.691322 
L 332.841409 194.691322 
L 333.166388 204.565607 
L 333.491368 199.628464 
L 333.816347 199.628464 
L 334.141327 204.565607 
L 334.791286 204.565607 
L 335.116265 209.50275 
L 335.441245 209.50275 
L 335.766224 204.565607 
L 336.091204 209.50275 
L 336.416183 209.50275 
L 336.741163 214.439893 
L 337.066143 214.439893 
L 337.391122 219.377036 
L 338.041081 219.377036 
L 338.366061 224.314179 
L 338.69104 224.314179 
L 339.01602 219.377036 
L 339.340999 229.251322 
L 339.665979 229.251322 
L 339.990958 234.188464 
L 340.315938 229.251322 
L 341.290876 229.251322 
L 341.615856 234.188464 
L 342.265815 234.188464 
L 342.590794 239.125607 
L 342.915774 234.188464 
L 343.240753 244.06275 
L 343.565733 244.06275 
L 343.890713 239.125607 
L 344.540672 239.125607 
L 344.865651 244.06275 
L 345.190631 244.06275 
L 345.51561 248.999893 
L 346.165569 239.125607 
L 346.815528 248.999893 
L 347.790467 248.999893 
L 348.115446 244.06275 
L 348.440426 244.06275 
L 348.765405 248.999893 
L 349.090385 248.999893 
L 349.415364 239.125607 
L 350.065324 248.999893 
L 350.390303 248.999893 
L 350.715283 244.06275 
L 351.365242 244.06275 
L 351.690221 248.999893 
L 352.015201 244.06275 
L 352.990139 244.06275 
L 353.315119 239.125607 
L 354.290057 239.125607 
L 354.615037 234.188464 
L 355.264996 234.188464 
L 355.589975 239.125607 
L 355.914955 239.125607 
L 356.239934 229.251322 
L 357.214873 229.251322 
L 357.539853 224.314179 
L 357.864832 229.251322 
L 358.189812 229.251322 
L 358.514791 219.377036 
L 358.839771 219.377036 
L 359.16475 229.251322 
L 359.48973 219.377036 
L 359.814709 214.439893 
L 360.139689 219.377036 
L 360.464668 219.377036 
L 360.789648 214.439893 
L 361.114627 214.439893 
L 361.764586 204.565607 
L 363.389484 204.565607 
L 363.714464 194.691322 
L 364.039443 199.628464 
L 364.364423 199.628464 
L 364.689402 189.754179 
L 365.014382 184.817036 
L 365.664341 184.817036 
L 365.98932 189.754179 
L 366.3143 184.817036 
L 366.639279 184.817036 
L 366.964259 179.879893 
L 367.614218 179.879893 
L 367.939197 174.94275 
L 368.264177 174.94275 
L 368.589156 179.879893 
L 368.914136 170.005607 
L 369.564095 170.005607 
L 370.214054 160.131322 
L 371.188993 160.131322 
L 371.513972 155.194179 
L 371.838952 155.194179 
L 372.163931 150.257036 
L 372.488911 155.194179 
L 372.81389 145.319893 
L 373.463849 145.319893 
L 373.788829 150.257036 
L 374.113808 140.38275 
L 374.438788 145.319893 
L 374.763767 145.319893 
L 375.738706 130.508464 
L 376.063686 135.445607 
L 376.388665 135.445607 
L 376.713645 125.571322 
L 377.038624 130.508464 
L 377.363604 125.571322 
L 377.688583 130.508464 
L 378.013563 120.634179 
L 378.988501 120.634179 
L 379.313481 115.697036 
L 379.63846 120.634179 
L 379.96344 120.634179 
L 380.613399 110.759893 
L 380.938378 115.697036 
L 381.588337 115.697036 
L 382.563276 100.885607 
L 382.888256 105.82275 
L 383.213235 100.885607 
L 383.863194 100.885607 
L 384.188174 105.82275 
L 384.513153 95.948464 
L 385.488092 95.948464 
L 385.813071 86.074179 
L 387.112989 86.074179 
L 387.762948 76.199893 
L 388.087928 81.137036 
L 388.412907 76.199893 
L 389.062867 76.199893 
L 389.387846 81.137036 
L 389.712826 71.26275 
L 390.037805 76.199893 
L 390.362785 76.199893 
L 390.687764 71.26275 
L 391.987682 71.26275 
L 392.312662 66.325607 
L 394.912498 66.325607 
L 395.237477 71.26275 
L 395.562457 66.325607 
L 395.887437 66.325607 
L 396.212416 61.388464 
L 396.537396 66.325607 
L 397.837314 66.325607 
L 398.162293 61.388464 
L 398.487273 66.325607 
L 398.487273 66.325607 
" clip-path="url(#p1c6efc548b)" style="fill: none; stroke: #1f77b4; stroke-width: 1.5; stroke-linecap: square"/>
   </g>
   <g id="line2d_14">
    <path d="M 73.832727 270.802286 
L 74.482686 270.802286 
L 74.807666 275.739429 
L 75.132645 270.802286 
L 75.457625 280.676571 
L 75.782604 285.613714 
L 76.107584 285.613714 
L 76.432563 280.676571 
L 76.757543 285.613714 
L 77.407502 285.613714 
L 77.732482 280.676571 
L 78.382441 290.550857 
L 78.70742 290.550857 
L 79.0324 295.488 
L 79.357379 290.550857 
L 80.007338 290.550857 
L 80.332318 285.613714 
L 80.982277 295.488 
L 81.632236 295.488 
L 81.957215 290.550857 
L 82.282195 295.488 
L 82.607174 295.488 
L 82.932154 285.613714 
L 83.582113 295.488 
L 83.907093 290.550857 
L 84.557052 290.550857 
L 84.882031 285.613714 
L 85.207011 290.550857 
L 85.53199 280.676571 
L 85.85697 290.550857 
L 86.181949 285.613714 
L 86.506929 290.550857 
L 86.831908 280.676571 
L 87.156888 280.676571 
L 87.806847 270.802286 
L 88.456806 270.802286 
L 88.781785 265.865143 
L 89.106765 265.865143 
L 90.081704 251.053714 
L 90.406683 251.053714 
L 90.731663 246.116571 
L 91.056642 251.053714 
L 91.381622 246.116571 
L 92.031581 246.116571 
L 92.35656 241.179429 
L 92.68154 241.179429 
L 93.331499 231.305143 
L 93.656478 236.242286 
L 93.981458 231.305143 
L 94.956396 231.305143 
L 95.281376 226.368 
L 95.606355 231.305143 
L 95.931335 226.368 
L 96.256314 231.305143 
L 96.581294 226.368 
L 96.906274 226.368 
L 97.231253 221.430857 
L 97.556233 221.430857 
L 97.881212 216.493714 
L 99.18113 216.493714 
L 99.50611 206.619429 
L 99.831089 206.619429 
L 100.156069 201.682286 
L 100.481048 201.682286 
L 100.806028 206.619429 
L 101.131007 191.808 
L 101.455987 196.745143 
L 102.105946 196.745143 
L 102.430925 186.870857 
L 102.755905 186.870857 
L 103.405864 176.996571 
L 103.730844 181.933714 
L 104.055823 176.996571 
L 105.030762 176.996571 
L 105.355741 172.059429 
L 105.680721 162.185143 
L 106.0057 172.059429 
L 106.33068 162.185143 
L 106.655659 167.122286 
L 107.305618 167.122286 
L 107.955577 157.248 
L 108.280557 157.248 
L 108.605536 152.310857 
L 109.255495 152.310857 
L 109.905455 142.436571 
L 110.230434 142.436571 
L 110.555414 137.499429 
L 110.880393 137.499429 
L 111.205373 132.562286 
L 111.530352 122.688 
L 112.180311 132.562286 
L 113.15525 117.750857 
L 113.480229 117.750857 
L 113.805209 112.813714 
L 114.130188 112.813714 
L 114.455168 117.750857 
L 115.105127 107.876571 
L 115.430106 112.813714 
L 116.080066 102.939429 
L 116.405045 107.876571 
L 116.730025 93.065143 
L 117.055004 102.939429 
L 117.379984 98.002286 
L 117.704963 98.002286 
L 118.029943 93.065143 
L 119.329861 93.065143 
L 119.65484 88.128 
L 119.97982 88.128 
L 120.304799 78.253714 
L 120.629779 83.190857 
L 121.279738 73.316571 
L 121.604717 83.190857 
L 121.929697 73.316571 
L 122.254676 73.316571 
L 122.579656 68.379429 
L 122.904636 73.316571 
L 123.229615 73.316571 
L 123.554595 68.379429 
L 123.879574 68.379429 
L 124.204554 63.442286 
L 125.829451 63.442286 
L 126.154431 58.505143 
L 126.47941 63.442286 
L 126.80439 63.442286 
L 127.129369 53.568 
L 127.454349 58.505143 
L 127.779328 58.505143 
L 128.104308 63.442286 
L 128.429287 58.505143 
L 129.079247 58.505143 
L 129.404226 63.442286 
L 129.729206 53.568 
L 130.054185 58.505143 
L 130.379165 58.505143 
L 130.704144 53.568 
L 131.679083 53.568 
L 132.004062 58.505143 
L 132.329042 53.568 
L 132.654021 63.442286 
L 133.30398 63.442286 
L 133.62896 58.505143 
L 133.953939 63.442286 
L 134.603898 63.442286 
L 134.928878 68.379429 
L 135.253857 68.379429 
L 135.578837 78.253714 
L 135.903817 73.316571 
L 136.228796 78.253714 
L 136.553776 78.253714 
L 136.878755 73.316571 
L 137.203735 88.128 
L 137.528714 83.190857 
L 137.853694 93.065143 
L 138.178673 93.065143 
L 138.503653 98.002286 
L 139.153612 98.002286 
L 139.478591 102.939429 
L 139.803571 102.939429 
L 140.12855 107.876571 
L 140.45353 102.939429 
L 140.778509 112.813714 
L 141.103489 107.876571 
L 141.428468 112.813714 
L 142.078428 112.813714 
L 142.403407 117.750857 
L 142.728387 112.813714 
L 143.378346 122.688 
L 144.353284 122.688 
L 144.678264 127.625143 
L 145.003243 122.688 
L 145.328223 122.688 
L 145.978182 132.562286 
L 146.303161 127.625143 
L 146.628141 132.562286 
L 147.2781 132.562286 
L 147.603079 142.436571 
L 147.928059 137.499429 
L 148.902998 152.310857 
L 149.552957 152.310857 
L 149.877936 157.248 
L 150.202916 157.248 
L 150.852875 167.122286 
L 152.152793 167.122286 
L 152.477772 162.185143 
L 152.802752 172.059429 
L 153.127731 167.122286 
L 153.452711 176.996571 
L 153.77769 176.996571 
L 154.10267 181.933714 
L 154.752629 181.933714 
L 155.077609 186.870857 
L 155.402588 186.870857 
L 155.727568 181.933714 
L 156.702506 196.745143 
L 157.677445 196.745143 
L 158.002424 206.619429 
L 158.327404 201.682286 
L 158.652383 211.556571 
L 158.977363 216.493714 
L 159.302342 216.493714 
L 159.627322 211.556571 
L 159.952301 221.430857 
L 160.60226 221.430857 
L 160.92724 226.368 
L 161.252219 226.368 
L 161.577199 231.305143 
L 162.227158 231.305143 
L 162.552138 236.242286 
L 162.877117 236.242286 
L 163.202097 241.179429 
L 163.527076 231.305143 
L 163.852056 241.179429 
L 164.177035 246.116571 
L 164.502015 246.116571 
L 164.826994 251.053714 
L 165.801933 251.053714 
L 166.126912 255.990857 
L 166.776871 255.990857 
L 167.101851 251.053714 
L 167.42683 255.990857 
L 167.75181 255.990857 
L 168.401769 265.865143 
L 168.726749 260.928 
L 169.701687 275.739429 
L 170.026667 270.802286 
L 170.351646 275.739429 
L 170.676626 275.739429 
L 171.001605 280.676571 
L 171.326585 275.739429 
L 171.651564 285.613714 
L 172.301523 285.613714 
L 172.626503 290.550857 
L 172.951482 285.613714 
L 173.276462 285.613714 
L 173.601441 290.550857 
L 173.926421 285.613714 
L 174.2514 290.550857 
L 174.57638 290.550857 
L 174.90136 295.488 
L 175.226339 290.550857 
L 176.851237 290.550857 
L 177.176216 295.488 
L 177.501196 290.550857 
L 177.826175 295.488 
L 178.151155 295.488 
L 178.476134 290.550857 
L 178.801114 295.488 
L 179.126093 285.613714 
L 179.451073 295.488 
L 179.776052 290.550857 
L 180.101032 295.488 
L 180.426011 295.488 
L 180.750991 290.550857 
L 181.075971 290.550857 
L 181.40095 285.613714 
L 181.72593 285.613714 
L 182.050909 280.676571 
L 183.025848 280.676571 
L 183.350827 270.802286 
L 183.675807 270.802286 
L 184.000786 275.739429 
L 184.325766 260.928 
L 184.650745 270.802286 
L 184.975725 265.865143 
L 185.300704 265.865143 
L 185.625684 255.990857 
L 185.950663 260.928 
L 186.925602 246.116571 
L 187.575561 246.116571 
L 187.900541 241.179429 
L 188.22552 241.179429 
L 188.5505 236.242286 
L 188.875479 236.242286 
L 189.200459 241.179429 
L 189.525438 231.305143 
L 189.850418 236.242286 
L 190.175397 236.242286 
L 190.500377 241.179429 
L 190.825356 231.305143 
L 191.150336 231.305143 
L 191.475315 226.368 
L 191.800295 231.305143 
L 192.125274 226.368 
L 192.450254 231.305143 
L 193.100213 221.430857 
L 193.425192 221.430857 
L 193.750172 211.556571 
L 194.075152 211.556571 
L 194.400131 216.493714 
L 194.725111 206.619429 
L 195.05009 211.556571 
L 195.37507 211.556571 
L 195.700049 216.493714 
L 196.025029 201.682286 
L 196.674988 201.682286 
L 196.999967 196.745143 
L 197.324947 196.745143 
L 197.649926 191.808 
L 197.974906 191.808 
L 198.949844 176.996571 
L 199.274824 176.996571 
L 199.599803 181.933714 
L 199.924783 172.059429 
L 200.249762 176.996571 
L 200.899722 176.996571 
L 201.224701 172.059429 
L 201.549681 172.059429 
L 202.19964 162.185143 
L 202.524619 162.185143 
L 202.849599 167.122286 
L 203.174578 167.122286 
L 203.824537 157.248 
L 204.149517 157.248 
L 204.474496 152.310857 
L 204.799476 157.248 
L 205.124455 142.436571 
L 205.449435 147.373714 
L 206.099394 147.373714 
L 206.749353 137.499429 
L 207.074333 137.499429 
L 207.399312 127.625143 
L 207.724292 132.562286 
L 208.049271 127.625143 
L 208.374251 127.625143 
L 209.349189 112.813714 
L 209.674169 112.813714 
L 209.999148 117.750857 
L 210.324128 107.876571 
L 210.649107 112.813714 
L 211.299066 112.813714 
L 211.949025 102.939429 
L 212.598984 102.939429 
L 213.248943 93.065143 
L 213.573923 98.002286 
L 213.898903 93.065143 
L 214.223882 98.002286 
L 214.873841 88.128 
L 215.198821 93.065143 
L 215.5238 83.190857 
L 216.173759 83.190857 
L 216.498739 88.128 
L 216.823718 78.253714 
L 217.148698 78.253714 
L 217.473677 73.316571 
L 217.798657 78.253714 
L 218.123636 73.316571 
L 218.773595 73.316571 
L 219.098575 68.379429 
L 219.423554 68.379429 
L 219.748534 63.442286 
L 220.073514 63.442286 
L 220.398493 68.379429 
L 220.723473 58.505143 
L 221.048452 63.442286 
L 222.023391 63.442286 
L 222.34837 58.505143 
L 222.67335 63.442286 
L 222.998329 58.505143 
L 223.973268 58.505143 
L 224.298247 53.568 
L 224.623227 53.568 
L 224.948206 58.505143 
L 225.273186 53.568 
L 225.598165 58.505143 
L 225.923145 53.568 
L 226.248124 58.505143 
L 227.223063 58.505143 
L 227.548043 53.568 
L 227.873022 58.505143 
L 228.847961 58.505143 
L 229.17294 63.442286 
L 229.49792 58.505143 
L 229.822899 63.442286 
L 230.472858 63.442286 
L 230.797838 73.316571 
L 231.122817 63.442286 
L 231.447797 73.316571 
L 232.097756 83.190857 
L 232.422735 78.253714 
L 232.747715 78.253714 
L 233.397674 88.128 
L 233.722654 88.128 
L 234.372613 98.002286 
L 235.672531 98.002286 
L 235.99751 107.876571 
L 236.32249 98.002286 
L 236.647469 112.813714 
L 236.972449 112.813714 
L 237.297428 117.750857 
L 237.622408 112.813714 
L 237.947387 112.813714 
L 238.272367 117.750857 
L 239.897265 117.750857 
L 240.222244 122.688 
L 240.872203 122.688 
L 241.197183 127.625143 
L 241.522162 122.688 
L 241.847142 127.625143 
L 242.172121 127.625143 
L 242.82208 137.499429 
L 244.121998 137.499429 
L 244.446978 142.436571 
L 244.771957 152.310857 
L 245.096937 147.373714 
L 245.421916 152.310857 
L 245.746896 152.310857 
L 246.071876 157.248 
L 246.721835 157.248 
L 247.046814 162.185143 
L 247.371794 172.059429 
L 248.346732 172.059429 
L 248.671712 167.122286 
L 248.996691 172.059429 
L 249.321671 172.059429 
L 249.97163 181.933714 
L 250.946568 181.933714 
L 251.271548 186.870857 
L 251.921507 186.870857 
L 252.896446 201.682286 
L 253.221425 196.745143 
L 253.546405 196.745143 
L 253.871384 206.619429 
L 254.521343 206.619429 
L 255.171302 216.493714 
L 255.496282 216.493714 
L 255.821261 221.430857 
L 256.146241 216.493714 
L 256.7962 226.368 
L 257.121179 226.368 
L 258.096118 241.179429 
L 260.045995 241.179429 
L 260.370975 246.116571 
L 261.345913 246.116571 
L 261.995872 255.990857 
L 262.320852 251.053714 
L 263.29579 265.865143 
L 263.62077 260.928 
L 263.945749 260.928 
L 264.270729 265.865143 
L 264.920688 265.865143 
L 265.895627 280.676571 
L 266.220606 275.739429 
L 266.870565 275.739429 
L 267.195545 280.676571 
L 267.520524 275.739429 
L 267.845504 285.613714 
L 268.170483 285.613714 
L 268.495463 290.550857 
L 269.145422 290.550857 
L 269.470401 285.613714 
L 269.795381 285.613714 
L 270.12036 290.550857 
L 270.44534 290.550857 
L 270.770319 295.488 
L 271.095299 285.613714 
L 271.420278 290.550857 
L 272.720197 290.550857 
L 273.045176 295.488 
L 273.695135 295.488 
L 274.020115 290.550857 
L 274.345094 290.550857 
L 274.670074 295.488 
L 274.995053 290.550857 
L 275.320033 290.550857 
L 275.645012 295.488 
L 275.969992 290.550857 
L 276.619951 290.550857 
L 276.94493 285.613714 
L 277.594889 285.613714 
L 277.919869 275.739429 
L 278.244848 285.613714 
L 279.219787 270.802286 
L 279.544767 275.739429 
L 280.519705 260.928 
L 281.169664 260.928 
L 281.494644 255.990857 
L 281.819623 255.990857 
L 282.469582 246.116571 
L 282.794562 246.116571 
L 283.119541 241.179429 
L 283.444521 246.116571 
L 284.09448 246.116571 
L 284.419459 236.242286 
L 284.744439 236.242286 
L 285.069419 241.179429 
L 285.719378 231.305143 
L 286.369337 231.305143 
L 286.694316 226.368 
L 287.994234 226.368 
L 288.319214 221.430857 
L 288.969173 231.305143 
L 289.619132 221.430857 
L 290.269091 221.430857 
L 290.91905 211.556571 
L 291.569009 211.556571 
L 291.893989 206.619429 
L 292.218968 206.619429 
L 292.543948 196.745143 
L 293.193907 196.745143 
L 293.518886 186.870857 
L 293.843866 191.808 
L 294.493825 191.808 
L 295.793743 172.059429 
L 296.118722 176.996571 
L 296.443702 172.059429 
L 296.768681 176.996571 
L 297.093661 172.059429 
L 297.41864 172.059429 
L 298.0686 162.185143 
L 298.393579 167.122286 
L 298.718559 162.185143 
L 299.043538 162.185143 
L 299.368518 167.122286 
L 299.693497 162.185143 
L 300.018477 152.310857 
L 300.668436 152.310857 
L 300.993415 147.373714 
L 301.318395 147.373714 
L 301.643374 142.436571 
L 301.968354 142.436571 
L 302.293333 137.499429 
L 302.618313 137.499429 
L 302.943292 127.625143 
L 303.593251 127.625143 
L 303.918231 122.688 
L 304.24321 127.625143 
L 304.56819 127.625143 
L 305.218149 117.750857 
L 305.868108 117.750857 
L 306.193088 112.813714 
L 307.168026 112.813714 
L 307.493006 102.939429 
L 307.817985 107.876571 
L 308.142965 98.002286 
L 308.467944 98.002286 
L 308.792924 102.939429 
L 309.117903 93.065143 
L 309.442883 98.002286 
L 310.092842 98.002286 
L 310.742801 88.128 
L 311.39276 88.128 
L 311.71774 83.190857 
L 312.042719 88.128 
L 312.692678 78.253714 
L 313.017658 78.253714 
L 313.667617 68.379429 
L 313.992596 78.253714 
L 314.317576 68.379429 
L 314.642555 73.316571 
L 314.967535 68.379429 
L 315.292514 73.316571 
L 315.617494 68.379429 
L 315.942473 68.379429 
L 316.267453 63.442286 
L 316.592432 63.442286 
L 316.917412 58.505143 
L 317.242391 63.442286 
L 317.567371 63.442286 
L 317.892351 58.505143 
L 318.21733 58.505143 
L 318.54231 53.568 
L 319.192269 63.442286 
L 319.517248 53.568 
L 320.167207 63.442286 
L 320.492187 63.442286 
L 321.142146 53.568 
L 321.467125 58.505143 
L 321.792105 53.568 
L 322.117084 58.505143 
L 322.442064 53.568 
L 322.767043 58.505143 
L 323.092023 53.568 
L 323.417002 53.568 
L 323.741982 58.505143 
L 324.066962 53.568 
L 324.391941 58.505143 
L 324.716921 53.568 
L 325.0419 63.442286 
L 325.36688 63.442286 
L 325.691859 68.379429 
L 326.016839 63.442286 
L 326.666798 73.316571 
L 327.316757 73.316571 
L 327.641736 78.253714 
L 328.291695 78.253714 
L 328.616675 83.190857 
L 329.266634 83.190857 
L 329.591613 93.065143 
L 329.916593 88.128 
L 330.241572 98.002286 
L 330.566552 102.939429 
L 331.86647 102.939429 
L 332.19145 112.813714 
L 332.516429 112.813714 
L 332.841409 107.876571 
L 333.166388 112.813714 
L 334.466306 112.813714 
L 334.791286 117.750857 
L 335.116265 112.813714 
L 335.441245 122.688 
L 335.766224 122.688 
L 336.091204 127.625143 
L 336.416183 122.688 
L 336.741163 122.688 
L 337.066143 127.625143 
L 337.391122 122.688 
L 338.041081 132.562286 
L 339.01602 132.562286 
L 339.340999 137.499429 
L 339.665979 137.499429 
L 339.990958 142.436571 
L 340.315938 142.436571 
L 340.640917 152.310857 
L 341.290876 162.185143 
L 341.615856 152.310857 
L 341.940835 157.248 
L 342.590794 157.248 
L 342.915774 162.185143 
L 343.240753 162.185143 
L 343.565733 167.122286 
L 344.540672 167.122286 
L 345.190631 176.996571 
L 345.51561 172.059429 
L 345.84059 176.996571 
L 346.165569 186.870857 
L 346.490549 181.933714 
L 347.140508 181.933714 
L 347.790467 191.808 
L 348.115446 191.808 
L 348.765405 201.682286 
L 350.065324 201.682286 
L 350.390303 206.619429 
L 350.715283 206.619429 
L 351.040262 211.556571 
L 351.365242 221.430857 
L 352.34018 221.430857 
L 352.66516 226.368 
L 352.990139 226.368 
L 353.315119 231.305143 
L 353.640098 231.305143 
L 353.965078 236.242286 
L 354.940016 236.242286 
L 355.264996 241.179429 
L 355.914955 241.179429 
L 356.564914 251.053714 
L 356.889894 246.116571 
L 357.214873 246.116571 
L 357.539853 251.053714 
L 358.189812 251.053714 
L 358.514791 260.928 
L 358.839771 260.928 
L 359.16475 265.865143 
L 359.48973 260.928 
L 359.814709 260.928 
L 360.139689 265.865143 
L 361.114627 265.865143 
L 362.089566 280.676571 
L 363.714464 280.676571 
L 364.039443 285.613714 
L 364.689402 285.613714 
L 365.014382 290.550857 
L 365.339361 290.550857 
L 365.664341 280.676571 
L 365.98932 290.550857 
L 366.3143 285.613714 
L 366.639279 295.488 
L 367.289238 295.488 
L 367.614218 290.550857 
L 367.939197 290.550857 
L 368.264177 295.488 
L 368.589156 295.488 
L 368.914136 290.550857 
L 369.239115 290.550857 
L 369.564095 295.488 
L 370.214054 295.488 
L 370.539034 290.550857 
L 370.864013 290.550857 
L 371.188993 295.488 
L 371.513972 290.550857 
L 371.838952 290.550857 
L 372.163931 295.488 
L 372.488911 295.488 
L 373.13887 285.613714 
L 373.463849 290.550857 
L 374.113808 280.676571 
L 374.763767 280.676571 
L 375.738706 265.865143 
L 376.388665 265.865143 
L 376.713645 255.990857 
L 377.038624 260.928 
L 377.363604 260.928 
L 377.688583 255.990857 
L 378.013563 255.990857 
L 378.338542 251.053714 
L 378.663522 251.053714 
L 379.313481 241.179429 
L 379.63846 241.179429 
L 379.96344 246.116571 
L 380.613399 236.242286 
L 380.938378 236.242286 
L 381.263358 231.305143 
L 381.588337 236.242286 
L 381.913317 226.368 
L 382.238296 236.242286 
L 382.563276 231.305143 
L 382.888256 236.242286 
L 383.213235 226.368 
L 383.538215 231.305143 
L 383.863194 221.430857 
L 385.163112 221.430857 
L 385.488092 216.493714 
L 385.813071 221.430857 
L 386.138051 211.556571 
L 386.78801 211.556571 
L 387.112989 206.619429 
L 387.437969 206.619429 
L 387.762948 211.556571 
L 388.412907 201.682286 
L 388.737887 191.808 
L 390.037805 191.808 
L 390.687764 181.933714 
L 391.337723 181.933714 
L 391.662703 172.059429 
L 391.987682 176.996571 
L 392.312662 167.122286 
L 392.637641 172.059429 
L 392.962621 172.059429 
L 393.2876 176.996571 
L 393.61258 167.122286 
L 394.262539 167.122286 
L 394.587518 162.185143 
L 394.912498 162.185143 
L 395.237477 157.248 
L 395.562457 162.185143 
L 395.887437 157.248 
L 396.212416 157.248 
L 396.537396 147.373714 
L 397.187355 147.373714 
L 397.512334 137.499429 
L 398.162293 147.373714 
L 398.487273 142.436571 
L 398.487273 142.436571 
" clip-path="url(#p1c6efc548b)" style="fill: none; stroke: #ff7f0e; stroke-width: 1.5; stroke-linecap: square"/>
   </g>
   <g id="line2d_15">
    <path d="M 73.832727 141.160201 
L 77.407502 141.229321 
L 79.357379 141.150327 
L 91.056642 141.224384 
L 94.631417 141.199699 
L 96.256314 141.268819 
L 99.50611 141.14539 
L 103.080885 141.254007 
L 106.980639 141.175013 
L 109.905455 141.298441 
L 113.480229 141.21451 
L 115.430106 141.313253 
L 119.004881 141.160201 
L 121.279738 141.268819 
L 123.554595 141.175013 
L 125.504472 141.14539 
L 127.454349 141.278693 
L 133.62896 141.28363 
L 135.253857 141.263881 
L 137.528714 141.155264 
L 140.778509 141.268819 
L 144.678264 141.17995 
L 146.628141 141.263881 
L 151.502834 141.224384 
L 153.127731 141.234259 
L 158.652383 141.244133 
L 160.92724 141.263881 
L 163.527076 141.199699 
L 168.401769 141.184887 
L 170.026667 141.160201 
L 172.951482 141.244133 
L 174.90136 141.125641 
L 187.250581 141.209573 
L 190.175397 141.160201 
L 192.125274 141.268819 
L 195.05009 141.150327 
L 206.424373 141.239196 
L 208.374251 141.135516 
L 212.274005 141.229321 
L 214.548862 141.140453 
L 218.448616 141.229321 
L 221.698411 141.17995 
L 223.648288 141.278693 
L 227.873022 141.17995 
L 230.797838 141.288567 
L 233.722654 141.175013 
L 237.297428 141.239196 
L 240.222244 141.165139 
L 243.14706 141.244133 
L 246.396855 141.194761 
L 249.321671 141.239196 
L 253.546405 141.199699 
L 256.7962 141.263881 
L 260.695954 141.194761 
L 263.62077 141.219447 
L 265.895627 141.165139 
L 268.495463 141.258944 
L 271.420278 141.14539 
L 273.695135 141.21451 
L 277.919869 141.170076 
L 292.868927 141.254007 
L 294.168845 141.298441 
L 298.718559 141.175013 
L 301.968354 141.273756 
L 303.918231 141.130579 
L 305.868108 141.263881 
L 307.168026 141.303379 
L 310.742801 141.155264 
L 313.342637 141.268819 
L 316.917412 141.135516 
L 320.817166 141.204636 
L 324.066962 141.194761 
L 327.316757 141.234259 
L 328.941654 141.14539 
L 333.816347 141.194761 
L 336.091204 141.155264 
L 339.01602 141.234259 
L 349.090385 141.175013 
L 351.690221 141.273756 
L 360.464668 141.165139 
L 362.739525 141.224384 
L 364.689402 141.239196 
L 367.614218 141.170076 
L 371.188993 141.224384 
L 381.913317 141.155264 
L 383.863194 141.258944 
L 388.412907 141.229321 
L 390.362785 141.278693 
L 392.637641 141.170076 
L 395.562457 141.234259 
L 397.512334 141.28363 
L 398.487273 141.194761 
L 398.487273 141.194761 
" clip-path="url(#p1c6efc548b)" style="fill: none; stroke: #2ca02c; stroke-width: 1.5; stroke-linecap: square"/>
   </g>
   <g id="patch_3">
    <path d="M 57.6 307.584 
L 57.6 41.472 
" style="fill: none; stroke: #000000; stroke-width: 0.8; stroke-linejoin: miter; stroke-linecap: square"/>
   </g>
   <g id="patch_4">
    <path d="M 414.72 307.584 
L 414.72 41.472 
" style="fill: none; stroke: #000000; stroke-width: 0.8; stroke-linejoin: miter; stroke-linecap: square"/>
   </g>
   <g id="patch_5">
    <path d="M 57.6 307.584 
L 414.72 307.584 
" style="fill: none; stroke: #000000; stroke-width: 0.8; stroke-linejoin: miter; stroke-linecap: square"/>
   </g>
   <g id="patch_6">
    <path d="M 57.6 41.472 
L 414.72 41.472 
" style="fill: none; stroke: #000000; stroke-width: 0.8; stroke-linejoin: miter; stroke-linecap: square"/>
   </g>
  </g>
 </g>
 <defs>
  <clipPath id="p1c6efc548b">
   <rect x="57.6" y="41.472" width="357.12" height="266.112"/>
  </clipPath>
 </defs>
</svg>
