<?xml version="1.0" encoding="utf-8" standalone="no"?>
<!DOCTYPE svg PUBLIC "-//W3C//DTD SVG 1.1//EN"
  "http://www.w3.org/Graphics/SVG/1.1/DTD/svg11.dtd">
<svg xmlns:xlink="http://www.w3.org/1999/xlink" width="460.8pt" height="345.6pt" viewBox="0 0 460.8 345.6" xmlns="http://www.w3.org/2000/svg" version="1.1">
 <metadata>
  <rdf:RDF xmlns:dc="http://purl.org/dc/elements/1.1/" xmlns:cc="http://creativecommons.org/ns#" xmlns:rdf="http://www.w3.org/1999/02/22-rdf-syntax-ns#">
   <cc:Work>
    <dc:type rdf:resource="http://purl.org/dc/dcmitype/StillImage"/>
    <dc:date>2025-12-31T13:20:35.775155</dc:date>
    <dc:format>image/svg+xml</dc:format>
    <dc:creator>
     <cc:Agent>
      <dc:title>Matplotlib v3.10.8, https://matplotlib.org/</dc:title>
     </cc:Agent>
    </dc:creator>
   </cc:Work>
  </rdf:RDF>
 </metadata>
 <defs>
  <style type="text/css">*{stroke-linejoin: round; stroke-linecap: butt}</style>
 </defs>
 <g id="figure_1">
  <g id="patch_1">
   <path d="M 0 345.6 
L 460.8 345.6 
L 460.8 0 
L 0 0 
z
" style="fill: #ffffff"/>
  </g>
  <g id="axes_1">
   <g id="patch_2">
    <path d="M 57.6 307.584 
L 414.72 307.584 
L 414.72 41.472 
L 57.6 41.472 
z
" style="fill: #ffffff"/>
   </g>
   <g id="matplotlib.axis_1">
    <g id="xtick_1">
     <g id="line2d_1">
      <defs>
       <path id="m756719dccf" d="M 0 0 
L 0 3.5 
" style="stroke: #000000; stroke-width: 0.8"/>
      </defs>
      <g>
       <use xlink:href="#m756719dccf" x="73.832727" y="307.584" style="stroke: #000000; stroke-width: 0.8"/>
      </g>
     </g>
     <g id="text_1">
      <!-- 0 -->
      <g transform="translate(70.651477 322.182437) scale(0.1 -0.1)">
       <defs>
        <path id="DejaVuSans-30" d="M 2034 4250 
Q 1547 4250 1301 3770 
Q 1056 3291 1056 2328 
Q 1056 1369 1301 889 
Q 1547 409 2034 409 
Q 2525 409 2770 889 
Q 3016 1369 3016 2328 
Q 3016 3291 2770 3770 
Q 2525 4250 2034 4250 
z
M 2034 4750 
Q 2819 4750 3233 4129 
Q 3647 3509 3647 2328 
Q 3647 1150 3233 529 
Q 2819 -91 2034 -91 
Q 1250 -91 836 529 
Q 422 1150 422 2328 
Q 422 3509 836 4129 
Q 1250 4750 2034 4750 
z
" transform="scale(0.015625)"/>
       </defs>
       <use xlink:href="#DejaVuSans-30"/>
      </g>
     </g>
    </g>
    <g id="xtick_2">
     <g id="line2d_2">
      <g>
       <use xlink:href="#m756719dccf" x="138.828632" y="307.584" style="stroke: #000000; stroke-width: 0.8"/>
      </g>
     </g>
     <g id="text_2">
      <!-- 1 -->
      <g transform="translate(135.647382 322.182437) scale(0.1 -0.1)">
       <defs>
        <path id="DejaVuSans-31" d="M 794 531 
L 1825 531 
L 1825 4091 
L 703 3866 
L 703 4441 
L 1819 4666 
L 2450 4666 
L 2450 531 
L 3481 531 
L 3481 0 
L 794 0 
L 794 531 
z
" transform="scale(0.015625)"/>
       </defs>
       <use xlink:href="#DejaVuSans-31"/>
      </g>
     </g>
    </g>
    <g id="xtick_3">
     <g id="line2d_3">
      <g>
       <use xlink:href="#m756719dccf" x="203.824537" y="307.584" style="stroke: #000000; stroke-width: 0.8"/>
      </g>
     </g>
     <g id="text_3">
      <!-- 2 -->
      <g transform="translate(200.643287 322.182437) scale(0.1 -0.1)">
       <defs>
        <path id="DejaVuSans-32" d="M 1228 531 
L 3431 531 
L 3431 0 
L 469 0 
L 469 531 
Q 828 903 1448 1529 
Q 2069 2156 2228 2338 
Q 2531 2678 2651 2914 
Q 2772 3150 2772 3378 
Q 2772 3750 2511 3984 
Q 2250 4219 1831 4219 
Q 1534 4219 1204 4116 
Q 875 4013 500 3803 
L 500 4441 
Q 881 4594 1212 4672 
Q 1544 4750 1819 4750 
Q 2544 4750 2975 4387 
Q 3406 4025 3406 3419 
Q 3406 3131 3298 2873 
Q 3191 2616 2906 2266 
Q 2828 2175 2409 1742 
Q 1991 1309 1228 531 
z
" transform="scale(0.015625)"/>
       </defs>
       <use xlink:href="#DejaVuSans-32"/>
      </g>
     </g>
    </g>
    <g id="xtick_4">
     <g id="line2d_4">
      <g>
       <use xlink:href="#m756719dccf" x="268.820442" y="307.584" style="stroke: #000000; stroke-width: 0.8"/>
      </g>
     </g>
     <g id="text_4">
      <!-- 3 -->
      <g transform="translate(265.639192 322.182437) scale(0.1 -0.1)">
       <defs>
        <path id="DejaVuSans-33" d="M 2597 2516 
Q 3050 2419 3304 2112 
Q 3559 1806 3559 1356 
Q 3559 666 3084 287 
Q 2609 -91 1734 -91 
Q 1441 -91 1130 -33 
Q 819 25 488 141 
L 488 750 
Q 750 597 1062 519 
Q 1375 441 1716 441 
Q 2309 441 2620 675 
Q 2931 909 2931 1356 
Q 2931 1769 2642 2001 
Q 2353 2234 1838 2234 
L 1294 2234 
L 1294 2753 
L 1863 2753 
Q 2328 2753 2575 2939 
Q 2822 3125 2822 3475 
Q 2822 3834 2567 4026 
Q 2313 4219 1838 4219 
Q 1578 4219 1281 4162 
Q 984 4106 628 3988 
L 628 4550 
Q 988 4650 1302 4700 
Q 1616 4750 1894 4750 
Q 2613 4750 3031 4423 
Q 3450 4097 3450 3541 
Q 3450 3153 3228 2886 
Q 3006 2619 2597 2516 
z
" transform="scale(0.015625)"/>
       </defs>
       <use xlink:href="#DejaVuSans-33"/>
      </g>
     </g>
    </g>
    <g id="xtick_5">
     <g id="line2d_5">
      <g>
       <use xlink:href="#m756719dccf" x="333.816347" y="307.584" style="stroke: #000000; stroke-width: 0.8"/>
      </g>
     </g>
     <g id="text_5">
      <!-- 4 -->
      <g transform="translate(330.635097 322.182437) scale(0.1 -0.1)">
       <defs>
        <path id="DejaVuSans-34" d="M 2419 4116 
L 825 1625 
L 2419 1625 
L 2419 4116 
z
M 2253 4666 
L 3047 4666 
L 3047 1625 
L 3713 1625 
L 3713 1100 
L 3047 1100 
L 3047 0 
L 2419 0 
L 2419 1100 
L 313 1100 
L 313 1709 
L 2253 4666 
z
" transform="scale(0.015625)"/>
       </defs>
       <use xlink:href="#DejaVuSans-34"/>
      </g>
     </g>
    </g>
    <g id="xtick_6">
     <g id="line2d_6">
      <g>
       <use xlink:href="#m756719dccf" x="398.812252" y="307.584" style="stroke: #000000; stroke-width: 0.8"/>
      </g>
     </g>
     <g id="text_6">
      <!-- 5 -->
      <g transform="translate(395.631002 322.182437) scale(0.1 -0.1)">
       <defs>
        <path id="DejaVuSans-35" d="M 691 4666 
L 3169 4666 
L 3169 4134 
L 1269 4134 
L 1269 2991 
Q 1406 3038 1543 3061 
Q 1681 3084 1819 3084 
Q 2600 3084 3056 2656 
Q 3513 2228 3513 1497 
Q 3513 744 3044 326 
Q 2575 -91 1722 -91 
Q 1428 -91 1123 -41 
Q 819 9 494 109 
L 494 744 
Q 775 591 1075 516 
Q 1375 441 1709 441 
Q 2250 441 2565 725 
Q 2881 1009 2881 1497 
Q 2881 1984 2565 2268 
Q 2250 2553 1709 2553 
Q 1456 2553 1204 2497 
Q 953 2441 691 2322 
L 691 4666 
z
" transform="scale(0.015625)"/>
       </defs>
       <use xlink:href="#DejaVuSans-35"/>
      </g>
     </g>
    </g>
    <g id="text_7">
     <!-- 1e−7 -->
     <g transform="translate(387.462188 334.860562) scale(0.1 -0.1)">
      <defs>
       <path id="DejaVuSans-65" d="M 3597 1894 
L 3597 1613 
L 953 1613 
Q 991 1019 1311 708 
Q 1631 397 2203 397 
Q 2534 397 2845 478 
Q 3156 559 3463 722 
L 3463 178 
Q 3153 47 2828 -22 
Q 2503 -91 2169 -91 
Q 1331 -91 842 396 
Q 353 884 353 1716 
Q 353 2575 817 3079 
Q 1281 3584 2069 3584 
Q 2775 3584 3186 3129 
Q 3597 2675 3597 1894 
z
M 3022 2063 
Q 3016 2534 2758 2815 
Q 2500 3097 2075 3097 
Q 1594 3097 1305 2825 
Q 1016 2553 972 2059 
L 3022 2063 
z
" transform="scale(0.015625)"/>
       <path id="DejaVuSans-2212" d="M 678 2272 
L 4684 2272 
L 4684 1741 
L 678 1741 
L 678 2272 
z
" transform="scale(0.015625)"/>
       <path id="DejaVuSans-37" d="M 525 4666 
L 3525 4666 
L 3525 4397 
L 1831 0 
L 1172 0 
L 2766 4134 
L 525 4134 
L 525 4666 
z
" transform="scale(0.015625)"/>
      </defs>
      <use xlink:href="#DejaVuSans-31"/>
      <use xlink:href="#DejaVuSans-65" transform="translate(63.623047 0)"/>
      <use xlink:href="#DejaVuSans-2212" transform="translate(125.146484 0)"/>
      <use xlink:href="#DejaVuSans-37" transform="translate(208.935547 0)"/>
     </g>
    </g>
   </g>
   <g id="matplotlib.axis_2">
    <g id="ytick_1">
     <g id="line2d_7">
      <defs>
       <path id="m70a1a3a120" d="M 0 0 
L -3.5 0 
" style="stroke: #000000; stroke-width: 0.8"/>
      </defs>
      <g>
       <use xlink:href="#m70a1a3a120" x="57.6" y="299.881817" style="stroke: #000000; stroke-width: 0.8"/>
      </g>
     </g>
     <g id="text_8">
      <!-- 0 -->
      <g transform="translate(44.2375 303.681036) scale(0.1 -0.1)">
       <use xlink:href="#DejaVuSans-30"/>
      </g>
     </g>
    </g>
    <g id="ytick_2">
     <g id="line2d_8">
      <g>
       <use xlink:href="#m70a1a3a120" x="57.6" y="269.536205" style="stroke: #000000; stroke-width: 0.8"/>
      </g>
     </g>
     <g id="text_9">
      <!-- 5 -->
      <g transform="translate(44.2375 273.335424) scale(0.1 -0.1)">
       <use xlink:href="#DejaVuSans-35"/>
      </g>
     </g>
    </g>
    <g id="ytick_3">
     <g id="line2d_9">
      <g>
       <use xlink:href="#m70a1a3a120" x="57.6" y="239.190593" style="stroke: #000000; stroke-width: 0.8"/>
      </g>
     </g>
     <g id="text_10">
      <!-- 10 -->
      <g transform="translate(37.875 242.989811) scale(0.1 -0.1)">
       <use xlink:href="#DejaVuSans-31"/>
       <use xlink:href="#DejaVuSans-30" transform="translate(63.623047 0)"/>
      </g>
     </g>
    </g>
    <g id="ytick_4">
     <g id="line2d_10">
      <g>
       <use xlink:href="#m70a1a3a120" x="57.6" y="208.84498" style="stroke: #000000; stroke-width: 0.8"/>
      </g>
     </g>
     <g id="text_11">
      <!-- 15 -->
      <g transform="translate(37.875 212.644199) scale(0.1 -0.1)">
       <use xlink:href="#DejaVuSans-31"/>
       <use xlink:href="#DejaVuSans-35" transform="translate(63.623047 0)"/>
      </g>
     </g>
    </g>
    <g id="ytick_5">
     <g id="line2d_11">
      <g>
       <use xlink:href="#m70a1a3a120" x="57.6" y="178.499368" style="stroke: #000000; stroke-width: 0.8"/>
      </g>
     </g>
     <g id="text_12">
      <!-- 20 -->
      <g transform="translate(37.875 182.298587) scale(0.1 -0.1)">
       <use xlink:href="#DejaVuSans-32"/>
       <use xlink:href="#DejaVuSans-30" transform="translate(63.623047 0)"/>
      </g>
     </g>
    </g>
    <g id="ytick_6">
     <g id="line2d_12">
      <g>
       <use xlink:href="#m70a1a3a120" x="57.6" y="148.153756" style="stroke: #000000; stroke-width: 0.8"/>
      </g>
     </g>
     <g id="text_13">
      <!-- 25 -->
      <g transform="translate(37.875 151.952975) scale(0.1 -0.1)">
       <use xlink:href="#DejaVuSans-32"/>
       <use xlink:href="#DejaVuSans-35" transform="translate(63.623047 0)"/>
      </g>
     </g>
    </g>
    <g id="ytick_7">
     <g id="line2d_13">
      <g>
       <use xlink:href="#m70a1a3a120" x="57.6" y="117.808144" style="stroke: #000000; stroke-width: 0.8"/>
      </g>
     </g>
     <g id="text_14">
      <!-- 30 -->
      <g transform="translate(37.875 121.607363) scale(0.1 -0.1)">
       <use xlink:href="#DejaVuSans-33"/>
       <use xlink:href="#DejaVuSans-30" transform="translate(63.623047 0)"/>
      </g>
     </g>
    </g>
    <g id="ytick_8">
     <g id="line2d_14">
      <g>
       <use xlink:href="#m70a1a3a120" x="57.6" y="87.462532" style="stroke: #000000; stroke-width: 0.8"/>
      </g>
     </g>
     <g id="text_15">
      <!-- 35 -->
      <g transform="translate(37.875 91.26175) scale(0.1 -0.1)">
       <use xlink:href="#DejaVuSans-33"/>
       <use xlink:href="#DejaVuSans-35" transform="translate(63.623047 0)"/>
      </g>
     </g>
    </g>
    <g id="ytick_9">
     <g id="line2d_15">
      <g>
       <use xlink:href="#m70a1a3a120" x="57.6" y="57.116919" style="stroke: #000000; stroke-width: 0.8"/>
      </g>
     </g>
     <g id="text_16">
      <!-- 40 -->
      <g transform="translate(37.875 60.916138) scale(0.1 -0.1)">
       <use xlink:href="#DejaVuSans-34"/>
       <use xlink:href="#DejaVuSans-30" transform="translate(63.623047 0)"/>
      </g>
     </g>
    </g>
   </g>
   <g id="line2d_16">
    <path d="M 73.832727 148.420797 
L 74.157707 147.946647 
L 74.807666 148.041477 
L 75.132645 148.136307 
L 75.782604 147.851817 
L 76.432563 148.136307 
L 76.757543 148.231137 
L 77.407502 147.662157 
L 77.732482 147.567327 
L 78.057461 147.662157 
L 78.70742 147.377667 
L 79.357379 147.093177 
L 79.682359 147.282837 
L 80.007338 147.662157 
L 80.332318 147.662157 
L 80.657297 147.472497 
L 80.982277 147.093177 
L 81.307256 147.282837 
L 81.632236 147.662157 
L 81.957215 147.851817 
L 82.282195 147.756987 
L 82.607174 147.188007 
L 82.932154 146.903516 
L 83.257133 146.808686 
L 83.582113 146.903516 
L 84.882031 146.619026 
L 85.53199 147.377667 
L 85.85697 147.662157 
L 86.506929 147.567327 
L 87.156888 147.567327 
L 87.481867 147.188007 
L 88.131826 146.239706 
L 88.456806 146.050046 
L 88.781785 146.619026 
L 89.431744 147.093177 
L 89.756724 146.998347 
L 91.056642 147.756987 
L 91.381622 147.567327 
L 92.031581 146.808686 
L 92.35656 146.619026 
L 93.331499 146.619026 
L 93.656478 146.429366 
L 94.306437 146.524196 
L 94.956396 147.282837 
L 95.606355 147.377667 
L 95.931335 147.282837 
L 96.581294 146.713856 
L 98.531171 146.239706 
L 98.856151 146.524196 
L 99.50611 147.567327 
L 99.831089 147.662157 
L 100.481048 146.429366 
L 100.806028 146.050046 
L 101.780966 145.955216 
L 102.755905 145.101746 
L 103.730844 146.713856 
L 104.055823 146.713856 
L 104.705782 145.860386 
L 105.680721 146.524196 
L 106.0057 146.144876 
L 106.655659 144.817256 
L 106.980639 144.912086 
L 107.630598 146.334536 
L 107.955577 146.334536 
L 108.280557 146.050046 
L 108.605536 145.575896 
L 108.930516 145.481066 
L 109.255495 145.670726 
L 109.905455 146.524196 
L 110.230434 146.713856 
L 110.555414 146.619026 
L 110.880393 146.144876 
L 111.205373 145.386236 
L 111.530352 145.196576 
L 111.855332 145.575896 
L 112.505291 146.619026 
L 112.83027 146.619026 
L 113.480229 145.955216 
L 113.805209 145.860386 
L 114.130188 146.144876 
L 114.780147 146.239706 
L 115.105127 146.050046 
L 115.430106 146.334536 
L 115.755086 146.429366 
L 116.405045 146.050046 
L 116.730025 146.050046 
L 117.055004 146.239706 
L 118.354922 146.334536 
L 119.329861 147.093177 
L 120.304799 146.144876 
L 120.954758 146.808686 
L 121.279738 147.188007 
L 121.604717 146.998347 
L 122.254676 145.860386 
L 122.579656 145.670726 
L 122.904636 146.144876 
L 123.554595 147.662157 
L 123.879574 147.567327 
L 124.529533 146.429366 
L 124.854513 146.144876 
L 125.179492 146.429366 
L 125.829451 147.282837 
L 127.129369 146.524196 
L 127.454349 146.808686 
L 127.779328 146.903516 
L 128.429287 147.377667 
L 128.754267 147.567327 
L 129.079247 147.188007 
L 129.729206 146.903516 
L 130.054185 146.808686 
L 131.029124 147.282837 
L 132.004062 147.662157 
L 132.329042 147.851817 
L 132.654021 147.662157 
L 132.979001 147.282837 
L 133.62896 147.188007 
L 134.928878 147.472497 
L 135.903817 147.377667 
L 137.203735 148.420797 
L 137.528714 148.325967 
L 137.853694 147.851817 
L 138.178673 147.662157 
L 138.828632 148.610457 
L 139.153612 148.705287 
L 140.778509 147.377667 
L 141.103489 147.377667 
L 141.428468 147.567327 
L 142.403407 148.705287 
L 143.053366 148.136307 
L 143.378346 148.041477 
L 143.703325 148.136307 
L 144.028305 147.851817 
L 144.678264 147.851817 
L 145.003243 148.041477 
L 145.328223 148.515627 
L 146.303161 148.800117 
L 146.628141 149.084608 
L 147.2781 150.222568 
L 147.603079 149.748418 
L 148.253038 147.377667 
L 148.578018 147.093177 
L 149.552957 148.894947 
L 149.877936 148.800117 
L 150.202916 148.420797 
L 150.527895 148.515627 
L 151.177854 149.274268 
L 151.827813 149.274268 
L 153.127731 148.231137 
L 153.77769 148.325967 
L 154.427649 148.800117 
L 155.727568 149.463928 
L 156.377527 149.084608 
L 156.702506 148.515627 
L 157.027486 148.325967 
L 157.352465 148.515627 
L 157.677445 148.894947 
L 158.002424 148.989777 
L 158.327404 148.610457 
L 158.652383 148.041477 
L 158.977363 147.851817 
L 159.627322 149.179438 
L 159.952301 149.843248 
L 160.277281 149.938078 
L 161.252219 148.610457 
L 162.877117 148.231137 
L 164.177035 148.515627 
L 164.826994 149.463928 
L 165.151974 149.369098 
L 165.476953 148.989777 
L 166.126912 147.946647 
L 166.451892 147.851817 
L 167.42683 148.800117 
L 168.07679 148.041477 
L 168.401769 148.041477 
L 169.051728 148.800117 
L 170.351646 148.041477 
L 171.001605 148.231137 
L 171.326585 148.041477 
L 171.651564 148.041477 
L 171.976544 148.231137 
L 172.626503 148.231137 
L 173.601441 147.662157 
L 174.2514 147.662157 
L 175.226339 147.188007 
L 175.876298 147.756987 
L 176.201278 147.662157 
L 176.851237 147.188007 
L 177.176216 147.188007 
L 177.501196 147.567327 
L 177.826175 147.756987 
L 178.151155 147.662157 
L 178.801114 146.903516 
L 179.776052 146.903516 
L 180.426011 146.524196 
L 180.750991 146.713856 
L 181.40095 147.472497 
L 181.72593 147.662157 
L 182.050909 147.567327 
L 182.375889 147.662157 
L 183.025848 147.567327 
L 183.675807 146.524196 
L 184.000786 146.144876 
L 184.325766 146.050046 
L 184.975725 146.808686 
L 185.300704 146.998347 
L 185.625684 146.998347 
L 186.925602 147.756987 
L 187.575561 147.093177 
L 187.900541 146.713856 
L 188.5505 146.524196 
L 188.875479 146.619026 
L 189.525438 146.429366 
L 190.175397 146.619026 
L 190.825356 147.188007 
L 191.475315 147.377667 
L 191.800295 147.188007 
L 192.450254 146.524196 
L 192.775233 146.619026 
L 193.100213 146.429366 
L 193.425192 146.524196 
L 194.075152 145.955216 
L 194.400131 146.144876 
L 195.37507 147.662157 
L 195.700049 147.756987 
L 196.350008 146.429366 
L 196.674988 146.144876 
L 197.324947 146.144876 
L 197.974906 145.860386 
L 198.299885 145.386236 
L 198.624865 145.291406 
L 198.949844 145.575896 
L 199.274824 146.429366 
L 199.599803 146.808686 
L 199.924783 146.903516 
L 200.249762 146.524196 
L 200.574742 145.955216 
L 200.899722 146.050046 
L 201.549681 146.713856 
L 201.87466 146.239706 
L 202.19964 145.481066 
L 202.524619 145.006916 
L 202.849599 145.006916 
L 203.499558 146.334536 
L 203.824537 146.334536 
L 204.474496 145.670726 
L 204.799476 145.575896 
L 205.124455 145.670726 
L 206.099394 146.903516 
L 206.424373 146.713856 
L 207.399312 145.196576 
L 207.724292 145.575896 
L 208.374251 146.808686 
L 209.02421 146.334536 
L 209.349189 145.955216 
L 210.649107 146.239706 
L 210.974087 146.144876 
L 211.299066 146.429366 
L 211.624046 146.429366 
L 212.598984 145.955216 
L 212.923964 146.239706 
L 214.223882 146.239706 
L 214.548862 146.524196 
L 214.873841 146.998347 
L 215.198821 147.188007 
L 215.84878 146.334536 
L 216.173759 146.144876 
L 216.498739 146.429366 
L 217.148698 147.282837 
L 217.473677 147.093177 
L 218.123636 145.860386 
L 218.448616 145.670726 
L 218.773595 146.144876 
L 219.423554 147.756987 
L 219.748534 147.662157 
L 220.398493 146.429366 
L 220.723473 146.239706 
L 221.698411 147.377667 
L 222.023391 147.377667 
L 222.67335 146.808686 
L 222.998329 146.713856 
L 224.623227 147.662157 
L 224.948206 147.282837 
L 225.598165 146.998347 
L 226.573104 147.093177 
L 227.223063 147.282837 
L 227.873022 147.756987 
L 228.198002 147.851817 
L 228.522981 147.756987 
L 228.847961 147.282837 
L 229.17294 147.188007 
L 230.147879 147.377667 
L 231.122817 147.377667 
L 231.447797 147.567327 
L 231.772776 147.472497 
L 232.422735 147.946647 
L 232.747715 148.325967 
L 233.072695 148.515627 
L 234.047633 147.662157 
L 234.697592 148.705287 
L 235.022572 148.800117 
L 235.347551 148.515627 
L 235.99751 147.567327 
L 236.972449 147.377667 
L 237.297428 147.567327 
L 237.947387 148.515627 
L 238.272367 148.610457 
L 239.247305 147.946647 
L 239.572285 148.041477 
L 240.547224 147.851817 
L 241.522162 148.705287 
L 242.172121 148.800117 
L 242.497101 149.084608 
L 243.14706 150.317398 
L 243.472039 149.748418 
L 244.121998 147.282837 
L 244.446978 146.998347 
L 245.421916 149.084608 
L 246.071876 148.420797 
L 246.396855 148.515627 
L 247.046814 149.274268 
L 247.696773 149.369098 
L 248.021753 149.179438 
L 248.671712 148.420797 
L 248.996691 148.231137 
L 249.64665 148.325967 
L 250.296609 148.800117 
L 251.921507 149.274268 
L 252.246486 148.894947 
L 252.571466 148.325967 
L 252.896446 148.231137 
L 253.546405 148.894947 
L 253.871384 148.894947 
L 254.196364 148.610457 
L 254.521343 148.041477 
L 254.846323 147.756987 
L 255.496282 149.084608 
L 255.821261 149.748418 
L 256.146241 149.748418 
L 256.47122 149.369098 
L 256.7962 148.800117 
L 257.771138 148.231137 
L 258.096118 148.325967 
L 259.071057 148.136307 
L 260.045995 148.420797 
L 260.695954 149.179438 
L 261.020934 149.179438 
L 261.345913 148.800117 
L 261.995872 147.851817 
L 262.320852 147.756987 
L 263.29579 148.610457 
L 263.62077 148.420797 
L 263.945749 147.946647 
L 264.270729 148.041477 
L 264.595708 148.420797 
L 264.920688 148.610457 
L 265.570647 148.420797 
L 265.895627 147.946647 
L 268.170483 148.041477 
L 268.495463 148.231137 
L 268.820442 148.041477 
L 269.145422 147.662157 
L 269.470401 147.472497 
L 269.795381 147.662157 
L 270.12036 147.662157 
L 270.44534 147.377667 
L 271.095299 147.188007 
L 271.745258 147.662157 
L 272.070238 147.662157 
L 272.395217 147.472497 
L 272.720197 147.093177 
L 273.695135 147.756987 
L 274.345094 147.282837 
L 274.670074 146.903516 
L 274.995053 146.808686 
L 275.320033 146.903516 
L 276.619951 146.619026 
L 277.26991 147.472497 
L 278.894808 147.472497 
L 279.219787 147.093177 
L 279.869746 146.144876 
L 280.194726 146.144876 
L 280.844685 146.808686 
L 281.169664 147.093177 
L 281.494644 146.998347 
L 282.794562 147.662157 
L 283.119541 147.472497 
L 283.7695 146.713856 
L 284.09448 146.524196 
L 284.744439 146.619026 
L 285.069419 146.429366 
L 286.044357 146.429366 
L 286.369337 146.998347 
L 286.694316 147.282837 
L 287.344275 147.282837 
L 287.994234 146.808686 
L 288.319214 146.524196 
L 289.294152 146.524196 
L 289.619132 146.334536 
L 289.944111 145.955216 
L 291.244029 147.472497 
L 291.569009 147.567327 
L 292.218968 146.334536 
L 292.543948 145.955216 
L 293.518886 145.955216 
L 294.168845 145.291406 
L 294.493825 145.291406 
L 294.818804 145.575896 
L 295.468763 146.713856 
L 295.793743 146.713856 
L 296.443702 145.860386 
L 296.768681 145.955216 
L 297.41864 146.524196 
L 297.74362 146.144876 
L 298.393579 144.912086 
L 298.718559 145.006916 
L 299.368518 146.239706 
L 299.693497 146.334536 
L 300.668436 145.575896 
L 300.993415 145.765556 
L 301.968354 146.808686 
L 302.293333 146.808686 
L 302.943292 145.386236 
L 303.268272 145.291406 
L 303.593251 145.575896 
L 304.24321 146.808686 
L 304.56819 146.713856 
L 305.218149 145.955216 
L 306.193088 146.429366 
L 306.843047 146.144876 
L 307.168026 146.524196 
L 307.493006 146.524196 
L 308.142965 145.955216 
L 309.442883 146.334536 
L 309.767862 146.239706 
L 310.092842 146.334536 
L 311.067781 147.093177 
L 312.042719 146.050046 
L 312.692678 146.903516 
L 313.017658 147.188007 
L 313.342637 146.998347 
L 314.317576 145.670726 
L 314.642555 146.050046 
L 315.292514 147.567327 
L 315.617494 147.472497 
L 316.267453 146.429366 
L 316.592432 146.239706 
L 316.917412 146.429366 
L 317.567371 147.282837 
L 318.21733 146.998347 
L 318.54231 146.713856 
L 319.192269 146.619026 
L 320.492187 147.662157 
L 321.467125 146.903516 
L 322.117084 146.998347 
L 323.092023 147.282837 
L 323.417002 147.567327 
L 324.066962 147.756987 
L 324.391941 147.472497 
L 325.36688 147.282837 
L 326.341818 147.472497 
L 327.641736 147.377667 
L 328.291695 148.041477 
L 328.616675 148.420797 
L 328.941654 148.420797 
L 329.266634 148.231137 
L 329.591613 147.756987 
L 329.916593 147.662157 
L 330.566552 148.515627 
L 330.891532 148.705287 
L 331.541491 148.041477 
L 332.19145 147.377667 
L 332.841409 147.282837 
L 333.491368 147.946647 
L 333.816347 148.420797 
L 334.141327 148.515627 
L 334.466306 148.420797 
L 334.791286 148.041477 
L 335.116265 147.946647 
L 335.441245 148.041477 
L 336.091204 147.756987 
L 336.741163 148.041477 
L 337.391122 148.515627 
L 338.041081 148.610457 
L 339.01602 150.127738 
L 339.340999 149.653588 
L 339.990958 147.282837 
L 340.315938 146.998347 
L 340.640917 147.472497 
L 341.290876 148.800117 
L 341.615856 148.705287 
L 341.940835 148.420797 
L 342.265815 148.515627 
L 342.915774 149.179438 
L 343.565733 149.274268 
L 344.865651 148.231137 
L 345.51561 148.325967 
L 346.165569 148.800117 
L 347.140508 149.179438 
L 347.465487 149.369098 
L 347.790467 149.274268 
L 348.115446 148.894947 
L 348.440426 148.231137 
L 349.090385 148.515627 
L 349.415364 148.800117 
L 349.740344 148.894947 
L 350.390303 147.946647 
L 350.715283 147.851817 
L 351.040262 148.325967 
L 351.690221 149.843248 
L 352.015201 149.843248 
L 352.990139 148.515627 
L 353.315119 148.515627 
L 353.640098 148.325967 
L 353.965078 148.325967 
L 354.290057 148.041477 
L 355.264996 148.231137 
L 355.914955 148.325967 
L 356.239934 148.894947 
L 356.564914 149.179438 
L 356.889894 149.274268 
L 357.864832 147.756987 
L 358.189812 147.756987 
L 359.16475 148.420797 
L 359.48973 148.231137 
L 359.814709 147.851817 
L 360.139689 147.946647 
L 360.464668 148.325967 
L 360.789648 148.515627 
L 361.114627 148.515627 
L 361.439607 148.325967 
L 361.764586 147.851817 
L 362.089566 147.851817 
L 362.414545 148.041477 
L 364.039443 148.136307 
L 364.364423 148.231137 
L 365.014382 147.756987 
L 365.339361 147.662157 
L 365.664341 147.756987 
L 366.964259 147.093177 
L 367.614218 147.756987 
L 367.939197 147.756987 
L 368.264177 147.377667 
L 368.589156 147.188007 
L 368.914136 147.282837 
L 369.564095 147.946647 
L 370.864013 146.903516 
L 371.188993 146.998347 
L 372.488911 146.713856 
L 373.13887 147.472497 
L 373.788829 147.756987 
L 374.438788 147.662157 
L 374.763767 147.756987 
L 375.413726 146.524196 
L 375.738706 146.144876 
L 376.063686 146.144876 
L 377.038624 146.998347 
L 377.688583 147.093177 
L 378.663522 147.756987 
L 379.313481 147.093177 
L 379.63846 146.713856 
L 380.938378 146.429366 
L 381.913317 146.524196 
L 382.563276 147.188007 
L 383.213235 147.282837 
L 383.538215 147.282837 
L 383.863194 146.808686 
L 384.513153 146.524196 
L 385.488092 146.239706 
L 385.813071 145.860386 
L 386.78801 147.093177 
L 387.112989 147.567327 
L 387.437969 147.662157 
L 388.087928 146.524196 
L 388.737887 146.050046 
L 389.062867 146.144876 
L 390.037805 145.291406 
L 390.362785 145.196576 
L 390.687764 145.670726 
L 391.012744 146.429366 
L 391.337723 146.903516 
L 391.662703 146.808686 
L 392.312662 145.955216 
L 392.962621 146.524196 
L 393.2876 146.619026 
L 393.61258 146.239706 
L 393.937559 145.481066 
L 394.262539 145.006916 
L 394.587518 145.101746 
L 395.237477 146.239706 
L 395.562457 146.334536 
L 396.537396 145.575896 
L 396.862375 145.765556 
L 397.187355 146.239706 
L 397.512334 146.429366 
L 397.837314 146.808686 
L 398.162293 146.713856 
L 398.487273 146.144876 
L 398.487273 146.144876 
" clip-path="url(#pf5fb8ae003)" style="fill: none; stroke: #1f77b4; stroke-width: 1.5; stroke-linecap: square"/>
   </g>
   <g id="line2d_17">
    <path d="M 73.832727 291.398398 
L 77.407502 291.398398 
L 81.957215 291.369949 
L 120.304799 291.455296 
L 121.279738 291.445813 
L 122.904636 291.445813 
L 398.487273 291.388915 
L 398.487273 291.388915 
" clip-path="url(#pf5fb8ae003)" style="fill: none; stroke: #ff7f0e; stroke-width: 1.5; stroke-linecap: square"/>
   </g>
   <g id="line2d_18">
    <path d="M 73.832727 54.42147 
L 74.157707 54.61113 
L 74.482686 54.5163 
L 74.807666 54.23181 
L 75.782604 54.32664 
L 76.107584 54.04215 
L 76.432563 54.13698 
L 76.757543 53.94732 
L 77.407502 54.61113 
L 77.732482 54.895621 
L 78.057461 54.800791 
L 78.382441 54.5163 
L 79.0324 54.32664 
L 79.357379 54.61113 
L 79.682359 54.5163 
L 80.007338 54.13698 
L 80.332318 54.04215 
L 81.632236 54.32664 
L 81.957215 54.13698 
L 82.607174 54.23181 
L 82.932154 54.61113 
L 83.582113 54.705961 
L 84.882031 54.23181 
L 85.207011 53.85249 
L 85.53199 53.66283 
L 85.85697 53.75766 
L 86.181949 54.04215 
L 87.156888 55.274941 
L 87.481867 55.180111 
L 88.131826 54.5163 
L 89.106765 53.75766 
L 89.431744 53.85249 
L 90.081704 54.42147 
L 91.056642 54.705961 
L 91.706601 54.13698 
L 92.35656 54.13698 
L 92.68154 54.42147 
L 93.006519 54.42147 
L 93.331499 54.61113 
L 93.981458 54.5163 
L 94.631417 54.23181 
L 95.931335 54.23181 
L 97.231253 54.990451 
L 98.206192 53.85249 
L 98.856151 54.32664 
L 99.18113 54.705961 
L 99.50611 54.895621 
L 100.806028 54.61113 
L 101.131007 54.705961 
L 102.105946 54.23181 
L 102.755905 54.990451 
L 103.080885 54.800791 
L 103.730844 53.85249 
L 104.055823 53.94732 
L 104.705782 54.705961 
L 105.030762 54.61113 
L 105.355741 54.04215 
L 105.680721 54.13698 
L 106.0057 54.42147 
L 106.33068 54.895621 
L 106.655659 54.800791 
L 107.305618 53.85249 
L 108.280557 55.085281 
L 108.930516 53.85249 
L 109.255495 53.94732 
L 109.905455 54.990451 
L 110.230434 55.085281 
L 110.880393 54.61113 
L 111.205373 54.61113 
L 111.530352 54.895621 
L 112.180311 54.61113 
L 112.505291 54.42147 
L 112.83027 54.800791 
L 113.15525 54.990451 
L 113.480229 54.895621 
L 114.130188 54.13698 
L 114.455168 54.04215 
L 115.105127 54.5163 
L 115.430106 54.61113 
L 116.405045 54.42147 
L 116.730025 54.61113 
L 117.055004 54.61113 
L 117.379984 54.32664 
L 117.704963 54.32664 
L 118.354922 54.990451 
L 118.679902 55.085281 
L 119.004881 54.5163 
L 119.329861 54.23181 
L 119.65484 54.13698 
L 121.279738 54.990451 
L 121.604717 54.800791 
L 122.254676 54.895621 
L 122.579656 54.705961 
L 122.904636 54.800791 
L 123.879574 54.61113 
L 124.204554 54.23181 
L 124.529533 54.32664 
L 124.854513 54.23181 
L 125.504472 54.5163 
L 126.47941 55.085281 
L 127.779328 54.42147 
L 128.429287 54.32664 
L 128.754267 54.23181 
L 129.079247 54.42147 
L 129.404226 54.42147 
L 129.729206 54.800791 
L 131.029124 54.5163 
L 131.354103 54.705961 
L 131.679083 54.705961 
L 132.004062 54.32664 
L 132.654021 54.04215 
L 133.30398 54.13698 
L 134.278919 54.61113 
L 135.903817 54.23181 
L 136.553776 54.32664 
L 136.878755 54.23181 
L 137.203735 53.94732 
L 137.528714 53.94732 
L 138.178673 54.32664 
L 138.503653 54.23181 
L 139.478591 54.990451 
L 140.778509 53.94732 
L 141.103489 53.75766 
L 141.428468 53.85249 
L 141.753448 53.75766 
L 142.078428 53.85249 
L 142.403407 53.568 
L 142.728387 53.85249 
L 143.053366 54.32664 
L 143.703325 54.42147 
L 144.353284 54.32664 
L 144.678264 54.42147 
L 145.328223 54.23181 
L 145.653202 53.85249 
L 146.628141 54.5163 
L 147.2781 54.990451 
L 147.603079 54.895621 
L 148.253038 54.990451 
L 148.902998 54.42147 
L 149.552957 54.32664 
L 149.877936 54.61113 
L 150.852875 54.42147 
L 151.502834 54.61113 
L 151.827813 54.5163 
L 152.802752 53.75766 
L 153.452711 54.42147 
L 153.77769 54.42147 
L 154.10267 54.04215 
L 154.752629 54.04215 
L 155.077609 54.42147 
L 155.402588 54.42147 
L 155.727568 54.23181 
L 156.052547 53.85249 
L 156.377527 53.85249 
L 156.702506 54.04215 
L 157.352465 54.705961 
L 158.002424 54.23181 
L 158.327404 54.32664 
L 158.652383 54.61113 
L 158.977363 54.705961 
L 159.627322 53.94732 
L 159.952301 53.75766 
L 160.60226 54.04215 
L 160.92724 54.13698 
L 161.902179 53.94732 
L 162.877117 54.32664 
L 163.202097 53.85249 
L 163.852056 53.568 
L 164.502015 54.04215 
L 164.826994 54.23181 
L 165.476953 53.94732 
L 165.801933 53.94732 
L 166.126912 54.42147 
L 166.451892 54.42147 
L 166.776871 54.23181 
L 167.101851 53.85249 
L 167.42683 53.66283 
L 168.07679 54.32664 
L 168.401769 54.13698 
L 169.376708 54.13698 
L 170.026667 54.61113 
L 170.351646 54.42147 
L 170.676626 54.42147 
L 171.001605 54.23181 
L 171.326585 54.32664 
L 171.651564 54.23181 
L 171.976544 54.32664 
L 172.626503 54.04215 
L 173.601441 54.800791 
L 174.2514 54.5163 
L 174.57638 54.32664 
L 174.90136 54.32664 
L 175.226339 54.5163 
L 175.876298 54.32664 
L 176.201278 54.04215 
L 176.851237 54.32664 
L 177.176216 54.5163 
L 178.151155 54.23181 
L 179.126093 54.705961 
L 179.451073 54.800791 
L 180.101032 54.5163 
L 180.426011 54.61113 
L 181.075971 54.04215 
L 181.40095 53.568 
L 182.050909 54.23181 
L 182.700868 54.990451 
L 183.350827 55.085281 
L 183.675807 54.990451 
L 184.325766 54.32664 
L 184.975725 53.75766 
L 185.300704 53.85249 
L 185.625684 54.23181 
L 186.600622 54.705961 
L 187.250581 54.42147 
L 187.900541 54.13698 
L 188.22552 54.13698 
L 188.875479 54.5163 
L 189.850418 54.42147 
L 190.175397 54.13698 
L 190.500377 54.04215 
L 190.825356 54.32664 
L 191.475315 54.42147 
L 191.800295 54.23181 
L 193.100213 54.895621 
L 193.425192 54.61113 
L 193.750172 54.13698 
L 194.075152 53.94732 
L 194.400131 53.94732 
L 195.05009 54.61113 
L 195.37507 54.800791 
L 195.700049 54.61113 
L 196.674988 54.61113 
L 197.649926 54.13698 
L 198.624865 54.800791 
L 198.949844 54.705961 
L 199.599803 53.66283 
L 199.924783 53.85249 
L 200.249762 54.42147 
L 200.574742 54.61113 
L 201.549681 53.85249 
L 201.87466 54.42147 
L 202.19964 54.61113 
L 202.524619 54.61113 
L 202.849599 54.04215 
L 203.174578 53.85249 
L 203.499558 54.13698 
L 203.824537 54.705961 
L 204.149517 54.895621 
L 204.799476 53.75766 
L 205.124455 53.85249 
L 205.774414 54.800791 
L 206.424373 54.705961 
L 206.749353 54.42147 
L 208.374251 54.42147 
L 209.02421 54.895621 
L 209.349189 54.800791 
L 209.999148 53.94732 
L 210.324128 53.85249 
L 210.974087 54.32664 
L 211.624046 54.42147 
L 211.949025 54.32664 
L 212.274005 54.5163 
L 213.573923 54.23181 
L 214.548862 54.705961 
L 214.873841 54.5163 
L 215.198821 54.04215 
L 215.5238 53.94732 
L 217.148698 54.895621 
L 217.798657 54.800791 
L 218.123636 54.61113 
L 219.423554 54.61113 
L 220.398493 54.13698 
L 221.698411 54.61113 
L 222.023391 54.990451 
L 222.34837 55.085281 
L 222.67335 54.990451 
L 222.998329 54.61113 
L 223.648288 54.32664 
L 224.948206 54.42147 
L 225.273186 54.705961 
L 225.598165 54.61113 
L 226.248124 54.705961 
L 226.573104 54.5163 
L 227.873022 54.42147 
L 228.198002 54.04215 
L 228.522981 53.94732 
L 229.17294 54.23181 
L 230.472858 54.61113 
L 231.447797 54.13698 
L 232.097756 54.23181 
L 232.422735 54.32664 
L 233.397674 54.04215 
L 234.047633 54.32664 
L 234.372613 54.5163 
L 235.022572 54.61113 
L 235.347551 54.895621 
L 235.672531 54.895621 
L 236.647469 53.85249 
L 237.297428 53.75766 
L 237.622408 53.94732 
L 237.947387 53.75766 
L 238.597346 53.85249 
L 238.922326 54.23181 
L 239.572285 54.5163 
L 240.222244 54.23181 
L 240.872203 54.42147 
L 241.522162 54.04215 
L 241.847142 54.04215 
L 242.497101 54.42147 
L 242.82208 54.895621 
L 243.14706 54.800791 
L 243.472039 55.085281 
L 244.446978 54.800791 
L 245.096937 54.23181 
L 246.071876 54.61113 
L 246.396855 54.32664 
L 247.696773 54.23181 
L 248.021753 54.13698 
L 248.346732 53.85249 
L 248.671712 53.75766 
L 248.996691 53.94732 
L 249.321671 54.32664 
L 249.64665 54.42147 
L 250.621589 53.94732 
L 250.946568 54.32664 
L 251.271548 54.5163 
L 251.921507 53.85249 
L 252.246486 53.75766 
L 252.896446 54.23181 
L 253.221425 54.61113 
L 254.196364 54.23181 
L 254.521343 54.5163 
L 254.846323 54.61113 
L 255.171302 54.42147 
L 255.496282 54.04215 
L 256.146241 53.85249 
L 256.47122 54.23181 
L 256.7962 54.04215 
L 258.096118 54.04215 
L 258.421097 54.23181 
L 258.746077 54.23181 
L 259.396036 53.568 
L 259.721016 53.66283 
L 260.370975 54.23181 
L 260.695954 54.32664 
L 261.020934 54.04215 
L 261.345913 53.94732 
L 261.670893 54.23181 
L 262.320852 54.42147 
L 262.645831 54.23181 
L 262.970811 53.85249 
L 263.29579 53.66283 
L 263.945749 54.13698 
L 264.270729 54.32664 
L 264.595708 54.04215 
L 264.920688 53.94732 
L 265.245667 54.04215 
L 265.570647 54.42147 
L 265.895627 54.5163 
L 266.220606 54.32664 
L 267.845504 54.23181 
L 268.495463 53.85249 
L 269.145422 54.61113 
L 269.470401 54.800791 
L 269.795381 54.5163 
L 270.12036 54.5163 
L 270.44534 54.23181 
L 271.095299 54.42147 
L 272.395217 53.94732 
L 272.720197 54.32664 
L 273.045176 54.5163 
L 274.020115 54.23181 
L 274.995053 54.705961 
L 275.969992 54.61113 
L 276.619951 54.32664 
L 276.94493 53.94732 
L 277.594889 53.75766 
L 277.919869 54.04215 
L 278.244848 54.800791 
L 278.569828 55.085281 
L 279.544767 54.990451 
L 279.869746 54.800791 
L 280.194726 54.32664 
L 280.844685 53.85249 
L 281.169664 53.94732 
L 282.144603 54.705961 
L 282.469582 54.895621 
L 283.119541 54.42147 
L 284.09448 54.23181 
L 284.744439 54.5163 
L 285.069419 54.705961 
L 286.694316 54.23181 
L 287.344275 54.42147 
L 287.994234 54.32664 
L 288.319214 54.705961 
L 288.644193 54.895621 
L 288.969173 54.800791 
L 289.619132 54.13698 
L 289.944111 53.94732 
L 290.269091 54.04215 
L 291.244029 54.800791 
L 291.893989 54.705961 
L 292.543948 54.61113 
L 292.868927 54.61113 
L 293.193907 54.23181 
L 293.518886 54.13698 
L 294.168845 54.61113 
L 294.493825 54.895621 
L 294.818804 54.800791 
L 295.468763 53.94732 
L 295.793743 53.94732 
L 296.443702 54.705961 
L 296.768681 54.42147 
L 297.093661 53.94732 
L 297.41864 53.94732 
L 297.74362 54.5163 
L 298.0686 54.800791 
L 298.393579 54.5163 
L 298.718559 54.04215 
L 299.043538 53.85249 
L 299.368518 54.23181 
L 299.693497 54.800791 
L 300.018477 54.800791 
L 300.668436 53.94732 
L 300.993415 53.85249 
L 301.643374 54.800791 
L 301.968354 54.990451 
L 302.618313 54.5163 
L 303.268272 54.800791 
L 303.918231 54.42147 
L 304.24321 54.42147 
L 304.89317 54.705961 
L 305.218149 54.800791 
L 305.868108 54.04215 
L 306.193088 54.04215 
L 307.168026 54.5163 
L 307.493006 54.32664 
L 308.467944 54.705961 
L 308.792924 54.42147 
L 309.117903 54.32664 
L 310.092842 54.895621 
L 310.417821 54.895621 
L 310.742801 54.705961 
L 311.067781 54.32664 
L 311.39276 54.13698 
L 312.692678 54.895621 
L 313.667617 54.990451 
L 313.992596 54.705961 
L 315.617494 54.61113 
L 316.592432 54.04215 
L 317.567371 54.800791 
L 317.892351 54.990451 
L 318.54231 54.990451 
L 319.192269 54.42147 
L 320.167207 54.32664 
L 320.492187 54.23181 
L 321.467125 54.800791 
L 321.792105 54.61113 
L 322.117084 54.61113 
L 322.442064 54.42147 
L 323.417002 54.61113 
L 323.741982 54.32664 
L 324.066962 54.23181 
L 324.391941 53.94732 
L 325.0419 54.23181 
L 325.691859 54.42147 
L 326.016839 54.705961 
L 326.666798 54.5163 
L 326.991777 54.23181 
L 327.641736 54.32664 
L 328.291695 54.61113 
L 328.941654 54.23181 
L 329.916593 54.32664 
L 330.241572 54.61113 
L 330.891532 54.705961 
L 331.216511 54.895621 
L 331.86647 54.800791 
L 332.19145 54.23181 
L 332.516429 53.94732 
L 332.841409 53.85249 
L 333.491368 54.04215 
L 333.816347 53.85249 
L 334.141327 53.85249 
L 334.466306 54.13698 
L 334.791286 54.23181 
L 335.116265 54.5163 
L 335.441245 54.61113 
L 336.091204 54.23181 
L 336.741163 54.5163 
L 337.066143 54.42147 
L 337.391122 54.04215 
L 337.716102 54.04215 
L 338.041081 54.23181 
L 338.366061 54.61113 
L 339.01602 54.895621 
L 339.665979 55.085281 
L 340.315938 54.61113 
L 340.965897 54.23181 
L 341.290876 54.23181 
L 341.940835 54.61113 
L 342.265815 54.5163 
L 342.590794 54.23181 
L 343.240753 54.5163 
L 343.565733 54.42147 
L 344.215692 53.85249 
L 344.540672 53.85249 
L 345.190631 54.32664 
L 345.51561 54.42147 
L 345.84059 54.23181 
L 346.165569 53.85249 
L 346.490549 53.94732 
L 346.815528 54.42147 
L 347.140508 54.5163 
L 347.465487 54.42147 
L 347.790467 53.85249 
L 348.115446 53.75766 
L 348.440426 53.94732 
L 348.765405 54.5163 
L 349.090385 54.705961 
L 350.065324 54.5163 
L 350.715283 54.61113 
L 351.690221 53.75766 
L 352.66516 54.23181 
L 352.990139 53.94732 
L 353.640098 53.94732 
L 353.965078 54.23181 
L 354.615037 54.13698 
L 355.589975 53.66283 
L 356.239934 54.32664 
L 357.214873 54.04215 
L 357.539853 54.13698 
L 357.864832 54.5163 
L 358.514791 54.23181 
L 358.839771 53.94732 
L 359.16475 53.85249 
L 360.139689 54.42147 
L 360.789648 54.04215 
L 361.764586 54.61113 
L 362.089566 54.42147 
L 363.714464 54.32664 
L 364.039443 54.04215 
L 364.689402 54.32664 
L 365.339361 54.990451 
L 366.3143 54.42147 
L 366.964259 54.5163 
L 368.264177 54.23181 
L 369.239115 54.42147 
L 369.564095 54.23181 
L 369.889075 54.23181 
L 370.864013 54.800791 
L 372.488911 54.23181 
L 373.13887 53.75766 
L 373.788829 54.04215 
L 374.438788 54.990451 
L 374.763767 55.180111 
L 375.413726 54.895621 
L 375.738706 54.705961 
L 376.063686 54.32664 
L 376.388665 53.75766 
L 376.713645 53.75766 
L 378.338542 54.61113 
L 378.663522 54.705961 
L 378.988501 54.42147 
L 379.96344 54.23181 
L 381.263358 54.61113 
L 381.913317 54.13698 
L 382.563276 54.32664 
L 382.888256 54.23181 
L 384.188174 54.5163 
L 384.513153 54.895621 
L 384.838133 54.800791 
L 385.163112 54.5163 
L 385.488092 54.04215 
L 385.813071 53.85249 
L 386.138051 54.04215 
L 386.46303 54.42147 
L 387.112989 54.895621 
L 388.087928 54.5163 
L 388.412907 54.705961 
L 389.062867 54.42147 
L 389.387846 54.23181 
L 389.712826 54.23181 
L 390.362785 54.895621 
L 390.687764 54.705961 
L 391.337723 53.85249 
L 391.662703 54.04215 
L 392.312662 54.705961 
L 392.637641 54.42147 
L 392.962621 53.94732 
L 393.2876 53.85249 
L 393.61258 54.42147 
L 393.937559 54.705961 
L 394.262539 54.61113 
L 394.587518 54.04215 
L 394.912498 53.85249 
L 395.237477 54.23181 
L 395.562457 54.895621 
L 395.887437 54.895621 
L 396.537396 53.85249 
L 396.862375 54.04215 
L 397.512334 54.895621 
L 397.837314 54.990451 
L 398.487273 54.42147 
L 398.487273 54.42147 
" clip-path="url(#pf5fb8ae003)" style="fill: none; stroke: #2ca02c; stroke-width: 1.5; stroke-linecap: square"/>
   </g>
   <g id="line2d_19">
    <path d="M 73.832727 295.39317 
L 77.407502 295.431102 
L 78.70742 295.383687 
L 82.607174 295.39317 
L 398.487273 295.431102 
L 398.487273 295.431102 
" clip-path="url(#pf5fb8ae003)" style="fill: none; stroke: #d62728; stroke-width: 1.5; stroke-linecap: square"/>
   </g>
   <g id="patch_3">
    <path d="M 57.6 307.584 
L 57.6 41.472 
" style="fill: none; stroke: #000000; stroke-width: 0.8; stroke-linejoin: miter; stroke-linecap: square"/>
   </g>
   <g id="patch_4">
    <path d="M 414.72 307.584 
L 414.72 41.472 
" style="fill: none; stroke: #000000; stroke-width: 0.8; stroke-linejoin: miter; stroke-linecap: square"/>
   </g>
   <g id="patch_5">
    <path d="M 57.6 307.584 
L 414.72 307.584 
" style="fill: none; stroke: #000000; stroke-width: 0.8; stroke-linejoin: miter; stroke-linecap: square"/>
   </g>
   <g id="patch_6">
    <path d="M 57.6 41.472 
L 414.72 41.472 
" style="fill: none; stroke: #000000; stroke-width: 0.8; stroke-linejoin: miter; stroke-linecap: square"/>
   </g>
  </g>
 </g>
 <defs>
  <clipPath id="pf5fb8ae003">
   <rect x="57.6" y="41.472" width="357.12" height="266.112"/>
  </clipPath>
 </defs>
</svg>
