<?xml version="1.0" encoding="utf-8" standalone="no"?>
<!DOCTYPE svg PUBLIC "-//W3C//DTD SVG 1.1//EN"
  "http://www.w3.org/Graphics/SVG/1.1/DTD/svg11.dtd">
<svg xmlns:xlink="http://www.w3.org/1999/xlink" width="460.8pt" height="345.6pt" viewBox="0 0 460.8 345.6" xmlns="http://www.w3.org/2000/svg" version="1.1">
 <metadata>
  <rdf:RDF xmlns:dc="http://purl.org/dc/elements/1.1/" xmlns:cc="http://creativecommons.org/ns#" xmlns:rdf="http://www.w3.org/1999/02/22-rdf-syntax-ns#">
   <cc:Work>
    <dc:type rdf:resource="http://purl.org/dc/dcmitype/StillImage"/>
    <dc:date>2025-12-26T14:45:54.728588</dc:date>
    <dc:format>image/svg+xml</dc:format>
    <dc:creator>
     <cc:Agent>
      <dc:title>Matplotlib v3.10.8, https://matplotlib.org/</dc:title>
     </cc:Agent>
    </dc:creator>
   </cc:Work>
  </rdf:RDF>
 </metadata>
 <defs>
  <style type="text/css">*{stroke-linejoin: round; stroke-linecap: butt}</style>
 </defs>
 <g id="figure_1">
  <g id="patch_1">
   <path d="M 0 345.6 
L 460.8 345.6 
L 460.8 0 
L 0 0 
z
" style="fill: #ffffff"/>
  </g>
  <g id="axes_1">
   <g id="patch_2">
    <path d="M 57.6 307.584 
L 414.72 307.584 
L 414.72 41.472 
L 57.6 41.472 
z
" style="fill: #ffffff"/>
   </g>
   <g id="matplotlib.axis_1">
    <g id="xtick_1">
     <g id="line2d_1">
      <defs>
       <path id="m59eb68e6f9" d="M 0 0 
L 0 3.5 
" style="stroke: #000000; stroke-width: 0.8"/>
      </defs>
      <g>
       <use xlink:href="#m59eb68e6f9" x="73.832727" y="307.584" style="stroke: #000000; stroke-width: 0.8"/>
      </g>
     </g>
     <g id="text_1">
      <!-- 0 -->
      <g transform="translate(70.651477 322.182437) scale(0.1 -0.1)">
       <defs>
        <path id="DejaVuSans-30" d="M 2034 4250 
Q 1547 4250 1301 3770 
Q 1056 3291 1056 2328 
Q 1056 1369 1301 889 
Q 1547 409 2034 409 
Q 2525 409 2770 889 
Q 3016 1369 3016 2328 
Q 3016 3291 2770 3770 
Q 2525 4250 2034 4250 
z
M 2034 4750 
Q 2819 4750 3233 4129 
Q 3647 3509 3647 2328 
Q 3647 1150 3233 529 
Q 2819 -91 2034 -91 
Q 1250 -91 836 529 
Q 422 1150 422 2328 
Q 422 3509 836 4129 
Q 1250 4750 2034 4750 
z
" transform="scale(0.015625)"/>
       </defs>
       <use xlink:href="#DejaVuSans-30"/>
      </g>
     </g>
    </g>
    <g id="xtick_2">
     <g id="line2d_2">
      <g>
       <use xlink:href="#m59eb68e6f9" x="138.828632" y="307.584" style="stroke: #000000; stroke-width: 0.8"/>
      </g>
     </g>
     <g id="text_2">
      <!-- 1 -->
      <g transform="translate(135.647382 322.182437) scale(0.1 -0.1)">
       <defs>
        <path id="DejaVuSans-31" d="M 794 531 
L 1825 531 
L 1825 4091 
L 703 3866 
L 703 4441 
L 1819 4666 
L 2450 4666 
L 2450 531 
L 3481 531 
L 3481 0 
L 794 0 
L 794 531 
z
" transform="scale(0.015625)"/>
       </defs>
       <use xlink:href="#DejaVuSans-31"/>
      </g>
     </g>
    </g>
    <g id="xtick_3">
     <g id="line2d_3">
      <g>
       <use xlink:href="#m59eb68e6f9" x="203.824537" y="307.584" style="stroke: #000000; stroke-width: 0.8"/>
      </g>
     </g>
     <g id="text_3">
      <!-- 2 -->
      <g transform="translate(200.643287 322.182437) scale(0.1 -0.1)">
       <defs>
        <path id="DejaVuSans-32" d="M 1228 531 
L 3431 531 
L 3431 0 
L 469 0 
L 469 531 
Q 828 903 1448 1529 
Q 2069 2156 2228 2338 
Q 2531 2678 2651 2914 
Q 2772 3150 2772 3378 
Q 2772 3750 2511 3984 
Q 2250 4219 1831 4219 
Q 1534 4219 1204 4116 
Q 875 4013 500 3803 
L 500 4441 
Q 881 4594 1212 4672 
Q 1544 4750 1819 4750 
Q 2544 4750 2975 4387 
Q 3406 4025 3406 3419 
Q 3406 3131 3298 2873 
Q 3191 2616 2906 2266 
Q 2828 2175 2409 1742 
Q 1991 1309 1228 531 
z
" transform="scale(0.015625)"/>
       </defs>
       <use xlink:href="#DejaVuSans-32"/>
      </g>
     </g>
    </g>
    <g id="xtick_4">
     <g id="line2d_4">
      <g>
       <use xlink:href="#m59eb68e6f9" x="268.820442" y="307.584" style="stroke: #000000; stroke-width: 0.8"/>
      </g>
     </g>
     <g id="text_4">
      <!-- 3 -->
      <g transform="translate(265.639192 322.182437) scale(0.1 -0.1)">
       <defs>
        <path id="DejaVuSans-33" d="M 2597 2516 
Q 3050 2419 3304 2112 
Q 3559 1806 3559 1356 
Q 3559 666 3084 287 
Q 2609 -91 1734 -91 
Q 1441 -91 1130 -33 
Q 819 25 488 141 
L 488 750 
Q 750 597 1062 519 
Q 1375 441 1716 441 
Q 2309 441 2620 675 
Q 2931 909 2931 1356 
Q 2931 1769 2642 2001 
Q 2353 2234 1838 2234 
L 1294 2234 
L 1294 2753 
L 1863 2753 
Q 2328 2753 2575 2939 
Q 2822 3125 2822 3475 
Q 2822 3834 2567 4026 
Q 2313 4219 1838 4219 
Q 1578 4219 1281 4162 
Q 984 4106 628 3988 
L 628 4550 
Q 988 4650 1302 4700 
Q 1616 4750 1894 4750 
Q 2613 4750 3031 4423 
Q 3450 4097 3450 3541 
Q 3450 3153 3228 2886 
Q 3006 2619 2597 2516 
z
" transform="scale(0.015625)"/>
       </defs>
       <use xlink:href="#DejaVuSans-33"/>
      </g>
     </g>
    </g>
    <g id="xtick_5">
     <g id="line2d_5">
      <g>
       <use xlink:href="#m59eb68e6f9" x="333.816347" y="307.584" style="stroke: #000000; stroke-width: 0.8"/>
      </g>
     </g>
     <g id="text_5">
      <!-- 4 -->
      <g transform="translate(330.635097 322.182437) scale(0.1 -0.1)">
       <defs>
        <path id="DejaVuSans-34" d="M 2419 4116 
L 825 1625 
L 2419 1625 
L 2419 4116 
z
M 2253 4666 
L 3047 4666 
L 3047 1625 
L 3713 1625 
L 3713 1100 
L 3047 1100 
L 3047 0 
L 2419 0 
L 2419 1100 
L 313 1100 
L 313 1709 
L 2253 4666 
z
" transform="scale(0.015625)"/>
       </defs>
       <use xlink:href="#DejaVuSans-34"/>
      </g>
     </g>
    </g>
    <g id="xtick_6">
     <g id="line2d_6">
      <g>
       <use xlink:href="#m59eb68e6f9" x="398.812252" y="307.584" style="stroke: #000000; stroke-width: 0.8"/>
      </g>
     </g>
     <g id="text_6">
      <!-- 5 -->
      <g transform="translate(395.631002 322.182437) scale(0.1 -0.1)">
       <defs>
        <path id="DejaVuSans-35" d="M 691 4666 
L 3169 4666 
L 3169 4134 
L 1269 4134 
L 1269 2991 
Q 1406 3038 1543 3061 
Q 1681 3084 1819 3084 
Q 2600 3084 3056 2656 
Q 3513 2228 3513 1497 
Q 3513 744 3044 326 
Q 2575 -91 1722 -91 
Q 1428 -91 1123 -41 
Q 819 9 494 109 
L 494 744 
Q 775 591 1075 516 
Q 1375 441 1709 441 
Q 2250 441 2565 725 
Q 2881 1009 2881 1497 
Q 2881 1984 2565 2268 
Q 2250 2553 1709 2553 
Q 1456 2553 1204 2497 
Q 953 2441 691 2322 
L 691 4666 
z
" transform="scale(0.015625)"/>
       </defs>
       <use xlink:href="#DejaVuSans-35"/>
      </g>
     </g>
    </g>
    <g id="text_7">
     <!-- 1e−7 -->
     <g transform="translate(387.462188 334.860562) scale(0.1 -0.1)">
      <defs>
       <path id="DejaVuSans-65" d="M 3597 1894 
L 3597 1613 
L 953 1613 
Q 991 1019 1311 708 
Q 1631 397 2203 397 
Q 2534 397 2845 478 
Q 3156 559 3463 722 
L 3463 178 
Q 3153 47 2828 -22 
Q 2503 -91 2169 -91 
Q 1331 -91 842 396 
Q 353 884 353 1716 
Q 353 2575 817 3079 
Q 1281 3584 2069 3584 
Q 2775 3584 3186 3129 
Q 3597 2675 3597 1894 
z
M 3022 2063 
Q 3016 2534 2758 2815 
Q 2500 3097 2075 3097 
Q 1594 3097 1305 2825 
Q 1016 2553 972 2059 
L 3022 2063 
z
" transform="scale(0.015625)"/>
       <path id="DejaVuSans-2212" d="M 678 2272 
L 4684 2272 
L 4684 1741 
L 678 1741 
L 678 2272 
z
" transform="scale(0.015625)"/>
       <path id="DejaVuSans-37" d="M 525 4666 
L 3525 4666 
L 3525 4397 
L 1831 0 
L 1172 0 
L 2766 4134 
L 525 4134 
L 525 4666 
z
" transform="scale(0.015625)"/>
      </defs>
      <use xlink:href="#DejaVuSans-31"/>
      <use xlink:href="#DejaVuSans-65" transform="translate(63.623047 0)"/>
      <use xlink:href="#DejaVuSans-2212" transform="translate(125.146484 0)"/>
      <use xlink:href="#DejaVuSans-37" transform="translate(208.935547 0)"/>
     </g>
    </g>
   </g>
   <g id="matplotlib.axis_2">
    <g id="ytick_1">
     <g id="line2d_7">
      <defs>
       <path id="mb0f96174ad" d="M 0 0 
L -3.5 0 
" style="stroke: #000000; stroke-width: 0.8"/>
      </defs>
      <g>
       <use xlink:href="#mb0f96174ad" x="57.6" y="264.397389" style="stroke: #000000; stroke-width: 0.8"/>
      </g>
     </g>
     <g id="text_8">
      <!-- −200 -->
      <g transform="translate(23.132812 268.196607) scale(0.1 -0.1)">
       <use xlink:href="#DejaVuSans-2212"/>
       <use xlink:href="#DejaVuSans-32" transform="translate(83.789062 0)"/>
       <use xlink:href="#DejaVuSans-30" transform="translate(147.412109 0)"/>
       <use xlink:href="#DejaVuSans-30" transform="translate(211.035156 0)"/>
      </g>
     </g>
    </g>
    <g id="ytick_2">
     <g id="line2d_8">
      <g>
       <use xlink:href="#mb0f96174ad" x="57.6" y="214.452617" style="stroke: #000000; stroke-width: 0.8"/>
      </g>
     </g>
     <g id="text_9">
      <!-- −100 -->
      <g transform="translate(23.132812 218.251836) scale(0.1 -0.1)">
       <use xlink:href="#DejaVuSans-2212"/>
       <use xlink:href="#DejaVuSans-31" transform="translate(83.789062 0)"/>
       <use xlink:href="#DejaVuSans-30" transform="translate(147.412109 0)"/>
       <use xlink:href="#DejaVuSans-30" transform="translate(211.035156 0)"/>
      </g>
     </g>
    </g>
    <g id="ytick_3">
     <g id="line2d_9">
      <g>
       <use xlink:href="#mb0f96174ad" x="57.6" y="164.507846" style="stroke: #000000; stroke-width: 0.8"/>
      </g>
     </g>
     <g id="text_10">
      <!-- 0 -->
      <g transform="translate(44.2375 168.307065) scale(0.1 -0.1)">
       <use xlink:href="#DejaVuSans-30"/>
      </g>
     </g>
    </g>
    <g id="ytick_4">
     <g id="line2d_10">
      <g>
       <use xlink:href="#mb0f96174ad" x="57.6" y="114.563075" style="stroke: #000000; stroke-width: 0.8"/>
      </g>
     </g>
     <g id="text_11">
      <!-- 100 -->
      <g transform="translate(31.5125 118.362294) scale(0.1 -0.1)">
       <use xlink:href="#DejaVuSans-31"/>
       <use xlink:href="#DejaVuSans-30" transform="translate(63.623047 0)"/>
       <use xlink:href="#DejaVuSans-30" transform="translate(127.246094 0)"/>
      </g>
     </g>
    </g>
    <g id="ytick_5">
     <g id="line2d_11">
      <g>
       <use xlink:href="#mb0f96174ad" x="57.6" y="64.618304" style="stroke: #000000; stroke-width: 0.8"/>
      </g>
     </g>
     <g id="text_12">
      <!-- 200 -->
      <g transform="translate(31.5125 68.417523) scale(0.1 -0.1)">
       <use xlink:href="#DejaVuSans-32"/>
       <use xlink:href="#DejaVuSans-30" transform="translate(63.623047 0)"/>
       <use xlink:href="#DejaVuSans-30" transform="translate(127.246094 0)"/>
      </g>
     </g>
    </g>
   </g>
   <g id="line2d_12">
    <path d="M 73.832727 228.686835 
L 74.482686 213.079093 
L 74.807666 220.882964 
L 75.132645 220.882964 
L 75.457625 213.079093 
L 76.107584 213.079093 
L 76.432563 205.275222 
L 77.082523 205.275222 
L 77.407502 197.471351 
L 77.732482 205.275222 
L 78.057461 197.471351 
L 78.382441 205.275222 
L 78.70742 189.66748 
L 79.0324 197.471351 
L 79.357379 197.471351 
L 79.682359 189.66748 
L 80.007338 189.66748 
L 80.332318 197.471351 
L 80.657297 181.863609 
L 81.307256 181.863609 
L 81.632236 174.059738 
L 82.932154 174.059738 
L 83.257133 166.255867 
L 83.582113 166.255867 
L 83.907093 150.648125 
L 84.232072 174.059738 
L 84.557052 158.451996 
L 84.882031 158.451996 
L 85.207011 150.648125 
L 85.53199 158.451996 
L 85.85697 150.648125 
L 86.181949 158.451996 
L 86.506929 158.451996 
L 87.156888 142.844254 
L 87.481867 150.648125 
L 88.131826 150.648125 
L 88.456806 135.040383 
L 88.781785 142.844254 
L 89.431744 127.236512 
L 89.756724 135.040383 
L 90.081704 127.236512 
L 90.406683 127.236512 
L 90.731663 135.040383 
L 91.056642 127.236512 
L 92.031581 127.236512 
L 92.35656 119.432642 
L 93.981458 119.432642 
L 94.306437 111.628771 
L 94.631417 119.432642 
L 95.281376 103.8249 
L 95.606355 111.628771 
L 95.931335 111.628771 
L 96.256314 103.8249 
L 97.231253 103.8249 
L 97.556233 96.021029 
L 98.206192 96.021029 
L 98.531171 103.8249 
L 98.856151 96.021029 
L 99.18113 96.021029 
L 99.50611 80.413287 
L 99.831089 96.021029 
L 100.481048 80.413287 
L 100.806028 88.217158 
L 101.131007 88.217158 
L 101.455987 80.413287 
L 102.430925 80.413287 
L 102.755905 72.609416 
L 103.405864 72.609416 
L 103.730844 88.217158 
L 104.055823 72.609416 
L 104.380803 72.609416 
L 104.705782 64.805545 
L 105.030762 72.609416 
L 106.33068 72.609416 
L 106.655659 64.805545 
L 106.980639 72.609416 
L 107.305618 64.805545 
L 108.605536 64.805545 
L 108.930516 72.609416 
L 109.255495 72.609416 
L 109.580475 64.805545 
L 109.905455 64.805545 
L 110.230434 72.609416 
L 110.555414 64.805545 
L 111.205373 64.805545 
L 111.530352 72.609416 
L 111.855332 64.805545 
L 112.180311 72.609416 
L 112.83027 72.609416 
L 113.15525 64.805545 
L 113.480229 72.609416 
L 113.805209 72.609416 
L 114.130188 80.413287 
L 114.780147 80.413287 
L 115.105127 72.609416 
L 115.430106 88.217158 
L 116.080066 72.609416 
L 116.405045 88.217158 
L 118.029943 88.217158 
L 118.354922 80.413287 
L 119.329861 103.8249 
L 119.65484 96.021029 
L 119.97982 103.8249 
L 120.304799 88.217158 
L 120.629779 111.628771 
L 120.954758 103.8249 
L 121.279738 103.8249 
L 121.604717 111.628771 
L 122.579656 111.628771 
L 122.904636 119.432642 
L 123.879574 119.432642 
L 124.204554 127.236512 
L 125.179492 127.236512 
L 125.504472 119.432642 
L 125.829451 135.040383 
L 126.47941 135.040383 
L 127.129369 150.648125 
L 127.454349 142.844254 
L 127.779328 142.844254 
L 128.104308 150.648125 
L 128.429287 150.648125 
L 128.754267 142.844254 
L 129.404226 158.451996 
L 129.729206 158.451996 
L 130.054185 166.255867 
L 130.704144 150.648125 
L 131.354103 166.255867 
L 132.004062 166.255867 
L 132.329042 181.863609 
L 132.654021 166.255867 
L 132.979001 181.863609 
L 134.278919 181.863609 
L 134.603898 189.66748 
L 134.928878 181.863609 
L 135.253857 189.66748 
L 135.578837 189.66748 
L 135.903817 181.863609 
L 136.228796 197.471351 
L 137.203735 197.471351 
L 137.528714 205.275222 
L 137.853694 197.471351 
L 138.178673 205.275222 
L 138.503653 197.471351 
L 138.828632 205.275222 
L 139.803571 205.275222 
L 140.12855 213.079093 
L 140.778509 213.079093 
L 141.103489 205.275222 
L 141.428468 220.882964 
L 141.753448 213.079093 
L 142.078428 213.079093 
L 142.728387 228.686835 
L 143.053366 220.882964 
L 143.378346 228.686835 
L 144.353284 228.686835 
L 144.678264 236.490706 
L 145.328223 236.490706 
L 145.653202 244.294577 
L 146.303161 228.686835 
L 146.628141 244.294577 
L 147.928059 244.294577 
L 148.253038 252.098448 
L 148.578018 252.098448 
L 148.902998 259.902319 
L 149.227977 259.902319 
L 149.552957 252.098448 
L 149.877936 252.098448 
L 150.202916 259.902319 
L 151.502834 259.902319 
L 151.827813 267.70619 
L 152.152793 259.902319 
L 152.477772 259.902319 
L 153.127731 275.510061 
L 153.452711 259.902319 
L 153.77769 267.70619 
L 154.10267 267.70619 
L 154.427649 275.510061 
L 154.752629 267.70619 
L 155.077609 267.70619 
L 155.402588 275.510061 
L 156.052547 275.510061 
L 156.377527 267.70619 
L 157.352465 267.70619 
L 157.677445 259.902319 
L 158.002424 259.902319 
L 158.327404 275.510061 
L 158.652383 267.70619 
L 159.302342 267.70619 
L 159.627322 275.510061 
L 159.952301 267.70619 
L 160.92724 267.70619 
L 161.252219 259.902319 
L 161.577199 267.70619 
L 161.902179 252.098448 
L 162.227158 259.902319 
L 162.552138 252.098448 
L 162.877117 259.902319 
L 163.202097 244.294577 
L 163.527076 259.902319 
L 163.852056 252.098448 
L 164.826994 252.098448 
L 165.151974 244.294577 
L 165.476953 252.098448 
L 165.801933 252.098448 
L 166.451892 236.490706 
L 166.776871 236.490706 
L 167.101851 228.686835 
L 167.42683 244.294577 
L 168.07679 228.686835 
L 169.051728 228.686835 
L 169.376708 220.882964 
L 169.701687 228.686835 
L 170.351646 213.079093 
L 170.676626 220.882964 
L 171.001605 213.079093 
L 171.976544 213.079093 
L 172.301523 197.471351 
L 172.626503 205.275222 
L 172.951482 205.275222 
L 173.276462 197.471351 
L 173.601441 205.275222 
L 173.926421 205.275222 
L 174.2514 189.66748 
L 174.57638 189.66748 
L 174.90136 197.471351 
L 175.226339 189.66748 
L 175.551319 189.66748 
L 175.876298 181.863609 
L 176.201278 189.66748 
L 176.526257 181.863609 
L 177.176216 181.863609 
L 177.501196 174.059738 
L 177.826175 181.863609 
L 178.151155 166.255867 
L 178.801114 166.255867 
L 179.126093 174.059738 
L 179.451073 158.451996 
L 179.776052 166.255867 
L 180.101032 158.451996 
L 181.075971 158.451996 
L 181.40095 150.648125 
L 181.72593 158.451996 
L 182.050909 150.648125 
L 182.375889 150.648125 
L 182.700868 142.844254 
L 183.025848 150.648125 
L 183.350827 142.844254 
L 184.325766 142.844254 
L 184.650745 135.040383 
L 184.975725 142.844254 
L 185.300704 142.844254 
L 185.950663 127.236512 
L 186.275643 127.236512 
L 186.600622 135.040383 
L 186.925602 127.236512 
L 187.250581 127.236512 
L 187.575561 119.432642 
L 187.900541 119.432642 
L 188.22552 127.236512 
L 188.875479 111.628771 
L 189.200459 119.432642 
L 189.525438 111.628771 
L 190.175397 111.628771 
L 190.500377 119.432642 
L 190.825356 119.432642 
L 191.150336 96.021029 
L 191.800295 111.628771 
L 192.125274 111.628771 
L 192.450254 103.8249 
L 192.775233 103.8249 
L 193.100213 88.217158 
L 193.425192 103.8249 
L 193.750172 103.8249 
L 194.075152 96.021029 
L 194.725111 96.021029 
L 195.05009 88.217158 
L 195.37507 96.021029 
L 195.700049 88.217158 
L 196.025029 88.217158 
L 196.350008 80.413287 
L 196.999967 80.413287 
L 197.324947 88.217158 
L 197.649926 80.413287 
L 197.974906 80.413287 
L 198.299885 72.609416 
L 198.624865 80.413287 
L 199.274824 64.805545 
L 199.599803 80.413287 
L 199.924783 80.413287 
L 200.249762 64.805545 
L 200.574742 72.609416 
L 201.224701 72.609416 
L 201.549681 64.805545 
L 201.87466 72.609416 
L 202.19964 72.609416 
L 202.524619 80.413287 
L 202.849599 64.805545 
L 203.174578 72.609416 
L 203.499558 64.805545 
L 203.824537 72.609416 
L 204.474496 57.001674 
L 204.799476 64.805545 
L 205.449435 64.805545 
L 205.774414 72.609416 
L 206.424373 72.609416 
L 206.749353 57.001674 
L 207.399312 72.609416 
L 207.724292 64.805545 
L 208.049271 72.609416 
L 208.374251 72.609416 
L 208.69923 57.001674 
L 209.02421 80.413287 
L 209.349189 72.609416 
L 209.674169 72.609416 
L 209.999148 80.413287 
L 210.324128 80.413287 
L 210.649107 72.609416 
L 210.974087 88.217158 
L 211.299066 80.413287 
L 211.624046 80.413287 
L 211.949025 72.609416 
L 212.598984 88.217158 
L 213.573923 88.217158 
L 213.898903 80.413287 
L 214.223882 96.021029 
L 214.548862 88.217158 
L 214.873841 88.217158 
L 215.198821 96.021029 
L 215.5238 111.628771 
L 215.84878 96.021029 
L 216.498739 111.628771 
L 216.823718 111.628771 
L 217.148698 103.8249 
L 217.473677 111.628771 
L 217.798657 111.628771 
L 218.123636 127.236512 
L 218.448616 111.628771 
L 218.773595 119.432642 
L 219.098575 111.628771 
L 219.423554 127.236512 
L 219.748534 127.236512 
L 220.073514 119.432642 
L 220.398493 127.236512 
L 221.048452 127.236512 
L 221.698411 142.844254 
L 222.023391 135.040383 
L 222.67335 135.040383 
L 223.323309 150.648125 
L 223.648288 142.844254 
L 223.973268 150.648125 
L 224.298247 142.844254 
L 224.948206 158.451996 
L 225.273186 142.844254 
L 225.598165 158.451996 
L 225.923145 166.255867 
L 226.248124 158.451996 
L 226.573104 166.255867 
L 227.873022 166.255867 
L 228.198002 174.059738 
L 228.522981 174.059738 
L 228.847961 166.255867 
L 229.17294 174.059738 
L 229.49792 174.059738 
L 229.822899 189.66748 
L 230.147879 181.863609 
L 230.472858 181.863609 
L 231.122817 197.471351 
L 231.447797 181.863609 
L 231.772776 197.471351 
L 232.097756 189.66748 
L 232.422735 189.66748 
L 232.747715 197.471351 
L 233.072695 197.471351 
L 233.397674 205.275222 
L 234.372613 205.275222 
L 234.697592 197.471351 
L 235.022572 213.079093 
L 235.347551 213.079093 
L 235.672531 205.275222 
L 235.99751 220.882964 
L 236.32249 220.882964 
L 236.647469 213.079093 
L 236.972449 220.882964 
L 237.297428 220.882964 
L 237.622408 213.079093 
L 237.947387 213.079093 
L 238.597346 228.686835 
L 239.247305 228.686835 
L 239.572285 236.490706 
L 239.897265 220.882964 
L 240.222244 236.490706 
L 240.547224 236.490706 
L 240.872203 228.686835 
L 241.522162 244.294577 
L 241.847142 236.490706 
L 242.172121 244.294577 
L 243.472039 244.294577 
L 243.797019 252.098448 
L 244.121998 244.294577 
L 244.446978 252.098448 
L 244.771957 252.098448 
L 245.096937 244.294577 
L 245.421916 252.098448 
L 246.396855 252.098448 
L 246.721835 267.70619 
L 247.046814 259.902319 
L 247.371794 259.902319 
L 247.696773 267.70619 
L 248.021753 267.70619 
L 248.346732 259.902319 
L 248.996691 259.902319 
L 249.321671 275.510061 
L 249.64665 259.902319 
L 249.97163 267.70619 
L 250.296609 259.902319 
L 250.946568 275.510061 
L 251.271548 259.902319 
L 251.596527 275.510061 
L 251.921507 275.510061 
L 252.246486 267.70619 
L 252.896446 267.70619 
L 253.221425 275.510061 
L 253.546405 267.70619 
L 253.871384 267.70619 
L 254.196364 275.510061 
L 254.521343 267.70619 
L 255.171302 267.70619 
L 255.496282 259.902319 
L 255.821261 267.70619 
L 256.146241 259.902319 
L 256.7962 259.902319 
L 257.121179 267.70619 
L 257.446159 259.902319 
L 257.771138 267.70619 
L 258.096118 267.70619 
L 258.746077 252.098448 
L 259.071057 259.902319 
L 259.721016 259.902319 
L 260.045995 252.098448 
L 260.370975 259.902319 
L 260.695954 244.294577 
L 261.345913 244.294577 
L 261.670893 236.490706 
L 261.995872 244.294577 
L 262.320852 244.294577 
L 262.645831 228.686835 
L 263.29579 244.294577 
L 263.945749 228.686835 
L 264.270729 228.686835 
L 264.595708 236.490706 
L 265.245667 220.882964 
L 265.570647 220.882964 
L 265.895627 213.079093 
L 266.220606 220.882964 
L 266.545586 213.079093 
L 267.520524 213.079093 
L 267.845504 205.275222 
L 268.170483 213.079093 
L 268.495463 213.079093 
L 269.145422 197.471351 
L 269.795381 197.471351 
L 270.12036 205.275222 
L 270.44534 197.471351 
L 270.770319 197.471351 
L 271.095299 189.66748 
L 271.420278 197.471351 
L 272.070238 181.863609 
L 272.395217 181.863609 
L 272.720197 189.66748 
L 273.045176 181.863609 
L 273.370156 181.863609 
L 273.695135 174.059738 
L 274.345094 174.059738 
L 274.670074 166.255867 
L 275.969992 166.255867 
L 276.294971 150.648125 
L 276.619951 158.451996 
L 276.94493 158.451996 
L 277.26991 150.648125 
L 277.594889 150.648125 
L 277.919869 158.451996 
L 278.244848 150.648125 
L 278.894808 150.648125 
L 279.219787 142.844254 
L 280.519705 142.844254 
L 280.844685 135.040383 
L 281.169664 135.040383 
L 281.494644 127.236512 
L 281.819623 135.040383 
L 282.144603 135.040383 
L 282.469582 127.236512 
L 282.794562 127.236512 
L 283.119541 135.040383 
L 283.444521 119.432642 
L 283.7695 127.236512 
L 284.09448 127.236512 
L 284.419459 119.432642 
L 284.744439 119.432642 
L 285.069419 111.628771 
L 285.394398 119.432642 
L 286.044357 119.432642 
L 286.369337 111.628771 
L 286.694316 96.021029 
L 287.019296 111.628771 
L 287.344275 111.628771 
L 287.669255 103.8249 
L 287.994234 103.8249 
L 288.319214 111.628771 
L 288.644193 96.021029 
L 289.294152 96.021029 
L 289.619132 103.8249 
L 289.944111 88.217158 
L 290.269091 88.217158 
L 290.59407 96.021029 
L 290.91905 96.021029 
L 291.244029 88.217158 
L 291.569009 88.217158 
L 291.893989 80.413287 
L 292.218968 88.217158 
L 292.868927 72.609416 
L 293.518886 88.217158 
L 293.843866 80.413287 
L 294.818804 80.413287 
L 295.143784 64.805545 
L 295.468763 72.609416 
L 295.793743 72.609416 
L 296.118722 80.413287 
L 296.443702 72.609416 
L 296.768681 72.609416 
L 297.093661 64.805545 
L 297.41864 72.609416 
L 297.74362 72.609416 
L 298.0686 64.805545 
L 298.393579 72.609416 
L 298.718559 72.609416 
L 299.043538 64.805545 
L 299.368518 72.609416 
L 300.018477 72.609416 
L 300.343456 57.001674 
L 300.993415 72.609416 
L 301.643374 72.609416 
L 301.968354 80.413287 
L 302.293333 64.805545 
L 302.618313 72.609416 
L 302.943292 64.805545 
L 303.593251 64.805545 
L 303.918231 72.609416 
L 304.24321 64.805545 
L 304.56819 72.609416 
L 306.193088 72.609416 
L 306.518067 80.413287 
L 306.843047 80.413287 
L 307.168026 88.217158 
L 307.493006 72.609416 
L 307.817985 88.217158 
L 308.142965 80.413287 
L 308.792924 80.413287 
L 309.117903 96.021029 
L 309.442883 80.413287 
L 310.092842 96.021029 
L 310.417821 96.021029 
L 310.742801 88.217158 
L 311.067781 88.217158 
L 311.71774 103.8249 
L 312.042719 96.021029 
L 312.367699 103.8249 
L 312.692678 96.021029 
L 313.017658 111.628771 
L 313.342637 111.628771 
L 313.667617 103.8249 
L 314.317576 119.432642 
L 314.967535 119.432642 
L 315.292514 127.236512 
L 316.267453 127.236512 
L 316.592432 135.040383 
L 317.892351 135.040383 
L 318.21733 142.844254 
L 318.54231 142.844254 
L 318.867289 135.040383 
L 319.192269 150.648125 
L 319.517248 150.648125 
L 319.842228 135.040383 
L 320.167207 150.648125 
L 320.492187 158.451996 
L 320.817166 150.648125 
L 321.142146 150.648125 
L 321.792105 166.255867 
L 322.117084 166.255867 
L 322.442064 158.451996 
L 322.767043 166.255867 
L 323.092023 150.648125 
L 323.417002 174.059738 
L 323.741982 174.059738 
L 324.066962 166.255867 
L 324.716921 181.863609 
L 325.0419 174.059738 
L 325.36688 181.863609 
L 326.666798 181.863609 
L 326.991777 189.66748 
L 327.641736 189.66748 
L 327.966716 197.471351 
L 328.291695 189.66748 
L 328.616675 197.471351 
L 329.266634 197.471351 
L 329.591613 205.275222 
L 329.916593 205.275222 
L 330.241572 197.471351 
L 330.891532 213.079093 
L 331.216511 205.275222 
L 331.541491 205.275222 
L 331.86647 213.079093 
L 332.841409 213.079093 
L 333.166388 220.882964 
L 333.491368 213.079093 
L 333.816347 228.686835 
L 334.141327 220.882964 
L 334.466306 220.882964 
L 335.116265 236.490706 
L 335.441245 220.882964 
L 335.766224 236.490706 
L 336.416183 236.490706 
L 336.741163 228.686835 
L 337.391122 244.294577 
L 337.716102 244.294577 
L 338.041081 236.490706 
L 338.366061 244.294577 
L 338.69104 236.490706 
L 339.01602 244.294577 
L 339.990958 244.294577 
L 340.315938 259.902319 
L 340.640917 252.098448 
L 340.965897 252.098448 
L 341.615856 267.70619 
L 341.940835 259.902319 
L 342.265815 259.902319 
L 342.590794 267.70619 
L 342.915774 259.902319 
L 343.890713 259.902319 
L 344.215692 267.70619 
L 344.540672 259.902319 
L 345.190631 259.902319 
L 345.51561 275.510061 
L 345.84059 267.70619 
L 346.815528 267.70619 
L 347.140508 259.902319 
L 347.790467 275.510061 
L 348.115446 275.510061 
L 348.440426 267.70619 
L 349.415364 267.70619 
L 349.740344 259.902319 
L 350.065324 259.902319 
L 350.390303 267.70619 
L 351.040262 267.70619 
L 351.365242 275.510061 
L 351.690221 267.70619 
L 352.015201 267.70619 
L 352.34018 259.902319 
L 352.66516 267.70619 
L 353.315119 267.70619 
L 353.640098 259.902319 
L 354.290057 259.902319 
L 354.615037 252.098448 
L 354.940016 259.902319 
L 355.264996 252.098448 
L 355.589975 252.098448 
L 355.914955 259.902319 
L 356.239934 252.098448 
L 357.214873 252.098448 
L 357.539853 244.294577 
L 358.514791 244.294577 
L 358.839771 236.490706 
L 359.16475 236.490706 
L 359.48973 228.686835 
L 359.814709 236.490706 
L 360.139689 220.882964 
L 360.464668 220.882964 
L 360.789648 228.686835 
L 361.114627 228.686835 
L 361.439607 220.882964 
L 361.764586 220.882964 
L 362.089566 228.686835 
L 362.739525 213.079093 
L 364.039443 213.079093 
L 364.689402 197.471351 
L 365.014382 205.275222 
L 365.339361 205.275222 
L 365.664341 189.66748 
L 366.3143 205.275222 
L 366.639279 189.66748 
L 367.614218 189.66748 
L 367.939197 181.863609 
L 368.264177 181.863609 
L 368.589156 189.66748 
L 369.239115 174.059738 
L 369.564095 181.863609 
L 369.889075 166.255867 
L 370.214054 174.059738 
L 370.864013 158.451996 
L 371.513972 174.059738 
L 371.838952 166.255867 
L 372.488911 166.255867 
L 372.81389 150.648125 
L 373.463849 150.648125 
L 373.788829 158.451996 
L 374.438788 142.844254 
L 374.763767 150.648125 
L 375.088747 142.844254 
L 375.413726 142.844254 
L 375.738706 135.040383 
L 376.388665 135.040383 
L 376.713645 150.648125 
L 377.038624 135.040383 
L 377.688583 135.040383 
L 378.338542 119.432642 
L 378.663522 119.432642 
L 378.988501 127.236512 
L 379.313481 127.236512 
L 379.63846 119.432642 
L 379.96344 119.432642 
L 380.288419 111.628771 
L 380.613399 127.236512 
L 380.938378 127.236512 
L 381.263358 111.628771 
L 382.563276 111.628771 
L 382.888256 103.8249 
L 384.188174 103.8249 
L 384.513153 111.628771 
L 384.838133 103.8249 
L 385.163112 103.8249 
L 385.488092 88.217158 
L 385.813071 96.021029 
L 386.138051 88.217158 
L 386.46303 96.021029 
L 387.112989 96.021029 
L 387.437969 88.217158 
L 387.762948 96.021029 
L 388.087928 80.413287 
L 388.412907 88.217158 
L 388.737887 80.413287 
L 389.062867 80.413287 
L 389.387846 88.217158 
L 389.712826 88.217158 
L 390.037805 80.413287 
L 390.362785 80.413287 
L 390.687764 64.805545 
L 391.012744 80.413287 
L 391.337723 72.609416 
L 392.312662 72.609416 
L 392.637641 64.805545 
L 392.962621 72.609416 
L 393.61258 72.609416 
L 393.937559 64.805545 
L 394.262539 72.609416 
L 394.912498 72.609416 
L 395.237477 64.805545 
L 395.562457 72.609416 
L 395.887437 57.001674 
L 396.212416 64.805545 
L 396.537396 64.805545 
L 396.862375 57.001674 
L 397.187355 72.609416 
L 397.512334 72.609416 
L 397.837314 64.805545 
L 398.162293 64.805545 
L 398.487273 72.609416 
L 398.487273 72.609416 
" clip-path="url(#pdc3c231c3a)" style="fill: none; stroke: #1f77b4; stroke-width: 1.5; stroke-linecap: square"/>
   </g>
   <g id="line2d_13">
    <path d="M 73.832727 279.880258 
L 74.157707 272.076387 
L 74.482686 279.880258 
L 74.807666 279.880258 
L 75.132645 272.076387 
L 75.457625 279.880258 
L 77.407502 279.880258 
L 77.732482 287.684129 
L 78.057461 272.076387 
L 78.382441 279.880258 
L 78.70742 295.488 
L 79.0324 287.684129 
L 79.357379 295.488 
L 79.682359 287.684129 
L 80.657297 287.684129 
L 80.982277 295.488 
L 81.307256 287.684129 
L 81.632236 287.684129 
L 81.957215 279.880258 
L 82.607174 279.880258 
L 82.932154 287.684129 
L 83.257133 272.076387 
L 83.582113 287.684129 
L 83.907093 295.488 
L 84.557052 279.880258 
L 84.882031 279.880258 
L 85.207011 272.076387 
L 85.53199 272.076387 
L 85.85697 264.272516 
L 86.181949 272.076387 
L 86.506929 272.076387 
L 86.831908 264.272516 
L 87.156888 264.272516 
L 87.481867 256.468645 
L 87.806847 256.468645 
L 88.131826 264.272516 
L 88.456806 248.664774 
L 88.781785 248.664774 
L 89.106765 256.468645 
L 89.431744 256.468645 
L 89.756724 240.860903 
L 91.381622 240.860903 
L 91.706601 233.057032 
L 92.35656 233.057032 
L 92.68154 225.253161 
L 93.006519 225.253161 
L 93.331499 233.057032 
L 93.656478 217.44929 
L 93.981458 233.057032 
L 94.306437 233.057032 
L 94.631417 240.860903 
L 95.281376 225.253161 
L 95.606355 225.253161 
L 95.931335 217.44929 
L 96.256314 225.253161 
L 96.581294 225.253161 
L 96.906274 217.44929 
L 97.556233 217.44929 
L 98.206192 201.841548 
L 98.531171 217.44929 
L 98.856151 201.841548 
L 99.18113 209.645419 
L 99.831089 209.645419 
L 100.481048 194.037677 
L 100.806028 201.841548 
L 101.131007 194.037677 
L 101.455987 194.037677 
L 101.780966 201.841548 
L 102.430925 186.233806 
L 103.730844 186.233806 
L 104.055823 178.429935 
L 105.355741 178.429935 
L 105.680721 170.626065 
L 107.305618 170.626065 
L 107.630598 155.018323 
L 107.955577 162.822194 
L 108.605536 147.214452 
L 108.930516 155.018323 
L 109.255495 131.60671 
L 109.580475 147.214452 
L 109.905455 147.214452 
L 110.230434 155.018323 
L 110.880393 139.410581 
L 111.205373 139.410581 
L 111.530352 131.60671 
L 111.855332 139.410581 
L 112.180311 139.410581 
L 112.505291 131.60671 
L 113.15525 131.60671 
L 113.480229 115.998968 
L 113.805209 123.802839 
L 114.130188 123.802839 
L 114.455168 108.195097 
L 115.105127 123.802839 
L 115.430106 115.998968 
L 116.080066 115.998968 
L 116.405045 108.195097 
L 117.704963 108.195097 
L 118.029943 100.391226 
L 118.354922 100.391226 
L 118.679902 92.587355 
L 119.004881 92.587355 
L 119.329861 100.391226 
L 119.65484 84.783484 
L 119.97982 92.587355 
L 120.304799 92.587355 
L 120.629779 100.391226 
L 120.954758 84.783484 
L 121.279738 84.783484 
L 121.604717 92.587355 
L 121.929697 92.587355 
L 122.254676 84.783484 
L 122.904636 84.783484 
L 123.229615 76.979613 
L 123.554595 76.979613 
L 123.879574 69.175742 
L 124.529533 84.783484 
L 124.854513 69.175742 
L 125.179492 69.175742 
L 125.504472 76.979613 
L 126.154431 76.979613 
L 126.47941 69.175742 
L 126.80439 76.979613 
L 127.779328 76.979613 
L 128.104308 61.371871 
L 128.754267 76.979613 
L 129.079247 69.175742 
L 129.729206 69.175742 
L 130.054185 53.568 
L 130.379165 76.979613 
L 131.029124 76.979613 
L 131.354103 61.371871 
L 131.679083 76.979613 
L 132.979001 76.979613 
L 133.30398 84.783484 
L 134.603898 84.783484 
L 134.928878 92.587355 
L 135.578837 92.587355 
L 135.903817 108.195097 
L 136.228796 108.195097 
L 136.553776 92.587355 
L 136.878755 108.195097 
L 137.528714 108.195097 
L 137.853694 115.998968 
L 140.45353 115.998968 
L 140.778509 123.802839 
L 141.103489 139.410581 
L 141.753448 123.802839 
L 142.078428 123.802839 
L 142.403407 131.60671 
L 142.728387 123.802839 
L 143.053366 131.60671 
L 143.703325 131.60671 
L 144.028305 123.802839 
L 144.353284 131.60671 
L 144.678264 131.60671 
L 145.003243 123.802839 
L 145.328223 139.410581 
L 145.653202 131.60671 
L 146.303161 147.214452 
L 147.2781 147.214452 
L 147.603079 155.018323 
L 148.578018 155.018323 
L 148.902998 162.822194 
L 149.227977 155.018323 
L 149.552957 162.822194 
L 149.877936 155.018323 
L 150.527895 170.626065 
L 150.852875 162.822194 
L 151.502834 178.429935 
L 151.827813 178.429935 
L 152.152793 170.626065 
L 152.802752 170.626065 
L 153.127731 178.429935 
L 154.427649 178.429935 
L 154.752629 186.233806 
L 155.077609 178.429935 
L 155.727568 194.037677 
L 156.052547 186.233806 
L 157.027486 209.645419 
L 157.352465 201.841548 
L 157.677445 201.841548 
L 158.002424 209.645419 
L 158.327404 209.645419 
L 158.652383 217.44929 
L 160.60226 217.44929 
L 160.92724 233.057032 
L 161.252219 217.44929 
L 161.577199 233.057032 
L 162.552138 233.057032 
L 162.877117 240.860903 
L 164.826994 240.860903 
L 165.151974 248.664774 
L 165.476953 240.860903 
L 166.126912 256.468645 
L 166.451892 248.664774 
L 167.101851 264.272516 
L 169.376708 264.272516 
L 170.026667 279.880258 
L 170.351646 272.076387 
L 171.001605 272.076387 
L 171.326585 279.880258 
L 171.651564 264.272516 
L 171.976544 272.076387 
L 172.301523 287.684129 
L 172.626503 279.880258 
L 172.951482 287.684129 
L 173.276462 279.880258 
L 174.2514 279.880258 
L 174.57638 287.684129 
L 174.90136 279.880258 
L 175.226339 279.880258 
L 175.551319 287.684129 
L 175.876298 279.880258 
L 176.201278 287.684129 
L 176.526257 287.684129 
L 176.851237 279.880258 
L 177.176216 279.880258 
L 177.826175 295.488 
L 178.151155 295.488 
L 178.476134 287.684129 
L 178.801114 287.684129 
L 179.126093 279.880258 
L 179.451073 287.684129 
L 179.776052 279.880258 
L 180.426011 279.880258 
L 180.750991 272.076387 
L 181.075971 279.880258 
L 181.40095 272.076387 
L 181.72593 279.880258 
L 182.050909 264.272516 
L 182.375889 272.076387 
L 182.700868 272.076387 
L 183.025848 279.880258 
L 183.350827 264.272516 
L 184.000786 264.272516 
L 184.650745 248.664774 
L 184.975725 256.468645 
L 185.300704 248.664774 
L 185.625684 248.664774 
L 185.950663 240.860903 
L 186.275643 240.860903 
L 186.600622 233.057032 
L 186.925602 240.860903 
L 187.250581 233.057032 
L 187.900541 233.057032 
L 188.22552 240.860903 
L 188.875479 225.253161 
L 189.200459 233.057032 
L 189.850418 233.057032 
L 190.175397 225.253161 
L 190.500377 233.057032 
L 190.825356 225.253161 
L 191.475315 225.253161 
L 191.800295 217.44929 
L 192.125274 225.253161 
L 192.450254 209.645419 
L 193.100213 225.253161 
L 193.425192 225.253161 
L 193.750172 209.645419 
L 195.700049 209.645419 
L 196.025029 194.037677 
L 196.350008 201.841548 
L 196.674988 194.037677 
L 197.324947 194.037677 
L 197.649926 186.233806 
L 197.974906 186.233806 
L 198.299885 201.841548 
L 198.624865 201.841548 
L 199.274824 186.233806 
L 199.599803 186.233806 
L 199.924783 178.429935 
L 200.249762 186.233806 
L 200.574742 178.429935 
L 200.899722 186.233806 
L 201.224701 170.626065 
L 201.87466 170.626065 
L 202.19964 162.822194 
L 202.524619 170.626065 
L 202.849599 155.018323 
L 203.499558 170.626065 
L 204.149517 155.018323 
L 204.799476 155.018323 
L 205.124455 147.214452 
L 205.449435 147.214452 
L 205.774414 155.018323 
L 206.424373 139.410581 
L 207.074333 139.410581 
L 207.399312 131.60671 
L 207.724292 139.410581 
L 208.049271 123.802839 
L 208.69923 139.410581 
L 209.02421 131.60671 
L 209.349189 131.60671 
L 209.674169 123.802839 
L 211.299066 123.802839 
L 211.624046 115.998968 
L 211.949025 115.998968 
L 212.598984 100.391226 
L 212.923964 108.195097 
L 213.248943 100.391226 
L 213.573923 108.195097 
L 214.223882 108.195097 
L 214.548862 100.391226 
L 215.198821 100.391226 
L 215.5238 92.587355 
L 215.84878 92.587355 
L 216.173759 100.391226 
L 216.823718 84.783484 
L 217.473677 84.783484 
L 217.798657 76.979613 
L 218.123636 84.783484 
L 218.448616 76.979613 
L 218.773595 92.587355 
L 219.098575 84.783484 
L 219.423554 84.783484 
L 220.073514 69.175742 
L 220.398493 84.783484 
L 220.723473 76.979613 
L 221.048452 76.979613 
L 221.373432 69.175742 
L 221.698411 76.979613 
L 222.023391 69.175742 
L 222.34837 76.979613 
L 222.998329 61.371871 
L 223.323309 76.979613 
L 223.648288 61.371871 
L 223.973268 76.979613 
L 224.623227 76.979613 
L 224.948206 69.175742 
L 225.598165 69.175742 
L 225.923145 76.979613 
L 226.248124 69.175742 
L 226.573104 69.175742 
L 226.898084 76.979613 
L 227.223063 69.175742 
L 227.548043 76.979613 
L 227.873022 69.175742 
L 228.198002 69.175742 
L 228.522981 84.783484 
L 228.847961 76.979613 
L 229.17294 84.783484 
L 229.822899 84.783484 
L 230.147879 92.587355 
L 230.472858 84.783484 
L 230.797838 92.587355 
L 231.122817 84.783484 
L 231.447797 100.391226 
L 231.772776 108.195097 
L 232.097756 108.195097 
L 232.422735 100.391226 
L 232.747715 108.195097 
L 233.072695 108.195097 
L 233.397674 100.391226 
L 234.047633 100.391226 
L 234.372613 115.998968 
L 234.697592 123.802839 
L 235.022572 115.998968 
L 235.347551 115.998968 
L 235.672531 123.802839 
L 235.99751 123.802839 
L 236.32249 115.998968 
L 236.647469 131.60671 
L 236.972449 123.802839 
L 237.297428 131.60671 
L 237.622408 123.802839 
L 238.272367 123.802839 
L 238.597346 115.998968 
L 238.922326 131.60671 
L 239.247305 115.998968 
L 239.572285 131.60671 
L 240.222244 147.214452 
L 240.872203 131.60671 
L 241.197183 139.410581 
L 241.522162 131.60671 
L 242.172121 147.214452 
L 242.497101 139.410581 
L 242.82208 139.410581 
L 243.14706 147.214452 
L 243.472039 139.410581 
L 244.121998 155.018323 
L 244.446978 147.214452 
L 245.421916 170.626065 
L 245.746896 162.822194 
L 246.071876 162.822194 
L 246.396855 170.626065 
L 246.721835 162.822194 
L 247.046814 170.626065 
L 247.696773 170.626065 
L 248.021753 178.429935 
L 248.671712 178.429935 
L 248.996691 162.822194 
L 249.321671 178.429935 
L 249.64665 170.626065 
L 249.97163 186.233806 
L 250.296609 186.233806 
L 250.621589 194.037677 
L 250.946568 186.233806 
L 251.596527 186.233806 
L 251.921507 194.037677 
L 252.246486 194.037677 
L 252.896446 209.645419 
L 253.221425 194.037677 
L 253.546405 209.645419 
L 253.871384 201.841548 
L 254.196364 201.841548 
L 254.521343 217.44929 
L 254.846323 209.645419 
L 255.496282 225.253161 
L 256.47122 225.253161 
L 256.7962 233.057032 
L 257.121179 225.253161 
L 257.446159 233.057032 
L 258.096118 233.057032 
L 258.421097 240.860903 
L 258.746077 240.860903 
L 259.071057 233.057032 
L 259.396036 240.860903 
L 259.721016 240.860903 
L 260.045995 233.057032 
L 260.370975 248.664774 
L 260.695954 248.664774 
L 261.020934 256.468645 
L 261.670893 256.468645 
L 261.995872 248.664774 
L 262.320852 256.468645 
L 262.645831 256.468645 
L 262.970811 264.272516 
L 263.29579 264.272516 
L 263.62077 256.468645 
L 263.945749 264.272516 
L 264.595708 264.272516 
L 264.920688 272.076387 
L 265.245667 264.272516 
L 265.570647 272.076387 
L 265.895627 287.684129 
L 266.220606 279.880258 
L 267.520524 279.880258 
L 267.845504 272.076387 
L 268.170483 279.880258 
L 269.145422 279.880258 
L 269.470401 272.076387 
L 270.12036 287.684129 
L 270.44534 272.076387 
L 270.770319 279.880258 
L 271.095299 295.488 
L 271.420278 295.488 
L 272.070238 279.880258 
L 272.395217 295.488 
L 273.045176 279.880258 
L 273.370156 287.684129 
L 274.020115 287.684129 
L 274.345094 279.880258 
L 274.995053 279.880258 
L 275.320033 287.684129 
L 275.645012 272.076387 
L 276.294971 287.684129 
L 276.619951 287.684129 
L 276.94493 279.880258 
L 277.26991 279.880258 
L 277.594889 272.076387 
L 277.919869 272.076387 
L 278.244848 264.272516 
L 278.569828 264.272516 
L 278.894808 272.076387 
L 279.219787 264.272516 
L 279.544767 264.272516 
L 280.194726 248.664774 
L 280.519705 248.664774 
L 280.844685 240.860903 
L 281.494644 256.468645 
L 282.144603 240.860903 
L 283.444521 240.860903 
L 283.7695 233.057032 
L 284.744439 233.057032 
L 285.069419 225.253161 
L 285.394398 225.253161 
L 285.719378 233.057032 
L 286.044357 217.44929 
L 286.694316 233.057032 
L 287.344275 233.057032 
L 287.669255 225.253161 
L 287.994234 225.253161 
L 288.319214 217.44929 
L 288.644193 217.44929 
L 288.969173 225.253161 
L 289.294152 217.44929 
L 289.619132 217.44929 
L 290.269091 201.841548 
L 290.59407 201.841548 
L 290.91905 209.645419 
L 291.244029 194.037677 
L 291.893989 209.645419 
L 292.218968 209.645419 
L 292.543948 194.037677 
L 293.193907 194.037677 
L 293.518886 186.233806 
L 294.493825 186.233806 
L 294.818804 178.429935 
L 295.143784 186.233806 
L 295.468763 186.233806 
L 295.793743 178.429935 
L 296.118722 194.037677 
L 296.443702 170.626065 
L 297.093661 186.233806 
L 297.74362 170.626065 
L 298.393579 170.626065 
L 298.718559 162.822194 
L 299.043538 170.626065 
L 299.368518 170.626065 
L 300.018477 155.018323 
L 300.343456 155.018323 
L 300.668436 139.410581 
L 300.993415 147.214452 
L 301.318395 147.214452 
L 301.643374 139.410581 
L 301.968354 147.214452 
L 302.293333 139.410581 
L 302.618313 147.214452 
L 302.943292 139.410581 
L 303.593251 139.410581 
L 303.918231 131.60671 
L 304.56819 131.60671 
L 304.89317 139.410581 
L 305.218149 123.802839 
L 306.518067 123.802839 
L 306.843047 115.998968 
L 308.142965 115.998968 
L 308.467944 108.195097 
L 310.092842 108.195097 
L 310.417821 100.391226 
L 310.742801 100.391226 
L 311.067781 92.587355 
L 311.71774 92.587355 
L 312.042719 84.783484 
L 312.367699 92.587355 
L 313.017658 92.587355 
L 313.667617 76.979613 
L 313.992596 76.979613 
L 314.317576 84.783484 
L 314.642555 76.979613 
L 315.292514 76.979613 
L 315.617494 69.175742 
L 315.942473 76.979613 
L 316.267453 69.175742 
L 316.917412 84.783484 
L 317.242391 69.175742 
L 317.567371 76.979613 
L 317.892351 76.979613 
L 318.21733 84.783484 
L 318.54231 69.175742 
L 320.492187 69.175742 
L 320.817166 61.371871 
L 321.142146 69.175742 
L 322.117084 69.175742 
L 322.442064 53.568 
L 322.767043 76.979613 
L 323.092023 84.783484 
L 323.417002 84.783484 
L 323.741982 69.175742 
L 324.066962 76.979613 
L 324.391941 76.979613 
L 324.716921 84.783484 
L 325.0419 76.979613 
L 325.691859 92.587355 
L 326.016839 84.783484 
L 326.341818 84.783484 
L 326.666798 92.587355 
L 326.991777 92.587355 
L 327.316757 100.391226 
L 327.641736 84.783484 
L 327.966716 108.195097 
L 328.291695 115.998968 
L 328.941654 100.391226 
L 329.266634 100.391226 
L 329.591613 108.195097 
L 329.916593 108.195097 
L 330.241572 115.998968 
L 330.566552 115.998968 
L 330.891532 123.802839 
L 331.216511 115.998968 
L 331.541491 123.802839 
L 332.516429 123.802839 
L 332.841409 115.998968 
L 333.491368 131.60671 
L 334.141327 131.60671 
L 334.466306 123.802839 
L 334.791286 131.60671 
L 335.116265 123.802839 
L 335.441245 131.60671 
L 336.416183 131.60671 
L 336.741163 139.410581 
L 337.066143 131.60671 
L 337.391122 139.410581 
L 337.716102 139.410581 
L 338.041081 131.60671 
L 338.366061 147.214452 
L 338.69104 147.214452 
L 339.01602 155.018323 
L 339.340999 147.214452 
L 339.665979 147.214452 
L 339.990958 155.018323 
L 340.640917 155.018323 
L 341.290876 170.626065 
L 341.615856 162.822194 
L 342.590794 162.822194 
L 342.915774 170.626065 
L 343.240753 162.822194 
L 343.890713 178.429935 
L 345.84059 178.429935 
L 346.165569 186.233806 
L 346.815528 186.233806 
L 347.140508 194.037677 
L 347.465487 186.233806 
L 348.115446 201.841548 
L 348.440426 186.233806 
L 348.765405 201.841548 
L 349.415364 217.44929 
L 349.740344 209.645419 
L 350.065324 209.645419 
L 350.390303 217.44929 
L 350.715283 209.645419 
L 351.040262 217.44929 
L 351.690221 217.44929 
L 352.015201 225.253161 
L 352.34018 225.253161 
L 352.66516 217.44929 
L 352.990139 225.253161 
L 353.315119 225.253161 
L 353.640098 217.44929 
L 353.965078 233.057032 
L 354.290057 240.860903 
L 354.940016 240.860903 
L 355.264996 233.057032 
L 355.589975 248.664774 
L 357.214873 248.664774 
L 357.539853 256.468645 
L 357.864832 248.664774 
L 358.189812 256.468645 
L 358.514791 256.468645 
L 358.839771 248.664774 
L 359.16475 264.272516 
L 359.48973 264.272516 
L 359.814709 272.076387 
L 360.139689 264.272516 
L 360.789648 264.272516 
L 361.114627 272.076387 
L 361.439607 264.272516 
L 361.764586 272.076387 
L 362.089566 272.076387 
L 362.414545 279.880258 
L 362.739525 272.076387 
L 363.064505 279.880258 
L 363.714464 279.880258 
L 364.039443 264.272516 
L 364.364423 272.076387 
L 364.689402 287.684129 
L 365.014382 287.684129 
L 365.339361 279.880258 
L 366.3143 279.880258 
L 366.639279 287.684129 
L 367.614218 287.684129 
L 367.939197 279.880258 
L 368.264177 279.880258 
L 368.589156 287.684129 
L 368.914136 287.684129 
L 369.239115 279.880258 
L 369.889075 295.488 
L 370.539034 295.488 
L 370.864013 287.684129 
L 371.188993 287.684129 
L 371.513972 279.880258 
L 372.81389 279.880258 
L 373.13887 272.076387 
L 374.113808 272.076387 
L 374.438788 256.468645 
L 375.088747 272.076387 
L 375.738706 256.468645 
L 376.063686 256.468645 
L 376.388665 248.664774 
L 376.713645 256.468645 
L 377.363604 240.860903 
L 378.663522 240.860903 
L 378.988501 233.057032 
L 379.313481 240.860903 
L 379.63846 225.253161 
L 380.288419 240.860903 
L 380.613399 240.860903 
L 380.938378 225.253161 
L 381.588337 225.253161 
L 381.913317 217.44929 
L 382.238296 233.057032 
L 382.888256 233.057032 
L 383.213235 225.253161 
L 383.538215 225.253161 
L 383.863194 217.44929 
L 384.513153 217.44929 
L 384.838133 209.645419 
L 385.163112 217.44929 
L 385.813071 217.44929 
L 386.138051 209.645419 
L 386.46303 209.645419 
L 386.78801 201.841548 
L 387.112989 209.645419 
L 387.437969 201.841548 
L 388.412907 201.841548 
L 388.737887 194.037677 
L 389.062867 194.037677 
L 389.387846 186.233806 
L 389.712826 194.037677 
L 390.037805 178.429935 
L 390.362785 186.233806 
L 391.337723 186.233806 
L 391.662703 178.429935 
L 391.987682 178.429935 
L 392.312662 170.626065 
L 392.637641 178.429935 
L 393.61258 178.429935 
L 393.937559 170.626065 
L 394.262539 170.626065 
L 394.587518 162.822194 
L 394.912498 170.626065 
L 395.237477 155.018323 
L 395.562457 162.822194 
L 396.212416 162.822194 
L 396.862375 147.214452 
L 397.187355 155.018323 
L 397.837314 139.410581 
L 398.487273 139.410581 
L 398.487273 139.410581 
" clip-path="url(#pdc3c231c3a)" style="fill: none; stroke: #ff7f0e; stroke-width: 1.5; stroke-linecap: square"/>
   </g>
   <g id="line2d_14">
    <path d="M 73.832727 152.384627 
L 80.007338 152.315953 
L 82.932154 152.337804 
L 85.207011 152.344047 
L 88.131826 152.325318 
L 90.406683 152.340926 
L 94.306437 152.356533 
L 98.856151 152.322196 
L 101.131007 152.406478 
L 103.730844 152.340926 
L 107.305618 152.378384 
L 109.255495 152.334682 
L 112.505291 152.381506 
L 398.487273 152.39087 
L 398.487273 152.39087 
" clip-path="url(#pdc3c231c3a)" style="fill: none; stroke: #2ca02c; stroke-width: 1.5; stroke-linecap: square"/>
   </g>
   <g id="patch_3">
    <path d="M 57.6 307.584 
L 57.6 41.472 
" style="fill: none; stroke: #000000; stroke-width: 0.8; stroke-linejoin: miter; stroke-linecap: square"/>
   </g>
   <g id="patch_4">
    <path d="M 414.72 307.584 
L 414.72 41.472 
" style="fill: none; stroke: #000000; stroke-width: 0.8; stroke-linejoin: miter; stroke-linecap: square"/>
   </g>
   <g id="patch_5">
    <path d="M 57.6 307.584 
L 414.72 307.584 
" style="fill: none; stroke: #000000; stroke-width: 0.8; stroke-linejoin: miter; stroke-linecap: square"/>
   </g>
   <g id="patch_6">
    <path d="M 57.6 41.472 
L 414.72 41.472 
" style="fill: none; stroke: #000000; stroke-width: 0.8; stroke-linejoin: miter; stroke-linecap: square"/>
   </g>
  </g>
 </g>
 <defs>
  <clipPath id="pdc3c231c3a">
   <rect x="57.6" y="41.472" width="357.12" height="266.112"/>
  </clipPath>
 </defs>
</svg>
