<?xml version="1.0" encoding="utf-8" standalone="no"?>
<!DOCTYPE svg PUBLIC "-//W3C//DTD SVG 1.1//EN"
  "http://www.w3.org/Graphics/SVG/1.1/DTD/svg11.dtd">
<svg xmlns:xlink="http://www.w3.org/1999/xlink" width="460.8pt" height="345.6pt" viewBox="0 0 460.8 345.6" xmlns="http://www.w3.org/2000/svg" version="1.1">
 <metadata>
  <rdf:RDF xmlns:dc="http://purl.org/dc/elements/1.1/" xmlns:cc="http://creativecommons.org/ns#" xmlns:rdf="http://www.w3.org/1999/02/22-rdf-syntax-ns#">
   <cc:Work>
    <dc:type rdf:resource="http://purl.org/dc/dcmitype/StillImage"/>
    <dc:date>2025-12-22T22:20:11.724517</dc:date>
    <dc:format>image/svg+xml</dc:format>
    <dc:creator>
     <cc:Agent>
      <dc:title>Matplotlib v3.10.8, https://matplotlib.org/</dc:title>
     </cc:Agent>
    </dc:creator>
   </cc:Work>
  </rdf:RDF>
 </metadata>
 <defs>
  <style type="text/css">*{stroke-linejoin: round; stroke-linecap: butt}</style>
 </defs>
 <g id="figure_1">
  <g id="patch_1">
   <path d="M 0 345.6 
L 460.8 345.6 
L 460.8 0 
L 0 0 
z
" style="fill: #ffffff"/>
  </g>
  <g id="axes_1">
   <g id="patch_2">
    <path d="M 57.6 307.584 
L 414.72 307.584 
L 414.72 41.472 
L 57.6 41.472 
z
" style="fill: #ffffff"/>
   </g>
   <g id="matplotlib.axis_1">
    <g id="xtick_1">
     <g id="line2d_1">
      <defs>
       <path id="m7b72608675" d="M 0 0 
L 0 3.5 
" style="stroke: #000000; stroke-width: 0.8"/>
      </defs>
      <g>
       <use xlink:href="#m7b72608675" x="73.832727" y="307.584" style="stroke: #000000; stroke-width: 0.8"/>
      </g>
     </g>
     <g id="text_1">
      <!-- 0 -->
      <g transform="translate(70.651477 322.182437) scale(0.1 -0.1)">
       <defs>
        <path id="DejaVuSans-30" d="M 2034 4250 
Q 1547 4250 1301 3770 
Q 1056 3291 1056 2328 
Q 1056 1369 1301 889 
Q 1547 409 2034 409 
Q 2525 409 2770 889 
Q 3016 1369 3016 2328 
Q 3016 3291 2770 3770 
Q 2525 4250 2034 4250 
z
M 2034 4750 
Q 2819 4750 3233 4129 
Q 3647 3509 3647 2328 
Q 3647 1150 3233 529 
Q 2819 -91 2034 -91 
Q 1250 -91 836 529 
Q 422 1150 422 2328 
Q 422 3509 836 4129 
Q 1250 4750 2034 4750 
z
" transform="scale(0.015625)"/>
       </defs>
       <use xlink:href="#DejaVuSans-30"/>
      </g>
     </g>
    </g>
    <g id="xtick_2">
     <g id="line2d_2">
      <g>
       <use xlink:href="#m7b72608675" x="138.828632" y="307.584" style="stroke: #000000; stroke-width: 0.8"/>
      </g>
     </g>
     <g id="text_2">
      <!-- 1 -->
      <g transform="translate(135.647382 322.182437) scale(0.1 -0.1)">
       <defs>
        <path id="DejaVuSans-31" d="M 794 531 
L 1825 531 
L 1825 4091 
L 703 3866 
L 703 4441 
L 1819 4666 
L 2450 4666 
L 2450 531 
L 3481 531 
L 3481 0 
L 794 0 
L 794 531 
z
" transform="scale(0.015625)"/>
       </defs>
       <use xlink:href="#DejaVuSans-31"/>
      </g>
     </g>
    </g>
    <g id="xtick_3">
     <g id="line2d_3">
      <g>
       <use xlink:href="#m7b72608675" x="203.824537" y="307.584" style="stroke: #000000; stroke-width: 0.8"/>
      </g>
     </g>
     <g id="text_3">
      <!-- 2 -->
      <g transform="translate(200.643287 322.182437) scale(0.1 -0.1)">
       <defs>
        <path id="DejaVuSans-32" d="M 1228 531 
L 3431 531 
L 3431 0 
L 469 0 
L 469 531 
Q 828 903 1448 1529 
Q 2069 2156 2228 2338 
Q 2531 2678 2651 2914 
Q 2772 3150 2772 3378 
Q 2772 3750 2511 3984 
Q 2250 4219 1831 4219 
Q 1534 4219 1204 4116 
Q 875 4013 500 3803 
L 500 4441 
Q 881 4594 1212 4672 
Q 1544 4750 1819 4750 
Q 2544 4750 2975 4387 
Q 3406 4025 3406 3419 
Q 3406 3131 3298 2873 
Q 3191 2616 2906 2266 
Q 2828 2175 2409 1742 
Q 1991 1309 1228 531 
z
" transform="scale(0.015625)"/>
       </defs>
       <use xlink:href="#DejaVuSans-32"/>
      </g>
     </g>
    </g>
    <g id="xtick_4">
     <g id="line2d_4">
      <g>
       <use xlink:href="#m7b72608675" x="268.820442" y="307.584" style="stroke: #000000; stroke-width: 0.8"/>
      </g>
     </g>
     <g id="text_4">
      <!-- 3 -->
      <g transform="translate(265.639192 322.182437) scale(0.1 -0.1)">
       <defs>
        <path id="DejaVuSans-33" d="M 2597 2516 
Q 3050 2419 3304 2112 
Q 3559 1806 3559 1356 
Q 3559 666 3084 287 
Q 2609 -91 1734 -91 
Q 1441 -91 1130 -33 
Q 819 25 488 141 
L 488 750 
Q 750 597 1062 519 
Q 1375 441 1716 441 
Q 2309 441 2620 675 
Q 2931 909 2931 1356 
Q 2931 1769 2642 2001 
Q 2353 2234 1838 2234 
L 1294 2234 
L 1294 2753 
L 1863 2753 
Q 2328 2753 2575 2939 
Q 2822 3125 2822 3475 
Q 2822 3834 2567 4026 
Q 2313 4219 1838 4219 
Q 1578 4219 1281 4162 
Q 984 4106 628 3988 
L 628 4550 
Q 988 4650 1302 4700 
Q 1616 4750 1894 4750 
Q 2613 4750 3031 4423 
Q 3450 4097 3450 3541 
Q 3450 3153 3228 2886 
Q 3006 2619 2597 2516 
z
" transform="scale(0.015625)"/>
       </defs>
       <use xlink:href="#DejaVuSans-33"/>
      </g>
     </g>
    </g>
    <g id="xtick_5">
     <g id="line2d_5">
      <g>
       <use xlink:href="#m7b72608675" x="333.816347" y="307.584" style="stroke: #000000; stroke-width: 0.8"/>
      </g>
     </g>
     <g id="text_5">
      <!-- 4 -->
      <g transform="translate(330.635097 322.182437) scale(0.1 -0.1)">
       <defs>
        <path id="DejaVuSans-34" d="M 2419 4116 
L 825 1625 
L 2419 1625 
L 2419 4116 
z
M 2253 4666 
L 3047 4666 
L 3047 1625 
L 3713 1625 
L 3713 1100 
L 3047 1100 
L 3047 0 
L 2419 0 
L 2419 1100 
L 313 1100 
L 313 1709 
L 2253 4666 
z
" transform="scale(0.015625)"/>
       </defs>
       <use xlink:href="#DejaVuSans-34"/>
      </g>
     </g>
    </g>
    <g id="xtick_6">
     <g id="line2d_6">
      <g>
       <use xlink:href="#m7b72608675" x="398.812252" y="307.584" style="stroke: #000000; stroke-width: 0.8"/>
      </g>
     </g>
     <g id="text_6">
      <!-- 5 -->
      <g transform="translate(395.631002 322.182437) scale(0.1 -0.1)">
       <defs>
        <path id="DejaVuSans-35" d="M 691 4666 
L 3169 4666 
L 3169 4134 
L 1269 4134 
L 1269 2991 
Q 1406 3038 1543 3061 
Q 1681 3084 1819 3084 
Q 2600 3084 3056 2656 
Q 3513 2228 3513 1497 
Q 3513 744 3044 326 
Q 2575 -91 1722 -91 
Q 1428 -91 1123 -41 
Q 819 9 494 109 
L 494 744 
Q 775 591 1075 516 
Q 1375 441 1709 441 
Q 2250 441 2565 725 
Q 2881 1009 2881 1497 
Q 2881 1984 2565 2268 
Q 2250 2553 1709 2553 
Q 1456 2553 1204 2497 
Q 953 2441 691 2322 
L 691 4666 
z
" transform="scale(0.015625)"/>
       </defs>
       <use xlink:href="#DejaVuSans-35"/>
      </g>
     </g>
    </g>
    <g id="text_7">
     <!-- 1e−7 -->
     <g transform="translate(387.462188 334.860562) scale(0.1 -0.1)">
      <defs>
       <path id="DejaVuSans-65" d="M 3597 1894 
L 3597 1613 
L 953 1613 
Q 991 1019 1311 708 
Q 1631 397 2203 397 
Q 2534 397 2845 478 
Q 3156 559 3463 722 
L 3463 178 
Q 3153 47 2828 -22 
Q 2503 -91 2169 -91 
Q 1331 -91 842 396 
Q 353 884 353 1716 
Q 353 2575 817 3079 
Q 1281 3584 2069 3584 
Q 2775 3584 3186 3129 
Q 3597 2675 3597 1894 
z
M 3022 2063 
Q 3016 2534 2758 2815 
Q 2500 3097 2075 3097 
Q 1594 3097 1305 2825 
Q 1016 2553 972 2059 
L 3022 2063 
z
" transform="scale(0.015625)"/>
       <path id="DejaVuSans-2212" d="M 678 2272 
L 4684 2272 
L 4684 1741 
L 678 1741 
L 678 2272 
z
" transform="scale(0.015625)"/>
       <path id="DejaVuSans-37" d="M 525 4666 
L 3525 4666 
L 3525 4397 
L 1831 0 
L 1172 0 
L 2766 4134 
L 525 4134 
L 525 4666 
z
" transform="scale(0.015625)"/>
      </defs>
      <use xlink:href="#DejaVuSans-31"/>
      <use xlink:href="#DejaVuSans-65" transform="translate(63.623047 0)"/>
      <use xlink:href="#DejaVuSans-2212" transform="translate(125.146484 0)"/>
      <use xlink:href="#DejaVuSans-37" transform="translate(208.935547 0)"/>
     </g>
    </g>
   </g>
   <g id="matplotlib.axis_2">
    <g id="ytick_1">
     <g id="line2d_7">
      <defs>
       <path id="m12fa4b5372" d="M 0 0 
L -3.5 0 
" style="stroke: #000000; stroke-width: 0.8"/>
      </defs>
      <g>
       <use xlink:href="#m12fa4b5372" x="57.6" y="268.9762" style="stroke: #000000; stroke-width: 0.8"/>
      </g>
     </g>
     <g id="text_8">
      <!-- −20 -->
      <g transform="translate(29.495313 272.775418) scale(0.1 -0.1)">
       <use xlink:href="#DejaVuSans-2212"/>
       <use xlink:href="#DejaVuSans-32" transform="translate(83.789062 0)"/>
       <use xlink:href="#DejaVuSans-30" transform="translate(147.412109 0)"/>
      </g>
     </g>
    </g>
    <g id="ytick_2">
     <g id="line2d_8">
      <g>
       <use xlink:href="#m12fa4b5372" x="57.6" y="226.557353" style="stroke: #000000; stroke-width: 0.8"/>
      </g>
     </g>
     <g id="text_9">
      <!-- 0 -->
      <g transform="translate(44.2375 230.356572) scale(0.1 -0.1)">
       <use xlink:href="#DejaVuSans-30"/>
      </g>
     </g>
    </g>
    <g id="ytick_3">
     <g id="line2d_9">
      <g>
       <use xlink:href="#m12fa4b5372" x="57.6" y="184.138506" style="stroke: #000000; stroke-width: 0.8"/>
      </g>
     </g>
     <g id="text_10">
      <!-- 20 -->
      <g transform="translate(37.875 187.937725) scale(0.1 -0.1)">
       <use xlink:href="#DejaVuSans-32"/>
       <use xlink:href="#DejaVuSans-30" transform="translate(63.623047 0)"/>
      </g>
     </g>
    </g>
    <g id="ytick_4">
     <g id="line2d_10">
      <g>
       <use xlink:href="#m12fa4b5372" x="57.6" y="141.71966" style="stroke: #000000; stroke-width: 0.8"/>
      </g>
     </g>
     <g id="text_11">
      <!-- 40 -->
      <g transform="translate(37.875 145.518878) scale(0.1 -0.1)">
       <use xlink:href="#DejaVuSans-34"/>
       <use xlink:href="#DejaVuSans-30" transform="translate(63.623047 0)"/>
      </g>
     </g>
    </g>
    <g id="ytick_5">
     <g id="line2d_11">
      <g>
       <use xlink:href="#m12fa4b5372" x="57.6" y="99.300813" style="stroke: #000000; stroke-width: 0.8"/>
      </g>
     </g>
     <g id="text_12">
      <!-- 60 -->
      <g transform="translate(37.875 103.100032) scale(0.1 -0.1)">
       <defs>
        <path id="DejaVuSans-36" d="M 2113 2584 
Q 1688 2584 1439 2293 
Q 1191 2003 1191 1497 
Q 1191 994 1439 701 
Q 1688 409 2113 409 
Q 2538 409 2786 701 
Q 3034 994 3034 1497 
Q 3034 2003 2786 2293 
Q 2538 2584 2113 2584 
z
M 3366 4563 
L 3366 3988 
Q 3128 4100 2886 4159 
Q 2644 4219 2406 4219 
Q 1781 4219 1451 3797 
Q 1122 3375 1075 2522 
Q 1259 2794 1537 2939 
Q 1816 3084 2150 3084 
Q 2853 3084 3261 2657 
Q 3669 2231 3669 1497 
Q 3669 778 3244 343 
Q 2819 -91 2113 -91 
Q 1303 -91 875 529 
Q 447 1150 447 2328 
Q 447 3434 972 4092 
Q 1497 4750 2381 4750 
Q 2619 4750 2861 4703 
Q 3103 4656 3366 4563 
z
" transform="scale(0.015625)"/>
       </defs>
       <use xlink:href="#DejaVuSans-36"/>
       <use xlink:href="#DejaVuSans-30" transform="translate(63.623047 0)"/>
      </g>
     </g>
    </g>
    <g id="ytick_6">
     <g id="line2d_12">
      <g>
       <use xlink:href="#m12fa4b5372" x="57.6" y="56.881966" style="stroke: #000000; stroke-width: 0.8"/>
      </g>
     </g>
     <g id="text_13">
      <!-- 80 -->
      <g transform="translate(37.875 60.681185) scale(0.1 -0.1)">
       <defs>
        <path id="DejaVuSans-38" d="M 2034 2216 
Q 1584 2216 1326 1975 
Q 1069 1734 1069 1313 
Q 1069 891 1326 650 
Q 1584 409 2034 409 
Q 2484 409 2743 651 
Q 3003 894 3003 1313 
Q 3003 1734 2745 1975 
Q 2488 2216 2034 2216 
z
M 1403 2484 
Q 997 2584 770 2862 
Q 544 3141 544 3541 
Q 544 4100 942 4425 
Q 1341 4750 2034 4750 
Q 2731 4750 3128 4425 
Q 3525 4100 3525 3541 
Q 3525 3141 3298 2862 
Q 3072 2584 2669 2484 
Q 3125 2378 3379 2068 
Q 3634 1759 3634 1313 
Q 3634 634 3220 271 
Q 2806 -91 2034 -91 
Q 1263 -91 848 271 
Q 434 634 434 1313 
Q 434 1759 690 2068 
Q 947 2378 1403 2484 
z
M 1172 3481 
Q 1172 3119 1398 2916 
Q 1625 2713 2034 2713 
Q 2441 2713 2670 2916 
Q 2900 3119 2900 3481 
Q 2900 3844 2670 4047 
Q 2441 4250 2034 4250 
Q 1625 4250 1398 4047 
Q 1172 3844 1172 3481 
z
" transform="scale(0.015625)"/>
       </defs>
       <use xlink:href="#DejaVuSans-38"/>
       <use xlink:href="#DejaVuSans-30" transform="translate(63.623047 0)"/>
      </g>
     </g>
    </g>
   </g>
   <g id="line2d_13">
    <path d="M 73.832727 228.214336 
L 74.157707 224.900363 
L 74.482686 226.55735 
L 74.807666 226.55735 
L 75.132645 228.214336 
L 75.457625 226.55735 
L 75.782604 228.214336 
L 76.107584 226.55735 
L 76.757543 229.871322 
L 77.082523 229.871322 
L 77.407502 228.214336 
L 78.057461 228.214336 
L 78.382441 229.871322 
L 78.70742 229.871322 
L 79.0324 228.214336 
L 79.357379 228.214336 
L 79.682359 226.55735 
L 80.007338 226.55735 
L 80.332318 228.214336 
L 80.982277 228.214336 
L 81.307256 226.55735 
L 81.632236 226.55735 
L 81.957215 229.871322 
L 82.607174 229.871322 
L 82.932154 228.214336 
L 83.257133 228.214336 
L 83.582113 229.871322 
L 84.232072 229.871322 
L 84.557052 226.55735 
L 84.882031 228.214336 
L 85.85697 228.214336 
L 86.181949 229.871322 
L 86.506929 228.214336 
L 86.831908 228.214336 
L 87.156888 229.871322 
L 87.806847 229.871322 
L 88.131826 228.214336 
L 88.781785 228.214336 
L 89.106765 224.900363 
L 89.431744 223.243377 
L 91.056642 196.731596 
L 92.031581 196.731596 
L 92.35656 190.103651 
L 93.331499 163.59187 
L 93.656478 168.562829 
L 93.981458 176.847761 
L 94.306437 175.190774 
L 94.631417 165.248857 
L 94.956396 147.022007 
L 95.281376 138.737076 
L 95.606355 140.394062 
L 96.256314 158.620911 
L 96.581294 151.992966 
L 97.231253 123.824199 
L 97.556233 125.481185 
L 98.206192 133.766117 
L 98.531171 130.452144 
L 98.856151 123.824199 
L 99.18113 120.510226 
L 99.50611 125.481185 
L 99.831089 127.138172 
L 100.481048 115.539267 
L 100.806028 107.254336 
L 101.455987 118.85324 
L 101.780966 125.481185 
L 103.080885 107.254336 
L 103.405864 113.882281 
L 103.730844 117.196254 
L 104.055823 118.85324 
L 104.380803 115.539267 
L 104.705782 113.882281 
L 105.030762 113.882281 
L 105.355741 112.225295 
L 105.680721 115.539267 
L 106.0057 113.882281 
L 106.33068 113.882281 
L 106.980639 120.510226 
L 107.630598 120.510226 
L 107.955577 118.85324 
L 108.280557 115.539267 
L 108.605536 117.196254 
L 109.580475 127.138172 
L 110.230434 123.824199 
L 110.555414 120.510226 
L 110.880393 123.824199 
L 111.205373 125.481185 
L 111.530352 128.795158 
L 112.180311 128.795158 
L 112.505291 130.452144 
L 112.83027 128.795158 
L 113.15525 130.452144 
L 113.480229 127.138172 
L 113.805209 128.795158 
L 114.130188 128.795158 
L 114.455168 132.10913 
L 114.780147 133.766117 
L 115.105127 133.766117 
L 115.430106 130.452144 
L 115.755086 128.795158 
L 116.405045 128.795158 
L 117.055004 132.10913 
L 117.704963 132.10913 
L 118.354922 128.795158 
L 119.004881 128.795158 
L 119.329861 127.138172 
L 119.97982 130.452144 
L 120.629779 127.138172 
L 120.954758 122.167213 
L 121.279738 123.824199 
L 122.579656 123.824199 
L 122.904636 122.167213 
L 123.229615 122.167213 
L 123.879574 118.85324 
L 124.854513 118.85324 
L 125.179492 120.510226 
L 125.504472 120.510226 
L 126.154431 113.882281 
L 126.47941 113.882281 
L 126.80439 112.225295 
L 127.129369 117.196254 
L 127.454349 117.196254 
L 128.104308 113.882281 
L 129.404226 113.882281 
L 129.729206 112.225295 
L 130.054185 113.882281 
L 130.379165 117.196254 
L 131.029124 117.196254 
L 131.354103 113.882281 
L 131.679083 117.196254 
L 132.004062 115.539267 
L 132.329042 120.510226 
L 132.654021 120.510226 
L 132.979001 122.167213 
L 133.62896 122.167213 
L 133.953939 123.824199 
L 134.278919 123.824199 
L 134.603898 127.138172 
L 134.928878 128.795158 
L 135.578837 135.423103 
L 135.903817 135.423103 
L 136.553776 138.737076 
L 136.878755 142.051048 
L 137.528714 145.365021 
L 137.853694 148.678994 
L 138.178673 153.649952 
L 138.503653 153.649952 
L 138.828632 156.963925 
L 139.478591 160.277898 
L 139.803571 163.59187 
L 140.12855 165.248857 
L 140.45353 171.876802 
L 140.778509 175.190774 
L 141.753448 180.161733 
L 142.078428 185.132692 
L 142.403407 186.789678 
L 143.053366 193.417624 
L 144.028305 198.388583 
L 144.353284 203.359541 
L 145.328223 208.3305 
L 145.978182 214.958446 
L 146.628141 218.272418 
L 146.95312 218.272418 
L 147.2781 221.586391 
L 147.603079 221.586391 
L 147.928059 226.55735 
L 148.253038 224.900363 
L 148.578018 228.214336 
L 148.902998 226.55735 
L 149.227977 229.871322 
L 149.877936 229.871322 
L 150.202916 231.528309 
L 150.852875 231.528309 
L 151.177854 233.185295 
L 151.502834 233.185295 
L 151.827813 231.528309 
L 152.152793 228.214336 
L 152.477772 229.871322 
L 152.802752 228.214336 
L 153.77769 228.214336 
L 154.10267 226.55735 
L 154.427649 226.55735 
L 154.752629 228.214336 
L 155.077609 224.900363 
L 155.402588 226.55735 
L 155.727568 224.900363 
L 156.052547 226.55735 
L 156.702506 226.55735 
L 157.027486 224.900363 
L 157.352465 221.586391 
L 157.677445 224.900363 
L 158.327404 228.214336 
L 158.652383 228.214336 
L 158.977363 229.871322 
L 159.302342 226.55735 
L 159.627322 228.214336 
L 159.952301 228.214336 
L 160.277281 226.55735 
L 160.60226 229.871322 
L 160.92724 229.871322 
L 161.252219 228.214336 
L 161.577199 228.214336 
L 161.902179 229.871322 
L 162.552138 226.55735 
L 162.877117 228.214336 
L 163.202097 226.55735 
L 163.527076 228.214336 
L 163.852056 228.214336 
L 164.826994 223.243377 
L 165.151974 226.55735 
L 165.476953 226.55735 
L 165.801933 228.214336 
L 166.776871 228.214336 
L 167.101851 229.871322 
L 167.42683 229.871322 
L 167.75181 226.55735 
L 168.07679 226.55735 
L 168.401769 224.900363 
L 168.726749 228.214336 
L 169.376708 228.214336 
L 169.701687 226.55735 
L 170.676626 226.55735 
L 171.001605 228.214336 
L 171.326585 226.55735 
L 171.651564 228.214336 
L 171.976544 226.55735 
L 172.301523 226.55735 
L 172.626503 228.214336 
L 172.951482 228.214336 
L 173.276462 229.871322 
L 173.601441 226.55735 
L 174.2514 226.55735 
L 174.57638 228.214336 
L 174.90136 228.214336 
L 175.226339 226.55735 
L 175.551319 228.214336 
L 175.876298 226.55735 
L 176.201278 228.214336 
L 178.151155 228.214336 
L 178.476134 231.528309 
L 178.801114 228.214336 
L 179.451073 228.214336 
L 179.776052 229.871322 
L 180.750991 229.871322 
L 181.075971 228.214336 
L 181.72593 228.214336 
L 182.050909 229.871322 
L 182.375889 229.871322 
L 182.700868 228.214336 
L 183.025848 229.871322 
L 183.350827 228.214336 
L 183.675807 229.871322 
L 184.000786 229.871322 
L 184.325766 228.214336 
L 184.650745 228.214336 
L 184.975725 226.55735 
L 185.625684 219.929404 
L 186.275643 208.3305 
L 186.600622 201.702555 
L 186.925602 198.388583 
L 187.250581 196.731596 
L 187.575561 198.388583 
L 187.900541 198.388583 
L 188.22552 191.760637 
L 188.5505 178.504747 
L 188.875479 170.219815 
L 189.200459 165.248857 
L 189.525438 168.562829 
L 189.850418 176.847761 
L 190.175397 176.847761 
L 190.500377 166.905843 
L 190.825356 148.678994 
L 191.150336 138.737076 
L 191.475315 140.394062 
L 191.800295 151.992966 
L 192.125274 158.620911 
L 192.450254 153.649952 
L 193.100213 127.138172 
L 193.425192 125.481185 
L 193.750172 130.452144 
L 194.075152 138.737076 
L 194.400131 132.10913 
L 194.725111 122.167213 
L 195.05009 120.510226 
L 195.37507 125.481185 
L 195.700049 127.138172 
L 196.350008 115.539267 
L 196.674988 108.911322 
L 196.999967 112.225295 
L 197.324947 122.167213 
L 197.649926 125.481185 
L 197.974906 123.824199 
L 198.624865 107.254336 
L 198.949844 107.254336 
L 199.274824 115.539267 
L 199.924783 118.85324 
L 200.249762 115.539267 
L 200.574742 113.882281 
L 200.899722 113.882281 
L 201.549681 117.196254 
L 201.87466 113.882281 
L 202.524619 117.196254 
L 202.849599 120.510226 
L 203.174578 122.167213 
L 203.824537 118.85324 
L 204.149517 115.539267 
L 204.474496 118.85324 
L 204.799476 118.85324 
L 205.124455 125.481185 
L 205.449435 127.138172 
L 206.099394 123.824199 
L 206.424373 120.510226 
L 206.749353 122.167213 
L 207.399312 128.795158 
L 207.724292 128.795158 
L 208.374251 132.10913 
L 209.349189 127.138172 
L 209.674169 130.452144 
L 209.999148 130.452144 
L 210.324128 133.766117 
L 210.649107 135.423103 
L 210.974087 133.766117 
L 211.299066 130.452144 
L 211.624046 128.795158 
L 211.949025 128.795158 
L 212.598984 132.10913 
L 212.923964 132.10913 
L 213.248943 133.766117 
L 214.548862 127.138172 
L 214.873841 128.795158 
L 215.198821 125.481185 
L 215.5238 128.795158 
L 215.84878 130.452144 
L 216.498739 127.138172 
L 216.823718 123.824199 
L 217.148698 123.824199 
L 217.473677 122.167213 
L 217.798657 125.481185 
L 218.123636 123.824199 
L 218.773595 123.824199 
L 219.748534 118.85324 
L 220.073514 118.85324 
L 220.398493 117.196254 
L 220.723473 117.196254 
L 221.048452 118.85324 
L 221.373432 118.85324 
L 221.698411 115.539267 
L 222.023391 113.882281 
L 222.67335 113.882281 
L 222.998329 115.539267 
L 223.323309 113.882281 
L 223.648288 115.539267 
L 223.973268 115.539267 
L 224.298247 113.882281 
L 224.623227 113.882281 
L 224.948206 112.225295 
L 225.273186 115.539267 
L 225.598165 113.882281 
L 225.923145 113.882281 
L 226.573104 117.196254 
L 226.898084 115.539267 
L 227.223063 117.196254 
L 227.548043 115.539267 
L 227.873022 115.539267 
L 228.198002 118.85324 
L 228.522981 120.510226 
L 228.847961 123.824199 
L 229.17294 122.167213 
L 229.49792 122.167213 
L 229.822899 123.824199 
L 230.147879 123.824199 
L 230.472858 127.138172 
L 230.797838 128.795158 
L 231.122817 132.10913 
L 231.447797 133.766117 
L 231.772776 137.080089 
L 232.097756 138.737076 
L 232.422735 138.737076 
L 233.072695 142.051048 
L 233.397674 147.022007 
L 233.722654 148.678994 
L 234.047633 153.649952 
L 235.347551 160.277898 
L 235.672531 165.248857 
L 235.99751 165.248857 
L 236.32249 171.876802 
L 236.647469 173.533788 
L 236.972449 176.847761 
L 237.297428 176.847761 
L 237.622408 180.161733 
L 237.947387 185.132692 
L 238.272367 185.132692 
L 239.572285 198.388583 
L 239.897265 198.388583 
L 240.222244 201.702555 
L 240.547224 203.359541 
L 240.872203 206.673514 
L 241.197183 208.3305 
L 241.522162 211.644473 
L 241.847142 211.644473 
L 242.172121 216.615432 
L 242.497101 218.272418 
L 242.82208 218.272418 
L 244.121998 224.900363 
L 244.446978 228.214336 
L 245.421916 228.214336 
L 246.071876 231.528309 
L 246.396855 231.528309 
L 246.721835 229.871322 
L 247.371794 233.185295 
L 247.696773 229.871322 
L 248.021753 229.871322 
L 248.671712 226.55735 
L 248.996691 228.214336 
L 249.64665 228.214336 
L 250.296609 224.900363 
L 250.621589 224.900363 
L 250.946568 223.243377 
L 251.271548 226.55735 
L 251.596527 226.55735 
L 251.921507 224.900363 
L 252.246486 224.900363 
L 252.571466 226.55735 
L 252.896446 223.243377 
L 253.221425 223.243377 
L 253.546405 226.55735 
L 253.871384 224.900363 
L 254.196364 228.214336 
L 254.521343 229.871322 
L 255.171302 229.871322 
L 255.496282 228.214336 
L 256.146241 228.214336 
L 256.47122 229.871322 
L 256.7962 228.214336 
L 257.121179 228.214336 
L 257.446159 226.55735 
L 257.771138 229.871322 
L 258.096118 229.871322 
L 258.421097 228.214336 
L 258.746077 228.214336 
L 259.071057 226.55735 
L 259.396036 228.214336 
L 259.721016 226.55735 
L 260.370975 226.55735 
L 260.695954 224.900363 
L 261.345913 228.214336 
L 261.670893 228.214336 
L 261.995872 226.55735 
L 262.645831 226.55735 
L 262.970811 228.214336 
L 263.29579 228.214336 
L 263.62077 226.55735 
L 263.945749 228.214336 
L 264.270729 226.55735 
L 264.595708 228.214336 
L 265.570647 228.214336 
L 265.895627 226.55735 
L 266.545586 226.55735 
L 266.870565 228.214336 
L 267.520524 228.214336 
L 267.845504 224.900363 
L 268.170483 228.214336 
L 268.495463 228.214336 
L 268.820442 229.871322 
L 269.145422 229.871322 
L 269.470401 226.55735 
L 269.795381 226.55735 
L 270.12036 228.214336 
L 270.44534 231.528309 
L 271.095299 228.214336 
L 271.420278 228.214336 
L 271.745258 226.55735 
L 272.070238 229.871322 
L 272.395217 229.871322 
L 273.045176 226.55735 
L 273.695135 226.55735 
L 274.020115 229.871322 
L 274.345094 229.871322 
L 274.670074 228.214336 
L 274.995053 228.214336 
L 275.320033 229.871322 
L 275.969992 229.871322 
L 276.294971 228.214336 
L 276.619951 228.214336 
L 276.94493 226.55735 
L 277.26991 231.528309 
L 278.244848 226.55735 
L 278.569828 228.214336 
L 278.894808 228.214336 
L 279.219787 229.871322 
L 279.544767 229.871322 
L 280.194726 226.55735 
L 280.844685 226.55735 
L 281.169664 224.900363 
L 281.494644 219.929404 
L 281.819623 211.644473 
L 282.794562 196.731596 
L 283.119541 195.07461 
L 283.444521 198.388583 
L 283.7695 198.388583 
L 284.419459 180.161733 
L 285.069419 163.59187 
L 285.719378 175.190774 
L 286.044357 176.847761 
L 286.369337 166.905843 
L 286.694316 148.678994 
L 287.019296 137.080089 
L 287.344275 138.737076 
L 287.669255 153.649952 
L 287.994234 158.620911 
L 288.319214 153.649952 
L 288.969173 125.481185 
L 289.294152 125.481185 
L 289.619132 132.10913 
L 289.944111 135.423103 
L 290.269091 130.452144 
L 290.59407 122.167213 
L 290.91905 118.85324 
L 291.569009 128.795158 
L 291.893989 125.481185 
L 292.543948 107.254336 
L 293.518886 125.481185 
L 293.843866 122.167213 
L 294.493825 107.254336 
L 294.818804 108.911322 
L 295.468763 117.196254 
L 295.793743 120.510226 
L 296.118722 115.539267 
L 296.443702 113.882281 
L 297.093661 113.882281 
L 297.41864 115.539267 
L 297.74362 113.882281 
L 298.0686 117.196254 
L 298.393579 117.196254 
L 299.043538 120.510226 
L 299.368518 120.510226 
L 299.693497 117.196254 
L 300.343456 117.196254 
L 300.668436 118.85324 
L 301.318395 127.138172 
L 301.643374 127.138172 
L 301.968354 123.824199 
L 302.293333 122.167213 
L 302.618313 123.824199 
L 302.943292 123.824199 
L 303.268272 128.795158 
L 303.593251 127.138172 
L 303.918231 128.795158 
L 304.56819 128.795158 
L 304.89317 127.138172 
L 305.218149 128.795158 
L 305.868108 128.795158 
L 306.193088 132.10913 
L 306.518067 132.10913 
L 306.843047 133.766117 
L 307.168026 132.10913 
L 307.493006 128.795158 
L 307.817985 128.795158 
L 308.142965 127.138172 
L 308.467944 132.10913 
L 308.792924 130.452144 
L 309.117903 133.766117 
L 309.442883 130.452144 
L 309.767862 130.452144 
L 310.092842 127.138172 
L 311.067781 127.138172 
L 311.39276 128.795158 
L 312.042719 128.795158 
L 312.367699 127.138172 
L 312.692678 123.824199 
L 313.342637 120.510226 
L 313.667617 123.824199 
L 313.992596 122.167213 
L 314.642555 122.167213 
L 315.617494 117.196254 
L 315.942473 117.196254 
L 316.267453 115.539267 
L 316.917412 118.85324 
L 317.242391 118.85324 
L 317.567371 117.196254 
L 317.892351 113.882281 
L 318.21733 112.225295 
L 318.54231 112.225295 
L 318.867289 115.539267 
L 319.517248 115.539267 
L 319.842228 113.882281 
L 320.167207 113.882281 
L 320.492187 112.225295 
L 320.817166 113.882281 
L 321.792105 113.882281 
L 322.767043 118.85324 
L 323.092023 115.539267 
L 323.417002 115.539267 
L 323.741982 113.882281 
L 324.066962 118.85324 
L 324.716921 122.167213 
L 325.36688 122.167213 
L 325.691859 123.824199 
L 326.016839 123.824199 
L 326.341818 128.795158 
L 326.666798 128.795158 
L 326.991777 132.10913 
L 327.966716 137.080089 
L 328.291695 140.394062 
L 328.616675 142.051048 
L 328.941654 142.051048 
L 329.266634 147.022007 
L 329.591613 148.678994 
L 329.916593 151.992966 
L 330.241572 153.649952 
L 330.566552 156.963925 
L 330.891532 156.963925 
L 331.216511 160.277898 
L 331.541491 161.934884 
L 331.86647 165.248857 
L 332.19145 170.219815 
L 332.516429 171.876802 
L 332.841409 176.847761 
L 333.491368 180.161733 
L 333.816347 183.475706 
L 334.141327 183.475706 
L 334.466306 188.446665 
L 334.791286 188.446665 
L 335.441245 198.388583 
L 336.416183 203.359541 
L 336.741163 206.673514 
L 337.066143 206.673514 
L 337.716102 213.301459 
L 338.69104 218.272418 
L 339.01602 221.586391 
L 339.340999 219.929404 
L 339.665979 224.900363 
L 339.990958 224.900363 
L 340.315938 226.55735 
L 340.640917 226.55735 
L 340.965897 229.871322 
L 341.290876 229.871322 
L 341.615856 231.528309 
L 341.940835 229.871322 
L 342.265815 229.871322 
L 342.590794 231.528309 
L 343.240753 231.528309 
L 343.565733 229.871322 
L 343.890713 229.871322 
L 344.540672 226.55735 
L 344.865651 228.214336 
L 345.51561 228.214336 
L 345.84059 224.900363 
L 346.490549 224.900363 
L 347.140508 228.214336 
L 347.465487 224.900363 
L 348.440426 224.900363 
L 348.765405 226.55735 
L 349.415364 223.243377 
L 349.740344 224.900363 
L 350.065324 228.214336 
L 351.365242 228.214336 
L 351.690221 226.55735 
L 352.015201 229.871322 
L 352.34018 229.871322 
L 352.66516 228.214336 
L 352.990139 228.214336 
L 353.640098 231.528309 
L 354.290057 228.214336 
L 354.615037 228.214336 
L 354.940016 226.55735 
L 355.264996 228.214336 
L 355.589975 228.214336 
L 356.239934 224.900363 
L 356.564914 224.900363 
L 357.539853 229.871322 
L 357.864832 228.214336 
L 358.514791 228.214336 
L 358.839771 229.871322 
L 359.48973 229.871322 
L 359.814709 226.55735 
L 360.139689 226.55735 
L 360.464668 229.871322 
L 360.789648 229.871322 
L 361.439607 226.55735 
L 362.089566 226.55735 
L 362.414545 228.214336 
L 363.064505 228.214336 
L 363.389484 226.55735 
L 363.714464 228.214336 
L 364.039443 228.214336 
L 364.364423 229.871322 
L 364.689402 229.871322 
L 365.339361 226.55735 
L 365.98932 229.871322 
L 366.3143 228.214336 
L 366.964259 228.214336 
L 367.289238 226.55735 
L 367.614218 226.55735 
L 367.939197 229.871322 
L 368.264177 229.871322 
L 368.914136 226.55735 
L 369.564095 229.871322 
L 370.214054 229.871322 
L 370.539034 228.214336 
L 370.864013 229.871322 
L 371.188993 228.214336 
L 371.513972 229.871322 
L 372.81389 229.871322 
L 373.13887 231.528309 
L 373.788829 228.214336 
L 374.438788 228.214336 
L 374.763767 229.871322 
L 375.413726 229.871322 
L 375.738706 226.55735 
L 376.063686 228.214336 
L 376.388665 228.214336 
L 377.038624 224.900363 
L 377.363604 221.586391 
L 378.663522 196.731596 
L 378.988501 196.731596 
L 379.313481 198.388583 
L 379.63846 196.731596 
L 379.96344 191.760637 
L 380.613399 170.219815 
L 380.938378 161.934884 
L 381.588337 175.190774 
L 381.913317 178.504747 
L 382.563276 151.992966 
L 382.888256 138.737076 
L 383.213235 138.737076 
L 383.538215 151.992966 
L 383.863194 156.963925 
L 384.188174 150.33598 
L 384.838133 127.138172 
L 385.163112 127.138172 
L 385.488092 133.766117 
L 385.813071 137.080089 
L 386.138051 132.10913 
L 386.46303 123.824199 
L 386.78801 120.510226 
L 387.112989 125.481185 
L 387.437969 127.138172 
L 387.762948 123.824199 
L 388.412907 108.911322 
L 389.387846 125.481185 
L 389.712826 122.167213 
L 390.037805 113.882281 
L 390.362785 108.911322 
L 390.687764 110.568309 
L 391.012744 115.539267 
L 391.337723 117.196254 
L 391.662703 120.510226 
L 391.987682 115.539267 
L 392.312662 117.196254 
L 392.637641 115.539267 
L 393.61258 115.539267 
L 393.937559 117.196254 
L 394.262539 117.196254 
L 394.587518 120.510226 
L 395.237477 120.510226 
L 395.887437 117.196254 
L 396.537396 120.510226 
L 396.862375 127.138172 
L 397.512334 127.138172 
L 397.837314 123.824199 
L 398.162293 122.167213 
L 398.487273 125.481185 
L 398.487273 125.481185 
" clip-path="url(#p42f01b264c)" style="fill: none; stroke: #1f77b4; stroke-width: 1.5; stroke-linecap: square"/>
   </g>
   <g id="line2d_14">
    <path d="M 73.832727 127.138172 
L 74.482686 127.138172 
L 74.807666 123.824199 
L 75.132645 123.824199 
L 75.782604 120.510226 
L 76.107584 122.167213 
L 76.432563 120.510226 
L 76.757543 120.510226 
L 77.082523 117.196254 
L 77.732482 117.196254 
L 78.057461 118.85324 
L 78.382441 117.196254 
L 78.70742 117.196254 
L 79.0324 113.882281 
L 79.357379 115.539267 
L 80.007338 112.225295 
L 80.332318 113.882281 
L 80.657297 113.882281 
L 80.982277 112.225295 
L 81.307256 113.882281 
L 81.957215 113.882281 
L 82.282195 112.225295 
L 82.607174 112.225295 
L 83.257133 115.539267 
L 84.232072 115.539267 
L 84.882031 118.85324 
L 85.207011 118.85324 
L 85.53199 120.510226 
L 85.85697 120.510226 
L 86.506929 123.824199 
L 86.831908 127.138172 
L 87.156888 128.795158 
L 87.481867 128.795158 
L 88.131826 132.10913 
L 88.781785 138.737076 
L 89.106765 140.394062 
L 89.431744 140.394062 
L 89.756724 142.051048 
L 90.081704 147.022007 
L 90.406683 148.678994 
L 90.731663 153.649952 
L 91.056642 155.306939 
L 91.381622 155.306939 
L 91.706601 156.963925 
L 92.35656 166.905843 
L 93.006519 170.219815 
L 93.981458 180.161733 
L 94.306437 185.132692 
L 95.281376 190.103651 
L 95.606355 193.417624 
L 96.256314 201.702555 
L 96.581294 201.702555 
L 97.231253 205.016528 
L 97.556233 208.3305 
L 97.881212 213.301459 
L 98.206192 214.958446 
L 99.18113 214.958446 
L 99.831089 224.900363 
L 100.156069 224.900363 
L 100.481048 226.55735 
L 101.131007 226.55735 
L 101.455987 229.871322 
L 102.105946 233.185295 
L 103.730844 233.185295 
L 104.055823 231.528309 
L 104.380803 231.528309 
L 105.030762 228.214336 
L 105.355741 228.214336 
L 106.0057 224.900363 
L 106.33068 224.900363 
L 106.655659 223.243377 
L 108.605536 223.243377 
L 109.255495 229.871322 
L 109.580475 229.871322 
L 110.230434 226.55735 
L 110.880393 229.871322 
L 111.205373 228.214336 
L 111.855332 228.214336 
L 112.180311 224.900363 
L 112.505291 226.55735 
L 112.83027 229.871322 
L 113.15525 231.528309 
L 113.480229 231.528309 
L 113.805209 229.871322 
L 114.130188 226.55735 
L 114.455168 226.55735 
L 115.105127 229.871322 
L 115.430106 228.214336 
L 115.755086 224.900363 
L 116.080066 226.55735 
L 116.405045 226.55735 
L 116.730025 228.214336 
L 117.379984 228.214336 
L 117.704963 226.55735 
L 118.354922 229.871322 
L 118.679902 229.871322 
L 119.329861 226.55735 
L 119.97982 226.55735 
L 120.304799 229.871322 
L 120.629779 229.871322 
L 121.279738 226.55735 
L 121.604717 226.55735 
L 121.929697 228.214336 
L 122.254676 231.528309 
L 122.579656 229.871322 
L 122.904636 226.55735 
L 123.554595 226.55735 
L 123.879574 228.214336 
L 124.204554 228.214336 
L 124.529533 229.871322 
L 124.854513 226.55735 
L 125.179492 226.55735 
L 125.504472 228.214336 
L 125.829451 226.55735 
L 126.154431 229.871322 
L 126.47941 229.871322 
L 127.129369 226.55735 
L 127.454349 228.214336 
L 128.104308 228.214336 
L 128.429287 226.55735 
L 128.754267 228.214336 
L 129.079247 228.214336 
L 129.404226 229.871322 
L 130.054185 226.55735 
L 130.379165 226.55735 
L 131.029124 229.871322 
L 131.679083 229.871322 
L 132.004062 228.214336 
L 132.329042 228.214336 
L 132.654021 229.871322 
L 133.62896 229.871322 
L 133.953939 228.214336 
L 134.603898 228.214336 
L 134.928878 229.871322 
L 135.253857 229.871322 
L 135.578837 231.528309 
L 135.903817 229.871322 
L 136.878755 229.871322 
L 137.203735 223.243377 
L 137.853694 216.615432 
L 138.503653 208.3305 
L 138.828632 208.3305 
L 140.778509 178.504747 
L 141.103489 180.161733 
L 141.428468 178.504747 
L 141.753448 175.190774 
L 142.728387 155.306939 
L 143.053366 155.306939 
L 143.703325 151.992966 
L 144.028305 148.678994 
L 144.678264 138.737076 
L 145.003243 137.080089 
L 145.328223 137.080089 
L 145.978182 127.138172 
L 146.303161 125.481185 
L 146.628141 125.481185 
L 146.95312 128.795158 
L 147.2781 128.795158 
L 147.928059 115.539267 
L 148.253038 113.882281 
L 148.902998 120.510226 
L 149.227977 120.510226 
L 149.552957 118.85324 
L 149.877936 113.882281 
L 150.202916 112.225295 
L 150.852875 115.539267 
L 152.152793 115.539267 
L 152.477772 117.196254 
L 152.802752 113.882281 
L 153.452711 113.882281 
L 153.77769 115.539267 
L 154.10267 118.85324 
L 154.427649 120.510226 
L 154.752629 120.510226 
L 155.077609 117.196254 
L 155.402588 117.196254 
L 155.727568 118.85324 
L 156.052547 122.167213 
L 156.377527 123.824199 
L 157.027486 123.824199 
L 157.352465 125.481185 
L 157.677445 123.824199 
L 158.002424 123.824199 
L 158.327404 125.481185 
L 158.652383 128.795158 
L 158.977363 130.452144 
L 159.952301 130.452144 
L 160.277281 128.795158 
L 161.577199 135.423103 
L 161.902179 135.423103 
L 162.227158 132.10913 
L 162.552138 133.766117 
L 162.877117 133.766117 
L 163.202097 132.10913 
L 163.852056 135.423103 
L 164.177035 135.423103 
L 164.502015 133.766117 
L 165.151974 133.766117 
L 165.476953 132.10913 
L 165.801933 132.10913 
L 166.126912 133.766117 
L 166.451892 133.766117 
L 166.776871 135.423103 
L 167.101851 133.766117 
L 167.42683 130.452144 
L 167.75181 130.452144 
L 168.07679 128.795158 
L 168.401769 128.795158 
L 168.726749 130.452144 
L 169.701687 125.481185 
L 170.026667 125.481185 
L 170.351646 127.138172 
L 170.676626 123.824199 
L 171.001605 122.167213 
L 171.651564 122.167213 
L 171.976544 123.824199 
L 172.301523 122.167213 
L 172.626503 118.85324 
L 172.951482 117.196254 
L 174.2514 117.196254 
L 174.57638 113.882281 
L 175.876298 113.882281 
L 176.201278 112.225295 
L 176.526257 112.225295 
L 176.851237 113.882281 
L 177.826175 113.882281 
L 178.151155 112.225295 
L 178.801114 112.225295 
L 179.126093 115.539267 
L 179.451073 117.196254 
L 180.101032 113.882281 
L 180.426011 113.882281 
L 180.750991 118.85324 
L 181.075971 118.85324 
L 181.40095 120.510226 
L 182.050909 120.510226 
L 182.375889 123.824199 
L 182.700868 125.481185 
L 183.025848 128.795158 
L 183.350827 128.795158 
L 183.675807 130.452144 
L 184.000786 130.452144 
L 184.650745 138.737076 
L 184.975725 138.737076 
L 185.625684 142.051048 
L 186.275643 150.33598 
L 186.600622 151.992966 
L 186.925602 155.306939 
L 187.250581 156.963925 
L 187.575561 160.277898 
L 187.900541 161.934884 
L 188.5505 168.562829 
L 189.200459 171.876802 
L 189.850418 180.161733 
L 190.500377 186.789678 
L 190.825356 186.789678 
L 192.450254 203.359541 
L 192.775233 203.359541 
L 193.100213 205.016528 
L 193.750172 213.301459 
L 194.400131 216.615432 
L 194.725111 214.958446 
L 195.37507 218.272418 
L 196.025029 226.55735 
L 196.350008 228.214336 
L 196.999967 228.214336 
L 197.324947 229.871322 
L 197.649926 229.871322 
L 197.974906 231.528309 
L 198.949844 231.528309 
L 199.274824 233.185295 
L 199.599803 231.528309 
L 199.924783 233.185295 
L 200.899722 228.214336 
L 201.224701 229.871322 
L 201.549681 229.871322 
L 202.19964 223.243377 
L 202.524619 224.900363 
L 202.849599 223.243377 
L 203.174578 224.900363 
L 203.824537 221.586391 
L 205.124455 228.214336 
L 205.449435 228.214336 
L 205.774414 226.55735 
L 206.424373 226.55735 
L 206.749353 228.214336 
L 207.399312 228.214336 
L 207.724292 226.55735 
L 208.374251 226.55735 
L 208.69923 228.214336 
L 209.02421 228.214336 
L 209.349189 231.528309 
L 210.324128 226.55735 
L 210.649107 229.871322 
L 210.974087 228.214336 
L 211.299066 228.214336 
L 211.624046 226.55735 
L 212.274005 226.55735 
L 212.598984 228.214336 
L 212.923964 228.214336 
L 213.248943 226.55735 
L 213.573923 226.55735 
L 213.898903 228.214336 
L 214.223882 228.214336 
L 214.548862 229.871322 
L 214.873841 229.871322 
L 215.198821 226.55735 
L 215.5238 228.214336 
L 215.84878 228.214336 
L 216.173759 229.871322 
L 216.823718 229.871322 
L 217.148698 228.214336 
L 217.798657 228.214336 
L 218.123636 229.871322 
L 218.448616 229.871322 
L 219.098575 226.55735 
L 219.423554 226.55735 
L 220.073514 229.871322 
L 220.398493 228.214336 
L 221.048452 228.214336 
L 221.373432 226.55735 
L 222.023391 229.871322 
L 222.34837 229.871322 
L 222.998329 226.55735 
L 223.323309 229.871322 
L 223.648288 229.871322 
L 223.973268 231.528309 
L 224.298247 228.214336 
L 224.623227 228.214336 
L 224.948206 229.871322 
L 225.273186 229.871322 
L 225.598165 228.214336 
L 226.573104 228.214336 
L 227.223063 231.528309 
L 227.548043 231.528309 
L 227.873022 228.214336 
L 228.522981 228.214336 
L 229.17294 231.528309 
L 229.822899 228.214336 
L 230.147879 229.871322 
L 230.472858 229.871322 
L 230.797838 228.214336 
L 231.122817 229.871322 
L 232.097756 229.871322 
L 232.422735 231.528309 
L 232.747715 229.871322 
L 233.072695 226.55735 
L 233.722654 214.958446 
L 234.047633 211.644473 
L 234.372613 211.644473 
L 235.022572 205.016528 
L 235.99751 186.789678 
L 236.32249 183.475706 
L 236.647469 181.81872 
L 236.972449 178.504747 
L 237.297428 178.504747 
L 237.622408 175.190774 
L 238.597346 155.306939 
L 238.922326 153.649952 
L 239.247305 155.306939 
L 239.897265 148.678994 
L 240.547224 140.394062 
L 240.872203 138.737076 
L 241.197183 135.423103 
L 241.522162 133.766117 
L 241.847142 127.138172 
L 242.172121 125.481185 
L 242.497101 127.138172 
L 242.82208 130.452144 
L 243.14706 128.795158 
L 243.472039 120.510226 
L 243.797019 115.539267 
L 244.121998 113.882281 
L 244.446978 115.539267 
L 244.771957 122.167213 
L 245.096937 122.167213 
L 245.746896 113.882281 
L 246.071876 112.225295 
L 246.396855 112.225295 
L 246.721835 115.539267 
L 247.046814 115.539267 
L 247.371794 112.225295 
L 248.346732 117.196254 
L 248.671712 115.539267 
L 248.996691 112.225295 
L 249.321671 113.882281 
L 249.64665 117.196254 
L 250.296609 120.510226 
L 250.621589 118.85324 
L 250.946568 118.85324 
L 251.271548 117.196254 
L 251.596527 117.196254 
L 251.921507 122.167213 
L 252.246486 122.167213 
L 252.571466 123.824199 
L 252.896446 123.824199 
L 253.221425 125.481185 
L 253.546405 123.824199 
L 254.196364 123.824199 
L 254.521343 127.138172 
L 255.171302 130.452144 
L 256.7962 130.452144 
L 257.121179 133.766117 
L 257.446159 135.423103 
L 257.771138 133.766117 
L 259.071057 133.766117 
L 259.396036 132.10913 
L 260.045995 135.423103 
L 260.695954 135.423103 
L 261.345913 132.10913 
L 261.995872 132.10913 
L 262.320852 135.423103 
L 262.645831 135.423103 
L 262.970811 130.452144 
L 263.945749 130.452144 
L 264.270729 128.795158 
L 264.920688 128.795158 
L 265.245667 127.138172 
L 265.570647 127.138172 
L 265.895627 125.481185 
L 266.220606 125.481185 
L 267.195545 120.510226 
L 267.520524 122.167213 
L 268.170483 122.167213 
L 268.495463 118.85324 
L 268.820442 117.196254 
L 269.145422 117.196254 
L 269.470401 118.85324 
L 269.795381 117.196254 
L 270.12036 118.85324 
L 270.44534 115.539267 
L 270.770319 113.882281 
L 271.095299 115.539267 
L 271.420278 113.882281 
L 271.745258 115.539267 
L 272.395217 112.225295 
L 272.720197 112.225295 
L 273.045176 115.539267 
L 273.370156 112.225295 
L 274.020115 112.225295 
L 274.345094 113.882281 
L 274.995053 113.882281 
L 275.320033 117.196254 
L 275.645012 117.196254 
L 275.969992 115.539267 
L 276.294971 117.196254 
L 276.619951 117.196254 
L 276.94493 120.510226 
L 277.26991 122.167213 
L 277.594889 120.510226 
L 277.919869 122.167213 
L 278.244848 125.481185 
L 278.569828 125.481185 
L 278.894808 128.795158 
L 279.219787 130.452144 
L 279.544767 130.452144 
L 279.869746 132.10913 
L 280.519705 138.737076 
L 281.819623 145.365021 
L 282.469582 151.992966 
L 282.794562 151.992966 
L 283.119541 155.306939 
L 283.444521 160.277898 
L 283.7695 160.277898 
L 284.09448 166.905843 
L 284.744439 170.219815 
L 285.069419 173.533788 
L 285.394398 178.504747 
L 285.719378 180.161733 
L 286.044357 185.132692 
L 286.369337 185.132692 
L 286.694316 188.446665 
L 287.019296 190.103651 
L 287.344275 193.417624 
L 287.994234 201.702555 
L 288.319214 203.359541 
L 288.969173 203.359541 
L 289.619132 211.644473 
L 289.944111 213.301459 
L 290.269091 216.615432 
L 290.59407 214.958446 
L 291.244029 218.272418 
L 291.893989 226.55735 
L 292.868927 226.55735 
L 293.193907 228.214336 
L 293.518886 231.528309 
L 293.843866 233.185295 
L 294.818804 233.185295 
L 295.143784 234.842281 
L 295.793743 231.528309 
L 296.118722 231.528309 
L 296.443702 229.871322 
L 296.768681 231.528309 
L 297.093661 229.871322 
L 297.41864 226.55735 
L 297.74362 224.900363 
L 298.0686 224.900363 
L 298.393579 223.243377 
L 298.718559 223.243377 
L 299.043538 224.900363 
L 299.693497 221.586391 
L 300.343456 224.900363 
L 300.668436 228.214336 
L 300.993415 228.214336 
L 301.318395 229.871322 
L 301.643374 226.55735 
L 301.968354 226.55735 
L 302.618313 229.871322 
L 303.268272 229.871322 
L 303.593251 226.55735 
L 303.918231 226.55735 
L 304.24321 228.214336 
L 304.56819 226.55735 
L 304.89317 231.528309 
L 305.543129 231.528309 
L 305.868108 228.214336 
L 306.518067 228.214336 
L 306.843047 229.871322 
L 307.168026 229.871322 
L 307.817985 226.55735 
L 308.142965 226.55735 
L 308.467944 228.214336 
L 309.442883 228.214336 
L 309.767862 226.55735 
L 310.417821 229.871322 
L 310.742801 228.214336 
L 311.067781 228.214336 
L 311.39276 224.900363 
L 312.367699 229.871322 
L 312.692678 229.871322 
L 313.017658 228.214336 
L 313.342637 228.214336 
L 313.667617 229.871322 
L 314.317576 229.871322 
L 314.642555 228.214336 
L 314.967535 224.900363 
L 315.292514 224.900363 
L 315.617494 229.871322 
L 315.942473 229.871322 
L 316.592432 226.55735 
L 316.917412 226.55735 
L 317.242391 228.214336 
L 317.567371 231.528309 
L 317.892351 231.528309 
L 318.867289 226.55735 
L 319.517248 229.871322 
L 319.842228 229.871322 
L 320.167207 226.55735 
L 321.142146 231.528309 
L 322.117084 226.55735 
L 322.442064 229.871322 
L 322.767043 231.528309 
L 323.092023 231.528309 
L 323.417002 228.214336 
L 323.741982 228.214336 
L 324.066962 226.55735 
L 324.716921 229.871322 
L 325.0419 229.871322 
L 325.691859 226.55735 
L 326.016839 228.214336 
L 326.991777 228.214336 
L 327.316757 229.871322 
L 327.641736 229.871322 
L 327.966716 231.528309 
L 328.291695 231.528309 
L 328.616675 229.871322 
L 329.591613 214.958446 
L 330.241572 211.644473 
L 331.216511 198.388583 
L 331.541491 195.07461 
L 332.19145 183.475706 
L 332.516429 180.161733 
L 332.841409 178.504747 
L 333.166388 178.504747 
L 333.816347 168.562829 
L 334.141327 158.620911 
L 334.791286 151.992966 
L 335.441245 151.992966 
L 335.766224 148.678994 
L 336.416183 140.394062 
L 336.741163 138.737076 
L 338.041081 125.481185 
L 338.69104 128.795158 
L 339.01602 127.138172 
L 339.990958 113.882281 
L 340.315938 117.196254 
L 340.640917 122.167213 
L 340.965897 122.167213 
L 341.290876 118.85324 
L 341.615856 113.882281 
L 341.940835 113.882281 
L 342.265815 112.225295 
L 342.915774 115.539267 
L 343.240753 113.882281 
L 343.565733 113.882281 
L 343.890713 117.196254 
L 344.215692 115.539267 
L 344.540672 115.539267 
L 345.190631 112.225295 
L 345.51561 117.196254 
L 346.165569 120.510226 
L 346.815528 117.196254 
L 347.140508 118.85324 
L 347.465487 117.196254 
L 347.790467 122.167213 
L 348.115446 122.167213 
L 348.440426 125.481185 
L 349.090385 125.481185 
L 349.415364 122.167213 
L 349.740344 122.167213 
L 350.065324 125.481185 
L 350.390303 127.138172 
L 350.715283 130.452144 
L 352.66516 130.452144 
L 352.990139 132.10913 
L 353.315119 135.423103 
L 353.965078 135.423103 
L 354.290057 133.766117 
L 354.940016 133.766117 
L 355.264996 135.423103 
L 355.589975 133.766117 
L 355.914955 135.423103 
L 356.239934 133.766117 
L 357.214873 133.766117 
L 357.539853 132.10913 
L 357.864832 135.423103 
L 358.189812 135.423103 
L 359.16475 130.452144 
L 359.48973 130.452144 
L 359.814709 128.795158 
L 360.139689 130.452144 
L 360.464668 130.452144 
L 360.789648 127.138172 
L 361.114627 127.138172 
L 361.439607 128.795158 
L 361.764586 125.481185 
L 362.089566 123.824199 
L 362.739525 123.824199 
L 363.064505 122.167213 
L 363.389484 122.167213 
L 363.714464 123.824199 
L 364.039443 120.510226 
L 364.364423 120.510226 
L 365.014382 117.196254 
L 365.339361 118.85324 
L 365.664341 117.196254 
L 366.639279 117.196254 
L 366.964259 113.882281 
L 367.289238 113.882281 
L 367.614218 115.539267 
L 367.939197 115.539267 
L 368.264177 112.225295 
L 368.589156 113.882281 
L 369.889075 113.882281 
L 370.214054 112.225295 
L 370.539034 113.882281 
L 370.864013 117.196254 
L 371.188993 115.539267 
L 371.513972 117.196254 
L 371.838952 117.196254 
L 372.163931 115.539267 
L 372.81389 122.167213 
L 373.13887 123.824199 
L 373.463849 122.167213 
L 373.788829 122.167213 
L 374.113808 125.481185 
L 375.738706 133.766117 
L 376.063686 137.080089 
L 376.713645 140.394062 
L 377.038624 143.708035 
L 377.363604 143.708035 
L 378.338542 153.649952 
L 378.663522 155.306939 
L 378.988501 155.306939 
L 379.63846 161.934884 
L 380.288419 170.219815 
L 380.613399 170.219815 
L 380.938378 175.190774 
L 381.263358 176.847761 
L 381.588337 180.161733 
L 381.913317 185.132692 
L 382.888256 190.103651 
L 383.213235 193.417624 
L 383.538215 200.045569 
L 383.863194 203.359541 
L 384.188174 205.016528 
L 384.838133 205.016528 
L 385.163112 208.3305 
L 385.488092 213.301459 
L 386.138051 216.615432 
L 386.78801 216.615432 
L 387.437969 224.900363 
L 387.762948 226.55735 
L 388.087928 224.900363 
L 389.712826 233.185295 
L 391.012744 233.185295 
L 391.337723 234.842281 
L 391.662703 234.842281 
L 392.312662 228.214336 
L 392.637641 231.528309 
L 392.962621 228.214336 
L 393.61258 224.900363 
L 394.262539 224.900363 
L 394.587518 223.243377 
L 394.912498 224.900363 
L 395.237477 223.243377 
L 395.562457 223.243377 
L 395.887437 224.900363 
L 396.212416 224.900363 
L 396.537396 228.214336 
L 396.862375 229.871322 
L 397.187355 229.871322 
L 397.512334 228.214336 
L 398.487273 228.214336 
L 398.487273 228.214336 
" clip-path="url(#p42f01b264c)" style="fill: none; stroke: #ff7f0e; stroke-width: 1.5; stroke-linecap: square"/>
   </g>
   <g id="line2d_15">
    <path d="M 73.832727 109.905534 
L 74.157707 116.533479 
L 74.482686 119.847452 
L 74.807666 129.78937 
L 75.132645 133.103342 
L 75.457625 139.731288 
L 75.782604 139.731288 
L 76.432563 152.987178 
L 76.757543 156.301151 
L 77.082523 156.301151 
L 77.732482 172.871014 
L 78.382441 179.498959 
L 78.70742 189.440877 
L 79.0324 192.754849 
L 79.357379 199.382795 
L 79.682359 199.382795 
L 80.007338 206.01074 
L 80.332318 209.324712 
L 80.657297 219.26663 
L 81.307256 225.894575 
L 81.632236 232.522521 
L 81.957215 235.836493 
L 82.282195 235.836493 
L 82.932154 249.092384 
L 83.582113 249.092384 
L 83.907093 259.034301 
L 84.232072 259.034301 
L 84.557052 265.662247 
L 85.85697 278.918137 
L 86.181949 275.604164 
L 86.831908 282.23211 
L 87.156888 282.23211 
L 87.481867 285.546082 
L 87.806847 285.546082 
L 88.456806 292.174027 
L 88.781785 288.860055 
L 89.106765 292.174027 
L 90.081704 292.174027 
L 90.406683 288.860055 
L 90.731663 288.860055 
L 91.056642 292.174027 
L 91.381622 285.546082 
L 91.706601 285.546082 
L 92.031581 288.860055 
L 92.68154 282.23211 
L 93.006519 282.23211 
L 93.331499 278.918137 
L 93.656478 282.23211 
L 93.981458 272.290192 
L 94.306437 278.918137 
L 94.631417 272.290192 
L 94.956396 272.290192 
L 95.606355 259.034301 
L 96.256314 259.034301 
L 96.581294 249.092384 
L 96.906274 249.092384 
L 97.231253 242.464438 
L 97.881212 235.836493 
L 98.206192 235.836493 
L 98.531171 229.208548 
L 98.856151 225.894575 
L 99.18113 215.952658 
L 99.50611 215.952658 
L 99.831089 209.324712 
L 100.156069 206.01074 
L 100.481048 199.382795 
L 100.806028 196.068822 
L 101.131007 189.440877 
L 101.780966 182.812932 
L 102.105946 176.184986 
L 102.430925 172.871014 
L 103.080885 156.301151 
L 103.405864 159.615123 
L 103.730844 152.987178 
L 104.055823 152.987178 
L 104.380803 139.731288 
L 105.680721 126.475397 
L 106.0057 116.533479 
L 106.655659 109.905534 
L 106.980639 103.277589 
L 107.305618 103.277589 
L 107.630598 99.963616 
L 108.280557 86.707726 
L 108.605536 86.707726 
L 108.930516 90.021699 
L 109.255495 86.707726 
L 109.905455 73.451836 
L 110.230434 70.137863 
L 110.555414 73.451836 
L 110.880393 73.451836 
L 111.855332 63.509918 
L 112.180311 56.881973 
L 112.505291 63.509918 
L 112.83027 63.509918 
L 113.480229 56.881973 
L 113.805209 60.195945 
L 114.130188 60.195945 
L 114.455168 63.509918 
L 114.780147 60.195945 
L 115.105127 60.195945 
L 115.430106 56.881973 
L 116.405045 66.82389 
L 116.730025 66.82389 
L 117.055004 70.137863 
L 117.379984 63.509918 
L 118.029943 76.765808 
L 118.679902 76.765808 
L 119.004881 86.707726 
L 119.329861 86.707726 
L 120.629779 99.963616 
L 120.954758 106.591562 
L 121.929697 116.533479 
L 122.254676 126.475397 
L 122.579656 123.161425 
L 123.229615 136.417315 
L 123.879574 143.04526 
L 124.529533 156.301151 
L 124.854513 159.615123 
L 125.179492 159.615123 
L 125.504472 172.871014 
L 125.829451 172.871014 
L 126.154431 182.812932 
L 127.129369 192.754849 
L 127.454349 202.696767 
L 127.779328 202.696767 
L 128.104308 206.01074 
L 128.429287 212.638685 
L 129.079247 219.26663 
L 130.054185 239.150466 
L 130.379165 232.522521 
L 130.704144 242.464438 
L 131.029124 245.778411 
L 131.354103 252.406356 
L 132.329042 262.348274 
L 132.654021 268.976219 
L 132.979001 262.348274 
L 133.30398 272.290192 
L 133.62896 272.290192 
L 133.953939 275.604164 
L 134.278919 272.290192 
L 134.603898 278.918137 
L 134.928878 282.23211 
L 135.253857 288.860055 
L 135.578837 282.23211 
L 135.903817 288.860055 
L 136.228796 285.546082 
L 136.553776 288.860055 
L 136.878755 288.860055 
L 137.203735 292.174027 
L 137.528714 292.174027 
L 137.853694 295.488 
L 138.178673 285.546082 
L 138.828632 292.174027 
L 139.478591 285.546082 
L 139.803571 285.546082 
L 140.12855 288.860055 
L 140.778509 282.23211 
L 141.103489 285.546082 
L 141.428468 282.23211 
L 141.753448 282.23211 
L 142.078428 275.604164 
L 142.728387 268.976219 
L 143.053366 268.976219 
L 143.378346 262.348274 
L 143.703325 259.034301 
L 144.028305 259.034301 
L 144.353284 255.720329 
L 144.678264 249.092384 
L 145.003243 245.778411 
L 145.653202 245.778411 
L 145.978182 232.522521 
L 146.303161 232.522521 
L 146.628141 225.894575 
L 146.95312 225.894575 
L 147.2781 219.26663 
L 147.603079 215.952658 
L 147.928059 209.324712 
L 148.253038 206.01074 
L 148.902998 192.754849 
L 149.227977 192.754849 
L 149.552957 189.440877 
L 150.202916 172.871014 
L 150.527895 166.243068 
L 150.852875 166.243068 
L 151.177854 159.615123 
L 151.502834 156.301151 
L 151.827813 146.359233 
L 153.452711 129.78937 
L 153.77769 119.847452 
L 154.427649 113.219507 
L 154.752629 106.591562 
L 155.727568 96.649644 
L 156.052547 96.649644 
L 156.377527 86.707726 
L 156.702506 83.393753 
L 157.027486 83.393753 
L 158.002424 73.451836 
L 158.327404 73.451836 
L 158.652383 70.137863 
L 158.977363 60.195945 
L 159.302342 60.195945 
L 159.627322 63.509918 
L 159.952301 63.509918 
L 160.277281 60.195945 
L 161.252219 60.195945 
L 161.577199 53.568 
L 161.902179 60.195945 
L 162.552138 53.568 
L 162.877117 56.881973 
L 163.202097 56.881973 
L 163.852056 63.509918 
L 164.177035 60.195945 
L 164.502015 60.195945 
L 164.826994 63.509918 
L 165.151974 63.509918 
L 165.801933 70.137863 
L 166.126912 76.765808 
L 166.776871 76.765808 
L 167.101851 83.393753 
L 168.401769 96.649644 
L 168.726749 103.277589 
L 169.051728 106.591562 
L 169.376708 106.591562 
L 170.026667 119.847452 
L 170.676626 126.475397 
L 171.001605 133.103342 
L 171.976544 143.04526 
L 172.301523 152.987178 
L 172.626503 156.301151 
L 172.951482 162.929096 
L 173.276462 166.243068 
L 173.601441 172.871014 
L 173.926421 176.184986 
L 174.2514 182.812932 
L 174.90136 189.440877 
L 175.226339 199.382795 
L 175.876298 206.01074 
L 176.201278 212.638685 
L 176.526257 215.952658 
L 176.851237 222.580603 
L 177.176216 222.580603 
L 177.501196 232.522521 
L 177.826175 232.522521 
L 178.151155 242.464438 
L 178.476134 242.464438 
L 179.126093 249.092384 
L 179.451073 259.034301 
L 180.101032 259.034301 
L 180.426011 265.662247 
L 180.750991 265.662247 
L 181.075971 268.976219 
L 181.40095 275.604164 
L 181.72593 275.604164 
L 182.050909 282.23211 
L 182.375889 275.604164 
L 182.700868 282.23211 
L 183.025848 282.23211 
L 183.350827 285.546082 
L 184.325766 285.546082 
L 184.650745 288.860055 
L 184.975725 285.546082 
L 185.300704 288.860055 
L 185.625684 295.488 
L 185.950663 288.860055 
L 186.925602 288.860055 
L 187.250581 292.174027 
L 187.575561 285.546082 
L 188.22552 285.546082 
L 188.5505 282.23211 
L 188.875479 285.546082 
L 189.200459 278.918137 
L 189.850418 278.918137 
L 191.150336 265.662247 
L 191.475315 259.034301 
L 192.125274 259.034301 
L 192.450254 255.720329 
L 192.775233 245.778411 
L 193.100213 245.778411 
L 193.425192 239.150466 
L 193.750172 235.836493 
L 194.075152 235.836493 
L 194.725111 222.580603 
L 195.05009 219.26663 
L 195.37507 212.638685 
L 195.700049 209.324712 
L 196.025029 209.324712 
L 196.350008 202.696767 
L 196.674988 192.754849 
L 196.999967 192.754849 
L 197.324947 186.126904 
L 197.649926 186.126904 
L 197.974906 172.871014 
L 198.299885 172.871014 
L 198.624865 159.615123 
L 198.949844 162.929096 
L 199.274824 156.301151 
L 199.599803 152.987178 
L 199.924783 146.359233 
L 200.249762 143.04526 
L 200.574742 133.103342 
L 200.899722 129.78937 
L 201.224701 129.78937 
L 201.549681 126.475397 
L 201.87466 116.533479 
L 202.19964 113.219507 
L 202.524619 113.219507 
L 202.849599 109.905534 
L 203.174578 103.277589 
L 203.499558 99.963616 
L 203.824537 93.335671 
L 204.474496 86.707726 
L 204.799476 86.707726 
L 205.124455 83.393753 
L 205.449435 83.393753 
L 205.774414 73.451836 
L 206.099394 70.137863 
L 206.749353 70.137863 
L 207.074333 63.509918 
L 207.399312 66.82389 
L 207.724292 63.509918 
L 208.049271 66.82389 
L 208.374251 60.195945 
L 208.69923 63.509918 
L 209.02421 56.881973 
L 209.999148 56.881973 
L 210.324128 63.509918 
L 210.649107 63.509918 
L 211.299066 56.881973 
L 211.624046 63.509918 
L 211.949025 60.195945 
L 212.598984 66.82389 
L 212.923964 66.82389 
L 213.248943 70.137863 
L 213.573923 70.137863 
L 213.898903 76.765808 
L 214.223882 80.079781 
L 214.548862 80.079781 
L 214.873841 86.707726 
L 215.198821 86.707726 
L 215.5238 93.335671 
L 215.84878 93.335671 
L 217.148698 106.591562 
L 217.798657 119.847452 
L 218.123636 119.847452 
L 218.448616 129.78937 
L 218.773595 126.475397 
L 219.098575 136.417315 
L 219.423554 139.731288 
L 219.748534 146.359233 
L 220.073514 149.673205 
L 220.398493 156.301151 
L 220.723473 159.615123 
L 221.048452 166.243068 
L 221.373432 166.243068 
L 221.698411 172.871014 
L 222.023391 182.812932 
L 222.998329 192.754849 
L 223.323309 199.382795 
L 223.648288 209.324712 
L 223.973268 202.696767 
L 224.298247 215.952658 
L 224.623227 219.26663 
L 224.948206 225.894575 
L 225.273186 229.208548 
L 225.598165 229.208548 
L 225.923145 232.522521 
L 226.248124 242.464438 
L 226.573104 242.464438 
L 226.898084 245.778411 
L 227.223063 255.720329 
L 227.548043 255.720329 
L 227.873022 259.034301 
L 228.198002 259.034301 
L 228.847961 272.290192 
L 229.17294 265.662247 
L 229.49792 275.604164 
L 229.822899 275.604164 
L 230.147879 278.918137 
L 230.472858 278.918137 
L 230.797838 282.23211 
L 231.122817 282.23211 
L 231.447797 288.860055 
L 231.772776 285.546082 
L 232.097756 288.860055 
L 233.072695 288.860055 
L 233.397674 292.174027 
L 233.722654 288.860055 
L 234.047633 292.174027 
L 234.372613 285.546082 
L 234.697592 292.174027 
L 235.347551 292.174027 
L 235.672531 288.860055 
L 235.99751 288.860055 
L 236.32249 285.546082 
L 236.647469 288.860055 
L 236.972449 282.23211 
L 237.297428 282.23211 
L 237.622408 278.918137 
L 237.947387 278.918137 
L 238.272367 268.976219 
L 238.597346 272.290192 
L 239.247305 265.662247 
L 239.572285 259.034301 
L 239.897265 259.034301 
L 240.547224 252.406356 
L 240.872203 245.778411 
L 241.197183 242.464438 
L 241.522162 242.464438 
L 241.847142 239.150466 
L 242.172121 229.208548 
L 243.14706 219.26663 
L 243.472039 209.324712 
L 243.797019 209.324712 
L 244.121998 202.696767 
L 244.446978 202.696767 
L 244.771957 192.754849 
L 245.096937 189.440877 
L 245.421916 182.812932 
L 246.071876 176.184986 
L 246.396855 166.243068 
L 246.721835 162.929096 
L 247.046814 162.929096 
L 247.371794 152.987178 
L 248.021753 146.359233 
L 248.671712 129.78937 
L 249.321671 129.78937 
L 249.97163 113.219507 
L 250.296609 113.219507 
L 250.621589 106.591562 
L 250.946568 106.591562 
L 251.271548 99.963616 
L 251.921507 93.335671 
L 252.246486 93.335671 
L 252.571466 83.393753 
L 252.896446 80.079781 
L 253.221425 80.079781 
L 253.546405 73.451836 
L 253.871384 70.137863 
L 254.196364 70.137863 
L 254.521343 73.451836 
L 254.846323 70.137863 
L 255.171302 60.195945 
L 255.496282 63.509918 
L 255.821261 60.195945 
L 256.47122 60.195945 
L 256.7962 56.881973 
L 257.121179 56.881973 
L 257.446159 60.195945 
L 257.771138 53.568 
L 258.421097 60.195945 
L 258.746077 56.881973 
L 259.071057 56.881973 
L 259.721016 63.509918 
L 260.045995 63.509918 
L 260.370975 60.195945 
L 262.645831 83.393753 
L 262.970811 80.079781 
L 263.29579 83.393753 
L 263.945749 96.649644 
L 264.270729 96.649644 
L 264.595708 99.963616 
L 265.245667 113.219507 
L 265.570647 113.219507 
L 265.895627 119.847452 
L 266.220606 123.161425 
L 266.545586 129.78937 
L 266.870565 133.103342 
L 267.195545 139.731288 
L 267.520524 143.04526 
L 267.845504 149.673205 
L 268.170483 152.987178 
L 268.820442 166.243068 
L 269.145422 166.243068 
L 269.470401 169.557041 
L 270.12036 186.126904 
L 270.44534 189.440877 
L 270.770319 189.440877 
L 271.095299 199.382795 
L 271.420278 202.696767 
L 271.745258 209.324712 
L 272.070238 212.638685 
L 272.395217 219.26663 
L 272.720197 222.580603 
L 273.045176 229.208548 
L 273.370156 225.894575 
L 274.345094 245.778411 
L 274.670074 245.778411 
L 274.995053 249.092384 
L 275.320033 255.720329 
L 275.645012 259.034301 
L 275.969992 259.034301 
L 276.294971 265.662247 
L 276.619951 265.662247 
L 276.94493 268.976219 
L 277.26991 275.604164 
L 277.594889 275.604164 
L 278.244848 282.23211 
L 278.569828 278.918137 
L 278.894808 285.546082 
L 279.219787 285.546082 
L 279.544767 288.860055 
L 279.869746 282.23211 
L 280.194726 288.860055 
L 280.519705 288.860055 
L 280.844685 292.174027 
L 281.169664 285.546082 
L 281.494644 295.488 
L 281.819623 288.860055 
L 282.144603 292.174027 
L 282.469582 288.860055 
L 282.794562 292.174027 
L 283.444521 292.174027 
L 283.7695 282.23211 
L 284.419459 288.860055 
L 285.069419 275.604164 
L 285.394398 278.918137 
L 285.719378 275.604164 
L 286.044357 278.918137 
L 286.369337 268.976219 
L 286.694316 272.290192 
L 287.019296 265.662247 
L 287.344275 262.348274 
L 287.669255 255.720329 
L 288.319214 255.720329 
L 288.644193 252.406356 
L 289.294152 235.836493 
L 289.619132 235.836493 
L 289.944111 232.522521 
L 290.269091 222.580603 
L 290.59407 225.894575 
L 290.91905 219.26663 
L 291.244029 215.952658 
L 291.569009 206.01074 
L 291.893989 209.324712 
L 292.218968 199.382795 
L 292.543948 196.068822 
L 293.193907 182.812932 
L 293.843866 182.812932 
L 294.168845 169.557041 
L 294.493825 162.929096 
L 294.818804 162.929096 
L 295.468763 149.673205 
L 295.793743 149.673205 
L 296.118722 139.731288 
L 296.443702 136.417315 
L 296.768681 126.475397 
L 297.093661 129.78937 
L 297.41864 123.161425 
L 297.74362 119.847452 
L 298.0686 109.905534 
L 298.393579 109.905534 
L 298.718559 106.591562 
L 299.043538 106.591562 
L 299.693497 90.021699 
L 300.018477 90.021699 
L 300.668436 83.393753 
L 300.993415 83.393753 
L 301.318395 80.079781 
L 301.643374 80.079781 
L 301.968354 70.137863 
L 302.943292 70.137863 
L 303.268272 63.509918 
L 303.593251 63.509918 
L 303.918231 66.82389 
L 304.89317 56.881973 
L 305.218149 60.195945 
L 305.868108 53.568 
L 306.193088 60.195945 
L 306.843047 60.195945 
L 307.168026 56.881973 
L 307.493006 63.509918 
L 307.817985 60.195945 
L 308.142965 70.137863 
L 308.467944 66.82389 
L 308.792924 70.137863 
L 309.117903 70.137863 
L 309.442883 73.451836 
L 309.767862 73.451836 
L 310.417821 80.079781 
L 310.742801 80.079781 
L 311.067781 83.393753 
L 312.042719 103.277589 
L 312.367699 99.963616 
L 312.692678 106.591562 
L 313.017658 106.591562 
L 313.342637 113.219507 
L 313.992596 119.847452 
L 314.317576 126.475397 
L 314.642555 136.417315 
L 314.967535 133.103342 
L 315.292514 139.731288 
L 315.617494 143.04526 
L 315.942473 149.673205 
L 316.267453 149.673205 
L 316.592432 159.615123 
L 316.917412 162.929096 
L 317.242391 172.871014 
L 317.567371 172.871014 
L 317.892351 182.812932 
L 318.54231 189.440877 
L 319.192269 202.696767 
L 319.517248 202.696767 
L 319.842228 212.638685 
L 320.167207 209.324712 
L 320.817166 225.894575 
L 321.792105 235.836493 
L 322.117084 242.464438 
L 322.442064 245.778411 
L 322.767043 245.778411 
L 323.092023 259.034301 
L 323.417002 255.720329 
L 324.066962 262.348274 
L 324.391941 262.348274 
L 324.716921 268.976219 
L 325.36688 275.604164 
L 325.691859 275.604164 
L 326.016839 282.23211 
L 326.341818 278.918137 
L 326.666798 278.918137 
L 326.991777 285.546082 
L 327.316757 288.860055 
L 327.641736 288.860055 
L 327.966716 285.546082 
L 328.291695 288.860055 
L 328.941654 288.860055 
L 329.266634 292.174027 
L 330.241572 292.174027 
L 330.891532 285.546082 
L 331.216511 292.174027 
L 331.541491 292.174027 
L 331.86647 285.546082 
L 332.841409 285.546082 
L 333.166388 275.604164 
L 333.491368 282.23211 
L 333.816347 275.604164 
L 334.141327 272.290192 
L 334.466306 272.290192 
L 335.116265 265.662247 
L 335.441245 265.662247 
L 335.766224 259.034301 
L 336.416183 252.406356 
L 337.066143 239.150466 
L 337.391122 242.464438 
L 337.716102 235.836493 
L 338.041081 235.836493 
L 338.366061 222.580603 
L 338.69104 219.26663 
L 339.01602 219.26663 
L 339.340999 212.638685 
L 339.665979 209.324712 
L 339.990958 202.696767 
L 340.315938 199.382795 
L 340.640917 199.382795 
L 340.965897 189.440877 
L 341.290876 186.126904 
L 342.265815 166.243068 
L 343.240753 156.301151 
L 343.565733 143.04526 
L 343.890713 146.359233 
L 344.215692 136.417315 
L 344.540672 136.417315 
L 345.190631 123.161425 
L 346.165569 113.219507 
L 346.490549 106.591562 
L 347.140508 99.963616 
L 347.465487 93.335671 
L 347.790467 93.335671 
L 348.115446 90.021699 
L 348.440426 90.021699 
L 348.765405 80.079781 
L 349.090385 80.079781 
L 349.415364 73.451836 
L 349.740344 76.765808 
L 350.715283 66.82389 
L 351.040262 66.82389 
L 351.690221 60.195945 
L 352.015201 63.509918 
L 352.66516 56.881973 
L 352.990139 56.881973 
L 353.315119 60.195945 
L 353.640098 60.195945 
L 353.965078 53.568 
L 354.290057 56.881973 
L 354.615037 56.881973 
L 355.264996 63.509918 
L 355.589975 63.509918 
L 355.914955 66.82389 
L 356.239934 66.82389 
L 356.564914 60.195945 
L 356.889894 66.82389 
L 357.539853 73.451836 
L 357.864832 73.451836 
L 358.514791 80.079781 
L 358.839771 86.707726 
L 359.16475 86.707726 
L 359.48973 90.021699 
L 359.814709 96.649644 
L 360.139689 96.649644 
L 360.464668 103.277589 
L 361.114627 109.905534 
L 361.439607 116.533479 
L 361.764586 113.219507 
L 362.414545 129.78937 
L 363.064505 136.417315 
L 363.389484 143.04526 
L 363.714464 146.359233 
L 364.039443 152.987178 
L 364.364423 156.301151 
L 364.689402 162.929096 
L 365.339361 169.557041 
L 365.664341 176.184986 
L 365.98932 186.126904 
L 366.3143 189.440877 
L 366.639279 196.068822 
L 366.964259 196.068822 
L 367.614218 209.324712 
L 368.264177 215.952658 
L 368.589156 222.580603 
L 368.914136 225.894575 
L 369.239115 232.522521 
L 369.564095 229.208548 
L 369.889075 242.464438 
L 370.214054 242.464438 
L 370.539034 249.092384 
L 370.864013 249.092384 
L 371.188993 255.720329 
L 371.838952 262.348274 
L 372.163931 262.348274 
L 373.13887 272.290192 
L 373.463849 272.290192 
L 373.788829 275.604164 
L 374.113808 275.604164 
L 374.438788 282.23211 
L 374.763767 278.918137 
L 375.088747 285.546082 
L 375.413726 288.860055 
L 376.713645 288.860055 
L 377.038624 292.174027 
L 377.363604 288.860055 
L 377.688583 288.860055 
L 378.013563 292.174027 
L 378.338542 288.860055 
L 378.663522 292.174027 
L 378.988501 292.174027 
L 379.63846 285.546082 
L 379.96344 278.918137 
L 380.288419 285.546082 
L 380.613399 282.23211 
L 381.263358 282.23211 
L 381.588337 275.604164 
L 381.913317 272.290192 
L 382.238296 275.604164 
L 382.563276 265.662247 
L 382.888256 265.662247 
L 383.213235 262.348274 
L 383.538215 255.720329 
L 383.863194 255.720329 
L 384.838133 245.778411 
L 385.163112 232.522521 
L 385.488092 235.836493 
L 385.813071 229.208548 
L 386.138051 232.522521 
L 386.46303 222.580603 
L 386.78801 219.26663 
L 387.112989 212.638685 
L 387.437969 212.638685 
L 387.762948 202.696767 
L 388.087928 199.382795 
L 388.737887 186.126904 
L 389.062867 182.812932 
L 389.387846 182.812932 
L 389.712826 176.184986 
L 390.037805 172.871014 
L 390.362785 159.615123 
L 390.687764 159.615123 
L 391.337723 152.987178 
L 392.312662 133.103342 
L 392.637641 133.103342 
L 392.962621 126.475397 
L 393.61258 119.847452 
L 393.937559 109.905534 
L 394.262539 106.591562 
L 394.587518 106.591562 
L 394.912498 103.277589 
L 395.237477 103.277589 
L 395.562457 90.021699 
L 395.887437 90.021699 
L 396.212416 86.707726 
L 396.537396 90.021699 
L 397.187355 76.765808 
L 397.512334 76.765808 
L 398.162293 70.137863 
L 398.487273 70.137863 
L 398.487273 70.137863 
" clip-path="url(#p42f01b264c)" style="fill: none; stroke: #2ca02c; stroke-width: 1.5; stroke-linecap: square"/>
   </g>
   <g id="patch_3">
    <path d="M 57.6 307.584 
L 57.6 41.472 
" style="fill: none; stroke: #000000; stroke-width: 0.8; stroke-linejoin: miter; stroke-linecap: square"/>
   </g>
   <g id="patch_4">
    <path d="M 414.72 307.584 
L 414.72 41.472 
" style="fill: none; stroke: #000000; stroke-width: 0.8; stroke-linejoin: miter; stroke-linecap: square"/>
   </g>
   <g id="patch_5">
    <path d="M 57.6 307.584 
L 414.72 307.584 
" style="fill: none; stroke: #000000; stroke-width: 0.8; stroke-linejoin: miter; stroke-linecap: square"/>
   </g>
   <g id="patch_6">
    <path d="M 57.6 41.472 
L 414.72 41.472 
" style="fill: none; stroke: #000000; stroke-width: 0.8; stroke-linejoin: miter; stroke-linecap: square"/>
   </g>
  </g>
 </g>
 <defs>
  <clipPath id="p42f01b264c">
   <rect x="57.6" y="41.472" width="357.12" height="266.112"/>
  </clipPath>
 </defs>
</svg>
