<?xml version="1.0" encoding="utf-8" standalone="no"?>
<!DOCTYPE svg PUBLIC "-//W3C//DTD SVG 1.1//EN"
  "http://www.w3.org/Graphics/SVG/1.1/DTD/svg11.dtd">
<svg xmlns:xlink="http://www.w3.org/1999/xlink" width="460.8pt" height="345.6pt" viewBox="0 0 460.8 345.6" xmlns="http://www.w3.org/2000/svg" version="1.1">
 <metadata>
  <rdf:RDF xmlns:dc="http://purl.org/dc/elements/1.1/" xmlns:cc="http://creativecommons.org/ns#" xmlns:rdf="http://www.w3.org/1999/02/22-rdf-syntax-ns#">
   <cc:Work>
    <dc:type rdf:resource="http://purl.org/dc/dcmitype/StillImage"/>
    <dc:date>2025-12-22T09:37:11.791924</dc:date>
    <dc:format>image/svg+xml</dc:format>
    <dc:creator>
     <cc:Agent>
      <dc:title>Matplotlib v3.10.8, https://matplotlib.org/</dc:title>
     </cc:Agent>
    </dc:creator>
   </cc:Work>
  </rdf:RDF>
 </metadata>
 <defs>
  <style type="text/css">*{stroke-linejoin: round; stroke-linecap: butt}</style>
 </defs>
 <g id="figure_1">
  <g id="patch_1">
   <path d="M 0 345.6 
L 460.8 345.6 
L 460.8 0 
L 0 0 
z
" style="fill: #ffffff"/>
  </g>
  <g id="axes_1">
   <g id="patch_2">
    <path d="M 57.6 307.584 
L 414.72 307.584 
L 414.72 41.472 
L 57.6 41.472 
z
" style="fill: #ffffff"/>
   </g>
   <g id="matplotlib.axis_1">
    <g id="xtick_1">
     <g id="line2d_1">
      <defs>
       <path id="mae5600bd8a" d="M 0 0 
L 0 3.5 
" style="stroke: #000000; stroke-width: 0.8"/>
      </defs>
      <g>
       <use xlink:href="#mae5600bd8a" x="73.832727" y="307.584" style="stroke: #000000; stroke-width: 0.8"/>
      </g>
     </g>
     <g id="text_1">
      <!-- 0 -->
      <g transform="translate(70.651477 322.182437) scale(0.1 -0.1)">
       <defs>
        <path id="DejaVuSans-30" d="M 2034 4250 
Q 1547 4250 1301 3770 
Q 1056 3291 1056 2328 
Q 1056 1369 1301 889 
Q 1547 409 2034 409 
Q 2525 409 2770 889 
Q 3016 1369 3016 2328 
Q 3016 3291 2770 3770 
Q 2525 4250 2034 4250 
z
M 2034 4750 
Q 2819 4750 3233 4129 
Q 3647 3509 3647 2328 
Q 3647 1150 3233 529 
Q 2819 -91 2034 -91 
Q 1250 -91 836 529 
Q 422 1150 422 2328 
Q 422 3509 836 4129 
Q 1250 4750 2034 4750 
z
" transform="scale(0.015625)"/>
       </defs>
       <use xlink:href="#DejaVuSans-30"/>
      </g>
     </g>
    </g>
    <g id="xtick_2">
     <g id="line2d_2">
      <g>
       <use xlink:href="#mae5600bd8a" x="138.828632" y="307.584" style="stroke: #000000; stroke-width: 0.8"/>
      </g>
     </g>
     <g id="text_2">
      <!-- 1 -->
      <g transform="translate(135.647382 322.182437) scale(0.1 -0.1)">
       <defs>
        <path id="DejaVuSans-31" d="M 794 531 
L 1825 531 
L 1825 4091 
L 703 3866 
L 703 4441 
L 1819 4666 
L 2450 4666 
L 2450 531 
L 3481 531 
L 3481 0 
L 794 0 
L 794 531 
z
" transform="scale(0.015625)"/>
       </defs>
       <use xlink:href="#DejaVuSans-31"/>
      </g>
     </g>
    </g>
    <g id="xtick_3">
     <g id="line2d_3">
      <g>
       <use xlink:href="#mae5600bd8a" x="203.824537" y="307.584" style="stroke: #000000; stroke-width: 0.8"/>
      </g>
     </g>
     <g id="text_3">
      <!-- 2 -->
      <g transform="translate(200.643287 322.182437) scale(0.1 -0.1)">
       <defs>
        <path id="DejaVuSans-32" d="M 1228 531 
L 3431 531 
L 3431 0 
L 469 0 
L 469 531 
Q 828 903 1448 1529 
Q 2069 2156 2228 2338 
Q 2531 2678 2651 2914 
Q 2772 3150 2772 3378 
Q 2772 3750 2511 3984 
Q 2250 4219 1831 4219 
Q 1534 4219 1204 4116 
Q 875 4013 500 3803 
L 500 4441 
Q 881 4594 1212 4672 
Q 1544 4750 1819 4750 
Q 2544 4750 2975 4387 
Q 3406 4025 3406 3419 
Q 3406 3131 3298 2873 
Q 3191 2616 2906 2266 
Q 2828 2175 2409 1742 
Q 1991 1309 1228 531 
z
" transform="scale(0.015625)"/>
       </defs>
       <use xlink:href="#DejaVuSans-32"/>
      </g>
     </g>
    </g>
    <g id="xtick_4">
     <g id="line2d_4">
      <g>
       <use xlink:href="#mae5600bd8a" x="268.820442" y="307.584" style="stroke: #000000; stroke-width: 0.8"/>
      </g>
     </g>
     <g id="text_4">
      <!-- 3 -->
      <g transform="translate(265.639192 322.182437) scale(0.1 -0.1)">
       <defs>
        <path id="DejaVuSans-33" d="M 2597 2516 
Q 3050 2419 3304 2112 
Q 3559 1806 3559 1356 
Q 3559 666 3084 287 
Q 2609 -91 1734 -91 
Q 1441 -91 1130 -33 
Q 819 25 488 141 
L 488 750 
Q 750 597 1062 519 
Q 1375 441 1716 441 
Q 2309 441 2620 675 
Q 2931 909 2931 1356 
Q 2931 1769 2642 2001 
Q 2353 2234 1838 2234 
L 1294 2234 
L 1294 2753 
L 1863 2753 
Q 2328 2753 2575 2939 
Q 2822 3125 2822 3475 
Q 2822 3834 2567 4026 
Q 2313 4219 1838 4219 
Q 1578 4219 1281 4162 
Q 984 4106 628 3988 
L 628 4550 
Q 988 4650 1302 4700 
Q 1616 4750 1894 4750 
Q 2613 4750 3031 4423 
Q 3450 4097 3450 3541 
Q 3450 3153 3228 2886 
Q 3006 2619 2597 2516 
z
" transform="scale(0.015625)"/>
       </defs>
       <use xlink:href="#DejaVuSans-33"/>
      </g>
     </g>
    </g>
    <g id="xtick_5">
     <g id="line2d_5">
      <g>
       <use xlink:href="#mae5600bd8a" x="333.816347" y="307.584" style="stroke: #000000; stroke-width: 0.8"/>
      </g>
     </g>
     <g id="text_5">
      <!-- 4 -->
      <g transform="translate(330.635097 322.182437) scale(0.1 -0.1)">
       <defs>
        <path id="DejaVuSans-34" d="M 2419 4116 
L 825 1625 
L 2419 1625 
L 2419 4116 
z
M 2253 4666 
L 3047 4666 
L 3047 1625 
L 3713 1625 
L 3713 1100 
L 3047 1100 
L 3047 0 
L 2419 0 
L 2419 1100 
L 313 1100 
L 313 1709 
L 2253 4666 
z
" transform="scale(0.015625)"/>
       </defs>
       <use xlink:href="#DejaVuSans-34"/>
      </g>
     </g>
    </g>
    <g id="xtick_6">
     <g id="line2d_6">
      <g>
       <use xlink:href="#mae5600bd8a" x="398.812252" y="307.584" style="stroke: #000000; stroke-width: 0.8"/>
      </g>
     </g>
     <g id="text_6">
      <!-- 5 -->
      <g transform="translate(395.631002 322.182437) scale(0.1 -0.1)">
       <defs>
        <path id="DejaVuSans-35" d="M 691 4666 
L 3169 4666 
L 3169 4134 
L 1269 4134 
L 1269 2991 
Q 1406 3038 1543 3061 
Q 1681 3084 1819 3084 
Q 2600 3084 3056 2656 
Q 3513 2228 3513 1497 
Q 3513 744 3044 326 
Q 2575 -91 1722 -91 
Q 1428 -91 1123 -41 
Q 819 9 494 109 
L 494 744 
Q 775 591 1075 516 
Q 1375 441 1709 441 
Q 2250 441 2565 725 
Q 2881 1009 2881 1497 
Q 2881 1984 2565 2268 
Q 2250 2553 1709 2553 
Q 1456 2553 1204 2497 
Q 953 2441 691 2322 
L 691 4666 
z
" transform="scale(0.015625)"/>
       </defs>
       <use xlink:href="#DejaVuSans-35"/>
      </g>
     </g>
    </g>
    <g id="text_7">
     <!-- 1e−7 -->
     <g transform="translate(387.462188 334.860562) scale(0.1 -0.1)">
      <defs>
       <path id="DejaVuSans-65" d="M 3597 1894 
L 3597 1613 
L 953 1613 
Q 991 1019 1311 708 
Q 1631 397 2203 397 
Q 2534 397 2845 478 
Q 3156 559 3463 722 
L 3463 178 
Q 3153 47 2828 -22 
Q 2503 -91 2169 -91 
Q 1331 -91 842 396 
Q 353 884 353 1716 
Q 353 2575 817 3079 
Q 1281 3584 2069 3584 
Q 2775 3584 3186 3129 
Q 3597 2675 3597 1894 
z
M 3022 2063 
Q 3016 2534 2758 2815 
Q 2500 3097 2075 3097 
Q 1594 3097 1305 2825 
Q 1016 2553 972 2059 
L 3022 2063 
z
" transform="scale(0.015625)"/>
       <path id="DejaVuSans-2212" d="M 678 2272 
L 4684 2272 
L 4684 1741 
L 678 1741 
L 678 2272 
z
" transform="scale(0.015625)"/>
       <path id="DejaVuSans-37" d="M 525 4666 
L 3525 4666 
L 3525 4397 
L 1831 0 
L 1172 0 
L 2766 4134 
L 525 4134 
L 525 4666 
z
" transform="scale(0.015625)"/>
      </defs>
      <use xlink:href="#DejaVuSans-31"/>
      <use xlink:href="#DejaVuSans-65" transform="translate(63.623047 0)"/>
      <use xlink:href="#DejaVuSans-2212" transform="translate(125.146484 0)"/>
      <use xlink:href="#DejaVuSans-37" transform="translate(208.935547 0)"/>
     </g>
    </g>
   </g>
   <g id="matplotlib.axis_2">
    <g id="ytick_1">
     <g id="line2d_7">
      <defs>
       <path id="m0707ed43c1" d="M 0 0 
L -3.5 0 
" style="stroke: #000000; stroke-width: 0.8"/>
      </defs>
      <g>
       <use xlink:href="#m0707ed43c1" x="57.6" y="303.799484" style="stroke: #000000; stroke-width: 0.8"/>
      </g>
     </g>
     <g id="text_8">
      <!-- 0 -->
      <g transform="translate(44.2375 307.598703) scale(0.1 -0.1)">
       <use xlink:href="#DejaVuSans-30"/>
      </g>
     </g>
    </g>
    <g id="ytick_2">
     <g id="line2d_8">
      <g>
       <use xlink:href="#m0707ed43c1" x="57.6" y="273.935361" style="stroke: #000000; stroke-width: 0.8"/>
      </g>
     </g>
     <g id="text_9">
      <!-- 5 -->
      <g transform="translate(44.2375 277.73458) scale(0.1 -0.1)">
       <use xlink:href="#DejaVuSans-35"/>
      </g>
     </g>
    </g>
    <g id="ytick_3">
     <g id="line2d_9">
      <g>
       <use xlink:href="#m0707ed43c1" x="57.6" y="244.071239" style="stroke: #000000; stroke-width: 0.8"/>
      </g>
     </g>
     <g id="text_10">
      <!-- 10 -->
      <g transform="translate(37.875 247.870457) scale(0.1 -0.1)">
       <use xlink:href="#DejaVuSans-31"/>
       <use xlink:href="#DejaVuSans-30" transform="translate(63.623047 0)"/>
      </g>
     </g>
    </g>
    <g id="ytick_4">
     <g id="line2d_10">
      <g>
       <use xlink:href="#m0707ed43c1" x="57.6" y="214.207116" style="stroke: #000000; stroke-width: 0.8"/>
      </g>
     </g>
     <g id="text_11">
      <!-- 15 -->
      <g transform="translate(37.875 218.006335) scale(0.1 -0.1)">
       <use xlink:href="#DejaVuSans-31"/>
       <use xlink:href="#DejaVuSans-35" transform="translate(63.623047 0)"/>
      </g>
     </g>
    </g>
    <g id="ytick_5">
     <g id="line2d_11">
      <g>
       <use xlink:href="#m0707ed43c1" x="57.6" y="184.342993" style="stroke: #000000; stroke-width: 0.8"/>
      </g>
     </g>
     <g id="text_12">
      <!-- 20 -->
      <g transform="translate(37.875 188.142212) scale(0.1 -0.1)">
       <use xlink:href="#DejaVuSans-32"/>
       <use xlink:href="#DejaVuSans-30" transform="translate(63.623047 0)"/>
      </g>
     </g>
    </g>
    <g id="ytick_6">
     <g id="line2d_12">
      <g>
       <use xlink:href="#m0707ed43c1" x="57.6" y="154.47887" style="stroke: #000000; stroke-width: 0.8"/>
      </g>
     </g>
     <g id="text_13">
      <!-- 25 -->
      <g transform="translate(37.875 158.278089) scale(0.1 -0.1)">
       <use xlink:href="#DejaVuSans-32"/>
       <use xlink:href="#DejaVuSans-35" transform="translate(63.623047 0)"/>
      </g>
     </g>
    </g>
    <g id="ytick_7">
     <g id="line2d_13">
      <g>
       <use xlink:href="#m0707ed43c1" x="57.6" y="124.614748" style="stroke: #000000; stroke-width: 0.8"/>
      </g>
     </g>
     <g id="text_14">
      <!-- 30 -->
      <g transform="translate(37.875 128.413967) scale(0.1 -0.1)">
       <use xlink:href="#DejaVuSans-33"/>
       <use xlink:href="#DejaVuSans-30" transform="translate(63.623047 0)"/>
      </g>
     </g>
    </g>
    <g id="ytick_8">
     <g id="line2d_14">
      <g>
       <use xlink:href="#m0707ed43c1" x="57.6" y="94.750625" style="stroke: #000000; stroke-width: 0.8"/>
      </g>
     </g>
     <g id="text_15">
      <!-- 35 -->
      <g transform="translate(37.875 98.549844) scale(0.1 -0.1)">
       <use xlink:href="#DejaVuSans-33"/>
       <use xlink:href="#DejaVuSans-35" transform="translate(63.623047 0)"/>
      </g>
     </g>
    </g>
    <g id="ytick_9">
     <g id="line2d_15">
      <g>
       <use xlink:href="#m0707ed43c1" x="57.6" y="64.886502" style="stroke: #000000; stroke-width: 0.8"/>
      </g>
     </g>
     <g id="text_16">
      <!-- 40 -->
      <g transform="translate(37.875 68.685721) scale(0.1 -0.1)">
       <use xlink:href="#DejaVuSans-34"/>
       <use xlink:href="#DejaVuSans-30" transform="translate(63.623047 0)"/>
      </g>
     </g>
    </g>
   </g>
   <g id="line2d_16">
    <path d="M 73.832727 154.888009 
L 74.482686 155.727937 
L 74.807666 155.634612 
L 75.457625 154.794683 
L 75.782604 155.07466 
L 76.107584 155.634612 
L 76.432563 155.821263 
L 76.757543 155.727937 
L 77.082523 155.167985 
L 77.407502 155.07466 
L 78.057461 155.727937 
L 78.382441 155.634612 
L 79.0324 154.608033 
L 79.357379 154.888009 
L 80.007338 155.914588 
L 80.657297 155.07466 
L 80.982277 154.888009 
L 81.957215 155.727937 
L 82.282195 155.541286 
L 82.607174 154.981334 
L 82.932154 154.981334 
L 83.582113 155.447961 
L 83.907093 155.541286 
L 84.232072 155.167985 
L 84.882031 155.167985 
L 85.207011 155.447961 
L 86.181949 155.26131 
L 86.506929 155.26131 
L 86.831908 155.541286 
L 87.806847 155.354636 
L 93.006519 155.447961 
L 93.656478 155.821263 
L 94.631417 154.981334 
L 95.281376 155.634612 
L 95.606355 155.821263 
L 96.256314 154.888009 
L 96.581294 155.07466 
L 97.231253 155.914588 
L 97.556233 155.914588 
L 98.206192 155.167985 
L 98.531171 155.167985 
L 99.50611 156.007913 
L 100.481048 154.981334 
L 100.806028 155.26131 
L 101.131007 155.727937 
L 101.455987 155.821263 
L 102.105946 155.26131 
L 102.430925 155.354636 
L 103.080885 156.101239 
L 103.405864 155.821263 
L 103.730844 155.354636 
L 104.055823 155.167985 
L 104.380803 155.541286 
L 104.705782 156.101239 
L 105.030762 156.007913 
L 105.680721 154.794683 
L 106.0057 155.07466 
L 106.655659 156.007913 
L 106.980639 155.821263 
L 107.305618 155.26131 
L 107.630598 155.26131 
L 107.955577 155.447961 
L 108.280557 156.007913 
L 108.605536 156.007913 
L 109.255495 155.447961 
L 109.580475 155.354636 
L 109.905455 155.914588 
L 110.555414 155.821263 
L 110.880393 155.447961 
L 111.530352 155.354636 
L 112.180311 155.821263 
L 112.83027 155.727937 
L 113.15525 155.634612 
L 113.805209 155.727937 
L 114.130188 155.727937 
L 114.780147 155.447961 
L 115.105127 155.634612 
L 115.755086 155.541286 
L 116.730025 155.634612 
L 117.379984 155.727937 
L 118.029943 155.634612 
L 121.604717 155.541286 
L 121.929697 155.447961 
L 122.254676 155.727937 
L 122.579656 155.821263 
L 123.229615 155.541286 
L 123.554595 155.447961 
L 124.204554 155.821263 
L 125.179492 155.354636 
L 126.154431 155.914588 
L 126.47941 155.821263 
L 127.129369 155.167985 
L 127.454349 155.447961 
L 127.779328 156.007913 
L 128.104308 156.101239 
L 128.754267 155.26131 
L 129.079247 155.26131 
L 129.729206 155.914588 
L 130.054185 155.727937 
L 130.379165 155.354636 
L 130.704144 155.541286 
L 131.029124 155.447961 
L 131.679083 155.727937 
L 132.004062 155.821263 
L 132.654021 155.541286 
L 133.30398 155.634612 
L 133.953939 155.541286 
L 134.603898 155.447961 
L 134.928878 155.634612 
L 135.578837 155.541286 
L 135.903817 155.727937 
L 136.228796 155.541286 
L 137.203735 155.634612 
L 137.528714 155.727937 
L 138.503653 155.541286 
L 139.153612 155.541286 
L 139.478591 155.727937 
L 139.803571 155.727937 
L 140.12855 155.541286 
L 140.45353 155.167985 
L 140.778509 155.07466 
L 141.103489 155.167985 
L 142.078428 155.914588 
L 142.403407 156.007913 
L 142.728387 155.727937 
L 143.378346 154.701358 
L 143.703325 154.701358 
L 144.678264 156.47454 
L 145.003243 156.194564 
L 145.653202 154.04808 
L 145.978182 153.954755 
L 146.628141 156.567866 
L 146.95312 156.941167 
L 147.603079 154.234731 
L 147.928059 153.768104 
L 148.253038 154.981334 
L 148.578018 156.661191 
L 148.902998 156.941167 
L 149.552957 154.234731 
L 149.877936 153.861429 
L 150.527895 156.567866 
L 150.852875 156.661191 
L 151.502834 154.234731 
L 151.827813 154.141406 
L 152.477772 156.47454 
L 152.802752 156.101239 
L 153.127731 154.981334 
L 153.452711 154.328056 
L 153.77769 154.794683 
L 154.10267 155.541286 
L 154.427649 155.727937 
L 155.077609 154.888009 
L 155.402588 154.981334 
L 155.727568 155.634612 
L 156.052547 155.821263 
L 156.702506 154.701358 
L 157.027486 154.888009 
L 157.352465 155.634612 
L 157.677445 156.007913 
L 158.002424 155.634612 
L 158.327404 154.794683 
L 158.652383 154.701358 
L 159.302342 155.634612 
L 159.627322 155.727937 
L 159.952301 155.167985 
L 160.277281 154.888009 
L 160.60226 154.981334 
L 161.252219 155.727937 
L 162.227158 154.981334 
L 162.552138 155.167985 
L 162.877117 155.541286 
L 163.202097 155.634612 
L 163.852056 154.794683 
L 164.177035 154.888009 
L 164.826994 155.821263 
L 165.151974 155.634612 
L 165.476953 154.981334 
L 165.801933 154.794683 
L 166.451892 155.634612 
L 166.776871 155.727937 
L 167.101851 155.634612 
L 167.42683 155.07466 
L 167.75181 154.888009 
L 168.401769 155.727937 
L 168.726749 155.634612 
L 169.376708 154.888009 
L 169.701687 154.888009 
L 170.351646 155.727937 
L 170.676626 155.541286 
L 171.326585 154.794683 
L 171.651564 155.07466 
L 172.301523 155.914588 
L 172.951482 154.981334 
L 173.276462 154.888009 
L 173.926421 155.634612 
L 174.2514 155.541286 
L 174.90136 154.701358 
L 175.226339 154.888009 
L 175.876298 155.727937 
L 176.526257 155.07466 
L 176.851237 154.888009 
L 177.176216 155.167985 
L 177.501196 155.634612 
L 177.826175 155.634612 
L 178.476134 154.981334 
L 178.801114 154.981334 
L 179.776052 155.447961 
L 180.101032 155.167985 
L 180.750991 155.26131 
L 181.075971 155.447961 
L 181.72593 155.354636 
L 182.050909 155.167985 
L 182.375889 155.26131 
L 182.700868 155.541286 
L 183.675807 155.354636 
L 184.975725 155.26131 
L 185.300704 155.167985 
L 186.275643 155.354636 
L 187.575561 155.354636 
L 187.900541 155.541286 
L 188.22552 155.354636 
L 188.875479 155.26131 
L 189.525438 155.914588 
L 189.850418 155.727937 
L 190.175397 155.167985 
L 190.500377 154.981334 
L 191.150336 155.727937 
L 191.475315 155.821263 
L 192.125274 155.07466 
L 192.450254 155.07466 
L 193.100213 155.914588 
L 193.750172 155.634612 
L 194.075152 155.26131 
L 194.400131 155.167985 
L 194.725111 155.447961 
L 195.05009 156.007913 
L 195.37507 156.007913 
L 196.025029 155.26131 
L 196.350008 155.07466 
L 196.674988 155.26131 
L 196.999967 155.727937 
L 197.324947 155.914588 
L 197.974906 155.167985 
L 198.299885 155.354636 
L 198.949844 156.101239 
L 199.924783 155.07466 
L 200.574742 156.28789 
L 200.899722 156.101239 
L 201.549681 154.888009 
L 201.87466 155.167985 
L 202.19964 155.821263 
L 202.524619 156.194564 
L 202.849599 155.914588 
L 203.174578 155.26131 
L 203.499558 155.26131 
L 203.824537 155.447961 
L 204.149517 156.007913 
L 204.474496 156.007913 
L 204.799476 155.821263 
L 205.124455 155.447961 
L 205.449435 155.447961 
L 205.774414 155.821263 
L 206.099394 155.914588 
L 206.424373 155.727937 
L 206.749353 155.354636 
L 207.399312 155.447961 
L 208.049271 155.821263 
L 209.02421 155.634612 
L 209.349189 155.821263 
L 209.999148 155.727937 
L 210.324128 155.541286 
L 212.274005 155.634612 
L 212.923964 155.727937 
L 213.248943 155.727937 
L 213.573923 155.541286 
L 213.898903 155.727937 
L 217.798657 155.634612 
L 218.123636 155.914588 
L 218.448616 155.914588 
L 219.098575 155.634612 
L 219.423554 155.541286 
L 220.398493 155.727937 
L 220.723473 155.541286 
L 221.373432 155.541286 
L 222.023391 155.914588 
L 222.34837 155.821263 
L 222.67335 155.447961 
L 222.998329 155.26131 
L 223.323309 155.541286 
L 223.648288 156.007913 
L 223.973268 156.007913 
L 224.298247 155.727937 
L 224.623227 155.26131 
L 224.948206 155.354636 
L 225.598165 155.914588 
L 226.573104 155.447961 
L 227.873022 155.727937 
L 228.522981 155.634612 
L 231.772776 155.634612 
L 232.097756 155.447961 
L 233.072695 155.634612 
L 234.047633 155.541286 
L 234.372613 155.354636 
L 235.022572 155.634612 
L 235.347551 155.727937 
L 235.99751 155.447961 
L 236.32249 155.167985 
L 236.972449 155.26131 
L 237.297428 155.447961 
L 237.622408 155.821263 
L 237.947387 156.007913 
L 238.272367 156.007913 
L 238.597346 155.821263 
L 239.572285 154.608033 
L 240.547224 156.567866 
L 240.872203 156.194564 
L 241.522162 154.04808 
L 241.847142 154.04808 
L 242.497101 156.661191 
L 242.82208 156.847842 
L 243.472039 154.141406 
L 243.797019 153.768104 
L 244.121998 154.981334 
L 244.446978 156.661191 
L 244.771957 156.847842 
L 245.421916 154.141406 
L 245.746896 153.861429 
L 246.071876 154.888009 
L 246.396855 156.567866 
L 246.721835 156.661191 
L 247.371794 154.141406 
L 247.696773 154.141406 
L 248.346732 156.381215 
L 248.671712 156.007913 
L 248.996691 155.07466 
L 249.321671 154.608033 
L 249.64665 154.888009 
L 249.97163 155.541286 
L 250.296609 155.727937 
L 250.946568 154.794683 
L 251.271548 154.888009 
L 251.596527 155.541286 
L 251.921507 155.634612 
L 252.571466 154.794683 
L 252.896446 154.888009 
L 253.221425 155.541286 
L 253.546405 155.914588 
L 253.871384 155.634612 
L 254.196364 154.981334 
L 254.521343 154.701358 
L 255.171302 155.634612 
L 255.496282 155.821263 
L 256.146241 154.888009 
L 256.47122 154.981334 
L 256.7962 155.447961 
L 257.121179 155.634612 
L 257.446159 155.541286 
L 258.096118 154.888009 
L 258.421097 155.167985 
L 258.746077 155.727937 
L 259.071057 155.727937 
L 259.721016 154.794683 
L 260.045995 154.794683 
L 260.695954 155.821263 
L 261.020934 155.541286 
L 261.345913 154.981334 
L 261.670893 154.701358 
L 261.995872 155.07466 
L 262.320852 155.634612 
L 262.645831 155.821263 
L 262.970811 155.541286 
L 263.29579 154.981334 
L 263.62077 154.981334 
L 263.945749 155.354636 
L 264.270729 155.914588 
L 264.595708 155.821263 
L 265.245667 154.888009 
L 265.570647 154.794683 
L 265.895627 155.447961 
L 266.220606 155.727937 
L 266.545586 155.634612 
L 266.870565 155.07466 
L 267.195545 154.888009 
L 267.520524 155.07466 
L 267.845504 155.541286 
L 268.170483 155.727937 
L 269.145422 154.888009 
L 269.470401 155.26131 
L 269.795381 155.821263 
L 270.12036 155.727937 
L 270.44534 154.981334 
L 270.770319 154.608033 
L 271.095299 154.888009 
L 271.745258 155.727937 
L 272.070238 155.447961 
L 272.395217 154.981334 
L 272.720197 154.888009 
L 273.370156 155.634612 
L 273.695135 155.727937 
L 274.345094 155.07466 
L 274.670074 155.07466 
L 274.995053 155.447961 
L 275.320033 155.634612 
L 275.645012 155.541286 
L 275.969992 155.167985 
L 276.294971 155.07466 
L 277.594889 155.354636 
L 277.919869 155.167985 
L 279.219787 155.541286 
L 279.544767 155.354636 
L 284.744439 155.447961 
L 285.394398 155.914588 
L 285.719378 155.634612 
L 286.044357 155.167985 
L 286.369337 154.981334 
L 287.019296 155.727937 
L 287.344275 155.727937 
L 287.994234 155.07466 
L 288.319214 155.07466 
L 288.969173 155.821263 
L 289.294152 155.914588 
L 289.944111 155.167985 
L 290.269091 155.167985 
L 290.91905 156.007913 
L 291.244029 156.007913 
L 291.893989 155.26131 
L 292.218968 155.07466 
L 292.543948 155.354636 
L 292.868927 155.821263 
L 293.193907 155.821263 
L 293.518886 155.447961 
L 293.843866 155.26131 
L 294.168845 155.447961 
L 294.493825 155.821263 
L 294.818804 156.007913 
L 295.143784 155.821263 
L 295.468763 155.354636 
L 295.793743 155.26131 
L 296.443702 156.194564 
L 296.768681 156.007913 
L 297.41864 154.794683 
L 297.74362 155.07466 
L 298.0686 155.727937 
L 298.393579 156.101239 
L 298.718559 155.821263 
L 299.043538 155.354636 
L 299.368518 155.26131 
L 299.693497 155.447961 
L 300.018477 156.007913 
L 300.343456 156.007913 
L 300.993415 155.447961 
L 301.318395 155.447961 
L 301.968354 155.914588 
L 302.293333 155.914588 
L 302.618313 155.354636 
L 302.943292 155.26131 
L 303.268272 155.354636 
L 303.593251 155.727937 
L 304.24321 155.821263 
L 304.56819 155.821263 
L 304.89317 155.541286 
L 305.218149 155.727937 
L 306.193088 155.634612 
L 306.843047 155.541286 
L 308.142965 155.541286 
L 308.792924 155.821263 
L 310.092842 155.541286 
L 310.742801 155.634612 
L 312.367699 155.634612 
L 312.692678 155.821263 
L 313.342637 155.541286 
L 313.667617 155.541286 
L 313.992596 155.821263 
L 314.642555 155.727937 
L 315.292514 155.447961 
L 316.267453 155.727937 
L 317.242391 155.541286 
L 317.567371 155.634612 
L 317.892351 156.007913 
L 318.867289 155.167985 
L 319.192269 155.447961 
L 319.517248 156.007913 
L 319.842228 156.101239 
L 320.492187 155.26131 
L 320.817166 155.354636 
L 321.142146 155.727937 
L 321.467125 155.914588 
L 322.442064 155.447961 
L 322.767043 155.447961 
L 323.092023 155.821263 
L 323.417002 155.727937 
L 323.741982 155.821263 
L 324.066962 155.634612 
L 326.016839 155.634612 
L 326.341818 155.447961 
L 327.316757 155.727937 
L 328.291695 155.541286 
L 328.616675 155.541286 
L 328.941654 155.727937 
L 329.591613 155.727937 
L 329.916593 155.541286 
L 331.86647 155.447961 
L 332.516429 155.167985 
L 333.166388 155.354636 
L 333.491368 155.821263 
L 334.141327 156.007913 
L 334.791286 155.354636 
L 335.116265 154.701358 
L 335.441245 154.701358 
L 336.416183 156.47454 
L 336.741163 156.101239 
L 337.391122 154.141406 
L 337.716102 154.234731 
L 338.041081 155.26131 
L 338.366061 156.661191 
L 338.69104 156.847842 
L 339.340999 154.141406 
L 339.665979 153.768104 
L 340.315938 156.661191 
L 340.640917 156.941167 
L 341.615856 153.768104 
L 341.940835 154.981334 
L 342.265815 156.661191 
L 342.590794 156.661191 
L 343.240753 154.141406 
L 343.565733 154.04808 
L 343.890713 155.541286 
L 344.215692 156.381215 
L 344.540672 156.007913 
L 344.865651 154.981334 
L 345.190631 154.421382 
L 345.51561 154.794683 
L 345.84059 155.541286 
L 346.165569 155.821263 
L 346.815528 154.794683 
L 347.140508 154.888009 
L 347.465487 155.634612 
L 347.790467 155.821263 
L 348.440426 154.701358 
L 348.765405 154.794683 
L 349.090385 155.541286 
L 349.415364 155.914588 
L 349.740344 155.541286 
L 350.065324 154.888009 
L 350.390303 154.701358 
L 351.040262 155.727937 
L 351.365242 155.821263 
L 352.015201 154.888009 
L 352.34018 154.981334 
L 352.66516 155.541286 
L 352.990139 155.727937 
L 353.315119 155.634612 
L 353.640098 155.07466 
L 353.965078 154.888009 
L 354.615037 155.541286 
L 354.940016 155.727937 
L 355.589975 154.794683 
L 355.914955 154.794683 
L 356.564914 155.914588 
L 356.889894 155.634612 
L 357.214873 155.07466 
L 357.539853 154.794683 
L 357.864832 155.167985 
L 358.189812 155.821263 
L 358.514791 155.914588 
L 358.839771 155.541286 
L 359.16475 154.981334 
L 359.48973 154.981334 
L 360.139689 155.821263 
L 360.464668 155.727937 
L 361.114627 154.794683 
L 361.439607 154.981334 
L 362.089566 155.727937 
L 362.414545 155.541286 
L 362.739525 154.981334 
L 363.064505 154.794683 
L 364.039443 155.821263 
L 364.689402 155.07466 
L 365.014382 154.888009 
L 365.664341 155.634612 
L 365.98932 155.634612 
L 366.639279 154.794683 
L 366.964259 154.888009 
L 367.289238 155.447961 
L 367.614218 155.727937 
L 367.939197 155.541286 
L 368.264177 155.167985 
L 368.589156 154.981334 
L 368.914136 155.167985 
L 369.239115 155.541286 
L 369.564095 155.727937 
L 369.889075 155.541286 
L 370.214054 154.981334 
L 370.539034 154.981334 
L 371.188993 155.541286 
L 371.513972 155.447961 
L 371.838952 155.167985 
L 372.488911 155.07466 
L 373.13887 155.541286 
L 374.113808 155.354636 
L 374.763767 155.447961 
L 376.388665 155.447961 
L 376.713645 155.26131 
L 377.688583 155.26131 
L 378.013563 155.447961 
L 378.663522 155.354636 
L 379.313481 155.447961 
L 379.63846 155.447961 
L 379.96344 155.26131 
L 380.613399 155.26131 
L 380.938378 155.727937 
L 381.263358 155.914588 
L 381.588337 155.634612 
L 381.913317 155.167985 
L 382.238296 155.07466 
L 382.888256 155.727937 
L 383.213235 155.914588 
L 383.863194 155.07466 
L 384.188174 155.167985 
L 384.838133 156.007913 
L 385.163112 155.914588 
L 386.138051 155.167985 
L 386.78801 155.914588 
L 387.112989 155.914588 
L 388.087928 155.07466 
L 388.737887 155.821263 
L 389.062867 155.821263 
L 389.387846 155.447961 
L 389.712826 155.26131 
L 390.037805 155.354636 
L 390.687764 156.101239 
L 391.012744 155.821263 
L 391.337723 155.354636 
L 391.662703 155.167985 
L 391.987682 155.541286 
L 392.312662 156.194564 
L 392.637641 156.007913 
L 393.2876 154.888009 
L 393.61258 155.07466 
L 393.937559 155.821263 
L 394.262539 156.194564 
L 394.587518 155.914588 
L 394.912498 155.354636 
L 395.237477 155.167985 
L 395.887437 156.007913 
L 396.212416 156.007913 
L 396.862375 155.354636 
L 397.187355 155.541286 
L 397.512334 155.914588 
L 397.837314 156.007913 
L 398.162293 155.821263 
L 398.487273 155.447961 
L 398.487273 155.447961 
" clip-path="url(#p1f3d1726d0)" style="fill: none; stroke: #1f77b4; stroke-width: 1.5; stroke-linecap: square"/>
   </g>
   <g id="line2d_17">
    <path d="M 73.832727 295.41334 
L 76.107584 295.441337 
L 398.487273 295.366677 
L 398.487273 295.366677 
" clip-path="url(#p1f3d1726d0)" style="fill: none; stroke: #ff7f0e; stroke-width: 1.5; stroke-linecap: square"/>
   </g>
   <g id="line2d_18">
    <path d="M 73.832727 55.061206 
L 74.157707 55.247857 
L 74.482686 55.173196 
L 75.132645 54.557249 
L 76.107584 54.071957 
L 76.757543 53.60533 
L 77.082523 53.754651 
L 77.732482 54.426593 
L 78.382441 54.183947 
L 78.70742 54.333268 
L 79.357379 55.322517 
L 79.682359 55.397177 
L 80.332318 54.650574 
L 80.657297 54.594579 
L 81.307256 54.967881 
L 81.632236 54.837225 
L 82.282195 54.221278 
L 82.607174 54.239943 
L 82.932154 54.482589 
L 83.257133 54.557249 
L 84.232072 54.183947 
L 84.557052 54.445259 
L 84.882031 54.874555 
L 85.207011 55.061206 
L 86.181949 54.557249 
L 87.156888 54.93055 
L 87.806847 54.407928 
L 88.131826 54.463924 
L 88.781785 54.911885 
L 89.106765 54.70657 
L 89.756724 54.015962 
L 91.056642 54.426593 
L 91.381622 54.370598 
L 91.706601 54.650574 
L 92.35656 55.434507 
L 92.68154 55.453173 
L 93.656478 54.631909 
L 94.306437 54.445259 
L 94.956396 53.885306 
L 95.281376 53.829311 
L 95.606355 54.015962 
L 96.581294 54.81856 
L 97.556233 55.415842 
L 97.881212 55.359847 
L 98.856151 54.557249 
L 99.50611 54.482589 
L 100.481048 54.090622 
L 100.806028 54.277273 
L 101.131007 54.594579 
L 101.455987 54.725235 
L 102.105946 54.389263 
L 102.430925 54.538584 
L 103.080885 55.359847 
L 103.405864 55.210527 
L 104.055823 54.575914 
L 104.380803 54.687904 
L 104.705782 54.949216 
L 105.030762 54.93055 
L 106.0057 54.071957 
L 106.980639 54.519919 
L 107.305618 54.445259 
L 107.630598 54.557249 
L 108.280557 55.247857 
L 108.605536 55.191862 
L 109.255495 54.7439 
L 110.230434 55.135866 
L 110.880393 54.202613 
L 111.205373 54.202613 
L 111.530352 54.575914 
L 111.855332 54.762565 
L 112.505291 54.127952 
L 112.83027 54.127952 
L 113.480229 54.949216 
L 113.805209 54.986546 
L 114.130188 54.85589 
L 114.455168 54.89322 
L 115.105127 55.546498 
L 115.430106 55.471838 
L 116.080066 54.594579 
L 116.405045 54.351933 
L 117.055004 54.463924 
L 117.704963 53.997297 
L 118.029943 53.978632 
L 118.354922 54.221278 
L 119.004881 55.117201 
L 119.329861 55.303852 
L 120.629779 54.81856 
L 120.954758 54.762565 
L 121.279738 54.482589 
L 121.929697 53.698656 
L 122.254676 53.810646 
L 122.904636 54.463924 
L 123.879574 55.005211 
L 124.204554 55.135866 
L 124.529533 55.079871 
L 125.504472 53.754651 
L 125.829451 53.698656 
L 126.47941 53.922636 
L 126.80439 53.903971 
L 127.129369 54.034627 
L 128.104308 55.079871 
L 128.754267 55.023876 
L 129.729206 54.967881 
L 130.379165 54.725235 
L 131.029124 54.687904 
L 132.004062 54.015962 
L 132.654021 54.557249 
L 132.979001 54.519919 
L 133.62896 53.866641 
L 133.953939 54.053292 
L 134.603898 55.117201 
L 134.928878 55.191862 
L 135.578837 54.874555 
L 136.228796 55.434507 
L 136.553776 55.415842 
L 136.878755 54.967881 
L 137.203735 54.277273 
L 137.528714 53.885306 
L 137.853694 53.997297 
L 138.178673 54.333268 
L 138.503653 54.426593 
L 139.153612 53.922636 
L 139.478591 53.959967 
L 140.45353 55.117201 
L 141.103489 54.949216 
L 141.428468 55.061206 
L 142.078428 55.415842 
L 142.403407 55.210527 
L 143.053366 54.538584 
L 143.378346 54.407928 
L 144.028305 54.351933 
L 144.678264 53.941301 
L 145.003243 53.941301 
L 145.978182 54.650574 
L 147.2781 55.341182 
L 148.253038 55.079871 
L 149.227977 54.314603 
L 150.202916 54.519919 
L 150.527895 54.407928 
L 150.852875 54.127952 
L 151.177854 53.997297 
L 151.502834 54.221278 
L 152.152793 55.191862 
L 152.477772 55.098536 
L 152.802752 54.631909 
L 153.127731 54.482589 
L 154.10267 55.621158 
L 154.427649 55.341182 
L 155.077609 54.557249 
L 155.402588 54.613244 
L 155.727568 54.799895 
L 156.052547 54.650574 
L 156.702506 53.885306 
L 157.027486 53.978632 
L 157.677445 54.837225 
L 158.002424 54.874555 
L 158.327404 54.687904 
L 158.652383 54.687904 
L 159.627322 55.471838 
L 159.952301 55.154531 
L 160.277281 54.669239 
L 160.60226 54.501254 
L 161.252219 55.061206 
L 161.577199 55.061206 
L 162.227158 54.258608 
L 162.552138 54.127952 
L 163.527076 54.669239 
L 164.177035 54.631909 
L 166.126912 55.247857 
L 166.451892 55.042541 
L 167.42683 54.053292 
L 167.75181 53.978632 
L 168.401769 54.127952 
L 169.051728 54.538584 
L 170.026667 55.247857 
L 170.351646 55.173196 
L 171.326585 54.426593 
L 171.976544 54.090622 
L 172.626503 53.586665 
L 172.951482 53.754651 
L 173.601441 54.370598 
L 174.57638 54.314603 
L 175.226339 55.303852 
L 175.551319 55.378512 
L 176.526257 54.575914 
L 177.176216 54.986546 
L 177.501196 54.81856 
L 178.151155 54.221278 
L 178.801114 54.426593 
L 179.126093 54.538584 
L 180.101032 54.165282 
L 181.075971 55.098536 
L 182.050909 54.501254 
L 182.700868 54.911885 
L 183.025848 54.93055 
L 183.675807 54.407928 
L 184.000786 54.389263 
L 184.650745 54.93055 
L 184.975725 54.725235 
L 185.300704 54.239943 
L 185.625684 53.978632 
L 185.950663 54.109287 
L 186.275643 54.407928 
L 186.925602 54.445259 
L 187.250581 54.407928 
L 187.575561 54.650574 
L 188.22552 55.471838 
L 188.5505 55.471838 
L 189.525438 54.650574 
L 190.175397 54.445259 
L 190.825356 53.903971 
L 191.150336 53.847976 
L 191.800295 54.333268 
L 192.450254 54.85589 
L 193.425192 55.397177 
L 193.750172 55.341182 
L 195.05009 54.538584 
L 195.700049 54.295938 
L 196.025029 54.109287 
L 196.350008 54.071957 
L 197.324947 54.7439 
L 197.974906 54.407928 
L 198.299885 54.575914 
L 198.949844 55.341182 
L 199.274824 55.247857 
L 199.599803 54.81856 
L 199.924783 54.575914 
L 200.249762 54.669239 
L 200.574742 54.911885 
L 200.899722 54.911885 
L 201.549681 54.202613 
L 201.87466 54.090622 
L 202.849599 54.519919 
L 203.174578 54.482589 
L 203.499558 54.557249 
L 204.149517 55.266522 
L 204.474496 55.210527 
L 205.124455 54.762565 
L 205.774414 55.173196 
L 206.099394 55.135866 
L 206.749353 54.221278 
L 207.074333 54.258608 
L 207.724292 54.7439 
L 208.374251 54.146617 
L 208.69923 54.127952 
L 209.349189 54.949216 
L 209.674169 55.005211 
L 209.999148 54.837225 
L 210.324128 54.874555 
L 210.974087 55.546498 
L 211.299066 55.434507 
L 211.949025 54.557249 
L 212.274005 54.407928 
L 212.923964 54.482589 
L 213.573923 54.034627 
L 213.898903 54.015962 
L 214.223882 54.258608 
L 214.873841 55.173196 
L 215.198821 55.322517 
L 215.5238 55.191862 
L 216.173759 54.799895 
L 216.498739 54.81856 
L 216.823718 54.725235 
L 217.148698 54.463924 
L 217.798657 53.717321 
L 218.123636 53.829311 
L 218.773595 54.519919 
L 220.073514 55.191862 
L 220.398493 55.061206 
L 221.373432 53.754651 
L 221.698411 53.717321 
L 222.34837 53.978632 
L 222.998329 54.053292 
L 223.973268 55.117201 
L 224.623227 55.023876 
L 225.598165 54.967881 
L 226.248124 54.725235 
L 226.898084 54.669239 
L 227.873022 54.071957 
L 228.198002 54.258608 
L 228.522981 54.575914 
L 228.847961 54.519919 
L 229.49792 53.885306 
L 229.822899 54.071957 
L 230.472858 55.135866 
L 230.797838 55.173196 
L 231.122817 54.967881 
L 231.447797 54.911885 
L 232.097756 55.397177 
L 232.422735 55.415842 
L 233.397674 53.885306 
L 233.722654 53.997297 
L 234.047633 54.295938 
L 234.372613 54.426593 
L 235.022572 53.903971 
L 235.347551 53.922636 
L 235.99751 54.874555 
L 236.32249 55.098536 
L 237.297428 55.042541 
L 237.947387 55.397177 
L 238.272367 55.210527 
L 238.922326 54.519919 
L 239.247305 54.407928 
L 239.572285 54.426593 
L 239.897265 54.333268 
L 240.547224 53.903971 
L 240.872203 53.959967 
L 243.14706 55.322517 
L 243.797019 55.229192 
L 244.121998 55.079871 
L 245.096937 54.333268 
L 245.421916 54.370598 
L 246.071876 54.575914 
L 247.046814 54.015962 
L 247.371794 54.239943 
L 248.021753 55.191862 
L 248.346732 55.079871 
L 248.671712 54.650574 
L 248.996691 54.482589 
L 249.97163 55.621158 
L 250.296609 55.303852 
L 250.621589 54.799895 
L 250.946568 54.538584 
L 251.596527 54.78123 
L 251.921507 54.669239 
L 252.571466 53.866641 
L 252.896446 53.941301 
L 253.546405 54.874555 
L 253.871384 54.911885 
L 254.196364 54.669239 
L 254.521343 54.687904 
L 255.496282 55.453173 
L 256.47122 54.538584 
L 257.446159 55.042541 
L 258.096118 54.239943 
L 258.421097 54.127952 
L 259.396036 54.669239 
L 260.045995 54.669239 
L 261.995872 55.247857 
L 262.320852 55.061206 
L 263.29579 54.034627 
L 263.945749 54.034627 
L 264.595708 54.295938 
L 265.895627 55.229192 
L 266.220606 55.135866 
L 267.195545 54.389263 
L 267.845504 54.090622 
L 268.495463 53.568 
L 268.820442 53.735986 
L 269.470401 54.426593 
L 270.44534 54.277273 
L 271.095299 55.322517 
L 271.420278 55.397177 
L 272.070238 54.669239 
L 272.395217 54.575914 
L 273.045176 55.023876 
L 273.370156 54.85589 
L 274.020115 54.221278 
L 274.345094 54.277273 
L 274.995053 54.557249 
L 275.969992 54.183947 
L 276.294971 54.463924 
L 276.619951 54.89322 
L 276.94493 55.079871 
L 277.26991 54.93055 
L 277.594889 54.613244 
L 277.919869 54.538584 
L 278.894808 54.93055 
L 279.544767 54.426593 
L 279.869746 54.445259 
L 280.519705 54.93055 
L 280.844685 54.70657 
L 281.494644 54.015962 
L 282.469582 54.538584 
L 282.794562 54.407928 
L 283.119541 54.407928 
L 283.444521 54.687904 
L 284.09448 55.434507 
L 284.419459 55.453173 
L 285.394398 54.613244 
L 286.044357 54.407928 
L 287.019296 53.829311 
L 287.669255 54.351933 
L 288.969173 55.266522 
L 289.294152 55.378512 
L 289.619132 55.322517 
L 290.59407 54.557249 
L 291.244029 54.463924 
L 292.218968 54.071957 
L 293.193907 54.725235 
L 293.843866 54.426593 
L 294.168845 54.594579 
L 294.818804 55.341182 
L 295.143784 55.229192 
L 295.793743 54.575914 
L 296.118722 54.687904 
L 296.443702 54.93055 
L 296.768681 54.93055 
L 297.41864 54.202613 
L 297.74362 54.127952 
L 298.718559 54.557249 
L 299.043538 54.482589 
L 299.368518 54.557249 
L 300.018477 55.229192 
L 300.343456 55.210527 
L 300.993415 54.7439 
L 301.968354 55.117201 
L 302.618313 54.202613 
L 302.943292 54.239943 
L 303.268272 54.613244 
L 303.593251 54.7439 
L 304.24321 54.127952 
L 304.56819 54.127952 
L 305.218149 54.93055 
L 305.543129 54.986546 
L 305.868108 54.85589 
L 306.193088 54.874555 
L 306.843047 55.527833 
L 307.168026 55.434507 
L 307.817985 54.538584 
L 308.142965 54.389263 
L 308.792924 54.426593 
L 309.442883 53.997297 
L 309.767862 53.959967 
L 310.092842 54.221278 
L 310.742801 55.135866 
L 311.067781 55.341182 
L 312.042719 54.81856 
L 312.692678 54.7439 
L 313.667617 53.735986 
L 313.992596 53.791981 
L 314.642555 54.538584 
L 315.942473 55.173196 
L 316.267453 55.098536 
L 317.242391 53.754651 
L 317.567371 53.735986 
L 318.21733 53.903971 
L 318.54231 53.922636 
L 318.867289 54.053292 
L 319.842228 55.117201 
L 320.167207 55.117201 
L 320.492187 55.005211 
L 321.467125 55.005211 
L 322.117084 54.725235 
L 322.767043 54.669239 
L 323.741982 54.034627 
L 324.391941 54.557249 
L 324.716921 54.519919 
L 325.36688 53.866641 
L 325.691859 54.034627 
L 326.341818 55.135866 
L 326.666798 55.173196 
L 326.991777 54.93055 
L 327.316757 54.89322 
L 327.966716 55.453173 
L 328.291695 55.397177 
L 329.266634 53.922636 
L 329.591613 54.015962 
L 329.916593 54.333268 
L 330.241572 54.407928 
L 330.891532 53.866641 
L 331.216511 53.959967 
L 332.19145 55.117201 
L 332.841409 54.949216 
L 333.816347 55.397177 
L 334.141327 55.210527 
L 334.791286 54.501254 
L 335.766224 54.333268 
L 336.416183 53.922636 
L 336.741163 53.941301 
L 337.716102 54.650574 
L 339.01602 55.359847 
L 339.665979 55.247857 
L 340.315938 54.762565 
L 340.965897 54.333268 
L 341.940835 54.538584 
L 342.265815 54.407928 
L 342.590794 54.127952 
L 342.915774 54.015962 
L 343.240753 54.239943 
L 343.890713 55.210527 
L 344.215692 55.079871 
L 344.540672 54.687904 
L 344.865651 54.557249 
L 345.190631 54.89322 
L 345.51561 55.453173 
L 345.84059 55.658488 
L 346.165569 55.341182 
L 346.490549 54.799895 
L 346.815528 54.519919 
L 347.465487 54.837225 
L 347.790467 54.650574 
L 348.440426 53.903971 
L 348.765405 54.015962 
L 349.415364 54.85589 
L 349.740344 54.911885 
L 350.065324 54.725235 
L 350.390303 54.70657 
L 351.040262 55.378512 
L 351.365242 55.453173 
L 352.015201 54.650574 
L 352.34018 54.538584 
L 352.990139 55.042541 
L 353.315119 55.042541 
L 353.965078 54.258608 
L 354.290057 54.146617 
L 355.264996 54.70657 
L 355.914955 54.631909 
L 356.889894 55.005211 
L 357.864832 55.247857 
L 358.189812 55.042541 
L 359.16475 54.053292 
L 359.814709 54.015962 
L 360.464668 54.333268 
L 361.114627 54.799895 
L 361.764586 55.247857 
L 362.089566 55.135866 
L 363.064505 54.426593 
L 363.714464 54.109287 
L 364.039443 53.773316 
L 364.364423 53.60533 
L 364.689402 53.754651 
L 365.339361 54.426593 
L 365.664341 54.370598 
L 365.98932 54.183947 
L 366.3143 54.333268 
L 366.964259 55.322517 
L 367.289238 55.359847 
L 367.939197 54.687904 
L 368.264177 54.631909 
L 368.914136 54.986546 
L 369.239115 54.837225 
L 369.889075 54.221278 
L 370.214054 54.239943 
L 370.864013 54.557249 
L 371.838952 54.183947 
L 372.81389 55.061206 
L 373.788829 54.519919 
L 374.438788 54.89322 
L 374.763767 54.911885 
L 375.413726 54.407928 
L 375.738706 54.463924 
L 376.388665 54.874555 
L 376.713645 54.669239 
L 377.363604 53.959967 
L 377.688583 54.109287 
L 378.013563 54.389263 
L 378.338542 54.519919 
L 378.988501 54.389263 
L 379.313481 54.631909 
L 379.96344 55.434507 
L 380.288419 55.453173 
L 381.263358 54.631909 
L 381.913317 54.407928 
L 382.563276 53.885306 
L 382.888256 53.810646 
L 383.538215 54.333268 
L 384.188174 54.85589 
L 385.163112 55.415842 
L 385.488092 55.341182 
L 386.46303 54.575914 
L 388.087928 54.034627 
L 389.062867 54.7439 
L 389.712826 54.426593 
L 390.037805 54.594579 
L 390.687764 55.359847 
L 391.012744 55.210527 
L 391.662703 54.594579 
L 391.987682 54.669239 
L 392.312662 54.911885 
L 392.637641 54.93055 
L 393.2876 54.183947 
L 393.61258 54.109287 
L 394.262539 54.501254 
L 395.237477 54.575914 
L 395.887437 55.247857 
L 396.212416 55.191862 
L 396.537396 54.911885 
L 396.862375 54.78123 
L 397.187355 54.911885 
L 397.512334 55.173196 
L 397.837314 55.098536 
L 398.487273 54.183947 
L 398.487273 54.183947 
" clip-path="url(#p1f3d1726d0)" style="fill: none; stroke: #2ca02c; stroke-width: 1.5; stroke-linecap: square"/>
   </g>
   <g id="patch_3">
    <path d="M 57.6 307.584 
L 57.6 41.472 
" style="fill: none; stroke: #000000; stroke-width: 0.8; stroke-linejoin: miter; stroke-linecap: square"/>
   </g>
   <g id="patch_4">
    <path d="M 414.72 307.584 
L 414.72 41.472 
" style="fill: none; stroke: #000000; stroke-width: 0.8; stroke-linejoin: miter; stroke-linecap: square"/>
   </g>
   <g id="patch_5">
    <path d="M 57.6 307.584 
L 414.72 307.584 
" style="fill: none; stroke: #000000; stroke-width: 0.8; stroke-linejoin: miter; stroke-linecap: square"/>
   </g>
   <g id="patch_6">
    <path d="M 57.6 41.472 
L 414.72 41.472 
" style="fill: none; stroke: #000000; stroke-width: 0.8; stroke-linejoin: miter; stroke-linecap: square"/>
   </g>
  </g>
 </g>
 <defs>
  <clipPath id="p1f3d1726d0">
   <rect x="57.6" y="41.472" width="357.12" height="266.112"/>
  </clipPath>
 </defs>
</svg>
