<?xml version="1.0" encoding="utf-8" standalone="no"?>
<!DOCTYPE svg PUBLIC "-//W3C//DTD SVG 1.1//EN"
  "http://www.w3.org/Graphics/SVG/1.1/DTD/svg11.dtd">
<svg xmlns:xlink="http://www.w3.org/1999/xlink" width="460.8pt" height="345.6pt" viewBox="0 0 460.8 345.6" xmlns="http://www.w3.org/2000/svg" version="1.1">
 <metadata>
  <rdf:RDF xmlns:dc="http://purl.org/dc/elements/1.1/" xmlns:cc="http://creativecommons.org/ns#" xmlns:rdf="http://www.w3.org/1999/02/22-rdf-syntax-ns#">
   <cc:Work>
    <dc:type rdf:resource="http://purl.org/dc/dcmitype/StillImage"/>
    <dc:date>2025-12-22T09:39:26.814229</dc:date>
    <dc:format>image/svg+xml</dc:format>
    <dc:creator>
     <cc:Agent>
      <dc:title>Matplotlib v3.10.8, https://matplotlib.org/</dc:title>
     </cc:Agent>
    </dc:creator>
   </cc:Work>
  </rdf:RDF>
 </metadata>
 <defs>
  <style type="text/css">*{stroke-linejoin: round; stroke-linecap: butt}</style>
 </defs>
 <g id="figure_1">
  <g id="patch_1">
   <path d="M 0 345.6 
L 460.8 345.6 
L 460.8 0 
L 0 0 
z
" style="fill: #ffffff"/>
  </g>
  <g id="axes_1">
   <g id="patch_2">
    <path d="M 57.6 307.584 
L 414.72 307.584 
L 414.72 41.472 
L 57.6 41.472 
z
" style="fill: #ffffff"/>
   </g>
   <g id="matplotlib.axis_1">
    <g id="xtick_1">
     <g id="line2d_1">
      <defs>
       <path id="m08ba9f9f67" d="M 0 0 
L 0 3.5 
" style="stroke: #000000; stroke-width: 0.8"/>
      </defs>
      <g>
       <use xlink:href="#m08ba9f9f67" x="73.832727" y="307.584" style="stroke: #000000; stroke-width: 0.8"/>
      </g>
     </g>
     <g id="text_1">
      <!-- 0 -->
      <g transform="translate(70.651477 322.182437) scale(0.1 -0.1)">
       <defs>
        <path id="DejaVuSans-30" d="M 2034 4250 
Q 1547 4250 1301 3770 
Q 1056 3291 1056 2328 
Q 1056 1369 1301 889 
Q 1547 409 2034 409 
Q 2525 409 2770 889 
Q 3016 1369 3016 2328 
Q 3016 3291 2770 3770 
Q 2525 4250 2034 4250 
z
M 2034 4750 
Q 2819 4750 3233 4129 
Q 3647 3509 3647 2328 
Q 3647 1150 3233 529 
Q 2819 -91 2034 -91 
Q 1250 -91 836 529 
Q 422 1150 422 2328 
Q 422 3509 836 4129 
Q 1250 4750 2034 4750 
z
" transform="scale(0.015625)"/>
       </defs>
       <use xlink:href="#DejaVuSans-30"/>
      </g>
     </g>
    </g>
    <g id="xtick_2">
     <g id="line2d_2">
      <g>
       <use xlink:href="#m08ba9f9f67" x="138.828632" y="307.584" style="stroke: #000000; stroke-width: 0.8"/>
      </g>
     </g>
     <g id="text_2">
      <!-- 1 -->
      <g transform="translate(135.647382 322.182437) scale(0.1 -0.1)">
       <defs>
        <path id="DejaVuSans-31" d="M 794 531 
L 1825 531 
L 1825 4091 
L 703 3866 
L 703 4441 
L 1819 4666 
L 2450 4666 
L 2450 531 
L 3481 531 
L 3481 0 
L 794 0 
L 794 531 
z
" transform="scale(0.015625)"/>
       </defs>
       <use xlink:href="#DejaVuSans-31"/>
      </g>
     </g>
    </g>
    <g id="xtick_3">
     <g id="line2d_3">
      <g>
       <use xlink:href="#m08ba9f9f67" x="203.824537" y="307.584" style="stroke: #000000; stroke-width: 0.8"/>
      </g>
     </g>
     <g id="text_3">
      <!-- 2 -->
      <g transform="translate(200.643287 322.182437) scale(0.1 -0.1)">
       <defs>
        <path id="DejaVuSans-32" d="M 1228 531 
L 3431 531 
L 3431 0 
L 469 0 
L 469 531 
Q 828 903 1448 1529 
Q 2069 2156 2228 2338 
Q 2531 2678 2651 2914 
Q 2772 3150 2772 3378 
Q 2772 3750 2511 3984 
Q 2250 4219 1831 4219 
Q 1534 4219 1204 4116 
Q 875 4013 500 3803 
L 500 4441 
Q 881 4594 1212 4672 
Q 1544 4750 1819 4750 
Q 2544 4750 2975 4387 
Q 3406 4025 3406 3419 
Q 3406 3131 3298 2873 
Q 3191 2616 2906 2266 
Q 2828 2175 2409 1742 
Q 1991 1309 1228 531 
z
" transform="scale(0.015625)"/>
       </defs>
       <use xlink:href="#DejaVuSans-32"/>
      </g>
     </g>
    </g>
    <g id="xtick_4">
     <g id="line2d_4">
      <g>
       <use xlink:href="#m08ba9f9f67" x="268.820442" y="307.584" style="stroke: #000000; stroke-width: 0.8"/>
      </g>
     </g>
     <g id="text_4">
      <!-- 3 -->
      <g transform="translate(265.639192 322.182437) scale(0.1 -0.1)">
       <defs>
        <path id="DejaVuSans-33" d="M 2597 2516 
Q 3050 2419 3304 2112 
Q 3559 1806 3559 1356 
Q 3559 666 3084 287 
Q 2609 -91 1734 -91 
Q 1441 -91 1130 -33 
Q 819 25 488 141 
L 488 750 
Q 750 597 1062 519 
Q 1375 441 1716 441 
Q 2309 441 2620 675 
Q 2931 909 2931 1356 
Q 2931 1769 2642 2001 
Q 2353 2234 1838 2234 
L 1294 2234 
L 1294 2753 
L 1863 2753 
Q 2328 2753 2575 2939 
Q 2822 3125 2822 3475 
Q 2822 3834 2567 4026 
Q 2313 4219 1838 4219 
Q 1578 4219 1281 4162 
Q 984 4106 628 3988 
L 628 4550 
Q 988 4650 1302 4700 
Q 1616 4750 1894 4750 
Q 2613 4750 3031 4423 
Q 3450 4097 3450 3541 
Q 3450 3153 3228 2886 
Q 3006 2619 2597 2516 
z
" transform="scale(0.015625)"/>
       </defs>
       <use xlink:href="#DejaVuSans-33"/>
      </g>
     </g>
    </g>
    <g id="xtick_5">
     <g id="line2d_5">
      <g>
       <use xlink:href="#m08ba9f9f67" x="333.816347" y="307.584" style="stroke: #000000; stroke-width: 0.8"/>
      </g>
     </g>
     <g id="text_5">
      <!-- 4 -->
      <g transform="translate(330.635097 322.182437) scale(0.1 -0.1)">
       <defs>
        <path id="DejaVuSans-34" d="M 2419 4116 
L 825 1625 
L 2419 1625 
L 2419 4116 
z
M 2253 4666 
L 3047 4666 
L 3047 1625 
L 3713 1625 
L 3713 1100 
L 3047 1100 
L 3047 0 
L 2419 0 
L 2419 1100 
L 313 1100 
L 313 1709 
L 2253 4666 
z
" transform="scale(0.015625)"/>
       </defs>
       <use xlink:href="#DejaVuSans-34"/>
      </g>
     </g>
    </g>
    <g id="xtick_6">
     <g id="line2d_6">
      <g>
       <use xlink:href="#m08ba9f9f67" x="398.812252" y="307.584" style="stroke: #000000; stroke-width: 0.8"/>
      </g>
     </g>
     <g id="text_6">
      <!-- 5 -->
      <g transform="translate(395.631002 322.182437) scale(0.1 -0.1)">
       <defs>
        <path id="DejaVuSans-35" d="M 691 4666 
L 3169 4666 
L 3169 4134 
L 1269 4134 
L 1269 2991 
Q 1406 3038 1543 3061 
Q 1681 3084 1819 3084 
Q 2600 3084 3056 2656 
Q 3513 2228 3513 1497 
Q 3513 744 3044 326 
Q 2575 -91 1722 -91 
Q 1428 -91 1123 -41 
Q 819 9 494 109 
L 494 744 
Q 775 591 1075 516 
Q 1375 441 1709 441 
Q 2250 441 2565 725 
Q 2881 1009 2881 1497 
Q 2881 1984 2565 2268 
Q 2250 2553 1709 2553 
Q 1456 2553 1204 2497 
Q 953 2441 691 2322 
L 691 4666 
z
" transform="scale(0.015625)"/>
       </defs>
       <use xlink:href="#DejaVuSans-35"/>
      </g>
     </g>
    </g>
    <g id="text_7">
     <!-- 1e−7 -->
     <g transform="translate(387.462188 334.860562) scale(0.1 -0.1)">
      <defs>
       <path id="DejaVuSans-65" d="M 3597 1894 
L 3597 1613 
L 953 1613 
Q 991 1019 1311 708 
Q 1631 397 2203 397 
Q 2534 397 2845 478 
Q 3156 559 3463 722 
L 3463 178 
Q 3153 47 2828 -22 
Q 2503 -91 2169 -91 
Q 1331 -91 842 396 
Q 353 884 353 1716 
Q 353 2575 817 3079 
Q 1281 3584 2069 3584 
Q 2775 3584 3186 3129 
Q 3597 2675 3597 1894 
z
M 3022 2063 
Q 3016 2534 2758 2815 
Q 2500 3097 2075 3097 
Q 1594 3097 1305 2825 
Q 1016 2553 972 2059 
L 3022 2063 
z
" transform="scale(0.015625)"/>
       <path id="DejaVuSans-2212" d="M 678 2272 
L 4684 2272 
L 4684 1741 
L 678 1741 
L 678 2272 
z
" transform="scale(0.015625)"/>
       <path id="DejaVuSans-37" d="M 525 4666 
L 3525 4666 
L 3525 4397 
L 1831 0 
L 1172 0 
L 2766 4134 
L 525 4134 
L 525 4666 
z
" transform="scale(0.015625)"/>
      </defs>
      <use xlink:href="#DejaVuSans-31"/>
      <use xlink:href="#DejaVuSans-65" transform="translate(63.623047 0)"/>
      <use xlink:href="#DejaVuSans-2212" transform="translate(125.146484 0)"/>
      <use xlink:href="#DejaVuSans-37" transform="translate(208.935547 0)"/>
     </g>
    </g>
   </g>
   <g id="matplotlib.axis_2">
    <g id="ytick_1">
     <g id="line2d_7">
      <defs>
       <path id="mcd109d2ac4" d="M 0 0 
L -3.5 0 
" style="stroke: #000000; stroke-width: 0.8"/>
      </defs>
      <g>
       <use xlink:href="#mcd109d2ac4" x="57.6" y="303.73077" style="stroke: #000000; stroke-width: 0.8"/>
      </g>
     </g>
     <g id="text_8">
      <!-- 0 -->
      <g transform="translate(44.2375 307.529989) scale(0.1 -0.1)">
       <use xlink:href="#DejaVuSans-30"/>
      </g>
     </g>
    </g>
    <g id="ytick_2">
     <g id="line2d_8">
      <g>
       <use xlink:href="#mcd109d2ac4" x="57.6" y="247.882607" style="stroke: #000000; stroke-width: 0.8"/>
      </g>
     </g>
     <g id="text_9">
      <!-- 10 -->
      <g transform="translate(37.875 251.681826) scale(0.1 -0.1)">
       <use xlink:href="#DejaVuSans-31"/>
       <use xlink:href="#DejaVuSans-30" transform="translate(63.623047 0)"/>
      </g>
     </g>
    </g>
    <g id="ytick_3">
     <g id="line2d_9">
      <g>
       <use xlink:href="#mcd109d2ac4" x="57.6" y="192.034444" style="stroke: #000000; stroke-width: 0.8"/>
      </g>
     </g>
     <g id="text_10">
      <!-- 20 -->
      <g transform="translate(37.875 195.833663) scale(0.1 -0.1)">
       <use xlink:href="#DejaVuSans-32"/>
       <use xlink:href="#DejaVuSans-30" transform="translate(63.623047 0)"/>
      </g>
     </g>
    </g>
    <g id="ytick_4">
     <g id="line2d_10">
      <g>
       <use xlink:href="#mcd109d2ac4" x="57.6" y="136.186281" style="stroke: #000000; stroke-width: 0.8"/>
      </g>
     </g>
     <g id="text_11">
      <!-- 30 -->
      <g transform="translate(37.875 139.9855) scale(0.1 -0.1)">
       <use xlink:href="#DejaVuSans-33"/>
       <use xlink:href="#DejaVuSans-30" transform="translate(63.623047 0)"/>
      </g>
     </g>
    </g>
    <g id="ytick_5">
     <g id="line2d_11">
      <g>
       <use xlink:href="#mcd109d2ac4" x="57.6" y="80.338119" style="stroke: #000000; stroke-width: 0.8"/>
      </g>
     </g>
     <g id="text_12">
      <!-- 40 -->
      <g transform="translate(37.875 84.137337) scale(0.1 -0.1)">
       <use xlink:href="#DejaVuSans-34"/>
       <use xlink:href="#DejaVuSans-30" transform="translate(63.623047 0)"/>
      </g>
     </g>
    </g>
   </g>
   <g id="line2d_12">
    <path d="M 73.832727 164.552959 
L 74.157707 164.90201 
L 74.482686 165.425587 
L 74.807666 165.425587 
L 75.457625 164.552959 
L 75.782604 164.552959 
L 76.107584 165.163799 
L 76.432563 165.338324 
L 76.757543 165.251061 
L 77.082523 164.727485 
L 77.407502 164.552959 
L 77.732482 164.814748 
L 78.057461 165.251061 
L 78.382441 165.338324 
L 79.0324 164.378434 
L 79.357379 164.291171 
L 80.007338 165.338324 
L 80.332318 165.163799 
L 80.982277 164.552959 
L 81.957215 165.338324 
L 82.932154 164.640222 
L 83.907093 165.076536 
L 84.557052 164.640222 
L 85.53199 165.076536 
L 86.506929 164.90201 
L 87.156888 165.163799 
L 87.481867 164.989273 
L 87.806847 165.076536 
L 88.131826 164.90201 
L 88.781785 164.989273 
L 89.756724 164.814748 
L 91.056642 165.076536 
L 91.381622 164.989273 
L 91.706601 165.163799 
L 92.68154 164.989273 
L 93.331499 165.163799 
L 93.656478 165.425587 
L 93.981458 165.425587 
L 94.306437 164.90201 
L 94.631417 164.727485 
L 94.956396 164.90201 
L 95.281376 165.251061 
L 95.606355 165.338324 
L 96.581294 164.640222 
L 97.556233 165.600113 
L 98.531171 164.727485 
L 99.18113 165.338324 
L 99.50611 165.425587 
L 100.481048 164.814748 
L 100.806028 164.90201 
L 101.131007 165.251061 
L 101.455987 165.338324 
L 102.105946 164.989273 
L 102.430925 164.989273 
L 102.755905 165.338324 
L 103.080885 165.51285 
L 103.405864 165.425587 
L 104.055823 164.727485 
L 104.705782 165.51285 
L 105.030762 165.600113 
L 105.680721 164.552959 
L 106.0057 164.727485 
L 106.655659 165.600113 
L 106.980639 165.425587 
L 107.630598 164.727485 
L 107.955577 164.989273 
L 108.280557 165.51285 
L 108.605536 165.687375 
L 109.255495 164.989273 
L 109.580475 164.989273 
L 110.230434 165.425587 
L 110.555414 165.425587 
L 110.880393 165.076536 
L 111.205373 164.90201 
L 111.530352 164.989273 
L 111.855332 165.251061 
L 112.505291 165.51285 
L 112.83027 165.251061 
L 113.480229 165.251061 
L 113.805209 165.425587 
L 115.105127 165.163799 
L 116.730025 165.251061 
L 117.055004 165.338324 
L 117.704963 165.251061 
L 119.004881 165.251061 
L 119.329861 165.076536 
L 120.304799 165.163799 
L 121.279738 165.338324 
L 121.929697 165.251061 
L 122.579656 165.338324 
L 122.904636 165.338324 
L 123.554595 164.989273 
L 123.879574 164.989273 
L 124.204554 165.251061 
L 124.854513 165.338324 
L 125.504472 165.076536 
L 126.154431 165.51285 
L 126.47941 165.51285 
L 126.80439 165.251061 
L 127.129369 164.814748 
L 127.454349 164.90201 
L 128.104308 165.687375 
L 128.754267 164.90201 
L 129.079247 164.814748 
L 129.729206 165.51285 
L 130.704144 164.90201 
L 131.354103 165.163799 
L 132.004062 165.251061 
L 132.329042 165.251061 
L 132.979001 164.989273 
L 133.30398 165.163799 
L 133.953939 165.076536 
L 134.278919 164.989273 
L 134.928878 165.076536 
L 137.203735 165.163799 
L 137.528714 165.338324 
L 137.853694 165.338324 
L 138.178673 165.163799 
L 140.12855 165.076536 
L 140.45353 164.814748 
L 141.103489 164.727485 
L 142.078428 165.51285 
L 142.728387 165.51285 
L 143.378346 164.465697 
L 143.703325 164.291171 
L 144.028305 164.727485 
L 144.353284 165.51285 
L 144.678264 165.949164 
L 145.003243 165.861901 
L 145.653202 163.854857 
L 145.978182 163.680332 
L 146.303161 164.552959 
L 146.628141 166.123689 
L 146.95312 166.560003 
L 147.2781 165.687375 
L 147.603079 164.116646 
L 147.928059 163.331281 
L 148.253038 164.291171 
L 148.578018 165.949164 
L 148.902998 166.734528 
L 149.227977 165.600113 
L 149.552957 164.029383 
L 149.877936 163.331281 
L 150.202916 164.291171 
L 150.527895 165.861901 
L 150.852875 166.385477 
L 151.502834 163.94212 
L 151.827813 163.680332 
L 152.477772 165.949164 
L 152.802752 165.861901 
L 153.452711 164.116646 
L 153.77769 164.203908 
L 154.10267 165.163799 
L 154.427649 165.425587 
L 155.077609 164.378434 
L 155.402588 164.465697 
L 156.052547 165.425587 
L 156.702506 164.465697 
L 157.027486 164.465697 
L 157.677445 165.687375 
L 158.002424 165.51285 
L 158.327404 164.640222 
L 158.652383 164.378434 
L 158.977363 164.552959 
L 159.302342 165.251061 
L 159.627322 165.338324 
L 159.952301 165.076536 
L 160.277281 164.552959 
L 160.60226 164.465697 
L 161.252219 165.251061 
L 161.577199 165.163799 
L 162.227158 164.552959 
L 162.552138 164.727485 
L 163.202097 165.425587 
L 163.527076 165.076536 
L 163.852056 164.552959 
L 164.177035 164.378434 
L 164.826994 165.338324 
L 165.151974 165.338324 
L 165.476953 164.727485 
L 165.801933 164.465697 
L 166.126912 164.640222 
L 166.776871 165.51285 
L 167.75181 164.552959 
L 168.07679 164.814748 
L 168.401769 165.338324 
L 168.726749 165.338324 
L 169.051728 165.076536 
L 169.376708 164.552959 
L 170.026667 164.814748 
L 170.351646 165.338324 
L 170.676626 165.338324 
L 171.326585 164.465697 
L 171.651564 164.640222 
L 171.976544 165.163799 
L 172.301523 165.425587 
L 172.626503 165.251061 
L 172.951482 164.727485 
L 173.276462 164.640222 
L 173.926421 165.338324 
L 174.2514 165.338324 
L 174.57638 164.640222 
L 175.226339 164.378434 
L 175.876298 165.338324 
L 176.201278 165.251061 
L 176.526257 164.727485 
L 176.851237 164.640222 
L 177.501196 165.076536 
L 177.826175 165.338324 
L 178.151155 165.163799 
L 178.476134 164.814748 
L 178.801114 164.640222 
L 179.776052 165.076536 
L 180.101032 164.989273 
L 180.426011 164.727485 
L 181.40095 165.076536 
L 182.050909 164.814748 
L 183.350827 165.076536 
L 184.000786 164.989273 
L 185.300704 164.90201 
L 185.625684 164.814748 
L 185.950663 164.989273 
L 186.275643 164.90201 
L 186.600622 164.989273 
L 186.925602 164.90201 
L 187.575561 165.076536 
L 188.22552 164.989273 
L 188.875479 165.076536 
L 189.525438 165.338324 
L 189.850418 165.338324 
L 190.175397 164.90201 
L 190.500377 164.727485 
L 190.825356 164.727485 
L 191.150336 165.163799 
L 191.475315 165.338324 
L 191.800295 165.076536 
L 192.125274 164.640222 
L 192.450254 164.640222 
L 193.100213 165.51285 
L 193.425192 165.600113 
L 194.075152 164.90201 
L 194.400131 164.814748 
L 194.725111 164.989273 
L 195.05009 165.338324 
L 195.37507 165.425587 
L 195.700049 165.251061 
L 196.025029 164.90201 
L 196.350008 164.727485 
L 196.674988 164.814748 
L 196.999967 165.163799 
L 197.324947 165.338324 
L 197.974906 164.989273 
L 198.299885 165.076536 
L 198.624865 165.425587 
L 198.949844 165.600113 
L 199.274824 165.425587 
L 199.924783 164.727485 
L 200.249762 165.076536 
L 200.574742 165.600113 
L 200.899722 165.687375 
L 201.549681 164.640222 
L 201.87466 164.640222 
L 202.19964 165.338324 
L 202.524619 165.687375 
L 202.849599 165.51285 
L 203.499558 164.814748 
L 203.824537 165.076536 
L 204.474496 165.774638 
L 205.124455 164.989273 
L 205.774414 165.251061 
L 206.099394 165.600113 
L 206.424373 165.600113 
L 207.074333 164.90201 
L 207.399312 164.989273 
L 208.049271 165.425587 
L 208.69923 165.338324 
L 209.02421 165.251061 
L 209.674169 165.338324 
L 210.974087 165.076536 
L 211.299066 165.251061 
L 214.223882 165.338324 
L 214.548862 165.425587 
L 215.84878 165.163799 
L 216.173759 165.163799 
L 216.498739 165.425587 
L 217.798657 165.163799 
L 218.448616 165.425587 
L 218.773595 165.338324 
L 219.098575 165.076536 
L 219.423554 164.989273 
L 219.748534 165.076536 
L 220.073514 165.338324 
L 220.398493 165.425587 
L 221.048452 165.163799 
L 221.373432 165.076536 
L 222.023391 165.51285 
L 222.34837 165.51285 
L 222.998329 164.90201 
L 223.323309 164.989273 
L 223.648288 165.425587 
L 223.973268 165.600113 
L 224.623227 164.989273 
L 224.948206 164.989273 
L 225.273186 165.163799 
L 225.598165 165.51285 
L 226.573104 164.989273 
L 227.548043 165.425587 
L 228.522981 165.163799 
L 228.847961 165.251061 
L 229.49792 165.163799 
L 229.822899 165.251061 
L 230.472858 165.163799 
L 235.99751 165.163799 
L 236.32249 164.814748 
L 236.647469 164.727485 
L 236.972449 164.814748 
L 237.947387 165.600113 
L 238.597346 165.51285 
L 238.922326 165.076536 
L 239.247305 164.378434 
L 239.572285 164.378434 
L 239.897265 164.727485 
L 240.222244 165.600113 
L 240.547224 166.036426 
L 240.872203 165.861901 
L 241.522162 163.94212 
L 241.847142 163.680332 
L 242.172121 164.727485 
L 242.497101 166.210952 
L 242.82208 166.560003 
L 243.14706 165.600113 
L 243.472039 164.029383 
L 243.797019 163.331281 
L 244.121998 164.291171 
L 244.446978 166.036426 
L 244.771957 166.647266 
L 245.096937 165.687375 
L 245.421916 164.029383 
L 245.746896 163.418544 
L 246.071876 164.378434 
L 246.396855 165.949164 
L 246.721835 166.298215 
L 247.046814 165.338324 
L 247.371794 163.94212 
L 247.696773 163.767595 
L 248.346732 165.949164 
L 248.671712 165.861901 
L 249.321671 164.116646 
L 249.64665 164.465697 
L 249.97163 165.163799 
L 250.296609 165.51285 
L 250.946568 164.465697 
L 251.271548 164.640222 
L 251.596527 165.163799 
L 251.921507 165.425587 
L 252.571466 164.378434 
L 252.896446 164.552959 
L 253.546405 165.600113 
L 253.871384 165.338324 
L 254.196364 164.640222 
L 254.521343 164.291171 
L 254.846323 164.552959 
L 255.171302 165.163799 
L 255.496282 165.425587 
L 255.821261 165.076536 
L 256.146241 164.552959 
L 256.47122 164.465697 
L 257.121179 165.338324 
L 257.446159 165.163799 
L 258.096118 164.552959 
L 258.421097 164.640222 
L 258.746077 165.251061 
L 259.071057 165.425587 
L 259.396036 165.076536 
L 259.721016 164.552959 
L 260.045995 164.552959 
L 260.695954 165.425587 
L 261.020934 165.338324 
L 261.345913 164.814748 
L 261.670893 164.552959 
L 261.995872 164.640222 
L 262.320852 165.163799 
L 262.645831 165.425587 
L 262.970811 165.163799 
L 263.29579 164.727485 
L 263.62077 164.552959 
L 263.945749 164.814748 
L 264.270729 165.338324 
L 264.595708 165.425587 
L 264.920688 165.076536 
L 265.245667 164.552959 
L 265.570647 164.552959 
L 266.220606 165.338324 
L 266.545586 165.425587 
L 267.195545 164.552959 
L 267.520524 164.640222 
L 267.845504 165.163799 
L 268.170483 165.338324 
L 268.495463 165.251061 
L 268.820442 164.727485 
L 269.145422 164.552959 
L 269.470401 164.814748 
L 269.795381 165.338324 
L 270.12036 165.338324 
L 270.770319 164.378434 
L 271.095299 164.378434 
L 271.420278 164.989273 
L 271.745258 165.338324 
L 272.070238 165.251061 
L 272.720197 164.640222 
L 273.045176 164.727485 
L 273.695135 165.425587 
L 274.670074 164.552959 
L 275.320033 165.076536 
L 275.969992 164.989273 
L 276.294971 164.727485 
L 277.594889 164.989273 
L 277.919869 164.814748 
L 278.894808 165.163799 
L 279.219787 164.989273 
L 281.169664 164.90201 
L 281.494644 164.814748 
L 281.819623 164.989273 
L 282.144603 164.90201 
L 282.469582 164.989273 
L 283.119541 164.90201 
L 283.444521 165.076536 
L 284.419459 164.90201 
L 285.394398 165.425587 
L 285.719378 165.251061 
L 286.369337 164.552959 
L 286.694316 164.727485 
L 287.019296 165.251061 
L 287.344275 165.425587 
L 288.319214 164.727485 
L 288.969173 165.425587 
L 289.294152 165.600113 
L 289.944111 164.90201 
L 290.269091 164.814748 
L 290.91905 165.338324 
L 291.244029 165.425587 
L 291.569009 165.251061 
L 291.893989 164.814748 
L 292.218968 164.727485 
L 292.543948 164.814748 
L 292.868927 165.251061 
L 293.193907 165.425587 
L 293.843866 164.989273 
L 294.168845 165.076536 
L 294.493825 165.51285 
L 294.818804 165.687375 
L 295.143784 165.51285 
L 295.468763 164.90201 
L 295.793743 164.814748 
L 296.443702 165.600113 
L 296.768681 165.600113 
L 297.41864 164.640222 
L 297.74362 164.552959 
L 298.393579 165.774638 
L 298.718559 165.51285 
L 299.043538 164.989273 
L 299.368518 164.727485 
L 299.693497 164.989273 
L 300.018477 165.425587 
L 300.343456 165.51285 
L 301.318395 165.076536 
L 301.643374 165.425587 
L 301.968354 165.600113 
L 302.618313 164.989273 
L 302.943292 164.814748 
L 304.24321 165.425587 
L 304.56819 165.163799 
L 305.543129 165.338324 
L 305.868108 165.163799 
L 309.767862 165.251061 
L 310.092842 165.425587 
L 311.067781 164.989273 
L 311.39276 165.163799 
L 311.71774 165.076536 
L 312.692678 165.251061 
L 313.992596 165.338324 
L 314.317576 165.425587 
L 314.642555 165.338324 
L 314.967535 165.076536 
L 315.617494 165.076536 
L 315.942473 165.338324 
L 316.592432 165.338324 
L 316.917412 165.076536 
L 318.21733 165.51285 
L 318.54231 165.076536 
L 318.867289 164.90201 
L 319.192269 164.989273 
L 319.517248 165.51285 
L 319.842228 165.600113 
L 320.492187 164.989273 
L 320.817166 164.90201 
L 321.142146 165.251061 
L 321.467125 165.425587 
L 321.792105 165.425587 
L 322.117084 165.163799 
L 322.442064 165.076536 
L 323.741982 165.338324 
L 324.391941 165.251061 
L 325.0419 165.338324 
L 326.016839 165.163799 
L 326.341818 165.251061 
L 326.666798 165.076536 
L 326.991777 165.251061 
L 327.966716 165.251061 
L 328.291695 165.076536 
L 329.591613 165.338324 
L 330.566552 165.076536 
L 331.541491 165.338324 
L 332.19145 164.90201 
L 332.516429 164.814748 
L 333.166388 164.989273 
L 333.816347 165.51285 
L 334.466306 165.600113 
L 334.791286 165.163799 
L 335.116265 164.465697 
L 335.441245 164.378434 
L 335.766224 164.640222 
L 336.091204 165.51285 
L 336.416183 166.036426 
L 336.741163 165.949164 
L 337.391122 164.029383 
L 337.716102 163.680332 
L 338.041081 164.640222 
L 338.366061 166.123689 
L 338.69104 166.560003 
L 339.01602 165.600113 
L 339.340999 164.029383 
L 339.665979 163.418544 
L 339.990958 164.291171 
L 340.315938 166.036426 
L 340.640917 166.734528 
L 340.965897 165.687375 
L 341.290876 164.203908 
L 341.615856 163.418544 
L 341.940835 164.378434 
L 342.265815 165.861901 
L 342.590794 166.385477 
L 343.240753 163.94212 
L 343.565733 163.854857 
L 344.215692 165.861901 
L 344.540672 165.949164 
L 345.190631 164.116646 
L 345.51561 164.465697 
L 345.84059 165.163799 
L 346.165569 165.425587 
L 346.815528 164.465697 
L 347.140508 164.552959 
L 347.790467 165.425587 
L 348.115446 165.076536 
L 348.440426 164.378434 
L 348.765405 164.465697 
L 349.415364 165.600113 
L 349.740344 165.425587 
L 350.390303 164.378434 
L 350.715283 164.640222 
L 351.040262 165.251061 
L 351.365242 165.338324 
L 351.690221 165.163799 
L 352.015201 164.465697 
L 352.34018 164.465697 
L 352.66516 164.814748 
L 352.990139 165.338324 
L 353.315119 165.163799 
L 353.965078 164.552959 
L 354.290057 164.552959 
L 354.615037 165.076536 
L 354.940016 165.338324 
L 355.264996 165.076536 
L 355.589975 164.640222 
L 355.914955 164.465697 
L 356.564914 165.338324 
L 356.889894 165.425587 
L 357.214873 164.727485 
L 357.539853 164.378434 
L 357.864832 164.552959 
L 358.189812 165.163799 
L 358.514791 165.425587 
L 358.839771 165.251061 
L 359.48973 164.465697 
L 360.464668 165.425587 
L 360.789648 165.076536 
L 361.114627 164.552959 
L 361.439607 164.465697 
L 361.764586 164.814748 
L 362.089566 165.338324 
L 362.414545 165.251061 
L 363.064505 164.378434 
L 363.389484 164.552959 
L 364.039443 165.425587 
L 364.364423 165.251061 
L 364.689402 164.727485 
L 365.014382 164.465697 
L 365.98932 165.425587 
L 366.639279 164.378434 
L 366.964259 164.378434 
L 367.614218 165.251061 
L 367.939197 165.163799 
L 368.264177 164.640222 
L 368.914136 164.727485 
L 369.564095 165.338324 
L 370.539034 164.640222 
L 371.188993 165.163799 
L 371.513972 165.163799 
L 372.163931 164.640222 
L 373.13887 165.076536 
L 374.113808 164.814748 
L 374.763767 165.163799 
L 375.738706 164.90201 
L 376.713645 165.076536 
L 377.363604 164.90201 
L 378.013563 164.989273 
L 378.338542 164.989273 
L 378.663522 164.814748 
L 379.313481 165.076536 
L 379.96344 165.076536 
L 380.288419 164.90201 
L 380.938378 165.163799 
L 381.263358 165.51285 
L 381.588337 165.425587 
L 381.913317 164.814748 
L 382.238296 164.552959 
L 382.563276 164.814748 
L 382.888256 165.251061 
L 383.213235 165.251061 
L 383.538215 165.076536 
L 383.863194 164.640222 
L 384.188174 164.727485 
L 384.513153 164.989273 
L 384.838133 165.425587 
L 385.163112 165.600113 
L 385.813071 164.90201 
L 386.138051 164.814748 
L 386.46303 165.163799 
L 387.112989 165.51285 
L 388.087928 164.814748 
L 388.412907 164.814748 
L 388.737887 165.251061 
L 389.062867 165.425587 
L 389.712826 164.989273 
L 390.037805 165.076536 
L 390.687764 165.687375 
L 391.012744 165.425587 
L 391.337723 164.90201 
L 391.662703 164.814748 
L 392.312662 165.600113 
L 392.637641 165.600113 
L 392.962621 164.989273 
L 393.2876 164.640222 
L 393.61258 164.640222 
L 393.937559 165.338324 
L 394.262539 165.687375 
L 394.587518 165.425587 
L 395.237477 164.727485 
L 395.562457 164.989273 
L 395.887437 165.425587 
L 396.212416 165.600113 
L 396.862375 164.989273 
L 397.187355 165.076536 
L 397.837314 165.51285 
L 398.487273 165.163799 
L 398.487273 165.163799 
" clip-path="url(#pe918ea5ab0)" style="fill: none; stroke: #1f77b4; stroke-width: 1.5; stroke-linecap: square"/>
   </g>
   <g id="line2d_13">
    <path d="M 73.832727 295.435642 
L 77.407502 295.426916 
L 398.487273 295.383285 
L 398.487273 295.383285 
" clip-path="url(#pe918ea5ab0)" style="fill: none; stroke: #ff7f0e; stroke-width: 1.5; stroke-linecap: square"/>
   </g>
   <g id="line2d_14">
    <path d="M 73.832727 54.876941 
L 74.157707 54.911846 
L 74.482686 54.824584 
L 75.457625 53.794883 
L 76.432563 53.725073 
L 76.757543 53.777431 
L 77.732482 54.510438 
L 78.382441 54.248649 
L 78.70742 54.353365 
L 79.357379 55.034014 
L 79.682359 55.016562 
L 80.332318 54.178839 
L 80.657297 54.091576 
L 81.632236 54.772226 
L 82.607174 54.283555 
L 83.257133 54.684963 
L 83.582113 54.632605 
L 84.232072 54.074124 
L 84.557052 54.143934 
L 85.207011 54.5977 
L 85.53199 54.52789 
L 85.85697 54.31846 
L 86.181949 54.31846 
L 87.156888 54.911846 
L 87.806847 54.423175 
L 88.131826 54.405722 
L 88.781785 54.684963 
L 89.106765 54.475533 
L 89.431744 54.109029 
L 89.756724 53.917051 
L 91.056642 54.423175 
L 91.381622 54.423175 
L 91.706601 54.545343 
L 92.35656 55.051467 
L 92.68154 55.034014 
L 93.656478 54.423175 
L 94.306437 54.283555 
L 94.956396 53.934504 
L 95.281376 53.951956 
L 96.906274 54.789678 
L 97.881212 54.946751 
L 98.856151 54.335912 
L 100.481048 54.213744 
L 100.806028 54.353365 
L 101.131007 54.615153 
L 101.455987 54.684963 
L 102.105946 54.283555 
L 102.430925 54.301007 
L 103.080885 54.999109 
L 103.405864 54.946751 
L 104.055823 54.370817 
L 104.380803 54.423175 
L 105.030762 54.824584 
L 105.355741 54.615153 
L 106.0057 54.056671 
L 106.980639 54.492985 
L 107.630598 54.38827 
L 108.280557 54.964204 
L 108.605536 54.999109 
L 109.255495 54.632605 
L 109.580475 54.702416 
L 109.905455 54.946751 
L 110.230434 54.981656 
L 110.880393 54.091576 
L 111.205373 53.969409 
L 111.855332 54.475533 
L 112.180311 54.405722 
L 112.505291 54.178839 
L 112.83027 54.143934 
L 113.805209 55.034014 
L 114.455168 54.842036 
L 115.105127 55.138729 
L 115.430106 55.051467 
L 116.405045 54.004314 
L 117.379984 54.31846 
L 118.029943 54.126482 
L 118.354922 54.31846 
L 119.004881 54.981656 
L 119.329861 55.121277 
L 120.629779 54.38827 
L 120.954758 54.38827 
L 121.279738 54.248649 
L 121.604717 53.882146 
L 121.929697 53.690168 
L 122.254676 53.882146 
L 122.904636 54.754773 
L 123.229615 54.824584 
L 123.879574 54.615153 
L 124.529533 54.615153 
L 124.854513 54.38827 
L 125.504472 53.655263 
L 125.829451 53.602905 
L 127.129369 54.178839 
L 128.104308 54.929299 
L 128.754267 54.772226 
L 129.729206 54.964204 
L 130.704144 54.405722 
L 131.029124 54.38827 
L 131.354103 54.248649 
L 132.004062 53.794883 
L 132.979001 54.335912 
L 133.62896 54.056671 
L 133.953939 54.266102 
L 134.603898 55.138729 
L 134.928878 55.156182 
L 135.578837 54.824584 
L 136.228796 55.121277 
L 136.553776 54.999109 
L 137.528714 53.585453 
L 137.853694 53.690168 
L 138.178673 54.074124 
L 138.503653 54.248649 
L 139.153612 53.951956 
L 139.478591 54.039219 
L 140.45353 55.295802 
L 140.778509 55.173635 
L 141.103489 54.929299 
L 141.428468 54.894394 
L 142.078428 55.068919 
L 143.378346 53.986861 
L 144.353284 54.039219 
L 145.003243 54.056671 
L 146.303161 54.946751 
L 146.95312 55.138729 
L 147.603079 54.964204 
L 148.253038 54.754773 
L 149.552957 53.951956 
L 150.202916 54.283555 
L 150.527895 54.301007 
L 151.177854 54.091576 
L 151.502834 54.301007 
L 152.152793 55.260897 
L 152.477772 55.260897 
L 153.127731 54.545343 
L 153.452711 54.667511 
L 153.77769 55.034014 
L 154.10267 55.173635 
L 154.427649 54.894394 
L 155.077609 54.143934 
L 155.402588 54.178839 
L 155.727568 54.353365 
L 156.052547 54.370817 
L 156.702506 53.969409 
L 157.027486 54.161387 
L 157.677445 54.981656 
L 158.002424 54.981656 
L 158.652383 54.615153 
L 159.627322 55.225992 
L 160.60226 54.161387 
L 160.92724 54.31846 
L 161.252219 54.615153 
L 161.577199 54.667511 
L 162.227158 54.074124 
L 162.552138 54.021766 
L 163.527076 54.859489 
L 164.177035 54.789678 
L 165.476953 54.859489 
L 166.126912 54.650058 
L 166.776871 54.091576 
L 167.101851 53.794883 
L 167.42683 53.759978 
L 168.07679 54.266102 
L 168.726749 54.737321 
L 170.351646 54.824584 
L 171.326585 53.794883 
L 172.626503 53.812336 
L 173.601441 54.52789 
L 174.2514 54.248649 
L 174.57638 54.38827 
L 175.226339 55.051467 
L 175.551319 54.999109 
L 176.201278 54.196292 
L 176.526257 54.109029 
L 177.501196 54.772226 
L 178.476134 54.301007 
L 179.126093 54.684963 
L 179.451073 54.615153 
L 180.101032 54.074124 
L 180.426011 54.126482 
L 181.075971 54.615153 
L 182.050909 54.31846 
L 183.025848 54.894394 
L 184.000786 54.38827 
L 184.650745 54.684963 
L 184.975725 54.492985 
L 185.625684 53.917051 
L 185.950663 54.056671 
L 186.600622 54.440627 
L 187.250581 54.440627 
L 187.575561 54.562795 
L 188.22552 55.068919 
L 188.5505 55.068919 
L 189.850418 54.370817 
L 190.500377 54.161387 
L 190.825356 53.969409 
L 191.150336 53.951956 
L 192.450254 54.754773 
L 193.750172 54.946751 
L 194.725111 54.370817 
L 195.37507 54.370817 
L 196.350008 54.196292 
L 197.324947 54.719868 
L 197.974906 54.266102 
L 198.299885 54.301007 
L 198.949844 54.999109 
L 199.274824 54.981656 
L 199.924783 54.405722 
L 200.249762 54.440627 
L 200.574742 54.737321 
L 200.899722 54.842036 
L 201.224701 54.615153 
L 201.549681 54.231197 
L 201.87466 54.056671 
L 202.19964 54.161387 
L 202.524619 54.405722 
L 202.849599 54.492985 
L 203.174578 54.38827 
L 203.499558 54.405722 
L 204.149517 54.946751 
L 204.474496 55.034014 
L 205.124455 54.650058 
L 205.449435 54.737321 
L 205.774414 54.981656 
L 206.099394 54.999109 
L 206.749353 54.091576 
L 207.074333 53.986861 
L 207.724292 54.475533 
L 208.049271 54.423175 
L 208.374251 54.196292 
L 208.69923 54.143934 
L 209.674169 55.086372 
L 210.324128 54.859489 
L 210.974087 55.156182 
L 211.299066 55.051467 
L 211.949025 54.213744 
L 212.274005 54.039219 
L 213.248943 54.31846 
L 213.898903 54.143934 
L 214.223882 54.335912 
L 214.873841 55.051467 
L 215.198821 55.156182 
L 215.5238 54.964204 
L 215.84878 54.5977 
L 216.173759 54.405722 
L 216.823718 54.405722 
L 217.473677 53.934504 
L 217.798657 53.70762 
L 218.123636 53.899598 
L 218.773595 54.754773 
L 219.098575 54.824584 
L 220.073514 54.667511 
L 220.398493 54.615153 
L 220.723473 54.405722 
L 221.373432 53.672715 
L 221.698411 53.602905 
L 222.998329 54.161387 
L 223.648288 54.824584 
L 223.973268 54.946751 
L 224.623227 54.772226 
L 225.273186 55.034014 
L 225.598165 54.964204 
L 226.248124 54.510438 
L 227.223063 54.231197 
L 227.873022 53.812336 
L 228.198002 53.934504 
L 228.847961 54.31846 
L 229.49792 54.039219 
L 229.822899 54.231197 
L 230.472858 55.138729 
L 230.797838 55.121277 
L 231.447797 54.824584 
L 232.097756 55.138729 
L 232.422735 54.999109 
L 233.397674 53.568 
L 233.722654 53.725073 
L 234.047633 54.074124 
L 234.372613 54.231197 
L 235.022572 53.969409 
L 235.347551 54.056671 
L 236.32249 55.295802 
L 237.297428 54.929299 
L 237.947387 55.034014 
L 238.272367 54.807131 
L 238.922326 54.056671 
L 239.247305 53.986861 
L 239.897265 54.091576 
L 240.872203 54.091576 
L 242.497101 55.121277 
L 243.14706 55.086372 
L 244.121998 54.754773 
L 245.096937 53.934504 
L 245.421916 53.986861 
L 246.071876 54.335912 
L 246.721835 54.196292 
L 247.046814 54.109029 
L 247.371794 54.335912 
L 248.021753 55.260897 
L 248.346732 55.243445 
L 248.996691 54.510438 
L 249.321671 54.667511 
L 249.64665 55.051467 
L 249.97163 55.156182 
L 250.296609 54.894394 
L 250.946568 54.143934 
L 251.921507 54.370817 
L 252.571466 54.004314 
L 252.896446 54.196292 
L 253.546405 54.981656 
L 253.871384 54.999109 
L 254.196364 54.719868 
L 254.521343 54.615153 
L 255.496282 55.243445 
L 256.47122 54.196292 
L 256.7962 54.31846 
L 257.121179 54.615153 
L 257.446159 54.650058 
L 258.421097 54.004314 
L 259.396036 54.842036 
L 260.045995 54.772226 
L 261.020934 54.929299 
L 261.995872 54.650058 
L 263.29579 53.794883 
L 263.945749 54.266102 
L 264.595708 54.702416 
L 265.570647 54.876941 
L 265.895627 54.894394 
L 266.220606 54.789678 
L 267.195545 53.759978 
L 268.170483 53.742525 
L 268.495463 53.829788 
L 269.470401 54.545343 
L 270.12036 54.248649 
L 270.44534 54.370817 
L 271.095299 55.016562 
L 271.420278 54.964204 
L 272.070238 54.213744 
L 272.395217 54.109029 
L 273.370156 54.754773 
L 274.345094 54.301007 
L 274.995053 54.684963 
L 275.320033 54.615153 
L 275.969992 54.091576 
L 276.294971 54.143934 
L 276.94493 54.615153 
L 277.26991 54.562795 
L 277.594889 54.335912 
L 277.919869 54.31846 
L 278.894808 54.876941 
L 279.544767 54.423175 
L 279.869746 54.423175 
L 280.519705 54.650058 
L 280.844685 54.475533 
L 281.494644 53.882146 
L 282.469582 54.475533 
L 283.119541 54.440627 
L 283.444521 54.580248 
L 284.09448 55.034014 
L 284.419459 55.034014 
L 285.719378 54.370817 
L 286.369337 54.109029 
L 286.694316 53.934504 
L 287.019296 53.969409 
L 288.319214 54.737321 
L 288.969173 54.894394 
L 289.294152 54.999109 
L 289.619132 54.929299 
L 290.59407 54.31846 
L 292.543948 54.353365 
L 292.868927 54.615153 
L 293.193907 54.702416 
L 293.843866 54.301007 
L 294.168845 54.335912 
L 294.818804 54.981656 
L 295.143784 54.964204 
L 295.793743 54.38827 
L 296.118722 54.440627 
L 296.443702 54.702416 
L 296.768681 54.807131 
L 297.74362 54.074124 
L 298.718559 54.475533 
L 299.043538 54.370817 
L 299.368518 54.405722 
L 300.018477 54.964204 
L 300.343456 55.016562 
L 300.993415 54.615153 
L 301.318395 54.719868 
L 301.643374 54.964204 
L 301.968354 54.981656 
L 302.618313 54.074124 
L 302.943292 53.986861 
L 303.593251 54.45808 
L 303.918231 54.405722 
L 304.24321 54.161387 
L 304.56819 54.143934 
L 305.543129 55.051467 
L 306.193088 54.859489 
L 306.843047 55.156182 
L 307.168026 55.051467 
L 307.817985 54.196292 
L 308.142965 54.056671 
L 309.117903 54.301007 
L 309.767862 54.161387 
L 310.092842 54.353365 
L 310.742801 55.034014 
L 311.067781 55.156182 
L 312.042719 54.38827 
L 312.692678 54.38827 
L 313.017658 54.231197 
L 313.667617 53.742525 
L 313.992596 53.899598 
L 314.642555 54.737321 
L 314.967535 54.824584 
L 315.617494 54.580248 
L 316.267453 54.615153 
L 316.917412 53.969409 
L 317.242391 53.672715 
L 317.567371 53.602905 
L 318.54231 54.004314 
L 319.192269 54.45808 
L 319.517248 54.807131 
L 319.842228 54.894394 
L 320.817166 54.859489 
L 321.142146 54.999109 
L 321.467125 54.999109 
L 322.117084 54.510438 
L 323.092023 54.196292 
L 323.741982 53.847241 
L 324.716921 54.31846 
L 325.36688 54.074124 
L 325.691859 54.266102 
L 326.341818 55.138729 
L 326.666798 55.138729 
L 326.991777 54.911846 
L 327.316757 54.824584 
L 327.966716 55.138729 
L 328.291695 54.999109 
L 329.266634 53.620358 
L 329.591613 53.742525 
L 329.916593 54.109029 
L 330.241572 54.231197 
L 331.216511 54.074124 
L 331.86647 55.086372 
L 332.19145 55.260897 
L 333.166388 54.911846 
L 333.816347 55.034014 
L 334.141327 54.789678 
L 334.791286 54.074124 
L 335.116265 54.004314 
L 336.091204 54.056671 
L 336.416183 53.986861 
L 336.741163 54.091576 
L 338.041081 54.999109 
L 338.69104 55.156182 
L 339.990958 54.772226 
L 340.965897 53.969409 
L 341.290876 53.986861 
L 341.940835 54.31846 
L 342.265815 54.31846 
L 342.915774 54.126482 
L 343.240753 54.335912 
L 343.890713 55.27835 
L 344.215692 55.260897 
L 344.865651 54.545343 
L 345.190631 54.650058 
L 345.51561 55.051467 
L 345.84059 55.191087 
L 346.165569 54.911846 
L 346.815528 54.109029 
L 347.140508 54.178839 
L 347.465487 54.405722 
L 347.790467 54.353365 
L 348.440426 53.986861 
L 348.765405 54.178839 
L 349.415364 55.034014 
L 349.740344 55.034014 
L 350.390303 54.615153 
L 351.365242 55.243445 
L 352.34018 54.143934 
L 353.315119 54.632605 
L 353.965078 54.056671 
L 354.290057 54.021766 
L 355.264996 54.894394 
L 355.914955 54.789678 
L 357.214873 54.876941 
L 357.864832 54.667511 
L 358.839771 53.812336 
L 359.16475 53.759978 
L 359.48973 53.951956 
L 360.139689 54.562795 
L 360.464668 54.754773 
L 361.764586 54.929299 
L 362.089566 54.807131 
L 363.064505 53.777431 
L 363.714464 53.742525 
L 364.364423 53.829788 
L 365.339361 54.545343 
L 365.98932 54.248649 
L 366.3143 54.38827 
L 366.964259 55.034014 
L 367.289238 54.964204 
L 367.939197 54.178839 
L 368.264177 54.126482 
L 369.239115 54.772226 
L 370.214054 54.335912 
L 370.864013 54.702416 
L 371.188993 54.615153 
L 371.838952 54.074124 
L 372.163931 54.143934 
L 372.81389 54.632605 
L 373.788829 54.301007 
L 374.763767 54.876941 
L 375.413726 54.440627 
L 375.738706 54.423175 
L 376.388665 54.667511 
L 376.713645 54.45808 
L 377.038624 54.091576 
L 377.363604 53.899598 
L 378.663522 54.475533 
L 378.988501 54.405722 
L 379.313481 54.545343 
L 379.96344 55.034014 
L 380.288419 55.051467 
L 381.263358 54.440627 
L 381.913317 54.31846 
L 382.563276 53.951956 
L 382.888256 53.934504 
L 383.863194 54.702416 
L 385.488092 54.911846 
L 386.46303 54.370817 
L 386.78801 54.301007 
L 387.112989 54.38827 
L 388.087928 54.231197 
L 389.062867 54.719868 
L 389.712826 54.266102 
L 390.037805 54.31846 
L 390.687764 54.964204 
L 391.012744 54.946751 
L 391.662703 54.405722 
L 391.987682 54.440627 
L 392.312662 54.719868 
L 392.637641 54.824584 
L 393.61258 54.074124 
L 394.587518 54.492985 
L 394.912498 54.38827 
L 395.237477 54.405722 
L 395.887437 54.946751 
L 396.212416 54.999109 
L 396.862375 54.684963 
L 397.187355 54.754773 
L 397.512334 54.999109 
L 397.837314 54.981656 
L 398.487273 54.091576 
L 398.487273 54.091576 
" clip-path="url(#pe918ea5ab0)" style="fill: none; stroke: #2ca02c; stroke-width: 1.5; stroke-linecap: square"/>
   </g>
   <g id="patch_3">
    <path d="M 57.6 307.584 
L 57.6 41.472 
" style="fill: none; stroke: #000000; stroke-width: 0.8; stroke-linejoin: miter; stroke-linecap: square"/>
   </g>
   <g id="patch_4">
    <path d="M 414.72 307.584 
L 414.72 41.472 
" style="fill: none; stroke: #000000; stroke-width: 0.8; stroke-linejoin: miter; stroke-linecap: square"/>
   </g>
   <g id="patch_5">
    <path d="M 57.6 307.584 
L 414.72 307.584 
" style="fill: none; stroke: #000000; stroke-width: 0.8; stroke-linejoin: miter; stroke-linecap: square"/>
   </g>
   <g id="patch_6">
    <path d="M 57.6 41.472 
L 414.72 41.472 
" style="fill: none; stroke: #000000; stroke-width: 0.8; stroke-linejoin: miter; stroke-linecap: square"/>
   </g>
  </g>
 </g>
 <defs>
  <clipPath id="pe918ea5ab0">
   <rect x="57.6" y="41.472" width="357.12" height="266.112"/>
  </clipPath>
 </defs>
</svg>
