<?xml version="1.0" encoding="utf-8" standalone="no"?>
<!DOCTYPE svg PUBLIC "-//W3C//DTD SVG 1.1//EN"
  "http://www.w3.org/Graphics/SVG/1.1/DTD/svg11.dtd">
<svg xmlns:xlink="http://www.w3.org/1999/xlink" width="460.8pt" height="345.6pt" viewBox="0 0 460.8 345.6" xmlns="http://www.w3.org/2000/svg" version="1.1">
 <metadata>
  <rdf:RDF xmlns:dc="http://purl.org/dc/elements/1.1/" xmlns:cc="http://creativecommons.org/ns#" xmlns:rdf="http://www.w3.org/1999/02/22-rdf-syntax-ns#">
   <cc:Work>
    <dc:type rdf:resource="http://purl.org/dc/dcmitype/StillImage"/>
    <dc:date>2025-12-23T02:37:28.649565</dc:date>
    <dc:format>image/svg+xml</dc:format>
    <dc:creator>
     <cc:Agent>
      <dc:title>Matplotlib v3.10.8, https://matplotlib.org/</dc:title>
     </cc:Agent>
    </dc:creator>
   </cc:Work>
  </rdf:RDF>
 </metadata>
 <defs>
  <style type="text/css">*{stroke-linejoin: round; stroke-linecap: butt}</style>
 </defs>
 <g id="figure_1">
  <g id="patch_1">
   <path d="M 0 345.6 
L 460.8 345.6 
L 460.8 0 
L 0 0 
z
" style="fill: #ffffff"/>
  </g>
  <g id="axes_1">
   <g id="patch_2">
    <path d="M 57.6 307.584 
L 414.72 307.584 
L 414.72 41.472 
L 57.6 41.472 
z
" style="fill: #ffffff"/>
   </g>
   <g id="matplotlib.axis_1">
    <g id="xtick_1">
     <g id="line2d_1">
      <defs>
       <path id="me18d6a5a73" d="M 0 0 
L 0 3.5 
" style="stroke: #000000; stroke-width: 0.8"/>
      </defs>
      <g>
       <use xlink:href="#me18d6a5a73" x="73.832727" y="307.584" style="stroke: #000000; stroke-width: 0.8"/>
      </g>
     </g>
     <g id="text_1">
      <!-- 0 -->
      <g transform="translate(70.651477 322.182437) scale(0.1 -0.1)">
       <defs>
        <path id="DejaVuSans-30" d="M 2034 4250 
Q 1547 4250 1301 3770 
Q 1056 3291 1056 2328 
Q 1056 1369 1301 889 
Q 1547 409 2034 409 
Q 2525 409 2770 889 
Q 3016 1369 3016 2328 
Q 3016 3291 2770 3770 
Q 2525 4250 2034 4250 
z
M 2034 4750 
Q 2819 4750 3233 4129 
Q 3647 3509 3647 2328 
Q 3647 1150 3233 529 
Q 2819 -91 2034 -91 
Q 1250 -91 836 529 
Q 422 1150 422 2328 
Q 422 3509 836 4129 
Q 1250 4750 2034 4750 
z
" transform="scale(0.015625)"/>
       </defs>
       <use xlink:href="#DejaVuSans-30"/>
      </g>
     </g>
    </g>
    <g id="xtick_2">
     <g id="line2d_2">
      <g>
       <use xlink:href="#me18d6a5a73" x="138.828632" y="307.584" style="stroke: #000000; stroke-width: 0.8"/>
      </g>
     </g>
     <g id="text_2">
      <!-- 1 -->
      <g transform="translate(135.647382 322.182437) scale(0.1 -0.1)">
       <defs>
        <path id="DejaVuSans-31" d="M 794 531 
L 1825 531 
L 1825 4091 
L 703 3866 
L 703 4441 
L 1819 4666 
L 2450 4666 
L 2450 531 
L 3481 531 
L 3481 0 
L 794 0 
L 794 531 
z
" transform="scale(0.015625)"/>
       </defs>
       <use xlink:href="#DejaVuSans-31"/>
      </g>
     </g>
    </g>
    <g id="xtick_3">
     <g id="line2d_3">
      <g>
       <use xlink:href="#me18d6a5a73" x="203.824537" y="307.584" style="stroke: #000000; stroke-width: 0.8"/>
      </g>
     </g>
     <g id="text_3">
      <!-- 2 -->
      <g transform="translate(200.643287 322.182437) scale(0.1 -0.1)">
       <defs>
        <path id="DejaVuSans-32" d="M 1228 531 
L 3431 531 
L 3431 0 
L 469 0 
L 469 531 
Q 828 903 1448 1529 
Q 2069 2156 2228 2338 
Q 2531 2678 2651 2914 
Q 2772 3150 2772 3378 
Q 2772 3750 2511 3984 
Q 2250 4219 1831 4219 
Q 1534 4219 1204 4116 
Q 875 4013 500 3803 
L 500 4441 
Q 881 4594 1212 4672 
Q 1544 4750 1819 4750 
Q 2544 4750 2975 4387 
Q 3406 4025 3406 3419 
Q 3406 3131 3298 2873 
Q 3191 2616 2906 2266 
Q 2828 2175 2409 1742 
Q 1991 1309 1228 531 
z
" transform="scale(0.015625)"/>
       </defs>
       <use xlink:href="#DejaVuSans-32"/>
      </g>
     </g>
    </g>
    <g id="xtick_4">
     <g id="line2d_4">
      <g>
       <use xlink:href="#me18d6a5a73" x="268.820442" y="307.584" style="stroke: #000000; stroke-width: 0.8"/>
      </g>
     </g>
     <g id="text_4">
      <!-- 3 -->
      <g transform="translate(265.639192 322.182437) scale(0.1 -0.1)">
       <defs>
        <path id="DejaVuSans-33" d="M 2597 2516 
Q 3050 2419 3304 2112 
Q 3559 1806 3559 1356 
Q 3559 666 3084 287 
Q 2609 -91 1734 -91 
Q 1441 -91 1130 -33 
Q 819 25 488 141 
L 488 750 
Q 750 597 1062 519 
Q 1375 441 1716 441 
Q 2309 441 2620 675 
Q 2931 909 2931 1356 
Q 2931 1769 2642 2001 
Q 2353 2234 1838 2234 
L 1294 2234 
L 1294 2753 
L 1863 2753 
Q 2328 2753 2575 2939 
Q 2822 3125 2822 3475 
Q 2822 3834 2567 4026 
Q 2313 4219 1838 4219 
Q 1578 4219 1281 4162 
Q 984 4106 628 3988 
L 628 4550 
Q 988 4650 1302 4700 
Q 1616 4750 1894 4750 
Q 2613 4750 3031 4423 
Q 3450 4097 3450 3541 
Q 3450 3153 3228 2886 
Q 3006 2619 2597 2516 
z
" transform="scale(0.015625)"/>
       </defs>
       <use xlink:href="#DejaVuSans-33"/>
      </g>
     </g>
    </g>
    <g id="xtick_5">
     <g id="line2d_5">
      <g>
       <use xlink:href="#me18d6a5a73" x="333.816347" y="307.584" style="stroke: #000000; stroke-width: 0.8"/>
      </g>
     </g>
     <g id="text_5">
      <!-- 4 -->
      <g transform="translate(330.635097 322.182437) scale(0.1 -0.1)">
       <defs>
        <path id="DejaVuSans-34" d="M 2419 4116 
L 825 1625 
L 2419 1625 
L 2419 4116 
z
M 2253 4666 
L 3047 4666 
L 3047 1625 
L 3713 1625 
L 3713 1100 
L 3047 1100 
L 3047 0 
L 2419 0 
L 2419 1100 
L 313 1100 
L 313 1709 
L 2253 4666 
z
" transform="scale(0.015625)"/>
       </defs>
       <use xlink:href="#DejaVuSans-34"/>
      </g>
     </g>
    </g>
    <g id="xtick_6">
     <g id="line2d_6">
      <g>
       <use xlink:href="#me18d6a5a73" x="398.812252" y="307.584" style="stroke: #000000; stroke-width: 0.8"/>
      </g>
     </g>
     <g id="text_6">
      <!-- 5 -->
      <g transform="translate(395.631002 322.182437) scale(0.1 -0.1)">
       <defs>
        <path id="DejaVuSans-35" d="M 691 4666 
L 3169 4666 
L 3169 4134 
L 1269 4134 
L 1269 2991 
Q 1406 3038 1543 3061 
Q 1681 3084 1819 3084 
Q 2600 3084 3056 2656 
Q 3513 2228 3513 1497 
Q 3513 744 3044 326 
Q 2575 -91 1722 -91 
Q 1428 -91 1123 -41 
Q 819 9 494 109 
L 494 744 
Q 775 591 1075 516 
Q 1375 441 1709 441 
Q 2250 441 2565 725 
Q 2881 1009 2881 1497 
Q 2881 1984 2565 2268 
Q 2250 2553 1709 2553 
Q 1456 2553 1204 2497 
Q 953 2441 691 2322 
L 691 4666 
z
" transform="scale(0.015625)"/>
       </defs>
       <use xlink:href="#DejaVuSans-35"/>
      </g>
     </g>
    </g>
    <g id="text_7">
     <!-- 1e−7 -->
     <g transform="translate(387.462188 334.860562) scale(0.1 -0.1)">
      <defs>
       <path id="DejaVuSans-65" d="M 3597 1894 
L 3597 1613 
L 953 1613 
Q 991 1019 1311 708 
Q 1631 397 2203 397 
Q 2534 397 2845 478 
Q 3156 559 3463 722 
L 3463 178 
Q 3153 47 2828 -22 
Q 2503 -91 2169 -91 
Q 1331 -91 842 396 
Q 353 884 353 1716 
Q 353 2575 817 3079 
Q 1281 3584 2069 3584 
Q 2775 3584 3186 3129 
Q 3597 2675 3597 1894 
z
M 3022 2063 
Q 3016 2534 2758 2815 
Q 2500 3097 2075 3097 
Q 1594 3097 1305 2825 
Q 1016 2553 972 2059 
L 3022 2063 
z
" transform="scale(0.015625)"/>
       <path id="DejaVuSans-2212" d="M 678 2272 
L 4684 2272 
L 4684 1741 
L 678 1741 
L 678 2272 
z
" transform="scale(0.015625)"/>
       <path id="DejaVuSans-37" d="M 525 4666 
L 3525 4666 
L 3525 4397 
L 1831 0 
L 1172 0 
L 2766 4134 
L 525 4134 
L 525 4666 
z
" transform="scale(0.015625)"/>
      </defs>
      <use xlink:href="#DejaVuSans-31"/>
      <use xlink:href="#DejaVuSans-65" transform="translate(63.623047 0)"/>
      <use xlink:href="#DejaVuSans-2212" transform="translate(125.146484 0)"/>
      <use xlink:href="#DejaVuSans-37" transform="translate(208.935547 0)"/>
     </g>
    </g>
   </g>
   <g id="matplotlib.axis_2">
    <g id="ytick_1">
     <g id="line2d_7">
      <defs>
       <path id="mbc8cfd3809" d="M 0 0 
L -3.5 0 
" style="stroke: #000000; stroke-width: 0.8"/>
      </defs>
      <g>
       <use xlink:href="#mbc8cfd3809" x="57.6" y="278.029872" style="stroke: #000000; stroke-width: 0.8"/>
      </g>
     </g>
     <g id="text_8">
      <!-- 0 -->
      <g transform="translate(44.2375 281.829091) scale(0.1 -0.1)">
       <use xlink:href="#DejaVuSans-30"/>
      </g>
     </g>
    </g>
    <g id="ytick_2">
     <g id="line2d_8">
      <g>
       <use xlink:href="#mbc8cfd3809" x="57.6" y="238.125538" style="stroke: #000000; stroke-width: 0.8"/>
      </g>
     </g>
     <g id="text_9">
      <!-- 10 -->
      <g transform="translate(37.875 241.924757) scale(0.1 -0.1)">
       <use xlink:href="#DejaVuSans-31"/>
       <use xlink:href="#DejaVuSans-30" transform="translate(63.623047 0)"/>
      </g>
     </g>
    </g>
    <g id="ytick_3">
     <g id="line2d_9">
      <g>
       <use xlink:href="#mbc8cfd3809" x="57.6" y="198.221204" style="stroke: #000000; stroke-width: 0.8"/>
      </g>
     </g>
     <g id="text_10">
      <!-- 20 -->
      <g transform="translate(37.875 202.020423) scale(0.1 -0.1)">
       <use xlink:href="#DejaVuSans-32"/>
       <use xlink:href="#DejaVuSans-30" transform="translate(63.623047 0)"/>
      </g>
     </g>
    </g>
    <g id="ytick_4">
     <g id="line2d_10">
      <g>
       <use xlink:href="#mbc8cfd3809" x="57.6" y="158.31687" style="stroke: #000000; stroke-width: 0.8"/>
      </g>
     </g>
     <g id="text_11">
      <!-- 30 -->
      <g transform="translate(37.875 162.116089) scale(0.1 -0.1)">
       <use xlink:href="#DejaVuSans-33"/>
       <use xlink:href="#DejaVuSans-30" transform="translate(63.623047 0)"/>
      </g>
     </g>
    </g>
    <g id="ytick_5">
     <g id="line2d_11">
      <g>
       <use xlink:href="#mbc8cfd3809" x="57.6" y="118.412536" style="stroke: #000000; stroke-width: 0.8"/>
      </g>
     </g>
     <g id="text_12">
      <!-- 40 -->
      <g transform="translate(37.875 122.211755) scale(0.1 -0.1)">
       <use xlink:href="#DejaVuSans-34"/>
       <use xlink:href="#DejaVuSans-30" transform="translate(63.623047 0)"/>
      </g>
     </g>
    </g>
    <g id="ytick_6">
     <g id="line2d_12">
      <g>
       <use xlink:href="#mbc8cfd3809" x="57.6" y="78.508202" style="stroke: #000000; stroke-width: 0.8"/>
      </g>
     </g>
     <g id="text_13">
      <!-- 50 -->
      <g transform="translate(37.875 82.307421) scale(0.1 -0.1)">
       <use xlink:href="#DejaVuSans-35"/>
       <use xlink:href="#DejaVuSans-30" transform="translate(63.623047 0)"/>
      </g>
     </g>
    </g>
   </g>
   <g id="line2d_13">
    <path d="M 73.832727 258.077708 
L 74.482686 258.077708 
L 74.807666 258.576512 
L 75.132645 258.077708 
L 75.457625 258.32711 
L 75.782604 258.32711 
L 76.107584 258.077708 
L 76.432563 258.32711 
L 76.757543 258.077708 
L 77.082523 258.077708 
L 77.407502 257.828306 
L 78.057461 257.828306 
L 78.382441 258.32711 
L 78.70742 258.32711 
L 79.0324 258.077708 
L 79.357379 258.32711 
L 79.682359 258.077708 
L 80.007338 258.32711 
L 80.982277 258.32711 
L 81.307256 258.077708 
L 81.632236 258.32711 
L 81.957215 258.077708 
L 82.282195 258.077708 
L 82.932154 258.576512 
L 83.257133 258.077708 
L 83.582113 258.576512 
L 84.557052 258.576512 
L 84.882031 258.077708 
L 85.207011 258.32711 
L 85.53199 258.32711 
L 85.85697 258.077708 
L 86.506929 258.077708 
L 86.831908 258.32711 
L 89.431744 258.32711 
L 90.081704 257.828306 
L 90.406683 258.32711 
L 90.731663 258.32711 
L 91.056642 258.576512 
L 91.381622 258.576512 
L 91.706601 258.825914 
L 92.031581 259.823522 
L 92.68154 264.562161 
L 93.331499 266.80678 
L 93.656478 268.801996 
L 94.956396 283.76612 
L 95.606355 286.260141 
L 95.931335 286.260141 
L 96.256314 286.509543 
L 96.581294 286.260141 
L 96.906274 285.511935 
L 97.231253 283.76612 
L 98.206192 276.034656 
L 98.531171 275.535852 
L 98.856151 275.28645 
L 99.18113 275.535852 
L 99.831089 273.790038 
L 100.156069 273.790038 
L 100.481048 274.538244 
L 100.806028 276.53346 
L 101.131007 277.780471 
L 101.455987 277.531069 
L 101.780966 277.032264 
L 102.105946 277.531069 
L 103.080885 281.521502 
L 103.730844 278.279275 
L 104.055823 277.780471 
L 104.705782 279.775687 
L 105.030762 279.276883 
L 105.680721 277.032264 
L 106.0057 277.281667 
L 106.33068 277.780471 
L 106.655659 277.780471 
L 107.305618 276.782862 
L 107.630598 277.032264 
L 108.280557 278.778079 
L 108.605536 278.778079 
L 108.930516 277.780471 
L 109.255495 277.531069 
L 109.580475 278.029873 
L 110.230434 279.526285 
L 110.555414 279.276883 
L 110.880393 278.279275 
L 111.205373 278.528677 
L 111.530352 278.279275 
L 111.855332 278.528677 
L 112.180311 278.279275 
L 112.83027 278.279275 
L 113.15525 278.029873 
L 113.480229 278.528677 
L 114.130188 278.029873 
L 115.105127 278.029873 
L 115.430106 278.528677 
L 115.755086 278.528677 
L 116.080066 278.279275 
L 116.405045 278.528677 
L 116.730025 278.279275 
L 117.379984 278.279275 
L 117.704963 278.528677 
L 118.029943 278.279275 
L 118.354922 278.279275 
L 118.679902 278.528677 
L 119.004881 278.279275 
L 119.329861 278.279275 
L 119.65484 278.528677 
L 119.97982 278.279275 
L 121.279738 278.279275 
L 121.604717 278.528677 
L 121.929697 278.029873 
L 122.254676 278.279275 
L 122.579656 278.029873 
L 122.904636 278.029873 
L 123.554595 278.528677 
L 123.879574 278.528677 
L 124.204554 278.029873 
L 124.529533 278.279275 
L 125.829451 278.279275 
L 126.154431 278.528677 
L 126.47941 278.279275 
L 126.80439 278.528677 
L 127.129369 278.029873 
L 127.779328 278.029873 
L 128.429287 278.528677 
L 129.079247 278.528677 
L 129.404226 278.279275 
L 129.729206 278.279275 
L 130.054185 278.528677 
L 130.379165 278.279275 
L 130.704144 278.528677 
L 131.029124 278.279275 
L 131.679083 278.279275 
L 132.004062 278.778079 
L 132.329042 278.279275 
L 132.654021 278.528677 
L 132.979001 278.279275 
L 133.62896 278.279275 
L 133.953939 278.528677 
L 134.278919 278.528677 
L 134.603898 278.279275 
L 134.928878 278.279275 
L 135.253857 278.528677 
L 135.903817 278.528677 
L 136.228796 278.279275 
L 136.878755 278.279275 
L 137.203735 278.528677 
L 137.528714 278.279275 
L 138.828632 278.279275 
L 139.153612 278.528677 
L 139.478591 278.528677 
L 139.803571 278.279275 
L 140.12855 278.279275 
L 140.45353 278.528677 
L 141.103489 278.528677 
L 141.428468 278.279275 
L 141.753448 278.279275 
L 142.078428 278.029873 
L 142.403407 278.279275 
L 143.378346 278.279275 
L 143.703325 278.528677 
L 144.028305 278.279275 
L 145.328223 278.279275 
L 145.653202 278.528677 
L 145.978182 278.279275 
L 146.303161 278.528677 
L 146.628141 278.279275 
L 146.95312 278.528677 
L 147.2781 278.279275 
L 147.603079 278.528677 
L 147.928059 278.279275 
L 148.578018 278.279275 
L 148.902998 278.528677 
L 149.227977 278.528677 
L 149.552957 278.279275 
L 150.202916 278.279275 
L 150.527895 278.778079 
L 150.852875 278.778079 
L 151.177854 278.528677 
L 151.502834 278.778079 
L 151.827813 278.778079 
L 152.152793 279.027481 
L 152.802752 280.025089 
L 153.452711 280.025089 
L 153.77769 279.775687 
L 154.10267 279.276883 
L 155.077609 274.288842 
L 156.052547 267.804388 
L 156.702506 262.566945 
L 157.027486 260.82113 
L 158.327404 257.0801 
L 158.652383 256.331893 
L 158.977363 256.082491 
L 159.952301 256.082491 
L 160.277281 255.833089 
L 161.252219 255.833089 
L 161.577199 256.082491 
L 161.902179 256.581295 
L 162.227158 256.830697 
L 162.552138 257.329502 
L 162.877117 257.329502 
L 163.202097 258.32711 
L 163.527076 258.32711 
L 163.852056 258.825914 
L 164.177035 258.825914 
L 164.502015 259.075316 
L 165.151974 259.075316 
L 165.476953 259.57412 
L 165.801933 259.324718 
L 166.126912 259.57412 
L 166.451892 259.324718 
L 166.776871 259.324718 
L 167.101851 259.57412 
L 167.42683 259.57412 
L 167.75181 259.324718 
L 168.07679 258.825914 
L 168.401769 258.825914 
L 169.051728 258.32711 
L 169.376708 258.32711 
L 169.701687 258.077708 
L 170.676626 258.077708 
L 171.001605 258.32711 
L 171.326585 258.32711 
L 171.651564 258.077708 
L 171.976544 258.32711 
L 172.626503 258.32711 
L 173.276462 257.828306 
L 173.601441 258.077708 
L 173.926421 257.828306 
L 174.2514 258.077708 
L 174.57638 258.077708 
L 174.90136 258.32711 
L 175.226339 258.32711 
L 175.551319 258.077708 
L 175.876298 258.576512 
L 176.201278 258.32711 
L 176.526257 258.576512 
L 177.176216 258.077708 
L 177.501196 258.32711 
L 177.826175 258.077708 
L 178.151155 258.32711 
L 178.476134 258.077708 
L 178.801114 258.576512 
L 179.126093 258.077708 
L 179.776052 258.576512 
L 180.101032 258.576512 
L 180.426011 258.32711 
L 181.075971 258.32711 
L 181.40095 258.077708 
L 181.72593 258.077708 
L 182.050909 257.828306 
L 182.700868 258.32711 
L 183.350827 258.32711 
L 183.675807 258.077708 
L 184.000786 258.576512 
L 184.325766 258.32711 
L 185.300704 258.32711 
L 185.625684 258.077708 
L 185.950663 258.077708 
L 186.275643 258.32711 
L 186.600622 258.32711 
L 186.925602 258.576512 
L 187.250581 258.576512 
L 187.575561 258.825914 
L 187.900541 259.823522 
L 188.5505 264.562161 
L 188.875479 265.310368 
L 189.525438 268.801996 
L 190.825356 284.015522 
L 191.150336 285.511935 
L 191.475315 286.260141 
L 191.800295 286.509543 
L 192.125274 286.509543 
L 192.450254 286.260141 
L 192.775233 285.761337 
L 193.100213 283.76612 
L 194.075152 276.034656 
L 194.725111 275.535852 
L 195.05009 275.535852 
L 195.37507 275.037048 
L 195.700049 273.790038 
L 196.025029 273.540636 
L 196.350008 274.538244 
L 196.674988 276.53346 
L 196.999967 277.531069 
L 197.324947 277.780471 
L 197.649926 277.281667 
L 197.974906 277.281667 
L 198.624865 280.773295 
L 198.949844 281.2721 
L 199.599803 278.778079 
L 199.924783 278.029873 
L 200.574742 279.526285 
L 200.899722 279.276883 
L 201.549681 277.032264 
L 201.87466 277.032264 
L 202.524619 278.029873 
L 203.174578 277.032264 
L 203.499558 277.032264 
L 204.149517 279.027481 
L 204.474496 278.778079 
L 205.124455 277.531069 
L 205.449435 278.029873 
L 206.099394 279.276883 
L 206.424373 278.778079 
L 206.749353 278.528677 
L 207.074333 278.528677 
L 207.399312 278.029873 
L 207.724292 278.279275 
L 208.049271 278.279275 
L 208.374251 278.029873 
L 209.02421 278.528677 
L 209.349189 278.279275 
L 209.674169 277.531069 
L 209.999148 278.029873 
L 210.324128 277.780471 
L 210.649107 277.780471 
L 211.299066 278.279275 
L 211.949025 278.279275 
L 212.274005 278.029873 
L 212.598984 278.279275 
L 212.923964 278.029873 
L 213.573923 278.528677 
L 213.898903 278.279275 
L 214.548862 278.279275 
L 214.873841 278.029873 
L 215.198821 278.528677 
L 215.5238 278.029873 
L 215.84878 278.279275 
L 216.173759 278.029873 
L 216.823718 278.029873 
L 217.148698 278.528677 
L 217.473677 278.528677 
L 218.448616 277.780471 
L 218.773595 278.029873 
L 219.098575 278.528677 
L 219.423554 278.528677 
L 219.748534 278.279275 
L 220.073514 277.780471 
L 220.398493 278.029873 
L 220.723473 278.029873 
L 221.048452 278.279275 
L 221.698411 278.279275 
L 222.023391 278.029873 
L 222.34837 278.029873 
L 222.67335 278.279275 
L 222.998329 277.780471 
L 223.323309 277.780471 
L 224.298247 278.528677 
L 224.623227 278.279275 
L 224.948206 278.279275 
L 225.273186 278.029873 
L 225.598165 278.029873 
L 225.923145 278.279275 
L 226.573104 278.279275 
L 226.898084 278.029873 
L 227.548043 278.029873 
L 227.873022 278.279275 
L 228.198002 278.279275 
L 228.522981 278.029873 
L 228.847961 278.279275 
L 229.17294 278.029873 
L 229.49792 278.528677 
L 229.822899 278.279275 
L 230.147879 278.279275 
L 230.472858 278.029873 
L 230.797838 278.279275 
L 231.122817 278.029873 
L 231.447797 278.279275 
L 232.097756 278.279275 
L 232.422735 278.029873 
L 232.747715 278.279275 
L 233.722654 278.279275 
L 234.047633 278.029873 
L 234.372613 278.029873 
L 234.697592 278.279275 
L 235.022572 278.279275 
L 235.347551 278.528677 
L 235.672531 278.029873 
L 235.99751 278.279275 
L 236.32249 278.279275 
L 236.647469 278.528677 
L 237.297428 278.029873 
L 237.947387 278.029873 
L 238.272367 278.279275 
L 238.922326 278.279275 
L 239.247305 278.528677 
L 239.572285 278.279275 
L 239.897265 278.528677 
L 240.222244 278.279275 
L 240.547224 278.279275 
L 240.872203 278.029873 
L 241.197183 278.528677 
L 241.522162 278.279275 
L 242.497101 278.279275 
L 242.82208 278.029873 
L 243.472039 278.528677 
L 243.797019 278.279275 
L 244.121998 278.528677 
L 244.446978 278.279275 
L 244.771957 278.279275 
L 245.096937 278.528677 
L 245.421916 278.528677 
L 245.746896 278.778079 
L 246.071876 278.279275 
L 246.396855 278.528677 
L 246.721835 278.528677 
L 247.046814 278.778079 
L 247.371794 278.528677 
L 248.346732 279.276883 
L 248.671712 279.775687 
L 248.996691 280.025089 
L 249.64665 280.025089 
L 249.97163 279.276883 
L 250.946568 274.288842 
L 252.896446 260.571728 
L 253.221425 259.823522 
L 253.546405 258.576512 
L 254.196364 257.0801 
L 254.521343 256.830697 
L 254.846323 256.082491 
L 255.171302 256.082491 
L 255.821261 255.583687 
L 256.146241 255.833089 
L 256.47122 255.833089 
L 256.7962 256.082491 
L 257.446159 256.082491 
L 258.421097 256.830697 
L 259.071057 257.828306 
L 259.396036 258.077708 
L 259.721016 258.576512 
L 260.045995 258.576512 
L 260.370975 259.075316 
L 261.020934 259.57412 
L 261.345913 259.324718 
L 261.670893 259.324718 
L 261.995872 259.57412 
L 262.320852 259.324718 
L 262.645831 259.57412 
L 262.970811 259.324718 
L 263.62077 259.324718 
L 263.945749 259.075316 
L 264.270729 258.576512 
L 264.595708 258.825914 
L 265.570647 258.077708 
L 266.220606 258.077708 
L 266.545586 258.32711 
L 266.870565 257.828306 
L 267.195545 258.576512 
L 267.520524 257.828306 
L 267.845504 258.32711 
L 268.495463 258.32711 
L 268.820442 257.828306 
L 269.145422 258.077708 
L 269.795381 258.077708 
L 270.12036 258.32711 
L 271.095299 258.32711 
L 271.420278 258.576512 
L 272.395217 258.576512 
L 272.720197 257.828306 
L 273.045176 257.828306 
L 273.695135 258.32711 
L 274.345094 258.32711 
L 274.670074 258.576512 
L 274.995053 258.32711 
L 275.320033 258.576512 
L 275.645012 258.32711 
L 275.969992 258.576512 
L 276.294971 258.576512 
L 276.94493 258.077708 
L 277.26991 258.077708 
L 277.594889 258.32711 
L 277.919869 258.077708 
L 278.244848 258.077708 
L 278.569828 258.32711 
L 279.219787 258.32711 
L 279.544767 258.077708 
L 279.869746 258.32711 
L 280.194726 258.077708 
L 280.519705 258.32711 
L 281.819623 258.32711 
L 282.144603 258.576512 
L 282.469582 258.32711 
L 282.794562 258.825914 
L 283.119541 258.32711 
L 283.444521 258.576512 
L 284.09448 262.068141 
L 284.419459 264.312759 
L 284.744439 265.310368 
L 285.069419 266.80678 
L 285.394398 269.300801 
L 286.044357 276.782862 
L 286.369337 281.2721 
L 286.694316 284.015522 
L 287.344275 286.260141 
L 287.669255 286.260141 
L 287.994234 286.509543 
L 288.319214 286.260141 
L 288.969173 284.015522 
L 289.944111 276.034656 
L 290.269091 275.535852 
L 290.91905 275.535852 
L 291.569009 273.790038 
L 291.893989 273.790038 
L 292.218968 274.787646 
L 292.543948 276.53346 
L 292.868927 277.531069 
L 293.193907 277.780471 
L 293.518886 277.032264 
L 293.843866 277.531069 
L 294.493825 281.022697 
L 294.818804 281.2721 
L 295.793743 277.780471 
L 296.118722 279.027481 
L 296.443702 279.775687 
L 296.768681 279.276883 
L 297.41864 277.032264 
L 298.0686 277.531069 
L 298.393579 278.029873 
L 299.043538 277.032264 
L 299.368518 277.032264 
L 299.693497 278.279275 
L 300.018477 278.778079 
L 300.343456 278.528677 
L 300.668436 277.780471 
L 300.993415 277.531069 
L 301.318395 278.029873 
L 301.643374 279.027481 
L 301.968354 279.526285 
L 302.618313 278.528677 
L 303.268272 278.029873 
L 303.593251 278.528677 
L 303.918231 278.279275 
L 305.218149 278.279275 
L 305.543129 278.029873 
L 305.868108 278.279275 
L 306.193088 277.780471 
L 306.843047 278.279275 
L 307.168026 278.279275 
L 307.493006 278.528677 
L 307.817985 278.279275 
L 308.142965 278.279275 
L 308.467944 277.780471 
L 308.792924 278.279275 
L 309.117903 278.279275 
L 309.442883 278.528677 
L 310.092842 278.528677 
L 310.742801 278.029873 
L 311.067781 278.279275 
L 311.39276 277.780471 
L 312.042719 278.279275 
L 312.692678 278.279275 
L 313.017658 278.528677 
L 313.342637 278.279275 
L 313.667617 277.780471 
L 313.992596 278.029873 
L 314.317576 277.780471 
L 314.642555 278.279275 
L 315.617494 278.279275 
L 315.942473 278.029873 
L 316.267453 278.279275 
L 316.592432 278.029873 
L 317.242391 278.528677 
L 318.21733 278.528677 
L 318.867289 278.029873 
L 319.517248 278.029873 
L 319.842228 278.279275 
L 320.167207 278.279275 
L 320.492187 278.528677 
L 320.817166 278.029873 
L 322.117084 278.029873 
L 322.442064 278.528677 
L 322.767043 278.029873 
L 323.092023 278.029873 
L 323.417002 278.279275 
L 323.741982 278.279275 
L 324.066962 278.029873 
L 324.391941 278.528677 
L 324.716921 278.029873 
L 325.0419 278.279275 
L 325.36688 278.029873 
L 325.691859 278.279275 
L 326.666798 278.279275 
L 326.991777 278.029873 
L 327.316757 278.279275 
L 327.966716 278.279275 
L 328.291695 278.528677 
L 328.616675 278.279275 
L 328.941654 278.528677 
L 329.266634 278.029873 
L 329.591613 278.279275 
L 329.916593 278.029873 
L 330.566552 278.528677 
L 330.891532 278.528677 
L 331.216511 278.279275 
L 332.516429 278.279275 
L 332.841409 278.528677 
L 333.491368 278.528677 
L 333.816347 278.029873 
L 334.141327 278.279275 
L 334.466306 278.029873 
L 334.791286 278.528677 
L 335.116265 278.528677 
L 335.441245 278.279275 
L 337.066143 278.279275 
L 337.391122 278.029873 
L 338.041081 278.528677 
L 338.366061 278.528677 
L 338.69104 278.279275 
L 339.01602 278.528677 
L 339.340999 278.528677 
L 339.665979 278.029873 
L 339.990958 278.528677 
L 340.315938 278.279275 
L 341.615856 278.279275 
L 341.940835 278.528677 
L 342.590794 278.528677 
L 342.915774 278.279275 
L 343.240753 278.528677 
L 343.565733 278.528677 
L 343.890713 279.276883 
L 344.865651 280.025089 
L 345.190631 280.523893 
L 345.51561 280.025089 
L 346.165569 277.780471 
L 346.815528 274.288842 
L 348.115446 264.811563 
L 348.440426 262.068141 
L 348.765405 260.571728 
L 349.415364 258.825914 
L 350.065324 256.830697 
L 350.390303 256.581295 
L 350.715283 256.082491 
L 351.040262 256.082491 
L 351.365242 255.833089 
L 352.34018 255.833089 
L 352.66516 256.082491 
L 352.990139 255.833089 
L 353.965078 256.581295 
L 354.290057 257.0801 
L 354.615037 257.329502 
L 354.940016 257.828306 
L 355.264996 257.828306 
L 355.589975 258.825914 
L 355.914955 258.825914 
L 356.564914 259.324718 
L 356.889894 259.324718 
L 357.214873 259.57412 
L 357.539853 259.075316 
L 357.864832 259.57412 
L 358.189812 259.324718 
L 359.48973 259.324718 
L 359.814709 258.825914 
L 360.139689 258.825914 
L 360.464668 258.32711 
L 360.789648 258.576512 
L 361.114627 258.077708 
L 361.439607 258.077708 
L 361.764586 257.828306 
L 362.089566 258.077708 
L 363.389484 258.077708 
L 363.714464 258.32711 
L 364.039443 258.077708 
L 364.364423 258.32711 
L 364.689402 258.32711 
L 365.014382 258.077708 
L 365.339361 258.077708 
L 365.664341 257.828306 
L 365.98932 258.077708 
L 366.3143 257.828306 
L 366.639279 258.077708 
L 367.289238 258.077708 
L 367.939197 258.576512 
L 368.589156 258.077708 
L 369.239115 258.077708 
L 369.889075 258.576512 
L 370.214054 258.32711 
L 370.539034 258.576512 
L 370.864013 258.32711 
L 371.188993 258.576512 
L 371.513972 258.32711 
L 371.838952 258.576512 
L 372.163931 258.32711 
L 372.488911 258.32711 
L 372.81389 258.077708 
L 373.13887 258.077708 
L 373.463849 258.32711 
L 373.788829 258.077708 
L 374.113808 258.576512 
L 374.438788 258.077708 
L 374.763767 258.576512 
L 375.413726 258.576512 
L 375.738706 258.32711 
L 376.063686 257.828306 
L 376.388665 258.32711 
L 376.713645 258.077708 
L 377.038624 258.32711 
L 377.363604 258.32711 
L 377.688583 258.077708 
L 378.013563 258.077708 
L 378.663522 258.576512 
L 378.988501 258.32711 
L 379.313481 258.825914 
L 379.63846 260.072924 
L 380.288419 264.562161 
L 380.938378 266.80678 
L 381.263358 269.051399 
L 382.563276 283.76612 
L 382.888256 285.511935 
L 383.213235 286.010739 
L 383.863194 286.509543 
L 384.513153 285.511935 
L 385.163112 281.022697 
L 385.813071 276.034656 
L 386.138051 275.535852 
L 386.46303 275.28645 
L 386.78801 275.535852 
L 387.437969 273.790038 
L 387.762948 273.540636 
L 388.087928 274.787646 
L 388.412907 276.53346 
L 388.737887 277.531069 
L 389.062867 277.531069 
L 389.387846 277.032264 
L 389.712826 277.531069 
L 390.362785 281.022697 
L 390.687764 281.2721 
L 391.662703 277.780471 
L 391.987682 279.027481 
L 392.312662 279.775687 
L 392.637641 279.526285 
L 392.962621 277.780471 
L 393.2876 277.032264 
L 393.61258 277.032264 
L 393.937559 277.780471 
L 394.262539 278.029873 
L 394.912498 276.782862 
L 395.237477 277.281667 
L 395.887437 278.778079 
L 396.212416 278.528677 
L 396.537396 277.780471 
L 396.862375 277.531069 
L 397.512334 279.027481 
L 397.837314 279.276883 
L 398.487273 278.279275 
L 398.487273 278.279275 
" clip-path="url(#pd57b0adee3)" style="fill: none; stroke: #1f77b4; stroke-width: 1.5; stroke-linecap: square"/>
   </g>
   <g id="line2d_14">
    <path d="M 73.832727 278.279275 
L 74.157707 278.778079 
L 74.482686 279.027481 
L 75.132645 278.029873 
L 75.457625 277.780471 
L 76.107584 278.279275 
L 76.432563 278.778079 
L 77.082523 278.279275 
L 77.732482 278.279275 
L 78.057461 278.528677 
L 78.70742 278.029873 
L 79.0324 278.279275 
L 79.357379 278.778079 
L 79.682359 278.778079 
L 80.007338 278.279275 
L 80.332318 278.029873 
L 80.657297 278.279275 
L 80.982277 278.279275 
L 81.632236 278.778079 
L 81.957215 278.528677 
L 82.282195 278.528677 
L 82.607174 278.279275 
L 82.932154 278.279275 
L 83.257133 278.528677 
L 83.582113 278.528677 
L 83.907093 278.279275 
L 84.232072 278.279275 
L 84.882031 278.778079 
L 85.207011 278.279275 
L 85.53199 278.279275 
L 85.85697 278.528677 
L 86.831908 278.528677 
L 87.156888 278.279275 
L 87.481867 278.279275 
L 87.806847 278.029873 
L 88.131826 278.528677 
L 88.456806 278.778079 
L 89.431744 278.029873 
L 89.756724 278.279275 
L 90.081704 278.778079 
L 90.406683 278.528677 
L 90.731663 278.528677 
L 91.056642 278.279275 
L 91.381622 278.279275 
L 92.031581 278.778079 
L 92.68154 278.279275 
L 93.656478 278.279275 
L 93.981458 278.528677 
L 94.306437 278.528677 
L 94.631417 278.279275 
L 94.956396 278.279275 
L 95.281376 278.528677 
L 96.906274 278.528677 
L 97.231253 278.778079 
L 97.881212 278.279275 
L 98.206192 278.279275 
L 98.531171 278.778079 
L 99.18113 278.778079 
L 99.50611 278.279275 
L 99.831089 278.279275 
L 100.481048 278.778079 
L 101.131007 278.778079 
L 101.780966 278.279275 
L 102.105946 278.778079 
L 102.755905 279.276883 
L 103.080885 278.778079 
L 103.405864 278.528677 
L 103.730844 278.778079 
L 104.705782 280.274491 
L 105.030762 280.025089 
L 105.355741 280.025089 
L 105.680721 280.274491 
L 106.33068 279.027481 
L 107.955577 269.051399 
L 108.605536 262.816347 
L 109.255495 260.322326 
L 109.580475 259.823522 
L 109.905455 258.825914 
L 110.230434 257.329502 
L 110.555414 256.581295 
L 110.880393 256.331893 
L 111.205373 256.331893 
L 111.530352 256.581295 
L 111.855332 256.082491 
L 112.180311 255.334285 
L 112.83027 255.833089 
L 113.15525 256.331893 
L 113.480229 255.833089 
L 113.805209 255.583687 
L 114.130188 255.833089 
L 114.455168 256.331893 
L 115.105127 257.578904 
L 115.430106 257.578904 
L 116.080066 258.576512 
L 117.055004 259.324718 
L 117.379984 259.075316 
L 117.704963 259.075316 
L 118.029943 259.57412 
L 118.354922 259.823522 
L 118.679902 259.57412 
L 119.004881 259.57412 
L 119.329861 259.324718 
L 119.97982 259.823522 
L 120.304799 259.57412 
L 120.954758 258.576512 
L 121.279738 258.576512 
L 121.604717 258.32711 
L 121.929697 258.32711 
L 122.254676 258.576512 
L 122.579656 258.077708 
L 123.229615 258.576512 
L 123.554595 258.576512 
L 124.204554 258.077708 
L 125.504472 258.077708 
L 125.829451 257.828306 
L 126.47941 257.828306 
L 127.454349 258.576512 
L 127.779328 258.077708 
L 128.429287 258.576512 
L 128.754267 258.576512 
L 129.404226 258.077708 
L 129.729206 258.32711 
L 130.054185 258.32711 
L 130.379165 258.576512 
L 130.704144 258.576512 
L 131.029124 258.825914 
L 131.354103 258.576512 
L 132.329042 258.576512 
L 132.654021 258.825914 
L 132.979001 258.32711 
L 133.30398 258.32711 
L 133.953939 258.825914 
L 134.278919 258.32711 
L 134.603898 258.32711 
L 134.928878 258.576512 
L 135.253857 258.32711 
L 135.578837 258.576512 
L 135.903817 258.32711 
L 137.203735 258.32711 
L 137.853694 258.825914 
L 138.178673 258.576512 
L 138.828632 258.576512 
L 139.153612 258.825914 
L 139.478591 258.825914 
L 139.803571 259.57412 
L 140.45353 263.065749 
L 140.778509 264.063357 
L 141.428468 267.554986 
L 141.753448 270.049007 
L 142.403407 278.279275 
L 142.728387 282.768512 
L 143.053366 285.262533 
L 143.703325 287.756553 
L 144.353284 289.252966 
L 144.678264 289.003563 
L 145.003243 288.005955 
L 145.328223 285.761337 
L 145.978182 279.027481 
L 146.303161 277.032264 
L 146.628141 276.034656 
L 146.95312 276.034656 
L 147.2781 275.037048 
L 147.928059 272.293625 
L 148.253038 272.543027 
L 148.902998 274.787646 
L 149.227977 275.037048 
L 149.552957 275.535852 
L 149.877936 275.785254 
L 150.202916 277.531069 
L 150.527895 280.025089 
L 150.852875 281.2721 
L 151.177854 281.022697 
L 151.502834 279.526285 
L 151.827813 278.778079 
L 152.152793 280.025089 
L 152.477772 281.770904 
L 152.802752 281.770904 
L 153.127731 280.523893 
L 153.452711 278.528677 
L 153.77769 277.531069 
L 154.427649 278.778079 
L 154.752629 278.279275 
L 155.402588 276.284058 
L 155.727568 277.281667 
L 156.052547 277.780471 
L 156.377527 277.780471 
L 156.702506 276.782862 
L 157.027486 276.284058 
L 157.677445 279.027481 
L 158.002424 279.526285 
L 158.652383 277.780471 
L 158.977363 277.780471 
L 159.302342 278.778079 
L 159.627322 280.274491 
L 159.952301 280.025089 
L 160.277281 278.778079 
L 160.60226 278.279275 
L 160.92724 278.528677 
L 161.252219 279.027481 
L 161.577199 278.778079 
L 162.227158 277.780471 
L 162.552138 278.279275 
L 162.877117 279.027481 
L 163.202097 278.778079 
L 163.852056 277.531069 
L 164.177035 277.281667 
L 164.502015 277.780471 
L 164.826994 278.778079 
L 165.151974 279.027481 
L 165.801933 277.780471 
L 166.126912 278.279275 
L 166.776871 278.778079 
L 167.42683 278.279275 
L 167.75181 278.279275 
L 168.07679 278.778079 
L 168.726749 278.778079 
L 169.376708 277.780471 
L 169.701687 278.279275 
L 170.026667 279.027481 
L 170.351646 279.027481 
L 171.001605 278.029873 
L 171.326585 277.780471 
L 171.651564 278.279275 
L 172.301523 278.778079 
L 172.626503 278.279275 
L 173.601441 278.279275 
L 173.926421 278.528677 
L 174.2514 278.528677 
L 174.57638 278.279275 
L 174.90136 278.279275 
L 175.551319 278.778079 
L 175.876298 278.279275 
L 176.201278 278.029873 
L 176.526257 278.029873 
L 176.851237 278.279275 
L 177.176216 278.778079 
L 177.501196 279.027481 
L 177.826175 278.279275 
L 178.151155 278.279275 
L 178.476134 278.029873 
L 178.801114 278.279275 
L 179.126093 278.778079 
L 179.776052 278.279275 
L 180.101032 278.279275 
L 180.750991 278.778079 
L 181.075971 278.528677 
L 181.40095 278.029873 
L 181.72593 278.029873 
L 182.050909 278.528677 
L 182.375889 278.778079 
L 182.700868 278.778079 
L 183.025848 278.279275 
L 183.350827 278.279275 
L 184.000786 278.778079 
L 184.650745 278.778079 
L 184.975725 278.029873 
L 185.300704 278.029873 
L 185.625684 278.528677 
L 185.950663 278.778079 
L 186.600622 278.279275 
L 186.925602 278.279275 
L 187.250581 278.528677 
L 187.575561 278.528677 
L 187.900541 278.778079 
L 188.875479 278.029873 
L 189.200459 278.029873 
L 189.525438 278.778079 
L 189.850418 278.778079 
L 190.175397 278.279275 
L 190.825356 278.279275 
L 191.150336 278.778079 
L 191.475315 278.528677 
L 191.800295 278.029873 
L 192.775233 278.778079 
L 193.100213 278.778079 
L 193.425192 278.279275 
L 193.750172 278.029873 
L 194.725111 278.778079 
L 195.05009 278.778079 
L 195.37507 278.279275 
L 195.700049 278.029873 
L 196.025029 278.279275 
L 196.350008 278.778079 
L 196.674988 278.778079 
L 196.999967 278.528677 
L 197.649926 278.528677 
L 198.299885 279.027481 
L 198.624865 279.027481 
L 199.274824 278.528677 
L 199.599803 278.778079 
L 199.924783 279.276883 
L 200.249762 280.025089 
L 200.574742 279.775687 
L 200.899722 280.025089 
L 201.224701 280.025089 
L 201.549681 280.274491 
L 201.87466 280.025089 
L 202.19964 278.778079 
L 203.174578 273.041831 
L 203.824537 268.552594 
L 204.799476 261.070533 
L 205.774414 258.825914 
L 206.099394 257.329502 
L 206.424373 256.581295 
L 207.399312 256.581295 
L 208.049271 255.334285 
L 208.69923 255.833089 
L 209.02421 255.583687 
L 209.349189 255.833089 
L 209.674169 255.833089 
L 209.999148 255.583687 
L 210.649107 257.0801 
L 211.624046 257.828306 
L 211.949025 258.576512 
L 212.598984 259.075316 
L 213.248943 259.075316 
L 213.573923 259.324718 
L 213.898903 259.823522 
L 214.223882 260.072924 
L 214.548862 259.823522 
L 214.873841 259.324718 
L 215.198821 259.324718 
L 215.84878 259.823522 
L 216.173759 259.324718 
L 216.498739 259.075316 
L 216.823718 258.576512 
L 217.798657 258.576512 
L 218.123636 258.32711 
L 218.773595 258.32711 
L 219.098575 258.576512 
L 219.423554 258.576512 
L 219.748534 258.32711 
L 220.073514 257.828306 
L 220.398493 257.828306 
L 220.723473 258.32711 
L 221.373432 257.828306 
L 222.023391 257.828306 
L 222.67335 258.32711 
L 224.623227 258.32711 
L 224.948206 258.576512 
L 225.598165 258.077708 
L 225.923145 258.32711 
L 226.248124 258.825914 
L 226.573104 258.576512 
L 227.223063 258.576512 
L 227.548043 258.825914 
L 227.873022 258.576512 
L 228.847961 258.576512 
L 229.17294 258.32711 
L 229.49792 258.576512 
L 230.472858 258.576512 
L 230.797838 258.32711 
L 231.447797 258.825914 
L 231.772776 258.32711 
L 232.097756 258.576512 
L 232.422735 258.32711 
L 232.747715 258.576512 
L 234.047633 258.576512 
L 234.372613 258.825914 
L 234.697592 258.576512 
L 235.022572 258.576512 
L 235.347551 258.825914 
L 235.99751 261.070533 
L 236.32249 263.065749 
L 236.972449 265.060966 
L 237.622408 270.298409 
L 238.922326 285.262533 
L 239.572285 288.005955 
L 240.222244 289.003563 
L 240.547224 288.754161 
L 240.872203 287.756553 
L 241.197183 285.511935 
L 241.847142 279.276883 
L 242.172121 277.032264 
L 242.497101 276.034656 
L 243.14706 275.037048 
L 243.797019 272.543027 
L 244.121998 272.293625 
L 244.771957 274.787646 
L 245.096937 275.535852 
L 245.421916 275.28645 
L 245.746896 275.535852 
L 246.721835 281.2721 
L 247.046814 280.773295 
L 247.371794 279.276883 
L 247.696773 278.778079 
L 248.346732 281.770904 
L 248.671712 282.020306 
L 248.996691 280.523893 
L 249.321671 278.279275 
L 249.64665 277.531069 
L 250.296609 279.276883 
L 250.946568 277.281667 
L 251.271548 276.782862 
L 251.596527 277.281667 
L 251.921507 278.029873 
L 252.246486 277.780471 
L 252.571466 276.53346 
L 252.896446 276.284058 
L 253.221425 277.281667 
L 253.546405 279.027481 
L 253.871384 279.775687 
L 254.521343 277.531069 
L 254.846323 277.780471 
L 255.496282 280.025089 
L 255.821261 279.775687 
L 256.47122 278.029873 
L 256.7962 278.279275 
L 257.121179 279.027481 
L 257.446159 279.027481 
L 258.096118 277.531069 
L 258.746077 278.528677 
L 259.071057 278.778079 
L 259.721016 277.281667 
L 260.045995 277.281667 
L 260.695954 278.778079 
L 261.020934 278.778079 
L 261.345913 278.279275 
L 261.995872 277.780471 
L 262.320852 278.528677 
L 262.645831 278.778079 
L 263.29579 278.279275 
L 263.62077 278.279275 
L 263.945749 278.528677 
L 264.270729 279.027481 
L 264.595708 278.528677 
L 264.920688 278.279275 
L 265.245667 277.780471 
L 265.895627 278.778079 
L 266.220606 279.027481 
L 267.195545 277.531069 
L 267.520524 278.029873 
L 267.845504 278.778079 
L 268.820442 278.029873 
L 269.145422 278.279275 
L 269.470401 278.279275 
L 269.795381 278.528677 
L 270.12036 278.279275 
L 270.44534 278.279275 
L 271.095299 278.778079 
L 271.420278 278.778079 
L 271.745258 278.528677 
L 272.070238 278.029873 
L 272.395217 277.780471 
L 272.720197 278.528677 
L 273.045176 278.778079 
L 273.370156 278.778079 
L 273.695135 278.279275 
L 274.020115 278.279275 
L 274.345094 278.528677 
L 274.995053 278.528677 
L 275.320033 278.279275 
L 275.969992 278.279275 
L 276.294971 278.528677 
L 276.94493 278.528677 
L 277.594889 278.029873 
L 277.919869 278.279275 
L 278.244848 278.778079 
L 278.569828 278.778079 
L 278.894808 278.279275 
L 279.544767 278.279275 
L 279.869746 278.528677 
L 280.519705 278.528677 
L 280.844685 278.279275 
L 281.169664 278.528677 
L 282.469582 278.528677 
L 282.794562 278.029873 
L 283.119541 278.528677 
L 283.7695 279.027481 
L 284.09448 278.279275 
L 284.744439 278.279275 
L 285.394398 278.778079 
L 285.719378 278.528677 
L 286.044357 278.528677 
L 286.369337 278.279275 
L 286.694316 278.778079 
L 287.019296 278.528677 
L 287.344275 278.528677 
L 287.994234 278.029873 
L 288.319214 278.778079 
L 288.644193 278.528677 
L 288.969173 278.778079 
L 289.619132 278.279275 
L 289.944111 278.279275 
L 290.269091 278.528677 
L 290.59407 278.528677 
L 290.91905 278.778079 
L 291.569009 278.279275 
L 291.893989 278.279275 
L 292.218968 278.778079 
L 292.543948 278.778079 
L 293.193907 278.279275 
L 294.168845 279.027481 
L 294.493825 278.778079 
L 294.818804 278.778079 
L 295.143784 278.528677 
L 295.468763 278.778079 
L 295.793743 279.276883 
L 296.118722 280.025089 
L 296.443702 279.775687 
L 296.768681 280.025089 
L 297.74362 280.025089 
L 298.0686 279.027481 
L 298.393579 277.281667 
L 299.043538 273.041831 
L 300.018477 265.809172 
L 300.668436 261.070533 
L 300.993415 260.072924 
L 301.318395 259.823522 
L 302.618313 256.082491 
L 302.943292 256.581295 
L 303.268272 256.331893 
L 303.593251 255.583687 
L 303.918231 255.334285 
L 304.56819 255.833089 
L 305.868108 255.833089 
L 306.193088 256.082491 
L 306.518067 257.0801 
L 306.843047 257.578904 
L 307.168026 257.828306 
L 307.493006 257.828306 
L 308.142965 259.075316 
L 309.117903 259.075316 
L 309.442883 259.57412 
L 309.767862 259.57412 
L 310.092842 259.823522 
L 310.417821 259.57412 
L 311.71774 259.57412 
L 312.042719 259.324718 
L 312.367699 258.825914 
L 312.692678 258.576512 
L 313.667617 258.576512 
L 313.992596 258.32711 
L 314.317576 258.576512 
L 314.642555 258.576512 
L 314.967535 258.32711 
L 315.942473 258.32711 
L 316.267453 257.828306 
L 316.917412 257.828306 
L 317.242391 258.077708 
L 317.567371 257.578904 
L 317.892351 258.077708 
L 318.21733 257.828306 
L 318.54231 258.32711 
L 319.517248 258.32711 
L 319.842228 258.576512 
L 320.167207 258.32711 
L 320.492187 258.32711 
L 320.817166 258.077708 
L 321.142146 258.077708 
L 321.467125 258.32711 
L 322.117084 258.32711 
L 322.767043 258.825914 
L 323.092023 258.576512 
L 324.066962 258.576512 
L 324.391941 258.32711 
L 324.716921 258.576512 
L 325.0419 258.576512 
L 325.36688 258.32711 
L 325.691859 258.576512 
L 326.016839 258.32711 
L 326.341818 258.576512 
L 326.666798 258.32711 
L 327.966716 258.32711 
L 328.291695 258.576512 
L 328.616675 258.32711 
L 328.941654 258.32711 
L 329.266634 258.576512 
L 329.591613 258.32711 
L 330.241572 258.825914 
L 330.566552 258.32711 
L 330.891532 258.825914 
L 331.216511 258.576512 
L 331.541491 259.57412 
L 333.166388 267.305584 
L 333.816347 274.03944 
L 334.466306 282.269708 
L 334.791286 285.262533 
L 335.116265 287.008347 
L 335.766224 288.754161 
L 336.091204 289.003563 
L 336.416183 289.003563 
L 336.741163 288.005955 
L 337.066143 285.761337 
L 337.716102 279.027481 
L 338.041081 277.281667 
L 338.366061 276.284058 
L 338.69104 276.034656 
L 339.340999 273.790038 
L 339.665979 272.543027 
L 339.990958 272.293625 
L 340.640917 275.037048 
L 340.965897 275.28645 
L 341.290876 275.28645 
L 341.615856 275.785254 
L 342.590794 281.022697 
L 342.915774 280.773295 
L 343.240753 279.276883 
L 343.565733 279.027481 
L 343.890713 280.025089 
L 344.215692 281.770904 
L 344.540672 282.020306 
L 344.865651 280.523893 
L 345.190631 278.279275 
L 345.51561 277.531069 
L 346.165569 278.778079 
L 347.140508 276.782862 
L 347.790467 278.029873 
L 348.115446 277.780471 
L 348.440426 276.782862 
L 348.765405 276.53346 
L 349.090385 277.281667 
L 349.415364 279.276883 
L 349.740344 279.526285 
L 350.390303 277.531069 
L 350.715283 277.531069 
L 351.040262 279.276883 
L 351.365242 280.025089 
L 351.690221 279.526285 
L 352.34018 278.279275 
L 352.66516 278.528677 
L 352.990139 279.027481 
L 353.315119 278.778079 
L 353.640098 278.029873 
L 353.965078 277.780471 
L 354.290057 278.029873 
L 354.940016 279.027481 
L 355.589975 277.281667 
L 355.914955 277.531069 
L 356.239934 278.029873 
L 356.564914 278.778079 
L 357.539853 278.029873 
L 357.864832 278.029873 
L 358.189812 278.528677 
L 358.514791 278.778079 
L 359.16475 278.279275 
L 359.48973 278.279275 
L 359.814709 278.778079 
L 360.139689 279.027481 
L 360.464668 278.778079 
L 360.789648 278.029873 
L 361.114627 277.780471 
L 361.764586 278.778079 
L 362.089566 278.778079 
L 362.414545 278.528677 
L 362.739525 278.029873 
L 363.064505 277.780471 
L 363.389484 278.029873 
L 363.714464 278.528677 
L 364.364423 278.528677 
L 364.689402 278.279275 
L 365.014382 278.279275 
L 365.339361 278.528677 
L 365.664341 278.279275 
L 365.98932 277.780471 
L 366.3143 278.029873 
L 366.639279 278.528677 
L 366.964259 278.778079 
L 367.939197 278.029873 
L 368.264177 278.029873 
L 368.914136 278.528677 
L 369.564095 278.528677 
L 369.889075 278.029873 
L 370.539034 278.528677 
L 370.864013 278.528677 
L 371.188993 278.029873 
L 371.513972 278.029873 
L 372.163931 278.528677 
L 372.81389 278.528677 
L 373.13887 278.279275 
L 373.463849 278.279275 
L 373.788829 278.029873 
L 374.113808 278.778079 
L 374.763767 278.279275 
L 375.413726 278.279275 
L 375.738706 278.528677 
L 376.063686 278.528677 
L 376.388665 278.279275 
L 376.713645 278.279275 
L 377.038624 278.029873 
L 377.688583 278.528677 
L 378.338542 278.528677 
L 378.663522 278.029873 
L 379.63846 278.778079 
L 379.96344 278.778079 
L 380.613399 278.279275 
L 380.938378 278.279275 
L 381.263358 278.528677 
L 381.588337 278.279275 
L 381.913317 278.528677 
L 382.238296 278.279275 
L 383.213235 278.279275 
L 383.538215 278.528677 
L 383.863194 278.279275 
L 384.513153 278.778079 
L 384.838133 278.528677 
L 385.163112 278.528677 
L 385.488092 278.279275 
L 385.813071 278.279275 
L 386.138051 278.528677 
L 386.46303 279.027481 
L 386.78801 278.528677 
L 387.112989 278.279275 
L 387.437969 278.279275 
L 387.762948 278.528677 
L 388.087928 278.528677 
L 388.412907 278.778079 
L 388.737887 278.778079 
L 389.062867 278.528677 
L 389.387846 278.029873 
L 389.712826 278.778079 
L 390.362785 278.778079 
L 390.687764 278.528677 
L 391.337723 278.528677 
L 391.662703 279.276883 
L 391.987682 279.526285 
L 392.312662 280.025089 
L 392.962621 280.025089 
L 393.2876 280.274491 
L 393.61258 280.274491 
L 393.937559 279.027481 
L 394.587518 275.037048 
L 395.562457 268.552594 
L 396.212416 263.065749 
L 396.537396 261.319935 
L 397.187355 259.57412 
L 397.512334 258.825914 
L 398.162293 256.331893 
L 398.487273 256.331893 
L 398.487273 256.331893 
" clip-path="url(#pd57b0adee3)" style="fill: none; stroke: #ff7f0e; stroke-width: 1.5; stroke-linecap: square"/>
   </g>
   <g id="line2d_15">
    <path d="M 73.832727 280.523876 
L 74.157707 278.029856 
L 74.482686 278.029856 
L 75.457625 285.511918 
L 75.782604 285.511918 
L 76.107584 280.523876 
L 76.757543 285.511918 
L 77.082523 280.523876 
L 77.407502 278.029856 
L 77.732482 280.523876 
L 78.057461 280.523876 
L 78.382441 283.017897 
L 78.70742 283.017897 
L 79.0324 285.511918 
L 79.682359 280.523876 
L 80.332318 285.511918 
L 80.982277 285.511918 
L 81.307256 283.017897 
L 81.632236 283.017897 
L 81.957215 285.511918 
L 82.282195 283.017897 
L 82.607174 283.017897 
L 82.932154 288.005938 
L 83.257133 285.511918 
L 83.582113 288.005938 
L 83.907093 285.511918 
L 84.232072 290.499959 
L 84.557052 283.017897 
L 84.882031 283.017897 
L 85.207011 285.511918 
L 86.181949 285.511918 
L 86.506929 280.523876 
L 86.831908 280.523876 
L 87.156888 285.511918 
L 87.481867 288.005938 
L 87.806847 285.511918 
L 89.106765 285.511918 
L 89.431744 288.005938 
L 90.081704 283.017897 
L 90.731663 288.005938 
L 91.381622 288.005938 
L 91.706601 283.017897 
L 92.031581 283.017897 
L 92.35656 285.511918 
L 93.006519 285.511918 
L 93.331499 290.499959 
L 93.981458 280.523876 
L 94.306437 273.041814 
L 94.631417 270.547794 
L 95.281376 250.595629 
L 95.606355 233.137485 
L 95.931335 223.161402 
L 96.256314 228.149443 
L 96.581294 235.631505 
L 96.906274 230.643464 
L 97.231253 215.67934 
L 97.881212 173.28099 
L 98.206192 165.798928 
L 98.856151 190.739134 
L 99.18113 190.739134 
L 99.831089 135.87068 
L 100.156069 120.906557 
L 100.481048 125.894598 
L 101.131007 150.834804 
L 101.455987 135.87068 
L 102.105946 90.978309 
L 102.430925 98.460371 
L 102.755905 110.930474 
L 103.080885 113.424495 
L 103.405864 93.47233 
L 103.730844 81.002227 
L 104.055823 78.508206 
L 104.380803 98.460371 
L 104.705782 98.460371 
L 105.030762 90.978309 
L 105.355741 66.038103 
L 105.680721 56.062021 
L 106.0057 68.532124 
L 106.33068 85.990268 
L 106.655659 88.484289 
L 106.980639 81.002227 
L 107.305618 58.556041 
L 107.630598 56.062021 
L 107.955577 68.532124 
L 108.280557 73.520165 
L 108.930516 68.532124 
L 109.255495 63.544082 
L 109.905455 73.520165 
L 110.230434 76.014186 
L 110.880393 66.038103 
L 111.855332 81.002227 
L 112.180311 83.496247 
L 112.505291 76.014186 
L 112.83027 73.520165 
L 113.15525 78.508206 
L 113.480229 81.002227 
L 113.805209 85.990268 
L 114.130188 88.484289 
L 114.455168 88.484289 
L 115.105127 83.496247 
L 115.430106 90.978309 
L 116.405045 90.978309 
L 116.730025 95.966351 
L 117.379984 100.954392 
L 118.029943 95.966351 
L 118.354922 98.460371 
L 118.679902 95.966351 
L 119.004881 95.966351 
L 119.329861 103.448412 
L 119.97982 103.448412 
L 120.304799 98.460371 
L 120.954758 98.460371 
L 121.604717 103.448412 
L 121.929697 103.448412 
L 122.254676 100.954392 
L 122.579656 103.448412 
L 122.904636 98.460371 
L 123.554595 98.460371 
L 123.879574 93.47233 
L 124.204554 90.978309 
L 124.529533 95.966351 
L 124.854513 98.460371 
L 125.179492 95.966351 
L 125.504472 88.484289 
L 125.829451 90.978309 
L 126.154431 88.484289 
L 126.47941 88.484289 
L 126.80439 90.978309 
L 127.129369 88.484289 
L 127.454349 83.496247 
L 127.779328 85.990268 
L 128.104308 83.496247 
L 128.754267 83.496247 
L 129.079247 78.508206 
L 129.404226 76.014186 
L 129.729206 76.014186 
L 130.379165 81.002227 
L 130.704144 73.520165 
L 131.029124 73.520165 
L 131.354103 71.026144 
L 131.679083 71.026144 
L 132.004062 73.520165 
L 132.979001 73.520165 
L 133.30398 68.532124 
L 133.62896 68.532124 
L 133.953939 71.026144 
L 134.603898 71.026144 
L 135.578837 78.508206 
L 135.903817 73.520165 
L 136.228796 76.014186 
L 136.553776 76.014186 
L 136.878755 81.002227 
L 137.528714 85.990268 
L 137.853694 85.990268 
L 138.178673 88.484289 
L 138.503653 88.484289 
L 138.828632 90.978309 
L 139.153612 100.954392 
L 139.803571 100.954392 
L 140.12855 108.436454 
L 140.45353 108.436454 
L 140.778509 115.918515 
L 141.103489 115.918515 
L 141.428468 120.906557 
L 141.753448 123.400577 
L 142.403407 133.37666 
L 142.728387 140.858722 
L 143.053366 143.352742 
L 143.378346 150.834804 
L 143.703325 153.328825 
L 144.353284 163.304907 
L 144.678264 170.786969 
L 145.003243 170.786969 
L 145.328223 180.763052 
L 145.653202 183.257072 
L 145.978182 193.233155 
L 146.303161 193.233155 
L 147.2781 213.18532 
L 147.603079 215.67934 
L 148.253038 225.655423 
L 148.578018 233.137485 
L 148.902998 233.137485 
L 149.552957 243.113567 
L 150.202916 248.101608 
L 150.527895 255.58367 
L 150.852875 258.077691 
L 151.177854 265.559753 
L 151.502834 263.065732 
L 151.827813 273.041814 
L 152.152793 273.041814 
L 153.127731 280.523876 
L 153.452711 285.511918 
L 153.77769 288.005938 
L 154.10267 285.511918 
L 154.752629 290.499959 
L 155.077609 288.005938 
L 155.402588 288.005938 
L 155.727568 292.993979 
L 156.052547 292.993979 
L 156.377527 290.499959 
L 156.702506 285.511918 
L 157.027486 288.005938 
L 157.352465 288.005938 
L 158.002424 283.017897 
L 158.977363 290.499959 
L 159.302342 283.017897 
L 159.627322 283.017897 
L 159.952301 285.511918 
L 160.60226 285.511918 
L 160.92724 290.499959 
L 161.902179 283.017897 
L 162.227158 285.511918 
L 162.552138 285.511918 
L 162.877117 283.017897 
L 163.527076 283.017897 
L 163.852056 280.523876 
L 164.502015 280.523876 
L 165.151974 285.511918 
L 165.476953 285.511918 
L 165.801933 283.017897 
L 166.126912 285.511918 
L 166.451892 285.511918 
L 166.776871 283.017897 
L 167.101851 283.017897 
L 167.42683 290.499959 
L 167.75181 285.511918 
L 168.726749 278.029856 
L 169.051728 283.017897 
L 169.376708 285.511918 
L 169.701687 280.523876 
L 170.676626 280.523876 
L 171.326585 285.511918 
L 171.976544 285.511918 
L 172.301523 280.523876 
L 172.626503 288.005938 
L 172.951482 283.017897 
L 173.276462 283.017897 
L 173.601441 280.523876 
L 173.926421 285.511918 
L 174.2514 283.017897 
L 174.57638 288.005938 
L 174.90136 283.017897 
L 175.226339 280.523876 
L 175.551319 283.017897 
L 176.201278 283.017897 
L 176.526257 288.005938 
L 177.501196 280.523876 
L 177.826175 285.511918 
L 179.451073 285.511918 
L 179.776052 290.499959 
L 180.426011 285.511918 
L 180.750991 285.511918 
L 181.075971 283.017897 
L 181.40095 283.017897 
L 181.72593 285.511918 
L 182.050909 285.511918 
L 182.700868 280.523876 
L 183.025848 288.005938 
L 183.350827 285.511918 
L 183.675807 288.005938 
L 184.000786 288.005938 
L 184.325766 285.511918 
L 184.650745 288.005938 
L 184.975725 288.005938 
L 185.300704 285.511918 
L 186.600622 285.511918 
L 186.925602 288.005938 
L 187.575561 288.005938 
L 187.900541 283.017897 
L 188.22552 285.511918 
L 188.5505 285.511918 
L 188.875479 288.005938 
L 189.200459 285.511918 
L 189.525438 288.005938 
L 189.850418 283.017897 
L 190.175397 280.523876 
L 190.500377 268.053773 
L 191.150336 250.595629 
L 191.475315 233.137485 
L 191.800295 223.161402 
L 192.125274 225.655423 
L 192.450254 230.643464 
L 192.775233 233.137485 
L 193.425192 195.727175 
L 193.750172 173.28099 
L 194.075152 165.798928 
L 194.400131 173.28099 
L 194.725111 188.245113 
L 195.05009 185.751093 
L 195.37507 165.798928 
L 195.700049 133.37666 
L 196.025029 118.412536 
L 196.350008 123.400577 
L 196.674988 138.364701 
L 196.999967 145.846763 
L 197.324947 135.87068 
L 197.649926 110.930474 
L 197.974906 98.460371 
L 198.299885 95.966351 
L 198.624865 110.930474 
L 198.949844 110.930474 
L 199.599803 78.508206 
L 199.924783 78.508206 
L 200.574742 103.448412 
L 201.549681 56.062021 
L 201.87466 66.038103 
L 202.19964 83.496247 
L 202.524619 88.484289 
L 203.499558 53.568 
L 204.149517 71.026144 
L 204.474496 68.532124 
L 204.799476 68.532124 
L 205.124455 63.544082 
L 205.449435 68.532124 
L 205.774414 76.014186 
L 206.099394 73.520165 
L 206.424373 68.532124 
L 206.749353 66.038103 
L 207.074333 68.532124 
L 207.399312 73.520165 
L 207.724292 83.496247 
L 208.374251 83.496247 
L 208.69923 73.520165 
L 209.349189 78.508206 
L 209.674169 85.990268 
L 209.999148 88.484289 
L 210.324128 88.484289 
L 210.649107 85.990268 
L 210.974087 90.978309 
L 211.299066 88.484289 
L 211.624046 88.484289 
L 211.949025 90.978309 
L 212.274005 88.484289 
L 212.598984 90.978309 
L 212.923964 98.460371 
L 213.573923 103.448412 
L 213.898903 95.966351 
L 214.223882 98.460371 
L 214.548862 98.460371 
L 215.198821 103.448412 
L 215.5238 103.448412 
L 215.84878 100.954392 
L 216.173759 100.954392 
L 216.498739 98.460371 
L 217.148698 103.448412 
L 217.798657 98.460371 
L 218.123636 98.460371 
L 218.448616 100.954392 
L 218.773595 105.942433 
L 219.098575 98.460371 
L 219.423554 98.460371 
L 219.748534 93.47233 
L 220.398493 93.47233 
L 220.723473 95.966351 
L 221.048452 95.966351 
L 221.373432 93.47233 
L 221.698411 88.484289 
L 222.34837 88.484289 
L 222.998329 83.496247 
L 223.323309 85.990268 
L 223.973268 85.990268 
L 224.298247 81.002227 
L 224.623227 81.002227 
L 224.948206 76.014186 
L 225.273186 78.508206 
L 225.923145 78.508206 
L 226.248124 73.520165 
L 226.573104 76.014186 
L 226.898084 73.520165 
L 227.223063 73.520165 
L 227.548043 71.026144 
L 227.873022 73.520165 
L 228.198002 68.532124 
L 228.522981 71.026144 
L 229.49792 71.026144 
L 229.822899 73.520165 
L 230.147879 68.532124 
L 230.472858 68.532124 
L 230.797838 71.026144 
L 231.122817 76.014186 
L 232.422735 76.014186 
L 232.747715 81.002227 
L 233.072695 78.508206 
L 233.397674 81.002227 
L 233.722654 88.484289 
L 234.047633 88.484289 
L 234.372613 90.978309 
L 234.697592 88.484289 
L 235.022572 98.460371 
L 235.347551 100.954392 
L 235.672531 108.436454 
L 235.99751 110.930474 
L 236.32249 110.930474 
L 236.647469 113.424495 
L 236.972449 120.906557 
L 237.297428 118.412536 
L 238.272367 133.37666 
L 238.597346 135.87068 
L 238.922326 145.846763 
L 239.572285 155.822845 
L 239.897265 155.822845 
L 240.222244 160.810887 
L 240.872203 173.28099 
L 241.522162 183.257072 
L 242.172121 198.221196 
L 242.497101 198.221196 
L 242.82208 203.209237 
L 243.14706 210.691299 
L 243.472039 213.18532 
L 243.797019 218.173361 
L 244.446978 230.643464 
L 244.771957 235.631505 
L 245.096937 235.631505 
L 245.746896 248.101608 
L 246.071876 253.089649 
L 246.721835 258.077691 
L 247.371794 268.053773 
L 247.696773 268.053773 
L 248.346732 278.029856 
L 248.671712 280.523876 
L 248.996691 280.523876 
L 249.321671 288.005938 
L 249.64665 288.005938 
L 249.97163 292.993979 
L 250.296609 288.005938 
L 250.621589 290.499959 
L 250.946568 288.005938 
L 251.271548 292.993979 
L 251.921507 292.993979 
L 252.246486 290.499959 
L 252.571466 290.499959 
L 252.896446 285.511918 
L 253.546405 285.511918 
L 253.871384 283.017897 
L 254.196364 283.017897 
L 254.521343 285.511918 
L 254.846323 290.499959 
L 255.496282 285.511918 
L 255.821261 288.005938 
L 256.146241 285.511918 
L 256.47122 288.005938 
L 257.121179 288.005938 
L 257.446159 285.511918 
L 257.771138 285.511918 
L 258.096118 283.017897 
L 258.746077 283.017897 
L 259.396036 278.029856 
L 259.721016 283.017897 
L 260.045995 280.523876 
L 260.370975 280.523876 
L 260.695954 275.535835 
L 261.020934 285.511918 
L 261.345913 285.511918 
L 261.670893 288.005938 
L 261.995872 288.005938 
L 262.320852 285.511918 
L 262.970811 290.499959 
L 263.29579 288.005938 
L 263.62077 288.005938 
L 263.945749 285.511918 
L 264.270729 280.523876 
L 264.595708 278.029856 
L 264.920688 283.017897 
L 265.245667 285.511918 
L 265.570647 285.511918 
L 265.895627 280.523876 
L 266.545586 280.523876 
L 266.870565 283.017897 
L 267.195545 288.005938 
L 267.520524 288.005938 
L 267.845504 285.511918 
L 268.170483 290.499959 
L 268.495463 283.017897 
L 268.820442 283.017897 
L 269.145422 285.511918 
L 269.470401 285.511918 
L 269.795381 283.017897 
L 270.12036 288.005938 
L 270.44534 290.499959 
L 270.770319 288.005938 
L 271.095299 280.523876 
L 271.420278 280.523876 
L 272.070238 285.511918 
L 272.720197 285.511918 
L 273.045176 280.523876 
L 273.370156 285.511918 
L 273.695135 280.523876 
L 274.020115 283.017897 
L 274.345094 288.005938 
L 274.995053 283.017897 
L 275.320033 288.005938 
L 275.645012 290.499959 
L 275.969992 288.005938 
L 276.294971 283.017897 
L 276.619951 285.511918 
L 276.94493 285.511918 
L 277.26991 288.005938 
L 277.594889 288.005938 
L 278.244848 283.017897 
L 278.569828 285.511918 
L 278.894808 285.511918 
L 279.219787 288.005938 
L 279.544767 288.005938 
L 280.194726 283.017897 
L 281.169664 290.499959 
L 281.494644 283.017897 
L 281.819623 285.511918 
L 282.469582 285.511918 
L 283.119541 290.499959 
L 283.444521 288.005938 
L 283.7695 288.005938 
L 284.09448 283.017897 
L 284.419459 285.511918 
L 284.744439 285.511918 
L 285.394398 280.523876 
L 285.719378 280.523876 
L 286.044357 273.041814 
L 286.369337 270.547794 
L 287.669255 223.161402 
L 287.994234 225.655423 
L 288.319214 233.137485 
L 288.644193 230.643464 
L 288.969173 218.173361 
L 289.619132 170.786969 
L 289.944111 165.798928 
L 290.269091 173.28099 
L 290.59407 185.751093 
L 290.91905 185.751093 
L 291.893989 115.918515 
L 292.218968 123.400577 
L 292.543948 140.858722 
L 292.868927 145.846763 
L 293.193907 133.37666 
L 293.518886 105.942433 
L 293.843866 90.978309 
L 294.493825 108.436454 
L 294.818804 108.436454 
L 295.468763 76.014186 
L 295.793743 76.014186 
L 296.443702 100.954392 
L 296.768681 88.484289 
L 297.093661 63.544082 
L 297.41864 56.062021 
L 297.74362 66.038103 
L 298.0686 83.496247 
L 298.393579 85.990268 
L 298.718559 76.014186 
L 299.043538 58.556041 
L 299.693497 63.544082 
L 300.018477 73.520165 
L 300.343456 73.520165 
L 300.668436 66.038103 
L 300.993415 63.544082 
L 301.643374 76.014186 
L 301.968354 76.014186 
L 302.293333 66.038103 
L 302.618313 63.544082 
L 302.943292 66.038103 
L 303.593251 83.496247 
L 303.918231 83.496247 
L 304.24321 78.508206 
L 304.56819 76.014186 
L 304.89317 76.014186 
L 305.543129 85.990268 
L 305.868108 83.496247 
L 306.193088 85.990268 
L 306.518067 90.978309 
L 306.843047 88.484289 
L 307.168026 90.978309 
L 307.493006 85.990268 
L 307.817985 90.978309 
L 308.142965 90.978309 
L 308.792924 100.954392 
L 309.117903 100.954392 
L 309.442883 98.460371 
L 309.767862 98.460371 
L 310.092842 93.47233 
L 310.417821 93.47233 
L 310.742801 98.460371 
L 311.067781 100.954392 
L 311.39276 100.954392 
L 311.71774 103.448412 
L 312.367699 103.448412 
L 312.692678 98.460371 
L 313.017658 100.954392 
L 313.342637 98.460371 
L 313.667617 98.460371 
L 313.992596 100.954392 
L 314.967535 100.954392 
L 315.292514 95.966351 
L 315.617494 93.47233 
L 315.942473 95.966351 
L 316.267453 95.966351 
L 316.592432 93.47233 
L 316.917412 95.966351 
L 317.242391 93.47233 
L 317.567371 93.47233 
L 317.892351 85.990268 
L 318.21733 90.978309 
L 318.54231 88.484289 
L 318.867289 88.484289 
L 319.192269 85.990268 
L 320.167207 85.990268 
L 320.492187 78.508206 
L 320.817166 76.014186 
L 321.142146 78.508206 
L 321.467125 76.014186 
L 321.792105 76.014186 
L 322.117084 78.508206 
L 322.442064 78.508206 
L 322.767043 73.520165 
L 323.092023 71.026144 
L 323.417002 73.520165 
L 323.741982 71.026144 
L 324.066962 73.520165 
L 324.391941 68.532124 
L 324.716921 68.532124 
L 325.36688 73.520165 
L 325.691859 68.532124 
L 326.016839 68.532124 
L 326.666798 73.520165 
L 326.991777 71.026144 
L 327.316757 76.014186 
L 327.641736 76.014186 
L 327.966716 78.508206 
L 328.291695 73.520165 
L 328.941654 83.496247 
L 329.266634 83.496247 
L 330.891532 95.966351 
L 331.541491 105.942433 
L 331.86647 105.942433 
L 332.19145 108.436454 
L 332.516429 115.918515 
L 332.841409 118.412536 
L 333.166388 123.400577 
L 333.491368 123.400577 
L 334.791286 143.352742 
L 335.441245 155.822845 
L 335.766224 160.810887 
L 336.091204 158.316866 
L 336.416183 168.292948 
L 337.391122 183.257072 
L 338.366061 203.209237 
L 338.69104 203.209237 
L 339.665979 223.161402 
L 339.990958 225.655423 
L 340.965897 240.619546 
L 341.290876 243.113567 
L 341.940835 253.089649 
L 342.265815 253.089649 
L 343.240753 268.053773 
L 344.215692 275.535835 
L 344.540672 280.523876 
L 344.865651 280.523876 
L 345.190631 283.017897 
L 345.84059 292.993979 
L 346.165569 292.993979 
L 346.490549 288.005938 
L 346.815528 290.499959 
L 347.140508 295.488 
L 347.465487 295.488 
L 347.790467 288.005938 
L 348.115446 292.993979 
L 348.440426 288.005938 
L 348.765405 290.499959 
L 349.090385 283.017897 
L 349.740344 283.017897 
L 350.065324 285.511918 
L 350.390303 283.017897 
L 350.715283 288.005938 
L 351.040262 285.511918 
L 351.365242 285.511918 
L 351.690221 283.017897 
L 352.015201 285.511918 
L 352.34018 290.499959 
L 352.66516 290.499959 
L 352.990139 283.017897 
L 353.315119 283.017897 
L 353.965078 288.005938 
L 354.290057 283.017897 
L 354.615037 285.511918 
L 354.940016 280.523876 
L 355.264996 283.017897 
L 355.589975 280.523876 
L 355.914955 280.523876 
L 356.564914 285.511918 
L 356.889894 283.017897 
L 357.539853 288.005938 
L 358.189812 283.017897 
L 358.514791 288.005938 
L 358.839771 288.005938 
L 359.16475 290.499959 
L 359.48973 285.511918 
L 360.139689 285.511918 
L 360.464668 283.017897 
L 360.789648 285.511918 
L 361.114627 285.511918 
L 361.439607 283.017897 
L 361.764586 283.017897 
L 362.089566 278.029856 
L 362.739525 288.005938 
L 363.389484 283.017897 
L 363.714464 290.499959 
L 364.039443 290.499959 
L 364.364423 292.993979 
L 364.689402 285.511918 
L 365.98932 285.511918 
L 366.3143 288.005938 
L 366.639279 285.511918 
L 366.964259 288.005938 
L 367.289238 283.017897 
L 367.614218 283.017897 
L 367.939197 285.511918 
L 368.264177 285.511918 
L 368.589156 283.017897 
L 368.914136 283.017897 
L 369.239115 285.511918 
L 369.564095 285.511918 
L 369.889075 283.017897 
L 370.214054 288.005938 
L 370.539034 283.017897 
L 370.864013 285.511918 
L 371.188993 285.511918 
L 371.513972 288.005938 
L 371.838952 285.511918 
L 372.163931 288.005938 
L 372.488911 283.017897 
L 372.81389 283.017897 
L 373.13887 288.005938 
L 373.788829 283.017897 
L 374.113808 283.017897 
L 374.763767 288.005938 
L 375.088747 285.511918 
L 375.413726 290.499959 
L 375.738706 285.511918 
L 376.063686 285.511918 
L 376.713645 290.499959 
L 377.038624 290.499959 
L 378.013563 283.017897 
L 378.663522 288.005938 
L 378.988501 288.005938 
L 379.313481 292.993979 
L 379.96344 288.005938 
L 380.288419 283.017897 
L 380.613399 288.005938 
L 380.938378 288.005938 
L 381.263358 285.511918 
L 382.238296 270.547794 
L 382.563276 260.571711 
L 383.213235 230.643464 
L 383.538215 225.655423 
L 383.863194 223.161402 
L 384.188174 230.643464 
L 384.513153 233.137485 
L 384.838133 218.173361 
L 385.488092 170.786969 
L 385.813071 168.292948 
L 386.138051 175.77501 
L 386.46303 188.245113 
L 386.78801 183.257072 
L 387.112989 163.304907 
L 387.437969 133.37666 
L 387.762948 120.906557 
L 388.087928 120.906557 
L 388.412907 138.364701 
L 388.737887 145.846763 
L 389.062867 130.882639 
L 389.387846 105.942433 
L 389.712826 93.47233 
L 390.037805 100.954392 
L 390.362785 115.918515 
L 390.687764 108.436454 
L 391.337723 78.508206 
L 391.662703 78.508206 
L 391.987682 93.47233 
L 392.312662 98.460371 
L 392.637641 85.990268 
L 392.962621 66.038103 
L 393.2876 56.062021 
L 393.61258 66.038103 
L 393.937559 81.002227 
L 394.262539 85.990268 
L 394.912498 61.050062 
L 395.237477 58.556041 
L 395.562457 68.532124 
L 395.887437 73.520165 
L 396.212416 73.520165 
L 396.537396 66.038103 
L 396.862375 63.544082 
L 397.512334 73.520165 
L 397.837314 73.520165 
L 398.162293 68.532124 
L 398.487273 61.050062 
L 398.487273 61.050062 
" clip-path="url(#pd57b0adee3)" style="fill: none; stroke: #2ca02c; stroke-width: 1.5; stroke-linecap: square"/>
   </g>
   <g id="patch_3">
    <path d="M 57.6 307.584 
L 57.6 41.472 
" style="fill: none; stroke: #000000; stroke-width: 0.8; stroke-linejoin: miter; stroke-linecap: square"/>
   </g>
   <g id="patch_4">
    <path d="M 414.72 307.584 
L 414.72 41.472 
" style="fill: none; stroke: #000000; stroke-width: 0.8; stroke-linejoin: miter; stroke-linecap: square"/>
   </g>
   <g id="patch_5">
    <path d="M 57.6 307.584 
L 414.72 307.584 
" style="fill: none; stroke: #000000; stroke-width: 0.8; stroke-linejoin: miter; stroke-linecap: square"/>
   </g>
   <g id="patch_6">
    <path d="M 57.6 41.472 
L 414.72 41.472 
" style="fill: none; stroke: #000000; stroke-width: 0.8; stroke-linejoin: miter; stroke-linecap: square"/>
   </g>
  </g>
 </g>
 <defs>
  <clipPath id="pd57b0adee3">
   <rect x="57.6" y="41.472" width="357.12" height="266.112"/>
  </clipPath>
 </defs>
</svg>
