<?xml version="1.0" encoding="utf-8" standalone="no"?>
<!DOCTYPE svg PUBLIC "-//W3C//DTD SVG 1.1//EN"
  "http://www.w3.org/Graphics/SVG/1.1/DTD/svg11.dtd">
<svg xmlns:xlink="http://www.w3.org/1999/xlink" width="460.8pt" height="345.6pt" viewBox="0 0 460.8 345.6" xmlns="http://www.w3.org/2000/svg" version="1.1">
 <metadata>
  <rdf:RDF xmlns:dc="http://purl.org/dc/elements/1.1/" xmlns:cc="http://creativecommons.org/ns#" xmlns:rdf="http://www.w3.org/1999/02/22-rdf-syntax-ns#">
   <cc:Work>
    <dc:type rdf:resource="http://purl.org/dc/dcmitype/StillImage"/>
    <dc:date>2025-12-24T02:56:51.465043</dc:date>
    <dc:format>image/svg+xml</dc:format>
    <dc:creator>
     <cc:Agent>
      <dc:title>Matplotlib v3.10.8, https://matplotlib.org/</dc:title>
     </cc:Agent>
    </dc:creator>
   </cc:Work>
  </rdf:RDF>
 </metadata>
 <defs>
  <style type="text/css">*{stroke-linejoin: round; stroke-linecap: butt}</style>
 </defs>
 <g id="figure_1">
  <g id="patch_1">
   <path d="M 0 345.6 
L 460.8 345.6 
L 460.8 0 
L 0 0 
z
" style="fill: #ffffff"/>
  </g>
  <g id="axes_1">
   <g id="patch_2">
    <path d="M 57.6 307.584 
L 414.72 307.584 
L 414.72 41.472 
L 57.6 41.472 
z
" style="fill: #ffffff"/>
   </g>
   <g id="matplotlib.axis_1">
    <g id="xtick_1">
     <g id="line2d_1">
      <defs>
       <path id="m5b118d1003" d="M 0 0 
L 0 3.5 
" style="stroke: #000000; stroke-width: 0.8"/>
      </defs>
      <g>
       <use xlink:href="#m5b118d1003" x="73.832727" y="307.584" style="stroke: #000000; stroke-width: 0.8"/>
      </g>
     </g>
     <g id="text_1">
      <!-- 0 -->
      <g transform="translate(70.651477 322.182437) scale(0.1 -0.1)">
       <defs>
        <path id="DejaVuSans-30" d="M 2034 4250 
Q 1547 4250 1301 3770 
Q 1056 3291 1056 2328 
Q 1056 1369 1301 889 
Q 1547 409 2034 409 
Q 2525 409 2770 889 
Q 3016 1369 3016 2328 
Q 3016 3291 2770 3770 
Q 2525 4250 2034 4250 
z
M 2034 4750 
Q 2819 4750 3233 4129 
Q 3647 3509 3647 2328 
Q 3647 1150 3233 529 
Q 2819 -91 2034 -91 
Q 1250 -91 836 529 
Q 422 1150 422 2328 
Q 422 3509 836 4129 
Q 1250 4750 2034 4750 
z
" transform="scale(0.015625)"/>
       </defs>
       <use xlink:href="#DejaVuSans-30"/>
      </g>
     </g>
    </g>
    <g id="xtick_2">
     <g id="line2d_2">
      <g>
       <use xlink:href="#m5b118d1003" x="138.828632" y="307.584" style="stroke: #000000; stroke-width: 0.8"/>
      </g>
     </g>
     <g id="text_2">
      <!-- 1 -->
      <g transform="translate(135.647382 322.182437) scale(0.1 -0.1)">
       <defs>
        <path id="DejaVuSans-31" d="M 794 531 
L 1825 531 
L 1825 4091 
L 703 3866 
L 703 4441 
L 1819 4666 
L 2450 4666 
L 2450 531 
L 3481 531 
L 3481 0 
L 794 0 
L 794 531 
z
" transform="scale(0.015625)"/>
       </defs>
       <use xlink:href="#DejaVuSans-31"/>
      </g>
     </g>
    </g>
    <g id="xtick_3">
     <g id="line2d_3">
      <g>
       <use xlink:href="#m5b118d1003" x="203.824537" y="307.584" style="stroke: #000000; stroke-width: 0.8"/>
      </g>
     </g>
     <g id="text_3">
      <!-- 2 -->
      <g transform="translate(200.643287 322.182437) scale(0.1 -0.1)">
       <defs>
        <path id="DejaVuSans-32" d="M 1228 531 
L 3431 531 
L 3431 0 
L 469 0 
L 469 531 
Q 828 903 1448 1529 
Q 2069 2156 2228 2338 
Q 2531 2678 2651 2914 
Q 2772 3150 2772 3378 
Q 2772 3750 2511 3984 
Q 2250 4219 1831 4219 
Q 1534 4219 1204 4116 
Q 875 4013 500 3803 
L 500 4441 
Q 881 4594 1212 4672 
Q 1544 4750 1819 4750 
Q 2544 4750 2975 4387 
Q 3406 4025 3406 3419 
Q 3406 3131 3298 2873 
Q 3191 2616 2906 2266 
Q 2828 2175 2409 1742 
Q 1991 1309 1228 531 
z
" transform="scale(0.015625)"/>
       </defs>
       <use xlink:href="#DejaVuSans-32"/>
      </g>
     </g>
    </g>
    <g id="xtick_4">
     <g id="line2d_4">
      <g>
       <use xlink:href="#m5b118d1003" x="268.820442" y="307.584" style="stroke: #000000; stroke-width: 0.8"/>
      </g>
     </g>
     <g id="text_4">
      <!-- 3 -->
      <g transform="translate(265.639192 322.182437) scale(0.1 -0.1)">
       <defs>
        <path id="DejaVuSans-33" d="M 2597 2516 
Q 3050 2419 3304 2112 
Q 3559 1806 3559 1356 
Q 3559 666 3084 287 
Q 2609 -91 1734 -91 
Q 1441 -91 1130 -33 
Q 819 25 488 141 
L 488 750 
Q 750 597 1062 519 
Q 1375 441 1716 441 
Q 2309 441 2620 675 
Q 2931 909 2931 1356 
Q 2931 1769 2642 2001 
Q 2353 2234 1838 2234 
L 1294 2234 
L 1294 2753 
L 1863 2753 
Q 2328 2753 2575 2939 
Q 2822 3125 2822 3475 
Q 2822 3834 2567 4026 
Q 2313 4219 1838 4219 
Q 1578 4219 1281 4162 
Q 984 4106 628 3988 
L 628 4550 
Q 988 4650 1302 4700 
Q 1616 4750 1894 4750 
Q 2613 4750 3031 4423 
Q 3450 4097 3450 3541 
Q 3450 3153 3228 2886 
Q 3006 2619 2597 2516 
z
" transform="scale(0.015625)"/>
       </defs>
       <use xlink:href="#DejaVuSans-33"/>
      </g>
     </g>
    </g>
    <g id="xtick_5">
     <g id="line2d_5">
      <g>
       <use xlink:href="#m5b118d1003" x="333.816347" y="307.584" style="stroke: #000000; stroke-width: 0.8"/>
      </g>
     </g>
     <g id="text_5">
      <!-- 4 -->
      <g transform="translate(330.635097 322.182437) scale(0.1 -0.1)">
       <defs>
        <path id="DejaVuSans-34" d="M 2419 4116 
L 825 1625 
L 2419 1625 
L 2419 4116 
z
M 2253 4666 
L 3047 4666 
L 3047 1625 
L 3713 1625 
L 3713 1100 
L 3047 1100 
L 3047 0 
L 2419 0 
L 2419 1100 
L 313 1100 
L 313 1709 
L 2253 4666 
z
" transform="scale(0.015625)"/>
       </defs>
       <use xlink:href="#DejaVuSans-34"/>
      </g>
     </g>
    </g>
    <g id="xtick_6">
     <g id="line2d_6">
      <g>
       <use xlink:href="#m5b118d1003" x="398.812252" y="307.584" style="stroke: #000000; stroke-width: 0.8"/>
      </g>
     </g>
     <g id="text_6">
      <!-- 5 -->
      <g transform="translate(395.631002 322.182437) scale(0.1 -0.1)">
       <defs>
        <path id="DejaVuSans-35" d="M 691 4666 
L 3169 4666 
L 3169 4134 
L 1269 4134 
L 1269 2991 
Q 1406 3038 1543 3061 
Q 1681 3084 1819 3084 
Q 2600 3084 3056 2656 
Q 3513 2228 3513 1497 
Q 3513 744 3044 326 
Q 2575 -91 1722 -91 
Q 1428 -91 1123 -41 
Q 819 9 494 109 
L 494 744 
Q 775 591 1075 516 
Q 1375 441 1709 441 
Q 2250 441 2565 725 
Q 2881 1009 2881 1497 
Q 2881 1984 2565 2268 
Q 2250 2553 1709 2553 
Q 1456 2553 1204 2497 
Q 953 2441 691 2322 
L 691 4666 
z
" transform="scale(0.015625)"/>
       </defs>
       <use xlink:href="#DejaVuSans-35"/>
      </g>
     </g>
    </g>
    <g id="text_7">
     <!-- 1e−7 -->
     <g transform="translate(387.462188 334.860562) scale(0.1 -0.1)">
      <defs>
       <path id="DejaVuSans-65" d="M 3597 1894 
L 3597 1613 
L 953 1613 
Q 991 1019 1311 708 
Q 1631 397 2203 397 
Q 2534 397 2845 478 
Q 3156 559 3463 722 
L 3463 178 
Q 3153 47 2828 -22 
Q 2503 -91 2169 -91 
Q 1331 -91 842 396 
Q 353 884 353 1716 
Q 353 2575 817 3079 
Q 1281 3584 2069 3584 
Q 2775 3584 3186 3129 
Q 3597 2675 3597 1894 
z
M 3022 2063 
Q 3016 2534 2758 2815 
Q 2500 3097 2075 3097 
Q 1594 3097 1305 2825 
Q 1016 2553 972 2059 
L 3022 2063 
z
" transform="scale(0.015625)"/>
       <path id="DejaVuSans-2212" d="M 678 2272 
L 4684 2272 
L 4684 1741 
L 678 1741 
L 678 2272 
z
" transform="scale(0.015625)"/>
       <path id="DejaVuSans-37" d="M 525 4666 
L 3525 4666 
L 3525 4397 
L 1831 0 
L 1172 0 
L 2766 4134 
L 525 4134 
L 525 4666 
z
" transform="scale(0.015625)"/>
      </defs>
      <use xlink:href="#DejaVuSans-31"/>
      <use xlink:href="#DejaVuSans-65" transform="translate(63.623047 0)"/>
      <use xlink:href="#DejaVuSans-2212" transform="translate(125.146484 0)"/>
      <use xlink:href="#DejaVuSans-37" transform="translate(208.935547 0)"/>
     </g>
    </g>
   </g>
   <g id="matplotlib.axis_2">
    <g id="ytick_1">
     <g id="line2d_7">
      <defs>
       <path id="m9331f26bbf" d="M 0 0 
L -3.5 0 
" style="stroke: #000000; stroke-width: 0.8"/>
      </defs>
      <g>
       <use xlink:href="#m9331f26bbf" x="57.6" y="278.256306" style="stroke: #000000; stroke-width: 0.8"/>
      </g>
     </g>
     <g id="text_8">
      <!-- −60 -->
      <g transform="translate(29.495313 282.055524) scale(0.1 -0.1)">
       <defs>
        <path id="DejaVuSans-36" d="M 2113 2584 
Q 1688 2584 1439 2293 
Q 1191 2003 1191 1497 
Q 1191 994 1439 701 
Q 1688 409 2113 409 
Q 2538 409 2786 701 
Q 3034 994 3034 1497 
Q 3034 2003 2786 2293 
Q 2538 2584 2113 2584 
z
M 3366 4563 
L 3366 3988 
Q 3128 4100 2886 4159 
Q 2644 4219 2406 4219 
Q 1781 4219 1451 3797 
Q 1122 3375 1075 2522 
Q 1259 2794 1537 2939 
Q 1816 3084 2150 3084 
Q 2853 3084 3261 2657 
Q 3669 2231 3669 1497 
Q 3669 778 3244 343 
Q 2819 -91 2113 -91 
Q 1303 -91 875 529 
Q 447 1150 447 2328 
Q 447 3434 972 4092 
Q 1497 4750 2381 4750 
Q 2619 4750 2861 4703 
Q 3103 4656 3366 4563 
z
" transform="scale(0.015625)"/>
       </defs>
       <use xlink:href="#DejaVuSans-2212"/>
       <use xlink:href="#DejaVuSans-36" transform="translate(83.789062 0)"/>
       <use xlink:href="#DejaVuSans-30" transform="translate(147.412109 0)"/>
      </g>
     </g>
    </g>
    <g id="ytick_2">
     <g id="line2d_8">
      <g>
       <use xlink:href="#m9331f26bbf" x="57.6" y="240.948163" style="stroke: #000000; stroke-width: 0.8"/>
      </g>
     </g>
     <g id="text_9">
      <!-- −40 -->
      <g transform="translate(29.495313 244.747382) scale(0.1 -0.1)">
       <use xlink:href="#DejaVuSans-2212"/>
       <use xlink:href="#DejaVuSans-34" transform="translate(83.789062 0)"/>
       <use xlink:href="#DejaVuSans-30" transform="translate(147.412109 0)"/>
      </g>
     </g>
    </g>
    <g id="ytick_3">
     <g id="line2d_9">
      <g>
       <use xlink:href="#m9331f26bbf" x="57.6" y="203.640021" style="stroke: #000000; stroke-width: 0.8"/>
      </g>
     </g>
     <g id="text_10">
      <!-- −20 -->
      <g transform="translate(29.495313 207.43924) scale(0.1 -0.1)">
       <use xlink:href="#DejaVuSans-2212"/>
       <use xlink:href="#DejaVuSans-32" transform="translate(83.789062 0)"/>
       <use xlink:href="#DejaVuSans-30" transform="translate(147.412109 0)"/>
      </g>
     </g>
    </g>
    <g id="ytick_4">
     <g id="line2d_10">
      <g>
       <use xlink:href="#m9331f26bbf" x="57.6" y="166.331879" style="stroke: #000000; stroke-width: 0.8"/>
      </g>
     </g>
     <g id="text_11">
      <!-- 0 -->
      <g transform="translate(44.2375 170.131097) scale(0.1 -0.1)">
       <use xlink:href="#DejaVuSans-30"/>
      </g>
     </g>
    </g>
    <g id="ytick_5">
     <g id="line2d_11">
      <g>
       <use xlink:href="#m9331f26bbf" x="57.6" y="129.023736" style="stroke: #000000; stroke-width: 0.8"/>
      </g>
     </g>
     <g id="text_12">
      <!-- 20 -->
      <g transform="translate(37.875 132.822955) scale(0.1 -0.1)">
       <use xlink:href="#DejaVuSans-32"/>
       <use xlink:href="#DejaVuSans-30" transform="translate(63.623047 0)"/>
      </g>
     </g>
    </g>
    <g id="ytick_6">
     <g id="line2d_12">
      <g>
       <use xlink:href="#m9331f26bbf" x="57.6" y="91.715594" style="stroke: #000000; stroke-width: 0.8"/>
      </g>
     </g>
     <g id="text_13">
      <!-- 40 -->
      <g transform="translate(37.875 95.514813) scale(0.1 -0.1)">
       <use xlink:href="#DejaVuSans-34"/>
       <use xlink:href="#DejaVuSans-30" transform="translate(63.623047 0)"/>
      </g>
     </g>
    </g>
    <g id="ytick_7">
     <g id="line2d_13">
      <g>
       <use xlink:href="#m9331f26bbf" x="57.6" y="54.407452" style="stroke: #000000; stroke-width: 0.8"/>
      </g>
     </g>
     <g id="text_14">
      <!-- 60 -->
      <g transform="translate(37.875 58.206671) scale(0.1 -0.1)">
       <use xlink:href="#DejaVuSans-36"/>
       <use xlink:href="#DejaVuSans-30" transform="translate(63.623047 0)"/>
      </g>
     </g>
    </g>
   </g>
   <g id="line2d_14">
    <path d="M 73.832727 222.62053 
L 74.157707 216.791133 
L 74.807666 216.791133 
L 75.132645 210.961735 
L 76.107584 202.217639 
L 76.432563 202.217639 
L 76.757543 193.473542 
L 77.082523 193.473542 
L 79.0324 175.985349 
L 79.357379 170.155952 
L 79.682359 170.155952 
L 80.332318 164.326554 
L 80.657297 158.497157 
L 81.307256 158.497157 
L 81.632236 152.667759 
L 81.957215 149.75306 
L 82.282195 152.667759 
L 82.932154 146.838361 
L 83.257133 146.838361 
L 83.907093 141.008964 
L 84.557052 141.008964 
L 84.882031 138.094265 
L 85.207011 138.094265 
L 85.53199 132.264867 
L 85.85697 132.264867 
L 86.181949 129.350169 
L 86.506929 129.350169 
L 86.831908 132.264867 
L 87.156888 126.43547 
L 87.806847 126.43547 
L 88.131826 123.520771 
L 88.456806 126.43547 
L 88.781785 126.43547 
L 89.106765 129.350169 
L 89.431744 126.43547 
L 90.406683 126.43547 
L 90.731663 129.350169 
L 91.056642 126.43547 
L 91.381622 126.43547 
L 91.706601 129.350169 
L 92.031581 129.350169 
L 92.35656 126.43547 
L 92.68154 132.264867 
L 93.006519 132.264867 
L 93.331499 126.43547 
L 93.656478 129.350169 
L 93.981458 126.43547 
L 94.306437 129.350169 
L 94.956396 123.520771 
L 95.281376 126.43547 
L 95.606355 120.606072 
L 96.256314 120.606072 
L 96.581294 117.691373 
L 96.906274 120.606072 
L 97.231253 120.606072 
L 97.556233 114.776675 
L 97.881212 114.776675 
L 98.531171 108.947277 
L 98.856151 108.947277 
L 99.18113 106.032578 
L 99.831089 106.032578 
L 100.481048 100.203181 
L 100.806028 100.203181 
L 101.455987 94.373783 
L 102.105946 94.373783 
L 102.755905 88.544386 
L 103.080885 88.544386 
L 103.730844 82.714988 
L 104.055823 82.714988 
L 104.380803 79.800289 
L 105.030762 79.800289 
L 105.680721 73.970892 
L 106.0057 73.970892 
L 106.655659 68.141494 
L 106.980639 71.056193 
L 107.305618 68.141494 
L 107.630598 68.141494 
L 107.955577 62.312096 
L 108.605536 62.312096 
L 108.930516 59.397398 
L 109.905455 59.397398 
L 110.230434 56.482699 
L 111.205373 56.482699 
L 111.530352 53.568 
L 112.505291 53.568 
L 112.83027 56.482699 
L 113.15525 53.568 
L 113.480229 56.482699 
L 113.805209 53.568 
L 114.130188 53.568 
L 116.080066 71.056193 
L 116.730025 71.056193 
L 117.055004 76.88559 
L 117.379984 76.88559 
L 117.704963 79.800289 
L 118.029943 85.629687 
L 118.354922 82.714988 
L 118.679902 91.459084 
L 119.004881 91.459084 
L 119.329861 94.373783 
L 119.65484 100.203181 
L 119.97982 100.203181 
L 120.304799 106.032578 
L 120.629779 108.947277 
L 120.954758 108.947277 
L 121.604717 120.606072 
L 123.554595 138.094265 
L 123.879574 146.838361 
L 124.204554 143.923663 
L 124.529533 146.838361 
L 124.854513 152.667759 
L 125.179492 155.582458 
L 125.504472 161.411855 
L 125.829451 161.411855 
L 126.154431 164.326554 
L 126.47941 164.326554 
L 126.80439 170.155952 
L 127.779328 178.900048 
L 128.104308 184.729446 
L 128.429287 184.729446 
L 128.754267 187.644145 
L 129.079247 187.644145 
L 129.404226 190.558843 
L 129.729206 190.558843 
L 130.704144 199.30294 
L 131.029124 205.132337 
L 131.679083 205.132337 
L 132.004062 208.047036 
L 132.654021 208.047036 
L 133.30398 213.876434 
L 133.953939 213.876434 
L 134.278919 219.705831 
L 134.928878 219.705831 
L 135.253857 222.62053 
L 136.228796 222.62053 
L 136.553776 225.535229 
L 136.878755 225.535229 
L 137.203735 228.449928 
L 137.528714 225.535229 
L 138.178673 225.535229 
L 138.828632 231.364627 
L 139.153612 228.449928 
L 139.478591 231.364627 
L 139.803571 231.364627 
L 140.12855 228.449928 
L 141.103489 237.194024 
L 141.428468 234.279325 
L 142.728387 234.279325 
L 143.053366 231.364627 
L 144.028305 240.108723 
L 144.353284 237.194024 
L 145.328223 237.194024 
L 145.653202 240.108723 
L 145.978182 240.108723 
L 146.303161 243.023422 
L 146.628141 243.023422 
L 146.95312 245.93812 
L 147.2781 243.023422 
L 147.928059 248.852819 
L 148.253038 248.852819 
L 148.902998 254.682217 
L 149.227977 251.767518 
L 149.552957 251.767518 
L 149.877936 260.511614 
L 150.202916 260.511614 
L 150.527895 257.596916 
L 150.852875 260.511614 
L 151.177854 260.511614 
L 151.827813 266.341012 
L 152.152793 266.341012 
L 152.802752 272.17041 
L 153.127731 272.17041 
L 153.452711 269.255711 
L 153.77769 275.085108 
L 154.427649 280.914506 
L 154.752629 277.999807 
L 155.402588 283.829205 
L 155.727568 283.829205 
L 156.052547 286.743904 
L 156.702506 286.743904 
L 157.027486 289.658602 
L 157.352465 286.743904 
L 157.677445 289.658602 
L 159.302342 289.658602 
L 159.627322 292.573301 
L 159.952301 289.658602 
L 160.277281 295.488 
L 160.60226 289.658602 
L 160.92724 289.658602 
L 161.252219 292.573301 
L 161.577199 289.658602 
L 161.902179 289.658602 
L 162.227158 283.829205 
L 163.202097 283.829205 
L 163.527076 277.999807 
L 163.852056 277.999807 
L 164.177035 275.085108 
L 164.502015 275.085108 
L 164.826994 269.255711 
L 165.151974 266.341012 
L 165.476953 266.341012 
L 165.801933 263.426313 
L 166.126912 257.596916 
L 166.451892 257.596916 
L 166.776871 251.767518 
L 168.07679 240.108723 
L 168.401769 234.279325 
L 168.726749 234.279325 
L 169.051728 228.449928 
L 169.701687 222.62053 
L 170.026667 222.62053 
L 170.351646 213.876434 
L 170.676626 216.791133 
L 171.001605 210.961735 
L 171.976544 202.217639 
L 172.301523 196.388241 
L 172.626503 193.473542 
L 172.951482 193.473542 
L 173.601441 187.644145 
L 173.926421 181.814747 
L 174.2514 178.900048 
L 174.57638 178.900048 
L 175.226339 173.070651 
L 175.551319 167.241253 
L 175.876298 167.241253 
L 176.201278 161.411855 
L 176.851237 155.582458 
L 177.501196 155.582458 
L 177.826175 152.667759 
L 178.151155 146.838361 
L 179.126093 146.838361 
L 179.451073 141.008964 
L 180.101032 141.008964 
L 180.750991 135.179566 
L 181.075971 138.094265 
L 181.72593 132.264867 
L 183.025848 132.264867 
L 183.675807 126.43547 
L 184.325766 126.43547 
L 184.650745 123.520771 
L 184.975725 126.43547 
L 185.950663 126.43547 
L 186.275643 129.350169 
L 186.600622 126.43547 
L 186.925602 126.43547 
L 187.250581 129.350169 
L 187.900541 129.350169 
L 188.22552 132.264867 
L 188.5505 129.350169 
L 188.875479 129.350169 
L 189.200459 126.43547 
L 189.850418 126.43547 
L 190.175397 123.520771 
L 190.500377 129.350169 
L 190.825356 123.520771 
L 191.800295 123.520771 
L 192.125274 117.691373 
L 192.450254 120.606072 
L 192.775233 120.606072 
L 193.425192 114.776675 
L 193.750172 114.776675 
L 194.075152 111.861976 
L 194.400131 111.861976 
L 195.05009 106.032578 
L 195.700049 106.032578 
L 196.674988 97.288482 
L 196.999967 97.288482 
L 197.324947 94.373783 
L 197.974906 94.373783 
L 198.624865 88.544386 
L 198.949844 88.544386 
L 200.249762 76.88559 
L 200.574742 79.800289 
L 200.899722 79.800289 
L 201.549681 73.970892 
L 201.87466 76.88559 
L 202.19964 73.970892 
L 202.524619 68.141494 
L 202.849599 65.226795 
L 203.174578 68.141494 
L 203.824537 62.312096 
L 204.149517 65.226795 
L 204.799476 59.397398 
L 205.774414 59.397398 
L 206.099394 56.482699 
L 206.424373 59.397398 
L 206.749353 53.568 
L 207.074333 56.482699 
L 207.399312 56.482699 
L 207.724292 53.568 
L 208.049271 56.482699 
L 208.374251 53.568 
L 208.69923 59.397398 
L 209.349189 53.568 
L 209.999148 59.397398 
L 210.324128 56.482699 
L 210.649107 62.312096 
L 210.974087 62.312096 
L 211.299066 68.141494 
L 211.949025 68.141494 
L 212.274005 73.970892 
L 212.923964 73.970892 
L 213.248943 79.800289 
L 213.573923 79.800289 
L 213.898903 85.629687 
L 214.223882 85.629687 
L 214.548862 91.459084 
L 214.873841 91.459084 
L 215.198821 94.373783 
L 215.5238 100.203181 
L 215.84878 100.203181 
L 216.173759 103.11788 
L 216.498739 111.861976 
L 217.148698 111.861976 
L 217.473677 117.691373 
L 218.123636 123.520771 
L 218.448616 129.350169 
L 220.723473 149.75306 
L 221.048452 155.582458 
L 222.023391 164.326554 
L 222.34837 164.326554 
L 222.67335 170.155952 
L 222.998329 173.070651 
L 223.323309 173.070651 
L 223.648288 178.900048 
L 224.298247 184.729446 
L 224.623227 184.729446 
L 225.273186 190.558843 
L 225.598165 190.558843 
L 225.923145 193.473542 
L 226.248124 199.30294 
L 226.573104 199.30294 
L 227.223063 205.132337 
L 227.548043 205.132337 
L 227.873022 208.047036 
L 228.522981 208.047036 
L 229.49792 216.791133 
L 230.472858 216.791133 
L 231.122817 222.62053 
L 231.447797 219.705831 
L 232.097756 225.535229 
L 232.422735 225.535229 
L 232.747715 222.62053 
L 233.072695 228.449928 
L 233.397674 228.449928 
L 233.722654 225.535229 
L 234.047633 228.449928 
L 234.372613 228.449928 
L 234.697592 231.364627 
L 235.022572 231.364627 
L 235.347551 228.449928 
L 235.672531 228.449928 
L 235.99751 231.364627 
L 236.32249 228.449928 
L 236.972449 234.279325 
L 237.622408 234.279325 
L 237.947387 231.364627 
L 238.272367 237.194024 
L 238.597346 234.279325 
L 238.922326 234.279325 
L 239.247305 237.194024 
L 239.572285 234.279325 
L 239.897265 237.194024 
L 240.872203 237.194024 
L 241.197183 240.108723 
L 241.522162 237.194024 
L 241.847142 240.108723 
L 242.172121 237.194024 
L 242.497101 243.023422 
L 242.82208 245.93812 
L 243.14706 243.023422 
L 243.472039 245.93812 
L 244.121998 245.93812 
L 244.446978 248.852819 
L 244.771957 248.852819 
L 245.096937 254.682217 
L 245.746896 254.682217 
L 246.071876 257.596916 
L 246.396855 257.596916 
L 246.721835 260.511614 
L 247.046814 260.511614 
L 247.371794 263.426313 
L 247.696773 263.426313 
L 248.021753 266.341012 
L 248.346732 263.426313 
L 248.671712 269.255711 
L 249.321671 269.255711 
L 249.64665 275.085108 
L 250.296609 275.085108 
L 250.621589 277.999807 
L 250.946568 277.999807 
L 251.596527 283.829205 
L 252.246486 283.829205 
L 252.571466 286.743904 
L 252.896446 286.743904 
L 253.221425 289.658602 
L 253.546405 286.743904 
L 253.871384 286.743904 
L 254.196364 292.573301 
L 254.521343 289.658602 
L 254.846323 289.658602 
L 255.171302 292.573301 
L 255.821261 292.573301 
L 256.146241 289.658602 
L 257.121179 289.658602 
L 257.446159 286.743904 
L 257.771138 289.658602 
L 258.096118 286.743904 
L 258.421097 286.743904 
L 258.746077 280.914506 
L 259.071057 280.914506 
L 259.721016 275.085108 
L 260.045995 275.085108 
L 260.370975 272.17041 
L 260.695954 272.17041 
L 261.020934 266.341012 
L 263.29579 245.93812 
L 263.62077 245.93812 
L 263.945749 237.194024 
L 264.270729 237.194024 
L 264.595708 234.279325 
L 264.920688 228.449928 
L 265.245667 228.449928 
L 265.570647 222.62053 
L 265.895627 222.62053 
L 266.220606 216.791133 
L 267.195545 208.047036 
L 267.520524 202.217639 
L 267.845504 202.217639 
L 268.170483 199.30294 
L 268.495463 199.30294 
L 268.820442 190.558843 
L 269.145422 187.644145 
L 269.470401 187.644145 
L 269.795381 184.729446 
L 270.12036 178.900048 
L 270.44534 178.900048 
L 271.095299 173.070651 
L 271.420278 173.070651 
L 271.745258 167.241253 
L 273.370156 152.667759 
L 274.020115 152.667759 
L 274.345094 146.838361 
L 274.670074 149.75306 
L 275.320033 143.923663 
L 275.645012 143.923663 
L 276.294971 138.094265 
L 276.94493 138.094265 
L 277.26991 135.179566 
L 277.594889 135.179566 
L 277.919869 132.264867 
L 278.244848 132.264867 
L 278.569828 126.43547 
L 278.894808 129.350169 
L 279.219787 129.350169 
L 279.544767 126.43547 
L 279.869746 129.350169 
L 280.519705 123.520771 
L 280.844685 126.43547 
L 281.169664 126.43547 
L 281.494644 129.350169 
L 281.819623 126.43547 
L 282.794562 126.43547 
L 283.119541 129.350169 
L 283.444521 129.350169 
L 283.7695 132.264867 
L 284.419459 132.264867 
L 284.744439 129.350169 
L 285.069419 132.264867 
L 285.394398 129.350169 
L 286.044357 129.350169 
L 286.369337 123.520771 
L 286.694316 126.43547 
L 287.019296 126.43547 
L 287.344275 123.520771 
L 287.669255 123.520771 
L 287.994234 117.691373 
L 288.319214 120.606072 
L 288.644193 120.606072 
L 288.969173 114.776675 
L 289.294152 117.691373 
L 290.269091 108.947277 
L 290.59407 108.947277 
L 290.91905 106.032578 
L 291.244029 106.032578 
L 291.569009 103.11788 
L 291.893989 106.032578 
L 292.218968 100.203181 
L 292.543948 103.11788 
L 292.868927 97.288482 
L 293.193907 97.288482 
L 293.843866 91.459084 
L 294.168845 91.459084 
L 294.818804 85.629687 
L 295.468763 85.629687 
L 296.118722 79.800289 
L 296.443702 79.800289 
L 297.093661 73.970892 
L 297.41864 76.88559 
L 298.0686 71.056193 
L 298.718559 71.056193 
L 299.043538 68.141494 
L 299.693497 68.141494 
L 300.343456 62.312096 
L 300.668436 62.312096 
L 300.993415 56.482699 
L 301.318395 59.397398 
L 302.293333 59.397398 
L 302.618313 56.482699 
L 302.943292 56.482699 
L 303.268272 53.568 
L 303.593251 56.482699 
L 303.918231 53.568 
L 304.24321 53.568 
L 304.56819 56.482699 
L 304.89317 53.568 
L 305.218149 56.482699 
L 305.543129 53.568 
L 305.868108 56.482699 
L 306.518067 56.482699 
L 306.843047 62.312096 
L 307.168026 62.312096 
L 307.493006 68.141494 
L 307.817985 68.141494 
L 309.442883 82.714988 
L 309.767862 82.714988 
L 310.092842 85.629687 
L 310.417821 91.459084 
L 310.742801 91.459084 
L 311.067781 97.288482 
L 311.39276 97.288482 
L 311.71774 100.203181 
L 312.042719 106.032578 
L 312.367699 106.032578 
L 312.692678 114.776675 
L 313.017658 114.776675 
L 313.667617 120.606072 
L 313.992596 126.43547 
L 314.642555 132.264867 
L 314.967535 138.094265 
L 315.292514 138.094265 
L 315.617494 143.923663 
L 315.942473 143.923663 
L 316.267453 149.75306 
L 316.592432 149.75306 
L 317.242391 161.411855 
L 317.567371 161.411855 
L 317.892351 167.241253 
L 318.21733 170.155952 
L 318.54231 170.155952 
L 319.192269 175.985349 
L 319.517248 175.985349 
L 319.842228 181.814747 
L 320.817166 190.558843 
L 321.142146 187.644145 
L 321.467125 196.388241 
L 322.117084 196.388241 
L 322.442064 199.30294 
L 322.767043 199.30294 
L 323.092023 208.047036 
L 323.417002 205.132337 
L 323.741982 208.047036 
L 324.391941 208.047036 
L 324.716921 210.961735 
L 325.0419 210.961735 
L 326.016839 219.705831 
L 326.341818 219.705831 
L 326.666798 222.62053 
L 326.991777 219.705831 
L 327.316757 219.705831 
L 327.641736 222.62053 
L 327.966716 222.62053 
L 328.291695 225.535229 
L 329.916593 225.535229 
L 330.241572 228.449928 
L 330.566552 228.449928 
L 330.891532 231.364627 
L 331.216511 231.364627 
L 331.541491 228.449928 
L 331.86647 231.364627 
L 332.516429 231.364627 
L 332.841409 234.279325 
L 334.141327 234.279325 
L 334.466306 231.364627 
L 335.116265 237.194024 
L 336.091204 237.194024 
L 336.416183 240.108723 
L 336.741163 234.279325 
L 337.066143 240.108723 
L 337.716102 240.108723 
L 338.041081 243.023422 
L 338.366061 243.023422 
L 338.69104 245.93812 
L 339.665979 245.93812 
L 340.315938 251.767518 
L 340.965897 251.767518 
L 341.615856 257.596916 
L 341.940835 257.596916 
L 342.265815 260.511614 
L 342.915774 260.511614 
L 343.565733 266.341012 
L 344.215692 266.341012 
L 344.865651 272.17041 
L 345.84059 272.17041 
L 346.165569 277.999807 
L 346.490549 277.999807 
L 346.815528 283.829205 
L 347.140508 277.999807 
L 347.465487 283.829205 
L 347.790467 283.829205 
L 348.115446 286.743904 
L 348.765405 286.743904 
L 349.090385 289.658602 
L 349.415364 289.658602 
L 349.740344 292.573301 
L 350.065324 292.573301 
L 350.390303 289.658602 
L 350.715283 292.573301 
L 351.040262 289.658602 
L 351.365242 292.573301 
L 351.690221 292.573301 
L 352.015201 295.488 
L 352.34018 289.658602 
L 353.640098 289.658602 
L 353.965078 286.743904 
L 354.290057 286.743904 
L 354.615037 283.829205 
L 354.940016 283.829205 
L 355.264996 280.914506 
L 355.589975 275.085108 
L 356.239934 269.255711 
L 356.564914 272.17041 
L 356.889894 266.341012 
L 357.214873 263.426313 
L 357.539853 257.596916 
L 357.864832 257.596916 
L 358.514791 251.767518 
L 358.839771 251.767518 
L 359.16475 248.852819 
L 359.48973 243.023422 
L 360.789648 231.364627 
L 361.439607 219.705831 
L 361.764586 222.62053 
L 362.414545 216.791133 
L 362.739525 210.961735 
L 363.064505 210.961735 
L 363.389484 205.132337 
L 363.714464 205.132337 
L 364.039443 202.217639 
L 364.364423 196.388241 
L 365.014382 190.558843 
L 365.339361 190.558843 
L 365.664341 187.644145 
L 365.98932 178.900048 
L 366.3143 178.900048 
L 366.639279 173.070651 
L 366.964259 170.155952 
L 367.289238 173.070651 
L 367.614218 167.241253 
L 367.939197 164.326554 
L 368.264177 164.326554 
L 368.589156 158.497157 
L 368.914136 155.582458 
L 369.564095 155.582458 
L 369.889075 152.667759 
L 370.214054 146.838361 
L 370.864013 146.838361 
L 371.188993 143.923663 
L 371.513972 138.094265 
L 371.838952 141.008964 
L 372.163931 138.094265 
L 372.488911 141.008964 
L 372.81389 135.179566 
L 373.13887 132.264867 
L 373.463849 135.179566 
L 373.788829 135.179566 
L 374.113808 129.350169 
L 374.438788 132.264867 
L 374.763767 126.43547 
L 375.088747 129.350169 
L 376.063686 129.350169 
L 376.388665 126.43547 
L 378.338542 126.43547 
L 378.663522 132.264867 
L 378.988501 126.43547 
L 379.313481 129.350169 
L 379.63846 129.350169 
L 379.96344 132.264867 
L 380.288419 132.264867 
L 380.613399 129.350169 
L 380.938378 132.264867 
L 381.263358 126.43547 
L 381.913317 126.43547 
L 382.238296 123.520771 
L 382.563276 123.520771 
L 382.888256 126.43547 
L 383.538215 120.606072 
L 383.863194 123.520771 
L 384.188174 120.606072 
L 384.513153 114.776675 
L 385.488092 114.776675 
L 386.138051 108.947277 
L 386.46303 108.947277 
L 386.78801 106.032578 
L 387.112989 106.032578 
L 387.437969 103.11788 
L 388.412907 103.11788 
L 388.737887 97.288482 
L 389.062867 97.288482 
L 389.712826 91.459084 
L 390.037805 94.373783 
L 391.012744 85.629687 
L 391.337723 85.629687 
L 391.662703 79.800289 
L 392.312662 79.800289 
L 392.637641 76.88559 
L 392.962621 76.88559 
L 393.2876 73.970892 
L 393.61258 73.970892 
L 393.937559 71.056193 
L 394.262539 73.970892 
L 394.587518 71.056193 
L 394.912498 65.226795 
L 395.887437 65.226795 
L 396.537396 59.397398 
L 397.512334 59.397398 
L 397.837314 56.482699 
L 398.487273 56.482699 
L 398.487273 56.482699 
" clip-path="url(#p4613cd16f6)" style="fill: none; stroke: #1f77b4; stroke-width: 1.5; stroke-linecap: square"/>
   </g>
   <g id="patch_3">
    <path d="M 57.6 307.584 
L 57.6 41.472 
" style="fill: none; stroke: #000000; stroke-width: 0.8; stroke-linejoin: miter; stroke-linecap: square"/>
   </g>
   <g id="patch_4">
    <path d="M 414.72 307.584 
L 414.72 41.472 
" style="fill: none; stroke: #000000; stroke-width: 0.8; stroke-linejoin: miter; stroke-linecap: square"/>
   </g>
   <g id="patch_5">
    <path d="M 57.6 307.584 
L 414.72 307.584 
" style="fill: none; stroke: #000000; stroke-width: 0.8; stroke-linejoin: miter; stroke-linecap: square"/>
   </g>
   <g id="patch_6">
    <path d="M 57.6 41.472 
L 414.72 41.472 
" style="fill: none; stroke: #000000; stroke-width: 0.8; stroke-linejoin: miter; stroke-linecap: square"/>
   </g>
  </g>
 </g>
 <defs>
  <clipPath id="p4613cd16f6">
   <rect x="57.6" y="41.472" width="357.12" height="266.112"/>
  </clipPath>
 </defs>
</svg>
