<?xml version="1.0" encoding="utf-8" standalone="no"?>
<!DOCTYPE svg PUBLIC "-//W3C//DTD SVG 1.1//EN"
  "http://www.w3.org/Graphics/SVG/1.1/DTD/svg11.dtd">
<svg xmlns:xlink="http://www.w3.org/1999/xlink" width="460.8pt" height="345.6pt" viewBox="0 0 460.8 345.6" xmlns="http://www.w3.org/2000/svg" version="1.1">
 <metadata>
  <rdf:RDF xmlns:dc="http://purl.org/dc/elements/1.1/" xmlns:cc="http://creativecommons.org/ns#" xmlns:rdf="http://www.w3.org/1999/02/22-rdf-syntax-ns#">
   <cc:Work>
    <dc:type rdf:resource="http://purl.org/dc/dcmitype/StillImage"/>
    <dc:date>2025-12-24T02:57:10.241251</dc:date>
    <dc:format>image/svg+xml</dc:format>
    <dc:creator>
     <cc:Agent>
      <dc:title>Matplotlib v3.10.8, https://matplotlib.org/</dc:title>
     </cc:Agent>
    </dc:creator>
   </cc:Work>
  </rdf:RDF>
 </metadata>
 <defs>
  <style type="text/css">*{stroke-linejoin: round; stroke-linecap: butt}</style>
 </defs>
 <g id="figure_1">
  <g id="patch_1">
   <path d="M 0 345.6 
L 460.8 345.6 
L 460.8 0 
L 0 0 
z
" style="fill: #ffffff"/>
  </g>
  <g id="axes_1">
   <g id="patch_2">
    <path d="M 57.6 307.584 
L 414.72 307.584 
L 414.72 41.472 
L 57.6 41.472 
z
" style="fill: #ffffff"/>
   </g>
   <g id="matplotlib.axis_1">
    <g id="xtick_1">
     <g id="line2d_1">
      <defs>
       <path id="ma4f3c2e168" d="M 0 0 
L 0 3.5 
" style="stroke: #000000; stroke-width: 0.8"/>
      </defs>
      <g>
       <use xlink:href="#ma4f3c2e168" x="73.832727" y="307.584" style="stroke: #000000; stroke-width: 0.8"/>
      </g>
     </g>
     <g id="text_1">
      <!-- 0 -->
      <g transform="translate(70.651477 322.182437) scale(0.1 -0.1)">
       <defs>
        <path id="DejaVuSans-30" d="M 2034 4250 
Q 1547 4250 1301 3770 
Q 1056 3291 1056 2328 
Q 1056 1369 1301 889 
Q 1547 409 2034 409 
Q 2525 409 2770 889 
Q 3016 1369 3016 2328 
Q 3016 3291 2770 3770 
Q 2525 4250 2034 4250 
z
M 2034 4750 
Q 2819 4750 3233 4129 
Q 3647 3509 3647 2328 
Q 3647 1150 3233 529 
Q 2819 -91 2034 -91 
Q 1250 -91 836 529 
Q 422 1150 422 2328 
Q 422 3509 836 4129 
Q 1250 4750 2034 4750 
z
" transform="scale(0.015625)"/>
       </defs>
       <use xlink:href="#DejaVuSans-30"/>
      </g>
     </g>
    </g>
    <g id="xtick_2">
     <g id="line2d_2">
      <g>
       <use xlink:href="#ma4f3c2e168" x="138.828632" y="307.584" style="stroke: #000000; stroke-width: 0.8"/>
      </g>
     </g>
     <g id="text_2">
      <!-- 1 -->
      <g transform="translate(135.647382 322.182437) scale(0.1 -0.1)">
       <defs>
        <path id="DejaVuSans-31" d="M 794 531 
L 1825 531 
L 1825 4091 
L 703 3866 
L 703 4441 
L 1819 4666 
L 2450 4666 
L 2450 531 
L 3481 531 
L 3481 0 
L 794 0 
L 794 531 
z
" transform="scale(0.015625)"/>
       </defs>
       <use xlink:href="#DejaVuSans-31"/>
      </g>
     </g>
    </g>
    <g id="xtick_3">
     <g id="line2d_3">
      <g>
       <use xlink:href="#ma4f3c2e168" x="203.824537" y="307.584" style="stroke: #000000; stroke-width: 0.8"/>
      </g>
     </g>
     <g id="text_3">
      <!-- 2 -->
      <g transform="translate(200.643287 322.182437) scale(0.1 -0.1)">
       <defs>
        <path id="DejaVuSans-32" d="M 1228 531 
L 3431 531 
L 3431 0 
L 469 0 
L 469 531 
Q 828 903 1448 1529 
Q 2069 2156 2228 2338 
Q 2531 2678 2651 2914 
Q 2772 3150 2772 3378 
Q 2772 3750 2511 3984 
Q 2250 4219 1831 4219 
Q 1534 4219 1204 4116 
Q 875 4013 500 3803 
L 500 4441 
Q 881 4594 1212 4672 
Q 1544 4750 1819 4750 
Q 2544 4750 2975 4387 
Q 3406 4025 3406 3419 
Q 3406 3131 3298 2873 
Q 3191 2616 2906 2266 
Q 2828 2175 2409 1742 
Q 1991 1309 1228 531 
z
" transform="scale(0.015625)"/>
       </defs>
       <use xlink:href="#DejaVuSans-32"/>
      </g>
     </g>
    </g>
    <g id="xtick_4">
     <g id="line2d_4">
      <g>
       <use xlink:href="#ma4f3c2e168" x="268.820442" y="307.584" style="stroke: #000000; stroke-width: 0.8"/>
      </g>
     </g>
     <g id="text_4">
      <!-- 3 -->
      <g transform="translate(265.639192 322.182437) scale(0.1 -0.1)">
       <defs>
        <path id="DejaVuSans-33" d="M 2597 2516 
Q 3050 2419 3304 2112 
Q 3559 1806 3559 1356 
Q 3559 666 3084 287 
Q 2609 -91 1734 -91 
Q 1441 -91 1130 -33 
Q 819 25 488 141 
L 488 750 
Q 750 597 1062 519 
Q 1375 441 1716 441 
Q 2309 441 2620 675 
Q 2931 909 2931 1356 
Q 2931 1769 2642 2001 
Q 2353 2234 1838 2234 
L 1294 2234 
L 1294 2753 
L 1863 2753 
Q 2328 2753 2575 2939 
Q 2822 3125 2822 3475 
Q 2822 3834 2567 4026 
Q 2313 4219 1838 4219 
Q 1578 4219 1281 4162 
Q 984 4106 628 3988 
L 628 4550 
Q 988 4650 1302 4700 
Q 1616 4750 1894 4750 
Q 2613 4750 3031 4423 
Q 3450 4097 3450 3541 
Q 3450 3153 3228 2886 
Q 3006 2619 2597 2516 
z
" transform="scale(0.015625)"/>
       </defs>
       <use xlink:href="#DejaVuSans-33"/>
      </g>
     </g>
    </g>
    <g id="xtick_5">
     <g id="line2d_5">
      <g>
       <use xlink:href="#ma4f3c2e168" x="333.816347" y="307.584" style="stroke: #000000; stroke-width: 0.8"/>
      </g>
     </g>
     <g id="text_5">
      <!-- 4 -->
      <g transform="translate(330.635097 322.182437) scale(0.1 -0.1)">
       <defs>
        <path id="DejaVuSans-34" d="M 2419 4116 
L 825 1625 
L 2419 1625 
L 2419 4116 
z
M 2253 4666 
L 3047 4666 
L 3047 1625 
L 3713 1625 
L 3713 1100 
L 3047 1100 
L 3047 0 
L 2419 0 
L 2419 1100 
L 313 1100 
L 313 1709 
L 2253 4666 
z
" transform="scale(0.015625)"/>
       </defs>
       <use xlink:href="#DejaVuSans-34"/>
      </g>
     </g>
    </g>
    <g id="xtick_6">
     <g id="line2d_6">
      <g>
       <use xlink:href="#ma4f3c2e168" x="398.812252" y="307.584" style="stroke: #000000; stroke-width: 0.8"/>
      </g>
     </g>
     <g id="text_6">
      <!-- 5 -->
      <g transform="translate(395.631002 322.182437) scale(0.1 -0.1)">
       <defs>
        <path id="DejaVuSans-35" d="M 691 4666 
L 3169 4666 
L 3169 4134 
L 1269 4134 
L 1269 2991 
Q 1406 3038 1543 3061 
Q 1681 3084 1819 3084 
Q 2600 3084 3056 2656 
Q 3513 2228 3513 1497 
Q 3513 744 3044 326 
Q 2575 -91 1722 -91 
Q 1428 -91 1123 -41 
Q 819 9 494 109 
L 494 744 
Q 775 591 1075 516 
Q 1375 441 1709 441 
Q 2250 441 2565 725 
Q 2881 1009 2881 1497 
Q 2881 1984 2565 2268 
Q 2250 2553 1709 2553 
Q 1456 2553 1204 2497 
Q 953 2441 691 2322 
L 691 4666 
z
" transform="scale(0.015625)"/>
       </defs>
       <use xlink:href="#DejaVuSans-35"/>
      </g>
     </g>
    </g>
    <g id="text_7">
     <!-- 1e−7 -->
     <g transform="translate(387.462188 334.860562) scale(0.1 -0.1)">
      <defs>
       <path id="DejaVuSans-65" d="M 3597 1894 
L 3597 1613 
L 953 1613 
Q 991 1019 1311 708 
Q 1631 397 2203 397 
Q 2534 397 2845 478 
Q 3156 559 3463 722 
L 3463 178 
Q 3153 47 2828 -22 
Q 2503 -91 2169 -91 
Q 1331 -91 842 396 
Q 353 884 353 1716 
Q 353 2575 817 3079 
Q 1281 3584 2069 3584 
Q 2775 3584 3186 3129 
Q 3597 2675 3597 1894 
z
M 3022 2063 
Q 3016 2534 2758 2815 
Q 2500 3097 2075 3097 
Q 1594 3097 1305 2825 
Q 1016 2553 972 2059 
L 3022 2063 
z
" transform="scale(0.015625)"/>
       <path id="DejaVuSans-2212" d="M 678 2272 
L 4684 2272 
L 4684 1741 
L 678 1741 
L 678 2272 
z
" transform="scale(0.015625)"/>
       <path id="DejaVuSans-37" d="M 525 4666 
L 3525 4666 
L 3525 4397 
L 1831 0 
L 1172 0 
L 2766 4134 
L 525 4134 
L 525 4666 
z
" transform="scale(0.015625)"/>
      </defs>
      <use xlink:href="#DejaVuSans-31"/>
      <use xlink:href="#DejaVuSans-65" transform="translate(63.623047 0)"/>
      <use xlink:href="#DejaVuSans-2212" transform="translate(125.146484 0)"/>
      <use xlink:href="#DejaVuSans-37" transform="translate(208.935547 0)"/>
     </g>
    </g>
   </g>
   <g id="matplotlib.axis_2">
    <g id="ytick_1">
     <g id="line2d_7">
      <defs>
       <path id="m296dcb2fdc" d="M 0 0 
L -3.5 0 
" style="stroke: #000000; stroke-width: 0.8"/>
      </defs>
      <g>
       <use xlink:href="#m296dcb2fdc" x="57.6" y="276.314438" style="stroke: #000000; stroke-width: 0.8"/>
      </g>
     </g>
     <g id="text_8">
      <!-- −60 -->
      <g transform="translate(29.495313 280.113657) scale(0.1 -0.1)">
       <defs>
        <path id="DejaVuSans-36" d="M 2113 2584 
Q 1688 2584 1439 2293 
Q 1191 2003 1191 1497 
Q 1191 994 1439 701 
Q 1688 409 2113 409 
Q 2538 409 2786 701 
Q 3034 994 3034 1497 
Q 3034 2003 2786 2293 
Q 2538 2584 2113 2584 
z
M 3366 4563 
L 3366 3988 
Q 3128 4100 2886 4159 
Q 2644 4219 2406 4219 
Q 1781 4219 1451 3797 
Q 1122 3375 1075 2522 
Q 1259 2794 1537 2939 
Q 1816 3084 2150 3084 
Q 2853 3084 3261 2657 
Q 3669 2231 3669 1497 
Q 3669 778 3244 343 
Q 2819 -91 2113 -91 
Q 1303 -91 875 529 
Q 447 1150 447 2328 
Q 447 3434 972 4092 
Q 1497 4750 2381 4750 
Q 2619 4750 2861 4703 
Q 3103 4656 3366 4563 
z
" transform="scale(0.015625)"/>
       </defs>
       <use xlink:href="#DejaVuSans-2212"/>
       <use xlink:href="#DejaVuSans-36" transform="translate(83.789062 0)"/>
       <use xlink:href="#DejaVuSans-30" transform="translate(147.412109 0)"/>
      </g>
     </g>
    </g>
    <g id="ytick_2">
     <g id="line2d_8">
      <g>
       <use xlink:href="#m296dcb2fdc" x="57.6" y="240.307743" style="stroke: #000000; stroke-width: 0.8"/>
      </g>
     </g>
     <g id="text_9">
      <!-- −40 -->
      <g transform="translate(29.495313 244.106961) scale(0.1 -0.1)">
       <use xlink:href="#DejaVuSans-2212"/>
       <use xlink:href="#DejaVuSans-34" transform="translate(83.789062 0)"/>
       <use xlink:href="#DejaVuSans-30" transform="translate(147.412109 0)"/>
      </g>
     </g>
    </g>
    <g id="ytick_3">
     <g id="line2d_9">
      <g>
       <use xlink:href="#m296dcb2fdc" x="57.6" y="204.301047" style="stroke: #000000; stroke-width: 0.8"/>
      </g>
     </g>
     <g id="text_10">
      <!-- −20 -->
      <g transform="translate(29.495313 208.100266) scale(0.1 -0.1)">
       <use xlink:href="#DejaVuSans-2212"/>
       <use xlink:href="#DejaVuSans-32" transform="translate(83.789062 0)"/>
       <use xlink:href="#DejaVuSans-30" transform="translate(147.412109 0)"/>
      </g>
     </g>
    </g>
    <g id="ytick_4">
     <g id="line2d_10">
      <g>
       <use xlink:href="#m296dcb2fdc" x="57.6" y="168.294352" style="stroke: #000000; stroke-width: 0.8"/>
      </g>
     </g>
     <g id="text_11">
      <!-- 0 -->
      <g transform="translate(44.2375 172.09357) scale(0.1 -0.1)">
       <use xlink:href="#DejaVuSans-30"/>
      </g>
     </g>
    </g>
    <g id="ytick_5">
     <g id="line2d_11">
      <g>
       <use xlink:href="#m296dcb2fdc" x="57.6" y="132.287656" style="stroke: #000000; stroke-width: 0.8"/>
      </g>
     </g>
     <g id="text_12">
      <!-- 20 -->
      <g transform="translate(37.875 136.086875) scale(0.1 -0.1)">
       <use xlink:href="#DejaVuSans-32"/>
       <use xlink:href="#DejaVuSans-30" transform="translate(63.623047 0)"/>
      </g>
     </g>
    </g>
    <g id="ytick_6">
     <g id="line2d_12">
      <g>
       <use xlink:href="#m296dcb2fdc" x="57.6" y="96.280961" style="stroke: #000000; stroke-width: 0.8"/>
      </g>
     </g>
     <g id="text_13">
      <!-- 40 -->
      <g transform="translate(37.875 100.08018) scale(0.1 -0.1)">
       <use xlink:href="#DejaVuSans-34"/>
       <use xlink:href="#DejaVuSans-30" transform="translate(63.623047 0)"/>
      </g>
     </g>
    </g>
    <g id="ytick_7">
     <g id="line2d_13">
      <g>
       <use xlink:href="#m296dcb2fdc" x="57.6" y="60.274265" style="stroke: #000000; stroke-width: 0.8"/>
      </g>
     </g>
     <g id="text_14">
      <!-- 60 -->
      <g transform="translate(37.875 64.073484) scale(0.1 -0.1)">
       <use xlink:href="#DejaVuSans-36"/>
       <use xlink:href="#DejaVuSans-30" transform="translate(63.623047 0)"/>
      </g>
     </g>
    </g>
   </g>
   <g id="line2d_14">
    <path d="M 73.832727 225.162419 
L 74.157707 225.162419 
L 74.482686 222.349395 
L 74.807666 216.723349 
L 75.457625 216.723349 
L 75.782604 208.284279 
L 76.107584 208.284279 
L 76.432563 202.658233 
L 77.732482 191.40614 
L 78.057461 185.780093 
L 78.382441 182.96707 
L 78.70742 182.96707 
L 79.682359 174.528 
L 80.007338 168.901953 
L 80.332318 171.714977 
L 80.982277 160.462884 
L 81.307256 160.462884 
L 81.632236 157.64986 
L 81.957215 157.64986 
L 82.282195 152.023814 
L 82.607174 152.023814 
L 82.932154 149.210791 
L 83.257133 149.210791 
L 83.907093 143.584744 
L 84.557052 143.584744 
L 84.882031 140.771721 
L 85.207011 135.145674 
L 85.53199 137.958698 
L 85.85697 137.958698 
L 86.181949 135.145674 
L 86.506929 135.145674 
L 86.831908 132.332651 
L 87.156888 135.145674 
L 87.481867 129.519628 
L 90.406683 129.519628 
L 90.731663 132.332651 
L 91.056642 132.332651 
L 91.381622 129.519628 
L 91.706601 132.332651 
L 92.031581 132.332651 
L 92.35656 135.145674 
L 92.68154 132.332651 
L 93.006519 135.145674 
L 93.656478 129.519628 
L 94.306437 129.519628 
L 94.631417 126.706605 
L 94.956396 129.519628 
L 95.281376 129.519628 
L 95.606355 126.706605 
L 96.256314 126.706605 
L 96.906274 121.080558 
L 97.881212 121.080558 
L 98.856151 112.641488 
L 99.18113 112.641488 
L 99.50611 109.828465 
L 100.156069 109.828465 
L 100.481048 107.015442 
L 100.806028 101.389395 
L 101.455987 101.389395 
L 101.780966 98.576372 
L 102.430925 98.576372 
L 103.080885 92.950326 
L 103.405864 92.950326 
L 103.730844 87.324279 
L 104.055823 84.511256 
L 104.380803 84.511256 
L 104.705782 81.698233 
L 105.680721 81.698233 
L 106.0057 78.885209 
L 106.33068 78.885209 
L 106.980639 73.259163 
L 107.305618 73.259163 
L 107.630598 70.44614 
L 107.955577 70.44614 
L 108.280557 67.633116 
L 108.605536 67.633116 
L 108.930516 64.820093 
L 109.255495 64.820093 
L 109.580475 62.00707 
L 109.905455 64.820093 
L 110.230434 62.00707 
L 110.555414 62.00707 
L 110.880393 64.820093 
L 111.205373 62.00707 
L 111.530352 62.00707 
L 111.855332 59.194047 
L 112.505291 59.194047 
L 112.83027 56.381023 
L 113.15525 59.194047 
L 113.805209 59.194047 
L 114.130188 62.00707 
L 114.455168 59.194047 
L 114.780147 59.194047 
L 115.430106 64.820093 
L 115.755086 70.44614 
L 116.405045 70.44614 
L 116.730025 78.885209 
L 117.055004 81.698233 
L 117.379984 81.698233 
L 117.704963 84.511256 
L 118.029943 84.511256 
L 118.354922 87.324279 
L 118.679902 92.950326 
L 119.004881 95.763349 
L 119.329861 95.763349 
L 119.97982 101.389395 
L 120.304799 107.015442 
L 120.629779 107.015442 
L 121.279738 118.267535 
L 121.604717 118.267535 
L 122.254676 129.519628 
L 122.579656 129.519628 
L 122.904636 135.145674 
L 123.229615 135.145674 
L 124.204554 143.584744 
L 124.529533 149.210791 
L 125.179492 154.836837 
L 125.504472 160.462884 
L 125.829451 160.462884 
L 126.154431 168.901953 
L 126.47941 166.08893 
L 127.779328 177.341023 
L 128.104308 182.96707 
L 128.754267 188.593116 
L 129.079247 185.780093 
L 129.404226 191.40614 
L 129.729206 194.219163 
L 130.704144 194.219163 
L 131.029124 199.845209 
L 131.679083 205.471256 
L 132.004062 205.471256 
L 132.654021 211.097302 
L 132.979001 208.284279 
L 133.30398 213.910326 
L 133.62896 213.910326 
L 133.953939 216.723349 
L 134.603898 216.723349 
L 134.928878 219.536372 
L 135.253857 219.536372 
L 135.578837 222.349395 
L 135.903817 219.536372 
L 136.878755 227.975442 
L 137.203735 225.162419 
L 137.528714 227.975442 
L 138.178673 227.975442 
L 138.503653 230.788465 
L 138.828632 230.788465 
L 139.153612 227.975442 
L 139.478591 233.601488 
L 139.803571 230.788465 
L 140.12855 230.788465 
L 140.45353 233.601488 
L 140.778509 230.788465 
L 141.103489 230.788465 
L 141.428468 233.601488 
L 141.753448 230.788465 
L 142.078428 233.601488 
L 142.403407 233.601488 
L 142.728387 236.414512 
L 143.378346 236.414512 
L 143.703325 242.040558 
L 144.353284 236.414512 
L 144.678264 239.227535 
L 145.003243 239.227535 
L 145.328223 242.040558 
L 146.628141 242.040558 
L 146.95312 244.853581 
L 147.928059 244.853581 
L 148.253038 247.666605 
L 148.578018 247.666605 
L 149.552957 256.105674 
L 149.877936 256.105674 
L 150.202916 258.918698 
L 151.177854 258.918698 
L 151.827813 264.544744 
L 152.152793 264.544744 
L 152.477772 267.357767 
L 152.802752 267.357767 
L 153.127731 270.170791 
L 153.452711 270.170791 
L 154.10267 275.796837 
L 154.752629 275.796837 
L 155.077609 278.60986 
L 155.402588 278.60986 
L 156.052547 284.235907 
L 156.377527 284.235907 
L 156.702506 281.422884 
L 157.027486 284.235907 
L 157.352465 289.861953 
L 157.677445 289.861953 
L 158.002424 287.04893 
L 158.652383 292.674977 
L 158.977363 289.861953 
L 159.302342 295.488 
L 159.627322 292.674977 
L 159.952301 292.674977 
L 160.277281 289.861953 
L 161.902179 289.861953 
L 162.227158 287.04893 
L 162.552138 289.861953 
L 163.202097 284.235907 
L 163.527076 284.235907 
L 163.852056 278.60986 
L 164.177035 275.796837 
L 164.502015 275.796837 
L 164.826994 270.170791 
L 167.42683 247.666605 
L 167.75181 247.666605 
L 168.07679 244.853581 
L 168.401769 236.414512 
L 168.726749 239.227535 
L 169.376708 227.975442 
L 169.701687 227.975442 
L 170.026667 225.162419 
L 170.351646 219.536372 
L 171.001605 213.910326 
L 171.326585 213.910326 
L 171.651564 211.097302 
L 171.976544 202.658233 
L 172.301523 202.658233 
L 172.951482 197.032186 
L 173.276462 197.032186 
L 173.601441 188.593116 
L 173.926421 191.40614 
L 174.2514 188.593116 
L 174.57638 182.96707 
L 175.226339 177.341023 
L 175.551319 177.341023 
L 175.876298 171.714977 
L 176.201278 168.901953 
L 176.526257 163.275907 
L 176.851237 163.275907 
L 177.826175 154.836837 
L 178.151155 154.836837 
L 178.476134 152.023814 
L 179.126093 152.023814 
L 179.451073 146.397767 
L 179.776052 146.397767 
L 180.101032 143.584744 
L 180.750991 143.584744 
L 181.075971 140.771721 
L 181.40095 140.771721 
L 182.375889 132.332651 
L 182.700868 135.145674 
L 183.025848 132.332651 
L 183.350827 135.145674 
L 183.675807 132.332651 
L 184.000786 126.706605 
L 184.650745 132.332651 
L 184.975725 129.519628 
L 185.300704 132.332651 
L 185.950663 132.332651 
L 186.275643 129.519628 
L 187.250581 129.519628 
L 187.575561 132.332651 
L 187.900541 132.332651 
L 188.22552 135.145674 
L 188.5505 135.145674 
L 188.875479 129.519628 
L 189.200459 132.332651 
L 189.525438 137.958698 
L 189.850418 132.332651 
L 190.175397 129.519628 
L 191.475315 129.519628 
L 191.800295 126.706605 
L 192.125274 126.706605 
L 192.775233 121.080558 
L 193.100213 121.080558 
L 193.425192 118.267535 
L 194.075152 118.267535 
L 194.400131 112.641488 
L 195.05009 112.641488 
L 195.37507 109.828465 
L 195.700049 109.828465 
L 196.350008 104.202419 
L 196.674988 104.202419 
L 196.999967 101.389395 
L 197.324947 101.389395 
L 197.974906 95.763349 
L 198.624865 95.763349 
L 199.599803 87.324279 
L 199.924783 90.137302 
L 200.574742 84.511256 
L 200.899722 84.511256 
L 201.224701 81.698233 
L 201.549681 81.698233 
L 201.87466 78.885209 
L 202.524619 78.885209 
L 202.849599 76.072186 
L 203.174578 70.44614 
L 204.149517 70.44614 
L 204.474496 67.633116 
L 204.799476 62.00707 
L 205.124455 67.633116 
L 205.774414 62.00707 
L 206.749353 62.00707 
L 207.074333 59.194047 
L 209.349189 59.194047 
L 209.674169 62.00707 
L 209.999148 56.381023 
L 210.324128 62.00707 
L 210.649107 62.00707 
L 211.299066 67.633116 
L 211.624046 67.633116 
L 212.274005 73.259163 
L 212.598984 78.885209 
L 212.923964 76.072186 
L 213.248943 81.698233 
L 213.898903 81.698233 
L 214.548862 92.950326 
L 214.873841 92.950326 
L 215.198821 95.763349 
L 215.5238 101.389395 
L 216.173759 107.015442 
L 216.498739 112.641488 
L 216.823718 112.641488 
L 217.148698 118.267535 
L 217.473677 121.080558 
L 217.798657 126.706605 
L 218.123636 126.706605 
L 218.448616 132.332651 
L 219.098575 137.958698 
L 219.423554 137.958698 
L 219.748534 146.397767 
L 221.048452 157.64986 
L 221.373432 157.64986 
L 221.698411 160.462884 
L 222.34837 171.714977 
L 222.67335 171.714977 
L 223.648288 180.154047 
L 223.973268 180.154047 
L 224.298247 185.780093 
L 224.948206 191.40614 
L 225.273186 191.40614 
L 226.248124 199.845209 
L 226.573104 199.845209 
L 227.223063 205.471256 
L 227.873022 205.471256 
L 228.198002 211.097302 
L 228.847961 211.097302 
L 229.17294 213.910326 
L 229.49792 213.910326 
L 230.147879 219.536372 
L 230.797838 219.536372 
L 231.122817 222.349395 
L 231.772776 222.349395 
L 232.097756 225.162419 
L 233.397674 225.162419 
L 234.047633 230.788465 
L 234.372613 227.975442 
L 234.697592 227.975442 
L 235.347551 233.601488 
L 235.672531 233.601488 
L 235.99751 230.788465 
L 236.32249 233.601488 
L 237.622408 233.601488 
L 237.947387 236.414512 
L 238.272367 233.601488 
L 238.922326 239.227535 
L 239.572285 233.601488 
L 239.897265 239.227535 
L 240.222244 236.414512 
L 240.547224 239.227535 
L 241.197183 239.227535 
L 241.847142 244.853581 
L 242.172121 242.040558 
L 242.497101 244.853581 
L 242.82208 244.853581 
L 243.14706 250.479628 
L 243.472039 244.853581 
L 244.121998 250.479628 
L 244.446978 250.479628 
L 244.771957 247.666605 
L 246.071876 258.918698 
L 246.396855 256.105674 
L 247.046814 261.731721 
L 247.371794 261.731721 
L 247.696773 267.357767 
L 248.021753 264.544744 
L 248.346732 270.170791 
L 249.321671 270.170791 
L 249.64665 275.796837 
L 249.97163 275.796837 
L 250.296609 278.60986 
L 250.621589 278.60986 
L 250.946568 281.422884 
L 251.596527 281.422884 
L 252.246486 287.04893 
L 252.571466 284.235907 
L 252.896446 287.04893 
L 253.221425 287.04893 
L 253.546405 289.861953 
L 253.871384 289.861953 
L 254.196364 287.04893 
L 254.521343 292.674977 
L 254.846323 289.861953 
L 255.171302 292.674977 
L 255.496282 289.861953 
L 255.821261 292.674977 
L 256.146241 292.674977 
L 256.47122 295.488 
L 256.7962 292.674977 
L 257.121179 295.488 
L 257.771138 289.861953 
L 258.421097 289.861953 
L 261.020934 267.357767 
L 261.345913 267.357767 
L 261.670893 264.544744 
L 261.995872 258.918698 
L 262.320852 258.918698 
L 262.645831 253.292651 
L 263.29579 247.666605 
L 263.62077 247.666605 
L 263.945749 242.040558 
L 264.595708 236.414512 
L 264.920688 230.788465 
L 266.870565 213.910326 
L 267.195545 208.284279 
L 267.520524 208.284279 
L 269.145422 194.219163 
L 269.470401 188.593116 
L 269.795381 185.780093 
L 270.12036 185.780093 
L 270.44534 180.154047 
L 272.395217 163.275907 
L 272.720197 163.275907 
L 273.370156 157.64986 
L 273.695135 157.64986 
L 274.670074 149.210791 
L 275.320033 149.210791 
L 275.645012 146.397767 
L 275.969992 146.397767 
L 276.619951 140.771721 
L 277.26991 140.771721 
L 277.594889 137.958698 
L 277.919869 137.958698 
L 278.569828 132.332651 
L 278.894808 132.332651 
L 279.219787 129.519628 
L 279.544767 132.332651 
L 279.869746 129.519628 
L 281.169664 129.519628 
L 281.494644 126.706605 
L 281.819623 129.519628 
L 282.144603 129.519628 
L 282.469582 132.332651 
L 282.794562 132.332651 
L 283.119541 129.519628 
L 283.444521 132.332651 
L 283.7695 129.519628 
L 284.09448 135.145674 
L 284.419459 132.332651 
L 284.744439 137.958698 
L 285.069419 132.332651 
L 285.394398 135.145674 
L 286.044357 129.519628 
L 286.694316 129.519628 
L 287.019296 126.706605 
L 287.344275 129.519628 
L 287.994234 123.893581 
L 288.319214 126.706605 
L 288.644193 123.893581 
L 288.969173 118.267535 
L 289.944111 118.267535 
L 290.59407 112.641488 
L 291.244029 112.641488 
L 291.569009 109.828465 
L 291.893989 104.202419 
L 292.868927 104.202419 
L 293.518886 98.576372 
L 293.843866 98.576372 
L 294.168845 92.950326 
L 294.493825 92.950326 
L 294.818804 90.137302 
L 295.793743 90.137302 
L 296.768681 81.698233 
L 297.093661 81.698233 
L 297.41864 78.885209 
L 297.74362 78.885209 
L 298.0686 76.072186 
L 298.393579 76.072186 
L 298.718559 73.259163 
L 299.043538 73.259163 
L 299.368518 70.44614 
L 299.693497 70.44614 
L 300.018477 64.820093 
L 300.343456 67.633116 
L 300.668436 64.820093 
L 301.318395 64.820093 
L 301.643374 62.00707 
L 302.943292 62.00707 
L 303.268272 59.194047 
L 303.593251 53.568 
L 303.918231 56.381023 
L 304.24321 56.381023 
L 304.56819 53.568 
L 304.89317 56.381023 
L 305.218149 56.381023 
L 305.543129 59.194047 
L 305.868108 59.194047 
L 306.193088 62.00707 
L 307.168026 62.00707 
L 307.493006 67.633116 
L 309.117903 81.698233 
L 309.442883 81.698233 
L 309.767862 84.511256 
L 310.092842 90.137302 
L 311.39276 101.389395 
L 311.71774 101.389395 
L 312.367699 107.015442 
L 312.692678 112.641488 
L 313.017658 115.454512 
L 313.667617 126.706605 
L 313.992596 126.706605 
L 314.967535 135.145674 
L 315.292514 140.771721 
L 318.21733 166.08893 
L 318.54231 171.714977 
L 318.867289 174.528 
L 319.192269 174.528 
L 320.817166 188.593116 
L 321.142146 194.219163 
L 321.792105 194.219163 
L 322.767043 202.658233 
L 323.092023 202.658233 
L 324.066962 211.097302 
L 324.391941 205.471256 
L 324.716921 213.910326 
L 325.36688 213.910326 
L 325.691859 219.536372 
L 326.016839 216.723349 
L 326.341818 219.536372 
L 326.666798 216.723349 
L 326.991777 222.349395 
L 328.291695 222.349395 
L 328.616675 227.975442 
L 328.941654 225.162419 
L 329.266634 227.975442 
L 329.591613 227.975442 
L 329.916593 230.788465 
L 330.241572 227.975442 
L 330.891532 227.975442 
L 331.216511 230.788465 
L 331.541491 230.788465 
L 331.86647 233.601488 
L 333.166388 233.601488 
L 333.491368 230.788465 
L 334.466306 239.227535 
L 334.791286 236.414512 
L 335.116265 239.227535 
L 335.441245 236.414512 
L 336.091204 236.414512 
L 336.416183 239.227535 
L 337.066143 239.227535 
L 337.391122 242.040558 
L 338.69104 242.040558 
L 339.340999 247.666605 
L 339.665979 247.666605 
L 339.990958 244.853581 
L 340.315938 250.479628 
L 340.640917 253.292651 
L 340.965897 250.479628 
L 341.940835 258.918698 
L 342.915774 258.918698 
L 343.565733 264.544744 
L 344.215692 264.544744 
L 344.865651 270.170791 
L 345.190631 270.170791 
L 345.51561 275.796837 
L 346.165569 275.796837 
L 346.490549 278.60986 
L 346.815528 278.60986 
L 347.140508 281.422884 
L 348.115446 281.422884 
L 348.765405 287.04893 
L 349.415364 287.04893 
L 349.740344 289.861953 
L 350.390303 289.861953 
L 350.715283 292.674977 
L 351.365242 292.674977 
L 351.690221 295.488 
L 352.015201 292.674977 
L 352.34018 292.674977 
L 352.66516 289.861953 
L 353.315119 289.861953 
L 353.640098 287.04893 
L 353.965078 287.04893 
L 354.290057 284.235907 
L 355.264996 284.235907 
L 355.589975 278.60986 
L 356.239934 278.60986 
L 356.564914 270.170791 
L 356.889894 270.170791 
L 357.539853 264.544744 
L 357.864832 258.918698 
L 358.189812 256.105674 
L 358.514791 258.918698 
L 358.839771 253.292651 
L 360.464668 239.227535 
L 360.789648 230.788465 
L 361.114627 230.788465 
L 361.764586 219.536372 
L 362.414545 219.536372 
L 362.739525 216.723349 
L 363.064505 211.097302 
L 363.714464 205.471256 
L 364.039443 205.471256 
L 364.364423 199.845209 
L 365.339361 191.40614 
L 365.664341 185.780093 
L 365.98932 182.96707 
L 366.3143 185.780093 
L 366.639279 182.96707 
L 366.964259 177.341023 
L 368.264177 166.08893 
L 368.589156 166.08893 
L 368.914136 160.462884 
L 369.239115 157.64986 
L 369.564095 157.64986 
L 369.889075 154.836837 
L 370.214054 149.210791 
L 370.539034 152.023814 
L 371.188993 146.397767 
L 371.513972 149.210791 
L 372.488911 140.771721 
L 372.81389 140.771721 
L 373.13887 137.958698 
L 373.788829 137.958698 
L 374.113808 135.145674 
L 374.438788 129.519628 
L 374.763767 132.332651 
L 375.088747 132.332651 
L 375.413726 129.519628 
L 376.388665 129.519628 
L 376.713645 132.332651 
L 377.038624 129.519628 
L 378.013563 129.519628 
L 378.338542 132.332651 
L 378.663522 132.332651 
L 378.988501 129.519628 
L 379.313481 129.519628 
L 379.63846 132.332651 
L 380.613399 132.332651 
L 380.938378 135.145674 
L 381.263358 132.332651 
L 381.588337 126.706605 
L 381.913317 132.332651 
L 382.238296 132.332651 
L 382.563276 126.706605 
L 382.888256 129.519628 
L 383.213235 126.706605 
L 383.863194 126.706605 
L 384.513153 121.080558 
L 384.838133 123.893581 
L 385.813071 115.454512 
L 386.138051 115.454512 
L 386.46303 112.641488 
L 387.112989 112.641488 
L 387.762948 107.015442 
L 388.087928 107.015442 
L 388.412907 101.389395 
L 388.737887 101.389395 
L 389.062867 98.576372 
L 389.387846 101.389395 
L 390.037805 95.763349 
L 390.362785 95.763349 
L 390.687764 92.950326 
L 391.012744 92.950326 
L 391.337723 90.137302 
L 391.662703 90.137302 
L 391.987682 87.324279 
L 392.312662 90.137302 
L 392.637641 84.511256 
L 392.962621 84.511256 
L 393.61258 78.885209 
L 393.937559 78.885209 
L 394.262539 73.259163 
L 394.587518 73.259163 
L 394.912498 70.44614 
L 395.237477 73.259163 
L 395.562457 70.44614 
L 395.887437 70.44614 
L 396.212416 67.633116 
L 396.537396 67.633116 
L 396.862375 64.820093 
L 397.512334 64.820093 
L 398.162293 59.194047 
L 398.487273 59.194047 
L 398.487273 59.194047 
" clip-path="url(#pb9864c1b66)" style="fill: none; stroke: #1f77b4; stroke-width: 1.5; stroke-linecap: square"/>
   </g>
   <g id="patch_3">
    <path d="M 57.6 307.584 
L 57.6 41.472 
" style="fill: none; stroke: #000000; stroke-width: 0.8; stroke-linejoin: miter; stroke-linecap: square"/>
   </g>
   <g id="patch_4">
    <path d="M 414.72 307.584 
L 414.72 41.472 
" style="fill: none; stroke: #000000; stroke-width: 0.8; stroke-linejoin: miter; stroke-linecap: square"/>
   </g>
   <g id="patch_5">
    <path d="M 57.6 307.584 
L 414.72 307.584 
" style="fill: none; stroke: #000000; stroke-width: 0.8; stroke-linejoin: miter; stroke-linecap: square"/>
   </g>
   <g id="patch_6">
    <path d="M 57.6 41.472 
L 414.72 41.472 
" style="fill: none; stroke: #000000; stroke-width: 0.8; stroke-linejoin: miter; stroke-linecap: square"/>
   </g>
  </g>
 </g>
 <defs>
  <clipPath id="pb9864c1b66">
   <rect x="57.6" y="41.472" width="357.12" height="266.112"/>
  </clipPath>
 </defs>
</svg>
