<?xml version="1.0" encoding="utf-8" standalone="no"?>
<!DOCTYPE svg PUBLIC "-//W3C//DTD SVG 1.1//EN"
  "http://www.w3.org/Graphics/SVG/1.1/DTD/svg11.dtd">
<svg xmlns:xlink="http://www.w3.org/1999/xlink" width="460.8pt" height="345.6pt" viewBox="0 0 460.8 345.6" xmlns="http://www.w3.org/2000/svg" version="1.1">
 <metadata>
  <rdf:RDF xmlns:dc="http://purl.org/dc/elements/1.1/" xmlns:cc="http://creativecommons.org/ns#" xmlns:rdf="http://www.w3.org/1999/02/22-rdf-syntax-ns#">
   <cc:Work>
    <dc:type rdf:resource="http://purl.org/dc/dcmitype/StillImage"/>
    <dc:date>2025-12-29T10:43:05.217307</dc:date>
    <dc:format>image/svg+xml</dc:format>
    <dc:creator>
     <cc:Agent>
      <dc:title>Matplotlib v3.10.8, https://matplotlib.org/</dc:title>
     </cc:Agent>
    </dc:creator>
   </cc:Work>
  </rdf:RDF>
 </metadata>
 <defs>
  <style type="text/css">*{stroke-linejoin: round; stroke-linecap: butt}</style>
 </defs>
 <g id="figure_1">
  <g id="patch_1">
   <path d="M 0 345.6 
L 460.8 345.6 
L 460.8 0 
L 0 0 
z
" style="fill: #ffffff"/>
  </g>
  <g id="axes_1">
   <g id="patch_2">
    <path d="M 57.6 307.584 
L 414.72 307.584 
L 414.72 41.472 
L 57.6 41.472 
z
" style="fill: #ffffff"/>
   </g>
   <g id="matplotlib.axis_1">
    <g id="xtick_1">
     <g id="line2d_1">
      <defs>
       <path id="m39da17ec48" d="M 0 0 
L 0 3.5 
" style="stroke: #000000; stroke-width: 0.8"/>
      </defs>
      <g>
       <use xlink:href="#m39da17ec48" x="73.832727" y="307.584" style="stroke: #000000; stroke-width: 0.8"/>
      </g>
     </g>
     <g id="text_1">
      <!-- 0 -->
      <g transform="translate(70.651477 322.182437) scale(0.1 -0.1)">
       <defs>
        <path id="DejaVuSans-30" d="M 2034 4250 
Q 1547 4250 1301 3770 
Q 1056 3291 1056 2328 
Q 1056 1369 1301 889 
Q 1547 409 2034 409 
Q 2525 409 2770 889 
Q 3016 1369 3016 2328 
Q 3016 3291 2770 3770 
Q 2525 4250 2034 4250 
z
M 2034 4750 
Q 2819 4750 3233 4129 
Q 3647 3509 3647 2328 
Q 3647 1150 3233 529 
Q 2819 -91 2034 -91 
Q 1250 -91 836 529 
Q 422 1150 422 2328 
Q 422 3509 836 4129 
Q 1250 4750 2034 4750 
z
" transform="scale(0.015625)"/>
       </defs>
       <use xlink:href="#DejaVuSans-30"/>
      </g>
     </g>
    </g>
    <g id="xtick_2">
     <g id="line2d_2">
      <g>
       <use xlink:href="#m39da17ec48" x="138.828632" y="307.584" style="stroke: #000000; stroke-width: 0.8"/>
      </g>
     </g>
     <g id="text_2">
      <!-- 1 -->
      <g transform="translate(135.647382 322.182437) scale(0.1 -0.1)">
       <defs>
        <path id="DejaVuSans-31" d="M 794 531 
L 1825 531 
L 1825 4091 
L 703 3866 
L 703 4441 
L 1819 4666 
L 2450 4666 
L 2450 531 
L 3481 531 
L 3481 0 
L 794 0 
L 794 531 
z
" transform="scale(0.015625)"/>
       </defs>
       <use xlink:href="#DejaVuSans-31"/>
      </g>
     </g>
    </g>
    <g id="xtick_3">
     <g id="line2d_3">
      <g>
       <use xlink:href="#m39da17ec48" x="203.824537" y="307.584" style="stroke: #000000; stroke-width: 0.8"/>
      </g>
     </g>
     <g id="text_3">
      <!-- 2 -->
      <g transform="translate(200.643287 322.182437) scale(0.1 -0.1)">
       <defs>
        <path id="DejaVuSans-32" d="M 1228 531 
L 3431 531 
L 3431 0 
L 469 0 
L 469 531 
Q 828 903 1448 1529 
Q 2069 2156 2228 2338 
Q 2531 2678 2651 2914 
Q 2772 3150 2772 3378 
Q 2772 3750 2511 3984 
Q 2250 4219 1831 4219 
Q 1534 4219 1204 4116 
Q 875 4013 500 3803 
L 500 4441 
Q 881 4594 1212 4672 
Q 1544 4750 1819 4750 
Q 2544 4750 2975 4387 
Q 3406 4025 3406 3419 
Q 3406 3131 3298 2873 
Q 3191 2616 2906 2266 
Q 2828 2175 2409 1742 
Q 1991 1309 1228 531 
z
" transform="scale(0.015625)"/>
       </defs>
       <use xlink:href="#DejaVuSans-32"/>
      </g>
     </g>
    </g>
    <g id="xtick_4">
     <g id="line2d_4">
      <g>
       <use xlink:href="#m39da17ec48" x="268.820442" y="307.584" style="stroke: #000000; stroke-width: 0.8"/>
      </g>
     </g>
     <g id="text_4">
      <!-- 3 -->
      <g transform="translate(265.639192 322.182437) scale(0.1 -0.1)">
       <defs>
        <path id="DejaVuSans-33" d="M 2597 2516 
Q 3050 2419 3304 2112 
Q 3559 1806 3559 1356 
Q 3559 666 3084 287 
Q 2609 -91 1734 -91 
Q 1441 -91 1130 -33 
Q 819 25 488 141 
L 488 750 
Q 750 597 1062 519 
Q 1375 441 1716 441 
Q 2309 441 2620 675 
Q 2931 909 2931 1356 
Q 2931 1769 2642 2001 
Q 2353 2234 1838 2234 
L 1294 2234 
L 1294 2753 
L 1863 2753 
Q 2328 2753 2575 2939 
Q 2822 3125 2822 3475 
Q 2822 3834 2567 4026 
Q 2313 4219 1838 4219 
Q 1578 4219 1281 4162 
Q 984 4106 628 3988 
L 628 4550 
Q 988 4650 1302 4700 
Q 1616 4750 1894 4750 
Q 2613 4750 3031 4423 
Q 3450 4097 3450 3541 
Q 3450 3153 3228 2886 
Q 3006 2619 2597 2516 
z
" transform="scale(0.015625)"/>
       </defs>
       <use xlink:href="#DejaVuSans-33"/>
      </g>
     </g>
    </g>
    <g id="xtick_5">
     <g id="line2d_5">
      <g>
       <use xlink:href="#m39da17ec48" x="333.816347" y="307.584" style="stroke: #000000; stroke-width: 0.8"/>
      </g>
     </g>
     <g id="text_5">
      <!-- 4 -->
      <g transform="translate(330.635097 322.182437) scale(0.1 -0.1)">
       <defs>
        <path id="DejaVuSans-34" d="M 2419 4116 
L 825 1625 
L 2419 1625 
L 2419 4116 
z
M 2253 4666 
L 3047 4666 
L 3047 1625 
L 3713 1625 
L 3713 1100 
L 3047 1100 
L 3047 0 
L 2419 0 
L 2419 1100 
L 313 1100 
L 313 1709 
L 2253 4666 
z
" transform="scale(0.015625)"/>
       </defs>
       <use xlink:href="#DejaVuSans-34"/>
      </g>
     </g>
    </g>
    <g id="xtick_6">
     <g id="line2d_6">
      <g>
       <use xlink:href="#m39da17ec48" x="398.812252" y="307.584" style="stroke: #000000; stroke-width: 0.8"/>
      </g>
     </g>
     <g id="text_6">
      <!-- 5 -->
      <g transform="translate(395.631002 322.182437) scale(0.1 -0.1)">
       <defs>
        <path id="DejaVuSans-35" d="M 691 4666 
L 3169 4666 
L 3169 4134 
L 1269 4134 
L 1269 2991 
Q 1406 3038 1543 3061 
Q 1681 3084 1819 3084 
Q 2600 3084 3056 2656 
Q 3513 2228 3513 1497 
Q 3513 744 3044 326 
Q 2575 -91 1722 -91 
Q 1428 -91 1123 -41 
Q 819 9 494 109 
L 494 744 
Q 775 591 1075 516 
Q 1375 441 1709 441 
Q 2250 441 2565 725 
Q 2881 1009 2881 1497 
Q 2881 1984 2565 2268 
Q 2250 2553 1709 2553 
Q 1456 2553 1204 2497 
Q 953 2441 691 2322 
L 691 4666 
z
" transform="scale(0.015625)"/>
       </defs>
       <use xlink:href="#DejaVuSans-35"/>
      </g>
     </g>
    </g>
    <g id="text_7">
     <!-- 1e−7 -->
     <g transform="translate(387.462188 334.860562) scale(0.1 -0.1)">
      <defs>
       <path id="DejaVuSans-65" d="M 3597 1894 
L 3597 1613 
L 953 1613 
Q 991 1019 1311 708 
Q 1631 397 2203 397 
Q 2534 397 2845 478 
Q 3156 559 3463 722 
L 3463 178 
Q 3153 47 2828 -22 
Q 2503 -91 2169 -91 
Q 1331 -91 842 396 
Q 353 884 353 1716 
Q 353 2575 817 3079 
Q 1281 3584 2069 3584 
Q 2775 3584 3186 3129 
Q 3597 2675 3597 1894 
z
M 3022 2063 
Q 3016 2534 2758 2815 
Q 2500 3097 2075 3097 
Q 1594 3097 1305 2825 
Q 1016 2553 972 2059 
L 3022 2063 
z
" transform="scale(0.015625)"/>
       <path id="DejaVuSans-2212" d="M 678 2272 
L 4684 2272 
L 4684 1741 
L 678 1741 
L 678 2272 
z
" transform="scale(0.015625)"/>
       <path id="DejaVuSans-37" d="M 525 4666 
L 3525 4666 
L 3525 4397 
L 1831 0 
L 1172 0 
L 2766 4134 
L 525 4134 
L 525 4666 
z
" transform="scale(0.015625)"/>
      </defs>
      <use xlink:href="#DejaVuSans-31"/>
      <use xlink:href="#DejaVuSans-65" transform="translate(63.623047 0)"/>
      <use xlink:href="#DejaVuSans-2212" transform="translate(125.146484 0)"/>
      <use xlink:href="#DejaVuSans-37" transform="translate(208.935547 0)"/>
     </g>
    </g>
   </g>
   <g id="matplotlib.axis_2">
    <g id="ytick_1">
     <g id="line2d_7">
      <defs>
       <path id="me853a8e3e4" d="M 0 0 
L -3.5 0 
" style="stroke: #000000; stroke-width: 0.8"/>
      </defs>
      <g>
       <use xlink:href="#me853a8e3e4" x="57.6" y="282.048018" style="stroke: #000000; stroke-width: 0.8"/>
      </g>
     </g>
     <g id="text_8">
      <!-- 0 -->
      <g transform="translate(44.2375 285.847236) scale(0.1 -0.1)">
       <use xlink:href="#DejaVuSans-30"/>
      </g>
     </g>
    </g>
    <g id="ytick_2">
     <g id="line2d_8">
      <g>
       <use xlink:href="#me853a8e3e4" x="57.6" y="239.040013" style="stroke: #000000; stroke-width: 0.8"/>
      </g>
     </g>
     <g id="text_9">
      <!-- 10 -->
      <g transform="translate(37.875 242.839232) scale(0.1 -0.1)">
       <use xlink:href="#DejaVuSans-31"/>
       <use xlink:href="#DejaVuSans-30" transform="translate(63.623047 0)"/>
      </g>
     </g>
    </g>
    <g id="ytick_3">
     <g id="line2d_9">
      <g>
       <use xlink:href="#me853a8e3e4" x="57.6" y="196.032009" style="stroke: #000000; stroke-width: 0.8"/>
      </g>
     </g>
     <g id="text_10">
      <!-- 20 -->
      <g transform="translate(37.875 199.831228) scale(0.1 -0.1)">
       <use xlink:href="#DejaVuSans-32"/>
       <use xlink:href="#DejaVuSans-30" transform="translate(63.623047 0)"/>
      </g>
     </g>
    </g>
    <g id="ytick_4">
     <g id="line2d_10">
      <g>
       <use xlink:href="#me853a8e3e4" x="57.6" y="153.024004" style="stroke: #000000; stroke-width: 0.8"/>
      </g>
     </g>
     <g id="text_11">
      <!-- 30 -->
      <g transform="translate(37.875 156.823223) scale(0.1 -0.1)">
       <use xlink:href="#DejaVuSans-33"/>
       <use xlink:href="#DejaVuSans-30" transform="translate(63.623047 0)"/>
      </g>
     </g>
    </g>
    <g id="ytick_5">
     <g id="line2d_11">
      <g>
       <use xlink:href="#me853a8e3e4" x="57.6" y="110.016" style="stroke: #000000; stroke-width: 0.8"/>
      </g>
     </g>
     <g id="text_12">
      <!-- 40 -->
      <g transform="translate(37.875 113.815219) scale(0.1 -0.1)">
       <use xlink:href="#DejaVuSans-34"/>
       <use xlink:href="#DejaVuSans-30" transform="translate(63.623047 0)"/>
      </g>
     </g>
    </g>
    <g id="ytick_6">
     <g id="line2d_12">
      <g>
       <use xlink:href="#me853a8e3e4" x="57.6" y="67.007996" style="stroke: #000000; stroke-width: 0.8"/>
      </g>
     </g>
     <g id="text_13">
      <!-- 50 -->
      <g transform="translate(37.875 70.807214) scale(0.1 -0.1)">
       <use xlink:href="#DejaVuSans-35"/>
       <use xlink:href="#DejaVuSans-30" transform="translate(63.623047 0)"/>
      </g>
     </g>
    </g>
   </g>
   <g id="line2d_13">
    <path d="M 73.832727 261.350418 
L 74.157707 261.081618 
L 74.482686 260.544018 
L 74.807666 260.544018 
L 75.132645 260.812818 
L 75.457625 261.619218 
L 75.782604 260.544018 
L 76.107584 260.275218 
L 76.432563 260.275218 
L 76.757543 261.081618 
L 77.082523 261.081618 
L 77.407502 261.350418 
L 77.732482 260.812818 
L 78.057461 260.812818 
L 78.382441 261.350418 
L 78.70742 261.081618 
L 79.0324 261.350418 
L 79.357379 260.812818 
L 79.682359 260.544018 
L 80.007338 260.544018 
L 80.332318 260.812818 
L 80.657297 261.619218 
L 80.982277 261.350418 
L 81.307256 260.812818 
L 81.632236 260.812818 
L 81.957215 261.081618 
L 82.607174 261.081618 
L 82.932154 260.544018 
L 83.257133 261.619218 
L 83.907093 269.414418 
L 84.232072 270.758418 
L 84.557052 269.952018 
L 84.882031 271.296018 
L 85.53199 276.940818 
L 86.181949 283.392018 
L 86.506929 286.080018 
L 87.806847 290.112018 
L 88.131826 290.380818 
L 88.456806 289.574418 
L 88.781785 287.961618 
L 89.106765 285.004818 
L 89.756724 280.972818 
L 90.081704 280.435218 
L 90.406683 280.166418 
L 90.731663 279.360018 
L 91.056642 279.091218 
L 91.381622 278.553618 
L 91.706601 278.553618 
L 92.031581 279.091218 
L 92.35656 280.704018 
L 92.68154 281.510418 
L 93.006519 281.510418 
L 93.331499 280.704018 
L 93.656478 280.972818 
L 94.306437 285.004818 
L 94.631417 285.542418 
L 94.956396 284.467218 
L 95.281376 282.585618 
L 95.606355 281.779218 
L 95.931335 282.854418 
L 96.256314 284.467218 
L 96.581294 283.929618 
L 96.906274 281.779218 
L 97.231253 280.435218 
L 97.556233 280.972818 
L 97.881212 282.854418 
L 98.206192 283.392018 
L 98.531171 282.316818 
L 98.856151 279.897618 
L 99.18113 279.897618 
L 99.50611 281.510418 
L 99.831089 283.929618 
L 100.156069 283.929618 
L 100.481048 281.779218 
L 100.806028 280.435218 
L 101.131007 281.241618 
L 101.455987 283.660818 
L 101.780966 284.736018 
L 102.105946 283.929618 
L 102.430925 281.510418 
L 102.755905 280.972818 
L 103.080885 282.048018 
L 103.405864 283.660818 
L 103.730844 283.660818 
L 104.380803 280.972818 
L 104.705782 281.241618 
L 105.355741 284.198418 
L 105.680721 283.123218 
L 106.0057 281.510418 
L 106.33068 280.704018 
L 106.980639 283.123218 
L 107.305618 283.123218 
L 107.955577 281.779218 
L 108.280557 281.779218 
L 108.930516 283.123218 
L 109.255495 282.316818 
L 109.905455 281.779218 
L 110.230434 282.585618 
L 110.880393 283.123218 
L 111.205373 282.585618 
L 111.530352 281.779218 
L 111.855332 282.316818 
L 112.180311 282.316818 
L 112.505291 282.585618 
L 112.83027 282.585618 
L 113.15525 282.316818 
L 113.480229 281.779218 
L 113.805209 282.316818 
L 114.130188 282.316818 
L 114.780147 282.854418 
L 115.105127 282.585618 
L 115.430106 282.048018 
L 115.755086 282.048018 
L 116.405045 282.585618 
L 116.730025 282.048018 
L 117.379984 282.048018 
L 117.704963 282.585618 
L 118.029943 282.854418 
L 118.354922 283.392018 
L 119.004881 281.779218 
L 119.329861 281.510418 
L 119.65484 282.048018 
L 120.304799 282.585618 
L 120.629779 282.048018 
L 120.954758 282.048018 
L 121.279738 282.585618 
L 121.604717 282.854418 
L 122.579656 282.048018 
L 122.904636 282.048018 
L 123.229615 282.316818 
L 123.554595 282.854418 
L 123.879574 282.316818 
L 124.204554 281.510418 
L 124.529533 281.779218 
L 124.854513 282.316818 
L 125.179492 283.123218 
L 125.504472 282.854418 
L 125.829451 282.048018 
L 126.154431 282.048018 
L 126.47941 282.316818 
L 126.80439 283.123218 
L 127.129369 282.585618 
L 127.454349 282.316818 
L 127.779328 281.779218 
L 128.104308 282.316818 
L 128.429287 282.316818 
L 128.754267 282.854418 
L 129.079247 282.316818 
L 129.404226 282.048018 
L 129.729206 282.048018 
L 130.054185 282.585618 
L 130.379165 283.392018 
L 131.029124 282.316818 
L 131.354103 282.048018 
L 132.004062 282.585618 
L 132.329042 282.048018 
L 132.654021 282.048018 
L 132.979001 281.779218 
L 133.62896 282.854418 
L 133.953939 283.123218 
L 134.278919 282.854418 
L 134.603898 282.048018 
L 134.928878 281.779218 
L 135.253857 282.048018 
L 135.578837 282.585618 
L 135.903817 282.585618 
L 136.228796 282.048018 
L 136.553776 282.048018 
L 136.878755 282.316818 
L 137.203735 283.123218 
L 137.528714 283.123218 
L 137.853694 282.854418 
L 138.178673 282.048018 
L 138.503653 282.316818 
L 139.153612 282.316818 
L 139.478591 282.048018 
L 140.45353 282.048018 
L 140.778509 282.585618 
L 141.103489 282.585618 
L 141.428468 282.316818 
L 142.403407 283.123218 
L 142.728387 282.585618 
L 143.378346 282.048018 
L 144.353284 282.854418 
L 144.678264 282.854418 
L 145.003243 282.585618 
L 145.328223 282.585618 
L 145.653202 282.048018 
L 146.303161 282.585618 
L 146.628141 282.585618 
L 146.95312 282.854418 
L 147.2781 282.854418 
L 147.603079 283.392018 
L 147.928059 283.123218 
L 148.253038 283.123218 
L 148.578018 282.585618 
L 149.227977 280.166418 
L 150.202916 276.672018 
L 151.827813 267.801618 
L 152.802752 263.232018 
L 153.127731 262.694418 
L 153.452711 263.232018 
L 153.77769 262.694418 
L 154.752629 259.737618 
L 155.077609 260.006418 
L 155.402588 260.006418 
L 156.052547 258.931218 
L 156.377527 259.200018 
L 156.702506 259.200018 
L 157.027486 260.275218 
L 157.352465 260.544018 
L 157.677445 259.737618 
L 158.002424 259.468818 
L 158.327404 259.468818 
L 158.652383 260.544018 
L 158.977363 260.544018 
L 159.302342 260.812818 
L 159.627322 260.006418 
L 159.952301 260.006418 
L 160.60226 261.619218 
L 160.92724 261.619218 
L 161.577199 261.081618 
L 161.902179 261.350418 
L 162.227158 261.888018 
L 162.552138 262.156818 
L 162.877117 261.081618 
L 163.527076 260.544018 
L 163.852056 261.619218 
L 164.177035 261.619218 
L 164.502015 261.350418 
L 165.151974 260.006418 
L 165.476953 260.812818 
L 165.801933 261.081618 
L 166.126912 261.081618 
L 166.451892 260.544018 
L 166.776871 260.544018 
L 167.101851 260.275218 
L 167.42683 261.081618 
L 167.75181 261.350418 
L 168.07679 260.544018 
L 168.726749 260.006418 
L 169.051728 261.350418 
L 169.376708 261.350418 
L 169.701687 260.812818 
L 170.351646 260.275218 
L 170.676626 260.544018 
L 171.001605 261.081618 
L 171.326585 261.081618 
L 171.651564 260.544018 
L 171.976544 260.544018 
L 172.301523 260.275218 
L 172.951482 261.350418 
L 173.276462 261.081618 
L 173.601441 261.081618 
L 173.926421 260.544018 
L 174.2514 261.081618 
L 174.90136 261.081618 
L 175.226339 260.812818 
L 175.551319 260.006418 
L 175.876298 260.275218 
L 176.526257 261.350418 
L 176.851237 261.350418 
L 177.501196 260.812818 
L 177.826175 260.812818 
L 178.151155 261.081618 
L 178.801114 260.544018 
L 179.126093 261.350418 
L 179.776052 269.683218 
L 180.101032 270.489618 
L 180.426011 270.220818 
L 180.750991 271.296018 
L 181.40095 277.209618 
L 182.050909 283.660818 
L 182.700868 287.424018 
L 183.025848 288.768018 
L 183.675807 290.112018 
L 184.000786 290.380818 
L 184.325766 289.574418 
L 184.975725 285.273618 
L 185.300704 282.585618 
L 185.625684 280.972818 
L 185.950663 280.166418 
L 186.275643 280.166418 
L 186.600622 279.628818 
L 187.250581 278.284818 
L 187.575561 278.284818 
L 187.900541 279.091218 
L 188.5505 281.779218 
L 188.875479 281.510418 
L 189.200459 280.704018 
L 189.525438 281.241618 
L 190.175397 284.736018 
L 190.500377 285.273618 
L 190.825356 284.198418 
L 191.150336 282.316818 
L 191.475315 281.779218 
L 192.125274 284.198418 
L 192.450254 283.660818 
L 193.100213 280.704018 
L 193.425192 280.972818 
L 193.750172 282.854418 
L 194.075152 283.660818 
L 194.725111 279.897618 
L 195.05009 279.897618 
L 195.700049 283.660818 
L 196.025029 283.392018 
L 196.674988 280.435218 
L 196.999967 281.510418 
L 197.324947 283.660818 
L 197.649926 284.736018 
L 197.974906 283.660818 
L 198.299885 281.510418 
L 198.624865 280.972818 
L 199.274824 283.660818 
L 199.599803 283.660818 
L 199.924783 281.779218 
L 200.249762 280.972818 
L 200.574742 280.972818 
L 200.899722 282.854418 
L 201.224701 283.929618 
L 201.549681 283.392018 
L 201.87466 281.510418 
L 202.19964 280.704018 
L 202.524619 281.510418 
L 202.849599 282.854418 
L 203.174578 283.123218 
L 203.499558 282.585618 
L 203.824537 281.779218 
L 204.149517 282.048018 
L 204.474496 282.585618 
L 204.799476 282.854418 
L 205.124455 282.585618 
L 205.449435 282.048018 
L 205.774414 281.779218 
L 206.424373 282.854418 
L 206.749353 282.854418 
L 207.399312 281.779218 
L 207.724292 281.779218 
L 208.69923 282.585618 
L 209.02421 282.316818 
L 209.674169 282.316818 
L 209.999148 282.585618 
L 210.324128 282.585618 
L 210.649107 282.854418 
L 210.974087 282.316818 
L 211.299066 282.316818 
L 211.624046 281.779218 
L 211.949025 282.316818 
L 212.274005 282.585618 
L 212.923964 282.048018 
L 213.248943 282.048018 
L 213.898903 283.123218 
L 214.223882 283.123218 
L 214.548862 282.854418 
L 214.873841 282.048018 
L 215.198821 281.779218 
L 215.5238 281.779218 
L 215.84878 282.316818 
L 216.498739 282.316818 
L 216.823718 282.048018 
L 217.148698 282.585618 
L 217.473677 282.854418 
L 217.798657 282.854418 
L 218.448616 281.779218 
L 219.098575 282.854418 
L 219.423554 282.854418 
L 219.748534 282.585618 
L 220.073514 282.048018 
L 220.398493 281.779218 
L 221.048452 283.123218 
L 221.373432 282.854418 
L 222.023391 281.779218 
L 222.67335 282.854418 
L 222.998329 282.585618 
L 223.648288 281.510418 
L 223.973268 282.316818 
L 224.623227 282.854418 
L 224.948206 282.316818 
L 225.273186 282.048018 
L 225.598165 282.048018 
L 226.248124 283.123218 
L 226.573104 283.123218 
L 227.223063 281.779218 
L 227.548043 282.316818 
L 227.873022 282.316818 
L 228.198002 282.585618 
L 228.522981 282.048018 
L 228.847961 281.779218 
L 229.17294 282.316818 
L 229.49792 283.123218 
L 229.822899 283.392018 
L 230.472858 282.316818 
L 230.797838 282.048018 
L 231.122817 282.048018 
L 231.447797 282.854418 
L 231.772776 282.316818 
L 232.422735 281.779218 
L 232.747715 282.585618 
L 233.072695 282.854418 
L 233.722654 282.854418 
L 234.047633 282.316818 
L 234.372613 282.316818 
L 234.697592 282.585618 
L 235.022572 282.585618 
L 235.347551 282.048018 
L 235.672531 282.316818 
L 236.32249 282.316818 
L 236.647469 283.123218 
L 236.972449 282.854418 
L 237.297428 282.316818 
L 237.622408 282.316818 
L 238.272367 282.854418 
L 238.597346 282.854418 
L 239.247305 281.779218 
L 239.572285 282.316818 
L 240.222244 282.854418 
L 240.872203 282.854418 
L 241.197183 282.585618 
L 241.522162 282.048018 
L 241.847142 282.585618 
L 242.172121 282.316818 
L 242.497101 282.585618 
L 242.82208 282.585618 
L 243.797019 283.392018 
L 244.121998 283.123218 
L 245.096937 280.435218 
L 246.071876 276.940818 
L 247.371794 268.876818 
L 247.696773 267.801618 
L 248.671712 263.232018 
L 248.996691 263.232018 
L 249.64665 262.694418 
L 249.97163 261.888018 
L 250.296609 260.275218 
L 250.621589 259.737618 
L 250.946568 260.275218 
L 251.596527 259.737618 
L 251.921507 258.662418 
L 252.246486 258.931218 
L 252.571466 259.468818 
L 252.896446 260.275218 
L 253.221425 260.006418 
L 253.546405 259.468818 
L 253.871384 259.200018 
L 254.846323 260.812818 
L 255.171302 260.544018 
L 255.496282 260.006418 
L 255.821261 259.737618 
L 256.146241 261.081618 
L 256.47122 261.619218 
L 256.7962 261.619218 
L 257.121179 261.081618 
L 257.771138 261.619218 
L 258.096118 262.156818 
L 258.421097 261.888018 
L 259.071057 260.275218 
L 259.396036 260.812818 
L 259.721016 261.619218 
L 260.045995 261.619218 
L 260.370975 261.350418 
L 260.695954 260.544018 
L 261.020934 260.544018 
L 261.670893 261.619218 
L 261.995872 261.350418 
L 262.320852 260.275218 
L 262.645831 260.275218 
L 263.29579 260.812818 
L 263.62077 260.812818 
L 263.945749 260.544018 
L 264.270729 260.006418 
L 264.595708 260.275218 
L 264.920688 260.812818 
L 265.570647 261.350418 
L 265.895627 260.544018 
L 266.220606 260.275218 
L 266.545586 260.812818 
L 267.195545 261.350418 
L 267.520524 260.275218 
L 268.170483 260.275218 
L 268.495463 261.081618 
L 269.145422 261.081618 
L 269.470401 260.812818 
L 270.12036 260.812818 
L 270.44534 261.350418 
L 270.770319 261.081618 
L 271.095299 260.544018 
L 271.420278 260.275218 
L 271.745258 260.544018 
L 272.070238 261.081618 
L 273.045176 261.081618 
L 273.370156 260.544018 
L 273.695135 261.081618 
L 274.020115 261.081618 
L 274.670074 260.544018 
L 274.995053 261.619218 
L 275.645012 269.414418 
L 275.969992 270.489618 
L 276.294971 269.952018 
L 276.619951 271.027218 
L 278.244848 285.811218 
L 278.569828 287.424018 
L 279.544767 290.112018 
L 279.869746 290.112018 
L 280.194726 289.574418 
L 280.519705 287.961618 
L 281.169664 282.585618 
L 281.494644 280.972818 
L 281.819623 280.435218 
L 282.144603 280.166418 
L 282.794562 279.091218 
L 283.119541 278.284818 
L 283.444521 278.553618 
L 283.7695 279.360018 
L 284.419459 281.779218 
L 285.069419 280.704018 
L 285.394398 280.972818 
L 286.369337 285.542418 
L 287.344275 281.779218 
L 287.994234 284.198418 
L 288.319214 283.660818 
L 288.969173 280.704018 
L 289.294152 280.972818 
L 289.619132 282.854418 
L 289.944111 283.660818 
L 290.59407 279.897618 
L 290.91905 279.628818 
L 291.569009 283.929618 
L 291.893989 283.929618 
L 292.218968 281.779218 
L 292.543948 280.435218 
L 292.868927 280.972818 
L 293.193907 283.660818 
L 293.518886 284.467218 
L 293.843866 283.660818 
L 294.168845 281.510418 
L 294.493825 280.972818 
L 294.818804 282.048018 
L 295.143784 283.660818 
L 295.468763 283.660818 
L 296.118722 280.704018 
L 296.443702 280.972818 
L 296.768681 283.123218 
L 297.093661 284.198418 
L 297.41864 283.392018 
L 297.74362 281.779218 
L 298.0686 280.972818 
L 299.043538 283.123218 
L 299.693497 281.779218 
L 300.018477 281.779218 
L 300.343456 282.585618 
L 300.668436 282.854418 
L 300.993415 282.585618 
L 301.643374 281.510418 
L 302.293333 283.123218 
L 302.943292 282.585618 
L 303.268272 281.779218 
L 303.593251 281.779218 
L 304.24321 282.854418 
L 305.218149 282.048018 
L 305.543129 282.048018 
L 306.193088 282.585618 
L 306.518067 282.585618 
L 307.493006 281.779218 
L 307.817985 282.316818 
L 308.142965 282.585618 
L 308.467944 282.585618 
L 308.792924 282.048018 
L 309.117903 282.048018 
L 309.442883 282.585618 
L 310.092842 283.123218 
L 310.417821 282.585618 
L 310.742801 281.779218 
L 311.067781 281.510418 
L 311.39276 282.048018 
L 312.042719 282.585618 
L 312.367699 281.779218 
L 312.692678 282.316818 
L 313.017658 282.585618 
L 313.342637 283.123218 
L 313.667617 282.854418 
L 313.992596 282.316818 
L 314.317576 281.510418 
L 314.967535 282.854418 
L 315.292514 283.123218 
L 315.942473 281.510418 
L 316.267453 281.779218 
L 316.917412 283.123218 
L 317.567371 282.048018 
L 317.892351 281.779218 
L 318.54231 282.854418 
L 318.867289 282.854418 
L 319.192269 282.316818 
L 319.517248 281.510418 
L 320.492187 283.123218 
L 320.817166 282.316818 
L 321.142146 282.048018 
L 321.467125 282.048018 
L 322.117084 283.123218 
L 322.442064 282.854418 
L 322.767043 282.316818 
L 323.092023 282.048018 
L 323.417002 282.316818 
L 323.741982 282.316818 
L 324.066962 282.854418 
L 324.391941 282.048018 
L 324.716921 281.779218 
L 325.0419 282.048018 
L 325.36688 283.123218 
L 325.691859 283.123218 
L 326.016839 282.854418 
L 326.666798 281.779218 
L 326.991777 282.585618 
L 327.316757 282.585618 
L 327.641736 282.316818 
L 327.966716 281.779218 
L 328.291695 281.779218 
L 328.941654 282.854418 
L 329.266634 283.123218 
L 329.591613 282.854418 
L 329.916593 282.316818 
L 330.241572 282.585618 
L 330.566552 282.585618 
L 330.891532 282.854418 
L 331.216511 282.048018 
L 331.86647 282.048018 
L 332.19145 282.585618 
L 332.516429 282.854418 
L 332.841409 282.316818 
L 333.166388 282.316818 
L 333.491368 282.585618 
L 333.816347 283.123218 
L 334.466306 283.123218 
L 334.791286 282.585618 
L 335.116265 281.779218 
L 335.441245 282.585618 
L 335.766224 282.585618 
L 336.091204 283.123218 
L 336.416183 283.123218 
L 337.066143 282.585618 
L 337.391122 282.048018 
L 337.716102 282.585618 
L 338.041081 282.316818 
L 338.366061 282.585618 
L 338.69104 282.585618 
L 339.340999 283.123218 
L 339.990958 283.123218 
L 340.965897 280.435218 
L 341.940835 276.940818 
L 343.240753 268.876818 
L 343.565733 268.070418 
L 343.890713 265.651218 
L 344.215692 264.307218 
L 344.540672 263.500818 
L 345.190631 262.963218 
L 345.84059 261.888018 
L 346.165569 260.544018 
L 346.490549 259.737618 
L 346.815528 260.006418 
L 347.140508 260.006418 
L 347.790467 258.931218 
L 348.115446 258.662418 
L 348.440426 259.200018 
L 348.765405 260.006418 
L 349.090385 260.275218 
L 349.415364 259.468818 
L 349.740344 259.468818 
L 350.065324 259.737618 
L 350.390303 260.544018 
L 351.040262 260.544018 
L 351.365242 259.737618 
L 351.690221 260.006418 
L 352.34018 261.619218 
L 352.66516 261.619218 
L 352.990139 261.081618 
L 353.315119 261.350418 
L 353.640098 261.350418 
L 353.965078 262.156818 
L 354.290057 261.888018 
L 354.940016 260.812818 
L 355.264996 261.081618 
L 355.589975 261.619218 
L 355.914955 261.619218 
L 356.239934 261.350418 
L 356.564914 260.275218 
L 356.889894 260.275218 
L 357.539853 261.350418 
L 358.189812 260.812818 
L 358.514791 260.275218 
L 358.839771 260.275218 
L 359.16475 261.081618 
L 359.48973 261.081618 
L 359.814709 260.812818 
L 360.139689 260.275218 
L 360.464668 260.544018 
L 360.789648 261.081618 
L 361.114627 261.350418 
L 361.439607 261.350418 
L 361.764586 260.544018 
L 362.089566 260.275218 
L 362.414545 260.544018 
L 362.739525 261.081618 
L 363.714464 260.275218 
L 364.039443 260.275218 
L 364.364423 261.081618 
L 366.3143 261.081618 
L 366.639279 261.619218 
L 366.964259 260.812818 
L 367.614218 260.812818 
L 368.264177 261.350418 
L 369.239115 260.544018 
L 369.564095 261.081618 
L 369.889075 260.812818 
L 370.214054 261.081618 
L 370.539034 260.812818 
L 370.864013 261.619218 
L 371.513972 269.414418 
L 371.838952 270.758418 
L 372.163931 270.220818 
L 372.488911 271.296018 
L 373.13887 277.209618 
L 374.113808 285.811218 
L 375.088747 289.574418 
L 375.413726 290.380818 
L 375.738706 290.380818 
L 376.063686 289.574418 
L 376.388665 287.961618 
L 377.038624 282.854418 
L 377.363604 280.972818 
L 378.013563 279.897618 
L 378.338542 279.628818 
L 378.988501 278.553618 
L 379.313481 278.284818 
L 379.63846 278.822418 
L 379.96344 280.704018 
L 380.288419 281.510418 
L 380.938378 280.972818 
L 381.263358 280.972818 
L 382.238296 285.542418 
L 382.563276 284.467218 
L 382.888256 282.585618 
L 383.213235 281.779218 
L 383.863194 284.198418 
L 384.188174 283.929618 
L 384.838133 280.704018 
L 385.163112 281.241618 
L 385.488092 282.854418 
L 385.813071 283.392018 
L 386.138051 282.316818 
L 386.46303 280.166418 
L 386.78801 279.897618 
L 387.112989 281.510418 
L 387.437969 283.929618 
L 387.762948 283.660818 
L 388.412907 280.704018 
L 388.737887 281.241618 
L 389.062867 283.660818 
L 389.387846 284.736018 
L 389.712826 283.929618 
L 390.037805 281.510418 
L 390.362785 280.704018 
L 390.687764 282.048018 
L 391.012744 283.929618 
L 391.337723 284.198418 
L 391.987682 280.704018 
L 392.312662 280.972818 
L 392.637641 283.123218 
L 392.962621 283.929618 
L 393.2876 283.123218 
L 393.61258 281.510418 
L 393.937559 280.704018 
L 394.587518 282.854418 
L 394.912498 283.123218 
L 395.237477 282.854418 
L 395.562457 282.048018 
L 396.537396 282.854418 
L 396.862375 282.585618 
L 397.187355 282.048018 
L 397.512334 281.779218 
L 398.162293 283.123218 
L 398.487273 283.123218 
L 398.487273 283.123218 
" clip-path="url(#p85da62493e)" style="fill: none; stroke: #1f77b4; stroke-width: 1.5; stroke-linecap: square"/>
   </g>
   <g id="line2d_14">
    <path d="M 73.832727 282.316818 
L 74.157707 282.316818 
L 74.482686 282.585618 
L 75.132645 282.585618 
L 75.457625 282.316818 
L 76.107584 282.854418 
L 76.432563 282.854418 
L 76.757543 282.316818 
L 77.082523 282.048018 
L 78.057461 282.854418 
L 78.382441 282.316818 
L 78.70742 282.048018 
L 79.0324 282.048018 
L 80.007338 282.854418 
L 80.332318 282.316818 
L 80.657297 282.316818 
L 81.307256 282.854418 
L 81.632236 282.585618 
L 81.957215 282.585618 
L 82.282195 282.316818 
L 82.607174 282.854418 
L 82.932154 282.585618 
L 83.907093 282.585618 
L 84.232072 282.316818 
L 84.557052 282.585618 
L 84.882031 282.585618 
L 85.207011 282.854418 
L 85.53199 282.585618 
L 85.85697 282.048018 
L 86.181949 282.854418 
L 86.506929 282.854418 
L 86.831908 282.585618 
L 87.156888 282.585618 
L 87.481867 282.316818 
L 87.806847 282.316818 
L 88.131826 282.854418 
L 88.456806 282.585618 
L 88.781785 282.854418 
L 89.431744 282.316818 
L 89.756724 282.585618 
L 90.731663 282.585618 
L 91.056642 282.316818 
L 91.381622 282.585618 
L 92.35656 282.585618 
L 92.68154 282.316818 
L 93.006519 282.585618 
L 93.656478 282.585618 
L 93.981458 282.854418 
L 94.306437 282.316818 
L 94.956396 282.854418 
L 95.281376 282.854418 
L 95.606355 283.123218 
L 96.256314 282.048018 
L 96.581294 282.316818 
L 96.906274 282.854418 
L 97.556233 282.854418 
L 97.881212 282.585618 
L 98.531171 282.585618 
L 98.856151 283.123218 
L 100.806028 283.123218 
L 101.131007 283.392018 
L 101.455987 282.854418 
L 102.105946 282.854418 
L 102.430925 283.123218 
L 102.755905 282.854418 
L 103.405864 282.854418 
L 103.730844 282.316818 
L 104.055823 282.316818 
L 104.380803 282.585618 
L 105.355741 282.585618 
L 106.0057 282.048018 
L 106.33068 281.241618 
L 106.980639 277.747218 
L 108.280557 267.264018 
L 108.930516 264.307218 
L 109.255495 263.769618 
L 110.230434 261.081618 
L 110.555414 260.006418 
L 110.880393 259.468818 
L 111.205373 259.200018 
L 112.180311 257.587218 
L 112.505291 257.318418 
L 113.15525 257.856018 
L 113.805209 258.931218 
L 114.130188 258.931218 
L 114.455168 259.200018 
L 115.105127 260.275218 
L 115.430106 260.544018 
L 115.755086 260.544018 
L 116.080066 260.275218 
L 117.055004 261.888018 
L 117.379984 261.888018 
L 117.704963 262.425618 
L 118.029943 262.156818 
L 118.679902 262.694418 
L 119.329861 262.156818 
L 119.65484 261.619218 
L 119.97982 261.619218 
L 120.304799 261.888018 
L 120.629779 261.888018 
L 120.954758 261.619218 
L 121.279738 261.081618 
L 121.604717 261.081618 
L 121.929697 261.350418 
L 122.254676 261.350418 
L 122.579656 261.081618 
L 122.904636 260.544018 
L 123.229615 260.275218 
L 123.554595 260.544018 
L 124.204554 260.544018 
L 124.854513 260.006418 
L 125.179492 260.544018 
L 125.504472 260.812818 
L 125.829451 261.350418 
L 126.154431 261.081618 
L 126.47941 260.544018 
L 126.80439 260.812818 
L 127.454349 260.812818 
L 127.779328 260.544018 
L 128.104308 260.812818 
L 128.429287 260.544018 
L 129.404226 261.350418 
L 129.729206 261.081618 
L 130.054185 261.081618 
L 130.379165 260.812818 
L 130.704144 261.350418 
L 131.029124 261.081618 
L 131.354103 261.081618 
L 131.679083 260.812818 
L 132.004062 260.812818 
L 132.329042 261.081618 
L 132.654021 261.081618 
L 132.979001 261.350418 
L 133.953939 261.350418 
L 134.278919 261.081618 
L 134.603898 261.350418 
L 135.253857 260.812818 
L 135.578837 261.081618 
L 135.903817 260.812818 
L 136.228796 261.888018 
L 137.853694 270.220818 
L 138.503653 277.478418 
L 139.478591 289.305618 
L 139.803571 291.456018 
L 140.45353 293.337618 
L 140.778509 293.606418 
L 141.103489 293.337618 
L 141.428468 292.800018 
L 141.753448 290.649618 
L 142.403407 283.392018 
L 142.728387 280.972818 
L 143.053366 279.897618 
L 143.378346 280.166418 
L 143.703325 279.628818 
L 144.353284 276.134418 
L 144.678264 275.596818 
L 145.003243 276.940818 
L 145.328223 278.822418 
L 145.653202 279.897618 
L 146.303161 279.897618 
L 147.2781 285.004818 
L 147.603079 285.004818 
L 147.928059 283.660818 
L 148.253038 283.123218 
L 148.902998 286.080018 
L 149.227977 286.080018 
L 149.877936 281.779218 
L 150.202916 281.241618 
L 150.852875 283.392018 
L 151.177854 282.585618 
L 151.502834 280.972818 
L 151.827813 280.435218 
L 152.477772 282.316818 
L 152.802752 282.048018 
L 153.127731 280.704018 
L 153.452711 280.435218 
L 154.10267 283.392018 
L 154.427649 283.660818 
L 155.077609 281.241618 
L 155.402588 281.779218 
L 156.052547 284.467218 
L 156.377527 283.929618 
L 156.702506 282.585618 
L 157.027486 281.779218 
L 157.677445 283.392018 
L 158.002424 283.123218 
L 158.327404 282.048018 
L 158.652383 281.510418 
L 159.302342 283.123218 
L 159.627322 282.854418 
L 160.277281 281.510418 
L 160.60226 281.510418 
L 161.252219 283.392018 
L 161.577199 283.123218 
L 162.227158 281.779218 
L 162.552138 282.048018 
L 162.877117 282.854418 
L 163.202097 283.123218 
L 163.527076 282.854418 
L 163.852056 282.048018 
L 164.177035 282.585618 
L 164.502015 282.854418 
L 164.826994 282.854418 
L 165.801933 282.048018 
L 166.126912 282.316818 
L 166.451892 282.854418 
L 166.776871 282.854418 
L 167.101851 282.316818 
L 167.42683 282.048018 
L 167.75181 282.048018 
L 168.07679 282.316818 
L 168.401769 282.854418 
L 168.726749 283.123218 
L 169.051728 282.316818 
L 169.376708 282.048018 
L 169.701687 282.316818 
L 170.026667 282.316818 
L 170.351646 282.585618 
L 170.676626 282.316818 
L 171.326585 282.316818 
L 171.976544 282.854418 
L 172.951482 282.048018 
L 173.276462 282.316818 
L 173.601441 282.854418 
L 173.926421 282.854418 
L 174.57638 282.316818 
L 175.226339 282.316818 
L 175.551319 282.585618 
L 175.876298 282.585618 
L 176.201278 282.316818 
L 176.851237 282.316818 
L 177.176216 282.585618 
L 178.151155 282.585618 
L 178.476134 282.316818 
L 178.801114 282.585618 
L 179.126093 282.585618 
L 179.451073 282.316818 
L 179.776052 282.585618 
L 180.101032 282.316818 
L 180.426011 282.585618 
L 181.40095 282.585618 
L 181.72593 282.316818 
L 182.050909 282.316818 
L 182.375889 282.585618 
L 183.025848 282.585618 
L 183.350827 282.316818 
L 183.675807 282.316818 
L 184.000786 282.585618 
L 184.325766 282.585618 
L 184.650745 282.316818 
L 184.975725 282.316818 
L 185.300704 282.585618 
L 185.625684 282.316818 
L 185.950663 282.585618 
L 186.925602 282.585618 
L 187.250581 282.316818 
L 187.575561 282.316818 
L 187.900541 282.585618 
L 188.5505 282.585618 
L 188.875479 282.316818 
L 189.525438 282.316818 
L 189.850418 282.585618 
L 190.175397 282.585618 
L 190.500377 282.854418 
L 190.825356 282.854418 
L 191.150336 282.585618 
L 191.800295 282.585618 
L 192.125274 282.316818 
L 192.450254 282.316818 
L 192.775233 282.854418 
L 193.100213 283.123218 
L 193.425192 282.854418 
L 193.750172 282.316818 
L 194.075152 282.316818 
L 195.05009 283.123218 
L 195.37507 283.123218 
L 195.700049 282.854418 
L 196.350008 282.854418 
L 196.674988 283.392018 
L 196.999967 283.392018 
L 197.324947 283.123218 
L 197.649926 282.585618 
L 197.974906 283.123218 
L 198.299885 283.123218 
L 199.274824 282.316818 
L 200.249762 282.316818 
L 200.574742 282.854418 
L 200.899722 282.854418 
L 201.87466 282.048018 
L 202.19964 281.241618 
L 202.849599 277.478418 
L 204.474496 265.651218 
L 204.799476 264.307218 
L 207.074333 258.931218 
L 207.399312 258.393618 
L 207.724292 258.124818 
L 208.049271 257.587218 
L 208.69923 257.587218 
L 209.02421 257.856018 
L 209.349189 258.662418 
L 210.324128 259.468818 
L 210.649107 260.006418 
L 211.299066 260.544018 
L 211.949025 260.544018 
L 212.598984 261.619218 
L 213.573923 262.425618 
L 213.898903 262.156818 
L 214.223882 262.694418 
L 214.548862 262.963218 
L 214.873841 262.425618 
L 215.198821 262.156818 
L 215.5238 261.619218 
L 215.84878 261.350418 
L 216.173759 261.888018 
L 216.498739 261.888018 
L 216.823718 261.081618 
L 217.148698 261.350418 
L 217.473677 261.081618 
L 217.798657 261.619218 
L 218.448616 261.081618 
L 218.773595 260.544018 
L 219.423554 260.544018 
L 219.748534 260.812818 
L 220.073514 260.275218 
L 220.398493 260.544018 
L 221.048452 260.544018 
L 221.373432 261.350418 
L 221.698411 261.350418 
L 222.023391 260.812818 
L 222.34837 260.544018 
L 222.67335 260.544018 
L 222.998329 261.081618 
L 223.323309 260.812818 
L 223.648288 260.812818 
L 223.973268 260.544018 
L 224.298247 260.812818 
L 224.623227 260.812818 
L 224.948206 261.350418 
L 225.273186 261.619218 
L 225.598165 261.081618 
L 226.248124 261.081618 
L 226.898084 261.619218 
L 227.223063 260.812818 
L 227.548043 261.081618 
L 228.522981 261.081618 
L 228.847961 261.350418 
L 229.17294 261.081618 
L 229.49792 261.350418 
L 230.147879 261.350418 
L 230.472858 261.081618 
L 230.797838 261.081618 
L 231.122817 260.812818 
L 231.447797 260.812818 
L 231.772776 261.081618 
L 232.097756 261.888018 
L 233.722654 270.489618 
L 234.047633 273.446418 
L 235.347551 289.574418 
L 235.99751 292.531218 
L 236.647469 293.606418 
L 236.972449 293.606418 
L 237.297428 292.531218 
L 237.622408 290.380818 
L 238.272367 283.123218 
L 238.597346 280.704018 
L 238.922326 279.897618 
L 239.247305 279.897618 
L 239.572285 279.360018 
L 240.222244 275.865618 
L 240.547224 275.865618 
L 240.872203 276.940818 
L 241.197183 279.091218 
L 241.522162 279.897618 
L 241.847142 279.897618 
L 242.172121 280.166418 
L 243.14706 285.542418 
L 243.472039 285.004818 
L 243.797019 283.660818 
L 244.121998 283.123218 
L 244.771957 286.080018 
L 245.096937 286.080018 
L 245.746896 282.048018 
L 246.071876 281.241618 
L 246.721835 283.660818 
L 247.046814 282.585618 
L 247.371794 280.972818 
L 247.696773 280.435218 
L 248.021753 280.972818 
L 248.346732 282.048018 
L 248.671712 281.779218 
L 248.996691 280.704018 
L 249.321671 280.704018 
L 249.97163 283.392018 
L 250.296609 283.392018 
L 250.621589 282.585618 
L 250.946568 281.241618 
L 251.271548 281.779218 
L 251.596527 283.929618 
L 251.921507 284.467218 
L 252.896446 282.316818 
L 253.546405 283.392018 
L 253.871384 283.392018 
L 254.196364 282.316818 
L 254.521343 281.779218 
L 254.846323 282.048018 
L 255.171302 283.123218 
L 255.496282 282.854418 
L 256.146241 281.241618 
L 256.47122 281.241618 
L 256.7962 282.585618 
L 257.121179 283.392018 
L 258.096118 281.779218 
L 258.421097 281.779218 
L 258.746077 282.854418 
L 259.071057 283.123218 
L 259.396036 283.123218 
L 259.721016 282.316818 
L 260.045995 282.316818 
L 260.695954 282.854418 
L 261.020934 282.854418 
L 261.345913 282.316818 
L 261.670893 282.048018 
L 261.995872 282.585618 
L 262.320852 282.854418 
L 262.645831 282.854418 
L 262.970811 282.316818 
L 263.62077 281.779218 
L 264.270729 282.854418 
L 264.595708 282.854418 
L 264.920688 282.585618 
L 265.245667 282.048018 
L 265.895627 282.585618 
L 266.220606 282.585618 
L 266.870565 282.048018 
L 267.195545 282.585618 
L 268.170483 282.585618 
L 268.820442 282.048018 
L 269.795381 282.854418 
L 270.12036 282.585618 
L 270.44534 281.779218 
L 270.770319 281.779218 
L 271.095299 282.316818 
L 271.420278 282.585618 
L 271.745258 282.585618 
L 272.070238 282.316818 
L 272.720197 282.316818 
L 273.370156 282.854418 
L 274.020115 282.316818 
L 274.345094 282.316818 
L 274.995053 282.854418 
L 275.320033 282.585618 
L 275.645012 282.048018 
L 275.969992 282.316818 
L 276.294971 282.316818 
L 276.619951 282.854418 
L 276.94493 282.854418 
L 277.919869 282.048018 
L 278.244848 282.854418 
L 278.569828 282.854418 
L 279.219787 282.316818 
L 279.544767 282.316818 
L 280.194726 282.854418 
L 280.844685 282.316818 
L 281.169664 282.316818 
L 281.494644 282.585618 
L 281.819623 282.585618 
L 282.144603 282.854418 
L 282.469582 282.316818 
L 282.794562 282.316818 
L 283.119541 282.585618 
L 283.444521 282.585618 
L 283.7695 282.854418 
L 284.419459 282.316818 
L 284.744439 282.316818 
L 285.069419 282.585618 
L 285.719378 282.585618 
L 286.044357 282.316818 
L 286.369337 282.585618 
L 286.694316 282.585618 
L 287.019296 282.854418 
L 287.344275 282.854418 
L 287.669255 282.316818 
L 288.319214 282.316818 
L 288.644193 282.585618 
L 288.969173 283.123218 
L 289.619132 282.585618 
L 290.59407 282.585618 
L 290.91905 283.123218 
L 291.244029 282.854418 
L 291.569009 283.123218 
L 294.818804 283.123218 
L 295.143784 282.585618 
L 295.468763 282.316818 
L 295.793743 282.585618 
L 297.41864 282.585618 
L 297.74362 282.048018 
L 298.0686 281.241618 
L 298.393579 279.897618 
L 300.343456 265.651218 
L 300.993415 263.769618 
L 301.968354 261.081618 
L 302.293333 260.006418 
L 302.618313 259.468818 
L 302.943292 259.200018 
L 303.593251 258.124818 
L 303.918231 257.856018 
L 304.24321 257.318418 
L 304.56819 257.587218 
L 304.89317 258.124818 
L 305.868108 258.931218 
L 306.193088 259.737618 
L 306.518067 260.006418 
L 306.843047 260.006418 
L 307.168026 260.544018 
L 307.817985 260.544018 
L 308.142965 261.081618 
L 308.467944 261.350418 
L 308.792924 261.888018 
L 309.117903 261.888018 
L 310.092842 262.694418 
L 310.417821 262.694418 
L 310.742801 262.425618 
L 311.067781 261.888018 
L 311.39276 261.619218 
L 312.367699 261.619218 
L 312.692678 261.350418 
L 313.342637 261.350418 
L 313.992596 261.888018 
L 314.642555 260.544018 
L 315.292514 260.544018 
L 315.617494 260.812818 
L 315.942473 260.544018 
L 316.592432 260.544018 
L 317.567371 261.350418 
L 317.892351 260.812818 
L 319.517248 260.812818 
L 319.842228 260.544018 
L 320.167207 260.544018 
L 320.492187 261.081618 
L 321.142146 261.619218 
L 321.792105 261.081618 
L 322.442064 261.081618 
L 322.767043 261.350418 
L 323.417002 260.812818 
L 323.741982 261.081618 
L 324.066962 261.081618 
L 324.391941 261.619218 
L 325.0419 261.081618 
L 325.36688 261.350418 
L 325.691859 261.350418 
L 326.016839 261.081618 
L 326.341818 261.350418 
L 326.666798 261.081618 
L 326.991777 261.081618 
L 327.316757 260.812818 
L 327.641736 260.812818 
L 327.966716 261.619218 
L 328.941654 266.995218 
L 329.266634 268.339218 
L 329.591613 270.489618 
L 330.241572 277.209618 
L 330.891532 286.080018 
L 331.541491 291.456018 
L 332.19145 293.337618 
L 332.516429 293.875218 
L 332.841409 293.606418 
L 333.166388 292.531218 
L 333.491368 290.112018 
L 334.141327 282.854418 
L 334.466306 280.704018 
L 334.791286 280.166418 
L 335.116265 279.897618 
L 335.441245 279.091218 
L 336.091204 275.865618 
L 336.416183 275.596818 
L 336.741163 276.940818 
L 337.391122 280.166418 
L 337.716102 279.897618 
L 338.041081 279.897618 
L 338.366061 281.510418 
L 338.69104 283.929618 
L 339.01602 285.273618 
L 339.340999 284.736018 
L 339.665979 283.392018 
L 339.990958 283.123218 
L 340.640917 286.080018 
L 340.965897 286.080018 
L 341.615856 281.779218 
L 341.940835 281.510418 
L 342.590794 283.660818 
L 342.915774 282.585618 
L 343.240753 280.704018 
L 343.565733 280.435218 
L 343.890713 280.972818 
L 344.215692 282.048018 
L 344.540672 281.779218 
L 344.865651 280.704018 
L 345.190631 280.435218 
L 345.51561 281.510418 
L 345.84059 283.392018 
L 346.165569 283.929618 
L 346.815528 281.510418 
L 347.140508 281.779218 
L 347.790467 284.467218 
L 348.115446 283.660818 
L 348.440426 282.316818 
L 348.765405 282.048018 
L 349.090385 282.585618 
L 349.415364 283.392018 
L 349.740344 283.123218 
L 350.065324 282.048018 
L 350.390303 281.510418 
L 350.715283 282.048018 
L 351.040262 282.854418 
L 351.365242 282.854418 
L 351.690221 282.316818 
L 352.015201 280.972818 
L 352.34018 281.241618 
L 352.66516 282.048018 
L 352.990139 283.660818 
L 353.315119 283.123218 
L 353.640098 282.048018 
L 353.965078 281.510418 
L 354.290057 282.048018 
L 354.615037 282.854418 
L 354.940016 283.123218 
L 355.264996 282.585618 
L 355.589975 282.316818 
L 355.914955 282.316818 
L 356.239934 282.854418 
L 356.564914 283.123218 
L 357.214873 282.048018 
L 357.539853 282.048018 
L 357.864832 282.316818 
L 358.189812 282.854418 
L 358.514791 282.854418 
L 359.16475 281.779218 
L 359.48973 281.779218 
L 359.814709 282.316818 
L 360.139689 283.123218 
L 360.464668 282.585618 
L 360.789648 282.585618 
L 361.114627 282.048018 
L 362.089566 282.854418 
L 362.414545 282.585618 
L 362.739525 282.585618 
L 363.064505 282.316818 
L 363.389484 282.854418 
L 364.039443 282.316818 
L 364.364423 282.316818 
L 364.689402 282.048018 
L 365.664341 282.854418 
L 365.98932 282.585618 
L 366.3143 282.048018 
L 366.639279 282.048018 
L 366.964259 282.585618 
L 367.289238 282.854418 
L 368.264177 282.048018 
L 368.589156 282.585618 
L 369.239115 282.585618 
L 369.564095 282.316818 
L 369.889075 282.585618 
L 370.214054 282.585618 
L 370.539034 282.854418 
L 370.864013 282.854418 
L 371.188993 282.585618 
L 371.513972 282.048018 
L 371.838952 282.048018 
L 372.163931 282.585618 
L 372.488911 282.854418 
L 372.81389 282.854418 
L 373.13887 282.316818 
L 373.463849 282.316818 
L 373.788829 282.585618 
L 374.438788 282.585618 
L 374.763767 282.316818 
L 375.413726 282.316818 
L 376.063686 282.854418 
L 376.713645 282.316818 
L 377.038624 282.316818 
L 377.688583 282.854418 
L 378.013563 282.854418 
L 378.338542 282.585618 
L 379.96344 282.585618 
L 380.288419 282.316818 
L 380.613399 282.316818 
L 380.938378 282.585618 
L 381.588337 282.585618 
L 381.913317 282.316818 
L 382.238296 282.316818 
L 382.563276 282.585618 
L 382.888256 283.123218 
L 383.213235 282.585618 
L 383.538215 282.316818 
L 383.863194 282.316818 
L 384.513153 282.854418 
L 385.163112 282.854418 
L 385.488092 282.316818 
L 385.813071 282.585618 
L 386.46303 282.585618 
L 386.78801 282.854418 
L 387.437969 282.854418 
L 387.762948 283.123218 
L 388.087928 283.123218 
L 388.412907 283.392018 
L 389.062867 282.854418 
L 389.387846 283.123218 
L 390.362785 283.123218 
L 391.337723 282.316818 
L 391.662703 282.316818 
L 392.312662 282.854418 
L 392.637641 282.854418 
L 393.61258 282.048018 
L 394.262539 279.628818 
L 396.212416 265.651218 
L 396.537396 264.307218 
L 398.487273 259.468818 
L 398.487273 259.468818 
" clip-path="url(#p85da62493e)" style="fill: none; stroke: #ff7f0e; stroke-width: 1.5; stroke-linecap: square"/>
   </g>
   <g id="line2d_15">
    <path d="M 73.832727 284.736 
L 74.157707 287.424 
L 74.482686 287.424 
L 74.807666 290.112 
L 75.132645 287.424 
L 75.782604 287.424 
L 76.107584 290.112 
L 77.082523 290.112 
L 77.407502 287.424 
L 77.732482 287.424 
L 78.057461 292.8 
L 78.382441 295.488 
L 78.70742 292.8 
L 79.0324 284.736 
L 79.357379 290.112 
L 79.682359 290.112 
L 80.007338 292.8 
L 80.332318 287.424 
L 80.657297 287.424 
L 80.982277 284.736 
L 81.307256 290.112 
L 81.632236 287.424 
L 81.957215 287.424 
L 82.282195 292.8 
L 82.607174 287.424 
L 82.932154 287.424 
L 83.257133 290.112 
L 83.582113 295.488 
L 83.907093 292.8 
L 84.232072 287.424 
L 85.207011 295.488 
L 85.53199 292.8 
L 85.85697 292.8 
L 86.181949 290.112 
L 86.506929 290.112 
L 86.831908 287.424 
L 87.481867 292.8 
L 88.131826 287.424 
L 88.456806 292.8 
L 89.106765 292.8 
L 89.431744 290.112 
L 89.756724 295.488 
L 90.081704 292.8 
L 91.056642 276.672 
L 91.706601 255.168 
L 92.031581 233.664 
L 92.35656 225.6 
L 92.68154 230.976 
L 93.006519 233.664 
L 93.331499 233.664 
L 93.656478 222.912 
L 94.306437 177.216 
L 94.631417 163.776 
L 95.281376 193.344 
L 95.606355 196.032 
L 95.931335 174.528 
L 96.581294 118.08 
L 96.906274 123.456 
L 97.231253 136.896 
L 97.556233 155.712 
L 97.881212 147.648 
L 98.531171 96.576 
L 98.856151 96.576 
L 99.18113 110.016 
L 99.50611 115.392 
L 100.156069 83.136 
L 100.481048 77.76 
L 101.131007 104.64 
L 101.455987 96.576 
L 102.105946 53.568 
L 102.430925 56.256 
L 103.080885 93.888 
L 103.405864 85.824 
L 103.730844 61.632 
L 104.055823 56.256 
L 104.380803 58.944 
L 104.705782 72.384 
L 105.030762 72.384 
L 105.355741 64.32 
L 105.680721 61.632 
L 106.0057 64.32 
L 106.33068 72.384 
L 106.655659 75.072 
L 107.630598 53.568 
L 107.955577 61.632 
L 108.280557 77.76 
L 108.605536 77.76 
L 109.255495 67.008 
L 109.580475 64.32 
L 109.905455 67.008 
L 110.230434 72.384 
L 110.555414 80.448 
L 110.880393 75.072 
L 111.205373 77.76 
L 111.530352 77.76 
L 111.855332 80.448 
L 112.180311 80.448 
L 112.505291 77.76 
L 112.83027 72.384 
L 113.15525 75.072 
L 113.805209 88.512 
L 114.130188 88.512 
L 114.455168 85.824 
L 114.780147 80.448 
L 115.105127 83.136 
L 115.430106 80.448 
L 115.755086 88.512 
L 116.080066 91.2 
L 116.405045 91.2 
L 116.730025 88.512 
L 117.055004 83.136 
L 117.379984 80.448 
L 117.704963 85.824 
L 118.029943 80.448 
L 118.679902 80.448 
L 119.004881 83.136 
L 119.329861 83.136 
L 119.65484 85.824 
L 119.97982 80.448 
L 120.304799 77.76 
L 120.629779 72.384 
L 120.954758 77.76 
L 121.279738 77.76 
L 121.604717 80.448 
L 121.929697 77.76 
L 122.254676 77.76 
L 122.579656 69.696 
L 124.204554 69.696 
L 124.529533 67.008 
L 124.854513 72.384 
L 125.179492 67.008 
L 125.504472 64.32 
L 125.829451 56.256 
L 126.47941 61.632 
L 126.80439 67.008 
L 127.779328 58.944 
L 128.104308 58.944 
L 128.429287 56.256 
L 129.079247 61.632 
L 129.729206 56.256 
L 130.054185 61.632 
L 130.379165 64.32 
L 130.704144 64.32 
L 131.029124 58.944 
L 131.354103 61.632 
L 131.679083 61.632 
L 132.004062 67.008 
L 132.329042 69.696 
L 132.979001 69.696 
L 133.30398 72.384 
L 133.62896 69.696 
L 133.953939 75.072 
L 134.278919 83.136 
L 134.603898 85.824 
L 134.928878 83.136 
L 135.253857 85.824 
L 135.903817 96.576 
L 136.228796 96.576 
L 136.878755 101.952 
L 137.528714 115.392 
L 137.853694 118.08 
L 138.178673 118.08 
L 138.503653 126.144 
L 138.828632 123.456 
L 139.478591 139.584 
L 139.803571 142.272 
L 140.45353 153.024 
L 140.778509 155.712 
L 141.103489 161.088 
L 141.428468 161.088 
L 142.403407 182.592 
L 142.728387 185.28 
L 143.053366 193.344 
L 143.378346 196.032 
L 143.703325 204.096 
L 144.028305 206.784 
L 144.678264 217.536 
L 145.003243 217.536 
L 145.328223 220.224 
L 145.653202 230.976 
L 145.978182 236.352 
L 146.303161 244.416 
L 146.628141 239.04 
L 146.95312 244.416 
L 147.2781 247.104 
L 147.928059 257.856 
L 148.578018 263.232 
L 148.902998 268.608 
L 149.227977 265.92 
L 149.877936 276.672 
L 150.202916 276.672 
L 150.527895 273.984 
L 150.852875 279.36 
L 151.502834 284.736 
L 151.827813 282.048 
L 152.152793 287.424 
L 152.477772 284.736 
L 153.127731 290.112 
L 153.77769 290.112 
L 154.10267 292.8 
L 154.427649 287.424 
L 154.752629 290.112 
L 155.077609 295.488 
L 155.727568 290.112 
L 156.052547 290.112 
L 156.377527 292.8 
L 156.702506 292.8 
L 157.027486 290.112 
L 157.352465 290.112 
L 157.677445 287.424 
L 158.327404 287.424 
L 158.652383 290.112 
L 159.302342 290.112 
L 159.627322 284.736 
L 160.277281 290.112 
L 160.60226 290.112 
L 160.92724 287.424 
L 161.252219 292.8 
L 161.902179 292.8 
L 162.227158 287.424 
L 162.552138 290.112 
L 162.877117 287.424 
L 163.202097 287.424 
L 163.852056 292.8 
L 164.177035 292.8 
L 164.502015 290.112 
L 164.826994 284.736 
L 165.476953 290.112 
L 165.801933 290.112 
L 166.126912 287.424 
L 166.451892 292.8 
L 166.776871 290.112 
L 167.101851 292.8 
L 167.42683 290.112 
L 167.75181 292.8 
L 168.07679 287.424 
L 168.401769 287.424 
L 169.051728 292.8 
L 169.376708 292.8 
L 169.701687 290.112 
L 170.026667 284.736 
L 170.676626 290.112 
L 171.326585 284.736 
L 172.301523 292.8 
L 172.626503 287.424 
L 172.951482 292.8 
L 173.276462 290.112 
L 173.601441 290.112 
L 174.2514 295.488 
L 175.226339 287.424 
L 175.551319 287.424 
L 175.876298 290.112 
L 176.201278 290.112 
L 176.526257 287.424 
L 176.851237 292.8 
L 177.176216 290.112 
L 177.501196 292.8 
L 177.826175 287.424 
L 178.151155 290.112 
L 179.126093 290.112 
L 179.451073 292.8 
L 179.776052 287.424 
L 180.101032 290.112 
L 180.750991 290.112 
L 181.075971 292.8 
L 181.72593 287.424 
L 182.050909 287.424 
L 182.700868 292.8 
L 183.025848 290.112 
L 183.350827 292.8 
L 183.675807 290.112 
L 184.325766 290.112 
L 184.650745 292.8 
L 185.300704 292.8 
L 185.625684 290.112 
L 185.950663 290.112 
L 186.275643 287.424 
L 187.575561 252.48 
L 188.22552 222.912 
L 188.875479 233.664 
L 189.200459 236.352 
L 189.525438 222.912 
L 190.175397 174.528 
L 190.500377 166.464 
L 190.825356 174.528 
L 191.150336 193.344 
L 191.475315 196.032 
L 191.800295 171.84 
L 192.125274 136.896 
L 192.450254 118.08 
L 192.775233 120.768 
L 193.100213 142.272 
L 193.425192 153.024 
L 193.750172 142.272 
L 194.075152 112.704 
L 194.400131 96.576 
L 194.725111 96.576 
L 195.05009 110.016 
L 195.37507 115.392 
L 196.025029 80.448 
L 196.350008 77.76 
L 196.999967 104.64 
L 197.324947 93.888 
L 197.974906 56.256 
L 198.299885 61.632 
L 198.949844 93.888 
L 199.274824 85.824 
L 199.924783 56.256 
L 200.249762 58.944 
L 200.899722 75.072 
L 201.224701 64.32 
L 201.549681 58.944 
L 202.19964 72.384 
L 202.524619 72.384 
L 202.849599 67.008 
L 203.174578 56.256 
L 203.499558 56.256 
L 203.824537 61.632 
L 204.149517 75.072 
L 204.474496 77.76 
L 204.799476 75.072 
L 205.124455 67.008 
L 205.449435 64.32 
L 205.774414 67.008 
L 206.099394 72.384 
L 206.424373 75.072 
L 206.749353 75.072 
L 207.074333 80.448 
L 207.399312 77.76 
L 207.724292 77.76 
L 208.049271 80.448 
L 208.374251 77.76 
L 209.02421 77.76 
L 209.349189 83.136 
L 209.674169 83.136 
L 209.999148 88.512 
L 210.324128 83.136 
L 210.649107 75.072 
L 210.974087 75.072 
L 211.299066 80.448 
L 211.949025 85.824 
L 212.274005 85.824 
L 212.598984 80.448 
L 212.923964 77.76 
L 213.248943 83.136 
L 213.573923 83.136 
L 213.898903 85.824 
L 214.223882 80.448 
L 214.873841 85.824 
L 215.198821 85.824 
L 215.5238 83.136 
L 215.84878 77.76 
L 216.173759 75.072 
L 216.498739 77.76 
L 216.823718 75.072 
L 217.473677 80.448 
L 217.798657 75.072 
L 218.123636 72.384 
L 218.448616 72.384 
L 218.773595 69.696 
L 219.098575 69.696 
L 219.423554 67.008 
L 219.748534 72.384 
L 220.398493 72.384 
L 220.723473 67.008 
L 221.373432 61.632 
L 221.698411 61.632 
L 222.023391 58.944 
L 222.34837 61.632 
L 222.67335 67.008 
L 222.998329 61.632 
L 223.323309 58.944 
L 223.973268 58.944 
L 224.298247 61.632 
L 224.623227 58.944 
L 224.948206 61.632 
L 225.273186 58.944 
L 225.923145 58.944 
L 226.248124 61.632 
L 226.573104 58.944 
L 226.898084 61.632 
L 227.223063 58.944 
L 227.548043 61.632 
L 227.873022 69.696 
L 228.198002 72.384 
L 228.522981 67.008 
L 228.847961 67.008 
L 229.822899 75.072 
L 230.147879 80.448 
L 230.472858 80.448 
L 230.797838 85.824 
L 231.772776 93.888 
L 232.097756 99.264 
L 232.422735 93.888 
L 233.072695 107.328 
L 233.397674 112.704 
L 234.372613 120.768 
L 234.697592 126.144 
L 235.022572 128.832 
L 235.347551 136.896 
L 235.672531 139.584 
L 235.99751 147.648 
L 236.32249 150.336 
L 236.972449 161.088 
L 237.297428 163.776 
L 237.622408 169.152 
L 237.947387 177.216 
L 238.922326 185.28 
L 239.897265 209.472 
L 240.222244 206.784 
L 240.547224 212.16 
L 240.872203 214.848 
L 241.522162 228.288 
L 241.847142 230.976 
L 242.497101 241.728 
L 242.82208 241.728 
L 243.14706 244.416 
L 243.472039 252.48 
L 244.771957 263.232 
L 245.096937 268.608 
L 245.421916 265.92 
L 245.746896 271.296 
L 246.721835 279.36 
L 247.046814 279.36 
L 247.371794 282.048 
L 247.696773 287.424 
L 248.021753 282.048 
L 248.346732 284.736 
L 248.671712 290.112 
L 248.996691 287.424 
L 249.321671 287.424 
L 249.97163 292.8 
L 250.296609 292.8 
L 250.621589 287.424 
L 250.946568 292.8 
L 251.271548 290.112 
L 251.596527 292.8 
L 252.896446 292.8 
L 253.221425 287.424 
L 254.196364 287.424 
L 254.521343 282.048 
L 254.846323 287.424 
L 255.171302 284.736 
L 255.496282 287.424 
L 255.821261 284.736 
L 256.146241 290.112 
L 256.47122 287.424 
L 256.7962 290.112 
L 257.446159 290.112 
L 257.771138 292.8 
L 258.096118 292.8 
L 258.421097 287.424 
L 258.746077 284.736 
L 259.071057 290.112 
L 259.396036 290.112 
L 259.721016 287.424 
L 260.045995 287.424 
L 260.370975 284.736 
L 261.020934 284.736 
L 261.345913 290.112 
L 261.995872 284.736 
L 262.320852 284.736 
L 262.645831 290.112 
L 262.970811 290.112 
L 263.29579 292.8 
L 263.62077 292.8 
L 263.945749 290.112 
L 264.270729 290.112 
L 264.595708 287.424 
L 265.245667 292.8 
L 265.570647 287.424 
L 265.895627 290.112 
L 266.220606 284.736 
L 266.545586 287.424 
L 267.520524 287.424 
L 268.170483 292.8 
L 268.495463 292.8 
L 268.820442 287.424 
L 269.145422 287.424 
L 269.470401 290.112 
L 270.12036 290.112 
L 270.44534 292.8 
L 271.420278 284.736 
L 271.745258 292.8 
L 272.070238 287.424 
L 272.395217 287.424 
L 272.720197 284.736 
L 273.045176 292.8 
L 273.370156 290.112 
L 273.695135 292.8 
L 274.020115 287.424 
L 274.345094 290.112 
L 274.670074 290.112 
L 274.995053 295.488 
L 275.320033 292.8 
L 275.645012 295.488 
L 275.969992 295.488 
L 276.619951 290.112 
L 277.26991 290.112 
L 277.594889 292.8 
L 277.919869 292.8 
L 278.244848 290.112 
L 278.569828 290.112 
L 278.894808 292.8 
L 279.544767 287.424 
L 279.869746 292.8 
L 280.519705 287.424 
L 280.844685 292.8 
L 281.494644 292.8 
L 281.819623 287.424 
L 282.144603 290.112 
L 283.444521 255.168 
L 283.7695 236.352 
L 284.419459 225.6 
L 284.744439 233.664 
L 285.069419 236.352 
L 285.394398 220.224 
L 286.044357 174.528 
L 286.369337 166.464 
L 286.694316 177.216 
L 287.019296 193.344 
L 287.344275 198.72 
L 288.319214 118.08 
L 288.644193 123.456 
L 289.294152 158.4 
L 289.619132 142.272 
L 289.944111 112.704 
L 290.269091 99.264 
L 290.59407 96.576 
L 291.244029 115.392 
L 291.893989 83.136 
L 292.218968 75.072 
L 292.543948 91.2 
L 292.868927 99.264 
L 293.193907 96.576 
L 293.843866 58.944 
L 294.168845 61.632 
L 294.493825 80.448 
L 294.818804 91.2 
L 295.143784 85.824 
L 295.793743 56.256 
L 296.118722 56.256 
L 296.443702 72.384 
L 296.768681 75.072 
L 297.093661 69.696 
L 297.41864 58.944 
L 297.74362 64.32 
L 298.0686 72.384 
L 298.393579 75.072 
L 298.718559 69.696 
L 299.043538 58.944 
L 299.368518 56.256 
L 300.018477 75.072 
L 300.343456 80.448 
L 300.668436 77.76 
L 300.993415 67.008 
L 301.318395 61.632 
L 301.643374 67.008 
L 301.968354 75.072 
L 302.293333 77.76 
L 302.618313 77.76 
L 302.943292 80.448 
L 303.268272 77.76 
L 303.593251 80.448 
L 303.918231 80.448 
L 304.24321 75.072 
L 304.56819 75.072 
L 305.218149 80.448 
L 305.543129 85.824 
L 305.868108 93.888 
L 306.518067 77.76 
L 307.168026 83.136 
L 307.493006 88.512 
L 307.817985 88.512 
L 308.142965 91.2 
L 308.467944 85.824 
L 308.792924 83.136 
L 309.117903 85.824 
L 309.442883 83.136 
L 309.767862 85.824 
L 310.092842 85.824 
L 310.417821 80.448 
L 310.742801 80.448 
L 311.067781 85.824 
L 311.39276 83.136 
L 311.71774 77.76 
L 312.042719 75.072 
L 312.367699 75.072 
L 313.342637 83.136 
L 313.667617 77.76 
L 314.317576 72.384 
L 314.642555 72.384 
L 314.967535 67.008 
L 315.292514 69.696 
L 315.617494 67.008 
L 315.942473 67.008 
L 316.267453 69.696 
L 316.592432 67.008 
L 316.917412 61.632 
L 317.242391 64.32 
L 317.567371 61.632 
L 318.21733 61.632 
L 318.54231 64.32 
L 319.192269 64.32 
L 319.517248 58.944 
L 319.842228 56.256 
L 320.167207 58.944 
L 320.492187 64.32 
L 320.817166 58.944 
L 321.142146 61.632 
L 321.467125 61.632 
L 321.792105 58.944 
L 322.442064 64.32 
L 322.767043 61.632 
L 323.092023 64.32 
L 323.417002 61.632 
L 323.741982 69.696 
L 324.066962 72.384 
L 324.391941 72.384 
L 324.716921 69.696 
L 325.0419 69.696 
L 325.36688 72.384 
L 325.691859 80.448 
L 326.666798 88.512 
L 326.991777 85.824 
L 327.316757 85.824 
L 327.641736 96.576 
L 327.966716 99.264 
L 328.616675 99.264 
L 329.266634 112.704 
L 329.591613 118.08 
L 329.916593 118.08 
L 330.241572 123.456 
L 330.566552 126.144 
L 330.891532 131.52 
L 331.216511 134.208 
L 332.19145 150.336 
L 332.516429 150.336 
L 332.841409 155.712 
L 333.491368 169.152 
L 333.816347 169.152 
L 334.791286 190.656 
L 335.116265 196.032 
L 335.441245 198.72 
L 336.091204 212.16 
L 336.416183 212.16 
L 336.741163 214.848 
L 337.066143 225.6 
L 337.391122 230.976 
L 337.716102 233.664 
L 338.041081 241.728 
L 338.69104 247.104 
L 339.01602 247.104 
L 339.665979 252.48 
L 339.990958 257.856 
L 340.315938 260.544 
L 340.640917 265.92 
L 340.965897 265.92 
L 341.290876 271.296 
L 341.940835 271.296 
L 342.265815 279.36 
L 342.590794 276.672 
L 342.915774 279.36 
L 343.240753 284.736 
L 343.565733 284.736 
L 343.890713 287.424 
L 344.215692 284.736 
L 344.540672 290.112 
L 344.865651 290.112 
L 345.190631 292.8 
L 345.51561 290.112 
L 346.165569 290.112 
L 346.490549 295.488 
L 346.815528 292.8 
L 347.465487 292.8 
L 347.790467 290.112 
L 348.115446 290.112 
L 348.440426 295.488 
L 349.090385 290.112 
L 349.415364 282.048 
L 349.740344 287.424 
L 350.065324 287.424 
L 350.390303 290.112 
L 351.040262 284.736 
L 351.365242 284.736 
L 351.690221 290.112 
L 352.015201 290.112 
L 352.34018 287.424 
L 352.66516 292.8 
L 353.315119 287.424 
L 353.640098 295.488 
L 354.290057 295.488 
L 354.615037 287.424 
L 354.940016 287.424 
L 355.264996 290.112 
L 355.914955 290.112 
L 356.239934 287.424 
L 356.564914 290.112 
L 356.889894 290.112 
L 357.214873 287.424 
L 357.539853 290.112 
L 357.864832 290.112 
L 358.189812 287.424 
L 358.514791 290.112 
L 358.839771 295.488 
L 359.16475 295.488 
L 359.814709 290.112 
L 361.764586 290.112 
L 362.089566 292.8 
L 362.414545 290.112 
L 363.064505 290.112 
L 363.714464 284.736 
L 364.039443 292.8 
L 364.364423 295.488 
L 364.689402 295.488 
L 365.014382 287.424 
L 365.339361 290.112 
L 365.664341 290.112 
L 365.98932 295.488 
L 366.3143 292.8 
L 366.639279 292.8 
L 366.964259 290.112 
L 367.289238 292.8 
L 367.614218 290.112 
L 368.264177 290.112 
L 368.589156 287.424 
L 368.914136 287.424 
L 369.239115 290.112 
L 369.889075 290.112 
L 370.214054 284.736 
L 370.539034 290.112 
L 370.864013 290.112 
L 371.188993 292.8 
L 371.513972 292.8 
L 371.838952 290.112 
L 372.163931 290.112 
L 372.488911 292.8 
L 372.81389 287.424 
L 373.463849 292.8 
L 374.113808 287.424 
L 374.763767 292.8 
L 375.088747 292.8 
L 375.413726 287.424 
L 375.738706 290.112 
L 377.038624 290.112 
L 377.363604 287.424 
L 377.688583 292.8 
L 378.338542 279.36 
L 378.663522 276.672 
L 379.63846 239.04 
L 379.96344 228.288 
L 380.288419 230.976 
L 380.613399 230.976 
L 380.938378 236.352 
L 381.588337 201.408 
L 381.913317 174.528 
L 382.238296 163.776 
L 382.563276 174.528 
L 382.888256 196.032 
L 383.213235 196.032 
L 383.538215 174.528 
L 384.188174 115.392 
L 384.513153 112.704 
L 384.838133 139.584 
L 385.163112 153.024 
L 385.488092 147.648 
L 385.813071 115.392 
L 386.138051 99.264 
L 386.46303 96.576 
L 386.78801 110.016 
L 387.112989 115.392 
L 387.762948 85.824 
L 388.087928 83.136 
L 388.412907 91.2 
L 388.737887 104.64 
L 389.062867 101.952 
L 389.712826 56.256 
L 390.037805 58.944 
L 390.687764 96.576 
L 391.012744 85.824 
L 391.337723 67.008 
L 391.662703 56.256 
L 391.987682 61.632 
L 392.312662 72.384 
L 392.637641 75.072 
L 392.962621 67.008 
L 393.2876 64.32 
L 393.61258 64.32 
L 393.937559 75.072 
L 394.262539 77.76 
L 394.912498 58.944 
L 395.237477 58.944 
L 395.887437 77.76 
L 396.537396 77.76 
L 396.862375 67.008 
L 397.187355 64.32 
L 397.512334 67.008 
L 398.162293 77.76 
L 398.487273 77.76 
L 398.487273 77.76 
" clip-path="url(#p85da62493e)" style="fill: none; stroke: #2ca02c; stroke-width: 1.5; stroke-linecap: square"/>
   </g>
   <g id="patch_3">
    <path d="M 57.6 307.584 
L 57.6 41.472 
" style="fill: none; stroke: #000000; stroke-width: 0.8; stroke-linejoin: miter; stroke-linecap: square"/>
   </g>
   <g id="patch_4">
    <path d="M 414.72 307.584 
L 414.72 41.472 
" style="fill: none; stroke: #000000; stroke-width: 0.8; stroke-linejoin: miter; stroke-linecap: square"/>
   </g>
   <g id="patch_5">
    <path d="M 57.6 307.584 
L 414.72 307.584 
" style="fill: none; stroke: #000000; stroke-width: 0.8; stroke-linejoin: miter; stroke-linecap: square"/>
   </g>
   <g id="patch_6">
    <path d="M 57.6 41.472 
L 414.72 41.472 
" style="fill: none; stroke: #000000; stroke-width: 0.8; stroke-linejoin: miter; stroke-linecap: square"/>
   </g>
  </g>
 </g>
 <defs>
  <clipPath id="p85da62493e">
   <rect x="57.6" y="41.472" width="357.12" height="266.112"/>
  </clipPath>
 </defs>
</svg>
