<?xml version="1.0" encoding="utf-8" standalone="no"?>
<!DOCTYPE svg PUBLIC "-//W3C//DTD SVG 1.1//EN"
  "http://www.w3.org/Graphics/SVG/1.1/DTD/svg11.dtd">
<svg xmlns:xlink="http://www.w3.org/1999/xlink" width="460.8pt" height="345.6pt" viewBox="0 0 460.8 345.6" xmlns="http://www.w3.org/2000/svg" version="1.1">
 <metadata>
  <rdf:RDF xmlns:dc="http://purl.org/dc/elements/1.1/" xmlns:cc="http://creativecommons.org/ns#" xmlns:rdf="http://www.w3.org/1999/02/22-rdf-syntax-ns#">
   <cc:Work>
    <dc:type rdf:resource="http://purl.org/dc/dcmitype/StillImage"/>
    <dc:date>2025-12-31T09:42:07.238004</dc:date>
    <dc:format>image/svg+xml</dc:format>
    <dc:creator>
     <cc:Agent>
      <dc:title>Matplotlib v3.10.8, https://matplotlib.org/</dc:title>
     </cc:Agent>
    </dc:creator>
   </cc:Work>
  </rdf:RDF>
 </metadata>
 <defs>
  <style type="text/css">*{stroke-linejoin: round; stroke-linecap: butt}</style>
 </defs>
 <g id="figure_1">
  <g id="patch_1">
   <path d="M 0 345.6 
L 460.8 345.6 
L 460.8 0 
L 0 0 
z
" style="fill: #ffffff"/>
  </g>
  <g id="axes_1">
   <g id="patch_2">
    <path d="M 57.6 307.584 
L 414.72 307.584 
L 414.72 41.472 
L 57.6 41.472 
z
" style="fill: #ffffff"/>
   </g>
   <g id="matplotlib.axis_1">
    <g id="xtick_1">
     <g id="line2d_1">
      <defs>
       <path id="maace042f3f" d="M 0 0 
L 0 3.5 
" style="stroke: #000000; stroke-width: 0.8"/>
      </defs>
      <g>
       <use xlink:href="#maace042f3f" x="73.832727" y="307.584" style="stroke: #000000; stroke-width: 0.8"/>
      </g>
     </g>
     <g id="text_1">
      <!-- 0 -->
      <g transform="translate(70.651477 322.182437) scale(0.1 -0.1)">
       <defs>
        <path id="DejaVuSans-30" d="M 2034 4250 
Q 1547 4250 1301 3770 
Q 1056 3291 1056 2328 
Q 1056 1369 1301 889 
Q 1547 409 2034 409 
Q 2525 409 2770 889 
Q 3016 1369 3016 2328 
Q 3016 3291 2770 3770 
Q 2525 4250 2034 4250 
z
M 2034 4750 
Q 2819 4750 3233 4129 
Q 3647 3509 3647 2328 
Q 3647 1150 3233 529 
Q 2819 -91 2034 -91 
Q 1250 -91 836 529 
Q 422 1150 422 2328 
Q 422 3509 836 4129 
Q 1250 4750 2034 4750 
z
" transform="scale(0.015625)"/>
       </defs>
       <use xlink:href="#DejaVuSans-30"/>
      </g>
     </g>
    </g>
    <g id="xtick_2">
     <g id="line2d_2">
      <g>
       <use xlink:href="#maace042f3f" x="138.828632" y="307.584" style="stroke: #000000; stroke-width: 0.8"/>
      </g>
     </g>
     <g id="text_2">
      <!-- 1 -->
      <g transform="translate(135.647382 322.182437) scale(0.1 -0.1)">
       <defs>
        <path id="DejaVuSans-31" d="M 794 531 
L 1825 531 
L 1825 4091 
L 703 3866 
L 703 4441 
L 1819 4666 
L 2450 4666 
L 2450 531 
L 3481 531 
L 3481 0 
L 794 0 
L 794 531 
z
" transform="scale(0.015625)"/>
       </defs>
       <use xlink:href="#DejaVuSans-31"/>
      </g>
     </g>
    </g>
    <g id="xtick_3">
     <g id="line2d_3">
      <g>
       <use xlink:href="#maace042f3f" x="203.824537" y="307.584" style="stroke: #000000; stroke-width: 0.8"/>
      </g>
     </g>
     <g id="text_3">
      <!-- 2 -->
      <g transform="translate(200.643287 322.182437) scale(0.1 -0.1)">
       <defs>
        <path id="DejaVuSans-32" d="M 1228 531 
L 3431 531 
L 3431 0 
L 469 0 
L 469 531 
Q 828 903 1448 1529 
Q 2069 2156 2228 2338 
Q 2531 2678 2651 2914 
Q 2772 3150 2772 3378 
Q 2772 3750 2511 3984 
Q 2250 4219 1831 4219 
Q 1534 4219 1204 4116 
Q 875 4013 500 3803 
L 500 4441 
Q 881 4594 1212 4672 
Q 1544 4750 1819 4750 
Q 2544 4750 2975 4387 
Q 3406 4025 3406 3419 
Q 3406 3131 3298 2873 
Q 3191 2616 2906 2266 
Q 2828 2175 2409 1742 
Q 1991 1309 1228 531 
z
" transform="scale(0.015625)"/>
       </defs>
       <use xlink:href="#DejaVuSans-32"/>
      </g>
     </g>
    </g>
    <g id="xtick_4">
     <g id="line2d_4">
      <g>
       <use xlink:href="#maace042f3f" x="268.820442" y="307.584" style="stroke: #000000; stroke-width: 0.8"/>
      </g>
     </g>
     <g id="text_4">
      <!-- 3 -->
      <g transform="translate(265.639192 322.182437) scale(0.1 -0.1)">
       <defs>
        <path id="DejaVuSans-33" d="M 2597 2516 
Q 3050 2419 3304 2112 
Q 3559 1806 3559 1356 
Q 3559 666 3084 287 
Q 2609 -91 1734 -91 
Q 1441 -91 1130 -33 
Q 819 25 488 141 
L 488 750 
Q 750 597 1062 519 
Q 1375 441 1716 441 
Q 2309 441 2620 675 
Q 2931 909 2931 1356 
Q 2931 1769 2642 2001 
Q 2353 2234 1838 2234 
L 1294 2234 
L 1294 2753 
L 1863 2753 
Q 2328 2753 2575 2939 
Q 2822 3125 2822 3475 
Q 2822 3834 2567 4026 
Q 2313 4219 1838 4219 
Q 1578 4219 1281 4162 
Q 984 4106 628 3988 
L 628 4550 
Q 988 4650 1302 4700 
Q 1616 4750 1894 4750 
Q 2613 4750 3031 4423 
Q 3450 4097 3450 3541 
Q 3450 3153 3228 2886 
Q 3006 2619 2597 2516 
z
" transform="scale(0.015625)"/>
       </defs>
       <use xlink:href="#DejaVuSans-33"/>
      </g>
     </g>
    </g>
    <g id="xtick_5">
     <g id="line2d_5">
      <g>
       <use xlink:href="#maace042f3f" x="333.816347" y="307.584" style="stroke: #000000; stroke-width: 0.8"/>
      </g>
     </g>
     <g id="text_5">
      <!-- 4 -->
      <g transform="translate(330.635097 322.182437) scale(0.1 -0.1)">
       <defs>
        <path id="DejaVuSans-34" d="M 2419 4116 
L 825 1625 
L 2419 1625 
L 2419 4116 
z
M 2253 4666 
L 3047 4666 
L 3047 1625 
L 3713 1625 
L 3713 1100 
L 3047 1100 
L 3047 0 
L 2419 0 
L 2419 1100 
L 313 1100 
L 313 1709 
L 2253 4666 
z
" transform="scale(0.015625)"/>
       </defs>
       <use xlink:href="#DejaVuSans-34"/>
      </g>
     </g>
    </g>
    <g id="xtick_6">
     <g id="line2d_6">
      <g>
       <use xlink:href="#maace042f3f" x="398.812252" y="307.584" style="stroke: #000000; stroke-width: 0.8"/>
      </g>
     </g>
     <g id="text_6">
      <!-- 5 -->
      <g transform="translate(395.631002 322.182437) scale(0.1 -0.1)">
       <defs>
        <path id="DejaVuSans-35" d="M 691 4666 
L 3169 4666 
L 3169 4134 
L 1269 4134 
L 1269 2991 
Q 1406 3038 1543 3061 
Q 1681 3084 1819 3084 
Q 2600 3084 3056 2656 
Q 3513 2228 3513 1497 
Q 3513 744 3044 326 
Q 2575 -91 1722 -91 
Q 1428 -91 1123 -41 
Q 819 9 494 109 
L 494 744 
Q 775 591 1075 516 
Q 1375 441 1709 441 
Q 2250 441 2565 725 
Q 2881 1009 2881 1497 
Q 2881 1984 2565 2268 
Q 2250 2553 1709 2553 
Q 1456 2553 1204 2497 
Q 953 2441 691 2322 
L 691 4666 
z
" transform="scale(0.015625)"/>
       </defs>
       <use xlink:href="#DejaVuSans-35"/>
      </g>
     </g>
    </g>
    <g id="text_7">
     <!-- 1e−7 -->
     <g transform="translate(387.462188 334.860562) scale(0.1 -0.1)">
      <defs>
       <path id="DejaVuSans-65" d="M 3597 1894 
L 3597 1613 
L 953 1613 
Q 991 1019 1311 708 
Q 1631 397 2203 397 
Q 2534 397 2845 478 
Q 3156 559 3463 722 
L 3463 178 
Q 3153 47 2828 -22 
Q 2503 -91 2169 -91 
Q 1331 -91 842 396 
Q 353 884 353 1716 
Q 353 2575 817 3079 
Q 1281 3584 2069 3584 
Q 2775 3584 3186 3129 
Q 3597 2675 3597 1894 
z
M 3022 2063 
Q 3016 2534 2758 2815 
Q 2500 3097 2075 3097 
Q 1594 3097 1305 2825 
Q 1016 2553 972 2059 
L 3022 2063 
z
" transform="scale(0.015625)"/>
       <path id="DejaVuSans-2212" d="M 678 2272 
L 4684 2272 
L 4684 1741 
L 678 1741 
L 678 2272 
z
" transform="scale(0.015625)"/>
       <path id="DejaVuSans-37" d="M 525 4666 
L 3525 4666 
L 3525 4397 
L 1831 0 
L 1172 0 
L 2766 4134 
L 525 4134 
L 525 4666 
z
" transform="scale(0.015625)"/>
      </defs>
      <use xlink:href="#DejaVuSans-31"/>
      <use xlink:href="#DejaVuSans-65" transform="translate(63.623047 0)"/>
      <use xlink:href="#DejaVuSans-2212" transform="translate(125.146484 0)"/>
      <use xlink:href="#DejaVuSans-37" transform="translate(208.935547 0)"/>
     </g>
    </g>
   </g>
   <g id="matplotlib.axis_2">
    <g id="ytick_1">
     <g id="line2d_7">
      <defs>
       <path id="m8c4b5acd76" d="M 0 0 
L -3.5 0 
" style="stroke: #000000; stroke-width: 0.8"/>
      </defs>
      <g>
       <use xlink:href="#m8c4b5acd76" x="57.6" y="277.662332" style="stroke: #000000; stroke-width: 0.8"/>
      </g>
     </g>
     <g id="text_8">
      <!-- 0 -->
      <g transform="translate(44.2375 281.461551) scale(0.1 -0.1)">
       <use xlink:href="#DejaVuSans-30"/>
      </g>
     </g>
    </g>
    <g id="ytick_2">
     <g id="line2d_8">
      <g>
       <use xlink:href="#m8c4b5acd76" x="57.6" y="236.917907" style="stroke: #000000; stroke-width: 0.8"/>
      </g>
     </g>
     <g id="text_9">
      <!-- 10 -->
      <g transform="translate(37.875 240.717126) scale(0.1 -0.1)">
       <use xlink:href="#DejaVuSans-31"/>
       <use xlink:href="#DejaVuSans-30" transform="translate(63.623047 0)"/>
      </g>
     </g>
    </g>
    <g id="ytick_3">
     <g id="line2d_9">
      <g>
       <use xlink:href="#m8c4b5acd76" x="57.6" y="196.173482" style="stroke: #000000; stroke-width: 0.8"/>
      </g>
     </g>
     <g id="text_10">
      <!-- 20 -->
      <g transform="translate(37.875 199.972701) scale(0.1 -0.1)">
       <use xlink:href="#DejaVuSans-32"/>
       <use xlink:href="#DejaVuSans-30" transform="translate(63.623047 0)"/>
      </g>
     </g>
    </g>
    <g id="ytick_4">
     <g id="line2d_10">
      <g>
       <use xlink:href="#m8c4b5acd76" x="57.6" y="155.429057" style="stroke: #000000; stroke-width: 0.8"/>
      </g>
     </g>
     <g id="text_11">
      <!-- 30 -->
      <g transform="translate(37.875 159.228276) scale(0.1 -0.1)">
       <use xlink:href="#DejaVuSans-33"/>
       <use xlink:href="#DejaVuSans-30" transform="translate(63.623047 0)"/>
      </g>
     </g>
    </g>
    <g id="ytick_5">
     <g id="line2d_11">
      <g>
       <use xlink:href="#m8c4b5acd76" x="57.6" y="114.684632" style="stroke: #000000; stroke-width: 0.8"/>
      </g>
     </g>
     <g id="text_12">
      <!-- 40 -->
      <g transform="translate(37.875 118.48385) scale(0.1 -0.1)">
       <use xlink:href="#DejaVuSans-34"/>
       <use xlink:href="#DejaVuSans-30" transform="translate(63.623047 0)"/>
      </g>
     </g>
    </g>
    <g id="ytick_6">
     <g id="line2d_12">
      <g>
       <use xlink:href="#m8c4b5acd76" x="57.6" y="73.940206" style="stroke: #000000; stroke-width: 0.8"/>
      </g>
     </g>
     <g id="text_13">
      <!-- 50 -->
      <g transform="translate(37.875 77.739425) scale(0.1 -0.1)">
       <use xlink:href="#DejaVuSans-35"/>
       <use xlink:href="#DejaVuSans-30" transform="translate(63.623047 0)"/>
      </g>
     </g>
    </g>
   </g>
   <g id="line2d_13">
    <path d="M 73.832727 258.054076 
L 74.482686 258.054076 
L 74.807666 258.372392 
L 75.132645 257.73576 
L 75.457625 258.054076 
L 75.782604 257.73576 
L 76.107584 257.73576 
L 76.432563 258.054076 
L 76.757543 258.054076 
L 77.082523 257.73576 
L 77.732482 257.73576 
L 78.057461 258.054076 
L 79.0324 258.054076 
L 79.357379 257.73576 
L 80.332318 257.73576 
L 80.657297 258.054076 
L 80.982277 257.73576 
L 81.307256 257.73576 
L 81.632236 258.054076 
L 81.957215 258.054076 
L 82.282195 258.372392 
L 82.607174 257.73576 
L 82.932154 258.372392 
L 83.257133 258.054076 
L 83.907093 258.054076 
L 84.232072 257.417445 
L 84.557052 257.73576 
L 84.882031 257.73576 
L 85.207011 258.054076 
L 85.53199 258.054076 
L 85.85697 258.372392 
L 86.181949 258.372392 
L 86.506929 258.054076 
L 86.831908 258.372392 
L 87.481867 258.372392 
L 87.806847 258.054076 
L 88.131826 258.690708 
L 88.456806 258.372392 
L 88.781785 259.009024 
L 89.756724 265.375341 
L 90.081704 266.648604 
L 90.731663 271.741657 
L 91.706601 283.837659 
L 92.35656 286.702502 
L 93.006519 286.702502 
L 93.331499 287.020818 
L 93.981458 284.792607 
L 94.956396 276.516395 
L 95.281376 275.561447 
L 96.256314 275.561447 
L 96.581294 274.288184 
L 96.906274 273.651552 
L 97.231253 274.6065 
L 97.881212 277.471343 
L 98.531171 276.834711 
L 98.856151 277.153027 
L 99.50611 280.654501 
L 99.831089 281.291133 
L 100.806028 277.789658 
L 101.455987 280.017869 
L 101.780966 279.699553 
L 102.105946 278.42629 
L 102.430925 277.789658 
L 102.755905 277.789658 
L 103.080885 278.107974 
L 103.730844 277.471343 
L 104.055823 276.516395 
L 104.380803 277.153027 
L 105.030762 279.699553 
L 105.355741 279.062922 
L 106.0057 277.471343 
L 106.33068 277.789658 
L 106.655659 279.062922 
L 106.980639 279.699553 
L 107.630598 279.062922 
L 107.955577 278.42629 
L 108.280557 278.42629 
L 108.605536 278.744606 
L 108.930516 278.744606 
L 109.255495 278.107974 
L 109.580475 278.107974 
L 109.905455 278.42629 
L 110.230434 279.062922 
L 110.555414 278.42629 
L 110.880393 278.107974 
L 111.205373 277.471343 
L 111.530352 277.471343 
L 112.180311 278.744606 
L 112.505291 278.744606 
L 112.83027 278.42629 
L 113.15525 277.789658 
L 113.480229 278.107974 
L 113.805209 278.107974 
L 114.130188 278.744606 
L 114.455168 278.42629 
L 115.105127 278.42629 
L 115.430106 278.744606 
L 115.755086 278.744606 
L 116.080066 278.107974 
L 116.405045 277.789658 
L 117.055004 277.789658 
L 117.379984 278.42629 
L 117.704963 278.744606 
L 118.029943 278.107974 
L 118.354922 278.42629 
L 118.679902 278.42629 
L 119.004881 278.107974 
L 119.329861 278.42629 
L 119.65484 278.107974 
L 119.97982 278.107974 
L 120.304799 277.789658 
L 120.629779 278.42629 
L 121.604717 278.42629 
L 121.929697 277.789658 
L 122.254676 277.789658 
L 122.579656 278.107974 
L 122.904636 278.744606 
L 123.229615 278.42629 
L 123.879574 278.42629 
L 124.204554 277.789658 
L 124.854513 277.789658 
L 125.179492 278.42629 
L 125.504472 278.107974 
L 125.829451 278.107974 
L 126.154431 277.789658 
L 126.47941 278.107974 
L 127.779328 278.107974 
L 128.104308 278.744606 
L 129.079247 278.744606 
L 129.729206 278.107974 
L 130.054185 278.107974 
L 130.704144 278.744606 
L 131.029124 278.744606 
L 131.354103 278.42629 
L 132.004062 278.42629 
L 132.329042 278.107974 
L 132.654021 278.42629 
L 132.979001 278.42629 
L 133.62896 279.062922 
L 133.953939 278.744606 
L 134.278919 278.744606 
L 134.603898 278.42629 
L 134.928878 278.42629 
L 135.253857 278.107974 
L 135.578837 278.42629 
L 135.903817 278.42629 
L 136.228796 278.744606 
L 137.203735 278.744606 
L 137.528714 278.42629 
L 137.853694 278.744606 
L 138.178673 278.744606 
L 138.503653 278.42629 
L 139.153612 279.062922 
L 139.803571 278.42629 
L 140.45353 278.42629 
L 140.778509 278.107974 
L 141.103489 278.107974 
L 141.753448 278.744606 
L 142.078428 278.42629 
L 142.403407 278.42629 
L 142.728387 278.107974 
L 143.053366 278.42629 
L 143.378346 278.107974 
L 144.028305 278.744606 
L 144.353284 278.744606 
L 144.678264 278.107974 
L 145.003243 278.107974 
L 145.328223 278.42629 
L 145.978182 278.42629 
L 146.303161 277.789658 
L 147.603079 279.062922 
L 147.928059 278.42629 
L 148.578018 278.42629 
L 148.902998 279.062922 
L 149.227977 279.381238 
L 150.202916 278.42629 
L 150.852875 279.062922 
L 151.177854 278.744606 
L 152.477772 280.017869 
L 152.802752 280.654501 
L 153.127731 280.336185 
L 153.77769 278.42629 
L 154.10267 276.834711 
L 155.077609 269.513446 
L 155.727568 264.102077 
L 156.377527 259.963971 
L 156.702506 259.645655 
L 157.027486 259.009024 
L 157.677445 257.099129 
L 158.002424 257.099129 
L 158.327404 256.144181 
L 159.302342 255.189234 
L 159.627322 255.507549 
L 159.952301 254.870918 
L 160.277281 254.870918 
L 160.60226 254.552602 
L 160.92724 255.507549 
L 161.252219 255.507549 
L 161.577199 256.462497 
L 161.902179 256.462497 
L 162.227158 257.099129 
L 162.877117 257.73576 
L 163.202097 257.73576 
L 163.852056 258.372392 
L 164.177035 258.372392 
L 164.826994 259.009024 
L 165.151974 258.690708 
L 166.126912 259.645655 
L 166.451892 258.690708 
L 166.776871 259.009024 
L 167.42683 259.009024 
L 168.726749 257.73576 
L 169.051728 258.054076 
L 169.701687 257.417445 
L 170.026667 257.417445 
L 170.676626 258.054076 
L 171.001605 257.417445 
L 171.326585 258.054076 
L 171.651564 257.417445 
L 172.301523 257.417445 
L 172.626503 258.054076 
L 173.276462 257.417445 
L 173.926421 257.417445 
L 174.2514 257.73576 
L 174.90136 257.73576 
L 175.226339 258.054076 
L 175.551319 257.73576 
L 177.176216 257.73576 
L 177.826175 258.372392 
L 178.151155 258.054076 
L 178.801114 258.054076 
L 179.126093 257.73576 
L 180.426011 257.73576 
L 180.750991 258.054076 
L 181.075971 257.73576 
L 181.40095 257.73576 
L 181.72593 258.372392 
L 182.050909 258.054076 
L 183.350827 258.054076 
L 183.675807 257.73576 
L 184.325766 257.73576 
L 185.950663 266.648604 
L 186.275643 268.240183 
L 186.600622 271.741657 
L 187.250581 280.654501 
L 187.575561 283.837659 
L 187.900541 285.429239 
L 188.22552 286.384186 
L 188.5505 286.702502 
L 188.875479 286.702502 
L 189.200459 287.339134 
L 189.850418 285.747554 
L 190.825356 276.516395 
L 191.150336 275.561447 
L 191.475315 275.561447 
L 191.800295 275.879763 
L 192.125274 275.561447 
L 192.450254 274.288184 
L 192.775233 273.969868 
L 193.100213 274.6065 
L 193.425192 276.516395 
L 193.750172 277.471343 
L 194.075152 277.153027 
L 194.400131 277.153027 
L 194.725111 277.471343 
L 195.37507 281.291133 
L 195.700049 281.609448 
L 196.350008 278.42629 
L 196.674988 278.107974 
L 197.324947 280.654501 
L 197.649926 280.336185 
L 198.299885 277.153027 
L 198.624865 277.471343 
L 198.949844 278.107974 
L 199.274824 278.107974 
L 199.924783 276.834711 
L 200.899722 279.699553 
L 201.224701 279.062922 
L 201.549681 277.789658 
L 201.87466 277.471343 
L 202.19964 278.107974 
L 202.524619 279.699553 
L 202.849599 279.699553 
L 203.174578 279.381238 
L 203.499558 278.744606 
L 203.824537 278.42629 
L 204.149517 278.744606 
L 204.799476 278.744606 
L 205.124455 278.107974 
L 205.449435 278.42629 
L 205.774414 279.062922 
L 206.099394 279.381238 
L 206.424373 279.062922 
L 206.749353 277.789658 
L 207.074333 277.471343 
L 207.399312 277.471343 
L 207.724292 278.42629 
L 208.374251 279.062922 
L 208.69923 278.107974 
L 209.349189 278.744606 
L 209.999148 278.744606 
L 210.324128 278.107974 
L 210.649107 278.42629 
L 211.299066 278.42629 
L 211.624046 278.744606 
L 211.949025 278.744606 
L 212.598984 278.107974 
L 212.923964 278.42629 
L 213.248943 278.107974 
L 213.573923 278.744606 
L 213.898903 278.42629 
L 214.223882 278.744606 
L 214.548862 278.744606 
L 214.873841 278.42629 
L 216.173759 278.42629 
L 216.498739 278.744606 
L 216.823718 278.42629 
L 217.148698 278.42629 
L 217.473677 278.107974 
L 217.798657 278.107974 
L 218.123636 278.42629 
L 218.448616 278.42629 
L 218.773595 278.744606 
L 219.098575 278.744606 
L 219.423554 278.42629 
L 219.748534 278.744606 
L 220.073514 278.42629 
L 220.398493 278.744606 
L 220.723473 278.42629 
L 221.373432 278.42629 
L 221.698411 279.062922 
L 222.023391 278.744606 
L 222.34837 278.744606 
L 222.67335 278.42629 
L 222.998329 277.789658 
L 223.323309 278.42629 
L 223.648288 277.789658 
L 223.973268 277.789658 
L 224.298247 278.107974 
L 224.623227 278.744606 
L 224.948206 278.744606 
L 225.273186 278.42629 
L 225.598165 278.42629 
L 225.923145 277.789658 
L 226.898084 278.744606 
L 227.873022 278.744606 
L 228.198002 277.789658 
L 228.522981 278.42629 
L 228.847961 278.107974 
L 229.17294 278.42629 
L 229.49792 278.42629 
L 229.822899 278.107974 
L 230.797838 278.107974 
L 231.447797 278.744606 
L 231.772776 278.744606 
L 232.097756 278.42629 
L 232.747715 278.42629 
L 233.072695 278.744606 
L 233.397674 278.42629 
L 233.722654 278.42629 
L 234.047633 278.107974 
L 234.372613 278.744606 
L 235.022572 278.107974 
L 235.672531 278.107974 
L 235.99751 278.42629 
L 236.32249 278.107974 
L 236.647469 278.107974 
L 236.972449 278.42629 
L 237.297428 278.107974 
L 237.622408 278.42629 
L 238.272367 278.42629 
L 238.597346 278.744606 
L 238.922326 278.744606 
L 239.247305 278.42629 
L 239.572285 278.42629 
L 239.897265 278.107974 
L 240.222244 278.744606 
L 240.547224 278.42629 
L 240.872203 278.42629 
L 241.197183 278.744606 
L 241.522162 278.744606 
L 241.847142 278.42629 
L 242.497101 278.42629 
L 242.82208 278.107974 
L 243.14706 278.107974 
L 243.472039 278.42629 
L 243.797019 278.42629 
L 244.121998 279.062922 
L 244.446978 278.744606 
L 244.771957 278.744606 
L 245.096937 279.062922 
L 245.421916 278.744606 
L 246.396855 278.744606 
L 246.721835 278.42629 
L 247.046814 278.744606 
L 247.371794 278.744606 
L 247.696773 279.381238 
L 248.346732 280.017869 
L 248.671712 280.017869 
L 248.996691 279.381238 
L 249.321671 279.062922 
L 249.97163 276.198079 
L 251.596527 264.420393 
L 251.921507 261.873866 
L 252.571466 259.32734 
L 252.896446 259.009024 
L 253.221425 258.054076 
L 253.546405 257.73576 
L 254.196364 256.144181 
L 254.521343 255.825865 
L 254.846323 255.189234 
L 255.171302 255.507549 
L 255.496282 254.870918 
L 255.821261 254.870918 
L 256.146241 255.189234 
L 256.47122 254.870918 
L 256.7962 255.189234 
L 257.121179 255.825865 
L 257.446159 256.144181 
L 257.771138 256.144181 
L 258.096118 256.462497 
L 258.421097 257.099129 
L 258.746077 257.417445 
L 259.071057 258.054076 
L 259.396036 258.054076 
L 259.721016 258.690708 
L 260.045995 258.054076 
L 261.345913 259.32734 
L 262.645831 259.32734 
L 263.945749 258.054076 
L 264.270729 258.054076 
L 264.595708 257.73576 
L 264.920688 258.054076 
L 265.245667 257.73576 
L 265.895627 257.73576 
L 266.220606 257.417445 
L 266.545586 257.73576 
L 267.195545 257.73576 
L 267.520524 257.417445 
L 268.170483 257.417445 
L 268.495463 257.73576 
L 269.145422 257.73576 
L 269.470401 257.417445 
L 270.12036 258.054076 
L 270.44534 257.73576 
L 271.420278 257.73576 
L 271.745258 258.054076 
L 272.070238 257.73576 
L 272.395217 258.054076 
L 272.720197 257.73576 
L 273.370156 257.73576 
L 273.695135 258.054076 
L 274.020115 258.054076 
L 274.345094 258.372392 
L 274.995053 257.73576 
L 275.320033 258.054076 
L 275.645012 258.054076 
L 275.969992 258.372392 
L 276.294971 257.73576 
L 276.619951 258.054076 
L 277.26991 258.054076 
L 277.594889 258.372392 
L 277.919869 258.054076 
L 278.244848 258.372392 
L 278.569828 258.372392 
L 278.894808 258.054076 
L 279.544767 258.054076 
L 279.869746 257.73576 
L 280.194726 257.73576 
L 280.844685 260.918919 
L 281.169664 263.465446 
L 282.144603 268.240183 
L 282.794562 276.198079 
L 283.444521 283.201028 
L 283.7695 285.429239 
L 284.09448 286.702502 
L 284.419459 286.702502 
L 284.744439 286.384186 
L 285.069419 287.020818 
L 285.719378 285.110923 
L 286.694316 276.198079 
L 287.019296 275.561447 
L 287.669255 275.561447 
L 287.994234 274.924816 
L 288.319214 273.969868 
L 288.644193 273.969868 
L 288.969173 274.924816 
L 289.294152 276.516395 
L 289.619132 277.471343 
L 289.944111 277.153027 
L 290.269091 277.153027 
L 290.59407 277.789658 
L 291.244029 281.609448 
L 291.569009 281.927764 
L 292.218968 278.42629 
L 292.543948 277.789658 
L 293.193907 280.336185 
L 294.168845 277.471343 
L 294.493825 277.471343 
L 294.818804 277.789658 
L 295.143784 277.789658 
L 295.468763 276.834711 
L 295.793743 276.516395 
L 296.118722 277.153027 
L 296.768681 279.062922 
L 297.093661 279.062922 
L 297.74362 277.471343 
L 298.0686 277.789658 
L 298.393579 279.062922 
L 298.718559 279.062922 
L 299.043538 279.381238 
L 299.368518 278.744606 
L 299.693497 278.744606 
L 300.018477 278.42629 
L 300.343456 278.744606 
L 300.993415 278.107974 
L 301.318395 278.42629 
L 301.643374 278.42629 
L 301.968354 279.062922 
L 302.293333 278.744606 
L 302.618313 278.107974 
L 302.943292 277.789658 
L 303.268272 277.789658 
L 303.918231 278.42629 
L 304.24321 279.062922 
L 304.56819 278.42629 
L 304.89317 278.42629 
L 305.218149 278.107974 
L 305.543129 278.42629 
L 305.868108 278.42629 
L 306.193088 278.107974 
L 306.518067 278.744606 
L 306.843047 278.42629 
L 307.817985 278.42629 
L 308.142965 278.107974 
L 309.117903 278.107974 
L 309.442883 278.744606 
L 310.417821 278.744606 
L 311.067781 278.107974 
L 311.39276 278.107974 
L 311.71774 278.744606 
L 312.692678 278.744606 
L 313.017658 278.42629 
L 313.342637 278.42629 
L 313.667617 278.107974 
L 313.992596 278.42629 
L 314.317576 277.789658 
L 315.292514 278.744606 
L 315.942473 278.107974 
L 316.267453 278.107974 
L 316.592432 277.789658 
L 316.917412 278.42629 
L 317.242391 278.42629 
L 317.567371 278.744606 
L 317.892351 278.42629 
L 318.21733 278.42629 
L 318.54231 278.107974 
L 319.192269 278.107974 
L 319.517248 277.789658 
L 319.842228 278.42629 
L 320.167207 278.42629 
L 320.492187 278.744606 
L 320.817166 278.744606 
L 321.142146 278.42629 
L 321.792105 278.42629 
L 322.117084 278.107974 
L 323.092023 279.062922 
L 323.417002 278.42629 
L 324.391941 278.42629 
L 324.716921 278.107974 
L 325.36688 278.744606 
L 326.016839 278.744606 
L 326.666798 278.107974 
L 326.991777 278.107974 
L 327.316757 278.42629 
L 327.966716 278.42629 
L 328.291695 278.107974 
L 328.616675 278.744606 
L 328.941654 278.744606 
L 329.916593 277.789658 
L 330.566552 278.42629 
L 330.891532 278.42629 
L 331.216511 278.744606 
L 331.541491 278.744606 
L 331.86647 278.42629 
L 332.516429 278.42629 
L 332.841409 278.107974 
L 333.166388 278.42629 
L 334.466306 278.42629 
L 334.791286 278.744606 
L 335.116265 278.42629 
L 335.441245 278.744606 
L 335.766224 278.42629 
L 336.091204 278.744606 
L 336.416183 278.42629 
L 337.066143 278.42629 
L 337.391122 278.107974 
L 337.716102 278.42629 
L 338.041081 278.107974 
L 338.69104 278.107974 
L 339.01602 278.744606 
L 339.665979 278.744606 
L 339.990958 279.062922 
L 340.315938 278.744606 
L 340.640917 279.062922 
L 341.615856 279.062922 
L 341.940835 278.744606 
L 342.590794 278.744606 
L 342.915774 279.062922 
L 343.240753 278.744606 
L 343.565733 279.381238 
L 343.890713 279.699553 
L 344.215692 280.336185 
L 344.540672 280.017869 
L 344.865651 280.017869 
L 345.190631 279.699553 
L 345.51561 279.062922 
L 346.815528 269.513446 
L 347.790467 261.873866 
L 348.440426 259.645655 
L 348.765405 258.372392 
L 349.090385 258.054076 
L 349.740344 256.780813 
L 350.065324 255.825865 
L 350.390303 255.825865 
L 350.715283 255.507549 
L 351.040262 255.507549 
L 351.690221 254.870918 
L 352.34018 254.870918 
L 352.990139 255.507549 
L 353.315119 256.780813 
L 353.640098 256.780813 
L 353.965078 257.417445 
L 354.290057 257.417445 
L 354.615037 257.73576 
L 354.940016 257.73576 
L 355.264996 258.054076 
L 355.589975 258.690708 
L 355.914955 258.372392 
L 356.564914 258.372392 
L 356.889894 259.009024 
L 358.189812 259.009024 
L 358.514791 259.32734 
L 359.16475 258.690708 
L 359.48973 258.054076 
L 360.789648 258.054076 
L 361.114627 257.73576 
L 361.439607 257.73576 
L 361.764586 258.372392 
L 362.089566 258.690708 
L 363.389484 257.417445 
L 363.714464 257.73576 
L 364.039443 257.417445 
L 364.364423 257.73576 
L 364.689402 257.417445 
L 365.014382 257.417445 
L 365.339361 257.73576 
L 365.664341 257.73576 
L 365.98932 258.054076 
L 366.639279 258.054076 
L 366.964259 257.73576 
L 367.289238 258.054076 
L 367.939197 258.054076 
L 368.264177 257.73576 
L 368.589156 257.73576 
L 368.914136 258.054076 
L 369.239115 258.054076 
L 369.564095 258.690708 
L 370.214054 258.690708 
L 371.513972 257.417445 
L 372.163931 257.417445 
L 372.81389 258.054076 
L 373.13887 258.690708 
L 373.788829 258.054076 
L 374.113808 258.690708 
L 374.438788 257.73576 
L 375.088747 257.73576 
L 375.413726 258.054076 
L 375.738706 257.73576 
L 376.063686 257.73576 
L 376.388665 259.009024 
L 376.713645 260.918919 
L 377.038624 263.783761 
L 377.688583 266.648604 
L 378.013563 268.240183 
L 378.338542 271.423342 
L 379.313481 283.519344 
L 379.96344 286.384186 
L 380.288419 286.384186 
L 380.613399 287.339134 
L 380.938378 287.020818 
L 381.263358 286.384186 
L 381.588337 285.429239 
L 382.563276 276.198079 
L 382.888256 275.243132 
L 383.538215 275.879763 
L 383.863194 275.243132 
L 384.188174 273.651552 
L 384.513153 274.288184 
L 384.838133 274.6065 
L 385.163112 276.198079 
L 385.488092 277.153027 
L 385.813071 277.153027 
L 386.138051 276.834711 
L 386.46303 277.153027 
L 387.112989 280.972817 
L 387.437969 281.291133 
L 387.762948 280.336185 
L 388.087928 278.744606 
L 388.412907 278.42629 
L 389.062867 279.699553 
L 389.387846 279.381238 
L 389.712826 278.744606 
L 390.037805 277.471343 
L 390.362785 277.789658 
L 390.687764 277.789658 
L 391.012744 278.107974 
L 391.662703 276.516395 
L 391.987682 276.834711 
L 392.637641 279.699553 
L 392.962621 279.062922 
L 393.61258 276.834711 
L 394.587518 279.381238 
L 394.912498 279.381238 
L 395.237477 278.744606 
L 395.562457 278.42629 
L 396.212416 278.42629 
L 396.537396 278.107974 
L 396.862375 278.107974 
L 397.837314 279.062922 
L 398.162293 278.42629 
L 398.487273 277.471343 
L 398.487273 277.471343 
" clip-path="url(#p7668e341bf)" style="fill: none; stroke: #1f77b4; stroke-width: 1.5; stroke-linecap: square"/>
   </g>
   <g id="line2d_14">
    <path d="M 73.832727 278.42629 
L 74.157707 278.107974 
L 74.807666 278.107974 
L 75.132645 278.42629 
L 75.457625 278.107974 
L 76.432563 278.107974 
L 76.757543 277.789658 
L 77.407502 279.062922 
L 77.732482 278.744606 
L 78.057461 277.789658 
L 78.382441 278.107974 
L 78.70742 278.107974 
L 79.0324 278.42629 
L 79.682359 278.42629 
L 80.007338 278.107974 
L 80.332318 278.107974 
L 80.657297 277.471343 
L 80.982277 278.107974 
L 82.282195 278.107974 
L 82.607174 278.42629 
L 82.932154 278.107974 
L 83.257133 277.471343 
L 83.582113 278.107974 
L 83.907093 278.42629 
L 84.557052 278.42629 
L 85.53199 277.471343 
L 86.181949 278.107974 
L 87.156888 278.107974 
L 87.481867 278.42629 
L 87.806847 278.42629 
L 88.131826 278.107974 
L 88.456806 277.471343 
L 89.756724 278.744606 
L 90.081704 278.744606 
L 91.056642 277.789658 
L 91.381622 278.107974 
L 92.031581 278.107974 
L 92.35656 277.789658 
L 92.68154 278.107974 
L 93.981458 278.107974 
L 94.306437 278.42629 
L 94.631417 278.42629 
L 94.956396 278.107974 
L 95.606355 278.107974 
L 95.931335 278.42629 
L 97.231253 278.42629 
L 97.556233 278.744606 
L 98.206192 278.744606 
L 98.531171 278.107974 
L 98.856151 278.42629 
L 99.18113 278.42629 
L 99.50611 278.744606 
L 100.156069 278.744606 
L 100.481048 278.42629 
L 100.806028 278.42629 
L 101.455987 279.062922 
L 101.780966 278.744606 
L 102.105946 278.744606 
L 102.430925 278.42629 
L 102.755905 278.744606 
L 103.080885 278.744606 
L 103.405864 279.381238 
L 103.730844 279.062922 
L 104.380803 279.062922 
L 104.705782 279.381238 
L 105.030762 279.381238 
L 105.355741 279.699553 
L 105.680721 279.699553 
L 106.0057 279.381238 
L 106.980639 274.288184 
L 108.605536 262.192182 
L 110.555414 256.780813 
L 110.880393 256.462497 
L 111.205373 255.825865 
L 111.855332 254.234286 
L 112.180311 254.870918 
L 112.505291 254.234286 
L 112.83027 254.234286 
L 113.15525 254.552602 
L 113.480229 254.552602 
L 113.805209 255.189234 
L 114.130188 255.189234 
L 114.455168 255.507549 
L 114.780147 255.507549 
L 115.105127 256.144181 
L 115.430106 256.462497 
L 115.755086 257.099129 
L 117.379984 258.690708 
L 117.704963 258.372392 
L 118.029943 258.690708 
L 118.354922 259.32734 
L 118.679902 259.009024 
L 119.329861 259.009024 
L 119.97982 258.372392 
L 120.304799 258.690708 
L 120.629779 258.690708 
L 120.954758 258.372392 
L 121.279738 258.372392 
L 121.929697 257.73576 
L 122.254676 257.73576 
L 122.579656 258.054076 
L 122.904636 257.417445 
L 124.529533 257.417445 
L 124.854513 257.099129 
L 125.504472 257.73576 
L 126.47941 257.73576 
L 127.129369 257.099129 
L 127.454349 257.73576 
L 127.779328 257.417445 
L 128.104308 256.780813 
L 128.754267 257.417445 
L 129.079247 257.417445 
L 129.404226 257.73576 
L 130.054185 257.73576 
L 130.379165 258.054076 
L 132.654021 258.054076 
L 132.979001 257.417445 
L 133.30398 257.417445 
L 133.62896 258.054076 
L 133.953939 258.054076 
L 134.278919 257.73576 
L 134.603898 258.054076 
L 134.928878 258.054076 
L 135.253857 257.73576 
L 135.578837 258.054076 
L 136.553776 258.054076 
L 136.878755 258.372392 
L 138.503653 266.648604 
L 138.828632 268.876815 
L 139.478591 276.198079 
L 140.12855 284.792607 
L 140.778509 287.657449 
L 141.103489 288.612397 
L 141.428468 288.930713 
L 141.753448 288.930713 
L 142.078428 288.612397 
L 142.403407 287.339134 
L 143.378346 277.471343 
L 144.353284 274.924816 
L 144.678264 274.288184 
L 145.003243 272.696605 
L 145.328223 271.741657 
L 145.653202 272.059973 
L 146.303161 275.243132 
L 146.628141 275.561447 
L 146.95312 275.561447 
L 147.2781 276.198079 
L 147.928059 280.336185 
L 148.253038 281.927764 
L 148.578018 280.972817 
L 148.902998 279.062922 
L 149.227977 279.381238 
L 149.552957 280.336185 
L 149.877936 282.24608 
L 150.202916 281.927764 
L 150.852875 277.471343 
L 151.177854 277.789658 
L 151.502834 278.42629 
L 151.827813 278.42629 
L 152.477772 276.834711 
L 152.802752 276.834711 
L 153.127731 277.153027 
L 153.452711 277.789658 
L 153.77769 277.471343 
L 154.427649 275.879763 
L 154.752629 276.834711 
L 155.402588 280.017869 
L 155.727568 279.062922 
L 156.052547 277.471343 
L 156.377527 277.153027 
L 156.702506 278.744606 
L 157.027486 279.699553 
L 157.352465 279.699553 
L 158.002424 278.107974 
L 158.327404 278.107974 
L 158.652383 278.744606 
L 158.977363 278.744606 
L 159.302342 278.107974 
L 159.627322 277.153027 
L 159.952301 277.471343 
L 160.60226 279.381238 
L 160.92724 278.744606 
L 161.252219 277.471343 
L 161.577199 276.834711 
L 161.902179 277.471343 
L 162.552138 279.062922 
L 162.877117 278.744606 
L 163.202097 277.789658 
L 163.527076 277.471343 
L 164.177035 278.744606 
L 164.502015 279.062922 
L 165.151974 277.789658 
L 165.476953 277.789658 
L 165.801933 278.107974 
L 166.126912 278.744606 
L 166.451892 278.42629 
L 166.776871 277.789658 
L 167.42683 277.789658 
L 167.75181 278.42629 
L 168.07679 278.744606 
L 168.401769 278.42629 
L 168.726749 277.471343 
L 169.051728 277.471343 
L 169.376708 278.107974 
L 169.701687 278.107974 
L 170.026667 278.42629 
L 170.676626 277.789658 
L 171.001605 278.107974 
L 171.326585 278.744606 
L 172.626503 277.471343 
L 172.951482 278.107974 
L 173.276462 278.42629 
L 173.601441 278.107974 
L 173.926421 277.471343 
L 174.2514 277.471343 
L 174.57638 277.789658 
L 174.90136 277.789658 
L 175.226339 278.107974 
L 176.201278 278.107974 
L 176.526257 277.789658 
L 176.851237 278.107974 
L 177.176216 278.107974 
L 177.501196 278.42629 
L 177.826175 278.107974 
L 178.151155 278.107974 
L 178.476134 278.744606 
L 179.126093 278.107974 
L 179.451073 278.107974 
L 179.776052 278.42629 
L 180.101032 278.42629 
L 180.426011 278.744606 
L 180.750991 278.42629 
L 181.40095 278.42629 
L 181.72593 278.107974 
L 182.050909 278.42629 
L 182.375889 278.42629 
L 182.700868 279.062922 
L 183.025848 278.42629 
L 183.350827 278.42629 
L 183.675807 278.107974 
L 184.325766 278.107974 
L 184.650745 277.789658 
L 184.975725 278.107974 
L 185.300704 278.107974 
L 185.625684 278.42629 
L 185.950663 278.107974 
L 186.600622 278.107974 
L 186.925602 278.42629 
L 187.575561 278.42629 
L 187.900541 278.107974 
L 189.200459 278.107974 
L 189.850418 278.744606 
L 190.175397 278.744606 
L 190.825356 278.107974 
L 191.475315 278.107974 
L 192.125274 278.744606 
L 192.450254 278.42629 
L 192.775233 278.42629 
L 193.100213 278.744606 
L 193.425192 278.744606 
L 193.750172 278.42629 
L 194.075152 278.42629 
L 194.725111 277.789658 
L 195.37507 278.42629 
L 195.700049 279.062922 
L 196.025029 279.062922 
L 196.350008 278.744606 
L 196.674988 278.744606 
L 196.999967 278.42629 
L 197.324947 279.062922 
L 197.649926 279.381238 
L 198.299885 279.381238 
L 198.624865 278.744606 
L 199.274824 279.381238 
L 199.924783 279.381238 
L 200.249762 279.062922 
L 200.574742 279.062922 
L 200.899722 279.699553 
L 201.224701 280.017869 
L 201.549681 280.017869 
L 201.87466 279.381238 
L 202.19964 278.42629 
L 202.524619 276.834711 
L 203.174578 272.059973 
L 203.824537 266.011972 
L 204.799476 260.918919 
L 205.124455 260.282287 
L 205.774414 258.054076 
L 206.099394 257.099129 
L 206.749353 256.462497 
L 207.074333 255.825865 
L 207.399312 255.507549 
L 208.049271 254.234286 
L 208.374251 254.552602 
L 208.69923 254.552602 
L 209.02421 254.870918 
L 209.349189 255.507549 
L 209.674169 255.507549 
L 209.999148 255.825865 
L 210.324128 255.507549 
L 211.299066 257.417445 
L 211.949025 258.054076 
L 212.274005 258.054076 
L 212.598984 258.690708 
L 212.923964 259.009024 
L 213.573923 259.009024 
L 213.898903 259.645655 
L 214.223882 259.32734 
L 214.548862 259.645655 
L 215.198821 259.645655 
L 215.5238 259.009024 
L 215.84878 259.009024 
L 216.498739 258.372392 
L 217.148698 258.372392 
L 217.473677 258.054076 
L 217.798657 258.372392 
L 218.123636 258.372392 
L 219.098575 257.417445 
L 219.423554 257.73576 
L 220.398493 257.73576 
L 221.373432 256.780813 
L 222.023391 257.417445 
L 222.34837 257.417445 
L 222.67335 257.099129 
L 223.323309 257.73576 
L 223.973268 257.099129 
L 224.623227 257.099129 
L 225.273186 257.73576 
L 225.598165 257.73576 
L 225.923145 258.054076 
L 226.248124 257.73576 
L 226.573104 258.054076 
L 226.898084 257.73576 
L 227.223063 257.73576 
L 227.548043 258.054076 
L 227.873022 257.73576 
L 228.198002 258.054076 
L 228.847961 258.054076 
L 229.49792 257.417445 
L 230.147879 257.417445 
L 230.472858 258.054076 
L 230.797838 258.054076 
L 231.122817 257.73576 
L 231.447797 257.73576 
L 231.772776 258.054076 
L 232.097756 258.054076 
L 232.422735 257.73576 
L 232.747715 258.372392 
L 233.072695 259.645655 
L 233.722654 263.465446 
L 234.047633 264.738709 
L 234.697592 268.876815 
L 235.022572 271.741657 
L 235.99751 284.792607 
L 236.647469 287.975765 
L 236.972449 288.930713 
L 237.297428 289.249029 
L 237.622408 289.249029 
L 237.947387 288.294081 
L 238.272367 286.384186 
L 239.572285 275.879763 
L 240.222244 275.243132 
L 240.547224 273.651552 
L 241.197183 271.741657 
L 241.522162 272.059973 
L 242.172121 274.924816 
L 242.497101 275.243132 
L 242.82208 275.243132 
L 243.14706 276.198079 
L 243.472039 277.789658 
L 243.797019 280.336185 
L 244.121998 281.291133 
L 244.446978 280.017869 
L 244.771957 279.381238 
L 245.096937 279.381238 
L 245.746896 281.927764 
L 246.071876 281.291133 
L 246.721835 277.471343 
L 247.046814 277.471343 
L 247.371794 278.42629 
L 247.696773 278.744606 
L 248.021753 278.107974 
L 248.346732 276.834711 
L 248.671712 276.516395 
L 249.321671 278.107974 
L 249.64665 278.107974 
L 250.296609 276.516395 
L 250.621589 277.153027 
L 250.946568 279.062922 
L 251.271548 279.699553 
L 251.596527 279.062922 
L 251.921507 277.789658 
L 252.246486 277.471343 
L 252.571466 279.062922 
L 252.896446 280.017869 
L 253.221425 280.017869 
L 253.871384 277.789658 
L 254.521343 279.062922 
L 254.846323 279.062922 
L 255.821261 277.153027 
L 256.47122 278.42629 
L 256.7962 278.42629 
L 257.446159 276.516395 
L 258.421097 279.062922 
L 258.746077 278.744606 
L 259.071057 277.789658 
L 259.396036 277.789658 
L 260.045995 278.42629 
L 260.370975 278.42629 
L 261.020934 277.789658 
L 261.345913 277.789658 
L 261.670893 278.42629 
L 262.320852 278.42629 
L 262.645831 277.471343 
L 262.970811 277.471343 
L 263.29579 277.789658 
L 263.62077 278.744606 
L 263.945749 278.42629 
L 264.595708 277.153027 
L 264.920688 277.153027 
L 265.245667 277.471343 
L 265.570647 278.42629 
L 265.895627 278.744606 
L 266.870565 277.789658 
L 267.195545 278.107974 
L 268.495463 278.107974 
L 268.820442 278.42629 
L 269.795381 278.42629 
L 270.12036 278.107974 
L 270.44534 278.107974 
L 270.770319 278.42629 
L 271.095299 279.062922 
L 271.420278 278.42629 
L 271.745258 278.107974 
L 272.720197 278.107974 
L 273.045176 277.789658 
L 273.370156 277.789658 
L 273.695135 277.471343 
L 274.020115 278.107974 
L 274.345094 278.42629 
L 274.995053 277.789658 
L 275.320033 278.107974 
L 275.645012 277.789658 
L 275.969992 278.42629 
L 276.294971 278.744606 
L 276.619951 278.42629 
L 276.94493 278.42629 
L 277.26991 278.107974 
L 278.569828 278.107974 
L 278.894808 277.789658 
L 279.219787 278.42629 
L 279.869746 278.42629 
L 280.194726 278.107974 
L 280.844685 278.107974 
L 281.169664 278.42629 
L 281.494644 278.42629 
L 281.819623 277.789658 
L 282.469582 277.789658 
L 282.794562 278.42629 
L 283.119541 278.42629 
L 283.7695 277.789658 
L 284.09448 278.107974 
L 285.069419 278.107974 
L 285.394398 278.42629 
L 285.719378 278.107974 
L 286.369337 278.107974 
L 286.694316 278.42629 
L 287.019296 278.107974 
L 287.344275 278.42629 
L 287.994234 278.42629 
L 288.319214 277.789658 
L 288.644193 278.107974 
L 288.969173 278.107974 
L 289.294152 278.42629 
L 289.619132 278.107974 
L 290.59407 278.107974 
L 290.91905 277.789658 
L 291.569009 279.062922 
L 291.893989 279.062922 
L 292.543948 277.789658 
L 293.518886 278.744606 
L 293.843866 278.744606 
L 294.493825 278.107974 
L 295.468763 279.062922 
L 295.793743 279.062922 
L 296.118722 278.744606 
L 296.768681 279.381238 
L 297.093661 280.017869 
L 297.41864 279.699553 
L 297.74362 279.062922 
L 298.0686 278.107974 
L 298.718559 274.6065 
L 300.018477 264.102077 
L 300.668436 260.918919 
L 301.643374 258.372392 
L 303.268272 255.189234 
L 303.593251 255.189234 
L 303.918231 254.870918 
L 304.24321 254.234286 
L 304.89317 254.234286 
L 305.218149 254.552602 
L 305.543129 255.189234 
L 305.868108 255.507549 
L 306.193088 255.507549 
L 306.843047 256.144181 
L 307.493006 257.417445 
L 308.142965 257.417445 
L 308.467944 258.372392 
L 309.442883 258.372392 
L 309.767862 258.690708 
L 310.092842 258.690708 
L 310.417821 259.32734 
L 310.742801 259.645655 
L 311.067781 259.645655 
L 311.39276 259.32734 
L 311.71774 258.690708 
L 312.042719 258.372392 
L 312.692678 258.372392 
L 313.017658 258.054076 
L 313.342637 258.054076 
L 313.667617 258.372392 
L 314.317576 258.372392 
L 314.642555 258.054076 
L 314.967535 257.417445 
L 315.292514 257.099129 
L 315.942473 257.73576 
L 316.592432 257.73576 
L 316.917412 257.099129 
L 317.242391 257.099129 
L 317.567371 257.417445 
L 317.892351 258.054076 
L 318.21733 257.417445 
L 319.192269 257.417445 
L 319.517248 257.099129 
L 319.842228 257.099129 
L 320.167207 257.417445 
L 320.492187 257.417445 
L 320.817166 257.73576 
L 321.792105 257.73576 
L 322.117084 258.054076 
L 322.442064 257.73576 
L 323.092023 257.73576 
L 323.417002 257.417445 
L 324.066962 257.417445 
L 324.391941 257.73576 
L 324.716921 257.73576 
L 325.0419 257.417445 
L 325.691859 257.417445 
L 326.341818 258.054076 
L 326.666798 257.73576 
L 326.991777 257.73576 
L 327.316757 257.417445 
L 327.641736 257.73576 
L 327.966716 257.73576 
L 328.291695 258.054076 
L 328.616675 258.054076 
L 329.591613 263.465446 
L 330.241572 266.011972 
L 330.566552 268.558499 
L 331.216511 276.516395 
L 331.86647 284.474291 
L 332.19145 287.020818 
L 332.841409 288.612397 
L 333.166388 289.249029 
L 333.491368 289.249029 
L 333.816347 288.294081 
L 334.141327 286.702502 
L 335.116265 277.471343 
L 335.441245 276.198079 
L 336.416183 274.288184 
L 336.741163 272.696605 
L 337.066143 271.741657 
L 337.716102 273.969868 
L 338.041081 275.243132 
L 338.69104 275.243132 
L 339.01602 276.198079 
L 339.990958 281.291133 
L 340.640917 278.744606 
L 340.965897 278.744606 
L 341.615856 281.609448 
L 341.940835 281.291133 
L 342.265815 278.744606 
L 342.590794 277.153027 
L 342.915774 277.153027 
L 343.565733 278.42629 
L 343.890713 277.789658 
L 344.215692 276.198079 
L 344.540672 275.879763 
L 345.190631 278.107974 
L 345.51561 277.471343 
L 345.84059 276.198079 
L 346.165569 276.198079 
L 346.490549 277.153027 
L 346.815528 278.744606 
L 347.140508 279.381238 
L 347.465487 278.42629 
L 348.115446 277.789658 
L 348.440426 278.107974 
L 348.765405 279.381238 
L 349.090385 279.381238 
L 349.740344 277.471343 
L 350.065324 278.107974 
L 350.390303 279.062922 
L 350.715283 278.744606 
L 351.365242 277.471343 
L 351.690221 277.153027 
L 352.015201 278.107974 
L 352.34018 278.42629 
L 352.66516 278.107974 
L 353.315119 276.834711 
L 353.640098 276.834711 
L 353.965078 278.107974 
L 354.290057 278.744606 
L 354.615037 278.42629 
L 354.940016 277.789658 
L 355.264996 277.789658 
L 355.589975 278.42629 
L 355.914955 278.744606 
L 356.564914 278.107974 
L 356.889894 277.471343 
L 357.539853 279.062922 
L 357.864832 278.744606 
L 358.189812 278.107974 
L 358.514791 277.153027 
L 358.839771 277.471343 
L 359.16475 278.107974 
L 359.48973 278.42629 
L 359.814709 278.42629 
L 360.139689 277.789658 
L 360.464668 277.471343 
L 361.439607 278.42629 
L 361.764586 278.42629 
L 362.089566 278.107974 
L 362.414545 278.42629 
L 362.739525 278.107974 
L 363.064505 278.42629 
L 363.389484 278.42629 
L 364.039443 277.789658 
L 364.364423 277.789658 
L 364.689402 278.42629 
L 365.339361 278.42629 
L 365.664341 278.107974 
L 366.639279 278.107974 
L 366.964259 278.42629 
L 367.614218 277.789658 
L 368.264177 277.789658 
L 368.589156 278.107974 
L 369.889075 278.107974 
L 370.214054 278.42629 
L 370.539034 278.42629 
L 370.864013 278.107974 
L 371.188993 278.107974 
L 371.513972 277.789658 
L 371.838952 278.107974 
L 372.488911 277.471343 
L 372.81389 278.107974 
L 373.13887 277.789658 
L 373.463849 278.107974 
L 373.788829 278.107974 
L 374.113808 278.42629 
L 374.438788 278.107974 
L 374.763767 278.42629 
L 375.088747 278.107974 
L 376.713645 278.107974 
L 377.038624 278.42629 
L 377.363604 278.42629 
L 377.688583 278.107974 
L 378.013563 278.107974 
L 378.338542 277.471343 
L 378.663522 278.107974 
L 379.313481 278.107974 
L 379.63846 278.42629 
L 379.96344 278.107974 
L 380.288419 278.42629 
L 380.938378 278.42629 
L 381.263358 278.107974 
L 381.588337 278.744606 
L 381.913317 278.107974 
L 382.238296 278.107974 
L 382.563276 278.42629 
L 383.863194 278.42629 
L 384.188174 278.107974 
L 384.513153 278.107974 
L 385.163112 278.744606 
L 385.488092 278.744606 
L 385.813071 277.789658 
L 386.46303 277.789658 
L 386.78801 278.42629 
L 389.062867 278.42629 
L 389.712826 279.062922 
L 390.037805 278.42629 
L 390.687764 279.062922 
L 391.337723 278.42629 
L 391.987682 279.062922 
L 392.312662 279.062922 
L 392.962621 279.699553 
L 393.2876 279.699553 
L 393.61258 279.062922 
L 393.937559 278.107974 
L 394.912498 272.059973 
L 395.887437 264.102077 
L 396.537396 260.918919 
L 396.862375 260.282287 
L 398.162293 256.780813 
L 398.487273 256.462497 
L 398.487273 256.462497 
" clip-path="url(#p7668e341bf)" style="fill: none; stroke: #ff7f0e; stroke-width: 1.5; stroke-linecap: square"/>
   </g>
   <g id="line2d_15">
    <path d="M 73.832727 282.755368 
L 74.157707 285.301895 
L 74.482686 282.755368 
L 75.132645 282.755368 
L 75.457625 287.848421 
L 75.782604 285.301895 
L 76.107584 285.301895 
L 76.432563 280.208842 
L 76.757543 285.301895 
L 77.082523 282.755368 
L 78.382441 282.755368 
L 78.70742 285.301895 
L 79.0324 282.755368 
L 79.357379 282.755368 
L 79.682359 287.848421 
L 80.332318 282.755368 
L 80.657297 285.301895 
L 80.982277 282.755368 
L 81.307256 285.301895 
L 81.632236 280.208842 
L 81.957215 287.848421 
L 82.607174 287.848421 
L 82.932154 282.755368 
L 83.257133 285.301895 
L 83.907093 285.301895 
L 84.232072 280.208842 
L 84.882031 285.301895 
L 85.207011 285.301895 
L 85.53199 282.755368 
L 85.85697 287.848421 
L 86.181949 285.301895 
L 86.506929 285.301895 
L 86.831908 282.755368 
L 87.156888 287.848421 
L 87.481867 282.755368 
L 88.131826 282.755368 
L 88.456806 285.301895 
L 88.781785 285.301895 
L 89.106765 287.848421 
L 89.431744 285.301895 
L 89.756724 285.301895 
L 90.081704 282.755368 
L 90.406683 282.755368 
L 90.731663 277.662316 
L 91.056642 275.115789 
L 91.706601 257.290105 
L 92.031581 244.557474 
L 92.68154 226.731789 
L 93.331499 226.731789 
L 93.656478 224.185263 
L 94.306437 188.533895 
L 94.631417 165.615158 
L 94.956396 165.615158 
L 95.606355 185.987368 
L 95.931335 178.347789 
L 96.581294 122.324211 
L 96.906274 112.138105 
L 97.231253 119.777684 
L 97.556233 140.149895 
L 97.881212 142.696421 
L 98.856151 91.765895 
L 99.18113 101.952 
L 99.50611 107.045053 
L 100.481048 79.033263 
L 101.131007 94.312421 
L 101.455987 91.765895 
L 102.105946 58.661053 
L 102.430925 53.568 
L 102.755905 73.940211 
L 103.080885 84.126316 
L 103.405864 84.126316 
L 104.055823 63.754105 
L 104.380803 63.754105 
L 104.705782 68.847158 
L 105.030762 68.847158 
L 105.355741 66.300632 
L 105.680721 68.847158 
L 106.33068 79.033263 
L 106.655659 81.579789 
L 107.630598 66.300632 
L 108.605536 91.765895 
L 108.930516 91.765895 
L 109.255495 84.126316 
L 109.580475 84.126316 
L 109.905455 89.219368 
L 110.230434 86.672842 
L 110.880393 96.858947 
L 111.205373 96.858947 
L 111.855332 107.045053 
L 112.505291 101.952 
L 112.83027 96.858947 
L 113.15525 101.952 
L 113.480229 104.498526 
L 113.805209 114.684632 
L 114.130188 117.231158 
L 114.455168 112.138105 
L 114.780147 109.591579 
L 115.105127 109.591579 
L 115.430106 107.045053 
L 115.755086 112.138105 
L 116.080066 114.684632 
L 116.730025 114.684632 
L 117.055004 119.777684 
L 117.379984 114.684632 
L 117.704963 117.231158 
L 118.029943 109.591579 
L 118.354922 112.138105 
L 118.679902 112.138105 
L 119.004881 117.231158 
L 119.329861 117.231158 
L 120.304799 109.591579 
L 120.629779 101.952 
L 121.279738 107.045053 
L 121.604717 104.498526 
L 122.254676 104.498526 
L 122.579656 101.952 
L 122.904636 101.952 
L 123.229615 94.312421 
L 123.554595 94.312421 
L 123.879574 91.765895 
L 124.854513 91.765895 
L 125.504472 86.672842 
L 125.829451 79.033263 
L 126.154431 76.486737 
L 126.47941 79.033263 
L 126.80439 79.033263 
L 127.779328 71.393684 
L 128.104308 73.940211 
L 128.429287 66.300632 
L 129.079247 61.207579 
L 129.404226 61.207579 
L 129.729206 66.300632 
L 130.054185 63.754105 
L 130.704144 63.754105 
L 131.029124 56.114526 
L 131.354103 58.661053 
L 132.004062 58.661053 
L 132.329042 56.114526 
L 132.654021 61.207579 
L 132.979001 63.754105 
L 133.30398 63.754105 
L 133.62896 61.207579 
L 133.953939 61.207579 
L 134.278919 63.754105 
L 134.603898 68.847158 
L 135.253857 68.847158 
L 135.903817 79.033263 
L 136.228796 79.033263 
L 136.878755 84.126316 
L 137.853694 99.405474 
L 138.503653 104.498526 
L 138.828632 104.498526 
L 139.153612 112.138105 
L 139.478591 114.684632 
L 139.803571 122.324211 
L 140.12855 124.870737 
L 140.45353 129.963789 
L 140.778509 140.149895 
L 141.103489 142.696421 
L 141.428468 142.696421 
L 141.753448 145.242947 
L 143.053366 173.254737 
L 143.378346 178.347789 
L 143.703325 188.533895 
L 144.028305 188.533895 
L 144.678264 203.813053 
L 145.003243 206.359579 
L 145.328223 211.452632 
L 145.978182 226.731789 
L 146.628141 231.824842 
L 147.2781 244.557474 
L 147.603079 244.557474 
L 147.928059 247.104 
L 148.578018 257.290105 
L 148.902998 264.929684 
L 149.227977 262.383158 
L 149.552957 272.569263 
L 149.877936 272.569263 
L 150.527895 277.662316 
L 150.852875 282.755368 
L 151.502834 287.848421 
L 151.827813 285.301895 
L 152.152793 287.848421 
L 152.477772 295.488 
L 152.802752 292.941474 
L 153.452711 292.941474 
L 153.77769 290.394947 
L 154.10267 292.941474 
L 154.427649 285.301895 
L 154.752629 290.394947 
L 155.077609 285.301895 
L 155.402588 290.394947 
L 155.727568 287.848421 
L 156.377527 287.848421 
L 156.702506 285.301895 
L 157.027486 280.208842 
L 157.352465 285.301895 
L 157.677445 287.848421 
L 158.002424 287.848421 
L 158.327404 282.755368 
L 158.652383 287.848421 
L 158.977363 290.394947 
L 159.302342 290.394947 
L 159.627322 282.755368 
L 159.952301 285.301895 
L 160.277281 285.301895 
L 160.60226 282.755368 
L 161.902179 282.755368 
L 162.227158 280.208842 
L 162.877117 285.301895 
L 163.202097 282.755368 
L 163.852056 282.755368 
L 164.502015 287.848421 
L 164.826994 282.755368 
L 165.151974 285.301895 
L 165.476953 282.755368 
L 165.801933 285.301895 
L 167.101851 285.301895 
L 167.42683 280.208842 
L 167.75181 280.208842 
L 168.07679 285.301895 
L 168.401769 285.301895 
L 168.726749 282.755368 
L 169.051728 287.848421 
L 169.376708 287.848421 
L 170.026667 277.662316 
L 171.001605 285.301895 
L 171.976544 285.301895 
L 172.301523 287.848421 
L 172.626503 282.755368 
L 172.951482 282.755368 
L 173.276462 285.301895 
L 173.601441 282.755368 
L 173.926421 282.755368 
L 174.2514 285.301895 
L 174.90136 285.301895 
L 175.226339 280.208842 
L 175.551319 285.301895 
L 175.876298 282.755368 
L 176.526257 287.848421 
L 176.851237 285.301895 
L 177.176216 285.301895 
L 177.501196 287.848421 
L 177.826175 287.848421 
L 178.151155 290.394947 
L 178.476134 285.301895 
L 178.801114 285.301895 
L 179.126093 282.755368 
L 179.451073 285.301895 
L 179.776052 285.301895 
L 180.101032 287.848421 
L 180.426011 282.755368 
L 180.750991 287.848421 
L 181.075971 285.301895 
L 181.40095 292.941474 
L 181.72593 290.394947 
L 182.050909 285.301895 
L 182.700868 290.394947 
L 183.025848 287.848421 
L 184.000786 287.848421 
L 184.325766 285.301895 
L 184.650745 290.394947 
L 185.300704 290.394947 
L 185.625684 285.301895 
L 185.950663 287.848421 
L 186.275643 287.848421 
L 187.250581 272.569263 
L 187.900541 249.650526 
L 188.22552 234.371368 
L 188.5505 226.731789 
L 188.875479 231.824842 
L 189.200459 231.824842 
L 189.525438 224.185263 
L 189.850418 211.452632 
L 190.175397 185.987368 
L 190.825356 165.615158 
L 191.150336 178.347789 
L 191.475315 185.987368 
L 191.800295 180.894316 
L 192.450254 127.417263 
L 192.775233 114.684632 
L 193.425192 137.603368 
L 193.750172 140.149895 
L 194.075152 127.417263 
L 194.400131 101.952 
L 194.725111 89.219368 
L 195.37507 107.045053 
L 195.700049 101.952 
L 196.025029 84.126316 
L 196.350008 81.579789 
L 196.674988 86.672842 
L 196.999967 99.405474 
L 197.324947 96.858947 
L 197.974906 58.661053 
L 198.299885 58.661053 
L 198.949844 86.672842 
L 199.274824 86.672842 
L 199.599803 71.393684 
L 199.924783 63.754105 
L 200.249762 66.300632 
L 200.574742 71.393684 
L 200.899722 73.940211 
L 201.224701 66.300632 
L 201.549681 68.847158 
L 201.87466 73.940211 
L 202.19964 81.579789 
L 202.524619 84.126316 
L 202.849599 79.033263 
L 203.174578 68.847158 
L 203.499558 68.847158 
L 203.824537 76.486737 
L 204.149517 89.219368 
L 204.474496 94.312421 
L 205.124455 84.126316 
L 205.449435 84.126316 
L 205.774414 86.672842 
L 206.099394 94.312421 
L 206.424373 89.219368 
L 206.749353 96.858947 
L 207.074333 99.405474 
L 207.399312 107.045053 
L 207.724292 107.045053 
L 208.049271 104.498526 
L 208.374251 99.405474 
L 208.69923 96.858947 
L 209.02421 99.405474 
L 209.674169 112.138105 
L 209.999148 114.684632 
L 210.324128 112.138105 
L 210.649107 114.684632 
L 210.974087 109.591579 
L 211.299066 112.138105 
L 211.624046 109.591579 
L 211.949025 114.684632 
L 212.274005 114.684632 
L 212.923964 119.777684 
L 213.248943 117.231158 
L 213.573923 117.231158 
L 213.898903 114.684632 
L 214.223882 107.045053 
L 214.548862 109.591579 
L 214.873841 114.684632 
L 215.198821 114.684632 
L 215.5238 112.138105 
L 215.84878 112.138105 
L 216.173759 109.591579 
L 216.498739 109.591579 
L 216.823718 101.952 
L 217.148698 107.045053 
L 217.473677 104.498526 
L 217.798657 107.045053 
L 218.123636 107.045053 
L 219.098575 99.405474 
L 219.423554 94.312421 
L 219.748534 91.765895 
L 221.048452 91.765895 
L 221.373432 84.126316 
L 221.698411 81.579789 
L 222.023391 76.486737 
L 222.34837 79.033263 
L 222.998329 79.033263 
L 223.323309 73.940211 
L 224.623227 63.754105 
L 224.948206 63.754105 
L 225.273186 66.300632 
L 225.598165 66.300632 
L 225.923145 61.207579 
L 226.248124 63.754105 
L 226.573104 61.207579 
L 226.898084 63.754105 
L 227.223063 58.661053 
L 227.548043 58.661053 
L 228.198002 63.754105 
L 229.49792 63.754105 
L 229.822899 61.207579 
L 230.147879 63.754105 
L 230.472858 68.847158 
L 231.122817 68.847158 
L 231.447797 73.940211 
L 231.772776 73.940211 
L 232.097756 79.033263 
L 232.422735 79.033263 
L 232.747715 84.126316 
L 233.072695 86.672842 
L 233.397674 96.858947 
L 233.722654 96.858947 
L 234.372613 101.952 
L 234.697592 107.045053 
L 235.022572 109.591579 
L 235.347551 114.684632 
L 235.672531 122.324211 
L 236.32249 127.417263 
L 237.297428 150.336 
L 237.622408 150.336 
L 238.272367 160.522105 
L 238.922326 175.801263 
L 239.247305 178.347789 
L 239.572285 183.440842 
L 239.897265 191.080421 
L 240.222244 193.626947 
L 240.547224 198.72 
L 240.872203 208.906105 
L 241.522162 213.999158 
L 241.847142 219.092211 
L 242.497101 236.917895 
L 242.82208 236.917895 
L 243.14706 244.557474 
L 243.472039 244.557474 
L 243.797019 249.650526 
L 244.121998 252.197053 
L 244.771957 264.929684 
L 245.096937 267.476211 
L 245.421916 264.929684 
L 245.746896 267.476211 
L 246.071876 277.662316 
L 246.396855 280.208842 
L 246.721835 280.208842 
L 247.046814 285.301895 
L 247.371794 285.301895 
L 247.696773 287.848421 
L 248.021753 285.301895 
L 248.346732 292.941474 
L 248.671712 295.488 
L 249.321671 290.394947 
L 249.64665 292.941474 
L 250.296609 292.941474 
L 250.621589 287.848421 
L 250.946568 285.301895 
L 251.271548 287.848421 
L 251.921507 282.755368 
L 252.571466 282.755368 
L 252.896446 285.301895 
L 253.221425 282.755368 
L 253.546405 287.848421 
L 254.196364 287.848421 
L 254.521343 285.301895 
L 255.496282 285.301895 
L 255.821261 282.755368 
L 256.146241 282.755368 
L 256.47122 285.301895 
L 257.121179 280.208842 
L 257.771138 285.301895 
L 258.096118 285.301895 
L 258.421097 277.662316 
L 258.746077 282.755368 
L 259.071057 280.208842 
L 259.396036 282.755368 
L 259.721016 282.755368 
L 260.045995 285.301895 
L 261.995872 285.301895 
L 262.320852 282.755368 
L 262.645831 285.301895 
L 262.970811 282.755368 
L 263.29579 285.301895 
L 263.62077 280.208842 
L 263.945749 282.755368 
L 264.270729 280.208842 
L 264.595708 285.301895 
L 265.245667 285.301895 
L 265.570647 282.755368 
L 265.895627 285.301895 
L 266.220606 282.755368 
L 266.545586 285.301895 
L 267.195545 285.301895 
L 267.520524 282.755368 
L 267.845504 287.848421 
L 268.170483 285.301895 
L 268.495463 285.301895 
L 268.820442 280.208842 
L 269.145422 285.301895 
L 269.470401 282.755368 
L 269.795381 285.301895 
L 270.12036 282.755368 
L 270.44534 285.301895 
L 270.770319 282.755368 
L 271.095299 285.301895 
L 271.420278 280.208842 
L 271.745258 282.755368 
L 272.395217 282.755368 
L 272.720197 277.662316 
L 273.045176 285.301895 
L 273.370156 285.301895 
L 273.695135 287.848421 
L 274.020115 282.755368 
L 274.345094 287.848421 
L 274.670074 285.301895 
L 274.995053 287.848421 
L 275.320033 287.848421 
L 275.645012 285.301895 
L 276.294971 285.301895 
L 276.619951 282.755368 
L 276.94493 282.755368 
L 277.26991 285.301895 
L 277.594889 285.301895 
L 277.919869 282.755368 
L 278.244848 287.848421 
L 278.569828 285.301895 
L 278.894808 287.848421 
L 279.219787 282.755368 
L 279.544767 285.301895 
L 279.869746 285.301895 
L 280.194726 287.848421 
L 280.519705 285.301895 
L 280.844685 287.848421 
L 281.494644 287.848421 
L 282.469582 280.208842 
L 282.794562 275.115789 
L 283.7695 252.197053 
L 284.419459 226.731789 
L 284.744439 226.731789 
L 285.069419 229.278316 
L 285.394398 221.638737 
L 285.719378 208.906105 
L 286.369337 170.708211 
L 286.694316 168.161684 
L 287.344275 185.987368 
L 287.669255 180.894316 
L 288.319214 122.324211 
L 288.644193 114.684632 
L 288.969173 124.870737 
L 289.294152 140.149895 
L 289.619132 140.149895 
L 289.944111 124.870737 
L 290.269091 101.952 
L 290.59407 94.312421 
L 290.91905 96.858947 
L 291.244029 104.498526 
L 291.893989 86.672842 
L 292.218968 76.486737 
L 292.543948 84.126316 
L 292.868927 96.858947 
L 293.193907 94.312421 
L 293.843866 58.661053 
L 294.168845 58.661053 
L 294.493825 73.940211 
L 294.818804 81.579789 
L 295.143784 84.126316 
L 295.793743 66.300632 
L 296.118722 63.754105 
L 296.443702 66.300632 
L 296.768681 71.393684 
L 297.093661 68.847158 
L 297.41864 63.754105 
L 297.74362 68.847158 
L 298.0686 79.033263 
L 298.393579 79.033263 
L 298.718559 76.486737 
L 299.043538 68.847158 
L 299.368518 68.847158 
L 300.343456 94.312421 
L 300.668436 89.219368 
L 300.993415 86.672842 
L 301.643374 86.672842 
L 301.968354 94.312421 
L 302.293333 96.858947 
L 302.618313 94.312421 
L 302.943292 99.405474 
L 303.593251 104.498526 
L 303.918231 101.952 
L 304.24321 101.952 
L 304.56819 99.405474 
L 304.89317 104.498526 
L 305.218149 107.045053 
L 305.543129 112.138105 
L 305.868108 114.684632 
L 306.843047 107.045053 
L 307.168026 109.591579 
L 307.493006 114.684632 
L 307.817985 109.591579 
L 308.467944 114.684632 
L 309.117903 114.684632 
L 309.442883 117.231158 
L 309.767862 109.591579 
L 310.417821 109.591579 
L 310.742801 114.684632 
L 311.39276 114.684632 
L 311.71774 112.138105 
L 312.042719 104.498526 
L 312.692678 104.498526 
L 313.017658 101.952 
L 313.667617 107.045053 
L 313.992596 101.952 
L 314.642555 96.858947 
L 314.967535 96.858947 
L 315.292514 94.312421 
L 315.617494 89.219368 
L 315.942473 91.765895 
L 316.267453 86.672842 
L 316.592432 91.765895 
L 316.917412 89.219368 
L 317.242391 81.579789 
L 318.21733 73.940211 
L 318.54231 76.486737 
L 318.867289 76.486737 
L 319.192269 71.393684 
L 319.517248 68.847158 
L 319.842228 68.847158 
L 320.167207 66.300632 
L 320.492187 68.847158 
L 320.817166 63.754105 
L 321.142146 61.207579 
L 321.467125 63.754105 
L 322.117084 63.754105 
L 323.417002 53.568 
L 323.741982 58.661053 
L 324.066962 61.207579 
L 324.391941 61.207579 
L 324.716921 58.661053 
L 325.0419 61.207579 
L 325.36688 61.207579 
L 325.691859 63.754105 
L 326.016839 61.207579 
L 326.341818 66.300632 
L 326.666798 66.300632 
L 326.991777 71.393684 
L 327.966716 79.033263 
L 328.616675 79.033263 
L 328.941654 81.579789 
L 329.266634 89.219368 
L 329.916593 94.312421 
L 330.241572 101.952 
L 330.566552 101.952 
L 330.891532 109.591579 
L 331.216511 112.138105 
L 331.541491 117.231158 
L 332.19145 132.510316 
L 332.841409 137.603368 
L 333.491368 150.336 
L 333.816347 152.882526 
L 334.141327 157.975579 
L 334.791286 175.801263 
L 335.116265 178.347789 
L 335.766224 191.080421 
L 336.091204 196.173474 
L 336.416183 196.173474 
L 337.716102 224.185263 
L 338.041081 226.731789 
L 338.69104 239.464421 
L 339.01602 239.464421 
L 339.665979 252.197053 
L 340.315938 257.290105 
L 340.965897 267.476211 
L 341.290876 270.022737 
L 341.615856 267.476211 
L 341.940835 275.115789 
L 342.265815 277.662316 
L 342.590794 282.755368 
L 342.915774 282.755368 
L 343.240753 285.301895 
L 343.565733 285.301895 
L 343.890713 290.394947 
L 344.215692 290.394947 
L 344.540672 292.941474 
L 345.190631 292.941474 
L 345.51561 290.394947 
L 345.84059 292.941474 
L 346.490549 287.848421 
L 346.815528 282.755368 
L 347.140508 287.848421 
L 347.790467 287.848421 
L 348.115446 282.755368 
L 348.765405 287.848421 
L 349.090385 287.848421 
L 349.415364 285.301895 
L 350.390303 285.301895 
L 350.715283 287.848421 
L 351.040262 285.301895 
L 351.690221 285.301895 
L 352.015201 280.208842 
L 352.34018 285.301895 
L 352.990139 285.301895 
L 353.315119 282.755368 
L 353.640098 285.301895 
L 354.290057 285.301895 
L 354.615037 282.755368 
L 354.940016 282.755368 
L 355.264996 285.301895 
L 355.589975 285.301895 
L 355.914955 287.848421 
L 356.239934 287.848421 
L 356.564914 285.301895 
L 356.889894 285.301895 
L 357.214873 282.755368 
L 357.539853 287.848421 
L 358.189812 287.848421 
L 358.514791 285.301895 
L 359.48973 285.301895 
L 359.814709 282.755368 
L 360.139689 282.755368 
L 360.464668 285.301895 
L 360.789648 282.755368 
L 361.114627 282.755368 
L 361.439607 285.301895 
L 361.764586 285.301895 
L 362.089566 287.848421 
L 362.414545 285.301895 
L 363.064505 285.301895 
L 363.389484 282.755368 
L 363.714464 285.301895 
L 364.039443 285.301895 
L 364.364423 287.848421 
L 364.689402 287.848421 
L 365.014382 280.208842 
L 365.339361 280.208842 
L 365.664341 285.301895 
L 365.98932 285.301895 
L 366.3143 282.755368 
L 366.639279 282.755368 
L 367.289238 287.848421 
L 367.614218 282.755368 
L 367.939197 285.301895 
L 368.264177 285.301895 
L 368.589156 287.848421 
L 369.889075 287.848421 
L 370.214054 280.208842 
L 370.864013 285.301895 
L 371.513972 285.301895 
L 371.838952 287.848421 
L 372.163931 285.301895 
L 372.488911 287.848421 
L 372.81389 282.755368 
L 373.13887 285.301895 
L 373.463849 285.301895 
L 373.788829 287.848421 
L 374.113808 285.301895 
L 374.438788 287.848421 
L 375.088747 287.848421 
L 375.413726 285.301895 
L 376.388665 285.301895 
L 376.713645 282.755368 
L 377.038624 287.848421 
L 377.688583 287.848421 
L 378.013563 282.755368 
L 378.338542 282.755368 
L 378.663522 272.569263 
L 378.988501 267.476211 
L 380.288419 229.278316 
L 380.613399 224.185263 
L 380.938378 229.278316 
L 381.263358 224.185263 
L 382.238296 168.161684 
L 382.563276 165.615158 
L 382.888256 178.347789 
L 383.213235 185.987368 
L 383.538215 180.894316 
L 384.188174 127.417263 
L 384.513153 112.138105 
L 384.838133 122.324211 
L 385.163112 140.149895 
L 385.488092 142.696421 
L 386.138051 101.952 
L 386.46303 91.765895 
L 386.78801 96.858947 
L 387.112989 99.405474 
L 387.437969 96.858947 
L 387.762948 84.126316 
L 388.087928 81.579789 
L 388.412907 81.579789 
L 388.737887 94.312421 
L 389.062867 91.765895 
L 389.712826 58.661053 
L 390.037805 56.114526 
L 390.687764 86.672842 
L 391.012744 81.579789 
L 391.662703 63.754105 
L 391.987682 63.754105 
L 392.312662 68.847158 
L 392.637641 71.393684 
L 392.962621 71.393684 
L 393.2876 68.847158 
L 393.61258 68.847158 
L 393.937559 84.126316 
L 394.262539 84.126316 
L 394.587518 79.033263 
L 394.912498 71.393684 
L 395.237477 68.847158 
L 396.212416 91.765895 
L 397.187355 84.126316 
L 397.837314 89.219368 
L 398.162293 94.312421 
L 398.487273 96.858947 
L 398.487273 96.858947 
" clip-path="url(#p7668e341bf)" style="fill: none; stroke: #2ca02c; stroke-width: 1.5; stroke-linecap: square"/>
   </g>
   <g id="line2d_16">
    <path d="M 73.832727 107.045053 
L 74.482686 101.952 
L 74.807666 96.858947 
L 75.132645 96.858947 
L 75.457625 94.312421 
L 75.782604 94.312421 
L 76.107584 91.765895 
L 76.757543 91.765895 
L 77.407502 81.579789 
L 77.732482 81.579789 
L 78.057461 79.033263 
L 78.382441 79.033263 
L 79.357379 71.393684 
L 79.682359 71.393684 
L 80.332318 66.300632 
L 80.657297 68.847158 
L 80.982277 68.847158 
L 81.307256 66.300632 
L 81.632236 68.847158 
L 81.957215 66.300632 
L 82.282195 61.207579 
L 83.907093 61.207579 
L 84.232072 63.754105 
L 84.557052 58.661053 
L 84.882031 61.207579 
L 85.53199 61.207579 
L 85.85697 66.300632 
L 86.181949 66.300632 
L 86.506929 63.754105 
L 87.156888 73.940211 
L 87.481867 73.940211 
L 87.806847 76.486737 
L 88.131826 76.486737 
L 89.106765 84.126316 
L 89.431744 89.219368 
L 89.756724 91.765895 
L 90.081704 96.858947 
L 90.406683 96.858947 
L 90.731663 99.405474 
L 91.381622 112.138105 
L 91.706601 112.138105 
L 92.35656 124.870737 
L 92.68154 129.963789 
L 93.006519 132.510316 
L 93.656478 145.242947 
L 94.631417 160.522105 
L 94.956396 163.068632 
L 95.931335 183.440842 
L 96.581294 193.626947 
L 96.906274 196.173474 
L 97.231253 206.359579 
L 97.881212 216.545684 
L 98.206192 219.092211 
L 98.531171 226.731789 
L 98.856151 229.278316 
L 99.50611 244.557474 
L 99.831089 244.557474 
L 100.156069 247.104 
L 100.481048 247.104 
L 101.131007 257.290105 
L 101.780966 270.022737 
L 102.105946 272.569263 
L 102.430925 272.569263 
L 102.755905 277.662316 
L 103.080885 277.662316 
L 103.405864 282.755368 
L 103.730844 282.755368 
L 104.055823 285.301895 
L 104.380803 285.301895 
L 104.705782 290.394947 
L 105.030762 292.941474 
L 105.355741 292.941474 
L 105.680721 290.394947 
L 106.33068 290.394947 
L 106.655659 295.488 
L 106.980639 292.941474 
L 107.305618 285.301895 
L 107.630598 287.848421 
L 107.955577 285.301895 
L 108.280557 285.301895 
L 108.605536 287.848421 
L 108.930516 285.301895 
L 109.255495 280.208842 
L 109.580475 280.208842 
L 110.230434 290.394947 
L 110.555414 290.394947 
L 111.205373 285.301895 
L 111.530352 285.301895 
L 111.855332 290.394947 
L 112.505291 285.301895 
L 112.83027 285.301895 
L 113.15525 282.755368 
L 113.480229 282.755368 
L 113.805209 285.301895 
L 114.780147 285.301895 
L 115.430106 290.394947 
L 115.755086 282.755368 
L 116.730025 282.755368 
L 117.055004 287.848421 
L 117.379984 287.848421 
L 117.704963 285.301895 
L 118.029943 287.848421 
L 118.354922 287.848421 
L 118.679902 285.301895 
L 119.004881 287.848421 
L 119.329861 285.301895 
L 119.65484 287.848421 
L 119.97982 282.755368 
L 120.629779 282.755368 
L 120.954758 285.301895 
L 121.279738 285.301895 
L 121.604717 282.755368 
L 121.929697 285.301895 
L 122.254676 290.394947 
L 122.904636 285.301895 
L 123.229615 287.848421 
L 123.554595 285.301895 
L 123.879574 285.301895 
L 124.204554 287.848421 
L 124.854513 287.848421 
L 125.179492 282.755368 
L 125.504472 285.301895 
L 126.154431 285.301895 
L 126.47941 287.848421 
L 126.80439 285.301895 
L 127.129369 280.208842 
L 127.454349 287.848421 
L 127.779328 285.301895 
L 129.729206 285.301895 
L 130.054185 287.848421 
L 131.354103 287.848421 
L 131.679083 285.301895 
L 132.329042 285.301895 
L 132.654021 287.848421 
L 132.979001 285.301895 
L 133.30398 287.848421 
L 133.953939 287.848421 
L 134.278919 285.301895 
L 134.603898 285.301895 
L 134.928878 287.848421 
L 136.228796 287.848421 
L 136.553776 285.301895 
L 137.203735 290.394947 
L 137.528714 287.848421 
L 137.853694 290.394947 
L 138.503653 285.301895 
L 138.828632 285.301895 
L 139.153612 280.208842 
L 139.478591 267.476211 
L 140.12855 254.743579 
L 140.45353 252.197053 
L 141.753448 219.092211 
L 142.078428 206.359579 
L 142.728387 193.626947 
L 143.053366 193.626947 
L 143.378346 191.080421 
L 144.678264 150.336 
L 145.003243 145.242947 
L 145.328223 142.696421 
L 145.653202 137.603368 
L 145.978182 127.417263 
L 146.303161 122.324211 
L 146.628141 122.324211 
L 146.95312 119.777684 
L 147.928059 96.858947 
L 148.253038 96.858947 
L 148.578018 99.405474 
L 149.227977 99.405474 
L 150.202916 79.033263 
L 150.852875 89.219368 
L 151.502834 79.033263 
L 151.827813 76.486737 
L 152.477772 81.579789 
L 152.802752 76.486737 
L 153.127731 73.940211 
L 153.77769 79.033263 
L 154.10267 84.126316 
L 154.427649 86.672842 
L 154.752629 84.126316 
L 155.077609 76.486737 
L 155.727568 81.579789 
L 156.377527 91.765895 
L 156.702506 91.765895 
L 157.352465 86.672842 
L 157.677445 91.765895 
L 158.002424 94.312421 
L 158.327404 94.312421 
L 158.652383 99.405474 
L 159.302342 104.498526 
L 160.277281 104.498526 
L 161.577199 114.684632 
L 161.902179 114.684632 
L 162.227158 109.591579 
L 162.877117 109.591579 
L 163.202097 112.138105 
L 163.527076 112.138105 
L 163.852056 119.777684 
L 164.502015 114.684632 
L 164.826994 114.684632 
L 165.151974 117.231158 
L 165.476953 117.231158 
L 165.801933 114.684632 
L 166.126912 117.231158 
L 166.776871 112.138105 
L 167.101851 114.684632 
L 167.75181 114.684632 
L 168.07679 112.138105 
L 168.401769 112.138105 
L 168.726749 109.591579 
L 169.051728 112.138105 
L 169.376708 109.591579 
L 169.701687 109.591579 
L 170.026667 104.498526 
L 170.351646 104.498526 
L 170.676626 101.952 
L 171.001605 101.952 
L 171.326585 96.858947 
L 171.976544 91.765895 
L 172.626503 91.765895 
L 172.951482 89.219368 
L 173.601441 79.033263 
L 174.2514 79.033263 
L 174.57638 81.579789 
L 174.90136 79.033263 
L 175.226339 71.393684 
L 175.551319 73.940211 
L 176.201278 68.847158 
L 176.526257 68.847158 
L 177.501196 61.207579 
L 177.826175 61.207579 
L 178.151155 63.754105 
L 178.476134 61.207579 
L 179.451073 61.207579 
L 179.776052 63.754105 
L 180.101032 61.207579 
L 180.426011 61.207579 
L 180.750991 63.754105 
L 181.075971 61.207579 
L 181.40095 61.207579 
L 181.72593 63.754105 
L 182.050909 63.754105 
L 182.375889 66.300632 
L 183.025848 66.300632 
L 184.325766 76.486737 
L 184.975725 86.672842 
L 185.300704 86.672842 
L 185.625684 91.765895 
L 185.950663 94.312421 
L 186.925602 109.591579 
L 187.575561 114.684632 
L 187.900541 122.324211 
L 188.5505 127.417263 
L 189.200459 137.603368 
L 189.850418 150.336 
L 190.175397 152.882526 
L 191.150336 173.254737 
L 192.125274 188.533895 
L 192.450254 196.173474 
L 192.775233 198.72 
L 193.100213 203.813053 
L 193.750172 216.545684 
L 194.400131 226.731789 
L 194.725111 229.278316 
L 195.05009 239.464421 
L 195.700049 244.557474 
L 196.025029 249.650526 
L 196.350008 249.650526 
L 196.674988 254.743579 
L 196.999967 257.290105 
L 197.649926 270.022737 
L 197.974906 267.476211 
L 198.299885 270.022737 
L 198.949844 280.208842 
L 199.274824 282.755368 
L 199.599803 282.755368 
L 201.224701 295.488 
L 201.549681 290.394947 
L 201.87466 290.394947 
L 202.19964 295.488 
L 202.524619 292.941474 
L 202.849599 292.941474 
L 203.174578 285.301895 
L 203.499558 285.301895 
L 203.824537 287.848421 
L 204.149517 287.848421 
L 205.124455 280.208842 
L 205.449435 285.301895 
L 206.099394 290.394947 
L 206.424373 290.394947 
L 207.074333 285.301895 
L 207.399312 285.301895 
L 207.724292 290.394947 
L 208.049271 290.394947 
L 208.374251 287.848421 
L 208.69923 282.755368 
L 209.02421 282.755368 
L 209.674169 287.848421 
L 209.999148 285.301895 
L 210.649107 285.301895 
L 210.974087 287.848421 
L 211.299066 285.301895 
L 211.624046 287.848421 
L 211.949025 282.755368 
L 212.274005 282.755368 
L 212.598984 285.301895 
L 212.923964 285.301895 
L 213.248943 287.848421 
L 213.573923 287.848421 
L 213.898903 285.301895 
L 214.223882 287.848421 
L 215.198821 287.848421 
L 215.5238 282.755368 
L 215.84878 287.848421 
L 216.498739 282.755368 
L 216.823718 285.301895 
L 217.148698 282.755368 
L 217.473677 282.755368 
L 217.798657 285.301895 
L 218.123636 285.301895 
L 218.448616 287.848421 
L 218.773595 282.755368 
L 219.098575 282.755368 
L 219.748534 287.848421 
L 220.073514 287.848421 
L 220.398493 282.755368 
L 220.723473 280.208842 
L 221.048452 285.301895 
L 221.373432 287.848421 
L 221.698411 287.848421 
L 222.023391 290.394947 
L 222.34837 285.301895 
L 222.67335 287.848421 
L 222.998329 285.301895 
L 223.323309 285.301895 
L 223.648288 287.848421 
L 224.298247 282.755368 
L 224.623227 285.301895 
L 225.923145 285.301895 
L 226.248124 287.848421 
L 226.573104 287.848421 
L 226.898084 285.301895 
L 227.223063 287.848421 
L 227.548043 285.301895 
L 228.198002 285.301895 
L 228.522981 287.848421 
L 228.847961 287.848421 
L 229.17294 285.301895 
L 229.49792 287.848421 
L 230.797838 287.848421 
L 231.122817 285.301895 
L 231.447797 287.848421 
L 231.772776 287.848421 
L 232.097756 285.301895 
L 232.422735 287.848421 
L 233.072695 287.848421 
L 233.397674 290.394947 
L 233.722654 290.394947 
L 234.047633 287.848421 
L 234.372613 287.848421 
L 234.697592 285.301895 
L 235.022572 280.208842 
L 235.99751 252.197053 
L 236.32249 244.557474 
L 236.647469 247.104 
L 237.297428 229.278316 
L 237.947387 203.813053 
L 238.272367 196.173474 
L 238.597346 193.626947 
L 238.922326 188.533895 
L 239.247305 188.533895 
L 240.547224 150.336 
L 241.197183 145.242947 
L 242.172121 124.870737 
L 242.497101 119.777684 
L 243.14706 114.684632 
L 243.472039 104.498526 
L 243.797019 99.405474 
L 244.121998 96.858947 
L 244.446978 99.405474 
L 244.771957 99.405474 
L 245.096937 96.858947 
L 245.746896 81.579789 
L 246.071876 79.033263 
L 246.396855 81.579789 
L 246.721835 86.672842 
L 247.046814 86.672842 
L 247.371794 79.033263 
L 247.696773 76.486737 
L 248.346732 81.579789 
L 248.671712 79.033263 
L 249.97163 79.033263 
L 250.621589 84.126316 
L 250.946568 76.486737 
L 251.271548 76.486737 
L 251.596527 79.033263 
L 252.246486 91.765895 
L 252.571466 91.765895 
L 252.896446 86.672842 
L 253.546405 86.672842 
L 253.871384 89.219368 
L 254.196364 94.312421 
L 254.521343 94.312421 
L 255.171302 99.405474 
L 255.496282 99.405474 
L 255.821261 101.952 
L 256.146241 96.858947 
L 256.47122 101.952 
L 257.121179 107.045053 
L 257.446159 114.684632 
L 257.771138 114.684632 
L 258.096118 109.591579 
L 259.071057 109.591579 
L 259.396036 114.684632 
L 260.045995 114.684632 
L 260.370975 109.591579 
L 260.695954 109.591579 
L 261.345913 114.684632 
L 261.995872 114.684632 
L 262.320852 112.138105 
L 262.645831 114.684632 
L 262.970811 114.684632 
L 263.29579 112.138105 
L 263.62077 112.138105 
L 264.270729 107.045053 
L 265.245667 107.045053 
L 265.570647 101.952 
L 265.895627 99.405474 
L 266.545586 99.405474 
L 267.520524 91.765895 
L 267.845504 94.312421 
L 268.170483 94.312421 
L 268.495463 89.219368 
L 268.820442 89.219368 
L 269.145422 84.126316 
L 269.795381 79.033263 
L 270.12036 81.579789 
L 270.44534 79.033263 
L 270.770319 73.940211 
L 271.095299 73.940211 
L 271.420278 68.847158 
L 272.395217 68.847158 
L 272.720197 66.300632 
L 273.045176 66.300632 
L 273.695135 61.207579 
L 274.020115 63.754105 
L 274.345094 63.754105 
L 274.670074 58.661053 
L 274.995053 61.207579 
L 275.645012 61.207579 
L 275.969992 58.661053 
L 276.294971 58.661053 
L 276.619951 61.207579 
L 276.94493 61.207579 
L 277.594889 66.300632 
L 277.919869 63.754105 
L 278.244848 68.847158 
L 278.569828 68.847158 
L 278.894808 71.393684 
L 279.219787 71.393684 
L 279.869746 76.486737 
L 280.194726 81.579789 
L 280.519705 81.579789 
L 280.844685 84.126316 
L 281.169664 89.219368 
L 281.819623 94.312421 
L 282.144603 99.405474 
L 282.794562 104.498526 
L 283.119541 109.591579 
L 283.7695 122.324211 
L 284.419459 132.510316 
L 284.744439 135.056842 
L 286.044357 155.429053 
L 286.369337 157.975579 
L 287.669255 185.987368 
L 287.994234 188.533895 
L 288.969173 203.813053 
L 289.619132 219.092211 
L 290.59407 226.731789 
L 291.244029 242.010947 
L 292.218968 249.650526 
L 292.868927 259.836632 
L 293.193907 267.476211 
L 293.843866 272.569263 
L 294.168845 272.569263 
L 294.493825 275.115789 
L 294.818804 280.208842 
L 295.143784 282.755368 
L 295.468763 282.755368 
L 296.443702 290.394947 
L 297.74362 290.394947 
L 298.0686 292.941474 
L 298.393579 292.941474 
L 298.718559 287.848421 
L 299.043538 287.848421 
L 299.368518 285.301895 
L 300.343456 285.301895 
L 300.668436 282.755368 
L 300.993415 282.755368 
L 301.318395 280.208842 
L 301.643374 280.208842 
L 301.968354 282.755368 
L 302.293333 287.848421 
L 302.618313 287.848421 
L 302.943292 282.755368 
L 303.593251 282.755368 
L 303.918231 285.301895 
L 305.218149 285.301895 
L 305.543129 282.755368 
L 306.193088 282.755368 
L 306.843047 287.848421 
L 307.493006 282.755368 
L 308.142965 282.755368 
L 308.467944 285.301895 
L 309.117903 285.301895 
L 309.442883 287.848421 
L 309.767862 287.848421 
L 310.092842 285.301895 
L 310.417821 287.848421 
L 310.742801 287.848421 
L 311.067781 285.301895 
L 312.042719 285.301895 
L 312.367699 287.848421 
L 312.692678 282.755368 
L 313.017658 282.755368 
L 313.342637 285.301895 
L 313.667617 285.301895 
L 313.992596 287.848421 
L 314.317576 285.301895 
L 314.642555 287.848421 
L 314.967535 285.301895 
L 315.292514 285.301895 
L 315.617494 290.394947 
L 316.267453 285.301895 
L 316.917412 285.301895 
L 317.567371 290.394947 
L 317.892351 287.848421 
L 318.21733 290.394947 
L 318.54231 287.848421 
L 319.192269 287.848421 
L 319.517248 282.755368 
L 319.842228 285.301895 
L 320.492187 285.301895 
L 320.817166 287.848421 
L 321.142146 285.301895 
L 323.417002 285.301895 
L 323.741982 287.848421 
L 324.066962 285.301895 
L 324.716921 285.301895 
L 325.0419 290.394947 
L 325.36688 287.848421 
L 325.691859 290.394947 
L 326.016839 290.394947 
L 326.341818 287.848421 
L 326.991777 287.848421 
L 327.316757 285.301895 
L 327.641736 287.848421 
L 327.966716 285.301895 
L 328.291695 287.848421 
L 328.616675 287.848421 
L 328.941654 285.301895 
L 329.266634 290.394947 
L 329.916593 285.301895 
L 330.241572 287.848421 
L 330.566552 285.301895 
L 332.516429 242.010947 
L 332.841409 236.917895 
L 333.491368 219.092211 
L 333.816347 206.359579 
L 334.466306 193.626947 
L 334.791286 193.626947 
L 335.116265 188.533895 
L 335.441245 180.894316 
L 336.091204 157.975579 
L 336.741163 147.789474 
L 337.066143 147.789474 
L 338.366061 117.231158 
L 339.01602 117.231158 
L 339.665979 96.858947 
L 339.990958 94.312421 
L 340.640917 104.498526 
L 340.965897 101.952 
L 341.290876 86.672842 
L 341.615856 81.579789 
L 342.590794 89.219368 
L 342.915774 86.672842 
L 343.240753 79.033263 
L 343.565733 76.486737 
L 344.215692 81.579789 
L 344.865651 76.486737 
L 345.190631 76.486737 
L 345.51561 79.033263 
L 345.84059 86.672842 
L 346.815528 79.033263 
L 347.140508 79.033263 
L 347.465487 81.579789 
L 348.115446 94.312421 
L 348.440426 94.312421 
L 348.765405 89.219368 
L 349.415364 89.219368 
L 349.740344 94.312421 
L 350.390303 99.405474 
L 350.715283 99.405474 
L 351.040262 104.498526 
L 351.365242 107.045053 
L 351.690221 101.952 
L 352.015201 104.498526 
L 352.34018 104.498526 
L 353.315119 112.138105 
L 353.640098 112.138105 
L 354.290057 107.045053 
L 354.615037 109.591579 
L 354.940016 114.684632 
L 355.589975 119.777684 
L 355.914955 112.138105 
L 356.239934 114.684632 
L 356.889894 114.684632 
L 357.214873 119.777684 
L 357.539853 114.684632 
L 357.864832 114.684632 
L 358.189812 112.138105 
L 359.48973 112.138105 
L 359.814709 107.045053 
L 360.139689 107.045053 
L 360.464668 109.591579 
L 360.789648 107.045053 
L 361.439607 107.045053 
L 362.089566 101.952 
L 362.414545 101.952 
L 363.714464 91.765895 
L 364.039443 91.765895 
L 365.339361 81.579789 
L 365.664341 81.579789 
L 365.98932 84.126316 
L 366.3143 81.579789 
L 366.639279 81.579789 
L 367.289238 71.393684 
L 367.614218 73.940211 
L 367.939197 71.393684 
L 368.264177 66.300632 
L 368.589156 66.300632 
L 368.914136 63.754105 
L 369.239115 66.300632 
L 369.889075 61.207579 
L 370.864013 61.207579 
L 371.188993 58.661053 
L 372.163931 58.661053 
L 373.13887 66.300632 
L 373.463849 66.300632 
L 373.788829 61.207579 
L 374.438788 66.300632 
L 374.763767 66.300632 
L 375.088747 68.847158 
L 375.413726 73.940211 
L 375.738706 73.940211 
L 376.063686 79.033263 
L 376.388665 79.033263 
L 376.713645 81.579789 
L 377.038624 89.219368 
L 377.688583 94.312421 
L 378.013563 101.952 
L 378.663522 107.045053 
L 378.988501 107.045053 
L 379.63846 119.777684 
L 379.96344 124.870737 
L 380.288419 127.417263 
L 381.263358 142.696421 
L 381.588337 150.336 
L 381.913317 152.882526 
L 382.238296 157.975579 
L 383.213235 180.894316 
L 383.538215 183.440842 
L 383.863194 188.533895 
L 384.188174 191.080421 
L 384.838133 203.813053 
L 385.163112 206.359579 
L 385.488092 216.545684 
L 385.813071 221.638737 
L 386.46303 226.731789 
L 387.437969 247.104 
L 388.087928 252.197053 
L 388.412907 257.290105 
L 388.737887 259.836632 
L 389.062867 264.929684 
L 389.387846 267.476211 
L 389.712826 267.476211 
L 390.362785 272.569263 
L 390.687764 277.662316 
L 391.012744 285.301895 
L 391.337723 282.755368 
L 391.662703 282.755368 
L 391.987682 287.848421 
L 392.312662 287.848421 
L 392.637641 292.941474 
L 392.962621 290.394947 
L 393.2876 292.941474 
L 394.262539 292.941474 
L 394.587518 290.394947 
L 394.912498 282.755368 
L 395.237477 287.848421 
L 395.562457 282.755368 
L 395.887437 287.848421 
L 396.212416 285.301895 
L 396.537396 285.301895 
L 396.862375 282.755368 
L 397.512334 282.755368 
L 397.837314 287.848421 
L 398.162293 290.394947 
L 398.487273 287.848421 
L 398.487273 287.848421 
" clip-path="url(#p7668e341bf)" style="fill: none; stroke: #d62728; stroke-width: 1.5; stroke-linecap: square"/>
   </g>
   <g id="patch_3">
    <path d="M 57.6 307.584 
L 57.6 41.472 
" style="fill: none; stroke: #000000; stroke-width: 0.8; stroke-linejoin: miter; stroke-linecap: square"/>
   </g>
   <g id="patch_4">
    <path d="M 414.72 307.584 
L 414.72 41.472 
" style="fill: none; stroke: #000000; stroke-width: 0.8; stroke-linejoin: miter; stroke-linecap: square"/>
   </g>
   <g id="patch_5">
    <path d="M 57.6 307.584 
L 414.72 307.584 
" style="fill: none; stroke: #000000; stroke-width: 0.8; stroke-linejoin: miter; stroke-linecap: square"/>
   </g>
   <g id="patch_6">
    <path d="M 57.6 41.472 
L 414.72 41.472 
" style="fill: none; stroke: #000000; stroke-width: 0.8; stroke-linejoin: miter; stroke-linecap: square"/>
   </g>
  </g>
 </g>
 <defs>
  <clipPath id="p7668e341bf">
   <rect x="57.6" y="41.472" width="357.12" height="266.112"/>
  </clipPath>
 </defs>
</svg>
