<?xml version="1.0" encoding="utf-8" standalone="no"?>
<!DOCTYPE svg PUBLIC "-//W3C//DTD SVG 1.1//EN"
  "http://www.w3.org/Graphics/SVG/1.1/DTD/svg11.dtd">
<svg xmlns:xlink="http://www.w3.org/1999/xlink" width="460.8pt" height="345.6pt" viewBox="0 0 460.8 345.6" xmlns="http://www.w3.org/2000/svg" version="1.1">
 <metadata>
  <rdf:RDF xmlns:dc="http://purl.org/dc/elements/1.1/" xmlns:cc="http://creativecommons.org/ns#" xmlns:rdf="http://www.w3.org/1999/02/22-rdf-syntax-ns#">
   <cc:Work>
    <dc:type rdf:resource="http://purl.org/dc/dcmitype/StillImage"/>
    <dc:date>2025-12-26T04:07:17.180619</dc:date>
    <dc:format>image/svg+xml</dc:format>
    <dc:creator>
     <cc:Agent>
      <dc:title>Matplotlib v3.10.8, https://matplotlib.org/</dc:title>
     </cc:Agent>
    </dc:creator>
   </cc:Work>
  </rdf:RDF>
 </metadata>
 <defs>
  <style type="text/css">*{stroke-linejoin: round; stroke-linecap: butt}</style>
 </defs>
 <g id="figure_1">
  <g id="patch_1">
   <path d="M 0 345.6 
L 460.8 345.6 
L 460.8 0 
L 0 0 
z
" style="fill: #ffffff"/>
  </g>
  <g id="axes_1">
   <g id="patch_2">
    <path d="M 57.6 307.584 
L 414.72 307.584 
L 414.72 41.472 
L 57.6 41.472 
z
" style="fill: #ffffff"/>
   </g>
   <g id="matplotlib.axis_1">
    <g id="xtick_1">
     <g id="line2d_1">
      <defs>
       <path id="m020656a2c2" d="M 0 0 
L 0 3.5 
" style="stroke: #000000; stroke-width: 0.8"/>
      </defs>
      <g>
       <use xlink:href="#m020656a2c2" x="73.832727" y="307.584" style="stroke: #000000; stroke-width: 0.8"/>
      </g>
     </g>
     <g id="text_1">
      <!-- 0 -->
      <g transform="translate(70.651477 322.182437) scale(0.1 -0.1)">
       <defs>
        <path id="DejaVuSans-30" d="M 2034 4250 
Q 1547 4250 1301 3770 
Q 1056 3291 1056 2328 
Q 1056 1369 1301 889 
Q 1547 409 2034 409 
Q 2525 409 2770 889 
Q 3016 1369 3016 2328 
Q 3016 3291 2770 3770 
Q 2525 4250 2034 4250 
z
M 2034 4750 
Q 2819 4750 3233 4129 
Q 3647 3509 3647 2328 
Q 3647 1150 3233 529 
Q 2819 -91 2034 -91 
Q 1250 -91 836 529 
Q 422 1150 422 2328 
Q 422 3509 836 4129 
Q 1250 4750 2034 4750 
z
" transform="scale(0.015625)"/>
       </defs>
       <use xlink:href="#DejaVuSans-30"/>
      </g>
     </g>
    </g>
    <g id="xtick_2">
     <g id="line2d_2">
      <g>
       <use xlink:href="#m020656a2c2" x="138.828632" y="307.584" style="stroke: #000000; stroke-width: 0.8"/>
      </g>
     </g>
     <g id="text_2">
      <!-- 1 -->
      <g transform="translate(135.647382 322.182437) scale(0.1 -0.1)">
       <defs>
        <path id="DejaVuSans-31" d="M 794 531 
L 1825 531 
L 1825 4091 
L 703 3866 
L 703 4441 
L 1819 4666 
L 2450 4666 
L 2450 531 
L 3481 531 
L 3481 0 
L 794 0 
L 794 531 
z
" transform="scale(0.015625)"/>
       </defs>
       <use xlink:href="#DejaVuSans-31"/>
      </g>
     </g>
    </g>
    <g id="xtick_3">
     <g id="line2d_3">
      <g>
       <use xlink:href="#m020656a2c2" x="203.824537" y="307.584" style="stroke: #000000; stroke-width: 0.8"/>
      </g>
     </g>
     <g id="text_3">
      <!-- 2 -->
      <g transform="translate(200.643287 322.182437) scale(0.1 -0.1)">
       <defs>
        <path id="DejaVuSans-32" d="M 1228 531 
L 3431 531 
L 3431 0 
L 469 0 
L 469 531 
Q 828 903 1448 1529 
Q 2069 2156 2228 2338 
Q 2531 2678 2651 2914 
Q 2772 3150 2772 3378 
Q 2772 3750 2511 3984 
Q 2250 4219 1831 4219 
Q 1534 4219 1204 4116 
Q 875 4013 500 3803 
L 500 4441 
Q 881 4594 1212 4672 
Q 1544 4750 1819 4750 
Q 2544 4750 2975 4387 
Q 3406 4025 3406 3419 
Q 3406 3131 3298 2873 
Q 3191 2616 2906 2266 
Q 2828 2175 2409 1742 
Q 1991 1309 1228 531 
z
" transform="scale(0.015625)"/>
       </defs>
       <use xlink:href="#DejaVuSans-32"/>
      </g>
     </g>
    </g>
    <g id="xtick_4">
     <g id="line2d_4">
      <g>
       <use xlink:href="#m020656a2c2" x="268.820442" y="307.584" style="stroke: #000000; stroke-width: 0.8"/>
      </g>
     </g>
     <g id="text_4">
      <!-- 3 -->
      <g transform="translate(265.639192 322.182437) scale(0.1 -0.1)">
       <defs>
        <path id="DejaVuSans-33" d="M 2597 2516 
Q 3050 2419 3304 2112 
Q 3559 1806 3559 1356 
Q 3559 666 3084 287 
Q 2609 -91 1734 -91 
Q 1441 -91 1130 -33 
Q 819 25 488 141 
L 488 750 
Q 750 597 1062 519 
Q 1375 441 1716 441 
Q 2309 441 2620 675 
Q 2931 909 2931 1356 
Q 2931 1769 2642 2001 
Q 2353 2234 1838 2234 
L 1294 2234 
L 1294 2753 
L 1863 2753 
Q 2328 2753 2575 2939 
Q 2822 3125 2822 3475 
Q 2822 3834 2567 4026 
Q 2313 4219 1838 4219 
Q 1578 4219 1281 4162 
Q 984 4106 628 3988 
L 628 4550 
Q 988 4650 1302 4700 
Q 1616 4750 1894 4750 
Q 2613 4750 3031 4423 
Q 3450 4097 3450 3541 
Q 3450 3153 3228 2886 
Q 3006 2619 2597 2516 
z
" transform="scale(0.015625)"/>
       </defs>
       <use xlink:href="#DejaVuSans-33"/>
      </g>
     </g>
    </g>
    <g id="xtick_5">
     <g id="line2d_5">
      <g>
       <use xlink:href="#m020656a2c2" x="333.816347" y="307.584" style="stroke: #000000; stroke-width: 0.8"/>
      </g>
     </g>
     <g id="text_5">
      <!-- 4 -->
      <g transform="translate(330.635097 322.182437) scale(0.1 -0.1)">
       <defs>
        <path id="DejaVuSans-34" d="M 2419 4116 
L 825 1625 
L 2419 1625 
L 2419 4116 
z
M 2253 4666 
L 3047 4666 
L 3047 1625 
L 3713 1625 
L 3713 1100 
L 3047 1100 
L 3047 0 
L 2419 0 
L 2419 1100 
L 313 1100 
L 313 1709 
L 2253 4666 
z
" transform="scale(0.015625)"/>
       </defs>
       <use xlink:href="#DejaVuSans-34"/>
      </g>
     </g>
    </g>
    <g id="xtick_6">
     <g id="line2d_6">
      <g>
       <use xlink:href="#m020656a2c2" x="398.812252" y="307.584" style="stroke: #000000; stroke-width: 0.8"/>
      </g>
     </g>
     <g id="text_6">
      <!-- 5 -->
      <g transform="translate(395.631002 322.182437) scale(0.1 -0.1)">
       <defs>
        <path id="DejaVuSans-35" d="M 691 4666 
L 3169 4666 
L 3169 4134 
L 1269 4134 
L 1269 2991 
Q 1406 3038 1543 3061 
Q 1681 3084 1819 3084 
Q 2600 3084 3056 2656 
Q 3513 2228 3513 1497 
Q 3513 744 3044 326 
Q 2575 -91 1722 -91 
Q 1428 -91 1123 -41 
Q 819 9 494 109 
L 494 744 
Q 775 591 1075 516 
Q 1375 441 1709 441 
Q 2250 441 2565 725 
Q 2881 1009 2881 1497 
Q 2881 1984 2565 2268 
Q 2250 2553 1709 2553 
Q 1456 2553 1204 2497 
Q 953 2441 691 2322 
L 691 4666 
z
" transform="scale(0.015625)"/>
       </defs>
       <use xlink:href="#DejaVuSans-35"/>
      </g>
     </g>
    </g>
    <g id="text_7">
     <!-- 1e−7 -->
     <g transform="translate(387.462188 334.860562) scale(0.1 -0.1)">
      <defs>
       <path id="DejaVuSans-65" d="M 3597 1894 
L 3597 1613 
L 953 1613 
Q 991 1019 1311 708 
Q 1631 397 2203 397 
Q 2534 397 2845 478 
Q 3156 559 3463 722 
L 3463 178 
Q 3153 47 2828 -22 
Q 2503 -91 2169 -91 
Q 1331 -91 842 396 
Q 353 884 353 1716 
Q 353 2575 817 3079 
Q 1281 3584 2069 3584 
Q 2775 3584 3186 3129 
Q 3597 2675 3597 1894 
z
M 3022 2063 
Q 3016 2534 2758 2815 
Q 2500 3097 2075 3097 
Q 1594 3097 1305 2825 
Q 1016 2553 972 2059 
L 3022 2063 
z
" transform="scale(0.015625)"/>
       <path id="DejaVuSans-2212" d="M 678 2272 
L 4684 2272 
L 4684 1741 
L 678 1741 
L 678 2272 
z
" transform="scale(0.015625)"/>
       <path id="DejaVuSans-37" d="M 525 4666 
L 3525 4666 
L 3525 4397 
L 1831 0 
L 1172 0 
L 2766 4134 
L 525 4134 
L 525 4666 
z
" transform="scale(0.015625)"/>
      </defs>
      <use xlink:href="#DejaVuSans-31"/>
      <use xlink:href="#DejaVuSans-65" transform="translate(63.623047 0)"/>
      <use xlink:href="#DejaVuSans-2212" transform="translate(125.146484 0)"/>
      <use xlink:href="#DejaVuSans-37" transform="translate(208.935547 0)"/>
     </g>
    </g>
   </g>
   <g id="matplotlib.axis_2">
    <g id="ytick_1">
     <g id="line2d_7">
      <defs>
       <path id="me7eb81c117" d="M 0 0 
L -3.5 0 
" style="stroke: #000000; stroke-width: 0.8"/>
      </defs>
      <g>
       <use xlink:href="#me7eb81c117" x="57.6" y="275.535851" style="stroke: #000000; stroke-width: 0.8"/>
      </g>
     </g>
     <g id="text_8">
      <!-- 0 -->
      <g transform="translate(44.2375 279.33507) scale(0.1 -0.1)">
       <use xlink:href="#DejaVuSans-30"/>
      </g>
     </g>
    </g>
    <g id="ytick_2">
     <g id="line2d_8">
      <g>
       <use xlink:href="#me7eb81c117" x="57.6" y="235.631517" style="stroke: #000000; stroke-width: 0.8"/>
      </g>
     </g>
     <g id="text_9">
      <!-- 10 -->
      <g transform="translate(37.875 239.430736) scale(0.1 -0.1)">
       <use xlink:href="#DejaVuSans-31"/>
       <use xlink:href="#DejaVuSans-30" transform="translate(63.623047 0)"/>
      </g>
     </g>
    </g>
    <g id="ytick_3">
     <g id="line2d_9">
      <g>
       <use xlink:href="#me7eb81c117" x="57.6" y="195.727183" style="stroke: #000000; stroke-width: 0.8"/>
      </g>
     </g>
     <g id="text_10">
      <!-- 20 -->
      <g transform="translate(37.875 199.526402) scale(0.1 -0.1)">
       <use xlink:href="#DejaVuSans-32"/>
       <use xlink:href="#DejaVuSans-30" transform="translate(63.623047 0)"/>
      </g>
     </g>
    </g>
    <g id="ytick_4">
     <g id="line2d_10">
      <g>
       <use xlink:href="#me7eb81c117" x="57.6" y="155.822849" style="stroke: #000000; stroke-width: 0.8"/>
      </g>
     </g>
     <g id="text_11">
      <!-- 30 -->
      <g transform="translate(37.875 159.622068) scale(0.1 -0.1)">
       <use xlink:href="#DejaVuSans-33"/>
       <use xlink:href="#DejaVuSans-30" transform="translate(63.623047 0)"/>
      </g>
     </g>
    </g>
    <g id="ytick_5">
     <g id="line2d_11">
      <g>
       <use xlink:href="#me7eb81c117" x="57.6" y="115.918515" style="stroke: #000000; stroke-width: 0.8"/>
      </g>
     </g>
     <g id="text_12">
      <!-- 40 -->
      <g transform="translate(37.875 119.717734) scale(0.1 -0.1)">
       <use xlink:href="#DejaVuSans-34"/>
       <use xlink:href="#DejaVuSans-30" transform="translate(63.623047 0)"/>
      </g>
     </g>
    </g>
    <g id="ytick_6">
     <g id="line2d_12">
      <g>
       <use xlink:href="#me7eb81c117" x="57.6" y="76.014181" style="stroke: #000000; stroke-width: 0.8"/>
      </g>
     </g>
     <g id="text_13">
      <!-- 50 -->
      <g transform="translate(37.875 79.8134) scale(0.1 -0.1)">
       <use xlink:href="#DejaVuSans-35"/>
       <use xlink:href="#DejaVuSans-30" transform="translate(63.623047 0)"/>
      </g>
     </g>
    </g>
   </g>
   <g id="line2d_13">
    <path d="M 73.832727 276.034656 
L 74.157707 275.28645 
L 74.482686 275.28645 
L 74.807666 275.535852 
L 75.132645 276.034656 
L 75.457625 276.284058 
L 75.782604 276.034656 
L 76.107584 275.535852 
L 76.432563 275.28645 
L 76.757543 275.535852 
L 77.082523 276.034656 
L 77.407502 275.785254 
L 77.732482 275.785254 
L 78.057461 275.535852 
L 78.382441 275.535852 
L 78.70742 276.034656 
L 79.0324 276.034656 
L 79.682359 275.535852 
L 80.007338 275.535852 
L 80.657297 276.034656 
L 80.982277 276.034656 
L 81.632236 275.535852 
L 81.957215 275.535852 
L 82.932154 276.284058 
L 83.257133 275.785254 
L 83.582113 275.785254 
L 83.907093 275.535852 
L 84.232072 276.034656 
L 84.557052 276.034656 
L 84.882031 275.785254 
L 85.207011 275.785254 
L 85.53199 275.535852 
L 85.85697 276.034656 
L 86.181949 276.034656 
L 86.506929 276.284058 
L 86.831908 276.034656 
L 87.156888 275.535852 
L 87.481867 275.785254 
L 87.806847 275.785254 
L 88.131826 276.034656 
L 88.456806 276.034656 
L 88.781785 275.785254 
L 89.431744 275.785254 
L 89.756724 275.535852 
L 90.081704 275.535852 
L 90.731663 276.034656 
L 91.056642 276.034656 
L 91.381622 275.785254 
L 91.706601 276.034656 
L 92.031581 276.034656 
L 92.35656 275.785254 
L 92.68154 276.034656 
L 93.006519 275.785254 
L 93.656478 275.785254 
L 93.981458 276.034656 
L 94.306437 275.785254 
L 94.956396 275.785254 
L 95.281376 275.535852 
L 95.606355 276.034656 
L 97.231253 276.034656 
L 97.556233 275.785254 
L 97.881212 276.284058 
L 98.206192 276.284058 
L 98.531171 276.53346 
L 98.856151 276.53346 
L 99.18113 276.284058 
L 99.50611 276.53346 
L 100.156069 276.53346 
L 100.481048 276.782862 
L 100.806028 276.53346 
L 101.455987 276.53346 
L 101.780966 276.284058 
L 102.105946 276.284058 
L 103.080885 274.787646 
L 103.405864 273.790038 
L 103.730844 273.790038 
L 104.055823 273.540636 
L 104.380803 273.790038 
L 104.705782 273.790038 
L 105.030762 273.540636 
L 105.355741 273.540636 
L 105.680721 273.291234 
L 106.0057 272.792429 
L 106.655659 270.049007 
L 107.955577 262.317543 
L 108.280557 261.319935 
L 108.605536 259.823522 
L 109.905455 256.581295 
L 110.230434 255.334285 
L 110.555414 254.835481 
L 110.880393 254.087275 
L 111.205373 253.837873 
L 111.530352 253.339069 
L 111.855332 253.339069 
L 112.180311 253.588471 
L 112.505291 253.588471 
L 112.83027 253.837873 
L 113.15525 253.837873 
L 113.480229 254.087275 
L 113.805209 254.087275 
L 115.755086 255.583687 
L 116.080066 256.082491 
L 117.379984 257.0801 
L 118.029943 256.581295 
L 118.354922 256.581295 
L 118.679902 256.830697 
L 119.004881 256.830697 
L 119.329861 256.581295 
L 119.97982 256.581295 
L 120.304799 256.331893 
L 120.629779 256.331893 
L 121.279738 255.833089 
L 121.604717 256.082491 
L 121.929697 255.583687 
L 123.554595 255.583687 
L 123.879574 255.833089 
L 124.204554 255.583687 
L 124.529533 255.833089 
L 124.854513 255.583687 
L 125.179492 255.833089 
L 125.504472 255.583687 
L 125.829451 255.583687 
L 126.154431 255.833089 
L 126.47941 255.583687 
L 126.80439 255.833089 
L 127.129369 255.583687 
L 127.779328 256.082491 
L 128.429287 256.082491 
L 128.754267 255.833089 
L 129.079247 256.082491 
L 129.404226 255.833089 
L 129.729206 256.082491 
L 130.054185 255.833089 
L 130.379165 256.082491 
L 130.704144 255.833089 
L 131.029124 255.833089 
L 131.354103 255.583687 
L 131.679083 255.583687 
L 132.004062 256.082491 
L 132.329042 255.833089 
L 132.654021 256.082491 
L 132.979001 255.833089 
L 133.30398 255.833089 
L 133.62896 256.082491 
L 133.953939 255.833089 
L 134.278919 256.082491 
L 134.603898 255.833089 
L 134.928878 256.082491 
L 135.253857 256.581295 
L 136.228796 262.566945 
L 136.553776 263.564553 
L 136.878755 265.310368 
L 137.203735 268.05379 
L 138.178673 279.526285 
L 138.503653 282.020306 
L 138.828632 283.516718 
L 139.478591 284.015522 
L 140.12855 283.516718 
L 140.45353 282.51911 
L 140.778509 280.523893 
L 141.428468 274.538244 
L 141.753448 272.792429 
L 142.078428 272.543027 
L 142.403407 273.041831 
L 142.728387 272.792429 
L 143.053366 272.293625 
L 143.378346 271.296017 
L 143.703325 271.296017 
L 144.678264 275.28645 
L 145.003243 275.28645 
L 145.328223 275.037048 
L 145.653202 275.785254 
L 146.303161 278.778079 
L 146.628141 278.279275 
L 147.2781 275.535852 
L 147.603079 275.785254 
L 147.928059 277.032264 
L 148.253038 277.531069 
L 149.227977 274.538244 
L 149.552957 274.538244 
L 149.877936 275.037048 
L 150.202916 275.28645 
L 150.852875 274.787646 
L 151.177854 275.037048 
L 151.502834 275.785254 
L 151.827813 276.034656 
L 152.477772 275.037048 
L 152.802752 275.535852 
L 153.127731 276.284058 
L 153.77769 276.782862 
L 154.10267 276.284058 
L 155.077609 275.535852 
L 155.402588 275.535852 
L 155.727568 276.034656 
L 156.052547 276.284058 
L 156.377527 276.284058 
L 156.702506 276.034656 
L 157.352465 274.787646 
L 157.677445 275.037048 
L 158.002424 276.034656 
L 158.327404 276.284058 
L 158.652383 276.034656 
L 158.977363 275.535852 
L 159.302342 275.535852 
L 159.627322 276.034656 
L 159.952301 276.034656 
L 160.277281 276.284058 
L 160.60226 275.535852 
L 160.92724 275.535852 
L 161.902179 276.284058 
L 162.552138 275.28645 
L 162.877117 275.28645 
L 163.527076 276.284058 
L 163.852056 276.53346 
L 164.502015 275.535852 
L 164.826994 275.28645 
L 165.151974 275.28645 
L 165.476953 276.284058 
L 165.801933 275.785254 
L 166.126912 275.785254 
L 166.451892 275.28645 
L 167.42683 276.034656 
L 167.75181 275.785254 
L 168.07679 275.28645 
L 168.726749 275.28645 
L 169.051728 276.284058 
L 169.376708 276.284058 
L 170.026667 275.28645 
L 170.351646 275.037048 
L 171.001605 276.034656 
L 171.326585 276.284058 
L 171.651564 275.785254 
L 172.301523 275.28645 
L 172.626503 275.535852 
L 172.951482 276.034656 
L 173.276462 275.535852 
L 173.601441 275.785254 
L 174.2514 275.785254 
L 174.90136 276.284058 
L 175.226339 275.785254 
L 175.551319 275.535852 
L 176.201278 275.535852 
L 176.526257 276.284058 
L 176.851237 275.785254 
L 177.176216 275.785254 
L 177.501196 275.535852 
L 177.826175 275.535852 
L 178.151155 275.785254 
L 178.476134 275.785254 
L 178.801114 276.034656 
L 179.126093 275.785254 
L 179.451073 275.785254 
L 179.776052 275.535852 
L 180.426011 276.034656 
L 180.750991 276.034656 
L 181.40095 275.535852 
L 181.72593 275.785254 
L 182.050909 275.785254 
L 182.375889 276.034656 
L 182.700868 275.785254 
L 183.025848 275.785254 
L 183.350827 275.535852 
L 184.000786 276.034656 
L 184.325766 276.034656 
L 184.650745 275.785254 
L 184.975725 276.034656 
L 185.300704 275.535852 
L 185.625684 275.785254 
L 185.950663 275.535852 
L 186.275643 276.034656 
L 186.600622 275.785254 
L 186.925602 276.034656 
L 187.250581 275.785254 
L 187.900541 275.785254 
L 188.22552 275.535852 
L 188.5505 275.785254 
L 189.200459 275.785254 
L 189.525438 276.034656 
L 190.175397 276.034656 
L 190.500377 275.785254 
L 190.825356 276.034656 
L 191.150336 275.785254 
L 191.475315 276.034656 
L 191.800295 275.785254 
L 192.125274 276.034656 
L 192.450254 276.034656 
L 192.775233 276.284058 
L 193.100213 276.034656 
L 193.750172 276.034656 
L 194.075152 276.284058 
L 194.400131 276.034656 
L 194.725111 276.53346 
L 195.05009 276.53346 
L 195.37507 276.782862 
L 195.700049 276.284058 
L 196.025029 276.53346 
L 196.350008 276.53346 
L 196.674988 276.782862 
L 196.999967 276.53346 
L 197.324947 276.53346 
L 198.299885 275.785254 
L 199.274824 273.790038 
L 199.599803 273.540636 
L 199.924783 273.540636 
L 200.249762 273.790038 
L 200.899722 273.790038 
L 201.224701 273.540636 
L 201.87466 272.543027 
L 202.19964 271.296017 
L 204.149517 261.070533 
L 204.799476 258.825914 
L 205.449435 257.0801 
L 206.099394 255.334285 
L 206.424373 254.835481 
L 206.749353 253.837873 
L 207.074333 253.837873 
L 207.399312 253.339069 
L 208.049271 253.339069 
L 208.374251 253.588471 
L 208.69923 253.588471 
L 209.349189 254.087275 
L 209.674169 254.087275 
L 210.324128 254.586079 
L 210.649107 255.084883 
L 210.974087 255.334285 
L 211.299066 255.334285 
L 211.624046 255.583687 
L 211.949025 255.583687 
L 212.274005 256.331893 
L 212.598984 256.331893 
L 212.923964 256.830697 
L 214.548862 256.830697 
L 214.873841 256.581295 
L 215.198821 256.830697 
L 215.5238 256.581295 
L 215.84878 256.581295 
L 216.173759 256.331893 
L 216.498739 256.331893 
L 216.823718 256.082491 
L 217.148698 255.583687 
L 217.473677 255.833089 
L 218.123636 255.833089 
L 218.448616 255.583687 
L 218.773595 255.583687 
L 219.098575 255.334285 
L 219.423554 255.583687 
L 220.723473 255.583687 
L 221.048452 255.833089 
L 221.373432 255.583687 
L 222.023391 255.583687 
L 222.34837 255.334285 
L 222.67335 255.833089 
L 222.998329 255.583687 
L 223.323309 255.833089 
L 224.298247 255.833089 
L 224.623227 256.082491 
L 224.948206 255.833089 
L 225.273186 255.833089 
L 225.598165 256.082491 
L 225.923145 255.833089 
L 226.248124 256.082491 
L 226.573104 255.833089 
L 226.898084 256.082491 
L 227.548043 255.583687 
L 227.873022 256.082491 
L 228.198002 255.833089 
L 229.49792 255.833089 
L 229.822899 255.583687 
L 230.147879 255.833089 
L 230.472858 255.833089 
L 230.797838 256.082491 
L 231.122817 256.581295 
L 232.097756 262.566945 
L 232.422735 263.564553 
L 232.747715 265.060966 
L 233.397674 271.794821 
L 234.047633 279.526285 
L 234.372613 282.020306 
L 234.697592 283.267316 
L 235.022572 283.76612 
L 235.347551 284.015522 
L 235.99751 283.516718 
L 236.32249 282.768512 
L 236.972449 277.531069 
L 237.297428 274.538244 
L 237.622408 273.041831 
L 237.947387 272.792429 
L 238.272367 273.291234 
L 238.922326 272.293625 
L 239.247305 271.545419 
L 239.572285 271.296017 
L 239.897265 272.543027 
L 240.222244 274.288842 
L 240.547224 275.037048 
L 240.872203 275.037048 
L 241.197183 274.787646 
L 241.522162 275.535852 
L 241.847142 277.531069 
L 242.172121 278.778079 
L 242.497101 278.279275 
L 243.14706 275.28645 
L 243.472039 275.785254 
L 243.797019 276.782862 
L 244.121998 277.281667 
L 244.446978 276.53346 
L 245.096937 274.288842 
L 245.746896 275.28645 
L 246.396855 274.787646 
L 246.721835 274.787646 
L 247.371794 275.785254 
L 247.696773 276.034656 
L 248.346732 275.037048 
L 248.671712 275.535852 
L 249.321671 276.782862 
L 250.296609 276.034656 
L 250.621589 276.034656 
L 251.271548 275.535852 
L 251.596527 276.034656 
L 251.921507 276.034656 
L 252.246486 276.53346 
L 253.221425 275.037048 
L 253.546405 275.037048 
L 253.871384 276.034656 
L 254.196364 276.284058 
L 255.171302 275.535852 
L 255.496282 275.535852 
L 255.821261 276.034656 
L 256.146241 276.034656 
L 256.47122 275.535852 
L 256.7962 275.535852 
L 257.121179 276.034656 
L 257.446159 276.284058 
L 258.096118 276.284058 
L 258.746077 275.037048 
L 259.396036 276.284058 
L 259.721016 276.53346 
L 260.045995 275.785254 
L 260.370975 275.535852 
L 260.695954 275.037048 
L 261.345913 276.034656 
L 262.320852 275.28645 
L 262.645831 275.535852 
L 262.970811 276.034656 
L 263.29579 276.284058 
L 263.62077 276.034656 
L 263.945749 275.535852 
L 264.270729 275.28645 
L 264.595708 275.535852 
L 264.920688 276.284058 
L 265.245667 276.284058 
L 265.570647 276.034656 
L 265.895627 275.535852 
L 266.220606 275.28645 
L 266.545586 275.535852 
L 266.870565 276.034656 
L 267.195545 276.284058 
L 268.170483 275.535852 
L 268.820442 276.034656 
L 269.470401 275.535852 
L 269.795381 275.535852 
L 270.44534 276.034656 
L 270.770319 276.034656 
L 271.095299 275.535852 
L 271.420278 275.28645 
L 271.745258 275.535852 
L 272.070238 275.535852 
L 272.395217 276.034656 
L 273.045176 276.034656 
L 273.370156 275.535852 
L 273.695135 275.535852 
L 274.020115 275.785254 
L 274.345094 275.785254 
L 274.670074 276.284058 
L 274.995053 275.785254 
L 275.320033 275.535852 
L 276.294971 275.535852 
L 276.619951 276.034656 
L 277.26991 275.535852 
L 277.919869 276.034656 
L 278.244848 276.034656 
L 278.569828 275.785254 
L 279.544767 275.785254 
L 279.869746 276.034656 
L 280.519705 276.034656 
L 280.844685 275.785254 
L 281.169664 275.785254 
L 281.494644 275.535852 
L 282.144603 276.034656 
L 282.469582 275.785254 
L 283.119541 275.785254 
L 283.444521 275.535852 
L 283.7695 276.034656 
L 284.419459 276.034656 
L 284.744439 275.785254 
L 285.069419 276.034656 
L 285.394398 275.785254 
L 285.719378 276.034656 
L 286.044357 275.785254 
L 286.694316 275.785254 
L 287.019296 276.034656 
L 287.344275 276.034656 
L 287.669255 275.785254 
L 287.994234 276.284058 
L 288.319214 276.034656 
L 288.969173 276.034656 
L 289.619132 276.53346 
L 289.944111 276.034656 
L 290.269091 276.53346 
L 291.893989 276.53346 
L 292.218968 276.284058 
L 292.868927 276.782862 
L 293.518886 276.284058 
L 293.843866 276.284058 
L 294.168845 276.034656 
L 295.143784 273.790038 
L 295.468763 274.03944 
L 295.793743 273.540636 
L 296.118722 273.790038 
L 296.768681 273.790038 
L 297.093661 273.291234 
L 297.41864 273.041831 
L 297.74362 272.543027 
L 298.0686 271.545419 
L 298.393579 270.049007 
L 299.368518 264.063357 
L 300.018477 260.82113 
L 300.343456 259.57412 
L 300.668436 259.075316 
L 300.993415 257.828306 
L 301.318395 257.329502 
L 301.968354 255.334285 
L 302.618313 254.336677 
L 302.943292 253.588471 
L 303.268272 253.339069 
L 303.593251 253.588471 
L 303.918231 253.339069 
L 304.56819 253.837873 
L 304.89317 253.837873 
L 305.218149 254.087275 
L 305.543129 254.087275 
L 305.868108 254.586079 
L 306.193088 254.586079 
L 307.168026 255.334285 
L 307.493006 255.833089 
L 308.792924 256.830697 
L 309.117903 256.830697 
L 309.442883 257.0801 
L 310.092842 257.0801 
L 310.417821 256.830697 
L 311.067781 256.830697 
L 311.39276 256.581295 
L 311.71774 256.830697 
L 312.042719 256.581295 
L 312.367699 256.581295 
L 312.692678 256.082491 
L 313.342637 256.082491 
L 314.317576 255.334285 
L 314.642555 255.833089 
L 315.292514 255.833089 
L 315.617494 255.583687 
L 315.942473 255.583687 
L 316.267453 256.082491 
L 316.592432 255.833089 
L 317.242391 255.833089 
L 317.567371 255.583687 
L 317.892351 255.833089 
L 318.21733 255.583687 
L 318.867289 255.583687 
L 319.192269 256.082491 
L 319.517248 255.583687 
L 319.842228 256.082491 
L 320.167207 255.833089 
L 320.492187 256.082491 
L 320.817166 256.082491 
L 321.142146 255.833089 
L 321.467125 256.082491 
L 321.792105 255.583687 
L 322.117084 255.833089 
L 323.741982 255.833089 
L 324.066962 256.082491 
L 324.391941 256.082491 
L 324.716921 255.833089 
L 325.0419 256.082491 
L 325.691859 256.082491 
L 326.016839 256.331893 
L 326.341818 255.583687 
L 326.991777 256.581295 
L 327.966716 262.566945 
L 328.291695 263.564553 
L 328.616675 265.310368 
L 329.266634 272.044223 
L 329.916593 279.775687 
L 330.241572 282.020306 
L 330.566552 283.267316 
L 330.891532 284.015522 
L 331.541491 284.015522 
L 331.86647 283.76612 
L 332.19145 282.51911 
L 332.841409 277.281667 
L 333.491368 272.792429 
L 333.816347 272.293625 
L 334.141327 273.041831 
L 334.466306 273.041831 
L 335.116265 271.545419 
L 335.441245 271.296017 
L 336.091204 274.538244 
L 336.416183 275.037048 
L 337.066143 275.037048 
L 337.391122 275.785254 
L 337.716102 277.531069 
L 338.041081 278.528677 
L 338.366061 278.528677 
L 338.69104 276.53346 
L 339.01602 275.535852 
L 339.340999 276.034656 
L 339.665979 277.032264 
L 339.990958 277.531069 
L 340.640917 275.28645 
L 340.965897 274.538244 
L 341.615856 275.037048 
L 341.940835 275.037048 
L 342.265815 275.28645 
L 342.590794 275.037048 
L 342.915774 275.28645 
L 343.240753 275.785254 
L 343.565733 276.034656 
L 343.890713 275.535852 
L 344.215692 275.28645 
L 344.540672 275.785254 
L 344.865651 276.034656 
L 345.190631 276.53346 
L 345.51561 276.53346 
L 346.490549 275.785254 
L 346.815528 275.785254 
L 347.140508 275.535852 
L 347.465487 276.034656 
L 348.115446 276.53346 
L 348.765405 275.28645 
L 349.090385 274.787646 
L 349.740344 275.785254 
L 350.065324 276.034656 
L 350.715283 275.535852 
L 351.040262 275.535852 
L 351.365242 276.034656 
L 352.015201 276.034656 
L 352.66516 275.535852 
L 352.990139 275.785254 
L 353.315119 276.284058 
L 353.640098 276.284058 
L 353.965078 276.034656 
L 354.290057 275.28645 
L 354.615037 275.28645 
L 355.264996 276.284058 
L 355.589975 276.53346 
L 356.239934 275.535852 
L 356.564914 275.28645 
L 356.889894 275.535852 
L 357.214873 276.284058 
L 357.539853 275.785254 
L 357.864832 275.785254 
L 358.189812 275.28645 
L 358.514791 275.535852 
L 358.839771 276.034656 
L 359.16475 276.034656 
L 359.48973 275.785254 
L 359.814709 275.28645 
L 360.139689 275.037048 
L 360.789648 276.034656 
L 361.114627 276.284058 
L 361.439607 276.034656 
L 361.764586 275.535852 
L 362.089566 275.28645 
L 362.414545 275.785254 
L 362.739525 275.785254 
L 363.064505 276.034656 
L 364.039443 275.28645 
L 364.364423 275.785254 
L 364.689402 275.785254 
L 365.014382 276.034656 
L 365.664341 275.535852 
L 366.3143 276.034656 
L 366.639279 276.034656 
L 367.289238 275.535852 
L 367.939197 275.535852 
L 368.264177 276.034656 
L 368.914136 276.034656 
L 369.239115 275.535852 
L 369.564095 275.785254 
L 369.889075 275.785254 
L 370.214054 276.034656 
L 370.539034 276.034656 
L 371.188993 275.535852 
L 371.838952 275.535852 
L 372.163931 276.034656 
L 372.488911 276.284058 
L 372.81389 276.034656 
L 373.13887 275.535852 
L 373.463849 275.785254 
L 373.788829 275.785254 
L 374.113808 276.284058 
L 374.438788 275.785254 
L 374.763767 275.535852 
L 375.413726 276.034656 
L 375.738706 276.034656 
L 376.063686 275.785254 
L 377.363604 275.785254 
L 377.688583 276.284058 
L 378.338542 275.785254 
L 378.988501 275.785254 
L 379.313481 276.034656 
L 379.96344 276.034656 
L 380.613399 275.535852 
L 380.938378 276.034656 
L 381.263358 275.785254 
L 381.588337 276.034656 
L 381.913317 276.034656 
L 382.238296 275.785254 
L 382.563276 275.785254 
L 382.888256 276.034656 
L 383.213235 276.034656 
L 383.538215 275.785254 
L 383.863194 276.284058 
L 384.188174 275.785254 
L 384.513153 276.284058 
L 384.838133 276.284058 
L 385.163112 276.034656 
L 385.488092 276.284058 
L 385.813071 276.034656 
L 386.78801 276.782862 
L 387.112989 276.53346 
L 388.087928 276.53346 
L 388.412907 276.782862 
L 388.737887 276.53346 
L 389.387846 276.53346 
L 389.712826 276.284058 
L 390.037805 275.785254 
L 390.687764 274.538244 
L 391.012744 274.03944 
L 391.337723 273.790038 
L 391.662703 273.790038 
L 391.987682 274.03944 
L 392.637641 274.03944 
L 392.962621 273.790038 
L 393.2876 273.291234 
L 393.61258 272.543027 
L 394.262539 269.799605 
L 395.562457 262.317543 
L 396.212416 259.823522 
L 396.862375 258.077708 
L 397.187355 257.329502 
L 397.512334 256.082491 
L 398.162293 254.586079 
L 398.487273 254.336677 
L 398.487273 254.336677 
" clip-path="url(#p805521588c)" style="fill: none; stroke: #1f77b4; stroke-width: 1.5; stroke-linecap: square"/>
   </g>
   <g id="line2d_14">
    <path d="M 73.832727 256.581295 
L 74.482686 256.082491 
L 74.807666 256.082491 
L 75.132645 255.833089 
L 75.457625 255.833089 
L 75.782604 255.334285 
L 76.432563 255.833089 
L 77.082523 255.833089 
L 77.732482 255.334285 
L 78.057461 255.833089 
L 78.382441 255.833089 
L 78.70742 255.583687 
L 79.682359 255.583687 
L 80.007338 255.833089 
L 80.332318 255.833089 
L 80.657297 256.082491 
L 81.307256 256.082491 
L 81.632236 255.833089 
L 81.957215 255.833089 
L 82.282195 256.082491 
L 82.607174 255.833089 
L 82.932154 256.082491 
L 83.257133 256.082491 
L 83.582113 255.833089 
L 83.907093 256.082491 
L 84.232072 256.082491 
L 84.557052 256.581295 
L 84.882031 256.331893 
L 85.207011 256.331893 
L 85.53199 256.082491 
L 85.85697 256.331893 
L 86.181949 256.331893 
L 86.506929 256.082491 
L 87.156888 256.082491 
L 87.481867 257.0801 
L 89.106765 264.811563 
L 89.431744 267.305584 
L 90.731663 282.269708 
L 91.381622 285.262533 
L 91.706601 285.761337 
L 92.031581 286.758945 
L 92.35656 286.509543 
L 92.68154 285.761337 
L 93.006519 283.516718 
L 93.981458 274.538244 
L 94.306437 273.540636 
L 94.631417 273.291234 
L 94.956396 273.291234 
L 95.606355 270.049007 
L 95.931335 269.550203 
L 96.256314 270.547811 
L 96.906274 273.291234 
L 97.231253 273.291234 
L 97.556233 273.790038 
L 97.881212 274.787646 
L 98.531171 278.279275 
L 98.856151 278.279275 
L 99.18113 277.032264 
L 99.50611 276.53346 
L 99.831089 277.780471 
L 100.156069 279.526285 
L 100.481048 279.526285 
L 100.806028 278.029873 
L 101.131007 275.785254 
L 101.455987 275.037048 
L 102.105946 276.53346 
L 102.430925 276.284058 
L 103.080885 274.03944 
L 103.405864 274.288842 
L 103.730844 275.28645 
L 104.055823 275.535852 
L 104.705782 273.790038 
L 105.030762 274.787646 
L 105.355741 276.53346 
L 105.680721 277.281667 
L 106.0057 276.284058 
L 106.33068 274.787646 
L 106.655659 274.787646 
L 107.305618 277.281667 
L 107.630598 277.531069 
L 108.280557 275.535852 
L 108.605536 275.535852 
L 108.930516 276.53346 
L 109.255495 276.782862 
L 109.905455 275.037048 
L 110.230434 275.28645 
L 110.880393 276.53346 
L 111.530352 275.037048 
L 111.855332 274.787646 
L 112.505291 276.284058 
L 112.83027 276.53346 
L 113.15525 276.034656 
L 113.480229 275.037048 
L 113.805209 275.037048 
L 114.455168 276.284058 
L 114.780147 276.284058 
L 115.105127 275.785254 
L 115.430106 275.785254 
L 116.080066 276.284058 
L 117.055004 275.535852 
L 117.379984 275.535852 
L 117.704963 275.785254 
L 118.029943 276.53346 
L 118.679902 276.034656 
L 119.004881 275.28645 
L 119.329861 275.535852 
L 119.65484 276.284058 
L 119.97982 276.284058 
L 120.629779 275.785254 
L 120.954758 275.785254 
L 121.279738 275.535852 
L 121.604717 275.785254 
L 122.904636 275.785254 
L 123.229615 276.034656 
L 123.554595 276.034656 
L 123.879574 275.785254 
L 124.204554 275.28645 
L 124.529533 275.535852 
L 124.854513 276.284058 
L 125.179492 276.284058 
L 125.504472 276.034656 
L 125.829451 276.034656 
L 126.154431 275.535852 
L 126.47941 275.535852 
L 126.80439 276.284058 
L 127.129369 276.284058 
L 127.779328 275.785254 
L 128.429287 275.785254 
L 128.754267 276.034656 
L 129.079247 276.034656 
L 129.404226 275.535852 
L 129.729206 275.785254 
L 130.054185 276.284058 
L 130.379165 276.284058 
L 131.029124 275.785254 
L 131.679083 275.785254 
L 132.004062 276.034656 
L 132.329042 276.53346 
L 132.654021 276.034656 
L 132.979001 276.034656 
L 133.30398 275.785254 
L 133.62896 275.785254 
L 133.953939 276.284058 
L 134.278919 276.53346 
L 134.603898 275.785254 
L 134.928878 275.785254 
L 135.578837 276.284058 
L 135.903817 276.034656 
L 136.228796 276.034656 
L 136.553776 275.785254 
L 136.878755 276.034656 
L 137.203735 275.785254 
L 137.528714 276.034656 
L 138.503653 276.034656 
L 138.828632 275.785254 
L 139.153612 276.034656 
L 139.478591 276.034656 
L 139.803571 275.785254 
L 140.12855 276.034656 
L 141.428468 276.034656 
L 141.753448 275.785254 
L 142.078428 275.785254 
L 142.403407 276.034656 
L 143.378346 276.034656 
L 143.703325 275.785254 
L 144.028305 276.034656 
L 144.353284 276.53346 
L 144.678264 276.284058 
L 145.003243 275.785254 
L 145.653202 276.284058 
L 146.303161 276.284058 
L 146.95312 276.782862 
L 147.2781 276.53346 
L 147.603079 276.782862 
L 147.928059 276.782862 
L 148.253038 277.032264 
L 148.578018 276.782862 
L 148.902998 276.782862 
L 149.227977 277.032264 
L 149.552957 276.782862 
L 149.877936 276.782862 
L 150.527895 276.284058 
L 150.852875 276.284058 
L 151.177854 275.535852 
L 151.502834 275.28645 
L 152.152793 274.03944 
L 152.477772 273.790038 
L 152.802752 273.790038 
L 153.127731 274.03944 
L 153.77769 274.03944 
L 154.10267 273.540636 
L 154.752629 271.296017 
L 155.402588 267.305584 
L 156.052547 262.816347 
L 156.377527 261.070533 
L 157.677445 258.077708 
L 158.002424 256.830697 
L 158.977363 254.835481 
L 159.302342 254.336677 
L 159.952301 253.089667 
L 160.277281 253.089667 
L 160.60226 253.339069 
L 160.92724 253.339069 
L 161.252219 253.837873 
L 162.227158 253.837873 
L 162.552138 254.586079 
L 162.877117 254.586079 
L 163.527076 255.084883 
L 163.852056 255.084883 
L 164.177035 255.334285 
L 164.502015 255.833089 
L 165.151974 256.331893 
L 165.476953 256.830697 
L 165.801933 257.0801 
L 166.126912 257.0801 
L 166.451892 257.329502 
L 167.101851 256.830697 
L 167.42683 256.830697 
L 167.75181 257.0801 
L 168.07679 256.581295 
L 168.401769 256.581295 
L 168.726749 256.830697 
L 169.051728 256.830697 
L 169.376708 256.581295 
L 170.026667 256.581295 
L 170.351646 256.082491 
L 170.676626 256.082491 
L 171.001605 255.583687 
L 171.326585 255.334285 
L 171.651564 255.583687 
L 171.976544 255.334285 
L 172.301523 255.583687 
L 172.626503 256.082491 
L 172.951482 256.082491 
L 173.276462 255.583687 
L 173.926421 255.583687 
L 174.2514 255.833089 
L 174.57638 255.833089 
L 175.226339 255.334285 
L 175.551319 255.583687 
L 175.876298 256.082491 
L 176.201278 255.833089 
L 176.526257 256.082491 
L 176.851237 255.833089 
L 177.501196 255.833089 
L 177.826175 256.082491 
L 178.151155 256.082491 
L 178.476134 255.833089 
L 179.451073 255.833089 
L 179.776052 256.331893 
L 181.075971 256.331893 
L 181.40095 256.082491 
L 181.72593 256.331893 
L 182.050909 256.331893 
L 182.700868 255.833089 
L 183.025848 256.082491 
L 183.350827 257.0801 
L 184.975725 264.562161 
L 185.625684 271.046615 
L 186.600622 282.020306 
L 186.925602 284.015522 
L 187.250581 285.262533 
L 187.900541 286.260141 
L 188.22552 286.509543 
L 188.5505 285.761337 
L 188.875479 283.516718 
L 189.850418 274.538244 
L 190.175397 273.790038 
L 190.500377 273.540636 
L 190.825356 273.041831 
L 191.475315 270.049007 
L 191.800295 269.300801 
L 192.775233 273.041831 
L 193.100213 273.041831 
L 193.425192 273.540636 
L 194.400131 278.029873 
L 194.725111 278.279275 
L 195.37507 276.53346 
L 195.700049 277.531069 
L 196.025029 279.027481 
L 196.350008 279.276883 
L 196.674988 278.029873 
L 196.999967 275.535852 
L 197.324947 275.037048 
L 197.649926 276.034656 
L 197.974906 276.53346 
L 198.299885 276.034656 
L 198.949844 274.03944 
L 199.274824 274.538244 
L 199.599803 275.28645 
L 199.924783 275.28645 
L 200.249762 274.288842 
L 200.574742 273.790038 
L 200.899722 274.787646 
L 201.224701 276.53346 
L 201.549681 277.032264 
L 201.87466 276.284058 
L 202.19964 274.787646 
L 202.524619 275.037048 
L 203.174578 277.531069 
L 203.499558 277.281667 
L 203.824537 276.284058 
L 204.149517 275.785254 
L 204.474496 275.785254 
L 204.799476 276.53346 
L 205.124455 276.782862 
L 205.774414 275.28645 
L 206.099394 275.28645 
L 206.424373 276.284058 
L 206.749353 276.284058 
L 207.074333 275.785254 
L 207.399312 275.037048 
L 207.724292 274.787646 
L 208.374251 276.53346 
L 208.69923 276.53346 
L 209.02421 276.034656 
L 209.349189 275.28645 
L 209.674169 275.28645 
L 209.999148 275.785254 
L 210.324128 276.53346 
L 210.649107 276.53346 
L 211.299066 275.535852 
L 211.624046 275.785254 
L 211.949025 276.284058 
L 212.274005 276.53346 
L 212.598984 275.535852 
L 212.923964 275.535852 
L 213.573923 276.034656 
L 213.898903 276.53346 
L 214.223882 276.284058 
L 214.873841 275.28645 
L 215.198821 275.28645 
L 215.5238 275.785254 
L 215.84878 276.034656 
L 216.173759 276.034656 
L 216.823718 275.535852 
L 217.473677 276.034656 
L 217.798657 276.034656 
L 218.123636 275.535852 
L 218.773595 276.034656 
L 219.098575 276.034656 
L 219.423554 275.785254 
L 219.748534 276.034656 
L 220.073514 275.535852 
L 220.398493 275.535852 
L 221.048452 276.034656 
L 221.373432 276.034656 
L 221.698411 275.785254 
L 222.34837 275.785254 
L 222.998329 276.284058 
L 223.648288 275.785254 
L 224.298247 275.785254 
L 224.623227 276.034656 
L 225.273186 276.034656 
L 225.598165 275.535852 
L 226.248124 276.034656 
L 226.573104 276.034656 
L 227.223063 275.535852 
L 227.873022 276.034656 
L 228.198002 276.034656 
L 228.522981 276.284058 
L 229.17294 275.785254 
L 229.49792 276.034656 
L 229.822899 276.034656 
L 230.147879 276.284058 
L 230.472858 276.034656 
L 232.097756 276.034656 
L 232.422735 275.785254 
L 232.747715 276.034656 
L 234.047633 276.034656 
L 234.372613 275.785254 
L 234.697592 275.785254 
L 235.022572 276.034656 
L 235.672531 276.034656 
L 235.99751 275.785254 
L 236.32249 275.785254 
L 236.647469 276.034656 
L 237.297428 276.034656 
L 237.622408 275.785254 
L 238.272367 276.284058 
L 239.572285 276.284058 
L 239.897265 276.034656 
L 240.222244 276.034656 
L 240.547224 276.284058 
L 240.872203 276.284058 
L 241.197183 276.034656 
L 241.522162 276.034656 
L 242.172121 276.53346 
L 243.14706 276.53346 
L 243.472039 276.782862 
L 243.797019 276.782862 
L 244.121998 277.032264 
L 244.771957 276.53346 
L 245.421916 277.032264 
L 245.746896 276.782862 
L 246.071876 276.782862 
L 246.396855 276.53346 
L 246.721835 276.034656 
L 247.371794 275.535852 
L 247.696773 274.538244 
L 248.021753 274.03944 
L 248.346732 273.790038 
L 248.671712 273.790038 
L 248.996691 274.03944 
L 249.64665 274.03944 
L 250.296609 272.792429 
L 250.946568 269.550203 
L 252.246486 261.070533 
L 252.571466 260.322326 
L 252.896446 260.072924 
L 254.521343 255.334285 
L 254.846323 254.835481 
L 255.496282 253.588471 
L 255.821261 253.339069 
L 256.146241 253.339069 
L 256.47122 253.089667 
L 256.7962 253.089667 
L 257.121179 253.588471 
L 257.771138 254.087275 
L 258.096118 254.087275 
L 259.396036 255.084883 
L 259.721016 255.084883 
L 260.045995 255.583687 
L 260.370975 255.833089 
L 260.695954 256.331893 
L 261.020934 256.581295 
L 261.345913 257.0801 
L 262.645831 257.0801 
L 262.970811 257.329502 
L 263.29579 257.0801 
L 263.945749 257.0801 
L 264.595708 256.581295 
L 264.920688 256.581295 
L 265.245667 256.830697 
L 266.220606 256.082491 
L 266.545586 256.331893 
L 266.870565 255.833089 
L 267.195545 255.833089 
L 267.520524 255.583687 
L 268.170483 255.583687 
L 268.495463 255.833089 
L 268.820442 255.583687 
L 269.145422 255.833089 
L 269.470401 255.833089 
L 269.795381 255.583687 
L 270.12036 255.833089 
L 270.44534 255.833089 
L 270.770319 255.583687 
L 271.420278 255.583687 
L 272.070238 256.082491 
L 272.720197 256.082491 
L 273.045176 255.833089 
L 273.370156 256.082491 
L 273.695135 255.833089 
L 274.020115 256.082491 
L 274.345094 256.082491 
L 274.995053 255.583687 
L 275.320033 256.082491 
L 275.969992 256.082491 
L 276.294971 256.331893 
L 276.619951 256.082491 
L 278.894808 256.082491 
L 279.219787 257.0801 
L 280.844685 265.060966 
L 281.169664 267.554986 
L 281.819623 275.28645 
L 282.469582 282.269708 
L 283.119541 285.262533 
L 283.7695 286.509543 
L 284.09448 286.758945 
L 284.419459 285.761337 
L 284.744439 283.516718 
L 285.719378 274.538244 
L 286.369337 273.540636 
L 286.694316 272.792429 
L 287.344275 270.298409 
L 287.669255 269.550203 
L 287.994234 270.298409 
L 288.319214 272.044223 
L 288.644193 273.041831 
L 288.969173 273.540636 
L 289.294152 273.540636 
L 289.619132 274.787646 
L 289.944111 277.032264 
L 290.269091 278.279275 
L 290.59407 278.279275 
L 290.91905 277.281667 
L 291.244029 276.782862 
L 291.569009 277.780471 
L 291.893989 279.276883 
L 292.218968 279.526285 
L 292.543948 278.029873 
L 292.868927 275.785254 
L 293.193907 275.037048 
L 293.843866 276.53346 
L 294.168845 276.284058 
L 294.493825 275.037048 
L 294.818804 274.288842 
L 295.143784 274.538244 
L 295.468763 275.535852 
L 295.793743 275.28645 
L 296.443702 274.03944 
L 296.768681 275.037048 
L 297.093661 276.53346 
L 297.41864 277.281667 
L 298.0686 275.037048 
L 298.393579 275.28645 
L 299.043538 277.531069 
L 299.368518 277.531069 
L 300.018477 275.785254 
L 300.343456 276.034656 
L 300.668436 276.782862 
L 300.993415 276.782862 
L 301.643374 275.535852 
L 301.968354 275.28645 
L 302.293333 276.034656 
L 302.618313 276.284058 
L 302.943292 276.034656 
L 303.268272 274.787646 
L 303.593251 274.787646 
L 304.56819 276.782862 
L 305.218149 275.28645 
L 305.543129 275.28645 
L 306.193088 276.53346 
L 306.843047 276.034656 
L 307.168026 275.535852 
L 307.493006 276.034656 
L 307.817985 276.284058 
L 308.142965 276.284058 
L 308.467944 276.034656 
L 308.792924 275.535852 
L 309.117903 275.535852 
L 309.767862 276.53346 
L 310.092842 276.284058 
L 310.742801 275.28645 
L 311.067781 275.535852 
L 311.39276 276.034656 
L 311.71774 276.284058 
L 312.042719 276.284058 
L 312.367699 275.785254 
L 312.692678 275.535852 
L 313.017658 275.785254 
L 313.342637 276.284058 
L 313.667617 276.034656 
L 313.992596 275.535852 
L 314.967535 276.284058 
L 315.292514 276.284058 
L 315.617494 276.034656 
L 315.942473 275.535852 
L 316.267453 275.535852 
L 316.592432 276.034656 
L 316.917412 276.284058 
L 317.242391 276.284058 
L 317.567371 275.785254 
L 317.892351 275.535852 
L 318.867289 276.284058 
L 319.192269 275.785254 
L 319.842228 275.785254 
L 320.492187 276.284058 
L 320.817166 275.785254 
L 321.467125 275.785254 
L 322.117084 276.284058 
L 323.092023 275.535852 
L 323.417002 275.785254 
L 323.741982 276.284058 
L 324.391941 275.785254 
L 324.716921 275.785254 
L 325.0419 276.034656 
L 325.36688 275.785254 
L 325.691859 276.284058 
L 326.016839 276.034656 
L 326.341818 276.034656 
L 326.666798 275.785254 
L 326.991777 275.785254 
L 327.316757 276.284058 
L 327.641736 276.284058 
L 327.966716 275.785254 
L 328.616675 275.785254 
L 328.941654 276.034656 
L 329.591613 276.034656 
L 329.916593 275.535852 
L 330.241572 275.535852 
L 330.891532 276.034656 
L 331.216511 275.785254 
L 331.541491 275.785254 
L 331.86647 276.034656 
L 332.19145 275.535852 
L 332.516429 276.034656 
L 332.841409 276.034656 
L 333.166388 275.785254 
L 333.491368 276.034656 
L 333.816347 275.785254 
L 334.141327 276.284058 
L 334.466306 276.034656 
L 334.791286 276.034656 
L 335.116265 275.785254 
L 335.441245 275.785254 
L 336.091204 276.284058 
L 336.416183 276.034656 
L 337.391122 276.034656 
L 337.716102 276.284058 
L 338.041081 276.782862 
L 338.69104 276.284058 
L 339.01602 276.53346 
L 339.340999 277.032264 
L 339.990958 276.53346 
L 340.315938 276.782862 
L 340.640917 276.53346 
L 340.965897 277.032264 
L 341.290876 276.782862 
L 341.615856 277.032264 
L 342.590794 276.284058 
L 343.240753 275.28645 
L 343.890713 273.790038 
L 344.215692 273.540636 
L 344.540672 273.790038 
L 345.190631 273.790038 
L 345.51561 274.03944 
L 345.84059 273.540636 
L 346.165569 272.792429 
L 346.815528 269.300801 
L 347.790467 262.566945 
L 348.115446 261.319935 
L 349.090385 259.075316 
L 349.415364 257.828306 
L 349.740344 257.0801 
L 350.065324 255.833089 
L 350.390303 255.334285 
L 350.715283 255.084883 
L 351.365242 253.837873 
L 351.690221 253.588471 
L 352.015201 252.840264 
L 353.640098 254.087275 
L 353.965078 254.087275 
L 354.290057 254.336677 
L 354.615037 254.336677 
L 354.940016 254.835481 
L 355.264996 254.835481 
L 355.914955 255.334285 
L 356.239934 255.833089 
L 356.564914 255.833089 
L 356.889894 256.581295 
L 357.539853 257.0801 
L 357.864832 257.0801 
L 358.189812 256.830697 
L 358.514791 256.830697 
L 358.839771 257.0801 
L 359.16475 256.830697 
L 359.814709 256.830697 
L 360.139689 257.0801 
L 360.464668 256.830697 
L 361.114627 256.830697 
L 361.439607 256.331893 
L 361.764586 256.331893 
L 362.089566 256.581295 
L 362.414545 255.833089 
L 362.739525 255.833089 
L 363.064505 255.583687 
L 363.389484 255.583687 
L 363.714464 255.334285 
L 364.364423 255.833089 
L 364.689402 255.583687 
L 365.339361 255.583687 
L 365.664341 255.833089 
L 365.98932 255.833089 
L 366.3143 255.583687 
L 366.639279 255.833089 
L 366.964259 255.583687 
L 367.614218 255.583687 
L 367.939197 256.082491 
L 369.889075 256.082491 
L 370.214054 255.833089 
L 370.539034 256.082491 
L 370.864013 255.833089 
L 371.188993 256.082491 
L 371.513972 256.082491 
L 371.838952 256.331893 
L 372.163931 256.082491 
L 372.488911 256.331893 
L 373.463849 256.331893 
L 373.788829 256.082491 
L 374.438788 256.082491 
L 374.763767 255.833089 
L 375.413726 258.576512 
L 376.063686 261.569337 
L 376.388665 262.816347 
L 376.713645 264.811563 
L 377.363604 271.046615 
L 378.013563 279.276883 
L 378.338542 282.51911 
L 378.663522 284.264924 
L 379.313481 286.260141 
L 379.96344 286.758945 
L 380.288419 285.511935 
L 380.613399 283.516718 
L 381.263358 276.782862 
L 381.588337 274.288842 
L 381.913317 273.540636 
L 382.238296 273.540636 
L 382.563276 273.041831 
L 383.213235 270.049007 
L 383.538215 269.550203 
L 384.188174 271.794821 
L 384.513153 273.041831 
L 384.838133 273.540636 
L 385.163112 273.540636 
L 385.488092 274.787646 
L 385.813071 277.032264 
L 386.138051 278.279275 
L 386.46303 278.029873 
L 386.78801 276.782862 
L 387.112989 276.782862 
L 387.762948 279.276883 
L 388.087928 279.526285 
L 388.737887 276.034656 
L 389.062867 275.037048 
L 389.387846 275.535852 
L 389.712826 276.53346 
L 390.037805 276.284058 
L 390.362785 274.787646 
L 390.687764 274.03944 
L 391.012744 274.288842 
L 391.337723 275.28645 
L 391.662703 275.28645 
L 391.987682 274.288842 
L 392.312662 274.288842 
L 392.637641 275.037048 
L 392.962621 276.53346 
L 393.2876 276.782862 
L 393.937559 275.28645 
L 394.262539 275.28645 
L 394.912498 277.531069 
L 395.237477 277.531069 
L 395.887437 275.535852 
L 396.212416 276.034656 
L 396.537396 276.782862 
L 396.862375 276.782862 
L 397.512334 275.28645 
L 397.837314 275.535852 
L 398.162293 276.284058 
L 398.487273 276.284058 
L 398.487273 276.284058 
" clip-path="url(#p805521588c)" style="fill: none; stroke: #ff7f0e; stroke-width: 1.5; stroke-linecap: square"/>
   </g>
   <g id="line2d_15">
    <path d="M 73.832727 90.978309 
L 74.157707 85.990268 
L 74.482686 83.496247 
L 74.807666 88.484289 
L 75.132645 90.978309 
L 75.457625 90.978309 
L 75.782604 78.508206 
L 76.107584 76.014186 
L 76.432563 71.026144 
L 76.757543 81.002227 
L 77.082523 83.496247 
L 77.732482 73.520165 
L 78.057461 71.026144 
L 78.382441 66.038103 
L 78.70742 68.532124 
L 79.0324 73.520165 
L 80.007338 66.038103 
L 80.332318 66.038103 
L 80.657297 71.026144 
L 80.982277 66.038103 
L 81.307256 68.532124 
L 81.632236 63.544082 
L 81.957215 66.038103 
L 82.282195 71.026144 
L 82.607174 71.026144 
L 82.932154 73.520165 
L 83.257133 71.026144 
L 83.582113 66.038103 
L 83.907093 68.532124 
L 84.232072 73.520165 
L 85.207011 81.002227 
L 85.53199 81.002227 
L 86.181949 85.990268 
L 86.506929 95.966351 
L 86.831908 98.460371 
L 87.481867 98.460371 
L 87.806847 100.954392 
L 88.456806 115.918515 
L 88.781785 113.424495 
L 89.106765 118.412536 
L 89.431744 128.388619 
L 90.081704 133.37666 
L 90.406683 143.352742 
L 90.731663 148.340784 
L 91.056642 150.834804 
L 91.381622 150.834804 
L 92.031581 168.292948 
L 93.981458 198.221196 
L 94.631417 210.691299 
L 95.281376 220.667381 
L 95.931335 233.137485 
L 96.256314 238.125526 
L 96.581294 240.619546 
L 97.881212 260.571711 
L 98.206192 263.065732 
L 98.531171 263.065732 
L 98.856151 270.547794 
L 99.18113 270.547794 
L 99.50611 275.535835 
L 100.481048 283.017897 
L 100.806028 290.499959 
L 101.455987 295.488 
L 101.780966 285.511918 
L 102.105946 290.499959 
L 102.430925 290.499959 
L 102.755905 292.993979 
L 103.080885 290.499959 
L 104.055823 290.499959 
L 104.380803 283.017897 
L 104.705782 283.017897 
L 105.030762 285.511918 
L 105.355741 280.523876 
L 105.680721 278.029856 
L 106.0057 280.523876 
L 106.33068 278.029856 
L 106.655659 278.029856 
L 106.980639 273.041814 
L 107.305618 278.029856 
L 107.630598 280.523876 
L 107.955577 280.523876 
L 108.280557 278.029856 
L 109.255495 278.029856 
L 109.580475 275.535835 
L 109.905455 275.535835 
L 110.555414 280.523876 
L 110.880393 280.523876 
L 111.205373 283.017897 
L 111.530352 283.017897 
L 112.180311 278.029856 
L 112.505291 283.017897 
L 112.83027 283.017897 
L 113.15525 285.511918 
L 113.480229 285.511918 
L 113.805209 280.523876 
L 114.130188 280.523876 
L 114.455168 283.017897 
L 114.780147 278.029856 
L 115.105127 280.523876 
L 115.755086 275.535835 
L 116.080066 275.535835 
L 116.405045 280.523876 
L 116.730025 283.017897 
L 117.055004 283.017897 
L 117.379984 278.029856 
L 117.704963 280.523876 
L 118.029943 280.523876 
L 118.354922 285.511918 
L 118.679902 283.017897 
L 119.004881 283.017897 
L 119.329861 280.523876 
L 119.65484 283.017897 
L 119.97982 278.029856 
L 120.629779 283.017897 
L 120.954758 280.523876 
L 121.929697 280.523876 
L 122.254676 283.017897 
L 122.579656 278.029856 
L 122.904636 280.523876 
L 123.229615 280.523876 
L 123.554595 283.017897 
L 123.879574 283.017897 
L 124.204554 285.511918 
L 124.529533 283.017897 
L 124.854513 283.017897 
L 125.179492 280.523876 
L 125.504472 283.017897 
L 125.829451 283.017897 
L 126.154431 280.523876 
L 126.47941 280.523876 
L 126.80439 283.017897 
L 127.129369 283.017897 
L 127.454349 285.511918 
L 127.779328 283.017897 
L 128.104308 283.017897 
L 128.429287 280.523876 
L 128.754267 280.523876 
L 129.404226 285.511918 
L 130.054185 285.511918 
L 130.704144 280.523876 
L 131.029124 285.511918 
L 131.354103 285.511918 
L 131.679083 280.523876 
L 132.004062 285.511918 
L 132.329042 283.017897 
L 132.654021 288.005938 
L 132.979001 283.017897 
L 133.30398 288.005938 
L 133.62896 283.017897 
L 134.928878 283.017897 
L 135.253857 285.511918 
L 135.578837 280.523876 
L 135.903817 278.029856 
L 136.228796 285.511918 
L 136.553776 285.511918 
L 136.878755 283.017897 
L 137.203735 283.017897 
L 137.528714 278.029856 
L 137.853694 275.535835 
L 138.178673 260.571711 
L 138.503653 255.58367 
L 139.153612 228.149443 
L 139.478591 220.667381 
L 139.803571 220.667381 
L 140.12855 228.149443 
L 140.45353 225.655423 
L 141.428468 168.292948 
L 141.753448 168.292948 
L 142.078428 173.28099 
L 142.403407 185.751093 
L 142.728387 175.77501 
L 143.378346 120.906557 
L 143.703325 113.424495 
L 144.028305 125.894598 
L 144.353284 143.352742 
L 144.678264 145.846763 
L 145.328223 93.47233 
L 145.653202 85.990268 
L 145.978182 88.484289 
L 146.303161 100.954392 
L 146.628141 105.942433 
L 146.95312 85.990268 
L 147.2781 76.014186 
L 147.603079 78.508206 
L 147.928059 85.990268 
L 148.253038 88.484289 
L 148.902998 56.062021 
L 149.227977 53.568 
L 149.552957 71.026144 
L 149.877936 81.002227 
L 150.202916 76.014186 
L 150.527895 63.544082 
L 150.852875 56.062021 
L 151.177854 53.568 
L 151.502834 56.062021 
L 151.827813 61.050062 
L 152.152793 63.544082 
L 152.477772 61.050062 
L 152.802752 63.544082 
L 153.452711 63.544082 
L 153.77769 56.062021 
L 154.427649 68.532124 
L 154.752629 73.520165 
L 155.077609 73.520165 
L 155.402588 66.038103 
L 155.727568 66.038103 
L 156.052547 71.026144 
L 156.377527 73.520165 
L 156.702506 78.508206 
L 157.027486 76.014186 
L 157.352465 76.014186 
L 157.677445 81.002227 
L 158.002424 88.484289 
L 158.327404 88.484289 
L 158.652383 85.990268 
L 158.977363 76.014186 
L 159.302342 81.002227 
L 159.627322 88.484289 
L 159.952301 100.954392 
L 160.277281 100.954392 
L 160.60226 90.978309 
L 160.92724 85.990268 
L 161.577199 95.966351 
L 161.902179 103.448412 
L 162.227158 103.448412 
L 162.552138 98.460371 
L 162.877117 95.966351 
L 163.202097 100.954392 
L 163.527076 100.954392 
L 163.852056 105.942433 
L 164.177035 98.460371 
L 164.826994 93.47233 
L 165.151974 103.448412 
L 165.476953 108.436454 
L 165.801933 105.942433 
L 166.451892 93.47233 
L 166.776871 90.978309 
L 167.101851 95.966351 
L 167.42683 105.942433 
L 167.75181 103.448412 
L 168.07679 93.47233 
L 168.401769 88.484289 
L 168.726749 90.978309 
L 169.051728 95.966351 
L 169.376708 90.978309 
L 169.701687 90.978309 
L 170.026667 83.496247 
L 170.676626 83.496247 
L 171.001605 88.484289 
L 171.651564 83.496247 
L 171.976544 73.520165 
L 172.301523 73.520165 
L 172.626503 78.508206 
L 172.951482 81.002227 
L 173.276462 78.508206 
L 173.601441 73.520165 
L 173.926421 66.038103 
L 174.2514 71.026144 
L 174.57638 68.532124 
L 174.90136 73.520165 
L 175.226339 73.520165 
L 175.551319 71.026144 
L 175.876298 66.038103 
L 176.851237 73.520165 
L 177.176216 66.038103 
L 177.826175 66.038103 
L 178.151155 71.026144 
L 178.476134 71.026144 
L 178.801114 73.520165 
L 179.126093 71.026144 
L 179.776052 71.026144 
L 180.101032 78.508206 
L 180.750991 83.496247 
L 181.40095 83.496247 
L 181.72593 85.990268 
L 182.050909 90.978309 
L 182.700868 95.966351 
L 183.025848 100.954392 
L 183.350827 100.954392 
L 183.675807 103.448412 
L 184.000786 113.424495 
L 184.325766 115.918515 
L 184.650745 120.906557 
L 184.975725 118.412536 
L 185.625684 128.388619 
L 186.275643 140.858722 
L 187.250581 155.822845 
L 187.575561 158.316866 
L 188.22552 170.786969 
L 188.5505 175.77501 
L 188.875479 178.269031 
L 189.525438 195.727175 
L 189.850418 203.209237 
L 190.175397 203.209237 
L 191.150336 223.161402 
L 191.475315 225.655423 
L 192.450254 240.619546 
L 192.775233 243.113567 
L 193.425192 258.077691 
L 194.075152 258.077691 
L 194.400131 263.065732 
L 195.05009 275.535835 
L 195.37507 275.535835 
L 195.700049 280.523876 
L 196.025029 280.523876 
L 196.350008 285.511918 
L 197.324947 292.993979 
L 197.974906 288.005938 
L 198.299885 290.499959 
L 198.624865 295.488 
L 198.949844 292.993979 
L 199.274824 288.005938 
L 199.599803 290.499959 
L 199.924783 288.005938 
L 200.249762 288.005938 
L 200.574742 280.523876 
L 200.899722 283.017897 
L 201.549681 278.029856 
L 201.87466 283.017897 
L 202.19964 283.017897 
L 202.524619 280.523876 
L 202.849599 283.017897 
L 203.174578 275.535835 
L 203.499558 278.029856 
L 204.149517 278.029856 
L 204.474496 275.535835 
L 204.799476 275.535835 
L 205.449435 280.523876 
L 205.774414 275.535835 
L 206.099394 280.523876 
L 206.424373 280.523876 
L 206.749353 285.511918 
L 207.074333 283.017897 
L 207.399312 285.511918 
L 207.724292 283.017897 
L 208.049271 285.511918 
L 208.374251 280.523876 
L 209.02421 285.511918 
L 209.674169 280.523876 
L 209.999148 280.523876 
L 210.649107 285.511918 
L 210.974087 278.029856 
L 211.299066 283.017897 
L 211.624046 278.029856 
L 211.949025 280.523876 
L 212.923964 280.523876 
L 213.248943 283.017897 
L 213.573923 278.029856 
L 213.898903 283.017897 
L 214.548862 283.017897 
L 214.873841 280.523876 
L 215.198821 285.511918 
L 215.5238 283.017897 
L 215.84878 285.511918 
L 216.173759 283.017897 
L 216.498739 285.511918 
L 216.823718 280.523876 
L 217.473677 280.523876 
L 217.798657 283.017897 
L 218.123636 280.523876 
L 218.448616 283.017897 
L 218.773595 280.523876 
L 219.098575 280.523876 
L 219.423554 283.017897 
L 220.073514 283.017897 
L 220.398493 285.511918 
L 220.723473 283.017897 
L 221.048452 285.511918 
L 221.373432 283.017897 
L 221.698411 288.005938 
L 222.023391 285.511918 
L 222.34837 288.005938 
L 222.67335 283.017897 
L 222.998329 285.511918 
L 223.323309 283.017897 
L 223.648288 285.511918 
L 223.973268 283.017897 
L 224.298247 283.017897 
L 224.623227 285.511918 
L 224.948206 283.017897 
L 225.273186 285.511918 
L 226.573104 285.511918 
L 226.898084 288.005938 
L 227.223063 285.511918 
L 227.548043 288.005938 
L 227.873022 285.511918 
L 228.198002 288.005938 
L 228.522981 285.511918 
L 228.847961 285.511918 
L 229.17294 283.017897 
L 229.822899 283.017897 
L 230.147879 285.511918 
L 230.472858 283.017897 
L 231.122817 283.017897 
L 231.447797 285.511918 
L 231.772776 283.017897 
L 232.097756 285.511918 
L 232.422735 283.017897 
L 232.747715 288.005938 
L 233.072695 285.511918 
L 233.397674 280.523876 
L 234.047633 268.053773 
L 234.372613 253.089649 
L 234.697592 245.607588 
L 235.347551 223.161402 
L 235.672531 223.161402 
L 235.99751 228.149443 
L 236.32249 225.655423 
L 236.647469 210.691299 
L 236.972449 180.763052 
L 237.297428 168.292948 
L 237.622408 165.798928 
L 238.272367 188.245113 
L 238.597346 175.77501 
L 239.247305 125.894598 
L 239.572285 108.436454 
L 240.222244 145.846763 
L 240.547224 145.846763 
L 241.197183 93.47233 
L 241.522162 85.990268 
L 241.847142 93.47233 
L 242.172121 105.942433 
L 242.497101 105.942433 
L 243.14706 76.014186 
L 243.472039 78.508206 
L 243.797019 85.990268 
L 244.121998 83.496247 
L 244.446978 73.520165 
L 244.771957 56.062021 
L 245.096937 56.062021 
L 245.746896 78.508206 
L 246.721835 56.062021 
L 247.046814 58.556041 
L 247.371794 58.556041 
L 247.696773 66.038103 
L 248.021753 63.544082 
L 248.346732 66.038103 
L 248.671712 66.038103 
L 248.996691 63.544082 
L 249.321671 58.556041 
L 249.97163 58.556041 
L 250.621589 73.520165 
L 250.946568 71.026144 
L 251.271548 66.038103 
L 251.921507 71.026144 
L 252.246486 78.508206 
L 252.571466 73.520165 
L 252.896446 76.014186 
L 253.221425 73.520165 
L 253.546405 85.990268 
L 253.871384 88.484289 
L 254.196364 88.484289 
L 254.846323 76.014186 
L 255.171302 78.508206 
L 255.496282 88.484289 
L 255.821261 105.942433 
L 256.146241 100.954392 
L 256.47122 90.978309 
L 256.7962 88.484289 
L 257.121179 88.484289 
L 257.446159 98.460371 
L 257.771138 100.954392 
L 258.096118 100.954392 
L 258.421097 95.966351 
L 258.746077 93.47233 
L 259.071057 100.954392 
L 259.396036 103.448412 
L 259.721016 103.448412 
L 260.045995 100.954392 
L 260.370975 90.978309 
L 260.695954 93.47233 
L 261.345913 105.942433 
L 261.670893 105.942433 
L 261.995872 95.966351 
L 262.320852 90.978309 
L 262.645831 95.966351 
L 262.970811 95.966351 
L 263.29579 100.954392 
L 263.62077 100.954392 
L 264.270729 90.978309 
L 264.595708 88.484289 
L 264.920688 93.47233 
L 265.245667 95.966351 
L 265.570647 85.990268 
L 265.895627 83.496247 
L 266.545586 83.496247 
L 266.870565 85.990268 
L 267.195545 85.990268 
L 267.520524 78.508206 
L 267.845504 76.014186 
L 268.170483 71.026144 
L 268.495463 78.508206 
L 268.820442 81.002227 
L 269.145422 81.002227 
L 269.795381 66.038103 
L 270.12036 66.038103 
L 270.44534 71.026144 
L 271.095299 71.026144 
L 271.420278 66.038103 
L 271.745258 63.544082 
L 272.070238 63.544082 
L 272.395217 71.026144 
L 272.720197 66.038103 
L 273.045176 66.038103 
L 273.370156 63.544082 
L 273.695135 68.532124 
L 274.020115 68.532124 
L 274.345094 73.520165 
L 274.670074 71.026144 
L 274.995053 71.026144 
L 275.320033 66.038103 
L 275.645012 71.026144 
L 276.294971 76.014186 
L 276.619951 81.002227 
L 276.94493 78.508206 
L 277.26991 78.508206 
L 278.244848 93.47233 
L 278.569828 90.978309 
L 278.894808 95.966351 
L 279.219787 98.460371 
L 279.869746 110.930474 
L 280.519705 115.918515 
L 280.844685 120.906557 
L 281.169664 118.412536 
L 281.494644 125.894598 
L 281.819623 138.364701 
L 282.144603 140.858722 
L 282.469582 145.846763 
L 282.794562 148.340784 
L 283.119541 153.328825 
L 283.444521 163.304907 
L 283.7695 165.798928 
L 284.419459 175.77501 
L 284.744439 183.257072 
L 285.069419 185.751093 
L 286.044357 208.197278 
L 286.369337 205.703258 
L 287.019296 223.161402 
L 287.344275 223.161402 
L 287.994234 235.631505 
L 288.644193 245.607588 
L 288.969173 248.101608 
L 289.294152 255.58367 
L 289.619132 258.077691 
L 289.944111 263.065732 
L 290.269091 265.559753 
L 290.91905 275.535835 
L 291.244029 283.017897 
L 291.569009 280.523876 
L 291.893989 280.523876 
L 292.218968 285.511918 
L 293.193907 292.993979 
L 293.518886 290.499959 
L 293.843866 290.499959 
L 294.168845 288.005938 
L 294.493825 290.499959 
L 294.818804 288.005938 
L 295.468763 288.005938 
L 296.118722 283.017897 
L 296.443702 285.511918 
L 296.768681 278.029856 
L 297.41864 283.017897 
L 297.74362 280.523876 
L 298.0686 275.535835 
L 298.393579 278.029856 
L 299.043538 278.029856 
L 299.368518 275.535835 
L 299.693497 280.523876 
L 300.343456 275.535835 
L 300.993415 275.535835 
L 301.643374 280.523876 
L 301.968354 275.535835 
L 302.293333 280.523876 
L 302.618313 283.017897 
L 302.943292 283.017897 
L 303.268272 280.523876 
L 303.593251 280.523876 
L 303.918231 283.017897 
L 304.24321 283.017897 
L 304.56819 280.523876 
L 304.89317 285.511918 
L 305.218149 283.017897 
L 305.543129 283.017897 
L 305.868108 280.523876 
L 306.193088 283.017897 
L 306.518067 283.017897 
L 306.843047 285.511918 
L 307.168026 278.029856 
L 307.493006 278.029856 
L 307.817985 275.535835 
L 308.142965 278.029856 
L 308.467944 278.029856 
L 308.792924 283.017897 
L 309.117903 283.017897 
L 309.442883 280.523876 
L 309.767862 280.523876 
L 310.092842 285.511918 
L 310.417821 283.017897 
L 310.742801 288.005938 
L 311.067781 283.017897 
L 311.39276 283.017897 
L 312.042719 288.005938 
L 312.367699 280.523876 
L 312.692678 280.523876 
L 313.017658 278.029856 
L 313.342637 280.523876 
L 314.317576 280.523876 
L 314.642555 283.017897 
L 314.967535 278.029856 
L 315.292514 283.017897 
L 315.617494 283.017897 
L 315.942473 285.511918 
L 316.592432 280.523876 
L 317.242391 285.511918 
L 317.567371 280.523876 
L 317.892351 280.523876 
L 318.54231 285.511918 
L 318.867289 283.017897 
L 319.192269 285.511918 
L 319.517248 285.511918 
L 319.842228 280.523876 
L 320.167207 278.029856 
L 320.492187 283.017897 
L 320.817166 283.017897 
L 321.142146 280.523876 
L 321.467125 283.017897 
L 321.792105 283.017897 
L 322.117084 285.511918 
L 322.442064 290.499959 
L 322.767043 285.511918 
L 323.092023 283.017897 
L 323.417002 285.511918 
L 323.741982 283.017897 
L 324.391941 288.005938 
L 324.716921 288.005938 
L 325.0419 290.499959 
L 325.36688 280.523876 
L 325.691859 283.017897 
L 326.016839 283.017897 
L 326.341818 285.511918 
L 327.641736 285.511918 
L 327.966716 283.017897 
L 328.941654 283.017897 
L 329.266634 280.523876 
L 329.591613 275.535835 
L 330.566552 243.113567 
L 331.216511 220.667381 
L 331.541491 225.655423 
L 331.86647 228.149443 
L 332.19145 223.161402 
L 333.166388 165.798928 
L 333.491368 165.798928 
L 334.141327 183.257072 
L 334.466306 175.77501 
L 335.116265 120.906557 
L 335.441245 113.424495 
L 335.766224 123.400577 
L 336.091204 143.352742 
L 336.416183 143.352742 
L 336.741163 125.894598 
L 337.066143 98.460371 
L 337.391122 85.990268 
L 337.716102 93.47233 
L 338.041081 105.942433 
L 338.366061 98.460371 
L 339.01602 73.520165 
L 339.340999 76.014186 
L 339.665979 83.496247 
L 339.990958 83.496247 
L 340.640917 58.556041 
L 340.965897 56.062021 
L 341.290876 71.026144 
L 341.615856 78.508206 
L 341.940835 76.014186 
L 342.590794 53.568 
L 342.915774 53.568 
L 343.240753 63.544082 
L 343.565733 61.050062 
L 344.215692 66.038103 
L 344.540672 63.544082 
L 344.865651 63.544082 
L 345.51561 58.556041 
L 345.84059 63.544082 
L 346.165569 66.038103 
L 346.490549 73.520165 
L 346.815528 71.026144 
L 347.465487 71.026144 
L 347.790467 73.520165 
L 348.115446 78.508206 
L 348.440426 78.508206 
L 348.765405 76.014186 
L 349.090385 76.014186 
L 349.740344 88.484289 
L 350.390303 83.496247 
L 350.715283 76.014186 
L 351.040262 81.002227 
L 351.365242 88.484289 
L 351.690221 100.954392 
L 352.015201 98.460371 
L 352.66516 88.484289 
L 352.990139 88.484289 
L 353.640098 103.448412 
L 353.965078 100.954392 
L 354.290057 95.966351 
L 354.615037 95.966351 
L 354.940016 98.460371 
L 355.264996 103.448412 
L 355.589975 105.942433 
L 356.239934 93.47233 
L 356.564914 90.978309 
L 356.889894 100.954392 
L 357.214873 105.942433 
L 357.539853 105.942433 
L 358.189812 88.484289 
L 358.514791 90.978309 
L 358.839771 98.460371 
L 359.16475 100.954392 
L 359.48973 98.460371 
L 359.814709 93.47233 
L 360.139689 85.990268 
L 360.464668 85.990268 
L 360.789648 93.47233 
L 361.114627 93.47233 
L 361.439607 90.978309 
L 361.764586 81.002227 
L 362.739525 88.484289 
L 363.064505 88.484289 
L 363.714464 76.014186 
L 364.039443 76.014186 
L 364.364423 78.508206 
L 364.689402 83.496247 
L 365.664341 68.532124 
L 365.98932 68.532124 
L 366.3143 71.026144 
L 366.639279 76.014186 
L 366.964259 71.026144 
L 367.289238 68.532124 
L 367.614218 63.544082 
L 368.264177 68.532124 
L 368.589156 68.532124 
L 368.914136 71.026144 
L 369.239115 66.038103 
L 369.564095 63.544082 
L 369.889075 68.532124 
L 370.214054 71.026144 
L 370.539034 71.026144 
L 370.864013 66.038103 
L 371.513972 71.026144 
L 371.838952 76.014186 
L 372.488911 81.002227 
L 372.81389 78.508206 
L 374.113808 88.484289 
L 374.438788 95.966351 
L 374.763767 95.966351 
L 375.413726 105.942433 
L 375.738706 108.436454 
L 376.388665 120.906557 
L 376.713645 120.906557 
L 377.038624 125.894598 
L 377.363604 128.388619 
L 377.688583 138.364701 
L 378.013563 143.352742 
L 378.338542 145.846763 
L 378.663522 150.834804 
L 378.988501 153.328825 
L 379.63846 165.798928 
L 380.288419 175.77501 
L 380.613399 183.257072 
L 380.938378 185.751093 
L 381.913317 205.703258 
L 383.213235 225.655423 
L 383.538215 233.137485 
L 383.863194 235.631505 
L 384.513153 245.607588 
L 384.838133 253.089649 
L 385.163112 253.089649 
L 385.813071 263.065732 
L 386.138051 265.559753 
L 386.46303 270.547794 
L 386.78801 278.029856 
L 387.112989 278.029856 
L 387.437969 280.523876 
L 387.762948 278.029856 
L 388.087928 283.017897 
L 388.412907 285.511918 
L 388.737887 292.993979 
L 389.062867 292.993979 
L 389.387846 290.499959 
L 389.712826 290.499959 
L 390.037805 295.488 
L 390.362785 290.499959 
L 390.687764 290.499959 
L 391.012744 292.993979 
L 391.662703 288.005938 
L 392.312662 288.005938 
L 392.637641 285.511918 
L 392.962621 278.029856 
L 393.2876 280.523876 
L 393.61258 278.029856 
L 393.937559 278.029856 
L 394.262539 275.535835 
L 395.237477 283.017897 
L 395.562457 278.029856 
L 395.887437 278.029856 
L 396.212416 283.017897 
L 396.537396 280.523876 
L 396.862375 275.535835 
L 397.187355 278.029856 
L 397.512334 278.029856 
L 397.837314 280.523876 
L 398.162293 280.523876 
L 398.487273 283.017897 
L 398.487273 283.017897 
" clip-path="url(#p805521588c)" style="fill: none; stroke: #2ca02c; stroke-width: 1.5; stroke-linecap: square"/>
   </g>
   <g id="patch_3">
    <path d="M 57.6 307.584 
L 57.6 41.472 
" style="fill: none; stroke: #000000; stroke-width: 0.8; stroke-linejoin: miter; stroke-linecap: square"/>
   </g>
   <g id="patch_4">
    <path d="M 414.72 307.584 
L 414.72 41.472 
" style="fill: none; stroke: #000000; stroke-width: 0.8; stroke-linejoin: miter; stroke-linecap: square"/>
   </g>
   <g id="patch_5">
    <path d="M 57.6 307.584 
L 414.72 307.584 
" style="fill: none; stroke: #000000; stroke-width: 0.8; stroke-linejoin: miter; stroke-linecap: square"/>
   </g>
   <g id="patch_6">
    <path d="M 57.6 41.472 
L 414.72 41.472 
" style="fill: none; stroke: #000000; stroke-width: 0.8; stroke-linejoin: miter; stroke-linecap: square"/>
   </g>
  </g>
 </g>
 <defs>
  <clipPath id="p805521588c">
   <rect x="57.6" y="41.472" width="357.12" height="266.112"/>
  </clipPath>
 </defs>
</svg>
