<?xml version="1.0" encoding="utf-8" standalone="no"?>
<!DOCTYPE svg PUBLIC "-//W3C//DTD SVG 1.1//EN"
  "http://www.w3.org/Graphics/SVG/1.1/DTD/svg11.dtd">
<svg xmlns:xlink="http://www.w3.org/1999/xlink" width="460.8pt" height="345.6pt" viewBox="0 0 460.8 345.6" xmlns="http://www.w3.org/2000/svg" version="1.1">
 <metadata>
  <rdf:RDF xmlns:dc="http://purl.org/dc/elements/1.1/" xmlns:cc="http://creativecommons.org/ns#" xmlns:rdf="http://www.w3.org/1999/02/22-rdf-syntax-ns#">
   <cc:Work>
    <dc:type rdf:resource="http://purl.org/dc/dcmitype/StillImage"/>
    <dc:date>2025-12-26T04:13:37.487839</dc:date>
    <dc:format>image/svg+xml</dc:format>
    <dc:creator>
     <cc:Agent>
      <dc:title>Matplotlib v3.10.8, https://matplotlib.org/</dc:title>
     </cc:Agent>
    </dc:creator>
   </cc:Work>
  </rdf:RDF>
 </metadata>
 <defs>
  <style type="text/css">*{stroke-linejoin: round; stroke-linecap: butt}</style>
 </defs>
 <g id="figure_1">
  <g id="patch_1">
   <path d="M 0 345.6 
L 460.8 345.6 
L 460.8 0 
L 0 0 
z
" style="fill: #ffffff"/>
  </g>
  <g id="axes_1">
   <g id="patch_2">
    <path d="M 57.6 307.584 
L 414.72 307.584 
L 414.72 41.472 
L 57.6 41.472 
z
" style="fill: #ffffff"/>
   </g>
   <g id="matplotlib.axis_1">
    <g id="xtick_1">
     <g id="line2d_1">
      <defs>
       <path id="m1323b23976" d="M 0 0 
L 0 3.5 
" style="stroke: #000000; stroke-width: 0.8"/>
      </defs>
      <g>
       <use xlink:href="#m1323b23976" x="73.832727" y="307.584" style="stroke: #000000; stroke-width: 0.8"/>
      </g>
     </g>
     <g id="text_1">
      <!-- 0 -->
      <g transform="translate(70.651477 322.182437) scale(0.1 -0.1)">
       <defs>
        <path id="DejaVuSans-30" d="M 2034 4250 
Q 1547 4250 1301 3770 
Q 1056 3291 1056 2328 
Q 1056 1369 1301 889 
Q 1547 409 2034 409 
Q 2525 409 2770 889 
Q 3016 1369 3016 2328 
Q 3016 3291 2770 3770 
Q 2525 4250 2034 4250 
z
M 2034 4750 
Q 2819 4750 3233 4129 
Q 3647 3509 3647 2328 
Q 3647 1150 3233 529 
Q 2819 -91 2034 -91 
Q 1250 -91 836 529 
Q 422 1150 422 2328 
Q 422 3509 836 4129 
Q 1250 4750 2034 4750 
z
" transform="scale(0.015625)"/>
       </defs>
       <use xlink:href="#DejaVuSans-30"/>
      </g>
     </g>
    </g>
    <g id="xtick_2">
     <g id="line2d_2">
      <g>
       <use xlink:href="#m1323b23976" x="138.828632" y="307.584" style="stroke: #000000; stroke-width: 0.8"/>
      </g>
     </g>
     <g id="text_2">
      <!-- 1 -->
      <g transform="translate(135.647382 322.182437) scale(0.1 -0.1)">
       <defs>
        <path id="DejaVuSans-31" d="M 794 531 
L 1825 531 
L 1825 4091 
L 703 3866 
L 703 4441 
L 1819 4666 
L 2450 4666 
L 2450 531 
L 3481 531 
L 3481 0 
L 794 0 
L 794 531 
z
" transform="scale(0.015625)"/>
       </defs>
       <use xlink:href="#DejaVuSans-31"/>
      </g>
     </g>
    </g>
    <g id="xtick_3">
     <g id="line2d_3">
      <g>
       <use xlink:href="#m1323b23976" x="203.824537" y="307.584" style="stroke: #000000; stroke-width: 0.8"/>
      </g>
     </g>
     <g id="text_3">
      <!-- 2 -->
      <g transform="translate(200.643287 322.182437) scale(0.1 -0.1)">
       <defs>
        <path id="DejaVuSans-32" d="M 1228 531 
L 3431 531 
L 3431 0 
L 469 0 
L 469 531 
Q 828 903 1448 1529 
Q 2069 2156 2228 2338 
Q 2531 2678 2651 2914 
Q 2772 3150 2772 3378 
Q 2772 3750 2511 3984 
Q 2250 4219 1831 4219 
Q 1534 4219 1204 4116 
Q 875 4013 500 3803 
L 500 4441 
Q 881 4594 1212 4672 
Q 1544 4750 1819 4750 
Q 2544 4750 2975 4387 
Q 3406 4025 3406 3419 
Q 3406 3131 3298 2873 
Q 3191 2616 2906 2266 
Q 2828 2175 2409 1742 
Q 1991 1309 1228 531 
z
" transform="scale(0.015625)"/>
       </defs>
       <use xlink:href="#DejaVuSans-32"/>
      </g>
     </g>
    </g>
    <g id="xtick_4">
     <g id="line2d_4">
      <g>
       <use xlink:href="#m1323b23976" x="268.820442" y="307.584" style="stroke: #000000; stroke-width: 0.8"/>
      </g>
     </g>
     <g id="text_4">
      <!-- 3 -->
      <g transform="translate(265.639192 322.182437) scale(0.1 -0.1)">
       <defs>
        <path id="DejaVuSans-33" d="M 2597 2516 
Q 3050 2419 3304 2112 
Q 3559 1806 3559 1356 
Q 3559 666 3084 287 
Q 2609 -91 1734 -91 
Q 1441 -91 1130 -33 
Q 819 25 488 141 
L 488 750 
Q 750 597 1062 519 
Q 1375 441 1716 441 
Q 2309 441 2620 675 
Q 2931 909 2931 1356 
Q 2931 1769 2642 2001 
Q 2353 2234 1838 2234 
L 1294 2234 
L 1294 2753 
L 1863 2753 
Q 2328 2753 2575 2939 
Q 2822 3125 2822 3475 
Q 2822 3834 2567 4026 
Q 2313 4219 1838 4219 
Q 1578 4219 1281 4162 
Q 984 4106 628 3988 
L 628 4550 
Q 988 4650 1302 4700 
Q 1616 4750 1894 4750 
Q 2613 4750 3031 4423 
Q 3450 4097 3450 3541 
Q 3450 3153 3228 2886 
Q 3006 2619 2597 2516 
z
" transform="scale(0.015625)"/>
       </defs>
       <use xlink:href="#DejaVuSans-33"/>
      </g>
     </g>
    </g>
    <g id="xtick_5">
     <g id="line2d_5">
      <g>
       <use xlink:href="#m1323b23976" x="333.816347" y="307.584" style="stroke: #000000; stroke-width: 0.8"/>
      </g>
     </g>
     <g id="text_5">
      <!-- 4 -->
      <g transform="translate(330.635097 322.182437) scale(0.1 -0.1)">
       <defs>
        <path id="DejaVuSans-34" d="M 2419 4116 
L 825 1625 
L 2419 1625 
L 2419 4116 
z
M 2253 4666 
L 3047 4666 
L 3047 1625 
L 3713 1625 
L 3713 1100 
L 3047 1100 
L 3047 0 
L 2419 0 
L 2419 1100 
L 313 1100 
L 313 1709 
L 2253 4666 
z
" transform="scale(0.015625)"/>
       </defs>
       <use xlink:href="#DejaVuSans-34"/>
      </g>
     </g>
    </g>
    <g id="xtick_6">
     <g id="line2d_6">
      <g>
       <use xlink:href="#m1323b23976" x="398.812252" y="307.584" style="stroke: #000000; stroke-width: 0.8"/>
      </g>
     </g>
     <g id="text_6">
      <!-- 5 -->
      <g transform="translate(395.631002 322.182437) scale(0.1 -0.1)">
       <defs>
        <path id="DejaVuSans-35" d="M 691 4666 
L 3169 4666 
L 3169 4134 
L 1269 4134 
L 1269 2991 
Q 1406 3038 1543 3061 
Q 1681 3084 1819 3084 
Q 2600 3084 3056 2656 
Q 3513 2228 3513 1497 
Q 3513 744 3044 326 
Q 2575 -91 1722 -91 
Q 1428 -91 1123 -41 
Q 819 9 494 109 
L 494 744 
Q 775 591 1075 516 
Q 1375 441 1709 441 
Q 2250 441 2565 725 
Q 2881 1009 2881 1497 
Q 2881 1984 2565 2268 
Q 2250 2553 1709 2553 
Q 1456 2553 1204 2497 
Q 953 2441 691 2322 
L 691 4666 
z
" transform="scale(0.015625)"/>
       </defs>
       <use xlink:href="#DejaVuSans-35"/>
      </g>
     </g>
    </g>
    <g id="text_7">
     <!-- 1e−7 -->
     <g transform="translate(387.462188 334.860562) scale(0.1 -0.1)">
      <defs>
       <path id="DejaVuSans-65" d="M 3597 1894 
L 3597 1613 
L 953 1613 
Q 991 1019 1311 708 
Q 1631 397 2203 397 
Q 2534 397 2845 478 
Q 3156 559 3463 722 
L 3463 178 
Q 3153 47 2828 -22 
Q 2503 -91 2169 -91 
Q 1331 -91 842 396 
Q 353 884 353 1716 
Q 353 2575 817 3079 
Q 1281 3584 2069 3584 
Q 2775 3584 3186 3129 
Q 3597 2675 3597 1894 
z
M 3022 2063 
Q 3016 2534 2758 2815 
Q 2500 3097 2075 3097 
Q 1594 3097 1305 2825 
Q 1016 2553 972 2059 
L 3022 2063 
z
" transform="scale(0.015625)"/>
       <path id="DejaVuSans-2212" d="M 678 2272 
L 4684 2272 
L 4684 1741 
L 678 1741 
L 678 2272 
z
" transform="scale(0.015625)"/>
       <path id="DejaVuSans-37" d="M 525 4666 
L 3525 4666 
L 3525 4397 
L 1831 0 
L 1172 0 
L 2766 4134 
L 525 4134 
L 525 4666 
z
" transform="scale(0.015625)"/>
      </defs>
      <use xlink:href="#DejaVuSans-31"/>
      <use xlink:href="#DejaVuSans-65" transform="translate(63.623047 0)"/>
      <use xlink:href="#DejaVuSans-2212" transform="translate(125.146484 0)"/>
      <use xlink:href="#DejaVuSans-37" transform="translate(208.935547 0)"/>
     </g>
    </g>
   </g>
   <g id="matplotlib.axis_2">
    <g id="ytick_1">
     <g id="line2d_7">
      <defs>
       <path id="md0234b147c" d="M 0 0 
L -3.5 0 
" style="stroke: #000000; stroke-width: 0.8"/>
      </defs>
      <g>
       <use xlink:href="#md0234b147c" x="57.6" y="277.848017" style="stroke: #000000; stroke-width: 0.8"/>
      </g>
     </g>
     <g id="text_8">
      <!-- 0 -->
      <g transform="translate(44.2375 281.647235) scale(0.1 -0.1)">
       <use xlink:href="#DejaVuSans-30"/>
      </g>
     </g>
    </g>
    <g id="ytick_2">
     <g id="line2d_8">
      <g>
       <use xlink:href="#md0234b147c" x="57.6" y="237.528012" style="stroke: #000000; stroke-width: 0.8"/>
      </g>
     </g>
     <g id="text_9">
      <!-- 10 -->
      <g transform="translate(37.875 241.327231) scale(0.1 -0.1)">
       <use xlink:href="#DejaVuSans-31"/>
       <use xlink:href="#DejaVuSans-30" transform="translate(63.623047 0)"/>
      </g>
     </g>
    </g>
    <g id="ytick_3">
     <g id="line2d_9">
      <g>
       <use xlink:href="#md0234b147c" x="57.6" y="197.208008" style="stroke: #000000; stroke-width: 0.8"/>
      </g>
     </g>
     <g id="text_10">
      <!-- 20 -->
      <g transform="translate(37.875 201.007227) scale(0.1 -0.1)">
       <use xlink:href="#DejaVuSans-32"/>
       <use xlink:href="#DejaVuSans-30" transform="translate(63.623047 0)"/>
      </g>
     </g>
    </g>
    <g id="ytick_4">
     <g id="line2d_10">
      <g>
       <use xlink:href="#md0234b147c" x="57.6" y="156.888004" style="stroke: #000000; stroke-width: 0.8"/>
      </g>
     </g>
     <g id="text_11">
      <!-- 30 -->
      <g transform="translate(37.875 160.687223) scale(0.1 -0.1)">
       <use xlink:href="#DejaVuSans-33"/>
       <use xlink:href="#DejaVuSans-30" transform="translate(63.623047 0)"/>
      </g>
     </g>
    </g>
    <g id="ytick_5">
     <g id="line2d_11">
      <g>
       <use xlink:href="#md0234b147c" x="57.6" y="116.568" style="stroke: #000000; stroke-width: 0.8"/>
      </g>
     </g>
     <g id="text_12">
      <!-- 40 -->
      <g transform="translate(37.875 120.367219) scale(0.1 -0.1)">
       <use xlink:href="#DejaVuSans-34"/>
       <use xlink:href="#DejaVuSans-30" transform="translate(63.623047 0)"/>
      </g>
     </g>
    </g>
    <g id="ytick_6">
     <g id="line2d_12">
      <g>
       <use xlink:href="#md0234b147c" x="57.6" y="76.247996" style="stroke: #000000; stroke-width: 0.8"/>
      </g>
     </g>
     <g id="text_13">
      <!-- 50 -->
      <g transform="translate(37.875 80.047215) scale(0.1 -0.1)">
       <use xlink:href="#DejaVuSans-35"/>
       <use xlink:href="#DejaVuSans-30" transform="translate(63.623047 0)"/>
      </g>
     </g>
    </g>
   </g>
   <g id="line2d_13">
    <path d="M 73.832727 278.100017 
L 74.157707 277.596017 
L 74.482686 277.596017 
L 74.807666 278.100017 
L 75.132645 278.352017 
L 75.457625 278.352017 
L 76.432563 277.596017 
L 76.757543 278.352017 
L 77.407502 278.352017 
L 78.057461 277.848017 
L 78.70742 278.352017 
L 79.0324 278.352017 
L 79.682359 277.848017 
L 80.007338 278.100017 
L 80.332318 278.100017 
L 80.657297 278.604017 
L 80.982277 278.352017 
L 81.307256 278.352017 
L 81.632236 277.848017 
L 81.957215 277.848017 
L 82.607174 278.352017 
L 83.257133 278.352017 
L 83.582113 277.848017 
L 84.232072 278.352017 
L 84.557052 278.100017 
L 85.85697 278.100017 
L 86.181949 278.352017 
L 86.506929 278.352017 
L 86.831908 278.100017 
L 87.156888 278.100017 
L 87.481867 277.848017 
L 87.806847 278.100017 
L 88.131826 278.100017 
L 88.456806 278.352017 
L 89.106765 278.352017 
L 89.431744 277.848017 
L 90.081704 277.848017 
L 90.406683 278.352017 
L 90.731663 278.352017 
L 91.381622 277.848017 
L 91.706601 278.100017 
L 92.031581 277.848017 
L 92.35656 278.352017 
L 92.68154 278.100017 
L 93.006519 278.100017 
L 93.331499 277.848017 
L 93.656478 278.100017 
L 93.981458 278.100017 
L 94.306437 278.352017 
L 94.631417 278.100017 
L 94.956396 278.352017 
L 95.281376 278.100017 
L 95.606355 278.604017 
L 95.931335 278.352017 
L 96.581294 278.352017 
L 96.906274 278.604017 
L 97.231253 278.100017 
L 97.556233 278.604017 
L 98.856151 278.604017 
L 99.18113 278.856017 
L 99.831089 278.856017 
L 100.156069 278.352017 
L 100.481048 278.604017 
L 100.806028 278.604017 
L 101.131007 278.856017 
L 101.455987 278.352017 
L 101.780966 278.352017 
L 102.105946 278.604017 
L 102.430925 278.100017 
L 102.755905 278.352017 
L 103.080885 277.848017 
L 103.730844 277.344017 
L 104.055823 277.344017 
L 104.380803 277.092017 
L 105.030762 277.092017 
L 105.680721 276.588017 
L 106.0057 276.084017 
L 106.33068 274.824017 
L 108.280557 262.980017 
L 108.930516 260.964017 
L 109.255495 260.460017 
L 110.230434 257.436017 
L 110.555414 256.932017 
L 110.880393 256.680017 
L 111.530352 255.672017 
L 111.855332 255.672017 
L 112.180311 255.420017 
L 112.83027 255.420017 
L 113.15525 255.924017 
L 113.805209 255.924017 
L 114.130188 256.428017 
L 115.430106 257.436017 
L 116.080066 258.444017 
L 116.405045 258.444017 
L 116.730025 258.948017 
L 117.055004 258.948017 
L 117.379984 258.696017 
L 117.704963 258.948017 
L 118.029943 258.696017 
L 118.354922 258.948017 
L 118.679902 258.696017 
L 119.004881 258.948017 
L 119.329861 258.696017 
L 119.65484 258.696017 
L 119.97982 258.444017 
L 120.304799 258.444017 
L 120.629779 258.192017 
L 121.279738 258.192017 
L 121.604717 257.940017 
L 122.254676 257.940017 
L 122.579656 257.688017 
L 122.904636 257.688017 
L 123.229615 257.436017 
L 123.554595 257.940017 
L 124.204554 257.436017 
L 125.179492 257.436017 
L 125.504472 257.688017 
L 126.154431 257.688017 
L 126.47941 257.940017 
L 126.80439 257.688017 
L 127.129369 257.940017 
L 127.779328 257.940017 
L 128.104308 258.192017 
L 128.429287 257.688017 
L 128.754267 258.444017 
L 129.079247 257.688017 
L 129.404226 258.192017 
L 130.054185 257.688017 
L 130.379165 257.940017 
L 131.029124 257.940017 
L 131.354103 257.688017 
L 131.679083 258.192017 
L 132.004062 257.940017 
L 132.329042 258.192017 
L 132.654021 258.192017 
L 132.979001 257.940017 
L 133.30398 258.192017 
L 133.62896 257.688017 
L 133.953939 258.192017 
L 134.278919 257.940017 
L 134.928878 257.940017 
L 135.253857 258.696017 
L 136.228796 264.744017 
L 136.553776 265.500017 
L 136.878755 267.516017 
L 137.528714 274.824017 
L 138.178673 282.384017 
L 138.503653 284.652017 
L 139.153612 286.416017 
L 139.478591 286.164017 
L 139.803571 286.164017 
L 140.12855 285.912017 
L 140.45353 285.156017 
L 141.103489 279.360017 
L 141.428468 276.588017 
L 141.753448 275.076017 
L 142.078428 274.824017 
L 142.403407 275.328017 
L 142.728387 275.076017 
L 143.053366 274.572017 
L 143.378346 273.564017 
L 143.703325 273.816017 
L 144.028305 275.076017 
L 144.353284 276.840017 
L 144.678264 277.596017 
L 145.328223 277.092017 
L 145.653202 278.100017 
L 145.978182 280.116017 
L 146.303161 281.124017 
L 146.628141 280.368017 
L 146.95312 278.604017 
L 147.2781 277.848017 
L 147.603079 278.100017 
L 147.928059 279.360017 
L 148.253038 279.864017 
L 148.902998 277.344017 
L 149.227977 276.588017 
L 149.552957 277.344017 
L 149.877936 277.596017 
L 150.202916 277.596017 
L 150.527895 277.092017 
L 150.852875 277.092017 
L 151.177854 277.344017 
L 151.502834 277.848017 
L 151.827813 278.100017 
L 152.477772 277.596017 
L 152.802752 277.848017 
L 153.452711 278.856017 
L 153.77769 278.856017 
L 154.427649 278.352017 
L 154.752629 278.604017 
L 155.077609 278.100017 
L 155.727568 278.100017 
L 156.052547 278.604017 
L 156.377527 278.604017 
L 157.027486 277.596017 
L 157.352465 277.344017 
L 157.677445 277.596017 
L 158.002424 278.352017 
L 158.652383 278.352017 
L 158.977363 277.848017 
L 159.302342 278.100017 
L 159.627322 277.848017 
L 159.952301 278.352017 
L 160.277281 278.100017 
L 160.60226 278.100017 
L 160.92724 277.848017 
L 161.252219 278.100017 
L 161.577199 278.604017 
L 162.227158 278.100017 
L 162.552138 277.344017 
L 162.877117 277.596017 
L 163.202097 278.100017 
L 163.527076 278.856017 
L 163.852056 278.856017 
L 164.502015 277.596017 
L 164.826994 277.344017 
L 165.151974 278.100017 
L 165.476953 278.100017 
L 165.801933 278.604017 
L 166.126912 277.848017 
L 166.776871 277.848017 
L 167.101851 278.352017 
L 167.42683 278.352017 
L 167.75181 277.848017 
L 168.07679 277.596017 
L 168.401769 277.596017 
L 168.726749 277.848017 
L 169.376708 278.856017 
L 170.026667 277.344017 
L 171.001605 278.100017 
L 171.326585 278.604017 
L 171.651564 278.100017 
L 172.301523 277.596017 
L 172.626503 278.100017 
L 173.276462 278.100017 
L 173.601441 277.596017 
L 173.926421 277.596017 
L 174.57638 278.604017 
L 175.551319 277.848017 
L 175.876298 277.848017 
L 176.201278 278.100017 
L 176.526257 278.100017 
L 176.851237 278.352017 
L 177.176216 277.848017 
L 177.501196 277.596017 
L 177.826175 277.848017 
L 178.151155 277.848017 
L 178.801114 278.352017 
L 179.126093 278.100017 
L 180.101032 278.100017 
L 180.426011 277.848017 
L 180.750991 278.100017 
L 181.075971 277.596017 
L 181.72593 278.100017 
L 182.700868 278.100017 
L 183.025848 277.848017 
L 183.350827 277.848017 
L 183.675807 278.100017 
L 185.625684 278.100017 
L 185.950663 278.352017 
L 186.275643 277.848017 
L 186.600622 278.100017 
L 188.875479 278.100017 
L 189.200459 278.352017 
L 190.500377 278.352017 
L 190.825356 278.100017 
L 191.475315 278.100017 
L 191.800295 278.604017 
L 192.125274 278.100017 
L 192.450254 278.100017 
L 192.775233 278.352017 
L 194.075152 278.352017 
L 194.400131 278.604017 
L 195.05009 278.604017 
L 195.37507 278.856017 
L 196.025029 278.352017 
L 196.674988 278.856017 
L 196.999967 278.856017 
L 197.649926 278.352017 
L 198.299885 278.352017 
L 198.624865 277.848017 
L 198.949844 277.848017 
L 199.599803 277.344017 
L 199.924783 277.344017 
L 200.249762 277.092017 
L 200.574742 277.344017 
L 200.899722 277.344017 
L 201.224701 276.840017 
L 201.549681 276.588017 
L 202.19964 274.572017 
L 203.824537 264.744017 
L 204.474496 262.224017 
L 204.799476 260.964017 
L 205.449435 259.452017 
L 205.774414 258.192017 
L 206.099394 257.688017 
L 206.424373 256.932017 
L 206.749353 256.932017 
L 207.399312 255.672017 
L 207.724292 255.420017 
L 208.049271 255.420017 
L 208.374251 255.168017 
L 209.02421 255.672017 
L 209.349189 255.672017 
L 209.674169 256.176017 
L 209.999148 256.176017 
L 210.649107 257.184017 
L 210.974087 257.184017 
L 211.624046 257.688017 
L 211.949025 258.444017 
L 212.598984 258.444017 
L 213.248943 258.948017 
L 213.573923 258.948017 
L 213.898903 258.696017 
L 214.223882 258.948017 
L 214.548862 258.696017 
L 214.873841 258.948017 
L 215.198821 258.696017 
L 216.173759 258.696017 
L 216.498739 258.192017 
L 217.473677 258.192017 
L 217.798657 257.940017 
L 218.123636 257.940017 
L 218.773595 257.436017 
L 219.098575 257.436017 
L 219.423554 257.688017 
L 219.748534 257.436017 
L 220.073514 257.688017 
L 220.398493 257.436017 
L 220.723473 257.688017 
L 222.023391 257.688017 
L 222.34837 258.192017 
L 222.67335 257.688017 
L 222.998329 257.940017 
L 223.648288 257.940017 
L 223.973268 258.192017 
L 224.298247 257.940017 
L 224.623227 258.192017 
L 224.948206 257.940017 
L 225.273186 257.940017 
L 225.598165 257.688017 
L 225.923145 258.192017 
L 226.573104 258.192017 
L 226.898084 257.940017 
L 227.223063 258.192017 
L 227.548043 258.192017 
L 227.873022 257.688017 
L 228.198002 257.940017 
L 229.49792 257.940017 
L 229.822899 258.192017 
L 230.147879 257.940017 
L 230.472858 258.192017 
L 230.797838 257.688017 
L 231.122817 258.948017 
L 231.772776 263.484017 
L 232.422735 266.004017 
L 232.747715 268.020017 
L 233.072695 270.792017 
L 234.047633 282.384017 
L 234.372613 284.904017 
L 235.022572 286.668017 
L 235.347551 286.416017 
L 235.672531 286.416017 
L 235.99751 285.912017 
L 236.32249 284.904017 
L 237.622408 274.824017 
L 238.272367 275.328017 
L 238.597346 275.328017 
L 239.247305 273.564017 
L 239.572285 273.816017 
L 240.222244 276.588017 
L 240.547224 277.344017 
L 241.197183 277.344017 
L 241.522162 278.352017 
L 241.847142 280.116017 
L 242.172121 281.124017 
L 242.497101 280.620017 
L 242.82208 278.856017 
L 243.14706 277.848017 
L 243.472039 278.352017 
L 243.797019 279.360017 
L 244.121998 279.612017 
L 245.096937 276.588017 
L 245.421916 277.092017 
L 246.071876 277.596017 
L 246.396855 277.092017 
L 246.721835 277.092017 
L 247.371794 278.352017 
L 247.696773 278.100017 
L 248.021753 277.344017 
L 248.671712 277.848017 
L 248.996691 278.604017 
L 249.321671 278.856017 
L 249.64665 278.856017 
L 250.946568 277.848017 
L 251.271548 277.848017 
L 251.596527 278.352017 
L 251.921507 278.604017 
L 252.246486 278.604017 
L 252.571466 278.352017 
L 252.896446 277.596017 
L 253.221425 277.344017 
L 253.546405 277.596017 
L 254.196364 278.604017 
L 254.521343 278.100017 
L 255.171302 277.596017 
L 255.496282 277.848017 
L 255.821261 278.352017 
L 256.47122 277.848017 
L 256.7962 277.848017 
L 257.121179 278.352017 
L 257.446159 278.604017 
L 257.771138 278.604017 
L 258.421097 277.596017 
L 258.746077 277.596017 
L 259.071057 278.100017 
L 259.396036 278.856017 
L 260.045995 278.352017 
L 260.370975 277.848017 
L 260.695954 277.596017 
L 261.670893 278.352017 
L 261.995872 277.596017 
L 262.320852 277.848017 
L 262.645831 277.848017 
L 262.970811 278.352017 
L 263.29579 278.604017 
L 263.62077 277.848017 
L 263.945749 277.848017 
L 264.270729 277.596017 
L 264.920688 278.604017 
L 265.245667 278.604017 
L 265.895627 277.596017 
L 266.220606 277.596017 
L 266.545586 277.848017 
L 266.870565 278.352017 
L 267.195545 278.604017 
L 267.520524 278.100017 
L 267.845504 278.100017 
L 268.170483 277.848017 
L 268.495463 278.100017 
L 268.820442 277.848017 
L 269.145422 278.352017 
L 269.470401 277.848017 
L 269.795381 277.848017 
L 270.44534 278.352017 
L 270.770319 278.352017 
L 271.745258 277.596017 
L 272.070238 278.100017 
L 272.395217 278.352017 
L 273.045176 278.352017 
L 273.370156 277.848017 
L 273.695135 278.100017 
L 274.020115 278.100017 
L 274.345094 278.604017 
L 274.670074 278.100017 
L 274.995053 278.352017 
L 275.320033 277.848017 
L 275.645012 277.848017 
L 275.969992 278.100017 
L 276.94493 278.100017 
L 277.26991 277.848017 
L 277.919869 278.352017 
L 278.244848 278.352017 
L 278.569828 278.100017 
L 279.219787 278.100017 
L 279.544767 278.352017 
L 279.869746 278.100017 
L 280.194726 278.352017 
L 280.519705 278.100017 
L 280.844685 278.100017 
L 281.169664 277.848017 
L 281.819623 278.352017 
L 282.144603 278.100017 
L 282.794562 278.100017 
L 283.119541 278.352017 
L 283.7695 278.352017 
L 284.09448 278.100017 
L 284.419459 278.100017 
L 284.744439 278.352017 
L 285.069419 278.100017 
L 285.394398 278.604017 
L 285.719378 278.100017 
L 286.044357 278.100017 
L 286.369337 278.352017 
L 286.694316 278.100017 
L 287.019296 278.352017 
L 287.344275 277.848017 
L 287.994234 278.352017 
L 288.644193 278.352017 
L 288.969173 278.604017 
L 289.619132 278.100017 
L 289.944111 278.604017 
L 290.269091 278.604017 
L 290.59407 278.856017 
L 291.244029 278.856017 
L 291.893989 278.352017 
L 292.218968 278.604017 
L 292.543948 278.352017 
L 292.868927 278.352017 
L 293.193907 278.604017 
L 293.518886 278.352017 
L 294.493825 278.352017 
L 294.818804 277.848017 
L 295.143784 277.848017 
L 295.468763 277.092017 
L 295.793743 277.092017 
L 296.118722 277.344017 
L 296.443702 277.344017 
L 296.768681 277.092017 
L 297.093661 277.092017 
L 298.0686 274.572017 
L 298.718559 270.792017 
L 299.693497 264.492017 
L 300.343456 261.972017 
L 300.668436 260.712017 
L 300.993415 260.208017 
L 301.643374 258.444017 
L 302.618313 256.428017 
L 303.268272 255.924017 
L 303.593251 255.420017 
L 303.918231 255.672017 
L 304.24321 255.672017 
L 304.56819 255.924017 
L 304.89317 255.924017 
L 305.218149 255.672017 
L 305.543129 256.428017 
L 305.868108 256.428017 
L 306.193088 256.932017 
L 306.518067 257.184017 
L 306.843047 257.184017 
L 307.493006 257.688017 
L 307.817985 258.192017 
L 308.467944 258.696017 
L 308.792924 258.444017 
L 309.117903 258.948017 
L 309.442883 259.200017 
L 310.092842 259.200017 
L 310.417821 258.948017 
L 310.742801 259.200017 
L 311.067781 258.948017 
L 311.39276 258.948017 
L 311.71774 258.696017 
L 312.042719 258.696017 
L 312.367699 258.192017 
L 312.692678 258.444017 
L 313.342637 257.940017 
L 313.667617 258.192017 
L 313.992596 257.688017 
L 314.317576 257.940017 
L 314.642555 257.688017 
L 315.942473 257.688017 
L 316.267453 257.436017 
L 316.592432 257.940017 
L 316.917412 257.436017 
L 317.242391 257.688017 
L 318.54231 257.688017 
L 318.867289 257.940017 
L 319.192269 257.688017 
L 319.842228 258.192017 
L 320.492187 258.192017 
L 320.817166 257.688017 
L 321.142146 258.192017 
L 321.467125 257.940017 
L 323.741982 257.940017 
L 324.066962 258.192017 
L 324.391941 257.940017 
L 324.716921 258.192017 
L 325.0419 258.192017 
L 325.36688 257.940017 
L 325.691859 258.192017 
L 326.016839 257.940017 
L 326.341818 258.192017 
L 326.666798 257.940017 
L 326.991777 258.948017 
L 327.966716 264.996017 
L 328.291695 265.752017 
L 328.616675 267.768017 
L 329.266634 274.824017 
L 329.916593 282.384017 
L 330.241572 284.652017 
L 330.891532 286.416017 
L 331.541491 286.416017 
L 331.86647 285.912017 
L 332.19145 284.904017 
L 333.491368 275.076017 
L 333.816347 274.824017 
L 334.141327 275.328017 
L 334.466306 275.076017 
L 335.116265 273.564017 
L 335.441245 273.816017 
L 335.766224 275.076017 
L 336.091204 276.840017 
L 336.416183 277.092017 
L 336.741163 277.596017 
L 337.066143 277.344017 
L 338.041081 281.124017 
L 338.366061 280.368017 
L 338.69104 278.604017 
L 339.01602 277.596017 
L 339.340999 278.352017 
L 339.665979 279.612017 
L 339.990958 279.864017 
L 340.640917 277.344017 
L 340.965897 276.588017 
L 341.290876 277.092017 
L 341.615856 277.092017 
L 341.940835 277.596017 
L 342.265815 277.596017 
L 342.590794 277.092017 
L 343.240753 278.100017 
L 343.565733 278.100017 
L 344.215692 277.596017 
L 344.540672 277.848017 
L 344.865651 278.604017 
L 345.190631 278.856017 
L 345.51561 278.856017 
L 346.165569 278.352017 
L 346.490549 278.352017 
L 346.815528 277.848017 
L 347.140508 277.848017 
L 347.465487 278.100017 
L 347.790467 278.604017 
L 348.115446 278.604017 
L 348.440426 278.100017 
L 348.765405 277.344017 
L 349.090385 277.344017 
L 349.415364 277.596017 
L 350.065324 278.604017 
L 350.390303 278.352017 
L 350.715283 277.848017 
L 351.040262 277.848017 
L 351.690221 278.352017 
L 352.015201 278.100017 
L 352.34018 278.100017 
L 352.66516 277.848017 
L 352.990139 278.352017 
L 353.315119 278.604017 
L 353.640098 278.352017 
L 354.290057 277.344017 
L 354.940016 277.848017 
L 355.264996 278.604017 
L 355.589975 278.604017 
L 355.914955 278.100017 
L 356.564914 277.596017 
L 357.214873 278.100017 
L 357.539853 278.604017 
L 357.864832 278.100017 
L 358.189812 277.848017 
L 359.16475 278.604017 
L 359.814709 277.596017 
L 360.139689 277.344017 
L 360.464668 277.848017 
L 360.789648 278.604017 
L 361.114627 278.604017 
L 361.439607 278.100017 
L 362.089566 277.596017 
L 362.739525 278.604017 
L 363.064505 278.604017 
L 363.389484 278.352017 
L 363.714464 277.596017 
L 364.364423 278.100017 
L 365.339361 278.100017 
L 365.664341 277.848017 
L 366.639279 278.604017 
L 367.289238 277.596017 
L 367.614218 277.596017 
L 367.939197 278.604017 
L 368.589156 278.604017 
L 368.914136 278.100017 
L 369.564095 277.596017 
L 369.889075 277.848017 
L 370.214054 278.352017 
L 370.539034 278.100017 
L 370.864013 278.100017 
L 371.188993 277.848017 
L 371.838952 278.352017 
L 372.488911 278.352017 
L 372.81389 278.100017 
L 373.463849 278.100017 
L 373.788829 278.604017 
L 374.113808 278.352017 
L 374.438788 278.352017 
L 375.088747 277.848017 
L 375.413726 278.352017 
L 376.388665 278.352017 
L 377.038624 277.848017 
L 377.363604 278.100017 
L 378.013563 278.100017 
L 378.338542 278.352017 
L 378.663522 278.100017 
L 380.288419 278.100017 
L 380.613399 278.352017 
L 380.938378 278.100017 
L 381.263358 278.100017 
L 381.588337 278.352017 
L 381.913317 278.100017 
L 382.238296 278.100017 
L 382.563276 278.352017 
L 382.888256 278.352017 
L 383.213235 278.100017 
L 383.538215 278.604017 
L 384.188174 278.604017 
L 384.513153 278.352017 
L 384.838133 278.604017 
L 385.163112 278.352017 
L 385.488092 278.352017 
L 386.138051 278.856017 
L 387.112989 278.856017 
L 387.437969 278.604017 
L 387.762948 278.604017 
L 388.087928 278.856017 
L 388.737887 278.856017 
L 389.062867 278.604017 
L 389.387846 278.604017 
L 390.037805 278.100017 
L 390.362785 278.100017 
L 390.687764 277.596017 
L 391.012744 277.344017 
L 391.337723 277.344017 
L 391.662703 277.092017 
L 391.987682 277.092017 
L 392.312662 277.344017 
L 392.637641 277.344017 
L 392.962621 276.840017 
L 393.2876 276.588017 
L 393.937559 274.824017 
L 395.562457 264.240017 
L 396.212416 261.720017 
L 398.487273 256.428017 
L 398.487273 256.428017 
" clip-path="url(#pd33d2c1e5e)" style="fill: none; stroke: #1f77b4; stroke-width: 1.5; stroke-linecap: square"/>
   </g>
   <g id="line2d_14">
    <path d="M 73.832727 258.696017 
L 74.157707 258.444017 
L 74.807666 258.444017 
L 75.457625 257.940017 
L 75.782604 257.940017 
L 76.107584 257.436017 
L 76.432563 257.688017 
L 77.407502 257.688017 
L 77.732482 257.940017 
L 78.057461 257.940017 
L 78.382441 257.688017 
L 79.682359 257.688017 
L 80.007338 257.940017 
L 81.307256 257.940017 
L 81.632236 258.192017 
L 82.932154 258.192017 
L 83.257133 257.940017 
L 83.582113 258.192017 
L 83.907093 258.192017 
L 84.232072 258.444017 
L 84.557052 258.192017 
L 84.882031 258.192017 
L 85.207011 258.444017 
L 85.53199 258.192017 
L 85.85697 258.444017 
L 86.181949 258.192017 
L 86.506929 258.192017 
L 86.831908 257.940017 
L 87.156888 258.444017 
L 87.481867 259.452017 
L 88.131826 262.980017 
L 88.456806 263.736017 
L 89.106765 267.264017 
L 89.756724 274.068017 
L 90.406683 282.636017 
L 91.056642 286.668017 
L 91.706601 288.432017 
L 92.031581 288.936017 
L 92.35656 288.936017 
L 92.68154 287.676017 
L 93.006519 285.408017 
L 93.981458 276.336017 
L 94.306437 275.832017 
L 94.631417 275.580017 
L 94.956396 275.076017 
L 95.606355 272.052017 
L 95.931335 272.052017 
L 96.256314 273.060017 
L 96.906274 275.580017 
L 97.231253 275.580017 
L 97.556233 275.832017 
L 97.881212 277.344017 
L 98.206192 279.612017 
L 98.531171 280.872017 
L 98.856151 280.368017 
L 99.18113 279.108017 
L 99.50611 279.108017 
L 100.156069 281.880017 
L 100.481048 281.880017 
L 101.131007 277.848017 
L 101.455987 277.344017 
L 102.105946 278.604017 
L 102.430925 278.352017 
L 103.080885 276.336017 
L 103.730844 278.100017 
L 104.055823 277.596017 
L 104.380803 276.588017 
L 104.705782 276.336017 
L 105.030762 277.596017 
L 105.355741 279.360017 
L 105.680721 279.360017 
L 106.33068 277.092017 
L 106.655659 277.596017 
L 107.305618 279.864017 
L 107.630598 279.612017 
L 108.280557 277.848017 
L 108.930516 278.856017 
L 109.255495 278.604017 
L 109.580475 277.848017 
L 109.905455 277.596017 
L 110.230434 277.848017 
L 110.555414 278.352017 
L 110.880393 278.352017 
L 111.855332 276.840017 
L 112.505291 278.604017 
L 112.83027 278.856017 
L 113.480229 277.344017 
L 113.805209 277.596017 
L 114.130188 278.352017 
L 114.455168 278.604017 
L 114.780147 278.604017 
L 115.105127 278.100017 
L 115.430106 278.100017 
L 116.080066 278.604017 
L 116.405045 278.604017 
L 116.730025 278.100017 
L 117.055004 277.848017 
L 117.704963 278.352017 
L 118.029943 279.108017 
L 118.354922 278.604017 
L 118.679902 277.596017 
L 119.004881 277.596017 
L 119.329861 277.848017 
L 119.65484 278.352017 
L 120.304799 278.352017 
L 120.629779 278.100017 
L 121.279738 278.100017 
L 121.604717 278.352017 
L 121.929697 278.100017 
L 122.579656 278.100017 
L 123.229615 278.604017 
L 123.554595 278.352017 
L 123.879574 277.848017 
L 124.204554 277.848017 
L 124.529533 278.100017 
L 124.854513 278.100017 
L 125.179492 278.352017 
L 125.504472 278.352017 
L 126.154431 277.848017 
L 126.47941 277.848017 
L 127.129369 278.352017 
L 127.454349 278.352017 
L 127.779328 278.100017 
L 128.104308 278.100017 
L 128.754267 278.604017 
L 129.079247 278.352017 
L 129.404226 277.848017 
L 129.729206 278.352017 
L 130.704144 278.352017 
L 131.354103 277.848017 
L 131.679083 278.352017 
L 132.654021 278.352017 
L 132.979001 278.100017 
L 133.30398 278.100017 
L 133.62896 278.604017 
L 133.953939 278.856017 
L 134.278919 278.352017 
L 134.603898 278.352017 
L 134.928878 278.100017 
L 135.253857 278.100017 
L 135.903817 278.604017 
L 136.228796 278.100017 
L 136.553776 277.848017 
L 136.878755 278.100017 
L 137.203735 278.604017 
L 137.853694 278.604017 
L 138.503653 278.100017 
L 138.828632 278.352017 
L 139.153612 278.352017 
L 139.478591 278.100017 
L 139.803571 278.352017 
L 142.078428 278.352017 
L 142.403407 278.604017 
L 142.728387 278.352017 
L 143.053366 278.604017 
L 143.703325 278.100017 
L 144.353284 278.604017 
L 145.978182 278.604017 
L 146.303161 278.856017 
L 146.95312 278.352017 
L 147.603079 278.856017 
L 147.928059 278.856017 
L 148.253038 279.108017 
L 148.578018 278.856017 
L 150.527895 278.856017 
L 151.177854 278.352017 
L 151.502834 278.352017 
L 152.477772 277.596017 
L 152.802752 277.596017 
L 153.127731 277.848017 
L 153.452711 277.596017 
L 153.77769 277.596017 
L 154.10267 277.092017 
L 154.752629 274.824017 
L 155.402588 271.044017 
L 156.052547 265.500017 
L 156.702506 262.476017 
L 157.027486 261.972017 
L 158.327404 258.192017 
L 158.977363 257.184017 
L 159.302342 256.428017 
L 159.627322 256.176017 
L 160.277281 255.168017 
L 160.60226 255.420017 
L 161.252219 255.420017 
L 162.227158 256.176017 
L 162.552138 256.176017 
L 162.877117 256.428017 
L 163.202097 256.932017 
L 163.527076 256.932017 
L 163.852056 257.436017 
L 164.177035 257.436017 
L 164.502015 257.688017 
L 165.151974 258.696017 
L 165.476953 258.696017 
L 165.801933 259.200017 
L 166.126912 259.200017 
L 166.451892 258.948017 
L 166.776871 259.200017 
L 167.42683 259.200017 
L 167.75181 258.696017 
L 168.07679 258.948017 
L 169.376708 258.948017 
L 169.701687 258.444017 
L 170.026667 258.192017 
L 170.351646 258.192017 
L 170.676626 257.940017 
L 171.001605 258.192017 
L 171.326585 257.940017 
L 171.651564 257.436017 
L 171.976544 257.436017 
L 172.626503 257.940017 
L 173.276462 257.940017 
L 173.601441 257.688017 
L 173.926421 257.940017 
L 175.876298 257.940017 
L 176.201278 258.192017 
L 176.526257 258.192017 
L 176.851237 257.940017 
L 177.501196 257.940017 
L 177.826175 258.192017 
L 178.151155 258.192017 
L 178.476134 257.940017 
L 179.126093 257.940017 
L 179.776052 258.444017 
L 180.101032 258.192017 
L 180.426011 258.192017 
L 180.750991 258.444017 
L 181.075971 258.192017 
L 181.40095 258.192017 
L 181.72593 258.444017 
L 182.050909 257.940017 
L 182.375889 258.192017 
L 182.700868 258.192017 
L 183.025848 258.444017 
L 183.350827 259.200017 
L 184.325766 263.988017 
L 184.975725 267.264017 
L 185.625684 274.068017 
L 186.275643 282.132017 
L 186.600622 284.904017 
L 186.925602 286.668017 
L 187.575561 288.432017 
L 187.900541 288.936017 
L 188.22552 288.936017 
L 188.5505 287.928017 
L 189.200459 282.132017 
L 189.525438 278.352017 
L 189.850418 276.588017 
L 190.175397 275.832017 
L 190.500377 275.832017 
L 190.825356 275.076017 
L 191.150336 273.816017 
L 191.475315 272.052017 
L 191.800295 272.052017 
L 192.775233 275.328017 
L 193.100213 275.580017 
L 193.425192 276.084017 
L 194.400131 280.620017 
L 194.725111 280.116017 
L 195.05009 279.108017 
L 195.37507 278.856017 
L 196.025029 281.628017 
L 196.350008 281.628017 
L 196.999967 278.100017 
L 197.324947 277.344017 
L 197.974906 278.604017 
L 198.299885 278.352017 
L 198.624865 277.092017 
L 198.949844 276.336017 
L 199.599803 277.848017 
L 199.924783 277.596017 
L 200.249762 276.336017 
L 200.574742 276.336017 
L 200.899722 277.344017 
L 201.224701 279.108017 
L 201.549681 279.612017 
L 202.19964 277.092017 
L 202.524619 277.596017 
L 203.174578 279.864017 
L 203.499558 279.864017 
L 203.824537 278.604017 
L 204.149517 278.100017 
L 204.474496 278.352017 
L 204.799476 279.108017 
L 205.124455 278.856017 
L 205.774414 277.596017 
L 206.099394 277.596017 
L 206.424373 278.604017 
L 206.749353 278.856017 
L 207.724292 276.840017 
L 208.69923 278.856017 
L 209.349189 277.596017 
L 209.674169 277.596017 
L 209.999148 278.100017 
L 210.324128 278.856017 
L 210.649107 278.604017 
L 210.974087 278.100017 
L 211.299066 278.100017 
L 211.949025 278.604017 
L 212.274005 278.604017 
L 212.598984 278.352017 
L 212.923964 277.848017 
L 213.573923 278.352017 
L 213.898903 279.108017 
L 214.873841 277.596017 
L 215.198821 278.100017 
L 215.84878 278.604017 
L 216.498739 278.100017 
L 216.823718 277.596017 
L 217.148698 278.100017 
L 217.473677 278.352017 
L 217.798657 278.352017 
L 218.448616 277.848017 
L 218.773595 278.352017 
L 219.098575 278.352017 
L 219.423554 278.604017 
L 219.748534 278.100017 
L 220.073514 277.848017 
L 221.048452 278.604017 
L 221.373432 278.352017 
L 221.698411 277.848017 
L 222.34837 277.848017 
L 222.67335 278.100017 
L 222.998329 278.604017 
L 223.323309 278.604017 
L 223.648288 278.100017 
L 223.973268 277.848017 
L 224.298247 278.100017 
L 224.623227 278.604017 
L 225.598165 277.848017 
L 225.923145 278.352017 
L 226.248124 278.604017 
L 226.898084 278.100017 
L 227.873022 278.100017 
L 228.198002 278.352017 
L 228.522981 278.352017 
L 229.17294 277.848017 
L 229.49792 278.352017 
L 229.822899 278.604017 
L 230.472858 278.100017 
L 230.797838 278.100017 
L 231.447797 278.604017 
L 231.772776 278.604017 
L 232.747715 277.848017 
L 233.722654 278.604017 
L 234.047633 278.100017 
L 234.372613 278.100017 
L 234.697592 278.604017 
L 235.022572 278.352017 
L 235.672531 278.352017 
L 235.99751 278.100017 
L 236.647469 278.604017 
L 236.972449 278.352017 
L 237.297428 278.352017 
L 237.622408 278.100017 
L 237.947387 278.352017 
L 238.272367 278.352017 
L 238.922326 278.856017 
L 239.247305 278.352017 
L 239.572285 278.100017 
L 239.897265 278.352017 
L 241.522162 278.352017 
L 242.172121 278.856017 
L 242.497101 278.604017 
L 242.82208 278.604017 
L 243.14706 278.856017 
L 243.472039 278.856017 
L 244.121998 279.360017 
L 244.446978 278.856017 
L 244.771957 278.604017 
L 245.421916 278.604017 
L 245.746896 278.856017 
L 246.071876 278.856017 
L 246.721835 278.352017 
L 247.046814 278.352017 
L 248.021753 277.596017 
L 248.671712 277.596017 
L 248.996691 277.848017 
L 249.321671 277.848017 
L 249.64665 277.596017 
L 250.621589 275.076017 
L 250.946568 273.312017 
L 252.246486 263.484017 
L 252.896446 261.720017 
L 253.221425 261.216017 
L 253.871384 259.452017 
L 254.196364 258.192017 
L 254.521343 257.688017 
L 255.171302 256.428017 
L 255.496282 256.176017 
L 256.146241 255.168017 
L 256.7962 255.168017 
L 257.121179 255.420017 
L 257.446159 255.924017 
L 257.771138 256.176017 
L 258.096118 255.924017 
L 258.421097 256.428017 
L 258.746077 256.680017 
L 259.071057 256.680017 
L 259.396036 257.184017 
L 259.721016 257.436017 
L 260.045995 257.436017 
L 260.370975 257.688017 
L 261.020934 258.696017 
L 261.345913 258.948017 
L 261.995872 258.948017 
L 262.320852 259.200017 
L 263.945749 259.200017 
L 264.270729 258.696017 
L 264.595708 259.200017 
L 265.245667 258.696017 
L 265.895627 258.696017 
L 266.220606 258.444017 
L 266.545586 258.444017 
L 267.195545 257.940017 
L 267.520524 257.436017 
L 267.845504 257.688017 
L 268.495463 257.688017 
L 268.820442 257.940017 
L 269.145422 257.688017 
L 269.470401 257.688017 
L 270.12036 258.192017 
L 270.44534 257.688017 
L 271.095299 257.688017 
L 271.745258 258.192017 
L 274.020115 258.192017 
L 274.345094 257.940017 
L 274.995053 257.940017 
L 275.320033 258.192017 
L 275.969992 258.192017 
L 276.294971 258.444017 
L 276.94493 258.444017 
L 277.26991 258.192017 
L 277.594889 258.444017 
L 277.919869 258.444017 
L 278.569828 257.940017 
L 278.894808 258.444017 
L 279.544767 261.216017 
L 280.844685 267.516017 
L 281.494644 274.320017 
L 282.144603 282.132017 
L 282.794562 286.920017 
L 283.444521 288.684017 
L 283.7695 288.936017 
L 284.09448 288.684017 
L 284.419459 287.676017 
L 284.744439 285.660017 
L 285.394398 278.856017 
L 285.719378 276.588017 
L 286.044357 275.580017 
L 286.369337 275.832017 
L 286.694316 275.076017 
L 287.019296 273.816017 
L 287.344275 272.052017 
L 287.669255 271.800017 
L 288.644193 275.328017 
L 289.294152 275.832017 
L 290.269091 280.620017 
L 290.59407 280.368017 
L 290.91905 279.108017 
L 291.244029 278.856017 
L 291.893989 281.880017 
L 292.218968 281.880017 
L 292.868927 277.596017 
L 293.193907 277.344017 
L 293.843866 278.856017 
L 294.168845 278.352017 
L 294.493825 277.092017 
L 294.818804 276.588017 
L 295.143784 277.344017 
L 295.468763 277.596017 
L 295.793743 277.596017 
L 296.118722 276.588017 
L 296.443702 276.084017 
L 297.093661 279.108017 
L 297.41864 279.612017 
L 297.74362 278.604017 
L 298.0686 277.092017 
L 298.393579 277.596017 
L 298.718559 278.604017 
L 299.043538 280.116017 
L 299.368518 279.612017 
L 300.018477 277.848017 
L 300.343456 278.100017 
L 300.668436 278.856017 
L 300.993415 278.856017 
L 301.643374 277.848017 
L 301.968354 277.848017 
L 302.293333 278.604017 
L 302.618313 278.604017 
L 302.943292 278.100017 
L 303.268272 277.092017 
L 303.593251 276.840017 
L 304.24321 278.856017 
L 304.56819 279.108017 
L 304.89317 278.100017 
L 305.218149 277.596017 
L 305.543129 277.848017 
L 305.868108 277.848017 
L 306.193088 278.604017 
L 306.518067 278.856017 
L 306.843047 278.100017 
L 307.168026 277.848017 
L 307.493006 278.100017 
L 307.817985 278.856017 
L 308.142965 278.352017 
L 308.467944 278.100017 
L 308.792924 277.596017 
L 309.117903 277.848017 
L 309.442883 278.352017 
L 309.767862 278.604017 
L 310.092842 278.352017 
L 310.417821 277.848017 
L 310.742801 277.596017 
L 311.067781 277.596017 
L 311.39276 278.352017 
L 311.71774 278.604017 
L 312.042719 278.352017 
L 312.367699 277.848017 
L 312.692678 277.848017 
L 313.017658 278.352017 
L 313.342637 278.352017 
L 313.667617 278.100017 
L 314.642555 278.100017 
L 314.967535 278.352017 
L 315.292514 278.100017 
L 315.617494 278.100017 
L 315.942473 277.848017 
L 316.267453 277.848017 
L 316.592432 278.604017 
L 317.242391 278.604017 
L 317.567371 277.848017 
L 317.892351 277.848017 
L 318.21733 278.352017 
L 318.54231 278.604017 
L 318.867289 278.604017 
L 319.517248 278.100017 
L 319.842228 278.352017 
L 321.142146 278.352017 
L 321.467125 277.848017 
L 321.792105 278.352017 
L 322.117084 278.604017 
L 322.442064 278.352017 
L 322.767043 277.848017 
L 323.092023 277.848017 
L 323.417002 278.100017 
L 323.741982 278.604017 
L 324.066962 278.352017 
L 324.391941 278.352017 
L 325.0419 277.848017 
L 325.36688 278.352017 
L 326.016839 278.352017 
L 326.666798 277.848017 
L 326.991777 278.352017 
L 327.316757 278.604017 
L 327.641736 278.352017 
L 328.291695 278.352017 
L 328.616675 278.100017 
L 328.941654 278.352017 
L 329.266634 278.856017 
L 329.916593 278.352017 
L 330.891532 278.352017 
L 331.216511 278.604017 
L 331.86647 278.100017 
L 332.516429 278.604017 
L 333.166388 278.100017 
L 333.491368 278.100017 
L 333.816347 278.352017 
L 334.466306 278.352017 
L 334.791286 278.604017 
L 335.116265 278.352017 
L 336.091204 278.352017 
L 336.416183 278.604017 
L 337.066143 278.100017 
L 337.391122 278.352017 
L 337.716102 278.856017 
L 338.041081 278.604017 
L 338.366061 278.604017 
L 338.69104 278.352017 
L 339.340999 278.856017 
L 340.965897 278.856017 
L 341.290876 278.604017 
L 341.615856 278.856017 
L 341.940835 278.856017 
L 342.265815 278.604017 
L 342.590794 278.604017 
L 343.890713 277.596017 
L 344.215692 277.596017 
L 344.540672 277.848017 
L 344.865651 277.848017 
L 345.84059 277.092017 
L 346.490549 274.824017 
L 347.140508 270.792017 
L 347.790467 265.752017 
L 348.440426 262.476017 
L 349.415364 260.460017 
L 349.740344 258.948017 
L 350.715283 256.932017 
L 351.040262 256.680017 
L 351.690221 255.672017 
L 352.34018 255.168017 
L 352.66516 255.168017 
L 353.315119 255.672017 
L 353.640098 255.672017 
L 354.290057 256.176017 
L 354.615037 256.680017 
L 354.940016 256.680017 
L 355.264996 257.184017 
L 356.889894 258.444017 
L 357.214873 258.948017 
L 357.539853 258.948017 
L 357.864832 258.696017 
L 358.514791 259.200017 
L 359.16475 259.200017 
L 359.48973 258.948017 
L 360.139689 258.948017 
L 360.464668 259.200017 
L 360.789648 259.200017 
L 361.114627 258.696017 
L 361.439607 258.696017 
L 361.764586 258.444017 
L 362.089566 258.444017 
L 362.414545 258.192017 
L 362.739525 258.192017 
L 363.064505 257.688017 
L 363.389484 257.436017 
L 363.714464 257.688017 
L 364.039443 257.688017 
L 364.364423 258.192017 
L 365.014382 258.192017 
L 365.339361 257.688017 
L 365.664341 257.940017 
L 366.3143 257.940017 
L 366.639279 257.688017 
L 367.289238 257.688017 
L 367.939197 258.192017 
L 368.264177 257.940017 
L 368.589156 257.940017 
L 368.914136 258.192017 
L 369.239115 257.688017 
L 369.564095 257.940017 
L 369.889075 257.940017 
L 370.214054 258.192017 
L 370.539034 257.940017 
L 370.864013 257.940017 
L 371.188993 258.192017 
L 371.513972 258.192017 
L 371.838952 257.940017 
L 372.163931 257.940017 
L 372.488911 258.192017 
L 373.788829 258.192017 
L 374.113808 258.444017 
L 374.438788 257.940017 
L 374.763767 258.192017 
L 375.088747 259.200017 
L 375.413726 261.216017 
L 376.388665 265.248017 
L 376.713645 267.264017 
L 377.363604 274.068017 
L 378.013563 282.132017 
L 378.338542 285.156017 
L 378.988501 287.928017 
L 379.63846 288.936017 
L 379.96344 288.936017 
L 380.288419 287.928017 
L 380.613399 285.408017 
L 381.263358 278.352017 
L 381.588337 276.588017 
L 381.913317 275.832017 
L 382.238296 275.580017 
L 382.563276 275.076017 
L 383.213235 272.052017 
L 383.538215 271.800017 
L 383.863194 272.808017 
L 384.188174 274.572017 
L 384.513153 275.580017 
L 384.838133 275.580017 
L 385.163112 275.832017 
L 386.138051 280.620017 
L 386.46303 280.116017 
L 386.78801 279.108017 
L 387.112989 278.856017 
L 387.762948 281.880017 
L 388.087928 281.628017 
L 388.737887 277.848017 
L 389.062867 277.092017 
L 389.387846 278.352017 
L 389.712826 279.108017 
L 390.687764 276.336017 
L 391.337723 277.848017 
L 391.662703 277.596017 
L 391.987682 276.588017 
L 392.312662 276.084017 
L 392.962621 278.856017 
L 393.2876 279.360017 
L 393.937559 277.344017 
L 394.262539 277.344017 
L 394.912498 279.864017 
L 395.237477 279.360017 
L 395.887437 277.848017 
L 396.537396 279.108017 
L 396.862375 278.856017 
L 397.512334 277.344017 
L 397.837314 277.848017 
L 398.162293 278.604017 
L 398.487273 278.856017 
L 398.487273 278.856017 
" clip-path="url(#pd33d2c1e5e)" style="fill: none; stroke: #ff7f0e; stroke-width: 1.5; stroke-linecap: square"/>
   </g>
   <g id="line2d_15">
    <path d="M 73.832727 86.328 
L 74.157707 81.288 
L 74.482686 81.288 
L 74.807666 86.328 
L 75.132645 88.848 
L 75.782604 78.768 
L 76.107584 71.208 
L 76.432563 73.728 
L 76.757543 78.768 
L 77.082523 81.288 
L 77.407502 76.248 
L 77.732482 73.728 
L 78.057461 63.648 
L 78.382441 63.648 
L 78.70742 71.208 
L 79.0324 73.728 
L 79.357379 68.688 
L 80.007338 63.648 
L 80.332318 68.688 
L 80.982277 68.688 
L 81.307256 66.168 
L 81.632236 66.168 
L 82.932154 76.248 
L 83.257133 71.208 
L 83.582113 71.208 
L 84.557052 78.768 
L 84.882031 83.808 
L 85.207011 86.328 
L 85.85697 86.328 
L 86.831908 101.448 
L 87.156888 103.968 
L 87.481867 103.968 
L 87.806847 106.488 
L 88.131826 114.048 
L 88.781785 119.088 
L 89.106765 126.648 
L 89.431744 126.648 
L 90.406683 146.808 
L 90.731663 151.848 
L 91.056642 151.848 
L 91.381622 154.368 
L 92.35656 174.528 
L 92.68154 179.568 
L 93.006519 182.088 
L 93.656478 192.168 
L 94.306437 204.768 
L 94.956396 214.848 
L 95.281376 222.408 
L 95.606355 224.928 
L 95.931335 232.488 
L 96.256314 232.488 
L 96.581294 240.048 
L 96.906274 242.568 
L 97.231253 252.648 
L 98.856151 265.248 
L 99.18113 272.808 
L 99.50611 275.328 
L 100.156069 275.328 
L 100.481048 277.848 
L 101.131007 287.928 
L 101.455987 287.928 
L 101.780966 290.448 
L 102.105946 287.928 
L 102.430925 292.968 
L 103.080885 292.968 
L 103.405864 290.448 
L 103.730844 292.968 
L 104.055823 287.928 
L 104.380803 290.448 
L 104.705782 290.448 
L 105.030762 285.408 
L 105.355741 282.888 
L 105.680721 285.408 
L 106.0057 285.408 
L 106.655659 280.368 
L 106.980639 282.888 
L 107.305618 280.368 
L 108.280557 280.368 
L 108.605536 275.328 
L 108.930516 277.848 
L 109.255495 272.808 
L 110.555414 282.888 
L 110.880393 287.928 
L 111.205373 290.448 
L 111.530352 282.888 
L 111.855332 280.368 
L 112.83027 287.928 
L 113.480229 287.928 
L 113.805209 285.408 
L 114.130188 285.408 
L 114.455168 282.888 
L 115.105127 287.928 
L 115.430106 282.888 
L 115.755086 282.888 
L 116.080066 285.408 
L 116.730025 285.408 
L 117.055004 277.848 
L 117.379984 285.408 
L 117.704963 280.368 
L 118.029943 285.408 
L 118.354922 285.408 
L 118.679902 287.928 
L 119.004881 285.408 
L 119.329861 287.928 
L 119.65484 282.888 
L 120.304799 287.928 
L 120.629779 287.928 
L 120.954758 285.408 
L 121.604717 285.408 
L 121.929697 287.928 
L 122.254676 282.888 
L 122.579656 285.408 
L 122.904636 282.888 
L 123.554595 282.888 
L 123.879574 285.408 
L 124.204554 285.408 
L 124.529533 287.928 
L 124.854513 282.888 
L 125.179492 282.888 
L 125.504472 287.928 
L 126.154431 282.888 
L 126.47941 285.408 
L 126.80439 285.408 
L 127.129369 287.928 
L 127.454349 285.408 
L 127.779328 287.928 
L 128.104308 282.888 
L 128.754267 282.888 
L 129.079247 285.408 
L 129.404226 285.408 
L 129.729206 287.928 
L 130.054185 282.888 
L 130.379165 282.888 
L 130.704144 285.408 
L 131.354103 285.408 
L 131.679083 287.928 
L 132.004062 287.928 
L 132.329042 290.448 
L 132.654021 287.928 
L 132.979001 290.448 
L 133.30398 285.408 
L 133.62896 287.928 
L 133.953939 285.408 
L 134.278919 287.928 
L 134.928878 287.928 
L 135.253857 285.408 
L 135.578837 285.408 
L 135.903817 287.928 
L 136.878755 287.928 
L 137.528714 282.888 
L 137.853694 270.288 
L 138.178673 267.768 
L 138.503653 250.128 
L 138.828632 242.568 
L 139.153612 227.448 
L 139.478591 224.928 
L 139.803571 227.448 
L 140.12855 232.488 
L 140.778509 204.768 
L 141.428468 164.448 
L 141.753448 166.968 
L 142.078428 179.568 
L 142.403407 187.128 
L 142.728387 177.048 
L 143.378346 119.088 
L 143.703325 111.528 
L 144.353284 146.808 
L 144.678264 141.768 
L 145.653202 83.808 
L 146.303161 109.008 
L 146.628141 103.968 
L 146.95312 86.328 
L 147.2781 76.248 
L 147.603079 81.288 
L 147.928059 93.888 
L 148.253038 88.848 
L 148.902998 58.608 
L 149.227977 61.128 
L 149.877936 83.808 
L 150.202916 78.768 
L 150.852875 56.088 
L 151.177854 53.568 
L 151.502834 63.648 
L 151.827813 68.688 
L 152.152793 66.168 
L 152.477772 71.208 
L 152.802752 71.208 
L 153.127731 68.688 
L 153.452711 61.128 
L 154.10267 66.168 
L 154.752629 78.768 
L 155.077609 73.728 
L 155.402588 71.208 
L 155.727568 71.208 
L 156.052547 73.728 
L 156.377527 78.768 
L 156.702506 78.768 
L 157.027486 76.248 
L 157.352465 78.768 
L 158.002424 93.888 
L 158.327404 93.888 
L 158.652383 81.288 
L 158.977363 78.768 
L 159.302342 81.288 
L 159.627322 96.408 
L 159.952301 103.968 
L 160.277281 101.448 
L 160.92724 86.328 
L 161.252219 86.328 
L 161.902179 103.968 
L 162.227158 101.448 
L 162.552138 93.888 
L 162.877117 93.888 
L 163.202097 98.928 
L 163.527076 109.008 
L 163.852056 101.448 
L 164.177035 98.928 
L 164.502015 88.848 
L 164.826994 91.368 
L 165.151974 101.448 
L 165.476953 106.488 
L 165.801933 103.968 
L 166.451892 86.328 
L 166.776871 91.368 
L 167.101851 98.928 
L 167.42683 98.928 
L 167.75181 96.408 
L 168.07679 88.848 
L 168.401769 86.328 
L 168.726749 86.328 
L 169.051728 91.368 
L 169.376708 91.368 
L 170.026667 81.288 
L 170.351646 78.768 
L 170.676626 83.808 
L 171.001605 86.328 
L 171.326585 86.328 
L 171.651564 73.728 
L 171.976544 68.688 
L 172.301523 71.208 
L 172.626503 76.248 
L 172.951482 78.768 
L 173.276462 76.248 
L 173.601441 68.688 
L 174.2514 63.648 
L 174.57638 68.688 
L 175.226339 68.688 
L 175.876298 63.648 
L 176.526257 68.688 
L 176.851237 63.648 
L 177.176216 63.648 
L 177.501196 66.168 
L 177.826175 66.168 
L 178.151155 68.688 
L 178.476134 73.728 
L 178.801114 73.728 
L 179.451073 68.688 
L 179.776052 73.728 
L 180.101032 76.248 
L 180.426011 81.288 
L 180.750991 83.808 
L 181.075971 81.288 
L 181.40095 81.288 
L 181.72593 86.328 
L 182.050909 86.328 
L 182.700868 98.928 
L 183.350827 98.928 
L 184.325766 119.088 
L 184.650745 119.088 
L 184.975725 121.608 
L 185.300704 126.648 
L 186.275643 146.808 
L 186.600622 146.808 
L 186.925602 151.848 
L 187.250581 154.368 
L 187.575561 159.408 
L 188.22552 177.048 
L 188.5505 177.048 
L 188.875479 184.608 
L 189.200459 187.128 
L 189.850418 199.728 
L 190.175397 204.768 
L 190.500377 207.288 
L 191.475315 227.448 
L 191.800295 227.448 
L 192.125274 235.008 
L 192.450254 237.528 
L 192.775233 242.568 
L 193.100213 250.128 
L 193.425192 250.128 
L 193.750172 252.648 
L 194.075152 260.208 
L 194.400131 262.728 
L 194.725111 267.768 
L 195.05009 267.768 
L 195.37507 272.808 
L 195.700049 272.808 
L 196.025029 275.328 
L 196.674988 285.408 
L 196.999967 285.408 
L 197.324947 290.448 
L 197.649926 287.928 
L 197.974906 290.448 
L 198.624865 290.448 
L 198.949844 287.928 
L 199.599803 292.968 
L 199.924783 292.968 
L 200.249762 285.408 
L 200.574742 290.448 
L 201.224701 285.408 
L 201.87466 285.408 
L 202.19964 282.888 
L 202.524619 285.408 
L 202.849599 280.368 
L 203.174578 282.888 
L 203.499558 280.368 
L 203.824537 280.368 
L 204.149517 275.328 
L 204.474496 280.368 
L 205.449435 272.808 
L 205.774414 277.848 
L 206.099394 280.368 
L 206.424373 287.928 
L 207.074333 287.928 
L 207.399312 285.408 
L 207.724292 285.408 
L 208.049271 282.888 
L 208.374251 285.408 
L 208.69923 290.448 
L 209.02421 285.408 
L 209.349189 282.888 
L 209.674169 285.408 
L 209.999148 285.408 
L 210.324128 287.928 
L 210.649107 285.408 
L 210.974087 287.928 
L 211.624046 282.888 
L 212.598984 282.888 
L 212.923964 285.408 
L 213.248943 280.368 
L 213.898903 285.408 
L 214.223882 285.408 
L 214.548862 282.888 
L 214.873841 285.408 
L 215.198821 285.408 
L 215.5238 287.928 
L 215.84878 282.888 
L 216.173759 287.928 
L 216.498739 285.408 
L 216.823718 285.408 
L 217.148698 280.368 
L 217.473677 285.408 
L 217.798657 285.408 
L 218.123636 287.928 
L 218.448616 282.888 
L 218.773595 280.368 
L 219.098575 285.408 
L 219.748534 285.408 
L 220.073514 290.448 
L 220.398493 285.408 
L 221.048452 280.368 
L 221.373432 287.928 
L 221.698411 290.448 
L 222.34837 285.408 
L 222.998329 285.408 
L 223.323309 287.928 
L 223.648288 282.888 
L 224.298247 287.928 
L 224.948206 282.888 
L 225.273186 287.928 
L 225.598165 290.448 
L 225.923145 287.928 
L 226.248124 282.888 
L 226.573104 285.408 
L 226.898084 285.408 
L 227.223063 287.928 
L 227.873022 287.928 
L 228.198002 285.408 
L 228.522981 287.928 
L 229.17294 287.928 
L 229.822899 282.888 
L 230.472858 287.928 
L 231.122817 287.928 
L 231.447797 282.888 
L 232.097756 287.928 
L 232.747715 287.928 
L 233.072695 285.408 
L 234.372613 255.168 
L 235.022572 227.448 
L 235.347551 222.408 
L 235.672531 224.928 
L 235.99751 229.968 
L 236.32249 224.928 
L 236.972449 182.088 
L 237.297428 166.968 
L 237.622408 169.488 
L 238.272367 184.608 
L 238.597346 172.008 
L 239.247305 114.048 
L 239.572285 111.528 
L 240.222244 144.288 
L 240.547224 141.768 
L 241.197183 91.368 
L 241.522162 86.328 
L 241.847142 93.888 
L 242.172121 106.488 
L 242.497101 101.448 
L 242.82208 83.808 
L 243.14706 73.728 
L 243.472039 78.768 
L 243.797019 88.848 
L 244.121998 88.848 
L 244.771957 58.608 
L 245.096937 58.608 
L 245.746896 83.808 
L 247.046814 56.088 
L 247.696773 68.688 
L 248.021753 71.208 
L 248.346732 71.208 
L 249.321671 63.648 
L 249.64665 58.608 
L 249.97163 63.648 
L 250.621589 76.248 
L 250.946568 73.728 
L 251.596527 73.728 
L 251.921507 78.768 
L 252.246486 78.768 
L 252.571466 83.808 
L 252.896446 78.768 
L 253.546405 88.848 
L 253.871384 91.368 
L 254.196364 91.368 
L 254.846323 78.768 
L 255.171302 83.808 
L 255.496282 96.408 
L 255.821261 103.968 
L 256.146241 101.448 
L 256.7962 86.328 
L 257.121179 93.888 
L 257.446159 96.408 
L 257.771138 103.968 
L 258.096118 98.928 
L 258.746077 93.888 
L 259.396036 103.968 
L 259.721016 103.968 
L 260.370975 88.848 
L 260.695954 91.368 
L 261.345913 103.968 
L 261.670893 106.488 
L 262.320852 88.848 
L 262.645831 88.848 
L 262.970811 98.928 
L 263.29579 101.448 
L 264.270729 86.328 
L 264.595708 86.328 
L 264.920688 93.888 
L 265.570647 83.808 
L 265.895627 83.808 
L 266.220606 78.768 
L 266.545586 83.808 
L 266.870565 86.328 
L 267.195545 86.328 
L 267.845504 71.208 
L 268.170483 71.208 
L 268.820442 81.288 
L 269.795381 66.168 
L 270.12036 68.688 
L 270.44534 68.688 
L 270.770319 73.728 
L 271.095299 73.728 
L 271.745258 61.128 
L 272.070238 68.688 
L 272.395217 68.688 
L 272.720197 71.208 
L 273.045176 63.648 
L 273.370156 66.168 
L 273.695135 66.168 
L 274.020115 71.208 
L 274.345094 73.728 
L 274.670074 73.728 
L 274.995053 71.208 
L 275.645012 71.208 
L 276.294971 83.808 
L 276.619951 81.288 
L 276.94493 81.288 
L 277.594889 86.328 
L 277.919869 91.368 
L 278.244848 93.888 
L 278.569828 98.928 
L 278.894808 98.928 
L 280.519705 124.128 
L 280.844685 121.608 
L 281.169664 124.128 
L 281.819623 136.728 
L 282.144603 141.768 
L 282.469582 149.328 
L 282.794562 151.848 
L 283.119541 156.888 
L 283.444521 159.408 
L 284.419459 179.568 
L 285.069419 189.648 
L 285.719378 202.248 
L 286.044357 204.768 
L 286.369337 209.808 
L 286.694316 217.368 
L 287.344275 222.408 
L 287.994234 235.008 
L 288.644193 245.088 
L 288.969173 252.648 
L 289.294152 252.648 
L 289.619132 257.688 
L 290.269091 262.728 
L 290.59407 270.288 
L 290.91905 272.808 
L 291.244029 270.288 
L 291.893989 275.328 
L 292.218968 282.888 
L 292.543948 282.888 
L 292.868927 287.928 
L 293.518886 292.968 
L 293.843866 287.928 
L 294.168845 292.968 
L 294.493825 290.448 
L 294.818804 292.968 
L 295.143784 290.448 
L 295.468763 290.448 
L 295.793743 292.968 
L 296.118722 292.968 
L 296.443702 285.408 
L 297.093661 285.408 
L 297.74362 280.368 
L 298.0686 285.408 
L 298.393579 285.408 
L 298.718559 282.888 
L 299.043538 277.848 
L 299.368518 282.888 
L 299.693497 277.848 
L 300.018477 280.368 
L 300.343456 277.848 
L 301.643374 277.848 
L 302.293333 287.928 
L 302.618313 287.928 
L 302.943292 285.408 
L 303.268272 287.928 
L 303.593251 287.928 
L 304.24321 282.888 
L 304.56819 287.928 
L 304.89317 285.408 
L 305.218149 287.928 
L 305.543129 285.408 
L 306.193088 285.408 
L 306.518067 290.448 
L 306.843047 285.408 
L 307.168026 282.888 
L 307.493006 285.408 
L 307.817985 282.888 
L 308.142965 282.888 
L 308.467944 285.408 
L 308.792924 285.408 
L 309.442883 280.368 
L 309.767862 285.408 
L 310.092842 287.928 
L 310.417821 285.408 
L 311.39276 285.408 
L 311.71774 287.928 
L 312.042719 287.928 
L 312.367699 285.408 
L 313.017658 285.408 
L 313.342637 282.888 
L 313.667617 285.408 
L 313.992596 290.448 
L 314.317576 287.928 
L 314.642555 280.368 
L 315.292514 285.408 
L 316.267453 285.408 
L 316.592432 282.888 
L 316.917412 287.928 
L 317.242391 282.888 
L 317.567371 285.408 
L 318.867289 285.408 
L 319.192269 290.448 
L 319.517248 287.928 
L 319.842228 280.368 
L 320.167207 282.888 
L 320.492187 282.888 
L 320.817166 287.928 
L 321.142146 287.928 
L 321.792105 282.888 
L 322.117084 285.408 
L 322.442064 285.408 
L 322.767043 290.448 
L 323.741982 282.888 
L 324.066962 287.928 
L 324.391941 290.448 
L 324.716921 290.448 
L 325.0419 285.408 
L 325.691859 285.408 
L 326.016839 287.928 
L 326.341818 287.928 
L 326.666798 285.408 
L 326.991777 285.408 
L 327.316757 287.928 
L 327.641736 282.888 
L 327.966716 285.408 
L 328.291695 285.408 
L 328.616675 287.928 
L 328.941654 282.888 
L 329.266634 280.368 
L 329.916593 267.768 
L 330.891532 227.448 
L 331.216511 224.928 
L 331.541491 224.928 
L 331.86647 229.968 
L 332.19145 222.408 
L 332.516429 204.768 
L 332.841409 179.568 
L 333.166388 166.968 
L 333.491368 166.968 
L 334.141327 184.608 
L 334.466306 174.528 
L 335.116265 121.608 
L 335.441245 111.528 
L 336.091204 144.288 
L 336.416183 144.288 
L 337.066143 91.368 
L 337.391122 86.328 
L 338.041081 103.968 
L 338.366061 101.448 
L 339.01602 73.728 
L 339.340999 76.248 
L 339.665979 86.328 
L 339.990958 86.328 
L 340.640917 56.088 
L 340.965897 58.608 
L 341.615856 86.328 
L 341.940835 78.768 
L 342.590794 53.568 
L 342.915774 58.608 
L 343.240753 61.128 
L 343.565733 68.688 
L 343.890713 68.688 
L 344.215692 71.208 
L 344.540672 68.688 
L 344.865651 68.688 
L 345.190631 66.168 
L 345.51561 66.168 
L 345.84059 63.648 
L 346.490549 78.768 
L 346.815528 76.248 
L 347.140508 71.208 
L 347.465487 71.208 
L 347.790467 73.728 
L 348.115446 81.288 
L 348.440426 78.768 
L 349.090385 78.768 
L 349.415364 86.328 
L 349.740344 86.328 
L 350.065324 91.368 
L 350.390303 86.328 
L 351.040262 81.288 
L 351.365242 96.408 
L 352.015201 101.448 
L 352.66516 86.328 
L 352.990139 88.848 
L 353.315119 98.928 
L 353.640098 98.928 
L 353.965078 96.408 
L 354.290057 96.408 
L 354.615037 93.888 
L 355.264996 103.968 
L 355.589975 101.448 
L 355.914955 101.448 
L 356.239934 93.888 
L 356.564914 93.888 
L 356.889894 98.928 
L 357.214873 109.008 
L 357.539853 103.968 
L 357.864832 91.368 
L 358.189812 86.328 
L 358.839771 96.408 
L 359.16475 98.928 
L 359.48973 96.408 
L 360.139689 86.328 
L 360.464668 86.328 
L 360.789648 91.368 
L 361.114627 93.888 
L 362.089566 78.768 
L 362.414545 83.808 
L 362.739525 86.328 
L 363.714464 71.208 
L 364.039443 68.688 
L 364.689402 78.768 
L 365.014382 73.728 
L 365.339361 66.168 
L 365.664341 63.648 
L 365.98932 66.168 
L 366.3143 71.208 
L 366.964259 71.208 
L 367.289238 63.648 
L 367.614218 63.648 
L 368.264177 68.688 
L 368.589156 68.688 
L 368.914136 66.168 
L 369.239115 58.608 
L 369.889075 68.688 
L 370.539034 73.728 
L 370.864013 73.728 
L 371.188993 71.208 
L 371.513972 76.248 
L 371.838952 76.248 
L 372.163931 81.288 
L 372.488911 83.808 
L 372.81389 83.808 
L 373.13887 86.328 
L 373.463849 86.328 
L 373.788829 91.368 
L 374.113808 98.928 
L 374.438788 96.408 
L 374.763767 101.448 
L 375.413726 106.488 
L 376.063686 121.608 
L 376.388665 124.128 
L 376.713645 124.128 
L 377.038624 126.648 
L 377.363604 131.688 
L 378.013563 146.808 
L 378.663522 151.848 
L 378.988501 156.888 
L 379.63846 169.488 
L 380.288419 179.568 
L 380.938378 184.608 
L 381.263358 194.688 
L 381.913317 204.768 
L 382.238296 207.288 
L 383.213235 227.448 
L 383.863194 232.488 
L 384.513153 245.088 
L 384.838133 247.608 
L 385.163112 252.648 
L 386.138051 260.208 
L 387.112989 275.328 
L 387.437969 275.328 
L 387.762948 277.848 
L 388.087928 277.848 
L 388.412907 285.408 
L 388.737887 285.408 
L 389.062867 290.448 
L 389.387846 287.928 
L 389.712826 292.968 
L 390.037805 287.928 
L 390.362785 292.968 
L 390.687764 292.968 
L 391.337723 287.928 
L 391.662703 290.448 
L 391.987682 290.448 
L 392.312662 295.488 
L 392.637641 285.408 
L 392.962621 282.888 
L 393.2876 282.888 
L 393.937559 287.928 
L 394.587518 282.888 
L 394.912498 285.408 
L 395.237477 282.888 
L 395.887437 282.888 
L 396.212416 277.848 
L 396.537396 277.848 
L 396.862375 275.328 
L 397.187355 275.328 
L 397.512334 280.368 
L 397.837314 280.368 
L 398.162293 287.928 
L 398.487273 287.928 
L 398.487273 287.928 
" clip-path="url(#pd33d2c1e5e)" style="fill: none; stroke: #2ca02c; stroke-width: 1.5; stroke-linecap: square"/>
   </g>
   <g id="patch_3">
    <path d="M 57.6 307.584 
L 57.6 41.472 
" style="fill: none; stroke: #000000; stroke-width: 0.8; stroke-linejoin: miter; stroke-linecap: square"/>
   </g>
   <g id="patch_4">
    <path d="M 414.72 307.584 
L 414.72 41.472 
" style="fill: none; stroke: #000000; stroke-width: 0.8; stroke-linejoin: miter; stroke-linecap: square"/>
   </g>
   <g id="patch_5">
    <path d="M 57.6 307.584 
L 414.72 307.584 
" style="fill: none; stroke: #000000; stroke-width: 0.8; stroke-linejoin: miter; stroke-linecap: square"/>
   </g>
   <g id="patch_6">
    <path d="M 57.6 41.472 
L 414.72 41.472 
" style="fill: none; stroke: #000000; stroke-width: 0.8; stroke-linejoin: miter; stroke-linecap: square"/>
   </g>
  </g>
 </g>
 <defs>
  <clipPath id="pd33d2c1e5e">
   <rect x="57.6" y="41.472" width="357.12" height="266.112"/>
  </clipPath>
 </defs>
</svg>
