  0
SECTION
  2
HEADER
  9
$ACADVER
  1
AC1009
  9
$INSBASE
 10
0.0
 20
0.0
 30
0.0
  9
$EXTMIN
 10
-172.7027825149565103
 20
-314.0741779268000187
 30
0.0
  9
$EXTMAX
 10
314.0741779268000187
 20
314.0741779268000187
 30
0.0
  9
$LIMMIN
 10
0.0
 20
0.0
  9
$LIMMAX
 10
12.0
 20
9.0
  9
$ORTHOMODE
 70
     0
  9
$REGENMODE
 70
     1
  9
$FILLMODE
 70
     1
  9
$QTEXTMODE
 70
     0
  9
$MIRRTEXT
 70
     0
  9
$DRAGMODE
 70
     2
  9
$LTSCALE
 40
1.0
  9
$OSMODE
 70
  3183
  9
$ATTMODE
 70
     1
  9
$TEXTSIZE
 40
0.2
  9
$TRACEWID
 40
0.05
  9
$TEXTSTYLE
  7
STANDARD
  9
$CLAYER
  8
0
  9
$CELTYPE
  6
BYLAYER
  9
$CECOLOR
 62
   256
  9
$DIMSCALE
 40
1.0
  9
$DIMASZ
 40
0.18
  9
$DIMEXO
 40
0.0625
  9
$DIMDLI
 40
0.38
  9
$DIMRND
 40
0.0
  9
$DIMDLE
 40
0.0
  9
$DIMEXE
 40
0.18
  9
$DIMTP
 40
0.0
  9
$DIMTM
 40
0.0
  9
$DIMTXT
 40
0.18
  9
$DIMCEN
 40
0.09
  9
$DIMTSZ
 40
0.0
  9
$DIMTOL
 70
     0
  9
$DIMLIM
 70
     0
  9
$DIMTIH
 70
     1
  9
$DIMTOH
 70
     1
  9
$DIMSE1
 70
     0
  9
$DIMSE2
 70
     0
  9
$DIMTAD
 70
     0
  9
$DIMZIN
 70
     0
  9
$DIMBLK
  1

  9
$DIMASO
 70
     1
  9
$DIMSHO
 70
     1
  9
$DIMPOST
  1

  9
$DIMAPOST
  1

  9
$DIMALT
 70
     0
  9
$DIMALTD
 70
     2
  9
$DIMALTF
 40
25.3999999999999986
  9
$DIMLFAC
 40
1.0
  9
$DIMTOFL
 70
     0
  9
$DIMTVP
 40
0.0
  9
$DIMTIX
 70
     0
  9
$DIMSOXD
 70
     0
  9
$DIMSAH
 70
     0
  9
$DIMBLK1
  1

  9
$DIMBLK2
  1

  9
$DIMSTYLE
  2
STANDARD
  9
$DIMCLRD
 70
     0
  9
$DIMCLRE
 70
     0
  9
$DIMCLRT
 70
     0
  9
$DIMTFAC
 40
1.0
  9
$DIMGAP
 40
0.09
  9
$LUNITS
 70
     2
  9
$LUPREC
 70
     4
  9
$SKETCHINC
 40
0.1
  9
$FILLETRAD
 40
0.0
  9
$AUNITS
 70
     0
  9
$AUPREC
 70
     0
  9
$MENU
  1
.
  9
$ELEVATION
 40
0.0
  9
$PELEVATION
 40
0.0
  9
$THICKNESS
 40
0.0
  9
$LIMCHECK
 70
     0
  9
$BLIPMODE
 70
     0
  9
$CHAMFERA
 40
0.0
  9
$CHAMFERB
 40
0.0
  9
$SKPOLY
 70
     0
  9
$TDCREATE
 40
2461023.8655671291053295
  9
$TDUPDATE
 40
2461023.9035300929099321
  9
$TDINDWG
 40
0.0359490741
  9
$TDUSRTIMER
 40
0.0359490741
  9
$USRTIMER
 70
     1
  9
$ANGBASE
 50
0.0
  9
$ANGDIR
 70
     0
  9
$PDMODE
 70
     0
  9
$PDSIZE
 40
0.0
  9
$PLINEWID
 40
0.0
  9
$COORDS
 70
     1
  9
$SPLFRAME
 70
     0
  9
$SPLINETYPE
 70
     6
  9
$SPLINESEGS
 70
     8
  9
$ATTDIA
 70
     1
  9
$ATTREQ
 70
     1
  9
$HANDLING
 70
     1
  9
$HANDSEED
  5
6580
  9
$SURFTAB1
 70
     6
  9
$SURFTAB2
 70
     6
  9
$SURFTYPE
 70
     6
  9
$SURFU
 70
     6
  9
$SURFV
 70
     6
  9
$UCSNAME
  2

  9
$UCSORG
 10
0.0
 20
0.0
 30
0.0
  9
$UCSXDIR
 10
1.0
 20
0.0
 30
0.0
  9
$UCSYDIR
 10
0.0
 20
1.0
 30
0.0
  9
$PUCSNAME
  2

  9
$PUCSORG
 10
0.0
 20
0.0
 30
0.0
  9
$PUCSXDIR
 10
1.0
 20
0.0
 30
0.0
  9
$PUCSYDIR
 10
0.0
 20
1.0
 30
0.0
  9
$USERI1
 70
     0
  9
$USERI2
 70
     0
  9
$USERI3
 70
     0
  9
$USERI4
 70
     0
  9
$USERI5
 70
     0
  9
$USERR1
 40
0.0
  9
$USERR2
 40
0.0
  9
$USERR3
 40
0.0
  9
$USERR4
 40
0.0
  9
$USERR5
 40
0.0
  9
$WORLDVIEW
 70
     1
  9
$SHADEDGE
 70
     3
  9
$SHADEDIF
 70
    70
  9
$TILEMODE
 70
     1
  9
$MAXACTVP
 70
    64
  9
$PLIMCHECK
 70
     0
  9
$PEXTMIN
 10
0.0
 20
0.0
 30
0.0
  9
$PEXTMAX
 10
0.0
 20
0.0
 30
0.0
  9
$PLIMMIN
 10
0.0
 20
0.0
  9
$PLIMMAX
 10
12.0
 20
9.0
  9
$UNITMODE
 70
     0
  9
$VISRETAIN
 70
     1
  9
$PLINEGEN
 70
     0
  9
$PSLTSCALE
 70
     1
  0
ENDSEC
  0
SECTION
  2
TABLES
  0
TABLE
  2
VPORT
 70
     1
  0
VPORT
  2
*ACTIVE
 70
     0
 10
0.0
 20
0.0
 11
1.0
 21
1.0
 12
23.47853587544137
 22
47.6048750526881008
 13
0.0
 23
0.0
 14
0.5
 24
0.5
 15
0.5
 25
0.5
 16
0.0
 26
0.0
 36
1.0
 17
0.0
 27
0.0
 37
0.0
 40
454.2061879299142788
 41
2.0373931623931618
 42
50.0
 43
0.0
 44
0.0
 50
0.0
 51
0.0
 71
     0
 72
  1000
 73
     1
 74
     3
 75
     0
 76
     1
 77
     0
 78
     0
  0
ENDTAB
  0
TABLE
  2
LTYPE
 70
     3
  0
LTYPE
  2
CONTINUOUS
 70
     0
  3
Solid line
 72
    65
 73
     0
 40
0.0
  0
LTYPE
  2
CENTERX2
 70
     0
  3
Center (2x) ________  __  ________  __  _____
 72
    65
 73
     4
 40
20.3200000000000003
 49
12.6999999999999993
 49
-2.54
 49
2.54
 49
-2.54
  0
ENDTAB
  0
TABLE
  2
LAYER
 70
     1
  0
LAYER
  2
0
 70
     0
 62
     7
  6
CONTINUOUS
  0
ENDTAB
  0
TABLE
  2
STYLE
 70
     3
  0
STYLE
  2
STANDARD
 70
     0
 40
0.0
 41
1.0
 50
0.0
 71
     0
 42
0.2
  3
txt
  4

  0
STYLE
  2
ANNOTATIVE
 70
     0
 40
0.0
 41
1.0
 50
0.0
 71
     0
 42
0.2
  3
txt
  4

  0
STYLE
  2
SLDTEXTSTYLE0
 70
     0
 40
0.0
 41
0.75
 50
0.0
 71
     0
 42
3.174999999999998
  3
TXT
  4

  0
ENDTAB
  0
TABLE
  2
VIEW
 70
     0
  0
ENDTAB
  0
TABLE
  2
UCS
 70
     0
  0
ENDTAB
  0
TABLE
  2
APPID
 70
     8
  0
APPID
  2
ACAD
 70
     0
  0
APPID
  2
ACADANNOTATIVE
 70
     0
  0
APPID
  2
ACADANNOPO
 70
     0
  0
APPID
  2
ACAD_DSTYLE_DIMJAG
 70
     0
  0
APPID
  2
ACAD_DSTYLE_DIMTALN
 70
     0
  0
APPID
  2
ACAD_MLEADERVER
 70
     0
  0
APPID
  2
ACAD_NAV_VCDISPLAY
 70
     0
  0
APPID
  2
ACAD_EXEMPT_FROM_CAD_STANDARDS
 70
     0
  0
ENDTAB
  0
TABLE
  2
DIMSTYLE
 70
     4
  0
DIMSTYLE
  2
STANDARD
 70
     0
  3

  4

  5

  6

  7

 40
1.0
 41
0.18
 42
0.0625
 43
0.38
 44
0.18
 45
0.0
 46
0.0
 47
0.0
 48
0.0
140
0.18
141
0.09
142
0.0
143
25.3999999999999986
144
1.0
145
0.0
146
1.0
147
0.09
 71
     0
 72
     0
 73
     1
 74
     1
 75
     0
 76
     0
 77
     0
 78
     0
170
     0
171
     2
172
     0
173
     0
174
     0
175
     0
176
     0
177
     0
178
     0
  0
DIMSTYLE
  2
ANNOTATIVE
 70
     0
  3

  4

  5

  6

  7

 40
0.0
 41
0.18
 42
0.0625
 43
0.38
 44
0.18
 45
0.0
 46
0.0
 47
0.0
 48
0.0
140
0.18
141
0.09
142
0.0
143
25.3999999999999986
144
1.0
145
0.0
146
1.0
147
0.09
 71
     0
 72
     0
 73
     1
 74
     1
 75
     0
 76
     0
 77
     0
 78
     0
170
     0
171
     2
172
     0
173
     0
174
     0
175
     0
176
     0
177
     0
178
     0
  0
DIMSTYLE
  2
ISO-25
 70
     0
  3

  4

  5

  6

  7

 40
1.0
 41
2.5
 42
0.625
 43
3.75
 44
1.25
 45
0.0
 46
0.0
 47
0.0
 48
0.0
140
2.5
141
2.5
142
0.0
143
0.0393700787
144
1.0
145
0.0
146
1.0
147
0.625
 71
     0
 72
     0
 73
     0
 74
     0
 75
     0
 76
     0
 77
     1
 78
     8
170
     0
171
     3
172
     1
173
     0
174
     0
175
     0
176
     0
177
     0
178
     0
  0
ENDTAB
  0
ENDSEC
  0
SECTION
  2
BLOCKS
  0
BLOCK
  8
0
  2
$MODEL_SPACE
 70
     0
 10
0.0
 20
0.0
 30
0.0
  3
$MODEL_SPACE
  1

  0
ENDBLK
  5
62A2
  8
0
  0
BLOCK
 67
     1
  8
0
  2
$PAPER_SPACE
 70
     0
 10
0.0
 20
0.0
 30
0.0
  3
$PAPER_SPACE
  1

  0
ENDBLK
  5
629E
 67
     1
  8
0
  0
BLOCK
  8
0
  2
*X8
 70
     1
 10
0.0
 20
0.0
 30
0.0
  3
*X8
  1

  0
LINE
  5
6561
  8
0
 62
     0
 10
37.7554276024598607
 20
62.3699598914803914
 30
0.0
 11
37.5359270276913932
 21
62.5894604662488589
 31
0.0
  0
ENDBLK
  5
6563
  8
0
  0
BLOCK
  8
0
  2
*X9
 70
     1
 10
0.0
 20
0.0
 30
0.0
  3
*X9
  1

  0
LINE
  5
6565
  8
0
 62
     0
 10
28.8066359560928085
 20
62.3384954167783008
 30
0.0
 11
28.5248771001442982
 21
62.6202542727267968
 31
0.0
  0
ENDBLK
  5
6567
  8
0
  0
BLOCK
  8
0
  2
*X10
 70
     1
 10
0.0
 20
0.0
 30
0.0
  3
*X10
  1

  0
LINE
  5
6569
  8
0
 62
     0
 10
19.5446209790751411
 20
62.6202542727268181
 30
0.0
 11
19.4720990109677992
 21
62.6927762408341422
 31
0.0
  0
ENDBLK
  5
656B
  8
0
  0
BLOCK
  8
0
  2
*X11
 70
     1
 10
0.0
 20
0.0
 30
0.0
  3
*X11
  1

  0
LINE
  5
656D
  8
0
 62
     0
 10
64.7028451990337885
 20
35.4225422949064708
 30
0.0
 11
64.5784732638735477
 21
35.5469142300667116
 31
0.0
  0
ENDBLK
  5
656F
  8
0
  0
BLOCK
  8
0
  2
*X12
 70
     1
 10
0.0
 20
0.0
 30
0.0
  3
*X12
  1

  0
LINE
  5
6571
  8
0
 62
     0
 10
55.7748905245594528
 20
35.3702408483116528
 30
0.0
 11
55.5248875455489994
 21
35.6202438273221134
 31
0.0
  0
ENDBLK
  5
6573
  8
0
  0
BLOCK
  8
0
  2
*X13
 70
     1
 10
0.0
 20
0.0
 30
0.0
  3
*X13
  1

  0
LINE
  5
6575
  8
0
 62
     0
 10
37.8669313433022694
 20
35.3176877874305433
 30
0.0
 11
37.4702183965504219
 21
35.7144007341823908
 31
0.0
  0
ENDBLK
  5
6577
  8
0
  0
BLOCK
  8
0
  2
*X14
 70
     1
 10
0.0
 20
0.0
 30
0.0
  3
*X14
  1

  0
LINE
  5
6579
  8
0
 62
     0
 10
28.9020495077463089
 20
35.3023135019174106
 30
0.0
 11
28.5248771001443089
 21
35.679485909519407
 31
0.0
  0
ENDBLK
  5
657B
  8
0
  0
BLOCK
  8
0
  2
*X15
 70
     1
 10
0.0
 20
0.0
 30
0.0
  3
*X15
  1

  0
LINE
  5
657D
  8
0
 62
     0
 10
19.5446209790751411
 20
35.6794859095193218
 30
0.0
 11
19.4350280461017597
 21
35.7890788424926996
 31
0.0
  0
ENDBLK
  5
657F
  8
0
  0
ENDSEC
  0
SECTION
  2
ENTITIES
  0
CIRCLE
  5
64DD
  8
0
  6
CONTINUOUS
 62
     7
 10
83.2502220860999955
 20
63.0809617517999683
 30
0.0
 40
0.8663462915673957
  0
CIRCLE
  5
64E0
  8
0
  6
CONTINUOUS
 62
     7
 10
20.2468078962999698
 20
63.0822049682999975
 30
0.0
 40
0.8670815728081217
  0
CIRCLE
  5
64E2
  8
0
  6
CONTINUOUS
 62
     7
 10
29.2509203408000111
 20
63.0815434586999686
 30
0.0
 40
0.8666946971208371
  0
CIRCLE
  5
64E3
  8
0
  6
CONTINUOUS
 62
     7
 10
38.2493316233000087
 20
63.0812620636999668
 30
0.0
 40
0.8665271435044459
  0
CIRCLE
  5
64E5
  8
0
  6
CONTINUOUS
 62
     7
 10
47.2516449121000122
 20
63.0811415558000022
 30
0.0
 40
0.8664550433283835
  0
CIRCLE
  5
64E8
  8
0
  6
CONTINUOUS
 62
     7
 10
56.2505223122000331
 20
63.0810609289000013
 30
0.0
 40
0.8664063952694959
  0
CIRCLE
  5
64E9
  8
0
  6
CONTINUOUS
 62
     7
 10
65.2507091412999216
 20
63.081014387399982
 30
0.0
 40
0.8663782461683394
  0
CIRCLE
  5
64EC
  8
0
  6
CONTINUOUS
 62
     7
 10
74.2517905573999997
 20
63.0809904710999803
 30
0.0
 40
0.8663638061145814
  0
CIRCLE
  5
64EE
  8
0
  6
CONTINUOUS
 62
     7
 10
20.2468078962999698
 20
36.0947049682999932
 30
0.0
 40
0.8670815728079382
  0
CIRCLE
  5
64EF
  8
0
  6
CONTINUOUS
 62
     7
 10
29.2509203408000111
 20
36.0940434586999572
 30
0.0
 40
0.8666946971208371
  0
CIRCLE
  5
64F2
  8
0
  6
CONTINUOUS
 62
     7
 10
56.2505223122000189
 20
36.0935609288999899
 30
0.0
 40
0.8664063952692366
  0
CIRCLE
  5
64F5
  8
0
  6
CONTINUOUS
 62
     7
 10
47.2516449121000122
 20
36.0936415557999908
 30
0.0
 40
0.8664550433283835
  0
CIRCLE
  5
64F7
  8
0
  6
CONTINUOUS
 62
     7
 10
83.2502220860999955
 20
36.0934617518000209
 30
0.0
 40
0.866346291567622
  0
CIRCLE
  5
64F9
  8
0
  6
CONTINUOUS
 62
     7
 10
65.2507091412999216
 20
36.0935143874000275
 30
0.0
 40
0.8663782461682545
  0
CIRCLE
  5
64FB
  8
0
  6
CONTINUOUS
 62
     7
 10
74.2517905573999997
 20
36.0934904710999831
 30
0.0
 40
0.8663638061145389
  0
CIRCLE
  5
64FC
  8
0
  6
CONTINUOUS
 62
     7
 10
38.2493316233000087
 20
36.0937620637000123
 30
0.0
 40
0.8665271435045639
  0
INSERT
  5
6501
  8
0
  6
CONTINUOUS
 62
     7
  2
*X8
 10
0.0
 20
0.0
 30
0.0
1001
ACAD
1000
HATCH
1002
{
1070
    19
1000
ANSI33
1040
1.0
1040
1.5707963267948959
1000
R14_HATCH_DATA
1000
6501
1011
1.0
1021
0.0
1031
0.0
1021
0.0
1031
0.0
1011
0.0
1021
0.0
1031
0.0
1021
1.0
1031
0.0
1011
0.0
1021
0.0
1031
0.0
1021
0.0
1031
1.0
1040
0.0
1010
0.0
1020
0.0
1030
1.0
1000
ANSI33
1070
     0
1070
     0
1071
        1
1071
        0
1071
        1
1070
     4
1070
     3
1070
     1
1070
     0
1071
       62
1071
       58
1040
0.0
1040
0.0
1040
0.0
1040
0.0
1040
0.0002923901203216
1040
0.0002923901203216
1040
0.0002923901203216
1040
0.000584340122871
1040
0.000584340122871
1040
0.000584340122871
1040
0.0008801888901515
1040
0.0008801888901515
1040
0.0008801888901515
1040
0.0011649873857599
1040
0.0011649873857599
1040
0.0011649873857599
1040
0.0014628355724843
1040
0.0014628355724843
1040
0.0014628355724843
1040
0.0017472257712258
1040
0.0017472257712258
1040
0.0017472257712258
1040
0.0020425773658139
1040
0.0020425773658139
1040
0.0020425773658139
1040
0.0023312608540611
1040
0.0023312608540611
1040
0.0023312608540611
1040
0.0026208882144495
1040
0.0026208882144495
1040
0.0026208882144495
1040
0.0029160101840613
1040
0.0029160101840613
1040
0.0029160101840613
1040
0.0032007224490004
1040
0.0032007224490004
1040
0.0032007224490004
1040
0.0034985959513246
1040
0.0034985959513246
1040
0.0034985959513246
1040
0.0037831440686151
1040
0.0037831440686151
1040
0.0037831440686151
1040
0.004079124231657
1040
0.004079124231657
1040
0.004079124231657
1040
0.0043677277382394
1040
0.0043677277382394
1040
0.0043677277382394
1040
0.0046578799214718
1040
0.0046578799214718
1040
0.0046578799214718
1040
0.0049525342204601
1040
0.0049525342204601
1040
0.0049525342204601
1040
0.0052370670846041
1040
0.0052370670846041
1040
0.0052370670846041
1040
0.0054136655456532
1040
0.0054136655456532
1040
0.0054136655456532
1040
0.0054136655456532
1040
37.6743332764919003
1040
62.432998080775981
1040
1.0
1040
37.7474314616793123
1040
62.3685328615898698
1040
1.0
1040
37.833112166621973
1040
62.3164244637334832
1040
1.0
1040
37.9235405273310633
1040
62.2800676109839131
1040
1.0
1040
38.0138683474559826
1040
62.2437511807209987
1040
1.0
1040
38.1115480377237716
1040
62.2220482860755126
1040
1.0
1040
38.2087889009898305
1040
62.217335250235692
1040
1.0
1040
38.307191446838722
1040
62.2125659103745079
1040
1.0
1040
38.4078499824568169
1040
62.2257453883084892
1040
1.0
1040
38.5019396368128426
1040
62.2549506031756366
1040
1.0
1040
38.5926937218674766
1040
62.2831204649126491
1040
1.0
1040
38.6799574421463674
1040
62.3266256387283875
1040
1.0
1040
38.7570456212698673
1040
62.3821887353290023
1040
1.0
1040
38.8374839338371274
1040
62.4401665184648209
1040
1.0
1040
38.9088741014172825
1040
62.5133351553873169
1040
1.0
1040
38.9643566255781622
1040
62.5955144409691684
1040
1.0
1040
39.017457162635317
1040
62.6741655886116789
1040
1.0
1040
39.057926952748069
1040
62.7627630063519675
1040
1.0
1040
39.0831101278003104
1040
62.8542587863395781
1040
1.0
1040
39.1092258648208215
1040
62.949142760408499
1040
1.0
1040
39.1195826007894993
1040
63.0499494772764706
1040
1.0
1040
39.1120557364868233
1040
63.1480736158408718
1040
1.0
1040
39.1046925512216674
1040
63.2440639488904708
1040
1.0
1040
39.0801884301070075
1040
63.3399647942136426
1040
1.0
1040
39.0415999578790505
1040
63.4281650796289682
1040
1.0
1040
39.0028778390255866
1040
63.5166708363368002
1040
1.0
1040
38.9488965373927911
1040
63.5999715932603067
1040
1.0
1040
38.8834411297372071
1040
63.6710227091388106
1040
1.0
1040
38.8168435993547973
1040
63.7433135865146028
1040
1.0
1040
38.7360825842135981
1040
63.8044165445143676
1040
1.0
1040
38.6487952206646312
1040
63.8496063461232595
1040
1.0
1040
38.5644268244115125
1040
63.8932849604578266
1040
1.0
1040
38.4717807071816722
1040
63.9236130837629091
1040
1.0
1040
38.3779045398905581
1040
63.9382114689904029
1040
1.0
1040
38.2799119493296374
1040
63.9534499861530321
1040
1.0
1040
38.1776924096543624
1040
63.9514836790606793
1040
1.0
1040
38.0804587153368175
1040
63.9319806305928182
1040
1.0
1040
37.9873554173012806
1040
63.9133060533605502
1040
1.0
1040
37.8962467647488666
1040
63.8787080126367002
1040
1.0
1040
37.8139705620792483
1040
63.8312992538026833
1040
1.0
1040
37.7285210042741781
1040
63.7820619610373569
1040
1.0
1040
37.6501403116669806
1040
63.7174726239509823
1040
1.0
1040
37.586446447878771
1040
63.6421796651586575
1040
1.0
1040
37.5242783407937921
1040
63.5686903139627972
1040
1.0
1040
37.4743304880698886
1040
63.4832641459548199
1040
1.0
1040
37.4397994252258428
1040
63.3934133586648727
1040
1.0
1040
37.4050803847228579
1040
63.3030734482706521
1040
1.0
1040
37.3849245074926628
1040
63.2056763157048707
1040
1.0
1040
37.3816539446913865
1040
63.1089498219068332
1040
1.0
1040
37.3783372047033779
1040
63.0108576434733365
1040
1.0
1040
37.3929496093526268
1040
62.9108003442348718
1040
1.0
1040
37.4233140573507015
1040
62.8174671961481934
1040
1.0
1040
37.4526893661644706
1040
62.7271744285080786
1040
1.0
1040
37.4973241101215606
1040
62.6405658370476317
1040
1.0
1040
37.5538975296740389
1040
62.564308766187537
1040
1.0
1040
37.5892846144466901
1040
62.5166094145769691
1040
1.0
1040
37.6297884716170827
1040
62.472282101336809
1040
1.0
1040
37.6743332764919003
1040
62.432998080775981
1040
1.0
1071
        0
1070
     0
1070
     1
1040
1.5707963267948959
1040
1.0
1070
     0
1070
     2
1040
2.3561944901923439
1040
590.9134166820998644
1040
-279.7520122825001181
1040
-4.4901280605345768
1040
-4.4901280605345768
1070
     0
1040
2.3561944901923439
1040
590.9134166820998644
1040
-275.2618822825000962
1040
-4.4901280605345768
1040
-4.4901280605345768
1070
     2
1040
3.1749999999999989
1040
-1.587499999999999
1071
        1
1040
590.9134166820998644
1040
-279.7520122825001181
1040
0.0
1002
}
  0
INSERT
  5
6503
  8
0
  6
CONTINUOUS
 62
     7
  2
*X9
 10
0.0
 20
0.0
 30
0.0
1001
ACAD
1000
HATCH
1002
{
1070
    19
1000
ANSI33
1040
1.0
1040
1.5707963267948959
1000
R14_HATCH_DATA
1000
6503
1011
1.0
1021
0.0
1031
0.0
1021
0.0
1031
0.0
1011
0.0
1021
0.0
1031
0.0
1021
1.0
1031
0.0
1011
0.0
1021
0.0
1031
0.0
1021
0.0
1031
1.0
1040
0.0
1010
0.0
1020
0.0
1030
1.0
1000
ANSI33
1070
     0
1070
     0
1071
        1
1071
        0
1071
        1
1070
     4
1070
     3
1070
     1
1070
     0
1071
       62
1071
       58
1040
0.0
1040
0.0
1040
0.0
1040
0.0
1040
0.0002925949316146
1040
0.0002925949316146
1040
0.0002925949316146
1040
0.0005847447036929
1040
0.0005847447036929
1040
0.0005847447036929
1040
0.0008808665002356
1040
0.0008808665002356
1040
0.0008808665002356
1040
0.0011659477247452
1040
0.0011659477247452
1040
0.0011659477247452
1040
0.0014639974226448
1040
0.0014639974226448
1040
0.0014639974226448
1040
0.0017484403626049
1040
0.0017484403626049
1040
0.0017484403626049
1040
0.002043752803122
1040
0.002043752803122
1040
0.002043752803122
1040
0.00233226278697
1040
0.00233226278697
1040
0.00233226278697
1040
0.0026218116849054
1040
0.0026218116849054
1040
0.0026218116849054
1040
0.0029168937915339
1040
0.0029168937915339
1040
0.0029168937915339
1040
0.0032017210482588
1040
0.0032017210482588
1040
0.0032017210482588
1040
0.003499833824457
1040
0.003499833824457
1040
0.003499833824457
1040
0.0037846626715956
1040
0.0037846626715956
1040
0.0037846626715956
1040
0.0040809088900877
1040
0.0040809088900877
1040
0.0040809088900877
1040
0.0043696037724482
1040
0.0043696037724482
1040
0.0043696037724482
1040
0.0046597694948805
1040
0.0046597694948805
1040
0.0046597694948805
1040
0.0049542534024201
1040
0.0049542534024201
1040
0.0049542534024201
1040
0.0052386532371455
1040
0.0052386532371455
1040
0.0052386532371455
1040
0.0054149942812168
1040
0.0054149942812168
1040
0.0054149942812168
1040
0.0054149942812168
1040
28.6759867874282115
1040
62.432998080775981
1040
1.0
1040
28.7491530785267813
1040
62.3685068767001667
1040
1.0
1040
28.8349104492476798
1040
62.3163885799461426
1040
1.0
1040
28.9254125444746286
1040
62.2800321181293199
1040
1.0
1040
29.0158130755728614
1040
62.2437164566095973
1040
1.0
1040
29.1135644809597913
1040
62.2220239318369934
1040
1.0
1040
29.2108734168566606
1040
62.2173277324034686
1040
1.0
1040
29.3093677837394004
1040
62.2125743232156196
1040
1.0
1040
29.4101163276767501
1040
62.2257856287698132
1040
1.0
1040
29.5042873689336602
1040
62.2550354184296495
1040
1.0
1040
29.5951255514861487
1040
62.2832500128238209
1040
1.0
1040
29.6824680501066496
1040
62.3268161614914789
1040
1.0
1040
29.759615621761899
1040
62.3824568923815193
1040
1.0
1040
29.8400901937677716
1040
62.4404971379577773
1040
1.0
1040
29.911502362320789
1040
62.5137435139582109
1040
1.0
1040
29.9669830435130997
1040
62.5960035945595266
1040
1.0
1040
30.0200562599459317
1040
62.6746941759963079
1040
1.0
1040
30.0604914349141907
1040
62.7633288743755884
1040
1.0
1040
30.0856261050790899
1040
62.8548560411900894
1040
1.0
1040
30.1116832319027097
1040
62.949742306968119
1040
1.0
1040
30.1219742011280687
1040
63.0505445553111485
1040
1.0
1040
30.1143764824265716
1040
63.1486498658816231
1040
1.0
1040
30.1069472882829885
1040
63.2445791082431583
1040
1.0
1040
30.0823929386272084
1040
63.3404060036766623
1040
1.0
1040
30.0437720444707601
1040
63.4285311363021194
1040
1.0
1040
30.0050048332602799
1040
63.5169901350913619
1040
1.0
1040
29.9509861805838717
1040
63.600235348664107
1040
1.0
1040
29.8855071639386587
1040
63.6712310493156792
1040
1.0
1040
29.8188760391687993
1040
63.7434759245534792
1040
1.0
1040
29.7380946164272508
1040
63.8045276500258183
1040
1.0
1040
29.6507999977820909
1040
63.8496793758158674
1040
1.0
1040
29.5663799715135909
1040
63.8933442653178574
1040
1.0
1040
29.4736870957540411
1040
63.923653584685951
1040
1.0
1040
29.3797682286120789
1040
63.9382347302227387
1040
1.0
1040
29.2816926261595007
1040
63.9534612196013015
1040
1.0
1040
29.1793919878955492
1040
63.9514694899501066
1040
1.0
1040
29.0820833098717983
1040
63.9319325772837601
1040
1.0
1040
28.9888918756226985
1040
63.9132222942016597
1040
1.0
1040
28.8976990207098687
1040
63.8785742739161222
1040
1.0
1040
28.8153524443229188
1040
63.8311004972833871
1040
1.0
1040
28.7298381008090509
1040
63.7818004653818207
1040
1.0
1040
28.6514028473637907
1040
63.717130307400339
1040
1.0
1040
28.5876844583173195
1040
63.6417435513390117
1040
1.0
1040
28.5255276289523216
1040
63.5682043140323501
1040
1.0
1040
28.4755990134098091
1040
63.4827284034872079
1040
1.0
1040
28.441103871241129
1040
63.3928308171618369
1040
1.0
1040
28.4064304300468393
1040
63.3024685667991704
1040
1.0
1040
28.3863299975215604
1040
63.2050518971356112
1040
1.0
1040
28.3831295421043706
1040
63.1083185476641688
1040
1.0
1040
28.37988586080019
1040
63.0102787013824965
1040
1.0
1040
28.3945648971101789
1040
62.9102888655224888
1040
1.0
1040
28.4249762607892116
1040
62.8170285744736319
1040
1.0
1040
28.4544002018959716
1040
62.7267963395634709
1040
1.0
1040
28.4990718657290998
1040
62.6402573288905771
1040
1.0
1040
28.5556656161129503
1040
62.5640682749218513
1040
1.0
1040
28.5910306501484683
1040
62.516458274374493
1040
1.0
1040
28.6314953702744788
1040
62.4722142966071488
1040
1.0
1040
28.6759867874282115
1040
62.432998080775981
1040
1.0
1071
        0
1070
     0
1070
     1
1040
1.5707963267948959
1040
1.0
1070
     0
1070
     2
1040
2.3561944901923439
1040
590.9134166820998644
1040
-279.7520122825001181
1040
-4.4901280605345768
1040
-4.4901280605345768
1070
     0
1040
2.3561944901923439
1040
590.9134166820998644
1040
-275.2618822825000962
1040
-4.4901280605345768
1040
-4.4901280605345768
1070
     2
1040
3.1749999999999989
1040
-1.587499999999999
1071
        1
1040
590.9134166820998644
1040
-279.7520122825001181
1040
0.0
1002
}
  0
INSERT
  5
6505
  8
0
  6
CONTINUOUS
 62
     7
  2
*X10
 10
0.0
 20
0.0
 30
0.0
1001
ACAD
1000
HATCH
1002
{
1070
    19
1000
ANSI33
1040
1.0
1040
1.5707963267948959
1000
R14_HATCH_DATA
1000
6505
1011
1.0
1021
0.0
1031
0.0
1021
0.0
1031
0.0
1011
0.0
1021
0.0
1031
0.0
1021
1.0
1031
0.0
1011
0.0
1021
0.0
1031
0.0
1021
0.0
1031
1.0
1040
0.0
1010
0.0
1020
0.0
1030
1.0
1000
ANSI33
1070
     0
1070
     0
1071
        1
1071
        0
1071
        1
1070
     4
1070
     3
1070
     1
1070
     0
1071
       62
1071
       58
1040
0.0
1040
0.0
1040
0.0
1040
0.0
1040
0.0002930806589502
1040
0.0002930806589502
1040
0.0002930806589502
1040
0.0005857047946351
1040
0.0005857047946351
1040
0.0005857047946351
1040
0.0008824657952878
1040
0.0008824657952878
1040
0.0008824657952878
1040
0.001168195657227
1040
0.001168195657227
1040
0.001168195657227
1040
0.0014666954714181
1040
0.0014666954714181
1040
0.0014666954714181
1040
0.0017512496876891
1040
0.0017512496876891
1040
0.0017512496876891
1040
0.0020464739891126
1040
0.0020464739891126
1040
0.0020464739891126
1040
0.0023345955633913
1040
0.0023345955633913
1040
0.0023345955633913
1040
0.0026239756643751
1040
0.0026239756643751
1040
0.0026239756643751
1040
0.0029189641152026
1040
0.0029189641152026
1040
0.0029189641152026
1040
0.0032040478950217
1040
0.0032040478950217
1040
0.0032040478950217
1040
0.003502701500023
1040
0.003502701500023
1040
0.003502701500023
1040
0.0037881778858589
1040
0.0037881778858589
1040
0.0037881778858589
1040
0.0040850518004352
1040
0.0040850518004352
1040
0.0040850518004352
1040
0.0043739683207891
1040
0.0043739683207891
1040
0.0043739683207891
1040
0.0046641669913937
1040
0.0046641669913937
1040
0.0046641669913937
1040
0.0049582420581217
1040
0.0049582420581217
1040
0.0049582420581217
1040
0.0052423236042246
1040
0.0052423236042246
1040
0.0052423236042246
1040
0.0054180632411899
1040
0.0054180632411899
1040
0.0054180632411899
1040
0.0054180632411899
1040
19.6720376195948994
1040
62.432998080775981
1040
1.0
1040
19.7453654897656214
1040
62.3684453600683426
1040
1.0
1040
19.8313044208735008
1040
62.316303375874611
1040
1.0
1040
19.9219812407488917
1040
62.2799475698485026
1040
1.0
1040
20.0125541722838989
1040
62.243633416632413
1040
1.0
1040
20.1104758617593689
1040
62.2219651779426997
1040
1.0
1040
20.2079463688831993
1040
62.2173096552361287
1040
1.0
1040
20.3066556529543085
1040
62.2125949643320197
1040
1.0
1040
20.4076148126182488
1040
62.2258828319338591
1040
1.0
1040
20.5019753821612802
1040
62.2552398411087822
1040
1.0
1040
20.5930053275702711
1040
62.283560642429677
1040
1.0
1040
20.6805267837055489
1040
62.3272705665274813
1040
1.0
1040
20.7578076003935692
1040
62.3830934482213024
1040
1.0
1040
20.8383590594711485
1040
62.4412788396683709
1040
1.0
1040
20.9098146461808483
1040
62.5147045596113387
1040
1.0
1040
20.9652847149943717
1040
62.5971493823911302
1040
1.0
1040
21.0182896634833014
1040
62.6759303119644571
1040
1.0
1040
21.0586400933327695
1040
62.7646491144303695
1040
1.0
1040
21.0836593942787012
1040
62.8562460249073567
1040
1.0
1040
21.1095789728332193
1040
62.9511388966773211
1040
1.0
1040
21.1197158331099217
1040
63.0519315437223895
1040
1.0
1040
21.1119530932110209
1040
63.1499938786652066
1040
1.0
1040
21.1043700835199388
1040
63.2457857827977818
1040
1.0
1040
21.0796978720829884
1040
63.3414455429457917
1040
1.0
1040
21.0409994709682486
1040
63.4294002169801772
1040
1.0
1040
21.0021253660227103
1040
63.5177542349851976
1040
1.0
1040
20.9480167470521792
1040
63.6008738077327891
1040
1.0
1040
20.8824784463541917
1040
63.6717424162598604
1040
1.0
1040
20.8157680158758502
1040
63.7438784852743723
1040
1.0
1040
20.7349377316162418
1040
63.8048086923976712
1040
1.0
1040
20.6476251095441583
1040
63.8498686526110077
1040
1.0
1040
20.5630867376057793
1040
63.8934968885482704
1040
1.0
1040
20.4702875015251493
1040
63.9237577870690075
1040
1.0
1040
20.3762723769352796
1040
63.9382944871537688
1040
1.0
1040
20.2780081714385005
1040
63.9534881838128513
1040
1.0
1040
20.1755245191572001
1040
63.9514332058423633
1040
1.0
1040
20.0780470452416502
1040
63.9318157498626078
1040
1.0
1040
19.9846528813370696
1040
63.9130200648128195
1040
1.0
1040
19.8932668677559903
1040
63.8782544715948504
1040
1.0
1040
19.8107587729830392
1040
63.8306292479746773
1040
1.0
1040
19.7250919152513688
1040
63.7811807269837914
1040
1.0
1040
19.646528304064649
1040
63.7163196950826887
1040
1.0
1040
19.5827521091638417
1040
63.6407117344846185
1040
1.0
1040
19.5206205596999816
1040
63.5670535341000118
1040
1.0
1040
19.4707362291331982
1040
63.4814586134185106
1040
1.0
1040
19.4363255938017083
1040
63.3914487911834996
1040
1.0
1040
19.4017599980152191
1040
63.3010336302243672
1040
1.0
1040
19.381790970614361
1040
63.2035705053008314
1040
1.0
1040
19.3787571665699296
1040
63.1068209431501188
1040
1.0
1040
19.3756868521712704
1040
63.0089070471295187
1040
1.0
1040
19.3905235852686317
1040
62.9090791309108113
1040
1.0
1040
19.421045464451371
1040
62.8159932954921487
1040
1.0
1040
19.450584262914731
1040
62.7259056663600134
1040
1.0
1040
19.4953426638953715
1040
62.6395326735913613
1040
1.0
1040
19.5519833464399007
1040
62.5635053454902774
1040
1.0
1040
19.5872971851424609
1040
62.5161044901171792
1040
1.0
1040
19.6276707367139807
1040
62.4720555768226404
1040
1.0
1040
19.6720376195948994
1040
62.432998080775981
1040
1.0
1071
        0
1070
     0
1070
     1
1040
1.5707963267948959
1040
1.0
1070
     0
1070
     2
1040
2.3561944901923439
1040
590.9134166820998644
1040
-279.7520122825001181
1040
-4.4901280605345768
1040
-4.4901280605345768
1070
     0
1040
2.3561944901923439
1040
590.9134166820998644
1040
-275.2618822825000962
1040
-4.4901280605345768
1040
-4.4901280605345768
1070
     2
1040
3.1749999999999989
1040
-1.587499999999999
1071
        1
1040
590.9134166820998644
1040
-279.7520122825001181
1040
0.0
1002
}
  0
INSERT
  5
6509
  8
0
  6
CONTINUOUS
 62
     7
  2
*X11
 10
0.0
 20
0.0
 30
0.0
1001
ACAD
1000
HATCH
1002
{
1070
    19
1000
ANSI33
1040
1.0
1040
1.5707963267948959
1000
R14_HATCH_DATA
1000
6509
1011
1.0
1021
0.0
1031
0.0
1021
0.0
1031
0.0
1011
0.0
1021
0.0
1031
0.0
1021
1.0
1031
0.0
1011
0.0
1021
0.0
1031
0.0
1021
0.0
1031
1.0
1040
0.0
1010
0.0
1020
0.0
1030
1.0
1000
ANSI33
1070
     0
1070
     0
1071
        1
1071
        0
1071
        1
1070
     4
1070
     3
1070
     1
1070
     0
1071
       62
1071
       58
1040
0.0
1040
0.0
1040
0.0
1040
0.0
1040
0.0002922109637408
1040
0.0002922109637408
1040
0.0002922109637408
1040
0.0005839863451586
1040
0.0005839863451586
1040
0.0005839863451586
1040
0.0008795942704802
1040
0.0008795942704802
1040
0.0008795942704802
1040
0.0011641406767708
1040
0.0011641406767708
1040
0.0011641406767708
1040
0.001461806635242
1040
0.001461806635242
1040
0.001461806635242
1040
0.001746147728687
1040
0.001746147728687
1040
0.001746147728687
1040
0.0020415345649178
1040
0.0020415345649178
1040
0.0020415345649178
1040
0.0023303747778953
1040
0.0023303747778953
1040
0.0023303747778953
1040
0.0026200744996753
1040
0.0026200744996753
1040
0.0026200744996753
1040
0.0029152315479394
1040
0.0029152315479394
1040
0.0029152315479394
1040
0.0031998397451113
1040
0.0031998397451113
1040
0.0031998397451113
1040
0.0034974981909568
1040
0.0034974981909568
1040
0.0034974981909568
1040
0.0037817966829555
1040
0.0037817966829555
1040
0.0037817966829555
1040
0.0040775431511329
1040
0.0040775431511329
1040
0.0040775431511329
1040
0.0043660675584569
1040
0.0043660675584569
1040
0.0043660675584569
1040
0.0046562080723794
1040
0.0046562080723794
1040
0.0046562080723794
1040
0.0049510106442033
1040
0.0049510106442033
1040
0.0049510106442033
1040
0.0052356594896558
1040
0.0052356594896558
1040
0.0052356594896558
1040
0.0054124847233167
1040
0.0054124847233167
1040
0.0054124847233167
1040
0.0054124847233167
1040
64.6756559856663671
1040
35.4454980807759625
1040
1.0
1040
64.7486945880539224
1040
35.3810555910128528
1040
1.0
1040
64.8343081708451336
1040
35.3289557902178331
1040
1.0
1040
64.924672001605245
1040
35.2925985348766105
1040
1.0
1040
65.0149362088312728
1040
35.2562813623676377
1040
1.0
1040
65.112553217447271
1040
35.2345693420796735
1040
1.0
1040
65.2097345639074319
1040
35.2298417607374788
1040
1.0
1040
65.3080561083157818
1040
35.225058712181287
1040
1.0
1040
65.4086352197127781
1040
35.2382105889066608
1040
1.0
1040
65.5026528626307254
1040
35.2673771188421412
1040
1.0
1040
65.593331711494784
1040
35.2955078747068498
1040
1.0
1040
65.6805248081016089
1040
35.3389595225592004
1040
1.0
1040
65.7575593847481059
1040
35.3944542705786986
1040
1.0
1040
65.8379640303350016
1040
35.4523767742218112
1040
1.0
1040
65.909333078403165
1040
35.5254763338259565
1040
1.0
1040
65.9648158775861333
1040
35.6075834739237891
1040
1.0
1040
66.0179395672231522
1040
35.6861994466531698
1040
1.0
1040
66.058439066619826
1040
35.7747633292961993
1040
1.0
1040
66.0836645963179308
1040
35.8662306470673613
1040
1.0
1040
66.1098319119506641
1040
35.9611128637281396
1040
1.0
1040
66.1202465754907962
1040
36.0619236985138514
1040
1.0
1040
66.1127823392472465
1040
36.1600646615373122
1040
1.0
1040
66.1054774842510824
1040
36.2561100546163217
1040
1.0
1040
66.0810175743641821
1040
36.3520773591371835
1040
1.0
1040
66.0424573348326334
1040
36.4403450563173124
1040
1.0
1040
66.0037746717827076
1040
36.5288929914366776
1040
1.0
1040
65.9498257458944863
1040
36.6122436503919673
1040
1.0
1040
65.8843902808329176
1040
36.6833441788481309
1040
1.0
1040
65.8178222111872628
1040
36.7556753669229508
1040
1.0
1040
65.7370789403775007
1040
36.8168231434585067
1040
1.0
1040
65.649797743202484
1040
36.8620459395285067
1040
1.0
1040
65.5654753881041188
1040
36.9057356778933396
1040
1.0
1040
65.4728711429246459
1040
36.9360794275726718
1040
1.0
1040
65.3790334003721227
1040
36.9506921234356511
1040
1.0
1040
65.2811152078228361
1040
36.9659402392603482
1040
1.0
1040
65.1789686173189011
1040
36.96399552736613
1040
1.0
1040
65.081802467872194
1040
36.9445220358966822
1040
1.0
1040
64.9887776656624965
1040
36.9258785298753693
1040
1.0
1040
64.8977441212130088
1040
36.8913244106886324
1040
1.0
1040
64.8155306862721545
1040
36.843973114421992
1040
1.0
1040
64.7301381288876883
1040
36.7947907844709832
1040
1.0
1040
64.6518054728162497
1040
36.7302723480011011
1040
1.0
1040
64.588133211636773
1040
36.6550617530536869
1040
1.0
1040
64.5259549891911774
1040
36.5816159382473529
1040
1.0
1040
64.4759900771909997
1040
36.4962331165081579
1040
1.0
1040
64.4414274699398533
1040
36.406423065628303
1040
1.0
1040
64.4066684764621868
1040
36.316102710162113
1040
1.0
1040
64.3864640708465004
1040
36.2187226456163103
1040
1.0
1040
64.3831322359352356
1040
36.1220021559811784
1040
1.0
1040
64.379751582804829
1040
36.0238645126784718
1040
1.0
1040
64.3943056174641697
1040
35.9237485237206329
1040
1.0
1040
64.4246288707342956
1040
35.8303519169314697
1040
1.0
1040
64.4539615380796249
1040
35.7400063470246323
1040
1.0
1040
64.4985638304406166
1040
35.6533370271508829
1040
1.0
1040
64.5551192334421557
1040
35.5770204904978229
1040
1.0
1040
64.5905257749022894
1040
35.5292424803395193
1040
1.0
1040
64.6310641321051662
1040
35.4848417972863217
1040
1.0
1040
64.6756559856663671
1040
35.4454980807759625
1040
1.0
1071
        0
1070
     0
1070
     1
1040
1.5707963267948959
1040
1.0
1070
     0
1070
     2
1040
2.3561944901923439
1040
590.9134166820998644
1040
-279.7520122825001181
1040
-4.4901280605345768
1040
-4.4901280605345768
1070
     0
1040
2.3561944901923439
1040
590.9134166820998644
1040
-275.2618822825000962
1040
-4.4901280605345768
1040
-4.4901280605345768
1070
     2
1040
3.1749999999999989
1040
-1.587499999999999
1071
        1
1040
590.9134166820998644
1040
-279.7520122825001181
1040
0.0
1002
}
  0
INSERT
  5
650B
  8
0
  6
CONTINUOUS
 62
     7
  2
*X12
 10
0.0
 20
0.0
 30
0.0
1001
ACAD
1000
HATCH
1002
{
1070
    19
1000
ANSI33
1040
1.0
1040
1.5707963267948959
1000
R14_HATCH_DATA
1000
650B
1011
1.0
1021
0.0
1031
0.0
1021
0.0
1031
0.0
1011
0.0
1021
0.0
1031
0.0
1021
1.0
1031
0.0
1011
0.0
1021
0.0
1031
0.0
1021
0.0
1031
1.0
1040
0.0
1010
0.0
1020
0.0
1030
1.0
1000
ANSI33
1070
     0
1070
     0
1071
        1
1071
        0
1071
        1
1070
     4
1070
     3
1070
     1
1070
     0
1071
       62
1071
       58
1040
0.0
1040
0.0
1040
0.0
1040
0.0
1040
0.0002922445139933
1040
0.0002922445139933
1040
0.0002922445139933
1040
0.00058405258275
1040
0.00058405258275
1040
0.00058405258275
1040
0.0008797058167277
1040
0.0008797058167277
1040
0.0008797058167277
1040
0.0011642999530876
1040
0.0011642999530876
1040
0.0011642999530876
1040
0.0014620006949924
1040
0.0014620006949924
1040
0.0014620006949924
1040
0.0017463513160797
1040
0.0017463513160797
1040
0.0017463513160797
1040
0.0020417314273205
1040
0.0020417314273205
1040
0.0020417314273205
1040
0.0023305417376124
1040
0.0023305417376124
1040
0.0023305417376124
1040
0.0026202274914708
1040
0.0026202274914708
1040
0.0026202274914708
1040
0.0029153779644325
1040
0.0029153779644325
1040
0.0029153779644325
1040
0.0032000060568139
1040
0.0032000060568139
1040
0.0032000060568139
1040
0.0034977054211082
1040
0.0034977054211082
1040
0.0034977054211082
1040
0.0037820511004398
1040
0.0037820511004398
1040
0.0037820511004398
1040
0.0040778414168606
1040
0.0040778414168606
1040
0.0040778414168606
1040
0.0043663805263805
1040
0.0043663805263805
1040
0.0043663805263805
1040
0.0046565231898132
1040
0.0046565231898132
1040
0.0046565231898132
1040
0.0049512980831248
1040
0.0049512980831248
1040
0.0049512980831248
1040
0.005235925277699
1040
0.005235925277699
1040
0.005235925277699
1040
0.0054127078601429
1040
0.0054127078601429
1040
0.0054127078601429
1040
0.0054127078601429
1040
55.6754791950016781
1040
35.4454980807759625
1040
1.0
1040
55.7485289551219694
1040
35.3810513337012935
1040
1.0
1040
55.8341551136780865
1040
35.3289499289599007
1040
1.0
1040
55.9245310319948814
1040
35.292592755657779
1040
1.0
1040
56.0148071526903095
1040
35.2562757297696407
1040
1.0
1040
56.1124358942797699
1040
35.2345654250881424
1040
1.0
1040
56.2096283831068604
1040
35.2298405491336482
1040
1.0
1040
56.3079651667782173
1040
35.2250600448971269
1040
1.0
1040
56.4085592223942811
1040
35.2382170649456228
1040
1.0
1040
56.5025904361096991
1040
35.267390804692468
1040
1.0
1040
56.5932835570389514
1040
35.2955288814255326
1040
1.0
1040
56.6804900664299112
1040
35.3389905733993714
1040
1.0
1040
56.7575348613601065
1040
35.3944981685583571
1040
1.0
1040
56.8379460268636123
1040
35.4524310947878121
1040
1.0
1040
56.9093192366953033
1040
35.5255437088766826
1040
1.0
1040
56.9648021316706874
1040
35.6076645213684628
1040
1.0
1040
57.0179215693508397
1040
35.6862871560263102
1040
1.0
1040
57.0584155689792922
1040
35.7748574213166606
1040
1.0
1040
57.0836331744503696
1040
35.8663301807279709
1040
1.0
1040
57.1097907953555932
1040
35.9612126931293119
1040
1.0
1040
57.1201945651186023
1040
36.0620227270707119
1040
1.0
1040
57.1127185303623719
1040
36.1601604934776333
1040
1.0
1040
57.1054026898601705
1040
36.2561953929533232
1040
1.0
1040
57.0809344735044917
1040
36.3521500531616084
1040
1.0
1040
57.042368964859179
1040
36.4404049396126197
1040
1.0
1040
57.0036789142620819
1040
36.5289448329567108
1040
1.0
1040
56.9497239619441871
1040
36.6122859999430332
1040
1.0
1040
56.884284845296861
1040
36.6833771719760193
1040
1.0
1040
56.8177112499489496
1040
36.7557008090024624
1040
1.0
1040
56.7369646669171672
1040
36.8168401985818079
1040
1.0
1040
56.6496823320396814
1040
36.8620568557843811
1040
1.0
1040
56.5653512528791609
1040
36.9057446134879115
1040
1.0
1040
56.4727390527935995
1040
36.9360855318538484
1040
1.0
1040
56.3788939890431493
1040
36.9506956343573734
1040
1.0
1040
56.2809616642055133
1040
36.9659420548628077
1040
1.0
1040
56.1788011873992374
1040
36.9639933689680333
1040
1.0
1040
56.0816221707348106
1040
36.9445143467531807
1040
1.0
1040
55.9885825173966012
1040
36.9258650381223674
1040
1.0
1040
55.8975347506041089
1040
36.8913026696153565
1040
1.0
1040
55.8153094321569299
1040
36.843940545381713
1040
1.0
1040
55.7299061724694411
1040
36.7947479138216522
1040
1.0
1040
55.6515644957386186
1040
36.7302161782328724
1040
1.0
1040
55.5878881810266421
1040
36.6549901274939884
1040
1.0
1040
55.5257118870771293
1040
36.5815361742531309
1040
1.0
1040
55.4757502014836135
1040
36.4961452579472123
1040
1.0
1040
55.4411935201773005
1040
36.406327606268519
1040
1.0
1040
55.406442019810811
1040
36.3160035925831721
1040
1.0
1040
55.3862467082509511
1040
36.2186203405813103
1040
1.0
1040
55.3829263423010616
1040
36.1218987328821868
1040
1.0
1040
55.3795576562442804
1040
36.0237695699661913
1040
1.0
1040
55.394122626224771
1040
35.9236645365804819
1040
1.0
1040
55.4244536060724613
1040
35.8302797823546371
1040
1.0
1040
55.4537942678446072
1040
35.7399440760177072
1040
1.0
1040
55.4984026541915227
1040
35.6532861046989566
1040
1.0
1040
55.5549614585238487
1040
35.5769806925376315
1040
1.0
1040
55.5903643323710028
1040
35.529217467828353
1040
1.0
1040
55.6308961946284626
1040
35.4848305761073632
1040
1.0
1040
55.6754791950016781
1040
35.4454980807759625
1040
1.0
1071
        0
1070
     0
1070
     1
1040
1.5707963267948959
1040
1.0
1070
     0
1070
     2
1040
2.3561944901923439
1040
590.9134166820998644
1040
-279.7520122825001181
1040
-4.4901280605345768
1040
-4.4901280605345768
1070
     0
1040
2.3561944901923439
1040
590.9134166820998644
1040
-275.2618822825000962
1040
-4.4901280605345768
1040
-4.4901280605345768
1070
     2
1040
3.1749999999999989
1040
-1.587499999999999
1071
        1
1040
590.9134166820998644
1040
-279.7520122825001181
1040
0.0
1002
}
  0
INSERT
  5
650E
  8
0
  6
CONTINUOUS
 62
     7
  2
*X13
 10
0.0
 20
0.0
 30
0.0
1001
ACAD
1000
HATCH
1002
{
1070
    19
1000
ANSI33
1040
1.0
1040
1.5707963267948959
1000
R14_HATCH_DATA
1000
650E
1011
1.0
1021
0.0
1031
0.0
1021
0.0
1031
0.0
1011
0.0
1021
0.0
1031
0.0
1021
1.0
1031
0.0
1011
0.0
1021
0.0
1031
0.0
1021
0.0
1031
1.0
1040
0.0
1010
0.0
1020
0.0
1030
1.0
1000
ANSI33
1070
     0
1070
     0
1071
        1
1071
        0
1071
        1
1070
     4
1070
     3
1070
     1
1070
     0
1071
       62
1071
       58
1040
0.0
1040
0.0
1040
0.0
1040
0.0
1040
0.0002923901203216
1040
0.0002923901203216
1040
0.0002923901203216
1040
0.000584340122871
1040
0.000584340122871
1040
0.000584340122871
1040
0.0008801888901515
1040
0.0008801888901515
1040
0.0008801888901515
1040
0.0011649873857599
1040
0.0011649873857599
1040
0.0011649873857599
1040
0.0014628355724843
1040
0.0014628355724843
1040
0.0014628355724843
1040
0.0017472257712258
1040
0.0017472257712258
1040
0.0017472257712258
1040
0.0020425773658139
1040
0.0020425773658139
1040
0.0020425773658139
1040
0.0023312608540611
1040
0.0023312608540611
1040
0.0023312608540611
1040
0.0026208882144495
1040
0.0026208882144495
1040
0.0026208882144495
1040
0.0029160101840613
1040
0.0029160101840613
1040
0.0029160101840613
1040
0.0032007224490004
1040
0.0032007224490004
1040
0.0032007224490004
1040
0.0034985959513246
1040
0.0034985959513246
1040
0.0034985959513246
1040
0.0037831440686151
1040
0.0037831440686151
1040
0.0037831440686151
1040
0.004079124231657
1040
0.004079124231657
1040
0.004079124231657
1040
0.0043677277382394
1040
0.0043677277382394
1040
0.0043677277382394
1040
0.0046578799214718
1040
0.0046578799214718
1040
0.0046578799214718
1040
0.0049525342204601
1040
0.0049525342204601
1040
0.0049525342204601
1040
0.0052370670846041
1040
0.0052370670846041
1040
0.0052370670846041
1040
0.0054136655456532
1040
0.0054136655456532
1040
0.0054136655456532
1040
0.0054136655456532
1040
37.6743332764919003
1040
35.4454980807759625
1040
1.0
1040
37.7474314616792981
1040
35.3810328615898584
1040
1.0
1040
37.8331121666219587
1040
35.3289244637334718
1040
1.0
1040
37.9235405273310633
1040
35.2925676109837809
1040
1.0
1040
38.0138683474559684
1040
35.2562511807209873
1040
1.0
1040
38.1115480377237716
1040
35.2345482860755013
1040
1.0
1040
38.2087889009898092
1040
35.2298352502356806
1040
1.0
1040
38.307191446838722
1040
35.2250659103744965
1040
1.0
1040
38.4078499824568098
1040
35.2382453883084921
1040
1.0
1040
38.5019396368128426
1040
35.2674506031756323
1040
1.0
1040
38.5926937218674766
1040
35.2956204649126377
1040
1.0
1040
38.6799574421463603
1040
35.3391256387283832
1040
1.0
1040
38.7570456212698673
1040
35.3946887353288773
1040
1.0
1040
38.8374839338371203
1040
35.4526665184648095
1040
1.0
1040
38.9088741014172683
1040
35.5258351553873126
1040
1.0
1040
38.9643566255781479
1040
35.608014440969221
1040
1.0
1040
39.0174571626353099
1040
35.6866655886116675
1040
1.0
1040
39.0579269527480619
1040
35.7752630063520201
1040
1.0
1040
39.0831101278003032
1040
35.8667587863396307
1040
1.0
1040
39.1092258648208215
1040
35.9616427604085018
1040
1.0
1040
39.1195826007894993
1040
36.0624494772765232
1040
1.0
1040
39.1120557364868091
1040
36.1605736158408604
1040
1.0
1040
39.1046925512216603
1040
36.2565639488906299
1040
1.0
1040
39.0801884301070004
1040
36.3524647942136312
1040
1.0
1040
39.0415999578790505
1040
36.4406650796289568
1040
1.0
1040
39.0028778390255866
1040
36.5291708363368528
1040
1.0
1040
38.9488965373927911
1040
36.6124715932603024
1040
1.0
1040
38.8834411297372071
1040
36.6835227091386926
1040
1.0
1040
38.8168435993547973
1040
36.7558135865145417
1040
1.0
1040
38.736082584213591
1040
36.8169165445143634
1040
1.0
1040
38.6487952206646312
1040
36.8621063461233192
1040
1.0
1040
38.5644268244114983
1040
36.9057849604578294
1040
1.0
1040
38.4717807071816722
1040
36.9361130837630185
1040
1.0
1040
38.377904539890551
1040
36.9507114689903418
1040
1.0
1040
38.2799119493296303
1040
36.9659499861530776
1040
1.0
1040
38.1776924096543624
1040
36.9639836790606822
1040
1.0
1040
38.0804587153368175
1040
36.9444806305928068
1040
1.0
1040
37.9873554173012806
1040
36.9258060533604677
1040
1.0
1040
37.8962467647488666
1040
36.8912080126366391
1040
1.0
1040
37.8139705620792483
1040
36.843799253802672
1040
1.0
1040
37.728521004274171
1040
36.7945619610373527
1040
1.0
1040
37.6501403116669735
1040
36.729972623950971
1040
1.0
1040
37.5864464478787568
1040
36.6546796651587101
1040
1.0
1040
37.5242783407937921
1040
36.581190313962793
1040
1.0
1040
37.4743304880698815
1040
36.4957641459548086
1040
1.0
1040
37.4397994252258286
1040
36.4059133586650319
1040
1.0
1040
37.4050803847228508
1040
36.3155734482705768
1040
1.0
1040
37.3849245074926628
1040
36.2181763157048522
1040
1.0
1040
37.3816539446913794
1040
36.1214498219068787
1040
1.0
1040
37.3783372047033708
1040
36.0233576434733322
1040
1.0
1040
37.3929496093526268
1040
35.9233003442348604
1040
1.0
1040
37.4233140573507015
1040
35.829967196148182
1040
1.0
1040
37.4526893661644635
1040
35.7396744285080104
1040
1.0
1040
37.4973241101215606
1040
35.6530658370476203
1040
1.0
1040
37.5538975296740318
1040
35.5768087661875327
1040
1.0
1040
37.589284614446683
1040
35.5291094145771424
1040
1.0
1040
37.6297884716170827
1040
35.4847821013368616
1040
1.0
1040
37.6743332764919003
1040
35.4454980807759625
1040
1.0
1071
        0
1070
     0
1070
     1
1040
1.5707963267948959
1040
1.0
1070
     0
1070
     2
1040
2.3561944901923439
1040
590.9134166820998644
1040
-279.7520122825001181
1040
-4.4901280605345768
1040
-4.4901280605345768
1070
     0
1040
2.3561944901923439
1040
590.9134166820998644
1040
-275.2618822825000962
1040
-4.4901280605345768
1040
-4.4901280605345768
1070
     2
1040
3.1749999999999989
1040
-1.587499999999999
1071
        1
1040
590.9134166820998644
1040
-279.7520122825001181
1040
0.0
1002
}
  0
INSERT
  5
6510
  8
0
  6
CONTINUOUS
 62
     7
  2
*X14
 10
0.0
 20
0.0
 30
0.0
1001
ACAD
1000
HATCH
1002
{
1070
    19
1000
ANSI33
1040
1.0
1040
1.5707963267948959
1000
R14_HATCH_DATA
1000
6510
1011
1.0
1021
0.0
1031
0.0
1021
0.0
1031
0.0
1011
0.0
1021
0.0
1031
0.0
1021
1.0
1031
0.0
1011
0.0
1021
0.0
1031
0.0
1021
0.0
1031
1.0
1040
0.0
1010
0.0
1020
0.0
1030
1.0
1000
ANSI33
1070
     0
1070
     0
1071
        1
1071
        0
1071
        1
1070
     4
1070
     3
1070
     1
1070
     0
1071
       62
1071
       58
1040
0.0
1040
0.0
1040
0.0
1040
0.0
1040
0.0002925949316146
1040
0.0002925949316146
1040
0.0002925949316146
1040
0.0005847447036929
1040
0.0005847447036929
1040
0.0005847447036929
1040
0.0008808665002356
1040
0.0008808665002356
1040
0.0008808665002356
1040
0.0011659477247452
1040
0.0011659477247452
1040
0.0011659477247452
1040
0.0014639974226448
1040
0.0014639974226448
1040
0.0014639974226448
1040
0.0017484403626049
1040
0.0017484403626049
1040
0.0017484403626049
1040
0.002043752803122
1040
0.002043752803122
1040
0.002043752803122
1040
0.00233226278697
1040
0.00233226278697
1040
0.00233226278697
1040
0.0026218116849054
1040
0.0026218116849054
1040
0.0026218116849054
1040
0.0029168937915339
1040
0.0029168937915339
1040
0.0029168937915339
1040
0.0032017210482588
1040
0.0032017210482588
1040
0.0032017210482588
1040
0.003499833824457
1040
0.003499833824457
1040
0.003499833824457
1040
0.0037846626715956
1040
0.0037846626715956
1040
0.0037846626715956
1040
0.0040809088900877
1040
0.0040809088900877
1040
0.0040809088900877
1040
0.0043696037724482
1040
0.0043696037724482
1040
0.0043696037724482
1040
0.0046597694948805
1040
0.0046597694948805
1040
0.0046597694948805
1040
0.0049542534024201
1040
0.0049542534024201
1040
0.0049542534024201
1040
0.0052386532371455
1040
0.0052386532371455
1040
0.0052386532371455
1040
0.0054149942812168
1040
0.0054149942812168
1040
0.0054149942812168
1040
0.0054149942812168
1040
28.6759867874282115
1040
35.4454980807759625
1040
1.0
1040
28.7491530785267813
1040
35.3810068767001624
1040
1.0
1040
28.8349104492476798
1040
35.328888579946117
1040
1.0
1040
28.9254125444746286
1040
35.2925321181293228
1040
1.0
1040
29.0158130755728614
1040
35.2562164566094793
1040
1.0
1040
29.1135644809597913
1040
35.2345239318369821
1040
1.0
1040
29.2108734168566606
1040
35.2298277324034714
1040
1.0
1040
29.3093677837394004
1040
35.2250743232156083
1040
1.0
1040
29.4101163276767501
1040
35.2382856287698019
1040
1.0
1040
29.5042873689336602
1040
35.2675354184296381
1040
1.0
1040
29.5951255514861487
1040
35.2957500128238166
1040
1.0
1040
29.6824680501066496
1040
35.3393161614915172
1040
1.0
1040
29.759615621761899
1040
35.3949568923815079
1040
1.0
1040
29.8400901937677716
1040
35.4529971379578228
1040
1.0
1040
29.911502362320789
1040
35.5262435139583204
1040
1.0
1040
29.9669830435130997
1040
35.6085035945595223
1040
1.0
1040
30.0200562599459317
1040
35.6871941759961899
1040
1.0
1040
30.0604914349141907
1040
35.7758288743756268
1040
1.0
1040
30.0856261050790899
1040
35.867356041190078
1040
1.0
1040
30.1116832319027097
1040
35.9622423069681076
1040
1.0
1040
30.1219742011280687
1040
36.0630445553111372
1040
1.0
1040
30.1143764824265716
1040
36.1611498658816117
1040
1.0
1040
30.1069472882829885
1040
36.2570791082431469
1040
1.0
1040
30.0823929386272084
1040
36.3529060036766509
1040
1.0
1040
30.0437720444707601
1040
36.4410311363021222
1040
1.0
1040
30.0050048332602799
1040
36.5294901350915211
1040
1.0
1040
29.9509861805838717
1040
36.6127353486641027
1040
1.0
1040
29.8855071639386587
1040
36.6837310493156679
1040
1.0
1040
29.8188760391687993
1040
36.7559759245536384
1040
1.0
1040
29.7380946164272508
1040
36.8170276500258069
1040
1.0
1040
29.6507999977820909
1040
36.8621793758158631
1040
1.0
1040
29.5663799715135909
1040
36.9058442653178531
1040
1.0
1040
29.4736870957540411
1040
36.9361535846858828
1040
1.0
1040
29.3797682286120789
1040
36.9507347302227913
1040
1.0
1040
29.2816926261595007
1040
36.9659612196011835
1040
1.0
1040
29.1793919878955492
1040
36.9639694899501592
1040
1.0
1040
29.0820833098717983
1040
36.9444325772838127
1040
1.0
1040
28.9888918756226985
1040
36.9257222942017123
1040
1.0
1040
28.8976990207098687
1040
36.8910742739160966
1040
1.0
1040
28.8153524443229188
1040
36.8436004972833828
1040
1.0
1040
28.7298381008090509
1040
36.7943004653818093
1040
1.0
1040
28.6514028473637907
1040
36.7296303074003276
1040
1.0
1040
28.5876844583173195
1040
36.6542435513388796
1040
1.0
1040
28.5255276289523216
1040
36.5807043140323529
1040
1.0
1040
28.4755990134098091
1040
36.4952284034871965
1040
1.0
1040
28.441103871241129
1040
36.4053308171618824
1040
1.0
1040
28.4064304300468393
1040
36.314968566799223
1040
1.0
1040
28.3863299975215604
1040
36.2175518971355928
1040
1.0
1040
28.3831295421043706
1040
36.1208185476641574
1040
1.0
1040
28.37988586080019
1040
36.0227787013824923
1040
1.0
1040
28.3945648971101789
1040
35.9227888655224774
1040
1.0
1040
28.4249762607892116
1040
35.8295285744736205
1040
1.0
1040
28.4544002018959716
1040
35.7392963395634524
1040
1.0
1040
28.4990718657290998
1040
35.6527573288906297
1040
1.0
1040
28.5556656161129503
1040
35.5765682749218968
1040
1.0
1040
28.5910306501484683
1040
35.5289582743744816
1040
1.0
1040
28.6314953702744788
1040
35.4847142966071374
1040
1.0
1040
28.6759867874282115
1040
35.4454980807759625
1040
1.0
1071
        0
1070
     0
1070
     1
1040
1.5707963267948959
1040
1.0
1070
     0
1070
     2
1040
2.3561944901923439
1040
590.9134166820998644
1040
-279.7520122825001181
1040
-4.4901280605345768
1040
-4.4901280605345768
1070
     0
1040
2.3561944901923439
1040
590.9134166820998644
1040
-275.2618822825000962
1040
-4.4901280605345768
1040
-4.4901280605345768
1070
     2
1040
3.1749999999999989
1040
-1.587499999999999
1071
        1
1040
590.9134166820998644
1040
-279.7520122825001181
1040
0.0
1002
}
  0
INSERT
  5
6512
  8
0
  6
CONTINUOUS
 62
     7
  2
*X15
 10
0.0
 20
0.0
 30
0.0
1001
ACAD
1000
HATCH
1002
{
1070
    19
1000
ANSI33
1040
1.0
1040
1.5707963267948959
1000
R14_HATCH_DATA
1000
6512
1011
1.0
1021
0.0
1031
0.0
1021
0.0
1031
0.0
1011
0.0
1021
0.0
1031
0.0
1021
1.0
1031
0.0
1011
0.0
1021
0.0
1031
0.0
1021
0.0
1031
1.0
1040
0.0
1010
0.0
1020
0.0
1030
1.0
1000
ANSI33
1070
     0
1070
     0
1071
        1
1071
        0
1071
        1
1070
     4
1070
     3
1070
     1
1070
     0
1071
       62
1071
       58
1040
0.0
1040
0.0
1040
0.0
1040
0.0
1040
0.0002930806589502
1040
0.0002930806589502
1040
0.0002930806589502
1040
0.0005857047946351
1040
0.0005857047946351
1040
0.0005857047946351
1040
0.0008824657952878
1040
0.0008824657952878
1040
0.0008824657952878
1040
0.001168195657227
1040
0.001168195657227
1040
0.001168195657227
1040
0.0014666954714181
1040
0.0014666954714181
1040
0.0014666954714181
1040
0.0017512496876891
1040
0.0017512496876891
1040
0.0017512496876891
1040
0.0020464739891126
1040
0.0020464739891126
1040
0.0020464739891126
1040
0.0023345955633913
1040
0.0023345955633913
1040
0.0023345955633913
1040
0.0026239756643751
1040
0.0026239756643751
1040
0.0026239756643751
1040
0.0029189641152026
1040
0.0029189641152026
1040
0.0029189641152026
1040
0.0032040478950217
1040
0.0032040478950217
1040
0.0032040478950217
1040
0.003502701500023
1040
0.003502701500023
1040
0.003502701500023
1040
0.0037881778858589
1040
0.0037881778858589
1040
0.0037881778858589
1040
0.0040850518004352
1040
0.0040850518004352
1040
0.0040850518004352
1040
0.0043739683207891
1040
0.0043739683207891
1040
0.0043739683207891
1040
0.0046641669913937
1040
0.0046641669913937
1040
0.0046641669913937
1040
0.0049582420581217
1040
0.0049582420581217
1040
0.0049582420581217
1040
0.0052423236042246
1040
0.0052423236042246
1040
0.0052423236042246
1040
0.0054180632411899
1040
0.0054180632411899
1040
0.0054180632411899
1040
0.0054180632411899
1040
19.6720376195948994
1040
35.4454980807759625
1040
1.0
1040
19.7453654897656214
1040
35.3809453600683312
1040
1.0
1040
19.8313044208735008
1040
35.3288033758746565
1040
1.0
1040
19.9219812407488917
1040
35.2924475698484912
1040
1.0
1040
20.0125541722838989
1040
35.2561334166325082
1040
1.0
1040
20.1104758617593689
1040
35.2344651779426883
1040
1.0
1040
20.2079463688831993
1040
35.2298096552361315
1040
1.0
1040
20.3066556529543085
1040
35.2250949643320084
1040
1.0
1040
20.4076148126182488
1040
35.2383828319338477
1040
1.0
1040
20.5019753821612802
1040
35.2677398411088419
1040
1.0
1040
20.5930053275702711
1040
35.2960606424297794
1040
1.0
1040
20.6805267837055489
1040
35.3397705665274771
1040
1.0
1040
20.7578076003935692
1040
35.3955934482212911
1040
1.0
1040
20.8383590594711485
1040
35.4537788396683595
1040
1.0
1040
20.9098146461808483
1040
35.5272045596113415
1040
1.0
1040
20.9652847149943717
1040
35.6096493823911331
1040
1.0
1040
21.0182896634833014
1040
35.6884303119645097
1040
1.0
1040
21.0586400933327695
1040
35.7771491144303582
1040
1.0
1040
21.0836593942787012
1040
35.8687460249073524
1040
1.0
1040
21.1095789728332193
1040
35.9636388966773097
1040
1.0
1040
21.1197158331099217
1040
36.0644315437223781
1040
1.0
1040
21.1119530932110209
1040
36.1624938786651526
1040
1.0
1040
21.1043700835199388
1040
36.2582857827978273
1040
1.0
1040
21.0796978720829884
1040
36.3539455429458371
1040
1.0
1040
21.0409994709682486
1040
36.4419002169801232
1040
1.0
1040
21.0021253660227103
1040
36.5302542349851365
1040
1.0
1040
20.9480167470521792
1040
36.6133738077327919
1040
1.0
1040
20.8824784463541917
1040
36.6842424162598491
1040
1.0
1040
20.8157680158758502
1040
36.7563784852744107
1040
1.0
1040
20.7349377316162418
1040
36.8173086923976598
1040
1.0
1040
20.6476251095441583
1040
36.8623686526110035
1040
1.0
1040
20.5630867376057793
1040
36.9059968885483229
1040
1.0
1040
20.4702875015251493
1040
36.9362577870690032
1040
1.0
1040
20.3762723769352796
1040
36.9507944871538072
1040
1.0
1040
20.2780081714385005
1040
36.9659881838128399
1040
1.0
1040
20.1755245191572001
1040
36.963933205842352
1040
1.0
1040
20.0780470452416502
1040
36.9443157498626533
1040
1.0
1040
19.9846528813370696
1040
36.9255200648128792
1040
1.0
1040
19.8932668677559903
1040
36.8907544715949101
1040
1.0
1040
19.8107587729830392
1040
36.843129247974673
1040
1.0
1040
19.7250919152513688
1040
36.79368072698378
1040
1.0
1040
19.646528304064649
1040
36.7288196950826773
1040
1.0
1040
19.5827521091638417
1040
36.6532117344846071
1040
1.0
1040
19.5206205596999816
1040
36.5795535341000004
1040
1.0
1040
19.4707362291331982
1040
36.4939586134184992
1040
1.0
1040
19.4363255938017083
1040
36.4039487911835025
1040
1.0
1040
19.4017599980152191
1040
36.313533630224363
1040
1.0
1040
19.381790970614361
1040
36.2160705053008769
1040
1.0
1040
19.3787571665699296
1040
36.1193209431501216
1040
1.0
1040
19.3756868521712704
1040
36.0214070471295074
1040
1.0
1040
19.3905235852686317
1040
35.9215791309108567
1040
1.0
1040
19.421045464451371
1040
35.8284932954921373
1040
1.0
1040
19.450584262914731
1040
35.738405666360002
1040
1.0
1040
19.4953426638953715
1040
35.6520326735914068
1040
1.0
1040
19.5519833464399007
1040
35.5760053454902803
1040
1.0
1040
19.5872971851424609
1040
35.5286044901171678
1040
1.0
1040
19.6276707367139807
1040
35.4845555768226291
1040
1.0
1040
19.6720376195948994
1040
35.4454980807759625
1040
1.0
1071
        0
1070
     0
1070
     1
1040
1.5707963267948959
1040
1.0
1070
     0
1070
     2
1040
2.3561944901923439
1040
590.9134166820998644
1040
-279.7520122825001181
1040
-4.4901280605345768
1040
-4.4901280605345768
1070
     0
1040
2.3561944901923439
1040
590.9134166820998644
1040
-275.2618822825000962
1040
-4.4901280605345768
1040
-4.4901280605345768
1070
     2
1040
3.1749999999999989
1040
-1.587499999999999
1071
        1
1040
590.9134166820998644
1040
-279.7520122825001181
1040
0.0
1002
}
  0
ENDSEC
  0
EOF
