<?xml version="1.0" encoding="utf-8" standalone="no"?>
<!DOCTYPE svg PUBLIC "-//W3C//DTD SVG 1.1//EN"
  "http://www.w3.org/Graphics/SVG/1.1/DTD/svg11.dtd">
<svg xmlns:xlink="http://www.w3.org/1999/xlink" width="460.8pt" height="345.6pt" viewBox="0 0 460.8 345.6" xmlns="http://www.w3.org/2000/svg" version="1.1">
 <metadata>
  <rdf:RDF xmlns:dc="http://purl.org/dc/elements/1.1/" xmlns:cc="http://creativecommons.org/ns#" xmlns:rdf="http://www.w3.org/1999/02/22-rdf-syntax-ns#">
   <cc:Work>
    <dc:type rdf:resource="http://purl.org/dc/dcmitype/StillImage"/>
    <dc:date>2025-12-31T15:24:05.591497</dc:date>
    <dc:format>image/svg+xml</dc:format>
    <dc:creator>
     <cc:Agent>
      <dc:title>Matplotlib v3.10.8, https://matplotlib.org/</dc:title>
     </cc:Agent>
    </dc:creator>
   </cc:Work>
  </rdf:RDF>
 </metadata>
 <defs>
  <style type="text/css">*{stroke-linejoin: round; stroke-linecap: butt}</style>
 </defs>
 <g id="figure_1">
  <g id="patch_1">
   <path d="M 0 345.6 
L 460.8 345.6 
L 460.8 0 
L 0 0 
z
" style="fill: #ffffff"/>
  </g>
  <g id="axes_1">
   <g id="patch_2">
    <path d="M 57.6 307.584 
L 414.72 307.584 
L 414.72 41.472 
L 57.6 41.472 
z
" style="fill: #ffffff"/>
   </g>
   <g id="matplotlib.axis_1">
    <g id="xtick_1">
     <g id="line2d_1">
      <defs>
       <path id="m00c86f8478" d="M 0 0 
L 0 3.5 
" style="stroke: #000000; stroke-width: 0.8"/>
      </defs>
      <g>
       <use xlink:href="#m00c86f8478" x="73.832727" y="307.584" style="stroke: #000000; stroke-width: 0.8"/>
      </g>
     </g>
     <g id="text_1">
      <!-- 0 -->
      <g transform="translate(70.651477 322.182437) scale(0.1 -0.1)">
       <defs>
        <path id="DejaVuSans-30" d="M 2034 4250 
Q 1547 4250 1301 3770 
Q 1056 3291 1056 2328 
Q 1056 1369 1301 889 
Q 1547 409 2034 409 
Q 2525 409 2770 889 
Q 3016 1369 3016 2328 
Q 3016 3291 2770 3770 
Q 2525 4250 2034 4250 
z
M 2034 4750 
Q 2819 4750 3233 4129 
Q 3647 3509 3647 2328 
Q 3647 1150 3233 529 
Q 2819 -91 2034 -91 
Q 1250 -91 836 529 
Q 422 1150 422 2328 
Q 422 3509 836 4129 
Q 1250 4750 2034 4750 
z
" transform="scale(0.015625)"/>
       </defs>
       <use xlink:href="#DejaVuSans-30"/>
      </g>
     </g>
    </g>
    <g id="xtick_2">
     <g id="line2d_2">
      <g>
       <use xlink:href="#m00c86f8478" x="138.828632" y="307.584" style="stroke: #000000; stroke-width: 0.8"/>
      </g>
     </g>
     <g id="text_2">
      <!-- 1 -->
      <g transform="translate(135.647382 322.182437) scale(0.1 -0.1)">
       <defs>
        <path id="DejaVuSans-31" d="M 794 531 
L 1825 531 
L 1825 4091 
L 703 3866 
L 703 4441 
L 1819 4666 
L 2450 4666 
L 2450 531 
L 3481 531 
L 3481 0 
L 794 0 
L 794 531 
z
" transform="scale(0.015625)"/>
       </defs>
       <use xlink:href="#DejaVuSans-31"/>
      </g>
     </g>
    </g>
    <g id="xtick_3">
     <g id="line2d_3">
      <g>
       <use xlink:href="#m00c86f8478" x="203.824537" y="307.584" style="stroke: #000000; stroke-width: 0.8"/>
      </g>
     </g>
     <g id="text_3">
      <!-- 2 -->
      <g transform="translate(200.643287 322.182437) scale(0.1 -0.1)">
       <defs>
        <path id="DejaVuSans-32" d="M 1228 531 
L 3431 531 
L 3431 0 
L 469 0 
L 469 531 
Q 828 903 1448 1529 
Q 2069 2156 2228 2338 
Q 2531 2678 2651 2914 
Q 2772 3150 2772 3378 
Q 2772 3750 2511 3984 
Q 2250 4219 1831 4219 
Q 1534 4219 1204 4116 
Q 875 4013 500 3803 
L 500 4441 
Q 881 4594 1212 4672 
Q 1544 4750 1819 4750 
Q 2544 4750 2975 4387 
Q 3406 4025 3406 3419 
Q 3406 3131 3298 2873 
Q 3191 2616 2906 2266 
Q 2828 2175 2409 1742 
Q 1991 1309 1228 531 
z
" transform="scale(0.015625)"/>
       </defs>
       <use xlink:href="#DejaVuSans-32"/>
      </g>
     </g>
    </g>
    <g id="xtick_4">
     <g id="line2d_4">
      <g>
       <use xlink:href="#m00c86f8478" x="268.820442" y="307.584" style="stroke: #000000; stroke-width: 0.8"/>
      </g>
     </g>
     <g id="text_4">
      <!-- 3 -->
      <g transform="translate(265.639192 322.182437) scale(0.1 -0.1)">
       <defs>
        <path id="DejaVuSans-33" d="M 2597 2516 
Q 3050 2419 3304 2112 
Q 3559 1806 3559 1356 
Q 3559 666 3084 287 
Q 2609 -91 1734 -91 
Q 1441 -91 1130 -33 
Q 819 25 488 141 
L 488 750 
Q 750 597 1062 519 
Q 1375 441 1716 441 
Q 2309 441 2620 675 
Q 2931 909 2931 1356 
Q 2931 1769 2642 2001 
Q 2353 2234 1838 2234 
L 1294 2234 
L 1294 2753 
L 1863 2753 
Q 2328 2753 2575 2939 
Q 2822 3125 2822 3475 
Q 2822 3834 2567 4026 
Q 2313 4219 1838 4219 
Q 1578 4219 1281 4162 
Q 984 4106 628 3988 
L 628 4550 
Q 988 4650 1302 4700 
Q 1616 4750 1894 4750 
Q 2613 4750 3031 4423 
Q 3450 4097 3450 3541 
Q 3450 3153 3228 2886 
Q 3006 2619 2597 2516 
z
" transform="scale(0.015625)"/>
       </defs>
       <use xlink:href="#DejaVuSans-33"/>
      </g>
     </g>
    </g>
    <g id="xtick_5">
     <g id="line2d_5">
      <g>
       <use xlink:href="#m00c86f8478" x="333.816347" y="307.584" style="stroke: #000000; stroke-width: 0.8"/>
      </g>
     </g>
     <g id="text_5">
      <!-- 4 -->
      <g transform="translate(330.635097 322.182437) scale(0.1 -0.1)">
       <defs>
        <path id="DejaVuSans-34" d="M 2419 4116 
L 825 1625 
L 2419 1625 
L 2419 4116 
z
M 2253 4666 
L 3047 4666 
L 3047 1625 
L 3713 1625 
L 3713 1100 
L 3047 1100 
L 3047 0 
L 2419 0 
L 2419 1100 
L 313 1100 
L 313 1709 
L 2253 4666 
z
" transform="scale(0.015625)"/>
       </defs>
       <use xlink:href="#DejaVuSans-34"/>
      </g>
     </g>
    </g>
    <g id="xtick_6">
     <g id="line2d_6">
      <g>
       <use xlink:href="#m00c86f8478" x="398.812252" y="307.584" style="stroke: #000000; stroke-width: 0.8"/>
      </g>
     </g>
     <g id="text_6">
      <!-- 5 -->
      <g transform="translate(395.631002 322.182437) scale(0.1 -0.1)">
       <defs>
        <path id="DejaVuSans-35" d="M 691 4666 
L 3169 4666 
L 3169 4134 
L 1269 4134 
L 1269 2991 
Q 1406 3038 1543 3061 
Q 1681 3084 1819 3084 
Q 2600 3084 3056 2656 
Q 3513 2228 3513 1497 
Q 3513 744 3044 326 
Q 2575 -91 1722 -91 
Q 1428 -91 1123 -41 
Q 819 9 494 109 
L 494 744 
Q 775 591 1075 516 
Q 1375 441 1709 441 
Q 2250 441 2565 725 
Q 2881 1009 2881 1497 
Q 2881 1984 2565 2268 
Q 2250 2553 1709 2553 
Q 1456 2553 1204 2497 
Q 953 2441 691 2322 
L 691 4666 
z
" transform="scale(0.015625)"/>
       </defs>
       <use xlink:href="#DejaVuSans-35"/>
      </g>
     </g>
    </g>
    <g id="text_7">
     <!-- 1e−7 -->
     <g transform="translate(387.462188 334.860562) scale(0.1 -0.1)">
      <defs>
       <path id="DejaVuSans-65" d="M 3597 1894 
L 3597 1613 
L 953 1613 
Q 991 1019 1311 708 
Q 1631 397 2203 397 
Q 2534 397 2845 478 
Q 3156 559 3463 722 
L 3463 178 
Q 3153 47 2828 -22 
Q 2503 -91 2169 -91 
Q 1331 -91 842 396 
Q 353 884 353 1716 
Q 353 2575 817 3079 
Q 1281 3584 2069 3584 
Q 2775 3584 3186 3129 
Q 3597 2675 3597 1894 
z
M 3022 2063 
Q 3016 2534 2758 2815 
Q 2500 3097 2075 3097 
Q 1594 3097 1305 2825 
Q 1016 2553 972 2059 
L 3022 2063 
z
" transform="scale(0.015625)"/>
       <path id="DejaVuSans-2212" d="M 678 2272 
L 4684 2272 
L 4684 1741 
L 678 1741 
L 678 2272 
z
" transform="scale(0.015625)"/>
       <path id="DejaVuSans-37" d="M 525 4666 
L 3525 4666 
L 3525 4397 
L 1831 0 
L 1172 0 
L 2766 4134 
L 525 4134 
L 525 4666 
z
" transform="scale(0.015625)"/>
      </defs>
      <use xlink:href="#DejaVuSans-31"/>
      <use xlink:href="#DejaVuSans-65" transform="translate(63.623047 0)"/>
      <use xlink:href="#DejaVuSans-2212" transform="translate(125.146484 0)"/>
      <use xlink:href="#DejaVuSans-37" transform="translate(208.935547 0)"/>
     </g>
    </g>
   </g>
   <g id="matplotlib.axis_2">
    <g id="ytick_1">
     <g id="line2d_7">
      <defs>
       <path id="mfd65a329eb" d="M 0 0 
L -3.5 0 
" style="stroke: #000000; stroke-width: 0.8"/>
      </defs>
      <g>
       <use xlink:href="#mfd65a329eb" x="57.6" y="264.64321" style="stroke: #000000; stroke-width: 0.8"/>
      </g>
     </g>
     <g id="text_8">
      <!-- −200 -->
      <g transform="translate(23.132812 268.442429) scale(0.1 -0.1)">
       <use xlink:href="#DejaVuSans-2212"/>
       <use xlink:href="#DejaVuSans-32" transform="translate(83.789062 0)"/>
       <use xlink:href="#DejaVuSans-30" transform="translate(147.412109 0)"/>
       <use xlink:href="#DejaVuSans-30" transform="translate(211.035156 0)"/>
      </g>
     </g>
    </g>
    <g id="ytick_2">
     <g id="line2d_8">
      <g>
       <use xlink:href="#mfd65a329eb" x="57.6" y="216.259213" style="stroke: #000000; stroke-width: 0.8"/>
      </g>
     </g>
     <g id="text_9">
      <!-- −100 -->
      <g transform="translate(23.132812 220.058432) scale(0.1 -0.1)">
       <use xlink:href="#DejaVuSans-2212"/>
       <use xlink:href="#DejaVuSans-31" transform="translate(83.789062 0)"/>
       <use xlink:href="#DejaVuSans-30" transform="translate(147.412109 0)"/>
       <use xlink:href="#DejaVuSans-30" transform="translate(211.035156 0)"/>
      </g>
     </g>
    </g>
    <g id="ytick_3">
     <g id="line2d_9">
      <g>
       <use xlink:href="#mfd65a329eb" x="57.6" y="167.875216" style="stroke: #000000; stroke-width: 0.8"/>
      </g>
     </g>
     <g id="text_10">
      <!-- 0 -->
      <g transform="translate(44.2375 171.674435) scale(0.1 -0.1)">
       <use xlink:href="#DejaVuSans-30"/>
      </g>
     </g>
    </g>
    <g id="ytick_4">
     <g id="line2d_10">
      <g>
       <use xlink:href="#mfd65a329eb" x="57.6" y="119.491219" style="stroke: #000000; stroke-width: 0.8"/>
      </g>
     </g>
     <g id="text_11">
      <!-- 100 -->
      <g transform="translate(31.5125 123.290438) scale(0.1 -0.1)">
       <use xlink:href="#DejaVuSans-31"/>
       <use xlink:href="#DejaVuSans-30" transform="translate(63.623047 0)"/>
       <use xlink:href="#DejaVuSans-30" transform="translate(127.246094 0)"/>
      </g>
     </g>
    </g>
    <g id="ytick_5">
     <g id="line2d_11">
      <g>
       <use xlink:href="#mfd65a329eb" x="57.6" y="71.107222" style="stroke: #000000; stroke-width: 0.8"/>
      </g>
     </g>
     <g id="text_12">
      <!-- 200 -->
      <g transform="translate(31.5125 74.906441) scale(0.1 -0.1)">
       <use xlink:href="#DejaVuSans-32"/>
       <use xlink:href="#DejaVuSans-30" transform="translate(63.623047 0)"/>
       <use xlink:href="#DejaVuSans-30" transform="translate(127.246094 0)"/>
      </g>
     </g>
    </g>
   </g>
   <g id="line2d_12">
    <path d="M 73.832727 189.212586 
L 74.482686 183.164587 
L 74.807666 186.188586 
L 75.132645 186.188586 
L 75.457625 183.164587 
L 75.782604 183.164587 
L 76.107584 186.188586 
L 76.432563 180.140587 
L 76.757543 177.116588 
L 77.082523 180.140587 
L 77.407502 177.116588 
L 77.732482 177.116588 
L 78.057461 174.092588 
L 78.382441 177.116588 
L 78.70742 171.068588 
L 79.0324 177.116588 
L 79.682359 171.068588 
L 80.007338 171.068588 
L 80.332318 174.092588 
L 80.657297 168.044589 
L 80.982277 171.068588 
L 81.307256 171.068588 
L 81.957215 165.020589 
L 82.932154 165.020589 
L 83.257133 161.99659 
L 83.582113 165.020589 
L 83.907093 161.99659 
L 84.557052 161.99659 
L 84.882031 158.97259 
L 85.53199 165.020589 
L 85.85697 158.97259 
L 86.181949 161.99659 
L 86.506929 161.99659 
L 87.156888 155.948591 
L 87.481867 155.948591 
L 87.806847 158.97259 
L 88.131826 155.948591 
L 88.456806 155.948591 
L 88.781785 152.924591 
L 89.756724 152.924591 
L 90.081704 149.900592 
L 90.731663 155.948591 
L 91.056642 149.900592 
L 91.706601 149.900592 
L 92.031581 146.876592 
L 92.35656 146.876592 
L 92.68154 143.852593 
L 93.006519 146.876592 
L 93.331499 146.876592 
L 93.656478 143.852593 
L 93.981458 143.852593 
L 94.306437 140.828593 
L 94.631417 143.852593 
L 94.956396 137.804594 
L 95.281376 137.804594 
L 95.606355 134.780594 
L 95.931335 137.804594 
L 96.256314 131.756595 
L 96.581294 134.780594 
L 96.906274 134.780594 
L 97.231253 128.732595 
L 97.556233 125.708596 
L 97.881212 128.732595 
L 98.206192 125.708596 
L 98.531171 125.708596 
L 98.856151 122.684596 
L 99.18113 122.684596 
L 99.50611 116.636597 
L 99.831089 119.660597 
L 100.156069 119.660597 
L 100.481048 116.636597 
L 101.131007 116.636597 
L 101.455987 110.588598 
L 101.780966 113.612598 
L 102.105946 113.612598 
L 102.755905 107.564599 
L 103.405864 107.564599 
L 103.730844 110.588598 
L 104.055823 107.564599 
L 104.380803 107.564599 
L 104.705782 101.5166 
L 105.030762 104.540599 
L 105.355741 101.5166 
L 105.680721 104.540599 
L 106.0057 101.5166 
L 106.33068 107.564599 
L 106.655659 101.5166 
L 107.305618 107.564599 
L 107.955577 101.5166 
L 108.280557 104.540599 
L 109.905455 104.540599 
L 110.230434 107.564599 
L 110.555414 107.564599 
L 110.880393 104.540599 
L 111.205373 104.540599 
L 111.530352 110.588598 
L 111.855332 107.564599 
L 112.180311 107.564599 
L 112.505291 110.588598 
L 112.83027 110.588598 
L 113.15525 107.564599 
L 113.805209 113.612598 
L 115.105127 113.612598 
L 115.430106 119.660597 
L 115.755086 116.636597 
L 116.080066 119.660597 
L 116.405045 119.660597 
L 116.730025 122.684596 
L 117.055004 119.660597 
L 117.704963 125.708596 
L 118.029943 122.684596 
L 118.354922 122.684596 
L 118.679902 125.708596 
L 119.004881 125.708596 
L 119.329861 131.756595 
L 119.65484 128.732595 
L 119.97982 131.756595 
L 120.304799 128.732595 
L 120.629779 134.780594 
L 120.954758 134.780594 
L 121.279738 131.756595 
L 121.929697 137.804594 
L 122.254676 134.780594 
L 122.904636 140.828593 
L 123.229615 137.804594 
L 123.554595 137.804594 
L 123.879574 140.828593 
L 124.204554 140.828593 
L 124.529533 143.852593 
L 124.854513 140.828593 
L 125.179492 143.852593 
L 125.504472 140.828593 
L 126.154431 146.876592 
L 126.47941 143.852593 
L 127.129369 149.900592 
L 127.454349 143.852593 
L 127.779328 149.900592 
L 129.404226 149.900592 
L 129.729206 152.924591 
L 130.704144 152.924591 
L 131.029124 155.948591 
L 132.004062 155.948591 
L 132.329042 158.97259 
L 132.654021 155.948591 
L 132.979001 158.97259 
L 134.603898 158.97259 
L 134.928878 161.99659 
L 135.253857 158.97259 
L 135.578837 161.99659 
L 135.903817 158.97259 
L 136.228796 165.020589 
L 136.553776 161.99659 
L 136.878755 165.020589 
L 137.203735 165.020589 
L 137.528714 171.068588 
L 137.853694 161.99659 
L 138.178673 168.044589 
L 138.828632 168.044589 
L 139.153612 165.020589 
L 139.803571 171.068588 
L 141.103489 171.068588 
L 141.428468 177.116588 
L 141.753448 174.092588 
L 142.403407 180.140587 
L 143.053366 180.140587 
L 143.703325 186.188586 
L 144.028305 183.164587 
L 144.353284 183.164587 
L 144.678264 189.212586 
L 145.328223 189.212586 
L 145.978182 195.260585 
L 146.303161 192.236585 
L 146.628141 198.284584 
L 146.95312 195.260585 
L 147.2781 195.260585 
L 147.603079 198.284584 
L 147.928059 204.332583 
L 148.253038 201.308584 
L 148.902998 207.356583 
L 149.227977 207.356583 
L 149.552957 204.332583 
L 149.877936 207.356583 
L 150.202916 207.356583 
L 150.527895 210.380582 
L 151.502834 210.380582 
L 152.152793 216.428581 
L 152.477772 213.404582 
L 152.802752 213.404582 
L 153.127731 219.452581 
L 153.452711 210.380582 
L 153.77769 213.404582 
L 154.10267 219.452581 
L 154.752629 213.404582 
L 155.402588 213.404582 
L 155.727568 216.428581 
L 156.052547 213.404582 
L 157.027486 213.404582 
L 157.352465 216.428581 
L 157.677445 210.380582 
L 158.327404 216.428581 
L 158.652383 210.380582 
L 158.977363 210.380582 
L 159.302342 213.404582 
L 159.627322 210.380582 
L 159.952301 210.380582 
L 160.277281 207.356583 
L 160.60226 207.356583 
L 160.92724 210.380582 
L 161.252219 207.356583 
L 161.577199 207.356583 
L 161.902179 201.308584 
L 162.227158 204.332583 
L 162.552138 204.332583 
L 162.877117 201.308584 
L 163.202097 204.332583 
L 163.527076 204.332583 
L 163.852056 198.284584 
L 164.177035 201.308584 
L 164.502015 201.308584 
L 165.151974 195.260585 
L 166.126912 195.260585 
L 166.451892 192.236585 
L 166.776871 192.236585 
L 167.101851 189.212586 
L 167.42683 189.212586 
L 167.75181 186.188586 
L 168.07679 186.188586 
L 168.401769 189.212586 
L 168.726749 189.212586 
L 169.051728 183.164587 
L 169.376708 186.188586 
L 170.026667 186.188586 
L 170.351646 180.140587 
L 170.676626 183.164587 
L 171.001605 180.140587 
L 171.651564 180.140587 
L 172.301523 174.092588 
L 172.626503 177.116588 
L 173.276462 177.116588 
L 173.601441 180.140587 
L 173.926421 177.116588 
L 174.2514 171.068588 
L 174.57638 171.068588 
L 174.90136 174.092588 
L 175.226339 168.044589 
L 175.551319 168.044589 
L 175.876298 171.068588 
L 176.201278 171.068588 
L 176.851237 165.020589 
L 177.176216 165.020589 
L 177.501196 161.99659 
L 177.826175 168.044589 
L 178.476134 161.99659 
L 179.126093 168.044589 
L 179.451073 161.99659 
L 179.776052 161.99659 
L 180.101032 165.020589 
L 180.426011 158.97259 
L 180.750991 155.948591 
L 181.075971 158.97259 
L 182.050909 158.97259 
L 182.700868 152.924591 
L 183.025848 155.948591 
L 183.350827 152.924591 
L 184.000786 158.97259 
L 184.325766 152.924591 
L 184.650745 149.900592 
L 185.300704 155.948591 
L 186.275643 146.876592 
L 186.600622 149.900592 
L 186.925602 146.876592 
L 187.575561 146.876592 
L 187.900541 143.852593 
L 188.22552 146.876592 
L 188.5505 143.852593 
L 189.200459 143.852593 
L 190.175397 134.780594 
L 190.500377 140.828593 
L 190.825356 134.780594 
L 191.150336 131.756595 
L 191.475315 134.780594 
L 191.800295 131.756595 
L 192.125274 131.756595 
L 192.450254 128.732595 
L 192.775233 128.732595 
L 193.100213 122.684596 
L 193.750172 122.684596 
L 194.075152 119.660597 
L 194.400131 122.684596 
L 194.725111 122.684596 
L 195.05009 116.636597 
L 195.37507 116.636597 
L 195.700049 119.660597 
L 196.025029 116.636597 
L 196.350008 110.588598 
L 196.999967 110.588598 
L 197.324947 113.612598 
L 197.649926 110.588598 
L 197.974906 110.588598 
L 198.299885 101.5166 
L 198.624865 107.564599 
L 198.949844 107.564599 
L 199.274824 104.540599 
L 199.599803 110.588598 
L 200.249762 104.540599 
L 200.574742 107.564599 
L 200.899722 107.564599 
L 201.549681 101.5166 
L 201.87466 104.540599 
L 203.174578 104.540599 
L 203.499558 101.5166 
L 203.824537 107.564599 
L 204.474496 101.5166 
L 204.799476 107.564599 
L 205.124455 107.564599 
L 205.449435 104.540599 
L 206.099394 110.588598 
L 206.424373 107.564599 
L 206.749353 107.564599 
L 207.074333 110.588598 
L 207.399312 110.588598 
L 207.724292 113.612598 
L 208.049271 110.588598 
L 208.69923 110.588598 
L 209.02421 116.636597 
L 209.349189 113.612598 
L 209.674169 113.612598 
L 209.999148 116.636597 
L 210.324128 122.684596 
L 210.649107 119.660597 
L 210.974087 119.660597 
L 211.299066 122.684596 
L 211.624046 122.684596 
L 211.949025 119.660597 
L 212.274005 125.708596 
L 212.598984 122.684596 
L 212.923964 125.708596 
L 213.248943 125.708596 
L 213.573923 128.732595 
L 213.898903 122.684596 
L 214.223882 131.756595 
L 214.548862 128.732595 
L 214.873841 128.732595 
L 215.5238 134.780594 
L 216.173759 134.780594 
L 216.498739 137.804594 
L 216.823718 134.780594 
L 217.148698 134.780594 
L 217.798657 140.828593 
L 218.773595 140.828593 
L 219.098575 134.780594 
L 219.423554 143.852593 
L 219.748534 140.828593 
L 220.073514 143.852593 
L 220.398493 143.852593 
L 220.723473 149.900592 
L 221.048452 143.852593 
L 221.373432 143.852593 
L 221.698411 149.900592 
L 222.34837 143.852593 
L 222.67335 149.900592 
L 224.298247 149.900592 
L 224.623227 152.924591 
L 225.598165 152.924591 
L 225.923145 158.97259 
L 226.248124 155.948591 
L 226.573104 158.97259 
L 227.223063 158.97259 
L 227.548043 155.948591 
L 227.873022 158.97259 
L 228.847961 158.97259 
L 229.17294 161.99659 
L 229.49792 155.948591 
L 229.822899 158.97259 
L 230.147879 158.97259 
L 230.472858 161.99659 
L 230.797838 161.99659 
L 231.122817 168.044589 
L 231.447797 165.020589 
L 231.772776 165.020589 
L 232.097756 168.044589 
L 232.422735 165.020589 
L 233.072695 165.020589 
L 233.722654 171.068588 
L 234.372613 171.068588 
L 234.697592 165.020589 
L 235.022572 171.068588 
L 235.347551 174.092588 
L 235.672531 171.068588 
L 235.99751 177.116588 
L 236.972449 177.116588 
L 237.297428 180.140587 
L 238.272367 180.140587 
L 238.597346 186.188586 
L 239.247305 186.188586 
L 239.572285 189.212586 
L 239.897265 186.188586 
L 240.222244 192.236585 
L 240.872203 192.236585 
L 241.522162 198.284584 
L 242.172121 198.284584 
L 242.497101 201.308584 
L 242.82208 201.308584 
L 243.14706 198.284584 
L 244.121998 207.356583 
L 244.446978 207.356583 
L 244.771957 204.332583 
L 245.096937 204.332583 
L 245.421916 210.380582 
L 245.746896 207.356583 
L 246.396855 213.404582 
L 246.721835 213.404582 
L 247.046814 210.380582 
L 247.371794 213.404582 
L 248.021753 213.404582 
L 248.346732 210.380582 
L 248.996691 216.428581 
L 249.97163 216.428581 
L 250.296609 210.380582 
L 250.621589 216.428581 
L 250.946568 216.428581 
L 251.271548 213.404582 
L 251.596527 213.404582 
L 251.921507 219.452581 
L 252.246486 213.404582 
L 252.571466 213.404582 
L 252.896446 216.428581 
L 253.546405 210.380582 
L 253.871384 213.404582 
L 254.196364 210.380582 
L 254.846323 210.380582 
L 255.171302 207.356583 
L 255.496282 207.356583 
L 255.821261 210.380582 
L 256.146241 204.332583 
L 257.121179 204.332583 
L 257.446159 201.308584 
L 257.771138 201.308584 
L 258.096118 204.332583 
L 258.746077 198.284584 
L 259.721016 198.284584 
L 260.045995 195.260585 
L 260.370975 198.284584 
L 260.695954 192.236585 
L 261.345913 192.236585 
L 261.670893 189.212586 
L 261.995872 189.212586 
L 262.320852 192.236585 
L 262.645831 186.188586 
L 262.970811 189.212586 
L 263.29579 189.212586 
L 263.62077 183.164587 
L 265.570647 183.164587 
L 265.895627 177.116588 
L 266.220606 180.140587 
L 266.545586 177.116588 
L 266.870565 177.116588 
L 267.195545 180.140587 
L 267.845504 174.092588 
L 268.170483 174.092588 
L 268.495463 177.116588 
L 269.145422 171.068588 
L 269.470401 174.092588 
L 269.795381 171.068588 
L 270.12036 174.092588 
L 270.44534 171.068588 
L 270.770319 171.068588 
L 271.095299 165.020589 
L 271.420278 168.044589 
L 271.745258 168.044589 
L 272.070238 165.020589 
L 272.395217 168.044589 
L 272.720197 168.044589 
L 273.045176 165.020589 
L 274.020115 165.020589 
L 274.345094 161.99659 
L 274.670074 161.99659 
L 274.995053 158.97259 
L 275.320033 161.99659 
L 275.645012 158.97259 
L 275.969992 158.97259 
L 276.294971 155.948591 
L 276.619951 158.97259 
L 276.94493 155.948591 
L 277.594889 155.948591 
L 277.919869 158.97259 
L 278.244848 152.924591 
L 278.569828 152.924591 
L 278.894808 155.948591 
L 279.219787 152.924591 
L 279.869746 152.924591 
L 280.194726 149.900592 
L 280.844685 149.900592 
L 281.494644 143.852593 
L 281.819623 146.876592 
L 282.144603 146.876592 
L 282.469582 143.852593 
L 283.119541 143.852593 
L 283.444521 140.828593 
L 283.7695 143.852593 
L 284.09448 143.852593 
L 284.744439 137.804594 
L 285.069419 137.804594 
L 285.394398 134.780594 
L 285.719378 137.804594 
L 286.044357 131.756595 
L 286.369337 134.780594 
L 286.694316 128.732595 
L 287.019296 131.756595 
L 287.669255 125.708596 
L 288.319214 125.708596 
L 288.644193 122.684596 
L 289.294152 122.684596 
L 289.619132 119.660597 
L 289.944111 113.612598 
L 290.269091 116.636597 
L 290.59407 113.612598 
L 290.91905 113.612598 
L 291.244029 110.588598 
L 291.569009 110.588598 
L 291.893989 107.564599 
L 292.218968 110.588598 
L 292.543948 107.564599 
L 292.868927 107.564599 
L 293.193907 110.588598 
L 293.843866 104.540599 
L 294.168845 107.564599 
L 294.493825 107.564599 
L 294.818804 104.540599 
L 296.768681 104.540599 
L 297.093661 101.5166 
L 297.41864 104.540599 
L 297.74362 104.540599 
L 298.0686 101.5166 
L 298.718559 107.564599 
L 299.043538 101.5166 
L 299.693497 107.564599 
L 300.018477 104.540599 
L 300.668436 104.540599 
L 300.993415 107.564599 
L 301.643374 107.564599 
L 301.968354 110.588598 
L 302.293333 107.564599 
L 302.943292 113.612598 
L 303.268272 110.588598 
L 303.918231 116.636597 
L 304.24321 113.612598 
L 304.89317 119.660597 
L 305.218149 116.636597 
L 305.543129 116.636597 
L 306.193088 122.684596 
L 306.518067 122.684596 
L 306.843047 119.660597 
L 307.168026 125.708596 
L 307.493006 122.684596 
L 307.817985 128.732595 
L 308.142965 128.732595 
L 308.467944 125.708596 
L 309.117903 131.756595 
L 309.442883 128.732595 
L 310.092842 134.780594 
L 311.39276 134.780594 
L 311.71774 140.828593 
L 312.042719 137.804594 
L 312.367699 137.804594 
L 312.692678 134.780594 
L 313.017658 140.828593 
L 313.342637 137.804594 
L 313.667617 137.804594 
L 314.317576 143.852593 
L 314.642555 140.828593 
L 314.967535 140.828593 
L 315.292514 146.876592 
L 315.617494 143.852593 
L 315.942473 143.852593 
L 316.592432 149.900592 
L 316.917412 146.876592 
L 317.892351 146.876592 
L 318.21733 152.924591 
L 318.54231 152.924591 
L 318.867289 149.900592 
L 319.192269 149.900592 
L 319.517248 155.948591 
L 319.842228 152.924591 
L 320.167207 152.924591 
L 320.492187 155.948591 
L 321.467125 155.948591 
L 321.792105 158.97259 
L 322.442064 158.97259 
L 322.767043 155.948591 
L 323.092023 155.948591 
L 323.417002 161.99659 
L 323.741982 158.97259 
L 324.391941 158.97259 
L 324.716921 161.99659 
L 325.0419 158.97259 
L 325.691859 165.020589 
L 326.016839 165.020589 
L 326.341818 161.99659 
L 326.666798 165.020589 
L 326.991777 161.99659 
L 327.641736 168.044589 
L 327.966716 168.044589 
L 328.291695 161.99659 
L 328.616675 171.068588 
L 328.941654 171.068588 
L 329.266634 168.044589 
L 329.916593 174.092588 
L 330.241572 168.044589 
L 330.566552 174.092588 
L 330.891532 177.116588 
L 331.216511 177.116588 
L 331.541491 174.092588 
L 331.86647 177.116588 
L 332.19145 177.116588 
L 332.516429 183.164587 
L 333.166388 183.164587 
L 333.491368 180.140587 
L 334.141327 186.188586 
L 334.466306 186.188586 
L 334.791286 189.212586 
L 335.116265 195.260585 
L 335.441245 192.236585 
L 335.766224 192.236585 
L 336.091204 198.284584 
L 336.416183 195.260585 
L 336.741163 195.260585 
L 337.066143 201.308584 
L 337.391122 201.308584 
L 337.716102 204.332583 
L 338.69104 204.332583 
L 339.01602 207.356583 
L 339.990958 207.356583 
L 340.315938 213.404582 
L 340.640917 207.356583 
L 341.290876 213.404582 
L 341.615856 210.380582 
L 341.940835 210.380582 
L 342.265815 213.404582 
L 342.590794 213.404582 
L 342.915774 216.428581 
L 343.240753 213.404582 
L 343.565733 213.404582 
L 343.890713 210.380582 
L 344.215692 216.428581 
L 344.540672 216.428581 
L 344.865651 213.404582 
L 345.190631 213.404582 
L 345.51561 219.452581 
L 345.84059 210.380582 
L 346.165569 216.428581 
L 346.815528 216.428581 
L 347.140508 213.404582 
L 348.765405 213.404582 
L 349.090385 210.380582 
L 349.415364 213.404582 
L 349.740344 213.404582 
L 350.065324 207.356583 
L 350.390303 207.356583 
L 350.715283 210.380582 
L 351.040262 207.356583 
L 351.365242 207.356583 
L 351.690221 210.380582 
L 352.015201 204.332583 
L 352.34018 201.308584 
L 353.315119 201.308584 
L 353.640098 195.260585 
L 353.965078 198.284584 
L 354.290057 195.260585 
L 354.615037 198.284584 
L 355.589975 189.212586 
L 355.914955 195.260585 
L 356.239934 189.212586 
L 358.189812 189.212586 
L 358.839771 183.164587 
L 359.16475 183.164587 
L 359.48973 180.140587 
L 359.814709 186.188586 
L 360.139689 183.164587 
L 360.464668 177.116588 
L 360.789648 183.164587 
L 361.114627 183.164587 
L 361.439607 180.140587 
L 361.764586 180.140587 
L 362.089566 177.116588 
L 362.414545 177.116588 
L 362.739525 174.092588 
L 363.064505 174.092588 
L 363.389484 177.116588 
L 363.714464 177.116588 
L 364.039443 174.092588 
L 364.364423 174.092588 
L 364.689402 171.068588 
L 365.014382 174.092588 
L 365.664341 168.044589 
L 365.98932 171.068588 
L 366.639279 165.020589 
L 366.964259 165.020589 
L 367.289238 168.044589 
L 367.939197 161.99659 
L 368.264177 161.99659 
L 368.589156 165.020589 
L 368.914136 165.020589 
L 369.239115 161.99659 
L 369.564095 161.99659 
L 369.889075 158.97259 
L 370.214054 161.99659 
L 370.539034 158.97259 
L 371.513972 158.97259 
L 371.838952 155.948591 
L 372.488911 155.948591 
L 372.81389 152.924591 
L 374.113808 152.924591 
L 374.438788 149.900592 
L 374.763767 152.924591 
L 375.088747 146.876592 
L 375.413726 152.924591 
L 376.063686 146.876592 
L 376.388665 149.900592 
L 376.713645 149.900592 
L 377.038624 146.876592 
L 377.688583 146.876592 
L 378.338542 140.828593 
L 378.663522 140.828593 
L 378.988501 143.852593 
L 379.63846 137.804594 
L 379.96344 137.804594 
L 380.288419 131.756595 
L 380.613399 134.780594 
L 380.938378 131.756595 
L 381.263358 131.756595 
L 381.588337 128.732595 
L 381.913317 128.732595 
L 382.238296 125.708596 
L 382.563276 125.708596 
L 382.888256 128.732595 
L 383.213235 125.708596 
L 383.538215 119.660597 
L 383.863194 119.660597 
L 384.188174 122.684596 
L 384.838133 116.636597 
L 385.163112 119.660597 
L 385.488092 113.612598 
L 385.813071 113.612598 
L 386.138051 110.588598 
L 386.46303 110.588598 
L 386.78801 113.612598 
L 387.112989 113.612598 
L 387.437969 110.588598 
L 388.087928 110.588598 
L 388.412907 107.564599 
L 388.737887 101.5166 
L 389.062867 104.540599 
L 390.362785 104.540599 
L 390.687764 101.5166 
L 391.012744 104.540599 
L 391.337723 101.5166 
L 391.662703 104.540599 
L 391.987682 101.5166 
L 392.312662 107.564599 
L 392.637641 104.540599 
L 392.962621 107.564599 
L 393.2876 107.564599 
L 393.61258 104.540599 
L 394.262539 104.540599 
L 394.587518 107.564599 
L 394.912498 104.540599 
L 395.562457 104.540599 
L 396.212416 110.588598 
L 396.862375 104.540599 
L 397.187355 113.612598 
L 397.512334 116.636597 
L 397.837314 110.588598 
L 398.487273 116.636597 
L 398.487273 116.636597 
" clip-path="url(#p5b71346999)" style="fill: none; stroke: #1f77b4; stroke-width: 1.5; stroke-linecap: square"/>
   </g>
   <g id="line2d_13">
    <path d="M 73.832727 287.928 
L 74.157707 272.808 
L 75.132645 272.808 
L 75.457625 265.248 
L 75.782604 280.368 
L 76.757543 280.368 
L 77.082523 272.808 
L 77.732482 287.928 
L 78.057461 272.808 
L 78.382441 280.368 
L 78.70742 295.488 
L 79.357379 295.488 
L 79.682359 287.928 
L 80.657297 287.928 
L 80.982277 295.488 
L 81.307256 287.928 
L 82.932154 287.928 
L 83.257133 280.368 
L 83.582113 287.928 
L 83.907093 287.928 
L 84.232072 295.488 
L 84.882031 280.368 
L 86.181949 280.368 
L 86.506929 272.808 
L 86.831908 280.368 
L 87.156888 265.248 
L 87.806847 265.248 
L 88.131826 272.808 
L 88.456806 257.688 
L 88.781785 272.808 
L 89.106765 265.248 
L 89.756724 265.248 
L 90.406683 250.128 
L 91.381622 250.128 
L 92.031581 235.008 
L 92.35656 250.128 
L 92.68154 235.008 
L 93.006519 235.008 
L 93.331499 242.568 
L 93.656478 227.448 
L 94.306437 242.568 
L 94.631417 242.568 
L 95.281376 227.448 
L 95.931335 227.448 
L 96.256314 219.888 
L 96.906274 235.008 
L 97.231253 219.888 
L 98.206192 219.888 
L 98.531171 227.448 
L 98.856151 212.328 
L 99.18113 219.888 
L 99.50611 219.888 
L 99.831089 227.448 
L 100.156069 212.328 
L 100.481048 204.768 
L 100.806028 204.768 
L 101.131007 212.328 
L 101.455987 204.768 
L 102.105946 204.768 
L 102.430925 197.208 
L 102.755905 197.208 
L 103.080885 182.088 
L 103.405864 189.648 
L 103.730844 189.648 
L 104.055823 166.968 
L 104.380803 182.088 
L 104.705782 182.088 
L 105.030762 189.648 
L 105.355741 174.528 
L 105.680721 166.968 
L 106.655659 166.968 
L 106.980639 174.528 
L 107.305618 166.968 
L 107.630598 166.968 
L 107.955577 151.848 
L 108.280557 159.408 
L 108.930516 159.408 
L 109.255495 144.288 
L 109.580475 159.408 
L 109.905455 159.408 
L 110.230434 166.968 
L 110.555414 151.848 
L 110.880393 151.848 
L 111.205373 144.288 
L 112.180311 144.288 
L 112.83027 129.168 
L 113.480229 129.168 
L 113.805209 121.608 
L 114.130188 121.608 
L 114.455168 114.048 
L 114.780147 121.608 
L 115.430106 121.608 
L 116.080066 106.488 
L 117.055004 106.488 
L 117.379984 114.048 
L 117.704963 114.048 
L 118.354922 98.928 
L 118.679902 98.928 
L 119.004881 91.368 
L 119.329861 106.488 
L 119.65484 83.808 
L 119.97982 98.928 
L 120.304799 98.928 
L 120.629779 106.488 
L 120.954758 91.368 
L 121.279738 91.368 
L 121.604717 83.808 
L 121.929697 83.808 
L 122.254676 91.368 
L 122.579656 83.808 
L 122.904636 83.808 
L 123.229615 76.248 
L 123.554595 91.368 
L 123.879574 76.248 
L 124.204554 68.688 
L 124.529533 83.808 
L 124.854513 68.688 
L 125.504472 83.808 
L 125.829451 83.808 
L 126.154431 76.248 
L 127.129369 76.248 
L 127.454349 68.688 
L 128.754267 68.688 
L 129.079247 61.128 
L 129.404226 61.128 
L 129.729206 83.808 
L 130.054185 61.128 
L 130.379165 76.248 
L 130.704144 83.808 
L 131.029124 83.808 
L 131.354103 76.248 
L 132.329042 76.248 
L 132.654021 83.808 
L 133.30398 83.808 
L 133.62896 76.248 
L 133.953939 83.808 
L 134.278919 83.808 
L 134.603898 76.248 
L 134.928878 91.368 
L 135.253857 83.808 
L 136.228796 106.488 
L 136.553776 106.488 
L 136.878755 98.928 
L 137.528714 98.928 
L 137.853694 114.048 
L 138.503653 114.048 
L 138.828632 106.488 
L 139.153612 114.048 
L 139.478591 114.048 
L 140.12855 129.168 
L 140.45353 121.608 
L 140.778509 121.608 
L 141.428468 136.728 
L 141.753448 136.728 
L 142.078428 129.168 
L 142.403407 136.728 
L 142.728387 129.168 
L 143.378346 129.168 
L 143.703325 136.728 
L 144.678264 136.728 
L 145.003243 129.168 
L 145.328223 136.728 
L 145.653202 129.168 
L 146.628141 151.848 
L 146.95312 144.288 
L 147.603079 144.288 
L 147.928059 151.848 
L 148.253038 144.288 
L 148.578018 159.408 
L 148.902998 166.968 
L 149.227977 159.408 
L 149.552957 166.968 
L 149.877936 159.408 
L 150.202916 159.408 
L 150.527895 174.528 
L 150.852875 166.968 
L 151.827813 189.648 
L 152.152793 174.528 
L 152.477772 182.088 
L 153.127731 182.088 
L 153.452711 189.648 
L 153.77769 189.648 
L 154.10267 197.208 
L 154.427649 189.648 
L 154.752629 197.208 
L 155.077609 189.648 
L 155.402588 189.648 
L 155.727568 197.208 
L 156.052547 189.648 
L 156.377527 204.768 
L 156.702506 212.328 
L 157.027486 212.328 
L 157.352465 204.768 
L 157.677445 212.328 
L 158.652383 212.328 
L 159.302342 227.448 
L 159.627322 219.888 
L 159.952301 227.448 
L 160.277281 219.888 
L 160.92724 235.008 
L 161.252219 227.448 
L 161.577199 242.568 
L 161.902179 242.568 
L 162.227158 257.688 
L 162.877117 242.568 
L 163.202097 242.568 
L 163.527076 250.128 
L 164.177035 250.128 
L 164.502015 257.688 
L 165.476953 257.688 
L 165.801933 250.128 
L 166.126912 265.248 
L 166.451892 250.128 
L 166.776871 265.248 
L 167.101851 265.248 
L 167.42683 272.808 
L 167.75181 265.248 
L 168.401769 265.248 
L 168.726749 272.808 
L 169.051728 265.248 
L 169.376708 280.368 
L 169.701687 272.808 
L 171.001605 272.808 
L 171.326585 280.368 
L 171.651564 272.808 
L 172.301523 287.928 
L 172.626503 287.928 
L 172.951482 295.488 
L 173.276462 280.368 
L 173.601441 287.928 
L 175.551319 287.928 
L 175.876298 280.368 
L 176.526257 295.488 
L 176.851237 280.368 
L 177.501196 295.488 
L 178.151155 295.488 
L 178.801114 280.368 
L 179.126093 280.368 
L 179.451073 272.808 
L 179.776052 280.368 
L 180.426011 280.368 
L 180.750991 272.808 
L 181.075971 280.368 
L 181.40095 272.808 
L 181.72593 280.368 
L 182.050909 265.248 
L 182.375889 280.368 
L 182.700868 272.808 
L 183.025848 280.368 
L 183.350827 265.248 
L 183.675807 265.248 
L 184.000786 257.688 
L 184.975725 257.688 
L 185.300704 265.248 
L 185.625684 250.128 
L 185.950663 250.128 
L 186.600622 235.008 
L 186.925602 242.568 
L 187.250581 235.008 
L 187.575561 242.568 
L 187.900541 242.568 
L 188.22552 250.128 
L 188.5505 235.008 
L 188.875479 235.008 
L 189.200459 227.448 
L 189.525438 235.008 
L 189.850418 235.008 
L 190.175397 227.448 
L 190.500377 235.008 
L 191.150336 219.888 
L 191.800295 219.888 
L 192.125274 227.448 
L 192.450254 212.328 
L 192.775233 227.448 
L 193.425192 227.448 
L 193.750172 219.888 
L 194.075152 219.888 
L 194.400131 212.328 
L 194.725111 212.328 
L 195.05009 204.768 
L 195.37507 212.328 
L 195.700049 212.328 
L 196.674988 189.648 
L 196.999967 189.648 
L 197.324947 197.208 
L 197.649926 182.088 
L 197.974906 189.648 
L 198.299885 189.648 
L 198.624865 197.208 
L 198.949844 182.088 
L 199.274824 174.528 
L 199.599803 182.088 
L 199.924783 182.088 
L 200.249762 174.528 
L 200.574742 182.088 
L 201.224701 166.968 
L 201.87466 166.968 
L 202.19964 159.408 
L 202.524619 166.968 
L 202.849599 151.848 
L 203.499558 166.968 
L 204.149517 151.848 
L 204.799476 151.848 
L 205.124455 144.288 
L 205.449435 144.288 
L 205.774414 151.848 
L 206.424373 136.728 
L 206.749353 144.288 
L 207.399312 129.168 
L 207.724292 136.728 
L 208.049271 121.608 
L 208.374251 129.168 
L 209.02421 129.168 
L 209.674169 114.048 
L 209.999148 114.048 
L 210.324128 106.488 
L 210.649107 114.048 
L 210.974087 114.048 
L 211.299066 106.488 
L 211.949025 106.488 
L 212.274005 98.928 
L 212.598984 98.928 
L 212.923964 114.048 
L 213.248943 91.368 
L 213.573923 106.488 
L 214.223882 106.488 
L 214.873841 91.368 
L 215.198821 98.928 
L 215.5238 91.368 
L 215.84878 91.368 
L 216.173759 98.928 
L 216.823718 83.808 
L 217.148698 91.368 
L 217.798657 76.248 
L 218.123636 91.368 
L 218.448616 76.248 
L 218.773595 83.808 
L 219.098575 83.808 
L 219.423554 91.368 
L 219.748534 76.248 
L 221.048452 76.248 
L 221.373432 68.688 
L 221.698411 76.248 
L 222.023391 68.688 
L 222.34837 76.248 
L 222.998329 61.128 
L 223.323309 68.688 
L 223.648288 53.568 
L 223.973268 68.688 
L 224.623227 83.808 
L 224.948206 76.248 
L 226.248124 76.248 
L 226.573104 83.808 
L 227.223063 83.808 
L 227.548043 91.368 
L 227.873022 76.248 
L 228.198002 76.248 
L 228.522981 91.368 
L 228.847961 76.248 
L 229.17294 91.368 
L 229.822899 91.368 
L 230.147879 98.928 
L 230.472858 91.368 
L 230.797838 98.928 
L 231.122817 91.368 
L 231.447797 106.488 
L 231.772776 114.048 
L 232.422735 98.928 
L 232.747715 114.048 
L 233.072695 114.048 
L 233.397674 106.488 
L 233.722654 114.048 
L 234.372613 114.048 
L 234.697592 129.168 
L 235.022572 129.168 
L 235.347551 121.608 
L 235.99751 121.608 
L 236.32249 129.168 
L 236.972449 129.168 
L 237.297428 136.728 
L 237.622408 129.168 
L 238.597346 129.168 
L 238.922326 136.728 
L 239.247305 121.608 
L 239.572285 136.728 
L 240.222244 151.848 
L 240.547224 136.728 
L 241.197183 136.728 
L 241.522162 144.288 
L 241.847142 144.288 
L 242.172121 151.848 
L 242.497101 144.288 
L 242.82208 144.288 
L 243.14706 151.848 
L 243.472039 151.848 
L 244.121998 166.968 
L 244.446978 151.848 
L 244.771957 166.968 
L 245.096937 166.968 
L 245.421916 174.528 
L 245.746896 174.528 
L 246.071876 166.968 
L 246.721835 182.088 
L 247.046814 182.088 
L 247.371794 189.648 
L 247.696773 189.648 
L 248.021753 182.088 
L 248.346732 189.648 
L 248.671712 182.088 
L 249.321671 197.208 
L 249.64665 189.648 
L 250.296609 204.768 
L 250.621589 204.768 
L 250.946568 197.208 
L 251.271548 197.208 
L 251.596527 204.768 
L 252.246486 204.768 
L 252.571466 212.328 
L 253.871384 212.328 
L 254.521343 227.448 
L 254.846323 212.328 
L 255.171302 227.448 
L 255.496282 235.008 
L 256.47122 235.008 
L 256.7962 242.568 
L 257.121179 242.568 
L 257.446159 250.128 
L 257.771138 250.128 
L 258.096118 257.688 
L 258.421097 250.128 
L 259.396036 250.128 
L 259.721016 257.688 
L 260.045995 242.568 
L 260.370975 257.688 
L 260.695954 257.688 
L 261.020934 265.248 
L 261.670893 265.248 
L 261.995872 257.688 
L 262.645831 257.688 
L 263.29579 272.808 
L 264.595708 272.808 
L 264.920688 280.368 
L 265.245667 265.248 
L 265.895627 280.368 
L 266.220606 295.488 
L 266.870565 280.368 
L 267.520524 280.368 
L 268.170483 295.488 
L 268.495463 287.928 
L 269.145422 287.928 
L 269.470401 280.368 
L 270.12036 295.488 
L 270.44534 280.368 
L 271.095299 295.488 
L 271.745258 295.488 
L 272.070238 287.928 
L 272.395217 295.488 
L 273.045176 280.368 
L 273.370156 287.928 
L 273.695135 287.928 
L 274.020115 280.368 
L 275.320033 280.368 
L 275.645012 265.248 
L 275.969992 280.368 
L 276.619951 280.368 
L 276.94493 272.808 
L 277.26991 272.808 
L 277.594889 265.248 
L 278.894808 265.248 
L 279.219787 257.688 
L 279.544767 257.688 
L 279.869746 250.128 
L 280.194726 250.128 
L 280.519705 257.688 
L 280.844685 235.008 
L 281.169664 250.128 
L 281.819623 250.128 
L 282.469582 235.008 
L 284.09448 235.008 
L 284.419459 227.448 
L 284.744439 227.448 
L 285.069419 219.888 
L 285.394398 219.888 
L 285.719378 235.008 
L 286.044357 219.888 
L 286.694316 235.008 
L 287.019296 235.008 
L 287.344275 219.888 
L 289.294152 219.888 
L 289.619132 212.328 
L 289.944111 212.328 
L 290.59407 197.208 
L 290.91905 212.328 
L 291.244029 189.648 
L 291.893989 204.768 
L 292.218968 197.208 
L 292.543948 197.208 
L 292.868927 182.088 
L 293.843866 182.088 
L 294.168845 174.528 
L 295.468763 174.528 
L 295.793743 166.968 
L 296.118722 174.528 
L 296.443702 166.968 
L 296.768681 166.968 
L 297.093661 174.528 
L 297.74362 159.408 
L 298.718559 159.408 
L 299.043538 151.848 
L 299.368518 159.408 
L 299.693497 159.408 
L 300.018477 144.288 
L 300.668436 144.288 
L 300.993415 136.728 
L 301.318395 144.288 
L 301.643374 129.168 
L 301.968354 136.728 
L 302.293333 136.728 
L 302.618313 144.288 
L 302.943292 129.168 
L 303.593251 129.168 
L 303.918231 121.608 
L 304.89317 121.608 
L 305.218149 114.048 
L 305.543129 114.048 
L 306.193088 98.928 
L 306.518067 106.488 
L 306.843047 98.928 
L 307.493006 114.048 
L 307.817985 114.048 
L 308.142965 98.928 
L 308.792924 98.928 
L 309.117903 91.368 
L 309.442883 98.928 
L 309.767862 91.368 
L 310.417821 91.368 
L 310.742801 83.808 
L 311.067781 91.368 
L 311.39276 83.808 
L 311.71774 98.928 
L 312.042719 76.248 
L 312.692678 91.368 
L 313.017658 91.368 
L 313.667617 76.248 
L 313.992596 83.808 
L 314.317576 83.808 
L 314.642555 76.248 
L 315.292514 76.248 
L 315.617494 68.688 
L 316.267453 68.688 
L 316.592432 61.128 
L 316.917412 83.808 
L 317.242391 61.128 
L 317.567371 76.248 
L 318.21733 76.248 
L 318.54231 68.688 
L 319.192269 68.688 
L 319.517248 76.248 
L 319.842228 68.688 
L 320.167207 76.248 
L 321.792105 76.248 
L 322.117084 91.368 
L 322.442064 68.688 
L 322.767043 83.808 
L 323.092023 83.808 
L 323.417002 91.368 
L 323.741982 91.368 
L 324.066962 83.808 
L 324.391941 91.368 
L 325.0419 91.368 
L 325.36688 98.928 
L 326.991777 98.928 
L 327.316757 106.488 
L 327.641736 106.488 
L 327.966716 114.048 
L 328.291695 114.048 
L 328.616675 121.608 
L 329.916593 121.608 
L 330.241572 129.168 
L 330.891532 129.168 
L 331.216511 121.608 
L 331.541491 121.608 
L 331.86647 129.168 
L 332.516429 129.168 
L 332.841409 121.608 
L 333.166388 136.728 
L 333.491368 136.728 
L 333.816347 144.288 
L 334.466306 129.168 
L 334.791286 144.288 
L 335.116265 144.288 
L 335.441245 136.728 
L 335.766224 151.848 
L 336.416183 136.728 
L 336.741163 144.288 
L 337.391122 144.288 
L 337.716102 151.848 
L 338.041081 151.848 
L 338.69104 166.968 
L 340.640917 166.968 
L 341.290876 182.088 
L 341.615856 174.528 
L 342.590794 174.528 
L 342.915774 189.648 
L 343.565733 189.648 
L 343.890713 204.768 
L 344.215692 204.768 
L 344.865651 189.648 
L 345.190631 204.768 
L 345.51561 197.208 
L 345.84059 197.208 
L 346.165569 204.768 
L 347.790467 204.768 
L 348.115446 219.888 
L 348.440426 204.768 
L 348.765405 219.888 
L 349.415364 235.008 
L 349.740344 227.448 
L 350.065324 227.448 
L 350.390303 235.008 
L 351.365242 235.008 
L 351.690221 242.568 
L 352.015201 235.008 
L 352.34018 250.128 
L 352.66516 242.568 
L 352.990139 242.568 
L 353.315119 250.128 
L 353.640098 242.568 
L 353.965078 257.688 
L 354.290057 257.688 
L 354.615037 265.248 
L 354.940016 257.688 
L 356.239934 257.688 
L 356.564914 265.248 
L 356.889894 265.248 
L 357.214873 257.688 
L 357.539853 265.248 
L 358.189812 265.248 
L 358.514791 272.808 
L 358.839771 265.248 
L 359.814709 287.928 
L 360.139689 280.368 
L 361.114627 280.368 
L 361.439607 272.808 
L 361.764586 287.928 
L 362.089566 287.928 
L 362.414545 280.368 
L 363.064505 280.368 
L 363.714464 295.488 
L 364.039443 280.368 
L 364.689402 295.488 
L 365.98932 295.488 
L 366.3143 287.928 
L 367.939197 287.928 
L 368.264177 280.368 
L 368.589156 280.368 
L 368.914136 295.488 
L 369.239115 272.808 
L 369.564095 272.808 
L 370.214054 287.928 
L 370.864013 272.808 
L 371.513972 272.808 
L 371.838952 265.248 
L 372.163931 272.808 
L 372.488911 272.808 
L 373.13887 257.688 
L 373.463849 257.688 
L 373.788829 250.128 
L 374.113808 257.688 
L 374.438788 242.568 
L 374.763767 257.688 
L 375.413726 257.688 
L 376.063686 242.568 
L 377.038624 242.568 
L 377.363604 235.008 
L 377.688583 242.568 
L 378.013563 235.008 
L 378.338542 235.008 
L 378.663522 227.448 
L 378.988501 227.448 
L 379.313481 235.008 
L 379.63846 212.328 
L 379.96344 235.008 
L 380.288419 242.568 
L 381.263358 219.888 
L 381.913317 219.888 
L 382.238296 227.448 
L 382.888256 227.448 
L 383.863194 204.768 
L 384.188174 204.768 
L 384.513153 212.328 
L 384.838133 197.208 
L 385.488092 212.328 
L 386.138051 197.208 
L 386.78801 197.208 
L 387.112989 189.648 
L 388.087928 189.648 
L 388.412907 182.088 
L 388.737887 182.088 
L 389.387846 166.968 
L 389.712826 182.088 
L 390.037805 159.408 
L 390.362785 174.528 
L 390.687764 174.528 
L 391.012744 182.088 
L 391.337723 166.968 
L 392.312662 166.968 
L 392.637641 159.408 
L 392.962621 159.408 
L 393.2876 166.968 
L 393.61258 151.848 
L 394.262539 151.848 
L 394.587518 144.288 
L 394.912498 151.848 
L 395.237477 144.288 
L 395.562457 151.848 
L 396.212416 151.848 
L 396.537396 136.728 
L 396.862375 129.168 
L 397.837314 129.168 
L 398.162293 121.608 
L 398.487273 129.168 
L 398.487273 129.168 
" clip-path="url(#p5b71346999)" style="fill: none; stroke: #ff7f0e; stroke-width: 1.5; stroke-linecap: square"/>
   </g>
   <g id="line2d_14">
    <path d="M 73.832727 155.677852 
L 80.007338 155.66878 
L 87.156888 155.69902 
L 93.006519 155.695996 
L 398.487273 155.650636 
L 398.487273 155.650636 
" clip-path="url(#p5b71346999)" style="fill: none; stroke: #2ca02c; stroke-width: 1.5; stroke-linecap: square"/>
   </g>
   <g id="line2d_15">
    <path d="M 73.832727 147.992115 
L 88.781785 147.955827 
L 96.256314 147.993627 
L 105.355741 147.976995 
L 113.480229 147.981531 
L 125.504472 147.978507 
L 145.978182 147.963387 
L 398.487273 147.970947 
L 398.487273 147.970947 
" clip-path="url(#p5b71346999)" style="fill: none; stroke: #d62728; stroke-width: 1.5; stroke-linecap: square"/>
   </g>
   <g id="patch_3">
    <path d="M 57.6 307.584 
L 57.6 41.472 
" style="fill: none; stroke: #000000; stroke-width: 0.8; stroke-linejoin: miter; stroke-linecap: square"/>
   </g>
   <g id="patch_4">
    <path d="M 414.72 307.584 
L 414.72 41.472 
" style="fill: none; stroke: #000000; stroke-width: 0.8; stroke-linejoin: miter; stroke-linecap: square"/>
   </g>
   <g id="patch_5">
    <path d="M 57.6 307.584 
L 414.72 307.584 
" style="fill: none; stroke: #000000; stroke-width: 0.8; stroke-linejoin: miter; stroke-linecap: square"/>
   </g>
   <g id="patch_6">
    <path d="M 57.6 41.472 
L 414.72 41.472 
" style="fill: none; stroke: #000000; stroke-width: 0.8; stroke-linejoin: miter; stroke-linecap: square"/>
   </g>
  </g>
 </g>
 <defs>
  <clipPath id="p5b71346999">
   <rect x="57.6" y="41.472" width="357.12" height="266.112"/>
  </clipPath>
 </defs>
</svg>
