<?xml version="1.0" encoding="utf-8" standalone="no"?>
<!DOCTYPE svg PUBLIC "-//W3C//DTD SVG 1.1//EN"
  "http://www.w3.org/Graphics/SVG/1.1/DTD/svg11.dtd">
<svg xmlns:xlink="http://www.w3.org/1999/xlink" width="460.8pt" height="345.6pt" viewBox="0 0 460.8 345.6" xmlns="http://www.w3.org/2000/svg" version="1.1">
 <metadata>
  <rdf:RDF xmlns:dc="http://purl.org/dc/elements/1.1/" xmlns:cc="http://creativecommons.org/ns#" xmlns:rdf="http://www.w3.org/1999/02/22-rdf-syntax-ns#">
   <cc:Work>
    <dc:type rdf:resource="http://purl.org/dc/dcmitype/StillImage"/>
    <dc:date>2025-12-26T12:18:31.771038</dc:date>
    <dc:format>image/svg+xml</dc:format>
    <dc:creator>
     <cc:Agent>
      <dc:title>Matplotlib v3.10.8, https://matplotlib.org/</dc:title>
     </cc:Agent>
    </dc:creator>
   </cc:Work>
  </rdf:RDF>
 </metadata>
 <defs>
  <style type="text/css">*{stroke-linejoin: round; stroke-linecap: butt}</style>
 </defs>
 <g id="figure_1">
  <g id="patch_1">
   <path d="M 0 345.6 
L 460.8 345.6 
L 460.8 0 
L 0 0 
z
" style="fill: #ffffff"/>
  </g>
  <g id="axes_1">
   <g id="patch_2">
    <path d="M 57.6 307.584 
L 414.72 307.584 
L 414.72 41.472 
L 57.6 41.472 
z
" style="fill: #ffffff"/>
   </g>
   <g id="matplotlib.axis_1">
    <g id="xtick_1">
     <g id="line2d_1">
      <defs>
       <path id="mec6b093a2c" d="M 0 0 
L 0 3.5 
" style="stroke: #000000; stroke-width: 0.8"/>
      </defs>
      <g>
       <use xlink:href="#mec6b093a2c" x="73.832727" y="307.584" style="stroke: #000000; stroke-width: 0.8"/>
      </g>
     </g>
     <g id="text_1">
      <!-- 0 -->
      <g transform="translate(70.651477 322.182437) scale(0.1 -0.1)">
       <defs>
        <path id="DejaVuSans-30" d="M 2034 4250 
Q 1547 4250 1301 3770 
Q 1056 3291 1056 2328 
Q 1056 1369 1301 889 
Q 1547 409 2034 409 
Q 2525 409 2770 889 
Q 3016 1369 3016 2328 
Q 3016 3291 2770 3770 
Q 2525 4250 2034 4250 
z
M 2034 4750 
Q 2819 4750 3233 4129 
Q 3647 3509 3647 2328 
Q 3647 1150 3233 529 
Q 2819 -91 2034 -91 
Q 1250 -91 836 529 
Q 422 1150 422 2328 
Q 422 3509 836 4129 
Q 1250 4750 2034 4750 
z
" transform="scale(0.015625)"/>
       </defs>
       <use xlink:href="#DejaVuSans-30"/>
      </g>
     </g>
    </g>
    <g id="xtick_2">
     <g id="line2d_2">
      <g>
       <use xlink:href="#mec6b093a2c" x="138.828632" y="307.584" style="stroke: #000000; stroke-width: 0.8"/>
      </g>
     </g>
     <g id="text_2">
      <!-- 1 -->
      <g transform="translate(135.647382 322.182437) scale(0.1 -0.1)">
       <defs>
        <path id="DejaVuSans-31" d="M 794 531 
L 1825 531 
L 1825 4091 
L 703 3866 
L 703 4441 
L 1819 4666 
L 2450 4666 
L 2450 531 
L 3481 531 
L 3481 0 
L 794 0 
L 794 531 
z
" transform="scale(0.015625)"/>
       </defs>
       <use xlink:href="#DejaVuSans-31"/>
      </g>
     </g>
    </g>
    <g id="xtick_3">
     <g id="line2d_3">
      <g>
       <use xlink:href="#mec6b093a2c" x="203.824537" y="307.584" style="stroke: #000000; stroke-width: 0.8"/>
      </g>
     </g>
     <g id="text_3">
      <!-- 2 -->
      <g transform="translate(200.643287 322.182437) scale(0.1 -0.1)">
       <defs>
        <path id="DejaVuSans-32" d="M 1228 531 
L 3431 531 
L 3431 0 
L 469 0 
L 469 531 
Q 828 903 1448 1529 
Q 2069 2156 2228 2338 
Q 2531 2678 2651 2914 
Q 2772 3150 2772 3378 
Q 2772 3750 2511 3984 
Q 2250 4219 1831 4219 
Q 1534 4219 1204 4116 
Q 875 4013 500 3803 
L 500 4441 
Q 881 4594 1212 4672 
Q 1544 4750 1819 4750 
Q 2544 4750 2975 4387 
Q 3406 4025 3406 3419 
Q 3406 3131 3298 2873 
Q 3191 2616 2906 2266 
Q 2828 2175 2409 1742 
Q 1991 1309 1228 531 
z
" transform="scale(0.015625)"/>
       </defs>
       <use xlink:href="#DejaVuSans-32"/>
      </g>
     </g>
    </g>
    <g id="xtick_4">
     <g id="line2d_4">
      <g>
       <use xlink:href="#mec6b093a2c" x="268.820442" y="307.584" style="stroke: #000000; stroke-width: 0.8"/>
      </g>
     </g>
     <g id="text_4">
      <!-- 3 -->
      <g transform="translate(265.639192 322.182437) scale(0.1 -0.1)">
       <defs>
        <path id="DejaVuSans-33" d="M 2597 2516 
Q 3050 2419 3304 2112 
Q 3559 1806 3559 1356 
Q 3559 666 3084 287 
Q 2609 -91 1734 -91 
Q 1441 -91 1130 -33 
Q 819 25 488 141 
L 488 750 
Q 750 597 1062 519 
Q 1375 441 1716 441 
Q 2309 441 2620 675 
Q 2931 909 2931 1356 
Q 2931 1769 2642 2001 
Q 2353 2234 1838 2234 
L 1294 2234 
L 1294 2753 
L 1863 2753 
Q 2328 2753 2575 2939 
Q 2822 3125 2822 3475 
Q 2822 3834 2567 4026 
Q 2313 4219 1838 4219 
Q 1578 4219 1281 4162 
Q 984 4106 628 3988 
L 628 4550 
Q 988 4650 1302 4700 
Q 1616 4750 1894 4750 
Q 2613 4750 3031 4423 
Q 3450 4097 3450 3541 
Q 3450 3153 3228 2886 
Q 3006 2619 2597 2516 
z
" transform="scale(0.015625)"/>
       </defs>
       <use xlink:href="#DejaVuSans-33"/>
      </g>
     </g>
    </g>
    <g id="xtick_5">
     <g id="line2d_5">
      <g>
       <use xlink:href="#mec6b093a2c" x="333.816347" y="307.584" style="stroke: #000000; stroke-width: 0.8"/>
      </g>
     </g>
     <g id="text_5">
      <!-- 4 -->
      <g transform="translate(330.635097 322.182437) scale(0.1 -0.1)">
       <defs>
        <path id="DejaVuSans-34" d="M 2419 4116 
L 825 1625 
L 2419 1625 
L 2419 4116 
z
M 2253 4666 
L 3047 4666 
L 3047 1625 
L 3713 1625 
L 3713 1100 
L 3047 1100 
L 3047 0 
L 2419 0 
L 2419 1100 
L 313 1100 
L 313 1709 
L 2253 4666 
z
" transform="scale(0.015625)"/>
       </defs>
       <use xlink:href="#DejaVuSans-34"/>
      </g>
     </g>
    </g>
    <g id="xtick_6">
     <g id="line2d_6">
      <g>
       <use xlink:href="#mec6b093a2c" x="398.812252" y="307.584" style="stroke: #000000; stroke-width: 0.8"/>
      </g>
     </g>
     <g id="text_6">
      <!-- 5 -->
      <g transform="translate(395.631002 322.182437) scale(0.1 -0.1)">
       <defs>
        <path id="DejaVuSans-35" d="M 691 4666 
L 3169 4666 
L 3169 4134 
L 1269 4134 
L 1269 2991 
Q 1406 3038 1543 3061 
Q 1681 3084 1819 3084 
Q 2600 3084 3056 2656 
Q 3513 2228 3513 1497 
Q 3513 744 3044 326 
Q 2575 -91 1722 -91 
Q 1428 -91 1123 -41 
Q 819 9 494 109 
L 494 744 
Q 775 591 1075 516 
Q 1375 441 1709 441 
Q 2250 441 2565 725 
Q 2881 1009 2881 1497 
Q 2881 1984 2565 2268 
Q 2250 2553 1709 2553 
Q 1456 2553 1204 2497 
Q 953 2441 691 2322 
L 691 4666 
z
" transform="scale(0.015625)"/>
       </defs>
       <use xlink:href="#DejaVuSans-35"/>
      </g>
     </g>
    </g>
    <g id="text_7">
     <!-- 1e−7 -->
     <g transform="translate(387.462188 334.860562) scale(0.1 -0.1)">
      <defs>
       <path id="DejaVuSans-65" d="M 3597 1894 
L 3597 1613 
L 953 1613 
Q 991 1019 1311 708 
Q 1631 397 2203 397 
Q 2534 397 2845 478 
Q 3156 559 3463 722 
L 3463 178 
Q 3153 47 2828 -22 
Q 2503 -91 2169 -91 
Q 1331 -91 842 396 
Q 353 884 353 1716 
Q 353 2575 817 3079 
Q 1281 3584 2069 3584 
Q 2775 3584 3186 3129 
Q 3597 2675 3597 1894 
z
M 3022 2063 
Q 3016 2534 2758 2815 
Q 2500 3097 2075 3097 
Q 1594 3097 1305 2825 
Q 1016 2553 972 2059 
L 3022 2063 
z
" transform="scale(0.015625)"/>
       <path id="DejaVuSans-2212" d="M 678 2272 
L 4684 2272 
L 4684 1741 
L 678 1741 
L 678 2272 
z
" transform="scale(0.015625)"/>
       <path id="DejaVuSans-37" d="M 525 4666 
L 3525 4666 
L 3525 4397 
L 1831 0 
L 1172 0 
L 2766 4134 
L 525 4134 
L 525 4666 
z
" transform="scale(0.015625)"/>
      </defs>
      <use xlink:href="#DejaVuSans-31"/>
      <use xlink:href="#DejaVuSans-65" transform="translate(63.623047 0)"/>
      <use xlink:href="#DejaVuSans-2212" transform="translate(125.146484 0)"/>
      <use xlink:href="#DejaVuSans-37" transform="translate(208.935547 0)"/>
     </g>
    </g>
   </g>
   <g id="matplotlib.axis_2">
    <g id="ytick_1">
     <g id="line2d_7">
      <defs>
       <path id="m4aee209203" d="M 0 0 
L -3.5 0 
" style="stroke: #000000; stroke-width: 0.8"/>
      </defs>
      <g>
       <use xlink:href="#m4aee209203" x="57.6" y="263.102987" style="stroke: #000000; stroke-width: 0.8"/>
      </g>
     </g>
     <g id="text_8">
      <!-- −200 -->
      <g transform="translate(23.132812 266.902206) scale(0.1 -0.1)">
       <use xlink:href="#DejaVuSans-2212"/>
       <use xlink:href="#DejaVuSans-32" transform="translate(83.789062 0)"/>
       <use xlink:href="#DejaVuSans-30" transform="translate(147.412109 0)"/>
       <use xlink:href="#DejaVuSans-30" transform="translate(211.035156 0)"/>
      </g>
     </g>
    </g>
    <g id="ytick_2">
     <g id="line2d_8">
      <g>
       <use xlink:href="#m4aee209203" x="57.6" y="211.49339" style="stroke: #000000; stroke-width: 0.8"/>
      </g>
     </g>
     <g id="text_9">
      <!-- −100 -->
      <g transform="translate(23.132812 215.292609) scale(0.1 -0.1)">
       <use xlink:href="#DejaVuSans-2212"/>
       <use xlink:href="#DejaVuSans-31" transform="translate(83.789062 0)"/>
       <use xlink:href="#DejaVuSans-30" transform="translate(147.412109 0)"/>
       <use xlink:href="#DejaVuSans-30" transform="translate(211.035156 0)"/>
      </g>
     </g>
    </g>
    <g id="ytick_3">
     <g id="line2d_9">
      <g>
       <use xlink:href="#m4aee209203" x="57.6" y="159.883793" style="stroke: #000000; stroke-width: 0.8"/>
      </g>
     </g>
     <g id="text_10">
      <!-- 0 -->
      <g transform="translate(44.2375 163.683012) scale(0.1 -0.1)">
       <use xlink:href="#DejaVuSans-30"/>
      </g>
     </g>
    </g>
    <g id="ytick_4">
     <g id="line2d_10">
      <g>
       <use xlink:href="#m4aee209203" x="57.6" y="108.274196" style="stroke: #000000; stroke-width: 0.8"/>
      </g>
     </g>
     <g id="text_11">
      <!-- 100 -->
      <g transform="translate(31.5125 112.073415) scale(0.1 -0.1)">
       <use xlink:href="#DejaVuSans-31"/>
       <use xlink:href="#DejaVuSans-30" transform="translate(63.623047 0)"/>
       <use xlink:href="#DejaVuSans-30" transform="translate(127.246094 0)"/>
      </g>
     </g>
    </g>
    <g id="ytick_5">
     <g id="line2d_11">
      <g>
       <use xlink:href="#m4aee209203" x="57.6" y="56.6646" style="stroke: #000000; stroke-width: 0.8"/>
      </g>
     </g>
     <g id="text_12">
      <!-- 200 -->
      <g transform="translate(31.5125 60.463818) scale(0.1 -0.1)">
       <use xlink:href="#DejaVuSans-32"/>
       <use xlink:href="#DejaVuSans-30" transform="translate(63.623047 0)"/>
       <use xlink:href="#DejaVuSans-30" transform="translate(127.246094 0)"/>
      </g>
     </g>
    </g>
   </g>
   <g id="line2d_12">
    <path d="M 73.832727 71.437794 
L 74.157707 63.373794 
L 74.807666 79.501794 
L 75.132645 71.437794 
L 75.457625 79.501794 
L 76.107584 79.501794 
L 76.432563 87.565794 
L 78.057461 87.565794 
L 78.382441 95.629794 
L 78.70742 95.629794 
L 79.0324 103.693794 
L 79.357379 87.565794 
L 80.007338 103.693794 
L 80.657297 103.693794 
L 80.982277 119.821794 
L 81.307256 103.693794 
L 81.957215 119.821794 
L 83.907093 119.821794 
L 84.232072 127.885794 
L 84.557052 119.821794 
L 84.882031 135.949794 
L 85.207011 127.885794 
L 85.53199 127.885794 
L 86.181949 144.013794 
L 86.506929 135.949794 
L 86.831908 144.013794 
L 87.481867 144.013794 
L 87.806847 135.949794 
L 88.131826 135.949794 
L 88.781785 152.077794 
L 89.106765 152.077794 
L 89.431744 144.013794 
L 89.756724 144.013794 
L 90.081704 160.141794 
L 90.406683 152.077794 
L 90.731663 152.077794 
L 91.056642 168.205794 
L 91.381622 176.269794 
L 91.706601 160.141794 
L 92.031581 160.141794 
L 92.35656 176.269794 
L 92.68154 168.205794 
L 93.006519 168.205794 
L 93.331499 160.141794 
L 93.656478 176.269794 
L 94.631417 176.269794 
L 94.956396 168.205794 
L 95.281376 184.333794 
L 95.606355 176.269794 
L 95.931335 176.269794 
L 96.256314 192.397794 
L 96.581294 192.397794 
L 96.906274 184.333794 
L 97.231253 192.397794 
L 98.856151 192.397794 
L 99.18113 200.461794 
L 99.50611 192.397794 
L 99.831089 200.461794 
L 100.156069 192.397794 
L 100.481048 200.461794 
L 101.131007 200.461794 
L 101.780966 216.589794 
L 102.105946 208.525794 
L 102.430925 216.589794 
L 102.755905 216.589794 
L 103.080885 224.653794 
L 103.405864 216.589794 
L 103.730844 216.589794 
L 104.380803 232.717794 
L 105.030762 232.717794 
L 105.355741 224.653794 
L 105.680721 232.717794 
L 106.33068 232.717794 
L 106.980639 248.845794 
L 107.305618 240.781794 
L 107.630598 248.845794 
L 108.605536 248.845794 
L 108.930516 256.909794 
L 110.555414 256.909794 
L 110.880393 264.973794 
L 111.205373 264.973794 
L 111.530352 256.909794 
L 111.855332 256.909794 
L 112.180311 273.037794 
L 112.505291 264.973794 
L 113.805209 264.973794 
L 114.130188 273.037794 
L 114.455168 256.909794 
L 114.780147 273.037794 
L 115.105127 264.973794 
L 115.430106 264.973794 
L 115.755086 256.909794 
L 116.080066 264.973794 
L 116.405045 264.973794 
L 116.730025 256.909794 
L 117.055004 264.973794 
L 117.379984 264.973794 
L 117.704963 256.909794 
L 118.029943 256.909794 
L 118.354922 264.973794 
L 119.004881 248.845794 
L 119.329861 256.909794 
L 119.97982 256.909794 
L 120.304799 248.845794 
L 120.629779 256.909794 
L 120.954758 240.781794 
L 121.279738 248.845794 
L 121.604717 248.845794 
L 121.929697 240.781794 
L 122.254676 240.781794 
L 122.579656 256.909794 
L 122.904636 232.717794 
L 123.229615 240.781794 
L 123.554595 240.781794 
L 124.204554 224.653794 
L 124.529533 232.717794 
L 125.179492 232.717794 
L 126.154431 208.525794 
L 126.47941 216.589794 
L 126.80439 216.589794 
L 127.129369 208.525794 
L 127.454349 216.589794 
L 127.779328 216.589794 
L 128.104308 200.461794 
L 128.754267 216.589794 
L 129.404226 200.461794 
L 129.729206 200.461794 
L 130.054185 192.397794 
L 130.379165 200.461794 
L 130.704144 192.397794 
L 131.029124 192.397794 
L 131.354103 184.333794 
L 131.679083 184.333794 
L 132.004062 192.397794 
L 132.329042 184.333794 
L 132.654021 184.333794 
L 132.979001 192.397794 
L 133.30398 176.269794 
L 134.278919 176.269794 
L 134.603898 168.205794 
L 135.578837 168.205794 
L 135.903817 160.141794 
L 136.228796 160.141794 
L 136.553776 152.077794 
L 136.878755 160.141794 
L 137.203735 152.077794 
L 137.528714 160.141794 
L 138.178673 160.141794 
L 138.503653 152.077794 
L 139.153612 152.077794 
L 139.478591 144.013794 
L 140.778509 144.013794 
L 141.103489 135.949794 
L 141.428468 144.013794 
L 141.753448 135.949794 
L 142.078428 144.013794 
L 142.403407 144.013794 
L 142.728387 135.949794 
L 143.053366 135.949794 
L 143.378346 144.013794 
L 143.703325 127.885794 
L 144.028305 135.949794 
L 144.353284 135.949794 
L 144.678264 127.885794 
L 145.653202 127.885794 
L 145.978182 119.821794 
L 146.628141 119.821794 
L 146.95312 103.693794 
L 147.2781 119.821794 
L 147.603079 119.821794 
L 147.928059 103.693794 
L 148.253038 111.757794 
L 149.227977 111.757794 
L 149.552957 103.693794 
L 149.877936 103.693794 
L 150.202916 95.629794 
L 151.502834 95.629794 
L 152.152793 79.501794 
L 152.477772 87.565794 
L 153.77769 87.565794 
L 154.10267 79.501794 
L 154.427649 79.501794 
L 154.752629 71.437794 
L 155.077609 71.437794 
L 155.402588 63.373794 
L 155.727568 63.373794 
L 156.377527 79.501794 
L 156.702506 71.437794 
L 157.027486 71.437794 
L 157.352465 63.373794 
L 157.677445 71.437794 
L 158.002424 63.373794 
L 158.652383 63.373794 
L 158.977363 71.437794 
L 159.302342 55.309794 
L 159.627322 63.373794 
L 162.552138 63.373794 
L 162.877117 71.437794 
L 163.202097 71.437794 
L 163.527076 63.373794 
L 164.177035 79.501794 
L 164.502015 71.437794 
L 164.826994 79.501794 
L 165.476953 79.501794 
L 165.801933 71.437794 
L 166.126912 79.501794 
L 166.451892 79.501794 
L 166.776871 87.565794 
L 167.101851 79.501794 
L 167.42683 87.565794 
L 167.75181 79.501794 
L 168.07679 95.629794 
L 169.051728 95.629794 
L 169.376708 103.693794 
L 169.701687 95.629794 
L 170.351646 111.757794 
L 170.676626 103.693794 
L 171.326585 103.693794 
L 171.976544 119.821794 
L 172.301523 119.821794 
L 172.626503 111.757794 
L 172.951482 111.757794 
L 173.276462 119.821794 
L 173.926421 119.821794 
L 174.2514 127.885794 
L 174.57638 127.885794 
L 174.90136 119.821794 
L 175.551319 135.949794 
L 176.851237 135.949794 
L 177.176216 144.013794 
L 179.126093 144.013794 
L 179.776052 160.141794 
L 180.101032 152.077794 
L 180.426011 160.141794 
L 180.750991 152.077794 
L 181.075971 160.141794 
L 181.72593 160.141794 
L 182.050909 168.205794 
L 183.025848 168.205794 
L 183.350827 160.141794 
L 184.000786 176.269794 
L 184.325766 168.205794 
L 184.650745 168.205794 
L 184.975725 184.333794 
L 185.300704 176.269794 
L 185.950663 192.397794 
L 186.275643 176.269794 
L 186.600622 184.333794 
L 186.925602 184.333794 
L 187.250581 192.397794 
L 188.22552 192.397794 
L 188.5505 176.269794 
L 188.875479 192.397794 
L 189.850418 192.397794 
L 190.175397 208.525794 
L 190.500377 200.461794 
L 190.825356 208.525794 
L 191.475315 208.525794 
L 191.800295 200.461794 
L 192.125274 208.525794 
L 192.450254 208.525794 
L 192.775233 216.589794 
L 193.425192 216.589794 
L 193.750172 208.525794 
L 194.075152 224.653794 
L 194.725111 224.653794 
L 195.37507 240.781794 
L 195.700049 224.653794 
L 196.350008 240.781794 
L 197.649926 240.781794 
L 197.974906 256.909794 
L 198.299885 248.845794 
L 198.624865 248.845794 
L 198.949844 240.781794 
L 199.274824 248.845794 
L 199.599803 248.845794 
L 199.924783 256.909794 
L 200.249762 256.909794 
L 200.574742 264.973794 
L 200.899722 256.909794 
L 201.224701 256.909794 
L 201.549681 264.973794 
L 201.87466 264.973794 
L 202.19964 256.909794 
L 202.524619 256.909794 
L 203.174578 273.037794 
L 203.499558 273.037794 
L 203.824537 256.909794 
L 204.149517 264.973794 
L 204.799476 264.973794 
L 205.124455 256.909794 
L 205.774414 273.037794 
L 206.424373 256.909794 
L 206.749353 264.973794 
L 208.374251 264.973794 
L 208.69923 256.909794 
L 209.02421 256.909794 
L 209.349189 248.845794 
L 209.674169 256.909794 
L 209.999148 248.845794 
L 210.324128 256.909794 
L 210.649107 256.909794 
L 210.974087 248.845794 
L 211.949025 248.845794 
L 212.598984 232.717794 
L 212.923964 240.781794 
L 213.573923 240.781794 
L 213.898903 232.717794 
L 214.223882 232.717794 
L 214.548862 224.653794 
L 214.873841 232.717794 
L 215.198821 224.653794 
L 216.173759 224.653794 
L 216.498739 208.525794 
L 217.148698 224.653794 
L 217.798657 208.525794 
L 218.773595 208.525794 
L 219.098575 200.461794 
L 219.423554 200.461794 
L 219.748534 192.397794 
L 221.048452 192.397794 
L 221.373432 200.461794 
L 221.698411 184.333794 
L 222.023391 192.397794 
L 222.34837 192.397794 
L 222.67335 184.333794 
L 222.998329 192.397794 
L 223.323309 176.269794 
L 223.648288 184.333794 
L 223.973268 176.269794 
L 224.623227 176.269794 
L 224.948206 168.205794 
L 225.923145 168.205794 
L 226.248124 160.141794 
L 226.573104 176.269794 
L 226.898084 152.077794 
L 227.548043 168.205794 
L 227.873022 152.077794 
L 228.847961 152.077794 
L 229.17294 160.141794 
L 229.49792 152.077794 
L 229.822899 152.077794 
L 230.147879 144.013794 
L 230.472858 152.077794 
L 230.797838 144.013794 
L 231.122817 144.013794 
L 231.447797 135.949794 
L 231.772776 152.077794 
L 232.097756 135.949794 
L 233.072695 135.949794 
L 233.397674 127.885794 
L 233.722654 127.885794 
L 234.047633 135.949794 
L 234.372613 135.949794 
L 234.697592 127.885794 
L 235.022572 127.885794 
L 235.347551 119.821794 
L 236.32249 119.821794 
L 236.647469 127.885794 
L 236.972449 127.885794 
L 237.297428 111.757794 
L 237.622408 111.757794 
L 237.947387 127.885794 
L 238.272367 111.757794 
L 238.597346 103.693794 
L 239.247305 103.693794 
L 239.572285 111.757794 
L 239.897265 103.693794 
L 240.222244 103.693794 
L 240.547224 87.565794 
L 240.872203 103.693794 
L 241.522162 87.565794 
L 241.847142 95.629794 
L 242.172121 95.629794 
L 242.497101 79.501794 
L 242.82208 87.565794 
L 243.14706 87.565794 
L 243.797019 71.437794 
L 244.121998 79.501794 
L 244.771957 79.501794 
L 245.096937 71.437794 
L 245.421916 71.437794 
L 245.746896 63.373794 
L 246.071876 71.437794 
L 246.396855 71.437794 
L 246.721835 63.373794 
L 247.046814 79.501794 
L 247.696773 63.373794 
L 248.021753 63.373794 
L 248.346732 71.437794 
L 248.996691 55.309794 
L 249.321671 55.309794 
L 249.64665 63.373794 
L 249.97163 63.373794 
L 250.296609 71.437794 
L 250.621589 63.373794 
L 251.271548 63.373794 
L 251.596527 71.437794 
L 251.921507 63.373794 
L 252.246486 71.437794 
L 252.571466 71.437794 
L 252.896446 63.373794 
L 253.221425 71.437794 
L 253.546405 71.437794 
L 253.871384 63.373794 
L 254.196364 63.373794 
L 254.521343 71.437794 
L 254.846323 71.437794 
L 255.171302 79.501794 
L 255.496282 71.437794 
L 255.821261 79.501794 
L 256.146241 63.373794 
L 256.47122 87.565794 
L 256.7962 79.501794 
L 257.121179 87.565794 
L 257.446159 87.565794 
L 257.771138 95.629794 
L 258.096118 87.565794 
L 258.421097 95.629794 
L 259.071057 95.629794 
L 259.396036 87.565794 
L 259.721016 95.629794 
L 260.045995 95.629794 
L 260.370975 111.757794 
L 260.695954 103.693794 
L 261.020934 103.693794 
L 261.345913 95.629794 
L 261.670893 111.757794 
L 262.320852 111.757794 
L 262.970811 127.885794 
L 263.29579 111.757794 
L 263.62077 111.757794 
L 263.945749 127.885794 
L 264.270729 127.885794 
L 264.595708 119.821794 
L 264.920688 119.821794 
L 265.570647 135.949794 
L 265.895627 127.885794 
L 266.545586 127.885794 
L 266.870565 135.949794 
L 267.520524 135.949794 
L 267.845504 152.077794 
L 268.170483 152.077794 
L 268.495463 144.013794 
L 268.820442 144.013794 
L 269.145422 152.077794 
L 269.470401 152.077794 
L 269.795381 144.013794 
L 270.12036 144.013794 
L 270.44534 152.077794 
L 271.095299 152.077794 
L 271.420278 160.141794 
L 271.745258 152.077794 
L 272.070238 160.141794 
L 272.395217 160.141794 
L 272.720197 168.205794 
L 273.045176 168.205794 
L 273.370156 176.269794 
L 273.695135 168.205794 
L 274.020115 168.205794 
L 274.345094 176.269794 
L 274.670074 176.269794 
L 274.995053 168.205794 
L 275.320033 176.269794 
L 276.94493 176.269794 
L 277.26991 184.333794 
L 277.919869 184.333794 
L 278.569828 200.461794 
L 278.894808 184.333794 
L 279.219787 192.397794 
L 280.519705 192.397794 
L 280.844685 200.461794 
L 281.494644 200.461794 
L 281.819623 208.525794 
L 282.144603 200.461794 
L 282.794562 216.589794 
L 283.119541 208.525794 
L 283.7695 224.653794 
L 284.09448 216.589794 
L 284.744439 232.717794 
L 285.069419 232.717794 
L 285.394398 224.653794 
L 285.719378 224.653794 
L 286.369337 240.781794 
L 287.019296 240.781794 
L 287.344275 232.717794 
L 287.994234 248.845794 
L 288.319214 240.781794 
L 288.969173 256.909794 
L 289.294152 240.781794 
L 289.944111 256.909794 
L 290.269091 256.909794 
L 290.59407 248.845794 
L 290.91905 256.909794 
L 291.893989 256.909794 
L 292.218968 264.973794 
L 292.543948 256.909794 
L 292.868927 256.909794 
L 293.193907 264.973794 
L 293.518886 256.909794 
L 294.168845 273.037794 
L 294.493825 256.909794 
L 295.143784 273.037794 
L 295.468763 273.037794 
L 295.793743 264.973794 
L 296.768681 264.973794 
L 297.093661 256.909794 
L 297.41864 264.973794 
L 297.74362 256.909794 
L 298.0686 264.973794 
L 298.393579 264.973794 
L 298.718559 256.909794 
L 299.043538 256.909794 
L 299.368518 264.973794 
L 300.018477 248.845794 
L 300.343456 256.909794 
L 300.668436 256.909794 
L 300.993415 248.845794 
L 302.293333 248.845794 
L 302.943292 232.717794 
L 304.24321 232.717794 
L 304.56819 240.781794 
L 304.89317 224.653794 
L 305.218149 224.653794 
L 305.543129 232.717794 
L 306.193088 216.589794 
L 306.518067 216.589794 
L 306.843047 208.525794 
L 307.168026 224.653794 
L 307.493006 208.525794 
L 307.817985 216.589794 
L 308.142965 200.461794 
L 308.467944 208.525794 
L 308.792924 208.525794 
L 309.117903 200.461794 
L 309.442883 208.525794 
L 309.767862 208.525794 
L 310.092842 192.397794 
L 310.417821 200.461794 
L 310.742801 192.397794 
L 312.367699 192.397794 
L 313.017658 176.269794 
L 313.992596 176.269794 
L 314.317576 168.205794 
L 314.642555 176.269794 
L 314.967535 176.269794 
L 315.292514 168.205794 
L 315.617494 168.205794 
L 315.942473 176.269794 
L 316.267453 160.141794 
L 318.21733 160.141794 
L 318.54231 152.077794 
L 319.192269 152.077794 
L 319.517248 144.013794 
L 319.842228 160.141794 
L 320.167207 160.141794 
L 320.492187 144.013794 
L 320.817166 152.077794 
L 321.467125 152.077794 
L 322.117084 135.949794 
L 322.442064 135.949794 
L 322.767043 144.013794 
L 323.092023 135.949794 
L 323.417002 135.949794 
L 323.741982 127.885794 
L 324.066962 135.949794 
L 324.391941 135.949794 
L 324.716921 127.885794 
L 325.0419 127.885794 
L 325.36688 135.949794 
L 325.691859 127.885794 
L 326.016839 127.885794 
L 326.341818 135.949794 
L 326.666798 119.821794 
L 326.991777 119.821794 
L 327.316757 111.757794 
L 327.641736 127.885794 
L 328.291695 111.757794 
L 328.616675 111.757794 
L 328.941654 95.629794 
L 329.591613 111.757794 
L 329.916593 95.629794 
L 330.241572 103.693794 
L 330.566552 103.693794 
L 331.216511 87.565794 
L 331.541491 95.629794 
L 331.86647 95.629794 
L 332.19145 87.565794 
L 333.166388 87.565794 
L 333.491368 79.501794 
L 333.816347 79.501794 
L 334.141327 63.373794 
L 334.466306 87.565794 
L 334.791286 71.437794 
L 335.441245 71.437794 
L 335.766224 79.501794 
L 336.091204 63.373794 
L 336.416183 71.437794 
L 337.066143 71.437794 
L 337.391122 63.373794 
L 337.716102 63.373794 
L 338.041081 71.437794 
L 338.366061 71.437794 
L 338.69104 63.373794 
L 339.01602 71.437794 
L 339.340999 63.373794 
L 339.665979 71.437794 
L 339.990958 55.309794 
L 340.315938 63.373794 
L 340.640917 63.373794 
L 340.965897 71.437794 
L 341.290876 63.373794 
L 343.240753 63.373794 
L 343.565733 71.437794 
L 343.890713 63.373794 
L 344.215692 71.437794 
L 344.540672 55.309794 
L 344.865651 71.437794 
L 345.51561 71.437794 
L 345.84059 79.501794 
L 346.165569 79.501794 
L 346.490549 71.437794 
L 347.140508 87.565794 
L 348.440426 87.565794 
L 348.765405 95.629794 
L 349.415364 95.629794 
L 349.740344 87.565794 
L 350.390303 103.693794 
L 350.715283 95.629794 
L 351.365242 111.757794 
L 351.690221 103.693794 
L 352.015201 111.757794 
L 352.990139 111.757794 
L 353.315119 119.821794 
L 353.640098 119.821794 
L 353.965078 127.885794 
L 354.290057 119.821794 
L 354.615037 119.821794 
L 354.940016 111.757794 
L 355.264996 127.885794 
L 355.914955 127.885794 
L 356.564914 144.013794 
L 356.889894 135.949794 
L 357.214873 135.949794 
L 357.539853 144.013794 
L 357.864832 135.949794 
L 358.189812 144.013794 
L 358.514791 135.949794 
L 358.839771 144.013794 
L 359.16475 144.013794 
L 359.48973 152.077794 
L 359.814709 144.013794 
L 360.139689 144.013794 
L 360.464668 160.141794 
L 360.789648 152.077794 
L 361.114627 152.077794 
L 361.439607 160.141794 
L 362.414545 160.141794 
L 362.739525 168.205794 
L 363.064505 168.205794 
L 363.389484 160.141794 
L 363.714464 168.205794 
L 364.364423 168.205794 
L 364.689402 176.269794 
L 365.014382 168.205794 
L 365.339361 168.205794 
L 365.664341 176.269794 
L 365.98932 176.269794 
L 366.3143 168.205794 
L 366.639279 192.397794 
L 366.964259 192.397794 
L 367.289238 176.269794 
L 367.939197 192.397794 
L 368.264177 184.333794 
L 368.589156 192.397794 
L 369.239115 192.397794 
L 369.564095 200.461794 
L 370.214054 200.461794 
L 370.539034 184.333794 
L 370.864013 208.525794 
L 371.188993 200.461794 
L 371.513972 200.461794 
L 371.838952 208.525794 
L 372.163931 208.525794 
L 372.488911 200.461794 
L 372.81389 216.589794 
L 373.463849 216.589794 
L 373.788829 208.525794 
L 374.438788 224.653794 
L 375.738706 224.653794 
L 376.063686 232.717794 
L 376.713645 232.717794 
L 377.363604 248.845794 
L 377.688583 232.717794 
L 378.338542 248.845794 
L 378.663522 248.845794 
L 378.988501 240.781794 
L 379.63846 256.909794 
L 380.938378 256.909794 
L 381.263358 248.845794 
L 381.588337 256.909794 
L 381.913317 248.845794 
L 382.563276 264.973794 
L 382.888256 256.909794 
L 383.213235 256.909794 
L 383.538215 264.973794 
L 383.863194 264.973794 
L 384.188174 256.909794 
L 384.513153 264.973794 
L 385.488092 264.973794 
L 385.813071 256.909794 
L 386.138051 256.909794 
L 386.46303 264.973794 
L 386.78801 264.973794 
L 387.112989 256.909794 
L 387.437969 264.973794 
L 389.062867 264.973794 
L 389.387846 256.909794 
L 390.687764 256.909794 
L 391.012744 248.845794 
L 392.312662 248.845794 
L 392.637641 240.781794 
L 392.962621 248.845794 
L 393.2876 240.781794 
L 393.937559 240.781794 
L 394.262539 232.717794 
L 395.237477 232.717794 
L 395.562457 224.653794 
L 395.887437 224.653794 
L 396.212416 216.589794 
L 396.537396 224.653794 
L 396.862375 224.653794 
L 397.187355 216.589794 
L 398.162293 216.589794 
L 398.487273 208.525794 
L 398.487273 208.525794 
" clip-path="url(#p9aa4592d01)" style="fill: none; stroke: #1f77b4; stroke-width: 1.5; stroke-linecap: square"/>
   </g>
   <g id="line2d_13">
    <path d="M 73.832727 166.464 
L 74.157707 174.528 
L 75.132645 150.336 
L 77.082523 150.336 
L 77.407502 142.272 
L 77.732482 142.272 
L 78.057461 134.208 
L 78.382441 142.272 
L 78.70742 134.208 
L 79.357379 134.208 
L 79.682359 142.272 
L 80.007338 126.144 
L 80.657297 126.144 
L 80.982277 118.08 
L 81.307256 126.144 
L 81.632236 126.144 
L 82.282195 110.016 
L 82.932154 110.016 
L 83.257133 101.952 
L 83.582113 101.952 
L 83.907093 93.888 
L 84.232072 101.952 
L 84.882031 101.952 
L 85.53199 85.824 
L 85.85697 101.952 
L 86.181949 85.824 
L 86.506929 93.888 
L 87.156888 93.888 
L 87.481867 85.824 
L 88.131826 85.824 
L 88.456806 77.76 
L 88.781785 85.824 
L 89.106765 69.696 
L 89.431744 85.824 
L 89.756724 85.824 
L 90.406683 69.696 
L 91.056642 69.696 
L 91.381622 77.76 
L 91.706601 77.76 
L 92.031581 69.696 
L 93.006519 69.696 
L 93.656478 53.568 
L 93.981458 69.696 
L 94.306437 53.568 
L 94.631417 69.696 
L 94.956396 77.76 
L 95.281376 77.76 
L 95.606355 61.632 
L 95.931335 61.632 
L 96.256314 69.696 
L 96.906274 69.696 
L 97.231253 61.632 
L 97.556233 77.76 
L 97.881212 69.696 
L 98.206192 77.76 
L 98.531171 61.632 
L 98.856151 61.632 
L 99.18113 77.76 
L 99.50611 69.696 
L 99.831089 77.76 
L 100.156069 77.76 
L 100.481048 85.824 
L 100.806028 77.76 
L 101.131007 77.76 
L 101.455987 85.824 
L 102.105946 85.824 
L 102.430925 93.888 
L 102.755905 85.824 
L 103.080885 85.824 
L 103.405864 93.888 
L 104.055823 93.888 
L 104.380803 101.952 
L 104.705782 93.888 
L 105.030762 110.016 
L 105.355741 110.016 
L 105.680721 118.08 
L 106.0057 110.016 
L 106.33068 118.08 
L 107.305618 118.08 
L 107.630598 126.144 
L 109.255495 126.144 
L 109.580475 134.208 
L 109.905455 126.144 
L 110.230434 126.144 
L 110.555414 142.272 
L 110.880393 142.272 
L 111.205373 134.208 
L 111.530352 134.208 
L 111.855332 142.272 
L 112.83027 142.272 
L 113.15525 150.336 
L 113.480229 142.272 
L 114.455168 142.272 
L 114.780147 150.336 
L 115.105127 142.272 
L 115.430106 166.464 
L 115.755086 166.464 
L 116.080066 174.528 
L 116.405045 158.4 
L 116.730025 166.464 
L 117.379984 166.464 
L 118.029943 182.592 
L 118.354922 182.592 
L 118.679902 174.528 
L 119.004881 182.592 
L 119.65484 182.592 
L 119.97982 198.72 
L 120.304799 182.592 
L 120.629779 190.656 
L 120.954758 206.784 
L 121.279738 198.72 
L 122.254676 198.72 
L 122.579656 206.784 
L 122.904636 198.72 
L 123.229615 198.72 
L 123.554595 214.848 
L 123.879574 214.848 
L 124.204554 206.784 
L 124.529533 214.848 
L 124.854513 214.848 
L 125.179492 222.912 
L 125.504472 214.848 
L 126.47941 239.04 
L 126.80439 230.976 
L 127.129369 230.976 
L 127.454349 239.04 
L 128.429287 239.04 
L 128.754267 247.104 
L 129.404226 247.104 
L 129.729206 239.04 
L 130.054185 239.04 
L 130.379165 247.104 
L 130.704144 247.104 
L 131.354103 263.232 
L 132.329042 263.232 
L 132.654021 255.168 
L 132.979001 255.168 
L 133.30398 263.232 
L 133.62896 263.232 
L 133.953939 271.296 
L 134.278919 263.232 
L 134.603898 263.232 
L 134.928878 271.296 
L 135.253857 263.232 
L 135.903817 263.232 
L 136.878755 287.424 
L 137.203735 279.36 
L 138.503653 279.36 
L 138.828632 287.424 
L 139.153612 279.36 
L 140.45353 279.36 
L 140.778509 287.424 
L 141.103489 271.296 
L 141.428468 287.424 
L 141.753448 279.36 
L 142.078428 287.424 
L 142.403407 279.36 
L 144.353284 279.36 
L 144.678264 271.296 
L 145.328223 271.296 
L 145.653202 263.232 
L 145.978182 279.36 
L 146.303161 263.232 
L 146.628141 271.296 
L 146.95312 271.296 
L 147.2781 263.232 
L 147.603079 263.232 
L 147.928059 255.168 
L 148.253038 255.168 
L 148.578018 247.104 
L 148.902998 255.168 
L 149.227977 247.104 
L 149.552957 255.168 
L 149.877936 239.04 
L 150.202916 247.104 
L 150.527895 239.04 
L 150.852875 222.912 
L 151.177854 230.976 
L 151.502834 222.912 
L 151.827813 230.976 
L 152.477772 230.976 
L 152.802752 222.912 
L 154.10267 222.912 
L 154.427649 214.848 
L 155.077609 214.848 
L 155.402588 206.784 
L 155.727568 214.848 
L 156.052547 198.72 
L 156.377527 214.848 
L 156.702506 198.72 
L 157.027486 206.784 
L 157.352465 206.784 
L 157.677445 214.848 
L 158.327404 198.72 
L 159.627322 198.72 
L 159.952301 190.656 
L 160.277281 190.656 
L 160.92724 174.528 
L 161.252219 174.528 
L 161.577199 182.592 
L 161.902179 166.464 
L 162.227158 174.528 
L 162.877117 174.528 
L 163.527076 158.4 
L 165.151974 158.4 
L 165.476953 150.336 
L 166.126912 150.336 
L 166.451892 142.272 
L 167.42683 142.272 
L 167.75181 150.336 
L 168.07679 150.336 
L 168.726749 134.208 
L 169.051728 142.272 
L 169.376708 134.208 
L 170.351646 134.208 
L 170.676626 118.08 
L 171.001605 126.144 
L 171.326585 118.08 
L 171.976544 118.08 
L 172.301523 110.016 
L 173.276462 110.016 
L 173.601441 101.952 
L 173.926421 110.016 
L 174.2514 101.952 
L 175.551319 101.952 
L 175.876298 85.824 
L 176.201278 93.888 
L 176.526257 93.888 
L 176.851237 85.824 
L 177.176216 93.888 
L 177.501196 77.76 
L 177.826175 93.888 
L 178.476134 93.888 
L 179.126093 77.76 
L 179.451073 85.824 
L 179.776052 77.76 
L 180.101032 85.824 
L 180.426011 77.76 
L 180.750991 77.76 
L 181.075971 69.696 
L 181.40095 77.76 
L 182.050909 61.632 
L 182.375889 77.76 
L 182.700868 61.632 
L 183.350827 77.76 
L 183.675807 77.76 
L 184.325766 61.632 
L 184.975725 61.632 
L 185.300704 69.696 
L 185.625684 61.632 
L 185.950663 69.696 
L 186.275643 61.632 
L 186.600622 69.696 
L 186.925602 61.632 
L 187.250581 61.632 
L 187.575561 77.76 
L 187.900541 61.632 
L 188.5505 77.76 
L 188.875479 77.76 
L 189.200459 69.696 
L 189.850418 69.696 
L 190.175397 77.76 
L 190.500377 69.696 
L 190.825356 77.76 
L 191.150336 69.696 
L 191.800295 85.824 
L 192.775233 85.824 
L 193.100213 77.76 
L 193.425192 93.888 
L 193.750172 101.952 
L 194.725111 101.952 
L 195.05009 110.016 
L 195.37507 101.952 
L 195.700049 101.952 
L 196.350008 118.08 
L 196.674988 110.016 
L 196.999967 118.08 
L 198.299885 118.08 
L 198.624865 126.144 
L 198.949844 126.144 
L 199.274824 134.208 
L 199.599803 134.208 
L 199.924783 126.144 
L 200.249762 134.208 
L 201.224701 134.208 
L 201.549681 142.272 
L 201.87466 134.208 
L 202.19964 142.272 
L 202.524619 134.208 
L 202.849599 134.208 
L 203.174578 142.272 
L 203.499558 134.208 
L 203.824537 142.272 
L 204.149517 158.4 
L 204.474496 158.4 
L 204.799476 150.336 
L 205.124455 150.336 
L 205.774414 166.464 
L 206.749353 166.464 
L 207.074333 174.528 
L 207.399312 166.464 
L 207.724292 166.464 
L 208.374251 182.592 
L 208.69923 174.528 
L 209.349189 190.656 
L 210.649107 190.656 
L 210.974087 198.72 
L 211.299066 190.656 
L 211.624046 206.784 
L 211.949025 190.656 
L 212.274005 198.72 
L 213.248943 198.72 
L 213.573923 214.848 
L 213.898903 198.72 
L 214.223882 214.848 
L 214.548862 222.912 
L 214.873841 222.912 
L 215.198821 214.848 
L 215.5238 214.848 
L 215.84878 222.912 
L 216.173759 222.912 
L 216.498739 230.976 
L 217.473677 230.976 
L 217.798657 239.04 
L 218.123636 239.04 
L 218.448616 230.976 
L 218.773595 247.104 
L 219.098575 230.976 
L 219.423554 247.104 
L 219.748534 255.168 
L 220.073514 255.168 
L 220.398493 247.104 
L 221.048452 247.104 
L 221.373432 255.168 
L 222.998329 255.168 
L 223.323309 263.232 
L 223.648288 255.168 
L 223.973268 263.232 
L 224.298247 255.168 
L 224.623227 271.296 
L 225.598165 271.296 
L 225.923145 263.232 
L 226.248124 279.36 
L 226.573104 271.296 
L 227.223063 271.296 
L 227.548043 279.36 
L 227.873022 279.36 
L 228.198002 271.296 
L 228.847961 271.296 
L 229.17294 287.424 
L 229.49792 271.296 
L 229.822899 279.36 
L 230.147879 295.488 
L 230.472858 295.488 
L 231.122817 279.36 
L 233.722654 279.36 
L 234.047633 271.296 
L 234.372613 279.36 
L 234.697592 263.232 
L 235.022572 271.296 
L 235.347551 271.296 
L 235.672531 287.424 
L 235.99751 279.36 
L 236.32249 263.232 
L 237.947387 263.232 
L 238.272367 255.168 
L 238.597346 255.168 
L 238.922326 247.104 
L 239.572285 247.104 
L 239.897265 239.04 
L 240.547224 239.04 
L 240.872203 247.104 
L 241.522162 230.976 
L 241.847142 230.976 
L 242.172121 239.04 
L 242.497101 230.976 
L 243.14706 230.976 
L 243.797019 214.848 
L 244.446978 214.848 
L 244.771957 222.912 
L 245.096937 206.784 
L 245.421916 214.848 
L 245.746896 214.848 
L 246.071876 222.912 
L 246.721835 206.784 
L 247.371794 206.784 
L 247.696773 198.72 
L 248.021753 206.784 
L 248.346732 206.784 
L 248.671712 198.72 
L 248.996691 198.72 
L 249.64665 182.592 
L 249.97163 190.656 
L 250.296609 182.592 
L 250.621589 190.656 
L 250.946568 182.592 
L 251.271548 190.656 
L 251.596527 174.528 
L 251.921507 174.528 
L 252.246486 182.592 
L 252.571466 174.528 
L 252.896446 174.528 
L 253.221425 166.464 
L 253.871384 166.464 
L 254.196364 158.4 
L 254.521343 158.4 
L 254.846323 150.336 
L 255.171302 158.4 
L 255.496282 150.336 
L 255.821261 158.4 
L 256.146241 158.4 
L 256.47122 150.336 
L 257.121179 150.336 
L 257.446159 142.272 
L 257.771138 150.336 
L 258.096118 142.272 
L 259.396036 142.272 
L 260.045995 126.144 
L 260.370975 126.144 
L 260.695954 118.08 
L 261.020934 126.144 
L 261.670893 126.144 
L 261.995872 118.08 
L 262.645831 118.08 
L 262.970811 110.016 
L 263.945749 110.016 
L 264.270729 93.888 
L 264.595708 101.952 
L 264.920688 93.888 
L 265.245667 93.888 
L 265.570647 101.952 
L 265.895627 85.824 
L 266.220606 93.888 
L 267.195545 93.888 
L 267.520524 85.824 
L 267.845504 93.888 
L 268.820442 93.888 
L 269.145422 85.824 
L 269.795381 85.824 
L 270.44534 69.696 
L 270.770319 85.824 
L 271.095299 61.632 
L 271.420278 77.76 
L 271.745258 85.824 
L 272.395217 69.696 
L 274.345094 69.696 
L 274.670074 61.632 
L 274.995053 69.696 
L 275.645012 53.568 
L 275.969992 77.76 
L 276.294971 61.632 
L 276.619951 69.696 
L 276.94493 69.696 
L 277.26991 77.76 
L 277.594889 61.632 
L 277.919869 61.632 
L 278.569828 77.76 
L 278.894808 69.696 
L 279.869746 69.696 
L 280.194726 77.76 
L 280.519705 69.696 
L 280.844685 69.696 
L 281.169664 77.76 
L 281.494644 69.696 
L 281.819623 85.824 
L 282.144603 93.888 
L 282.469582 93.888 
L 282.794562 85.824 
L 283.119541 85.824 
L 283.444521 93.888 
L 284.09448 93.888 
L 284.419459 101.952 
L 284.744439 101.952 
L 285.069419 93.888 
L 285.394398 101.952 
L 285.719378 101.952 
L 286.044357 93.888 
L 286.369337 110.016 
L 286.694316 101.952 
L 287.019296 118.08 
L 287.344275 126.144 
L 287.669255 118.08 
L 288.319214 118.08 
L 288.644193 126.144 
L 289.619132 126.144 
L 289.944111 134.208 
L 290.269091 118.08 
L 290.59407 126.144 
L 291.244029 126.144 
L 291.569009 134.208 
L 291.893989 126.144 
L 292.218968 134.208 
L 292.543948 158.4 
L 293.193907 142.272 
L 293.518886 142.272 
L 293.843866 150.336 
L 294.168845 142.272 
L 294.493825 150.336 
L 294.818804 150.336 
L 295.143784 158.4 
L 295.468763 150.336 
L 295.793743 158.4 
L 296.443702 158.4 
L 296.768681 166.464 
L 297.093661 150.336 
L 297.41864 166.464 
L 298.0686 182.592 
L 298.393579 174.528 
L 298.718559 174.528 
L 299.043538 182.592 
L 300.018477 182.592 
L 300.343456 190.656 
L 300.993415 190.656 
L 301.318395 198.72 
L 301.643374 190.656 
L 301.968354 198.72 
L 302.293333 190.656 
L 303.268272 214.848 
L 303.593251 206.784 
L 304.56819 206.784 
L 304.89317 214.848 
L 305.218149 214.848 
L 305.543129 222.912 
L 306.843047 222.912 
L 307.168026 230.976 
L 307.493006 222.912 
L 307.817985 239.04 
L 308.142965 239.04 
L 308.467944 247.104 
L 308.792924 239.04 
L 309.442883 239.04 
L 309.767862 247.104 
L 310.417821 247.104 
L 310.742801 255.168 
L 311.067781 247.104 
L 311.39276 255.168 
L 311.71774 255.168 
L 312.042719 247.104 
L 312.367699 255.168 
L 312.692678 247.104 
L 313.017658 255.168 
L 313.342637 271.296 
L 313.667617 263.232 
L 314.642555 263.232 
L 314.967535 271.296 
L 315.292514 263.232 
L 315.617494 263.232 
L 316.267453 279.36 
L 316.592432 271.296 
L 317.242391 271.296 
L 317.567371 279.36 
L 317.892351 263.232 
L 318.21733 279.36 
L 318.54231 279.36 
L 318.867289 287.424 
L 319.192269 279.36 
L 319.517248 287.424 
L 319.842228 279.36 
L 320.492187 279.36 
L 320.817166 287.424 
L 321.467125 287.424 
L 321.792105 279.36 
L 322.767043 279.36 
L 323.092023 271.296 
L 323.741982 287.424 
L 324.066962 287.424 
L 324.391941 271.296 
L 324.716921 279.36 
L 325.0419 271.296 
L 326.016839 271.296 
L 326.341818 279.36 
L 326.666798 263.232 
L 327.316757 263.232 
L 327.641736 255.168 
L 327.966716 263.232 
L 328.291695 255.168 
L 328.616675 271.296 
L 328.941654 263.232 
L 329.266634 263.232 
L 329.591613 247.104 
L 329.916593 247.104 
L 330.241572 255.168 
L 330.566552 239.04 
L 330.891532 247.104 
L 331.216511 239.04 
L 331.541491 239.04 
L 331.86647 230.976 
L 332.19145 239.04 
L 332.841409 222.912 
L 333.166388 230.976 
L 333.491368 214.848 
L 334.141327 230.976 
L 334.466306 222.912 
L 335.116265 222.912 
L 335.441245 214.848 
L 335.766224 222.912 
L 336.416183 206.784 
L 336.741163 214.848 
L 337.066143 206.784 
L 337.391122 206.784 
L 337.716102 198.72 
L 338.366061 198.72 
L 338.69104 190.656 
L 339.01602 198.72 
L 339.665979 198.72 
L 340.315938 182.592 
L 340.640917 190.656 
L 340.965897 182.592 
L 341.290876 190.656 
L 341.615856 182.592 
L 341.940835 182.592 
L 342.265815 174.528 
L 342.590794 182.592 
L 343.240753 166.464 
L 343.565733 166.464 
L 343.890713 158.4 
L 344.215692 158.4 
L 344.865651 174.528 
L 345.190631 158.4 
L 345.84059 158.4 
L 346.165569 150.336 
L 347.140508 150.336 
L 347.465487 142.272 
L 347.790467 150.336 
L 348.440426 134.208 
L 348.765405 134.208 
L 349.090385 126.144 
L 349.740344 142.272 
L 350.065324 142.272 
L 350.390303 134.208 
L 350.715283 134.208 
L 351.365242 118.08 
L 351.690221 126.144 
L 352.015201 118.08 
L 352.34018 118.08 
L 352.66516 110.016 
L 352.990139 118.08 
L 353.315119 118.08 
L 353.640098 110.016 
L 353.965078 110.016 
L 354.290057 93.888 
L 354.940016 110.016 
L 355.264996 110.016 
L 355.589975 93.888 
L 356.889894 93.888 
L 357.214873 101.952 
L 357.539853 101.952 
L 357.864832 85.824 
L 358.189812 93.888 
L 358.514791 85.824 
L 359.16475 85.824 
L 359.48973 77.76 
L 359.814709 77.76 
L 360.464668 93.888 
L 360.789648 77.76 
L 361.764586 77.76 
L 362.089566 69.696 
L 362.739525 69.696 
L 363.064505 61.632 
L 363.389484 69.696 
L 363.714464 69.696 
L 364.039443 53.568 
L 364.364423 69.696 
L 364.689402 61.632 
L 365.339361 77.76 
L 365.664341 77.76 
L 365.98932 61.632 
L 366.3143 61.632 
L 366.639279 69.696 
L 366.964259 61.632 
L 367.289238 69.696 
L 367.614218 61.632 
L 367.939197 69.696 
L 368.264177 61.632 
L 368.589156 69.696 
L 368.914136 69.696 
L 369.239115 61.632 
L 369.564095 69.696 
L 369.889075 61.632 
L 370.214054 77.76 
L 371.513972 77.76 
L 371.838952 85.824 
L 372.163931 77.76 
L 372.81389 93.888 
L 373.13887 85.824 
L 373.463849 85.824 
L 373.788829 93.888 
L 374.113808 85.824 
L 374.438788 93.888 
L 375.088747 93.888 
L 375.738706 110.016 
L 377.363604 110.016 
L 377.688583 118.08 
L 378.663522 118.08 
L 378.988501 126.144 
L 379.63846 126.144 
L 379.96344 134.208 
L 380.288419 126.144 
L 380.613399 134.208 
L 380.938378 134.208 
L 381.263358 142.272 
L 381.588337 134.208 
L 381.913317 142.272 
L 382.238296 142.272 
L 382.563276 134.208 
L 382.888256 142.272 
L 383.863194 142.272 
L 384.188174 150.336 
L 384.513153 150.336 
L 384.838133 142.272 
L 385.163112 150.336 
L 385.488092 150.336 
L 386.138051 166.464 
L 386.78801 166.464 
L 387.112989 158.4 
L 387.437969 158.4 
L 387.762948 166.464 
L 388.087928 166.464 
L 388.737887 182.592 
L 389.062867 174.528 
L 390.037805 174.528 
L 390.362785 190.656 
L 390.687764 174.528 
L 391.012744 190.656 
L 391.337723 198.72 
L 393.2876 198.72 
L 393.937559 214.848 
L 394.262539 206.784 
L 394.912498 206.784 
L 395.562457 222.912 
L 395.887437 206.784 
L 396.212416 222.912 
L 396.537396 230.976 
L 397.187355 230.976 
L 397.512334 222.912 
L 398.162293 239.04 
L 398.487273 239.04 
L 398.487273 239.04 
" clip-path="url(#p9aa4592d01)" style="fill: none; stroke: #ff7f0e; stroke-width: 1.5; stroke-linecap: square"/>
   </g>
   <g id="line2d_14">
    <path d="M 73.832727 147.080613 
L 74.482686 147.128997 
L 75.782604 147.354789 
L 77.082523 147.338661 
L 80.982277 147.241893 
L 83.257133 147.258021 
L 87.156888 147.128997 
L 88.781785 147.209637 
L 90.406683 147.128997 
L 91.706601 147.016101 
L 96.906274 147.177381 
L 98.206192 147.193509 
L 101.455987 147.258021 
L 103.080885 147.274149 
L 105.680721 147.354789 
L 106.980639 147.387045 
L 108.280557 147.290277 
L 113.805209 147.209637 
L 114.455168 147.161253 
L 116.080066 147.225765 
L 117.704963 147.161253 
L 119.329861 147.145125 
L 121.604717 147.016101 
L 129.079247 147.096741 
L 131.679083 147.258021 
L 134.928878 147.322533 
L 140.12855 147.225765 
L 142.403407 147.209637 
L 145.978182 147.112869 
L 148.578018 147.064485 
L 151.177854 147.096741 
L 154.10267 147.161253 
L 155.402588 147.274149 
L 159.302342 147.145125 
L 160.92724 147.209637 
L 162.552138 147.225765 
L 164.502015 147.080613 
L 166.451892 147.370917 
L 167.42683 147.322533 
L 169.701687 147.274149 
L 170.351646 147.274149 
L 171.651564 147.258021 
L 172.626503 147.354789 
L 174.2514 147.177381 
L 175.876298 147.096741 
L 179.776052 147.225765 
L 182.375889 147.064485 
L 186.925602 147.209637 
L 187.900541 147.145125 
L 188.875479 147.225765 
L 190.175397 147.322533 
L 192.125274 147.225765 
L 195.700049 147.322533 
L 196.674988 147.403173 
L 201.87466 147.225765 
L 203.499558 147.209637 
L 205.124455 147.193509 
L 206.424373 147.225765 
L 213.898903 146.951589 
L 217.148698 147.016101 
L 219.423554 147.096741 
L 222.023391 147.274149 
L 223.648288 147.258021 
L 225.598165 147.370917 
L 228.522981 147.322533 
L 230.797838 147.225765 
L 233.072695 147.193509 
L 234.697592 147.193509 
L 236.647469 147.096741 
L 244.446978 147.161253 
L 245.421916 147.274149 
L 246.721835 147.177381 
L 248.021753 147.080613 
L 252.571466 147.241893 
L 254.196364 147.096741 
L 254.846323 147.096741 
L 256.47122 147.387045 
L 257.446159 147.354789 
L 259.071057 147.290277 
L 264.270729 147.209637 
L 266.220606 147.096741 
L 268.820442 147.193509 
L 270.44534 147.177381 
L 273.695135 147.112869 
L 274.670074 147.209637 
L 279.869746 147.306405 
L 280.844685 147.306405 
L 283.444521 147.258021 
L 284.744439 147.290277 
L 287.669255 147.354789 
L 292.218968 147.225765 
L 300.018477 147.145125 
L 302.293333 147.016101 
L 310.092842 147.112869 
L 311.39276 147.258021 
L 313.017658 147.274149 
L 325.0419 147.193509 
L 326.666798 147.112869 
L 334.791286 147.177381 
L 335.766224 147.258021 
L 339.340999 147.128997 
L 340.640917 147.225765 
L 343.890713 147.145125 
L 344.865651 147.096741 
L 345.84059 147.258021 
L 346.815528 147.387045 
L 348.115446 147.290277 
L 349.090385 147.274149 
L 354.615037 147.209637 
L 355.589975 147.112869 
L 356.889894 147.080613 
L 358.514791 147.145125 
L 361.764586 147.064485 
L 362.739525 147.048357 
L 367.614218 147.193509 
L 369.239115 147.177381 
L 370.214054 147.290277 
L 371.513972 147.274149 
L 373.788829 147.258021 
L 376.388665 147.354789 
L 378.013563 147.354789 
L 378.988501 147.306405 
L 380.613399 147.241893 
L 382.888256 147.225765 
L 384.188174 147.209637 
L 384.838133 147.161253 
L 387.437969 147.225765 
L 388.412907 147.193509 
L 389.712826 147.193509 
L 392.312662 147.032229 
L 395.237477 146.983845 
L 396.537396 147.032229 
L 398.487273 146.983845 
L 398.487273 146.983845 
" clip-path="url(#p9aa4592d01)" style="fill: none; stroke: #2ca02c; stroke-width: 1.5; stroke-linecap: square"/>
   </g>
   <g id="patch_3">
    <path d="M 57.6 307.584 
L 57.6 41.472 
" style="fill: none; stroke: #000000; stroke-width: 0.8; stroke-linejoin: miter; stroke-linecap: square"/>
   </g>
   <g id="patch_4">
    <path d="M 414.72 307.584 
L 414.72 41.472 
" style="fill: none; stroke: #000000; stroke-width: 0.8; stroke-linejoin: miter; stroke-linecap: square"/>
   </g>
   <g id="patch_5">
    <path d="M 57.6 307.584 
L 414.72 307.584 
" style="fill: none; stroke: #000000; stroke-width: 0.8; stroke-linejoin: miter; stroke-linecap: square"/>
   </g>
   <g id="patch_6">
    <path d="M 57.6 41.472 
L 414.72 41.472 
" style="fill: none; stroke: #000000; stroke-width: 0.8; stroke-linejoin: miter; stroke-linecap: square"/>
   </g>
  </g>
 </g>
 <defs>
  <clipPath id="p9aa4592d01">
   <rect x="57.6" y="41.472" width="357.12" height="266.112"/>
  </clipPath>
 </defs>
</svg>
