<?xml version="1.0" encoding="utf-8" standalone="no"?>
<!DOCTYPE svg PUBLIC "-//W3C//DTD SVG 1.1//EN"
  "http://www.w3.org/Graphics/SVG/1.1/DTD/svg11.dtd">
<svg xmlns:xlink="http://www.w3.org/1999/xlink" width="460.8pt" height="345.6pt" viewBox="0 0 460.8 345.6" xmlns="http://www.w3.org/2000/svg" version="1.1">
 <metadata>
  <rdf:RDF xmlns:dc="http://purl.org/dc/elements/1.1/" xmlns:cc="http://creativecommons.org/ns#" xmlns:rdf="http://www.w3.org/1999/02/22-rdf-syntax-ns#">
   <cc:Work>
    <dc:type rdf:resource="http://purl.org/dc/dcmitype/StillImage"/>
    <dc:date>2025-12-25T03:23:15.423188</dc:date>
    <dc:format>image/svg+xml</dc:format>
    <dc:creator>
     <cc:Agent>
      <dc:title>Matplotlib v3.10.8, https://matplotlib.org/</dc:title>
     </cc:Agent>
    </dc:creator>
   </cc:Work>
  </rdf:RDF>
 </metadata>
 <defs>
  <style type="text/css">*{stroke-linejoin: round; stroke-linecap: butt}</style>
 </defs>
 <g id="figure_1">
  <g id="patch_1">
   <path d="M 0 345.6 
L 460.8 345.6 
L 460.8 0 
L 0 0 
z
" style="fill: #ffffff"/>
  </g>
  <g id="axes_1">
   <g id="patch_2">
    <path d="M 57.6 307.584 
L 414.72 307.584 
L 414.72 41.472 
L 57.6 41.472 
z
" style="fill: #ffffff"/>
   </g>
   <g id="matplotlib.axis_1">
    <g id="xtick_1">
     <g id="line2d_1">
      <defs>
       <path id="m1f774d3fe3" d="M 0 0 
L 0 3.5 
" style="stroke: #000000; stroke-width: 0.8"/>
      </defs>
      <g>
       <use xlink:href="#m1f774d3fe3" x="73.832727" y="307.584" style="stroke: #000000; stroke-width: 0.8"/>
      </g>
     </g>
     <g id="text_1">
      <!-- 0 -->
      <g transform="translate(70.651477 322.182437) scale(0.1 -0.1)">
       <defs>
        <path id="DejaVuSans-30" d="M 2034 4250 
Q 1547 4250 1301 3770 
Q 1056 3291 1056 2328 
Q 1056 1369 1301 889 
Q 1547 409 2034 409 
Q 2525 409 2770 889 
Q 3016 1369 3016 2328 
Q 3016 3291 2770 3770 
Q 2525 4250 2034 4250 
z
M 2034 4750 
Q 2819 4750 3233 4129 
Q 3647 3509 3647 2328 
Q 3647 1150 3233 529 
Q 2819 -91 2034 -91 
Q 1250 -91 836 529 
Q 422 1150 422 2328 
Q 422 3509 836 4129 
Q 1250 4750 2034 4750 
z
" transform="scale(0.015625)"/>
       </defs>
       <use xlink:href="#DejaVuSans-30"/>
      </g>
     </g>
    </g>
    <g id="xtick_2">
     <g id="line2d_2">
      <g>
       <use xlink:href="#m1f774d3fe3" x="138.828632" y="307.584" style="stroke: #000000; stroke-width: 0.8"/>
      </g>
     </g>
     <g id="text_2">
      <!-- 1 -->
      <g transform="translate(135.647382 322.182437) scale(0.1 -0.1)">
       <defs>
        <path id="DejaVuSans-31" d="M 794 531 
L 1825 531 
L 1825 4091 
L 703 3866 
L 703 4441 
L 1819 4666 
L 2450 4666 
L 2450 531 
L 3481 531 
L 3481 0 
L 794 0 
L 794 531 
z
" transform="scale(0.015625)"/>
       </defs>
       <use xlink:href="#DejaVuSans-31"/>
      </g>
     </g>
    </g>
    <g id="xtick_3">
     <g id="line2d_3">
      <g>
       <use xlink:href="#m1f774d3fe3" x="203.824537" y="307.584" style="stroke: #000000; stroke-width: 0.8"/>
      </g>
     </g>
     <g id="text_3">
      <!-- 2 -->
      <g transform="translate(200.643287 322.182437) scale(0.1 -0.1)">
       <defs>
        <path id="DejaVuSans-32" d="M 1228 531 
L 3431 531 
L 3431 0 
L 469 0 
L 469 531 
Q 828 903 1448 1529 
Q 2069 2156 2228 2338 
Q 2531 2678 2651 2914 
Q 2772 3150 2772 3378 
Q 2772 3750 2511 3984 
Q 2250 4219 1831 4219 
Q 1534 4219 1204 4116 
Q 875 4013 500 3803 
L 500 4441 
Q 881 4594 1212 4672 
Q 1544 4750 1819 4750 
Q 2544 4750 2975 4387 
Q 3406 4025 3406 3419 
Q 3406 3131 3298 2873 
Q 3191 2616 2906 2266 
Q 2828 2175 2409 1742 
Q 1991 1309 1228 531 
z
" transform="scale(0.015625)"/>
       </defs>
       <use xlink:href="#DejaVuSans-32"/>
      </g>
     </g>
    </g>
    <g id="xtick_4">
     <g id="line2d_4">
      <g>
       <use xlink:href="#m1f774d3fe3" x="268.820442" y="307.584" style="stroke: #000000; stroke-width: 0.8"/>
      </g>
     </g>
     <g id="text_4">
      <!-- 3 -->
      <g transform="translate(265.639192 322.182437) scale(0.1 -0.1)">
       <defs>
        <path id="DejaVuSans-33" d="M 2597 2516 
Q 3050 2419 3304 2112 
Q 3559 1806 3559 1356 
Q 3559 666 3084 287 
Q 2609 -91 1734 -91 
Q 1441 -91 1130 -33 
Q 819 25 488 141 
L 488 750 
Q 750 597 1062 519 
Q 1375 441 1716 441 
Q 2309 441 2620 675 
Q 2931 909 2931 1356 
Q 2931 1769 2642 2001 
Q 2353 2234 1838 2234 
L 1294 2234 
L 1294 2753 
L 1863 2753 
Q 2328 2753 2575 2939 
Q 2822 3125 2822 3475 
Q 2822 3834 2567 4026 
Q 2313 4219 1838 4219 
Q 1578 4219 1281 4162 
Q 984 4106 628 3988 
L 628 4550 
Q 988 4650 1302 4700 
Q 1616 4750 1894 4750 
Q 2613 4750 3031 4423 
Q 3450 4097 3450 3541 
Q 3450 3153 3228 2886 
Q 3006 2619 2597 2516 
z
" transform="scale(0.015625)"/>
       </defs>
       <use xlink:href="#DejaVuSans-33"/>
      </g>
     </g>
    </g>
    <g id="xtick_5">
     <g id="line2d_5">
      <g>
       <use xlink:href="#m1f774d3fe3" x="333.816347" y="307.584" style="stroke: #000000; stroke-width: 0.8"/>
      </g>
     </g>
     <g id="text_5">
      <!-- 4 -->
      <g transform="translate(330.635097 322.182437) scale(0.1 -0.1)">
       <defs>
        <path id="DejaVuSans-34" d="M 2419 4116 
L 825 1625 
L 2419 1625 
L 2419 4116 
z
M 2253 4666 
L 3047 4666 
L 3047 1625 
L 3713 1625 
L 3713 1100 
L 3047 1100 
L 3047 0 
L 2419 0 
L 2419 1100 
L 313 1100 
L 313 1709 
L 2253 4666 
z
" transform="scale(0.015625)"/>
       </defs>
       <use xlink:href="#DejaVuSans-34"/>
      </g>
     </g>
    </g>
    <g id="xtick_6">
     <g id="line2d_6">
      <g>
       <use xlink:href="#m1f774d3fe3" x="398.812252" y="307.584" style="stroke: #000000; stroke-width: 0.8"/>
      </g>
     </g>
     <g id="text_6">
      <!-- 5 -->
      <g transform="translate(395.631002 322.182437) scale(0.1 -0.1)">
       <defs>
        <path id="DejaVuSans-35" d="M 691 4666 
L 3169 4666 
L 3169 4134 
L 1269 4134 
L 1269 2991 
Q 1406 3038 1543 3061 
Q 1681 3084 1819 3084 
Q 2600 3084 3056 2656 
Q 3513 2228 3513 1497 
Q 3513 744 3044 326 
Q 2575 -91 1722 -91 
Q 1428 -91 1123 -41 
Q 819 9 494 109 
L 494 744 
Q 775 591 1075 516 
Q 1375 441 1709 441 
Q 2250 441 2565 725 
Q 2881 1009 2881 1497 
Q 2881 1984 2565 2268 
Q 2250 2553 1709 2553 
Q 1456 2553 1204 2497 
Q 953 2441 691 2322 
L 691 4666 
z
" transform="scale(0.015625)"/>
       </defs>
       <use xlink:href="#DejaVuSans-35"/>
      </g>
     </g>
    </g>
    <g id="text_7">
     <!-- 1e−7 -->
     <g transform="translate(387.462188 334.860562) scale(0.1 -0.1)">
      <defs>
       <path id="DejaVuSans-65" d="M 3597 1894 
L 3597 1613 
L 953 1613 
Q 991 1019 1311 708 
Q 1631 397 2203 397 
Q 2534 397 2845 478 
Q 3156 559 3463 722 
L 3463 178 
Q 3153 47 2828 -22 
Q 2503 -91 2169 -91 
Q 1331 -91 842 396 
Q 353 884 353 1716 
Q 353 2575 817 3079 
Q 1281 3584 2069 3584 
Q 2775 3584 3186 3129 
Q 3597 2675 3597 1894 
z
M 3022 2063 
Q 3016 2534 2758 2815 
Q 2500 3097 2075 3097 
Q 1594 3097 1305 2825 
Q 1016 2553 972 2059 
L 3022 2063 
z
" transform="scale(0.015625)"/>
       <path id="DejaVuSans-2212" d="M 678 2272 
L 4684 2272 
L 4684 1741 
L 678 1741 
L 678 2272 
z
" transform="scale(0.015625)"/>
       <path id="DejaVuSans-37" d="M 525 4666 
L 3525 4666 
L 3525 4397 
L 1831 0 
L 1172 0 
L 2766 4134 
L 525 4134 
L 525 4666 
z
" transform="scale(0.015625)"/>
      </defs>
      <use xlink:href="#DejaVuSans-31"/>
      <use xlink:href="#DejaVuSans-65" transform="translate(63.623047 0)"/>
      <use xlink:href="#DejaVuSans-2212" transform="translate(125.146484 0)"/>
      <use xlink:href="#DejaVuSans-37" transform="translate(208.935547 0)"/>
     </g>
    </g>
   </g>
   <g id="matplotlib.axis_2">
    <g id="ytick_1">
     <g id="line2d_7">
      <defs>
       <path id="m17c9a3f305" d="M 0 0 
L -3.5 0 
" style="stroke: #000000; stroke-width: 0.8"/>
      </defs>
      <g>
       <use xlink:href="#m17c9a3f305" x="57.6" y="291.387637" style="stroke: #000000; stroke-width: 0.8"/>
      </g>
     </g>
     <g id="text_8">
      <!-- −20 -->
      <g transform="translate(29.495313 295.186856) scale(0.1 -0.1)">
       <use xlink:href="#DejaVuSans-2212"/>
       <use xlink:href="#DejaVuSans-32" transform="translate(83.789062 0)"/>
       <use xlink:href="#DejaVuSans-30" transform="translate(147.412109 0)"/>
      </g>
     </g>
    </g>
    <g id="ytick_2">
     <g id="line2d_8">
      <g>
       <use xlink:href="#m17c9a3f305" x="57.6" y="238.903301" style="stroke: #000000; stroke-width: 0.8"/>
      </g>
     </g>
     <g id="text_9">
      <!-- 0 -->
      <g transform="translate(44.2375 242.70252) scale(0.1 -0.1)">
       <use xlink:href="#DejaVuSans-30"/>
      </g>
     </g>
    </g>
    <g id="ytick_3">
     <g id="line2d_9">
      <g>
       <use xlink:href="#m17c9a3f305" x="57.6" y="186.418965" style="stroke: #000000; stroke-width: 0.8"/>
      </g>
     </g>
     <g id="text_10">
      <!-- 20 -->
      <g transform="translate(37.875 190.218184) scale(0.1 -0.1)">
       <use xlink:href="#DejaVuSans-32"/>
       <use xlink:href="#DejaVuSans-30" transform="translate(63.623047 0)"/>
      </g>
     </g>
    </g>
    <g id="ytick_4">
     <g id="line2d_10">
      <g>
       <use xlink:href="#m17c9a3f305" x="57.6" y="133.93463" style="stroke: #000000; stroke-width: 0.8"/>
      </g>
     </g>
     <g id="text_11">
      <!-- 40 -->
      <g transform="translate(37.875 137.733848) scale(0.1 -0.1)">
       <use xlink:href="#DejaVuSans-34"/>
       <use xlink:href="#DejaVuSans-30" transform="translate(63.623047 0)"/>
      </g>
     </g>
    </g>
    <g id="ytick_5">
     <g id="line2d_11">
      <g>
       <use xlink:href="#m17c9a3f305" x="57.6" y="81.450294" style="stroke: #000000; stroke-width: 0.8"/>
      </g>
     </g>
     <g id="text_12">
      <!-- 60 -->
      <g transform="translate(37.875 85.249513) scale(0.1 -0.1)">
       <defs>
        <path id="DejaVuSans-36" d="M 2113 2584 
Q 1688 2584 1439 2293 
Q 1191 2003 1191 1497 
Q 1191 994 1439 701 
Q 1688 409 2113 409 
Q 2538 409 2786 701 
Q 3034 994 3034 1497 
Q 3034 2003 2786 2293 
Q 2538 2584 2113 2584 
z
M 3366 4563 
L 3366 3988 
Q 3128 4100 2886 4159 
Q 2644 4219 2406 4219 
Q 1781 4219 1451 3797 
Q 1122 3375 1075 2522 
Q 1259 2794 1537 2939 
Q 1816 3084 2150 3084 
Q 2853 3084 3261 2657 
Q 3669 2231 3669 1497 
Q 3669 778 3244 343 
Q 2819 -91 2113 -91 
Q 1303 -91 875 529 
Q 447 1150 447 2328 
Q 447 3434 972 4092 
Q 1497 4750 2381 4750 
Q 2619 4750 2861 4703 
Q 3103 4656 3366 4563 
z
" transform="scale(0.015625)"/>
       </defs>
       <use xlink:href="#DejaVuSans-36"/>
       <use xlink:href="#DejaVuSans-30" transform="translate(63.623047 0)"/>
      </g>
     </g>
    </g>
   </g>
   <g id="line2d_12">
    <path d="M 73.832727 240.953467 
L 74.157707 238.903297 
L 74.482686 240.953467 
L 74.807666 238.903297 
L 75.132645 238.903297 
L 75.457625 240.953467 
L 75.782604 238.903297 
L 76.107584 238.903297 
L 76.432563 240.953467 
L 77.407502 240.953467 
L 77.732482 243.003636 
L 78.057461 240.953467 
L 78.382441 245.053806 
L 78.70742 240.953467 
L 80.657297 240.953467 
L 80.982277 238.903297 
L 81.307256 240.953467 
L 81.632236 240.953467 
L 81.957215 243.003636 
L 82.607174 243.003636 
L 82.932154 240.953467 
L 83.257133 240.953467 
L 83.582113 243.003636 
L 83.907093 238.903297 
L 84.232072 240.953467 
L 85.207011 240.953467 
L 85.53199 238.903297 
L 85.85697 243.003636 
L 86.181949 240.953467 
L 86.506929 243.003636 
L 86.831908 240.953467 
L 87.156888 243.003636 
L 88.131826 243.003636 
L 88.456806 240.953467 
L 88.781785 243.003636 
L 89.106765 240.953467 
L 89.431744 243.003636 
L 89.756724 240.953467 
L 90.081704 243.003636 
L 90.406683 243.003636 
L 90.731663 238.903297 
L 91.056642 240.953467 
L 91.706601 240.953467 
L 92.031581 238.903297 
L 92.35656 238.903297 
L 92.68154 236.853128 
L 93.006519 232.752789 
L 93.331499 230.702619 
L 93.656478 224.552111 
L 93.981458 224.552111 
L 94.631417 214.301263 
L 95.281376 206.100585 
L 95.606355 204.050416 
L 96.256314 195.849738 
L 96.581294 195.849738 
L 97.231253 187.64906 
L 97.556233 185.59889 
L 97.881212 181.498551 
L 98.206192 179.448382 
L 98.531171 173.297873 
L 99.18113 169.197534 
L 99.831089 158.946687 
L 100.481048 154.846348 
L 100.806028 150.746009 
L 101.455987 146.64567 
L 101.780966 142.545331 
L 102.105946 140.495161 
L 102.430925 136.394822 
L 103.730844 128.194145 
L 104.055823 124.093806 
L 104.380803 124.093806 
L 105.030762 115.893128 
L 105.355741 113.842958 
L 105.680721 113.842958 
L 106.33068 109.742619 
L 106.655659 109.742619 
L 106.980639 107.69245 
L 107.305618 107.69245 
L 107.630598 103.592111 
L 108.280557 103.592111 
L 108.605536 99.491772 
L 108.930516 101.541941 
L 109.255495 99.491772 
L 109.580475 101.541941 
L 109.905455 97.441602 
L 110.880393 97.441602 
L 111.205373 95.391433 
L 111.530352 97.441602 
L 111.855332 97.441602 
L 112.180311 93.341263 
L 112.505291 97.441602 
L 113.480229 97.441602 
L 113.805209 95.391433 
L 114.130188 95.391433 
L 114.455168 93.341263 
L 114.780147 97.441602 
L 115.105127 93.341263 
L 115.430106 95.391433 
L 115.755086 95.391433 
L 116.080066 97.441602 
L 116.730025 97.441602 
L 117.055004 99.491772 
L 117.379984 95.391433 
L 117.704963 99.491772 
L 118.679902 99.491772 
L 119.004881 101.541941 
L 119.65484 97.441602 
L 119.97982 101.541941 
L 120.304799 99.491772 
L 121.279738 99.491772 
L 121.604717 97.441602 
L 122.254676 101.541941 
L 122.579656 99.491772 
L 122.904636 101.541941 
L 123.229615 99.491772 
L 123.554595 99.491772 
L 123.879574 101.541941 
L 124.204554 101.541941 
L 124.854513 97.441602 
L 125.179492 101.541941 
L 125.504472 99.491772 
L 125.829451 101.541941 
L 126.154431 99.491772 
L 126.47941 99.491772 
L 126.80439 97.441602 
L 127.129369 99.491772 
L 127.779328 99.491772 
L 128.104308 101.541941 
L 128.429287 97.441602 
L 128.754267 99.491772 
L 129.079247 99.491772 
L 129.404226 101.541941 
L 129.729206 99.491772 
L 130.054185 99.491772 
L 130.379165 103.592111 
L 130.704144 99.491772 
L 131.029124 101.541941 
L 131.354103 101.541941 
L 131.679083 103.592111 
L 132.329042 103.592111 
L 132.654021 105.64228 
L 133.62896 105.64228 
L 133.953939 107.69245 
L 134.278919 111.792789 
L 134.603898 109.742619 
L 134.928878 109.742619 
L 135.253857 111.792789 
L 135.578837 115.893128 
L 135.903817 113.842958 
L 136.228796 117.943297 
L 136.553776 117.943297 
L 136.878755 119.993467 
L 137.203735 119.993467 
L 137.528714 124.093806 
L 137.853694 126.143975 
L 138.178673 126.143975 
L 138.503653 130.244314 
L 138.828632 132.294483 
L 139.153612 132.294483 
L 141.103489 144.5955 
L 141.428468 148.695839 
L 142.078428 152.796178 
L 142.403407 152.796178 
L 143.053366 160.996856 
L 143.378346 160.996856 
L 144.028305 165.097195 
L 144.353284 169.197534 
L 145.003243 173.297873 
L 145.328223 173.297873 
L 145.653202 175.348043 
L 145.978182 179.448382 
L 146.303161 179.448382 
L 147.2781 185.59889 
L 147.603079 189.699229 
L 147.928059 189.699229 
L 148.253038 193.799568 
L 148.578018 193.799568 
L 149.227977 197.899907 
L 149.552957 202.000246 
L 149.877936 204.050416 
L 150.202916 204.050416 
L 150.527895 206.100585 
L 150.852875 206.100585 
L 151.177854 212.251094 
L 151.827813 212.251094 
L 152.152793 214.301263 
L 152.477772 214.301263 
L 153.452711 220.451772 
L 153.77769 220.451772 
L 154.10267 222.501941 
L 154.427649 222.501941 
L 155.402588 228.65245 
L 155.727568 226.60228 
L 156.052547 226.60228 
L 156.377527 230.702619 
L 156.702506 228.65245 
L 157.027486 230.702619 
L 157.352465 230.702619 
L 157.677445 232.752789 
L 158.002424 230.702619 
L 158.327404 232.752789 
L 158.652383 236.853128 
L 158.977363 234.802958 
L 159.302342 238.903297 
L 159.627322 240.953467 
L 159.952301 240.953467 
L 160.277281 245.053806 
L 160.60226 243.003636 
L 160.92724 243.003636 
L 161.252219 240.953467 
L 161.577199 240.953467 
L 161.902179 238.903297 
L 162.227158 240.953467 
L 162.552138 238.903297 
L 162.877117 238.903297 
L 163.202097 236.853128 
L 163.852056 240.953467 
L 164.177035 240.953467 
L 164.502015 243.003636 
L 164.826994 240.953467 
L 165.151974 240.953467 
L 165.476953 243.003636 
L 165.801933 243.003636 
L 166.126912 240.953467 
L 166.451892 236.853128 
L 166.776871 238.903297 
L 167.75181 238.903297 
L 168.07679 240.953467 
L 168.401769 238.903297 
L 168.726749 243.003636 
L 169.051728 240.953467 
L 170.026667 240.953467 
L 170.351646 238.903297 
L 170.676626 240.953467 
L 171.001605 238.903297 
L 171.326585 238.903297 
L 171.651564 240.953467 
L 171.976544 245.053806 
L 172.301523 240.953467 
L 172.626503 240.953467 
L 172.951482 238.903297 
L 173.276462 240.953467 
L 173.601441 240.953467 
L 173.926421 238.903297 
L 175.226339 238.903297 
L 175.551319 240.953467 
L 175.876298 240.953467 
L 176.201278 243.003636 
L 176.526257 243.003636 
L 176.851237 240.953467 
L 177.176216 243.003636 
L 177.501196 240.953467 
L 177.826175 240.953467 
L 178.151155 238.903297 
L 178.476134 240.953467 
L 178.801114 238.903297 
L 179.126093 238.903297 
L 179.451073 240.953467 
L 179.776052 238.903297 
L 180.101032 243.003636 
L 180.426011 240.953467 
L 180.750991 240.953467 
L 181.075971 243.003636 
L 181.40095 243.003636 
L 182.050909 238.903297 
L 182.375889 240.953467 
L 182.700868 240.953467 
L 183.025848 238.903297 
L 183.350827 238.903297 
L 183.675807 240.953467 
L 184.975725 240.953467 
L 185.300704 243.003636 
L 186.600622 243.003636 
L 186.925602 240.953467 
L 188.5505 240.953467 
L 188.875479 243.003636 
L 189.200459 240.953467 
L 189.525438 243.003636 
L 189.850418 243.003636 
L 190.175397 240.953467 
L 190.500377 240.953467 
L 191.150336 236.853128 
L 191.475315 232.752789 
L 191.800295 230.702619 
L 192.450254 222.501941 
L 192.775233 220.451772 
L 193.750172 208.150755 
L 194.075152 206.100585 
L 194.400131 199.950077 
L 194.725111 197.899907 
L 195.05009 193.799568 
L 195.700049 189.699229 
L 196.025029 183.548721 
L 196.350008 183.548721 
L 196.999967 175.348043 
L 197.324947 169.197534 
L 197.649926 167.147365 
L 197.974906 167.147365 
L 198.299885 158.946687 
L 198.624865 158.946687 
L 198.949844 156.896517 
L 199.274824 152.796178 
L 199.599803 150.746009 
L 200.249762 142.545331 
L 200.574742 140.495161 
L 200.899722 140.495161 
L 201.224701 136.394822 
L 201.549681 136.394822 
L 202.19964 128.194145 
L 203.174578 122.043636 
L 203.499558 117.943297 
L 203.824537 115.893128 
L 204.149517 111.792789 
L 204.799476 111.792789 
L 205.124455 109.742619 
L 205.449435 109.742619 
L 205.774414 105.64228 
L 206.099394 105.64228 
L 206.424373 103.592111 
L 206.749353 103.592111 
L 207.074333 101.541941 
L 207.724292 101.541941 
L 208.049271 99.491772 
L 208.374251 99.491772 
L 208.69923 97.441602 
L 209.02421 97.441602 
L 209.349189 95.391433 
L 209.674169 97.441602 
L 209.999148 97.441602 
L 210.324128 95.391433 
L 210.649107 97.441602 
L 210.974087 95.391433 
L 211.299066 95.391433 
L 211.624046 97.441602 
L 211.949025 95.391433 
L 212.274005 95.391433 
L 212.598984 97.441602 
L 212.923964 95.391433 
L 213.248943 95.391433 
L 213.573923 97.441602 
L 213.898903 95.391433 
L 214.223882 97.441602 
L 214.873841 97.441602 
L 215.198821 95.391433 
L 215.5238 95.391433 
L 215.84878 99.491772 
L 216.498739 99.491772 
L 216.823718 97.441602 
L 217.148698 97.441602 
L 217.473677 99.491772 
L 218.448616 99.491772 
L 218.773595 101.541941 
L 219.098575 99.491772 
L 219.423554 99.491772 
L 219.748534 97.441602 
L 220.073514 99.491772 
L 220.398493 97.441602 
L 220.723473 97.441602 
L 221.048452 101.541941 
L 221.373432 99.491772 
L 222.023391 99.491772 
L 222.34837 101.541941 
L 222.998329 101.541941 
L 223.323309 99.491772 
L 223.648288 99.491772 
L 223.973268 101.541941 
L 224.298247 97.441602 
L 224.623227 101.541941 
L 224.948206 101.541941 
L 225.273186 99.491772 
L 226.248124 99.491772 
L 226.573104 101.541941 
L 226.898084 99.491772 
L 227.223063 99.491772 
L 227.873022 103.592111 
L 228.198002 101.541941 
L 228.522981 101.541941 
L 228.847961 99.491772 
L 229.17294 103.592111 
L 229.49792 101.541941 
L 229.822899 105.64228 
L 230.147879 103.592111 
L 230.472858 105.64228 
L 230.797838 105.64228 
L 231.122817 103.592111 
L 231.447797 107.69245 
L 231.772776 105.64228 
L 232.422735 109.742619 
L 232.747715 109.742619 
L 233.072695 111.792789 
L 234.047633 111.792789 
L 234.372613 117.943297 
L 234.697592 115.893128 
L 235.022572 119.993467 
L 235.347551 122.043636 
L 235.99751 122.043636 
L 236.32249 124.093806 
L 236.647469 128.194145 
L 236.972449 128.194145 
L 238.597346 138.444992 
L 238.922326 142.545331 
L 239.247305 142.545331 
L 239.572285 148.695839 
L 239.897265 146.64567 
L 240.222244 150.746009 
L 240.547224 150.746009 
L 240.872203 154.846348 
L 241.522162 158.946687 
L 241.847142 158.946687 
L 242.172121 163.047026 
L 243.14706 169.197534 
L 243.472039 173.297873 
L 243.797019 175.348043 
L 244.121998 175.348043 
L 244.446978 177.398212 
L 244.771957 181.498551 
L 245.096937 183.548721 
L 245.421916 183.548721 
L 245.746896 185.59889 
L 246.071876 189.699229 
L 246.396855 191.749399 
L 246.721835 191.749399 
L 247.371794 195.849738 
L 247.696773 199.950077 
L 248.671712 206.100585 
L 248.996691 206.100585 
L 249.321671 208.150755 
L 249.64665 208.150755 
L 249.97163 212.251094 
L 250.296609 212.251094 
L 251.271548 218.401602 
L 251.596527 216.351433 
L 251.921507 220.451772 
L 252.246486 222.501941 
L 252.571466 222.501941 
L 252.896446 226.60228 
L 253.221425 224.552111 
L 253.546405 228.65245 
L 254.846323 228.65245 
L 255.171302 230.702619 
L 255.496282 228.65245 
L 255.821261 232.752789 
L 256.146241 230.702619 
L 256.47122 232.752789 
L 256.7962 232.752789 
L 257.446159 236.853128 
L 257.771138 236.853128 
L 258.096118 240.953467 
L 258.421097 243.003636 
L 258.746077 240.953467 
L 259.071057 243.003636 
L 259.396036 243.003636 
L 260.045995 238.903297 
L 261.020934 238.903297 
L 261.345913 236.853128 
L 261.670893 238.903297 
L 262.320852 238.903297 
L 262.645831 240.953467 
L 263.29579 240.953467 
L 263.62077 243.003636 
L 263.945749 240.953467 
L 264.270729 240.953467 
L 264.595708 238.903297 
L 265.245667 238.903297 
L 265.570647 240.953467 
L 266.220606 240.953467 
L 266.545586 238.903297 
L 266.870565 240.953467 
L 267.520524 240.953467 
L 267.845504 243.003636 
L 268.170483 240.953467 
L 268.820442 240.953467 
L 269.145422 238.903297 
L 269.470401 238.903297 
L 269.795381 240.953467 
L 270.12036 240.953467 
L 270.44534 238.903297 
L 270.770319 240.953467 
L 271.420278 240.953467 
L 271.745258 238.903297 
L 272.070238 240.953467 
L 272.395217 238.903297 
L 272.720197 238.903297 
L 273.045176 240.953467 
L 273.370156 238.903297 
L 273.695135 240.953467 
L 274.020115 240.953467 
L 274.345094 243.003636 
L 274.995053 243.003636 
L 275.645012 238.903297 
L 275.969992 240.953467 
L 276.294971 238.903297 
L 276.619951 240.953467 
L 276.94493 238.903297 
L 277.26991 240.953467 
L 277.594889 238.903297 
L 277.919869 238.903297 
L 278.244848 240.953467 
L 279.544767 240.953467 
L 279.869746 243.003636 
L 280.194726 240.953467 
L 280.519705 240.953467 
L 280.844685 236.853128 
L 281.169664 240.953467 
L 281.494644 238.903297 
L 281.819623 240.953467 
L 282.144603 238.903297 
L 282.469582 240.953467 
L 283.119541 240.953467 
L 283.444521 243.003636 
L 283.7695 240.953467 
L 284.744439 240.953467 
L 285.069419 243.003636 
L 285.394398 240.953467 
L 285.719378 240.953467 
L 286.044357 238.903297 
L 286.369337 240.953467 
L 287.344275 240.953467 
L 287.669255 243.003636 
L 287.994234 238.903297 
L 288.319214 240.953467 
L 288.644193 240.953467 
L 288.969173 238.903297 
L 289.294152 238.903297 
L 289.619132 236.853128 
L 289.944111 236.853128 
L 290.59407 228.65245 
L 290.91905 222.501941 
L 291.569009 218.401602 
L 291.893989 212.251094 
L 292.218968 210.200924 
L 292.868927 199.950077 
L 293.193907 197.899907 
L 293.518886 191.749399 
L 293.843866 191.749399 
L 294.168845 187.64906 
L 294.818804 183.548721 
L 295.143784 179.448382 
L 295.468763 177.398212 
L 296.118722 167.147365 
L 296.443702 163.047026 
L 296.768681 163.047026 
L 297.093661 154.846348 
L 297.41864 154.846348 
L 297.74362 150.746009 
L 298.0686 150.746009 
L 298.718559 142.545331 
L 299.043538 142.545331 
L 299.368518 136.394822 
L 301.318395 124.093806 
L 301.643374 119.993467 
L 301.968354 119.993467 
L 302.293333 115.893128 
L 303.268272 109.742619 
L 303.593251 109.742619 
L 303.918231 107.69245 
L 304.24321 107.69245 
L 304.56819 103.592111 
L 305.218149 103.592111 
L 305.543129 99.491772 
L 305.868108 101.541941 
L 306.843047 95.391433 
L 307.168026 97.441602 
L 307.493006 95.391433 
L 307.817985 95.391433 
L 308.142965 93.341263 
L 308.467944 97.441602 
L 308.792924 95.391433 
L 309.442883 95.391433 
L 309.767862 93.341263 
L 310.092842 95.391433 
L 312.042719 95.391433 
L 312.367699 97.441602 
L 312.692678 95.391433 
L 313.017658 97.441602 
L 313.667617 97.441602 
L 313.992596 95.391433 
L 314.317576 97.441602 
L 314.967535 97.441602 
L 315.292514 99.491772 
L 316.267453 99.491772 
L 316.592432 97.441602 
L 316.917412 99.491772 
L 317.242391 97.441602 
L 317.567371 99.491772 
L 317.892351 97.441602 
L 318.21733 99.491772 
L 318.54231 97.441602 
L 318.867289 97.441602 
L 319.192269 99.491772 
L 319.517248 99.491772 
L 319.842228 101.541941 
L 320.167207 99.491772 
L 320.817166 99.491772 
L 321.142146 101.541941 
L 321.467125 101.541941 
L 321.792105 99.491772 
L 322.117084 99.491772 
L 322.442064 97.441602 
L 322.767043 101.541941 
L 323.092023 99.491772 
L 323.417002 101.541941 
L 323.741982 99.491772 
L 324.716921 99.491772 
L 325.0419 101.541941 
L 325.36688 99.491772 
L 325.691859 101.541941 
L 326.016839 99.491772 
L 326.341818 101.541941 
L 326.991777 101.541941 
L 327.316757 103.592111 
L 327.641736 99.491772 
L 327.966716 103.592111 
L 328.291695 101.541941 
L 328.616675 103.592111 
L 328.941654 101.541941 
L 329.266634 105.64228 
L 329.591613 103.592111 
L 329.916593 103.592111 
L 330.241572 105.64228 
L 330.566552 105.64228 
L 330.891532 107.69245 
L 331.216511 107.69245 
L 331.541491 111.792789 
L 332.19145 111.792789 
L 332.516429 113.842958 
L 332.841409 113.842958 
L 333.166388 117.943297 
L 333.491368 115.893128 
L 334.141327 119.993467 
L 334.466306 124.093806 
L 334.791286 124.093806 
L 335.441245 128.194145 
L 335.766224 128.194145 
L 336.091204 132.294483 
L 336.416183 132.294483 
L 337.066143 140.495161 
L 337.391122 140.495161 
L 337.716102 142.545331 
L 338.041081 142.545331 
L 338.366061 148.695839 
L 338.69104 148.695839 
L 339.340999 152.796178 
L 339.665979 156.896517 
L 339.990958 158.946687 
L 340.315938 158.946687 
L 340.640917 163.047026 
L 340.965897 163.047026 
L 341.290876 169.197534 
L 341.615856 169.197534 
L 342.590794 175.348043 
L 342.915774 179.448382 
L 343.240753 179.448382 
L 343.565733 183.548721 
L 343.890713 183.548721 
L 344.215692 187.64906 
L 344.540672 187.64906 
L 344.865651 191.749399 
L 345.190631 191.749399 
L 346.165569 197.899907 
L 346.490549 204.050416 
L 346.815528 206.100585 
L 347.465487 206.100585 
L 347.790467 210.200924 
L 348.115446 210.200924 
L 348.765405 214.301263 
L 349.090385 214.301263 
L 349.415364 216.351433 
L 349.740344 216.351433 
L 350.715283 222.501941 
L 351.365242 222.501941 
L 351.690221 224.552111 
L 352.34018 224.552111 
L 352.66516 228.65245 
L 353.640098 228.65245 
L 353.965078 232.752789 
L 354.290057 230.702619 
L 354.615037 234.802958 
L 354.940016 232.752789 
L 355.589975 236.853128 
L 355.914955 236.853128 
L 356.239934 238.903297 
L 356.564914 238.903297 
L 357.214873 243.003636 
L 357.539853 240.953467 
L 357.864832 243.003636 
L 358.514791 243.003636 
L 358.839771 238.903297 
L 359.814709 238.903297 
L 360.139689 236.853128 
L 360.464668 240.953467 
L 360.789648 240.953467 
L 361.114627 238.903297 
L 361.439607 240.953467 
L 361.764586 240.953467 
L 362.089566 243.003636 
L 362.414545 240.953467 
L 362.739525 240.953467 
L 363.064505 238.903297 
L 363.714464 238.903297 
L 364.039443 236.853128 
L 364.364423 238.903297 
L 364.689402 236.853128 
L 365.664341 243.003636 
L 365.98932 243.003636 
L 366.3143 240.953467 
L 366.639279 240.953467 
L 366.964259 238.903297 
L 367.939197 238.903297 
L 368.264177 240.953467 
L 368.914136 240.953467 
L 369.239115 238.903297 
L 369.564095 243.003636 
L 369.889075 240.953467 
L 370.864013 240.953467 
L 371.188993 238.903297 
L 371.513972 240.953467 
L 372.163931 240.953467 
L 372.488911 238.903297 
L 372.81389 240.953467 
L 373.13887 240.953467 
L 373.463849 243.003636 
L 374.113808 243.003636 
L 374.438788 238.903297 
L 374.763767 240.953467 
L 375.088747 236.853128 
L 375.413726 238.903297 
L 376.063686 238.903297 
L 376.388665 240.953467 
L 378.663522 240.953467 
L 378.988501 243.003636 
L 379.63846 238.903297 
L 379.96344 240.953467 
L 380.288419 238.903297 
L 380.613399 240.953467 
L 380.938378 240.953467 
L 381.263358 243.003636 
L 382.238296 243.003636 
L 382.563276 240.953467 
L 382.888256 245.053806 
L 383.213235 243.003636 
L 384.838133 243.003636 
L 385.163112 240.953467 
L 385.488092 240.953467 
L 385.813071 243.003636 
L 386.138051 240.953467 
L 386.46303 240.953467 
L 386.78801 238.903297 
L 387.112989 240.953467 
L 387.437969 240.953467 
L 388.087928 236.853128 
L 388.412907 232.752789 
L 388.737887 230.702619 
L 389.387846 222.501941 
L 389.712826 220.451772 
L 390.037805 214.301263 
L 390.362785 214.301263 
L 390.687764 210.200924 
L 391.012744 208.150755 
L 391.662703 197.899907 
L 391.987682 195.849738 
L 392.962621 183.548721 
L 393.2876 183.548721 
L 393.937559 175.348043 
L 394.262539 173.297873 
L 394.587518 169.197534 
L 395.237477 158.946687 
L 395.562457 158.946687 
L 395.887437 154.846348 
L 396.862375 148.695839 
L 397.187355 144.5955 
L 397.512334 138.444992 
L 397.837314 140.495161 
L 398.162293 136.394822 
L 398.487273 134.344653 
L 398.487273 134.344653 
" clip-path="url(#pa4aedd0a8b)" style="fill: none; stroke: #1f77b4; stroke-width: 1.5; stroke-linecap: square"/>
   </g>
   <g id="line2d_13">
    <path d="M 73.832727 99.491772 
L 74.157707 97.441602 
L 74.807666 97.441602 
L 75.132645 99.491772 
L 75.457625 97.441602 
L 76.432563 97.441602 
L 76.757543 99.491772 
L 77.082523 97.441602 
L 77.732482 97.441602 
L 78.057461 99.491772 
L 78.382441 97.441602 
L 78.70742 99.491772 
L 80.332318 99.491772 
L 80.657297 97.441602 
L 80.982277 99.491772 
L 81.632236 99.491772 
L 82.282195 103.592111 
L 82.607174 101.541941 
L 82.932154 103.592111 
L 83.257133 103.592111 
L 83.582113 101.541941 
L 84.232072 105.64228 
L 84.557052 103.592111 
L 85.53199 109.742619 
L 85.85697 107.69245 
L 86.181949 111.792789 
L 86.506929 111.792789 
L 86.831908 113.842958 
L 87.156888 113.842958 
L 87.481867 115.893128 
L 87.806847 115.893128 
L 88.131826 119.993467 
L 88.781785 119.993467 
L 89.106765 126.143975 
L 89.756724 126.143975 
L 90.081704 130.244314 
L 90.731663 134.344653 
L 91.056642 134.344653 
L 91.381622 138.444992 
L 92.031581 142.545331 
L 92.35656 142.545331 
L 92.68154 146.64567 
L 93.331499 150.746009 
L 93.656478 150.746009 
L 94.306437 154.846348 
L 94.631417 160.996856 
L 94.956396 158.946687 
L 95.281376 163.047026 
L 96.906274 173.297873 
L 97.231253 177.398212 
L 97.881212 181.498551 
L 98.206192 185.59889 
L 98.531171 185.59889 
L 99.831089 193.799568 
L 100.156069 193.799568 
L 100.481048 195.849738 
L 100.806028 199.950077 
L 101.131007 202.000246 
L 101.455987 202.000246 
L 102.105946 206.100585 
L 102.430925 206.100585 
L 103.730844 214.301263 
L 104.055823 214.301263 
L 104.380803 212.251094 
L 104.705782 216.351433 
L 105.030762 216.351433 
L 105.355741 218.401602 
L 105.680721 218.401602 
L 106.655659 224.552111 
L 107.630598 224.552111 
L 108.280557 228.65245 
L 108.605536 226.60228 
L 109.255495 230.702619 
L 109.580475 230.702619 
L 110.230434 238.903297 
L 110.555414 240.953467 
L 110.880393 240.953467 
L 111.205373 245.053806 
L 111.855332 245.053806 
L 112.180311 243.003636 
L 112.505291 245.053806 
L 112.83027 243.003636 
L 113.15525 238.903297 
L 113.480229 236.853128 
L 113.805209 236.853128 
L 114.130188 240.953467 
L 114.455168 238.903297 
L 115.105127 243.003636 
L 115.755086 243.003636 
L 116.080066 245.053806 
L 116.730025 245.053806 
L 118.029943 236.853128 
L 118.679902 240.953467 
L 119.004881 240.953467 
L 119.65484 245.053806 
L 119.97982 243.003636 
L 120.304799 243.003636 
L 120.629779 240.953467 
L 121.279738 240.953467 
L 121.604717 238.903297 
L 122.904636 238.903297 
L 123.554595 243.003636 
L 123.879574 240.953467 
L 124.204554 245.053806 
L 124.529533 243.003636 
L 124.854513 243.003636 
L 125.179492 240.953467 
L 125.829451 240.953467 
L 126.154431 238.903297 
L 126.47941 240.953467 
L 126.80439 240.953467 
L 127.129369 243.003636 
L 127.454349 240.953467 
L 127.779328 243.003636 
L 128.104308 240.953467 
L 128.429287 243.003636 
L 128.754267 243.003636 
L 129.079247 240.953467 
L 129.404226 240.953467 
L 129.729206 243.003636 
L 130.379165 238.903297 
L 130.704144 240.953467 
L 132.004062 240.953467 
L 132.654021 245.053806 
L 133.30398 240.953467 
L 133.62896 240.953467 
L 133.953939 243.003636 
L 134.278919 238.903297 
L 134.603898 238.903297 
L 134.928878 240.953467 
L 135.903817 240.953467 
L 136.228796 245.053806 
L 136.553776 243.003636 
L 137.203735 247.103975 
L 137.528714 245.053806 
L 137.853694 245.053806 
L 138.178673 243.003636 
L 138.503653 245.053806 
L 138.828632 243.003636 
L 139.478591 243.003636 
L 139.803571 240.953467 
L 140.12855 243.003636 
L 140.45353 243.003636 
L 140.778509 240.953467 
L 141.103489 240.953467 
L 141.428468 243.003636 
L 141.753448 238.903297 
L 142.078428 238.903297 
L 142.403407 236.853128 
L 142.728387 232.752789 
L 143.053366 230.702619 
L 143.378346 224.552111 
L 143.703325 222.501941 
L 144.353284 214.301263 
L 144.678264 212.251094 
L 145.328223 204.050416 
L 145.653202 202.000246 
L 145.978182 197.899907 
L 146.303161 195.849738 
L 146.628141 191.749399 
L 147.2781 187.64906 
L 148.253038 175.348043 
L 148.578018 169.197534 
L 148.902998 169.197534 
L 149.227977 167.147365 
L 149.552957 163.047026 
L 149.877936 160.996856 
L 150.202916 156.896517 
L 150.852875 152.796178 
L 151.177854 148.695839 
L 151.502834 148.695839 
L 152.152793 140.495161 
L 152.477772 140.495161 
L 152.802752 136.394822 
L 153.127731 136.394822 
L 153.452711 132.294483 
L 153.77769 130.244314 
L 154.10267 126.143975 
L 154.427649 126.143975 
L 155.402588 119.993467 
L 155.727568 119.993467 
L 156.052547 117.943297 
L 156.377527 113.842958 
L 157.027486 113.842958 
L 157.677445 109.742619 
L 158.327404 109.742619 
L 158.977363 105.64228 
L 159.302342 107.69245 
L 159.627322 105.64228 
L 159.952301 105.64228 
L 160.277281 103.592111 
L 161.252219 103.592111 
L 161.577199 99.491772 
L 161.902179 103.592111 
L 162.227158 103.592111 
L 162.877117 99.491772 
L 163.202097 99.491772 
L 163.527076 103.592111 
L 164.177035 99.491772 
L 164.502015 99.491772 
L 164.826994 101.541941 
L 165.151974 99.491772 
L 165.476953 101.541941 
L 165.801933 99.491772 
L 166.126912 99.491772 
L 166.451892 101.541941 
L 166.776871 99.491772 
L 168.726749 99.491772 
L 169.051728 101.541941 
L 169.376708 99.491772 
L 170.026667 99.491772 
L 170.351646 101.541941 
L 171.326585 101.541941 
L 171.651564 99.491772 
L 172.626503 99.491772 
L 172.951482 97.441602 
L 173.276462 97.441602 
L 173.601441 99.491772 
L 173.926421 99.491772 
L 174.57638 95.391433 
L 174.90136 99.491772 
L 175.226339 97.441602 
L 175.551319 99.491772 
L 175.876298 99.491772 
L 176.201278 97.441602 
L 176.526257 99.491772 
L 176.851237 97.441602 
L 177.501196 97.441602 
L 177.826175 99.491772 
L 178.151155 97.441602 
L 178.801114 97.441602 
L 179.126093 99.491772 
L 179.451073 97.441602 
L 179.776052 99.491772 
L 180.101032 97.441602 
L 180.426011 99.491772 
L 181.075971 99.491772 
L 181.40095 101.541941 
L 182.050909 101.541941 
L 182.375889 99.491772 
L 182.700868 103.592111 
L 183.025848 105.64228 
L 183.350827 103.592111 
L 184.325766 109.742619 
L 184.975725 109.742619 
L 185.625684 113.842958 
L 185.950663 113.842958 
L 187.250581 122.043636 
L 187.575561 122.043636 
L 187.900541 126.143975 
L 189.200459 134.344653 
L 189.525438 138.444992 
L 189.850418 136.394822 
L 190.175397 138.444992 
L 190.500377 142.545331 
L 190.825356 142.545331 
L 191.150336 146.64567 
L 191.475315 148.695839 
L 191.800295 148.695839 
L 192.125274 150.746009 
L 192.450254 154.846348 
L 192.775233 156.896517 
L 193.100213 160.996856 
L 193.425192 163.047026 
L 193.750172 163.047026 
L 194.075152 167.147365 
L 194.400131 167.147365 
L 194.725111 171.247704 
L 196.674988 183.548721 
L 196.999967 183.548721 
L 197.324947 187.64906 
L 197.649926 189.699229 
L 197.974906 189.699229 
L 198.299885 191.749399 
L 198.624865 195.849738 
L 198.949844 193.799568 
L 199.274824 199.950077 
L 199.599803 199.950077 
L 200.249762 204.050416 
L 200.574742 204.050416 
L 200.899722 208.150755 
L 201.224701 210.200924 
L 201.549681 210.200924 
L 201.87466 212.251094 
L 202.19964 212.251094 
L 202.524619 214.301263 
L 202.849599 212.251094 
L 203.174578 212.251094 
L 203.499558 216.351433 
L 203.824537 218.401602 
L 204.149517 216.351433 
L 204.474496 220.451772 
L 204.799476 222.501941 
L 205.124455 222.501941 
L 205.449435 226.60228 
L 205.774414 224.552111 
L 206.099394 226.60228 
L 206.424373 224.552111 
L 207.074333 228.65245 
L 207.399312 226.60228 
L 207.724292 230.702619 
L 208.049271 230.702619 
L 208.374251 234.802958 
L 208.69923 236.853128 
L 209.02421 240.953467 
L 209.349189 240.953467 
L 209.674169 243.003636 
L 209.999148 243.003636 
L 210.324128 245.053806 
L 210.649107 245.053806 
L 210.974087 240.953467 
L 211.299066 238.903297 
L 212.598984 238.903297 
L 212.923964 240.953467 
L 213.898903 240.953467 
L 214.223882 243.003636 
L 214.548862 240.953467 
L 214.873841 240.953467 
L 215.198821 243.003636 
L 215.5238 240.953467 
L 215.84878 240.953467 
L 216.173759 236.853128 
L 216.498739 238.903297 
L 217.148698 238.903297 
L 217.473677 240.953467 
L 217.798657 240.953467 
L 218.123636 243.003636 
L 219.748534 243.003636 
L 220.073514 238.903297 
L 220.398493 238.903297 
L 220.723473 240.953467 
L 221.048452 238.903297 
L 221.373432 240.953467 
L 222.023391 240.953467 
L 222.34837 243.003636 
L 222.67335 240.953467 
L 222.998329 240.953467 
L 223.323309 243.003636 
L 223.648288 243.003636 
L 223.973268 238.903297 
L 224.298247 240.953467 
L 224.623227 240.953467 
L 224.948206 238.903297 
L 225.598165 238.903297 
L 225.923145 240.953467 
L 226.248124 240.953467 
L 226.898084 245.053806 
L 227.223063 243.003636 
L 227.873022 243.003636 
L 228.198002 238.903297 
L 228.522981 240.953467 
L 228.847961 240.953467 
L 229.17294 238.903297 
L 229.49792 240.953467 
L 229.822899 240.953467 
L 230.147879 243.003636 
L 230.472858 240.953467 
L 230.797838 245.053806 
L 231.122817 245.053806 
L 231.447797 240.953467 
L 233.397674 240.953467 
L 233.722654 243.003636 
L 234.047633 238.903297 
L 234.372613 240.953467 
L 234.697592 240.953467 
L 235.022572 243.003636 
L 235.347551 243.003636 
L 235.672531 245.053806 
L 235.99751 245.053806 
L 236.32249 243.003636 
L 236.647469 245.053806 
L 237.297428 240.953467 
L 237.622408 240.953467 
L 237.947387 243.003636 
L 238.272367 240.953467 
L 238.597346 240.953467 
L 238.922326 243.003636 
L 239.247305 243.003636 
L 239.572285 240.953467 
L 239.897265 240.953467 
L 240.222244 243.003636 
L 240.547224 238.903297 
L 241.197183 234.802958 
L 241.847142 226.60228 
L 242.172121 220.451772 
L 242.82208 216.351433 
L 243.14706 210.200924 
L 243.472039 208.150755 
L 244.121998 199.950077 
L 244.446978 197.899907 
L 244.771957 193.799568 
L 245.421916 189.699229 
L 245.746896 183.548721 
L 246.071876 183.548721 
L 246.396855 179.448382 
L 246.721835 177.398212 
L 247.696773 165.097195 
L 248.021753 165.097195 
L 248.346732 158.946687 
L 249.321671 152.796178 
L 249.97163 144.5955 
L 250.296609 144.5955 
L 250.621589 142.545331 
L 250.946568 138.444992 
L 251.271548 138.444992 
L 251.596527 134.344653 
L 251.921507 132.294483 
L 252.246486 128.194145 
L 252.571466 128.194145 
L 253.221425 124.093806 
L 253.546405 124.093806 
L 253.871384 119.993467 
L 254.196364 117.943297 
L 254.521343 117.943297 
L 254.846323 113.842958 
L 255.171302 111.792789 
L 255.821261 111.792789 
L 256.146241 109.742619 
L 256.47122 109.742619 
L 256.7962 107.69245 
L 257.121179 109.742619 
L 257.446159 105.64228 
L 257.771138 105.64228 
L 258.096118 103.592111 
L 258.421097 105.64228 
L 258.746077 103.592111 
L 259.071057 103.592111 
L 259.396036 101.541941 
L 260.045995 101.541941 
L 260.370975 99.491772 
L 260.695954 101.541941 
L 262.645831 101.541941 
L 262.970811 99.491772 
L 263.29579 101.541941 
L 263.62077 99.491772 
L 263.945749 99.491772 
L 264.270729 101.541941 
L 265.245667 101.541941 
L 265.570647 99.491772 
L 265.895627 101.541941 
L 266.220606 101.541941 
L 266.545586 99.491772 
L 267.195545 99.491772 
L 267.520524 101.541941 
L 267.845504 101.541941 
L 268.170483 99.491772 
L 270.44534 99.491772 
L 270.770319 97.441602 
L 271.095299 97.441602 
L 271.420278 99.491772 
L 273.045176 99.491772 
L 273.370156 97.441602 
L 274.020115 97.441602 
L 274.345094 99.491772 
L 274.670074 99.491772 
L 274.995053 97.441602 
L 275.320033 99.491772 
L 275.645012 99.491772 
L 275.969992 97.441602 
L 276.294971 99.491772 
L 276.619951 99.491772 
L 276.94493 97.441602 
L 277.26991 97.441602 
L 277.919869 101.541941 
L 278.244848 99.491772 
L 278.894808 99.491772 
L 279.544767 103.592111 
L 279.869746 101.541941 
L 280.194726 101.541941 
L 280.519705 103.592111 
L 281.169664 103.592111 
L 281.494644 105.64228 
L 282.144603 105.64228 
L 282.469582 109.742619 
L 282.794562 107.69245 
L 283.119541 111.792789 
L 283.444521 111.792789 
L 284.419459 117.943297 
L 284.744439 115.893128 
L 285.069419 119.993467 
L 285.394398 119.993467 
L 286.044357 124.093806 
L 286.369337 124.093806 
L 286.694316 128.194145 
L 287.019296 130.244314 
L 287.344275 130.244314 
L 287.994234 134.344653 
L 288.319214 138.444992 
L 288.644193 138.444992 
L 288.969173 140.495161 
L 289.294152 144.5955 
L 290.269091 150.746009 
L 290.59407 150.746009 
L 291.244029 158.946687 
L 291.569009 156.896517 
L 291.893989 160.996856 
L 292.543948 165.097195 
L 292.868927 169.197534 
L 293.193907 169.197534 
L 293.518886 173.297873 
L 294.493825 179.448382 
L 294.818804 179.448382 
L 295.143784 183.548721 
L 296.118722 189.699229 
L 296.443702 189.699229 
L 296.768681 191.749399 
L 297.093661 195.849738 
L 297.41864 197.899907 
L 297.74362 197.899907 
L 299.043538 206.100585 
L 299.368518 206.100585 
L 300.018477 210.200924 
L 300.343456 210.200924 
L 301.318395 216.351433 
L 301.968354 216.351433 
L 302.618313 220.451772 
L 302.943292 220.451772 
L 303.268272 222.501941 
L 303.593251 222.501941 
L 303.918231 224.552111 
L 304.56819 224.552111 
L 304.89317 226.60228 
L 305.218149 224.552111 
L 305.543129 228.65245 
L 305.868108 230.702619 
L 306.193088 230.702619 
L 306.518067 234.802958 
L 306.843047 234.802958 
L 307.493006 238.903297 
L 307.817985 245.053806 
L 308.142965 243.003636 
L 308.792924 243.003636 
L 309.117903 245.053806 
L 309.442883 240.953467 
L 309.767862 240.953467 
L 310.417821 236.853128 
L 311.067781 236.853128 
L 311.71774 240.953467 
L 312.367699 240.953467 
L 312.692678 243.003636 
L 313.342637 243.003636 
L 313.992596 238.903297 
L 314.317576 240.953467 
L 314.642555 238.903297 
L 315.292514 238.903297 
L 315.617494 236.853128 
L 315.942473 238.903297 
L 316.267453 238.903297 
L 316.592432 243.003636 
L 317.242391 243.003636 
L 317.567371 240.953467 
L 318.21733 240.953467 
L 318.54231 238.903297 
L 319.192269 238.903297 
L 319.517248 240.953467 
L 320.492187 240.953467 
L 320.817166 243.003636 
L 321.142146 243.003636 
L 321.467125 240.953467 
L 321.792105 240.953467 
L 322.117084 243.003636 
L 322.442064 240.953467 
L 322.767043 240.953467 
L 323.092023 238.903297 
L 323.417002 240.953467 
L 323.741982 238.903297 
L 324.066962 238.903297 
L 324.716921 243.003636 
L 325.0419 243.003636 
L 325.36688 240.953467 
L 325.691859 243.003636 
L 326.341818 243.003636 
L 326.666798 238.903297 
L 328.291695 238.903297 
L 328.941654 243.003636 
L 329.266634 240.953467 
L 329.591613 243.003636 
L 329.916593 243.003636 
L 330.241572 240.953467 
L 331.216511 240.953467 
L 331.541491 238.903297 
L 332.19145 238.903297 
L 332.516429 243.003636 
L 332.841409 243.003636 
L 333.166388 240.953467 
L 333.816347 245.053806 
L 334.141327 243.003636 
L 334.466306 245.053806 
L 334.791286 243.003636 
L 335.116265 245.053806 
L 335.441245 243.003636 
L 336.416183 243.003636 
L 336.741163 240.953467 
L 337.066143 243.003636 
L 337.391122 240.953467 
L 337.716102 243.003636 
L 338.041081 243.003636 
L 338.366061 240.953467 
L 339.01602 240.953467 
L 339.340999 234.802958 
L 339.990958 230.702619 
L 340.965897 218.401602 
L 341.290876 216.351433 
L 342.590794 199.950077 
L 343.240753 195.849738 
L 343.565733 189.699229 
L 344.215692 185.59889 
L 344.540672 181.498551 
L 345.190631 177.398212 
L 345.84059 169.197534 
L 346.165569 167.147365 
L 346.490549 163.047026 
L 347.465487 156.896517 
L 347.790467 150.746009 
L 348.115446 150.746009 
L 348.765405 142.545331 
L 349.090385 142.545331 
L 349.415364 138.444992 
L 349.740344 136.394822 
L 350.065324 136.394822 
L 350.715283 132.294483 
L 351.040262 128.194145 
L 351.690221 124.093806 
L 352.015201 124.093806 
L 352.34018 119.993467 
L 352.66516 117.943297 
L 352.990139 113.842958 
L 353.315119 115.893128 
L 353.965078 111.792789 
L 354.290057 111.792789 
L 354.940016 107.69245 
L 355.914955 107.69245 
L 356.564914 103.592111 
L 357.864832 103.592111 
L 358.189812 101.541941 
L 358.514791 103.592111 
L 358.839771 99.491772 
L 359.16475 99.491772 
L 359.814709 103.592111 
L 360.139689 99.491772 
L 360.789648 99.491772 
L 361.114627 101.541941 
L 361.439607 101.541941 
L 361.764586 99.491772 
L 362.089566 101.541941 
L 362.414545 99.491772 
L 362.739525 101.541941 
L 363.064505 101.541941 
L 363.389484 99.491772 
L 363.714464 101.541941 
L 364.364423 97.441602 
L 364.689402 101.541941 
L 365.014382 101.541941 
L 365.339361 99.491772 
L 365.98932 99.491772 
L 366.3143 101.541941 
L 366.639279 99.491772 
L 367.289238 99.491772 
L 367.614218 101.541941 
L 367.939197 99.491772 
L 368.264177 101.541941 
L 368.589156 99.491772 
L 368.914136 101.541941 
L 369.564095 97.441602 
L 369.889075 97.441602 
L 370.214054 99.491772 
L 370.539034 97.441602 
L 370.864013 99.491772 
L 371.188993 97.441602 
L 371.513972 99.491772 
L 371.838952 97.441602 
L 372.488911 97.441602 
L 372.81389 99.491772 
L 373.463849 99.491772 
L 373.788829 95.391433 
L 374.113808 97.441602 
L 375.088747 97.441602 
L 375.413726 99.491772 
L 375.738706 97.441602 
L 376.063686 97.441602 
L 376.713645 101.541941 
L 377.038624 97.441602 
L 377.363604 99.491772 
L 378.338542 99.491772 
L 378.663522 101.541941 
L 378.988501 101.541941 
L 379.313481 103.592111 
L 379.96344 103.592111 
L 380.613399 107.69245 
L 380.938378 107.69245 
L 381.263358 109.742619 
L 381.588337 109.742619 
L 381.913317 111.792789 
L 382.238296 111.792789 
L 382.888256 115.893128 
L 383.213235 119.993467 
L 383.863194 119.993467 
L 384.838133 126.143975 
L 385.163112 126.143975 
L 385.488092 130.244314 
L 385.813071 132.294483 
L 386.138051 132.294483 
L 386.46303 136.394822 
L 386.78801 136.394822 
L 387.112989 140.495161 
L 387.437969 142.545331 
L 387.762948 142.545331 
L 388.087928 146.64567 
L 388.412907 148.695839 
L 388.737887 152.796178 
L 389.062867 154.846348 
L 389.387846 152.796178 
L 389.712826 156.896517 
L 390.037805 158.946687 
L 390.362785 158.946687 
L 391.012744 167.147365 
L 391.337723 167.147365 
L 391.662703 171.247704 
L 392.312662 175.348043 
L 392.637641 175.348043 
L 392.962621 177.398212 
L 393.2876 181.498551 
L 393.61258 183.548721 
L 393.937559 183.548721 
L 394.262539 189.699229 
L 394.587518 189.699229 
L 395.237477 193.799568 
L 395.562457 193.799568 
L 395.887437 197.899907 
L 396.537396 197.899907 
L 396.862375 199.950077 
L 397.187355 204.050416 
L 397.512334 206.100585 
L 398.162293 206.100585 
L 398.487273 210.200924 
L 398.487273 210.200924 
" clip-path="url(#pa4aedd0a8b)" style="fill: none; stroke: #ff7f0e; stroke-width: 1.5; stroke-linecap: square"/>
   </g>
   <g id="line2d_14">
    <path d="M 73.832727 78.170034 
L 74.157707 90.471051 
L 74.482686 82.270373 
L 74.807666 82.270373 
L 75.132645 94.57139 
L 75.457625 90.471051 
L 75.782604 98.671729 
L 76.432563 106.872407 
L 77.082523 106.872407 
L 77.407502 119.173424 
L 77.732482 115.073085 
L 78.382441 131.474441 
L 78.70742 131.474441 
L 79.0324 139.675119 
L 79.357379 143.775458 
L 79.682359 143.775458 
L 80.007338 147.875797 
L 80.332318 156.076475 
L 80.657297 160.176814 
L 80.982277 160.176814 
L 81.632236 176.578169 
L 82.282195 176.578169 
L 82.607174 184.778847 
L 83.582113 197.079864 
L 83.907093 205.280542 
L 84.232072 205.280542 
L 84.557052 213.48122 
L 84.882031 213.48122 
L 85.207011 217.581559 
L 85.53199 225.782237 
L 85.85697 229.882576 
L 86.181949 229.882576 
L 86.506929 238.083254 
L 87.156888 246.283932 
L 87.481867 238.083254 
L 87.806847 250.384271 
L 88.131826 254.48461 
L 88.456806 254.48461 
L 88.781785 258.584949 
L 89.106765 258.584949 
L 89.431744 262.685288 
L 89.756724 270.885966 
L 90.081704 262.685288 
L 90.406683 266.785627 
L 90.731663 274.986305 
L 91.381622 274.986305 
L 91.706601 279.086644 
L 92.031581 279.086644 
L 92.35656 283.186983 
L 92.68154 279.086644 
L 93.006519 279.086644 
L 93.331499 283.186983 
L 93.981458 283.186983 
L 94.306437 287.287322 
L 94.631417 283.186983 
L 94.956396 287.287322 
L 95.281376 279.086644 
L 95.606355 283.186983 
L 95.931335 283.186983 
L 96.256314 279.086644 
L 96.581294 279.086644 
L 96.906274 274.986305 
L 97.231253 274.986305 
L 97.556233 279.086644 
L 97.881212 266.785627 
L 98.206192 270.885966 
L 98.531171 266.785627 
L 98.856151 270.885966 
L 99.50611 262.685288 
L 99.831089 254.48461 
L 100.156069 258.584949 
L 100.481048 250.384271 
L 100.806028 250.384271 
L 101.780966 238.083254 
L 102.105946 238.083254 
L 102.430925 229.882576 
L 102.755905 229.882576 
L 103.080885 217.581559 
L 103.405864 221.681898 
L 104.380803 209.380881 
L 104.705782 201.180203 
L 105.355741 192.979525 
L 105.680721 184.778847 
L 106.33068 176.578169 
L 106.655659 168.377492 
L 106.980639 164.277153 
L 107.305618 164.277153 
L 107.955577 156.076475 
L 108.280557 143.775458 
L 108.605536 143.775458 
L 108.930516 135.57478 
L 109.255495 135.57478 
L 109.905455 127.374102 
L 110.230434 119.173424 
L 110.555414 119.173424 
L 110.880393 106.872407 
L 111.205373 110.972746 
L 111.530352 102.772068 
L 111.855332 98.671729 
L 112.180311 98.671729 
L 112.83027 90.471051 
L 113.15525 90.471051 
L 113.480229 82.270373 
L 113.805209 82.270373 
L 114.130188 78.170034 
L 114.455168 78.170034 
L 115.105127 69.969356 
L 115.430106 69.969356 
L 116.405045 57.668339 
L 116.730025 65.869017 
L 117.055004 57.668339 
L 117.379984 57.668339 
L 117.704963 61.768678 
L 118.029943 61.768678 
L 118.679902 53.568 
L 119.004881 61.768678 
L 119.329861 57.668339 
L 119.65484 57.668339 
L 119.97982 61.768678 
L 120.629779 61.768678 
L 120.954758 65.869017 
L 121.279738 57.668339 
L 122.254676 69.969356 
L 122.579656 69.969356 
L 122.904636 74.069695 
L 123.229615 74.069695 
L 123.554595 86.370712 
L 123.879574 78.170034 
L 124.204554 86.370712 
L 124.529533 86.370712 
L 124.854513 94.57139 
L 125.179492 90.471051 
L 125.504472 102.772068 
L 125.829451 102.772068 
L 126.154431 110.972746 
L 126.47941 106.872407 
L 127.129369 123.273763 
L 127.454349 123.273763 
L 127.779328 127.374102 
L 128.104308 135.57478 
L 128.429287 135.57478 
L 128.754267 143.775458 
L 129.079247 143.775458 
L 129.404226 151.976136 
L 129.729206 151.976136 
L 130.054185 164.277153 
L 130.379165 164.277153 
L 130.704144 172.477831 
L 131.354103 180.678508 
L 131.679083 180.678508 
L 132.004062 188.879186 
L 132.329042 201.180203 
L 132.654021 201.180203 
L 133.30398 209.380881 
L 133.62896 217.581559 
L 133.953939 221.681898 
L 134.278919 221.681898 
L 134.603898 229.882576 
L 134.928878 229.882576 
L 135.253857 238.083254 
L 135.578837 238.083254 
L 136.553776 250.384271 
L 136.878755 250.384271 
L 137.203735 254.48461 
L 137.528714 262.685288 
L 137.853694 262.685288 
L 138.828632 274.986305 
L 139.478591 274.986305 
L 139.803571 279.086644 
L 140.12855 274.986305 
L 140.45353 283.186983 
L 141.103489 283.186983 
L 141.753448 291.387661 
L 142.078428 287.287322 
L 142.403407 287.287322 
L 142.728387 291.387661 
L 143.053366 291.387661 
L 143.378346 287.287322 
L 143.703325 291.387661 
L 144.353284 291.387661 
L 144.678264 287.287322 
L 145.653202 287.287322 
L 145.978182 283.186983 
L 146.95312 283.186983 
L 147.2781 270.885966 
L 147.603079 270.885966 
L 147.928059 274.986305 
L 148.253038 266.785627 
L 148.578018 262.685288 
L 148.902998 266.785627 
L 149.227977 262.685288 
L 149.552957 262.685288 
L 149.877936 254.48461 
L 150.202916 258.584949 
L 150.527895 250.384271 
L 150.852875 246.283932 
L 151.177854 246.283932 
L 152.152793 233.982915 
L 152.477772 221.681898 
L 152.802752 225.782237 
L 153.127731 221.681898 
L 153.452711 213.48122 
L 153.77769 209.380881 
L 154.10267 209.380881 
L 154.427649 201.180203 
L 154.752629 201.180203 
L 155.077609 188.879186 
L 155.727568 180.678508 
L 156.052547 180.678508 
L 156.377527 172.477831 
L 156.702506 172.477831 
L 157.027486 164.277153 
L 157.352465 160.176814 
L 157.677445 151.976136 
L 158.652383 139.675119 
L 158.977363 131.474441 
L 159.302342 135.57478 
L 159.627322 123.273763 
L 159.952301 123.273763 
L 160.277281 115.073085 
L 160.60226 115.073085 
L 160.92724 106.872407 
L 161.252219 106.872407 
L 161.577199 102.772068 
L 161.902179 102.772068 
L 162.227158 94.57139 
L 162.552138 98.671729 
L 162.877117 86.370712 
L 163.202097 86.370712 
L 163.527076 82.270373 
L 163.852056 82.270373 
L 164.177035 74.069695 
L 164.826994 74.069695 
L 165.151974 78.170034 
L 165.476953 65.869017 
L 165.801933 69.969356 
L 166.126912 65.869017 
L 166.451892 69.969356 
L 166.776871 65.869017 
L 167.75181 65.869017 
L 168.07679 61.768678 
L 168.401769 61.768678 
L 168.726749 65.869017 
L 169.051728 61.768678 
L 169.376708 61.768678 
L 169.701687 65.869017 
L 170.026667 65.869017 
L 170.351646 69.969356 
L 170.676626 65.869017 
L 171.001605 69.969356 
L 171.326585 69.969356 
L 171.651564 78.170034 
L 171.976544 74.069695 
L 172.301523 82.270373 
L 172.951482 90.471051 
L 173.276462 82.270373 
L 173.601441 90.471051 
L 173.926421 94.57139 
L 174.2514 94.57139 
L 175.226339 106.872407 
L 175.551319 115.073085 
L 175.876298 115.073085 
L 176.201278 119.173424 
L 176.526257 119.173424 
L 176.851237 127.374102 
L 177.501196 135.57478 
L 177.826175 135.57478 
L 178.151155 143.775458 
L 178.476134 143.775458 
L 178.801114 151.976136 
L 179.126093 156.076475 
L 179.451073 164.277153 
L 180.101032 172.477831 
L 180.426011 180.678508 
L 180.750991 184.778847 
L 181.075971 184.778847 
L 181.40095 192.979525 
L 182.050909 201.180203 
L 182.375889 201.180203 
L 183.025848 217.581559 
L 183.350827 221.681898 
L 183.675807 217.581559 
L 184.000786 221.681898 
L 184.325766 229.882576 
L 184.650745 229.882576 
L 184.975725 233.982915 
L 185.300704 242.183593 
L 185.950663 250.384271 
L 186.275643 246.283932 
L 186.600622 254.48461 
L 186.925602 254.48461 
L 187.250581 262.685288 
L 187.575561 266.785627 
L 188.22552 266.785627 
L 188.5505 274.986305 
L 188.875479 270.885966 
L 189.525438 279.086644 
L 189.850418 274.986305 
L 190.175397 279.086644 
L 190.500377 279.086644 
L 190.825356 283.186983 
L 191.150336 283.186983 
L 191.475315 274.986305 
L 191.800295 287.287322 
L 192.125274 283.186983 
L 192.450254 287.287322 
L 192.775233 283.186983 
L 193.100213 283.186983 
L 193.425192 287.287322 
L 193.750172 287.287322 
L 194.075152 279.086644 
L 195.05009 279.086644 
L 195.37507 274.986305 
L 195.700049 279.086644 
L 196.025029 274.986305 
L 196.350008 274.986305 
L 196.674988 266.785627 
L 196.999967 274.986305 
L 197.324947 262.685288 
L 197.649926 266.785627 
L 197.974906 258.584949 
L 198.624865 258.584949 
L 198.949844 254.48461 
L 199.274824 246.283932 
L 199.599803 242.183593 
L 200.249762 242.183593 
L 200.574742 233.982915 
L 200.899722 229.882576 
L 201.224701 229.882576 
L 201.549681 225.782237 
L 201.87466 213.48122 
L 202.19964 213.48122 
L 202.524619 209.380881 
L 202.849599 209.380881 
L 203.174578 201.180203 
L 203.499558 201.180203 
L 203.824537 192.979525 
L 204.149517 188.879186 
L 204.474496 180.678508 
L 205.449435 168.377492 
L 205.774414 160.176814 
L 206.424373 151.976136 
L 206.749353 151.976136 
L 207.074333 139.675119 
L 207.399312 143.775458 
L 207.724292 131.474441 
L 208.049271 131.474441 
L 209.349189 115.073085 
L 209.674169 106.872407 
L 209.999148 102.772068 
L 210.324128 102.772068 
L 210.649107 94.57139 
L 210.974087 90.471051 
L 211.299066 94.57139 
L 211.949025 86.370712 
L 212.274005 78.170034 
L 212.923964 78.170034 
L 213.573923 69.969356 
L 213.898903 69.969356 
L 214.223882 65.869017 
L 214.548862 69.969356 
L 214.873841 57.668339 
L 215.84878 57.668339 
L 216.173759 53.568 
L 216.498739 57.668339 
L 216.823718 53.568 
L 217.148698 61.768678 
L 217.473677 53.568 
L 217.798657 57.668339 
L 218.123636 57.668339 
L 218.448616 61.768678 
L 218.773595 61.768678 
L 219.098575 65.869017 
L 219.423554 61.768678 
L 219.748534 65.869017 
L 220.073514 61.768678 
L 220.723473 69.969356 
L 221.373432 69.969356 
L 221.698411 82.270373 
L 222.023391 82.270373 
L 222.34837 90.471051 
L 222.67335 86.370712 
L 223.648288 98.671729 
L 223.973268 98.671729 
L 224.298247 106.872407 
L 224.623227 110.972746 
L 224.948206 110.972746 
L 225.598165 119.173424 
L 225.923145 127.374102 
L 226.248124 127.374102 
L 226.898084 135.57478 
L 227.548043 151.976136 
L 227.873022 147.875797 
L 228.198002 160.176814 
L 228.522981 160.176814 
L 228.847961 172.477831 
L 230.147879 188.879186 
L 230.472858 188.879186 
L 231.122817 205.280542 
L 231.447797 205.280542 
L 231.772776 209.380881 
L 232.097756 217.581559 
L 232.422735 221.681898 
L 232.747715 229.882576 
L 233.072695 221.681898 
L 233.397674 229.882576 
L 233.722654 233.982915 
L 234.047633 242.183593 
L 235.347551 258.584949 
L 235.99751 258.584949 
L 236.32249 266.785627 
L 236.647469 266.785627 
L 236.972449 270.885966 
L 237.297428 270.885966 
L 237.947387 279.086644 
L 238.272367 274.986305 
L 238.597346 283.186983 
L 238.922326 283.186983 
L 239.247305 287.287322 
L 239.572285 287.287322 
L 239.897265 291.387661 
L 240.547224 291.387661 
L 240.872203 287.287322 
L 241.197183 291.387661 
L 241.522162 291.387661 
L 241.847142 287.287322 
L 242.172121 291.387661 
L 242.82208 291.387661 
L 243.14706 295.488 
L 243.472039 283.186983 
L 243.797019 287.287322 
L 244.771957 287.287322 
L 245.096937 283.186983 
L 245.746896 283.186983 
L 246.071876 279.086644 
L 246.396855 279.086644 
L 246.721835 274.986305 
L 247.046814 266.785627 
L 247.696773 266.785627 
L 248.021753 262.685288 
L 248.346732 262.685288 
L 248.671712 250.384271 
L 248.996691 254.48461 
L 249.321671 246.283932 
L 250.621589 229.882576 
L 250.946568 229.882576 
L 251.271548 221.681898 
L 251.596527 217.581559 
L 251.921507 217.581559 
L 252.246486 213.48122 
L 252.571466 201.180203 
L 252.896446 201.180203 
L 253.546405 192.979525 
L 253.871384 180.678508 
L 254.196364 184.778847 
L 254.521343 176.578169 
L 254.846323 176.578169 
L 255.171302 168.377492 
L 255.496282 164.277153 
L 255.821261 156.076475 
L 256.146241 156.076475 
L 256.47122 143.775458 
L 256.7962 139.675119 
L 257.121179 139.675119 
L 257.446159 131.474441 
L 258.096118 123.273763 
L 258.421097 123.273763 
L 258.746077 119.173424 
L 259.071057 110.972746 
L 259.396036 110.972746 
L 259.721016 98.671729 
L 260.045995 106.872407 
L 260.370975 98.671729 
L 260.695954 98.671729 
L 261.020934 90.471051 
L 261.345913 94.57139 
L 261.670893 78.170034 
L 261.995872 82.270373 
L 262.320852 82.270373 
L 263.29579 69.969356 
L 263.62077 69.969356 
L 263.945749 74.069695 
L 264.270729 65.869017 
L 265.895627 65.869017 
L 266.220606 61.768678 
L 266.545586 65.869017 
L 266.870565 61.768678 
L 267.195545 61.768678 
L 267.520524 65.869017 
L 268.495463 65.869017 
L 268.820442 69.969356 
L 269.145422 69.969356 
L 269.470401 65.869017 
L 269.795381 74.069695 
L 270.12036 78.170034 
L 270.770319 78.170034 
L 271.095299 82.270373 
L 271.420278 82.270373 
L 271.745258 90.471051 
L 272.070238 86.370712 
L 272.395217 90.471051 
L 272.720197 98.671729 
L 273.045176 94.57139 
L 273.370156 102.772068 
L 274.345094 115.073085 
L 274.670074 115.073085 
L 274.995053 123.273763 
L 275.320033 123.273763 
L 275.645012 131.474441 
L 276.294971 139.675119 
L 276.94493 156.076475 
L 277.26991 156.076475 
L 277.919869 164.277153 
L 278.244848 164.277153 
L 278.569828 168.377492 
L 278.894808 176.578169 
L 279.219787 180.678508 
L 279.544767 188.879186 
L 279.869746 184.778847 
L 280.194726 197.079864 
L 281.819623 217.581559 
L 282.144603 225.782237 
L 282.469582 221.681898 
L 282.794562 229.882576 
L 283.444521 238.083254 
L 283.7695 238.083254 
L 284.419459 246.283932 
L 284.744439 254.48461 
L 285.069419 246.283932 
L 285.394398 258.584949 
L 285.719378 258.584949 
L 286.044357 262.685288 
L 286.369337 262.685288 
L 286.694316 266.785627 
L 287.019296 266.785627 
L 287.344275 274.986305 
L 287.669255 266.785627 
L 288.644193 279.086644 
L 289.294152 279.086644 
L 289.619132 283.186983 
L 289.944111 283.186983 
L 290.269091 279.086644 
L 290.59407 287.287322 
L 290.91905 283.186983 
L 292.218968 283.186983 
L 292.543948 287.287322 
L 292.868927 279.086644 
L 293.193907 283.186983 
L 293.518886 279.086644 
L 293.843866 279.086644 
L 294.493825 270.885966 
L 295.143784 279.086644 
L 295.468763 262.685288 
L 295.793743 270.885966 
L 296.118722 262.685288 
L 296.443702 266.785627 
L 296.768681 258.584949 
L 297.093661 258.584949 
L 297.41864 254.48461 
L 297.74362 254.48461 
L 298.0686 246.283932 
L 298.393579 246.283932 
L 299.043538 238.083254 
L 299.368518 229.882576 
L 299.693497 229.882576 
L 300.018477 221.681898 
L 300.343456 221.681898 
L 300.668436 213.48122 
L 300.993415 213.48122 
L 301.318395 205.280542 
L 301.968354 197.079864 
L 302.293333 197.079864 
L 302.618313 188.879186 
L 302.943292 184.778847 
L 303.268272 176.578169 
L 303.593251 172.477831 
L 303.918231 172.477831 
L 304.24321 168.377492 
L 304.56819 156.076475 
L 304.89317 151.976136 
L 305.218149 151.976136 
L 305.543129 147.875797 
L 305.868108 135.57478 
L 306.193088 139.675119 
L 306.518067 131.474441 
L 306.843047 127.374102 
L 307.168026 119.173424 
L 307.493006 119.173424 
L 308.142965 110.972746 
L 308.467944 98.671729 
L 308.792924 102.772068 
L 309.767862 90.471051 
L 310.092842 90.471051 
L 310.417821 86.370712 
L 310.742801 86.370712 
L 311.067781 78.170034 
L 311.39276 78.170034 
L 311.71774 74.069695 
L 312.042719 74.069695 
L 312.367699 69.969356 
L 312.692678 69.969356 
L 313.017658 65.869017 
L 313.342637 65.869017 
L 313.667617 61.768678 
L 313.992596 61.768678 
L 314.317576 57.668339 
L 314.642555 57.668339 
L 314.967535 53.568 
L 315.292514 57.668339 
L 315.942473 57.668339 
L 316.267453 53.568 
L 316.592432 61.768678 
L 316.917412 57.668339 
L 317.242391 61.768678 
L 317.567371 61.768678 
L 317.892351 65.869017 
L 318.21733 61.768678 
L 318.54231 65.869017 
L 319.192269 65.869017 
L 319.517248 74.069695 
L 319.842228 69.969356 
L 321.142146 86.370712 
L 321.467125 86.370712 
L 322.117084 94.57139 
L 322.442064 102.772068 
L 322.767043 102.772068 
L 323.417002 110.972746 
L 323.741982 119.173424 
L 324.066962 115.073085 
L 324.391941 123.273763 
L 324.716921 127.374102 
L 325.0419 135.57478 
L 325.36688 135.57478 
L 325.691859 143.775458 
L 326.341818 151.976136 
L 326.666798 151.976136 
L 326.991777 164.277153 
L 327.316757 164.277153 
L 327.641736 172.477831 
L 328.291695 180.678508 
L 328.616675 188.879186 
L 328.941654 192.979525 
L 329.266634 192.979525 
L 329.916593 209.380881 
L 330.566552 209.380881 
L 330.891532 221.681898 
L 331.541491 229.882576 
L 331.86647 225.782237 
L 332.19145 238.083254 
L 332.516429 238.083254 
L 332.841409 246.283932 
L 333.166388 250.384271 
L 333.491368 250.384271 
L 333.816347 254.48461 
L 334.141327 262.685288 
L 334.466306 258.584949 
L 334.791286 266.785627 
L 335.116265 266.785627 
L 335.441245 270.885966 
L 336.091204 270.885966 
L 336.416183 279.086644 
L 336.741163 283.186983 
L 337.066143 274.986305 
L 337.391122 283.186983 
L 338.041081 283.186983 
L 338.366061 287.287322 
L 338.69104 287.287322 
L 339.340999 295.488 
L 339.665979 287.287322 
L 339.990958 291.387661 
L 340.315938 291.387661 
L 340.640917 287.287322 
L 340.965897 291.387661 
L 341.940835 291.387661 
L 342.265815 283.186983 
L 342.590794 287.287322 
L 342.915774 283.186983 
L 343.240753 287.287322 
L 343.565733 283.186983 
L 344.540672 283.186983 
L 344.865651 274.986305 
L 345.190631 274.986305 
L 346.165569 262.685288 
L 346.490549 262.685288 
L 346.815528 258.584949 
L 347.140508 258.584949 
L 347.465487 250.384271 
L 347.790467 250.384271 
L 348.115446 238.083254 
L 348.440426 242.183593 
L 348.765405 238.083254 
L 349.090385 229.882576 
L 349.415364 229.882576 
L 349.740344 225.782237 
L 350.065324 213.48122 
L 350.715283 213.48122 
L 351.040262 209.380881 
L 351.365242 201.180203 
L 351.690221 197.079864 
L 352.015201 188.879186 
L 352.34018 188.879186 
L 352.66516 176.578169 
L 352.990139 176.578169 
L 353.315119 168.377492 
L 353.640098 172.477831 
L 353.965078 164.277153 
L 354.290057 160.176814 
L 354.615037 151.976136 
L 354.940016 151.976136 
L 355.264996 143.775458 
L 357.539853 115.073085 
L 357.864832 106.872407 
L 358.189812 106.872407 
L 358.514791 98.671729 
L 358.839771 102.772068 
L 359.16475 94.57139 
L 359.48973 94.57139 
L 359.814709 90.471051 
L 360.139689 90.471051 
L 360.464668 82.270373 
L 360.789648 82.270373 
L 361.764586 69.969356 
L 362.739525 69.969356 
L 363.064505 65.869017 
L 364.689402 65.869017 
L 365.014382 61.768678 
L 365.339361 65.869017 
L 365.664341 61.768678 
L 365.98932 61.768678 
L 366.3143 65.869017 
L 366.639279 61.768678 
L 366.964259 61.768678 
L 367.939197 74.069695 
L 368.264177 69.969356 
L 368.589156 78.170034 
L 368.914136 78.170034 
L 369.239115 82.270373 
L 369.564095 78.170034 
L 369.889075 82.270373 
L 370.214054 90.471051 
L 370.539034 90.471051 
L 370.864013 86.370712 
L 371.188993 94.57139 
L 371.838952 102.772068 
L 372.163931 102.772068 
L 372.81389 110.972746 
L 373.13887 123.273763 
L 373.463849 119.173424 
L 373.788829 127.374102 
L 374.113808 127.374102 
L 374.763767 135.57478 
L 375.088747 143.775458 
L 375.413726 147.875797 
L 375.738706 156.076475 
L 376.063686 151.976136 
L 376.713645 168.377492 
L 377.038624 172.477831 
L 377.363604 172.477831 
L 377.688583 184.778847 
L 378.013563 184.778847 
L 378.338542 192.979525 
L 378.663522 188.879186 
L 378.988501 197.079864 
L 379.96344 209.380881 
L 380.288419 217.581559 
L 380.938378 225.782237 
L 381.263358 225.782237 
L 381.588337 229.882576 
L 381.913317 238.083254 
L 382.238296 238.083254 
L 383.538215 254.48461 
L 383.863194 250.384271 
L 384.188174 258.584949 
L 384.513153 258.584949 
L 385.163112 266.785627 
L 385.488092 266.785627 
L 386.138051 274.986305 
L 386.78801 274.986305 
L 387.437969 283.186983 
L 387.762948 279.086644 
L 388.087928 279.086644 
L 388.412907 283.186983 
L 388.737887 283.186983 
L 389.062867 279.086644 
L 389.712826 279.086644 
L 390.037805 283.186983 
L 391.337723 283.186983 
L 391.662703 279.086644 
L 392.312662 279.086644 
L 392.962621 270.885966 
L 393.937559 270.885966 
L 394.262539 262.685288 
L 394.587518 262.685288 
L 394.912498 258.584949 
L 395.237477 258.584949 
L 395.562457 254.48461 
L 395.887437 254.48461 
L 396.212416 250.384271 
L 396.537396 250.384271 
L 396.862375 238.083254 
L 397.187355 238.083254 
L 398.162293 225.782237 
L 398.487273 225.782237 
L 398.487273 225.782237 
" clip-path="url(#pa4aedd0a8b)" style="fill: none; stroke: #2ca02c; stroke-width: 1.5; stroke-linecap: square"/>
   </g>
   <g id="patch_3">
    <path d="M 57.6 307.584 
L 57.6 41.472 
" style="fill: none; stroke: #000000; stroke-width: 0.8; stroke-linejoin: miter; stroke-linecap: square"/>
   </g>
   <g id="patch_4">
    <path d="M 414.72 307.584 
L 414.72 41.472 
" style="fill: none; stroke: #000000; stroke-width: 0.8; stroke-linejoin: miter; stroke-linecap: square"/>
   </g>
   <g id="patch_5">
    <path d="M 57.6 307.584 
L 414.72 307.584 
" style="fill: none; stroke: #000000; stroke-width: 0.8; stroke-linejoin: miter; stroke-linecap: square"/>
   </g>
   <g id="patch_6">
    <path d="M 57.6 41.472 
L 414.72 41.472 
" style="fill: none; stroke: #000000; stroke-width: 0.8; stroke-linejoin: miter; stroke-linecap: square"/>
   </g>
  </g>
 </g>
 <defs>
  <clipPath id="pa4aedd0a8b">
   <rect x="57.6" y="41.472" width="357.12" height="266.112"/>
  </clipPath>
 </defs>
</svg>
