<?xml version="1.0" encoding="utf-8" standalone="no"?>
<!DOCTYPE svg PUBLIC "-//W3C//DTD SVG 1.1//EN"
  "http://www.w3.org/Graphics/SVG/1.1/DTD/svg11.dtd">
<svg xmlns:xlink="http://www.w3.org/1999/xlink" width="460.8pt" height="345.6pt" viewBox="0 0 460.8 345.6" xmlns="http://www.w3.org/2000/svg" version="1.1">
 <metadata>
  <rdf:RDF xmlns:dc="http://purl.org/dc/elements/1.1/" xmlns:cc="http://creativecommons.org/ns#" xmlns:rdf="http://www.w3.org/1999/02/22-rdf-syntax-ns#">
   <cc:Work>
    <dc:type rdf:resource="http://purl.org/dc/dcmitype/StillImage"/>
    <dc:date>2025-12-31T12:56:20.489188</dc:date>
    <dc:format>image/svg+xml</dc:format>
    <dc:creator>
     <cc:Agent>
      <dc:title>Matplotlib v3.10.8, https://matplotlib.org/</dc:title>
     </cc:Agent>
    </dc:creator>
   </cc:Work>
  </rdf:RDF>
 </metadata>
 <defs>
  <style type="text/css">*{stroke-linejoin: round; stroke-linecap: butt}</style>
 </defs>
 <g id="figure_1">
  <g id="patch_1">
   <path d="M 0 345.6 
L 460.8 345.6 
L 460.8 0 
L 0 0 
z
" style="fill: #ffffff"/>
  </g>
  <g id="axes_1">
   <g id="patch_2">
    <path d="M 57.6 307.584 
L 414.72 307.584 
L 414.72 41.472 
L 57.6 41.472 
z
" style="fill: #ffffff"/>
   </g>
   <g id="matplotlib.axis_1">
    <g id="xtick_1">
     <g id="line2d_1">
      <defs>
       <path id="m1e4dcaa1f9" d="M 0 0 
L 0 3.5 
" style="stroke: #000000; stroke-width: 0.8"/>
      </defs>
      <g>
       <use xlink:href="#m1e4dcaa1f9" x="73.832727" y="307.584" style="stroke: #000000; stroke-width: 0.8"/>
      </g>
     </g>
     <g id="text_1">
      <!-- 0 -->
      <g transform="translate(70.651477 322.182437) scale(0.1 -0.1)">
       <defs>
        <path id="DejaVuSans-30" d="M 2034 4250 
Q 1547 4250 1301 3770 
Q 1056 3291 1056 2328 
Q 1056 1369 1301 889 
Q 1547 409 2034 409 
Q 2525 409 2770 889 
Q 3016 1369 3016 2328 
Q 3016 3291 2770 3770 
Q 2525 4250 2034 4250 
z
M 2034 4750 
Q 2819 4750 3233 4129 
Q 3647 3509 3647 2328 
Q 3647 1150 3233 529 
Q 2819 -91 2034 -91 
Q 1250 -91 836 529 
Q 422 1150 422 2328 
Q 422 3509 836 4129 
Q 1250 4750 2034 4750 
z
" transform="scale(0.015625)"/>
       </defs>
       <use xlink:href="#DejaVuSans-30"/>
      </g>
     </g>
    </g>
    <g id="xtick_2">
     <g id="line2d_2">
      <g>
       <use xlink:href="#m1e4dcaa1f9" x="138.828632" y="307.584" style="stroke: #000000; stroke-width: 0.8"/>
      </g>
     </g>
     <g id="text_2">
      <!-- 1 -->
      <g transform="translate(135.647382 322.182437) scale(0.1 -0.1)">
       <defs>
        <path id="DejaVuSans-31" d="M 794 531 
L 1825 531 
L 1825 4091 
L 703 3866 
L 703 4441 
L 1819 4666 
L 2450 4666 
L 2450 531 
L 3481 531 
L 3481 0 
L 794 0 
L 794 531 
z
" transform="scale(0.015625)"/>
       </defs>
       <use xlink:href="#DejaVuSans-31"/>
      </g>
     </g>
    </g>
    <g id="xtick_3">
     <g id="line2d_3">
      <g>
       <use xlink:href="#m1e4dcaa1f9" x="203.824537" y="307.584" style="stroke: #000000; stroke-width: 0.8"/>
      </g>
     </g>
     <g id="text_3">
      <!-- 2 -->
      <g transform="translate(200.643287 322.182437) scale(0.1 -0.1)">
       <defs>
        <path id="DejaVuSans-32" d="M 1228 531 
L 3431 531 
L 3431 0 
L 469 0 
L 469 531 
Q 828 903 1448 1529 
Q 2069 2156 2228 2338 
Q 2531 2678 2651 2914 
Q 2772 3150 2772 3378 
Q 2772 3750 2511 3984 
Q 2250 4219 1831 4219 
Q 1534 4219 1204 4116 
Q 875 4013 500 3803 
L 500 4441 
Q 881 4594 1212 4672 
Q 1544 4750 1819 4750 
Q 2544 4750 2975 4387 
Q 3406 4025 3406 3419 
Q 3406 3131 3298 2873 
Q 3191 2616 2906 2266 
Q 2828 2175 2409 1742 
Q 1991 1309 1228 531 
z
" transform="scale(0.015625)"/>
       </defs>
       <use xlink:href="#DejaVuSans-32"/>
      </g>
     </g>
    </g>
    <g id="xtick_4">
     <g id="line2d_4">
      <g>
       <use xlink:href="#m1e4dcaa1f9" x="268.820442" y="307.584" style="stroke: #000000; stroke-width: 0.8"/>
      </g>
     </g>
     <g id="text_4">
      <!-- 3 -->
      <g transform="translate(265.639192 322.182437) scale(0.1 -0.1)">
       <defs>
        <path id="DejaVuSans-33" d="M 2597 2516 
Q 3050 2419 3304 2112 
Q 3559 1806 3559 1356 
Q 3559 666 3084 287 
Q 2609 -91 1734 -91 
Q 1441 -91 1130 -33 
Q 819 25 488 141 
L 488 750 
Q 750 597 1062 519 
Q 1375 441 1716 441 
Q 2309 441 2620 675 
Q 2931 909 2931 1356 
Q 2931 1769 2642 2001 
Q 2353 2234 1838 2234 
L 1294 2234 
L 1294 2753 
L 1863 2753 
Q 2328 2753 2575 2939 
Q 2822 3125 2822 3475 
Q 2822 3834 2567 4026 
Q 2313 4219 1838 4219 
Q 1578 4219 1281 4162 
Q 984 4106 628 3988 
L 628 4550 
Q 988 4650 1302 4700 
Q 1616 4750 1894 4750 
Q 2613 4750 3031 4423 
Q 3450 4097 3450 3541 
Q 3450 3153 3228 2886 
Q 3006 2619 2597 2516 
z
" transform="scale(0.015625)"/>
       </defs>
       <use xlink:href="#DejaVuSans-33"/>
      </g>
     </g>
    </g>
    <g id="xtick_5">
     <g id="line2d_5">
      <g>
       <use xlink:href="#m1e4dcaa1f9" x="333.816347" y="307.584" style="stroke: #000000; stroke-width: 0.8"/>
      </g>
     </g>
     <g id="text_5">
      <!-- 4 -->
      <g transform="translate(330.635097 322.182437) scale(0.1 -0.1)">
       <defs>
        <path id="DejaVuSans-34" d="M 2419 4116 
L 825 1625 
L 2419 1625 
L 2419 4116 
z
M 2253 4666 
L 3047 4666 
L 3047 1625 
L 3713 1625 
L 3713 1100 
L 3047 1100 
L 3047 0 
L 2419 0 
L 2419 1100 
L 313 1100 
L 313 1709 
L 2253 4666 
z
" transform="scale(0.015625)"/>
       </defs>
       <use xlink:href="#DejaVuSans-34"/>
      </g>
     </g>
    </g>
    <g id="xtick_6">
     <g id="line2d_6">
      <g>
       <use xlink:href="#m1e4dcaa1f9" x="398.812252" y="307.584" style="stroke: #000000; stroke-width: 0.8"/>
      </g>
     </g>
     <g id="text_6">
      <!-- 5 -->
      <g transform="translate(395.631002 322.182437) scale(0.1 -0.1)">
       <defs>
        <path id="DejaVuSans-35" d="M 691 4666 
L 3169 4666 
L 3169 4134 
L 1269 4134 
L 1269 2991 
Q 1406 3038 1543 3061 
Q 1681 3084 1819 3084 
Q 2600 3084 3056 2656 
Q 3513 2228 3513 1497 
Q 3513 744 3044 326 
Q 2575 -91 1722 -91 
Q 1428 -91 1123 -41 
Q 819 9 494 109 
L 494 744 
Q 775 591 1075 516 
Q 1375 441 1709 441 
Q 2250 441 2565 725 
Q 2881 1009 2881 1497 
Q 2881 1984 2565 2268 
Q 2250 2553 1709 2553 
Q 1456 2553 1204 2497 
Q 953 2441 691 2322 
L 691 4666 
z
" transform="scale(0.015625)"/>
       </defs>
       <use xlink:href="#DejaVuSans-35"/>
      </g>
     </g>
    </g>
    <g id="text_7">
     <!-- 1e−7 -->
     <g transform="translate(387.462188 334.860562) scale(0.1 -0.1)">
      <defs>
       <path id="DejaVuSans-65" d="M 3597 1894 
L 3597 1613 
L 953 1613 
Q 991 1019 1311 708 
Q 1631 397 2203 397 
Q 2534 397 2845 478 
Q 3156 559 3463 722 
L 3463 178 
Q 3153 47 2828 -22 
Q 2503 -91 2169 -91 
Q 1331 -91 842 396 
Q 353 884 353 1716 
Q 353 2575 817 3079 
Q 1281 3584 2069 3584 
Q 2775 3584 3186 3129 
Q 3597 2675 3597 1894 
z
M 3022 2063 
Q 3016 2534 2758 2815 
Q 2500 3097 2075 3097 
Q 1594 3097 1305 2825 
Q 1016 2553 972 2059 
L 3022 2063 
z
" transform="scale(0.015625)"/>
       <path id="DejaVuSans-2212" d="M 678 2272 
L 4684 2272 
L 4684 1741 
L 678 1741 
L 678 2272 
z
" transform="scale(0.015625)"/>
       <path id="DejaVuSans-37" d="M 525 4666 
L 3525 4666 
L 3525 4397 
L 1831 0 
L 1172 0 
L 2766 4134 
L 525 4134 
L 525 4666 
z
" transform="scale(0.015625)"/>
      </defs>
      <use xlink:href="#DejaVuSans-31"/>
      <use xlink:href="#DejaVuSans-65" transform="translate(63.623047 0)"/>
      <use xlink:href="#DejaVuSans-2212" transform="translate(125.146484 0)"/>
      <use xlink:href="#DejaVuSans-37" transform="translate(208.935547 0)"/>
     </g>
    </g>
   </g>
   <g id="matplotlib.axis_2">
    <g id="ytick_1">
     <g id="line2d_7">
      <defs>
       <path id="m24a4039b37" d="M 0 0 
L -3.5 0 
" style="stroke: #000000; stroke-width: 0.8"/>
      </defs>
      <g>
       <use xlink:href="#m24a4039b37" x="57.6" y="286.047201" style="stroke: #000000; stroke-width: 0.8"/>
      </g>
     </g>
     <g id="text_8">
      <!-- −60 -->
      <g transform="translate(29.495313 289.84642) scale(0.1 -0.1)">
       <defs>
        <path id="DejaVuSans-36" d="M 2113 2584 
Q 1688 2584 1439 2293 
Q 1191 2003 1191 1497 
Q 1191 994 1439 701 
Q 1688 409 2113 409 
Q 2538 409 2786 701 
Q 3034 994 3034 1497 
Q 3034 2003 2786 2293 
Q 2538 2584 2113 2584 
z
M 3366 4563 
L 3366 3988 
Q 3128 4100 2886 4159 
Q 2644 4219 2406 4219 
Q 1781 4219 1451 3797 
Q 1122 3375 1075 2522 
Q 1259 2794 1537 2939 
Q 1816 3084 2150 3084 
Q 2853 3084 3261 2657 
Q 3669 2231 3669 1497 
Q 3669 778 3244 343 
Q 2819 -91 2113 -91 
Q 1303 -91 875 529 
Q 447 1150 447 2328 
Q 447 3434 972 4092 
Q 1497 4750 2381 4750 
Q 2619 4750 2861 4703 
Q 3103 4656 3366 4563 
z
" transform="scale(0.015625)"/>
       </defs>
       <use xlink:href="#DejaVuSans-2212"/>
       <use xlink:href="#DejaVuSans-36" transform="translate(83.789062 0)"/>
       <use xlink:href="#DejaVuSans-30" transform="translate(147.412109 0)"/>
      </g>
     </g>
    </g>
    <g id="ytick_2">
     <g id="line2d_8">
      <g>
       <use xlink:href="#m24a4039b37" x="57.6" y="248.284082" style="stroke: #000000; stroke-width: 0.8"/>
      </g>
     </g>
     <g id="text_9">
      <!-- −40 -->
      <g transform="translate(29.495313 252.0833) scale(0.1 -0.1)">
       <use xlink:href="#DejaVuSans-2212"/>
       <use xlink:href="#DejaVuSans-34" transform="translate(83.789062 0)"/>
       <use xlink:href="#DejaVuSans-30" transform="translate(147.412109 0)"/>
      </g>
     </g>
    </g>
    <g id="ytick_3">
     <g id="line2d_9">
      <g>
       <use xlink:href="#m24a4039b37" x="57.6" y="210.520962" style="stroke: #000000; stroke-width: 0.8"/>
      </g>
     </g>
     <g id="text_10">
      <!-- −20 -->
      <g transform="translate(29.495313 214.320181) scale(0.1 -0.1)">
       <use xlink:href="#DejaVuSans-2212"/>
       <use xlink:href="#DejaVuSans-32" transform="translate(83.789062 0)"/>
       <use xlink:href="#DejaVuSans-30" transform="translate(147.412109 0)"/>
      </g>
     </g>
    </g>
    <g id="ytick_4">
     <g id="line2d_10">
      <g>
       <use xlink:href="#m24a4039b37" x="57.6" y="172.757842" style="stroke: #000000; stroke-width: 0.8"/>
      </g>
     </g>
     <g id="text_11">
      <!-- 0 -->
      <g transform="translate(44.2375 176.557061) scale(0.1 -0.1)">
       <use xlink:href="#DejaVuSans-30"/>
      </g>
     </g>
    </g>
    <g id="ytick_5">
     <g id="line2d_11">
      <g>
       <use xlink:href="#m24a4039b37" x="57.6" y="134.994723" style="stroke: #000000; stroke-width: 0.8"/>
      </g>
     </g>
     <g id="text_12">
      <!-- 20 -->
      <g transform="translate(37.875 138.793941) scale(0.1 -0.1)">
       <use xlink:href="#DejaVuSans-32"/>
       <use xlink:href="#DejaVuSans-30" transform="translate(63.623047 0)"/>
      </g>
     </g>
    </g>
    <g id="ytick_6">
     <g id="line2d_12">
      <g>
       <use xlink:href="#m24a4039b37" x="57.6" y="97.231603" style="stroke: #000000; stroke-width: 0.8"/>
      </g>
     </g>
     <g id="text_13">
      <!-- 40 -->
      <g transform="translate(37.875 101.030822) scale(0.1 -0.1)">
       <use xlink:href="#DejaVuSans-34"/>
       <use xlink:href="#DejaVuSans-30" transform="translate(63.623047 0)"/>
      </g>
     </g>
    </g>
    <g id="ytick_7">
     <g id="line2d_13">
      <g>
       <use xlink:href="#m24a4039b37" x="57.6" y="59.468483" style="stroke: #000000; stroke-width: 0.8"/>
      </g>
     </g>
     <g id="text_14">
      <!-- 60 -->
      <g transform="translate(37.875 63.267702) scale(0.1 -0.1)">
       <use xlink:href="#DejaVuSans-36"/>
       <use xlink:href="#DejaVuSans-30" transform="translate(63.623047 0)"/>
      </g>
     </g>
    </g>
   </g>
   <g id="line2d_14">
    <path d="M 73.832727 125.547334 
L 74.482686 125.576837 
L 75.457625 125.517832 
L 76.107584 125.399822 
L 78.70742 125.311315 
L 79.0324 125.281812 
L 79.682359 125.429324 
L 80.657297 125.25231 
L 80.982277 125.163802 
L 82.282195 125.37032 
L 82.932154 125.281812 
L 83.582113 125.1343 
L 85.207011 125.193305 
L 85.85697 125.104798 
L 87.806847 125.222807 
L 88.456806 125.193305 
L 89.431744 125.311315 
L 90.406683 125.045793 
L 91.056642 125.193305 
L 92.68154 124.986788 
L 93.331499 125.045793 
L 98.531171 124.957285 
L 99.18113 124.927783 
L 100.481048 124.839276 
L 101.455987 124.721266 
L 102.105946 124.868778 
L 103.405864 124.780271 
L 103.730844 124.898281 
L 104.380803 124.750768 
L 104.705782 124.662261 
L 105.355741 124.780271 
L 105.680721 124.898281 
L 106.33068 124.691763 
L 106.980639 124.603256 
L 107.630598 124.839276 
L 108.280557 124.868778 
L 108.605536 124.898281 
L 109.580475 124.691763 
L 109.905455 124.691763 
L 110.555414 124.868778 
L 110.880393 124.898281 
L 112.180311 124.603256 
L 113.15525 124.957285 
L 113.805209 124.839276 
L 114.130188 124.691763 
L 114.780147 124.839276 
L 115.430106 125.163802 
L 116.405045 125.075295 
L 117.704963 124.927783 
L 119.004881 125.104798 
L 120.954758 125.01629 
L 121.604717 125.163802 
L 122.254676 125.104798 
L 122.579656 124.986788 
L 122.904636 125.01629 
L 123.879574 125.488329 
L 124.529533 125.222807 
L 125.179492 124.957285 
L 125.829451 125.163802 
L 126.47941 125.429324 
L 127.129369 125.222807 
L 127.779328 125.045793 
L 128.429287 125.340817 
L 128.754267 125.399822 
L 129.729206 125.1343 
L 130.704144 125.281812 
L 131.354103 125.429324 
L 132.004062 125.429324 
L 132.654021 125.222807 
L 132.979001 125.193305 
L 133.62896 125.399822 
L 134.278919 125.458827 
L 136.228796 125.517832 
L 137.528714 125.694846 
L 138.178673 125.517832 
L 140.12855 125.606339 
L 141.103489 125.429324 
L 141.753448 125.694846 
L 142.403407 125.842359 
L 143.053366 125.547334 
L 143.378346 125.576837 
L 144.028305 125.871861 
L 144.353284 125.930866 
L 145.653202 125.783354 
L 146.628141 125.960368 
L 147.2781 125.694846 
L 148.578018 125.930866 
L 149.552957 125.694846 
L 150.527895 125.960368 
L 151.502834 125.783354 
L 152.477772 125.930866 
L 154.427649 125.842359 
L 156.377527 125.930866 
L 157.352465 125.783354 
L 159.302342 125.930866 
L 160.60226 125.753851 
L 161.577199 125.842359 
L 162.552138 125.635842 
L 162.877117 125.665344 
L 163.527076 125.930866 
L 164.502015 125.842359 
L 165.151974 125.606339 
L 165.801933 125.724349 
L 166.451892 125.901363 
L 167.42683 125.517832 
L 168.401769 125.812856 
L 169.376708 125.488329 
L 170.351646 125.635842 
L 171.326585 125.517832 
L 172.301523 125.517832 
L 173.276462 125.37032 
L 174.2514 125.458827 
L 174.90136 125.458827 
L 175.551319 125.25231 
L 176.526257 125.340817 
L 177.176216 125.37032 
L 177.826175 125.163802 
L 178.476134 125.25231 
L 179.126093 125.37032 
L 180.750991 125.1343 
L 181.40095 125.222807 
L 183.025848 125.075295 
L 183.675807 125.25231 
L 184.325766 125.281812 
L 185.300704 125.163802 
L 186.275643 125.25231 
L 186.600622 125.281812 
L 187.250581 125.075295 
L 187.575561 125.045793 
L 188.22552 125.163802 
L 189.525438 124.927783 
L 190.500377 125.01629 
L 193.750172 125.045793 
L 194.400131 125.163802 
L 195.05009 125.075295 
L 195.700049 124.898281 
L 196.350008 124.927783 
L 196.999967 124.957285 
L 198.299885 124.691763 
L 199.274824 124.868778 
L 200.249762 124.750768 
L 200.899722 124.898281 
L 201.87466 124.632759 
L 202.849599 124.898281 
L 203.824537 124.632759 
L 204.149517 124.662261 
L 204.799476 124.927783 
L 205.774414 124.839276 
L 206.749353 124.691763 
L 208.049271 124.898281 
L 209.349189 124.632759 
L 210.324128 125.01629 
L 210.974087 124.809773 
L 211.299066 124.721266 
L 211.624046 124.780271 
L 212.274005 125.1343 
L 212.923964 125.1343 
L 214.873841 124.957285 
L 215.5238 125.193305 
L 218.123636 125.045793 
L 218.773595 125.193305 
L 219.748534 124.957285 
L 220.398493 125.281812 
L 220.723473 125.458827 
L 221.048452 125.429324 
L 222.023391 124.986788 
L 222.67335 125.045793 
L 223.323309 125.37032 
L 223.973268 125.281812 
L 224.623227 125.045793 
L 224.948206 125.075295 
L 225.923145 125.399822 
L 226.898084 125.163802 
L 227.548043 125.25231 
L 228.522981 125.488329 
L 230.147879 125.25231 
L 231.122817 125.429324 
L 234.697592 125.665344 
L 235.347551 125.547334 
L 236.32249 125.635842 
L 236.972449 125.665344 
L 237.297428 125.635842 
L 237.947387 125.458827 
L 238.272367 125.488329 
L 239.247305 125.842359 
L 239.572285 125.812856 
L 239.897265 125.635842 
L 240.222244 125.606339 
L 241.197183 125.930866 
L 243.14706 125.989871 
L 243.472039 126.048876 
L 244.446978 125.724349 
L 245.421916 126.019373 
L 246.396855 125.724349 
L 246.721835 125.753851 
L 247.371794 125.930866 
L 247.696773 125.960368 
L 248.346732 125.783354 
L 249.321671 125.871861 
L 249.97163 125.930866 
L 250.621589 125.901363 
L 257.121179 125.812856 
L 257.446159 125.753851 
L 258.421097 125.901363 
L 259.396036 125.606339 
L 260.045995 125.724349 
L 261.020934 125.960368 
L 261.670893 125.783354 
L 262.320852 125.606339 
L 262.970811 125.783354 
L 263.29579 125.930866 
L 263.62077 125.842359 
L 264.270729 125.517832 
L 265.570647 125.783354 
L 266.220606 125.517832 
L 266.870565 125.606339 
L 267.520524 125.576837 
L 268.170483 125.517832 
L 269.145422 125.547334 
L 270.44534 125.399822 
L 272.070238 125.458827 
L 272.720197 125.311315 
L 274.670074 125.222807 
L 275.320033 125.193305 
L 276.294971 125.37032 
L 277.594889 125.163802 
L 278.244848 125.222807 
L 279.544767 125.1343 
L 280.194726 125.1343 
L 281.169664 125.340817 
L 282.144603 125.163802 
L 282.794562 125.222807 
L 283.444521 125.311315 
L 284.744439 125.104798 
L 285.394398 125.1343 
L 286.694316 124.927783 
L 287.344275 125.045793 
L 290.91905 125.104798 
L 291.569009 125.163802 
L 292.218968 125.075295 
L 292.868927 124.927783 
L 293.518886 125.01629 
L 294.818804 124.809773 
L 295.468763 124.750768 
L 296.118722 124.898281 
L 297.41864 124.868778 
L 297.74362 124.986788 
L 298.718559 124.780271 
L 299.043538 124.750768 
L 300.018477 124.927783 
L 300.668436 124.662261 
L 301.318395 124.780271 
L 301.968354 124.927783 
L 302.943292 124.839276 
L 303.593251 124.691763 
L 304.89317 124.957285 
L 306.193088 124.632759 
L 306.518067 124.662261 
L 307.168026 124.986788 
L 307.493006 124.986788 
L 308.467944 124.750768 
L 309.767862 125.1343 
L 312.042719 125.01629 
L 312.692678 125.163802 
L 314.967535 124.957285 
L 315.942473 125.193305 
L 316.917412 124.957285 
L 317.892351 125.458827 
L 319.517248 124.957285 
L 320.492187 125.429324 
L 321.142146 125.222807 
L 321.792105 125.045793 
L 323.092023 125.311315 
L 323.741982 125.163802 
L 324.391941 125.222807 
L 325.691859 125.458827 
L 326.991777 125.222807 
L 329.266634 125.547334 
L 330.566552 125.517832 
L 331.216511 125.694846 
L 331.541491 125.724349 
L 332.516429 125.517832 
L 334.141327 125.665344 
L 335.116265 125.458827 
L 336.416183 125.842359 
L 337.066143 125.576837 
L 337.391122 125.606339 
L 338.366061 125.960368 
L 339.990958 125.901363 
L 340.640917 125.989871 
L 341.290876 125.753851 
L 341.615856 125.753851 
L 342.590794 125.989871 
L 343.240753 125.665344 
L 343.890713 125.812856 
L 344.540672 125.960368 
L 345.51561 125.783354 
L 346.815528 125.960368 
L 347.465487 125.901363 
L 351.040262 125.812856 
L 351.690221 125.812856 
L 353.315119 125.871861 
L 354.290057 125.783354 
L 354.615037 125.724349 
L 355.264996 125.901363 
L 356.889894 125.694846 
L 357.864832 125.930866 
L 358.514791 125.812856 
L 359.16475 125.635842 
L 359.48973 125.606339 
L 360.464668 125.901363 
L 361.114627 125.576837 
L 361.439607 125.517832 
L 362.414545 125.812856 
L 362.739525 125.753851 
L 363.064505 125.547334 
L 363.714464 125.547334 
L 364.364423 125.635842 
L 365.339361 125.547334 
L 365.98932 125.547334 
L 367.614218 125.399822 
L 367.939197 125.488329 
L 370.539034 125.340817 
L 371.188993 125.37032 
L 371.838952 125.193305 
L 372.488911 125.222807 
L 372.81389 125.37032 
L 373.788829 125.281812 
L 374.438788 125.1343 
L 375.738706 125.193305 
L 377.038624 125.104798 
L 378.338542 125.25231 
L 379.63846 125.193305 
L 380.288419 125.311315 
L 380.938378 125.193305 
L 381.588337 125.075295 
L 382.238296 125.193305 
L 382.888256 125.104798 
L 383.863194 125.01629 
L 384.188174 125.104798 
L 385.488092 125.01629 
L 386.78801 125.163802 
L 389.062867 125.1343 
L 390.037805 124.927783 
L 390.687764 124.986788 
L 391.987682 124.780271 
L 392.312662 124.691763 
L 393.2876 124.868778 
L 394.262539 124.780271 
L 394.912498 124.927783 
L 395.887437 124.691763 
L 396.862375 124.898281 
L 397.837314 124.662261 
L 398.162293 124.691763 
L 398.487273 124.839276 
L 398.487273 124.839276 
" clip-path="url(#pa62bba4bba)" style="fill: none; stroke: #1f77b4; stroke-width: 1.5; stroke-linecap: square"/>
   </g>
   <g id="line2d_15">
    <path d="M 73.832727 169.389018 
L 79.682359 169.389018 
L 85.85697 169.383118 
L 398.487273 169.391968 
L 398.487273 169.391968 
" clip-path="url(#pa62bba4bba)" style="fill: none; stroke: #ff7f0e; stroke-width: 1.5; stroke-linecap: square"/>
   </g>
   <g id="line2d_16">
    <path d="M 73.832727 162.727024 
L 74.157707 165.677268 
L 74.807666 165.677268 
L 75.132645 171.577756 
L 75.782604 177.478244 
L 76.107584 183.378732 
L 76.432563 183.378732 
L 77.082523 189.27922 
L 77.407502 189.27922 
L 77.732482 192.229463 
L 78.057461 201.080195 
L 78.382441 198.129951 
L 78.70742 198.129951 
L 79.0324 204.030439 
L 79.357379 204.030439 
L 80.007338 209.930927 
L 80.332318 215.831415 
L 80.657297 212.881171 
L 80.982277 218.781659 
L 81.307256 221.731902 
L 81.957215 221.731902 
L 82.282195 227.63239 
L 82.607174 224.682146 
L 82.932154 227.63239 
L 83.257133 233.532878 
L 83.582113 236.483122 
L 83.907093 233.532878 
L 84.232072 239.433366 
L 84.882031 245.333854 
L 85.207011 242.38361 
L 85.53199 248.284098 
L 85.85697 248.284098 
L 86.831908 257.134829 
L 87.156888 257.134829 
L 87.481867 260.085073 
L 87.806847 257.134829 
L 88.131826 263.035317 
L 88.456806 263.035317 
L 88.781785 265.985561 
L 89.106765 263.035317 
L 90.081704 271.886049 
L 90.406683 268.935805 
L 90.731663 271.886049 
L 91.056642 271.886049 
L 91.706601 277.786537 
L 92.031581 277.786537 
L 92.68154 283.687024 
L 93.006519 280.73678 
L 93.331499 280.73678 
L 93.656478 283.687024 
L 94.306437 283.687024 
L 94.631417 286.637268 
L 94.956396 286.637268 
L 95.281376 289.587512 
L 95.606355 286.637268 
L 95.931335 289.587512 
L 96.906274 289.587512 
L 97.231253 292.537756 
L 97.556233 289.587512 
L 97.881212 292.537756 
L 98.206192 286.637268 
L 98.531171 289.587512 
L 98.856151 295.488 
L 99.50611 289.587512 
L 99.831089 292.537756 
L 100.156069 292.537756 
L 100.481048 295.488 
L 100.806028 289.587512 
L 101.131007 292.537756 
L 101.455987 289.587512 
L 101.780966 289.587512 
L 102.105946 292.537756 
L 102.755905 292.537756 
L 103.405864 286.637268 
L 103.730844 286.637268 
L 104.055823 289.587512 
L 104.380803 286.637268 
L 105.030762 286.637268 
L 105.355741 289.587512 
L 105.680721 283.687024 
L 106.0057 280.73678 
L 106.33068 286.637268 
L 106.980639 280.73678 
L 107.305618 280.73678 
L 107.630598 277.786537 
L 107.955577 280.73678 
L 108.930516 271.886049 
L 109.255495 271.886049 
L 109.905455 265.985561 
L 110.880393 265.985561 
L 111.205373 260.085073 
L 111.530352 263.035317 
L 111.855332 260.085073 
L 112.180311 260.085073 
L 112.83027 254.184585 
L 113.15525 254.184585 
L 113.480229 251.234341 
L 113.805209 245.333854 
L 114.130188 242.38361 
L 114.455168 245.333854 
L 114.780147 239.433366 
L 115.430106 233.532878 
L 115.755086 236.483122 
L 116.080066 236.483122 
L 116.405045 224.682146 
L 116.730025 227.63239 
L 117.379984 221.731902 
L 117.704963 221.731902 
L 118.029943 215.831415 
L 118.354922 215.831415 
L 119.004881 209.930927 
L 119.329861 204.030439 
L 119.65484 206.980683 
L 119.97982 204.030439 
L 120.304799 198.129951 
L 120.629779 201.080195 
L 120.954758 195.179707 
L 121.279738 195.179707 
L 121.604717 189.27922 
L 121.929697 189.27922 
L 122.579656 183.378732 
L 122.904636 177.478244 
L 123.229615 177.478244 
L 123.554595 174.528 
L 123.879574 174.528 
L 124.529533 162.727024 
L 124.854513 165.677268 
L 125.179492 162.727024 
L 125.504472 156.826537 
L 125.829451 156.826537 
L 126.154431 150.926049 
L 126.47941 150.926049 
L 126.80439 145.025561 
L 127.129369 147.975805 
L 127.454349 147.975805 
L 127.779328 145.025561 
L 128.104308 139.125073 
L 128.429287 139.125073 
L 128.754267 133.224585 
L 129.079247 133.224585 
L 129.404226 127.324098 
L 130.054185 127.324098 
L 130.379165 124.373854 
L 130.704144 118.473366 
L 131.029124 121.42361 
L 131.679083 115.523122 
L 132.004062 109.622634 
L 132.329042 112.572878 
L 132.654021 109.622634 
L 132.979001 109.622634 
L 133.62896 103.722146 
L 133.953939 103.722146 
L 134.928878 94.871415 
L 135.253857 97.821659 
L 135.578837 91.921171 
L 135.903817 91.921171 
L 136.553776 86.020683 
L 136.878755 86.020683 
L 137.203735 80.120195 
L 137.528714 83.070439 
L 137.853694 80.120195 
L 138.178673 83.070439 
L 138.503653 80.120195 
L 138.828632 80.120195 
L 139.153612 74.219707 
L 139.478591 77.169951 
L 139.803571 71.269463 
L 140.45353 77.169951 
L 140.778509 71.269463 
L 141.103489 68.31922 
L 141.428468 68.31922 
L 141.753448 71.269463 
L 142.078428 71.269463 
L 142.403407 65.368976 
L 144.028305 65.368976 
L 144.353284 62.418732 
L 144.678264 65.368976 
L 145.003243 59.468488 
L 145.978182 59.468488 
L 146.303161 56.518244 
L 146.628141 59.468488 
L 146.95312 59.468488 
L 147.2781 62.418732 
L 147.603079 56.518244 
L 147.928059 59.468488 
L 148.578018 59.468488 
L 148.902998 62.418732 
L 149.227977 59.468488 
L 149.552957 59.468488 
L 149.877936 62.418732 
L 150.202916 59.468488 
L 150.527895 59.468488 
L 150.852875 62.418732 
L 151.177854 59.468488 
L 151.502834 59.468488 
L 151.827813 62.418732 
L 152.152793 62.418732 
L 152.477772 65.368976 
L 152.802752 62.418732 
L 153.127731 65.368976 
L 153.452711 62.418732 
L 153.77769 65.368976 
L 154.10267 62.418732 
L 154.427649 68.31922 
L 154.752629 68.31922 
L 155.077609 71.269463 
L 155.402588 68.31922 
L 155.727568 68.31922 
L 156.052547 74.219707 
L 156.377527 71.269463 
L 156.702506 71.269463 
L 157.677445 80.120195 
L 158.002424 77.169951 
L 158.327404 80.120195 
L 158.652383 80.120195 
L 158.977363 83.070439 
L 159.302342 83.070439 
L 159.952301 88.970927 
L 160.60226 88.970927 
L 161.252219 94.871415 
L 161.577199 94.871415 
L 162.227158 100.771902 
L 162.552138 106.67239 
L 162.877117 106.67239 
L 163.202097 103.722146 
L 163.527076 109.622634 
L 163.852056 109.622634 
L 164.177035 115.523122 
L 164.502015 118.473366 
L 164.826994 118.473366 
L 165.476953 124.373854 
L 165.801933 121.42361 
L 166.126912 127.324098 
L 166.451892 130.274341 
L 166.776871 130.274341 
L 167.101851 133.224585 
L 167.42683 139.125073 
L 167.75181 142.075317 
L 168.07679 142.075317 
L 168.401769 139.125073 
L 168.726749 147.975805 
L 169.051728 145.025561 
L 169.376708 153.876293 
L 169.701687 153.876293 
L 170.676626 162.727024 
L 171.001605 159.77678 
L 171.326585 165.677268 
L 171.651564 168.627512 
L 172.301523 168.627512 
L 172.626503 177.478244 
L 172.951482 177.478244 
L 173.276462 183.378732 
L 173.601441 183.378732 
L 173.926421 189.27922 
L 174.2514 186.328976 
L 174.90136 192.229463 
L 175.226339 198.129951 
L 175.551319 198.129951 
L 175.876298 204.030439 
L 176.201278 204.030439 
L 176.526257 206.980683 
L 176.851237 212.881171 
L 177.176216 212.881171 
L 177.501196 209.930927 
L 177.826175 215.831415 
L 178.151155 218.781659 
L 178.476134 224.682146 
L 178.801114 218.781659 
L 179.126093 227.63239 
L 179.451073 227.63239 
L 179.776052 230.582634 
L 180.101032 230.582634 
L 181.075971 239.433366 
L 181.40095 233.532878 
L 182.050909 245.333854 
L 182.700868 245.333854 
L 183.025848 251.234341 
L 183.350827 251.234341 
L 183.675807 254.184585 
L 184.000786 248.284098 
L 184.325766 260.085073 
L 184.975725 260.085073 
L 185.625684 265.985561 
L 185.950663 265.985561 
L 186.275643 268.935805 
L 186.600622 263.035317 
L 186.925602 265.985561 
L 187.250581 271.886049 
L 187.575561 268.935805 
L 187.900541 274.836293 
L 188.22552 274.836293 
L 188.875479 280.73678 
L 189.200459 274.836293 
L 189.525438 280.73678 
L 189.850418 277.786537 
L 190.175397 280.73678 
L 190.825356 280.73678 
L 191.475315 286.637268 
L 191.800295 283.687024 
L 192.125274 283.687024 
L 192.450254 289.587512 
L 192.775233 286.637268 
L 193.100213 286.637268 
L 193.425192 289.587512 
L 194.075152 289.587512 
L 194.400131 286.637268 
L 194.725111 295.488 
L 195.05009 292.537756 
L 195.37507 292.537756 
L 195.700049 289.587512 
L 196.025029 292.537756 
L 196.350008 292.537756 
L 196.674988 295.488 
L 196.999967 286.637268 
L 197.974906 295.488 
L 198.299885 289.587512 
L 198.624865 289.587512 
L 198.949844 292.537756 
L 199.599803 286.637268 
L 199.924783 289.587512 
L 200.899722 289.587512 
L 201.549681 283.687024 
L 201.87466 286.637268 
L 202.19964 283.687024 
L 202.849599 283.687024 
L 203.174578 280.73678 
L 204.474496 280.73678 
L 204.799476 271.886049 
L 205.124455 277.786537 
L 205.449435 274.836293 
L 205.774414 274.836293 
L 206.099394 271.886049 
L 206.424373 271.886049 
L 206.749353 268.935805 
L 207.074333 268.935805 
L 207.399312 263.035317 
L 208.049271 263.035317 
L 208.374251 260.085073 
L 208.69923 254.184585 
L 209.02421 257.134829 
L 209.674169 257.134829 
L 209.999148 248.284098 
L 210.324128 251.234341 
L 210.649107 245.333854 
L 210.974087 242.38361 
L 211.624046 242.38361 
L 211.949025 239.433366 
L 212.274005 239.433366 
L 212.598984 233.532878 
L 212.923964 230.582634 
L 213.248943 230.582634 
L 214.223882 221.731902 
L 214.873841 221.731902 
L 215.198821 212.881171 
L 215.5238 215.831415 
L 215.84878 209.930927 
L 216.173759 206.980683 
L 216.498739 206.980683 
L 216.823718 204.030439 
L 217.148698 204.030439 
L 217.473677 198.129951 
L 219.098575 183.378732 
L 219.423554 183.378732 
L 220.073514 177.478244 
L 220.398493 171.577756 
L 220.723473 174.528 
L 221.048452 171.577756 
L 221.373432 165.677268 
L 221.698411 162.727024 
L 222.023391 162.727024 
L 222.34837 159.77678 
L 222.67335 159.77678 
L 222.998329 153.876293 
L 224.298247 142.075317 
L 224.623227 142.075317 
L 224.948206 139.125073 
L 225.273186 139.125073 
L 225.598165 133.224585 
L 225.923145 133.224585 
L 226.248124 127.324098 
L 226.573104 130.274341 
L 226.898084 127.324098 
L 227.223063 127.324098 
L 227.548043 121.42361 
L 227.873022 121.42361 
L 228.198002 115.523122 
L 228.522981 115.523122 
L 229.17294 109.622634 
L 229.49792 109.622634 
L 229.822899 106.67239 
L 230.147879 106.67239 
L 230.472858 103.722146 
L 230.797838 97.821659 
L 231.447797 97.821659 
L 232.097756 91.921171 
L 232.422735 94.871415 
L 232.747715 91.921171 
L 233.072695 91.921171 
L 233.397674 83.070439 
L 233.722654 83.070439 
L 234.047633 86.020683 
L 234.697592 80.120195 
L 235.022572 80.120195 
L 235.347551 83.070439 
L 235.672531 80.120195 
L 235.99751 74.219707 
L 236.32249 77.169951 
L 236.647469 71.269463 
L 237.297428 71.269463 
L 237.947387 65.368976 
L 238.272367 68.31922 
L 238.597346 68.31922 
L 238.922326 65.368976 
L 239.897265 65.368976 
L 240.222244 62.418732 
L 240.547224 62.418732 
L 240.872203 65.368976 
L 241.197183 59.468488 
L 241.522162 62.418732 
L 241.847142 59.468488 
L 242.172121 59.468488 
L 242.497101 62.418732 
L 242.82208 59.468488 
L 243.14706 62.418732 
L 243.472039 62.418732 
L 244.121998 56.518244 
L 244.446978 59.468488 
L 244.771957 59.468488 
L 245.096937 53.568 
L 245.421916 59.468488 
L 246.071876 59.468488 
L 246.396855 56.518244 
L 246.721835 59.468488 
L 247.046814 56.518244 
L 247.371794 59.468488 
L 248.346732 59.468488 
L 248.671712 62.418732 
L 248.996691 59.468488 
L 249.321671 62.418732 
L 249.64665 62.418732 
L 249.97163 59.468488 
L 250.296609 59.468488 
L 250.621589 68.31922 
L 250.946568 65.368976 
L 251.271548 68.31922 
L 251.596527 65.368976 
L 251.921507 71.269463 
L 252.246486 68.31922 
L 252.571466 71.269463 
L 253.221425 71.269463 
L 253.871384 77.169951 
L 254.196364 74.219707 
L 254.521343 74.219707 
L 254.846323 80.120195 
L 255.496282 80.120195 
L 255.821261 83.070439 
L 256.146241 83.070439 
L 256.47122 88.970927 
L 256.7962 86.020683 
L 257.121179 88.970927 
L 257.446159 88.970927 
L 258.096118 94.871415 
L 258.421097 94.871415 
L 259.071057 100.771902 
L 259.396036 100.771902 
L 260.045995 106.67239 
L 260.370975 106.67239 
L 260.695954 109.622634 
L 261.020934 115.523122 
L 261.345913 115.523122 
L 261.670893 118.473366 
L 261.995872 115.523122 
L 262.320852 121.42361 
L 262.645831 121.42361 
L 262.970811 127.324098 
L 263.29579 127.324098 
L 263.62077 133.224585 
L 263.945749 133.224585 
L 264.270729 136.174829 
L 264.595708 136.174829 
L 264.920688 139.125073 
L 265.245667 145.025561 
L 265.895627 145.025561 
L 266.870565 153.876293 
L 267.195545 153.876293 
L 267.520524 162.727024 
L 267.845504 162.727024 
L 268.820442 171.577756 
L 269.145422 171.577756 
L 269.470401 174.528 
L 269.795381 174.528 
L 270.12036 180.428488 
L 270.44534 183.378732 
L 270.770319 183.378732 
L 271.095299 186.328976 
L 271.420278 192.229463 
L 271.745258 195.179707 
L 272.070238 201.080195 
L 272.395217 195.179707 
L 272.720197 201.080195 
L 274.020115 212.881171 
L 274.345094 212.881171 
L 274.670074 215.831415 
L 274.995053 215.831415 
L 275.320033 221.731902 
L 275.645012 224.682146 
L 275.969992 224.682146 
L 276.294971 227.63239 
L 276.619951 227.63239 
L 276.94493 230.582634 
L 277.26991 236.483122 
L 277.594889 230.582634 
L 277.919869 239.433366 
L 278.244848 239.433366 
L 278.569828 242.38361 
L 278.894808 242.38361 
L 279.869746 251.234341 
L 280.194726 248.284098 
L 280.519705 254.184585 
L 280.844685 257.134829 
L 281.169664 254.184585 
L 281.494644 254.184585 
L 281.819623 260.085073 
L 282.144603 263.035317 
L 282.469582 263.035317 
L 282.794562 260.085073 
L 283.119541 268.935805 
L 283.444521 265.985561 
L 284.419459 274.836293 
L 284.744439 274.836293 
L 285.069419 277.786537 
L 285.394398 274.836293 
L 286.044357 280.73678 
L 286.369337 280.73678 
L 286.694316 277.786537 
L 287.019296 280.73678 
L 287.344275 286.637268 
L 287.669255 283.687024 
L 287.994234 283.687024 
L 288.319214 289.587512 
L 288.644193 286.637268 
L 288.969173 286.637268 
L 289.294152 289.587512 
L 289.619132 289.587512 
L 289.944111 286.637268 
L 290.269091 289.587512 
L 290.91905 283.687024 
L 291.244029 292.537756 
L 291.569009 289.587512 
L 291.893989 292.537756 
L 292.543948 292.537756 
L 293.193907 286.637268 
L 293.843866 292.537756 
L 294.818804 292.537756 
L 295.143784 289.587512 
L 295.468763 289.587512 
L 295.793743 286.637268 
L 296.118722 289.587512 
L 298.0686 289.587512 
L 298.393579 283.687024 
L 298.718559 289.587512 
L 299.043538 283.687024 
L 300.018477 283.687024 
L 300.343456 280.73678 
L 300.668436 280.73678 
L 300.993415 277.786537 
L 301.318395 280.73678 
L 301.643374 277.786537 
L 301.968354 277.786537 
L 302.293333 274.836293 
L 302.618313 274.836293 
L 302.943292 271.886049 
L 303.268272 271.886049 
L 303.593251 265.985561 
L 303.918231 271.886049 
L 304.24321 265.985561 
L 304.56819 265.985561 
L 304.89317 263.035317 
L 305.218149 263.035317 
L 305.543129 260.085073 
L 305.868108 263.035317 
L 306.193088 254.184585 
L 306.843047 254.184585 
L 307.168026 251.234341 
L 307.493006 245.333854 
L 307.817985 248.284098 
L 308.142965 242.38361 
L 308.467944 242.38361 
L 308.792924 233.532878 
L 309.117903 239.433366 
L 309.442883 239.433366 
L 310.092842 233.532878 
L 310.417821 227.63239 
L 310.742801 227.63239 
L 311.067781 224.682146 
L 311.39276 218.781659 
L 312.042719 218.781659 
L 312.367699 215.831415 
L 312.692678 209.930927 
L 313.017658 209.930927 
L 313.342637 206.980683 
L 313.667617 206.980683 
L 313.992596 198.129951 
L 314.317576 198.129951 
L 314.642555 195.179707 
L 314.967535 198.129951 
L 315.292514 192.229463 
L 315.942473 186.328976 
L 316.267453 186.328976 
L 316.592432 177.478244 
L 316.917412 174.528 
L 317.567371 174.528 
L 317.892351 168.627512 
L 318.21733 168.627512 
L 318.54231 165.677268 
L 318.867289 165.677268 
L 319.192269 159.77678 
L 319.517248 159.77678 
L 319.842228 153.876293 
L 320.167207 150.926049 
L 320.492187 150.926049 
L 320.817166 153.876293 
L 321.142146 147.975805 
L 323.092023 130.274341 
L 323.417002 130.274341 
L 323.741982 127.324098 
L 324.066962 127.324098 
L 324.391941 121.42361 
L 324.716921 121.42361 
L 325.36688 115.523122 
L 325.691859 115.523122 
L 326.016839 112.572878 
L 326.666798 112.572878 
L 326.991777 106.67239 
L 327.316757 103.722146 
L 327.641736 103.722146 
L 328.291695 97.821659 
L 329.266634 97.821659 
L 329.591613 91.921171 
L 330.241572 91.921171 
L 331.216511 83.070439 
L 331.86647 83.070439 
L 332.19145 80.120195 
L 332.841409 80.120195 
L 333.166388 77.169951 
L 333.491368 71.269463 
L 333.816347 77.169951 
L 334.141327 74.219707 
L 334.466306 74.219707 
L 334.791286 68.31922 
L 335.116265 71.269463 
L 335.441245 65.368976 
L 335.766224 68.31922 
L 336.416183 68.31922 
L 336.741163 65.368976 
L 337.066143 68.31922 
L 337.391122 62.418732 
L 339.665979 62.418732 
L 339.990958 59.468488 
L 340.315938 62.418732 
L 340.640917 59.468488 
L 340.965897 62.418732 
L 341.290876 59.468488 
L 341.940835 59.468488 
L 342.265815 62.418732 
L 342.590794 56.518244 
L 342.915774 56.518244 
L 343.240753 59.468488 
L 344.540672 59.468488 
L 344.865651 62.418732 
L 345.190631 59.468488 
L 345.51561 62.418732 
L 346.165569 62.418732 
L 346.490549 65.368976 
L 348.115446 65.368976 
L 348.440426 68.31922 
L 348.765405 65.368976 
L 349.415364 71.269463 
L 349.740344 71.269463 
L 350.065324 74.219707 
L 350.390303 71.269463 
L 350.715283 71.269463 
L 351.690221 80.120195 
L 352.990139 80.120195 
L 353.965078 88.970927 
L 354.290057 88.970927 
L 354.615037 91.921171 
L 354.940016 91.921171 
L 355.264996 97.821659 
L 355.589975 94.871415 
L 357.214873 109.622634 
L 357.539853 109.622634 
L 357.864832 112.572878 
L 358.189812 109.622634 
L 358.514791 115.523122 
L 359.16475 121.42361 
L 359.48973 121.42361 
L 359.814709 127.324098 
L 360.464668 133.224585 
L 360.789648 133.224585 
L 361.114627 136.174829 
L 361.439607 133.224585 
L 361.764586 139.125073 
L 362.089566 139.125073 
L 362.414545 145.025561 
L 362.739525 145.025561 
L 363.064505 147.975805 
L 363.389484 147.975805 
L 363.714464 153.876293 
L 364.039443 156.826537 
L 364.364423 156.826537 
L 364.689402 159.77678 
L 365.014382 165.677268 
L 365.339361 165.677268 
L 365.664341 168.627512 
L 365.98932 165.677268 
L 366.3143 171.577756 
L 367.289238 180.428488 
L 367.614218 186.328976 
L 367.939197 186.328976 
L 368.264177 189.27922 
L 368.589156 189.27922 
L 368.914136 195.179707 
L 369.239115 198.129951 
L 369.564095 198.129951 
L 370.214054 204.030439 
L 370.539034 204.030439 
L 370.864013 209.930927 
L 371.188993 206.980683 
L 371.513972 215.831415 
L 371.838952 215.831415 
L 372.488911 221.731902 
L 372.81389 221.731902 
L 373.463849 227.63239 
L 373.788829 227.63239 
L 374.438788 233.532878 
L 374.763767 233.532878 
L 375.738706 242.38361 
L 376.063686 242.38361 
L 376.388665 239.433366 
L 376.713645 248.284098 
L 377.038624 245.333854 
L 377.363604 254.184585 
L 378.013563 254.184585 
L 378.663522 260.085073 
L 378.988501 260.085073 
L 379.313481 263.035317 
L 380.288419 263.035317 
L 380.613399 268.935805 
L 381.263358 274.836293 
L 381.588337 265.985561 
L 381.913317 274.836293 
L 382.238296 277.786537 
L 382.563276 274.836293 
L 382.888256 277.786537 
L 383.213235 277.786537 
L 383.863194 283.687024 
L 384.188174 280.73678 
L 384.838133 286.637268 
L 385.163112 283.687024 
L 385.488092 283.687024 
L 385.813071 286.637268 
L 386.46303 286.637268 
L 386.78801 280.73678 
L 387.112989 292.537756 
L 387.437969 289.587512 
L 387.762948 292.537756 
L 388.087928 292.537756 
L 388.412907 289.587512 
L 388.737887 292.537756 
L 389.062867 289.587512 
L 389.712826 289.587512 
L 390.037805 292.537756 
L 390.362785 292.537756 
L 390.687764 289.587512 
L 391.012744 292.537756 
L 391.337723 292.537756 
L 391.987682 286.637268 
L 392.312662 292.537756 
L 392.637641 289.587512 
L 393.2876 289.587512 
L 393.61258 292.537756 
L 393.937559 289.587512 
L 394.262539 289.587512 
L 394.587518 286.637268 
L 394.912498 289.587512 
L 395.237477 289.587512 
L 395.887437 283.687024 
L 396.212416 286.637268 
L 396.537396 283.687024 
L 396.862375 283.687024 
L 397.187355 277.786537 
L 397.512334 283.687024 
L 397.837314 280.73678 
L 398.487273 280.73678 
L 398.487273 280.73678 
" clip-path="url(#pa62bba4bba)" style="fill: none; stroke: #2ca02c; stroke-width: 1.5; stroke-linecap: square"/>
   </g>
   <g id="line2d_17">
    <path d="M 73.832727 173.229881 
L 74.157707 173.229881 
L 74.807666 173.347891 
L 76.107584 173.524905 
L 76.757543 173.58391 
L 80.007338 174.114954 
L 80.657297 174.173959 
L 81.307256 174.232964 
L 81.957215 174.291969 
L 82.607174 174.409978 
L 82.932154 174.350974 
L 85.207011 174.705003 
L 86.831908 174.764008 
L 87.481867 174.882017 
L 87.806847 174.823013 
L 89.106765 175.000027 
L 89.756724 175.059032 
L 90.081704 175.118037 
L 90.731663 175.059032 
L 94.306437 175.118037 
L 95.281376 175.236047 
L 95.931335 175.118037 
L 96.256314 175.177042 
L 96.581294 175.118037 
L 96.906274 175.177042 
L 97.556233 175.118037 
L 100.481048 175.118037 
L 101.131007 175.000027 
L 102.105946 174.941022 
L 102.755905 174.882017 
L 103.080885 174.941022 
L 103.730844 174.823013 
L 105.030762 174.764008 
L 105.355741 174.705003 
L 105.680721 174.823013 
L 106.33068 174.645998 
L 107.305618 174.586993 
L 108.605536 174.409978 
L 109.255495 174.350974 
L 110.230434 174.232964 
L 110.555414 174.291969 
L 111.530352 174.055949 
L 112.505291 173.93794 
L 113.15525 173.878935 
L 115.755086 173.465901 
L 116.405045 173.406896 
L 117.055004 173.229881 
L 117.704963 173.170876 
L 118.029943 173.052866 
L 118.354922 173.111871 
L 123.554595 172.226798 
L 123.879574 172.226798 
L 124.204554 172.108789 
L 124.529533 172.167793 
L 125.504472 171.931774 
L 126.47941 171.872769 
L 127.129369 171.695755 
L 127.779328 171.63675 
L 129.404226 171.40073 
L 130.054185 171.341725 
L 130.379165 171.223716 
L 130.704144 171.28272 
L 132.004062 171.105706 
L 133.30398 171.046701 
L 133.953939 170.928691 
L 135.253857 170.869686 
L 135.903817 170.810681 
L 136.553776 170.751677 
L 136.878755 170.692672 
L 137.203735 170.751677 
L 138.178673 170.633667 
L 140.12855 170.574662 
L 140.778509 170.515657 
L 147.2781 170.574662 
L 147.603079 170.633667 
L 148.253038 170.574662 
L 150.202916 170.633667 
L 150.527895 170.692672 
L 151.177854 170.633667 
L 152.152793 170.751677 
L 152.477772 170.751677 
L 153.127731 170.869686 
L 154.427649 170.928691 
L 155.402588 171.046701 
L 156.377527 171.046701 
L 157.027486 171.223716 
L 157.677445 171.28272 
L 158.652383 171.40073 
L 158.977363 171.40073 
L 159.627322 171.51874 
L 160.92724 171.695755 
L 161.577199 171.754759 
L 164.177035 172.167793 
L 164.502015 172.167793 
L 165.151974 172.285803 
L 169.376708 172.993862 
L 170.026667 173.052866 
L 172.626503 173.465901 
L 172.951482 173.465901 
L 173.601441 173.642915 
L 174.2514 173.70192 
L 174.90136 173.81993 
L 175.226339 173.81993 
L 176.201278 174.055949 
L 177.501196 174.114954 
L 178.151155 174.232964 
L 179.451073 174.409978 
L 180.750991 174.468983 
L 182.050909 174.645998 
L 182.375889 174.645998 
L 183.025848 174.764008 
L 184.000786 174.823013 
L 184.650745 174.941022 
L 184.975725 174.882017 
L 185.625684 174.941022 
L 185.950663 174.941022 
L 186.275643 175.059032 
L 186.925602 175.000027 
L 187.900541 175.118037 
L 188.22552 175.059032 
L 188.875479 175.118037 
L 197.649926 175.059032 
L 198.299885 174.941022 
L 198.949844 175.000027 
L 199.924783 174.941022 
L 200.574742 174.882017 
L 201.549681 174.823013 
L 202.19964 174.764008 
L 202.524619 174.764008 
L 203.174578 174.645998 
L 203.824537 174.586993 
L 204.474496 174.527988 
L 205.124455 174.468983 
L 205.774414 174.409978 
L 206.424373 174.350974 
L 206.749353 174.232964 
L 207.074333 174.291969 
L 209.02421 173.996944 
L 209.674169 173.93794 
L 212.274005 173.524905 
L 212.923964 173.465901 
L 215.84878 172.993862 
L 216.498739 172.934857 
L 216.823718 172.757842 
L 217.798657 172.757842 
L 219.098575 172.403813 
L 219.748534 172.344808 
L 221.373432 172.108789 
L 221.698411 172.108789 
L 222.34837 171.931774 
L 223.323309 171.872769 
L 225.598165 171.459735 
L 225.923145 171.577745 
L 226.898084 171.341725 
L 227.873022 171.223716 
L 228.522981 171.164711 
L 229.17294 171.046701 
L 229.49792 171.105706 
L 230.472858 170.987696 
L 230.797838 171.046701 
L 231.447797 170.928691 
L 232.747715 170.751677 
L 233.722654 170.692672 
L 234.047633 170.633667 
L 234.697592 170.692672 
L 235.347551 170.633667 
L 235.672531 170.574662 
L 235.99751 170.633667 
L 236.647469 170.574662 
L 236.972449 170.633667 
L 237.622408 170.515657 
L 244.771957 170.515657 
L 245.096937 170.633667 
L 245.421916 170.574662 
L 246.071876 170.633667 
L 248.671712 170.692672 
L 249.64665 170.810681 
L 250.946568 170.869686 
L 252.246486 171.046701 
L 253.221425 171.046701 
L 253.871384 171.164711 
L 255.496282 171.40073 
L 256.146241 171.459735 
L 257.771138 171.695755 
L 258.746077 171.754759 
L 259.396036 171.931774 
L 260.370975 171.990779 
L 261.020934 172.167793 
L 261.670893 172.226798 
L 263.62077 172.521823 
L 263.945749 172.521823 
L 264.595708 172.698837 
L 265.245667 172.757842 
L 268.495463 173.288886 
L 269.145422 173.347891 
L 272.395217 173.878935 
L 273.045176 173.93794 
L 274.995053 174.232964 
L 275.320033 174.173959 
L 275.969992 174.291969 
L 277.594889 174.527988 
L 278.569828 174.586993 
L 279.219787 174.645998 
L 279.869746 174.705003 
L 280.844685 174.823013 
L 281.169664 174.764008 
L 281.819623 174.941022 
L 284.744439 175.000027 
L 285.719378 175.118037 
L 286.044357 175.059032 
L 286.694316 175.118037 
L 294.818804 175.059032 
L 295.143784 175.000027 
L 295.468763 175.059032 
L 296.443702 174.941022 
L 298.393579 174.882017 
L 299.693497 174.705003 
L 300.343456 174.645998 
L 300.993415 174.586993 
L 301.318395 174.586993 
L 301.968354 174.468983 
L 302.943292 174.409978 
L 304.56819 174.173959 
L 304.89317 174.173959 
L 305.218149 173.996944 
L 305.543129 174.055949 
L 305.868108 173.996944 
L 306.193088 174.055949 
L 307.168026 173.81993 
L 307.493006 173.878935 
L 308.142965 173.70192 
L 308.467944 173.70192 
L 309.442883 173.465901 
L 310.092842 173.406896 
L 311.39276 173.229881 
L 311.71774 173.229881 
L 312.692678 172.993862 
L 313.342637 172.934857 
L 317.567371 172.226798 
L 318.21733 172.167793 
L 318.867289 172.049784 
L 320.167207 171.872769 
L 320.492187 171.872769 
L 321.142146 171.754759 
L 323.417002 171.40073 
L 324.066962 171.341725 
L 325.0419 171.223716 
L 325.691859 171.164711 
L 326.666798 171.046701 
L 327.641736 170.987696 
L 327.966716 170.869686 
L 328.291695 170.928691 
L 329.266634 170.810681 
L 329.916593 170.751677 
L 330.566552 170.692672 
L 332.516429 170.633667 
L 333.491368 170.515657 
L 333.816347 170.574662 
L 334.466306 170.515657 
L 334.791286 170.574662 
L 335.441245 170.456652 
L 336.091204 170.515657 
L 336.416183 170.515657 
L 336.741163 170.397647 
L 337.066143 170.515657 
L 337.391122 170.456652 
L 337.716102 170.515657 
L 338.366061 170.397647 
L 339.01602 170.515657 
L 342.915774 170.574662 
L 343.240753 170.633667 
L 343.565733 170.574662 
L 344.540672 170.692672 
L 346.165569 170.751677 
L 346.815528 170.810681 
L 347.140508 170.751677 
L 347.790467 170.928691 
L 349.090385 170.987696 
L 350.390303 171.164711 
L 351.365242 171.223716 
L 352.66516 171.40073 
L 353.640098 171.459735 
L 355.914955 171.813764 
L 356.239934 171.813764 
L 356.889894 171.931774 
L 358.839771 172.226798 
L 359.16475 172.226798 
L 360.139689 172.462818 
L 362.089566 172.757842 
L 362.739525 172.816847 
L 363.389484 172.934857 
L 367.614218 173.642915 
L 368.264177 173.70192 
L 370.864013 174.114954 
L 371.838952 174.173959 
L 372.81389 174.291969 
L 373.13887 174.291969 
L 373.788829 174.409978 
L 374.113808 174.409978 
L 374.763767 174.527988 
L 376.063686 174.764008 
L 376.713645 174.705003 
L 377.363604 174.764008 
L 378.338542 174.882017 
L 379.96344 174.941022 
L 380.613399 175.000027 
L 382.238296 175.059032 
L 382.563276 175.118037 
L 382.888256 175.059032 
L 383.863194 175.177042 
L 384.513153 175.118037 
L 385.488092 175.177042 
L 386.138051 175.236047 
L 387.762948 175.177042 
L 388.412907 175.118037 
L 391.987682 175.059032 
L 392.637641 174.941022 
L 393.2876 175.000027 
L 393.937559 174.941022 
L 394.912498 174.882017 
L 395.562457 174.764008 
L 395.887437 174.823013 
L 396.537396 174.764008 
L 396.862375 174.764008 
L 397.512334 174.645998 
L 398.487273 174.527988 
L 398.487273 174.527988 
" clip-path="url(#pa62bba4bba)" style="fill: none; stroke: #d62728; stroke-width: 1.5; stroke-linecap: square"/>
   </g>
   <g id="patch_3">
    <path d="M 57.6 307.584 
L 57.6 41.472 
" style="fill: none; stroke: #000000; stroke-width: 0.8; stroke-linejoin: miter; stroke-linecap: square"/>
   </g>
   <g id="patch_4">
    <path d="M 414.72 307.584 
L 414.72 41.472 
" style="fill: none; stroke: #000000; stroke-width: 0.8; stroke-linejoin: miter; stroke-linecap: square"/>
   </g>
   <g id="patch_5">
    <path d="M 57.6 307.584 
L 414.72 307.584 
" style="fill: none; stroke: #000000; stroke-width: 0.8; stroke-linejoin: miter; stroke-linecap: square"/>
   </g>
   <g id="patch_6">
    <path d="M 57.6 41.472 
L 414.72 41.472 
" style="fill: none; stroke: #000000; stroke-width: 0.8; stroke-linejoin: miter; stroke-linecap: square"/>
   </g>
  </g>
 </g>
 <defs>
  <clipPath id="pa62bba4bba">
   <rect x="57.6" y="41.472" width="357.12" height="266.112"/>
  </clipPath>
 </defs>
</svg>
