<?xml version="1.0" encoding="utf-8" standalone="no"?>
<!DOCTYPE svg PUBLIC "-//W3C//DTD SVG 1.1//EN"
  "http://www.w3.org/Graphics/SVG/1.1/DTD/svg11.dtd">
<svg xmlns:xlink="http://www.w3.org/1999/xlink" width="460.8pt" height="345.6pt" viewBox="0 0 460.8 345.6" xmlns="http://www.w3.org/2000/svg" version="1.1">
 <metadata>
  <rdf:RDF xmlns:dc="http://purl.org/dc/elements/1.1/" xmlns:cc="http://creativecommons.org/ns#" xmlns:rdf="http://www.w3.org/1999/02/22-rdf-syntax-ns#">
   <cc:Work>
    <dc:type rdf:resource="http://purl.org/dc/dcmitype/StillImage"/>
    <dc:date>2025-12-26T14:36:47.132815</dc:date>
    <dc:format>image/svg+xml</dc:format>
    <dc:creator>
     <cc:Agent>
      <dc:title>Matplotlib v3.10.8, https://matplotlib.org/</dc:title>
     </cc:Agent>
    </dc:creator>
   </cc:Work>
  </rdf:RDF>
 </metadata>
 <defs>
  <style type="text/css">*{stroke-linejoin: round; stroke-linecap: butt}</style>
 </defs>
 <g id="figure_1">
  <g id="patch_1">
   <path d="M 0 345.6 
L 460.8 345.6 
L 460.8 0 
L 0 0 
z
" style="fill: #ffffff"/>
  </g>
  <g id="axes_1">
   <g id="patch_2">
    <path d="M 57.6 307.584 
L 414.72 307.584 
L 414.72 41.472 
L 57.6 41.472 
z
" style="fill: #ffffff"/>
   </g>
   <g id="matplotlib.axis_1">
    <g id="xtick_1">
     <g id="line2d_1">
      <defs>
       <path id="m8bff0f7009" d="M 0 0 
L 0 3.5 
" style="stroke: #000000; stroke-width: 0.8"/>
      </defs>
      <g>
       <use xlink:href="#m8bff0f7009" x="73.832727" y="307.584" style="stroke: #000000; stroke-width: 0.8"/>
      </g>
     </g>
     <g id="text_1">
      <!-- 0 -->
      <g transform="translate(70.651477 322.182437) scale(0.1 -0.1)">
       <defs>
        <path id="DejaVuSans-30" d="M 2034 4250 
Q 1547 4250 1301 3770 
Q 1056 3291 1056 2328 
Q 1056 1369 1301 889 
Q 1547 409 2034 409 
Q 2525 409 2770 889 
Q 3016 1369 3016 2328 
Q 3016 3291 2770 3770 
Q 2525 4250 2034 4250 
z
M 2034 4750 
Q 2819 4750 3233 4129 
Q 3647 3509 3647 2328 
Q 3647 1150 3233 529 
Q 2819 -91 2034 -91 
Q 1250 -91 836 529 
Q 422 1150 422 2328 
Q 422 3509 836 4129 
Q 1250 4750 2034 4750 
z
" transform="scale(0.015625)"/>
       </defs>
       <use xlink:href="#DejaVuSans-30"/>
      </g>
     </g>
    </g>
    <g id="xtick_2">
     <g id="line2d_2">
      <g>
       <use xlink:href="#m8bff0f7009" x="138.828632" y="307.584" style="stroke: #000000; stroke-width: 0.8"/>
      </g>
     </g>
     <g id="text_2">
      <!-- 1 -->
      <g transform="translate(135.647382 322.182437) scale(0.1 -0.1)">
       <defs>
        <path id="DejaVuSans-31" d="M 794 531 
L 1825 531 
L 1825 4091 
L 703 3866 
L 703 4441 
L 1819 4666 
L 2450 4666 
L 2450 531 
L 3481 531 
L 3481 0 
L 794 0 
L 794 531 
z
" transform="scale(0.015625)"/>
       </defs>
       <use xlink:href="#DejaVuSans-31"/>
      </g>
     </g>
    </g>
    <g id="xtick_3">
     <g id="line2d_3">
      <g>
       <use xlink:href="#m8bff0f7009" x="203.824537" y="307.584" style="stroke: #000000; stroke-width: 0.8"/>
      </g>
     </g>
     <g id="text_3">
      <!-- 2 -->
      <g transform="translate(200.643287 322.182437) scale(0.1 -0.1)">
       <defs>
        <path id="DejaVuSans-32" d="M 1228 531 
L 3431 531 
L 3431 0 
L 469 0 
L 469 531 
Q 828 903 1448 1529 
Q 2069 2156 2228 2338 
Q 2531 2678 2651 2914 
Q 2772 3150 2772 3378 
Q 2772 3750 2511 3984 
Q 2250 4219 1831 4219 
Q 1534 4219 1204 4116 
Q 875 4013 500 3803 
L 500 4441 
Q 881 4594 1212 4672 
Q 1544 4750 1819 4750 
Q 2544 4750 2975 4387 
Q 3406 4025 3406 3419 
Q 3406 3131 3298 2873 
Q 3191 2616 2906 2266 
Q 2828 2175 2409 1742 
Q 1991 1309 1228 531 
z
" transform="scale(0.015625)"/>
       </defs>
       <use xlink:href="#DejaVuSans-32"/>
      </g>
     </g>
    </g>
    <g id="xtick_4">
     <g id="line2d_4">
      <g>
       <use xlink:href="#m8bff0f7009" x="268.820442" y="307.584" style="stroke: #000000; stroke-width: 0.8"/>
      </g>
     </g>
     <g id="text_4">
      <!-- 3 -->
      <g transform="translate(265.639192 322.182437) scale(0.1 -0.1)">
       <defs>
        <path id="DejaVuSans-33" d="M 2597 2516 
Q 3050 2419 3304 2112 
Q 3559 1806 3559 1356 
Q 3559 666 3084 287 
Q 2609 -91 1734 -91 
Q 1441 -91 1130 -33 
Q 819 25 488 141 
L 488 750 
Q 750 597 1062 519 
Q 1375 441 1716 441 
Q 2309 441 2620 675 
Q 2931 909 2931 1356 
Q 2931 1769 2642 2001 
Q 2353 2234 1838 2234 
L 1294 2234 
L 1294 2753 
L 1863 2753 
Q 2328 2753 2575 2939 
Q 2822 3125 2822 3475 
Q 2822 3834 2567 4026 
Q 2313 4219 1838 4219 
Q 1578 4219 1281 4162 
Q 984 4106 628 3988 
L 628 4550 
Q 988 4650 1302 4700 
Q 1616 4750 1894 4750 
Q 2613 4750 3031 4423 
Q 3450 4097 3450 3541 
Q 3450 3153 3228 2886 
Q 3006 2619 2597 2516 
z
" transform="scale(0.015625)"/>
       </defs>
       <use xlink:href="#DejaVuSans-33"/>
      </g>
     </g>
    </g>
    <g id="xtick_5">
     <g id="line2d_5">
      <g>
       <use xlink:href="#m8bff0f7009" x="333.816347" y="307.584" style="stroke: #000000; stroke-width: 0.8"/>
      </g>
     </g>
     <g id="text_5">
      <!-- 4 -->
      <g transform="translate(330.635097 322.182437) scale(0.1 -0.1)">
       <defs>
        <path id="DejaVuSans-34" d="M 2419 4116 
L 825 1625 
L 2419 1625 
L 2419 4116 
z
M 2253 4666 
L 3047 4666 
L 3047 1625 
L 3713 1625 
L 3713 1100 
L 3047 1100 
L 3047 0 
L 2419 0 
L 2419 1100 
L 313 1100 
L 313 1709 
L 2253 4666 
z
" transform="scale(0.015625)"/>
       </defs>
       <use xlink:href="#DejaVuSans-34"/>
      </g>
     </g>
    </g>
    <g id="xtick_6">
     <g id="line2d_6">
      <g>
       <use xlink:href="#m8bff0f7009" x="398.812252" y="307.584" style="stroke: #000000; stroke-width: 0.8"/>
      </g>
     </g>
     <g id="text_6">
      <!-- 5 -->
      <g transform="translate(395.631002 322.182437) scale(0.1 -0.1)">
       <defs>
        <path id="DejaVuSans-35" d="M 691 4666 
L 3169 4666 
L 3169 4134 
L 1269 4134 
L 1269 2991 
Q 1406 3038 1543 3061 
Q 1681 3084 1819 3084 
Q 2600 3084 3056 2656 
Q 3513 2228 3513 1497 
Q 3513 744 3044 326 
Q 2575 -91 1722 -91 
Q 1428 -91 1123 -41 
Q 819 9 494 109 
L 494 744 
Q 775 591 1075 516 
Q 1375 441 1709 441 
Q 2250 441 2565 725 
Q 2881 1009 2881 1497 
Q 2881 1984 2565 2268 
Q 2250 2553 1709 2553 
Q 1456 2553 1204 2497 
Q 953 2441 691 2322 
L 691 4666 
z
" transform="scale(0.015625)"/>
       </defs>
       <use xlink:href="#DejaVuSans-35"/>
      </g>
     </g>
    </g>
    <g id="text_7">
     <!-- 1e−7 -->
     <g transform="translate(387.462188 334.860562) scale(0.1 -0.1)">
      <defs>
       <path id="DejaVuSans-65" d="M 3597 1894 
L 3597 1613 
L 953 1613 
Q 991 1019 1311 708 
Q 1631 397 2203 397 
Q 2534 397 2845 478 
Q 3156 559 3463 722 
L 3463 178 
Q 3153 47 2828 -22 
Q 2503 -91 2169 -91 
Q 1331 -91 842 396 
Q 353 884 353 1716 
Q 353 2575 817 3079 
Q 1281 3584 2069 3584 
Q 2775 3584 3186 3129 
Q 3597 2675 3597 1894 
z
M 3022 2063 
Q 3016 2534 2758 2815 
Q 2500 3097 2075 3097 
Q 1594 3097 1305 2825 
Q 1016 2553 972 2059 
L 3022 2063 
z
" transform="scale(0.015625)"/>
       <path id="DejaVuSans-2212" d="M 678 2272 
L 4684 2272 
L 4684 1741 
L 678 1741 
L 678 2272 
z
" transform="scale(0.015625)"/>
       <path id="DejaVuSans-37" d="M 525 4666 
L 3525 4666 
L 3525 4397 
L 1831 0 
L 1172 0 
L 2766 4134 
L 525 4134 
L 525 4666 
z
" transform="scale(0.015625)"/>
      </defs>
      <use xlink:href="#DejaVuSans-31"/>
      <use xlink:href="#DejaVuSans-65" transform="translate(63.623047 0)"/>
      <use xlink:href="#DejaVuSans-2212" transform="translate(125.146484 0)"/>
      <use xlink:href="#DejaVuSans-37" transform="translate(208.935547 0)"/>
     </g>
    </g>
   </g>
   <g id="matplotlib.axis_2">
    <g id="ytick_1">
     <g id="line2d_7">
      <defs>
       <path id="m7446426e12" d="M 0 0 
L -3.5 0 
" style="stroke: #000000; stroke-width: 0.8"/>
      </defs>
      <g>
       <use xlink:href="#m7446426e12" x="57.6" y="263.361035" style="stroke: #000000; stroke-width: 0.8"/>
      </g>
     </g>
     <g id="text_8">
      <!-- −200 -->
      <g transform="translate(23.132812 267.160254) scale(0.1 -0.1)">
       <use xlink:href="#DejaVuSans-2212"/>
       <use xlink:href="#DejaVuSans-32" transform="translate(83.789062 0)"/>
       <use xlink:href="#DejaVuSans-30" transform="translate(147.412109 0)"/>
       <use xlink:href="#DejaVuSans-30" transform="translate(211.035156 0)"/>
      </g>
     </g>
    </g>
    <g id="ytick_2">
     <g id="line2d_8">
      <g>
       <use xlink:href="#m7446426e12" x="57.6" y="211.751438" style="stroke: #000000; stroke-width: 0.8"/>
      </g>
     </g>
     <g id="text_9">
      <!-- −100 -->
      <g transform="translate(23.132812 215.550657) scale(0.1 -0.1)">
       <use xlink:href="#DejaVuSans-2212"/>
       <use xlink:href="#DejaVuSans-31" transform="translate(83.789062 0)"/>
       <use xlink:href="#DejaVuSans-30" transform="translate(147.412109 0)"/>
       <use xlink:href="#DejaVuSans-30" transform="translate(211.035156 0)"/>
      </g>
     </g>
    </g>
    <g id="ytick_3">
     <g id="line2d_9">
      <g>
       <use xlink:href="#m7446426e12" x="57.6" y="160.141841" style="stroke: #000000; stroke-width: 0.8"/>
      </g>
     </g>
     <g id="text_10">
      <!-- 0 -->
      <g transform="translate(44.2375 163.94106) scale(0.1 -0.1)">
       <use xlink:href="#DejaVuSans-30"/>
      </g>
     </g>
    </g>
    <g id="ytick_4">
     <g id="line2d_10">
      <g>
       <use xlink:href="#m7446426e12" x="57.6" y="108.532244" style="stroke: #000000; stroke-width: 0.8"/>
      </g>
     </g>
     <g id="text_11">
      <!-- 100 -->
      <g transform="translate(31.5125 112.331463) scale(0.1 -0.1)">
       <use xlink:href="#DejaVuSans-31"/>
       <use xlink:href="#DejaVuSans-30" transform="translate(63.623047 0)"/>
       <use xlink:href="#DejaVuSans-30" transform="translate(127.246094 0)"/>
      </g>
     </g>
    </g>
    <g id="ytick_5">
     <g id="line2d_11">
      <g>
       <use xlink:href="#m7446426e12" x="57.6" y="56.922648" style="stroke: #000000; stroke-width: 0.8"/>
      </g>
     </g>
     <g id="text_12">
      <!-- 200 -->
      <g transform="translate(31.5125 60.721866) scale(0.1 -0.1)">
       <use xlink:href="#DejaVuSans-32"/>
       <use xlink:href="#DejaVuSans-30" transform="translate(63.623047 0)"/>
       <use xlink:href="#DejaVuSans-30" transform="translate(127.246094 0)"/>
      </g>
     </g>
    </g>
   </g>
   <g id="line2d_12">
    <path d="M 73.832727 205.506704 
L 74.157707 205.506704 
L 74.482686 202.281104 
L 74.807666 205.506704 
L 75.132645 199.055505 
L 75.457625 199.055505 
L 75.782604 192.604306 
L 76.107584 195.829906 
L 76.432563 192.604306 
L 76.757543 192.604306 
L 77.082523 189.378707 
L 77.407502 189.378707 
L 77.732482 186.153107 
L 78.382441 186.153107 
L 79.357379 176.476309 
L 79.682359 179.701908 
L 80.332318 173.250709 
L 80.657297 173.250709 
L 80.982277 163.573911 
L 81.307256 170.02511 
L 81.957215 163.573911 
L 82.282195 163.573911 
L 82.607174 166.79951 
L 82.932154 157.122712 
L 83.257133 160.348311 
L 83.582113 160.348311 
L 83.907093 153.897112 
L 85.207011 153.897112 
L 85.53199 147.445913 
L 85.85697 147.445913 
L 86.181949 144.220314 
L 86.506929 147.445913 
L 86.831908 144.220314 
L 87.156888 144.220314 
L 87.481867 140.994715 
L 88.456806 140.994715 
L 89.431744 131.317916 
L 90.406683 131.317916 
L 90.731663 128.092317 
L 91.056642 128.092317 
L 91.381622 121.641118 
L 91.706601 124.866717 
L 92.031581 124.866717 
L 92.35656 121.641118 
L 92.68154 121.641118 
L 93.006519 124.866717 
L 93.331499 118.415518 
L 93.981458 118.415518 
L 94.631417 111.964319 
L 94.956396 115.189919 
L 95.281376 111.964319 
L 95.606355 115.189919 
L 95.931335 108.73872 
L 96.906274 108.73872 
L 97.556233 102.287521 
L 97.881212 105.51312 
L 98.206192 105.51312 
L 98.856151 99.061921 
L 99.18113 102.287521 
L 99.831089 95.836322 
L 100.156069 95.836322 
L 100.481048 92.610722 
L 100.806028 95.836322 
L 101.131007 92.610722 
L 101.455987 92.610722 
L 101.780966 86.159523 
L 102.105946 89.385123 
L 102.430925 89.385123 
L 102.755905 86.159523 
L 103.405864 86.159523 
L 103.730844 82.933924 
L 104.055823 86.159523 
L 104.705782 86.159523 
L 105.030762 79.708325 
L 105.355741 79.708325 
L 105.680721 82.933924 
L 106.0057 82.933924 
L 106.33068 79.708325 
L 106.655659 79.708325 
L 106.980639 73.257126 
L 107.305618 79.708325 
L 107.630598 79.708325 
L 107.955577 76.482725 
L 108.280557 79.708325 
L 108.605536 79.708325 
L 108.930516 76.482725 
L 109.580475 82.933924 
L 109.905455 82.933924 
L 110.230434 76.482725 
L 110.555414 76.482725 
L 111.205373 82.933924 
L 111.530352 79.708325 
L 111.855332 82.933924 
L 112.180311 79.708325 
L 112.505291 82.933924 
L 113.480229 82.933924 
L 113.805209 86.159523 
L 114.130188 82.933924 
L 114.455168 86.159523 
L 115.755086 86.159523 
L 116.405045 92.610722 
L 116.730025 92.610722 
L 117.055004 95.836322 
L 117.379984 89.385123 
L 117.704963 95.836322 
L 118.029943 95.836322 
L 118.354922 99.061921 
L 118.679902 99.061921 
L 119.004881 102.287521 
L 119.329861 102.287521 
L 119.65484 105.51312 
L 120.304799 105.51312 
L 120.629779 108.73872 
L 120.954758 108.73872 
L 121.604717 115.189919 
L 122.579656 115.189919 
L 123.229615 121.641118 
L 123.879574 121.641118 
L 124.204554 128.092317 
L 124.529533 128.092317 
L 124.854513 131.317916 
L 125.829451 131.317916 
L 126.47941 137.769115 
L 126.80439 137.769115 
L 127.129369 140.994715 
L 127.779328 140.994715 
L 128.104308 147.445913 
L 128.429287 144.220314 
L 129.404226 153.897112 
L 129.729206 150.671513 
L 130.379165 157.122712 
L 131.354103 157.122712 
L 131.679083 163.573911 
L 132.004062 166.79951 
L 132.329042 166.79951 
L 132.979001 160.348311 
L 133.30398 166.79951 
L 133.62896 166.79951 
L 134.603898 176.476309 
L 134.928878 173.250709 
L 135.253857 179.701908 
L 135.578837 182.927508 
L 135.903817 179.701908 
L 136.228796 179.701908 
L 136.553776 182.927508 
L 136.878755 182.927508 
L 137.203735 189.378707 
L 137.528714 186.153107 
L 137.853694 189.378707 
L 138.178673 186.153107 
L 138.503653 192.604306 
L 138.828632 189.378707 
L 139.153612 192.604306 
L 139.478591 192.604306 
L 139.803571 195.829906 
L 140.45353 195.829906 
L 140.778509 202.281104 
L 141.428468 195.829906 
L 141.753448 202.281104 
L 142.078428 202.281104 
L 142.728387 208.732303 
L 143.053366 205.506704 
L 143.378346 205.506704 
L 144.028305 211.957903 
L 144.678264 211.957903 
L 145.003243 215.183502 
L 145.328223 215.183502 
L 145.653202 218.409102 
L 145.978182 218.409102 
L 146.303161 215.183502 
L 146.628141 218.409102 
L 146.95312 218.409102 
L 147.603079 224.860301 
L 148.578018 224.860301 
L 148.902998 231.3115 
L 149.227977 228.0859 
L 149.877936 228.0859 
L 150.202916 237.762699 
L 150.527895 231.3115 
L 150.852875 237.762699 
L 151.177854 240.988298 
L 151.827813 234.537099 
L 152.152793 237.762699 
L 152.802752 237.762699 
L 153.127731 240.988298 
L 153.452711 240.988298 
L 153.77769 237.762699 
L 154.10267 244.213898 
L 154.427649 237.762699 
L 154.752629 240.988298 
L 156.052547 240.988298 
L 156.377527 244.213898 
L 157.027486 244.213898 
L 157.352465 240.988298 
L 157.677445 240.988298 
L 158.002424 244.213898 
L 158.652383 244.213898 
L 158.977363 237.762699 
L 159.302342 244.213898 
L 159.627322 240.988298 
L 159.952301 240.988298 
L 160.277281 237.762699 
L 160.60226 240.988298 
L 160.92724 237.762699 
L 161.577199 237.762699 
L 161.902179 234.537099 
L 163.527076 234.537099 
L 163.852056 231.3115 
L 164.177035 224.860301 
L 164.502015 231.3115 
L 164.826994 228.0859 
L 165.151974 221.634701 
L 165.476953 224.860301 
L 165.801933 224.860301 
L 166.126912 221.634701 
L 166.776871 221.634701 
L 167.101851 215.183502 
L 167.42683 215.183502 
L 167.75181 211.957903 
L 168.07679 215.183502 
L 168.401769 215.183502 
L 168.726749 208.732303 
L 169.051728 208.732303 
L 169.376708 205.506704 
L 169.701687 205.506704 
L 170.351646 199.055505 
L 170.676626 202.281104 
L 171.001605 202.281104 
L 171.326585 195.829906 
L 171.651564 199.055505 
L 172.626503 189.378707 
L 173.601441 189.378707 
L 173.926421 182.927508 
L 174.2514 182.927508 
L 174.57638 176.476309 
L 174.90136 182.927508 
L 175.226339 176.476309 
L 175.551319 176.476309 
L 175.876298 173.250709 
L 176.201278 176.476309 
L 176.526257 170.02511 
L 177.176216 170.02511 
L 177.826175 163.573911 
L 178.151155 163.573911 
L 178.476134 160.348311 
L 179.126093 160.348311 
L 179.451073 157.122712 
L 179.776052 150.671513 
L 180.101032 153.897112 
L 180.426011 153.897112 
L 180.750991 150.671513 
L 181.40095 150.671513 
L 181.72593 147.445913 
L 182.375889 147.445913 
L 183.350827 137.769115 
L 183.675807 140.994715 
L 184.000786 140.994715 
L 184.325766 137.769115 
L 184.650745 137.769115 
L 184.975725 128.092317 
L 185.300704 134.543516 
L 185.625684 131.317916 
L 186.600622 131.317916 
L 186.925602 128.092317 
L 187.250581 128.092317 
L 187.575561 124.866717 
L 187.900541 124.866717 
L 188.22552 121.641118 
L 188.875479 121.641118 
L 189.200459 124.866717 
L 189.525438 118.415518 
L 189.850418 118.415518 
L 190.175397 111.964319 
L 190.500377 118.415518 
L 191.150336 111.964319 
L 191.475315 115.189919 
L 191.800295 115.189919 
L 192.125274 108.73872 
L 192.775233 108.73872 
L 193.100213 105.51312 
L 193.750172 105.51312 
L 194.075152 102.287521 
L 194.400131 105.51312 
L 194.725111 99.061921 
L 195.05009 99.061921 
L 195.37507 92.610722 
L 195.700049 99.061921 
L 196.025029 92.610722 
L 196.350008 92.610722 
L 196.674988 95.836322 
L 196.999967 95.836322 
L 197.324947 89.385123 
L 197.649926 92.610722 
L 198.299885 86.159523 
L 198.624865 86.159523 
L 198.949844 82.933924 
L 199.274824 86.159523 
L 199.599803 86.159523 
L 199.924783 82.933924 
L 200.249762 82.933924 
L 200.574742 79.708325 
L 200.899722 82.933924 
L 201.224701 82.933924 
L 201.549681 79.708325 
L 201.87466 79.708325 
L 202.19964 82.933924 
L 203.499558 82.933924 
L 203.824537 79.708325 
L 204.474496 79.708325 
L 204.799476 82.933924 
L 205.124455 79.708325 
L 205.449435 79.708325 
L 205.774414 73.257126 
L 206.424373 79.708325 
L 206.749353 76.482725 
L 207.399312 82.933924 
L 207.724292 79.708325 
L 208.049271 82.933924 
L 208.374251 82.933924 
L 208.69923 79.708325 
L 209.02421 79.708325 
L 209.349189 82.933924 
L 209.674169 82.933924 
L 209.999148 86.159523 
L 210.324128 82.933924 
L 210.649107 86.159523 
L 210.974087 82.933924 
L 211.624046 89.385123 
L 211.949025 86.159523 
L 212.598984 92.610722 
L 213.248943 92.610722 
L 213.573923 99.061921 
L 213.898903 99.061921 
L 214.223882 95.836322 
L 214.873841 102.287521 
L 215.5238 102.287521 
L 215.84878 105.51312 
L 216.173759 105.51312 
L 216.498739 108.73872 
L 216.823718 108.73872 
L 217.473677 115.189919 
L 218.123636 115.189919 
L 218.773595 121.641118 
L 219.423554 121.641118 
L 220.398493 131.317916 
L 221.048452 131.317916 
L 221.373432 128.092317 
L 221.698411 134.543516 
L 222.34837 134.543516 
L 222.998329 140.994715 
L 223.323309 140.994715 
L 223.648288 144.220314 
L 223.973268 150.671513 
L 224.623227 144.220314 
L 225.598165 153.897112 
L 226.573104 153.897112 
L 227.223063 160.348311 
L 227.548043 160.348311 
L 228.198002 166.79951 
L 228.847961 166.79951 
L 229.49792 173.250709 
L 229.822899 170.02511 
L 230.147879 176.476309 
L 230.472858 173.250709 
L 230.797838 176.476309 
L 231.122817 176.476309 
L 231.447797 179.701908 
L 231.772776 173.250709 
L 232.097756 182.927508 
L 232.747715 182.927508 
L 233.397674 189.378707 
L 233.722654 186.153107 
L 234.047633 186.153107 
L 234.372613 192.604306 
L 234.697592 192.604306 
L 235.022572 189.378707 
L 235.99751 199.055505 
L 236.32249 195.829906 
L 236.647469 199.055505 
L 236.972449 195.829906 
L 237.297428 202.281104 
L 237.622408 202.281104 
L 237.947387 199.055505 
L 238.597346 205.506704 
L 238.922326 202.281104 
L 239.572285 208.732303 
L 240.222244 208.732303 
L 240.547224 211.957903 
L 240.872203 211.957903 
L 241.522162 218.409102 
L 241.847142 218.409102 
L 242.172121 215.183502 
L 242.82208 221.634701 
L 243.14706 221.634701 
L 243.472039 228.0859 
L 243.797019 228.0859 
L 244.121998 224.860301 
L 244.771957 231.3115 
L 245.096937 231.3115 
L 245.421916 228.0859 
L 246.071876 234.537099 
L 246.721835 234.537099 
L 247.046814 237.762699 
L 247.371794 231.3115 
L 247.696773 237.762699 
L 248.671712 237.762699 
L 248.996691 240.988298 
L 249.321671 237.762699 
L 249.64665 240.988298 
L 250.296609 240.988298 
L 250.621589 237.762699 
L 250.946568 240.988298 
L 251.271548 240.988298 
L 251.596527 244.213898 
L 251.921507 240.988298 
L 252.246486 240.988298 
L 252.571466 237.762699 
L 252.896446 244.213898 
L 253.221425 244.213898 
L 253.546405 240.988298 
L 253.871384 240.988298 
L 254.196364 247.439497 
L 254.521343 240.988298 
L 254.846323 240.988298 
L 255.171302 244.213898 
L 255.496282 240.988298 
L 257.121179 240.988298 
L 257.771138 234.537099 
L 258.096118 237.762699 
L 258.746077 231.3115 
L 259.071057 231.3115 
L 259.396036 234.537099 
L 259.721016 228.0859 
L 260.045995 231.3115 
L 260.370975 231.3115 
L 260.695954 228.0859 
L 261.020934 221.634701 
L 261.345913 224.860301 
L 261.995872 224.860301 
L 262.320852 221.634701 
L 262.645831 221.634701 
L 262.970811 211.957903 
L 263.29579 218.409102 
L 264.270729 208.732303 
L 264.595708 211.957903 
L 264.920688 208.732303 
L 265.245667 208.732303 
L 265.570647 205.506704 
L 265.895627 205.506704 
L 266.220606 202.281104 
L 266.870565 202.281104 
L 267.195545 199.055505 
L 267.520524 199.055505 
L 267.845504 195.829906 
L 268.170483 189.378707 
L 268.495463 192.604306 
L 268.820442 189.378707 
L 269.470401 189.378707 
L 270.12036 182.927508 
L 270.770319 182.927508 
L 271.420278 176.476309 
L 271.745258 176.476309 
L 272.395217 170.02511 
L 272.720197 173.250709 
L 273.045176 170.02511 
L 273.370156 163.573911 
L 273.695135 166.79951 
L 274.345094 160.348311 
L 274.995053 160.348311 
L 275.320033 157.122712 
L 275.645012 157.122712 
L 275.969992 153.897112 
L 276.619951 153.897112 
L 276.94493 150.671513 
L 277.594889 150.671513 
L 277.919869 144.220314 
L 278.244848 147.445913 
L 278.569828 140.994715 
L 278.894808 144.220314 
L 279.219787 144.220314 
L 279.544767 137.769115 
L 279.869746 140.994715 
L 280.519705 134.543516 
L 281.494644 134.543516 
L 281.819623 131.317916 
L 282.144603 131.317916 
L 282.469582 128.092317 
L 283.444521 128.092317 
L 283.7695 121.641118 
L 284.09448 124.866717 
L 284.419459 124.866717 
L 284.744439 118.415518 
L 285.069419 118.415518 
L 285.394398 121.641118 
L 285.719378 118.415518 
L 286.369337 118.415518 
L 287.344275 108.73872 
L 287.669255 108.73872 
L 287.994234 111.964319 
L 288.319214 108.73872 
L 288.644193 108.73872 
L 288.969173 102.287521 
L 289.294152 105.51312 
L 289.619132 105.51312 
L 289.944111 102.287521 
L 290.59407 102.287521 
L 290.91905 95.836322 
L 291.244029 99.061921 
L 291.569009 99.061921 
L 291.893989 95.836322 
L 292.218968 95.836322 
L 292.543948 92.610722 
L 293.193907 92.610722 
L 293.518886 89.385123 
L 293.843866 89.385123 
L 294.168845 82.933924 
L 294.493825 89.385123 
L 294.818804 86.159523 
L 295.143784 86.159523 
L 295.468763 82.933924 
L 295.793743 86.159523 
L 296.768681 86.159523 
L 297.41864 79.708325 
L 299.043538 79.708325 
L 299.368518 76.482725 
L 299.693497 79.708325 
L 300.018477 76.482725 
L 300.343456 79.708325 
L 300.668436 79.708325 
L 300.993415 82.933924 
L 301.318395 79.708325 
L 301.643374 79.708325 
L 301.968354 82.933924 
L 302.293333 79.708325 
L 302.943292 79.708325 
L 303.268272 82.933924 
L 304.24321 82.933924 
L 304.56819 79.708325 
L 304.89317 86.159523 
L 305.218149 82.933924 
L 305.868108 82.933924 
L 306.193088 86.159523 
L 306.518067 82.933924 
L 306.843047 89.385123 
L 308.142965 89.385123 
L 308.792924 95.836322 
L 309.117903 92.610722 
L 309.442883 95.836322 
L 309.767862 95.836322 
L 310.092842 99.061921 
L 310.417821 99.061921 
L 310.742801 102.287521 
L 311.067781 99.061921 
L 311.39276 105.51312 
L 312.042719 105.51312 
L 312.367699 111.964319 
L 312.692678 111.964319 
L 313.017658 108.73872 
L 313.992596 118.415518 
L 314.317576 118.415518 
L 314.642555 121.641118 
L 314.967535 115.189919 
L 315.292514 124.866717 
L 315.617494 121.641118 
L 316.592432 131.317916 
L 317.242391 131.317916 
L 317.567371 137.769115 
L 317.892351 137.769115 
L 318.21733 134.543516 
L 319.517248 147.445913 
L 319.842228 144.220314 
L 320.167207 144.220314 
L 320.817166 150.671513 
L 321.142146 150.671513 
L 321.792105 157.122712 
L 322.767043 157.122712 
L 323.092023 160.348311 
L 323.741982 160.348311 
L 324.066962 166.79951 
L 324.391941 170.02511 
L 324.716921 166.79951 
L 325.0419 170.02511 
L 325.36688 166.79951 
L 325.691859 173.250709 
L 326.016839 176.476309 
L 326.341818 176.476309 
L 326.666798 179.701908 
L 327.316757 179.701908 
L 327.641736 182.927508 
L 328.941654 182.927508 
L 329.266634 189.378707 
L 329.591613 189.378707 
L 329.916593 186.153107 
L 330.241572 189.378707 
L 330.566552 189.378707 
L 330.891532 192.604306 
L 331.86647 192.604306 
L 332.19145 199.055505 
L 332.841409 199.055505 
L 333.166388 202.281104 
L 333.816347 202.281104 
L 334.466306 208.732303 
L 335.441245 208.732303 
L 335.766224 205.506704 
L 336.091204 211.957903 
L 336.416183 208.732303 
L 336.741163 211.957903 
L 337.066143 218.409102 
L 337.391122 218.409102 
L 337.716102 215.183502 
L 338.366061 221.634701 
L 339.340999 221.634701 
L 339.990958 228.0859 
L 340.640917 228.0859 
L 340.965897 224.860301 
L 341.290876 234.537099 
L 341.615856 231.3115 
L 341.940835 231.3115 
L 342.590794 237.762699 
L 342.915774 234.537099 
L 343.565733 240.988298 
L 343.890713 237.762699 
L 344.540672 237.762699 
L 344.865651 240.988298 
L 345.190631 237.762699 
L 345.51561 244.213898 
L 345.84059 240.988298 
L 346.490549 240.988298 
L 346.815528 244.213898 
L 347.140508 240.988298 
L 347.465487 240.988298 
L 347.790467 244.213898 
L 348.115446 240.988298 
L 348.440426 244.213898 
L 348.765405 244.213898 
L 349.090385 240.988298 
L 349.415364 240.988298 
L 349.740344 244.213898 
L 350.065324 244.213898 
L 350.390303 240.988298 
L 351.040262 240.988298 
L 351.365242 237.762699 
L 351.690221 240.988298 
L 352.990139 240.988298 
L 353.315119 234.537099 
L 353.640098 237.762699 
L 353.965078 237.762699 
L 354.290057 231.3115 
L 354.940016 231.3115 
L 355.264996 234.537099 
L 355.914955 228.0859 
L 356.239934 231.3115 
L 356.564914 224.860301 
L 356.889894 228.0859 
L 357.539853 221.634701 
L 358.189812 221.634701 
L 358.514791 215.183502 
L 358.839771 218.409102 
L 359.16475 218.409102 
L 360.139689 208.732303 
L 360.464668 208.732303 
L 360.789648 211.957903 
L 361.114627 205.506704 
L 361.439607 205.506704 
L 361.764586 199.055505 
L 362.089566 205.506704 
L 362.739525 199.055505 
L 363.389484 199.055505 
L 363.714464 192.604306 
L 364.364423 192.604306 
L 365.014382 186.153107 
L 365.664341 186.153107 
L 366.3143 179.701908 
L 366.639279 179.701908 
L 366.964259 176.476309 
L 367.289238 176.476309 
L 367.614218 173.250709 
L 368.589156 173.250709 
L 368.914136 166.79951 
L 369.239115 166.79951 
L 369.564095 170.02511 
L 369.889075 163.573911 
L 370.214054 160.348311 
L 371.188993 160.348311 
L 371.513972 153.897112 
L 371.838952 157.122712 
L 372.163931 150.671513 
L 373.13887 150.671513 
L 373.463849 147.445913 
L 373.788829 150.671513 
L 374.113808 144.220314 
L 374.763767 144.220314 
L 375.413726 137.769115 
L 375.738706 137.769115 
L 376.063686 134.543516 
L 376.388665 137.769115 
L 376.713645 134.543516 
L 377.038624 134.543516 
L 377.363604 128.092317 
L 377.688583 134.543516 
L 378.013563 131.317916 
L 378.338542 124.866717 
L 378.663522 128.092317 
L 378.988501 128.092317 
L 379.313481 124.866717 
L 379.96344 124.866717 
L 380.613399 118.415518 
L 380.938378 118.415518 
L 381.263358 121.641118 
L 381.588337 118.415518 
L 382.238296 118.415518 
L 382.563276 111.964319 
L 383.213235 111.964319 
L 383.538215 108.73872 
L 383.863194 111.964319 
L 384.188174 111.964319 
L 384.513153 108.73872 
L 385.163112 108.73872 
L 385.813071 102.287521 
L 386.78801 102.287521 
L 387.112989 99.061921 
L 387.437969 99.061921 
L 387.762948 92.610722 
L 388.087928 95.836322 
L 388.412907 92.610722 
L 388.737887 86.159523 
L 389.387846 92.610722 
L 389.712826 89.385123 
L 390.362785 89.385123 
L 390.687764 86.159523 
L 391.012744 86.159523 
L 391.337723 82.933924 
L 391.662703 86.159523 
L 391.987682 86.159523 
L 392.312662 82.933924 
L 392.637641 82.933924 
L 392.962621 79.708325 
L 393.2876 82.933924 
L 393.61258 82.933924 
L 393.937559 79.708325 
L 394.262539 82.933924 
L 394.587518 82.933924 
L 394.912498 79.708325 
L 395.237477 79.708325 
L 395.562457 82.933924 
L 396.212416 76.482725 
L 396.537396 79.708325 
L 396.862375 79.708325 
L 397.187355 82.933924 
L 397.512334 79.708325 
L 397.837314 82.933924 
L 398.162293 76.482725 
L 398.487273 79.708325 
L 398.487273 79.708325 
" clip-path="url(#p67b300ae86)" style="fill: none; stroke: #1f77b4; stroke-width: 1.5; stroke-linecap: square"/>
   </g>
   <g id="line2d_13">
    <path d="M 73.832727 271.296 
L 74.157707 263.232 
L 74.482686 271.296 
L 74.807666 271.296 
L 75.132645 255.168 
L 75.457625 271.296 
L 76.107584 287.424 
L 76.432563 271.296 
L 76.757543 279.36 
L 78.70742 279.36 
L 79.0324 287.424 
L 79.357379 271.296 
L 80.007338 287.424 
L 80.332318 271.296 
L 80.657297 287.424 
L 80.982277 279.36 
L 81.307256 295.488 
L 81.957215 279.36 
L 82.282195 287.424 
L 82.607174 287.424 
L 82.932154 279.36 
L 83.257133 279.36 
L 83.582113 287.424 
L 83.907093 279.36 
L 85.207011 279.36 
L 85.53199 263.232 
L 86.506929 287.424 
L 87.481867 263.232 
L 87.806847 263.232 
L 88.131826 255.168 
L 88.456806 263.232 
L 88.781785 263.232 
L 89.106765 247.104 
L 89.431744 255.168 
L 89.756724 239.04 
L 90.081704 239.04 
L 90.406683 247.104 
L 90.731663 239.04 
L 91.056642 247.104 
L 91.706601 247.104 
L 92.35656 230.976 
L 92.68154 239.04 
L 93.006519 230.976 
L 93.656478 230.976 
L 93.981458 239.04 
L 94.306437 222.912 
L 94.631417 230.976 
L 94.956396 222.912 
L 95.281376 222.912 
L 95.606355 230.976 
L 95.931335 214.848 
L 96.256314 230.976 
L 96.906274 230.976 
L 97.556233 214.848 
L 97.881212 222.912 
L 98.206192 206.784 
L 98.531171 206.784 
L 98.856151 222.912 
L 99.18113 214.848 
L 99.50611 198.72 
L 99.831089 198.72 
L 100.156069 190.656 
L 100.481048 198.72 
L 100.806028 198.72 
L 101.131007 190.656 
L 101.455987 198.72 
L 102.105946 198.72 
L 102.755905 182.592 
L 103.080885 182.592 
L 103.405864 174.528 
L 103.730844 182.592 
L 104.055823 182.592 
L 104.380803 174.528 
L 105.030762 174.528 
L 105.355741 166.464 
L 105.680721 166.464 
L 106.0057 174.528 
L 106.33068 158.4 
L 106.980639 174.528 
L 107.305618 174.528 
L 107.630598 158.4 
L 108.605536 158.4 
L 108.930516 150.336 
L 109.255495 150.336 
L 109.580475 158.4 
L 109.905455 134.208 
L 110.230434 142.272 
L 110.555414 142.272 
L 110.880393 134.208 
L 111.205373 134.208 
L 111.530352 118.08 
L 112.505291 142.272 
L 112.83027 118.08 
L 113.15525 118.08 
L 113.480229 126.144 
L 113.805209 118.08 
L 115.105127 118.08 
L 115.755086 101.952 
L 117.379984 101.952 
L 117.704963 110.016 
L 118.354922 93.888 
L 119.004881 93.888 
L 119.329861 85.824 
L 119.65484 93.888 
L 119.97982 93.888 
L 120.304799 85.824 
L 120.629779 85.824 
L 121.279738 69.696 
L 121.604717 77.76 
L 121.929697 69.696 
L 122.254676 85.824 
L 122.579656 77.76 
L 122.904636 85.824 
L 123.229615 69.696 
L 123.554595 69.696 
L 123.879574 77.76 
L 124.204554 77.76 
L 124.529533 69.696 
L 124.854513 77.76 
L 125.179492 69.696 
L 125.504472 69.696 
L 125.829451 77.76 
L 126.154431 61.632 
L 126.47941 61.632 
L 126.80439 77.76 
L 127.129369 53.568 
L 127.454349 69.696 
L 127.779328 77.76 
L 128.104308 77.76 
L 128.429287 61.632 
L 129.079247 61.632 
L 129.404226 69.696 
L 129.729206 61.632 
L 130.054185 61.632 
L 130.379165 69.696 
L 130.704144 61.632 
L 131.029124 69.696 
L 131.354103 61.632 
L 131.679083 61.632 
L 132.004062 69.696 
L 132.329042 53.568 
L 132.654021 69.696 
L 132.979001 77.76 
L 133.30398 77.76 
L 133.62896 69.696 
L 134.603898 69.696 
L 134.928878 77.76 
L 135.253857 77.76 
L 135.578837 93.888 
L 135.903817 85.824 
L 136.878755 85.824 
L 137.203735 93.888 
L 137.528714 85.824 
L 137.853694 101.952 
L 138.178673 101.952 
L 138.503653 110.016 
L 138.828632 101.952 
L 139.153612 101.952 
L 139.478591 110.016 
L 141.103489 110.016 
L 141.428468 118.08 
L 142.078428 101.952 
L 142.403407 118.08 
L 142.728387 101.952 
L 143.378346 134.208 
L 143.703325 134.208 
L 144.353284 118.08 
L 144.678264 126.144 
L 145.653202 126.144 
L 145.978182 134.208 
L 146.303161 126.144 
L 146.628141 142.272 
L 146.95312 134.208 
L 147.603079 134.208 
L 147.928059 126.144 
L 148.253038 142.272 
L 148.902998 158.4 
L 149.227977 150.336 
L 149.877936 150.336 
L 150.202916 158.4 
L 150.527895 150.336 
L 151.177854 166.464 
L 151.502834 158.4 
L 151.827813 166.464 
L 152.802752 166.464 
L 153.127731 150.336 
L 153.452711 174.528 
L 153.77769 174.528 
L 154.10267 182.592 
L 154.427649 174.528 
L 155.077609 174.528 
L 155.402588 182.592 
L 155.727568 182.592 
L 156.052547 190.656 
L 157.352465 190.656 
L 158.002424 206.784 
L 158.327404 190.656 
L 158.652383 206.784 
L 159.302342 222.912 
L 159.627322 214.848 
L 159.952301 214.848 
L 160.277281 222.912 
L 160.60226 214.848 
L 161.252219 230.976 
L 161.577199 230.976 
L 161.902179 222.912 
L 162.227158 230.976 
L 162.552138 222.912 
L 162.877117 222.912 
L 163.202097 239.04 
L 163.527076 222.912 
L 163.852056 239.04 
L 164.177035 247.104 
L 164.502015 247.104 
L 164.826994 239.04 
L 165.151974 247.104 
L 165.476953 239.04 
L 165.801933 239.04 
L 166.126912 247.104 
L 166.451892 247.104 
L 166.776871 255.168 
L 167.101851 247.104 
L 167.42683 255.168 
L 168.07679 255.168 
L 168.401769 263.232 
L 168.726749 247.104 
L 169.051728 263.232 
L 169.701687 279.36 
L 170.026667 263.232 
L 170.351646 271.296 
L 171.976544 271.296 
L 172.301523 263.232 
L 172.951482 279.36 
L 173.276462 271.296 
L 173.601441 279.36 
L 173.926421 271.296 
L 174.57638 287.424 
L 175.226339 287.424 
L 175.551319 279.36 
L 175.876298 279.36 
L 176.201278 287.424 
L 176.526257 279.36 
L 176.851237 287.424 
L 177.176216 279.36 
L 177.501196 287.424 
L 177.826175 279.36 
L 178.476134 279.36 
L 178.801114 287.424 
L 179.126093 271.296 
L 179.451073 279.36 
L 179.776052 295.488 
L 180.101032 295.488 
L 180.750991 279.36 
L 181.075971 279.36 
L 181.40095 271.296 
L 182.375889 271.296 
L 182.700868 263.232 
L 183.025848 271.296 
L 183.350827 271.296 
L 183.675807 255.168 
L 184.000786 263.232 
L 184.325766 247.104 
L 184.650745 263.232 
L 185.300704 263.232 
L 185.625684 247.104 
L 186.925602 247.104 
L 187.250581 239.04 
L 187.575561 239.04 
L 187.900541 230.976 
L 188.22552 239.04 
L 188.5505 239.04 
L 188.875479 230.976 
L 189.200459 239.04 
L 189.525438 222.912 
L 190.175397 239.04 
L 190.500377 239.04 
L 190.825356 222.912 
L 191.150336 222.912 
L 191.475315 230.976 
L 191.800295 222.912 
L 192.775233 222.912 
L 193.100213 214.848 
L 193.750172 214.848 
L 194.075152 206.784 
L 194.400131 214.848 
L 194.725111 198.72 
L 195.05009 214.848 
L 195.700049 214.848 
L 196.350008 198.72 
L 197.974906 198.72 
L 198.299885 182.592 
L 198.949844 182.592 
L 199.274824 174.528 
L 199.599803 182.592 
L 199.924783 174.528 
L 200.249762 182.592 
L 200.574742 182.592 
L 200.899722 190.656 
L 201.224701 174.528 
L 201.87466 174.528 
L 202.19964 166.464 
L 203.174578 166.464 
L 203.499558 158.4 
L 203.824537 158.4 
L 204.149517 150.336 
L 204.474496 150.336 
L 204.799476 158.4 
L 205.124455 142.272 
L 205.449435 142.272 
L 205.774414 150.336 
L 206.099394 150.336 
L 206.424373 142.272 
L 206.749353 142.272 
L 207.074333 134.208 
L 207.399312 134.208 
L 207.724292 126.144 
L 208.049271 126.144 
L 208.374251 134.208 
L 208.69923 118.08 
L 209.02421 126.144 
L 209.349189 118.08 
L 209.674169 118.08 
L 209.999148 126.144 
L 210.324128 110.016 
L 210.649107 118.08 
L 210.974087 118.08 
L 211.299066 126.144 
L 211.624046 110.016 
L 212.274005 110.016 
L 212.598984 101.952 
L 212.923964 101.952 
L 213.248943 110.016 
L 213.898903 93.888 
L 214.548862 93.888 
L 214.873841 85.824 
L 215.198821 93.888 
L 215.5238 77.76 
L 215.84878 85.824 
L 216.173759 101.952 
L 217.148698 77.76 
L 217.473677 85.824 
L 217.798657 77.76 
L 218.773595 77.76 
L 219.098575 69.696 
L 219.423554 77.76 
L 219.748534 77.76 
L 220.073514 69.696 
L 220.398493 77.76 
L 220.723473 61.632 
L 221.048452 77.76 
L 221.698411 77.76 
L 222.34837 61.632 
L 222.67335 69.696 
L 223.323309 69.696 
L 223.648288 61.632 
L 223.973268 69.696 
L 224.298247 61.632 
L 224.623227 77.76 
L 224.948206 61.632 
L 225.273186 61.632 
L 225.598165 69.696 
L 225.923145 53.568 
L 226.573104 69.696 
L 226.898084 69.696 
L 227.223063 61.632 
L 227.873022 61.632 
L 228.198002 69.696 
L 228.847961 69.696 
L 229.17294 77.76 
L 229.49792 69.696 
L 229.822899 77.76 
L 230.147879 77.76 
L 230.472858 69.696 
L 230.797838 77.76 
L 231.122817 69.696 
L 231.447797 85.824 
L 231.772776 93.888 
L 233.397674 93.888 
L 233.722654 101.952 
L 234.697592 101.952 
L 235.022572 110.016 
L 235.347551 110.016 
L 235.672531 101.952 
L 235.99751 110.016 
L 236.32249 93.888 
L 236.647469 110.016 
L 237.297428 126.144 
L 237.622408 118.08 
L 238.597346 118.08 
L 238.922326 126.144 
L 239.247305 118.08 
L 239.897265 118.08 
L 240.222244 126.144 
L 240.872203 126.144 
L 241.197183 134.208 
L 241.522162 118.08 
L 241.847142 134.208 
L 242.172121 134.208 
L 242.497101 150.336 
L 242.82208 134.208 
L 243.14706 142.272 
L 244.446978 142.272 
L 244.771957 150.336 
L 245.096937 142.272 
L 245.421916 150.336 
L 246.071876 150.336 
L 246.396855 166.464 
L 246.721835 150.336 
L 247.046814 166.464 
L 247.371794 174.528 
L 247.696773 174.528 
L 248.346732 158.4 
L 248.996691 174.528 
L 249.321671 166.464 
L 249.64665 174.528 
L 250.296609 174.528 
L 250.621589 182.592 
L 250.946568 174.528 
L 251.271548 174.528 
L 251.596527 190.656 
L 251.921507 174.528 
L 252.246486 190.656 
L 252.896446 206.784 
L 253.221425 198.72 
L 253.871384 198.72 
L 254.196364 206.784 
L 254.846323 206.784 
L 255.171302 214.848 
L 255.496282 206.784 
L 255.821261 214.848 
L 256.146241 214.848 
L 256.47122 206.784 
L 256.7962 222.912 
L 257.121179 214.848 
L 257.446159 230.976 
L 257.771138 239.04 
L 258.096118 239.04 
L 258.421097 230.976 
L 259.071057 230.976 
L 259.396036 239.04 
L 259.721016 230.976 
L 260.370975 247.104 
L 260.695954 230.976 
L 261.020934 247.104 
L 261.345913 239.04 
L 261.670893 239.04 
L 261.995872 247.104 
L 262.320852 230.976 
L 262.645831 255.168 
L 262.970811 255.168 
L 263.29579 263.232 
L 263.62077 255.168 
L 263.945749 263.232 
L 264.270729 255.168 
L 264.595708 255.168 
L 264.920688 263.232 
L 265.245667 263.232 
L 265.570647 271.296 
L 265.895627 255.168 
L 266.545586 271.296 
L 266.870565 263.232 
L 267.195545 279.36 
L 267.520524 263.232 
L 268.170483 279.36 
L 269.470401 279.36 
L 269.795381 287.424 
L 270.12036 271.296 
L 270.44534 279.36 
L 271.420278 279.36 
L 271.745258 271.296 
L 272.070238 279.36 
L 272.395217 279.36 
L 272.720197 271.296 
L 273.370156 287.424 
L 274.020115 287.424 
L 274.345094 279.36 
L 274.670074 279.36 
L 274.995053 287.424 
L 275.320033 287.424 
L 275.645012 279.36 
L 276.619951 279.36 
L 276.94493 271.296 
L 277.594889 271.296 
L 277.919869 263.232 
L 278.569828 279.36 
L 278.894808 279.36 
L 279.544767 263.232 
L 280.194726 263.232 
L 280.519705 255.168 
L 281.169664 255.168 
L 281.494644 239.04 
L 281.819623 247.104 
L 282.144603 239.04 
L 282.469582 239.04 
L 282.794562 247.104 
L 283.119541 230.976 
L 283.7695 247.104 
L 284.09448 247.104 
L 284.744439 230.976 
L 285.069419 230.976 
L 285.394398 239.04 
L 285.719378 230.976 
L 287.019296 230.976 
L 287.344275 222.912 
L 287.669255 222.912 
L 287.994234 230.976 
L 288.319214 214.848 
L 288.644193 222.912 
L 288.969173 222.912 
L 289.294152 230.976 
L 289.619132 222.912 
L 289.944111 206.784 
L 290.91905 206.784 
L 291.244029 214.848 
L 291.569009 198.72 
L 292.543948 198.72 
L 292.868927 190.656 
L 293.193907 198.72 
L 293.518886 182.592 
L 293.843866 198.72 
L 294.168845 190.656 
L 294.493825 198.72 
L 294.818804 182.592 
L 295.468763 182.592 
L 295.793743 190.656 
L 296.118722 174.528 
L 296.443702 174.528 
L 296.768681 182.592 
L 297.093661 174.528 
L 297.74362 174.528 
L 298.0686 166.464 
L 298.393579 174.528 
L 298.718559 158.4 
L 299.043538 166.464 
L 299.368518 166.464 
L 299.693497 158.4 
L 300.018477 158.4 
L 300.343456 150.336 
L 300.668436 150.336 
L 300.993415 142.272 
L 301.318395 142.272 
L 301.643374 150.336 
L 301.968354 150.336 
L 302.293333 142.272 
L 302.618313 142.272 
L 303.268272 126.144 
L 303.593251 134.208 
L 303.918231 118.08 
L 304.56819 134.208 
L 304.89317 134.208 
L 305.543129 118.08 
L 307.168026 118.08 
L 307.493006 110.016 
L 307.817985 118.08 
L 308.142965 101.952 
L 308.792924 101.952 
L 309.117903 93.888 
L 309.442883 101.952 
L 309.767862 101.952 
L 310.092842 110.016 
L 310.417821 93.888 
L 311.067781 93.888 
L 311.39276 85.824 
L 311.71774 93.888 
L 312.042719 85.824 
L 312.367699 85.824 
L 312.692678 77.76 
L 313.017658 85.824 
L 313.342637 69.696 
L 313.667617 77.76 
L 313.992596 77.76 
L 314.317576 69.696 
L 314.642555 77.76 
L 315.292514 77.76 
L 315.617494 69.696 
L 315.942473 77.76 
L 316.267453 69.696 
L 316.917412 69.696 
L 317.242391 77.76 
L 317.567371 77.76 
L 317.892351 53.568 
L 318.21733 69.696 
L 318.54231 53.568 
L 319.192269 69.696 
L 319.517248 53.568 
L 319.842228 69.696 
L 320.167207 77.76 
L 320.492187 61.632 
L 323.092023 61.632 
L 323.417002 69.696 
L 323.741982 61.632 
L 324.066962 61.632 
L 324.391941 77.76 
L 324.716921 61.632 
L 325.36688 77.76 
L 326.016839 77.76 
L 326.341818 69.696 
L 326.991777 85.824 
L 327.316757 85.824 
L 327.641736 93.888 
L 327.966716 93.888 
L 328.291695 85.824 
L 328.941654 85.824 
L 329.591613 101.952 
L 329.916593 85.824 
L 330.241572 101.952 
L 330.566552 110.016 
L 331.541491 110.016 
L 331.86647 101.952 
L 332.19145 110.016 
L 332.841409 110.016 
L 333.166388 118.08 
L 333.491368 110.016 
L 334.141327 110.016 
L 334.466306 101.952 
L 334.791286 118.08 
L 335.116265 110.016 
L 335.441245 126.144 
L 335.766224 126.144 
L 336.091204 134.208 
L 336.741163 118.08 
L 337.391122 134.208 
L 337.716102 126.144 
L 338.041081 142.272 
L 338.366061 134.208 
L 338.69104 134.208 
L 339.01602 142.272 
L 339.340999 142.272 
L 339.665979 134.208 
L 339.990958 150.336 
L 340.315938 134.208 
L 340.640917 150.336 
L 340.965897 158.4 
L 341.615856 158.4 
L 341.940835 150.336 
L 342.265815 150.336 
L 342.590794 158.4 
L 342.915774 158.4 
L 343.240753 166.464 
L 343.565733 166.464 
L 343.890713 158.4 
L 344.215692 174.528 
L 344.540672 158.4 
L 344.865651 166.464 
L 345.190631 166.464 
L 345.51561 158.4 
L 345.84059 174.528 
L 346.490549 190.656 
L 346.815528 174.528 
L 347.140508 174.528 
L 347.790467 190.656 
L 348.440426 190.656 
L 348.765405 198.72 
L 349.090385 190.656 
L 349.415364 198.72 
L 350.065324 198.72 
L 350.390303 206.784 
L 350.715283 198.72 
L 351.040262 222.912 
L 351.690221 222.912 
L 352.015201 214.848 
L 352.34018 222.912 
L 352.990139 222.912 
L 353.315119 230.976 
L 354.290057 230.976 
L 354.615037 239.04 
L 354.940016 230.976 
L 355.589975 230.976 
L 355.914955 222.912 
L 356.239934 247.104 
L 356.564914 247.104 
L 356.889894 255.168 
L 357.214873 239.04 
L 357.864832 255.168 
L 358.839771 255.168 
L 359.16475 263.232 
L 359.48973 247.104 
L 360.139689 263.232 
L 360.464668 255.168 
L 360.789648 263.232 
L 361.114627 255.168 
L 361.439607 271.296 
L 361.764586 271.296 
L 362.089566 279.36 
L 362.414545 279.36 
L 363.064505 263.232 
L 363.389484 279.36 
L 363.714464 271.296 
L 364.039443 279.36 
L 364.689402 279.36 
L 365.014382 271.296 
L 365.664341 271.296 
L 365.98932 287.424 
L 366.3143 271.296 
L 366.964259 287.424 
L 367.614218 287.424 
L 367.939197 279.36 
L 368.264177 287.424 
L 368.589156 279.36 
L 368.914136 279.36 
L 369.239115 287.424 
L 369.564095 279.36 
L 369.889075 287.424 
L 370.214054 279.36 
L 370.539034 279.36 
L 370.864013 287.424 
L 371.188993 287.424 
L 371.513972 271.296 
L 372.488911 295.488 
L 372.81389 279.36 
L 373.13887 279.36 
L 373.463849 271.296 
L 374.763767 271.296 
L 375.088747 263.232 
L 375.738706 263.232 
L 376.063686 255.168 
L 376.388665 263.232 
L 376.713645 239.04 
L 377.038624 255.168 
L 377.363604 255.168 
L 377.688583 263.232 
L 378.013563 247.104 
L 378.338542 247.104 
L 378.663522 239.04 
L 378.988501 239.04 
L 379.313481 247.104 
L 379.63846 239.04 
L 379.96344 239.04 
L 380.288419 230.976 
L 380.613399 239.04 
L 380.938378 230.976 
L 381.588337 230.976 
L 381.913317 222.912 
L 382.563276 239.04 
L 382.888256 239.04 
L 383.213235 222.912 
L 383.538215 222.912 
L 383.863194 230.976 
L 384.188174 222.912 
L 385.163112 222.912 
L 385.488092 214.848 
L 386.138051 214.848 
L 386.46303 198.72 
L 386.78801 214.848 
L 387.112989 198.72 
L 387.437969 214.848 
L 387.762948 214.848 
L 388.412907 198.72 
L 388.737887 198.72 
L 389.062867 190.656 
L 390.362785 190.656 
L 390.687764 182.592 
L 391.012744 182.592 
L 391.337723 174.528 
L 391.662703 174.528 
L 391.987682 182.592 
L 392.312662 166.464 
L 392.637641 182.592 
L 393.2876 182.592 
L 393.61258 166.464 
L 395.237477 166.464 
L 395.887437 150.336 
L 396.537396 150.336 
L 396.862375 142.272 
L 397.187355 142.272 
L 397.512334 134.208 
L 397.837314 142.272 
L 398.487273 142.272 
L 398.487273 142.272 
" clip-path="url(#p67b300ae86)" style="fill: none; stroke: #ff7f0e; stroke-width: 1.5; stroke-linecap: square"/>
   </g>
   <g id="line2d_14">
    <path d="M 73.832727 147.61116 
L 79.357379 147.556325 
L 86.181949 147.598258 
L 89.431744 147.556325 
L 398.487273 147.620837 
L 398.487273 147.620837 
" clip-path="url(#p67b300ae86)" style="fill: none; stroke: #2ca02c; stroke-width: 1.5; stroke-linecap: square"/>
   </g>
   <g id="patch_3">
    <path d="M 57.6 307.584 
L 57.6 41.472 
" style="fill: none; stroke: #000000; stroke-width: 0.8; stroke-linejoin: miter; stroke-linecap: square"/>
   </g>
   <g id="patch_4">
    <path d="M 414.72 307.584 
L 414.72 41.472 
" style="fill: none; stroke: #000000; stroke-width: 0.8; stroke-linejoin: miter; stroke-linecap: square"/>
   </g>
   <g id="patch_5">
    <path d="M 57.6 307.584 
L 414.72 307.584 
" style="fill: none; stroke: #000000; stroke-width: 0.8; stroke-linejoin: miter; stroke-linecap: square"/>
   </g>
   <g id="patch_6">
    <path d="M 57.6 41.472 
L 414.72 41.472 
" style="fill: none; stroke: #000000; stroke-width: 0.8; stroke-linejoin: miter; stroke-linecap: square"/>
   </g>
  </g>
 </g>
 <defs>
  <clipPath id="p67b300ae86">
   <rect x="57.6" y="41.472" width="357.12" height="266.112"/>
  </clipPath>
 </defs>
</svg>
