<?xml version="1.0" encoding="utf-8" standalone="no"?>
<!DOCTYPE svg PUBLIC "-//W3C//DTD SVG 1.1//EN"
  "http://www.w3.org/Graphics/SVG/1.1/DTD/svg11.dtd">
<svg xmlns:xlink="http://www.w3.org/1999/xlink" width="460.8pt" height="345.6pt" viewBox="0 0 460.8 345.6" xmlns="http://www.w3.org/2000/svg" version="1.1">
 <metadata>
  <rdf:RDF xmlns:dc="http://purl.org/dc/elements/1.1/" xmlns:cc="http://creativecommons.org/ns#" xmlns:rdf="http://www.w3.org/1999/02/22-rdf-syntax-ns#">
   <cc:Work>
    <dc:type rdf:resource="http://purl.org/dc/dcmitype/StillImage"/>
    <dc:date>2025-12-29T08:48:57.150907</dc:date>
    <dc:format>image/svg+xml</dc:format>
    <dc:creator>
     <cc:Agent>
      <dc:title>Matplotlib v3.10.8, https://matplotlib.org/</dc:title>
     </cc:Agent>
    </dc:creator>
   </cc:Work>
  </rdf:RDF>
 </metadata>
 <defs>
  <style type="text/css">*{stroke-linejoin: round; stroke-linecap: butt}</style>
 </defs>
 <g id="figure_1">
  <g id="patch_1">
   <path d="M 0 345.6 
L 460.8 345.6 
L 460.8 0 
L 0 0 
z
" style="fill: #ffffff"/>
  </g>
  <g id="axes_1">
   <g id="patch_2">
    <path d="M 57.6 307.584 
L 414.72 307.584 
L 414.72 41.472 
L 57.6 41.472 
z
" style="fill: #ffffff"/>
   </g>
   <g id="matplotlib.axis_1">
    <g id="xtick_1">
     <g id="line2d_1">
      <defs>
       <path id="m23d43fbe58" d="M 0 0 
L 0 3.5 
" style="stroke: #000000; stroke-width: 0.8"/>
      </defs>
      <g>
       <use xlink:href="#m23d43fbe58" x="73.832727" y="307.584" style="stroke: #000000; stroke-width: 0.8"/>
      </g>
     </g>
     <g id="text_1">
      <!-- 0 -->
      <g transform="translate(70.651477 322.182437) scale(0.1 -0.1)">
       <defs>
        <path id="DejaVuSans-30" d="M 2034 4250 
Q 1547 4250 1301 3770 
Q 1056 3291 1056 2328 
Q 1056 1369 1301 889 
Q 1547 409 2034 409 
Q 2525 409 2770 889 
Q 3016 1369 3016 2328 
Q 3016 3291 2770 3770 
Q 2525 4250 2034 4250 
z
M 2034 4750 
Q 2819 4750 3233 4129 
Q 3647 3509 3647 2328 
Q 3647 1150 3233 529 
Q 2819 -91 2034 -91 
Q 1250 -91 836 529 
Q 422 1150 422 2328 
Q 422 3509 836 4129 
Q 1250 4750 2034 4750 
z
" transform="scale(0.015625)"/>
       </defs>
       <use xlink:href="#DejaVuSans-30"/>
      </g>
     </g>
    </g>
    <g id="xtick_2">
     <g id="line2d_2">
      <g>
       <use xlink:href="#m23d43fbe58" x="138.828632" y="307.584" style="stroke: #000000; stroke-width: 0.8"/>
      </g>
     </g>
     <g id="text_2">
      <!-- 1 -->
      <g transform="translate(135.647382 322.182437) scale(0.1 -0.1)">
       <defs>
        <path id="DejaVuSans-31" d="M 794 531 
L 1825 531 
L 1825 4091 
L 703 3866 
L 703 4441 
L 1819 4666 
L 2450 4666 
L 2450 531 
L 3481 531 
L 3481 0 
L 794 0 
L 794 531 
z
" transform="scale(0.015625)"/>
       </defs>
       <use xlink:href="#DejaVuSans-31"/>
      </g>
     </g>
    </g>
    <g id="xtick_3">
     <g id="line2d_3">
      <g>
       <use xlink:href="#m23d43fbe58" x="203.824537" y="307.584" style="stroke: #000000; stroke-width: 0.8"/>
      </g>
     </g>
     <g id="text_3">
      <!-- 2 -->
      <g transform="translate(200.643287 322.182437) scale(0.1 -0.1)">
       <defs>
        <path id="DejaVuSans-32" d="M 1228 531 
L 3431 531 
L 3431 0 
L 469 0 
L 469 531 
Q 828 903 1448 1529 
Q 2069 2156 2228 2338 
Q 2531 2678 2651 2914 
Q 2772 3150 2772 3378 
Q 2772 3750 2511 3984 
Q 2250 4219 1831 4219 
Q 1534 4219 1204 4116 
Q 875 4013 500 3803 
L 500 4441 
Q 881 4594 1212 4672 
Q 1544 4750 1819 4750 
Q 2544 4750 2975 4387 
Q 3406 4025 3406 3419 
Q 3406 3131 3298 2873 
Q 3191 2616 2906 2266 
Q 2828 2175 2409 1742 
Q 1991 1309 1228 531 
z
" transform="scale(0.015625)"/>
       </defs>
       <use xlink:href="#DejaVuSans-32"/>
      </g>
     </g>
    </g>
    <g id="xtick_4">
     <g id="line2d_4">
      <g>
       <use xlink:href="#m23d43fbe58" x="268.820442" y="307.584" style="stroke: #000000; stroke-width: 0.8"/>
      </g>
     </g>
     <g id="text_4">
      <!-- 3 -->
      <g transform="translate(265.639192 322.182437) scale(0.1 -0.1)">
       <defs>
        <path id="DejaVuSans-33" d="M 2597 2516 
Q 3050 2419 3304 2112 
Q 3559 1806 3559 1356 
Q 3559 666 3084 287 
Q 2609 -91 1734 -91 
Q 1441 -91 1130 -33 
Q 819 25 488 141 
L 488 750 
Q 750 597 1062 519 
Q 1375 441 1716 441 
Q 2309 441 2620 675 
Q 2931 909 2931 1356 
Q 2931 1769 2642 2001 
Q 2353 2234 1838 2234 
L 1294 2234 
L 1294 2753 
L 1863 2753 
Q 2328 2753 2575 2939 
Q 2822 3125 2822 3475 
Q 2822 3834 2567 4026 
Q 2313 4219 1838 4219 
Q 1578 4219 1281 4162 
Q 984 4106 628 3988 
L 628 4550 
Q 988 4650 1302 4700 
Q 1616 4750 1894 4750 
Q 2613 4750 3031 4423 
Q 3450 4097 3450 3541 
Q 3450 3153 3228 2886 
Q 3006 2619 2597 2516 
z
" transform="scale(0.015625)"/>
       </defs>
       <use xlink:href="#DejaVuSans-33"/>
      </g>
     </g>
    </g>
    <g id="xtick_5">
     <g id="line2d_5">
      <g>
       <use xlink:href="#m23d43fbe58" x="333.816347" y="307.584" style="stroke: #000000; stroke-width: 0.8"/>
      </g>
     </g>
     <g id="text_5">
      <!-- 4 -->
      <g transform="translate(330.635097 322.182437) scale(0.1 -0.1)">
       <defs>
        <path id="DejaVuSans-34" d="M 2419 4116 
L 825 1625 
L 2419 1625 
L 2419 4116 
z
M 2253 4666 
L 3047 4666 
L 3047 1625 
L 3713 1625 
L 3713 1100 
L 3047 1100 
L 3047 0 
L 2419 0 
L 2419 1100 
L 313 1100 
L 313 1709 
L 2253 4666 
z
" transform="scale(0.015625)"/>
       </defs>
       <use xlink:href="#DejaVuSans-34"/>
      </g>
     </g>
    </g>
    <g id="xtick_6">
     <g id="line2d_6">
      <g>
       <use xlink:href="#m23d43fbe58" x="398.812252" y="307.584" style="stroke: #000000; stroke-width: 0.8"/>
      </g>
     </g>
     <g id="text_6">
      <!-- 5 -->
      <g transform="translate(395.631002 322.182437) scale(0.1 -0.1)">
       <defs>
        <path id="DejaVuSans-35" d="M 691 4666 
L 3169 4666 
L 3169 4134 
L 1269 4134 
L 1269 2991 
Q 1406 3038 1543 3061 
Q 1681 3084 1819 3084 
Q 2600 3084 3056 2656 
Q 3513 2228 3513 1497 
Q 3513 744 3044 326 
Q 2575 -91 1722 -91 
Q 1428 -91 1123 -41 
Q 819 9 494 109 
L 494 744 
Q 775 591 1075 516 
Q 1375 441 1709 441 
Q 2250 441 2565 725 
Q 2881 1009 2881 1497 
Q 2881 1984 2565 2268 
Q 2250 2553 1709 2553 
Q 1456 2553 1204 2497 
Q 953 2441 691 2322 
L 691 4666 
z
" transform="scale(0.015625)"/>
       </defs>
       <use xlink:href="#DejaVuSans-35"/>
      </g>
     </g>
    </g>
    <g id="text_7">
     <!-- 1e−7 -->
     <g transform="translate(387.462188 334.860562) scale(0.1 -0.1)">
      <defs>
       <path id="DejaVuSans-65" d="M 3597 1894 
L 3597 1613 
L 953 1613 
Q 991 1019 1311 708 
Q 1631 397 2203 397 
Q 2534 397 2845 478 
Q 3156 559 3463 722 
L 3463 178 
Q 3153 47 2828 -22 
Q 2503 -91 2169 -91 
Q 1331 -91 842 396 
Q 353 884 353 1716 
Q 353 2575 817 3079 
Q 1281 3584 2069 3584 
Q 2775 3584 3186 3129 
Q 3597 2675 3597 1894 
z
M 3022 2063 
Q 3016 2534 2758 2815 
Q 2500 3097 2075 3097 
Q 1594 3097 1305 2825 
Q 1016 2553 972 2059 
L 3022 2063 
z
" transform="scale(0.015625)"/>
       <path id="DejaVuSans-2212" d="M 678 2272 
L 4684 2272 
L 4684 1741 
L 678 1741 
L 678 2272 
z
" transform="scale(0.015625)"/>
       <path id="DejaVuSans-37" d="M 525 4666 
L 3525 4666 
L 3525 4397 
L 1831 0 
L 1172 0 
L 2766 4134 
L 525 4134 
L 525 4666 
z
" transform="scale(0.015625)"/>
      </defs>
      <use xlink:href="#DejaVuSans-31"/>
      <use xlink:href="#DejaVuSans-65" transform="translate(63.623047 0)"/>
      <use xlink:href="#DejaVuSans-2212" transform="translate(125.146484 0)"/>
      <use xlink:href="#DejaVuSans-37" transform="translate(208.935547 0)"/>
     </g>
    </g>
   </g>
   <g id="matplotlib.axis_2">
    <g id="ytick_1">
     <g id="line2d_7">
      <defs>
       <path id="m9039a8bd4b" d="M 0 0 
L -3.5 0 
" style="stroke: #000000; stroke-width: 0.8"/>
      </defs>
      <g>
       <use xlink:href="#m9039a8bd4b" x="57.6" y="300.93118" style="stroke: #000000; stroke-width: 0.8"/>
      </g>
     </g>
     <g id="text_8">
      <!-- −40 -->
      <g transform="translate(29.495313 304.730399) scale(0.1 -0.1)">
       <use xlink:href="#DejaVuSans-2212"/>
       <use xlink:href="#DejaVuSans-34" transform="translate(83.789062 0)"/>
       <use xlink:href="#DejaVuSans-30" transform="translate(147.412109 0)"/>
      </g>
     </g>
    </g>
    <g id="ytick_2">
     <g id="line2d_8">
      <g>
       <use xlink:href="#m9039a8bd4b" x="57.6" y="262.223982" style="stroke: #000000; stroke-width: 0.8"/>
      </g>
     </g>
     <g id="text_9">
      <!-- −20 -->
      <g transform="translate(29.495313 266.023201) scale(0.1 -0.1)">
       <use xlink:href="#DejaVuSans-2212"/>
       <use xlink:href="#DejaVuSans-32" transform="translate(83.789062 0)"/>
       <use xlink:href="#DejaVuSans-30" transform="translate(147.412109 0)"/>
      </g>
     </g>
    </g>
    <g id="ytick_3">
     <g id="line2d_9">
      <g>
       <use xlink:href="#m9039a8bd4b" x="57.6" y="223.516785" style="stroke: #000000; stroke-width: 0.8"/>
      </g>
     </g>
     <g id="text_10">
      <!-- 0 -->
      <g transform="translate(44.2375 227.316003) scale(0.1 -0.1)">
       <use xlink:href="#DejaVuSans-30"/>
      </g>
     </g>
    </g>
    <g id="ytick_4">
     <g id="line2d_10">
      <g>
       <use xlink:href="#m9039a8bd4b" x="57.6" y="184.809587" style="stroke: #000000; stroke-width: 0.8"/>
      </g>
     </g>
     <g id="text_11">
      <!-- 20 -->
      <g transform="translate(37.875 188.608806) scale(0.1 -0.1)">
       <use xlink:href="#DejaVuSans-32"/>
       <use xlink:href="#DejaVuSans-30" transform="translate(63.623047 0)"/>
      </g>
     </g>
    </g>
    <g id="ytick_5">
     <g id="line2d_11">
      <g>
       <use xlink:href="#m9039a8bd4b" x="57.6" y="146.102389" style="stroke: #000000; stroke-width: 0.8"/>
      </g>
     </g>
     <g id="text_12">
      <!-- 40 -->
      <g transform="translate(37.875 149.901608) scale(0.1 -0.1)">
       <use xlink:href="#DejaVuSans-34"/>
       <use xlink:href="#DejaVuSans-30" transform="translate(63.623047 0)"/>
      </g>
     </g>
    </g>
    <g id="ytick_6">
     <g id="line2d_12">
      <g>
       <use xlink:href="#m9039a8bd4b" x="57.6" y="107.395192" style="stroke: #000000; stroke-width: 0.8"/>
      </g>
     </g>
     <g id="text_13">
      <!-- 60 -->
      <g transform="translate(37.875 111.19441) scale(0.1 -0.1)">
       <defs>
        <path id="DejaVuSans-36" d="M 2113 2584 
Q 1688 2584 1439 2293 
Q 1191 2003 1191 1497 
Q 1191 994 1439 701 
Q 1688 409 2113 409 
Q 2538 409 2786 701 
Q 3034 994 3034 1497 
Q 3034 2003 2786 2293 
Q 2538 2584 2113 2584 
z
M 3366 4563 
L 3366 3988 
Q 3128 4100 2886 4159 
Q 2644 4219 2406 4219 
Q 1781 4219 1451 3797 
Q 1122 3375 1075 2522 
Q 1259 2794 1537 2939 
Q 1816 3084 2150 3084 
Q 2853 3084 3261 2657 
Q 3669 2231 3669 1497 
Q 3669 778 3244 343 
Q 2819 -91 2113 -91 
Q 1303 -91 875 529 
Q 447 1150 447 2328 
Q 447 3434 972 4092 
Q 1497 4750 2381 4750 
Q 2619 4750 2861 4703 
Q 3103 4656 3366 4563 
z
" transform="scale(0.015625)"/>
       </defs>
       <use xlink:href="#DejaVuSans-36"/>
       <use xlink:href="#DejaVuSans-30" transform="translate(63.623047 0)"/>
      </g>
     </g>
    </g>
    <g id="ytick_7">
     <g id="line2d_13">
      <g>
       <use xlink:href="#m9039a8bd4b" x="57.6" y="68.687994" style="stroke: #000000; stroke-width: 0.8"/>
      </g>
     </g>
     <g id="text_14">
      <!-- 80 -->
      <g transform="translate(37.875 72.487213) scale(0.1 -0.1)">
       <defs>
        <path id="DejaVuSans-38" d="M 2034 2216 
Q 1584 2216 1326 1975 
Q 1069 1734 1069 1313 
Q 1069 891 1326 650 
Q 1584 409 2034 409 
Q 2484 409 2743 651 
Q 3003 894 3003 1313 
Q 3003 1734 2745 1975 
Q 2488 2216 2034 2216 
z
M 1403 2484 
Q 997 2584 770 2862 
Q 544 3141 544 3541 
Q 544 4100 942 4425 
Q 1341 4750 2034 4750 
Q 2731 4750 3128 4425 
Q 3525 4100 3525 3541 
Q 3525 3141 3298 2862 
Q 3072 2584 2669 2484 
Q 3125 2378 3379 2068 
Q 3634 1759 3634 1313 
Q 3634 634 3220 271 
Q 2806 -91 2034 -91 
Q 1263 -91 848 271 
Q 434 634 434 1313 
Q 434 1759 690 2068 
Q 947 2378 1403 2484 
z
M 1172 3481 
Q 1172 3119 1398 2916 
Q 1625 2713 2034 2713 
Q 2441 2713 2670 2916 
Q 2900 3119 2900 3481 
Q 2900 3844 2670 4047 
Q 2441 4250 2034 4250 
Q 1625 4250 1398 4047 
Q 1172 3844 1172 3481 
z
" transform="scale(0.015625)"/>
       </defs>
       <use xlink:href="#DejaVuSans-38"/>
       <use xlink:href="#DejaVuSans-30" transform="translate(63.623047 0)"/>
      </g>
     </g>
    </g>
   </g>
   <g id="line2d_14">
    <path d="M 73.832727 225.028782 
L 74.157707 225.028782 
L 74.482686 223.516782 
L 74.807666 226.540782 
L 75.132645 225.028782 
L 75.457625 225.028782 
L 75.782604 223.516782 
L 76.107584 225.028782 
L 76.432563 225.028782 
L 76.757543 226.540782 
L 77.082523 225.028782 
L 77.407502 225.028782 
L 77.732482 226.540782 
L 78.057461 225.028782 
L 78.70742 225.028782 
L 79.0324 226.540782 
L 79.682359 226.540782 
L 80.007338 225.028782 
L 81.957215 225.028782 
L 82.282195 226.540782 
L 82.607174 225.028782 
L 82.932154 226.540782 
L 83.257133 225.028782 
L 83.907093 225.028782 
L 84.232072 226.540782 
L 84.557052 223.516782 
L 84.882031 218.980782 
L 85.207011 217.468782 
L 86.181949 202.348782 
L 86.506929 196.300782 
L 86.831908 197.812782 
L 87.156888 200.836782 
L 87.481867 202.348782 
L 88.781785 169.084782 
L 89.756724 182.692782 
L 90.731663 149.428782 
L 91.056642 150.940782 
L 91.706601 164.548782 
L 92.031581 158.500782 
L 92.35656 146.404782 
L 92.68154 138.844782 
L 93.006519 137.332782 
L 93.331499 144.892782 
L 93.656478 144.892782 
L 93.981458 140.356782 
L 94.306437 132.796782 
L 94.631417 131.284782 
L 95.281376 138.844782 
L 95.606355 137.332782 
L 95.931335 126.748782 
L 96.256314 123.724782 
L 96.581294 125.236782 
L 96.906274 132.796782 
L 97.231253 135.820782 
L 98.206192 120.700782 
L 98.531171 126.748782 
L 98.856151 128.260782 
L 99.18113 128.260782 
L 99.50611 123.724782 
L 99.831089 123.724782 
L 100.481048 129.772782 
L 100.806028 128.260782 
L 101.131007 123.724782 
L 101.780966 120.700782 
L 102.430925 132.796782 
L 102.755905 132.796782 
L 103.405864 125.236782 
L 103.730844 128.260782 
L 104.055823 128.260782 
L 104.380803 131.284782 
L 104.705782 129.772782 
L 105.030762 129.772782 
L 105.355741 131.284782 
L 105.680721 131.284782 
L 106.0057 132.796782 
L 106.33068 132.796782 
L 106.655659 131.284782 
L 106.980639 131.284782 
L 107.305618 134.308782 
L 107.630598 134.308782 
L 107.955577 135.820782 
L 108.280557 135.820782 
L 108.605536 132.796782 
L 108.930516 134.308782 
L 109.255495 132.796782 
L 109.580475 134.308782 
L 109.905455 132.796782 
L 110.230434 134.308782 
L 110.555414 137.332782 
L 110.880393 135.820782 
L 111.205373 135.820782 
L 111.530352 132.796782 
L 112.180311 132.796782 
L 112.83027 135.820782 
L 113.805209 131.284782 
L 114.130188 131.284782 
L 114.455168 129.772782 
L 114.780147 132.796782 
L 115.105127 129.772782 
L 116.080066 129.772782 
L 116.405045 131.284782 
L 117.055004 128.260782 
L 117.379984 125.236782 
L 117.704963 126.748782 
L 118.029943 126.748782 
L 118.354922 128.260782 
L 118.679902 128.260782 
L 119.004881 125.236782 
L 119.329861 125.236782 
L 119.65484 122.212782 
L 119.97982 123.724782 
L 120.304799 123.724782 
L 120.629779 122.212782 
L 120.954758 125.236782 
L 121.279738 123.724782 
L 121.604717 125.236782 
L 122.579656 120.700782 
L 123.229615 123.724782 
L 123.554595 123.724782 
L 123.879574 122.212782 
L 124.204554 119.188782 
L 124.529533 123.724782 
L 124.854513 120.700782 
L 125.179492 123.724782 
L 125.504472 122.212782 
L 125.829451 123.724782 
L 126.47941 123.724782 
L 127.129369 126.748782 
L 128.104308 126.748782 
L 128.429287 129.772782 
L 129.079247 132.796782 
L 129.404226 132.796782 
L 129.729206 135.820782 
L 130.054185 134.308782 
L 130.379165 137.332782 
L 130.704144 137.332782 
L 131.029124 140.356782 
L 131.679083 143.380782 
L 132.004062 147.916782 
L 132.329042 146.404782 
L 132.654021 150.940782 
L 132.979001 149.428782 
L 133.62896 156.988782 
L 134.603898 161.524782 
L 134.928878 164.548782 
L 135.253857 166.060782 
L 135.578837 169.084782 
L 135.903817 170.596782 
L 137.203735 182.692782 
L 137.528714 182.692782 
L 137.853694 185.716782 
L 138.178673 187.228782 
L 138.828632 193.276782 
L 139.803571 197.812782 
L 140.12855 202.348782 
L 140.45353 202.348782 
L 140.778509 205.372782 
L 141.753448 209.908782 
L 142.078428 212.932782 
L 142.403407 214.444782 
L 142.728387 214.444782 
L 143.378346 217.468782 
L 143.703325 220.492782 
L 144.028305 222.004782 
L 144.353284 222.004782 
L 144.678264 220.492782 
L 145.328223 223.516782 
L 145.653202 223.516782 
L 145.978182 225.028782 
L 146.303161 225.028782 
L 146.628141 226.540782 
L 147.2781 226.540782 
L 147.603079 228.052782 
L 147.928059 226.540782 
L 148.253038 228.052782 
L 148.902998 228.052782 
L 149.227977 226.540782 
L 149.552957 226.540782 
L 150.202916 223.516782 
L 150.527895 225.028782 
L 151.177854 225.028782 
L 151.502834 223.516782 
L 151.827813 225.028782 
L 152.802752 225.028782 
L 153.127731 223.516782 
L 153.452711 223.516782 
L 153.77769 222.004782 
L 154.10267 225.028782 
L 154.427649 226.540782 
L 154.752629 226.540782 
L 155.077609 225.028782 
L 155.402588 225.028782 
L 155.727568 226.540782 
L 156.052547 225.028782 
L 156.377527 226.540782 
L 156.702506 223.516782 
L 157.027486 223.516782 
L 157.677445 226.540782 
L 158.002424 226.540782 
L 158.327404 225.028782 
L 160.277281 225.028782 
L 160.60226 222.004782 
L 160.92724 225.028782 
L 161.252219 223.516782 
L 161.577199 225.028782 
L 161.902179 225.028782 
L 162.227158 226.540782 
L 162.877117 226.540782 
L 163.202097 225.028782 
L 163.527076 225.028782 
L 163.852056 226.540782 
L 164.177035 225.028782 
L 164.502015 226.540782 
L 164.826994 225.028782 
L 165.801933 225.028782 
L 166.126912 226.540782 
L 166.451892 225.028782 
L 167.101851 225.028782 
L 167.42683 226.540782 
L 170.676626 226.540782 
L 171.001605 225.028782 
L 171.326585 226.540782 
L 171.651564 223.516782 
L 171.976544 226.540782 
L 172.301523 225.028782 
L 172.626503 225.028782 
L 172.951482 226.540782 
L 173.601441 226.540782 
L 173.926421 225.028782 
L 174.2514 226.540782 
L 174.57638 226.540782 
L 174.90136 228.052782 
L 175.226339 226.540782 
L 175.876298 226.540782 
L 176.201278 225.028782 
L 176.526257 228.052782 
L 176.851237 226.540782 
L 177.176216 226.540782 
L 177.501196 225.028782 
L 177.826175 226.540782 
L 178.151155 225.028782 
L 180.101032 225.028782 
L 180.426011 223.516782 
L 181.075971 217.468782 
L 181.72593 208.396782 
L 182.050909 200.836782 
L 182.375889 197.812782 
L 182.700868 196.300782 
L 183.025848 199.324782 
L 183.350827 200.836782 
L 183.675807 194.788782 
L 184.325766 172.108782 
L 184.650745 169.084782 
L 184.975725 173.620782 
L 185.300704 181.180782 
L 185.625684 182.692782 
L 185.950663 173.620782 
L 186.600622 146.404782 
L 186.925602 150.940782 
L 187.250581 158.500782 
L 187.575561 163.036782 
L 187.900541 156.988782 
L 188.5505 138.844782 
L 188.875479 138.844782 
L 189.200459 144.892782 
L 189.525438 144.892782 
L 190.175397 134.308782 
L 190.500377 132.796782 
L 191.150336 141.868782 
L 191.475315 135.820782 
L 191.800295 126.748782 
L 192.125274 123.724782 
L 192.450254 123.724782 
L 192.775233 131.284782 
L 193.100213 135.820782 
L 193.425192 131.284782 
L 193.750172 123.724782 
L 194.075152 122.212782 
L 194.400131 126.748782 
L 194.725111 128.260782 
L 195.05009 126.748782 
L 195.37507 123.724782 
L 195.700049 123.724782 
L 196.350008 132.796782 
L 196.674988 129.772782 
L 196.999967 123.724782 
L 197.324947 122.212782 
L 197.649926 122.212782 
L 198.299885 131.284782 
L 198.624865 131.284782 
L 198.949844 129.772782 
L 199.274824 125.236782 
L 199.599803 128.260782 
L 199.924783 128.260782 
L 200.249762 129.772782 
L 200.899722 129.772782 
L 201.224701 132.796782 
L 201.87466 132.796782 
L 202.19964 131.284782 
L 202.524619 131.284782 
L 202.849599 129.772782 
L 203.174578 132.796782 
L 203.499558 134.308782 
L 203.824537 134.308782 
L 204.149517 135.820782 
L 204.799476 132.796782 
L 205.774414 132.796782 
L 206.099394 135.820782 
L 206.424373 137.332782 
L 206.749353 135.820782 
L 207.074333 135.820782 
L 207.399312 132.796782 
L 208.049271 132.796782 
L 208.69923 135.820782 
L 209.02421 134.308782 
L 209.349189 134.308782 
L 209.674169 131.284782 
L 209.999148 132.796782 
L 210.974087 132.796782 
L 211.299066 131.284782 
L 212.274005 131.284782 
L 212.598984 129.772782 
L 212.923964 129.772782 
L 213.248943 125.236782 
L 213.573923 126.748782 
L 214.223882 126.748782 
L 214.548862 128.260782 
L 214.873841 125.236782 
L 215.198821 125.236782 
L 215.84878 122.212782 
L 216.173759 122.212782 
L 216.498739 125.236782 
L 217.473677 125.236782 
L 217.798657 120.700782 
L 218.123636 123.724782 
L 218.773595 120.700782 
L 219.098575 122.212782 
L 219.748534 122.212782 
L 220.073514 120.700782 
L 220.723473 123.724782 
L 222.023391 123.724782 
L 222.34837 125.236782 
L 222.998329 125.236782 
L 223.323309 126.748782 
L 223.648288 125.236782 
L 223.973268 126.748782 
L 224.298247 129.772782 
L 224.623227 131.284782 
L 224.948206 131.284782 
L 225.273186 134.308782 
L 225.923145 134.308782 
L 226.248124 135.820782 
L 226.898084 141.868782 
L 227.873022 146.404782 
L 228.198002 146.404782 
L 228.522981 149.428782 
L 228.847961 150.940782 
L 229.17294 153.964782 
L 229.822899 156.988782 
L 230.472858 163.036782 
L 231.122817 166.060782 
L 231.447797 169.084782 
L 231.772776 170.596782 
L 232.097756 175.132782 
L 233.072695 179.668782 
L 233.722654 185.716782 
L 234.697592 190.252782 
L 235.672531 199.324782 
L 236.647469 203.860782 
L 236.972449 206.884782 
L 237.947387 211.420782 
L 238.272367 214.444782 
L 238.597346 212.932782 
L 238.922326 215.956782 
L 239.247305 217.468782 
L 239.572285 220.492782 
L 239.897265 220.492782 
L 240.222244 222.004782 
L 240.547224 220.492782 
L 240.872203 220.492782 
L 241.522162 226.540782 
L 241.847142 225.028782 
L 242.172121 226.540782 
L 242.497101 226.540782 
L 242.82208 228.052782 
L 243.472039 228.052782 
L 243.797019 226.540782 
L 244.121998 226.540782 
L 244.446978 225.028782 
L 245.096937 228.052782 
L 246.071876 223.516782 
L 246.396855 225.028782 
L 246.721835 223.516782 
L 247.046814 223.516782 
L 247.371794 222.004782 
L 248.346732 226.540782 
L 248.996691 223.516782 
L 249.321671 223.516782 
L 249.64665 222.004782 
L 250.296609 225.028782 
L 251.271548 225.028782 
L 251.596527 226.540782 
L 251.921507 226.540782 
L 252.246486 225.028782 
L 252.896446 225.028782 
L 253.221425 226.540782 
L 253.871384 226.540782 
L 254.196364 223.516782 
L 254.521343 225.028782 
L 254.846323 223.516782 
L 255.171302 225.028782 
L 255.496282 223.516782 
L 255.821261 226.540782 
L 256.146241 223.516782 
L 256.47122 223.516782 
L 256.7962 225.028782 
L 258.096118 225.028782 
L 258.421097 226.540782 
L 258.746077 225.028782 
L 259.071057 225.028782 
L 259.396036 223.516782 
L 259.721016 225.028782 
L 261.020934 225.028782 
L 261.670893 222.004782 
L 261.995872 225.028782 
L 263.62077 225.028782 
L 263.945749 226.540782 
L 264.270729 226.540782 
L 264.595708 225.028782 
L 264.920688 226.540782 
L 265.245667 225.028782 
L 265.570647 225.028782 
L 265.895627 223.516782 
L 266.220606 226.540782 
L 266.545586 226.540782 
L 266.870565 223.516782 
L 267.195545 225.028782 
L 267.520524 225.028782 
L 267.845504 226.540782 
L 269.470401 226.540782 
L 269.795381 225.028782 
L 270.12036 228.052782 
L 270.44534 226.540782 
L 270.770319 226.540782 
L 271.095299 225.028782 
L 271.420278 226.540782 
L 273.045176 226.540782 
L 273.370156 225.028782 
L 273.695135 225.028782 
L 274.020115 226.540782 
L 274.670074 226.540782 
L 274.995053 225.028782 
L 275.320033 225.028782 
L 275.645012 226.540782 
L 276.294971 223.516782 
L 276.619951 220.492782 
L 276.94493 218.980782 
L 278.244848 196.300782 
L 278.569828 196.300782 
L 278.894808 200.836782 
L 279.219787 200.836782 
L 279.544767 196.300782 
L 280.194726 173.620782 
L 280.519705 170.596782 
L 280.844685 173.620782 
L 281.169664 181.180782 
L 281.494644 181.180782 
L 281.819623 173.620782 
L 282.144603 158.500782 
L 282.469582 149.428782 
L 282.794562 150.940782 
L 283.444521 164.548782 
L 283.7695 158.500782 
L 284.419459 140.356782 
L 284.744439 140.356782 
L 285.069419 144.892782 
L 285.394398 144.892782 
L 285.719378 141.868782 
L 286.044357 132.796782 
L 286.369337 132.796782 
L 287.019296 140.356782 
L 287.344275 135.820782 
L 287.669255 128.260782 
L 287.994234 123.724782 
L 288.319214 123.724782 
L 288.644193 132.796782 
L 288.969173 134.308782 
L 289.294152 131.284782 
L 289.619132 125.236782 
L 289.944111 123.724782 
L 290.59407 126.748782 
L 290.91905 126.748782 
L 291.244029 123.724782 
L 291.569009 123.724782 
L 291.893989 126.748782 
L 292.218968 131.284782 
L 292.543948 129.772782 
L 292.868927 123.724782 
L 293.193907 123.724782 
L 293.518886 122.212782 
L 293.843866 128.260782 
L 294.168845 131.284782 
L 294.493825 132.796782 
L 294.818804 128.260782 
L 295.143784 126.748782 
L 295.468763 126.748782 
L 295.793743 128.260782 
L 296.118722 131.284782 
L 296.443702 129.772782 
L 297.093661 129.772782 
L 297.41864 132.796782 
L 298.0686 132.796782 
L 298.393579 129.772782 
L 298.718559 131.284782 
L 299.043538 134.308782 
L 299.368518 134.308782 
L 299.693497 135.820782 
L 300.343456 135.820782 
L 300.668436 134.308782 
L 300.993415 131.284782 
L 301.318395 134.308782 
L 301.643374 132.796782 
L 301.968354 135.820782 
L 302.943292 135.820782 
L 303.593251 132.796782 
L 304.24321 135.820782 
L 304.89317 135.820782 
L 305.543129 132.796782 
L 306.518067 132.796782 
L 306.843047 131.284782 
L 308.142965 131.284782 
L 308.792924 128.260782 
L 309.117903 125.236782 
L 309.442883 126.748782 
L 309.767862 125.236782 
L 310.417821 128.260782 
L 310.742801 128.260782 
L 311.39276 122.212782 
L 311.71774 123.724782 
L 312.042719 122.212782 
L 312.367699 125.236782 
L 312.692678 125.236782 
L 313.017658 123.724782 
L 313.342637 123.724782 
L 313.667617 120.700782 
L 313.992596 122.212782 
L 314.317576 120.700782 
L 314.967535 120.700782 
L 315.292514 123.724782 
L 315.617494 122.212782 
L 316.267453 122.212782 
L 316.592432 120.700782 
L 316.917412 123.724782 
L 317.242391 122.212782 
L 317.567371 123.724782 
L 317.892351 123.724782 
L 318.54231 126.748782 
L 318.867289 126.748782 
L 319.192269 125.236782 
L 319.517248 125.236782 
L 320.492187 129.772782 
L 320.817166 132.796782 
L 321.142146 132.796782 
L 321.467125 134.308782 
L 321.792105 134.308782 
L 322.117084 137.332782 
L 322.442064 137.332782 
L 323.092023 144.892782 
L 323.417002 144.892782 
L 324.716921 150.940782 
L 325.0419 153.964782 
L 325.36688 155.476782 
L 325.691859 160.012782 
L 326.341818 163.036782 
L 326.666798 166.060782 
L 326.991777 164.548782 
L 327.316757 169.084782 
L 327.641736 170.596782 
L 327.966716 175.132782 
L 328.291695 176.644782 
L 328.616675 179.668782 
L 328.941654 179.668782 
L 329.591613 185.716782 
L 329.916593 187.228782 
L 330.241572 190.252782 
L 330.566552 190.252782 
L 331.541491 199.324782 
L 332.841409 205.372782 
L 333.166388 208.396782 
L 334.141327 212.932782 
L 334.466306 212.932782 
L 334.791286 214.444782 
L 335.116265 217.468782 
L 335.766224 220.492782 
L 336.091204 220.492782 
L 336.416183 222.004782 
L 336.741163 222.004782 
L 337.066143 225.028782 
L 337.391122 225.028782 
L 337.716102 226.540782 
L 338.366061 226.540782 
L 338.69104 228.052782 
L 339.01602 226.540782 
L 339.990958 226.540782 
L 340.315938 228.052782 
L 340.640917 228.052782 
L 341.290876 225.028782 
L 341.615856 226.540782 
L 341.940835 226.540782 
L 342.590794 223.516782 
L 342.915774 225.028782 
L 343.240753 223.516782 
L 343.890713 223.516782 
L 344.215692 226.540782 
L 344.540672 223.516782 
L 344.865651 222.004782 
L 345.190631 223.516782 
L 345.84059 223.516782 
L 346.165569 225.028782 
L 346.490549 223.516782 
L 346.815528 225.028782 
L 347.140508 225.028782 
L 347.465487 226.540782 
L 347.790467 225.028782 
L 348.115446 225.028782 
L 348.440426 223.516782 
L 348.765405 225.028782 
L 349.740344 225.028782 
L 350.065324 223.516782 
L 350.715283 223.516782 
L 351.040262 225.028782 
L 351.365242 223.516782 
L 351.690221 225.028782 
L 352.66516 225.028782 
L 352.990139 223.516782 
L 353.315119 226.540782 
L 353.640098 225.028782 
L 355.264996 225.028782 
L 355.589975 226.540782 
L 355.914955 225.028782 
L 356.239934 225.028782 
L 356.564914 223.516782 
L 356.889894 225.028782 
L 357.214873 223.516782 
L 357.539853 225.028782 
L 357.864832 223.516782 
L 358.189812 223.516782 
L 358.514791 225.028782 
L 360.789648 225.028782 
L 361.114627 223.516782 
L 361.439607 225.028782 
L 363.714464 225.028782 
L 364.039443 223.516782 
L 364.364423 225.028782 
L 364.689402 225.028782 
L 365.014382 226.540782 
L 365.664341 223.516782 
L 366.3143 226.540782 
L 366.639279 225.028782 
L 366.964259 226.540782 
L 367.289238 226.540782 
L 367.614218 225.028782 
L 367.939197 226.540782 
L 368.264177 226.540782 
L 368.589156 223.516782 
L 368.914136 225.028782 
L 369.239115 223.516782 
L 369.564095 226.540782 
L 369.889075 225.028782 
L 370.214054 225.028782 
L 370.539034 226.540782 
L 370.864013 225.028782 
L 371.188993 226.540782 
L 371.513972 225.028782 
L 371.838952 226.540782 
L 372.163931 223.516782 
L 372.488911 222.004782 
L 373.463849 208.396782 
L 373.788829 199.324782 
L 374.113808 196.300782 
L 374.438788 196.300782 
L 374.763767 200.836782 
L 375.088747 200.836782 
L 375.413726 194.788782 
L 376.063686 173.620782 
L 376.388665 170.596782 
L 376.713645 173.620782 
L 377.038624 181.180782 
L 377.363604 182.692782 
L 377.688583 173.620782 
L 378.338542 149.428782 
L 378.663522 149.428782 
L 379.313481 166.060782 
L 379.63846 158.500782 
L 380.288419 138.844782 
L 380.613399 138.844782 
L 380.938378 144.892782 
L 381.263358 146.404782 
L 381.588337 141.868782 
L 381.913317 134.308782 
L 382.238296 132.796782 
L 382.563276 135.820782 
L 382.888256 141.868782 
L 383.213235 137.332782 
L 383.863194 123.724782 
L 384.188174 123.724782 
L 384.513153 132.796782 
L 384.838133 134.308782 
L 385.163112 131.284782 
L 385.488092 125.236782 
L 385.813071 123.724782 
L 386.138051 125.236782 
L 386.46303 128.260782 
L 386.78801 126.748782 
L 387.112989 123.724782 
L 387.762948 126.748782 
L 388.087928 129.772782 
L 388.412907 129.772782 
L 388.737887 126.748782 
L 389.062867 122.212782 
L 389.387846 122.212782 
L 389.712826 129.772782 
L 390.037805 132.796782 
L 390.687764 129.772782 
L 391.012744 126.748782 
L 391.337723 126.748782 
L 391.987682 129.772782 
L 392.637641 129.772782 
L 393.61258 134.308782 
L 393.937559 132.796782 
L 394.262539 132.796782 
L 394.587518 129.772782 
L 394.912498 132.796782 
L 395.562457 135.820782 
L 395.887437 135.820782 
L 396.537396 132.796782 
L 396.862375 134.308782 
L 397.187355 132.796782 
L 397.512334 132.796782 
L 397.837314 135.820782 
L 398.162293 137.332782 
L 398.487273 137.332782 
L 398.487273 137.332782 
" clip-path="url(#pb3d0bd3400)" style="fill: none; stroke: #1f77b4; stroke-width: 1.5; stroke-linecap: square"/>
   </g>
   <g id="line2d_15">
    <path d="M 73.832727 132.796782 
L 74.157707 131.284782 
L 74.482686 132.796782 
L 75.132645 126.748782 
L 75.457625 128.260782 
L 76.432563 128.260782 
L 76.757543 126.748782 
L 77.082523 126.748782 
L 77.407502 123.724782 
L 77.732482 125.236782 
L 78.382441 125.236782 
L 78.70742 122.212782 
L 79.0324 123.724782 
L 79.357379 122.212782 
L 79.682359 122.212782 
L 80.007338 120.700782 
L 80.332318 120.700782 
L 80.657297 122.212782 
L 80.982277 120.700782 
L 81.307256 123.724782 
L 81.957215 120.700782 
L 82.282195 122.212782 
L 82.607174 120.700782 
L 83.582113 125.236782 
L 83.907093 125.236782 
L 84.232072 126.748782 
L 84.557052 125.236782 
L 84.882031 128.260782 
L 85.53199 128.260782 
L 85.85697 129.772782 
L 86.181949 132.796782 
L 86.506929 132.796782 
L 86.831908 134.308782 
L 87.156888 134.308782 
L 87.481867 138.844782 
L 88.456806 143.380782 
L 88.781785 147.916782 
L 89.106765 146.404782 
L 89.431744 150.940782 
L 89.756724 150.940782 
L 90.406683 156.988782 
L 90.731663 158.500782 
L 91.056642 161.524782 
L 91.381622 163.036782 
L 92.35656 172.108782 
L 92.68154 173.620782 
L 93.656478 182.692782 
L 93.981458 187.228782 
L 94.306437 187.228782 
L 94.631417 191.764782 
L 94.956396 191.764782 
L 95.281376 196.300782 
L 95.606355 197.812782 
L 95.931335 197.812782 
L 96.256314 203.860782 
L 96.581294 206.884782 
L 96.906274 208.396782 
L 97.556233 208.396782 
L 98.206192 215.956782 
L 98.856151 218.980782 
L 99.50611 218.980782 
L 99.831089 222.004782 
L 100.156069 223.516782 
L 100.481048 226.540782 
L 100.806028 228.052782 
L 101.131007 226.540782 
L 101.455987 228.052782 
L 101.780966 228.052782 
L 102.430925 231.076782 
L 102.755905 229.564782 
L 103.405864 229.564782 
L 103.730844 228.052782 
L 104.055823 228.052782 
L 104.705782 225.028782 
L 105.030762 225.028782 
L 105.355741 222.004782 
L 105.680721 223.516782 
L 106.0057 222.004782 
L 106.33068 218.980782 
L 106.655659 220.492782 
L 106.980639 220.492782 
L 107.305618 223.516782 
L 107.955577 220.492782 
L 108.605536 223.516782 
L 108.930516 223.516782 
L 109.255495 225.028782 
L 110.230434 225.028782 
L 110.555414 223.516782 
L 111.205373 226.540782 
L 111.530352 225.028782 
L 111.855332 226.540782 
L 112.505291 226.540782 
L 113.15525 223.516782 
L 113.480229 225.028782 
L 113.805209 225.028782 
L 114.130188 226.540782 
L 114.455168 225.028782 
L 115.105127 225.028782 
L 115.430106 226.540782 
L 115.755086 226.540782 
L 116.080066 228.052782 
L 116.405045 225.028782 
L 116.730025 223.516782 
L 117.055004 223.516782 
L 117.379984 222.004782 
L 117.704963 225.028782 
L 118.029943 223.516782 
L 118.354922 223.516782 
L 118.679902 225.028782 
L 119.004881 223.516782 
L 119.329861 223.516782 
L 119.97982 226.540782 
L 120.304799 225.028782 
L 121.279738 225.028782 
L 121.604717 228.052782 
L 121.929697 225.028782 
L 122.579656 225.028782 
L 122.904636 226.540782 
L 123.229615 226.540782 
L 123.554595 223.516782 
L 123.879574 225.028782 
L 124.529533 225.028782 
L 124.854513 226.540782 
L 125.504472 223.516782 
L 125.829451 225.028782 
L 126.154431 225.028782 
L 126.47941 228.052782 
L 126.80439 226.540782 
L 128.429287 226.540782 
L 128.754267 225.028782 
L 129.079247 226.540782 
L 129.729206 223.516782 
L 130.379165 226.540782 
L 130.704144 225.028782 
L 131.029124 226.540782 
L 131.354103 226.540782 
L 131.679083 225.028782 
L 132.329042 225.028782 
L 132.654021 226.540782 
L 132.979001 225.028782 
L 133.30398 226.540782 
L 133.62896 223.516782 
L 133.953939 226.540782 
L 134.603898 226.540782 
L 134.928878 225.028782 
L 135.578837 228.052782 
L 135.903817 228.052782 
L 136.228796 226.540782 
L 136.553776 226.540782 
L 137.203735 223.516782 
L 138.178673 209.908782 
L 138.503653 209.908782 
L 138.828632 206.884782 
L 140.45353 184.204782 
L 140.778509 182.692782 
L 141.103489 179.668782 
L 141.428468 178.156782 
L 141.753448 175.132782 
L 142.728387 158.500782 
L 143.053366 156.988782 
L 143.378346 153.964782 
L 143.703325 152.452782 
L 144.028305 149.428782 
L 144.353284 144.892782 
L 145.003243 141.868782 
L 145.653202 135.820782 
L 146.303161 128.260782 
L 146.95312 131.284782 
L 147.2781 131.284782 
L 148.253038 119.188782 
L 148.578018 120.700782 
L 148.902998 123.724782 
L 149.227977 123.724782 
L 149.877936 120.700782 
L 150.202916 117.676782 
L 150.527895 117.676782 
L 150.852875 119.188782 
L 151.177854 119.188782 
L 151.502834 117.676782 
L 151.827813 119.188782 
L 152.152793 119.188782 
L 152.477772 120.700782 
L 152.802752 119.188782 
L 153.452711 119.188782 
L 154.427649 123.724782 
L 154.752629 123.724782 
L 155.077609 125.236782 
L 155.402588 123.724782 
L 155.727568 123.724782 
L 156.377527 126.748782 
L 156.702506 126.748782 
L 157.677445 131.284782 
L 158.002424 128.260782 
L 158.327404 128.260782 
L 158.652383 129.772782 
L 158.977363 132.796782 
L 159.627322 135.820782 
L 159.952301 134.308782 
L 160.277281 135.820782 
L 160.60226 134.308782 
L 160.92724 135.820782 
L 161.252219 138.844782 
L 161.577199 140.356782 
L 161.902179 137.332782 
L 162.227158 138.844782 
L 162.877117 138.844782 
L 163.202097 137.332782 
L 163.852056 137.332782 
L 164.502015 140.356782 
L 164.826994 138.844782 
L 165.476953 138.844782 
L 166.126912 135.820782 
L 166.451892 138.844782 
L 166.776871 138.844782 
L 167.42683 135.820782 
L 167.75181 135.820782 
L 168.07679 137.332782 
L 168.401769 134.308782 
L 169.376708 134.308782 
L 169.701687 132.796782 
L 170.026667 132.796782 
L 170.351646 131.284782 
L 171.001605 131.284782 
L 171.326585 129.772782 
L 171.976544 129.772782 
L 172.626503 126.748782 
L 172.951482 126.748782 
L 173.276462 125.236782 
L 174.57638 125.236782 
L 174.90136 123.724782 
L 175.226339 123.724782 
L 175.551319 122.212782 
L 175.876298 122.212782 
L 176.526257 119.188782 
L 176.851237 122.212782 
L 177.501196 122.212782 
L 177.826175 120.700782 
L 178.151155 122.212782 
L 178.476134 122.212782 
L 178.801114 123.724782 
L 179.126093 123.724782 
L 179.451073 125.236782 
L 179.776052 125.236782 
L 180.101032 123.724782 
L 181.075971 128.260782 
L 181.40095 131.284782 
L 181.72593 129.772782 
L 182.050909 132.796782 
L 182.375889 134.308782 
L 182.700868 134.308782 
L 183.350827 137.332782 
L 183.675807 140.356782 
L 184.325766 143.380782 
L 184.650745 146.404782 
L 185.300704 149.428782 
L 185.625684 152.452782 
L 185.950663 153.964782 
L 186.600622 160.012782 
L 186.925602 158.500782 
L 187.575561 166.060782 
L 188.5505 175.132782 
L 188.875479 176.644782 
L 189.525438 182.692782 
L 189.850418 184.204782 
L 190.500377 190.252782 
L 190.825356 191.764782 
L 191.800295 200.836782 
L 192.125274 202.348782 
L 192.450254 206.884782 
L 193.100213 206.884782 
L 193.425192 208.396782 
L 194.075152 215.956782 
L 194.400131 217.468782 
L 194.725111 217.468782 
L 195.05009 218.980782 
L 195.37507 218.980782 
L 196.025029 225.028782 
L 196.350008 226.540782 
L 196.674988 229.564782 
L 197.324947 226.540782 
L 197.649926 228.052782 
L 197.974906 231.076782 
L 198.299885 229.564782 
L 198.624865 229.564782 
L 198.949844 228.052782 
L 199.599803 228.052782 
L 200.574742 223.516782 
L 200.899722 223.516782 
L 201.549681 220.492782 
L 201.87466 222.004782 
L 202.524619 218.980782 
L 203.174578 222.004782 
L 203.499558 218.980782 
L 203.824537 220.492782 
L 204.149517 220.492782 
L 204.474496 223.516782 
L 204.799476 223.516782 
L 205.124455 225.028782 
L 205.449435 223.516782 
L 206.099394 223.516782 
L 206.424373 225.028782 
L 206.749353 225.028782 
L 207.074333 226.540782 
L 207.399312 225.028782 
L 207.724292 225.028782 
L 208.049271 226.540782 
L 208.69923 223.516782 
L 209.349189 223.516782 
L 209.674169 225.028782 
L 210.324128 225.028782 
L 210.649107 223.516782 
L 211.299066 223.516782 
L 211.624046 225.028782 
L 211.949025 225.028782 
L 212.274005 226.540782 
L 212.923964 223.516782 
L 213.248943 223.516782 
L 213.573923 225.028782 
L 213.898903 225.028782 
L 214.223882 226.540782 
L 214.548862 226.540782 
L 214.873841 225.028782 
L 215.84878 225.028782 
L 216.498739 228.052782 
L 216.823718 225.028782 
L 217.473677 225.028782 
L 217.798657 226.540782 
L 218.123636 225.028782 
L 218.448616 226.540782 
L 218.773595 226.540782 
L 219.423554 223.516782 
L 219.748534 223.516782 
L 220.073514 225.028782 
L 220.723473 225.028782 
L 221.048452 223.516782 
L 221.373432 223.516782 
L 221.698411 226.540782 
L 222.023391 225.028782 
L 222.67335 228.052782 
L 223.323309 225.028782 
L 223.648288 226.540782 
L 223.973268 225.028782 
L 224.948206 225.028782 
L 225.273186 226.540782 
L 225.598165 225.028782 
L 225.923145 225.028782 
L 226.248124 223.516782 
L 226.898084 226.540782 
L 227.873022 226.540782 
L 228.198002 225.028782 
L 228.847961 225.028782 
L 229.17294 226.540782 
L 229.49792 226.540782 
L 229.822899 228.052782 
L 230.147879 226.540782 
L 230.472858 226.540782 
L 230.797838 225.028782 
L 231.772776 225.028782 
L 232.097756 226.540782 
L 232.747715 223.516782 
L 233.072695 223.516782 
L 233.397674 217.468782 
L 234.047633 211.420782 
L 234.372613 206.884782 
L 235.022572 203.860782 
L 235.347551 197.812782 
L 235.672531 194.788782 
L 236.32249 182.692782 
L 237.297428 178.156782 
L 237.622408 175.132782 
L 238.597346 158.500782 
L 238.922326 155.476782 
L 239.247305 155.476782 
L 239.572285 152.452782 
L 239.897265 147.916782 
L 240.872203 143.380782 
L 241.847142 129.772782 
L 242.172121 128.260782 
L 242.82208 131.284782 
L 243.14706 129.772782 
L 243.472039 126.748782 
L 243.797019 120.700782 
L 244.121998 117.676782 
L 244.771957 123.724782 
L 246.071876 117.676782 
L 246.396855 114.652782 
L 246.721835 117.676782 
L 247.046814 119.188782 
L 247.371794 119.188782 
L 247.696773 120.700782 
L 248.021753 120.700782 
L 248.346732 119.188782 
L 248.996691 119.188782 
L 249.321671 117.676782 
L 249.97163 123.724782 
L 250.621589 123.724782 
L 250.946568 122.212782 
L 251.271548 125.236782 
L 251.596527 123.724782 
L 251.921507 125.236782 
L 252.246486 125.236782 
L 252.896446 128.260782 
L 253.221425 128.260782 
L 253.546405 129.772782 
L 253.871384 129.772782 
L 254.196364 128.260782 
L 254.521343 129.772782 
L 254.846323 132.796782 
L 255.171302 137.332782 
L 256.146241 132.796782 
L 256.7962 135.820782 
L 257.121179 135.820782 
L 257.771138 138.844782 
L 258.096118 138.844782 
L 258.421097 137.332782 
L 258.746077 137.332782 
L 259.071057 140.356782 
L 259.721016 137.332782 
L 260.045995 140.356782 
L 260.695954 140.356782 
L 261.345913 137.332782 
L 262.320852 137.332782 
L 262.645831 138.844782 
L 262.970811 137.332782 
L 263.29579 137.332782 
L 263.945749 134.308782 
L 264.270729 134.308782 
L 264.595708 135.820782 
L 265.245667 132.796782 
L 265.570647 134.308782 
L 265.895627 132.796782 
L 266.220606 132.796782 
L 267.195545 128.260782 
L 267.520524 128.260782 
L 267.845504 129.772782 
L 268.170483 128.260782 
L 268.495463 128.260782 
L 268.820442 125.236782 
L 269.795381 125.236782 
L 270.12036 123.724782 
L 270.770319 123.724782 
L 271.095299 122.212782 
L 271.745258 122.212782 
L 272.070238 123.724782 
L 272.720197 120.700782 
L 273.370156 123.724782 
L 273.695135 122.212782 
L 274.020115 123.724782 
L 274.345094 122.212782 
L 274.995053 125.236782 
L 275.320033 123.724782 
L 275.645012 125.236782 
L 275.969992 125.236782 
L 276.619951 128.260782 
L 276.94493 128.260782 
L 277.26991 131.284782 
L 277.594889 129.772782 
L 277.919869 131.284782 
L 278.244848 134.308782 
L 278.569828 135.820782 
L 278.894808 135.820782 
L 279.219787 138.844782 
L 279.544767 140.356782 
L 280.194726 146.404782 
L 280.519705 146.404782 
L 280.844685 149.428782 
L 281.169664 149.428782 
L 282.469582 161.524782 
L 282.794562 161.524782 
L 283.119541 164.548782 
L 283.444521 166.060782 
L 284.419459 175.132782 
L 284.744439 176.644782 
L 286.044357 188.740782 
L 286.694316 191.764782 
L 287.019296 194.788782 
L 287.344275 196.300782 
L 287.994234 203.860782 
L 288.319214 205.372782 
L 288.644193 208.396782 
L 289.294152 208.396782 
L 289.619132 209.908782 
L 290.269091 218.980782 
L 290.59407 220.492782 
L 290.91905 218.980782 
L 292.218968 225.028782 
L 292.543948 228.052782 
L 292.868927 228.052782 
L 293.193907 229.564782 
L 293.518886 228.052782 
L 293.843866 228.052782 
L 294.168845 229.564782 
L 294.818804 229.564782 
L 295.143784 228.052782 
L 295.468763 229.564782 
L 295.793743 226.540782 
L 296.118722 226.540782 
L 297.093661 222.004782 
L 297.41864 222.004782 
L 298.0686 218.980782 
L 298.393579 220.492782 
L 298.718559 220.492782 
L 299.043538 222.004782 
L 299.368518 220.492782 
L 299.693497 222.004782 
L 300.018477 222.004782 
L 300.993415 226.540782 
L 301.318395 225.028782 
L 302.293333 225.028782 
L 302.618313 226.540782 
L 303.918231 226.540782 
L 304.24321 225.028782 
L 304.56819 225.028782 
L 304.89317 223.516782 
L 305.218149 225.028782 
L 305.543129 225.028782 
L 305.868108 228.052782 
L 306.193088 226.540782 
L 306.518067 223.516782 
L 307.168026 226.540782 
L 307.493006 225.028782 
L 307.817985 226.540782 
L 308.142965 226.540782 
L 308.792924 223.516782 
L 309.117903 223.516782 
L 309.442883 225.028782 
L 309.767862 225.028782 
L 310.092842 226.540782 
L 310.417821 225.028782 
L 310.742801 225.028782 
L 311.067781 226.540782 
L 312.042719 226.540782 
L 312.367699 228.052782 
L 312.692678 226.540782 
L 313.342637 226.540782 
L 313.667617 228.052782 
L 313.992596 225.028782 
L 314.317576 225.028782 
L 314.642555 226.540782 
L 314.967535 225.028782 
L 315.292514 226.540782 
L 315.617494 223.516782 
L 316.267453 226.540782 
L 316.592432 226.540782 
L 316.917412 225.028782 
L 317.567371 225.028782 
L 317.892351 223.516782 
L 318.21733 226.540782 
L 318.54231 226.540782 
L 318.867289 228.052782 
L 319.192269 228.052782 
L 319.517248 225.028782 
L 320.492187 225.028782 
L 320.817166 226.540782 
L 321.142146 225.028782 
L 322.117084 225.028782 
L 322.767043 228.052782 
L 323.092023 226.540782 
L 323.741982 226.540782 
L 324.066962 228.052782 
L 324.716921 225.028782 
L 325.0419 226.540782 
L 325.691859 226.540782 
L 326.016839 225.028782 
L 326.666798 228.052782 
L 326.991777 226.540782 
L 327.641736 226.540782 
L 327.966716 229.564782 
L 328.616675 226.540782 
L 328.941654 223.516782 
L 329.916593 209.908782 
L 330.241572 209.908782 
L 330.566552 206.884782 
L 332.516429 179.668782 
L 332.841409 179.668782 
L 333.166388 178.156782 
L 333.491368 175.132782 
L 333.816347 170.596782 
L 334.141327 163.036782 
L 334.466306 158.500782 
L 335.116265 155.476782 
L 335.766224 149.428782 
L 336.091204 144.892782 
L 336.416183 143.380782 
L 336.741163 140.356782 
L 337.066143 138.844782 
L 337.716102 129.772782 
L 338.041081 128.260782 
L 338.69104 131.284782 
L 339.01602 129.772782 
L 339.665979 123.724782 
L 339.990958 119.188782 
L 340.315938 119.188782 
L 340.965897 125.236782 
L 341.290876 123.724782 
L 341.940835 117.676782 
L 342.265815 119.188782 
L 342.915774 116.164782 
L 343.240753 119.188782 
L 343.565733 120.700782 
L 344.215692 120.700782 
L 344.865651 117.676782 
L 345.190631 117.676782 
L 345.51561 119.188782 
L 346.165569 125.236782 
L 346.490549 123.724782 
L 346.815528 123.724782 
L 347.140508 122.212782 
L 347.790467 125.236782 
L 348.115446 125.236782 
L 348.765405 128.260782 
L 349.090385 128.260782 
L 349.415364 129.772782 
L 349.740344 129.772782 
L 350.065324 131.284782 
L 350.390303 129.772782 
L 350.715283 132.796782 
L 351.040262 134.308782 
L 352.34018 134.308782 
L 352.990139 137.332782 
L 353.640098 137.332782 
L 353.965078 140.356782 
L 354.290057 138.844782 
L 354.615037 138.844782 
L 354.940016 140.356782 
L 355.589975 137.332782 
L 355.914955 138.844782 
L 357.214873 138.844782 
L 357.539853 137.332782 
L 357.864832 138.844782 
L 358.189812 137.332782 
L 358.514791 137.332782 
L 358.839771 138.844782 
L 359.48973 135.820782 
L 360.139689 135.820782 
L 360.464668 137.332782 
L 360.789648 134.308782 
L 361.114627 132.796782 
L 361.439607 134.308782 
L 361.764586 132.796782 
L 362.089566 132.796782 
L 362.739525 129.772782 
L 363.064505 129.772782 
L 363.389484 131.284782 
L 364.689402 125.236782 
L 365.339361 125.236782 
L 365.664341 126.748782 
L 365.98932 123.724782 
L 366.639279 123.724782 
L 366.964259 125.236782 
L 367.289238 122.212782 
L 367.614218 123.724782 
L 367.939197 122.212782 
L 369.239115 122.212782 
L 369.564095 123.724782 
L 369.889075 122.212782 
L 370.214054 123.724782 
L 370.864013 123.724782 
L 371.188993 125.236782 
L 371.513972 123.724782 
L 371.838952 126.748782 
L 372.163931 126.748782 
L 372.81389 129.772782 
L 373.13887 129.772782 
L 373.463849 131.284782 
L 373.788829 131.284782 
L 374.113808 132.796782 
L 374.438788 135.820782 
L 374.763767 137.332782 
L 375.088747 137.332782 
L 376.063686 146.404782 
L 376.388665 146.404782 
L 376.713645 149.428782 
L 377.363604 152.452782 
L 378.013563 158.500782 
L 378.663522 161.524782 
L 378.988501 164.548782 
L 379.313481 166.060782 
L 379.63846 172.108782 
L 380.288419 175.132782 
L 380.613399 178.156782 
L 380.938378 179.668782 
L 381.588337 185.716782 
L 381.913317 190.252782 
L 382.238296 190.252782 
L 382.563276 194.788782 
L 382.888256 194.788782 
L 384.188174 206.884782 
L 384.513153 208.396782 
L 384.838133 208.396782 
L 385.488092 211.420782 
L 386.138051 218.980782 
L 386.46303 220.492782 
L 386.78801 218.980782 
L 387.112989 218.980782 
L 388.087928 228.052782 
L 388.737887 228.052782 
L 389.062867 226.540782 
L 389.387846 228.052782 
L 389.712826 228.052782 
L 390.037805 231.076782 
L 390.687764 231.076782 
L 391.012744 228.052782 
L 391.662703 228.052782 
L 391.987682 225.028782 
L 392.637641 225.028782 
L 392.962621 223.516782 
L 393.2876 223.516782 
L 393.61258 220.492782 
L 393.937559 218.980782 
L 394.262539 220.492782 
L 394.587518 220.492782 
L 394.912498 222.004782 
L 395.562457 222.004782 
L 395.887437 220.492782 
L 396.537396 223.516782 
L 396.862375 226.540782 
L 397.187355 225.028782 
L 397.512334 225.028782 
L 397.837314 223.516782 
L 398.487273 226.540782 
L 398.487273 226.540782 
" clip-path="url(#pb3d0bd3400)" style="fill: none; stroke: #ff7f0e; stroke-width: 1.5; stroke-linecap: square"/>
   </g>
   <g id="line2d_16">
    <path d="M 73.832727 120.096 
L 74.157707 126.144 
L 74.807666 132.192 
L 75.132645 138.24 
L 75.457625 141.264 
L 75.782604 147.312 
L 76.107584 150.336 
L 76.432563 159.408 
L 77.082523 165.456 
L 78.382441 189.648 
L 79.0324 195.696 
L 79.357379 204.768 
L 79.682359 207.792 
L 80.007338 207.792 
L 80.332318 216.864 
L 80.657297 219.888 
L 80.982277 228.96 
L 81.307256 222.912 
L 81.632236 235.008 
L 81.957215 238.032 
L 82.282195 244.08 
L 83.257133 253.152 
L 83.582113 259.2 
L 83.907093 259.2 
L 84.232072 265.248 
L 84.882031 271.296 
L 85.207011 271.296 
L 86.181949 280.368 
L 86.506929 277.344 
L 86.831908 286.416 
L 87.156888 283.392 
L 87.481867 286.416 
L 87.806847 286.416 
L 88.131826 292.464 
L 88.456806 289.44 
L 88.781785 292.464 
L 89.106765 289.44 
L 89.431744 289.44 
L 89.756724 292.464 
L 90.081704 289.44 
L 90.406683 289.44 
L 90.731663 292.464 
L 91.056642 289.44 
L 91.381622 292.464 
L 91.706601 283.392 
L 92.031581 289.44 
L 92.68154 283.392 
L 93.331499 283.392 
L 93.656478 277.344 
L 93.981458 280.368 
L 94.306437 271.296 
L 94.956396 271.296 
L 95.606355 259.2 
L 95.931335 256.176 
L 96.256314 256.176 
L 96.581294 253.152 
L 96.906274 241.056 
L 97.231253 247.104 
L 97.556233 238.032 
L 97.881212 238.032 
L 98.206192 231.984 
L 98.531171 228.96 
L 98.856151 222.912 
L 99.18113 219.888 
L 99.50611 213.84 
L 99.831089 210.816 
L 100.481048 198.72 
L 100.806028 195.696 
L 101.131007 195.696 
L 101.455987 186.624 
L 101.780966 183.6 
L 102.105946 174.528 
L 102.430925 174.528 
L 103.080885 162.432 
L 103.405864 159.408 
L 103.730844 153.36 
L 104.055823 150.336 
L 104.705782 138.24 
L 105.030762 135.216 
L 105.355741 135.216 
L 105.680721 129.168 
L 106.0057 117.072 
L 106.33068 117.072 
L 106.655659 114.048 
L 106.980639 117.072 
L 107.305618 108 
L 107.955577 101.952 
L 108.280557 101.952 
L 108.605536 92.88 
L 108.930516 92.88 
L 109.255495 89.856 
L 109.580475 89.856 
L 109.905455 83.808 
L 110.230434 80.784 
L 110.555414 80.784 
L 110.880393 77.76 
L 111.205373 71.712 
L 111.530352 74.736 
L 112.180311 74.736 
L 112.505291 65.664 
L 112.83027 68.688 
L 113.805209 68.688 
L 114.130188 65.664 
L 114.455168 65.664 
L 114.780147 68.688 
L 115.105127 65.664 
L 115.430106 68.688 
L 115.755086 74.736 
L 116.405045 68.688 
L 116.730025 71.712 
L 117.055004 77.76 
L 117.379984 80.784 
L 117.704963 80.784 
L 118.029943 83.808 
L 118.354922 80.784 
L 119.004881 92.88 
L 119.329861 95.904 
L 119.65484 95.904 
L 120.304799 101.952 
L 120.629779 108 
L 121.604717 117.072 
L 121.929697 123.12 
L 122.254676 126.144 
L 122.579656 135.216 
L 122.904636 132.192 
L 123.229615 141.264 
L 123.554595 144.288 
L 123.879574 150.336 
L 124.204554 153.36 
L 124.529533 162.432 
L 125.504472 171.504 
L 126.154431 183.6 
L 126.80439 189.648 
L 127.129369 195.696 
L 127.779328 210.816 
L 128.104308 207.792 
L 128.754267 219.888 
L 129.079247 222.912 
L 129.404226 231.984 
L 129.729206 231.984 
L 130.054185 235.008 
L 130.379165 241.056 
L 130.704144 238.032 
L 131.029124 244.08 
L 132.004062 253.152 
L 132.329042 259.2 
L 132.654021 259.2 
L 132.979001 268.272 
L 133.30398 262.224 
L 133.62896 268.272 
L 134.603898 277.344 
L 134.928878 274.32 
L 135.578837 280.368 
L 135.903817 280.368 
L 136.228796 283.392 
L 136.553776 289.44 
L 136.878755 283.392 
L 137.203735 280.368 
L 137.528714 286.416 
L 137.853694 286.416 
L 138.178673 289.44 
L 138.503653 280.368 
L 138.828632 286.416 
L 139.153612 283.392 
L 140.12855 283.392 
L 140.45353 280.368 
L 140.778509 280.368 
L 141.103489 274.32 
L 141.753448 274.32 
L 142.078428 271.296 
L 142.403407 265.248 
L 142.728387 265.248 
L 143.053366 262.224 
L 143.378346 265.248 
L 143.703325 253.152 
L 144.028305 253.152 
L 145.003243 244.08 
L 145.328223 238.032 
L 145.653202 235.008 
L 145.978182 235.008 
L 146.303161 225.936 
L 146.95312 219.888 
L 147.2781 213.84 
L 147.603079 204.768 
L 148.253038 198.72 
L 148.578018 198.72 
L 148.902998 186.624 
L 149.227977 186.624 
L 149.552957 180.576 
L 149.877936 177.552 
L 150.202916 171.504 
L 150.527895 171.504 
L 151.177854 159.408 
L 151.827813 144.288 
L 152.152793 144.288 
L 152.477772 138.24 
L 152.802752 129.168 
L 153.127731 129.168 
L 153.452711 123.12 
L 153.77769 123.12 
L 154.10267 114.048 
L 154.427649 111.024 
L 154.752629 104.976 
L 155.077609 104.976 
L 155.402588 95.904 
L 155.727568 95.904 
L 156.377527 89.856 
L 156.702506 83.808 
L 157.027486 80.784 
L 157.352465 83.808 
L 157.677445 77.76 
L 158.002424 68.688 
L 158.327404 71.712 
L 158.652383 68.688 
L 158.977363 71.712 
L 159.302342 65.664 
L 159.627322 65.664 
L 160.277281 59.616 
L 160.60226 62.64 
L 160.92724 62.64 
L 161.252219 59.616 
L 161.577199 59.616 
L 161.902179 53.568 
L 162.227158 59.616 
L 162.552138 62.64 
L 163.202097 56.592 
L 163.527076 62.64 
L 163.852056 62.64 
L 164.177035 68.688 
L 164.502015 65.664 
L 165.476953 74.736 
L 165.801933 74.736 
L 166.451892 80.784 
L 166.776871 86.832 
L 167.101851 86.832 
L 167.42683 89.856 
L 167.75181 95.904 
L 168.401769 101.952 
L 169.051728 114.048 
L 169.376708 117.072 
L 169.701687 117.072 
L 170.026667 123.12 
L 170.351646 126.144 
L 170.676626 135.216 
L 171.001605 138.24 
L 171.326585 144.288 
L 171.976544 150.336 
L 172.301523 150.336 
L 173.276462 174.528 
L 173.601441 174.528 
L 173.926421 183.6 
L 174.2514 186.624 
L 174.57638 192.672 
L 174.90136 192.672 
L 175.551319 207.792 
L 175.876298 210.816 
L 176.201278 216.864 
L 176.526257 219.888 
L 177.176216 231.984 
L 177.501196 231.984 
L 177.826175 235.008 
L 178.476134 247.104 
L 178.801114 247.104 
L 179.776052 265.248 
L 180.101032 259.2 
L 180.426011 268.272 
L 180.750991 268.272 
L 181.075971 274.32 
L 181.40095 277.344 
L 181.72593 274.32 
L 182.375889 286.416 
L 182.700868 283.392 
L 183.025848 283.392 
L 183.350827 289.44 
L 183.675807 286.416 
L 184.000786 286.416 
L 184.325766 289.44 
L 184.650745 289.44 
L 184.975725 292.464 
L 185.300704 283.392 
L 185.625684 292.464 
L 186.275643 292.464 
L 186.600622 289.44 
L 186.925602 289.44 
L 187.250581 286.416 
L 187.575561 289.44 
L 187.900541 283.392 
L 188.22552 286.416 
L 188.5505 283.392 
L 188.875479 277.344 
L 189.525438 277.344 
L 189.850418 274.32 
L 190.175397 274.32 
L 190.500377 268.272 
L 190.825356 268.272 
L 191.150336 265.248 
L 191.475315 265.248 
L 191.800295 259.2 
L 192.125274 256.176 
L 192.450254 250.128 
L 192.775233 250.128 
L 193.425192 238.032 
L 193.750172 238.032 
L 194.075152 228.96 
L 195.37507 216.864 
L 195.700049 204.768 
L 196.025029 204.768 
L 196.350008 201.744 
L 196.674988 195.696 
L 196.999967 195.696 
L 197.974906 177.552 
L 198.299885 168.48 
L 198.624865 168.48 
L 198.949844 165.456 
L 199.274824 159.408 
L 199.599803 150.336 
L 200.574742 141.264 
L 200.899722 132.192 
L 201.224701 135.216 
L 201.549681 126.144 
L 202.849599 114.048 
L 203.174578 114.048 
L 203.499558 101.952 
L 204.149517 95.904 
L 204.474496 89.856 
L 205.124455 89.856 
L 205.774414 83.808 
L 206.099394 77.76 
L 206.749353 77.76 
L 207.074333 74.736 
L 207.399312 74.736 
L 207.724292 71.712 
L 208.049271 71.712 
L 208.69923 65.664 
L 209.02421 68.688 
L 209.674169 68.688 
L 209.999148 62.64 
L 210.324128 68.688 
L 210.649107 68.688 
L 210.974087 71.712 
L 211.299066 68.688 
L 211.624046 74.736 
L 211.949025 71.712 
L 212.274005 71.712 
L 212.598984 74.736 
L 212.923964 74.736 
L 213.248943 80.784 
L 213.898903 80.784 
L 214.223882 83.808 
L 214.548862 89.856 
L 215.198821 89.856 
L 216.173759 108 
L 216.498739 104.976 
L 216.823718 111.024 
L 217.148698 114.048 
L 217.473677 123.12 
L 217.798657 123.12 
L 218.448616 129.168 
L 218.773595 138.24 
L 219.098575 138.24 
L 219.423554 141.264 
L 219.748534 150.336 
L 220.073514 153.36 
L 220.398493 153.36 
L 221.048452 168.48 
L 221.373432 171.504 
L 221.698411 171.504 
L 222.023391 180.576 
L 222.34837 183.6 
L 222.67335 192.672 
L 222.998329 195.696 
L 223.323309 201.744 
L 223.648288 201.744 
L 223.973268 207.792 
L 224.298247 210.816 
L 225.273186 228.96 
L 225.598165 225.936 
L 225.923145 235.008 
L 226.248124 238.032 
L 226.573104 244.08 
L 226.898084 241.056 
L 227.223063 250.128 
L 227.548043 250.128 
L 227.873022 256.176 
L 228.198002 256.176 
L 228.522981 262.224 
L 229.17294 268.272 
L 229.49792 265.248 
L 229.822899 268.272 
L 230.147879 277.344 
L 230.472858 274.32 
L 230.797838 274.32 
L 231.122817 277.344 
L 231.447797 277.344 
L 231.772776 280.368 
L 232.097756 277.344 
L 232.422735 283.392 
L 233.397674 283.392 
L 233.722654 286.416 
L 234.372613 286.416 
L 234.697592 280.368 
L 235.022572 280.368 
L 235.347551 283.392 
L 235.672531 283.392 
L 235.99751 277.344 
L 236.972449 277.344 
L 237.297428 271.296 
L 237.622408 274.32 
L 238.597346 265.248 
L 238.922326 259.2 
L 239.572285 259.2 
L 239.897265 253.152 
L 240.547224 247.104 
L 240.872203 241.056 
L 241.197183 238.032 
L 241.522162 231.984 
L 241.847142 228.96 
L 242.172121 231.984 
L 242.497101 219.888 
L 242.82208 219.888 
L 243.472039 207.792 
L 243.797019 204.768 
L 244.121998 198.72 
L 244.771957 192.672 
L 245.421916 177.552 
L 245.746896 174.528 
L 246.071876 168.48 
L 246.396855 165.456 
L 246.721835 159.408 
L 247.046814 156.384 
L 247.371794 150.336 
L 247.696773 141.264 
L 248.021753 141.264 
L 248.346732 135.216 
L 248.671712 132.192 
L 248.996691 126.144 
L 249.97163 117.072 
L 250.296609 108 
L 250.621589 104.976 
L 250.946568 104.976 
L 251.596527 89.856 
L 251.921507 89.856 
L 252.246486 86.832 
L 252.571466 86.832 
L 252.896446 80.784 
L 253.221425 80.784 
L 253.546405 77.76 
L 253.871384 77.76 
L 254.196364 71.712 
L 254.521343 68.688 
L 255.171302 68.688 
L 255.496282 59.616 
L 255.821261 62.64 
L 256.47122 62.64 
L 256.7962 56.592 
L 257.121179 59.616 
L 257.771138 59.616 
L 258.096118 56.592 
L 259.071057 65.664 
L 259.396036 62.64 
L 259.721016 62.64 
L 260.370975 68.688 
L 261.020934 68.688 
L 261.345913 77.76 
L 261.670893 77.76 
L 261.995872 74.736 
L 262.320852 80.784 
L 262.645831 83.808 
L 262.970811 89.856 
L 263.29579 89.856 
L 263.945749 95.904 
L 264.595708 108 
L 265.245667 114.048 
L 265.570647 123.12 
L 265.895627 120.096 
L 266.545586 135.216 
L 266.870565 135.216 
L 267.195545 138.24 
L 267.845504 153.36 
L 268.170483 159.408 
L 268.495463 156.384 
L 268.820442 168.48 
L 269.145422 171.504 
L 269.470401 180.576 
L 270.12036 186.624 
L 270.770319 198.72 
L 271.095299 201.744 
L 271.420278 207.792 
L 271.745258 210.816 
L 272.070238 216.864 
L 272.395217 219.888 
L 273.045176 231.984 
L 273.370156 235.008 
L 273.695135 235.008 
L 274.020115 244.08 
L 274.345094 247.104 
L 274.670074 253.152 
L 274.995053 256.176 
L 275.320033 256.176 
L 275.969992 268.272 
L 276.294971 265.248 
L 276.619951 268.272 
L 276.94493 274.32 
L 277.26991 274.32 
L 277.594889 271.296 
L 277.919869 277.344 
L 278.569828 283.392 
L 278.894808 280.368 
L 279.219787 286.416 
L 279.544767 286.416 
L 279.869746 289.44 
L 280.519705 289.44 
L 280.844685 292.464 
L 281.169664 292.464 
L 281.494644 286.416 
L 281.819623 289.44 
L 282.469582 289.44 
L 282.794562 283.392 
L 283.444521 289.44 
L 283.7695 289.44 
L 284.09448 280.368 
L 285.069419 280.368 
L 285.719378 274.32 
L 286.044357 274.32 
L 286.369337 271.296 
L 286.694316 265.248 
L 287.019296 265.248 
L 287.344275 262.224 
L 287.669255 256.176 
L 287.994234 253.152 
L 288.319214 247.104 
L 288.644193 250.128 
L 288.969173 247.104 
L 289.294152 238.032 
L 289.944111 231.984 
L 290.269091 225.936 
L 291.569009 213.84 
L 292.218968 198.72 
L 292.868927 192.672 
L 293.193907 186.624 
L 293.518886 183.6 
L 293.843866 174.528 
L 294.168845 171.504 
L 294.493825 162.432 
L 294.818804 165.456 
L 295.143784 156.384 
L 295.468763 153.36 
L 295.793743 147.312 
L 296.118722 144.288 
L 296.443702 138.24 
L 296.768681 138.24 
L 297.093661 129.168 
L 297.41864 129.168 
L 297.74362 126.144 
L 298.393579 111.024 
L 298.718559 111.024 
L 299.043538 108 
L 299.368518 108 
L 299.693497 95.904 
L 300.343456 95.904 
L 300.668436 92.88 
L 300.993415 86.832 
L 301.318395 86.832 
L 301.643374 80.784 
L 301.968354 83.808 
L 302.293333 74.736 
L 302.618313 74.736 
L 302.943292 77.76 
L 303.268272 74.736 
L 303.593251 68.688 
L 304.24321 68.688 
L 304.56819 71.712 
L 304.89317 65.664 
L 305.218149 68.688 
L 305.543129 68.688 
L 305.868108 71.712 
L 306.518067 65.664 
L 306.843047 68.688 
L 307.168026 74.736 
L 307.493006 68.688 
L 308.142965 74.736 
L 308.792924 74.736 
L 309.117903 80.784 
L 309.442883 83.808 
L 309.767862 89.856 
L 310.092842 83.808 
L 310.417821 89.856 
L 310.742801 89.856 
L 311.067781 92.88 
L 311.39276 98.928 
L 312.042719 104.976 
L 312.367699 111.024 
L 312.692678 108 
L 313.017658 117.072 
L 314.317576 129.168 
L 314.642555 138.24 
L 314.967535 141.264 
L 315.292514 141.264 
L 315.617494 153.36 
L 315.942473 153.36 
L 316.592432 165.456 
L 317.242391 171.504 
L 317.567371 180.576 
L 317.892351 180.576 
L 318.21733 183.6 
L 318.54231 192.672 
L 319.192269 198.72 
L 319.517248 204.768 
L 319.842228 207.792 
L 320.167207 213.84 
L 320.492187 210.816 
L 320.817166 219.888 
L 321.142146 222.912 
L 321.792105 235.008 
L 322.117084 235.008 
L 322.442064 238.032 
L 322.767043 244.08 
L 323.417002 250.128 
L 323.741982 259.2 
L 324.066962 256.176 
L 325.0419 265.248 
L 325.36688 271.296 
L 325.691859 265.248 
L 326.016839 274.32 
L 326.341818 274.32 
L 326.666798 277.344 
L 326.991777 277.344 
L 327.316757 283.392 
L 327.966716 283.392 
L 328.291695 280.368 
L 328.941654 286.416 
L 329.266634 283.392 
L 329.916593 283.392 
L 330.241572 286.416 
L 330.566552 283.392 
L 330.891532 277.344 
L 331.216511 280.368 
L 332.19145 280.368 
L 332.841409 274.32 
L 333.166388 277.344 
L 333.491368 268.272 
L 334.141327 268.272 
L 334.466306 265.248 
L 334.791286 259.2 
L 335.116265 259.2 
L 335.441245 256.176 
L 335.766224 256.176 
L 336.091204 247.104 
L 336.416183 247.104 
L 336.741163 241.056 
L 337.066143 241.056 
L 337.716102 228.96 
L 338.041081 228.96 
L 338.69104 216.864 
L 339.01602 213.84 
L 339.340999 207.792 
L 339.665979 204.768 
L 339.990958 198.72 
L 340.315938 198.72 
L 340.965897 186.624 
L 341.290876 174.528 
L 341.615856 174.528 
L 341.940835 171.504 
L 342.265815 165.456 
L 342.915774 159.408 
L 343.240753 150.336 
L 343.565733 147.312 
L 343.890713 138.24 
L 344.215692 138.24 
L 344.540672 135.216 
L 345.190631 120.096 
L 345.51561 120.096 
L 345.84059 114.048 
L 346.165569 114.048 
L 346.490549 104.976 
L 346.815528 101.952 
L 347.140508 95.904 
L 347.465487 95.904 
L 350.390303 68.688 
L 350.715283 68.688 
L 351.040262 65.664 
L 351.365242 68.688 
L 351.690221 62.64 
L 352.015201 62.64 
L 352.34018 59.616 
L 353.965078 59.616 
L 354.290057 56.592 
L 354.940016 62.64 
L 355.589975 62.64 
L 355.914955 65.664 
L 356.239934 65.664 
L 356.564914 71.712 
L 356.889894 68.688 
L 357.214873 74.736 
L 358.189812 83.808 
L 358.514791 83.808 
L 359.16475 95.904 
L 359.48973 92.88 
L 359.814709 95.904 
L 360.139689 104.976 
L 360.789648 111.024 
L 361.114627 120.096 
L 361.439607 120.096 
L 361.764586 126.144 
L 362.089566 126.144 
L 362.414545 135.216 
L 362.739525 138.24 
L 363.064505 144.288 
L 363.389484 147.312 
L 364.364423 165.456 
L 364.689402 165.456 
L 365.014382 174.528 
L 365.339361 177.552 
L 365.664341 183.6 
L 365.98932 183.6 
L 366.3143 195.696 
L 366.639279 198.72 
L 366.964259 204.768 
L 367.289238 207.792 
L 367.614218 213.84 
L 367.939197 216.864 
L 368.589156 228.96 
L 368.914136 231.984 
L 369.239115 238.032 
L 369.564095 241.056 
L 369.889075 241.056 
L 370.539034 253.152 
L 370.864013 253.152 
L 371.188993 256.176 
L 371.513972 265.248 
L 371.838952 262.224 
L 372.163931 271.296 
L 372.488911 265.248 
L 372.81389 274.32 
L 373.13887 274.32 
L 373.463849 280.368 
L 373.788829 277.344 
L 374.438788 283.392 
L 374.763767 289.44 
L 375.088747 283.392 
L 375.738706 289.44 
L 376.388665 289.44 
L 376.713645 292.464 
L 377.038624 292.464 
L 377.363604 295.488 
L 377.688583 286.416 
L 378.013563 292.464 
L 378.338542 289.44 
L 379.313481 289.44 
L 379.63846 286.416 
L 379.96344 286.416 
L 380.288419 280.368 
L 381.263358 280.368 
L 382.238296 271.296 
L 382.563276 271.296 
L 382.888256 262.224 
L 383.213235 262.224 
L 385.163112 244.08 
L 385.488092 235.008 
L 386.46303 225.936 
L 386.78801 219.888 
L 387.112989 219.888 
L 387.437969 210.816 
L 387.762948 207.792 
L 388.087928 198.72 
L 388.412907 201.744 
L 388.737887 192.672 
L 389.062867 189.648 
L 389.387846 180.576 
L 390.037805 174.528 
L 390.362785 174.528 
L 390.687764 159.408 
L 391.012744 159.408 
L 391.337723 156.384 
L 391.987682 141.264 
L 392.312662 144.288 
L 393.2876 126.144 
L 393.61258 126.144 
L 393.937559 120.096 
L 395.562457 104.976 
L 395.887437 95.904 
L 396.212416 92.88 
L 396.537396 92.88 
L 397.187355 86.832 
L 397.512334 86.832 
L 397.837314 83.808 
L 398.162293 83.808 
L 398.487273 74.736 
L 398.487273 74.736 
" clip-path="url(#pb3d0bd3400)" style="fill: none; stroke: #2ca02c; stroke-width: 1.5; stroke-linecap: square"/>
   </g>
   <g id="patch_3">
    <path d="M 57.6 307.584 
L 57.6 41.472 
" style="fill: none; stroke: #000000; stroke-width: 0.8; stroke-linejoin: miter; stroke-linecap: square"/>
   </g>
   <g id="patch_4">
    <path d="M 414.72 307.584 
L 414.72 41.472 
" style="fill: none; stroke: #000000; stroke-width: 0.8; stroke-linejoin: miter; stroke-linecap: square"/>
   </g>
   <g id="patch_5">
    <path d="M 57.6 307.584 
L 414.72 307.584 
" style="fill: none; stroke: #000000; stroke-width: 0.8; stroke-linejoin: miter; stroke-linecap: square"/>
   </g>
   <g id="patch_6">
    <path d="M 57.6 41.472 
L 414.72 41.472 
" style="fill: none; stroke: #000000; stroke-width: 0.8; stroke-linejoin: miter; stroke-linecap: square"/>
   </g>
  </g>
 </g>
 <defs>
  <clipPath id="pb3d0bd3400">
   <rect x="57.6" y="41.472" width="357.12" height="266.112"/>
  </clipPath>
 </defs>
</svg>
