<?xml version="1.0" encoding="utf-8" standalone="no"?>
<!DOCTYPE svg PUBLIC "-//W3C//DTD SVG 1.1//EN"
  "http://www.w3.org/Graphics/SVG/1.1/DTD/svg11.dtd">
<svg xmlns:xlink="http://www.w3.org/1999/xlink" width="460.8pt" height="345.6pt" viewBox="0 0 460.8 345.6" xmlns="http://www.w3.org/2000/svg" version="1.1">
 <metadata>
  <rdf:RDF xmlns:dc="http://purl.org/dc/elements/1.1/" xmlns:cc="http://creativecommons.org/ns#" xmlns:rdf="http://www.w3.org/1999/02/22-rdf-syntax-ns#">
   <cc:Work>
    <dc:type rdf:resource="http://purl.org/dc/dcmitype/StillImage"/>
    <dc:date>2025-12-28T06:58:04.772434</dc:date>
    <dc:format>image/svg+xml</dc:format>
    <dc:creator>
     <cc:Agent>
      <dc:title>Matplotlib v3.10.8, https://matplotlib.org/</dc:title>
     </cc:Agent>
    </dc:creator>
   </cc:Work>
  </rdf:RDF>
 </metadata>
 <defs>
  <style type="text/css">*{stroke-linejoin: round; stroke-linecap: butt}</style>
 </defs>
 <g id="figure_1">
  <g id="patch_1">
   <path d="M 0 345.6 
L 460.8 345.6 
L 460.8 0 
L 0 0 
z
" style="fill: #ffffff"/>
  </g>
  <g id="axes_1">
   <g id="patch_2">
    <path d="M 57.6 307.584 
L 414.72 307.584 
L 414.72 41.472 
L 57.6 41.472 
z
" style="fill: #ffffff"/>
   </g>
   <g id="matplotlib.axis_1">
    <g id="xtick_1">
     <g id="line2d_1">
      <defs>
       <path id="mf1c39ca641" d="M 0 0 
L 0 3.5 
" style="stroke: #000000; stroke-width: 0.8"/>
      </defs>
      <g>
       <use xlink:href="#mf1c39ca641" x="73.832727" y="307.584" style="stroke: #000000; stroke-width: 0.8"/>
      </g>
     </g>
     <g id="text_1">
      <!-- 0 -->
      <g transform="translate(70.651477 322.182437) scale(0.1 -0.1)">
       <defs>
        <path id="DejaVuSans-30" d="M 2034 4250 
Q 1547 4250 1301 3770 
Q 1056 3291 1056 2328 
Q 1056 1369 1301 889 
Q 1547 409 2034 409 
Q 2525 409 2770 889 
Q 3016 1369 3016 2328 
Q 3016 3291 2770 3770 
Q 2525 4250 2034 4250 
z
M 2034 4750 
Q 2819 4750 3233 4129 
Q 3647 3509 3647 2328 
Q 3647 1150 3233 529 
Q 2819 -91 2034 -91 
Q 1250 -91 836 529 
Q 422 1150 422 2328 
Q 422 3509 836 4129 
Q 1250 4750 2034 4750 
z
" transform="scale(0.015625)"/>
       </defs>
       <use xlink:href="#DejaVuSans-30"/>
      </g>
     </g>
    </g>
    <g id="xtick_2">
     <g id="line2d_2">
      <g>
       <use xlink:href="#mf1c39ca641" x="138.828632" y="307.584" style="stroke: #000000; stroke-width: 0.8"/>
      </g>
     </g>
     <g id="text_2">
      <!-- 1 -->
      <g transform="translate(135.647382 322.182437) scale(0.1 -0.1)">
       <defs>
        <path id="DejaVuSans-31" d="M 794 531 
L 1825 531 
L 1825 4091 
L 703 3866 
L 703 4441 
L 1819 4666 
L 2450 4666 
L 2450 531 
L 3481 531 
L 3481 0 
L 794 0 
L 794 531 
z
" transform="scale(0.015625)"/>
       </defs>
       <use xlink:href="#DejaVuSans-31"/>
      </g>
     </g>
    </g>
    <g id="xtick_3">
     <g id="line2d_3">
      <g>
       <use xlink:href="#mf1c39ca641" x="203.824537" y="307.584" style="stroke: #000000; stroke-width: 0.8"/>
      </g>
     </g>
     <g id="text_3">
      <!-- 2 -->
      <g transform="translate(200.643287 322.182437) scale(0.1 -0.1)">
       <defs>
        <path id="DejaVuSans-32" d="M 1228 531 
L 3431 531 
L 3431 0 
L 469 0 
L 469 531 
Q 828 903 1448 1529 
Q 2069 2156 2228 2338 
Q 2531 2678 2651 2914 
Q 2772 3150 2772 3378 
Q 2772 3750 2511 3984 
Q 2250 4219 1831 4219 
Q 1534 4219 1204 4116 
Q 875 4013 500 3803 
L 500 4441 
Q 881 4594 1212 4672 
Q 1544 4750 1819 4750 
Q 2544 4750 2975 4387 
Q 3406 4025 3406 3419 
Q 3406 3131 3298 2873 
Q 3191 2616 2906 2266 
Q 2828 2175 2409 1742 
Q 1991 1309 1228 531 
z
" transform="scale(0.015625)"/>
       </defs>
       <use xlink:href="#DejaVuSans-32"/>
      </g>
     </g>
    </g>
    <g id="xtick_4">
     <g id="line2d_4">
      <g>
       <use xlink:href="#mf1c39ca641" x="268.820442" y="307.584" style="stroke: #000000; stroke-width: 0.8"/>
      </g>
     </g>
     <g id="text_4">
      <!-- 3 -->
      <g transform="translate(265.639192 322.182437) scale(0.1 -0.1)">
       <defs>
        <path id="DejaVuSans-33" d="M 2597 2516 
Q 3050 2419 3304 2112 
Q 3559 1806 3559 1356 
Q 3559 666 3084 287 
Q 2609 -91 1734 -91 
Q 1441 -91 1130 -33 
Q 819 25 488 141 
L 488 750 
Q 750 597 1062 519 
Q 1375 441 1716 441 
Q 2309 441 2620 675 
Q 2931 909 2931 1356 
Q 2931 1769 2642 2001 
Q 2353 2234 1838 2234 
L 1294 2234 
L 1294 2753 
L 1863 2753 
Q 2328 2753 2575 2939 
Q 2822 3125 2822 3475 
Q 2822 3834 2567 4026 
Q 2313 4219 1838 4219 
Q 1578 4219 1281 4162 
Q 984 4106 628 3988 
L 628 4550 
Q 988 4650 1302 4700 
Q 1616 4750 1894 4750 
Q 2613 4750 3031 4423 
Q 3450 4097 3450 3541 
Q 3450 3153 3228 2886 
Q 3006 2619 2597 2516 
z
" transform="scale(0.015625)"/>
       </defs>
       <use xlink:href="#DejaVuSans-33"/>
      </g>
     </g>
    </g>
    <g id="xtick_5">
     <g id="line2d_5">
      <g>
       <use xlink:href="#mf1c39ca641" x="333.816347" y="307.584" style="stroke: #000000; stroke-width: 0.8"/>
      </g>
     </g>
     <g id="text_5">
      <!-- 4 -->
      <g transform="translate(330.635097 322.182437) scale(0.1 -0.1)">
       <defs>
        <path id="DejaVuSans-34" d="M 2419 4116 
L 825 1625 
L 2419 1625 
L 2419 4116 
z
M 2253 4666 
L 3047 4666 
L 3047 1625 
L 3713 1625 
L 3713 1100 
L 3047 1100 
L 3047 0 
L 2419 0 
L 2419 1100 
L 313 1100 
L 313 1709 
L 2253 4666 
z
" transform="scale(0.015625)"/>
       </defs>
       <use xlink:href="#DejaVuSans-34"/>
      </g>
     </g>
    </g>
    <g id="xtick_6">
     <g id="line2d_6">
      <g>
       <use xlink:href="#mf1c39ca641" x="398.812252" y="307.584" style="stroke: #000000; stroke-width: 0.8"/>
      </g>
     </g>
     <g id="text_6">
      <!-- 5 -->
      <g transform="translate(395.631002 322.182437) scale(0.1 -0.1)">
       <defs>
        <path id="DejaVuSans-35" d="M 691 4666 
L 3169 4666 
L 3169 4134 
L 1269 4134 
L 1269 2991 
Q 1406 3038 1543 3061 
Q 1681 3084 1819 3084 
Q 2600 3084 3056 2656 
Q 3513 2228 3513 1497 
Q 3513 744 3044 326 
Q 2575 -91 1722 -91 
Q 1428 -91 1123 -41 
Q 819 9 494 109 
L 494 744 
Q 775 591 1075 516 
Q 1375 441 1709 441 
Q 2250 441 2565 725 
Q 2881 1009 2881 1497 
Q 2881 1984 2565 2268 
Q 2250 2553 1709 2553 
Q 1456 2553 1204 2497 
Q 953 2441 691 2322 
L 691 4666 
z
" transform="scale(0.015625)"/>
       </defs>
       <use xlink:href="#DejaVuSans-35"/>
      </g>
     </g>
    </g>
    <g id="text_7">
     <!-- 1e−7 -->
     <g transform="translate(387.462188 334.860562) scale(0.1 -0.1)">
      <defs>
       <path id="DejaVuSans-65" d="M 3597 1894 
L 3597 1613 
L 953 1613 
Q 991 1019 1311 708 
Q 1631 397 2203 397 
Q 2534 397 2845 478 
Q 3156 559 3463 722 
L 3463 178 
Q 3153 47 2828 -22 
Q 2503 -91 2169 -91 
Q 1331 -91 842 396 
Q 353 884 353 1716 
Q 353 2575 817 3079 
Q 1281 3584 2069 3584 
Q 2775 3584 3186 3129 
Q 3597 2675 3597 1894 
z
M 3022 2063 
Q 3016 2534 2758 2815 
Q 2500 3097 2075 3097 
Q 1594 3097 1305 2825 
Q 1016 2553 972 2059 
L 3022 2063 
z
" transform="scale(0.015625)"/>
       <path id="DejaVuSans-2212" d="M 678 2272 
L 4684 2272 
L 4684 1741 
L 678 1741 
L 678 2272 
z
" transform="scale(0.015625)"/>
       <path id="DejaVuSans-37" d="M 525 4666 
L 3525 4666 
L 3525 4397 
L 1831 0 
L 1172 0 
L 2766 4134 
L 525 4134 
L 525 4666 
z
" transform="scale(0.015625)"/>
      </defs>
      <use xlink:href="#DejaVuSans-31"/>
      <use xlink:href="#DejaVuSans-65" transform="translate(63.623047 0)"/>
      <use xlink:href="#DejaVuSans-2212" transform="translate(125.146484 0)"/>
      <use xlink:href="#DejaVuSans-37" transform="translate(208.935547 0)"/>
     </g>
    </g>
   </g>
   <g id="matplotlib.axis_2">
    <g id="ytick_1">
     <g id="line2d_7">
      <defs>
       <path id="m60cce0ae25" d="M 0 0 
L -3.5 0 
" style="stroke: #000000; stroke-width: 0.8"/>
      </defs>
      <g>
       <use xlink:href="#m60cce0ae25" x="57.6" y="264.147665" style="stroke: #000000; stroke-width: 0.8"/>
      </g>
     </g>
     <g id="text_8">
      <!-- −200 -->
      <g transform="translate(23.132812 267.946883) scale(0.1 -0.1)">
       <use xlink:href="#DejaVuSans-2212"/>
       <use xlink:href="#DejaVuSans-32" transform="translate(83.789062 0)"/>
       <use xlink:href="#DejaVuSans-30" transform="translate(147.412109 0)"/>
       <use xlink:href="#DejaVuSans-30" transform="translate(211.035156 0)"/>
      </g>
     </g>
    </g>
    <g id="ytick_2">
     <g id="line2d_8">
      <g>
       <use xlink:href="#m60cce0ae25" x="57.6" y="214.202894" style="stroke: #000000; stroke-width: 0.8"/>
      </g>
     </g>
     <g id="text_9">
      <!-- −100 -->
      <g transform="translate(23.132812 218.002112) scale(0.1 -0.1)">
       <use xlink:href="#DejaVuSans-2212"/>
       <use xlink:href="#DejaVuSans-31" transform="translate(83.789062 0)"/>
       <use xlink:href="#DejaVuSans-30" transform="translate(147.412109 0)"/>
       <use xlink:href="#DejaVuSans-30" transform="translate(211.035156 0)"/>
      </g>
     </g>
    </g>
    <g id="ytick_3">
     <g id="line2d_9">
      <g>
       <use xlink:href="#m60cce0ae25" x="57.6" y="164.258122" style="stroke: #000000; stroke-width: 0.8"/>
      </g>
     </g>
     <g id="text_10">
      <!-- 0 -->
      <g transform="translate(44.2375 168.057341) scale(0.1 -0.1)">
       <use xlink:href="#DejaVuSans-30"/>
      </g>
     </g>
    </g>
    <g id="ytick_4">
     <g id="line2d_10">
      <g>
       <use xlink:href="#m60cce0ae25" x="57.6" y="114.313351" style="stroke: #000000; stroke-width: 0.8"/>
      </g>
     </g>
     <g id="text_11">
      <!-- 100 -->
      <g transform="translate(31.5125 118.11257) scale(0.1 -0.1)">
       <use xlink:href="#DejaVuSans-31"/>
       <use xlink:href="#DejaVuSans-30" transform="translate(63.623047 0)"/>
       <use xlink:href="#DejaVuSans-30" transform="translate(127.246094 0)"/>
      </g>
     </g>
    </g>
    <g id="ytick_5">
     <g id="line2d_11">
      <g>
       <use xlink:href="#m60cce0ae25" x="57.6" y="64.36858" style="stroke: #000000; stroke-width: 0.8"/>
      </g>
     </g>
     <g id="text_12">
      <!-- 200 -->
      <g transform="translate(31.5125 68.167799) scale(0.1 -0.1)">
       <use xlink:href="#DejaVuSans-32"/>
       <use xlink:href="#DejaVuSans-30" transform="translate(63.623047 0)"/>
       <use xlink:href="#DejaVuSans-30" transform="translate(127.246094 0)"/>
      </g>
     </g>
    </g>
   </g>
   <g id="line2d_12">
    <path d="M 73.832727 222.131583 
L 74.157707 214.327712 
L 74.482686 214.327712 
L 74.807666 222.131583 
L 75.132645 214.327712 
L 75.457625 198.71997 
L 75.782604 206.523841 
L 76.107584 198.71997 
L 76.432563 198.71997 
L 76.757543 190.916099 
L 77.407502 190.916099 
L 77.732482 198.71997 
L 78.057461 198.71997 
L 78.382441 190.916099 
L 78.70742 175.308358 
L 79.0324 183.112229 
L 79.357379 175.308358 
L 79.682359 183.112229 
L 80.332318 183.112229 
L 80.657297 167.504487 
L 80.982277 175.308358 
L 81.632236 175.308358 
L 81.957215 167.504487 
L 83.257133 167.504487 
L 83.907093 151.896745 
L 84.232072 159.700616 
L 84.557052 151.896745 
L 84.882031 151.896745 
L 85.207011 159.700616 
L 85.53199 159.700616 
L 86.181949 144.092874 
L 86.506929 151.896745 
L 86.831908 144.092874 
L 88.131826 144.092874 
L 88.456806 136.289003 
L 88.781785 136.289003 
L 89.106765 128.485132 
L 89.431744 144.092874 
L 89.756724 128.485132 
L 90.081704 136.289003 
L 90.406683 128.485132 
L 90.731663 136.289003 
L 91.381622 120.681261 
L 91.706601 128.485132 
L 93.331499 128.485132 
L 93.656478 120.681261 
L 93.981458 120.681261 
L 94.306437 112.87739 
L 94.631417 120.681261 
L 94.956396 112.87739 
L 95.281376 112.87739 
L 95.606355 128.485132 
L 95.931335 128.485132 
L 96.256314 112.87739 
L 97.881212 112.87739 
L 98.206192 105.073519 
L 98.531171 120.681261 
L 98.856151 105.073519 
L 99.18113 105.073519 
L 99.50611 97.269648 
L 99.831089 105.073519 
L 101.780966 105.073519 
L 102.105946 97.269648 
L 102.430925 97.269648 
L 102.755905 89.465777 
L 103.080885 97.269648 
L 104.055823 97.269648 
L 104.705782 81.661906 
L 105.030762 89.465777 
L 105.355741 81.661906 
L 106.0057 81.661906 
L 106.33068 97.269648 
L 106.655659 73.858035 
L 106.980639 81.661906 
L 107.305618 81.661906 
L 107.630598 73.858035 
L 107.955577 73.858035 
L 108.280557 81.661906 
L 108.605536 73.858035 
L 108.930516 81.661906 
L 109.255495 73.858035 
L 109.580475 81.661906 
L 109.905455 73.858035 
L 110.230434 89.465777 
L 110.555414 73.858035 
L 110.880393 73.858035 
L 111.530352 89.465777 
L 111.855332 73.858035 
L 112.180311 81.661906 
L 112.83027 81.661906 
L 113.15525 73.858035 
L 113.480229 81.661906 
L 113.805209 81.661906 
L 114.130188 89.465777 
L 114.455168 81.661906 
L 114.780147 81.661906 
L 115.105127 73.858035 
L 115.430106 97.269648 
L 115.755086 81.661906 
L 116.080066 81.661906 
L 116.730025 97.269648 
L 117.055004 89.465777 
L 117.379984 97.269648 
L 117.704963 89.465777 
L 118.029943 105.073519 
L 118.354922 97.269648 
L 118.679902 97.269648 
L 119.004881 105.073519 
L 119.329861 105.073519 
L 119.65484 112.87739 
L 119.97982 105.073519 
L 120.304799 105.073519 
L 120.629779 112.87739 
L 121.279738 112.87739 
L 121.604717 120.681261 
L 121.929697 120.681261 
L 122.254676 112.87739 
L 122.904636 128.485132 
L 123.554595 128.485132 
L 123.879574 120.681261 
L 124.204554 128.485132 
L 124.529533 144.092874 
L 124.854513 136.289003 
L 125.179492 136.289003 
L 125.504472 128.485132 
L 125.829451 144.092874 
L 126.80439 144.092874 
L 127.129369 151.896745 
L 127.454349 151.896745 
L 127.779328 159.700616 
L 128.429287 159.700616 
L 128.754267 151.896745 
L 129.079247 151.896745 
L 129.729206 167.504487 
L 130.379165 167.504487 
L 130.704144 159.700616 
L 131.029124 175.308358 
L 131.354103 167.504487 
L 131.679083 175.308358 
L 132.004062 175.308358 
L 132.329042 183.112229 
L 132.654021 175.308358 
L 132.979001 175.308358 
L 133.30398 183.112229 
L 133.62896 183.112229 
L 133.953939 175.308358 
L 134.603898 190.916099 
L 135.578837 190.916099 
L 135.903817 183.112229 
L 136.228796 198.71997 
L 136.553776 190.916099 
L 136.878755 198.71997 
L 137.203735 198.71997 
L 137.528714 206.523841 
L 137.853694 198.71997 
L 138.178673 198.71997 
L 138.503653 206.523841 
L 139.153612 206.523841 
L 139.478591 198.71997 
L 139.803571 214.327712 
L 140.12855 206.523841 
L 140.45353 214.327712 
L 140.778509 214.327712 
L 141.103489 206.523841 
L 141.428468 214.327712 
L 141.753448 206.523841 
L 142.078428 214.327712 
L 142.403407 214.327712 
L 142.728387 222.131583 
L 143.053366 214.327712 
L 143.378346 214.327712 
L 143.703325 222.131583 
L 144.028305 214.327712 
L 144.353284 222.131583 
L 144.678264 222.131583 
L 145.003243 229.935454 
L 145.653202 229.935454 
L 146.303161 214.327712 
L 146.628141 229.935454 
L 147.2781 229.935454 
L 147.928059 245.543196 
L 148.253038 229.935454 
L 148.902998 245.543196 
L 149.227977 237.739325 
L 149.552957 237.739325 
L 150.202916 253.347067 
L 150.527895 245.543196 
L 151.177854 245.543196 
L 151.502834 237.739325 
L 151.827813 253.347067 
L 152.152793 245.543196 
L 152.477772 245.543196 
L 153.127731 261.150938 
L 153.452711 253.347067 
L 153.77769 253.347067 
L 154.10267 261.150938 
L 154.427649 261.150938 
L 154.752629 253.347067 
L 155.077609 261.150938 
L 155.402588 261.150938 
L 155.727568 268.954809 
L 156.052547 261.150938 
L 158.002424 261.150938 
L 158.327404 268.954809 
L 158.652383 261.150938 
L 158.977363 261.150938 
L 159.302342 268.954809 
L 159.952301 253.347067 
L 160.277281 261.150938 
L 160.60226 261.150938 
L 160.92724 253.347067 
L 161.252219 253.347067 
L 161.577199 261.150938 
L 161.902179 253.347067 
L 162.227158 253.347067 
L 162.552138 245.543196 
L 162.877117 253.347067 
L 163.202097 245.543196 
L 163.527076 261.150938 
L 164.177035 245.543196 
L 164.826994 245.543196 
L 165.151974 237.739325 
L 166.451892 237.739325 
L 167.101851 222.131583 
L 167.42683 237.739325 
L 167.75181 222.131583 
L 168.401769 222.131583 
L 168.726749 229.935454 
L 169.051728 214.327712 
L 169.376708 214.327712 
L 169.701687 222.131583 
L 170.026667 214.327712 
L 170.351646 214.327712 
L 170.676626 206.523841 
L 171.651564 206.523841 
L 171.976544 198.71997 
L 172.301523 183.112229 
L 172.626503 198.71997 
L 172.951482 198.71997 
L 173.276462 190.916099 
L 173.601441 198.71997 
L 173.926421 198.71997 
L 174.2514 183.112229 
L 174.57638 183.112229 
L 174.90136 190.916099 
L 175.226339 183.112229 
L 175.551319 183.112229 
L 175.876298 175.308358 
L 176.201278 183.112229 
L 176.526257 183.112229 
L 176.851237 175.308358 
L 177.176216 175.308358 
L 177.501196 167.504487 
L 177.826175 175.308358 
L 178.151155 167.504487 
L 179.126093 167.504487 
L 179.451073 159.700616 
L 180.101032 159.700616 
L 180.426011 151.896745 
L 180.750991 159.700616 
L 181.075971 151.896745 
L 181.72593 151.896745 
L 182.050909 144.092874 
L 182.375889 151.896745 
L 182.700868 136.289003 
L 183.025848 144.092874 
L 184.325766 144.092874 
L 184.650745 136.289003 
L 185.625684 136.289003 
L 185.950663 128.485132 
L 186.600622 128.485132 
L 186.925602 136.289003 
L 187.575561 120.681261 
L 187.900541 120.681261 
L 188.22552 128.485132 
L 188.5505 120.681261 
L 190.175397 120.681261 
L 190.500377 128.485132 
L 190.825356 112.87739 
L 191.150336 112.87739 
L 191.475315 120.681261 
L 192.450254 120.681261 
L 193.100213 105.073519 
L 193.425192 112.87739 
L 193.750172 105.073519 
L 194.075152 112.87739 
L 194.725111 112.87739 
L 195.05009 105.073519 
L 195.37507 112.87739 
L 195.700049 105.073519 
L 196.025029 105.073519 
L 196.350008 97.269648 
L 196.674988 105.073519 
L 196.999967 97.269648 
L 197.324947 105.073519 
L 197.974906 105.073519 
L 198.299885 89.465777 
L 198.624865 97.269648 
L 198.949844 89.465777 
L 199.274824 97.269648 
L 199.599803 89.465777 
L 199.924783 97.269648 
L 200.249762 81.661906 
L 201.224701 81.661906 
L 201.549681 73.858035 
L 202.19964 73.858035 
L 202.524619 89.465777 
L 202.849599 81.661906 
L 203.174578 81.661906 
L 203.499558 66.054164 
L 203.824537 81.661906 
L 204.149517 73.858035 
L 204.799476 73.858035 
L 205.124455 81.661906 
L 205.449435 66.054164 
L 206.099394 81.661906 
L 206.424373 73.858035 
L 207.074333 73.858035 
L 207.724292 89.465777 
L 208.049271 73.858035 
L 208.374251 81.661906 
L 208.69923 73.858035 
L 209.02421 89.465777 
L 209.349189 73.858035 
L 209.999148 89.465777 
L 210.324128 81.661906 
L 210.649107 81.661906 
L 210.974087 89.465777 
L 211.299066 81.661906 
L 211.624046 89.465777 
L 211.949025 81.661906 
L 212.274005 89.465777 
L 212.598984 89.465777 
L 212.923964 97.269648 
L 213.573923 97.269648 
L 213.898903 89.465777 
L 214.223882 105.073519 
L 215.198821 105.073519 
L 215.5238 112.87739 
L 215.84878 105.073519 
L 216.173759 112.87739 
L 217.473677 112.87739 
L 217.798657 120.681261 
L 218.123636 120.681261 
L 218.448616 128.485132 
L 218.773595 128.485132 
L 219.098575 120.681261 
L 219.423554 128.485132 
L 219.748534 128.485132 
L 220.073514 136.289003 
L 220.398493 136.289003 
L 220.723473 144.092874 
L 221.048452 136.289003 
L 221.373432 144.092874 
L 222.67335 144.092874 
L 222.998329 151.896745 
L 224.298247 151.896745 
L 224.623227 167.504487 
L 224.948206 159.700616 
L 225.273186 159.700616 
L 225.923145 175.308358 
L 226.248124 167.504487 
L 226.573104 167.504487 
L 226.898084 175.308358 
L 227.223063 167.504487 
L 227.873022 167.504487 
L 228.522981 183.112229 
L 228.847961 175.308358 
L 229.17294 183.112229 
L 229.49792 175.308358 
L 229.822899 183.112229 
L 230.147879 175.308358 
L 230.472858 183.112229 
L 230.797838 198.71997 
L 231.122817 198.71997 
L 231.447797 190.916099 
L 232.422735 190.916099 
L 232.747715 198.71997 
L 233.072695 198.71997 
L 233.397674 206.523841 
L 234.372613 206.523841 
L 234.697592 198.71997 
L 235.022572 206.523841 
L 235.672531 206.523841 
L 235.99751 214.327712 
L 236.32249 214.327712 
L 236.647469 206.523841 
L 236.972449 206.523841 
L 237.297428 214.327712 
L 239.897265 214.327712 
L 240.222244 222.131583 
L 240.547224 214.327712 
L 241.197183 229.935454 
L 241.522162 229.935454 
L 241.847142 222.131583 
L 242.497101 237.739325 
L 243.14706 222.131583 
L 243.472039 222.131583 
L 244.121998 237.739325 
L 244.771957 237.739325 
L 245.096937 229.935454 
L 245.421916 245.543196 
L 245.746896 245.543196 
L 246.071876 237.739325 
L 246.396855 245.543196 
L 246.721835 245.543196 
L 247.046814 253.347067 
L 247.371794 245.543196 
L 247.696773 253.347067 
L 248.021753 253.347067 
L 248.346732 245.543196 
L 248.996691 261.150938 
L 249.97163 261.150938 
L 250.296609 253.347067 
L 250.621589 261.150938 
L 250.946568 253.347067 
L 251.271548 253.347067 
L 251.921507 268.954809 
L 252.246486 261.150938 
L 252.896446 261.150938 
L 253.221425 268.954809 
L 253.546405 268.954809 
L 253.871384 261.150938 
L 255.171302 261.150938 
L 255.496282 253.347067 
L 255.821261 261.150938 
L 256.146241 253.347067 
L 256.47122 261.150938 
L 256.7962 253.347067 
L 257.121179 261.150938 
L 257.446159 253.347067 
L 258.096118 253.347067 
L 258.421097 245.543196 
L 259.396036 245.543196 
L 259.721016 253.347067 
L 260.045995 245.543196 
L 260.370975 245.543196 
L 260.695954 237.739325 
L 261.020934 245.543196 
L 261.345913 245.543196 
L 261.670893 237.739325 
L 262.320852 237.739325 
L 262.645831 222.131583 
L 263.29579 237.739325 
L 263.945749 222.131583 
L 265.245667 222.131583 
L 265.895627 206.523841 
L 266.220606 214.327712 
L 266.545586 206.523841 
L 266.870565 206.523841 
L 267.195545 214.327712 
L 267.845504 198.71997 
L 270.12036 198.71997 
L 271.095299 175.308358 
L 271.420278 183.112229 
L 271.745258 175.308358 
L 272.395217 175.308358 
L 272.720197 183.112229 
L 273.045176 167.504487 
L 273.370156 175.308358 
L 273.695135 167.504487 
L 274.020115 167.504487 
L 274.345094 159.700616 
L 274.670074 159.700616 
L 274.995053 167.504487 
L 275.320033 167.504487 
L 275.645012 159.700616 
L 275.969992 159.700616 
L 276.294971 151.896745 
L 276.619951 159.700616 
L 276.94493 151.896745 
L 277.919869 151.896745 
L 278.244848 144.092874 
L 279.219787 144.092874 
L 279.544767 136.289003 
L 279.869746 144.092874 
L 280.519705 144.092874 
L 280.844685 136.289003 
L 281.169664 136.289003 
L 281.494644 128.485132 
L 281.819623 136.289003 
L 282.144603 128.485132 
L 282.794562 128.485132 
L 283.119541 136.289003 
L 283.444521 128.485132 
L 284.744439 128.485132 
L 285.069419 120.681261 
L 285.394398 128.485132 
L 285.719378 128.485132 
L 286.044357 120.681261 
L 286.369337 120.681261 
L 286.694316 105.073519 
L 287.019296 120.681261 
L 287.344275 112.87739 
L 287.994234 112.87739 
L 288.319214 120.681261 
L 288.644193 112.87739 
L 288.969173 112.87739 
L 289.294152 105.073519 
L 289.619132 112.87739 
L 289.944111 97.269648 
L 290.269091 112.87739 
L 290.59407 105.073519 
L 290.91905 112.87739 
L 291.244029 112.87739 
L 291.569009 105.073519 
L 291.893989 89.465777 
L 292.218968 105.073519 
L 292.543948 105.073519 
L 292.868927 97.269648 
L 294.168845 97.269648 
L 294.493825 89.465777 
L 296.768681 89.465777 
L 297.093661 73.858035 
L 297.41864 89.465777 
L 298.0686 73.858035 
L 298.393579 81.661906 
L 299.368518 81.661906 
L 299.693497 73.858035 
L 300.018477 73.858035 
L 300.343456 66.054164 
L 300.668436 73.858035 
L 300.993415 73.858035 
L 301.318395 81.661906 
L 301.643374 73.858035 
L 301.968354 73.858035 
L 302.293333 66.054164 
L 302.618313 73.858035 
L 303.268272 73.858035 
L 303.593251 81.661906 
L 306.193088 81.661906 
L 306.518067 89.465777 
L 307.168026 89.465777 
L 307.493006 81.661906 
L 307.817985 89.465777 
L 308.467944 89.465777 
L 309.117903 105.073519 
L 309.442883 89.465777 
L 309.767862 89.465777 
L 310.417821 105.073519 
L 310.742801 97.269648 
L 311.067781 105.073519 
L 311.39276 105.073519 
L 311.71774 112.87739 
L 312.367699 112.87739 
L 312.692678 105.073519 
L 313.017658 112.87739 
L 313.667617 112.87739 
L 313.992596 120.681261 
L 314.317576 136.289003 
L 314.642555 120.681261 
L 314.967535 128.485132 
L 315.942473 128.485132 
L 316.267453 136.289003 
L 316.592432 136.289003 
L 316.917412 144.092874 
L 317.242391 144.092874 
L 317.567371 136.289003 
L 318.21733 151.896745 
L 319.192269 151.896745 
L 319.517248 167.504487 
L 319.842228 159.700616 
L 321.142146 159.700616 
L 321.467125 167.504487 
L 322.767043 167.504487 
L 323.092023 159.700616 
L 323.417002 175.308358 
L 324.391941 175.308358 
L 324.716921 183.112229 
L 325.0419 167.504487 
L 325.36688 183.112229 
L 326.341818 183.112229 
L 326.666798 190.916099 
L 326.991777 190.916099 
L 327.316757 198.71997 
L 327.641736 190.916099 
L 328.291695 190.916099 
L 328.616675 198.71997 
L 328.941654 198.71997 
L 329.266634 190.916099 
L 329.916593 206.523841 
L 330.241572 198.71997 
L 330.566552 206.523841 
L 330.891532 198.71997 
L 331.216511 206.523841 
L 331.541491 206.523841 
L 331.86647 198.71997 
L 332.516429 214.327712 
L 333.166388 214.327712 
L 333.491368 206.523841 
L 333.816347 214.327712 
L 334.141327 206.523841 
L 334.791286 222.131583 
L 336.416183 222.131583 
L 336.741163 214.327712 
L 337.066143 222.131583 
L 337.391122 222.131583 
L 337.716102 229.935454 
L 338.041081 222.131583 
L 338.69104 222.131583 
L 339.01602 237.739325 
L 339.340999 229.935454 
L 339.665979 229.935454 
L 339.990958 237.739325 
L 340.640917 237.739325 
L 340.965897 245.543196 
L 341.290876 245.543196 
L 341.615856 237.739325 
L 341.940835 237.739325 
L 342.265815 245.543196 
L 342.590794 245.543196 
L 342.915774 253.347067 
L 345.190631 253.347067 
L 345.51561 261.150938 
L 345.84059 253.347067 
L 346.165569 253.347067 
L 346.490549 261.150938 
L 348.765405 261.150938 
L 349.090385 253.347067 
L 349.415364 268.954809 
L 349.740344 261.150938 
L 350.390303 261.150938 
L 350.715283 268.954809 
L 351.040262 261.150938 
L 352.015201 261.150938 
L 352.34018 253.347067 
L 352.66516 261.150938 
L 353.315119 261.150938 
L 353.640098 253.347067 
L 354.615037 253.347067 
L 354.940016 245.543196 
L 355.589975 245.543196 
L 355.914955 253.347067 
L 356.239934 245.543196 
L 356.889894 245.543196 
L 357.539853 229.935454 
L 358.189812 229.935454 
L 358.514791 245.543196 
L 358.839771 229.935454 
L 359.16475 229.935454 
L 359.48973 222.131583 
L 359.814709 229.935454 
L 360.139689 222.131583 
L 361.114627 222.131583 
L 361.439607 214.327712 
L 361.764586 214.327712 
L 362.089566 206.523841 
L 362.739525 206.523841 
L 363.064505 198.71997 
L 363.389484 198.71997 
L 363.714464 206.523841 
L 364.039443 198.71997 
L 364.364423 198.71997 
L 364.689402 190.916099 
L 365.014382 198.71997 
L 365.664341 183.112229 
L 365.98932 190.916099 
L 366.3143 190.916099 
L 366.639279 183.112229 
L 367.614218 183.112229 
L 367.939197 175.308358 
L 368.914136 175.308358 
L 369.239115 167.504487 
L 369.564095 167.504487 
L 369.889075 159.700616 
L 370.214054 167.504487 
L 370.539034 159.700616 
L 370.864013 159.700616 
L 371.188993 167.504487 
L 371.513972 167.504487 
L 371.838952 151.896745 
L 372.163931 151.896745 
L 372.488911 159.700616 
L 372.81389 151.896745 
L 373.13887 151.896745 
L 373.463849 144.092874 
L 373.788829 144.092874 
L 374.113808 151.896745 
L 374.438788 144.092874 
L 374.763767 144.092874 
L 375.088747 136.289003 
L 375.413726 144.092874 
L 375.738706 136.289003 
L 376.063686 136.289003 
L 376.388665 144.092874 
L 376.713645 144.092874 
L 377.038624 128.485132 
L 377.363604 136.289003 
L 378.013563 136.289003 
L 378.338542 128.485132 
L 378.988501 128.485132 
L 379.313481 136.289003 
L 379.96344 120.681261 
L 380.288419 120.681261 
L 380.613399 128.485132 
L 381.263358 112.87739 
L 381.588337 120.681261 
L 381.913317 120.681261 
L 382.238296 112.87739 
L 382.563276 112.87739 
L 382.888256 128.485132 
L 383.538215 112.87739 
L 384.188174 112.87739 
L 384.513153 120.681261 
L 384.838133 120.681261 
L 385.488092 105.073519 
L 385.813071 112.87739 
L 386.138051 112.87739 
L 386.46303 105.073519 
L 386.78801 105.073519 
L 387.112989 112.87739 
L 387.437969 105.073519 
L 387.762948 105.073519 
L 388.087928 97.269648 
L 388.412907 105.073519 
L 388.737887 97.269648 
L 389.387846 97.269648 
L 389.712826 105.073519 
L 390.037805 97.269648 
L 390.362785 97.269648 
L 390.687764 81.661906 
L 391.012744 89.465777 
L 391.337723 89.465777 
L 391.662703 81.661906 
L 392.312662 97.269648 
L 392.637641 81.661906 
L 392.962621 89.465777 
L 393.2876 81.661906 
L 393.61258 81.661906 
L 393.937559 73.858035 
L 394.262539 81.661906 
L 394.587518 73.858035 
L 394.912498 81.661906 
L 395.237477 73.858035 
L 395.562457 73.858035 
L 395.887437 66.054164 
L 396.212416 81.661906 
L 396.537396 73.858035 
L 396.862375 73.858035 
L 397.187355 81.661906 
L 397.512334 81.661906 
L 397.837314 66.054164 
L 398.162293 81.661906 
L 398.487273 73.858035 
L 398.487273 73.858035 
" clip-path="url(#p3ef4cc4057)" style="fill: none; stroke: #1f77b4; stroke-width: 1.5; stroke-linecap: square"/>
   </g>
   <g id="line2d_13">
    <path d="M 73.832727 264.272516 
L 74.157707 264.272516 
L 74.482686 256.468645 
L 74.807666 264.272516 
L 76.757543 264.272516 
L 77.082523 272.076387 
L 77.407502 264.272516 
L 77.732482 272.076387 
L 78.057461 256.468645 
L 78.382441 279.880258 
L 78.70742 272.076387 
L 79.0324 295.488 
L 79.357379 279.880258 
L 80.007338 279.880258 
L 80.332318 287.684129 
L 80.657297 279.880258 
L 80.982277 279.880258 
L 81.307256 287.684129 
L 81.632236 279.880258 
L 82.607174 279.880258 
L 82.932154 287.684129 
L 83.257133 279.880258 
L 83.907093 295.488 
L 84.232072 295.488 
L 84.557052 287.684129 
L 85.53199 287.684129 
L 85.85697 279.880258 
L 86.181949 287.684129 
L 86.506929 287.684129 
L 86.831908 279.880258 
L 87.806847 279.880258 
L 88.131826 287.684129 
L 88.456806 264.272516 
L 88.781785 272.076387 
L 89.106765 272.076387 
L 89.431744 287.684129 
L 90.406683 264.272516 
L 90.731663 264.272516 
L 91.056642 256.468645 
L 91.381622 264.272516 
L 91.706601 264.272516 
L 92.031581 256.468645 
L 92.35656 256.468645 
L 93.006519 240.860903 
L 93.331499 256.468645 
L 93.656478 233.057032 
L 93.981458 248.664774 
L 94.631417 248.664774 
L 95.281376 233.057032 
L 95.606355 233.057032 
L 95.931335 240.860903 
L 96.256314 233.057032 
L 97.556233 233.057032 
L 97.881212 225.253161 
L 98.206192 225.253161 
L 98.531171 240.860903 
L 98.856151 217.44929 
L 99.50611 233.057032 
L 99.831089 233.057032 
L 100.156069 225.253161 
L 100.806028 225.253161 
L 101.131007 217.44929 
L 101.455987 217.44929 
L 101.780966 225.253161 
L 102.430925 209.645419 
L 103.080885 209.645419 
L 103.405864 201.841548 
L 103.730844 217.44929 
L 104.055823 194.037677 
L 104.380803 201.841548 
L 105.355741 201.841548 
L 106.0057 186.233806 
L 107.305618 186.233806 
L 107.955577 170.626065 
L 108.280557 170.626065 
L 108.605536 162.822194 
L 108.930516 170.626065 
L 109.255495 162.822194 
L 109.580475 178.429935 
L 109.905455 170.626065 
L 110.230434 178.429935 
L 110.555414 162.822194 
L 111.530352 162.822194 
L 111.855332 155.018323 
L 112.180311 155.018323 
L 112.505291 162.822194 
L 112.83027 155.018323 
L 113.15525 155.018323 
L 113.805209 139.410581 
L 114.130188 139.410581 
L 114.455168 131.60671 
L 114.780147 147.214452 
L 115.105127 139.410581 
L 115.430106 147.214452 
L 115.755086 131.60671 
L 116.405045 131.60671 
L 117.055004 115.998968 
L 117.379984 123.802839 
L 118.029943 123.802839 
L 119.004881 100.391226 
L 119.329861 108.195097 
L 119.65484 100.391226 
L 120.304799 115.998968 
L 120.629779 115.998968 
L 121.604717 92.587355 
L 121.929697 100.391226 
L 122.254676 92.587355 
L 122.579656 100.391226 
L 122.904636 100.391226 
L 123.229615 92.587355 
L 123.554595 92.587355 
L 124.204554 76.979613 
L 124.529533 92.587355 
L 124.854513 76.979613 
L 125.179492 92.587355 
L 125.829451 92.587355 
L 126.154431 76.979613 
L 126.80439 76.979613 
L 127.129369 84.783484 
L 127.454349 76.979613 
L 128.104308 76.979613 
L 128.429287 69.175742 
L 128.754267 76.979613 
L 129.404226 61.371871 
L 129.729206 76.979613 
L 130.054185 53.568 
L 130.379165 76.979613 
L 131.029124 76.979613 
L 131.679083 61.371871 
L 132.004062 76.979613 
L 132.654021 61.371871 
L 133.30398 76.979613 
L 133.62896 61.371871 
L 133.953939 76.979613 
L 134.603898 61.371871 
L 134.928878 76.979613 
L 135.253857 61.371871 
L 135.578837 76.979613 
L 135.903817 84.783484 
L 136.228796 84.783484 
L 136.553776 76.979613 
L 136.878755 76.979613 
L 137.203735 84.783484 
L 137.853694 84.783484 
L 138.178673 92.587355 
L 138.503653 92.587355 
L 138.828632 84.783484 
L 139.153612 92.587355 
L 139.803571 92.587355 
L 140.12855 100.391226 
L 140.45353 92.587355 
L 140.778509 108.195097 
L 141.103489 108.195097 
L 141.428468 115.998968 
L 141.753448 115.998968 
L 142.078428 108.195097 
L 142.403407 115.998968 
L 142.728387 108.195097 
L 143.053366 115.998968 
L 143.378346 115.998968 
L 143.703325 123.802839 
L 144.353284 123.802839 
L 144.678264 115.998968 
L 145.003243 115.998968 
L 145.328223 123.802839 
L 145.653202 108.195097 
L 145.978182 123.802839 
L 146.303161 131.60671 
L 146.628141 131.60671 
L 146.95312 123.802839 
L 147.2781 131.60671 
L 148.253038 131.60671 
L 148.578018 139.410581 
L 149.877936 139.410581 
L 150.202916 131.60671 
L 150.527895 139.410581 
L 150.852875 131.60671 
L 151.177854 155.018323 
L 152.802752 155.018323 
L 153.127731 162.822194 
L 153.452711 155.018323 
L 154.10267 170.626065 
L 155.402588 170.626065 
L 155.727568 178.429935 
L 156.052547 162.822194 
L 156.377527 186.233806 
L 156.702506 186.233806 
L 157.027486 194.037677 
L 157.352465 178.429935 
L 157.677445 186.233806 
L 158.002424 186.233806 
L 158.327404 194.037677 
L 158.652383 186.233806 
L 159.302342 201.841548 
L 159.627322 194.037677 
L 160.60226 194.037677 
L 160.92724 209.645419 
L 161.252219 194.037677 
L 161.577199 209.645419 
L 161.902179 209.645419 
L 162.227158 225.253161 
L 162.552138 209.645419 
L 162.877117 209.645419 
L 163.202097 217.44929 
L 163.852056 217.44929 
L 164.502015 233.057032 
L 164.826994 225.253161 
L 165.151974 240.860903 
L 165.476953 233.057032 
L 165.801933 233.057032 
L 166.126912 240.860903 
L 166.451892 233.057032 
L 166.776871 248.664774 
L 167.101851 256.468645 
L 167.42683 256.468645 
L 167.75181 248.664774 
L 168.07679 256.468645 
L 168.401769 248.664774 
L 168.726749 256.468645 
L 169.051728 248.664774 
L 169.701687 264.272516 
L 170.026667 256.468645 
L 170.351646 264.272516 
L 170.676626 256.468645 
L 171.001605 256.468645 
L 171.326585 264.272516 
L 171.651564 256.468645 
L 171.976544 272.076387 
L 172.301523 272.076387 
L 172.626503 279.880258 
L 172.951482 264.272516 
L 173.276462 264.272516 
L 173.601441 272.076387 
L 174.2514 272.076387 
L 174.57638 279.880258 
L 176.201278 279.880258 
L 176.526257 287.684129 
L 176.851237 264.272516 
L 177.176216 279.880258 
L 177.826175 295.488 
L 178.151155 295.488 
L 178.476134 287.684129 
L 178.801114 295.488 
L 179.451073 279.880258 
L 179.776052 287.684129 
L 180.426011 287.684129 
L 180.750991 295.488 
L 181.075971 279.880258 
L 181.40095 287.684129 
L 181.72593 287.684129 
L 182.050909 272.076387 
L 182.375889 287.684129 
L 182.700868 295.488 
L 183.025848 287.684129 
L 183.350827 287.684129 
L 184.000786 272.076387 
L 184.650745 272.076387 
L 184.975725 279.880258 
L 185.625684 264.272516 
L 186.925602 264.272516 
L 187.250581 248.664774 
L 187.575561 264.272516 
L 187.900541 264.272516 
L 188.22552 272.076387 
L 188.5505 256.468645 
L 188.875479 248.664774 
L 189.525438 248.664774 
L 189.850418 240.860903 
L 190.500377 240.860903 
L 190.825356 233.057032 
L 191.150336 240.860903 
L 191.800295 225.253161 
L 192.125274 233.057032 
L 192.450254 217.44929 
L 192.775233 233.057032 
L 193.100213 240.860903 
L 193.425192 240.860903 
L 194.075152 225.253161 
L 195.05009 225.253161 
L 195.37507 233.057032 
L 195.700049 233.057032 
L 196.350008 217.44929 
L 197.324947 217.44929 
L 197.649926 209.645419 
L 197.974906 217.44929 
L 198.299885 217.44929 
L 198.624865 225.253161 
L 198.949844 209.645419 
L 199.274824 201.841548 
L 200.249762 201.841548 
L 200.574742 209.645419 
L 201.549681 186.233806 
L 201.87466 186.233806 
L 202.19964 178.429935 
L 202.524619 186.233806 
L 202.849599 178.429935 
L 203.174578 178.429935 
L 203.499558 186.233806 
L 203.824537 186.233806 
L 204.149517 170.626065 
L 204.799476 170.626065 
L 205.124455 162.822194 
L 205.449435 170.626065 
L 206.099394 170.626065 
L 206.424373 162.822194 
L 206.749353 162.822194 
L 207.074333 155.018323 
L 207.724292 155.018323 
L 208.049271 147.214452 
L 208.69923 162.822194 
L 209.02421 155.018323 
L 209.349189 155.018323 
L 209.674169 147.214452 
L 209.999148 147.214452 
L 210.324128 139.410581 
L 211.299066 139.410581 
L 211.624046 131.60671 
L 211.949025 131.60671 
L 212.274005 123.802839 
L 212.598984 123.802839 
L 212.923964 131.60671 
L 213.248943 108.195097 
L 213.898903 123.802839 
L 214.223882 123.802839 
L 214.873841 108.195097 
L 216.498739 108.195097 
L 216.823718 100.391226 
L 217.148698 100.391226 
L 217.473677 92.587355 
L 218.123636 92.587355 
L 218.448616 84.783484 
L 218.773595 100.391226 
L 219.423554 100.391226 
L 219.748534 92.587355 
L 220.073514 92.587355 
L 220.398493 84.783484 
L 221.048452 84.783484 
L 221.373432 92.587355 
L 221.698411 84.783484 
L 222.34837 84.783484 
L 222.67335 69.175742 
L 222.998329 69.175742 
L 223.323309 84.783484 
L 223.648288 69.175742 
L 224.298247 84.783484 
L 224.623227 84.783484 
L 224.948206 69.175742 
L 225.598165 69.175742 
L 225.923145 76.979613 
L 226.248124 61.371871 
L 226.898084 76.979613 
L 227.223063 61.371871 
L 227.548043 69.175742 
L 227.873022 61.371871 
L 228.198002 61.371871 
L 228.522981 69.175742 
L 228.847961 61.371871 
L 229.822899 84.783484 
L 230.147879 69.175742 
L 230.472858 69.175742 
L 230.797838 76.979613 
L 232.422735 76.979613 
L 232.747715 84.783484 
L 233.072695 84.783484 
L 233.397674 76.979613 
L 233.722654 92.587355 
L 234.047633 76.979613 
L 234.372613 92.587355 
L 234.697592 92.587355 
L 235.022572 100.391226 
L 235.347551 92.587355 
L 235.672531 92.587355 
L 235.99751 100.391226 
L 236.647469 100.391226 
L 236.972449 108.195097 
L 237.297428 108.195097 
L 237.622408 100.391226 
L 237.947387 115.998968 
L 238.272367 115.998968 
L 238.597346 108.195097 
L 238.922326 115.998968 
L 239.247305 108.195097 
L 239.572285 123.802839 
L 239.897265 123.802839 
L 240.222244 131.60671 
L 240.547224 123.802839 
L 241.197183 123.802839 
L 241.522162 131.60671 
L 242.497101 131.60671 
L 242.82208 123.802839 
L 243.14706 131.60671 
L 243.472039 123.802839 
L 243.797019 123.802839 
L 244.121998 131.60671 
L 244.446978 123.802839 
L 245.421916 147.214452 
L 245.746896 139.410581 
L 246.071876 147.214452 
L 246.396855 139.410581 
L 247.046814 139.410581 
L 247.696773 155.018323 
L 248.671712 155.018323 
L 248.996691 147.214452 
L 249.321671 162.822194 
L 249.64665 147.214452 
L 249.97163 170.626065 
L 250.296609 178.429935 
L 250.946568 178.429935 
L 251.271548 170.626065 
L 251.596527 178.429935 
L 252.246486 178.429935 
L 252.896446 194.037677 
L 253.221425 178.429935 
L 253.546405 186.233806 
L 253.871384 178.429935 
L 254.196364 186.233806 
L 254.521343 186.233806 
L 254.846323 178.429935 
L 255.171302 194.037677 
L 255.821261 209.645419 
L 256.146241 194.037677 
L 256.47122 201.841548 
L 256.7962 201.841548 
L 257.121179 209.645419 
L 257.771138 209.645419 
L 258.096118 217.44929 
L 258.421097 201.841548 
L 258.746077 217.44929 
L 259.071057 209.645419 
L 259.396036 209.645419 
L 259.721016 225.253161 
L 260.045995 209.645419 
L 260.370975 225.253161 
L 260.695954 233.057032 
L 261.020934 248.664774 
L 261.345913 233.057032 
L 261.670893 233.057032 
L 262.320852 248.664774 
L 262.645831 240.860903 
L 263.29579 256.468645 
L 263.62077 248.664774 
L 263.945749 256.468645 
L 264.270729 248.664774 
L 264.595708 248.664774 
L 264.920688 256.468645 
L 265.245667 248.664774 
L 266.220606 272.076387 
L 266.545586 256.468645 
L 267.195545 272.076387 
L 267.520524 272.076387 
L 267.845504 256.468645 
L 268.495463 272.076387 
L 268.820442 264.272516 
L 269.145422 264.272516 
L 269.470401 272.076387 
L 269.795381 272.076387 
L 270.12036 279.880258 
L 270.44534 264.272516 
L 271.420278 287.684129 
L 271.745258 287.684129 
L 272.070238 279.880258 
L 272.395217 287.684129 
L 272.720197 287.684129 
L 273.045176 279.880258 
L 273.370156 295.488 
L 273.695135 287.684129 
L 274.020115 287.684129 
L 274.345094 279.880258 
L 274.670074 279.880258 
L 274.995053 295.488 
L 275.320033 295.488 
L 275.645012 279.880258 
L 275.969992 287.684129 
L 276.294971 287.684129 
L 276.619951 295.488 
L 276.94493 287.684129 
L 277.919869 287.684129 
L 278.244848 279.880258 
L 278.569828 287.684129 
L 278.894808 279.880258 
L 279.219787 287.684129 
L 279.869746 272.076387 
L 280.194726 272.076387 
L 280.519705 279.880258 
L 280.844685 264.272516 
L 281.169664 279.880258 
L 281.494644 272.076387 
L 281.819623 279.880258 
L 282.144603 264.272516 
L 282.469582 272.076387 
L 282.794562 264.272516 
L 283.119541 264.272516 
L 283.444521 256.468645 
L 283.7695 256.468645 
L 284.09448 264.272516 
L 284.419459 248.664774 
L 284.744439 256.468645 
L 285.069419 240.860903 
L 285.394398 240.860903 
L 285.719378 248.664774 
L 286.044357 233.057032 
L 286.369337 240.860903 
L 286.694316 240.860903 
L 287.019296 256.468645 
L 287.344275 240.860903 
L 287.669255 240.860903 
L 287.994234 233.057032 
L 288.319214 240.860903 
L 288.644193 233.057032 
L 289.294152 233.057032 
L 289.619132 225.253161 
L 289.944111 233.057032 
L 290.269091 225.253161 
L 290.59407 225.253161 
L 290.91905 233.057032 
L 291.244029 217.44929 
L 291.893989 233.057032 
L 292.218968 233.057032 
L 292.543948 217.44929 
L 294.493825 217.44929 
L 294.818804 201.841548 
L 295.468763 201.841548 
L 295.793743 194.037677 
L 296.118722 209.645419 
L 296.443702 186.233806 
L 296.768681 201.841548 
L 297.41864 201.841548 
L 298.0686 186.233806 
L 298.718559 186.233806 
L 299.043538 178.429935 
L 299.693497 178.429935 
L 300.018477 170.626065 
L 300.343456 170.626065 
L 300.668436 162.822194 
L 300.993415 162.822194 
L 301.318395 170.626065 
L 301.643374 155.018323 
L 302.293333 170.626065 
L 302.618313 170.626065 
L 302.943292 155.018323 
L 303.593251 155.018323 
L 303.918231 162.822194 
L 304.24321 147.214452 
L 304.56819 155.018323 
L 304.89317 155.018323 
L 305.218149 147.214452 
L 305.868108 147.214452 
L 306.193088 139.410581 
L 306.518067 147.214452 
L 306.843047 131.60671 
L 307.168026 131.60671 
L 307.493006 139.410581 
L 307.817985 139.410581 
L 308.142965 123.802839 
L 309.117903 123.802839 
L 309.442883 115.998968 
L 309.767862 123.802839 
L 310.417821 108.195097 
L 310.742801 108.195097 
L 311.067781 100.391226 
L 311.71774 100.391226 
L 312.042719 92.587355 
L 312.692678 108.195097 
L 313.017658 108.195097 
L 313.342637 100.391226 
L 314.317576 100.391226 
L 314.642555 92.587355 
L 314.967535 100.391226 
L 315.617494 84.783484 
L 315.942473 92.587355 
L 316.267453 92.587355 
L 316.592432 76.979613 
L 316.917412 84.783484 
L 317.242391 76.979613 
L 317.567371 84.783484 
L 318.21733 84.783484 
L 318.867289 69.175742 
L 319.192269 76.979613 
L 319.842228 76.979613 
L 320.167207 69.175742 
L 320.817166 69.175742 
L 321.142146 76.979613 
L 321.467125 61.371871 
L 321.792105 61.371871 
L 322.117084 76.979613 
L 322.442064 61.371871 
L 322.767043 76.979613 
L 323.417002 76.979613 
L 323.741982 61.371871 
L 324.066962 69.175742 
L 325.0419 69.175742 
L 325.36688 76.979613 
L 325.691859 76.979613 
L 326.016839 69.175742 
L 326.341818 76.979613 
L 326.666798 69.175742 
L 326.991777 69.175742 
L 327.316757 84.783484 
L 327.641736 61.371871 
L 327.966716 84.783484 
L 328.291695 84.783484 
L 328.616675 92.587355 
L 328.941654 84.783484 
L 330.241572 84.783484 
L 330.891532 100.391226 
L 331.216511 92.587355 
L 332.19145 92.587355 
L 332.516429 108.195097 
L 332.841409 92.587355 
L 333.166388 108.195097 
L 333.491368 115.998968 
L 333.816347 115.998968 
L 334.141327 108.195097 
L 334.466306 115.998968 
L 335.116265 115.998968 
L 335.441245 123.802839 
L 336.091204 123.802839 
L 336.416183 115.998968 
L 336.741163 123.802839 
L 337.066143 123.802839 
L 337.391122 115.998968 
L 337.716102 123.802839 
L 338.041081 115.998968 
L 338.366061 123.802839 
L 338.69104 139.410581 
L 339.01602 147.214452 
L 339.340999 131.60671 
L 339.665979 131.60671 
L 339.990958 139.410581 
L 340.315938 131.60671 
L 340.640917 131.60671 
L 340.965897 139.410581 
L 342.265815 139.410581 
L 342.590794 131.60671 
L 342.915774 147.214452 
L 343.240753 139.410581 
L 343.565733 155.018323 
L 343.890713 162.822194 
L 344.540672 162.822194 
L 344.865651 155.018323 
L 345.190631 162.822194 
L 345.84059 162.822194 
L 346.490549 178.429935 
L 346.815528 170.626065 
L 347.140508 178.429935 
L 347.465487 170.626065 
L 348.115446 186.233806 
L 348.440426 178.429935 
L 348.765405 186.233806 
L 349.090385 186.233806 
L 349.415364 194.037677 
L 349.740344 186.233806 
L 350.065324 194.037677 
L 350.715283 194.037677 
L 351.040262 186.233806 
L 351.690221 201.841548 
L 352.015201 194.037677 
L 352.34018 201.841548 
L 352.66516 201.841548 
L 352.990139 194.037677 
L 353.315119 209.645419 
L 353.640098 201.841548 
L 354.615037 225.253161 
L 354.940016 217.44929 
L 355.264996 225.253161 
L 356.239934 225.253161 
L 356.564914 233.057032 
L 357.539853 233.057032 
L 357.864832 240.860903 
L 358.189812 233.057032 
L 358.514791 248.664774 
L 358.839771 240.860903 
L 359.16475 240.860903 
L 359.48973 256.468645 
L 359.814709 264.272516 
L 360.139689 256.468645 
L 361.439607 256.468645 
L 361.764586 264.272516 
L 363.064505 264.272516 
L 363.389484 256.468645 
L 363.714464 272.076387 
L 364.039443 256.468645 
L 364.364423 272.076387 
L 364.689402 272.076387 
L 365.014382 279.880258 
L 365.339361 272.076387 
L 365.98932 272.076387 
L 366.3143 279.880258 
L 366.639279 272.076387 
L 366.964259 279.880258 
L 368.589156 279.880258 
L 368.914136 287.684129 
L 369.239115 272.076387 
L 369.564095 287.684129 
L 369.889075 295.488 
L 370.539034 295.488 
L 370.864013 287.684129 
L 374.113808 287.684129 
L 374.438788 272.076387 
L 374.763767 287.684129 
L 375.088747 279.880258 
L 375.413726 287.684129 
L 375.738706 279.880258 
L 376.063686 279.880258 
L 376.388665 272.076387 
L 376.713645 272.076387 
L 377.038624 264.272516 
L 377.363604 264.272516 
L 377.688583 272.076387 
L 378.013563 264.272516 
L 378.663522 264.272516 
L 378.988501 256.468645 
L 379.313481 264.272516 
L 379.63846 248.664774 
L 379.96344 256.468645 
L 380.288419 256.468645 
L 380.613399 264.272516 
L 380.938378 248.664774 
L 381.263358 248.664774 
L 381.588337 240.860903 
L 382.238296 240.860903 
L 382.563276 248.664774 
L 382.888256 240.860903 
L 383.538215 240.860903 
L 384.188174 225.253161 
L 384.513153 240.860903 
L 384.838133 225.253161 
L 385.488092 240.860903 
L 385.813071 240.860903 
L 386.138051 225.253161 
L 386.78801 225.253161 
L 387.112989 233.057032 
L 387.437969 225.253161 
L 387.762948 233.057032 
L 388.412907 217.44929 
L 388.737887 225.253161 
L 389.062867 217.44929 
L 389.712826 217.44929 
L 390.037805 201.841548 
L 390.687764 217.44929 
L 391.012744 217.44929 
L 391.337723 201.841548 
L 391.662703 194.037677 
L 391.987682 201.841548 
L 392.637641 201.841548 
L 392.962621 194.037677 
L 393.2876 194.037677 
L 393.61258 186.233806 
L 394.262539 186.233806 
L 394.587518 178.429935 
L 394.912498 186.233806 
L 395.237477 170.626065 
L 395.562457 178.429935 
L 395.887437 178.429935 
L 396.212416 186.233806 
L 396.537396 170.626065 
L 396.862375 170.626065 
L 397.187355 178.429935 
L 397.512334 170.626065 
L 397.837314 155.018323 
L 398.162293 170.626065 
L 398.487273 170.626065 
L 398.487273 170.626065 
" clip-path="url(#p3ef4cc4057)" style="fill: none; stroke: #ff7f0e; stroke-width: 1.5; stroke-linecap: square"/>
   </g>
   <g id="line2d_14">
    <path d="M 73.832727 151.718489 
L 81.307256 151.68103 
L 98.206192 151.752826 
L 100.481048 151.718489 
L 106.980639 151.737218 
L 109.580475 151.730975 
L 112.83027 151.734097 
L 115.105127 151.724732 
L 119.004881 151.768434 
L 125.179492 151.724732 
L 130.054185 151.693516 
L 146.95312 151.752826 
L 155.077609 151.69976 
L 169.051728 151.734097 
L 171.651564 151.706003 
L 398.487273 151.749704 
L 398.487273 151.749704 
" clip-path="url(#p3ef4cc4057)" style="fill: none; stroke: #2ca02c; stroke-width: 1.5; stroke-linecap: square"/>
   </g>
   <g id="patch_3">
    <path d="M 57.6 307.584 
L 57.6 41.472 
" style="fill: none; stroke: #000000; stroke-width: 0.8; stroke-linejoin: miter; stroke-linecap: square"/>
   </g>
   <g id="patch_4">
    <path d="M 414.72 307.584 
L 414.72 41.472 
" style="fill: none; stroke: #000000; stroke-width: 0.8; stroke-linejoin: miter; stroke-linecap: square"/>
   </g>
   <g id="patch_5">
    <path d="M 57.6 307.584 
L 414.72 307.584 
" style="fill: none; stroke: #000000; stroke-width: 0.8; stroke-linejoin: miter; stroke-linecap: square"/>
   </g>
   <g id="patch_6">
    <path d="M 57.6 41.472 
L 414.72 41.472 
" style="fill: none; stroke: #000000; stroke-width: 0.8; stroke-linejoin: miter; stroke-linecap: square"/>
   </g>
  </g>
 </g>
 <defs>
  <clipPath id="p3ef4cc4057">
   <rect x="57.6" y="41.472" width="357.12" height="266.112"/>
  </clipPath>
 </defs>
</svg>
