<?xml version="1.0" encoding="utf-8" standalone="no"?>
<!DOCTYPE svg PUBLIC "-//W3C//DTD SVG 1.1//EN"
  "http://www.w3.org/Graphics/SVG/1.1/DTD/svg11.dtd">
<svg xmlns:xlink="http://www.w3.org/1999/xlink" width="460.8pt" height="345.6pt" viewBox="0 0 460.8 345.6" xmlns="http://www.w3.org/2000/svg" version="1.1">
 <metadata>
  <rdf:RDF xmlns:dc="http://purl.org/dc/elements/1.1/" xmlns:cc="http://creativecommons.org/ns#" xmlns:rdf="http://www.w3.org/1999/02/22-rdf-syntax-ns#">
   <cc:Work>
    <dc:type rdf:resource="http://purl.org/dc/dcmitype/StillImage"/>
    <dc:date>2025-12-23T01:56:20.989618</dc:date>
    <dc:format>image/svg+xml</dc:format>
    <dc:creator>
     <cc:Agent>
      <dc:title>Matplotlib v3.10.8, https://matplotlib.org/</dc:title>
     </cc:Agent>
    </dc:creator>
   </cc:Work>
  </rdf:RDF>
 </metadata>
 <defs>
  <style type="text/css">*{stroke-linejoin: round; stroke-linecap: butt}</style>
 </defs>
 <g id="figure_1">
  <g id="patch_1">
   <path d="M 0 345.6 
L 460.8 345.6 
L 460.8 0 
L 0 0 
z
" style="fill: #ffffff"/>
  </g>
  <g id="axes_1">
   <g id="patch_2">
    <path d="M 57.6 307.584 
L 414.72 307.584 
L 414.72 41.472 
L 57.6 41.472 
z
" style="fill: #ffffff"/>
   </g>
   <g id="matplotlib.axis_1">
    <g id="xtick_1">
     <g id="line2d_1">
      <defs>
       <path id="m6641a8dda0" d="M 0 0 
L 0 3.5 
" style="stroke: #000000; stroke-width: 0.8"/>
      </defs>
      <g>
       <use xlink:href="#m6641a8dda0" x="73.832727" y="307.584" style="stroke: #000000; stroke-width: 0.8"/>
      </g>
     </g>
     <g id="text_1">
      <!-- 0 -->
      <g transform="translate(70.651477 322.182437) scale(0.1 -0.1)">
       <defs>
        <path id="DejaVuSans-30" d="M 2034 4250 
Q 1547 4250 1301 3770 
Q 1056 3291 1056 2328 
Q 1056 1369 1301 889 
Q 1547 409 2034 409 
Q 2525 409 2770 889 
Q 3016 1369 3016 2328 
Q 3016 3291 2770 3770 
Q 2525 4250 2034 4250 
z
M 2034 4750 
Q 2819 4750 3233 4129 
Q 3647 3509 3647 2328 
Q 3647 1150 3233 529 
Q 2819 -91 2034 -91 
Q 1250 -91 836 529 
Q 422 1150 422 2328 
Q 422 3509 836 4129 
Q 1250 4750 2034 4750 
z
" transform="scale(0.015625)"/>
       </defs>
       <use xlink:href="#DejaVuSans-30"/>
      </g>
     </g>
    </g>
    <g id="xtick_2">
     <g id="line2d_2">
      <g>
       <use xlink:href="#m6641a8dda0" x="138.828632" y="307.584" style="stroke: #000000; stroke-width: 0.8"/>
      </g>
     </g>
     <g id="text_2">
      <!-- 1 -->
      <g transform="translate(135.647382 322.182437) scale(0.1 -0.1)">
       <defs>
        <path id="DejaVuSans-31" d="M 794 531 
L 1825 531 
L 1825 4091 
L 703 3866 
L 703 4441 
L 1819 4666 
L 2450 4666 
L 2450 531 
L 3481 531 
L 3481 0 
L 794 0 
L 794 531 
z
" transform="scale(0.015625)"/>
       </defs>
       <use xlink:href="#DejaVuSans-31"/>
      </g>
     </g>
    </g>
    <g id="xtick_3">
     <g id="line2d_3">
      <g>
       <use xlink:href="#m6641a8dda0" x="203.824537" y="307.584" style="stroke: #000000; stroke-width: 0.8"/>
      </g>
     </g>
     <g id="text_3">
      <!-- 2 -->
      <g transform="translate(200.643287 322.182437) scale(0.1 -0.1)">
       <defs>
        <path id="DejaVuSans-32" d="M 1228 531 
L 3431 531 
L 3431 0 
L 469 0 
L 469 531 
Q 828 903 1448 1529 
Q 2069 2156 2228 2338 
Q 2531 2678 2651 2914 
Q 2772 3150 2772 3378 
Q 2772 3750 2511 3984 
Q 2250 4219 1831 4219 
Q 1534 4219 1204 4116 
Q 875 4013 500 3803 
L 500 4441 
Q 881 4594 1212 4672 
Q 1544 4750 1819 4750 
Q 2544 4750 2975 4387 
Q 3406 4025 3406 3419 
Q 3406 3131 3298 2873 
Q 3191 2616 2906 2266 
Q 2828 2175 2409 1742 
Q 1991 1309 1228 531 
z
" transform="scale(0.015625)"/>
       </defs>
       <use xlink:href="#DejaVuSans-32"/>
      </g>
     </g>
    </g>
    <g id="xtick_4">
     <g id="line2d_4">
      <g>
       <use xlink:href="#m6641a8dda0" x="268.820442" y="307.584" style="stroke: #000000; stroke-width: 0.8"/>
      </g>
     </g>
     <g id="text_4">
      <!-- 3 -->
      <g transform="translate(265.639192 322.182437) scale(0.1 -0.1)">
       <defs>
        <path id="DejaVuSans-33" d="M 2597 2516 
Q 3050 2419 3304 2112 
Q 3559 1806 3559 1356 
Q 3559 666 3084 287 
Q 2609 -91 1734 -91 
Q 1441 -91 1130 -33 
Q 819 25 488 141 
L 488 750 
Q 750 597 1062 519 
Q 1375 441 1716 441 
Q 2309 441 2620 675 
Q 2931 909 2931 1356 
Q 2931 1769 2642 2001 
Q 2353 2234 1838 2234 
L 1294 2234 
L 1294 2753 
L 1863 2753 
Q 2328 2753 2575 2939 
Q 2822 3125 2822 3475 
Q 2822 3834 2567 4026 
Q 2313 4219 1838 4219 
Q 1578 4219 1281 4162 
Q 984 4106 628 3988 
L 628 4550 
Q 988 4650 1302 4700 
Q 1616 4750 1894 4750 
Q 2613 4750 3031 4423 
Q 3450 4097 3450 3541 
Q 3450 3153 3228 2886 
Q 3006 2619 2597 2516 
z
" transform="scale(0.015625)"/>
       </defs>
       <use xlink:href="#DejaVuSans-33"/>
      </g>
     </g>
    </g>
    <g id="xtick_5">
     <g id="line2d_5">
      <g>
       <use xlink:href="#m6641a8dda0" x="333.816347" y="307.584" style="stroke: #000000; stroke-width: 0.8"/>
      </g>
     </g>
     <g id="text_5">
      <!-- 4 -->
      <g transform="translate(330.635097 322.182437) scale(0.1 -0.1)">
       <defs>
        <path id="DejaVuSans-34" d="M 2419 4116 
L 825 1625 
L 2419 1625 
L 2419 4116 
z
M 2253 4666 
L 3047 4666 
L 3047 1625 
L 3713 1625 
L 3713 1100 
L 3047 1100 
L 3047 0 
L 2419 0 
L 2419 1100 
L 313 1100 
L 313 1709 
L 2253 4666 
z
" transform="scale(0.015625)"/>
       </defs>
       <use xlink:href="#DejaVuSans-34"/>
      </g>
     </g>
    </g>
    <g id="xtick_6">
     <g id="line2d_6">
      <g>
       <use xlink:href="#m6641a8dda0" x="398.812252" y="307.584" style="stroke: #000000; stroke-width: 0.8"/>
      </g>
     </g>
     <g id="text_6">
      <!-- 5 -->
      <g transform="translate(395.631002 322.182437) scale(0.1 -0.1)">
       <defs>
        <path id="DejaVuSans-35" d="M 691 4666 
L 3169 4666 
L 3169 4134 
L 1269 4134 
L 1269 2991 
Q 1406 3038 1543 3061 
Q 1681 3084 1819 3084 
Q 2600 3084 3056 2656 
Q 3513 2228 3513 1497 
Q 3513 744 3044 326 
Q 2575 -91 1722 -91 
Q 1428 -91 1123 -41 
Q 819 9 494 109 
L 494 744 
Q 775 591 1075 516 
Q 1375 441 1709 441 
Q 2250 441 2565 725 
Q 2881 1009 2881 1497 
Q 2881 1984 2565 2268 
Q 2250 2553 1709 2553 
Q 1456 2553 1204 2497 
Q 953 2441 691 2322 
L 691 4666 
z
" transform="scale(0.015625)"/>
       </defs>
       <use xlink:href="#DejaVuSans-35"/>
      </g>
     </g>
    </g>
    <g id="text_7">
     <!-- 1e−7 -->
     <g transform="translate(387.462188 334.860562) scale(0.1 -0.1)">
      <defs>
       <path id="DejaVuSans-65" d="M 3597 1894 
L 3597 1613 
L 953 1613 
Q 991 1019 1311 708 
Q 1631 397 2203 397 
Q 2534 397 2845 478 
Q 3156 559 3463 722 
L 3463 178 
Q 3153 47 2828 -22 
Q 2503 -91 2169 -91 
Q 1331 -91 842 396 
Q 353 884 353 1716 
Q 353 2575 817 3079 
Q 1281 3584 2069 3584 
Q 2775 3584 3186 3129 
Q 3597 2675 3597 1894 
z
M 3022 2063 
Q 3016 2534 2758 2815 
Q 2500 3097 2075 3097 
Q 1594 3097 1305 2825 
Q 1016 2553 972 2059 
L 3022 2063 
z
" transform="scale(0.015625)"/>
       <path id="DejaVuSans-2212" d="M 678 2272 
L 4684 2272 
L 4684 1741 
L 678 1741 
L 678 2272 
z
" transform="scale(0.015625)"/>
       <path id="DejaVuSans-37" d="M 525 4666 
L 3525 4666 
L 3525 4397 
L 1831 0 
L 1172 0 
L 2766 4134 
L 525 4134 
L 525 4666 
z
" transform="scale(0.015625)"/>
      </defs>
      <use xlink:href="#DejaVuSans-31"/>
      <use xlink:href="#DejaVuSans-65" transform="translate(63.623047 0)"/>
      <use xlink:href="#DejaVuSans-2212" transform="translate(125.146484 0)"/>
      <use xlink:href="#DejaVuSans-37" transform="translate(208.935547 0)"/>
     </g>
    </g>
   </g>
   <g id="matplotlib.axis_2">
    <g id="ytick_1">
     <g id="line2d_7">
      <defs>
       <path id="m01125fb379" d="M 0 0 
L -3.5 0 
" style="stroke: #000000; stroke-width: 0.8"/>
      </defs>
      <g>
       <use xlink:href="#m01125fb379" x="57.6" y="273.495293" style="stroke: #000000; stroke-width: 0.8"/>
      </g>
     </g>
     <g id="text_8">
      <!-- 0 -->
      <g transform="translate(44.2375 277.294512) scale(0.1 -0.1)">
       <use xlink:href="#DejaVuSans-30"/>
      </g>
     </g>
    </g>
    <g id="ytick_2">
     <g id="line2d_8">
      <g>
       <use xlink:href="#m01125fb379" x="57.6" y="223.226197" style="stroke: #000000; stroke-width: 0.8"/>
      </g>
     </g>
     <g id="text_9">
      <!-- 10 -->
      <g transform="translate(37.875 227.025416) scale(0.1 -0.1)">
       <use xlink:href="#DejaVuSans-31"/>
       <use xlink:href="#DejaVuSans-30" transform="translate(63.623047 0)"/>
      </g>
     </g>
    </g>
    <g id="ytick_3">
     <g id="line2d_9">
      <g>
       <use xlink:href="#m01125fb379" x="57.6" y="172.957101" style="stroke: #000000; stroke-width: 0.8"/>
      </g>
     </g>
     <g id="text_10">
      <!-- 20 -->
      <g transform="translate(37.875 176.75632) scale(0.1 -0.1)">
       <use xlink:href="#DejaVuSans-32"/>
       <use xlink:href="#DejaVuSans-30" transform="translate(63.623047 0)"/>
      </g>
     </g>
    </g>
    <g id="ytick_4">
     <g id="line2d_10">
      <g>
       <use xlink:href="#m01125fb379" x="57.6" y="122.688005" style="stroke: #000000; stroke-width: 0.8"/>
      </g>
     </g>
     <g id="text_11">
      <!-- 30 -->
      <g transform="translate(37.875 126.487224) scale(0.1 -0.1)">
       <use xlink:href="#DejaVuSans-33"/>
       <use xlink:href="#DejaVuSans-30" transform="translate(63.623047 0)"/>
      </g>
     </g>
    </g>
    <g id="ytick_5">
     <g id="line2d_11">
      <g>
       <use xlink:href="#m01125fb379" x="57.6" y="72.418909" style="stroke: #000000; stroke-width: 0.8"/>
      </g>
     </g>
     <g id="text_12">
      <!-- 40 -->
      <g transform="translate(37.875 76.218128) scale(0.1 -0.1)">
       <use xlink:href="#DejaVuSans-34"/>
       <use xlink:href="#DejaVuSans-30" transform="translate(63.623047 0)"/>
      </g>
     </g>
    </g>
   </g>
   <g id="line2d_12">
    <path d="M 73.832727 248.674931 
L 74.157707 248.360749 
L 74.482686 248.360749 
L 74.807666 248.674931 
L 75.132645 248.360749 
L 75.457625 248.674931 
L 75.782604 248.360749 
L 76.107584 248.674931 
L 76.757543 248.046567 
L 77.082523 248.360749 
L 77.407502 248.360749 
L 77.732482 248.674931 
L 78.057461 248.360749 
L 78.70742 248.989112 
L 79.0324 248.674931 
L 79.357379 248.989112 
L 79.682359 248.360749 
L 80.007338 248.989112 
L 80.332318 248.360749 
L 80.657297 248.989112 
L 80.982277 248.674931 
L 81.957215 248.674931 
L 82.282195 248.989112 
L 82.607174 248.989112 
L 82.932154 249.303294 
L 83.257133 248.674931 
L 83.582113 248.989112 
L 83.907093 248.674931 
L 84.557052 248.674931 
L 84.882031 248.360749 
L 85.207011 248.989112 
L 85.53199 248.360749 
L 85.85697 248.674931 
L 86.181949 248.674931 
L 86.506929 248.989112 
L 87.156888 248.360749 
L 87.481867 248.674931 
L 87.806847 248.674931 
L 88.131826 248.989112 
L 88.456806 248.674931 
L 88.781785 248.989112 
L 89.106765 248.674931 
L 89.431744 248.989112 
L 90.081704 253.70184 
L 90.406683 256.529476 
L 90.731663 257.786203 
L 91.056642 259.671294 
L 91.381622 262.813112 
L 92.68154 281.34984 
L 93.331499 284.491658 
L 93.656478 284.491658 
L 93.981458 284.177476 
L 94.631417 281.664021 
L 94.956396 279.778931 
L 95.931335 270.98184 
L 96.256314 269.725112 
L 96.581294 269.410931 
L 96.906274 269.725112 
L 97.231253 269.725112 
L 97.881212 269.096749 
L 98.206192 269.096749 
L 98.531171 270.039294 
L 99.50611 274.43784 
L 100.156069 274.43784 
L 100.481048 274.752021 
L 100.806028 276.322931 
L 101.455987 276.322931 
L 101.780966 274.752021 
L 102.105946 273.809476 
L 102.430925 273.495294 
L 103.080885 274.752021 
L 103.405864 274.123658 
L 104.055823 271.924385 
L 104.380803 271.924385 
L 105.030762 273.495294 
L 105.355741 273.809476 
L 105.680721 272.866931 
L 106.33068 273.495294 
L 106.655659 274.43784 
L 106.980639 274.43784 
L 107.305618 273.809476 
L 107.630598 273.495294 
L 107.955577 273.809476 
L 108.280557 274.752021 
L 108.605536 275.066203 
L 108.930516 274.752021 
L 109.255495 274.123658 
L 109.580475 273.181112 
L 109.905455 272.866931 
L 110.230434 273.809476 
L 110.555414 274.123658 
L 111.205373 274.123658 
L 111.530352 273.495294 
L 112.180311 273.495294 
L 112.505291 273.809476 
L 112.83027 273.495294 
L 113.15525 273.495294 
L 113.480229 273.809476 
L 113.805209 273.809476 
L 114.130188 274.123658 
L 114.780147 274.123658 
L 115.105127 273.495294 
L 115.430106 273.495294 
L 115.755086 273.809476 
L 116.080066 273.809476 
L 116.405045 274.752021 
L 116.730025 274.123658 
L 117.055004 274.123658 
L 118.029943 273.181112 
L 118.354922 273.181112 
L 118.679902 273.809476 
L 119.329861 273.809476 
L 119.65484 274.123658 
L 120.304799 273.495294 
L 120.629779 273.809476 
L 121.279738 273.181112 
L 121.604717 274.123658 
L 121.929697 273.809476 
L 122.254676 274.43784 
L 122.579656 273.809476 
L 122.904636 273.495294 
L 123.554595 273.495294 
L 123.879574 273.809476 
L 124.854513 273.809476 
L 125.179492 273.495294 
L 125.504472 273.809476 
L 125.829451 273.809476 
L 126.154431 274.123658 
L 126.47941 273.495294 
L 126.80439 273.809476 
L 127.129369 273.809476 
L 127.454349 274.123658 
L 127.779328 273.809476 
L 128.104308 274.123658 
L 128.429287 273.495294 
L 128.754267 273.809476 
L 129.729206 273.809476 
L 130.054185 274.123658 
L 131.029124 274.123658 
L 131.679083 273.495294 
L 132.004062 274.123658 
L 132.329042 273.809476 
L 132.654021 274.123658 
L 133.30398 274.123658 
L 133.62896 273.495294 
L 134.603898 273.495294 
L 135.253857 274.123658 
L 135.578837 273.809476 
L 135.903817 274.123658 
L 136.228796 274.123658 
L 136.553776 273.809476 
L 136.878755 273.809476 
L 137.203735 274.123658 
L 137.528714 273.809476 
L 137.853694 274.123658 
L 138.178673 273.809476 
L 138.503653 274.123658 
L 138.828632 273.809476 
L 139.153612 274.123658 
L 139.478591 274.123658 
L 139.803571 273.809476 
L 140.778509 273.809476 
L 141.103489 274.123658 
L 141.428468 273.809476 
L 141.753448 273.809476 
L 142.078428 273.495294 
L 142.403407 273.809476 
L 142.728387 273.495294 
L 143.053366 273.809476 
L 143.378346 273.809476 
L 143.703325 274.123658 
L 144.028305 273.809476 
L 144.353284 274.123658 
L 144.678264 274.123658 
L 145.003243 273.809476 
L 145.653202 273.809476 
L 145.978182 274.123658 
L 146.628141 274.123658 
L 146.95312 273.809476 
L 147.2781 273.809476 
L 147.603079 274.123658 
L 147.928059 273.809476 
L 148.253038 274.43784 
L 148.578018 274.43784 
L 148.902998 274.123658 
L 149.227977 274.43784 
L 149.552957 274.123658 
L 150.527895 274.123658 
L 150.852875 274.43784 
L 151.177854 274.123658 
L 152.477772 275.380385 
L 152.802752 276.008749 
L 153.452711 274.752021 
L 154.10267 271.610203 
L 155.077609 263.441476 
L 156.052547 253.70184 
L 156.377527 251.816749 
L 157.027486 249.931658 
L 157.677445 247.104021 
L 158.002424 247.418203 
L 158.327404 246.161476 
L 158.652383 246.161476 
L 159.627322 245.218931 
L 160.277281 245.218931 
L 160.92724 245.847294 
L 161.252219 245.847294 
L 162.552138 248.360749 
L 162.877117 248.360749 
L 163.202097 249.303294 
L 163.527076 249.303294 
L 163.852056 249.931658 
L 164.177035 249.931658 
L 164.502015 249.617476 
L 164.826994 249.617476 
L 165.476953 250.24584 
L 165.801933 249.931658 
L 166.126912 250.24584 
L 166.451892 249.931658 
L 167.101851 249.931658 
L 167.42683 249.617476 
L 167.75181 249.617476 
L 168.07679 248.989112 
L 168.401769 248.989112 
L 168.726749 248.360749 
L 169.051728 248.674931 
L 169.376708 248.360749 
L 171.326585 248.360749 
L 171.651564 248.046567 
L 171.976544 248.360749 
L 172.301523 248.360749 
L 172.626503 248.046567 
L 172.951482 248.046567 
L 173.276462 247.732385 
L 173.601441 248.360749 
L 173.926421 248.046567 
L 174.2514 248.674931 
L 175.226339 248.674931 
L 175.551319 248.360749 
L 175.876298 248.674931 
L 176.201278 248.360749 
L 176.526257 248.989112 
L 176.851237 248.360749 
L 177.501196 248.989112 
L 177.826175 248.674931 
L 178.151155 248.989112 
L 178.476134 248.674931 
L 178.801114 248.989112 
L 179.126093 248.674931 
L 179.451073 248.674931 
L 179.776052 248.360749 
L 180.101032 248.360749 
L 180.426011 248.046567 
L 181.075971 248.674931 
L 181.40095 248.360749 
L 181.72593 248.674931 
L 182.050909 248.360749 
L 182.375889 248.674931 
L 183.025848 248.674931 
L 183.350827 248.989112 
L 183.675807 248.674931 
L 184.000786 248.989112 
L 184.325766 248.674931 
L 184.650745 248.989112 
L 184.975725 248.674931 
L 185.300704 249.303294 
L 185.625684 250.874203 
L 186.275643 256.843658 
L 186.600622 258.100385 
L 186.925602 259.985476 
L 187.250581 262.813112 
L 188.22552 277.579658 
L 188.5505 281.035658 
L 189.200459 284.491658 
L 189.525438 284.491658 
L 189.850418 284.177476 
L 190.500377 281.978203 
L 191.150336 276.951294 
L 192.125274 269.410931 
L 192.450254 269.096749 
L 192.775233 269.725112 
L 193.100213 269.725112 
L 193.750172 269.096749 
L 194.075152 269.096749 
L 194.725111 271.924385 
L 195.05009 273.495294 
L 195.37507 274.123658 
L 195.700049 274.123658 
L 196.025029 274.43784 
L 196.350008 275.066203 
L 196.999967 276.637112 
L 197.324947 276.008749 
L 197.649926 274.43784 
L 197.974906 273.495294 
L 198.299885 273.495294 
L 198.949844 275.066203 
L 199.274824 273.809476 
L 199.599803 273.181112 
L 199.924783 271.610203 
L 200.249762 271.610203 
L 200.574742 272.238567 
L 200.899722 273.181112 
L 201.87466 273.181112 
L 202.524619 274.43784 
L 202.849599 274.43784 
L 203.499558 273.181112 
L 203.824537 273.809476 
L 204.149517 274.752021 
L 204.799476 274.752021 
L 205.449435 273.181112 
L 206.099394 273.181112 
L 206.424373 274.123658 
L 207.074333 274.123658 
L 207.399312 273.181112 
L 207.724292 273.495294 
L 208.049271 273.181112 
L 208.374251 273.809476 
L 208.69923 273.495294 
L 209.02421 273.495294 
L 209.349189 273.809476 
L 209.674169 273.495294 
L 209.999148 274.43784 
L 210.324128 273.809476 
L 210.649107 273.809476 
L 210.974087 273.181112 
L 211.299066 273.495294 
L 211.624046 273.495294 
L 211.949025 274.123658 
L 212.274005 274.43784 
L 212.598984 273.809476 
L 213.248943 273.809476 
L 213.573923 273.495294 
L 213.898903 273.809476 
L 214.223882 273.495294 
L 214.548862 274.123658 
L 214.873841 273.495294 
L 215.198821 274.123658 
L 215.5238 273.809476 
L 216.173759 273.809476 
L 216.498739 273.495294 
L 217.148698 273.495294 
L 217.473677 273.809476 
L 218.448616 273.809476 
L 218.773595 273.495294 
L 219.423554 273.495294 
L 219.748534 273.809476 
L 220.073514 273.495294 
L 220.398493 274.123658 
L 220.723473 273.809476 
L 221.048452 273.809476 
L 221.373432 273.495294 
L 222.67335 273.495294 
L 222.998329 273.809476 
L 224.298247 273.809476 
L 224.623227 273.495294 
L 224.948206 273.809476 
L 225.273186 273.495294 
L 225.598165 273.809476 
L 225.923145 273.809476 
L 226.248124 274.123658 
L 226.898084 273.495294 
L 227.548043 273.495294 
L 227.873022 273.809476 
L 228.198002 273.495294 
L 228.847961 274.123658 
L 229.49792 273.495294 
L 229.822899 273.495294 
L 230.147879 273.809476 
L 230.472858 273.495294 
L 230.797838 273.809476 
L 231.122817 273.495294 
L 231.447797 273.809476 
L 232.097756 273.809476 
L 232.422735 273.495294 
L 232.747715 274.123658 
L 233.072695 274.123658 
L 233.397674 273.809476 
L 234.372613 273.809476 
L 234.697592 274.123658 
L 235.022572 273.809476 
L 235.347551 273.809476 
L 235.672531 273.495294 
L 235.99751 273.809476 
L 236.32249 273.495294 
L 236.647469 274.123658 
L 236.972449 273.809476 
L 237.622408 273.809476 
L 237.947387 273.495294 
L 238.272367 273.809476 
L 239.247305 273.809476 
L 239.572285 274.123658 
L 240.222244 274.123658 
L 240.872203 273.495294 
L 241.197183 273.809476 
L 241.522162 273.809476 
L 241.847142 274.123658 
L 242.172121 273.809476 
L 242.497101 274.123658 
L 243.472039 274.123658 
L 243.797019 273.809476 
L 244.121998 274.123658 
L 244.446978 274.123658 
L 244.771957 274.43784 
L 245.096937 274.123658 
L 245.421916 274.43784 
L 245.746896 274.43784 
L 246.071876 273.809476 
L 246.396855 274.43784 
L 246.721835 273.809476 
L 247.046814 274.43784 
L 247.371794 273.809476 
L 247.696773 274.43784 
L 248.021753 274.752021 
L 248.346732 275.380385 
L 248.671712 275.694567 
L 248.996691 275.380385 
L 249.321671 274.752021 
L 249.97163 271.610203 
L 252.246486 251.816749 
L 253.546405 247.104021 
L 253.871384 246.475658 
L 254.196364 246.161476 
L 254.521343 246.161476 
L 254.846323 245.533112 
L 255.171302 245.533112 
L 255.496282 244.904749 
L 255.821261 245.218931 
L 256.146241 245.218931 
L 256.47122 244.904749 
L 256.7962 245.533112 
L 257.121179 245.847294 
L 258.096118 247.732385 
L 258.421097 248.046567 
L 258.746077 248.674931 
L 259.721016 249.617476 
L 260.370975 249.617476 
L 260.695954 249.931658 
L 261.020934 249.931658 
L 261.345913 250.24584 
L 261.670893 249.931658 
L 261.995872 249.931658 
L 262.320852 249.617476 
L 262.645831 249.931658 
L 262.970811 249.303294 
L 263.29579 249.617476 
L 264.595708 248.360749 
L 264.920688 248.674931 
L 265.245667 248.360749 
L 265.570647 248.674931 
L 266.220606 248.674931 
L 266.870565 248.046567 
L 267.195545 248.674931 
L 267.520524 248.046567 
L 267.845504 248.046567 
L 268.170483 248.360749 
L 268.495463 248.360749 
L 268.820442 248.046567 
L 269.145422 248.046567 
L 269.795381 248.674931 
L 270.12036 248.674931 
L 270.44534 248.360749 
L 270.770319 248.674931 
L 271.745258 248.674931 
L 272.070238 248.360749 
L 272.395217 248.989112 
L 272.720197 248.360749 
L 273.045176 248.674931 
L 273.370156 248.360749 
L 273.695135 248.674931 
L 274.020115 248.674931 
L 274.345094 248.989112 
L 275.320033 248.989112 
L 275.645012 248.360749 
L 275.969992 248.989112 
L 276.294971 248.674931 
L 276.619951 248.674931 
L 276.94493 248.360749 
L 277.26991 248.360749 
L 277.594889 248.674931 
L 277.919869 248.360749 
L 278.244848 248.674931 
L 278.569828 248.674931 
L 278.894808 248.989112 
L 279.544767 248.360749 
L 279.869746 248.674931 
L 280.194726 248.674931 
L 280.519705 248.989112 
L 280.844685 248.674931 
L 281.169664 249.617476 
L 281.819623 254.016021 
L 282.144603 256.529476 
L 282.469582 257.786203 
L 282.794562 259.985476 
L 283.119541 263.127294 
L 284.419459 281.035658 
L 284.744439 283.234931 
L 285.069419 284.491658 
L 285.394398 284.491658 
L 285.719378 283.863294 
L 286.694316 279.778931 
L 287.669255 270.667658 
L 288.319214 269.096749 
L 288.644193 269.725112 
L 289.294152 269.725112 
L 289.619132 269.096749 
L 289.944111 268.782567 
L 290.91905 273.495294 
L 291.244029 274.43784 
L 291.893989 274.43784 
L 292.543948 276.008749 
L 292.868927 276.322931 
L 293.193907 276.008749 
L 293.843866 273.181112 
L 294.168845 273.181112 
L 294.818804 274.752021 
L 295.143784 274.123658 
L 295.468763 272.552749 
L 295.793743 271.610203 
L 296.118722 271.924385 
L 296.768681 273.181112 
L 297.093661 273.495294 
L 297.41864 273.495294 
L 297.74362 273.181112 
L 298.0686 273.495294 
L 298.393579 274.43784 
L 299.368518 273.495294 
L 299.693497 274.123658 
L 300.668436 275.066203 
L 300.993415 273.495294 
L 301.318395 273.181112 
L 301.643374 273.181112 
L 301.968354 273.809476 
L 302.293333 274.123658 
L 302.943292 274.123658 
L 303.268272 273.181112 
L 303.593251 273.495294 
L 303.918231 273.495294 
L 304.24321 273.809476 
L 304.56819 273.495294 
L 304.89317 273.809476 
L 305.218149 273.495294 
L 305.868108 274.123658 
L 306.193088 273.809476 
L 306.518067 273.809476 
L 306.843047 273.495294 
L 307.168026 273.495294 
L 307.493006 274.123658 
L 307.817985 274.123658 
L 308.142965 274.43784 
L 308.467944 273.809476 
L 308.792924 273.809476 
L 309.117903 273.181112 
L 309.442883 273.495294 
L 310.092842 273.495294 
L 310.417821 273.809476 
L 310.742801 273.809476 
L 311.067781 274.123658 
L 311.39276 273.809476 
L 312.042719 273.809476 
L 312.367699 273.495294 
L 313.017658 273.495294 
L 313.342637 274.123658 
L 313.667617 273.809476 
L 313.992596 273.809476 
L 314.317576 273.495294 
L 314.642555 273.495294 
L 314.967535 273.181112 
L 315.617494 273.809476 
L 315.942473 273.809476 
L 316.267453 274.123658 
L 316.592432 273.495294 
L 318.21733 273.495294 
L 318.54231 273.809476 
L 318.867289 273.495294 
L 319.192269 274.123658 
L 319.517248 273.809476 
L 319.842228 273.809476 
L 320.167207 273.495294 
L 320.492187 273.809476 
L 320.817166 273.495294 
L 321.142146 273.495294 
L 321.467125 274.123658 
L 321.792105 273.809476 
L 322.767043 273.809476 
L 323.092023 274.123658 
L 323.417002 273.495294 
L 323.741982 273.809476 
L 324.066962 273.495294 
L 324.391941 274.123658 
L 324.716921 273.809476 
L 325.691859 273.809476 
L 326.016839 273.495294 
L 326.666798 274.123658 
L 326.991777 273.809476 
L 327.316757 273.809476 
L 327.641736 274.123658 
L 328.291695 273.495294 
L 328.941654 274.123658 
L 329.266634 273.809476 
L 329.591613 274.123658 
L 330.241572 274.123658 
L 330.566552 273.809476 
L 330.891532 274.123658 
L 331.216511 273.809476 
L 331.541491 273.809476 
L 331.86647 274.123658 
L 332.19145 273.809476 
L 332.516429 273.809476 
L 332.841409 274.123658 
L 333.166388 274.123658 
L 333.491368 273.809476 
L 334.466306 273.809476 
L 334.791286 274.123658 
L 335.116265 273.809476 
L 335.441245 274.43784 
L 335.766224 273.809476 
L 336.091204 274.123658 
L 336.416183 273.809476 
L 336.741163 274.123658 
L 337.066143 274.123658 
L 337.391122 273.495294 
L 337.716102 274.123658 
L 338.366061 274.123658 
L 338.69104 274.43784 
L 339.340999 274.43784 
L 339.665979 274.123658 
L 339.990958 274.123658 
L 340.315938 273.809476 
L 340.640917 274.43784 
L 341.615856 274.43784 
L 341.940835 274.123658 
L 342.265815 274.43784 
L 342.590794 274.123658 
L 342.915774 274.123658 
L 344.215692 275.380385 
L 344.865651 275.380385 
L 345.190631 274.752021 
L 345.84059 271.296021 
L 348.115446 252.130931 
L 348.440426 250.560021 
L 350.065324 246.161476 
L 351.040262 245.218931 
L 351.365242 245.218931 
L 351.690221 245.533112 
L 352.015201 245.218931 
L 352.34018 245.533112 
L 352.66516 245.533112 
L 352.990139 245.847294 
L 353.315119 246.78984 
L 353.640098 247.104021 
L 353.965078 247.732385 
L 354.290057 248.674931 
L 354.615037 248.674931 
L 354.940016 249.303294 
L 355.264996 249.303294 
L 355.589975 249.617476 
L 355.914955 249.303294 
L 356.889894 250.24584 
L 357.214873 249.931658 
L 358.514791 249.931658 
L 359.16475 249.303294 
L 359.48973 249.617476 
L 359.814709 248.989112 
L 360.139689 248.989112 
L 360.464668 248.046567 
L 360.789648 248.674931 
L 361.114627 248.046567 
L 361.439607 248.360749 
L 361.764586 248.360749 
L 362.089566 248.674931 
L 362.414545 248.046567 
L 362.739525 248.046567 
L 363.064505 248.360749 
L 364.039443 248.360749 
L 364.364423 248.046567 
L 364.689402 248.360749 
L 365.014382 248.360749 
L 365.339361 248.674931 
L 365.664341 248.360749 
L 365.98932 248.989112 
L 366.3143 248.360749 
L 366.639279 248.674931 
L 366.964259 248.360749 
L 367.614218 248.360749 
L 367.939197 248.674931 
L 368.264177 248.674931 
L 368.589156 248.360749 
L 368.914136 248.674931 
L 369.239115 248.674931 
L 369.564095 248.989112 
L 370.539034 248.989112 
L 370.864013 248.674931 
L 371.188993 248.989112 
L 371.513972 248.360749 
L 371.838952 248.674931 
L 372.163931 248.360749 
L 373.13887 248.360749 
L 373.463849 248.674931 
L 373.788829 248.360749 
L 374.113808 248.989112 
L 374.438788 248.360749 
L 374.763767 248.989112 
L 375.088747 248.989112 
L 375.738706 248.360749 
L 376.063686 248.360749 
L 376.388665 248.989112 
L 376.713645 248.360749 
L 377.038624 248.989112 
L 377.363604 251.188385 
L 377.688583 254.644385 
L 378.663522 259.985476 
L 378.988501 263.127294 
L 380.288419 281.664021 
L 380.613399 283.234931 
L 380.938378 284.177476 
L 381.263358 284.177476 
L 381.588337 283.863294 
L 382.238296 281.664021 
L 382.888256 276.951294 
L 383.538215 270.98184 
L 383.863194 269.725112 
L 384.188174 269.410931 
L 384.513153 269.725112 
L 385.163112 269.725112 
L 385.488092 269.096749 
L 385.813071 269.410931 
L 386.138051 270.353476 
L 386.78801 273.495294 
L 387.112989 274.123658 
L 387.437969 274.43784 
L 387.762948 274.43784 
L 388.412907 276.637112 
L 388.737887 276.637112 
L 389.712826 273.495294 
L 390.037805 273.495294 
L 390.362785 274.752021 
L 390.687764 274.752021 
L 391.012744 274.123658 
L 391.337723 272.552749 
L 391.662703 271.924385 
L 391.987682 271.924385 
L 392.637641 273.495294 
L 392.962621 273.181112 
L 393.61258 273.181112 
L 393.937559 273.809476 
L 394.587518 274.43784 
L 394.912498 274.123658 
L 395.237477 273.495294 
L 395.562457 274.123658 
L 395.887437 274.43784 
L 396.212416 275.066203 
L 396.537396 274.752021 
L 396.862375 273.809476 
L 397.512334 273.181112 
L 397.837314 274.123658 
L 398.162293 274.43784 
L 398.487273 274.43784 
L 398.487273 274.43784 
" clip-path="url(#pa02020443b)" style="fill: none; stroke: #1f77b4; stroke-width: 1.5; stroke-linecap: square"/>
   </g>
   <g id="line2d_13">
    <path d="M 73.832727 273.495294 
L 74.157707 273.495294 
L 74.807666 274.123658 
L 75.132645 273.495294 
L 75.457625 273.495294 
L 75.782604 273.809476 
L 76.107584 273.809476 
L 76.432563 274.123658 
L 77.082523 274.123658 
L 77.732482 273.495294 
L 78.70742 274.43784 
L 79.357379 273.809476 
L 80.007338 273.809476 
L 80.332318 274.123658 
L 80.657297 274.123658 
L 80.982277 273.809476 
L 81.632236 273.809476 
L 82.282195 274.43784 
L 82.607174 273.809476 
L 82.932154 273.495294 
L 83.257133 273.809476 
L 83.582113 273.809476 
L 83.907093 274.123658 
L 84.232072 274.123658 
L 84.557052 273.809476 
L 85.53199 273.809476 
L 85.85697 274.123658 
L 86.181949 274.123658 
L 86.506929 273.809476 
L 86.831908 274.123658 
L 87.156888 273.809476 
L 87.481867 274.123658 
L 87.806847 274.123658 
L 88.131826 273.809476 
L 89.106765 273.809476 
L 89.431744 274.123658 
L 90.081704 274.123658 
L 90.731663 273.495294 
L 91.056642 274.123658 
L 91.381622 274.123658 
L 91.706601 273.809476 
L 92.35656 273.809476 
L 92.68154 274.123658 
L 93.006519 273.809476 
L 93.331499 274.123658 
L 93.656478 273.809476 
L 93.981458 274.123658 
L 94.306437 273.809476 
L 94.631417 274.123658 
L 95.606355 274.123658 
L 95.931335 273.809476 
L 96.256314 273.809476 
L 96.581294 274.43784 
L 96.906274 274.123658 
L 97.556233 274.123658 
L 97.881212 274.43784 
L 98.206192 273.809476 
L 98.856151 273.809476 
L 99.18113 274.123658 
L 99.50611 274.123658 
L 99.831089 274.43784 
L 100.156069 274.123658 
L 100.481048 274.43784 
L 100.806028 274.43784 
L 101.131007 274.123658 
L 101.780966 274.752021 
L 102.105946 274.43784 
L 102.430925 274.752021 
L 102.755905 274.752021 
L 103.080885 274.43784 
L 103.405864 274.43784 
L 103.730844 274.123658 
L 104.055823 274.752021 
L 105.030762 275.694567 
L 105.680721 275.694567 
L 106.33068 273.495294 
L 106.655659 271.924385 
L 106.980639 269.725112 
L 108.605536 254.644385 
L 108.930516 252.130931 
L 110.230434 248.046567 
L 110.555414 246.78984 
L 110.880393 246.161476 
L 111.530352 245.533112 
L 111.855332 245.533112 
L 112.180311 245.218931 
L 112.505291 245.218931 
L 112.83027 244.904749 
L 113.805209 245.847294 
L 114.130188 245.847294 
L 114.455168 246.475658 
L 114.780147 246.78984 
L 115.430106 248.360749 
L 115.755086 248.360749 
L 116.730025 249.303294 
L 117.055004 249.931658 
L 118.029943 249.931658 
L 118.679902 250.560021 
L 119.004881 250.560021 
L 119.329861 250.24584 
L 119.65484 250.24584 
L 119.97982 249.931658 
L 120.304799 249.931658 
L 120.629779 249.617476 
L 120.954758 249.617476 
L 121.929697 248.674931 
L 122.579656 249.303294 
L 122.904636 248.674931 
L 123.229615 248.674931 
L 123.554595 248.360749 
L 123.879574 248.989112 
L 124.204554 248.360749 
L 124.854513 248.360749 
L 125.179492 248.674931 
L 125.504472 248.674931 
L 125.829451 248.046567 
L 126.154431 248.046567 
L 126.47941 248.674931 
L 126.80439 248.674931 
L 127.129369 248.360749 
L 127.454349 248.674931 
L 127.779328 248.360749 
L 128.754267 248.360749 
L 129.079247 248.989112 
L 129.404226 248.674931 
L 129.729206 248.989112 
L 131.354103 248.989112 
L 131.679083 249.303294 
L 132.329042 248.674931 
L 132.654021 248.989112 
L 132.979001 248.989112 
L 133.30398 248.674931 
L 133.953939 248.674931 
L 134.278919 248.989112 
L 134.603898 248.674931 
L 134.928878 248.674931 
L 135.253857 248.989112 
L 135.578837 248.674931 
L 135.903817 248.989112 
L 136.228796 248.989112 
L 136.553776 248.674931 
L 136.878755 248.674931 
L 137.203735 248.989112 
L 137.528714 248.674931 
L 137.853694 249.617476 
L 139.478591 259.042931 
L 139.803571 261.870567 
L 140.45353 271.924385 
L 141.103489 281.34984 
L 141.428468 284.177476 
L 142.078428 287.005112 
L 142.403407 287.005112 
L 143.053366 285.748385 
L 143.703325 281.035658 
L 144.678264 271.296021 
L 145.003243 269.725112 
L 145.653202 269.096749 
L 146.303161 267.52584 
L 146.628141 267.211658 
L 146.95312 267.840021 
L 147.928059 272.238567 
L 148.253038 272.552749 
L 148.578018 273.495294 
L 149.227977 276.637112 
L 149.552957 277.579658 
L 150.527895 275.694567 
L 151.177854 276.322931 
L 151.502834 276.951294 
L 151.827813 275.694567 
L 152.477772 272.552749 
L 152.802752 271.924385 
L 153.452711 273.495294 
L 153.77769 273.495294 
L 154.10267 272.238567 
L 154.427649 271.610203 
L 154.752629 272.238567 
L 155.402588 273.809476 
L 155.727568 273.181112 
L 156.052547 273.181112 
L 156.377527 273.495294 
L 157.027486 275.066203 
L 157.352465 275.066203 
L 157.677445 274.43784 
L 158.327404 273.809476 
L 158.652383 274.752021 
L 158.977363 275.066203 
L 159.302342 275.066203 
L 159.952301 273.181112 
L 160.277281 273.181112 
L 160.92724 273.809476 
L 161.252219 273.809476 
L 161.577199 273.495294 
L 161.902179 273.495294 
L 162.227158 273.809476 
L 162.552138 273.809476 
L 162.877117 274.123658 
L 163.202097 273.809476 
L 163.527076 273.181112 
L 163.852056 273.181112 
L 164.502015 274.43784 
L 164.826994 274.752021 
L 165.476953 273.495294 
L 165.801933 273.181112 
L 166.126912 273.495294 
L 166.451892 274.43784 
L 167.101851 274.43784 
L 167.42683 273.809476 
L 167.75181 273.495294 
L 168.07679 273.495294 
L 168.401769 274.123658 
L 168.726749 274.123658 
L 169.051728 274.43784 
L 169.701687 273.181112 
L 170.026667 273.495294 
L 170.351646 274.123658 
L 170.676626 274.43784 
L 171.001605 274.123658 
L 171.326585 273.495294 
L 171.651564 273.495294 
L 172.626503 274.43784 
L 172.951482 273.809476 
L 173.276462 273.495294 
L 173.926421 273.495294 
L 174.2514 274.43784 
L 174.57638 274.43784 
L 174.90136 273.809476 
L 175.226339 273.495294 
L 175.551319 273.809476 
L 175.876298 273.809476 
L 176.201278 274.123658 
L 176.526257 273.809476 
L 177.176216 273.809476 
L 177.501196 273.495294 
L 177.826175 274.43784 
L 179.126093 273.181112 
L 179.451073 273.809476 
L 179.776052 274.752021 
L 180.750991 273.809476 
L 181.075971 273.809476 
L 181.40095 274.123658 
L 181.72593 273.809476 
L 182.050909 274.123658 
L 182.375889 274.123658 
L 182.700868 273.809476 
L 183.025848 274.123658 
L 184.000786 274.123658 
L 184.325766 273.495294 
L 184.650745 274.123658 
L 184.975725 274.123658 
L 185.300704 274.43784 
L 185.950663 273.809476 
L 186.925602 273.809476 
L 187.250581 274.43784 
L 187.575561 274.123658 
L 188.22552 274.123658 
L 188.5505 273.809476 
L 188.875479 274.123658 
L 189.200459 274.123658 
L 189.525438 273.809476 
L 190.175397 274.43784 
L 190.500377 274.123658 
L 190.825356 274.43784 
L 191.150336 274.123658 
L 191.800295 274.123658 
L 192.125274 273.809476 
L 192.450254 274.43784 
L 192.775233 274.123658 
L 193.425192 274.123658 
L 193.750172 273.809476 
L 194.075152 274.123658 
L 194.400131 273.809476 
L 194.725111 273.809476 
L 195.05009 274.43784 
L 195.37507 274.43784 
L 195.700049 274.123658 
L 196.025029 274.43784 
L 196.350008 274.123658 
L 196.674988 274.43784 
L 197.324947 274.43784 
L 197.649926 274.123658 
L 197.974906 274.43784 
L 198.624865 274.43784 
L 198.949844 274.752021 
L 199.274824 274.43784 
L 199.599803 274.43784 
L 199.924783 274.752021 
L 200.249762 275.380385 
L 200.574742 275.380385 
L 200.899722 276.008749 
L 201.224701 275.694567 
L 201.549681 275.694567 
L 201.87466 275.066203 
L 202.19964 273.809476 
L 202.849599 269.725112 
L 204.474496 254.644385 
L 204.799476 252.130931 
L 205.449435 249.931658 
L 206.749353 246.161476 
L 207.724292 245.218931 
L 208.049271 245.218931 
L 208.374251 244.904749 
L 208.69923 244.904749 
L 209.02421 245.218931 
L 209.349189 245.218931 
L 209.674169 245.847294 
L 209.999148 245.847294 
L 210.324128 246.161476 
L 210.974087 247.418203 
L 211.299066 247.732385 
L 211.949025 248.989112 
L 212.598984 249.617476 
L 212.923964 249.303294 
L 213.248943 249.931658 
L 213.573923 249.931658 
L 213.898903 250.24584 
L 214.223882 249.931658 
L 214.873841 250.560021 
L 215.5238 249.931658 
L 216.173759 249.931658 
L 216.498739 249.617476 
L 216.823718 249.617476 
L 217.148698 248.989112 
L 217.473677 249.303294 
L 218.123636 248.674931 
L 218.448616 248.989112 
L 218.773595 248.674931 
L 219.423554 248.674931 
L 219.748534 248.360749 
L 220.073514 248.674931 
L 220.398493 248.360749 
L 221.373432 248.360749 
L 221.698411 248.046567 
L 222.023391 248.360749 
L 222.998329 248.360749 
L 223.323309 248.674931 
L 223.648288 248.674931 
L 223.973268 248.360749 
L 224.298247 248.674931 
L 224.623227 248.674931 
L 224.948206 248.360749 
L 225.598165 248.989112 
L 225.923145 248.674931 
L 226.248124 248.989112 
L 226.573104 248.989112 
L 226.898084 248.674931 
L 227.223063 248.989112 
L 228.198002 248.989112 
L 228.522981 248.674931 
L 228.847961 248.674931 
L 229.17294 248.989112 
L 229.49792 248.674931 
L 229.822899 248.989112 
L 230.147879 248.674931 
L 230.472858 248.989112 
L 230.797838 248.989112 
L 231.122817 248.674931 
L 231.447797 249.303294 
L 231.772776 249.303294 
L 232.097756 248.674931 
L 232.422735 248.989112 
L 233.072695 248.989112 
L 233.397674 248.674931 
L 233.722654 249.303294 
L 234.697592 255.272749 
L 235.022572 256.529476 
L 235.347551 258.728749 
L 235.99751 266.269112 
L 236.972449 281.34984 
L 237.622408 286.062567 
L 237.947387 287.005112 
L 238.272367 287.319294 
L 238.597346 286.690931 
L 239.247305 283.863294 
L 239.897265 277.265476 
L 240.547224 270.98184 
L 241.197183 269.096749 
L 241.522162 268.782567 
L 241.847142 267.840021 
L 242.172121 267.840021 
L 242.497101 266.897476 
L 242.82208 267.840021 
L 243.472039 270.98184 
L 244.771957 274.752021 
L 245.096937 276.637112 
L 245.421916 277.579658 
L 245.746896 277.265476 
L 246.396855 275.694567 
L 246.721835 275.694567 
L 247.046814 276.637112 
L 247.371794 276.637112 
L 248.021753 273.809476 
L 248.346732 272.238567 
L 248.996691 272.866931 
L 249.321671 273.495294 
L 249.64665 273.181112 
L 249.97163 272.238567 
L 250.296609 271.924385 
L 250.621589 272.238567 
L 250.946568 272.866931 
L 251.271548 273.809476 
L 251.921507 273.181112 
L 252.246486 273.495294 
L 252.896446 275.066203 
L 253.221425 275.066203 
L 253.871384 273.809476 
L 254.196364 273.809476 
L 254.846323 275.066203 
L 255.171302 275.066203 
L 255.496282 274.43784 
L 255.821261 273.181112 
L 256.146241 272.866931 
L 256.7962 274.123658 
L 257.771138 273.181112 
L 258.096118 273.181112 
L 258.746077 273.809476 
L 259.071057 273.495294 
L 259.396036 273.495294 
L 259.721016 273.181112 
L 260.045995 273.809476 
L 260.370975 274.123658 
L 260.695954 274.752021 
L 261.345913 273.495294 
L 261.670893 273.181112 
L 261.995872 273.495294 
L 262.645831 274.752021 
L 262.970811 274.43784 
L 263.29579 273.809476 
L 263.945749 273.181112 
L 264.270729 273.809476 
L 264.595708 274.123658 
L 265.245667 273.495294 
L 265.895627 273.495294 
L 266.220606 274.123658 
L 266.870565 274.123658 
L 267.520524 273.495294 
L 267.845504 273.809476 
L 268.170483 274.43784 
L 268.820442 273.809476 
L 269.145422 273.809476 
L 269.470401 273.495294 
L 269.795381 274.123658 
L 270.44534 274.123658 
L 271.095299 273.495294 
L 271.420278 273.809476 
L 271.745258 273.809476 
L 272.070238 274.43784 
L 272.395217 274.43784 
L 272.720197 273.495294 
L 273.695135 274.43784 
L 274.345094 273.809476 
L 274.670074 273.809476 
L 274.995053 273.495294 
L 275.320033 273.495294 
L 275.645012 274.123658 
L 275.969992 274.123658 
L 276.294971 273.809476 
L 277.26991 273.809476 
L 277.594889 274.123658 
L 278.569828 274.123658 
L 278.894808 273.809476 
L 279.219787 274.123658 
L 279.869746 274.123658 
L 280.194726 273.809476 
L 280.519705 273.809476 
L 280.844685 274.123658 
L 281.819623 274.123658 
L 282.144603 273.809476 
L 282.469582 274.123658 
L 283.7695 274.123658 
L 284.09448 273.809476 
L 284.419459 273.809476 
L 284.744439 274.123658 
L 285.069419 274.123658 
L 285.394398 273.809476 
L 286.044357 273.809476 
L 286.694316 274.43784 
L 287.344275 273.809476 
L 287.994234 274.43784 
L 288.969173 274.43784 
L 289.294152 274.123658 
L 289.619132 274.123658 
L 289.944111 273.809476 
L 290.269091 274.123658 
L 291.569009 274.123658 
L 291.893989 274.43784 
L 292.218968 274.123658 
L 292.543948 274.43784 
L 292.868927 274.43784 
L 293.193907 274.752021 
L 293.518886 274.43784 
L 294.168845 274.43784 
L 294.493825 274.752021 
L 294.818804 274.43784 
L 295.468763 274.43784 
L 295.793743 274.752021 
L 296.118722 274.752021 
L 296.443702 275.694567 
L 296.768681 276.008749 
L 297.093661 276.008749 
L 297.41864 275.694567 
L 297.74362 275.066203 
L 298.393579 272.238567 
L 300.668436 252.445112 
L 301.318395 249.617476 
L 301.643374 249.303294 
L 301.968354 247.732385 
L 302.943292 245.847294 
L 303.268272 245.533112 
L 303.593251 245.533112 
L 304.24321 244.904749 
L 304.89317 244.904749 
L 305.218149 245.533112 
L 305.543129 245.533112 
L 305.868108 246.161476 
L 306.193088 246.161476 
L 306.518067 246.78984 
L 306.843047 247.732385 
L 307.168026 248.046567 
L 307.493006 248.674931 
L 307.817985 248.674931 
L 308.467944 249.931658 
L 308.792924 249.931658 
L 309.117903 250.24584 
L 309.442883 250.24584 
L 309.767862 250.560021 
L 310.092842 250.24584 
L 310.742801 250.24584 
L 311.067781 250.560021 
L 311.39276 249.931658 
L 312.367699 249.931658 
L 312.692678 249.617476 
L 313.017658 249.617476 
L 313.342637 248.989112 
L 313.667617 249.303294 
L 314.317576 248.674931 
L 314.642555 248.674931 
L 314.967535 248.989112 
L 315.292514 248.360749 
L 315.617494 248.674931 
L 315.942473 248.360749 
L 316.917412 248.360749 
L 317.242391 248.046567 
L 317.567371 248.360749 
L 318.54231 248.360749 
L 318.867289 248.674931 
L 319.192269 248.360749 
L 319.517248 248.360749 
L 320.167207 248.989112 
L 320.492187 248.360749 
L 320.817166 248.360749 
L 321.467125 248.989112 
L 321.792105 248.989112 
L 322.117084 248.674931 
L 322.442064 248.674931 
L 323.092023 249.303294 
L 323.417002 249.303294 
L 323.741982 248.989112 
L 324.391941 248.989112 
L 324.716921 248.674931 
L 325.0419 248.674931 
L 325.36688 248.989112 
L 325.691859 248.674931 
L 326.016839 248.674931 
L 326.341818 248.989112 
L 328.616675 248.989112 
L 328.941654 248.674931 
L 329.266634 248.989112 
L 329.591613 249.617476 
L 331.216511 258.414567 
L 331.86647 266.583294 
L 332.841409 281.035658 
L 333.491368 286.062567 
L 333.816347 287.005112 
L 334.141327 287.319294 
L 334.466306 286.690931 
L 334.791286 285.434203 
L 335.441245 281.035658 
L 336.416183 271.296021 
L 336.741163 269.725112 
L 337.066143 269.096749 
L 337.391122 268.782567 
L 338.041081 267.211658 
L 338.366061 266.897476 
L 339.01602 269.096749 
L 339.665979 272.238567 
L 339.990958 272.552749 
L 340.315938 273.181112 
L 340.965897 276.951294 
L 341.290876 277.265476 
L 341.615856 277.265476 
L 342.265815 275.694567 
L 342.590794 275.694567 
L 342.915774 276.322931 
L 343.240753 276.637112 
L 343.565733 275.694567 
L 344.215692 272.238567 
L 344.540672 272.238567 
L 345.190631 273.809476 
L 346.165569 271.924385 
L 346.490549 271.924385 
L 346.815528 272.552749 
L 347.140508 273.495294 
L 347.465487 273.495294 
L 347.790467 273.181112 
L 348.115446 273.495294 
L 348.765405 275.066203 
L 349.090385 275.380385 
L 349.740344 273.495294 
L 350.065324 273.809476 
L 350.390303 274.752021 
L 351.040262 275.380385 
L 351.690221 273.181112 
L 352.015201 273.181112 
L 352.66516 274.43784 
L 352.990139 274.123658 
L 353.315119 273.495294 
L 353.640098 273.181112 
L 353.965078 273.181112 
L 354.290057 274.123658 
L 354.615037 274.123658 
L 355.264996 273.495294 
L 355.914955 273.495294 
L 356.239934 274.43784 
L 356.564914 274.43784 
L 356.889894 274.123658 
L 357.214873 273.495294 
L 357.539853 273.181112 
L 358.189812 274.43784 
L 358.839771 274.43784 
L 359.16475 274.123658 
L 359.48973 273.181112 
L 360.139689 273.809476 
L 360.464668 274.43784 
L 360.789648 274.43784 
L 361.114627 273.809476 
L 361.439607 273.495294 
L 361.764586 273.809476 
L 362.089566 273.809476 
L 362.414545 274.123658 
L 362.739525 273.495294 
L 363.064505 273.181112 
L 363.389484 273.181112 
L 363.714464 273.495294 
L 364.039443 274.123658 
L 364.364423 274.123658 
L 365.339361 273.181112 
L 365.664341 273.495294 
L 365.98932 274.123658 
L 366.639279 274.123658 
L 367.289238 273.495294 
L 367.614218 274.123658 
L 367.939197 274.123658 
L 368.264177 273.809476 
L 368.589156 273.809476 
L 368.914136 273.495294 
L 369.239115 273.809476 
L 369.564095 273.809476 
L 369.889075 274.123658 
L 370.539034 273.495294 
L 370.864013 273.495294 
L 371.188993 274.123658 
L 371.513972 274.43784 
L 372.163931 274.43784 
L 372.488911 273.495294 
L 372.81389 273.495294 
L 373.463849 274.123658 
L 373.788829 273.809476 
L 376.713645 273.809476 
L 377.363604 274.43784 
L 377.688583 273.809476 
L 378.013563 273.495294 
L 378.663522 274.123658 
L 378.988501 274.123658 
L 379.313481 273.809476 
L 379.96344 273.809476 
L 380.288419 274.123658 
L 380.613399 274.123658 
L 380.938378 273.809476 
L 381.263358 274.123658 
L 381.913317 273.495294 
L 382.238296 274.123658 
L 382.563276 274.123658 
L 382.888256 273.809476 
L 383.213235 274.123658 
L 383.538215 273.809476 
L 383.863194 274.123658 
L 384.513153 274.123658 
L 384.838133 274.43784 
L 385.163112 274.123658 
L 385.813071 274.123658 
L 386.138051 273.809476 
L 386.46303 274.123658 
L 387.112989 274.123658 
L 387.437969 274.43784 
L 387.762948 274.43784 
L 388.087928 274.123658 
L 388.412907 274.123658 
L 389.062867 274.752021 
L 389.712826 274.123658 
L 390.037805 274.43784 
L 391.337723 274.43784 
L 392.312662 275.380385 
L 392.637641 276.008749 
L 393.61258 275.066203 
L 394.262539 272.238567 
L 394.912498 266.897476 
L 396.212416 254.644385 
L 396.537396 252.445112 
L 397.512334 248.674931 
L 397.837314 248.046567 
L 398.487273 246.161476 
L 398.487273 246.161476 
" clip-path="url(#pa02020443b)" style="fill: none; stroke: #ff7f0e; stroke-width: 1.5; stroke-linecap: square"/>
   </g>
   <g id="line2d_14">
    <path d="M 73.832727 279.778909 
L 74.157707 282.920727 
L 74.482686 279.778909 
L 75.132645 279.778909 
L 75.457625 282.920727 
L 75.782604 282.920727 
L 76.107584 286.062545 
L 76.432563 276.637091 
L 77.082523 282.920727 
L 77.407502 282.920727 
L 77.732482 279.778909 
L 78.057461 282.920727 
L 78.382441 282.920727 
L 78.70742 279.778909 
L 79.0324 273.495273 
L 80.007338 282.920727 
L 80.332318 279.778909 
L 80.657297 279.778909 
L 81.307256 286.062545 
L 81.632236 279.778909 
L 81.957215 276.637091 
L 82.282195 282.920727 
L 82.932154 282.920727 
L 83.257133 286.062545 
L 83.907093 286.062545 
L 84.232072 279.778909 
L 84.557052 282.920727 
L 84.882031 279.778909 
L 85.207011 282.920727 
L 85.53199 279.778909 
L 85.85697 279.778909 
L 86.181949 282.920727 
L 87.806847 282.920727 
L 88.131826 279.778909 
L 88.456806 286.062545 
L 89.106765 286.062545 
L 89.431744 276.637091 
L 89.756724 282.920727 
L 90.081704 282.920727 
L 90.406683 286.062545 
L 90.731663 282.920727 
L 91.706601 282.920727 
L 92.031581 276.637091 
L 92.35656 273.495273 
L 92.68154 267.211636 
L 93.006519 257.786182 
L 93.331499 242.077091 
L 93.656478 238.935273 
L 93.981458 229.509818 
L 94.631417 223.226182 
L 94.956396 226.368 
L 95.606355 204.375273 
L 95.931335 191.808 
L 96.256314 172.957091 
L 96.581294 172.957091 
L 96.906274 179.240727 
L 97.231253 182.382545 
L 97.556233 179.240727 
L 97.881212 160.389818 
L 98.206192 132.113455 
L 98.531171 119.546182 
L 99.50611 150.964364 
L 100.156069 116.404364 
L 100.481048 94.411636 
L 100.806028 91.269818 
L 101.455987 113.262545 
L 101.780966 110.120727 
L 102.430925 78.702545 
L 102.755905 81.844364 
L 103.080885 91.269818 
L 103.405864 88.128 
L 104.380803 62.993455 
L 105.030762 84.986182 
L 105.355741 84.986182 
L 106.33068 56.709818 
L 107.305618 84.986182 
L 107.630598 75.560727 
L 107.955577 72.418909 
L 108.280557 66.135273 
L 108.605536 69.277091 
L 108.930516 75.560727 
L 109.255495 78.702545 
L 109.580475 78.702545 
L 109.905455 72.418909 
L 110.230434 72.418909 
L 110.555414 81.844364 
L 110.880393 84.986182 
L 111.205373 81.844364 
L 111.530352 72.418909 
L 111.855332 72.418909 
L 112.180311 78.702545 
L 112.505291 88.128 
L 113.480229 88.128 
L 113.805209 81.844364 
L 114.130188 81.844364 
L 114.780147 94.411636 
L 115.105127 97.553455 
L 115.430106 94.411636 
L 116.080066 94.411636 
L 116.405045 97.553455 
L 116.730025 94.411636 
L 117.055004 94.411636 
L 117.379984 97.553455 
L 118.029943 97.553455 
L 118.679902 103.837091 
L 119.004881 97.553455 
L 119.329861 94.411636 
L 119.65484 97.553455 
L 119.97982 97.553455 
L 120.304799 100.695273 
L 120.629779 97.553455 
L 120.954758 100.695273 
L 121.929697 91.269818 
L 122.254676 94.411636 
L 122.904636 94.411636 
L 123.229615 91.269818 
L 123.554595 94.411636 
L 124.204554 94.411636 
L 124.529533 88.128 
L 124.854513 88.128 
L 125.179492 84.986182 
L 125.829451 84.986182 
L 126.154431 88.128 
L 126.80439 88.128 
L 127.454349 75.560727 
L 127.779328 78.702545 
L 128.104308 78.702545 
L 128.429287 75.560727 
L 128.754267 78.702545 
L 129.079247 78.702545 
L 129.404226 75.560727 
L 130.054185 75.560727 
L 130.379165 72.418909 
L 130.704144 72.418909 
L 131.029124 69.277091 
L 131.354103 75.560727 
L 131.679083 75.560727 
L 132.004062 78.702545 
L 132.329042 78.702545 
L 132.654021 72.418909 
L 132.979001 75.560727 
L 133.30398 75.560727 
L 133.62896 69.277091 
L 133.953939 75.560727 
L 134.278919 78.702545 
L 134.603898 78.702545 
L 135.578837 88.128 
L 136.228796 88.128 
L 136.553776 91.269818 
L 136.878755 91.269818 
L 137.203735 97.553455 
L 137.528714 97.553455 
L 137.853694 100.695273 
L 138.178673 106.978909 
L 138.828632 106.978909 
L 139.478591 122.688 
L 140.778509 135.255273 
L 141.103489 141.538909 
L 141.428468 141.538909 
L 141.753448 147.822545 
L 142.078428 150.964364 
L 142.403407 160.389818 
L 144.028305 176.098909 
L 144.678264 191.808 
L 145.003243 198.091636 
L 145.328223 201.233455 
L 145.978182 213.800727 
L 146.303161 216.942545 
L 146.628141 216.942545 
L 146.95312 223.226182 
L 147.2781 223.226182 
L 147.603079 232.651636 
L 147.928059 235.793455 
L 148.253038 242.077091 
L 148.902998 248.360727 
L 149.227977 248.360727 
L 149.552957 251.502545 
L 149.877936 257.786182 
L 150.527895 264.069818 
L 150.852875 270.353455 
L 151.177854 270.353455 
L 151.502834 276.637091 
L 151.827813 273.495273 
L 152.152793 282.920727 
L 152.477772 282.920727 
L 152.802752 289.204364 
L 153.127731 286.062545 
L 153.452711 289.204364 
L 153.77769 286.062545 
L 154.10267 289.204364 
L 154.427649 286.062545 
L 154.752629 289.204364 
L 155.077609 295.488 
L 155.402588 292.346182 
L 155.727568 286.062545 
L 156.702506 286.062545 
L 157.027486 282.920727 
L 157.352465 286.062545 
L 158.002424 286.062545 
L 158.327404 282.920727 
L 158.652383 286.062545 
L 159.302342 286.062545 
L 159.627322 282.920727 
L 159.952301 286.062545 
L 160.277281 282.920727 
L 160.60226 282.920727 
L 160.92724 279.778909 
L 161.252219 282.920727 
L 161.902179 282.920727 
L 162.227158 273.495273 
L 162.552138 279.778909 
L 162.877117 279.778909 
L 163.202097 276.637091 
L 163.527076 279.778909 
L 163.852056 279.778909 
L 164.177035 282.920727 
L 164.826994 282.920727 
L 165.151974 279.778909 
L 165.476953 282.920727 
L 165.801933 282.920727 
L 166.126912 279.778909 
L 166.451892 286.062545 
L 166.776871 282.920727 
L 167.101851 286.062545 
L 167.42683 279.778909 
L 167.75181 279.778909 
L 168.07679 282.920727 
L 168.401769 282.920727 
L 169.051728 276.637091 
L 169.701687 282.920727 
L 170.026667 279.778909 
L 171.326585 279.778909 
L 171.651564 286.062545 
L 172.301523 286.062545 
L 172.626503 279.778909 
L 172.951482 282.920727 
L 173.276462 282.920727 
L 173.601441 286.062545 
L 173.926421 282.920727 
L 174.2514 286.062545 
L 174.57638 282.920727 
L 174.90136 286.062545 
L 175.551319 279.778909 
L 175.876298 282.920727 
L 176.201278 279.778909 
L 176.526257 279.778909 
L 176.851237 282.920727 
L 177.176216 282.920727 
L 177.501196 286.062545 
L 177.826175 279.778909 
L 178.151155 286.062545 
L 178.476134 286.062545 
L 178.801114 282.920727 
L 179.126093 282.920727 
L 179.451073 286.062545 
L 179.776052 282.920727 
L 180.101032 282.920727 
L 180.426011 279.778909 
L 180.750991 282.920727 
L 181.40095 282.920727 
L 181.72593 279.778909 
L 182.050909 279.778909 
L 182.700868 286.062545 
L 183.025848 282.920727 
L 183.350827 286.062545 
L 184.000786 286.062545 
L 184.325766 279.778909 
L 184.650745 282.920727 
L 184.975725 282.920727 
L 185.300704 286.062545 
L 185.625684 282.920727 
L 185.950663 286.062545 
L 186.600622 286.062545 
L 186.925602 282.920727 
L 187.250581 289.204364 
L 187.575561 286.062545 
L 187.900541 279.778909 
L 188.22552 270.353455 
L 188.5505 270.353455 
L 189.200459 248.360727 
L 190.175397 223.226182 
L 190.500377 226.368 
L 190.825356 223.226182 
L 191.150336 216.942545 
L 191.475315 204.375273 
L 192.125274 169.815273 
L 192.775233 176.098909 
L 193.100213 188.666182 
L 193.750172 160.389818 
L 194.075152 135.255273 
L 194.400131 122.688 
L 194.725111 128.971636 
L 195.05009 144.680727 
L 195.37507 150.964364 
L 195.700049 135.255273 
L 196.350008 91.269818 
L 196.674988 91.269818 
L 197.324947 113.262545 
L 197.649926 113.262545 
L 198.299885 84.986182 
L 198.624865 78.702545 
L 198.949844 91.269818 
L 199.274824 91.269818 
L 199.599803 84.986182 
L 199.924783 69.277091 
L 200.249762 69.277091 
L 200.574742 75.560727 
L 200.899722 88.128 
L 201.224701 84.986182 
L 201.549681 78.702545 
L 201.87466 62.993455 
L 202.19964 59.851636 
L 202.524619 62.993455 
L 202.849599 78.702545 
L 203.499558 78.702545 
L 203.824537 66.135273 
L 204.149517 69.277091 
L 204.474496 69.277091 
L 204.799476 75.560727 
L 205.124455 78.702545 
L 205.449435 72.418909 
L 205.774414 69.277091 
L 206.099394 75.560727 
L 206.424373 78.702545 
L 206.749353 84.986182 
L 207.074333 84.986182 
L 207.399312 75.560727 
L 207.724292 72.418909 
L 208.374251 84.986182 
L 208.69923 94.411636 
L 209.02421 88.128 
L 209.674169 81.844364 
L 210.974087 94.411636 
L 211.949025 94.411636 
L 212.274005 97.553455 
L 212.923964 91.269818 
L 213.248943 94.411636 
L 213.573923 94.411636 
L 213.898903 100.695273 
L 214.223882 97.553455 
L 214.548862 103.837091 
L 215.5238 94.411636 
L 216.173759 100.695273 
L 216.498739 100.695273 
L 216.823718 94.411636 
L 217.148698 97.553455 
L 217.798657 91.269818 
L 218.123636 94.411636 
L 219.098575 94.411636 
L 219.423554 91.269818 
L 219.748534 91.269818 
L 220.073514 88.128 
L 220.723473 88.128 
L 221.048452 84.986182 
L 221.373432 84.986182 
L 221.698411 88.128 
L 222.023391 84.986182 
L 222.34837 88.128 
L 222.67335 84.986182 
L 222.998329 78.702545 
L 223.323309 75.560727 
L 223.648288 78.702545 
L 223.973268 75.560727 
L 224.298247 78.702545 
L 224.623227 78.702545 
L 224.948206 81.844364 
L 225.273186 78.702545 
L 225.598165 78.702545 
L 226.248124 72.418909 
L 226.573104 72.418909 
L 226.898084 75.560727 
L 227.548043 75.560727 
L 227.873022 78.702545 
L 228.198002 75.560727 
L 229.17294 75.560727 
L 229.49792 78.702545 
L 229.822899 75.560727 
L 230.147879 81.844364 
L 230.472858 81.844364 
L 230.797838 88.128 
L 231.772776 88.128 
L 232.097756 94.411636 
L 232.422735 94.411636 
L 233.072695 100.695273 
L 233.722654 100.695273 
L 234.047633 106.978909 
L 234.697592 113.262545 
L 235.022572 113.262545 
L 235.347551 122.688 
L 235.672531 125.829818 
L 235.99751 132.113455 
L 236.32249 132.113455 
L 236.647469 135.255273 
L 237.297428 147.822545 
L 237.622408 147.822545 
L 237.947387 150.964364 
L 238.272367 157.248 
L 238.922326 163.531636 
L 239.572285 179.240727 
L 239.897265 185.524364 
L 240.222244 185.524364 
L 240.547224 194.949818 
L 240.872203 198.091636 
L 241.197183 204.375273 
L 241.522162 204.375273 
L 242.172121 216.942545 
L 242.497101 226.368 
L 242.82208 223.226182 
L 243.14706 229.509818 
L 244.121998 238.935273 
L 244.446978 248.360727 
L 245.096937 254.644364 
L 245.421916 251.502545 
L 245.746896 260.928 
L 246.071876 260.928 
L 246.396855 267.211636 
L 248.021753 282.920727 
L 248.346732 282.920727 
L 248.671712 286.062545 
L 248.996691 282.920727 
L 249.64665 289.204364 
L 249.97163 289.204364 
L 250.296609 292.346182 
L 250.621589 286.062545 
L 250.946568 289.204364 
L 251.271548 286.062545 
L 252.896446 286.062545 
L 253.546405 279.778909 
L 253.871384 282.920727 
L 254.196364 282.920727 
L 254.521343 279.778909 
L 254.846323 286.062545 
L 255.496282 286.062545 
L 255.821261 279.778909 
L 256.146241 282.920727 
L 257.446159 282.920727 
L 257.771138 279.778909 
L 258.096118 282.920727 
L 258.421097 276.637091 
L 258.746077 279.778909 
L 259.396036 279.778909 
L 259.721016 276.637091 
L 260.045995 286.062545 
L 260.370975 286.062545 
L 260.695954 282.920727 
L 261.020934 276.637091 
L 261.345913 282.920727 
L 262.320852 282.920727 
L 262.645831 286.062545 
L 262.970811 282.920727 
L 263.29579 282.920727 
L 263.62077 279.778909 
L 264.595708 279.778909 
L 264.920688 276.637091 
L 265.570647 276.637091 
L 265.895627 279.778909 
L 266.220606 276.637091 
L 266.545586 282.920727 
L 267.195545 282.920727 
L 267.520524 279.778909 
L 267.845504 286.062545 
L 268.170483 282.920727 
L 268.495463 282.920727 
L 268.820442 279.778909 
L 269.145422 279.778909 
L 269.470401 282.920727 
L 269.795381 282.920727 
L 270.12036 279.778909 
L 270.44534 279.778909 
L 271.095299 286.062545 
L 271.420278 276.637091 
L 271.745258 282.920727 
L 273.370156 282.920727 
L 273.695135 286.062545 
L 274.020115 279.778909 
L 274.670074 286.062545 
L 274.995053 282.920727 
L 275.320033 286.062545 
L 275.645012 286.062545 
L 275.969992 282.920727 
L 276.294971 286.062545 
L 276.619951 279.778909 
L 276.94493 282.920727 
L 277.26991 276.637091 
L 277.594889 282.920727 
L 277.919869 279.778909 
L 278.244848 286.062545 
L 278.894808 286.062545 
L 279.219787 282.920727 
L 279.544767 282.920727 
L 279.869746 286.062545 
L 280.194726 282.920727 
L 280.844685 282.920727 
L 281.494644 289.204364 
L 281.819623 282.920727 
L 282.144603 286.062545 
L 282.469582 282.920727 
L 282.794562 282.920727 
L 283.119541 279.778909 
L 283.444521 282.920727 
L 284.09448 270.353455 
L 284.419459 260.928 
L 284.744439 257.786182 
L 285.069419 248.360727 
L 285.394398 232.651636 
L 285.719378 223.226182 
L 286.044357 223.226182 
L 286.369337 226.368 
L 286.694316 226.368 
L 287.019296 216.942545 
L 287.669255 185.524364 
L 288.319214 172.957091 
L 288.969173 185.524364 
L 289.294152 179.240727 
L 289.944111 135.255273 
L 290.269091 128.971636 
L 290.59407 128.971636 
L 291.244029 150.964364 
L 291.569009 138.397091 
L 292.218968 88.128 
L 292.543948 91.269818 
L 293.193907 113.262545 
L 293.518886 110.120727 
L 294.168845 81.844364 
L 294.493825 81.844364 
L 294.818804 88.128 
L 295.143784 88.128 
L 295.468763 81.844364 
L 295.793743 69.277091 
L 296.118722 69.277091 
L 296.443702 75.560727 
L 296.768681 84.986182 
L 297.093661 84.986182 
L 297.74362 56.709818 
L 298.0686 56.709818 
L 299.043538 81.844364 
L 299.368518 78.702545 
L 299.693497 66.135273 
L 300.018477 59.851636 
L 300.668436 75.560727 
L 300.993415 75.560727 
L 301.318395 69.277091 
L 301.968354 75.560727 
L 302.293333 84.986182 
L 303.268272 75.560727 
L 303.918231 75.560727 
L 304.24321 81.844364 
L 304.56819 91.269818 
L 304.89317 91.269818 
L 305.218149 84.986182 
L 305.543129 81.844364 
L 306.193088 88.128 
L 306.518067 88.128 
L 306.843047 94.411636 
L 307.168026 94.411636 
L 307.493006 97.553455 
L 307.817985 94.411636 
L 308.142965 97.553455 
L 308.792924 97.553455 
L 309.117903 94.411636 
L 309.442883 97.553455 
L 309.767862 97.553455 
L 310.092842 100.695273 
L 310.417821 97.553455 
L 310.742801 100.695273 
L 311.067781 97.553455 
L 311.39276 91.269818 
L 311.71774 94.411636 
L 312.042719 100.695273 
L 312.367699 100.695273 
L 312.692678 103.837091 
L 313.017658 94.411636 
L 313.992596 94.411636 
L 314.317576 91.269818 
L 314.642555 94.411636 
L 314.967535 91.269818 
L 315.292514 94.411636 
L 315.617494 88.128 
L 315.942473 94.411636 
L 316.267453 91.269818 
L 316.592432 84.986182 
L 316.917412 81.844364 
L 317.892351 91.269818 
L 318.54231 84.986182 
L 318.867289 78.702545 
L 319.192269 81.844364 
L 319.517248 78.702545 
L 319.842228 81.844364 
L 320.167207 81.844364 
L 320.492187 84.986182 
L 320.817166 75.560727 
L 321.142146 78.702545 
L 322.117084 69.277091 
L 322.442064 78.702545 
L 322.767043 75.560727 
L 323.092023 78.702545 
L 323.417002 72.418909 
L 323.741982 75.560727 
L 324.066962 75.560727 
L 324.391941 78.702545 
L 324.716921 78.702545 
L 325.0419 75.560727 
L 325.691859 81.844364 
L 326.341818 81.844364 
L 326.666798 84.986182 
L 326.991777 81.844364 
L 327.316757 81.844364 
L 327.641736 88.128 
L 328.291695 94.411636 
L 328.616675 94.411636 
L 328.941654 97.553455 
L 329.266634 103.837091 
L 329.591613 103.837091 
L 331.216511 119.546182 
L 331.86647 132.113455 
L 332.516429 138.397091 
L 332.841409 144.680727 
L 333.166388 141.538909 
L 333.491368 154.106182 
L 333.816347 154.106182 
L 334.141327 160.389818 
L 334.466306 163.531636 
L 334.791286 172.957091 
L 335.116265 176.098909 
L 335.441245 176.098909 
L 336.091204 191.808 
L 336.416183 188.666182 
L 337.391122 207.517091 
L 337.716102 207.517091 
L 338.041081 213.800727 
L 338.69104 229.509818 
L 339.01602 229.509818 
L 339.665979 235.793455 
L 339.990958 245.218909 
L 340.640917 251.502545 
L 340.965897 251.502545 
L 341.290876 254.644364 
L 341.615856 254.644364 
L 341.940835 260.928 
L 342.265815 270.353455 
L 342.915774 270.353455 
L 343.240753 273.495273 
L 343.565733 273.495273 
L 343.890713 282.920727 
L 344.215692 279.778909 
L 344.540672 289.204364 
L 344.865651 286.062545 
L 345.190631 289.204364 
L 345.84059 289.204364 
L 346.165569 292.346182 
L 346.815528 292.346182 
L 348.115446 279.778909 
L 348.440426 286.062545 
L 348.765405 282.920727 
L 349.090385 286.062545 
L 349.415364 279.778909 
L 349.740344 282.920727 
L 350.065324 279.778909 
L 350.390303 282.920727 
L 350.715283 282.920727 
L 351.040262 286.062545 
L 351.690221 286.062545 
L 352.34018 279.778909 
L 352.66516 282.920727 
L 352.990139 279.778909 
L 353.315119 279.778909 
L 353.640098 282.920727 
L 353.965078 282.920727 
L 354.615037 276.637091 
L 354.940016 279.778909 
L 355.264996 279.778909 
L 355.589975 282.920727 
L 355.914955 276.637091 
L 356.239934 282.920727 
L 356.889894 282.920727 
L 357.214873 279.778909 
L 357.864832 286.062545 
L 358.514791 279.778909 
L 358.839771 282.920727 
L 359.48973 282.920727 
L 359.814709 276.637091 
L 360.139689 282.920727 
L 360.464668 279.778909 
L 361.114627 279.778909 
L 361.439607 282.920727 
L 362.414545 282.920727 
L 362.739525 279.778909 
L 363.064505 286.062545 
L 363.389484 282.920727 
L 363.714464 282.920727 
L 364.039443 289.204364 
L 364.364423 286.062545 
L 364.689402 286.062545 
L 365.014382 279.778909 
L 365.339361 286.062545 
L 365.664341 286.062545 
L 365.98932 282.920727 
L 367.289238 282.920727 
L 367.939197 276.637091 
L 368.589156 282.920727 
L 368.914136 279.778909 
L 369.239115 282.920727 
L 369.889075 282.920727 
L 370.214054 279.778909 
L 370.539034 286.062545 
L 370.864013 282.920727 
L 371.188993 286.062545 
L 371.513972 282.920727 
L 372.488911 282.920727 
L 372.81389 279.778909 
L 373.13887 282.920727 
L 373.463849 282.920727 
L 373.788829 279.778909 
L 374.113808 279.778909 
L 374.438788 286.062545 
L 374.763767 282.920727 
L 375.088747 286.062545 
L 375.413726 279.778909 
L 375.738706 286.062545 
L 376.063686 282.920727 
L 376.388665 286.062545 
L 376.713645 282.920727 
L 377.363604 282.920727 
L 377.688583 286.062545 
L 378.013563 282.920727 
L 378.338542 282.920727 
L 378.663522 286.062545 
L 379.63846 276.637091 
L 379.96344 270.353455 
L 380.288419 267.211636 
L 380.613399 254.644364 
L 380.938378 248.360727 
L 381.913317 220.084364 
L 382.563276 226.368 
L 382.888256 220.084364 
L 383.538215 182.382545 
L 383.863194 172.957091 
L 384.188174 169.815273 
L 384.838133 182.382545 
L 385.163112 172.957091 
L 385.488092 157.248 
L 385.813071 128.971636 
L 386.138051 119.546182 
L 386.46303 128.971636 
L 386.78801 147.822545 
L 387.112989 147.822545 
L 387.437969 132.113455 
L 388.087928 94.411636 
L 388.412907 88.128 
L 389.062867 113.262545 
L 389.387846 106.978909 
L 389.712826 88.128 
L 390.037805 81.844364 
L 390.362785 81.844364 
L 390.687764 94.411636 
L 391.012744 88.128 
L 391.337723 84.986182 
L 391.662703 69.277091 
L 391.987682 69.277091 
L 392.312662 75.560727 
L 392.637641 88.128 
L 392.962621 88.128 
L 393.2876 78.702545 
L 393.61258 56.709818 
L 393.937559 53.568 
L 394.587518 78.702545 
L 395.237477 78.702545 
L 395.562457 69.277091 
L 395.887437 72.418909 
L 396.212416 69.277091 
L 396.537396 75.560727 
L 397.187355 75.560727 
L 397.512334 72.418909 
L 397.837314 75.560727 
L 398.162293 81.844364 
L 398.487273 84.986182 
L 398.487273 84.986182 
" clip-path="url(#pa02020443b)" style="fill: none; stroke: #2ca02c; stroke-width: 1.5; stroke-linecap: square"/>
   </g>
   <g id="patch_3">
    <path d="M 57.6 307.584 
L 57.6 41.472 
" style="fill: none; stroke: #000000; stroke-width: 0.8; stroke-linejoin: miter; stroke-linecap: square"/>
   </g>
   <g id="patch_4">
    <path d="M 414.72 307.584 
L 414.72 41.472 
" style="fill: none; stroke: #000000; stroke-width: 0.8; stroke-linejoin: miter; stroke-linecap: square"/>
   </g>
   <g id="patch_5">
    <path d="M 57.6 307.584 
L 414.72 307.584 
" style="fill: none; stroke: #000000; stroke-width: 0.8; stroke-linejoin: miter; stroke-linecap: square"/>
   </g>
   <g id="patch_6">
    <path d="M 57.6 41.472 
L 414.72 41.472 
" style="fill: none; stroke: #000000; stroke-width: 0.8; stroke-linejoin: miter; stroke-linecap: square"/>
   </g>
  </g>
 </g>
 <defs>
  <clipPath id="pa02020443b">
   <rect x="57.6" y="41.472" width="357.12" height="266.112"/>
  </clipPath>
 </defs>
</svg>
