<?xml version="1.0" encoding="utf-8" standalone="no"?>
<!DOCTYPE svg PUBLIC "-//W3C//DTD SVG 1.1//EN"
  "http://www.w3.org/Graphics/SVG/1.1/DTD/svg11.dtd">
<svg xmlns:xlink="http://www.w3.org/1999/xlink" width="460.8pt" height="345.6pt" viewBox="0 0 460.8 345.6" xmlns="http://www.w3.org/2000/svg" version="1.1">
 <metadata>
  <rdf:RDF xmlns:dc="http://purl.org/dc/elements/1.1/" xmlns:cc="http://creativecommons.org/ns#" xmlns:rdf="http://www.w3.org/1999/02/22-rdf-syntax-ns#">
   <cc:Work>
    <dc:type rdf:resource="http://purl.org/dc/dcmitype/StillImage"/>
    <dc:date>2025-12-26T13:54:58.403786</dc:date>
    <dc:format>image/svg+xml</dc:format>
    <dc:creator>
     <cc:Agent>
      <dc:title>Matplotlib v3.10.8, https://matplotlib.org/</dc:title>
     </cc:Agent>
    </dc:creator>
   </cc:Work>
  </rdf:RDF>
 </metadata>
 <defs>
  <style type="text/css">*{stroke-linejoin: round; stroke-linecap: butt}</style>
 </defs>
 <g id="figure_1">
  <g id="patch_1">
   <path d="M 0 345.6 
L 460.8 345.6 
L 460.8 0 
L 0 0 
z
" style="fill: #ffffff"/>
  </g>
  <g id="axes_1">
   <g id="patch_2">
    <path d="M 57.6 307.584 
L 414.72 307.584 
L 414.72 41.472 
L 57.6 41.472 
z
" style="fill: #ffffff"/>
   </g>
   <g id="matplotlib.axis_1">
    <g id="xtick_1">
     <g id="line2d_1">
      <defs>
       <path id="me518ffcd34" d="M 0 0 
L 0 3.5 
" style="stroke: #000000; stroke-width: 0.8"/>
      </defs>
      <g>
       <use xlink:href="#me518ffcd34" x="73.832727" y="307.584" style="stroke: #000000; stroke-width: 0.8"/>
      </g>
     </g>
     <g id="text_1">
      <!-- 0 -->
      <g transform="translate(70.651477 322.182437) scale(0.1 -0.1)">
       <defs>
        <path id="DejaVuSans-30" d="M 2034 4250 
Q 1547 4250 1301 3770 
Q 1056 3291 1056 2328 
Q 1056 1369 1301 889 
Q 1547 409 2034 409 
Q 2525 409 2770 889 
Q 3016 1369 3016 2328 
Q 3016 3291 2770 3770 
Q 2525 4250 2034 4250 
z
M 2034 4750 
Q 2819 4750 3233 4129 
Q 3647 3509 3647 2328 
Q 3647 1150 3233 529 
Q 2819 -91 2034 -91 
Q 1250 -91 836 529 
Q 422 1150 422 2328 
Q 422 3509 836 4129 
Q 1250 4750 2034 4750 
z
" transform="scale(0.015625)"/>
       </defs>
       <use xlink:href="#DejaVuSans-30"/>
      </g>
     </g>
    </g>
    <g id="xtick_2">
     <g id="line2d_2">
      <g>
       <use xlink:href="#me518ffcd34" x="138.828632" y="307.584" style="stroke: #000000; stroke-width: 0.8"/>
      </g>
     </g>
     <g id="text_2">
      <!-- 1 -->
      <g transform="translate(135.647382 322.182437) scale(0.1 -0.1)">
       <defs>
        <path id="DejaVuSans-31" d="M 794 531 
L 1825 531 
L 1825 4091 
L 703 3866 
L 703 4441 
L 1819 4666 
L 2450 4666 
L 2450 531 
L 3481 531 
L 3481 0 
L 794 0 
L 794 531 
z
" transform="scale(0.015625)"/>
       </defs>
       <use xlink:href="#DejaVuSans-31"/>
      </g>
     </g>
    </g>
    <g id="xtick_3">
     <g id="line2d_3">
      <g>
       <use xlink:href="#me518ffcd34" x="203.824537" y="307.584" style="stroke: #000000; stroke-width: 0.8"/>
      </g>
     </g>
     <g id="text_3">
      <!-- 2 -->
      <g transform="translate(200.643287 322.182437) scale(0.1 -0.1)">
       <defs>
        <path id="DejaVuSans-32" d="M 1228 531 
L 3431 531 
L 3431 0 
L 469 0 
L 469 531 
Q 828 903 1448 1529 
Q 2069 2156 2228 2338 
Q 2531 2678 2651 2914 
Q 2772 3150 2772 3378 
Q 2772 3750 2511 3984 
Q 2250 4219 1831 4219 
Q 1534 4219 1204 4116 
Q 875 4013 500 3803 
L 500 4441 
Q 881 4594 1212 4672 
Q 1544 4750 1819 4750 
Q 2544 4750 2975 4387 
Q 3406 4025 3406 3419 
Q 3406 3131 3298 2873 
Q 3191 2616 2906 2266 
Q 2828 2175 2409 1742 
Q 1991 1309 1228 531 
z
" transform="scale(0.015625)"/>
       </defs>
       <use xlink:href="#DejaVuSans-32"/>
      </g>
     </g>
    </g>
    <g id="xtick_4">
     <g id="line2d_4">
      <g>
       <use xlink:href="#me518ffcd34" x="268.820442" y="307.584" style="stroke: #000000; stroke-width: 0.8"/>
      </g>
     </g>
     <g id="text_4">
      <!-- 3 -->
      <g transform="translate(265.639192 322.182437) scale(0.1 -0.1)">
       <defs>
        <path id="DejaVuSans-33" d="M 2597 2516 
Q 3050 2419 3304 2112 
Q 3559 1806 3559 1356 
Q 3559 666 3084 287 
Q 2609 -91 1734 -91 
Q 1441 -91 1130 -33 
Q 819 25 488 141 
L 488 750 
Q 750 597 1062 519 
Q 1375 441 1716 441 
Q 2309 441 2620 675 
Q 2931 909 2931 1356 
Q 2931 1769 2642 2001 
Q 2353 2234 1838 2234 
L 1294 2234 
L 1294 2753 
L 1863 2753 
Q 2328 2753 2575 2939 
Q 2822 3125 2822 3475 
Q 2822 3834 2567 4026 
Q 2313 4219 1838 4219 
Q 1578 4219 1281 4162 
Q 984 4106 628 3988 
L 628 4550 
Q 988 4650 1302 4700 
Q 1616 4750 1894 4750 
Q 2613 4750 3031 4423 
Q 3450 4097 3450 3541 
Q 3450 3153 3228 2886 
Q 3006 2619 2597 2516 
z
" transform="scale(0.015625)"/>
       </defs>
       <use xlink:href="#DejaVuSans-33"/>
      </g>
     </g>
    </g>
    <g id="xtick_5">
     <g id="line2d_5">
      <g>
       <use xlink:href="#me518ffcd34" x="333.816347" y="307.584" style="stroke: #000000; stroke-width: 0.8"/>
      </g>
     </g>
     <g id="text_5">
      <!-- 4 -->
      <g transform="translate(330.635097 322.182437) scale(0.1 -0.1)">
       <defs>
        <path id="DejaVuSans-34" d="M 2419 4116 
L 825 1625 
L 2419 1625 
L 2419 4116 
z
M 2253 4666 
L 3047 4666 
L 3047 1625 
L 3713 1625 
L 3713 1100 
L 3047 1100 
L 3047 0 
L 2419 0 
L 2419 1100 
L 313 1100 
L 313 1709 
L 2253 4666 
z
" transform="scale(0.015625)"/>
       </defs>
       <use xlink:href="#DejaVuSans-34"/>
      </g>
     </g>
    </g>
    <g id="xtick_6">
     <g id="line2d_6">
      <g>
       <use xlink:href="#me518ffcd34" x="398.812252" y="307.584" style="stroke: #000000; stroke-width: 0.8"/>
      </g>
     </g>
     <g id="text_6">
      <!-- 5 -->
      <g transform="translate(395.631002 322.182437) scale(0.1 -0.1)">
       <defs>
        <path id="DejaVuSans-35" d="M 691 4666 
L 3169 4666 
L 3169 4134 
L 1269 4134 
L 1269 2991 
Q 1406 3038 1543 3061 
Q 1681 3084 1819 3084 
Q 2600 3084 3056 2656 
Q 3513 2228 3513 1497 
Q 3513 744 3044 326 
Q 2575 -91 1722 -91 
Q 1428 -91 1123 -41 
Q 819 9 494 109 
L 494 744 
Q 775 591 1075 516 
Q 1375 441 1709 441 
Q 2250 441 2565 725 
Q 2881 1009 2881 1497 
Q 2881 1984 2565 2268 
Q 2250 2553 1709 2553 
Q 1456 2553 1204 2497 
Q 953 2441 691 2322 
L 691 4666 
z
" transform="scale(0.015625)"/>
       </defs>
       <use xlink:href="#DejaVuSans-35"/>
      </g>
     </g>
    </g>
    <g id="text_7">
     <!-- 1e−7 -->
     <g transform="translate(387.462188 334.860562) scale(0.1 -0.1)">
      <defs>
       <path id="DejaVuSans-65" d="M 3597 1894 
L 3597 1613 
L 953 1613 
Q 991 1019 1311 708 
Q 1631 397 2203 397 
Q 2534 397 2845 478 
Q 3156 559 3463 722 
L 3463 178 
Q 3153 47 2828 -22 
Q 2503 -91 2169 -91 
Q 1331 -91 842 396 
Q 353 884 353 1716 
Q 353 2575 817 3079 
Q 1281 3584 2069 3584 
Q 2775 3584 3186 3129 
Q 3597 2675 3597 1894 
z
M 3022 2063 
Q 3016 2534 2758 2815 
Q 2500 3097 2075 3097 
Q 1594 3097 1305 2825 
Q 1016 2553 972 2059 
L 3022 2063 
z
" transform="scale(0.015625)"/>
       <path id="DejaVuSans-2212" d="M 678 2272 
L 4684 2272 
L 4684 1741 
L 678 1741 
L 678 2272 
z
" transform="scale(0.015625)"/>
       <path id="DejaVuSans-37" d="M 525 4666 
L 3525 4666 
L 3525 4397 
L 1831 0 
L 1172 0 
L 2766 4134 
L 525 4134 
L 525 4666 
z
" transform="scale(0.015625)"/>
      </defs>
      <use xlink:href="#DejaVuSans-31"/>
      <use xlink:href="#DejaVuSans-65" transform="translate(63.623047 0)"/>
      <use xlink:href="#DejaVuSans-2212" transform="translate(125.146484 0)"/>
      <use xlink:href="#DejaVuSans-37" transform="translate(208.935547 0)"/>
     </g>
    </g>
   </g>
   <g id="matplotlib.axis_2">
    <g id="ytick_1">
     <g id="line2d_7">
      <defs>
       <path id="m3f0b6cacea" d="M 0 0 
L -3.5 0 
" style="stroke: #000000; stroke-width: 0.8"/>
      </defs>
      <g>
       <use xlink:href="#m3f0b6cacea" x="57.6" y="269.794439" style="stroke: #000000; stroke-width: 0.8"/>
      </g>
     </g>
     <g id="text_8">
      <!-- −200 -->
      <g transform="translate(23.132812 273.593658) scale(0.1 -0.1)">
       <use xlink:href="#DejaVuSans-2212"/>
       <use xlink:href="#DejaVuSans-32" transform="translate(83.789062 0)"/>
       <use xlink:href="#DejaVuSans-30" transform="translate(147.412109 0)"/>
       <use xlink:href="#DejaVuSans-30" transform="translate(211.035156 0)"/>
      </g>
     </g>
    </g>
    <g id="ytick_2">
     <g id="line2d_8">
      <g>
       <use xlink:href="#m3f0b6cacea" x="57.6" y="216.405201" style="stroke: #000000; stroke-width: 0.8"/>
      </g>
     </g>
     <g id="text_9">
      <!-- −100 -->
      <g transform="translate(23.132812 220.20442) scale(0.1 -0.1)">
       <use xlink:href="#DejaVuSans-2212"/>
       <use xlink:href="#DejaVuSans-31" transform="translate(83.789062 0)"/>
       <use xlink:href="#DejaVuSans-30" transform="translate(147.412109 0)"/>
       <use xlink:href="#DejaVuSans-30" transform="translate(211.035156 0)"/>
      </g>
     </g>
    </g>
    <g id="ytick_3">
     <g id="line2d_9">
      <g>
       <use xlink:href="#m3f0b6cacea" x="57.6" y="163.015963" style="stroke: #000000; stroke-width: 0.8"/>
      </g>
     </g>
     <g id="text_10">
      <!-- 0 -->
      <g transform="translate(44.2375 166.815181) scale(0.1 -0.1)">
       <use xlink:href="#DejaVuSans-30"/>
      </g>
     </g>
    </g>
    <g id="ytick_4">
     <g id="line2d_10">
      <g>
       <use xlink:href="#m3f0b6cacea" x="57.6" y="109.626725" style="stroke: #000000; stroke-width: 0.8"/>
      </g>
     </g>
     <g id="text_11">
      <!-- 100 -->
      <g transform="translate(31.5125 113.425943) scale(0.1 -0.1)">
       <use xlink:href="#DejaVuSans-31"/>
       <use xlink:href="#DejaVuSans-30" transform="translate(63.623047 0)"/>
       <use xlink:href="#DejaVuSans-30" transform="translate(127.246094 0)"/>
      </g>
     </g>
    </g>
    <g id="ytick_5">
     <g id="line2d_11">
      <g>
       <use xlink:href="#m3f0b6cacea" x="57.6" y="56.237487" style="stroke: #000000; stroke-width: 0.8"/>
      </g>
     </g>
     <g id="text_12">
      <!-- 200 -->
      <g transform="translate(31.5125 60.036705) scale(0.1 -0.1)">
       <use xlink:href="#DejaVuSans-32"/>
       <use xlink:href="#DejaVuSans-30" transform="translate(63.623047 0)"/>
       <use xlink:href="#DejaVuSans-30" transform="translate(127.246094 0)"/>
      </g>
     </g>
    </g>
   </g>
   <g id="line2d_12">
    <path d="M 73.832727 205.754076 
L 74.157707 202.417249 
L 74.807666 202.417249 
L 75.132645 199.080422 
L 75.457625 199.080422 
L 75.782604 195.743595 
L 76.432563 195.743595 
L 76.757543 192.406768 
L 77.082523 192.406768 
L 77.732482 185.733114 
L 78.382441 185.733114 
L 78.70742 182.396287 
L 79.0324 182.396287 
L 79.357379 175.722633 
L 79.682359 175.722633 
L 80.007338 179.05946 
L 80.982277 169.048979 
L 81.307256 172.385806 
L 81.632236 165.712152 
L 81.957215 165.712152 
L 82.282195 162.375325 
L 82.607174 169.048979 
L 82.932154 159.038498 
L 83.257133 162.375325 
L 83.582113 162.375325 
L 84.557052 152.364844 
L 85.53199 152.364844 
L 86.181949 145.691189 
L 87.156888 145.691189 
L 87.481867 142.354362 
L 87.806847 145.691189 
L 88.131826 139.017535 
L 88.456806 139.017535 
L 88.781785 142.354362 
L 89.106765 139.017535 
L 89.431744 132.343881 
L 90.406683 132.343881 
L 90.731663 129.007054 
L 91.056642 132.343881 
L 91.381622 125.670227 
L 91.706601 129.007054 
L 92.031581 125.670227 
L 92.68154 125.670227 
L 93.006519 129.007054 
L 93.656478 122.3334 
L 94.306437 122.3334 
L 94.631417 115.659746 
L 95.281376 115.659746 
L 95.606355 118.996573 
L 95.931335 115.659746 
L 96.256314 115.659746 
L 96.581294 108.986092 
L 96.906274 115.659746 
L 97.231253 108.986092 
L 97.556233 108.986092 
L 97.881212 112.322919 
L 98.206192 112.322919 
L 98.531171 105.649265 
L 99.18113 105.649265 
L 99.831089 98.975611 
L 100.156069 102.312438 
L 100.806028 102.312438 
L 101.131007 98.975611 
L 101.455987 98.975611 
L 101.780966 92.301957 
L 102.105946 95.638784 
L 102.430925 92.301957 
L 102.755905 95.638784 
L 103.080885 92.301957 
L 103.405864 95.638784 
L 103.730844 88.96513 
L 104.055823 92.301957 
L 104.380803 92.301957 
L 104.705782 88.96513 
L 105.680721 88.96513 
L 106.0057 92.301957 
L 106.33068 85.628303 
L 107.955577 85.628303 
L 108.280557 82.291476 
L 108.605536 88.96513 
L 108.930516 85.628303 
L 109.580475 92.301957 
L 110.230434 85.628303 
L 110.555414 85.628303 
L 111.205373 92.301957 
L 111.530352 88.96513 
L 112.83027 88.96513 
L 113.15525 92.301957 
L 113.480229 92.301957 
L 113.805209 95.638784 
L 114.130188 92.301957 
L 114.455168 92.301957 
L 114.780147 95.638784 
L 115.105127 95.638784 
L 115.430106 92.301957 
L 115.755086 95.638784 
L 116.080066 95.638784 
L 116.405045 98.975611 
L 117.379984 98.975611 
L 117.704963 105.649265 
L 118.029943 102.312438 
L 118.679902 108.986092 
L 119.004881 108.986092 
L 119.329861 105.649265 
L 119.65484 112.322919 
L 119.97982 115.659746 
L 120.304799 115.659746 
L 120.629779 112.322919 
L 120.954758 115.659746 
L 121.279738 122.3334 
L 121.929697 122.3334 
L 122.254676 125.670227 
L 122.579656 122.3334 
L 123.229615 129.007054 
L 123.554595 125.670227 
L 123.879574 129.007054 
L 124.204554 135.680708 
L 124.529533 132.343881 
L 124.854513 139.017535 
L 125.179492 142.354362 
L 125.504472 139.017535 
L 126.154431 139.017535 
L 127.129369 149.028016 
L 127.454349 145.691189 
L 127.779328 145.691189 
L 128.104308 152.364844 
L 128.429287 152.364844 
L 128.754267 155.701671 
L 129.079247 155.701671 
L 129.404226 159.038498 
L 129.729206 155.701671 
L 130.054185 162.375325 
L 130.379165 162.375325 
L 130.704144 159.038498 
L 131.354103 165.712152 
L 131.679083 165.712152 
L 132.004062 169.048979 
L 132.979001 169.048979 
L 133.30398 175.722633 
L 133.953939 175.722633 
L 134.603898 182.396287 
L 134.928878 179.05946 
L 135.578837 185.733114 
L 135.903817 182.396287 
L 136.228796 182.396287 
L 136.878755 189.069941 
L 137.528714 189.069941 
L 137.853694 192.406768 
L 138.178673 189.069941 
L 138.503653 195.743595 
L 139.478591 195.743595 
L 139.803571 202.417249 
L 140.12855 195.743595 
L 140.778509 202.417249 
L 141.753448 202.417249 
L 142.078428 209.090903 
L 142.728387 202.417249 
L 143.053366 205.754076 
L 143.378346 205.754076 
L 144.028305 212.42773 
L 144.678264 212.42773 
L 145.003243 215.764557 
L 145.653202 215.764557 
L 145.978182 219.101384 
L 147.2781 219.101384 
L 147.603079 225.775038 
L 147.928059 222.438211 
L 148.253038 229.111865 
L 148.578018 225.775038 
L 148.902998 232.448692 
L 149.227977 229.111865 
L 149.552957 232.448692 
L 149.877936 232.448692 
L 150.202916 235.78552 
L 150.527895 232.448692 
L 151.177854 239.122347 
L 151.827813 232.448692 
L 152.152793 235.78552 
L 152.477772 235.78552 
L 152.802752 239.122347 
L 153.127731 235.78552 
L 153.452711 235.78552 
L 153.77769 232.448692 
L 154.10267 239.122347 
L 155.077609 239.122347 
L 155.402588 242.459174 
L 155.727568 239.122347 
L 156.052547 239.122347 
L 156.377527 242.459174 
L 156.702506 239.122347 
L 157.027486 239.122347 
L 157.352465 242.459174 
L 157.677445 239.122347 
L 158.002424 242.459174 
L 158.327404 239.122347 
L 158.652383 239.122347 
L 158.977363 235.78552 
L 159.302342 239.122347 
L 159.627322 235.78552 
L 159.952301 235.78552 
L 160.277281 239.122347 
L 160.60226 239.122347 
L 160.92724 235.78552 
L 161.902179 235.78552 
L 162.227158 229.111865 
L 162.552138 232.448692 
L 162.877117 229.111865 
L 163.202097 232.448692 
L 163.527076 232.448692 
L 164.177035 225.775038 
L 164.502015 229.111865 
L 165.151974 222.438211 
L 165.476953 225.775038 
L 165.801933 225.775038 
L 166.126912 215.764557 
L 166.451892 219.101384 
L 166.776871 219.101384 
L 167.42683 212.42773 
L 167.75181 215.764557 
L 168.07679 212.42773 
L 168.726749 212.42773 
L 169.051728 205.754076 
L 169.376708 202.417249 
L 169.701687 205.754076 
L 170.026667 202.417249 
L 170.351646 202.417249 
L 170.676626 199.080422 
L 171.001605 202.417249 
L 171.326585 195.743595 
L 171.651564 199.080422 
L 172.626503 189.069941 
L 173.601441 189.069941 
L 173.926421 182.396287 
L 174.2514 182.396287 
L 174.57638 179.05946 
L 174.90136 182.396287 
L 175.551319 175.722633 
L 175.876298 175.722633 
L 176.201278 179.05946 
L 176.526257 172.385806 
L 177.176216 172.385806 
L 177.501196 165.712152 
L 178.151155 165.712152 
L 178.476134 162.375325 
L 178.801114 162.375325 
L 179.126093 159.038498 
L 179.451073 162.375325 
L 179.776052 155.701671 
L 180.426011 155.701671 
L 180.750991 152.364844 
L 181.075971 152.364844 
L 181.40095 155.701671 
L 181.72593 149.028016 
L 182.375889 149.028016 
L 182.700868 145.691189 
L 183.025848 145.691189 
L 183.350827 142.354362 
L 184.325766 142.354362 
L 184.975725 135.680708 
L 185.300704 139.017535 
L 185.950663 132.343881 
L 186.600622 132.343881 
L 186.925602 129.007054 
L 187.250581 129.007054 
L 187.575561 132.343881 
L 187.900541 129.007054 
L 188.22552 122.3334 
L 188.5505 122.3334 
L 188.875479 125.670227 
L 189.200459 125.670227 
L 189.525438 122.3334 
L 189.850418 122.3334 
L 190.175397 118.996573 
L 190.500377 122.3334 
L 191.150336 115.659746 
L 191.475315 115.659746 
L 191.800295 118.996573 
L 192.125274 112.322919 
L 192.450254 115.659746 
L 192.775233 115.659746 
L 193.750172 105.649265 
L 194.075152 105.649265 
L 194.400131 108.986092 
L 194.725111 105.649265 
L 195.05009 105.649265 
L 195.37507 98.975611 
L 195.700049 102.312438 
L 196.025029 98.975611 
L 196.674988 98.975611 
L 196.999967 102.312438 
L 197.324947 95.638784 
L 197.649926 95.638784 
L 197.974906 98.975611 
L 198.299885 92.301957 
L 199.924783 92.301957 
L 200.249762 88.96513 
L 201.549681 88.96513 
L 201.87466 85.628303 
L 202.19964 92.301957 
L 202.524619 88.96513 
L 202.849599 88.96513 
L 203.174578 92.301957 
L 203.824537 85.628303 
L 204.149517 85.628303 
L 204.474496 88.96513 
L 205.124455 88.96513 
L 205.449435 85.628303 
L 205.774414 85.628303 
L 206.099394 88.96513 
L 208.049271 88.96513 
L 208.374251 92.301957 
L 208.69923 88.96513 
L 209.349189 88.96513 
L 209.999148 95.638784 
L 210.649107 95.638784 
L 210.974087 88.96513 
L 211.299066 98.975611 
L 211.624046 95.638784 
L 212.274005 95.638784 
L 212.598984 98.975611 
L 212.923964 98.975611 
L 213.573923 105.649265 
L 213.898903 102.312438 
L 214.223882 102.312438 
L 215.198821 112.322919 
L 215.5238 108.986092 
L 215.84878 112.322919 
L 216.173759 112.322919 
L 216.498739 115.659746 
L 216.823718 112.322919 
L 217.148698 115.659746 
L 217.473677 122.3334 
L 218.123636 122.3334 
L 218.773595 129.007054 
L 219.098575 129.007054 
L 219.423554 125.670227 
L 220.398493 135.680708 
L 221.373432 135.680708 
L 221.698411 142.354362 
L 222.023391 142.354362 
L 222.34837 145.691189 
L 222.67335 145.691189 
L 222.998329 149.028016 
L 223.648288 149.028016 
L 223.973268 152.364844 
L 224.298247 152.364844 
L 224.623227 149.028016 
L 224.948206 155.701671 
L 225.273186 155.701671 
L 225.598165 159.038498 
L 225.923145 155.701671 
L 226.248124 159.038498 
L 226.573104 155.701671 
L 226.898084 162.375325 
L 227.223063 162.375325 
L 227.548043 165.712152 
L 227.873022 165.712152 
L 228.198002 172.385806 
L 228.522981 169.048979 
L 229.17294 175.722633 
L 229.822899 175.722633 
L 230.147879 179.05946 
L 231.122817 179.05946 
L 231.447797 182.396287 
L 231.772776 179.05946 
L 232.097756 185.733114 
L 232.747715 185.733114 
L 233.397674 192.406768 
L 233.722654 189.069941 
L 234.047633 189.069941 
L 234.372613 195.743595 
L 234.697592 195.743595 
L 235.022572 192.406768 
L 235.347551 199.080422 
L 235.672531 195.743595 
L 236.32249 202.417249 
L 236.647469 202.417249 
L 236.972449 199.080422 
L 237.297428 199.080422 
L 237.622408 202.417249 
L 237.947387 202.417249 
L 238.597346 209.090903 
L 238.922326 205.754076 
L 239.572285 212.42773 
L 239.897265 212.42773 
L 240.222244 209.090903 
L 240.547224 212.42773 
L 240.872203 212.42773 
L 241.197183 219.101384 
L 241.522162 215.764557 
L 241.847142 219.101384 
L 242.172121 219.101384 
L 242.497101 222.438211 
L 243.472039 222.438211 
L 243.797019 229.111865 
L 244.121998 222.438211 
L 244.446978 225.775038 
L 244.771957 232.448692 
L 245.096937 232.448692 
L 245.421916 229.111865 
L 245.746896 232.448692 
L 246.071876 232.448692 
L 246.396855 235.78552 
L 246.721835 232.448692 
L 247.046814 239.122347 
L 247.371794 232.448692 
L 247.696773 239.122347 
L 248.021753 235.78552 
L 248.346732 235.78552 
L 248.996691 242.459174 
L 249.321671 235.78552 
L 249.97163 242.459174 
L 250.296609 239.122347 
L 250.946568 239.122347 
L 251.271548 242.459174 
L 252.246486 242.459174 
L 252.571466 235.78552 
L 252.896446 242.459174 
L 253.221425 242.459174 
L 253.546405 235.78552 
L 254.196364 242.459174 
L 254.521343 235.78552 
L 254.846323 242.459174 
L 255.496282 235.78552 
L 255.821261 235.78552 
L 256.146241 239.122347 
L 256.47122 235.78552 
L 256.7962 239.122347 
L 257.121179 235.78552 
L 257.446159 235.78552 
L 257.771138 232.448692 
L 258.096118 235.78552 
L 258.746077 229.111865 
L 259.071057 229.111865 
L 259.396036 232.448692 
L 259.721016 229.111865 
L 260.045995 229.111865 
L 260.370975 232.448692 
L 260.695954 225.775038 
L 261.020934 222.438211 
L 261.995872 222.438211 
L 262.970811 212.42773 
L 263.29579 215.764557 
L 263.62077 212.42773 
L 264.595708 212.42773 
L 265.245667 205.754076 
L 265.570647 209.090903 
L 265.895627 202.417249 
L 266.220606 202.417249 
L 266.545586 199.080422 
L 267.520524 199.080422 
L 267.845504 195.743595 
L 268.170483 189.069941 
L 268.495463 192.406768 
L 268.820442 192.406768 
L 269.145422 185.733114 
L 269.470401 189.069941 
L 269.795381 189.069941 
L 270.44534 182.396287 
L 270.770319 182.396287 
L 271.095299 175.722633 
L 272.070238 175.722633 
L 272.395217 172.385806 
L 272.720197 172.385806 
L 273.370156 165.712152 
L 273.695135 165.712152 
L 274.020115 162.375325 
L 274.995053 162.375325 
L 275.320033 155.701671 
L 275.645012 155.701671 
L 275.969992 159.038498 
L 276.294971 152.364844 
L 276.619951 149.028016 
L 277.919869 149.028016 
L 278.569828 142.354362 
L 278.894808 145.691189 
L 279.219787 142.354362 
L 279.544767 135.680708 
L 279.869746 142.354362 
L 280.194726 145.691189 
L 280.519705 139.017535 
L 281.169664 139.017535 
L 281.819623 132.343881 
L 282.794562 132.343881 
L 283.119541 129.007054 
L 283.444521 129.007054 
L 283.7695 122.3334 
L 284.09448 125.670227 
L 284.419459 125.670227 
L 284.744439 122.3334 
L 285.069419 122.3334 
L 285.394398 125.670227 
L 285.719378 118.996573 
L 286.044357 122.3334 
L 286.694316 122.3334 
L 287.019296 115.659746 
L 287.994234 115.659746 
L 288.319214 112.322919 
L 288.644193 112.322919 
L 288.969173 108.986092 
L 289.619132 108.986092 
L 289.944111 105.649265 
L 290.269091 108.986092 
L 290.59407 108.986092 
L 290.91905 105.649265 
L 291.569009 105.649265 
L 292.218968 98.975611 
L 292.543948 98.975611 
L 292.868927 102.312438 
L 293.518886 95.638784 
L 293.843866 95.638784 
L 294.168845 88.96513 
L 294.493825 92.301957 
L 295.468763 92.301957 
L 295.793743 95.638784 
L 296.118722 88.96513 
L 296.443702 92.301957 
L 297.093661 92.301957 
L 297.41864 88.96513 
L 297.74362 88.96513 
L 298.0686 85.628303 
L 298.393579 88.96513 
L 298.718559 88.96513 
L 299.043538 85.628303 
L 299.368518 85.628303 
L 299.693497 88.96513 
L 300.018477 85.628303 
L 300.668436 85.628303 
L 300.993415 88.96513 
L 301.318395 82.291476 
L 301.643374 88.96513 
L 301.968354 92.301957 
L 302.618313 85.628303 
L 302.943292 88.96513 
L 303.268272 88.96513 
L 303.593251 92.301957 
L 303.918231 88.96513 
L 304.56819 88.96513 
L 304.89317 92.301957 
L 305.218149 92.301957 
L 305.543129 88.96513 
L 305.868108 92.301957 
L 306.843047 92.301957 
L 307.168026 95.638784 
L 307.817985 95.638784 
L 308.142965 98.975611 
L 309.117903 98.975611 
L 309.442883 102.312438 
L 309.767862 102.312438 
L 310.092842 105.649265 
L 310.742801 105.649265 
L 311.39276 112.322919 
L 311.71774 112.322919 
L 312.042719 115.659746 
L 313.017658 115.659746 
L 313.667617 122.3334 
L 313.992596 122.3334 
L 314.317576 125.670227 
L 314.967535 125.670227 
L 315.292514 132.343881 
L 315.942473 132.343881 
L 316.267453 135.680708 
L 316.917412 135.680708 
L 317.567371 142.354362 
L 318.21733 142.354362 
L 318.54231 145.691189 
L 318.867289 145.691189 
L 319.192269 149.028016 
L 319.517248 145.691189 
L 319.842228 152.364844 
L 320.167207 149.028016 
L 320.492187 152.364844 
L 320.817166 152.364844 
L 321.792105 162.375325 
L 322.117084 159.038498 
L 322.767043 165.712152 
L 323.741982 165.712152 
L 324.066962 169.048979 
L 324.391941 169.048979 
L 324.716921 172.385806 
L 325.36688 172.385806 
L 326.016839 179.05946 
L 326.341818 179.05946 
L 326.991777 185.733114 
L 327.316757 182.396287 
L 327.641736 182.396287 
L 327.966716 189.069941 
L 328.291695 189.069941 
L 328.616675 185.733114 
L 328.941654 189.069941 
L 329.266634 189.069941 
L 329.591613 192.406768 
L 329.916593 189.069941 
L 330.241572 192.406768 
L 330.566552 189.069941 
L 330.891532 195.743595 
L 331.86647 195.743595 
L 332.19145 202.417249 
L 332.516429 199.080422 
L 332.841409 199.080422 
L 333.166388 205.754076 
L 333.491368 199.080422 
L 333.816347 199.080422 
L 334.141327 205.754076 
L 334.466306 205.754076 
L 334.791286 209.090903 
L 335.766224 209.090903 
L 336.091204 215.764557 
L 336.416183 212.42773 
L 336.741163 212.42773 
L 337.066143 219.101384 
L 337.391122 219.101384 
L 337.716102 215.764557 
L 338.041081 215.764557 
L 338.366061 222.438211 
L 338.69104 219.101384 
L 339.01602 219.101384 
L 339.990958 229.111865 
L 340.315938 225.775038 
L 340.640917 229.111865 
L 340.965897 229.111865 
L 341.290876 232.448692 
L 342.265815 232.448692 
L 342.590794 235.78552 
L 342.915774 235.78552 
L 343.565733 242.459174 
L 343.890713 235.78552 
L 344.215692 235.78552 
L 344.540672 239.122347 
L 344.865651 239.122347 
L 345.190631 242.459174 
L 345.51561 239.122347 
L 345.84059 242.459174 
L 346.165569 235.78552 
L 346.490549 242.459174 
L 346.815528 239.122347 
L 347.465487 239.122347 
L 347.790467 242.459174 
L 348.115446 235.78552 
L 348.440426 242.459174 
L 348.765405 245.796001 
L 349.090385 239.122347 
L 349.415364 242.459174 
L 349.740344 239.122347 
L 350.065324 242.459174 
L 350.390303 242.459174 
L 350.715283 239.122347 
L 351.690221 239.122347 
L 352.015201 235.78552 
L 352.990139 235.78552 
L 353.315119 232.448692 
L 353.640098 239.122347 
L 354.615037 229.111865 
L 354.940016 232.448692 
L 355.264996 229.111865 
L 355.589975 229.111865 
L 355.914955 225.775038 
L 356.239934 229.111865 
L 356.564914 222.438211 
L 356.889894 229.111865 
L 357.539853 222.438211 
L 358.189812 222.438211 
L 358.514791 215.764557 
L 358.839771 219.101384 
L 359.16475 219.101384 
L 359.48973 212.42773 
L 360.139689 212.42773 
L 360.464668 209.090903 
L 360.789648 209.090903 
L 361.114627 205.754076 
L 361.439607 205.754076 
L 361.764586 202.417249 
L 362.089566 205.754076 
L 363.064505 195.743595 
L 363.389484 199.080422 
L 363.714464 195.743595 
L 364.039443 189.069941 
L 364.364423 195.743595 
L 365.014382 182.396287 
L 365.339361 185.733114 
L 365.664341 185.733114 
L 366.3143 179.05946 
L 366.639279 179.05946 
L 366.964259 175.722633 
L 367.289238 179.05946 
L 367.614218 172.385806 
L 368.264177 172.385806 
L 368.589156 175.722633 
L 368.914136 169.048979 
L 369.564095 169.048979 
L 369.889075 162.375325 
L 371.188993 162.375325 
L 371.513972 155.701671 
L 371.838952 155.701671 
L 372.163931 152.364844 
L 372.488911 155.701671 
L 372.81389 155.701671 
L 373.13887 152.364844 
L 373.788829 152.364844 
L 374.113808 145.691189 
L 374.763767 145.691189 
L 375.088747 142.354362 
L 376.388665 142.354362 
L 376.713645 139.017535 
L 377.038624 139.017535 
L 377.363604 132.343881 
L 377.688583 135.680708 
L 378.338542 129.007054 
L 378.663522 129.007054 
L 378.988501 132.343881 
L 379.313481 129.007054 
L 379.96344 129.007054 
L 380.613399 122.3334 
L 380.938378 122.3334 
L 381.263358 125.670227 
L 381.588337 125.670227 
L 381.913317 122.3334 
L 382.238296 122.3334 
L 382.563276 115.659746 
L 382.888256 118.996573 
L 383.538215 112.322919 
L 383.863194 112.322919 
L 384.188174 115.659746 
L 384.513153 112.322919 
L 385.163112 112.322919 
L 385.813071 105.649265 
L 386.138051 108.986092 
L 386.46303 108.986092 
L 387.112989 102.312438 
L 387.437969 105.649265 
L 387.762948 98.975611 
L 388.087928 102.312438 
L 388.412907 98.975611 
L 388.737887 98.975611 
L 389.062867 95.638784 
L 389.387846 98.975611 
L 389.712826 95.638784 
L 390.037805 95.638784 
L 390.362785 98.975611 
L 391.012744 92.301957 
L 391.662703 92.301957 
L 391.987682 95.638784 
L 392.637641 88.96513 
L 393.2876 88.96513 
L 393.61258 85.628303 
L 394.262539 85.628303 
L 394.587518 88.96513 
L 395.237477 88.96513 
L 395.562457 92.301957 
L 395.887437 85.628303 
L 396.212416 85.628303 
L 396.537396 88.96513 
L 397.837314 88.96513 
L 398.162293 85.628303 
L 398.487273 88.96513 
L 398.487273 88.96513 
" clip-path="url(#p2f81dbc75b)" style="fill: none; stroke: #1f77b4; stroke-width: 1.5; stroke-linecap: square"/>
   </g>
   <g id="line2d_13">
    <path d="M 73.832727 270.461793 
L 74.157707 278.803862 
L 74.482686 270.461793 
L 74.807666 287.145931 
L 75.132645 270.461793 
L 76.107584 295.488 
L 76.432563 287.145931 
L 76.757543 287.145931 
L 77.082523 278.803862 
L 77.407502 287.145931 
L 77.732482 278.803862 
L 78.057461 287.145931 
L 78.70742 287.145931 
L 79.0324 278.803862 
L 79.357379 278.803862 
L 80.007338 295.488 
L 80.332318 270.461793 
L 80.657297 287.145931 
L 80.982277 287.145931 
L 81.307256 295.488 
L 81.632236 295.488 
L 81.957215 287.145931 
L 82.932154 287.145931 
L 83.257133 295.488 
L 83.582113 295.488 
L 84.232072 278.803862 
L 84.557052 278.803862 
L 85.207011 295.488 
L 85.53199 278.803862 
L 85.85697 287.145931 
L 86.181949 287.145931 
L 86.506929 295.488 
L 87.481867 270.461793 
L 87.806847 270.461793 
L 88.131826 262.119724 
L 88.456806 270.461793 
L 88.781785 270.461793 
L 89.106765 262.119724 
L 89.431744 262.119724 
L 90.081704 245.435586 
L 90.406683 253.777655 
L 90.731663 237.093517 
L 91.381622 253.777655 
L 91.706601 253.777655 
L 92.031581 245.435586 
L 92.35656 245.435586 
L 92.68154 237.093517 
L 93.006519 245.435586 
L 93.981458 245.435586 
L 94.306437 237.093517 
L 94.631417 245.435586 
L 95.281376 228.751448 
L 95.606355 237.093517 
L 95.931335 220.409379 
L 96.256314 237.093517 
L 96.906274 237.093517 
L 97.556233 220.409379 
L 98.206192 220.409379 
L 98.531171 212.06731 
L 98.856151 220.409379 
L 99.18113 220.409379 
L 99.50611 212.06731 
L 99.831089 212.06731 
L 100.156069 195.383172 
L 100.806028 212.06731 
L 101.131007 195.383172 
L 101.455987 203.725241 
L 102.105946 203.725241 
L 102.430925 195.383172 
L 103.080885 195.383172 
L 103.405864 187.041103 
L 103.730844 187.041103 
L 104.055823 195.383172 
L 104.705782 178.699034 
L 106.0057 178.699034 
L 106.33068 162.014897 
L 106.655659 178.699034 
L 106.980639 178.699034 
L 107.305618 170.356966 
L 107.630598 170.356966 
L 108.280557 153.672828 
L 108.605536 162.014897 
L 108.930516 153.672828 
L 109.255495 162.014897 
L 109.905455 145.330759 
L 110.555414 145.330759 
L 110.880393 136.98869 
L 111.205373 136.98869 
L 111.530352 120.304552 
L 111.855332 136.98869 
L 112.180311 136.98869 
L 112.505291 145.330759 
L 112.83027 128.646621 
L 113.15525 128.646621 
L 113.480229 136.98869 
L 113.805209 128.646621 
L 114.780147 128.646621 
L 115.105127 111.962483 
L 115.755086 111.962483 
L 116.080066 103.620414 
L 116.405045 111.962483 
L 116.730025 103.620414 
L 117.055004 103.620414 
L 117.379984 111.962483 
L 117.704963 111.962483 
L 118.029943 103.620414 
L 118.679902 103.620414 
L 119.004881 95.278345 
L 119.97982 95.278345 
L 120.304799 86.936276 
L 120.954758 86.936276 
L 121.279738 78.594207 
L 121.604717 86.936276 
L 121.929697 70.252138 
L 122.254676 78.594207 
L 122.579656 78.594207 
L 122.904636 86.936276 
L 123.554595 70.252138 
L 123.879574 70.252138 
L 124.204554 78.594207 
L 124.529533 70.252138 
L 125.504472 70.252138 
L 125.829451 78.594207 
L 126.47941 61.910069 
L 126.80439 70.252138 
L 127.129369 53.568 
L 127.454349 61.910069 
L 127.779328 78.594207 
L 128.104308 70.252138 
L 128.429287 70.252138 
L 128.754267 61.910069 
L 129.079247 61.910069 
L 129.404226 70.252138 
L 129.729206 61.910069 
L 130.054185 61.910069 
L 130.379165 70.252138 
L 130.704144 61.910069 
L 131.354103 61.910069 
L 131.679083 53.568 
L 132.004062 70.252138 
L 132.329042 53.568 
L 132.654021 70.252138 
L 132.979001 78.594207 
L 133.62896 78.594207 
L 133.953939 70.252138 
L 134.278919 78.594207 
L 134.928878 78.594207 
L 135.253857 86.936276 
L 135.578837 86.936276 
L 135.903817 78.594207 
L 136.228796 86.936276 
L 136.878755 86.936276 
L 137.203735 95.278345 
L 137.528714 86.936276 
L 138.178673 103.620414 
L 138.503653 103.620414 
L 138.828632 111.962483 
L 139.478591 111.962483 
L 139.803571 103.620414 
L 140.12855 103.620414 
L 140.45353 111.962483 
L 141.753448 111.962483 
L 142.078428 103.620414 
L 142.403407 111.962483 
L 143.053366 111.962483 
L 143.378346 120.304552 
L 144.353284 120.304552 
L 144.678264 128.646621 
L 145.003243 120.304552 
L 145.328223 120.304552 
L 145.978182 136.98869 
L 146.303161 120.304552 
L 146.628141 136.98869 
L 146.95312 128.646621 
L 147.2781 128.646621 
L 147.603079 136.98869 
L 147.928059 136.98869 
L 148.253038 145.330759 
L 148.578018 145.330759 
L 148.902998 153.672828 
L 150.202916 153.672828 
L 150.527895 162.014897 
L 150.852875 162.014897 
L 151.177854 170.356966 
L 151.502834 162.014897 
L 151.827813 170.356966 
L 152.152793 162.014897 
L 152.477772 162.014897 
L 152.802752 178.699034 
L 153.127731 153.672828 
L 153.452711 170.356966 
L 154.10267 187.041103 
L 154.427649 178.699034 
L 154.752629 187.041103 
L 155.077609 187.041103 
L 155.402588 178.699034 
L 155.727568 178.699034 
L 156.052547 195.383172 
L 156.377527 195.383172 
L 156.702506 187.041103 
L 157.352465 187.041103 
L 157.677445 195.383172 
L 158.002424 212.06731 
L 158.327404 195.383172 
L 158.652383 212.06731 
L 158.977363 212.06731 
L 159.302342 220.409379 
L 159.627322 212.06731 
L 159.952301 220.409379 
L 160.92724 220.409379 
L 161.252219 237.093517 
L 161.902179 237.093517 
L 162.227158 228.751448 
L 162.877117 228.751448 
L 163.202097 237.093517 
L 163.527076 228.751448 
L 163.852056 245.435586 
L 164.177035 245.435586 
L 164.502015 253.777655 
L 164.826994 245.435586 
L 165.801933 245.435586 
L 166.126912 253.777655 
L 167.101851 253.777655 
L 167.42683 262.119724 
L 167.75181 253.777655 
L 168.401769 270.461793 
L 168.726749 262.119724 
L 169.051728 278.803862 
L 169.376708 270.461793 
L 169.701687 278.803862 
L 170.026667 270.461793 
L 170.351646 278.803862 
L 170.676626 270.461793 
L 171.001605 270.461793 
L 171.651564 287.145931 
L 172.301523 287.145931 
L 172.626503 270.461793 
L 172.951482 287.145931 
L 173.276462 278.803862 
L 173.601441 287.145931 
L 173.926421 278.803862 
L 174.2514 287.145931 
L 174.57638 287.145931 
L 174.90136 295.488 
L 175.226339 287.145931 
L 176.201278 287.145931 
L 176.526257 278.803862 
L 176.851237 295.488 
L 177.176216 287.145931 
L 177.501196 287.145931 
L 177.826175 295.488 
L 178.151155 287.145931 
L 178.476134 295.488 
L 178.801114 295.488 
L 179.126093 278.803862 
L 179.776052 295.488 
L 180.750991 295.488 
L 181.075971 287.145931 
L 181.40095 287.145931 
L 181.72593 278.803862 
L 182.050909 287.145931 
L 182.375889 278.803862 
L 182.700868 278.803862 
L 183.025848 270.461793 
L 184.000786 270.461793 
L 184.325766 262.119724 
L 184.975725 262.119724 
L 185.300704 270.461793 
L 185.625684 262.119724 
L 185.950663 262.119724 
L 186.275643 253.777655 
L 186.600622 253.777655 
L 186.925602 245.435586 
L 187.250581 253.777655 
L 187.900541 237.093517 
L 188.22552 245.435586 
L 188.5505 245.435586 
L 188.875479 237.093517 
L 189.200459 245.435586 
L 189.525438 237.093517 
L 189.850418 237.093517 
L 190.175397 245.435586 
L 190.500377 245.435586 
L 190.825356 237.093517 
L 191.800295 237.093517 
L 192.125274 228.751448 
L 192.450254 237.093517 
L 192.775233 237.093517 
L 193.425192 220.409379 
L 194.400131 220.409379 
L 194.725111 203.725241 
L 195.05009 220.409379 
L 195.37507 212.06731 
L 195.700049 220.409379 
L 196.674988 195.383172 
L 196.999967 203.725241 
L 197.974906 203.725241 
L 198.299885 195.383172 
L 198.624865 195.383172 
L 198.949844 187.041103 
L 199.599803 187.041103 
L 199.924783 178.699034 
L 200.249762 195.383172 
L 200.574742 187.041103 
L 200.899722 187.041103 
L 201.224701 178.699034 
L 202.19964 178.699034 
L 202.524619 170.356966 
L 203.174578 170.356966 
L 203.499558 162.014897 
L 203.824537 162.014897 
L 204.149517 153.672828 
L 204.799476 153.672828 
L 205.124455 145.330759 
L 205.449435 153.672828 
L 206.099394 153.672828 
L 206.424373 145.330759 
L 207.074333 145.330759 
L 207.399312 136.98869 
L 208.049271 136.98869 
L 208.374251 145.330759 
L 208.69923 128.646621 
L 209.02421 120.304552 
L 209.349189 120.304552 
L 209.674169 128.646621 
L 210.324128 111.962483 
L 210.649107 111.962483 
L 211.299066 128.646621 
L 211.949025 111.962483 
L 212.598984 111.962483 
L 212.923964 103.620414 
L 213.248943 111.962483 
L 213.573923 111.962483 
L 213.898903 103.620414 
L 214.223882 103.620414 
L 214.873841 86.936276 
L 215.5238 86.936276 
L 215.84878 95.278345 
L 216.498739 95.278345 
L 217.148698 78.594207 
L 217.473677 86.936276 
L 217.798657 86.936276 
L 218.123636 78.594207 
L 219.423554 78.594207 
L 220.073514 61.910069 
L 220.398493 78.594207 
L 220.723473 61.910069 
L 221.373432 78.594207 
L 221.698411 78.594207 
L 222.023391 70.252138 
L 223.973268 70.252138 
L 224.298247 61.910069 
L 224.623227 70.252138 
L 224.948206 61.910069 
L 225.273186 61.910069 
L 225.598165 70.252138 
L 225.923145 53.568 
L 226.248124 70.252138 
L 226.898084 70.252138 
L 227.223063 61.910069 
L 227.873022 61.910069 
L 228.198002 70.252138 
L 228.522981 61.910069 
L 228.847961 70.252138 
L 229.49792 70.252138 
L 229.822899 78.594207 
L 230.147879 70.252138 
L 230.472858 70.252138 
L 230.797838 78.594207 
L 231.122817 70.252138 
L 231.447797 86.936276 
L 231.772776 86.936276 
L 232.097756 95.278345 
L 232.422735 95.278345 
L 232.747715 86.936276 
L 233.072695 95.278345 
L 233.722654 95.278345 
L 234.047633 103.620414 
L 234.372613 103.620414 
L 234.697592 95.278345 
L 235.022572 103.620414 
L 235.347551 95.278345 
L 235.672531 95.278345 
L 235.99751 103.620414 
L 236.32249 95.278345 
L 236.972449 111.962483 
L 237.622408 111.962483 
L 237.947387 120.304552 
L 238.272367 111.962483 
L 238.922326 111.962483 
L 239.247305 120.304552 
L 240.222244 120.304552 
L 240.547224 128.646621 
L 240.872203 120.304552 
L 241.197183 128.646621 
L 241.522162 120.304552 
L 242.497101 145.330759 
L 242.82208 136.98869 
L 243.14706 145.330759 
L 243.472039 145.330759 
L 243.797019 136.98869 
L 244.121998 136.98869 
L 244.446978 153.672828 
L 246.071876 153.672828 
L 246.396855 162.014897 
L 246.721835 153.672828 
L 247.046814 162.014897 
L 247.371794 162.014897 
L 247.696773 170.356966 
L 248.021753 162.014897 
L 248.346732 162.014897 
L 248.671712 170.356966 
L 249.321671 170.356966 
L 249.64665 178.699034 
L 249.97163 170.356966 
L 250.296609 178.699034 
L 251.271548 178.699034 
L 251.596527 187.041103 
L 251.921507 178.699034 
L 252.246486 195.383172 
L 253.221425 195.383172 
L 253.546405 203.725241 
L 254.196364 203.725241 
L 254.521343 212.06731 
L 255.171302 212.06731 
L 255.496282 228.751448 
L 255.821261 220.409379 
L 256.146241 220.409379 
L 256.47122 212.06731 
L 256.7962 228.751448 
L 257.121179 220.409379 
L 257.446159 220.409379 
L 257.771138 245.435586 
L 258.096118 237.093517 
L 259.396036 237.093517 
L 259.721016 245.435586 
L 260.695954 245.435586 
L 261.020934 253.777655 
L 261.345913 245.435586 
L 261.670893 245.435586 
L 261.995872 253.777655 
L 262.320852 245.435586 
L 262.645831 262.119724 
L 262.970811 262.119724 
L 263.29579 270.461793 
L 263.62077 262.119724 
L 265.245667 262.119724 
L 265.570647 278.803862 
L 265.895627 270.461793 
L 266.545586 270.461793 
L 266.870565 278.803862 
L 267.195545 278.803862 
L 267.520524 270.461793 
L 267.845504 287.145931 
L 268.170483 287.145931 
L 268.495463 295.488 
L 268.820442 287.145931 
L 271.095299 287.145931 
L 271.420278 278.803862 
L 271.745258 278.803862 
L 272.395217 295.488 
L 272.720197 270.461793 
L 273.045176 287.145931 
L 273.370156 295.488 
L 274.020115 295.488 
L 274.345094 287.145931 
L 274.670074 287.145931 
L 274.995053 295.488 
L 275.320033 287.145931 
L 275.645012 295.488 
L 275.969992 287.145931 
L 276.619951 287.145931 
L 276.94493 278.803862 
L 277.26991 287.145931 
L 277.594889 287.145931 
L 277.919869 270.461793 
L 278.569828 287.145931 
L 279.219787 270.461793 
L 279.544767 278.803862 
L 279.869746 270.461793 
L 280.194726 270.461793 
L 280.519705 262.119724 
L 281.169664 262.119724 
L 281.494644 253.777655 
L 282.794562 253.777655 
L 283.119541 245.435586 
L 283.7695 245.435586 
L 284.09448 253.777655 
L 284.419459 245.435586 
L 285.394398 245.435586 
L 285.719378 237.093517 
L 286.044357 237.093517 
L 286.369337 245.435586 
L 286.694316 237.093517 
L 287.019296 237.093517 
L 287.344275 228.751448 
L 287.669255 228.751448 
L 287.994234 245.435586 
L 288.319214 220.409379 
L 288.644193 228.751448 
L 288.969173 228.751448 
L 289.294152 237.093517 
L 289.619132 220.409379 
L 291.244029 220.409379 
L 291.569009 212.06731 
L 291.893989 212.06731 
L 292.218968 203.725241 
L 293.193907 203.725241 
L 293.518886 187.041103 
L 294.168845 203.725241 
L 294.493825 203.725241 
L 294.818804 187.041103 
L 295.143784 187.041103 
L 295.468763 195.383172 
L 296.118722 178.699034 
L 296.443702 187.041103 
L 296.768681 187.041103 
L 297.093661 178.699034 
L 297.74362 178.699034 
L 298.0686 162.014897 
L 298.393579 170.356966 
L 298.718559 153.672828 
L 299.043538 170.356966 
L 299.368518 178.699034 
L 300.343456 153.672828 
L 300.993415 153.672828 
L 301.318395 145.330759 
L 301.643374 153.672828 
L 302.293333 153.672828 
L 303.268272 128.646621 
L 303.593251 136.98869 
L 303.918231 120.304552 
L 304.24321 136.98869 
L 304.89317 136.98869 
L 305.218149 120.304552 
L 306.843047 120.304552 
L 307.168026 128.646621 
L 307.493006 111.962483 
L 307.817985 111.962483 
L 308.142965 103.620414 
L 308.467944 103.620414 
L 308.792924 111.962483 
L 309.117903 95.278345 
L 309.442883 111.962483 
L 309.767862 103.620414 
L 310.092842 111.962483 
L 310.417821 95.278345 
L 311.067781 95.278345 
L 311.39276 86.936276 
L 311.71774 95.278345 
L 312.042719 95.278345 
L 312.367699 86.936276 
L 313.017658 86.936276 
L 313.667617 70.252138 
L 313.992596 86.936276 
L 314.317576 70.252138 
L 314.967535 86.936276 
L 315.292514 86.936276 
L 315.942473 70.252138 
L 316.267453 70.252138 
L 316.592432 78.594207 
L 316.917412 70.252138 
L 317.567371 70.252138 
L 317.892351 61.910069 
L 318.21733 78.594207 
L 318.54231 61.910069 
L 318.867289 61.910069 
L 319.192269 78.594207 
L 319.517248 61.910069 
L 320.167207 78.594207 
L 320.817166 61.910069 
L 321.467125 61.910069 
L 321.792105 70.252138 
L 322.117084 70.252138 
L 322.442064 61.910069 
L 323.092023 61.910069 
L 323.417002 70.252138 
L 324.066962 53.568 
L 324.391941 70.252138 
L 324.716921 53.568 
L 325.0419 70.252138 
L 325.36688 78.594207 
L 326.016839 78.594207 
L 326.341818 70.252138 
L 326.666798 86.936276 
L 326.991777 78.594207 
L 327.641736 78.594207 
L 327.966716 86.936276 
L 329.266634 86.936276 
L 329.591613 95.278345 
L 329.916593 86.936276 
L 330.241572 103.620414 
L 330.566552 103.620414 
L 330.891532 111.962483 
L 331.216511 103.620414 
L 331.541491 111.962483 
L 331.86647 103.620414 
L 332.19145 111.962483 
L 332.516429 103.620414 
L 333.166388 120.304552 
L 333.491368 111.962483 
L 333.816347 120.304552 
L 334.141327 111.962483 
L 334.466306 111.962483 
L 334.791286 120.304552 
L 335.116265 103.620414 
L 335.441245 120.304552 
L 336.091204 136.98869 
L 336.416183 120.304552 
L 336.741163 120.304552 
L 337.066143 128.646621 
L 337.716102 128.646621 
L 338.041081 136.98869 
L 339.340999 136.98869 
L 339.665979 128.646621 
L 339.990958 145.330759 
L 340.315938 136.98869 
L 340.640917 153.672828 
L 340.965897 162.014897 
L 341.615856 162.014897 
L 341.940835 153.672828 
L 342.265815 162.014897 
L 342.915774 162.014897 
L 343.240753 170.356966 
L 343.565733 170.356966 
L 343.890713 162.014897 
L 344.215692 178.699034 
L 344.865651 162.014897 
L 345.190631 178.699034 
L 345.51561 162.014897 
L 345.84059 178.699034 
L 346.165569 178.699034 
L 346.490549 187.041103 
L 346.815528 178.699034 
L 347.140508 187.041103 
L 347.465487 187.041103 
L 347.790467 178.699034 
L 348.115446 195.383172 
L 348.440426 187.041103 
L 349.090385 203.725241 
L 349.415364 195.383172 
L 350.065324 195.383172 
L 350.390303 203.725241 
L 350.715283 203.725241 
L 351.690221 228.751448 
L 352.015201 220.409379 
L 352.34018 220.409379 
L 352.66516 228.751448 
L 352.990139 220.409379 
L 353.640098 237.093517 
L 353.965078 237.093517 
L 354.290057 228.751448 
L 354.615037 228.751448 
L 354.940016 237.093517 
L 355.264996 237.093517 
L 355.589975 245.435586 
L 355.914955 237.093517 
L 356.239934 237.093517 
L 356.564914 245.435586 
L 356.889894 262.119724 
L 357.214873 245.435586 
L 357.539853 253.777655 
L 358.514791 253.777655 
L 358.839771 262.119724 
L 359.814709 262.119724 
L 360.139689 270.461793 
L 360.464668 253.777655 
L 360.789648 270.461793 
L 361.114627 262.119724 
L 361.439607 278.803862 
L 361.764586 278.803862 
L 362.089566 287.145931 
L 362.414545 278.803862 
L 363.714464 278.803862 
L 364.039443 287.145931 
L 364.689402 287.145931 
L 365.014382 278.803862 
L 365.664341 278.803862 
L 365.98932 295.488 
L 366.3143 270.461793 
L 366.639279 287.145931 
L 366.964259 287.145931 
L 367.289238 295.488 
L 367.614218 295.488 
L 367.939197 287.145931 
L 368.264177 295.488 
L 368.589156 295.488 
L 368.914136 287.145931 
L 369.239115 295.488 
L 369.564095 287.145931 
L 370.864013 287.145931 
L 371.188993 295.488 
L 371.513972 278.803862 
L 371.838952 287.145931 
L 372.163931 287.145931 
L 372.488911 295.488 
L 372.81389 278.803862 
L 373.13887 287.145931 
L 373.463849 278.803862 
L 374.763767 278.803862 
L 375.088747 270.461793 
L 375.413726 270.461793 
L 375.738706 262.119724 
L 376.388665 262.119724 
L 376.713645 253.777655 
L 377.363604 270.461793 
L 377.688583 270.461793 
L 378.013563 253.777655 
L 378.988501 253.777655 
L 379.313481 245.435586 
L 379.63846 245.435586 
L 379.96344 253.777655 
L 380.288419 237.093517 
L 380.613399 245.435586 
L 380.938378 237.093517 
L 381.263358 237.093517 
L 381.588337 245.435586 
L 381.913317 237.093517 
L 382.238296 245.435586 
L 382.888256 245.435586 
L 383.213235 237.093517 
L 384.188174 237.093517 
L 384.513153 228.751448 
L 384.838133 237.093517 
L 385.163112 237.093517 
L 385.813071 220.409379 
L 386.138051 220.409379 
L 386.46303 212.06731 
L 386.78801 220.409379 
L 387.112989 203.725241 
L 387.437969 212.06731 
L 388.087928 212.06731 
L 388.412907 203.725241 
L 389.062867 203.725241 
L 389.387846 195.383172 
L 389.712826 203.725241 
L 390.037805 203.725241 
L 390.687764 187.041103 
L 391.337723 187.041103 
L 391.662703 178.699034 
L 391.987682 187.041103 
L 392.312662 178.699034 
L 392.637641 187.041103 
L 393.2876 187.041103 
L 393.61258 178.699034 
L 394.262539 178.699034 
L 394.587518 170.356966 
L 395.562457 170.356966 
L 396.537396 145.330759 
L 396.862375 145.330759 
L 397.187355 153.672828 
L 397.512334 136.98869 
L 397.837314 145.330759 
L 398.487273 145.330759 
L 398.487273 145.330759 
" clip-path="url(#p2f81dbc75b)" style="fill: none; stroke: #ff7f0e; stroke-width: 1.5; stroke-linecap: square"/>
   </g>
   <g id="line2d_14">
    <path d="M 73.832727 150.092831 
L 76.107584 150.016084 
L 78.382441 150.006073 
L 83.257133 150.012747 
L 85.53199 150.006073 
L 88.781785 150.016084 
L 91.056642 150.00941 
L 94.306437 150.096167 
L 96.581294 149.979379 
L 98.856151 149.962694 
L 104.055823 150.016084 
L 111.855332 150.119525 
L 113.480229 150.08282 
L 115.755086 150.042778 
L 126.47941 150.056126 
L 130.054185 150.016084 
L 132.979001 150.089494 
L 139.153612 150.069473 
L 154.10267 149.972705 
L 155.402588 149.982715 
L 157.677445 150.089494 
L 159.952301 150.046115 
L 161.902179 150.016084 
L 165.151974 150.07281 
L 167.101851 149.986052 
L 170.676626 150.07281 
L 174.2514 149.9994 
L 184.975725 149.9994 
L 186.925602 150.012747 
L 190.825356 150.029431 
L 192.775233 149.979379 
L 198.299885 150.039441 
L 201.224701 150.029431 
L 203.499558 150.066136 
L 205.774414 149.9994 
L 209.349189 150.086157 
L 211.299066 150.029431 
L 216.173759 150.022757 
L 226.248124 150.029431 
L 228.522981 150.086157 
L 235.022572 150.059462 
L 236.972449 150.00941 
L 238.922326 150.01942 
L 242.82208 150.059462 
L 245.096937 149.996063 
L 249.64665 149.989389 
L 251.271548 149.986052 
L 255.171302 150.08282 
L 257.446159 149.996063 
L 260.695954 150.089494 
L 262.970811 149.982715 
L 266.545586 150.079483 
L 270.770319 150.016084 
L 278.244848 150.049452 
L 280.194726 150.032768 
L 283.119541 150.022757 
L 286.369337 150.062799 
L 288.319214 149.976042 
L 293.843866 150.052789 
L 297.093661 150.022757 
L 299.368518 150.069473 
L 301.643374 149.996063 
L 305.543129 150.052789 
L 308.467944 150.042778 
L 312.692678 150.01942 
L 398.487273 150.056126 
L 398.487273 150.056126 
" clip-path="url(#p2f81dbc75b)" style="fill: none; stroke: #2ca02c; stroke-width: 1.5; stroke-linecap: square"/>
   </g>
   <g id="patch_3">
    <path d="M 57.6 307.584 
L 57.6 41.472 
" style="fill: none; stroke: #000000; stroke-width: 0.8; stroke-linejoin: miter; stroke-linecap: square"/>
   </g>
   <g id="patch_4">
    <path d="M 414.72 307.584 
L 414.72 41.472 
" style="fill: none; stroke: #000000; stroke-width: 0.8; stroke-linejoin: miter; stroke-linecap: square"/>
   </g>
   <g id="patch_5">
    <path d="M 57.6 307.584 
L 414.72 307.584 
" style="fill: none; stroke: #000000; stroke-width: 0.8; stroke-linejoin: miter; stroke-linecap: square"/>
   </g>
   <g id="patch_6">
    <path d="M 57.6 41.472 
L 414.72 41.472 
" style="fill: none; stroke: #000000; stroke-width: 0.8; stroke-linejoin: miter; stroke-linecap: square"/>
   </g>
  </g>
 </g>
 <defs>
  <clipPath id="p2f81dbc75b">
   <rect x="57.6" y="41.472" width="357.12" height="266.112"/>
  </clipPath>
 </defs>
</svg>
