<?xml version="1.0" encoding="utf-8" standalone="no"?>
<!DOCTYPE svg PUBLIC "-//W3C//DTD SVG 1.1//EN"
  "http://www.w3.org/Graphics/SVG/1.1/DTD/svg11.dtd">
<svg xmlns:xlink="http://www.w3.org/1999/xlink" width="460.8pt" height="345.6pt" viewBox="0 0 460.8 345.6" xmlns="http://www.w3.org/2000/svg" version="1.1">
 <metadata>
  <rdf:RDF xmlns:dc="http://purl.org/dc/elements/1.1/" xmlns:cc="http://creativecommons.org/ns#" xmlns:rdf="http://www.w3.org/1999/02/22-rdf-syntax-ns#">
   <cc:Work>
    <dc:type rdf:resource="http://purl.org/dc/dcmitype/StillImage"/>
    <dc:date>2025-12-24T04:56:59.575861</dc:date>
    <dc:format>image/svg+xml</dc:format>
    <dc:creator>
     <cc:Agent>
      <dc:title>Matplotlib v3.10.8, https://matplotlib.org/</dc:title>
     </cc:Agent>
    </dc:creator>
   </cc:Work>
  </rdf:RDF>
 </metadata>
 <defs>
  <style type="text/css">*{stroke-linejoin: round; stroke-linecap: butt}</style>
 </defs>
 <g id="figure_1">
  <g id="patch_1">
   <path d="M 0 345.6 
L 460.8 345.6 
L 460.8 0 
L 0 0 
z
" style="fill: #ffffff"/>
  </g>
  <g id="axes_1">
   <g id="patch_2">
    <path d="M 57.6 307.584 
L 414.72 307.584 
L 414.72 41.472 
L 57.6 41.472 
z
" style="fill: #ffffff"/>
   </g>
   <g id="matplotlib.axis_1">
    <g id="xtick_1">
     <g id="line2d_1">
      <defs>
       <path id="mf5040d8d91" d="M 0 0 
L 0 3.5 
" style="stroke: #000000; stroke-width: 0.8"/>
      </defs>
      <g>
       <use xlink:href="#mf5040d8d91" x="73.832727" y="307.584" style="stroke: #000000; stroke-width: 0.8"/>
      </g>
     </g>
     <g id="text_1">
      <!-- 0 -->
      <g transform="translate(70.651477 322.182437) scale(0.1 -0.1)">
       <defs>
        <path id="DejaVuSans-30" d="M 2034 4250 
Q 1547 4250 1301 3770 
Q 1056 3291 1056 2328 
Q 1056 1369 1301 889 
Q 1547 409 2034 409 
Q 2525 409 2770 889 
Q 3016 1369 3016 2328 
Q 3016 3291 2770 3770 
Q 2525 4250 2034 4250 
z
M 2034 4750 
Q 2819 4750 3233 4129 
Q 3647 3509 3647 2328 
Q 3647 1150 3233 529 
Q 2819 -91 2034 -91 
Q 1250 -91 836 529 
Q 422 1150 422 2328 
Q 422 3509 836 4129 
Q 1250 4750 2034 4750 
z
" transform="scale(0.015625)"/>
       </defs>
       <use xlink:href="#DejaVuSans-30"/>
      </g>
     </g>
    </g>
    <g id="xtick_2">
     <g id="line2d_2">
      <g>
       <use xlink:href="#mf5040d8d91" x="138.828632" y="307.584" style="stroke: #000000; stroke-width: 0.8"/>
      </g>
     </g>
     <g id="text_2">
      <!-- 1 -->
      <g transform="translate(135.647382 322.182437) scale(0.1 -0.1)">
       <defs>
        <path id="DejaVuSans-31" d="M 794 531 
L 1825 531 
L 1825 4091 
L 703 3866 
L 703 4441 
L 1819 4666 
L 2450 4666 
L 2450 531 
L 3481 531 
L 3481 0 
L 794 0 
L 794 531 
z
" transform="scale(0.015625)"/>
       </defs>
       <use xlink:href="#DejaVuSans-31"/>
      </g>
     </g>
    </g>
    <g id="xtick_3">
     <g id="line2d_3">
      <g>
       <use xlink:href="#mf5040d8d91" x="203.824537" y="307.584" style="stroke: #000000; stroke-width: 0.8"/>
      </g>
     </g>
     <g id="text_3">
      <!-- 2 -->
      <g transform="translate(200.643287 322.182437) scale(0.1 -0.1)">
       <defs>
        <path id="DejaVuSans-32" d="M 1228 531 
L 3431 531 
L 3431 0 
L 469 0 
L 469 531 
Q 828 903 1448 1529 
Q 2069 2156 2228 2338 
Q 2531 2678 2651 2914 
Q 2772 3150 2772 3378 
Q 2772 3750 2511 3984 
Q 2250 4219 1831 4219 
Q 1534 4219 1204 4116 
Q 875 4013 500 3803 
L 500 4441 
Q 881 4594 1212 4672 
Q 1544 4750 1819 4750 
Q 2544 4750 2975 4387 
Q 3406 4025 3406 3419 
Q 3406 3131 3298 2873 
Q 3191 2616 2906 2266 
Q 2828 2175 2409 1742 
Q 1991 1309 1228 531 
z
" transform="scale(0.015625)"/>
       </defs>
       <use xlink:href="#DejaVuSans-32"/>
      </g>
     </g>
    </g>
    <g id="xtick_4">
     <g id="line2d_4">
      <g>
       <use xlink:href="#mf5040d8d91" x="268.820442" y="307.584" style="stroke: #000000; stroke-width: 0.8"/>
      </g>
     </g>
     <g id="text_4">
      <!-- 3 -->
      <g transform="translate(265.639192 322.182437) scale(0.1 -0.1)">
       <defs>
        <path id="DejaVuSans-33" d="M 2597 2516 
Q 3050 2419 3304 2112 
Q 3559 1806 3559 1356 
Q 3559 666 3084 287 
Q 2609 -91 1734 -91 
Q 1441 -91 1130 -33 
Q 819 25 488 141 
L 488 750 
Q 750 597 1062 519 
Q 1375 441 1716 441 
Q 2309 441 2620 675 
Q 2931 909 2931 1356 
Q 2931 1769 2642 2001 
Q 2353 2234 1838 2234 
L 1294 2234 
L 1294 2753 
L 1863 2753 
Q 2328 2753 2575 2939 
Q 2822 3125 2822 3475 
Q 2822 3834 2567 4026 
Q 2313 4219 1838 4219 
Q 1578 4219 1281 4162 
Q 984 4106 628 3988 
L 628 4550 
Q 988 4650 1302 4700 
Q 1616 4750 1894 4750 
Q 2613 4750 3031 4423 
Q 3450 4097 3450 3541 
Q 3450 3153 3228 2886 
Q 3006 2619 2597 2516 
z
" transform="scale(0.015625)"/>
       </defs>
       <use xlink:href="#DejaVuSans-33"/>
      </g>
     </g>
    </g>
    <g id="xtick_5">
     <g id="line2d_5">
      <g>
       <use xlink:href="#mf5040d8d91" x="333.816347" y="307.584" style="stroke: #000000; stroke-width: 0.8"/>
      </g>
     </g>
     <g id="text_5">
      <!-- 4 -->
      <g transform="translate(330.635097 322.182437) scale(0.1 -0.1)">
       <defs>
        <path id="DejaVuSans-34" d="M 2419 4116 
L 825 1625 
L 2419 1625 
L 2419 4116 
z
M 2253 4666 
L 3047 4666 
L 3047 1625 
L 3713 1625 
L 3713 1100 
L 3047 1100 
L 3047 0 
L 2419 0 
L 2419 1100 
L 313 1100 
L 313 1709 
L 2253 4666 
z
" transform="scale(0.015625)"/>
       </defs>
       <use xlink:href="#DejaVuSans-34"/>
      </g>
     </g>
    </g>
    <g id="xtick_6">
     <g id="line2d_6">
      <g>
       <use xlink:href="#mf5040d8d91" x="398.812252" y="307.584" style="stroke: #000000; stroke-width: 0.8"/>
      </g>
     </g>
     <g id="text_6">
      <!-- 5 -->
      <g transform="translate(395.631002 322.182437) scale(0.1 -0.1)">
       <defs>
        <path id="DejaVuSans-35" d="M 691 4666 
L 3169 4666 
L 3169 4134 
L 1269 4134 
L 1269 2991 
Q 1406 3038 1543 3061 
Q 1681 3084 1819 3084 
Q 2600 3084 3056 2656 
Q 3513 2228 3513 1497 
Q 3513 744 3044 326 
Q 2575 -91 1722 -91 
Q 1428 -91 1123 -41 
Q 819 9 494 109 
L 494 744 
Q 775 591 1075 516 
Q 1375 441 1709 441 
Q 2250 441 2565 725 
Q 2881 1009 2881 1497 
Q 2881 1984 2565 2268 
Q 2250 2553 1709 2553 
Q 1456 2553 1204 2497 
Q 953 2441 691 2322 
L 691 4666 
z
" transform="scale(0.015625)"/>
       </defs>
       <use xlink:href="#DejaVuSans-35"/>
      </g>
     </g>
    </g>
    <g id="text_7">
     <!-- 1e−7 -->
     <g transform="translate(387.462188 334.860562) scale(0.1 -0.1)">
      <defs>
       <path id="DejaVuSans-65" d="M 3597 1894 
L 3597 1613 
L 953 1613 
Q 991 1019 1311 708 
Q 1631 397 2203 397 
Q 2534 397 2845 478 
Q 3156 559 3463 722 
L 3463 178 
Q 3153 47 2828 -22 
Q 2503 -91 2169 -91 
Q 1331 -91 842 396 
Q 353 884 353 1716 
Q 353 2575 817 3079 
Q 1281 3584 2069 3584 
Q 2775 3584 3186 3129 
Q 3597 2675 3597 1894 
z
M 3022 2063 
Q 3016 2534 2758 2815 
Q 2500 3097 2075 3097 
Q 1594 3097 1305 2825 
Q 1016 2553 972 2059 
L 3022 2063 
z
" transform="scale(0.015625)"/>
       <path id="DejaVuSans-2212" d="M 678 2272 
L 4684 2272 
L 4684 1741 
L 678 1741 
L 678 2272 
z
" transform="scale(0.015625)"/>
       <path id="DejaVuSans-37" d="M 525 4666 
L 3525 4666 
L 3525 4397 
L 1831 0 
L 1172 0 
L 2766 4134 
L 525 4134 
L 525 4666 
z
" transform="scale(0.015625)"/>
      </defs>
      <use xlink:href="#DejaVuSans-31"/>
      <use xlink:href="#DejaVuSans-65" transform="translate(63.623047 0)"/>
      <use xlink:href="#DejaVuSans-2212" transform="translate(125.146484 0)"/>
      <use xlink:href="#DejaVuSans-37" transform="translate(208.935547 0)"/>
     </g>
    </g>
   </g>
   <g id="matplotlib.axis_2">
    <g id="ytick_1">
     <g id="line2d_7">
      <defs>
       <path id="m433c4e20b6" d="M 0 0 
L -3.5 0 
" style="stroke: #000000; stroke-width: 0.8"/>
      </defs>
      <g>
       <use xlink:href="#m433c4e20b6" x="57.6" y="280.464367" style="stroke: #000000; stroke-width: 0.8"/>
      </g>
     </g>
     <g id="text_8">
      <!-- −40 -->
      <g transform="translate(29.495313 284.263586) scale(0.1 -0.1)">
       <use xlink:href="#DejaVuSans-2212"/>
       <use xlink:href="#DejaVuSans-34" transform="translate(83.789062 0)"/>
       <use xlink:href="#DejaVuSans-30" transform="translate(147.412109 0)"/>
      </g>
     </g>
    </g>
    <g id="ytick_2">
     <g id="line2d_8">
      <g>
       <use xlink:href="#m433c4e20b6" x="57.6" y="227.980032" style="stroke: #000000; stroke-width: 0.8"/>
      </g>
     </g>
     <g id="text_9">
      <!-- −20 -->
      <g transform="translate(29.495313 231.77925) scale(0.1 -0.1)">
       <use xlink:href="#DejaVuSans-2212"/>
       <use xlink:href="#DejaVuSans-32" transform="translate(83.789062 0)"/>
       <use xlink:href="#DejaVuSans-30" transform="translate(147.412109 0)"/>
      </g>
     </g>
    </g>
    <g id="ytick_3">
     <g id="line2d_9">
      <g>
       <use xlink:href="#m433c4e20b6" x="57.6" y="175.495696" style="stroke: #000000; stroke-width: 0.8"/>
      </g>
     </g>
     <g id="text_10">
      <!-- 0 -->
      <g transform="translate(44.2375 179.294915) scale(0.1 -0.1)">
       <use xlink:href="#DejaVuSans-30"/>
      </g>
     </g>
    </g>
    <g id="ytick_4">
     <g id="line2d_10">
      <g>
       <use xlink:href="#m433c4e20b6" x="57.6" y="123.01136" style="stroke: #000000; stroke-width: 0.8"/>
      </g>
     </g>
     <g id="text_11">
      <!-- 20 -->
      <g transform="translate(37.875 126.810579) scale(0.1 -0.1)">
       <use xlink:href="#DejaVuSans-32"/>
       <use xlink:href="#DejaVuSans-30" transform="translate(63.623047 0)"/>
      </g>
     </g>
    </g>
    <g id="ytick_5">
     <g id="line2d_11">
      <g>
       <use xlink:href="#m433c4e20b6" x="57.6" y="70.527024" style="stroke: #000000; stroke-width: 0.8"/>
      </g>
     </g>
     <g id="text_12">
      <!-- 40 -->
      <g transform="translate(37.875 74.326243) scale(0.1 -0.1)">
       <use xlink:href="#DejaVuSans-34"/>
       <use xlink:href="#DejaVuSans-30" transform="translate(63.623047 0)"/>
      </g>
     </g>
    </g>
   </g>
   <g id="line2d_12">
    <path d="M 73.832727 258.584949 
L 74.157707 254.48461 
L 74.807666 254.48461 
L 75.132645 242.183593 
L 75.782604 242.183593 
L 76.107584 233.982915 
L 77.082523 221.681898 
L 77.407502 225.782237 
L 77.732482 217.581559 
L 78.057461 213.48122 
L 78.382441 205.280542 
L 79.0324 205.280542 
L 80.007338 192.979525 
L 80.332318 184.778847 
L 80.657297 188.879186 
L 80.982277 188.879186 
L 81.307256 180.678508 
L 81.632236 180.678508 
L 82.607174 168.377492 
L 82.932154 168.377492 
L 83.257133 164.277153 
L 83.582113 156.076475 
L 83.907093 160.176814 
L 84.232072 160.176814 
L 84.557052 151.976136 
L 84.882031 156.076475 
L 85.207011 156.076475 
L 85.53199 147.875797 
L 86.181949 147.875797 
L 86.506929 143.775458 
L 87.156888 143.775458 
L 87.481867 139.675119 
L 88.456806 139.675119 
L 88.781785 131.474441 
L 89.106765 135.57478 
L 90.081704 135.57478 
L 90.406683 139.675119 
L 90.731663 135.57478 
L 91.056642 135.57478 
L 91.381622 139.675119 
L 91.706601 131.474441 
L 92.031581 135.57478 
L 92.35656 135.57478 
L 92.68154 139.675119 
L 93.006519 135.57478 
L 93.331499 135.57478 
L 93.656478 139.675119 
L 93.981458 131.474441 
L 94.306437 135.57478 
L 94.631417 131.474441 
L 94.956396 135.57478 
L 96.581294 135.57478 
L 96.906274 131.474441 
L 97.881212 131.474441 
L 98.206192 135.57478 
L 98.531171 131.474441 
L 98.856151 131.474441 
L 99.18113 127.374102 
L 100.156069 127.374102 
L 100.481048 123.273763 
L 100.806028 127.374102 
L 101.455987 119.173424 
L 101.780966 123.273763 
L 102.430925 115.073085 
L 103.080885 115.073085 
L 103.405864 110.972746 
L 104.055823 110.972746 
L 104.380803 102.772068 
L 105.030762 102.772068 
L 105.355741 98.671729 
L 106.0057 98.671729 
L 106.33068 94.57139 
L 106.655659 94.57139 
L 106.980639 90.471051 
L 107.305618 90.471051 
L 107.955577 82.270373 
L 108.280557 86.370712 
L 108.605536 82.270373 
L 108.930516 82.270373 
L 109.580475 74.069695 
L 109.905455 74.069695 
L 110.230434 69.969356 
L 110.880393 69.969356 
L 111.205373 65.869017 
L 112.180311 65.869017 
L 112.83027 57.668339 
L 113.15525 61.768678 
L 113.480229 57.668339 
L 113.805209 61.768678 
L 114.130188 57.668339 
L 114.455168 57.668339 
L 114.780147 53.568 
L 115.105127 57.668339 
L 115.755086 57.668339 
L 116.080066 61.768678 
L 116.405045 61.768678 
L 116.730025 57.668339 
L 117.379984 65.869017 
L 117.704963 61.768678 
L 118.354922 61.768678 
L 118.679902 69.969356 
L 119.004881 65.869017 
L 119.329861 69.969356 
L 119.97982 69.969356 
L 120.629779 78.170034 
L 120.954758 78.170034 
L 121.604717 86.370712 
L 122.254676 86.370712 
L 122.579656 94.57139 
L 122.904636 98.671729 
L 123.229615 98.671729 
L 123.554595 102.772068 
L 123.879574 102.772068 
L 124.854513 115.073085 
L 125.179492 115.073085 
L 125.504472 123.273763 
L 126.80439 139.675119 
L 127.129369 139.675119 
L 127.454349 143.775458 
L 127.779328 151.976136 
L 128.104308 151.976136 
L 128.754267 160.176814 
L 129.079247 160.176814 
L 130.054185 172.477831 
L 130.379165 168.377492 
L 130.704144 180.678508 
L 131.029124 180.678508 
L 131.354103 184.778847 
L 131.679083 184.778847 
L 132.004062 188.879186 
L 132.329042 188.879186 
L 132.654021 197.079864 
L 132.979001 197.079864 
L 133.30398 201.180203 
L 133.62896 201.180203 
L 134.278919 209.380881 
L 135.578837 209.380881 
L 135.903817 217.581559 
L 136.553776 217.581559 
L 136.878755 221.681898 
L 137.203735 217.581559 
L 137.853694 225.782237 
L 138.178673 225.782237 
L 138.503653 221.681898 
L 138.828632 221.681898 
L 139.153612 229.882576 
L 139.478591 233.982915 
L 139.803571 229.882576 
L 140.12855 229.882576 
L 140.45353 225.782237 
L 140.778509 229.882576 
L 141.103489 225.782237 
L 141.428468 229.882576 
L 141.753448 229.882576 
L 142.403407 238.083254 
L 142.728387 229.882576 
L 143.378346 238.083254 
L 143.703325 229.882576 
L 144.028305 233.982915 
L 145.328223 233.982915 
L 145.653202 229.882576 
L 146.303161 238.083254 
L 146.628141 238.083254 
L 146.95312 233.982915 
L 147.603079 242.183593 
L 147.928059 233.982915 
L 148.253038 242.183593 
L 148.578018 242.183593 
L 148.902998 238.083254 
L 149.877936 238.083254 
L 150.202916 242.183593 
L 151.177854 242.183593 
L 151.502834 250.384271 
L 151.827813 250.384271 
L 152.152793 246.283932 
L 152.802752 254.48461 
L 153.127731 250.384271 
L 153.452711 254.48461 
L 154.427649 254.48461 
L 154.752629 258.584949 
L 155.077609 258.584949 
L 155.727568 266.785627 
L 156.377527 266.785627 
L 156.702506 274.986305 
L 157.677445 274.986305 
L 158.002424 279.086644 
L 158.652383 279.086644 
L 158.977363 287.287322 
L 159.302342 283.186983 
L 159.627322 287.287322 
L 160.92724 287.287322 
L 161.252219 291.387661 
L 161.577199 287.287322 
L 161.902179 291.387661 
L 162.552138 291.387661 
L 162.877117 295.488 
L 163.202097 295.488 
L 163.527076 291.387661 
L 163.852056 295.488 
L 164.502015 287.287322 
L 164.826994 291.387661 
L 165.476953 291.387661 
L 165.801933 287.287322 
L 166.451892 287.287322 
L 166.776871 279.086644 
L 167.101851 283.186983 
L 167.42683 274.986305 
L 168.401769 274.986305 
L 168.726749 266.785627 
L 169.376708 266.785627 
L 169.701687 258.584949 
L 170.676626 246.283932 
L 171.001605 246.283932 
L 171.651564 238.083254 
L 171.976544 229.882576 
L 172.301523 229.882576 
L 172.951482 221.681898 
L 173.601441 221.681898 
L 174.90136 205.280542 
L 175.226339 205.280542 
L 175.551319 197.079864 
L 176.201278 188.879186 
L 176.526257 188.879186 
L 176.851237 180.678508 
L 177.501196 180.678508 
L 177.826175 176.578169 
L 178.151155 176.578169 
L 178.476134 168.377492 
L 178.801114 172.477831 
L 179.126093 164.277153 
L 179.776052 164.277153 
L 180.101032 156.076475 
L 180.750991 156.076475 
L 181.075971 151.976136 
L 181.40095 151.976136 
L 181.72593 147.875797 
L 182.050909 147.875797 
L 182.375889 139.675119 
L 182.700868 147.875797 
L 183.025848 143.775458 
L 183.350827 135.57478 
L 183.675807 139.675119 
L 184.000786 139.675119 
L 184.325766 135.57478 
L 184.650745 139.675119 
L 184.975725 139.675119 
L 185.300704 135.57478 
L 185.950663 135.57478 
L 186.275643 131.474441 
L 186.600622 139.675119 
L 186.925602 135.57478 
L 187.250581 135.57478 
L 187.575561 131.474441 
L 187.900541 135.57478 
L 188.22552 135.57478 
L 188.5505 131.474441 
L 188.875479 135.57478 
L 189.850418 135.57478 
L 190.175397 139.675119 
L 190.500377 131.474441 
L 190.825356 135.57478 
L 191.150336 135.57478 
L 191.475315 139.675119 
L 192.125274 131.474441 
L 192.450254 135.57478 
L 192.775233 127.374102 
L 193.100213 135.57478 
L 193.425192 131.474441 
L 193.750172 131.474441 
L 194.075152 135.57478 
L 194.400131 135.57478 
L 194.725111 131.474441 
L 195.37507 131.474441 
L 195.700049 127.374102 
L 196.674988 127.374102 
L 196.999967 123.273763 
L 197.649926 123.273763 
L 197.974906 119.173424 
L 198.624865 119.173424 
L 198.949844 110.972746 
L 199.274824 115.073085 
L 199.924783 106.872407 
L 200.249762 110.972746 
L 200.899722 102.772068 
L 201.224701 102.772068 
L 201.549681 98.671729 
L 202.19964 98.671729 
L 202.524619 94.57139 
L 202.849599 94.57139 
L 203.174578 86.370712 
L 203.824537 86.370712 
L 204.149517 82.270373 
L 204.474496 86.370712 
L 204.799476 82.270373 
L 205.124455 74.069695 
L 205.449435 74.069695 
L 205.774414 78.170034 
L 206.099394 74.069695 
L 206.424373 65.869017 
L 206.749353 65.869017 
L 207.074333 69.969356 
L 207.724292 61.768678 
L 208.049271 61.768678 
L 208.374251 57.668339 
L 208.69923 61.768678 
L 209.674169 61.768678 
L 209.999148 65.869017 
L 210.324128 57.668339 
L 210.649107 57.668339 
L 210.974087 61.768678 
L 211.299066 57.668339 
L 212.274005 57.668339 
L 212.598984 61.768678 
L 213.573923 61.768678 
L 213.898903 65.869017 
L 214.223882 61.768678 
L 214.873841 69.969356 
L 215.5238 69.969356 
L 215.84878 74.069695 
L 216.173759 82.270373 
L 216.498739 78.170034 
L 216.823718 78.170034 
L 217.473677 86.370712 
L 217.798657 86.370712 
L 218.448616 94.57139 
L 218.773595 90.471051 
L 219.098575 98.671729 
L 220.398493 115.073085 
L 220.723473 110.972746 
L 221.373432 127.374102 
L 222.023391 127.374102 
L 222.67335 135.57478 
L 222.998329 143.775458 
L 223.323309 147.875797 
L 223.973268 147.875797 
L 224.298247 156.076475 
L 224.623227 160.176814 
L 224.948206 160.176814 
L 225.273186 168.377492 
L 225.598165 172.477831 
L 225.923145 168.377492 
L 226.248124 172.477831 
L 226.573104 180.678508 
L 227.223063 180.678508 
L 228.522981 197.079864 
L 229.17294 197.079864 
L 229.49792 205.280542 
L 230.147879 205.280542 
L 230.797838 213.48122 
L 231.122817 213.48122 
L 231.772776 221.681898 
L 232.097756 217.581559 
L 232.747715 217.581559 
L 233.397674 225.782237 
L 233.722654 221.681898 
L 234.372613 221.681898 
L 234.697592 225.782237 
L 235.347551 225.782237 
L 235.672531 229.882576 
L 235.99751 229.882576 
L 236.32249 225.782237 
L 236.972449 233.982915 
L 237.297428 229.882576 
L 237.947387 229.882576 
L 238.272367 233.982915 
L 238.597346 229.882576 
L 238.922326 233.982915 
L 239.247305 229.882576 
L 239.572285 229.882576 
L 239.897265 233.982915 
L 240.872203 233.982915 
L 241.197183 238.083254 
L 241.522162 229.882576 
L 241.847142 238.083254 
L 242.497101 238.083254 
L 242.82208 233.982915 
L 243.472039 233.982915 
L 243.797019 238.083254 
L 244.446978 238.083254 
L 244.771957 233.982915 
L 245.096937 242.183593 
L 246.721835 242.183593 
L 247.046814 246.283932 
L 248.021753 246.283932 
L 248.346732 250.384271 
L 248.996691 250.384271 
L 249.321671 254.48461 
L 250.296609 254.48461 
L 250.621589 262.685288 
L 250.946568 258.584949 
L 251.271548 258.584949 
L 251.596527 270.885966 
L 251.921507 266.785627 
L 252.246486 270.885966 
L 252.896446 270.885966 
L 253.221425 274.986305 
L 253.546405 274.986305 
L 254.196364 283.186983 
L 254.521343 279.086644 
L 254.846323 283.186983 
L 255.171302 279.086644 
L 255.496282 287.287322 
L 256.47122 287.287322 
L 256.7962 291.387661 
L 257.446159 291.387661 
L 257.771138 295.488 
L 258.421097 295.488 
L 258.746077 291.387661 
L 259.071057 295.488 
L 260.045995 295.488 
L 260.370975 291.387661 
L 260.695954 291.387661 
L 261.020934 287.287322 
L 261.345913 291.387661 
L 261.670893 287.287322 
L 261.995872 287.287322 
L 262.320852 283.186983 
L 262.970811 283.186983 
L 263.945749 270.885966 
L 264.270729 270.885966 
L 265.570647 254.48461 
L 265.895627 254.48461 
L 266.545586 246.283932 
L 267.195545 246.283932 
L 267.520524 238.083254 
L 267.845504 233.982915 
L 268.170483 238.083254 
L 268.495463 229.882576 
L 269.470401 217.581559 
L 269.795381 217.581559 
L 270.12036 209.380881 
L 270.44534 209.380881 
L 270.770319 201.180203 
L 271.095299 205.280542 
L 271.420278 197.079864 
L 272.070238 188.879186 
L 272.395217 192.979525 
L 272.720197 184.778847 
L 273.045176 184.778847 
L 273.370156 180.678508 
L 273.695135 172.477831 
L 274.020115 172.477831 
L 274.345094 168.377492 
L 274.670074 168.377492 
L 274.995053 164.277153 
L 275.320033 164.277153 
L 275.969992 156.076475 
L 276.294971 160.176814 
L 276.619951 151.976136 
L 277.594889 151.976136 
L 277.919869 143.775458 
L 278.244848 143.775458 
L 278.569828 147.875797 
L 278.894808 139.675119 
L 279.544767 139.675119 
L 279.869746 143.775458 
L 280.519705 135.57478 
L 280.844685 139.675119 
L 281.169664 131.474441 
L 281.819623 139.675119 
L 282.144603 131.474441 
L 282.469582 135.57478 
L 284.744439 135.57478 
L 285.069419 139.675119 
L 285.394398 135.57478 
L 286.044357 135.57478 
L 286.369337 127.374102 
L 286.694316 135.57478 
L 287.019296 139.675119 
L 287.669255 131.474441 
L 287.994234 135.57478 
L 288.319214 131.474441 
L 288.644193 131.474441 
L 288.969173 139.675119 
L 289.294152 131.474441 
L 289.619132 135.57478 
L 289.944111 131.474441 
L 290.91905 131.474441 
L 291.569009 123.273763 
L 291.893989 127.374102 
L 292.218968 127.374102 
L 292.543948 123.273763 
L 293.193907 123.273763 
L 293.518886 119.173424 
L 293.843866 119.173424 
L 294.168845 123.273763 
L 294.493825 115.073085 
L 294.818804 110.972746 
L 295.143784 110.972746 
L 295.468763 115.073085 
L 296.443702 102.772068 
L 297.093661 102.772068 
L 297.74362 94.57139 
L 298.393579 94.57139 
L 298.718559 90.471051 
L 299.368518 90.471051 
L 299.693497 86.370712 
L 300.018477 86.370712 
L 300.343456 82.270373 
L 300.993415 82.270373 
L 301.318395 74.069695 
L 301.643374 74.069695 
L 301.968354 69.969356 
L 302.293333 74.069695 
L 302.618313 69.969356 
L 303.268272 69.969356 
L 303.918231 61.768678 
L 304.24321 65.869017 
L 304.56819 65.869017 
L 304.89317 57.668339 
L 305.218149 61.768678 
L 305.543129 57.668339 
L 305.868108 57.668339 
L 306.193088 61.768678 
L 306.518067 57.668339 
L 306.843047 57.668339 
L 307.168026 53.568 
L 307.817985 61.768678 
L 308.142965 57.668339 
L 308.467944 61.768678 
L 308.792924 61.768678 
L 309.117903 57.668339 
L 309.767862 65.869017 
L 311.067781 65.869017 
L 311.39276 74.069695 
L 311.71774 69.969356 
L 312.042719 74.069695 
L 312.367699 74.069695 
L 312.692678 82.270373 
L 313.017658 82.270373 
L 313.342637 86.370712 
L 313.667617 86.370712 
L 313.992596 94.57139 
L 314.317576 90.471051 
L 314.642555 94.57139 
L 314.967535 102.772068 
L 315.617494 102.772068 
L 317.242391 123.273763 
L 317.567371 123.273763 
L 317.892351 131.474441 
L 318.21733 131.474441 
L 318.54231 139.675119 
L 319.192269 147.875797 
L 319.517248 147.875797 
L 320.492187 160.176814 
L 320.817166 160.176814 
L 322.117084 176.578169 
L 322.767043 176.578169 
L 323.092023 184.778847 
L 323.417002 188.879186 
L 323.741982 188.879186 
L 324.066962 197.079864 
L 324.391941 192.979525 
L 324.716921 192.979525 
L 325.0419 197.079864 
L 325.36688 205.280542 
L 326.341818 205.280542 
L 326.666798 209.380881 
L 326.991777 217.581559 
L 327.316757 213.48122 
L 327.641736 217.581559 
L 327.966716 213.48122 
L 328.291695 221.681898 
L 328.616675 217.581559 
L 328.941654 217.581559 
L 329.591613 225.782237 
L 329.916593 217.581559 
L 330.241572 225.782237 
L 330.891532 225.782237 
L 331.216511 229.882576 
L 331.541491 225.782237 
L 331.86647 229.882576 
L 332.19145 225.782237 
L 332.516429 225.782237 
L 332.841409 229.882576 
L 333.166388 229.882576 
L 333.491368 233.982915 
L 333.816347 229.882576 
L 334.141327 229.882576 
L 334.466306 233.982915 
L 335.441245 233.982915 
L 335.766224 238.083254 
L 336.091204 233.982915 
L 336.741163 233.982915 
L 337.066143 238.083254 
L 337.391122 233.982915 
L 337.716102 238.083254 
L 338.041081 233.982915 
L 338.366061 233.982915 
L 338.69104 238.083254 
L 339.340999 238.083254 
L 339.665979 233.982915 
L 339.990958 242.183593 
L 340.315938 238.083254 
L 340.640917 242.183593 
L 340.965897 242.183593 
L 341.290876 238.083254 
L 341.615856 242.183593 
L 341.940835 238.083254 
L 342.265815 242.183593 
L 342.915774 242.183593 
L 343.240753 246.283932 
L 343.565733 246.283932 
L 343.890713 254.48461 
L 344.215692 250.384271 
L 344.865651 250.384271 
L 345.190631 254.48461 
L 345.51561 254.48461 
L 345.84059 258.584949 
L 346.165569 266.785627 
L 346.490549 258.584949 
L 346.815528 258.584949 
L 347.140508 266.785627 
L 347.465487 262.685288 
L 347.790467 266.785627 
L 348.115446 266.785627 
L 348.440426 270.885966 
L 348.765405 270.885966 
L 349.090385 274.986305 
L 349.415364 274.986305 
L 349.740344 279.086644 
L 350.715283 279.086644 
L 351.040262 283.186983 
L 351.365242 291.387661 
L 351.690221 287.287322 
L 352.015201 291.387661 
L 352.34018 287.287322 
L 352.66516 291.387661 
L 352.990139 291.387661 
L 353.315119 295.488 
L 353.965078 287.287322 
L 354.290057 291.387661 
L 355.264996 291.387661 
L 355.589975 295.488 
L 355.914955 287.287322 
L 356.239934 291.387661 
L 356.564914 291.387661 
L 356.889894 287.287322 
L 357.864832 287.287322 
L 358.189812 283.186983 
L 358.514791 283.186983 
L 359.16475 274.986305 
L 359.48973 274.986305 
L 359.814709 270.885966 
L 360.464668 270.885966 
L 360.789648 262.685288 
L 361.114627 258.584949 
L 361.439607 258.584949 
L 362.414545 246.283932 
L 362.739525 246.283932 
L 363.064505 242.183593 
L 363.389484 233.982915 
L 363.714464 238.083254 
L 364.039443 233.982915 
L 364.364423 225.782237 
L 364.689402 225.782237 
L 366.3143 205.280542 
L 366.964259 205.280542 
L 367.289238 197.079864 
L 367.614218 197.079864 
L 367.939197 188.879186 
L 368.264177 188.879186 
L 368.589156 184.778847 
L 368.914136 184.778847 
L 369.239115 180.678508 
L 369.564095 168.377492 
L 369.889075 172.477831 
L 370.214054 172.477831 
L 370.864013 164.277153 
L 371.188993 164.277153 
L 371.838952 156.076475 
L 372.163931 160.176814 
L 373.13887 147.875797 
L 373.463849 151.976136 
L 374.113808 143.775458 
L 374.438788 143.775458 
L 374.763767 139.675119 
L 375.088747 143.775458 
L 375.413726 139.675119 
L 375.738706 139.675119 
L 376.063686 135.57478 
L 376.388665 143.775458 
L 376.713645 135.57478 
L 377.038624 139.675119 
L 377.363604 139.675119 
L 377.688583 135.57478 
L 378.013563 135.57478 
L 378.338542 131.474441 
L 378.988501 139.675119 
L 379.313481 139.675119 
L 379.96344 131.474441 
L 380.288419 139.675119 
L 380.613399 135.57478 
L 380.938378 135.57478 
L 381.263358 139.675119 
L 381.588337 139.675119 
L 381.913317 131.474441 
L 382.563276 139.675119 
L 382.888256 131.474441 
L 383.213235 135.57478 
L 384.513153 135.57478 
L 385.163112 127.374102 
L 385.488092 135.57478 
L 386.138051 127.374102 
L 386.46303 131.474441 
L 386.78801 131.474441 
L 387.112989 127.374102 
L 387.437969 131.474441 
L 387.762948 131.474441 
L 388.412907 123.273763 
L 388.737887 123.273763 
L 389.062867 127.374102 
L 389.387846 119.173424 
L 390.037805 119.173424 
L 390.362785 110.972746 
L 391.337723 110.972746 
L 391.662703 106.872407 
L 391.987682 106.872407 
L 392.312662 102.772068 
L 392.962621 102.772068 
L 393.2876 98.671729 
L 393.937559 98.671729 
L 394.587518 90.471051 
L 395.237477 90.471051 
L 395.562457 82.270373 
L 396.212416 82.270373 
L 396.537396 78.170034 
L 396.862375 82.270373 
L 397.187355 74.069695 
L 397.512334 69.969356 
L 397.837314 74.069695 
L 398.162293 69.969356 
L 398.487273 69.969356 
L 398.487273 69.969356 
" clip-path="url(#p139a1d2337)" style="fill: none; stroke: #1f77b4; stroke-width: 1.5; stroke-linecap: square"/>
   </g>
   <g id="patch_3">
    <path d="M 57.6 307.584 
L 57.6 41.472 
" style="fill: none; stroke: #000000; stroke-width: 0.8; stroke-linejoin: miter; stroke-linecap: square"/>
   </g>
   <g id="patch_4">
    <path d="M 414.72 307.584 
L 414.72 41.472 
" style="fill: none; stroke: #000000; stroke-width: 0.8; stroke-linejoin: miter; stroke-linecap: square"/>
   </g>
   <g id="patch_5">
    <path d="M 57.6 307.584 
L 414.72 307.584 
" style="fill: none; stroke: #000000; stroke-width: 0.8; stroke-linejoin: miter; stroke-linecap: square"/>
   </g>
   <g id="patch_6">
    <path d="M 57.6 41.472 
L 414.72 41.472 
" style="fill: none; stroke: #000000; stroke-width: 0.8; stroke-linejoin: miter; stroke-linecap: square"/>
   </g>
  </g>
 </g>
 <defs>
  <clipPath id="p139a1d2337">
   <rect x="57.6" y="41.472" width="357.12" height="266.112"/>
  </clipPath>
 </defs>
</svg>
