<?xml version="1.0" encoding="utf-8" standalone="no"?>
<!DOCTYPE svg PUBLIC "-//W3C//DTD SVG 1.1//EN"
  "http://www.w3.org/Graphics/SVG/1.1/DTD/svg11.dtd">
<svg xmlns:xlink="http://www.w3.org/1999/xlink" width="460.8pt" height="345.6pt" viewBox="0 0 460.8 345.6" xmlns="http://www.w3.org/2000/svg" version="1.1">
 <metadata>
  <rdf:RDF xmlns:dc="http://purl.org/dc/elements/1.1/" xmlns:cc="http://creativecommons.org/ns#" xmlns:rdf="http://www.w3.org/1999/02/22-rdf-syntax-ns#">
   <cc:Work>
    <dc:type rdf:resource="http://purl.org/dc/dcmitype/StillImage"/>
    <dc:date>2025-12-24T04:57:35.607409</dc:date>
    <dc:format>image/svg+xml</dc:format>
    <dc:creator>
     <cc:Agent>
      <dc:title>Matplotlib v3.10.8, https://matplotlib.org/</dc:title>
     </cc:Agent>
    </dc:creator>
   </cc:Work>
  </rdf:RDF>
 </metadata>
 <defs>
  <style type="text/css">*{stroke-linejoin: round; stroke-linecap: butt}</style>
 </defs>
 <g id="figure_1">
  <g id="patch_1">
   <path d="M 0 345.6 
L 460.8 345.6 
L 460.8 0 
L 0 0 
z
" style="fill: #ffffff"/>
  </g>
  <g id="axes_1">
   <g id="patch_2">
    <path d="M 57.6 307.584 
L 414.72 307.584 
L 414.72 41.472 
L 57.6 41.472 
z
" style="fill: #ffffff"/>
   </g>
   <g id="matplotlib.axis_1">
    <g id="xtick_1">
     <g id="line2d_1">
      <defs>
       <path id="mbc9bbfb9bf" d="M 0 0 
L 0 3.5 
" style="stroke: #000000; stroke-width: 0.8"/>
      </defs>
      <g>
       <use xlink:href="#mbc9bbfb9bf" x="73.832727" y="307.584" style="stroke: #000000; stroke-width: 0.8"/>
      </g>
     </g>
     <g id="text_1">
      <!-- 0 -->
      <g transform="translate(70.651477 322.182437) scale(0.1 -0.1)">
       <defs>
        <path id="DejaVuSans-30" d="M 2034 4250 
Q 1547 4250 1301 3770 
Q 1056 3291 1056 2328 
Q 1056 1369 1301 889 
Q 1547 409 2034 409 
Q 2525 409 2770 889 
Q 3016 1369 3016 2328 
Q 3016 3291 2770 3770 
Q 2525 4250 2034 4250 
z
M 2034 4750 
Q 2819 4750 3233 4129 
Q 3647 3509 3647 2328 
Q 3647 1150 3233 529 
Q 2819 -91 2034 -91 
Q 1250 -91 836 529 
Q 422 1150 422 2328 
Q 422 3509 836 4129 
Q 1250 4750 2034 4750 
z
" transform="scale(0.015625)"/>
       </defs>
       <use xlink:href="#DejaVuSans-30"/>
      </g>
     </g>
    </g>
    <g id="xtick_2">
     <g id="line2d_2">
      <g>
       <use xlink:href="#mbc9bbfb9bf" x="138.828632" y="307.584" style="stroke: #000000; stroke-width: 0.8"/>
      </g>
     </g>
     <g id="text_2">
      <!-- 1 -->
      <g transform="translate(135.647382 322.182437) scale(0.1 -0.1)">
       <defs>
        <path id="DejaVuSans-31" d="M 794 531 
L 1825 531 
L 1825 4091 
L 703 3866 
L 703 4441 
L 1819 4666 
L 2450 4666 
L 2450 531 
L 3481 531 
L 3481 0 
L 794 0 
L 794 531 
z
" transform="scale(0.015625)"/>
       </defs>
       <use xlink:href="#DejaVuSans-31"/>
      </g>
     </g>
    </g>
    <g id="xtick_3">
     <g id="line2d_3">
      <g>
       <use xlink:href="#mbc9bbfb9bf" x="203.824537" y="307.584" style="stroke: #000000; stroke-width: 0.8"/>
      </g>
     </g>
     <g id="text_3">
      <!-- 2 -->
      <g transform="translate(200.643287 322.182437) scale(0.1 -0.1)">
       <defs>
        <path id="DejaVuSans-32" d="M 1228 531 
L 3431 531 
L 3431 0 
L 469 0 
L 469 531 
Q 828 903 1448 1529 
Q 2069 2156 2228 2338 
Q 2531 2678 2651 2914 
Q 2772 3150 2772 3378 
Q 2772 3750 2511 3984 
Q 2250 4219 1831 4219 
Q 1534 4219 1204 4116 
Q 875 4013 500 3803 
L 500 4441 
Q 881 4594 1212 4672 
Q 1544 4750 1819 4750 
Q 2544 4750 2975 4387 
Q 3406 4025 3406 3419 
Q 3406 3131 3298 2873 
Q 3191 2616 2906 2266 
Q 2828 2175 2409 1742 
Q 1991 1309 1228 531 
z
" transform="scale(0.015625)"/>
       </defs>
       <use xlink:href="#DejaVuSans-32"/>
      </g>
     </g>
    </g>
    <g id="xtick_4">
     <g id="line2d_4">
      <g>
       <use xlink:href="#mbc9bbfb9bf" x="268.820442" y="307.584" style="stroke: #000000; stroke-width: 0.8"/>
      </g>
     </g>
     <g id="text_4">
      <!-- 3 -->
      <g transform="translate(265.639192 322.182437) scale(0.1 -0.1)">
       <defs>
        <path id="DejaVuSans-33" d="M 2597 2516 
Q 3050 2419 3304 2112 
Q 3559 1806 3559 1356 
Q 3559 666 3084 287 
Q 2609 -91 1734 -91 
Q 1441 -91 1130 -33 
Q 819 25 488 141 
L 488 750 
Q 750 597 1062 519 
Q 1375 441 1716 441 
Q 2309 441 2620 675 
Q 2931 909 2931 1356 
Q 2931 1769 2642 2001 
Q 2353 2234 1838 2234 
L 1294 2234 
L 1294 2753 
L 1863 2753 
Q 2328 2753 2575 2939 
Q 2822 3125 2822 3475 
Q 2822 3834 2567 4026 
Q 2313 4219 1838 4219 
Q 1578 4219 1281 4162 
Q 984 4106 628 3988 
L 628 4550 
Q 988 4650 1302 4700 
Q 1616 4750 1894 4750 
Q 2613 4750 3031 4423 
Q 3450 4097 3450 3541 
Q 3450 3153 3228 2886 
Q 3006 2619 2597 2516 
z
" transform="scale(0.015625)"/>
       </defs>
       <use xlink:href="#DejaVuSans-33"/>
      </g>
     </g>
    </g>
    <g id="xtick_5">
     <g id="line2d_5">
      <g>
       <use xlink:href="#mbc9bbfb9bf" x="333.816347" y="307.584" style="stroke: #000000; stroke-width: 0.8"/>
      </g>
     </g>
     <g id="text_5">
      <!-- 4 -->
      <g transform="translate(330.635097 322.182437) scale(0.1 -0.1)">
       <defs>
        <path id="DejaVuSans-34" d="M 2419 4116 
L 825 1625 
L 2419 1625 
L 2419 4116 
z
M 2253 4666 
L 3047 4666 
L 3047 1625 
L 3713 1625 
L 3713 1100 
L 3047 1100 
L 3047 0 
L 2419 0 
L 2419 1100 
L 313 1100 
L 313 1709 
L 2253 4666 
z
" transform="scale(0.015625)"/>
       </defs>
       <use xlink:href="#DejaVuSans-34"/>
      </g>
     </g>
    </g>
    <g id="xtick_6">
     <g id="line2d_6">
      <g>
       <use xlink:href="#mbc9bbfb9bf" x="398.812252" y="307.584" style="stroke: #000000; stroke-width: 0.8"/>
      </g>
     </g>
     <g id="text_6">
      <!-- 5 -->
      <g transform="translate(395.631002 322.182437) scale(0.1 -0.1)">
       <defs>
        <path id="DejaVuSans-35" d="M 691 4666 
L 3169 4666 
L 3169 4134 
L 1269 4134 
L 1269 2991 
Q 1406 3038 1543 3061 
Q 1681 3084 1819 3084 
Q 2600 3084 3056 2656 
Q 3513 2228 3513 1497 
Q 3513 744 3044 326 
Q 2575 -91 1722 -91 
Q 1428 -91 1123 -41 
Q 819 9 494 109 
L 494 744 
Q 775 591 1075 516 
Q 1375 441 1709 441 
Q 2250 441 2565 725 
Q 2881 1009 2881 1497 
Q 2881 1984 2565 2268 
Q 2250 2553 1709 2553 
Q 1456 2553 1204 2497 
Q 953 2441 691 2322 
L 691 4666 
z
" transform="scale(0.015625)"/>
       </defs>
       <use xlink:href="#DejaVuSans-35"/>
      </g>
     </g>
    </g>
    <g id="text_7">
     <!-- 1e−7 -->
     <g transform="translate(387.462188 334.860562) scale(0.1 -0.1)">
      <defs>
       <path id="DejaVuSans-65" d="M 3597 1894 
L 3597 1613 
L 953 1613 
Q 991 1019 1311 708 
Q 1631 397 2203 397 
Q 2534 397 2845 478 
Q 3156 559 3463 722 
L 3463 178 
Q 3153 47 2828 -22 
Q 2503 -91 2169 -91 
Q 1331 -91 842 396 
Q 353 884 353 1716 
Q 353 2575 817 3079 
Q 1281 3584 2069 3584 
Q 2775 3584 3186 3129 
Q 3597 2675 3597 1894 
z
M 3022 2063 
Q 3016 2534 2758 2815 
Q 2500 3097 2075 3097 
Q 1594 3097 1305 2825 
Q 1016 2553 972 2059 
L 3022 2063 
z
" transform="scale(0.015625)"/>
       <path id="DejaVuSans-2212" d="M 678 2272 
L 4684 2272 
L 4684 1741 
L 678 1741 
L 678 2272 
z
" transform="scale(0.015625)"/>
       <path id="DejaVuSans-37" d="M 525 4666 
L 3525 4666 
L 3525 4397 
L 1831 0 
L 1172 0 
L 2766 4134 
L 525 4134 
L 525 4666 
z
" transform="scale(0.015625)"/>
      </defs>
      <use xlink:href="#DejaVuSans-31"/>
      <use xlink:href="#DejaVuSans-65" transform="translate(63.623047 0)"/>
      <use xlink:href="#DejaVuSans-2212" transform="translate(125.146484 0)"/>
      <use xlink:href="#DejaVuSans-37" transform="translate(208.935547 0)"/>
     </g>
    </g>
   </g>
   <g id="matplotlib.axis_2">
    <g id="ytick_1">
     <g id="line2d_7">
      <defs>
       <path id="mf6d0566f46" d="M 0 0 
L -3.5 0 
" style="stroke: #000000; stroke-width: 0.8"/>
      </defs>
      <g>
       <use xlink:href="#mf6d0566f46" x="57.6" y="277.069833" style="stroke: #000000; stroke-width: 0.8"/>
      </g>
     </g>
     <g id="text_8">
      <!-- −40 -->
      <g transform="translate(29.495313 280.869052) scale(0.1 -0.1)">
       <use xlink:href="#DejaVuSans-2212"/>
       <use xlink:href="#DejaVuSans-34" transform="translate(83.789062 0)"/>
       <use xlink:href="#DejaVuSans-30" transform="translate(147.412109 0)"/>
      </g>
     </g>
    </g>
    <g id="ytick_2">
     <g id="line2d_8">
      <g>
       <use xlink:href="#mf6d0566f46" x="57.6" y="225.460236" style="stroke: #000000; stroke-width: 0.8"/>
      </g>
     </g>
     <g id="text_9">
      <!-- −20 -->
      <g transform="translate(29.495313 229.259455) scale(0.1 -0.1)">
       <use xlink:href="#DejaVuSans-2212"/>
       <use xlink:href="#DejaVuSans-32" transform="translate(83.789062 0)"/>
       <use xlink:href="#DejaVuSans-30" transform="translate(147.412109 0)"/>
      </g>
     </g>
    </g>
    <g id="ytick_3">
     <g id="line2d_9">
      <g>
       <use xlink:href="#mf6d0566f46" x="57.6" y="173.85064" style="stroke: #000000; stroke-width: 0.8"/>
      </g>
     </g>
     <g id="text_10">
      <!-- 0 -->
      <g transform="translate(44.2375 177.649858) scale(0.1 -0.1)">
       <use xlink:href="#DejaVuSans-30"/>
      </g>
     </g>
    </g>
    <g id="ytick_4">
     <g id="line2d_10">
      <g>
       <use xlink:href="#mf6d0566f46" x="57.6" y="122.241043" style="stroke: #000000; stroke-width: 0.8"/>
      </g>
     </g>
     <g id="text_11">
      <!-- 20 -->
      <g transform="translate(37.875 126.040262) scale(0.1 -0.1)">
       <use xlink:href="#DejaVuSans-32"/>
       <use xlink:href="#DejaVuSans-30" transform="translate(63.623047 0)"/>
      </g>
     </g>
    </g>
    <g id="ytick_5">
     <g id="line2d_11">
      <g>
       <use xlink:href="#mf6d0566f46" x="57.6" y="70.631446" style="stroke: #000000; stroke-width: 0.8"/>
      </g>
     </g>
     <g id="text_12">
      <!-- 40 -->
      <g transform="translate(37.875 74.430665) scale(0.1 -0.1)">
       <use xlink:href="#DejaVuSans-34"/>
       <use xlink:href="#DejaVuSans-30" transform="translate(63.623047 0)"/>
      </g>
     </g>
    </g>
   </g>
   <g id="line2d_12">
    <path d="M 73.832727 251.136 
L 74.157707 251.136 
L 74.807666 243.072 
L 75.132645 243.072 
L 75.457625 239.04 
L 75.782604 230.976 
L 76.432563 230.976 
L 76.757543 222.912 
L 77.082523 222.912 
L 77.407502 214.848 
L 78.057461 214.848 
L 78.382441 206.784 
L 78.70742 206.784 
L 79.0324 198.72 
L 79.357379 202.752 
L 80.332318 190.656 
L 80.657297 190.656 
L 80.982277 182.592 
L 81.632236 182.592 
L 82.282195 166.464 
L 82.932154 166.464 
L 83.582113 158.4 
L 83.907093 162.432 
L 84.232072 154.368 
L 84.557052 154.368 
L 84.882031 150.336 
L 85.53199 150.336 
L 86.181949 142.272 
L 86.506929 146.304 
L 86.831908 146.304 
L 87.481867 138.24 
L 88.456806 138.24 
L 88.781785 134.208 
L 89.106765 138.24 
L 89.431744 130.176 
L 89.756724 138.24 
L 90.081704 134.208 
L 91.056642 134.208 
L 91.381622 130.176 
L 91.706601 138.24 
L 92.031581 138.24 
L 92.35656 130.176 
L 92.68154 130.176 
L 93.006519 134.208 
L 93.331499 130.176 
L 93.656478 134.208 
L 94.306437 134.208 
L 94.631417 130.176 
L 94.956396 134.208 
L 95.281376 134.208 
L 95.606355 130.176 
L 95.931335 134.208 
L 96.256314 134.208 
L 96.581294 130.176 
L 96.906274 134.208 
L 97.231253 134.208 
L 97.881212 126.144 
L 98.531171 126.144 
L 98.856151 130.176 
L 99.18113 126.144 
L 99.50611 126.144 
L 99.831089 122.112 
L 100.156069 126.144 
L 100.806028 118.08 
L 101.131007 122.112 
L 101.455987 122.112 
L 101.780966 114.048 
L 102.105946 118.08 
L 102.430925 118.08 
L 102.755905 110.016 
L 103.730844 110.016 
L 104.055823 105.984 
L 104.380803 105.984 
L 104.705782 101.952 
L 105.030762 101.952 
L 105.355741 97.92 
L 105.680721 97.92 
L 106.0057 89.856 
L 106.33068 93.888 
L 106.655659 93.888 
L 106.980639 85.824 
L 107.630598 85.824 
L 107.955577 81.792 
L 108.280557 81.792 
L 108.605536 77.76 
L 108.930516 77.76 
L 109.255495 81.792 
L 110.230434 69.696 
L 110.555414 69.696 
L 110.880393 65.664 
L 111.205373 65.664 
L 111.530352 69.696 
L 111.855332 61.632 
L 112.180311 57.6 
L 112.83027 65.664 
L 113.480229 57.6 
L 114.130188 57.6 
L 114.455168 61.632 
L 114.780147 61.632 
L 115.105127 57.6 
L 116.730025 57.6 
L 117.055004 61.632 
L 117.379984 57.6 
L 117.704963 65.664 
L 118.029943 65.664 
L 118.354922 61.632 
L 118.679902 65.664 
L 119.329861 65.664 
L 119.97982 73.728 
L 120.629779 73.728 
L 120.954758 77.76 
L 121.279738 85.824 
L 121.604717 81.792 
L 121.929697 81.792 
L 122.254676 93.888 
L 122.579656 89.856 
L 123.229615 97.92 
L 123.554595 97.92 
L 125.179492 118.08 
L 125.504472 118.08 
L 125.829451 122.112 
L 126.154431 130.176 
L 126.80439 130.176 
L 127.454349 146.304 
L 127.779328 142.272 
L 128.104308 150.336 
L 128.429287 154.368 
L 128.754267 154.368 
L 129.404226 162.432 
L 129.729206 162.432 
L 130.054185 166.464 
L 130.379165 174.528 
L 131.029124 174.528 
L 131.354103 182.592 
L 131.679083 182.592 
L 132.004062 186.624 
L 132.329042 186.624 
L 133.30398 198.72 
L 133.953939 198.72 
L 134.278919 202.752 
L 134.603898 202.752 
L 135.253857 210.816 
L 135.578837 206.784 
L 135.903817 206.784 
L 136.553776 214.848 
L 136.878755 210.816 
L 137.853694 222.912 
L 138.178673 218.88 
L 138.828632 226.944 
L 139.153612 222.912 
L 139.478591 222.912 
L 139.803571 226.944 
L 141.103489 226.944 
L 141.428468 222.912 
L 142.078428 230.976 
L 142.403407 222.912 
L 142.728387 230.976 
L 143.053366 230.976 
L 143.378346 222.912 
L 143.703325 230.976 
L 144.028305 235.008 
L 144.353284 230.976 
L 145.003243 230.976 
L 145.328223 235.008 
L 145.978182 235.008 
L 146.303161 230.976 
L 146.628141 230.976 
L 146.95312 235.008 
L 148.253038 235.008 
L 148.578018 230.976 
L 148.902998 239.04 
L 149.552957 239.04 
L 149.877936 235.008 
L 150.527895 243.072 
L 152.152793 243.072 
L 152.477772 247.104 
L 152.802752 247.104 
L 153.452711 255.168 
L 153.77769 251.136 
L 154.427649 259.2 
L 154.752629 255.168 
L 155.077609 259.2 
L 155.402588 259.2 
L 156.052547 267.264 
L 156.377527 263.232 
L 156.702506 267.264 
L 157.027486 267.264 
L 157.352465 271.296 
L 157.677445 271.296 
L 158.002424 275.328 
L 158.327404 275.328 
L 158.652383 279.36 
L 158.977363 275.328 
L 159.627322 283.392 
L 160.60226 283.392 
L 160.92724 287.424 
L 161.902179 287.424 
L 162.227158 283.392 
L 162.552138 291.456 
L 162.877117 291.456 
L 163.202097 287.424 
L 163.527076 287.424 
L 163.852056 295.488 
L 164.177035 283.392 
L 164.502015 287.424 
L 165.151974 287.424 
L 165.801933 279.36 
L 166.126912 283.392 
L 166.776871 275.328 
L 167.101851 275.328 
L 167.42683 267.264 
L 167.75181 271.296 
L 168.07679 271.296 
L 168.401769 263.232 
L 169.051728 263.232 
L 169.376708 255.168 
L 170.026667 255.168 
L 170.351646 247.104 
L 170.676626 247.104 
L 171.001605 243.072 
L 171.326585 243.072 
L 172.301523 230.976 
L 172.626503 222.912 
L 172.951482 222.912 
L 173.601441 214.848 
L 174.2514 214.848 
L 174.57638 202.752 
L 174.90136 198.72 
L 175.226339 202.752 
L 175.551319 194.688 
L 176.201278 186.624 
L 176.526257 186.624 
L 177.826175 170.496 
L 178.151155 174.528 
L 178.476134 170.496 
L 178.801114 162.432 
L 179.126093 162.432 
L 179.451073 166.464 
L 179.776052 154.368 
L 180.101032 158.4 
L 180.426011 158.4 
L 180.750991 150.336 
L 181.075971 146.304 
L 181.40095 146.304 
L 181.72593 150.336 
L 182.050909 146.304 
L 182.375889 146.304 
L 183.025848 138.24 
L 183.350827 142.272 
L 183.675807 142.272 
L 184.000786 134.208 
L 184.650745 142.272 
L 184.975725 134.208 
L 185.300704 134.208 
L 185.625684 138.24 
L 186.275643 130.176 
L 186.925602 138.24 
L 187.250581 138.24 
L 187.575561 134.208 
L 188.875479 134.208 
L 189.200459 130.176 
L 189.525438 130.176 
L 189.850418 134.208 
L 190.175397 130.176 
L 190.825356 138.24 
L 191.150336 130.176 
L 191.475315 134.208 
L 191.800295 130.176 
L 192.125274 130.176 
L 192.450254 134.208 
L 192.775233 130.176 
L 193.100213 130.176 
L 193.425192 126.144 
L 193.750172 130.176 
L 195.05009 130.176 
L 195.37507 126.144 
L 195.700049 130.176 
L 196.025029 126.144 
L 196.350008 126.144 
L 196.674988 122.112 
L 197.324947 122.112 
L 197.649926 118.08 
L 197.974906 118.08 
L 198.624865 110.016 
L 198.949844 110.016 
L 199.274824 105.984 
L 200.574742 105.984 
L 200.899722 101.952 
L 201.224701 101.952 
L 202.19964 89.856 
L 202.524619 93.888 
L 202.849599 93.888 
L 203.174578 85.824 
L 203.499558 85.824 
L 203.824537 81.792 
L 204.474496 81.792 
L 204.799476 77.76 
L 205.124455 77.76 
L 205.774414 69.696 
L 206.099394 73.728 
L 206.424373 69.696 
L 206.749353 69.696 
L 207.399312 61.632 
L 208.69923 61.632 
L 209.02421 53.568 
L 209.674169 61.632 
L 209.999148 57.6 
L 210.324128 57.6 
L 210.649107 61.632 
L 210.974087 53.568 
L 211.299066 61.632 
L 211.624046 61.632 
L 211.949025 57.6 
L 212.598984 57.6 
L 212.923964 61.632 
L 213.573923 61.632 
L 213.898903 65.664 
L 214.223882 61.632 
L 214.548862 69.696 
L 214.873841 65.664 
L 215.5238 73.728 
L 215.84878 69.696 
L 216.823718 81.792 
L 217.148698 77.76 
L 218.123636 89.856 
L 218.448616 89.856 
L 218.773595 93.888 
L 219.098575 93.888 
L 220.073514 105.984 
L 220.398493 105.984 
L 220.723473 114.048 
L 221.048452 118.08 
L 221.373432 118.08 
L 221.698411 126.144 
L 222.34837 134.208 
L 222.998329 134.208 
L 223.648288 150.336 
L 224.623227 150.336 
L 224.948206 162.432 
L 225.598165 162.432 
L 225.923145 170.496 
L 226.248124 174.528 
L 226.573104 174.528 
L 227.223063 182.592 
L 227.873022 182.592 
L 228.847961 194.688 
L 229.17294 194.688 
L 229.49792 198.72 
L 229.822899 194.688 
L 230.147879 202.752 
L 230.797838 202.752 
L 231.447797 210.816 
L 231.772776 210.816 
L 232.422735 218.88 
L 232.747715 214.848 
L 233.397674 214.848 
L 233.722654 222.912 
L 234.047633 218.88 
L 234.372613 218.88 
L 234.697592 222.912 
L 235.022572 218.88 
L 235.347551 222.912 
L 235.672531 222.912 
L 236.32249 230.976 
L 236.647469 230.976 
L 236.972449 226.944 
L 237.297428 226.944 
L 237.622408 230.976 
L 237.947387 226.944 
L 238.272367 230.976 
L 238.597346 226.944 
L 238.922326 235.008 
L 239.247305 230.976 
L 239.572285 230.976 
L 239.897265 226.944 
L 240.222244 226.944 
L 240.547224 235.008 
L 240.872203 230.976 
L 241.197183 230.976 
L 241.847142 239.04 
L 242.172121 230.976 
L 242.497101 239.04 
L 242.82208 239.04 
L 243.472039 230.976 
L 243.797019 235.008 
L 244.121998 235.008 
L 244.446978 239.04 
L 244.771957 235.008 
L 245.421916 235.008 
L 246.071876 243.072 
L 246.396855 239.04 
L 246.721835 239.04 
L 247.046814 243.072 
L 247.371794 239.04 
L 247.696773 247.104 
L 248.671712 247.104 
L 248.996691 251.136 
L 249.64665 251.136 
L 249.97163 255.168 
L 250.621589 255.168 
L 250.946568 259.2 
L 251.596527 259.2 
L 252.246486 267.264 
L 252.571466 263.232 
L 253.221425 271.296 
L 254.196364 271.296 
L 255.171302 283.392 
L 255.496282 283.392 
L 255.821261 279.36 
L 256.146241 287.424 
L 256.47122 283.392 
L 257.121179 283.392 
L 257.446159 287.424 
L 257.771138 287.424 
L 258.096118 291.456 
L 258.421097 291.456 
L 258.746077 287.424 
L 260.045995 287.424 
L 260.370975 291.456 
L 261.020934 283.392 
L 261.345913 283.392 
L 261.670893 279.36 
L 261.995872 279.36 
L 262.320852 275.328 
L 262.645831 279.36 
L 262.970811 275.328 
L 263.62077 275.328 
L 263.945749 271.296 
L 264.270729 263.232 
L 264.920688 263.232 
L 266.220606 247.104 
L 266.545586 251.136 
L 267.195545 235.008 
L 267.845504 235.008 
L 268.170483 226.944 
L 268.495463 226.944 
L 268.820442 222.912 
L 269.145422 214.848 
L 269.470401 214.848 
L 270.44534 202.752 
L 270.770319 202.752 
L 271.095299 198.72 
L 271.420278 190.656 
L 271.745258 194.688 
L 272.395217 186.624 
L 272.720197 178.56 
L 273.045176 182.592 
L 273.370156 174.528 
L 273.695135 174.528 
L 274.020115 178.56 
L 274.670074 162.432 
L 274.995053 162.432 
L 275.320033 158.4 
L 275.645012 158.4 
L 275.969992 154.368 
L 276.294971 154.368 
L 276.619951 150.336 
L 276.94493 154.368 
L 277.594889 146.304 
L 278.244848 146.304 
L 278.569828 138.24 
L 279.219787 146.304 
L 279.544767 138.24 
L 279.869746 138.24 
L 280.194726 134.208 
L 280.519705 138.24 
L 280.844685 138.24 
L 281.494644 130.176 
L 281.819623 130.176 
L 282.144603 138.24 
L 282.469582 130.176 
L 282.794562 130.176 
L 283.444521 138.24 
L 283.7695 134.208 
L 284.09448 134.208 
L 284.419459 138.24 
L 285.069419 130.176 
L 285.394398 134.208 
L 286.044357 134.208 
L 286.369337 130.176 
L 286.694316 134.208 
L 287.019296 130.176 
L 287.344275 134.208 
L 287.669255 130.176 
L 287.994234 134.208 
L 288.319214 134.208 
L 288.644193 130.176 
L 288.969173 130.176 
L 289.294152 134.208 
L 289.619132 130.176 
L 289.944111 130.176 
L 290.269091 122.112 
L 290.59407 130.176 
L 290.91905 126.144 
L 291.893989 126.144 
L 292.218968 122.112 
L 292.543948 126.144 
L 293.193907 118.08 
L 293.518886 122.112 
L 293.843866 118.08 
L 294.168845 110.016 
L 294.493825 114.048 
L 294.818804 114.048 
L 295.468763 105.984 
L 295.793743 105.984 
L 296.118722 101.952 
L 296.768681 101.952 
L 297.093661 97.92 
L 297.41864 89.856 
L 297.74362 97.92 
L 298.393579 89.856 
L 299.043538 89.856 
L 299.368518 85.824 
L 300.018477 85.824 
L 300.343456 77.76 
L 300.668436 73.728 
L 301.318395 73.728 
L 301.643374 69.696 
L 302.293333 69.696 
L 302.618313 65.664 
L 303.268272 65.664 
L 303.593251 61.632 
L 303.918231 65.664 
L 304.24321 65.664 
L 304.56819 57.6 
L 304.89317 61.632 
L 305.543129 61.632 
L 305.868108 57.6 
L 307.168026 57.6 
L 307.493006 53.568 
L 307.817985 57.6 
L 308.467944 57.6 
L 308.792924 61.632 
L 309.442883 61.632 
L 309.767862 57.6 
L 310.092842 65.664 
L 310.742801 65.664 
L 311.067781 69.696 
L 311.71774 69.696 
L 312.367699 77.76 
L 312.692678 73.728 
L 313.017658 81.792 
L 313.342637 85.824 
L 313.667617 85.824 
L 313.992596 89.856 
L 314.317576 89.856 
L 314.642555 97.92 
L 314.967535 97.92 
L 315.617494 105.984 
L 315.942473 105.984 
L 316.267453 110.016 
L 316.592432 110.016 
L 316.917412 118.08 
L 317.242391 122.112 
L 317.567371 122.112 
L 317.892351 126.144 
L 318.21733 126.144 
L 318.54231 138.24 
L 318.867289 138.24 
L 319.842228 150.336 
L 320.167207 150.336 
L 320.492187 154.368 
L 320.817166 162.432 
L 321.467125 162.432 
L 321.792105 170.496 
L 322.117084 174.528 
L 322.442064 174.528 
L 323.092023 182.592 
L 323.417002 178.56 
L 323.741982 186.624 
L 324.066962 186.624 
L 324.716921 194.688 
L 325.36688 194.688 
L 326.016839 202.752 
L 326.666798 202.752 
L 326.991777 210.816 
L 327.966716 210.816 
L 328.291695 214.848 
L 328.616675 210.816 
L 328.941654 218.88 
L 329.266634 218.88 
L 329.591613 214.848 
L 329.916593 218.88 
L 330.241572 226.944 
L 330.566552 218.88 
L 330.891532 226.944 
L 331.216511 226.944 
L 331.541491 222.912 
L 331.86647 226.944 
L 332.19145 222.912 
L 332.516429 226.944 
L 334.141327 226.944 
L 334.466306 230.976 
L 335.116265 230.976 
L 335.441245 235.008 
L 335.766224 226.944 
L 336.416183 235.008 
L 336.741163 230.976 
L 337.391122 230.976 
L 337.716102 235.008 
L 338.041081 230.976 
L 338.366061 230.976 
L 338.69104 235.008 
L 339.01602 230.976 
L 339.340999 235.008 
L 340.315938 235.008 
L 340.640917 239.04 
L 340.965897 235.008 
L 341.290876 239.04 
L 341.615856 239.04 
L 341.940835 243.072 
L 342.265815 239.04 
L 342.915774 239.04 
L 343.240753 247.104 
L 343.565733 243.072 
L 343.890713 247.104 
L 344.215692 243.072 
L 344.540672 247.104 
L 345.190631 247.104 
L 345.84059 255.168 
L 346.165569 251.136 
L 346.490549 259.2 
L 347.465487 259.2 
L 348.115446 267.264 
L 348.440426 267.264 
L 348.765405 271.296 
L 349.415364 271.296 
L 349.740344 275.328 
L 350.390303 275.328 
L 351.040262 283.392 
L 351.365242 279.36 
L 352.015201 287.424 
L 352.34018 283.392 
L 352.66516 287.424 
L 352.990139 283.392 
L 353.315119 287.424 
L 353.640098 283.392 
L 353.965078 287.424 
L 354.615037 287.424 
L 354.940016 291.456 
L 355.589975 291.456 
L 355.914955 287.424 
L 356.239934 291.456 
L 356.564914 287.424 
L 357.539853 287.424 
L 357.864832 279.36 
L 358.514791 279.36 
L 359.48973 267.264 
L 359.814709 267.264 
L 360.139689 271.296 
L 360.464668 263.232 
L 360.789648 259.2 
L 361.439607 259.2 
L 361.764586 251.136 
L 362.414545 243.072 
L 362.739525 243.072 
L 363.389484 235.008 
L 363.714464 235.008 
L 364.039443 230.976 
L 364.364423 222.912 
L 365.014382 214.848 
L 365.664341 214.848 
L 365.98932 206.784 
L 366.3143 206.784 
L 366.639279 198.72 
L 366.964259 198.72 
L 367.289238 194.688 
L 367.614218 194.688 
L 367.939197 186.624 
L 368.589156 178.56 
L 369.239115 178.56 
L 370.214054 166.464 
L 370.539034 170.496 
L 370.864013 162.432 
L 371.188993 162.432 
L 371.513972 158.4 
L 371.838952 158.4 
L 372.163931 150.336 
L 372.488911 154.368 
L 373.13887 146.304 
L 373.463849 146.304 
L 373.788829 142.272 
L 375.088747 142.272 
L 375.413726 134.208 
L 375.738706 138.24 
L 376.063686 138.24 
L 376.388665 134.208 
L 376.713645 138.24 
L 377.363604 130.176 
L 378.013563 138.24 
L 378.663522 130.176 
L 378.988501 130.176 
L 379.313481 134.208 
L 379.63846 130.176 
L 379.96344 130.176 
L 380.288419 134.208 
L 380.613399 126.144 
L 380.938378 134.208 
L 381.263358 134.208 
L 381.588337 130.176 
L 381.913317 130.176 
L 382.238296 134.208 
L 382.563276 130.176 
L 383.213235 138.24 
L 383.538215 130.176 
L 383.863194 126.144 
L 384.188174 130.176 
L 384.513153 130.176 
L 384.838133 134.208 
L 385.163112 130.176 
L 386.138051 130.176 
L 386.46303 126.144 
L 387.437969 126.144 
L 387.762948 122.112 
L 388.087928 126.144 
L 388.412907 126.144 
L 389.062867 118.08 
L 389.712826 118.08 
L 390.037805 114.048 
L 390.362785 114.048 
L 390.687764 105.984 
L 391.012744 105.984 
L 391.337723 110.016 
L 391.987682 101.952 
L 392.637641 101.952 
L 392.962621 97.92 
L 393.61258 97.92 
L 393.937559 93.888 
L 394.262539 85.824 
L 394.587518 89.856 
L 394.912498 89.856 
L 395.237477 85.824 
L 395.562457 85.824 
L 395.887437 77.76 
L 396.537396 77.76 
L 397.187355 69.696 
L 397.512334 73.728 
L 397.837314 73.728 
L 398.487273 65.664 
L 398.487273 65.664 
" clip-path="url(#p3c2a2b7fcc)" style="fill: none; stroke: #1f77b4; stroke-width: 1.5; stroke-linecap: square"/>
   </g>
   <g id="patch_3">
    <path d="M 57.6 307.584 
L 57.6 41.472 
" style="fill: none; stroke: #000000; stroke-width: 0.8; stroke-linejoin: miter; stroke-linecap: square"/>
   </g>
   <g id="patch_4">
    <path d="M 414.72 307.584 
L 414.72 41.472 
" style="fill: none; stroke: #000000; stroke-width: 0.8; stroke-linejoin: miter; stroke-linecap: square"/>
   </g>
   <g id="patch_5">
    <path d="M 57.6 307.584 
L 414.72 307.584 
" style="fill: none; stroke: #000000; stroke-width: 0.8; stroke-linejoin: miter; stroke-linecap: square"/>
   </g>
   <g id="patch_6">
    <path d="M 57.6 41.472 
L 414.72 41.472 
" style="fill: none; stroke: #000000; stroke-width: 0.8; stroke-linejoin: miter; stroke-linecap: square"/>
   </g>
  </g>
 </g>
 <defs>
  <clipPath id="p3c2a2b7fcc">
   <rect x="57.6" y="41.472" width="357.12" height="266.112"/>
  </clipPath>
 </defs>
</svg>
