<?xml version="1.0" encoding="utf-8" standalone="no"?>
<!DOCTYPE svg PUBLIC "-//W3C//DTD SVG 1.1//EN"
  "http://www.w3.org/Graphics/SVG/1.1/DTD/svg11.dtd">
<svg xmlns:xlink="http://www.w3.org/1999/xlink" width="460.8pt" height="345.6pt" viewBox="0 0 460.8 345.6" xmlns="http://www.w3.org/2000/svg" version="1.1">
 <metadata>
  <rdf:RDF xmlns:dc="http://purl.org/dc/elements/1.1/" xmlns:cc="http://creativecommons.org/ns#" xmlns:rdf="http://www.w3.org/1999/02/22-rdf-syntax-ns#">
   <cc:Work>
    <dc:type rdf:resource="http://purl.org/dc/dcmitype/StillImage"/>
    <dc:date>2025-12-26T15:03:46.611928</dc:date>
    <dc:format>image/svg+xml</dc:format>
    <dc:creator>
     <cc:Agent>
      <dc:title>Matplotlib v3.10.8, https://matplotlib.org/</dc:title>
     </cc:Agent>
    </dc:creator>
   </cc:Work>
  </rdf:RDF>
 </metadata>
 <defs>
  <style type="text/css">*{stroke-linejoin: round; stroke-linecap: butt}</style>
 </defs>
 <g id="figure_1">
  <g id="patch_1">
   <path d="M 0 345.6 
L 460.8 345.6 
L 460.8 0 
L 0 0 
z
" style="fill: #ffffff"/>
  </g>
  <g id="axes_1">
   <g id="patch_2">
    <path d="M 57.6 307.584 
L 414.72 307.584 
L 414.72 41.472 
L 57.6 41.472 
z
" style="fill: #ffffff"/>
   </g>
   <g id="matplotlib.axis_1">
    <g id="xtick_1">
     <g id="line2d_1">
      <defs>
       <path id="m4d8cab1a9a" d="M 0 0 
L 0 3.5 
" style="stroke: #000000; stroke-width: 0.8"/>
      </defs>
      <g>
       <use xlink:href="#m4d8cab1a9a" x="73.832727" y="307.584" style="stroke: #000000; stroke-width: 0.8"/>
      </g>
     </g>
     <g id="text_1">
      <!-- 0 -->
      <g transform="translate(70.651477 322.182437) scale(0.1 -0.1)">
       <defs>
        <path id="DejaVuSans-30" d="M 2034 4250 
Q 1547 4250 1301 3770 
Q 1056 3291 1056 2328 
Q 1056 1369 1301 889 
Q 1547 409 2034 409 
Q 2525 409 2770 889 
Q 3016 1369 3016 2328 
Q 3016 3291 2770 3770 
Q 2525 4250 2034 4250 
z
M 2034 4750 
Q 2819 4750 3233 4129 
Q 3647 3509 3647 2328 
Q 3647 1150 3233 529 
Q 2819 -91 2034 -91 
Q 1250 -91 836 529 
Q 422 1150 422 2328 
Q 422 3509 836 4129 
Q 1250 4750 2034 4750 
z
" transform="scale(0.015625)"/>
       </defs>
       <use xlink:href="#DejaVuSans-30"/>
      </g>
     </g>
    </g>
    <g id="xtick_2">
     <g id="line2d_2">
      <g>
       <use xlink:href="#m4d8cab1a9a" x="138.828632" y="307.584" style="stroke: #000000; stroke-width: 0.8"/>
      </g>
     </g>
     <g id="text_2">
      <!-- 1 -->
      <g transform="translate(135.647382 322.182437) scale(0.1 -0.1)">
       <defs>
        <path id="DejaVuSans-31" d="M 794 531 
L 1825 531 
L 1825 4091 
L 703 3866 
L 703 4441 
L 1819 4666 
L 2450 4666 
L 2450 531 
L 3481 531 
L 3481 0 
L 794 0 
L 794 531 
z
" transform="scale(0.015625)"/>
       </defs>
       <use xlink:href="#DejaVuSans-31"/>
      </g>
     </g>
    </g>
    <g id="xtick_3">
     <g id="line2d_3">
      <g>
       <use xlink:href="#m4d8cab1a9a" x="203.824537" y="307.584" style="stroke: #000000; stroke-width: 0.8"/>
      </g>
     </g>
     <g id="text_3">
      <!-- 2 -->
      <g transform="translate(200.643287 322.182437) scale(0.1 -0.1)">
       <defs>
        <path id="DejaVuSans-32" d="M 1228 531 
L 3431 531 
L 3431 0 
L 469 0 
L 469 531 
Q 828 903 1448 1529 
Q 2069 2156 2228 2338 
Q 2531 2678 2651 2914 
Q 2772 3150 2772 3378 
Q 2772 3750 2511 3984 
Q 2250 4219 1831 4219 
Q 1534 4219 1204 4116 
Q 875 4013 500 3803 
L 500 4441 
Q 881 4594 1212 4672 
Q 1544 4750 1819 4750 
Q 2544 4750 2975 4387 
Q 3406 4025 3406 3419 
Q 3406 3131 3298 2873 
Q 3191 2616 2906 2266 
Q 2828 2175 2409 1742 
Q 1991 1309 1228 531 
z
" transform="scale(0.015625)"/>
       </defs>
       <use xlink:href="#DejaVuSans-32"/>
      </g>
     </g>
    </g>
    <g id="xtick_4">
     <g id="line2d_4">
      <g>
       <use xlink:href="#m4d8cab1a9a" x="268.820442" y="307.584" style="stroke: #000000; stroke-width: 0.8"/>
      </g>
     </g>
     <g id="text_4">
      <!-- 3 -->
      <g transform="translate(265.639192 322.182437) scale(0.1 -0.1)">
       <defs>
        <path id="DejaVuSans-33" d="M 2597 2516 
Q 3050 2419 3304 2112 
Q 3559 1806 3559 1356 
Q 3559 666 3084 287 
Q 2609 -91 1734 -91 
Q 1441 -91 1130 -33 
Q 819 25 488 141 
L 488 750 
Q 750 597 1062 519 
Q 1375 441 1716 441 
Q 2309 441 2620 675 
Q 2931 909 2931 1356 
Q 2931 1769 2642 2001 
Q 2353 2234 1838 2234 
L 1294 2234 
L 1294 2753 
L 1863 2753 
Q 2328 2753 2575 2939 
Q 2822 3125 2822 3475 
Q 2822 3834 2567 4026 
Q 2313 4219 1838 4219 
Q 1578 4219 1281 4162 
Q 984 4106 628 3988 
L 628 4550 
Q 988 4650 1302 4700 
Q 1616 4750 1894 4750 
Q 2613 4750 3031 4423 
Q 3450 4097 3450 3541 
Q 3450 3153 3228 2886 
Q 3006 2619 2597 2516 
z
" transform="scale(0.015625)"/>
       </defs>
       <use xlink:href="#DejaVuSans-33"/>
      </g>
     </g>
    </g>
    <g id="xtick_5">
     <g id="line2d_5">
      <g>
       <use xlink:href="#m4d8cab1a9a" x="333.816347" y="307.584" style="stroke: #000000; stroke-width: 0.8"/>
      </g>
     </g>
     <g id="text_5">
      <!-- 4 -->
      <g transform="translate(330.635097 322.182437) scale(0.1 -0.1)">
       <defs>
        <path id="DejaVuSans-34" d="M 2419 4116 
L 825 1625 
L 2419 1625 
L 2419 4116 
z
M 2253 4666 
L 3047 4666 
L 3047 1625 
L 3713 1625 
L 3713 1100 
L 3047 1100 
L 3047 0 
L 2419 0 
L 2419 1100 
L 313 1100 
L 313 1709 
L 2253 4666 
z
" transform="scale(0.015625)"/>
       </defs>
       <use xlink:href="#DejaVuSans-34"/>
      </g>
     </g>
    </g>
    <g id="xtick_6">
     <g id="line2d_6">
      <g>
       <use xlink:href="#m4d8cab1a9a" x="398.812252" y="307.584" style="stroke: #000000; stroke-width: 0.8"/>
      </g>
     </g>
     <g id="text_6">
      <!-- 5 -->
      <g transform="translate(395.631002 322.182437) scale(0.1 -0.1)">
       <defs>
        <path id="DejaVuSans-35" d="M 691 4666 
L 3169 4666 
L 3169 4134 
L 1269 4134 
L 1269 2991 
Q 1406 3038 1543 3061 
Q 1681 3084 1819 3084 
Q 2600 3084 3056 2656 
Q 3513 2228 3513 1497 
Q 3513 744 3044 326 
Q 2575 -91 1722 -91 
Q 1428 -91 1123 -41 
Q 819 9 494 109 
L 494 744 
Q 775 591 1075 516 
Q 1375 441 1709 441 
Q 2250 441 2565 725 
Q 2881 1009 2881 1497 
Q 2881 1984 2565 2268 
Q 2250 2553 1709 2553 
Q 1456 2553 1204 2497 
Q 953 2441 691 2322 
L 691 4666 
z
" transform="scale(0.015625)"/>
       </defs>
       <use xlink:href="#DejaVuSans-35"/>
      </g>
     </g>
    </g>
    <g id="text_7">
     <!-- 1e−7 -->
     <g transform="translate(387.462188 334.860562) scale(0.1 -0.1)">
      <defs>
       <path id="DejaVuSans-65" d="M 3597 1894 
L 3597 1613 
L 953 1613 
Q 991 1019 1311 708 
Q 1631 397 2203 397 
Q 2534 397 2845 478 
Q 3156 559 3463 722 
L 3463 178 
Q 3153 47 2828 -22 
Q 2503 -91 2169 -91 
Q 1331 -91 842 396 
Q 353 884 353 1716 
Q 353 2575 817 3079 
Q 1281 3584 2069 3584 
Q 2775 3584 3186 3129 
Q 3597 2675 3597 1894 
z
M 3022 2063 
Q 3016 2534 2758 2815 
Q 2500 3097 2075 3097 
Q 1594 3097 1305 2825 
Q 1016 2553 972 2059 
L 3022 2063 
z
" transform="scale(0.015625)"/>
       <path id="DejaVuSans-2212" d="M 678 2272 
L 4684 2272 
L 4684 1741 
L 678 1741 
L 678 2272 
z
" transform="scale(0.015625)"/>
       <path id="DejaVuSans-37" d="M 525 4666 
L 3525 4666 
L 3525 4397 
L 1831 0 
L 1172 0 
L 2766 4134 
L 525 4134 
L 525 4666 
z
" transform="scale(0.015625)"/>
      </defs>
      <use xlink:href="#DejaVuSans-31"/>
      <use xlink:href="#DejaVuSans-65" transform="translate(63.623047 0)"/>
      <use xlink:href="#DejaVuSans-2212" transform="translate(125.146484 0)"/>
      <use xlink:href="#DejaVuSans-37" transform="translate(208.935547 0)"/>
     </g>
    </g>
   </g>
   <g id="matplotlib.axis_2">
    <g id="ytick_1">
     <g id="line2d_7">
      <defs>
       <path id="mdaa86eaf24" d="M 0 0 
L -3.5 0 
" style="stroke: #000000; stroke-width: 0.8"/>
      </defs>
      <g>
       <use xlink:href="#mdaa86eaf24" x="57.6" y="284.770035" style="stroke: #000000; stroke-width: 0.8"/>
      </g>
     </g>
     <g id="text_8">
      <!-- −200 -->
      <g transform="translate(23.132812 288.569254) scale(0.1 -0.1)">
       <use xlink:href="#DejaVuSans-2212"/>
       <use xlink:href="#DejaVuSans-32" transform="translate(83.789062 0)"/>
       <use xlink:href="#DejaVuSans-30" transform="translate(147.412109 0)"/>
       <use xlink:href="#DejaVuSans-30" transform="translate(211.035156 0)"/>
      </g>
     </g>
    </g>
    <g id="ytick_2">
     <g id="line2d_8">
      <g>
       <use xlink:href="#mdaa86eaf24" x="57.6" y="253.522288" style="stroke: #000000; stroke-width: 0.8"/>
      </g>
     </g>
     <g id="text_9">
      <!-- −150 -->
      <g transform="translate(23.132812 257.321507) scale(0.1 -0.1)">
       <use xlink:href="#DejaVuSans-2212"/>
       <use xlink:href="#DejaVuSans-31" transform="translate(83.789062 0)"/>
       <use xlink:href="#DejaVuSans-35" transform="translate(147.412109 0)"/>
       <use xlink:href="#DejaVuSans-30" transform="translate(211.035156 0)"/>
      </g>
     </g>
    </g>
    <g id="ytick_3">
     <g id="line2d_9">
      <g>
       <use xlink:href="#mdaa86eaf24" x="57.6" y="222.274541" style="stroke: #000000; stroke-width: 0.8"/>
      </g>
     </g>
     <g id="text_10">
      <!-- −100 -->
      <g transform="translate(23.132812 226.07376) scale(0.1 -0.1)">
       <use xlink:href="#DejaVuSans-2212"/>
       <use xlink:href="#DejaVuSans-31" transform="translate(83.789062 0)"/>
       <use xlink:href="#DejaVuSans-30" transform="translate(147.412109 0)"/>
       <use xlink:href="#DejaVuSans-30" transform="translate(211.035156 0)"/>
      </g>
     </g>
    </g>
    <g id="ytick_4">
     <g id="line2d_10">
      <g>
       <use xlink:href="#mdaa86eaf24" x="57.6" y="191.026794" style="stroke: #000000; stroke-width: 0.8"/>
      </g>
     </g>
     <g id="text_11">
      <!-- −50 -->
      <g transform="translate(29.495313 194.826013) scale(0.1 -0.1)">
       <use xlink:href="#DejaVuSans-2212"/>
       <use xlink:href="#DejaVuSans-35" transform="translate(83.789062 0)"/>
       <use xlink:href="#DejaVuSans-30" transform="translate(147.412109 0)"/>
      </g>
     </g>
    </g>
    <g id="ytick_5">
     <g id="line2d_11">
      <g>
       <use xlink:href="#mdaa86eaf24" x="57.6" y="159.779047" style="stroke: #000000; stroke-width: 0.8"/>
      </g>
     </g>
     <g id="text_12">
      <!-- 0 -->
      <g transform="translate(44.2375 163.578266) scale(0.1 -0.1)">
       <use xlink:href="#DejaVuSans-30"/>
      </g>
     </g>
    </g>
    <g id="ytick_6">
     <g id="line2d_12">
      <g>
       <use xlink:href="#mdaa86eaf24" x="57.6" y="128.531301" style="stroke: #000000; stroke-width: 0.8"/>
      </g>
     </g>
     <g id="text_13">
      <!-- 50 -->
      <g transform="translate(37.875 132.330519) scale(0.1 -0.1)">
       <use xlink:href="#DejaVuSans-35"/>
       <use xlink:href="#DejaVuSans-30" transform="translate(63.623047 0)"/>
      </g>
     </g>
    </g>
    <g id="ytick_7">
     <g id="line2d_13">
      <g>
       <use xlink:href="#mdaa86eaf24" x="57.6" y="97.283554" style="stroke: #000000; stroke-width: 0.8"/>
      </g>
     </g>
     <g id="text_14">
      <!-- 100 -->
      <g transform="translate(31.5125 101.082772) scale(0.1 -0.1)">
       <use xlink:href="#DejaVuSans-31"/>
       <use xlink:href="#DejaVuSans-30" transform="translate(63.623047 0)"/>
       <use xlink:href="#DejaVuSans-30" transform="translate(127.246094 0)"/>
      </g>
     </g>
    </g>
    <g id="ytick_8">
     <g id="line2d_14">
      <g>
       <use xlink:href="#mdaa86eaf24" x="57.6" y="66.035807" style="stroke: #000000; stroke-width: 0.8"/>
      </g>
     </g>
     <g id="text_15">
      <!-- 150 -->
      <g transform="translate(31.5125 69.835025) scale(0.1 -0.1)">
       <use xlink:href="#DejaVuSans-31"/>
       <use xlink:href="#DejaVuSans-35" transform="translate(63.623047 0)"/>
       <use xlink:href="#DejaVuSans-30" transform="translate(127.246094 0)"/>
      </g>
     </g>
    </g>
   </g>
   <g id="line2d_15">
    <path d="M 73.832727 221.524623 
L 74.807666 209.806719 
L 75.132645 213.712687 
L 75.457625 205.900751 
L 75.782604 205.900751 
L 76.107584 209.806719 
L 76.432563 205.900751 
L 76.757543 198.088815 
L 77.732482 198.088815 
L 78.057461 190.276879 
L 78.382441 190.276879 
L 78.70742 186.370911 
L 79.357379 186.370911 
L 79.682359 182.464943 
L 80.332318 182.464943 
L 80.657297 174.653007 
L 80.982277 178.558975 
L 81.307256 174.653007 
L 81.632236 174.653007 
L 81.957215 166.841071 
L 82.607174 166.841071 
L 83.257133 159.029135 
L 83.582113 159.029135 
L 83.907093 155.123167 
L 84.557052 155.123167 
L 84.882031 151.217199 
L 85.53199 151.217199 
L 85.85697 143.405263 
L 86.181949 147.311231 
L 86.831908 139.499295 
L 87.156888 139.499295 
L 87.481867 135.593327 
L 88.131826 135.593327 
L 88.456806 131.687359 
L 88.781785 131.687359 
L 89.106765 127.781391 
L 89.431744 131.687359 
L 89.756724 131.687359 
L 90.081704 119.969455 
L 90.406683 119.969455 
L 90.731663 131.687359 
L 91.056642 119.969455 
L 91.381622 119.969455 
L 91.706601 116.063487 
L 92.031581 116.063487 
L 92.35656 112.15752 
L 93.331499 112.15752 
L 93.656478 104.345584 
L 93.981458 104.345584 
L 94.306437 100.439616 
L 95.281376 100.439616 
L 95.606355 96.533648 
L 95.931335 100.439616 
L 96.256314 96.533648 
L 96.581294 96.533648 
L 96.906274 92.62768 
L 97.231253 92.62768 
L 97.881212 84.815744 
L 98.206192 88.721712 
L 98.531171 88.721712 
L 99.50611 77.003808 
L 99.831089 80.909776 
L 100.156069 77.003808 
L 100.481048 77.003808 
L 100.806028 73.09784 
L 101.131007 77.003808 
L 101.455987 73.09784 
L 102.105946 73.09784 
L 102.430925 69.191872 
L 102.755905 69.191872 
L 103.080885 65.285904 
L 104.055823 65.285904 
L 104.380803 69.191872 
L 104.705782 61.379936 
L 105.355741 61.379936 
L 105.680721 57.473968 
L 106.0057 61.379936 
L 106.33068 61.379936 
L 106.655659 57.473968 
L 107.305618 65.285904 
L 107.955577 57.473968 
L 109.580475 57.473968 
L 109.905455 53.568 
L 110.230434 61.379936 
L 110.880393 53.568 
L 111.205373 61.379936 
L 111.530352 61.379936 
L 111.855332 57.473968 
L 112.180311 61.379936 
L 112.83027 61.379936 
L 113.15525 57.473968 
L 114.130188 69.191872 
L 114.455168 65.285904 
L 115.105127 65.285904 
L 115.430106 69.191872 
L 116.080066 69.191872 
L 116.730025 77.003808 
L 117.055004 73.09784 
L 117.379984 77.003808 
L 117.704963 77.003808 
L 118.029943 80.909776 
L 118.354922 77.003808 
L 119.329861 88.721712 
L 119.97982 88.721712 
L 120.304799 84.815744 
L 120.629779 92.62768 
L 120.954758 92.62768 
L 121.279738 96.533648 
L 121.604717 96.533648 
L 121.929697 104.345584 
L 122.254676 100.439616 
L 122.904636 108.251552 
L 123.229615 108.251552 
L 123.554595 104.345584 
L 123.879574 112.15752 
L 124.204554 112.15752 
L 124.529533 116.063487 
L 124.854513 116.063487 
L 125.179492 119.969455 
L 125.504472 116.063487 
L 125.829451 123.875423 
L 126.154431 127.781391 
L 126.80439 127.781391 
L 127.129369 135.593327 
L 127.454349 127.781391 
L 127.779328 135.593327 
L 128.429287 135.593327 
L 129.079247 143.405263 
L 129.404226 143.405263 
L 129.729206 151.217199 
L 130.379165 143.405263 
L 130.704144 147.311231 
L 131.029124 155.123167 
L 131.679083 155.123167 
L 132.004062 162.935103 
L 132.329042 162.935103 
L 132.654021 159.029135 
L 133.30398 166.841071 
L 133.62896 166.841071 
L 133.953939 170.747039 
L 134.603898 170.747039 
L 134.928878 178.558975 
L 135.903817 178.558975 
L 136.228796 186.370911 
L 136.878755 186.370911 
L 137.528714 194.182847 
L 137.853694 190.276879 
L 138.503653 198.088815 
L 138.828632 194.182847 
L 139.153612 194.182847 
L 139.803571 201.994783 
L 140.45353 201.994783 
L 140.778509 205.900751 
L 141.103489 201.994783 
L 141.428468 209.806719 
L 142.403407 209.806719 
L 142.728387 217.618655 
L 143.053366 213.712687 
L 143.378346 213.712687 
L 143.703325 221.524623 
L 144.353284 221.524623 
L 144.678264 225.430591 
L 145.328223 225.430591 
L 145.653202 229.336559 
L 145.978182 229.336559 
L 146.303161 225.430591 
L 146.628141 233.242526 
L 146.95312 233.242526 
L 147.928059 244.96043 
L 148.253038 241.054462 
L 148.578018 248.866398 
L 149.877936 248.866398 
L 150.202916 252.772366 
L 151.177854 252.772366 
L 151.502834 248.866398 
L 151.827813 256.678334 
L 152.477772 256.678334 
L 153.127731 264.49027 
L 153.452711 260.584302 
L 154.752629 260.584302 
L 155.077609 256.678334 
L 155.402588 264.49027 
L 155.727568 264.49027 
L 156.052547 260.584302 
L 156.377527 264.49027 
L 156.702506 260.584302 
L 157.027486 264.49027 
L 157.352465 260.584302 
L 158.002424 260.584302 
L 158.327404 268.396238 
L 158.652383 256.678334 
L 158.977363 260.584302 
L 159.302342 260.584302 
L 159.627322 256.678334 
L 159.952301 260.584302 
L 160.277281 256.678334 
L 160.60226 260.584302 
L 160.92724 256.678334 
L 161.252219 256.678334 
L 161.902179 248.866398 
L 162.227158 252.772366 
L 162.877117 252.772366 
L 163.202097 248.866398 
L 163.527076 252.772366 
L 163.852056 248.866398 
L 164.177035 248.866398 
L 164.502015 244.96043 
L 165.151974 244.96043 
L 165.801933 237.148494 
L 166.451892 237.148494 
L 166.776871 233.242526 
L 167.101851 225.430591 
L 167.42683 233.242526 
L 168.07679 225.430591 
L 168.726749 225.430591 
L 169.376708 217.618655 
L 170.026667 217.618655 
L 170.351646 213.712687 
L 171.001605 213.712687 
L 171.651564 205.900751 
L 171.976544 205.900751 
L 172.626503 198.088815 
L 172.951482 198.088815 
L 173.276462 194.182847 
L 173.601441 194.182847 
L 173.926421 198.088815 
L 174.2514 190.276879 
L 174.90136 190.276879 
L 175.226339 182.464943 
L 175.551319 182.464943 
L 175.876298 178.558975 
L 176.201278 178.558975 
L 176.526257 174.653007 
L 176.851237 174.653007 
L 177.501196 166.841071 
L 178.476134 166.841071 
L 178.801114 162.935103 
L 179.126093 166.841071 
L 179.451073 159.029135 
L 179.776052 155.123167 
L 180.101032 159.029135 
L 180.750991 151.217199 
L 181.40095 151.217199 
L 182.050909 143.405263 
L 182.375889 143.405263 
L 182.700868 135.593327 
L 183.025848 139.499295 
L 183.675807 131.687359 
L 184.000786 135.593327 
L 184.325766 135.593327 
L 184.650745 127.781391 
L 184.975725 131.687359 
L 185.950663 119.969455 
L 186.275643 119.969455 
L 186.600622 123.875423 
L 186.925602 119.969455 
L 187.250581 119.969455 
L 187.575561 116.063487 
L 187.900541 108.251552 
L 188.22552 112.15752 
L 188.5505 112.15752 
L 188.875479 108.251552 
L 189.200459 112.15752 
L 189.525438 112.15752 
L 189.850418 104.345584 
L 190.500377 104.345584 
L 191.150336 96.533648 
L 191.475315 100.439616 
L 191.800295 96.533648 
L 192.125274 96.533648 
L 192.450254 88.721712 
L 193.100213 88.721712 
L 193.425192 92.62768 
L 193.750172 88.721712 
L 194.075152 88.721712 
L 194.400131 84.815744 
L 194.725111 88.721712 
L 195.05009 80.909776 
L 195.37507 80.909776 
L 195.700049 77.003808 
L 196.025029 77.003808 
L 196.350008 73.09784 
L 196.674988 77.003808 
L 196.999967 73.09784 
L 197.324947 73.09784 
L 197.649926 69.191872 
L 197.974906 69.191872 
L 198.299885 65.285904 
L 198.624865 69.191872 
L 198.949844 69.191872 
L 199.274824 65.285904 
L 199.599803 65.285904 
L 199.924783 69.191872 
L 200.249762 61.379936 
L 201.224701 61.379936 
L 201.549681 57.473968 
L 201.87466 61.379936 
L 202.849599 61.379936 
L 203.174578 57.473968 
L 203.499558 57.473968 
L 203.824537 61.379936 
L 204.474496 53.568 
L 205.124455 61.379936 
L 205.449435 53.568 
L 205.774414 57.473968 
L 207.074333 57.473968 
L 207.399312 61.379936 
L 208.049271 61.379936 
L 208.374251 57.473968 
L 208.69923 57.473968 
L 209.02421 65.285904 
L 209.349189 61.379936 
L 209.674169 61.379936 
L 210.324128 69.191872 
L 210.649107 65.285904 
L 210.974087 69.191872 
L 211.949025 69.191872 
L 212.274005 73.09784 
L 212.598984 73.09784 
L 212.923964 77.003808 
L 213.898903 77.003808 
L 214.223882 80.909776 
L 214.873841 80.909776 
L 215.5238 88.721712 
L 215.84878 88.721712 
L 216.498739 96.533648 
L 216.823718 96.533648 
L 217.148698 92.62768 
L 218.123636 104.345584 
L 219.098575 104.345584 
L 219.423554 112.15752 
L 220.398493 112.15752 
L 220.723473 119.969455 
L 221.373432 119.969455 
L 221.698411 123.875423 
L 222.34837 123.875423 
L 222.67335 127.781391 
L 222.998329 127.781391 
L 223.323309 135.593327 
L 223.648288 135.593327 
L 223.973268 139.499295 
L 224.298247 135.593327 
L 224.623227 143.405263 
L 224.948206 143.405263 
L 225.273186 139.499295 
L 225.598165 147.311231 
L 225.923145 151.217199 
L 226.248124 147.311231 
L 226.898084 155.123167 
L 227.548043 155.123167 
L 228.198002 162.935103 
L 228.847961 162.935103 
L 229.17294 166.841071 
L 229.49792 166.841071 
L 230.147879 174.653007 
L 230.472858 170.747039 
L 230.797838 170.747039 
L 231.122817 182.464943 
L 231.447797 174.653007 
L 232.422735 186.370911 
L 233.072695 186.370911 
L 233.397674 194.182847 
L 233.722654 198.088815 
L 234.047633 194.182847 
L 234.372613 194.182847 
L 234.697592 190.276879 
L 235.022572 198.088815 
L 235.347551 201.994783 
L 235.672531 198.088815 
L 236.32249 205.900751 
L 236.647469 201.994783 
L 237.297428 209.806719 
L 237.622408 209.806719 
L 237.947387 213.712687 
L 238.597346 213.712687 
L 238.922326 217.618655 
L 239.247305 217.618655 
L 239.572285 221.524623 
L 239.897265 217.618655 
L 240.222244 225.430591 
L 241.197183 225.430591 
L 241.522162 233.242526 
L 241.847142 229.336559 
L 242.172121 233.242526 
L 242.497101 233.242526 
L 242.82208 237.148494 
L 243.472039 237.148494 
L 243.797019 241.054462 
L 244.121998 241.054462 
L 244.446978 244.96043 
L 244.771957 241.054462 
L 245.096937 244.96043 
L 245.746896 244.96043 
L 246.071876 252.772366 
L 246.396855 248.866398 
L 246.721835 252.772366 
L 247.371794 252.772366 
L 247.696773 256.678334 
L 248.671712 256.678334 
L 248.996691 264.49027 
L 249.321671 260.584302 
L 250.296609 260.584302 
L 250.621589 264.49027 
L 251.271548 256.678334 
L 251.921507 264.49027 
L 252.246486 260.584302 
L 252.571466 260.584302 
L 252.896446 264.49027 
L 253.221425 264.49027 
L 253.546405 260.584302 
L 253.871384 264.49027 
L 254.196364 260.584302 
L 254.521343 264.49027 
L 254.846323 260.584302 
L 255.171302 260.584302 
L 255.496282 256.678334 
L 256.7962 256.678334 
L 257.121179 260.584302 
L 257.446159 252.772366 
L 257.771138 256.678334 
L 258.096118 256.678334 
L 258.421097 252.772366 
L 258.746077 252.772366 
L 259.071057 248.866398 
L 260.045995 248.866398 
L 260.695954 241.054462 
L 261.345913 241.054462 
L 261.995872 233.242526 
L 262.320852 241.054462 
L 262.645831 233.242526 
L 263.29579 233.242526 
L 263.945749 225.430591 
L 264.595708 225.430591 
L 264.920688 221.524623 
L 265.245667 221.524623 
L 265.895627 213.712687 
L 266.220606 217.618655 
L 266.870565 209.806719 
L 267.520524 209.806719 
L 267.845504 201.994783 
L 268.495463 201.994783 
L 269.145422 194.182847 
L 270.12036 194.182847 
L 270.44534 186.370911 
L 270.770319 186.370911 
L 271.095299 182.464943 
L 271.420278 182.464943 
L 271.745258 186.370911 
L 272.070238 174.653007 
L 272.395217 178.558975 
L 272.720197 178.558975 
L 273.045176 174.653007 
L 273.370156 166.841071 
L 273.695135 170.747039 
L 274.345094 162.935103 
L 274.995053 162.935103 
L 275.320033 166.841071 
L 275.645012 159.029135 
L 276.294971 151.217199 
L 277.594889 151.217199 
L 278.244848 143.405263 
L 278.894808 143.405263 
L 279.544767 135.593327 
L 279.869746 135.593327 
L 280.194726 131.687359 
L 280.519705 131.687359 
L 280.844685 127.781391 
L 281.169664 127.781391 
L 281.494644 119.969455 
L 281.819623 123.875423 
L 282.144603 123.875423 
L 282.469582 119.969455 
L 283.119541 119.969455 
L 283.444521 112.15752 
L 283.7695 116.063487 
L 284.09448 116.063487 
L 284.744439 108.251552 
L 285.719378 108.251552 
L 286.369337 100.439616 
L 287.344275 100.439616 
L 287.994234 92.62768 
L 288.319214 100.439616 
L 288.644193 88.721712 
L 288.969173 92.62768 
L 289.294152 92.62768 
L 289.619132 88.721712 
L 289.944111 88.721712 
L 290.269091 84.815744 
L 290.91905 84.815744 
L 291.244029 80.909776 
L 291.569009 80.909776 
L 291.893989 73.09784 
L 292.218968 80.909776 
L 292.543948 73.09784 
L 292.868927 69.191872 
L 293.518886 77.003808 
L 293.843866 65.285904 
L 294.168845 69.191872 
L 294.818804 69.191872 
L 295.143784 61.379936 
L 295.468763 65.285904 
L 295.793743 65.285904 
L 296.118722 69.191872 
L 296.443702 65.285904 
L 296.768681 65.285904 
L 297.093661 57.473968 
L 297.41864 61.379936 
L 297.74362 61.379936 
L 298.0686 57.473968 
L 298.718559 65.285904 
L 299.043538 57.473968 
L 299.368518 57.473968 
L 299.693497 61.379936 
L 300.018477 57.473968 
L 300.668436 57.473968 
L 300.993415 61.379936 
L 301.643374 53.568 
L 301.968354 57.473968 
L 302.293333 53.568 
L 302.618313 61.379936 
L 302.943292 61.379936 
L 303.268272 57.473968 
L 303.593251 57.473968 
L 303.918231 61.379936 
L 304.24321 57.473968 
L 304.56819 61.379936 
L 304.89317 61.379936 
L 305.218149 65.285904 
L 305.543129 61.379936 
L 305.868108 61.379936 
L 306.518067 69.191872 
L 307.493006 69.191872 
L 307.817985 73.09784 
L 308.142965 73.09784 
L 308.467944 77.003808 
L 308.792924 77.003808 
L 309.117903 80.909776 
L 309.767862 80.909776 
L 310.092842 84.815744 
L 310.417821 84.815744 
L 310.742801 80.909776 
L 311.71774 92.62768 
L 312.042719 88.721712 
L 312.367699 92.62768 
L 312.692678 88.721712 
L 313.017658 100.439616 
L 313.342637 96.533648 
L 313.667617 96.533648 
L 314.317576 104.345584 
L 314.642555 104.345584 
L 315.292514 112.15752 
L 315.942473 112.15752 
L 316.592432 119.969455 
L 316.917412 116.063487 
L 317.242391 116.063487 
L 317.567371 119.969455 
L 317.892351 119.969455 
L 318.21733 127.781391 
L 318.54231 131.687359 
L 318.867289 131.687359 
L 319.517248 139.499295 
L 319.842228 135.593327 
L 320.167207 143.405263 
L 320.492187 147.311231 
L 320.817166 147.311231 
L 321.142146 143.405263 
L 321.467125 151.217199 
L 322.117084 151.217199 
L 322.442064 155.123167 
L 323.417002 155.123167 
L 323.741982 159.029135 
L 324.066962 159.029135 
L 324.716921 166.841071 
L 325.36688 166.841071 
L 325.691859 174.653007 
L 326.016839 170.747039 
L 326.341818 174.653007 
L 326.666798 174.653007 
L 327.316757 182.464943 
L 327.641736 178.558975 
L 327.966716 178.558975 
L 328.941654 190.276879 
L 329.266634 186.370911 
L 329.916593 194.182847 
L 330.241572 190.276879 
L 330.891532 198.088815 
L 331.541491 198.088815 
L 331.86647 205.900751 
L 332.841409 205.900751 
L 333.166388 209.806719 
L 333.491368 205.900751 
L 333.816347 213.712687 
L 334.466306 213.712687 
L 334.791286 221.524623 
L 335.116265 221.524623 
L 335.441245 217.618655 
L 336.091204 225.430591 
L 337.066143 225.430591 
L 337.391122 233.242526 
L 337.716102 233.242526 
L 338.041081 229.336559 
L 338.366061 233.242526 
L 338.69104 233.242526 
L 339.01602 241.054462 
L 339.665979 241.054462 
L 339.990958 244.96043 
L 340.965897 244.96043 
L 341.290876 248.866398 
L 341.940835 248.866398 
L 342.265815 252.772366 
L 342.590794 252.772366 
L 342.915774 256.678334 
L 343.565733 256.678334 
L 343.890713 252.772366 
L 344.215692 256.678334 
L 344.865651 256.678334 
L 345.51561 264.49027 
L 345.84059 260.584302 
L 346.165569 260.584302 
L 346.490549 264.49027 
L 346.815528 260.584302 
L 347.465487 260.584302 
L 347.790467 264.49027 
L 348.115446 260.584302 
L 348.440426 264.49027 
L 349.090385 256.678334 
L 349.415364 264.49027 
L 349.740344 260.584302 
L 350.715283 260.584302 
L 351.040262 256.678334 
L 351.690221 264.49027 
L 352.015201 256.678334 
L 352.34018 260.584302 
L 352.66516 252.772366 
L 352.990139 256.678334 
L 353.965078 256.678334 
L 354.290057 248.866398 
L 354.615037 252.772366 
L 354.940016 248.866398 
L 355.589975 248.866398 
L 355.914955 252.772366 
L 356.239934 244.96043 
L 356.889894 244.96043 
L 357.214873 237.148494 
L 358.514791 237.148494 
L 359.48973 225.430591 
L 359.814709 229.336559 
L 360.464668 221.524623 
L 361.114627 221.524623 
L 361.439607 213.712687 
L 361.764586 217.618655 
L 362.739525 205.900751 
L 363.064505 209.806719 
L 363.389484 205.900751 
L 363.714464 209.806719 
L 364.039443 201.994783 
L 364.689402 194.182847 
L 365.014382 198.088815 
L 365.339361 198.088815 
L 365.664341 190.276879 
L 366.639279 190.276879 
L 367.939197 174.653007 
L 368.589156 174.653007 
L 368.914136 170.747039 
L 369.239115 170.747039 
L 369.889075 162.935103 
L 370.214054 166.841071 
L 370.864013 159.029135 
L 371.513972 159.029135 
L 371.838952 151.217199 
L 372.163931 155.123167 
L 373.13887 143.405263 
L 373.463849 147.311231 
L 373.788829 143.405263 
L 374.438788 143.405263 
L 375.088747 135.593327 
L 375.738706 135.593327 
L 376.063686 131.687359 
L 376.713645 131.687359 
L 377.038624 127.781391 
L 377.688583 127.781391 
L 378.013563 119.969455 
L 378.663522 119.969455 
L 378.988501 123.875423 
L 379.313481 116.063487 
L 379.63846 112.15752 
L 379.96344 112.15752 
L 380.288419 108.251552 
L 380.613399 112.15752 
L 380.938378 112.15752 
L 381.263358 108.251552 
L 381.913317 108.251552 
L 382.238296 104.345584 
L 382.888256 104.345584 
L 383.213235 100.439616 
L 383.538215 92.62768 
L 384.188174 92.62768 
L 384.513153 96.533648 
L 384.838133 88.721712 
L 385.488092 88.721712 
L 386.138051 80.909776 
L 386.78801 80.909776 
L 387.112989 84.815744 
L 387.437969 77.003808 
L 388.087928 77.003808 
L 388.737887 69.191872 
L 389.062867 73.09784 
L 389.712826 73.09784 
L 390.037805 69.191872 
L 390.362785 69.191872 
L 390.687764 61.379936 
L 391.012744 65.285904 
L 391.337723 65.285904 
L 391.662703 61.379936 
L 391.987682 61.379936 
L 392.312662 65.285904 
L 392.637641 57.473968 
L 392.962621 57.473968 
L 393.2876 61.379936 
L 393.61258 61.379936 
L 393.937559 53.568 
L 394.262539 57.473968 
L 394.587518 57.473968 
L 394.912498 61.379936 
L 395.237477 57.473968 
L 397.187355 57.473968 
L 397.512334 61.379936 
L 397.837314 53.568 
L 398.487273 61.379936 
L 398.487273 61.379936 
" clip-path="url(#p0f7ff25ecd)" style="fill: none; stroke: #1f77b4; stroke-width: 1.5; stroke-linecap: square"/>
   </g>
   <g id="line2d_16">
    <path d="M 73.832727 279.864128 
L 74.157707 279.864128 
L 74.482686 275.95816 
L 74.807666 283.770096 
L 75.132645 275.95816 
L 75.782604 283.770096 
L 76.107584 283.770096 
L 76.432563 287.676064 
L 76.757543 283.770096 
L 77.082523 283.770096 
L 77.407502 279.864128 
L 77.732482 287.676064 
L 78.057461 283.770096 
L 78.382441 287.676064 
L 79.0324 287.676064 
L 79.357379 291.582032 
L 79.682359 287.676064 
L 80.007338 291.582032 
L 80.332318 287.676064 
L 80.657297 287.676064 
L 80.982277 291.582032 
L 81.307256 291.582032 
L 81.632236 287.676064 
L 81.957215 287.676064 
L 82.282195 283.770096 
L 82.607174 283.770096 
L 82.932154 287.676064 
L 83.257133 283.770096 
L 83.582113 287.676064 
L 84.557052 287.676064 
L 84.882031 283.770096 
L 85.207011 287.676064 
L 85.53199 283.770096 
L 86.181949 283.770096 
L 86.506929 279.864128 
L 87.156888 279.864128 
L 87.481867 275.95816 
L 88.131826 275.95816 
L 88.456806 272.052192 
L 88.781785 272.052192 
L 89.106765 275.95816 
L 89.431744 275.95816 
L 89.756724 268.146224 
L 90.406683 268.146224 
L 91.056642 260.334288 
L 91.381622 264.240256 
L 92.031581 256.42832 
L 92.68154 256.42832 
L 93.656478 244.710416 
L 93.981458 248.616384 
L 94.631417 248.616384 
L 95.281376 240.804448 
L 95.606355 240.804448 
L 96.256314 232.992513 
L 96.906274 232.992513 
L 97.881212 221.274609 
L 98.531171 221.274609 
L 99.18113 213.462673 
L 99.831089 213.462673 
L 100.806028 201.744769 
L 101.131007 201.744769 
L 101.455987 197.838801 
L 101.780966 197.838801 
L 102.755905 186.120897 
L 103.080885 186.120897 
L 104.055823 174.402993 
L 104.380803 174.402993 
L 104.705782 178.308961 
L 105.030762 178.308961 
L 105.355741 170.497025 
L 105.680721 174.402993 
L 106.33068 166.591057 
L 106.655659 154.873153 
L 106.980639 166.591057 
L 107.305618 158.779121 
L 107.630598 154.873153 
L 107.955577 154.873153 
L 108.605536 147.061217 
L 108.930516 150.967185 
L 109.255495 139.249281 
L 110.230434 139.249281 
L 110.880393 131.437345 
L 111.205373 131.437345 
L 111.855332 123.625409 
L 112.505291 123.625409 
L 113.480229 111.907506 
L 114.130188 111.907506 
L 114.455168 104.09557 
L 114.780147 108.001538 
L 115.105127 104.09557 
L 115.755086 104.09557 
L 116.080066 100.189602 
L 116.405045 100.189602 
L 117.055004 92.377666 
L 118.029943 92.377666 
L 118.354922 84.56573 
L 118.679902 84.56573 
L 119.004881 80.659762 
L 119.329861 88.471698 
L 119.65484 76.753794 
L 119.97982 80.659762 
L 120.629779 80.659762 
L 120.954758 76.753794 
L 121.279738 76.753794 
L 121.604717 72.847826 
L 122.904636 72.847826 
L 123.229615 68.941858 
L 123.554595 68.941858 
L 123.879574 65.03589 
L 124.204554 65.03589 
L 124.529533 68.941858 
L 124.854513 65.03589 
L 126.47941 65.03589 
L 126.80439 61.129922 
L 127.779328 61.129922 
L 128.104308 65.03589 
L 128.429287 61.129922 
L 128.754267 65.03589 
L 129.404226 57.223954 
L 129.729206 65.03589 
L 130.054185 57.223954 
L 130.379165 61.129922 
L 130.704144 68.941858 
L 131.029124 68.941858 
L 131.679083 61.129922 
L 132.004062 65.03589 
L 132.654021 65.03589 
L 132.979001 68.941858 
L 133.62896 68.941858 
L 133.953939 65.03589 
L 134.278919 68.941858 
L 134.603898 68.941858 
L 134.928878 72.847826 
L 135.253857 65.03589 
L 135.578837 72.847826 
L 135.903817 76.753794 
L 136.553776 76.753794 
L 136.878755 72.847826 
L 137.203735 80.659762 
L 137.853694 80.659762 
L 138.178673 84.56573 
L 138.828632 84.56573 
L 139.153612 88.471698 
L 139.803571 88.471698 
L 140.12855 92.377666 
L 140.45353 88.471698 
L 140.778509 96.283634 
L 141.103489 96.283634 
L 141.753448 104.09557 
L 142.078428 100.189602 
L 142.403407 104.09557 
L 143.053366 104.09557 
L 143.378346 111.907506 
L 143.703325 111.907506 
L 144.028305 115.813474 
L 145.003243 115.813474 
L 145.328223 123.625409 
L 145.653202 119.719441 
L 145.978182 123.625409 
L 146.303161 131.437345 
L 146.628141 135.343313 
L 146.95312 131.437345 
L 147.603079 139.249281 
L 148.253038 139.249281 
L 148.578018 147.061217 
L 148.902998 150.967185 
L 149.227977 150.967185 
L 149.552957 154.873153 
L 149.877936 150.967185 
L 150.527895 158.779121 
L 150.852875 158.779121 
L 151.502834 166.591057 
L 151.827813 174.402993 
L 152.152793 166.591057 
L 152.477772 174.402993 
L 152.802752 174.402993 
L 153.127731 178.308961 
L 153.452711 174.402993 
L 153.77769 186.120897 
L 154.752629 186.120897 
L 155.077609 190.026865 
L 155.402588 190.026865 
L 155.727568 193.932833 
L 156.052547 193.932833 
L 157.027486 205.650737 
L 157.352465 205.650737 
L 157.677445 209.556705 
L 158.327404 209.556705 
L 158.652383 217.368641 
L 159.302342 225.180577 
L 159.627322 221.274609 
L 159.952301 221.274609 
L 160.92724 232.992513 
L 161.252219 232.992513 
L 161.577199 236.89848 
L 161.902179 236.89848 
L 162.227158 244.710416 
L 163.202097 244.710416 
L 163.527076 248.616384 
L 163.852056 248.616384 
L 164.177035 252.522352 
L 164.502015 252.522352 
L 164.826994 256.42832 
L 165.151974 252.522352 
L 165.476953 256.42832 
L 165.801933 256.42832 
L 166.126912 264.240256 
L 166.451892 264.240256 
L 166.776871 268.146224 
L 167.75181 268.146224 
L 168.07679 272.052192 
L 169.051728 272.052192 
L 169.701687 279.864128 
L 170.026667 275.95816 
L 170.351646 279.864128 
L 170.676626 275.95816 
L 171.001605 275.95816 
L 171.326585 279.864128 
L 171.976544 279.864128 
L 172.301523 283.770096 
L 172.626503 283.770096 
L 172.951482 287.676064 
L 173.276462 283.770096 
L 174.2514 283.770096 
L 174.57638 287.676064 
L 175.876298 287.676064 
L 176.201278 283.770096 
L 176.526257 287.676064 
L 176.851237 287.676064 
L 177.176216 291.582032 
L 177.501196 287.676064 
L 177.826175 291.582032 
L 178.151155 287.676064 
L 178.476134 287.676064 
L 178.801114 283.770096 
L 179.126093 287.676064 
L 180.101032 287.676064 
L 180.426011 283.770096 
L 181.075971 283.770096 
L 181.40095 279.864128 
L 181.72593 283.770096 
L 182.050909 279.864128 
L 182.375889 283.770096 
L 182.700868 279.864128 
L 183.025848 279.864128 
L 183.350827 275.95816 
L 184.650745 275.95816 
L 184.975725 272.052192 
L 185.625684 272.052192 
L 185.950663 264.240256 
L 186.925602 264.240256 
L 187.250581 256.42832 
L 187.575561 260.334288 
L 187.900541 260.334288 
L 188.22552 256.42832 
L 188.5505 256.42832 
L 188.875479 248.616384 
L 189.200459 252.522352 
L 189.850418 244.710416 
L 190.175397 244.710416 
L 190.500377 248.616384 
L 190.825356 240.804448 
L 191.150336 240.804448 
L 191.475315 232.992513 
L 191.800295 232.992513 
L 192.125274 236.89848 
L 192.450254 229.086545 
L 192.775233 232.992513 
L 193.100213 229.086545 
L 193.425192 229.086545 
L 194.400131 217.368641 
L 194.725111 217.368641 
L 195.05009 213.462673 
L 195.700049 213.462673 
L 196.025029 209.556705 
L 196.350008 201.744769 
L 196.999967 201.744769 
L 197.649926 193.932833 
L 197.974906 193.932833 
L 198.299885 190.026865 
L 198.624865 193.932833 
L 198.949844 186.120897 
L 199.274824 190.026865 
L 199.924783 182.214929 
L 200.249762 174.402993 
L 200.574742 178.308961 
L 201.224701 170.497025 
L 201.549681 162.685089 
L 202.524619 162.685089 
L 202.849599 154.873153 
L 203.174578 158.779121 
L 203.499558 158.779121 
L 204.149517 150.967185 
L 204.799476 150.967185 
L 205.124455 139.249281 
L 205.449435 143.155249 
L 206.099394 135.343313 
L 206.424373 135.343313 
L 207.399312 123.625409 
L 207.724292 127.531377 
L 208.049271 119.719441 
L 209.02421 119.719441 
L 209.999148 108.001538 
L 210.324128 108.001538 
L 210.649107 104.09557 
L 210.974087 108.001538 
L 211.624046 100.189602 
L 211.949025 100.189602 
L 212.274005 96.283634 
L 212.923964 96.283634 
L 213.248943 92.377666 
L 213.898903 92.377666 
L 214.223882 88.471698 
L 214.548862 88.471698 
L 214.873841 84.56573 
L 215.5238 84.56573 
L 215.84878 80.659762 
L 216.498739 80.659762 
L 216.823718 72.847826 
L 217.148698 76.753794 
L 217.473677 68.941858 
L 217.798657 68.941858 
L 218.123636 76.753794 
L 218.448616 68.941858 
L 218.773595 72.847826 
L 219.098575 72.847826 
L 219.423554 68.941858 
L 220.073514 68.941858 
L 220.398493 65.03589 
L 220.723473 65.03589 
L 221.048452 68.941858 
L 221.373432 65.03589 
L 222.023391 65.03589 
L 222.34837 61.129922 
L 222.67335 61.129922 
L 222.998329 57.223954 
L 223.323309 61.129922 
L 223.648288 57.223954 
L 223.973268 65.03589 
L 224.298247 61.129922 
L 224.623227 65.03589 
L 224.948206 61.129922 
L 225.273186 61.129922 
L 225.598165 65.03589 
L 225.923145 61.129922 
L 226.248124 61.129922 
L 226.573104 65.03589 
L 227.223063 65.03589 
L 227.548043 61.129922 
L 227.873022 61.129922 
L 228.198002 65.03589 
L 228.522981 65.03589 
L 228.847961 61.129922 
L 229.17294 65.03589 
L 229.49792 72.847826 
L 229.822899 72.847826 
L 230.147879 65.03589 
L 230.472858 68.941858 
L 230.797838 68.941858 
L 231.122817 72.847826 
L 231.772776 72.847826 
L 232.097756 76.753794 
L 233.397674 76.753794 
L 233.722654 80.659762 
L 234.047633 76.753794 
L 234.372613 88.471698 
L 235.347551 88.471698 
L 235.672531 92.377666 
L 236.647469 92.377666 
L 236.972449 100.189602 
L 237.297428 96.283634 
L 237.622408 100.189602 
L 238.272367 100.189602 
L 238.597346 108.001538 
L 238.922326 104.09557 
L 239.247305 104.09557 
L 239.572285 111.907506 
L 239.897265 115.813474 
L 240.547224 115.813474 
L 240.872203 119.719441 
L 241.197183 119.719441 
L 241.522162 123.625409 
L 241.847142 123.625409 
L 242.82208 135.343313 
L 243.472039 135.343313 
L 243.797019 139.249281 
L 244.121998 147.061217 
L 244.446978 143.155249 
L 244.771957 150.967185 
L 245.096937 150.967185 
L 245.421916 154.873153 
L 246.071876 154.873153 
L 246.721835 162.685089 
L 247.046814 158.779121 
L 247.371794 170.497025 
L 248.996691 170.497025 
L 249.321671 182.214929 
L 249.64665 174.402993 
L 250.296609 182.214929 
L 250.621589 193.932833 
L 250.946568 190.026865 
L 251.271548 190.026865 
L 251.596527 197.838801 
L 252.246486 197.838801 
L 252.571466 201.744769 
L 252.896446 209.556705 
L 254.196364 209.556705 
L 254.521343 213.462673 
L 254.846323 213.462673 
L 255.496282 221.274609 
L 255.821261 229.086545 
L 256.47122 229.086545 
L 256.7962 232.992513 
L 257.446159 232.992513 
L 258.096118 240.804448 
L 258.746077 240.804448 
L 259.071057 244.710416 
L 259.396036 244.710416 
L 259.721016 252.522352 
L 260.045995 244.710416 
L 260.370975 252.522352 
L 260.695954 256.42832 
L 261.670893 256.42832 
L 261.995872 264.240256 
L 262.320852 260.334288 
L 263.29579 272.052192 
L 263.62077 272.052192 
L 263.945749 268.146224 
L 264.270729 268.146224 
L 264.920688 275.95816 
L 265.245667 272.052192 
L 265.570647 279.864128 
L 265.895627 279.864128 
L 266.220606 275.95816 
L 266.545586 279.864128 
L 266.870565 279.864128 
L 267.195545 283.770096 
L 267.520524 279.864128 
L 267.845504 283.770096 
L 268.170483 283.770096 
L 268.495463 287.676064 
L 268.820442 279.864128 
L 269.145422 283.770096 
L 269.470401 279.864128 
L 269.795381 279.864128 
L 270.12036 287.676064 
L 270.44534 283.770096 
L 270.770319 291.582032 
L 271.420278 291.582032 
L 271.745258 287.676064 
L 272.070238 287.676064 
L 272.395217 291.582032 
L 272.720197 287.676064 
L 273.045176 287.676064 
L 273.370156 295.488 
L 274.345094 283.770096 
L 274.670074 287.676064 
L 274.995053 283.770096 
L 275.320033 287.676064 
L 275.645012 279.864128 
L 275.969992 287.676064 
L 276.94493 287.676064 
L 277.26991 283.770096 
L 277.919869 283.770096 
L 278.244848 275.95816 
L 278.569828 283.770096 
L 279.219787 275.95816 
L 279.869746 275.95816 
L 280.194726 272.052192 
L 280.519705 275.95816 
L 280.844685 268.146224 
L 281.169664 272.052192 
L 281.494644 272.052192 
L 281.819623 268.146224 
L 282.144603 268.146224 
L 282.469582 264.240256 
L 282.794562 264.240256 
L 283.119541 260.334288 
L 283.7695 260.334288 
L 284.09448 256.42832 
L 284.419459 256.42832 
L 285.069419 248.616384 
L 285.394398 248.616384 
L 285.719378 252.522352 
L 286.044357 244.710416 
L 286.369337 248.616384 
L 286.694316 248.616384 
L 287.669255 236.89848 
L 287.994234 236.89848 
L 288.644193 229.086545 
L 289.294152 229.086545 
L 290.59407 213.462673 
L 290.91905 217.368641 
L 291.244029 209.556705 
L 291.569009 213.462673 
L 291.893989 213.462673 
L 292.218968 209.556705 
L 292.543948 201.744769 
L 292.868927 201.744769 
L 293.193907 197.838801 
L 293.518886 197.838801 
L 293.843866 190.026865 
L 294.168845 193.932833 
L 294.493825 193.932833 
L 294.818804 186.120897 
L 295.793743 174.402993 
L 296.118722 182.214929 
L 296.443702 170.497025 
L 296.768681 178.308961 
L 297.093661 178.308961 
L 297.41864 174.402993 
L 297.74362 166.591057 
L 298.0686 166.591057 
L 299.043538 154.873153 
L 299.368518 158.779121 
L 300.018477 150.967185 
L 300.343456 150.967185 
L 300.668436 147.061217 
L 300.993415 139.249281 
L 301.318395 143.155249 
L 301.643374 135.343313 
L 301.968354 139.249281 
L 302.293333 135.343313 
L 302.618313 135.343313 
L 302.943292 127.531377 
L 303.593251 127.531377 
L 303.918231 123.625409 
L 304.24321 123.625409 
L 304.56819 119.719441 
L 304.89317 119.719441 
L 305.218149 115.813474 
L 305.543129 108.001538 
L 306.193088 108.001538 
L 306.518067 104.09557 
L 306.843047 96.283634 
L 307.168026 104.09557 
L 307.493006 108.001538 
L 308.142965 100.189602 
L 308.467944 100.189602 
L 309.117903 92.377666 
L 309.767862 92.377666 
L 310.417821 84.56573 
L 311.067781 84.56573 
L 311.39276 76.753794 
L 311.71774 80.659762 
L 312.042719 76.753794 
L 312.367699 76.753794 
L 312.692678 80.659762 
L 313.017658 80.659762 
L 313.667617 72.847826 
L 314.642555 72.847826 
L 314.967535 68.941858 
L 315.292514 72.847826 
L 315.617494 65.03589 
L 316.592432 65.03589 
L 316.917412 68.941858 
L 317.242391 61.129922 
L 317.892351 68.941858 
L 318.21733 65.03589 
L 318.54231 65.03589 
L 318.867289 61.129922 
L 319.192269 65.03589 
L 319.517248 61.129922 
L 319.842228 65.03589 
L 320.167207 61.129922 
L 320.492187 65.03589 
L 320.817166 61.129922 
L 321.467125 61.129922 
L 321.792105 57.223954 
L 322.117084 61.129922 
L 322.442064 61.129922 
L 323.092023 68.941858 
L 323.417002 68.941858 
L 324.066962 61.129922 
L 324.391941 68.941858 
L 324.716921 65.03589 
L 325.0419 65.03589 
L 325.36688 68.941858 
L 326.991777 68.941858 
L 327.316757 72.847826 
L 327.641736 68.941858 
L 327.966716 76.753794 
L 328.291695 76.753794 
L 328.616675 84.56573 
L 328.941654 76.753794 
L 329.266634 80.659762 
L 329.916593 80.659762 
L 330.241572 84.56573 
L 330.566552 84.56573 
L 330.891532 88.471698 
L 331.541491 88.471698 
L 331.86647 92.377666 
L 332.19145 92.377666 
L 332.516429 96.283634 
L 333.166388 96.283634 
L 333.491368 104.09557 
L 334.466306 104.09557 
L 334.791286 108.001538 
L 335.116265 108.001538 
L 335.766224 115.813474 
L 336.741163 115.813474 
L 337.066143 119.719441 
L 337.391122 119.719441 
L 337.716102 127.531377 
L 338.041081 123.625409 
L 338.366061 131.437345 
L 339.01602 139.249281 
L 339.665979 139.249281 
L 340.640917 150.967185 
L 340.965897 150.967185 
L 341.290876 154.873153 
L 341.940835 154.873153 
L 342.265815 150.967185 
L 342.590794 150.967185 
L 342.915774 162.685089 
L 343.240753 158.779121 
L 343.890713 174.402993 
L 344.215692 178.308961 
L 344.540672 174.402993 
L 344.865651 182.214929 
L 345.190631 178.308961 
L 345.51561 182.214929 
L 345.84059 182.214929 
L 346.165569 190.026865 
L 346.490549 193.932833 
L 346.815528 190.026865 
L 347.140508 190.026865 
L 347.465487 193.932833 
L 347.790467 193.932833 
L 348.115446 201.744769 
L 348.440426 193.932833 
L 348.765405 205.650737 
L 349.415364 213.462673 
L 349.740344 213.462673 
L 350.065324 209.556705 
L 350.390303 217.368641 
L 351.040262 217.368641 
L 351.690221 225.180577 
L 352.015201 225.180577 
L 352.34018 229.086545 
L 352.990139 229.086545 
L 353.315119 236.89848 
L 353.640098 236.89848 
L 353.965078 240.804448 
L 354.290057 240.804448 
L 354.940016 248.616384 
L 355.264996 248.616384 
L 355.589975 252.522352 
L 356.239934 252.522352 
L 356.564914 256.42832 
L 357.864832 256.42832 
L 358.514791 264.240256 
L 358.839771 264.240256 
L 359.48973 272.052192 
L 360.464668 272.052192 
L 360.789648 275.95816 
L 361.439607 275.95816 
L 361.764586 279.864128 
L 362.089566 279.864128 
L 362.414545 275.95816 
L 362.739525 279.864128 
L 363.389484 279.864128 
L 363.714464 283.770096 
L 364.039443 279.864128 
L 364.364423 283.770096 
L 364.689402 291.582032 
L 365.014382 287.676064 
L 365.98932 287.676064 
L 366.3143 283.770096 
L 366.964259 291.582032 
L 367.289238 291.582032 
L 367.614218 287.676064 
L 368.264177 287.676064 
L 368.589156 283.770096 
L 368.914136 291.582032 
L 369.239115 287.676064 
L 369.564095 291.582032 
L 369.889075 291.582032 
L 370.214054 295.488 
L 370.539034 287.676064 
L 370.864013 287.676064 
L 371.188993 291.582032 
L 371.513972 283.770096 
L 371.838952 283.770096 
L 372.163931 287.676064 
L 372.81389 287.676064 
L 373.463849 279.864128 
L 374.113808 279.864128 
L 374.438788 275.95816 
L 375.088747 283.770096 
L 375.413726 275.95816 
L 376.063686 275.95816 
L 376.713645 268.146224 
L 377.038624 272.052192 
L 377.363604 268.146224 
L 377.688583 272.052192 
L 378.338542 264.240256 
L 378.663522 264.240256 
L 378.988501 260.334288 
L 379.313481 260.334288 
L 379.63846 256.42832 
L 379.96344 256.42832 
L 380.288419 260.334288 
L 381.263358 248.616384 
L 381.913317 248.616384 
L 382.238296 244.710416 
L 382.563276 244.710416 
L 383.213235 236.89848 
L 383.538215 236.89848 
L 384.188174 229.086545 
L 384.513153 229.086545 
L 384.838133 225.180577 
L 385.163112 229.086545 
L 385.813071 229.086545 
L 386.138051 221.274609 
L 386.46303 217.368641 
L 386.78801 217.368641 
L 387.112989 209.556705 
L 388.087928 209.556705 
L 389.062867 197.838801 
L 389.387846 190.026865 
L 389.712826 193.932833 
L 390.037805 186.120897 
L 390.362785 190.026865 
L 390.687764 190.026865 
L 391.012744 193.932833 
L 391.337723 182.214929 
L 391.662703 182.214929 
L 391.987682 178.308961 
L 392.312662 178.308961 
L 392.637641 170.497025 
L 392.962621 170.497025 
L 393.2876 174.402993 
L 393.61258 170.497025 
L 393.937559 158.779121 
L 394.262539 154.873153 
L 394.587518 158.779121 
L 394.912498 158.779121 
L 395.237477 150.967185 
L 395.562457 154.873153 
L 395.887437 154.873153 
L 396.212416 150.967185 
L 396.537396 150.967185 
L 396.862375 143.155249 
L 397.187355 147.061217 
L 397.512334 135.343313 
L 397.837314 139.249281 
L 398.487273 131.437345 
L 398.487273 131.437345 
" clip-path="url(#p0f7ff25ecd)" style="fill: none; stroke: #ff7f0e; stroke-width: 1.5; stroke-linecap: square"/>
   </g>
   <g id="line2d_17">
    <path d="M 73.832727 145.522185 
L 80.007338 145.518279 
L 398.487273 145.559291 
L 398.487273 145.559291 
" clip-path="url(#p0f7ff25ecd)" style="fill: none; stroke: #2ca02c; stroke-width: 1.5; stroke-linecap: square"/>
   </g>
   <g id="patch_3">
    <path d="M 57.6 307.584 
L 57.6 41.472 
" style="fill: none; stroke: #000000; stroke-width: 0.8; stroke-linejoin: miter; stroke-linecap: square"/>
   </g>
   <g id="patch_4">
    <path d="M 414.72 307.584 
L 414.72 41.472 
" style="fill: none; stroke: #000000; stroke-width: 0.8; stroke-linejoin: miter; stroke-linecap: square"/>
   </g>
   <g id="patch_5">
    <path d="M 57.6 307.584 
L 414.72 307.584 
" style="fill: none; stroke: #000000; stroke-width: 0.8; stroke-linejoin: miter; stroke-linecap: square"/>
   </g>
   <g id="patch_6">
    <path d="M 57.6 41.472 
L 414.72 41.472 
" style="fill: none; stroke: #000000; stroke-width: 0.8; stroke-linejoin: miter; stroke-linecap: square"/>
   </g>
  </g>
 </g>
 <defs>
  <clipPath id="p0f7ff25ecd">
   <rect x="57.6" y="41.472" width="357.12" height="266.112"/>
  </clipPath>
 </defs>
</svg>
