<?xml version="1.0" encoding="utf-8" standalone="no"?>
<!DOCTYPE svg PUBLIC "-//W3C//DTD SVG 1.1//EN"
  "http://www.w3.org/Graphics/SVG/1.1/DTD/svg11.dtd">
<svg xmlns:xlink="http://www.w3.org/1999/xlink" width="460.8pt" height="345.6pt" viewBox="0 0 460.8 345.6" xmlns="http://www.w3.org/2000/svg" version="1.1">
 <metadata>
  <rdf:RDF xmlns:dc="http://purl.org/dc/elements/1.1/" xmlns:cc="http://creativecommons.org/ns#" xmlns:rdf="http://www.w3.org/1999/02/22-rdf-syntax-ns#">
   <cc:Work>
    <dc:type rdf:resource="http://purl.org/dc/dcmitype/StillImage"/>
    <dc:date>2025-12-26T14:11:28.336188</dc:date>
    <dc:format>image/svg+xml</dc:format>
    <dc:creator>
     <cc:Agent>
      <dc:title>Matplotlib v3.10.8, https://matplotlib.org/</dc:title>
     </cc:Agent>
    </dc:creator>
   </cc:Work>
  </rdf:RDF>
 </metadata>
 <defs>
  <style type="text/css">*{stroke-linejoin: round; stroke-linecap: butt}</style>
 </defs>
 <g id="figure_1">
  <g id="patch_1">
   <path d="M 0 345.6 
L 460.8 345.6 
L 460.8 0 
L 0 0 
z
" style="fill: #ffffff"/>
  </g>
  <g id="axes_1">
   <g id="patch_2">
    <path d="M 57.6 307.584 
L 414.72 307.584 
L 414.72 41.472 
L 57.6 41.472 
z
" style="fill: #ffffff"/>
   </g>
   <g id="matplotlib.axis_1">
    <g id="xtick_1">
     <g id="line2d_1">
      <defs>
       <path id="m5179af6bd1" d="M 0 0 
L 0 3.5 
" style="stroke: #000000; stroke-width: 0.8"/>
      </defs>
      <g>
       <use xlink:href="#m5179af6bd1" x="73.832727" y="307.584" style="stroke: #000000; stroke-width: 0.8"/>
      </g>
     </g>
     <g id="text_1">
      <!-- 0 -->
      <g transform="translate(70.651477 322.182437) scale(0.1 -0.1)">
       <defs>
        <path id="DejaVuSans-30" d="M 2034 4250 
Q 1547 4250 1301 3770 
Q 1056 3291 1056 2328 
Q 1056 1369 1301 889 
Q 1547 409 2034 409 
Q 2525 409 2770 889 
Q 3016 1369 3016 2328 
Q 3016 3291 2770 3770 
Q 2525 4250 2034 4250 
z
M 2034 4750 
Q 2819 4750 3233 4129 
Q 3647 3509 3647 2328 
Q 3647 1150 3233 529 
Q 2819 -91 2034 -91 
Q 1250 -91 836 529 
Q 422 1150 422 2328 
Q 422 3509 836 4129 
Q 1250 4750 2034 4750 
z
" transform="scale(0.015625)"/>
       </defs>
       <use xlink:href="#DejaVuSans-30"/>
      </g>
     </g>
    </g>
    <g id="xtick_2">
     <g id="line2d_2">
      <g>
       <use xlink:href="#m5179af6bd1" x="138.828632" y="307.584" style="stroke: #000000; stroke-width: 0.8"/>
      </g>
     </g>
     <g id="text_2">
      <!-- 1 -->
      <g transform="translate(135.647382 322.182437) scale(0.1 -0.1)">
       <defs>
        <path id="DejaVuSans-31" d="M 794 531 
L 1825 531 
L 1825 4091 
L 703 3866 
L 703 4441 
L 1819 4666 
L 2450 4666 
L 2450 531 
L 3481 531 
L 3481 0 
L 794 0 
L 794 531 
z
" transform="scale(0.015625)"/>
       </defs>
       <use xlink:href="#DejaVuSans-31"/>
      </g>
     </g>
    </g>
    <g id="xtick_3">
     <g id="line2d_3">
      <g>
       <use xlink:href="#m5179af6bd1" x="203.824537" y="307.584" style="stroke: #000000; stroke-width: 0.8"/>
      </g>
     </g>
     <g id="text_3">
      <!-- 2 -->
      <g transform="translate(200.643287 322.182437) scale(0.1 -0.1)">
       <defs>
        <path id="DejaVuSans-32" d="M 1228 531 
L 3431 531 
L 3431 0 
L 469 0 
L 469 531 
Q 828 903 1448 1529 
Q 2069 2156 2228 2338 
Q 2531 2678 2651 2914 
Q 2772 3150 2772 3378 
Q 2772 3750 2511 3984 
Q 2250 4219 1831 4219 
Q 1534 4219 1204 4116 
Q 875 4013 500 3803 
L 500 4441 
Q 881 4594 1212 4672 
Q 1544 4750 1819 4750 
Q 2544 4750 2975 4387 
Q 3406 4025 3406 3419 
Q 3406 3131 3298 2873 
Q 3191 2616 2906 2266 
Q 2828 2175 2409 1742 
Q 1991 1309 1228 531 
z
" transform="scale(0.015625)"/>
       </defs>
       <use xlink:href="#DejaVuSans-32"/>
      </g>
     </g>
    </g>
    <g id="xtick_4">
     <g id="line2d_4">
      <g>
       <use xlink:href="#m5179af6bd1" x="268.820442" y="307.584" style="stroke: #000000; stroke-width: 0.8"/>
      </g>
     </g>
     <g id="text_4">
      <!-- 3 -->
      <g transform="translate(265.639192 322.182437) scale(0.1 -0.1)">
       <defs>
        <path id="DejaVuSans-33" d="M 2597 2516 
Q 3050 2419 3304 2112 
Q 3559 1806 3559 1356 
Q 3559 666 3084 287 
Q 2609 -91 1734 -91 
Q 1441 -91 1130 -33 
Q 819 25 488 141 
L 488 750 
Q 750 597 1062 519 
Q 1375 441 1716 441 
Q 2309 441 2620 675 
Q 2931 909 2931 1356 
Q 2931 1769 2642 2001 
Q 2353 2234 1838 2234 
L 1294 2234 
L 1294 2753 
L 1863 2753 
Q 2328 2753 2575 2939 
Q 2822 3125 2822 3475 
Q 2822 3834 2567 4026 
Q 2313 4219 1838 4219 
Q 1578 4219 1281 4162 
Q 984 4106 628 3988 
L 628 4550 
Q 988 4650 1302 4700 
Q 1616 4750 1894 4750 
Q 2613 4750 3031 4423 
Q 3450 4097 3450 3541 
Q 3450 3153 3228 2886 
Q 3006 2619 2597 2516 
z
" transform="scale(0.015625)"/>
       </defs>
       <use xlink:href="#DejaVuSans-33"/>
      </g>
     </g>
    </g>
    <g id="xtick_5">
     <g id="line2d_5">
      <g>
       <use xlink:href="#m5179af6bd1" x="333.816347" y="307.584" style="stroke: #000000; stroke-width: 0.8"/>
      </g>
     </g>
     <g id="text_5">
      <!-- 4 -->
      <g transform="translate(330.635097 322.182437) scale(0.1 -0.1)">
       <defs>
        <path id="DejaVuSans-34" d="M 2419 4116 
L 825 1625 
L 2419 1625 
L 2419 4116 
z
M 2253 4666 
L 3047 4666 
L 3047 1625 
L 3713 1625 
L 3713 1100 
L 3047 1100 
L 3047 0 
L 2419 0 
L 2419 1100 
L 313 1100 
L 313 1709 
L 2253 4666 
z
" transform="scale(0.015625)"/>
       </defs>
       <use xlink:href="#DejaVuSans-34"/>
      </g>
     </g>
    </g>
    <g id="xtick_6">
     <g id="line2d_6">
      <g>
       <use xlink:href="#m5179af6bd1" x="398.812252" y="307.584" style="stroke: #000000; stroke-width: 0.8"/>
      </g>
     </g>
     <g id="text_6">
      <!-- 5 -->
      <g transform="translate(395.631002 322.182437) scale(0.1 -0.1)">
       <defs>
        <path id="DejaVuSans-35" d="M 691 4666 
L 3169 4666 
L 3169 4134 
L 1269 4134 
L 1269 2991 
Q 1406 3038 1543 3061 
Q 1681 3084 1819 3084 
Q 2600 3084 3056 2656 
Q 3513 2228 3513 1497 
Q 3513 744 3044 326 
Q 2575 -91 1722 -91 
Q 1428 -91 1123 -41 
Q 819 9 494 109 
L 494 744 
Q 775 591 1075 516 
Q 1375 441 1709 441 
Q 2250 441 2565 725 
Q 2881 1009 2881 1497 
Q 2881 1984 2565 2268 
Q 2250 2553 1709 2553 
Q 1456 2553 1204 2497 
Q 953 2441 691 2322 
L 691 4666 
z
" transform="scale(0.015625)"/>
       </defs>
       <use xlink:href="#DejaVuSans-35"/>
      </g>
     </g>
    </g>
    <g id="text_7">
     <!-- 1e−7 -->
     <g transform="translate(387.462188 334.860562) scale(0.1 -0.1)">
      <defs>
       <path id="DejaVuSans-65" d="M 3597 1894 
L 3597 1613 
L 953 1613 
Q 991 1019 1311 708 
Q 1631 397 2203 397 
Q 2534 397 2845 478 
Q 3156 559 3463 722 
L 3463 178 
Q 3153 47 2828 -22 
Q 2503 -91 2169 -91 
Q 1331 -91 842 396 
Q 353 884 353 1716 
Q 353 2575 817 3079 
Q 1281 3584 2069 3584 
Q 2775 3584 3186 3129 
Q 3597 2675 3597 1894 
z
M 3022 2063 
Q 3016 2534 2758 2815 
Q 2500 3097 2075 3097 
Q 1594 3097 1305 2825 
Q 1016 2553 972 2059 
L 3022 2063 
z
" transform="scale(0.015625)"/>
       <path id="DejaVuSans-2212" d="M 678 2272 
L 4684 2272 
L 4684 1741 
L 678 1741 
L 678 2272 
z
" transform="scale(0.015625)"/>
       <path id="DejaVuSans-37" d="M 525 4666 
L 3525 4666 
L 3525 4397 
L 1831 0 
L 1172 0 
L 2766 4134 
L 525 4134 
L 525 4666 
z
" transform="scale(0.015625)"/>
      </defs>
      <use xlink:href="#DejaVuSans-31"/>
      <use xlink:href="#DejaVuSans-65" transform="translate(63.623047 0)"/>
      <use xlink:href="#DejaVuSans-2212" transform="translate(125.146484 0)"/>
      <use xlink:href="#DejaVuSans-37" transform="translate(208.935547 0)"/>
     </g>
    </g>
   </g>
   <g id="matplotlib.axis_2">
    <g id="ytick_1">
     <g id="line2d_7">
      <defs>
       <path id="m64882c7ed5" d="M 0 0 
L -3.5 0 
" style="stroke: #000000; stroke-width: 0.8"/>
      </defs>
      <g>
       <use xlink:href="#m64882c7ed5" x="57.6" y="270.362792" style="stroke: #000000; stroke-width: 0.8"/>
      </g>
     </g>
     <g id="text_8">
      <!-- −200 -->
      <g transform="translate(23.132812 274.16201) scale(0.1 -0.1)">
       <use xlink:href="#DejaVuSans-2212"/>
       <use xlink:href="#DejaVuSans-32" transform="translate(83.789062 0)"/>
       <use xlink:href="#DejaVuSans-30" transform="translate(147.412109 0)"/>
       <use xlink:href="#DejaVuSans-30" transform="translate(211.035156 0)"/>
      </g>
     </g>
    </g>
    <g id="ytick_2">
     <g id="line2d_8">
      <g>
       <use xlink:href="#m64882c7ed5" x="57.6" y="218.154547" style="stroke: #000000; stroke-width: 0.8"/>
      </g>
     </g>
     <g id="text_9">
      <!-- −100 -->
      <g transform="translate(23.132812 221.953766) scale(0.1 -0.1)">
       <use xlink:href="#DejaVuSans-2212"/>
       <use xlink:href="#DejaVuSans-31" transform="translate(83.789062 0)"/>
       <use xlink:href="#DejaVuSans-30" transform="translate(147.412109 0)"/>
       <use xlink:href="#DejaVuSans-30" transform="translate(211.035156 0)"/>
      </g>
     </g>
    </g>
    <g id="ytick_3">
     <g id="line2d_9">
      <g>
       <use xlink:href="#m64882c7ed5" x="57.6" y="165.946302" style="stroke: #000000; stroke-width: 0.8"/>
      </g>
     </g>
     <g id="text_10">
      <!-- 0 -->
      <g transform="translate(44.2375 169.745521) scale(0.1 -0.1)">
       <use xlink:href="#DejaVuSans-30"/>
      </g>
     </g>
    </g>
    <g id="ytick_4">
     <g id="line2d_10">
      <g>
       <use xlink:href="#m64882c7ed5" x="57.6" y="113.738057" style="stroke: #000000; stroke-width: 0.8"/>
      </g>
     </g>
     <g id="text_11">
      <!-- 100 -->
      <g transform="translate(31.5125 117.537276) scale(0.1 -0.1)">
       <use xlink:href="#DejaVuSans-31"/>
       <use xlink:href="#DejaVuSans-30" transform="translate(63.623047 0)"/>
       <use xlink:href="#DejaVuSans-30" transform="translate(127.246094 0)"/>
      </g>
     </g>
    </g>
    <g id="ytick_5">
     <g id="line2d_11">
      <g>
       <use xlink:href="#m64882c7ed5" x="57.6" y="61.529812" style="stroke: #000000; stroke-width: 0.8"/>
      </g>
     </g>
     <g id="text_12">
      <!-- 200 -->
      <g transform="translate(31.5125 65.329031) scale(0.1 -0.1)">
       <use xlink:href="#DejaVuSans-32"/>
       <use xlink:href="#DejaVuSans-30" transform="translate(63.623047 0)"/>
       <use xlink:href="#DejaVuSans-30" transform="translate(127.246094 0)"/>
      </g>
     </g>
    </g>
   </g>
   <g id="line2d_12">
    <path d="M 73.832727 249.34893 
L 74.157707 249.34893 
L 74.482686 241.191391 
L 75.457625 265.664008 
L 75.782604 257.506469 
L 76.107584 265.664008 
L 76.432563 257.506469 
L 77.407502 257.506469 
L 78.057461 273.821546 
L 78.382441 265.664008 
L 78.70742 265.664008 
L 79.0324 281.979085 
L 79.357379 273.821546 
L 79.682359 273.821546 
L 80.007338 265.664008 
L 80.657297 281.979085 
L 80.982277 273.821546 
L 81.632236 273.821546 
L 81.957215 281.979085 
L 82.282195 273.821546 
L 82.607174 273.821546 
L 82.932154 265.664008 
L 83.257133 281.979085 
L 83.582113 273.821546 
L 83.907093 281.979085 
L 84.232072 273.821546 
L 85.53199 273.821546 
L 85.85697 281.979085 
L 86.831908 257.506469 
L 87.156888 265.664008 
L 87.806847 265.664008 
L 88.131826 257.506469 
L 88.456806 281.979085 
L 88.781785 257.506469 
L 89.106765 257.506469 
L 89.431744 265.664008 
L 90.081704 249.34893 
L 90.406683 249.34893 
L 90.731663 257.506469 
L 91.056642 249.34893 
L 91.381622 257.506469 
L 91.706601 241.191391 
L 92.031581 241.191391 
L 92.35656 249.34893 
L 92.68154 241.191391 
L 93.656478 241.191391 
L 93.981458 233.033853 
L 94.956396 233.033853 
L 95.281376 224.876314 
L 96.906274 224.876314 
L 97.231253 216.718775 
L 97.556233 216.718775 
L 97.881212 208.561236 
L 98.856151 208.561236 
L 99.18113 192.246159 
L 99.50611 200.403698 
L 100.806028 200.403698 
L 101.131007 192.246159 
L 101.455987 200.403698 
L 101.780966 200.403698 
L 102.105946 192.246159 
L 102.430925 175.931081 
L 102.755905 184.08862 
L 103.080885 175.931081 
L 103.730844 175.931081 
L 104.055823 184.08862 
L 104.380803 167.773543 
L 104.705782 184.08862 
L 105.030762 184.08862 
L 105.355741 167.773543 
L 105.680721 167.773543 
L 106.0057 159.616004 
L 106.33068 167.773543 
L 106.980639 167.773543 
L 107.305618 159.616004 
L 108.280557 159.616004 
L 108.605536 151.458465 
L 109.255495 151.458465 
L 109.580475 143.300926 
L 109.905455 151.458465 
L 110.230434 151.458465 
L 110.555414 143.300926 
L 110.880393 126.985849 
L 111.205373 126.985849 
L 111.530352 143.300926 
L 111.855332 126.985849 
L 112.180311 135.143388 
L 112.83027 118.82831 
L 113.15525 126.985849 
L 113.805209 110.670771 
L 114.130188 110.670771 
L 114.455168 118.82831 
L 114.780147 110.670771 
L 115.105127 110.670771 
L 115.430106 102.513233 
L 115.755086 102.513233 
L 116.080066 94.355694 
L 116.730025 94.355694 
L 117.055004 102.513233 
L 118.029943 78.040616 
L 118.354922 86.198155 
L 118.679902 78.040616 
L 119.004881 78.040616 
L 119.329861 86.198155 
L 119.65484 86.198155 
L 119.97982 78.040616 
L 120.629779 78.040616 
L 121.279738 61.725539 
L 121.604717 61.725539 
L 122.254676 78.040616 
L 122.579656 69.883078 
L 122.904636 69.883078 
L 123.229615 53.568 
L 123.554595 69.883078 
L 123.879574 53.568 
L 124.529533 69.883078 
L 124.854513 69.883078 
L 125.179492 61.725539 
L 125.504472 69.883078 
L 126.154431 69.883078 
L 126.47941 53.568 
L 127.129369 69.883078 
L 128.104308 69.883078 
L 128.429287 53.568 
L 128.754267 69.883078 
L 129.079247 61.725539 
L 129.404226 61.725539 
L 130.054185 78.040616 
L 130.379165 61.725539 
L 130.704144 78.040616 
L 131.354103 78.040616 
L 131.679083 69.883078 
L 132.004062 78.040616 
L 132.329042 69.883078 
L 132.654021 86.198155 
L 132.979001 78.040616 
L 133.30398 86.198155 
L 133.62896 78.040616 
L 133.953939 94.355694 
L 134.278919 86.198155 
L 134.603898 94.355694 
L 134.928878 94.355694 
L 135.253857 102.513233 
L 135.578837 86.198155 
L 135.903817 94.355694 
L 136.228796 94.355694 
L 136.553776 102.513233 
L 136.878755 94.355694 
L 137.203735 94.355694 
L 137.528714 110.670771 
L 137.853694 118.82831 
L 138.178673 110.670771 
L 138.503653 118.82831 
L 138.828632 110.670771 
L 139.153612 110.670771 
L 139.478591 118.82831 
L 139.803571 110.670771 
L 140.12855 126.985849 
L 140.45353 126.985849 
L 140.778509 118.82831 
L 141.103489 126.985849 
L 142.403407 126.985849 
L 143.053366 143.300926 
L 143.378346 135.143388 
L 144.028305 135.143388 
L 144.353284 143.300926 
L 145.003243 143.300926 
L 145.653202 159.616004 
L 145.978182 143.300926 
L 146.303161 159.616004 
L 146.628141 159.616004 
L 146.95312 151.458465 
L 147.603079 151.458465 
L 147.928059 159.616004 
L 148.902998 159.616004 
L 149.227977 151.458465 
L 149.552957 167.773543 
L 150.527895 167.773543 
L 150.852875 175.931081 
L 151.177854 167.773543 
L 151.502834 175.931081 
L 152.802752 175.931081 
L 153.127731 192.246159 
L 153.77769 192.246159 
L 154.10267 200.403698 
L 154.427649 184.08862 
L 154.752629 200.403698 
L 155.727568 200.403698 
L 156.052547 208.561236 
L 156.377527 200.403698 
L 156.702506 216.718775 
L 158.002424 216.718775 
L 158.652383 233.033853 
L 158.977363 224.876314 
L 159.302342 233.033853 
L 159.627322 224.876314 
L 160.277281 241.191391 
L 160.60226 241.191391 
L 161.252219 257.506469 
L 161.577199 249.34893 
L 161.902179 249.34893 
L 162.227158 257.506469 
L 162.552138 249.34893 
L 163.202097 249.34893 
L 163.527076 265.664008 
L 164.502015 265.664008 
L 164.826994 257.506469 
L 165.151974 265.664008 
L 165.476953 265.664008 
L 165.801933 257.506469 
L 166.126912 257.506469 
L 166.451892 273.821546 
L 167.42683 273.821546 
L 167.75181 281.979085 
L 168.07679 273.821546 
L 168.401769 281.979085 
L 168.726749 281.979085 
L 169.051728 290.136624 
L 169.376708 273.821546 
L 169.701687 273.821546 
L 170.026667 265.664008 
L 170.351646 281.979085 
L 171.001605 265.664008 
L 171.651564 281.979085 
L 171.976544 273.821546 
L 172.626503 290.136624 
L 172.951482 273.821546 
L 174.2514 273.821546 
L 174.57638 265.664008 
L 175.226339 265.664008 
L 175.551319 273.821546 
L 175.876298 265.664008 
L 176.201278 265.664008 
L 176.526257 257.506469 
L 176.851237 273.821546 
L 177.176216 257.506469 
L 177.501196 257.506469 
L 177.826175 265.664008 
L 178.476134 249.34893 
L 180.101032 249.34893 
L 180.426011 233.033853 
L 180.750991 241.191391 
L 181.075971 241.191391 
L 181.40095 233.033853 
L 181.72593 241.191391 
L 182.050909 233.033853 
L 182.700868 233.033853 
L 183.025848 241.191391 
L 183.350827 224.876314 
L 183.675807 216.718775 
L 184.000786 216.718775 
L 184.325766 224.876314 
L 184.650745 216.718775 
L 185.300704 216.718775 
L 185.625684 208.561236 
L 185.950663 216.718775 
L 186.600622 200.403698 
L 186.925602 208.561236 
L 187.250581 208.561236 
L 187.575561 192.246159 
L 187.900541 200.403698 
L 188.22552 200.403698 
L 188.875479 184.08862 
L 189.200459 192.246159 
L 189.525438 192.246159 
L 189.850418 200.403698 
L 190.825356 175.931081 
L 192.125274 175.931081 
L 192.450254 184.08862 
L 192.775233 159.616004 
L 193.100213 175.931081 
L 193.425192 175.931081 
L 193.750172 167.773543 
L 194.075152 167.773543 
L 194.400131 159.616004 
L 194.725111 167.773543 
L 195.37507 167.773543 
L 195.700049 151.458465 
L 196.025029 151.458465 
L 196.350008 159.616004 
L 196.999967 143.300926 
L 197.324947 151.458465 
L 197.649926 151.458465 
L 197.974906 135.143388 
L 198.299885 143.300926 
L 198.624865 143.300926 
L 198.949844 135.143388 
L 199.274824 135.143388 
L 199.599803 126.985849 
L 199.924783 126.985849 
L 200.249762 135.143388 
L 201.224701 110.670771 
L 202.524619 110.670771 
L 202.849599 118.82831 
L 203.174578 102.513233 
L 203.499558 102.513233 
L 203.824537 110.670771 
L 204.149517 102.513233 
L 204.474496 86.198155 
L 204.799476 94.355694 
L 205.449435 94.355694 
L 205.774414 86.198155 
L 206.099394 86.198155 
L 206.424373 78.040616 
L 206.749353 86.198155 
L 207.074333 78.040616 
L 207.399312 78.040616 
L 207.724292 69.883078 
L 208.049271 78.040616 
L 208.374251 61.725539 
L 208.69923 78.040616 
L 209.02421 69.883078 
L 210.324128 69.883078 
L 210.649107 78.040616 
L 211.624046 53.568 
L 211.949025 69.883078 
L 212.274005 61.725539 
L 212.923964 61.725539 
L 213.248943 69.883078 
L 213.573923 53.568 
L 213.898903 61.725539 
L 214.223882 61.725539 
L 214.548862 69.883078 
L 214.873841 53.568 
L 215.5238 69.883078 
L 216.498739 69.883078 
L 216.823718 53.568 
L 217.148698 69.883078 
L 217.473677 61.725539 
L 217.798657 69.883078 
L 218.123636 69.883078 
L 218.448616 78.040616 
L 218.773595 61.725539 
L 219.098575 78.040616 
L 219.748534 78.040616 
L 220.073514 69.883078 
L 221.048452 94.355694 
L 221.373432 78.040616 
L 221.698411 94.355694 
L 222.023391 86.198155 
L 222.34837 94.355694 
L 222.67335 86.198155 
L 223.323309 102.513233 
L 223.648288 102.513233 
L 223.973268 94.355694 
L 224.298247 102.513233 
L 224.948206 102.513233 
L 225.273186 94.355694 
L 225.598165 110.670771 
L 225.923145 110.670771 
L 226.248124 118.82831 
L 226.573104 110.670771 
L 226.898084 118.82831 
L 227.223063 110.670771 
L 227.548043 118.82831 
L 227.873022 110.670771 
L 228.198002 118.82831 
L 228.522981 118.82831 
L 228.847961 126.985849 
L 229.17294 118.82831 
L 229.49792 135.143388 
L 230.147879 135.143388 
L 230.472858 126.985849 
L 230.797838 126.985849 
L 231.122817 143.300926 
L 231.447797 143.300926 
L 231.772776 135.143388 
L 232.097756 143.300926 
L 232.422735 143.300926 
L 232.747715 151.458465 
L 233.072695 143.300926 
L 233.397674 151.458465 
L 233.722654 143.300926 
L 234.047633 159.616004 
L 234.372613 143.300926 
L 235.022572 159.616004 
L 235.347551 151.458465 
L 235.672531 159.616004 
L 235.99751 151.458465 
L 236.647469 167.773543 
L 236.972449 159.616004 
L 237.297428 167.773543 
L 237.622408 159.616004 
L 237.947387 167.773543 
L 238.597346 167.773543 
L 239.247305 184.08862 
L 239.572285 175.931081 
L 239.897265 175.931081 
L 240.222244 184.08862 
L 241.197183 184.08862 
L 241.522162 192.246159 
L 242.172121 192.246159 
L 242.497101 200.403698 
L 242.82208 192.246159 
L 243.472039 208.561236 
L 244.771957 208.561236 
L 245.421916 224.876314 
L 245.746896 224.876314 
L 246.071876 216.718775 
L 246.396855 216.718775 
L 246.721835 224.876314 
L 247.046814 241.191391 
L 247.371794 233.033853 
L 247.696773 233.033853 
L 248.021753 224.876314 
L 248.346732 249.34893 
L 248.671712 241.191391 
L 248.996691 241.191391 
L 249.321671 249.34893 
L 250.296609 249.34893 
L 250.621589 257.506469 
L 250.946568 257.506469 
L 251.271548 249.34893 
L 252.246486 273.821546 
L 252.571466 265.664008 
L 254.521343 265.664008 
L 254.846323 273.821546 
L 255.171302 273.821546 
L 255.496282 265.664008 
L 255.821261 273.821546 
L 257.121179 273.821546 
L 257.446159 281.979085 
L 257.771138 273.821546 
L 258.096118 273.821546 
L 258.421097 265.664008 
L 258.746077 281.979085 
L 259.071057 281.979085 
L 259.396036 273.821546 
L 259.721016 273.821546 
L 260.045995 281.979085 
L 260.370975 273.821546 
L 260.695954 273.821546 
L 261.020934 281.979085 
L 261.670893 265.664008 
L 261.995872 273.821546 
L 262.320852 265.664008 
L 262.645831 273.821546 
L 262.970811 265.664008 
L 263.29579 265.664008 
L 263.62077 257.506469 
L 263.945749 257.506469 
L 264.270729 265.664008 
L 264.920688 249.34893 
L 265.245667 265.664008 
L 265.570647 257.506469 
L 266.220606 257.506469 
L 266.545586 249.34893 
L 267.845504 249.34893 
L 268.170483 241.191391 
L 268.495463 241.191391 
L 268.820442 224.876314 
L 269.145422 241.191391 
L 269.470401 241.191391 
L 269.795381 224.876314 
L 270.12036 241.191391 
L 270.44534 241.191391 
L 270.770319 224.876314 
L 271.095299 233.033853 
L 271.420278 224.876314 
L 271.745258 224.876314 
L 272.070238 216.718775 
L 273.695135 216.718775 
L 274.020115 208.561236 
L 274.995053 208.561236 
L 275.320033 200.403698 
L 275.645012 208.561236 
L 275.969992 192.246159 
L 276.294971 192.246159 
L 276.619951 200.403698 
L 277.26991 184.08862 
L 277.594889 184.08862 
L 277.919869 192.246159 
L 278.244848 184.08862 
L 278.569828 184.08862 
L 279.219787 167.773543 
L 279.544767 184.08862 
L 279.869746 175.931081 
L 280.519705 175.931081 
L 280.844685 184.08862 
L 281.169664 167.773543 
L 282.144603 167.773543 
L 282.469582 159.616004 
L 283.119541 159.616004 
L 283.444521 167.773543 
L 283.7695 151.458465 
L 284.744439 151.458465 
L 285.394398 135.143388 
L 286.044357 151.458465 
L 286.369337 135.143388 
L 286.694316 143.300926 
L 287.019296 143.300926 
L 287.669255 126.985849 
L 288.644193 126.985849 
L 288.969173 118.82831 
L 289.294152 118.82831 
L 289.619132 102.513233 
L 289.944111 110.670771 
L 290.269091 102.513233 
L 291.244029 102.513233 
L 291.569009 94.355694 
L 291.893989 102.513233 
L 292.543948 102.513233 
L 292.868927 78.040616 
L 293.518886 94.355694 
L 293.843866 94.355694 
L 294.168845 78.040616 
L 294.493825 86.198155 
L 294.818804 78.040616 
L 295.143784 86.198155 
L 295.793743 69.883078 
L 296.118722 78.040616 
L 296.768681 61.725539 
L 297.093661 78.040616 
L 297.41864 69.883078 
L 297.74362 69.883078 
L 298.0686 61.725539 
L 298.393579 61.725539 
L 298.718559 69.883078 
L 299.043538 69.883078 
L 299.368518 61.725539 
L 299.693497 69.883078 
L 300.018477 53.568 
L 300.343456 61.725539 
L 300.668436 61.725539 
L 300.993415 53.568 
L 301.643374 69.883078 
L 301.968354 61.725539 
L 302.943292 61.725539 
L 303.268272 53.568 
L 303.918231 69.883078 
L 304.89317 69.883078 
L 305.218149 53.568 
L 305.543129 69.883078 
L 306.518067 69.883078 
L 306.843047 78.040616 
L 307.168026 69.883078 
L 307.493006 78.040616 
L 307.817985 78.040616 
L 308.142965 86.198155 
L 308.467944 69.883078 
L 309.442883 94.355694 
L 309.767862 86.198155 
L 310.417821 86.198155 
L 310.742801 94.355694 
L 311.067781 86.198155 
L 311.71774 102.513233 
L 312.042719 102.513233 
L 312.367699 94.355694 
L 312.692678 102.513233 
L 313.992596 102.513233 
L 314.317576 118.82831 
L 315.292514 118.82831 
L 315.617494 110.670771 
L 315.942473 118.82831 
L 316.917412 118.82831 
L 317.242391 135.143388 
L 317.567371 126.985849 
L 318.21733 143.300926 
L 318.867289 126.985849 
L 319.192269 135.143388 
L 319.517248 135.143388 
L 319.842228 143.300926 
L 320.492187 143.300926 
L 320.817166 135.143388 
L 321.142146 151.458465 
L 321.792105 151.458465 
L 322.117084 159.616004 
L 322.442064 159.616004 
L 322.767043 151.458465 
L 323.092023 159.616004 
L 323.417002 159.616004 
L 323.741982 167.773543 
L 324.391941 151.458465 
L 325.0419 167.773543 
L 325.36688 167.773543 
L 325.691859 175.931081 
L 326.016839 159.616004 
L 326.341818 175.931081 
L 326.666798 167.773543 
L 327.316757 184.08862 
L 327.641736 184.08862 
L 327.966716 175.931081 
L 328.616675 192.246159 
L 328.941654 184.08862 
L 329.266634 184.08862 
L 329.591613 192.246159 
L 329.916593 192.246159 
L 330.241572 200.403698 
L 331.216511 200.403698 
L 331.541491 208.561236 
L 332.19145 208.561236 
L 332.841409 224.876314 
L 333.166388 216.718775 
L 333.491368 216.718775 
L 333.816347 233.033853 
L 334.141327 224.876314 
L 334.791286 224.876314 
L 335.441245 241.191391 
L 336.091204 241.191391 
L 336.416183 233.033853 
L 336.741163 249.34893 
L 337.716102 249.34893 
L 338.041081 257.506469 
L 338.366061 249.34893 
L 339.01602 265.664008 
L 339.340999 257.506469 
L 339.665979 257.506469 
L 339.990958 265.664008 
L 340.315938 265.664008 
L 340.640917 273.821546 
L 340.965897 265.664008 
L 341.940835 265.664008 
L 342.265815 273.821546 
L 342.590794 265.664008 
L 343.240753 281.979085 
L 343.565733 273.821546 
L 344.540672 273.821546 
L 344.865651 265.664008 
L 345.51561 281.979085 
L 345.84059 281.979085 
L 346.165569 273.821546 
L 346.490549 273.821546 
L 346.815528 265.664008 
L 347.140508 273.821546 
L 347.465487 273.821546 
L 347.790467 265.664008 
L 348.115446 265.664008 
L 348.440426 281.979085 
L 348.765405 265.664008 
L 349.090385 273.821546 
L 349.740344 273.821546 
L 350.065324 265.664008 
L 350.390303 265.664008 
L 350.715283 273.821546 
L 351.040262 273.821546 
L 351.365242 265.664008 
L 351.690221 265.664008 
L 352.015201 257.506469 
L 353.315119 257.506469 
L 353.640098 265.664008 
L 353.965078 249.34893 
L 355.264996 249.34893 
L 355.589975 241.191391 
L 355.914955 241.191391 
L 356.239934 249.34893 
L 357.214873 224.876314 
L 357.539853 241.191391 
L 358.189812 224.876314 
L 358.514791 233.033853 
L 358.839771 233.033853 
L 359.16475 216.718775 
L 359.48973 224.876314 
L 359.814709 224.876314 
L 360.139689 216.718775 
L 361.439607 216.718775 
L 361.764586 208.561236 
L 362.089566 208.561236 
L 362.414545 200.403698 
L 362.739525 208.561236 
L 363.064505 200.403698 
L 363.714464 200.403698 
L 364.039443 208.561236 
L 364.364423 184.08862 
L 364.689402 192.246159 
L 365.339361 192.246159 
L 365.98932 175.931081 
L 366.3143 192.246159 
L 366.639279 184.08862 
L 366.964259 184.08862 
L 367.289238 175.931081 
L 367.614218 175.931081 
L 367.939197 184.08862 
L 368.589156 167.773543 
L 368.914136 167.773543 
L 369.239115 175.931081 
L 369.564095 159.616004 
L 369.889075 167.773543 
L 370.214054 167.773543 
L 370.539034 159.616004 
L 370.864013 159.616004 
L 371.188993 151.458465 
L 372.488911 151.458465 
L 372.81389 135.143388 
L 373.13887 143.300926 
L 374.113808 143.300926 
L 374.438788 151.458465 
L 374.763767 135.143388 
L 375.088747 143.300926 
L 375.413726 143.300926 
L 375.738706 126.985849 
L 376.063686 126.985849 
L 376.388665 118.82831 
L 376.713645 118.82831 
L 377.038624 126.985849 
L 378.013563 102.513233 
L 378.338542 110.670771 
L 378.663522 102.513233 
L 379.63846 102.513233 
L 379.96344 94.355694 
L 380.613399 94.355694 
L 380.938378 86.198155 
L 381.913317 86.198155 
L 382.238296 94.355694 
L 382.563276 78.040616 
L 382.888256 78.040616 
L 383.213235 69.883078 
L 383.538215 78.040616 
L 383.863194 78.040616 
L 384.188174 69.883078 
L 384.513153 69.883078 
L 384.838133 78.040616 
L 385.163112 69.883078 
L 385.488092 78.040616 
L 385.813071 69.883078 
L 386.138051 69.883078 
L 386.46303 61.725539 
L 386.78801 61.725539 
L 387.437969 78.040616 
L 388.412907 53.568 
L 388.737887 61.725539 
L 390.037805 61.725539 
L 390.362785 53.568 
L 390.687764 61.725539 
L 391.012744 61.725539 
L 391.337723 69.883078 
L 391.662703 53.568 
L 391.987682 53.568 
L 392.312662 69.883078 
L 392.637641 78.040616 
L 392.962621 69.883078 
L 393.2876 78.040616 
L 393.61258 61.725539 
L 393.937559 78.040616 
L 394.262539 61.725539 
L 394.912498 78.040616 
L 395.887437 78.040616 
L 396.212416 86.198155 
L 396.537396 86.198155 
L 396.862375 78.040616 
L 397.512334 94.355694 
L 397.837314 94.355694 
L 398.162293 86.198155 
L 398.487273 94.355694 
L 398.487273 94.355694 
" clip-path="url(#p3b8503ceb3)" style="fill: none; stroke: #1f77b4; stroke-width: 1.5; stroke-linecap: square"/>
   </g>
   <g id="line2d_13">
    <path d="M 73.832727 99.70707 
L 74.807666 99.70707 
L 75.132645 107.864609 
L 75.782604 107.864609 
L 76.107584 116.022147 
L 76.432563 116.022147 
L 76.757543 124.179686 
L 77.407502 124.179686 
L 77.732482 132.337225 
L 78.057461 124.179686 
L 78.382441 132.337225 
L 78.70742 132.337225 
L 79.0324 140.494764 
L 79.357379 132.337225 
L 79.682359 132.337225 
L 80.007338 140.494764 
L 80.332318 132.337225 
L 80.657297 140.494764 
L 80.982277 124.179686 
L 81.632236 140.494764 
L 81.957215 156.809841 
L 82.282195 140.494764 
L 82.607174 140.494764 
L 82.932154 148.652302 
L 83.257133 140.494764 
L 83.582113 140.494764 
L 83.907093 148.652302 
L 84.557052 148.652302 
L 84.882031 156.809841 
L 85.207011 156.809841 
L 85.53199 148.652302 
L 85.85697 164.96738 
L 86.181949 156.809841 
L 87.156888 181.282457 
L 87.481867 173.124919 
L 87.806847 173.124919 
L 88.131826 181.282457 
L 89.106765 181.282457 
L 89.431744 189.439996 
L 90.081704 189.439996 
L 90.406683 181.282457 
L 91.056642 197.597535 
L 91.381622 189.439996 
L 92.031581 205.755074 
L 93.981458 205.755074 
L 94.631417 222.070151 
L 94.956396 222.070151 
L 95.281376 213.912612 
L 95.606355 213.912612 
L 95.931335 222.070151 
L 96.256314 222.070151 
L 96.581294 213.912612 
L 96.906274 230.22769 
L 97.556233 246.542767 
L 97.881212 238.385229 
L 98.531171 238.385229 
L 98.856151 246.542767 
L 99.18113 246.542767 
L 99.50611 254.700306 
L 99.831089 254.700306 
L 100.156069 246.542767 
L 100.481048 254.700306 
L 100.806028 246.542767 
L 101.131007 246.542767 
L 101.455987 254.700306 
L 101.780966 238.385229 
L 102.105946 254.700306 
L 102.755905 271.015384 
L 103.080885 254.700306 
L 103.405864 262.857845 
L 104.380803 262.857845 
L 104.705782 271.015384 
L 105.680721 271.015384 
L 106.0057 279.172922 
L 106.33068 262.857845 
L 106.655659 279.172922 
L 106.980639 271.015384 
L 107.955577 295.488 
L 108.280557 279.172922 
L 108.605536 287.330461 
L 108.930516 287.330461 
L 109.255495 279.172922 
L 109.580475 279.172922 
L 109.905455 287.330461 
L 110.555414 287.330461 
L 110.880393 279.172922 
L 111.205373 279.172922 
L 111.530352 287.330461 
L 111.855332 287.330461 
L 112.180311 271.015384 
L 113.15525 295.488 
L 113.805209 279.172922 
L 114.455168 279.172922 
L 114.780147 271.015384 
L 115.105127 279.172922 
L 115.430106 279.172922 
L 115.755086 271.015384 
L 117.055004 271.015384 
L 117.379984 254.700306 
L 117.704963 262.857845 
L 118.354922 262.857845 
L 118.679902 254.700306 
L 119.004881 262.857845 
L 119.329861 246.542767 
L 120.629779 246.542767 
L 120.954758 238.385229 
L 121.279738 238.385229 
L 121.929697 222.070151 
L 122.254676 230.22769 
L 122.579656 213.912612 
L 122.904636 230.22769 
L 123.229615 222.070151 
L 123.554595 238.385229 
L 123.879574 222.070151 
L 124.204554 222.070151 
L 124.529533 230.22769 
L 124.854513 222.070151 
L 125.504472 222.070151 
L 125.829451 230.22769 
L 126.80439 205.755074 
L 127.129369 205.755074 
L 127.454349 213.912612 
L 127.779328 205.755074 
L 128.104308 213.912612 
L 128.754267 213.912612 
L 129.404226 197.597535 
L 129.729206 197.597535 
L 130.054185 189.439996 
L 131.029124 189.439996 
L 131.354103 181.282457 
L 132.004062 181.282457 
L 132.329042 164.96738 
L 132.654021 173.124919 
L 132.979001 164.96738 
L 133.30398 173.124919 
L 133.62896 173.124919 
L 133.953939 181.282457 
L 134.278919 164.96738 
L 134.603898 156.809841 
L 134.928878 164.96738 
L 135.253857 156.809841 
L 135.903817 156.809841 
L 136.228796 164.96738 
L 136.553776 156.809841 
L 137.203735 156.809841 
L 137.528714 148.652302 
L 137.853694 156.809841 
L 138.178673 140.494764 
L 138.503653 148.652302 
L 138.828632 140.494764 
L 139.153612 148.652302 
L 139.803571 132.337225 
L 140.778509 132.337225 
L 141.103489 124.179686 
L 141.428468 132.337225 
L 142.078428 116.022147 
L 142.403407 116.022147 
L 142.728387 107.864609 
L 143.053366 116.022147 
L 143.378346 99.70707 
L 144.028305 116.022147 
L 144.353284 116.022147 
L 145.003243 99.70707 
L 145.328223 99.70707 
L 145.653202 107.864609 
L 145.978182 99.70707 
L 146.303161 107.864609 
L 146.628141 107.864609 
L 146.95312 91.549531 
L 147.2781 99.70707 
L 147.603079 91.549531 
L 147.928059 91.549531 
L 148.253038 99.70707 
L 148.578018 83.391992 
L 148.902998 99.70707 
L 149.552957 99.70707 
L 149.877936 83.391992 
L 150.527895 83.391992 
L 150.852875 91.549531 
L 151.502834 75.234454 
L 151.827813 83.391992 
L 152.152793 75.234454 
L 152.477772 83.391992 
L 153.127731 67.076915 
L 153.452711 83.391992 
L 153.77769 67.076915 
L 154.10267 83.391992 
L 155.077609 83.391992 
L 155.402588 67.076915 
L 155.727568 83.391992 
L 156.052547 83.391992 
L 156.377527 75.234454 
L 156.702506 83.391992 
L 157.027486 75.234454 
L 157.352465 83.391992 
L 157.677445 75.234454 
L 158.327404 75.234454 
L 158.652383 83.391992 
L 158.977363 67.076915 
L 159.302342 91.549531 
L 159.627322 91.549531 
L 159.952301 99.70707 
L 160.277281 83.391992 
L 160.60226 83.391992 
L 160.92724 91.549531 
L 161.577199 91.549531 
L 161.902179 107.864609 
L 162.227158 99.70707 
L 162.552138 99.70707 
L 162.877117 116.022147 
L 163.202097 99.70707 
L 163.527076 107.864609 
L 164.177035 107.864609 
L 164.502015 124.179686 
L 165.151974 140.494764 
L 165.476953 124.179686 
L 165.801933 132.337225 
L 167.75181 132.337225 
L 168.07679 140.494764 
L 168.401769 132.337225 
L 168.726749 132.337225 
L 169.051728 140.494764 
L 169.376708 132.337225 
L 170.351646 156.809841 
L 170.676626 140.494764 
L 171.001605 148.652302 
L 171.976544 148.652302 
L 172.301523 156.809841 
L 172.626503 156.809841 
L 172.951482 148.652302 
L 173.276462 164.96738 
L 173.601441 156.809841 
L 174.2514 173.124919 
L 174.57638 164.96738 
L 175.226339 181.282457 
L 175.551319 181.282457 
L 175.876298 173.124919 
L 176.526257 189.439996 
L 176.851237 181.282457 
L 177.176216 181.282457 
L 177.501196 197.597535 
L 177.826175 189.439996 
L 178.151155 197.597535 
L 178.476134 197.597535 
L 178.801114 189.439996 
L 179.126093 189.439996 
L 179.451073 197.597535 
L 179.776052 181.282457 
L 180.101032 197.597535 
L 180.426011 205.755074 
L 180.750991 205.755074 
L 181.075971 197.597535 
L 181.40095 197.597535 
L 181.72593 213.912612 
L 182.375889 213.912612 
L 182.700868 222.070151 
L 183.025848 222.070151 
L 183.350827 213.912612 
L 183.675807 213.912612 
L 184.000786 222.070151 
L 184.325766 222.070151 
L 184.650745 230.22769 
L 184.975725 222.070151 
L 185.300704 238.385229 
L 185.625684 238.385229 
L 185.950663 246.542767 
L 186.275643 238.385229 
L 186.600622 238.385229 
L 186.925602 246.542767 
L 187.575561 246.542767 
L 187.900541 254.700306 
L 188.22552 246.542767 
L 188.5505 254.700306 
L 189.200459 254.700306 
L 189.525438 246.542767 
L 189.850418 254.700306 
L 190.175397 246.542767 
L 190.500377 262.857845 
L 190.825356 262.857845 
L 191.150336 271.015384 
L 191.475315 262.857845 
L 192.775233 262.857845 
L 193.100213 271.015384 
L 194.725111 271.015384 
L 195.05009 279.172922 
L 195.37507 271.015384 
L 195.700049 279.172922 
L 196.025029 279.172922 
L 196.350008 287.330461 
L 197.649926 287.330461 
L 197.974906 279.172922 
L 198.299885 287.330461 
L 198.624865 279.172922 
L 198.949844 287.330461 
L 199.274824 279.172922 
L 199.924783 279.172922 
L 200.249762 287.330461 
L 200.574742 271.015384 
L 200.899722 287.330461 
L 201.224701 287.330461 
L 201.549681 295.488 
L 201.87466 279.172922 
L 202.849599 279.172922 
L 203.174578 271.015384 
L 203.499558 279.172922 
L 203.824537 279.172922 
L 204.474496 262.857845 
L 204.799476 262.857845 
L 205.124455 254.700306 
L 205.449435 262.857845 
L 205.774414 246.542767 
L 206.099394 262.857845 
L 206.749353 262.857845 
L 207.074333 254.700306 
L 207.399312 254.700306 
L 208.049271 238.385229 
L 209.02421 238.385229 
L 209.349189 230.22769 
L 209.999148 230.22769 
L 210.324128 222.070151 
L 210.649107 230.22769 
L 210.974087 213.912612 
L 211.624046 230.22769 
L 211.949025 230.22769 
L 212.598984 213.912612 
L 212.923964 222.070151 
L 213.248943 213.912612 
L 213.573923 222.070151 
L 214.548862 222.070151 
L 214.873841 213.912612 
L 215.198821 213.912612 
L 215.5238 205.755074 
L 215.84878 213.912612 
L 216.173759 197.597535 
L 216.498739 205.755074 
L 217.148698 205.755074 
L 217.798657 189.439996 
L 219.098575 189.439996 
L 219.423554 181.282457 
L 220.073514 181.282457 
L 220.723473 164.96738 
L 221.048452 181.282457 
L 221.373432 156.809841 
L 222.023391 173.124919 
L 222.34837 173.124919 
L 222.998329 156.809841 
L 223.323309 164.96738 
L 223.648288 164.96738 
L 223.973268 156.809841 
L 224.623227 156.809841 
L 224.948206 148.652302 
L 225.273186 148.652302 
L 225.598165 140.494764 
L 225.923145 140.494764 
L 226.248124 148.652302 
L 226.573104 132.337225 
L 226.898084 140.494764 
L 227.223063 140.494764 
L 227.548043 148.652302 
L 228.522981 124.179686 
L 229.17294 124.179686 
L 229.49792 132.337225 
L 229.822899 124.179686 
L 230.147879 124.179686 
L 230.797838 107.864609 
L 231.447797 107.864609 
L 231.772776 99.70707 
L 232.422735 116.022147 
L 232.747715 116.022147 
L 233.072695 99.70707 
L 233.397674 107.864609 
L 233.722654 107.864609 
L 234.047633 99.70707 
L 234.372613 107.864609 
L 234.697592 99.70707 
L 235.022572 99.70707 
L 235.347551 91.549531 
L 235.672531 99.70707 
L 235.99751 91.549531 
L 236.32249 91.549531 
L 236.647469 99.70707 
L 236.972449 83.391992 
L 237.622408 99.70707 
L 237.947387 99.70707 
L 238.272367 83.391992 
L 239.897265 83.391992 
L 240.222244 75.234454 
L 240.547224 75.234454 
L 240.872203 83.391992 
L 241.522162 67.076915 
L 241.847142 83.391992 
L 242.172121 67.076915 
L 242.82208 83.391992 
L 243.14706 83.391992 
L 243.472039 75.234454 
L 244.121998 75.234454 
L 244.446978 83.391992 
L 244.771957 75.234454 
L 245.096937 83.391992 
L 245.421916 83.391992 
L 245.746896 75.234454 
L 246.071876 83.391992 
L 246.396855 75.234454 
L 246.721835 75.234454 
L 247.046814 91.549531 
L 247.371794 83.391992 
L 248.021753 83.391992 
L 248.346732 99.70707 
L 248.671712 99.70707 
L 248.996691 91.549531 
L 249.321671 91.549531 
L 249.97163 107.864609 
L 251.921507 107.864609 
L 252.246486 116.022147 
L 252.571466 107.864609 
L 252.896446 124.179686 
L 253.221425 132.337225 
L 253.546405 132.337225 
L 253.871384 124.179686 
L 254.196364 124.179686 
L 254.521343 140.494764 
L 254.846323 124.179686 
L 255.496282 140.494764 
L 255.821261 140.494764 
L 256.146241 132.337225 
L 256.47122 132.337225 
L 256.7962 140.494764 
L 257.121179 132.337225 
L 257.446159 140.494764 
L 258.096118 140.494764 
L 258.421097 148.652302 
L 260.370975 148.652302 
L 261.020934 164.96738 
L 262.320852 164.96738 
L 262.645831 173.124919 
L 262.970811 156.809841 
L 263.29579 181.282457 
L 263.62077 181.282457 
L 263.945749 189.439996 
L 264.270729 181.282457 
L 264.920688 181.282457 
L 265.245667 189.439996 
L 265.895627 189.439996 
L 266.220606 197.597535 
L 266.545586 189.439996 
L 267.520524 189.439996 
L 267.845504 197.597535 
L 268.170483 189.439996 
L 268.495463 205.755074 
L 268.820442 205.755074 
L 269.145422 213.912612 
L 269.470401 205.755074 
L 269.795381 205.755074 
L 270.12036 213.912612 
L 270.44534 213.912612 
L 270.770319 222.070151 
L 271.095299 213.912612 
L 271.745258 230.22769 
L 272.720197 230.22769 
L 273.045176 238.385229 
L 273.370156 230.22769 
L 274.345094 254.700306 
L 274.670074 238.385229 
L 275.320033 254.700306 
L 275.645012 246.542767 
L 275.969992 246.542767 
L 276.619951 262.857845 
L 276.94493 246.542767 
L 277.594889 262.857845 
L 277.919869 254.700306 
L 278.244848 262.857845 
L 279.219787 262.857845 
L 279.544767 271.015384 
L 279.869746 254.700306 
L 280.519705 271.015384 
L 280.844685 271.015384 
L 281.169664 262.857845 
L 281.819623 279.172922 
L 282.144603 271.015384 
L 282.469582 271.015384 
L 282.794562 279.172922 
L 283.119541 271.015384 
L 283.444521 287.330461 
L 283.7695 271.015384 
L 284.419459 287.330461 
L 285.069419 287.330461 
L 285.394398 279.172922 
L 285.719378 287.330461 
L 286.044357 279.172922 
L 286.369337 279.172922 
L 286.694316 287.330461 
L 287.019296 287.330461 
L 287.344275 279.172922 
L 287.994234 279.172922 
L 288.319214 271.015384 
L 288.644193 287.330461 
L 288.969173 271.015384 
L 289.294152 287.330461 
L 289.944111 287.330461 
L 290.269091 271.015384 
L 290.59407 279.172922 
L 291.244029 279.172922 
L 291.569009 271.015384 
L 292.218968 271.015384 
L 292.543948 262.857845 
L 293.193907 262.857845 
L 293.518886 254.700306 
L 293.843866 254.700306 
L 294.168845 246.542767 
L 294.493825 254.700306 
L 295.143784 254.700306 
L 295.793743 238.385229 
L 296.443702 238.385229 
L 296.768681 230.22769 
L 297.093661 238.385229 
L 297.41864 230.22769 
L 297.74362 230.22769 
L 298.0686 222.070151 
L 298.718559 222.070151 
L 299.043538 230.22769 
L 299.368518 213.912612 
L 300.018477 230.22769 
L 300.343456 230.22769 
L 300.993415 213.912612 
L 301.318395 222.070151 
L 301.643374 213.912612 
L 302.618313 213.912612 
L 302.943292 205.755074 
L 303.268272 213.912612 
L 303.593251 205.755074 
L 304.24321 205.755074 
L 304.56819 189.439996 
L 304.89317 205.755074 
L 305.218149 197.597535 
L 305.868108 197.597535 
L 306.193088 189.439996 
L 306.518067 197.597535 
L 306.843047 181.282457 
L 307.817985 181.282457 
L 308.142965 173.124919 
L 308.467944 173.124919 
L 308.792924 164.96738 
L 309.442883 164.96738 
L 309.767862 156.809841 
L 310.092842 173.124919 
L 310.417821 164.96738 
L 310.742801 164.96738 
L 311.067781 156.809841 
L 311.39276 156.809841 
L 311.71774 164.96738 
L 312.042719 164.96738 
L 312.367699 148.652302 
L 312.692678 156.809841 
L 313.017658 156.809841 
L 313.342637 148.652302 
L 313.667617 148.652302 
L 314.317576 132.337225 
L 314.642555 140.494764 
L 314.967535 132.337225 
L 315.292514 140.494764 
L 315.942473 140.494764 
L 316.267453 132.337225 
L 316.592432 132.337225 
L 317.242391 116.022147 
L 317.567371 124.179686 
L 317.892351 116.022147 
L 318.21733 124.179686 
L 318.54231 107.864609 
L 318.867289 116.022147 
L 319.192269 107.864609 
L 319.842228 107.864609 
L 320.167207 99.70707 
L 320.817166 116.022147 
L 321.467125 99.70707 
L 323.741982 99.70707 
L 324.066962 91.549531 
L 325.0419 91.549531 
L 325.36688 83.391992 
L 325.691859 91.549531 
L 326.341818 91.549531 
L 326.991777 75.234454 
L 327.316757 75.234454 
L 327.641736 83.391992 
L 327.966716 75.234454 
L 329.591613 75.234454 
L 329.916593 67.076915 
L 330.241572 83.391992 
L 330.566552 67.076915 
L 330.891532 83.391992 
L 331.541491 83.391992 
L 332.19145 67.076915 
L 332.516429 83.391992 
L 332.841409 75.234454 
L 333.491368 75.234454 
L 333.816347 83.391992 
L 334.141327 75.234454 
L 334.466306 83.391992 
L 334.791286 83.391992 
L 335.116265 75.234454 
L 335.441245 91.549531 
L 335.766224 75.234454 
L 336.091204 91.549531 
L 336.416183 99.70707 
L 336.741163 99.70707 
L 337.066143 91.549531 
L 337.716102 107.864609 
L 338.041081 99.70707 
L 338.69104 116.022147 
L 339.990958 116.022147 
L 340.315938 107.864609 
L 340.640917 116.022147 
L 340.965897 116.022147 
L 341.290876 132.337225 
L 341.615856 140.494764 
L 341.940835 140.494764 
L 342.265815 124.179686 
L 342.590794 124.179686 
L 342.915774 132.337225 
L 343.890713 132.337225 
L 344.215692 140.494764 
L 345.190631 140.494764 
L 345.51561 132.337225 
L 345.84059 140.494764 
L 346.165569 132.337225 
L 346.490549 148.652302 
L 348.765405 148.652302 
L 349.090385 156.809841 
L 349.415364 173.124919 
L 349.740344 164.96738 
L 350.715283 164.96738 
L 351.040262 173.124919 
L 351.365242 164.96738 
L 351.690221 181.282457 
L 352.015201 181.282457 
L 352.34018 189.439996 
L 352.66516 181.282457 
L 352.990139 189.439996 
L 353.315119 181.282457 
L 353.640098 189.439996 
L 354.290057 189.439996 
L 354.615037 197.597535 
L 355.914955 197.597535 
L 356.239934 205.755074 
L 356.564914 189.439996 
L 356.889894 205.755074 
L 357.539853 222.070151 
L 357.864832 205.755074 
L 358.189812 197.597535 
L 358.514791 213.912612 
L 358.839771 213.912612 
L 359.16475 222.070151 
L 359.48973 222.070151 
L 359.814709 230.22769 
L 360.139689 222.070151 
L 360.464668 230.22769 
L 361.114627 230.22769 
L 361.439607 246.542767 
L 361.764586 230.22769 
L 362.739525 254.700306 
L 363.064505 246.542767 
L 363.389484 254.700306 
L 364.689402 254.700306 
L 365.014382 262.857845 
L 365.339361 254.700306 
L 365.664341 254.700306 
L 365.98932 246.542767 
L 366.639279 262.857845 
L 366.964259 246.542767 
L 367.289238 262.857845 
L 367.939197 279.172922 
L 368.264177 262.857845 
L 368.589156 271.015384 
L 369.239115 271.015384 
L 369.564095 262.857845 
L 370.214054 279.172922 
L 370.539034 271.015384 
L 370.864013 271.015384 
L 371.188993 279.172922 
L 371.513972 271.015384 
L 371.838952 287.330461 
L 372.163931 279.172922 
L 372.488911 279.172922 
L 373.13887 295.488 
L 373.463849 287.330461 
L 374.763767 287.330461 
L 375.088747 279.172922 
L 375.413726 287.330461 
L 375.738706 287.330461 
L 376.063686 279.172922 
L 376.388665 287.330461 
L 376.713645 279.172922 
L 377.038624 279.172922 
L 377.363604 271.015384 
L 377.688583 279.172922 
L 378.013563 279.172922 
L 378.338542 287.330461 
L 378.988501 271.015384 
L 379.313481 279.172922 
L 379.96344 262.857845 
L 380.288419 271.015384 
L 380.613399 271.015384 
L 380.938378 254.700306 
L 381.263358 262.857845 
L 381.588337 262.857845 
L 381.913317 254.700306 
L 382.238296 254.700306 
L 382.563276 246.542767 
L 382.888256 246.542767 
L 383.213235 254.700306 
L 383.538215 254.700306 
L 383.863194 238.385229 
L 384.838133 238.385229 
L 385.163112 230.22769 
L 386.46303 230.22769 
L 386.78801 222.070151 
L 387.437969 222.070151 
L 387.762948 213.912612 
L 388.087928 222.070151 
L 388.412907 222.070151 
L 388.737887 230.22769 
L 389.062867 213.912612 
L 390.037805 213.912612 
L 390.362785 222.070151 
L 391.012744 205.755074 
L 391.662703 205.755074 
L 391.987682 197.597535 
L 392.312662 197.597535 
L 392.637641 205.755074 
L 392.962621 189.439996 
L 393.61258 205.755074 
L 394.587518 181.282457 
L 394.912498 189.439996 
L 395.562457 173.124919 
L 395.887437 181.282457 
L 396.212416 173.124919 
L 396.537396 173.124919 
L 396.862375 164.96738 
L 397.837314 164.96738 
L 398.162293 156.809841 
L 398.487273 164.96738 
L 398.487273 164.96738 
" clip-path="url(#p3b8503ceb3)" style="fill: none; stroke: #ff7f0e; stroke-width: 1.5; stroke-linecap: square"/>
   </g>
   <g id="line2d_14">
    <path d="M 73.832727 153.152411 
L 76.757543 153.119781 
L 81.307256 153.111623 
L 85.53199 153.013733 
L 87.156888 153.02189 
L 90.731663 153.02189 
L 92.68154 153.013733 
L 101.780966 153.136096 
L 104.055823 153.05452 
L 107.305618 153.111623 
L 110.555414 153.02189 
L 111.530352 153.02189 
L 114.780147 153.08715 
L 119.65484 153.05452 
L 121.279738 153.046363 
L 122.904636 153.046363 
L 125.179492 153.05452 
L 130.379165 153.030048 
L 145.328223 153.136096 
L 148.578018 153.127938 
L 150.202916 153.05452 
L 155.077609 153.070835 
L 158.652383 153.078993 
L 161.902179 153.152411 
L 168.401769 153.095308 
L 169.701687 153.103465 
L 175.876298 153.046363 
L 179.126093 153.02189 
L 180.750991 153.030048 
L 184.000786 153.103465 
L 186.925602 153.127938 
L 189.850418 153.111623 
L 192.450254 153.062678 
L 194.400131 153.119781 
L 198.949844 153.013733 
L 200.574742 153.078993 
L 202.524619 153.095308 
L 204.474496 153.046363 
L 234.047633 153.144253 
L 235.347551 153.176883 
L 237.622408 153.046363 
L 274.995053 153.136096 
L 276.619951 153.168726 
L 284.09448 153.08715 
L 308.142965 152.981102 
L 309.442883 153.038205 
L 312.367699 153.103465 
L 315.292514 153.046363 
L 317.242391 153.08715 
L 323.741982 153.152411 
L 325.691859 153.046363 
L 330.891532 153.070835 
L 334.466306 153.08715 
L 398.487273 153.08715 
L 398.487273 153.08715 
" clip-path="url(#p3b8503ceb3)" style="fill: none; stroke: #2ca02c; stroke-width: 1.5; stroke-linecap: square"/>
   </g>
   <g id="patch_3">
    <path d="M 57.6 307.584 
L 57.6 41.472 
" style="fill: none; stroke: #000000; stroke-width: 0.8; stroke-linejoin: miter; stroke-linecap: square"/>
   </g>
   <g id="patch_4">
    <path d="M 414.72 307.584 
L 414.72 41.472 
" style="fill: none; stroke: #000000; stroke-width: 0.8; stroke-linejoin: miter; stroke-linecap: square"/>
   </g>
   <g id="patch_5">
    <path d="M 57.6 307.584 
L 414.72 307.584 
" style="fill: none; stroke: #000000; stroke-width: 0.8; stroke-linejoin: miter; stroke-linecap: square"/>
   </g>
   <g id="patch_6">
    <path d="M 57.6 41.472 
L 414.72 41.472 
" style="fill: none; stroke: #000000; stroke-width: 0.8; stroke-linejoin: miter; stroke-linecap: square"/>
   </g>
  </g>
 </g>
 <defs>
  <clipPath id="p3b8503ceb3">
   <rect x="57.6" y="41.472" width="357.12" height="266.112"/>
  </clipPath>
 </defs>
</svg>
