<?xml version="1.0" encoding="utf-8" standalone="no"?>
<!DOCTYPE svg PUBLIC "-//W3C//DTD SVG 1.1//EN"
  "http://www.w3.org/Graphics/SVG/1.1/DTD/svg11.dtd">
<svg xmlns:xlink="http://www.w3.org/1999/xlink" width="460.8pt" height="345.6pt" viewBox="0 0 460.8 345.6" xmlns="http://www.w3.org/2000/svg" version="1.1">
 <metadata>
  <rdf:RDF xmlns:dc="http://purl.org/dc/elements/1.1/" xmlns:cc="http://creativecommons.org/ns#" xmlns:rdf="http://www.w3.org/1999/02/22-rdf-syntax-ns#">
   <cc:Work>
    <dc:type rdf:resource="http://purl.org/dc/dcmitype/StillImage"/>
    <dc:date>2025-12-24T05:18:55.549093</dc:date>
    <dc:format>image/svg+xml</dc:format>
    <dc:creator>
     <cc:Agent>
      <dc:title>Matplotlib v3.10.8, https://matplotlib.org/</dc:title>
     </cc:Agent>
    </dc:creator>
   </cc:Work>
  </rdf:RDF>
 </metadata>
 <defs>
  <style type="text/css">*{stroke-linejoin: round; stroke-linecap: butt}</style>
 </defs>
 <g id="figure_1">
  <g id="patch_1">
   <path d="M 0 345.6 
L 460.8 345.6 
L 460.8 0 
L 0 0 
z
" style="fill: #ffffff"/>
  </g>
  <g id="axes_1">
   <g id="patch_2">
    <path d="M 57.6 307.584 
L 414.72 307.584 
L 414.72 41.472 
L 57.6 41.472 
z
" style="fill: #ffffff"/>
   </g>
   <g id="matplotlib.axis_1">
    <g id="xtick_1">
     <g id="line2d_1">
      <defs>
       <path id="m022eaa6cc0" d="M 0 0 
L 0 3.5 
" style="stroke: #000000; stroke-width: 0.8"/>
      </defs>
      <g>
       <use xlink:href="#m022eaa6cc0" x="73.832727" y="307.584" style="stroke: #000000; stroke-width: 0.8"/>
      </g>
     </g>
     <g id="text_1">
      <!-- 0 -->
      <g transform="translate(70.651477 322.182437) scale(0.1 -0.1)">
       <defs>
        <path id="DejaVuSans-30" d="M 2034 4250 
Q 1547 4250 1301 3770 
Q 1056 3291 1056 2328 
Q 1056 1369 1301 889 
Q 1547 409 2034 409 
Q 2525 409 2770 889 
Q 3016 1369 3016 2328 
Q 3016 3291 2770 3770 
Q 2525 4250 2034 4250 
z
M 2034 4750 
Q 2819 4750 3233 4129 
Q 3647 3509 3647 2328 
Q 3647 1150 3233 529 
Q 2819 -91 2034 -91 
Q 1250 -91 836 529 
Q 422 1150 422 2328 
Q 422 3509 836 4129 
Q 1250 4750 2034 4750 
z
" transform="scale(0.015625)"/>
       </defs>
       <use xlink:href="#DejaVuSans-30"/>
      </g>
     </g>
    </g>
    <g id="xtick_2">
     <g id="line2d_2">
      <g>
       <use xlink:href="#m022eaa6cc0" x="138.828632" y="307.584" style="stroke: #000000; stroke-width: 0.8"/>
      </g>
     </g>
     <g id="text_2">
      <!-- 1 -->
      <g transform="translate(135.647382 322.182437) scale(0.1 -0.1)">
       <defs>
        <path id="DejaVuSans-31" d="M 794 531 
L 1825 531 
L 1825 4091 
L 703 3866 
L 703 4441 
L 1819 4666 
L 2450 4666 
L 2450 531 
L 3481 531 
L 3481 0 
L 794 0 
L 794 531 
z
" transform="scale(0.015625)"/>
       </defs>
       <use xlink:href="#DejaVuSans-31"/>
      </g>
     </g>
    </g>
    <g id="xtick_3">
     <g id="line2d_3">
      <g>
       <use xlink:href="#m022eaa6cc0" x="203.824537" y="307.584" style="stroke: #000000; stroke-width: 0.8"/>
      </g>
     </g>
     <g id="text_3">
      <!-- 2 -->
      <g transform="translate(200.643287 322.182437) scale(0.1 -0.1)">
       <defs>
        <path id="DejaVuSans-32" d="M 1228 531 
L 3431 531 
L 3431 0 
L 469 0 
L 469 531 
Q 828 903 1448 1529 
Q 2069 2156 2228 2338 
Q 2531 2678 2651 2914 
Q 2772 3150 2772 3378 
Q 2772 3750 2511 3984 
Q 2250 4219 1831 4219 
Q 1534 4219 1204 4116 
Q 875 4013 500 3803 
L 500 4441 
Q 881 4594 1212 4672 
Q 1544 4750 1819 4750 
Q 2544 4750 2975 4387 
Q 3406 4025 3406 3419 
Q 3406 3131 3298 2873 
Q 3191 2616 2906 2266 
Q 2828 2175 2409 1742 
Q 1991 1309 1228 531 
z
" transform="scale(0.015625)"/>
       </defs>
       <use xlink:href="#DejaVuSans-32"/>
      </g>
     </g>
    </g>
    <g id="xtick_4">
     <g id="line2d_4">
      <g>
       <use xlink:href="#m022eaa6cc0" x="268.820442" y="307.584" style="stroke: #000000; stroke-width: 0.8"/>
      </g>
     </g>
     <g id="text_4">
      <!-- 3 -->
      <g transform="translate(265.639192 322.182437) scale(0.1 -0.1)">
       <defs>
        <path id="DejaVuSans-33" d="M 2597 2516 
Q 3050 2419 3304 2112 
Q 3559 1806 3559 1356 
Q 3559 666 3084 287 
Q 2609 -91 1734 -91 
Q 1441 -91 1130 -33 
Q 819 25 488 141 
L 488 750 
Q 750 597 1062 519 
Q 1375 441 1716 441 
Q 2309 441 2620 675 
Q 2931 909 2931 1356 
Q 2931 1769 2642 2001 
Q 2353 2234 1838 2234 
L 1294 2234 
L 1294 2753 
L 1863 2753 
Q 2328 2753 2575 2939 
Q 2822 3125 2822 3475 
Q 2822 3834 2567 4026 
Q 2313 4219 1838 4219 
Q 1578 4219 1281 4162 
Q 984 4106 628 3988 
L 628 4550 
Q 988 4650 1302 4700 
Q 1616 4750 1894 4750 
Q 2613 4750 3031 4423 
Q 3450 4097 3450 3541 
Q 3450 3153 3228 2886 
Q 3006 2619 2597 2516 
z
" transform="scale(0.015625)"/>
       </defs>
       <use xlink:href="#DejaVuSans-33"/>
      </g>
     </g>
    </g>
    <g id="xtick_5">
     <g id="line2d_5">
      <g>
       <use xlink:href="#m022eaa6cc0" x="333.816347" y="307.584" style="stroke: #000000; stroke-width: 0.8"/>
      </g>
     </g>
     <g id="text_5">
      <!-- 4 -->
      <g transform="translate(330.635097 322.182437) scale(0.1 -0.1)">
       <defs>
        <path id="DejaVuSans-34" d="M 2419 4116 
L 825 1625 
L 2419 1625 
L 2419 4116 
z
M 2253 4666 
L 3047 4666 
L 3047 1625 
L 3713 1625 
L 3713 1100 
L 3047 1100 
L 3047 0 
L 2419 0 
L 2419 1100 
L 313 1100 
L 313 1709 
L 2253 4666 
z
" transform="scale(0.015625)"/>
       </defs>
       <use xlink:href="#DejaVuSans-34"/>
      </g>
     </g>
    </g>
    <g id="xtick_6">
     <g id="line2d_6">
      <g>
       <use xlink:href="#m022eaa6cc0" x="398.812252" y="307.584" style="stroke: #000000; stroke-width: 0.8"/>
      </g>
     </g>
     <g id="text_6">
      <!-- 5 -->
      <g transform="translate(395.631002 322.182437) scale(0.1 -0.1)">
       <defs>
        <path id="DejaVuSans-35" d="M 691 4666 
L 3169 4666 
L 3169 4134 
L 1269 4134 
L 1269 2991 
Q 1406 3038 1543 3061 
Q 1681 3084 1819 3084 
Q 2600 3084 3056 2656 
Q 3513 2228 3513 1497 
Q 3513 744 3044 326 
Q 2575 -91 1722 -91 
Q 1428 -91 1123 -41 
Q 819 9 494 109 
L 494 744 
Q 775 591 1075 516 
Q 1375 441 1709 441 
Q 2250 441 2565 725 
Q 2881 1009 2881 1497 
Q 2881 1984 2565 2268 
Q 2250 2553 1709 2553 
Q 1456 2553 1204 2497 
Q 953 2441 691 2322 
L 691 4666 
z
" transform="scale(0.015625)"/>
       </defs>
       <use xlink:href="#DejaVuSans-35"/>
      </g>
     </g>
    </g>
    <g id="text_7">
     <!-- 1e−7 -->
     <g transform="translate(387.462188 334.860562) scale(0.1 -0.1)">
      <defs>
       <path id="DejaVuSans-65" d="M 3597 1894 
L 3597 1613 
L 953 1613 
Q 991 1019 1311 708 
Q 1631 397 2203 397 
Q 2534 397 2845 478 
Q 3156 559 3463 722 
L 3463 178 
Q 3153 47 2828 -22 
Q 2503 -91 2169 -91 
Q 1331 -91 842 396 
Q 353 884 353 1716 
Q 353 2575 817 3079 
Q 1281 3584 2069 3584 
Q 2775 3584 3186 3129 
Q 3597 2675 3597 1894 
z
M 3022 2063 
Q 3016 2534 2758 2815 
Q 2500 3097 2075 3097 
Q 1594 3097 1305 2825 
Q 1016 2553 972 2059 
L 3022 2063 
z
" transform="scale(0.015625)"/>
       <path id="DejaVuSans-2212" d="M 678 2272 
L 4684 2272 
L 4684 1741 
L 678 1741 
L 678 2272 
z
" transform="scale(0.015625)"/>
       <path id="DejaVuSans-37" d="M 525 4666 
L 3525 4666 
L 3525 4397 
L 1831 0 
L 1172 0 
L 2766 4134 
L 525 4134 
L 525 4666 
z
" transform="scale(0.015625)"/>
      </defs>
      <use xlink:href="#DejaVuSans-31"/>
      <use xlink:href="#DejaVuSans-65" transform="translate(63.623047 0)"/>
      <use xlink:href="#DejaVuSans-2212" transform="translate(125.146484 0)"/>
      <use xlink:href="#DejaVuSans-37" transform="translate(208.935547 0)"/>
     </g>
    </g>
   </g>
   <g id="matplotlib.axis_2">
    <g id="ytick_1">
     <g id="line2d_7">
      <defs>
       <path id="m184fcda153" d="M 0 0 
L -3.5 0 
" style="stroke: #000000; stroke-width: 0.8"/>
      </defs>
      <g>
       <use xlink:href="#m184fcda153" x="57.6" y="278.866661" style="stroke: #000000; stroke-width: 0.8"/>
      </g>
     </g>
     <g id="text_8">
      <!-- −2 -->
      <g transform="translate(35.857813 282.66588) scale(0.1 -0.1)">
       <use xlink:href="#DejaVuSans-2212"/>
       <use xlink:href="#DejaVuSans-32" transform="translate(83.789062 0)"/>
      </g>
     </g>
    </g>
    <g id="ytick_2">
     <g id="line2d_8">
      <g>
       <use xlink:href="#m184fcda153" x="57.6" y="221.944302" style="stroke: #000000; stroke-width: 0.8"/>
      </g>
     </g>
     <g id="text_9">
      <!-- −1 -->
      <g transform="translate(35.857813 225.743521) scale(0.1 -0.1)">
       <use xlink:href="#DejaVuSans-2212"/>
       <use xlink:href="#DejaVuSans-31" transform="translate(83.789062 0)"/>
      </g>
     </g>
    </g>
    <g id="ytick_3">
     <g id="line2d_9">
      <g>
       <use xlink:href="#m184fcda153" x="57.6" y="165.021943" style="stroke: #000000; stroke-width: 0.8"/>
      </g>
     </g>
     <g id="text_10">
      <!-- 0 -->
      <g transform="translate(44.2375 168.821162) scale(0.1 -0.1)">
       <use xlink:href="#DejaVuSans-30"/>
      </g>
     </g>
    </g>
    <g id="ytick_4">
     <g id="line2d_10">
      <g>
       <use xlink:href="#m184fcda153" x="57.6" y="108.099585" style="stroke: #000000; stroke-width: 0.8"/>
      </g>
     </g>
     <g id="text_11">
      <!-- 1 -->
      <g transform="translate(44.2375 111.898803) scale(0.1 -0.1)">
       <use xlink:href="#DejaVuSans-31"/>
      </g>
     </g>
    </g>
    <g id="ytick_5">
     <g id="line2d_11">
      <g>
       <use xlink:href="#m184fcda153" x="57.6" y="51.177226" style="stroke: #000000; stroke-width: 0.8"/>
      </g>
     </g>
     <g id="text_12">
      <!-- 2 -->
      <g transform="translate(44.2375 54.976445) scale(0.1 -0.1)">
       <use xlink:href="#DejaVuSans-32"/>
      </g>
     </g>
    </g>
   </g>
   <g id="line2d_12">
    <path d="M 73.832727 291.930353 
L 74.157707 291.930353 
L 74.482686 295.488 
L 74.807666 288.372706 
L 75.132645 291.930353 
L 75.457625 288.372706 
L 75.782604 291.930353 
L 76.107584 284.815059 
L 76.757543 291.930353 
L 77.082523 288.372706 
L 77.407502 288.372706 
L 77.732482 281.257412 
L 78.057461 277.699765 
L 78.382441 281.257412 
L 78.70742 281.257412 
L 79.0324 274.142118 
L 79.357379 277.699765 
L 80.332318 267.026824 
L 80.657297 267.026824 
L 80.982277 263.469176 
L 81.307256 256.353882 
L 81.957215 256.353882 
L 82.282195 249.238588 
L 82.607174 249.238588 
L 82.932154 245.680941 
L 83.582113 245.680941 
L 83.907093 242.123294 
L 84.232072 235.008 
L 84.557052 235.008 
L 85.207011 227.892706 
L 85.85697 227.892706 
L 86.181949 220.777412 
L 86.831908 220.777412 
L 87.806847 210.104471 
L 88.131826 210.104471 
L 88.456806 206.546824 
L 89.106765 206.546824 
L 89.431744 202.989176 
L 89.756724 202.989176 
L 90.406683 195.873882 
L 90.731663 195.873882 
L 91.056642 199.431529 
L 91.381622 192.316235 
L 92.35656 192.316235 
L 92.68154 185.200941 
L 93.006519 188.758588 
L 93.656478 181.643294 
L 93.981458 185.200941 
L 94.306437 185.200941 
L 94.631417 181.643294 
L 94.956396 185.200941 
L 95.606355 185.200941 
L 95.931335 181.643294 
L 96.256314 181.643294 
L 96.581294 178.085647 
L 97.231253 178.085647 
L 97.556233 181.643294 
L 97.881212 178.085647 
L 98.206192 178.085647 
L 98.531171 174.528 
L 98.856151 174.528 
L 99.18113 178.085647 
L 99.50611 178.085647 
L 99.831089 174.528 
L 100.156069 174.528 
L 100.481048 178.085647 
L 100.806028 174.528 
L 101.131007 178.085647 
L 101.780966 170.970353 
L 102.105946 170.970353 
L 102.430925 167.412706 
L 102.755905 170.970353 
L 103.405864 170.970353 
L 104.055823 163.855059 
L 104.380803 167.412706 
L 104.705782 167.412706 
L 105.030762 160.297412 
L 105.680721 167.412706 
L 106.0057 153.182118 
L 106.33068 156.739765 
L 106.655659 156.739765 
L 107.305618 149.624471 
L 107.955577 149.624471 
L 108.280557 146.066824 
L 108.605536 146.066824 
L 108.930516 142.509176 
L 109.255495 135.393882 
L 109.580475 138.951529 
L 110.230434 131.836235 
L 110.880393 131.836235 
L 111.205373 124.720941 
L 111.530352 128.278588 
L 111.855332 124.720941 
L 112.180311 117.605647 
L 112.83027 117.605647 
L 113.480229 110.490353 
L 113.805209 110.490353 
L 114.455168 103.375059 
L 114.780147 103.375059 
L 115.430106 96.259765 
L 115.755086 99.817412 
L 116.080066 99.817412 
L 116.405045 89.144471 
L 116.730025 92.702118 
L 117.704963 82.029176 
L 118.354922 82.029176 
L 118.679902 74.913882 
L 119.004881 78.471529 
L 119.97982 67.798588 
L 120.304799 71.356235 
L 120.629779 67.798588 
L 121.279738 67.798588 
L 121.929697 60.683294 
L 122.254676 64.240941 
L 122.904636 57.125647 
L 125.179492 57.125647 
L 125.504472 60.683294 
L 125.829451 57.125647 
L 126.47941 64.240941 
L 126.80439 60.683294 
L 127.129369 64.240941 
L 127.779328 64.240941 
L 128.104308 67.798588 
L 128.754267 67.798588 
L 129.079247 71.356235 
L 129.404226 71.356235 
L 129.729206 74.913882 
L 130.054185 74.913882 
L 130.379165 82.029176 
L 130.704144 85.586824 
L 131.029124 85.586824 
L 131.679083 92.702118 
L 132.004062 92.702118 
L 132.654021 99.817412 
L 132.979001 99.817412 
L 134.278919 114.048 
L 134.603898 114.048 
L 134.928878 121.163294 
L 135.253857 121.163294 
L 135.578837 128.278588 
L 135.903817 124.720941 
L 136.228796 128.278588 
L 136.553776 135.393882 
L 136.878755 138.951529 
L 137.203735 135.393882 
L 137.528714 142.509176 
L 137.853694 146.066824 
L 138.503653 146.066824 
L 138.828632 153.182118 
L 139.478591 153.182118 
L 140.12855 160.297412 
L 140.45353 156.739765 
L 140.778509 163.855059 
L 141.428468 163.855059 
L 142.078428 170.970353 
L 142.403407 163.855059 
L 142.728387 170.970353 
L 143.053366 174.528 
L 143.378346 167.412706 
L 143.703325 170.970353 
L 144.028305 170.970353 
L 144.353284 174.528 
L 146.95312 174.528 
L 147.2781 178.085647 
L 147.603079 178.085647 
L 147.928059 181.643294 
L 148.253038 181.643294 
L 148.578018 174.528 
L 149.227977 174.528 
L 149.552957 178.085647 
L 149.877936 174.528 
L 150.202916 181.643294 
L 150.527895 181.643294 
L 150.852875 174.528 
L 151.502834 181.643294 
L 151.827813 178.085647 
L 152.152793 178.085647 
L 152.477772 181.643294 
L 152.802752 178.085647 
L 153.452711 185.200941 
L 154.427649 185.200941 
L 155.077609 192.316235 
L 155.402588 192.316235 
L 155.727568 195.873882 
L 156.052547 192.316235 
L 156.377527 199.431529 
L 157.027486 199.431529 
L 157.677445 206.546824 
L 158.002424 206.546824 
L 158.652383 213.662118 
L 158.977363 210.104471 
L 159.302342 217.219765 
L 159.952301 224.335059 
L 160.277281 224.335059 
L 160.60226 227.892706 
L 160.92724 227.892706 
L 161.252219 231.450353 
L 161.577199 238.565647 
L 162.227158 238.565647 
L 162.877117 252.796235 
L 163.202097 252.796235 
L 163.852056 259.911529 
L 164.177035 259.911529 
L 164.502015 263.469176 
L 164.826994 263.469176 
L 165.151974 270.584471 
L 165.476953 270.584471 
L 166.126912 277.699765 
L 166.451892 277.699765 
L 167.101851 284.815059 
L 167.75181 284.815059 
L 168.07679 291.930353 
L 168.401769 284.815059 
L 168.726749 291.930353 
L 169.051728 288.372706 
L 170.026667 288.372706 
L 170.351646 291.930353 
L 170.676626 288.372706 
L 171.001605 291.930353 
L 171.651564 284.815059 
L 171.976544 288.372706 
L 172.301523 288.372706 
L 172.626503 284.815059 
L 172.951482 284.815059 
L 173.276462 288.372706 
L 173.601441 281.257412 
L 173.926421 284.815059 
L 174.2514 281.257412 
L 174.57638 274.142118 
L 174.90136 274.142118 
L 175.226339 270.584471 
L 175.551319 270.584471 
L 175.876298 267.026824 
L 176.526257 267.026824 
L 176.851237 259.911529 
L 177.501196 252.796235 
L 178.476134 252.796235 
L 178.801114 245.680941 
L 179.126093 242.123294 
L 179.451073 245.680941 
L 179.776052 238.565647 
L 180.101032 235.008 
L 180.426011 238.565647 
L 180.750991 231.450353 
L 181.075971 227.892706 
L 181.40095 227.892706 
L 182.050909 220.777412 
L 182.375889 220.777412 
L 182.700868 217.219765 
L 183.025848 210.104471 
L 183.350827 213.662118 
L 183.675807 213.662118 
L 184.000786 206.546824 
L 184.325766 210.104471 
L 184.650745 210.104471 
L 184.975725 199.431529 
L 185.300704 202.989176 
L 185.625684 199.431529 
L 185.950663 199.431529 
L 186.275643 195.873882 
L 186.600622 195.873882 
L 186.925602 199.431529 
L 187.250581 192.316235 
L 187.900541 192.316235 
L 188.22552 188.758588 
L 188.5505 192.316235 
L 188.875479 192.316235 
L 189.200459 185.200941 
L 189.525438 188.758588 
L 189.850418 188.758588 
L 190.500377 181.643294 
L 190.825356 181.643294 
L 191.150336 185.200941 
L 191.475315 181.643294 
L 191.800295 181.643294 
L 192.125274 185.200941 
L 192.450254 178.085647 
L 192.775233 181.643294 
L 193.100213 181.643294 
L 193.425192 174.528 
L 194.075152 181.643294 
L 194.400131 178.085647 
L 194.725111 178.085647 
L 195.05009 181.643294 
L 195.700049 174.528 
L 196.025029 178.085647 
L 196.350008 174.528 
L 197.324947 174.528 
L 197.649926 170.970353 
L 197.974906 174.528 
L 198.299885 170.970353 
L 198.624865 170.970353 
L 198.949844 167.412706 
L 199.274824 170.970353 
L 199.599803 167.412706 
L 200.249762 167.412706 
L 200.574742 163.855059 
L 200.899722 163.855059 
L 201.224701 160.297412 
L 202.19964 160.297412 
L 202.524619 156.739765 
L 202.849599 149.624471 
L 203.174578 153.182118 
L 203.824537 146.066824 
L 204.474496 146.066824 
L 204.799476 138.951529 
L 205.124455 138.951529 
L 205.449435 142.509176 
L 205.774414 135.393882 
L 206.099394 135.393882 
L 206.749353 128.278588 
L 207.074333 128.278588 
L 207.399312 124.720941 
L 207.724292 124.720941 
L 208.049271 117.605647 
L 208.374251 117.605647 
L 209.02421 110.490353 
L 209.349189 114.048 
L 209.674169 114.048 
L 209.999148 106.932706 
L 210.324128 106.932706 
L 210.649107 103.375059 
L 210.974087 103.375059 
L 211.299066 96.259765 
L 211.624046 96.259765 
L 211.949025 92.702118 
L 212.598984 92.702118 
L 212.923964 85.586824 
L 213.573923 85.586824 
L 214.223882 78.471529 
L 214.873841 78.471529 
L 215.198821 74.913882 
L 215.84878 74.913882 
L 216.173759 67.798588 
L 216.498739 67.798588 
L 216.823718 64.240941 
L 217.473677 64.240941 
L 217.798657 60.683294 
L 218.123636 60.683294 
L 218.448616 53.568 
L 218.773595 60.683294 
L 219.098575 60.683294 
L 219.423554 57.125647 
L 219.748534 57.125647 
L 220.073514 60.683294 
L 220.398493 53.568 
L 221.048452 60.683294 
L 221.373432 57.125647 
L 221.698411 57.125647 
L 222.023391 60.683294 
L 222.34837 60.683294 
L 222.67335 64.240941 
L 222.998329 64.240941 
L 223.323309 67.798588 
L 223.648288 64.240941 
L 223.973268 64.240941 
L 224.298247 67.798588 
L 224.623227 67.798588 
L 224.948206 74.913882 
L 225.273186 74.913882 
L 226.248124 85.586824 
L 226.573104 82.029176 
L 226.898084 85.586824 
L 227.223063 92.702118 
L 227.548043 92.702118 
L 227.873022 96.259765 
L 228.198002 96.259765 
L 229.17294 106.932706 
L 229.49792 106.932706 
L 230.147879 114.048 
L 230.472858 121.163294 
L 230.797838 114.048 
L 231.122817 124.720941 
L 231.447797 124.720941 
L 231.772776 131.836235 
L 232.097756 128.278588 
L 232.422735 138.951529 
L 232.747715 138.951529 
L 233.072695 142.509176 
L 233.397674 142.509176 
L 233.722654 146.066824 
L 234.047633 142.509176 
L 234.372613 149.624471 
L 234.697592 153.182118 
L 235.022572 153.182118 
L 235.347551 156.739765 
L 235.672531 156.739765 
L 235.99751 160.297412 
L 236.32249 156.739765 
L 236.647469 163.855059 
L 237.297428 163.855059 
L 237.622408 167.412706 
L 238.272367 167.412706 
L 238.597346 170.970353 
L 238.922326 170.970353 
L 239.247305 167.412706 
L 239.572285 174.528 
L 241.197183 174.528 
L 241.847142 181.643294 
L 242.172121 178.085647 
L 243.14706 178.085647 
L 243.472039 181.643294 
L 243.797019 181.643294 
L 244.121998 178.085647 
L 245.421916 178.085647 
L 245.746896 181.643294 
L 246.071876 181.643294 
L 246.396855 178.085647 
L 247.046814 185.200941 
L 247.371794 178.085647 
L 247.696773 181.643294 
L 248.021753 178.085647 
L 248.671712 185.200941 
L 249.321671 185.200941 
L 249.64665 181.643294 
L 250.296609 188.758588 
L 250.946568 188.758588 
L 251.271548 195.873882 
L 251.596527 192.316235 
L 252.246486 199.431529 
L 252.896446 199.431529 
L 253.871384 210.104471 
L 254.521343 210.104471 
L 255.496282 220.777412 
L 255.821261 217.219765 
L 256.146241 227.892706 
L 256.7962 227.892706 
L 257.121179 235.008 
L 257.771138 242.123294 
L 258.096118 242.123294 
L 259.396036 256.353882 
L 260.045995 256.353882 
L 260.370975 263.469176 
L 260.695954 267.026824 
L 261.020934 267.026824 
L 261.345913 270.584471 
L 261.670893 277.699765 
L 261.995872 274.142118 
L 262.320852 281.257412 
L 262.645831 284.815059 
L 262.970811 281.257412 
L 263.62077 288.372706 
L 264.595708 288.372706 
L 264.920688 291.930353 
L 265.245667 288.372706 
L 265.570647 291.930353 
L 265.895627 291.930353 
L 266.220606 288.372706 
L 266.545586 291.930353 
L 266.870565 291.930353 
L 267.195545 288.372706 
L 267.520524 288.372706 
L 267.845504 291.930353 
L 268.495463 284.815059 
L 269.145422 284.815059 
L 269.470401 281.257412 
L 269.795381 281.257412 
L 270.44534 274.142118 
L 270.770319 277.699765 
L 271.095299 274.142118 
L 271.420278 267.026824 
L 271.745258 270.584471 
L 272.070238 270.584471 
L 272.395217 263.469176 
L 272.720197 267.026824 
L 273.045176 263.469176 
L 273.370156 256.353882 
L 274.020115 249.238588 
L 274.345094 252.796235 
L 274.995053 245.680941 
L 275.320033 245.680941 
L 275.645012 238.565647 
L 275.969992 235.008 
L 276.294971 235.008 
L 276.619951 231.450353 
L 277.26991 231.450353 
L 277.594889 224.335059 
L 278.244848 224.335059 
L 278.569828 217.219765 
L 278.894808 217.219765 
L 279.219787 213.662118 
L 279.869746 213.662118 
L 280.194726 206.546824 
L 280.519705 206.546824 
L 280.844685 199.431529 
L 281.169664 206.546824 
L 281.494644 202.989176 
L 281.819623 195.873882 
L 282.144603 199.431529 
L 282.794562 192.316235 
L 283.119541 195.873882 
L 283.444521 195.873882 
L 283.7695 188.758588 
L 284.744439 188.758588 
L 285.069419 185.200941 
L 285.394398 188.758588 
L 286.044357 181.643294 
L 286.369337 185.200941 
L 287.019296 178.085647 
L 287.344275 181.643294 
L 287.669255 181.643294 
L 287.994234 178.085647 
L 288.319214 181.643294 
L 288.969173 181.643294 
L 289.294152 178.085647 
L 289.619132 181.643294 
L 289.944111 178.085647 
L 290.91905 178.085647 
L 291.244029 174.528 
L 291.569009 178.085647 
L 291.893989 178.085647 
L 292.218968 174.528 
L 292.543948 174.528 
L 292.868927 178.085647 
L 293.193907 174.528 
L 293.518886 178.085647 
L 293.843866 174.528 
L 294.493825 174.528 
L 294.818804 170.970353 
L 295.143784 170.970353 
L 295.468763 167.412706 
L 295.793743 170.970353 
L 296.443702 163.855059 
L 297.093661 163.855059 
L 297.41864 160.297412 
L 297.74362 163.855059 
L 298.0686 163.855059 
L 298.393579 153.182118 
L 298.718559 156.739765 
L 299.368518 149.624471 
L 299.693497 149.624471 
L 300.018477 146.066824 
L 300.343456 146.066824 
L 300.668436 142.509176 
L 300.993415 142.509176 
L 301.643374 135.393882 
L 301.968354 135.393882 
L 302.293333 131.836235 
L 302.618313 131.836235 
L 302.943292 128.278588 
L 303.268272 128.278588 
L 303.593251 121.163294 
L 303.918231 124.720941 
L 304.24321 121.163294 
L 304.56819 114.048 
L 305.218149 114.048 
L 305.543129 110.490353 
L 305.868108 110.490353 
L 306.193088 106.932706 
L 306.518067 106.932706 
L 306.843047 103.375059 
L 307.168026 103.375059 
L 308.142965 92.702118 
L 308.467944 96.259765 
L 308.792924 89.144471 
L 309.117903 92.702118 
L 310.417821 78.471529 
L 310.742801 78.471529 
L 311.067781 74.913882 
L 311.39276 74.913882 
L 312.042719 67.798588 
L 312.367699 71.356235 
L 313.017658 64.240941 
L 313.342637 67.798588 
L 313.992596 60.683294 
L 314.642555 60.683294 
L 314.967535 57.125647 
L 316.267453 57.125647 
L 316.592432 60.683294 
L 317.242391 53.568 
L 317.567371 60.683294 
L 317.892351 57.125647 
L 318.21733 57.125647 
L 318.867289 64.240941 
L 319.192269 60.683294 
L 319.842228 67.798588 
L 320.167207 64.240941 
L 320.817166 71.356235 
L 321.142146 71.356235 
L 321.792105 78.471529 
L 322.117084 78.471529 
L 323.417002 92.702118 
L 323.741982 92.702118 
L 324.066962 99.817412 
L 324.391941 99.817412 
L 325.36688 110.490353 
L 325.691859 110.490353 
L 326.341818 117.605647 
L 326.666798 117.605647 
L 326.991777 124.720941 
L 327.641736 124.720941 
L 327.966716 131.836235 
L 328.291695 135.393882 
L 328.616675 135.393882 
L 328.941654 138.951529 
L 329.266634 146.066824 
L 329.591613 142.509176 
L 330.241572 149.624471 
L 330.566552 149.624471 
L 331.216511 156.739765 
L 331.541491 156.739765 
L 331.86647 160.297412 
L 332.841409 160.297412 
L 333.166388 167.412706 
L 334.141327 167.412706 
L 334.466306 174.528 
L 334.791286 170.970353 
L 335.441245 178.085647 
L 335.766224 170.970353 
L 336.091204 174.528 
L 336.416183 174.528 
L 336.741163 178.085647 
L 338.366061 178.085647 
L 338.69104 181.643294 
L 339.01602 178.085647 
L 339.340999 181.643294 
L 339.665979 181.643294 
L 339.990958 178.085647 
L 340.315938 178.085647 
L 340.640917 185.200941 
L 340.965897 178.085647 
L 341.290876 178.085647 
L 341.615856 181.643294 
L 341.940835 178.085647 
L 342.265815 181.643294 
L 342.915774 181.643294 
L 343.240753 178.085647 
L 343.565733 181.643294 
L 344.215692 181.643294 
L 344.540672 185.200941 
L 344.865651 185.200941 
L 345.190631 181.643294 
L 345.84059 188.758588 
L 346.165569 185.200941 
L 346.490549 185.200941 
L 346.815528 192.316235 
L 347.465487 192.316235 
L 347.790467 195.873882 
L 348.440426 195.873882 
L 348.765405 202.989176 
L 349.090385 206.546824 
L 349.415364 199.431529 
L 349.740344 210.104471 
L 350.390303 210.104471 
L 350.715283 217.219765 
L 351.040262 220.777412 
L 351.365242 217.219765 
L 352.66516 231.450353 
L 352.990139 231.450353 
L 353.315119 238.565647 
L 353.640098 235.008 
L 354.290057 249.238588 
L 354.615037 245.680941 
L 355.264996 259.911529 
L 355.589975 256.353882 
L 355.914955 259.911529 
L 356.239934 267.026824 
L 356.889894 267.026824 
L 357.214873 274.142118 
L 357.539853 277.699765 
L 357.864832 277.699765 
L 358.189812 281.257412 
L 358.839771 281.257412 
L 359.48973 288.372706 
L 359.814709 284.815059 
L 360.139689 291.930353 
L 360.464668 291.930353 
L 360.789648 288.372706 
L 361.114627 291.930353 
L 361.439607 288.372706 
L 361.764586 291.930353 
L 362.739525 291.930353 
L 363.064505 288.372706 
L 363.389484 291.930353 
L 363.714464 288.372706 
L 364.039443 281.257412 
L 364.689402 288.372706 
L 365.014382 281.257412 
L 366.3143 281.257412 
L 367.289238 270.584471 
L 367.614218 270.584471 
L 368.264177 263.469176 
L 368.589156 263.469176 
L 369.239115 256.353882 
L 369.564095 256.353882 
L 369.889075 252.796235 
L 370.214054 245.680941 
L 370.539034 249.238588 
L 370.864013 249.238588 
L 371.188993 242.123294 
L 371.513972 242.123294 
L 372.488911 231.450353 
L 372.81389 231.450353 
L 373.463849 224.335059 
L 373.788829 224.335059 
L 374.763767 213.662118 
L 375.088747 213.662118 
L 375.413726 210.104471 
L 375.738706 210.104471 
L 376.063686 206.546824 
L 377.038624 206.546824 
L 377.363604 199.431529 
L 377.688583 199.431529 
L 378.013563 202.989176 
L 378.338542 195.873882 
L 379.313481 195.873882 
L 379.63846 188.758588 
L 379.96344 192.316235 
L 380.288419 188.758588 
L 380.613399 188.758588 
L 380.938378 185.200941 
L 381.263358 188.758588 
L 381.913317 181.643294 
L 382.238296 185.200941 
L 382.563276 181.643294 
L 384.513153 181.643294 
L 384.838133 178.085647 
L 385.163112 181.643294 
L 385.488092 178.085647 
L 386.138051 178.085647 
L 386.46303 181.643294 
L 386.78801 178.085647 
L 387.112989 178.085647 
L 387.437969 181.643294 
L 388.087928 174.528 
L 388.737887 174.528 
L 389.062867 170.970353 
L 389.387846 170.970353 
L 389.712826 174.528 
L 390.037805 167.412706 
L 390.362785 170.970353 
L 391.012744 170.970353 
L 391.337723 167.412706 
L 391.662703 170.970353 
L 391.987682 163.855059 
L 392.962621 163.855059 
L 393.2876 156.739765 
L 393.61258 160.297412 
L 393.937559 156.739765 
L 394.262539 156.739765 
L 395.237477 146.066824 
L 395.562457 149.624471 
L 396.212416 142.509176 
L 396.537396 142.509176 
L 396.862375 146.066824 
L 397.187355 135.393882 
L 397.837314 135.393882 
L 398.162293 128.278588 
L 398.487273 124.720941 
L 398.487273 124.720941 
" clip-path="url(#p088e0ca9bb)" style="fill: none; stroke: #1f77b4; stroke-width: 1.5; stroke-linecap: square"/>
   </g>
   <g id="patch_3">
    <path d="M 57.6 307.584 
L 57.6 41.472 
" style="fill: none; stroke: #000000; stroke-width: 0.8; stroke-linejoin: miter; stroke-linecap: square"/>
   </g>
   <g id="patch_4">
    <path d="M 414.72 307.584 
L 414.72 41.472 
" style="fill: none; stroke: #000000; stroke-width: 0.8; stroke-linejoin: miter; stroke-linecap: square"/>
   </g>
   <g id="patch_5">
    <path d="M 57.6 307.584 
L 414.72 307.584 
" style="fill: none; stroke: #000000; stroke-width: 0.8; stroke-linejoin: miter; stroke-linecap: square"/>
   </g>
   <g id="patch_6">
    <path d="M 57.6 41.472 
L 414.72 41.472 
" style="fill: none; stroke: #000000; stroke-width: 0.8; stroke-linejoin: miter; stroke-linecap: square"/>
   </g>
  </g>
 </g>
 <defs>
  <clipPath id="p088e0ca9bb">
   <rect x="57.6" y="41.472" width="357.12" height="266.112"/>
  </clipPath>
 </defs>
</svg>
