<?xml version="1.0" encoding="utf-8" standalone="no"?>
<!DOCTYPE svg PUBLIC "-//W3C//DTD SVG 1.1//EN"
  "http://www.w3.org/Graphics/SVG/1.1/DTD/svg11.dtd">
<svg xmlns:xlink="http://www.w3.org/1999/xlink" width="460.8pt" height="345.6pt" viewBox="0 0 460.8 345.6" xmlns="http://www.w3.org/2000/svg" version="1.1">
 <metadata>
  <rdf:RDF xmlns:dc="http://purl.org/dc/elements/1.1/" xmlns:cc="http://creativecommons.org/ns#" xmlns:rdf="http://www.w3.org/1999/02/22-rdf-syntax-ns#">
   <cc:Work>
    <dc:type rdf:resource="http://purl.org/dc/dcmitype/StillImage"/>
    <dc:date>2025-12-31T12:44:04.770771</dc:date>
    <dc:format>image/svg+xml</dc:format>
    <dc:creator>
     <cc:Agent>
      <dc:title>Matplotlib v3.10.8, https://matplotlib.org/</dc:title>
     </cc:Agent>
    </dc:creator>
   </cc:Work>
  </rdf:RDF>
 </metadata>
 <defs>
  <style type="text/css">*{stroke-linejoin: round; stroke-linecap: butt}</style>
 </defs>
 <g id="figure_1">
  <g id="patch_1">
   <path d="M 0 345.6 
L 460.8 345.6 
L 460.8 0 
L 0 0 
z
" style="fill: #ffffff"/>
  </g>
  <g id="axes_1">
   <g id="patch_2">
    <path d="M 57.6 307.584 
L 414.72 307.584 
L 414.72 41.472 
L 57.6 41.472 
z
" style="fill: #ffffff"/>
   </g>
   <g id="matplotlib.axis_1">
    <g id="xtick_1">
     <g id="line2d_1">
      <defs>
       <path id="m48452e08e0" d="M 0 0 
L 0 3.5 
" style="stroke: #000000; stroke-width: 0.8"/>
      </defs>
      <g>
       <use xlink:href="#m48452e08e0" x="73.832727" y="307.584" style="stroke: #000000; stroke-width: 0.8"/>
      </g>
     </g>
     <g id="text_1">
      <!-- 0 -->
      <g transform="translate(70.651477 322.182437) scale(0.1 -0.1)">
       <defs>
        <path id="DejaVuSans-30" d="M 2034 4250 
Q 1547 4250 1301 3770 
Q 1056 3291 1056 2328 
Q 1056 1369 1301 889 
Q 1547 409 2034 409 
Q 2525 409 2770 889 
Q 3016 1369 3016 2328 
Q 3016 3291 2770 3770 
Q 2525 4250 2034 4250 
z
M 2034 4750 
Q 2819 4750 3233 4129 
Q 3647 3509 3647 2328 
Q 3647 1150 3233 529 
Q 2819 -91 2034 -91 
Q 1250 -91 836 529 
Q 422 1150 422 2328 
Q 422 3509 836 4129 
Q 1250 4750 2034 4750 
z
" transform="scale(0.015625)"/>
       </defs>
       <use xlink:href="#DejaVuSans-30"/>
      </g>
     </g>
    </g>
    <g id="xtick_2">
     <g id="line2d_2">
      <g>
       <use xlink:href="#m48452e08e0" x="138.828632" y="307.584" style="stroke: #000000; stroke-width: 0.8"/>
      </g>
     </g>
     <g id="text_2">
      <!-- 1 -->
      <g transform="translate(135.647382 322.182437) scale(0.1 -0.1)">
       <defs>
        <path id="DejaVuSans-31" d="M 794 531 
L 1825 531 
L 1825 4091 
L 703 3866 
L 703 4441 
L 1819 4666 
L 2450 4666 
L 2450 531 
L 3481 531 
L 3481 0 
L 794 0 
L 794 531 
z
" transform="scale(0.015625)"/>
       </defs>
       <use xlink:href="#DejaVuSans-31"/>
      </g>
     </g>
    </g>
    <g id="xtick_3">
     <g id="line2d_3">
      <g>
       <use xlink:href="#m48452e08e0" x="203.824537" y="307.584" style="stroke: #000000; stroke-width: 0.8"/>
      </g>
     </g>
     <g id="text_3">
      <!-- 2 -->
      <g transform="translate(200.643287 322.182437) scale(0.1 -0.1)">
       <defs>
        <path id="DejaVuSans-32" d="M 1228 531 
L 3431 531 
L 3431 0 
L 469 0 
L 469 531 
Q 828 903 1448 1529 
Q 2069 2156 2228 2338 
Q 2531 2678 2651 2914 
Q 2772 3150 2772 3378 
Q 2772 3750 2511 3984 
Q 2250 4219 1831 4219 
Q 1534 4219 1204 4116 
Q 875 4013 500 3803 
L 500 4441 
Q 881 4594 1212 4672 
Q 1544 4750 1819 4750 
Q 2544 4750 2975 4387 
Q 3406 4025 3406 3419 
Q 3406 3131 3298 2873 
Q 3191 2616 2906 2266 
Q 2828 2175 2409 1742 
Q 1991 1309 1228 531 
z
" transform="scale(0.015625)"/>
       </defs>
       <use xlink:href="#DejaVuSans-32"/>
      </g>
     </g>
    </g>
    <g id="xtick_4">
     <g id="line2d_4">
      <g>
       <use xlink:href="#m48452e08e0" x="268.820442" y="307.584" style="stroke: #000000; stroke-width: 0.8"/>
      </g>
     </g>
     <g id="text_4">
      <!-- 3 -->
      <g transform="translate(265.639192 322.182437) scale(0.1 -0.1)">
       <defs>
        <path id="DejaVuSans-33" d="M 2597 2516 
Q 3050 2419 3304 2112 
Q 3559 1806 3559 1356 
Q 3559 666 3084 287 
Q 2609 -91 1734 -91 
Q 1441 -91 1130 -33 
Q 819 25 488 141 
L 488 750 
Q 750 597 1062 519 
Q 1375 441 1716 441 
Q 2309 441 2620 675 
Q 2931 909 2931 1356 
Q 2931 1769 2642 2001 
Q 2353 2234 1838 2234 
L 1294 2234 
L 1294 2753 
L 1863 2753 
Q 2328 2753 2575 2939 
Q 2822 3125 2822 3475 
Q 2822 3834 2567 4026 
Q 2313 4219 1838 4219 
Q 1578 4219 1281 4162 
Q 984 4106 628 3988 
L 628 4550 
Q 988 4650 1302 4700 
Q 1616 4750 1894 4750 
Q 2613 4750 3031 4423 
Q 3450 4097 3450 3541 
Q 3450 3153 3228 2886 
Q 3006 2619 2597 2516 
z
" transform="scale(0.015625)"/>
       </defs>
       <use xlink:href="#DejaVuSans-33"/>
      </g>
     </g>
    </g>
    <g id="xtick_5">
     <g id="line2d_5">
      <g>
       <use xlink:href="#m48452e08e0" x="333.816347" y="307.584" style="stroke: #000000; stroke-width: 0.8"/>
      </g>
     </g>
     <g id="text_5">
      <!-- 4 -->
      <g transform="translate(330.635097 322.182437) scale(0.1 -0.1)">
       <defs>
        <path id="DejaVuSans-34" d="M 2419 4116 
L 825 1625 
L 2419 1625 
L 2419 4116 
z
M 2253 4666 
L 3047 4666 
L 3047 1625 
L 3713 1625 
L 3713 1100 
L 3047 1100 
L 3047 0 
L 2419 0 
L 2419 1100 
L 313 1100 
L 313 1709 
L 2253 4666 
z
" transform="scale(0.015625)"/>
       </defs>
       <use xlink:href="#DejaVuSans-34"/>
      </g>
     </g>
    </g>
    <g id="xtick_6">
     <g id="line2d_6">
      <g>
       <use xlink:href="#m48452e08e0" x="398.812252" y="307.584" style="stroke: #000000; stroke-width: 0.8"/>
      </g>
     </g>
     <g id="text_6">
      <!-- 5 -->
      <g transform="translate(395.631002 322.182437) scale(0.1 -0.1)">
       <defs>
        <path id="DejaVuSans-35" d="M 691 4666 
L 3169 4666 
L 3169 4134 
L 1269 4134 
L 1269 2991 
Q 1406 3038 1543 3061 
Q 1681 3084 1819 3084 
Q 2600 3084 3056 2656 
Q 3513 2228 3513 1497 
Q 3513 744 3044 326 
Q 2575 -91 1722 -91 
Q 1428 -91 1123 -41 
Q 819 9 494 109 
L 494 744 
Q 775 591 1075 516 
Q 1375 441 1709 441 
Q 2250 441 2565 725 
Q 2881 1009 2881 1497 
Q 2881 1984 2565 2268 
Q 2250 2553 1709 2553 
Q 1456 2553 1204 2497 
Q 953 2441 691 2322 
L 691 4666 
z
" transform="scale(0.015625)"/>
       </defs>
       <use xlink:href="#DejaVuSans-35"/>
      </g>
     </g>
    </g>
    <g id="text_7">
     <!-- 1e−7 -->
     <g transform="translate(387.462188 334.860562) scale(0.1 -0.1)">
      <defs>
       <path id="DejaVuSans-65" d="M 3597 1894 
L 3597 1613 
L 953 1613 
Q 991 1019 1311 708 
Q 1631 397 2203 397 
Q 2534 397 2845 478 
Q 3156 559 3463 722 
L 3463 178 
Q 3153 47 2828 -22 
Q 2503 -91 2169 -91 
Q 1331 -91 842 396 
Q 353 884 353 1716 
Q 353 2575 817 3079 
Q 1281 3584 2069 3584 
Q 2775 3584 3186 3129 
Q 3597 2675 3597 1894 
z
M 3022 2063 
Q 3016 2534 2758 2815 
Q 2500 3097 2075 3097 
Q 1594 3097 1305 2825 
Q 1016 2553 972 2059 
L 3022 2063 
z
" transform="scale(0.015625)"/>
       <path id="DejaVuSans-2212" d="M 678 2272 
L 4684 2272 
L 4684 1741 
L 678 1741 
L 678 2272 
z
" transform="scale(0.015625)"/>
       <path id="DejaVuSans-37" d="M 525 4666 
L 3525 4666 
L 3525 4397 
L 1831 0 
L 1172 0 
L 2766 4134 
L 525 4134 
L 525 4666 
z
" transform="scale(0.015625)"/>
      </defs>
      <use xlink:href="#DejaVuSans-31"/>
      <use xlink:href="#DejaVuSans-65" transform="translate(63.623047 0)"/>
      <use xlink:href="#DejaVuSans-2212" transform="translate(125.146484 0)"/>
      <use xlink:href="#DejaVuSans-37" transform="translate(208.935547 0)"/>
     </g>
    </g>
   </g>
   <g id="matplotlib.axis_2">
    <g id="ytick_1">
     <g id="line2d_7">
      <defs>
       <path id="ma26b6fae4b" d="M 0 0 
L -3.5 0 
" style="stroke: #000000; stroke-width: 0.8"/>
      </defs>
      <g>
       <use xlink:href="#ma26b6fae4b" x="57.6" y="299.350892" style="stroke: #000000; stroke-width: 0.8"/>
      </g>
     </g>
     <g id="text_8">
      <!-- 0 -->
      <g transform="translate(44.2375 303.150111) scale(0.1 -0.1)">
       <use xlink:href="#DejaVuSans-30"/>
      </g>
     </g>
    </g>
    <g id="ytick_2">
     <g id="line2d_8">
      <g>
       <use xlink:href="#ma26b6fae4b" x="57.6" y="247.584239" style="stroke: #000000; stroke-width: 0.8"/>
      </g>
     </g>
     <g id="text_9">
      <!-- 10 -->
      <g transform="translate(37.875 251.383458) scale(0.1 -0.1)">
       <use xlink:href="#DejaVuSans-31"/>
       <use xlink:href="#DejaVuSans-30" transform="translate(63.623047 0)"/>
      </g>
     </g>
    </g>
    <g id="ytick_3">
     <g id="line2d_9">
      <g>
       <use xlink:href="#ma26b6fae4b" x="57.6" y="195.817586" style="stroke: #000000; stroke-width: 0.8"/>
      </g>
     </g>
     <g id="text_10">
      <!-- 20 -->
      <g transform="translate(37.875 199.616805) scale(0.1 -0.1)">
       <use xlink:href="#DejaVuSans-32"/>
       <use xlink:href="#DejaVuSans-30" transform="translate(63.623047 0)"/>
      </g>
     </g>
    </g>
    <g id="ytick_4">
     <g id="line2d_10">
      <g>
       <use xlink:href="#ma26b6fae4b" x="57.6" y="144.050933" style="stroke: #000000; stroke-width: 0.8"/>
      </g>
     </g>
     <g id="text_11">
      <!-- 30 -->
      <g transform="translate(37.875 147.850152) scale(0.1 -0.1)">
       <use xlink:href="#DejaVuSans-33"/>
       <use xlink:href="#DejaVuSans-30" transform="translate(63.623047 0)"/>
      </g>
     </g>
    </g>
    <g id="ytick_5">
     <g id="line2d_11">
      <g>
       <use xlink:href="#ma26b6fae4b" x="57.6" y="92.28428" style="stroke: #000000; stroke-width: 0.8"/>
      </g>
     </g>
     <g id="text_12">
      <!-- 40 -->
      <g transform="translate(37.875 96.083499) scale(0.1 -0.1)">
       <use xlink:href="#DejaVuSans-34"/>
       <use xlink:href="#DejaVuSans-30" transform="translate(63.623047 0)"/>
      </g>
     </g>
    </g>
   </g>
   <g id="line2d_12">
    <path d="M 73.832727 170.065617 
L 74.807666 169.418534 
L 76.107584 170.065617 
L 76.432563 169.984732 
L 77.082523 169.418534 
L 77.407502 169.580305 
L 78.057461 169.499419 
L 78.70742 169.256763 
L 79.0324 169.337649 
L 79.357379 169.580305 
L 79.682359 169.499419 
L 80.007338 169.014107 
L 80.657297 168.771451 
L 80.982277 168.852336 
L 81.307256 169.175878 
L 81.632236 169.337649 
L 81.957215 169.256763 
L 82.282195 169.014107 
L 83.582113 168.933222 
L 83.907093 168.771451 
L 84.232072 168.771451 
L 85.207011 169.418534 
L 86.181949 169.175878 
L 86.506929 169.256763 
L 86.831908 169.175878 
L 87.481867 168.367024 
L 88.131826 168.367024 
L 88.781785 168.933222 
L 89.106765 169.014107 
L 89.756724 168.852336 
L 90.731663 169.014107 
L 91.056642 168.852336 
L 91.381622 168.933222 
L 91.706601 168.852336 
L 92.031581 169.014107 
L 92.35656 168.933222 
L 92.68154 168.447909 
L 93.006519 168.205253 
L 93.331499 168.205253 
L 93.981458 168.447909 
L 94.956396 168.690565 
L 95.281376 168.933222 
L 95.931335 168.933222 
L 96.906274 168.367024 
L 97.231253 168.60968 
L 97.556233 168.60968 
L 97.881212 168.286138 
L 98.206192 168.205253 
L 98.531171 168.286138 
L 99.18113 168.852336 
L 99.50611 168.771451 
L 99.831089 168.205253 
L 100.156069 167.881711 
L 100.481048 168.124368 
L 101.131007 168.933222 
L 101.455987 168.528795 
L 101.780966 167.639055 
L 102.105946 167.153743 
L 102.430925 167.153743 
L 102.755905 167.719941 
L 103.080885 167.962597 
L 103.405864 167.719941 
L 103.730844 167.072857 
L 104.055823 167.072857 
L 104.705782 168.528795 
L 105.030762 168.690565 
L 106.0057 167.55817 
L 106.655659 168.286138 
L 106.980639 168.124368 
L 107.305618 167.639055 
L 107.630598 167.477284 
L 107.955577 167.55817 
L 108.280557 167.800826 
L 108.605536 167.800826 
L 108.930516 167.639055 
L 109.255495 167.881711 
L 109.905455 168.528795 
L 110.230434 168.205253 
L 110.555414 167.55817 
L 110.880393 167.234628 
L 111.205373 167.477284 
L 111.530352 168.124368 
L 111.855332 168.447909 
L 112.180311 168.124368 
L 112.505291 167.55817 
L 112.83027 167.477284 
L 113.480229 168.205253 
L 113.805209 168.60968 
L 114.780147 168.286138 
L 115.105127 168.124368 
L 115.755086 167.55817 
L 116.405045 167.800826 
L 116.730025 168.124368 
L 117.055004 168.205253 
L 117.704963 167.800826 
L 118.029943 167.962597 
L 118.679902 168.60968 
L 119.004881 168.771451 
L 119.65484 168.205253 
L 120.629779 168.852336 
L 120.954758 168.60968 
L 121.279738 168.124368 
L 121.604717 167.881711 
L 121.929697 167.881711 
L 122.579656 168.690565 
L 122.904636 168.852336 
L 123.554595 168.528795 
L 123.879574 168.690565 
L 124.204554 169.094992 
L 124.854513 169.337649 
L 125.504472 168.771451 
L 126.154431 168.205253 
L 126.80439 168.043482 
L 127.129369 168.367024 
L 127.779328 169.337649 
L 128.429287 169.094992 
L 128.754267 168.933222 
L 129.079247 169.094992 
L 129.404226 169.580305 
L 129.729206 169.580305 
L 130.054185 169.418534 
L 130.704144 168.528795 
L 131.029124 168.447909 
L 131.354103 168.690565 
L 132.004062 169.337649 
L 132.329042 169.66119 
L 132.979001 169.822961 
L 133.62896 169.418534 
L 133.953939 169.175878 
L 134.278919 169.094992 
L 134.603898 169.256763 
L 135.903817 169.014107 
L 136.878755 169.984732 
L 137.203735 169.903846 
L 137.853694 170.065617 
L 138.178673 170.308273 
L 138.503653 170.227388 
L 139.478591 169.175878 
L 139.803571 169.418534 
L 140.45353 169.66119 
L 140.778509 169.499419 
L 141.103489 169.580305 
L 141.753448 170.065617 
L 142.078428 170.065617 
L 142.728387 169.66119 
L 143.053366 169.742076 
L 143.703325 169.499419 
L 144.028305 169.499419 
L 144.678264 169.903846 
L 145.653202 170.874471 
L 146.95312 171.117127 
L 147.2781 170.7127 
L 147.603079 170.065617 
L 147.928059 169.822961 
L 148.578018 169.742076 
L 150.202916 170.470044 
L 150.527895 170.470044 
L 150.852875 170.7127 
L 151.502834 170.7127 
L 151.827813 170.470044 
L 152.152793 170.389159 
L 152.477772 170.146503 
L 152.802752 170.065617 
L 153.127731 170.470044 
L 153.452711 170.631815 
L 153.77769 170.631815 
L 154.10267 170.470044 
L 154.752629 170.631815 
L 155.077609 170.874471 
L 155.402588 171.278898 
L 156.052547 170.55093 
L 156.377527 170.146503 
L 156.702506 170.065617 
L 157.027486 170.308273 
L 157.352465 170.389159 
L 157.677445 170.308273 
L 158.002424 169.903846 
L 158.652383 170.146503 
L 159.302342 170.874471 
L 159.627322 170.874471 
L 160.92724 170.227388 
L 161.252219 170.227388 
L 161.902179 170.470044 
L 162.877117 170.389159 
L 163.202097 170.146503 
L 163.527076 170.146503 
L 164.177035 170.631815 
L 164.502015 170.7127 
L 164.826994 170.631815 
L 165.151974 170.308273 
L 165.476953 169.742076 
L 166.126912 169.499419 
L 167.101851 169.984732 
L 167.75181 169.903846 
L 169.051728 170.55093 
L 169.376708 170.389159 
L 170.026667 169.742076 
L 170.676626 169.499419 
L 171.001605 169.499419 
L 171.651564 169.984732 
L 171.976544 170.065617 
L 172.301523 169.984732 
L 172.951482 169.418534 
L 173.601441 169.580305 
L 173.926421 169.499419 
L 174.2514 169.256763 
L 174.57638 169.175878 
L 175.226339 169.499419 
L 175.551319 169.418534 
L 176.201278 168.771451 
L 176.526257 168.60968 
L 176.851237 168.933222 
L 177.176216 169.094992 
L 177.501196 169.418534 
L 177.826175 169.256763 
L 178.151155 168.933222 
L 179.126093 169.094992 
L 179.776052 168.690565 
L 180.101032 168.771451 
L 180.750991 169.337649 
L 181.72593 169.256763 
L 182.700868 169.014107 
L 183.350827 168.367024 
L 183.675807 168.205253 
L 184.000786 168.367024 
L 184.650745 169.014107 
L 184.975725 169.094992 
L 185.625684 168.852336 
L 186.600622 169.094992 
L 187.575561 168.852336 
L 187.900541 168.933222 
L 188.22552 168.852336 
L 188.875479 168.205253 
L 189.525438 168.286138 
L 190.175397 168.528795 
L 190.500377 168.528795 
L 191.150336 168.933222 
L 192.125274 168.60968 
L 192.450254 168.367024 
L 192.775233 168.286138 
L 193.100213 168.447909 
L 193.425192 168.447909 
L 193.750172 168.286138 
L 194.400131 168.286138 
L 195.05009 168.852336 
L 195.37507 168.771451 
L 196.025029 167.962597 
L 196.350008 168.124368 
L 196.999967 168.933222 
L 197.324947 168.60968 
L 197.974906 167.072857 
L 198.299885 167.153743 
L 198.949844 168.124368 
L 199.924783 167.072857 
L 200.899722 168.852336 
L 201.87466 167.477284 
L 202.524619 168.286138 
L 202.849599 168.124368 
L 203.174578 167.55817 
L 203.499558 167.315514 
L 204.474496 167.800826 
L 204.799476 167.719941 
L 205.124455 167.881711 
L 205.774414 168.60968 
L 206.099394 168.286138 
L 206.424373 167.55817 
L 206.749353 167.234628 
L 207.074333 167.396399 
L 207.399312 168.124368 
L 207.724292 168.528795 
L 208.049271 168.286138 
L 208.374251 167.639055 
L 208.69923 167.477284 
L 209.674169 168.690565 
L 210.649107 168.367024 
L 210.974087 168.205253 
L 211.624046 167.55817 
L 212.274005 167.881711 
L 212.598984 168.205253 
L 212.923964 168.286138 
L 213.573923 167.800826 
L 213.898903 168.043482 
L 214.548862 168.771451 
L 214.873841 168.771451 
L 215.5238 168.286138 
L 215.84878 168.367024 
L 216.173759 168.771451 
L 216.498739 168.852336 
L 216.823718 168.690565 
L 217.473677 167.881711 
L 217.798657 167.881711 
L 218.773595 168.852336 
L 219.098575 168.60968 
L 219.423554 168.528795 
L 219.748534 168.771451 
L 220.398493 169.418534 
L 221.373432 168.933222 
L 222.023391 168.367024 
L 222.34837 168.124368 
L 222.67335 168.124368 
L 222.998329 168.447909 
L 223.648288 169.337649 
L 224.623227 169.014107 
L 224.948206 169.175878 
L 225.273186 169.499419 
L 225.598165 169.580305 
L 225.923145 169.418534 
L 226.573104 168.690565 
L 226.898084 168.60968 
L 227.548043 169.014107 
L 228.198002 169.66119 
L 228.847961 169.903846 
L 229.17294 169.742076 
L 229.49792 169.418534 
L 229.822899 169.256763 
L 230.472858 169.337649 
L 230.797838 169.418534 
L 231.122817 169.337649 
L 231.447797 169.094992 
L 231.772776 169.094992 
L 232.747715 170.146503 
L 233.072695 169.984732 
L 234.047633 170.470044 
L 234.372613 170.227388 
L 235.022572 169.418534 
L 235.347551 169.337649 
L 236.32249 169.742076 
L 236.972449 169.742076 
L 237.622408 170.227388 
L 237.947387 170.227388 
L 238.272367 169.903846 
L 238.922326 169.822961 
L 239.247305 169.742076 
L 239.572285 169.499419 
L 240.547224 169.984732 
L 241.522162 170.955357 
L 242.497101 171.117127 
L 242.82208 171.117127 
L 243.797019 169.984732 
L 244.121998 169.742076 
L 244.771957 169.903846 
L 245.096937 170.227388 
L 247.371794 170.7127 
L 248.671712 169.984732 
L 249.321671 170.631815 
L 249.97163 170.470044 
L 250.621589 170.55093 
L 251.271548 171.198013 
L 251.596527 171.036242 
L 251.921507 170.470044 
L 252.571466 170.065617 
L 253.221425 170.470044 
L 253.546405 170.227388 
L 253.871384 169.822961 
L 254.196364 169.903846 
L 254.521343 170.146503 
L 254.846323 170.55093 
L 255.171302 170.7127 
L 255.496282 170.7127 
L 256.47122 170.308273 
L 257.121179 170.146503 
L 258.421097 170.470044 
L 258.746077 170.308273 
L 259.071057 169.984732 
L 259.721016 170.227388 
L 260.045995 170.55093 
L 260.370975 170.631815 
L 260.695954 170.55093 
L 261.670893 169.418534 
L 261.995872 169.337649 
L 262.320852 169.66119 
L 263.29579 169.822961 
L 263.62077 169.742076 
L 264.595708 170.389159 
L 264.920688 170.470044 
L 265.245667 170.389159 
L 265.895627 169.742076 
L 266.545586 169.337649 
L 267.520524 170.065617 
L 268.170483 169.903846 
L 268.495463 169.580305 
L 268.820442 169.418534 
L 269.145422 169.580305 
L 270.770319 169.175878 
L 271.095299 169.418534 
L 271.420278 169.337649 
L 272.070238 168.771451 
L 272.395217 168.60968 
L 273.045176 169.175878 
L 273.370156 169.337649 
L 274.345094 168.933222 
L 274.995053 169.094992 
L 275.969992 168.60968 
L 276.619951 169.256763 
L 277.26991 169.337649 
L 277.919869 169.094992 
L 278.569828 169.014107 
L 279.219787 168.447909 
L 279.544767 168.286138 
L 279.869746 168.286138 
L 280.194726 168.771451 
L 280.844685 169.014107 
L 281.169664 168.852336 
L 281.494644 168.852336 
L 281.819623 169.014107 
L 282.794562 168.933222 
L 283.119541 168.852336 
L 283.7695 169.014107 
L 284.09448 168.852336 
L 284.744439 168.205253 
L 285.069419 168.124368 
L 286.044357 168.528795 
L 286.369337 168.447909 
L 286.694316 168.771451 
L 287.019296 168.933222 
L 287.994234 168.852336 
L 288.319214 168.528795 
L 288.644193 168.367024 
L 288.969173 168.60968 
L 289.294152 168.60968 
L 289.619132 168.367024 
L 290.269091 168.286138 
L 290.59407 168.690565 
L 290.91905 168.852336 
L 291.244029 168.852336 
L 291.569009 168.286138 
L 291.893989 168.043482 
L 292.218968 168.124368 
L 292.543948 168.690565 
L 292.868927 169.014107 
L 293.193907 168.690565 
L 293.843866 167.153743 
L 294.168845 167.234628 
L 294.818804 168.124368 
L 295.143784 167.800826 
L 295.468763 167.153743 
L 295.793743 167.153743 
L 296.768681 168.852336 
L 297.41864 167.719941 
L 297.74362 167.55817 
L 298.393579 168.286138 
L 298.718559 168.205253 
L 299.368518 167.396399 
L 300.018477 167.800826 
L 300.668436 167.55817 
L 301.643374 168.60968 
L 301.968354 168.286138 
L 302.293333 167.55817 
L 302.618313 167.234628 
L 302.943292 167.396399 
L 303.593251 168.447909 
L 303.918231 168.205253 
L 304.24321 167.639055 
L 304.56819 167.477284 
L 305.218149 168.447909 
L 305.543129 168.60968 
L 306.843047 168.205253 
L 307.493006 167.477284 
L 307.817985 167.55817 
L 308.792924 168.205253 
L 309.442883 167.800826 
L 309.767862 167.962597 
L 310.417821 168.771451 
L 310.742801 168.771451 
L 311.067781 168.447909 
L 311.39276 168.367024 
L 311.71774 168.447909 
L 312.367699 168.852336 
L 312.692678 168.60968 
L 313.342637 167.719941 
L 313.667617 167.800826 
L 314.317576 168.690565 
L 314.642555 168.771451 
L 315.292514 168.528795 
L 315.617494 168.60968 
L 315.942473 169.014107 
L 316.592432 169.337649 
L 316.917412 169.175878 
L 317.892351 168.205253 
L 318.54231 167.962597 
L 319.517248 169.256763 
L 319.842228 169.256763 
L 320.492187 168.852336 
L 320.817166 169.014107 
L 321.142146 169.418534 
L 321.467125 169.499419 
L 321.792105 169.418534 
L 322.442064 168.60968 
L 322.767043 168.447909 
L 324.716921 169.822961 
L 325.0419 169.742076 
L 325.691859 169.094992 
L 326.341818 169.256763 
L 327.641736 168.933222 
L 327.966716 169.175878 
L 328.291695 169.742076 
L 328.616675 169.984732 
L 329.266634 169.984732 
L 329.916593 170.389159 
L 330.241572 170.308273 
L 331.216511 169.256763 
L 331.86647 169.499419 
L 332.19145 169.66119 
L 333.166388 169.742076 
L 333.491368 170.065617 
L 333.816347 170.065617 
L 334.141327 169.742076 
L 334.466306 169.66119 
L 334.791286 169.742076 
L 335.766224 169.580305 
L 336.091204 169.66119 
L 336.741163 170.227388 
L 337.066143 170.470044 
L 337.391122 170.955357 
L 337.716102 170.955357 
L 338.366061 171.198013 
L 338.69104 171.117127 
L 339.665979 169.822961 
L 339.990958 169.66119 
L 341.615856 170.389159 
L 342.265815 170.470044 
L 342.915774 170.7127 
L 343.240753 170.7127 
L 344.215692 170.065617 
L 344.540672 170.065617 
L 345.190631 170.7127 
L 346.165569 170.470044 
L 346.815528 170.874471 
L 347.140508 171.117127 
L 347.465487 170.955357 
L 348.115446 170.146503 
L 348.440426 170.146503 
L 349.090385 170.389159 
L 349.740344 169.903846 
L 350.065324 169.903846 
L 350.390303 170.146503 
L 350.715283 170.55093 
L 351.365242 170.793586 
L 352.015201 170.389159 
L 352.34018 170.389159 
L 352.66516 170.227388 
L 354.290057 170.55093 
L 354.940016 170.065617 
L 355.589975 170.146503 
L 355.914955 170.470044 
L 356.239934 170.631815 
L 356.564914 170.55093 
L 357.539853 169.499419 
L 357.864832 169.418534 
L 358.189812 169.742076 
L 358.514791 169.903846 
L 359.48973 169.822961 
L 360.464668 170.55093 
L 360.789648 170.55093 
L 361.114627 170.389159 
L 361.764586 169.822961 
L 362.414545 169.499419 
L 362.739525 169.499419 
L 363.714464 170.146503 
L 364.039443 169.984732 
L 364.364423 169.580305 
L 364.689402 169.418534 
L 365.014382 169.418534 
L 365.339361 169.580305 
L 365.664341 169.499419 
L 365.98932 169.256763 
L 366.639279 169.175878 
L 366.964259 169.418534 
L 367.289238 169.337649 
L 367.939197 168.690565 
L 368.264177 168.60968 
L 368.914136 169.175878 
L 369.239115 169.337649 
L 370.214054 168.933222 
L 370.864013 169.094992 
L 371.513972 168.690565 
L 372.163931 169.094992 
L 372.81389 169.499419 
L 373.13887 169.418534 
L 373.463849 169.175878 
L 374.438788 169.014107 
L 375.088747 168.367024 
L 375.413726 168.286138 
L 375.738706 168.367024 
L 376.388665 169.014107 
L 376.713645 169.014107 
L 377.038624 168.852336 
L 377.688583 168.933222 
L 378.013563 169.094992 
L 378.338542 169.094992 
L 378.663522 168.933222 
L 379.96344 168.852336 
L 380.613399 168.124368 
L 380.938378 168.124368 
L 381.913317 168.528795 
L 382.238296 168.528795 
L 382.563276 168.690565 
L 382.888256 169.014107 
L 383.863194 168.690565 
L 384.513153 168.286138 
L 384.838133 168.60968 
L 385.163112 168.60968 
L 385.488092 168.205253 
L 385.813071 168.124368 
L 386.138051 168.205253 
L 386.78801 168.852336 
L 387.112989 168.771451 
L 387.762948 167.962597 
L 388.087928 168.124368 
L 388.412907 168.690565 
L 388.737887 168.933222 
L 389.062867 168.447909 
L 389.712826 167.072857 
L 390.037805 167.153743 
L 390.687764 168.124368 
L 391.012744 167.719941 
L 391.337723 167.072857 
L 391.662703 167.072857 
L 391.987682 167.719941 
L 392.312662 168.690565 
L 392.637641 168.852336 
L 393.2876 167.800826 
L 393.61258 167.639055 
L 393.937559 168.043482 
L 394.262539 168.205253 
L 394.587518 168.043482 
L 394.912498 167.55817 
L 395.237477 167.396399 
L 396.862375 167.719941 
L 397.512334 168.528795 
L 397.837314 168.124368 
L 398.162293 167.477284 
L 398.487273 167.315514 
L 398.487273 167.315514 
" clip-path="url(#p65041ecd29)" style="fill: none; stroke: #1f77b4; stroke-width: 1.5; stroke-linecap: square"/>
   </g>
   <g id="line2d_13">
    <path d="M 73.832727 291.051404 
L 398.487273 291.035227 
L 398.487273 291.035227 
" clip-path="url(#p65041ecd29)" style="fill: none; stroke: #ff7f0e; stroke-width: 1.5; stroke-linecap: square"/>
   </g>
   <g id="line2d_14">
    <path d="M 73.832727 54.457739 
L 74.157707 54.538625 
L 74.807666 54.376854 
L 75.457625 54.457739 
L 75.782604 54.457739 
L 76.107584 54.295969 
L 76.432563 54.295969 
L 76.757543 54.134198 
L 77.082523 54.295969 
L 78.057461 54.295969 
L 79.357379 54.943052 
L 80.007338 54.700396 
L 80.332318 54.61951 
L 80.657297 54.700396 
L 80.982277 54.538625 
L 81.632236 53.972427 
L 81.957215 53.891542 
L 83.257133 54.457739 
L 84.557052 54.781281 
L 84.882031 54.700396 
L 85.207011 54.295969 
L 86.181949 54.700396 
L 87.156888 54.376854 
L 88.131826 54.862166 
L 89.106765 54.457739 
L 89.756724 54.943052 
L 90.081704 54.862166 
L 90.406683 54.538625 
L 91.056642 54.457739 
L 91.706601 54.781281 
L 92.35656 54.61951 
L 93.006519 54.862166 
L 93.656478 55.104823 
L 93.981458 55.023937 
L 94.306437 54.700396 
L 97.881212 54.700396 
L 98.531171 55.104823 
L 98.856151 55.104823 
L 99.50611 54.61951 
L 100.481048 55.023937 
L 100.806028 54.700396 
L 101.455987 54.61951 
L 101.780966 55.104823 
L 102.430925 55.185708 
L 102.755905 54.862166 
L 103.080885 54.781281 
L 104.055823 55.185708 
L 104.380803 54.943052 
L 104.705782 54.538625 
L 105.030762 54.538625 
L 105.680721 54.943052 
L 106.0057 54.943052 
L 106.33068 54.700396 
L 106.655659 54.700396 
L 107.305618 54.943052 
L 107.630598 55.023937 
L 107.955577 54.781281 
L 108.605536 54.943052 
L 109.255495 55.347479 
L 109.580475 55.266593 
L 109.905455 54.943052 
L 110.555414 54.943052 
L 110.880393 55.104823 
L 113.480229 55.023937 
L 113.805209 54.943052 
L 114.780147 55.104823 
L 115.430106 55.023937 
L 115.755086 55.023937 
L 116.405045 55.266593 
L 116.730025 55.347479 
L 117.379984 55.185708 
L 117.704963 54.943052 
L 119.004881 54.862166 
L 119.329861 54.781281 
L 119.97982 54.943052 
L 120.629779 54.862166 
L 121.929697 55.104823 
L 122.254676 54.943052 
L 122.579656 54.943052 
L 122.904636 54.700396 
L 123.554595 54.781281 
L 124.529533 54.862166 
L 125.179492 55.347479 
L 126.154431 54.943052 
L 127.129369 54.862166 
L 128.104308 54.295969 
L 128.429287 54.538625 
L 130.379165 54.943052 
L 130.704144 54.61951 
L 132.004062 54.376854 
L 133.30398 54.457739 
L 133.62896 54.781281 
L 133.953939 54.700396 
L 134.278919 54.781281 
L 136.553776 54.215083 
L 137.203735 54.376854 
L 137.528714 54.61951 
L 138.178673 54.862166 
L 138.503653 54.700396 
L 138.828632 54.781281 
L 139.478591 54.538625 
L 139.803571 54.457739 
L 140.12855 54.538625 
L 140.45353 54.376854 
L 140.778509 54.376854 
L 141.103489 54.134198 
L 142.078428 54.215083 
L 142.728387 54.61951 
L 143.378346 54.781281 
L 143.703325 54.61951 
L 144.028305 54.700396 
L 144.353284 54.457739 
L 145.003243 54.215083 
L 145.328223 54.053312 
L 146.303161 54.134198 
L 146.95312 54.61951 
L 147.603079 54.61951 
L 147.928059 54.781281 
L 149.552957 54.053312 
L 151.502834 54.457739 
L 152.152793 54.376854 
L 152.477772 54.376854 
L 152.802752 54.215083 
L 153.127731 54.215083 
L 153.77769 53.810656 
L 154.10267 53.648885 
L 154.427649 53.810656 
L 154.752629 53.648885 
L 155.402588 53.729771 
L 156.052547 54.295969 
L 156.377527 54.538625 
L 157.677445 54.134198 
L 158.002424 53.891542 
L 158.327404 53.891542 
L 158.652383 53.648885 
L 159.302342 53.568 
L 159.627322 53.810656 
L 160.92724 54.215083 
L 161.252219 54.457739 
L 161.577199 54.457739 
L 162.227158 54.053312 
L 162.552138 54.053312 
L 163.202097 53.810656 
L 163.852056 53.648885 
L 164.826994 54.053312 
L 165.151974 54.134198 
L 165.476953 54.376854 
L 166.451892 54.295969 
L 166.776871 54.215083 
L 167.101851 53.891542 
L 168.401769 53.648885 
L 169.051728 54.215083 
L 170.026667 54.61951 
L 171.001605 54.457739 
L 171.976544 54.376854 
L 172.301523 54.053312 
L 173.276462 54.215083 
L 173.601441 54.134198 
L 174.2514 54.376854 
L 174.57638 54.61951 
L 175.226339 54.862166 
L 175.551319 54.700396 
L 176.526257 54.61951 
L 176.851237 54.376854 
L 177.176216 54.295969 
L 177.501196 53.972427 
L 177.826175 53.891542 
L 178.151155 53.972427 
L 178.801114 54.376854 
L 179.126093 54.538625 
L 179.451073 54.457739 
L 179.776052 54.700396 
L 180.750991 54.61951 
L 181.40095 54.295969 
L 182.050909 54.700396 
L 182.375889 54.781281 
L 183.025848 54.376854 
L 183.675807 54.700396 
L 184.975725 54.61951 
L 185.300704 54.538625 
L 185.625684 54.862166 
L 186.275643 54.61951 
L 186.600622 54.376854 
L 186.925602 54.376854 
L 187.250581 54.61951 
L 187.575561 54.700396 
L 188.22552 54.538625 
L 189.200459 54.943052 
L 189.525438 55.023937 
L 190.175397 54.781281 
L 190.500377 54.61951 
L 191.150336 54.700396 
L 192.125274 54.538625 
L 192.775233 54.700396 
L 193.100213 54.538625 
L 193.425192 54.538625 
L 194.075152 54.943052 
L 194.725111 55.104823 
L 195.700049 54.700396 
L 196.025029 54.943052 
L 196.350008 54.943052 
L 196.999967 54.61951 
L 197.324947 54.700396 
L 197.974906 55.347479 
L 198.299885 55.185708 
L 198.624865 54.862166 
L 199.274824 54.781281 
L 199.924783 55.185708 
L 200.249762 54.781281 
L 200.899722 54.457739 
L 201.224701 54.781281 
L 201.549681 54.943052 
L 201.87466 54.943052 
L 202.524619 54.61951 
L 203.174578 55.023937 
L 203.824537 54.781281 
L 204.799476 55.104823 
L 205.124455 55.347479 
L 205.449435 55.185708 
L 205.774414 55.185708 
L 206.099394 54.862166 
L 207.074333 55.266593 
L 207.724292 55.185708 
L 208.374251 55.104823 
L 209.02421 55.104823 
L 209.674169 54.781281 
L 209.999148 54.862166 
L 210.324128 55.104823 
L 210.649107 55.185708 
L 211.299066 54.862166 
L 211.949025 55.023937 
L 212.274005 55.266593 
L 212.598984 55.266593 
L 213.248943 54.943052 
L 214.548862 54.943052 
L 215.198821 54.61951 
L 216.173759 55.023937 
L 216.498739 54.862166 
L 217.148698 54.862166 
L 217.473677 55.104823 
L 217.798657 55.104823 
L 218.773595 54.700396 
L 219.098575 54.61951 
L 219.748534 54.781281 
L 220.073514 54.700396 
L 220.398493 54.781281 
L 220.723473 55.104823 
L 221.373432 55.347479 
L 222.023391 54.943052 
L 222.34837 54.781281 
L 222.67335 54.943052 
L 222.998329 54.862166 
L 223.648288 54.376854 
L 223.973268 54.457739 
L 224.298247 54.376854 
L 224.948206 54.700396 
L 225.598165 54.61951 
L 226.248124 54.862166 
L 226.573104 54.781281 
L 227.223063 54.376854 
L 228.847961 54.457739 
L 230.147879 54.781281 
L 230.797838 54.457739 
L 231.447797 54.538625 
L 232.422735 54.134198 
L 233.397674 54.538625 
L 234.372613 54.700396 
L 236.647469 54.215083 
L 236.972449 54.215083 
L 237.297428 54.053312 
L 237.622408 54.215083 
L 237.947387 54.215083 
L 238.597346 54.61951 
L 239.247305 54.700396 
L 240.872203 54.215083 
L 241.197183 54.053312 
L 241.522162 54.215083 
L 241.847142 54.215083 
L 242.172121 54.376854 
L 242.497101 54.376854 
L 243.14706 54.781281 
L 243.797019 54.862166 
L 245.421916 54.134198 
L 246.396855 54.215083 
L 247.046814 54.61951 
L 247.371794 54.61951 
L 247.696773 54.457739 
L 248.021753 54.538625 
L 248.996691 54.295969 
L 249.64665 53.810656 
L 249.97163 53.810656 
L 250.296609 53.648885 
L 250.946568 53.810656 
L 251.271548 53.648885 
L 251.596527 53.891542 
L 252.246486 54.61951 
L 252.571466 54.61951 
L 252.896446 54.295969 
L 253.221425 54.295969 
L 253.546405 54.134198 
L 253.871384 54.134198 
L 254.196364 53.972427 
L 254.521343 53.648885 
L 255.496282 53.729771 
L 256.146241 54.134198 
L 257.771138 54.457739 
L 258.096118 54.215083 
L 259.721016 53.810656 
L 260.045995 53.891542 
L 260.370975 54.134198 
L 260.695954 54.053312 
L 261.345913 54.376854 
L 262.645831 54.295969 
L 262.970811 54.215083 
L 263.29579 53.891542 
L 263.62077 53.891542 
L 263.945749 53.729771 
L 265.895627 54.61951 
L 267.195545 54.538625 
L 268.495463 54.215083 
L 269.470401 54.376854 
L 269.795381 54.295969 
L 270.770319 54.862166 
L 271.095299 54.781281 
L 271.420278 54.862166 
L 272.720197 54.538625 
L 273.695135 53.891542 
L 275.320033 54.61951 
L 276.294971 54.781281 
L 277.26991 54.376854 
L 277.594889 54.457739 
L 277.919869 54.700396 
L 278.244848 54.781281 
L 278.894808 54.457739 
L 280.194726 54.781281 
L 280.519705 54.61951 
L 280.844685 54.61951 
L 281.169664 54.781281 
L 281.819623 54.781281 
L 282.794562 54.295969 
L 283.119541 54.538625 
L 283.7695 54.700396 
L 284.09448 54.457739 
L 284.744439 54.700396 
L 285.069419 55.023937 
L 285.394398 55.023937 
L 286.694316 54.457739 
L 287.344275 54.538625 
L 287.669255 54.538625 
L 287.994234 54.376854 
L 288.644193 54.61951 
L 288.969173 54.700396 
L 289.294152 54.538625 
L 290.269091 55.023937 
L 290.59407 54.943052 
L 290.91905 54.700396 
L 291.569009 54.781281 
L 292.218968 54.862166 
L 292.868927 54.457739 
L 293.193907 54.538625 
L 293.843866 55.266593 
L 294.168845 55.185708 
L 294.493825 54.781281 
L 294.818804 54.700396 
L 295.793743 55.185708 
L 296.443702 54.457739 
L 297.093661 54.700396 
L 297.74362 55.023937 
L 298.393579 54.538625 
L 299.368518 55.023937 
L 299.693497 54.700396 
L 300.018477 54.700396 
L 300.668436 55.185708 
L 300.993415 55.266593 
L 301.643374 55.023937 
L 301.968354 54.862166 
L 303.268272 55.104823 
L 303.918231 55.023937 
L 304.24321 55.023937 
L 304.56819 55.185708 
L 304.89317 55.023937 
L 305.218149 55.023937 
L 305.543129 54.862166 
L 305.868108 55.023937 
L 307.817985 54.943052 
L 308.142965 55.266593 
L 308.467944 55.266593 
L 308.792924 55.023937 
L 309.442883 54.943052 
L 309.767862 55.023937 
L 310.092842 54.862166 
L 310.417821 55.023937 
L 311.067781 54.781281 
L 311.39276 54.700396 
L 312.042719 54.943052 
L 312.692678 54.781281 
L 313.017658 54.862166 
L 313.342637 55.104823 
L 313.667617 55.185708 
L 314.317576 54.781281 
L 314.642555 54.61951 
L 314.967535 54.700396 
L 315.292514 54.61951 
L 315.617494 54.781281 
L 315.942473 54.700396 
L 316.592432 55.104823 
L 316.917412 55.347479 
L 317.567371 55.104823 
L 317.892351 54.862166 
L 318.867289 54.781281 
L 319.517248 54.538625 
L 319.842228 54.457739 
L 320.167207 54.538625 
L 320.492187 54.457739 
L 320.817166 54.700396 
L 321.467125 54.781281 
L 322.117084 54.862166 
L 323.092023 54.457739 
L 323.741982 54.376854 
L 324.066962 54.457739 
L 324.391941 54.295969 
L 325.0419 54.457739 
L 325.36688 54.700396 
L 326.016839 54.781281 
L 327.966716 54.215083 
L 328.291695 53.972427 
L 328.941654 54.376854 
L 330.566552 54.700396 
L 330.891532 54.457739 
L 331.216511 54.538625 
L 331.86647 54.295969 
L 333.166388 54.295969 
L 333.491368 54.134198 
L 334.466306 54.538625 
L 335.116265 54.700396 
L 337.716102 54.134198 
L 339.340999 54.862166 
L 339.665979 54.862166 
L 341.290876 54.134198 
L 343.240753 54.538625 
L 344.215692 54.376854 
L 344.540672 54.376854 
L 345.51561 53.729771 
L 347.140508 53.648885 
L 347.790467 54.295969 
L 348.115446 54.538625 
L 348.765405 54.457739 
L 349.090385 54.215083 
L 350.065324 53.891542 
L 350.390303 53.648885 
L 351.040262 53.568 
L 351.365242 53.891542 
L 352.015201 53.972427 
L 353.640098 54.295969 
L 353.965078 54.215083 
L 354.290057 53.891542 
L 355.589975 53.648885 
L 356.564914 54.134198 
L 356.889894 54.134198 
L 357.214873 54.295969 
L 357.539853 54.295969 
L 357.864832 54.457739 
L 359.48973 53.648885 
L 360.789648 53.972427 
L 361.114627 54.376854 
L 361.764586 54.61951 
L 362.089566 54.457739 
L 362.739525 54.538625 
L 363.714464 54.457739 
L 364.039443 54.295969 
L 365.664341 54.376854 
L 365.98932 54.457739 
L 366.639279 54.862166 
L 366.964259 55.023937 
L 367.289238 54.781281 
L 368.264177 54.700396 
L 368.914136 54.376854 
L 369.239115 54.053312 
L 369.889075 54.053312 
L 370.539034 54.61951 
L 371.188993 54.61951 
L 371.838952 54.862166 
L 372.163931 54.862166 
L 372.488911 54.538625 
L 373.13887 54.376854 
L 374.113808 54.781281 
L 374.438788 54.700396 
L 374.763767 54.457739 
L 375.088747 54.457739 
L 375.738706 54.781281 
L 376.713645 54.61951 
L 377.038624 54.700396 
L 377.363604 54.943052 
L 378.013563 54.61951 
L 378.338542 54.295969 
L 379.96344 54.61951 
L 380.288419 54.538625 
L 380.938378 55.104823 
L 381.588337 54.943052 
L 381.913317 54.700396 
L 382.238296 54.61951 
L 382.563276 54.700396 
L 382.888256 54.61951 
L 383.213235 54.700396 
L 383.863194 54.538625 
L 385.163112 54.781281 
L 385.488092 54.61951 
L 386.138051 55.185708 
L 387.112989 54.781281 
L 387.437969 54.781281 
L 387.762948 55.104823 
L 388.412907 54.943052 
L 388.737887 54.61951 
L 389.062867 54.700396 
L 389.712826 55.266593 
L 390.037805 55.266593 
L 390.687764 54.700396 
L 391.012744 54.862166 
L 391.337723 55.185708 
L 391.987682 54.862166 
L 392.312662 54.538625 
L 392.637641 54.61951 
L 392.962621 54.943052 
L 393.61258 55.023937 
L 393.937559 54.61951 
L 394.587518 54.862166 
L 394.912498 55.023937 
L 395.237477 55.023937 
L 395.887437 54.700396 
L 396.862375 55.347479 
L 397.187355 55.104823 
L 397.837314 54.943052 
L 398.487273 55.023937 
L 398.487273 55.023937 
" clip-path="url(#p65041ecd29)" style="fill: none; stroke: #2ca02c; stroke-width: 1.5; stroke-linecap: square"/>
   </g>
   <g id="line2d_15">
    <path d="M 73.832727 295.447557 
L 398.487273 295.43138 
L 398.487273 295.43138 
" clip-path="url(#p65041ecd29)" style="fill: none; stroke: #d62728; stroke-width: 1.5; stroke-linecap: square"/>
   </g>
   <g id="patch_3">
    <path d="M 57.6 307.584 
L 57.6 41.472 
" style="fill: none; stroke: #000000; stroke-width: 0.8; stroke-linejoin: miter; stroke-linecap: square"/>
   </g>
   <g id="patch_4">
    <path d="M 414.72 307.584 
L 414.72 41.472 
" style="fill: none; stroke: #000000; stroke-width: 0.8; stroke-linejoin: miter; stroke-linecap: square"/>
   </g>
   <g id="patch_5">
    <path d="M 57.6 307.584 
L 414.72 307.584 
" style="fill: none; stroke: #000000; stroke-width: 0.8; stroke-linejoin: miter; stroke-linecap: square"/>
   </g>
   <g id="patch_6">
    <path d="M 57.6 41.472 
L 414.72 41.472 
" style="fill: none; stroke: #000000; stroke-width: 0.8; stroke-linejoin: miter; stroke-linecap: square"/>
   </g>
  </g>
 </g>
 <defs>
  <clipPath id="p65041ecd29">
   <rect x="57.6" y="41.472" width="357.12" height="266.112"/>
  </clipPath>
 </defs>
</svg>
