<?xml version="1.0" encoding="utf-8" standalone="no"?>
<!DOCTYPE svg PUBLIC "-//W3C//DTD SVG 1.1//EN"
  "http://www.w3.org/Graphics/SVG/1.1/DTD/svg11.dtd">
<svg xmlns:xlink="http://www.w3.org/1999/xlink" width="460.8pt" height="345.6pt" viewBox="0 0 460.8 345.6" xmlns="http://www.w3.org/2000/svg" version="1.1">
 <metadata>
  <rdf:RDF xmlns:dc="http://purl.org/dc/elements/1.1/" xmlns:cc="http://creativecommons.org/ns#" xmlns:rdf="http://www.w3.org/1999/02/22-rdf-syntax-ns#">
   <cc:Work>
    <dc:type rdf:resource="http://purl.org/dc/dcmitype/StillImage"/>
    <dc:date>2025-12-22T09:31:09.465633</dc:date>
    <dc:format>image/svg+xml</dc:format>
    <dc:creator>
     <cc:Agent>
      <dc:title>Matplotlib v3.10.8, https://matplotlib.org/</dc:title>
     </cc:Agent>
    </dc:creator>
   </cc:Work>
  </rdf:RDF>
 </metadata>
 <defs>
  <style type="text/css">*{stroke-linejoin: round; stroke-linecap: butt}</style>
 </defs>
 <g id="figure_1">
  <g id="patch_1">
   <path d="M 0 345.6 
L 460.8 345.6 
L 460.8 0 
L 0 0 
z
" style="fill: #ffffff"/>
  </g>
  <g id="axes_1">
   <g id="patch_2">
    <path d="M 57.6 307.584 
L 414.72 307.584 
L 414.72 41.472 
L 57.6 41.472 
z
" style="fill: #ffffff"/>
   </g>
   <g id="matplotlib.axis_1">
    <g id="xtick_1">
     <g id="line2d_1">
      <defs>
       <path id="mfc4ae37fcf" d="M 0 0 
L 0 3.5 
" style="stroke: #000000; stroke-width: 0.8"/>
      </defs>
      <g>
       <use xlink:href="#mfc4ae37fcf" x="73.832727" y="307.584" style="stroke: #000000; stroke-width: 0.8"/>
      </g>
     </g>
     <g id="text_1">
      <!-- 0 -->
      <g transform="translate(70.651477 322.182437) scale(0.1 -0.1)">
       <defs>
        <path id="DejaVuSans-30" d="M 2034 4250 
Q 1547 4250 1301 3770 
Q 1056 3291 1056 2328 
Q 1056 1369 1301 889 
Q 1547 409 2034 409 
Q 2525 409 2770 889 
Q 3016 1369 3016 2328 
Q 3016 3291 2770 3770 
Q 2525 4250 2034 4250 
z
M 2034 4750 
Q 2819 4750 3233 4129 
Q 3647 3509 3647 2328 
Q 3647 1150 3233 529 
Q 2819 -91 2034 -91 
Q 1250 -91 836 529 
Q 422 1150 422 2328 
Q 422 3509 836 4129 
Q 1250 4750 2034 4750 
z
" transform="scale(0.015625)"/>
       </defs>
       <use xlink:href="#DejaVuSans-30"/>
      </g>
     </g>
    </g>
    <g id="xtick_2">
     <g id="line2d_2">
      <g>
       <use xlink:href="#mfc4ae37fcf" x="138.828632" y="307.584" style="stroke: #000000; stroke-width: 0.8"/>
      </g>
     </g>
     <g id="text_2">
      <!-- 1 -->
      <g transform="translate(135.647382 322.182437) scale(0.1 -0.1)">
       <defs>
        <path id="DejaVuSans-31" d="M 794 531 
L 1825 531 
L 1825 4091 
L 703 3866 
L 703 4441 
L 1819 4666 
L 2450 4666 
L 2450 531 
L 3481 531 
L 3481 0 
L 794 0 
L 794 531 
z
" transform="scale(0.015625)"/>
       </defs>
       <use xlink:href="#DejaVuSans-31"/>
      </g>
     </g>
    </g>
    <g id="xtick_3">
     <g id="line2d_3">
      <g>
       <use xlink:href="#mfc4ae37fcf" x="203.824537" y="307.584" style="stroke: #000000; stroke-width: 0.8"/>
      </g>
     </g>
     <g id="text_3">
      <!-- 2 -->
      <g transform="translate(200.643287 322.182437) scale(0.1 -0.1)">
       <defs>
        <path id="DejaVuSans-32" d="M 1228 531 
L 3431 531 
L 3431 0 
L 469 0 
L 469 531 
Q 828 903 1448 1529 
Q 2069 2156 2228 2338 
Q 2531 2678 2651 2914 
Q 2772 3150 2772 3378 
Q 2772 3750 2511 3984 
Q 2250 4219 1831 4219 
Q 1534 4219 1204 4116 
Q 875 4013 500 3803 
L 500 4441 
Q 881 4594 1212 4672 
Q 1544 4750 1819 4750 
Q 2544 4750 2975 4387 
Q 3406 4025 3406 3419 
Q 3406 3131 3298 2873 
Q 3191 2616 2906 2266 
Q 2828 2175 2409 1742 
Q 1991 1309 1228 531 
z
" transform="scale(0.015625)"/>
       </defs>
       <use xlink:href="#DejaVuSans-32"/>
      </g>
     </g>
    </g>
    <g id="xtick_4">
     <g id="line2d_4">
      <g>
       <use xlink:href="#mfc4ae37fcf" x="268.820442" y="307.584" style="stroke: #000000; stroke-width: 0.8"/>
      </g>
     </g>
     <g id="text_4">
      <!-- 3 -->
      <g transform="translate(265.639192 322.182437) scale(0.1 -0.1)">
       <defs>
        <path id="DejaVuSans-33" d="M 2597 2516 
Q 3050 2419 3304 2112 
Q 3559 1806 3559 1356 
Q 3559 666 3084 287 
Q 2609 -91 1734 -91 
Q 1441 -91 1130 -33 
Q 819 25 488 141 
L 488 750 
Q 750 597 1062 519 
Q 1375 441 1716 441 
Q 2309 441 2620 675 
Q 2931 909 2931 1356 
Q 2931 1769 2642 2001 
Q 2353 2234 1838 2234 
L 1294 2234 
L 1294 2753 
L 1863 2753 
Q 2328 2753 2575 2939 
Q 2822 3125 2822 3475 
Q 2822 3834 2567 4026 
Q 2313 4219 1838 4219 
Q 1578 4219 1281 4162 
Q 984 4106 628 3988 
L 628 4550 
Q 988 4650 1302 4700 
Q 1616 4750 1894 4750 
Q 2613 4750 3031 4423 
Q 3450 4097 3450 3541 
Q 3450 3153 3228 2886 
Q 3006 2619 2597 2516 
z
" transform="scale(0.015625)"/>
       </defs>
       <use xlink:href="#DejaVuSans-33"/>
      </g>
     </g>
    </g>
    <g id="xtick_5">
     <g id="line2d_5">
      <g>
       <use xlink:href="#mfc4ae37fcf" x="333.816347" y="307.584" style="stroke: #000000; stroke-width: 0.8"/>
      </g>
     </g>
     <g id="text_5">
      <!-- 4 -->
      <g transform="translate(330.635097 322.182437) scale(0.1 -0.1)">
       <defs>
        <path id="DejaVuSans-34" d="M 2419 4116 
L 825 1625 
L 2419 1625 
L 2419 4116 
z
M 2253 4666 
L 3047 4666 
L 3047 1625 
L 3713 1625 
L 3713 1100 
L 3047 1100 
L 3047 0 
L 2419 0 
L 2419 1100 
L 313 1100 
L 313 1709 
L 2253 4666 
z
" transform="scale(0.015625)"/>
       </defs>
       <use xlink:href="#DejaVuSans-34"/>
      </g>
     </g>
    </g>
    <g id="xtick_6">
     <g id="line2d_6">
      <g>
       <use xlink:href="#mfc4ae37fcf" x="398.812252" y="307.584" style="stroke: #000000; stroke-width: 0.8"/>
      </g>
     </g>
     <g id="text_6">
      <!-- 5 -->
      <g transform="translate(395.631002 322.182437) scale(0.1 -0.1)">
       <defs>
        <path id="DejaVuSans-35" d="M 691 4666 
L 3169 4666 
L 3169 4134 
L 1269 4134 
L 1269 2991 
Q 1406 3038 1543 3061 
Q 1681 3084 1819 3084 
Q 2600 3084 3056 2656 
Q 3513 2228 3513 1497 
Q 3513 744 3044 326 
Q 2575 -91 1722 -91 
Q 1428 -91 1123 -41 
Q 819 9 494 109 
L 494 744 
Q 775 591 1075 516 
Q 1375 441 1709 441 
Q 2250 441 2565 725 
Q 2881 1009 2881 1497 
Q 2881 1984 2565 2268 
Q 2250 2553 1709 2553 
Q 1456 2553 1204 2497 
Q 953 2441 691 2322 
L 691 4666 
z
" transform="scale(0.015625)"/>
       </defs>
       <use xlink:href="#DejaVuSans-35"/>
      </g>
     </g>
    </g>
    <g id="text_7">
     <!-- 1e−7 -->
     <g transform="translate(387.462188 334.860562) scale(0.1 -0.1)">
      <defs>
       <path id="DejaVuSans-65" d="M 3597 1894 
L 3597 1613 
L 953 1613 
Q 991 1019 1311 708 
Q 1631 397 2203 397 
Q 2534 397 2845 478 
Q 3156 559 3463 722 
L 3463 178 
Q 3153 47 2828 -22 
Q 2503 -91 2169 -91 
Q 1331 -91 842 396 
Q 353 884 353 1716 
Q 353 2575 817 3079 
Q 1281 3584 2069 3584 
Q 2775 3584 3186 3129 
Q 3597 2675 3597 1894 
z
M 3022 2063 
Q 3016 2534 2758 2815 
Q 2500 3097 2075 3097 
Q 1594 3097 1305 2825 
Q 1016 2553 972 2059 
L 3022 2063 
z
" transform="scale(0.015625)"/>
       <path id="DejaVuSans-2212" d="M 678 2272 
L 4684 2272 
L 4684 1741 
L 678 1741 
L 678 2272 
z
" transform="scale(0.015625)"/>
       <path id="DejaVuSans-37" d="M 525 4666 
L 3525 4666 
L 3525 4397 
L 1831 0 
L 1172 0 
L 2766 4134 
L 525 4134 
L 525 4666 
z
" transform="scale(0.015625)"/>
      </defs>
      <use xlink:href="#DejaVuSans-31"/>
      <use xlink:href="#DejaVuSans-65" transform="translate(63.623047 0)"/>
      <use xlink:href="#DejaVuSans-2212" transform="translate(125.146484 0)"/>
      <use xlink:href="#DejaVuSans-37" transform="translate(208.935547 0)"/>
     </g>
    </g>
   </g>
   <g id="matplotlib.axis_2">
    <g id="ytick_1">
     <g id="line2d_7">
      <defs>
       <path id="m7539e44638" d="M 0 0 
L -3.5 0 
" style="stroke: #000000; stroke-width: 0.8"/>
      </defs>
      <g>
       <use xlink:href="#m7539e44638" x="57.6" y="303.745525" style="stroke: #000000; stroke-width: 0.8"/>
      </g>
     </g>
     <g id="text_8">
      <!-- 0 -->
      <g transform="translate(44.2375 307.544744) scale(0.1 -0.1)">
       <use xlink:href="#DejaVuSans-30"/>
      </g>
     </g>
    </g>
    <g id="ytick_2">
     <g id="line2d_8">
      <g>
       <use xlink:href="#m7539e44638" x="57.6" y="245.456939" style="stroke: #000000; stroke-width: 0.8"/>
      </g>
     </g>
     <g id="text_9">
      <!-- 10 -->
      <g transform="translate(37.875 249.256158) scale(0.1 -0.1)">
       <use xlink:href="#DejaVuSans-31"/>
       <use xlink:href="#DejaVuSans-30" transform="translate(63.623047 0)"/>
      </g>
     </g>
    </g>
    <g id="ytick_3">
     <g id="line2d_9">
      <g>
       <use xlink:href="#m7539e44638" x="57.6" y="187.168353" style="stroke: #000000; stroke-width: 0.8"/>
      </g>
     </g>
     <g id="text_10">
      <!-- 20 -->
      <g transform="translate(37.875 190.967572) scale(0.1 -0.1)">
       <use xlink:href="#DejaVuSans-32"/>
       <use xlink:href="#DejaVuSans-30" transform="translate(63.623047 0)"/>
      </g>
     </g>
    </g>
    <g id="ytick_4">
     <g id="line2d_10">
      <g>
       <use xlink:href="#m7539e44638" x="57.6" y="128.879767" style="stroke: #000000; stroke-width: 0.8"/>
      </g>
     </g>
     <g id="text_11">
      <!-- 30 -->
      <g transform="translate(37.875 132.678986) scale(0.1 -0.1)">
       <use xlink:href="#DejaVuSans-33"/>
       <use xlink:href="#DejaVuSans-30" transform="translate(63.623047 0)"/>
      </g>
     </g>
    </g>
    <g id="ytick_5">
     <g id="line2d_11">
      <g>
       <use xlink:href="#m7539e44638" x="57.6" y="70.591181" style="stroke: #000000; stroke-width: 0.8"/>
      </g>
     </g>
     <g id="text_12">
      <!-- 40 -->
      <g transform="translate(37.875 74.3904) scale(0.1 -0.1)">
       <use xlink:href="#DejaVuSans-34"/>
       <use xlink:href="#DejaVuSans-30" transform="translate(63.623047 0)"/>
      </g>
     </g>
    </g>
   </g>
   <g id="line2d_12">
    <path d="M 73.832727 164.737448 
L 74.157707 164.555296 
L 74.807666 165.283904 
L 75.132645 165.466055 
L 75.782604 164.646372 
L 76.107584 164.646372 
L 76.757543 165.466055 
L 77.082523 165.37498 
L 77.732482 164.555296 
L 78.382441 165.283904 
L 78.70742 165.283904 
L 79.357379 164.555296 
L 79.682359 164.646372 
L 80.332318 165.37498 
L 80.982277 164.9196 
L 81.307256 164.646372 
L 81.632236 164.828524 
L 82.282195 165.557131 
L 82.932154 164.646372 
L 83.582113 164.9196 
L 83.907093 165.37498 
L 84.557052 165.101752 
L 84.882031 164.737448 
L 85.85697 165.283904 
L 86.181949 165.192828 
L 86.506929 164.9196 
L 86.831908 164.9196 
L 87.156888 165.192828 
L 87.481867 165.283904 
L 87.806847 165.192828 
L 88.131826 164.9196 
L 89.106765 165.010676 
L 89.431744 165.192828 
L 90.406683 164.9196 
L 91.706601 165.192828 
L 92.35656 164.9196 
L 93.331499 165.37498 
L 93.656478 165.466055 
L 93.981458 165.101752 
L 94.631417 164.828524 
L 95.281376 165.557131 
L 95.606355 165.466055 
L 96.256314 164.737448 
L 96.581294 164.9196 
L 97.231253 165.739283 
L 97.556233 165.557131 
L 98.206192 164.828524 
L 98.531171 164.9196 
L 98.856151 165.37498 
L 99.18113 165.557131 
L 99.50611 165.557131 
L 99.831089 165.192828 
L 100.481048 164.9196 
L 100.806028 165.101752 
L 101.131007 165.557131 
L 101.455987 165.557131 
L 102.430925 165.101752 
L 103.080885 165.648207 
L 103.405864 165.557131 
L 103.730844 165.101752 
L 104.055823 165.010676 
L 104.380803 165.192828 
L 104.705782 165.557131 
L 105.030762 165.557131 
L 105.680721 164.9196 
L 106.0057 164.9196 
L 106.655659 165.648207 
L 106.980639 165.648207 
L 107.630598 165.192828 
L 107.955577 165.101752 
L 108.280557 165.37498 
L 108.605536 165.466055 
L 108.930516 165.283904 
L 109.905455 165.37498 
L 110.555414 165.557131 
L 111.205373 165.010676 
L 111.530352 165.010676 
L 111.855332 165.192828 
L 112.180311 165.557131 
L 112.505291 165.557131 
L 113.15525 165.283904 
L 113.480229 165.283904 
L 113.805209 165.466055 
L 114.455168 165.557131 
L 114.780147 165.192828 
L 115.430106 165.101752 
L 116.080066 165.37498 
L 117.055004 165.192828 
L 118.029943 165.648207 
L 118.354922 165.37498 
L 119.329861 165.192828 
L 119.65484 165.466055 
L 120.304799 165.192828 
L 120.629779 165.101752 
L 121.279738 165.466055 
L 121.929697 165.466055 
L 122.254676 165.192828 
L 122.579656 165.283904 
L 122.904636 165.557131 
L 124.529533 165.192828 
L 124.854513 165.466055 
L 125.504472 165.37498 
L 125.829451 165.192828 
L 126.154431 165.37498 
L 126.80439 165.466055 
L 127.129369 165.101752 
L 127.454349 165.101752 
L 128.429287 165.648207 
L 128.754267 165.283904 
L 129.079247 165.101752 
L 130.379165 165.37498 
L 131.354103 165.192828 
L 132.329042 165.466055 
L 132.654021 165.283904 
L 134.603898 165.192828 
L 134.928878 165.101752 
L 135.253857 165.283904 
L 137.203735 165.37498 
L 137.528714 165.466055 
L 137.853694 165.283904 
L 139.803571 165.283904 
L 140.778509 164.828524 
L 142.403407 165.648207 
L 142.728387 165.557131 
L 143.378346 164.46422 
L 143.703325 164.190993 
L 144.028305 164.737448 
L 144.678264 166.103587 
L 145.003243 165.921435 
L 145.978182 163.644537 
L 146.303161 164.646372 
L 146.628141 166.103587 
L 146.95312 166.650042 
L 147.2781 165.739283 
L 147.603079 164.282069 
L 147.928059 163.553461 
L 148.253038 164.282069 
L 148.578018 165.830359 
L 148.902998 166.650042 
L 149.227977 165.921435 
L 149.552957 164.373144 
L 149.877936 163.462385 
L 150.202916 164.190993 
L 150.527895 165.648207 
L 150.852875 166.467891 
L 151.177854 165.648207 
L 151.502834 164.190993 
L 151.827813 163.644537 
L 152.152793 164.373144 
L 152.477772 165.739283 
L 152.802752 166.103587 
L 153.127731 165.37498 
L 153.452711 164.190993 
L 153.77769 164.099917 
L 154.427649 165.648207 
L 154.752629 165.466055 
L 155.077609 164.737448 
L 155.402588 164.373144 
L 155.727568 164.646372 
L 156.052547 165.466055 
L 156.377527 165.466055 
L 157.027486 164.555296 
L 157.352465 164.737448 
L 157.677445 165.37498 
L 158.002424 165.739283 
L 158.327404 165.37498 
L 158.652383 164.646372 
L 158.977363 164.373144 
L 159.952301 165.648207 
L 160.60226 164.555296 
L 160.92724 164.555296 
L 161.577199 165.466055 
L 161.902179 165.37498 
L 162.552138 164.46422 
L 162.877117 164.646372 
L 163.202097 165.283904 
L 163.527076 165.648207 
L 164.177035 164.737448 
L 164.502015 164.555296 
L 164.826994 164.9196 
L 165.151974 165.466055 
L 165.476953 165.466055 
L 165.801933 165.101752 
L 166.126912 164.555296 
L 166.451892 164.737448 
L 167.101851 165.557131 
L 167.42683 165.283904 
L 168.07679 164.555296 
L 168.401769 164.828524 
L 168.726749 165.466055 
L 169.051728 165.557131 
L 169.701687 164.737448 
L 170.026667 164.646372 
L 170.351646 164.9196 
L 170.676626 165.37498 
L 171.001605 165.37498 
L 171.326585 164.828524 
L 171.651564 164.646372 
L 171.976544 164.646372 
L 172.626503 165.37498 
L 172.951482 165.192828 
L 173.601441 164.555296 
L 174.57638 165.283904 
L 175.226339 164.555296 
L 175.551319 164.646372 
L 176.201278 165.37498 
L 176.851237 164.9196 
L 177.176216 164.737448 
L 177.501196 164.828524 
L 178.151155 165.466055 
L 178.801114 164.646372 
L 179.451073 164.9196 
L 179.776052 165.192828 
L 180.101032 165.192828 
L 180.426011 164.9196 
L 181.075971 164.737448 
L 181.40095 165.101752 
L 181.72593 165.192828 
L 182.375889 164.737448 
L 183.025848 165.010676 
L 183.350827 165.37498 
L 184.325766 164.828524 
L 184.650745 164.828524 
L 184.975725 165.192828 
L 185.300704 165.283904 
L 185.625684 165.192828 
L 185.950663 164.9196 
L 186.275643 164.828524 
L 186.925602 165.101752 
L 187.250581 165.283904 
L 188.22552 164.828524 
L 188.5505 165.101752 
L 188.875479 165.192828 
L 189.200459 165.466055 
L 189.525438 165.466055 
L 189.850418 165.101752 
L 190.175397 164.9196 
L 190.500377 164.9196 
L 190.825356 165.283904 
L 191.150336 165.466055 
L 191.475315 165.283904 
L 191.800295 164.828524 
L 192.125274 164.646372 
L 192.450254 164.9196 
L 193.100213 165.648207 
L 194.075152 164.828524 
L 194.400131 164.9196 
L 194.725111 165.283904 
L 195.05009 165.466055 
L 195.37507 165.466055 
L 196.350008 165.010676 
L 196.674988 165.101752 
L 196.999967 165.466055 
L 197.324947 165.648207 
L 198.299885 165.101752 
L 198.949844 165.557131 
L 199.274824 165.557131 
L 199.599803 165.192828 
L 199.924783 165.010676 
L 200.249762 165.101752 
L 200.574742 165.466055 
L 200.899722 165.648207 
L 201.87466 164.9196 
L 202.849599 165.648207 
L 203.499558 165.101752 
L 203.824537 165.101752 
L 204.474496 165.557131 
L 204.799476 165.466055 
L 205.449435 165.010676 
L 206.099394 165.557131 
L 206.424373 165.648207 
L 206.749353 165.283904 
L 207.399312 165.010676 
L 208.049271 165.557131 
L 208.374251 165.557131 
L 209.02421 165.283904 
L 209.349189 165.283904 
L 209.999148 165.557131 
L 210.324128 165.466055 
L 210.649107 165.101752 
L 211.299066 165.101752 
L 211.949025 165.37498 
L 212.274005 165.37498 
L 212.598984 165.192828 
L 212.923964 165.192828 
L 213.248943 165.466055 
L 213.898903 165.557131 
L 214.548862 165.283904 
L 214.873841 165.192828 
L 215.5238 165.283904 
L 216.823718 165.37498 
L 217.473677 165.557131 
L 217.798657 165.466055 
L 218.123636 165.192828 
L 219.098575 165.37498 
L 220.073514 165.101752 
L 220.723473 165.466055 
L 221.373432 165.37498 
L 222.67335 165.37498 
L 223.323309 164.828524 
L 223.973268 165.648207 
L 224.298247 165.648207 
L 224.623227 165.283904 
L 224.948206 165.101752 
L 225.273186 165.192828 
L 225.598165 165.466055 
L 226.248124 165.37498 
L 227.223063 165.192828 
L 227.548043 165.466055 
L 227.873022 165.557131 
L 229.17294 165.283904 
L 229.49792 165.37498 
L 229.822899 165.283904 
L 230.147879 165.37498 
L 230.472858 165.192828 
L 231.122817 165.283904 
L 231.447797 165.466055 
L 232.097756 165.37498 
L 232.422735 165.283904 
L 233.072695 165.37498 
L 234.047633 165.283904 
L 234.697592 165.192828 
L 235.347551 165.466055 
L 235.672531 165.192828 
L 235.99751 165.192828 
L 236.647469 164.9196 
L 237.947387 165.648207 
L 238.272367 165.648207 
L 238.597346 165.466055 
L 239.247305 164.555296 
L 239.572285 164.373144 
L 239.897265 164.828524 
L 240.547224 166.103587 
L 240.872203 165.921435 
L 241.847142 163.735613 
L 242.172121 164.737448 
L 242.497101 166.103587 
L 242.82208 166.741118 
L 243.14706 165.830359 
L 243.472039 164.282069 
L 243.797019 163.644537 
L 244.121998 164.282069 
L 244.446978 165.921435 
L 244.771957 166.558967 
L 245.096937 165.921435 
L 245.421916 164.373144 
L 245.746896 163.553461 
L 246.071876 164.282069 
L 246.721835 166.558967 
L 247.046814 165.648207 
L 247.371794 164.282069 
L 247.696773 163.826689 
L 248.021753 164.555296 
L 248.346732 165.830359 
L 248.671712 166.194663 
L 248.996691 165.37498 
L 249.321671 164.190993 
L 249.64665 164.190993 
L 250.296609 165.648207 
L 250.621589 165.37498 
L 250.946568 164.737448 
L 251.271548 164.373144 
L 252.246486 165.557131 
L 252.571466 164.9196 
L 252.896446 164.555296 
L 253.221425 164.737448 
L 253.871384 165.739283 
L 254.196364 165.37498 
L 254.521343 164.646372 
L 254.846323 164.555296 
L 255.171302 164.737448 
L 255.496282 165.37498 
L 255.821261 165.557131 
L 256.47122 164.46422 
L 256.7962 164.555296 
L 257.446159 165.466055 
L 257.771138 165.37498 
L 258.421097 164.555296 
L 258.746077 164.828524 
L 259.071057 165.37498 
L 259.396036 165.466055 
L 260.370975 164.46422 
L 261.020934 165.37498 
L 261.345913 165.37498 
L 261.995872 164.555296 
L 262.320852 164.737448 
L 262.970811 165.466055 
L 263.29579 165.37498 
L 263.62077 164.828524 
L 263.945749 164.646372 
L 264.270729 164.9196 
L 264.595708 165.37498 
L 264.920688 165.466055 
L 265.570647 164.646372 
L 265.895627 164.555296 
L 266.220606 164.828524 
L 266.545586 165.37498 
L 266.870565 165.37498 
L 267.520524 164.555296 
L 267.845504 164.646372 
L 268.495463 165.466055 
L 269.145422 165.010676 
L 269.470401 164.646372 
L 269.795381 164.828524 
L 270.12036 165.283904 
L 270.44534 165.283904 
L 271.095299 164.555296 
L 271.420278 164.555296 
L 271.745258 165.101752 
L 272.070238 165.283904 
L 272.395217 165.192828 
L 273.045176 164.737448 
L 273.370156 164.9196 
L 273.695135 165.283904 
L 274.020115 165.466055 
L 274.995053 164.646372 
L 275.645012 165.283904 
L 276.294971 165.010676 
L 276.619951 164.737448 
L 276.94493 164.828524 
L 277.594889 165.283904 
L 277.919869 165.192828 
L 278.244848 164.9196 
L 278.894808 165.010676 
L 279.219787 165.37498 
L 279.544767 165.283904 
L 280.194726 164.828524 
L 280.519705 164.828524 
L 280.844685 165.192828 
L 281.494644 165.101752 
L 281.819623 164.828524 
L 282.144603 164.828524 
L 283.119541 165.283904 
L 284.09448 164.828524 
L 284.419459 165.192828 
L 284.744439 165.283904 
L 285.069419 165.557131 
L 285.394398 165.37498 
L 285.719378 165.010676 
L 286.369337 164.828524 
L 286.694316 165.283904 
L 287.019296 165.466055 
L 287.344275 165.37498 
L 287.994234 164.646372 
L 288.319214 164.9196 
L 288.644193 165.466055 
L 288.969173 165.648207 
L 289.294152 165.466055 
L 289.619132 165.101752 
L 289.944111 164.9196 
L 290.269091 164.9196 
L 290.59407 165.37498 
L 291.244029 165.466055 
L 291.893989 165.010676 
L 292.218968 164.9196 
L 292.868927 165.37498 
L 293.518886 165.466055 
L 293.843866 165.101752 
L 294.168845 165.010676 
L 294.818804 165.648207 
L 295.143784 165.557131 
L 295.793743 164.9196 
L 296.118722 164.9196 
L 296.443702 165.37498 
L 296.768681 165.557131 
L 297.093661 165.37498 
L 297.41864 164.828524 
L 297.74362 164.828524 
L 298.393579 165.557131 
L 298.718559 165.557131 
L 299.368518 165.101752 
L 299.693497 165.101752 
L 300.343456 165.648207 
L 301.318395 165.101752 
L 301.968354 165.557131 
L 302.293333 165.648207 
L 302.618313 165.283904 
L 302.943292 165.101752 
L 303.268272 165.101752 
L 304.24321 165.557131 
L 304.56819 165.37498 
L 305.543129 165.466055 
L 305.868108 165.557131 
L 306.193088 165.466055 
L 306.518067 165.192828 
L 307.168026 165.192828 
L 307.493006 165.37498 
L 309.117903 165.466055 
L 309.767862 165.557131 
L 310.417821 165.192828 
L 310.742801 165.192828 
L 311.39276 165.466055 
L 311.71774 165.283904 
L 312.692678 165.283904 
L 313.017658 165.557131 
L 313.667617 165.466055 
L 314.317576 165.37498 
L 314.967535 165.466055 
L 315.942473 165.283904 
L 316.917412 165.37498 
L 317.242391 165.466055 
L 317.567371 165.283904 
L 318.21733 165.466055 
L 318.54231 165.37498 
L 318.867289 165.101752 
L 319.192269 165.101752 
L 319.517248 165.466055 
L 319.842228 165.557131 
L 320.492187 165.283904 
L 320.817166 165.101752 
L 321.792105 165.466055 
L 322.117084 165.283904 
L 323.417002 165.37498 
L 324.066962 165.466055 
L 325.0419 165.283904 
L 325.691859 165.37498 
L 327.966716 165.283904 
L 328.291695 165.192828 
L 329.266634 165.466055 
L 330.566552 165.192828 
L 330.891532 165.37498 
L 331.541491 165.283904 
L 331.86647 165.192828 
L 332.19145 164.9196 
L 332.516429 164.828524 
L 332.841409 165.101752 
L 333.491368 165.37498 
L 334.141327 165.739283 
L 334.466306 165.557131 
L 335.441245 164.282069 
L 335.766224 164.737448 
L 336.416183 166.103587 
L 336.741163 166.012511 
L 337.391122 164.008841 
L 337.716102 163.735613 
L 338.366061 166.103587 
L 338.69104 166.558967 
L 339.01602 165.739283 
L 339.340999 164.282069 
L 339.665979 163.553461 
L 339.990958 164.373144 
L 340.315938 166.012511 
L 340.640917 166.650042 
L 340.965897 165.830359 
L 341.290876 164.282069 
L 341.615856 163.553461 
L 341.940835 164.282069 
L 342.265815 165.830359 
L 342.590794 166.467891 
L 342.915774 165.648207 
L 343.240753 164.282069 
L 343.565733 163.644537 
L 343.890713 164.46422 
L 344.215692 165.830359 
L 344.540672 166.194663 
L 345.190631 164.282069 
L 345.51561 164.190993 
L 346.165569 165.739283 
L 346.490549 165.466055 
L 346.815528 164.737448 
L 347.140508 164.373144 
L 347.790467 165.466055 
L 348.115446 165.37498 
L 348.440426 164.828524 
L 348.765405 164.555296 
L 349.090385 164.828524 
L 349.740344 165.739283 
L 350.715283 164.46422 
L 351.040262 164.828524 
L 351.365242 165.466055 
L 351.690221 165.648207 
L 352.34018 164.555296 
L 352.66516 164.555296 
L 353.315119 165.466055 
L 353.640098 165.37498 
L 353.965078 164.828524 
L 354.290057 164.646372 
L 354.615037 164.646372 
L 354.940016 165.37498 
L 355.264996 165.466055 
L 355.914955 164.646372 
L 356.239934 164.555296 
L 356.889894 165.557131 
L 357.214873 165.466055 
L 357.539853 164.9196 
L 357.864832 164.646372 
L 358.189812 164.737448 
L 358.839771 165.557131 
L 359.814709 164.555296 
L 360.464668 165.283904 
L 360.789648 165.466055 
L 361.439607 164.646372 
L 361.764586 164.555296 
L 362.089566 164.9196 
L 362.414545 165.466055 
L 362.739525 165.37498 
L 363.064505 164.828524 
L 363.389484 164.555296 
L 363.714464 164.555296 
L 364.039443 165.192828 
L 364.364423 165.37498 
L 364.689402 165.37498 
L 365.014382 164.828524 
L 365.339361 164.646372 
L 365.664341 164.828524 
L 365.98932 165.192828 
L 366.3143 165.192828 
L 366.964259 164.46422 
L 367.289238 164.555296 
L 367.614218 165.101752 
L 367.939197 165.37498 
L 368.264177 165.283904 
L 368.589156 164.828524 
L 368.914136 164.646372 
L 369.889075 165.37498 
L 370.539034 164.646372 
L 370.864013 164.646372 
L 371.188993 164.828524 
L 371.513972 165.192828 
L 372.163931 164.9196 
L 372.488911 164.646372 
L 373.463849 165.283904 
L 374.113808 164.737448 
L 375.088747 165.283904 
L 375.738706 165.010676 
L 376.063686 164.828524 
L 376.388665 164.828524 
L 376.713645 165.101752 
L 377.038624 165.192828 
L 377.363604 165.101752 
L 377.688583 164.828524 
L 378.013563 164.737448 
L 378.988501 165.283904 
L 379.96344 164.828524 
L 380.938378 165.466055 
L 381.263358 165.37498 
L 381.913317 164.9196 
L 382.238296 164.9196 
L 382.888256 165.557131 
L 383.863194 164.737448 
L 384.188174 164.9196 
L 384.838133 165.648207 
L 385.813071 164.828524 
L 386.46303 165.283904 
L 386.78801 165.557131 
L 387.112989 165.557131 
L 387.762948 165.010676 
L 388.412907 165.101752 
L 388.737887 165.466055 
L 389.062867 165.557131 
L 389.387846 165.192828 
L 390.037805 165.101752 
L 390.362785 165.283904 
L 390.687764 165.648207 
L 391.012744 165.648207 
L 391.662703 165.010676 
L 391.987682 165.101752 
L 392.312662 165.466055 
L 392.637641 165.466055 
L 393.61258 165.010676 
L 394.262539 165.557131 
L 394.587518 165.648207 
L 394.912498 165.283904 
L 395.562457 165.010676 
L 395.887437 165.37498 
L 396.537396 165.466055 
L 396.862375 165.192828 
L 397.187355 165.192828 
L 397.837314 165.557131 
L 398.162293 165.466055 
L 398.487273 165.192828 
L 398.487273 165.192828 
" clip-path="url(#pa6e8a0ff2c)" style="fill: none; stroke: #1f77b4; stroke-width: 1.5; stroke-linecap: square"/>
   </g>
   <g id="line2d_13">
    <path d="M 73.832727 295.442462 
L 77.407502 295.45157 
L 79.682359 295.433354 
L 84.557052 295.406032 
L 89.106765 295.424247 
L 91.706601 295.387816 
L 398.487273 295.387816 
L 398.487273 295.387816 
" clip-path="url(#pa6e8a0ff2c)" style="fill: none; stroke: #ff7f0e; stroke-width: 1.5; stroke-linecap: square"/>
   </g>
   <g id="line2d_14">
    <path d="M 73.832727 54.988784 
L 74.482686 55.298442 
L 74.807666 55.04343 
L 75.457625 54.041595 
L 75.782604 54.005164 
L 76.432563 54.187316 
L 77.082523 53.731937 
L 77.407502 53.804797 
L 78.057461 54.624481 
L 78.382441 54.697341 
L 78.70742 54.606265 
L 79.0324 54.697341 
L 79.682359 55.334873 
L 80.007338 55.371303 
L 80.982277 54.278392 
L 81.957215 54.806632 
L 82.607174 54.169101 
L 82.932154 54.223747 
L 83.582113 54.897708 
L 83.907093 54.861278 
L 84.557052 54.278392 
L 84.882031 54.460544 
L 85.207011 54.824848 
L 85.53199 54.952354 
L 86.506929 54.405898 
L 87.156888 54.970569 
L 87.481867 55.025215 
L 88.131826 54.496974 
L 88.456806 54.55162 
L 88.781785 54.751987 
L 89.106765 54.751987 
L 89.756724 54.041595 
L 90.081704 54.041595 
L 90.731663 54.642696 
L 91.706601 54.733772 
L 92.35656 55.334873 
L 92.68154 55.334873 
L 93.331499 54.569835 
L 93.656478 54.424114 
L 94.306437 54.569835 
L 94.631417 54.369468 
L 94.956396 53.968734 
L 95.281376 53.823013 
L 95.606355 54.114455 
L 96.256314 55.07986 
L 96.581294 55.170936 
L 97.231253 55.098075 
L 97.881212 55.243797 
L 98.206192 55.061645 
L 98.856151 54.314822 
L 99.18113 54.205531 
L 99.831089 54.496974 
L 100.806028 54.405898 
L 101.780966 54.897708 
L 102.430925 54.569835 
L 102.755905 54.679126 
L 103.080885 55.025215 
L 103.405864 55.11629 
L 104.380803 54.424114 
L 105.030762 54.934139 
L 105.355741 54.897708 
L 106.0057 54.296607 
L 106.33068 54.314822 
L 106.980639 54.788417 
L 107.955577 54.569835 
L 108.605536 55.134506 
L 108.930516 55.04343 
L 109.255495 54.770202 
L 109.580475 54.733772 
L 110.230434 55.170936 
L 110.555414 54.915923 
L 110.880393 54.442329 
L 111.205373 54.187316 
L 111.530352 54.405898 
L 111.855332 54.788417 
L 112.180311 54.861278 
L 112.83027 54.09624 
L 113.15525 54.169101 
L 113.805209 55.170936 
L 114.130188 55.189151 
L 114.455168 54.934139 
L 114.780147 54.879493 
L 115.430106 55.498809 
L 115.755086 55.353088 
L 116.405045 54.278392 
L 116.730025 54.132671 
L 117.379984 54.424114 
L 118.354922 54.132671 
L 119.329861 55.462379 
L 119.65484 55.243797 
L 119.97982 54.806632 
L 120.304799 54.58805 
L 120.954758 54.806632 
L 121.279738 54.58805 
L 121.929697 53.586215 
L 122.254676 53.677291 
L 122.904636 54.915923 
L 123.229615 55.134506 
L 123.879574 54.751987 
L 124.854513 54.861278 
L 125.829451 53.586215 
L 126.154431 53.695506 
L 126.47941 54.005164 
L 126.80439 54.150886 
L 127.129369 54.150886 
L 127.454349 54.296607 
L 128.104308 55.170936 
L 128.429287 55.334873 
L 129.079247 54.934139 
L 129.404226 54.934139 
L 129.729206 55.11629 
L 130.054185 55.152721 
L 131.029124 54.314822 
L 132.329042 54.241962 
L 133.62896 54.442329 
L 133.953939 54.314822 
L 134.278919 54.442329 
L 134.928878 55.11629 
L 135.253857 55.207366 
L 135.903817 55.025215 
L 136.553776 55.225581 
L 136.878755 55.11629 
L 137.528714 54.09624 
L 137.853694 53.914088 
L 138.503653 54.496974 
L 138.828632 54.478759 
L 139.478591 53.877658 
L 139.803571 54.114455 
L 140.45353 55.298442 
L 140.778509 55.353088 
L 141.103489 55.061645 
L 141.428468 54.934139 
L 141.753448 55.07986 
L 142.078428 55.389518 
L 142.403407 55.371303 
L 143.378346 54.132671 
L 144.028305 54.496974 
L 144.353284 54.442329 
L 145.003243 54.05981 
L 145.328223 54.169101 
L 146.303161 54.952354 
L 146.95312 55.225581 
L 147.928059 55.225581 
L 148.578018 54.915923 
L 149.227977 54.387683 
L 149.552957 54.241962 
L 150.852875 54.278392 
L 151.177854 54.205531 
L 151.502834 54.333038 
L 152.152793 55.170936 
L 152.477772 55.298442 
L 153.452711 54.861278 
L 154.10267 55.334873 
L 154.427649 55.280227 
L 155.077609 54.533405 
L 155.402588 54.369468 
L 156.052547 54.624481 
L 156.377527 54.533405 
L 156.702506 54.278392 
L 157.027486 54.187316 
L 157.352465 54.369468 
L 157.677445 54.788417 
L 158.002424 55.025215 
L 158.652383 54.733772 
L 158.977363 54.824848 
L 159.627322 55.444164 
L 159.952301 55.389518 
L 160.60226 54.660911 
L 160.92724 54.660911 
L 161.252219 54.861278 
L 161.577199 54.915923 
L 162.552138 53.968734 
L 162.877117 54.150886 
L 163.527076 54.824848 
L 164.177035 54.861278 
L 165.151974 55.316657 
L 165.476953 55.243797 
L 166.126912 54.861278 
L 166.776871 54.478759 
L 167.42683 53.950519 
L 167.75181 53.877658 
L 168.07679 54.05981 
L 168.726749 54.715556 
L 169.701687 54.970569 
L 170.026667 55.207366 
L 170.351646 55.262012 
L 170.676626 55.006999 
L 171.326585 54.078025 
L 171.651564 54.02338 
L 172.301523 54.169101 
L 172.951482 53.731937 
L 173.276462 53.841228 
L 173.926421 54.624481 
L 174.2514 54.679126 
L 174.57638 54.606265 
L 174.90136 54.715556 
L 175.551319 55.316657 
L 175.876298 55.353088 
L 176.851237 54.314822 
L 177.826175 54.824848 
L 178.476134 54.187316 
L 178.801114 54.260177 
L 179.451073 54.879493 
L 179.776052 54.843063 
L 180.101032 54.496974 
L 180.426011 54.333038 
L 180.750991 54.460544 
L 181.075971 54.806632 
L 181.40095 54.952354 
L 182.375889 54.442329 
L 183.025848 55.04343 
L 183.350827 55.025215 
L 184.000786 54.515189 
L 184.975725 54.751987 
L 185.625684 54.09624 
L 185.950663 54.05981 
L 186.600622 54.642696 
L 186.925602 54.697341 
L 187.250581 54.606265 
L 187.575561 54.715556 
L 188.22552 55.371303 
L 188.5505 55.316657 
L 189.525438 54.424114 
L 190.175397 54.569835 
L 191.150336 53.823013 
L 191.475315 54.114455 
L 192.125274 55.061645 
L 192.450254 55.152721 
L 192.775233 55.04343 
L 193.100213 55.061645 
L 193.425192 55.207366 
L 193.750172 55.225581 
L 194.075152 55.04343 
L 194.725111 54.296607 
L 195.05009 54.205531 
L 195.700049 54.478759 
L 196.025029 54.460544 
L 196.350008 54.314822 
L 196.674988 54.405898 
L 197.324947 54.915923 
L 197.649926 54.861278 
L 198.299885 54.515189 
L 199.274824 55.134506 
L 200.249762 54.424114 
L 200.899722 54.952354 
L 201.224701 54.934139 
L 201.87466 54.296607 
L 202.19964 54.333038 
L 202.849599 54.806632 
L 203.499558 54.515189 
L 203.824537 54.606265 
L 204.474496 55.152721 
L 204.799476 55.04343 
L 205.124455 54.788417 
L 205.449435 54.733772 
L 206.099394 55.170936 
L 206.424373 54.952354 
L 206.749353 54.424114 
L 207.074333 54.169101 
L 207.399312 54.369468 
L 207.724292 54.788417 
L 208.049271 54.843063 
L 208.69923 54.09624 
L 209.02421 54.205531 
L 209.674169 55.189151 
L 209.999148 55.170936 
L 210.324128 54.897708 
L 210.649107 54.861278 
L 211.299066 55.53524 
L 211.624046 55.371303 
L 212.274005 54.278392 
L 212.598984 54.114455 
L 213.248943 54.460544 
L 213.898903 54.114455 
L 214.223882 54.169101 
L 214.548862 54.55162 
L 214.873841 55.152721 
L 215.198821 55.444164 
L 215.5238 55.225581 
L 215.84878 54.806632 
L 216.173759 54.569835 
L 216.823718 54.824848 
L 217.148698 54.569835 
L 217.798657 53.60443 
L 218.123636 53.731937 
L 218.773595 54.915923 
L 219.098575 55.11629 
L 219.748534 54.733772 
L 220.723473 54.897708 
L 221.698411 53.568 
L 222.67335 54.150886 
L 222.998329 54.150886 
L 223.323309 54.333038 
L 223.973268 55.207366 
L 224.298247 55.334873 
L 224.948206 54.897708 
L 225.273186 54.915923 
L 225.598165 55.098075 
L 225.923145 55.11629 
L 226.898084 54.314822 
L 228.522981 54.296607 
L 229.17294 54.515189 
L 230.147879 54.405898 
L 230.797838 55.098075 
L 231.122817 55.189151 
L 231.772776 55.006999 
L 232.422735 55.225581 
L 232.747715 55.11629 
L 233.397674 54.078025 
L 233.722654 53.932304 
L 234.372613 54.515189 
L 234.697592 54.460544 
L 235.347551 53.841228 
L 235.672531 54.09624 
L 236.32249 55.316657 
L 236.647469 55.371303 
L 237.297428 54.934139 
L 238.272367 55.407733 
L 239.247305 54.078025 
L 239.572285 54.205531 
L 239.897265 54.460544 
L 240.222244 54.442329 
L 240.872203 54.005164 
L 241.197183 54.150886 
L 242.172121 54.934139 
L 242.82208 55.243797 
L 243.797019 55.207366 
L 244.121998 55.11629 
L 245.096937 54.369468 
L 245.746896 54.260177 
L 246.396855 54.351253 
L 247.046814 54.205531 
L 247.371794 54.333038 
L 248.021753 55.170936 
L 248.346732 55.280227 
L 248.996691 54.843063 
L 249.321671 54.897708 
L 249.97163 55.316657 
L 250.296609 55.262012 
L 251.271548 54.369468 
L 251.921507 54.606265 
L 252.571466 54.314822 
L 252.896446 54.187316 
L 253.221425 54.405898 
L 253.871384 55.006999 
L 254.521343 54.751987 
L 254.846323 54.843063 
L 255.496282 55.444164 
L 255.821261 55.371303 
L 256.47122 54.660911 
L 256.7962 54.679126 
L 257.121179 54.861278 
L 257.446159 54.897708 
L 258.421097 54.005164 
L 258.746077 54.150886 
L 259.396036 54.788417 
L 260.370975 55.006999 
L 261.020934 55.334873 
L 261.995872 54.861278 
L 262.645831 54.460544 
L 263.29579 53.914088 
L 263.62077 53.895873 
L 263.945749 54.09624 
L 264.595708 54.697341 
L 265.570647 54.988784 
L 265.895627 55.243797 
L 266.220606 55.316657 
L 266.545586 54.952354 
L 267.195545 54.041595 
L 267.520524 54.02338 
L 268.170483 54.169101 
L 268.820442 53.768367 
L 269.145422 53.877658 
L 269.795381 54.624481 
L 270.12036 54.660911 
L 270.44534 54.569835 
L 270.770319 54.697341 
L 271.420278 55.371303 
L 271.745258 55.334873 
L 272.720197 54.296607 
L 273.370156 54.806632 
L 273.695135 54.788417 
L 274.345094 54.150886 
L 274.670074 54.241962 
L 275.320033 54.915923 
L 275.645012 54.824848 
L 276.294971 54.278392 
L 277.26991 54.952354 
L 278.244848 54.405898 
L 278.894808 55.006999 
L 279.219787 55.006999 
L 279.869746 54.478759 
L 280.844685 54.751987 
L 281.494644 54.041595 
L 281.819623 54.078025 
L 282.469582 54.660911 
L 282.794562 54.697341 
L 283.119541 54.606265 
L 283.444521 54.733772 
L 284.09448 55.371303 
L 284.419459 55.334873 
L 285.069419 54.569835 
L 285.394398 54.424114 
L 286.044357 54.569835 
L 287.019296 53.841228 
L 287.344275 54.114455 
L 287.994234 55.061645 
L 288.319214 55.152721 
L 288.644193 55.04343 
L 288.969173 55.061645 
L 289.619132 55.262012 
L 289.944111 55.025215 
L 290.59407 54.260177 
L 290.91905 54.205531 
L 291.569009 54.478759 
L 292.543948 54.369468 
L 293.193907 54.915923 
L 293.518886 54.897708 
L 294.168845 54.55162 
L 294.493825 54.715556 
L 294.818804 55.025215 
L 295.143784 55.11629 
L 295.468763 54.897708 
L 295.793743 54.515189 
L 296.118722 54.442329 
L 296.768681 54.952354 
L 297.093661 54.934139 
L 297.74362 54.296607 
L 298.0686 54.333038 
L 298.718559 54.788417 
L 299.368518 54.515189 
L 299.693497 54.624481 
L 300.018477 54.970569 
L 300.343456 55.134506 
L 300.668436 55.04343 
L 300.993415 54.751987 
L 301.318395 54.715556 
L 301.968354 55.189151 
L 302.293333 54.952354 
L 302.943292 54.169101 
L 303.268272 54.405898 
L 303.593251 54.806632 
L 303.918231 54.861278 
L 304.56819 54.078025 
L 304.89317 54.223747 
L 305.543129 55.207366 
L 305.868108 55.207366 
L 306.193088 54.952354 
L 306.518067 54.915923 
L 307.168026 55.517024 
L 307.493006 55.371303 
L 308.142965 54.241962 
L 308.467944 54.09624 
L 309.117903 54.424114 
L 309.442883 54.333038 
L 309.767862 54.114455 
L 310.092842 54.132671 
L 311.067781 55.462379 
L 311.39276 55.243797 
L 311.71774 54.788417 
L 312.042719 54.569835 
L 312.692678 54.824848 
L 313.017658 54.606265 
L 313.667617 53.586215 
L 313.992596 53.713721 
L 314.642555 54.915923 
L 314.967535 55.11629 
L 315.617494 54.751987 
L 315.942473 54.788417 
L 316.267453 54.988784 
L 316.592432 54.879493 
L 317.567371 53.568 
L 317.892351 53.731937 
L 318.21733 54.05981 
L 318.54231 54.169101 
L 318.867289 54.132671 
L 319.192269 54.333038 
L 319.842228 55.207366 
L 320.167207 55.334873 
L 320.817166 54.952354 
L 321.142146 54.934139 
L 321.467125 55.098075 
L 321.792105 55.134506 
L 322.767043 54.314822 
L 324.716921 54.424114 
L 325.0419 54.496974 
L 325.691859 54.351253 
L 326.016839 54.460544 
L 326.991777 55.189151 
L 327.641736 55.025215 
L 328.616675 55.134506 
L 329.266634 54.09624 
L 329.591613 53.932304 
L 330.241572 54.478759 
L 330.566552 54.478759 
L 331.216511 53.877658 
L 331.541491 54.132671 
L 332.19145 55.316657 
L 332.516429 55.389518 
L 333.166388 54.915923 
L 333.491368 55.098075 
L 333.816347 55.407733 
L 334.141327 55.353088 
L 335.116265 54.09624 
L 335.441245 54.223747 
L 335.766224 54.478759 
L 336.091204 54.442329 
L 336.741163 54.005164 
L 337.066143 54.150886 
L 338.366061 55.11629 
L 339.01602 55.262012 
L 339.990958 55.134506 
L 340.965897 54.369468 
L 341.615856 54.296607 
L 342.590794 54.241962 
L 342.915774 54.187316 
L 343.240753 54.333038 
L 343.890713 55.170936 
L 344.215692 55.316657 
L 344.865651 54.861278 
L 345.190631 54.897708 
L 345.84059 55.280227 
L 346.165569 55.225581 
L 347.140508 54.369468 
L 347.790467 54.58805 
L 348.115446 54.533405 
L 348.765405 54.169101 
L 349.090385 54.369468 
L 349.740344 54.970569 
L 350.715283 54.824848 
L 351.365242 55.407733 
L 351.690221 55.353088 
L 352.34018 54.660911 
L 352.66516 54.679126 
L 352.990139 54.843063 
L 353.315119 54.879493 
L 354.290057 54.005164 
L 354.615037 54.205531 
L 355.264996 54.806632 
L 356.564914 55.207366 
L 356.889894 55.316657 
L 357.539853 55.006999 
L 358.514791 54.460544 
L 359.16475 53.914088 
L 359.48973 53.877658 
L 360.789648 54.824848 
L 361.439607 55.006999 
L 361.764586 55.243797 
L 362.089566 55.316657 
L 362.414545 55.006999 
L 363.064505 54.05981 
L 363.389484 54.02338 
L 364.039443 54.169101 
L 364.689402 53.731937 
L 365.014382 53.895873 
L 365.664341 54.624481 
L 365.98932 54.660911 
L 366.3143 54.569835 
L 366.639279 54.660911 
L 367.289238 55.371303 
L 367.614218 55.353088 
L 368.264177 54.460544 
L 368.589156 54.278392 
L 369.239115 54.788417 
L 369.564095 54.770202 
L 370.214054 54.205531 
L 370.539034 54.241962 
L 371.188993 54.897708 
L 371.513972 54.824848 
L 371.838952 54.478759 
L 372.163931 54.296607 
L 372.488911 54.496974 
L 372.81389 54.897708 
L 373.13887 54.970569 
L 373.788829 54.442329 
L 374.113808 54.460544 
L 374.763767 55.025215 
L 375.088747 55.025215 
L 375.738706 54.496974 
L 376.063686 54.58805 
L 376.388665 54.806632 
L 376.713645 54.733772 
L 377.363604 54.05981 
L 377.688583 54.09624 
L 378.338542 54.660911 
L 379.313481 54.788417 
L 379.96344 55.371303 
L 380.288419 55.298442 
L 381.263358 54.442329 
L 381.588337 54.569835 
L 381.913317 54.569835 
L 382.888256 53.877658 
L 383.213235 54.150886 
L 383.863194 55.061645 
L 384.188174 55.134506 
L 384.838133 55.098075 
L 385.488092 55.262012 
L 385.813071 55.061645 
L 386.46303 54.296607 
L 386.78801 54.241962 
L 387.437969 54.478759 
L 388.412907 54.424114 
L 389.062867 54.897708 
L 389.387846 54.897708 
L 390.037805 54.569835 
L 390.362785 54.733772 
L 390.687764 55.061645 
L 391.012744 55.152721 
L 391.987682 54.424114 
L 392.637641 54.952354 
L 392.962621 54.934139 
L 393.61258 54.314822 
L 393.937559 54.351253 
L 394.262539 54.679126 
L 394.587518 54.806632 
L 395.237477 54.515189 
L 395.562457 54.606265 
L 396.212416 55.170936 
L 396.537396 55.025215 
L 396.862375 54.751987 
L 397.187355 54.733772 
L 397.837314 55.152721 
L 398.162293 54.934139 
L 398.487273 54.442329 
L 398.487273 54.442329 
" clip-path="url(#pa6e8a0ff2c)" style="fill: none; stroke: #2ca02c; stroke-width: 1.5; stroke-linecap: square"/>
   </g>
   <g id="patch_3">
    <path d="M 57.6 307.584 
L 57.6 41.472 
" style="fill: none; stroke: #000000; stroke-width: 0.8; stroke-linejoin: miter; stroke-linecap: square"/>
   </g>
   <g id="patch_4">
    <path d="M 414.72 307.584 
L 414.72 41.472 
" style="fill: none; stroke: #000000; stroke-width: 0.8; stroke-linejoin: miter; stroke-linecap: square"/>
   </g>
   <g id="patch_5">
    <path d="M 57.6 307.584 
L 414.72 307.584 
" style="fill: none; stroke: #000000; stroke-width: 0.8; stroke-linejoin: miter; stroke-linecap: square"/>
   </g>
   <g id="patch_6">
    <path d="M 57.6 41.472 
L 414.72 41.472 
" style="fill: none; stroke: #000000; stroke-width: 0.8; stroke-linejoin: miter; stroke-linecap: square"/>
   </g>
  </g>
 </g>
 <defs>
  <clipPath id="pa6e8a0ff2c">
   <rect x="57.6" y="41.472" width="357.12" height="266.112"/>
  </clipPath>
 </defs>
</svg>
