<?xml version="1.0" encoding="utf-8" standalone="no"?>
<!DOCTYPE svg PUBLIC "-//W3C//DTD SVG 1.1//EN"
  "http://www.w3.org/Graphics/SVG/1.1/DTD/svg11.dtd">
<svg xmlns:xlink="http://www.w3.org/1999/xlink" width="460.8pt" height="345.6pt" viewBox="0 0 460.8 345.6" xmlns="http://www.w3.org/2000/svg" version="1.1">
 <metadata>
  <rdf:RDF xmlns:dc="http://purl.org/dc/elements/1.1/" xmlns:cc="http://creativecommons.org/ns#" xmlns:rdf="http://www.w3.org/1999/02/22-rdf-syntax-ns#">
   <cc:Work>
    <dc:type rdf:resource="http://purl.org/dc/dcmitype/StillImage"/>
    <dc:date>2025-12-30T07:06:42.687763</dc:date>
    <dc:format>image/svg+xml</dc:format>
    <dc:creator>
     <cc:Agent>
      <dc:title>Matplotlib v3.10.8, https://matplotlib.org/</dc:title>
     </cc:Agent>
    </dc:creator>
   </cc:Work>
  </rdf:RDF>
 </metadata>
 <defs>
  <style type="text/css">*{stroke-linejoin: round; stroke-linecap: butt}</style>
 </defs>
 <g id="figure_1">
  <g id="patch_1">
   <path d="M 0 345.6 
L 460.8 345.6 
L 460.8 0 
L 0 0 
z
" style="fill: #ffffff"/>
  </g>
  <g id="axes_1">
   <g id="patch_2">
    <path d="M 57.6 307.584 
L 414.72 307.584 
L 414.72 41.472 
L 57.6 41.472 
z
" style="fill: #ffffff"/>
   </g>
   <g id="matplotlib.axis_1">
    <g id="xtick_1">
     <g id="line2d_1">
      <defs>
       <path id="m2308d8d676" d="M 0 0 
L 0 3.5 
" style="stroke: #000000; stroke-width: 0.8"/>
      </defs>
      <g>
       <use xlink:href="#m2308d8d676" x="73.832727" y="307.584" style="stroke: #000000; stroke-width: 0.8"/>
      </g>
     </g>
     <g id="text_1">
      <!-- 0 -->
      <g transform="translate(70.651477 322.182437) scale(0.1 -0.1)">
       <defs>
        <path id="DejaVuSans-30" d="M 2034 4250 
Q 1547 4250 1301 3770 
Q 1056 3291 1056 2328 
Q 1056 1369 1301 889 
Q 1547 409 2034 409 
Q 2525 409 2770 889 
Q 3016 1369 3016 2328 
Q 3016 3291 2770 3770 
Q 2525 4250 2034 4250 
z
M 2034 4750 
Q 2819 4750 3233 4129 
Q 3647 3509 3647 2328 
Q 3647 1150 3233 529 
Q 2819 -91 2034 -91 
Q 1250 -91 836 529 
Q 422 1150 422 2328 
Q 422 3509 836 4129 
Q 1250 4750 2034 4750 
z
" transform="scale(0.015625)"/>
       </defs>
       <use xlink:href="#DejaVuSans-30"/>
      </g>
     </g>
    </g>
    <g id="xtick_2">
     <g id="line2d_2">
      <g>
       <use xlink:href="#m2308d8d676" x="138.828632" y="307.584" style="stroke: #000000; stroke-width: 0.8"/>
      </g>
     </g>
     <g id="text_2">
      <!-- 1 -->
      <g transform="translate(135.647382 322.182437) scale(0.1 -0.1)">
       <defs>
        <path id="DejaVuSans-31" d="M 794 531 
L 1825 531 
L 1825 4091 
L 703 3866 
L 703 4441 
L 1819 4666 
L 2450 4666 
L 2450 531 
L 3481 531 
L 3481 0 
L 794 0 
L 794 531 
z
" transform="scale(0.015625)"/>
       </defs>
       <use xlink:href="#DejaVuSans-31"/>
      </g>
     </g>
    </g>
    <g id="xtick_3">
     <g id="line2d_3">
      <g>
       <use xlink:href="#m2308d8d676" x="203.824537" y="307.584" style="stroke: #000000; stroke-width: 0.8"/>
      </g>
     </g>
     <g id="text_3">
      <!-- 2 -->
      <g transform="translate(200.643287 322.182437) scale(0.1 -0.1)">
       <defs>
        <path id="DejaVuSans-32" d="M 1228 531 
L 3431 531 
L 3431 0 
L 469 0 
L 469 531 
Q 828 903 1448 1529 
Q 2069 2156 2228 2338 
Q 2531 2678 2651 2914 
Q 2772 3150 2772 3378 
Q 2772 3750 2511 3984 
Q 2250 4219 1831 4219 
Q 1534 4219 1204 4116 
Q 875 4013 500 3803 
L 500 4441 
Q 881 4594 1212 4672 
Q 1544 4750 1819 4750 
Q 2544 4750 2975 4387 
Q 3406 4025 3406 3419 
Q 3406 3131 3298 2873 
Q 3191 2616 2906 2266 
Q 2828 2175 2409 1742 
Q 1991 1309 1228 531 
z
" transform="scale(0.015625)"/>
       </defs>
       <use xlink:href="#DejaVuSans-32"/>
      </g>
     </g>
    </g>
    <g id="xtick_4">
     <g id="line2d_4">
      <g>
       <use xlink:href="#m2308d8d676" x="268.820442" y="307.584" style="stroke: #000000; stroke-width: 0.8"/>
      </g>
     </g>
     <g id="text_4">
      <!-- 3 -->
      <g transform="translate(265.639192 322.182437) scale(0.1 -0.1)">
       <defs>
        <path id="DejaVuSans-33" d="M 2597 2516 
Q 3050 2419 3304 2112 
Q 3559 1806 3559 1356 
Q 3559 666 3084 287 
Q 2609 -91 1734 -91 
Q 1441 -91 1130 -33 
Q 819 25 488 141 
L 488 750 
Q 750 597 1062 519 
Q 1375 441 1716 441 
Q 2309 441 2620 675 
Q 2931 909 2931 1356 
Q 2931 1769 2642 2001 
Q 2353 2234 1838 2234 
L 1294 2234 
L 1294 2753 
L 1863 2753 
Q 2328 2753 2575 2939 
Q 2822 3125 2822 3475 
Q 2822 3834 2567 4026 
Q 2313 4219 1838 4219 
Q 1578 4219 1281 4162 
Q 984 4106 628 3988 
L 628 4550 
Q 988 4650 1302 4700 
Q 1616 4750 1894 4750 
Q 2613 4750 3031 4423 
Q 3450 4097 3450 3541 
Q 3450 3153 3228 2886 
Q 3006 2619 2597 2516 
z
" transform="scale(0.015625)"/>
       </defs>
       <use xlink:href="#DejaVuSans-33"/>
      </g>
     </g>
    </g>
    <g id="xtick_5">
     <g id="line2d_5">
      <g>
       <use xlink:href="#m2308d8d676" x="333.816347" y="307.584" style="stroke: #000000; stroke-width: 0.8"/>
      </g>
     </g>
     <g id="text_5">
      <!-- 4 -->
      <g transform="translate(330.635097 322.182437) scale(0.1 -0.1)">
       <defs>
        <path id="DejaVuSans-34" d="M 2419 4116 
L 825 1625 
L 2419 1625 
L 2419 4116 
z
M 2253 4666 
L 3047 4666 
L 3047 1625 
L 3713 1625 
L 3713 1100 
L 3047 1100 
L 3047 0 
L 2419 0 
L 2419 1100 
L 313 1100 
L 313 1709 
L 2253 4666 
z
" transform="scale(0.015625)"/>
       </defs>
       <use xlink:href="#DejaVuSans-34"/>
      </g>
     </g>
    </g>
    <g id="xtick_6">
     <g id="line2d_6">
      <g>
       <use xlink:href="#m2308d8d676" x="398.812252" y="307.584" style="stroke: #000000; stroke-width: 0.8"/>
      </g>
     </g>
     <g id="text_6">
      <!-- 5 -->
      <g transform="translate(395.631002 322.182437) scale(0.1 -0.1)">
       <defs>
        <path id="DejaVuSans-35" d="M 691 4666 
L 3169 4666 
L 3169 4134 
L 1269 4134 
L 1269 2991 
Q 1406 3038 1543 3061 
Q 1681 3084 1819 3084 
Q 2600 3084 3056 2656 
Q 3513 2228 3513 1497 
Q 3513 744 3044 326 
Q 2575 -91 1722 -91 
Q 1428 -91 1123 -41 
Q 819 9 494 109 
L 494 744 
Q 775 591 1075 516 
Q 1375 441 1709 441 
Q 2250 441 2565 725 
Q 2881 1009 2881 1497 
Q 2881 1984 2565 2268 
Q 2250 2553 1709 2553 
Q 1456 2553 1204 2497 
Q 953 2441 691 2322 
L 691 4666 
z
" transform="scale(0.015625)"/>
       </defs>
       <use xlink:href="#DejaVuSans-35"/>
      </g>
     </g>
    </g>
    <g id="text_7">
     <!-- 1e−7 -->
     <g transform="translate(387.462188 334.860562) scale(0.1 -0.1)">
      <defs>
       <path id="DejaVuSans-65" d="M 3597 1894 
L 3597 1613 
L 953 1613 
Q 991 1019 1311 708 
Q 1631 397 2203 397 
Q 2534 397 2845 478 
Q 3156 559 3463 722 
L 3463 178 
Q 3153 47 2828 -22 
Q 2503 -91 2169 -91 
Q 1331 -91 842 396 
Q 353 884 353 1716 
Q 353 2575 817 3079 
Q 1281 3584 2069 3584 
Q 2775 3584 3186 3129 
Q 3597 2675 3597 1894 
z
M 3022 2063 
Q 3016 2534 2758 2815 
Q 2500 3097 2075 3097 
Q 1594 3097 1305 2825 
Q 1016 2553 972 2059 
L 3022 2063 
z
" transform="scale(0.015625)"/>
       <path id="DejaVuSans-2212" d="M 678 2272 
L 4684 2272 
L 4684 1741 
L 678 1741 
L 678 2272 
z
" transform="scale(0.015625)"/>
       <path id="DejaVuSans-37" d="M 525 4666 
L 3525 4666 
L 3525 4397 
L 1831 0 
L 1172 0 
L 2766 4134 
L 525 4134 
L 525 4666 
z
" transform="scale(0.015625)"/>
      </defs>
      <use xlink:href="#DejaVuSans-31"/>
      <use xlink:href="#DejaVuSans-65" transform="translate(63.623047 0)"/>
      <use xlink:href="#DejaVuSans-2212" transform="translate(125.146484 0)"/>
      <use xlink:href="#DejaVuSans-37" transform="translate(208.935547 0)"/>
     </g>
    </g>
   </g>
   <g id="matplotlib.axis_2">
    <g id="ytick_1">
     <g id="line2d_7">
      <defs>
       <path id="mcda32860a5" d="M 0 0 
L -3.5 0 
" style="stroke: #000000; stroke-width: 0.8"/>
      </defs>
      <g>
       <use xlink:href="#mcda32860a5" x="57.6" y="270.207872" style="stroke: #000000; stroke-width: 0.8"/>
      </g>
     </g>
     <g id="text_8">
      <!-- −200 -->
      <g transform="translate(23.132812 274.007091) scale(0.1 -0.1)">
       <use xlink:href="#DejaVuSans-2212"/>
       <use xlink:href="#DejaVuSans-32" transform="translate(83.789062 0)"/>
       <use xlink:href="#DejaVuSans-30" transform="translate(147.412109 0)"/>
       <use xlink:href="#DejaVuSans-30" transform="translate(211.035156 0)"/>
      </g>
     </g>
    </g>
    <g id="ytick_2">
     <g id="line2d_8">
      <g>
       <use xlink:href="#mcda32860a5" x="57.6" y="219.596983" style="stroke: #000000; stroke-width: 0.8"/>
      </g>
     </g>
     <g id="text_9">
      <!-- −100 -->
      <g transform="translate(23.132812 223.396202) scale(0.1 -0.1)">
       <use xlink:href="#DejaVuSans-2212"/>
       <use xlink:href="#DejaVuSans-31" transform="translate(83.789062 0)"/>
       <use xlink:href="#DejaVuSans-30" transform="translate(147.412109 0)"/>
       <use xlink:href="#DejaVuSans-30" transform="translate(211.035156 0)"/>
      </g>
     </g>
    </g>
    <g id="ytick_3">
     <g id="line2d_9">
      <g>
       <use xlink:href="#mcda32860a5" x="57.6" y="168.986094" style="stroke: #000000; stroke-width: 0.8"/>
      </g>
     </g>
     <g id="text_10">
      <!-- 0 -->
      <g transform="translate(44.2375 172.785312) scale(0.1 -0.1)">
       <use xlink:href="#DejaVuSans-30"/>
      </g>
     </g>
    </g>
    <g id="ytick_4">
     <g id="line2d_10">
      <g>
       <use xlink:href="#mcda32860a5" x="57.6" y="118.375204" style="stroke: #000000; stroke-width: 0.8"/>
      </g>
     </g>
     <g id="text_11">
      <!-- 100 -->
      <g transform="translate(31.5125 122.174423) scale(0.1 -0.1)">
       <use xlink:href="#DejaVuSans-31"/>
       <use xlink:href="#DejaVuSans-30" transform="translate(63.623047 0)"/>
       <use xlink:href="#DejaVuSans-30" transform="translate(127.246094 0)"/>
      </g>
     </g>
    </g>
    <g id="ytick_5">
     <g id="line2d_11">
      <g>
       <use xlink:href="#mcda32860a5" x="57.6" y="67.764315" style="stroke: #000000; stroke-width: 0.8"/>
      </g>
     </g>
     <g id="text_12">
      <!-- 200 -->
      <g transform="translate(31.5125 71.563534) scale(0.1 -0.1)">
       <use xlink:href="#DejaVuSans-32"/>
       <use xlink:href="#DejaVuSans-30" transform="translate(63.623047 0)"/>
       <use xlink:href="#DejaVuSans-30" transform="translate(127.246094 0)"/>
      </g>
     </g>
    </g>
   </g>
   <g id="line2d_12">
    <path d="M 73.832727 202.237472 
L 74.482686 186.421571 
L 74.807666 189.584751 
L 75.132645 189.584751 
L 75.782604 183.25839 
L 76.107584 183.25839 
L 76.432563 176.93203 
L 76.757543 180.09521 
L 77.082523 176.93203 
L 78.057461 176.93203 
L 78.382441 170.605669 
L 78.70742 167.442489 
L 79.0324 170.605669 
L 79.357379 167.442489 
L 79.682359 161.116129 
L 80.332318 161.116129 
L 80.982277 154.789768 
L 81.307256 154.789768 
L 81.632236 148.463408 
L 81.957215 151.626588 
L 82.607174 145.300227 
L 83.257133 145.300227 
L 83.582113 138.973867 
L 84.232072 138.973867 
L 84.882031 132.647506 
L 85.207011 132.647506 
L 85.53199 129.484326 
L 85.85697 132.647506 
L 86.831908 123.157966 
L 87.156888 129.484326 
L 87.481867 123.157966 
L 87.806847 119.994785 
L 88.131826 119.994785 
L 88.456806 123.157966 
L 88.781785 116.831605 
L 89.106765 116.831605 
L 89.431744 119.994785 
L 89.756724 113.668425 
L 90.081704 110.505245 
L 91.056642 110.505245 
L 92.031581 101.015704 
L 92.35656 104.178884 
L 92.68154 101.015704 
L 93.656478 101.015704 
L 93.981458 94.689343 
L 94.306437 97.852524 
L 94.631417 97.852524 
L 94.956396 94.689343 
L 95.281376 88.362983 
L 96.256314 88.362983 
L 97.231253 78.873442 
L 97.556233 82.036622 
L 97.881212 75.710262 
L 98.206192 75.710262 
L 98.531171 72.547082 
L 98.856151 75.710262 
L 99.50611 69.383901 
L 99.831089 72.547082 
L 100.156069 66.220721 
L 100.481048 63.057541 
L 100.806028 66.220721 
L 101.131007 63.057541 
L 101.780966 63.057541 
L 102.430925 56.73118 
L 102.755905 59.894361 
L 103.080885 59.894361 
L 103.405864 53.568 
L 104.055823 59.894361 
L 105.355741 59.894361 
L 105.680721 56.73118 
L 106.0057 59.894361 
L 106.33068 59.894361 
L 106.655659 63.057541 
L 106.980639 59.894361 
L 107.630598 59.894361 
L 108.280557 66.220721 
L 108.605536 63.057541 
L 109.255495 69.383901 
L 109.580475 66.220721 
L 110.230434 72.547082 
L 110.555414 69.383901 
L 110.880393 69.383901 
L 111.205373 75.710262 
L 111.530352 75.710262 
L 111.855332 78.873442 
L 112.83027 78.873442 
L 113.15525 85.199803 
L 113.805209 85.199803 
L 114.130188 88.362983 
L 114.455168 94.689343 
L 114.780147 91.526163 
L 115.105127 97.852524 
L 116.080066 97.852524 
L 116.730025 104.178884 
L 117.055004 110.505245 
L 117.379984 107.342064 
L 117.704963 110.505245 
L 118.029943 110.505245 
L 118.354922 116.831605 
L 118.679902 116.831605 
L 119.65484 126.321146 
L 119.97982 123.157966 
L 120.304799 126.321146 
L 120.629779 132.647506 
L 121.279738 132.647506 
L 121.929697 138.973867 
L 122.254676 138.973867 
L 122.904636 145.300227 
L 123.229615 145.300227 
L 123.554595 148.463408 
L 124.204554 148.463408 
L 124.529533 154.789768 
L 124.854513 157.952948 
L 125.179492 157.952948 
L 125.504472 161.116129 
L 125.829451 167.442489 
L 126.47941 161.116129 
L 126.80439 167.442489 
L 127.454349 173.76885 
L 127.779328 170.605669 
L 128.104308 173.76885 
L 128.429287 173.76885 
L 128.754267 180.09521 
L 129.404226 180.09521 
L 129.729206 183.25839 
L 130.054185 189.584751 
L 130.379165 183.25839 
L 130.704144 189.584751 
L 131.029124 192.747931 
L 131.354103 189.584751 
L 132.004062 195.911111 
L 132.329042 195.911111 
L 132.654021 202.237472 
L 133.62896 202.237472 
L 133.953939 208.563832 
L 134.603898 208.563832 
L 135.253857 214.890193 
L 135.903817 214.890193 
L 136.228796 218.053373 
L 136.878755 218.053373 
L 137.203735 224.379734 
L 137.528714 224.379734 
L 137.853694 227.542914 
L 138.503653 227.542914 
L 138.828632 224.379734 
L 139.478591 230.706094 
L 139.803571 230.706094 
L 140.12855 233.869274 
L 140.45353 240.195635 
L 140.778509 237.032455 
L 141.103489 237.032455 
L 141.428468 243.358815 
L 141.753448 240.195635 
L 142.078428 240.195635 
L 142.403407 243.358815 
L 142.728387 243.358815 
L 143.703325 252.848356 
L 144.028305 249.685176 
L 144.353284 256.011536 
L 144.678264 256.011536 
L 145.003243 259.174716 
L 145.328223 259.174716 
L 145.653202 262.337897 
L 145.978182 262.337897 
L 146.628141 268.664257 
L 146.95312 265.501077 
L 147.2781 268.664257 
L 147.603079 268.664257 
L 147.928059 274.990618 
L 148.253038 271.827437 
L 148.578018 278.153798 
L 148.902998 274.990618 
L 149.227977 274.990618 
L 149.552957 278.153798 
L 150.202916 278.153798 
L 150.852875 284.480158 
L 151.177854 278.153798 
L 151.827813 284.480158 
L 152.152793 281.316978 
L 154.10267 281.316978 
L 154.427649 278.153798 
L 154.752629 281.316978 
L 155.402588 274.990618 
L 155.727568 274.990618 
L 156.052547 278.153798 
L 156.377527 274.990618 
L 156.702506 274.990618 
L 157.027486 271.827437 
L 157.352465 271.827437 
L 157.677445 268.664257 
L 158.327404 268.664257 
L 158.977363 262.337897 
L 159.302342 265.501077 
L 159.627322 259.174716 
L 159.952301 262.337897 
L 160.60226 256.011536 
L 161.252219 256.011536 
L 161.902179 249.685176 
L 162.227158 249.685176 
L 163.202097 240.195635 
L 163.852056 240.195635 
L 164.502015 233.869274 
L 164.826994 227.542914 
L 165.151974 227.542914 
L 165.801933 221.216553 
L 166.126912 224.379734 
L 166.451892 221.216553 
L 166.776871 214.890193 
L 167.101851 211.727013 
L 167.42683 214.890193 
L 167.75181 208.563832 
L 168.07679 205.400652 
L 168.401769 205.400652 
L 168.726749 202.237472 
L 169.051728 202.237472 
L 169.376708 195.911111 
L 169.701687 195.911111 
L 170.026667 192.747931 
L 170.351646 195.911111 
L 171.326585 186.421571 
L 171.651564 186.421571 
L 172.301523 180.09521 
L 172.626503 183.25839 
L 172.951482 176.93203 
L 173.276462 176.93203 
L 173.601441 173.76885 
L 173.926421 173.76885 
L 174.2514 170.605669 
L 174.57638 170.605669 
L 175.226339 164.279309 
L 175.551319 164.279309 
L 175.876298 161.116129 
L 176.201278 161.116129 
L 176.526257 157.952948 
L 176.851237 157.952948 
L 177.176216 151.626588 
L 177.501196 154.789768 
L 178.476134 145.300227 
L 179.126093 145.300227 
L 179.451073 142.137047 
L 179.776052 142.137047 
L 180.101032 138.973867 
L 180.426011 132.647506 
L 180.750991 135.810687 
L 181.40095 129.484326 
L 181.72593 132.647506 
L 182.375889 126.321146 
L 183.025848 126.321146 
L 183.350827 119.994785 
L 183.675807 119.994785 
L 184.000786 116.831605 
L 184.325766 123.157966 
L 184.650745 116.831605 
L 184.975725 116.831605 
L 185.625684 110.505245 
L 186.275643 110.505245 
L 186.600622 107.342064 
L 186.925602 110.505245 
L 187.250581 110.505245 
L 187.575561 107.342064 
L 187.900541 101.015704 
L 188.22552 104.178884 
L 188.875479 97.852524 
L 189.525438 97.852524 
L 189.850418 101.015704 
L 190.500377 94.689343 
L 190.825356 88.362983 
L 191.150336 91.526163 
L 191.800295 85.199803 
L 192.125274 85.199803 
L 192.450254 88.362983 
L 192.775233 82.036622 
L 193.425192 82.036622 
L 193.750172 75.710262 
L 194.075152 72.547082 
L 195.05009 72.547082 
L 195.37507 69.383901 
L 195.700049 69.383901 
L 196.025029 63.057541 
L 196.350008 66.220721 
L 196.674988 63.057541 
L 196.999967 63.057541 
L 197.324947 59.894361 
L 197.649926 63.057541 
L 197.974906 59.894361 
L 198.299885 59.894361 
L 198.624865 63.057541 
L 198.949844 56.73118 
L 199.599803 56.73118 
L 199.924783 59.894361 
L 200.249762 59.894361 
L 200.574742 56.73118 
L 200.899722 56.73118 
L 201.224701 53.568 
L 201.549681 56.73118 
L 202.524619 56.73118 
L 202.849599 63.057541 
L 203.499558 63.057541 
L 203.824537 69.383901 
L 204.149517 63.057541 
L 204.799476 63.057541 
L 205.449435 69.383901 
L 205.774414 69.383901 
L 206.099394 72.547082 
L 206.424373 69.383901 
L 206.749353 72.547082 
L 207.399312 72.547082 
L 207.724292 78.873442 
L 208.049271 82.036622 
L 208.374251 78.873442 
L 208.69923 82.036622 
L 209.02421 88.362983 
L 209.349189 85.199803 
L 209.674169 85.199803 
L 210.324128 91.526163 
L 210.649107 97.852524 
L 210.974087 97.852524 
L 211.299066 94.689343 
L 211.624046 94.689343 
L 211.949025 104.178884 
L 212.274005 101.015704 
L 212.598984 101.015704 
L 212.923964 107.342064 
L 213.573923 113.668425 
L 213.898903 113.668425 
L 214.223882 116.831605 
L 214.548862 116.831605 
L 215.198821 123.157966 
L 215.5238 123.157966 
L 215.84878 129.484326 
L 216.173759 126.321146 
L 216.498739 129.484326 
L 216.823718 126.321146 
L 217.148698 135.810687 
L 217.473677 135.810687 
L 218.448616 145.300227 
L 219.098575 145.300227 
L 219.423554 151.626588 
L 220.723473 151.626588 
L 221.048452 157.952948 
L 221.373432 157.952948 
L 221.698411 161.116129 
L 222.023391 161.116129 
L 222.34837 167.442489 
L 223.323309 167.442489 
L 223.648288 173.76885 
L 223.973268 173.76885 
L 224.623227 180.09521 
L 225.273186 180.09521 
L 225.598165 186.421571 
L 225.923145 186.421571 
L 226.248124 189.584751 
L 227.223063 189.584751 
L 227.548043 195.911111 
L 228.198002 195.911111 
L 228.847961 202.237472 
L 229.17294 202.237472 
L 229.822899 208.563832 
L 230.472858 208.563832 
L 231.122817 214.890193 
L 231.447797 214.890193 
L 231.772776 218.053373 
L 232.097756 214.890193 
L 232.422735 214.890193 
L 233.072695 221.216553 
L 233.397674 221.216553 
L 233.722654 224.379734 
L 234.047633 230.706094 
L 234.372613 227.542914 
L 234.697592 227.542914 
L 235.022572 230.706094 
L 235.347551 230.706094 
L 235.672531 227.542914 
L 235.99751 233.869274 
L 236.32249 237.032455 
L 236.972449 237.032455 
L 237.297428 240.195635 
L 237.622408 237.032455 
L 237.947387 246.521995 
L 238.272367 246.521995 
L 238.597346 243.358815 
L 238.922326 249.685176 
L 239.572285 249.685176 
L 240.222244 256.011536 
L 240.547224 256.011536 
L 240.872203 252.848356 
L 241.197183 262.337897 
L 241.522162 262.337897 
L 241.847142 265.501077 
L 242.172121 262.337897 
L 242.497101 265.501077 
L 242.82208 265.501077 
L 243.14706 271.827437 
L 243.472039 268.664257 
L 244.446978 278.153798 
L 244.771957 271.827437 
L 245.096937 278.153798 
L 245.421916 278.153798 
L 245.746896 281.316978 
L 246.071876 278.153798 
L 246.396855 281.316978 
L 247.371794 281.316978 
L 247.696773 278.153798 
L 248.346732 284.480158 
L 248.996691 278.153798 
L 249.321671 281.316978 
L 249.64665 281.316978 
L 249.97163 278.153798 
L 250.296609 281.316978 
L 250.621589 281.316978 
L 251.271548 274.990618 
L 251.921507 274.990618 
L 252.246486 271.827437 
L 252.896446 271.827437 
L 253.221425 265.501077 
L 253.546405 274.990618 
L 253.871384 265.501077 
L 254.196364 262.337897 
L 254.521343 265.501077 
L 254.846323 265.501077 
L 255.496282 259.174716 
L 256.146241 259.174716 
L 256.47122 256.011536 
L 256.7962 256.011536 
L 257.446159 249.685176 
L 257.771138 249.685176 
L 258.421097 243.358815 
L 258.746077 246.521995 
L 259.071057 240.195635 
L 259.396036 237.032455 
L 259.721016 240.195635 
L 261.670893 221.216553 
L 261.995872 221.216553 
L 262.645831 214.890193 
L 262.970811 214.890193 
L 263.945749 205.400652 
L 264.270729 205.400652 
L 264.595708 199.074292 
L 264.920688 202.237472 
L 265.245667 202.237472 
L 265.570647 195.911111 
L 265.895627 195.911111 
L 266.220606 192.747931 
L 266.545586 192.747931 
L 266.870565 186.421571 
L 267.520524 186.421571 
L 268.495463 176.93203 
L 268.820442 176.93203 
L 269.145422 180.09521 
L 269.795381 167.442489 
L 270.12036 170.605669 
L 270.44534 170.605669 
L 271.095299 164.279309 
L 271.420278 164.279309 
L 272.070238 157.952948 
L 272.395217 161.116129 
L 272.720197 157.952948 
L 273.045176 157.952948 
L 273.370156 151.626588 
L 273.695135 151.626588 
L 274.020115 145.300227 
L 274.670074 145.300227 
L 274.995053 138.973867 
L 275.320033 142.137047 
L 275.969992 135.810687 
L 276.619951 135.810687 
L 276.94493 132.647506 
L 277.26991 126.321146 
L 277.594889 132.647506 
L 277.919869 126.321146 
L 278.244848 129.484326 
L 278.569828 123.157966 
L 278.894808 123.157966 
L 279.219787 119.994785 
L 279.544767 123.157966 
L 279.869746 116.831605 
L 280.844685 116.831605 
L 281.169664 113.668425 
L 281.819623 113.668425 
L 282.469582 107.342064 
L 283.119541 107.342064 
L 283.444521 104.178884 
L 283.7695 107.342064 
L 284.09448 107.342064 
L 284.419459 97.852524 
L 284.744439 104.178884 
L 285.069419 97.852524 
L 285.394398 94.689343 
L 285.719378 97.852524 
L 286.044357 97.852524 
L 286.369337 91.526163 
L 286.694316 94.689343 
L 287.019296 94.689343 
L 287.344275 88.362983 
L 287.669255 85.199803 
L 287.994234 88.362983 
L 288.319214 85.199803 
L 288.644193 85.199803 
L 288.969173 78.873442 
L 289.294152 78.873442 
L 289.619132 72.547082 
L 289.944111 78.873442 
L 290.269091 72.547082 
L 290.59407 69.383901 
L 290.91905 72.547082 
L 291.244029 72.547082 
L 291.569009 66.220721 
L 291.893989 66.220721 
L 292.218968 69.383901 
L 292.543948 63.057541 
L 292.868927 59.894361 
L 293.193907 63.057541 
L 293.518886 59.894361 
L 293.843866 63.057541 
L 294.168845 63.057541 
L 294.493825 59.894361 
L 294.818804 53.568 
L 295.143784 59.894361 
L 295.468763 59.894361 
L 295.793743 56.73118 
L 296.118722 59.894361 
L 296.443702 59.894361 
L 296.768681 56.73118 
L 297.41864 63.057541 
L 298.0686 56.73118 
L 298.393579 63.057541 
L 298.718559 59.894361 
L 299.043538 63.057541 
L 299.368518 59.894361 
L 299.693497 63.057541 
L 300.018477 59.894361 
L 300.343456 66.220721 
L 300.668436 66.220721 
L 300.993415 63.057541 
L 301.318395 69.383901 
L 301.968354 69.383901 
L 302.618313 75.710262 
L 302.943292 75.710262 
L 303.268272 72.547082 
L 303.918231 78.873442 
L 304.24321 85.199803 
L 304.56819 82.036622 
L 304.89317 85.199803 
L 305.218149 82.036622 
L 305.543129 88.362983 
L 306.193088 94.689343 
L 306.518067 94.689343 
L 306.843047 97.852524 
L 307.493006 97.852524 
L 308.142965 104.178884 
L 308.467944 104.178884 
L 309.442883 113.668425 
L 310.417821 113.668425 
L 310.742801 123.157966 
L 311.067781 119.994785 
L 312.042719 129.484326 
L 312.367699 129.484326 
L 312.692678 132.647506 
L 313.017658 138.973867 
L 313.342637 138.973867 
L 313.667617 135.810687 
L 313.992596 138.973867 
L 314.317576 145.300227 
L 314.642555 148.463408 
L 314.967535 148.463408 
L 315.292514 151.626588 
L 315.617494 148.463408 
L 316.267453 154.789768 
L 316.592432 154.789768 
L 317.242391 161.116129 
L 317.567371 161.116129 
L 318.21733 167.442489 
L 318.867289 167.442489 
L 320.167207 180.09521 
L 320.492187 176.93203 
L 320.817166 176.93203 
L 321.142146 183.25839 
L 321.792105 183.25839 
L 322.117084 189.584751 
L 322.442064 192.747931 
L 322.767043 189.584751 
L 323.417002 195.911111 
L 324.066962 195.911111 
L 324.391941 202.237472 
L 324.716921 199.074292 
L 325.0419 205.400652 
L 326.016839 205.400652 
L 326.666798 211.727013 
L 326.991777 211.727013 
L 327.641736 218.053373 
L 327.966716 218.053373 
L 328.616675 224.379734 
L 328.941654 221.216553 
L 329.266634 221.216553 
L 329.916593 227.542914 
L 330.241572 224.379734 
L 330.566552 230.706094 
L 331.541491 230.706094 
L 331.86647 233.869274 
L 332.19145 233.869274 
L 332.516429 240.195635 
L 332.841409 240.195635 
L 333.166388 237.032455 
L 333.491368 243.358815 
L 334.141327 243.358815 
L 334.466306 246.521995 
L 334.791286 246.521995 
L 335.116265 249.685176 
L 335.766224 249.685176 
L 336.091204 252.848356 
L 336.416183 252.848356 
L 336.741163 259.174716 
L 337.391122 259.174716 
L 337.716102 265.501077 
L 338.041081 265.501077 
L 338.366061 268.664257 
L 338.69104 268.664257 
L 339.01602 271.827437 
L 339.340999 268.664257 
L 339.665979 271.827437 
L 339.990958 271.827437 
L 340.640917 278.153798 
L 341.615856 278.153798 
L 341.940835 281.316978 
L 342.265815 281.316978 
L 342.590794 278.153798 
L 343.240753 284.480158 
L 343.565733 281.316978 
L 343.890713 281.316978 
L 344.215692 284.480158 
L 344.540672 284.480158 
L 344.865651 281.316978 
L 345.84059 281.316978 
L 346.165569 278.153798 
L 346.490549 278.153798 
L 346.815528 271.827437 
L 347.140508 278.153798 
L 347.790467 271.827437 
L 348.115446 274.990618 
L 348.440426 274.990618 
L 349.090385 268.664257 
L 349.415364 271.827437 
L 350.065324 265.501077 
L 351.040262 265.501077 
L 351.365242 259.174716 
L 351.690221 259.174716 
L 352.015201 256.011536 
L 352.34018 259.174716 
L 352.66516 252.848356 
L 352.990139 249.685176 
L 353.315119 252.848356 
L 353.965078 246.521995 
L 354.615037 246.521995 
L 354.940016 240.195635 
L 355.589975 240.195635 
L 355.914955 233.869274 
L 356.239934 230.706094 
L 356.889894 230.706094 
L 357.214873 221.216553 
L 357.539853 224.379734 
L 358.189812 218.053373 
L 358.839771 218.053373 
L 359.16475 208.563832 
L 359.48973 208.563832 
L 359.814709 211.727013 
L 360.139689 205.400652 
L 360.464668 195.911111 
L 360.789648 199.074292 
L 361.114627 195.911111 
L 361.439607 195.911111 
L 361.764586 192.747931 
L 362.089566 192.747931 
L 362.414545 183.25839 
L 362.739525 186.421571 
L 363.064505 186.421571 
L 363.714464 180.09521 
L 364.039443 183.25839 
L 364.364423 183.25839 
L 365.664341 170.605669 
L 365.98932 173.76885 
L 366.639279 167.442489 
L 366.964259 167.442489 
L 367.289238 164.279309 
L 367.614218 157.952948 
L 367.939197 161.116129 
L 368.589156 154.789768 
L 368.914136 154.789768 
L 369.239115 151.626588 
L 369.564095 151.626588 
L 370.539034 142.137047 
L 371.188993 142.137047 
L 371.513972 138.973867 
L 371.838952 138.973867 
L 372.163931 132.647506 
L 372.488911 135.810687 
L 372.81389 129.484326 
L 373.13887 132.647506 
L 373.788829 126.321146 
L 374.113808 126.321146 
L 374.438788 129.484326 
L 374.763767 123.157966 
L 375.088747 126.321146 
L 375.738706 119.994785 
L 376.063686 113.668425 
L 376.388665 116.831605 
L 377.038624 116.831605 
L 377.363604 110.505245 
L 377.688583 113.668425 
L 378.013563 104.178884 
L 378.338542 110.505245 
L 378.663522 107.342064 
L 379.63846 107.342064 
L 380.288419 101.015704 
L 380.613399 104.178884 
L 381.263358 97.852524 
L 381.588337 97.852524 
L 381.913317 94.689343 
L 382.238296 97.852524 
L 382.563276 91.526163 
L 383.213235 85.199803 
L 383.538215 88.362983 
L 383.863194 82.036622 
L 384.513153 82.036622 
L 384.838133 85.199803 
L 385.163112 78.873442 
L 385.488092 78.873442 
L 385.813071 75.710262 
L 386.138051 75.710262 
L 386.46303 69.383901 
L 387.762948 69.383901 
L 388.087928 66.220721 
L 388.412907 59.894361 
L 388.737887 63.057541 
L 389.062867 59.894361 
L 390.037805 59.894361 
L 390.362785 56.73118 
L 391.012744 63.057541 
L 391.337723 56.73118 
L 391.987682 56.73118 
L 392.312662 59.894361 
L 392.637641 59.894361 
L 392.962621 56.73118 
L 393.2876 59.894361 
L 393.61258 53.568 
L 393.937559 63.057541 
L 394.262539 59.894361 
L 394.912498 59.894361 
L 395.237477 63.057541 
L 395.562457 59.894361 
L 395.887437 63.057541 
L 396.212416 69.383901 
L 396.862375 63.057541 
L 397.187355 69.383901 
L 398.162293 69.383901 
L 398.487273 72.547082 
L 398.487273 72.547082 
" clip-path="url(#p0e9ad9f737)" style="fill: none; stroke: #1f77b4; stroke-width: 1.5; stroke-linecap: square"/>
   </g>
   <g id="line2d_13">
    <path d="M 73.832727 285.998459 
L 74.157707 282.835279 
L 74.482686 285.998459 
L 74.807666 285.998459 
L 75.132645 282.835279 
L 75.457625 285.998459 
L 75.782604 285.998459 
L 76.107584 292.32482 
L 77.407502 292.32482 
L 77.732482 289.161639 
L 78.382441 289.161639 
L 78.70742 292.32482 
L 79.0324 292.32482 
L 79.357379 289.161639 
L 80.007338 289.161639 
L 80.332318 285.998459 
L 80.657297 292.32482 
L 80.982277 285.998459 
L 81.307256 292.32482 
L 81.957215 292.32482 
L 82.282195 289.161639 
L 82.932154 289.161639 
L 83.257133 285.998459 
L 83.582113 285.998459 
L 83.907093 289.161639 
L 84.232072 289.161639 
L 84.557052 282.835279 
L 85.207011 282.835279 
L 85.53199 279.672099 
L 85.85697 279.672099 
L 86.181949 276.508918 
L 86.506929 279.672099 
L 87.156888 279.672099 
L 87.806847 273.345738 
L 88.131826 273.345738 
L 88.456806 270.182558 
L 88.781785 270.182558 
L 89.106765 267.019378 
L 89.431744 270.182558 
L 90.081704 263.856197 
L 90.406683 263.856197 
L 90.731663 257.529837 
L 91.056642 257.529837 
L 91.381622 254.366657 
L 92.35656 254.366657 
L 93.006519 248.040296 
L 93.331499 248.040296 
L 93.981458 241.713936 
L 94.631417 241.713936 
L 94.956396 235.387575 
L 95.606355 235.387575 
L 95.931335 229.061215 
L 96.256314 232.224395 
L 96.581294 225.898034 
L 97.231253 225.898034 
L 97.556233 222.734854 
L 97.881212 216.408494 
L 98.206192 216.408494 
L 99.18113 206.918953 
L 99.831089 206.918953 
L 100.156069 200.592592 
L 100.481048 200.592592 
L 100.806028 194.266232 
L 101.131007 191.103052 
L 101.455987 194.266232 
L 101.780966 187.939871 
L 102.105946 187.939871 
L 102.430925 191.103052 
L 102.755905 187.939871 
L 103.080885 181.613511 
L 103.405864 184.776691 
L 103.730844 178.450331 
L 104.055823 175.28715 
L 104.380803 168.96079 
L 104.705782 172.12397 
L 105.030762 172.12397 
L 105.355741 165.79761 
L 105.680721 165.79761 
L 106.0057 159.471249 
L 106.33068 156.308069 
L 106.655659 159.471249 
L 106.980639 149.981708 
L 107.305618 156.308069 
L 107.955577 149.981708 
L 108.280557 149.981708 
L 108.605536 143.655348 
L 108.930516 143.655348 
L 109.255495 137.328987 
L 109.905455 137.328987 
L 111.530352 121.513086 
L 111.855332 124.676266 
L 112.180311 115.186726 
L 112.505291 121.513086 
L 112.83027 118.349906 
L 113.480229 118.349906 
L 113.805209 115.186726 
L 114.130188 108.860365 
L 114.455168 108.860365 
L 114.780147 105.697185 
L 115.105127 105.697185 
L 115.755086 99.370824 
L 116.080066 99.370824 
L 116.730025 93.044464 
L 117.055004 96.207644 
L 117.379984 89.881284 
L 118.029943 96.207644 
L 119.65484 80.391743 
L 119.97982 83.554923 
L 120.629779 83.554923 
L 120.954758 80.391743 
L 121.279738 80.391743 
L 121.604717 77.228563 
L 121.929697 77.228563 
L 122.254676 80.391743 
L 122.579656 74.065382 
L 123.229615 80.391743 
L 124.204554 70.902202 
L 124.529533 74.065382 
L 125.179492 74.065382 
L 125.504472 70.902202 
L 125.829451 74.065382 
L 126.154431 70.902202 
L 126.47941 70.902202 
L 126.80439 67.739022 
L 127.129369 67.739022 
L 127.454349 70.902202 
L 127.779328 67.739022 
L 128.754267 77.228563 
L 129.404226 70.902202 
L 129.729206 70.902202 
L 130.379165 77.228563 
L 131.029124 77.228563 
L 131.354103 74.065382 
L 131.679083 80.391743 
L 132.004062 74.065382 
L 132.654021 80.391743 
L 132.979001 77.228563 
L 133.953939 86.718103 
L 134.278919 83.554923 
L 134.603898 83.554923 
L 134.928878 86.718103 
L 135.578837 86.718103 
L 135.903817 89.881284 
L 136.553776 89.881284 
L 136.878755 93.044464 
L 137.528714 93.044464 
L 137.853694 99.370824 
L 138.178673 93.044464 
L 138.828632 105.697185 
L 139.478591 105.697185 
L 139.803571 108.860365 
L 140.12855 108.860365 
L 140.45353 112.023545 
L 140.778509 112.023545 
L 141.103489 115.186726 
L 141.753448 115.186726 
L 142.403407 121.513086 
L 142.728387 121.513086 
L 143.053366 127.839447 
L 143.378346 124.676266 
L 143.703325 127.839447 
L 144.028305 137.328987 
L 144.353284 134.165807 
L 144.678264 137.328987 
L 145.003243 137.328987 
L 145.328223 140.492168 
L 145.653202 137.328987 
L 145.978182 143.655348 
L 146.628141 149.981708 
L 146.95312 149.981708 
L 147.2781 153.144889 
L 147.603079 149.981708 
L 148.253038 162.634429 
L 148.578018 156.308069 
L 148.902998 165.79761 
L 149.552957 172.12397 
L 149.877936 168.96079 
L 150.202916 172.12397 
L 150.527895 178.450331 
L 151.177854 178.450331 
L 151.502834 181.613511 
L 151.827813 187.939871 
L 152.152793 184.776691 
L 152.477772 187.939871 
L 153.127731 187.939871 
L 153.452711 194.266232 
L 153.77769 194.266232 
L 154.10267 197.429412 
L 154.427649 206.918953 
L 154.752629 203.755773 
L 155.077609 210.082133 
L 155.402588 206.918953 
L 156.377527 216.408494 
L 156.702506 222.734854 
L 157.677445 222.734854 
L 158.002424 225.898034 
L 158.327404 225.898034 
L 158.652383 232.224395 
L 158.977363 229.061215 
L 159.302342 235.387575 
L 159.952301 241.713936 
L 160.277281 241.713936 
L 160.60226 244.877116 
L 160.92724 244.877116 
L 161.252219 248.040296 
L 161.577199 248.040296 
L 161.902179 254.366657 
L 162.877117 254.366657 
L 163.202097 257.529837 
L 163.527076 257.529837 
L 163.852056 260.693017 
L 164.177035 260.693017 
L 165.151974 270.182558 
L 166.126912 270.182558 
L 166.451892 273.345738 
L 166.776871 270.182558 
L 167.101851 279.672099 
L 167.42683 276.508918 
L 167.75181 276.508918 
L 168.07679 279.672099 
L 168.401769 279.672099 
L 168.726749 276.508918 
L 169.051728 282.835279 
L 169.376708 279.672099 
L 169.701687 285.998459 
L 171.001605 285.998459 
L 171.326585 289.161639 
L 171.976544 289.161639 
L 172.301523 292.32482 
L 172.626503 292.32482 
L 172.951482 289.161639 
L 173.276462 289.161639 
L 173.601441 292.32482 
L 173.926421 289.161639 
L 174.2514 292.32482 
L 174.57638 289.161639 
L 174.90136 292.32482 
L 175.226339 292.32482 
L 175.551319 295.488 
L 175.876298 292.32482 
L 176.201278 292.32482 
L 176.526257 289.161639 
L 177.501196 289.161639 
L 177.826175 292.32482 
L 178.476134 285.998459 
L 178.801114 285.998459 
L 179.126093 282.835279 
L 179.451073 289.161639 
L 179.776052 285.998459 
L 180.750991 285.998459 
L 181.40095 279.672099 
L 181.72593 282.835279 
L 182.050909 276.508918 
L 182.375889 276.508918 
L 182.700868 279.672099 
L 183.350827 273.345738 
L 183.675807 273.345738 
L 184.325766 267.019378 
L 184.650745 270.182558 
L 184.975725 267.019378 
L 185.950663 267.019378 
L 186.925602 257.529837 
L 187.250581 257.529837 
L 187.575561 254.366657 
L 187.900541 254.366657 
L 188.22552 251.203476 
L 188.5505 251.203476 
L 189.200459 244.877116 
L 189.850418 244.877116 
L 190.175397 238.550755 
L 190.500377 238.550755 
L 190.825356 241.713936 
L 191.150336 238.550755 
L 191.475315 232.224395 
L 191.800295 232.224395 
L 192.125274 229.061215 
L 192.450254 229.061215 
L 192.775233 222.734854 
L 193.100213 222.734854 
L 193.750172 216.408494 
L 194.075152 216.408494 
L 194.400131 213.245313 
L 194.725111 206.918953 
L 195.05009 210.082133 
L 195.37507 203.755773 
L 196.025029 203.755773 
L 196.350008 206.918953 
L 196.674988 200.592592 
L 196.999967 197.429412 
L 197.324947 191.103052 
L 197.649926 194.266232 
L 197.974906 184.776691 
L 198.299885 191.103052 
L 198.624865 184.776691 
L 198.949844 184.776691 
L 199.274824 178.450331 
L 199.599803 175.28715 
L 199.924783 175.28715 
L 200.574742 168.96079 
L 200.899722 172.12397 
L 201.224701 168.96079 
L 201.549681 162.634429 
L 201.87466 162.634429 
L 202.19964 156.308069 
L 202.524619 159.471249 
L 202.849599 153.144889 
L 203.174578 153.144889 
L 203.824537 146.818528 
L 204.149517 146.818528 
L 205.124455 137.328987 
L 205.449435 140.492168 
L 205.774414 131.002627 
L 206.099394 134.165807 
L 206.424373 134.165807 
L 207.074333 127.839447 
L 207.399312 127.839447 
L 208.374251 118.349906 
L 208.69923 118.349906 
L 209.349189 112.023545 
L 209.674169 112.023545 
L 210.324128 105.697185 
L 210.649107 108.860365 
L 210.974087 102.534005 
L 211.299066 105.697185 
L 211.624046 102.534005 
L 212.274005 102.534005 
L 212.598984 93.044464 
L 212.923964 93.044464 
L 213.248943 89.881284 
L 213.573923 93.044464 
L 213.898903 93.044464 
L 214.223882 89.881284 
L 214.548862 89.881284 
L 215.198821 83.554923 
L 215.5238 83.554923 
L 215.84878 86.718103 
L 216.173759 80.391743 
L 216.498739 80.391743 
L 216.823718 83.554923 
L 217.148698 83.554923 
L 217.473677 77.228563 
L 219.423554 77.228563 
L 219.748534 74.065382 
L 220.398493 74.065382 
L 220.723473 70.902202 
L 221.048452 74.065382 
L 221.373432 70.902202 
L 221.698411 74.065382 
L 222.67335 74.065382 
L 222.998329 70.902202 
L 223.323309 74.065382 
L 223.648288 70.902202 
L 224.298247 70.902202 
L 224.623227 77.228563 
L 224.948206 70.902202 
L 225.923145 70.902202 
L 226.248124 74.065382 
L 226.573104 70.902202 
L 227.548043 80.391743 
L 227.873022 77.228563 
L 228.522981 77.228563 
L 228.847961 80.391743 
L 229.17294 80.391743 
L 229.49792 83.554923 
L 230.147879 83.554923 
L 230.472858 86.718103 
L 231.447797 86.718103 
L 231.772776 83.554923 
L 232.422735 96.207644 
L 233.397674 96.207644 
L 233.722654 99.370824 
L 234.047633 96.207644 
L 235.022572 105.697185 
L 235.347551 102.534005 
L 235.672531 108.860365 
L 236.32249 108.860365 
L 236.647469 115.186726 
L 236.972449 112.023545 
L 237.622408 118.349906 
L 237.947387 124.676266 
L 238.272367 124.676266 
L 238.597346 121.513086 
L 238.922326 127.839447 
L 239.572285 127.839447 
L 239.897265 134.165807 
L 240.222244 137.328987 
L 241.522162 137.328987 
L 241.847142 143.655348 
L 242.172121 140.492168 
L 242.82208 153.144889 
L 243.14706 156.308069 
L 243.797019 156.308069 
L 244.121998 162.634429 
L 244.771957 162.634429 
L 245.096937 168.96079 
L 246.396855 168.96079 
L 246.721835 172.12397 
L 247.046814 181.613511 
L 247.371794 175.28715 
L 247.696773 181.613511 
L 248.021753 191.103052 
L 248.346732 194.266232 
L 248.671712 191.103052 
L 249.321671 197.429412 
L 249.97163 197.429412 
L 250.296609 200.592592 
L 250.621589 206.918953 
L 250.946568 203.755773 
L 251.271548 210.082133 
L 251.596527 210.082133 
L 251.921507 206.918953 
L 252.246486 213.245313 
L 253.871384 229.061215 
L 254.196364 229.061215 
L 254.521343 232.224395 
L 254.846323 232.224395 
L 255.821261 241.713936 
L 256.47122 241.713936 
L 256.7962 244.877116 
L 257.121179 244.877116 
L 257.446159 248.040296 
L 257.771138 248.040296 
L 258.096118 254.366657 
L 258.421097 257.529837 
L 258.746077 257.529837 
L 259.071057 260.693017 
L 259.396036 257.529837 
L 259.721016 260.693017 
L 260.045995 260.693017 
L 261.020934 270.182558 
L 262.320852 270.182558 
L 262.645831 276.508918 
L 262.970811 273.345738 
L 263.945749 282.835279 
L 264.270729 279.672099 
L 264.595708 282.835279 
L 265.570647 282.835279 
L 265.895627 289.161639 
L 266.220606 285.998459 
L 266.870565 285.998459 
L 267.195545 289.161639 
L 267.520524 285.998459 
L 267.845504 289.161639 
L 268.170483 285.998459 
L 268.495463 289.161639 
L 268.820442 289.161639 
L 269.145422 292.32482 
L 269.470401 292.32482 
L 269.795381 289.161639 
L 270.770319 289.161639 
L 271.095299 292.32482 
L 271.420278 289.161639 
L 272.395217 289.161639 
L 272.720197 285.998459 
L 273.045176 289.161639 
L 273.370156 285.998459 
L 274.020115 292.32482 
L 274.345094 292.32482 
L 274.995053 285.998459 
L 275.320033 285.998459 
L 275.645012 282.835279 
L 275.969992 282.835279 
L 276.294971 289.161639 
L 276.94493 282.835279 
L 277.26991 282.835279 
L 277.594889 276.508918 
L 277.919869 276.508918 
L 278.244848 282.835279 
L 278.569828 273.345738 
L 278.894808 279.672099 
L 279.219787 279.672099 
L 280.194726 270.182558 
L 280.844685 270.182558 
L 281.169664 263.856197 
L 281.494644 267.019378 
L 281.819623 267.019378 
L 282.144603 260.693017 
L 282.794562 254.366657 
L 283.444521 254.366657 
L 283.7695 251.203476 
L 284.09448 251.203476 
L 284.419459 254.366657 
L 285.719378 241.713936 
L 286.044357 241.713936 
L 286.369337 235.387575 
L 286.694316 238.550755 
L 287.019296 235.387575 
L 287.344275 229.061215 
L 287.669255 229.061215 
L 287.994234 225.898034 
L 288.644193 225.898034 
L 288.969173 219.571674 
L 289.294152 219.571674 
L 289.619132 222.734854 
L 291.244029 206.918953 
L 291.569009 200.592592 
L 291.893989 203.755773 
L 292.218968 203.755773 
L 292.543948 197.429412 
L 293.518886 187.939871 
L 293.843866 194.266232 
L 294.168845 181.613511 
L 294.818804 187.939871 
L 295.143784 184.776691 
L 295.468763 178.450331 
L 295.793743 178.450331 
L 296.443702 172.12397 
L 296.768681 165.79761 
L 297.41864 165.79761 
L 297.74362 162.634429 
L 298.0686 162.634429 
L 298.393579 156.308069 
L 299.043538 156.308069 
L 299.368518 146.818528 
L 299.693497 149.981708 
L 300.018477 149.981708 
L 300.668436 143.655348 
L 300.993415 137.328987 
L 301.318395 137.328987 
L 301.643374 134.165807 
L 302.293333 134.165807 
L 302.943292 127.839447 
L 303.268272 121.513086 
L 303.593251 121.513086 
L 303.918231 118.349906 
L 304.24321 118.349906 
L 304.56819 112.023545 
L 305.218149 118.349906 
L 305.868108 112.023545 
L 306.193088 105.697185 
L 306.518067 108.860365 
L 307.168026 102.534005 
L 307.817985 102.534005 
L 308.467944 96.207644 
L 308.792924 96.207644 
L 309.117903 93.044464 
L 309.442883 96.207644 
L 309.767862 86.718103 
L 310.092842 89.881284 
L 310.417821 89.881284 
L 310.742801 93.044464 
L 311.067781 83.554923 
L 311.71774 83.554923 
L 312.042719 80.391743 
L 313.017658 80.391743 
L 313.342637 77.228563 
L 313.992596 77.228563 
L 314.317576 74.065382 
L 314.642555 77.228563 
L 314.967535 70.902202 
L 315.292514 77.228563 
L 315.942473 77.228563 
L 316.592432 70.902202 
L 316.917412 74.065382 
L 317.242391 74.065382 
L 317.567371 70.902202 
L 317.892351 70.902202 
L 318.21733 74.065382 
L 318.54231 70.902202 
L 319.517248 70.902202 
L 319.842228 74.065382 
L 320.167207 67.739022 
L 320.492187 74.065382 
L 321.467125 74.065382 
L 321.792105 70.902202 
L 322.117084 74.065382 
L 322.767043 74.065382 
L 323.092023 80.391743 
L 323.741982 74.065382 
L 324.391941 80.391743 
L 324.716921 77.228563 
L 325.0419 83.554923 
L 325.36688 77.228563 
L 325.691859 83.554923 
L 326.016839 83.554923 
L 326.666798 89.881284 
L 326.991777 86.718103 
L 327.316757 86.718103 
L 327.641736 89.881284 
L 327.966716 89.881284 
L 328.291695 93.044464 
L 328.941654 93.044464 
L 329.266634 96.207644 
L 329.916593 96.207644 
L 330.241572 99.370824 
L 330.566552 99.370824 
L 330.891532 102.534005 
L 331.216511 108.860365 
L 331.541491 112.023545 
L 331.86647 108.860365 
L 332.19145 112.023545 
L 332.841409 112.023545 
L 333.166388 115.186726 
L 333.491368 115.186726 
L 334.141327 121.513086 
L 334.791286 121.513086 
L 335.441245 127.839447 
L 335.766224 124.676266 
L 336.091204 134.165807 
L 336.741163 140.492168 
L 337.066143 140.492168 
L 337.716102 146.818528 
L 338.366061 146.818528 
L 339.01602 153.144889 
L 339.340999 153.144889 
L 339.990958 159.471249 
L 340.315938 159.471249 
L 340.640917 165.79761 
L 340.965897 162.634429 
L 341.290876 172.12397 
L 341.615856 175.28715 
L 342.265815 175.28715 
L 342.590794 178.450331 
L 342.915774 178.450331 
L 343.240753 184.776691 
L 343.565733 181.613511 
L 343.890713 191.103052 
L 344.215692 191.103052 
L 344.540672 187.939871 
L 344.865651 191.103052 
L 345.190631 191.103052 
L 345.84059 197.429412 
L 346.165569 194.266232 
L 346.815528 210.082133 
L 347.140508 210.082133 
L 347.465487 213.245313 
L 347.790467 213.245313 
L 348.115446 216.408494 
L 348.440426 216.408494 
L 349.415364 225.898034 
L 349.740344 225.898034 
L 350.390303 232.224395 
L 350.715283 229.061215 
L 351.040262 235.387575 
L 351.365242 235.387575 
L 351.690221 241.713936 
L 352.015201 241.713936 
L 352.34018 244.877116 
L 352.66516 251.203476 
L 352.990139 248.040296 
L 353.315119 251.203476 
L 353.640098 248.040296 
L 353.965078 251.203476 
L 354.290057 257.529837 
L 355.264996 257.529837 
L 355.589975 260.693017 
L 355.914955 260.693017 
L 356.239934 267.019378 
L 356.564914 263.856197 
L 357.539853 273.345738 
L 357.864832 273.345738 
L 358.189812 276.508918 
L 359.16475 276.508918 
L 359.48973 282.835279 
L 359.814709 279.672099 
L 360.139689 279.672099 
L 360.464668 282.835279 
L 360.789648 282.835279 
L 361.114627 279.672099 
L 361.439607 285.998459 
L 361.764586 279.672099 
L 362.089566 282.835279 
L 362.414545 289.161639 
L 362.739525 285.998459 
L 363.064505 289.161639 
L 363.389484 289.161639 
L 363.714464 292.32482 
L 364.039443 285.998459 
L 364.689402 292.32482 
L 365.339361 292.32482 
L 365.664341 289.161639 
L 366.3143 289.161639 
L 366.639279 292.32482 
L 366.964259 289.161639 
L 367.289238 292.32482 
L 367.614218 292.32482 
L 367.939197 295.488 
L 368.264177 289.161639 
L 368.589156 292.32482 
L 368.914136 289.161639 
L 369.564095 289.161639 
L 369.889075 292.32482 
L 370.539034 285.998459 
L 370.864013 285.998459 
L 371.188993 282.835279 
L 371.513972 282.835279 
L 371.838952 285.998459 
L 372.163931 279.672099 
L 372.81389 285.998459 
L 373.13887 282.835279 
L 373.463849 282.835279 
L 373.788829 279.672099 
L 374.113808 279.672099 
L 374.763767 273.345738 
L 375.088747 276.508918 
L 375.738706 270.182558 
L 376.063686 270.182558 
L 376.713645 263.856197 
L 377.038624 267.019378 
L 377.363604 260.693017 
L 377.688583 263.856197 
L 378.013563 263.856197 
L 378.338542 260.693017 
L 378.663522 260.693017 
L 378.988501 257.529837 
L 379.313481 257.529837 
L 379.63846 251.203476 
L 380.288419 251.203476 
L 380.938378 244.877116 
L 381.263358 244.877116 
L 381.913317 238.550755 
L 382.238296 238.550755 
L 382.563276 235.387575 
L 383.538215 235.387575 
L 383.863194 232.224395 
L 384.188174 225.898034 
L 384.513153 225.898034 
L 384.838133 219.571674 
L 385.813071 219.571674 
L 386.138051 213.245313 
L 386.46303 213.245313 
L 386.78801 206.918953 
L 387.112989 203.755773 
L 387.437969 206.918953 
L 387.762948 197.429412 
L 388.412907 197.429412 
L 388.737887 200.592592 
L 389.062867 191.103052 
L 389.387846 194.266232 
L 389.712826 187.939871 
L 390.037805 187.939871 
L 390.362785 181.613511 
L 390.687764 181.613511 
L 391.012744 184.776691 
L 391.337723 181.613511 
L 391.662703 175.28715 
L 391.987682 175.28715 
L 392.312662 168.96079 
L 392.637641 168.96079 
L 393.2876 162.634429 
L 393.61258 165.79761 
L 394.262539 159.471249 
L 394.587518 153.144889 
L 394.912498 156.308069 
L 395.237477 149.981708 
L 395.562457 146.818528 
L 395.887437 146.818528 
L 396.537396 140.492168 
L 396.862375 140.492168 
L 397.512334 134.165807 
L 397.837314 134.165807 
L 398.487273 127.839447 
L 398.487273 127.839447 
" clip-path="url(#p0e9ad9f737)" style="fill: none; stroke: #ff7f0e; stroke-width: 1.5; stroke-linecap: square"/>
   </g>
   <g id="line2d_14">
    <path d="M 73.832727 156.166862 
L 88.781785 156.20482 
L 97.881212 156.226962 
L 106.655659 156.290226 
L 111.855332 156.296552 
L 117.055004 156.239615 
L 119.97982 156.258594 
L 165.151974 156.147882 
L 169.376708 156.166862 
L 177.501196 156.214309 
L 187.575561 156.20482 
L 194.725111 156.242778 
L 202.19964 156.283899 
L 215.5238 156.255431 
L 218.123636 156.249104 
L 231.447797 156.268083 
L 247.696773 156.220636 
L 398.487273 156.277573 
L 398.487273 156.277573 
" clip-path="url(#p0e9ad9f737)" style="fill: none; stroke: #2ca02c; stroke-width: 1.5; stroke-linecap: square"/>
   </g>
   <g id="line2d_15">
    <path d="M 73.832727 168.990687 
L 96.581294 168.990687 
L 119.004881 168.989105 
L 398.487273 168.989105 
L 398.487273 168.989105 
" clip-path="url(#p0e9ad9f737)" style="fill: none; stroke: #d62728; stroke-width: 1.5; stroke-linecap: square"/>
   </g>
   <g id="patch_3">
    <path d="M 57.6 307.584 
L 57.6 41.472 
" style="fill: none; stroke: #000000; stroke-width: 0.8; stroke-linejoin: miter; stroke-linecap: square"/>
   </g>
   <g id="patch_4">
    <path d="M 414.72 307.584 
L 414.72 41.472 
" style="fill: none; stroke: #000000; stroke-width: 0.8; stroke-linejoin: miter; stroke-linecap: square"/>
   </g>
   <g id="patch_5">
    <path d="M 57.6 307.584 
L 414.72 307.584 
" style="fill: none; stroke: #000000; stroke-width: 0.8; stroke-linejoin: miter; stroke-linecap: square"/>
   </g>
   <g id="patch_6">
    <path d="M 57.6 41.472 
L 414.72 41.472 
" style="fill: none; stroke: #000000; stroke-width: 0.8; stroke-linejoin: miter; stroke-linecap: square"/>
   </g>
  </g>
 </g>
 <defs>
  <clipPath id="p0e9ad9f737">
   <rect x="57.6" y="41.472" width="357.12" height="266.112"/>
  </clipPath>
 </defs>
</svg>
