<?xml version="1.0" encoding="utf-8" standalone="no"?>
<!DOCTYPE svg PUBLIC "-//W3C//DTD SVG 1.1//EN"
  "http://www.w3.org/Graphics/SVG/1.1/DTD/svg11.dtd">
<svg xmlns:xlink="http://www.w3.org/1999/xlink" width="460.8pt" height="345.6pt" viewBox="0 0 460.8 345.6" xmlns="http://www.w3.org/2000/svg" version="1.1">
 <metadata>
  <rdf:RDF xmlns:dc="http://purl.org/dc/elements/1.1/" xmlns:cc="http://creativecommons.org/ns#" xmlns:rdf="http://www.w3.org/1999/02/22-rdf-syntax-ns#">
   <cc:Work>
    <dc:type rdf:resource="http://purl.org/dc/dcmitype/StillImage"/>
    <dc:date>2025-12-28T07:55:40.458788</dc:date>
    <dc:format>image/svg+xml</dc:format>
    <dc:creator>
     <cc:Agent>
      <dc:title>Matplotlib v3.10.8, https://matplotlib.org/</dc:title>
     </cc:Agent>
    </dc:creator>
   </cc:Work>
  </rdf:RDF>
 </metadata>
 <defs>
  <style type="text/css">*{stroke-linejoin: round; stroke-linecap: butt}</style>
 </defs>
 <g id="figure_1">
  <g id="patch_1">
   <path d="M 0 345.6 
L 460.8 345.6 
L 460.8 0 
L 0 0 
z
" style="fill: #ffffff"/>
  </g>
  <g id="axes_1">
   <g id="patch_2">
    <path d="M 57.6 307.584 
L 414.72 307.584 
L 414.72 41.472 
L 57.6 41.472 
z
" style="fill: #ffffff"/>
   </g>
   <g id="matplotlib.axis_1">
    <g id="xtick_1">
     <g id="line2d_1">
      <defs>
       <path id="mad2e8b6775" d="M 0 0 
L 0 3.5 
" style="stroke: #000000; stroke-width: 0.8"/>
      </defs>
      <g>
       <use xlink:href="#mad2e8b6775" x="73.832727" y="307.584" style="stroke: #000000; stroke-width: 0.8"/>
      </g>
     </g>
     <g id="text_1">
      <!-- 0 -->
      <g transform="translate(70.651477 322.182437) scale(0.1 -0.1)">
       <defs>
        <path id="DejaVuSans-30" d="M 2034 4250 
Q 1547 4250 1301 3770 
Q 1056 3291 1056 2328 
Q 1056 1369 1301 889 
Q 1547 409 2034 409 
Q 2525 409 2770 889 
Q 3016 1369 3016 2328 
Q 3016 3291 2770 3770 
Q 2525 4250 2034 4250 
z
M 2034 4750 
Q 2819 4750 3233 4129 
Q 3647 3509 3647 2328 
Q 3647 1150 3233 529 
Q 2819 -91 2034 -91 
Q 1250 -91 836 529 
Q 422 1150 422 2328 
Q 422 3509 836 4129 
Q 1250 4750 2034 4750 
z
" transform="scale(0.015625)"/>
       </defs>
       <use xlink:href="#DejaVuSans-30"/>
      </g>
     </g>
    </g>
    <g id="xtick_2">
     <g id="line2d_2">
      <g>
       <use xlink:href="#mad2e8b6775" x="138.828632" y="307.584" style="stroke: #000000; stroke-width: 0.8"/>
      </g>
     </g>
     <g id="text_2">
      <!-- 1 -->
      <g transform="translate(135.647382 322.182437) scale(0.1 -0.1)">
       <defs>
        <path id="DejaVuSans-31" d="M 794 531 
L 1825 531 
L 1825 4091 
L 703 3866 
L 703 4441 
L 1819 4666 
L 2450 4666 
L 2450 531 
L 3481 531 
L 3481 0 
L 794 0 
L 794 531 
z
" transform="scale(0.015625)"/>
       </defs>
       <use xlink:href="#DejaVuSans-31"/>
      </g>
     </g>
    </g>
    <g id="xtick_3">
     <g id="line2d_3">
      <g>
       <use xlink:href="#mad2e8b6775" x="203.824537" y="307.584" style="stroke: #000000; stroke-width: 0.8"/>
      </g>
     </g>
     <g id="text_3">
      <!-- 2 -->
      <g transform="translate(200.643287 322.182437) scale(0.1 -0.1)">
       <defs>
        <path id="DejaVuSans-32" d="M 1228 531 
L 3431 531 
L 3431 0 
L 469 0 
L 469 531 
Q 828 903 1448 1529 
Q 2069 2156 2228 2338 
Q 2531 2678 2651 2914 
Q 2772 3150 2772 3378 
Q 2772 3750 2511 3984 
Q 2250 4219 1831 4219 
Q 1534 4219 1204 4116 
Q 875 4013 500 3803 
L 500 4441 
Q 881 4594 1212 4672 
Q 1544 4750 1819 4750 
Q 2544 4750 2975 4387 
Q 3406 4025 3406 3419 
Q 3406 3131 3298 2873 
Q 3191 2616 2906 2266 
Q 2828 2175 2409 1742 
Q 1991 1309 1228 531 
z
" transform="scale(0.015625)"/>
       </defs>
       <use xlink:href="#DejaVuSans-32"/>
      </g>
     </g>
    </g>
    <g id="xtick_4">
     <g id="line2d_4">
      <g>
       <use xlink:href="#mad2e8b6775" x="268.820442" y="307.584" style="stroke: #000000; stroke-width: 0.8"/>
      </g>
     </g>
     <g id="text_4">
      <!-- 3 -->
      <g transform="translate(265.639192 322.182437) scale(0.1 -0.1)">
       <defs>
        <path id="DejaVuSans-33" d="M 2597 2516 
Q 3050 2419 3304 2112 
Q 3559 1806 3559 1356 
Q 3559 666 3084 287 
Q 2609 -91 1734 -91 
Q 1441 -91 1130 -33 
Q 819 25 488 141 
L 488 750 
Q 750 597 1062 519 
Q 1375 441 1716 441 
Q 2309 441 2620 675 
Q 2931 909 2931 1356 
Q 2931 1769 2642 2001 
Q 2353 2234 1838 2234 
L 1294 2234 
L 1294 2753 
L 1863 2753 
Q 2328 2753 2575 2939 
Q 2822 3125 2822 3475 
Q 2822 3834 2567 4026 
Q 2313 4219 1838 4219 
Q 1578 4219 1281 4162 
Q 984 4106 628 3988 
L 628 4550 
Q 988 4650 1302 4700 
Q 1616 4750 1894 4750 
Q 2613 4750 3031 4423 
Q 3450 4097 3450 3541 
Q 3450 3153 3228 2886 
Q 3006 2619 2597 2516 
z
" transform="scale(0.015625)"/>
       </defs>
       <use xlink:href="#DejaVuSans-33"/>
      </g>
     </g>
    </g>
    <g id="xtick_5">
     <g id="line2d_5">
      <g>
       <use xlink:href="#mad2e8b6775" x="333.816347" y="307.584" style="stroke: #000000; stroke-width: 0.8"/>
      </g>
     </g>
     <g id="text_5">
      <!-- 4 -->
      <g transform="translate(330.635097 322.182437) scale(0.1 -0.1)">
       <defs>
        <path id="DejaVuSans-34" d="M 2419 4116 
L 825 1625 
L 2419 1625 
L 2419 4116 
z
M 2253 4666 
L 3047 4666 
L 3047 1625 
L 3713 1625 
L 3713 1100 
L 3047 1100 
L 3047 0 
L 2419 0 
L 2419 1100 
L 313 1100 
L 313 1709 
L 2253 4666 
z
" transform="scale(0.015625)"/>
       </defs>
       <use xlink:href="#DejaVuSans-34"/>
      </g>
     </g>
    </g>
    <g id="xtick_6">
     <g id="line2d_6">
      <g>
       <use xlink:href="#mad2e8b6775" x="398.812252" y="307.584" style="stroke: #000000; stroke-width: 0.8"/>
      </g>
     </g>
     <g id="text_6">
      <!-- 5 -->
      <g transform="translate(395.631002 322.182437) scale(0.1 -0.1)">
       <defs>
        <path id="DejaVuSans-35" d="M 691 4666 
L 3169 4666 
L 3169 4134 
L 1269 4134 
L 1269 2991 
Q 1406 3038 1543 3061 
Q 1681 3084 1819 3084 
Q 2600 3084 3056 2656 
Q 3513 2228 3513 1497 
Q 3513 744 3044 326 
Q 2575 -91 1722 -91 
Q 1428 -91 1123 -41 
Q 819 9 494 109 
L 494 744 
Q 775 591 1075 516 
Q 1375 441 1709 441 
Q 2250 441 2565 725 
Q 2881 1009 2881 1497 
Q 2881 1984 2565 2268 
Q 2250 2553 1709 2553 
Q 1456 2553 1204 2497 
Q 953 2441 691 2322 
L 691 4666 
z
" transform="scale(0.015625)"/>
       </defs>
       <use xlink:href="#DejaVuSans-35"/>
      </g>
     </g>
    </g>
    <g id="text_7">
     <!-- 1e−7 -->
     <g transform="translate(387.462188 334.860562) scale(0.1 -0.1)">
      <defs>
       <path id="DejaVuSans-65" d="M 3597 1894 
L 3597 1613 
L 953 1613 
Q 991 1019 1311 708 
Q 1631 397 2203 397 
Q 2534 397 2845 478 
Q 3156 559 3463 722 
L 3463 178 
Q 3153 47 2828 -22 
Q 2503 -91 2169 -91 
Q 1331 -91 842 396 
Q 353 884 353 1716 
Q 353 2575 817 3079 
Q 1281 3584 2069 3584 
Q 2775 3584 3186 3129 
Q 3597 2675 3597 1894 
z
M 3022 2063 
Q 3016 2534 2758 2815 
Q 2500 3097 2075 3097 
Q 1594 3097 1305 2825 
Q 1016 2553 972 2059 
L 3022 2063 
z
" transform="scale(0.015625)"/>
       <path id="DejaVuSans-2212" d="M 678 2272 
L 4684 2272 
L 4684 1741 
L 678 1741 
L 678 2272 
z
" transform="scale(0.015625)"/>
       <path id="DejaVuSans-37" d="M 525 4666 
L 3525 4666 
L 3525 4397 
L 1831 0 
L 1172 0 
L 2766 4134 
L 525 4134 
L 525 4666 
z
" transform="scale(0.015625)"/>
      </defs>
      <use xlink:href="#DejaVuSans-31"/>
      <use xlink:href="#DejaVuSans-65" transform="translate(63.623047 0)"/>
      <use xlink:href="#DejaVuSans-2212" transform="translate(125.146484 0)"/>
      <use xlink:href="#DejaVuSans-37" transform="translate(208.935547 0)"/>
     </g>
    </g>
   </g>
   <g id="matplotlib.axis_2">
    <g id="ytick_1">
     <g id="line2d_7">
      <defs>
       <path id="md1298f6ff9" d="M 0 0 
L -3.5 0 
" style="stroke: #000000; stroke-width: 0.8"/>
      </defs>
      <g>
       <use xlink:href="#md1298f6ff9" x="57.6" y="276.115063" style="stroke: #000000; stroke-width: 0.8"/>
      </g>
     </g>
     <g id="text_8">
      <!-- −200 -->
      <g transform="translate(23.132812 279.914282) scale(0.1 -0.1)">
       <use xlink:href="#DejaVuSans-2212"/>
       <use xlink:href="#DejaVuSans-32" transform="translate(83.789062 0)"/>
       <use xlink:href="#DejaVuSans-30" transform="translate(147.412109 0)"/>
       <use xlink:href="#DejaVuSans-30" transform="translate(211.035156 0)"/>
      </g>
     </g>
    </g>
    <g id="ytick_2">
     <g id="line2d_8">
      <g>
       <use xlink:href="#md1298f6ff9" x="57.6" y="219.219472" style="stroke: #000000; stroke-width: 0.8"/>
      </g>
     </g>
     <g id="text_9">
      <!-- −100 -->
      <g transform="translate(23.132812 223.018691) scale(0.1 -0.1)">
       <use xlink:href="#DejaVuSans-2212"/>
       <use xlink:href="#DejaVuSans-31" transform="translate(83.789062 0)"/>
       <use xlink:href="#DejaVuSans-30" transform="translate(147.412109 0)"/>
       <use xlink:href="#DejaVuSans-30" transform="translate(211.035156 0)"/>
      </g>
     </g>
    </g>
    <g id="ytick_3">
     <g id="line2d_9">
      <g>
       <use xlink:href="#md1298f6ff9" x="57.6" y="162.323881" style="stroke: #000000; stroke-width: 0.8"/>
      </g>
     </g>
     <g id="text_10">
      <!-- 0 -->
      <g transform="translate(44.2375 166.1231) scale(0.1 -0.1)">
       <use xlink:href="#DejaVuSans-30"/>
      </g>
     </g>
    </g>
    <g id="ytick_4">
     <g id="line2d_10">
      <g>
       <use xlink:href="#md1298f6ff9" x="57.6" y="105.42829" style="stroke: #000000; stroke-width: 0.8"/>
      </g>
     </g>
     <g id="text_11">
      <!-- 100 -->
      <g transform="translate(31.5125 109.227508) scale(0.1 -0.1)">
       <use xlink:href="#DejaVuSans-31"/>
       <use xlink:href="#DejaVuSans-30" transform="translate(63.623047 0)"/>
       <use xlink:href="#DejaVuSans-30" transform="translate(127.246094 0)"/>
      </g>
     </g>
    </g>
    <g id="ytick_5">
     <g id="line2d_11">
      <g>
       <use xlink:href="#md1298f6ff9" x="57.6" y="48.532698" style="stroke: #000000; stroke-width: 0.8"/>
      </g>
     </g>
     <g id="text_12">
      <!-- 200 -->
      <g transform="translate(31.5125 52.331917) scale(0.1 -0.1)">
       <use xlink:href="#DejaVuSans-32"/>
       <use xlink:href="#DejaVuSans-30" transform="translate(63.623047 0)"/>
       <use xlink:href="#DejaVuSans-30" transform="translate(127.246094 0)"/>
      </g>
     </g>
    </g>
   </g>
   <g id="line2d_12">
    <path d="M 73.832727 199.362938 
L 74.157707 195.806963 
L 74.482686 195.806963 
L 75.457625 185.139041 
L 75.782604 188.695015 
L 76.107584 185.139041 
L 76.432563 185.139041 
L 76.757543 178.027093 
L 77.407502 170.915145 
L 77.732482 174.471119 
L 78.057461 170.915145 
L 78.70742 170.915145 
L 79.0324 167.359171 
L 79.357379 167.359171 
L 79.682359 163.803197 
L 80.007338 167.359171 
L 80.332318 160.247223 
L 80.657297 156.691249 
L 80.982277 160.247223 
L 81.307256 156.691249 
L 81.632236 156.691249 
L 81.957215 153.135274 
L 82.282195 153.135274 
L 82.607174 146.023326 
L 82.932154 149.5793 
L 83.582113 142.467352 
L 83.907093 146.023326 
L 84.557052 138.911378 
L 85.207011 138.911378 
L 85.53199 135.355404 
L 85.85697 135.355404 
L 86.181949 131.79943 
L 86.506929 131.79943 
L 86.831908 128.243456 
L 87.481867 128.243456 
L 87.806847 121.131508 
L 88.131826 128.243456 
L 88.456806 124.687482 
L 88.781785 117.575534 
L 89.106765 124.687482 
L 89.756724 117.575534 
L 90.081704 121.131508 
L 90.731663 114.019559 
L 91.381622 114.019559 
L 91.706601 110.463585 
L 92.031581 114.019559 
L 92.68154 106.907611 
L 93.331499 106.907611 
L 93.656478 103.351637 
L 94.631417 103.351637 
L 94.956396 99.795663 
L 95.606355 99.795663 
L 96.256314 92.683715 
L 96.906274 92.683715 
L 97.231253 89.127741 
L 97.556233 89.127741 
L 98.206192 82.015793 
L 98.531171 85.571767 
L 99.18113 78.459819 
L 99.831089 78.459819 
L 100.156069 71.34787 
L 100.481048 74.903845 
L 101.455987 64.235922 
L 101.780966 67.791896 
L 102.105946 64.235922 
L 102.430925 67.791896 
L 102.755905 60.679948 
L 103.080885 60.679948 
L 103.405864 57.123974 
L 103.730844 60.679948 
L 104.055823 57.123974 
L 104.705782 57.123974 
L 105.030762 60.679948 
L 105.355741 57.123974 
L 105.680721 57.123974 
L 106.0057 60.679948 
L 106.655659 53.568 
L 106.980639 53.568 
L 107.305618 57.123974 
L 107.630598 57.123974 
L 107.955577 60.679948 
L 108.280557 57.123974 
L 108.605536 57.123974 
L 108.930516 60.679948 
L 109.255495 60.679948 
L 109.580475 57.123974 
L 110.230434 64.235922 
L 110.555414 60.679948 
L 110.880393 67.791896 
L 111.205373 67.791896 
L 111.530352 64.235922 
L 111.855332 64.235922 
L 112.180311 71.34787 
L 112.505291 67.791896 
L 112.83027 74.903845 
L 113.15525 71.34787 
L 113.480229 74.903845 
L 113.805209 71.34787 
L 114.455168 78.459819 
L 114.780147 78.459819 
L 115.105127 82.015793 
L 115.430106 89.127741 
L 115.755086 85.571767 
L 116.080066 92.683715 
L 116.405045 89.127741 
L 116.730025 92.683715 
L 117.055004 92.683715 
L 118.029943 103.351637 
L 118.354922 103.351637 
L 118.679902 99.795663 
L 119.004881 103.351637 
L 119.329861 110.463585 
L 119.97982 110.463585 
L 120.304799 117.575534 
L 120.629779 121.131508 
L 120.954758 117.575534 
L 121.604717 124.687482 
L 122.254676 124.687482 
L 123.229615 135.355404 
L 124.204554 135.355404 
L 124.529533 142.467352 
L 124.854513 138.911378 
L 125.179492 146.023326 
L 126.154431 146.023326 
L 126.80439 153.135274 
L 127.129369 153.135274 
L 127.779328 160.247223 
L 128.104308 160.247223 
L 128.429287 163.803197 
L 128.754267 163.803197 
L 129.079247 167.359171 
L 129.404226 163.803197 
L 129.729206 170.915145 
L 130.054185 167.359171 
L 130.704144 174.471119 
L 131.029124 174.471119 
L 131.354103 178.027093 
L 131.679083 178.027093 
L 132.004062 181.583067 
L 132.654021 181.583067 
L 132.979001 185.139041 
L 133.30398 185.139041 
L 133.62896 188.695015 
L 133.953939 188.695015 
L 134.278919 192.250989 
L 134.603898 192.250989 
L 134.928878 195.806963 
L 135.578837 195.806963 
L 135.903817 199.362938 
L 136.553776 199.362938 
L 136.878755 202.918912 
L 137.203735 210.03086 
L 137.528714 202.918912 
L 138.503653 213.586834 
L 138.828632 210.03086 
L 139.153612 213.586834 
L 139.803571 213.586834 
L 140.12855 217.142808 
L 140.45353 217.142808 
L 140.778509 220.698782 
L 141.103489 220.698782 
L 141.428468 224.254756 
L 141.753448 220.698782 
L 142.403407 227.81073 
L 142.728387 224.254756 
L 143.053366 227.81073 
L 143.378346 227.81073 
L 144.028305 234.922678 
L 144.353284 234.922678 
L 144.678264 238.478653 
L 145.003243 234.922678 
L 145.328223 242.034627 
L 145.653202 238.478653 
L 145.978182 238.478653 
L 146.628141 245.590601 
L 146.95312 245.590601 
L 147.603079 252.702549 
L 148.253038 252.702549 
L 148.902998 259.814497 
L 149.552957 259.814497 
L 149.877936 263.370471 
L 150.202916 259.814497 
L 150.852875 266.926445 
L 151.177854 263.370471 
L 151.502834 270.482419 
L 152.152793 270.482419 
L 152.477772 277.594368 
L 153.127731 270.482419 
L 154.10267 270.482419 
L 154.427649 274.038393 
L 154.752629 270.482419 
L 155.077609 270.482419 
L 155.402588 266.926445 
L 155.727568 274.038393 
L 156.377527 266.926445 
L 156.702506 266.926445 
L 157.027486 270.482419 
L 157.352465 263.370471 
L 157.677445 263.370471 
L 158.002424 266.926445 
L 158.327404 259.814497 
L 159.627322 259.814497 
L 159.952301 256.258523 
L 160.277281 256.258523 
L 160.60226 249.146575 
L 160.92724 252.702549 
L 161.252219 249.146575 
L 162.227158 249.146575 
L 162.552138 242.034627 
L 162.877117 242.034627 
L 163.852056 231.366704 
L 164.177035 234.922678 
L 164.502015 231.366704 
L 164.826994 231.366704 
L 165.151974 224.254756 
L 165.476953 224.254756 
L 165.801933 220.698782 
L 166.126912 224.254756 
L 166.451892 217.142808 
L 167.42683 217.142808 
L 167.75181 206.474886 
L 168.07679 210.03086 
L 168.401769 206.474886 
L 168.726749 199.362938 
L 169.051728 202.918912 
L 169.376708 202.918912 
L 169.701687 195.806963 
L 170.026667 199.362938 
L 170.351646 192.250989 
L 170.676626 192.250989 
L 171.001605 188.695015 
L 171.326585 188.695015 
L 171.651564 185.139041 
L 171.976544 185.139041 
L 172.301523 181.583067 
L 172.626503 181.583067 
L 172.951482 178.027093 
L 173.276462 178.027093 
L 173.601441 174.471119 
L 173.926421 174.471119 
L 174.2514 170.915145 
L 174.57638 170.915145 
L 174.90136 167.359171 
L 175.226339 170.915145 
L 175.551319 163.803197 
L 175.876298 167.359171 
L 176.201278 160.247223 
L 176.851237 160.247223 
L 177.176216 156.691249 
L 177.826175 156.691249 
L 178.151155 149.5793 
L 178.476134 149.5793 
L 178.801114 153.135274 
L 179.126093 146.023326 
L 179.776052 138.911378 
L 180.101032 142.467352 
L 180.426011 142.467352 
L 180.750991 138.911378 
L 181.075971 138.911378 
L 181.40095 131.79943 
L 182.050909 131.79943 
L 182.375889 128.243456 
L 182.700868 128.243456 
L 183.025848 131.79943 
L 183.675807 124.687482 
L 184.000786 128.243456 
L 184.325766 121.131508 
L 185.300704 121.131508 
L 185.950663 114.019559 
L 186.275643 114.019559 
L 186.600622 110.463585 
L 186.925602 114.019559 
L 187.250581 114.019559 
L 187.575561 110.463585 
L 187.900541 114.019559 
L 188.5505 106.907611 
L 188.875479 106.907611 
L 189.200459 110.463585 
L 189.525438 103.351637 
L 190.825356 103.351637 
L 191.800295 92.683715 
L 192.125274 92.683715 
L 192.450254 89.127741 
L 192.775233 92.683715 
L 193.100213 89.127741 
L 193.425192 89.127741 
L 194.075152 82.015793 
L 194.400131 85.571767 
L 194.725111 78.459819 
L 195.05009 74.903845 
L 195.37507 78.459819 
L 195.700049 78.459819 
L 196.025029 74.903845 
L 196.350008 74.903845 
L 196.999967 67.791896 
L 197.324947 67.791896 
L 197.649926 64.235922 
L 198.299885 64.235922 
L 198.624865 67.791896 
L 198.949844 60.679948 
L 199.274824 64.235922 
L 199.599803 64.235922 
L 200.249762 57.123974 
L 200.899722 57.123974 
L 201.224701 60.679948 
L 201.549681 57.123974 
L 201.87466 57.123974 
L 202.19964 53.568 
L 202.524619 57.123974 
L 202.849599 57.123974 
L 203.174578 53.568 
L 203.499558 60.679948 
L 203.824537 60.679948 
L 204.149517 57.123974 
L 204.799476 64.235922 
L 205.124455 57.123974 
L 205.774414 57.123974 
L 206.424373 64.235922 
L 206.749353 64.235922 
L 207.074333 60.679948 
L 207.724292 67.791896 
L 208.374251 67.791896 
L 208.69923 71.34787 
L 209.349189 71.34787 
L 209.674169 78.459819 
L 209.999148 74.903845 
L 210.324128 78.459819 
L 210.974087 78.459819 
L 211.299066 85.571767 
L 211.949025 92.683715 
L 212.274005 89.127741 
L 212.598984 89.127741 
L 212.923964 92.683715 
L 213.248943 92.683715 
L 213.573923 96.239689 
L 213.898903 103.351637 
L 214.223882 106.907611 
L 214.548862 99.795663 
L 214.873841 106.907611 
L 215.198821 110.463585 
L 215.5238 106.907611 
L 215.84878 106.907611 
L 216.173759 114.019559 
L 216.823718 121.131508 
L 217.798657 121.131508 
L 218.123636 128.243456 
L 218.773595 128.243456 
L 219.423554 135.355404 
L 219.748534 131.79943 
L 220.073514 138.911378 
L 220.398493 138.911378 
L 220.723473 142.467352 
L 221.048452 142.467352 
L 221.373432 146.023326 
L 221.698411 146.023326 
L 222.023391 153.135274 
L 222.67335 153.135274 
L 222.998329 149.5793 
L 223.323309 160.247223 
L 223.648288 156.691249 
L 224.623227 167.359171 
L 225.273186 167.359171 
L 225.598165 174.471119 
L 226.248124 167.359171 
L 227.223063 178.027093 
L 228.198002 178.027093 
L 228.522981 185.139041 
L 229.17294 185.139041 
L 229.822899 192.250989 
L 230.147879 192.250989 
L 230.797838 199.362938 
L 231.122817 195.806963 
L 231.447797 195.806963 
L 231.772776 202.918912 
L 232.747715 202.918912 
L 233.072695 206.474886 
L 233.397674 202.918912 
L 234.047633 210.03086 
L 234.697592 210.03086 
L 235.022572 213.586834 
L 235.347551 213.586834 
L 235.672531 217.142808 
L 235.99751 213.586834 
L 236.32249 217.142808 
L 236.647469 217.142808 
L 236.972449 220.698782 
L 237.297428 220.698782 
L 237.622408 224.254756 
L 238.272367 224.254756 
L 238.597346 220.698782 
L 238.922326 227.81073 
L 239.572285 227.81073 
L 239.897265 231.366704 
L 240.222244 238.478653 
L 240.547224 231.366704 
L 241.197183 238.478653 
L 241.847142 238.478653 
L 243.14706 252.702549 
L 243.472039 252.702549 
L 243.797019 249.146575 
L 244.121998 256.258523 
L 244.771957 256.258523 
L 245.096937 259.814497 
L 245.746896 259.814497 
L 246.071876 266.926445 
L 247.046814 266.926445 
L 247.371794 263.370471 
L 247.696773 270.482419 
L 248.671712 270.482419 
L 248.996691 263.370471 
L 249.321671 274.038393 
L 249.97163 266.926445 
L 250.621589 274.038393 
L 250.946568 274.038393 
L 251.271548 270.482419 
L 251.596527 274.038393 
L 251.921507 266.926445 
L 252.246486 263.370471 
L 252.571466 263.370471 
L 252.896446 266.926445 
L 253.221425 266.926445 
L 253.546405 263.370471 
L 253.871384 263.370471 
L 254.196364 256.258523 
L 254.521343 263.370471 
L 254.846323 263.370471 
L 255.171302 259.814497 
L 255.496282 259.814497 
L 255.821261 263.370471 
L 256.146241 256.258523 
L 256.47122 252.702549 
L 256.7962 256.258523 
L 257.446159 249.146575 
L 257.771138 249.146575 
L 258.421097 242.034627 
L 258.746077 242.034627 
L 259.071057 238.478653 
L 259.396036 231.366704 
L 259.721016 238.478653 
L 260.045995 234.922678 
L 260.370975 227.81073 
L 260.695954 231.366704 
L 261.020934 227.81073 
L 261.345913 220.698782 
L 261.670893 224.254756 
L 261.995872 220.698782 
L 262.320852 220.698782 
L 262.970811 213.586834 
L 263.29579 213.586834 
L 263.62077 210.03086 
L 263.945749 210.03086 
L 264.595708 202.918912 
L 264.920688 202.918912 
L 265.570647 195.806963 
L 266.220606 195.806963 
L 266.870565 188.695015 
L 267.195545 188.695015 
L 267.845504 181.583067 
L 268.170483 181.583067 
L 268.495463 178.027093 
L 268.820442 181.583067 
L 269.470401 174.471119 
L 269.795381 167.359171 
L 270.12036 174.471119 
L 270.770319 167.359171 
L 271.095299 167.359171 
L 271.420278 170.915145 
L 271.745258 160.247223 
L 272.070238 160.247223 
L 272.395217 163.803197 
L 272.720197 156.691249 
L 273.045176 156.691249 
L 273.370156 153.135274 
L 274.020115 153.135274 
L 274.345094 146.023326 
L 274.670074 146.023326 
L 274.995053 142.467352 
L 275.320033 146.023326 
L 275.969992 138.911378 
L 276.294971 142.467352 
L 276.619951 142.467352 
L 276.94493 135.355404 
L 277.919869 135.355404 
L 278.244848 128.243456 
L 278.569828 128.243456 
L 278.894808 131.79943 
L 279.219787 128.243456 
L 279.544767 128.243456 
L 280.194726 121.131508 
L 280.519705 124.687482 
L 281.169664 117.575534 
L 281.494644 121.131508 
L 281.819623 121.131508 
L 282.144603 114.019559 
L 282.469582 114.019559 
L 282.794562 117.575534 
L 283.119541 114.019559 
L 283.444521 106.907611 
L 283.7695 110.463585 
L 284.09448 106.907611 
L 285.069419 106.907611 
L 285.394398 103.351637 
L 285.719378 110.463585 
L 286.044357 103.351637 
L 287.019296 103.351637 
L 287.344275 96.239689 
L 287.994234 96.239689 
L 288.969173 85.571767 
L 289.294152 89.127741 
L 289.619132 89.127741 
L 289.944111 82.015793 
L 290.269091 85.571767 
L 290.59407 78.459819 
L 290.91905 82.015793 
L 291.569009 74.903845 
L 292.218968 74.903845 
L 292.543948 71.34787 
L 293.193907 71.34787 
L 293.518886 67.791896 
L 293.843866 60.679948 
L 294.168845 64.235922 
L 294.818804 64.235922 
L 295.143784 60.679948 
L 295.468763 60.679948 
L 295.793743 57.123974 
L 296.118722 60.679948 
L 296.768681 53.568 
L 297.41864 60.679948 
L 297.74362 57.123974 
L 298.0686 57.123974 
L 298.393579 60.679948 
L 299.043538 53.568 
L 299.368518 57.123974 
L 299.693497 57.123974 
L 300.018477 60.679948 
L 300.343456 57.123974 
L 300.668436 57.123974 
L 300.993415 53.568 
L 301.318395 60.679948 
L 301.643374 57.123974 
L 302.618313 67.791896 
L 302.943292 64.235922 
L 303.268272 64.235922 
L 303.593251 71.34787 
L 303.918231 67.791896 
L 304.24321 67.791896 
L 304.89317 74.903845 
L 305.543129 74.903845 
L 305.868108 78.459819 
L 306.193088 74.903845 
L 306.518067 82.015793 
L 307.168026 82.015793 
L 307.493006 89.127741 
L 307.817985 92.683715 
L 308.142965 89.127741 
L 308.792924 96.239689 
L 309.117903 92.683715 
L 309.442883 96.239689 
L 309.767862 96.239689 
L 311.067781 110.463585 
L 311.39276 106.907611 
L 311.71774 114.019559 
L 312.042719 114.019559 
L 312.692678 121.131508 
L 313.017658 121.131508 
L 313.342637 117.575534 
L 313.667617 124.687482 
L 313.992596 128.243456 
L 314.642555 128.243456 
L 315.617494 138.911378 
L 315.942473 135.355404 
L 316.267453 138.911378 
L 316.592432 138.911378 
L 316.917412 146.023326 
L 317.242391 142.467352 
L 317.567371 142.467352 
L 317.892351 149.5793 
L 318.21733 153.135274 
L 318.54231 149.5793 
L 318.867289 156.691249 
L 319.192269 156.691249 
L 319.517248 160.247223 
L 319.842228 160.247223 
L 320.167207 163.803197 
L 320.492187 163.803197 
L 320.817166 167.359171 
L 321.467125 167.359171 
L 322.117084 174.471119 
L 322.767043 174.471119 
L 323.417002 181.583067 
L 323.741982 178.027093 
L 324.066962 185.139041 
L 325.36688 185.139041 
L 326.016839 192.250989 
L 326.341818 192.250989 
L 326.666798 195.806963 
L 326.991777 192.250989 
L 327.316757 199.362938 
L 327.641736 195.806963 
L 328.616675 206.474886 
L 328.941654 202.918912 
L 329.591613 210.03086 
L 329.916593 210.03086 
L 330.241572 213.586834 
L 330.566552 213.586834 
L 330.891532 210.03086 
L 331.541491 217.142808 
L 331.86647 217.142808 
L 332.19145 213.586834 
L 332.516429 224.254756 
L 332.841409 220.698782 
L 333.166388 220.698782 
L 333.491368 224.254756 
L 334.141327 224.254756 
L 334.466306 227.81073 
L 334.791286 227.81073 
L 335.116265 231.366704 
L 335.441245 227.81073 
L 335.766224 231.366704 
L 336.091204 231.366704 
L 336.416183 234.922678 
L 336.741163 234.922678 
L 337.066143 238.478653 
L 337.391122 234.922678 
L 337.716102 242.034627 
L 338.041081 245.590601 
L 338.366061 245.590601 
L 338.69104 249.146575 
L 339.340999 249.146575 
L 339.990958 256.258523 
L 340.965897 256.258523 
L 341.615856 263.370471 
L 341.940835 263.370471 
L 342.265815 266.926445 
L 342.590794 263.370471 
L 343.240753 270.482419 
L 343.565733 263.370471 
L 343.890713 270.482419 
L 344.865651 270.482419 
L 345.190631 274.038393 
L 345.51561 266.926445 
L 345.84059 270.482419 
L 346.165569 266.926445 
L 346.490549 270.482419 
L 346.815528 270.482419 
L 347.140508 266.926445 
L 347.465487 266.926445 
L 347.790467 263.370471 
L 348.115446 270.482419 
L 348.765405 263.370471 
L 349.090385 266.926445 
L 349.415364 263.370471 
L 350.390303 263.370471 
L 351.040262 256.258523 
L 351.690221 256.258523 
L 352.015201 252.702549 
L 352.66516 252.702549 
L 352.990139 245.590601 
L 353.315119 249.146575 
L 353.965078 242.034627 
L 354.290057 245.590601 
L 354.940016 238.478653 
L 355.589975 238.478653 
L 355.914955 231.366704 
L 356.239934 227.81073 
L 357.214873 227.81073 
L 357.864832 220.698782 
L 358.189812 213.586834 
L 358.514791 217.142808 
L 359.16475 210.03086 
L 359.814709 210.03086 
L 360.139689 206.474886 
L 360.464668 206.474886 
L 361.439607 195.806963 
L 361.764586 195.806963 
L 362.089566 192.250989 
L 362.414545 192.250989 
L 363.389484 181.583067 
L 363.714464 185.139041 
L 364.364423 178.027093 
L 364.689402 178.027093 
L 365.014382 181.583067 
L 365.339361 178.027093 
L 365.664341 170.915145 
L 366.3143 170.915145 
L 366.639279 163.803197 
L 366.964259 167.359171 
L 367.614218 167.359171 
L 367.939197 160.247223 
L 368.264177 160.247223 
L 368.589156 156.691249 
L 369.239115 156.691249 
L 369.564095 149.5793 
L 370.214054 149.5793 
L 370.539034 146.023326 
L 370.864013 149.5793 
L 371.513972 142.467352 
L 371.838952 142.467352 
L 372.488911 135.355404 
L 372.81389 138.911378 
L 373.13887 135.355404 
L 373.463849 135.355404 
L 373.788829 128.243456 
L 374.113808 131.79943 
L 374.438788 128.243456 
L 374.763767 128.243456 
L 375.088747 124.687482 
L 375.413726 128.243456 
L 375.738706 121.131508 
L 376.063686 121.131508 
L 376.388665 124.687482 
L 377.038624 117.575534 
L 378.013563 117.575534 
L 378.338542 110.463585 
L 378.663522 114.019559 
L 378.988501 110.463585 
L 379.313481 114.019559 
L 379.96344 106.907611 
L 380.288419 106.907611 
L 380.613399 110.463585 
L 380.938378 103.351637 
L 381.263358 106.907611 
L 381.588337 103.351637 
L 381.913317 103.351637 
L 382.238296 99.795663 
L 382.563276 99.795663 
L 382.888256 96.239689 
L 383.213235 99.795663 
L 383.538215 92.683715 
L 383.863194 96.239689 
L 384.188174 89.127741 
L 384.513153 92.683715 
L 384.838133 85.571767 
L 385.163112 85.571767 
L 385.488092 82.015793 
L 385.813071 85.571767 
L 386.138051 82.015793 
L 386.78801 82.015793 
L 387.112989 78.459819 
L 387.437969 71.34787 
L 387.762948 74.903845 
L 388.087928 74.903845 
L 388.737887 67.791896 
L 389.062867 67.791896 
L 389.387846 64.235922 
L 389.712826 67.791896 
L 390.362785 60.679948 
L 390.687764 60.679948 
L 391.012744 64.235922 
L 391.337723 60.679948 
L 391.987682 60.679948 
L 392.637641 53.568 
L 392.962621 57.123974 
L 393.2876 57.123974 
L 393.61258 60.679948 
L 393.937559 53.568 
L 394.262539 57.123974 
L 394.587518 53.568 
L 394.912498 57.123974 
L 395.237477 57.123974 
L 395.562457 53.568 
L 395.887437 57.123974 
L 396.212416 64.235922 
L 396.537396 60.679948 
L 396.862375 60.679948 
L 397.187355 64.235922 
L 397.512334 60.679948 
L 398.162293 60.679948 
L 398.487273 64.235922 
L 398.487273 64.235922 
" clip-path="url(#p04f2884762)" style="fill: none; stroke: #1f77b4; stroke-width: 1.5; stroke-linecap: square"/>
   </g>
   <g id="line2d_13">
    <path d="M 73.832727 274.152155 
L 74.157707 277.70813 
L 74.482686 277.70813 
L 74.807666 281.264104 
L 75.782604 281.264104 
L 76.107584 277.70813 
L 76.432563 281.264104 
L 76.757543 277.70813 
L 77.082523 284.820078 
L 77.407502 284.820078 
L 77.732482 288.376052 
L 78.057461 284.820078 
L 78.382441 288.376052 
L 78.70742 288.376052 
L 79.0324 284.820078 
L 79.357379 284.820078 
L 80.007338 291.932026 
L 80.332318 284.820078 
L 80.982277 284.820078 
L 81.307256 281.264104 
L 81.632236 288.376052 
L 81.957215 281.264104 
L 82.607174 288.376052 
L 82.932154 288.376052 
L 83.257133 284.820078 
L 83.582113 288.376052 
L 84.232072 281.264104 
L 84.557052 281.264104 
L 84.882031 284.820078 
L 85.207011 284.820078 
L 85.53199 277.70813 
L 86.181949 277.70813 
L 86.506929 274.152155 
L 86.831908 277.70813 
L 87.156888 270.596181 
L 87.481867 274.152155 
L 88.131826 274.152155 
L 88.456806 270.596181 
L 88.781785 263.484233 
L 89.106765 270.596181 
L 89.431744 263.484233 
L 89.756724 263.484233 
L 90.081704 267.040207 
L 90.406683 267.040207 
L 90.731663 259.928259 
L 91.056642 259.928259 
L 91.381622 256.372285 
L 92.031581 256.372285 
L 92.35656 249.260337 
L 92.68154 252.816311 
L 93.006519 252.816311 
L 93.331499 249.260337 
L 93.656478 249.260337 
L 93.981458 242.148389 
L 94.306437 242.148389 
L 94.956396 235.036441 
L 95.281376 238.592415 
L 96.256314 227.924492 
L 96.581294 227.924492 
L 96.906274 224.368518 
L 97.231253 224.368518 
L 97.556233 220.812544 
L 98.531171 220.812544 
L 98.856151 213.700596 
L 99.18113 210.144622 
L 99.50611 210.144622 
L 100.481048 199.4767 
L 100.806028 203.032674 
L 101.131007 195.920726 
L 101.455987 192.364751 
L 101.780966 192.364751 
L 102.105946 188.808777 
L 102.430925 192.364751 
L 102.755905 181.696829 
L 103.080885 185.252803 
L 103.405864 185.252803 
L 103.730844 188.808777 
L 104.055823 178.140855 
L 104.380803 178.140855 
L 105.355741 167.472933 
L 105.680721 171.028907 
L 107.305618 153.249037 
L 107.630598 153.249037 
L 107.955577 146.137088 
L 108.930516 146.137088 
L 110.230434 131.913192 
L 110.880393 131.913192 
L 111.855332 121.24527 
L 112.180311 121.24527 
L 112.505291 117.689296 
L 112.83027 117.689296 
L 113.15525 110.577347 
L 113.480229 110.577347 
L 113.805209 114.133322 
L 114.455168 114.133322 
L 114.780147 107.021373 
L 115.105127 107.021373 
L 115.755086 99.909425 
L 116.080066 99.909425 
L 116.405045 96.353451 
L 117.055004 96.353451 
L 117.379984 89.241503 
L 118.029943 89.241503 
L 118.354922 85.685529 
L 118.679902 89.241503 
L 119.004881 85.685529 
L 119.65484 85.685529 
L 119.97982 82.129555 
L 120.304799 85.685529 
L 120.629779 78.573581 
L 120.954758 75.017607 
L 121.279738 78.573581 
L 121.604717 78.573581 
L 121.929697 75.017607 
L 122.254676 75.017607 
L 122.579656 67.905658 
L 122.904636 71.461632 
L 123.229615 71.461632 
L 123.554595 64.349684 
L 124.204554 71.461632 
L 124.529533 71.461632 
L 124.854513 64.349684 
L 125.179492 67.905658 
L 125.504472 64.349684 
L 125.829451 67.905658 
L 126.154431 64.349684 
L 126.47941 67.905658 
L 126.80439 67.905658 
L 127.129369 64.349684 
L 128.429287 64.349684 
L 128.754267 60.79371 
L 129.079247 67.905658 
L 129.404226 67.905658 
L 129.729206 71.461632 
L 130.379165 64.349684 
L 130.704144 64.349684 
L 131.029124 71.461632 
L 131.354103 67.905658 
L 131.679083 67.905658 
L 132.004062 71.461632 
L 132.329042 67.905658 
L 132.979001 67.905658 
L 133.62896 75.017607 
L 133.953939 67.905658 
L 134.278919 75.017607 
L 134.603898 75.017607 
L 134.928878 82.129555 
L 135.253857 78.573581 
L 136.228796 78.573581 
L 136.553776 82.129555 
L 136.878755 82.129555 
L 137.203735 85.685529 
L 137.853694 85.685529 
L 138.178673 89.241503 
L 138.503653 89.241503 
L 138.828632 92.797477 
L 139.153612 89.241503 
L 139.478591 96.353451 
L 139.803571 96.353451 
L 140.12855 99.909425 
L 140.45353 99.909425 
L 140.778509 103.465399 
L 141.753448 103.465399 
L 142.078428 107.021373 
L 142.403407 107.021373 
L 143.053366 114.133322 
L 143.703325 114.133322 
L 144.028305 121.24527 
L 144.353284 117.689296 
L 144.678264 124.801244 
L 145.003243 124.801244 
L 145.328223 131.913192 
L 145.653202 128.357218 
L 145.978182 131.913192 
L 146.303161 139.02514 
L 146.628141 139.02514 
L 146.95312 135.469166 
L 147.2781 142.581114 
L 147.603079 146.137088 
L 147.928059 142.581114 
L 148.578018 149.693062 
L 148.902998 146.137088 
L 149.227977 153.249037 
L 149.552957 153.249037 
L 149.877936 163.916959 
L 150.202916 167.472933 
L 150.527895 167.472933 
L 150.852875 163.916959 
L 151.177854 171.028907 
L 151.502834 167.472933 
L 151.827813 174.584881 
L 152.152793 174.584881 
L 152.477772 181.696829 
L 152.802752 181.696829 
L 153.127731 178.140855 
L 153.452711 178.140855 
L 153.77769 181.696829 
L 154.10267 181.696829 
L 154.427649 188.808777 
L 154.752629 188.808777 
L 155.077609 192.364751 
L 155.402588 199.4767 
L 155.727568 203.032674 
L 156.377527 203.032674 
L 156.702506 206.588648 
L 157.027486 206.588648 
L 157.352465 213.700596 
L 157.677445 217.25657 
L 158.652383 217.25657 
L 159.627322 227.924492 
L 159.952301 224.368518 
L 160.277281 231.480466 
L 160.60226 235.036441 
L 160.92724 242.148389 
L 161.252219 238.592415 
L 161.577199 238.592415 
L 161.902179 242.148389 
L 162.552138 242.148389 
L 162.877117 249.260337 
L 163.202097 245.704363 
L 163.527076 249.260337 
L 163.852056 249.260337 
L 164.177035 252.816311 
L 164.502015 252.816311 
L 164.826994 256.372285 
L 165.151974 256.372285 
L 165.801933 263.484233 
L 166.126912 263.484233 
L 166.451892 267.040207 
L 166.776871 263.484233 
L 167.101851 267.040207 
L 167.75181 267.040207 
L 168.07679 274.152155 
L 168.401769 274.152155 
L 168.726749 270.596181 
L 169.051728 274.152155 
L 169.701687 274.152155 
L 170.026667 281.264104 
L 170.351646 277.70813 
L 170.676626 281.264104 
L 171.001605 281.264104 
L 171.326585 284.820078 
L 171.651564 284.820078 
L 171.976544 281.264104 
L 172.301523 284.820078 
L 172.626503 281.264104 
L 172.951482 281.264104 
L 173.276462 288.376052 
L 173.601441 284.820078 
L 174.2514 284.820078 
L 174.57638 281.264104 
L 175.226339 288.376052 
L 175.551319 281.264104 
L 175.876298 288.376052 
L 176.201278 288.376052 
L 176.526257 291.932026 
L 176.851237 288.376052 
L 177.176216 288.376052 
L 177.501196 291.932026 
L 177.826175 284.820078 
L 178.151155 284.820078 
L 178.476134 288.376052 
L 178.801114 288.376052 
L 179.126093 284.820078 
L 179.451073 284.820078 
L 180.101032 277.70813 
L 180.426011 284.820078 
L 180.750991 277.70813 
L 181.075971 284.820078 
L 181.72593 284.820078 
L 182.050909 277.70813 
L 182.700868 277.70813 
L 183.025848 274.152155 
L 183.350827 274.152155 
L 183.675807 277.70813 
L 184.650745 267.040207 
L 184.975725 267.040207 
L 185.300704 263.484233 
L 185.625684 267.040207 
L 185.950663 259.928259 
L 186.275643 263.484233 
L 186.925602 263.484233 
L 187.250581 259.928259 
L 187.575561 252.816311 
L 188.22552 252.816311 
L 188.5505 245.704363 
L 188.875479 252.816311 
L 190.175397 238.592415 
L 190.825356 238.592415 
L 191.150336 235.036441 
L 192.125274 235.036441 
L 192.450254 227.924492 
L 192.775233 224.368518 
L 193.100213 224.368518 
L 193.750172 217.25657 
L 194.075152 220.812544 
L 194.400131 217.25657 
L 194.725111 210.144622 
L 195.05009 210.144622 
L 195.37507 203.032674 
L 195.700049 203.032674 
L 196.025029 206.588648 
L 196.350008 199.4767 
L 196.999967 199.4767 
L 197.324947 203.032674 
L 197.649926 192.364751 
L 198.299885 192.364751 
L 198.949844 185.252803 
L 199.274824 188.808777 
L 199.599803 181.696829 
L 199.924783 181.696829 
L 200.249762 171.028907 
L 200.574742 171.028907 
L 200.899722 163.916959 
L 201.224701 171.028907 
L 201.549681 163.916959 
L 201.87466 167.472933 
L 202.19964 167.472933 
L 203.174578 156.805011 
L 203.499558 156.805011 
L 203.824537 149.693062 
L 204.149517 146.137088 
L 204.474496 149.693062 
L 204.799476 142.581114 
L 205.124455 142.581114 
L 206.099394 131.913192 
L 206.424373 131.913192 
L 206.749353 128.357218 
L 207.724292 128.357218 
L 208.049271 121.24527 
L 208.374251 121.24527 
L 209.02421 114.133322 
L 209.674169 114.133322 
L 209.999148 110.577347 
L 210.324128 110.577347 
L 210.649107 103.465399 
L 210.974087 103.465399 
L 211.299066 99.909425 
L 211.624046 103.465399 
L 211.949025 96.353451 
L 212.274005 99.909425 
L 212.598984 96.353451 
L 212.923964 96.353451 
L 213.248943 89.241503 
L 214.223882 89.241503 
L 214.548862 85.685529 
L 214.873841 85.685529 
L 215.198821 82.129555 
L 215.5238 82.129555 
L 215.84878 78.573581 
L 216.823718 78.573581 
L 217.148698 71.461632 
L 217.473677 75.017607 
L 217.798657 75.017607 
L 218.123636 78.573581 
L 218.448616 71.461632 
L 219.423554 71.461632 
L 219.748534 67.905658 
L 220.073514 71.461632 
L 220.723473 64.349684 
L 221.048452 67.905658 
L 221.698411 60.79371 
L 222.023391 67.905658 
L 222.34837 60.79371 
L 222.67335 64.349684 
L 222.998329 71.461632 
L 223.323309 71.461632 
L 223.648288 64.349684 
L 224.298247 64.349684 
L 224.623227 67.905658 
L 224.948206 64.349684 
L 225.273186 67.905658 
L 225.598165 67.905658 
L 225.923145 60.79371 
L 226.248124 67.905658 
L 226.573104 64.349684 
L 226.898084 64.349684 
L 227.223063 67.905658 
L 227.548043 60.79371 
L 227.873022 67.905658 
L 228.522981 75.017607 
L 228.847961 71.461632 
L 229.17294 71.461632 
L 229.49792 75.017607 
L 230.147879 75.017607 
L 230.472858 78.573581 
L 232.097756 78.573581 
L 232.422735 82.129555 
L 232.747715 78.573581 
L 233.072695 85.685529 
L 233.722654 92.797477 
L 234.047633 89.241503 
L 234.372613 89.241503 
L 234.697592 92.797477 
L 235.022572 92.797477 
L 235.672531 99.909425 
L 235.99751 99.909425 
L 236.32249 96.353451 
L 236.972449 103.465399 
L 237.297428 99.909425 
L 237.622408 110.577347 
L 237.947387 99.909425 
L 238.272367 110.577347 
L 238.922326 117.689296 
L 239.572285 117.689296 
L 239.897265 121.24527 
L 240.222244 117.689296 
L 240.547224 124.801244 
L 240.872203 128.357218 
L 241.847142 128.357218 
L 242.172121 131.913192 
L 242.497101 131.913192 
L 242.82208 142.581114 
L 243.14706 139.02514 
L 244.446978 153.249037 
L 244.771957 153.249037 
L 245.096937 156.805011 
L 245.421916 156.805011 
L 245.746896 153.249037 
L 246.071876 163.916959 
L 246.396855 167.472933 
L 246.721835 167.472933 
L 247.046814 163.916959 
L 247.371794 163.916959 
L 247.696773 167.472933 
L 248.021753 178.140855 
L 248.346732 171.028907 
L 248.671712 178.140855 
L 248.996691 181.696829 
L 249.321671 192.364751 
L 249.64665 185.252803 
L 249.97163 192.364751 
L 250.946568 192.364751 
L 251.271548 199.4767 
L 251.596527 203.032674 
L 251.921507 199.4767 
L 252.246486 203.032674 
L 252.896446 203.032674 
L 253.221425 213.700596 
L 253.546405 210.144622 
L 253.871384 213.700596 
L 254.196364 220.812544 
L 254.521343 224.368518 
L 255.171302 224.368518 
L 255.496282 227.924492 
L 255.821261 227.924492 
L 256.7962 238.592415 
L 257.121179 238.592415 
L 257.446159 242.148389 
L 258.096118 242.148389 
L 258.421097 245.704363 
L 258.746077 242.148389 
L 259.396036 256.372285 
L 260.370975 256.372285 
L 260.695954 259.928259 
L 261.345913 259.928259 
L 261.670893 267.040207 
L 261.995872 267.040207 
L 262.320852 263.484233 
L 262.645831 263.484233 
L 262.970811 267.040207 
L 263.29579 263.484233 
L 263.62077 270.596181 
L 263.945749 267.040207 
L 264.270729 274.152155 
L 264.595708 277.70813 
L 264.920688 277.70813 
L 265.245667 274.152155 
L 265.570647 274.152155 
L 265.895627 281.264104 
L 266.220606 277.70813 
L 266.545586 277.70813 
L 266.870565 284.820078 
L 267.195545 281.264104 
L 267.520524 281.264104 
L 267.845504 277.70813 
L 268.170483 281.264104 
L 268.495463 277.70813 
L 268.820442 288.376052 
L 269.145422 281.264104 
L 269.470401 288.376052 
L 269.795381 284.820078 
L 270.12036 288.376052 
L 270.44534 288.376052 
L 270.770319 284.820078 
L 271.095299 288.376052 
L 271.420278 288.376052 
L 271.745258 284.820078 
L 272.070238 295.488 
L 272.720197 288.376052 
L 273.045176 288.376052 
L 273.370156 281.264104 
L 273.695135 281.264104 
L 274.020115 288.376052 
L 274.345094 281.264104 
L 274.670074 288.376052 
L 274.995053 291.932026 
L 275.645012 284.820078 
L 276.294971 284.820078 
L 276.619951 281.264104 
L 277.594889 281.264104 
L 277.919869 277.70813 
L 278.244848 277.70813 
L 278.894808 270.596181 
L 279.219787 274.152155 
L 279.544767 270.596181 
L 279.869746 274.152155 
L 280.194726 274.152155 
L 280.519705 270.596181 
L 280.844685 270.596181 
L 281.169664 267.040207 
L 281.494644 267.040207 
L 282.144603 259.928259 
L 282.469582 263.484233 
L 282.794562 263.484233 
L 283.119541 256.372285 
L 283.444521 256.372285 
L 284.09448 249.260337 
L 284.419459 252.816311 
L 284.744439 245.704363 
L 285.069419 245.704363 
L 285.394398 249.260337 
L 285.719378 249.260337 
L 286.044357 245.704363 
L 286.369337 238.592415 
L 286.694316 238.592415 
L 287.019296 235.036441 
L 287.994234 235.036441 
L 288.319214 227.924492 
L 288.644193 224.368518 
L 288.969173 224.368518 
L 289.944111 213.700596 
L 290.269091 217.25657 
L 290.91905 217.25657 
L 291.244029 210.144622 
L 291.893989 203.032674 
L 292.218968 203.032674 
L 292.543948 199.4767 
L 293.193907 199.4767 
L 293.518886 188.808777 
L 293.843866 188.808777 
L 294.493825 181.696829 
L 294.818804 188.808777 
L 295.143784 178.140855 
L 295.468763 178.140855 
L 295.793743 181.696829 
L 296.118722 181.696829 
L 296.443702 171.028907 
L 297.093661 171.028907 
L 297.41864 163.916959 
L 297.74362 160.360985 
L 298.0686 163.916959 
L 299.693497 146.137088 
L 300.018477 146.137088 
L 300.343456 142.581114 
L 300.668436 146.137088 
L 300.993415 142.581114 
L 301.318395 142.581114 
L 302.618313 128.357218 
L 302.943292 128.357218 
L 303.268272 124.801244 
L 303.593251 124.801244 
L 304.89317 110.577347 
L 305.218149 114.133322 
L 305.543129 107.021373 
L 305.868108 110.577347 
L 306.193088 110.577347 
L 306.518067 114.133322 
L 306.843047 103.465399 
L 307.168026 103.465399 
L 307.817985 96.353451 
L 308.792924 96.353451 
L 309.117903 92.797477 
L 309.442883 92.797477 
L 310.092842 85.685529 
L 310.417821 89.241503 
L 310.742801 82.129555 
L 311.067781 85.685529 
L 311.71774 85.685529 
L 312.042719 78.573581 
L 312.692678 78.573581 
L 313.017658 75.017607 
L 313.992596 75.017607 
L 314.317576 71.461632 
L 314.642555 71.461632 
L 314.967535 67.905658 
L 315.292514 67.905658 
L 315.617494 71.461632 
L 315.942473 64.349684 
L 316.592432 71.461632 
L 316.917412 71.461632 
L 317.567371 64.349684 
L 317.892351 67.905658 
L 318.21733 64.349684 
L 318.54231 64.349684 
L 318.867289 71.461632 
L 319.192269 67.905658 
L 319.517248 67.905658 
L 320.167207 60.79371 
L 320.492187 64.349684 
L 320.817166 64.349684 
L 321.142146 60.79371 
L 321.467125 64.349684 
L 321.792105 64.349684 
L 322.117084 67.905658 
L 323.741982 67.905658 
L 324.066962 71.461632 
L 324.716921 71.461632 
L 325.0419 75.017607 
L 325.36688 71.461632 
L 325.691859 71.461632 
L 326.016839 75.017607 
L 326.341818 71.461632 
L 326.666798 75.017607 
L 326.991777 82.129555 
L 328.616675 82.129555 
L 329.266634 89.241503 
L 329.591613 85.685529 
L 329.916593 85.685529 
L 330.241572 89.241503 
L 330.891532 89.241503 
L 331.216511 99.909425 
L 331.541491 92.797477 
L 331.86647 96.353451 
L 332.19145 103.465399 
L 332.516429 107.021373 
L 332.841409 99.909425 
L 333.166388 107.021373 
L 333.816347 107.021373 
L 334.466306 114.133322 
L 334.791286 114.133322 
L 335.116265 117.689296 
L 336.091204 117.689296 
L 336.416183 124.801244 
L 336.741163 121.24527 
L 337.066143 128.357218 
L 337.716102 135.469166 
L 338.041081 135.469166 
L 338.69104 142.581114 
L 339.340999 142.581114 
L 339.990958 149.693062 
L 340.315938 149.693062 
L 340.640917 153.249037 
L 341.290876 153.249037 
L 341.615856 163.916959 
L 341.940835 156.805011 
L 342.265815 167.472933 
L 342.915774 174.584881 
L 343.240753 167.472933 
L 343.565733 174.584881 
L 344.215692 181.696829 
L 344.540672 174.584881 
L 344.865651 185.252803 
L 345.190631 188.808777 
L 345.51561 181.696829 
L 345.84059 185.252803 
L 346.490549 185.252803 
L 346.815528 192.364751 
L 347.140508 192.364751 
L 347.465487 199.4767 
L 347.790467 203.032674 
L 348.115446 210.144622 
L 348.440426 206.588648 
L 348.765405 206.588648 
L 349.090385 213.700596 
L 349.740344 213.700596 
L 350.065324 220.812544 
L 350.715283 220.812544 
L 351.365242 227.924492 
L 351.690221 224.368518 
L 352.015201 231.480466 
L 352.34018 231.480466 
L 352.66516 238.592415 
L 353.315119 245.704363 
L 353.640098 242.148389 
L 353.965078 242.148389 
L 354.290057 245.704363 
L 354.940016 245.704363 
L 355.264996 252.816311 
L 355.914955 252.816311 
L 356.239934 256.372285 
L 356.889894 256.372285 
L 357.214873 259.928259 
L 357.539853 259.928259 
L 358.189812 267.040207 
L 359.16475 267.040207 
L 359.48973 270.596181 
L 360.139689 270.596181 
L 360.464668 277.70813 
L 360.789648 274.152155 
L 362.089566 274.152155 
L 362.414545 277.70813 
L 362.739525 277.70813 
L 363.064505 281.264104 
L 363.389484 281.264104 
L 363.714464 284.820078 
L 364.039443 281.264104 
L 364.364423 284.820078 
L 365.339361 284.820078 
L 365.664341 288.376052 
L 365.98932 288.376052 
L 366.3143 284.820078 
L 366.964259 284.820078 
L 367.289238 281.264104 
L 367.614218 288.376052 
L 367.939197 284.820078 
L 368.589156 291.932026 
L 368.914136 288.376052 
L 369.889075 288.376052 
L 370.214054 284.820078 
L 370.539034 284.820078 
L 370.864013 288.376052 
L 371.513972 281.264104 
L 371.838952 284.820078 
L 372.163931 281.264104 
L 372.488911 274.152155 
L 372.81389 281.264104 
L 373.13887 277.70813 
L 373.463849 284.820078 
L 373.788829 277.70813 
L 374.113808 281.264104 
L 374.438788 274.152155 
L 374.763767 274.152155 
L 375.088747 277.70813 
L 375.413726 270.596181 
L 375.738706 267.040207 
L 376.063686 270.596181 
L 376.388665 270.596181 
L 376.713645 267.040207 
L 377.038624 267.040207 
L 377.688583 259.928259 
L 378.663522 259.928259 
L 378.988501 256.372285 
L 379.96344 256.372285 
L 380.288419 252.816311 
L 380.613399 245.704363 
L 380.938378 245.704363 
L 381.263358 249.260337 
L 381.913317 242.148389 
L 382.238296 242.148389 
L 382.888256 235.036441 
L 383.213235 235.036441 
L 383.538215 224.368518 
L 383.863194 227.924492 
L 384.188174 227.924492 
L 384.513153 231.480466 
L 385.813071 217.25657 
L 386.46303 217.25657 
L 387.437969 206.588648 
L 387.762948 199.4767 
L 388.412907 199.4767 
L 388.737887 192.364751 
L 389.062867 195.920726 
L 389.712826 195.920726 
L 390.037805 188.808777 
L 390.362785 188.808777 
L 390.687764 185.252803 
L 391.012744 185.252803 
L 391.337723 174.584881 
L 391.662703 181.696829 
L 392.312662 174.584881 
L 392.637641 167.472933 
L 392.962621 163.916959 
L 393.2876 167.472933 
L 393.61258 167.472933 
L 393.937559 156.805011 
L 394.262539 160.360985 
L 394.912498 160.360985 
L 395.237477 153.249037 
L 395.562457 149.693062 
L 395.887437 149.693062 
L 396.212416 142.581114 
L 396.537396 139.02514 
L 396.862375 142.581114 
L 397.512334 135.469166 
L 397.837314 135.469166 
L 398.487273 128.357218 
L 398.487273 128.357218 
" clip-path="url(#p04f2884762)" style="fill: none; stroke: #ff7f0e; stroke-width: 1.5; stroke-linecap: square"/>
   </g>
   <g id="line2d_14">
    <path d="M 73.832727 148.013786 
L 82.607174 148.024454 
L 94.631417 148.052902 
L 99.50611 148.056458 
L 106.655659 148.109797 
L 119.65484 148.074238 
L 129.729206 148.08135 
L 134.603898 148.08135 
L 143.378346 148.070682 
L 149.552957 148.04579 
L 155.727568 148.070682 
L 171.651564 148.006674 
L 398.487273 148.08135 
L 398.487273 148.08135 
" clip-path="url(#p04f2884762)" style="fill: none; stroke: #2ca02c; stroke-width: 1.5; stroke-linecap: square"/>
   </g>
   <g id="patch_3">
    <path d="M 57.6 307.584 
L 57.6 41.472 
" style="fill: none; stroke: #000000; stroke-width: 0.8; stroke-linejoin: miter; stroke-linecap: square"/>
   </g>
   <g id="patch_4">
    <path d="M 414.72 307.584 
L 414.72 41.472 
" style="fill: none; stroke: #000000; stroke-width: 0.8; stroke-linejoin: miter; stroke-linecap: square"/>
   </g>
   <g id="patch_5">
    <path d="M 57.6 307.584 
L 414.72 307.584 
" style="fill: none; stroke: #000000; stroke-width: 0.8; stroke-linejoin: miter; stroke-linecap: square"/>
   </g>
   <g id="patch_6">
    <path d="M 57.6 41.472 
L 414.72 41.472 
" style="fill: none; stroke: #000000; stroke-width: 0.8; stroke-linejoin: miter; stroke-linecap: square"/>
   </g>
  </g>
 </g>
 <defs>
  <clipPath id="p04f2884762">
   <rect x="57.6" y="41.472" width="357.12" height="266.112"/>
  </clipPath>
 </defs>
</svg>
