<?xml version="1.0" encoding="utf-8" standalone="no"?>
<!DOCTYPE svg PUBLIC "-//W3C//DTD SVG 1.1//EN"
  "http://www.w3.org/Graphics/SVG/1.1/DTD/svg11.dtd">
<svg xmlns:xlink="http://www.w3.org/1999/xlink" width="460.8pt" height="345.6pt" viewBox="0 0 460.8 345.6" xmlns="http://www.w3.org/2000/svg" version="1.1">
 <metadata>
  <rdf:RDF xmlns:dc="http://purl.org/dc/elements/1.1/" xmlns:cc="http://creativecommons.org/ns#" xmlns:rdf="http://www.w3.org/1999/02/22-rdf-syntax-ns#">
   <cc:Work>
    <dc:type rdf:resource="http://purl.org/dc/dcmitype/StillImage"/>
    <dc:date>2025-12-30T07:08:42.931470</dc:date>
    <dc:format>image/svg+xml</dc:format>
    <dc:creator>
     <cc:Agent>
      <dc:title>Matplotlib v3.10.8, https://matplotlib.org/</dc:title>
     </cc:Agent>
    </dc:creator>
   </cc:Work>
  </rdf:RDF>
 </metadata>
 <defs>
  <style type="text/css">*{stroke-linejoin: round; stroke-linecap: butt}</style>
 </defs>
 <g id="figure_1">
  <g id="patch_1">
   <path d="M 0 345.6 
L 460.8 345.6 
L 460.8 0 
L 0 0 
z
" style="fill: #ffffff"/>
  </g>
  <g id="axes_1">
   <g id="patch_2">
    <path d="M 57.6 307.584 
L 414.72 307.584 
L 414.72 41.472 
L 57.6 41.472 
z
" style="fill: #ffffff"/>
   </g>
   <g id="matplotlib.axis_1">
    <g id="xtick_1">
     <g id="line2d_1">
      <defs>
       <path id="maa9b1b065b" d="M 0 0 
L 0 3.5 
" style="stroke: #000000; stroke-width: 0.8"/>
      </defs>
      <g>
       <use xlink:href="#maa9b1b065b" x="73.832727" y="307.584" style="stroke: #000000; stroke-width: 0.8"/>
      </g>
     </g>
     <g id="text_1">
      <!-- 0 -->
      <g transform="translate(70.651477 322.182437) scale(0.1 -0.1)">
       <defs>
        <path id="DejaVuSans-30" d="M 2034 4250 
Q 1547 4250 1301 3770 
Q 1056 3291 1056 2328 
Q 1056 1369 1301 889 
Q 1547 409 2034 409 
Q 2525 409 2770 889 
Q 3016 1369 3016 2328 
Q 3016 3291 2770 3770 
Q 2525 4250 2034 4250 
z
M 2034 4750 
Q 2819 4750 3233 4129 
Q 3647 3509 3647 2328 
Q 3647 1150 3233 529 
Q 2819 -91 2034 -91 
Q 1250 -91 836 529 
Q 422 1150 422 2328 
Q 422 3509 836 4129 
Q 1250 4750 2034 4750 
z
" transform="scale(0.015625)"/>
       </defs>
       <use xlink:href="#DejaVuSans-30"/>
      </g>
     </g>
    </g>
    <g id="xtick_2">
     <g id="line2d_2">
      <g>
       <use xlink:href="#maa9b1b065b" x="138.828632" y="307.584" style="stroke: #000000; stroke-width: 0.8"/>
      </g>
     </g>
     <g id="text_2">
      <!-- 1 -->
      <g transform="translate(135.647382 322.182437) scale(0.1 -0.1)">
       <defs>
        <path id="DejaVuSans-31" d="M 794 531 
L 1825 531 
L 1825 4091 
L 703 3866 
L 703 4441 
L 1819 4666 
L 2450 4666 
L 2450 531 
L 3481 531 
L 3481 0 
L 794 0 
L 794 531 
z
" transform="scale(0.015625)"/>
       </defs>
       <use xlink:href="#DejaVuSans-31"/>
      </g>
     </g>
    </g>
    <g id="xtick_3">
     <g id="line2d_3">
      <g>
       <use xlink:href="#maa9b1b065b" x="203.824537" y="307.584" style="stroke: #000000; stroke-width: 0.8"/>
      </g>
     </g>
     <g id="text_3">
      <!-- 2 -->
      <g transform="translate(200.643287 322.182437) scale(0.1 -0.1)">
       <defs>
        <path id="DejaVuSans-32" d="M 1228 531 
L 3431 531 
L 3431 0 
L 469 0 
L 469 531 
Q 828 903 1448 1529 
Q 2069 2156 2228 2338 
Q 2531 2678 2651 2914 
Q 2772 3150 2772 3378 
Q 2772 3750 2511 3984 
Q 2250 4219 1831 4219 
Q 1534 4219 1204 4116 
Q 875 4013 500 3803 
L 500 4441 
Q 881 4594 1212 4672 
Q 1544 4750 1819 4750 
Q 2544 4750 2975 4387 
Q 3406 4025 3406 3419 
Q 3406 3131 3298 2873 
Q 3191 2616 2906 2266 
Q 2828 2175 2409 1742 
Q 1991 1309 1228 531 
z
" transform="scale(0.015625)"/>
       </defs>
       <use xlink:href="#DejaVuSans-32"/>
      </g>
     </g>
    </g>
    <g id="xtick_4">
     <g id="line2d_4">
      <g>
       <use xlink:href="#maa9b1b065b" x="268.820442" y="307.584" style="stroke: #000000; stroke-width: 0.8"/>
      </g>
     </g>
     <g id="text_4">
      <!-- 3 -->
      <g transform="translate(265.639192 322.182437) scale(0.1 -0.1)">
       <defs>
        <path id="DejaVuSans-33" d="M 2597 2516 
Q 3050 2419 3304 2112 
Q 3559 1806 3559 1356 
Q 3559 666 3084 287 
Q 2609 -91 1734 -91 
Q 1441 -91 1130 -33 
Q 819 25 488 141 
L 488 750 
Q 750 597 1062 519 
Q 1375 441 1716 441 
Q 2309 441 2620 675 
Q 2931 909 2931 1356 
Q 2931 1769 2642 2001 
Q 2353 2234 1838 2234 
L 1294 2234 
L 1294 2753 
L 1863 2753 
Q 2328 2753 2575 2939 
Q 2822 3125 2822 3475 
Q 2822 3834 2567 4026 
Q 2313 4219 1838 4219 
Q 1578 4219 1281 4162 
Q 984 4106 628 3988 
L 628 4550 
Q 988 4650 1302 4700 
Q 1616 4750 1894 4750 
Q 2613 4750 3031 4423 
Q 3450 4097 3450 3541 
Q 3450 3153 3228 2886 
Q 3006 2619 2597 2516 
z
" transform="scale(0.015625)"/>
       </defs>
       <use xlink:href="#DejaVuSans-33"/>
      </g>
     </g>
    </g>
    <g id="xtick_5">
     <g id="line2d_5">
      <g>
       <use xlink:href="#maa9b1b065b" x="333.816347" y="307.584" style="stroke: #000000; stroke-width: 0.8"/>
      </g>
     </g>
     <g id="text_5">
      <!-- 4 -->
      <g transform="translate(330.635097 322.182437) scale(0.1 -0.1)">
       <defs>
        <path id="DejaVuSans-34" d="M 2419 4116 
L 825 1625 
L 2419 1625 
L 2419 4116 
z
M 2253 4666 
L 3047 4666 
L 3047 1625 
L 3713 1625 
L 3713 1100 
L 3047 1100 
L 3047 0 
L 2419 0 
L 2419 1100 
L 313 1100 
L 313 1709 
L 2253 4666 
z
" transform="scale(0.015625)"/>
       </defs>
       <use xlink:href="#DejaVuSans-34"/>
      </g>
     </g>
    </g>
    <g id="xtick_6">
     <g id="line2d_6">
      <g>
       <use xlink:href="#maa9b1b065b" x="398.812252" y="307.584" style="stroke: #000000; stroke-width: 0.8"/>
      </g>
     </g>
     <g id="text_6">
      <!-- 5 -->
      <g transform="translate(395.631002 322.182437) scale(0.1 -0.1)">
       <defs>
        <path id="DejaVuSans-35" d="M 691 4666 
L 3169 4666 
L 3169 4134 
L 1269 4134 
L 1269 2991 
Q 1406 3038 1543 3061 
Q 1681 3084 1819 3084 
Q 2600 3084 3056 2656 
Q 3513 2228 3513 1497 
Q 3513 744 3044 326 
Q 2575 -91 1722 -91 
Q 1428 -91 1123 -41 
Q 819 9 494 109 
L 494 744 
Q 775 591 1075 516 
Q 1375 441 1709 441 
Q 2250 441 2565 725 
Q 2881 1009 2881 1497 
Q 2881 1984 2565 2268 
Q 2250 2553 1709 2553 
Q 1456 2553 1204 2497 
Q 953 2441 691 2322 
L 691 4666 
z
" transform="scale(0.015625)"/>
       </defs>
       <use xlink:href="#DejaVuSans-35"/>
      </g>
     </g>
    </g>
    <g id="text_7">
     <!-- 1e−7 -->
     <g transform="translate(387.462188 334.860562) scale(0.1 -0.1)">
      <defs>
       <path id="DejaVuSans-65" d="M 3597 1894 
L 3597 1613 
L 953 1613 
Q 991 1019 1311 708 
Q 1631 397 2203 397 
Q 2534 397 2845 478 
Q 3156 559 3463 722 
L 3463 178 
Q 3153 47 2828 -22 
Q 2503 -91 2169 -91 
Q 1331 -91 842 396 
Q 353 884 353 1716 
Q 353 2575 817 3079 
Q 1281 3584 2069 3584 
Q 2775 3584 3186 3129 
Q 3597 2675 3597 1894 
z
M 3022 2063 
Q 3016 2534 2758 2815 
Q 2500 3097 2075 3097 
Q 1594 3097 1305 2825 
Q 1016 2553 972 2059 
L 3022 2063 
z
" transform="scale(0.015625)"/>
       <path id="DejaVuSans-2212" d="M 678 2272 
L 4684 2272 
L 4684 1741 
L 678 1741 
L 678 2272 
z
" transform="scale(0.015625)"/>
       <path id="DejaVuSans-37" d="M 525 4666 
L 3525 4666 
L 3525 4397 
L 1831 0 
L 1172 0 
L 2766 4134 
L 525 4134 
L 525 4666 
z
" transform="scale(0.015625)"/>
      </defs>
      <use xlink:href="#DejaVuSans-31"/>
      <use xlink:href="#DejaVuSans-65" transform="translate(63.623047 0)"/>
      <use xlink:href="#DejaVuSans-2212" transform="translate(125.146484 0)"/>
      <use xlink:href="#DejaVuSans-37" transform="translate(208.935547 0)"/>
     </g>
    </g>
   </g>
   <g id="matplotlib.axis_2">
    <g id="ytick_1">
     <g id="line2d_7">
      <defs>
       <path id="m11c40679b5" d="M 0 0 
L -3.5 0 
" style="stroke: #000000; stroke-width: 0.8"/>
      </defs>
      <g>
       <use xlink:href="#m11c40679b5" x="57.6" y="270.037492" style="stroke: #000000; stroke-width: 0.8"/>
      </g>
     </g>
     <g id="text_8">
      <!-- −200 -->
      <g transform="translate(23.132812 273.836711) scale(0.1 -0.1)">
       <use xlink:href="#DejaVuSans-2212"/>
       <use xlink:href="#DejaVuSans-32" transform="translate(83.789062 0)"/>
       <use xlink:href="#DejaVuSans-30" transform="translate(147.412109 0)"/>
       <use xlink:href="#DejaVuSans-30" transform="translate(211.035156 0)"/>
      </g>
     </g>
    </g>
    <g id="ytick_2">
     <g id="line2d_8">
      <g>
       <use xlink:href="#m11c40679b5" x="57.6" y="219.085502" style="stroke: #000000; stroke-width: 0.8"/>
      </g>
     </g>
     <g id="text_9">
      <!-- −100 -->
      <g transform="translate(23.132812 222.88472) scale(0.1 -0.1)">
       <use xlink:href="#DejaVuSans-2212"/>
       <use xlink:href="#DejaVuSans-31" transform="translate(83.789062 0)"/>
       <use xlink:href="#DejaVuSans-30" transform="translate(147.412109 0)"/>
       <use xlink:href="#DejaVuSans-30" transform="translate(211.035156 0)"/>
      </g>
     </g>
    </g>
    <g id="ytick_3">
     <g id="line2d_9">
      <g>
       <use xlink:href="#m11c40679b5" x="57.6" y="168.133511" style="stroke: #000000; stroke-width: 0.8"/>
      </g>
     </g>
     <g id="text_10">
      <!-- 0 -->
      <g transform="translate(44.2375 171.93273) scale(0.1 -0.1)">
       <use xlink:href="#DejaVuSans-30"/>
      </g>
     </g>
    </g>
    <g id="ytick_4">
     <g id="line2d_10">
      <g>
       <use xlink:href="#m11c40679b5" x="57.6" y="117.181521" style="stroke: #000000; stroke-width: 0.8"/>
      </g>
     </g>
     <g id="text_11">
      <!-- 100 -->
      <g transform="translate(31.5125 120.980739) scale(0.1 -0.1)">
       <use xlink:href="#DejaVuSans-31"/>
       <use xlink:href="#DejaVuSans-30" transform="translate(63.623047 0)"/>
       <use xlink:href="#DejaVuSans-30" transform="translate(127.246094 0)"/>
      </g>
     </g>
    </g>
    <g id="ytick_5">
     <g id="line2d_11">
      <g>
       <use xlink:href="#m11c40679b5" x="57.6" y="66.22953" style="stroke: #000000; stroke-width: 0.8"/>
      </g>
     </g>
     <g id="text_12">
      <!-- 200 -->
      <g transform="translate(31.5125 70.028749) scale(0.1 -0.1)">
       <use xlink:href="#DejaVuSans-32"/>
       <use xlink:href="#DejaVuSans-30" transform="translate(63.623047 0)"/>
       <use xlink:href="#DejaVuSans-30" transform="translate(127.246094 0)"/>
      </g>
     </g>
    </g>
   </g>
   <g id="line2d_12">
    <path d="M 73.832727 238.268947 
L 74.157707 235.084448 
L 74.482686 228.715449 
L 74.807666 231.899948 
L 75.132645 228.715449 
L 75.457625 222.346451 
L 75.782604 225.53095 
L 76.107584 219.161952 
L 76.432563 215.977453 
L 76.757543 215.977453 
L 77.082523 212.792954 
L 77.407502 212.792954 
L 77.732482 209.608455 
L 78.057461 212.792954 
L 78.382441 203.239457 
L 79.0324 203.239457 
L 79.357379 200.054958 
L 79.682359 193.68596 
L 80.007338 190.50146 
L 80.332318 193.68596 
L 81.307256 184.132462 
L 81.632236 177.763464 
L 81.957215 184.132462 
L 82.282195 180.947963 
L 82.607174 180.947963 
L 82.932154 177.763464 
L 83.257133 177.763464 
L 83.582113 174.578965 
L 83.907093 174.578965 
L 84.882031 165.025468 
L 85.207011 168.209967 
L 85.53199 165.025468 
L 85.85697 158.65647 
L 86.181949 158.65647 
L 86.831908 152.287471 
L 87.156888 155.471971 
L 87.481867 149.102972 
L 87.806847 145.918473 
L 88.131826 145.918473 
L 88.456806 152.287471 
L 88.781785 142.733974 
L 89.106765 139.549475 
L 89.431744 142.733974 
L 90.081704 136.364976 
L 90.406683 136.364976 
L 90.731663 133.180477 
L 91.056642 133.180477 
L 91.381622 126.811479 
L 91.706601 123.62698 
L 92.031581 123.62698 
L 92.35656 126.811479 
L 93.006519 120.442481 
L 93.331499 123.62698 
L 93.656478 123.62698 
L 93.981458 117.257982 
L 94.306437 120.442481 
L 94.631417 120.442481 
L 95.281376 114.073483 
L 95.931335 114.073483 
L 96.256314 110.888983 
L 96.581294 110.888983 
L 97.231253 104.519985 
L 97.556233 107.704484 
L 97.881212 101.335486 
L 98.206192 104.519985 
L 98.531171 101.335486 
L 98.856151 104.519985 
L 99.18113 98.150987 
L 99.831089 98.150987 
L 100.481048 91.781989 
L 100.806028 91.781989 
L 101.131007 88.59749 
L 101.455987 88.59749 
L 101.780966 85.412991 
L 102.105946 85.412991 
L 102.430925 79.043993 
L 102.755905 82.228492 
L 103.405864 75.859494 
L 103.730844 75.859494 
L 104.055823 79.043993 
L 104.380803 72.674994 
L 105.030762 72.674994 
L 106.0057 63.121497 
L 106.33068 66.305996 
L 106.655659 66.305996 
L 106.980639 63.121497 
L 107.305618 63.121497 
L 107.630598 56.752499 
L 107.955577 59.936998 
L 108.280557 56.752499 
L 108.930516 56.752499 
L 109.255495 59.936998 
L 109.580475 56.752499 
L 109.905455 59.936998 
L 110.230434 56.752499 
L 110.555414 56.752499 
L 110.880393 53.568 
L 111.205373 56.752499 
L 111.530352 56.752499 
L 111.855332 59.936998 
L 112.180311 56.752499 
L 112.505291 59.936998 
L 112.83027 56.752499 
L 113.15525 59.936998 
L 114.130188 59.936998 
L 114.455168 66.305996 
L 114.780147 63.121497 
L 115.105127 66.305996 
L 115.430106 72.674994 
L 116.080066 66.305996 
L 116.405045 69.490495 
L 116.730025 75.859494 
L 117.379984 75.859494 
L 117.704963 79.043993 
L 118.029943 72.674994 
L 118.354922 82.228492 
L 118.679902 85.412991 
L 119.004881 85.412991 
L 119.65484 91.781989 
L 119.97982 88.59749 
L 120.304799 91.781989 
L 120.629779 98.150987 
L 120.954758 94.966488 
L 121.279738 94.966488 
L 121.929697 101.335486 
L 122.254676 101.335486 
L 122.904636 107.704484 
L 123.229615 104.519985 
L 123.554595 110.888983 
L 124.204554 110.888983 
L 124.529533 114.073483 
L 124.854513 120.442481 
L 125.179492 120.442481 
L 125.504472 126.811479 
L 126.47941 126.811479 
L 127.454349 136.364976 
L 127.779328 136.364976 
L 128.104308 139.549475 
L 128.429287 136.364976 
L 128.754267 142.733974 
L 130.054185 155.471971 
L 130.379165 155.471971 
L 131.029124 161.840969 
L 131.679083 161.840969 
L 132.004062 165.025468 
L 132.329042 165.025468 
L 132.979001 171.394466 
L 133.62896 171.394466 
L 133.953939 174.578965 
L 134.278919 174.578965 
L 135.253857 184.132462 
L 135.903817 184.132462 
L 136.228796 187.316961 
L 136.553776 187.316961 
L 136.878755 184.132462 
L 137.203735 190.50146 
L 137.528714 190.50146 
L 137.853694 196.870459 
L 138.828632 196.870459 
L 139.153612 203.239457 
L 139.478591 200.054958 
L 140.12855 206.423956 
L 140.45353 212.792954 
L 140.778509 206.423956 
L 141.103489 212.792954 
L 141.428468 215.977453 
L 142.078428 215.977453 
L 142.403407 219.161952 
L 142.728387 219.161952 
L 143.053366 222.346451 
L 143.378346 222.346451 
L 143.703325 225.53095 
L 144.028305 219.161952 
L 144.353284 228.715449 
L 145.003243 228.715449 
L 145.328223 231.899948 
L 145.978182 231.899948 
L 146.628141 238.268947 
L 147.2781 238.268947 
L 147.603079 241.453446 
L 148.253038 241.453446 
L 148.902998 247.822444 
L 149.227977 244.637945 
L 150.202916 254.191442 
L 150.527895 254.191442 
L 150.852875 260.56044 
L 151.177854 260.56044 
L 151.502834 263.744939 
L 152.152793 263.744939 
L 152.477772 266.929438 
L 152.802752 266.929438 
L 153.452711 273.298437 
L 153.77769 270.113937 
L 154.10267 273.298437 
L 154.427649 273.298437 
L 154.752629 276.482936 
L 155.077609 276.482936 
L 155.402588 279.667435 
L 155.727568 276.482936 
L 156.052547 286.036433 
L 156.377527 279.667435 
L 156.702506 282.851934 
L 157.352465 282.851934 
L 157.677445 279.667435 
L 158.002424 282.851934 
L 158.327404 282.851934 
L 158.652383 279.667435 
L 158.977363 282.851934 
L 159.302342 279.667435 
L 160.277281 279.667435 
L 160.60226 276.482936 
L 160.92724 276.482936 
L 161.252219 279.667435 
L 161.577199 276.482936 
L 161.902179 276.482936 
L 162.227158 279.667435 
L 162.552138 273.298437 
L 162.877117 270.113937 
L 163.202097 270.113937 
L 163.527076 273.298437 
L 164.177035 266.929438 
L 164.502015 266.929438 
L 164.826994 260.56044 
L 165.151974 263.744939 
L 165.476953 263.744939 
L 165.801933 260.56044 
L 166.451892 260.56044 
L 166.776871 254.191442 
L 167.75181 254.191442 
L 168.07679 247.822444 
L 168.401769 244.637945 
L 168.726749 244.637945 
L 169.051728 241.453446 
L 169.376708 241.453446 
L 169.701687 235.084448 
L 170.026667 231.899948 
L 170.351646 235.084448 
L 170.676626 228.715449 
L 171.326585 222.346451 
L 171.651564 225.53095 
L 171.976544 219.161952 
L 172.626503 219.161952 
L 172.951482 212.792954 
L 173.276462 209.608455 
L 173.926421 209.608455 
L 174.2514 206.423956 
L 174.57638 200.054958 
L 174.90136 200.054958 
L 175.226339 193.68596 
L 175.551319 196.870459 
L 175.876298 193.68596 
L 176.201278 193.68596 
L 176.526257 190.50146 
L 176.851237 190.50146 
L 177.501196 184.132462 
L 177.826175 184.132462 
L 178.476134 177.763464 
L 178.801114 177.763464 
L 179.126093 174.578965 
L 179.451073 174.578965 
L 179.776052 171.394466 
L 180.101032 171.394466 
L 180.426011 165.025468 
L 180.750991 168.209967 
L 181.40095 161.840969 
L 182.050909 161.840969 
L 182.375889 155.471971 
L 183.025848 155.471971 
L 183.350827 152.287471 
L 183.675807 145.918473 
L 184.000786 149.102972 
L 184.975725 139.549475 
L 185.300704 139.549475 
L 185.625684 136.364976 
L 185.950663 139.549475 
L 186.275643 133.180477 
L 186.600622 129.995978 
L 186.925602 133.180477 
L 187.575561 126.811479 
L 187.900541 126.811479 
L 188.22552 129.995978 
L 189.200459 120.442481 
L 189.850418 120.442481 
L 190.175397 117.257982 
L 190.500377 117.257982 
L 190.825356 114.073483 
L 191.150336 117.257982 
L 191.800295 110.888983 
L 192.125274 110.888983 
L 192.450254 114.073483 
L 192.775233 104.519985 
L 193.100213 107.704484 
L 193.750172 107.704484 
L 194.075152 98.150987 
L 194.725111 98.150987 
L 195.05009 101.335486 
L 195.37507 94.966488 
L 195.700049 94.966488 
L 196.025029 88.59749 
L 196.350008 94.966488 
L 196.999967 88.59749 
L 197.649926 88.59749 
L 197.974906 82.228492 
L 198.299885 85.412991 
L 198.624865 82.228492 
L 198.949844 82.228492 
L 199.599803 75.859494 
L 200.249762 75.859494 
L 200.574742 69.490495 
L 200.899722 69.490495 
L 201.224701 66.305996 
L 202.19964 66.305996 
L 202.524619 63.121497 
L 203.174578 63.121497 
L 203.499558 59.936998 
L 203.824537 63.121497 
L 204.799476 53.568 
L 205.449435 59.936998 
L 205.774414 56.752499 
L 206.099394 59.936998 
L 206.424373 53.568 
L 206.749353 59.936998 
L 207.399312 53.568 
L 207.724292 59.936998 
L 208.049271 63.121497 
L 208.374251 56.752499 
L 209.02421 63.121497 
L 209.349189 63.121497 
L 209.674169 59.936998 
L 209.999148 63.121497 
L 210.324128 63.121497 
L 210.649107 69.490495 
L 210.974087 66.305996 
L 211.624046 66.305996 
L 211.949025 72.674994 
L 212.923964 72.674994 
L 213.248943 79.043993 
L 213.573923 75.859494 
L 214.223882 82.228492 
L 214.873841 82.228492 
L 215.84878 91.781989 
L 216.173759 91.781989 
L 216.498739 94.966488 
L 216.823718 91.781989 
L 217.148698 98.150987 
L 217.473677 94.966488 
L 218.123636 101.335486 
L 218.448616 107.704484 
L 219.098575 107.704484 
L 219.423554 114.073483 
L 220.073514 114.073483 
L 220.723473 120.442481 
L 221.373432 120.442481 
L 221.698411 126.811479 
L 222.023391 123.62698 
L 222.34837 129.995978 
L 222.67335 129.995978 
L 222.998329 133.180477 
L 223.323309 133.180477 
L 223.648288 139.549475 
L 223.973268 136.364976 
L 224.298247 139.549475 
L 224.623227 145.918473 
L 225.273186 145.918473 
L 225.598165 149.102972 
L 225.923145 155.471971 
L 226.248124 152.287471 
L 226.898084 158.65647 
L 227.223063 155.471971 
L 227.548043 165.025468 
L 228.522981 165.025468 
L 228.847961 171.394466 
L 229.17294 168.209967 
L 229.49792 171.394466 
L 229.822899 177.763464 
L 230.147879 174.578965 
L 230.472858 174.578965 
L 230.797838 177.763464 
L 231.122817 177.763464 
L 232.097756 187.316961 
L 232.422735 184.132462 
L 232.747715 193.68596 
L 233.072695 193.68596 
L 233.397674 190.50146 
L 234.047633 196.870459 
L 234.372613 196.870459 
L 235.022572 203.239457 
L 235.347551 203.239457 
L 235.672531 200.054958 
L 235.99751 206.423956 
L 236.32249 209.608455 
L 236.647469 209.608455 
L 236.972449 212.792954 
L 237.622408 212.792954 
L 237.947387 219.161952 
L 238.597346 219.161952 
L 239.247305 225.53095 
L 239.572285 222.346451 
L 239.897265 222.346451 
L 240.222244 228.715449 
L 240.872203 228.715449 
L 241.197183 231.899948 
L 241.522162 231.899948 
L 241.847142 235.084448 
L 242.172121 235.084448 
L 242.497101 238.268947 
L 242.82208 235.084448 
L 243.14706 241.453446 
L 243.472039 241.453446 
L 243.797019 238.268947 
L 244.121998 241.453446 
L 244.446978 247.822444 
L 244.771957 244.637945 
L 245.096937 244.637945 
L 245.421916 251.006943 
L 246.071876 251.006943 
L 246.396855 257.375941 
L 246.721835 260.56044 
L 247.046814 257.375941 
L 247.696773 263.744939 
L 248.021753 260.56044 
L 248.346732 266.929438 
L 248.671712 270.113937 
L 248.996691 266.929438 
L 249.64665 273.298437 
L 249.97163 273.298437 
L 250.296609 276.482936 
L 250.621589 276.482936 
L 250.946568 279.667435 
L 251.271548 276.482936 
L 251.921507 282.851934 
L 252.246486 279.667435 
L 252.571466 282.851934 
L 253.546405 282.851934 
L 253.871384 279.667435 
L 254.196364 279.667435 
L 254.846323 286.036433 
L 255.171302 279.667435 
L 256.146241 279.667435 
L 256.47122 276.482936 
L 257.446159 276.482936 
L 258.421097 266.929438 
L 258.746077 273.298437 
L 259.396036 266.929438 
L 259.721016 266.929438 
L 260.045995 270.113937 
L 260.370975 263.744939 
L 260.695954 266.929438 
L 261.020934 266.929438 
L 261.345913 260.56044 
L 261.670893 257.375941 
L 261.995872 260.56044 
L 262.645831 254.191442 
L 262.970811 257.375941 
L 263.62077 244.637945 
L 263.945749 247.822444 
L 264.595708 241.453446 
L 265.245667 241.453446 
L 265.570647 238.268947 
L 265.895627 231.899948 
L 266.545586 231.899948 
L 266.870565 222.346451 
L 267.195545 225.53095 
L 267.845504 219.161952 
L 268.170483 219.161952 
L 268.495463 215.977453 
L 268.820442 209.608455 
L 269.145422 212.792954 
L 269.470401 209.608455 
L 269.795381 203.239457 
L 270.12036 206.423956 
L 270.770319 200.054958 
L 271.420278 200.054958 
L 271.745258 193.68596 
L 272.070238 193.68596 
L 272.395217 187.316961 
L 272.720197 190.50146 
L 273.045176 187.316961 
L 273.370156 187.316961 
L 273.695135 180.947963 
L 274.020115 177.763464 
L 274.345094 180.947963 
L 274.670074 177.763464 
L 274.995053 171.394466 
L 275.320033 171.394466 
L 275.645012 174.578965 
L 276.294971 168.209967 
L 276.619951 171.394466 
L 277.26991 158.65647 
L 278.244848 158.65647 
L 279.219787 149.102972 
L 279.544767 152.287471 
L 279.869746 149.102972 
L 280.194726 142.733974 
L 280.519705 145.918473 
L 281.169664 139.549475 
L 281.819623 139.549475 
L 282.144603 133.180477 
L 282.794562 126.811479 
L 283.119541 129.995978 
L 283.444521 129.995978 
L 283.7695 126.811479 
L 284.09448 126.811479 
L 284.419459 120.442481 
L 284.744439 126.811479 
L 285.069419 126.811479 
L 285.394398 123.62698 
L 285.719378 117.257982 
L 286.044357 120.442481 
L 286.694316 114.073483 
L 287.019296 117.257982 
L 287.669255 110.888983 
L 288.319214 110.888983 
L 288.644193 107.704484 
L 288.969173 107.704484 
L 289.619132 101.335486 
L 289.944111 104.519985 
L 290.59407 98.150987 
L 291.244029 98.150987 
L 291.569009 94.966488 
L 291.893989 94.966488 
L 292.218968 91.781989 
L 292.543948 91.781989 
L 292.868927 85.412991 
L 293.843866 85.412991 
L 294.168845 82.228492 
L 294.493825 82.228492 
L 294.818804 79.043993 
L 295.468763 79.043993 
L 295.793743 72.674994 
L 296.118722 72.674994 
L 296.443702 75.859494 
L 296.768681 69.490495 
L 297.41864 69.490495 
L 298.0686 63.121497 
L 299.043538 63.121497 
L 299.368518 56.752499 
L 299.693497 59.936998 
L 300.018477 53.568 
L 300.343456 56.752499 
L 301.318395 56.752499 
L 301.643374 59.936998 
L 301.968354 56.752499 
L 303.593251 56.752499 
L 304.24321 63.121497 
L 304.56819 59.936998 
L 305.218149 59.936998 
L 305.543129 63.121497 
L 306.518067 63.121497 
L 306.843047 69.490495 
L 307.168026 63.121497 
L 307.817985 69.490495 
L 308.467944 69.490495 
L 309.117903 75.859494 
L 309.442883 75.859494 
L 310.092842 82.228492 
L 310.417821 79.043993 
L 310.742801 85.412991 
L 311.39276 85.412991 
L 311.71774 91.781989 
L 312.042719 94.966488 
L 312.367699 91.781989 
L 312.692678 98.150987 
L 313.667617 98.150987 
L 314.642555 107.704484 
L 314.967535 107.704484 
L 315.292514 110.888983 
L 315.617494 107.704484 
L 315.942473 117.257982 
L 316.592432 117.257982 
L 316.917412 123.62698 
L 317.567371 123.62698 
L 318.54231 133.180477 
L 318.867289 129.995978 
L 320.492187 145.918473 
L 320.817166 145.918473 
L 321.142146 149.102972 
L 321.792105 149.102972 
L 322.117084 155.471971 
L 322.442064 158.65647 
L 322.767043 155.471971 
L 323.092023 161.840969 
L 323.417002 165.025468 
L 323.741982 161.840969 
L 324.716921 171.394466 
L 325.36688 171.394466 
L 325.691859 174.578965 
L 326.016839 171.394466 
L 326.341818 177.763464 
L 326.991777 177.763464 
L 327.316757 180.947963 
L 327.641736 187.316961 
L 327.966716 184.132462 
L 328.291695 187.316961 
L 328.616675 193.68596 
L 328.941654 193.68596 
L 329.266634 190.50146 
L 329.591613 196.870459 
L 330.241572 196.870459 
L 330.566552 200.054958 
L 331.216511 200.054958 
L 331.541491 206.423956 
L 332.19145 206.423956 
L 332.841409 212.792954 
L 333.166388 209.608455 
L 333.491368 215.977453 
L 333.816347 219.161952 
L 334.466306 219.161952 
L 334.791286 222.346451 
L 335.441245 222.346451 
L 335.766224 225.53095 
L 336.091204 225.53095 
L 336.741163 231.899948 
L 337.716102 231.899948 
L 338.041081 238.268947 
L 338.366061 231.899948 
L 339.340999 241.453446 
L 339.990958 241.453446 
L 340.640917 247.822444 
L 341.290876 247.822444 
L 341.615856 251.006943 
L 341.940835 257.375941 
L 342.265815 254.191442 
L 342.590794 257.375941 
L 342.915774 257.375941 
L 343.240753 263.744939 
L 343.565733 260.56044 
L 343.890713 263.744939 
L 344.215692 270.113937 
L 344.540672 266.929438 
L 344.865651 266.929438 
L 345.51561 273.298437 
L 346.165569 273.298437 
L 346.490549 276.482936 
L 346.815528 273.298437 
L 347.140508 279.667435 
L 347.790467 279.667435 
L 348.440426 286.036433 
L 348.765405 279.667435 
L 349.415364 286.036433 
L 350.065324 279.667435 
L 350.390303 279.667435 
L 350.715283 282.851934 
L 351.040262 282.851934 
L 351.365242 279.667435 
L 352.66516 279.667435 
L 353.315119 273.298437 
L 353.640098 276.482936 
L 353.965078 273.298437 
L 354.615037 273.298437 
L 354.940016 270.113937 
L 355.264996 270.113937 
L 355.589975 266.929438 
L 356.239934 266.929438 
L 356.564914 263.744939 
L 356.889894 263.744939 
L 357.214873 257.375941 
L 357.539853 263.744939 
L 357.864832 257.375941 
L 358.514791 257.375941 
L 358.839771 254.191442 
L 359.16475 254.191442 
L 359.48973 251.006943 
L 359.814709 251.006943 
L 360.139689 244.637945 
L 360.464668 241.453446 
L 361.114627 241.453446 
L 361.764586 235.084448 
L 362.089566 235.084448 
L 362.414545 225.53095 
L 362.739525 228.715449 
L 363.714464 219.161952 
L 364.039443 222.346451 
L 364.364423 215.977453 
L 364.689402 212.792954 
L 365.014382 212.792954 
L 365.339361 209.608455 
L 365.664341 203.239457 
L 366.3143 203.239457 
L 366.964259 196.870459 
L 367.289238 196.870459 
L 367.614218 190.50146 
L 367.939197 193.68596 
L 368.264177 190.50146 
L 368.589156 184.132462 
L 368.914136 187.316961 
L 369.239115 187.316961 
L 369.889075 180.947963 
L 370.214054 180.947963 
L 371.188993 171.394466 
L 371.838952 171.394466 
L 372.163931 168.209967 
L 372.488911 168.209967 
L 372.81389 161.840969 
L 373.13887 165.025468 
L 374.113808 155.471971 
L 374.438788 158.65647 
L 374.763767 152.287471 
L 375.088747 149.102972 
L 375.413726 149.102972 
L 375.738706 145.918473 
L 376.063686 145.918473 
L 376.388665 142.733974 
L 376.713645 145.918473 
L 377.038624 139.549475 
L 377.363604 139.549475 
L 377.688583 136.364976 
L 378.013563 129.995978 
L 378.338542 136.364976 
L 378.988501 129.995978 
L 379.63846 129.995978 
L 379.96344 123.62698 
L 380.613399 123.62698 
L 380.938378 120.442481 
L 381.263358 120.442481 
L 381.588337 117.257982 
L 381.913317 120.442481 
L 382.238296 120.442481 
L 383.213235 110.888983 
L 383.538215 114.073483 
L 384.188174 107.704484 
L 384.513153 110.888983 
L 384.838133 107.704484 
L 385.813071 107.704484 
L 386.46303 94.966488 
L 386.78801 98.150987 
L 387.112989 94.966488 
L 387.762948 94.966488 
L 388.412907 88.59749 
L 388.737887 91.781989 
L 389.387846 85.412991 
L 390.037805 85.412991 
L 390.687764 79.043993 
L 391.012744 79.043993 
L 391.987682 69.490495 
L 392.312662 72.674994 
L 392.637641 69.490495 
L 392.962621 69.490495 
L 393.61258 63.121497 
L 394.262539 63.121497 
L 394.587518 59.936998 
L 394.912498 59.936998 
L 395.237477 63.121497 
L 395.562457 56.752499 
L 396.212416 63.121497 
L 396.537396 56.752499 
L 396.862375 53.568 
L 397.187355 56.752499 
L 397.512334 56.752499 
L 397.837314 59.936998 
L 398.162293 56.752499 
L 398.487273 56.752499 
L 398.487273 56.752499 
" clip-path="url(#p59f8bd58a3)" style="fill: none; stroke: #1f77b4; stroke-width: 1.5; stroke-linecap: square"/>
   </g>
   <g id="line2d_13">
    <path d="M 73.832727 263.643009 
L 75.132645 263.643009 
L 75.457625 270.012007 
L 75.782604 266.827508 
L 76.757543 276.381006 
L 77.407502 276.381006 
L 77.732482 279.565505 
L 78.057461 276.381006 
L 78.382441 276.381006 
L 78.70742 282.750004 
L 79.357379 282.750004 
L 79.682359 279.565505 
L 80.007338 282.750004 
L 80.332318 282.750004 
L 80.657297 285.934503 
L 80.982277 282.750004 
L 81.632236 289.119002 
L 82.932154 289.119002 
L 83.257133 292.303501 
L 83.582113 289.119002 
L 83.907093 292.303501 
L 84.882031 292.303501 
L 85.207011 289.119002 
L 85.53199 289.119002 
L 85.85697 292.303501 
L 86.181949 289.119002 
L 86.506929 292.303501 
L 87.481867 292.303501 
L 87.806847 289.119002 
L 88.456806 289.119002 
L 88.781785 285.934503 
L 89.106765 289.119002 
L 89.431744 289.119002 
L 90.081704 282.750004 
L 90.731663 282.750004 
L 91.056642 285.934503 
L 91.381622 276.381006 
L 91.706601 282.750004 
L 92.031581 279.565505 
L 92.68154 279.565505 
L 93.006519 276.381006 
L 93.331499 276.381006 
L 93.656478 270.012007 
L 93.981458 270.012007 
L 94.306437 273.196506 
L 94.631417 270.012007 
L 94.956396 270.012007 
L 95.281376 266.827508 
L 95.606355 266.827508 
L 95.931335 260.45851 
L 96.256314 263.643009 
L 96.581294 257.274011 
L 96.906274 257.274011 
L 97.231253 260.45851 
L 98.206192 250.905013 
L 98.531171 250.905013 
L 98.856151 244.536015 
L 99.831089 244.536015 
L 101.131007 231.798018 
L 101.455987 234.982517 
L 101.780966 225.42902 
L 102.105946 225.42902 
L 102.430925 228.613519 
L 102.755905 228.613519 
L 104.380803 212.691024 
L 104.705782 212.691024 
L 106.33068 196.768529 
L 106.655659 196.768529 
L 107.305618 190.39953 
L 107.955577 196.768529 
L 108.280557 187.215031 
L 108.930516 180.846033 
L 109.580475 180.846033 
L 110.230434 174.477035 
L 110.555414 174.477035 
L 111.205373 168.108037 
L 111.530352 161.739039 
L 111.855332 161.739039 
L 112.180311 155.37004 
L 112.505291 158.55454 
L 112.83027 155.37004 
L 113.480229 155.37004 
L 114.130188 142.632044 
L 114.455168 139.447545 
L 115.105127 139.447545 
L 115.430106 133.078547 
L 115.755086 133.078547 
L 116.080066 129.894048 
L 116.405045 129.894048 
L 116.730025 123.52505 
L 117.055004 126.709549 
L 117.379984 120.340551 
L 117.704963 123.52505 
L 118.029943 123.52505 
L 119.004881 113.971552 
L 119.329861 113.971552 
L 119.97982 107.602554 
L 120.304799 110.787053 
L 120.954758 104.418055 
L 121.279738 104.418055 
L 121.604717 101.233556 
L 121.929697 94.864558 
L 122.254676 98.049057 
L 122.579656 94.864558 
L 123.554595 94.864558 
L 123.879574 88.49556 
L 124.529533 88.49556 
L 124.854513 85.311061 
L 125.829451 85.311061 
L 126.154431 82.126562 
L 126.47941 82.126562 
L 126.80439 78.942063 
L 127.454349 78.942063 
L 127.779328 72.573064 
L 128.104308 72.573064 
L 128.429287 78.942063 
L 128.754267 78.942063 
L 129.079247 75.757563 
L 129.729206 75.757563 
L 130.054185 72.573064 
L 130.704144 72.573064 
L 131.029124 75.757563 
L 131.354103 69.388565 
L 131.679083 72.573064 
L 132.004062 69.388565 
L 132.329042 69.388565 
L 132.654021 72.573064 
L 132.979001 69.388565 
L 133.30398 69.388565 
L 133.62896 75.757563 
L 133.953939 72.573064 
L 134.278919 72.573064 
L 134.603898 69.388565 
L 134.928878 69.388565 
L 135.253857 72.573064 
L 135.578837 72.573064 
L 135.903817 75.757563 
L 136.228796 75.757563 
L 136.553776 69.388565 
L 136.878755 72.573064 
L 137.528714 72.573064 
L 137.853694 75.757563 
L 138.178673 69.388565 
L 138.828632 82.126562 
L 139.803571 82.126562 
L 140.12855 78.942063 
L 141.428468 91.680059 
L 141.753448 85.311061 
L 142.403407 91.680059 
L 142.728387 91.680059 
L 143.053366 94.864558 
L 143.378346 91.680059 
L 143.703325 94.864558 
L 144.028305 94.864558 
L 144.678264 101.233556 
L 145.003243 101.233556 
L 145.328223 107.602554 
L 145.653202 104.418055 
L 145.978182 104.418055 
L 146.303161 110.787053 
L 146.628141 113.971552 
L 147.2781 113.971552 
L 148.253038 123.52505 
L 148.578018 117.156052 
L 148.902998 126.709549 
L 149.552957 126.709549 
L 150.527895 136.263046 
L 151.177854 136.263046 
L 151.502834 142.632044 
L 151.827813 142.632044 
L 152.152793 145.816543 
L 152.802752 145.816543 
L 153.127731 149.001042 
L 153.452711 155.37004 
L 153.77769 152.185541 
L 154.10267 158.55454 
L 154.427649 161.739039 
L 154.752629 168.108037 
L 155.402588 168.108037 
L 156.052547 174.477035 
L 156.377527 171.292536 
L 156.702506 177.661534 
L 157.352465 184.030532 
L 157.677445 180.846033 
L 158.002424 180.846033 
L 158.652383 187.215031 
L 158.977363 187.215031 
L 159.627322 199.953028 
L 159.952301 203.137527 
L 160.277281 199.953028 
L 160.60226 199.953028 
L 161.252219 206.322026 
L 161.577199 212.691024 
L 161.902179 212.691024 
L 162.227158 219.060022 
L 162.552138 215.875523 
L 162.877117 219.060022 
L 163.202097 219.060022 
L 163.527076 222.244521 
L 163.852056 228.613519 
L 164.177035 225.42902 
L 164.502015 231.798018 
L 165.151974 238.167017 
L 165.801933 238.167017 
L 166.126912 244.536015 
L 166.451892 244.536015 
L 166.776871 241.351516 
L 167.101851 247.720514 
L 167.42683 247.720514 
L 167.75181 250.905013 
L 168.07679 247.720514 
L 168.401769 254.089512 
L 168.726749 254.089512 
L 169.051728 257.274011 
L 169.376708 257.274011 
L 169.701687 260.45851 
L 170.026667 266.827508 
L 171.651564 266.827508 
L 171.976544 270.012007 
L 172.301523 276.381006 
L 172.951482 276.381006 
L 173.276462 273.196506 
L 173.601441 276.381006 
L 173.926421 276.381006 
L 174.2514 279.565505 
L 174.57638 276.381006 
L 174.90136 285.934503 
L 175.551319 285.934503 
L 175.876298 282.750004 
L 176.851237 282.750004 
L 177.176216 285.934503 
L 177.501196 292.303501 
L 177.826175 289.119002 
L 179.126093 289.119002 
L 179.451073 292.303501 
L 179.776052 285.934503 
L 180.101032 292.303501 
L 181.40095 292.303501 
L 181.72593 289.119002 
L 182.050909 289.119002 
L 182.375889 292.303501 
L 182.700868 292.303501 
L 183.025848 289.119002 
L 183.350827 289.119002 
L 183.675807 285.934503 
L 184.325766 285.934503 
L 184.650745 289.119002 
L 184.975725 282.750004 
L 185.300704 289.119002 
L 185.950663 289.119002 
L 186.600622 282.750004 
L 186.925602 282.750004 
L 187.250581 279.565505 
L 187.575561 279.565505 
L 187.900541 282.750004 
L 188.875479 273.196506 
L 189.200459 273.196506 
L 189.525438 270.012007 
L 189.850418 273.196506 
L 190.175397 266.827508 
L 190.500377 270.012007 
L 190.825356 270.012007 
L 191.150336 266.827508 
L 191.475315 266.827508 
L 191.800295 260.45851 
L 192.125274 263.643009 
L 192.775233 257.274011 
L 193.100213 257.274011 
L 193.750172 250.905013 
L 194.075152 250.905013 
L 194.400131 247.720514 
L 195.05009 247.720514 
L 195.37507 241.351516 
L 195.700049 241.351516 
L 196.025029 244.536015 
L 196.999967 234.982517 
L 197.324947 234.982517 
L 197.649926 231.798018 
L 197.974906 225.42902 
L 198.299885 228.613519 
L 198.624865 228.613519 
L 199.274824 222.244521 
L 199.599803 215.875523 
L 199.924783 212.691024 
L 200.249762 215.875523 
L 200.574742 206.322026 
L 200.899722 209.506525 
L 201.549681 209.506525 
L 201.87466 203.137527 
L 202.19964 203.137527 
L 202.524619 196.768529 
L 202.849599 196.768529 
L 203.174578 190.39953 
L 203.499558 196.768529 
L 203.824537 190.39953 
L 204.149517 187.215031 
L 204.474496 180.846033 
L 204.799476 180.846033 
L 205.124455 174.477035 
L 205.449435 180.846033 
L 205.774414 171.292536 
L 206.099394 174.477035 
L 206.424373 174.477035 
L 206.749353 171.292536 
L 207.074333 164.923538 
L 207.724292 164.923538 
L 208.049271 158.55454 
L 208.374251 155.37004 
L 208.69923 155.37004 
L 209.349189 149.001042 
L 209.674169 149.001042 
L 209.999148 145.816543 
L 210.324128 139.447545 
L 210.649107 142.632044 
L 210.974087 136.263046 
L 211.299066 136.263046 
L 211.624046 133.078547 
L 211.949025 136.263046 
L 212.274005 129.894048 
L 212.598984 126.709549 
L 212.923964 126.709549 
L 213.573923 120.340551 
L 214.223882 120.340551 
L 214.873841 113.971552 
L 215.198821 113.971552 
L 215.5238 110.787053 
L 215.84878 110.787053 
L 216.173759 104.418055 
L 216.498739 107.602554 
L 216.823718 107.602554 
L 217.473677 101.233556 
L 217.798657 94.864558 
L 218.123636 98.049057 
L 218.448616 94.864558 
L 219.423554 94.864558 
L 219.748534 88.49556 
L 220.073514 88.49556 
L 220.398493 85.311061 
L 221.048452 85.311061 
L 221.373432 82.126562 
L 221.698411 82.126562 
L 222.023391 85.311061 
L 222.34837 85.311061 
L 222.67335 78.942063 
L 223.648288 78.942063 
L 223.973268 75.757563 
L 224.623227 75.757563 
L 224.948206 72.573064 
L 225.923145 72.573064 
L 226.248124 75.757563 
L 226.573104 69.388565 
L 227.223063 75.757563 
L 227.873022 69.388565 
L 228.198002 69.388565 
L 228.522981 72.573064 
L 228.847961 69.388565 
L 229.17294 69.388565 
L 229.822899 75.757563 
L 230.147879 69.388565 
L 230.472858 72.573064 
L 230.797838 69.388565 
L 231.122817 69.388565 
L 231.447797 72.573064 
L 231.772776 69.388565 
L 232.097756 72.573064 
L 232.422735 78.942063 
L 232.747715 78.942063 
L 233.072695 75.757563 
L 234.047633 75.757563 
L 234.372613 78.942063 
L 234.697592 78.942063 
L 235.022572 82.126562 
L 235.347551 78.942063 
L 235.672531 82.126562 
L 235.99751 82.126562 
L 236.32249 78.942063 
L 236.647469 85.311061 
L 236.972449 82.126562 
L 237.297428 85.311061 
L 237.622408 91.680059 
L 237.947387 94.864558 
L 238.272367 88.49556 
L 238.597346 91.680059 
L 239.247305 91.680059 
L 240.222244 101.233556 
L 241.197183 101.233556 
L 241.847142 107.602554 
L 242.172121 107.602554 
L 242.497101 110.787053 
L 242.82208 117.156052 
L 243.14706 120.340551 
L 243.472039 117.156052 
L 243.797019 120.340551 
L 244.446978 120.340551 
L 245.096937 126.709549 
L 245.421916 126.709549 
L 246.071876 133.078547 
L 246.721835 133.078547 
L 247.046814 139.447545 
L 247.371794 139.447545 
L 248.346732 149.001042 
L 248.671712 149.001042 
L 249.321671 155.37004 
L 249.97163 155.37004 
L 250.296609 164.923538 
L 250.621589 164.923538 
L 250.946568 168.108037 
L 251.921507 168.108037 
L 252.246486 174.477035 
L 252.896446 174.477035 
L 253.221425 184.030532 
L 253.546405 187.215031 
L 254.521343 187.215031 
L 254.846323 193.584029 
L 255.171302 190.39953 
L 255.496282 196.768529 
L 255.821261 199.953028 
L 256.146241 196.768529 
L 256.47122 199.953028 
L 256.7962 206.322026 
L 257.121179 203.137527 
L 257.446159 209.506525 
L 257.771138 209.506525 
L 258.096118 215.875523 
L 258.746077 222.244521 
L 259.396036 222.244521 
L 259.721016 228.613519 
L 260.045995 225.42902 
L 260.370975 231.798018 
L 260.695954 234.982517 
L 261.020934 234.982517 
L 261.345913 238.167017 
L 261.670893 238.167017 
L 262.320852 244.536015 
L 262.645831 244.536015 
L 262.970811 241.351516 
L 263.29579 247.720514 
L 263.945749 254.089512 
L 264.595708 254.089512 
L 264.920688 257.274011 
L 265.245667 257.274011 
L 266.220606 266.827508 
L 267.520524 266.827508 
L 267.845504 273.196506 
L 268.170483 270.012007 
L 268.495463 276.381006 
L 269.145422 276.381006 
L 269.470401 279.565505 
L 270.44534 279.565505 
L 271.095299 285.934503 
L 271.420278 282.750004 
L 272.395217 282.750004 
L 273.045176 289.119002 
L 273.370156 285.934503 
L 274.020115 292.303501 
L 274.345094 289.119002 
L 274.670074 292.303501 
L 274.995053 289.119002 
L 275.320033 292.303501 
L 275.645012 289.119002 
L 275.969992 289.119002 
L 276.294971 295.488 
L 276.619951 289.119002 
L 277.26991 289.119002 
L 277.594889 292.303501 
L 277.919869 285.934503 
L 278.244848 289.119002 
L 278.569828 285.934503 
L 278.894808 292.303501 
L 279.219787 292.303501 
L 279.869746 285.934503 
L 280.194726 285.934503 
L 280.519705 289.119002 
L 280.844685 285.934503 
L 281.169664 285.934503 
L 281.494644 289.119002 
L 281.819623 289.119002 
L 282.144603 282.750004 
L 282.794562 282.750004 
L 283.119541 279.565505 
L 283.444521 282.750004 
L 283.7695 276.381006 
L 284.09448 279.565505 
L 284.419459 279.565505 
L 284.744439 276.381006 
L 285.069419 276.381006 
L 285.719378 270.012007 
L 286.044357 270.012007 
L 286.369337 266.827508 
L 286.694316 270.012007 
L 287.019296 266.827508 
L 287.344275 266.827508 
L 287.669255 260.45851 
L 287.994234 260.45851 
L 288.319214 257.274011 
L 288.644193 260.45851 
L 288.969173 250.905013 
L 289.294152 257.274011 
L 289.619132 257.274011 
L 289.944111 254.089512 
L 290.269091 254.089512 
L 290.59407 247.720514 
L 290.91905 244.536015 
L 291.893989 244.536015 
L 292.543948 238.167017 
L 292.868927 238.167017 
L 293.193907 234.982517 
L 293.518886 228.613519 
L 293.843866 234.982517 
L 294.168845 222.244521 
L 294.493825 225.42902 
L 294.818804 222.244521 
L 295.143784 222.244521 
L 295.468763 219.060022 
L 295.793743 219.060022 
L 296.118722 215.875523 
L 296.443702 209.506525 
L 296.768681 206.322026 
L 297.093661 209.506525 
L 298.718559 193.584029 
L 299.043538 193.584029 
L 299.368518 187.215031 
L 299.693497 187.215031 
L 300.018477 190.39953 
L 300.343456 190.39953 
L 300.668436 180.846033 
L 300.993415 180.846033 
L 301.643374 174.477035 
L 301.968354 168.108037 
L 302.293333 174.477035 
L 302.943292 168.108037 
L 303.268272 168.108037 
L 303.593251 161.739039 
L 303.918231 158.55454 
L 304.24321 158.55454 
L 304.56819 152.185541 
L 305.543129 152.185541 
L 305.868108 145.816543 
L 306.193088 142.632044 
L 306.518067 142.632044 
L 307.168026 136.263046 
L 307.817985 136.263046 
L 308.142965 129.894048 
L 308.792924 123.52505 
L 309.442883 123.52505 
L 309.767862 113.971552 
L 310.092842 117.156052 
L 310.417821 117.156052 
L 310.742801 120.340551 
L 311.067781 110.787053 
L 311.39276 110.787053 
L 311.71774 107.602554 
L 312.367699 107.602554 
L 312.692678 104.418055 
L 313.017658 104.418055 
L 313.342637 101.233556 
L 313.667617 101.233556 
L 313.992596 94.864558 
L 314.642555 94.864558 
L 314.967535 88.49556 
L 315.292514 91.680059 
L 315.942473 91.680059 
L 316.267453 85.311061 
L 317.567371 85.311061 
L 317.892351 82.126562 
L 318.867289 82.126562 
L 319.192269 75.757563 
L 319.517248 72.573064 
L 319.842228 75.757563 
L 320.167207 69.388565 
L 320.492187 75.757563 
L 320.817166 75.757563 
L 321.142146 78.942063 
L 321.467125 72.573064 
L 322.442064 72.573064 
L 322.767043 75.757563 
L 323.092023 69.388565 
L 323.417002 72.573064 
L 323.741982 69.388565 
L 324.391941 69.388565 
L 324.716921 66.204066 
L 325.0419 72.573064 
L 325.36688 66.204066 
L 325.691859 72.573064 
L 327.316757 72.573064 
L 327.641736 69.388565 
L 327.966716 75.757563 
L 329.266634 75.757563 
L 329.591613 72.573064 
L 329.916593 72.573064 
L 330.241572 78.942063 
L 330.566552 72.573064 
L 330.891532 78.942063 
L 331.541491 85.311061 
L 333.166388 85.311061 
L 333.816347 91.680059 
L 335.116265 91.680059 
L 335.441245 98.049057 
L 335.766224 94.864558 
L 336.091204 98.049057 
L 336.416183 104.418055 
L 337.066143 104.418055 
L 337.391122 107.602554 
L 338.041081 107.602554 
L 338.366061 110.787053 
L 338.69104 117.156052 
L 339.665979 117.156052 
L 339.990958 120.340551 
L 340.315938 120.340551 
L 340.640917 123.52505 
L 340.965897 120.340551 
L 341.615856 133.078547 
L 341.940835 133.078547 
L 342.265815 136.263046 
L 342.590794 133.078547 
L 342.915774 139.447545 
L 343.240753 139.447545 
L 343.565733 145.816543 
L 344.215692 145.816543 
L 344.540672 149.001042 
L 344.865651 149.001042 
L 345.84059 158.55454 
L 346.165569 158.55454 
L 346.815528 171.292536 
L 347.465487 171.292536 
L 347.790467 174.477035 
L 348.115446 174.477035 
L 348.440426 180.846033 
L 348.765405 177.661534 
L 349.090385 184.030532 
L 349.415364 187.215031 
L 349.740344 184.030532 
L 350.065324 187.215031 
L 350.715283 187.215031 
L 351.040262 193.584029 
L 351.365242 193.584029 
L 351.690221 199.953028 
L 352.34018 206.322026 
L 352.990139 206.322026 
L 353.315119 209.506525 
L 353.640098 209.506525 
L 353.965078 212.691024 
L 354.290057 219.060022 
L 354.940016 219.060022 
L 356.239934 231.798018 
L 356.564914 228.613519 
L 356.889894 234.982517 
L 357.214873 238.167017 
L 357.539853 244.536015 
L 357.864832 241.351516 
L 358.189812 241.351516 
L 358.514791 244.536015 
L 358.839771 244.536015 
L 359.16475 247.720514 
L 359.48973 254.089512 
L 359.814709 250.905013 
L 360.139689 254.089512 
L 360.464668 254.089512 
L 360.789648 257.274011 
L 361.114627 257.274011 
L 361.439607 260.45851 
L 361.764586 257.274011 
L 362.089566 263.643009 
L 362.414545 266.827508 
L 362.739525 266.827508 
L 363.064505 270.012007 
L 363.389484 270.012007 
L 363.714464 273.196506 
L 364.039443 270.012007 
L 364.364423 270.012007 
L 364.689402 276.381006 
L 365.339361 276.381006 
L 365.664341 279.565505 
L 365.98932 279.565505 
L 366.3143 276.381006 
L 366.639279 282.750004 
L 366.964259 279.565505 
L 367.289238 285.934503 
L 368.264177 285.934503 
L 368.589156 282.750004 
L 368.914136 285.934503 
L 369.564095 285.934503 
L 369.889075 292.303501 
L 370.214054 289.119002 
L 372.488911 289.119002 
L 372.81389 292.303501 
L 373.463849 292.303501 
L 373.788829 289.119002 
L 374.763767 289.119002 
L 375.088747 292.303501 
L 375.738706 292.303501 
L 376.063686 289.119002 
L 376.388665 289.119002 
L 376.713645 285.934503 
L 377.038624 289.119002 
L 377.363604 282.750004 
L 378.013563 289.119002 
L 378.988501 279.565505 
L 379.313481 282.750004 
L 379.96344 276.381006 
L 380.288419 282.750004 
L 380.613399 279.565505 
L 380.938378 279.565505 
L 381.263358 273.196506 
L 381.913317 266.827508 
L 382.238296 270.012007 
L 382.563276 263.643009 
L 382.888256 270.012007 
L 383.863194 260.45851 
L 384.513153 260.45851 
L 384.838133 254.089512 
L 385.163112 254.089512 
L 385.488092 257.274011 
L 386.46303 247.720514 
L 386.78801 241.351516 
L 387.437969 241.351516 
L 387.762948 238.167017 
L 388.087928 241.351516 
L 388.412907 238.167017 
L 388.737887 241.351516 
L 389.062867 231.798018 
L 389.387846 228.613519 
L 390.037805 228.613519 
L 390.362785 222.244521 
L 390.687764 225.42902 
L 391.012744 219.060022 
L 391.337723 219.060022 
L 391.662703 212.691024 
L 391.987682 212.691024 
L 392.312662 209.506525 
L 392.637641 209.506525 
L 392.962621 203.137527 
L 393.61258 203.137527 
L 393.937559 206.322026 
L 394.262539 196.768529 
L 394.587518 199.953028 
L 394.912498 193.584029 
L 395.237477 193.584029 
L 395.562457 187.215031 
L 395.887437 190.39953 
L 396.212416 187.215031 
L 396.537396 180.846033 
L 396.862375 180.846033 
L 397.187355 174.477035 
L 397.837314 174.477035 
L 398.162293 164.923538 
L 398.487273 171.292536 
L 398.487273 171.292536 
" clip-path="url(#p59f8bd58a3)" style="fill: none; stroke: #ff7f0e; stroke-width: 1.5; stroke-linecap: square"/>
   </g>
   <g id="line2d_14">
    <path d="M 73.832727 155.236416 
L 76.757543 155.217309 
L 83.582113 155.249154 
L 87.156888 155.287368 
L 95.606355 155.265076 
L 103.730844 155.293737 
L 107.630598 155.300106 
L 121.604717 155.328766 
L 127.129369 155.316028 
L 131.354103 155.331951 
L 137.203735 155.341504 
L 144.678264 155.30329 
L 267.195545 155.195017 
L 272.720197 155.245969 
L 277.919869 155.293737 
L 286.044357 155.271445 
L 289.294152 155.280999 
L 297.093661 155.312844 
L 362.739525 155.204571 
L 368.914136 155.252338 
L 373.788829 155.287368 
L 398.487273 155.309659 
L 398.487273 155.309659 
" clip-path="url(#p59f8bd58a3)" style="fill: none; stroke: #2ca02c; stroke-width: 1.5; stroke-linecap: square"/>
   </g>
   <g id="line2d_15">
    <path d="M 73.832727 168.138097 
L 96.256314 168.136505 
L 118.679902 168.138097 
L 141.103489 168.134912 
L 152.477772 168.136505 
L 174.90136 168.138097 
L 182.375889 168.136505 
L 204.474496 168.136505 
L 226.898084 168.138097 
L 249.64665 168.134912 
L 272.395217 168.138097 
L 295.143784 168.134912 
L 306.518067 168.136505 
L 328.941654 168.136505 
L 398.487273 168.138097 
L 398.487273 168.138097 
" clip-path="url(#p59f8bd58a3)" style="fill: none; stroke: #d62728; stroke-width: 1.5; stroke-linecap: square"/>
   </g>
   <g id="patch_3">
    <path d="M 57.6 307.584 
L 57.6 41.472 
" style="fill: none; stroke: #000000; stroke-width: 0.8; stroke-linejoin: miter; stroke-linecap: square"/>
   </g>
   <g id="patch_4">
    <path d="M 414.72 307.584 
L 414.72 41.472 
" style="fill: none; stroke: #000000; stroke-width: 0.8; stroke-linejoin: miter; stroke-linecap: square"/>
   </g>
   <g id="patch_5">
    <path d="M 57.6 307.584 
L 414.72 307.584 
" style="fill: none; stroke: #000000; stroke-width: 0.8; stroke-linejoin: miter; stroke-linecap: square"/>
   </g>
   <g id="patch_6">
    <path d="M 57.6 41.472 
L 414.72 41.472 
" style="fill: none; stroke: #000000; stroke-width: 0.8; stroke-linejoin: miter; stroke-linecap: square"/>
   </g>
  </g>
 </g>
 <defs>
  <clipPath id="p59f8bd58a3">
   <rect x="57.6" y="41.472" width="357.12" height="266.112"/>
  </clipPath>
 </defs>
</svg>
