<?xml version="1.0" encoding="utf-8" standalone="no"?>
<!DOCTYPE svg PUBLIC "-//W3C//DTD SVG 1.1//EN"
  "http://www.w3.org/Graphics/SVG/1.1/DTD/svg11.dtd">
<svg xmlns:xlink="http://www.w3.org/1999/xlink" width="460.8pt" height="345.6pt" viewBox="0 0 460.8 345.6" xmlns="http://www.w3.org/2000/svg" version="1.1">
 <metadata>
  <rdf:RDF xmlns:dc="http://purl.org/dc/elements/1.1/" xmlns:cc="http://creativecommons.org/ns#" xmlns:rdf="http://www.w3.org/1999/02/22-rdf-syntax-ns#">
   <cc:Work>
    <dc:type rdf:resource="http://purl.org/dc/dcmitype/StillImage"/>
    <dc:date>2025-12-26T04:19:51.246073</dc:date>
    <dc:format>image/svg+xml</dc:format>
    <dc:creator>
     <cc:Agent>
      <dc:title>Matplotlib v3.10.8, https://matplotlib.org/</dc:title>
     </cc:Agent>
    </dc:creator>
   </cc:Work>
  </rdf:RDF>
 </metadata>
 <defs>
  <style type="text/css">*{stroke-linejoin: round; stroke-linecap: butt}</style>
 </defs>
 <g id="figure_1">
  <g id="patch_1">
   <path d="M 0 345.6 
L 460.8 345.6 
L 460.8 0 
L 0 0 
z
" style="fill: #ffffff"/>
  </g>
  <g id="axes_1">
   <g id="patch_2">
    <path d="M 57.6 307.584 
L 414.72 307.584 
L 414.72 41.472 
L 57.6 41.472 
z
" style="fill: #ffffff"/>
   </g>
   <g id="matplotlib.axis_1">
    <g id="xtick_1">
     <g id="line2d_1">
      <defs>
       <path id="m35da8dc9f5" d="M 0 0 
L 0 3.5 
" style="stroke: #000000; stroke-width: 0.8"/>
      </defs>
      <g>
       <use xlink:href="#m35da8dc9f5" x="73.832727" y="307.584" style="stroke: #000000; stroke-width: 0.8"/>
      </g>
     </g>
     <g id="text_1">
      <!-- 0 -->
      <g transform="translate(70.651477 322.182437) scale(0.1 -0.1)">
       <defs>
        <path id="DejaVuSans-30" d="M 2034 4250 
Q 1547 4250 1301 3770 
Q 1056 3291 1056 2328 
Q 1056 1369 1301 889 
Q 1547 409 2034 409 
Q 2525 409 2770 889 
Q 3016 1369 3016 2328 
Q 3016 3291 2770 3770 
Q 2525 4250 2034 4250 
z
M 2034 4750 
Q 2819 4750 3233 4129 
Q 3647 3509 3647 2328 
Q 3647 1150 3233 529 
Q 2819 -91 2034 -91 
Q 1250 -91 836 529 
Q 422 1150 422 2328 
Q 422 3509 836 4129 
Q 1250 4750 2034 4750 
z
" transform="scale(0.015625)"/>
       </defs>
       <use xlink:href="#DejaVuSans-30"/>
      </g>
     </g>
    </g>
    <g id="xtick_2">
     <g id="line2d_2">
      <g>
       <use xlink:href="#m35da8dc9f5" x="138.828632" y="307.584" style="stroke: #000000; stroke-width: 0.8"/>
      </g>
     </g>
     <g id="text_2">
      <!-- 1 -->
      <g transform="translate(135.647382 322.182437) scale(0.1 -0.1)">
       <defs>
        <path id="DejaVuSans-31" d="M 794 531 
L 1825 531 
L 1825 4091 
L 703 3866 
L 703 4441 
L 1819 4666 
L 2450 4666 
L 2450 531 
L 3481 531 
L 3481 0 
L 794 0 
L 794 531 
z
" transform="scale(0.015625)"/>
       </defs>
       <use xlink:href="#DejaVuSans-31"/>
      </g>
     </g>
    </g>
    <g id="xtick_3">
     <g id="line2d_3">
      <g>
       <use xlink:href="#m35da8dc9f5" x="203.824537" y="307.584" style="stroke: #000000; stroke-width: 0.8"/>
      </g>
     </g>
     <g id="text_3">
      <!-- 2 -->
      <g transform="translate(200.643287 322.182437) scale(0.1 -0.1)">
       <defs>
        <path id="DejaVuSans-32" d="M 1228 531 
L 3431 531 
L 3431 0 
L 469 0 
L 469 531 
Q 828 903 1448 1529 
Q 2069 2156 2228 2338 
Q 2531 2678 2651 2914 
Q 2772 3150 2772 3378 
Q 2772 3750 2511 3984 
Q 2250 4219 1831 4219 
Q 1534 4219 1204 4116 
Q 875 4013 500 3803 
L 500 4441 
Q 881 4594 1212 4672 
Q 1544 4750 1819 4750 
Q 2544 4750 2975 4387 
Q 3406 4025 3406 3419 
Q 3406 3131 3298 2873 
Q 3191 2616 2906 2266 
Q 2828 2175 2409 1742 
Q 1991 1309 1228 531 
z
" transform="scale(0.015625)"/>
       </defs>
       <use xlink:href="#DejaVuSans-32"/>
      </g>
     </g>
    </g>
    <g id="xtick_4">
     <g id="line2d_4">
      <g>
       <use xlink:href="#m35da8dc9f5" x="268.820442" y="307.584" style="stroke: #000000; stroke-width: 0.8"/>
      </g>
     </g>
     <g id="text_4">
      <!-- 3 -->
      <g transform="translate(265.639192 322.182437) scale(0.1 -0.1)">
       <defs>
        <path id="DejaVuSans-33" d="M 2597 2516 
Q 3050 2419 3304 2112 
Q 3559 1806 3559 1356 
Q 3559 666 3084 287 
Q 2609 -91 1734 -91 
Q 1441 -91 1130 -33 
Q 819 25 488 141 
L 488 750 
Q 750 597 1062 519 
Q 1375 441 1716 441 
Q 2309 441 2620 675 
Q 2931 909 2931 1356 
Q 2931 1769 2642 2001 
Q 2353 2234 1838 2234 
L 1294 2234 
L 1294 2753 
L 1863 2753 
Q 2328 2753 2575 2939 
Q 2822 3125 2822 3475 
Q 2822 3834 2567 4026 
Q 2313 4219 1838 4219 
Q 1578 4219 1281 4162 
Q 984 4106 628 3988 
L 628 4550 
Q 988 4650 1302 4700 
Q 1616 4750 1894 4750 
Q 2613 4750 3031 4423 
Q 3450 4097 3450 3541 
Q 3450 3153 3228 2886 
Q 3006 2619 2597 2516 
z
" transform="scale(0.015625)"/>
       </defs>
       <use xlink:href="#DejaVuSans-33"/>
      </g>
     </g>
    </g>
    <g id="xtick_5">
     <g id="line2d_5">
      <g>
       <use xlink:href="#m35da8dc9f5" x="333.816347" y="307.584" style="stroke: #000000; stroke-width: 0.8"/>
      </g>
     </g>
     <g id="text_5">
      <!-- 4 -->
      <g transform="translate(330.635097 322.182437) scale(0.1 -0.1)">
       <defs>
        <path id="DejaVuSans-34" d="M 2419 4116 
L 825 1625 
L 2419 1625 
L 2419 4116 
z
M 2253 4666 
L 3047 4666 
L 3047 1625 
L 3713 1625 
L 3713 1100 
L 3047 1100 
L 3047 0 
L 2419 0 
L 2419 1100 
L 313 1100 
L 313 1709 
L 2253 4666 
z
" transform="scale(0.015625)"/>
       </defs>
       <use xlink:href="#DejaVuSans-34"/>
      </g>
     </g>
    </g>
    <g id="xtick_6">
     <g id="line2d_6">
      <g>
       <use xlink:href="#m35da8dc9f5" x="398.812252" y="307.584" style="stroke: #000000; stroke-width: 0.8"/>
      </g>
     </g>
     <g id="text_6">
      <!-- 5 -->
      <g transform="translate(395.631002 322.182437) scale(0.1 -0.1)">
       <defs>
        <path id="DejaVuSans-35" d="M 691 4666 
L 3169 4666 
L 3169 4134 
L 1269 4134 
L 1269 2991 
Q 1406 3038 1543 3061 
Q 1681 3084 1819 3084 
Q 2600 3084 3056 2656 
Q 3513 2228 3513 1497 
Q 3513 744 3044 326 
Q 2575 -91 1722 -91 
Q 1428 -91 1123 -41 
Q 819 9 494 109 
L 494 744 
Q 775 591 1075 516 
Q 1375 441 1709 441 
Q 2250 441 2565 725 
Q 2881 1009 2881 1497 
Q 2881 1984 2565 2268 
Q 2250 2553 1709 2553 
Q 1456 2553 1204 2497 
Q 953 2441 691 2322 
L 691 4666 
z
" transform="scale(0.015625)"/>
       </defs>
       <use xlink:href="#DejaVuSans-35"/>
      </g>
     </g>
    </g>
    <g id="text_7">
     <!-- 1e−7 -->
     <g transform="translate(387.462188 334.860562) scale(0.1 -0.1)">
      <defs>
       <path id="DejaVuSans-65" d="M 3597 1894 
L 3597 1613 
L 953 1613 
Q 991 1019 1311 708 
Q 1631 397 2203 397 
Q 2534 397 2845 478 
Q 3156 559 3463 722 
L 3463 178 
Q 3153 47 2828 -22 
Q 2503 -91 2169 -91 
Q 1331 -91 842 396 
Q 353 884 353 1716 
Q 353 2575 817 3079 
Q 1281 3584 2069 3584 
Q 2775 3584 3186 3129 
Q 3597 2675 3597 1894 
z
M 3022 2063 
Q 3016 2534 2758 2815 
Q 2500 3097 2075 3097 
Q 1594 3097 1305 2825 
Q 1016 2553 972 2059 
L 3022 2063 
z
" transform="scale(0.015625)"/>
       <path id="DejaVuSans-2212" d="M 678 2272 
L 4684 2272 
L 4684 1741 
L 678 1741 
L 678 2272 
z
" transform="scale(0.015625)"/>
       <path id="DejaVuSans-37" d="M 525 4666 
L 3525 4666 
L 3525 4397 
L 1831 0 
L 1172 0 
L 2766 4134 
L 525 4134 
L 525 4666 
z
" transform="scale(0.015625)"/>
      </defs>
      <use xlink:href="#DejaVuSans-31"/>
      <use xlink:href="#DejaVuSans-65" transform="translate(63.623047 0)"/>
      <use xlink:href="#DejaVuSans-2212" transform="translate(125.146484 0)"/>
      <use xlink:href="#DejaVuSans-37" transform="translate(208.935547 0)"/>
     </g>
    </g>
   </g>
   <g id="matplotlib.axis_2">
    <g id="ytick_1">
     <g id="line2d_7">
      <defs>
       <path id="m665200d720" d="M 0 0 
L -3.5 0 
" style="stroke: #000000; stroke-width: 0.8"/>
      </defs>
      <g>
       <use xlink:href="#m665200d720" x="57.6" y="278.208016" style="stroke: #000000; stroke-width: 0.8"/>
      </g>
     </g>
     <g id="text_8">
      <!-- 0 -->
      <g transform="translate(44.2375 282.007235) scale(0.1 -0.1)">
       <use xlink:href="#DejaVuSans-30"/>
      </g>
     </g>
    </g>
    <g id="ytick_2">
     <g id="line2d_8">
      <g>
       <use xlink:href="#m665200d720" x="57.6" y="238.710869" style="stroke: #000000; stroke-width: 0.8"/>
      </g>
     </g>
     <g id="text_9">
      <!-- 10 -->
      <g transform="translate(37.875 242.510088) scale(0.1 -0.1)">
       <use xlink:href="#DejaVuSans-31"/>
       <use xlink:href="#DejaVuSans-30" transform="translate(63.623047 0)"/>
      </g>
     </g>
    </g>
    <g id="ytick_3">
     <g id="line2d_9">
      <g>
       <use xlink:href="#m665200d720" x="57.6" y="199.213722" style="stroke: #000000; stroke-width: 0.8"/>
      </g>
     </g>
     <g id="text_10">
      <!-- 20 -->
      <g transform="translate(37.875 203.012941) scale(0.1 -0.1)">
       <use xlink:href="#DejaVuSans-32"/>
       <use xlink:href="#DejaVuSans-30" transform="translate(63.623047 0)"/>
      </g>
     </g>
    </g>
    <g id="ytick_4">
     <g id="line2d_10">
      <g>
       <use xlink:href="#m665200d720" x="57.6" y="159.716575" style="stroke: #000000; stroke-width: 0.8"/>
      </g>
     </g>
     <g id="text_11">
      <!-- 30 -->
      <g transform="translate(37.875 163.515794) scale(0.1 -0.1)">
       <use xlink:href="#DejaVuSans-33"/>
       <use xlink:href="#DejaVuSans-30" transform="translate(63.623047 0)"/>
      </g>
     </g>
    </g>
    <g id="ytick_5">
     <g id="line2d_11">
      <g>
       <use xlink:href="#m665200d720" x="57.6" y="120.219429" style="stroke: #000000; stroke-width: 0.8"/>
      </g>
     </g>
     <g id="text_12">
      <!-- 40 -->
      <g transform="translate(37.875 124.018647) scale(0.1 -0.1)">
       <use xlink:href="#DejaVuSans-34"/>
       <use xlink:href="#DejaVuSans-30" transform="translate(63.623047 0)"/>
      </g>
     </g>
    </g>
    <g id="ytick_6">
     <g id="line2d_12">
      <g>
       <use xlink:href="#m665200d720" x="57.6" y="80.722282" style="stroke: #000000; stroke-width: 0.8"/>
      </g>
     </g>
     <g id="text_13">
      <!-- 50 -->
      <g transform="translate(37.875 84.5215) scale(0.1 -0.1)">
       <use xlink:href="#DejaVuSans-35"/>
       <use xlink:href="#DejaVuSans-30" transform="translate(63.623047 0)"/>
      </g>
     </g>
    </g>
   </g>
   <g id="line2d_13">
    <path d="M 73.832727 278.208017 
L 74.157707 278.701731 
L 74.482686 278.948588 
L 74.807666 278.701731 
L 75.132645 278.208017 
L 75.782604 278.208017 
L 76.107584 278.701731 
L 76.432563 278.948588 
L 77.407502 278.208017 
L 77.732482 278.948588 
L 78.057461 278.948588 
L 78.382441 278.454874 
L 78.70742 278.454874 
L 79.0324 277.96116 
L 79.357379 278.208017 
L 79.682359 278.701731 
L 80.007338 278.948588 
L 80.332318 278.454874 
L 80.982277 277.96116 
L 81.307256 278.208017 
L 81.632236 278.701731 
L 81.957215 278.948588 
L 82.282195 278.948588 
L 82.607174 278.208017 
L 82.932154 278.454874 
L 83.257133 278.208017 
L 83.582113 278.454874 
L 84.232072 278.454874 
L 84.557052 278.208017 
L 84.882031 278.208017 
L 85.207011 278.701731 
L 85.53199 278.454874 
L 86.181949 278.454874 
L 86.506929 278.208017 
L 87.481867 278.948588 
L 87.806847 278.701731 
L 88.131826 278.948588 
L 88.456806 278.208017 
L 88.781785 278.454874 
L 89.106765 278.454874 
L 89.431744 278.701731 
L 89.756724 278.454874 
L 90.081704 278.454874 
L 90.406683 278.208017 
L 90.731663 278.208017 
L 91.381622 278.701731 
L 92.031581 278.701731 
L 92.35656 278.454874 
L 93.006519 278.454874 
L 93.331499 278.948588 
L 93.656478 278.454874 
L 93.981458 278.454874 
L 94.306437 277.96116 
L 94.631417 278.701731 
L 95.281376 278.701731 
L 95.931335 278.208017 
L 96.256314 278.208017 
L 96.906274 278.701731 
L 97.881212 278.701731 
L 98.206192 278.208017 
L 98.531171 278.701731 
L 98.856151 278.208017 
L 99.18113 278.701731 
L 99.50611 278.454874 
L 99.831089 278.701731 
L 100.156069 278.454874 
L 100.481048 278.701731 
L 101.455987 278.701731 
L 101.780966 278.454874 
L 102.105946 278.701731 
L 103.080885 278.701731 
L 103.405864 278.454874 
L 103.730844 278.701731 
L 104.055823 278.701731 
L 104.380803 278.948588 
L 104.705782 279.442303 
L 105.355741 279.936017 
L 105.680721 280.429731 
L 106.0057 279.936017 
L 106.33068 279.195445 
L 106.655659 277.96116 
L 108.280557 268.827445 
L 108.930516 263.890303 
L 109.255495 261.668588 
L 109.905455 259.446874 
L 110.555414 257.472017 
L 111.205373 256.484588 
L 111.530352 256.237731 
L 111.855332 256.237731 
L 112.180311 255.990874 
L 112.83027 256.484588 
L 113.480229 256.484588 
L 113.805209 256.237731 
L 114.130188 256.978303 
L 114.455168 256.978303 
L 114.780147 257.472017 
L 115.105127 257.718874 
L 115.430106 258.212588 
L 115.755086 258.459445 
L 116.080066 258.95316 
L 116.405045 259.200017 
L 116.730025 259.693731 
L 117.055004 259.446874 
L 117.379984 259.446874 
L 117.704963 259.693731 
L 118.029943 259.693731 
L 118.354922 259.940588 
L 119.004881 259.446874 
L 119.329861 259.940588 
L 119.65484 259.693731 
L 119.97982 259.940588 
L 120.304799 259.446874 
L 120.629779 259.446874 
L 121.929697 258.459445 
L 122.579656 258.459445 
L 123.229615 258.95316 
L 123.554595 258.706303 
L 123.879574 258.706303 
L 124.204554 258.459445 
L 124.529533 258.95316 
L 124.854513 258.459445 
L 125.179492 258.706303 
L 125.504472 258.459445 
L 125.829451 258.459445 
L 126.154431 258.212588 
L 126.47941 258.459445 
L 127.129369 258.459445 
L 127.454349 258.706303 
L 127.779328 258.706303 
L 128.429287 259.200017 
L 128.754267 258.95316 
L 129.079247 258.95316 
L 129.404226 258.459445 
L 129.729206 258.95316 
L 130.054185 258.459445 
L 130.379165 258.95316 
L 130.704144 258.706303 
L 131.354103 258.706303 
L 131.679083 258.95316 
L 132.004062 258.706303 
L 132.329042 258.706303 
L 132.654021 258.95316 
L 132.979001 258.459445 
L 133.30398 258.706303 
L 133.953939 258.706303 
L 134.278919 258.459445 
L 134.603898 258.459445 
L 134.928878 258.95316 
L 135.253857 258.706303 
L 135.578837 258.706303 
L 135.903817 258.95316 
L 136.228796 258.95316 
L 136.878755 258.459445 
L 137.203735 258.706303 
L 137.528714 258.459445 
L 137.853694 258.706303 
L 138.503653 258.706303 
L 138.828632 258.95316 
L 139.803571 258.95316 
L 140.12855 259.200017 
L 140.45353 258.706303 
L 140.778509 258.95316 
L 141.103489 258.95316 
L 141.428468 258.706303 
L 141.753448 258.706303 
L 142.078428 259.693731 
L 143.053366 265.618303 
L 143.378346 266.605731 
L 143.703325 268.580588 
L 144.353284 275.986303 
L 145.003243 282.898303 
L 145.328223 285.120017 
L 145.978182 286.60116 
L 146.628141 286.60116 
L 146.95312 286.107445 
L 147.2781 284.626303 
L 147.603079 282.404588 
L 148.253038 276.726874 
L 148.578018 275.492588 
L 148.902998 275.492588 
L 149.227977 275.739445 
L 149.552957 275.492588 
L 149.877936 274.50516 
L 150.202916 274.258303 
L 150.527895 274.752017 
L 151.177854 276.973731 
L 151.827813 277.467445 
L 152.152793 277.96116 
L 152.802752 280.676588 
L 153.127731 281.170303 
L 153.452711 280.429731 
L 154.10267 277.96116 
L 154.752629 279.936017 
L 155.077609 279.936017 
L 155.727568 277.714303 
L 156.052547 277.220588 
L 156.702506 277.714303 
L 157.677445 277.714303 
L 158.002424 278.454874 
L 158.327404 278.454874 
L 158.977363 277.96116 
L 159.302342 277.96116 
L 159.627322 278.454874 
L 159.952301 279.195445 
L 160.277281 279.442303 
L 160.60226 279.195445 
L 160.92724 279.195445 
L 161.252219 278.701731 
L 161.902179 278.208017 
L 163.202097 279.195445 
L 163.527076 278.208017 
L 163.852056 277.714303 
L 164.177035 277.714303 
L 164.826994 278.701731 
L 165.151974 278.948588 
L 165.801933 277.96116 
L 166.451892 278.454874 
L 166.776871 278.948588 
L 167.42683 278.454874 
L 167.75181 278.454874 
L 168.07679 278.948588 
L 168.401769 279.195445 
L 168.726749 278.948588 
L 169.051728 278.208017 
L 169.376708 277.96116 
L 169.701687 277.96116 
L 170.351646 279.195445 
L 170.676626 278.948588 
L 171.001605 278.208017 
L 171.326585 277.96116 
L 171.651564 277.96116 
L 171.976544 278.454874 
L 172.301523 278.701731 
L 172.626503 278.701731 
L 172.951482 278.208017 
L 173.601441 278.208017 
L 173.926421 278.454874 
L 174.57638 278.454874 
L 174.90136 278.208017 
L 175.226339 278.208017 
L 175.551319 278.701731 
L 175.876298 278.948588 
L 176.201278 278.454874 
L 176.526257 278.454874 
L 176.851237 277.96116 
L 177.501196 278.454874 
L 177.826175 278.948588 
L 178.801114 278.208017 
L 179.126093 278.208017 
L 179.451073 278.454874 
L 180.426011 278.454874 
L 180.750991 278.208017 
L 181.075971 278.454874 
L 181.72593 278.454874 
L 182.375889 277.96116 
L 182.700868 277.96116 
L 183.025848 278.454874 
L 183.350827 278.701731 
L 184.325766 277.96116 
L 185.300704 278.701731 
L 185.625684 278.701731 
L 185.950663 278.454874 
L 186.275643 278.454874 
L 186.600622 278.208017 
L 186.925602 278.701731 
L 187.250581 278.454874 
L 188.5505 278.454874 
L 188.875479 278.701731 
L 189.200459 278.701731 
L 189.850418 278.208017 
L 190.500377 278.208017 
L 190.825356 278.701731 
L 191.150336 278.948588 
L 191.475315 278.701731 
L 191.800295 278.208017 
L 192.125274 278.454874 
L 192.450254 278.208017 
L 192.775233 278.701731 
L 193.100213 278.454874 
L 193.425192 278.701731 
L 193.750172 278.701731 
L 194.400131 278.208017 
L 195.37507 278.948588 
L 195.700049 278.701731 
L 196.674988 278.701731 
L 196.999967 278.454874 
L 197.324947 278.948588 
L 197.649926 278.454874 
L 198.299885 278.454874 
L 198.624865 278.701731 
L 199.274824 278.701731 
L 199.599803 278.454874 
L 199.924783 278.454874 
L 200.249762 278.948588 
L 200.574742 279.195445 
L 200.899722 279.936017 
L 201.549681 280.429731 
L 201.87466 280.182874 
L 202.524619 278.208017 
L 203.174578 274.752017 
L 203.824537 271.04916 
L 205.449435 260.434303 
L 206.099394 258.706303 
L 207.074333 256.731445 
L 207.399312 256.237731 
L 207.724292 256.731445 
L 208.049271 255.990874 
L 208.374251 256.237731 
L 208.69923 256.237731 
L 209.02421 256.484588 
L 209.674169 256.484588 
L 210.324128 256.978303 
L 210.649107 257.472017 
L 211.299066 257.965731 
L 211.624046 258.706303 
L 212.274005 259.200017 
L 212.598984 259.200017 
L 212.923964 259.693731 
L 213.248943 259.446874 
L 213.573923 259.693731 
L 215.84878 259.693731 
L 216.173759 259.446874 
L 216.823718 259.446874 
L 217.148698 258.95316 
L 217.473677 258.706303 
L 217.798657 258.212588 
L 218.123636 258.706303 
L 218.448616 258.212588 
L 218.773595 258.459445 
L 219.423554 258.459445 
L 219.748534 258.706303 
L 220.398493 258.706303 
L 220.723473 258.459445 
L 221.048452 258.706303 
L 221.373432 258.459445 
L 221.698411 258.706303 
L 222.023391 258.459445 
L 222.998329 258.459445 
L 223.323309 258.706303 
L 223.648288 258.706303 
L 223.973268 258.95316 
L 224.298247 258.706303 
L 224.623227 258.95316 
L 224.948206 258.706303 
L 225.598165 258.706303 
L 225.923145 258.459445 
L 226.248124 258.706303 
L 226.573104 258.459445 
L 226.898084 258.95316 
L 227.873022 258.95316 
L 228.198002 258.706303 
L 228.522981 258.95316 
L 228.847961 258.706303 
L 229.822899 258.706303 
L 230.147879 258.459445 
L 230.472858 258.459445 
L 230.797838 258.706303 
L 231.122817 258.706303 
L 231.447797 258.95316 
L 231.772776 258.706303 
L 233.072695 258.706303 
L 233.397674 258.459445 
L 233.722654 258.95316 
L 234.047633 258.459445 
L 234.372613 258.95316 
L 234.697592 258.706303 
L 235.022572 258.95316 
L 235.347551 258.95316 
L 235.672531 258.706303 
L 235.99751 258.95316 
L 236.32249 258.95316 
L 236.647469 259.200017 
L 236.972449 258.706303 
L 237.297428 258.95316 
L 237.622408 258.95316 
L 237.947387 259.940588 
L 238.922326 265.86516 
L 239.247305 266.605731 
L 239.572285 268.580588 
L 240.222244 275.739445 
L 240.872203 282.898303 
L 241.197183 284.87316 
L 241.847142 286.60116 
L 242.172121 286.60116 
L 242.497101 286.848017 
L 243.14706 284.626303 
L 244.446978 275.492588 
L 244.771957 275.245731 
L 245.096937 275.492588 
L 245.421916 275.492588 
L 246.071876 274.258303 
L 246.396855 274.752017 
L 247.046814 277.467445 
L 247.371794 277.714303 
L 247.696773 277.467445 
L 248.346732 279.195445 
L 248.671712 280.923445 
L 248.996691 281.170303 
L 249.321671 280.429731 
L 249.64665 278.701731 
L 249.97163 278.208017 
L 250.621589 279.936017 
L 250.946568 279.936017 
L 251.596527 277.467445 
L 251.921507 277.220588 
L 252.246486 277.714303 
L 252.896446 277.714303 
L 253.221425 277.467445 
L 253.871384 278.454874 
L 254.196364 278.454874 
L 254.846323 277.96116 
L 255.171302 277.96116 
L 255.496282 278.454874 
L 255.821261 279.195445 
L 256.47122 279.195445 
L 256.7962 278.948588 
L 257.121179 278.454874 
L 258.096118 278.454874 
L 258.421097 278.701731 
L 258.746077 279.195445 
L 259.071057 279.195445 
L 259.396036 278.208017 
L 260.045995 277.714303 
L 260.695954 278.948588 
L 261.020934 278.948588 
L 261.670893 277.96116 
L 262.320852 278.454874 
L 262.645831 278.948588 
L 262.970811 278.454874 
L 263.62077 278.454874 
L 263.945749 278.948588 
L 264.270729 279.195445 
L 264.595708 278.701731 
L 264.920688 278.454874 
L 265.245667 277.96116 
L 265.895627 278.454874 
L 266.220606 278.948588 
L 266.545586 278.948588 
L 266.870565 278.454874 
L 267.195545 277.714303 
L 267.520524 277.96116 
L 268.170483 278.948588 
L 268.495463 278.701731 
L 268.820442 278.208017 
L 269.145422 278.701731 
L 269.470401 278.454874 
L 269.795381 278.454874 
L 270.12036 278.948588 
L 270.44534 278.208017 
L 270.770319 278.208017 
L 271.095299 277.96116 
L 271.745258 278.948588 
L 272.070238 278.701731 
L 272.720197 277.714303 
L 273.045176 277.96116 
L 273.695135 278.948588 
L 274.020115 278.701731 
L 274.345094 278.701731 
L 274.995053 278.208017 
L 275.320033 278.701731 
L 275.645012 278.208017 
L 275.969992 278.454874 
L 276.294971 278.208017 
L 276.619951 278.208017 
L 277.26991 278.701731 
L 277.594889 278.208017 
L 278.569828 278.208017 
L 278.894808 278.701731 
L 279.219787 278.701731 
L 279.544767 278.454874 
L 279.869746 278.454874 
L 280.194726 277.96116 
L 280.844685 278.454874 
L 281.169664 278.948588 
L 281.494644 278.454874 
L 281.819623 278.454874 
L 282.144603 278.208017 
L 282.469582 278.208017 
L 282.794562 278.701731 
L 283.119541 278.454874 
L 283.444521 278.701731 
L 283.7695 278.701731 
L 284.09448 278.454874 
L 284.419459 278.454874 
L 284.744439 278.948588 
L 285.069419 278.454874 
L 285.394398 278.208017 
L 285.719378 278.454874 
L 286.044357 278.208017 
L 286.369337 278.454874 
L 287.019296 278.454874 
L 287.344275 278.208017 
L 287.994234 278.208017 
L 288.644193 278.701731 
L 289.619132 278.701731 
L 289.944111 278.454874 
L 290.269091 278.454874 
L 290.59407 278.208017 
L 290.91905 278.208017 
L 291.244029 278.454874 
L 291.893989 278.454874 
L 292.218968 278.701731 
L 292.868927 278.701731 
L 293.518886 278.208017 
L 294.168845 278.701731 
L 294.493825 278.701731 
L 294.818804 278.454874 
L 295.793743 278.454874 
L 296.768681 279.936017 
L 297.093661 279.936017 
L 297.41864 280.182874 
L 297.74362 279.936017 
L 298.0686 279.195445 
L 298.393579 277.96116 
L 300.018477 268.827445 
L 300.668436 263.396588 
L 300.993415 261.421731 
L 301.318395 260.68116 
L 301.643374 259.446874 
L 301.968354 258.706303 
L 302.293333 257.472017 
L 302.618313 256.731445 
L 302.943292 256.484588 
L 303.268272 256.484588 
L 303.593251 255.990874 
L 303.918231 255.990874 
L 304.24321 256.237731 
L 304.56819 255.990874 
L 304.89317 256.484588 
L 305.543129 256.484588 
L 305.868108 256.731445 
L 306.193088 256.731445 
L 306.518067 257.718874 
L 306.843047 257.472017 
L 307.493006 258.706303 
L 307.817985 258.95316 
L 308.142965 259.446874 
L 308.467944 259.446874 
L 308.792924 259.693731 
L 309.117903 259.446874 
L 309.442883 259.693731 
L 310.092842 259.693731 
L 310.417821 259.940588 
L 311.067781 259.940588 
L 311.39276 259.693731 
L 311.71774 259.940588 
L 312.042719 259.446874 
L 312.367699 259.446874 
L 313.017658 258.95316 
L 313.342637 258.459445 
L 313.667617 258.459445 
L 313.992596 258.212588 
L 314.317576 258.212588 
L 314.642555 258.459445 
L 314.967535 258.459445 
L 315.292514 258.706303 
L 316.917412 258.706303 
L 317.242391 258.212588 
L 317.892351 258.212588 
L 318.21733 257.965731 
L 318.54231 257.965731 
L 318.867289 258.459445 
L 319.192269 258.706303 
L 319.517248 258.459445 
L 319.842228 259.200017 
L 320.167207 258.95316 
L 320.817166 258.95316 
L 321.142146 258.706303 
L 321.467125 258.95316 
L 321.792105 258.706303 
L 322.117084 259.200017 
L 322.442064 258.706303 
L 322.767043 258.706303 
L 323.092023 258.459445 
L 323.417002 258.95316 
L 323.741982 258.95316 
L 324.066962 258.706303 
L 324.391941 258.706303 
L 324.716921 258.459445 
L 325.0419 258.706303 
L 325.36688 258.459445 
L 325.691859 258.706303 
L 326.016839 258.706303 
L 326.341818 258.459445 
L 326.666798 258.706303 
L 326.991777 258.706303 
L 327.316757 258.95316 
L 327.641736 258.706303 
L 328.941654 258.706303 
L 329.266634 258.459445 
L 329.591613 258.706303 
L 329.916593 258.459445 
L 330.241572 258.706303 
L 330.566552 258.459445 
L 330.891532 258.95316 
L 331.86647 258.95316 
L 332.19145 258.706303 
L 332.516429 259.200017 
L 333.166388 258.706303 
L 333.491368 258.706303 
L 333.816347 259.693731 
L 334.791286 265.618303 
L 335.116265 266.605731 
L 335.441245 268.827445 
L 336.091204 276.23316 
L 336.741163 283.392017 
L 337.066143 285.120017 
L 337.391122 286.107445 
L 337.716102 286.60116 
L 338.366061 286.60116 
L 338.69104 286.107445 
L 339.01602 284.87316 
L 339.990958 276.726874 
L 340.315938 275.245731 
L 340.640917 275.492588 
L 341.290876 275.492588 
L 341.940835 274.011445 
L 342.265815 274.752017 
L 342.915774 277.467445 
L 343.240753 277.714303 
L 343.565733 277.467445 
L 343.890713 277.714303 
L 344.540672 280.923445 
L 344.865651 281.170303 
L 345.190631 280.182874 
L 345.51561 278.454874 
L 345.84059 277.96116 
L 346.490549 279.936017 
L 346.815528 279.68916 
L 347.465487 277.467445 
L 347.790467 277.220588 
L 348.115446 277.714303 
L 348.440426 277.96116 
L 349.090385 277.467445 
L 349.740344 278.454874 
L 350.065324 278.454874 
L 350.390303 277.96116 
L 350.715283 277.714303 
L 351.040262 277.96116 
L 351.365242 278.454874 
L 351.690221 279.195445 
L 352.34018 279.195445 
L 352.66516 278.948588 
L 352.990139 278.454874 
L 353.315119 278.701731 
L 353.640098 278.208017 
L 353.965078 278.454874 
L 354.290057 278.454874 
L 354.615037 279.195445 
L 355.589975 277.714303 
L 355.914955 277.467445 
L 356.564914 278.701731 
L 356.889894 278.948588 
L 357.214873 278.208017 
L 358.189812 278.208017 
L 358.514791 278.701731 
L 359.16475 278.208017 
L 359.48973 278.454874 
L 359.814709 278.948588 
L 360.139689 278.948588 
L 360.464668 278.701731 
L 361.114627 277.714303 
L 361.764586 278.701731 
L 362.089566 278.948588 
L 362.414545 278.701731 
L 362.739525 278.208017 
L 363.064505 277.96116 
L 363.389484 277.96116 
L 363.714464 278.208017 
L 364.039443 278.701731 
L 364.364423 278.948588 
L 364.689402 278.454874 
L 365.014382 278.208017 
L 365.339361 278.454874 
L 365.664341 278.454874 
L 365.98932 278.701731 
L 366.3143 278.208017 
L 366.639279 277.96116 
L 366.964259 278.208017 
L 367.289238 278.948588 
L 367.614218 278.948588 
L 368.264177 278.454874 
L 368.589156 277.96116 
L 369.239115 278.454874 
L 369.564095 278.948588 
L 369.889075 278.701731 
L 370.214054 278.208017 
L 370.539034 277.96116 
L 371.188993 278.454874 
L 372.488911 278.454874 
L 372.81389 278.701731 
L 373.463849 278.701731 
L 373.788829 277.96116 
L 374.113808 278.454874 
L 374.438788 278.208017 
L 374.763767 278.948588 
L 375.088747 278.948588 
L 375.413726 278.454874 
L 376.063686 277.96116 
L 376.388665 278.454874 
L 377.038624 278.454874 
L 377.363604 278.701731 
L 377.688583 278.454874 
L 378.338542 278.454874 
L 378.663522 278.701731 
L 378.988501 278.454874 
L 379.313481 278.701731 
L 379.63846 278.454874 
L 381.263358 278.454874 
L 381.588337 278.208017 
L 381.913317 278.208017 
L 382.563276 278.701731 
L 383.213235 278.701731 
L 383.538215 278.454874 
L 384.188174 278.454874 
L 384.513153 278.701731 
L 384.838133 278.454874 
L 385.163112 278.948588 
L 385.488092 278.454874 
L 386.138051 278.454874 
L 386.46303 278.701731 
L 386.78801 278.701731 
L 387.112989 278.454874 
L 387.437969 278.454874 
L 388.087928 278.948588 
L 388.412907 278.454874 
L 388.737887 278.701731 
L 389.062867 278.701731 
L 389.387846 278.454874 
L 389.712826 278.701731 
L 390.362785 278.701731 
L 390.687764 278.454874 
L 391.012744 278.701731 
L 391.337723 278.454874 
L 391.662703 278.701731 
L 391.987682 278.701731 
L 392.312662 279.442303 
L 392.637641 279.68916 
L 392.962621 280.182874 
L 393.2876 280.429731 
L 393.61258 280.182874 
L 393.937559 279.442303 
L 394.912498 274.998874 
L 396.862375 261.668588 
L 397.512334 259.446874 
L 397.837314 258.95316 
L 398.162293 257.472017 
L 398.487273 256.978303 
L 398.487273 256.978303 
" clip-path="url(#p61149ca37a)" style="fill: none; stroke: #1f77b4; stroke-width: 1.5; stroke-linecap: square"/>
   </g>
   <g id="line2d_14">
    <path d="M 73.832727 259.200017 
L 74.157707 259.200017 
L 74.482686 258.95316 
L 74.807666 258.95316 
L 75.132645 258.706303 
L 75.457625 258.706303 
L 75.782604 258.95316 
L 76.107584 258.95316 
L 76.432563 259.200017 
L 76.757543 258.95316 
L 77.082523 258.459445 
L 78.70742 258.459445 
L 79.0324 258.212588 
L 80.007338 258.95316 
L 80.332318 258.95316 
L 80.657297 258.706303 
L 80.982277 258.95316 
L 82.607174 258.95316 
L 82.932154 259.200017 
L 83.257133 258.95316 
L 83.907093 259.446874 
L 84.232072 258.95316 
L 84.882031 258.95316 
L 85.207011 259.200017 
L 85.53199 258.706303 
L 86.181949 258.706303 
L 86.506929 258.95316 
L 86.831908 258.95316 
L 87.156888 259.200017 
L 87.481867 258.95316 
L 87.806847 258.95316 
L 88.131826 258.706303 
L 88.781785 259.200017 
L 89.106765 259.200017 
L 89.431744 258.706303 
L 90.081704 258.706303 
L 90.406683 258.95316 
L 90.731663 258.706303 
L 91.056642 259.200017 
L 91.381622 258.95316 
L 91.706601 259.200017 
L 92.031581 258.95316 
L 92.35656 259.200017 
L 92.68154 258.95316 
L 93.331499 258.95316 
L 93.656478 258.706303 
L 93.981458 258.95316 
L 95.931335 268.333731 
L 96.581294 275.245731 
L 97.231253 282.898303 
L 97.556233 285.613731 
L 98.206192 288.082303 
L 98.856151 289.069731 
L 99.18113 289.069731 
L 99.50611 287.588588 
L 100.156069 281.41716 
L 100.806028 276.480017 
L 101.455987 275.986303 
L 101.780966 275.492588 
L 102.430925 272.530303 
L 102.755905 272.530303 
L 103.080885 273.764588 
L 103.405864 275.492588 
L 103.730844 275.986303 
L 104.055823 275.986303 
L 104.380803 276.726874 
L 105.030762 280.182874 
L 105.355741 281.170303 
L 105.680721 280.429731 
L 106.0057 279.195445 
L 106.33068 279.442303 
L 106.980639 282.651445 
L 107.305618 281.910874 
L 107.955577 277.96116 
L 108.280557 277.714303 
L 108.605536 278.948588 
L 108.930516 279.442303 
L 109.255495 278.454874 
L 109.580475 276.973731 
L 109.905455 276.973731 
L 110.555414 278.454874 
L 111.205373 276.726874 
L 111.530352 276.973731 
L 112.180311 279.68916 
L 112.505291 279.68916 
L 113.15525 277.220588 
L 113.480229 277.96116 
L 113.805209 279.68916 
L 114.130188 280.429731 
L 115.105127 278.208017 
L 115.755086 279.442303 
L 116.080066 279.442303 
L 116.405045 278.454874 
L 116.730025 277.96116 
L 117.055004 278.454874 
L 117.379984 279.195445 
L 117.704963 278.948588 
L 118.354922 277.220588 
L 118.679902 277.467445 
L 119.329861 279.195445 
L 119.65484 278.948588 
L 119.97982 277.96116 
L 120.304799 277.96116 
L 120.629779 278.208017 
L 120.954758 278.948588 
L 121.279738 279.195445 
L 121.604717 278.948588 
L 121.929697 278.454874 
L 122.254676 278.208017 
L 122.579656 278.948588 
L 122.904636 279.195445 
L 123.229615 278.948588 
L 123.554595 278.208017 
L 123.879574 277.96116 
L 124.529533 279.195445 
L 124.854513 279.195445 
L 125.179492 278.701731 
L 125.504472 277.96116 
L 125.829451 277.714303 
L 126.47941 278.948588 
L 126.80439 278.948588 
L 127.129369 278.454874 
L 127.454349 278.208017 
L 127.779328 278.208017 
L 128.104308 278.701731 
L 128.429287 278.948588 
L 128.754267 278.701731 
L 129.079247 278.208017 
L 129.404226 278.208017 
L 129.729206 278.701731 
L 130.054185 278.701731 
L 130.379165 278.948588 
L 131.029124 277.96116 
L 131.679083 278.948588 
L 132.004062 279.195445 
L 132.654021 278.208017 
L 132.979001 277.96116 
L 133.62896 278.948588 
L 134.603898 278.208017 
L 134.928878 278.454874 
L 135.253857 278.454874 
L 135.578837 278.948588 
L 135.903817 278.454874 
L 136.228796 278.208017 
L 136.553776 278.208017 
L 136.878755 278.948588 
L 137.203735 279.195445 
L 137.528714 278.948588 
L 137.853694 278.454874 
L 138.178673 278.208017 
L 138.503653 278.701731 
L 138.828632 278.948588 
L 139.803571 278.208017 
L 140.12855 278.701731 
L 140.45353 278.948588 
L 141.103489 278.948588 
L 141.428468 278.454874 
L 141.753448 278.208017 
L 142.078428 278.701731 
L 142.403407 278.948588 
L 143.053366 278.454874 
L 143.703325 278.454874 
L 144.028305 278.948588 
L 144.353284 278.701731 
L 145.003243 278.701731 
L 145.328223 278.454874 
L 145.653202 278.948588 
L 145.978182 278.948588 
L 146.628141 278.454874 
L 146.95312 278.701731 
L 147.2781 278.701731 
L 147.603079 278.948588 
L 148.253038 278.454874 
L 148.902998 278.454874 
L 149.227977 278.948588 
L 149.552957 278.948588 
L 149.877936 278.701731 
L 150.202916 278.701731 
L 150.527895 278.454874 
L 151.177854 278.948588 
L 151.827813 278.454874 
L 152.152793 278.454874 
L 152.477772 278.701731 
L 153.127731 279.936017 
L 153.452711 279.936017 
L 154.10267 280.429731 
L 154.427649 280.182874 
L 154.752629 279.442303 
L 155.077609 278.208017 
L 155.727568 274.258303 
L 157.677445 261.668588 
L 158.002424 260.434303 
L 159.627322 256.484588 
L 160.277281 256.484588 
L 160.92724 255.990874 
L 161.252219 256.237731 
L 161.577199 256.237731 
L 161.902179 256.731445 
L 162.227158 256.237731 
L 162.552138 256.237731 
L 162.877117 256.484588 
L 163.202097 256.978303 
L 163.527076 257.22516 
L 164.177035 258.459445 
L 164.826994 258.95316 
L 165.151974 259.446874 
L 165.476953 259.446874 
L 165.801933 259.693731 
L 166.451892 259.693731 
L 167.101851 260.187445 
L 167.42683 259.940588 
L 167.75181 260.187445 
L 168.07679 260.187445 
L 168.401769 259.940588 
L 168.726749 259.940588 
L 169.701687 259.200017 
L 170.026667 259.200017 
L 171.001605 258.459445 
L 171.326585 258.706303 
L 171.651564 258.706303 
L 171.976544 258.95316 
L 172.301523 258.95316 
L 172.626503 258.706303 
L 172.951482 258.95316 
L 173.276462 258.459445 
L 174.90136 258.459445 
L 175.226339 258.706303 
L 175.876298 258.706303 
L 176.201278 258.95316 
L 176.526257 258.95316 
L 176.851237 258.706303 
L 177.176216 258.95316 
L 177.501196 258.95316 
L 177.826175 258.706303 
L 178.476134 258.706303 
L 178.801114 258.95316 
L 179.126093 258.95316 
L 179.776052 259.446874 
L 180.426011 258.95316 
L 180.750991 259.200017 
L 181.075971 258.95316 
L 181.40095 258.95316 
L 181.72593 258.706303 
L 182.375889 258.706303 
L 182.700868 259.200017 
L 183.025848 258.706303 
L 183.350827 258.95316 
L 184.975725 258.95316 
L 185.300704 258.706303 
L 185.625684 258.95316 
L 185.950663 258.706303 
L 186.275643 258.706303 
L 186.600622 258.95316 
L 186.925602 258.95316 
L 187.250581 259.200017 
L 187.575561 259.200017 
L 187.900541 258.95316 
L 189.200459 258.95316 
L 189.525438 258.706303 
L 189.850418 258.95316 
L 191.475315 266.112017 
L 192.125274 271.542874 
L 193.100213 283.14516 
L 193.425192 285.613731 
L 194.075152 288.082303 
L 194.400131 288.822874 
L 194.725111 289.069731 
L 195.05009 289.069731 
L 195.37507 287.835445 
L 195.700049 285.366874 
L 196.350008 278.454874 
L 196.674988 276.726874 
L 197.324947 276.23316 
L 197.649926 275.492588 
L 198.299885 272.530303 
L 198.624865 272.530303 
L 199.274824 275.492588 
L 199.599803 275.986303 
L 199.924783 276.23316 
L 200.249762 276.726874 
L 201.224701 281.41716 
L 201.549681 280.676588 
L 201.87466 279.195445 
L 202.19964 279.195445 
L 202.849599 282.157731 
L 203.174578 281.910874 
L 203.824537 277.714303 
L 204.149517 277.467445 
L 204.474496 278.948588 
L 204.799476 279.442303 
L 205.124455 278.454874 
L 205.449435 276.973731 
L 205.774414 276.726874 
L 206.424373 278.454874 
L 207.074333 276.973731 
L 207.399312 276.726874 
L 208.049271 279.442303 
L 208.374251 279.68916 
L 209.02421 277.220588 
L 209.349189 278.208017 
L 209.999148 280.676588 
L 210.324128 279.936017 
L 210.649107 278.701731 
L 210.974087 278.454874 
L 211.299066 278.948588 
L 211.624046 279.68916 
L 211.949025 279.195445 
L 212.598984 277.96116 
L 212.923964 278.454874 
L 213.248943 279.195445 
L 213.573923 279.195445 
L 214.223882 277.220588 
L 214.548862 277.467445 
L 214.873841 278.701731 
L 215.198821 279.442303 
L 215.5238 278.948588 
L 215.84878 277.96116 
L 216.173759 277.714303 
L 216.498739 278.208017 
L 217.148698 279.442303 
L 217.473677 279.195445 
L 217.798657 278.454874 
L 218.123636 278.454874 
L 218.448616 278.948588 
L 219.098575 278.948588 
L 219.423554 278.208017 
L 219.748534 277.96116 
L 220.073514 278.454874 
L 220.398493 279.195445 
L 220.723473 279.195445 
L 221.048452 278.701731 
L 221.373432 277.96116 
L 221.698411 277.714303 
L 222.34837 279.195445 
L 222.67335 278.948588 
L 222.998329 278.454874 
L 223.323309 278.208017 
L 223.648288 278.208017 
L 223.973268 278.948588 
L 224.298247 278.948588 
L 224.623227 278.454874 
L 224.948206 278.208017 
L 225.273186 278.454874 
L 225.598165 278.948588 
L 225.923145 278.948588 
L 226.898084 278.208017 
L 227.548043 278.701731 
L 227.873022 279.195445 
L 228.522981 278.208017 
L 228.847961 277.96116 
L 229.17294 278.701731 
L 229.49792 278.948588 
L 230.472858 278.208017 
L 231.122817 278.701731 
L 231.447797 278.701731 
L 231.772776 278.454874 
L 232.097756 278.454874 
L 232.422735 278.208017 
L 232.747715 278.948588 
L 233.072695 278.948588 
L 233.397674 278.701731 
L 233.722654 278.208017 
L 234.047633 277.96116 
L 234.372613 278.701731 
L 234.697592 278.948588 
L 235.022572 278.948588 
L 235.672531 277.96116 
L 235.99751 278.454874 
L 236.32249 278.701731 
L 236.647469 278.701731 
L 236.972449 278.454874 
L 237.297428 278.454874 
L 237.622408 278.701731 
L 238.922326 278.701731 
L 239.247305 278.454874 
L 239.897265 278.948588 
L 240.222244 278.701731 
L 240.547224 278.701731 
L 240.872203 278.454874 
L 241.197183 278.701731 
L 241.522162 278.454874 
L 241.847142 278.701731 
L 242.172121 278.701731 
L 242.497101 278.454874 
L 242.82208 278.701731 
L 244.121998 278.701731 
L 244.446978 278.208017 
L 244.771957 278.701731 
L 245.096937 278.948588 
L 245.421916 278.948588 
L 245.746896 278.454874 
L 246.071876 278.701731 
L 248.021753 278.701731 
L 248.346732 278.948588 
L 249.321671 280.429731 
L 249.64665 280.182874 
L 249.97163 280.429731 
L 250.296609 280.429731 
L 250.621589 279.68916 
L 251.271548 276.480017 
L 253.221425 263.643445 
L 253.871384 260.434303 
L 254.196364 259.940588 
L 255.171302 256.978303 
L 255.496282 256.731445 
L 255.821261 256.237731 
L 256.146241 256.484588 
L 256.47122 256.237731 
L 256.7962 256.237731 
L 257.121179 255.990874 
L 257.771138 256.484588 
L 258.096118 256.237731 
L 259.071057 256.978303 
L 259.721016 257.965731 
L 260.045995 258.212588 
L 260.370975 258.706303 
L 261.345913 259.446874 
L 261.670893 259.446874 
L 262.320852 259.940588 
L 262.645831 259.940588 
L 262.970811 260.187445 
L 263.29579 259.940588 
L 263.945749 260.434303 
L 264.920688 259.693731 
L 265.245667 259.200017 
L 265.570647 259.446874 
L 265.895627 259.446874 
L 266.220606 258.95316 
L 267.195545 258.95316 
L 267.520524 258.706303 
L 267.845504 258.95316 
L 268.495463 258.95316 
L 268.820442 258.706303 
L 269.145422 258.706303 
L 269.470401 258.459445 
L 269.795381 258.706303 
L 270.12036 258.212588 
L 270.44534 258.212588 
L 271.095299 258.706303 
L 272.070238 258.706303 
L 272.395217 258.95316 
L 272.720197 258.706303 
L 273.045176 258.706303 
L 273.695135 259.200017 
L 274.020115 258.706303 
L 274.345094 258.706303 
L 274.670074 258.95316 
L 274.995053 258.95316 
L 275.320033 259.200017 
L 275.645012 258.95316 
L 275.969992 258.95316 
L 276.294971 259.200017 
L 276.619951 258.95316 
L 276.94493 258.95316 
L 277.26991 258.706303 
L 277.594889 258.95316 
L 277.919869 258.459445 
L 278.894808 259.200017 
L 279.544767 258.706303 
L 280.194726 258.706303 
L 280.519705 258.95316 
L 280.844685 258.95316 
L 281.169664 258.706303 
L 281.494644 258.706303 
L 281.819623 258.459445 
L 282.144603 258.95316 
L 282.469582 258.95316 
L 282.794562 259.200017 
L 283.119541 258.95316 
L 283.444521 259.200017 
L 284.419459 259.200017 
L 284.744439 258.95316 
L 285.069419 258.95316 
L 285.394398 258.706303 
L 285.719378 259.200017 
L 286.044357 260.187445 
L 286.694316 263.890303 
L 287.019296 264.384017 
L 287.669255 268.333731 
L 288.319214 275.245731 
L 288.969173 283.14516 
L 289.619132 287.341731 
L 289.944111 287.835445 
L 290.59407 289.069731 
L 290.91905 289.069731 
L 291.244029 287.588588 
L 291.569009 285.120017 
L 292.218968 278.454874 
L 292.543948 276.726874 
L 292.868927 276.23316 
L 293.193907 276.480017 
L 293.518886 275.739445 
L 294.168845 272.530303 
L 294.493825 272.77716 
L 294.818804 274.011445 
L 295.143784 275.739445 
L 295.468763 275.739445 
L 296.118722 276.23316 
L 296.443702 277.96116 
L 296.768681 280.429731 
L 297.093661 281.41716 
L 297.74362 279.195445 
L 298.0686 279.442303 
L 298.718559 282.404588 
L 299.043538 281.910874 
L 299.693497 277.714303 
L 300.018477 277.96116 
L 300.343456 278.948588 
L 300.668436 279.442303 
L 300.993415 278.948588 
L 301.318395 277.220588 
L 301.643374 276.726874 
L 302.293333 278.454874 
L 302.943292 276.726874 
L 303.268272 276.726874 
L 303.918231 279.936017 
L 304.24321 279.936017 
L 304.89317 277.467445 
L 305.218149 278.208017 
L 305.868108 280.676588 
L 306.193088 279.936017 
L 306.518067 278.701731 
L 306.843047 277.96116 
L 307.493006 279.68916 
L 307.817985 279.195445 
L 308.142965 278.208017 
L 308.467944 277.96116 
L 308.792924 278.454874 
L 309.117903 279.195445 
L 309.442883 278.948588 
L 310.092842 277.467445 
L 310.417821 277.467445 
L 310.742801 278.701731 
L 311.067781 279.442303 
L 311.39276 278.948588 
L 312.042719 277.714303 
L 312.367699 278.208017 
L 312.692678 279.195445 
L 313.017658 279.195445 
L 313.342637 278.701731 
L 313.667617 278.454874 
L 313.992596 278.454874 
L 314.317576 278.948588 
L 314.642555 278.948588 
L 315.617494 278.208017 
L 315.942473 278.701731 
L 316.267453 279.442303 
L 316.592432 279.442303 
L 317.242391 277.96116 
L 317.567371 277.714303 
L 317.892351 278.701731 
L 318.21733 279.195445 
L 318.54231 278.948588 
L 318.867289 278.454874 
L 319.192269 278.208017 
L 320.167207 278.948588 
L 320.817166 278.454874 
L 321.142146 278.454874 
L 321.792105 278.948588 
L 322.117084 278.701731 
L 322.442064 277.96116 
L 322.767043 278.208017 
L 323.092023 278.701731 
L 323.741982 279.195445 
L 324.391941 278.208017 
L 324.716921 277.96116 
L 325.0419 278.208017 
L 325.36688 279.195445 
L 326.016839 278.701731 
L 326.341818 278.208017 
L 326.991777 278.701731 
L 327.641736 278.208017 
L 328.291695 278.701731 
L 328.616675 278.701731 
L 328.941654 278.948588 
L 329.591613 278.454874 
L 330.241572 278.454874 
L 330.566552 278.948588 
L 330.891532 278.948588 
L 331.541491 278.454874 
L 331.86647 278.454874 
L 332.516429 278.948588 
L 332.841409 278.701731 
L 334.141327 278.701731 
L 334.466306 279.195445 
L 334.791286 278.948588 
L 335.116265 278.454874 
L 335.441245 278.454874 
L 335.766224 278.948588 
L 336.091204 278.948588 
L 336.416183 278.701731 
L 336.741163 278.701731 
L 337.066143 278.948588 
L 337.391122 278.701731 
L 337.716102 278.948588 
L 338.041081 278.701731 
L 338.366061 278.948588 
L 338.69104 278.701731 
L 339.01602 278.948588 
L 339.340999 278.948588 
L 339.665979 278.701731 
L 340.640917 278.701731 
L 340.965897 278.948588 
L 341.290876 278.701731 
L 342.265815 278.701731 
L 342.590794 278.948588 
L 342.915774 278.948588 
L 343.240753 278.454874 
L 343.565733 278.701731 
L 343.890713 278.701731 
L 344.215692 278.948588 
L 344.865651 279.936017 
L 345.51561 280.429731 
L 346.165569 280.429731 
L 346.815528 278.208017 
L 347.465487 274.258303 
L 348.115446 269.814874 
L 349.415364 261.668588 
L 350.065324 259.693731 
L 350.390303 259.200017 
L 351.040262 256.978303 
L 351.365242 256.731445 
L 351.690221 256.731445 
L 352.015201 256.237731 
L 352.34018 256.237731 
L 352.66516 255.990874 
L 352.990139 256.484588 
L 353.315119 256.484588 
L 353.640098 256.237731 
L 353.965078 256.731445 
L 354.290057 256.731445 
L 354.615037 256.484588 
L 354.940016 257.22516 
L 355.264996 257.472017 
L 355.589975 258.212588 
L 355.914955 258.212588 
L 356.239934 258.706303 
L 356.889894 259.200017 
L 357.214873 259.693731 
L 357.864832 259.693731 
L 358.189812 260.187445 
L 358.514791 259.940588 
L 359.814709 259.940588 
L 360.139689 260.187445 
L 360.464668 260.187445 
L 360.789648 259.940588 
L 361.114627 259.446874 
L 361.439607 259.200017 
L 361.764586 259.446874 
L 362.414545 258.95316 
L 362.739525 258.459445 
L 363.064505 258.706303 
L 363.389484 258.706303 
L 363.714464 259.200017 
L 364.039443 258.706303 
L 364.364423 258.95316 
L 364.689402 258.706303 
L 365.014382 258.706303 
L 365.339361 258.459445 
L 365.98932 258.459445 
L 366.3143 258.212588 
L 367.289238 258.95316 
L 367.614218 258.706303 
L 367.939197 258.95316 
L 368.264177 258.706303 
L 368.589156 258.95316 
L 368.914136 258.95316 
L 369.239115 258.706303 
L 369.564095 258.95316 
L 369.889075 258.95316 
L 370.214054 258.706303 
L 370.539034 259.200017 
L 370.864013 258.95316 
L 371.188993 259.200017 
L 371.838952 259.200017 
L 372.163931 259.446874 
L 372.488911 259.200017 
L 372.81389 258.706303 
L 373.13887 258.706303 
L 373.463849 258.95316 
L 374.438788 258.95316 
L 374.763767 259.200017 
L 375.088747 259.200017 
L 375.413726 258.706303 
L 375.738706 258.95316 
L 376.713645 258.95316 
L 377.038624 258.706303 
L 377.688583 258.706303 
L 378.013563 258.95316 
L 378.338542 258.95316 
L 378.663522 259.200017 
L 378.988501 259.200017 
L 379.63846 258.706303 
L 380.288419 259.200017 
L 381.263358 258.459445 
L 381.588337 259.200017 
L 382.238296 261.915445 
L 383.213235 266.112017 
L 383.863194 271.542874 
L 384.838133 282.898303 
L 385.163112 285.613731 
L 385.813071 288.082303 
L 386.46303 289.069731 
L 386.78801 289.069731 
L 387.112989 287.835445 
L 387.762948 281.910874 
L 388.087928 278.701731 
L 388.412907 276.726874 
L 388.737887 276.23316 
L 389.062867 275.986303 
L 389.387846 275.492588 
L 390.037805 272.283445 
L 390.362785 272.530303 
L 391.012744 275.245731 
L 391.337723 275.986303 
L 391.662703 275.986303 
L 391.987682 276.480017 
L 392.962621 281.41716 
L 393.61258 279.195445 
L 393.937559 279.195445 
L 394.587518 282.404588 
L 394.912498 282.157731 
L 395.562457 277.714303 
L 395.887437 277.714303 
L 396.212416 278.948588 
L 396.537396 279.442303 
L 397.512334 276.726874 
L 398.162293 278.454874 
L 398.487273 277.714303 
L 398.487273 277.714303 
" clip-path="url(#p61149ca37a)" style="fill: none; stroke: #ff7f0e; stroke-width: 1.5; stroke-linecap: square"/>
   </g>
   <g id="line2d_15">
    <path d="M 73.832727 100.470857 
L 74.157707 102.939429 
L 74.482686 107.876571 
L 74.807666 102.939429 
L 75.132645 100.470857 
L 75.457625 100.470857 
L 75.782604 102.939429 
L 76.107584 110.345143 
L 76.432563 107.876571 
L 76.757543 107.876571 
L 77.407502 95.533714 
L 77.732482 100.470857 
L 78.382441 105.408 
L 78.70742 105.408 
L 79.0324 95.533714 
L 79.357379 90.596571 
L 80.007338 95.533714 
L 80.332318 93.065143 
L 80.657297 93.065143 
L 80.982277 88.128 
L 81.307256 93.065143 
L 81.632236 90.596571 
L 81.957215 93.065143 
L 82.607174 80.722286 
L 82.932154 80.722286 
L 83.907093 88.128 
L 84.232072 78.253714 
L 84.557052 73.316571 
L 85.207011 73.316571 
L 85.85697 78.253714 
L 86.181949 78.253714 
L 86.506929 75.785143 
L 86.831908 70.848 
L 87.481867 75.785143 
L 87.806847 75.785143 
L 88.456806 70.848 
L 89.106765 75.785143 
L 89.431744 75.785143 
L 89.756724 73.316571 
L 90.406683 73.316571 
L 90.731663 75.785143 
L 91.056642 85.659429 
L 91.381622 90.596571 
L 92.031581 85.659429 
L 92.68154 90.596571 
L 93.331499 102.939429 
L 93.656478 100.470857 
L 93.981458 102.939429 
L 94.306437 107.876571 
L 94.631417 107.876571 
L 95.281376 120.219429 
L 95.606355 122.688 
L 95.931335 122.688 
L 96.256314 132.562286 
L 97.231253 147.373714 
L 97.881212 152.310857 
L 99.18113 181.933714 
L 99.50611 181.933714 
L 99.831089 184.402286 
L 100.806028 204.150857 
L 101.131007 209.088 
L 101.455987 216.493714 
L 101.780966 218.962286 
L 102.105946 228.836571 
L 102.430925 228.836571 
L 103.080885 241.179429 
L 103.405864 243.648 
L 104.055823 255.990857 
L 104.380803 260.928 
L 104.705782 263.396571 
L 105.030762 263.396571 
L 105.355741 268.333714 
L 105.680721 275.739429 
L 107.305618 288.082286 
L 107.630598 288.082286 
L 107.955577 293.019429 
L 108.605536 293.019429 
L 108.930516 288.082286 
L 109.580475 288.082286 
L 109.905455 290.550857 
L 110.230434 285.613714 
L 110.555414 283.145143 
L 110.880393 285.613714 
L 111.205373 283.145143 
L 111.530352 285.613714 
L 112.180311 285.613714 
L 112.505291 288.082286 
L 112.83027 285.613714 
L 113.15525 288.082286 
L 113.480229 285.613714 
L 113.805209 288.082286 
L 114.455168 288.082286 
L 114.780147 285.613714 
L 115.105127 288.082286 
L 115.430106 280.676571 
L 116.730025 280.676571 
L 117.704963 288.082286 
L 118.029943 280.676571 
L 118.354922 285.613714 
L 119.329861 285.613714 
L 119.65484 288.082286 
L 119.97982 285.613714 
L 120.304799 285.613714 
L 120.629779 280.676571 
L 121.279738 285.613714 
L 121.604717 285.613714 
L 122.579656 278.208 
L 122.904636 283.145143 
L 123.229615 280.676571 
L 123.554595 285.613714 
L 123.879574 283.145143 
L 124.529533 283.145143 
L 124.854513 285.613714 
L 125.179492 285.613714 
L 125.504472 288.082286 
L 125.829451 283.145143 
L 126.154431 283.145143 
L 126.47941 285.613714 
L 126.80439 283.145143 
L 127.454349 283.145143 
L 127.779328 285.613714 
L 128.104308 285.613714 
L 128.429287 283.145143 
L 128.754267 285.613714 
L 129.729206 285.613714 
L 130.054185 288.082286 
L 130.704144 288.082286 
L 131.354103 283.145143 
L 131.679083 285.613714 
L 132.979001 285.613714 
L 133.30398 283.145143 
L 133.62896 283.145143 
L 134.278919 288.082286 
L 134.603898 285.613714 
L 135.253857 285.613714 
L 135.578837 288.082286 
L 135.903817 288.082286 
L 136.553776 283.145143 
L 137.203735 288.082286 
L 137.528714 285.613714 
L 137.853694 288.082286 
L 138.503653 288.082286 
L 138.828632 283.145143 
L 139.153612 290.550857 
L 139.478591 288.082286 
L 141.103489 288.082286 
L 141.428468 283.145143 
L 142.078428 288.082286 
L 142.728387 283.145143 
L 143.053366 285.613714 
L 143.703325 285.613714 
L 144.028305 280.676571 
L 144.353284 280.676571 
L 144.678264 270.802286 
L 145.003243 265.865143 
L 145.978182 233.773714 
L 146.303161 231.305143 
L 146.628141 226.368 
L 146.95312 226.368 
L 147.2781 221.430857 
L 147.928059 181.933714 
L 148.253038 174.528 
L 148.578018 174.528 
L 148.902998 186.870857 
L 149.227977 184.402286 
L 149.552957 169.590857 
L 150.202916 122.688 
L 150.527895 120.219429 
L 151.177854 149.842286 
L 151.502834 142.436571 
L 152.152793 93.065143 
L 152.477772 90.596571 
L 153.127731 102.939429 
L 153.452711 98.002286 
L 153.77769 85.659429 
L 154.10267 85.659429 
L 154.427649 88.128 
L 154.752629 93.065143 
L 155.077609 83.190857 
L 155.402588 68.379429 
L 155.727568 60.973714 
L 156.052547 68.379429 
L 156.377527 80.722286 
L 156.702506 88.128 
L 157.352465 63.442286 
L 157.677445 56.036571 
L 158.002424 58.505143 
L 158.327404 63.442286 
L 158.652383 70.848 
L 158.977363 70.848 
L 159.302342 73.316571 
L 159.627322 68.379429 
L 159.952301 65.910857 
L 160.277281 60.973714 
L 160.60226 63.442286 
L 160.92724 68.379429 
L 161.577199 80.722286 
L 161.902179 78.253714 
L 162.227158 70.848 
L 162.552138 73.316571 
L 162.877117 78.253714 
L 163.202097 80.722286 
L 163.527076 78.253714 
L 163.852056 78.253714 
L 164.177035 83.190857 
L 164.502015 90.596571 
L 164.826994 90.596571 
L 165.151974 88.128 
L 165.476953 80.722286 
L 165.801933 83.190857 
L 166.776871 105.408 
L 167.101851 102.939429 
L 167.42683 90.596571 
L 167.75181 88.128 
L 168.07679 93.065143 
L 168.401769 105.408 
L 169.051728 105.408 
L 169.376708 100.470857 
L 169.701687 102.939429 
L 170.026667 102.939429 
L 170.351646 110.345143 
L 171.001605 100.470857 
L 171.326585 100.470857 
L 171.651564 102.939429 
L 172.301523 112.813714 
L 172.626503 102.939429 
L 172.951482 98.002286 
L 173.276462 100.470857 
L 173.601441 98.002286 
L 173.926421 100.470857 
L 174.2514 105.408 
L 174.57638 100.470857 
L 174.90136 98.002286 
L 175.226339 90.596571 
L 175.551319 95.533714 
L 175.876298 93.065143 
L 176.201278 98.002286 
L 176.526257 93.065143 
L 176.851237 90.596571 
L 177.176216 90.596571 
L 177.501196 95.533714 
L 177.826175 88.128 
L 178.151155 85.659429 
L 178.476134 80.722286 
L 178.801114 78.253714 
L 179.126093 78.253714 
L 179.451073 85.659429 
L 179.776052 85.659429 
L 180.101032 83.190857 
L 180.426011 73.316571 
L 181.075971 73.316571 
L 181.40095 78.253714 
L 181.72593 78.253714 
L 182.050909 75.785143 
L 182.375889 70.848 
L 182.700868 70.848 
L 183.025848 68.379429 
L 183.675807 73.316571 
L 184.000786 73.316571 
L 184.325766 70.848 
L 184.650745 75.785143 
L 184.975725 75.785143 
L 185.300704 78.253714 
L 185.625684 73.316571 
L 186.275643 73.316571 
L 186.925602 83.190857 
L 187.250581 85.659429 
L 187.575561 85.659429 
L 187.900541 88.128 
L 188.22552 85.659429 
L 189.200459 100.470857 
L 189.525438 100.470857 
L 190.175397 105.408 
L 190.500377 112.813714 
L 190.825356 112.813714 
L 191.150336 120.219429 
L 191.475315 122.688 
L 191.800295 130.093714 
L 192.125274 130.093714 
L 192.450254 135.030857 
L 193.100213 147.373714 
L 193.425192 149.842286 
L 193.750172 149.842286 
L 194.075152 162.185143 
L 194.725111 172.059429 
L 195.05009 179.465143 
L 195.37507 181.933714 
L 195.700049 189.339429 
L 196.025029 189.339429 
L 196.674988 206.619429 
L 197.974906 226.368 
L 198.299885 233.773714 
L 198.624865 231.305143 
L 199.274824 246.116571 
L 199.599803 248.585143 
L 200.249762 258.459429 
L 200.574742 260.928 
L 200.899722 265.865143 
L 201.224701 268.333714 
L 201.549681 273.270857 
L 201.87466 275.739429 
L 202.19964 280.676571 
L 203.174578 288.082286 
L 203.499558 293.019429 
L 203.824537 290.550857 
L 204.149517 293.019429 
L 204.474496 293.019429 
L 204.799476 288.082286 
L 206.099394 288.082286 
L 206.424373 283.145143 
L 206.749353 285.613714 
L 207.074333 285.613714 
L 207.399312 280.676571 
L 207.724292 283.145143 
L 208.049271 288.082286 
L 208.69923 288.082286 
L 209.02421 285.613714 
L 209.349189 285.613714 
L 209.674169 288.082286 
L 210.324128 283.145143 
L 210.649107 283.145143 
L 210.974087 280.676571 
L 211.299066 280.676571 
L 211.624046 278.208 
L 211.949025 283.145143 
L 212.598984 283.145143 
L 212.923964 280.676571 
L 213.248943 283.145143 
L 213.573923 283.145143 
L 213.898903 288.082286 
L 214.223882 283.145143 
L 214.548862 283.145143 
L 214.873841 285.613714 
L 215.5238 285.613714 
L 215.84878 288.082286 
L 216.173759 288.082286 
L 216.823718 278.208 
L 217.148698 285.613714 
L 218.123636 278.208 
L 219.098575 285.613714 
L 219.423554 285.613714 
L 219.748534 283.145143 
L 220.073514 285.613714 
L 220.398493 283.145143 
L 220.723473 283.145143 
L 221.048452 288.082286 
L 221.373432 288.082286 
L 221.698411 285.613714 
L 222.023391 280.676571 
L 222.34837 285.613714 
L 222.67335 285.613714 
L 222.998329 288.082286 
L 223.323309 285.613714 
L 224.298247 285.613714 
L 224.623227 283.145143 
L 225.598165 283.145143 
L 225.923145 280.676571 
L 226.248124 285.613714 
L 226.573104 285.613714 
L 226.898084 288.082286 
L 227.223063 283.145143 
L 227.548043 285.613714 
L 227.873022 283.145143 
L 228.198002 288.082286 
L 228.522981 285.613714 
L 229.17294 285.613714 
L 229.49792 288.082286 
L 229.822899 283.145143 
L 230.147879 283.145143 
L 230.472858 285.613714 
L 230.797838 283.145143 
L 231.122817 283.145143 
L 231.447797 288.082286 
L 232.097756 288.082286 
L 232.422735 283.145143 
L 232.747715 285.613714 
L 233.072695 283.145143 
L 233.397674 288.082286 
L 233.722654 288.082286 
L 234.047633 290.550857 
L 234.372613 290.550857 
L 235.022572 285.613714 
L 235.347551 288.082286 
L 235.672531 288.082286 
L 236.32249 283.145143 
L 236.647469 288.082286 
L 237.297428 288.082286 
L 237.622408 285.613714 
L 239.897265 285.613714 
L 241.197183 253.522286 
L 241.847142 231.305143 
L 242.172121 228.836571 
L 242.497101 231.305143 
L 242.82208 226.368 
L 243.14706 218.962286 
L 243.797019 181.933714 
L 244.121998 172.059429 
L 244.446978 176.996571 
L 244.771957 186.870857 
L 245.096937 189.339429 
L 246.071876 120.219429 
L 246.396855 120.219429 
L 247.046814 149.842286 
L 247.371794 142.436571 
L 248.021753 95.533714 
L 248.346732 93.065143 
L 248.671712 98.002286 
L 248.996691 105.408 
L 249.321671 98.002286 
L 249.64665 85.659429 
L 249.97163 80.722286 
L 250.296609 88.128 
L 250.621589 88.128 
L 250.946568 80.722286 
L 251.596527 56.036571 
L 251.921507 63.442286 
L 252.246486 78.253714 
L 252.571466 85.659429 
L 252.896446 75.785143 
L 253.221425 58.505143 
L 253.546405 56.036571 
L 253.871384 58.505143 
L 254.521343 68.379429 
L 254.846323 68.379429 
L 255.171302 70.848 
L 255.496282 70.848 
L 256.146241 58.505143 
L 256.47122 58.505143 
L 257.446159 78.253714 
L 258.096118 73.316571 
L 258.421097 68.379429 
L 259.071057 78.253714 
L 259.396036 78.253714 
L 259.721016 80.722286 
L 260.045995 80.722286 
L 260.370975 88.128 
L 260.695954 90.596571 
L 261.020934 85.659429 
L 261.345913 78.253714 
L 261.670893 80.722286 
L 262.645831 107.876571 
L 262.970811 102.939429 
L 263.29579 93.065143 
L 263.62077 88.128 
L 264.595708 107.876571 
L 264.920688 105.408 
L 265.245667 98.002286 
L 265.570647 100.470857 
L 265.895627 107.876571 
L 266.220606 105.408 
L 266.545586 105.408 
L 266.870565 100.470857 
L 267.195545 98.002286 
L 267.520524 102.939429 
L 267.845504 112.813714 
L 268.170483 112.813714 
L 268.495463 107.876571 
L 268.820442 95.533714 
L 269.145422 95.533714 
L 269.470401 98.002286 
L 269.795381 105.408 
L 270.12036 107.876571 
L 270.770319 93.065143 
L 271.420278 93.065143 
L 271.745258 95.533714 
L 272.070238 95.533714 
L 272.720197 85.659429 
L 273.045176 88.128 
L 273.370156 93.065143 
L 273.695135 93.065143 
L 274.345094 80.722286 
L 274.670074 75.785143 
L 274.995053 80.722286 
L 275.645012 85.659429 
L 276.294971 70.848 
L 276.619951 68.379429 
L 276.94493 70.848 
L 277.26991 75.785143 
L 277.594889 75.785143 
L 277.919869 70.848 
L 278.244848 75.785143 
L 278.569828 70.848 
L 278.894808 73.316571 
L 279.219787 70.848 
L 279.544767 73.316571 
L 279.869746 70.848 
L 280.194726 73.316571 
L 280.519705 73.316571 
L 280.844685 75.785143 
L 281.494644 75.785143 
L 281.819623 73.316571 
L 282.144603 73.316571 
L 282.469582 78.253714 
L 283.119541 83.190857 
L 283.444521 88.128 
L 284.419459 88.128 
L 284.744439 95.533714 
L 285.069419 95.533714 
L 285.394398 100.470857 
L 285.719378 100.470857 
L 286.044357 102.939429 
L 286.694316 115.282286 
L 287.019296 115.282286 
L 287.344275 122.688 
L 287.994234 127.625143 
L 288.319214 132.562286 
L 289.294152 152.310857 
L 289.619132 152.310857 
L 289.944111 157.248 
L 290.91905 176.996571 
L 291.244029 179.465143 
L 292.218968 194.276571 
L 292.868927 211.556571 
L 293.193907 214.025143 
L 293.518886 218.962286 
L 294.493825 238.710857 
L 294.818804 236.242286 
L 295.143784 246.116571 
L 295.793743 255.990857 
L 296.118722 255.990857 
L 296.443702 263.396571 
L 297.41864 270.802286 
L 298.0686 285.613714 
L 298.393579 285.613714 
L 298.718559 283.145143 
L 299.043538 290.550857 
L 299.693497 295.488 
L 300.018477 288.082286 
L 300.343456 290.550857 
L 301.318395 290.550857 
L 301.643374 288.082286 
L 302.293333 288.082286 
L 302.618313 285.613714 
L 303.268272 285.613714 
L 303.593251 283.145143 
L 303.918231 283.145143 
L 304.24321 290.550857 
L 304.89317 290.550857 
L 305.218149 283.145143 
L 305.543129 285.613714 
L 306.843047 285.613714 
L 307.168026 283.145143 
L 307.493006 283.145143 
L 307.817985 280.676571 
L 308.792924 280.676571 
L 309.442883 285.613714 
L 310.092842 285.613714 
L 310.417821 280.676571 
L 310.742801 283.145143 
L 311.067781 283.145143 
L 311.39276 288.082286 
L 312.042719 288.082286 
L 312.367699 285.613714 
L 312.692678 285.613714 
L 313.017658 283.145143 
L 313.667617 283.145143 
L 313.992596 280.676571 
L 314.317576 280.676571 
L 315.292514 288.082286 
L 315.617494 280.676571 
L 315.942473 285.613714 
L 316.267453 283.145143 
L 316.592432 288.082286 
L 317.567371 288.082286 
L 318.21733 283.145143 
L 318.867289 288.082286 
L 319.517248 283.145143 
L 319.842228 283.145143 
L 320.167207 288.082286 
L 320.492187 288.082286 
L 320.817166 283.145143 
L 321.142146 285.613714 
L 321.467125 285.613714 
L 322.117084 290.550857 
L 322.442064 290.550857 
L 322.767043 285.613714 
L 323.092023 285.613714 
L 323.417002 283.145143 
L 324.066962 288.082286 
L 324.391941 283.145143 
L 324.716921 283.145143 
L 325.0419 285.613714 
L 325.36688 285.613714 
L 326.016839 280.676571 
L 326.341818 283.145143 
L 326.666798 280.676571 
L 327.641736 288.082286 
L 327.966716 285.613714 
L 328.616675 285.613714 
L 328.941654 283.145143 
L 329.266634 285.613714 
L 329.591613 285.613714 
L 329.916593 283.145143 
L 330.241572 283.145143 
L 330.891532 288.082286 
L 331.216511 285.613714 
L 331.541491 288.082286 
L 331.86647 285.613714 
L 332.19145 288.082286 
L 332.516429 283.145143 
L 332.841409 288.082286 
L 333.166388 285.613714 
L 333.491368 288.082286 
L 334.141327 283.145143 
L 334.466306 288.082286 
L 334.791286 288.082286 
L 335.116265 285.613714 
L 335.441245 288.082286 
L 335.766224 285.613714 
L 336.091204 280.676571 
L 336.416183 268.333714 
L 336.741163 263.396571 
L 337.066143 251.053714 
L 337.391122 243.648 
L 337.716102 231.305143 
L 338.041081 226.368 
L 338.69104 231.305143 
L 339.990958 172.059429 
L 340.315938 174.528 
L 340.640917 189.339429 
L 340.965897 189.339429 
L 341.290876 172.059429 
L 341.615856 139.968 
L 341.940835 122.688 
L 342.265815 117.750857 
L 342.915774 149.842286 
L 343.240753 142.436571 
L 343.890713 98.002286 
L 344.215692 90.596571 
L 344.865651 107.876571 
L 345.51561 85.659429 
L 345.84059 83.190857 
L 346.165569 90.596571 
L 346.490549 93.065143 
L 347.465487 58.505143 
L 348.440426 85.659429 
L 349.415364 53.568 
L 349.740344 56.036571 
L 350.390303 68.379429 
L 350.715283 68.379429 
L 351.040262 75.785143 
L 351.365242 70.848 
L 351.690221 68.379429 
L 352.015201 60.973714 
L 352.34018 60.973714 
L 353.315119 80.722286 
L 353.640098 78.253714 
L 353.965078 70.848 
L 354.615037 75.785143 
L 354.940016 80.722286 
L 355.264996 80.722286 
L 355.589975 78.253714 
L 355.914955 83.190857 
L 356.239934 90.596571 
L 356.889894 90.596571 
L 357.214873 80.722286 
L 357.539853 80.722286 
L 357.864832 85.659429 
L 358.189812 100.470857 
L 358.514791 105.408 
L 358.839771 100.470857 
L 359.16475 90.596571 
L 359.48973 88.128 
L 359.814709 90.596571 
L 360.139689 102.939429 
L 360.464668 107.876571 
L 361.114627 98.002286 
L 361.439607 98.002286 
L 362.089566 110.345143 
L 362.414545 102.939429 
L 363.064505 98.002286 
L 363.389484 102.939429 
L 363.714464 112.813714 
L 364.039443 112.813714 
L 365.014382 93.065143 
L 365.339361 98.002286 
L 365.664341 107.876571 
L 366.3143 98.002286 
L 366.964259 93.065143 
L 367.289238 95.533714 
L 367.614218 93.065143 
L 367.939197 95.533714 
L 368.264177 90.596571 
L 368.589156 88.128 
L 368.914136 90.596571 
L 369.239115 90.596571 
L 369.889075 85.659429 
L 370.214054 80.722286 
L 370.539034 78.253714 
L 370.864013 83.190857 
L 371.188993 85.659429 
L 371.513972 83.190857 
L 372.163931 73.316571 
L 372.488911 70.848 
L 372.81389 73.316571 
L 373.13887 78.253714 
L 373.463849 75.785143 
L 373.788829 78.253714 
L 374.113808 73.316571 
L 374.438788 70.848 
L 375.088747 75.785143 
L 375.413726 73.316571 
L 376.713645 73.316571 
L 377.038624 75.785143 
L 377.688583 75.785143 
L 378.013563 73.316571 
L 378.338542 80.722286 
L 378.663522 80.722286 
L 379.313481 85.659429 
L 379.96344 85.659429 
L 380.288419 90.596571 
L 380.613399 93.065143 
L 381.263358 105.408 
L 381.588337 105.408 
L 382.238296 110.345143 
L 382.563276 115.282286 
L 382.888256 122.688 
L 383.213235 125.156571 
L 383.538215 130.093714 
L 383.863194 130.093714 
L 384.838133 149.842286 
L 385.163112 152.310857 
L 385.488092 157.248 
L 385.813071 159.716571 
L 386.138051 169.590857 
L 386.78801 179.465143 
L 387.112989 181.933714 
L 387.762948 191.808 
L 388.087928 204.150857 
L 388.412907 206.619429 
L 388.737887 214.025143 
L 389.062867 216.493714 
L 389.712826 228.836571 
L 390.037805 233.773714 
L 390.362785 236.242286 
L 390.687764 241.179429 
L 391.012744 241.179429 
L 391.987682 260.928 
L 392.312662 263.396571 
L 392.637641 268.333714 
L 392.962621 268.333714 
L 393.2876 275.739429 
L 393.61258 278.208 
L 393.937559 283.145143 
L 394.587518 288.082286 
L 394.912498 288.082286 
L 395.237477 290.550857 
L 395.562457 295.488 
L 396.212416 290.550857 
L 396.537396 285.613714 
L 396.862375 285.613714 
L 397.187355 288.082286 
L 397.837314 288.082286 
L 398.162293 285.613714 
L 398.487273 288.082286 
L 398.487273 288.082286 
" clip-path="url(#p61149ca37a)" style="fill: none; stroke: #2ca02c; stroke-width: 1.5; stroke-linecap: square"/>
   </g>
   <g id="patch_3">
    <path d="M 57.6 307.584 
L 57.6 41.472 
" style="fill: none; stroke: #000000; stroke-width: 0.8; stroke-linejoin: miter; stroke-linecap: square"/>
   </g>
   <g id="patch_4">
    <path d="M 414.72 307.584 
L 414.72 41.472 
" style="fill: none; stroke: #000000; stroke-width: 0.8; stroke-linejoin: miter; stroke-linecap: square"/>
   </g>
   <g id="patch_5">
    <path d="M 57.6 307.584 
L 414.72 307.584 
" style="fill: none; stroke: #000000; stroke-width: 0.8; stroke-linejoin: miter; stroke-linecap: square"/>
   </g>
   <g id="patch_6">
    <path d="M 57.6 41.472 
L 414.72 41.472 
" style="fill: none; stroke: #000000; stroke-width: 0.8; stroke-linejoin: miter; stroke-linecap: square"/>
   </g>
  </g>
 </g>
 <defs>
  <clipPath id="p61149ca37a">
   <rect x="57.6" y="41.472" width="357.12" height="266.112"/>
  </clipPath>
 </defs>
</svg>
