<?xml version="1.0" encoding="utf-8" standalone="no"?>
<!DOCTYPE svg PUBLIC "-//W3C//DTD SVG 1.1//EN"
  "http://www.w3.org/Graphics/SVG/1.1/DTD/svg11.dtd">
<svg xmlns:xlink="http://www.w3.org/1999/xlink" width="460.8pt" height="345.6pt" viewBox="0 0 460.8 345.6" xmlns="http://www.w3.org/2000/svg" version="1.1">
 <metadata>
  <rdf:RDF xmlns:dc="http://purl.org/dc/elements/1.1/" xmlns:cc="http://creativecommons.org/ns#" xmlns:rdf="http://www.w3.org/1999/02/22-rdf-syntax-ns#">
   <cc:Work>
    <dc:type rdf:resource="http://purl.org/dc/dcmitype/StillImage"/>
    <dc:date>2025-12-30T06:09:51.291727</dc:date>
    <dc:format>image/svg+xml</dc:format>
    <dc:creator>
     <cc:Agent>
      <dc:title>Matplotlib v3.10.8, https://matplotlib.org/</dc:title>
     </cc:Agent>
    </dc:creator>
   </cc:Work>
  </rdf:RDF>
 </metadata>
 <defs>
  <style type="text/css">*{stroke-linejoin: round; stroke-linecap: butt}</style>
 </defs>
 <g id="figure_1">
  <g id="patch_1">
   <path d="M 0 345.6 
L 460.8 345.6 
L 460.8 0 
L 0 0 
z
" style="fill: #ffffff"/>
  </g>
  <g id="axes_1">
   <g id="patch_2">
    <path d="M 57.6 307.584 
L 414.72 307.584 
L 414.72 41.472 
L 57.6 41.472 
z
" style="fill: #ffffff"/>
   </g>
   <g id="matplotlib.axis_1">
    <g id="xtick_1">
     <g id="line2d_1">
      <defs>
       <path id="m4d2c5d01c3" d="M 0 0 
L 0 3.5 
" style="stroke: #000000; stroke-width: 0.8"/>
      </defs>
      <g>
       <use xlink:href="#m4d2c5d01c3" x="73.832727" y="307.584" style="stroke: #000000; stroke-width: 0.8"/>
      </g>
     </g>
     <g id="text_1">
      <!-- 0 -->
      <g transform="translate(70.651477 322.182437) scale(0.1 -0.1)">
       <defs>
        <path id="DejaVuSans-30" d="M 2034 4250 
Q 1547 4250 1301 3770 
Q 1056 3291 1056 2328 
Q 1056 1369 1301 889 
Q 1547 409 2034 409 
Q 2525 409 2770 889 
Q 3016 1369 3016 2328 
Q 3016 3291 2770 3770 
Q 2525 4250 2034 4250 
z
M 2034 4750 
Q 2819 4750 3233 4129 
Q 3647 3509 3647 2328 
Q 3647 1150 3233 529 
Q 2819 -91 2034 -91 
Q 1250 -91 836 529 
Q 422 1150 422 2328 
Q 422 3509 836 4129 
Q 1250 4750 2034 4750 
z
" transform="scale(0.015625)"/>
       </defs>
       <use xlink:href="#DejaVuSans-30"/>
      </g>
     </g>
    </g>
    <g id="xtick_2">
     <g id="line2d_2">
      <g>
       <use xlink:href="#m4d2c5d01c3" x="138.828632" y="307.584" style="stroke: #000000; stroke-width: 0.8"/>
      </g>
     </g>
     <g id="text_2">
      <!-- 1 -->
      <g transform="translate(135.647382 322.182437) scale(0.1 -0.1)">
       <defs>
        <path id="DejaVuSans-31" d="M 794 531 
L 1825 531 
L 1825 4091 
L 703 3866 
L 703 4441 
L 1819 4666 
L 2450 4666 
L 2450 531 
L 3481 531 
L 3481 0 
L 794 0 
L 794 531 
z
" transform="scale(0.015625)"/>
       </defs>
       <use xlink:href="#DejaVuSans-31"/>
      </g>
     </g>
    </g>
    <g id="xtick_3">
     <g id="line2d_3">
      <g>
       <use xlink:href="#m4d2c5d01c3" x="203.824537" y="307.584" style="stroke: #000000; stroke-width: 0.8"/>
      </g>
     </g>
     <g id="text_3">
      <!-- 2 -->
      <g transform="translate(200.643287 322.182437) scale(0.1 -0.1)">
       <defs>
        <path id="DejaVuSans-32" d="M 1228 531 
L 3431 531 
L 3431 0 
L 469 0 
L 469 531 
Q 828 903 1448 1529 
Q 2069 2156 2228 2338 
Q 2531 2678 2651 2914 
Q 2772 3150 2772 3378 
Q 2772 3750 2511 3984 
Q 2250 4219 1831 4219 
Q 1534 4219 1204 4116 
Q 875 4013 500 3803 
L 500 4441 
Q 881 4594 1212 4672 
Q 1544 4750 1819 4750 
Q 2544 4750 2975 4387 
Q 3406 4025 3406 3419 
Q 3406 3131 3298 2873 
Q 3191 2616 2906 2266 
Q 2828 2175 2409 1742 
Q 1991 1309 1228 531 
z
" transform="scale(0.015625)"/>
       </defs>
       <use xlink:href="#DejaVuSans-32"/>
      </g>
     </g>
    </g>
    <g id="xtick_4">
     <g id="line2d_4">
      <g>
       <use xlink:href="#m4d2c5d01c3" x="268.820442" y="307.584" style="stroke: #000000; stroke-width: 0.8"/>
      </g>
     </g>
     <g id="text_4">
      <!-- 3 -->
      <g transform="translate(265.639192 322.182437) scale(0.1 -0.1)">
       <defs>
        <path id="DejaVuSans-33" d="M 2597 2516 
Q 3050 2419 3304 2112 
Q 3559 1806 3559 1356 
Q 3559 666 3084 287 
Q 2609 -91 1734 -91 
Q 1441 -91 1130 -33 
Q 819 25 488 141 
L 488 750 
Q 750 597 1062 519 
Q 1375 441 1716 441 
Q 2309 441 2620 675 
Q 2931 909 2931 1356 
Q 2931 1769 2642 2001 
Q 2353 2234 1838 2234 
L 1294 2234 
L 1294 2753 
L 1863 2753 
Q 2328 2753 2575 2939 
Q 2822 3125 2822 3475 
Q 2822 3834 2567 4026 
Q 2313 4219 1838 4219 
Q 1578 4219 1281 4162 
Q 984 4106 628 3988 
L 628 4550 
Q 988 4650 1302 4700 
Q 1616 4750 1894 4750 
Q 2613 4750 3031 4423 
Q 3450 4097 3450 3541 
Q 3450 3153 3228 2886 
Q 3006 2619 2597 2516 
z
" transform="scale(0.015625)"/>
       </defs>
       <use xlink:href="#DejaVuSans-33"/>
      </g>
     </g>
    </g>
    <g id="xtick_5">
     <g id="line2d_5">
      <g>
       <use xlink:href="#m4d2c5d01c3" x="333.816347" y="307.584" style="stroke: #000000; stroke-width: 0.8"/>
      </g>
     </g>
     <g id="text_5">
      <!-- 4 -->
      <g transform="translate(330.635097 322.182437) scale(0.1 -0.1)">
       <defs>
        <path id="DejaVuSans-34" d="M 2419 4116 
L 825 1625 
L 2419 1625 
L 2419 4116 
z
M 2253 4666 
L 3047 4666 
L 3047 1625 
L 3713 1625 
L 3713 1100 
L 3047 1100 
L 3047 0 
L 2419 0 
L 2419 1100 
L 313 1100 
L 313 1709 
L 2253 4666 
z
" transform="scale(0.015625)"/>
       </defs>
       <use xlink:href="#DejaVuSans-34"/>
      </g>
     </g>
    </g>
    <g id="xtick_6">
     <g id="line2d_6">
      <g>
       <use xlink:href="#m4d2c5d01c3" x="398.812252" y="307.584" style="stroke: #000000; stroke-width: 0.8"/>
      </g>
     </g>
     <g id="text_6">
      <!-- 5 -->
      <g transform="translate(395.631002 322.182437) scale(0.1 -0.1)">
       <defs>
        <path id="DejaVuSans-35" d="M 691 4666 
L 3169 4666 
L 3169 4134 
L 1269 4134 
L 1269 2991 
Q 1406 3038 1543 3061 
Q 1681 3084 1819 3084 
Q 2600 3084 3056 2656 
Q 3513 2228 3513 1497 
Q 3513 744 3044 326 
Q 2575 -91 1722 -91 
Q 1428 -91 1123 -41 
Q 819 9 494 109 
L 494 744 
Q 775 591 1075 516 
Q 1375 441 1709 441 
Q 2250 441 2565 725 
Q 2881 1009 2881 1497 
Q 2881 1984 2565 2268 
Q 2250 2553 1709 2553 
Q 1456 2553 1204 2497 
Q 953 2441 691 2322 
L 691 4666 
z
" transform="scale(0.015625)"/>
       </defs>
       <use xlink:href="#DejaVuSans-35"/>
      </g>
     </g>
    </g>
    <g id="text_7">
     <!-- 1e−7 -->
     <g transform="translate(387.462188 334.860562) scale(0.1 -0.1)">
      <defs>
       <path id="DejaVuSans-65" d="M 3597 1894 
L 3597 1613 
L 953 1613 
Q 991 1019 1311 708 
Q 1631 397 2203 397 
Q 2534 397 2845 478 
Q 3156 559 3463 722 
L 3463 178 
Q 3153 47 2828 -22 
Q 2503 -91 2169 -91 
Q 1331 -91 842 396 
Q 353 884 353 1716 
Q 353 2575 817 3079 
Q 1281 3584 2069 3584 
Q 2775 3584 3186 3129 
Q 3597 2675 3597 1894 
z
M 3022 2063 
Q 3016 2534 2758 2815 
Q 2500 3097 2075 3097 
Q 1594 3097 1305 2825 
Q 1016 2553 972 2059 
L 3022 2063 
z
" transform="scale(0.015625)"/>
       <path id="DejaVuSans-2212" d="M 678 2272 
L 4684 2272 
L 4684 1741 
L 678 1741 
L 678 2272 
z
" transform="scale(0.015625)"/>
       <path id="DejaVuSans-37" d="M 525 4666 
L 3525 4666 
L 3525 4397 
L 1831 0 
L 1172 0 
L 2766 4134 
L 525 4134 
L 525 4666 
z
" transform="scale(0.015625)"/>
      </defs>
      <use xlink:href="#DejaVuSans-31"/>
      <use xlink:href="#DejaVuSans-65" transform="translate(63.623047 0)"/>
      <use xlink:href="#DejaVuSans-2212" transform="translate(125.146484 0)"/>
      <use xlink:href="#DejaVuSans-37" transform="translate(208.935547 0)"/>
     </g>
    </g>
   </g>
   <g id="matplotlib.axis_2">
    <g id="ytick_1">
     <g id="line2d_7">
      <defs>
       <path id="m30c3d9514b" d="M 0 0 
L -3.5 0 
" style="stroke: #000000; stroke-width: 0.8"/>
      </defs>
      <g>
       <use xlink:href="#m30c3d9514b" x="57.6" y="290.918406" style="stroke: #000000; stroke-width: 0.8"/>
      </g>
     </g>
     <g id="text_8">
      <!-- −300 -->
      <g transform="translate(23.132812 294.717625) scale(0.1 -0.1)">
       <use xlink:href="#DejaVuSans-2212"/>
       <use xlink:href="#DejaVuSans-33" transform="translate(83.789062 0)"/>
       <use xlink:href="#DejaVuSans-30" transform="translate(147.412109 0)"/>
       <use xlink:href="#DejaVuSans-30" transform="translate(211.035156 0)"/>
      </g>
     </g>
    </g>
    <g id="ytick_2">
     <g id="line2d_8">
      <g>
       <use xlink:href="#m30c3d9514b" x="57.6" y="247.910409" style="stroke: #000000; stroke-width: 0.8"/>
      </g>
     </g>
     <g id="text_9">
      <!-- −200 -->
      <g transform="translate(23.132812 251.709628) scale(0.1 -0.1)">
       <use xlink:href="#DejaVuSans-2212"/>
       <use xlink:href="#DejaVuSans-32" transform="translate(83.789062 0)"/>
       <use xlink:href="#DejaVuSans-30" transform="translate(147.412109 0)"/>
       <use xlink:href="#DejaVuSans-30" transform="translate(211.035156 0)"/>
      </g>
     </g>
    </g>
    <g id="ytick_3">
     <g id="line2d_9">
      <g>
       <use xlink:href="#m30c3d9514b" x="57.6" y="204.902412" style="stroke: #000000; stroke-width: 0.8"/>
      </g>
     </g>
     <g id="text_10">
      <!-- −100 -->
      <g transform="translate(23.132812 208.701631) scale(0.1 -0.1)">
       <use xlink:href="#DejaVuSans-2212"/>
       <use xlink:href="#DejaVuSans-31" transform="translate(83.789062 0)"/>
       <use xlink:href="#DejaVuSans-30" transform="translate(147.412109 0)"/>
       <use xlink:href="#DejaVuSans-30" transform="translate(211.035156 0)"/>
      </g>
     </g>
    </g>
    <g id="ytick_4">
     <g id="line2d_10">
      <g>
       <use xlink:href="#m30c3d9514b" x="57.6" y="161.894414" style="stroke: #000000; stroke-width: 0.8"/>
      </g>
     </g>
     <g id="text_11">
      <!-- 0 -->
      <g transform="translate(44.2375 165.693633) scale(0.1 -0.1)">
       <use xlink:href="#DejaVuSans-30"/>
      </g>
     </g>
    </g>
    <g id="ytick_5">
     <g id="line2d_11">
      <g>
       <use xlink:href="#m30c3d9514b" x="57.6" y="118.886417" style="stroke: #000000; stroke-width: 0.8"/>
      </g>
     </g>
     <g id="text_12">
      <!-- 100 -->
      <g transform="translate(31.5125 122.685636) scale(0.1 -0.1)">
       <use xlink:href="#DejaVuSans-31"/>
       <use xlink:href="#DejaVuSans-30" transform="translate(63.623047 0)"/>
       <use xlink:href="#DejaVuSans-30" transform="translate(127.246094 0)"/>
      </g>
     </g>
    </g>
    <g id="ytick_6">
     <g id="line2d_12">
      <g>
       <use xlink:href="#m30c3d9514b" x="57.6" y="75.87842" style="stroke: #000000; stroke-width: 0.8"/>
      </g>
     </g>
     <g id="text_13">
      <!-- 200 -->
      <g transform="translate(31.5125 79.677638) scale(0.1 -0.1)">
       <use xlink:href="#DejaVuSans-32"/>
       <use xlink:href="#DejaVuSans-30" transform="translate(63.623047 0)"/>
       <use xlink:href="#DejaVuSans-30" transform="translate(127.246094 0)"/>
      </g>
     </g>
    </g>
   </g>
   <g id="line2d_13">
    <path d="M 73.832727 176.839655 
L 74.807666 176.839655 
L 75.132645 170.119655 
L 75.457625 170.119655 
L 75.782604 163.399655 
L 76.107584 170.119655 
L 76.432563 156.679655 
L 76.757543 163.399655 
L 77.082523 149.959655 
L 77.407502 156.679655 
L 78.057461 156.679655 
L 78.382441 149.959655 
L 78.70742 156.679655 
L 79.0324 143.239655 
L 79.682359 156.679655 
L 80.332318 143.239655 
L 81.307256 143.239655 
L 81.632236 136.519655 
L 81.957215 136.519655 
L 82.282195 123.079655 
L 82.607174 129.799655 
L 82.932154 129.799655 
L 83.257133 123.079655 
L 83.582113 129.799655 
L 83.907093 129.799655 
L 84.232072 123.079655 
L 85.207011 123.079655 
L 85.53199 116.359655 
L 85.85697 116.359655 
L 86.181949 123.079655 
L 86.506929 116.359655 
L 87.156888 116.359655 
L 87.481867 109.639655 
L 87.806847 116.359655 
L 88.131826 109.639655 
L 88.781785 109.639655 
L 89.106765 116.359655 
L 89.431744 109.639655 
L 90.406683 109.639655 
L 90.731663 96.199655 
L 91.056642 102.919655 
L 91.381622 96.199655 
L 91.706601 102.919655 
L 92.031581 96.199655 
L 92.35656 96.199655 
L 92.68154 89.479655 
L 93.006519 96.199655 
L 93.331499 89.479655 
L 93.981458 89.479655 
L 94.306437 96.199655 
L 94.631417 82.759655 
L 94.956396 89.479655 
L 95.281376 89.479655 
L 95.931335 76.039655 
L 96.256314 82.759655 
L 96.906274 82.759655 
L 97.881212 62.599655 
L 98.206192 76.039655 
L 98.856151 62.599655 
L 99.18113 69.319655 
L 99.50611 69.319655 
L 99.831089 55.879655 
L 100.156069 69.319655 
L 100.806028 69.319655 
L 101.131007 62.599655 
L 101.455987 69.319655 
L 102.105946 69.319655 
L 102.430925 62.599655 
L 103.080885 62.599655 
L 103.405864 69.319655 
L 103.730844 62.599655 
L 104.055823 62.599655 
L 104.705782 76.039655 
L 105.030762 69.319655 
L 105.355741 69.319655 
L 105.680721 76.039655 
L 106.0057 69.319655 
L 106.655659 69.319655 
L 106.980639 76.039655 
L 107.955577 76.039655 
L 108.280557 69.319655 
L 108.605536 82.759655 
L 109.255495 82.759655 
L 109.580475 89.479655 
L 110.555414 89.479655 
L 110.880393 96.199655 
L 111.205373 89.479655 
L 111.855332 89.479655 
L 112.180311 102.919655 
L 113.15525 102.919655 
L 113.480229 96.199655 
L 113.805209 109.639655 
L 114.780147 109.639655 
L 115.105127 123.079655 
L 115.430106 109.639655 
L 116.080066 123.079655 
L 117.055004 123.079655 
L 117.704963 136.519655 
L 118.354922 123.079655 
L 118.679902 129.799655 
L 119.004881 143.239655 
L 119.329861 136.519655 
L 119.65484 136.519655 
L 120.304799 149.959655 
L 120.629779 143.239655 
L 120.954758 143.239655 
L 121.279738 149.959655 
L 121.929697 149.959655 
L 122.254676 156.679655 
L 123.229615 156.679655 
L 123.554595 163.399655 
L 123.879574 156.679655 
L 124.204554 170.119655 
L 124.529533 163.399655 
L 124.854513 163.399655 
L 125.504472 176.839655 
L 125.829451 170.119655 
L 126.154431 170.119655 
L 126.47941 183.559655 
L 126.80439 176.839655 
L 127.129369 176.839655 
L 127.454349 183.559655 
L 128.104308 183.559655 
L 128.429287 190.279655 
L 128.754267 190.279655 
L 129.079247 176.839655 
L 129.404226 196.999655 
L 129.729206 190.279655 
L 130.379165 190.279655 
L 130.704144 203.719655 
L 131.029124 190.279655 
L 131.354103 203.719655 
L 132.004062 203.719655 
L 132.329042 196.999655 
L 132.654021 203.719655 
L 133.30398 203.719655 
L 133.62896 210.439655 
L 133.953939 210.439655 
L 134.278919 203.719655 
L 134.603898 217.159655 
L 135.578837 217.159655 
L 135.903817 223.879655 
L 136.228796 217.159655 
L 136.553776 223.879655 
L 136.878755 223.879655 
L 137.203735 217.159655 
L 137.528714 217.159655 
L 137.853694 230.599655 
L 138.503653 230.599655 
L 138.828632 223.879655 
L 139.153612 230.599655 
L 139.803571 230.599655 
L 140.12855 237.319655 
L 140.45353 230.599655 
L 140.778509 230.599655 
L 141.103489 244.039655 
L 141.428468 237.319655 
L 142.078428 250.759655 
L 142.403407 244.039655 
L 143.053366 244.039655 
L 143.378346 250.759655 
L 144.353284 250.759655 
L 144.678264 244.039655 
L 145.003243 257.479655 
L 145.978182 257.479655 
L 146.303161 264.199655 
L 146.95312 264.199655 
L 147.2781 270.919655 
L 147.603079 264.199655 
L 147.928059 264.199655 
L 148.253038 270.919655 
L 148.578018 257.479655 
L 148.902998 270.919655 
L 149.227977 270.919655 
L 149.877936 257.479655 
L 150.202916 270.919655 
L 150.527895 264.199655 
L 151.177854 264.199655 
L 151.502834 277.639655 
L 152.152793 264.199655 
L 152.802752 264.199655 
L 153.127731 257.479655 
L 153.452711 264.199655 
L 153.77769 257.479655 
L 154.10267 264.199655 
L 154.427649 264.199655 
L 154.752629 250.759655 
L 155.077609 250.759655 
L 155.402588 264.199655 
L 156.052547 250.759655 
L 156.377527 250.759655 
L 156.702506 257.479655 
L 157.027486 250.759655 
L 157.352465 250.759655 
L 157.677445 244.039655 
L 158.002424 244.039655 
L 158.327404 237.319655 
L 158.652383 237.319655 
L 158.977363 244.039655 
L 159.627322 244.039655 
L 160.277281 230.599655 
L 160.60226 237.319655 
L 161.252219 223.879655 
L 161.902179 223.879655 
L 162.227158 217.159655 
L 162.552138 217.159655 
L 162.877117 223.879655 
L 163.527076 210.439655 
L 163.852056 210.439655 
L 164.177035 203.719655 
L 165.151974 203.719655 
L 165.476953 196.999655 
L 166.126912 196.999655 
L 166.451892 190.279655 
L 166.776871 196.999655 
L 167.101851 196.999655 
L 167.42683 183.559655 
L 167.75181 183.559655 
L 168.07679 190.279655 
L 168.726749 176.839655 
L 169.051728 176.839655 
L 169.376708 183.559655 
L 169.701687 176.839655 
L 170.351646 176.839655 
L 170.676626 163.399655 
L 171.001605 170.119655 
L 172.301523 170.119655 
L 172.626503 156.679655 
L 172.951482 163.399655 
L 173.276462 156.679655 
L 173.601441 156.679655 
L 173.926421 149.959655 
L 174.57638 149.959655 
L 174.90136 156.679655 
L 175.226339 143.239655 
L 175.551319 143.239655 
L 175.876298 136.519655 
L 176.201278 143.239655 
L 176.526257 136.519655 
L 177.176216 136.519655 
L 177.501196 143.239655 
L 177.826175 129.799655 
L 178.151155 136.519655 
L 178.801114 136.519655 
L 179.126093 123.079655 
L 179.776052 123.079655 
L 180.101032 129.799655 
L 180.426011 123.079655 
L 180.750991 123.079655 
L 181.075971 116.359655 
L 181.40095 123.079655 
L 181.72593 116.359655 
L 182.375889 116.359655 
L 182.700868 123.079655 
L 183.025848 109.639655 
L 183.350827 116.359655 
L 183.675807 116.359655 
L 184.325766 102.919655 
L 184.650745 109.639655 
L 185.625684 109.639655 
L 186.275643 96.199655 
L 186.600622 109.639655 
L 186.925602 96.199655 
L 187.250581 89.479655 
L 187.900541 102.919655 
L 188.22552 89.479655 
L 188.5505 96.199655 
L 189.200459 96.199655 
L 189.525438 89.479655 
L 189.850418 89.479655 
L 190.175397 82.759655 
L 190.500377 89.479655 
L 190.825356 89.479655 
L 191.475315 76.039655 
L 191.800295 82.759655 
L 192.450254 69.319655 
L 192.775233 76.039655 
L 193.100213 76.039655 
L 193.425192 69.319655 
L 194.400131 69.319655 
L 194.725111 62.599655 
L 195.05009 69.319655 
L 195.700049 69.319655 
L 196.025029 62.599655 
L 196.350008 69.319655 
L 196.674988 55.879655 
L 196.999967 69.319655 
L 197.324947 62.599655 
L 197.649926 62.599655 
L 197.974906 69.319655 
L 198.299885 69.319655 
L 198.624865 62.599655 
L 198.949844 69.319655 
L 199.599803 69.319655 
L 199.924783 62.599655 
L 200.249762 69.319655 
L 200.574742 62.599655 
L 200.899722 76.039655 
L 201.224701 69.319655 
L 201.549681 69.319655 
L 201.87466 62.599655 
L 202.19964 76.039655 
L 202.524619 69.319655 
L 202.849599 69.319655 
L 203.499558 82.759655 
L 203.824537 76.039655 
L 204.149517 76.039655 
L 204.474496 82.759655 
L 205.449435 82.759655 
L 205.774414 89.479655 
L 206.749353 89.479655 
L 207.074333 82.759655 
L 207.399312 96.199655 
L 207.724292 89.479655 
L 208.049271 89.479655 
L 208.374251 96.199655 
L 208.69923 109.639655 
L 209.02421 96.199655 
L 209.674169 109.639655 
L 209.999148 109.639655 
L 210.324128 102.919655 
L 210.649107 102.919655 
L 210.974087 116.359655 
L 211.299066 116.359655 
L 211.624046 109.639655 
L 211.949025 116.359655 
L 212.274005 109.639655 
L 212.598984 123.079655 
L 213.248943 123.079655 
L 213.573923 129.799655 
L 213.898903 143.239655 
L 214.223882 129.799655 
L 214.873841 143.239655 
L 215.198821 136.519655 
L 215.84878 136.519655 
L 216.498739 149.959655 
L 217.148698 149.959655 
L 217.473677 143.239655 
L 218.123636 156.679655 
L 218.773595 156.679655 
L 219.098575 163.399655 
L 219.423554 156.679655 
L 219.748534 163.399655 
L 220.073514 163.399655 
L 220.398493 170.119655 
L 220.723473 163.399655 
L 221.048452 170.119655 
L 221.373432 170.119655 
L 221.698411 176.839655 
L 222.34837 176.839655 
L 222.67335 170.119655 
L 222.998329 176.839655 
L 223.323309 176.839655 
L 223.648288 183.559655 
L 223.973268 183.559655 
L 224.298247 196.999655 
L 224.623227 183.559655 
L 224.948206 190.279655 
L 225.273186 190.279655 
L 225.598165 196.999655 
L 225.923145 190.279655 
L 226.248124 190.279655 
L 226.898084 203.719655 
L 227.223063 196.999655 
L 227.873022 196.999655 
L 228.198002 203.719655 
L 228.847961 203.719655 
L 229.17294 210.439655 
L 229.49792 210.439655 
L 229.822899 203.719655 
L 230.147879 217.159655 
L 230.472858 223.879655 
L 231.122817 210.439655 
L 231.447797 210.439655 
L 231.772776 223.879655 
L 232.097756 223.879655 
L 232.422735 217.159655 
L 232.747715 223.879655 
L 233.072695 210.439655 
L 233.397674 230.599655 
L 233.722654 223.879655 
L 234.047633 230.599655 
L 234.697592 230.599655 
L 235.022572 223.879655 
L 235.347551 230.599655 
L 235.672531 230.599655 
L 235.99751 237.319655 
L 236.32249 230.599655 
L 236.647469 230.599655 
L 236.972449 244.039655 
L 237.297428 244.039655 
L 237.622408 237.319655 
L 237.947387 244.039655 
L 238.272367 237.319655 
L 238.597346 250.759655 
L 238.922326 250.759655 
L 239.247305 237.319655 
L 239.572285 244.039655 
L 239.897265 257.479655 
L 240.222244 250.759655 
L 240.872203 264.199655 
L 241.522162 264.199655 
L 241.847142 257.479655 
L 242.172121 264.199655 
L 242.497101 257.479655 
L 242.82208 264.199655 
L 243.472039 250.759655 
L 243.797019 270.919655 
L 244.121998 264.199655 
L 244.771957 264.199655 
L 245.096937 277.639655 
L 245.421916 264.199655 
L 246.071876 277.639655 
L 246.721835 264.199655 
L 247.046814 270.919655 
L 247.371794 264.199655 
L 247.696773 270.919655 
L 248.021753 264.199655 
L 248.346732 264.199655 
L 248.671712 257.479655 
L 248.996691 264.199655 
L 249.321671 264.199655 
L 249.64665 257.479655 
L 249.97163 264.199655 
L 250.296609 264.199655 
L 250.621589 250.759655 
L 251.271548 264.199655 
L 251.921507 250.759655 
L 252.246486 257.479655 
L 252.571466 250.759655 
L 253.546405 250.759655 
L 253.871384 244.039655 
L 254.196364 244.039655 
L 254.521343 237.319655 
L 254.846323 244.039655 
L 255.171302 230.599655 
L 255.496282 244.039655 
L 255.821261 230.599655 
L 256.146241 230.599655 
L 256.47122 237.319655 
L 257.121179 223.879655 
L 257.446159 230.599655 
L 258.096118 230.599655 
L 258.421097 217.159655 
L 258.746077 217.159655 
L 259.071057 203.719655 
L 259.396036 217.159655 
L 259.721016 217.159655 
L 260.045995 203.719655 
L 260.370975 210.439655 
L 260.695954 210.439655 
L 261.020934 196.999655 
L 261.345913 196.999655 
L 261.670893 203.719655 
L 262.320852 190.279655 
L 262.970811 190.279655 
L 263.29579 196.999655 
L 263.62077 183.559655 
L 263.945749 183.559655 
L 264.270729 176.839655 
L 264.595708 183.559655 
L 264.920688 176.839655 
L 265.245667 176.839655 
L 265.570647 170.119655 
L 265.895627 183.559655 
L 266.220606 170.119655 
L 266.870565 170.119655 
L 267.195545 163.399655 
L 268.820442 163.399655 
L 269.470401 149.959655 
L 269.795381 156.679655 
L 270.12036 149.959655 
L 270.770319 149.959655 
L 271.095299 156.679655 
L 271.420278 136.519655 
L 271.745258 149.959655 
L 272.070238 143.239655 
L 272.395217 143.239655 
L 273.045176 129.799655 
L 273.370156 136.519655 
L 273.695135 136.519655 
L 274.020115 129.799655 
L 274.345094 136.519655 
L 274.670074 123.079655 
L 274.995053 129.799655 
L 275.320033 123.079655 
L 276.294971 123.079655 
L 276.619951 116.359655 
L 276.94493 123.079655 
L 277.594889 123.079655 
L 277.919869 109.639655 
L 278.244848 116.359655 
L 278.569828 109.639655 
L 278.894808 116.359655 
L 279.219787 116.359655 
L 279.869746 102.919655 
L 280.194726 116.359655 
L 280.519705 109.639655 
L 280.844685 109.639655 
L 281.169664 102.919655 
L 281.494644 109.639655 
L 281.819623 96.199655 
L 282.144603 102.919655 
L 282.794562 102.919655 
L 283.119541 96.199655 
L 283.444521 102.919655 
L 284.09448 102.919655 
L 284.419459 96.199655 
L 284.744439 96.199655 
L 285.069419 89.479655 
L 285.394398 96.199655 
L 286.044357 82.759655 
L 286.369337 89.479655 
L 286.694316 89.479655 
L 287.019296 82.759655 
L 287.344275 89.479655 
L 287.669255 82.759655 
L 287.994234 82.759655 
L 288.319214 69.319655 
L 288.644193 69.319655 
L 288.969173 82.759655 
L 289.294152 76.039655 
L 289.944111 76.039655 
L 290.269091 55.879655 
L 290.59407 76.039655 
L 290.91905 62.599655 
L 291.244029 62.599655 
L 291.569009 69.319655 
L 291.893989 69.319655 
L 292.218968 62.599655 
L 292.543948 62.599655 
L 292.868927 69.319655 
L 293.193907 69.319655 
L 293.518886 62.599655 
L 294.493825 62.599655 
L 294.818804 55.879655 
L 295.143784 62.599655 
L 295.468763 62.599655 
L 295.793743 69.319655 
L 296.118722 69.319655 
L 296.443702 62.599655 
L 296.768681 69.319655 
L 297.093661 69.319655 
L 297.41864 62.599655 
L 298.0686 76.039655 
L 298.393579 76.039655 
L 298.718559 69.319655 
L 299.043538 76.039655 
L 299.368518 76.039655 
L 299.693497 82.759655 
L 300.018477 76.039655 
L 300.343456 82.759655 
L 300.668436 76.039655 
L 300.993415 89.479655 
L 301.318395 76.039655 
L 302.293333 96.199655 
L 302.618313 89.479655 
L 302.943292 96.199655 
L 304.24321 96.199655 
L 304.89317 109.639655 
L 305.218149 102.919655 
L 305.543129 109.639655 
L 305.868108 102.919655 
L 306.193088 109.639655 
L 306.843047 109.639655 
L 307.168026 116.359655 
L 307.493006 116.359655 
L 307.817985 123.079655 
L 309.767862 123.079655 
L 310.092842 136.519655 
L 310.417821 129.799655 
L 310.742801 136.519655 
L 311.067781 123.079655 
L 311.39276 143.239655 
L 311.71774 143.239655 
L 312.042719 136.519655 
L 312.367699 143.239655 
L 312.692678 156.679655 
L 313.017658 143.239655 
L 313.667617 156.679655 
L 313.992596 149.959655 
L 314.642555 149.959655 
L 314.967535 156.679655 
L 315.617494 156.679655 
L 315.942473 163.399655 
L 316.267453 156.679655 
L 316.592432 170.119655 
L 317.567371 170.119655 
L 317.892351 176.839655 
L 318.21733 170.119655 
L 318.54231 183.559655 
L 318.867289 183.559655 
L 319.192269 190.279655 
L 319.517248 183.559655 
L 319.842228 183.559655 
L 320.167207 190.279655 
L 321.142146 190.279655 
L 321.467125 183.559655 
L 321.792105 196.999655 
L 322.117084 190.279655 
L 322.767043 203.719655 
L 323.092023 203.719655 
L 323.417002 196.999655 
L 324.066962 210.439655 
L 324.391941 210.439655 
L 324.716921 203.719655 
L 325.0419 210.439655 
L 326.341818 210.439655 
L 326.666798 203.719655 
L 326.991777 217.159655 
L 327.316757 217.159655 
L 327.641736 210.439655 
L 327.966716 223.879655 
L 328.291695 223.879655 
L 328.616675 217.159655 
L 329.266634 230.599655 
L 329.591613 223.879655 
L 330.241572 223.879655 
L 330.566552 230.599655 
L 331.541491 230.599655 
L 331.86647 223.879655 
L 332.19145 237.319655 
L 332.516429 237.319655 
L 332.841409 230.599655 
L 333.491368 244.039655 
L 333.816347 237.319655 
L 334.466306 250.759655 
L 334.791286 250.759655 
L 335.116265 244.039655 
L 335.441245 257.479655 
L 336.091204 257.479655 
L 336.416183 250.759655 
L 336.741163 257.479655 
L 337.066143 250.759655 
L 337.391122 264.199655 
L 337.716102 257.479655 
L 338.041081 264.199655 
L 338.366061 264.199655 
L 338.69104 270.919655 
L 339.01602 257.479655 
L 339.340999 270.919655 
L 339.665979 277.639655 
L 339.990958 264.199655 
L 340.640917 264.199655 
L 340.965897 270.919655 
L 341.290876 270.919655 
L 341.615856 264.199655 
L 341.940835 264.199655 
L 342.265815 257.479655 
L 342.590794 270.919655 
L 342.915774 270.919655 
L 343.240753 264.199655 
L 343.565733 264.199655 
L 343.890713 270.919655 
L 344.215692 257.479655 
L 344.540672 264.199655 
L 345.190631 264.199655 
L 345.51561 257.479655 
L 346.165569 257.479655 
L 346.490549 264.199655 
L 346.815528 250.759655 
L 347.140508 250.759655 
L 347.465487 244.039655 
L 347.790467 250.759655 
L 348.115446 250.759655 
L 348.440426 244.039655 
L 349.090385 257.479655 
L 349.415364 244.039655 
L 349.740344 244.039655 
L 350.065324 250.759655 
L 350.390303 250.759655 
L 350.715283 237.319655 
L 351.690221 237.319655 
L 352.34018 223.879655 
L 352.66516 223.879655 
L 352.990139 230.599655 
L 353.315119 223.879655 
L 353.640098 223.879655 
L 353.965078 230.599655 
L 354.290057 217.159655 
L 354.615037 210.439655 
L 354.940016 217.159655 
L 355.264996 217.159655 
L 355.914955 203.719655 
L 357.214873 203.719655 
L 357.864832 190.279655 
L 358.189812 196.999655 
L 358.514791 190.279655 
L 359.16475 190.279655 
L 359.48973 196.999655 
L 359.814709 183.559655 
L 360.789648 183.559655 
L 361.114627 170.119655 
L 362.089566 170.119655 
L 362.414545 163.399655 
L 362.739525 170.119655 
L 363.064505 163.399655 
L 363.389484 170.119655 
L 363.714464 163.399655 
L 364.689402 163.399655 
L 365.014382 149.959655 
L 365.339361 149.959655 
L 365.664341 156.679655 
L 365.98932 156.679655 
L 366.639279 143.239655 
L 366.964259 149.959655 
L 367.289238 149.959655 
L 367.614218 143.239655 
L 367.939197 143.239655 
L 368.264177 129.799655 
L 368.589156 143.239655 
L 369.239115 129.799655 
L 369.564095 136.519655 
L 369.889075 136.519655 
L 370.214054 129.799655 
L 370.864013 129.799655 
L 371.188993 123.079655 
L 372.163931 123.079655 
L 372.488911 129.799655 
L 372.81389 123.079655 
L 373.13887 123.079655 
L 373.463849 109.639655 
L 374.113808 123.079655 
L 374.438788 109.639655 
L 375.088747 123.079655 
L 375.413726 116.359655 
L 376.063686 116.359655 
L 376.388665 109.639655 
L 376.713645 109.639655 
L 377.038624 102.919655 
L 377.363604 109.639655 
L 377.688583 109.639655 
L 378.013563 102.919655 
L 378.338542 102.919655 
L 378.663522 89.479655 
L 378.988501 102.919655 
L 379.313481 96.199655 
L 379.96344 96.199655 
L 380.288419 102.919655 
L 380.613399 89.479655 
L 380.938378 96.199655 
L 381.263358 96.199655 
L 381.913317 82.759655 
L 382.238296 89.479655 
L 382.563276 82.759655 
L 382.888256 89.479655 
L 383.213235 82.759655 
L 383.538215 82.759655 
L 383.863194 69.319655 
L 384.188174 82.759655 
L 384.513153 76.039655 
L 384.838133 76.039655 
L 385.163112 69.319655 
L 385.488092 76.039655 
L 385.813071 62.599655 
L 386.138051 69.319655 
L 386.78801 69.319655 
L 387.112989 62.599655 
L 387.437969 69.319655 
L 387.762948 62.599655 
L 388.087928 69.319655 
L 388.412907 62.599655 
L 388.737887 62.599655 
L 389.062867 55.879655 
L 389.387846 69.319655 
L 389.712826 62.599655 
L 390.362785 62.599655 
L 390.687764 69.319655 
L 391.012744 62.599655 
L 391.337723 69.319655 
L 392.312662 69.319655 
L 392.637641 62.599655 
L 392.962621 69.319655 
L 394.262539 69.319655 
L 394.587518 82.759655 
L 394.912498 69.319655 
L 395.237477 69.319655 
L 395.887437 82.759655 
L 396.212416 76.039655 
L 396.537396 82.759655 
L 397.187355 82.759655 
L 397.512334 76.039655 
L 398.487273 96.199655 
L 398.487273 96.199655 
" clip-path="url(#p751d8b54a5)" style="fill: none; stroke: #1f77b4; stroke-width: 1.5; stroke-linecap: square"/>
   </g>
   <g id="line2d_14">
    <path d="M 73.832727 275.328 
L 74.157707 275.328 
L 74.482686 282.048 
L 75.782604 282.048 
L 76.107584 288.768 
L 76.432563 282.048 
L 77.082523 295.488 
L 77.407502 295.488 
L 77.732482 282.048 
L 79.0324 282.048 
L 79.357379 288.768 
L 79.682359 282.048 
L 80.332318 282.048 
L 80.657297 275.328 
L 80.982277 275.328 
L 81.307256 282.048 
L 81.632236 268.608 
L 81.957215 275.328 
L 82.932154 275.328 
L 83.257133 268.608 
L 83.582113 268.608 
L 83.907093 261.888 
L 84.882031 261.888 
L 85.207011 248.448 
L 85.53199 255.168 
L 86.181949 241.728 
L 86.506929 248.448 
L 86.831908 235.008 
L 87.156888 248.448 
L 87.806847 248.448 
L 88.456806 235.008 
L 89.106765 235.008 
L 89.431744 228.288 
L 89.756724 235.008 
L 90.081704 235.008 
L 90.406683 221.568 
L 90.731663 228.288 
L 91.381622 214.848 
L 91.706601 228.288 
L 92.031581 208.128 
L 92.35656 221.568 
L 92.68154 221.568 
L 93.006519 228.288 
L 93.331499 214.848 
L 93.656478 214.848 
L 93.981458 221.568 
L 94.306437 208.128 
L 94.631417 214.848 
L 94.956396 214.848 
L 95.281376 208.128 
L 95.606355 208.128 
L 95.931335 201.408 
L 96.256314 201.408 
L 96.581294 194.688 
L 96.906274 208.128 
L 97.231253 194.688 
L 97.881212 208.128 
L 98.206192 194.688 
L 98.531171 187.968 
L 99.18113 187.968 
L 99.50611 181.248 
L 99.831089 181.248 
L 100.156069 187.968 
L 100.481048 174.528 
L 100.806028 174.528 
L 101.131007 167.808 
L 102.105946 167.808 
L 102.430925 154.368 
L 102.755905 167.808 
L 103.080885 167.808 
L 103.730844 154.368 
L 104.055823 154.368 
L 104.380803 161.088 
L 105.030762 147.648 
L 105.355741 147.648 
L 105.680721 154.368 
L 106.0057 147.648 
L 106.33068 147.648 
L 106.980639 134.208 
L 107.305618 140.928 
L 107.630598 127.488 
L 108.280557 140.928 
L 108.605536 140.928 
L 109.580475 120.768 
L 110.880393 120.768 
L 111.205373 107.328 
L 111.855332 107.328 
L 112.180311 100.608 
L 112.505291 107.328 
L 112.83027 93.888 
L 113.15525 100.608 
L 114.130188 100.608 
L 114.780147 87.168 
L 115.105127 93.888 
L 115.430106 93.888 
L 115.755086 87.168 
L 116.405045 87.168 
L 116.730025 93.888 
L 117.055004 80.448 
L 117.379984 73.728 
L 117.704963 87.168 
L 118.029943 73.728 
L 118.354922 87.168 
L 119.004881 87.168 
L 119.329861 80.448 
L 119.97982 80.448 
L 120.629779 67.008 
L 120.954758 73.728 
L 121.604717 73.728 
L 121.929697 60.288 
L 122.254676 67.008 
L 122.579656 53.568 
L 122.904636 67.008 
L 123.229615 53.568 
L 123.554595 60.288 
L 123.879574 60.288 
L 124.204554 67.008 
L 124.529533 67.008 
L 124.854513 60.288 
L 125.829451 60.288 
L 126.154431 53.568 
L 126.47941 60.288 
L 126.80439 60.288 
L 127.129369 67.008 
L 127.454349 60.288 
L 127.779328 60.288 
L 128.104308 67.008 
L 128.429287 53.568 
L 128.754267 67.008 
L 130.054185 67.008 
L 130.704144 80.448 
L 131.029124 80.448 
L 131.354103 73.728 
L 131.679083 80.448 
L 132.004062 73.728 
L 132.329042 87.168 
L 132.654021 80.448 
L 132.979001 80.448 
L 133.30398 93.888 
L 133.62896 87.168 
L 133.953939 100.608 
L 134.278919 107.328 
L 134.603898 100.608 
L 135.578837 100.608 
L 136.228796 114.048 
L 136.878755 114.048 
L 137.203735 107.328 
L 137.528714 114.048 
L 138.178673 114.048 
L 138.503653 120.768 
L 138.828632 114.048 
L 139.153612 120.768 
L 139.803571 120.768 
L 140.12855 127.488 
L 140.778509 127.488 
L 141.103489 120.768 
L 141.428468 134.208 
L 141.753448 127.488 
L 142.078428 134.208 
L 142.403407 127.488 
L 143.378346 127.488 
L 143.703325 140.928 
L 144.028305 134.208 
L 144.678264 147.648 
L 145.978182 147.648 
L 146.303161 154.368 
L 146.628141 154.368 
L 146.95312 161.088 
L 147.928059 161.088 
L 148.253038 167.808 
L 148.578018 161.088 
L 148.902998 174.528 
L 149.227977 161.088 
L 149.552957 174.528 
L 150.202916 187.968 
L 150.527895 187.968 
L 150.852875 181.248 
L 151.827813 181.248 
L 152.152793 187.968 
L 152.477772 187.968 
L 152.802752 194.688 
L 153.127731 187.968 
L 153.77769 187.968 
L 154.10267 194.688 
L 154.427649 187.968 
L 154.752629 201.408 
L 155.402588 214.848 
L 155.727568 208.128 
L 156.052547 214.848 
L 156.377527 214.848 
L 156.702506 221.568 
L 157.352465 221.568 
L 157.677445 228.288 
L 158.002424 221.568 
L 158.327404 228.288 
L 158.652383 228.288 
L 158.977363 221.568 
L 159.302342 235.008 
L 159.627322 228.288 
L 159.952301 235.008 
L 160.277281 248.448 
L 160.60226 248.448 
L 160.92724 241.728 
L 161.252219 248.448 
L 162.552138 248.448 
L 162.877117 255.168 
L 163.527076 255.168 
L 163.852056 248.448 
L 164.502015 261.888 
L 164.826994 248.448 
L 165.151974 268.608 
L 165.476953 268.608 
L 165.801933 275.328 
L 166.451892 261.888 
L 166.776871 268.608 
L 167.75181 268.608 
L 168.07679 275.328 
L 168.401769 268.608 
L 169.051728 282.048 
L 169.376708 275.328 
L 169.701687 288.768 
L 170.026667 275.328 
L 170.351646 282.048 
L 172.301523 282.048 
L 172.626503 288.768 
L 173.276462 288.768 
L 173.601441 282.048 
L 173.926421 282.048 
L 174.2514 288.768 
L 174.57638 282.048 
L 174.90136 288.768 
L 175.226339 275.328 
L 175.551319 288.768 
L 176.526257 288.768 
L 176.851237 275.328 
L 177.176216 282.048 
L 177.501196 275.328 
L 178.151155 275.328 
L 178.476134 268.608 
L 179.126093 268.608 
L 179.451073 261.888 
L 179.776052 261.888 
L 180.101032 268.608 
L 180.426011 248.448 
L 181.075971 261.888 
L 181.40095 261.888 
L 181.72593 255.168 
L 182.050909 255.168 
L 182.375889 248.448 
L 182.700868 248.448 
L 183.025848 241.728 
L 183.350827 241.728 
L 183.675807 248.448 
L 184.000786 235.008 
L 184.325766 241.728 
L 184.975725 228.288 
L 185.300704 235.008 
L 185.625684 228.288 
L 186.925602 228.288 
L 187.250581 221.568 
L 188.875479 221.568 
L 189.200459 214.848 
L 189.850418 214.848 
L 190.175397 208.128 
L 190.500377 221.568 
L 190.825356 208.128 
L 191.475315 221.568 
L 191.800295 214.848 
L 192.125274 214.848 
L 192.450254 201.408 
L 193.100213 201.408 
L 193.425192 194.688 
L 194.075152 194.688 
L 194.400131 187.968 
L 195.05009 187.968 
L 195.37507 174.528 
L 195.700049 181.248 
L 196.025029 174.528 
L 196.350008 181.248 
L 196.999967 181.248 
L 197.324947 174.528 
L 197.649926 161.088 
L 198.949844 161.088 
L 199.274824 167.808 
L 199.599803 154.368 
L 200.249762 154.368 
L 200.574742 147.648 
L 200.899722 154.368 
L 201.224701 140.928 
L 201.549681 154.368 
L 201.87466 147.648 
L 202.19964 154.368 
L 202.524619 147.648 
L 203.174578 147.648 
L 203.499558 134.208 
L 204.474496 134.208 
L 204.799476 120.768 
L 205.124455 127.488 
L 205.449435 120.768 
L 206.099394 120.768 
L 206.424373 114.048 
L 207.399312 114.048 
L 207.724292 107.328 
L 208.374251 107.328 
L 208.69923 100.608 
L 209.674169 100.608 
L 209.999148 93.888 
L 210.649107 93.888 
L 210.974087 87.168 
L 211.299066 100.608 
L 211.624046 80.448 
L 212.274005 93.888 
L 212.598984 93.888 
L 213.248943 80.448 
L 214.873841 80.448 
L 215.198821 73.728 
L 215.5238 73.728 
L 215.84878 67.008 
L 216.173759 67.008 
L 216.498739 73.728 
L 216.823718 60.288 
L 217.148698 73.728 
L 217.473677 73.728 
L 217.798657 67.008 
L 219.098575 67.008 
L 219.748534 53.568 
L 220.073514 60.288 
L 221.048452 60.288 
L 221.373432 53.568 
L 221.698411 67.008 
L 222.023391 53.568 
L 222.34837 67.008 
L 223.648288 67.008 
L 223.973268 60.288 
L 224.298247 67.008 
L 224.948206 67.008 
L 225.273186 73.728 
L 225.598165 67.008 
L 225.923145 73.728 
L 226.248124 67.008 
L 226.573104 67.008 
L 226.898084 80.448 
L 227.223063 67.008 
L 227.548043 80.448 
L 227.873022 87.168 
L 228.522981 87.168 
L 228.847961 80.448 
L 229.17294 93.888 
L 229.822899 93.888 
L 230.147879 100.608 
L 231.772776 100.608 
L 232.097756 107.328 
L 232.422735 100.608 
L 232.747715 114.048 
L 233.072695 114.048 
L 233.397674 120.768 
L 235.022572 120.768 
L 235.347551 127.488 
L 235.672531 127.488 
L 235.99751 120.768 
L 236.972449 120.768 
L 237.297428 127.488 
L 237.622408 114.048 
L 237.947387 134.208 
L 238.272367 134.208 
L 238.597346 140.928 
L 238.922326 134.208 
L 239.247305 134.208 
L 239.572285 140.928 
L 239.897265 134.208 
L 240.222244 140.928 
L 240.547224 140.928 
L 240.872203 147.648 
L 241.197183 140.928 
L 241.522162 147.648 
L 242.172121 147.648 
L 242.497101 161.088 
L 242.82208 154.368 
L 243.14706 154.368 
L 243.472039 167.808 
L 243.797019 167.808 
L 244.121998 174.528 
L 244.446978 167.808 
L 244.771957 174.528 
L 245.746896 174.528 
L 246.071876 181.248 
L 247.046814 181.248 
L 247.371794 174.528 
L 247.696773 187.968 
L 248.021753 181.248 
L 248.996691 201.408 
L 249.321671 201.408 
L 249.64665 194.688 
L 249.97163 194.688 
L 250.296609 201.408 
L 250.621589 201.408 
L 250.946568 208.128 
L 252.571466 208.128 
L 252.896446 214.848 
L 253.221425 214.848 
L 254.196364 235.008 
L 254.521343 235.008 
L 254.846323 228.288 
L 255.496282 241.728 
L 256.7962 241.728 
L 257.121179 248.448 
L 257.446159 248.448 
L 257.771138 241.728 
L 258.096118 248.448 
L 258.421097 241.728 
L 258.746077 261.888 
L 259.071057 255.168 
L 259.396036 268.608 
L 259.721016 261.888 
L 260.045995 261.888 
L 260.370975 255.168 
L 260.695954 261.888 
L 261.995872 261.888 
L 262.320852 268.608 
L 262.645831 255.168 
L 262.970811 261.888 
L 263.29579 275.328 
L 263.62077 261.888 
L 264.595708 282.048 
L 264.920688 282.048 
L 265.245667 275.328 
L 265.570647 282.048 
L 265.895627 275.328 
L 266.545586 288.768 
L 267.195545 275.328 
L 267.520524 282.048 
L 268.170483 282.048 
L 268.495463 288.768 
L 269.145422 288.768 
L 269.470401 295.488 
L 269.795381 295.488 
L 270.12036 288.768 
L 271.095299 288.768 
L 271.420278 282.048 
L 271.745258 288.768 
L 272.070238 282.048 
L 272.395217 282.048 
L 272.720197 275.328 
L 273.695135 275.328 
L 274.020115 261.888 
L 274.345094 275.328 
L 274.995053 275.328 
L 275.320033 268.608 
L 275.645012 268.608 
L 275.969992 261.888 
L 276.294971 261.888 
L 276.619951 255.168 
L 277.594889 255.168 
L 277.919869 248.448 
L 278.244848 248.448 
L 278.569828 241.728 
L 278.894808 248.448 
L 279.219787 235.008 
L 279.544767 241.728 
L 280.194726 241.728 
L 280.519705 235.008 
L 280.844685 235.008 
L 281.494644 221.568 
L 281.819623 228.288 
L 282.469582 228.288 
L 282.794562 221.568 
L 283.119541 221.568 
L 283.444521 214.848 
L 283.7695 214.848 
L 284.09448 221.568 
L 284.419459 214.848 
L 284.744439 214.848 
L 285.394398 228.288 
L 285.719378 214.848 
L 286.369337 214.848 
L 286.694316 208.128 
L 287.019296 214.848 
L 287.669255 214.848 
L 288.319214 201.408 
L 288.644193 201.408 
L 288.969173 194.688 
L 289.294152 201.408 
L 289.619132 187.968 
L 289.944111 194.688 
L 290.269091 194.688 
L 290.91905 181.248 
L 291.569009 181.248 
L 291.893989 174.528 
L 292.868927 174.528 
L 293.193907 167.808 
L 293.518886 167.808 
L 294.168845 154.368 
L 294.493825 167.808 
L 294.818804 154.368 
L 295.143784 167.808 
L 295.468763 161.088 
L 296.443702 161.088 
L 296.768681 154.368 
L 297.093661 154.368 
L 297.41864 147.648 
L 297.74362 147.648 
L 298.0686 154.368 
L 299.043538 134.208 
L 299.368518 134.208 
L 299.693497 140.928 
L 300.018477 127.488 
L 300.343456 134.208 
L 300.993415 134.208 
L 301.643374 120.768 
L 301.968354 120.768 
L 302.293333 114.048 
L 303.268272 114.048 
L 303.593251 107.328 
L 303.918231 107.328 
L 304.24321 100.608 
L 304.89317 100.608 
L 305.218149 93.888 
L 305.868108 107.328 
L 306.193088 93.888 
L 306.843047 93.888 
L 307.168026 87.168 
L 307.817985 87.168 
L 308.142965 80.448 
L 308.467944 87.168 
L 308.792924 80.448 
L 309.117903 87.168 
L 309.767862 73.728 
L 310.092842 87.168 
L 310.417821 73.728 
L 311.067781 87.168 
L 311.71774 73.728 
L 312.692678 73.728 
L 313.017658 67.008 
L 313.667617 67.008 
L 313.992596 60.288 
L 314.317576 60.288 
L 314.642555 67.008 
L 314.967535 53.568 
L 315.292514 67.008 
L 315.617494 53.568 
L 315.942473 67.008 
L 316.267453 67.008 
L 316.592432 73.728 
L 316.917412 60.288 
L 317.242391 60.288 
L 317.567371 67.008 
L 317.892351 60.288 
L 319.192269 60.288 
L 319.517248 67.008 
L 319.842228 67.008 
L 320.167207 60.288 
L 320.492187 73.728 
L 320.817166 60.288 
L 321.142146 73.728 
L 321.467125 73.728 
L 321.792105 80.448 
L 322.117084 73.728 
L 322.442064 73.728 
L 322.767043 80.448 
L 323.741982 80.448 
L 324.066962 87.168 
L 324.391941 80.448 
L 324.716921 80.448 
L 325.0419 87.168 
L 325.36688 80.448 
L 325.691859 93.888 
L 326.016839 87.168 
L 326.341818 93.888 
L 326.666798 107.328 
L 326.991777 107.328 
L 327.316757 100.608 
L 327.641736 114.048 
L 327.966716 107.328 
L 328.616675 107.328 
L 328.941654 114.048 
L 330.566552 114.048 
L 330.891532 120.768 
L 331.216511 114.048 
L 332.19145 134.208 
L 332.516429 127.488 
L 332.841409 127.488 
L 333.166388 134.208 
L 333.491368 127.488 
L 334.141327 127.488 
L 334.466306 134.208 
L 334.791286 127.488 
L 335.441245 127.488 
L 336.091204 140.928 
L 336.416183 134.208 
L 337.391122 154.368 
L 337.716102 154.368 
L 338.041081 147.648 
L 339.01602 167.808 
L 339.340999 161.088 
L 339.665979 167.808 
L 339.990958 167.808 
L 340.315938 174.528 
L 340.965897 161.088 
L 341.290876 174.528 
L 341.615856 167.808 
L 341.940835 181.248 
L 342.265815 181.248 
L 342.590794 187.968 
L 342.915774 187.968 
L 343.240753 181.248 
L 343.565733 187.968 
L 344.215692 187.968 
L 344.865651 201.408 
L 345.190631 194.688 
L 346.165569 194.688 
L 346.490549 208.128 
L 346.815528 201.408 
L 347.465487 214.848 
L 348.115446 214.848 
L 348.440426 208.128 
L 348.765405 221.568 
L 349.090385 228.288 
L 349.415364 221.568 
L 349.740344 228.288 
L 351.365242 228.288 
L 351.690221 241.728 
L 352.015201 228.288 
L 352.34018 241.728 
L 352.66516 248.448 
L 353.640098 248.448 
L 353.965078 255.168 
L 354.290057 255.168 
L 354.615037 248.448 
L 354.940016 261.888 
L 355.589975 261.888 
L 355.914955 255.168 
L 356.239934 261.888 
L 356.564914 261.888 
L 356.889894 268.608 
L 357.214873 248.448 
L 357.539853 261.888 
L 358.189812 275.328 
L 358.514791 275.328 
L 358.839771 268.608 
L 359.16475 275.328 
L 359.48973 268.608 
L 359.814709 275.328 
L 362.414545 275.328 
L 362.739525 282.048 
L 363.064505 282.048 
L 363.389484 288.768 
L 363.714464 288.768 
L 364.039443 282.048 
L 364.364423 288.768 
L 364.689402 282.048 
L 365.339361 295.488 
L 365.664341 288.768 
L 365.98932 288.768 
L 366.3143 275.328 
L 366.964259 275.328 
L 367.289238 282.048 
L 367.614218 268.608 
L 367.939197 282.048 
L 368.264177 288.768 
L 368.589156 282.048 
L 368.914136 282.048 
L 369.239115 275.328 
L 369.889075 275.328 
L 370.214054 268.608 
L 370.864013 268.608 
L 371.188993 261.888 
L 371.513972 261.888 
L 371.838952 255.168 
L 372.163931 255.168 
L 372.488911 261.888 
L 372.81389 248.448 
L 373.13887 255.168 
L 373.463849 255.168 
L 373.788829 261.888 
L 374.113808 248.448 
L 374.438788 248.448 
L 374.763767 241.728 
L 375.088747 241.728 
L 375.413726 235.008 
L 375.738706 241.728 
L 376.063686 241.728 
L 376.388665 235.008 
L 376.713645 235.008 
L 377.038624 228.288 
L 377.688583 228.288 
L 378.013563 221.568 
L 378.338542 228.288 
L 378.663522 228.288 
L 378.988501 235.008 
L 379.313481 221.568 
L 381.263358 221.568 
L 381.913317 208.128 
L 382.563276 208.128 
L 382.888256 214.848 
L 383.213235 201.408 
L 383.538215 201.408 
L 383.863194 208.128 
L 384.188174 208.128 
L 384.838133 194.688 
L 386.46303 194.688 
L 386.78801 181.248 
L 388.087928 181.248 
L 388.412907 167.808 
L 389.062867 181.248 
L 389.387846 181.248 
L 389.712826 167.808 
L 390.037805 161.088 
L 390.687764 161.088 
L 391.012744 154.368 
L 391.337723 154.368 
L 391.662703 161.088 
L 392.312662 147.648 
L 392.962621 147.648 
L 393.2876 154.368 
L 393.61258 134.208 
L 393.937559 147.648 
L 394.587518 147.648 
L 394.912498 140.928 
L 395.237477 140.928 
L 395.562457 134.208 
L 396.862375 134.208 
L 397.187355 120.768 
L 397.512334 120.768 
L 398.162293 107.328 
L 398.487273 114.048 
L 398.487273 114.048 
" clip-path="url(#p751d8b54a5)" style="fill: none; stroke: #ff7f0e; stroke-width: 1.5; stroke-linecap: square"/>
   </g>
   <g id="line2d_15">
    <path d="M 73.832727 150.050765 
L 77.082523 150.084365 
L 82.607174 150.104525 
L 85.85697 150.064205 
L 90.406683 150.070925 
L 92.68154 150.037325 
L 99.831089 150.077645 
L 102.430925 150.124685 
L 107.630598 150.124685 
L 398.487273 150.165005 
L 398.487273 150.165005 
" clip-path="url(#p751d8b54a5)" style="fill: none; stroke: #2ca02c; stroke-width: 1.5; stroke-linecap: square"/>
   </g>
   <g id="line2d_16">
    <path d="M 73.832727 141.86516 
L 81.307256 141.847688 
L 87.806847 141.873224 
L 398.487273 141.863816 
L 398.487273 141.863816 
" clip-path="url(#p751d8b54a5)" style="fill: none; stroke: #d62728; stroke-width: 1.5; stroke-linecap: square"/>
   </g>
   <g id="patch_3">
    <path d="M 57.6 307.584 
L 57.6 41.472 
" style="fill: none; stroke: #000000; stroke-width: 0.8; stroke-linejoin: miter; stroke-linecap: square"/>
   </g>
   <g id="patch_4">
    <path d="M 414.72 307.584 
L 414.72 41.472 
" style="fill: none; stroke: #000000; stroke-width: 0.8; stroke-linejoin: miter; stroke-linecap: square"/>
   </g>
   <g id="patch_5">
    <path d="M 57.6 307.584 
L 414.72 307.584 
" style="fill: none; stroke: #000000; stroke-width: 0.8; stroke-linejoin: miter; stroke-linecap: square"/>
   </g>
   <g id="patch_6">
    <path d="M 57.6 41.472 
L 414.72 41.472 
" style="fill: none; stroke: #000000; stroke-width: 0.8; stroke-linejoin: miter; stroke-linecap: square"/>
   </g>
  </g>
 </g>
 <defs>
  <clipPath id="p751d8b54a5">
   <rect x="57.6" y="41.472" width="357.12" height="266.112"/>
  </clipPath>
 </defs>
</svg>
