<?xml version="1.0" encoding="utf-8" standalone="no"?>
<!DOCTYPE svg PUBLIC "-//W3C//DTD SVG 1.1//EN"
  "http://www.w3.org/Graphics/SVG/1.1/DTD/svg11.dtd">
<svg xmlns:xlink="http://www.w3.org/1999/xlink" width="460.8pt" height="345.6pt" viewBox="0 0 460.8 345.6" xmlns="http://www.w3.org/2000/svg" version="1.1">
 <metadata>
  <rdf:RDF xmlns:dc="http://purl.org/dc/elements/1.1/" xmlns:cc="http://creativecommons.org/ns#" xmlns:rdf="http://www.w3.org/1999/02/22-rdf-syntax-ns#">
   <cc:Work>
    <dc:type rdf:resource="http://purl.org/dc/dcmitype/StillImage"/>
    <dc:date>2025-12-24T03:11:32.334703</dc:date>
    <dc:format>image/svg+xml</dc:format>
    <dc:creator>
     <cc:Agent>
      <dc:title>Matplotlib v3.10.8, https://matplotlib.org/</dc:title>
     </cc:Agent>
    </dc:creator>
   </cc:Work>
  </rdf:RDF>
 </metadata>
 <defs>
  <style type="text/css">*{stroke-linejoin: round; stroke-linecap: butt}</style>
 </defs>
 <g id="figure_1">
  <g id="patch_1">
   <path d="M 0 345.6 
L 460.8 345.6 
L 460.8 0 
L 0 0 
z
" style="fill: #ffffff"/>
  </g>
  <g id="axes_1">
   <g id="patch_2">
    <path d="M 57.6 307.584 
L 414.72 307.584 
L 414.72 41.472 
L 57.6 41.472 
z
" style="fill: #ffffff"/>
   </g>
   <g id="matplotlib.axis_1">
    <g id="xtick_1">
     <g id="line2d_1">
      <defs>
       <path id="m4cf90d5958" d="M 0 0 
L 0 3.5 
" style="stroke: #000000; stroke-width: 0.8"/>
      </defs>
      <g>
       <use xlink:href="#m4cf90d5958" x="73.832727" y="307.584" style="stroke: #000000; stroke-width: 0.8"/>
      </g>
     </g>
     <g id="text_1">
      <!-- 0 -->
      <g transform="translate(70.651477 322.182437) scale(0.1 -0.1)">
       <defs>
        <path id="DejaVuSans-30" d="M 2034 4250 
Q 1547 4250 1301 3770 
Q 1056 3291 1056 2328 
Q 1056 1369 1301 889 
Q 1547 409 2034 409 
Q 2525 409 2770 889 
Q 3016 1369 3016 2328 
Q 3016 3291 2770 3770 
Q 2525 4250 2034 4250 
z
M 2034 4750 
Q 2819 4750 3233 4129 
Q 3647 3509 3647 2328 
Q 3647 1150 3233 529 
Q 2819 -91 2034 -91 
Q 1250 -91 836 529 
Q 422 1150 422 2328 
Q 422 3509 836 4129 
Q 1250 4750 2034 4750 
z
" transform="scale(0.015625)"/>
       </defs>
       <use xlink:href="#DejaVuSans-30"/>
      </g>
     </g>
    </g>
    <g id="xtick_2">
     <g id="line2d_2">
      <g>
       <use xlink:href="#m4cf90d5958" x="138.828632" y="307.584" style="stroke: #000000; stroke-width: 0.8"/>
      </g>
     </g>
     <g id="text_2">
      <!-- 1 -->
      <g transform="translate(135.647382 322.182437) scale(0.1 -0.1)">
       <defs>
        <path id="DejaVuSans-31" d="M 794 531 
L 1825 531 
L 1825 4091 
L 703 3866 
L 703 4441 
L 1819 4666 
L 2450 4666 
L 2450 531 
L 3481 531 
L 3481 0 
L 794 0 
L 794 531 
z
" transform="scale(0.015625)"/>
       </defs>
       <use xlink:href="#DejaVuSans-31"/>
      </g>
     </g>
    </g>
    <g id="xtick_3">
     <g id="line2d_3">
      <g>
       <use xlink:href="#m4cf90d5958" x="203.824537" y="307.584" style="stroke: #000000; stroke-width: 0.8"/>
      </g>
     </g>
     <g id="text_3">
      <!-- 2 -->
      <g transform="translate(200.643287 322.182437) scale(0.1 -0.1)">
       <defs>
        <path id="DejaVuSans-32" d="M 1228 531 
L 3431 531 
L 3431 0 
L 469 0 
L 469 531 
Q 828 903 1448 1529 
Q 2069 2156 2228 2338 
Q 2531 2678 2651 2914 
Q 2772 3150 2772 3378 
Q 2772 3750 2511 3984 
Q 2250 4219 1831 4219 
Q 1534 4219 1204 4116 
Q 875 4013 500 3803 
L 500 4441 
Q 881 4594 1212 4672 
Q 1544 4750 1819 4750 
Q 2544 4750 2975 4387 
Q 3406 4025 3406 3419 
Q 3406 3131 3298 2873 
Q 3191 2616 2906 2266 
Q 2828 2175 2409 1742 
Q 1991 1309 1228 531 
z
" transform="scale(0.015625)"/>
       </defs>
       <use xlink:href="#DejaVuSans-32"/>
      </g>
     </g>
    </g>
    <g id="xtick_4">
     <g id="line2d_4">
      <g>
       <use xlink:href="#m4cf90d5958" x="268.820442" y="307.584" style="stroke: #000000; stroke-width: 0.8"/>
      </g>
     </g>
     <g id="text_4">
      <!-- 3 -->
      <g transform="translate(265.639192 322.182437) scale(0.1 -0.1)">
       <defs>
        <path id="DejaVuSans-33" d="M 2597 2516 
Q 3050 2419 3304 2112 
Q 3559 1806 3559 1356 
Q 3559 666 3084 287 
Q 2609 -91 1734 -91 
Q 1441 -91 1130 -33 
Q 819 25 488 141 
L 488 750 
Q 750 597 1062 519 
Q 1375 441 1716 441 
Q 2309 441 2620 675 
Q 2931 909 2931 1356 
Q 2931 1769 2642 2001 
Q 2353 2234 1838 2234 
L 1294 2234 
L 1294 2753 
L 1863 2753 
Q 2328 2753 2575 2939 
Q 2822 3125 2822 3475 
Q 2822 3834 2567 4026 
Q 2313 4219 1838 4219 
Q 1578 4219 1281 4162 
Q 984 4106 628 3988 
L 628 4550 
Q 988 4650 1302 4700 
Q 1616 4750 1894 4750 
Q 2613 4750 3031 4423 
Q 3450 4097 3450 3541 
Q 3450 3153 3228 2886 
Q 3006 2619 2597 2516 
z
" transform="scale(0.015625)"/>
       </defs>
       <use xlink:href="#DejaVuSans-33"/>
      </g>
     </g>
    </g>
    <g id="xtick_5">
     <g id="line2d_5">
      <g>
       <use xlink:href="#m4cf90d5958" x="333.816347" y="307.584" style="stroke: #000000; stroke-width: 0.8"/>
      </g>
     </g>
     <g id="text_5">
      <!-- 4 -->
      <g transform="translate(330.635097 322.182437) scale(0.1 -0.1)">
       <defs>
        <path id="DejaVuSans-34" d="M 2419 4116 
L 825 1625 
L 2419 1625 
L 2419 4116 
z
M 2253 4666 
L 3047 4666 
L 3047 1625 
L 3713 1625 
L 3713 1100 
L 3047 1100 
L 3047 0 
L 2419 0 
L 2419 1100 
L 313 1100 
L 313 1709 
L 2253 4666 
z
" transform="scale(0.015625)"/>
       </defs>
       <use xlink:href="#DejaVuSans-34"/>
      </g>
     </g>
    </g>
    <g id="xtick_6">
     <g id="line2d_6">
      <g>
       <use xlink:href="#m4cf90d5958" x="398.812252" y="307.584" style="stroke: #000000; stroke-width: 0.8"/>
      </g>
     </g>
     <g id="text_6">
      <!-- 5 -->
      <g transform="translate(395.631002 322.182437) scale(0.1 -0.1)">
       <defs>
        <path id="DejaVuSans-35" d="M 691 4666 
L 3169 4666 
L 3169 4134 
L 1269 4134 
L 1269 2991 
Q 1406 3038 1543 3061 
Q 1681 3084 1819 3084 
Q 2600 3084 3056 2656 
Q 3513 2228 3513 1497 
Q 3513 744 3044 326 
Q 2575 -91 1722 -91 
Q 1428 -91 1123 -41 
Q 819 9 494 109 
L 494 744 
Q 775 591 1075 516 
Q 1375 441 1709 441 
Q 2250 441 2565 725 
Q 2881 1009 2881 1497 
Q 2881 1984 2565 2268 
Q 2250 2553 1709 2553 
Q 1456 2553 1204 2497 
Q 953 2441 691 2322 
L 691 4666 
z
" transform="scale(0.015625)"/>
       </defs>
       <use xlink:href="#DejaVuSans-35"/>
      </g>
     </g>
    </g>
    <g id="text_7">
     <!-- 1e−7 -->
     <g transform="translate(387.462188 334.860562) scale(0.1 -0.1)">
      <defs>
       <path id="DejaVuSans-65" d="M 3597 1894 
L 3597 1613 
L 953 1613 
Q 991 1019 1311 708 
Q 1631 397 2203 397 
Q 2534 397 2845 478 
Q 3156 559 3463 722 
L 3463 178 
Q 3153 47 2828 -22 
Q 2503 -91 2169 -91 
Q 1331 -91 842 396 
Q 353 884 353 1716 
Q 353 2575 817 3079 
Q 1281 3584 2069 3584 
Q 2775 3584 3186 3129 
Q 3597 2675 3597 1894 
z
M 3022 2063 
Q 3016 2534 2758 2815 
Q 2500 3097 2075 3097 
Q 1594 3097 1305 2825 
Q 1016 2553 972 2059 
L 3022 2063 
z
" transform="scale(0.015625)"/>
       <path id="DejaVuSans-2212" d="M 678 2272 
L 4684 2272 
L 4684 1741 
L 678 1741 
L 678 2272 
z
" transform="scale(0.015625)"/>
       <path id="DejaVuSans-37" d="M 525 4666 
L 3525 4666 
L 3525 4397 
L 1831 0 
L 1172 0 
L 2766 4134 
L 525 4134 
L 525 4666 
z
" transform="scale(0.015625)"/>
      </defs>
      <use xlink:href="#DejaVuSans-31"/>
      <use xlink:href="#DejaVuSans-65" transform="translate(63.623047 0)"/>
      <use xlink:href="#DejaVuSans-2212" transform="translate(125.146484 0)"/>
      <use xlink:href="#DejaVuSans-37" transform="translate(208.935547 0)"/>
     </g>
    </g>
   </g>
   <g id="matplotlib.axis_2">
    <g id="ytick_1">
     <g id="line2d_7">
      <defs>
       <path id="mf4599715b6" d="M 0 0 
L -3.5 0 
" style="stroke: #000000; stroke-width: 0.8"/>
      </defs>
      <g>
       <use xlink:href="#mf4599715b6" x="57.6" y="263.732805" style="stroke: #000000; stroke-width: 0.8"/>
      </g>
     </g>
     <g id="text_8">
      <!-- −2 -->
      <g transform="translate(35.857813 267.532024) scale(0.1 -0.1)">
       <use xlink:href="#DejaVuSans-2212"/>
       <use xlink:href="#DejaVuSans-32" transform="translate(83.789062 0)"/>
      </g>
     </g>
    </g>
    <g id="ytick_2">
     <g id="line2d_8">
      <g>
       <use xlink:href="#mf4599715b6" x="57.6" y="212.802274" style="stroke: #000000; stroke-width: 0.8"/>
      </g>
     </g>
     <g id="text_9">
      <!-- −1 -->
      <g transform="translate(35.857813 216.601493) scale(0.1 -0.1)">
       <use xlink:href="#DejaVuSans-2212"/>
       <use xlink:href="#DejaVuSans-31" transform="translate(83.789062 0)"/>
      </g>
     </g>
    </g>
    <g id="ytick_3">
     <g id="line2d_9">
      <g>
       <use xlink:href="#mf4599715b6" x="57.6" y="161.871742" style="stroke: #000000; stroke-width: 0.8"/>
      </g>
     </g>
     <g id="text_10">
      <!-- 0 -->
      <g transform="translate(44.2375 165.670961) scale(0.1 -0.1)">
       <use xlink:href="#DejaVuSans-30"/>
      </g>
     </g>
    </g>
    <g id="ytick_4">
     <g id="line2d_10">
      <g>
       <use xlink:href="#mf4599715b6" x="57.6" y="110.941211" style="stroke: #000000; stroke-width: 0.8"/>
      </g>
     </g>
     <g id="text_11">
      <!-- 1 -->
      <g transform="translate(44.2375 114.74043) scale(0.1 -0.1)">
       <use xlink:href="#DejaVuSans-31"/>
      </g>
     </g>
    </g>
    <g id="ytick_5">
     <g id="line2d_11">
      <g>
       <use xlink:href="#mf4599715b6" x="57.6" y="60.010679" style="stroke: #000000; stroke-width: 0.8"/>
      </g>
     </g>
     <g id="text_12">
      <!-- 2 -->
      <g transform="translate(44.2375 63.809898) scale(0.1 -0.1)">
       <use xlink:href="#DejaVuSans-32"/>
      </g>
     </g>
    </g>
   </g>
   <g id="line2d_12">
    <path d="M 73.832727 276.389053 
L 74.157707 276.389053 
L 74.482686 273.205895 
L 74.807666 273.205895 
L 75.132645 270.022737 
L 75.457625 263.656421 
L 75.782604 266.839579 
L 76.432563 260.473263 
L 76.757543 260.473263 
L 77.082523 257.290105 
L 77.407502 250.923789 
L 78.057461 244.557474 
L 78.382441 244.557474 
L 78.70742 238.191158 
L 79.0324 238.191158 
L 79.682359 231.824842 
L 80.007338 231.824842 
L 80.332318 228.641684 
L 80.657297 219.092211 
L 80.982277 225.458526 
L 81.632236 212.725895 
L 81.957215 212.725895 
L 82.282195 209.542737 
L 82.607174 209.542737 
L 82.932154 203.176421 
L 83.257133 199.993263 
L 83.582113 199.993263 
L 83.907093 196.810105 
L 84.232072 196.810105 
L 84.882031 190.443789 
L 85.207011 190.443789 
L 85.85697 184.077474 
L 86.181949 184.077474 
L 86.831908 177.711158 
L 87.156888 177.711158 
L 87.481867 174.528 
L 87.806847 174.528 
L 88.456806 168.161684 
L 89.106765 168.161684 
L 89.431744 161.795368 
L 90.406683 161.795368 
L 91.056642 155.429053 
L 91.381622 155.429053 
L 91.706601 158.612211 
L 92.031581 149.062737 
L 92.35656 152.245895 
L 93.006519 152.245895 
L 93.656478 145.879579 
L 95.606355 145.879579 
L 96.256314 139.513263 
L 96.581294 142.696421 
L 97.231253 136.330105 
L 97.556233 139.513263 
L 97.881212 136.330105 
L 98.206192 136.330105 
L 98.531171 133.146947 
L 98.856151 133.146947 
L 99.18113 129.963789 
L 99.50611 129.963789 
L 99.831089 126.780632 
L 100.806028 126.780632 
L 101.131007 123.597474 
L 101.780966 123.597474 
L 102.105946 120.414316 
L 102.430925 114.048 
L 102.755905 117.231158 
L 103.080885 114.048 
L 103.405864 114.048 
L 103.730844 110.864842 
L 104.055823 110.864842 
L 104.705782 104.498526 
L 105.030762 104.498526 
L 105.355741 101.315368 
L 105.680721 101.315368 
L 106.0057 98.132211 
L 106.980639 98.132211 
L 107.305618 94.949053 
L 107.630598 88.582737 
L 108.280557 88.582737 
L 108.930516 82.216421 
L 109.905455 82.216421 
L 110.230434 79.033263 
L 110.555414 79.033263 
L 110.880393 75.850105 
L 111.205373 75.850105 
L 111.855332 69.483789 
L 112.180311 72.666947 
L 112.505291 69.483789 
L 112.83027 69.483789 
L 113.480229 63.117474 
L 114.130188 69.483789 
L 114.780147 63.117474 
L 115.105127 63.117474 
L 115.430106 59.934316 
L 115.755086 63.117474 
L 116.080066 63.117474 
L 116.730025 56.751158 
L 117.055004 56.751158 
L 117.379984 59.934316 
L 117.704963 59.934316 
L 118.029943 56.751158 
L 118.679902 56.751158 
L 119.004881 59.934316 
L 119.329861 56.751158 
L 119.65484 56.751158 
L 119.97982 59.934316 
L 120.629779 59.934316 
L 120.954758 56.751158 
L 121.279738 63.117474 
L 121.604717 63.117474 
L 121.929697 66.300632 
L 122.254676 63.117474 
L 122.904636 69.483789 
L 123.229615 69.483789 
L 123.554595 72.666947 
L 123.879574 72.666947 
L 124.204554 75.850105 
L 124.529533 75.850105 
L 126.80439 98.132211 
L 127.129369 98.132211 
L 127.454349 101.315368 
L 127.779328 107.681684 
L 128.104308 110.864842 
L 128.429287 110.864842 
L 130.054185 126.780632 
L 130.379165 126.780632 
L 130.704144 129.963789 
L 131.029124 129.963789 
L 131.679083 136.330105 
L 132.004062 142.696421 
L 132.329042 142.696421 
L 132.654021 145.879579 
L 132.979001 152.245895 
L 133.30398 155.429053 
L 133.62896 152.245895 
L 133.953939 158.612211 
L 134.603898 164.978526 
L 134.928878 164.978526 
L 135.578837 171.344842 
L 136.553776 171.344842 
L 137.528714 180.894316 
L 137.853694 180.894316 
L 138.178673 187.260632 
L 138.828632 187.260632 
L 139.153612 190.443789 
L 139.478591 190.443789 
L 139.803571 193.626947 
L 140.45353 193.626947 
L 140.778509 196.810105 
L 141.103489 196.810105 
L 141.428468 199.993263 
L 141.753448 199.993263 
L 142.078428 203.176421 
L 143.053366 203.176421 
L 143.378346 206.359579 
L 143.703325 206.359579 
L 144.028305 203.176421 
L 144.353284 206.359579 
L 144.678264 206.359579 
L 145.328223 212.725895 
L 146.95312 212.725895 
L 147.603079 219.092211 
L 147.928059 212.725895 
L 148.902998 222.275368 
L 149.227977 222.275368 
L 149.552957 219.092211 
L 150.202916 225.458526 
L 150.852875 225.458526 
L 151.177854 228.641684 
L 152.152793 228.641684 
L 152.477772 231.824842 
L 152.802752 231.824842 
L 153.127731 235.008 
L 153.452711 231.824842 
L 153.77769 238.191158 
L 154.427649 238.191158 
L 154.752629 244.557474 
L 155.402588 250.923789 
L 155.727568 247.740632 
L 156.052547 247.740632 
L 156.377527 254.106947 
L 156.702506 257.290105 
L 157.027486 254.106947 
L 157.677445 260.473263 
L 158.002424 266.839579 
L 158.327404 266.839579 
L 158.652383 263.656421 
L 158.977363 270.022737 
L 159.627322 270.022737 
L 159.952301 276.389053 
L 160.277281 276.389053 
L 160.60226 279.572211 
L 160.92724 279.572211 
L 161.252219 282.755368 
L 161.902179 282.755368 
L 162.552138 289.121684 
L 163.202097 289.121684 
L 163.527076 295.488 
L 163.852056 292.304842 
L 164.177035 295.488 
L 164.502015 295.488 
L 164.826994 292.304842 
L 165.801933 292.304842 
L 166.126912 289.121684 
L 166.776871 289.121684 
L 167.101851 285.938526 
L 167.42683 285.938526 
L 167.75181 282.755368 
L 168.401769 289.121684 
L 168.726749 282.755368 
L 169.051728 279.572211 
L 169.376708 279.572211 
L 169.701687 276.389053 
L 170.026667 276.389053 
L 170.351646 273.205895 
L 170.676626 273.205895 
L 171.001605 266.839579 
L 171.326585 263.656421 
L 171.976544 263.656421 
L 172.626503 257.290105 
L 172.951482 250.923789 
L 173.601441 250.923789 
L 173.926421 247.740632 
L 174.2514 241.374316 
L 174.90136 241.374316 
L 175.226339 235.008 
L 175.551319 235.008 
L 175.876298 228.641684 
L 176.201278 228.641684 
L 176.526257 225.458526 
L 176.851237 219.092211 
L 177.176216 219.092211 
L 178.476134 206.359579 
L 178.801114 206.359579 
L 179.126093 203.176421 
L 179.451073 196.810105 
L 179.776052 203.176421 
L 180.101032 196.810105 
L 180.426011 193.626947 
L 180.750991 187.260632 
L 181.40095 187.260632 
L 181.72593 184.077474 
L 182.050909 184.077474 
L 183.025848 174.528 
L 183.350827 174.528 
L 183.675807 171.344842 
L 184.000786 171.344842 
L 184.325766 168.161684 
L 184.975725 168.161684 
L 185.950663 158.612211 
L 187.250581 158.612211 
L 187.575561 155.429053 
L 187.900541 155.429053 
L 188.22552 149.062737 
L 188.875479 149.062737 
L 189.200459 152.245895 
L 189.850418 145.879579 
L 190.175397 149.062737 
L 190.500377 142.696421 
L 190.825356 142.696421 
L 191.150336 145.879579 
L 191.475315 142.696421 
L 191.800295 142.696421 
L 192.125274 139.513263 
L 192.450254 139.513263 
L 192.775233 136.330105 
L 194.400131 136.330105 
L 195.05009 129.963789 
L 195.37507 133.146947 
L 196.025029 126.780632 
L 196.350008 126.780632 
L 196.674988 123.597474 
L 196.999967 126.780632 
L 197.324947 120.414316 
L 197.974906 120.414316 
L 198.624865 114.048 
L 199.274824 114.048 
L 199.599803 110.864842 
L 199.924783 110.864842 
L 200.249762 104.498526 
L 200.574742 107.681684 
L 200.899722 104.498526 
L 201.224701 98.132211 
L 201.549681 101.315368 
L 201.87466 98.132211 
L 202.19964 98.132211 
L 202.524619 94.949053 
L 202.849599 94.949053 
L 203.174578 91.765895 
L 203.499558 91.765895 
L 204.149517 85.399579 
L 205.124455 85.399579 
L 205.449435 82.216421 
L 206.099394 82.216421 
L 206.424373 75.850105 
L 207.399312 75.850105 
L 207.724292 72.666947 
L 208.374251 72.666947 
L 209.02421 66.300632 
L 209.999148 66.300632 
L 210.649107 59.934316 
L 210.974087 63.117474 
L 211.299066 63.117474 
L 211.624046 59.934316 
L 212.598984 59.934316 
L 212.923964 56.751158 
L 213.248943 59.934316 
L 214.873841 59.934316 
L 215.198821 63.117474 
L 215.84878 56.751158 
L 216.173759 59.934316 
L 216.498739 56.751158 
L 216.823718 59.934316 
L 217.148698 59.934316 
L 217.798657 66.300632 
L 218.448616 66.300632 
L 218.773595 69.483789 
L 219.098575 69.483789 
L 219.748534 75.850105 
L 220.073514 75.850105 
L 220.723473 82.216421 
L 221.048452 82.216421 
L 221.373432 88.582737 
L 221.698411 88.582737 
L 223.323309 104.498526 
L 223.648288 104.498526 
L 225.598165 123.597474 
L 225.923145 123.597474 
L 226.248124 126.780632 
L 226.573104 133.146947 
L 226.898084 136.330105 
L 227.223063 136.330105 
L 227.873022 142.696421 
L 228.198002 149.062737 
L 228.522981 149.062737 
L 229.17294 155.429053 
L 229.49792 155.429053 
L 229.822899 158.612211 
L 230.147879 158.612211 
L 230.472858 161.795368 
L 230.797838 168.161684 
L 231.122817 164.978526 
L 231.447797 168.161684 
L 231.772776 174.528 
L 232.097756 174.528 
L 232.422735 171.344842 
L 232.747715 177.711158 
L 233.072695 180.894316 
L 233.397674 180.894316 
L 233.722654 184.077474 
L 234.372613 184.077474 
L 235.022572 190.443789 
L 235.347551 187.260632 
L 235.672531 193.626947 
L 235.99751 196.810105 
L 236.32249 196.810105 
L 236.647469 193.626947 
L 236.972449 199.993263 
L 237.622408 199.993263 
L 237.947387 203.176421 
L 238.272367 199.993263 
L 238.597346 203.176421 
L 238.922326 203.176421 
L 239.247305 206.359579 
L 240.222244 206.359579 
L 240.547224 209.542737 
L 240.872203 209.542737 
L 241.197183 212.725895 
L 241.847142 212.725895 
L 242.172121 215.909053 
L 242.497101 215.909053 
L 242.82208 212.725895 
L 243.14706 212.725895 
L 243.472039 215.909053 
L 244.446978 215.909053 
L 245.096937 222.275368 
L 245.421916 219.092211 
L 245.746896 222.275368 
L 246.396855 222.275368 
L 246.721835 225.458526 
L 247.046814 222.275368 
L 247.371794 228.641684 
L 247.696773 228.641684 
L 248.346732 235.008 
L 248.671712 235.008 
L 248.996691 238.191158 
L 249.321671 235.008 
L 249.64665 235.008 
L 250.296609 241.374316 
L 250.621589 241.374316 
L 251.921507 254.106947 
L 252.246486 250.923789 
L 252.571466 257.290105 
L 253.221425 257.290105 
L 253.546405 260.473263 
L 253.871384 266.839579 
L 254.196364 266.839579 
L 254.521343 270.022737 
L 254.846323 270.022737 
L 255.171302 273.205895 
L 255.821261 273.205895 
L 256.47122 279.572211 
L 256.7962 285.938526 
L 257.121179 282.755368 
L 257.446159 282.755368 
L 257.771138 289.121684 
L 258.096118 285.938526 
L 258.421097 285.938526 
L 259.071057 292.304842 
L 261.345913 292.304842 
L 261.670893 295.488 
L 261.995872 292.304842 
L 262.320852 295.488 
L 262.645831 289.121684 
L 262.970811 289.121684 
L 263.29579 285.938526 
L 263.62077 285.938526 
L 263.945749 289.121684 
L 264.270729 285.938526 
L 264.595708 285.938526 
L 264.920688 279.572211 
L 265.570647 273.205895 
L 266.220606 273.205895 
L 266.545586 270.022737 
L 266.870565 273.205895 
L 267.195545 266.839579 
L 267.845504 260.473263 
L 268.170483 266.839579 
L 268.820442 254.106947 
L 269.145422 250.923789 
L 269.470401 250.923789 
L 269.795381 244.557474 
L 270.12036 244.557474 
L 271.420278 231.824842 
L 271.745258 231.824842 
L 272.395217 225.458526 
L 272.720197 225.458526 
L 273.045176 219.092211 
L 273.370156 219.092211 
L 273.695135 212.725895 
L 274.020115 209.542737 
L 274.345094 209.542737 
L 274.670074 206.359579 
L 274.995053 206.359579 
L 275.320033 199.993263 
L 275.969992 193.626947 
L 276.294971 193.626947 
L 276.94493 187.260632 
L 277.26991 187.260632 
L 277.594889 184.077474 
L 277.919869 184.077474 
L 278.244848 177.711158 
L 278.569828 177.711158 
L 279.544767 168.161684 
L 280.519705 168.161684 
L 280.844685 164.978526 
L 281.169664 164.978526 
L 281.494644 161.795368 
L 281.819623 164.978526 
L 282.469582 158.612211 
L 283.119541 158.612211 
L 283.444521 155.429053 
L 284.09448 155.429053 
L 284.419459 149.062737 
L 284.744439 152.245895 
L 285.394398 152.245895 
L 286.044357 145.879579 
L 286.694316 145.879579 
L 287.019296 139.513263 
L 287.344275 142.696421 
L 287.669255 139.513263 
L 287.994234 142.696421 
L 288.319214 142.696421 
L 288.644193 139.513263 
L 288.969173 142.696421 
L 289.619132 136.330105 
L 290.269091 136.330105 
L 290.59407 133.146947 
L 290.91905 136.330105 
L 291.244029 129.963789 
L 291.569009 129.963789 
L 291.893989 133.146947 
L 292.218968 126.780632 
L 292.543948 126.780632 
L 292.868927 123.597474 
L 293.193907 126.780632 
L 293.843866 120.414316 
L 294.493825 120.414316 
L 294.818804 114.048 
L 295.143784 114.048 
L 295.468763 110.864842 
L 296.118722 110.864842 
L 296.768681 104.498526 
L 297.093661 104.498526 
L 297.74362 98.132211 
L 298.393579 98.132211 
L 299.043538 91.765895 
L 299.368518 91.765895 
L 300.018477 85.399579 
L 300.343456 88.582737 
L 300.668436 85.399579 
L 300.993415 85.399579 
L 301.318395 79.033263 
L 301.643374 82.216421 
L 301.968354 79.033263 
L 302.293333 79.033263 
L 302.618313 75.850105 
L 303.593251 75.850105 
L 303.918231 69.483789 
L 304.24321 69.483789 
L 304.56819 72.666947 
L 305.218149 66.300632 
L 305.543129 69.483789 
L 305.868108 66.300632 
L 306.193088 69.483789 
L 306.518067 63.117474 
L 307.493006 63.117474 
L 307.817985 59.934316 
L 308.467944 59.934316 
L 308.792924 63.117474 
L 309.117903 56.751158 
L 309.442883 56.751158 
L 309.767862 59.934316 
L 310.092842 59.934316 
L 310.417821 56.751158 
L 310.742801 59.934316 
L 311.067781 59.934316 
L 311.71774 53.568 
L 312.042719 59.934316 
L 312.367699 63.117474 
L 312.692678 59.934316 
L 313.342637 59.934316 
L 313.992596 66.300632 
L 314.642555 66.300632 
L 314.967535 72.666947 
L 315.617494 72.666947 
L 316.592432 82.216421 
L 316.917412 82.216421 
L 318.21733 94.949053 
L 318.54231 94.949053 
L 318.867289 98.132211 
L 319.192269 107.681684 
L 319.842228 107.681684 
L 320.167207 114.048 
L 320.817166 114.048 
L 322.767043 133.146947 
L 323.092023 139.513263 
L 323.417002 139.513263 
L 323.741982 142.696421 
L 324.066962 142.696421 
L 324.391941 149.062737 
L 325.0419 149.062737 
L 325.691859 161.795368 
L 326.016839 158.612211 
L 326.666798 164.978526 
L 326.991777 171.344842 
L 327.641736 171.344842 
L 328.291695 177.711158 
L 328.616675 177.711158 
L 329.266634 184.077474 
L 330.241572 184.077474 
L 330.566552 190.443789 
L 331.541491 190.443789 
L 332.19145 196.810105 
L 332.841409 196.810105 
L 333.166388 199.993263 
L 333.816347 199.993263 
L 334.141327 203.176421 
L 335.441245 203.176421 
L 336.091204 209.542737 
L 336.416183 206.359579 
L 336.741163 209.542737 
L 337.066143 209.542737 
L 337.391122 212.725895 
L 337.716102 209.542737 
L 338.041081 209.542737 
L 338.366061 215.909053 
L 338.69104 215.909053 
L 339.01602 212.725895 
L 339.665979 219.092211 
L 339.990958 215.909053 
L 340.640917 215.909053 
L 341.290876 222.275368 
L 341.615856 222.275368 
L 341.940835 225.458526 
L 342.590794 225.458526 
L 342.915774 222.275368 
L 343.565733 228.641684 
L 343.890713 228.641684 
L 344.215692 231.824842 
L 344.865651 231.824842 
L 345.51561 238.191158 
L 345.84059 235.008 
L 346.165569 244.557474 
L 347.140508 244.557474 
L 347.790467 250.923789 
L 348.115446 250.923789 
L 348.765405 257.290105 
L 349.090385 257.290105 
L 349.415364 260.473263 
L 349.740344 260.473263 
L 350.065324 266.839579 
L 350.390303 266.839579 
L 350.715283 270.022737 
L 351.040262 270.022737 
L 351.365242 276.389053 
L 352.015201 276.389053 
L 352.34018 279.572211 
L 352.66516 279.572211 
L 352.990139 285.938526 
L 353.315119 282.755368 
L 353.640098 282.755368 
L 353.965078 285.938526 
L 354.290057 285.938526 
L 354.615037 289.121684 
L 354.940016 289.121684 
L 355.264996 292.304842 
L 355.589975 292.304842 
L 355.914955 295.488 
L 356.239934 292.304842 
L 356.564914 292.304842 
L 356.889894 295.488 
L 357.214873 292.304842 
L 357.539853 295.488 
L 357.864832 292.304842 
L 358.514791 292.304842 
L 359.16475 285.938526 
L 359.814709 285.938526 
L 360.139689 282.755368 
L 361.114627 282.755368 
L 361.439607 276.389053 
L 362.089566 270.022737 
L 363.064505 270.022737 
L 363.389484 266.839579 
L 363.714464 260.473263 
L 364.039443 260.473263 
L 364.364423 257.290105 
L 364.689402 250.923789 
L 365.014382 250.923789 
L 365.339361 247.740632 
L 365.664341 247.740632 
L 366.3143 241.374316 
L 366.639279 235.008 
L 366.964259 238.191158 
L 367.289238 231.824842 
L 367.614218 228.641684 
L 367.939197 228.641684 
L 368.264177 225.458526 
L 368.589156 225.458526 
L 368.914136 219.092211 
L 369.239115 215.909053 
L 369.564095 215.909053 
L 369.889075 209.542737 
L 370.214054 209.542737 
L 370.539034 203.176421 
L 371.188993 203.176421 
L 371.513972 199.993263 
L 371.838952 190.443789 
L 372.163931 193.626947 
L 373.13887 184.077474 
L 373.463849 187.260632 
L 373.788829 184.077474 
L 374.113808 177.711158 
L 374.438788 177.711158 
L 374.763767 174.528 
L 375.088747 174.528 
L 375.738706 168.161684 
L 376.388665 168.161684 
L 377.038624 161.795368 
L 378.013563 161.795368 
L 378.663522 155.429053 
L 379.313481 155.429053 
L 379.63846 152.245895 
L 379.96344 152.245895 
L 380.288419 149.062737 
L 380.938378 149.062737 
L 381.263358 145.879579 
L 381.588337 149.062737 
L 381.913317 145.879579 
L 382.888256 145.879579 
L 383.213235 142.696421 
L 384.188174 142.696421 
L 384.838133 136.330105 
L 385.488092 136.330105 
L 385.813071 133.146947 
L 386.138051 136.330105 
L 386.46303 133.146947 
L 387.112989 133.146947 
L 387.437969 129.963789 
L 388.087928 129.963789 
L 388.412907 123.597474 
L 389.712826 123.597474 
L 390.037805 117.231158 
L 390.362785 114.048 
L 390.687764 117.231158 
L 391.012744 110.864842 
L 391.337723 114.048 
L 391.662703 110.864842 
L 391.987682 110.864842 
L 392.637641 104.498526 
L 392.962621 104.498526 
L 393.2876 98.132211 
L 393.61258 98.132211 
L 393.937559 101.315368 
L 394.262539 98.132211 
L 394.587518 98.132211 
L 394.912498 91.765895 
L 395.237477 88.582737 
L 395.887437 88.582737 
L 396.212416 85.399579 
L 396.537396 85.399579 
L 396.862375 82.216421 
L 397.187355 85.399579 
L 397.512334 85.399579 
L 397.837314 79.033263 
L 398.162293 79.033263 
L 398.487273 75.850105 
L 398.487273 75.850105 
" clip-path="url(#pf78d87afb5)" style="fill: none; stroke: #1f77b4; stroke-width: 1.5; stroke-linecap: square"/>
   </g>
   <g id="patch_3">
    <path d="M 57.6 307.584 
L 57.6 41.472 
" style="fill: none; stroke: #000000; stroke-width: 0.8; stroke-linejoin: miter; stroke-linecap: square"/>
   </g>
   <g id="patch_4">
    <path d="M 414.72 307.584 
L 414.72 41.472 
" style="fill: none; stroke: #000000; stroke-width: 0.8; stroke-linejoin: miter; stroke-linecap: square"/>
   </g>
   <g id="patch_5">
    <path d="M 57.6 307.584 
L 414.72 307.584 
" style="fill: none; stroke: #000000; stroke-width: 0.8; stroke-linejoin: miter; stroke-linecap: square"/>
   </g>
   <g id="patch_6">
    <path d="M 57.6 41.472 
L 414.72 41.472 
" style="fill: none; stroke: #000000; stroke-width: 0.8; stroke-linejoin: miter; stroke-linecap: square"/>
   </g>
  </g>
 </g>
 <defs>
  <clipPath id="pf78d87afb5">
   <rect x="57.6" y="41.472" width="357.12" height="266.112"/>
  </clipPath>
 </defs>
</svg>
