<?xml version="1.0" encoding="utf-8" standalone="no"?>
<!DOCTYPE svg PUBLIC "-//W3C//DTD SVG 1.1//EN"
  "http://www.w3.org/Graphics/SVG/1.1/DTD/svg11.dtd">
<svg xmlns:xlink="http://www.w3.org/1999/xlink" width="460.8pt" height="345.6pt" viewBox="0 0 460.8 345.6" xmlns="http://www.w3.org/2000/svg" version="1.1">
 <metadata>
  <rdf:RDF xmlns:dc="http://purl.org/dc/elements/1.1/" xmlns:cc="http://creativecommons.org/ns#" xmlns:rdf="http://www.w3.org/1999/02/22-rdf-syntax-ns#">
   <cc:Work>
    <dc:type rdf:resource="http://purl.org/dc/dcmitype/StillImage"/>
    <dc:date>2025-12-30T05:02:19.257270</dc:date>
    <dc:format>image/svg+xml</dc:format>
    <dc:creator>
     <cc:Agent>
      <dc:title>Matplotlib v3.10.8, https://matplotlib.org/</dc:title>
     </cc:Agent>
    </dc:creator>
   </cc:Work>
  </rdf:RDF>
 </metadata>
 <defs>
  <style type="text/css">*{stroke-linejoin: round; stroke-linecap: butt}</style>
 </defs>
 <g id="figure_1">
  <g id="patch_1">
   <path d="M 0 345.6 
L 460.8 345.6 
L 460.8 0 
L 0 0 
z
" style="fill: #ffffff"/>
  </g>
  <g id="axes_1">
   <g id="patch_2">
    <path d="M 57.6 307.584 
L 414.72 307.584 
L 414.72 41.472 
L 57.6 41.472 
z
" style="fill: #ffffff"/>
   </g>
   <g id="matplotlib.axis_1">
    <g id="xtick_1">
     <g id="line2d_1">
      <defs>
       <path id="mcc601c0898" d="M 0 0 
L 0 3.5 
" style="stroke: #000000; stroke-width: 0.8"/>
      </defs>
      <g>
       <use xlink:href="#mcc601c0898" x="73.832727" y="307.584" style="stroke: #000000; stroke-width: 0.8"/>
      </g>
     </g>
     <g id="text_1">
      <!-- 0 -->
      <g transform="translate(70.651477 322.182437) scale(0.1 -0.1)">
       <defs>
        <path id="DejaVuSans-30" d="M 2034 4250 
Q 1547 4250 1301 3770 
Q 1056 3291 1056 2328 
Q 1056 1369 1301 889 
Q 1547 409 2034 409 
Q 2525 409 2770 889 
Q 3016 1369 3016 2328 
Q 3016 3291 2770 3770 
Q 2525 4250 2034 4250 
z
M 2034 4750 
Q 2819 4750 3233 4129 
Q 3647 3509 3647 2328 
Q 3647 1150 3233 529 
Q 2819 -91 2034 -91 
Q 1250 -91 836 529 
Q 422 1150 422 2328 
Q 422 3509 836 4129 
Q 1250 4750 2034 4750 
z
" transform="scale(0.015625)"/>
       </defs>
       <use xlink:href="#DejaVuSans-30"/>
      </g>
     </g>
    </g>
    <g id="xtick_2">
     <g id="line2d_2">
      <g>
       <use xlink:href="#mcc601c0898" x="138.828632" y="307.584" style="stroke: #000000; stroke-width: 0.8"/>
      </g>
     </g>
     <g id="text_2">
      <!-- 1 -->
      <g transform="translate(135.647382 322.182437) scale(0.1 -0.1)">
       <defs>
        <path id="DejaVuSans-31" d="M 794 531 
L 1825 531 
L 1825 4091 
L 703 3866 
L 703 4441 
L 1819 4666 
L 2450 4666 
L 2450 531 
L 3481 531 
L 3481 0 
L 794 0 
L 794 531 
z
" transform="scale(0.015625)"/>
       </defs>
       <use xlink:href="#DejaVuSans-31"/>
      </g>
     </g>
    </g>
    <g id="xtick_3">
     <g id="line2d_3">
      <g>
       <use xlink:href="#mcc601c0898" x="203.824537" y="307.584" style="stroke: #000000; stroke-width: 0.8"/>
      </g>
     </g>
     <g id="text_3">
      <!-- 2 -->
      <g transform="translate(200.643287 322.182437) scale(0.1 -0.1)">
       <defs>
        <path id="DejaVuSans-32" d="M 1228 531 
L 3431 531 
L 3431 0 
L 469 0 
L 469 531 
Q 828 903 1448 1529 
Q 2069 2156 2228 2338 
Q 2531 2678 2651 2914 
Q 2772 3150 2772 3378 
Q 2772 3750 2511 3984 
Q 2250 4219 1831 4219 
Q 1534 4219 1204 4116 
Q 875 4013 500 3803 
L 500 4441 
Q 881 4594 1212 4672 
Q 1544 4750 1819 4750 
Q 2544 4750 2975 4387 
Q 3406 4025 3406 3419 
Q 3406 3131 3298 2873 
Q 3191 2616 2906 2266 
Q 2828 2175 2409 1742 
Q 1991 1309 1228 531 
z
" transform="scale(0.015625)"/>
       </defs>
       <use xlink:href="#DejaVuSans-32"/>
      </g>
     </g>
    </g>
    <g id="xtick_4">
     <g id="line2d_4">
      <g>
       <use xlink:href="#mcc601c0898" x="268.820442" y="307.584" style="stroke: #000000; stroke-width: 0.8"/>
      </g>
     </g>
     <g id="text_4">
      <!-- 3 -->
      <g transform="translate(265.639192 322.182437) scale(0.1 -0.1)">
       <defs>
        <path id="DejaVuSans-33" d="M 2597 2516 
Q 3050 2419 3304 2112 
Q 3559 1806 3559 1356 
Q 3559 666 3084 287 
Q 2609 -91 1734 -91 
Q 1441 -91 1130 -33 
Q 819 25 488 141 
L 488 750 
Q 750 597 1062 519 
Q 1375 441 1716 441 
Q 2309 441 2620 675 
Q 2931 909 2931 1356 
Q 2931 1769 2642 2001 
Q 2353 2234 1838 2234 
L 1294 2234 
L 1294 2753 
L 1863 2753 
Q 2328 2753 2575 2939 
Q 2822 3125 2822 3475 
Q 2822 3834 2567 4026 
Q 2313 4219 1838 4219 
Q 1578 4219 1281 4162 
Q 984 4106 628 3988 
L 628 4550 
Q 988 4650 1302 4700 
Q 1616 4750 1894 4750 
Q 2613 4750 3031 4423 
Q 3450 4097 3450 3541 
Q 3450 3153 3228 2886 
Q 3006 2619 2597 2516 
z
" transform="scale(0.015625)"/>
       </defs>
       <use xlink:href="#DejaVuSans-33"/>
      </g>
     </g>
    </g>
    <g id="xtick_5">
     <g id="line2d_5">
      <g>
       <use xlink:href="#mcc601c0898" x="333.816347" y="307.584" style="stroke: #000000; stroke-width: 0.8"/>
      </g>
     </g>
     <g id="text_5">
      <!-- 4 -->
      <g transform="translate(330.635097 322.182437) scale(0.1 -0.1)">
       <defs>
        <path id="DejaVuSans-34" d="M 2419 4116 
L 825 1625 
L 2419 1625 
L 2419 4116 
z
M 2253 4666 
L 3047 4666 
L 3047 1625 
L 3713 1625 
L 3713 1100 
L 3047 1100 
L 3047 0 
L 2419 0 
L 2419 1100 
L 313 1100 
L 313 1709 
L 2253 4666 
z
" transform="scale(0.015625)"/>
       </defs>
       <use xlink:href="#DejaVuSans-34"/>
      </g>
     </g>
    </g>
    <g id="xtick_6">
     <g id="line2d_6">
      <g>
       <use xlink:href="#mcc601c0898" x="398.812252" y="307.584" style="stroke: #000000; stroke-width: 0.8"/>
      </g>
     </g>
     <g id="text_6">
      <!-- 5 -->
      <g transform="translate(395.631002 322.182437) scale(0.1 -0.1)">
       <defs>
        <path id="DejaVuSans-35" d="M 691 4666 
L 3169 4666 
L 3169 4134 
L 1269 4134 
L 1269 2991 
Q 1406 3038 1543 3061 
Q 1681 3084 1819 3084 
Q 2600 3084 3056 2656 
Q 3513 2228 3513 1497 
Q 3513 744 3044 326 
Q 2575 -91 1722 -91 
Q 1428 -91 1123 -41 
Q 819 9 494 109 
L 494 744 
Q 775 591 1075 516 
Q 1375 441 1709 441 
Q 2250 441 2565 725 
Q 2881 1009 2881 1497 
Q 2881 1984 2565 2268 
Q 2250 2553 1709 2553 
Q 1456 2553 1204 2497 
Q 953 2441 691 2322 
L 691 4666 
z
" transform="scale(0.015625)"/>
       </defs>
       <use xlink:href="#DejaVuSans-35"/>
      </g>
     </g>
    </g>
    <g id="text_7">
     <!-- 1e−7 -->
     <g transform="translate(387.462188 334.860562) scale(0.1 -0.1)">
      <defs>
       <path id="DejaVuSans-65" d="M 3597 1894 
L 3597 1613 
L 953 1613 
Q 991 1019 1311 708 
Q 1631 397 2203 397 
Q 2534 397 2845 478 
Q 3156 559 3463 722 
L 3463 178 
Q 3153 47 2828 -22 
Q 2503 -91 2169 -91 
Q 1331 -91 842 396 
Q 353 884 353 1716 
Q 353 2575 817 3079 
Q 1281 3584 2069 3584 
Q 2775 3584 3186 3129 
Q 3597 2675 3597 1894 
z
M 3022 2063 
Q 3016 2534 2758 2815 
Q 2500 3097 2075 3097 
Q 1594 3097 1305 2825 
Q 1016 2553 972 2059 
L 3022 2063 
z
" transform="scale(0.015625)"/>
       <path id="DejaVuSans-2212" d="M 678 2272 
L 4684 2272 
L 4684 1741 
L 678 1741 
L 678 2272 
z
" transform="scale(0.015625)"/>
       <path id="DejaVuSans-37" d="M 525 4666 
L 3525 4666 
L 3525 4397 
L 1831 0 
L 1172 0 
L 2766 4134 
L 525 4134 
L 525 4666 
z
" transform="scale(0.015625)"/>
      </defs>
      <use xlink:href="#DejaVuSans-31"/>
      <use xlink:href="#DejaVuSans-65" transform="translate(63.623047 0)"/>
      <use xlink:href="#DejaVuSans-2212" transform="translate(125.146484 0)"/>
      <use xlink:href="#DejaVuSans-37" transform="translate(208.935547 0)"/>
     </g>
    </g>
   </g>
   <g id="matplotlib.axis_2">
    <g id="ytick_1">
     <g id="line2d_7">
      <defs>
       <path id="m8e38b078fe" d="M 0 0 
L -3.5 0 
" style="stroke: #000000; stroke-width: 0.8"/>
      </defs>
      <g>
       <use xlink:href="#m8e38b078fe" x="57.6" y="299.436943" style="stroke: #000000; stroke-width: 0.8"/>
      </g>
     </g>
     <g id="text_8">
      <!-- 0 -->
      <g transform="translate(44.2375 303.236161) scale(0.1 -0.1)">
       <use xlink:href="#DejaVuSans-30"/>
      </g>
     </g>
    </g>
    <g id="ytick_2">
     <g id="line2d_8">
      <g>
       <use xlink:href="#m8e38b078fe" x="57.6" y="247.975702" style="stroke: #000000; stroke-width: 0.8"/>
      </g>
     </g>
     <g id="text_9">
      <!-- 10 -->
      <g transform="translate(37.875 251.774921) scale(0.1 -0.1)">
       <use xlink:href="#DejaVuSans-31"/>
       <use xlink:href="#DejaVuSans-30" transform="translate(63.623047 0)"/>
      </g>
     </g>
    </g>
    <g id="ytick_3">
     <g id="line2d_9">
      <g>
       <use xlink:href="#m8e38b078fe" x="57.6" y="196.514461" style="stroke: #000000; stroke-width: 0.8"/>
      </g>
     </g>
     <g id="text_10">
      <!-- 20 -->
      <g transform="translate(37.875 200.31368) scale(0.1 -0.1)">
       <use xlink:href="#DejaVuSans-32"/>
       <use xlink:href="#DejaVuSans-30" transform="translate(63.623047 0)"/>
      </g>
     </g>
    </g>
    <g id="ytick_4">
     <g id="line2d_10">
      <g>
       <use xlink:href="#m8e38b078fe" x="57.6" y="145.053221" style="stroke: #000000; stroke-width: 0.8"/>
      </g>
     </g>
     <g id="text_11">
      <!-- 30 -->
      <g transform="translate(37.875 148.852439) scale(0.1 -0.1)">
       <use xlink:href="#DejaVuSans-33"/>
       <use xlink:href="#DejaVuSans-30" transform="translate(63.623047 0)"/>
      </g>
     </g>
    </g>
    <g id="ytick_5">
     <g id="line2d_11">
      <g>
       <use xlink:href="#m8e38b078fe" x="57.6" y="93.59198" style="stroke: #000000; stroke-width: 0.8"/>
      </g>
     </g>
     <g id="text_12">
      <!-- 40 -->
      <g transform="translate(37.875 97.391199) scale(0.1 -0.1)">
       <use xlink:href="#DejaVuSans-34"/>
       <use xlink:href="#DejaVuSans-30" transform="translate(63.623047 0)"/>
      </g>
     </g>
    </g>
    <g id="ytick_6">
     <g id="line2d_12">
      <g>
       <use xlink:href="#m8e38b078fe" x="57.6" y="42.130739" style="stroke: #000000; stroke-width: 0.8"/>
      </g>
     </g>
     <g id="text_13">
      <!-- 50 -->
      <g transform="translate(37.875 45.929958) scale(0.1 -0.1)">
       <use xlink:href="#DejaVuSans-35"/>
       <use xlink:href="#DejaVuSans-30" transform="translate(63.623047 0)"/>
      </g>
     </g>
    </g>
   </g>
   <g id="line2d_13">
    <path d="M 73.832727 174.593903 
L 74.157707 174.593903 
L 74.482686 174.191862 
L 74.807666 174.111453 
L 75.782604 174.27227 
L 76.107584 173.950637 
L 76.757543 173.548596 
L 77.407502 174.111453 
L 77.732482 174.352678 
L 78.382441 173.950637 
L 78.70742 174.111453 
L 79.0324 174.593903 
L 79.357379 174.593903 
L 80.332318 173.950637 
L 80.982277 174.352678 
L 81.307256 174.513494 
L 81.957215 174.111453 
L 82.282195 174.111453 
L 82.607174 174.352678 
L 82.932154 174.352678 
L 83.257133 174.191862 
L 83.582113 173.870229 
L 83.907093 173.870229 
L 84.232072 174.031045 
L 84.557052 174.433086 
L 85.207011 174.191862 
L 85.53199 174.031045 
L 86.506929 174.513494 
L 86.831908 174.352678 
L 87.156888 173.950637 
L 87.481867 173.870229 
L 88.781785 174.111453 
L 89.431744 174.111453 
L 89.756724 174.27227 
L 90.081704 173.950637 
L 90.406683 173.789821 
L 90.731663 173.950637 
L 91.056642 174.27227 
L 91.706601 174.513494 
L 92.031581 174.352678 
L 92.35656 173.870229 
L 92.68154 173.789821 
L 93.656478 174.352678 
L 93.981458 174.031045 
L 94.306437 173.870229 
L 94.956396 174.754719 
L 95.281376 174.513494 
L 95.606355 174.111453 
L 95.931335 174.031045 
L 96.581294 174.674311 
L 96.906274 174.754719 
L 97.556233 173.709413 
L 97.881212 173.629004 
L 98.206192 174.111453 
L 98.531171 174.915535 
L 98.856151 175.076352 
L 99.18113 174.27227 
L 99.50611 173.870229 
L 99.831089 173.870229 
L 100.156069 174.352678 
L 101.131007 174.111453 
L 101.780966 174.915535 
L 102.105946 174.995944 
L 102.755905 174.031045 
L 103.080885 174.111453 
L 103.730844 174.995944 
L 104.055823 174.674311 
L 104.380803 174.031045 
L 104.705782 173.709413 
L 105.030762 174.111453 
L 105.355741 175.076352 
L 105.680721 175.15676 
L 106.33068 173.629004 
L 106.655659 173.950637 
L 107.305618 175.317576 
L 107.630598 175.15676 
L 107.955577 174.433086 
L 108.280557 174.191862 
L 108.605536 174.593903 
L 108.930516 175.237168 
L 109.255495 175.15676 
L 109.905455 173.870229 
L 110.230434 174.031045 
L 110.555414 174.754719 
L 110.880393 175.15676 
L 111.530352 174.031045 
L 111.855332 174.111453 
L 112.505291 175.478393 
L 112.83027 175.317576 
L 113.480229 173.789821 
L 113.805209 174.191862 
L 114.130188 175.15676 
L 114.455168 175.719617 
L 114.780147 175.15676 
L 115.105127 174.111453 
L 115.430106 173.789821 
L 116.080066 175.15676 
L 116.405045 175.076352 
L 116.730025 174.352678 
L 117.055004 174.031045 
L 117.379984 174.352678 
L 117.704963 175.076352 
L 118.029943 175.317576 
L 118.679902 174.352678 
L 119.004881 174.352678 
L 119.65484 175.478393 
L 119.97982 175.317576 
L 120.304799 174.433086 
L 120.629779 174.111453 
L 121.279738 175.237168 
L 121.604717 175.15676 
L 121.929697 174.352678 
L 122.254676 173.950637 
L 122.579656 174.111453 
L 122.904636 174.754719 
L 123.229615 175.076352 
L 123.554595 174.835127 
L 123.879574 174.352678 
L 124.204554 174.111453 
L 124.854513 175.397985 
L 125.179492 175.317576 
L 125.504472 174.593903 
L 125.829451 174.593903 
L 126.47941 174.995944 
L 126.80439 174.915535 
L 127.129369 174.433086 
L 127.454349 174.191862 
L 127.779328 174.352678 
L 128.104308 174.835127 
L 128.429287 174.915535 
L 129.079247 173.950637 
L 129.404226 174.031045 
L 130.054185 175.15676 
L 130.379165 174.915535 
L 130.704144 174.352678 
L 131.029124 174.27227 
L 131.354103 174.513494 
L 132.004062 175.15676 
L 132.654021 174.513494 
L 132.979001 174.433086 
L 133.62896 175.076352 
L 133.953939 174.915535 
L 134.278919 174.513494 
L 134.603898 174.352678 
L 135.253857 174.754719 
L 135.578837 174.593903 
L 135.903817 174.191862 
L 136.228796 174.191862 
L 136.553776 174.433086 
L 138.178673 174.513494 
L 138.503653 174.674311 
L 138.828632 174.674311 
L 139.153612 174.433086 
L 139.478591 174.352678 
L 139.803571 174.433086 
L 140.12855 174.754719 
L 140.778509 174.513494 
L 141.103489 174.27227 
L 141.753448 174.674311 
L 142.403407 175.076352 
L 143.053366 174.433086 
L 143.378346 174.352678 
L 144.028305 174.433086 
L 145.003243 174.27227 
L 145.978182 174.433086 
L 146.303161 174.191862 
L 146.628141 174.27227 
L 146.95312 174.513494 
L 147.603079 174.513494 
L 148.253038 173.870229 
L 149.227977 174.433086 
L 149.552957 174.27227 
L 150.202916 174.27227 
L 150.527895 174.513494 
L 151.177854 174.593903 
L 151.502834 174.593903 
L 152.152793 174.915535 
L 152.477772 174.593903 
L 152.802752 174.111453 
L 153.127731 173.870229 
L 153.452711 173.870229 
L 154.10267 174.111453 
L 154.427649 174.191862 
L 154.752629 174.031045 
L 155.077609 174.111453 
L 155.727568 174.513494 
L 156.702506 174.111453 
L 157.352465 174.835127 
L 157.677445 174.835127 
L 158.327404 174.27227 
L 158.652383 174.352678 
L 158.977363 174.674311 
L 159.302342 174.754719 
L 159.627322 174.513494 
L 159.952301 174.111453 
L 160.60226 174.191862 
L 160.92724 174.513494 
L 161.252219 174.433086 
L 161.577199 174.111453 
L 161.902179 173.950637 
L 162.552138 174.513494 
L 163.202097 174.27227 
L 163.527076 173.950637 
L 163.852056 174.031045 
L 164.502015 174.754719 
L 164.826994 174.674311 
L 165.476953 174.031045 
L 165.801933 174.031045 
L 166.126912 174.27227 
L 166.451892 174.352678 
L 166.776871 174.27227 
L 167.101851 174.031045 
L 167.42683 174.111453 
L 167.75181 174.433086 
L 168.401769 174.513494 
L 168.726749 174.27227 
L 169.376708 174.352678 
L 169.701687 174.674311 
L 170.026667 174.674311 
L 170.351646 174.27227 
L 170.676626 174.111453 
L 171.651564 174.27227 
L 171.976544 174.111453 
L 172.301523 173.789821 
L 172.626503 173.789821 
L 173.601441 174.352678 
L 173.926421 174.111453 
L 174.2514 174.031045 
L 174.90136 174.593903 
L 175.226339 174.593903 
L 175.876298 173.950637 
L 176.201278 173.950637 
L 176.526257 174.111453 
L 176.851237 174.513494 
L 177.176216 174.593903 
L 177.501196 174.27227 
L 177.826175 174.191862 
L 178.476134 174.433086 
L 178.801114 174.593903 
L 179.451073 173.950637 
L 179.776052 173.789821 
L 180.750991 174.433086 
L 181.40095 174.031045 
L 181.72593 174.352678 
L 182.375889 174.433086 
L 183.350827 173.870229 
L 184.650745 174.27227 
L 184.975725 174.111453 
L 185.300704 174.111453 
L 185.625684 174.27227 
L 185.950663 173.870229 
L 186.275643 173.789821 
L 186.925602 174.191862 
L 187.250581 174.513494 
L 187.575561 174.593903 
L 188.22552 174.031045 
L 188.875479 174.031045 
L 189.200459 174.433086 
L 189.525438 174.433086 
L 189.850418 174.111453 
L 190.175397 174.031045 
L 190.825356 174.915535 
L 191.475315 174.191862 
L 191.800295 174.111453 
L 192.450254 174.835127 
L 192.775233 174.915535 
L 193.100213 174.191862 
L 193.425192 173.789821 
L 193.750172 173.629004 
L 194.075152 174.111453 
L 194.400131 174.915535 
L 194.725111 174.995944 
L 195.37507 173.789821 
L 195.700049 173.870229 
L 196.025029 174.27227 
L 196.350008 174.352678 
L 196.999967 174.111453 
L 197.649926 174.915535 
L 197.974906 174.995944 
L 198.624865 174.191862 
L 198.949844 174.27227 
L 199.599803 175.076352 
L 199.924783 174.754719 
L 200.249762 174.031045 
L 200.574742 173.709413 
L 200.899722 174.27227 
L 201.224701 175.15676 
L 201.549681 175.237168 
L 202.19964 173.709413 
L 202.524619 173.950637 
L 203.174578 175.397985 
L 203.499558 175.15676 
L 203.824537 174.513494 
L 204.149517 174.27227 
L 204.799476 175.237168 
L 205.124455 175.15676 
L 205.774414 173.950637 
L 206.099394 174.111453 
L 206.424373 174.754719 
L 206.749353 175.076352 
L 207.074333 174.674311 
L 207.399312 174.031045 
L 207.724292 174.031045 
L 208.374251 175.478393 
L 208.69923 175.237168 
L 209.349189 173.870229 
L 209.674169 174.111453 
L 209.999148 175.15676 
L 210.324128 175.639209 
L 210.649107 175.15676 
L 210.974087 174.111453 
L 211.299066 173.789821 
L 211.949025 174.995944 
L 212.274005 174.915535 
L 212.598984 174.191862 
L 212.923964 173.870229 
L 213.248943 174.191862 
L 213.573923 174.995944 
L 213.898903 175.237168 
L 214.548862 174.191862 
L 214.873841 174.111453 
L 215.5238 175.397985 
L 215.84878 175.15676 
L 216.173759 174.433086 
L 216.498739 174.031045 
L 217.148698 175.076352 
L 217.473677 174.995944 
L 218.123636 173.709413 
L 218.448616 173.870229 
L 218.773595 174.593903 
L 219.098575 174.915535 
L 219.423554 174.593903 
L 219.748534 174.111453 
L 220.073514 173.950637 
L 220.723473 175.317576 
L 221.048452 175.15676 
L 221.373432 174.593903 
L 221.698411 174.433086 
L 222.023391 174.754719 
L 222.34837 174.915535 
L 222.67335 174.754719 
L 223.323309 174.031045 
L 223.648288 174.27227 
L 223.973268 174.835127 
L 224.298247 174.995944 
L 224.948206 174.031045 
L 225.273186 174.031045 
L 225.923145 175.076352 
L 226.248124 174.835127 
L 226.573104 174.433086 
L 226.898084 174.27227 
L 227.223063 174.433086 
L 227.873022 175.076352 
L 228.522981 174.433086 
L 228.847961 174.433086 
L 229.49792 175.076352 
L 229.822899 174.915535 
L 230.472858 174.27227 
L 230.797838 174.593903 
L 231.122817 174.754719 
L 231.447797 174.674311 
L 231.772776 174.27227 
L 232.747715 174.352678 
L 233.072695 174.513494 
L 233.397674 174.352678 
L 234.047633 174.433086 
L 234.372613 174.674311 
L 234.697592 174.593903 
L 235.022572 174.352678 
L 235.347551 174.27227 
L 235.672531 174.433086 
L 235.99751 174.754719 
L 236.32249 174.754719 
L 236.647469 174.433086 
L 236.972449 174.352678 
L 238.272367 174.995944 
L 238.922326 174.352678 
L 239.247305 174.352678 
L 239.572285 174.593903 
L 240.872203 174.191862 
L 241.197183 174.433086 
L 241.847142 174.433086 
L 242.172121 174.191862 
L 243.472039 174.593903 
L 243.797019 174.111453 
L 244.121998 173.870229 
L 244.446978 173.950637 
L 244.771957 174.352678 
L 245.096937 174.433086 
L 245.421916 174.27227 
L 247.046814 174.593903 
L 247.371794 174.593903 
L 248.021753 174.835127 
L 248.346732 174.593903 
L 248.996691 173.789821 
L 249.321671 173.789821 
L 249.64665 174.031045 
L 250.296609 174.111453 
L 250.621589 174.031045 
L 251.271548 174.27227 
L 251.596527 174.513494 
L 252.246486 174.27227 
L 252.571466 174.27227 
L 253.221425 174.915535 
L 253.546405 174.835127 
L 254.196364 174.191862 
L 254.521343 174.27227 
L 254.846323 174.593903 
L 255.171302 174.754719 
L 256.146241 174.111453 
L 256.47122 174.191862 
L 256.7962 174.593903 
L 257.121179 174.513494 
L 257.771138 174.031045 
L 258.746077 174.433086 
L 259.721016 174.031045 
L 260.370975 174.754719 
L 260.695954 174.674311 
L 261.345913 174.031045 
L 261.670893 174.031045 
L 261.995872 174.352678 
L 262.645831 174.27227 
L 262.970811 174.031045 
L 263.29579 174.111453 
L 263.62077 174.352678 
L 264.270729 174.433086 
L 264.595708 174.191862 
L 264.920688 174.111453 
L 265.570647 174.674311 
L 265.895627 174.513494 
L 266.220606 174.191862 
L 266.870565 174.111453 
L 267.195545 174.513494 
L 267.845504 174.111453 
L 268.495463 173.709413 
L 269.145422 174.191862 
L 269.470401 174.27227 
L 269.795381 174.031045 
L 270.12036 173.950637 
L 270.44534 174.191862 
L 270.770319 174.593903 
L 271.095299 174.513494 
L 272.070238 173.870229 
L 273.045176 174.593903 
L 273.695135 174.111453 
L 274.020115 174.27227 
L 274.345094 174.27227 
L 274.670074 174.433086 
L 275.320033 173.870229 
L 275.645012 173.789821 
L 276.294971 174.352678 
L 276.619951 174.433086 
L 277.26991 174.111453 
L 278.244848 174.593903 
L 278.569828 174.352678 
L 278.894808 173.950637 
L 279.544767 173.870229 
L 279.869746 174.191862 
L 281.494644 174.111453 
L 282.144603 173.870229 
L 282.469582 174.031045 
L 282.794562 174.352678 
L 283.444521 174.674311 
L 283.7695 174.433086 
L 284.09448 174.031045 
L 284.419459 173.950637 
L 284.744439 174.031045 
L 285.069419 174.352678 
L 285.394398 174.433086 
L 285.719378 174.111453 
L 286.044357 173.950637 
L 286.369337 174.513494 
L 286.694316 174.754719 
L 287.019296 174.593903 
L 287.344275 174.191862 
L 287.669255 174.111453 
L 288.319214 174.754719 
L 288.644193 174.754719 
L 289.619132 173.709413 
L 289.944111 174.111453 
L 290.269091 174.915535 
L 290.59407 174.915535 
L 291.244029 173.789821 
L 291.569009 173.870229 
L 291.893989 174.352678 
L 292.218968 174.433086 
L 292.868927 174.111453 
L 293.518886 174.995944 
L 293.843866 175.076352 
L 294.493825 174.191862 
L 294.818804 174.111453 
L 295.468763 175.076352 
L 296.443702 173.709413 
L 296.768681 174.27227 
L 297.093661 175.076352 
L 297.41864 175.237168 
L 298.0686 173.629004 
L 298.393579 173.950637 
L 299.043538 175.317576 
L 299.368518 175.076352 
L 299.693497 174.433086 
L 300.018477 174.191862 
L 300.343456 174.593903 
L 300.668436 175.237168 
L 300.993415 175.076352 
L 301.643374 173.789821 
L 301.968354 173.950637 
L 302.618313 175.15676 
L 302.943292 174.674311 
L 303.268272 173.950637 
L 303.593251 174.031045 
L 304.24321 175.478393 
L 304.56819 175.317576 
L 305.218149 173.870229 
L 305.543129 174.111453 
L 305.868108 175.237168 
L 306.193088 175.719617 
L 307.168026 173.870229 
L 307.817985 174.995944 
L 308.142965 174.995944 
L 308.467944 174.27227 
L 308.792924 173.950637 
L 309.117903 174.27227 
L 309.442883 174.995944 
L 309.767862 175.317576 
L 310.417821 174.191862 
L 310.742801 174.111453 
L 311.39276 175.397985 
L 311.71774 175.076352 
L 312.042719 174.352678 
L 312.367699 174.031045 
L 313.017658 175.317576 
L 313.342637 175.076352 
L 313.667617 174.27227 
L 313.992596 173.870229 
L 314.317576 174.031045 
L 314.967535 175.076352 
L 315.942473 173.870229 
L 316.592432 175.397985 
L 316.917412 175.237168 
L 317.242391 174.593903 
L 317.567371 174.433086 
L 318.21733 174.835127 
L 318.54231 174.754719 
L 319.192269 174.111453 
L 319.517248 174.27227 
L 319.842228 174.754719 
L 320.167207 174.995944 
L 320.817166 173.950637 
L 321.142146 173.950637 
L 321.467125 174.674311 
L 321.792105 174.995944 
L 322.117084 174.835127 
L 322.442064 174.352678 
L 322.767043 174.191862 
L 323.092023 174.433086 
L 323.741982 175.076352 
L 324.391941 174.433086 
L 324.716921 174.352678 
L 325.36688 175.15676 
L 325.691859 174.995944 
L 326.016839 174.513494 
L 326.341818 174.27227 
L 326.991777 174.754719 
L 327.316757 174.593903 
L 327.641736 174.191862 
L 327.966716 174.111453 
L 328.616675 174.513494 
L 328.941654 174.513494 
L 329.266634 174.352678 
L 329.916593 174.433086 
L 330.241572 174.754719 
L 331.216511 174.27227 
L 331.541491 174.352678 
L 331.86647 174.674311 
L 333.166388 174.433086 
L 333.491368 174.513494 
L 334.141327 174.915535 
L 335.116265 174.27227 
L 335.441245 174.513494 
L 335.766224 174.593903 
L 336.091204 174.352678 
L 336.741163 174.111453 
L 337.066143 174.433086 
L 337.716102 174.352678 
L 338.041081 174.191862 
L 338.69104 174.433086 
L 339.01602 174.593903 
L 339.340999 174.593903 
L 339.990958 173.789821 
L 340.315938 173.950637 
L 340.640917 174.352678 
L 340.965897 174.433086 
L 341.615856 174.191862 
L 341.940835 174.191862 
L 342.265815 174.433086 
L 342.590794 174.433086 
L 342.915774 174.593903 
L 343.240753 174.593903 
L 343.565733 174.754719 
L 344.215692 174.513494 
L 344.865651 173.709413 
L 345.190631 173.789821 
L 345.51561 174.031045 
L 346.165569 174.191862 
L 346.815528 174.111453 
L 347.140508 174.191862 
L 347.465487 174.513494 
L 348.115446 174.031045 
L 348.440426 174.191862 
L 348.765405 174.593903 
L 349.415364 174.835127 
L 349.740344 174.593903 
L 350.065324 174.111453 
L 350.715283 174.593903 
L 351.040262 174.674311 
L 351.365242 174.593903 
L 352.015201 174.031045 
L 352.34018 174.111453 
L 352.66516 174.513494 
L 352.990139 174.433086 
L 353.315119 174.111453 
L 353.640098 173.950637 
L 354.290057 174.352678 
L 354.615037 174.433086 
L 354.940016 174.27227 
L 355.264996 173.950637 
L 355.589975 174.111453 
L 356.239934 174.915535 
L 356.564914 174.674311 
L 356.889894 174.27227 
L 357.214873 174.111453 
L 357.539853 174.111453 
L 357.864832 174.352678 
L 358.189812 174.433086 
L 358.514791 174.352678 
L 358.839771 174.111453 
L 359.16475 174.111453 
L 359.814709 174.593903 
L 360.789648 174.191862 
L 361.439607 174.754719 
L 361.764586 174.593903 
L 362.089566 174.27227 
L 362.414545 174.191862 
L 363.389484 174.352678 
L 364.039443 173.789821 
L 364.689402 173.870229 
L 365.339361 174.352678 
L 365.664341 174.111453 
L 365.98932 174.031045 
L 366.3143 174.191862 
L 366.639279 174.674311 
L 366.964259 174.593903 
L 367.614218 174.031045 
L 367.939197 173.870229 
L 368.589156 174.433086 
L 368.914136 174.593903 
L 369.564095 174.191862 
L 369.889075 174.191862 
L 370.214054 174.433086 
L 370.539034 174.513494 
L 371.188993 173.870229 
L 371.513972 173.870229 
L 372.163931 174.433086 
L 372.488911 174.433086 
L 373.13887 174.031045 
L 373.788829 174.433086 
L 374.113808 174.513494 
L 374.438788 174.352678 
L 374.763767 174.031045 
L 375.088747 173.870229 
L 375.413726 173.870229 
L 375.738706 174.111453 
L 377.363604 174.191862 
L 377.688583 173.870229 
L 378.338542 173.789821 
L 378.663522 174.27227 
L 378.988501 174.352678 
L 379.313481 174.593903 
L 379.63846 174.433086 
L 379.96344 174.031045 
L 380.288419 173.870229 
L 380.613399 174.031045 
L 380.938378 174.352678 
L 381.263358 174.352678 
L 381.913317 173.870229 
L 382.563276 174.915535 
L 383.213235 174.27227 
L 383.538215 174.111453 
L 384.188174 174.754719 
L 384.513153 174.754719 
L 385.163112 173.789821 
L 385.488092 173.629004 
L 386.138051 174.915535 
L 386.46303 174.995944 
L 387.112989 173.870229 
L 387.437969 173.950637 
L 387.762948 174.352678 
L 388.087928 174.513494 
L 388.737887 174.111453 
L 389.387846 174.835127 
L 389.712826 175.076352 
L 390.362785 174.111453 
L 390.687764 174.111453 
L 391.337723 175.076352 
L 391.662703 174.754719 
L 391.987682 174.031045 
L 392.312662 173.629004 
L 392.962621 175.076352 
L 393.2876 175.237168 
L 393.937559 173.629004 
L 394.262539 173.870229 
L 394.587518 174.754719 
L 394.912498 175.237168 
L 395.237477 175.15676 
L 395.887437 174.111453 
L 396.537396 175.237168 
L 396.862375 175.15676 
L 397.512334 173.870229 
L 397.837314 174.031045 
L 398.487273 175.15676 
L 398.487273 175.15676 
" clip-path="url(#pe139163504)" style="fill: none; stroke: #1f77b4; stroke-width: 1.5; stroke-linecap: square"/>
   </g>
   <g id="line2d_14">
    <path d="M 73.832727 290.949183 
L 79.0324 290.92506 
L 398.487273 290.989387 
L 398.487273 290.989387 
" clip-path="url(#pe139163504)" style="fill: none; stroke: #ff7f0e; stroke-width: 1.5; stroke-linecap: square"/>
   </g>
   <g id="line2d_15">
    <path d="M 73.832727 54.372082 
L 74.157707 54.613307 
L 75.132645 54.291674 
L 75.782604 54.532898 
L 76.107584 54.45249 
L 76.432563 54.130857 
L 78.057461 54.45249 
L 78.382441 54.211266 
L 78.70742 54.45249 
L 79.0324 54.854531 
L 80.657297 54.532898 
L 81.307256 54.693715 
L 81.957215 54.45249 
L 82.607174 54.372082 
L 83.257133 54.45249 
L 83.582113 54.211266 
L 83.907093 54.211266 
L 84.882031 54.613307 
L 85.85697 54.693715 
L 86.506929 54.854531 
L 87.481867 54.613307 
L 88.456806 54.774123 
L 88.781785 54.45249 
L 90.081704 54.372082 
L 91.056642 54.211266 
L 91.381622 54.291674 
L 91.706601 54.613307 
L 92.031581 54.613307 
L 92.68154 54.372082 
L 93.656478 54.45249 
L 93.981458 54.211266 
L 94.306437 54.211266 
L 95.281376 54.613307 
L 96.581294 54.372082 
L 97.231253 54.45249 
L 98.531171 54.45249 
L 98.856151 54.774123 
L 99.18113 54.613307 
L 99.831089 54.532898 
L 100.806028 54.372082 
L 101.455987 54.45249 
L 101.780966 54.130857 
L 102.755905 54.613307 
L 103.080885 54.532898 
L 103.405864 54.291674 
L 103.730844 54.291674 
L 104.055823 54.532898 
L 104.705782 54.774123 
L 105.355741 54.372082 
L 105.680721 54.532898 
L 106.0057 54.854531 
L 106.33068 54.774123 
L 106.980639 53.970041 
L 107.305618 54.050449 
L 107.955577 54.532898 
L 108.280557 54.45249 
L 108.605536 54.130857 
L 108.930516 54.130857 
L 109.580475 54.774123 
L 109.905455 54.854531 
L 110.555414 54.211266 
L 110.880393 54.291674 
L 111.205373 54.693715 
L 111.530352 54.854531 
L 111.855332 54.774123 
L 112.180311 54.291674 
L 112.505291 54.130857 
L 112.83027 54.130857 
L 113.15525 54.45249 
L 113.480229 54.532898 
L 114.455168 54.050449 
L 114.780147 54.050449 
L 115.105127 54.372082 
L 115.430106 54.532898 
L 116.730025 54.291674 
L 117.055004 54.372082 
L 117.379984 54.291674 
L 117.704963 54.45249 
L 118.354922 54.372082 
L 119.65484 54.291674 
L 119.97982 54.050449 
L 120.304799 54.130857 
L 120.629779 54.372082 
L 121.604717 54.532898 
L 121.929697 54.291674 
L 122.254676 54.372082 
L 122.579656 54.291674 
L 122.904636 54.45249 
L 123.554595 54.211266 
L 123.879574 54.211266 
L 124.204554 54.45249 
L 124.529533 54.854531 
L 124.854513 55.015347 
L 125.504472 54.532898 
L 126.47941 54.372082 
L 126.80439 54.372082 
L 127.129369 54.130857 
L 129.079247 54.532898 
L 129.729206 54.372082 
L 130.054185 54.45249 
L 130.379165 54.211266 
L 131.029124 54.291674 
L 132.004062 54.45249 
L 132.654021 54.050449 
L 132.979001 54.050449 
L 133.30398 54.45249 
L 133.62896 54.372082 
L 133.953939 54.45249 
L 134.603898 54.211266 
L 135.578837 54.130857 
L 135.903817 53.970041 
L 136.228796 54.050449 
L 136.553776 53.970041 
L 136.878755 54.291674 
L 137.203735 54.45249 
L 138.828632 54.45249 
L 139.803571 53.728816 
L 140.12855 53.648408 
L 140.45353 53.809225 
L 140.778509 53.648408 
L 141.428468 53.809225 
L 142.078428 54.372082 
L 142.403407 54.693715 
L 142.728387 54.693715 
L 143.378346 54.372082 
L 143.703325 54.532898 
L 144.678264 54.130857 
L 145.328223 54.050449 
L 145.653202 54.211266 
L 146.303161 54.130857 
L 146.628141 54.372082 
L 147.603079 54.613307 
L 148.253038 54.372082 
L 148.578018 54.130857 
L 149.552957 54.372082 
L 149.877936 54.130857 
L 150.527895 54.211266 
L 150.852875 54.372082 
L 151.502834 54.291674 
L 153.127731 54.211266 
L 153.452711 54.050449 
L 153.77769 53.648408 
L 154.427649 54.050449 
L 154.752629 54.291674 
L 155.402588 54.130857 
L 156.052547 54.45249 
L 156.377527 54.372082 
L 156.702506 54.130857 
L 158.002424 54.050449 
L 158.977363 53.728816 
L 159.302342 53.970041 
L 159.952301 54.130857 
L 160.277281 53.970041 
L 160.60226 54.050449 
L 161.252219 54.613307 
L 161.577199 54.291674 
L 162.552138 53.889633 
L 163.202097 53.809225 
L 163.527076 53.568 
L 164.177035 53.970041 
L 164.502015 54.372082 
L 165.151974 54.291674 
L 165.476953 53.970041 
L 165.801933 53.889633 
L 166.126912 54.130857 
L 166.451892 54.211266 
L 167.101851 53.728816 
L 167.42683 53.728816 
L 168.07679 54.291674 
L 168.401769 54.291674 
L 168.726749 53.970041 
L 169.376708 53.970041 
L 169.701687 54.45249 
L 170.351646 54.613307 
L 170.676626 54.291674 
L 171.001605 54.211266 
L 171.651564 54.613307 
L 171.976544 54.291674 
L 172.626503 54.050449 
L 172.951482 54.050449 
L 173.276462 54.291674 
L 173.601441 54.372082 
L 173.926421 54.291674 
L 174.57638 54.372082 
L 174.90136 54.693715 
L 175.551319 54.774123 
L 176.201278 54.532898 
L 176.526257 54.532898 
L 176.851237 54.693715 
L 177.176216 54.693715 
L 177.826175 54.45249 
L 178.151155 54.372082 
L 178.801114 54.532898 
L 179.126093 54.372082 
L 179.451073 54.372082 
L 179.776052 54.211266 
L 180.101032 54.532898 
L 180.426011 54.45249 
L 180.750991 54.613307 
L 181.40095 54.613307 
L 182.050909 55.015347 
L 182.700868 54.774123 
L 183.675807 54.613307 
L 184.325766 54.693715 
L 184.650745 54.693715 
L 184.975725 54.532898 
L 185.950663 54.532898 
L 186.600622 54.130857 
L 186.925602 54.211266 
L 187.250581 54.45249 
L 189.850418 54.45249 
L 190.175397 54.211266 
L 191.150336 54.693715 
L 192.775233 54.372082 
L 193.425192 54.45249 
L 194.075152 54.372082 
L 194.725111 54.613307 
L 195.05009 54.774123 
L 195.37507 54.532898 
L 196.674988 54.291674 
L 196.999967 54.372082 
L 197.324947 54.211266 
L 198.624865 54.45249 
L 199.599803 54.291674 
L 199.924783 54.45249 
L 200.249762 54.774123 
L 201.224701 54.532898 
L 201.549681 54.774123 
L 201.87466 54.854531 
L 202.19964 54.774123 
L 202.849599 53.970041 
L 203.174578 53.970041 
L 203.824537 54.532898 
L 204.149517 54.372082 
L 204.474496 54.050449 
L 204.799476 54.211266 
L 205.449435 54.934939 
L 205.774414 54.854531 
L 206.424373 54.211266 
L 206.749353 54.372082 
L 207.399312 55.015347 
L 207.724292 54.854531 
L 208.374251 54.050449 
L 208.69923 54.211266 
L 209.02421 54.532898 
L 209.349189 54.613307 
L 209.999148 54.050449 
L 210.324128 54.050449 
L 211.299066 54.532898 
L 212.598984 54.291674 
L 213.898903 54.372082 
L 214.223882 54.45249 
L 214.548862 54.291674 
L 215.198821 54.372082 
L 215.5238 54.130857 
L 215.84878 54.211266 
L 216.173759 54.130857 
L 216.498739 54.45249 
L 216.823718 54.613307 
L 217.473677 54.532898 
L 218.123636 54.291674 
L 218.448616 54.45249 
L 218.773595 54.291674 
L 219.098575 54.372082 
L 219.748534 54.291674 
L 220.723473 55.015347 
L 221.048452 54.934939 
L 222.023391 54.291674 
L 222.34837 54.372082 
L 223.323309 54.130857 
L 224.298247 54.532898 
L 224.623227 54.613307 
L 225.273186 54.372082 
L 225.598165 54.45249 
L 226.898084 54.211266 
L 227.548043 54.532898 
L 227.873022 54.45249 
L 228.198002 54.130857 
L 228.522981 54.050449 
L 229.49792 54.532898 
L 229.822899 54.45249 
L 230.147879 54.211266 
L 230.472858 54.130857 
L 231.447797 54.291674 
L 231.772776 53.970041 
L 232.422735 54.050449 
L 232.747715 54.372082 
L 233.072695 54.532898 
L 233.397674 54.45249 
L 234.047633 54.693715 
L 234.372613 54.45249 
L 234.697592 54.45249 
L 235.022572 54.291674 
L 235.347551 53.889633 
L 235.99751 53.648408 
L 236.647469 53.728816 
L 236.972449 53.648408 
L 237.622408 54.050449 
L 238.272367 54.693715 
L 238.597346 54.693715 
L 239.572285 54.291674 
L 240.222244 54.291674 
L 240.547224 54.050449 
L 240.872203 53.970041 
L 241.847142 54.372082 
L 242.172121 54.211266 
L 242.497101 54.372082 
L 242.82208 54.372082 
L 243.14706 54.613307 
L 243.797019 54.532898 
L 244.121998 54.291674 
L 244.771957 54.211266 
L 245.096937 54.45249 
L 246.071876 54.130857 
L 246.396855 54.291674 
L 246.721835 54.291674 
L 247.046814 54.532898 
L 247.371794 54.291674 
L 247.696773 54.372082 
L 248.021753 54.291674 
L 248.346732 54.372082 
L 248.996691 54.130857 
L 249.64665 53.889633 
L 249.97163 53.889633 
L 250.296609 54.050449 
L 250.621589 54.372082 
L 251.271548 54.291674 
L 252.246486 54.45249 
L 252.571466 54.211266 
L 253.221425 54.130857 
L 253.871384 54.211266 
L 254.521343 53.809225 
L 255.171302 53.889633 
L 255.821261 54.130857 
L 256.47122 54.050449 
L 256.7962 54.372082 
L 257.446159 54.532898 
L 257.771138 54.050449 
L 258.096118 53.889633 
L 258.746077 54.130857 
L 259.396036 53.648408 
L 259.721016 53.728816 
L 260.370975 54.291674 
L 260.695954 54.45249 
L 261.020934 54.291674 
L 261.345913 53.970041 
L 262.320852 54.130857 
L 262.645831 54.130857 
L 262.970811 53.728816 
L 263.29579 53.809225 
L 263.945749 54.372082 
L 264.270729 54.372082 
L 264.595708 54.050449 
L 264.920688 53.889633 
L 265.245667 54.130857 
L 265.570647 54.211266 
L 265.895627 54.532898 
L 266.220606 54.532898 
L 266.870565 54.130857 
L 267.195545 54.372082 
L 267.845504 54.45249 
L 268.170483 54.130857 
L 268.820442 54.050449 
L 269.470401 54.45249 
L 270.12036 54.372082 
L 270.44534 54.613307 
L 271.095299 54.854531 
L 272.070238 54.372082 
L 272.720197 54.613307 
L 273.045176 54.613307 
L 273.370156 54.45249 
L 274.995053 54.372082 
L 275.320033 54.211266 
L 276.619951 54.532898 
L 276.94493 54.45249 
L 277.919869 54.774123 
L 278.244848 54.934939 
L 278.569828 54.613307 
L 278.894808 54.613307 
L 279.219787 54.45249 
L 279.544767 54.693715 
L 280.844685 54.613307 
L 281.169664 54.45249 
L 281.494644 54.532898 
L 282.144603 54.291674 
L 282.469582 54.050449 
L 283.444521 54.613307 
L 284.744439 54.372082 
L 285.069419 54.45249 
L 286.369337 54.211266 
L 286.694316 54.532898 
L 287.019296 54.613307 
L 287.344275 54.45249 
L 290.269091 54.532898 
L 290.91905 54.774123 
L 291.244029 54.693715 
L 291.569009 54.372082 
L 292.543948 54.291674 
L 293.518886 54.130857 
L 293.843866 54.372082 
L 294.168845 54.372082 
L 294.493825 54.532898 
L 295.468763 54.291674 
L 295.793743 54.372082 
L 296.443702 54.774123 
L 296.768681 54.45249 
L 297.093661 54.45249 
L 297.74362 54.693715 
L 298.393579 54.291674 
L 298.718559 53.970041 
L 299.368518 54.211266 
L 299.693497 54.45249 
L 300.343456 54.050449 
L 300.668436 54.130857 
L 301.318395 54.854531 
L 301.643374 54.934939 
L 301.968354 54.372082 
L 302.293333 54.130857 
L 303.268272 54.854531 
L 303.593251 54.693715 
L 303.918231 54.291674 
L 304.56819 54.050449 
L 304.89317 54.372082 
L 305.218149 54.45249 
L 305.543129 54.372082 
L 305.868108 54.130857 
L 306.193088 54.050449 
L 306.518067 54.130857 
L 306.843047 54.372082 
L 308.142965 54.291674 
L 308.467944 54.211266 
L 309.442883 54.45249 
L 310.417821 54.291674 
L 310.742801 54.45249 
L 312.042719 54.211266 
L 313.017658 54.693715 
L 313.667617 54.291674 
L 313.992596 54.211266 
L 314.967535 54.372082 
L 315.617494 54.211266 
L 316.267453 54.774123 
L 316.592432 54.934939 
L 317.242391 54.693715 
L 317.567371 54.291674 
L 318.21733 54.372082 
L 318.867289 53.970041 
L 319.192269 53.970041 
L 319.842228 54.45249 
L 321.467125 54.45249 
L 322.442064 54.050449 
L 322.767043 54.050449 
L 323.417002 54.45249 
L 323.741982 54.291674 
L 324.066962 53.889633 
L 324.391941 53.889633 
L 324.716921 54.050449 
L 325.0419 54.372082 
L 326.666798 54.050449 
L 327.641736 53.970041 
L 327.966716 53.809225 
L 328.291695 53.970041 
L 328.616675 54.372082 
L 329.591613 54.45249 
L 330.241572 54.532898 
L 330.891532 54.211266 
L 331.216511 53.809225 
L 331.541491 53.648408 
L 332.516429 53.648408 
L 332.841409 53.809225 
L 333.166388 53.728816 
L 333.491368 53.970041 
L 333.816347 54.45249 
L 334.141327 54.693715 
L 334.466306 54.532898 
L 334.791286 54.532898 
L 335.116265 54.372082 
L 335.441245 54.45249 
L 335.766224 54.211266 
L 336.091204 54.211266 
L 336.416183 54.050449 
L 337.066143 54.050449 
L 337.716102 54.291674 
L 338.366061 54.211266 
L 338.69104 54.45249 
L 339.340999 54.532898 
L 339.665979 54.45249 
L 339.990958 54.211266 
L 341.290876 54.291674 
L 341.615856 54.050449 
L 342.265815 54.130857 
L 343.240753 54.372082 
L 343.565733 54.130857 
L 344.540672 54.291674 
L 345.190631 53.809225 
L 345.51561 53.809225 
L 345.84059 53.970041 
L 346.165569 53.970041 
L 346.490549 54.211266 
L 347.140508 54.130857 
L 347.465487 54.211266 
L 347.790467 54.45249 
L 348.440426 54.372082 
L 348.765405 54.130857 
L 349.740344 54.130857 
L 350.065324 53.889633 
L 350.390303 53.809225 
L 351.690221 54.050449 
L 352.015201 54.050449 
L 352.34018 54.211266 
L 352.66516 54.532898 
L 352.990139 54.613307 
L 353.640098 54.291674 
L 353.965078 53.970041 
L 354.615037 54.050449 
L 355.264996 53.568 
L 355.914955 54.130857 
L 356.239934 54.45249 
L 356.564914 54.45249 
L 357.539853 54.050449 
L 357.864832 54.211266 
L 358.189812 54.211266 
L 359.16475 53.809225 
L 359.814709 54.372082 
L 360.139689 54.291674 
L 360.464668 54.050449 
L 360.789648 53.970041 
L 361.114627 54.130857 
L 361.439607 54.45249 
L 361.764586 54.613307 
L 362.089566 54.613307 
L 362.414545 54.372082 
L 362.739525 54.291674 
L 363.064505 54.532898 
L 363.389484 54.613307 
L 364.039443 54.372082 
L 364.364423 54.050449 
L 365.339361 54.45249 
L 365.664341 54.372082 
L 366.3143 54.532898 
L 366.639279 54.854531 
L 367.289238 54.774123 
L 367.614218 54.532898 
L 367.939197 54.45249 
L 368.914136 54.693715 
L 369.239115 54.613307 
L 369.564095 54.372082 
L 369.889075 54.372082 
L 370.214054 54.532898 
L 370.539034 54.532898 
L 371.188993 54.291674 
L 371.513972 54.291674 
L 371.838952 54.532898 
L 372.163931 54.532898 
L 372.488911 54.693715 
L 372.81389 54.532898 
L 374.438788 54.934939 
L 374.763767 54.613307 
L 375.088747 54.532898 
L 375.413726 54.693715 
L 375.738706 54.693715 
L 376.063686 54.532898 
L 376.388665 54.613307 
L 377.363604 54.45249 
L 377.688583 54.45249 
L 378.013563 54.211266 
L 378.338542 54.130857 
L 378.988501 54.372082 
L 379.63846 54.693715 
L 379.96344 54.372082 
L 380.288419 54.291674 
L 380.938378 54.372082 
L 381.913317 54.211266 
L 382.888256 54.613307 
L 383.213235 54.45249 
L 383.538215 54.613307 
L 384.513153 54.45249 
L 384.838133 54.613307 
L 385.163112 54.45249 
L 385.813071 54.45249 
L 386.138051 54.613307 
L 386.46303 54.613307 
L 386.78801 54.854531 
L 387.762948 54.372082 
L 389.062867 54.291674 
L 389.387846 54.211266 
L 390.037805 54.532898 
L 391.337723 54.291674 
L 391.662703 54.45249 
L 391.987682 54.774123 
L 392.637641 54.693715 
L 392.962621 54.45249 
L 393.61258 54.854531 
L 393.937559 54.854531 
L 394.587518 53.970041 
L 394.912498 54.050449 
L 395.237477 54.45249 
L 395.562457 54.532898 
L 396.212416 54.211266 
L 396.537396 54.211266 
L 396.862375 54.45249 
L 397.187355 54.934939 
L 397.512334 54.854531 
L 397.837314 54.613307 
L 398.162293 54.211266 
L 398.487273 54.45249 
L 398.487273 54.45249 
" clip-path="url(#pe139163504)" style="fill: none; stroke: #2ca02c; stroke-width: 1.5; stroke-linecap: square"/>
   </g>
   <g id="line2d_16">
    <path d="M 73.832727 295.447796 
L 75.457625 295.447796 
L 77.082523 295.439755 
L 78.70742 295.455837 
L 398.487273 295.455837 
L 398.487273 295.455837 
" clip-path="url(#pe139163504)" style="fill: none; stroke: #d62728; stroke-width: 1.5; stroke-linecap: square"/>
   </g>
   <g id="patch_3">
    <path d="M 57.6 307.584 
L 57.6 41.472 
" style="fill: none; stroke: #000000; stroke-width: 0.8; stroke-linejoin: miter; stroke-linecap: square"/>
   </g>
   <g id="patch_4">
    <path d="M 414.72 307.584 
L 414.72 41.472 
" style="fill: none; stroke: #000000; stroke-width: 0.8; stroke-linejoin: miter; stroke-linecap: square"/>
   </g>
   <g id="patch_5">
    <path d="M 57.6 307.584 
L 414.72 307.584 
" style="fill: none; stroke: #000000; stroke-width: 0.8; stroke-linejoin: miter; stroke-linecap: square"/>
   </g>
   <g id="patch_6">
    <path d="M 57.6 41.472 
L 414.72 41.472 
" style="fill: none; stroke: #000000; stroke-width: 0.8; stroke-linejoin: miter; stroke-linecap: square"/>
   </g>
  </g>
 </g>
 <defs>
  <clipPath id="pe139163504">
   <rect x="57.6" y="41.472" width="357.12" height="266.112"/>
  </clipPath>
 </defs>
</svg>
