<?xml version="1.0" encoding="utf-8" standalone="no"?>
<!DOCTYPE svg PUBLIC "-//W3C//DTD SVG 1.1//EN"
  "http://www.w3.org/Graphics/SVG/1.1/DTD/svg11.dtd">
<svg xmlns:xlink="http://www.w3.org/1999/xlink" width="460.8pt" height="345.6pt" viewBox="0 0 460.8 345.6" xmlns="http://www.w3.org/2000/svg" version="1.1">
 <metadata>
  <rdf:RDF xmlns:dc="http://purl.org/dc/elements/1.1/" xmlns:cc="http://creativecommons.org/ns#" xmlns:rdf="http://www.w3.org/1999/02/22-rdf-syntax-ns#">
   <cc:Work>
    <dc:type rdf:resource="http://purl.org/dc/dcmitype/StillImage"/>
    <dc:date>2025-12-30T05:05:04.352069</dc:date>
    <dc:format>image/svg+xml</dc:format>
    <dc:creator>
     <cc:Agent>
      <dc:title>Matplotlib v3.10.8, https://matplotlib.org/</dc:title>
     </cc:Agent>
    </dc:creator>
   </cc:Work>
  </rdf:RDF>
 </metadata>
 <defs>
  <style type="text/css">*{stroke-linejoin: round; stroke-linecap: butt}</style>
 </defs>
 <g id="figure_1">
  <g id="patch_1">
   <path d="M 0 345.6 
L 460.8 345.6 
L 460.8 0 
L 0 0 
z
" style="fill: #ffffff"/>
  </g>
  <g id="axes_1">
   <g id="patch_2">
    <path d="M 57.6 307.584 
L 414.72 307.584 
L 414.72 41.472 
L 57.6 41.472 
z
" style="fill: #ffffff"/>
   </g>
   <g id="matplotlib.axis_1">
    <g id="xtick_1">
     <g id="line2d_1">
      <defs>
       <path id="m3b755390b6" d="M 0 0 
L 0 3.5 
" style="stroke: #000000; stroke-width: 0.8"/>
      </defs>
      <g>
       <use xlink:href="#m3b755390b6" x="73.832727" y="307.584" style="stroke: #000000; stroke-width: 0.8"/>
      </g>
     </g>
     <g id="text_1">
      <!-- 0 -->
      <g transform="translate(70.651477 322.182437) scale(0.1 -0.1)">
       <defs>
        <path id="DejaVuSans-30" d="M 2034 4250 
Q 1547 4250 1301 3770 
Q 1056 3291 1056 2328 
Q 1056 1369 1301 889 
Q 1547 409 2034 409 
Q 2525 409 2770 889 
Q 3016 1369 3016 2328 
Q 3016 3291 2770 3770 
Q 2525 4250 2034 4250 
z
M 2034 4750 
Q 2819 4750 3233 4129 
Q 3647 3509 3647 2328 
Q 3647 1150 3233 529 
Q 2819 -91 2034 -91 
Q 1250 -91 836 529 
Q 422 1150 422 2328 
Q 422 3509 836 4129 
Q 1250 4750 2034 4750 
z
" transform="scale(0.015625)"/>
       </defs>
       <use xlink:href="#DejaVuSans-30"/>
      </g>
     </g>
    </g>
    <g id="xtick_2">
     <g id="line2d_2">
      <g>
       <use xlink:href="#m3b755390b6" x="138.828632" y="307.584" style="stroke: #000000; stroke-width: 0.8"/>
      </g>
     </g>
     <g id="text_2">
      <!-- 1 -->
      <g transform="translate(135.647382 322.182437) scale(0.1 -0.1)">
       <defs>
        <path id="DejaVuSans-31" d="M 794 531 
L 1825 531 
L 1825 4091 
L 703 3866 
L 703 4441 
L 1819 4666 
L 2450 4666 
L 2450 531 
L 3481 531 
L 3481 0 
L 794 0 
L 794 531 
z
" transform="scale(0.015625)"/>
       </defs>
       <use xlink:href="#DejaVuSans-31"/>
      </g>
     </g>
    </g>
    <g id="xtick_3">
     <g id="line2d_3">
      <g>
       <use xlink:href="#m3b755390b6" x="203.824537" y="307.584" style="stroke: #000000; stroke-width: 0.8"/>
      </g>
     </g>
     <g id="text_3">
      <!-- 2 -->
      <g transform="translate(200.643287 322.182437) scale(0.1 -0.1)">
       <defs>
        <path id="DejaVuSans-32" d="M 1228 531 
L 3431 531 
L 3431 0 
L 469 0 
L 469 531 
Q 828 903 1448 1529 
Q 2069 2156 2228 2338 
Q 2531 2678 2651 2914 
Q 2772 3150 2772 3378 
Q 2772 3750 2511 3984 
Q 2250 4219 1831 4219 
Q 1534 4219 1204 4116 
Q 875 4013 500 3803 
L 500 4441 
Q 881 4594 1212 4672 
Q 1544 4750 1819 4750 
Q 2544 4750 2975 4387 
Q 3406 4025 3406 3419 
Q 3406 3131 3298 2873 
Q 3191 2616 2906 2266 
Q 2828 2175 2409 1742 
Q 1991 1309 1228 531 
z
" transform="scale(0.015625)"/>
       </defs>
       <use xlink:href="#DejaVuSans-32"/>
      </g>
     </g>
    </g>
    <g id="xtick_4">
     <g id="line2d_4">
      <g>
       <use xlink:href="#m3b755390b6" x="268.820442" y="307.584" style="stroke: #000000; stroke-width: 0.8"/>
      </g>
     </g>
     <g id="text_4">
      <!-- 3 -->
      <g transform="translate(265.639192 322.182437) scale(0.1 -0.1)">
       <defs>
        <path id="DejaVuSans-33" d="M 2597 2516 
Q 3050 2419 3304 2112 
Q 3559 1806 3559 1356 
Q 3559 666 3084 287 
Q 2609 -91 1734 -91 
Q 1441 -91 1130 -33 
Q 819 25 488 141 
L 488 750 
Q 750 597 1062 519 
Q 1375 441 1716 441 
Q 2309 441 2620 675 
Q 2931 909 2931 1356 
Q 2931 1769 2642 2001 
Q 2353 2234 1838 2234 
L 1294 2234 
L 1294 2753 
L 1863 2753 
Q 2328 2753 2575 2939 
Q 2822 3125 2822 3475 
Q 2822 3834 2567 4026 
Q 2313 4219 1838 4219 
Q 1578 4219 1281 4162 
Q 984 4106 628 3988 
L 628 4550 
Q 988 4650 1302 4700 
Q 1616 4750 1894 4750 
Q 2613 4750 3031 4423 
Q 3450 4097 3450 3541 
Q 3450 3153 3228 2886 
Q 3006 2619 2597 2516 
z
" transform="scale(0.015625)"/>
       </defs>
       <use xlink:href="#DejaVuSans-33"/>
      </g>
     </g>
    </g>
    <g id="xtick_5">
     <g id="line2d_5">
      <g>
       <use xlink:href="#m3b755390b6" x="333.816347" y="307.584" style="stroke: #000000; stroke-width: 0.8"/>
      </g>
     </g>
     <g id="text_5">
      <!-- 4 -->
      <g transform="translate(330.635097 322.182437) scale(0.1 -0.1)">
       <defs>
        <path id="DejaVuSans-34" d="M 2419 4116 
L 825 1625 
L 2419 1625 
L 2419 4116 
z
M 2253 4666 
L 3047 4666 
L 3047 1625 
L 3713 1625 
L 3713 1100 
L 3047 1100 
L 3047 0 
L 2419 0 
L 2419 1100 
L 313 1100 
L 313 1709 
L 2253 4666 
z
" transform="scale(0.015625)"/>
       </defs>
       <use xlink:href="#DejaVuSans-34"/>
      </g>
     </g>
    </g>
    <g id="xtick_6">
     <g id="line2d_6">
      <g>
       <use xlink:href="#m3b755390b6" x="398.812252" y="307.584" style="stroke: #000000; stroke-width: 0.8"/>
      </g>
     </g>
     <g id="text_6">
      <!-- 5 -->
      <g transform="translate(395.631002 322.182437) scale(0.1 -0.1)">
       <defs>
        <path id="DejaVuSans-35" d="M 691 4666 
L 3169 4666 
L 3169 4134 
L 1269 4134 
L 1269 2991 
Q 1406 3038 1543 3061 
Q 1681 3084 1819 3084 
Q 2600 3084 3056 2656 
Q 3513 2228 3513 1497 
Q 3513 744 3044 326 
Q 2575 -91 1722 -91 
Q 1428 -91 1123 -41 
Q 819 9 494 109 
L 494 744 
Q 775 591 1075 516 
Q 1375 441 1709 441 
Q 2250 441 2565 725 
Q 2881 1009 2881 1497 
Q 2881 1984 2565 2268 
Q 2250 2553 1709 2553 
Q 1456 2553 1204 2497 
Q 953 2441 691 2322 
L 691 4666 
z
" transform="scale(0.015625)"/>
       </defs>
       <use xlink:href="#DejaVuSans-35"/>
      </g>
     </g>
    </g>
    <g id="text_7">
     <!-- 1e−7 -->
     <g transform="translate(387.462188 334.860562) scale(0.1 -0.1)">
      <defs>
       <path id="DejaVuSans-65" d="M 3597 1894 
L 3597 1613 
L 953 1613 
Q 991 1019 1311 708 
Q 1631 397 2203 397 
Q 2534 397 2845 478 
Q 3156 559 3463 722 
L 3463 178 
Q 3153 47 2828 -22 
Q 2503 -91 2169 -91 
Q 1331 -91 842 396 
Q 353 884 353 1716 
Q 353 2575 817 3079 
Q 1281 3584 2069 3584 
Q 2775 3584 3186 3129 
Q 3597 2675 3597 1894 
z
M 3022 2063 
Q 3016 2534 2758 2815 
Q 2500 3097 2075 3097 
Q 1594 3097 1305 2825 
Q 1016 2553 972 2059 
L 3022 2063 
z
" transform="scale(0.015625)"/>
       <path id="DejaVuSans-2212" d="M 678 2272 
L 4684 2272 
L 4684 1741 
L 678 1741 
L 678 2272 
z
" transform="scale(0.015625)"/>
       <path id="DejaVuSans-37" d="M 525 4666 
L 3525 4666 
L 3525 4397 
L 1831 0 
L 1172 0 
L 2766 4134 
L 525 4134 
L 525 4666 
z
" transform="scale(0.015625)"/>
      </defs>
      <use xlink:href="#DejaVuSans-31"/>
      <use xlink:href="#DejaVuSans-65" transform="translate(63.623047 0)"/>
      <use xlink:href="#DejaVuSans-2212" transform="translate(125.146484 0)"/>
      <use xlink:href="#DejaVuSans-37" transform="translate(208.935547 0)"/>
     </g>
    </g>
   </g>
   <g id="matplotlib.axis_2">
    <g id="ytick_1">
     <g id="line2d_7">
      <defs>
       <path id="mb268351218" d="M 0 0 
L -3.5 0 
" style="stroke: #000000; stroke-width: 0.8"/>
      </defs>
      <g>
       <use xlink:href="#mb268351218" x="57.6" y="299.103927" style="stroke: #000000; stroke-width: 0.8"/>
      </g>
     </g>
     <g id="text_8">
      <!-- 0 -->
      <g transform="translate(44.2375 302.903146) scale(0.1 -0.1)">
       <use xlink:href="#DejaVuSans-30"/>
      </g>
     </g>
    </g>
    <g id="ytick_2">
     <g id="line2d_8">
      <g>
       <use xlink:href="#mb268351218" x="57.6" y="251.523594" style="stroke: #000000; stroke-width: 0.8"/>
      </g>
     </g>
     <g id="text_9">
      <!-- 10 -->
      <g transform="translate(37.875 255.322813) scale(0.1 -0.1)">
       <use xlink:href="#DejaVuSans-31"/>
       <use xlink:href="#DejaVuSans-30" transform="translate(63.623047 0)"/>
      </g>
     </g>
    </g>
    <g id="ytick_3">
     <g id="line2d_9">
      <g>
       <use xlink:href="#mb268351218" x="57.6" y="203.943262" style="stroke: #000000; stroke-width: 0.8"/>
      </g>
     </g>
     <g id="text_10">
      <!-- 20 -->
      <g transform="translate(37.875 207.742481) scale(0.1 -0.1)">
       <use xlink:href="#DejaVuSans-32"/>
       <use xlink:href="#DejaVuSans-30" transform="translate(63.623047 0)"/>
      </g>
     </g>
    </g>
    <g id="ytick_4">
     <g id="line2d_10">
      <g>
       <use xlink:href="#mb268351218" x="57.6" y="156.362929" style="stroke: #000000; stroke-width: 0.8"/>
      </g>
     </g>
     <g id="text_11">
      <!-- 30 -->
      <g transform="translate(37.875 160.162148) scale(0.1 -0.1)">
       <use xlink:href="#DejaVuSans-33"/>
       <use xlink:href="#DejaVuSans-30" transform="translate(63.623047 0)"/>
      </g>
     </g>
    </g>
    <g id="ytick_5">
     <g id="line2d_11">
      <g>
       <use xlink:href="#mb268351218" x="57.6" y="108.782597" style="stroke: #000000; stroke-width: 0.8"/>
      </g>
     </g>
     <g id="text_12">
      <!-- 40 -->
      <g transform="translate(37.875 112.581816) scale(0.1 -0.1)">
       <use xlink:href="#DejaVuSans-34"/>
       <use xlink:href="#DejaVuSans-30" transform="translate(63.623047 0)"/>
      </g>
     </g>
    </g>
    <g id="ytick_6">
     <g id="line2d_12">
      <g>
       <use xlink:href="#mb268351218" x="57.6" y="61.202264" style="stroke: #000000; stroke-width: 0.8"/>
      </g>
     </g>
     <g id="text_13">
      <!-- 50 -->
      <g transform="translate(37.875 65.001483) scale(0.1 -0.1)">
       <use xlink:href="#DejaVuSans-35"/>
       <use xlink:href="#DejaVuSans-30" transform="translate(63.623047 0)"/>
      </g>
     </g>
    </g>
   </g>
   <g id="line2d_13">
    <path d="M 73.832727 183.581259 
L 74.157707 183.581259 
L 74.807666 182.91216 
L 75.132645 182.91216 
L 75.457625 183.209537 
L 76.107584 183.358226 
L 76.757543 182.986504 
L 77.082523 183.209537 
L 77.407502 183.209537 
L 77.732482 183.43257 
L 78.382441 182.986504 
L 78.70742 183.060849 
L 79.0324 183.43257 
L 79.357379 183.581259 
L 80.007338 183.060849 
L 80.332318 182.91216 
L 80.657297 183.135193 
L 80.982277 183.506914 
L 81.307256 183.655603 
L 81.632236 183.655603 
L 81.957215 183.43257 
L 82.607174 183.358226 
L 82.932154 183.43257 
L 83.257133 183.209537 
L 83.907093 183.060849 
L 84.882031 183.506914 
L 85.207011 183.506914 
L 85.53199 183.283882 
L 86.181949 183.506914 
L 86.506929 183.581259 
L 86.831908 183.43257 
L 87.481867 182.986504 
L 87.806847 182.986504 
L 88.456806 183.209537 
L 89.106765 183.283882 
L 90.081704 183.358226 
L 90.731663 182.763472 
L 91.706601 183.729947 
L 92.35656 183.209537 
L 92.68154 182.837816 
L 93.006519 182.837816 
L 93.656478 183.729947 
L 93.981458 183.655603 
L 94.631417 183.209537 
L 94.956396 183.729947 
L 95.281376 183.95298 
L 95.931335 183.135193 
L 96.256314 183.060849 
L 96.581294 183.135193 
L 97.231253 183.581259 
L 98.206192 182.986504 
L 98.856151 184.176013 
L 99.18113 184.101669 
L 99.831089 182.837816 
L 100.156069 182.91216 
L 100.806028 183.655603 
L 101.131007 183.358226 
L 101.455987 183.358226 
L 101.780966 183.506914 
L 102.105946 183.804291 
L 102.430925 183.804291 
L 103.405864 183.209537 
L 104.055823 184.027324 
L 104.380803 183.804291 
L 104.705782 183.209537 
L 105.030762 182.91216 
L 105.355741 183.060849 
L 105.680721 183.804291 
L 106.0057 184.176013 
L 106.655659 182.837816 
L 106.980639 182.837816 
L 107.630598 184.176013 
L 107.955577 184.250357 
L 108.605536 183.209537 
L 108.930516 183.43257 
L 109.255495 183.804291 
L 109.580475 183.878636 
L 110.555414 182.91216 
L 111.205373 184.176013 
L 112.180311 183.283882 
L 112.83027 184.176013 
L 113.15525 184.176013 
L 113.805209 183.135193 
L 114.130188 183.209537 
L 114.780147 184.250357 
L 115.105127 184.027324 
L 115.430106 183.283882 
L 115.755086 182.91216 
L 116.080066 183.209537 
L 116.405045 183.95298 
L 116.730025 184.176013 
L 117.379984 183.43257 
L 117.704963 183.506914 
L 118.029943 183.878636 
L 118.354922 184.027324 
L 118.679902 183.878636 
L 119.004881 183.43257 
L 119.329861 183.358226 
L 119.97982 184.027324 
L 120.304799 183.95298 
L 120.954758 183.283882 
L 121.604717 184.101669 
L 121.929697 183.878636 
L 122.579656 183.135193 
L 122.904636 183.209537 
L 123.229615 183.729947 
L 123.554595 184.027324 
L 123.879574 183.804291 
L 124.204554 183.43257 
L 124.529533 183.43257 
L 125.179492 184.027324 
L 125.504472 183.878636 
L 126.154431 183.283882 
L 126.47941 183.43257 
L 126.80439 183.729947 
L 127.129369 183.729947 
L 127.779328 183.43257 
L 128.754267 183.878636 
L 129.404226 183.209537 
L 130.054185 183.804291 
L 130.379165 183.878636 
L 131.354103 183.283882 
L 132.329042 184.101669 
L 132.654021 183.95298 
L 132.979001 183.655603 
L 133.30398 183.655603 
L 133.62896 183.878636 
L 133.953939 183.95298 
L 134.928878 183.581259 
L 135.578837 183.655603 
L 136.553776 183.506914 
L 137.203735 183.655603 
L 137.528714 183.506914 
L 137.853694 183.506914 
L 138.178673 183.283882 
L 139.153612 183.581259 
L 139.478591 183.43257 
L 139.803571 183.506914 
L 140.12855 183.804291 
L 140.45353 183.804291 
L 141.103489 183.506914 
L 142.728387 183.804291 
L 143.378346 182.986504 
L 144.678264 183.581259 
L 145.003243 183.506914 
L 145.328223 183.729947 
L 145.978182 183.655603 
L 146.95312 183.506914 
L 147.928059 183.43257 
L 148.578018 182.91216 
L 149.227977 183.283882 
L 149.552957 183.506914 
L 149.877936 183.43257 
L 151.827813 183.804291 
L 153.452711 183.135193 
L 153.77769 183.060849 
L 155.077609 183.729947 
L 155.727568 183.283882 
L 156.377527 183.135193 
L 156.702506 183.283882 
L 157.027486 183.655603 
L 157.677445 183.878636 
L 158.327404 183.43257 
L 158.652383 183.358226 
L 159.627322 183.506914 
L 160.60226 183.358226 
L 160.92724 183.43257 
L 161.902179 183.060849 
L 162.877117 183.729947 
L 163.852056 183.135193 
L 164.502015 183.729947 
L 164.826994 183.729947 
L 165.476953 182.986504 
L 165.801933 182.986504 
L 166.126912 183.283882 
L 167.75181 183.358226 
L 168.07679 183.581259 
L 168.401769 183.581259 
L 168.726749 183.358226 
L 169.051728 183.283882 
L 169.376708 183.358226 
L 169.701687 183.729947 
L 170.026667 183.729947 
L 170.676626 182.986504 
L 171.001605 182.986504 
L 171.326585 183.209537 
L 171.976544 183.283882 
L 172.626503 183.135193 
L 173.276462 183.358226 
L 173.601441 183.506914 
L 174.2514 183.060849 
L 174.57638 183.060849 
L 174.90136 183.43257 
L 175.226339 183.581259 
L 175.876298 183.060849 
L 176.201278 182.91216 
L 177.176216 183.729947 
L 177.826175 183.506914 
L 178.151155 183.283882 
L 178.801114 183.506914 
L 179.126093 183.209537 
L 179.776052 183.060849 
L 180.426011 183.506914 
L 180.750991 183.581259 
L 181.075971 183.506914 
L 181.40095 183.283882 
L 182.375889 183.655603 
L 183.025848 183.135193 
L 183.350827 183.060849 
L 185.625684 183.506914 
L 185.950663 183.358226 
L 186.600622 182.763472 
L 187.250581 183.581259 
L 187.575561 183.655603 
L 187.900541 183.506914 
L 188.5505 182.837816 
L 188.875479 182.837816 
L 189.525438 183.729947 
L 189.850418 183.804291 
L 190.175397 183.43257 
L 190.500377 183.358226 
L 191.150336 184.027324 
L 191.475315 183.655603 
L 191.800295 183.060849 
L 192.125274 183.060849 
L 192.450254 183.209537 
L 192.775233 183.506914 
L 193.100213 183.581259 
L 193.750172 182.986504 
L 194.075152 183.060849 
L 194.725111 184.176013 
L 195.05009 184.101669 
L 195.700049 182.837816 
L 196.025029 182.91216 
L 196.350008 183.506914 
L 196.674988 183.655603 
L 196.999967 183.358226 
L 197.324947 183.283882 
L 197.649926 183.43257 
L 197.974906 183.804291 
L 198.299885 183.878636 
L 198.624865 183.655603 
L 198.949844 183.283882 
L 199.274824 183.358226 
L 199.924783 184.101669 
L 200.249762 183.95298 
L 200.574742 183.283882 
L 200.899722 182.986504 
L 201.224701 183.209537 
L 201.549681 183.95298 
L 201.87466 184.176013 
L 202.524619 182.986504 
L 202.849599 182.837816 
L 203.499558 184.250357 
L 203.824537 184.399046 
L 204.474496 183.43257 
L 204.799476 183.581259 
L 205.124455 183.95298 
L 205.449435 184.027324 
L 206.099394 183.209537 
L 206.424373 183.060849 
L 207.074333 184.176013 
L 207.399312 183.95298 
L 207.724292 183.506914 
L 208.049271 183.283882 
L 209.02421 184.399046 
L 209.674169 183.135193 
L 209.999148 183.209537 
L 210.649107 184.250357 
L 210.974087 184.027324 
L 211.299066 183.358226 
L 211.624046 182.986504 
L 211.949025 183.283882 
L 212.274005 183.95298 
L 212.598984 184.101669 
L 213.248943 183.43257 
L 213.573923 183.506914 
L 214.223882 184.176013 
L 215.198821 183.43257 
L 215.84878 184.101669 
L 216.173759 184.027324 
L 216.823718 183.43257 
L 217.473677 184.101669 
L 217.798657 184.027324 
L 218.448616 183.209537 
L 218.773595 183.209537 
L 219.098575 183.729947 
L 219.423554 184.027324 
L 220.073514 183.581259 
L 220.398493 183.506914 
L 221.048452 184.176013 
L 221.373432 184.027324 
L 222.023391 183.43257 
L 222.998329 183.804291 
L 223.323309 183.729947 
L 223.648288 183.506914 
L 223.973268 183.655603 
L 224.298247 183.95298 
L 224.623227 183.95298 
L 224.948206 183.506914 
L 225.273186 183.358226 
L 225.598165 183.506914 
L 226.248124 184.027324 
L 227.223063 183.283882 
L 228.198002 184.101669 
L 228.847961 183.655603 
L 229.17294 183.655603 
L 229.49792 183.878636 
L 229.822899 183.95298 
L 230.472858 183.581259 
L 231.122817 183.655603 
L 231.447797 183.729947 
L 232.097756 183.43257 
L 233.072695 183.581259 
L 234.372613 183.283882 
L 234.697592 183.506914 
L 235.022572 183.581259 
L 235.347551 183.43257 
L 235.672531 183.506914 
L 235.99751 183.729947 
L 236.32249 183.804291 
L 237.297428 183.655603 
L 237.947387 183.655603 
L 238.272367 183.804291 
L 238.597346 183.804291 
L 239.247305 183.060849 
L 239.897265 183.135193 
L 240.547224 183.506914 
L 241.522162 183.729947 
L 242.82208 183.506914 
L 243.472039 183.506914 
L 244.121998 183.135193 
L 244.446978 182.91216 
L 245.096937 183.209537 
L 245.421916 183.506914 
L 246.721835 183.581259 
L 247.696773 183.804291 
L 248.346732 183.581259 
L 248.996691 183.135193 
L 249.64665 182.986504 
L 249.97163 183.060849 
L 250.296609 183.283882 
L 250.621589 183.655603 
L 250.946568 183.655603 
L 251.271548 183.43257 
L 251.596527 183.358226 
L 251.921507 183.135193 
L 252.246486 183.135193 
L 252.571466 183.283882 
L 253.221425 183.878636 
L 253.871384 183.506914 
L 254.196364 183.283882 
L 254.521343 183.283882 
L 255.171302 183.581259 
L 255.496282 183.581259 
L 256.146241 183.358226 
L 256.7962 183.43257 
L 257.771138 183.060849 
L 258.746077 183.655603 
L 259.396036 183.135193 
L 259.721016 183.209537 
L 260.370975 183.729947 
L 260.695954 183.729947 
L 261.345913 182.986504 
L 261.670893 183.060849 
L 261.995872 183.283882 
L 262.645831 183.358226 
L 262.970811 183.283882 
L 263.62077 183.43257 
L 263.945749 183.655603 
L 264.270729 183.581259 
L 264.595708 183.209537 
L 264.920688 183.209537 
L 265.245667 183.358226 
L 265.570647 183.655603 
L 265.895627 183.655603 
L 266.545586 182.91216 
L 266.870565 182.986504 
L 267.195545 183.283882 
L 267.520524 183.358226 
L 268.495463 183.209537 
L 268.820442 183.209537 
L 269.145422 183.358226 
L 269.470401 183.358226 
L 270.12036 182.986504 
L 270.44534 183.060849 
L 270.770319 183.43257 
L 271.095299 183.581259 
L 271.745258 182.986504 
L 272.070238 182.91216 
L 273.045176 183.655603 
L 273.370156 183.655603 
L 274.020115 183.43257 
L 275.645012 182.986504 
L 276.294971 183.43257 
L 276.619951 183.43257 
L 276.94493 183.283882 
L 278.244848 183.655603 
L 278.569828 183.283882 
L 279.219787 182.986504 
L 280.844685 183.283882 
L 281.819623 183.358226 
L 282.469582 182.763472 
L 283.119541 183.43257 
L 283.444521 183.506914 
L 283.7695 183.43257 
L 284.419459 182.763472 
L 284.744439 182.763472 
L 285.069419 183.283882 
L 285.719378 183.729947 
L 286.369337 183.135193 
L 286.694316 183.655603 
L 287.019296 183.95298 
L 287.669255 183.060849 
L 287.994234 183.060849 
L 288.319214 183.209537 
L 288.969173 183.655603 
L 289.294152 183.43257 
L 289.619132 182.986504 
L 289.944111 182.986504 
L 290.59407 184.027324 
L 290.91905 184.101669 
L 291.569009 182.837816 
L 291.893989 182.91216 
L 292.218968 183.506914 
L 292.543948 183.581259 
L 293.193907 183.358226 
L 293.518886 183.43257 
L 293.843866 183.804291 
L 294.168845 183.804291 
L 294.493825 183.655603 
L 294.818804 183.283882 
L 295.143784 183.283882 
L 295.793743 184.027324 
L 296.118722 183.878636 
L 296.768681 182.91216 
L 297.093661 183.135193 
L 297.41864 183.878636 
L 297.74362 184.250357 
L 298.393579 182.91216 
L 298.718559 182.763472 
L 299.368518 184.176013 
L 299.693497 184.324701 
L 300.343456 183.358226 
L 300.668436 183.506914 
L 300.993415 183.878636 
L 301.318395 184.027324 
L 301.968354 183.060849 
L 302.293333 183.060849 
L 302.943292 184.250357 
L 303.268272 184.101669 
L 303.593251 183.506914 
L 303.918231 183.283882 
L 304.56819 184.176013 
L 304.89317 184.324701 
L 305.543129 183.209537 
L 305.868108 183.209537 
L 306.518067 184.324701 
L 306.843047 184.101669 
L 307.168026 183.358226 
L 307.493006 182.91216 
L 308.467944 184.250357 
L 309.117903 183.43257 
L 309.442883 183.581259 
L 309.767862 183.95298 
L 310.092842 184.101669 
L 310.417821 183.878636 
L 310.742801 183.506914 
L 311.067781 183.358226 
L 311.71774 184.101669 
L 312.042719 183.95298 
L 312.692678 183.358226 
L 313.342637 184.101669 
L 313.667617 184.027324 
L 314.317576 183.135193 
L 314.642555 183.209537 
L 315.292514 184.027324 
L 315.617494 183.878636 
L 315.942473 183.506914 
L 316.267453 183.43257 
L 316.917412 184.101669 
L 317.892351 183.43257 
L 318.867289 183.878636 
L 319.192269 183.729947 
L 319.517248 183.43257 
L 320.167207 183.95298 
L 320.492187 183.95298 
L 321.142146 183.283882 
L 321.467125 183.43257 
L 322.117084 183.95298 
L 323.092023 183.358226 
L 323.741982 183.878636 
L 324.066962 184.176013 
L 324.391941 183.95298 
L 324.716921 183.581259 
L 325.0419 183.655603 
L 325.691859 184.101669 
L 326.016839 183.95298 
L 326.341818 183.581259 
L 326.991777 183.655603 
L 327.316757 183.804291 
L 327.966716 183.506914 
L 329.591613 183.581259 
L 329.916593 183.358226 
L 330.241572 183.358226 
L 330.566552 183.506914 
L 331.541491 183.506914 
L 332.19145 183.729947 
L 332.516429 183.729947 
L 332.841409 183.581259 
L 333.166388 183.655603 
L 333.491368 183.581259 
L 334.141327 183.729947 
L 334.466306 183.655603 
L 334.791286 183.43257 
L 335.116265 183.060849 
L 335.766224 183.209537 
L 336.091204 183.43257 
L 337.716102 183.729947 
L 338.041081 183.581259 
L 339.01602 183.506914 
L 339.990958 183.283882 
L 340.315938 182.91216 
L 340.965897 183.209537 
L 341.290876 183.506914 
L 342.590794 183.506914 
L 343.240753 183.729947 
L 343.565733 183.804291 
L 344.215692 183.581259 
L 344.540672 183.283882 
L 345.51561 183.060849 
L 345.84059 183.135193 
L 346.165569 183.358226 
L 346.490549 183.729947 
L 346.815528 183.729947 
L 347.465487 183.209537 
L 347.790467 183.060849 
L 348.440426 183.283882 
L 349.090385 183.878636 
L 349.415364 183.804291 
L 350.065324 183.358226 
L 351.365242 183.581259 
L 352.34018 183.43257 
L 352.66516 183.43257 
L 352.990139 183.209537 
L 353.640098 183.135193 
L 354.615037 183.729947 
L 355.264996 183.135193 
L 355.914955 183.358226 
L 356.239934 183.655603 
L 356.564914 183.655603 
L 357.214873 183.060849 
L 357.539853 183.060849 
L 357.864832 183.358226 
L 358.189812 183.283882 
L 358.514791 183.358226 
L 359.16475 183.209537 
L 359.48973 183.358226 
L 359.814709 183.655603 
L 360.789648 183.283882 
L 361.114627 183.283882 
L 361.439607 183.655603 
L 361.764586 183.655603 
L 362.414545 182.91216 
L 362.739525 182.986504 
L 363.064505 183.283882 
L 363.389484 183.209537 
L 363.714464 183.283882 
L 364.364423 183.060849 
L 364.689402 183.135193 
L 365.014382 183.358226 
L 366.3143 183.060849 
L 366.639279 183.43257 
L 366.964259 183.506914 
L 367.289238 183.358226 
L 367.614218 182.986504 
L 367.939197 182.91216 
L 368.914136 183.655603 
L 369.889075 183.358226 
L 370.214054 183.506914 
L 371.188993 183.135193 
L 371.513972 183.135193 
L 372.488911 183.581259 
L 373.13887 183.358226 
L 373.788829 183.43257 
L 374.113808 183.581259 
L 374.763767 183.209537 
L 375.088747 183.135193 
L 375.738706 183.209537 
L 376.063686 183.209537 
L 376.388665 183.358226 
L 377.038624 183.43257 
L 377.363604 183.506914 
L 377.688583 183.43257 
L 378.338542 182.689127 
L 378.663522 183.209537 
L 379.313481 183.581259 
L 379.63846 183.43257 
L 380.288419 182.763472 
L 380.613399 182.91216 
L 381.263358 183.655603 
L 381.588337 183.729947 
L 381.913317 183.358226 
L 382.238296 183.283882 
L 382.888256 184.027324 
L 383.538215 183.135193 
L 383.863194 182.986504 
L 384.188174 183.135193 
L 384.513153 183.506914 
L 384.838133 183.581259 
L 385.163112 183.43257 
L 385.488092 183.060849 
L 385.813071 182.986504 
L 386.138051 183.43257 
L 386.46303 184.101669 
L 386.78801 184.027324 
L 387.437969 182.763472 
L 387.762948 182.837816 
L 388.087928 183.43257 
L 388.412907 183.655603 
L 388.737887 183.358226 
L 389.062867 183.283882 
L 389.387846 183.43257 
L 389.712826 183.804291 
L 390.037805 183.804291 
L 390.362785 183.655603 
L 390.687764 183.283882 
L 391.012744 183.283882 
L 391.662703 184.027324 
L 391.987682 183.804291 
L 392.312662 183.209537 
L 392.637641 182.91216 
L 392.962621 183.209537 
L 393.2876 183.95298 
L 393.61258 184.176013 
L 394.262539 182.91216 
L 394.587518 182.837816 
L 395.237477 184.176013 
L 395.562457 184.250357 
L 396.212416 183.358226 
L 396.537396 183.43257 
L 396.862375 183.878636 
L 397.187355 183.878636 
L 397.837314 183.060849 
L 398.162293 182.986504 
L 398.487273 183.581259 
L 398.487273 183.581259 
" clip-path="url(#pd9d971b266)" style="fill: none; stroke: #1f77b4; stroke-width: 1.5; stroke-linecap: square"/>
   </g>
   <g id="line2d_14">
    <path d="M 73.832727 290.71825 
L 78.70742 290.703381 
L 81.307256 290.71825 
L 398.487273 290.747988 
L 398.487273 290.747988 
" clip-path="url(#pd9d971b266)" style="fill: none; stroke: #ff7f0e; stroke-width: 1.5; stroke-linecap: square"/>
   </g>
   <g id="line2d_15">
    <path d="M 73.832727 54.162754 
L 74.157707 54.311443 
L 75.132645 54.162754 
L 76.107584 54.311443 
L 76.757543 54.237098 
L 77.407502 54.237098 
L 77.732482 54.08841 
L 78.057461 54.162754 
L 78.382441 54.385787 
L 78.70742 54.311443 
L 79.0324 54.534476 
L 81.307256 54.460131 
L 83.257133 54.08841 
L 83.582113 54.162754 
L 83.907093 54.014066 
L 84.882031 54.460131 
L 85.207011 54.460131 
L 85.53199 54.757508 
L 86.181949 54.757508 
L 86.506929 54.534476 
L 86.831908 54.60882 
L 87.806847 54.237098 
L 88.131826 54.162754 
L 88.781785 54.534476 
L 89.106765 54.460131 
L 89.756724 54.534476 
L 90.081704 54.385787 
L 92.031581 54.385787 
L 93.006519 54.014066 
L 93.331499 53.939721 
L 93.981458 54.311443 
L 94.306437 54.237098 
L 94.956396 54.683164 
L 96.256314 54.311443 
L 96.906274 53.939721 
L 97.881212 54.311443 
L 98.531171 54.311443 
L 99.18113 54.683164 
L 100.481048 54.08841 
L 100.806028 54.08841 
L 101.131007 54.311443 
L 101.455987 54.162754 
L 101.780966 54.162754 
L 102.105946 54.014066 
L 102.430925 54.385787 
L 103.080885 54.60882 
L 103.405864 54.237098 
L 103.730844 54.08841 
L 104.055823 54.311443 
L 104.380803 54.757508 
L 104.705782 54.757508 
L 105.680721 53.939721 
L 106.33068 54.460131 
L 107.305618 53.568 
L 108.280557 54.683164 
L 108.930516 54.162754 
L 109.255495 54.08841 
L 109.580475 54.534476 
L 109.905455 54.460131 
L 110.230434 54.237098 
L 110.555414 53.865377 
L 110.880393 53.716689 
L 111.205373 54.014066 
L 111.530352 54.60882 
L 111.855332 54.683164 
L 112.505291 53.939721 
L 112.83027 54.014066 
L 113.15525 54.237098 
L 113.480229 54.60882 
L 113.805209 54.460131 
L 114.130188 54.014066 
L 114.455168 53.791033 
L 115.105127 53.939721 
L 115.430106 54.162754 
L 115.755086 54.162754 
L 116.080066 53.939721 
L 116.405045 53.939721 
L 117.055004 54.385787 
L 118.029943 54.385787 
L 118.354922 54.237098 
L 119.004881 54.162754 
L 119.65484 53.939721 
L 119.97982 54.014066 
L 120.304799 53.939721 
L 120.954758 54.460131 
L 121.279738 54.460131 
L 122.254676 54.08841 
L 123.554595 54.014066 
L 124.204554 54.460131 
L 125.179492 54.683164 
L 125.504472 54.311443 
L 126.47941 54.162754 
L 126.80439 54.162754 
L 127.454349 54.385787 
L 127.779328 54.385787 
L 128.104308 54.162754 
L 129.404226 54.08841 
L 130.054185 54.014066 
L 130.379165 54.162754 
L 130.704144 54.08841 
L 131.029124 54.237098 
L 131.679083 54.162754 
L 132.329042 54.08841 
L 132.979001 54.08841 
L 133.30398 53.939721 
L 134.278919 53.865377 
L 134.928878 53.716689 
L 135.903817 53.939721 
L 136.228796 54.162754 
L 136.878755 54.237098 
L 138.178673 54.311443 
L 139.153612 53.642344 
L 140.45353 53.568 
L 140.778509 53.865377 
L 142.728387 54.311443 
L 143.703325 53.865377 
L 145.653202 54.237098 
L 145.978182 54.237098 
L 146.303161 54.08841 
L 146.95312 54.237098 
L 147.2781 54.08841 
L 148.902998 54.08841 
L 149.227977 54.311443 
L 150.202916 54.08841 
L 150.527895 54.162754 
L 151.177854 54.534476 
L 151.827813 54.08841 
L 152.477772 53.939721 
L 153.127731 54.014066 
L 153.452711 53.865377 
L 153.77769 53.939721 
L 154.10267 53.865377 
L 154.752629 54.311443 
L 155.077609 54.311443 
L 155.727568 54.014066 
L 156.052547 54.08841 
L 156.377527 54.311443 
L 156.702506 54.08841 
L 158.327404 54.014066 
L 158.652383 53.865377 
L 159.302342 53.865377 
L 159.627322 54.162754 
L 161.577199 54.08841 
L 161.902179 53.791033 
L 162.227158 53.716689 
L 162.877117 53.939721 
L 163.527076 53.865377 
L 163.852056 53.939721 
L 164.177035 54.237098 
L 164.826994 54.311443 
L 165.801933 53.939721 
L 166.451892 54.162754 
L 166.776871 54.08841 
L 167.101851 53.865377 
L 167.42683 53.791033 
L 167.75181 54.014066 
L 168.726749 53.939721 
L 169.051728 53.865377 
L 169.701687 54.237098 
L 170.026667 54.385787 
L 170.676626 54.162754 
L 171.326585 54.237098 
L 171.976544 54.460131 
L 172.301523 54.311443 
L 174.2514 54.385787 
L 174.57638 54.534476 
L 175.551319 54.60882 
L 175.876298 54.683164 
L 176.526257 54.534476 
L 177.176216 54.683164 
L 177.501196 54.460131 
L 178.801114 54.162754 
L 179.126093 54.237098 
L 179.451073 54.162754 
L 179.776052 54.311443 
L 180.101032 54.237098 
L 180.426011 54.311443 
L 181.075971 54.683164 
L 181.40095 54.831853 
L 182.375889 54.757508 
L 183.675807 54.237098 
L 184.000786 54.311443 
L 184.325766 54.534476 
L 184.975725 54.60882 
L 186.600622 54.311443 
L 187.250581 54.311443 
L 187.575561 54.534476 
L 187.900541 54.311443 
L 188.22552 54.311443 
L 189.200459 53.939721 
L 190.175397 54.311443 
L 190.500377 54.385787 
L 190.825356 54.60882 
L 191.800295 54.60882 
L 192.450254 54.014066 
L 192.775233 54.08841 
L 193.100213 54.014066 
L 193.425192 54.162754 
L 194.400131 54.162754 
L 195.05009 54.60882 
L 195.37507 54.60882 
L 196.025029 54.162754 
L 196.350008 54.014066 
L 197.324947 54.162754 
L 197.649926 54.014066 
L 198.299885 54.08841 
L 198.624865 54.385787 
L 198.949844 54.460131 
L 199.599803 54.014066 
L 200.574742 54.757508 
L 201.549681 53.791033 
L 202.19964 54.311443 
L 202.524619 54.162754 
L 202.849599 53.716689 
L 203.174578 53.568 
L 203.499558 53.865377 
L 203.824537 54.385787 
L 204.149517 54.60882 
L 204.474496 54.385787 
L 204.799476 54.014066 
L 205.124455 54.08841 
L 205.774414 54.534476 
L 206.424373 53.865377 
L 206.749353 53.642344 
L 207.399312 54.534476 
L 207.724292 54.60882 
L 208.374251 54.014066 
L 208.69923 53.939721 
L 209.349189 54.534476 
L 209.674169 54.385787 
L 209.999148 53.939721 
L 210.324128 53.791033 
L 210.974087 54.08841 
L 211.299066 54.014066 
L 211.624046 54.08841 
L 211.949025 54.014066 
L 212.598984 54.162754 
L 212.923964 54.385787 
L 213.573923 54.385787 
L 213.898903 54.162754 
L 214.873841 54.08841 
L 215.198821 53.865377 
L 216.498739 54.162754 
L 216.823718 54.385787 
L 217.473677 54.460131 
L 218.123636 54.08841 
L 218.773595 54.014066 
L 219.423554 54.08841 
L 220.723473 54.60882 
L 221.373432 54.460131 
L 221.698411 54.162754 
L 222.34837 54.162754 
L 222.67335 54.311443 
L 222.998329 54.311443 
L 223.323309 54.460131 
L 223.973268 54.385787 
L 224.298247 54.08841 
L 225.273186 54.014066 
L 225.598165 53.939721 
L 225.923145 54.162754 
L 226.248124 54.08841 
L 226.573104 54.311443 
L 226.898084 54.237098 
L 227.548043 54.311443 
L 227.873022 54.162754 
L 229.17294 54.08841 
L 229.49792 53.865377 
L 230.147879 54.014066 
L 230.797838 53.791033 
L 231.122817 53.791033 
L 232.422735 54.311443 
L 232.747715 54.311443 
L 233.072695 54.460131 
L 233.397674 54.385787 
L 233.722654 54.460131 
L 234.047633 54.237098 
L 234.372613 54.162754 
L 234.697592 53.865377 
L 235.99751 53.568 
L 236.32249 53.791033 
L 236.647469 53.865377 
L 236.972449 54.08841 
L 237.947387 54.162754 
L 238.597346 54.385787 
L 238.922326 54.162754 
L 240.222244 53.939721 
L 242.172121 54.311443 
L 242.497101 54.162754 
L 242.82208 54.237098 
L 243.14706 54.08841 
L 243.472039 54.162754 
L 244.446978 54.014066 
L 244.771957 54.237098 
L 245.096937 54.162754 
L 245.421916 54.237098 
L 246.071876 54.162754 
L 246.396855 54.162754 
L 246.721835 54.385787 
L 247.046814 54.460131 
L 247.371794 54.385787 
L 248.021753 54.014066 
L 248.996691 53.939721 
L 249.64665 53.791033 
L 249.97163 53.865377 
L 250.621589 54.311443 
L 251.271548 54.08841 
L 251.596527 53.939721 
L 251.921507 54.162754 
L 252.571466 54.237098 
L 252.896446 54.014066 
L 254.196364 53.939721 
L 254.846323 53.865377 
L 255.171302 54.08841 
L 255.496282 54.08841 
L 255.821261 54.237098 
L 257.121179 54.311443 
L 257.446159 54.08841 
L 257.771138 54.014066 
L 258.096118 53.716689 
L 258.746077 54.014066 
L 259.721016 54.08841 
L 260.045995 54.237098 
L 260.370975 54.534476 
L 261.020934 54.162754 
L 261.995872 54.014066 
L 262.320852 54.237098 
L 262.970811 54.08841 
L 263.29579 53.865377 
L 263.62077 54.014066 
L 263.945749 54.014066 
L 264.270729 54.162754 
L 264.595708 54.014066 
L 265.245667 54.08841 
L 265.570647 54.385787 
L 265.895627 54.311443 
L 266.220606 54.385787 
L 266.870565 54.162754 
L 267.520524 54.460131 
L 268.170483 54.385787 
L 268.495463 54.237098 
L 269.470401 54.311443 
L 270.770319 54.60882 
L 271.095299 54.534476 
L 272.070238 54.683164 
L 272.720197 54.60882 
L 273.370156 54.534476 
L 274.020115 54.311443 
L 274.670074 54.237098 
L 276.294971 54.237098 
L 276.94493 54.757508 
L 278.244848 54.757508 
L 278.894808 54.311443 
L 279.219787 54.311443 
L 279.544767 54.162754 
L 280.519705 54.534476 
L 281.169664 54.534476 
L 281.494644 54.385787 
L 282.144603 54.311443 
L 282.794562 54.237098 
L 283.119541 54.385787 
L 284.09448 54.311443 
L 284.744439 53.939721 
L 286.044357 54.237098 
L 286.369337 54.460131 
L 286.694316 54.460131 
L 287.344275 54.683164 
L 288.319214 54.014066 
L 288.644193 53.939721 
L 288.969173 54.162754 
L 289.294152 54.08841 
L 289.619132 54.237098 
L 289.944111 54.162754 
L 290.59407 54.385787 
L 290.91905 54.534476 
L 291.244029 54.534476 
L 291.893989 54.014066 
L 293.843866 54.08841 
L 294.493825 54.460131 
L 294.818804 54.460131 
L 295.468763 54.08841 
L 296.443702 54.906197 
L 297.41864 53.865377 
L 297.74362 54.237098 
L 298.0686 54.385787 
L 299.043538 53.642344 
L 299.693497 54.534476 
L 300.018477 54.757508 
L 300.668436 54.237098 
L 300.993415 54.162754 
L 301.643374 54.60882 
L 301.968354 54.385787 
L 302.293333 53.865377 
L 302.618313 53.716689 
L 303.268272 54.460131 
L 303.593251 54.60882 
L 304.24321 53.939721 
L 304.89317 54.237098 
L 305.218149 54.534476 
L 305.543129 54.385787 
L 306.193088 53.791033 
L 306.518067 53.791033 
L 307.168026 54.162754 
L 307.493006 53.939721 
L 307.817985 53.865377 
L 309.117903 54.385787 
L 309.767862 54.311443 
L 310.092842 54.162754 
L 310.742801 54.08841 
L 311.71774 53.939721 
L 312.042719 54.014066 
L 312.367699 54.237098 
L 312.692678 54.237098 
L 313.017658 54.385787 
L 313.992596 54.014066 
L 315.292514 53.939721 
L 316.267453 54.683164 
L 317.242391 54.385787 
L 317.567371 54.237098 
L 317.892351 53.939721 
L 318.54231 54.237098 
L 319.192269 54.237098 
L 319.517248 54.385787 
L 320.492187 54.014066 
L 322.117084 54.08841 
L 322.767043 54.460131 
L 323.092023 54.237098 
L 324.716921 54.237098 
L 325.0419 54.014066 
L 326.016839 54.014066 
L 326.341818 53.865377 
L 326.991777 53.939721 
L 327.641736 54.162754 
L 327.966716 54.311443 
L 328.291695 54.237098 
L 329.266634 54.385787 
L 329.591613 54.385787 
L 330.891532 53.791033 
L 331.216511 53.865377 
L 331.541491 53.716689 
L 332.516429 53.791033 
L 332.841409 54.08841 
L 334.141327 54.460131 
L 334.791286 54.237098 
L 336.091204 53.865377 
L 336.416183 54.014066 
L 336.741163 54.014066 
L 337.066143 54.237098 
L 337.716102 54.311443 
L 338.69104 54.162754 
L 340.315938 54.162754 
L 340.965897 54.385787 
L 341.940835 54.162754 
L 342.590794 54.460131 
L 343.240753 54.385787 
L 343.565733 54.237098 
L 343.890713 53.939721 
L 344.540672 54.014066 
L 344.865651 54.014066 
L 345.190631 53.716689 
L 345.84059 53.865377 
L 346.165569 54.237098 
L 346.815528 54.311443 
L 347.140508 54.08841 
L 347.790467 54.162754 
L 348.115446 54.237098 
L 349.415364 54.014066 
L 349.740344 54.162754 
L 350.065324 53.939721 
L 350.715283 53.865377 
L 351.040262 53.939721 
L 351.365242 54.162754 
L 353.315119 54.08841 
L 353.965078 53.716689 
L 354.290057 53.716689 
L 354.615037 53.939721 
L 354.940016 54.014066 
L 355.589975 53.939721 
L 356.239934 54.385787 
L 356.564914 54.385787 
L 357.214873 54.014066 
L 357.539853 53.939721 
L 358.189812 54.162754 
L 359.48973 53.865377 
L 359.814709 54.08841 
L 360.139689 54.162754 
L 360.789648 53.791033 
L 361.439607 54.237098 
L 361.764586 54.385787 
L 362.414545 54.162754 
L 362.739525 54.162754 
L 363.389484 54.460131 
L 363.714464 54.460131 
L 364.039443 54.237098 
L 364.364423 54.311443 
L 364.689402 54.162754 
L 365.664341 54.237098 
L 367.614218 54.60882 
L 369.239115 54.534476 
L 369.564095 54.460131 
L 369.889075 54.162754 
L 371.838952 54.237098 
L 372.163931 54.460131 
L 372.488911 54.534476 
L 372.81389 54.757508 
L 373.463849 54.906197 
L 374.763767 54.534476 
L 375.088747 54.237098 
L 375.738706 54.237098 
L 376.713645 54.60882 
L 377.038624 54.460131 
L 378.013563 54.385787 
L 378.338542 54.237098 
L 378.988501 54.237098 
L 379.63846 54.460131 
L 379.96344 54.385787 
L 380.288419 54.014066 
L 380.613399 53.939721 
L 382.238296 54.385787 
L 382.563276 54.534476 
L 383.538215 54.460131 
L 384.513153 53.865377 
L 385.163112 54.162754 
L 386.138051 54.162754 
L 386.78801 54.534476 
L 387.112989 54.60882 
L 388.087928 53.865377 
L 388.737887 54.162754 
L 389.712826 54.014066 
L 390.362785 54.534476 
L 390.687764 54.460131 
L 391.012744 54.162754 
L 391.337723 54.08841 
L 391.662703 54.237098 
L 392.312662 54.757508 
L 393.2876 53.791033 
L 393.61258 54.162754 
L 393.937559 54.237098 
L 394.262539 54.162754 
L 394.587518 53.716689 
L 394.912498 53.568 
L 395.237477 53.939721 
L 395.562457 54.534476 
L 395.887437 54.534476 
L 396.862375 54.08841 
L 397.512334 54.534476 
L 398.487273 53.642344 
L 398.487273 53.642344 
" clip-path="url(#pd9d971b266)" style="fill: none; stroke: #2ca02c; stroke-width: 1.5; stroke-linecap: square"/>
   </g>
   <g id="line2d_16">
    <path d="M 73.832727 295.450828 
L 76.432563 295.473131 
L 398.487273 295.450828 
L 398.487273 295.450828 
" clip-path="url(#pd9d971b266)" style="fill: none; stroke: #d62728; stroke-width: 1.5; stroke-linecap: square"/>
   </g>
   <g id="patch_3">
    <path d="M 57.6 307.584 
L 57.6 41.472 
" style="fill: none; stroke: #000000; stroke-width: 0.8; stroke-linejoin: miter; stroke-linecap: square"/>
   </g>
   <g id="patch_4">
    <path d="M 414.72 307.584 
L 414.72 41.472 
" style="fill: none; stroke: #000000; stroke-width: 0.8; stroke-linejoin: miter; stroke-linecap: square"/>
   </g>
   <g id="patch_5">
    <path d="M 57.6 307.584 
L 414.72 307.584 
" style="fill: none; stroke: #000000; stroke-width: 0.8; stroke-linejoin: miter; stroke-linecap: square"/>
   </g>
   <g id="patch_6">
    <path d="M 57.6 41.472 
L 414.72 41.472 
" style="fill: none; stroke: #000000; stroke-width: 0.8; stroke-linejoin: miter; stroke-linecap: square"/>
   </g>
  </g>
 </g>
 <defs>
  <clipPath id="pd9d971b266">
   <rect x="57.6" y="41.472" width="357.12" height="266.112"/>
  </clipPath>
 </defs>
</svg>
