<?xml version="1.0" encoding="utf-8" standalone="no"?>
<!DOCTYPE svg PUBLIC "-//W3C//DTD SVG 1.1//EN"
  "http://www.w3.org/Graphics/SVG/1.1/DTD/svg11.dtd">
<svg xmlns:xlink="http://www.w3.org/1999/xlink" width="460.8pt" height="345.6pt" viewBox="0 0 460.8 345.6" xmlns="http://www.w3.org/2000/svg" version="1.1">
 <metadata>
  <rdf:RDF xmlns:dc="http://purl.org/dc/elements/1.1/" xmlns:cc="http://creativecommons.org/ns#" xmlns:rdf="http://www.w3.org/1999/02/22-rdf-syntax-ns#">
   <cc:Work>
    <dc:type rdf:resource="http://purl.org/dc/dcmitype/StillImage"/>
    <dc:date>2025-12-30T05:03:14.279947</dc:date>
    <dc:format>image/svg+xml</dc:format>
    <dc:creator>
     <cc:Agent>
      <dc:title>Matplotlib v3.10.8, https://matplotlib.org/</dc:title>
     </cc:Agent>
    </dc:creator>
   </cc:Work>
  </rdf:RDF>
 </metadata>
 <defs>
  <style type="text/css">*{stroke-linejoin: round; stroke-linecap: butt}</style>
 </defs>
 <g id="figure_1">
  <g id="patch_1">
   <path d="M 0 345.6 
L 460.8 345.6 
L 460.8 0 
L 0 0 
z
" style="fill: #ffffff"/>
  </g>
  <g id="axes_1">
   <g id="patch_2">
    <path d="M 57.6 307.584 
L 414.72 307.584 
L 414.72 41.472 
L 57.6 41.472 
z
" style="fill: #ffffff"/>
   </g>
   <g id="matplotlib.axis_1">
    <g id="xtick_1">
     <g id="line2d_1">
      <defs>
       <path id="m35e171f456" d="M 0 0 
L 0 3.5 
" style="stroke: #000000; stroke-width: 0.8"/>
      </defs>
      <g>
       <use xlink:href="#m35e171f456" x="73.832727" y="307.584" style="stroke: #000000; stroke-width: 0.8"/>
      </g>
     </g>
     <g id="text_1">
      <!-- 0 -->
      <g transform="translate(70.651477 322.182437) scale(0.1 -0.1)">
       <defs>
        <path id="DejaVuSans-30" d="M 2034 4250 
Q 1547 4250 1301 3770 
Q 1056 3291 1056 2328 
Q 1056 1369 1301 889 
Q 1547 409 2034 409 
Q 2525 409 2770 889 
Q 3016 1369 3016 2328 
Q 3016 3291 2770 3770 
Q 2525 4250 2034 4250 
z
M 2034 4750 
Q 2819 4750 3233 4129 
Q 3647 3509 3647 2328 
Q 3647 1150 3233 529 
Q 2819 -91 2034 -91 
Q 1250 -91 836 529 
Q 422 1150 422 2328 
Q 422 3509 836 4129 
Q 1250 4750 2034 4750 
z
" transform="scale(0.015625)"/>
       </defs>
       <use xlink:href="#DejaVuSans-30"/>
      </g>
     </g>
    </g>
    <g id="xtick_2">
     <g id="line2d_2">
      <g>
       <use xlink:href="#m35e171f456" x="138.828632" y="307.584" style="stroke: #000000; stroke-width: 0.8"/>
      </g>
     </g>
     <g id="text_2">
      <!-- 1 -->
      <g transform="translate(135.647382 322.182437) scale(0.1 -0.1)">
       <defs>
        <path id="DejaVuSans-31" d="M 794 531 
L 1825 531 
L 1825 4091 
L 703 3866 
L 703 4441 
L 1819 4666 
L 2450 4666 
L 2450 531 
L 3481 531 
L 3481 0 
L 794 0 
L 794 531 
z
" transform="scale(0.015625)"/>
       </defs>
       <use xlink:href="#DejaVuSans-31"/>
      </g>
     </g>
    </g>
    <g id="xtick_3">
     <g id="line2d_3">
      <g>
       <use xlink:href="#m35e171f456" x="203.824537" y="307.584" style="stroke: #000000; stroke-width: 0.8"/>
      </g>
     </g>
     <g id="text_3">
      <!-- 2 -->
      <g transform="translate(200.643287 322.182437) scale(0.1 -0.1)">
       <defs>
        <path id="DejaVuSans-32" d="M 1228 531 
L 3431 531 
L 3431 0 
L 469 0 
L 469 531 
Q 828 903 1448 1529 
Q 2069 2156 2228 2338 
Q 2531 2678 2651 2914 
Q 2772 3150 2772 3378 
Q 2772 3750 2511 3984 
Q 2250 4219 1831 4219 
Q 1534 4219 1204 4116 
Q 875 4013 500 3803 
L 500 4441 
Q 881 4594 1212 4672 
Q 1544 4750 1819 4750 
Q 2544 4750 2975 4387 
Q 3406 4025 3406 3419 
Q 3406 3131 3298 2873 
Q 3191 2616 2906 2266 
Q 2828 2175 2409 1742 
Q 1991 1309 1228 531 
z
" transform="scale(0.015625)"/>
       </defs>
       <use xlink:href="#DejaVuSans-32"/>
      </g>
     </g>
    </g>
    <g id="xtick_4">
     <g id="line2d_4">
      <g>
       <use xlink:href="#m35e171f456" x="268.820442" y="307.584" style="stroke: #000000; stroke-width: 0.8"/>
      </g>
     </g>
     <g id="text_4">
      <!-- 3 -->
      <g transform="translate(265.639192 322.182437) scale(0.1 -0.1)">
       <defs>
        <path id="DejaVuSans-33" d="M 2597 2516 
Q 3050 2419 3304 2112 
Q 3559 1806 3559 1356 
Q 3559 666 3084 287 
Q 2609 -91 1734 -91 
Q 1441 -91 1130 -33 
Q 819 25 488 141 
L 488 750 
Q 750 597 1062 519 
Q 1375 441 1716 441 
Q 2309 441 2620 675 
Q 2931 909 2931 1356 
Q 2931 1769 2642 2001 
Q 2353 2234 1838 2234 
L 1294 2234 
L 1294 2753 
L 1863 2753 
Q 2328 2753 2575 2939 
Q 2822 3125 2822 3475 
Q 2822 3834 2567 4026 
Q 2313 4219 1838 4219 
Q 1578 4219 1281 4162 
Q 984 4106 628 3988 
L 628 4550 
Q 988 4650 1302 4700 
Q 1616 4750 1894 4750 
Q 2613 4750 3031 4423 
Q 3450 4097 3450 3541 
Q 3450 3153 3228 2886 
Q 3006 2619 2597 2516 
z
" transform="scale(0.015625)"/>
       </defs>
       <use xlink:href="#DejaVuSans-33"/>
      </g>
     </g>
    </g>
    <g id="xtick_5">
     <g id="line2d_5">
      <g>
       <use xlink:href="#m35e171f456" x="333.816347" y="307.584" style="stroke: #000000; stroke-width: 0.8"/>
      </g>
     </g>
     <g id="text_5">
      <!-- 4 -->
      <g transform="translate(330.635097 322.182437) scale(0.1 -0.1)">
       <defs>
        <path id="DejaVuSans-34" d="M 2419 4116 
L 825 1625 
L 2419 1625 
L 2419 4116 
z
M 2253 4666 
L 3047 4666 
L 3047 1625 
L 3713 1625 
L 3713 1100 
L 3047 1100 
L 3047 0 
L 2419 0 
L 2419 1100 
L 313 1100 
L 313 1709 
L 2253 4666 
z
" transform="scale(0.015625)"/>
       </defs>
       <use xlink:href="#DejaVuSans-34"/>
      </g>
     </g>
    </g>
    <g id="xtick_6">
     <g id="line2d_6">
      <g>
       <use xlink:href="#m35e171f456" x="398.812252" y="307.584" style="stroke: #000000; stroke-width: 0.8"/>
      </g>
     </g>
     <g id="text_6">
      <!-- 5 -->
      <g transform="translate(395.631002 322.182437) scale(0.1 -0.1)">
       <defs>
        <path id="DejaVuSans-35" d="M 691 4666 
L 3169 4666 
L 3169 4134 
L 1269 4134 
L 1269 2991 
Q 1406 3038 1543 3061 
Q 1681 3084 1819 3084 
Q 2600 3084 3056 2656 
Q 3513 2228 3513 1497 
Q 3513 744 3044 326 
Q 2575 -91 1722 -91 
Q 1428 -91 1123 -41 
Q 819 9 494 109 
L 494 744 
Q 775 591 1075 516 
Q 1375 441 1709 441 
Q 2250 441 2565 725 
Q 2881 1009 2881 1497 
Q 2881 1984 2565 2268 
Q 2250 2553 1709 2553 
Q 1456 2553 1204 2497 
Q 953 2441 691 2322 
L 691 4666 
z
" transform="scale(0.015625)"/>
       </defs>
       <use xlink:href="#DejaVuSans-35"/>
      </g>
     </g>
    </g>
    <g id="text_7">
     <!-- 1e−7 -->
     <g transform="translate(387.462188 334.860562) scale(0.1 -0.1)">
      <defs>
       <path id="DejaVuSans-65" d="M 3597 1894 
L 3597 1613 
L 953 1613 
Q 991 1019 1311 708 
Q 1631 397 2203 397 
Q 2534 397 2845 478 
Q 3156 559 3463 722 
L 3463 178 
Q 3153 47 2828 -22 
Q 2503 -91 2169 -91 
Q 1331 -91 842 396 
Q 353 884 353 1716 
Q 353 2575 817 3079 
Q 1281 3584 2069 3584 
Q 2775 3584 3186 3129 
Q 3597 2675 3597 1894 
z
M 3022 2063 
Q 3016 2534 2758 2815 
Q 2500 3097 2075 3097 
Q 1594 3097 1305 2825 
Q 1016 2553 972 2059 
L 3022 2063 
z
" transform="scale(0.015625)"/>
       <path id="DejaVuSans-2212" d="M 678 2272 
L 4684 2272 
L 4684 1741 
L 678 1741 
L 678 2272 
z
" transform="scale(0.015625)"/>
       <path id="DejaVuSans-37" d="M 525 4666 
L 3525 4666 
L 3525 4397 
L 1831 0 
L 1172 0 
L 2766 4134 
L 525 4134 
L 525 4666 
z
" transform="scale(0.015625)"/>
      </defs>
      <use xlink:href="#DejaVuSans-31"/>
      <use xlink:href="#DejaVuSans-65" transform="translate(63.623047 0)"/>
      <use xlink:href="#DejaVuSans-2212" transform="translate(125.146484 0)"/>
      <use xlink:href="#DejaVuSans-37" transform="translate(208.935547 0)"/>
     </g>
    </g>
   </g>
   <g id="matplotlib.axis_2">
    <g id="ytick_1">
     <g id="line2d_7">
      <defs>
       <path id="mda9db58e96" d="M 0 0 
L -3.5 0 
" style="stroke: #000000; stroke-width: 0.8"/>
      </defs>
      <g>
       <use xlink:href="#mda9db58e96" x="57.6" y="299.312261" style="stroke: #000000; stroke-width: 0.8"/>
      </g>
     </g>
     <g id="text_8">
      <!-- 0 -->
      <g transform="translate(44.2375 303.11148) scale(0.1 -0.1)">
       <use xlink:href="#DejaVuSans-30"/>
      </g>
     </g>
    </g>
    <g id="ytick_2">
     <g id="line2d_8">
      <g>
       <use xlink:href="#mda9db58e96" x="57.6" y="249.258945" style="stroke: #000000; stroke-width: 0.8"/>
      </g>
     </g>
     <g id="text_9">
      <!-- 10 -->
      <g transform="translate(37.875 253.058164) scale(0.1 -0.1)">
       <use xlink:href="#DejaVuSans-31"/>
       <use xlink:href="#DejaVuSans-30" transform="translate(63.623047 0)"/>
      </g>
     </g>
    </g>
    <g id="ytick_3">
     <g id="line2d_9">
      <g>
       <use xlink:href="#mda9db58e96" x="57.6" y="199.20563" style="stroke: #000000; stroke-width: 0.8"/>
      </g>
     </g>
     <g id="text_10">
      <!-- 20 -->
      <g transform="translate(37.875 203.004849) scale(0.1 -0.1)">
       <use xlink:href="#DejaVuSans-32"/>
       <use xlink:href="#DejaVuSans-30" transform="translate(63.623047 0)"/>
      </g>
     </g>
    </g>
    <g id="ytick_4">
     <g id="line2d_10">
      <g>
       <use xlink:href="#mda9db58e96" x="57.6" y="149.152314" style="stroke: #000000; stroke-width: 0.8"/>
      </g>
     </g>
     <g id="text_11">
      <!-- 30 -->
      <g transform="translate(37.875 152.951533) scale(0.1 -0.1)">
       <use xlink:href="#DejaVuSans-33"/>
       <use xlink:href="#DejaVuSans-30" transform="translate(63.623047 0)"/>
      </g>
     </g>
    </g>
    <g id="ytick_5">
     <g id="line2d_11">
      <g>
       <use xlink:href="#mda9db58e96" x="57.6" y="99.098999" style="stroke: #000000; stroke-width: 0.8"/>
      </g>
     </g>
     <g id="text_12">
      <!-- 40 -->
      <g transform="translate(37.875 102.898217) scale(0.1 -0.1)">
       <use xlink:href="#DejaVuSans-34"/>
       <use xlink:href="#DejaVuSans-30" transform="translate(63.623047 0)"/>
      </g>
     </g>
    </g>
    <g id="ytick_6">
     <g id="line2d_12">
      <g>
       <use xlink:href="#mda9db58e96" x="57.6" y="49.045683" style="stroke: #000000; stroke-width: 0.8"/>
      </g>
     </g>
     <g id="text_13">
      <!-- 50 -->
      <g transform="translate(37.875 52.844902) scale(0.1 -0.1)">
       <use xlink:href="#DejaVuSans-35"/>
       <use xlink:href="#DejaVuSans-30" transform="translate(63.623047 0)"/>
      </g>
     </g>
    </g>
   </g>
   <g id="line2d_13">
    <path d="M 73.832727 178.072494 
L 74.157707 178.072494 
L 74.807666 177.290411 
L 75.782604 177.681453 
L 76.107584 177.603245 
L 76.432563 177.212203 
L 76.757543 177.212203 
L 77.407502 177.525036 
L 78.70742 177.603245 
L 79.0324 177.837869 
L 79.357379 177.837869 
L 80.007338 177.290411 
L 81.307256 177.681453 
L 81.632236 177.525036 
L 82.607174 177.681453 
L 82.932154 177.681453 
L 83.257133 177.525036 
L 83.582113 177.525036 
L 83.907093 177.290411 
L 84.557052 177.525036 
L 84.882031 177.603245 
L 85.53199 177.446828 
L 86.506929 177.681453 
L 86.831908 177.446828 
L 87.806847 177.290411 
L 88.781785 177.525036 
L 90.406683 177.055786 
L 90.731663 177.290411 
L 91.381622 177.994286 
L 91.706601 177.916078 
L 92.68154 176.977578 
L 93.656478 177.681453 
L 94.306437 177.133995 
L 94.631417 177.446828 
L 94.956396 178.072494 
L 95.281376 178.072494 
L 95.931335 177.36862 
L 96.256314 177.446828 
L 96.906274 177.916078 
L 97.231253 177.681453 
L 97.556233 177.212203 
L 97.881212 176.977578 
L 98.206192 177.290411 
L 98.531171 178.072494 
L 98.856151 178.307119 
L 99.18113 177.916078 
L 99.50611 177.055786 
L 99.831089 177.055786 
L 100.481048 178.072494 
L 100.806028 177.916078 
L 101.131007 177.603245 
L 101.455987 177.603245 
L 101.780966 177.994286 
L 102.105946 178.150703 
L 103.080885 177.446828 
L 103.405864 177.759661 
L 103.730844 178.228911 
L 104.055823 178.307119 
L 104.705782 177.055786 
L 105.030762 177.133995 
L 105.680721 178.619953 
L 106.0057 178.463536 
L 106.33068 177.681453 
L 106.655659 177.212203 
L 106.980639 177.603245 
L 107.305618 178.228911 
L 107.630598 178.541744 
L 107.955577 178.385328 
L 108.280557 177.837869 
L 108.605536 177.603245 
L 109.255495 178.307119 
L 109.580475 178.150703 
L 110.230434 177.212203 
L 110.555414 177.446828 
L 110.880393 178.228911 
L 111.205373 178.463536 
L 111.855332 177.446828 
L 112.180311 177.603245 
L 112.83027 178.541744 
L 113.15525 178.463536 
L 113.480229 177.759661 
L 113.805209 177.36862 
L 114.130188 177.681453 
L 114.455168 178.385328 
L 114.780147 178.619953 
L 115.430106 177.36862 
L 115.755086 177.36862 
L 116.405045 178.385328 
L 117.379984 177.525036 
L 117.704963 177.837869 
L 118.029943 178.307119 
L 118.354922 178.463536 
L 119.004881 177.759661 
L 119.329861 177.916078 
L 119.65484 178.307119 
L 119.97982 178.463536 
L 120.629779 177.525036 
L 120.954758 177.681453 
L 121.279738 178.307119 
L 121.604717 178.619953 
L 122.579656 177.36862 
L 123.229615 178.150703 
L 123.554595 178.385328 
L 124.204554 177.759661 
L 124.529533 177.837869 
L 124.854513 178.463536 
L 125.179492 178.619953 
L 125.504472 178.072494 
L 125.829451 177.759661 
L 126.154431 177.759661 
L 126.47941 177.916078 
L 127.129369 177.837869 
L 127.454349 177.681453 
L 127.779328 177.759661 
L 128.429287 178.307119 
L 128.754267 178.307119 
L 129.079247 177.916078 
L 129.404226 177.759661 
L 129.729206 177.916078 
L 130.054185 178.307119 
L 130.379165 178.150703 
L 130.704144 177.759661 
L 131.029124 177.681453 
L 131.679083 178.150703 
L 132.004062 178.228911 
L 132.979001 177.916078 
L 133.953939 178.385328 
L 134.603898 177.916078 
L 135.578837 177.837869 
L 135.903817 177.603245 
L 136.553776 177.681453 
L 136.878755 177.837869 
L 137.528714 177.837869 
L 138.178673 177.603245 
L 138.503653 177.759661 
L 139.478591 177.603245 
L 139.803571 177.916078 
L 140.12855 177.994286 
L 141.103489 177.681453 
L 141.428468 177.994286 
L 142.078428 177.916078 
L 142.403407 178.150703 
L 142.728387 177.994286 
L 143.053366 177.681453 
L 143.378346 177.525036 
L 143.703325 177.603245 
L 144.028305 177.446828 
L 144.353284 177.446828 
L 145.003243 177.916078 
L 145.653202 177.837869 
L 146.303161 177.759661 
L 146.95312 178.150703 
L 147.2781 178.072494 
L 148.253038 177.290411 
L 148.578018 177.290411 
L 148.902998 177.525036 
L 149.227977 177.525036 
L 149.552957 177.681453 
L 149.877936 177.681453 
L 150.527895 177.916078 
L 151.177854 177.837869 
L 151.502834 177.837869 
L 151.827813 178.150703 
L 152.152793 178.228911 
L 152.477772 178.072494 
L 153.127731 177.290411 
L 153.77769 177.212203 
L 154.10267 177.446828 
L 154.427649 177.525036 
L 154.752629 177.759661 
L 155.402588 177.681453 
L 156.052547 177.759661 
L 156.377527 177.525036 
L 156.702506 177.446828 
L 157.027486 177.837869 
L 157.677445 177.837869 
L 158.327404 177.446828 
L 158.652383 177.446828 
L 159.302342 177.759661 
L 160.60226 177.446828 
L 161.252219 177.759661 
L 161.577199 177.681453 
L 161.902179 177.36862 
L 162.877117 177.759661 
L 163.202097 177.446828 
L 163.527076 177.290411 
L 163.852056 177.36862 
L 164.177035 177.603245 
L 164.502015 177.994286 
L 164.826994 177.994286 
L 165.476953 177.290411 
L 166.776871 177.603245 
L 167.101851 177.36862 
L 168.07679 177.837869 
L 169.051728 177.525036 
L 169.376708 177.759661 
L 169.701687 178.150703 
L 170.026667 178.072494 
L 170.676626 177.36862 
L 171.326585 177.603245 
L 171.976544 177.603245 
L 172.301523 177.212203 
L 173.601441 177.446828 
L 174.2514 177.36862 
L 174.90136 177.916078 
L 175.226339 177.916078 
L 175.876298 177.290411 
L 176.526257 177.36862 
L 176.851237 177.603245 
L 177.176216 177.681453 
L 177.501196 177.525036 
L 179.126093 177.603245 
L 179.451073 177.290411 
L 179.776052 177.290411 
L 180.101032 177.525036 
L 181.40095 177.525036 
L 182.050909 177.759661 
L 182.375889 177.681453 
L 183.025848 177.290411 
L 183.675807 177.212203 
L 184.000786 177.212203 
L 184.650745 177.446828 
L 185.300704 177.525036 
L 185.625684 177.36862 
L 185.950663 177.36862 
L 186.275643 177.055786 
L 186.600622 177.36862 
L 186.925602 177.916078 
L 187.250581 178.072494 
L 187.575561 177.994286 
L 188.22552 177.290411 
L 188.5505 177.055786 
L 189.525438 177.759661 
L 190.175397 177.212203 
L 191.150336 178.307119 
L 191.475315 177.759661 
L 191.800295 177.525036 
L 192.125274 177.446828 
L 192.450254 177.837869 
L 192.775233 177.916078 
L 193.100213 177.681453 
L 193.425192 177.212203 
L 193.750172 176.977578 
L 194.075152 177.290411 
L 194.725111 178.463536 
L 195.05009 177.916078 
L 195.37507 177.133995 
L 195.700049 176.977578 
L 196.350008 177.994286 
L 196.674988 177.916078 
L 196.999967 177.603245 
L 197.324947 177.681453 
L 197.974906 178.072494 
L 198.949844 177.36862 
L 199.274824 177.681453 
L 199.599803 178.228911 
L 199.924783 178.307119 
L 200.574742 177.055786 
L 200.899722 176.977578 
L 201.549681 178.619953 
L 201.87466 178.463536 
L 202.19964 177.681453 
L 202.524619 177.212203 
L 202.849599 177.525036 
L 203.174578 178.150703 
L 203.499558 178.463536 
L 203.824537 178.307119 
L 204.149517 177.837869 
L 204.474496 177.603245 
L 205.124455 178.307119 
L 205.449435 178.228911 
L 205.774414 177.603245 
L 206.099394 177.290411 
L 206.424373 177.446828 
L 206.749353 178.307119 
L 207.074333 178.463536 
L 207.724292 177.446828 
L 208.049271 177.603245 
L 208.374251 178.228911 
L 208.69923 178.541744 
L 209.02421 178.385328 
L 209.349189 177.681453 
L 209.674169 177.290411 
L 209.999148 177.681453 
L 210.324128 178.463536 
L 210.649107 178.619953 
L 211.299066 177.446828 
L 211.624046 177.290411 
L 211.949025 178.072494 
L 212.274005 178.463536 
L 212.598984 178.150703 
L 212.923964 177.525036 
L 213.248943 177.446828 
L 214.223882 178.541744 
L 214.873841 177.759661 
L 215.198821 177.916078 
L 215.5238 178.307119 
L 215.84878 178.385328 
L 216.498739 177.603245 
L 216.823718 177.681453 
L 217.148698 178.385328 
L 217.473677 178.619953 
L 218.448616 177.525036 
L 219.423554 178.385328 
L 220.073514 177.916078 
L 220.398493 178.072494 
L 220.723473 178.619953 
L 221.048452 178.619953 
L 221.373432 178.072494 
L 221.698411 177.837869 
L 222.023391 177.759661 
L 222.34837 178.072494 
L 223.648288 177.837869 
L 224.298247 178.307119 
L 224.623227 178.307119 
L 225.273186 177.681453 
L 225.923145 178.385328 
L 226.898084 177.759661 
L 227.223063 177.837869 
L 227.548043 178.150703 
L 227.873022 178.228911 
L 229.17294 177.994286 
L 229.49792 178.072494 
L 229.822899 178.307119 
L 230.472858 177.916078 
L 231.447797 177.916078 
L 231.772776 177.681453 
L 233.072695 177.916078 
L 233.722654 177.916078 
L 234.047633 177.759661 
L 235.672531 177.837869 
L 235.99751 177.994286 
L 236.972449 177.759661 
L 237.297428 177.994286 
L 238.272367 178.150703 
L 238.597346 178.072494 
L 238.922326 177.759661 
L 240.222244 177.446828 
L 240.547224 177.603245 
L 240.872203 177.916078 
L 242.172121 177.681453 
L 242.82208 178.072494 
L 243.472039 177.837869 
L 244.446978 177.212203 
L 244.771957 177.446828 
L 245.096937 177.446828 
L 245.421916 177.603245 
L 245.746896 177.525036 
L 246.396855 177.759661 
L 247.371794 177.759661 
L 247.696773 178.072494 
L 248.346732 178.072494 
L 248.671712 177.525036 
L 248.996691 177.212203 
L 249.321671 177.133995 
L 250.296609 177.446828 
L 250.621589 177.681453 
L 251.271548 177.603245 
L 251.596527 177.759661 
L 251.921507 177.759661 
L 252.246486 177.525036 
L 252.571466 177.525036 
L 253.221425 177.916078 
L 253.546405 177.916078 
L 253.871384 177.681453 
L 254.521343 177.603245 
L 254.846323 177.681453 
L 255.171302 177.916078 
L 256.146241 177.446828 
L 256.47122 177.446828 
L 257.121179 177.759661 
L 257.446159 177.446828 
L 258.746077 177.837869 
L 259.071057 177.525036 
L 259.721016 177.290411 
L 260.370975 177.994286 
L 260.695954 177.994286 
L 261.345913 177.212203 
L 261.670893 177.290411 
L 261.995872 177.525036 
L 262.320852 177.603245 
L 262.970811 177.36862 
L 263.945749 177.837869 
L 264.920688 177.525036 
L 265.245667 177.681453 
L 265.570647 177.994286 
L 265.895627 177.994286 
L 266.545586 177.290411 
L 267.520524 177.525036 
L 267.845504 177.446828 
L 268.170483 177.212203 
L 268.495463 177.212203 
L 269.145422 177.446828 
L 270.12036 177.446828 
L 270.44534 177.603245 
L 270.770319 177.916078 
L 271.420278 177.681453 
L 271.745258 177.36862 
L 272.070238 177.36862 
L 273.045176 177.759661 
L 273.370156 177.603245 
L 274.345094 177.759661 
L 275.645012 177.446828 
L 275.969992 177.603245 
L 276.294971 177.525036 
L 276.619951 177.603245 
L 276.94493 177.525036 
L 277.594889 177.759661 
L 277.919869 177.916078 
L 278.569828 177.681453 
L 279.219787 177.212203 
L 279.869746 177.290411 
L 280.519705 177.681453 
L 281.819623 177.290411 
L 282.144603 177.055786 
L 282.469582 177.290411 
L 282.794562 177.759661 
L 283.119541 177.994286 
L 283.444521 177.916078 
L 283.7695 177.681453 
L 284.419459 177.055786 
L 285.069419 177.681453 
L 285.394398 177.916078 
L 286.044357 177.212203 
L 287.019296 178.228911 
L 287.669255 177.446828 
L 287.994234 177.603245 
L 288.319214 177.916078 
L 288.644193 178.072494 
L 289.619132 177.055786 
L 289.944111 177.446828 
L 290.269091 178.150703 
L 290.59407 178.463536 
L 290.91905 177.994286 
L 291.244029 177.212203 
L 291.569009 177.133995 
L 292.218968 178.150703 
L 292.543948 178.072494 
L 292.868927 177.681453 
L 293.193907 177.759661 
L 293.518886 178.072494 
L 293.843866 178.150703 
L 294.168845 177.916078 
L 294.493825 177.525036 
L 294.818804 177.36862 
L 295.468763 178.150703 
L 295.793743 178.307119 
L 296.443702 177.133995 
L 296.768681 177.133995 
L 297.41864 178.619953 
L 297.74362 178.307119 
L 298.0686 177.525036 
L 298.393579 177.133995 
L 299.368518 178.463536 
L 299.693497 178.228911 
L 300.018477 177.681453 
L 300.343456 177.603245 
L 300.993415 178.307119 
L 301.318395 178.150703 
L 301.968354 177.212203 
L 302.293333 177.446828 
L 302.618313 178.228911 
L 302.943292 178.307119 
L 303.593251 177.446828 
L 303.918231 177.681453 
L 304.56819 178.619953 
L 304.89317 178.385328 
L 305.218149 177.603245 
L 305.543129 177.446828 
L 305.868108 177.759661 
L 306.193088 178.463536 
L 306.518067 178.619953 
L 307.168026 177.446828 
L 307.493006 177.36862 
L 307.817985 178.228911 
L 308.142965 178.541744 
L 309.117903 177.525036 
L 309.442883 177.837869 
L 309.767862 178.385328 
L 310.092842 178.463536 
L 310.742801 177.837869 
L 311.067781 177.994286 
L 311.39276 178.385328 
L 311.71774 178.463536 
L 312.367699 177.446828 
L 312.692678 177.681453 
L 313.017658 178.385328 
L 313.342637 178.619953 
L 313.992596 177.525036 
L 314.317576 177.446828 
L 314.642555 177.759661 
L 314.967535 178.228911 
L 315.292514 178.307119 
L 315.942473 177.759661 
L 316.267453 177.837869 
L 316.592432 178.463536 
L 316.917412 178.541744 
L 317.242391 177.994286 
L 317.567371 177.681453 
L 317.892351 177.681453 
L 318.21733 177.994286 
L 319.192269 177.603245 
L 319.517248 177.603245 
L 320.167207 178.228911 
L 320.492187 178.150703 
L 320.817166 177.681453 
L 321.142146 177.603245 
L 321.467125 177.837869 
L 321.792105 178.228911 
L 322.117084 178.072494 
L 322.442064 177.681453 
L 323.092023 177.603245 
L 323.417002 177.994286 
L 323.741982 178.150703 
L 324.066962 178.150703 
L 324.391941 177.916078 
L 324.716921 177.837869 
L 325.0419 177.916078 
L 325.36688 178.150703 
L 325.691859 178.228911 
L 326.341818 177.916078 
L 327.316757 177.837869 
L 327.966716 177.603245 
L 329.266634 177.837869 
L 330.241572 177.681453 
L 330.891532 177.759661 
L 331.216511 177.603245 
L 331.541491 177.916078 
L 331.86647 177.994286 
L 332.841409 177.837869 
L 334.141327 178.072494 
L 334.466306 178.072494 
L 334.791286 177.759661 
L 335.441245 177.525036 
L 336.416183 177.603245 
L 336.741163 177.916078 
L 337.391122 177.837869 
L 337.716102 177.759661 
L 339.01602 177.994286 
L 339.990958 177.36862 
L 340.315938 177.290411 
L 340.965897 177.603245 
L 341.615856 177.525036 
L 341.940835 177.759661 
L 344.215692 178.228911 
L 344.865651 177.290411 
L 345.190631 177.212203 
L 345.84059 177.36862 
L 346.490549 177.759661 
L 346.815528 177.681453 
L 347.140508 177.837869 
L 347.790467 177.837869 
L 348.115446 177.603245 
L 348.440426 177.603245 
L 349.090385 177.994286 
L 349.415364 177.994286 
L 350.390303 177.603245 
L 351.040262 177.837869 
L 351.690221 177.759661 
L 352.015201 177.525036 
L 352.66516 177.603245 
L 352.990139 177.681453 
L 353.315119 177.525036 
L 353.965078 177.603245 
L 354.290057 177.837869 
L 354.615037 177.916078 
L 355.264996 177.36862 
L 355.589975 177.290411 
L 356.239934 177.916078 
L 356.564914 177.994286 
L 356.889894 177.681453 
L 357.214873 177.212203 
L 357.539853 177.290411 
L 357.864832 177.525036 
L 358.189812 177.603245 
L 359.16475 177.446828 
L 359.48973 177.603245 
L 359.814709 177.916078 
L 360.139689 177.837869 
L 360.464668 177.525036 
L 360.789648 177.525036 
L 361.439607 178.072494 
L 361.764586 178.072494 
L 362.414545 177.36862 
L 363.064505 177.681453 
L 363.389484 177.681453 
L 364.364423 177.212203 
L 364.689402 177.212203 
L 365.014382 177.446828 
L 365.98932 177.446828 
L 366.964259 177.837869 
L 367.939197 177.212203 
L 368.264177 177.290411 
L 368.589156 177.603245 
L 368.914136 177.681453 
L 369.564095 177.603245 
L 370.539034 177.603245 
L 371.188993 177.36862 
L 371.838952 177.446828 
L 372.488911 177.525036 
L 372.81389 177.446828 
L 373.788829 177.837869 
L 374.438788 177.603245 
L 375.088747 177.133995 
L 375.738706 177.212203 
L 376.063686 177.290411 
L 376.388665 177.525036 
L 377.688583 177.212203 
L 378.013563 176.89937 
L 378.988501 177.994286 
L 379.313481 177.916078 
L 379.96344 177.133995 
L 380.288419 176.977578 
L 381.263358 177.681453 
L 381.913317 177.133995 
L 382.238296 177.446828 
L 382.563276 178.072494 
L 382.888256 178.072494 
L 383.213235 177.603245 
L 383.538215 177.446828 
L 383.863194 177.525036 
L 384.513153 177.916078 
L 385.488092 176.89937 
L 385.813071 177.290411 
L 386.138051 178.072494 
L 386.46303 178.307119 
L 387.112989 177.133995 
L 387.437969 176.89937 
L 388.087928 178.072494 
L 388.737887 177.603245 
L 389.062867 177.681453 
L 389.387846 177.994286 
L 389.712826 178.150703 
L 390.687764 177.290411 
L 391.337723 178.150703 
L 391.662703 178.228911 
L 392.312662 177.055786 
L 392.637641 177.133995 
L 393.2876 178.541744 
L 393.61258 178.307119 
L 393.937559 177.525036 
L 394.262539 177.133995 
L 395.237477 178.385328 
L 395.562457 178.228911 
L 395.887437 177.603245 
L 396.212416 177.603245 
L 396.862375 178.307119 
L 397.187355 178.072494 
L 397.512334 177.525036 
L 397.837314 177.212203 
L 398.162293 177.525036 
L 398.487273 178.228911 
L 398.487273 178.228911 
" clip-path="url(#p4f6acf6daa)" style="fill: none; stroke: #1f77b4; stroke-width: 1.5; stroke-linecap: square"/>
   </g>
   <g id="line2d_14">
    <path d="M 73.832727 290.827411 
L 398.487273 290.843052 
L 398.487273 290.843052 
" clip-path="url(#p4f6acf6daa)" style="fill: none; stroke: #ff7f0e; stroke-width: 1.5; stroke-linecap: square"/>
   </g>
   <g id="line2d_15">
    <path d="M 73.832727 54.271875 
L 74.157707 54.5065 
L 74.482686 54.5065 
L 75.132645 54.271875 
L 76.107584 54.350083 
L 76.432563 54.428291 
L 77.407502 54.271875 
L 77.732482 54.5065 
L 78.70742 54.662916 
L 80.007338 54.584708 
L 80.657297 54.5065 
L 81.307256 54.584708 
L 82.282195 54.5065 
L 82.932154 54.428291 
L 83.582113 54.428291 
L 83.907093 54.271875 
L 84.557052 54.5065 
L 84.882031 54.584708 
L 85.53199 54.5065 
L 85.85697 54.662916 
L 86.506929 54.741125 
L 86.831908 54.819333 
L 87.481867 54.584708 
L 87.806847 54.5065 
L 88.456806 54.741125 
L 88.781785 54.741125 
L 89.431744 54.428291 
L 90.081704 54.662916 
L 90.406683 54.350083 
L 90.731663 54.428291 
L 91.381622 54.350083 
L 92.031581 54.741125 
L 92.35656 54.662916 
L 93.006519 54.193666 
L 93.331499 54.350083 
L 94.956396 54.428291 
L 95.606355 54.5065 
L 96.256314 54.428291 
L 96.581294 54.193666 
L 96.906274 54.193666 
L 97.231253 54.350083 
L 97.881212 54.350083 
L 98.206192 54.193666 
L 98.856151 54.584708 
L 99.18113 54.741125 
L 99.831089 54.271875 
L 100.156069 54.193666 
L 100.481048 54.350083 
L 101.131007 54.350083 
L 101.780966 54.03725 
L 102.105946 54.193666 
L 102.430925 54.584708 
L 102.755905 54.584708 
L 103.080885 54.428291 
L 103.405864 53.959042 
L 103.730844 54.115458 
L 104.380803 54.97575 
L 104.705782 54.819333 
L 105.030762 54.350083 
L 105.355741 54.115458 
L 106.0057 54.819333 
L 106.33068 54.741125 
L 106.980639 53.802625 
L 107.305618 53.724417 
L 107.955577 54.5065 
L 108.280557 54.428291 
L 108.605536 54.03725 
L 108.930516 54.115458 
L 109.580475 54.819333 
L 109.905455 54.741125 
L 110.555414 54.03725 
L 111.530352 54.819333 
L 111.855332 54.584708 
L 112.180311 54.03725 
L 112.505291 53.959042 
L 113.15525 54.5065 
L 113.480229 54.584708 
L 113.805209 54.115458 
L 114.130188 53.880833 
L 114.455168 53.959042 
L 115.105127 54.428291 
L 117.379984 54.350083 
L 117.704963 54.271875 
L 118.354922 54.5065 
L 118.679902 54.5065 
L 119.004881 54.193666 
L 119.97982 54.193666 
L 120.304799 54.428291 
L 120.954758 54.115458 
L 121.279738 54.350083 
L 121.929697 54.428291 
L 122.254676 54.428291 
L 123.229615 54.03725 
L 124.204554 54.662916 
L 124.529533 54.819333 
L 124.854513 54.741125 
L 125.179492 54.819333 
L 125.829451 54.271875 
L 126.47941 54.03725 
L 127.779328 54.271875 
L 128.104308 54.193666 
L 128.754267 54.428291 
L 129.079247 54.5065 
L 129.404226 54.271875 
L 129.729206 54.193666 
L 130.054185 53.959042 
L 130.379165 54.193666 
L 131.029124 54.193666 
L 131.354103 54.03725 
L 132.329042 54.03725 
L 132.654021 54.193666 
L 133.30398 54.03725 
L 133.953939 54.350083 
L 134.278919 54.271875 
L 134.603898 53.959042 
L 134.928878 53.802625 
L 135.253857 53.802625 
L 135.578837 54.03725 
L 136.878755 54.03725 
L 137.528714 54.5065 
L 137.853694 54.5065 
L 138.178673 54.350083 
L 138.503653 54.03725 
L 139.478591 54.03725 
L 139.803571 53.724417 
L 140.45353 53.724417 
L 140.778509 53.959042 
L 141.753448 54.03725 
L 142.078428 54.350083 
L 142.403407 54.5065 
L 142.728387 54.5065 
L 143.053366 54.350083 
L 143.378346 54.03725 
L 143.703325 53.959042 
L 144.353284 54.115458 
L 145.003243 53.880833 
L 145.978182 54.271875 
L 146.628141 54.350083 
L 146.95312 54.350083 
L 147.2781 54.5065 
L 147.928059 54.03725 
L 148.578018 53.959042 
L 149.227977 54.350083 
L 149.552957 54.271875 
L 150.202916 53.880833 
L 150.527895 54.193666 
L 151.177854 54.428291 
L 151.827813 54.193666 
L 152.477772 54.350083 
L 152.802752 54.271875 
L 153.77769 53.568 
L 154.10267 53.646208 
L 154.752629 54.350083 
L 155.077609 54.271875 
L 155.402588 54.03725 
L 156.052547 54.350083 
L 157.352465 54.03725 
L 157.677445 54.115458 
L 158.002424 54.03725 
L 158.327404 53.802625 
L 159.952301 54.193666 
L 160.60226 54.03725 
L 160.92724 54.350083 
L 161.252219 54.428291 
L 161.577199 54.350083 
L 161.902179 54.03725 
L 162.227158 53.880833 
L 163.852056 53.959042 
L 164.826994 54.428291 
L 165.151974 54.350083 
L 165.801933 53.959042 
L 166.126912 54.115458 
L 167.75181 54.03725 
L 168.07679 54.271875 
L 168.401769 54.193666 
L 168.726749 53.959042 
L 169.051728 53.880833 
L 169.376708 53.959042 
L 170.026667 54.428291 
L 170.351646 54.5065 
L 170.676626 54.428291 
L 171.001605 54.193666 
L 171.326585 54.350083 
L 171.651564 54.350083 
L 171.976544 54.584708 
L 172.626503 54.350083 
L 172.951482 54.271875 
L 173.276462 54.428291 
L 173.601441 54.428291 
L 173.926421 54.662916 
L 174.57638 54.584708 
L 175.226339 54.584708 
L 175.551319 54.741125 
L 175.876298 54.662916 
L 176.201278 54.428291 
L 177.501196 54.662916 
L 178.476134 54.5065 
L 179.451073 54.428291 
L 179.776052 54.350083 
L 181.075971 54.662916 
L 181.40095 54.584708 
L 181.72593 54.741125 
L 182.050909 54.741125 
L 182.375889 54.897541 
L 182.700868 54.897541 
L 183.025848 54.584708 
L 183.350827 54.428291 
L 183.675807 54.584708 
L 184.000786 54.584708 
L 184.325766 54.741125 
L 184.975725 54.5065 
L 185.300704 54.350083 
L 186.275643 54.5065 
L 186.600622 54.271875 
L 187.250581 54.350083 
L 187.575561 54.662916 
L 188.22552 54.584708 
L 188.875479 54.350083 
L 189.200459 54.271875 
L 189.850418 54.428291 
L 190.500377 54.350083 
L 190.825356 54.5065 
L 191.150336 54.5065 
L 191.475315 54.662916 
L 191.800295 54.5065 
L 192.125274 54.5065 
L 192.450254 54.193666 
L 193.425192 54.350083 
L 194.400131 54.271875 
L 194.725111 54.584708 
L 195.05009 54.741125 
L 195.700049 54.193666 
L 196.674988 54.5065 
L 197.324947 54.115458 
L 197.649926 53.959042 
L 198.624865 54.584708 
L 198.949844 54.350083 
L 199.274824 53.959042 
L 199.599803 54.03725 
L 200.249762 55.053958 
L 200.574742 54.741125 
L 200.899722 54.271875 
L 201.224701 54.03725 
L 201.87466 54.897541 
L 202.524619 54.350083 
L 202.849599 53.724417 
L 203.174578 53.724417 
L 203.824537 54.428291 
L 204.149517 54.428291 
L 204.474496 54.115458 
L 204.799476 54.03725 
L 205.449435 54.819333 
L 205.774414 54.741125 
L 206.099394 54.271875 
L 206.424373 54.115458 
L 206.749353 54.193666 
L 207.074333 54.741125 
L 207.399312 54.819333 
L 207.724292 54.584708 
L 208.049271 54.115458 
L 208.374251 54.03725 
L 208.69923 54.193666 
L 209.02421 54.5065 
L 209.349189 54.5065 
L 209.999148 53.880833 
L 210.324128 54.03725 
L 210.649107 54.350083 
L 210.974087 54.428291 
L 211.949025 54.271875 
L 212.274005 54.428291 
L 212.598984 54.350083 
L 212.923964 54.428291 
L 213.573923 54.350083 
L 213.898903 54.5065 
L 214.548862 54.5065 
L 215.5238 54.115458 
L 216.173759 54.350083 
L 217.148698 54.350083 
L 217.473677 54.5065 
L 218.123636 54.584708 
L 218.448616 54.271875 
L 218.773595 54.115458 
L 219.423554 54.193666 
L 220.073514 54.741125 
L 220.723473 54.819333 
L 221.048452 54.819333 
L 221.698411 54.350083 
L 222.34837 54.193666 
L 223.323309 54.428291 
L 223.973268 54.350083 
L 224.948206 54.584708 
L 225.273186 54.5065 
L 225.598165 54.115458 
L 225.923145 54.03725 
L 226.248124 54.193666 
L 227.223063 54.115458 
L 227.548043 54.03725 
L 227.873022 54.115458 
L 228.198002 54.03725 
L 229.822899 54.350083 
L 230.797838 53.802625 
L 231.772776 54.115458 
L 232.097756 53.959042 
L 232.747715 54.115458 
L 233.072695 54.5065 
L 233.722654 54.662916 
L 234.372613 54.193666 
L 235.022572 54.115458 
L 235.99751 53.646208 
L 236.647469 53.959042 
L 237.297428 54.03725 
L 237.622408 54.115458 
L 237.947387 54.428291 
L 238.272367 54.584708 
L 239.247305 54.115458 
L 241.197183 54.115458 
L 241.522162 54.350083 
L 242.497101 54.350083 
L 242.82208 54.5065 
L 243.472039 54.5065 
L 243.797019 54.193666 
L 244.446978 53.959042 
L 244.771957 54.271875 
L 245.096937 54.428291 
L 245.421916 54.350083 
L 245.746896 54.115458 
L 246.396855 54.193666 
L 246.721835 54.428291 
L 247.046814 54.5065 
L 247.696773 54.193666 
L 248.671712 54.428291 
L 248.996691 54.03725 
L 249.64665 53.724417 
L 249.97163 53.802625 
L 250.621589 54.350083 
L 251.596527 54.115458 
L 252.246486 54.271875 
L 252.896446 54.03725 
L 253.871384 54.115458 
L 254.196364 53.802625 
L 254.846323 53.880833 
L 255.171302 54.115458 
L 256.47122 54.193666 
L 257.121179 54.428291 
L 258.096118 53.959042 
L 259.071057 53.880833 
L 259.396036 53.724417 
L 260.045995 54.115458 
L 260.370975 54.428291 
L 261.020934 54.350083 
L 261.345913 54.115458 
L 261.995872 54.115458 
L 262.320852 54.271875 
L 262.645831 54.193666 
L 262.970811 53.959042 
L 263.29579 53.880833 
L 264.270729 54.271875 
L 264.595708 53.959042 
L 265.245667 53.959042 
L 265.895627 54.5065 
L 266.545586 54.428291 
L 267.195545 54.271875 
L 267.845504 54.428291 
L 268.820442 54.193666 
L 269.145422 54.271875 
L 269.470401 54.5065 
L 270.12036 54.662916 
L 270.770319 54.584708 
L 271.745258 54.5065 
L 272.395217 54.350083 
L 272.720197 54.428291 
L 273.045176 54.662916 
L 273.370156 54.5065 
L 274.670074 54.5065 
L 274.995053 54.271875 
L 275.645012 54.350083 
L 275.969992 54.350083 
L 276.619951 54.662916 
L 277.919869 54.741125 
L 278.244848 54.897541 
L 278.569828 54.897541 
L 278.894808 54.662916 
L 279.544767 54.5065 
L 280.519705 54.897541 
L 280.844685 54.584708 
L 281.494644 54.5065 
L 281.819623 54.5065 
L 282.144603 54.350083 
L 282.469582 54.350083 
L 282.794562 54.193666 
L 283.119541 54.350083 
L 283.444521 54.662916 
L 283.7695 54.662916 
L 284.419459 54.350083 
L 286.044357 54.428291 
L 286.694316 54.584708 
L 287.019296 54.5065 
L 287.669255 54.584708 
L 287.994234 54.428291 
L 288.644193 54.350083 
L 289.294152 54.271875 
L 289.619132 54.350083 
L 289.944111 54.271875 
L 290.59407 54.5065 
L 290.91905 54.741125 
L 291.244029 54.428291 
L 291.893989 54.350083 
L 292.543948 54.428291 
L 292.868927 54.428291 
L 293.193907 54.115458 
L 293.518886 54.03725 
L 294.168845 54.5065 
L 294.493825 54.584708 
L 295.143784 54.115458 
L 295.468763 54.193666 
L 296.118722 55.053958 
L 296.443702 54.819333 
L 296.768681 54.271875 
L 297.093661 54.193666 
L 297.74362 54.819333 
L 298.0686 54.741125 
L 298.718559 53.568 
L 299.043538 53.646208 
L 299.693497 54.428291 
L 300.018477 54.350083 
L 300.343456 54.115458 
L 300.668436 54.115458 
L 301.318395 54.819333 
L 301.643374 54.584708 
L 301.968354 54.193666 
L 302.293333 54.03725 
L 302.618313 54.271875 
L 302.943292 54.662916 
L 303.268272 54.819333 
L 303.918231 53.959042 
L 304.24321 54.03725 
L 304.89317 54.428291 
L 305.218149 54.5065 
L 305.543129 54.115458 
L 306.193088 53.880833 
L 306.518067 54.193666 
L 307.168026 54.350083 
L 307.817985 54.271875 
L 308.467944 54.428291 
L 308.792924 54.193666 
L 309.117903 54.193666 
L 309.442883 54.428291 
L 310.092842 54.428291 
L 310.417821 54.584708 
L 310.742801 54.350083 
L 311.067781 54.271875 
L 311.39276 54.03725 
L 312.042719 54.271875 
L 312.367699 54.350083 
L 312.692678 54.271875 
L 313.667617 54.5065 
L 314.642555 54.115458 
L 314.967535 54.03725 
L 315.292514 54.115458 
L 316.267453 54.97575 
L 318.21733 54.115458 
L 318.867289 54.428291 
L 319.517248 54.271875 
L 319.842228 54.350083 
L 320.167207 54.271875 
L 320.492187 54.5065 
L 321.142146 54.428291 
L 321.792105 53.959042 
L 322.117084 54.193666 
L 322.767043 54.193666 
L 323.417002 53.959042 
L 324.066962 54.193666 
L 324.716921 54.115458 
L 326.016839 54.350083 
L 326.666798 53.959042 
L 326.991777 53.880833 
L 327.316757 54.115458 
L 328.616675 54.193666 
L 329.266634 54.584708 
L 329.916593 54.350083 
L 330.566552 54.115458 
L 332.19145 53.802625 
L 333.491368 54.115458 
L 333.816347 54.428291 
L 334.141327 54.584708 
L 334.466306 54.584708 
L 334.791286 54.271875 
L 335.116265 54.115458 
L 337.066143 54.193666 
L 339.01602 54.584708 
L 339.665979 54.350083 
L 339.990958 54.03725 
L 340.315938 54.115458 
L 340.640917 54.350083 
L 341.290876 54.271875 
L 341.615856 54.115458 
L 341.940835 54.115458 
L 342.915774 54.584708 
L 343.240753 54.350083 
L 343.890713 54.271875 
L 344.215692 54.428291 
L 344.540672 54.428291 
L 344.865651 54.271875 
L 345.190631 53.802625 
L 345.51561 53.646208 
L 346.165569 54.03725 
L 346.490549 54.193666 
L 347.790467 54.271875 
L 348.115446 54.350083 
L 348.440426 54.115458 
L 350.065324 54.03725 
L 350.390303 53.802625 
L 350.715283 53.880833 
L 351.040262 54.193666 
L 352.34018 54.271875 
L 352.66516 54.5065 
L 353.315119 54.350083 
L 353.640098 54.03725 
L 354.615037 53.959042 
L 355.589975 53.802625 
L 356.239934 54.5065 
L 356.564914 54.5065 
L 357.539853 54.115458 
L 358.189812 54.193666 
L 358.514791 54.193666 
L 358.839771 53.959042 
L 360.139689 54.193666 
L 360.464668 54.115458 
L 360.789648 53.880833 
L 361.114627 53.959042 
L 361.439607 54.271875 
L 362.089566 54.428291 
L 362.739525 54.350083 
L 364.364423 54.271875 
L 364.689402 54.193666 
L 365.014382 54.271875 
L 365.664341 54.662916 
L 366.3143 54.5065 
L 366.639279 54.662916 
L 367.614218 54.584708 
L 368.589156 54.428291 
L 368.914136 54.662916 
L 369.239115 54.5065 
L 369.564095 54.5065 
L 369.889075 54.350083 
L 370.864013 54.428291 
L 371.188993 54.193666 
L 372.81389 54.584708 
L 373.13887 54.5065 
L 373.463849 54.662916 
L 373.788829 54.662916 
L 374.113808 54.819333 
L 374.763767 54.662916 
L 375.088747 54.428291 
L 375.413726 54.428291 
L 376.063686 54.819333 
L 377.038624 54.428291 
L 378.013563 54.350083 
L 378.338542 54.193666 
L 378.988501 54.193666 
L 379.313481 54.5065 
L 379.63846 54.662916 
L 379.96344 54.584708 
L 380.288419 54.350083 
L 380.938378 54.271875 
L 381.263358 54.350083 
L 381.588337 54.271875 
L 382.563276 54.5065 
L 382.888256 54.428291 
L 383.538215 54.584708 
L 383.863194 54.5065 
L 384.188174 54.193666 
L 384.513153 54.271875 
L 384.838133 54.193666 
L 385.163112 54.271875 
L 385.813071 54.193666 
L 386.138051 54.271875 
L 386.46303 54.662916 
L 386.78801 54.662916 
L 387.112989 54.428291 
L 388.087928 54.271875 
L 388.412907 54.428291 
L 388.737887 54.428291 
L 389.387846 54.03725 
L 390.037805 54.584708 
L 390.362785 54.741125 
L 390.687764 54.428291 
L 391.012744 53.959042 
L 391.337723 54.03725 
L 391.662703 54.662916 
L 391.987682 54.897541 
L 392.312662 54.741125 
L 392.637641 54.271875 
L 392.962621 54.03725 
L 393.61258 54.819333 
L 393.937559 54.741125 
L 394.587518 53.568 
L 394.912498 53.646208 
L 395.562457 54.5065 
L 395.887437 54.428291 
L 396.212416 54.03725 
L 396.537396 54.115458 
L 396.862375 54.584708 
L 397.187355 54.819333 
L 397.512334 54.662916 
L 398.162293 53.959042 
L 398.487273 54.115458 
L 398.487273 54.115458 
" clip-path="url(#p4f6acf6daa)" style="fill: none; stroke: #2ca02c; stroke-width: 1.5; stroke-linecap: square"/>
   </g>
   <g id="line2d_16">
    <path d="M 73.832727 295.425433 
L 78.057461 295.425433 
L 80.982277 295.472358 
L 83.907093 295.441075 
L 89.106765 295.464538 
L 91.706601 295.441075 
L 96.256314 295.448896 
L 101.131007 295.433254 
L 106.33068 295.448896 
L 110.555414 295.456717 
L 398.487273 295.441075 
L 398.487273 295.441075 
" clip-path="url(#p4f6acf6daa)" style="fill: none; stroke: #d62728; stroke-width: 1.5; stroke-linecap: square"/>
   </g>
   <g id="patch_3">
    <path d="M 57.6 307.584 
L 57.6 41.472 
" style="fill: none; stroke: #000000; stroke-width: 0.8; stroke-linejoin: miter; stroke-linecap: square"/>
   </g>
   <g id="patch_4">
    <path d="M 414.72 307.584 
L 414.72 41.472 
" style="fill: none; stroke: #000000; stroke-width: 0.8; stroke-linejoin: miter; stroke-linecap: square"/>
   </g>
   <g id="patch_5">
    <path d="M 57.6 307.584 
L 414.72 307.584 
" style="fill: none; stroke: #000000; stroke-width: 0.8; stroke-linejoin: miter; stroke-linecap: square"/>
   </g>
   <g id="patch_6">
    <path d="M 57.6 41.472 
L 414.72 41.472 
" style="fill: none; stroke: #000000; stroke-width: 0.8; stroke-linejoin: miter; stroke-linecap: square"/>
   </g>
  </g>
 </g>
 <defs>
  <clipPath id="p4f6acf6daa">
   <rect x="57.6" y="41.472" width="357.12" height="266.112"/>
  </clipPath>
 </defs>
</svg>
