<?xml version="1.0" encoding="utf-8" standalone="no"?>
<!DOCTYPE svg PUBLIC "-//W3C//DTD SVG 1.1//EN"
  "http://www.w3.org/Graphics/SVG/1.1/DTD/svg11.dtd">
<svg xmlns:xlink="http://www.w3.org/1999/xlink" width="460.8pt" height="345.6pt" viewBox="0 0 460.8 345.6" xmlns="http://www.w3.org/2000/svg" version="1.1">
 <metadata>
  <rdf:RDF xmlns:dc="http://purl.org/dc/elements/1.1/" xmlns:cc="http://creativecommons.org/ns#" xmlns:rdf="http://www.w3.org/1999/02/22-rdf-syntax-ns#">
   <cc:Work>
    <dc:type rdf:resource="http://purl.org/dc/dcmitype/StillImage"/>
    <dc:date>2025-12-29T08:42:47.360411</dc:date>
    <dc:format>image/svg+xml</dc:format>
    <dc:creator>
     <cc:Agent>
      <dc:title>Matplotlib v3.10.8, https://matplotlib.org/</dc:title>
     </cc:Agent>
    </dc:creator>
   </cc:Work>
  </rdf:RDF>
 </metadata>
 <defs>
  <style type="text/css">*{stroke-linejoin: round; stroke-linecap: butt}</style>
 </defs>
 <g id="figure_1">
  <g id="patch_1">
   <path d="M 0 345.6 
L 460.8 345.6 
L 460.8 0 
L 0 0 
z
" style="fill: #ffffff"/>
  </g>
  <g id="axes_1">
   <g id="patch_2">
    <path d="M 57.6 307.584 
L 414.72 307.584 
L 414.72 41.472 
L 57.6 41.472 
z
" style="fill: #ffffff"/>
   </g>
   <g id="matplotlib.axis_1">
    <g id="xtick_1">
     <g id="line2d_1">
      <defs>
       <path id="md83116ef97" d="M 0 0 
L 0 3.5 
" style="stroke: #000000; stroke-width: 0.8"/>
      </defs>
      <g>
       <use xlink:href="#md83116ef97" x="73.832727" y="307.584" style="stroke: #000000; stroke-width: 0.8"/>
      </g>
     </g>
     <g id="text_1">
      <!-- 0 -->
      <g transform="translate(70.651477 322.182437) scale(0.1 -0.1)">
       <defs>
        <path id="DejaVuSans-30" d="M 2034 4250 
Q 1547 4250 1301 3770 
Q 1056 3291 1056 2328 
Q 1056 1369 1301 889 
Q 1547 409 2034 409 
Q 2525 409 2770 889 
Q 3016 1369 3016 2328 
Q 3016 3291 2770 3770 
Q 2525 4250 2034 4250 
z
M 2034 4750 
Q 2819 4750 3233 4129 
Q 3647 3509 3647 2328 
Q 3647 1150 3233 529 
Q 2819 -91 2034 -91 
Q 1250 -91 836 529 
Q 422 1150 422 2328 
Q 422 3509 836 4129 
Q 1250 4750 2034 4750 
z
" transform="scale(0.015625)"/>
       </defs>
       <use xlink:href="#DejaVuSans-30"/>
      </g>
     </g>
    </g>
    <g id="xtick_2">
     <g id="line2d_2">
      <g>
       <use xlink:href="#md83116ef97" x="138.828632" y="307.584" style="stroke: #000000; stroke-width: 0.8"/>
      </g>
     </g>
     <g id="text_2">
      <!-- 1 -->
      <g transform="translate(135.647382 322.182437) scale(0.1 -0.1)">
       <defs>
        <path id="DejaVuSans-31" d="M 794 531 
L 1825 531 
L 1825 4091 
L 703 3866 
L 703 4441 
L 1819 4666 
L 2450 4666 
L 2450 531 
L 3481 531 
L 3481 0 
L 794 0 
L 794 531 
z
" transform="scale(0.015625)"/>
       </defs>
       <use xlink:href="#DejaVuSans-31"/>
      </g>
     </g>
    </g>
    <g id="xtick_3">
     <g id="line2d_3">
      <g>
       <use xlink:href="#md83116ef97" x="203.824537" y="307.584" style="stroke: #000000; stroke-width: 0.8"/>
      </g>
     </g>
     <g id="text_3">
      <!-- 2 -->
      <g transform="translate(200.643287 322.182437) scale(0.1 -0.1)">
       <defs>
        <path id="DejaVuSans-32" d="M 1228 531 
L 3431 531 
L 3431 0 
L 469 0 
L 469 531 
Q 828 903 1448 1529 
Q 2069 2156 2228 2338 
Q 2531 2678 2651 2914 
Q 2772 3150 2772 3378 
Q 2772 3750 2511 3984 
Q 2250 4219 1831 4219 
Q 1534 4219 1204 4116 
Q 875 4013 500 3803 
L 500 4441 
Q 881 4594 1212 4672 
Q 1544 4750 1819 4750 
Q 2544 4750 2975 4387 
Q 3406 4025 3406 3419 
Q 3406 3131 3298 2873 
Q 3191 2616 2906 2266 
Q 2828 2175 2409 1742 
Q 1991 1309 1228 531 
z
" transform="scale(0.015625)"/>
       </defs>
       <use xlink:href="#DejaVuSans-32"/>
      </g>
     </g>
    </g>
    <g id="xtick_4">
     <g id="line2d_4">
      <g>
       <use xlink:href="#md83116ef97" x="268.820442" y="307.584" style="stroke: #000000; stroke-width: 0.8"/>
      </g>
     </g>
     <g id="text_4">
      <!-- 3 -->
      <g transform="translate(265.639192 322.182437) scale(0.1 -0.1)">
       <defs>
        <path id="DejaVuSans-33" d="M 2597 2516 
Q 3050 2419 3304 2112 
Q 3559 1806 3559 1356 
Q 3559 666 3084 287 
Q 2609 -91 1734 -91 
Q 1441 -91 1130 -33 
Q 819 25 488 141 
L 488 750 
Q 750 597 1062 519 
Q 1375 441 1716 441 
Q 2309 441 2620 675 
Q 2931 909 2931 1356 
Q 2931 1769 2642 2001 
Q 2353 2234 1838 2234 
L 1294 2234 
L 1294 2753 
L 1863 2753 
Q 2328 2753 2575 2939 
Q 2822 3125 2822 3475 
Q 2822 3834 2567 4026 
Q 2313 4219 1838 4219 
Q 1578 4219 1281 4162 
Q 984 4106 628 3988 
L 628 4550 
Q 988 4650 1302 4700 
Q 1616 4750 1894 4750 
Q 2613 4750 3031 4423 
Q 3450 4097 3450 3541 
Q 3450 3153 3228 2886 
Q 3006 2619 2597 2516 
z
" transform="scale(0.015625)"/>
       </defs>
       <use xlink:href="#DejaVuSans-33"/>
      </g>
     </g>
    </g>
    <g id="xtick_5">
     <g id="line2d_5">
      <g>
       <use xlink:href="#md83116ef97" x="333.816347" y="307.584" style="stroke: #000000; stroke-width: 0.8"/>
      </g>
     </g>
     <g id="text_5">
      <!-- 4 -->
      <g transform="translate(330.635097 322.182437) scale(0.1 -0.1)">
       <defs>
        <path id="DejaVuSans-34" d="M 2419 4116 
L 825 1625 
L 2419 1625 
L 2419 4116 
z
M 2253 4666 
L 3047 4666 
L 3047 1625 
L 3713 1625 
L 3713 1100 
L 3047 1100 
L 3047 0 
L 2419 0 
L 2419 1100 
L 313 1100 
L 313 1709 
L 2253 4666 
z
" transform="scale(0.015625)"/>
       </defs>
       <use xlink:href="#DejaVuSans-34"/>
      </g>
     </g>
    </g>
    <g id="xtick_6">
     <g id="line2d_6">
      <g>
       <use xlink:href="#md83116ef97" x="398.812252" y="307.584" style="stroke: #000000; stroke-width: 0.8"/>
      </g>
     </g>
     <g id="text_6">
      <!-- 5 -->
      <g transform="translate(395.631002 322.182437) scale(0.1 -0.1)">
       <defs>
        <path id="DejaVuSans-35" d="M 691 4666 
L 3169 4666 
L 3169 4134 
L 1269 4134 
L 1269 2991 
Q 1406 3038 1543 3061 
Q 1681 3084 1819 3084 
Q 2600 3084 3056 2656 
Q 3513 2228 3513 1497 
Q 3513 744 3044 326 
Q 2575 -91 1722 -91 
Q 1428 -91 1123 -41 
Q 819 9 494 109 
L 494 744 
Q 775 591 1075 516 
Q 1375 441 1709 441 
Q 2250 441 2565 725 
Q 2881 1009 2881 1497 
Q 2881 1984 2565 2268 
Q 2250 2553 1709 2553 
Q 1456 2553 1204 2497 
Q 953 2441 691 2322 
L 691 4666 
z
" transform="scale(0.015625)"/>
       </defs>
       <use xlink:href="#DejaVuSans-35"/>
      </g>
     </g>
    </g>
    <g id="text_7">
     <!-- 1e−7 -->
     <g transform="translate(387.462188 334.860562) scale(0.1 -0.1)">
      <defs>
       <path id="DejaVuSans-65" d="M 3597 1894 
L 3597 1613 
L 953 1613 
Q 991 1019 1311 708 
Q 1631 397 2203 397 
Q 2534 397 2845 478 
Q 3156 559 3463 722 
L 3463 178 
Q 3153 47 2828 -22 
Q 2503 -91 2169 -91 
Q 1331 -91 842 396 
Q 353 884 353 1716 
Q 353 2575 817 3079 
Q 1281 3584 2069 3584 
Q 2775 3584 3186 3129 
Q 3597 2675 3597 1894 
z
M 3022 2063 
Q 3016 2534 2758 2815 
Q 2500 3097 2075 3097 
Q 1594 3097 1305 2825 
Q 1016 2553 972 2059 
L 3022 2063 
z
" transform="scale(0.015625)"/>
       <path id="DejaVuSans-2212" d="M 678 2272 
L 4684 2272 
L 4684 1741 
L 678 1741 
L 678 2272 
z
" transform="scale(0.015625)"/>
       <path id="DejaVuSans-37" d="M 525 4666 
L 3525 4666 
L 3525 4397 
L 1831 0 
L 1172 0 
L 2766 4134 
L 525 4134 
L 525 4666 
z
" transform="scale(0.015625)"/>
      </defs>
      <use xlink:href="#DejaVuSans-31"/>
      <use xlink:href="#DejaVuSans-65" transform="translate(63.623047 0)"/>
      <use xlink:href="#DejaVuSans-2212" transform="translate(125.146484 0)"/>
      <use xlink:href="#DejaVuSans-37" transform="translate(208.935547 0)"/>
     </g>
    </g>
   </g>
   <g id="matplotlib.axis_2">
    <g id="ytick_1">
     <g id="line2d_7">
      <defs>
       <path id="md51492838d" d="M 0 0 
L -3.5 0 
" style="stroke: #000000; stroke-width: 0.8"/>
      </defs>
      <g>
       <use xlink:href="#md51492838d" x="57.6" y="267.83998" style="stroke: #000000; stroke-width: 0.8"/>
      </g>
     </g>
     <g id="text_8">
      <!-- −20 -->
      <g transform="translate(29.495313 271.639198) scale(0.1 -0.1)">
       <use xlink:href="#DejaVuSans-2212"/>
       <use xlink:href="#DejaVuSans-32" transform="translate(83.789062 0)"/>
       <use xlink:href="#DejaVuSans-30" transform="translate(147.412109 0)"/>
      </g>
     </g>
    </g>
    <g id="ytick_2">
     <g id="line2d_8">
      <g>
       <use xlink:href="#md51492838d" x="57.6" y="223.603182" style="stroke: #000000; stroke-width: 0.8"/>
      </g>
     </g>
     <g id="text_9">
      <!-- 0 -->
      <g transform="translate(44.2375 227.402401) scale(0.1 -0.1)">
       <use xlink:href="#DejaVuSans-30"/>
      </g>
     </g>
    </g>
    <g id="ytick_3">
     <g id="line2d_9">
      <g>
       <use xlink:href="#md51492838d" x="57.6" y="179.366385" style="stroke: #000000; stroke-width: 0.8"/>
      </g>
     </g>
     <g id="text_10">
      <!-- 20 -->
      <g transform="translate(37.875 183.165604) scale(0.1 -0.1)">
       <use xlink:href="#DejaVuSans-32"/>
       <use xlink:href="#DejaVuSans-30" transform="translate(63.623047 0)"/>
      </g>
     </g>
    </g>
    <g id="ytick_4">
     <g id="line2d_10">
      <g>
       <use xlink:href="#md51492838d" x="57.6" y="135.129588" style="stroke: #000000; stroke-width: 0.8"/>
      </g>
     </g>
     <g id="text_11">
      <!-- 40 -->
      <g transform="translate(37.875 138.928807) scale(0.1 -0.1)">
       <use xlink:href="#DejaVuSans-34"/>
       <use xlink:href="#DejaVuSans-30" transform="translate(63.623047 0)"/>
      </g>
     </g>
    </g>
    <g id="ytick_5">
     <g id="line2d_11">
      <g>
       <use xlink:href="#md51492838d" x="57.6" y="90.89279" style="stroke: #000000; stroke-width: 0.8"/>
      </g>
     </g>
     <g id="text_12">
      <!-- 60 -->
      <g transform="translate(37.875 94.692009) scale(0.1 -0.1)">
       <defs>
        <path id="DejaVuSans-36" d="M 2113 2584 
Q 1688 2584 1439 2293 
Q 1191 2003 1191 1497 
Q 1191 994 1439 701 
Q 1688 409 2113 409 
Q 2538 409 2786 701 
Q 3034 994 3034 1497 
Q 3034 2003 2786 2293 
Q 2538 2584 2113 2584 
z
M 3366 4563 
L 3366 3988 
Q 3128 4100 2886 4159 
Q 2644 4219 2406 4219 
Q 1781 4219 1451 3797 
Q 1122 3375 1075 2522 
Q 1259 2794 1537 2939 
Q 1816 3084 2150 3084 
Q 2853 3084 3261 2657 
Q 3669 2231 3669 1497 
Q 3669 778 3244 343 
Q 2819 -91 2113 -91 
Q 1303 -91 875 529 
Q 447 1150 447 2328 
Q 447 3434 972 4092 
Q 1497 4750 2381 4750 
Q 2619 4750 2861 4703 
Q 3103 4656 3366 4563 
z
" transform="scale(0.015625)"/>
       </defs>
       <use xlink:href="#DejaVuSans-36"/>
       <use xlink:href="#DejaVuSans-30" transform="translate(63.623047 0)"/>
      </g>
     </g>
    </g>
    <g id="ytick_6">
     <g id="line2d_12">
      <g>
       <use xlink:href="#md51492838d" x="57.6" y="46.655993" style="stroke: #000000; stroke-width: 0.8"/>
      </g>
     </g>
     <g id="text_13">
      <!-- 80 -->
      <g transform="translate(37.875 50.455212) scale(0.1 -0.1)">
       <defs>
        <path id="DejaVuSans-38" d="M 2034 2216 
Q 1584 2216 1326 1975 
Q 1069 1734 1069 1313 
Q 1069 891 1326 650 
Q 1584 409 2034 409 
Q 2484 409 2743 651 
Q 3003 894 3003 1313 
Q 3003 1734 2745 1975 
Q 2488 2216 2034 2216 
z
M 1403 2484 
Q 997 2584 770 2862 
Q 544 3141 544 3541 
Q 544 4100 942 4425 
Q 1341 4750 2034 4750 
Q 2731 4750 3128 4425 
Q 3525 4100 3525 3541 
Q 3525 3141 3298 2862 
Q 3072 2584 2669 2484 
Q 3125 2378 3379 2068 
Q 3634 1759 3634 1313 
Q 3634 634 3220 271 
Q 2806 -91 2034 -91 
Q 1263 -91 848 271 
Q 434 634 434 1313 
Q 434 1759 690 2068 
Q 947 2378 1403 2484 
z
M 1172 3481 
Q 1172 3119 1398 2916 
Q 1625 2713 2034 2713 
Q 2441 2713 2670 2916 
Q 2900 3119 2900 3481 
Q 2900 3844 2670 4047 
Q 2441 4250 2034 4250 
Q 1625 4250 1398 4047 
Q 1172 3844 1172 3481 
z
" transform="scale(0.015625)"/>
       </defs>
       <use xlink:href="#DejaVuSans-38"/>
       <use xlink:href="#DejaVuSans-30" transform="translate(63.623047 0)"/>
      </g>
     </g>
    </g>
   </g>
   <g id="line2d_13">
    <path d="M 73.832727 225.331179 
L 74.157707 225.331179 
L 74.482686 227.059179 
L 74.807666 227.059179 
L 75.132645 225.331179 
L 75.457625 225.331179 
L 75.782604 223.603179 
L 76.432563 223.603179 
L 77.082523 227.059179 
L 77.407502 227.059179 
L 77.732482 225.331179 
L 78.057461 225.331179 
L 78.382441 227.059179 
L 79.682359 227.059179 
L 80.007338 225.331179 
L 80.657297 225.331179 
L 80.982277 227.059179 
L 81.307256 227.059179 
L 81.632236 225.331179 
L 81.957215 228.787179 
L 82.607174 225.331179 
L 82.932154 227.059179 
L 83.257133 223.603179 
L 83.582113 227.059179 
L 83.907093 225.331179 
L 84.232072 225.331179 
L 84.557052 221.875179 
L 84.882031 220.147179 
L 85.207011 216.691179 
L 86.506929 195.955179 
L 87.156888 199.411179 
L 87.481867 199.411179 
L 88.131826 180.403179 
L 88.456806 170.035179 
L 88.781785 170.035179 
L 89.431744 180.403179 
L 89.756724 180.403179 
L 90.406683 156.211179 
L 90.731663 144.115179 
L 91.056642 147.571179 
L 91.706601 163.123179 
L 92.031581 157.939179 
L 92.68154 137.203179 
L 93.006519 135.475179 
L 93.331499 140.659179 
L 93.656478 142.387179 
L 93.981458 140.659179 
L 94.306437 132.019179 
L 94.631417 128.563179 
L 95.281376 135.475179 
L 95.606355 135.475179 
L 96.256314 121.651179 
L 96.581294 119.923179 
L 97.231253 132.019179 
L 97.556233 133.747179 
L 98.206192 119.923179 
L 98.531171 119.923179 
L 98.856151 123.379179 
L 99.18113 128.563179 
L 99.50611 123.379179 
L 99.831089 121.651179 
L 100.806028 126.835179 
L 101.131007 123.379179 
L 101.455987 121.651179 
L 101.780966 118.195179 
L 102.105946 121.651179 
L 102.755905 132.019179 
L 103.730844 121.651179 
L 104.055823 123.379179 
L 104.380803 128.563179 
L 105.030762 128.563179 
L 105.355741 126.835179 
L 105.680721 128.563179 
L 106.0057 132.019179 
L 106.33068 130.291179 
L 106.655659 130.291179 
L 106.980639 126.835179 
L 107.305618 130.291179 
L 107.630598 130.291179 
L 107.955577 133.747179 
L 108.280557 135.475179 
L 108.605536 135.475179 
L 109.255495 128.563179 
L 109.580475 132.019179 
L 109.905455 132.019179 
L 110.230434 133.747179 
L 110.880393 133.747179 
L 111.205373 132.019179 
L 112.505291 132.019179 
L 112.83027 130.291179 
L 113.15525 132.019179 
L 113.480229 132.019179 
L 113.805209 130.291179 
L 114.455168 130.291179 
L 114.780147 132.019179 
L 115.105127 128.563179 
L 116.730025 128.563179 
L 117.055004 126.835179 
L 117.379984 123.379179 
L 117.704963 123.379179 
L 118.029943 121.651179 
L 118.354922 123.379179 
L 118.679902 126.835179 
L 119.329861 123.379179 
L 119.65484 119.923179 
L 119.97982 121.651179 
L 120.304799 119.923179 
L 120.629779 121.651179 
L 121.279738 121.651179 
L 121.604717 119.923179 
L 121.929697 121.651179 
L 122.904636 121.651179 
L 123.229615 118.195179 
L 123.879574 121.651179 
L 124.854513 121.651179 
L 125.179492 125.107179 
L 125.504472 119.923179 
L 125.829451 123.379179 
L 126.154431 121.651179 
L 126.47941 121.651179 
L 126.80439 123.379179 
L 127.129369 126.835179 
L 128.429287 126.835179 
L 128.754267 128.563179 
L 129.079247 133.747179 
L 129.404226 133.747179 
L 129.729206 135.475179 
L 130.054185 133.747179 
L 130.379165 137.203179 
L 130.704144 137.203179 
L 131.029124 138.931179 
L 131.679083 145.843179 
L 132.004062 145.843179 
L 132.979001 151.027179 
L 133.30398 154.483179 
L 133.953939 157.939179 
L 134.278919 161.395179 
L 134.603898 161.395179 
L 135.253857 164.851179 
L 135.578837 170.035179 
L 136.878755 176.947179 
L 137.203735 180.403179 
L 137.528714 180.403179 
L 137.853694 183.859179 
L 138.828632 189.043179 
L 139.478591 195.955179 
L 139.803571 195.955179 
L 140.12855 199.411179 
L 142.403407 211.507179 
L 142.728387 211.507179 
L 143.703325 216.691179 
L 144.028305 220.147179 
L 144.353284 220.147179 
L 144.678264 221.875179 
L 145.003243 220.147179 
L 145.328223 221.875179 
L 145.653202 221.875179 
L 145.978182 225.331179 
L 146.628141 225.331179 
L 146.95312 223.603179 
L 147.603079 227.059179 
L 148.253038 227.059179 
L 148.578018 225.331179 
L 148.902998 227.059179 
L 149.227977 227.059179 
L 149.552957 228.787179 
L 150.527895 223.603179 
L 150.852875 223.603179 
L 151.177854 225.331179 
L 151.502834 223.603179 
L 151.827813 223.603179 
L 152.152793 221.875179 
L 152.477772 225.331179 
L 152.802752 223.603179 
L 154.427649 223.603179 
L 154.752629 225.331179 
L 156.052547 225.331179 
L 156.377527 228.787179 
L 156.702506 225.331179 
L 157.677445 225.331179 
L 158.002424 227.059179 
L 158.327404 227.059179 
L 158.977363 223.603179 
L 159.952301 223.603179 
L 160.277281 225.331179 
L 160.60226 225.331179 
L 160.92724 223.603179 
L 161.252219 223.603179 
L 161.577199 225.331179 
L 162.552138 225.331179 
L 162.877117 227.059179 
L 163.202097 223.603179 
L 163.527076 223.603179 
L 163.852056 225.331179 
L 165.476953 225.331179 
L 165.801933 223.603179 
L 166.126912 225.331179 
L 166.451892 223.603179 
L 166.776871 225.331179 
L 167.101851 223.603179 
L 167.42683 225.331179 
L 167.75181 223.603179 
L 168.07679 225.331179 
L 168.401769 225.331179 
L 168.726749 227.059179 
L 169.051728 227.059179 
L 169.376708 225.331179 
L 170.351646 225.331179 
L 170.676626 227.059179 
L 171.001605 225.331179 
L 171.326585 225.331179 
L 171.651564 223.603179 
L 171.976544 225.331179 
L 174.2514 225.331179 
L 174.90136 228.787179 
L 175.226339 225.331179 
L 175.551319 225.331179 
L 175.876298 227.059179 
L 176.201278 225.331179 
L 176.526257 225.331179 
L 176.851237 223.603179 
L 177.176216 225.331179 
L 177.501196 225.331179 
L 177.826175 227.059179 
L 178.151155 225.331179 
L 178.476134 225.331179 
L 178.801114 227.059179 
L 179.126093 227.059179 
L 179.451073 225.331179 
L 179.776052 227.059179 
L 180.101032 225.331179 
L 180.426011 221.875179 
L 180.750991 220.147179 
L 181.075971 216.691179 
L 181.72593 206.323179 
L 182.050909 197.683179 
L 182.700868 194.227179 
L 183.025848 197.683179 
L 183.350827 197.683179 
L 184.000786 182.131179 
L 184.325766 171.763179 
L 184.650745 170.035179 
L 184.975725 173.491179 
L 185.300704 180.403179 
L 185.625684 178.675179 
L 185.950663 170.035179 
L 186.600622 144.115179 
L 186.925602 145.843179 
L 187.575561 164.851179 
L 188.22552 145.843179 
L 188.5505 135.475179 
L 188.875479 133.747179 
L 189.200459 142.387179 
L 189.525438 144.115179 
L 189.850418 140.659179 
L 190.175397 133.747179 
L 190.500377 132.019179 
L 190.825356 133.747179 
L 191.150336 138.931179 
L 191.475315 137.203179 
L 191.800295 130.291179 
L 192.125274 119.923179 
L 192.450254 119.923179 
L 192.775233 128.563179 
L 193.100213 132.019179 
L 193.425192 132.019179 
L 194.075152 119.923179 
L 194.400131 119.923179 
L 195.05009 126.835179 
L 196.025029 121.651179 
L 196.350008 126.835179 
L 196.674988 128.563179 
L 196.999967 126.835179 
L 197.649926 116.467179 
L 198.624865 132.019179 
L 198.949844 128.563179 
L 199.274824 123.379179 
L 199.599803 123.379179 
L 200.249762 126.835179 
L 200.574742 130.291179 
L 200.899722 130.291179 
L 201.224701 128.563179 
L 201.549681 128.563179 
L 201.87466 133.747179 
L 202.849599 128.563179 
L 203.499558 128.563179 
L 203.824537 132.019179 
L 204.149517 133.747179 
L 204.474496 133.747179 
L 205.449435 128.563179 
L 205.774414 132.019179 
L 206.424373 135.475179 
L 206.749353 133.747179 
L 207.074333 133.747179 
L 207.399312 132.019179 
L 208.049271 132.019179 
L 208.374251 133.747179 
L 208.69923 132.019179 
L 209.02421 132.019179 
L 209.349189 130.291179 
L 209.999148 130.291179 
L 210.324128 128.563179 
L 210.649107 130.291179 
L 211.624046 125.107179 
L 212.598984 130.291179 
L 213.248943 123.379179 
L 213.573923 125.107179 
L 213.898903 121.651179 
L 214.223882 125.107179 
L 214.548862 125.107179 
L 214.873841 126.835179 
L 215.198821 123.379179 
L 215.84878 119.923179 
L 216.498739 123.379179 
L 216.823718 121.651179 
L 217.148698 121.651179 
L 217.473677 123.379179 
L 218.123636 119.923179 
L 218.448616 119.923179 
L 218.773595 121.651179 
L 219.098575 119.923179 
L 219.423554 121.651179 
L 219.748534 119.923179 
L 220.073514 121.651179 
L 222.023391 121.651179 
L 222.34837 123.379179 
L 222.67335 126.835179 
L 222.998329 125.107179 
L 223.323309 126.835179 
L 223.648288 125.107179 
L 223.973268 126.835179 
L 224.298247 126.835179 
L 224.623227 130.291179 
L 225.273186 133.747179 
L 225.598165 133.747179 
L 226.248124 137.203179 
L 226.573104 137.203179 
L 226.898084 140.659179 
L 227.873022 145.843179 
L 228.198002 145.843179 
L 228.522981 149.299179 
L 228.847961 149.299179 
L 229.17294 152.755179 
L 230.472858 159.667179 
L 231.122817 166.579179 
L 231.772776 170.035179 
L 232.097756 173.491179 
L 232.422735 173.491179 
L 232.747715 175.219179 
L 233.072695 180.403179 
L 233.397674 180.403179 
L 233.722654 183.859179 
L 234.047633 185.587179 
L 234.372613 189.043179 
L 234.697592 189.043179 
L 235.022572 192.499179 
L 235.99751 197.683179 
L 236.32249 201.139179 
L 236.647469 201.139179 
L 236.972449 202.867179 
L 237.297428 206.323179 
L 237.622408 206.323179 
L 237.947387 209.779179 
L 238.272367 211.507179 
L 238.597346 211.507179 
L 239.247305 214.963179 
L 239.572285 218.419179 
L 239.897265 216.691179 
L 240.222244 218.419179 
L 240.547224 218.419179 
L 240.872203 220.147179 
L 241.197183 220.147179 
L 241.522162 221.875179 
L 241.847142 221.875179 
L 242.497101 225.331179 
L 242.82208 225.331179 
L 243.14706 227.059179 
L 243.472039 225.331179 
L 243.797019 227.059179 
L 244.121998 227.059179 
L 244.446978 225.331179 
L 244.771957 225.331179 
L 245.096937 227.059179 
L 245.421916 227.059179 
L 245.746896 225.331179 
L 246.071876 225.331179 
L 246.396855 223.603179 
L 246.721835 227.059179 
L 247.371794 223.603179 
L 248.671712 223.603179 
L 248.996691 225.331179 
L 249.64665 221.875179 
L 249.97163 223.603179 
L 250.296609 223.603179 
L 250.621589 225.331179 
L 251.596527 225.331179 
L 251.921507 227.059179 
L 252.571466 223.603179 
L 252.896446 227.059179 
L 253.221425 225.331179 
L 253.546405 225.331179 
L 253.871384 227.059179 
L 254.846323 221.875179 
L 255.496282 225.331179 
L 255.821261 225.331179 
L 256.146241 223.603179 
L 256.47122 223.603179 
L 256.7962 225.331179 
L 257.121179 225.331179 
L 257.446159 223.603179 
L 257.771138 223.603179 
L 258.096118 225.331179 
L 259.396036 225.331179 
L 259.721016 227.059179 
L 260.045995 225.331179 
L 261.020934 225.331179 
L 261.345913 223.603179 
L 261.670893 225.331179 
L 261.995872 223.603179 
L 262.320852 223.603179 
L 262.645831 225.331179 
L 262.970811 225.331179 
L 263.29579 227.059179 
L 263.62077 225.331179 
L 263.945749 227.059179 
L 264.270729 227.059179 
L 264.595708 225.331179 
L 264.920688 227.059179 
L 265.245667 223.603179 
L 265.570647 227.059179 
L 265.895627 225.331179 
L 266.220606 227.059179 
L 266.545586 225.331179 
L 266.870565 227.059179 
L 267.195545 227.059179 
L 267.520524 225.331179 
L 268.170483 225.331179 
L 268.495463 227.059179 
L 271.420278 227.059179 
L 271.745258 225.331179 
L 272.070238 227.059179 
L 272.395217 225.331179 
L 272.720197 227.059179 
L 273.045176 227.059179 
L 273.370156 225.331179 
L 273.695135 227.059179 
L 274.020115 225.331179 
L 274.345094 225.331179 
L 274.670074 227.059179 
L 274.995053 225.331179 
L 275.320033 227.059179 
L 275.645012 225.331179 
L 275.969992 225.331179 
L 276.294971 221.875179 
L 276.619951 220.147179 
L 278.244848 195.955179 
L 278.569828 195.955179 
L 278.894808 199.411179 
L 279.219787 197.683179 
L 279.544767 192.499179 
L 280.194726 173.491179 
L 280.519705 168.307179 
L 280.844685 173.491179 
L 281.169664 182.131179 
L 281.494644 180.403179 
L 281.819623 171.763179 
L 282.144603 156.211179 
L 282.469582 147.571179 
L 282.794562 147.571179 
L 283.444521 163.123179 
L 283.7695 157.939179 
L 284.419459 135.475179 
L 284.744439 137.203179 
L 285.069419 142.387179 
L 285.394398 144.115179 
L 285.719378 140.659179 
L 286.044357 132.019179 
L 286.694316 132.019179 
L 287.019296 137.203179 
L 287.344275 135.475179 
L 287.994234 119.923179 
L 288.319214 121.651179 
L 288.969173 133.747179 
L 289.294152 132.019179 
L 289.619132 125.107179 
L 289.944111 121.651179 
L 290.269091 119.923179 
L 290.91905 126.835179 
L 291.244029 125.107179 
L 291.569009 125.107179 
L 291.893989 121.651179 
L 292.218968 126.835179 
L 292.543948 128.563179 
L 293.193907 119.923179 
L 293.518886 118.195179 
L 293.843866 121.651179 
L 294.168845 128.563179 
L 294.493825 132.019179 
L 294.818804 126.835179 
L 295.468763 123.379179 
L 295.793743 123.379179 
L 296.118722 126.835179 
L 296.443702 128.563179 
L 296.768681 132.019179 
L 297.093661 128.563179 
L 297.41864 130.291179 
L 297.74362 130.291179 
L 298.0686 133.747179 
L 298.393579 132.019179 
L 298.718559 128.563179 
L 299.043538 128.563179 
L 300.018477 133.747179 
L 300.668436 133.747179 
L 300.993415 130.291179 
L 301.318395 130.291179 
L 301.968354 133.747179 
L 302.618313 133.747179 
L 302.943292 132.019179 
L 303.268272 133.747179 
L 303.593251 130.291179 
L 303.918231 132.019179 
L 305.868108 132.019179 
L 306.193088 130.291179 
L 306.518067 130.291179 
L 306.843047 126.835179 
L 307.168026 128.563179 
L 307.493006 128.563179 
L 307.817985 130.291179 
L 308.142965 128.563179 
L 308.467944 130.291179 
L 308.792924 126.835179 
L 309.117903 126.835179 
L 309.442883 123.379179 
L 309.767862 125.107179 
L 311.067781 125.107179 
L 312.042719 119.923179 
L 312.692678 123.379179 
L 313.342637 119.923179 
L 314.317576 119.923179 
L 314.642555 121.651179 
L 315.292514 121.651179 
L 315.617494 119.923179 
L 315.942473 119.923179 
L 316.267453 123.379179 
L 316.592432 121.651179 
L 316.917412 121.651179 
L 317.242391 119.923179 
L 317.567371 121.651179 
L 317.892351 121.651179 
L 318.21733 125.107179 
L 318.54231 123.379179 
L 318.867289 126.835179 
L 320.167207 126.835179 
L 320.492187 130.291179 
L 321.142146 133.747179 
L 321.467125 137.203179 
L 321.792105 135.475179 
L 322.117084 135.475179 
L 322.442064 137.203179 
L 322.767043 140.659179 
L 323.417002 144.115179 
L 323.741982 144.115179 
L 324.066962 147.571179 
L 324.391941 147.571179 
L 324.716921 151.027179 
L 325.0419 156.211179 
L 325.36688 154.483179 
L 325.691859 157.939179 
L 326.016839 157.939179 
L 326.341818 161.395179 
L 326.666798 166.579179 
L 326.991777 168.307179 
L 327.316757 168.307179 
L 328.291695 173.491179 
L 328.616675 176.947179 
L 328.941654 178.675179 
L 329.591613 185.587179 
L 329.916593 187.315179 
L 330.241572 187.315179 
L 330.566552 189.043179 
L 330.891532 192.499179 
L 331.216511 194.227179 
L 331.86647 201.139179 
L 332.19145 201.139179 
L 332.516429 202.867179 
L 332.841409 202.867179 
L 333.166388 206.323179 
L 333.816347 209.779179 
L 334.141327 209.779179 
L 335.116265 214.963179 
L 335.441245 218.419179 
L 336.416183 218.419179 
L 336.741163 221.875179 
L 337.066143 221.875179 
L 337.716102 225.331179 
L 338.041081 223.603179 
L 338.366061 225.331179 
L 338.69104 225.331179 
L 339.01602 227.059179 
L 339.990958 227.059179 
L 340.315938 225.331179 
L 340.640917 227.059179 
L 340.965897 227.059179 
L 341.290876 228.787179 
L 341.940835 225.331179 
L 342.265815 227.059179 
L 342.590794 223.603179 
L 342.915774 225.331179 
L 343.240753 223.603179 
L 343.890713 223.603179 
L 344.215692 225.331179 
L 344.540672 223.603179 
L 344.865651 225.331179 
L 345.190631 223.603179 
L 345.84059 223.603179 
L 346.165569 225.331179 
L 347.140508 225.331179 
L 347.465487 227.059179 
L 347.790467 227.059179 
L 348.115446 225.331179 
L 348.440426 225.331179 
L 348.765405 227.059179 
L 349.090385 225.331179 
L 350.390303 225.331179 
L 350.715283 223.603179 
L 351.040262 225.331179 
L 351.690221 225.331179 
L 352.015201 223.603179 
L 352.34018 225.331179 
L 352.990139 225.331179 
L 353.315119 227.059179 
L 353.640098 223.603179 
L 353.965078 225.331179 
L 355.264996 225.331179 
L 355.589975 227.059179 
L 356.239934 227.059179 
L 356.564914 225.331179 
L 356.889894 225.331179 
L 357.214873 223.603179 
L 357.539853 225.331179 
L 358.189812 225.331179 
L 358.514791 227.059179 
L 358.839771 225.331179 
L 359.16475 227.059179 
L 359.48973 225.331179 
L 359.814709 227.059179 
L 360.139689 225.331179 
L 360.789648 225.331179 
L 361.114627 227.059179 
L 361.439607 225.331179 
L 364.039443 225.331179 
L 364.364423 227.059179 
L 364.689402 225.331179 
L 365.014382 227.059179 
L 365.339361 225.331179 
L 365.664341 225.331179 
L 365.98932 227.059179 
L 368.914136 227.059179 
L 369.239115 225.331179 
L 369.564095 227.059179 
L 369.889075 225.331179 
L 370.539034 225.331179 
L 370.864013 227.059179 
L 371.188993 225.331179 
L 371.513972 227.059179 
L 372.163931 223.603179 
L 372.81389 214.963179 
L 373.463849 208.051179 
L 373.788829 199.411179 
L 374.113808 195.955179 
L 374.438788 195.955179 
L 374.763767 199.411179 
L 375.088747 197.683179 
L 375.413726 190.771179 
L 376.063686 171.763179 
L 376.388665 168.307179 
L 377.038624 178.675179 
L 377.363604 178.675179 
L 377.688583 170.035179 
L 378.013563 154.483179 
L 378.338542 145.843179 
L 378.663522 147.571179 
L 379.313481 163.123179 
L 379.63846 156.211179 
L 380.288419 135.475179 
L 380.613399 135.475179 
L 380.938378 142.387179 
L 381.263358 145.843179 
L 381.913317 132.019179 
L 382.238296 130.291179 
L 382.563276 133.747179 
L 382.888256 138.931179 
L 383.213235 135.475179 
L 383.863194 121.651179 
L 384.188174 121.651179 
L 384.513153 128.563179 
L 384.838133 132.019179 
L 385.163112 133.747179 
L 385.813071 118.195179 
L 386.138051 119.923179 
L 386.46303 123.379179 
L 386.78801 125.107179 
L 387.437969 121.651179 
L 387.762948 121.651179 
L 388.087928 126.835179 
L 388.412907 126.835179 
L 388.737887 125.107179 
L 389.062867 121.651179 
L 389.387846 119.923179 
L 389.712826 121.651179 
L 390.362785 132.019179 
L 391.337723 121.651179 
L 391.987682 128.563179 
L 392.312662 130.291179 
L 392.637641 128.563179 
L 392.962621 128.563179 
L 393.2876 130.291179 
L 394.262539 130.291179 
L 394.587518 128.563179 
L 394.912498 130.291179 
L 395.237477 130.291179 
L 396.212416 135.475179 
L 396.537396 130.291179 
L 396.862375 130.291179 
L 397.187355 128.563179 
L 397.512334 132.019179 
L 397.837314 132.019179 
L 398.162293 133.747179 
L 398.487273 133.747179 
L 398.487273 133.747179 
" clip-path="url(#pf1c6911b6d)" style="fill: none; stroke: #1f77b4; stroke-width: 1.5; stroke-linecap: square"/>
   </g>
   <g id="line2d_14">
    <path d="M 73.832727 128.563179 
L 74.157707 128.563179 
L 74.482686 126.835179 
L 74.807666 128.563179 
L 75.132645 125.107179 
L 76.107584 125.107179 
L 76.432563 123.379179 
L 76.757543 125.107179 
L 77.082523 119.923179 
L 77.407502 121.651179 
L 78.057461 118.195179 
L 78.70742 121.651179 
L 79.0324 118.195179 
L 80.657297 118.195179 
L 80.982277 119.923179 
L 81.307256 119.923179 
L 81.632236 118.195179 
L 81.957215 118.195179 
L 82.282195 119.923179 
L 83.257133 119.923179 
L 83.907093 123.379179 
L 84.232072 123.379179 
L 84.882031 126.835179 
L 85.53199 126.835179 
L 85.85697 128.563179 
L 86.181949 128.563179 
L 86.506929 132.019179 
L 87.481867 137.203179 
L 87.806847 140.659179 
L 88.131826 140.659179 
L 88.456806 142.387179 
L 88.781785 145.843179 
L 89.106765 145.843179 
L 89.756724 152.755179 
L 91.056642 159.667179 
L 91.381622 164.851179 
L 92.35656 170.035179 
L 93.006519 176.947179 
L 93.331499 176.947179 
L 93.981458 183.859179 
L 94.306437 189.043179 
L 94.631417 189.043179 
L 94.956396 190.771179 
L 95.281376 190.771179 
L 95.606355 197.683179 
L 95.931335 199.411179 
L 96.256314 202.867179 
L 96.581294 202.867179 
L 97.556233 208.051179 
L 97.881212 211.507179 
L 98.206192 213.235179 
L 98.531171 213.235179 
L 99.18113 216.691179 
L 99.50611 220.147179 
L 99.831089 220.147179 
L 100.156069 223.603179 
L 100.481048 225.331179 
L 101.455987 225.331179 
L 101.780966 228.787179 
L 102.105946 230.515179 
L 102.755905 230.515179 
L 103.080885 228.787179 
L 103.405864 230.515179 
L 103.730844 230.515179 
L 104.055823 228.787179 
L 104.380803 228.787179 
L 105.030762 225.331179 
L 105.355741 225.331179 
L 106.0057 221.875179 
L 106.33068 221.875179 
L 106.655659 220.147179 
L 106.980639 221.875179 
L 108.280557 221.875179 
L 108.930516 225.331179 
L 109.580475 225.331179 
L 109.905455 227.059179 
L 110.230434 225.331179 
L 110.880393 225.331179 
L 111.205373 227.059179 
L 111.530352 225.331179 
L 111.855332 225.331179 
L 112.180311 223.603179 
L 112.505291 225.331179 
L 113.15525 225.331179 
L 113.480229 227.059179 
L 113.805209 227.059179 
L 114.130188 225.331179 
L 116.080066 225.331179 
L 116.405045 227.059179 
L 117.055004 223.603179 
L 117.379984 223.603179 
L 118.029943 227.059179 
L 118.354922 225.331179 
L 118.679902 225.331179 
L 119.004881 223.603179 
L 119.329861 225.331179 
L 119.97982 225.331179 
L 120.304799 227.059179 
L 120.629779 225.331179 
L 120.954758 227.059179 
L 121.604717 227.059179 
L 121.929697 225.331179 
L 122.579656 225.331179 
L 122.904636 223.603179 
L 123.879574 223.603179 
L 124.529533 227.059179 
L 124.854513 227.059179 
L 125.179492 225.331179 
L 126.154431 225.331179 
L 126.47941 227.059179 
L 126.80439 225.331179 
L 128.104308 225.331179 
L 128.429287 227.059179 
L 128.754267 227.059179 
L 129.079247 225.331179 
L 129.404226 225.331179 
L 129.729206 227.059179 
L 130.054185 225.331179 
L 130.379165 225.331179 
L 130.704144 228.787179 
L 131.029124 225.331179 
L 133.30398 225.331179 
L 133.62896 227.059179 
L 133.953939 225.331179 
L 134.278919 227.059179 
L 134.603898 225.331179 
L 134.928878 227.059179 
L 135.253857 225.331179 
L 135.903817 228.787179 
L 136.228796 225.331179 
L 136.553776 225.331179 
L 137.203735 221.875179 
L 137.528714 214.963179 
L 137.853694 211.507179 
L 138.178673 206.323179 
L 138.503653 206.323179 
L 139.478591 195.955179 
L 139.803571 189.043179 
L 140.12855 185.587179 
L 140.45353 180.403179 
L 140.778509 180.403179 
L 141.103489 178.675179 
L 141.753448 171.763179 
L 142.403407 159.667179 
L 143.053366 152.755179 
L 143.378346 152.755179 
L 143.703325 151.027179 
L 144.028305 145.843179 
L 144.353284 144.115179 
L 144.678264 140.659179 
L 145.003243 140.659179 
L 145.653202 132.019179 
L 145.978182 130.291179 
L 146.628141 130.291179 
L 146.95312 132.019179 
L 147.2781 130.291179 
L 147.928059 119.923179 
L 148.253038 118.195179 
L 148.578018 119.923179 
L 148.902998 123.379179 
L 149.552957 123.379179 
L 149.877936 119.923179 
L 150.202916 118.195179 
L 150.527895 114.739179 
L 150.852875 118.195179 
L 151.177854 119.923179 
L 151.502834 118.195179 
L 151.827813 119.923179 
L 152.152793 119.923179 
L 152.477772 121.651179 
L 153.127731 118.195179 
L 153.452711 118.195179 
L 153.77769 116.467179 
L 154.10267 121.651179 
L 154.752629 125.107179 
L 155.077609 123.379179 
L 155.402588 123.379179 
L 155.727568 121.651179 
L 156.052547 121.651179 
L 156.377527 126.835179 
L 157.027486 130.291179 
L 157.352465 128.563179 
L 157.677445 128.563179 
L 158.002424 126.835179 
L 158.327404 126.835179 
L 158.652383 128.563179 
L 158.977363 132.019179 
L 159.302342 132.019179 
L 159.627322 133.747179 
L 161.252219 133.747179 
L 161.577199 137.203179 
L 161.902179 137.203179 
L 162.227158 135.475179 
L 163.527076 135.475179 
L 163.852056 137.203179 
L 164.177035 137.203179 
L 164.502015 135.475179 
L 166.126912 135.475179 
L 166.451892 133.747179 
L 166.776871 133.747179 
L 167.101851 135.475179 
L 167.75181 132.019179 
L 168.07679 133.747179 
L 168.401769 130.291179 
L 168.726749 128.563179 
L 169.051728 130.291179 
L 169.376708 130.291179 
L 169.701687 128.563179 
L 170.351646 128.563179 
L 170.676626 126.835179 
L 171.001605 126.835179 
L 171.651564 123.379179 
L 172.301523 123.379179 
L 172.626503 119.923179 
L 172.951482 119.923179 
L 173.276462 121.651179 
L 173.601441 121.651179 
L 173.926421 119.923179 
L 174.57638 119.923179 
L 174.90136 118.195179 
L 175.876298 118.195179 
L 176.201278 119.923179 
L 176.526257 119.923179 
L 176.851237 118.195179 
L 177.176216 119.923179 
L 177.501196 119.923179 
L 177.826175 118.195179 
L 178.476134 118.195179 
L 178.801114 121.651179 
L 179.126093 119.923179 
L 179.451073 121.651179 
L 179.776052 121.651179 
L 180.101032 123.379179 
L 180.426011 123.379179 
L 180.750991 125.107179 
L 181.075971 125.107179 
L 181.40095 126.835179 
L 181.72593 130.291179 
L 182.050909 130.291179 
L 182.375889 133.747179 
L 182.700868 133.747179 
L 183.675807 138.931179 
L 184.000786 142.387179 
L 184.325766 142.387179 
L 184.650745 145.843179 
L 184.975725 145.843179 
L 185.300704 149.299179 
L 185.625684 151.027179 
L 185.950663 154.483179 
L 186.275643 154.483179 
L 186.925602 161.395179 
L 187.250581 161.395179 
L 187.900541 170.035179 
L 188.22552 170.035179 
L 188.5505 173.491179 
L 188.875479 175.219179 
L 189.200459 178.675179 
L 189.525438 180.403179 
L 189.850418 183.859179 
L 190.175397 185.587179 
L 190.825356 192.499179 
L 191.150336 194.227179 
L 191.475315 197.683179 
L 192.450254 202.867179 
L 192.775233 202.867179 
L 193.100213 204.595179 
L 193.425192 208.051179 
L 193.750172 213.235179 
L 194.075152 214.963179 
L 195.05009 214.963179 
L 195.37507 218.419179 
L 195.700049 220.147179 
L 196.025029 223.603179 
L 196.350008 225.331179 
L 196.674988 225.331179 
L 196.999967 223.603179 
L 197.324947 225.331179 
L 197.649926 225.331179 
L 197.974906 228.787179 
L 198.299885 230.515179 
L 198.624865 228.787179 
L 199.924783 228.787179 
L 200.249762 227.059179 
L 200.899722 227.059179 
L 201.87466 221.875179 
L 202.849599 221.875179 
L 203.174578 220.147179 
L 203.499558 221.875179 
L 203.824537 220.147179 
L 204.149517 220.147179 
L 204.474496 223.603179 
L 205.124455 227.059179 
L 205.774414 223.603179 
L 206.424373 227.059179 
L 207.399312 227.059179 
L 207.724292 225.331179 
L 208.049271 225.331179 
L 208.374251 223.603179 
L 208.69923 227.059179 
L 209.02421 223.603179 
L 209.349189 227.059179 
L 209.674169 228.787179 
L 210.649107 223.603179 
L 211.299066 227.059179 
L 211.624046 227.059179 
L 211.949025 225.331179 
L 212.274005 225.331179 
L 212.598984 223.603179 
L 212.923964 223.603179 
L 213.248943 225.331179 
L 213.573923 225.331179 
L 213.898903 227.059179 
L 214.548862 223.603179 
L 214.873841 223.603179 
L 215.198821 227.059179 
L 215.5238 225.331179 
L 216.173759 225.331179 
L 216.498739 227.059179 
L 216.823718 227.059179 
L 217.148698 225.331179 
L 217.473677 227.059179 
L 218.448616 227.059179 
L 218.773595 225.331179 
L 219.098575 227.059179 
L 219.423554 225.331179 
L 219.748534 225.331179 
L 220.073514 227.059179 
L 220.398493 227.059179 
L 220.723473 225.331179 
L 221.373432 225.331179 
L 221.698411 223.603179 
L 222.023391 227.059179 
L 222.34837 227.059179 
L 222.67335 225.331179 
L 222.998329 227.059179 
L 223.323309 225.331179 
L 223.973268 225.331179 
L 224.298247 228.787179 
L 224.948206 225.331179 
L 225.273186 225.331179 
L 225.598165 227.059179 
L 225.923145 225.331179 
L 226.573104 225.331179 
L 226.898084 227.059179 
L 228.522981 227.059179 
L 228.847961 225.331179 
L 229.17294 227.059179 
L 229.49792 227.059179 
L 229.822899 225.331179 
L 230.147879 225.331179 
L 230.472858 227.059179 
L 230.797838 227.059179 
L 231.122817 228.787179 
L 231.447797 227.059179 
L 231.772776 228.787179 
L 232.097756 227.059179 
L 232.422735 227.059179 
L 233.397674 216.691179 
L 234.047633 208.051179 
L 234.697592 204.595179 
L 235.672531 190.771179 
L 235.99751 187.315179 
L 236.32249 180.403179 
L 236.972449 176.947179 
L 237.622408 170.035179 
L 238.597346 156.211179 
L 238.922326 154.483179 
L 239.247305 151.027179 
L 239.572285 151.027179 
L 239.897265 149.299179 
L 240.547224 140.659179 
L 241.197183 137.203179 
L 241.847142 128.563179 
L 242.172121 128.563179 
L 242.82208 132.019179 
L 243.472039 125.107179 
L 243.797019 119.923179 
L 244.121998 118.195179 
L 244.446978 119.923179 
L 244.771957 125.107179 
L 245.096937 125.107179 
L 245.746896 118.195179 
L 246.071876 116.467179 
L 246.396855 118.195179 
L 247.371794 118.195179 
L 247.696773 119.923179 
L 248.996691 119.923179 
L 249.321671 118.195179 
L 249.64665 118.195179 
L 249.97163 121.651179 
L 250.296609 123.379179 
L 250.621589 123.379179 
L 250.946568 121.651179 
L 251.271548 121.651179 
L 252.571466 128.563179 
L 253.221425 128.563179 
L 253.546405 126.835179 
L 253.871384 126.835179 
L 254.521343 130.291179 
L 254.846323 130.291179 
L 255.496282 133.747179 
L 256.146241 133.747179 
L 256.47122 135.475179 
L 256.7962 135.475179 
L 257.121179 133.747179 
L 257.446159 137.203179 
L 257.771138 135.475179 
L 258.096118 137.203179 
L 258.421097 137.203179 
L 258.746077 135.475179 
L 260.045995 135.475179 
L 260.370975 137.203179 
L 260.695954 137.203179 
L 261.020934 135.475179 
L 261.345913 135.475179 
L 261.670893 137.203179 
L 262.320852 133.747179 
L 262.970811 133.747179 
L 263.29579 132.019179 
L 263.62077 133.747179 
L 264.270729 130.291179 
L 264.920688 130.291179 
L 265.245667 128.563179 
L 265.570647 128.563179 
L 265.895627 130.291179 
L 266.220606 126.835179 
L 266.545586 126.835179 
L 267.195545 123.379179 
L 267.845504 123.379179 
L 268.170483 125.107179 
L 268.495463 123.379179 
L 268.820442 123.379179 
L 269.145422 119.923179 
L 269.470401 119.923179 
L 269.795381 121.651179 
L 270.44534 118.195179 
L 270.770319 119.923179 
L 271.095299 119.923179 
L 271.420278 118.195179 
L 273.370156 118.195179 
L 273.695135 119.923179 
L 274.020115 116.467179 
L 275.320033 123.379179 
L 275.645012 121.651179 
L 276.294971 125.107179 
L 276.619951 125.107179 
L 277.594889 130.291179 
L 277.919869 130.291179 
L 278.569828 133.747179 
L 278.894808 137.203179 
L 279.219787 137.203179 
L 279.869746 140.659179 
L 280.194726 144.115179 
L 280.519705 144.115179 
L 280.844685 145.843179 
L 281.494644 152.755179 
L 281.819623 152.755179 
L 282.469582 159.667179 
L 283.119541 163.123179 
L 284.09448 173.491179 
L 284.419459 173.491179 
L 284.744439 176.947179 
L 285.069419 178.675179 
L 285.394398 182.131179 
L 286.044357 185.587179 
L 286.694316 192.499179 
L 287.344275 195.955179 
L 287.994234 202.867179 
L 288.319214 202.867179 
L 289.294152 208.051179 
L 289.944111 214.963179 
L 290.269091 214.963179 
L 290.59407 216.691179 
L 291.244029 216.691179 
L 291.893989 223.603179 
L 292.218968 225.331179 
L 292.543948 225.331179 
L 292.868927 223.603179 
L 293.193907 225.331179 
L 293.518886 228.787179 
L 294.168845 228.787179 
L 294.493825 230.515179 
L 294.818804 228.787179 
L 295.143784 228.787179 
L 295.468763 227.059179 
L 295.793743 228.787179 
L 296.118722 228.787179 
L 296.443702 225.331179 
L 297.093661 225.331179 
L 297.41864 221.875179 
L 299.368518 221.875179 
L 299.693497 220.147179 
L 300.668436 225.331179 
L 300.993415 225.331179 
L 301.318395 223.603179 
L 301.643374 223.603179 
L 301.968354 225.331179 
L 302.293333 225.331179 
L 302.618313 227.059179 
L 302.943292 225.331179 
L 303.268272 227.059179 
L 303.593251 227.059179 
L 303.918231 225.331179 
L 304.89317 225.331179 
L 305.218149 227.059179 
L 306.193088 227.059179 
L 306.843047 223.603179 
L 307.168026 225.331179 
L 307.493006 228.787179 
L 308.467944 223.603179 
L 308.792924 223.603179 
L 309.117903 225.331179 
L 310.092842 225.331179 
L 310.417821 223.603179 
L 310.742801 223.603179 
L 311.39276 227.059179 
L 311.71774 225.331179 
L 312.367699 225.331179 
L 312.692678 227.059179 
L 313.017658 223.603179 
L 313.667617 227.059179 
L 313.992596 227.059179 
L 314.317576 225.331179 
L 314.967535 225.331179 
L 315.292514 223.603179 
L 315.617494 225.331179 
L 315.942473 225.331179 
L 316.267453 227.059179 
L 316.592432 227.059179 
L 316.917412 225.331179 
L 317.567371 225.331179 
L 317.892351 228.787179 
L 318.21733 228.787179 
L 318.54231 225.331179 
L 318.867289 227.059179 
L 319.192269 227.059179 
L 319.517248 225.331179 
L 319.842228 225.331179 
L 320.167207 227.059179 
L 320.492187 225.331179 
L 320.817166 227.059179 
L 321.142146 225.331179 
L 321.467125 227.059179 
L 321.792105 227.059179 
L 322.117084 225.331179 
L 322.442064 227.059179 
L 323.092023 227.059179 
L 323.417002 225.331179 
L 323.741982 225.331179 
L 324.066962 228.787179 
L 324.391941 228.787179 
L 325.0419 225.331179 
L 325.36688 227.059179 
L 326.341818 227.059179 
L 326.666798 225.331179 
L 326.991777 228.787179 
L 327.316757 227.059179 
L 327.966716 227.059179 
L 328.616675 223.603179 
L 329.916593 209.779179 
L 330.241572 208.051179 
L 330.566552 202.867179 
L 330.891532 201.139179 
L 331.216511 194.227179 
L 331.541491 190.771179 
L 331.86647 183.859179 
L 332.19145 182.131179 
L 332.516429 178.675179 
L 332.841409 176.947179 
L 333.166388 176.947179 
L 333.491368 173.491179 
L 333.816347 164.851179 
L 334.141327 159.667179 
L 335.116265 154.483179 
L 336.416183 140.659179 
L 337.066143 137.203179 
L 337.391122 132.019179 
L 337.716102 132.019179 
L 338.041081 128.563179 
L 338.366061 132.019179 
L 338.69104 132.019179 
L 339.340999 125.107179 
L 339.665979 119.923179 
L 340.315938 119.923179 
L 340.640917 121.651179 
L 340.965897 125.107179 
L 341.615856 118.195179 
L 341.940835 116.467179 
L 342.265815 116.467179 
L 342.590794 119.923179 
L 342.915774 119.923179 
L 343.240753 118.195179 
L 343.565733 119.923179 
L 344.215692 119.923179 
L 344.540672 121.651179 
L 344.865651 119.923179 
L 345.190631 119.923179 
L 345.51561 118.195179 
L 345.84059 119.923179 
L 346.165569 125.107179 
L 346.490549 126.835179 
L 346.815528 123.379179 
L 347.140508 121.651179 
L 347.465487 121.651179 
L 347.790467 125.107179 
L 348.115446 126.835179 
L 348.440426 126.835179 
L 348.765405 130.291179 
L 349.090385 128.563179 
L 349.415364 128.563179 
L 349.740344 126.835179 
L 350.065324 128.563179 
L 350.390303 128.563179 
L 351.365242 133.747179 
L 351.690221 132.019179 
L 352.015201 133.747179 
L 352.34018 133.747179 
L 352.66516 132.019179 
L 353.640098 137.203179 
L 354.290057 137.203179 
L 354.615037 135.475179 
L 354.940016 135.475179 
L 355.264996 137.203179 
L 355.589975 137.203179 
L 355.914955 135.475179 
L 356.239934 135.475179 
L 356.564914 137.203179 
L 356.889894 137.203179 
L 357.539853 133.747179 
L 358.514791 133.747179 
L 358.839771 132.019179 
L 359.16475 135.475179 
L 359.48973 132.019179 
L 359.814709 130.291179 
L 360.139689 130.291179 
L 360.464668 128.563179 
L 360.789648 130.291179 
L 361.114627 130.291179 
L 361.764586 126.835179 
L 362.089566 126.835179 
L 362.414545 128.563179 
L 362.739525 125.107179 
L 363.389484 125.107179 
L 364.039443 121.651179 
L 364.364423 123.379179 
L 365.014382 119.923179 
L 366.639279 119.923179 
L 366.964259 118.195179 
L 367.289238 118.195179 
L 367.614218 119.923179 
L 367.939197 119.923179 
L 368.264177 118.195179 
L 369.239115 118.195179 
L 369.564095 119.923179 
L 370.539034 119.923179 
L 370.864013 121.651179 
L 371.188993 121.651179 
L 371.513972 125.107179 
L 371.838952 123.379179 
L 372.163931 125.107179 
L 372.488911 125.107179 
L 372.81389 128.563179 
L 373.13887 128.563179 
L 373.463849 130.291179 
L 373.788829 130.291179 
L 374.113808 133.747179 
L 374.438788 133.747179 
L 375.088747 140.659179 
L 375.413726 138.931179 
L 375.738706 140.659179 
L 376.063686 144.115179 
L 376.388665 145.843179 
L 376.713645 145.843179 
L 377.363604 152.755179 
L 378.013563 156.211179 
L 378.663522 163.123179 
L 378.988501 163.123179 
L 379.313481 166.579179 
L 379.63846 166.579179 
L 379.96344 171.763179 
L 380.613399 175.219179 
L 381.263358 182.131179 
L 381.588337 187.315179 
L 381.913317 187.315179 
L 382.563276 190.771179 
L 382.888256 195.955179 
L 383.213235 197.683179 
L 383.538215 201.139179 
L 383.863194 202.867179 
L 384.188174 202.867179 
L 384.513153 204.595179 
L 384.838133 204.595179 
L 385.163112 208.051179 
L 385.488092 214.963179 
L 385.813071 214.963179 
L 386.138051 216.691179 
L 386.46303 214.963179 
L 387.112989 218.419179 
L 387.437969 221.875179 
L 388.087928 225.331179 
L 388.737887 225.331179 
L 389.062867 227.059179 
L 389.387846 230.515179 
L 390.362785 230.515179 
L 390.687764 228.787179 
L 391.012744 228.787179 
L 391.337723 230.515179 
L 391.662703 228.787179 
L 391.987682 230.515179 
L 392.312662 227.059179 
L 392.637641 227.059179 
L 392.962621 225.331179 
L 393.2876 221.875179 
L 394.587518 221.875179 
L 394.912498 220.147179 
L 395.562457 220.147179 
L 395.887437 221.875179 
L 396.212416 221.875179 
L 396.537396 225.331179 
L 397.512334 225.331179 
L 397.837314 223.603179 
L 398.162293 227.059179 
L 398.487273 225.331179 
L 398.487273 225.331179 
" clip-path="url(#pf1c6911b6d)" style="fill: none; stroke: #ff7f0e; stroke-width: 1.5; stroke-linecap: square"/>
   </g>
   <g id="line2d_15">
    <path d="M 73.832727 126.144 
L 74.157707 122.688 
L 74.482686 126.144 
L 74.807666 136.512 
L 75.132645 136.512 
L 75.457625 139.968 
L 75.782604 150.336 
L 76.107584 153.792 
L 76.432563 160.704 
L 76.757543 157.248 
L 77.082523 167.616 
L 77.407502 171.072 
L 77.732482 181.44 
L 78.057461 184.896 
L 78.70742 198.72 
L 79.0324 202.176 
L 79.357379 202.176 
L 79.682359 205.632 
L 80.007338 212.544 
L 80.657297 219.456 
L 81.307256 233.28 
L 81.632236 236.736 
L 81.957215 233.28 
L 82.282195 243.648 
L 82.607174 243.648 
L 83.257133 257.472 
L 83.582113 257.472 
L 84.232072 271.296 
L 84.557052 267.84 
L 85.207011 274.752 
L 85.85697 274.752 
L 86.181949 281.664 
L 86.506929 285.12 
L 87.156888 285.12 
L 87.481867 288.576 
L 87.806847 288.576 
L 88.131826 292.032 
L 88.456806 288.576 
L 88.781785 292.032 
L 89.106765 292.032 
L 89.431744 295.488 
L 89.756724 288.576 
L 90.081704 292.032 
L 90.731663 292.032 
L 91.056642 288.576 
L 92.031581 288.576 
L 92.35656 281.664 
L 93.006519 281.664 
L 93.331499 278.208 
L 93.656478 278.208 
L 93.981458 274.752 
L 94.306437 274.752 
L 94.631417 271.296 
L 94.956396 264.384 
L 95.281376 260.928 
L 95.606355 260.928 
L 95.931335 257.472 
L 96.256314 250.56 
L 96.581294 250.56 
L 97.231253 243.648 
L 97.556233 233.28 
L 97.881212 236.736 
L 98.206192 226.368 
L 98.531171 226.368 
L 98.856151 219.456 
L 99.831089 209.088 
L 100.156069 198.72 
L 100.481048 195.264 
L 100.806028 195.264 
L 101.455987 181.44 
L 101.780966 177.984 
L 102.105946 171.072 
L 102.430925 171.072 
L 102.755905 160.704 
L 103.080885 160.704 
L 104.055823 139.968 
L 104.380803 136.512 
L 104.705782 136.512 
L 105.030762 133.056 
L 105.355741 122.688 
L 105.680721 122.688 
L 106.0057 119.232 
L 106.33068 108.864 
L 106.980639 108.864 
L 107.630598 101.952 
L 107.955577 91.584 
L 108.280557 88.128 
L 108.930516 88.128 
L 109.905455 77.76 
L 110.230434 77.76 
L 110.555414 70.848 
L 110.880393 70.848 
L 111.205373 74.304 
L 111.530352 67.392 
L 111.855332 63.936 
L 112.180311 63.936 
L 112.505291 67.392 
L 112.83027 67.392 
L 113.15525 60.48 
L 113.480229 67.392 
L 113.805209 67.392 
L 114.130188 63.936 
L 114.780147 63.936 
L 115.105127 70.848 
L 115.430106 74.304 
L 115.755086 67.392 
L 116.405045 74.304 
L 116.730025 67.392 
L 117.055004 74.304 
L 118.029943 84.672 
L 118.354922 81.216 
L 118.679902 88.128 
L 119.329861 95.04 
L 119.65484 101.952 
L 119.97982 101.952 
L 120.629779 108.864 
L 120.954758 108.864 
L 121.279738 119.232 
L 121.604717 122.688 
L 121.929697 122.688 
L 122.254676 126.144 
L 123.229615 146.88 
L 123.554595 143.424 
L 123.879574 153.792 
L 124.204554 153.792 
L 124.529533 160.704 
L 124.854513 164.16 
L 125.179492 174.528 
L 125.504472 174.528 
L 125.829451 181.44 
L 126.154431 184.896 
L 126.80439 198.72 
L 127.454349 198.72 
L 127.779328 212.544 
L 128.104308 212.544 
L 128.429287 219.456 
L 128.754267 219.456 
L 129.079247 229.824 
L 129.404226 229.824 
L 129.729206 236.736 
L 130.054185 240.192 
L 130.379165 240.192 
L 131.029124 254.016 
L 131.354103 250.56 
L 132.004062 264.384 
L 132.654021 264.384 
L 132.979001 271.296 
L 133.62896 278.208 
L 133.953939 271.296 
L 134.278919 281.664 
L 134.603898 278.208 
L 134.928878 285.12 
L 135.253857 285.12 
L 135.578837 288.576 
L 135.903817 285.12 
L 136.228796 288.576 
L 137.203735 288.576 
L 137.528714 285.12 
L 137.853694 285.12 
L 138.178673 288.576 
L 138.503653 288.576 
L 138.828632 292.032 
L 139.153612 281.664 
L 139.478591 285.12 
L 140.45353 285.12 
L 141.103489 278.208 
L 141.428468 281.664 
L 141.753448 274.752 
L 142.403407 267.84 
L 142.728387 267.84 
L 143.053366 260.928 
L 143.378346 260.928 
L 143.703325 257.472 
L 144.028305 257.472 
L 144.353284 247.104 
L 144.678264 247.104 
L 145.328223 240.192 
L 145.653202 233.28 
L 145.978182 233.28 
L 146.303161 226.368 
L 146.628141 222.912 
L 146.95312 212.544 
L 147.2781 212.544 
L 147.603079 205.632 
L 147.928059 202.176 
L 148.253038 195.264 
L 149.227977 184.896 
L 149.552957 174.528 
L 149.877936 174.528 
L 150.202916 164.16 
L 150.527895 160.704 
L 150.852875 160.704 
L 151.177854 157.248 
L 151.502834 150.336 
L 151.827813 146.88 
L 152.152793 133.056 
L 152.477772 133.056 
L 152.802752 129.6 
L 153.127731 119.232 
L 153.77769 112.32 
L 154.10267 112.32 
L 154.752629 105.408 
L 155.077609 98.496 
L 156.377527 84.672 
L 156.702506 84.672 
L 157.027486 77.76 
L 157.352465 74.304 
L 157.677445 74.304 
L 158.327404 67.392 
L 159.302342 67.392 
L 159.627322 63.936 
L 159.952301 57.024 
L 160.277281 60.48 
L 161.902179 60.48 
L 162.552138 53.568 
L 163.202097 60.48 
L 163.527076 60.48 
L 163.852056 57.024 
L 164.177035 63.936 
L 164.826994 70.848 
L 165.151974 70.848 
L 165.476953 74.304 
L 165.801933 74.304 
L 166.451892 81.216 
L 166.776871 81.216 
L 167.42683 95.04 
L 167.75181 91.584 
L 168.401769 105.408 
L 168.726749 105.408 
L 169.051728 108.864 
L 169.701687 122.688 
L 170.026667 126.144 
L 170.351646 126.144 
L 170.676626 136.512 
L 171.001605 136.512 
L 171.651564 150.336 
L 172.301523 157.248 
L 172.626503 164.16 
L 172.951482 164.16 
L 173.276462 171.072 
L 173.601441 174.528 
L 173.926421 181.44 
L 174.2514 184.896 
L 175.226339 205.632 
L 175.551319 205.632 
L 176.526257 226.368 
L 176.851237 226.368 
L 177.176216 233.28 
L 177.501196 236.736 
L 177.826175 243.648 
L 178.151155 240.192 
L 178.476134 247.104 
L 178.801114 257.472 
L 179.126093 254.016 
L 179.451073 254.016 
L 179.776052 264.384 
L 180.101032 267.84 
L 180.426011 274.752 
L 180.750991 267.84 
L 181.075971 274.752 
L 181.72593 281.664 
L 182.375889 281.664 
L 183.025848 288.576 
L 183.350827 281.664 
L 183.675807 288.576 
L 184.000786 292.032 
L 184.325766 292.032 
L 184.650745 288.576 
L 184.975725 292.032 
L 185.300704 288.576 
L 185.625684 295.488 
L 185.950663 288.576 
L 186.275643 295.488 
L 186.600622 292.032 
L 186.925602 292.032 
L 187.250581 288.576 
L 187.575561 292.032 
L 187.900541 285.12 
L 188.22552 288.576 
L 188.5505 281.664 
L 188.875479 281.664 
L 190.175397 267.84 
L 190.500377 271.296 
L 190.825356 267.84 
L 191.150336 257.472 
L 191.475315 257.472 
L 191.800295 254.016 
L 192.125274 254.016 
L 192.450254 250.56 
L 192.775233 243.648 
L 193.100213 247.104 
L 193.425192 240.192 
L 193.750172 229.824 
L 194.075152 226.368 
L 194.400131 226.368 
L 194.725111 222.912 
L 195.05009 212.544 
L 195.37507 212.544 
L 195.700049 205.632 
L 196.025029 202.176 
L 196.350008 195.264 
L 197.324947 184.896 
L 197.974906 171.072 
L 198.299885 167.616 
L 198.624865 167.616 
L 198.949844 157.248 
L 199.274824 153.792 
L 199.599803 153.792 
L 200.249762 136.512 
L 200.574742 136.512 
L 201.224701 129.6 
L 201.549681 119.232 
L 201.87466 115.776 
L 202.19964 108.864 
L 202.524619 112.32 
L 202.849599 105.408 
L 203.499558 98.496 
L 203.824537 98.496 
L 204.149517 88.128 
L 204.799476 88.128 
L 205.124455 84.672 
L 205.449435 77.76 
L 206.099394 77.76 
L 206.749353 70.848 
L 207.399312 70.848 
L 208.049271 63.936 
L 208.69923 70.848 
L 209.349189 63.936 
L 209.999148 63.936 
L 210.324128 60.48 
L 210.649107 60.48 
L 210.974087 63.936 
L 211.299066 70.848 
L 211.624046 70.848 
L 211.949025 67.392 
L 212.598984 74.304 
L 212.923964 74.304 
L 213.248943 81.216 
L 213.573923 77.76 
L 213.898903 81.216 
L 214.223882 88.128 
L 214.548862 84.672 
L 214.873841 88.128 
L 215.198821 95.04 
L 215.5238 95.04 
L 215.84878 98.496 
L 216.173759 105.408 
L 216.823718 112.32 
L 217.148698 112.32 
L 217.473677 122.688 
L 217.798657 122.688 
L 218.123636 126.144 
L 218.448616 133.056 
L 219.098575 139.968 
L 219.423554 146.88 
L 220.073514 153.792 
L 220.398493 160.704 
L 221.048452 167.616 
L 221.373432 177.984 
L 222.34837 188.352 
L 222.67335 195.264 
L 222.998329 198.72 
L 223.323309 205.632 
L 223.973268 212.544 
L 224.298247 219.456 
L 224.623227 222.912 
L 224.948206 219.456 
L 225.273186 229.824 
L 225.923145 236.736 
L 226.248124 243.648 
L 226.573104 243.648 
L 226.898084 250.56 
L 227.223063 254.016 
L 227.548043 250.56 
L 227.873022 257.472 
L 228.847961 267.84 
L 229.17294 267.84 
L 229.49792 271.296 
L 229.822899 278.208 
L 230.147879 274.752 
L 230.472858 274.752 
L 230.797838 281.664 
L 231.447797 281.664 
L 231.772776 285.12 
L 232.097756 285.12 
L 232.422735 288.576 
L 232.747715 281.664 
L 233.397674 288.576 
L 234.372613 288.576 
L 234.697592 285.12 
L 235.022572 288.576 
L 235.347551 281.664 
L 235.672531 281.664 
L 235.99751 285.12 
L 236.32249 281.664 
L 236.647469 274.752 
L 236.972449 278.208 
L 237.622408 278.208 
L 237.947387 271.296 
L 238.272367 271.296 
L 239.897265 254.016 
L 240.222244 254.016 
L 240.547224 243.648 
L 240.872203 240.192 
L 241.197183 240.192 
L 241.522162 233.28 
L 242.82208 219.456 
L 243.14706 209.088 
L 243.472039 209.088 
L 243.797019 205.632 
L 244.446978 191.808 
L 244.771957 191.808 
L 245.096937 184.896 
L 245.421916 181.44 
L 245.746896 167.616 
L 246.071876 167.616 
L 246.396855 164.16 
L 246.721835 157.248 
L 247.046814 146.88 
L 247.696773 146.88 
L 248.021753 143.424 
L 248.346732 129.6 
L 248.671712 129.6 
L 249.321671 122.688 
L 249.97163 108.864 
L 250.296609 105.408 
L 250.621589 105.408 
L 250.946568 95.04 
L 251.271548 95.04 
L 251.596527 91.584 
L 251.921507 84.672 
L 252.246486 81.216 
L 252.571466 81.216 
L 253.546405 70.848 
L 253.871384 70.848 
L 254.196364 67.392 
L 254.846323 67.392 
L 255.171302 63.936 
L 255.821261 63.936 
L 256.146241 53.568 
L 256.7962 60.48 
L 257.446159 53.568 
L 257.771138 53.568 
L 258.421097 60.48 
L 258.746077 53.568 
L 259.071057 60.48 
L 259.396036 60.48 
L 259.721016 63.936 
L 260.370975 63.936 
L 261.020934 70.848 
L 261.670893 70.848 
L 261.995872 77.76 
L 262.320852 81.216 
L 262.645831 81.216 
L 262.970811 88.128 
L 263.29579 91.584 
L 263.62077 98.496 
L 263.945749 98.496 
L 264.270729 105.408 
L 264.595708 105.408 
L 265.245667 119.232 
L 266.220606 129.6 
L 266.545586 129.6 
L 267.195545 143.424 
L 267.520524 146.88 
L 268.495463 167.616 
L 268.820442 171.072 
L 269.145422 171.072 
L 269.470401 177.984 
L 269.795381 181.44 
L 270.12036 191.808 
L 270.44534 195.264 
L 271.095299 209.088 
L 271.420278 212.544 
L 271.745258 209.088 
L 272.070238 219.456 
L 273.045176 229.824 
L 273.370156 236.736 
L 273.695135 240.192 
L 274.020115 247.104 
L 274.345094 243.648 
L 274.670074 254.016 
L 274.995053 254.016 
L 275.320033 260.928 
L 275.645012 264.384 
L 275.969992 264.384 
L 276.294971 271.296 
L 276.619951 274.752 
L 276.94493 271.296 
L 277.26991 278.208 
L 277.594889 278.208 
L 277.919869 281.664 
L 278.244848 281.664 
L 278.569828 288.576 
L 279.219787 288.576 
L 279.544767 285.12 
L 279.869746 292.032 
L 280.194726 295.488 
L 280.519705 292.032 
L 281.169664 292.032 
L 281.494644 295.488 
L 281.819623 295.488 
L 282.144603 288.576 
L 282.469582 288.576 
L 282.794562 292.032 
L 283.119541 288.576 
L 283.444521 288.576 
L 283.7695 285.12 
L 284.419459 285.12 
L 284.744439 278.208 
L 285.069419 281.664 
L 285.394398 274.752 
L 285.719378 278.208 
L 286.369337 264.384 
L 286.694316 267.84 
L 287.344275 260.928 
L 287.669255 250.56 
L 287.994234 250.56 
L 288.319214 247.104 
L 288.644193 240.192 
L 288.969173 240.192 
L 289.619132 233.28 
L 289.944111 219.456 
L 290.269091 222.912 
L 291.244029 212.544 
L 291.893989 198.72 
L 292.218968 195.264 
L 292.543948 188.352 
L 292.868927 188.352 
L 293.193907 184.896 
L 293.843866 171.072 
L 294.493825 164.16 
L 294.818804 164.16 
L 295.143784 150.336 
L 295.468763 150.336 
L 295.793743 139.968 
L 296.118722 139.968 
L 296.768681 133.056 
L 297.093661 126.144 
L 297.41864 126.144 
L 297.74362 115.776 
L 298.0686 112.32 
L 298.393579 112.32 
L 298.718559 101.952 
L 299.043538 98.496 
L 299.368518 98.496 
L 299.693497 95.04 
L 300.018477 95.04 
L 300.343456 88.128 
L 300.668436 91.584 
L 300.993415 84.672 
L 301.318395 84.672 
L 302.293333 74.304 
L 302.618313 74.304 
L 302.943292 67.392 
L 304.89317 67.392 
L 305.218149 70.848 
L 305.543129 63.936 
L 307.168026 63.936 
L 307.493006 70.848 
L 307.817985 74.304 
L 308.142965 70.848 
L 308.467944 70.848 
L 308.792924 77.76 
L 309.442883 77.76 
L 309.767862 84.672 
L 310.417821 91.584 
L 310.742801 88.128 
L 311.067781 95.04 
L 311.39276 98.496 
L 311.71774 105.408 
L 312.042719 105.408 
L 312.692678 112.32 
L 313.017658 119.232 
L 313.342637 119.232 
L 313.667617 126.144 
L 314.317576 133.056 
L 314.642555 133.056 
L 315.617494 153.792 
L 315.942473 150.336 
L 316.267453 164.16 
L 316.592432 160.704 
L 316.917412 171.072 
L 317.242391 174.528 
L 318.21733 195.264 
L 318.54231 191.808 
L 319.192269 205.632 
L 319.842228 212.544 
L 320.167207 219.456 
L 320.817166 226.368 
L 321.142146 222.912 
L 321.467125 236.736 
L 321.792105 236.736 
L 322.117084 247.104 
L 322.767043 247.104 
L 323.417002 260.928 
L 323.741982 257.472 
L 324.066962 260.928 
L 324.391941 267.84 
L 324.716921 267.84 
L 325.0419 264.384 
L 325.36688 274.752 
L 326.016839 281.664 
L 326.341818 274.752 
L 326.666798 281.664 
L 326.991777 281.664 
L 327.316757 285.12 
L 327.641736 285.12 
L 327.966716 288.576 
L 328.291695 285.12 
L 328.616675 292.032 
L 328.941654 281.664 
L 329.591613 288.576 
L 329.916593 288.576 
L 330.241572 285.12 
L 330.566552 288.576 
L 330.891532 285.12 
L 331.216511 288.576 
L 331.541491 278.208 
L 332.19145 285.12 
L 332.841409 278.208 
L 333.491368 278.208 
L 333.816347 274.752 
L 334.141327 264.384 
L 334.791286 264.384 
L 335.116265 257.472 
L 335.441245 254.016 
L 336.091204 254.016 
L 336.416183 247.104 
L 336.741163 233.28 
L 337.066143 240.192 
L 337.391122 229.824 
L 337.716102 229.824 
L 338.041081 222.912 
L 338.69104 216 
L 339.01602 216 
L 339.340999 202.176 
L 339.665979 198.72 
L 339.990958 198.72 
L 340.640917 184.896 
L 340.965897 184.896 
L 341.615856 177.984 
L 341.940835 164.16 
L 342.265815 164.16 
L 342.590794 157.248 
L 342.915774 153.792 
L 343.240753 146.88 
L 343.565733 143.424 
L 343.890713 136.512 
L 344.215692 136.512 
L 344.540672 122.688 
L 344.865651 122.688 
L 345.190631 119.232 
L 345.51561 112.32 
L 346.165569 105.408 
L 346.490549 105.408 
L 346.815528 101.952 
L 347.140508 91.584 
L 347.465487 91.584 
L 349.090385 74.304 
L 349.415364 74.304 
L 349.740344 67.392 
L 350.390303 67.392 
L 351.040262 60.48 
L 352.015201 60.48 
L 352.34018 57.024 
L 352.66516 60.48 
L 352.990139 57.024 
L 353.315119 60.48 
L 353.640098 57.024 
L 354.290057 57.024 
L 354.615037 60.48 
L 355.264996 60.48 
L 355.589975 63.936 
L 355.914955 63.936 
L 356.239934 60.48 
L 356.889894 74.304 
L 357.214873 74.304 
L 357.539853 70.848 
L 357.864832 77.76 
L 358.514791 84.672 
L 358.839771 84.672 
L 359.16475 91.584 
L 359.48973 91.584 
L 359.814709 98.496 
L 360.139689 98.496 
L 360.789648 115.776 
L 361.439607 115.776 
L 361.764586 126.144 
L 362.739525 136.512 
L 363.389484 150.336 
L 364.039443 157.248 
L 364.364423 164.16 
L 364.689402 167.616 
L 365.014382 174.528 
L 365.339361 174.528 
L 365.98932 188.352 
L 366.639279 195.264 
L 367.614218 216 
L 367.939197 216 
L 368.589156 229.824 
L 368.914136 233.28 
L 369.239115 233.28 
L 369.564095 243.648 
L 369.889075 247.104 
L 370.214054 254.016 
L 370.539034 250.56 
L 370.864013 254.016 
L 371.188993 264.384 
L 371.513972 264.384 
L 371.838952 260.928 
L 372.163931 271.296 
L 372.81389 278.208 
L 373.13887 274.752 
L 373.463849 281.664 
L 373.788829 281.664 
L 374.113808 285.12 
L 375.088747 285.12 
L 375.413726 292.032 
L 375.738706 285.12 
L 376.063686 288.576 
L 376.388665 295.488 
L 377.038624 288.576 
L 377.688583 288.576 
L 378.013563 292.032 
L 378.338542 285.12 
L 378.663522 288.576 
L 379.313481 288.576 
L 379.63846 285.12 
L 380.288419 285.12 
L 380.613399 281.664 
L 380.938378 274.752 
L 381.263358 278.208 
L 382.563276 264.384 
L 382.888256 264.384 
L 383.213235 260.928 
L 383.538215 254.016 
L 383.863194 254.016 
L 384.513153 247.104 
L 384.838133 240.192 
L 385.163112 236.736 
L 385.488092 229.824 
L 385.813071 229.824 
L 386.138051 222.912 
L 387.112989 212.544 
L 387.437969 205.632 
L 387.762948 202.176 
L 388.087928 195.264 
L 388.412907 195.264 
L 388.737887 188.352 
L 389.062867 184.896 
L 389.387846 177.984 
L 389.712826 174.528 
L 390.037805 167.616 
L 391.012744 157.248 
L 391.337723 143.424 
L 391.662703 143.424 
L 391.987682 136.512 
L 392.312662 136.512 
L 392.637641 129.6 
L 392.962621 129.6 
L 393.2876 119.232 
L 393.61258 119.232 
L 393.937559 112.32 
L 394.262539 112.32 
L 394.587518 105.408 
L 394.912498 105.408 
L 395.237477 101.952 
L 395.562457 95.04 
L 395.887437 91.584 
L 396.212416 91.584 
L 396.537396 84.672 
L 396.862375 84.672 
L 397.187355 81.216 
L 397.512334 74.304 
L 397.837314 70.848 
L 398.162293 70.848 
L 398.487273 74.304 
L 398.487273 74.304 
" clip-path="url(#pf1c6911b6d)" style="fill: none; stroke: #2ca02c; stroke-width: 1.5; stroke-linecap: square"/>
   </g>
   <g id="patch_3">
    <path d="M 57.6 307.584 
L 57.6 41.472 
" style="fill: none; stroke: #000000; stroke-width: 0.8; stroke-linejoin: miter; stroke-linecap: square"/>
   </g>
   <g id="patch_4">
    <path d="M 414.72 307.584 
L 414.72 41.472 
" style="fill: none; stroke: #000000; stroke-width: 0.8; stroke-linejoin: miter; stroke-linecap: square"/>
   </g>
   <g id="patch_5">
    <path d="M 57.6 307.584 
L 414.72 307.584 
" style="fill: none; stroke: #000000; stroke-width: 0.8; stroke-linejoin: miter; stroke-linecap: square"/>
   </g>
   <g id="patch_6">
    <path d="M 57.6 41.472 
L 414.72 41.472 
" style="fill: none; stroke: #000000; stroke-width: 0.8; stroke-linejoin: miter; stroke-linecap: square"/>
   </g>
  </g>
 </g>
 <defs>
  <clipPath id="pf1c6911b6d">
   <rect x="57.6" y="41.472" width="357.12" height="266.112"/>
  </clipPath>
 </defs>
</svg>
