<?xml version="1.0" encoding="utf-8" standalone="no"?>
<!DOCTYPE svg PUBLIC "-//W3C//DTD SVG 1.1//EN"
  "http://www.w3.org/Graphics/SVG/1.1/DTD/svg11.dtd">
<svg xmlns:xlink="http://www.w3.org/1999/xlink" width="460.8pt" height="345.6pt" viewBox="0 0 460.8 345.6" xmlns="http://www.w3.org/2000/svg" version="1.1">
 <metadata>
  <rdf:RDF xmlns:dc="http://purl.org/dc/elements/1.1/" xmlns:cc="http://creativecommons.org/ns#" xmlns:rdf="http://www.w3.org/1999/02/22-rdf-syntax-ns#">
   <cc:Work>
    <dc:type rdf:resource="http://purl.org/dc/dcmitype/StillImage"/>
    <dc:date>2025-12-29T09:13:48.703958</dc:date>
    <dc:format>image/svg+xml</dc:format>
    <dc:creator>
     <cc:Agent>
      <dc:title>Matplotlib v3.10.8, https://matplotlib.org/</dc:title>
     </cc:Agent>
    </dc:creator>
   </cc:Work>
  </rdf:RDF>
 </metadata>
 <defs>
  <style type="text/css">*{stroke-linejoin: round; stroke-linecap: butt}</style>
 </defs>
 <g id="figure_1">
  <g id="patch_1">
   <path d="M 0 345.6 
L 460.8 345.6 
L 460.8 0 
L 0 0 
z
" style="fill: #ffffff"/>
  </g>
  <g id="axes_1">
   <g id="patch_2">
    <path d="M 57.6 307.584 
L 414.72 307.584 
L 414.72 41.472 
L 57.6 41.472 
z
" style="fill: #ffffff"/>
   </g>
   <g id="matplotlib.axis_1">
    <g id="xtick_1">
     <g id="line2d_1">
      <defs>
       <path id="m2c700a0f7b" d="M 0 0 
L 0 3.5 
" style="stroke: #000000; stroke-width: 0.8"/>
      </defs>
      <g>
       <use xlink:href="#m2c700a0f7b" x="73.832727" y="307.584" style="stroke: #000000; stroke-width: 0.8"/>
      </g>
     </g>
     <g id="text_1">
      <!-- 0 -->
      <g transform="translate(70.651477 322.182437) scale(0.1 -0.1)">
       <defs>
        <path id="DejaVuSans-30" d="M 2034 4250 
Q 1547 4250 1301 3770 
Q 1056 3291 1056 2328 
Q 1056 1369 1301 889 
Q 1547 409 2034 409 
Q 2525 409 2770 889 
Q 3016 1369 3016 2328 
Q 3016 3291 2770 3770 
Q 2525 4250 2034 4250 
z
M 2034 4750 
Q 2819 4750 3233 4129 
Q 3647 3509 3647 2328 
Q 3647 1150 3233 529 
Q 2819 -91 2034 -91 
Q 1250 -91 836 529 
Q 422 1150 422 2328 
Q 422 3509 836 4129 
Q 1250 4750 2034 4750 
z
" transform="scale(0.015625)"/>
       </defs>
       <use xlink:href="#DejaVuSans-30"/>
      </g>
     </g>
    </g>
    <g id="xtick_2">
     <g id="line2d_2">
      <g>
       <use xlink:href="#m2c700a0f7b" x="138.828632" y="307.584" style="stroke: #000000; stroke-width: 0.8"/>
      </g>
     </g>
     <g id="text_2">
      <!-- 1 -->
      <g transform="translate(135.647382 322.182437) scale(0.1 -0.1)">
       <defs>
        <path id="DejaVuSans-31" d="M 794 531 
L 1825 531 
L 1825 4091 
L 703 3866 
L 703 4441 
L 1819 4666 
L 2450 4666 
L 2450 531 
L 3481 531 
L 3481 0 
L 794 0 
L 794 531 
z
" transform="scale(0.015625)"/>
       </defs>
       <use xlink:href="#DejaVuSans-31"/>
      </g>
     </g>
    </g>
    <g id="xtick_3">
     <g id="line2d_3">
      <g>
       <use xlink:href="#m2c700a0f7b" x="203.824537" y="307.584" style="stroke: #000000; stroke-width: 0.8"/>
      </g>
     </g>
     <g id="text_3">
      <!-- 2 -->
      <g transform="translate(200.643287 322.182437) scale(0.1 -0.1)">
       <defs>
        <path id="DejaVuSans-32" d="M 1228 531 
L 3431 531 
L 3431 0 
L 469 0 
L 469 531 
Q 828 903 1448 1529 
Q 2069 2156 2228 2338 
Q 2531 2678 2651 2914 
Q 2772 3150 2772 3378 
Q 2772 3750 2511 3984 
Q 2250 4219 1831 4219 
Q 1534 4219 1204 4116 
Q 875 4013 500 3803 
L 500 4441 
Q 881 4594 1212 4672 
Q 1544 4750 1819 4750 
Q 2544 4750 2975 4387 
Q 3406 4025 3406 3419 
Q 3406 3131 3298 2873 
Q 3191 2616 2906 2266 
Q 2828 2175 2409 1742 
Q 1991 1309 1228 531 
z
" transform="scale(0.015625)"/>
       </defs>
       <use xlink:href="#DejaVuSans-32"/>
      </g>
     </g>
    </g>
    <g id="xtick_4">
     <g id="line2d_4">
      <g>
       <use xlink:href="#m2c700a0f7b" x="268.820442" y="307.584" style="stroke: #000000; stroke-width: 0.8"/>
      </g>
     </g>
     <g id="text_4">
      <!-- 3 -->
      <g transform="translate(265.639192 322.182437) scale(0.1 -0.1)">
       <defs>
        <path id="DejaVuSans-33" d="M 2597 2516 
Q 3050 2419 3304 2112 
Q 3559 1806 3559 1356 
Q 3559 666 3084 287 
Q 2609 -91 1734 -91 
Q 1441 -91 1130 -33 
Q 819 25 488 141 
L 488 750 
Q 750 597 1062 519 
Q 1375 441 1716 441 
Q 2309 441 2620 675 
Q 2931 909 2931 1356 
Q 2931 1769 2642 2001 
Q 2353 2234 1838 2234 
L 1294 2234 
L 1294 2753 
L 1863 2753 
Q 2328 2753 2575 2939 
Q 2822 3125 2822 3475 
Q 2822 3834 2567 4026 
Q 2313 4219 1838 4219 
Q 1578 4219 1281 4162 
Q 984 4106 628 3988 
L 628 4550 
Q 988 4650 1302 4700 
Q 1616 4750 1894 4750 
Q 2613 4750 3031 4423 
Q 3450 4097 3450 3541 
Q 3450 3153 3228 2886 
Q 3006 2619 2597 2516 
z
" transform="scale(0.015625)"/>
       </defs>
       <use xlink:href="#DejaVuSans-33"/>
      </g>
     </g>
    </g>
    <g id="xtick_5">
     <g id="line2d_5">
      <g>
       <use xlink:href="#m2c700a0f7b" x="333.816347" y="307.584" style="stroke: #000000; stroke-width: 0.8"/>
      </g>
     </g>
     <g id="text_5">
      <!-- 4 -->
      <g transform="translate(330.635097 322.182437) scale(0.1 -0.1)">
       <defs>
        <path id="DejaVuSans-34" d="M 2419 4116 
L 825 1625 
L 2419 1625 
L 2419 4116 
z
M 2253 4666 
L 3047 4666 
L 3047 1625 
L 3713 1625 
L 3713 1100 
L 3047 1100 
L 3047 0 
L 2419 0 
L 2419 1100 
L 313 1100 
L 313 1709 
L 2253 4666 
z
" transform="scale(0.015625)"/>
       </defs>
       <use xlink:href="#DejaVuSans-34"/>
      </g>
     </g>
    </g>
    <g id="xtick_6">
     <g id="line2d_6">
      <g>
       <use xlink:href="#m2c700a0f7b" x="398.812252" y="307.584" style="stroke: #000000; stroke-width: 0.8"/>
      </g>
     </g>
     <g id="text_6">
      <!-- 5 -->
      <g transform="translate(395.631002 322.182437) scale(0.1 -0.1)">
       <defs>
        <path id="DejaVuSans-35" d="M 691 4666 
L 3169 4666 
L 3169 4134 
L 1269 4134 
L 1269 2991 
Q 1406 3038 1543 3061 
Q 1681 3084 1819 3084 
Q 2600 3084 3056 2656 
Q 3513 2228 3513 1497 
Q 3513 744 3044 326 
Q 2575 -91 1722 -91 
Q 1428 -91 1123 -41 
Q 819 9 494 109 
L 494 744 
Q 775 591 1075 516 
Q 1375 441 1709 441 
Q 2250 441 2565 725 
Q 2881 1009 2881 1497 
Q 2881 1984 2565 2268 
Q 2250 2553 1709 2553 
Q 1456 2553 1204 2497 
Q 953 2441 691 2322 
L 691 4666 
z
" transform="scale(0.015625)"/>
       </defs>
       <use xlink:href="#DejaVuSans-35"/>
      </g>
     </g>
    </g>
    <g id="text_7">
     <!-- 1e−7 -->
     <g transform="translate(387.462188 334.860562) scale(0.1 -0.1)">
      <defs>
       <path id="DejaVuSans-65" d="M 3597 1894 
L 3597 1613 
L 953 1613 
Q 991 1019 1311 708 
Q 1631 397 2203 397 
Q 2534 397 2845 478 
Q 3156 559 3463 722 
L 3463 178 
Q 3153 47 2828 -22 
Q 2503 -91 2169 -91 
Q 1331 -91 842 396 
Q 353 884 353 1716 
Q 353 2575 817 3079 
Q 1281 3584 2069 3584 
Q 2775 3584 3186 3129 
Q 3597 2675 3597 1894 
z
M 3022 2063 
Q 3016 2534 2758 2815 
Q 2500 3097 2075 3097 
Q 1594 3097 1305 2825 
Q 1016 2553 972 2059 
L 3022 2063 
z
" transform="scale(0.015625)"/>
       <path id="DejaVuSans-2212" d="M 678 2272 
L 4684 2272 
L 4684 1741 
L 678 1741 
L 678 2272 
z
" transform="scale(0.015625)"/>
       <path id="DejaVuSans-37" d="M 525 4666 
L 3525 4666 
L 3525 4397 
L 1831 0 
L 1172 0 
L 2766 4134 
L 525 4134 
L 525 4666 
z
" transform="scale(0.015625)"/>
      </defs>
      <use xlink:href="#DejaVuSans-31"/>
      <use xlink:href="#DejaVuSans-65" transform="translate(63.623047 0)"/>
      <use xlink:href="#DejaVuSans-2212" transform="translate(125.146484 0)"/>
      <use xlink:href="#DejaVuSans-37" transform="translate(208.935547 0)"/>
     </g>
    </g>
   </g>
   <g id="matplotlib.axis_2">
    <g id="ytick_1">
     <g id="line2d_7">
      <defs>
       <path id="mc8b8922f5a" d="M 0 0 
L -3.5 0 
" style="stroke: #000000; stroke-width: 0.8"/>
      </defs>
      <g>
       <use xlink:href="#mc8b8922f5a" x="57.6" y="294.911981" style="stroke: #000000; stroke-width: 0.8"/>
      </g>
     </g>
     <g id="text_8">
      <!-- −40 -->
      <g transform="translate(29.495313 298.711199) scale(0.1 -0.1)">
       <use xlink:href="#DejaVuSans-2212"/>
       <use xlink:href="#DejaVuSans-34" transform="translate(83.789062 0)"/>
       <use xlink:href="#DejaVuSans-30" transform="translate(147.412109 0)"/>
      </g>
     </g>
    </g>
    <g id="ytick_2">
     <g id="line2d_8">
      <g>
       <use xlink:href="#mc8b8922f5a" x="57.6" y="258.047983" style="stroke: #000000; stroke-width: 0.8"/>
      </g>
     </g>
     <g id="text_9">
      <!-- −20 -->
      <g transform="translate(29.495313 261.847202) scale(0.1 -0.1)">
       <use xlink:href="#DejaVuSans-2212"/>
       <use xlink:href="#DejaVuSans-32" transform="translate(83.789062 0)"/>
       <use xlink:href="#DejaVuSans-30" transform="translate(147.412109 0)"/>
      </g>
     </g>
    </g>
    <g id="ytick_3">
     <g id="line2d_9">
      <g>
       <use xlink:href="#mc8b8922f5a" x="57.6" y="221.183985" style="stroke: #000000; stroke-width: 0.8"/>
      </g>
     </g>
     <g id="text_10">
      <!-- 0 -->
      <g transform="translate(44.2375 224.983204) scale(0.1 -0.1)">
       <use xlink:href="#DejaVuSans-30"/>
      </g>
     </g>
    </g>
    <g id="ytick_4">
     <g id="line2d_10">
      <g>
       <use xlink:href="#mc8b8922f5a" x="57.6" y="184.319988" style="stroke: #000000; stroke-width: 0.8"/>
      </g>
     </g>
     <g id="text_11">
      <!-- 20 -->
      <g transform="translate(37.875 188.119206) scale(0.1 -0.1)">
       <use xlink:href="#DejaVuSans-32"/>
       <use xlink:href="#DejaVuSans-30" transform="translate(63.623047 0)"/>
      </g>
     </g>
    </g>
    <g id="ytick_5">
     <g id="line2d_11">
      <g>
       <use xlink:href="#mc8b8922f5a" x="57.6" y="147.45599" style="stroke: #000000; stroke-width: 0.8"/>
      </g>
     </g>
     <g id="text_12">
      <!-- 40 -->
      <g transform="translate(37.875 151.255209) scale(0.1 -0.1)">
       <use xlink:href="#DejaVuSans-34"/>
       <use xlink:href="#DejaVuSans-30" transform="translate(63.623047 0)"/>
      </g>
     </g>
    </g>
    <g id="ytick_6">
     <g id="line2d_12">
      <g>
       <use xlink:href="#mc8b8922f5a" x="57.6" y="110.591992" style="stroke: #000000; stroke-width: 0.8"/>
      </g>
     </g>
     <g id="text_13">
      <!-- 60 -->
      <g transform="translate(37.875 114.391211) scale(0.1 -0.1)">
       <defs>
        <path id="DejaVuSans-36" d="M 2113 2584 
Q 1688 2584 1439 2293 
Q 1191 2003 1191 1497 
Q 1191 994 1439 701 
Q 1688 409 2113 409 
Q 2538 409 2786 701 
Q 3034 994 3034 1497 
Q 3034 2003 2786 2293 
Q 2538 2584 2113 2584 
z
M 3366 4563 
L 3366 3988 
Q 3128 4100 2886 4159 
Q 2644 4219 2406 4219 
Q 1781 4219 1451 3797 
Q 1122 3375 1075 2522 
Q 1259 2794 1537 2939 
Q 1816 3084 2150 3084 
Q 2853 3084 3261 2657 
Q 3669 2231 3669 1497 
Q 3669 778 3244 343 
Q 2819 -91 2113 -91 
Q 1303 -91 875 529 
Q 447 1150 447 2328 
Q 447 3434 972 4092 
Q 1497 4750 2381 4750 
Q 2619 4750 2861 4703 
Q 3103 4656 3366 4563 
z
" transform="scale(0.015625)"/>
       </defs>
       <use xlink:href="#DejaVuSans-36"/>
       <use xlink:href="#DejaVuSans-30" transform="translate(63.623047 0)"/>
      </g>
     </g>
    </g>
    <g id="ytick_7">
     <g id="line2d_13">
      <g>
       <use xlink:href="#mc8b8922f5a" x="57.6" y="73.727994" style="stroke: #000000; stroke-width: 0.8"/>
      </g>
     </g>
     <g id="text_14">
      <!-- 80 -->
      <g transform="translate(37.875 77.527213) scale(0.1 -0.1)">
       <defs>
        <path id="DejaVuSans-38" d="M 2034 2216 
Q 1584 2216 1326 1975 
Q 1069 1734 1069 1313 
Q 1069 891 1326 650 
Q 1584 409 2034 409 
Q 2484 409 2743 651 
Q 3003 894 3003 1313 
Q 3003 1734 2745 1975 
Q 2488 2216 2034 2216 
z
M 1403 2484 
Q 997 2584 770 2862 
Q 544 3141 544 3541 
Q 544 4100 942 4425 
Q 1341 4750 2034 4750 
Q 2731 4750 3128 4425 
Q 3525 4100 3525 3541 
Q 3525 3141 3298 2862 
Q 3072 2584 2669 2484 
Q 3125 2378 3379 2068 
Q 3634 1759 3634 1313 
Q 3634 634 3220 271 
Q 2806 -91 2034 -91 
Q 1263 -91 848 271 
Q 434 634 434 1313 
Q 434 1759 690 2068 
Q 947 2378 1403 2484 
z
M 1172 3481 
Q 1172 3119 1398 2916 
Q 1625 2713 2034 2713 
Q 2441 2713 2670 2916 
Q 2900 3119 2900 3481 
Q 2900 3844 2670 4047 
Q 2441 4250 2034 4250 
Q 1625 4250 1398 4047 
Q 1172 3844 1172 3481 
z
" transform="scale(0.015625)"/>
       </defs>
       <use xlink:href="#DejaVuSans-38"/>
       <use xlink:href="#DejaVuSans-30" transform="translate(63.623047 0)"/>
      </g>
     </g>
    </g>
   </g>
   <g id="line2d_14">
    <path d="M 73.832727 222.623982 
L 74.157707 224.063982 
L 74.482686 222.623982 
L 74.807666 224.063982 
L 75.132645 222.623982 
L 75.457625 224.063982 
L 76.107584 224.063982 
L 76.432563 222.623982 
L 77.407502 222.623982 
L 77.732482 224.063982 
L 78.70742 224.063982 
L 79.0324 222.623982 
L 79.357379 225.503982 
L 80.007338 222.623982 
L 80.332318 222.623982 
L 80.657297 224.063982 
L 81.307256 224.063982 
L 81.632236 222.623982 
L 82.282195 222.623982 
L 82.607174 224.063982 
L 82.932154 222.623982 
L 83.257133 224.063982 
L 83.582113 222.623982 
L 83.907093 224.063982 
L 84.232072 222.623982 
L 84.557052 222.623982 
L 85.207011 215.423982 
L 85.53199 212.543982 
L 85.85697 208.223982 
L 86.181949 199.583982 
L 86.506929 196.703982 
L 86.831908 195.263982 
L 87.156888 198.143982 
L 87.481867 198.143982 
L 87.806847 192.383982 
L 88.456806 173.663982 
L 88.781785 170.783982 
L 89.106765 172.223982 
L 89.431744 179.423982 
L 89.756724 180.863982 
L 90.731663 149.183982 
L 91.056642 149.183982 
L 91.706601 162.143982 
L 92.031581 157.823982 
L 92.68154 140.543982 
L 93.006519 139.103982 
L 93.331499 143.423982 
L 93.656478 144.863982 
L 94.631417 133.343982 
L 94.956396 140.543982 
L 95.281376 140.543982 
L 95.606355 136.223982 
L 96.256314 121.823982 
L 96.581294 124.703982 
L 96.906274 136.223982 
L 97.231253 136.223982 
L 98.206192 124.703982 
L 98.531171 127.583982 
L 98.856151 129.023982 
L 99.18113 127.583982 
L 99.50611 124.703982 
L 99.831089 124.703982 
L 100.156069 130.463982 
L 100.806028 130.463982 
L 101.131007 124.703982 
L 101.455987 121.823982 
L 101.780966 124.703982 
L 102.105946 130.463982 
L 102.430925 131.903982 
L 102.755905 131.903982 
L 103.080885 130.463982 
L 103.405864 127.583982 
L 103.730844 129.023982 
L 104.055823 131.903982 
L 105.030762 131.903982 
L 105.355741 134.783982 
L 105.680721 134.783982 
L 106.0057 136.223982 
L 106.33068 134.783982 
L 106.655659 131.903982 
L 106.980639 131.903982 
L 107.305618 134.783982 
L 107.955577 137.663982 
L 108.280557 137.663982 
L 108.605536 136.223982 
L 109.255495 136.223982 
L 109.580475 137.663982 
L 110.230434 137.663982 
L 110.555414 140.543982 
L 110.880393 139.103982 
L 111.205373 139.103982 
L 111.530352 136.223982 
L 111.855332 134.783982 
L 112.180311 134.783982 
L 112.83027 137.663982 
L 113.480229 137.663982 
L 114.130188 134.783982 
L 115.105127 134.783982 
L 115.430106 133.343982 
L 115.755086 134.783982 
L 116.080066 131.903982 
L 116.405045 133.343982 
L 116.730025 130.463982 
L 117.055004 131.903982 
L 117.379984 129.023982 
L 117.704963 127.583982 
L 118.029943 129.023982 
L 118.354922 129.023982 
L 118.679902 130.463982 
L 119.97982 124.703982 
L 120.629779 124.703982 
L 120.954758 127.583982 
L 121.279738 126.143982 
L 121.604717 126.143982 
L 121.929697 123.263982 
L 122.254676 123.263982 
L 122.579656 121.823982 
L 122.904636 123.263982 
L 123.229615 123.263982 
L 123.554595 124.703982 
L 123.879574 124.703982 
L 124.204554 123.263982 
L 124.854513 126.143982 
L 125.179492 124.703982 
L 125.504472 124.703982 
L 125.829451 123.263982 
L 126.154431 126.143982 
L 126.47941 126.143982 
L 127.454349 130.463982 
L 127.779328 129.023982 
L 128.104308 130.463982 
L 128.429287 130.463982 
L 128.754267 133.343982 
L 129.079247 134.783982 
L 129.404226 134.783982 
L 130.054185 137.663982 
L 130.379165 137.663982 
L 130.704144 140.543982 
L 131.029124 140.543982 
L 131.354103 144.863982 
L 131.679083 144.863982 
L 132.004062 147.743982 
L 132.654021 150.623982 
L 132.979001 153.503982 
L 133.30398 154.943982 
L 133.62896 157.823982 
L 133.953939 159.263982 
L 134.603898 165.023982 
L 134.928878 166.463982 
L 135.253857 169.343982 
L 135.578837 170.783982 
L 135.903817 173.663982 
L 136.228796 173.663982 
L 136.553776 176.543982 
L 136.878755 177.983982 
L 137.203735 182.303982 
L 137.528714 183.743982 
L 138.178673 189.503982 
L 138.503653 189.503982 
L 138.828632 192.383982 
L 139.153612 193.823982 
L 140.12855 202.463982 
L 140.778509 205.343982 
L 141.428468 205.343982 
L 142.078428 212.543982 
L 142.403407 212.543982 
L 142.728387 211.103982 
L 143.053366 212.543982 
L 143.378346 216.863982 
L 144.028305 219.743982 
L 144.353284 218.303982 
L 144.678264 221.183982 
L 145.003243 221.183982 
L 145.653202 224.063982 
L 146.303161 224.063982 
L 146.628141 222.623982 
L 146.95312 225.503982 
L 147.2781 225.503982 
L 147.928059 222.623982 
L 148.253038 224.063982 
L 149.227977 224.063982 
L 149.552957 221.183982 
L 149.877936 222.623982 
L 150.202916 221.183982 
L 150.852875 221.183982 
L 151.177854 219.743982 
L 151.827813 219.743982 
L 152.152793 221.183982 
L 152.477772 219.743982 
L 153.127731 219.743982 
L 153.452711 218.303982 
L 153.77769 219.743982 
L 154.10267 224.063982 
L 154.427649 224.063982 
L 154.752629 222.623982 
L 155.727568 222.623982 
L 156.052547 225.503982 
L 156.377527 222.623982 
L 156.702506 222.623982 
L 157.027486 219.743982 
L 157.352465 222.623982 
L 158.327404 222.623982 
L 158.652383 221.183982 
L 159.302342 221.183982 
L 159.627322 222.623982 
L 159.952301 221.183982 
L 160.60226 221.183982 
L 160.92724 222.623982 
L 161.577199 222.623982 
L 161.902179 224.063982 
L 162.227158 222.623982 
L 162.552138 224.063982 
L 162.877117 222.623982 
L 165.476953 222.623982 
L 165.801933 221.183982 
L 166.126912 221.183982 
L 166.776871 224.063982 
L 167.101851 224.063982 
L 167.42683 222.623982 
L 168.07679 222.623982 
L 168.401769 224.063982 
L 168.726749 222.623982 
L 169.051728 224.063982 
L 169.376708 222.623982 
L 169.701687 222.623982 
L 170.026667 224.063982 
L 170.676626 224.063982 
L 171.001605 222.623982 
L 171.651564 222.623982 
L 171.976544 224.063982 
L 172.301523 222.623982 
L 172.626503 222.623982 
L 172.951482 224.063982 
L 173.276462 222.623982 
L 173.926421 222.623982 
L 174.2514 224.063982 
L 176.201278 224.063982 
L 176.526257 222.623982 
L 176.851237 224.063982 
L 177.176216 222.623982 
L 177.501196 224.063982 
L 177.826175 222.623982 
L 178.151155 224.063982 
L 178.476134 222.623982 
L 179.126093 222.623982 
L 179.451073 224.063982 
L 179.776052 224.063982 
L 180.101032 221.183982 
L 180.426011 221.183982 
L 180.750991 218.303982 
L 182.375889 195.263982 
L 182.700868 195.263982 
L 183.350827 198.143982 
L 183.675807 192.383982 
L 184.650745 167.903982 
L 184.975725 170.783982 
L 185.300704 177.983982 
L 185.625684 179.423982 
L 185.950663 170.783982 
L 186.600622 147.743982 
L 186.925602 149.183982 
L 187.250581 157.823982 
L 187.575561 162.143982 
L 187.900541 159.263982 
L 188.22552 146.303982 
L 188.5505 140.543982 
L 188.875479 140.543982 
L 189.200459 144.863982 
L 189.525438 143.423982 
L 189.850418 140.543982 
L 190.175397 133.343982 
L 190.500377 131.903982 
L 190.825356 139.103982 
L 191.150336 140.543982 
L 191.475315 136.223982 
L 191.800295 127.583982 
L 192.125274 123.263982 
L 192.450254 126.143982 
L 192.775233 133.343982 
L 193.100213 136.223982 
L 194.075152 124.703982 
L 194.400131 127.583982 
L 195.05009 127.583982 
L 195.37507 124.703982 
L 195.700049 126.143982 
L 196.025029 130.463982 
L 196.350008 131.903982 
L 196.674988 130.463982 
L 196.999967 124.703982 
L 197.324947 121.823982 
L 198.299885 133.343982 
L 198.949844 130.463982 
L 199.274824 127.583982 
L 200.249762 131.903982 
L 200.574742 131.903982 
L 200.899722 130.463982 
L 201.224701 134.783982 
L 201.87466 134.783982 
L 202.524619 131.903982 
L 203.499558 136.223982 
L 203.824537 136.223982 
L 204.149517 137.663982 
L 204.474496 136.223982 
L 205.124455 136.223982 
L 205.449435 134.783982 
L 205.774414 137.663982 
L 206.099394 136.223982 
L 206.749353 139.103982 
L 207.074333 139.103982 
L 207.399312 136.223982 
L 207.724292 134.783982 
L 208.049271 134.783982 
L 208.69923 137.663982 
L 209.02421 136.223982 
L 209.349189 137.663982 
L 209.674169 134.783982 
L 210.974087 134.783982 
L 211.299066 133.343982 
L 211.624046 134.783982 
L 211.949025 131.903982 
L 212.274005 133.343982 
L 212.923964 130.463982 
L 213.248943 130.463982 
L 213.573923 129.023982 
L 214.223882 129.023982 
L 214.548862 131.903982 
L 214.873841 127.583982 
L 215.198821 127.583982 
L 215.5238 124.703982 
L 215.84878 124.703982 
L 216.173759 126.143982 
L 216.498739 126.143982 
L 216.823718 127.583982 
L 217.148698 126.143982 
L 217.473677 126.143982 
L 217.798657 123.263982 
L 218.123636 121.823982 
L 218.773595 124.703982 
L 219.098575 124.703982 
L 219.423554 123.263982 
L 219.748534 126.143982 
L 220.073514 121.823982 
L 220.398493 124.703982 
L 221.048452 124.703982 
L 221.373432 123.263982 
L 221.698411 123.263982 
L 222.023391 126.143982 
L 222.34837 126.143982 
L 222.67335 127.583982 
L 223.323309 127.583982 
L 223.648288 130.463982 
L 223.973268 129.023982 
L 224.623227 131.903982 
L 224.948206 134.783982 
L 225.273186 136.223982 
L 225.598165 136.223982 
L 225.923145 137.663982 
L 226.573104 137.663982 
L 226.898084 141.983982 
L 227.223063 143.423982 
L 227.873022 149.183982 
L 228.198002 149.183982 
L 228.847961 154.943982 
L 229.17294 154.943982 
L 229.49792 159.263982 
L 229.822899 159.263982 
L 230.147879 162.143982 
L 230.472858 162.143982 
L 231.122817 167.903982 
L 231.447797 169.343982 
L 231.772776 172.223982 
L 232.097756 173.663982 
L 232.422735 177.983982 
L 232.747715 177.983982 
L 233.072695 182.303982 
L 233.397674 183.743982 
L 234.047633 189.503982 
L 234.697592 192.383982 
L 235.022572 192.383982 
L 235.347551 198.143982 
L 235.672531 199.583982 
L 235.99751 199.583982 
L 236.32249 203.903982 
L 237.297428 208.223982 
L 237.622408 208.223982 
L 238.922326 213.983982 
L 239.572285 219.743982 
L 239.897265 219.743982 
L 240.222244 218.303982 
L 240.547224 221.183982 
L 240.872203 222.623982 
L 241.847142 222.623982 
L 242.497101 225.503982 
L 242.82208 225.503982 
L 243.14706 224.063982 
L 243.472039 225.503982 
L 243.797019 224.063982 
L 245.096937 224.063982 
L 245.421916 221.183982 
L 246.071876 221.183982 
L 246.396855 222.623982 
L 246.721835 221.183982 
L 247.046814 222.623982 
L 247.371794 219.743982 
L 247.696773 219.743982 
L 248.021753 221.183982 
L 248.996691 216.863982 
L 249.64665 222.623982 
L 249.97163 224.063982 
L 250.296609 224.063982 
L 250.621589 221.183982 
L 250.946568 222.623982 
L 251.921507 222.623982 
L 252.246486 224.063982 
L 252.896446 221.183982 
L 253.221425 222.623982 
L 253.546405 221.183982 
L 253.871384 224.063982 
L 254.196364 222.623982 
L 254.521343 222.623982 
L 254.846323 224.063982 
L 255.171302 222.623982 
L 255.496282 224.063982 
L 255.821261 221.183982 
L 256.146241 222.623982 
L 256.47122 221.183982 
L 256.7962 222.623982 
L 257.121179 222.623982 
L 257.446159 224.063982 
L 257.771138 222.623982 
L 258.096118 224.063982 
L 258.421097 222.623982 
L 259.721016 222.623982 
L 260.045995 224.063982 
L 260.370975 222.623982 
L 260.695954 222.623982 
L 261.020934 221.183982 
L 261.345913 222.623982 
L 261.670893 222.623982 
L 261.995872 224.063982 
L 262.320852 222.623982 
L 262.645831 224.063982 
L 262.970811 222.623982 
L 263.29579 222.623982 
L 263.62077 224.063982 
L 263.945749 222.623982 
L 264.595708 225.503982 
L 264.920688 224.063982 
L 265.245667 224.063982 
L 265.570647 222.623982 
L 265.895627 224.063982 
L 266.220606 222.623982 
L 266.545586 224.063982 
L 266.870565 222.623982 
L 267.520524 222.623982 
L 267.845504 224.063982 
L 268.170483 222.623982 
L 268.495463 224.063982 
L 268.820442 224.063982 
L 269.145422 222.623982 
L 269.470401 222.623982 
L 270.12036 225.503982 
L 270.44534 224.063982 
L 270.770319 225.503982 
L 271.420278 222.623982 
L 271.745258 224.063982 
L 272.720197 224.063982 
L 273.045176 222.623982 
L 273.370156 224.063982 
L 274.020115 224.063982 
L 274.345094 222.623982 
L 274.995053 222.623982 
L 275.320033 224.063982 
L 275.645012 226.943982 
L 275.969992 224.063982 
L 276.294971 222.623982 
L 276.619951 216.863982 
L 276.94493 216.863982 
L 277.919869 201.023982 
L 278.244848 196.703982 
L 278.569828 196.703982 
L 278.894808 198.143982 
L 279.219787 198.143982 
L 279.544767 193.823982 
L 280.194726 173.663982 
L 280.519705 170.783982 
L 280.844685 173.663982 
L 281.169664 179.423982 
L 281.494644 180.863982 
L 281.819623 172.223982 
L 282.469582 147.743982 
L 282.794562 149.183982 
L 283.444521 163.583982 
L 283.7695 157.823982 
L 284.09448 146.303982 
L 284.419459 139.103982 
L 284.744439 139.103982 
L 285.069419 143.423982 
L 285.394398 144.863982 
L 286.044357 134.783982 
L 286.369337 134.783982 
L 286.694316 139.103982 
L 287.019296 140.543982 
L 287.344275 137.663982 
L 287.669255 127.583982 
L 287.994234 123.263982 
L 288.319214 126.143982 
L 288.644193 133.343982 
L 288.969173 137.663982 
L 289.619132 126.143982 
L 289.944111 124.703982 
L 290.269091 127.583982 
L 290.59407 129.023982 
L 291.244029 126.143982 
L 291.569009 126.143982 
L 291.893989 130.463982 
L 292.218968 131.903982 
L 292.543948 131.903982 
L 292.868927 126.143982 
L 293.193907 124.703982 
L 293.518886 124.703982 
L 294.168845 134.783982 
L 294.493825 133.343982 
L 295.143784 127.583982 
L 295.468763 130.463982 
L 295.793743 131.903982 
L 296.118722 131.903982 
L 296.443702 133.343982 
L 296.768681 133.343982 
L 297.093661 134.783982 
L 297.41864 134.783982 
L 297.74362 136.223982 
L 298.0686 133.343982 
L 298.393579 131.903982 
L 298.718559 131.903982 
L 299.043538 134.783982 
L 299.693497 137.663982 
L 300.018477 137.663982 
L 300.343456 136.223982 
L 300.668436 136.223982 
L 300.993415 134.783982 
L 301.643374 137.663982 
L 302.618313 137.663982 
L 302.943292 139.103982 
L 303.268272 136.223982 
L 303.593251 134.783982 
L 304.24321 137.663982 
L 304.56819 136.223982 
L 304.89317 136.223982 
L 305.218149 137.663982 
L 306.193088 133.343982 
L 306.518067 133.343982 
L 306.843047 134.783982 
L 307.493006 134.783982 
L 307.817985 131.903982 
L 308.142965 133.343982 
L 308.467944 131.903982 
L 308.792924 131.903982 
L 309.442883 129.023982 
L 310.092842 129.023982 
L 310.417821 130.463982 
L 311.067781 127.583982 
L 311.39276 124.703982 
L 311.71774 126.143982 
L 312.042719 126.143982 
L 312.367699 127.583982 
L 312.692678 127.583982 
L 313.017658 126.143982 
L 313.342637 127.583982 
L 313.667617 123.263982 
L 313.992596 123.263982 
L 314.317576 124.703982 
L 315.617494 124.703982 
L 315.942473 123.263982 
L 316.267453 124.703982 
L 316.592432 123.263982 
L 316.917412 126.143982 
L 317.567371 126.143982 
L 317.892351 127.583982 
L 318.21733 127.583982 
L 318.54231 130.463982 
L 318.867289 127.583982 
L 319.192269 129.023982 
L 319.517248 127.583982 
L 319.842228 129.023982 
L 320.167207 131.903982 
L 320.492187 131.903982 
L 321.142146 134.783982 
L 321.467125 137.663982 
L 321.792105 137.663982 
L 322.442064 140.543982 
L 323.092023 146.303982 
L 323.417002 144.863982 
L 323.741982 149.183982 
L 324.066962 149.183982 
L 324.391941 150.623982 
L 324.716921 153.503982 
L 325.0419 154.943982 
L 325.691859 160.703982 
L 326.016839 160.703982 
L 326.341818 162.143982 
L 326.666798 165.023982 
L 326.991777 166.463982 
L 327.641736 173.663982 
L 328.291695 176.543982 
L 328.616675 176.543982 
L 328.941654 180.863982 
L 329.266634 182.303982 
L 329.591613 186.623982 
L 330.241572 189.503982 
L 330.566552 192.383982 
L 331.216511 195.263982 
L 331.541491 198.143982 
L 331.86647 199.583982 
L 332.19145 202.463982 
L 333.166388 206.783982 
L 333.491368 209.663982 
L 333.816347 209.663982 
L 334.141327 212.543982 
L 334.466306 212.543982 
L 334.791286 213.983982 
L 335.116265 216.863982 
L 335.441245 218.303982 
L 335.766224 218.303982 
L 336.091204 219.743982 
L 336.741163 219.743982 
L 337.066143 222.623982 
L 337.716102 225.503982 
L 338.366061 222.623982 
L 338.69104 224.063982 
L 339.01602 224.063982 
L 339.340999 225.503982 
L 339.665979 222.623982 
L 339.990958 221.183982 
L 340.640917 224.063982 
L 340.965897 224.063982 
L 341.615856 221.183982 
L 341.940835 221.183982 
L 342.265815 222.623982 
L 342.590794 221.183982 
L 343.890713 221.183982 
L 344.215692 219.743982 
L 344.540672 219.743982 
L 344.865651 218.303982 
L 345.190631 219.743982 
L 345.51561 222.623982 
L 345.84059 224.063982 
L 346.165569 224.063982 
L 346.815528 221.183982 
L 347.465487 224.063982 
L 348.440426 224.063982 
L 348.765405 222.623982 
L 349.090385 224.063982 
L 349.415364 222.623982 
L 349.740344 224.063982 
L 350.065324 222.623982 
L 350.390303 222.623982 
L 350.715283 221.183982 
L 352.015201 221.183982 
L 352.34018 219.743982 
L 352.66516 222.623982 
L 353.315119 222.623982 
L 353.640098 224.063982 
L 354.290057 224.063982 
L 354.615037 222.623982 
L 354.940016 224.063982 
L 355.264996 222.623982 
L 355.589975 224.063982 
L 355.914955 222.623982 
L 356.239934 224.063982 
L 356.564914 221.183982 
L 356.889894 222.623982 
L 357.214873 221.183982 
L 357.539853 222.623982 
L 357.864832 222.623982 
L 358.189812 221.183982 
L 358.839771 224.063982 
L 359.16475 224.063982 
L 359.48973 222.623982 
L 359.814709 222.623982 
L 360.139689 225.503982 
L 360.464668 224.063982 
L 362.414545 224.063982 
L 362.739525 222.623982 
L 363.064505 224.063982 
L 363.389484 221.183982 
L 363.714464 222.623982 
L 364.364423 222.623982 
L 364.689402 224.063982 
L 365.014382 221.183982 
L 365.339361 225.503982 
L 365.664341 224.063982 
L 365.98932 224.063982 
L 366.3143 225.503982 
L 366.639279 224.063982 
L 367.614218 224.063982 
L 367.939197 222.623982 
L 368.264177 222.623982 
L 368.589156 224.063982 
L 369.564095 224.063982 
L 369.889075 222.623982 
L 370.214054 222.623982 
L 370.539034 225.503982 
L 370.864013 224.063982 
L 371.188993 224.063982 
L 371.513972 222.623982 
L 371.838952 222.623982 
L 372.163931 221.183982 
L 372.488911 218.303982 
L 372.81389 213.983982 
L 373.13887 212.543982 
L 374.113808 195.263982 
L 374.438788 195.263982 
L 375.088747 198.143982 
L 375.413726 192.383982 
L 376.388665 169.343982 
L 377.363604 180.863982 
L 378.338542 147.743982 
L 378.663522 149.183982 
L 379.313481 163.583982 
L 379.63846 159.263982 
L 380.288419 139.103982 
L 380.613399 139.103982 
L 380.938378 144.863982 
L 381.263358 144.863982 
L 381.913317 134.783982 
L 382.238296 134.783982 
L 382.888256 140.543982 
L 383.213235 137.663982 
L 383.538215 126.143982 
L 383.863194 123.263982 
L 384.188174 126.143982 
L 384.513153 134.783982 
L 384.838133 137.663982 
L 385.813071 124.703982 
L 386.138051 127.583982 
L 386.78801 127.583982 
L 387.112989 126.143982 
L 387.762948 129.023982 
L 388.087928 133.343982 
L 388.412907 131.903982 
L 388.737887 124.703982 
L 389.062867 123.263982 
L 389.387846 124.703982 
L 390.037805 134.783982 
L 390.362785 134.783982 
L 391.012744 127.583982 
L 391.337723 130.463982 
L 391.662703 130.463982 
L 391.987682 131.903982 
L 392.637641 131.903982 
L 392.962621 133.343982 
L 393.2876 136.223982 
L 393.61258 136.223982 
L 394.262539 133.343982 
L 394.587518 133.343982 
L 394.912498 134.783982 
L 395.237477 139.103982 
L 395.562457 139.103982 
L 395.887437 136.223982 
L 396.212416 134.783982 
L 396.537396 136.223982 
L 396.862375 133.343982 
L 397.837314 137.663982 
L 398.162293 140.543982 
L 398.487273 139.103982 
L 398.487273 139.103982 
" clip-path="url(#pea5b6361b1)" style="fill: none; stroke: #1f77b4; stroke-width: 1.5; stroke-linecap: square"/>
   </g>
   <g id="line2d_15">
    <path d="M 73.832727 134.783982 
L 74.482686 134.783982 
L 74.807666 133.343982 
L 75.132645 130.463982 
L 76.432563 130.463982 
L 76.757543 129.023982 
L 77.082523 129.023982 
L 77.407502 127.583982 
L 77.732482 127.583982 
L 78.057461 126.143982 
L 78.70742 126.143982 
L 79.0324 124.703982 
L 80.007338 124.703982 
L 80.332318 123.263982 
L 80.657297 123.263982 
L 80.982277 124.703982 
L 81.632236 124.703982 
L 81.957215 123.263982 
L 82.282195 123.263982 
L 82.932154 126.143982 
L 83.257133 126.143982 
L 83.582113 124.703982 
L 83.907093 126.143982 
L 84.232072 129.023982 
L 84.882031 129.023982 
L 85.207011 130.463982 
L 85.53199 130.463982 
L 86.181949 133.343982 
L 86.506929 136.223982 
L 86.831908 137.663982 
L 87.156888 137.663982 
L 87.481867 140.543982 
L 87.806847 141.983982 
L 88.131826 144.863982 
L 89.106765 149.183982 
L 89.431744 152.063982 
L 89.756724 153.503982 
L 90.406683 159.263982 
L 90.731663 159.263982 
L 92.35656 173.663982 
L 92.68154 175.103982 
L 93.006519 177.983982 
L 93.331499 179.423982 
L 93.981458 185.183982 
L 94.306437 189.503982 
L 95.281376 193.823982 
L 95.606355 198.143982 
L 95.931335 199.583982 
L 96.906274 208.223982 
L 97.231253 206.783982 
L 97.556233 209.663982 
L 97.881212 211.103982 
L 98.531171 216.863982 
L 98.856151 216.863982 
L 99.18113 219.743982 
L 99.50611 218.303982 
L 99.831089 219.743982 
L 100.156069 224.063982 
L 100.481048 224.063982 
L 100.806028 225.503982 
L 101.455987 225.503982 
L 101.780966 226.943982 
L 103.080885 226.943982 
L 104.380803 221.183982 
L 105.355741 221.183982 
L 105.680721 219.743982 
L 106.0057 219.743982 
L 106.33068 216.863982 
L 106.655659 216.863982 
L 106.980639 219.743982 
L 107.305618 219.743982 
L 107.630598 218.303982 
L 108.280557 218.303982 
L 108.605536 219.743982 
L 108.930516 222.623982 
L 109.905455 222.623982 
L 110.230434 221.183982 
L 111.205373 225.503982 
L 111.855332 222.623982 
L 112.180311 224.063982 
L 112.505291 224.063982 
L 113.15525 221.183982 
L 113.805209 221.183982 
L 114.455168 224.063982 
L 114.780147 224.063982 
L 115.105127 222.623982 
L 115.755086 222.623982 
L 116.405045 225.503982 
L 116.730025 222.623982 
L 117.379984 219.743982 
L 118.029943 222.623982 
L 118.354922 222.623982 
L 118.679902 224.063982 
L 119.329861 221.183982 
L 119.65484 222.623982 
L 119.97982 222.623982 
L 120.304799 224.063982 
L 120.629779 222.623982 
L 121.604717 222.623982 
L 121.929697 221.183982 
L 122.254676 222.623982 
L 122.579656 225.503982 
L 122.904636 224.063982 
L 123.229615 224.063982 
L 123.879574 221.183982 
L 124.529533 224.063982 
L 124.854513 224.063982 
L 125.179492 222.623982 
L 125.504472 224.063982 
L 125.829451 224.063982 
L 126.154431 222.623982 
L 126.47941 222.623982 
L 126.80439 224.063982 
L 127.129369 222.623982 
L 127.779328 222.623982 
L 128.104308 224.063982 
L 128.754267 224.063982 
L 129.079247 222.623982 
L 129.404226 222.623982 
L 129.729206 224.063982 
L 130.054185 222.623982 
L 130.379165 222.623982 
L 130.704144 224.063982 
L 131.354103 224.063982 
L 131.679083 225.503982 
L 132.004062 225.503982 
L 132.654021 222.623982 
L 132.979001 224.063982 
L 133.62896 224.063982 
L 133.953939 225.503982 
L 134.278919 225.503982 
L 134.603898 224.063982 
L 134.928878 225.503982 
L 135.253857 224.063982 
L 135.903817 224.063982 
L 136.228796 225.503982 
L 136.553776 222.623982 
L 137.203735 222.623982 
L 137.853694 212.543982 
L 138.503653 206.783982 
L 138.828632 205.343982 
L 139.478591 199.583982 
L 140.45353 183.743982 
L 140.778509 179.423982 
L 141.428468 176.543982 
L 141.753448 173.663982 
L 142.078428 167.903982 
L 142.403407 165.023982 
L 142.728387 157.823982 
L 143.378346 154.943982 
L 144.678264 143.423982 
L 145.003243 143.423982 
L 145.328223 141.983982 
L 146.303161 130.463982 
L 146.628141 131.903982 
L 146.95312 131.903982 
L 147.2781 133.343982 
L 148.253038 120.383982 
L 148.902998 123.263982 
L 149.227977 126.143982 
L 149.552957 123.263982 
L 149.877936 123.263982 
L 150.527895 120.383982 
L 151.502834 120.383982 
L 152.477772 124.703982 
L 152.802752 124.703982 
L 153.127731 121.823982 
L 153.452711 120.383982 
L 153.77769 121.823982 
L 154.10267 124.703982 
L 154.752629 127.583982 
L 155.077609 126.143982 
L 155.727568 126.143982 
L 156.052547 129.023982 
L 156.377527 127.583982 
L 156.702506 130.463982 
L 157.027486 131.903982 
L 157.352465 131.903982 
L 157.677445 133.343982 
L 158.002424 133.343982 
L 158.327404 131.903982 
L 158.977363 134.783982 
L 159.302342 139.103982 
L 159.627322 139.103982 
L 159.952301 136.223982 
L 160.277281 136.223982 
L 160.92724 139.103982 
L 161.577199 139.103982 
L 161.902179 140.543982 
L 162.552138 140.543982 
L 162.877117 141.983982 
L 163.202097 141.983982 
L 163.527076 140.543982 
L 163.852056 140.543982 
L 164.177035 141.983982 
L 164.502015 141.983982 
L 164.826994 143.423982 
L 165.476953 140.543982 
L 166.776871 140.543982 
L 167.101851 139.103982 
L 167.75181 139.103982 
L 168.07679 137.663982 
L 168.401769 139.103982 
L 168.726749 136.223982 
L 169.051728 134.783982 
L 169.376708 136.223982 
L 169.701687 136.223982 
L 170.351646 133.343982 
L 170.676626 133.343982 
L 171.001605 131.903982 
L 171.326585 131.903982 
L 171.651564 130.463982 
L 171.976544 131.903982 
L 172.626503 129.023982 
L 172.951482 126.143982 
L 173.276462 127.583982 
L 173.601441 127.583982 
L 173.926421 126.143982 
L 174.2514 127.583982 
L 174.57638 126.143982 
L 175.226339 126.143982 
L 175.876298 123.263982 
L 176.526257 123.263982 
L 176.851237 124.703982 
L 177.176216 123.263982 
L 178.476134 123.263982 
L 178.801114 126.143982 
L 179.126093 126.143982 
L 179.451073 124.703982 
L 180.101032 127.583982 
L 180.426011 127.583982 
L 181.075971 130.463982 
L 181.40095 130.463982 
L 183.675807 140.543982 
L 184.000786 144.863982 
L 184.975725 149.183982 
L 185.300704 152.063982 
L 185.625684 153.503982 
L 186.275643 159.263982 
L 186.925602 162.143982 
L 187.900541 170.783982 
L 188.22552 172.223982 
L 188.875479 177.983982 
L 189.200459 179.423982 
L 189.850418 185.183982 
L 190.500377 192.383982 
L 191.475315 196.703982 
L 191.800295 201.023982 
L 192.125274 202.463982 
L 192.450254 205.343982 
L 192.775233 206.783982 
L 193.100213 209.663982 
L 193.425192 208.223982 
L 193.750172 209.663982 
L 194.075152 215.423982 
L 194.400131 218.303982 
L 194.725111 216.863982 
L 195.05009 216.863982 
L 195.37507 219.743982 
L 196.025029 222.623982 
L 196.350008 225.503982 
L 197.324947 225.503982 
L 197.649926 226.943982 
L 197.974906 225.503982 
L 198.299885 228.383982 
L 198.624865 228.383982 
L 198.949844 226.943982 
L 199.274824 226.943982 
L 200.574742 221.183982 
L 200.899722 221.183982 
L 201.224701 219.743982 
L 201.549681 219.743982 
L 202.19964 216.863982 
L 202.524619 216.863982 
L 203.174578 219.743982 
L 203.499558 218.303982 
L 204.149517 218.303982 
L 204.474496 219.743982 
L 204.799476 222.623982 
L 205.449435 222.623982 
L 205.774414 221.183982 
L 206.099394 221.183982 
L 207.074333 225.503982 
L 207.399312 224.063982 
L 207.724292 224.063982 
L 208.049271 222.623982 
L 208.374251 222.623982 
L 208.69923 224.063982 
L 209.02421 221.183982 
L 209.349189 222.623982 
L 209.674169 222.623982 
L 209.999148 224.063982 
L 210.649107 224.063982 
L 210.974087 222.623982 
L 211.299066 224.063982 
L 211.949025 224.063982 
L 212.274005 225.503982 
L 212.598984 222.623982 
L 213.248943 219.743982 
L 214.223882 224.063982 
L 214.548862 222.623982 
L 215.198821 222.623982 
L 215.5238 221.183982 
L 216.498739 225.503982 
L 216.823718 222.623982 
L 217.148698 222.623982 
L 217.473677 221.183982 
L 218.123636 224.063982 
L 219.098575 224.063982 
L 219.423554 221.183982 
L 219.748534 222.623982 
L 220.073514 222.623982 
L 220.398493 224.063982 
L 220.723473 222.623982 
L 222.34837 222.623982 
L 222.67335 224.063982 
L 223.648288 224.063982 
L 223.973268 222.623982 
L 224.298247 224.063982 
L 225.598165 224.063982 
L 225.923145 222.623982 
L 226.248124 222.623982 
L 226.573104 224.063982 
L 227.873022 224.063982 
L 228.198002 222.623982 
L 228.522981 224.063982 
L 228.847961 222.623982 
L 229.17294 222.623982 
L 229.49792 224.063982 
L 230.797838 224.063982 
L 231.122817 222.623982 
L 231.447797 222.623982 
L 231.772776 225.503982 
L 232.097756 224.063982 
L 232.747715 224.063982 
L 233.397674 218.303982 
L 234.372613 206.783982 
L 234.697592 205.343982 
L 235.022572 202.463982 
L 235.99751 188.063982 
L 236.32249 182.303982 
L 236.647469 179.423982 
L 236.972449 177.983982 
L 237.297428 179.423982 
L 238.272367 163.583982 
L 238.922326 156.383982 
L 239.247305 153.503982 
L 239.572285 152.063982 
L 239.897265 149.183982 
L 240.222244 144.863982 
L 240.547224 143.423982 
L 240.872203 143.423982 
L 241.197183 141.983982 
L 242.172121 130.463982 
L 242.497101 130.463982 
L 243.14706 133.343982 
L 244.121998 121.823982 
L 244.446978 121.823982 
L 244.771957 123.263982 
L 245.096937 126.143982 
L 245.421916 124.703982 
L 245.746896 121.823982 
L 246.071876 121.823982 
L 246.721835 118.943982 
L 247.046814 120.383982 
L 247.371794 118.943982 
L 247.696773 121.823982 
L 248.021753 123.263982 
L 248.346732 121.823982 
L 248.671712 123.263982 
L 248.996691 121.823982 
L 249.321671 121.823982 
L 249.97163 124.703982 
L 250.296609 127.583982 
L 250.946568 127.583982 
L 251.271548 124.703982 
L 251.596527 127.583982 
L 251.921507 126.143982 
L 252.246486 129.023982 
L 252.896446 131.903982 
L 253.221425 131.903982 
L 253.546405 133.343982 
L 253.871384 131.903982 
L 254.521343 134.783982 
L 254.846323 137.663982 
L 255.171302 137.663982 
L 255.496282 139.103982 
L 255.821261 136.223982 
L 256.146241 137.663982 
L 256.47122 137.663982 
L 256.7962 139.103982 
L 257.121179 139.103982 
L 257.771138 141.983982 
L 258.096118 141.983982 
L 258.421097 140.543982 
L 258.746077 141.983982 
L 259.071057 140.543982 
L 259.396036 140.543982 
L 259.721016 141.983982 
L 260.045995 140.543982 
L 260.695954 143.423982 
L 261.020934 143.423982 
L 261.345913 139.103982 
L 261.995872 141.983982 
L 262.320852 141.983982 
L 262.645831 140.543982 
L 262.970811 140.543982 
L 263.29579 139.103982 
L 263.62077 139.103982 
L 263.945749 137.663982 
L 264.270729 137.663982 
L 264.595708 136.223982 
L 264.920688 136.223982 
L 265.245667 134.783982 
L 266.220606 134.783982 
L 266.545586 133.343982 
L 266.870565 133.343982 
L 267.520524 130.463982 
L 268.495463 130.463982 
L 268.820442 127.583982 
L 269.145422 126.143982 
L 269.470401 127.583982 
L 270.44534 127.583982 
L 270.770319 124.703982 
L 271.095299 126.143982 
L 271.745258 123.263982 
L 272.070238 124.703982 
L 272.395217 124.703982 
L 272.720197 123.263982 
L 273.045176 124.703982 
L 273.370156 124.703982 
L 273.695135 123.263982 
L 274.020115 124.703982 
L 274.345094 123.263982 
L 274.995053 126.143982 
L 275.320033 126.143982 
L 275.645012 127.583982 
L 275.969992 127.583982 
L 276.619951 130.463982 
L 276.94493 130.463982 
L 277.594889 133.343982 
L 277.919869 131.903982 
L 278.569828 139.103982 
L 279.219787 139.103982 
L 279.544767 143.423982 
L 279.869746 143.423982 
L 280.194726 146.303982 
L 281.169664 150.623982 
L 281.819623 156.383982 
L 282.144603 157.823982 
L 282.794562 163.583982 
L 283.119541 165.023982 
L 283.444521 167.903982 
L 284.09448 175.103982 
L 284.419459 175.103982 
L 286.044357 189.503982 
L 286.369337 190.943982 
L 286.694316 193.823982 
L 287.344275 196.703982 
L 287.994234 203.903982 
L 288.969173 208.223982 
L 289.294152 208.223982 
L 289.944111 213.983982 
L 290.269091 218.303982 
L 291.244029 218.303982 
L 291.893989 224.063982 
L 292.218968 224.063982 
L 292.868927 226.943982 
L 293.193907 225.503982 
L 293.518886 225.503982 
L 293.843866 226.943982 
L 294.818804 226.943982 
L 295.143784 225.503982 
L 295.468763 225.503982 
L 295.793743 224.063982 
L 296.118722 224.063982 
L 296.443702 221.183982 
L 297.093661 221.183982 
L 297.41864 218.303982 
L 297.74362 218.303982 
L 298.0686 216.863982 
L 298.393579 216.863982 
L 298.718559 218.303982 
L 299.043538 221.183982 
L 299.693497 218.303982 
L 300.018477 218.303982 
L 300.993415 222.623982 
L 301.318395 221.183982 
L 301.643374 222.623982 
L 302.293333 222.623982 
L 302.618313 224.063982 
L 302.943292 222.623982 
L 303.268272 224.063982 
L 303.593251 224.063982 
L 303.918231 222.623982 
L 304.89317 222.623982 
L 305.218149 221.183982 
L 305.543129 221.183982 
L 305.868108 222.623982 
L 306.193088 222.623982 
L 306.518067 224.063982 
L 306.843047 221.183982 
L 307.168026 222.623982 
L 307.493006 222.623982 
L 307.817985 224.063982 
L 308.142965 224.063982 
L 308.792924 221.183982 
L 309.442883 221.183982 
L 310.092842 224.063982 
L 310.417821 224.063982 
L 311.067781 221.183982 
L 311.39276 221.183982 
L 311.71774 224.063982 
L 312.367699 224.063982 
L 313.017658 221.183982 
L 313.342637 222.623982 
L 313.667617 222.623982 
L 313.992596 225.503982 
L 314.317576 224.063982 
L 314.642555 224.063982 
L 314.967535 222.623982 
L 315.942473 222.623982 
L 316.267453 224.063982 
L 316.592432 222.623982 
L 316.917412 224.063982 
L 317.567371 224.063982 
L 317.892351 222.623982 
L 318.21733 224.063982 
L 318.54231 222.623982 
L 318.867289 222.623982 
L 319.192269 225.503982 
L 319.842228 222.623982 
L 320.167207 222.623982 
L 320.492187 224.063982 
L 320.817166 224.063982 
L 321.142146 222.623982 
L 321.792105 222.623982 
L 322.117084 224.063982 
L 324.066962 224.063982 
L 324.391941 225.503982 
L 324.716921 224.063982 
L 325.36688 224.063982 
L 325.691859 225.503982 
L 326.016839 224.063982 
L 326.991777 224.063982 
L 327.316757 225.503982 
L 327.641736 225.503982 
L 328.616675 221.183982 
L 328.941654 221.183982 
L 329.266634 218.303982 
L 330.241572 206.783982 
L 331.216511 198.143982 
L 332.19145 182.303982 
L 332.516429 179.423982 
L 333.166388 176.543982 
L 333.491368 173.663982 
L 334.141327 162.143982 
L 334.466306 159.263982 
L 334.791286 157.823982 
L 335.116265 153.503982 
L 335.441245 152.063982 
L 336.416183 143.423982 
L 337.066143 140.543982 
L 338.041081 129.023982 
L 338.366061 129.023982 
L 338.69104 131.903982 
L 339.01602 131.903982 
L 339.990958 120.383982 
L 340.315938 120.383982 
L 340.640917 123.263982 
L 340.965897 124.703982 
L 341.615856 121.823982 
L 341.940835 118.943982 
L 342.265815 120.383982 
L 342.915774 120.383982 
L 343.240753 118.943982 
L 343.565733 120.383982 
L 343.890713 124.703982 
L 344.540672 121.823982 
L 345.51561 121.823982 
L 346.490549 126.143982 
L 347.465487 126.143982 
L 348.440426 130.463982 
L 348.765405 130.463982 
L 349.090385 131.903982 
L 350.065324 131.903982 
L 350.390303 134.783982 
L 351.040262 137.663982 
L 351.365242 137.663982 
L 351.690221 139.103982 
L 352.34018 136.223982 
L 352.66516 139.103982 
L 352.990139 140.543982 
L 353.315119 139.103982 
L 353.965078 139.103982 
L 354.290057 141.983982 
L 354.615037 141.983982 
L 354.940016 140.543982 
L 355.264996 141.983982 
L 355.589975 141.983982 
L 355.914955 139.103982 
L 356.239934 140.543982 
L 356.564914 143.423982 
L 357.214873 140.543982 
L 358.514791 140.543982 
L 358.839771 139.103982 
L 359.48973 139.103982 
L 359.814709 137.663982 
L 360.139689 137.663982 
L 360.464668 136.223982 
L 360.789648 136.223982 
L 361.114627 134.783982 
L 362.089566 134.783982 
L 362.414545 131.903982 
L 362.739525 130.463982 
L 364.364423 130.463982 
L 365.014382 127.583982 
L 365.339361 127.583982 
L 365.664341 126.143982 
L 365.98932 127.583982 
L 366.3143 124.703982 
L 366.639279 124.703982 
L 366.964259 126.143982 
L 367.289238 124.703982 
L 367.614218 124.703982 
L 367.939197 123.263982 
L 368.264177 123.263982 
L 368.589156 124.703982 
L 369.239115 124.703982 
L 369.564095 123.263982 
L 369.889075 124.703982 
L 370.539034 124.703982 
L 370.864013 126.143982 
L 371.513972 126.143982 
L 372.163931 129.023982 
L 373.13887 129.023982 
L 373.788829 134.783982 
L 374.438788 137.663982 
L 374.763767 137.663982 
L 375.088747 140.543982 
L 375.413726 141.983982 
L 375.738706 141.983982 
L 376.388665 147.743982 
L 376.713645 149.183982 
L 377.688583 157.823982 
L 378.013563 157.823982 
L 378.338542 159.263982 
L 378.663522 163.583982 
L 378.988501 165.023982 
L 380.288419 176.543982 
L 380.938378 179.423982 
L 381.263358 182.303982 
L 381.588337 186.623982 
L 381.913317 188.063982 
L 382.563276 193.823982 
L 383.213235 196.703982 
L 383.538215 199.583982 
L 384.188174 206.783982 
L 384.513153 208.223982 
L 384.838133 208.223982 
L 385.163112 211.103982 
L 385.813071 213.983982 
L 386.138051 216.863982 
L 386.46303 218.303982 
L 387.112989 218.303982 
L 387.762948 224.063982 
L 388.412907 226.943982 
L 388.737887 225.503982 
L 389.062867 225.503982 
L 389.387846 226.943982 
L 389.712826 226.943982 
L 390.037805 228.383982 
L 390.362785 226.943982 
L 390.687764 226.943982 
L 391.337723 224.063982 
L 391.662703 224.063982 
L 392.312662 221.183982 
L 392.962621 221.183982 
L 393.61258 218.303982 
L 393.937559 215.423982 
L 394.262539 218.303982 
L 394.912498 221.183982 
L 395.562457 218.303982 
L 395.887437 218.303982 
L 396.212416 219.743982 
L 396.537396 222.623982 
L 397.187355 222.623982 
L 397.512334 219.743982 
L 397.837314 221.183982 
L 398.162293 225.503982 
L 398.487273 225.503982 
L 398.487273 225.503982 
" clip-path="url(#pea5b6361b1)" style="fill: none; stroke: #ff7f0e; stroke-width: 1.5; stroke-linecap: square"/>
   </g>
   <g id="line2d_16">
    <path d="M 73.832727 122.688 
L 74.157707 125.568 
L 74.807666 139.968 
L 75.132645 137.088 
L 75.782604 151.488 
L 76.432563 157.248 
L 76.757543 163.008 
L 77.407502 177.408 
L 77.732482 177.408 
L 78.057461 186.048 
L 78.382441 188.928 
L 78.70742 197.568 
L 79.0324 200.448 
L 80.007338 217.728 
L 80.657297 223.488 
L 80.982277 232.128 
L 81.957215 240.768 
L 82.607174 252.288 
L 82.932154 249.408 
L 83.582113 263.808 
L 83.907093 263.808 
L 84.882031 272.448 
L 85.207011 278.208 
L 85.53199 275.328 
L 86.181949 281.088 
L 86.831908 281.088 
L 87.481867 286.848 
L 87.806847 292.608 
L 88.131826 286.848 
L 88.456806 292.608 
L 88.781785 289.728 
L 89.106765 292.608 
L 89.756724 292.608 
L 90.081704 289.728 
L 90.406683 292.608 
L 90.731663 283.968 
L 91.056642 289.728 
L 91.381622 289.728 
L 92.031581 283.968 
L 92.35656 286.848 
L 92.68154 281.088 
L 93.006519 278.208 
L 93.331499 272.448 
L 93.656478 278.208 
L 95.606355 260.928 
L 96.256314 249.408 
L 96.581294 249.408 
L 97.231253 237.888 
L 97.556233 235.008 
L 97.881212 229.248 
L 98.206192 229.248 
L 98.531171 220.608 
L 98.856151 220.608 
L 99.18113 214.848 
L 99.831089 209.088 
L 100.156069 200.448 
L 100.481048 200.448 
L 100.806028 194.688 
L 101.455987 180.288 
L 101.780966 177.408 
L 102.430925 165.888 
L 102.755905 165.888 
L 103.080885 163.008 
L 103.405864 157.248 
L 104.055823 142.848 
L 104.380803 137.088 
L 105.355741 128.448 
L 105.680721 122.688 
L 106.0057 119.808 
L 106.33068 111.168 
L 106.655659 111.168 
L 106.980639 108.288 
L 107.630598 96.768 
L 108.280557 91.008 
L 108.605536 91.008 
L 110.555414 73.728 
L 111.205373 73.728 
L 111.855332 67.968 
L 112.180311 70.848 
L 112.505291 67.968 
L 112.83027 62.208 
L 113.15525 67.968 
L 113.805209 67.968 
L 114.130188 65.088 
L 114.455168 67.968 
L 114.780147 67.968 
L 115.105127 70.848 
L 115.755086 70.848 
L 116.080066 76.608 
L 116.405045 73.728 
L 117.055004 73.728 
L 117.379984 79.488 
L 118.029943 85.248 
L 118.354922 85.248 
L 118.679902 91.008 
L 119.004881 93.888 
L 119.329861 91.008 
L 119.65484 99.648 
L 119.97982 99.648 
L 120.629779 111.168 
L 120.954758 114.048 
L 121.279738 119.808 
L 121.929697 125.568 
L 122.254676 131.328 
L 122.904636 137.088 
L 124.204554 160.128 
L 124.529533 157.248 
L 124.854513 168.768 
L 125.179492 168.768 
L 125.829451 183.168 
L 126.154431 186.048 
L 126.80439 197.568 
L 127.129369 194.688 
L 127.779328 211.968 
L 128.429287 217.728 
L 129.079247 229.248 
L 129.404226 232.128 
L 129.729206 232.128 
L 130.054185 240.768 
L 131.679083 255.168 
L 132.004062 260.928 
L 132.329042 260.928 
L 133.30398 269.568 
L 133.62896 269.568 
L 133.953939 275.328 
L 134.278919 278.208 
L 134.603898 278.208 
L 134.928878 275.328 
L 135.253857 281.088 
L 135.578837 281.088 
L 135.903817 286.848 
L 136.228796 286.848 
L 136.553776 283.968 
L 137.203735 289.728 
L 137.528714 283.968 
L 137.853694 283.968 
L 138.178673 286.848 
L 138.503653 286.848 
L 138.828632 283.968 
L 139.153612 286.848 
L 139.478591 283.968 
L 139.803571 283.968 
L 140.12855 275.328 
L 140.45353 278.208 
L 140.778509 275.328 
L 141.428468 275.328 
L 142.078428 269.568 
L 142.403407 269.568 
L 143.053366 258.048 
L 143.378346 258.048 
L 144.028305 246.528 
L 144.353284 246.528 
L 144.678264 249.408 
L 145.003243 243.648 
L 145.328223 232.128 
L 145.653202 232.128 
L 145.978182 226.368 
L 146.303161 226.368 
L 146.628141 217.728 
L 147.603079 209.088 
L 148.253038 194.688 
L 148.578018 191.808 
L 148.902998 186.048 
L 149.227977 177.408 
L 149.552957 177.408 
L 150.202916 165.888 
L 150.527895 157.248 
L 150.852875 157.248 
L 151.502834 145.728 
L 152.152793 139.968 
L 152.477772 131.328 
L 152.802752 128.448 
L 153.452711 116.928 
L 153.77769 116.928 
L 154.10267 111.168 
L 154.427649 102.528 
L 154.752629 105.408 
L 155.727568 88.128 
L 156.052547 88.128 
L 156.377527 82.368 
L 156.702506 82.368 
L 157.027486 79.488 
L 157.352465 73.728 
L 157.677445 70.848 
L 158.002424 73.728 
L 158.327404 65.088 
L 158.652383 65.088 
L 158.977363 67.968 
L 159.627322 56.448 
L 159.952301 59.328 
L 160.277281 59.328 
L 160.60226 62.208 
L 160.92724 56.448 
L 161.252219 62.208 
L 161.577199 56.448 
L 161.902179 59.328 
L 162.227158 59.328 
L 162.552138 56.448 
L 163.202097 62.208 
L 163.527076 59.328 
L 163.852056 65.088 
L 164.177035 67.968 
L 164.502015 65.088 
L 164.826994 67.968 
L 165.151974 73.728 
L 165.476953 76.608 
L 165.801933 82.368 
L 166.126912 76.608 
L 166.451892 82.368 
L 166.776871 85.248 
L 167.101851 91.008 
L 167.42683 93.888 
L 167.75181 99.648 
L 168.401769 105.408 
L 168.726749 105.408 
L 169.376708 119.808 
L 169.701687 119.808 
L 170.026667 128.448 
L 170.351646 131.328 
L 170.676626 139.968 
L 171.001605 142.848 
L 171.326585 142.848 
L 171.651564 154.368 
L 172.301523 160.128 
L 172.626503 165.888 
L 173.276462 180.288 
L 174.2514 188.928 
L 174.90136 203.328 
L 175.226339 203.328 
L 175.876298 217.728 
L 176.201278 223.488 
L 176.526257 220.608 
L 176.851237 232.128 
L 177.176216 235.008 
L 177.501196 240.768 
L 178.476134 249.408 
L 178.801114 255.168 
L 179.126093 252.288 
L 179.776052 266.688 
L 180.101032 266.688 
L 181.40095 278.208 
L 181.72593 278.208 
L 182.050909 283.968 
L 182.700868 283.968 
L 183.675807 292.608 
L 184.000786 292.608 
L 184.325766 289.728 
L 184.650745 292.608 
L 185.300704 292.608 
L 185.625684 289.728 
L 185.950663 292.608 
L 186.600622 292.608 
L 186.925602 283.968 
L 187.250581 289.728 
L 187.575561 286.848 
L 187.900541 286.848 
L 188.22552 283.968 
L 188.5505 283.968 
L 189.850418 272.448 
L 190.175397 272.448 
L 190.500377 269.568 
L 190.825356 263.808 
L 191.150336 263.808 
L 191.800295 258.048 
L 192.125274 246.528 
L 192.450254 249.408 
L 192.775233 243.648 
L 193.100213 240.768 
L 193.425192 235.008 
L 193.750172 232.128 
L 194.075152 226.368 
L 194.400131 226.368 
L 194.725111 217.728 
L 195.37507 211.968 
L 195.700049 206.208 
L 196.025029 197.568 
L 196.350008 197.568 
L 196.674988 194.688 
L 196.999967 188.928 
L 197.324947 177.408 
L 197.649926 177.408 
L 197.974906 171.648 
L 198.299885 168.768 
L 198.624865 163.008 
L 199.274824 157.248 
L 199.599803 151.488 
L 200.249762 137.088 
L 200.574742 137.088 
L 200.899722 131.328 
L 201.224701 128.448 
L 201.87466 116.928 
L 202.19964 116.928 
L 202.524619 111.168 
L 203.499558 102.528 
L 203.824537 96.768 
L 206.424373 73.728 
L 207.074333 73.728 
L 207.724292 67.968 
L 208.049271 70.848 
L 208.374251 67.968 
L 209.02421 67.968 
L 209.349189 65.088 
L 209.674169 67.968 
L 209.999148 67.968 
L 210.324128 65.088 
L 210.974087 70.848 
L 211.299066 70.848 
L 211.624046 67.968 
L 212.598984 76.608 
L 212.923964 73.728 
L 213.248943 79.488 
L 213.898903 85.248 
L 214.223882 85.248 
L 214.548862 91.008 
L 214.873841 93.888 
L 215.198821 99.648 
L 215.5238 96.768 
L 216.173759 111.168 
L 216.823718 111.168 
L 217.148698 119.808 
L 217.473677 122.688 
L 217.798657 128.448 
L 218.123636 125.568 
L 218.448616 134.208 
L 218.773595 137.088 
L 219.748534 154.368 
L 220.073514 157.248 
L 220.398493 163.008 
L 220.723473 163.008 
L 221.373432 177.408 
L 222.023391 183.168 
L 222.67335 194.688 
L 222.998329 203.328 
L 223.323309 200.448 
L 223.648288 209.088 
L 223.973268 211.968 
L 224.298247 220.608 
L 224.948206 226.368 
L 225.598165 237.888 
L 225.923145 237.888 
L 226.573104 249.408 
L 226.898084 249.408 
L 227.548043 255.168 
L 227.873022 260.928 
L 228.198002 263.808 
L 228.522981 260.928 
L 229.17294 272.448 
L 229.49792 275.328 
L 229.822899 275.328 
L 230.147879 278.208 
L 230.472858 278.208 
L 230.797838 281.088 
L 231.122817 278.208 
L 231.447797 283.968 
L 232.422735 283.968 
L 232.747715 286.848 
L 233.397674 286.848 
L 233.722654 283.968 
L 234.047633 286.848 
L 234.697592 286.848 
L 235.022572 283.968 
L 235.672531 283.968 
L 235.99751 281.088 
L 236.32249 275.328 
L 236.972449 275.328 
L 237.297428 269.568 
L 237.622408 272.448 
L 237.947387 269.568 
L 238.272367 263.808 
L 238.597346 263.808 
L 238.922326 258.048 
L 239.247305 258.048 
L 239.572285 252.288 
L 239.897265 252.288 
L 240.222244 249.408 
L 240.547224 243.648 
L 240.872203 243.648 
L 241.197183 237.888 
L 241.522162 229.248 
L 241.847142 229.248 
L 242.172121 226.368 
L 242.497101 217.728 
L 242.82208 214.848 
L 243.14706 209.088 
L 243.472039 206.208 
L 243.797019 200.448 
L 244.121998 191.808 
L 244.446978 191.808 
L 244.771957 186.048 
L 245.096937 183.168 
L 246.071876 165.888 
L 246.396855 163.008 
L 246.721835 151.488 
L 247.046814 151.488 
L 247.371794 148.608 
L 248.021753 134.208 
L 248.671712 128.448 
L 249.321671 116.928 
L 249.64665 116.928 
L 249.97163 111.168 
L 250.296609 108.288 
L 250.621589 102.528 
L 250.946568 99.648 
L 251.271548 93.888 
L 251.596527 91.008 
L 251.921507 85.248 
L 252.246486 82.368 
L 252.571466 82.368 
L 252.896446 76.608 
L 253.221425 73.728 
L 253.546405 73.728 
L 254.196364 67.968 
L 254.521343 62.208 
L 254.846323 65.088 
L 255.171302 59.328 
L 255.496282 62.208 
L 255.821261 59.328 
L 257.771138 59.328 
L 258.096118 56.448 
L 258.421097 59.328 
L 258.746077 59.328 
L 259.396036 65.088 
L 259.721016 62.208 
L 260.045995 67.968 
L 260.370975 65.088 
L 260.695954 70.848 
L 261.020934 70.848 
L 261.670893 76.608 
L 261.995872 82.368 
L 262.320852 82.368 
L 262.645831 85.248 
L 262.970811 91.008 
L 263.29579 91.008 
L 263.62077 96.768 
L 264.270729 102.528 
L 264.595708 111.168 
L 264.920688 111.168 
L 265.245667 116.928 
L 265.570647 119.808 
L 267.195545 148.608 
L 267.520524 148.608 
L 267.845504 154.368 
L 268.170483 163.008 
L 268.495463 163.008 
L 268.820442 168.768 
L 269.470401 183.168 
L 269.795381 186.048 
L 270.12036 186.048 
L 270.44534 197.568 
L 270.770319 200.448 
L 271.095299 206.208 
L 271.420278 209.088 
L 272.395217 226.368 
L 272.720197 226.368 
L 273.695135 243.648 
L 274.020115 246.528 
L 274.345094 252.288 
L 274.670074 255.168 
L 275.320033 255.168 
L 275.645012 263.808 
L 276.619951 272.448 
L 276.94493 278.208 
L 277.26991 278.208 
L 277.594889 281.088 
L 277.919869 281.088 
L 278.569828 286.848 
L 278.894808 283.968 
L 279.869746 292.608 
L 280.194726 292.608 
L 280.519705 286.848 
L 280.844685 292.608 
L 281.169664 292.608 
L 281.494644 295.488 
L 281.819623 289.728 
L 282.144603 292.608 
L 282.469582 289.728 
L 282.794562 289.728 
L 283.119541 283.968 
L 283.444521 283.968 
L 283.7695 286.848 
L 284.09448 281.088 
L 284.744439 281.088 
L 285.069419 278.208 
L 285.394398 278.208 
L 285.719378 269.568 
L 286.044357 272.448 
L 286.694316 266.688 
L 287.019296 260.928 
L 287.344275 258.048 
L 287.669255 258.048 
L 287.994234 255.168 
L 288.319214 243.648 
L 288.969173 243.648 
L 289.294152 237.888 
L 289.944111 223.488 
L 290.269091 223.488 
L 290.59407 220.608 
L 290.91905 211.968 
L 291.569009 206.208 
L 292.218968 194.688 
L 292.543948 194.688 
L 292.868927 188.928 
L 293.193907 186.048 
L 293.518886 174.528 
L 293.843866 168.768 
L 294.168845 168.768 
L 294.818804 157.248 
L 295.143784 157.248 
L 295.793743 145.728 
L 296.118722 137.088 
L 296.443702 137.088 
L 296.768681 131.328 
L 297.093661 131.328 
L 297.74362 116.928 
L 298.0686 111.168 
L 298.393579 114.048 
L 298.718559 105.408 
L 299.043538 102.528 
L 299.368518 102.528 
L 300.018477 91.008 
L 300.343456 91.008 
L 300.993415 85.248 
L 301.318395 79.488 
L 301.643374 79.488 
L 301.968354 73.728 
L 302.618313 73.728 
L 302.943292 70.848 
L 303.268272 70.848 
L 303.593251 73.728 
L 303.918231 65.088 
L 304.24321 65.088 
L 304.56819 67.968 
L 304.89317 65.088 
L 305.218149 65.088 
L 305.543129 67.968 
L 305.868108 65.088 
L 306.193088 65.088 
L 306.518067 62.208 
L 306.843047 67.968 
L 307.168026 67.968 
L 307.817985 73.728 
L 308.142965 70.848 
L 308.792924 76.608 
L 309.117903 73.728 
L 309.767862 85.248 
L 310.417821 85.248 
L 310.742801 93.888 
L 311.39276 99.648 
L 311.71774 99.648 
L 312.042719 108.288 
L 312.367699 108.288 
L 313.017658 119.808 
L 313.342637 122.688 
L 313.992596 134.208 
L 314.317576 131.328 
L 314.642555 137.088 
L 314.967535 145.728 
L 315.617494 151.488 
L 315.942473 157.248 
L 316.267453 160.128 
L 316.592432 165.888 
L 316.917412 168.768 
L 317.567371 180.288 
L 317.892351 188.928 
L 318.54231 194.688 
L 319.192269 206.208 
L 319.517248 206.208 
L 320.167207 220.608 
L 320.492187 220.608 
L 320.817166 223.488 
L 321.142146 229.248 
L 321.467125 237.888 
L 321.792105 240.768 
L 322.117084 235.008 
L 322.442064 246.528 
L 322.767043 246.528 
L 323.092023 252.288 
L 323.741982 258.048 
L 324.066962 263.808 
L 324.391941 266.688 
L 324.716921 263.808 
L 325.0419 269.568 
L 326.341818 281.088 
L 326.666798 281.088 
L 326.991777 283.968 
L 327.316757 278.208 
L 327.641736 286.848 
L 327.966716 283.968 
L 328.291695 283.968 
L 328.616675 286.848 
L 328.941654 286.848 
L 329.266634 283.968 
L 329.591613 286.848 
L 329.916593 283.968 
L 330.241572 286.848 
L 330.566552 286.848 
L 331.216511 281.088 
L 331.86647 281.088 
L 332.19145 278.208 
L 332.516429 272.448 
L 332.841409 275.328 
L 333.166388 272.448 
L 333.491368 272.448 
L 333.816347 266.688 
L 334.141327 266.688 
L 334.466306 263.808 
L 334.791286 263.808 
L 335.441245 249.408 
L 335.766224 252.288 
L 336.091204 246.528 
L 336.416183 237.888 
L 336.741163 237.888 
L 337.391122 232.128 
L 337.716102 220.608 
L 338.041081 223.488 
L 338.366061 217.728 
L 339.01602 211.968 
L 340.315938 188.928 
L 340.640917 186.048 
L 341.615856 168.768 
L 341.940835 168.768 
L 342.265815 160.128 
L 342.590794 157.248 
L 342.915774 148.608 
L 343.240753 148.608 
L 343.890713 137.088 
L 344.215692 134.208 
L 344.865651 122.688 
L 345.190631 119.808 
L 345.51561 111.168 
L 345.84059 108.288 
L 346.165569 108.288 
L 346.815528 96.768 
L 347.140508 96.768 
L 347.465487 91.008 
L 347.790467 88.128 
L 348.115446 82.368 
L 348.440426 82.368 
L 350.065324 67.968 
L 350.390303 67.968 
L 350.715283 62.208 
L 351.040262 65.088 
L 351.365242 65.088 
L 351.690221 59.328 
L 352.015201 56.448 
L 352.34018 62.208 
L 353.315119 53.568 
L 353.640098 59.328 
L 353.965078 56.448 
L 354.290057 62.208 
L 354.615037 62.208 
L 354.940016 59.328 
L 355.589975 65.088 
L 355.914955 65.088 
L 356.564914 70.848 
L 357.214873 70.848 
L 357.864832 82.368 
L 358.189812 85.248 
L 358.514791 85.248 
L 358.839771 91.008 
L 359.16475 93.888 
L 359.48973 99.648 
L 360.464668 108.288 
L 360.789648 114.048 
L 361.114627 116.928 
L 361.764586 128.448 
L 362.089566 131.328 
L 362.414545 131.328 
L 362.739525 142.848 
L 363.064505 148.608 
L 363.714464 154.368 
L 364.039443 160.128 
L 364.364423 163.008 
L 365.014382 177.408 
L 365.339361 180.288 
L 365.98932 194.688 
L 366.3143 194.688 
L 366.964259 206.208 
L 367.289238 209.088 
L 367.614218 214.848 
L 367.939197 223.488 
L 368.264177 226.368 
L 368.589156 232.128 
L 368.914136 229.248 
L 369.564095 243.648 
L 370.539034 252.288 
L 370.864013 258.048 
L 371.513972 263.808 
L 371.838952 263.808 
L 372.163931 272.448 
L 372.81389 272.448 
L 373.13887 278.208 
L 373.788829 283.968 
L 374.113808 281.088 
L 374.438788 283.968 
L 374.763767 289.728 
L 375.088747 289.728 
L 375.413726 286.848 
L 375.738706 286.848 
L 376.388665 292.608 
L 376.713645 286.848 
L 377.038624 289.728 
L 377.363604 295.488 
L 377.688583 289.728 
L 378.013563 289.728 
L 378.338542 292.608 
L 378.663522 292.608 
L 378.988501 289.728 
L 379.313481 281.088 
L 379.63846 283.968 
L 380.288419 283.968 
L 381.913317 269.568 
L 382.563276 269.568 
L 383.213235 255.168 
L 383.538215 255.168 
L 384.188174 249.408 
L 384.513153 240.768 
L 384.838133 240.768 
L 385.163112 237.888 
L 385.813071 226.368 
L 386.138051 223.488 
L 386.46303 217.728 
L 386.78801 214.848 
L 387.112989 206.208 
L 387.437969 203.328 
L 387.762948 203.328 
L 388.412907 188.928 
L 388.737887 186.048 
L 389.062867 180.288 
L 389.387846 177.408 
L 389.712826 165.888 
L 390.037805 168.768 
L 390.362785 163.008 
L 390.687764 160.128 
L 391.012744 154.368 
L 391.337723 151.488 
L 391.662703 142.848 
L 391.987682 139.968 
L 392.312662 134.208 
L 392.962621 128.448 
L 393.61258 114.048 
L 393.937559 114.048 
L 394.262539 111.168 
L 394.587518 111.168 
L 394.912498 102.528 
L 397.512334 79.488 
L 397.837314 79.488 
L 398.487273 73.728 
L 398.487273 73.728 
" clip-path="url(#pea5b6361b1)" style="fill: none; stroke: #2ca02c; stroke-width: 1.5; stroke-linecap: square"/>
   </g>
   <g id="patch_3">
    <path d="M 57.6 307.584 
L 57.6 41.472 
" style="fill: none; stroke: #000000; stroke-width: 0.8; stroke-linejoin: miter; stroke-linecap: square"/>
   </g>
   <g id="patch_4">
    <path d="M 414.72 307.584 
L 414.72 41.472 
" style="fill: none; stroke: #000000; stroke-width: 0.8; stroke-linejoin: miter; stroke-linecap: square"/>
   </g>
   <g id="patch_5">
    <path d="M 57.6 307.584 
L 414.72 307.584 
" style="fill: none; stroke: #000000; stroke-width: 0.8; stroke-linejoin: miter; stroke-linecap: square"/>
   </g>
   <g id="patch_6">
    <path d="M 57.6 41.472 
L 414.72 41.472 
" style="fill: none; stroke: #000000; stroke-width: 0.8; stroke-linejoin: miter; stroke-linecap: square"/>
   </g>
  </g>
 </g>
 <defs>
  <clipPath id="pea5b6361b1">
   <rect x="57.6" y="41.472" width="357.12" height="266.112"/>
  </clipPath>
 </defs>
</svg>
