<?xml version="1.0" encoding="utf-8" standalone="no"?>
<!DOCTYPE svg PUBLIC "-//W3C//DTD SVG 1.1//EN"
  "http://www.w3.org/Graphics/SVG/1.1/DTD/svg11.dtd">
<svg xmlns:xlink="http://www.w3.org/1999/xlink" width="460.8pt" height="345.6pt" viewBox="0 0 460.8 345.6" xmlns="http://www.w3.org/2000/svg" version="1.1">
 <metadata>
  <rdf:RDF xmlns:dc="http://purl.org/dc/elements/1.1/" xmlns:cc="http://creativecommons.org/ns#" xmlns:rdf="http://www.w3.org/1999/02/22-rdf-syntax-ns#">
   <cc:Work>
    <dc:type rdf:resource="http://purl.org/dc/dcmitype/StillImage"/>
    <dc:date>2025-12-29T10:38:56.056630</dc:date>
    <dc:format>image/svg+xml</dc:format>
    <dc:creator>
     <cc:Agent>
      <dc:title>Matplotlib v3.10.8, https://matplotlib.org/</dc:title>
     </cc:Agent>
    </dc:creator>
   </cc:Work>
  </rdf:RDF>
 </metadata>
 <defs>
  <style type="text/css">*{stroke-linejoin: round; stroke-linecap: butt}</style>
 </defs>
 <g id="figure_1">
  <g id="patch_1">
   <path d="M 0 345.6 
L 460.8 345.6 
L 460.8 0 
L 0 0 
z
" style="fill: #ffffff"/>
  </g>
  <g id="axes_1">
   <g id="patch_2">
    <path d="M 57.6 307.584 
L 414.72 307.584 
L 414.72 41.472 
L 57.6 41.472 
z
" style="fill: #ffffff"/>
   </g>
   <g id="matplotlib.axis_1">
    <g id="xtick_1">
     <g id="line2d_1">
      <defs>
       <path id="mf8d9db3683" d="M 0 0 
L 0 3.5 
" style="stroke: #000000; stroke-width: 0.8"/>
      </defs>
      <g>
       <use xlink:href="#mf8d9db3683" x="73.832727" y="307.584" style="stroke: #000000; stroke-width: 0.8"/>
      </g>
     </g>
     <g id="text_1">
      <!-- 0 -->
      <g transform="translate(70.651477 322.182437) scale(0.1 -0.1)">
       <defs>
        <path id="DejaVuSans-30" d="M 2034 4250 
Q 1547 4250 1301 3770 
Q 1056 3291 1056 2328 
Q 1056 1369 1301 889 
Q 1547 409 2034 409 
Q 2525 409 2770 889 
Q 3016 1369 3016 2328 
Q 3016 3291 2770 3770 
Q 2525 4250 2034 4250 
z
M 2034 4750 
Q 2819 4750 3233 4129 
Q 3647 3509 3647 2328 
Q 3647 1150 3233 529 
Q 2819 -91 2034 -91 
Q 1250 -91 836 529 
Q 422 1150 422 2328 
Q 422 3509 836 4129 
Q 1250 4750 2034 4750 
z
" transform="scale(0.015625)"/>
       </defs>
       <use xlink:href="#DejaVuSans-30"/>
      </g>
     </g>
    </g>
    <g id="xtick_2">
     <g id="line2d_2">
      <g>
       <use xlink:href="#mf8d9db3683" x="138.828632" y="307.584" style="stroke: #000000; stroke-width: 0.8"/>
      </g>
     </g>
     <g id="text_2">
      <!-- 1 -->
      <g transform="translate(135.647382 322.182437) scale(0.1 -0.1)">
       <defs>
        <path id="DejaVuSans-31" d="M 794 531 
L 1825 531 
L 1825 4091 
L 703 3866 
L 703 4441 
L 1819 4666 
L 2450 4666 
L 2450 531 
L 3481 531 
L 3481 0 
L 794 0 
L 794 531 
z
" transform="scale(0.015625)"/>
       </defs>
       <use xlink:href="#DejaVuSans-31"/>
      </g>
     </g>
    </g>
    <g id="xtick_3">
     <g id="line2d_3">
      <g>
       <use xlink:href="#mf8d9db3683" x="203.824537" y="307.584" style="stroke: #000000; stroke-width: 0.8"/>
      </g>
     </g>
     <g id="text_3">
      <!-- 2 -->
      <g transform="translate(200.643287 322.182437) scale(0.1 -0.1)">
       <defs>
        <path id="DejaVuSans-32" d="M 1228 531 
L 3431 531 
L 3431 0 
L 469 0 
L 469 531 
Q 828 903 1448 1529 
Q 2069 2156 2228 2338 
Q 2531 2678 2651 2914 
Q 2772 3150 2772 3378 
Q 2772 3750 2511 3984 
Q 2250 4219 1831 4219 
Q 1534 4219 1204 4116 
Q 875 4013 500 3803 
L 500 4441 
Q 881 4594 1212 4672 
Q 1544 4750 1819 4750 
Q 2544 4750 2975 4387 
Q 3406 4025 3406 3419 
Q 3406 3131 3298 2873 
Q 3191 2616 2906 2266 
Q 2828 2175 2409 1742 
Q 1991 1309 1228 531 
z
" transform="scale(0.015625)"/>
       </defs>
       <use xlink:href="#DejaVuSans-32"/>
      </g>
     </g>
    </g>
    <g id="xtick_4">
     <g id="line2d_4">
      <g>
       <use xlink:href="#mf8d9db3683" x="268.820442" y="307.584" style="stroke: #000000; stroke-width: 0.8"/>
      </g>
     </g>
     <g id="text_4">
      <!-- 3 -->
      <g transform="translate(265.639192 322.182437) scale(0.1 -0.1)">
       <defs>
        <path id="DejaVuSans-33" d="M 2597 2516 
Q 3050 2419 3304 2112 
Q 3559 1806 3559 1356 
Q 3559 666 3084 287 
Q 2609 -91 1734 -91 
Q 1441 -91 1130 -33 
Q 819 25 488 141 
L 488 750 
Q 750 597 1062 519 
Q 1375 441 1716 441 
Q 2309 441 2620 675 
Q 2931 909 2931 1356 
Q 2931 1769 2642 2001 
Q 2353 2234 1838 2234 
L 1294 2234 
L 1294 2753 
L 1863 2753 
Q 2328 2753 2575 2939 
Q 2822 3125 2822 3475 
Q 2822 3834 2567 4026 
Q 2313 4219 1838 4219 
Q 1578 4219 1281 4162 
Q 984 4106 628 3988 
L 628 4550 
Q 988 4650 1302 4700 
Q 1616 4750 1894 4750 
Q 2613 4750 3031 4423 
Q 3450 4097 3450 3541 
Q 3450 3153 3228 2886 
Q 3006 2619 2597 2516 
z
" transform="scale(0.015625)"/>
       </defs>
       <use xlink:href="#DejaVuSans-33"/>
      </g>
     </g>
    </g>
    <g id="xtick_5">
     <g id="line2d_5">
      <g>
       <use xlink:href="#mf8d9db3683" x="333.816347" y="307.584" style="stroke: #000000; stroke-width: 0.8"/>
      </g>
     </g>
     <g id="text_5">
      <!-- 4 -->
      <g transform="translate(330.635097 322.182437) scale(0.1 -0.1)">
       <defs>
        <path id="DejaVuSans-34" d="M 2419 4116 
L 825 1625 
L 2419 1625 
L 2419 4116 
z
M 2253 4666 
L 3047 4666 
L 3047 1625 
L 3713 1625 
L 3713 1100 
L 3047 1100 
L 3047 0 
L 2419 0 
L 2419 1100 
L 313 1100 
L 313 1709 
L 2253 4666 
z
" transform="scale(0.015625)"/>
       </defs>
       <use xlink:href="#DejaVuSans-34"/>
      </g>
     </g>
    </g>
    <g id="xtick_6">
     <g id="line2d_6">
      <g>
       <use xlink:href="#mf8d9db3683" x="398.812252" y="307.584" style="stroke: #000000; stroke-width: 0.8"/>
      </g>
     </g>
     <g id="text_6">
      <!-- 5 -->
      <g transform="translate(395.631002 322.182437) scale(0.1 -0.1)">
       <defs>
        <path id="DejaVuSans-35" d="M 691 4666 
L 3169 4666 
L 3169 4134 
L 1269 4134 
L 1269 2991 
Q 1406 3038 1543 3061 
Q 1681 3084 1819 3084 
Q 2600 3084 3056 2656 
Q 3513 2228 3513 1497 
Q 3513 744 3044 326 
Q 2575 -91 1722 -91 
Q 1428 -91 1123 -41 
Q 819 9 494 109 
L 494 744 
Q 775 591 1075 516 
Q 1375 441 1709 441 
Q 2250 441 2565 725 
Q 2881 1009 2881 1497 
Q 2881 1984 2565 2268 
Q 2250 2553 1709 2553 
Q 1456 2553 1204 2497 
Q 953 2441 691 2322 
L 691 4666 
z
" transform="scale(0.015625)"/>
       </defs>
       <use xlink:href="#DejaVuSans-35"/>
      </g>
     </g>
    </g>
    <g id="text_7">
     <!-- 1e−7 -->
     <g transform="translate(387.462188 334.860562) scale(0.1 -0.1)">
      <defs>
       <path id="DejaVuSans-65" d="M 3597 1894 
L 3597 1613 
L 953 1613 
Q 991 1019 1311 708 
Q 1631 397 2203 397 
Q 2534 397 2845 478 
Q 3156 559 3463 722 
L 3463 178 
Q 3153 47 2828 -22 
Q 2503 -91 2169 -91 
Q 1331 -91 842 396 
Q 353 884 353 1716 
Q 353 2575 817 3079 
Q 1281 3584 2069 3584 
Q 2775 3584 3186 3129 
Q 3597 2675 3597 1894 
z
M 3022 2063 
Q 3016 2534 2758 2815 
Q 2500 3097 2075 3097 
Q 1594 3097 1305 2825 
Q 1016 2553 972 2059 
L 3022 2063 
z
" transform="scale(0.015625)"/>
       <path id="DejaVuSans-2212" d="M 678 2272 
L 4684 2272 
L 4684 1741 
L 678 1741 
L 678 2272 
z
" transform="scale(0.015625)"/>
       <path id="DejaVuSans-37" d="M 525 4666 
L 3525 4666 
L 3525 4397 
L 1831 0 
L 1172 0 
L 2766 4134 
L 525 4134 
L 525 4666 
z
" transform="scale(0.015625)"/>
      </defs>
      <use xlink:href="#DejaVuSans-31"/>
      <use xlink:href="#DejaVuSans-65" transform="translate(63.623047 0)"/>
      <use xlink:href="#DejaVuSans-2212" transform="translate(125.146484 0)"/>
      <use xlink:href="#DejaVuSans-37" transform="translate(208.935547 0)"/>
     </g>
    </g>
   </g>
   <g id="matplotlib.axis_2">
    <g id="ytick_1">
     <g id="line2d_7">
      <defs>
       <path id="md74705db12" d="M 0 0 
L -3.5 0 
" style="stroke: #000000; stroke-width: 0.8"/>
      </defs>
      <g>
       <use xlink:href="#md74705db12" x="57.6" y="306.240022" style="stroke: #000000; stroke-width: 0.8"/>
      </g>
     </g>
     <g id="text_8">
      <!-- −10 -->
      <g transform="translate(29.495313 310.039241) scale(0.1 -0.1)">
       <use xlink:href="#DejaVuSans-2212"/>
       <use xlink:href="#DejaVuSans-31" transform="translate(83.789062 0)"/>
       <use xlink:href="#DejaVuSans-30" transform="translate(147.412109 0)"/>
      </g>
     </g>
    </g>
    <g id="ytick_2">
     <g id="line2d_8">
      <g>
       <use xlink:href="#md74705db12" x="57.6" y="263.232018" style="stroke: #000000; stroke-width: 0.8"/>
      </g>
     </g>
     <g id="text_9">
      <!-- 0 -->
      <g transform="translate(44.2375 267.031236) scale(0.1 -0.1)">
       <use xlink:href="#DejaVuSans-30"/>
      </g>
     </g>
    </g>
    <g id="ytick_3">
     <g id="line2d_9">
      <g>
       <use xlink:href="#md74705db12" x="57.6" y="220.224013" style="stroke: #000000; stroke-width: 0.8"/>
      </g>
     </g>
     <g id="text_10">
      <!-- 10 -->
      <g transform="translate(37.875 224.023232) scale(0.1 -0.1)">
       <use xlink:href="#DejaVuSans-31"/>
       <use xlink:href="#DejaVuSans-30" transform="translate(63.623047 0)"/>
      </g>
     </g>
    </g>
    <g id="ytick_4">
     <g id="line2d_10">
      <g>
       <use xlink:href="#md74705db12" x="57.6" y="177.216009" style="stroke: #000000; stroke-width: 0.8"/>
      </g>
     </g>
     <g id="text_11">
      <!-- 20 -->
      <g transform="translate(37.875 181.015228) scale(0.1 -0.1)">
       <use xlink:href="#DejaVuSans-32"/>
       <use xlink:href="#DejaVuSans-30" transform="translate(63.623047 0)"/>
      </g>
     </g>
    </g>
    <g id="ytick_5">
     <g id="line2d_11">
      <g>
       <use xlink:href="#md74705db12" x="57.6" y="134.208004" style="stroke: #000000; stroke-width: 0.8"/>
      </g>
     </g>
     <g id="text_12">
      <!-- 30 -->
      <g transform="translate(37.875 138.007223) scale(0.1 -0.1)">
       <use xlink:href="#DejaVuSans-33"/>
       <use xlink:href="#DejaVuSans-30" transform="translate(63.623047 0)"/>
      </g>
     </g>
    </g>
    <g id="ytick_6">
     <g id="line2d_12">
      <g>
       <use xlink:href="#md74705db12" x="57.6" y="91.2" style="stroke: #000000; stroke-width: 0.8"/>
      </g>
     </g>
     <g id="text_13">
      <!-- 40 -->
      <g transform="translate(37.875 94.999219) scale(0.1 -0.1)">
       <use xlink:href="#DejaVuSans-34"/>
       <use xlink:href="#DejaVuSans-30" transform="translate(63.623047 0)"/>
      </g>
     </g>
    </g>
    <g id="ytick_7">
     <g id="line2d_13">
      <g>
       <use xlink:href="#md74705db12" x="57.6" y="48.191996" style="stroke: #000000; stroke-width: 0.8"/>
      </g>
     </g>
     <g id="text_14">
      <!-- 50 -->
      <g transform="translate(37.875 51.991214) scale(0.1 -0.1)">
       <use xlink:href="#DejaVuSans-35"/>
       <use xlink:href="#DejaVuSans-30" transform="translate(63.623047 0)"/>
      </g>
     </g>
    </g>
   </g>
   <g id="line2d_14">
    <path d="M 73.832727 260.275218 
L 74.157707 259.200018 
L 74.482686 258.662418 
L 74.807666 258.662418 
L 75.132645 258.931218 
L 75.457625 260.275218 
L 76.107584 264.576018 
L 76.432563 264.576018 
L 77.082523 261.350418 
L 77.407502 261.619218 
L 77.732482 262.963218 
L 78.057461 265.113618 
L 78.382441 266.457618 
L 78.70742 266.188818 
L 79.357379 263.232018 
L 79.682359 263.500818 
L 80.332318 264.844818 
L 81.307256 262.425618 
L 81.957215 263.769618 
L 82.607174 261.081618 
L 82.932154 261.081618 
L 83.907093 266.457618 
L 84.232072 265.920018 
L 84.882031 261.619218 
L 85.207011 261.350418 
L 85.85697 264.307218 
L 86.181949 264.307218 
L 86.506929 263.769618 
L 86.831908 263.769618 
L 87.481867 265.382418 
L 87.806847 264.576018 
L 88.131826 262.694418 
L 88.456806 261.619218 
L 88.781785 261.888018 
L 89.106765 264.307218 
L 89.431744 265.382418 
L 89.756724 265.113618 
L 90.406683 261.888018 
L 90.731663 261.888018 
L 91.381622 264.307218 
L 91.706601 264.307218 
L 92.031581 264.038418 
L 92.35656 263.500818 
L 92.68154 263.232018 
L 93.006519 264.307218 
L 93.331499 264.576018 
L 93.656478 263.769618 
L 93.981458 262.156818 
L 94.306437 262.425618 
L 94.956396 264.307218 
L 95.281376 264.038418 
L 95.606355 262.963218 
L 95.931335 262.694418 
L 96.581294 264.576018 
L 96.906274 264.844818 
L 97.231253 264.844818 
L 97.556233 264.307218 
L 97.881212 263.232018 
L 98.531171 262.694418 
L 98.856151 262.156818 
L 99.18113 262.156818 
L 99.50611 262.425618 
L 100.481048 264.576018 
L 100.806028 264.576018 
L 101.131007 264.038418 
L 101.455987 263.769618 
L 102.105946 263.769618 
L 102.430925 263.500818 
L 103.080885 262.425618 
L 103.405864 262.425618 
L 104.055823 262.963218 
L 104.380803 263.500818 
L 104.705782 264.844818 
L 105.030762 265.382418 
L 105.355741 265.382418 
L 105.680721 264.844818 
L 106.33068 262.156818 
L 106.655659 261.619218 
L 106.980639 261.619218 
L 107.305618 262.156818 
L 108.605536 265.113618 
L 109.255495 265.113618 
L 109.580475 264.576018 
L 109.905455 264.307218 
L 110.230434 262.963218 
L 111.205373 261.350418 
L 111.855332 262.425618 
L 112.505291 264.844818 
L 113.15525 266.188818 
L 113.480229 265.651218 
L 114.780147 261.081618 
L 115.105127 261.350418 
L 115.430106 261.350418 
L 116.080066 263.500818 
L 116.405045 265.113618 
L 116.730025 265.920018 
L 117.055004 266.188818 
L 117.379984 265.651218 
L 117.704963 264.844818 
L 118.354922 262.425618 
L 119.004881 261.081618 
L 119.329861 261.081618 
L 120.629779 265.113618 
L 120.954758 265.920018 
L 121.279738 266.188818 
L 121.604717 265.651218 
L 122.579656 261.350418 
L 122.904636 260.812818 
L 123.229615 261.350418 
L 124.204554 264.038418 
L 124.854513 265.920018 
L 125.179492 265.651218 
L 125.504472 265.113618 
L 125.829451 263.500818 
L 126.154431 262.963218 
L 126.80439 261.619218 
L 127.454349 262.156818 
L 128.104308 263.232018 
L 128.754267 265.382418 
L 129.079247 265.651218 
L 129.404226 265.382418 
L 130.054185 263.500818 
L 130.704144 261.350418 
L 131.029124 260.812818 
L 132.329042 265.113618 
L 132.654021 265.651218 
L 132.979001 265.382418 
L 133.30398 264.844818 
L 134.603898 261.888018 
L 134.928878 261.619218 
L 135.253857 261.888018 
L 135.578837 262.425618 
L 136.553776 264.844818 
L 136.878755 264.844818 
L 137.203735 264.576018 
L 137.853694 262.694418 
L 138.503653 262.156818 
L 138.828632 262.156818 
L 139.803571 262.963218 
L 140.45353 261.081618 
L 140.778509 259.468818 
L 141.103489 258.662418 
L 141.753448 254.630418 
L 143.053366 243.878418 
L 143.378346 242.534418 
L 143.703325 242.534418 
L 144.028305 243.878418 
L 144.678264 247.372818 
L 145.003243 248.448018 
L 145.328223 248.179218 
L 145.653202 247.104018 
L 146.303161 242.803218 
L 146.628141 239.577618 
L 147.2781 236.889618 
L 147.603079 236.620818 
L 147.928059 237.158418 
L 148.253038 238.502418 
L 149.552957 245.491218 
L 149.877936 245.491218 
L 150.852875 240.384018 
L 151.177854 239.308818 
L 151.827813 239.308818 
L 152.477772 240.652818 
L 153.127731 243.878418 
L 153.452711 244.953618 
L 153.77769 245.222418 
L 154.427649 244.147218 
L 154.752629 243.340818 
L 155.402588 240.652818 
L 155.727568 239.846418 
L 156.052547 239.577618 
L 156.377527 240.384018 
L 156.702506 241.996818 
L 157.677445 244.147218 
L 158.002424 243.878418 
L 159.302342 240.652818 
L 159.627322 240.652818 
L 159.952301 240.384018 
L 160.277281 240.384018 
L 160.92724 241.459218 
L 161.252219 242.265618 
L 161.577199 242.534418 
L 161.902179 243.340818 
L 162.227158 243.609618 
L 162.552138 243.609618 
L 162.877117 243.072018 
L 163.202097 241.728018 
L 163.852056 240.652818 
L 164.177035 240.652818 
L 164.502015 240.384018 
L 164.826994 241.190418 
L 165.151974 241.190418 
L 165.801933 243.340818 
L 166.126912 243.340818 
L 166.451892 243.609618 
L 166.776871 243.340818 
L 167.101851 242.803218 
L 167.75181 241.459218 
L 168.401769 240.384018 
L 168.726749 240.384018 
L 169.051728 240.921618 
L 170.026667 243.072018 
L 170.676626 243.609618 
L 171.001605 243.609618 
L 171.326585 243.340818 
L 171.651564 243.609618 
L 171.976544 245.491218 
L 172.301523 248.716818 
L 172.626503 250.598418 
L 172.951482 250.329618 
L 173.276462 250.598418 
L 173.601441 253.286418 
L 174.90136 268.608018 
L 175.226339 269.414418 
L 175.551319 269.683218 
L 175.876298 270.220818 
L 176.526257 271.564818 
L 176.851237 271.027218 
L 179.126093 258.393618 
L 179.451073 258.124818 
L 180.101032 259.200018 
L 180.750991 264.038418 
L 181.075971 264.844818 
L 181.72593 262.156818 
L 182.050909 261.350418 
L 182.375889 262.156818 
L 183.025848 266.188818 
L 183.350827 266.726418 
L 183.675807 265.382418 
L 184.000786 263.500818 
L 184.325766 262.963218 
L 184.975725 264.844818 
L 185.300704 264.844818 
L 185.950663 262.425618 
L 186.275643 262.694418 
L 186.600622 263.769618 
L 186.925602 263.500818 
L 187.575561 260.812818 
L 187.900541 261.888018 
L 188.5505 265.651218 
L 188.875479 266.457618 
L 189.200459 264.844818 
L 189.525438 262.425618 
L 189.850418 261.081618 
L 190.175397 261.888018 
L 190.500377 263.769618 
L 190.825356 264.307218 
L 191.475315 263.769618 
L 192.125274 264.844818 
L 192.450254 264.844818 
L 193.100213 262.156818 
L 193.425192 261.619218 
L 193.750172 262.963218 
L 194.075152 264.844818 
L 194.400131 265.382418 
L 194.725111 264.307218 
L 195.05009 262.425618 
L 195.37507 261.619218 
L 195.700049 262.156818 
L 196.025029 263.500818 
L 196.350008 264.307218 
L 196.674988 264.307218 
L 197.324947 263.232018 
L 197.649926 263.769618 
L 197.974906 264.576018 
L 198.299885 264.576018 
L 198.624865 263.232018 
L 198.949844 262.425618 
L 199.274824 262.425618 
L 199.599803 263.769618 
L 199.924783 264.038418 
L 200.249762 263.500818 
L 200.574742 262.694418 
L 200.899722 262.694418 
L 201.549681 265.113618 
L 201.87466 265.113618 
L 202.19964 264.576018 
L 202.849599 262.963218 
L 203.174578 262.694418 
L 203.499558 262.694418 
L 203.824537 262.156818 
L 204.149517 262.156818 
L 205.124455 264.576018 
L 205.449435 264.576018 
L 205.774414 264.307218 
L 206.099394 263.769618 
L 206.424373 264.038418 
L 206.749353 263.769618 
L 207.399312 263.769618 
L 207.724292 262.963218 
L 208.374251 262.425618 
L 208.69923 262.963218 
L 209.02421 263.232018 
L 209.999148 265.382418 
L 210.324128 265.113618 
L 211.299066 261.619218 
L 211.624046 261.619218 
L 211.949025 261.888018 
L 212.598984 262.963218 
L 213.248943 264.844818 
L 213.898903 265.382418 
L 214.223882 264.844818 
L 214.548862 264.576018 
L 215.84878 261.350418 
L 216.498739 261.888018 
L 217.473677 265.382418 
L 217.798657 265.651218 
L 218.123636 265.651218 
L 218.448616 265.113618 
L 219.423554 261.888018 
L 219.748534 261.350418 
L 220.073514 261.081618 
L 220.398493 261.619218 
L 221.048452 264.038418 
L 221.373432 265.382418 
L 222.023391 265.920018 
L 222.34837 265.382418 
L 222.67335 264.576018 
L 223.323309 261.888018 
L 223.648288 261.081618 
L 223.973268 260.812818 
L 224.948206 263.500818 
L 225.598165 265.382418 
L 225.923145 266.188818 
L 226.248124 266.188818 
L 226.573104 265.382418 
L 227.223063 261.888018 
L 227.548043 261.081618 
L 227.873022 261.081618 
L 228.198002 261.350418 
L 229.49792 265.651218 
L 229.822899 265.920018 
L 230.147879 265.651218 
L 230.472858 264.307218 
L 231.447797 261.619218 
L 232.097756 261.619218 
L 232.422735 262.425618 
L 232.747715 262.694418 
L 233.397674 264.844818 
L 233.722654 265.382418 
L 234.047633 265.382418 
L 234.372613 264.844818 
L 234.697592 264.576018 
L 235.347551 261.888018 
L 235.672531 260.544018 
L 235.99751 260.812818 
L 236.647469 263.232018 
L 236.972449 264.576018 
L 237.297428 265.113618 
L 237.622408 265.382418 
L 237.947387 265.382418 
L 239.572285 261.350418 
L 239.897265 261.888018 
L 240.222244 261.888018 
L 240.547224 262.963218 
L 240.872203 263.500818 
L 241.197183 264.576018 
L 241.522162 265.113618 
L 242.172121 264.038418 
L 242.497101 262.963218 
L 243.14706 262.425618 
L 244.121998 262.425618 
L 244.446978 262.694418 
L 244.771957 262.694418 
L 245.096937 261.888018 
L 245.421916 260.275218 
L 245.746896 259.468818 
L 246.396855 255.974418 
L 247.371794 248.448018 
L 247.696773 245.222418 
L 248.021753 243.340818 
L 248.346732 242.265618 
L 248.671712 243.072018 
L 249.64665 247.910418 
L 250.296609 247.910418 
L 250.946568 244.416018 
L 251.596527 238.771218 
L 251.921507 237.158418 
L 252.246486 236.620818 
L 252.571466 236.620818 
L 252.896446 237.427218 
L 253.546405 240.921618 
L 254.196364 245.222418 
L 254.521343 245.491218 
L 254.846323 244.684818 
L 255.821261 239.846418 
L 256.146241 239.308818 
L 256.47122 239.308818 
L 256.7962 239.577618 
L 257.121179 240.115218 
L 257.446159 241.190418 
L 258.096118 244.416018 
L 258.421097 244.953618 
L 258.746077 244.953618 
L 259.071057 244.684818 
L 259.721016 242.803218 
L 260.045995 241.459218 
L 260.370975 239.577618 
L 260.695954 239.846418 
L 261.020934 239.846418 
L 262.320852 243.878418 
L 262.645831 243.878418 
L 262.970811 243.609618 
L 263.62077 242.534418 
L 263.945749 241.459218 
L 264.595708 240.384018 
L 264.920688 240.115218 
L 265.245667 240.384018 
L 265.570647 240.921618 
L 265.895627 241.996818 
L 266.870565 243.609618 
L 267.195545 243.609618 
L 267.520524 243.340818 
L 268.495463 240.921618 
L 268.820442 240.652818 
L 269.145422 240.652818 
L 269.795381 241.190418 
L 270.44534 242.265618 
L 271.095299 243.878418 
L 271.420278 243.340818 
L 271.745258 243.340818 
L 272.720197 241.190418 
L 273.370156 240.115218 
L 273.695135 240.115218 
L 274.020115 241.459218 
L 274.670074 243.072018 
L 274.995053 243.340818 
L 276.294971 243.340818 
L 276.619951 244.147218 
L 277.26991 250.060818 
L 277.594889 250.867218 
L 277.919869 250.329618 
L 278.244848 250.867218 
L 279.544767 267.264018 
L 279.869746 268.876818 
L 280.194726 269.414418 
L 280.519705 269.414418 
L 281.169664 271.564818 
L 281.494644 271.564818 
L 281.819623 270.489618 
L 283.7695 259.200018 
L 284.09448 258.662418 
L 284.744439 258.662418 
L 285.069419 260.006418 
L 285.719378 264.576018 
L 286.044357 264.576018 
L 286.694316 261.619218 
L 287.019296 261.350418 
L 287.344275 262.694418 
L 287.994234 266.726418 
L 288.319214 266.457618 
L 288.969173 263.232018 
L 289.294152 262.963218 
L 289.619132 264.307218 
L 289.944111 265.113618 
L 290.91905 262.425618 
L 291.569009 263.500818 
L 291.893989 262.963218 
L 292.218968 261.350418 
L 292.543948 261.081618 
L 292.868927 262.425618 
L 293.518886 266.188818 
L 293.843866 266.188818 
L 294.493825 261.888018 
L 294.818804 261.350418 
L 295.143784 262.425618 
L 295.468763 264.038418 
L 295.793743 264.307218 
L 296.118722 263.769618 
L 296.443702 263.769618 
L 296.768681 264.307218 
L 297.093661 265.113618 
L 297.41864 264.576018 
L 298.0686 261.619218 
L 298.393579 262.156818 
L 299.043538 265.113618 
L 299.368518 265.113618 
L 300.018477 261.888018 
L 300.343456 261.619218 
L 300.993415 264.038418 
L 301.318395 264.307218 
L 301.968354 263.232018 
L 302.293333 263.500818 
L 302.618313 264.038418 
L 302.943292 264.844818 
L 303.268272 264.038418 
L 303.593251 262.694418 
L 303.918231 262.156818 
L 304.56819 264.038418 
L 304.89317 264.038418 
L 305.218149 262.963218 
L 305.543129 262.694418 
L 306.518067 264.844818 
L 306.843047 264.844818 
L 307.168026 264.038418 
L 307.493006 263.769618 
L 308.142965 262.425618 
L 308.467944 262.156818 
L 309.117903 262.156818 
L 309.767862 264.307218 
L 310.092842 264.844818 
L 310.417821 264.307218 
L 310.742801 264.038418 
L 312.042719 264.038418 
L 312.367699 262.963218 
L 312.692678 262.694418 
L 313.017658 262.156818 
L 313.342637 262.425618 
L 313.667617 262.963218 
L 314.642555 265.113618 
L 314.967535 265.651218 
L 315.617494 263.769618 
L 315.942473 262.425618 
L 316.267453 261.888018 
L 316.592432 261.619218 
L 316.917412 261.888018 
L 318.21733 264.844818 
L 318.54231 265.382418 
L 319.192269 264.844818 
L 320.492187 261.619218 
L 321.142146 261.619218 
L 321.792105 263.232018 
L 322.117084 264.576018 
L 322.442064 265.382418 
L 322.767043 265.651218 
L 323.092023 265.651218 
L 323.741982 264.038418 
L 324.066962 262.425618 
L 324.716921 261.081618 
L 325.0419 261.350418 
L 325.36688 261.888018 
L 326.341818 265.651218 
L 326.666798 266.188818 
L 326.991777 265.920018 
L 327.316757 265.382418 
L 328.291695 261.619218 
L 328.616675 260.812818 
L 329.266634 261.888018 
L 330.566552 265.920018 
L 330.891532 266.188818 
L 331.216511 265.920018 
L 331.86647 262.963218 
L 332.19145 261.350418 
L 332.516429 260.812818 
L 333.166388 261.350418 
L 334.141327 265.382418 
L 334.466306 265.920018 
L 334.791286 266.188818 
L 336.091204 261.888018 
L 336.741163 261.350418 
L 337.066143 261.888018 
L 338.69104 265.920018 
L 339.340999 264.844818 
L 339.990958 262.425618 
L 340.640917 260.544018 
L 341.290876 262.425618 
L 341.940835 265.113618 
L 342.265815 265.651218 
L 342.590794 265.382418 
L 342.915774 264.844818 
L 344.215692 261.888018 
L 344.865651 261.888018 
L 345.51561 262.963218 
L 346.165569 264.844818 
L 346.490549 264.844818 
L 346.815528 264.576018 
L 347.465487 262.963218 
L 348.115446 262.425618 
L 348.440426 262.425618 
L 348.765405 262.156818 
L 349.090385 262.963218 
L 349.415364 262.694418 
L 349.740344 262.156818 
L 350.715283 258.662418 
L 351.365242 254.899218 
L 352.66516 244.684818 
L 352.990139 242.803218 
L 353.315119 242.534418 
L 353.965078 245.222418 
L 354.290057 247.104018 
L 354.615037 248.179218 
L 354.940016 248.179218 
L 355.264996 247.372818 
L 355.589975 245.760018 
L 356.564914 238.233618 
L 356.889894 236.889618 
L 357.214873 236.620818 
L 357.539853 236.889618 
L 357.864832 238.233618 
L 358.839771 244.147218 
L 359.16475 245.222418 
L 359.48973 245.491218 
L 360.789648 239.577618 
L 361.114627 239.308818 
L 361.439607 239.577618 
L 361.764586 239.577618 
L 362.089566 240.384018 
L 363.064505 244.684818 
L 363.389484 245.222418 
L 363.714464 244.953618 
L 364.039443 244.416018 
L 364.364423 243.072018 
L 364.689402 242.265618 
L 365.014382 240.652818 
L 365.664341 239.308818 
L 365.98932 240.115218 
L 366.639279 242.803218 
L 366.964259 243.609618 
L 367.289238 243.878418 
L 367.614218 243.878418 
L 368.589156 242.265618 
L 368.914136 240.921618 
L 369.239115 240.384018 
L 369.564095 240.115218 
L 369.889075 240.652818 
L 370.214054 240.652818 
L 370.539034 241.190418 
L 371.513972 243.340818 
L 371.838952 243.340818 
L 372.163931 243.609618 
L 372.488911 243.072018 
L 373.463849 240.652818 
L 373.788829 240.921618 
L 374.113808 240.652818 
L 374.763767 241.190418 
L 375.088747 242.265618 
L 375.413726 242.534418 
L 376.063686 243.878418 
L 376.388665 243.609618 
L 376.713645 243.072018 
L 377.363604 241.728018 
L 378.338542 240.115218 
L 379.63846 243.072018 
L 379.96344 243.072018 
L 380.288419 243.609618 
L 380.613399 243.340818 
L 381.263358 243.340818 
L 381.588337 244.953618 
L 382.238296 250.329618 
L 382.888256 250.329618 
L 383.213235 252.480018 
L 384.188174 265.382418 
L 384.513153 268.070418 
L 384.838133 269.145618 
L 385.163112 269.414418 
L 386.138051 271.564818 
L 386.46303 271.296018 
L 386.78801 270.220818 
L 387.437969 265.651218 
L 387.762948 264.038418 
L 388.412907 260.006418 
L 388.737887 258.931218 
L 389.062867 258.662418 
L 389.387846 258.662418 
L 389.712826 259.200018 
L 390.687764 264.844818 
L 391.012744 264.307218 
L 391.337723 262.425618 
L 391.662703 261.350418 
L 391.987682 261.888018 
L 392.637641 265.651218 
L 392.962621 266.726418 
L 393.2876 265.920018 
L 393.937559 262.963218 
L 394.912498 265.113618 
L 395.562457 262.694418 
L 395.887437 262.425618 
L 396.537396 263.769618 
L 397.187355 261.081618 
L 397.512334 261.350418 
L 398.487273 266.726418 
L 398.487273 266.726418 
" clip-path="url(#pc5cd8dcf9b)" style="fill: none; stroke: #1f77b4; stroke-width: 1.5; stroke-linecap: square"/>
   </g>
   <g id="line2d_15">
    <path d="M 73.832727 263.769618 
L 74.157707 263.769618 
L 74.482686 263.500818 
L 75.132645 263.500818 
L 75.782604 264.038418 
L 76.432563 263.500818 
L 77.082523 263.500818 
L 77.407502 263.769618 
L 77.732482 263.500818 
L 78.057461 263.769618 
L 78.70742 263.232018 
L 79.0324 263.500818 
L 80.007338 263.500818 
L 80.332318 263.769618 
L 82.607174 263.769618 
L 82.932154 263.500818 
L 83.257133 263.769618 
L 83.582113 263.769618 
L 83.907093 263.500818 
L 84.882031 263.500818 
L 85.207011 263.232018 
L 85.53199 263.232018 
L 85.85697 263.500818 
L 86.506929 263.500818 
L 86.831908 263.769618 
L 87.156888 263.769618 
L 87.806847 263.232018 
L 88.131826 263.232018 
L 88.456806 263.500818 
L 88.781785 264.038418 
L 89.106765 263.769618 
L 89.431744 263.769618 
L 89.756724 263.500818 
L 90.081704 263.500818 
L 90.406683 263.232018 
L 90.731663 263.500818 
L 91.056642 263.500818 
L 91.381622 264.038418 
L 92.031581 264.576018 
L 92.35656 264.307218 
L 93.006519 261.888018 
L 93.656478 258.393618 
L 95.606355 242.803218 
L 95.931335 241.190418 
L 96.256314 242.265618 
L 96.906274 246.297618 
L 97.231253 246.566418 
L 97.556233 246.028818 
L 97.881212 244.684818 
L 98.206192 242.803218 
L 98.856151 236.889618 
L 99.18113 236.620818 
L 99.831089 236.620818 
L 100.156069 237.158418 
L 101.455987 244.147218 
L 101.780966 244.147218 
L 102.430925 242.265618 
L 102.755905 240.384018 
L 103.080885 239.308818 
L 103.405864 239.040018 
L 103.730844 239.577618 
L 105.030762 246.028818 
L 105.355741 246.566418 
L 106.0057 244.953618 
L 106.980639 240.652818 
L 107.305618 240.115218 
L 107.630598 240.652818 
L 108.280557 243.072018 
L 108.605536 244.416018 
L 108.930516 244.953618 
L 109.580475 244.416018 
L 109.905455 243.340818 
L 110.555414 240.115218 
L 110.880393 238.771218 
L 111.205373 238.771218 
L 111.530352 239.308818 
L 112.505291 242.803218 
L 112.83027 244.147218 
L 113.15525 244.684818 
L 113.480229 244.416018 
L 113.805209 243.878418 
L 114.455168 240.652818 
L 115.105127 239.308818 
L 115.430106 239.846418 
L 117.055004 244.953618 
L 117.379984 244.416018 
L 118.029943 242.534418 
L 118.679902 240.652818 
L 119.004881 240.115218 
L 119.329861 240.115218 
L 120.954758 244.147218 
L 121.279738 243.878418 
L 121.604717 243.340818 
L 122.254676 241.459218 
L 122.579656 240.652818 
L 122.904636 240.384018 
L 124.204554 243.340818 
L 124.529533 243.878418 
L 124.854513 243.878418 
L 125.179492 243.340818 
L 125.504472 242.534418 
L 125.829451 243.072018 
L 126.47941 245.222418 
L 127.129369 249.254418 
L 127.454349 252.480018 
L 128.754267 271.296018 
L 129.404226 273.177618 
L 130.054185 274.790418 
L 130.379165 274.521618 
L 131.029124 272.640018 
L 131.679083 266.995218 
L 132.329042 260.006418 
L 132.654021 258.662418 
L 132.979001 258.393618 
L 133.30398 258.393618 
L 133.62896 258.662418 
L 133.953939 258.393618 
L 134.278919 258.662418 
L 135.253857 260.812818 
L 135.578837 261.081618 
L 135.903817 261.888018 
L 137.203735 268.070418 
L 137.528714 267.264018 
L 138.178673 263.232018 
L 138.503653 263.232018 
L 139.153612 266.188818 
L 139.478591 266.457618 
L 139.803571 264.844818 
L 140.12855 262.156818 
L 140.45353 261.081618 
L 140.778509 261.081618 
L 141.428468 263.500818 
L 141.753448 264.038418 
L 142.078428 262.963218 
L 142.403407 262.694418 
L 142.728387 262.963218 
L 143.378346 262.963218 
L 143.703325 262.425618 
L 144.028305 262.963218 
L 144.353284 263.769618 
L 144.678264 265.382418 
L 145.003243 265.651218 
L 145.328223 264.844818 
L 145.653202 262.963218 
L 145.978182 261.888018 
L 146.303161 262.425618 
L 146.95312 265.651218 
L 147.2781 265.382418 
L 147.928059 262.156818 
L 148.253038 261.888018 
L 148.902998 263.769618 
L 149.227977 264.038418 
L 149.552957 263.769618 
L 150.527895 263.769618 
L 150.852875 263.500818 
L 151.177854 262.694418 
L 151.502834 262.425618 
L 151.827813 262.963218 
L 152.152793 264.038418 
L 152.477772 264.576018 
L 152.802752 264.307218 
L 153.127731 262.963218 
L 153.452711 262.425618 
L 153.77769 262.425618 
L 154.10267 263.769618 
L 154.427649 264.576018 
L 154.752629 264.576018 
L 155.077609 264.038418 
L 155.402588 263.232018 
L 155.727568 262.963218 
L 156.052547 263.500818 
L 156.377527 263.769618 
L 157.027486 263.769618 
L 157.677445 264.307218 
L 158.327404 263.232018 
L 158.652383 262.963218 
L 158.977363 262.963218 
L 159.627322 264.576018 
L 160.277281 264.038418 
L 160.92724 262.694418 
L 161.577199 264.307218 
L 162.227158 264.307218 
L 162.552138 264.038418 
L 162.877117 264.038418 
L 163.527076 263.500818 
L 164.177035 263.500818 
L 164.502015 263.769618 
L 164.826994 264.307218 
L 165.151974 264.576018 
L 166.126912 262.963218 
L 166.451892 263.500818 
L 167.101851 264.038418 
L 167.75181 264.038418 
L 168.07679 263.500818 
L 168.401769 263.500818 
L 168.726749 263.769618 
L 169.051728 263.500818 
L 169.701687 263.500818 
L 170.026667 263.769618 
L 170.676626 263.769618 
L 171.326585 263.232018 
L 171.651564 263.500818 
L 171.976544 264.038418 
L 172.301523 264.307218 
L 172.626503 264.307218 
L 172.951482 264.038418 
L 173.276462 263.500818 
L 173.926421 263.500818 
L 174.57638 264.038418 
L 174.90136 263.769618 
L 175.876298 263.769618 
L 176.201278 263.500818 
L 176.526257 263.769618 
L 177.176216 263.769618 
L 177.501196 264.038418 
L 178.151155 264.038418 
L 178.476134 263.500818 
L 178.801114 263.500818 
L 179.126093 263.232018 
L 179.451073 263.500818 
L 179.776052 263.500818 
L 180.426011 264.038418 
L 180.750991 263.769618 
L 181.40095 263.769618 
L 181.72593 263.500818 
L 182.050909 263.500818 
L 182.375889 263.769618 
L 182.700868 263.500818 
L 184.325766 263.500818 
L 184.650745 263.769618 
L 184.975725 263.769618 
L 185.300704 263.500818 
L 185.625684 263.500818 
L 186.275643 264.038418 
L 186.600622 264.038418 
L 186.925602 263.500818 
L 187.250581 263.500818 
L 187.575561 263.769618 
L 188.5505 263.769618 
L 189.200459 263.232018 
L 189.525438 263.500818 
L 189.850418 263.500818 
L 190.175397 263.232018 
L 190.500377 263.232018 
L 190.825356 263.500818 
L 191.150336 263.500818 
L 191.475315 264.038418 
L 191.800295 264.038418 
L 192.125274 263.769618 
L 192.450254 263.232018 
L 192.775233 263.232018 
L 193.100213 263.500818 
L 193.425192 264.038418 
L 193.750172 264.038418 
L 194.725111 263.232018 
L 195.37507 263.232018 
L 196.025029 263.769618 
L 196.350008 264.307218 
L 196.674988 264.576018 
L 196.999967 264.576018 
L 197.649926 262.694418 
L 197.974906 261.350418 
L 198.949844 254.899218 
L 199.599803 249.254418 
L 200.249762 244.684818 
L 200.574742 241.996818 
L 200.899722 240.921618 
L 201.87466 246.835218 
L 202.19964 246.566418 
L 202.524619 245.491218 
L 202.849599 243.878418 
L 203.824537 236.620818 
L 204.799476 236.620818 
L 205.124455 237.696018 
L 205.774414 241.996818 
L 206.099394 243.609618 
L 206.424373 244.416018 
L 206.749353 243.878418 
L 207.399312 241.459218 
L 207.724292 239.846418 
L 208.049271 239.040018 
L 208.374251 239.308818 
L 208.69923 239.846418 
L 209.674169 245.222418 
L 209.999148 246.297618 
L 210.324128 246.297618 
L 210.649107 245.760018 
L 210.974087 244.416018 
L 211.299066 242.534418 
L 211.949025 240.384018 
L 212.274005 240.115218 
L 212.598984 240.652818 
L 213.573923 244.416018 
L 213.898903 244.953618 
L 214.223882 244.953618 
L 214.548862 244.147218 
L 215.5238 239.577618 
L 215.84878 239.040018 
L 216.173759 239.040018 
L 216.498739 239.846418 
L 217.473677 243.609618 
L 217.798657 244.684818 
L 218.123636 244.953618 
L 218.448616 244.147218 
L 219.423554 240.384018 
L 219.748534 239.577618 
L 220.073514 239.308818 
L 220.723473 241.190418 
L 221.373432 243.878418 
L 221.698411 244.684818 
L 222.023391 244.953618 
L 222.998329 242.265618 
L 223.323309 240.921618 
L 223.973268 239.846418 
L 224.298247 240.115218 
L 224.948206 242.534418 
L 225.273186 243.340818 
L 225.923145 243.878418 
L 226.248124 243.609618 
L 226.573104 243.072018 
L 227.223063 241.190418 
L 227.548043 240.652818 
L 227.873022 240.652818 
L 228.198002 241.459218 
L 228.522981 241.728018 
L 228.847961 243.072018 
L 229.822899 243.878418 
L 230.147879 243.072018 
L 230.472858 242.803218 
L 230.797838 243.340818 
L 231.122817 244.416018 
L 231.772776 247.641618 
L 232.097756 250.060818 
L 232.747715 259.737618 
L 233.397674 269.414418 
L 233.722654 271.833618 
L 234.372613 273.715218 
L 234.697592 274.521618 
L 235.022572 274.521618 
L 235.347551 274.252818 
L 235.672531 273.446418 
L 235.99751 271.833618 
L 236.32249 269.145618 
L 236.972449 261.619218 
L 237.297428 259.200018 
L 237.622408 258.662418 
L 237.947387 258.393618 
L 238.272367 258.662418 
L 238.597346 258.662418 
L 238.922326 258.393618 
L 239.247305 258.931218 
L 240.547224 261.888018 
L 240.872203 262.425618 
L 241.847142 267.801618 
L 242.172121 268.070418 
L 242.82208 264.307218 
L 243.14706 263.232018 
L 243.472039 263.769618 
L 244.121998 266.457618 
L 244.446978 265.920018 
L 245.096937 261.619218 
L 245.421916 260.812818 
L 245.746896 261.619218 
L 246.071876 262.963218 
L 246.396855 263.769618 
L 246.721835 263.232018 
L 247.046814 262.963218 
L 247.371794 262.963218 
L 247.696773 262.694418 
L 248.021753 262.963218 
L 248.346732 262.963218 
L 248.671712 262.694418 
L 248.996691 263.232018 
L 249.64665 265.651218 
L 249.97163 265.651218 
L 250.621589 262.425618 
L 250.946568 261.888018 
L 251.271548 263.232018 
L 251.596527 265.113618 
L 251.921507 265.920018 
L 252.246486 265.113618 
L 252.896446 261.888018 
L 253.221425 262.156818 
L 253.871384 264.038418 
L 254.196364 264.038418 
L 254.521343 263.500818 
L 254.846323 263.769618 
L 255.496282 263.769618 
L 256.146241 262.694418 
L 256.47122 262.694418 
L 257.121179 264.844818 
L 257.446159 265.113618 
L 257.771138 264.038418 
L 258.096118 262.425618 
L 258.421097 262.156818 
L 258.746077 262.963218 
L 259.071057 264.307218 
L 259.396036 264.844818 
L 259.721016 264.576018 
L 260.045995 263.500818 
L 260.370975 263.232018 
L 260.695954 263.232018 
L 261.020934 264.038418 
L 261.345913 264.038418 
L 261.670893 263.500818 
L 261.995872 263.500818 
L 262.645831 264.576018 
L 263.62077 262.425618 
L 263.945749 262.963218 
L 264.595708 264.844818 
L 264.920688 264.307218 
L 265.570647 262.694418 
L 265.895627 262.963218 
L 266.220606 263.500818 
L 266.545586 264.307218 
L 267.195545 263.769618 
L 267.520524 263.769618 
L 267.845504 263.500818 
L 268.170483 263.769618 
L 268.495463 263.500818 
L 268.820442 263.500818 
L 269.145422 263.232018 
L 269.470401 264.038418 
L 269.795381 264.307218 
L 270.12036 264.307218 
L 270.44534 263.769618 
L 270.770319 262.963218 
L 271.095299 262.694418 
L 271.745258 264.307218 
L 272.070238 264.307218 
L 272.395217 263.769618 
L 272.720197 263.500818 
L 274.670074 263.500818 
L 274.995053 263.769618 
L 275.320033 263.769618 
L 275.969992 263.232018 
L 276.619951 263.769618 
L 276.94493 264.307218 
L 277.26991 264.307218 
L 278.244848 263.500818 
L 278.569828 263.769618 
L 278.894808 263.500818 
L 279.219787 263.769618 
L 279.544767 263.500818 
L 279.869746 263.769618 
L 280.194726 263.769618 
L 280.519705 263.500818 
L 280.844685 263.769618 
L 281.494644 263.232018 
L 281.819623 263.500818 
L 282.144603 264.038418 
L 282.469582 264.038418 
L 282.794562 263.769618 
L 283.119541 263.769618 
L 283.444521 263.500818 
L 284.744439 263.500818 
L 285.069419 264.038418 
L 285.394398 263.769618 
L 286.044357 263.769618 
L 286.694316 263.232018 
L 287.344275 263.769618 
L 287.669255 263.500818 
L 287.994234 263.769618 
L 288.319214 263.769618 
L 288.644193 263.500818 
L 288.969173 263.500818 
L 289.294152 263.232018 
L 289.619132 263.500818 
L 289.944111 263.500818 
L 290.59407 264.038418 
L 290.91905 264.038418 
L 291.893989 263.232018 
L 292.218968 263.769618 
L 292.543948 263.769618 
L 292.868927 263.500818 
L 294.168845 263.500818 
L 294.818804 262.963218 
L 295.143784 263.232018 
L 295.468763 263.232018 
L 296.443702 264.038418 
L 296.768681 263.769618 
L 297.093661 263.232018 
L 297.74362 263.232018 
L 298.718559 264.038418 
L 299.043538 263.500818 
L 299.368518 263.232018 
L 299.693497 263.232018 
L 300.018477 262.963218 
L 300.993415 263.769618 
L 301.318395 264.307218 
L 301.968354 264.307218 
L 302.943292 260.812818 
L 303.918231 253.824018 
L 305.543129 241.190418 
L 305.868108 241.996818 
L 306.518067 246.028818 
L 306.843047 246.566418 
L 307.168026 246.028818 
L 307.817985 243.072018 
L 308.792924 236.620818 
L 309.767862 236.620818 
L 311.067781 243.878418 
L 311.39276 244.147218 
L 311.71774 243.340818 
L 312.692678 239.577618 
L 313.017658 239.040018 
L 313.667617 240.652818 
L 314.967535 246.566418 
L 315.292514 246.028818 
L 315.942473 243.609618 
L 316.267453 241.996818 
L 316.917412 240.115218 
L 317.242391 240.115218 
L 317.567371 240.921618 
L 318.21733 243.878418 
L 318.54231 244.684818 
L 318.867289 244.953618 
L 319.192269 244.416018 
L 319.842228 242.265618 
L 320.167207 240.384018 
L 320.492187 239.308818 
L 320.817166 238.771218 
L 321.142146 238.771218 
L 322.442064 243.878418 
L 322.767043 244.416018 
L 323.092023 244.416018 
L 323.741982 242.534418 
L 324.391941 239.846418 
L 324.716921 239.308818 
L 325.36688 240.384018 
L 326.666798 244.684818 
L 326.991777 244.684818 
L 327.641736 242.803218 
L 328.291695 240.652818 
L 328.616675 240.115218 
L 328.941654 240.115218 
L 329.266634 240.384018 
L 330.241572 243.609618 
L 330.566552 243.878418 
L 330.891532 243.609618 
L 331.541491 242.534418 
L 332.516429 240.384018 
L 333.166388 241.459218 
L 334.141327 243.609618 
L 334.791286 243.609618 
L 335.116265 243.072018 
L 335.441245 243.340818 
L 335.766224 243.878418 
L 336.091204 244.953618 
L 336.741163 248.448018 
L 337.066143 251.404818 
L 338.366061 270.489618 
L 339.01602 273.177618 
L 339.665979 274.521618 
L 339.990958 274.521618 
L 340.315938 273.984018 
L 340.640917 272.908818 
L 340.965897 271.027218 
L 342.265815 258.931218 
L 342.590794 258.393618 
L 343.565733 258.393618 
L 343.890713 258.662418 
L 344.215692 259.200018 
L 344.865651 261.081618 
L 345.190631 261.350418 
L 345.51561 261.888018 
L 346.165569 264.576018 
L 346.490549 266.995218 
L 346.815528 268.339218 
L 347.140508 267.532818 
L 347.790467 263.769618 
L 348.115446 263.232018 
L 348.765405 266.188818 
L 349.090385 266.457618 
L 349.415364 265.382418 
L 350.065324 260.812818 
L 350.390303 261.081618 
L 351.365242 264.038418 
L 352.015201 262.694418 
L 352.34018 262.694418 
L 352.66516 263.232018 
L 352.990139 263.232018 
L 353.315119 262.694418 
L 353.640098 262.963218 
L 353.965078 263.500818 
L 354.615037 265.920018 
L 354.940016 265.651218 
L 355.589975 262.156818 
L 355.914955 262.156818 
L 356.564914 265.651218 
L 356.889894 265.920018 
L 357.214873 264.576018 
L 357.539853 262.694418 
L 357.864832 262.156818 
L 358.514791 263.500818 
L 358.839771 264.038418 
L 359.16475 264.038418 
L 359.48973 263.500818 
L 360.139689 264.038418 
L 360.464668 263.769618 
L 361.114627 262.425618 
L 361.439607 262.963218 
L 362.089566 264.844818 
L 362.414545 264.576018 
L 363.064505 262.156818 
L 363.389484 262.425618 
L 364.039443 264.576018 
L 364.364423 264.844818 
L 365.014382 263.232018 
L 365.339361 263.232018 
L 365.98932 263.769618 
L 366.3143 263.769618 
L 366.639279 264.038418 
L 366.964259 263.769618 
L 367.289238 263.769618 
L 367.614218 264.307218 
L 368.264177 262.963218 
L 368.589156 262.694418 
L 369.564095 264.844818 
L 370.539034 262.694418 
L 370.864013 262.963218 
L 371.188993 263.769618 
L 371.513972 264.038418 
L 371.838952 264.038418 
L 372.163931 263.769618 
L 372.488911 263.769618 
L 372.81389 263.500818 
L 373.13887 263.500818 
L 373.463849 263.232018 
L 373.788829 263.232018 
L 374.113808 263.500818 
L 374.763767 264.576018 
L 375.738706 262.963218 
L 376.063686 262.963218 
L 376.388665 263.500818 
L 376.713645 264.307218 
L 377.688583 263.500818 
L 378.338542 263.500818 
L 378.663522 263.769618 
L 378.988501 263.769618 
L 379.313481 263.500818 
L 379.63846 263.769618 
L 379.96344 263.769618 
L 380.288419 263.500818 
L 380.613399 263.500818 
L 380.938378 263.232018 
L 382.238296 264.307218 
L 382.888256 263.232018 
L 383.213235 263.232018 
L 383.863194 263.769618 
L 384.513153 263.769618 
L 384.838133 263.500818 
L 385.163112 263.500818 
L 385.488092 263.232018 
L 386.138051 263.769618 
L 386.46303 263.232018 
L 387.437969 264.038418 
L 388.087928 263.500818 
L 388.412907 263.500818 
L 388.737887 263.232018 
L 389.062867 263.500818 
L 389.712826 263.500818 
L 390.037805 263.769618 
L 390.362785 263.769618 
L 390.687764 263.500818 
L 391.987682 263.500818 
L 392.637641 264.038418 
L 392.962621 263.500818 
L 393.2876 263.232018 
L 393.61258 263.500818 
L 394.912498 263.500818 
L 395.562457 264.038418 
L 396.212416 264.038418 
L 396.537396 263.769618 
L 397.837314 263.769618 
L 398.162293 263.500818 
L 398.487273 263.500818 
L 398.487273 263.500818 
" clip-path="url(#pc5cd8dcf9b)" style="fill: none; stroke: #ff7f0e; stroke-width: 1.5; stroke-linecap: square"/>
   </g>
   <g id="line2d_16">
    <path d="M 73.832727 260.544 
L 74.157707 257.856 
L 75.457625 206.784 
L 75.782604 212.16 
L 76.432563 249.792 
L 76.757543 241.728 
L 78.057461 155.712 
L 78.382441 158.4 
L 79.0324 220.224 
L 79.357379 217.536 
L 80.332318 131.52 
L 80.657297 128.832 
L 81.307256 163.776 
L 81.632236 166.464 
L 81.957215 153.024 
L 82.282195 134.208 
L 82.607174 131.52 
L 82.932154 139.584 
L 83.257133 139.584 
L 83.907093 101.952 
L 84.232072 99.264 
L 84.882031 139.584 
L 85.207011 150.336 
L 86.181949 72.384 
L 86.506929 83.136 
L 87.156888 128.832 
L 87.481867 123.456 
L 88.131826 91.2 
L 88.456806 85.824 
L 89.106765 85.824 
L 89.431744 80.448 
L 90.081704 91.2 
L 90.406683 107.328 
L 90.731663 112.704 
L 91.056642 93.888 
L 91.381622 67.008 
L 91.706601 53.568 
L 92.031581 61.632 
L 92.68154 104.64 
L 93.006519 110.016 
L 93.981458 64.32 
L 94.306437 67.008 
L 94.956396 83.136 
L 95.281376 83.136 
L 95.606355 91.2 
L 95.931335 93.888 
L 96.256314 88.512 
L 96.581294 80.448 
L 96.906274 67.008 
L 97.231253 64.32 
L 98.206192 96.576 
L 98.531171 93.888 
L 98.856151 88.512 
L 99.18113 72.384 
L 99.50611 67.008 
L 99.831089 69.696 
L 100.156069 80.448 
L 100.481048 80.448 
L 100.806028 85.824 
L 101.455987 80.448 
L 101.780966 80.448 
L 102.430925 69.696 
L 103.080885 75.072 
L 103.405864 88.512 
L 103.730844 91.2 
L 104.055823 85.824 
L 104.705782 64.32 
L 105.030762 64.32 
L 106.0057 88.512 
L 106.655659 83.136 
L 106.980639 75.072 
L 107.630598 69.696 
L 108.280557 75.072 
L 108.605536 83.136 
L 108.930516 85.824 
L 109.255495 85.824 
L 109.905455 72.384 
L 110.230434 69.696 
L 110.555414 72.384 
L 110.880393 72.384 
L 111.205373 85.824 
L 111.530352 91.2 
L 112.180311 80.448 
L 112.505291 80.448 
L 112.83027 77.76 
L 113.15525 77.76 
L 113.480229 75.072 
L 113.805209 88.512 
L 114.130188 88.512 
L 114.455168 96.576 
L 114.780147 96.576 
L 115.105127 85.824 
L 115.430106 83.136 
L 115.755086 85.824 
L 116.080066 80.448 
L 116.730025 101.952 
L 117.055004 101.952 
L 117.379984 99.264 
L 117.704963 101.952 
L 118.029943 99.264 
L 118.354922 99.264 
L 119.004881 104.64 
L 119.65484 115.392 
L 120.629779 115.392 
L 120.954758 118.08 
L 121.279738 118.08 
L 121.604717 120.768 
L 121.929697 128.832 
L 122.254676 128.832 
L 122.904636 134.208 
L 123.229615 134.208 
L 123.879574 139.584 
L 124.204554 144.96 
L 124.529533 144.96 
L 124.854513 147.648 
L 125.179492 147.648 
L 125.829451 158.4 
L 126.154431 161.088 
L 126.47941 158.4 
L 126.80439 161.088 
L 127.129369 166.464 
L 128.754267 179.904 
L 129.079247 177.216 
L 129.404226 182.592 
L 129.729206 185.28 
L 130.054185 190.656 
L 130.379165 193.344 
L 130.704144 198.72 
L 131.354103 198.72 
L 131.679083 196.032 
L 132.329042 201.408 
L 132.654021 201.408 
L 133.953939 212.16 
L 134.278919 206.784 
L 134.603898 212.16 
L 134.928878 209.472 
L 135.253857 214.848 
L 135.578837 217.536 
L 135.903817 214.848 
L 136.553776 220.224 
L 136.878755 214.848 
L 137.203735 217.536 
L 137.853694 217.536 
L 138.178673 214.848 
L 138.503653 217.536 
L 139.153612 217.536 
L 139.478591 214.848 
L 139.803571 220.224 
L 140.12855 214.848 
L 140.45353 214.848 
L 140.778509 212.16 
L 141.428468 212.16 
L 141.753448 214.848 
L 142.078428 209.472 
L 142.403407 212.16 
L 142.728387 212.16 
L 143.378346 198.72 
L 144.028305 193.344 
L 144.353284 193.344 
L 144.678264 187.968 
L 145.003243 190.656 
L 145.653202 190.656 
L 145.978182 185.28 
L 146.628141 171.84 
L 147.603079 163.776 
L 147.928059 166.464 
L 148.253038 182.592 
L 149.227977 271.296 
L 149.552957 279.36 
L 149.877936 279.36 
L 150.202916 290.112 
L 150.852875 290.112 
L 151.177854 284.736 
L 152.477772 252.48 
L 152.802752 249.792 
L 153.127731 255.168 
L 154.752629 292.8 
L 155.077609 290.112 
L 155.402588 290.112 
L 155.727568 276.672 
L 156.377527 263.232 
L 156.702506 257.856 
L 157.027486 257.856 
L 157.352465 260.544 
L 157.677445 260.544 
L 158.327404 276.672 
L 158.652383 279.36 
L 158.977363 276.672 
L 159.302342 282.048 
L 159.627322 282.048 
L 159.952301 279.36 
L 160.277281 271.296 
L 160.60226 268.608 
L 160.92724 260.544 
L 161.252219 263.232 
L 161.577199 263.232 
L 161.902179 268.608 
L 162.227158 268.608 
L 162.552138 271.296 
L 162.877117 265.92 
L 163.527076 276.672 
L 163.852056 279.36 
L 164.502015 268.608 
L 165.151974 263.232 
L 165.476953 263.232 
L 165.801933 271.296 
L 166.126912 268.608 
L 166.451892 276.672 
L 166.776871 276.672 
L 167.42683 282.048 
L 167.75181 282.048 
L 168.07679 271.296 
L 168.726749 265.92 
L 169.051728 260.544 
L 169.376708 263.232 
L 170.026667 273.984 
L 170.351646 276.672 
L 170.676626 271.296 
L 171.001605 276.672 
L 171.326585 276.672 
L 171.651564 282.048 
L 172.301523 276.672 
L 172.626503 271.296 
L 172.951482 268.608 
L 173.276462 260.544 
L 173.601441 260.544 
L 173.926421 265.92 
L 174.2514 268.608 
L 174.57638 268.608 
L 175.226339 282.048 
L 175.551319 284.736 
L 175.876298 279.36 
L 176.201278 282.048 
L 176.526257 282.048 
L 176.851237 276.672 
L 177.176216 265.92 
L 177.501196 260.544 
L 177.826175 260.544 
L 178.151155 263.232 
L 178.476134 260.544 
L 178.801114 255.168 
L 179.126093 252.48 
L 180.101032 209.472 
L 180.426011 209.472 
L 180.750991 222.912 
L 181.075971 241.728 
L 181.40095 249.792 
L 182.050909 212.16 
L 182.700868 161.088 
L 183.025848 153.024 
L 183.350827 174.528 
L 183.675807 204.096 
L 184.000786 220.224 
L 184.325766 201.408 
L 184.975725 142.272 
L 185.300704 128.832 
L 185.625684 136.896 
L 185.950663 155.712 
L 186.275643 163.776 
L 186.600622 161.088 
L 186.925602 142.272 
L 187.250581 136.896 
L 187.575561 134.208 
L 187.900541 136.896 
L 188.22552 128.832 
L 188.875479 93.888 
L 189.200459 107.328 
L 189.525438 134.208 
L 189.850418 150.336 
L 190.175397 142.272 
L 190.825356 80.448 
L 191.150336 72.384 
L 191.475315 85.824 
L 191.800295 118.08 
L 192.125274 131.52 
L 192.450254 120.768 
L 192.775233 99.264 
L 193.100213 85.824 
L 193.425192 80.448 
L 193.750172 85.824 
L 194.075152 80.448 
L 194.400131 80.448 
L 194.725111 85.824 
L 195.05009 101.952 
L 195.37507 110.016 
L 195.700049 107.328 
L 196.350008 64.32 
L 196.674988 53.568 
L 197.649926 112.704 
L 197.974906 104.64 
L 198.299885 83.136 
L 198.624865 69.696 
L 198.949844 64.32 
L 199.599803 75.072 
L 199.924783 83.136 
L 200.249762 85.824 
L 200.574742 91.2 
L 200.899722 91.2 
L 201.224701 85.824 
L 201.87466 61.632 
L 202.19964 67.008 
L 202.524619 77.76 
L 202.849599 93.888 
L 203.174578 96.576 
L 203.499558 91.2 
L 203.824537 77.76 
L 204.474496 61.632 
L 205.449435 83.136 
L 205.774414 80.448 
L 206.099394 85.824 
L 206.749353 80.448 
L 207.074333 67.008 
L 207.399312 72.384 
L 207.724292 75.072 
L 208.049271 85.824 
L 208.374251 91.2 
L 208.69923 91.2 
L 209.02421 77.76 
L 209.674169 61.632 
L 209.999148 67.008 
L 210.324128 77.76 
L 210.649107 83.136 
L 210.974087 85.824 
L 211.299066 85.824 
L 211.624046 80.448 
L 211.949025 77.76 
L 212.274005 69.696 
L 212.598984 69.696 
L 212.923964 72.384 
L 213.573923 83.136 
L 213.898903 85.824 
L 214.223882 80.448 
L 214.548862 77.76 
L 214.873841 67.008 
L 215.198821 67.008 
L 215.5238 77.76 
L 216.173759 88.512 
L 216.498739 91.2 
L 216.823718 85.824 
L 217.148698 83.136 
L 217.473677 75.072 
L 218.448616 83.136 
L 219.098575 93.888 
L 219.423554 93.888 
L 219.748534 91.2 
L 220.073514 83.136 
L 220.398493 83.136 
L 220.723473 85.824 
L 221.048452 85.824 
L 221.698411 99.264 
L 222.023391 101.952 
L 222.34837 101.952 
L 222.67335 96.576 
L 222.998329 99.264 
L 223.323309 104.64 
L 223.648288 104.64 
L 223.973268 110.016 
L 224.298247 112.704 
L 224.623227 118.08 
L 224.948206 118.08 
L 225.273186 112.704 
L 225.598165 112.704 
L 225.923145 118.08 
L 226.248124 120.768 
L 226.898084 131.52 
L 227.548043 136.896 
L 227.873022 134.208 
L 228.198002 136.896 
L 228.522981 136.896 
L 228.847961 142.272 
L 229.17294 142.272 
L 229.822899 147.648 
L 230.147879 153.024 
L 230.472858 153.024 
L 230.797838 158.4 
L 231.122817 161.088 
L 231.447797 161.088 
L 231.772776 163.776 
L 232.097756 171.84 
L 232.422735 174.528 
L 232.747715 179.904 
L 233.072695 174.528 
L 233.397674 179.904 
L 233.722654 177.216 
L 234.047633 182.592 
L 234.372613 182.592 
L 235.022572 193.344 
L 235.347551 196.032 
L 235.672531 193.344 
L 236.32249 198.72 
L 236.647469 196.032 
L 236.972449 196.032 
L 237.622408 206.784 
L 237.947387 209.472 
L 238.272367 206.784 
L 238.597346 209.472 
L 239.572285 209.472 
L 239.897265 212.16 
L 240.222244 212.16 
L 240.547224 217.536 
L 240.872203 214.848 
L 241.522162 220.224 
L 241.847142 217.536 
L 242.497101 217.536 
L 242.82208 220.224 
L 243.14706 220.224 
L 243.472039 214.848 
L 243.797019 217.536 
L 244.121998 214.848 
L 244.446978 220.224 
L 244.771957 217.536 
L 245.096937 217.536 
L 245.421916 214.848 
L 245.746896 214.848 
L 246.071876 206.784 
L 246.721835 212.16 
L 247.046814 212.16 
L 247.371794 206.784 
L 247.696773 209.472 
L 248.671712 193.344 
L 249.321671 193.344 
L 249.64665 196.032 
L 250.296609 190.656 
L 250.621589 185.28 
L 250.946568 182.592 
L 251.271548 174.528 
L 251.596527 174.528 
L 252.246486 163.776 
L 252.571466 163.776 
L 252.896446 174.528 
L 254.196364 273.984 
L 254.846323 290.112 
L 255.171302 292.8 
L 255.496282 292.8 
L 256.146241 287.424 
L 256.7962 268.608 
L 257.446159 255.168 
L 257.771138 252.48 
L 258.096118 263.232 
L 258.421097 268.608 
L 259.396036 295.488 
L 259.721016 295.488 
L 260.045995 292.8 
L 261.020934 268.608 
L 261.345913 265.92 
L 261.670893 257.856 
L 261.995872 257.856 
L 262.320852 263.232 
L 262.970811 268.608 
L 263.29579 279.36 
L 263.62077 279.36 
L 263.945749 282.048 
L 264.270729 279.36 
L 264.595708 279.36 
L 265.245667 273.984 
L 265.570647 265.92 
L 266.220606 265.92 
L 266.545586 268.608 
L 267.195545 268.608 
L 267.845504 273.984 
L 268.170483 273.984 
L 268.820442 284.736 
L 269.145422 279.36 
L 269.470401 265.92 
L 269.795381 265.92 
L 270.12036 263.232 
L 270.44534 268.608 
L 270.770319 268.608 
L 271.095299 271.296 
L 271.420278 271.296 
L 271.745258 276.672 
L 272.070238 276.672 
L 272.395217 279.36 
L 272.720197 276.672 
L 273.045176 271.296 
L 274.020115 263.232 
L 274.345094 265.92 
L 274.670074 265.92 
L 274.995053 271.296 
L 275.320033 271.296 
L 275.645012 276.672 
L 275.969992 276.672 
L 276.294971 279.36 
L 276.619951 279.36 
L 276.94493 282.048 
L 277.594889 268.608 
L 277.919869 265.92 
L 278.244848 260.544 
L 278.894808 265.92 
L 279.219787 265.92 
L 279.544767 271.296 
L 279.869746 271.296 
L 280.194726 276.672 
L 280.519705 279.36 
L 280.844685 284.736 
L 281.169664 284.736 
L 281.494644 279.36 
L 281.819623 271.296 
L 282.144603 268.608 
L 282.469582 260.544 
L 283.444521 260.544 
L 283.7695 255.168 
L 284.09448 247.104 
L 285.069419 204.096 
L 285.394398 212.16 
L 285.719378 225.6 
L 286.044357 247.104 
L 286.369337 244.416 
L 287.019296 201.408 
L 287.669255 150.336 
L 287.994234 155.712 
L 288.644193 212.16 
L 288.969173 214.848 
L 289.294152 193.344 
L 289.619132 158.4 
L 289.944111 136.896 
L 290.269091 128.832 
L 290.91905 161.088 
L 291.244029 169.152 
L 291.569009 155.712 
L 291.893989 136.896 
L 292.218968 136.896 
L 292.543948 139.584 
L 292.868927 136.896 
L 293.193907 123.456 
L 293.518886 101.952 
L 293.843866 96.576 
L 294.818804 153.024 
L 295.143784 134.208 
L 295.468763 96.576 
L 295.793743 75.072 
L 296.118722 75.072 
L 296.768681 128.832 
L 297.093661 131.52 
L 298.0686 80.448 
L 298.393579 85.824 
L 298.718559 85.824 
L 299.043538 83.136 
L 299.368518 83.136 
L 300.018477 107.328 
L 300.343456 112.704 
L 301.318395 53.568 
L 301.643374 61.632 
L 302.293333 107.328 
L 302.618313 112.704 
L 302.943292 99.264 
L 303.268272 77.76 
L 303.593251 64.32 
L 305.218149 91.2 
L 305.543129 93.888 
L 305.868108 88.512 
L 306.193088 85.824 
L 306.518067 69.696 
L 306.843047 64.32 
L 307.168026 72.384 
L 307.817985 96.576 
L 308.142965 101.952 
L 308.792924 75.072 
L 309.117903 67.008 
L 309.442883 69.696 
L 309.767862 75.072 
L 310.092842 85.824 
L 310.417821 85.824 
L 310.742801 88.512 
L 311.067781 80.448 
L 311.39276 83.136 
L 311.71774 75.072 
L 312.367699 75.072 
L 312.692678 80.448 
L 313.017658 91.2 
L 313.342637 93.888 
L 313.992596 75.072 
L 314.317576 67.008 
L 314.642555 67.008 
L 315.617494 88.512 
L 315.942473 88.512 
L 316.267453 80.448 
L 316.592432 80.448 
L 316.917412 75.072 
L 317.242391 72.384 
L 317.567371 72.384 
L 318.54231 88.512 
L 318.867289 83.136 
L 319.192269 80.448 
L 319.517248 75.072 
L 320.167207 69.696 
L 321.142146 91.2 
L 321.467125 85.824 
L 321.792105 85.824 
L 322.117084 77.76 
L 322.442064 80.448 
L 322.767043 77.76 
L 323.417002 83.136 
L 323.741982 93.888 
L 324.391941 93.888 
L 325.0419 83.136 
L 325.36688 83.136 
L 326.341818 99.264 
L 326.666798 99.264 
L 326.991777 101.952 
L 327.316757 96.576 
L 327.641736 101.952 
L 327.966716 99.264 
L 328.291695 101.952 
L 328.941654 112.704 
L 329.266634 110.016 
L 329.591613 115.392 
L 329.916593 118.08 
L 330.241572 112.704 
L 330.566552 115.392 
L 331.541491 131.52 
L 331.86647 128.832 
L 332.19145 134.208 
L 332.516429 136.896 
L 333.166388 136.896 
L 333.491368 139.584 
L 333.816347 144.96 
L 334.141327 144.96 
L 334.466306 147.648 
L 334.791286 153.024 
L 335.116265 155.712 
L 335.766224 155.712 
L 336.091204 161.088 
L 336.416183 161.088 
L 336.741163 169.152 
L 337.066143 171.84 
L 337.391122 177.216 
L 337.716102 174.528 
L 338.041081 177.216 
L 338.366061 177.216 
L 339.01602 182.592 
L 339.340999 187.968 
L 339.665979 185.28 
L 340.315938 196.032 
L 341.290876 196.032 
L 341.940835 201.408 
L 342.265815 198.72 
L 342.590794 206.784 
L 343.240753 212.16 
L 343.890713 212.16 
L 344.215692 209.472 
L 344.540672 212.16 
L 344.865651 209.472 
L 345.190631 214.848 
L 345.51561 217.536 
L 345.84059 217.536 
L 346.165569 214.848 
L 346.490549 217.536 
L 346.815528 217.536 
L 347.140508 220.224 
L 347.465487 214.848 
L 347.790467 217.536 
L 348.115446 214.848 
L 348.440426 220.224 
L 348.765405 220.224 
L 349.090385 217.536 
L 349.740344 217.536 
L 350.065324 214.848 
L 350.390303 214.848 
L 351.040262 209.472 
L 351.365242 209.472 
L 351.690221 212.16 
L 352.34018 212.16 
L 352.66516 201.408 
L 352.990139 204.096 
L 353.315119 196.032 
L 353.640098 198.72 
L 353.965078 193.344 
L 354.290057 196.032 
L 354.940016 196.032 
L 355.589975 182.592 
L 355.914955 182.592 
L 356.239934 179.904 
L 356.889894 166.464 
L 357.214873 166.464 
L 357.539853 171.84 
L 357.864832 182.592 
L 358.839771 265.92 
L 359.16475 276.672 
L 360.139689 292.8 
L 360.464668 290.112 
L 360.789648 290.112 
L 361.439607 271.296 
L 361.764586 255.168 
L 362.414545 255.168 
L 362.739525 260.544 
L 363.064505 260.544 
L 363.389484 273.984 
L 363.714464 279.36 
L 364.364423 292.8 
L 364.689402 292.8 
L 365.014382 284.736 
L 365.339361 282.048 
L 365.664341 268.608 
L 365.98932 263.232 
L 366.3143 260.544 
L 366.639279 255.168 
L 366.964259 255.168 
L 367.614218 268.608 
L 367.939197 273.984 
L 368.264177 273.984 
L 368.589156 279.36 
L 368.914136 279.36 
L 369.239115 282.048 
L 369.564095 279.36 
L 370.214054 268.608 
L 370.539034 260.544 
L 370.864013 260.544 
L 371.838952 268.608 
L 372.163931 268.608 
L 372.488911 271.296 
L 372.81389 276.672 
L 373.13887 279.36 
L 373.463849 273.984 
L 373.788829 276.672 
L 374.438788 265.92 
L 374.763767 263.232 
L 375.738706 271.296 
L 376.063686 265.92 
L 376.713645 279.36 
L 377.038624 279.36 
L 377.363604 273.984 
L 377.688583 276.672 
L 378.338542 265.92 
L 378.663522 257.856 
L 378.988501 263.232 
L 379.313481 263.232 
L 379.63846 268.608 
L 379.96344 268.608 
L 380.288419 273.984 
L 380.613399 273.984 
L 380.938378 276.672 
L 381.263358 273.984 
L 381.913317 279.36 
L 382.563276 265.92 
L 382.888256 265.92 
L 383.213235 263.232 
L 383.863194 263.232 
L 384.188174 271.296 
L 384.513153 273.984 
L 384.838133 279.36 
L 385.488092 284.736 
L 386.138051 284.736 
L 386.46303 279.36 
L 387.112989 265.92 
L 387.437969 263.232 
L 388.087928 263.232 
L 388.412907 260.544 
L 388.737887 255.168 
L 389.712826 212.16 
L 390.037805 206.784 
L 390.362785 220.224 
L 390.687764 239.04 
L 391.012744 249.792 
L 391.337723 239.04 
L 392.312662 166.464 
L 392.637641 153.024 
L 392.962621 163.776 
L 393.2876 201.408 
L 393.61258 220.224 
L 393.937559 209.472 
L 394.587518 144.96 
L 394.912498 126.144 
L 395.237477 134.208 
L 395.887437 163.776 
L 396.212416 166.464 
L 396.862375 131.52 
L 397.187355 134.208 
L 397.512334 139.584 
L 397.837314 134.208 
L 398.487273 99.264 
L 398.487273 99.264 
" clip-path="url(#pc5cd8dcf9b)" style="fill: none; stroke: #2ca02c; stroke-width: 1.5; stroke-linecap: square"/>
   </g>
   <g id="patch_3">
    <path d="M 57.6 307.584 
L 57.6 41.472 
" style="fill: none; stroke: #000000; stroke-width: 0.8; stroke-linejoin: miter; stroke-linecap: square"/>
   </g>
   <g id="patch_4">
    <path d="M 414.72 307.584 
L 414.72 41.472 
" style="fill: none; stroke: #000000; stroke-width: 0.8; stroke-linejoin: miter; stroke-linecap: square"/>
   </g>
   <g id="patch_5">
    <path d="M 57.6 307.584 
L 414.72 307.584 
" style="fill: none; stroke: #000000; stroke-width: 0.8; stroke-linejoin: miter; stroke-linecap: square"/>
   </g>
   <g id="patch_6">
    <path d="M 57.6 41.472 
L 414.72 41.472 
" style="fill: none; stroke: #000000; stroke-width: 0.8; stroke-linejoin: miter; stroke-linecap: square"/>
   </g>
  </g>
 </g>
 <defs>
  <clipPath id="pc5cd8dcf9b">
   <rect x="57.6" y="41.472" width="357.12" height="266.112"/>
  </clipPath>
 </defs>
</svg>
