<?xml version="1.0" encoding="utf-8" standalone="no"?>
<!DOCTYPE svg PUBLIC "-//W3C//DTD SVG 1.1//EN"
  "http://www.w3.org/Graphics/SVG/1.1/DTD/svg11.dtd">
<svg xmlns:xlink="http://www.w3.org/1999/xlink" width="460.8pt" height="345.6pt" viewBox="0 0 460.8 345.6" xmlns="http://www.w3.org/2000/svg" version="1.1">
 <metadata>
  <rdf:RDF xmlns:dc="http://purl.org/dc/elements/1.1/" xmlns:cc="http://creativecommons.org/ns#" xmlns:rdf="http://www.w3.org/1999/02/22-rdf-syntax-ns#">
   <cc:Work>
    <dc:type rdf:resource="http://purl.org/dc/dcmitype/StillImage"/>
    <dc:date>2025-12-31T09:47:36.657857</dc:date>
    <dc:format>image/svg+xml</dc:format>
    <dc:creator>
     <cc:Agent>
      <dc:title>Matplotlib v3.10.8, https://matplotlib.org/</dc:title>
     </cc:Agent>
    </dc:creator>
   </cc:Work>
  </rdf:RDF>
 </metadata>
 <defs>
  <style type="text/css">*{stroke-linejoin: round; stroke-linecap: butt}</style>
 </defs>
 <g id="figure_1">
  <g id="patch_1">
   <path d="M 0 345.6 
L 460.8 345.6 
L 460.8 0 
L 0 0 
z
" style="fill: #ffffff"/>
  </g>
  <g id="axes_1">
   <g id="patch_2">
    <path d="M 57.6 307.584 
L 414.72 307.584 
L 414.72 41.472 
L 57.6 41.472 
z
" style="fill: #ffffff"/>
   </g>
   <g id="matplotlib.axis_1">
    <g id="xtick_1">
     <g id="line2d_1">
      <defs>
       <path id="m23c5d12a00" d="M 0 0 
L 0 3.5 
" style="stroke: #000000; stroke-width: 0.8"/>
      </defs>
      <g>
       <use xlink:href="#m23c5d12a00" x="73.832727" y="307.584" style="stroke: #000000; stroke-width: 0.8"/>
      </g>
     </g>
     <g id="text_1">
      <!-- 0 -->
      <g transform="translate(70.651477 322.182437) scale(0.1 -0.1)">
       <defs>
        <path id="DejaVuSans-30" d="M 2034 4250 
Q 1547 4250 1301 3770 
Q 1056 3291 1056 2328 
Q 1056 1369 1301 889 
Q 1547 409 2034 409 
Q 2525 409 2770 889 
Q 3016 1369 3016 2328 
Q 3016 3291 2770 3770 
Q 2525 4250 2034 4250 
z
M 2034 4750 
Q 2819 4750 3233 4129 
Q 3647 3509 3647 2328 
Q 3647 1150 3233 529 
Q 2819 -91 2034 -91 
Q 1250 -91 836 529 
Q 422 1150 422 2328 
Q 422 3509 836 4129 
Q 1250 4750 2034 4750 
z
" transform="scale(0.015625)"/>
       </defs>
       <use xlink:href="#DejaVuSans-30"/>
      </g>
     </g>
    </g>
    <g id="xtick_2">
     <g id="line2d_2">
      <g>
       <use xlink:href="#m23c5d12a00" x="138.828632" y="307.584" style="stroke: #000000; stroke-width: 0.8"/>
      </g>
     </g>
     <g id="text_2">
      <!-- 1 -->
      <g transform="translate(135.647382 322.182437) scale(0.1 -0.1)">
       <defs>
        <path id="DejaVuSans-31" d="M 794 531 
L 1825 531 
L 1825 4091 
L 703 3866 
L 703 4441 
L 1819 4666 
L 2450 4666 
L 2450 531 
L 3481 531 
L 3481 0 
L 794 0 
L 794 531 
z
" transform="scale(0.015625)"/>
       </defs>
       <use xlink:href="#DejaVuSans-31"/>
      </g>
     </g>
    </g>
    <g id="xtick_3">
     <g id="line2d_3">
      <g>
       <use xlink:href="#m23c5d12a00" x="203.824537" y="307.584" style="stroke: #000000; stroke-width: 0.8"/>
      </g>
     </g>
     <g id="text_3">
      <!-- 2 -->
      <g transform="translate(200.643287 322.182437) scale(0.1 -0.1)">
       <defs>
        <path id="DejaVuSans-32" d="M 1228 531 
L 3431 531 
L 3431 0 
L 469 0 
L 469 531 
Q 828 903 1448 1529 
Q 2069 2156 2228 2338 
Q 2531 2678 2651 2914 
Q 2772 3150 2772 3378 
Q 2772 3750 2511 3984 
Q 2250 4219 1831 4219 
Q 1534 4219 1204 4116 
Q 875 4013 500 3803 
L 500 4441 
Q 881 4594 1212 4672 
Q 1544 4750 1819 4750 
Q 2544 4750 2975 4387 
Q 3406 4025 3406 3419 
Q 3406 3131 3298 2873 
Q 3191 2616 2906 2266 
Q 2828 2175 2409 1742 
Q 1991 1309 1228 531 
z
" transform="scale(0.015625)"/>
       </defs>
       <use xlink:href="#DejaVuSans-32"/>
      </g>
     </g>
    </g>
    <g id="xtick_4">
     <g id="line2d_4">
      <g>
       <use xlink:href="#m23c5d12a00" x="268.820442" y="307.584" style="stroke: #000000; stroke-width: 0.8"/>
      </g>
     </g>
     <g id="text_4">
      <!-- 3 -->
      <g transform="translate(265.639192 322.182437) scale(0.1 -0.1)">
       <defs>
        <path id="DejaVuSans-33" d="M 2597 2516 
Q 3050 2419 3304 2112 
Q 3559 1806 3559 1356 
Q 3559 666 3084 287 
Q 2609 -91 1734 -91 
Q 1441 -91 1130 -33 
Q 819 25 488 141 
L 488 750 
Q 750 597 1062 519 
Q 1375 441 1716 441 
Q 2309 441 2620 675 
Q 2931 909 2931 1356 
Q 2931 1769 2642 2001 
Q 2353 2234 1838 2234 
L 1294 2234 
L 1294 2753 
L 1863 2753 
Q 2328 2753 2575 2939 
Q 2822 3125 2822 3475 
Q 2822 3834 2567 4026 
Q 2313 4219 1838 4219 
Q 1578 4219 1281 4162 
Q 984 4106 628 3988 
L 628 4550 
Q 988 4650 1302 4700 
Q 1616 4750 1894 4750 
Q 2613 4750 3031 4423 
Q 3450 4097 3450 3541 
Q 3450 3153 3228 2886 
Q 3006 2619 2597 2516 
z
" transform="scale(0.015625)"/>
       </defs>
       <use xlink:href="#DejaVuSans-33"/>
      </g>
     </g>
    </g>
    <g id="xtick_5">
     <g id="line2d_5">
      <g>
       <use xlink:href="#m23c5d12a00" x="333.816347" y="307.584" style="stroke: #000000; stroke-width: 0.8"/>
      </g>
     </g>
     <g id="text_5">
      <!-- 4 -->
      <g transform="translate(330.635097 322.182437) scale(0.1 -0.1)">
       <defs>
        <path id="DejaVuSans-34" d="M 2419 4116 
L 825 1625 
L 2419 1625 
L 2419 4116 
z
M 2253 4666 
L 3047 4666 
L 3047 1625 
L 3713 1625 
L 3713 1100 
L 3047 1100 
L 3047 0 
L 2419 0 
L 2419 1100 
L 313 1100 
L 313 1709 
L 2253 4666 
z
" transform="scale(0.015625)"/>
       </defs>
       <use xlink:href="#DejaVuSans-34"/>
      </g>
     </g>
    </g>
    <g id="xtick_6">
     <g id="line2d_6">
      <g>
       <use xlink:href="#m23c5d12a00" x="398.812252" y="307.584" style="stroke: #000000; stroke-width: 0.8"/>
      </g>
     </g>
     <g id="text_6">
      <!-- 5 -->
      <g transform="translate(395.631002 322.182437) scale(0.1 -0.1)">
       <defs>
        <path id="DejaVuSans-35" d="M 691 4666 
L 3169 4666 
L 3169 4134 
L 1269 4134 
L 1269 2991 
Q 1406 3038 1543 3061 
Q 1681 3084 1819 3084 
Q 2600 3084 3056 2656 
Q 3513 2228 3513 1497 
Q 3513 744 3044 326 
Q 2575 -91 1722 -91 
Q 1428 -91 1123 -41 
Q 819 9 494 109 
L 494 744 
Q 775 591 1075 516 
Q 1375 441 1709 441 
Q 2250 441 2565 725 
Q 2881 1009 2881 1497 
Q 2881 1984 2565 2268 
Q 2250 2553 1709 2553 
Q 1456 2553 1204 2497 
Q 953 2441 691 2322 
L 691 4666 
z
" transform="scale(0.015625)"/>
       </defs>
       <use xlink:href="#DejaVuSans-35"/>
      </g>
     </g>
    </g>
    <g id="text_7">
     <!-- 1e−7 -->
     <g transform="translate(387.462188 334.860562) scale(0.1 -0.1)">
      <defs>
       <path id="DejaVuSans-65" d="M 3597 1894 
L 3597 1613 
L 953 1613 
Q 991 1019 1311 708 
Q 1631 397 2203 397 
Q 2534 397 2845 478 
Q 3156 559 3463 722 
L 3463 178 
Q 3153 47 2828 -22 
Q 2503 -91 2169 -91 
Q 1331 -91 842 396 
Q 353 884 353 1716 
Q 353 2575 817 3079 
Q 1281 3584 2069 3584 
Q 2775 3584 3186 3129 
Q 3597 2675 3597 1894 
z
M 3022 2063 
Q 3016 2534 2758 2815 
Q 2500 3097 2075 3097 
Q 1594 3097 1305 2825 
Q 1016 2553 972 2059 
L 3022 2063 
z
" transform="scale(0.015625)"/>
       <path id="DejaVuSans-2212" d="M 678 2272 
L 4684 2272 
L 4684 1741 
L 678 1741 
L 678 2272 
z
" transform="scale(0.015625)"/>
       <path id="DejaVuSans-37" d="M 525 4666 
L 3525 4666 
L 3525 4397 
L 1831 0 
L 1172 0 
L 2766 4134 
L 525 4134 
L 525 4666 
z
" transform="scale(0.015625)"/>
      </defs>
      <use xlink:href="#DejaVuSans-31"/>
      <use xlink:href="#DejaVuSans-65" transform="translate(63.623047 0)"/>
      <use xlink:href="#DejaVuSans-2212" transform="translate(125.146484 0)"/>
      <use xlink:href="#DejaVuSans-37" transform="translate(208.935547 0)"/>
     </g>
    </g>
   </g>
   <g id="matplotlib.axis_2">
    <g id="ytick_1">
     <g id="line2d_7">
      <defs>
       <path id="m39c79c5c56" d="M 0 0 
L -3.5 0 
" style="stroke: #000000; stroke-width: 0.8"/>
      </defs>
      <g>
       <use xlink:href="#m39c79c5c56" x="57.6" y="274.581353" style="stroke: #000000; stroke-width: 0.8"/>
      </g>
     </g>
     <g id="text_8">
      <!-- 0 -->
      <g transform="translate(44.2375 278.380572) scale(0.1 -0.1)">
       <use xlink:href="#DejaVuSans-30"/>
      </g>
     </g>
    </g>
    <g id="ytick_2">
     <g id="line2d_8">
      <g>
       <use xlink:href="#m39c79c5c56" x="57.6" y="226.794681" style="stroke: #000000; stroke-width: 0.8"/>
      </g>
     </g>
     <g id="text_9">
      <!-- 10 -->
      <g transform="translate(37.875 230.5939) scale(0.1 -0.1)">
       <use xlink:href="#DejaVuSans-31"/>
       <use xlink:href="#DejaVuSans-30" transform="translate(63.623047 0)"/>
      </g>
     </g>
    </g>
    <g id="ytick_3">
     <g id="line2d_9">
      <g>
       <use xlink:href="#m39c79c5c56" x="57.6" y="179.00801" style="stroke: #000000; stroke-width: 0.8"/>
      </g>
     </g>
     <g id="text_10">
      <!-- 20 -->
      <g transform="translate(37.875 182.807229) scale(0.1 -0.1)">
       <use xlink:href="#DejaVuSans-32"/>
       <use xlink:href="#DejaVuSans-30" transform="translate(63.623047 0)"/>
      </g>
     </g>
    </g>
    <g id="ytick_4">
     <g id="line2d_10">
      <g>
       <use xlink:href="#m39c79c5c56" x="57.6" y="131.221338" style="stroke: #000000; stroke-width: 0.8"/>
      </g>
     </g>
     <g id="text_11">
      <!-- 30 -->
      <g transform="translate(37.875 135.020557) scale(0.1 -0.1)">
       <use xlink:href="#DejaVuSans-33"/>
       <use xlink:href="#DejaVuSans-30" transform="translate(63.623047 0)"/>
      </g>
     </g>
    </g>
    <g id="ytick_5">
     <g id="line2d_11">
      <g>
       <use xlink:href="#m39c79c5c56" x="57.6" y="83.434667" style="stroke: #000000; stroke-width: 0.8"/>
      </g>
     </g>
     <g id="text_12">
      <!-- 40 -->
      <g transform="translate(37.875 87.233885) scale(0.1 -0.1)">
       <use xlink:href="#DejaVuSans-34"/>
       <use xlink:href="#DejaVuSans-30" transform="translate(63.623047 0)"/>
      </g>
     </g>
    </g>
   </g>
   <g id="line2d_12">
    <path d="M 73.832727 251.957349 
L 74.807666 250.837349 
L 75.132645 251.210682 
L 75.457625 250.837349 
L 75.782604 250.837349 
L 76.107584 250.464015 
L 76.432563 250.837349 
L 76.757543 250.090682 
L 77.082523 250.837349 
L 77.732482 251.584015 
L 78.70742 251.584015 
L 79.357379 250.837349 
L 79.682359 250.837349 
L 80.007338 250.464015 
L 80.332318 251.210682 
L 80.657297 250.837349 
L 80.982277 251.584015 
L 81.307256 251.210682 
L 81.632236 251.584015 
L 81.957215 251.210682 
L 82.607174 251.210682 
L 82.932154 251.584015 
L 83.257133 251.584015 
L 83.582113 251.210682 
L 84.557052 251.210682 
L 84.882031 250.837349 
L 85.85697 251.957349 
L 86.506929 251.210682 
L 86.831908 251.210682 
L 87.481867 256.437349 
L 87.806847 259.050683 
L 88.456806 261.664017 
L 88.781785 265.024017 
L 90.081704 283.317354 
L 90.731663 285.557354 
L 91.706601 284.437354 
L 92.35656 281.82402 
L 93.331499 272.490685 
L 93.656478 271.370685 
L 94.306437 272.117352 
L 94.631417 271.370685 
L 95.281376 270.624018 
L 95.606355 270.624018 
L 95.931335 273.237352 
L 96.581294 275.477353 
L 96.906274 274.730686 
L 97.231253 274.730686 
L 97.556233 275.850686 
L 98.206192 279.210686 
L 98.531171 278.46402 
L 98.856151 276.597353 
L 99.18113 275.477353 
L 99.50611 275.477353 
L 99.831089 276.224019 
L 100.156069 276.597353 
L 100.806028 275.104019 
L 101.131007 274.730686 
L 101.455987 274.730686 
L 101.780966 275.850686 
L 102.755905 273.610686 
L 103.080885 274.357352 
L 103.405864 275.850686 
L 103.730844 276.597353 
L 104.055823 276.224019 
L 104.380803 275.104019 
L 104.705782 274.730686 
L 105.680721 276.970686 
L 106.0057 276.224019 
L 106.33068 276.224019 
L 106.655659 275.850686 
L 106.980639 275.850686 
L 107.305618 275.477353 
L 107.630598 275.477353 
L 107.955577 275.104019 
L 108.280557 275.104019 
L 109.255495 276.224019 
L 109.580475 275.477353 
L 109.905455 275.104019 
L 110.230434 275.104019 
L 110.880393 275.850686 
L 111.205373 275.850686 
L 111.530352 276.224019 
L 111.855332 276.224019 
L 112.180311 275.850686 
L 112.83027 275.850686 
L 113.15525 275.104019 
L 113.480229 275.104019 
L 114.130188 275.850686 
L 114.455168 275.850686 
L 114.780147 275.477353 
L 115.105127 275.477353 
L 115.430106 274.730686 
L 116.080066 274.730686 
L 116.730025 275.477353 
L 117.379984 275.477353 
L 117.704963 275.104019 
L 118.029943 275.477353 
L 118.354922 274.730686 
L 119.329861 274.730686 
L 119.97982 275.477353 
L 120.304799 275.477353 
L 120.954758 274.730686 
L 121.279738 275.104019 
L 121.604717 274.730686 
L 122.254676 274.730686 
L 122.579656 275.477353 
L 123.229615 275.477353 
L 123.554595 275.104019 
L 123.879574 275.104019 
L 124.204554 275.477353 
L 125.179492 275.477353 
L 125.504472 275.850686 
L 126.154431 275.104019 
L 126.80439 275.104019 
L 127.129369 275.477353 
L 127.454349 275.104019 
L 127.779328 275.477353 
L 128.104308 275.477353 
L 128.429287 275.850686 
L 129.404226 274.730686 
L 129.729206 275.104019 
L 130.054185 275.850686 
L 130.379165 275.477353 
L 130.704144 275.850686 
L 131.029124 275.477353 
L 131.354103 275.850686 
L 132.004062 275.104019 
L 132.329042 275.477353 
L 132.654021 275.477353 
L 132.979001 275.850686 
L 133.30398 275.104019 
L 133.62896 275.477353 
L 133.953939 275.104019 
L 134.928878 275.104019 
L 135.253857 275.477353 
L 135.578837 275.477353 
L 135.903817 275.850686 
L 136.553776 275.104019 
L 137.203735 275.104019 
L 137.528714 275.477353 
L 137.853694 275.104019 
L 138.503653 275.850686 
L 139.153612 275.850686 
L 139.478591 275.477353 
L 139.803571 275.477353 
L 140.12855 275.104019 
L 140.45353 275.477353 
L 140.778509 275.477353 
L 141.103489 275.850686 
L 141.428468 275.477353 
L 141.753448 275.850686 
L 142.078428 275.104019 
L 142.403407 275.104019 
L 142.728387 275.850686 
L 143.053366 275.850686 
L 143.703325 275.104019 
L 144.028305 275.850686 
L 144.353284 275.104019 
L 144.678264 275.104019 
L 145.003243 275.850686 
L 146.303161 275.850686 
L 146.628141 275.477353 
L 146.95312 275.850686 
L 147.2781 275.850686 
L 147.928059 276.597353 
L 148.253038 276.597353 
L 148.578018 276.224019 
L 148.902998 276.224019 
L 149.552957 275.477353 
L 149.877936 275.477353 
L 150.202916 275.850686 
L 150.527895 275.850686 
L 151.177854 275.104019 
L 151.502834 275.104019 
L 151.827813 275.477353 
L 152.152793 276.224019 
L 152.802752 275.477353 
L 153.127731 275.477353 
L 153.77769 272.864019 
L 154.752629 264.650684 
L 155.402588 258.67735 
L 156.052547 255.317349 
L 158.002424 248.970682 
L 158.327404 248.970682 
L 158.652383 248.224015 
L 158.977363 247.850681 
L 159.302342 246.730681 
L 159.952301 247.477348 
L 160.277281 247.477348 
L 160.60226 248.224015 
L 160.92724 248.224015 
L 161.252219 248.970682 
L 161.577199 249.344015 
L 161.902179 250.090682 
L 162.552138 250.837349 
L 162.877117 250.837349 
L 163.202097 250.464015 
L 163.527076 251.210682 
L 164.177035 251.957349 
L 164.502015 251.957349 
L 164.826994 252.330682 
L 165.151974 253.450682 
L 165.476953 252.704015 
L 165.801933 253.077349 
L 166.126912 252.704015 
L 166.451892 252.704015 
L 166.776871 251.957349 
L 167.101851 252.330682 
L 167.75181 252.330682 
L 168.07679 251.584015 
L 168.401769 251.210682 
L 168.726749 251.584015 
L 169.701687 251.584015 
L 170.026667 251.210682 
L 170.676626 251.210682 
L 171.326585 250.464015 
L 171.651564 250.837349 
L 172.301523 250.837349 
L 172.626503 251.584015 
L 172.951482 251.957349 
L 173.601441 251.210682 
L 173.926421 251.584015 
L 174.90136 251.584015 
L 175.551319 250.837349 
L 175.876298 251.210682 
L 176.201278 251.210682 
L 176.851237 251.957349 
L 177.176216 251.584015 
L 177.501196 251.957349 
L 178.151155 251.957349 
L 178.801114 251.210682 
L 179.451073 251.210682 
L 179.776052 251.584015 
L 180.101032 251.210682 
L 180.426011 251.210682 
L 180.750991 251.584015 
L 181.40095 251.584015 
L 181.72593 251.957349 
L 182.050909 251.957349 
L 182.375889 251.584015 
L 182.700868 251.584015 
L 183.025848 253.450682 
L 183.675807 259.050683 
L 184.000786 260.170683 
L 184.325766 262.03735 
L 184.650745 265.024017 
L 185.950663 283.317354 
L 186.600622 285.930688 
L 187.575561 284.810687 
L 187.900541 283.690687 
L 188.5505 278.837353 
L 189.200459 272.117352 
L 189.525438 271.370685 
L 189.850418 270.997352 
L 190.500377 270.997352 
L 190.825356 270.624018 
L 191.150336 270.624018 
L 191.800295 273.237352 
L 192.125274 274.730686 
L 192.450254 275.104019 
L 192.775233 274.730686 
L 193.100213 275.104019 
L 193.425192 276.224019 
L 194.075152 279.58402 
L 195.05009 274.730686 
L 195.37507 275.104019 
L 195.700049 275.850686 
L 196.025029 276.224019 
L 196.674988 274.730686 
L 196.999967 274.357352 
L 197.324947 274.357352 
L 197.649926 274.730686 
L 198.299885 273.984019 
L 198.624865 273.237352 
L 199.599803 276.597353 
L 199.924783 276.224019 
L 200.249762 275.477353 
L 200.574742 275.104019 
L 200.899722 275.104019 
L 201.224701 276.224019 
L 201.549681 276.224019 
L 201.87466 276.597353 
L 202.19964 275.850686 
L 202.524619 275.850686 
L 202.849599 276.224019 
L 203.174578 275.477353 
L 203.499558 275.477353 
L 204.149517 274.730686 
L 204.474496 275.850686 
L 205.124455 275.850686 
L 205.449435 275.104019 
L 205.774414 275.477353 
L 206.099394 275.104019 
L 206.749353 275.850686 
L 207.399312 275.850686 
L 207.724292 275.477353 
L 208.049271 275.850686 
L 208.374251 275.477353 
L 208.69923 275.477353 
L 209.02421 275.104019 
L 209.349189 275.104019 
L 209.674169 275.850686 
L 209.999148 275.850686 
L 210.324128 276.224019 
L 210.649107 275.850686 
L 210.974087 275.850686 
L 211.624046 275.104019 
L 212.274005 275.104019 
L 212.598984 275.850686 
L 212.923964 275.477353 
L 214.223882 275.477353 
L 214.548862 274.730686 
L 214.873841 274.730686 
L 215.198821 275.477353 
L 215.5238 275.850686 
L 215.84878 275.850686 
L 216.498739 275.104019 
L 216.823718 275.477353 
L 217.148698 275.104019 
L 217.798657 275.850686 
L 218.123636 275.850686 
L 218.448616 276.224019 
L 218.773595 275.477353 
L 219.098575 275.477353 
L 219.748534 274.730686 
L 220.398493 274.730686 
L 220.723473 275.477353 
L 221.048452 275.477353 
L 221.373432 275.104019 
L 221.698411 275.104019 
L 222.023391 275.477353 
L 222.34837 275.104019 
L 222.67335 275.477353 
L 222.998329 275.477353 
L 223.323309 275.104019 
L 223.648288 275.477353 
L 224.298247 275.477353 
L 224.623227 274.730686 
L 224.948206 275.477353 
L 225.273186 275.477353 
L 225.598165 275.104019 
L 225.923145 275.104019 
L 226.248124 275.477353 
L 226.898084 275.477353 
L 227.223063 275.850686 
L 227.548043 275.104019 
L 227.873022 275.104019 
L 228.198002 275.477353 
L 228.522981 275.477353 
L 228.847961 275.850686 
L 229.17294 275.477353 
L 229.49792 275.477353 
L 229.822899 275.104019 
L 230.797838 275.104019 
L 231.122817 275.850686 
L 231.447797 275.104019 
L 232.097756 275.104019 
L 232.422735 275.477353 
L 233.072695 274.730686 
L 233.397674 274.730686 
L 233.722654 275.104019 
L 234.372613 275.104019 
L 234.697592 275.477353 
L 235.672531 275.477353 
L 235.99751 275.104019 
L 236.32249 275.850686 
L 236.647469 275.477353 
L 236.972449 275.477353 
L 237.297428 274.730686 
L 237.622408 275.104019 
L 237.947387 275.104019 
L 238.272367 275.477353 
L 238.597346 275.104019 
L 239.247305 275.850686 
L 240.222244 275.850686 
L 240.547224 275.477353 
L 240.872203 275.477353 
L 241.197183 275.850686 
L 242.497101 275.850686 
L 242.82208 276.224019 
L 243.14706 275.850686 
L 243.797019 275.850686 
L 244.121998 275.477353 
L 244.446978 276.224019 
L 244.771957 276.597353 
L 245.096937 276.224019 
L 245.421916 275.477353 
L 246.396855 275.477353 
L 246.721835 275.850686 
L 247.046814 275.104019 
L 247.371794 275.850686 
L 247.696773 275.477353 
L 248.021753 276.224019 
L 248.346732 275.850686 
L 248.671712 276.224019 
L 248.996691 275.850686 
L 249.64665 272.490685 
L 250.621589 265.024017 
L 251.271548 258.67735 
L 251.596527 256.437349 
L 251.921507 255.690683 
L 253.546405 250.090682 
L 253.871384 249.717348 
L 254.521343 248.224015 
L 255.171302 247.477348 
L 255.496282 247.477348 
L 255.821261 247.850681 
L 256.146241 247.850681 
L 256.47122 248.224015 
L 256.7962 248.224015 
L 257.121179 249.344015 
L 257.446159 249.717348 
L 257.771138 250.464015 
L 258.421097 251.210682 
L 258.746077 250.837349 
L 259.071057 251.210682 
L 259.396036 251.957349 
L 259.721016 251.957349 
L 260.045995 252.330682 
L 260.370975 252.330682 
L 261.020934 253.077349 
L 262.320852 253.077349 
L 262.645831 252.330682 
L 263.29579 251.584015 
L 263.62077 251.584015 
L 263.945749 251.210682 
L 264.270729 251.584015 
L 264.595708 251.584015 
L 264.920688 251.210682 
L 265.245667 251.584015 
L 266.545586 251.584015 
L 266.870565 251.210682 
L 267.195545 250.464015 
L 267.520524 251.210682 
L 267.845504 250.837349 
L 268.170483 251.210682 
L 268.495463 250.837349 
L 268.820442 250.837349 
L 269.145422 251.210682 
L 269.470401 251.210682 
L 269.795381 252.330682 
L 270.12036 251.957349 
L 270.44534 251.210682 
L 270.770319 251.584015 
L 271.095299 251.584015 
L 271.745258 250.837349 
L 272.070238 250.837349 
L 272.395217 251.210682 
L 272.720197 251.957349 
L 273.045176 251.584015 
L 273.370156 251.957349 
L 273.695135 251.584015 
L 274.020115 251.584015 
L 274.345094 251.957349 
L 274.670074 251.584015 
L 275.320033 251.584015 
L 275.645012 251.210682 
L 275.969992 251.210682 
L 276.294971 251.584015 
L 276.619951 251.584015 
L 277.26991 252.330682 
L 277.594889 251.957349 
L 277.919869 252.330682 
L 278.244848 251.584015 
L 278.569828 252.330682 
L 278.894808 253.824016 
L 279.544767 259.050683 
L 280.194726 262.03735 
L 280.844685 269.877352 
L 281.494644 280.330687 
L 281.819623 283.317354 
L 282.469582 285.930688 
L 282.794562 285.557354 
L 283.119541 285.557354 
L 283.444521 284.810687 
L 283.7695 283.690687 
L 284.419459 278.837353 
L 285.069419 272.490685 
L 285.394398 271.370685 
L 286.044357 271.370685 
L 286.369337 270.997352 
L 286.694316 270.250685 
L 287.019296 270.250685 
L 287.994234 274.357352 
L 288.319214 275.104019 
L 288.644193 273.984019 
L 288.969173 274.357352 
L 289.619132 278.46402 
L 289.944111 279.210686 
L 290.269091 278.090686 
L 290.91905 274.730686 
L 291.569009 276.224019 
L 291.893989 276.597353 
L 292.218968 275.850686 
L 292.543948 274.730686 
L 293.193907 273.984019 
L 293.518886 275.104019 
L 293.843866 274.730686 
L 294.493825 273.237352 
L 295.468763 276.597353 
L 295.793743 275.850686 
L 296.118722 274.730686 
L 296.443702 274.357352 
L 296.768681 274.730686 
L 297.41864 276.597353 
L 298.393579 275.477353 
L 298.718559 275.850686 
L 299.043538 275.104019 
L 299.368518 274.730686 
L 300.018477 274.730686 
L 300.668436 275.477353 
L 300.993415 275.477353 
L 301.318395 274.730686 
L 301.968354 274.730686 
L 302.618313 275.477353 
L 302.943292 275.477353 
L 303.268272 275.104019 
L 303.593251 275.104019 
L 303.918231 275.850686 
L 304.24321 275.477353 
L 304.56819 275.477353 
L 305.218149 274.730686 
L 305.543129 275.104019 
L 305.868108 275.850686 
L 306.518067 275.104019 
L 306.843047 275.104019 
L 307.168026 274.730686 
L 308.467944 276.224019 
L 308.792924 275.850686 
L 309.117903 276.224019 
L 309.442883 275.104019 
L 309.767862 275.477353 
L 310.092842 275.104019 
L 311.39276 275.104019 
L 311.71774 275.477353 
L 312.367699 275.477353 
L 313.017658 274.730686 
L 313.342637 274.730686 
L 313.667617 275.477353 
L 313.992596 275.850686 
L 314.317576 275.850686 
L 314.642555 275.104019 
L 314.967535 275.477353 
L 315.292514 275.104019 
L 315.617494 275.477353 
L 317.242391 275.477353 
L 317.567371 275.850686 
L 317.892351 275.850686 
L 318.21733 275.477353 
L 318.54231 274.730686 
L 318.867289 274.730686 
L 319.517248 275.477353 
L 319.842228 275.104019 
L 320.167207 275.477353 
L 320.492187 275.104019 
L 320.817166 275.104019 
L 321.142146 274.730686 
L 321.467125 275.104019 
L 322.442064 275.104019 
L 323.092023 275.850686 
L 323.741982 275.104019 
L 324.391941 275.104019 
L 324.716921 275.477353 
L 325.0419 275.477353 
L 325.691859 274.730686 
L 326.016839 274.730686 
L 326.666798 275.477353 
L 326.991777 275.104019 
L 327.641736 275.850686 
L 328.291695 275.850686 
L 328.941654 275.104019 
L 329.266634 275.477353 
L 329.591613 275.477353 
L 329.916593 275.850686 
L 330.566552 275.850686 
L 330.891532 275.104019 
L 331.216511 275.477353 
L 331.541491 275.104019 
L 331.86647 275.477353 
L 332.19145 275.477353 
L 332.516429 275.104019 
L 332.841409 275.104019 
L 333.491368 275.850686 
L 333.816347 275.477353 
L 334.141327 275.850686 
L 334.466306 275.850686 
L 334.791286 275.477353 
L 335.116265 275.850686 
L 335.766224 275.850686 
L 336.091204 275.477353 
L 336.741163 275.477353 
L 337.066143 275.850686 
L 337.716102 275.850686 
L 338.041081 275.477353 
L 338.366061 275.477353 
L 338.69104 275.850686 
L 339.340999 275.850686 
L 339.665979 276.224019 
L 339.990958 275.850686 
L 341.290876 275.850686 
L 341.940835 275.104019 
L 343.240753 275.104019 
L 344.215692 276.224019 
L 344.540672 276.224019 
L 344.865651 275.850686 
L 345.190631 274.730686 
L 345.51561 272.864019 
L 347.790467 254.944016 
L 348.440426 253.450682 
L 349.415364 250.464015 
L 349.740344 250.090682 
L 350.390303 248.597348 
L 350.715283 248.224015 
L 351.040262 247.477348 
L 351.365242 247.477348 
L 352.015201 248.224015 
L 352.34018 248.224015 
L 352.66516 248.597348 
L 352.990139 249.717348 
L 353.315119 249.344015 
L 353.640098 250.090682 
L 354.615037 251.210682 
L 354.940016 251.957349 
L 355.589975 251.957349 
L 355.914955 252.704015 
L 356.239934 252.704015 
L 356.564914 253.077349 
L 357.214873 253.077349 
L 357.539853 252.704015 
L 357.864832 253.077349 
L 358.189812 253.077349 
L 358.514791 252.330682 
L 358.839771 252.330682 
L 359.16475 251.584015 
L 359.48973 251.210682 
L 360.139689 251.957349 
L 360.789648 251.210682 
L 361.114627 251.584015 
L 361.439607 251.210682 
L 362.089566 251.210682 
L 362.414545 251.584015 
L 362.739525 250.464015 
L 363.064505 250.464015 
L 364.039443 251.584015 
L 364.364423 251.584015 
L 364.689402 251.210682 
L 365.339361 251.957349 
L 365.664341 251.957349 
L 365.98932 251.210682 
L 366.3143 251.584015 
L 366.639279 251.210682 
L 366.964259 251.210682 
L 367.289238 250.837349 
L 367.614218 251.210682 
L 368.264177 251.210682 
L 368.589156 251.957349 
L 368.914136 251.584015 
L 369.239115 251.957349 
L 369.564095 251.957349 
L 369.889075 251.584015 
L 370.214054 251.957349 
L 370.539034 251.957349 
L 370.864013 251.210682 
L 371.188993 251.210682 
L 371.513972 251.957349 
L 371.838952 251.210682 
L 372.163931 251.957349 
L 372.488911 251.210682 
L 372.81389 250.837349 
L 373.13887 251.584015 
L 373.788829 252.330682 
L 374.113808 251.957349 
L 374.438788 252.330682 
L 374.763767 253.450682 
L 375.413726 259.050683 
L 375.738706 260.170683 
L 376.063686 262.03735 
L 376.388665 265.397351 
L 377.363604 279.957353 
L 377.688583 282.94402 
L 378.013563 284.810687 
L 378.338542 285.184021 
L 378.663522 285.184021 
L 378.988501 285.557354 
L 379.63846 284.064021 
L 380.288419 278.837353 
L 380.938378 272.864019 
L 381.263358 271.370685 
L 381.588337 270.997352 
L 381.913317 271.744019 
L 382.238296 270.997352 
L 382.563276 269.877352 
L 382.888256 269.877352 
L 383.538215 273.610686 
L 383.863194 274.730686 
L 384.188174 275.104019 
L 384.513153 274.357352 
L 384.838133 274.730686 
L 385.488092 278.46402 
L 385.813071 278.837353 
L 386.138051 278.46402 
L 386.46303 275.850686 
L 386.78801 274.730686 
L 387.437969 276.224019 
L 387.762948 276.224019 
L 388.737887 273.984019 
L 389.062867 273.984019 
L 389.387846 274.730686 
L 389.712826 274.730686 
L 390.037805 273.984019 
L 390.362785 273.984019 
L 391.012744 275.850686 
L 391.337723 276.224019 
L 391.987682 274.730686 
L 392.312662 274.730686 
L 392.637641 275.104019 
L 392.962621 275.850686 
L 393.2876 275.850686 
L 393.61258 276.224019 
L 393.937559 275.477353 
L 394.912498 275.477353 
L 395.237477 275.104019 
L 395.562457 274.357352 
L 396.212416 275.104019 
L 396.537396 275.850686 
L 397.512334 274.730686 
L 398.487273 274.730686 
L 398.487273 274.730686 
" clip-path="url(#p32b2e54db2)" style="fill: none; stroke: #1f77b4; stroke-width: 1.5; stroke-linecap: square"/>
   </g>
   <g id="line2d_13">
    <path d="M 73.832727 274.730686 
L 74.807666 275.850686 
L 75.457625 275.104019 
L 75.782604 275.477353 
L 76.107584 275.104019 
L 77.732482 275.104019 
L 78.057461 275.850686 
L 78.382441 275.850686 
L 79.357379 274.730686 
L 79.682359 274.730686 
L 80.657297 275.850686 
L 80.982277 275.850686 
L 81.307256 275.104019 
L 82.282195 275.104019 
L 82.607174 274.357352 
L 82.932154 274.357352 
L 83.257133 275.104019 
L 83.582113 275.477353 
L 83.907093 275.477353 
L 84.232072 274.730686 
L 85.207011 274.730686 
L 85.85697 275.477353 
L 86.181949 275.104019 
L 86.506929 275.104019 
L 86.831908 274.730686 
L 87.481867 275.477353 
L 87.806847 275.104019 
L 88.781785 275.104019 
L 89.106765 275.477353 
L 89.431744 275.104019 
L 90.731663 275.104019 
L 91.056642 275.477353 
L 91.381622 275.477353 
L 91.706601 275.104019 
L 92.35656 275.104019 
L 92.68154 275.477353 
L 93.006519 275.104019 
L 93.331499 275.477353 
L 94.306437 275.477353 
L 94.631417 275.104019 
L 94.956396 275.104019 
L 95.606355 275.850686 
L 96.256314 275.104019 
L 96.581294 275.104019 
L 96.906274 274.730686 
L 97.231253 275.104019 
L 97.556233 275.104019 
L 97.881212 275.850686 
L 98.206192 275.850686 
L 98.531171 275.477353 
L 98.856151 276.224019 
L 99.18113 275.850686 
L 99.50611 276.597353 
L 99.831089 276.224019 
L 100.481048 276.224019 
L 101.131007 275.477353 
L 101.455987 275.850686 
L 101.780966 275.850686 
L 102.430925 275.104019 
L 103.080885 275.104019 
L 103.405864 274.357352 
L 103.730844 274.357352 
L 104.380803 275.104019 
L 104.705782 274.730686 
L 105.030762 274.730686 
L 105.355741 275.104019 
L 105.680721 274.357352 
L 106.33068 271.744019 
L 106.655659 269.877352 
L 107.630598 260.544017 
L 107.955577 257.930683 
L 108.605536 255.317349 
L 109.255495 253.824016 
L 109.580475 252.330682 
L 111.205373 248.597348 
L 111.530352 247.477348 
L 112.505291 247.477348 
L 112.83027 247.850681 
L 113.15525 247.850681 
L 113.805209 248.597348 
L 114.455168 248.597348 
L 115.105127 250.090682 
L 115.430106 250.090682 
L 115.755086 250.464015 
L 116.080066 251.210682 
L 116.405045 251.210682 
L 116.730025 251.584015 
L 117.055004 252.330682 
L 117.379984 252.704015 
L 117.704963 252.704015 
L 118.029943 253.077349 
L 118.354922 252.704015 
L 119.329861 252.704015 
L 119.65484 252.330682 
L 120.304799 252.330682 
L 120.629779 251.957349 
L 120.954758 251.957349 
L 121.279738 251.584015 
L 121.604717 251.957349 
L 121.929697 251.584015 
L 122.254676 251.584015 
L 122.579656 251.210682 
L 122.904636 251.210682 
L 123.554595 250.464015 
L 123.879574 250.464015 
L 124.204554 250.837349 
L 124.529533 250.837349 
L 124.854513 250.464015 
L 125.504472 251.210682 
L 126.154431 251.210682 
L 126.47941 250.837349 
L 126.80439 250.837349 
L 127.129369 250.464015 
L 127.454349 250.837349 
L 128.104308 250.837349 
L 128.429287 251.210682 
L 128.754267 251.210682 
L 129.079247 251.957349 
L 129.404226 251.584015 
L 129.729206 251.957349 
L 130.054185 251.957349 
L 130.379165 251.584015 
L 131.354103 251.584015 
L 131.679083 251.210682 
L 132.004062 251.584015 
L 132.329042 251.210682 
L 132.654021 251.584015 
L 133.30398 251.584015 
L 133.62896 251.957349 
L 134.278919 251.957349 
L 135.903817 259.79735 
L 136.553776 266.144018 
L 137.528714 280.70402 
L 138.178673 286.304021 
L 138.828632 287.797355 
L 139.153612 287.797355 
L 139.478591 287.050688 
L 139.803571 285.930688 
L 140.12855 283.690687 
L 141.103489 272.490685 
L 141.428468 271.370685 
L 142.403407 270.250685 
L 142.728387 268.757351 
L 143.053366 268.010685 
L 144.028305 272.117352 
L 144.353284 272.864019 
L 144.678264 272.864019 
L 145.328223 275.850686 
L 145.653202 278.090686 
L 145.978182 278.837353 
L 146.303161 278.46402 
L 146.628141 276.970686 
L 146.95312 276.224019 
L 147.2781 276.597353 
L 147.603079 278.46402 
L 147.928059 279.210686 
L 148.902998 273.610686 
L 149.227977 273.237352 
L 149.552957 274.730686 
L 149.877936 275.104019 
L 150.202916 274.730686 
L 150.527895 273.237352 
L 150.852875 272.864019 
L 151.502834 275.104019 
L 151.827813 275.104019 
L 152.152793 273.984019 
L 152.477772 273.984019 
L 153.452711 277.34402 
L 154.427649 274.357352 
L 154.752629 275.104019 
L 155.077609 276.224019 
L 155.402588 276.597353 
L 155.727568 276.224019 
L 156.377527 274.730686 
L 156.702506 274.730686 
L 157.027486 275.477353 
L 157.352465 275.477353 
L 157.677445 274.730686 
L 158.002424 274.730686 
L 158.327404 274.357352 
L 158.977363 275.850686 
L 159.627322 275.104019 
L 159.952301 274.357352 
L 160.277281 274.730686 
L 160.60226 275.850686 
L 160.92724 276.224019 
L 161.252219 275.850686 
L 161.902179 274.357352 
L 162.877117 275.477353 
L 163.202097 276.224019 
L 163.527076 275.477353 
L 163.852056 275.104019 
L 164.826994 275.104019 
L 165.151974 275.477353 
L 165.476953 275.477353 
L 165.801933 275.104019 
L 166.126912 275.104019 
L 166.451892 275.477353 
L 166.776871 275.477353 
L 167.101851 275.104019 
L 167.42683 274.357352 
L 168.07679 275.104019 
L 168.401769 275.850686 
L 168.726749 275.477353 
L 169.051728 275.477353 
L 169.376708 274.730686 
L 169.701687 274.730686 
L 170.351646 275.477353 
L 170.676626 275.104019 
L 172.626503 275.104019 
L 172.951482 274.357352 
L 173.276462 274.357352 
L 173.601441 275.104019 
L 173.926421 275.104019 
L 174.2514 275.477353 
L 175.226339 274.357352 
L 175.551319 274.730686 
L 175.876298 275.477353 
L 176.526257 275.477353 
L 176.851237 274.730686 
L 177.176216 274.357352 
L 177.501196 274.357352 
L 177.826175 275.104019 
L 179.126093 275.104019 
L 179.451073 275.477353 
L 179.776052 275.477353 
L 180.101032 274.730686 
L 180.750991 274.730686 
L 181.075971 275.477353 
L 181.40095 275.104019 
L 181.72593 275.477353 
L 182.050909 275.477353 
L 182.375889 275.104019 
L 182.700868 275.104019 
L 183.025848 275.477353 
L 183.350827 275.104019 
L 183.675807 275.477353 
L 184.000786 275.104019 
L 184.325766 275.104019 
L 184.650745 274.730686 
L 184.975725 274.730686 
L 185.300704 275.104019 
L 185.950663 275.104019 
L 186.275643 274.730686 
L 186.600622 275.104019 
L 187.250581 275.104019 
L 187.575561 275.477353 
L 187.900541 275.104019 
L 189.200459 275.104019 
L 189.525438 275.477353 
L 190.175397 275.477353 
L 190.500377 275.104019 
L 191.150336 275.850686 
L 191.475315 275.850686 
L 191.800295 275.477353 
L 192.450254 275.477353 
L 192.775233 275.104019 
L 193.750172 276.224019 
L 194.075152 276.224019 
L 194.400131 275.850686 
L 194.725111 275.104019 
L 195.37507 275.850686 
L 195.700049 275.477353 
L 196.025029 275.850686 
L 196.674988 275.850686 
L 196.999967 275.477353 
L 197.324947 275.850686 
L 197.649926 275.850686 
L 198.299885 275.104019 
L 199.274824 275.104019 
L 199.924783 274.357352 
L 200.574742 275.104019 
L 201.224701 274.357352 
L 201.549681 274.357352 
L 202.19964 271.744019 
L 202.524619 269.877352 
L 203.824537 258.304016 
L 204.149517 256.810683 
L 204.474496 256.064016 
L 206.099394 250.464015 
L 206.424373 250.090682 
L 206.749353 249.344015 
L 207.399312 247.104015 
L 208.049271 247.104015 
L 208.374251 247.477348 
L 208.69923 247.104015 
L 209.999148 248.597348 
L 210.324128 248.597348 
L 210.649107 249.344015 
L 211.949025 250.837349 
L 212.274005 251.584015 
L 212.923964 251.584015 
L 213.248943 252.330682 
L 213.573923 252.704015 
L 213.898903 252.704015 
L 214.223882 252.330682 
L 216.173759 252.330682 
L 216.498739 251.584015 
L 216.823718 252.330682 
L 217.148698 251.957349 
L 217.473677 251.957349 
L 218.448616 250.837349 
L 218.773595 250.837349 
L 219.098575 250.464015 
L 219.423554 250.464015 
L 219.748534 250.837349 
L 220.073514 250.837349 
L 220.398493 250.464015 
L 220.723473 250.464015 
L 221.048452 251.210682 
L 221.373432 251.210682 
L 222.023391 250.464015 
L 222.34837 250.464015 
L 222.67335 250.837349 
L 222.998329 250.464015 
L 223.648288 250.464015 
L 224.298247 251.210682 
L 224.948206 251.210682 
L 225.273186 251.584015 
L 225.598165 251.584015 
L 225.923145 251.210682 
L 226.898084 251.210682 
L 227.223063 250.837349 
L 227.548043 251.210682 
L 228.847961 251.210682 
L 229.17294 251.584015 
L 229.49792 251.210682 
L 229.822899 251.584015 
L 230.147879 251.584015 
L 230.797838 254.570682 
L 232.422735 266.517351 
L 233.072695 275.850686 
L 233.722654 283.690687 
L 234.372613 287.424021 
L 234.697592 287.797355 
L 235.347551 287.050688 
L 235.672531 285.930688 
L 235.99751 283.317354 
L 236.972449 272.864019 
L 237.297428 271.370685 
L 237.622408 271.370685 
L 237.947387 270.997352 
L 238.922326 268.010685 
L 239.247305 269.130685 
L 239.572285 270.997352 
L 240.222244 272.864019 
L 240.547224 272.864019 
L 241.522162 277.717353 
L 241.847142 279.58402 
L 242.172121 278.837353 
L 242.497101 276.970686 
L 242.82208 276.224019 
L 243.472039 278.837353 
L 243.797019 278.837353 
L 244.771957 273.610686 
L 245.421916 274.357352 
L 245.746896 275.104019 
L 246.071876 274.357352 
L 246.396855 273.237352 
L 246.721835 272.864019 
L 247.046814 273.610686 
L 247.371794 274.730686 
L 247.696773 275.104019 
L 248.346732 273.610686 
L 249.321671 276.597353 
L 249.64665 276.224019 
L 249.97163 275.104019 
L 250.296609 274.730686 
L 251.271548 276.970686 
L 251.596527 276.224019 
L 251.921507 274.730686 
L 252.246486 274.357352 
L 252.571466 274.730686 
L 252.896446 274.730686 
L 253.221425 275.104019 
L 253.546405 275.104019 
L 253.871384 274.730686 
L 254.196364 274.730686 
L 254.521343 275.104019 
L 254.846323 275.850686 
L 255.171302 275.104019 
L 255.821261 274.357352 
L 256.146241 274.730686 
L 256.47122 275.477353 
L 256.7962 275.850686 
L 257.446159 275.104019 
L 257.771138 274.357352 
L 258.096118 273.984019 
L 258.421097 274.730686 
L 258.746077 275.850686 
L 259.721016 274.730686 
L 260.045995 274.730686 
L 260.370975 275.477353 
L 260.695954 275.477353 
L 261.020934 275.104019 
L 261.670893 275.104019 
L 261.995872 275.850686 
L 262.320852 275.477353 
L 262.645831 275.850686 
L 263.29579 274.357352 
L 263.62077 274.357352 
L 264.270729 275.104019 
L 264.595708 275.850686 
L 264.920688 275.104019 
L 265.570647 275.104019 
L 265.895627 275.477353 
L 266.545586 275.477353 
L 266.870565 275.104019 
L 267.845504 275.104019 
L 268.170483 275.850686 
L 268.495463 275.477353 
L 268.820442 274.730686 
L 269.470401 274.730686 
L 270.12036 275.477353 
L 270.44534 275.477353 
L 270.770319 274.357352 
L 271.095299 274.357352 
L 272.395217 275.850686 
L 272.720197 275.104019 
L 273.370156 275.104019 
L 273.695135 274.730686 
L 274.345094 275.477353 
L 274.670074 275.477353 
L 275.320033 274.730686 
L 275.645012 275.104019 
L 275.969992 275.104019 
L 276.294971 275.477353 
L 276.619951 274.730686 
L 276.94493 274.730686 
L 277.594889 275.477353 
L 278.244848 275.477353 
L 278.569828 275.850686 
L 278.894808 275.477353 
L 279.219787 275.477353 
L 279.544767 275.104019 
L 279.869746 275.104019 
L 280.194726 274.730686 
L 280.519705 274.730686 
L 280.844685 275.477353 
L 281.169664 275.104019 
L 281.494644 275.104019 
L 281.819623 274.730686 
L 282.144603 275.104019 
L 283.119541 275.104019 
L 283.444521 275.477353 
L 283.7695 275.104019 
L 284.09448 275.104019 
L 284.419459 274.730686 
L 284.744439 274.730686 
L 285.069419 275.104019 
L 286.044357 275.104019 
L 286.694316 275.850686 
L 287.019296 275.477353 
L 287.344275 275.850686 
L 287.994234 275.104019 
L 288.319214 275.477353 
L 288.644193 275.477353 
L 288.969173 275.104019 
L 289.619132 275.104019 
L 289.944111 275.850686 
L 290.269091 275.850686 
L 290.59407 275.477353 
L 290.91905 275.850686 
L 291.244029 275.850686 
L 291.569009 275.477353 
L 291.893989 275.850686 
L 292.218968 275.477353 
L 292.543948 275.850686 
L 292.868927 275.850686 
L 293.193907 276.224019 
L 293.518886 275.477353 
L 293.843866 275.477353 
L 294.168845 275.850686 
L 294.493825 275.104019 
L 294.818804 275.104019 
L 295.143784 274.730686 
L 295.468763 275.104019 
L 295.793743 274.730686 
L 296.118722 274.730686 
L 296.443702 275.104019 
L 296.768681 275.104019 
L 297.093661 274.357352 
L 297.41864 274.357352 
L 298.0686 271.744019 
L 299.693497 257.930683 
L 300.018477 257.184016 
L 301.968354 250.090682 
L 302.293333 250.090682 
L 302.618313 249.344015 
L 303.268272 247.477348 
L 303.918231 247.477348 
L 304.24321 247.850681 
L 304.56819 247.477348 
L 306.193088 249.344015 
L 306.518067 249.344015 
L 307.168026 250.090682 
L 307.493006 250.837349 
L 308.142965 251.584015 
L 308.467944 251.584015 
L 308.792924 252.330682 
L 309.117903 252.330682 
L 309.442883 252.704015 
L 310.417821 252.704015 
L 310.742801 252.330682 
L 311.067781 252.704015 
L 311.71774 251.957349 
L 312.042719 251.957349 
L 312.367699 252.330682 
L 312.692678 252.330682 
L 313.342637 251.584015 
L 313.992596 251.584015 
L 314.317576 251.210682 
L 314.642555 251.210682 
L 315.292514 250.464015 
L 316.592432 250.464015 
L 316.917412 250.090682 
L 317.892351 251.210682 
L 318.21733 251.210682 
L 318.54231 250.837349 
L 319.192269 250.837349 
L 319.517248 250.090682 
L 319.842228 251.210682 
L 320.492187 251.210682 
L 321.142146 251.957349 
L 321.467125 251.957349 
L 322.442064 250.837349 
L 322.767043 251.210682 
L 323.092023 251.210682 
L 323.417002 250.837349 
L 323.741982 250.837349 
L 324.066962 251.210682 
L 324.716921 251.210682 
L 325.0419 251.584015 
L 325.691859 251.584015 
L 326.016839 251.957349 
L 326.341818 252.704015 
L 327.316757 257.930683 
L 327.641736 259.424017 
L 328.616675 270.624018 
L 329.591613 284.064021 
L 329.916593 285.930688 
L 330.241572 287.050688 
L 330.566552 287.050688 
L 330.891532 286.677354 
L 331.216511 286.677354 
L 331.541491 285.930688 
L 332.19145 280.330687 
L 332.841409 272.864019 
L 333.166388 271.370685 
L 333.491368 270.624018 
L 333.816347 270.624018 
L 334.141327 269.877352 
L 334.791286 267.264018 
L 335.116265 268.384018 
L 335.766224 272.117352 
L 336.416183 272.864019 
L 336.741163 273.984019 
L 337.716102 279.210686 
L 338.041081 278.837353 
L 338.366061 277.34402 
L 338.69104 276.597353 
L 339.01602 276.597353 
L 339.340999 278.46402 
L 339.665979 278.837353 
L 339.990958 277.717353 
L 340.640917 273.984019 
L 340.965897 273.984019 
L 341.290876 274.357352 
L 341.615856 275.104019 
L 341.940835 273.984019 
L 342.590794 273.237352 
L 343.240753 274.730686 
L 343.565733 275.104019 
L 343.890713 274.357352 
L 344.215692 273.984019 
L 344.540672 274.730686 
L 344.865651 276.597353 
L 345.190631 277.34402 
L 345.84059 275.104019 
L 346.165569 274.730686 
L 346.490549 275.477353 
L 347.140508 277.34402 
L 347.465487 276.597353 
L 348.115446 274.730686 
L 348.765405 275.477353 
L 349.090385 275.477353 
L 349.740344 274.730686 
L 350.065324 274.730686 
L 350.715283 275.477353 
L 351.040262 275.477353 
L 351.690221 273.984019 
L 352.015201 274.357352 
L 352.66516 276.597353 
L 352.990139 276.224019 
L 353.640098 274.357352 
L 353.965078 273.984019 
L 354.290057 275.477353 
L 354.615037 275.850686 
L 354.940016 275.477353 
L 355.264996 275.477353 
L 355.589975 274.730686 
L 355.914955 274.730686 
L 356.564914 275.477353 
L 356.889894 275.104019 
L 357.214873 275.104019 
L 357.539853 274.730686 
L 357.864832 275.104019 
L 359.814709 275.104019 
L 360.139689 275.477353 
L 360.789648 275.477353 
L 361.114627 274.357352 
L 361.439607 274.357352 
L 362.414545 275.477353 
L 363.389484 275.477353 
L 363.714464 274.730686 
L 364.364423 275.477353 
L 365.014382 274.730686 
L 365.339361 275.104019 
L 365.664341 275.850686 
L 365.98932 275.850686 
L 366.3143 275.477353 
L 366.639279 275.477353 
L 366.964259 274.730686 
L 367.289238 274.730686 
L 367.614218 275.850686 
L 368.264177 275.850686 
L 368.589156 275.104019 
L 368.914136 274.730686 
L 369.239115 275.477353 
L 369.564095 275.850686 
L 369.889075 275.850686 
L 370.539034 275.104019 
L 370.864013 275.104019 
L 371.188993 275.477353 
L 371.513972 275.477353 
L 371.838952 275.850686 
L 372.163931 275.477353 
L 372.488911 275.477353 
L 372.81389 275.104019 
L 373.13887 275.850686 
L 373.788829 275.104019 
L 374.113808 275.104019 
L 374.438788 274.730686 
L 374.763767 275.104019 
L 375.088747 275.104019 
L 375.413726 274.730686 
L 375.738706 274.730686 
L 376.063686 275.104019 
L 376.388665 275.104019 
L 376.713645 274.730686 
L 377.038624 274.730686 
L 377.363604 275.104019 
L 377.688583 274.357352 
L 378.338542 275.104019 
L 378.663522 275.104019 
L 378.988501 275.477353 
L 379.313481 275.104019 
L 379.96344 275.104019 
L 380.288419 275.477353 
L 380.613399 275.104019 
L 380.938378 275.104019 
L 381.588337 275.850686 
L 381.913317 275.477353 
L 383.213235 275.477353 
L 383.538215 275.850686 
L 383.863194 275.850686 
L 384.513153 275.104019 
L 384.838133 275.104019 
L 385.163112 275.477353 
L 385.488092 275.477353 
L 385.813071 275.104019 
L 386.138051 275.477353 
L 386.46303 275.477353 
L 386.78801 275.850686 
L 387.112989 275.477353 
L 387.437969 275.850686 
L 387.762948 275.850686 
L 388.087928 275.477353 
L 388.412907 276.224019 
L 389.062867 276.224019 
L 389.712826 275.477353 
L 390.362785 275.477353 
L 391.337723 274.357352 
L 391.662703 274.730686 
L 391.987682 274.730686 
L 392.312662 274.357352 
L 392.637641 274.730686 
L 392.962621 274.730686 
L 393.2876 274.357352 
L 393.61258 273.237352 
L 394.587518 266.144018 
L 395.562457 257.930683 
L 395.887437 256.437349 
L 396.537396 254.944016 
L 397.837314 250.837349 
L 398.162293 250.090682 
L 398.487273 248.970682 
L 398.487273 248.970682 
" clip-path="url(#p32b2e54db2)" style="fill: none; stroke: #ff7f0e; stroke-width: 1.5; stroke-linecap: square"/>
   </g>
   <g id="line2d_14">
    <path d="M 73.832727 277.568 
L 74.157707 283.541333 
L 74.482686 280.554667 
L 74.807666 283.541333 
L 75.132645 283.541333 
L 75.457625 286.528 
L 76.107584 286.528 
L 76.432563 280.554667 
L 76.757543 280.554667 
L 77.082523 283.541333 
L 77.407502 283.541333 
L 77.732482 280.554667 
L 78.057461 283.541333 
L 78.382441 283.541333 
L 78.70742 286.528 
L 79.0324 280.554667 
L 79.357379 283.541333 
L 79.682359 280.554667 
L 80.007338 283.541333 
L 80.332318 280.554667 
L 80.657297 283.541333 
L 80.982277 283.541333 
L 81.307256 286.528 
L 81.632236 280.554667 
L 81.957215 283.541333 
L 82.932154 283.541333 
L 83.257133 286.528 
L 83.907093 286.528 
L 84.232072 280.554667 
L 84.557052 283.541333 
L 84.882031 280.554667 
L 85.53199 286.528 
L 86.181949 286.528 
L 86.506929 289.514667 
L 86.831908 283.541333 
L 87.806847 283.541333 
L 88.131826 280.554667 
L 88.781785 280.554667 
L 89.106765 274.581333 
L 91.056642 220.821333 
L 91.706601 232.768 
L 92.031581 220.821333 
L 93.006519 161.088 
L 93.331499 161.088 
L 93.981458 187.968 
L 94.306437 190.954667 
L 94.956396 128.234667 
L 95.281376 110.314667 
L 95.606355 119.274667 
L 95.931335 137.194667 
L 96.256314 146.154667 
L 96.581294 131.221333 
L 97.231253 92.394667 
L 97.556233 95.381333 
L 97.881212 107.328 
L 98.206192 107.328 
L 98.531171 92.394667 
L 98.856151 83.434667 
L 99.18113 83.434667 
L 99.50611 95.381333 
L 99.831089 101.354667 
L 100.156069 98.368 
L 100.481048 74.474667 
L 100.806028 65.514667 
L 101.131007 68.501333 
L 101.780966 95.381333 
L 102.105946 95.381333 
L 102.430925 77.461333 
L 102.755905 71.488 
L 103.080885 74.474667 
L 103.405864 80.448 
L 103.730844 83.434667 
L 104.055823 83.434667 
L 104.380803 74.474667 
L 105.030762 86.421333 
L 105.355741 95.381333 
L 106.33068 77.461333 
L 106.655659 83.434667 
L 107.305618 104.341333 
L 107.630598 101.354667 
L 107.955577 95.381333 
L 108.280557 95.381333 
L 108.605536 92.394667 
L 108.930516 95.381333 
L 109.255495 101.354667 
L 109.905455 107.328 
L 110.230434 107.328 
L 110.880393 113.301333 
L 111.205373 113.301333 
L 111.530352 107.328 
L 111.855332 107.328 
L 112.180311 113.301333 
L 113.15525 122.261333 
L 114.130188 113.301333 
L 115.105127 122.261333 
L 115.430106 119.274667 
L 115.755086 122.261333 
L 116.080066 119.274667 
L 116.730025 119.274667 
L 117.055004 113.301333 
L 117.704963 113.301333 
L 118.029943 110.314667 
L 118.679902 116.288 
L 119.004881 113.301333 
L 119.329861 104.341333 
L 119.65484 104.341333 
L 119.97982 101.354667 
L 120.304799 104.341333 
L 120.629779 98.368 
L 120.954758 104.341333 
L 121.279738 101.354667 
L 121.604717 101.354667 
L 121.929697 92.394667 
L 122.254676 89.408 
L 122.904636 89.408 
L 123.229615 80.448 
L 123.554595 83.434667 
L 123.879574 83.434667 
L 124.204554 80.448 
L 124.854513 80.448 
L 125.179492 71.488 
L 125.504472 74.474667 
L 125.829451 68.501333 
L 126.154431 74.474667 
L 126.47941 71.488 
L 126.80439 71.488 
L 127.129369 68.501333 
L 127.454349 62.528 
L 127.779328 59.541333 
L 128.104308 62.528 
L 128.429287 59.541333 
L 128.754267 59.541333 
L 129.079247 62.528 
L 129.404226 62.528 
L 129.729206 59.541333 
L 130.704144 59.541333 
L 131.029124 56.554667 
L 132.004062 65.514667 
L 133.30398 65.514667 
L 133.62896 62.528 
L 134.278919 74.474667 
L 135.903817 89.408 
L 136.228796 89.408 
L 136.878755 101.354667 
L 137.203735 104.341333 
L 137.853694 116.288 
L 138.503653 122.261333 
L 139.478591 140.181333 
L 140.12855 146.154667 
L 141.103489 170.048 
L 141.428468 167.061333 
L 142.403407 190.954667 
L 142.728387 193.941333 
L 143.053366 199.914667 
L 143.378346 202.901333 
L 143.703325 214.848 
L 144.028305 214.848 
L 144.353284 220.821333 
L 145.003243 235.754667 
L 145.328223 235.754667 
L 145.653202 241.728 
L 146.303161 247.701333 
L 146.628141 247.701333 
L 146.95312 259.648 
L 147.2781 259.648 
L 147.603079 262.634667 
L 147.928059 268.608 
L 148.578018 268.608 
L 148.902998 277.568 
L 149.552957 277.568 
L 149.877936 280.554667 
L 150.202916 280.554667 
L 150.527895 283.541333 
L 150.852875 289.514667 
L 151.502834 289.514667 
L 151.827813 283.541333 
L 152.152793 289.514667 
L 152.477772 286.528 
L 152.802752 292.501333 
L 153.127731 286.528 
L 153.452711 289.514667 
L 153.77769 286.528 
L 154.10267 286.528 
L 154.427649 280.554667 
L 154.752629 280.554667 
L 155.077609 286.528 
L 155.402588 280.554667 
L 155.727568 280.554667 
L 156.052547 286.528 
L 156.702506 286.528 
L 157.027486 280.554667 
L 157.352465 286.528 
L 157.677445 280.554667 
L 158.002424 283.541333 
L 158.652383 283.541333 
L 158.977363 280.554667 
L 159.302342 283.541333 
L 159.627322 280.554667 
L 159.952301 283.541333 
L 160.277281 283.541333 
L 160.92724 277.568 
L 161.252219 280.554667 
L 162.227158 280.554667 
L 162.552138 283.541333 
L 163.202097 277.568 
L 163.527076 283.541333 
L 164.502015 283.541333 
L 164.826994 280.554667 
L 166.126912 280.554667 
L 166.451892 283.541333 
L 167.101851 283.541333 
L 167.42683 277.568 
L 167.75181 283.541333 
L 168.07679 280.554667 
L 169.376708 280.554667 
L 169.701687 283.541333 
L 170.026667 280.554667 
L 170.351646 280.554667 
L 170.676626 283.541333 
L 171.001605 283.541333 
L 171.326585 280.554667 
L 171.651564 280.554667 
L 171.976544 283.541333 
L 172.301523 283.541333 
L 172.626503 277.568 
L 172.951482 286.528 
L 173.276462 283.541333 
L 174.90136 283.541333 
L 175.226339 280.554667 
L 175.551319 280.554667 
L 175.876298 283.541333 
L 176.201278 283.541333 
L 176.526257 280.554667 
L 176.851237 280.554667 
L 177.501196 286.528 
L 177.826175 277.568 
L 178.151155 283.541333 
L 178.476134 283.541333 
L 178.801114 286.528 
L 179.451073 286.528 
L 179.776052 283.541333 
L 180.101032 286.528 
L 180.426011 280.554667 
L 180.750991 280.554667 
L 181.075971 283.541333 
L 181.40095 289.514667 
L 181.72593 283.541333 
L 182.050909 286.528 
L 182.375889 283.541333 
L 182.700868 286.528 
L 183.025848 283.541333 
L 183.350827 289.514667 
L 183.675807 283.541333 
L 184.000786 286.528 
L 184.325766 286.528 
L 184.650745 283.541333 
L 185.300704 271.594667 
L 186.600622 226.794667 
L 186.925602 220.821333 
L 187.250581 226.794667 
L 187.900541 226.794667 
L 188.875479 161.088 
L 189.200459 164.074667 
L 189.850418 187.968 
L 190.175397 184.981333 
L 191.150336 110.314667 
L 191.475315 119.274667 
L 191.800295 140.181333 
L 192.125274 146.154667 
L 192.450254 137.194667 
L 192.775233 110.314667 
L 193.100213 95.381333 
L 193.425192 95.381333 
L 193.750172 107.328 
L 194.075152 104.341333 
L 194.725111 83.434667 
L 195.05009 83.434667 
L 195.700049 104.341333 
L 196.025029 95.381333 
L 196.674988 65.514667 
L 196.999967 65.514667 
L 197.649926 98.368 
L 197.974906 95.381333 
L 198.299885 83.434667 
L 198.624865 65.514667 
L 199.274824 80.448 
L 199.599803 86.421333 
L 199.924783 83.434667 
L 200.249762 77.461333 
L 200.574742 80.448 
L 200.899722 92.394667 
L 201.224701 92.394667 
L 201.549681 89.408 
L 201.87466 83.434667 
L 202.19964 74.474667 
L 202.524619 80.448 
L 203.174578 104.341333 
L 203.499558 107.328 
L 203.824537 95.381333 
L 204.149517 92.394667 
L 205.774414 107.328 
L 206.424373 107.328 
L 206.749353 113.301333 
L 207.074333 113.301333 
L 207.399312 104.341333 
L 207.724292 101.354667 
L 208.374251 116.288 
L 208.69923 119.274667 
L 209.02421 119.274667 
L 209.674169 113.301333 
L 210.324128 113.301333 
L 210.974087 119.274667 
L 211.299066 119.274667 
L 211.624046 113.301333 
L 212.274005 119.274667 
L 212.598984 113.301333 
L 212.923964 110.314667 
L 213.573923 110.314667 
L 213.898903 113.301333 
L 214.873841 113.301333 
L 215.198821 110.314667 
L 215.5238 104.341333 
L 215.84878 101.354667 
L 216.498739 101.354667 
L 216.823718 98.368 
L 217.148698 98.368 
L 218.123636 89.408 
L 218.448616 92.394667 
L 218.773595 86.421333 
L 219.098575 86.421333 
L 219.423554 80.448 
L 219.748534 83.434667 
L 220.073514 80.448 
L 220.398493 80.448 
L 220.723473 77.461333 
L 221.048452 71.488 
L 221.373432 68.501333 
L 221.698411 71.488 
L 222.023391 65.514667 
L 222.34837 65.514667 
L 222.67335 68.501333 
L 222.998329 68.501333 
L 223.323309 59.541333 
L 223.973268 59.541333 
L 224.298247 62.528 
L 224.623227 56.554667 
L 224.948206 56.554667 
L 225.273186 59.541333 
L 225.598165 59.541333 
L 225.923145 56.554667 
L 226.573104 56.554667 
L 226.898084 53.568 
L 227.223063 56.554667 
L 227.548043 56.554667 
L 227.873022 62.528 
L 228.522981 62.528 
L 228.847961 65.514667 
L 229.17294 65.514667 
L 229.49792 68.501333 
L 229.822899 65.514667 
L 230.472858 80.448 
L 230.797838 83.434667 
L 231.122817 80.448 
L 231.447797 86.421333 
L 232.097756 92.394667 
L 232.422735 89.408 
L 232.747715 101.354667 
L 233.072695 107.328 
L 233.397674 110.314667 
L 233.722654 110.314667 
L 234.047633 113.301333 
L 234.697592 128.234667 
L 235.347551 140.181333 
L 235.672531 143.168 
L 235.99751 149.141333 
L 236.32249 152.128 
L 236.972449 167.061333 
L 237.297428 173.034667 
L 237.622408 173.034667 
L 237.947387 184.981333 
L 238.272367 190.954667 
L 238.597346 193.941333 
L 239.247305 205.888 
L 239.572285 208.874667 
L 239.897265 217.834667 
L 240.222244 217.834667 
L 240.547224 226.794667 
L 240.872203 229.781333 
L 241.522162 241.728 
L 242.497101 250.688 
L 242.82208 250.688 
L 243.14706 259.648 
L 243.797019 265.621333 
L 244.121998 265.621333 
L 244.446978 271.594667 
L 244.771957 274.581333 
L 245.096937 280.554667 
L 245.421916 274.581333 
L 245.746896 283.541333 
L 246.396855 283.541333 
L 247.046814 289.514667 
L 247.696773 289.514667 
L 248.021753 286.528 
L 248.346732 286.528 
L 248.671712 289.514667 
L 248.996691 289.514667 
L 249.321671 286.528 
L 250.296609 286.528 
L 250.621589 280.554667 
L 250.946568 286.528 
L 251.271548 280.554667 
L 251.921507 280.554667 
L 252.246486 283.541333 
L 252.896446 283.541333 
L 253.221425 277.568 
L 253.871384 283.541333 
L 254.196364 283.541333 
L 254.521343 280.554667 
L 254.846323 283.541333 
L 255.171302 280.554667 
L 255.496282 283.541333 
L 255.821261 277.568 
L 256.146241 283.541333 
L 256.47122 283.541333 
L 256.7962 280.554667 
L 257.121179 280.554667 
L 257.446159 283.541333 
L 257.771138 280.554667 
L 258.096118 283.541333 
L 258.421097 280.554667 
L 259.721016 280.554667 
L 260.045995 283.541333 
L 260.695954 283.541333 
L 261.020934 277.568 
L 261.345913 283.541333 
L 262.645831 283.541333 
L 262.970811 280.554667 
L 263.29579 283.541333 
L 263.62077 277.568 
L 263.945749 283.541333 
L 264.595708 283.541333 
L 264.920688 280.554667 
L 265.245667 283.541333 
L 265.570647 283.541333 
L 265.895627 286.528 
L 266.220606 277.568 
L 266.545586 283.541333 
L 266.870565 280.554667 
L 267.195545 283.541333 
L 267.520524 283.541333 
L 267.845504 286.528 
L 268.170483 283.541333 
L 268.820442 283.541333 
L 269.145422 286.528 
L 269.470401 286.528 
L 269.795381 283.541333 
L 270.12036 283.541333 
L 270.44534 286.528 
L 271.095299 286.528 
L 271.420278 280.554667 
L 272.070238 286.528 
L 272.395217 283.541333 
L 272.720197 286.528 
L 273.045176 286.528 
L 273.370156 289.514667 
L 273.695135 286.528 
L 274.020115 280.554667 
L 274.345094 280.554667 
L 274.670074 283.541333 
L 274.995053 283.541333 
L 275.320033 280.554667 
L 275.645012 286.528 
L 275.969992 289.514667 
L 276.294971 286.528 
L 276.619951 280.554667 
L 276.94493 283.541333 
L 277.26991 283.541333 
L 277.594889 289.514667 
L 277.919869 283.541333 
L 278.569828 283.541333 
L 278.894808 286.528 
L 279.219787 283.541333 
L 279.544767 286.528 
L 279.869746 283.541333 
L 280.194726 283.541333 
L 280.844685 277.568 
L 281.169664 265.621333 
L 281.494644 259.648 
L 281.819623 241.728 
L 282.144603 235.754667 
L 282.469582 226.794667 
L 282.794562 226.794667 
L 283.119541 229.781333 
L 283.444521 229.781333 
L 283.7695 223.808 
L 284.09448 205.888 
L 284.419459 179.008 
L 284.744439 164.074667 
L 285.069419 161.088 
L 285.394398 176.021333 
L 285.719378 184.981333 
L 286.044357 181.994667 
L 287.019296 110.314667 
L 287.994234 149.141333 
L 288.319214 137.194667 
L 288.644193 110.314667 
L 288.969173 95.381333 
L 289.294152 101.354667 
L 289.944111 107.328 
L 290.59407 80.448 
L 290.91905 83.434667 
L 291.569009 104.341333 
L 291.893989 101.354667 
L 292.218968 77.461333 
L 292.543948 65.514667 
L 292.868927 65.514667 
L 293.518886 95.381333 
L 293.843866 89.408 
L 294.168845 77.461333 
L 294.493825 71.488 
L 294.818804 68.501333 
L 295.143784 80.448 
L 295.468763 86.421333 
L 295.793743 77.461333 
L 296.118722 74.474667 
L 297.093661 98.368 
L 298.0686 74.474667 
L 299.043538 101.354667 
L 299.368518 101.354667 
L 299.693497 98.368 
L 300.018477 89.408 
L 300.343456 92.394667 
L 300.993415 104.341333 
L 301.318395 104.341333 
L 301.643374 107.328 
L 301.968354 107.328 
L 302.293333 113.301333 
L 302.618313 110.314667 
L 302.943292 113.301333 
L 303.268272 104.341333 
L 303.593251 104.341333 
L 303.918231 107.328 
L 304.89317 125.248 
L 305.218149 113.301333 
L 305.543129 110.314667 
L 305.868108 116.288 
L 306.193088 113.301333 
L 306.843047 119.274667 
L 307.168026 119.274667 
L 307.493006 122.261333 
L 307.817985 116.288 
L 308.142965 122.261333 
L 308.467944 116.288 
L 308.792924 116.288 
L 309.117903 110.314667 
L 309.442883 110.314667 
L 309.767862 113.301333 
L 310.092842 113.301333 
L 310.417821 116.288 
L 311.067781 110.314667 
L 311.39276 101.354667 
L 311.71774 98.368 
L 312.367699 104.341333 
L 312.692678 104.341333 
L 313.017658 98.368 
L 313.342637 95.381333 
L 313.667617 89.408 
L 313.992596 92.394667 
L 314.642555 86.421333 
L 314.967535 86.421333 
L 315.292514 89.408 
L 315.617494 83.434667 
L 315.942473 86.421333 
L 316.267453 83.434667 
L 316.592432 74.474667 
L 316.917412 71.488 
L 317.242391 71.488 
L 317.567371 68.501333 
L 317.892351 71.488 
L 318.21733 68.501333 
L 318.54231 71.488 
L 318.867289 65.514667 
L 319.192269 68.501333 
L 319.517248 62.528 
L 319.842228 59.541333 
L 320.492187 65.514667 
L 320.817166 59.541333 
L 321.142146 59.541333 
L 321.467125 62.528 
L 322.117084 56.554667 
L 322.442064 56.554667 
L 322.767043 62.528 
L 323.092023 62.528 
L 323.417002 59.541333 
L 323.741982 65.514667 
L 324.391941 65.514667 
L 324.716921 68.501333 
L 325.36688 68.501333 
L 325.691859 71.488 
L 326.016839 71.488 
L 326.666798 83.434667 
L 327.316757 83.434667 
L 328.291695 101.354667 
L 328.616675 98.368 
L 329.266634 113.301333 
L 329.916593 119.274667 
L 330.241572 125.248 
L 330.566552 128.234667 
L 330.891532 134.208 
L 331.216511 134.208 
L 331.86647 152.128 
L 332.516429 158.101333 
L 332.841409 164.074667 
L 333.166388 173.034667 
L 333.816347 179.008 
L 334.141327 190.954667 
L 334.466306 193.941333 
L 334.791286 199.914667 
L 335.116265 202.901333 
L 336.091204 220.821333 
L 336.416183 220.821333 
L 337.066143 235.754667 
L 337.391122 235.754667 
L 337.716102 238.741333 
L 338.366061 250.688 
L 338.69104 259.648 
L 339.01602 256.661333 
L 339.340999 262.634667 
L 339.665979 265.621333 
L 339.990958 271.594667 
L 340.315938 274.581333 
L 340.640917 274.581333 
L 340.965897 280.554667 
L 341.290876 283.541333 
L 341.615856 277.568 
L 341.940835 280.554667 
L 342.590794 292.501333 
L 342.915774 286.528 
L 343.240753 289.514667 
L 343.565733 289.514667 
L 343.890713 292.501333 
L 344.215692 283.541333 
L 344.540672 286.528 
L 345.51561 286.528 
L 345.84059 283.541333 
L 346.490549 283.541333 
L 346.815528 280.554667 
L 347.140508 283.541333 
L 347.465487 280.554667 
L 347.790467 280.554667 
L 348.115446 277.568 
L 348.765405 283.541333 
L 349.090385 283.541333 
L 349.415364 277.568 
L 349.740344 283.541333 
L 350.715283 283.541333 
L 351.040262 280.554667 
L 351.365242 283.541333 
L 351.690221 283.541333 
L 352.015201 280.554667 
L 352.34018 280.554667 
L 352.66516 283.541333 
L 352.990139 280.554667 
L 353.640098 280.554667 
L 354.290057 286.528 
L 354.615037 277.568 
L 354.940016 280.554667 
L 355.264996 277.568 
L 355.914955 283.541333 
L 356.239934 283.541333 
L 356.564914 280.554667 
L 356.889894 283.541333 
L 357.214873 277.568 
L 357.864832 283.541333 
L 358.189812 283.541333 
L 358.514791 280.554667 
L 358.839771 280.554667 
L 359.16475 283.541333 
L 359.48973 283.541333 
L 359.814709 277.568 
L 360.139689 280.554667 
L 360.464668 280.554667 
L 360.789648 283.541333 
L 361.439607 283.541333 
L 361.764586 280.554667 
L 362.089566 283.541333 
L 362.414545 277.568 
L 363.064505 283.541333 
L 363.714464 277.568 
L 364.039443 283.541333 
L 364.689402 283.541333 
L 365.014382 277.568 
L 365.339361 283.541333 
L 365.664341 283.541333 
L 365.98932 280.554667 
L 366.3143 280.554667 
L 366.639279 283.541333 
L 366.964259 283.541333 
L 367.289238 286.528 
L 367.614218 280.554667 
L 367.939197 280.554667 
L 368.264177 283.541333 
L 368.589156 283.541333 
L 368.914136 280.554667 
L 369.239115 286.528 
L 369.564095 283.541333 
L 369.889075 286.528 
L 370.214054 280.554667 
L 370.539034 283.541333 
L 371.188993 283.541333 
L 371.513972 280.554667 
L 371.838952 283.541333 
L 372.163931 283.541333 
L 372.488911 286.528 
L 372.81389 283.541333 
L 374.113808 283.541333 
L 374.763767 289.514667 
L 375.088747 286.528 
L 375.413726 280.554667 
L 375.738706 283.541333 
L 376.063686 283.541333 
L 376.713645 277.568 
L 377.688583 247.701333 
L 378.338542 223.808 
L 378.663522 226.794667 
L 378.988501 226.794667 
L 379.313481 229.781333 
L 379.63846 220.821333 
L 380.613399 161.088 
L 380.938378 167.061333 
L 381.588337 187.968 
L 381.913317 181.994667 
L 382.563276 125.248 
L 382.888256 113.301333 
L 383.213235 113.301333 
L 383.538215 137.194667 
L 383.863194 146.154667 
L 384.188174 131.221333 
L 384.513153 107.328 
L 384.838133 95.381333 
L 385.163112 98.368 
L 385.488092 107.328 
L 386.138051 95.381333 
L 386.46303 80.448 
L 386.78801 83.434667 
L 387.437969 104.341333 
L 387.762948 95.381333 
L 388.412907 56.554667 
L 388.737887 62.528 
L 389.062867 83.434667 
L 389.387846 92.394667 
L 389.712826 89.408 
L 390.362785 71.488 
L 390.687764 74.474667 
L 391.012744 80.448 
L 391.337723 83.434667 
L 391.987682 77.461333 
L 392.312662 80.448 
L 392.962621 95.381333 
L 393.2876 92.394667 
L 393.61258 74.474667 
L 393.937559 74.474667 
L 394.262539 80.448 
L 394.912498 104.341333 
L 395.237477 104.341333 
L 396.212416 86.421333 
L 396.537396 92.394667 
L 396.862375 101.354667 
L 397.512334 101.354667 
L 398.162293 113.301333 
L 398.487273 113.301333 
L 398.487273 113.301333 
" clip-path="url(#p32b2e54db2)" style="fill: none; stroke: #2ca02c; stroke-width: 1.5; stroke-linecap: square"/>
   </g>
   <g id="line2d_15">
    <path d="M 73.832727 98.368 
L 74.157707 98.368 
L 74.807666 92.394667 
L 75.132645 92.394667 
L 76.107584 83.434667 
L 76.432563 83.434667 
L 76.757543 80.448 
L 77.082523 83.434667 
L 77.732482 71.488 
L 78.057461 77.461333 
L 78.382441 74.474667 
L 78.70742 74.474667 
L 79.0324 68.501333 
L 79.357379 77.461333 
L 79.682359 71.488 
L 80.657297 62.528 
L 80.982277 65.514667 
L 81.307256 65.514667 
L 81.632236 68.501333 
L 81.957215 65.514667 
L 82.607174 65.514667 
L 82.932154 62.528 
L 83.257133 65.514667 
L 84.232072 65.514667 
L 84.557052 71.488 
L 84.882031 71.488 
L 85.207011 77.461333 
L 85.53199 80.448 
L 85.85697 77.461333 
L 86.831908 86.421333 
L 87.156888 92.394667 
L 87.481867 92.394667 
L 87.806847 98.368 
L 88.131826 95.381333 
L 88.781785 107.328 
L 89.431744 113.301333 
L 90.081704 125.248 
L 90.406683 128.234667 
L 90.731663 134.208 
L 91.056642 137.194667 
L 91.706601 149.141333 
L 92.031581 152.128 
L 92.35656 158.101333 
L 92.68154 167.061333 
L 93.006519 170.048 
L 93.331499 176.021333 
L 93.656478 179.008 
L 94.306437 193.941333 
L 94.956396 199.914667 
L 95.281376 205.888 
L 95.606355 208.874667 
L 96.256314 226.794667 
L 96.581294 226.794667 
L 96.906274 229.781333 
L 97.881212 247.701333 
L 98.206192 250.688 
L 98.856151 250.688 
L 99.18113 256.661333 
L 99.50611 259.648 
L 100.156069 274.581333 
L 100.481048 271.594667 
L 101.131007 271.594667 
L 101.780966 283.541333 
L 102.105946 286.528 
L 102.430925 286.528 
L 102.755905 289.514667 
L 103.080885 289.514667 
L 103.405864 286.528 
L 104.055823 292.501333 
L 104.380803 292.501333 
L 104.705782 289.514667 
L 105.030762 289.514667 
L 105.680721 283.541333 
L 106.33068 283.541333 
L 106.980639 277.568 
L 107.305618 277.568 
L 107.630598 274.581333 
L 107.955577 274.581333 
L 108.280557 277.568 
L 108.930516 277.568 
L 109.255495 283.541333 
L 109.905455 283.541333 
L 110.230434 286.528 
L 110.880393 286.528 
L 111.205373 283.541333 
L 111.530352 283.541333 
L 112.180311 277.568 
L 112.505291 277.568 
L 112.83027 283.541333 
L 113.15525 286.528 
L 114.130188 286.528 
L 114.455168 289.514667 
L 115.105127 283.541333 
L 115.430106 286.528 
L 116.080066 280.554667 
L 116.405045 283.541333 
L 116.730025 280.554667 
L 117.055004 283.541333 
L 117.379984 280.554667 
L 117.704963 283.541333 
L 118.029943 283.541333 
L 118.354922 286.528 
L 118.679902 283.541333 
L 119.004881 283.541333 
L 119.329861 280.554667 
L 119.65484 283.541333 
L 119.97982 283.541333 
L 120.304799 280.554667 
L 120.629779 283.541333 
L 121.604717 283.541333 
L 121.929697 286.528 
L 122.254676 286.528 
L 122.579656 283.541333 
L 122.904636 286.528 
L 123.554595 280.554667 
L 123.879574 280.554667 
L 124.204554 283.541333 
L 124.529533 283.541333 
L 124.854513 286.528 
L 127.129369 286.528 
L 127.779328 280.554667 
L 128.104308 283.541333 
L 129.404226 283.541333 
L 129.729206 286.528 
L 130.379165 286.528 
L 130.704144 283.541333 
L 131.029124 286.528 
L 131.354103 283.541333 
L 131.679083 283.541333 
L 132.004062 280.554667 
L 132.329042 280.554667 
L 132.654021 283.541333 
L 132.979001 283.541333 
L 133.30398 286.528 
L 133.62896 283.541333 
L 134.603898 283.541333 
L 135.253857 289.514667 
L 135.578837 286.528 
L 136.228796 286.528 
L 136.553776 283.541333 
L 137.203735 271.594667 
L 137.528714 259.648 
L 137.853694 253.674667 
L 138.503653 247.701333 
L 138.828632 241.728 
L 139.803571 208.874667 
L 140.45353 193.941333 
L 140.778509 193.941333 
L 141.428468 187.968 
L 142.403407 152.128 
L 142.728387 149.141333 
L 143.053366 143.168 
L 143.378346 140.181333 
L 143.703325 134.208 
L 144.028305 134.208 
L 145.003243 110.314667 
L 145.653202 104.341333 
L 146.303161 89.408 
L 146.628141 92.394667 
L 146.95312 98.368 
L 147.2781 98.368 
L 148.253038 74.474667 
L 148.578018 77.461333 
L 148.902998 83.434667 
L 149.227977 86.421333 
L 149.552957 86.421333 
L 150.202916 74.474667 
L 150.527895 71.488 
L 150.852875 77.461333 
L 151.177854 80.448 
L 151.502834 77.461333 
L 151.827813 77.461333 
L 152.477772 83.434667 
L 152.802752 77.461333 
L 153.127731 80.448 
L 153.452711 74.474667 
L 153.77769 74.474667 
L 154.10267 80.448 
L 154.752629 95.381333 
L 155.077609 89.408 
L 155.402588 89.408 
L 155.727568 80.448 
L 156.377527 95.381333 
L 156.702506 98.368 
L 157.352465 98.368 
L 157.677445 101.354667 
L 158.002424 98.368 
L 158.652383 104.341333 
L 158.977363 101.354667 
L 159.627322 107.328 
L 159.952301 113.301333 
L 160.277281 113.301333 
L 160.60226 110.314667 
L 160.92724 104.341333 
L 161.252219 104.341333 
L 161.577199 107.328 
L 162.227158 119.274667 
L 162.877117 113.301333 
L 163.202097 113.301333 
L 163.527076 110.314667 
L 165.151974 110.314667 
L 165.476953 113.301333 
L 166.126912 107.328 
L 166.451892 107.328 
L 166.776871 104.341333 
L 167.42683 104.341333 
L 167.75181 110.314667 
L 168.07679 107.328 
L 168.401769 101.354667 
L 169.051728 95.381333 
L 170.351646 95.381333 
L 170.676626 92.394667 
L 171.001605 92.394667 
L 171.326585 86.421333 
L 171.651564 89.408 
L 172.626503 80.448 
L 172.951482 80.448 
L 173.276462 77.461333 
L 173.601441 77.461333 
L 173.926421 74.474667 
L 174.2514 74.474667 
L 174.90136 68.501333 
L 175.226339 71.488 
L 175.551319 68.501333 
L 175.876298 71.488 
L 176.201278 65.514667 
L 176.526257 62.528 
L 176.851237 65.514667 
L 177.501196 65.514667 
L 177.826175 68.501333 
L 178.151155 68.501333 
L 178.476134 65.514667 
L 178.801114 65.514667 
L 179.126093 68.501333 
L 179.776052 68.501333 
L 180.426011 74.474667 
L 180.750991 74.474667 
L 181.075971 77.461333 
L 181.40095 74.474667 
L 181.72593 74.474667 
L 182.050909 83.434667 
L 182.700868 83.434667 
L 183.025848 89.408 
L 184.000786 98.368 
L 184.325766 104.341333 
L 184.975725 110.314667 
L 185.300704 116.288 
L 185.625684 119.274667 
L 186.275643 131.221333 
L 186.600622 131.221333 
L 187.575561 149.141333 
L 187.900541 152.128 
L 188.5505 164.074667 
L 188.875479 167.061333 
L 189.200459 173.034667 
L 189.850418 187.968 
L 190.500377 193.941333 
L 191.800295 217.834667 
L 192.125274 220.821333 
L 192.450254 226.794667 
L 193.100213 232.768 
L 193.425192 241.728 
L 193.750172 244.714667 
L 194.075152 250.688 
L 194.400131 250.688 
L 194.725111 253.674667 
L 195.05009 253.674667 
L 195.700049 265.621333 
L 196.025029 274.581333 
L 196.350008 271.594667 
L 196.999967 271.594667 
L 197.324947 274.581333 
L 197.649926 286.528 
L 198.299885 292.501333 
L 198.624865 289.514667 
L 199.274824 289.514667 
L 199.924783 295.488 
L 200.249762 295.488 
L 200.574742 289.514667 
L 200.899722 289.514667 
L 201.224701 283.541333 
L 201.549681 283.541333 
L 201.87466 286.528 
L 202.19964 280.554667 
L 202.524619 277.568 
L 202.849599 283.541333 
L 203.174578 277.568 
L 204.149517 277.568 
L 204.799476 283.541333 
L 205.774414 283.541333 
L 206.424373 289.514667 
L 207.074333 289.514667 
L 207.399312 286.528 
L 207.724292 280.554667 
L 208.049271 283.541333 
L 208.374251 283.541333 
L 208.69923 280.554667 
L 209.02421 286.528 
L 209.349189 286.528 
L 209.674169 283.541333 
L 210.324128 283.541333 
L 210.649107 286.528 
L 210.974087 283.541333 
L 211.299066 283.541333 
L 211.624046 286.528 
L 212.274005 280.554667 
L 212.923964 280.554667 
L 213.248943 286.528 
L 213.573923 286.528 
L 213.898903 289.514667 
L 214.223882 289.514667 
L 214.873841 283.541333 
L 215.5238 283.541333 
L 215.84878 280.554667 
L 216.498739 280.554667 
L 216.823718 286.528 
L 217.148698 283.541333 
L 218.123636 283.541333 
L 218.448616 286.528 
L 218.773595 286.528 
L 219.098575 283.541333 
L 219.748534 283.541333 
L 220.073514 280.554667 
L 220.398493 283.541333 
L 220.723473 283.541333 
L 221.048452 286.528 
L 221.373432 286.528 
L 221.698411 283.541333 
L 222.023391 286.528 
L 222.34837 283.541333 
L 222.67335 286.528 
L 222.998329 283.541333 
L 223.323309 283.541333 
L 223.648288 286.528 
L 223.973268 286.528 
L 224.298247 289.514667 
L 224.623227 283.541333 
L 224.948206 286.528 
L 225.598165 286.528 
L 225.923145 283.541333 
L 226.248124 283.541333 
L 226.573104 280.554667 
L 226.898084 286.528 
L 227.223063 286.528 
L 227.548043 283.541333 
L 228.198002 283.541333 
L 228.522981 280.554667 
L 228.847961 286.528 
L 230.147879 286.528 
L 230.472858 283.541333 
L 230.797838 283.541333 
L 231.122817 286.528 
L 231.772776 286.528 
L 232.097756 283.541333 
L 232.422735 283.541333 
L 232.747715 280.554667 
L 233.722654 247.701333 
L 234.047633 247.701333 
L 235.022572 229.781333 
L 235.672531 208.874667 
L 235.99751 196.928 
L 236.32249 190.954667 
L 236.647469 190.954667 
L 236.972449 187.968 
L 238.597346 146.154667 
L 238.922326 140.181333 
L 239.247305 140.181333 
L 239.572285 137.194667 
L 240.222244 122.261333 
L 240.547224 116.288 
L 240.872203 113.301333 
L 241.197183 107.328 
L 241.522162 104.341333 
L 241.847142 95.381333 
L 242.172121 92.394667 
L 242.497101 95.381333 
L 242.82208 101.354667 
L 243.472039 89.408 
L 244.121998 68.501333 
L 244.446978 74.474667 
L 244.771957 83.434667 
L 245.096937 83.434667 
L 245.421916 86.421333 
L 245.746896 80.448 
L 246.071876 77.461333 
L 246.721835 77.461333 
L 247.046814 74.474667 
L 247.696773 74.474667 
L 248.021753 80.448 
L 248.346732 83.434667 
L 248.671712 83.434667 
L 248.996691 80.448 
L 249.321671 71.488 
L 249.64665 74.474667 
L 249.97163 83.434667 
L 250.296609 86.421333 
L 250.621589 95.381333 
L 251.271548 89.408 
L 251.596527 83.434667 
L 251.921507 86.421333 
L 252.571466 98.368 
L 252.896446 98.368 
L 253.221425 101.354667 
L 253.546405 98.368 
L 253.871384 98.368 
L 254.196364 101.354667 
L 254.521343 98.368 
L 254.846323 104.341333 
L 255.171302 104.341333 
L 255.496282 107.328 
L 255.821261 113.301333 
L 256.47122 113.301333 
L 256.7962 107.328 
L 257.446159 107.328 
L 257.771138 110.314667 
L 258.096118 116.288 
L 258.421097 116.288 
L 259.071057 110.314667 
L 259.396036 110.314667 
L 259.721016 107.328 
L 260.045995 116.288 
L 260.370975 110.314667 
L 260.695954 113.301333 
L 261.995872 113.301333 
L 262.970811 104.341333 
L 263.62077 110.314667 
L 263.945749 110.314667 
L 264.595708 98.368 
L 264.920688 89.408 
L 265.245667 98.368 
L 266.220606 98.368 
L 266.545586 92.394667 
L 266.870565 89.408 
L 267.520524 89.408 
L 268.495463 80.448 
L 269.470401 80.448 
L 269.795381 77.461333 
L 270.12036 68.501333 
L 270.770319 74.474667 
L 271.095299 74.474667 
L 271.420278 71.488 
L 271.745258 71.488 
L 272.070238 68.501333 
L 273.370156 68.501333 
L 273.695135 65.514667 
L 274.020115 68.501333 
L 274.670074 68.501333 
L 274.995053 65.514667 
L 275.320033 65.514667 
L 275.645012 71.488 
L 276.294971 71.488 
L 276.619951 74.474667 
L 276.94493 80.448 
L 277.26991 77.461333 
L 277.594889 80.448 
L 277.919869 80.448 
L 278.894808 89.408 
L 279.219787 95.381333 
L 279.544767 95.381333 
L 280.519705 104.341333 
L 281.494644 122.261333 
L 281.819623 122.261333 
L 282.469582 137.194667 
L 283.444521 146.154667 
L 284.419459 164.074667 
L 284.744439 167.061333 
L 285.069419 179.008 
L 285.719378 184.981333 
L 286.044357 193.941333 
L 286.694316 199.914667 
L 287.669255 217.834667 
L 287.994234 220.821333 
L 288.319214 226.794667 
L 288.644193 229.781333 
L 288.969173 235.754667 
L 289.294152 244.714667 
L 289.944111 250.688 
L 290.91905 250.688 
L 291.244029 262.634667 
L 291.893989 274.581333 
L 292.218968 274.581333 
L 292.543948 271.594667 
L 292.868927 274.581333 
L 293.193907 280.554667 
L 293.518886 280.554667 
L 293.843866 286.528 
L 294.168845 283.541333 
L 294.818804 289.514667 
L 295.468763 289.514667 
L 295.793743 286.528 
L 296.118722 292.501333 
L 296.768681 292.501333 
L 297.093661 286.528 
L 297.41864 286.528 
L 298.0686 280.554667 
L 298.393579 280.554667 
L 299.693497 268.608 
L 300.018477 277.568 
L 300.343456 277.568 
L 300.993415 283.541333 
L 301.318395 280.554667 
L 301.643374 283.541333 
L 301.968354 283.541333 
L 302.618313 289.514667 
L 303.268272 283.541333 
L 303.593251 283.541333 
L 304.24321 277.568 
L 305.218149 286.528 
L 305.868108 286.528 
L 306.518067 280.554667 
L 307.168026 286.528 
L 308.142965 277.568 
L 308.467944 277.568 
L 308.792924 283.541333 
L 309.767862 283.541333 
L 310.092842 286.528 
L 310.417821 286.528 
L 310.742801 283.541333 
L 311.067781 286.528 
L 311.39276 280.554667 
L 311.71774 277.568 
L 312.042719 280.554667 
L 312.367699 280.554667 
L 312.692678 283.541333 
L 314.317576 283.541333 
L 314.642555 280.554667 
L 314.967535 283.541333 
L 315.292514 277.568 
L 315.617494 280.554667 
L 316.592432 280.554667 
L 316.917412 277.568 
L 317.242391 283.541333 
L 317.892351 289.514667 
L 318.867289 280.554667 
L 319.192269 283.541333 
L 319.517248 280.554667 
L 319.842228 283.541333 
L 320.492187 283.541333 
L 320.817166 286.528 
L 322.767043 286.528 
L 323.092023 283.541333 
L 323.417002 286.528 
L 324.066962 280.554667 
L 324.391941 283.541333 
L 324.716921 280.554667 
L 325.0419 286.528 
L 325.36688 280.554667 
L 325.691859 286.528 
L 326.016839 283.541333 
L 326.341818 283.541333 
L 326.666798 286.528 
L 326.991777 286.528 
L 327.316757 283.541333 
L 327.641736 283.541333 
L 327.966716 286.528 
L 328.616675 280.554667 
L 329.591613 250.688 
L 329.916593 250.688 
L 330.241572 247.701333 
L 332.516429 187.968 
L 332.841409 187.968 
L 333.166388 181.994667 
L 334.791286 140.181333 
L 335.116265 140.181333 
L 335.441245 137.194667 
L 336.091204 119.274667 
L 337.066143 110.314667 
L 337.716102 92.394667 
L 338.366061 92.394667 
L 339.01602 98.368 
L 339.340999 92.394667 
L 339.665979 80.448 
L 339.990958 74.474667 
L 340.315938 74.474667 
L 340.640917 80.448 
L 340.965897 83.434667 
L 341.290876 83.434667 
L 341.615856 74.474667 
L 342.590794 74.474667 
L 342.915774 71.488 
L 343.240753 77.461333 
L 343.565733 77.461333 
L 344.540672 86.421333 
L 344.865651 77.461333 
L 345.190631 74.474667 
L 346.165569 83.434667 
L 346.490549 89.408 
L 347.140508 83.434667 
L 347.465487 83.434667 
L 347.790467 89.408 
L 348.115446 89.408 
L 348.440426 98.368 
L 348.765405 98.368 
L 349.090385 95.381333 
L 349.415364 95.381333 
L 350.390303 104.341333 
L 350.715283 101.354667 
L 351.690221 110.314667 
L 352.015201 116.288 
L 352.34018 113.301333 
L 352.66516 107.328 
L 352.990139 104.341333 
L 353.315119 107.328 
L 353.640098 113.301333 
L 353.965078 116.288 
L 354.615037 116.288 
L 355.264996 110.314667 
L 355.914955 116.288 
L 356.239934 116.288 
L 356.889894 110.314667 
L 358.189812 110.314667 
L 358.514791 104.341333 
L 358.839771 104.341333 
L 359.48973 110.314667 
L 359.814709 107.328 
L 360.139689 101.354667 
L 360.789648 95.381333 
L 361.439607 95.381333 
L 361.764586 92.394667 
L 362.089566 98.368 
L 362.414545 92.394667 
L 362.739525 92.394667 
L 363.714464 83.434667 
L 364.039443 86.421333 
L 364.689402 80.448 
L 365.339361 80.448 
L 365.664341 74.474667 
L 365.98932 71.488 
L 366.639279 71.488 
L 366.964259 68.501333 
L 367.289238 71.488 
L 367.614218 71.488 
L 368.589156 62.528 
L 368.914136 62.528 
L 369.239115 65.514667 
L 369.564095 65.514667 
L 369.889075 62.528 
L 370.539034 68.501333 
L 371.188993 68.501333 
L 371.513972 65.514667 
L 371.838952 68.501333 
L 372.163931 74.474667 
L 372.488911 71.488 
L 372.81389 77.461333 
L 373.463849 77.461333 
L 374.113808 83.434667 
L 374.438788 89.408 
L 375.413726 98.368 
L 375.738706 98.368 
L 376.063686 104.341333 
L 376.388665 104.341333 
L 376.713645 110.314667 
L 377.038624 113.301333 
L 378.013563 131.221333 
L 378.338542 134.208 
L 378.663522 134.208 
L 378.988501 143.168 
L 379.313481 146.154667 
L 379.63846 155.114667 
L 380.288419 161.088 
L 381.263358 179.008 
L 381.588337 187.968 
L 381.913317 190.954667 
L 382.238296 196.928 
L 382.563276 196.928 
L 383.538215 220.821333 
L 383.863194 226.794667 
L 384.188174 226.794667 
L 384.513153 229.781333 
L 384.838133 235.754667 
L 385.163112 238.741333 
L 385.813071 253.674667 
L 386.138051 256.661333 
L 386.46303 250.688 
L 386.78801 253.674667 
L 387.437969 268.608 
L 387.762948 271.594667 
L 388.087928 271.594667 
L 389.062867 280.554667 
L 389.387846 280.554667 
L 390.037805 286.528 
L 390.362785 286.528 
L 390.687764 283.541333 
L 391.012744 292.501333 
L 391.987682 292.501333 
L 392.312662 286.528 
L 392.962621 286.528 
L 393.61258 280.554667 
L 394.587518 280.554667 
L 394.912498 274.581333 
L 395.237477 274.581333 
L 395.562457 271.594667 
L 395.887437 274.581333 
L 396.212416 280.554667 
L 396.537396 283.541333 
L 396.862375 280.554667 
L 397.187355 283.541333 
L 397.512334 280.554667 
L 397.837314 283.541333 
L 398.162293 280.554667 
L 398.487273 286.528 
L 398.487273 286.528 
" clip-path="url(#p32b2e54db2)" style="fill: none; stroke: #d62728; stroke-width: 1.5; stroke-linecap: square"/>
   </g>
   <g id="patch_3">
    <path d="M 57.6 307.584 
L 57.6 41.472 
" style="fill: none; stroke: #000000; stroke-width: 0.8; stroke-linejoin: miter; stroke-linecap: square"/>
   </g>
   <g id="patch_4">
    <path d="M 414.72 307.584 
L 414.72 41.472 
" style="fill: none; stroke: #000000; stroke-width: 0.8; stroke-linejoin: miter; stroke-linecap: square"/>
   </g>
   <g id="patch_5">
    <path d="M 57.6 307.584 
L 414.72 307.584 
" style="fill: none; stroke: #000000; stroke-width: 0.8; stroke-linejoin: miter; stroke-linecap: square"/>
   </g>
   <g id="patch_6">
    <path d="M 57.6 41.472 
L 414.72 41.472 
" style="fill: none; stroke: #000000; stroke-width: 0.8; stroke-linejoin: miter; stroke-linecap: square"/>
   </g>
  </g>
 </g>
 <defs>
  <clipPath id="p32b2e54db2">
   <rect x="57.6" y="41.472" width="357.12" height="266.112"/>
  </clipPath>
 </defs>
</svg>
