<?xml version="1.0" encoding="utf-8" standalone="no"?>
<!DOCTYPE svg PUBLIC "-//W3C//DTD SVG 1.1//EN"
  "http://www.w3.org/Graphics/SVG/1.1/DTD/svg11.dtd">
<svg xmlns:xlink="http://www.w3.org/1999/xlink" width="460.8pt" height="345.6pt" viewBox="0 0 460.8 345.6" xmlns="http://www.w3.org/2000/svg" version="1.1">
 <metadata>
  <rdf:RDF xmlns:dc="http://purl.org/dc/elements/1.1/" xmlns:cc="http://creativecommons.org/ns#" xmlns:rdf="http://www.w3.org/1999/02/22-rdf-syntax-ns#">
   <cc:Work>
    <dc:type rdf:resource="http://purl.org/dc/dcmitype/StillImage"/>
    <dc:date>2025-12-24T04:54:52.693946</dc:date>
    <dc:format>image/svg+xml</dc:format>
    <dc:creator>
     <cc:Agent>
      <dc:title>Matplotlib v3.10.8, https://matplotlib.org/</dc:title>
     </cc:Agent>
    </dc:creator>
   </cc:Work>
  </rdf:RDF>
 </metadata>
 <defs>
  <style type="text/css">*{stroke-linejoin: round; stroke-linecap: butt}</style>
 </defs>
 <g id="figure_1">
  <g id="patch_1">
   <path d="M 0 345.6 
L 460.8 345.6 
L 460.8 0 
L 0 0 
z
" style="fill: #ffffff"/>
  </g>
  <g id="axes_1">
   <g id="patch_2">
    <path d="M 57.6 307.584 
L 414.72 307.584 
L 414.72 41.472 
L 57.6 41.472 
z
" style="fill: #ffffff"/>
   </g>
   <g id="matplotlib.axis_1">
    <g id="xtick_1">
     <g id="line2d_1">
      <defs>
       <path id="m8642fadd3a" d="M 0 0 
L 0 3.5 
" style="stroke: #000000; stroke-width: 0.8"/>
      </defs>
      <g>
       <use xlink:href="#m8642fadd3a" x="73.832727" y="307.584" style="stroke: #000000; stroke-width: 0.8"/>
      </g>
     </g>
     <g id="text_1">
      <!-- 0 -->
      <g transform="translate(70.651477 322.182437) scale(0.1 -0.1)">
       <defs>
        <path id="DejaVuSans-30" d="M 2034 4250 
Q 1547 4250 1301 3770 
Q 1056 3291 1056 2328 
Q 1056 1369 1301 889 
Q 1547 409 2034 409 
Q 2525 409 2770 889 
Q 3016 1369 3016 2328 
Q 3016 3291 2770 3770 
Q 2525 4250 2034 4250 
z
M 2034 4750 
Q 2819 4750 3233 4129 
Q 3647 3509 3647 2328 
Q 3647 1150 3233 529 
Q 2819 -91 2034 -91 
Q 1250 -91 836 529 
Q 422 1150 422 2328 
Q 422 3509 836 4129 
Q 1250 4750 2034 4750 
z
" transform="scale(0.015625)"/>
       </defs>
       <use xlink:href="#DejaVuSans-30"/>
      </g>
     </g>
    </g>
    <g id="xtick_2">
     <g id="line2d_2">
      <g>
       <use xlink:href="#m8642fadd3a" x="138.828632" y="307.584" style="stroke: #000000; stroke-width: 0.8"/>
      </g>
     </g>
     <g id="text_2">
      <!-- 1 -->
      <g transform="translate(135.647382 322.182437) scale(0.1 -0.1)">
       <defs>
        <path id="DejaVuSans-31" d="M 794 531 
L 1825 531 
L 1825 4091 
L 703 3866 
L 703 4441 
L 1819 4666 
L 2450 4666 
L 2450 531 
L 3481 531 
L 3481 0 
L 794 0 
L 794 531 
z
" transform="scale(0.015625)"/>
       </defs>
       <use xlink:href="#DejaVuSans-31"/>
      </g>
     </g>
    </g>
    <g id="xtick_3">
     <g id="line2d_3">
      <g>
       <use xlink:href="#m8642fadd3a" x="203.824537" y="307.584" style="stroke: #000000; stroke-width: 0.8"/>
      </g>
     </g>
     <g id="text_3">
      <!-- 2 -->
      <g transform="translate(200.643287 322.182437) scale(0.1 -0.1)">
       <defs>
        <path id="DejaVuSans-32" d="M 1228 531 
L 3431 531 
L 3431 0 
L 469 0 
L 469 531 
Q 828 903 1448 1529 
Q 2069 2156 2228 2338 
Q 2531 2678 2651 2914 
Q 2772 3150 2772 3378 
Q 2772 3750 2511 3984 
Q 2250 4219 1831 4219 
Q 1534 4219 1204 4116 
Q 875 4013 500 3803 
L 500 4441 
Q 881 4594 1212 4672 
Q 1544 4750 1819 4750 
Q 2544 4750 2975 4387 
Q 3406 4025 3406 3419 
Q 3406 3131 3298 2873 
Q 3191 2616 2906 2266 
Q 2828 2175 2409 1742 
Q 1991 1309 1228 531 
z
" transform="scale(0.015625)"/>
       </defs>
       <use xlink:href="#DejaVuSans-32"/>
      </g>
     </g>
    </g>
    <g id="xtick_4">
     <g id="line2d_4">
      <g>
       <use xlink:href="#m8642fadd3a" x="268.820442" y="307.584" style="stroke: #000000; stroke-width: 0.8"/>
      </g>
     </g>
     <g id="text_4">
      <!-- 3 -->
      <g transform="translate(265.639192 322.182437) scale(0.1 -0.1)">
       <defs>
        <path id="DejaVuSans-33" d="M 2597 2516 
Q 3050 2419 3304 2112 
Q 3559 1806 3559 1356 
Q 3559 666 3084 287 
Q 2609 -91 1734 -91 
Q 1441 -91 1130 -33 
Q 819 25 488 141 
L 488 750 
Q 750 597 1062 519 
Q 1375 441 1716 441 
Q 2309 441 2620 675 
Q 2931 909 2931 1356 
Q 2931 1769 2642 2001 
Q 2353 2234 1838 2234 
L 1294 2234 
L 1294 2753 
L 1863 2753 
Q 2328 2753 2575 2939 
Q 2822 3125 2822 3475 
Q 2822 3834 2567 4026 
Q 2313 4219 1838 4219 
Q 1578 4219 1281 4162 
Q 984 4106 628 3988 
L 628 4550 
Q 988 4650 1302 4700 
Q 1616 4750 1894 4750 
Q 2613 4750 3031 4423 
Q 3450 4097 3450 3541 
Q 3450 3153 3228 2886 
Q 3006 2619 2597 2516 
z
" transform="scale(0.015625)"/>
       </defs>
       <use xlink:href="#DejaVuSans-33"/>
      </g>
     </g>
    </g>
    <g id="xtick_5">
     <g id="line2d_5">
      <g>
       <use xlink:href="#m8642fadd3a" x="333.816347" y="307.584" style="stroke: #000000; stroke-width: 0.8"/>
      </g>
     </g>
     <g id="text_5">
      <!-- 4 -->
      <g transform="translate(330.635097 322.182437) scale(0.1 -0.1)">
       <defs>
        <path id="DejaVuSans-34" d="M 2419 4116 
L 825 1625 
L 2419 1625 
L 2419 4116 
z
M 2253 4666 
L 3047 4666 
L 3047 1625 
L 3713 1625 
L 3713 1100 
L 3047 1100 
L 3047 0 
L 2419 0 
L 2419 1100 
L 313 1100 
L 313 1709 
L 2253 4666 
z
" transform="scale(0.015625)"/>
       </defs>
       <use xlink:href="#DejaVuSans-34"/>
      </g>
     </g>
    </g>
    <g id="xtick_6">
     <g id="line2d_6">
      <g>
       <use xlink:href="#m8642fadd3a" x="398.812252" y="307.584" style="stroke: #000000; stroke-width: 0.8"/>
      </g>
     </g>
     <g id="text_6">
      <!-- 5 -->
      <g transform="translate(395.631002 322.182437) scale(0.1 -0.1)">
       <defs>
        <path id="DejaVuSans-35" d="M 691 4666 
L 3169 4666 
L 3169 4134 
L 1269 4134 
L 1269 2991 
Q 1406 3038 1543 3061 
Q 1681 3084 1819 3084 
Q 2600 3084 3056 2656 
Q 3513 2228 3513 1497 
Q 3513 744 3044 326 
Q 2575 -91 1722 -91 
Q 1428 -91 1123 -41 
Q 819 9 494 109 
L 494 744 
Q 775 591 1075 516 
Q 1375 441 1709 441 
Q 2250 441 2565 725 
Q 2881 1009 2881 1497 
Q 2881 1984 2565 2268 
Q 2250 2553 1709 2553 
Q 1456 2553 1204 2497 
Q 953 2441 691 2322 
L 691 4666 
z
" transform="scale(0.015625)"/>
       </defs>
       <use xlink:href="#DejaVuSans-35"/>
      </g>
     </g>
    </g>
    <g id="text_7">
     <!-- 1e−7 -->
     <g transform="translate(387.462188 334.860562) scale(0.1 -0.1)">
      <defs>
       <path id="DejaVuSans-65" d="M 3597 1894 
L 3597 1613 
L 953 1613 
Q 991 1019 1311 708 
Q 1631 397 2203 397 
Q 2534 397 2845 478 
Q 3156 559 3463 722 
L 3463 178 
Q 3153 47 2828 -22 
Q 2503 -91 2169 -91 
Q 1331 -91 842 396 
Q 353 884 353 1716 
Q 353 2575 817 3079 
Q 1281 3584 2069 3584 
Q 2775 3584 3186 3129 
Q 3597 2675 3597 1894 
z
M 3022 2063 
Q 3016 2534 2758 2815 
Q 2500 3097 2075 3097 
Q 1594 3097 1305 2825 
Q 1016 2553 972 2059 
L 3022 2063 
z
" transform="scale(0.015625)"/>
       <path id="DejaVuSans-2212" d="M 678 2272 
L 4684 2272 
L 4684 1741 
L 678 1741 
L 678 2272 
z
" transform="scale(0.015625)"/>
       <path id="DejaVuSans-37" d="M 525 4666 
L 3525 4666 
L 3525 4397 
L 1831 0 
L 1172 0 
L 2766 4134 
L 525 4134 
L 525 4666 
z
" transform="scale(0.015625)"/>
      </defs>
      <use xlink:href="#DejaVuSans-31"/>
      <use xlink:href="#DejaVuSans-65" transform="translate(63.623047 0)"/>
      <use xlink:href="#DejaVuSans-2212" transform="translate(125.146484 0)"/>
      <use xlink:href="#DejaVuSans-37" transform="translate(208.935547 0)"/>
     </g>
    </g>
   </g>
   <g id="matplotlib.axis_2">
    <g id="ytick_1">
     <g id="line2d_7">
      <defs>
       <path id="m670bf273b7" d="M 0 0 
L -3.5 0 
" style="stroke: #000000; stroke-width: 0.8"/>
      </defs>
      <g>
       <use xlink:href="#m670bf273b7" x="57.6" y="266.313179" style="stroke: #000000; stroke-width: 0.8"/>
      </g>
     </g>
     <g id="text_8">
      <!-- −40 -->
      <g transform="translate(29.495313 270.112397) scale(0.1 -0.1)">
       <use xlink:href="#DejaVuSans-2212"/>
       <use xlink:href="#DejaVuSans-34" transform="translate(83.789062 0)"/>
       <use xlink:href="#DejaVuSans-30" transform="translate(147.412109 0)"/>
      </g>
     </g>
    </g>
    <g id="ytick_2">
     <g id="line2d_8">
      <g>
       <use xlink:href="#m670bf273b7" x="57.6" y="220.095629" style="stroke: #000000; stroke-width: 0.8"/>
      </g>
     </g>
     <g id="text_9">
      <!-- −20 -->
      <g transform="translate(29.495313 223.894848) scale(0.1 -0.1)">
       <use xlink:href="#DejaVuSans-2212"/>
       <use xlink:href="#DejaVuSans-32" transform="translate(83.789062 0)"/>
       <use xlink:href="#DejaVuSans-30" transform="translate(147.412109 0)"/>
      </g>
     </g>
    </g>
    <g id="ytick_3">
     <g id="line2d_9">
      <g>
       <use xlink:href="#m670bf273b7" x="57.6" y="173.87808" style="stroke: #000000; stroke-width: 0.8"/>
      </g>
     </g>
     <g id="text_10">
      <!-- 0 -->
      <g transform="translate(44.2375 177.677299) scale(0.1 -0.1)">
       <use xlink:href="#DejaVuSans-30"/>
      </g>
     </g>
    </g>
    <g id="ytick_4">
     <g id="line2d_10">
      <g>
       <use xlink:href="#m670bf273b7" x="57.6" y="127.66053" style="stroke: #000000; stroke-width: 0.8"/>
      </g>
     </g>
     <g id="text_11">
      <!-- 20 -->
      <g transform="translate(37.875 131.459749) scale(0.1 -0.1)">
       <use xlink:href="#DejaVuSans-32"/>
       <use xlink:href="#DejaVuSans-30" transform="translate(63.623047 0)"/>
      </g>
     </g>
    </g>
    <g id="ytick_5">
     <g id="line2d_11">
      <g>
       <use xlink:href="#m670bf273b7" x="57.6" y="81.442981" style="stroke: #000000; stroke-width: 0.8"/>
      </g>
     </g>
     <g id="text_12">
      <!-- 40 -->
      <g transform="translate(37.875 85.2422) scale(0.1 -0.1)">
       <use xlink:href="#DejaVuSans-34"/>
       <use xlink:href="#DejaVuSans-30" transform="translate(63.623047 0)"/>
      </g>
     </g>
    </g>
   </g>
   <g id="line2d_12">
    <path d="M 73.832727 255.769791 
L 74.482686 248.548299 
L 74.807666 248.548299 
L 75.132645 244.937552 
L 75.457625 237.71606 
L 75.782604 237.71606 
L 76.107584 234.105313 
L 76.432563 226.883821 
L 77.082523 226.883821 
L 77.407502 219.662328 
L 77.732482 216.051582 
L 78.057461 208.83009 
L 78.382441 212.440836 
L 78.70742 212.440836 
L 79.0324 205.219343 
L 79.357379 201.608597 
L 79.682359 190.776358 
L 80.007338 197.997851 
L 80.332318 190.776358 
L 80.657297 187.165612 
L 80.982277 187.165612 
L 81.957215 176.333373 
L 82.282195 176.333373 
L 82.607174 169.111881 
L 82.932154 169.111881 
L 83.257133 165.501134 
L 83.582113 165.501134 
L 84.882031 151.058149 
L 85.207011 154.668896 
L 85.53199 147.447403 
L 85.85697 147.447403 
L 86.181949 143.836657 
L 86.506929 147.447403 
L 86.831908 143.836657 
L 87.481867 143.836657 
L 87.806847 140.22591 
L 88.131826 140.22591 
L 88.456806 136.615164 
L 88.781785 140.22591 
L 89.106765 140.22591 
L 89.431744 136.615164 
L 89.756724 136.615164 
L 90.081704 133.004418 
L 90.406683 136.615164 
L 90.731663 133.004418 
L 91.381622 133.004418 
L 91.706601 140.22591 
L 92.031581 133.004418 
L 92.35656 133.004418 
L 92.68154 136.615164 
L 93.006519 133.004418 
L 93.981458 133.004418 
L 94.306437 136.615164 
L 94.631417 136.615164 
L 95.281376 129.393672 
L 95.606355 136.615164 
L 95.931335 129.393672 
L 96.256314 129.393672 
L 96.906274 136.615164 
L 97.231253 129.393672 
L 97.556233 129.393672 
L 97.881212 133.004418 
L 98.531171 125.782925 
L 99.50611 125.782925 
L 99.831089 122.172179 
L 100.156069 122.172179 
L 100.481048 118.561433 
L 100.806028 122.172179 
L 101.455987 114.950687 
L 102.430925 114.950687 
L 102.755905 111.33994 
L 103.405864 111.33994 
L 103.730844 100.507701 
L 104.055823 104.118448 
L 104.380803 104.118448 
L 104.705782 100.507701 
L 105.030762 100.507701 
L 105.355741 96.896955 
L 105.680721 96.896955 
L 106.33068 89.675463 
L 106.980639 89.675463 
L 107.305618 86.064716 
L 107.630598 78.843224 
L 107.955577 82.45397 
L 108.280557 82.45397 
L 109.255495 71.621731 
L 109.580475 71.621731 
L 109.905455 75.232478 
L 110.880393 64.400239 
L 111.205373 68.010985 
L 111.530352 64.400239 
L 112.505291 64.400239 
L 112.83027 60.789493 
L 113.480229 60.789493 
L 113.805209 57.178746 
L 115.105127 57.178746 
L 115.430106 60.789493 
L 115.755086 60.789493 
L 116.080066 57.178746 
L 116.405045 60.789493 
L 117.055004 60.789493 
L 117.379984 64.400239 
L 118.029943 64.400239 
L 118.354922 68.010985 
L 119.329861 68.010985 
L 119.97982 75.232478 
L 120.304799 75.232478 
L 120.629779 78.843224 
L 121.279738 78.843224 
L 122.254676 89.675463 
L 122.579656 96.896955 
L 122.904636 100.507701 
L 123.554595 100.507701 
L 123.879574 107.729194 
L 124.204554 107.729194 
L 124.529533 111.33994 
L 124.854513 111.33994 
L 125.179492 114.950687 
L 125.504472 122.172179 
L 126.154431 129.393672 
L 126.47941 129.393672 
L 126.80439 140.22591 
L 127.129369 136.615164 
L 127.454349 143.836657 
L 127.779328 143.836657 
L 128.104308 154.668896 
L 128.754267 154.668896 
L 129.079247 161.890388 
L 129.404226 161.890388 
L 129.729206 165.501134 
L 130.054185 172.722627 
L 130.379165 172.722627 
L 131.354103 183.554866 
L 131.679083 176.333373 
L 132.004062 183.554866 
L 132.654021 190.776358 
L 132.979001 197.997851 
L 133.30398 201.608597 
L 133.953939 201.608597 
L 134.278919 205.219343 
L 135.253857 205.219343 
L 135.578837 212.440836 
L 135.903817 216.051582 
L 136.228796 212.440836 
L 136.878755 212.440836 
L 137.203735 223.273075 
L 137.528714 219.662328 
L 138.178673 219.662328 
L 138.503653 226.883821 
L 138.828632 223.273075 
L 139.153612 226.883821 
L 140.45353 226.883821 
L 140.778509 230.494567 
L 142.078428 230.494567 
L 142.403407 234.105313 
L 142.728387 234.105313 
L 143.053366 230.494567 
L 143.378346 234.105313 
L 144.028305 234.105313 
L 144.353284 237.71606 
L 146.303161 237.71606 
L 146.628141 241.326806 
L 146.95312 241.326806 
L 147.2781 237.71606 
L 147.603079 241.326806 
L 148.253038 241.326806 
L 148.578018 244.937552 
L 149.552957 244.937552 
L 149.877936 248.548299 
L 150.527895 241.326806 
L 151.502834 252.159045 
L 152.477772 252.159045 
L 152.802752 255.769791 
L 153.127731 255.769791 
L 153.452711 252.159045 
L 153.77769 259.380537 
L 154.10267 262.991284 
L 154.427649 259.380537 
L 155.077609 266.60203 
L 155.402588 266.60203 
L 155.727568 270.212776 
L 156.052547 266.60203 
L 156.377527 273.823522 
L 156.702506 270.212776 
L 157.352465 277.434269 
L 158.002424 277.434269 
L 158.327404 281.045015 
L 158.652383 277.434269 
L 159.302342 284.655761 
L 159.627322 284.655761 
L 160.277281 291.877254 
L 160.60226 288.266507 
L 161.252219 288.266507 
L 161.577199 291.877254 
L 161.902179 288.266507 
L 162.227158 291.877254 
L 162.552138 291.877254 
L 162.877117 288.266507 
L 163.202097 295.488 
L 163.852056 288.266507 
L 164.502015 295.488 
L 165.151974 288.266507 
L 165.476953 291.877254 
L 165.801933 284.655761 
L 166.126912 284.655761 
L 166.451892 281.045015 
L 166.776871 281.045015 
L 167.101851 277.434269 
L 167.42683 277.434269 
L 167.75181 273.823522 
L 168.07679 262.991284 
L 168.401769 270.212776 
L 168.726749 266.60203 
L 169.051728 259.380537 
L 169.376708 262.991284 
L 169.701687 259.380537 
L 170.026667 252.159045 
L 170.676626 252.159045 
L 171.326585 237.71606 
L 171.651564 234.105313 
L 171.976544 234.105313 
L 172.626503 226.883821 
L 172.951482 219.662328 
L 173.276462 216.051582 
L 173.601441 219.662328 
L 173.926421 212.440836 
L 174.2514 208.83009 
L 174.57638 208.83009 
L 175.551319 197.997851 
L 175.876298 197.997851 
L 176.201278 190.776358 
L 176.851237 183.554866 
L 177.176216 183.554866 
L 178.151155 172.722627 
L 178.476134 165.501134 
L 178.801114 169.111881 
L 179.451073 161.890388 
L 180.101032 161.890388 
L 180.426011 154.668896 
L 181.40095 154.668896 
L 181.72593 147.447403 
L 182.050909 147.447403 
L 182.375889 143.836657 
L 182.700868 143.836657 
L 183.025848 140.22591 
L 183.350827 140.22591 
L 183.675807 136.615164 
L 184.000786 143.836657 
L 184.325766 136.615164 
L 184.650745 136.615164 
L 184.975725 140.22591 
L 185.300704 136.615164 
L 185.625684 136.615164 
L 185.950663 140.22591 
L 186.275643 140.22591 
L 186.925602 133.004418 
L 187.250581 133.004418 
L 187.575561 136.615164 
L 187.900541 136.615164 
L 188.22552 133.004418 
L 188.5505 136.615164 
L 188.875479 129.393672 
L 189.200459 133.004418 
L 190.175397 133.004418 
L 190.500377 136.615164 
L 190.825356 133.004418 
L 191.150336 133.004418 
L 191.475315 136.615164 
L 191.800295 129.393672 
L 193.100213 129.393672 
L 193.425192 133.004418 
L 193.750172 125.782925 
L 194.075152 125.782925 
L 194.400131 129.393672 
L 194.725111 125.782925 
L 195.37507 125.782925 
L 195.700049 129.393672 
L 196.025029 122.172179 
L 196.674988 122.172179 
L 196.999967 118.561433 
L 197.324947 118.561433 
L 197.649926 114.950687 
L 198.624865 114.950687 
L 198.949844 107.729194 
L 199.274824 104.118448 
L 199.599803 107.729194 
L 200.249762 100.507701 
L 200.899722 100.507701 
L 201.224701 96.896955 
L 201.87466 96.896955 
L 202.19964 89.675463 
L 202.524619 86.064716 
L 202.849599 86.064716 
L 203.174578 82.45397 
L 203.824537 82.45397 
L 204.474496 75.232478 
L 204.799476 78.843224 
L 205.449435 71.621731 
L 205.774414 71.621731 
L 206.099394 75.232478 
L 206.424373 68.010985 
L 206.749353 68.010985 
L 207.074333 64.400239 
L 207.724292 64.400239 
L 208.374251 57.178746 
L 208.69923 60.789493 
L 209.02421 57.178746 
L 209.349189 60.789493 
L 209.674169 57.178746 
L 210.974087 57.178746 
L 211.299066 60.789493 
L 211.624046 57.178746 
L 211.949025 60.789493 
L 212.274005 60.789493 
L 212.598984 57.178746 
L 212.923964 60.789493 
L 213.248943 57.178746 
L 213.573923 64.400239 
L 213.898903 64.400239 
L 214.223882 68.010985 
L 214.548862 68.010985 
L 214.873841 64.400239 
L 215.198821 71.621731 
L 215.84878 71.621731 
L 216.173759 78.843224 
L 216.823718 78.843224 
L 217.798657 89.675463 
L 218.123636 89.675463 
L 218.773595 96.896955 
L 219.098575 96.896955 
L 219.423554 100.507701 
L 219.748534 107.729194 
L 220.073514 107.729194 
L 220.723473 114.950687 
L 221.048452 122.172179 
L 221.698411 129.393672 
L 222.023391 129.393672 
L 222.34837 136.615164 
L 222.67335 136.615164 
L 224.948206 161.890388 
L 225.273186 161.890388 
L 225.598165 169.111881 
L 225.923145 169.111881 
L 226.248124 172.722627 
L 226.573104 179.944119 
L 226.898084 183.554866 
L 227.223063 183.554866 
L 227.548043 187.165612 
L 228.198002 187.165612 
L 228.522981 194.387104 
L 228.847961 194.387104 
L 229.17294 201.608597 
L 229.822899 201.608597 
L 230.147879 205.219343 
L 230.472858 201.608597 
L 231.122817 208.83009 
L 231.447797 208.83009 
L 232.097756 216.051582 
L 232.422735 216.051582 
L 233.072695 223.273075 
L 233.397674 219.662328 
L 233.722654 219.662328 
L 234.047633 223.273075 
L 234.372613 223.273075 
L 234.697592 226.883821 
L 235.347551 226.883821 
L 235.672531 223.273075 
L 235.99751 226.883821 
L 236.32249 226.883821 
L 236.647469 230.494567 
L 236.972449 226.883821 
L 237.297428 234.105313 
L 237.622408 230.494567 
L 237.947387 234.105313 
L 238.272367 234.105313 
L 238.597346 230.494567 
L 238.922326 234.105313 
L 239.897265 234.105313 
L 240.222244 237.71606 
L 240.547224 234.105313 
L 241.197183 241.326806 
L 241.847142 234.105313 
L 242.172121 237.71606 
L 242.497101 244.937552 
L 242.82208 241.326806 
L 243.472039 241.326806 
L 243.797019 237.71606 
L 244.121998 237.71606 
L 244.771957 244.937552 
L 245.746896 244.937552 
L 246.071876 241.326806 
L 246.721835 248.548299 
L 247.046814 248.548299 
L 247.371794 252.159045 
L 248.346732 252.159045 
L 248.671712 255.769791 
L 248.996691 252.159045 
L 249.321671 259.380537 
L 249.64665 255.769791 
L 250.296609 262.991284 
L 251.271548 262.991284 
L 251.596527 270.212776 
L 251.921507 270.212776 
L 252.246486 273.823522 
L 252.571466 273.823522 
L 252.896446 281.045015 
L 253.221425 273.823522 
L 253.546405 281.045015 
L 254.196364 281.045015 
L 254.521343 284.655761 
L 254.846323 277.434269 
L 255.171302 284.655761 
L 255.496282 284.655761 
L 255.821261 288.266507 
L 256.47122 288.266507 
L 256.7962 291.877254 
L 257.121179 291.877254 
L 257.446159 288.266507 
L 258.096118 295.488 
L 258.421097 291.877254 
L 259.071057 291.877254 
L 259.396036 288.266507 
L 260.045995 288.266507 
L 260.370975 291.877254 
L 260.695954 288.266507 
L 261.020934 288.266507 
L 261.670893 281.045015 
L 261.995872 281.045015 
L 262.320852 277.434269 
L 262.970811 277.434269 
L 263.29579 281.045015 
L 263.62077 273.823522 
L 263.945749 273.823522 
L 264.920688 262.991284 
L 265.245667 255.769791 
L 265.570647 259.380537 
L 265.895627 252.159045 
L 266.220606 248.548299 
L 266.545586 248.548299 
L 269.145422 219.662328 
L 269.470401 219.662328 
L 269.795381 212.440836 
L 270.12036 208.83009 
L 270.44534 208.83009 
L 271.745258 194.387104 
L 272.070238 187.165612 
L 272.395217 187.165612 
L 273.045176 179.944119 
L 273.695135 179.944119 
L 274.020115 172.722627 
L 274.345094 172.722627 
L 275.320033 161.890388 
L 275.645012 161.890388 
L 275.969992 158.279642 
L 276.294971 158.279642 
L 277.26991 147.447403 
L 277.594889 151.058149 
L 278.244848 143.836657 
L 278.569828 143.836657 
L 278.894808 147.447403 
L 279.219787 140.22591 
L 279.544767 143.836657 
L 280.194726 136.615164 
L 280.844685 136.615164 
L 281.169664 140.22591 
L 281.494644 136.615164 
L 282.144603 136.615164 
L 282.469582 133.004418 
L 282.794562 133.004418 
L 283.119541 136.615164 
L 283.444521 133.004418 
L 283.7695 133.004418 
L 284.09448 136.615164 
L 284.419459 133.004418 
L 284.744439 136.615164 
L 285.394398 136.615164 
L 285.719378 129.393672 
L 286.044357 133.004418 
L 286.369337 133.004418 
L 286.694316 136.615164 
L 287.019296 133.004418 
L 287.344275 133.004418 
L 287.669255 129.393672 
L 287.994234 133.004418 
L 288.319214 133.004418 
L 288.644193 129.393672 
L 288.969173 133.004418 
L 289.294152 129.393672 
L 289.944111 129.393672 
L 290.269091 133.004418 
L 290.59407 125.782925 
L 290.91905 125.782925 
L 291.244029 122.172179 
L 291.569009 125.782925 
L 291.893989 122.172179 
L 292.543948 122.172179 
L 292.868927 118.561433 
L 293.518886 118.561433 
L 294.168845 111.33994 
L 294.493825 114.950687 
L 294.818804 107.729194 
L 295.143784 111.33994 
L 296.118722 100.507701 
L 296.443702 100.507701 
L 296.768681 96.896955 
L 297.093661 100.507701 
L 297.41864 96.896955 
L 297.74362 96.896955 
L 298.0686 89.675463 
L 298.393579 89.675463 
L 298.718559 86.064716 
L 299.368518 86.064716 
L 300.018477 78.843224 
L 300.668436 78.843224 
L 300.993415 71.621731 
L 301.968354 71.621731 
L 302.293333 68.010985 
L 302.618313 68.010985 
L 303.268272 60.789493 
L 303.593251 64.400239 
L 303.918231 60.789493 
L 304.56819 60.789493 
L 304.89317 64.400239 
L 305.218149 57.178746 
L 305.543129 60.789493 
L 305.868108 60.789493 
L 306.518067 53.568 
L 307.168026 53.568 
L 307.493006 60.789493 
L 307.817985 57.178746 
L 308.142965 60.789493 
L 308.467944 57.178746 
L 308.792924 60.789493 
L 309.442883 60.789493 
L 309.767862 68.010985 
L 310.742801 68.010985 
L 311.067781 71.621731 
L 311.39276 68.010985 
L 312.692678 82.45397 
L 313.342637 82.45397 
L 314.317576 93.286209 
L 314.642555 93.286209 
L 315.292514 107.729194 
L 315.617494 104.118448 
L 315.942473 107.729194 
L 316.267453 114.950687 
L 316.917412 114.950687 
L 317.242391 122.172179 
L 318.54231 136.615164 
L 318.867289 136.615164 
L 319.192269 147.447403 
L 319.517248 151.058149 
L 319.842228 147.447403 
L 320.167207 151.058149 
L 320.492187 161.890388 
L 320.817166 158.279642 
L 321.142146 161.890388 
L 321.467125 169.111881 
L 321.792105 169.111881 
L 323.417002 187.165612 
L 323.741982 187.165612 
L 324.066962 190.776358 
L 324.391941 190.776358 
L 324.716921 194.387104 
L 325.0419 194.387104 
L 325.691859 201.608597 
L 326.016839 201.608597 
L 326.341818 208.83009 
L 326.666798 212.440836 
L 326.991777 208.83009 
L 327.316757 212.440836 
L 327.641736 212.440836 
L 327.966716 216.051582 
L 328.616675 216.051582 
L 328.941654 212.440836 
L 329.916593 223.273075 
L 330.241572 223.273075 
L 330.566552 226.883821 
L 330.891532 226.883821 
L 331.216511 223.273075 
L 331.86647 230.494567 
L 332.19145 230.494567 
L 332.516429 226.883821 
L 332.841409 230.494567 
L 333.491368 230.494567 
L 333.816347 234.105313 
L 334.141327 230.494567 
L 334.466306 230.494567 
L 334.791286 234.105313 
L 335.116265 230.494567 
L 335.766224 237.71606 
L 336.091204 237.71606 
L 336.416183 230.494567 
L 337.066143 237.71606 
L 337.391122 234.105313 
L 337.716102 237.71606 
L 338.041081 237.71606 
L 338.366061 234.105313 
L 338.69104 241.326806 
L 339.340999 241.326806 
L 339.665979 237.71606 
L 339.990958 241.326806 
L 340.640917 241.326806 
L 340.965897 244.937552 
L 341.290876 244.937552 
L 341.615856 241.326806 
L 341.940835 248.548299 
L 342.265815 244.937552 
L 342.590794 248.548299 
L 343.240753 248.548299 
L 343.565733 252.159045 
L 343.890713 252.159045 
L 344.215692 255.769791 
L 344.540672 255.769791 
L 344.865651 252.159045 
L 345.51561 259.380537 
L 345.84059 255.769791 
L 346.165569 262.991284 
L 346.490549 266.60203 
L 346.815528 259.380537 
L 347.140508 266.60203 
L 347.465487 270.212776 
L 347.790467 266.60203 
L 348.115446 270.212776 
L 348.440426 270.212776 
L 348.765405 277.434269 
L 349.090385 273.823522 
L 349.740344 281.045015 
L 350.065324 277.434269 
L 350.390303 281.045015 
L 351.040262 281.045015 
L 351.365242 284.655761 
L 351.690221 291.877254 
L 352.015201 288.266507 
L 352.34018 291.877254 
L 352.66516 291.877254 
L 352.990139 288.266507 
L 353.315119 291.877254 
L 353.640098 291.877254 
L 353.965078 295.488 
L 354.290057 288.266507 
L 354.615037 291.877254 
L 354.940016 291.877254 
L 355.264996 288.266507 
L 355.589975 291.877254 
L 355.914955 288.266507 
L 356.239934 288.266507 
L 356.564914 284.655761 
L 356.889894 291.877254 
L 357.214873 288.266507 
L 357.539853 288.266507 
L 357.864832 284.655761 
L 358.189812 277.434269 
L 359.16475 277.434269 
L 359.814709 270.212776 
L 360.139689 270.212776 
L 360.464668 262.991284 
L 360.789648 262.991284 
L 361.764586 252.159045 
L 362.089566 252.159045 
L 362.414545 244.937552 
L 363.064505 244.937552 
L 363.389484 234.105313 
L 363.714464 230.494567 
L 364.364423 230.494567 
L 364.689402 223.273075 
L 365.664341 212.440836 
L 365.98932 212.440836 
L 366.3143 205.219343 
L 366.639279 205.219343 
L 366.964259 201.608597 
L 367.289238 201.608597 
L 367.614218 194.387104 
L 367.939197 194.387104 
L 368.264177 190.776358 
L 368.589156 183.554866 
L 369.564095 172.722627 
L 369.889075 172.722627 
L 370.214054 169.111881 
L 370.539034 169.111881 
L 370.864013 161.890388 
L 371.188993 165.501134 
L 371.513972 158.279642 
L 371.838952 154.668896 
L 372.163931 158.279642 
L 372.488911 158.279642 
L 372.81389 151.058149 
L 373.13887 147.447403 
L 373.463849 151.058149 
L 373.788829 147.447403 
L 374.113808 147.447403 
L 374.438788 143.836657 
L 375.413726 143.836657 
L 376.063686 136.615164 
L 376.388665 140.22591 
L 376.713645 136.615164 
L 377.363604 136.615164 
L 377.688583 140.22591 
L 378.013563 133.004418 
L 378.338542 140.22591 
L 378.663522 140.22591 
L 378.988501 133.004418 
L 379.96344 133.004418 
L 380.288419 136.615164 
L 380.613399 136.615164 
L 381.263358 129.393672 
L 381.588337 136.615164 
L 381.913317 133.004418 
L 382.563276 133.004418 
L 382.888256 136.615164 
L 383.213235 133.004418 
L 384.188174 133.004418 
L 384.513153 129.393672 
L 386.138051 129.393672 
L 386.46303 122.172179 
L 386.78801 129.393672 
L 387.112989 125.782925 
L 387.437969 125.782925 
L 387.762948 122.172179 
L 388.087928 125.782925 
L 388.412907 118.561433 
L 389.387846 118.561433 
L 390.037805 111.33994 
L 391.012744 111.33994 
L 391.337723 104.118448 
L 391.987682 104.118448 
L 392.312662 100.507701 
L 392.637641 100.507701 
L 392.962621 96.896955 
L 393.2876 100.507701 
L 393.61258 93.286209 
L 394.262539 93.286209 
L 395.562457 78.843224 
L 395.887437 82.45397 
L 396.212416 75.232478 
L 396.537396 75.232478 
L 396.862375 71.621731 
L 397.187355 78.843224 
L 397.512334 75.232478 
L 397.837314 68.010985 
L 398.162293 71.621731 
L 398.487273 68.010985 
L 398.487273 68.010985 
" clip-path="url(#pa9a7be17b5)" style="fill: none; stroke: #1f77b4; stroke-width: 1.5; stroke-linecap: square"/>
   </g>
   <g id="patch_3">
    <path d="M 57.6 307.584 
L 57.6 41.472 
" style="fill: none; stroke: #000000; stroke-width: 0.8; stroke-linejoin: miter; stroke-linecap: square"/>
   </g>
   <g id="patch_4">
    <path d="M 414.72 307.584 
L 414.72 41.472 
" style="fill: none; stroke: #000000; stroke-width: 0.8; stroke-linejoin: miter; stroke-linecap: square"/>
   </g>
   <g id="patch_5">
    <path d="M 57.6 307.584 
L 414.72 307.584 
" style="fill: none; stroke: #000000; stroke-width: 0.8; stroke-linejoin: miter; stroke-linecap: square"/>
   </g>
   <g id="patch_6">
    <path d="M 57.6 41.472 
L 414.72 41.472 
" style="fill: none; stroke: #000000; stroke-width: 0.8; stroke-linejoin: miter; stroke-linecap: square"/>
   </g>
  </g>
 </g>
 <defs>
  <clipPath id="pa9a7be17b5">
   <rect x="57.6" y="41.472" width="357.12" height="266.112"/>
  </clipPath>
 </defs>
</svg>
