<?xml version="1.0" encoding="utf-8" standalone="no"?>
<!DOCTYPE svg PUBLIC "-//W3C//DTD SVG 1.1//EN"
  "http://www.w3.org/Graphics/SVG/1.1/DTD/svg11.dtd">
<svg xmlns:xlink="http://www.w3.org/1999/xlink" width="460.8pt" height="345.6pt" viewBox="0 0 460.8 345.6" xmlns="http://www.w3.org/2000/svg" version="1.1">
 <metadata>
  <rdf:RDF xmlns:dc="http://purl.org/dc/elements/1.1/" xmlns:cc="http://creativecommons.org/ns#" xmlns:rdf="http://www.w3.org/1999/02/22-rdf-syntax-ns#">
   <cc:Work>
    <dc:type rdf:resource="http://purl.org/dc/dcmitype/StillImage"/>
    <dc:date>2025-12-26T13:19:41.493376</dc:date>
    <dc:format>image/svg+xml</dc:format>
    <dc:creator>
     <cc:Agent>
      <dc:title>Matplotlib v3.10.8, https://matplotlib.org/</dc:title>
     </cc:Agent>
    </dc:creator>
   </cc:Work>
  </rdf:RDF>
 </metadata>
 <defs>
  <style type="text/css">*{stroke-linejoin: round; stroke-linecap: butt}</style>
 </defs>
 <g id="figure_1">
  <g id="patch_1">
   <path d="M 0 345.6 
L 460.8 345.6 
L 460.8 0 
L 0 0 
z
" style="fill: #ffffff"/>
  </g>
  <g id="axes_1">
   <g id="patch_2">
    <path d="M 57.6 307.584 
L 414.72 307.584 
L 414.72 41.472 
L 57.6 41.472 
z
" style="fill: #ffffff"/>
   </g>
   <g id="matplotlib.axis_1">
    <g id="xtick_1">
     <g id="line2d_1">
      <defs>
       <path id="md60cd36fc6" d="M 0 0 
L 0 3.5 
" style="stroke: #000000; stroke-width: 0.8"/>
      </defs>
      <g>
       <use xlink:href="#md60cd36fc6" x="73.832727" y="307.584" style="stroke: #000000; stroke-width: 0.8"/>
      </g>
     </g>
     <g id="text_1">
      <!-- 0 -->
      <g transform="translate(70.651477 322.182437) scale(0.1 -0.1)">
       <defs>
        <path id="DejaVuSans-30" d="M 2034 4250 
Q 1547 4250 1301 3770 
Q 1056 3291 1056 2328 
Q 1056 1369 1301 889 
Q 1547 409 2034 409 
Q 2525 409 2770 889 
Q 3016 1369 3016 2328 
Q 3016 3291 2770 3770 
Q 2525 4250 2034 4250 
z
M 2034 4750 
Q 2819 4750 3233 4129 
Q 3647 3509 3647 2328 
Q 3647 1150 3233 529 
Q 2819 -91 2034 -91 
Q 1250 -91 836 529 
Q 422 1150 422 2328 
Q 422 3509 836 4129 
Q 1250 4750 2034 4750 
z
" transform="scale(0.015625)"/>
       </defs>
       <use xlink:href="#DejaVuSans-30"/>
      </g>
     </g>
    </g>
    <g id="xtick_2">
     <g id="line2d_2">
      <g>
       <use xlink:href="#md60cd36fc6" x="138.828632" y="307.584" style="stroke: #000000; stroke-width: 0.8"/>
      </g>
     </g>
     <g id="text_2">
      <!-- 1 -->
      <g transform="translate(135.647382 322.182437) scale(0.1 -0.1)">
       <defs>
        <path id="DejaVuSans-31" d="M 794 531 
L 1825 531 
L 1825 4091 
L 703 3866 
L 703 4441 
L 1819 4666 
L 2450 4666 
L 2450 531 
L 3481 531 
L 3481 0 
L 794 0 
L 794 531 
z
" transform="scale(0.015625)"/>
       </defs>
       <use xlink:href="#DejaVuSans-31"/>
      </g>
     </g>
    </g>
    <g id="xtick_3">
     <g id="line2d_3">
      <g>
       <use xlink:href="#md60cd36fc6" x="203.824537" y="307.584" style="stroke: #000000; stroke-width: 0.8"/>
      </g>
     </g>
     <g id="text_3">
      <!-- 2 -->
      <g transform="translate(200.643287 322.182437) scale(0.1 -0.1)">
       <defs>
        <path id="DejaVuSans-32" d="M 1228 531 
L 3431 531 
L 3431 0 
L 469 0 
L 469 531 
Q 828 903 1448 1529 
Q 2069 2156 2228 2338 
Q 2531 2678 2651 2914 
Q 2772 3150 2772 3378 
Q 2772 3750 2511 3984 
Q 2250 4219 1831 4219 
Q 1534 4219 1204 4116 
Q 875 4013 500 3803 
L 500 4441 
Q 881 4594 1212 4672 
Q 1544 4750 1819 4750 
Q 2544 4750 2975 4387 
Q 3406 4025 3406 3419 
Q 3406 3131 3298 2873 
Q 3191 2616 2906 2266 
Q 2828 2175 2409 1742 
Q 1991 1309 1228 531 
z
" transform="scale(0.015625)"/>
       </defs>
       <use xlink:href="#DejaVuSans-32"/>
      </g>
     </g>
    </g>
    <g id="xtick_4">
     <g id="line2d_4">
      <g>
       <use xlink:href="#md60cd36fc6" x="268.820442" y="307.584" style="stroke: #000000; stroke-width: 0.8"/>
      </g>
     </g>
     <g id="text_4">
      <!-- 3 -->
      <g transform="translate(265.639192 322.182437) scale(0.1 -0.1)">
       <defs>
        <path id="DejaVuSans-33" d="M 2597 2516 
Q 3050 2419 3304 2112 
Q 3559 1806 3559 1356 
Q 3559 666 3084 287 
Q 2609 -91 1734 -91 
Q 1441 -91 1130 -33 
Q 819 25 488 141 
L 488 750 
Q 750 597 1062 519 
Q 1375 441 1716 441 
Q 2309 441 2620 675 
Q 2931 909 2931 1356 
Q 2931 1769 2642 2001 
Q 2353 2234 1838 2234 
L 1294 2234 
L 1294 2753 
L 1863 2753 
Q 2328 2753 2575 2939 
Q 2822 3125 2822 3475 
Q 2822 3834 2567 4026 
Q 2313 4219 1838 4219 
Q 1578 4219 1281 4162 
Q 984 4106 628 3988 
L 628 4550 
Q 988 4650 1302 4700 
Q 1616 4750 1894 4750 
Q 2613 4750 3031 4423 
Q 3450 4097 3450 3541 
Q 3450 3153 3228 2886 
Q 3006 2619 2597 2516 
z
" transform="scale(0.015625)"/>
       </defs>
       <use xlink:href="#DejaVuSans-33"/>
      </g>
     </g>
    </g>
    <g id="xtick_5">
     <g id="line2d_5">
      <g>
       <use xlink:href="#md60cd36fc6" x="333.816347" y="307.584" style="stroke: #000000; stroke-width: 0.8"/>
      </g>
     </g>
     <g id="text_5">
      <!-- 4 -->
      <g transform="translate(330.635097 322.182437) scale(0.1 -0.1)">
       <defs>
        <path id="DejaVuSans-34" d="M 2419 4116 
L 825 1625 
L 2419 1625 
L 2419 4116 
z
M 2253 4666 
L 3047 4666 
L 3047 1625 
L 3713 1625 
L 3713 1100 
L 3047 1100 
L 3047 0 
L 2419 0 
L 2419 1100 
L 313 1100 
L 313 1709 
L 2253 4666 
z
" transform="scale(0.015625)"/>
       </defs>
       <use xlink:href="#DejaVuSans-34"/>
      </g>
     </g>
    </g>
    <g id="xtick_6">
     <g id="line2d_6">
      <g>
       <use xlink:href="#md60cd36fc6" x="398.812252" y="307.584" style="stroke: #000000; stroke-width: 0.8"/>
      </g>
     </g>
     <g id="text_6">
      <!-- 5 -->
      <g transform="translate(395.631002 322.182437) scale(0.1 -0.1)">
       <defs>
        <path id="DejaVuSans-35" d="M 691 4666 
L 3169 4666 
L 3169 4134 
L 1269 4134 
L 1269 2991 
Q 1406 3038 1543 3061 
Q 1681 3084 1819 3084 
Q 2600 3084 3056 2656 
Q 3513 2228 3513 1497 
Q 3513 744 3044 326 
Q 2575 -91 1722 -91 
Q 1428 -91 1123 -41 
Q 819 9 494 109 
L 494 744 
Q 775 591 1075 516 
Q 1375 441 1709 441 
Q 2250 441 2565 725 
Q 2881 1009 2881 1497 
Q 2881 1984 2565 2268 
Q 2250 2553 1709 2553 
Q 1456 2553 1204 2497 
Q 953 2441 691 2322 
L 691 4666 
z
" transform="scale(0.015625)"/>
       </defs>
       <use xlink:href="#DejaVuSans-35"/>
      </g>
     </g>
    </g>
    <g id="text_7">
     <!-- 1e−7 -->
     <g transform="translate(387.462188 334.860562) scale(0.1 -0.1)">
      <defs>
       <path id="DejaVuSans-65" d="M 3597 1894 
L 3597 1613 
L 953 1613 
Q 991 1019 1311 708 
Q 1631 397 2203 397 
Q 2534 397 2845 478 
Q 3156 559 3463 722 
L 3463 178 
Q 3153 47 2828 -22 
Q 2503 -91 2169 -91 
Q 1331 -91 842 396 
Q 353 884 353 1716 
Q 353 2575 817 3079 
Q 1281 3584 2069 3584 
Q 2775 3584 3186 3129 
Q 3597 2675 3597 1894 
z
M 3022 2063 
Q 3016 2534 2758 2815 
Q 2500 3097 2075 3097 
Q 1594 3097 1305 2825 
Q 1016 2553 972 2059 
L 3022 2063 
z
" transform="scale(0.015625)"/>
       <path id="DejaVuSans-2212" d="M 678 2272 
L 4684 2272 
L 4684 1741 
L 678 1741 
L 678 2272 
z
" transform="scale(0.015625)"/>
       <path id="DejaVuSans-37" d="M 525 4666 
L 3525 4666 
L 3525 4397 
L 1831 0 
L 1172 0 
L 2766 4134 
L 525 4134 
L 525 4666 
z
" transform="scale(0.015625)"/>
      </defs>
      <use xlink:href="#DejaVuSans-31"/>
      <use xlink:href="#DejaVuSans-65" transform="translate(63.623047 0)"/>
      <use xlink:href="#DejaVuSans-2212" transform="translate(125.146484 0)"/>
      <use xlink:href="#DejaVuSans-37" transform="translate(208.935547 0)"/>
     </g>
    </g>
   </g>
   <g id="matplotlib.axis_2">
    <g id="ytick_1">
     <g id="line2d_7">
      <defs>
       <path id="m90bf006cd5" d="M 0 0 
L -3.5 0 
" style="stroke: #000000; stroke-width: 0.8"/>
      </defs>
      <g>
       <use xlink:href="#m90bf006cd5" x="57.6" y="264.397389" style="stroke: #000000; stroke-width: 0.8"/>
      </g>
     </g>
     <g id="text_8">
      <!-- −200 -->
      <g transform="translate(23.132812 268.196607) scale(0.1 -0.1)">
       <use xlink:href="#DejaVuSans-2212"/>
       <use xlink:href="#DejaVuSans-32" transform="translate(83.789062 0)"/>
       <use xlink:href="#DejaVuSans-30" transform="translate(147.412109 0)"/>
       <use xlink:href="#DejaVuSans-30" transform="translate(211.035156 0)"/>
      </g>
     </g>
    </g>
    <g id="ytick_2">
     <g id="line2d_8">
      <g>
       <use xlink:href="#m90bf006cd5" x="57.6" y="214.452617" style="stroke: #000000; stroke-width: 0.8"/>
      </g>
     </g>
     <g id="text_9">
      <!-- −100 -->
      <g transform="translate(23.132812 218.251836) scale(0.1 -0.1)">
       <use xlink:href="#DejaVuSans-2212"/>
       <use xlink:href="#DejaVuSans-31" transform="translate(83.789062 0)"/>
       <use xlink:href="#DejaVuSans-30" transform="translate(147.412109 0)"/>
       <use xlink:href="#DejaVuSans-30" transform="translate(211.035156 0)"/>
      </g>
     </g>
    </g>
    <g id="ytick_3">
     <g id="line2d_9">
      <g>
       <use xlink:href="#m90bf006cd5" x="57.6" y="164.507846" style="stroke: #000000; stroke-width: 0.8"/>
      </g>
     </g>
     <g id="text_10">
      <!-- 0 -->
      <g transform="translate(44.2375 168.307065) scale(0.1 -0.1)">
       <use xlink:href="#DejaVuSans-30"/>
      </g>
     </g>
    </g>
    <g id="ytick_4">
     <g id="line2d_10">
      <g>
       <use xlink:href="#m90bf006cd5" x="57.6" y="114.563075" style="stroke: #000000; stroke-width: 0.8"/>
      </g>
     </g>
     <g id="text_11">
      <!-- 100 -->
      <g transform="translate(31.5125 118.362294) scale(0.1 -0.1)">
       <use xlink:href="#DejaVuSans-31"/>
       <use xlink:href="#DejaVuSans-30" transform="translate(63.623047 0)"/>
       <use xlink:href="#DejaVuSans-30" transform="translate(127.246094 0)"/>
      </g>
     </g>
    </g>
    <g id="ytick_5">
     <g id="line2d_11">
      <g>
       <use xlink:href="#m90bf006cd5" x="57.6" y="64.618304" style="stroke: #000000; stroke-width: 0.8"/>
      </g>
     </g>
     <g id="text_12">
      <!-- 200 -->
      <g transform="translate(31.5125 68.417523) scale(0.1 -0.1)">
       <use xlink:href="#DejaVuSans-32"/>
       <use xlink:href="#DejaVuSans-30" transform="translate(63.623047 0)"/>
       <use xlink:href="#DejaVuSans-30" transform="translate(127.246094 0)"/>
      </g>
     </g>
    </g>
   </g>
   <g id="line2d_12">
    <path d="M 73.832727 152.920691 
L 74.482686 159.163787 
L 75.457625 159.163787 
L 75.782604 165.406883 
L 76.432563 165.406883 
L 76.757543 171.649979 
L 77.407502 171.649979 
L 78.057461 177.893074 
L 78.382441 174.771527 
L 78.70742 177.893074 
L 79.0324 177.893074 
L 79.682359 184.13617 
L 80.332318 184.13617 
L 80.657297 181.014622 
L 80.982277 187.257718 
L 81.307256 190.379266 
L 81.632236 187.257718 
L 81.957215 187.257718 
L 82.282195 193.500814 
L 82.932154 193.500814 
L 83.257133 196.622362 
L 83.907093 196.622362 
L 84.232072 199.74391 
L 85.207011 199.74391 
L 85.53199 205.987005 
L 85.85697 202.865457 
L 86.831908 202.865457 
L 87.156888 209.108553 
L 87.481867 212.230101 
L 87.806847 209.108553 
L 88.456806 215.351649 
L 88.781785 212.230101 
L 89.431744 212.230101 
L 90.406683 221.594745 
L 91.056642 215.351649 
L 91.381622 221.594745 
L 92.031581 221.594745 
L 92.35656 224.716293 
L 92.68154 230.959388 
L 93.006519 227.83784 
L 93.656478 234.080936 
L 93.981458 230.959388 
L 94.306437 230.959388 
L 94.631417 234.080936 
L 94.956396 234.080936 
L 95.606355 240.324032 
L 96.256314 240.324032 
L 96.581294 246.567128 
L 96.906274 240.324032 
L 97.881212 249.688676 
L 98.206192 246.567128 
L 98.856151 252.810223 
L 99.18113 249.688676 
L 99.50611 249.688676 
L 99.831089 255.931771 
L 100.156069 252.810223 
L 100.481048 252.810223 
L 100.806028 255.931771 
L 101.131007 255.931771 
L 101.455987 252.810223 
L 101.780966 255.931771 
L 102.430925 249.688676 
L 102.755905 255.931771 
L 103.080885 255.931771 
L 103.405864 252.810223 
L 103.730844 255.931771 
L 104.055823 255.931771 
L 104.380803 252.810223 
L 105.355741 252.810223 
L 105.680721 249.688676 
L 106.0057 252.810223 
L 106.655659 246.567128 
L 106.980639 249.688676 
L 107.630598 243.44558 
L 107.955577 243.44558 
L 108.280557 246.567128 
L 108.605536 240.324032 
L 108.930516 243.44558 
L 109.255495 240.324032 
L 109.580475 234.080936 
L 109.905455 237.202484 
L 110.230434 230.959388 
L 110.555414 234.080936 
L 110.880393 234.080936 
L 111.205373 227.83784 
L 111.530352 227.83784 
L 111.855332 221.594745 
L 112.180311 224.716293 
L 112.505291 224.716293 
L 113.15525 218.473197 
L 113.480229 218.473197 
L 114.130188 212.230101 
L 114.455168 212.230101 
L 114.780147 209.108553 
L 115.105127 202.865457 
L 115.430106 205.987005 
L 115.755086 202.865457 
L 116.405045 202.865457 
L 116.730025 199.74391 
L 117.055004 193.500814 
L 117.379984 196.622362 
L 118.029943 190.379266 
L 118.354922 193.500814 
L 118.679902 190.379266 
L 119.004881 184.13617 
L 119.329861 187.257718 
L 120.304799 177.893074 
L 120.954758 177.893074 
L 121.279738 174.771527 
L 121.604717 174.771527 
L 121.929697 171.649979 
L 122.254676 165.406883 
L 122.579656 168.528431 
L 123.229615 162.285335 
L 123.554595 165.406883 
L 124.204554 159.163787 
L 124.529533 162.285335 
L 124.854513 156.042239 
L 125.179492 156.042239 
L 125.829451 149.799144 
L 126.154431 152.920691 
L 126.47941 149.799144 
L 127.129369 149.799144 
L 127.454349 143.556048 
L 127.779328 143.556048 
L 128.104308 140.4345 
L 128.429287 143.556048 
L 129.079247 143.556048 
L 129.404226 140.4345 
L 129.729206 140.4345 
L 130.379165 134.191404 
L 131.679083 134.191404 
L 132.654021 124.826761 
L 132.979001 127.948308 
L 133.30398 124.826761 
L 133.62896 124.826761 
L 133.953939 127.948308 
L 134.278919 127.948308 
L 134.603898 121.705213 
L 134.928878 124.826761 
L 135.253857 121.705213 
L 135.578837 121.705213 
L 136.228796 115.462117 
L 136.553776 115.462117 
L 136.878755 118.583665 
L 137.203735 112.340569 
L 137.528714 115.462117 
L 137.853694 112.340569 
L 138.503653 112.340569 
L 138.828632 109.219021 
L 139.153612 109.219021 
L 139.478591 112.340569 
L 140.12855 106.097473 
L 140.45353 109.219021 
L 140.778509 102.975925 
L 141.103489 99.854378 
L 142.403407 99.854378 
L 143.053366 93.611282 
L 143.703325 93.611282 
L 144.353284 87.368186 
L 144.678264 90.489734 
L 145.003243 87.368186 
L 145.653202 87.368186 
L 146.303161 81.12509 
L 147.603079 81.12509 
L 148.253038 74.881995 
L 148.578018 78.003542 
L 148.902998 78.003542 
L 149.227977 74.881995 
L 149.552957 81.12509 
L 149.877936 81.12509 
L 150.202916 78.003542 
L 150.527895 78.003542 
L 150.852875 81.12509 
L 151.177854 78.003542 
L 151.502834 78.003542 
L 151.827813 74.881995 
L 152.152793 78.003542 
L 152.802752 78.003542 
L 153.127731 81.12509 
L 153.452711 74.881995 
L 153.77769 81.12509 
L 154.10267 78.003542 
L 154.427649 81.12509 
L 154.752629 81.12509 
L 155.077609 84.246638 
L 155.402588 81.12509 
L 156.052547 87.368186 
L 157.027486 87.368186 
L 157.677445 93.611282 
L 158.002424 90.489734 
L 158.327404 93.611282 
L 158.652383 93.611282 
L 159.302342 99.854378 
L 159.627322 96.73283 
L 159.952301 99.854378 
L 160.277281 109.219021 
L 160.60226 106.097473 
L 161.252219 112.340569 
L 161.577199 109.219021 
L 162.552138 118.583665 
L 163.202097 118.583665 
L 163.527076 121.705213 
L 163.852056 121.705213 
L 164.177035 127.948308 
L 164.826994 127.948308 
L 165.151974 131.069856 
L 165.476953 137.312952 
L 165.801933 134.191404 
L 166.126912 137.312952 
L 167.101851 137.312952 
L 167.42683 143.556048 
L 167.75181 146.677596 
L 168.401769 146.677596 
L 168.726749 149.799144 
L 169.051728 146.677596 
L 169.376708 156.042239 
L 169.701687 152.920691 
L 170.026667 152.920691 
L 170.676626 159.163787 
L 171.001605 159.163787 
L 171.326585 165.406883 
L 171.976544 165.406883 
L 172.301523 162.285335 
L 172.951482 174.771527 
L 173.601441 174.771527 
L 173.926421 177.893074 
L 174.2514 171.649979 
L 174.57638 181.014622 
L 175.226339 181.014622 
L 175.551319 187.257718 
L 175.876298 187.257718 
L 176.201278 184.13617 
L 176.526257 184.13617 
L 176.851237 187.257718 
L 177.501196 187.257718 
L 177.826175 190.379266 
L 178.151155 190.379266 
L 178.801114 196.622362 
L 179.126093 196.622362 
L 179.451073 193.500814 
L 179.776052 196.622362 
L 180.426011 196.622362 
L 181.075971 202.865457 
L 181.72593 202.865457 
L 182.050909 209.108553 
L 182.700868 202.865457 
L 183.025848 209.108553 
L 183.350827 209.108553 
L 183.675807 212.230101 
L 184.650745 212.230101 
L 184.975725 218.473197 
L 185.625684 212.230101 
L 185.950663 218.473197 
L 186.275643 221.594745 
L 186.600622 218.473197 
L 186.925602 221.594745 
L 187.250581 221.594745 
L 187.575561 218.473197 
L 188.5505 227.83784 
L 189.200459 227.83784 
L 189.525438 230.959388 
L 189.850418 230.959388 
L 190.175397 237.202484 
L 190.500377 234.080936 
L 190.825356 234.080936 
L 191.150336 237.202484 
L 191.475315 243.44558 
L 191.800295 237.202484 
L 192.450254 243.44558 
L 192.775233 240.324032 
L 193.425192 246.567128 
L 193.750172 246.567128 
L 194.400131 252.810223 
L 194.725111 252.810223 
L 195.05009 249.688676 
L 195.37507 255.931771 
L 195.700049 255.931771 
L 196.025029 252.810223 
L 196.350008 252.810223 
L 196.674988 262.174867 
L 196.999967 252.810223 
L 197.324947 255.931771 
L 197.649926 255.931771 
L 197.974906 252.810223 
L 198.299885 252.810223 
L 198.624865 255.931771 
L 199.274824 255.931771 
L 199.599803 252.810223 
L 199.924783 252.810223 
L 200.249762 249.688676 
L 200.574742 252.810223 
L 200.899722 252.810223 
L 201.224701 246.567128 
L 201.549681 249.688676 
L 201.87466 249.688676 
L 202.19964 246.567128 
L 202.524619 246.567128 
L 202.849599 249.688676 
L 203.174578 243.44558 
L 203.499558 246.567128 
L 203.824537 243.44558 
L 204.149517 243.44558 
L 204.474496 240.324032 
L 205.124455 240.324032 
L 205.449435 230.959388 
L 205.774414 240.324032 
L 206.099394 234.080936 
L 206.424373 230.959388 
L 207.074333 230.959388 
L 207.724292 224.716293 
L 208.049271 227.83784 
L 208.374251 218.473197 
L 208.69923 215.351649 
L 209.02421 218.473197 
L 209.349189 218.473197 
L 210.649107 205.987005 
L 210.974087 205.987005 
L 211.299066 202.865457 
L 211.624046 202.865457 
L 211.949025 199.74391 
L 212.274005 202.865457 
L 212.598984 196.622362 
L 213.248943 196.622362 
L 213.573923 193.500814 
L 213.898903 187.257718 
L 214.548862 187.257718 
L 214.873841 190.379266 
L 215.198821 184.13617 
L 215.5238 184.13617 
L 215.84878 181.014622 
L 216.498739 181.014622 
L 216.823718 174.771527 
L 217.148698 177.893074 
L 217.473677 177.893074 
L 217.798657 171.649979 
L 218.123636 171.649979 
L 218.448616 168.528431 
L 218.773595 162.285335 
L 219.098575 165.406883 
L 219.423554 165.406883 
L 220.073514 159.163787 
L 220.398493 159.163787 
L 221.048452 152.920691 
L 221.698411 152.920691 
L 222.023391 149.799144 
L 222.67335 149.799144 
L 222.998329 146.677596 
L 223.648288 146.677596 
L 224.298247 140.4345 
L 224.623227 140.4345 
L 224.948206 143.556048 
L 225.273186 143.556048 
L 225.598165 137.312952 
L 225.923145 140.4345 
L 226.248124 134.191404 
L 226.573104 137.312952 
L 227.223063 131.069856 
L 227.548043 134.191404 
L 227.873022 134.191404 
L 228.198002 131.069856 
L 228.847961 131.069856 
L 229.17294 127.948308 
L 229.49792 121.705213 
L 229.822899 124.826761 
L 230.472858 124.826761 
L 231.122817 118.583665 
L 232.097756 118.583665 
L 232.422735 112.340569 
L 233.072695 118.583665 
L 233.397674 112.340569 
L 233.722654 115.462117 
L 234.047633 115.462117 
L 234.372613 109.219021 
L 234.697592 106.097473 
L 235.347551 106.097473 
L 235.672531 109.219021 
L 236.32249 102.975925 
L 236.647469 102.975925 
L 236.972449 106.097473 
L 237.297428 99.854378 
L 237.622408 96.73283 
L 237.947387 102.975925 
L 238.597346 96.73283 
L 239.247305 96.73283 
L 239.897265 90.489734 
L 240.547224 90.489734 
L 240.872203 87.368186 
L 241.197183 87.368186 
L 241.847142 81.12509 
L 242.172121 84.246638 
L 242.82208 78.003542 
L 243.472039 84.246638 
L 243.797019 78.003542 
L 244.121998 78.003542 
L 244.446978 81.12509 
L 245.096937 74.881995 
L 245.421916 78.003542 
L 245.746896 78.003542 
L 246.071876 81.12509 
L 246.721835 74.881995 
L 247.046814 74.881995 
L 247.371794 78.003542 
L 247.696773 74.881995 
L 248.671712 84.246638 
L 248.996691 78.003542 
L 249.321671 78.003542 
L 249.64665 84.246638 
L 249.97163 81.12509 
L 250.621589 81.12509 
L 250.946568 84.246638 
L 251.921507 84.246638 
L 252.246486 81.12509 
L 252.571466 87.368186 
L 252.896446 90.489734 
L 253.221425 87.368186 
L 253.871384 93.611282 
L 254.196364 93.611282 
L 254.521343 96.73283 
L 254.846323 102.975925 
L 255.171302 99.854378 
L 255.821261 99.854378 
L 256.7962 109.219021 
L 257.121179 109.219021 
L 257.446159 106.097473 
L 257.771138 112.340569 
L 258.096118 115.462117 
L 258.421097 115.462117 
L 258.746077 121.705213 
L 259.071057 124.826761 
L 259.721016 124.826761 
L 260.045995 127.948308 
L 260.695954 127.948308 
L 261.670893 137.312952 
L 261.995872 134.191404 
L 262.320852 137.312952 
L 262.645831 134.191404 
L 262.970811 143.556048 
L 263.29579 143.556048 
L 263.62077 140.4345 
L 263.945749 146.677596 
L 264.270729 149.799144 
L 264.595708 146.677596 
L 264.920688 149.799144 
L 265.245667 156.042239 
L 265.570647 152.920691 
L 265.895627 156.042239 
L 266.220606 156.042239 
L 266.545586 159.163787 
L 266.870565 159.163787 
L 267.195545 162.285335 
L 267.845504 162.285335 
L 268.170483 168.528431 
L 268.495463 171.649979 
L 268.820442 168.528431 
L 269.470401 174.771527 
L 270.12036 174.771527 
L 270.44534 181.014622 
L 270.770319 177.893074 
L 271.095299 181.014622 
L 271.420278 181.014622 
L 271.745258 184.13617 
L 272.395217 184.13617 
L 272.720197 187.257718 
L 273.045176 184.13617 
L 273.370156 190.379266 
L 273.695135 193.500814 
L 274.020115 187.257718 
L 274.345094 193.500814 
L 274.670074 193.500814 
L 274.995053 196.622362 
L 275.320033 196.622362 
L 275.645012 199.74391 
L 275.969992 199.74391 
L 276.294971 196.622362 
L 276.619951 202.865457 
L 276.94493 199.74391 
L 277.26991 202.865457 
L 277.594889 202.865457 
L 277.919869 205.987005 
L 278.244848 202.865457 
L 278.569828 205.987005 
L 279.219787 205.987005 
L 279.544767 212.230101 
L 280.194726 212.230101 
L 280.519705 215.351649 
L 281.494644 215.351649 
L 281.819623 218.473197 
L 282.469582 218.473197 
L 282.794562 221.594745 
L 283.119541 221.594745 
L 283.444521 218.473197 
L 283.7695 224.716293 
L 284.09448 227.83784 
L 284.419459 224.716293 
L 285.069419 230.959388 
L 285.394398 227.83784 
L 286.044357 234.080936 
L 286.694316 234.080936 
L 287.344275 240.324032 
L 288.644193 240.324032 
L 288.969173 246.567128 
L 289.944111 246.567128 
L 290.269091 252.810223 
L 290.59407 249.688676 
L 291.244029 255.931771 
L 291.569009 252.810223 
L 291.893989 252.810223 
L 292.218968 255.931771 
L 292.543948 252.810223 
L 292.868927 255.931771 
L 293.518886 255.931771 
L 293.843866 249.688676 
L 294.168845 255.931771 
L 294.818804 249.688676 
L 295.468763 255.931771 
L 295.793743 249.688676 
L 296.118722 249.688676 
L 296.443702 252.810223 
L 297.093661 252.810223 
L 297.74362 246.567128 
L 298.0686 249.688676 
L 298.393579 246.567128 
L 298.718559 249.688676 
L 299.043538 243.44558 
L 299.368518 249.688676 
L 299.693497 243.44558 
L 300.668436 243.44558 
L 300.993415 237.202484 
L 301.643374 237.202484 
L 301.968354 234.080936 
L 302.293333 234.080936 
L 302.943292 227.83784 
L 303.593251 227.83784 
L 303.918231 224.716293 
L 304.24321 215.351649 
L 304.56819 221.594745 
L 304.89317 221.594745 
L 305.218149 212.230101 
L 305.543129 218.473197 
L 305.868108 215.351649 
L 306.193088 209.108553 
L 306.843047 209.108553 
L 307.493006 202.865457 
L 307.817985 202.865457 
L 308.467944 196.622362 
L 308.792924 199.74391 
L 309.117903 196.622362 
L 309.442883 190.379266 
L 309.767862 193.500814 
L 310.092842 193.500814 
L 310.417821 187.257718 
L 310.742801 190.379266 
L 312.042719 177.893074 
L 312.367699 177.893074 
L 312.692678 174.771527 
L 313.667617 174.771527 
L 314.317576 168.528431 
L 314.642555 162.285335 
L 314.967535 168.528431 
L 315.292514 165.406883 
L 315.617494 159.163787 
L 316.267453 159.163787 
L 316.592432 156.042239 
L 317.242391 156.042239 
L 317.892351 149.799144 
L 318.867289 149.799144 
L 319.192269 146.677596 
L 319.517248 146.677596 
L 319.842228 140.4345 
L 320.167207 143.556048 
L 320.492187 140.4345 
L 321.142146 140.4345 
L 321.467125 143.556048 
L 321.792105 137.312952 
L 322.767043 137.312952 
L 323.417002 131.069856 
L 323.741982 134.191404 
L 324.066962 134.191404 
L 325.0419 124.826761 
L 325.36688 127.948308 
L 326.016839 121.705213 
L 326.666798 121.705213 
L 326.991777 118.583665 
L 327.641736 118.583665 
L 327.966716 115.462117 
L 328.616675 115.462117 
L 328.941654 112.340569 
L 329.266634 115.462117 
L 329.591613 112.340569 
L 329.916593 112.340569 
L 330.241572 109.219021 
L 330.566552 112.340569 
L 330.891532 109.219021 
L 331.216511 109.219021 
L 331.541491 106.097473 
L 331.86647 109.219021 
L 332.19145 102.975925 
L 332.841409 102.975925 
L 333.166388 99.854378 
L 333.816347 99.854378 
L 334.141327 96.73283 
L 334.466306 99.854378 
L 334.791286 90.489734 
L 335.116265 93.611282 
L 335.441245 90.489734 
L 335.766224 93.611282 
L 336.091204 87.368186 
L 337.066143 87.368186 
L 337.391122 81.12509 
L 337.716102 84.246638 
L 338.041081 84.246638 
L 338.69104 78.003542 
L 339.340999 78.003542 
L 339.665979 81.12509 
L 339.990958 78.003542 
L 340.315938 81.12509 
L 340.640917 74.881995 
L 340.965897 78.003542 
L 341.290876 78.003542 
L 341.615856 74.881995 
L 341.940835 78.003542 
L 342.590794 78.003542 
L 342.915774 74.881995 
L 343.240753 81.12509 
L 343.890713 74.881995 
L 344.215692 78.003542 
L 344.540672 78.003542 
L 344.865651 81.12509 
L 345.190631 78.003542 
L 345.51561 81.12509 
L 345.84059 74.881995 
L 346.165569 81.12509 
L 346.815528 81.12509 
L 347.465487 87.368186 
L 347.790467 87.368186 
L 348.115446 84.246638 
L 348.440426 90.489734 
L 348.765405 90.489734 
L 349.090385 87.368186 
L 350.065324 96.73283 
L 351.040262 96.73283 
L 351.365242 102.975925 
L 351.690221 102.975925 
L 352.015201 106.097473 
L 352.34018 106.097473 
L 352.66516 109.219021 
L 352.990139 109.219021 
L 353.640098 115.462117 
L 353.965078 112.340569 
L 354.290057 115.462117 
L 354.615037 115.462117 
L 354.940016 118.583665 
L 355.264996 124.826761 
L 355.589975 124.826761 
L 355.914955 127.948308 
L 356.239934 121.705213 
L 356.564914 131.069856 
L 357.214873 131.069856 
L 357.864832 137.312952 
L 358.514791 137.312952 
L 358.839771 143.556048 
L 359.16475 143.556048 
L 359.48973 140.4345 
L 360.464668 149.799144 
L 361.439607 149.799144 
L 361.764586 156.042239 
L 362.089566 159.163787 
L 362.414545 159.163787 
L 363.064505 165.406883 
L 363.389484 162.285335 
L 363.714464 165.406883 
L 364.039443 171.649979 
L 364.364423 168.528431 
L 364.689402 168.528431 
L 365.664341 177.893074 
L 366.3143 177.893074 
L 366.639279 174.771527 
L 366.964259 181.014622 
L 367.614218 181.014622 
L 368.264177 187.257718 
L 369.564095 187.257718 
L 370.539034 196.622362 
L 371.188993 196.622362 
L 371.513972 199.74391 
L 371.838952 196.622362 
L 372.163931 196.622362 
L 372.488911 202.865457 
L 372.81389 199.74391 
L 373.463849 205.987005 
L 374.113808 205.987005 
L 374.438788 209.108553 
L 374.763767 205.987005 
L 375.088747 205.987005 
L 376.063686 215.351649 
L 376.713645 215.351649 
L 377.038624 212.230101 
L 377.363604 218.473197 
L 377.688583 215.351649 
L 378.013563 215.351649 
L 378.338542 221.594745 
L 378.663522 224.716293 
L 378.988501 218.473197 
L 379.313481 221.594745 
L 379.63846 227.83784 
L 379.96344 224.716293 
L 380.613399 224.716293 
L 380.938378 227.83784 
L 381.263358 227.83784 
L 381.588337 230.959388 
L 382.238296 230.959388 
L 382.563276 237.202484 
L 382.888256 234.080936 
L 383.213235 234.080936 
L 383.538215 240.324032 
L 383.863194 243.44558 
L 384.188174 240.324032 
L 384.838133 246.567128 
L 385.813071 246.567128 
L 386.46303 252.810223 
L 386.78801 249.688676 
L 387.112989 252.810223 
L 387.437969 249.688676 
L 387.762948 255.931771 
L 388.087928 255.931771 
L 388.412907 252.810223 
L 389.062867 259.053319 
L 389.387846 252.810223 
L 389.712826 252.810223 
L 390.037805 255.931771 
L 390.362785 249.688676 
L 390.687764 252.810223 
L 392.312662 252.810223 
L 392.637641 249.688676 
L 393.2876 249.688676 
L 393.61258 246.567128 
L 393.937559 246.567128 
L 394.262539 252.810223 
L 394.587518 246.567128 
L 394.912498 243.44558 
L 395.237477 246.567128 
L 395.562457 243.44558 
L 396.212416 243.44558 
L 396.537396 240.324032 
L 396.862375 240.324032 
L 397.837314 230.959388 
L 398.162293 237.202484 
L 398.487273 230.959388 
L 398.487273 230.959388 
" clip-path="url(#pedb313f5c2)" style="fill: none; stroke: #1f77b4; stroke-width: 1.5; stroke-linecap: square"/>
   </g>
   <g id="line2d_13">
    <path d="M 73.832727 69.175742 
L 74.482686 69.175742 
L 74.807666 53.568 
L 75.132645 76.979613 
L 75.457625 69.175742 
L 76.757543 69.175742 
L 77.082523 76.979613 
L 77.407502 61.371871 
L 78.057461 76.979613 
L 79.0324 76.979613 
L 79.357379 69.175742 
L 79.682359 84.783484 
L 80.007338 69.175742 
L 80.332318 84.783484 
L 80.657297 92.587355 
L 81.307256 92.587355 
L 81.632236 84.783484 
L 81.957215 92.587355 
L 82.282195 92.587355 
L 82.607174 100.391226 
L 83.907093 100.391226 
L 84.232072 108.195097 
L 84.882031 108.195097 
L 85.207011 100.391226 
L 85.53199 115.998968 
L 87.481867 115.998968 
L 87.806847 123.802839 
L 90.081704 123.802839 
L 90.406683 115.998968 
L 90.731663 131.60671 
L 91.381622 147.214452 
L 91.706601 131.60671 
L 92.031581 147.214452 
L 92.35656 147.214452 
L 92.68154 139.410581 
L 93.006519 139.410581 
L 93.331499 155.018323 
L 93.656478 155.018323 
L 93.981458 147.214452 
L 94.306437 155.018323 
L 95.281376 155.018323 
L 95.606355 147.214452 
L 95.931335 162.822194 
L 96.256314 162.822194 
L 96.581294 170.626065 
L 96.906274 170.626065 
L 97.231253 162.822194 
L 97.556233 178.429935 
L 97.881212 170.626065 
L 98.206192 170.626065 
L 98.531171 178.429935 
L 98.856151 178.429935 
L 99.18113 170.626065 
L 99.50611 178.429935 
L 100.806028 178.429935 
L 101.131007 186.233806 
L 101.455987 186.233806 
L 101.780966 194.037677 
L 102.105946 186.233806 
L 102.755905 201.841548 
L 103.080885 201.841548 
L 103.405864 209.645419 
L 104.705782 209.645419 
L 105.030762 217.44929 
L 105.355741 209.645419 
L 105.680721 217.44929 
L 106.0057 217.44929 
L 106.980639 240.860903 
L 107.305618 225.253161 
L 107.630598 225.253161 
L 107.955577 233.057032 
L 108.280557 233.057032 
L 108.605536 240.860903 
L 108.930516 233.057032 
L 109.255495 240.860903 
L 109.580475 240.860903 
L 109.905455 248.664774 
L 110.555414 233.057032 
L 110.880393 248.664774 
L 111.205373 240.860903 
L 112.180311 264.272516 
L 112.505291 256.468645 
L 112.83027 264.272516 
L 113.15525 256.468645 
L 113.480229 256.468645 
L 113.805209 264.272516 
L 114.130188 264.272516 
L 114.455168 272.076387 
L 114.780147 264.272516 
L 115.755086 264.272516 
L 116.080066 279.880258 
L 116.405045 264.272516 
L 117.379984 287.684129 
L 117.704963 279.880258 
L 118.354922 279.880258 
L 118.679902 287.684129 
L 119.004881 279.880258 
L 119.329861 287.684129 
L 119.65484 287.684129 
L 119.97982 279.880258 
L 120.629779 279.880258 
L 120.954758 287.684129 
L 121.279738 287.684129 
L 121.604717 272.076387 
L 121.929697 287.684129 
L 122.254676 295.488 
L 122.579656 287.684129 
L 122.904636 295.488 
L 123.229615 287.684129 
L 124.529533 287.684129 
L 124.854513 295.488 
L 125.179492 287.684129 
L 125.504472 287.684129 
L 125.829451 279.880258 
L 126.47941 279.880258 
L 126.80439 272.076387 
L 127.129369 279.880258 
L 127.454349 279.880258 
L 127.779328 287.684129 
L 128.104308 272.076387 
L 128.754267 272.076387 
L 129.079247 256.468645 
L 129.404226 256.468645 
L 129.729206 264.272516 
L 130.054185 264.272516 
L 130.379165 248.664774 
L 130.704144 256.468645 
L 131.029124 248.664774 
L 131.679083 248.664774 
L 132.004062 240.860903 
L 132.329042 248.664774 
L 132.979001 248.664774 
L 133.30398 240.860903 
L 134.278919 240.860903 
L 134.603898 233.057032 
L 134.928878 233.057032 
L 135.253857 240.860903 
L 135.578837 233.057032 
L 135.903817 240.860903 
L 136.228796 225.253161 
L 136.553776 225.253161 
L 136.878755 233.057032 
L 137.203735 225.253161 
L 137.853694 240.860903 
L 138.828632 217.44929 
L 139.153612 217.44929 
L 139.478591 209.645419 
L 139.803571 217.44929 
L 140.12855 217.44929 
L 140.778509 201.841548 
L 141.103489 209.645419 
L 141.428468 201.841548 
L 142.078428 201.841548 
L 142.403407 186.233806 
L 142.728387 201.841548 
L 143.053366 201.841548 
L 143.378346 209.645419 
L 143.703325 194.037677 
L 144.353284 194.037677 
L 144.678264 186.233806 
L 145.653202 186.233806 
L 145.978182 178.429935 
L 146.628141 178.429935 
L 146.95312 186.233806 
L 147.603079 170.626065 
L 147.928059 178.429935 
L 148.578018 178.429935 
L 148.902998 162.822194 
L 149.552957 162.822194 
L 149.877936 155.018323 
L 150.852875 155.018323 
L 151.177854 147.214452 
L 151.827813 147.214452 
L 152.152793 131.60671 
L 152.477772 147.214452 
L 152.802752 123.802839 
L 153.127731 139.410581 
L 153.77769 139.410581 
L 154.10267 123.802839 
L 154.427649 131.60671 
L 155.077609 131.60671 
L 155.402588 123.802839 
L 155.727568 123.802839 
L 156.052547 131.60671 
L 156.377527 115.998968 
L 156.702506 123.802839 
L 157.027486 108.195097 
L 157.352465 108.195097 
L 157.677445 115.998968 
L 158.002424 100.391226 
L 158.327404 115.998968 
L 158.652383 108.195097 
L 158.977363 115.998968 
L 159.627322 100.391226 
L 159.952301 108.195097 
L 160.277281 92.587355 
L 160.60226 92.587355 
L 160.92724 100.391226 
L 161.577199 84.783484 
L 161.902179 92.587355 
L 162.227158 84.783484 
L 162.552138 92.587355 
L 163.202097 76.979613 
L 163.527076 84.783484 
L 164.177035 84.783484 
L 164.502015 76.979613 
L 164.826994 76.979613 
L 165.151974 84.783484 
L 165.476953 84.783484 
L 165.801933 76.979613 
L 166.451892 76.979613 
L 166.776871 69.175742 
L 167.101851 76.979613 
L 167.75181 61.371871 
L 168.07679 76.979613 
L 168.401769 61.371871 
L 168.726749 76.979613 
L 169.701687 76.979613 
L 170.026667 69.175742 
L 170.351646 69.175742 
L 170.676626 76.979613 
L 171.001605 69.175742 
L 171.651564 69.175742 
L 171.976544 61.371871 
L 172.301523 69.175742 
L 172.626503 61.371871 
L 172.951482 61.371871 
L 173.276462 76.979613 
L 173.601441 61.371871 
L 173.926421 76.979613 
L 174.2514 76.979613 
L 174.57638 84.783484 
L 175.226339 69.175742 
L 175.551319 76.979613 
L 175.876298 76.979613 
L 176.201278 92.587355 
L 176.526257 84.783484 
L 176.851237 92.587355 
L 178.151155 92.587355 
L 178.476134 100.391226 
L 178.801114 84.783484 
L 179.451073 115.998968 
L 180.426011 115.998968 
L 180.750991 108.195097 
L 181.075971 108.195097 
L 181.40095 115.998968 
L 181.72593 115.998968 
L 182.050909 123.802839 
L 182.375889 115.998968 
L 182.700868 115.998968 
L 183.025848 123.802839 
L 183.350827 108.195097 
L 183.675807 115.998968 
L 184.000786 108.195097 
L 184.975725 131.60671 
L 185.300704 123.802839 
L 185.625684 131.60671 
L 185.950663 123.802839 
L 186.275643 123.802839 
L 186.600622 131.60671 
L 186.925602 131.60671 
L 187.250581 139.410581 
L 187.575561 131.60671 
L 188.22552 147.214452 
L 188.5505 139.410581 
L 188.875479 147.214452 
L 189.200459 139.410581 
L 189.525438 155.018323 
L 190.825356 155.018323 
L 191.150336 162.822194 
L 191.475315 155.018323 
L 191.800295 155.018323 
L 192.450254 170.626065 
L 192.775233 155.018323 
L 193.425192 170.626065 
L 193.750172 162.822194 
L 194.075152 170.626065 
L 194.400131 162.822194 
L 194.725111 178.429935 
L 195.05009 178.429935 
L 195.37507 186.233806 
L 195.700049 178.429935 
L 196.674988 178.429935 
L 197.324947 194.037677 
L 197.649926 194.037677 
L 197.974906 186.233806 
L 198.299885 194.037677 
L 198.624865 194.037677 
L 198.949844 201.841548 
L 199.274824 201.841548 
L 199.599803 194.037677 
L 199.924783 209.645419 
L 200.249762 217.44929 
L 201.87466 217.44929 
L 202.19964 225.253161 
L 202.524619 225.253161 
L 202.849599 233.057032 
L 203.499558 233.057032 
L 203.824537 225.253161 
L 204.149517 225.253161 
L 204.474496 233.057032 
L 204.799476 233.057032 
L 205.124455 240.860903 
L 205.449435 240.860903 
L 205.774414 256.468645 
L 206.099394 240.860903 
L 206.749353 240.860903 
L 207.074333 248.664774 
L 207.399312 248.664774 
L 207.724292 256.468645 
L 208.69923 256.468645 
L 209.02421 264.272516 
L 209.349189 256.468645 
L 209.674169 264.272516 
L 209.999148 256.468645 
L 210.324128 272.076387 
L 210.649107 272.076387 
L 210.974087 279.880258 
L 211.299066 272.076387 
L 211.624046 272.076387 
L 211.949025 279.880258 
L 212.274005 279.880258 
L 212.598984 272.076387 
L 212.923964 279.880258 
L 213.573923 279.880258 
L 213.898903 272.076387 
L 214.223882 272.076387 
L 214.548862 287.684129 
L 215.198821 272.076387 
L 215.5238 279.880258 
L 215.84878 295.488 
L 216.173759 295.488 
L 216.498739 287.684129 
L 219.098575 287.684129 
L 219.423554 279.880258 
L 220.398493 279.880258 
L 221.048452 295.488 
L 221.373432 287.684129 
L 221.698411 295.488 
L 222.023391 279.880258 
L 222.34837 279.880258 
L 222.67335 272.076387 
L 223.648288 272.076387 
L 223.973268 264.272516 
L 225.273186 264.272516 
L 225.598165 256.468645 
L 225.923145 256.468645 
L 226.248124 264.272516 
L 226.573104 264.272516 
L 226.898084 248.664774 
L 227.548043 248.664774 
L 227.873022 240.860903 
L 228.198002 240.860903 
L 228.522981 248.664774 
L 229.17294 233.057032 
L 231.122817 233.057032 
L 231.447797 240.860903 
L 231.772776 240.860903 
L 232.097756 233.057032 
L 233.072695 233.057032 
L 233.397674 225.253161 
L 233.722654 233.057032 
L 234.047633 233.057032 
L 234.697592 217.44929 
L 235.022572 217.44929 
L 235.347551 209.645419 
L 235.672531 217.44929 
L 235.99751 209.645419 
L 236.32249 209.645419 
L 236.647469 217.44929 
L 237.297428 201.841548 
L 238.272367 201.841548 
L 238.597346 194.037677 
L 238.922326 201.841548 
L 239.247305 194.037677 
L 239.897265 194.037677 
L 240.547224 178.429935 
L 240.872203 186.233806 
L 241.197183 178.429935 
L 241.522162 186.233806 
L 242.497101 186.233806 
L 242.82208 178.429935 
L 243.14706 178.429935 
L 243.472039 170.626065 
L 244.446978 170.626065 
L 244.771957 162.822194 
L 245.096937 162.822194 
L 245.421916 155.018323 
L 245.746896 155.018323 
L 246.071876 162.822194 
L 246.396855 147.214452 
L 246.721835 155.018323 
L 247.046814 147.214452 
L 247.371794 155.018323 
L 247.696773 147.214452 
L 248.021753 131.60671 
L 248.346732 139.410581 
L 249.64665 139.410581 
L 249.97163 123.802839 
L 251.271548 123.802839 
L 251.596527 108.195097 
L 251.921507 123.802839 
L 252.571466 123.802839 
L 252.896446 115.998968 
L 253.871384 115.998968 
L 254.196364 108.195097 
L 254.521343 115.998968 
L 254.846323 108.195097 
L 255.171302 108.195097 
L 255.496282 100.391226 
L 255.821261 100.391226 
L 256.146241 92.587355 
L 256.47122 100.391226 
L 256.7962 84.783484 
L 257.121179 92.587355 
L 257.446159 108.195097 
L 257.771138 100.391226 
L 258.096118 84.783484 
L 258.421097 76.979613 
L 259.071057 92.587355 
L 259.396036 84.783484 
L 260.695954 84.783484 
L 261.345913 69.175742 
L 261.670893 84.783484 
L 261.995872 69.175742 
L 262.645831 84.783484 
L 262.970811 84.783484 
L 263.62077 69.175742 
L 263.945749 76.979613 
L 264.270729 76.979613 
L 264.595708 69.175742 
L 264.920688 69.175742 
L 265.245667 76.979613 
L 265.570647 69.175742 
L 265.895627 69.175742 
L 266.220606 61.371871 
L 266.545586 61.371871 
L 266.870565 69.175742 
L 267.195545 53.568 
L 267.520524 69.175742 
L 267.845504 76.979613 
L 268.170483 76.979613 
L 268.495463 69.175742 
L 270.770319 69.175742 
L 271.095299 84.783484 
L 271.420278 76.979613 
L 271.745258 76.979613 
L 272.070238 84.783484 
L 272.395217 76.979613 
L 272.720197 92.587355 
L 273.045176 100.391226 
L 273.370156 100.391226 
L 273.695135 92.587355 
L 274.020115 92.587355 
L 274.345094 108.195097 
L 274.670074 100.391226 
L 274.995053 100.391226 
L 275.320033 108.195097 
L 275.645012 108.195097 
L 275.969992 100.391226 
L 276.294971 115.998968 
L 276.94493 100.391226 
L 277.26991 108.195097 
L 277.919869 108.195097 
L 278.244848 131.60671 
L 278.569828 131.60671 
L 279.219787 115.998968 
L 279.544767 123.802839 
L 279.869746 115.998968 
L 280.194726 123.802839 
L 281.819623 123.802839 
L 282.469582 139.410581 
L 282.794562 115.998968 
L 283.119541 139.410581 
L 283.444521 139.410581 
L 283.7695 147.214452 
L 284.09448 139.410581 
L 284.419459 147.214452 
L 284.744439 147.214452 
L 285.069419 139.410581 
L 285.719378 155.018323 
L 286.044357 155.018323 
L 286.369337 147.214452 
L 286.694316 162.822194 
L 287.019296 162.822194 
L 287.344275 155.018323 
L 287.669255 162.822194 
L 287.994234 155.018323 
L 288.319214 170.626065 
L 288.644193 170.626065 
L 288.969173 178.429935 
L 289.294152 170.626065 
L 290.59407 170.626065 
L 290.91905 178.429935 
L 291.244029 178.429935 
L 291.569009 170.626065 
L 291.893989 178.429935 
L 292.543948 178.429935 
L 292.868927 186.233806 
L 293.193907 178.429935 
L 293.518886 194.037677 
L 293.843866 201.841548 
L 295.143784 201.841548 
L 295.468763 209.645419 
L 296.118722 209.645419 
L 296.443702 217.44929 
L 297.74362 217.44929 
L 298.0686 233.057032 
L 298.393579 217.44929 
L 298.718559 233.057032 
L 299.368518 233.057032 
L 299.693497 240.860903 
L 300.018477 233.057032 
L 300.343456 233.057032 
L 300.668436 240.860903 
L 301.968354 240.860903 
L 302.293333 248.664774 
L 302.618313 240.860903 
L 302.943292 240.860903 
L 303.268272 248.664774 
L 303.593251 240.860903 
L 303.918231 256.468645 
L 304.24321 264.272516 
L 305.543129 264.272516 
L 305.868108 272.076387 
L 306.193088 264.272516 
L 306.843047 279.880258 
L 307.168026 272.076387 
L 307.817985 272.076387 
L 308.142965 264.272516 
L 308.467944 279.880258 
L 308.792924 264.272516 
L 309.117903 279.880258 
L 309.442883 287.684129 
L 310.092842 287.684129 
L 310.417821 279.880258 
L 311.39276 279.880258 
L 311.71774 287.684129 
L 312.042719 287.684129 
L 312.367699 279.880258 
L 312.692678 295.488 
L 313.017658 279.880258 
L 313.342637 279.880258 
L 313.667617 287.684129 
L 313.992596 272.076387 
L 314.317576 279.880258 
L 314.642555 295.488 
L 314.967535 287.684129 
L 317.242391 287.684129 
L 317.567371 279.880258 
L 318.867289 279.880258 
L 319.192269 272.076387 
L 319.517248 279.880258 
L 320.167207 279.880258 
L 320.817166 264.272516 
L 321.142146 264.272516 
L 321.467125 256.468645 
L 322.117084 256.468645 
L 322.442064 264.272516 
L 322.767043 248.664774 
L 323.092023 256.468645 
L 323.417002 240.860903 
L 323.741982 240.860903 
L 324.066962 248.664774 
L 324.391941 240.860903 
L 324.716921 248.664774 
L 325.36688 248.664774 
L 325.691859 240.860903 
L 326.016839 240.860903 
L 326.341818 233.057032 
L 327.316757 233.057032 
L 327.641736 240.860903 
L 328.291695 225.253161 
L 328.941654 225.253161 
L 329.266634 233.057032 
L 329.591613 217.44929 
L 329.916593 233.057032 
L 330.241572 233.057032 
L 330.566552 225.253161 
L 330.891532 225.253161 
L 331.216511 217.44929 
L 331.541491 217.44929 
L 331.86647 209.645419 
L 332.516429 209.645419 
L 332.841409 217.44929 
L 333.166388 201.841548 
L 333.816347 201.841548 
L 334.141327 194.037677 
L 334.466306 201.841548 
L 334.791286 186.233806 
L 335.116265 201.841548 
L 335.766224 201.841548 
L 336.416183 186.233806 
L 336.741163 186.233806 
L 337.066143 178.429935 
L 337.391122 178.429935 
L 337.716102 186.233806 
L 338.366061 170.626065 
L 338.69104 178.429935 
L 339.01602 178.429935 
L 339.340999 170.626065 
L 339.665979 170.626065 
L 339.990958 155.018323 
L 340.315938 170.626065 
L 341.290876 170.626065 
L 341.615856 155.018323 
L 341.940835 155.018323 
L 342.265815 147.214452 
L 342.590794 155.018323 
L 343.240753 155.018323 
L 343.890713 139.410581 
L 344.215692 139.410581 
L 344.540672 131.60671 
L 344.865651 139.410581 
L 345.190631 123.802839 
L 345.84059 139.410581 
L 346.165569 139.410581 
L 346.815528 123.802839 
L 347.140508 123.802839 
L 347.465487 115.998968 
L 347.790467 123.802839 
L 348.440426 123.802839 
L 348.765405 115.998968 
L 349.090385 115.998968 
L 349.415364 108.195097 
L 350.065324 108.195097 
L 350.390303 100.391226 
L 350.715283 108.195097 
L 351.040262 108.195097 
L 351.365242 100.391226 
L 352.015201 100.391226 
L 352.66516 84.783484 
L 352.990139 92.587355 
L 353.640098 92.587355 
L 353.965078 84.783484 
L 354.290057 92.587355 
L 354.940016 76.979613 
L 355.264996 84.783484 
L 355.589975 76.979613 
L 356.239934 92.587355 
L 357.214873 69.175742 
L 357.539853 76.979613 
L 357.864832 69.175742 
L 358.189812 76.979613 
L 358.839771 76.979613 
L 359.16475 69.175742 
L 359.48973 69.175742 
L 359.814709 76.979613 
L 360.139689 69.175742 
L 360.464668 76.979613 
L 360.789648 53.568 
L 361.114627 76.979613 
L 361.439607 84.783484 
L 362.089566 69.175742 
L 364.039443 69.175742 
L 364.364423 61.371871 
L 364.689402 76.979613 
L 365.339361 61.371871 
L 365.664341 76.979613 
L 365.98932 61.371871 
L 366.3143 76.979613 
L 366.639279 84.783484 
L 367.289238 84.783484 
L 367.614218 76.979613 
L 367.939197 84.783484 
L 368.589156 84.783484 
L 368.914136 100.391226 
L 369.239115 100.391226 
L 369.564095 92.587355 
L 369.889075 100.391226 
L 370.214054 92.587355 
L 370.864013 108.195097 
L 371.188993 92.587355 
L 371.513972 108.195097 
L 371.838952 115.998968 
L 373.788829 115.998968 
L 374.113808 123.802839 
L 374.438788 123.802839 
L 374.763767 115.998968 
L 375.088747 123.802839 
L 375.413726 123.802839 
L 375.738706 115.998968 
L 376.063686 123.802839 
L 376.388665 115.998968 
L 377.363604 139.410581 
L 377.688583 131.60671 
L 378.338542 131.60671 
L 378.663522 123.802839 
L 378.988501 139.410581 
L 379.63846 139.410581 
L 379.96344 131.60671 
L 380.288419 147.214452 
L 380.613399 139.410581 
L 380.938378 139.410581 
L 381.263358 147.214452 
L 381.588337 147.214452 
L 381.913317 155.018323 
L 382.238296 170.626065 
L 382.888256 155.018323 
L 383.538215 155.018323 
L 384.188174 170.626065 
L 384.838133 170.626065 
L 385.163112 162.822194 
L 385.488092 170.626065 
L 385.813071 170.626065 
L 386.138051 162.822194 
L 386.46303 178.429935 
L 386.78801 162.822194 
L 387.112989 178.429935 
L 387.437969 186.233806 
L 387.762948 178.429935 
L 388.087928 186.233806 
L 388.412907 186.233806 
L 388.737887 194.037677 
L 389.387846 194.037677 
L 389.712826 201.841548 
L 390.037805 201.841548 
L 390.362785 194.037677 
L 390.687764 209.645419 
L 391.012744 194.037677 
L 391.662703 209.645419 
L 391.987682 201.841548 
L 392.312662 217.44929 
L 392.637641 225.253161 
L 393.61258 225.253161 
L 393.937559 217.44929 
L 394.262539 225.253161 
L 394.587518 225.253161 
L 394.912498 233.057032 
L 396.537396 233.057032 
L 396.862375 240.860903 
L 397.187355 233.057032 
L 397.837314 248.664774 
L 398.487273 248.664774 
L 398.487273 248.664774 
" clip-path="url(#pedb313f5c2)" style="fill: none; stroke: #ff7f0e; stroke-width: 1.5; stroke-linecap: square"/>
   </g>
   <g id="line2d_14">
    <path d="M 73.832727 152.319012 
L 80.007338 152.381443 
L 81.632236 152.373639 
L 86.181949 152.389247 
L 89.106765 152.350228 
L 91.706601 152.428266 
L 94.956396 152.295601 
L 97.556233 152.459482 
L 102.105946 152.350228 
L 104.055823 152.404855 
L 108.930516 152.397051 
L 110.230434 152.381443 
L 113.805209 152.303405 
L 115.105127 152.397051 
L 117.379984 152.326816 
L 185.950663 152.43607 
L 187.575561 152.43607 
L 190.175397 152.272189 
L 194.725111 152.381443 
L 196.674988 152.295601 
L 204.474496 152.389247 
L 206.099394 152.397051 
L 210.649107 152.397051 
L 234.372613 152.303405 
L 235.99751 152.279993 
L 239.572285 152.365835 
L 241.847142 152.311208 
L 244.771957 152.412659 
L 249.97163 152.389247 
L 252.571466 152.412659 
L 258.421097 152.381443 
L 261.670893 152.358032 
L 266.545586 152.350228 
L 270.44534 152.43607 
L 278.894808 152.33462 
L 280.194726 152.303405 
L 282.794562 152.467286 
L 284.744439 152.326816 
L 286.044357 152.279993 
L 291.569009 152.311208 
L 293.843866 152.358032 
L 295.793743 152.397051 
L 297.41864 152.326816 
L 300.018477 152.373639 
L 302.293333 152.389247 
L 304.24321 152.303405 
L 333.816347 152.412659 
L 335.116265 152.389247 
L 337.066143 152.303405 
L 338.69104 152.365835 
L 340.965897 152.397051 
L 343.565733 152.303405 
L 345.51561 152.381443 
L 350.065324 152.404855 
L 352.34018 152.342424 
L 355.264996 152.381443 
L 358.189812 152.33462 
L 363.389484 152.350228 
L 365.339361 152.389247 
L 366.639279 152.43607 
L 369.564095 152.389247 
L 372.488911 152.420463 
L 377.363604 152.404855 
L 378.988501 152.43607 
L 382.888256 152.326816 
L 385.488092 152.443874 
L 388.087928 152.295601 
L 396.537396 152.397051 
L 397.837314 152.389247 
L 398.487273 152.365835 
L 398.487273 152.365835 
" clip-path="url(#pedb313f5c2)" style="fill: none; stroke: #2ca02c; stroke-width: 1.5; stroke-linecap: square"/>
   </g>
   <g id="patch_3">
    <path d="M 57.6 307.584 
L 57.6 41.472 
" style="fill: none; stroke: #000000; stroke-width: 0.8; stroke-linejoin: miter; stroke-linecap: square"/>
   </g>
   <g id="patch_4">
    <path d="M 414.72 307.584 
L 414.72 41.472 
" style="fill: none; stroke: #000000; stroke-width: 0.8; stroke-linejoin: miter; stroke-linecap: square"/>
   </g>
   <g id="patch_5">
    <path d="M 57.6 307.584 
L 414.72 307.584 
" style="fill: none; stroke: #000000; stroke-width: 0.8; stroke-linejoin: miter; stroke-linecap: square"/>
   </g>
   <g id="patch_6">
    <path d="M 57.6 41.472 
L 414.72 41.472 
" style="fill: none; stroke: #000000; stroke-width: 0.8; stroke-linejoin: miter; stroke-linecap: square"/>
   </g>
  </g>
 </g>
 <defs>
  <clipPath id="pedb313f5c2">
   <rect x="57.6" y="41.472" width="357.12" height="266.112"/>
  </clipPath>
 </defs>
</svg>
