<?xml version="1.0" encoding="utf-8" standalone="no"?>
<!DOCTYPE svg PUBLIC "-//W3C//DTD SVG 1.1//EN"
  "http://www.w3.org/Graphics/SVG/1.1/DTD/svg11.dtd">
<svg xmlns:xlink="http://www.w3.org/1999/xlink" width="460.8pt" height="345.6pt" viewBox="0 0 460.8 345.6" xmlns="http://www.w3.org/2000/svg" version="1.1">
 <metadata>
  <rdf:RDF xmlns:dc="http://purl.org/dc/elements/1.1/" xmlns:cc="http://creativecommons.org/ns#" xmlns:rdf="http://www.w3.org/1999/02/22-rdf-syntax-ns#">
   <cc:Work>
    <dc:type rdf:resource="http://purl.org/dc/dcmitype/StillImage"/>
    <dc:date>2025-12-28T06:44:03.973242</dc:date>
    <dc:format>image/svg+xml</dc:format>
    <dc:creator>
     <cc:Agent>
      <dc:title>Matplotlib v3.10.8, https://matplotlib.org/</dc:title>
     </cc:Agent>
    </dc:creator>
   </cc:Work>
  </rdf:RDF>
 </metadata>
 <defs>
  <style type="text/css">*{stroke-linejoin: round; stroke-linecap: butt}</style>
 </defs>
 <g id="figure_1">
  <g id="patch_1">
   <path d="M 0 345.6 
L 460.8 345.6 
L 460.8 0 
L 0 0 
z
" style="fill: #ffffff"/>
  </g>
  <g id="axes_1">
   <g id="patch_2">
    <path d="M 57.6 307.584 
L 414.72 307.584 
L 414.72 41.472 
L 57.6 41.472 
z
" style="fill: #ffffff"/>
   </g>
   <g id="matplotlib.axis_1">
    <g id="xtick_1">
     <g id="line2d_1">
      <defs>
       <path id="me8ba86da67" d="M 0 0 
L 0 3.5 
" style="stroke: #000000; stroke-width: 0.8"/>
      </defs>
      <g>
       <use xlink:href="#me8ba86da67" x="73.832727" y="307.584" style="stroke: #000000; stroke-width: 0.8"/>
      </g>
     </g>
     <g id="text_1">
      <!-- 0 -->
      <g transform="translate(70.651477 322.182437) scale(0.1 -0.1)">
       <defs>
        <path id="DejaVuSans-30" d="M 2034 4250 
Q 1547 4250 1301 3770 
Q 1056 3291 1056 2328 
Q 1056 1369 1301 889 
Q 1547 409 2034 409 
Q 2525 409 2770 889 
Q 3016 1369 3016 2328 
Q 3016 3291 2770 3770 
Q 2525 4250 2034 4250 
z
M 2034 4750 
Q 2819 4750 3233 4129 
Q 3647 3509 3647 2328 
Q 3647 1150 3233 529 
Q 2819 -91 2034 -91 
Q 1250 -91 836 529 
Q 422 1150 422 2328 
Q 422 3509 836 4129 
Q 1250 4750 2034 4750 
z
" transform="scale(0.015625)"/>
       </defs>
       <use xlink:href="#DejaVuSans-30"/>
      </g>
     </g>
    </g>
    <g id="xtick_2">
     <g id="line2d_2">
      <g>
       <use xlink:href="#me8ba86da67" x="138.828632" y="307.584" style="stroke: #000000; stroke-width: 0.8"/>
      </g>
     </g>
     <g id="text_2">
      <!-- 1 -->
      <g transform="translate(135.647382 322.182437) scale(0.1 -0.1)">
       <defs>
        <path id="DejaVuSans-31" d="M 794 531 
L 1825 531 
L 1825 4091 
L 703 3866 
L 703 4441 
L 1819 4666 
L 2450 4666 
L 2450 531 
L 3481 531 
L 3481 0 
L 794 0 
L 794 531 
z
" transform="scale(0.015625)"/>
       </defs>
       <use xlink:href="#DejaVuSans-31"/>
      </g>
     </g>
    </g>
    <g id="xtick_3">
     <g id="line2d_3">
      <g>
       <use xlink:href="#me8ba86da67" x="203.824537" y="307.584" style="stroke: #000000; stroke-width: 0.8"/>
      </g>
     </g>
     <g id="text_3">
      <!-- 2 -->
      <g transform="translate(200.643287 322.182437) scale(0.1 -0.1)">
       <defs>
        <path id="DejaVuSans-32" d="M 1228 531 
L 3431 531 
L 3431 0 
L 469 0 
L 469 531 
Q 828 903 1448 1529 
Q 2069 2156 2228 2338 
Q 2531 2678 2651 2914 
Q 2772 3150 2772 3378 
Q 2772 3750 2511 3984 
Q 2250 4219 1831 4219 
Q 1534 4219 1204 4116 
Q 875 4013 500 3803 
L 500 4441 
Q 881 4594 1212 4672 
Q 1544 4750 1819 4750 
Q 2544 4750 2975 4387 
Q 3406 4025 3406 3419 
Q 3406 3131 3298 2873 
Q 3191 2616 2906 2266 
Q 2828 2175 2409 1742 
Q 1991 1309 1228 531 
z
" transform="scale(0.015625)"/>
       </defs>
       <use xlink:href="#DejaVuSans-32"/>
      </g>
     </g>
    </g>
    <g id="xtick_4">
     <g id="line2d_4">
      <g>
       <use xlink:href="#me8ba86da67" x="268.820442" y="307.584" style="stroke: #000000; stroke-width: 0.8"/>
      </g>
     </g>
     <g id="text_4">
      <!-- 3 -->
      <g transform="translate(265.639192 322.182437) scale(0.1 -0.1)">
       <defs>
        <path id="DejaVuSans-33" d="M 2597 2516 
Q 3050 2419 3304 2112 
Q 3559 1806 3559 1356 
Q 3559 666 3084 287 
Q 2609 -91 1734 -91 
Q 1441 -91 1130 -33 
Q 819 25 488 141 
L 488 750 
Q 750 597 1062 519 
Q 1375 441 1716 441 
Q 2309 441 2620 675 
Q 2931 909 2931 1356 
Q 2931 1769 2642 2001 
Q 2353 2234 1838 2234 
L 1294 2234 
L 1294 2753 
L 1863 2753 
Q 2328 2753 2575 2939 
Q 2822 3125 2822 3475 
Q 2822 3834 2567 4026 
Q 2313 4219 1838 4219 
Q 1578 4219 1281 4162 
Q 984 4106 628 3988 
L 628 4550 
Q 988 4650 1302 4700 
Q 1616 4750 1894 4750 
Q 2613 4750 3031 4423 
Q 3450 4097 3450 3541 
Q 3450 3153 3228 2886 
Q 3006 2619 2597 2516 
z
" transform="scale(0.015625)"/>
       </defs>
       <use xlink:href="#DejaVuSans-33"/>
      </g>
     </g>
    </g>
    <g id="xtick_5">
     <g id="line2d_5">
      <g>
       <use xlink:href="#me8ba86da67" x="333.816347" y="307.584" style="stroke: #000000; stroke-width: 0.8"/>
      </g>
     </g>
     <g id="text_5">
      <!-- 4 -->
      <g transform="translate(330.635097 322.182437) scale(0.1 -0.1)">
       <defs>
        <path id="DejaVuSans-34" d="M 2419 4116 
L 825 1625 
L 2419 1625 
L 2419 4116 
z
M 2253 4666 
L 3047 4666 
L 3047 1625 
L 3713 1625 
L 3713 1100 
L 3047 1100 
L 3047 0 
L 2419 0 
L 2419 1100 
L 313 1100 
L 313 1709 
L 2253 4666 
z
" transform="scale(0.015625)"/>
       </defs>
       <use xlink:href="#DejaVuSans-34"/>
      </g>
     </g>
    </g>
    <g id="xtick_6">
     <g id="line2d_6">
      <g>
       <use xlink:href="#me8ba86da67" x="398.812252" y="307.584" style="stroke: #000000; stroke-width: 0.8"/>
      </g>
     </g>
     <g id="text_6">
      <!-- 5 -->
      <g transform="translate(395.631002 322.182437) scale(0.1 -0.1)">
       <defs>
        <path id="DejaVuSans-35" d="M 691 4666 
L 3169 4666 
L 3169 4134 
L 1269 4134 
L 1269 2991 
Q 1406 3038 1543 3061 
Q 1681 3084 1819 3084 
Q 2600 3084 3056 2656 
Q 3513 2228 3513 1497 
Q 3513 744 3044 326 
Q 2575 -91 1722 -91 
Q 1428 -91 1123 -41 
Q 819 9 494 109 
L 494 744 
Q 775 591 1075 516 
Q 1375 441 1709 441 
Q 2250 441 2565 725 
Q 2881 1009 2881 1497 
Q 2881 1984 2565 2268 
Q 2250 2553 1709 2553 
Q 1456 2553 1204 2497 
Q 953 2441 691 2322 
L 691 4666 
z
" transform="scale(0.015625)"/>
       </defs>
       <use xlink:href="#DejaVuSans-35"/>
      </g>
     </g>
    </g>
    <g id="text_7">
     <!-- 1e−7 -->
     <g transform="translate(387.462188 334.860562) scale(0.1 -0.1)">
      <defs>
       <path id="DejaVuSans-65" d="M 3597 1894 
L 3597 1613 
L 953 1613 
Q 991 1019 1311 708 
Q 1631 397 2203 397 
Q 2534 397 2845 478 
Q 3156 559 3463 722 
L 3463 178 
Q 3153 47 2828 -22 
Q 2503 -91 2169 -91 
Q 1331 -91 842 396 
Q 353 884 353 1716 
Q 353 2575 817 3079 
Q 1281 3584 2069 3584 
Q 2775 3584 3186 3129 
Q 3597 2675 3597 1894 
z
M 3022 2063 
Q 3016 2534 2758 2815 
Q 2500 3097 2075 3097 
Q 1594 3097 1305 2825 
Q 1016 2553 972 2059 
L 3022 2063 
z
" transform="scale(0.015625)"/>
       <path id="DejaVuSans-2212" d="M 678 2272 
L 4684 2272 
L 4684 1741 
L 678 1741 
L 678 2272 
z
" transform="scale(0.015625)"/>
       <path id="DejaVuSans-37" d="M 525 4666 
L 3525 4666 
L 3525 4397 
L 1831 0 
L 1172 0 
L 2766 4134 
L 525 4134 
L 525 4666 
z
" transform="scale(0.015625)"/>
      </defs>
      <use xlink:href="#DejaVuSans-31"/>
      <use xlink:href="#DejaVuSans-65" transform="translate(63.623047 0)"/>
      <use xlink:href="#DejaVuSans-2212" transform="translate(125.146484 0)"/>
      <use xlink:href="#DejaVuSans-37" transform="translate(208.935547 0)"/>
     </g>
    </g>
   </g>
   <g id="matplotlib.axis_2">
    <g id="ytick_1">
     <g id="line2d_7">
      <defs>
       <path id="m7c26fad1c2" d="M 0 0 
L -3.5 0 
" style="stroke: #000000; stroke-width: 0.8"/>
      </defs>
      <g>
       <use xlink:href="#m7c26fad1c2" x="57.6" y="264.147665" style="stroke: #000000; stroke-width: 0.8"/>
      </g>
     </g>
     <g id="text_8">
      <!-- −200 -->
      <g transform="translate(23.132812 267.946883) scale(0.1 -0.1)">
       <use xlink:href="#DejaVuSans-2212"/>
       <use xlink:href="#DejaVuSans-32" transform="translate(83.789062 0)"/>
       <use xlink:href="#DejaVuSans-30" transform="translate(147.412109 0)"/>
       <use xlink:href="#DejaVuSans-30" transform="translate(211.035156 0)"/>
      </g>
     </g>
    </g>
    <g id="ytick_2">
     <g id="line2d_8">
      <g>
       <use xlink:href="#m7c26fad1c2" x="57.6" y="214.202894" style="stroke: #000000; stroke-width: 0.8"/>
      </g>
     </g>
     <g id="text_9">
      <!-- −100 -->
      <g transform="translate(23.132812 218.002112) scale(0.1 -0.1)">
       <use xlink:href="#DejaVuSans-2212"/>
       <use xlink:href="#DejaVuSans-31" transform="translate(83.789062 0)"/>
       <use xlink:href="#DejaVuSans-30" transform="translate(147.412109 0)"/>
       <use xlink:href="#DejaVuSans-30" transform="translate(211.035156 0)"/>
      </g>
     </g>
    </g>
    <g id="ytick_3">
     <g id="line2d_9">
      <g>
       <use xlink:href="#m7c26fad1c2" x="57.6" y="164.258122" style="stroke: #000000; stroke-width: 0.8"/>
      </g>
     </g>
     <g id="text_10">
      <!-- 0 -->
      <g transform="translate(44.2375 168.057341) scale(0.1 -0.1)">
       <use xlink:href="#DejaVuSans-30"/>
      </g>
     </g>
    </g>
    <g id="ytick_4">
     <g id="line2d_10">
      <g>
       <use xlink:href="#m7c26fad1c2" x="57.6" y="114.313351" style="stroke: #000000; stroke-width: 0.8"/>
      </g>
     </g>
     <g id="text_11">
      <!-- 100 -->
      <g transform="translate(31.5125 118.11257) scale(0.1 -0.1)">
       <use xlink:href="#DejaVuSans-31"/>
       <use xlink:href="#DejaVuSans-30" transform="translate(63.623047 0)"/>
       <use xlink:href="#DejaVuSans-30" transform="translate(127.246094 0)"/>
      </g>
     </g>
    </g>
    <g id="ytick_5">
     <g id="line2d_11">
      <g>
       <use xlink:href="#m7c26fad1c2" x="57.6" y="64.36858" style="stroke: #000000; stroke-width: 0.8"/>
      </g>
     </g>
     <g id="text_12">
      <!-- 200 -->
      <g transform="translate(31.5125 68.167799) scale(0.1 -0.1)">
       <use xlink:href="#DejaVuSans-32"/>
       <use xlink:href="#DejaVuSans-30" transform="translate(63.623047 0)"/>
       <use xlink:href="#DejaVuSans-30" transform="translate(127.246094 0)"/>
      </g>
     </g>
    </g>
   </g>
   <g id="line2d_12">
    <path d="M 73.832727 174.559186 
L 74.482686 174.559186 
L 74.807666 158.951444 
L 75.132645 166.755315 
L 75.457625 158.951444 
L 76.107584 158.951444 
L 76.432563 166.755315 
L 76.757543 158.951444 
L 77.407502 158.951444 
L 77.732482 151.147573 
L 79.357379 151.147573 
L 80.007338 135.539831 
L 80.332318 143.343702 
L 80.657297 143.343702 
L 80.982277 135.539831 
L 81.307256 135.539831 
L 81.632236 143.343702 
L 81.957215 135.539831 
L 82.282195 135.539831 
L 82.607174 143.343702 
L 82.932154 127.73596 
L 83.582113 127.73596 
L 83.907093 119.932089 
L 84.232072 135.539831 
L 84.882031 119.932089 
L 85.207011 119.932089 
L 85.53199 127.73596 
L 86.181949 112.128218 
L 86.831908 127.73596 
L 87.156888 112.128218 
L 87.481867 112.128218 
L 87.806847 119.932089 
L 88.131826 112.128218 
L 89.106765 112.128218 
L 89.431744 119.932089 
L 89.756724 104.324347 
L 90.081704 112.128218 
L 90.406683 96.520476 
L 90.731663 104.324347 
L 91.056642 104.324347 
L 91.381622 96.520476 
L 92.031581 112.128218 
L 92.35656 96.520476 
L 92.68154 96.520476 
L 93.006519 104.324347 
L 93.331499 96.520476 
L 94.631417 96.520476 
L 94.956396 88.716605 
L 95.281376 88.716605 
L 95.606355 80.912734 
L 95.931335 88.716605 
L 96.581294 73.108863 
L 97.231253 88.716605 
L 97.556233 73.108863 
L 97.881212 80.912734 
L 98.206192 73.108863 
L 98.531171 80.912734 
L 99.18113 65.304992 
L 99.50611 73.108863 
L 100.481048 73.108863 
L 100.806028 65.304992 
L 101.131007 73.108863 
L 101.780966 57.501121 
L 102.105946 73.108863 
L 102.430925 73.108863 
L 102.755905 65.304992 
L 103.080885 73.108863 
L 103.730844 73.108863 
L 104.055823 65.304992 
L 104.380803 65.304992 
L 104.705782 73.108863 
L 105.355741 73.108863 
L 105.680721 80.912734 
L 106.0057 73.108863 
L 106.33068 88.716605 
L 106.655659 73.108863 
L 106.980639 73.108863 
L 107.630598 88.716605 
L 107.955577 80.912734 
L 108.605536 80.912734 
L 108.930516 88.716605 
L 109.255495 80.912734 
L 109.580475 88.716605 
L 109.905455 88.716605 
L 110.230434 96.520476 
L 110.555414 88.716605 
L 110.880393 88.716605 
L 111.205373 80.912734 
L 111.530352 96.520476 
L 111.855332 96.520476 
L 112.180311 88.716605 
L 112.505291 104.324347 
L 112.83027 112.128218 
L 113.15525 104.324347 
L 113.480229 104.324347 
L 113.805209 112.128218 
L 114.780147 112.128218 
L 115.430106 127.73596 
L 115.755086 119.932089 
L 116.080066 127.73596 
L 116.405045 119.932089 
L 116.730025 127.73596 
L 117.055004 119.932089 
L 118.029943 143.343702 
L 118.354922 135.539831 
L 118.679902 143.343702 
L 119.97982 143.343702 
L 120.629779 158.951444 
L 120.954758 151.147573 
L 121.279738 158.951444 
L 121.604717 151.147573 
L 121.929697 158.951444 
L 122.579656 158.951444 
L 123.229615 174.559186 
L 123.554595 166.755315 
L 124.854513 166.755315 
L 125.179492 174.559186 
L 125.504472 166.755315 
L 125.829451 182.363057 
L 126.154431 182.363057 
L 126.47941 190.166928 
L 126.80439 174.559186 
L 127.129369 190.166928 
L 127.454349 190.166928 
L 127.779328 182.363057 
L 128.104308 197.970799 
L 128.429287 197.970799 
L 129.079247 182.363057 
L 129.404226 197.970799 
L 130.704144 197.970799 
L 131.029124 205.77467 
L 131.679083 205.77467 
L 132.004062 197.970799 
L 132.329042 205.77467 
L 132.979001 205.77467 
L 133.62896 221.382412 
L 133.953939 213.578541 
L 134.278919 213.578541 
L 134.603898 221.382412 
L 134.928878 213.578541 
L 135.253857 221.382412 
L 135.578837 213.578541 
L 135.903817 221.382412 
L 136.878755 221.382412 
L 137.203735 213.578541 
L 137.528714 221.382412 
L 138.178673 221.382412 
L 138.828632 236.990154 
L 139.153612 229.186283 
L 139.478591 229.186283 
L 139.803571 244.794025 
L 140.12855 236.990154 
L 140.778509 236.990154 
L 141.103489 244.794025 
L 142.078428 244.794025 
L 142.403407 236.990154 
L 142.728387 244.794025 
L 143.703325 244.794025 
L 144.028305 260.401767 
L 144.353284 252.597896 
L 144.678264 252.597896 
L 145.003243 268.205638 
L 145.328223 268.205638 
L 145.653202 260.401767 
L 146.303161 260.401767 
L 146.628141 268.205638 
L 147.2781 268.205638 
L 147.603079 260.401767 
L 147.928059 268.205638 
L 148.253038 260.401767 
L 148.578018 260.401767 
L 149.227977 276.009509 
L 149.552957 268.205638 
L 149.877936 268.205638 
L 150.202916 276.009509 
L 150.527895 276.009509 
L 150.852875 268.205638 
L 151.177854 276.009509 
L 151.502834 268.205638 
L 151.827813 276.009509 
L 152.152793 260.401767 
L 152.477772 268.205638 
L 152.802752 260.401767 
L 153.127731 268.205638 
L 153.452711 268.205638 
L 153.77769 260.401767 
L 154.10267 260.401767 
L 154.427649 268.205638 
L 154.752629 268.205638 
L 155.077609 252.597896 
L 155.402588 260.401767 
L 155.727568 260.401767 
L 156.052547 252.597896 
L 157.677445 252.597896 
L 158.002424 244.794025 
L 158.327404 244.794025 
L 158.652383 236.990154 
L 158.977363 236.990154 
L 159.302342 244.794025 
L 159.952301 229.186283 
L 160.277281 236.990154 
L 160.60226 229.186283 
L 160.92724 229.186283 
L 161.252219 221.382412 
L 161.902179 221.382412 
L 162.227158 229.186283 
L 162.552138 213.578541 
L 162.877117 213.578541 
L 163.202097 205.77467 
L 163.527076 221.382412 
L 163.852056 205.77467 
L 164.826994 205.77467 
L 165.151974 197.970799 
L 166.126912 197.970799 
L 166.451892 182.363057 
L 166.776871 190.166928 
L 167.75181 190.166928 
L 168.401769 174.559186 
L 168.726749 182.363057 
L 169.051728 174.559186 
L 169.701687 174.559186 
L 170.026667 182.363057 
L 170.351646 166.755315 
L 170.676626 166.755315 
L 171.001605 174.559186 
L 171.651564 158.951444 
L 171.976544 166.755315 
L 172.301523 158.951444 
L 172.626503 166.755315 
L 172.951482 158.951444 
L 173.276462 158.951444 
L 173.601441 143.343702 
L 173.926421 158.951444 
L 174.2514 143.343702 
L 174.57638 151.147573 
L 174.90136 143.343702 
L 175.226339 151.147573 
L 175.551319 143.343702 
L 175.876298 151.147573 
L 176.201278 143.343702 
L 176.526257 143.343702 
L 176.851237 135.539831 
L 177.176216 143.343702 
L 177.501196 135.539831 
L 178.476134 135.539831 
L 178.801114 119.932089 
L 179.126093 135.539831 
L 179.451073 135.539831 
L 179.776052 119.932089 
L 180.101032 127.73596 
L 180.426011 127.73596 
L 180.750991 119.932089 
L 181.72593 119.932089 
L 182.050909 112.128218 
L 182.375889 119.932089 
L 182.700868 119.932089 
L 183.025848 127.73596 
L 183.350827 112.128218 
L 183.675807 119.932089 
L 184.000786 104.324347 
L 184.325766 112.128218 
L 184.650745 104.324347 
L 184.975725 104.324347 
L 185.300704 112.128218 
L 185.625684 112.128218 
L 185.950663 104.324347 
L 188.22552 104.324347 
L 188.5505 96.520476 
L 188.875479 104.324347 
L 189.200459 88.716605 
L 189.525438 96.520476 
L 190.175397 80.912734 
L 190.500377 96.520476 
L 190.825356 96.520476 
L 191.475315 80.912734 
L 191.800295 88.716605 
L 192.450254 73.108863 
L 192.775233 88.716605 
L 193.100213 80.912734 
L 193.425192 88.716605 
L 193.750172 80.912734 
L 194.075152 80.912734 
L 194.400131 73.108863 
L 194.725111 73.108863 
L 195.37507 57.501121 
L 195.700049 73.108863 
L 196.025029 73.108863 
L 196.350008 65.304992 
L 196.674988 65.304992 
L 196.999967 73.108863 
L 197.324947 65.304992 
L 197.649926 65.304992 
L 197.974906 73.108863 
L 198.299885 73.108863 
L 198.624865 80.912734 
L 198.949844 65.304992 
L 199.274824 73.108863 
L 199.599803 57.501121 
L 199.924783 80.912734 
L 200.249762 73.108863 
L 200.899722 73.108863 
L 201.224701 80.912734 
L 201.549681 65.304992 
L 201.87466 80.912734 
L 202.19964 73.108863 
L 202.524619 73.108863 
L 202.849599 65.304992 
L 203.824537 88.716605 
L 204.149517 80.912734 
L 204.474496 88.716605 
L 204.799476 80.912734 
L 205.124455 88.716605 
L 205.449435 80.912734 
L 205.774414 80.912734 
L 206.424373 96.520476 
L 207.399312 96.520476 
L 207.724292 104.324347 
L 208.049271 96.520476 
L 208.374251 104.324347 
L 208.69923 104.324347 
L 209.02421 119.932089 
L 209.349189 104.324347 
L 209.674169 112.128218 
L 209.999148 104.324347 
L 210.649107 119.932089 
L 210.974087 112.128218 
L 211.299066 119.932089 
L 211.949025 119.932089 
L 212.274005 127.73596 
L 213.248943 127.73596 
L 214.223882 151.147573 
L 214.548862 135.539831 
L 214.873841 143.343702 
L 215.198821 135.539831 
L 215.5238 143.343702 
L 215.84878 143.343702 
L 216.173759 151.147573 
L 216.498739 143.343702 
L 216.823718 151.147573 
L 217.148698 151.147573 
L 217.473677 158.951444 
L 217.798657 158.951444 
L 218.123636 151.147573 
L 218.773595 166.755315 
L 220.073514 166.755315 
L 220.398493 158.951444 
L 220.723473 174.559186 
L 221.698411 174.559186 
L 222.023391 182.363057 
L 222.34837 174.559186 
L 222.67335 182.363057 
L 223.973268 182.363057 
L 224.298247 190.166928 
L 224.623227 205.77467 
L 224.948206 190.166928 
L 225.273186 197.970799 
L 225.598165 190.166928 
L 225.923145 205.77467 
L 226.248124 197.970799 
L 226.573104 197.970799 
L 226.898084 213.578541 
L 227.548043 197.970799 
L 228.198002 213.578541 
L 228.522981 205.77467 
L 228.847961 205.77467 
L 229.17294 213.578541 
L 230.147879 213.578541 
L 230.472858 221.382412 
L 230.797838 213.578541 
L 231.122817 221.382412 
L 231.447797 213.578541 
L 231.772776 213.578541 
L 232.097756 221.382412 
L 232.747715 221.382412 
L 233.397674 236.990154 
L 233.722654 229.186283 
L 234.697592 229.186283 
L 235.022572 236.990154 
L 235.347551 229.186283 
L 235.672531 236.990154 
L 235.99751 229.186283 
L 236.32249 236.990154 
L 236.972449 236.990154 
L 237.297428 244.794025 
L 239.247305 244.794025 
L 239.897265 260.401767 
L 240.222244 260.401767 
L 240.547224 252.597896 
L 240.872203 260.401767 
L 241.197183 252.597896 
L 241.522162 260.401767 
L 242.497101 260.401767 
L 242.82208 276.009509 
L 243.472039 260.401767 
L 243.797019 276.009509 
L 244.121998 268.205638 
L 244.771957 268.205638 
L 245.096937 276.009509 
L 245.421916 276.009509 
L 245.746896 268.205638 
L 246.071876 268.205638 
L 246.396855 260.401767 
L 246.721835 268.205638 
L 247.046814 268.205638 
L 247.371794 260.401767 
L 247.696773 268.205638 
L 249.321671 268.205638 
L 249.64665 260.401767 
L 251.271548 260.401767 
L 251.596527 252.597896 
L 252.896446 252.597896 
L 253.221425 260.401767 
L 253.546405 252.597896 
L 253.871384 252.597896 
L 254.521343 236.990154 
L 255.171302 236.990154 
L 255.496282 244.794025 
L 256.146241 229.186283 
L 256.47122 229.186283 
L 256.7962 221.382412 
L 257.771138 221.382412 
L 258.096118 229.186283 
L 258.421097 221.382412 
L 258.746077 221.382412 
L 259.071057 213.578541 
L 259.396036 221.382412 
L 260.045995 205.77467 
L 260.370975 205.77467 
L 260.695954 197.970799 
L 261.020934 205.77467 
L 261.345913 197.970799 
L 261.670893 197.970799 
L 261.995872 190.166928 
L 262.320852 197.970799 
L 262.645831 182.363057 
L 262.970811 182.363057 
L 263.29579 190.166928 
L 263.62077 190.166928 
L 263.945749 182.363057 
L 264.270729 182.363057 
L 264.595708 190.166928 
L 264.920688 182.363057 
L 265.245667 166.755315 
L 265.570647 174.559186 
L 266.220606 174.559186 
L 266.545586 166.755315 
L 266.870565 166.755315 
L 267.195545 158.951444 
L 267.520524 166.755315 
L 267.845504 158.951444 
L 268.170483 158.951444 
L 268.495463 166.755315 
L 268.820442 158.951444 
L 269.795381 158.951444 
L 270.12036 151.147573 
L 270.770319 151.147573 
L 271.095299 143.343702 
L 271.420278 151.147573 
L 271.745258 143.343702 
L 272.070238 143.343702 
L 272.395217 135.539831 
L 272.720197 143.343702 
L 273.370156 127.73596 
L 274.020115 143.343702 
L 274.345094 135.539831 
L 274.670074 135.539831 
L 274.995053 127.73596 
L 275.320033 127.73596 
L 275.645012 119.932089 
L 275.969992 127.73596 
L 276.294971 127.73596 
L 276.619951 135.539831 
L 277.26991 119.932089 
L 277.919869 119.932089 
L 278.244848 127.73596 
L 278.569828 112.128218 
L 278.894808 112.128218 
L 279.219787 119.932089 
L 279.544767 112.128218 
L 279.869746 119.932089 
L 280.194726 112.128218 
L 280.519705 112.128218 
L 280.844685 96.520476 
L 281.494644 112.128218 
L 281.819623 112.128218 
L 282.144603 104.324347 
L 282.469582 104.324347 
L 282.794562 96.520476 
L 283.119541 104.324347 
L 283.444521 104.324347 
L 283.7695 96.520476 
L 284.09448 104.324347 
L 284.419459 104.324347 
L 284.744439 88.716605 
L 285.069419 96.520476 
L 285.394398 96.520476 
L 285.719378 88.716605 
L 286.369337 88.716605 
L 286.694316 96.520476 
L 287.019296 96.520476 
L 287.344275 80.912734 
L 287.669255 88.716605 
L 287.994234 73.108863 
L 288.319214 88.716605 
L 288.644193 80.912734 
L 289.619132 80.912734 
L 289.944111 73.108863 
L 290.91905 73.108863 
L 291.244029 65.304992 
L 291.569009 65.304992 
L 292.218968 80.912734 
L 292.543948 65.304992 
L 292.868927 73.108863 
L 293.193907 65.304992 
L 293.518886 73.108863 
L 293.843866 65.304992 
L 294.168845 65.304992 
L 294.493825 73.108863 
L 294.818804 73.108863 
L 295.143784 65.304992 
L 295.468763 73.108863 
L 296.118722 73.108863 
L 296.443702 65.304992 
L 296.768681 73.108863 
L 297.093661 73.108863 
L 297.41864 80.912734 
L 297.74362 80.912734 
L 298.393579 65.304992 
L 298.718559 80.912734 
L 299.043538 65.304992 
L 299.368518 80.912734 
L 299.693497 88.716605 
L 300.018477 88.716605 
L 300.343456 80.912734 
L 300.668436 88.716605 
L 301.318395 88.716605 
L 301.643374 80.912734 
L 302.618313 104.324347 
L 302.943292 96.520476 
L 303.268272 104.324347 
L 303.593251 88.716605 
L 304.24321 104.324347 
L 304.56819 104.324347 
L 304.89317 112.128218 
L 306.518067 112.128218 
L 306.843047 119.932089 
L 307.493006 119.932089 
L 307.817985 127.73596 
L 308.142965 127.73596 
L 308.467944 135.539831 
L 308.792924 119.932089 
L 309.442883 135.539831 
L 309.767862 127.73596 
L 310.417821 143.343702 
L 310.742801 143.343702 
L 311.067781 135.539831 
L 311.39276 151.147573 
L 311.71774 143.343702 
L 312.042719 143.343702 
L 312.367699 151.147573 
L 312.692678 151.147573 
L 313.017658 158.951444 
L 313.342637 151.147573 
L 313.667617 158.951444 
L 313.992596 151.147573 
L 314.317576 166.755315 
L 314.642555 158.951444 
L 314.967535 158.951444 
L 315.617494 174.559186 
L 315.942473 166.755315 
L 316.267453 174.559186 
L 316.592432 174.559186 
L 316.917412 166.755315 
L 317.242391 166.755315 
L 317.892351 182.363057 
L 318.54231 182.363057 
L 318.867289 190.166928 
L 319.192269 174.559186 
L 319.842228 190.166928 
L 320.167207 182.363057 
L 320.492187 197.970799 
L 320.817166 197.970799 
L 321.142146 190.166928 
L 321.467125 197.970799 
L 322.117084 197.970799 
L 322.442064 205.77467 
L 322.767043 197.970799 
L 323.417002 213.578541 
L 323.741982 205.77467 
L 324.391941 205.77467 
L 324.716921 213.578541 
L 325.0419 205.77467 
L 325.36688 205.77467 
L 325.691859 221.382412 
L 326.016839 221.382412 
L 326.341818 213.578541 
L 326.666798 221.382412 
L 327.966716 221.382412 
L 328.291695 229.186283 
L 328.941654 229.186283 
L 329.266634 221.382412 
L 329.591613 221.382412 
L 329.916593 229.186283 
L 330.241572 229.186283 
L 330.566552 221.382412 
L 330.891532 236.990154 
L 331.216511 236.990154 
L 331.541491 229.186283 
L 332.19145 244.794025 
L 332.516429 236.990154 
L 332.841409 236.990154 
L 333.166388 244.794025 
L 333.816347 244.794025 
L 334.141327 252.597896 
L 334.466306 244.794025 
L 334.791286 244.794025 
L 335.116265 252.597896 
L 335.441245 244.794025 
L 336.416183 268.205638 
L 337.066143 252.597896 
L 337.391122 268.205638 
L 337.716102 260.401767 
L 338.366061 260.401767 
L 338.69104 268.205638 
L 339.665979 268.205638 
L 339.990958 260.401767 
L 340.315938 268.205638 
L 340.640917 268.205638 
L 340.965897 260.401767 
L 341.290876 276.009509 
L 341.615856 276.009509 
L 341.940835 268.205638 
L 344.865651 268.205638 
L 345.190631 260.401767 
L 346.490549 260.401767 
L 346.815528 268.205638 
L 347.140508 252.597896 
L 347.465487 252.597896 
L 347.790467 260.401767 
L 348.115446 260.401767 
L 348.440426 244.794025 
L 348.765405 252.597896 
L 349.415364 252.597896 
L 349.740344 244.794025 
L 350.065324 244.794025 
L 350.390303 236.990154 
L 350.715283 244.794025 
L 351.040262 236.990154 
L 352.015201 236.990154 
L 352.34018 229.186283 
L 352.990139 229.186283 
L 353.640098 213.578541 
L 353.965078 221.382412 
L 354.290057 221.382412 
L 354.615037 213.578541 
L 355.264996 213.578541 
L 355.589975 197.970799 
L 355.914955 213.578541 
L 356.239934 205.77467 
L 357.214873 205.77467 
L 357.539853 197.970799 
L 358.189812 197.970799 
L 358.839771 182.363057 
L 359.16475 190.166928 
L 359.814709 190.166928 
L 360.139689 182.363057 
L 360.464668 190.166928 
L 360.789648 166.755315 
L 361.114627 182.363057 
L 361.764586 166.755315 
L 362.089566 166.755315 
L 362.414545 182.363057 
L 362.739525 166.755315 
L 363.714464 166.755315 
L 364.364423 151.147573 
L 364.689402 166.755315 
L 365.014382 166.755315 
L 365.98932 143.343702 
L 366.3143 151.147573 
L 366.639279 143.343702 
L 368.914136 143.343702 
L 369.239115 127.73596 
L 369.564095 135.539831 
L 370.214054 135.539831 
L 370.539034 127.73596 
L 370.864013 127.73596 
L 371.188993 119.932089 
L 371.513972 135.539831 
L 372.163931 119.932089 
L 372.488911 127.73596 
L 372.81389 127.73596 
L 373.13887 119.932089 
L 375.413726 119.932089 
L 375.738706 112.128218 
L 376.063686 112.128218 
L 376.388665 96.520476 
L 376.713645 112.128218 
L 377.038624 112.128218 
L 377.363604 104.324347 
L 378.013563 119.932089 
L 378.338542 104.324347 
L 379.313481 104.324347 
L 379.63846 96.520476 
L 379.96344 104.324347 
L 380.288419 96.520476 
L 380.613399 104.324347 
L 381.263358 88.716605 
L 381.913317 88.716605 
L 382.238296 80.912734 
L 382.563276 80.912734 
L 382.888256 96.520476 
L 383.538215 80.912734 
L 384.188174 80.912734 
L 384.513153 73.108863 
L 384.838133 73.108863 
L 385.163112 80.912734 
L 386.138051 80.912734 
L 386.78801 65.304992 
L 387.112989 80.912734 
L 387.762948 65.304992 
L 388.087928 65.304992 
L 388.412907 73.108863 
L 388.737887 65.304992 
L 389.387846 65.304992 
L 389.712826 73.108863 
L 390.037805 65.304992 
L 390.687764 65.304992 
L 391.012744 73.108863 
L 391.337723 65.304992 
L 391.662703 73.108863 
L 391.987682 65.304992 
L 392.312662 73.108863 
L 392.637641 65.304992 
L 392.962621 65.304992 
L 393.61258 80.912734 
L 393.937559 65.304992 
L 394.262539 73.108863 
L 395.237477 73.108863 
L 395.562457 88.716605 
L 395.887437 80.912734 
L 396.212416 88.716605 
L 396.537396 80.912734 
L 396.862375 88.716605 
L 397.187355 80.912734 
L 397.512334 96.520476 
L 397.837314 88.716605 
L 398.162293 88.716605 
L 398.487273 96.520476 
L 398.487273 96.520476 
" clip-path="url(#p07f2dc3f0c)" style="fill: none; stroke: #1f77b4; stroke-width: 1.5; stroke-linecap: square"/>
   </g>
   <g id="line2d_13">
    <path d="M 73.832727 287.684129 
L 74.157707 272.076387 
L 74.482686 287.684129 
L 74.807666 295.488 
L 75.132645 295.488 
L 75.457625 287.684129 
L 75.782604 287.684129 
L 76.107584 295.488 
L 76.432563 287.684129 
L 78.057461 287.684129 
L 78.382441 279.880258 
L 78.70742 279.880258 
L 79.0324 287.684129 
L 79.357379 272.076387 
L 79.682359 279.880258 
L 80.007338 279.880258 
L 80.332318 295.488 
L 80.657297 279.880258 
L 80.982277 272.076387 
L 81.307256 279.880258 
L 81.957215 264.272516 
L 82.282195 272.076387 
L 82.607174 272.076387 
L 83.257133 256.468645 
L 83.582113 264.272516 
L 83.907093 256.468645 
L 84.232072 256.468645 
L 84.557052 240.860903 
L 84.882031 264.272516 
L 85.53199 264.272516 
L 85.85697 248.664774 
L 86.506929 248.664774 
L 86.831908 240.860903 
L 87.806847 240.860903 
L 88.131826 233.057032 
L 88.781785 233.057032 
L 89.106765 217.44929 
L 89.431744 233.057032 
L 89.756724 217.44929 
L 90.081704 233.057032 
L 90.406683 240.860903 
L 90.731663 240.860903 
L 91.056642 225.253161 
L 93.656478 225.253161 
L 93.981458 209.645419 
L 94.306437 209.645419 
L 94.631417 217.44929 
L 94.956396 209.645419 
L 95.281376 209.645419 
L 95.606355 225.253161 
L 95.931335 217.44929 
L 96.256314 201.841548 
L 96.906274 201.841548 
L 97.231253 194.037677 
L 97.556233 201.841548 
L 97.881212 194.037677 
L 98.531171 194.037677 
L 99.18113 178.429935 
L 99.50611 178.429935 
L 99.831089 186.233806 
L 100.156069 162.822194 
L 100.481048 178.429935 
L 100.806028 186.233806 
L 101.455987 170.626065 
L 102.105946 170.626065 
L 102.430925 162.822194 
L 103.730844 162.822194 
L 104.055823 155.018323 
L 104.380803 155.018323 
L 104.705782 147.214452 
L 105.030762 155.018323 
L 105.355741 139.410581 
L 105.680721 155.018323 
L 106.0057 162.822194 
L 106.33068 162.822194 
L 106.655659 139.410581 
L 107.305618 139.410581 
L 107.630598 131.60671 
L 107.955577 139.410581 
L 108.280557 131.60671 
L 108.605536 131.60671 
L 108.930516 123.802839 
L 110.230434 123.802839 
L 110.555414 108.195097 
L 111.205373 123.802839 
L 111.530352 115.998968 
L 111.855332 115.998968 
L 112.180311 108.195097 
L 113.480229 108.195097 
L 114.130188 92.587355 
L 115.105127 92.587355 
L 115.430106 100.391226 
L 115.755086 84.783484 
L 116.080066 100.391226 
L 116.730025 100.391226 
L 117.055004 84.783484 
L 117.379984 92.587355 
L 117.704963 84.783484 
L 119.004881 84.783484 
L 119.329861 76.979613 
L 119.65484 84.783484 
L 119.97982 69.175742 
L 120.304799 69.175742 
L 120.629779 84.783484 
L 120.954758 61.371871 
L 121.279738 76.979613 
L 121.604717 84.783484 
L 121.929697 84.783484 
L 122.254676 69.175742 
L 122.904636 69.175742 
L 123.229615 76.979613 
L 123.554595 69.175742 
L 124.204554 69.175742 
L 124.529533 61.371871 
L 124.854513 76.979613 
L 125.179492 61.371871 
L 125.504472 61.371871 
L 125.829451 69.175742 
L 126.154431 53.568 
L 126.47941 69.175742 
L 127.129369 84.783484 
L 127.454349 69.175742 
L 127.779328 69.175742 
L 128.104308 76.979613 
L 128.429287 76.979613 
L 128.754267 69.175742 
L 129.079247 76.979613 
L 129.729206 76.979613 
L 130.054185 84.783484 
L 130.704144 84.783484 
L 131.029124 92.587355 
L 131.354103 84.783484 
L 131.679083 100.391226 
L 132.004062 108.195097 
L 132.329042 108.195097 
L 132.654021 100.391226 
L 133.62896 100.391226 
L 134.278919 115.998968 
L 134.603898 115.998968 
L 134.928878 108.195097 
L 135.578837 108.195097 
L 136.228796 123.802839 
L 136.553776 108.195097 
L 136.878755 123.802839 
L 137.203735 131.60671 
L 137.528714 131.60671 
L 137.853694 123.802839 
L 138.178673 123.802839 
L 138.503653 131.60671 
L 138.828632 123.802839 
L 139.478591 123.802839 
L 139.803571 131.60671 
L 140.12855 123.802839 
L 140.45353 131.60671 
L 141.428468 131.60671 
L 141.753448 123.802839 
L 142.078428 147.214452 
L 143.703325 147.214452 
L 144.028305 139.410581 
L 144.678264 155.018323 
L 145.003243 155.018323 
L 145.328223 147.214452 
L 145.653202 162.822194 
L 145.978182 162.822194 
L 146.303161 155.018323 
L 146.628141 162.822194 
L 146.95312 155.018323 
L 147.2781 170.626065 
L 147.603079 178.429935 
L 148.253038 178.429935 
L 148.578018 170.626065 
L 148.902998 186.233806 
L 149.227977 178.429935 
L 149.552957 186.233806 
L 151.177854 186.233806 
L 151.502834 178.429935 
L 151.827813 194.037677 
L 152.152793 186.233806 
L 153.127731 209.645419 
L 153.77769 194.037677 
L 154.10267 194.037677 
L 154.427649 209.645419 
L 154.752629 201.841548 
L 155.402588 217.44929 
L 155.727568 209.645419 
L 156.052547 217.44929 
L 156.377527 217.44929 
L 157.027486 233.057032 
L 157.352465 217.44929 
L 157.677445 233.057032 
L 158.327404 248.664774 
L 158.652383 233.057032 
L 158.977363 240.860903 
L 159.627322 240.860903 
L 159.952301 248.664774 
L 160.92724 248.664774 
L 161.252219 256.468645 
L 161.577199 256.468645 
L 161.902179 248.664774 
L 162.227158 264.272516 
L 162.552138 256.468645 
L 162.877117 264.272516 
L 163.202097 264.272516 
L 163.527076 272.076387 
L 163.852056 264.272516 
L 165.151974 264.272516 
L 165.476953 272.076387 
L 166.126912 272.076387 
L 166.451892 264.272516 
L 166.776871 272.076387 
L 167.101851 264.272516 
L 167.42683 279.880258 
L 167.75181 264.272516 
L 168.07679 279.880258 
L 168.726749 295.488 
L 169.051728 279.880258 
L 169.376708 279.880258 
L 169.701687 287.684129 
L 170.026667 287.684129 
L 170.351646 279.880258 
L 170.676626 287.684129 
L 172.626503 287.684129 
L 172.951482 272.076387 
L 173.276462 287.684129 
L 173.601441 295.488 
L 173.926421 295.488 
L 174.57638 279.880258 
L 174.90136 279.880258 
L 175.226339 287.684129 
L 175.551319 279.880258 
L 176.526257 279.880258 
L 176.851237 272.076387 
L 177.176216 272.076387 
L 177.501196 264.272516 
L 177.826175 272.076387 
L 178.151155 264.272516 
L 178.476134 272.076387 
L 178.801114 272.076387 
L 179.126093 279.880258 
L 179.451073 256.468645 
L 180.101032 256.468645 
L 180.426011 248.664774 
L 180.750991 256.468645 
L 181.075971 248.664774 
L 181.40095 256.468645 
L 181.72593 248.664774 
L 182.050909 248.664774 
L 182.700868 233.057032 
L 183.025848 240.860903 
L 183.350827 233.057032 
L 183.675807 240.860903 
L 184.000786 240.860903 
L 184.325766 248.664774 
L 184.650745 233.057032 
L 184.975725 225.253161 
L 185.300704 240.860903 
L 185.625684 233.057032 
L 186.600622 233.057032 
L 186.925602 225.253161 
L 187.250581 233.057032 
L 187.900541 217.44929 
L 188.22552 225.253161 
L 188.5505 217.44929 
L 189.200459 233.057032 
L 189.525438 233.057032 
L 189.850418 217.44929 
L 191.800295 217.44929 
L 192.125274 201.841548 
L 192.450254 201.841548 
L 192.775233 194.037677 
L 193.100213 194.037677 
L 193.425192 201.841548 
L 193.750172 178.429935 
L 194.075152 194.037677 
L 194.400131 201.841548 
L 195.37507 178.429935 
L 196.674988 178.429935 
L 196.999967 170.626065 
L 197.324947 170.626065 
L 197.649926 162.822194 
L 198.624865 162.822194 
L 198.949844 155.018323 
L 199.599803 170.626065 
L 199.924783 170.626065 
L 200.574742 155.018323 
L 201.549681 155.018323 
L 201.87466 147.214452 
L 202.19964 155.018323 
L 202.524619 147.214452 
L 202.849599 147.214452 
L 203.499558 131.60671 
L 203.824537 131.60671 
L 204.149517 115.998968 
L 204.474496 139.410581 
L 204.799476 131.60671 
L 205.124455 139.410581 
L 205.449435 131.60671 
L 205.774414 115.998968 
L 206.099394 123.802839 
L 206.424373 123.802839 
L 206.749353 115.998968 
L 207.074333 115.998968 
L 207.399312 123.802839 
L 207.724292 108.195097 
L 208.049271 108.195097 
L 208.69923 92.587355 
L 209.02421 108.195097 
L 209.349189 92.587355 
L 209.674169 108.195097 
L 209.999148 108.195097 
L 210.974087 84.783484 
L 211.299066 92.587355 
L 212.598984 92.587355 
L 212.923964 84.783484 
L 213.248943 92.587355 
L 213.898903 76.979613 
L 214.223882 84.783484 
L 214.548862 69.175742 
L 214.873841 84.783484 
L 215.5238 84.783484 
L 216.173759 69.175742 
L 216.498739 76.979613 
L 216.823718 76.979613 
L 217.148698 69.175742 
L 217.473677 69.175742 
L 217.798657 76.979613 
L 218.123636 69.175742 
L 218.448616 69.175742 
L 218.773595 61.371871 
L 219.098575 61.371871 
L 219.423554 69.175742 
L 219.748534 53.568 
L 220.073514 69.175742 
L 220.398493 76.979613 
L 220.723473 76.979613 
L 221.373432 61.371871 
L 222.023391 76.979613 
L 222.34837 69.175742 
L 222.67335 76.979613 
L 222.998329 76.979613 
L 223.323309 61.371871 
L 223.648288 76.979613 
L 223.973268 69.175742 
L 224.298247 69.175742 
L 224.623227 84.783484 
L 224.948206 69.175742 
L 225.273186 84.783484 
L 226.248124 84.783484 
L 226.573104 76.979613 
L 226.898084 84.783484 
L 227.223063 84.783484 
L 227.548043 92.587355 
L 227.873022 92.587355 
L 228.198002 100.391226 
L 228.522981 92.587355 
L 229.17294 92.587355 
L 229.822899 108.195097 
L 230.147879 100.391226 
L 230.472858 108.195097 
L 230.797838 123.802839 
L 231.122817 123.802839 
L 231.447797 115.998968 
L 231.772776 115.998968 
L 232.097756 123.802839 
L 232.422735 115.998968 
L 232.747715 123.802839 
L 234.372613 123.802839 
L 234.697592 115.998968 
L 235.022572 123.802839 
L 235.347551 115.998968 
L 235.672531 131.60671 
L 235.99751 139.410581 
L 236.32249 139.410581 
L 236.647469 131.60671 
L 236.972449 139.410581 
L 237.297428 139.410581 
L 237.622408 131.60671 
L 237.947387 139.410581 
L 238.272367 139.410581 
L 238.597346 147.214452 
L 238.922326 139.410581 
L 239.897265 139.410581 
L 240.222244 147.214452 
L 240.547224 131.60671 
L 241.197183 170.626065 
L 241.847142 155.018323 
L 242.172121 155.018323 
L 242.497101 170.626065 
L 242.82208 162.822194 
L 243.472039 178.429935 
L 243.797019 170.626065 
L 244.121998 178.429935 
L 244.446978 178.429935 
L 244.771957 170.626065 
L 245.096937 170.626065 
L 245.421916 186.233806 
L 245.746896 178.429935 
L 246.721835 201.841548 
L 247.046814 186.233806 
L 248.021753 186.233806 
L 248.671712 201.841548 
L 248.996691 201.841548 
L 249.321671 194.037677 
L 249.64665 201.841548 
L 249.97163 194.037677 
L 250.621589 209.645419 
L 250.946568 201.841548 
L 251.271548 217.44929 
L 251.921507 233.057032 
L 252.246486 217.44929 
L 252.571466 217.44929 
L 252.896446 225.253161 
L 253.221425 225.253161 
L 253.546405 233.057032 
L 254.521343 233.057032 
L 254.846323 240.860903 
L 256.146241 240.860903 
L 256.47122 256.468645 
L 256.7962 264.272516 
L 257.121179 256.468645 
L 257.446159 256.468645 
L 257.771138 248.664774 
L 258.096118 256.468645 
L 258.421097 248.664774 
L 259.071057 264.272516 
L 259.396036 264.272516 
L 259.721016 256.468645 
L 260.045995 264.272516 
L 261.020934 264.272516 
L 261.345913 256.468645 
L 261.670893 272.076387 
L 262.320852 287.684129 
L 262.970811 272.076387 
L 263.29579 279.880258 
L 263.62077 272.076387 
L 263.945749 272.076387 
L 264.270729 279.880258 
L 265.895627 279.880258 
L 266.220606 287.684129 
L 266.545586 272.076387 
L 266.870565 287.684129 
L 267.195545 295.488 
L 267.845504 295.488 
L 268.170483 279.880258 
L 268.495463 279.880258 
L 268.820442 287.684129 
L 269.145422 287.684129 
L 269.470401 295.488 
L 269.795381 287.684129 
L 270.12036 287.684129 
L 270.44534 279.880258 
L 271.095299 279.880258 
L 271.420278 287.684129 
L 271.745258 272.076387 
L 272.070238 279.880258 
L 272.395217 295.488 
L 272.720197 295.488 
L 273.045176 279.880258 
L 273.370156 272.076387 
L 274.020115 272.076387 
L 274.345094 264.272516 
L 274.670074 272.076387 
L 274.995053 272.076387 
L 275.645012 256.468645 
L 276.619951 256.468645 
L 276.94493 240.860903 
L 277.919869 264.272516 
L 278.244848 240.860903 
L 280.194726 240.860903 
L 280.519705 233.057032 
L 280.844685 240.860903 
L 281.169664 225.253161 
L 281.494644 225.253161 
L 281.819623 233.057032 
L 282.144603 225.253161 
L 282.794562 240.860903 
L 283.444521 225.253161 
L 284.09448 225.253161 
L 284.419459 217.44929 
L 284.744439 225.253161 
L 285.394398 225.253161 
L 285.719378 217.44929 
L 286.044357 217.44929 
L 286.369337 209.645419 
L 287.019296 209.645419 
L 287.344275 201.841548 
L 287.994234 217.44929 
L 288.319214 217.44929 
L 288.644193 201.841548 
L 288.969173 194.037677 
L 289.294152 194.037677 
L 289.619132 201.841548 
L 289.944111 186.233806 
L 290.269091 194.037677 
L 290.59407 194.037677 
L 290.91905 178.429935 
L 291.244029 186.233806 
L 291.569009 178.429935 
L 292.218968 178.429935 
L 292.543948 162.822194 
L 292.868927 178.429935 
L 293.518886 178.429935 
L 293.843866 162.822194 
L 294.818804 162.822194 
L 295.143784 170.626065 
L 295.468763 162.822194 
L 295.793743 162.822194 
L 296.118722 155.018323 
L 296.768681 155.018323 
L 297.093661 147.214452 
L 297.41864 155.018323 
L 297.74362 147.214452 
L 298.0686 147.214452 
L 298.393579 155.018323 
L 298.718559 155.018323 
L 299.043538 139.410581 
L 299.693497 139.410581 
L 300.018477 131.60671 
L 300.993415 131.60671 
L 301.318395 123.802839 
L 301.643374 123.802839 
L 302.293333 108.195097 
L 302.618313 115.998968 
L 302.943292 100.391226 
L 303.268272 115.998968 
L 303.918231 115.998968 
L 304.24321 100.391226 
L 304.56819 100.391226 
L 304.89317 108.195097 
L 305.218149 100.391226 
L 305.543129 108.195097 
L 306.193088 108.195097 
L 306.843047 92.587355 
L 307.493006 92.587355 
L 307.817985 84.783484 
L 308.142965 84.783484 
L 308.792924 100.391226 
L 309.117903 100.391226 
L 309.442883 84.783484 
L 309.767862 76.979613 
L 310.092842 84.783484 
L 310.417821 76.979613 
L 310.742801 84.783484 
L 311.067781 76.979613 
L 311.39276 76.979613 
L 311.71774 69.175742 
L 312.042719 84.783484 
L 312.367699 61.371871 
L 312.692678 61.371871 
L 313.017658 76.979613 
L 313.342637 53.568 
L 313.667617 76.979613 
L 313.992596 84.783484 
L 314.967535 61.371871 
L 315.292514 69.175742 
L 315.942473 69.175742 
L 316.267453 61.371871 
L 316.592432 69.175742 
L 317.242391 69.175742 
L 317.567371 61.371871 
L 318.21733 76.979613 
L 318.54231 61.371871 
L 318.867289 76.979613 
L 319.192269 84.783484 
L 319.517248 84.783484 
L 320.167207 69.175742 
L 320.492187 76.979613 
L 321.142146 76.979613 
L 321.467125 84.783484 
L 321.792105 84.783484 
L 322.117084 76.979613 
L 322.442064 84.783484 
L 323.092023 84.783484 
L 323.417002 92.587355 
L 323.741982 84.783484 
L 324.066962 100.391226 
L 324.391941 108.195097 
L 325.0419 108.195097 
L 325.36688 100.391226 
L 325.691859 108.195097 
L 326.341818 108.195097 
L 326.666798 115.998968 
L 327.641736 115.998968 
L 327.966716 123.802839 
L 328.291695 115.998968 
L 328.616675 115.998968 
L 328.941654 108.195097 
L 329.266634 131.60671 
L 329.591613 139.410581 
L 330.241572 123.802839 
L 330.566552 123.802839 
L 330.891532 131.60671 
L 331.216511 123.802839 
L 331.541491 131.60671 
L 331.86647 123.802839 
L 332.19145 131.60671 
L 332.516429 131.60671 
L 332.841409 139.410581 
L 333.166388 131.60671 
L 333.491368 131.60671 
L 333.816347 139.410581 
L 334.141327 131.60671 
L 335.116265 155.018323 
L 335.441245 147.214452 
L 336.091204 147.214452 
L 336.416183 155.018323 
L 336.741163 147.214452 
L 337.391122 162.822194 
L 338.366061 162.822194 
L 338.69104 155.018323 
L 339.01602 170.626065 
L 339.340999 162.822194 
L 339.665979 178.429935 
L 339.990958 186.233806 
L 340.315938 186.233806 
L 340.640917 178.429935 
L 341.615856 178.429935 
L 341.940835 186.233806 
L 342.915774 186.233806 
L 343.240753 194.037677 
L 343.565733 186.233806 
L 343.890713 186.233806 
L 344.215692 194.037677 
L 344.540672 194.037677 
L 345.190631 209.645419 
L 346.815528 209.645419 
L 347.140508 217.44929 
L 348.115446 217.44929 
L 348.440426 225.253161 
L 349.090385 225.253161 
L 349.415364 233.057032 
L 349.740344 225.253161 
L 350.065324 240.860903 
L 350.390303 248.664774 
L 350.715283 248.664774 
L 351.040262 240.860903 
L 351.365242 240.860903 
L 352.015201 256.468645 
L 352.34018 256.468645 
L 352.66516 248.664774 
L 352.990139 256.468645 
L 353.315119 248.664774 
L 353.640098 256.468645 
L 353.965078 256.468645 
L 354.290057 248.664774 
L 354.615037 264.272516 
L 354.940016 248.664774 
L 355.264996 256.468645 
L 355.589975 272.076387 
L 355.914955 272.076387 
L 356.239934 264.272516 
L 356.889894 264.272516 
L 357.214873 272.076387 
L 357.539853 264.272516 
L 357.864832 272.076387 
L 358.189812 272.076387 
L 358.514791 264.272516 
L 358.839771 272.076387 
L 359.48973 272.076387 
L 359.814709 287.684129 
L 360.139689 264.272516 
L 360.789648 295.488 
L 361.114627 295.488 
L 361.439607 287.684129 
L 362.089566 287.684129 
L 362.414545 279.880258 
L 362.739525 287.684129 
L 365.014382 287.684129 
L 365.339361 272.076387 
L 365.664341 287.684129 
L 365.98932 295.488 
L 366.3143 295.488 
L 366.964259 279.880258 
L 367.614218 279.880258 
L 367.939197 272.076387 
L 368.264177 279.880258 
L 368.589156 279.880258 
L 368.914136 272.076387 
L 369.239115 279.880258 
L 369.564095 272.076387 
L 370.214054 272.076387 
L 370.539034 256.468645 
L 370.864013 272.076387 
L 371.188993 272.076387 
L 371.513972 264.272516 
L 371.838952 264.272516 
L 372.163931 256.468645 
L 372.488911 256.468645 
L 372.81389 248.664774 
L 373.463849 248.664774 
L 373.788829 256.468645 
L 374.113808 240.860903 
L 374.438788 248.664774 
L 374.763767 240.860903 
L 375.088747 225.253161 
L 375.413726 240.860903 
L 375.738706 225.253161 
L 376.063686 233.057032 
L 376.388665 248.664774 
L 377.038624 233.057032 
L 378.013563 233.057032 
L 378.338542 225.253161 
L 378.988501 240.860903 
L 379.313481 225.253161 
L 379.63846 225.253161 
L 379.96344 217.44929 
L 380.288419 217.44929 
L 380.613399 225.253161 
L 380.938378 209.645419 
L 381.263358 217.44929 
L 381.588337 233.057032 
L 381.913317 225.253161 
L 382.238296 209.645419 
L 382.563276 217.44929 
L 382.888256 209.645419 
L 384.188174 209.645419 
L 384.513153 194.037677 
L 384.838133 201.841548 
L 385.488092 186.233806 
L 385.813071 194.037677 
L 386.138051 186.233806 
L 386.46303 186.233806 
L 386.78801 194.037677 
L 387.112989 194.037677 
L 387.437969 178.429935 
L 387.762948 170.626065 
L 388.087928 178.429935 
L 388.412907 170.626065 
L 388.737887 178.429935 
L 389.062867 170.626065 
L 390.037805 170.626065 
L 390.362785 162.822194 
L 391.012744 162.822194 
L 391.337723 155.018323 
L 391.987682 170.626065 
L 392.637641 155.018323 
L 393.2876 155.018323 
L 393.61258 139.410581 
L 393.937559 147.214452 
L 394.587518 147.214452 
L 394.912498 139.410581 
L 395.237477 139.410581 
L 395.562457 131.60671 
L 396.212416 131.60671 
L 396.537396 115.998968 
L 396.862375 131.60671 
L 397.187355 139.410581 
L 397.512334 131.60671 
L 397.837314 115.998968 
L 398.162293 115.998968 
L 398.487273 123.802839 
L 398.487273 123.802839 
" clip-path="url(#p07f2dc3f0c)" style="fill: none; stroke: #ff7f0e; stroke-width: 1.5; stroke-linecap: square"/>
   </g>
   <g id="line2d_14">
    <path d="M 73.832727 151.683902 
L 79.357379 151.687024 
L 94.631417 151.724482 
L 103.730844 151.730725 
L 106.0057 151.736968 
L 117.704963 151.727604 
L 121.279738 151.702631 
L 123.879574 151.69951 
L 139.153612 151.746333 
L 142.728387 151.705753 
L 154.10267 151.705753 
L 398.487273 151.765062 
L 398.487273 151.765062 
" clip-path="url(#p07f2dc3f0c)" style="fill: none; stroke: #2ca02c; stroke-width: 1.5; stroke-linecap: square"/>
   </g>
   <g id="patch_3">
    <path d="M 57.6 307.584 
L 57.6 41.472 
" style="fill: none; stroke: #000000; stroke-width: 0.8; stroke-linejoin: miter; stroke-linecap: square"/>
   </g>
   <g id="patch_4">
    <path d="M 414.72 307.584 
L 414.72 41.472 
" style="fill: none; stroke: #000000; stroke-width: 0.8; stroke-linejoin: miter; stroke-linecap: square"/>
   </g>
   <g id="patch_5">
    <path d="M 57.6 307.584 
L 414.72 307.584 
" style="fill: none; stroke: #000000; stroke-width: 0.8; stroke-linejoin: miter; stroke-linecap: square"/>
   </g>
   <g id="patch_6">
    <path d="M 57.6 41.472 
L 414.72 41.472 
" style="fill: none; stroke: #000000; stroke-width: 0.8; stroke-linejoin: miter; stroke-linecap: square"/>
   </g>
  </g>
 </g>
 <defs>
  <clipPath id="p07f2dc3f0c">
   <rect x="57.6" y="41.472" width="357.12" height="266.112"/>
  </clipPath>
 </defs>
</svg>
