<?xml version="1.0" encoding="utf-8" standalone="no"?>
<!DOCTYPE svg PUBLIC "-//W3C//DTD SVG 1.1//EN"
  "http://www.w3.org/Graphics/SVG/1.1/DTD/svg11.dtd">
<svg xmlns:xlink="http://www.w3.org/1999/xlink" width="460.8pt" height="345.6pt" viewBox="0 0 460.8 345.6" xmlns="http://www.w3.org/2000/svg" version="1.1">
 <metadata>
  <rdf:RDF xmlns:dc="http://purl.org/dc/elements/1.1/" xmlns:cc="http://creativecommons.org/ns#" xmlns:rdf="http://www.w3.org/1999/02/22-rdf-syntax-ns#">
   <cc:Work>
    <dc:type rdf:resource="http://purl.org/dc/dcmitype/StillImage"/>
    <dc:date>2025-12-26T13:28:05.063280</dc:date>
    <dc:format>image/svg+xml</dc:format>
    <dc:creator>
     <cc:Agent>
      <dc:title>Matplotlib v3.10.8, https://matplotlib.org/</dc:title>
     </cc:Agent>
    </dc:creator>
   </cc:Work>
  </rdf:RDF>
 </metadata>
 <defs>
  <style type="text/css">*{stroke-linejoin: round; stroke-linecap: butt}</style>
 </defs>
 <g id="figure_1">
  <g id="patch_1">
   <path d="M 0 345.6 
L 460.8 345.6 
L 460.8 0 
L 0 0 
z
" style="fill: #ffffff"/>
  </g>
  <g id="axes_1">
   <g id="patch_2">
    <path d="M 57.6 307.584 
L 414.72 307.584 
L 414.72 41.472 
L 57.6 41.472 
z
" style="fill: #ffffff"/>
   </g>
   <g id="matplotlib.axis_1">
    <g id="xtick_1">
     <g id="line2d_1">
      <defs>
       <path id="m4e8a3e49e5" d="M 0 0 
L 0 3.5 
" style="stroke: #000000; stroke-width: 0.8"/>
      </defs>
      <g>
       <use xlink:href="#m4e8a3e49e5" x="73.832727" y="307.584" style="stroke: #000000; stroke-width: 0.8"/>
      </g>
     </g>
     <g id="text_1">
      <!-- 0 -->
      <g transform="translate(70.651477 322.182437) scale(0.1 -0.1)">
       <defs>
        <path id="DejaVuSans-30" d="M 2034 4250 
Q 1547 4250 1301 3770 
Q 1056 3291 1056 2328 
Q 1056 1369 1301 889 
Q 1547 409 2034 409 
Q 2525 409 2770 889 
Q 3016 1369 3016 2328 
Q 3016 3291 2770 3770 
Q 2525 4250 2034 4250 
z
M 2034 4750 
Q 2819 4750 3233 4129 
Q 3647 3509 3647 2328 
Q 3647 1150 3233 529 
Q 2819 -91 2034 -91 
Q 1250 -91 836 529 
Q 422 1150 422 2328 
Q 422 3509 836 4129 
Q 1250 4750 2034 4750 
z
" transform="scale(0.015625)"/>
       </defs>
       <use xlink:href="#DejaVuSans-30"/>
      </g>
     </g>
    </g>
    <g id="xtick_2">
     <g id="line2d_2">
      <g>
       <use xlink:href="#m4e8a3e49e5" x="138.828632" y="307.584" style="stroke: #000000; stroke-width: 0.8"/>
      </g>
     </g>
     <g id="text_2">
      <!-- 1 -->
      <g transform="translate(135.647382 322.182437) scale(0.1 -0.1)">
       <defs>
        <path id="DejaVuSans-31" d="M 794 531 
L 1825 531 
L 1825 4091 
L 703 3866 
L 703 4441 
L 1819 4666 
L 2450 4666 
L 2450 531 
L 3481 531 
L 3481 0 
L 794 0 
L 794 531 
z
" transform="scale(0.015625)"/>
       </defs>
       <use xlink:href="#DejaVuSans-31"/>
      </g>
     </g>
    </g>
    <g id="xtick_3">
     <g id="line2d_3">
      <g>
       <use xlink:href="#m4e8a3e49e5" x="203.824537" y="307.584" style="stroke: #000000; stroke-width: 0.8"/>
      </g>
     </g>
     <g id="text_3">
      <!-- 2 -->
      <g transform="translate(200.643287 322.182437) scale(0.1 -0.1)">
       <defs>
        <path id="DejaVuSans-32" d="M 1228 531 
L 3431 531 
L 3431 0 
L 469 0 
L 469 531 
Q 828 903 1448 1529 
Q 2069 2156 2228 2338 
Q 2531 2678 2651 2914 
Q 2772 3150 2772 3378 
Q 2772 3750 2511 3984 
Q 2250 4219 1831 4219 
Q 1534 4219 1204 4116 
Q 875 4013 500 3803 
L 500 4441 
Q 881 4594 1212 4672 
Q 1544 4750 1819 4750 
Q 2544 4750 2975 4387 
Q 3406 4025 3406 3419 
Q 3406 3131 3298 2873 
Q 3191 2616 2906 2266 
Q 2828 2175 2409 1742 
Q 1991 1309 1228 531 
z
" transform="scale(0.015625)"/>
       </defs>
       <use xlink:href="#DejaVuSans-32"/>
      </g>
     </g>
    </g>
    <g id="xtick_4">
     <g id="line2d_4">
      <g>
       <use xlink:href="#m4e8a3e49e5" x="268.820442" y="307.584" style="stroke: #000000; stroke-width: 0.8"/>
      </g>
     </g>
     <g id="text_4">
      <!-- 3 -->
      <g transform="translate(265.639192 322.182437) scale(0.1 -0.1)">
       <defs>
        <path id="DejaVuSans-33" d="M 2597 2516 
Q 3050 2419 3304 2112 
Q 3559 1806 3559 1356 
Q 3559 666 3084 287 
Q 2609 -91 1734 -91 
Q 1441 -91 1130 -33 
Q 819 25 488 141 
L 488 750 
Q 750 597 1062 519 
Q 1375 441 1716 441 
Q 2309 441 2620 675 
Q 2931 909 2931 1356 
Q 2931 1769 2642 2001 
Q 2353 2234 1838 2234 
L 1294 2234 
L 1294 2753 
L 1863 2753 
Q 2328 2753 2575 2939 
Q 2822 3125 2822 3475 
Q 2822 3834 2567 4026 
Q 2313 4219 1838 4219 
Q 1578 4219 1281 4162 
Q 984 4106 628 3988 
L 628 4550 
Q 988 4650 1302 4700 
Q 1616 4750 1894 4750 
Q 2613 4750 3031 4423 
Q 3450 4097 3450 3541 
Q 3450 3153 3228 2886 
Q 3006 2619 2597 2516 
z
" transform="scale(0.015625)"/>
       </defs>
       <use xlink:href="#DejaVuSans-33"/>
      </g>
     </g>
    </g>
    <g id="xtick_5">
     <g id="line2d_5">
      <g>
       <use xlink:href="#m4e8a3e49e5" x="333.816347" y="307.584" style="stroke: #000000; stroke-width: 0.8"/>
      </g>
     </g>
     <g id="text_5">
      <!-- 4 -->
      <g transform="translate(330.635097 322.182437) scale(0.1 -0.1)">
       <defs>
        <path id="DejaVuSans-34" d="M 2419 4116 
L 825 1625 
L 2419 1625 
L 2419 4116 
z
M 2253 4666 
L 3047 4666 
L 3047 1625 
L 3713 1625 
L 3713 1100 
L 3047 1100 
L 3047 0 
L 2419 0 
L 2419 1100 
L 313 1100 
L 313 1709 
L 2253 4666 
z
" transform="scale(0.015625)"/>
       </defs>
       <use xlink:href="#DejaVuSans-34"/>
      </g>
     </g>
    </g>
    <g id="xtick_6">
     <g id="line2d_6">
      <g>
       <use xlink:href="#m4e8a3e49e5" x="398.812252" y="307.584" style="stroke: #000000; stroke-width: 0.8"/>
      </g>
     </g>
     <g id="text_6">
      <!-- 5 -->
      <g transform="translate(395.631002 322.182437) scale(0.1 -0.1)">
       <defs>
        <path id="DejaVuSans-35" d="M 691 4666 
L 3169 4666 
L 3169 4134 
L 1269 4134 
L 1269 2991 
Q 1406 3038 1543 3061 
Q 1681 3084 1819 3084 
Q 2600 3084 3056 2656 
Q 3513 2228 3513 1497 
Q 3513 744 3044 326 
Q 2575 -91 1722 -91 
Q 1428 -91 1123 -41 
Q 819 9 494 109 
L 494 744 
Q 775 591 1075 516 
Q 1375 441 1709 441 
Q 2250 441 2565 725 
Q 2881 1009 2881 1497 
Q 2881 1984 2565 2268 
Q 2250 2553 1709 2553 
Q 1456 2553 1204 2497 
Q 953 2441 691 2322 
L 691 4666 
z
" transform="scale(0.015625)"/>
       </defs>
       <use xlink:href="#DejaVuSans-35"/>
      </g>
     </g>
    </g>
    <g id="text_7">
     <!-- 1e−7 -->
     <g transform="translate(387.462188 334.860562) scale(0.1 -0.1)">
      <defs>
       <path id="DejaVuSans-65" d="M 3597 1894 
L 3597 1613 
L 953 1613 
Q 991 1019 1311 708 
Q 1631 397 2203 397 
Q 2534 397 2845 478 
Q 3156 559 3463 722 
L 3463 178 
Q 3153 47 2828 -22 
Q 2503 -91 2169 -91 
Q 1331 -91 842 396 
Q 353 884 353 1716 
Q 353 2575 817 3079 
Q 1281 3584 2069 3584 
Q 2775 3584 3186 3129 
Q 3597 2675 3597 1894 
z
M 3022 2063 
Q 3016 2534 2758 2815 
Q 2500 3097 2075 3097 
Q 1594 3097 1305 2825 
Q 1016 2553 972 2059 
L 3022 2063 
z
" transform="scale(0.015625)"/>
       <path id="DejaVuSans-2212" d="M 678 2272 
L 4684 2272 
L 4684 1741 
L 678 1741 
L 678 2272 
z
" transform="scale(0.015625)"/>
       <path id="DejaVuSans-37" d="M 525 4666 
L 3525 4666 
L 3525 4397 
L 1831 0 
L 1172 0 
L 2766 4134 
L 525 4134 
L 525 4666 
z
" transform="scale(0.015625)"/>
      </defs>
      <use xlink:href="#DejaVuSans-31"/>
      <use xlink:href="#DejaVuSans-65" transform="translate(63.623047 0)"/>
      <use xlink:href="#DejaVuSans-2212" transform="translate(125.146484 0)"/>
      <use xlink:href="#DejaVuSans-37" transform="translate(208.935547 0)"/>
     </g>
    </g>
   </g>
   <g id="matplotlib.axis_2">
    <g id="ytick_1">
     <g id="line2d_7">
      <defs>
       <path id="me5b3029341" d="M 0 0 
L -3.5 0 
" style="stroke: #000000; stroke-width: 0.8"/>
      </defs>
      <g>
       <use xlink:href="#me5b3029341" x="57.6" y="263.574383" style="stroke: #000000; stroke-width: 0.8"/>
      </g>
     </g>
     <g id="text_8">
      <!-- −200 -->
      <g transform="translate(23.132812 267.373601) scale(0.1 -0.1)">
       <use xlink:href="#DejaVuSans-2212"/>
       <use xlink:href="#DejaVuSans-32" transform="translate(83.789062 0)"/>
       <use xlink:href="#DejaVuSans-30" transform="translate(147.412109 0)"/>
       <use xlink:href="#DejaVuSans-30" transform="translate(211.035156 0)"/>
      </g>
     </g>
    </g>
    <g id="ytick_2">
     <g id="line2d_8">
      <g>
       <use xlink:href="#me5b3029341" x="57.6" y="214.664611" style="stroke: #000000; stroke-width: 0.8"/>
      </g>
     </g>
     <g id="text_9">
      <!-- −100 -->
      <g transform="translate(23.132812 218.46383) scale(0.1 -0.1)">
       <use xlink:href="#DejaVuSans-2212"/>
       <use xlink:href="#DejaVuSans-31" transform="translate(83.789062 0)"/>
       <use xlink:href="#DejaVuSans-30" transform="translate(147.412109 0)"/>
       <use xlink:href="#DejaVuSans-30" transform="translate(211.035156 0)"/>
      </g>
     </g>
    </g>
    <g id="ytick_3">
     <g id="line2d_9">
      <g>
       <use xlink:href="#me5b3029341" x="57.6" y="165.75484" style="stroke: #000000; stroke-width: 0.8"/>
      </g>
     </g>
     <g id="text_10">
      <!-- 0 -->
      <g transform="translate(44.2375 169.554059) scale(0.1 -0.1)">
       <use xlink:href="#DejaVuSans-30"/>
      </g>
     </g>
    </g>
    <g id="ytick_4">
     <g id="line2d_10">
      <g>
       <use xlink:href="#me5b3029341" x="57.6" y="116.845069" style="stroke: #000000; stroke-width: 0.8"/>
      </g>
     </g>
     <g id="text_11">
      <!-- 100 -->
      <g transform="translate(31.5125 120.644287) scale(0.1 -0.1)">
       <use xlink:href="#DejaVuSans-31"/>
       <use xlink:href="#DejaVuSans-30" transform="translate(63.623047 0)"/>
       <use xlink:href="#DejaVuSans-30" transform="translate(127.246094 0)"/>
      </g>
     </g>
    </g>
    <g id="ytick_5">
     <g id="line2d_11">
      <g>
       <use xlink:href="#me5b3029341" x="57.6" y="67.935297" style="stroke: #000000; stroke-width: 0.8"/>
      </g>
     </g>
     <g id="text_12">
      <!-- 200 -->
      <g transform="translate(31.5125 71.734516) scale(0.1 -0.1)">
       <use xlink:href="#DejaVuSans-32"/>
       <use xlink:href="#DejaVuSans-30" transform="translate(63.623047 0)"/>
       <use xlink:href="#DejaVuSans-30" transform="translate(127.246094 0)"/>
      </g>
     </g>
    </g>
   </g>
   <g id="line2d_12">
    <path d="M 73.832727 152.915979 
L 74.482686 152.915979 
L 74.807666 160.558131 
L 75.782604 160.558131 
L 76.107584 168.200284 
L 77.082523 168.200284 
L 77.407502 175.842436 
L 77.732482 168.200284 
L 78.057461 183.484588 
L 78.382441 175.842436 
L 78.70742 175.842436 
L 79.0324 183.484588 
L 79.357379 183.484588 
L 79.682359 175.842436 
L 80.007338 191.12674 
L 80.657297 191.12674 
L 80.982277 183.484588 
L 81.957215 206.411045 
L 82.282195 198.768892 
L 82.932154 198.768892 
L 83.257133 206.411045 
L 83.907093 206.411045 
L 84.232072 214.053197 
L 84.557052 214.053197 
L 84.882031 206.411045 
L 85.53199 221.695349 
L 85.85697 214.053197 
L 86.831908 214.053197 
L 87.156888 221.695349 
L 87.806847 221.695349 
L 88.131826 214.053197 
L 88.456806 229.337501 
L 88.781785 229.337501 
L 89.106765 221.695349 
L 89.431744 236.979654 
L 89.756724 236.979654 
L 90.081704 229.337501 
L 90.406683 236.979654 
L 90.731663 236.979654 
L 91.056642 229.337501 
L 91.381622 236.979654 
L 91.706601 236.979654 
L 92.031581 244.621806 
L 92.68154 244.621806 
L 93.006519 252.263958 
L 93.331499 244.621806 
L 93.656478 244.621806 
L 93.981458 252.263958 
L 94.631417 252.263958 
L 94.956396 259.90611 
L 95.281376 252.263958 
L 95.931335 267.548263 
L 96.256314 267.548263 
L 96.581294 259.90611 
L 96.906274 267.548263 
L 97.231253 267.548263 
L 97.556233 275.190415 
L 97.881212 267.548263 
L 98.206192 275.190415 
L 98.531171 267.548263 
L 98.856151 275.190415 
L 99.18113 275.190415 
L 99.50611 267.548263 
L 100.156069 282.832567 
L 100.481048 275.190415 
L 100.806028 275.190415 
L 101.131007 282.832567 
L 101.455987 282.832567 
L 101.780966 267.548263 
L 102.105946 267.548263 
L 102.755905 282.832567 
L 103.405864 267.548263 
L 104.055823 282.832567 
L 104.380803 275.190415 
L 104.705782 275.190415 
L 105.030762 267.548263 
L 105.355741 275.190415 
L 105.680721 267.548263 
L 106.0057 267.548263 
L 106.33068 275.190415 
L 106.980639 259.90611 
L 107.305618 267.548263 
L 107.955577 267.548263 
L 108.280557 259.90611 
L 108.605536 267.548263 
L 108.930516 252.263958 
L 109.255495 259.90611 
L 109.580475 259.90611 
L 110.230434 244.621806 
L 110.555414 259.90611 
L 110.880393 244.621806 
L 111.205373 252.263958 
L 111.530352 252.263958 
L 111.855332 236.979654 
L 112.505291 236.979654 
L 112.83027 244.621806 
L 113.15525 244.621806 
L 114.130188 221.695349 
L 114.455168 229.337501 
L 114.780147 221.695349 
L 115.105127 221.695349 
L 115.430106 229.337501 
L 116.080066 214.053197 
L 117.055004 214.053197 
L 117.379984 206.411045 
L 118.354922 206.411045 
L 118.679902 198.768892 
L 119.004881 206.411045 
L 119.329861 183.484588 
L 119.65484 198.768892 
L 119.97982 198.768892 
L 120.304799 191.12674 
L 120.954758 191.12674 
L 121.279738 183.484588 
L 121.604717 183.484588 
L 121.929697 191.12674 
L 122.254676 175.842436 
L 122.579656 168.200284 
L 122.904636 175.842436 
L 123.229615 168.200284 
L 123.554595 175.842436 
L 123.879574 168.200284 
L 124.204554 168.200284 
L 124.529533 160.558131 
L 124.854513 168.200284 
L 125.504472 152.915979 
L 125.829451 160.558131 
L 126.154431 160.558131 
L 126.47941 152.915979 
L 126.80439 152.915979 
L 127.129369 160.558131 
L 127.454349 145.273827 
L 128.429287 145.273827 
L 128.754267 152.915979 
L 129.079247 145.273827 
L 129.404226 145.273827 
L 129.729206 137.631675 
L 130.379165 137.631675 
L 130.704144 129.989522 
L 131.029124 137.631675 
L 131.354103 137.631675 
L 131.679083 122.34737 
L 132.004062 137.631675 
L 132.329042 129.989522 
L 132.654021 129.989522 
L 133.30398 114.705218 
L 133.953939 129.989522 
L 134.928878 107.063066 
L 135.253857 122.34737 
L 135.903817 107.063066 
L 136.228796 114.705218 
L 137.203735 114.705218 
L 137.528714 107.063066 
L 137.853694 107.063066 
L 138.178673 99.420913 
L 138.503653 99.420913 
L 138.828632 107.063066 
L 139.153612 107.063066 
L 139.803571 91.778761 
L 140.12855 91.778761 
L 140.45353 107.063066 
L 140.778509 91.778761 
L 141.103489 91.778761 
L 141.428468 99.420913 
L 141.753448 91.778761 
L 142.078428 91.778761 
L 142.403407 84.136609 
L 142.728387 91.778761 
L 143.378346 76.494457 
L 144.028305 76.494457 
L 144.353284 84.136609 
L 144.678264 84.136609 
L 145.003243 76.494457 
L 145.328223 61.210152 
L 145.653202 76.494457 
L 145.978182 76.494457 
L 146.303161 61.210152 
L 146.628141 76.494457 
L 146.95312 68.852304 
L 148.253038 68.852304 
L 148.578018 61.210152 
L 148.902998 61.210152 
L 149.227977 68.852304 
L 149.552957 68.852304 
L 149.877936 61.210152 
L 150.202916 68.852304 
L 150.527895 53.568 
L 150.852875 68.852304 
L 151.177854 61.210152 
L 151.502834 61.210152 
L 151.827813 68.852304 
L 152.152793 68.852304 
L 152.477772 61.210152 
L 152.802752 68.852304 
L 153.452711 68.852304 
L 153.77769 61.210152 
L 154.10267 68.852304 
L 154.427649 68.852304 
L 154.752629 76.494457 
L 155.402588 76.494457 
L 155.727568 61.210152 
L 156.052547 84.136609 
L 156.377527 76.494457 
L 157.027486 76.494457 
L 157.352465 84.136609 
L 158.977363 84.136609 
L 159.627322 99.420913 
L 159.952301 99.420913 
L 160.277281 91.778761 
L 160.60226 99.420913 
L 160.92724 91.778761 
L 161.252219 107.063066 
L 161.577199 99.420913 
L 161.902179 99.420913 
L 162.552138 114.705218 
L 163.202097 114.705218 
L 163.527076 122.34737 
L 163.852056 122.34737 
L 164.177035 114.705218 
L 164.502015 122.34737 
L 164.826994 122.34737 
L 165.151974 129.989522 
L 165.476953 122.34737 
L 165.801933 137.631675 
L 166.126912 122.34737 
L 166.451892 145.273827 
L 166.776871 129.989522 
L 167.101851 129.989522 
L 167.42683 145.273827 
L 167.75181 145.273827 
L 168.07679 137.631675 
L 168.726749 152.915979 
L 169.051728 152.915979 
L 169.376708 145.273827 
L 170.351646 168.200284 
L 170.676626 160.558131 
L 171.001605 160.558131 
L 171.326585 152.915979 
L 171.651564 168.200284 
L 171.976544 168.200284 
L 172.301523 160.558131 
L 172.951482 175.842436 
L 173.601441 175.842436 
L 173.926421 183.484588 
L 174.2514 175.842436 
L 174.57638 175.842436 
L 175.226339 191.12674 
L 175.551319 183.484588 
L 175.876298 191.12674 
L 176.526257 175.842436 
L 176.851237 191.12674 
L 177.176216 191.12674 
L 177.501196 198.768892 
L 177.826175 198.768892 
L 178.151155 206.411045 
L 178.476134 198.768892 
L 179.126093 214.053197 
L 179.451073 198.768892 
L 179.776052 198.768892 
L 180.426011 214.053197 
L 181.72593 214.053197 
L 182.050909 221.695349 
L 182.375889 214.053197 
L 182.700868 214.053197 
L 183.350827 229.337501 
L 183.675807 221.695349 
L 184.325766 236.979654 
L 184.650745 236.979654 
L 184.975725 229.337501 
L 185.300704 236.979654 
L 185.625684 229.337501 
L 185.950663 236.979654 
L 186.275643 229.337501 
L 186.600622 236.979654 
L 186.925602 229.337501 
L 187.250581 244.621806 
L 187.575561 236.979654 
L 187.900541 236.979654 
L 188.5505 252.263958 
L 188.875479 236.979654 
L 189.200459 244.621806 
L 189.525438 259.90611 
L 190.175397 244.621806 
L 190.825356 259.90611 
L 192.125274 259.90611 
L 192.450254 267.548263 
L 192.775233 267.548263 
L 193.100213 259.90611 
L 193.425192 259.90611 
L 193.750172 275.190415 
L 194.075152 267.548263 
L 194.400131 275.190415 
L 195.05009 275.190415 
L 195.37507 267.548263 
L 195.700049 275.190415 
L 196.674988 275.190415 
L 196.999967 282.832567 
L 197.324947 267.548263 
L 197.649926 282.832567 
L 197.974906 275.190415 
L 198.624865 275.190415 
L 198.949844 282.832567 
L 199.274824 267.548263 
L 199.599803 275.190415 
L 201.549681 275.190415 
L 201.87466 259.90611 
L 202.19964 267.548263 
L 202.524619 259.90611 
L 202.849599 267.548263 
L 203.174578 259.90611 
L 203.499558 259.90611 
L 203.824537 267.548263 
L 204.149517 267.548263 
L 204.799476 252.263958 
L 205.124455 259.90611 
L 205.449435 259.90611 
L 205.774414 252.263958 
L 206.099394 252.263958 
L 206.424373 259.90611 
L 207.074333 244.621806 
L 207.399312 252.263958 
L 207.724292 236.979654 
L 208.049271 244.621806 
L 208.374251 244.621806 
L 208.69923 236.979654 
L 209.349189 236.979654 
L 209.674169 221.695349 
L 210.324128 236.979654 
L 210.649107 221.695349 
L 211.624046 221.695349 
L 212.274005 206.411045 
L 212.598984 214.053197 
L 212.923964 198.768892 
L 213.248943 214.053197 
L 213.573923 206.411045 
L 213.898903 206.411045 
L 214.223882 198.768892 
L 214.548862 206.411045 
L 214.873841 191.12674 
L 215.198821 206.411045 
L 215.5238 198.768892 
L 215.84878 198.768892 
L 216.173759 191.12674 
L 216.823718 191.12674 
L 217.148698 183.484588 
L 217.798657 183.484588 
L 218.123636 175.842436 
L 218.448616 183.484588 
L 219.098575 168.200284 
L 219.423554 168.200284 
L 219.748534 175.842436 
L 220.073514 168.200284 
L 220.723473 168.200284 
L 221.373432 152.915979 
L 222.023391 152.915979 
L 222.34837 160.558131 
L 222.67335 152.915979 
L 222.998329 152.915979 
L 223.323309 145.273827 
L 223.648288 152.915979 
L 223.973268 152.915979 
L 224.298247 145.273827 
L 224.948206 145.273827 
L 225.273186 137.631675 
L 225.598165 137.631675 
L 225.923145 145.273827 
L 226.573104 129.989522 
L 226.898084 129.989522 
L 227.223063 137.631675 
L 227.548043 137.631675 
L 228.522981 114.705218 
L 228.847961 129.989522 
L 229.17294 129.989522 
L 229.49792 114.705218 
L 229.822899 114.705218 
L 230.147879 129.989522 
L 230.472858 114.705218 
L 231.122817 129.989522 
L 231.447797 114.705218 
L 231.772776 107.063066 
L 232.097756 114.705218 
L 232.422735 107.063066 
L 232.747715 114.705218 
L 233.072695 107.063066 
L 233.397674 107.063066 
L 233.722654 99.420913 
L 234.047633 107.063066 
L 234.697592 107.063066 
L 235.022572 99.420913 
L 235.347551 107.063066 
L 235.672531 99.420913 
L 236.32249 99.420913 
L 236.972449 84.136609 
L 237.297428 91.778761 
L 237.947387 91.778761 
L 238.272367 84.136609 
L 238.597346 91.778761 
L 238.922326 76.494457 
L 239.247305 84.136609 
L 239.572285 84.136609 
L 239.897265 76.494457 
L 240.222244 76.494457 
L 240.547224 84.136609 
L 240.872203 68.852304 
L 241.197183 76.494457 
L 241.522162 68.852304 
L 241.847142 68.852304 
L 242.172121 61.210152 
L 242.497101 68.852304 
L 243.14706 68.852304 
L 243.472039 61.210152 
L 243.797019 68.852304 
L 244.121998 61.210152 
L 244.446978 68.852304 
L 245.096937 53.568 
L 245.421916 61.210152 
L 245.746896 76.494457 
L 246.071876 61.210152 
L 246.396855 68.852304 
L 246.721835 61.210152 
L 248.021753 61.210152 
L 248.346732 68.852304 
L 248.671712 61.210152 
L 248.996691 68.852304 
L 249.321671 61.210152 
L 249.64665 68.852304 
L 250.621589 68.852304 
L 250.946568 76.494457 
L 251.271548 68.852304 
L 251.596527 76.494457 
L 252.246486 76.494457 
L 252.571466 68.852304 
L 253.546405 91.778761 
L 253.871384 84.136609 
L 254.196364 91.778761 
L 254.521343 76.494457 
L 254.846323 91.778761 
L 255.171302 91.778761 
L 255.496282 84.136609 
L 256.146241 99.420913 
L 256.47122 91.778761 
L 257.121179 107.063066 
L 257.446159 107.063066 
L 257.771138 99.420913 
L 258.096118 107.063066 
L 258.421097 107.063066 
L 258.746077 114.705218 
L 259.071057 114.705218 
L 259.396036 122.34737 
L 259.721016 99.420913 
L 260.045995 122.34737 
L 260.370975 122.34737 
L 260.695954 114.705218 
L 261.345913 129.989522 
L 261.670893 129.989522 
L 261.995872 137.631675 
L 262.970811 137.631675 
L 263.29579 129.989522 
L 263.62077 145.273827 
L 263.945749 145.273827 
L 264.270729 137.631675 
L 264.595708 145.273827 
L 264.920688 137.631675 
L 265.245667 152.915979 
L 265.570647 145.273827 
L 266.220606 160.558131 
L 266.545586 160.558131 
L 266.870565 152.915979 
L 267.195545 168.200284 
L 267.520524 175.842436 
L 268.170483 160.558131 
L 268.495463 168.200284 
L 268.820442 168.200284 
L 269.145422 175.842436 
L 269.470401 175.842436 
L 269.795381 183.484588 
L 270.12036 168.200284 
L 270.44534 183.484588 
L 270.770319 175.842436 
L 271.095299 175.842436 
L 271.745258 191.12674 
L 272.070238 183.484588 
L 272.395217 198.768892 
L 272.720197 198.768892 
L 273.045176 191.12674 
L 273.370156 191.12674 
L 273.695135 198.768892 
L 274.020115 198.768892 
L 274.345094 206.411045 
L 274.995053 206.411045 
L 275.320033 198.768892 
L 275.645012 214.053197 
L 275.969992 214.053197 
L 276.294971 206.411045 
L 276.94493 221.695349 
L 277.26991 214.053197 
L 277.594889 214.053197 
L 277.919869 221.695349 
L 278.244848 221.695349 
L 278.569828 214.053197 
L 278.894808 214.053197 
L 279.544767 229.337501 
L 279.869746 221.695349 
L 280.194726 221.695349 
L 280.519705 214.053197 
L 280.844685 229.337501 
L 281.169664 236.979654 
L 282.794562 236.979654 
L 283.119541 244.621806 
L 283.444521 236.979654 
L 284.09448 236.979654 
L 284.419459 252.263958 
L 285.394398 252.263958 
L 285.719378 244.621806 
L 286.044357 252.263958 
L 286.369337 252.263958 
L 286.694316 259.90611 
L 287.019296 252.263958 
L 287.344275 259.90611 
L 287.994234 259.90611 
L 288.319214 275.190415 
L 288.644193 259.90611 
L 288.969173 267.548263 
L 289.619132 267.548263 
L 289.944111 275.190415 
L 290.269091 267.548263 
L 290.59407 275.190415 
L 290.91905 267.548263 
L 291.569009 282.832567 
L 291.893989 275.190415 
L 292.218968 282.832567 
L 292.543948 275.190415 
L 293.193907 275.190415 
L 293.518886 282.832567 
L 294.168845 267.548263 
L 294.493825 267.548263 
L 295.143784 282.832567 
L 295.793743 267.548263 
L 296.118722 275.190415 
L 296.768681 275.190415 
L 297.093661 267.548263 
L 297.41864 275.190415 
L 298.0686 275.190415 
L 298.393579 267.548263 
L 300.343456 267.548263 
L 300.668436 259.90611 
L 300.993415 259.90611 
L 301.318395 252.263958 
L 301.643374 252.263958 
L 301.968354 259.90611 
L 302.618313 244.621806 
L 302.943292 259.90611 
L 303.268272 244.621806 
L 303.593251 236.979654 
L 303.918231 244.621806 
L 304.56819 229.337501 
L 304.89317 236.979654 
L 305.218149 236.979654 
L 305.543129 229.337501 
L 305.868108 229.337501 
L 306.518067 214.053197 
L 306.843047 229.337501 
L 307.493006 214.053197 
L 307.817985 221.695349 
L 308.142965 221.695349 
L 308.467944 214.053197 
L 309.117903 214.053197 
L 309.442883 198.768892 
L 309.767862 198.768892 
L 310.092842 206.411045 
L 310.417821 198.768892 
L 310.742801 206.411045 
L 311.71774 183.484588 
L 312.042719 191.12674 
L 312.367699 183.484588 
L 313.017658 183.484588 
L 313.342637 191.12674 
L 313.667617 175.842436 
L 313.992596 183.484588 
L 314.317576 183.484588 
L 314.642555 168.200284 
L 314.967535 175.842436 
L 315.292514 160.558131 
L 315.617494 160.558131 
L 315.942473 168.200284 
L 316.267453 160.558131 
L 316.592432 160.558131 
L 316.917412 152.915979 
L 317.242391 160.558131 
L 317.567371 160.558131 
L 317.892351 152.915979 
L 318.21733 152.915979 
L 318.54231 160.558131 
L 318.867289 152.915979 
L 319.517248 152.915979 
L 319.842228 145.273827 
L 320.167207 152.915979 
L 320.492187 145.273827 
L 321.142146 145.273827 
L 321.467125 137.631675 
L 321.792105 137.631675 
L 322.117084 129.989522 
L 322.442064 137.631675 
L 322.767043 137.631675 
L 323.092023 129.989522 
L 323.417002 129.989522 
L 323.741982 137.631675 
L 324.066962 129.989522 
L 324.391941 137.631675 
L 325.0419 122.34737 
L 326.016839 122.34737 
L 326.341818 129.989522 
L 326.991777 114.705218 
L 327.316757 99.420913 
L 327.641736 114.705218 
L 327.966716 114.705218 
L 328.291695 107.063066 
L 328.616675 114.705218 
L 328.941654 114.705218 
L 329.266634 107.063066 
L 330.241572 107.063066 
L 330.566552 91.778761 
L 330.891532 99.420913 
L 332.19145 99.420913 
L 332.516429 91.778761 
L 332.841409 99.420913 
L 333.166388 91.778761 
L 333.491368 99.420913 
L 333.816347 99.420913 
L 334.466306 84.136609 
L 334.791286 91.778761 
L 335.116265 91.778761 
L 335.441245 76.494457 
L 336.741163 76.494457 
L 337.066143 68.852304 
L 337.391122 76.494457 
L 337.716102 68.852304 
L 338.041081 68.852304 
L 338.69104 53.568 
L 339.01602 61.210152 
L 341.940835 61.210152 
L 342.265815 68.852304 
L 342.590794 68.852304 
L 342.915774 53.568 
L 343.240753 68.852304 
L 343.565733 61.210152 
L 344.215692 61.210152 
L 344.540672 76.494457 
L 344.865651 68.852304 
L 345.51561 68.852304 
L 345.84059 61.210152 
L 346.165569 61.210152 
L 346.490549 68.852304 
L 347.140508 68.852304 
L 347.465487 76.494457 
L 347.790467 68.852304 
L 348.115446 68.852304 
L 348.440426 84.136609 
L 348.765405 84.136609 
L 349.090385 76.494457 
L 349.740344 91.778761 
L 350.065324 84.136609 
L 350.390303 91.778761 
L 351.040262 91.778761 
L 351.365242 84.136609 
L 352.34018 107.063066 
L 352.990139 107.063066 
L 353.315119 91.778761 
L 353.640098 107.063066 
L 354.615037 107.063066 
L 354.940016 114.705218 
L 355.589975 114.705218 
L 355.914955 122.34737 
L 357.214873 122.34737 
L 357.539853 129.989522 
L 358.189812 129.989522 
L 358.514791 122.34737 
L 358.839771 145.273827 
L 359.16475 145.273827 
L 359.48973 137.631675 
L 359.814709 137.631675 
L 360.139689 145.273827 
L 360.464668 145.273827 
L 360.789648 152.915979 
L 362.414545 152.915979 
L 362.739525 168.200284 
L 363.064505 160.558131 
L 363.389484 168.200284 
L 363.714464 168.200284 
L 364.039443 175.842436 
L 364.364423 168.200284 
L 364.689402 168.200284 
L 365.339361 183.484588 
L 365.664341 175.842436 
L 365.98932 183.484588 
L 366.639279 183.484588 
L 366.964259 175.842436 
L 367.614218 191.12674 
L 367.939197 191.12674 
L 368.264177 183.484588 
L 368.589156 191.12674 
L 368.914136 191.12674 
L 369.239115 198.768892 
L 370.214054 198.768892 
L 370.539034 206.411045 
L 370.864013 198.768892 
L 371.513972 214.053197 
L 371.838952 206.411045 
L 372.163931 206.411045 
L 372.488911 214.053197 
L 373.463849 214.053197 
L 373.788829 221.695349 
L 374.113808 206.411045 
L 374.438788 221.695349 
L 374.763767 214.053197 
L 375.413726 229.337501 
L 376.388665 229.337501 
L 376.713645 236.979654 
L 377.038624 229.337501 
L 377.688583 229.337501 
L 378.013563 236.979654 
L 378.663522 236.979654 
L 378.988501 244.621806 
L 379.313481 229.337501 
L 379.63846 244.621806 
L 380.613399 244.621806 
L 380.938378 252.263958 
L 381.588337 252.263958 
L 381.913317 259.90611 
L 382.563276 244.621806 
L 383.538215 267.548263 
L 383.863194 259.90611 
L 384.188174 267.548263 
L 384.513153 259.90611 
L 384.838133 267.548263 
L 385.163112 267.548263 
L 385.488092 275.190415 
L 385.813071 267.548263 
L 386.138051 275.190415 
L 386.78801 275.190415 
L 387.112989 282.832567 
L 387.437969 275.190415 
L 387.762948 275.190415 
L 388.087928 267.548263 
L 388.412907 275.190415 
L 389.387846 275.190415 
L 389.712826 267.548263 
L 390.362785 282.832567 
L 390.687764 275.190415 
L 391.012744 282.832567 
L 391.337723 282.832567 
L 391.662703 275.190415 
L 391.987682 282.832567 
L 392.312662 275.190415 
L 392.637641 275.190415 
L 392.962621 267.548263 
L 393.937559 267.548263 
L 394.262539 275.190415 
L 394.912498 259.90611 
L 395.237477 267.548263 
L 395.562457 259.90611 
L 396.212416 259.90611 
L 396.537396 267.548263 
L 397.187355 252.263958 
L 397.512334 259.90611 
L 397.837314 259.90611 
L 398.487273 244.621806 
L 398.487273 244.621806 
" clip-path="url(#p15dd8a48e0)" style="fill: none; stroke: #1f77b4; stroke-width: 1.5; stroke-linecap: square"/>
   </g>
   <g id="line2d_13">
    <path d="M 73.832727 73.865585 
L 74.157707 73.865585 
L 74.482686 66.223433 
L 74.807666 66.223433 
L 75.132645 73.865585 
L 75.457625 66.223433 
L 76.432563 66.223433 
L 76.757543 81.507737 
L 77.082523 58.581281 
L 77.407502 73.865585 
L 77.732482 81.507737 
L 78.057461 81.507737 
L 78.382441 73.865585 
L 78.70742 73.865585 
L 79.0324 81.507737 
L 79.682359 81.507737 
L 80.007338 89.14989 
L 80.657297 89.14989 
L 80.982277 96.792042 
L 81.307256 96.792042 
L 81.632236 89.14989 
L 82.282195 104.434194 
L 82.607174 104.434194 
L 82.932154 112.076346 
L 84.557052 112.076346 
L 84.882031 119.718499 
L 85.207011 119.718499 
L 85.53199 127.360651 
L 85.85697 119.718499 
L 86.506929 119.718499 
L 86.831908 112.076346 
L 87.156888 127.360651 
L 87.481867 119.718499 
L 87.806847 119.718499 
L 88.131826 127.360651 
L 88.456806 142.644955 
L 88.781785 127.360651 
L 89.756724 127.360651 
L 90.081704 135.002803 
L 90.406683 135.002803 
L 90.731663 142.644955 
L 91.056642 135.002803 
L 91.381622 142.644955 
L 91.706601 135.002803 
L 92.031581 135.002803 
L 92.35656 142.644955 
L 92.68154 142.644955 
L 93.006519 150.287108 
L 93.331499 150.287108 
L 93.656478 157.92926 
L 93.981458 150.287108 
L 94.306437 157.92926 
L 94.956396 157.92926 
L 95.281376 165.571412 
L 95.606355 157.92926 
L 95.931335 173.213564 
L 96.256314 165.571412 
L 96.581294 165.571412 
L 96.906274 157.92926 
L 97.556233 173.213564 
L 97.881212 157.92926 
L 98.206192 173.213564 
L 98.531171 180.855716 
L 99.18113 180.855716 
L 99.50611 173.213564 
L 99.831089 188.497869 
L 100.156069 180.855716 
L 100.481048 180.855716 
L 100.806028 188.497869 
L 101.131007 188.497869 
L 101.455987 180.855716 
L 101.780966 188.497869 
L 102.430925 188.497869 
L 102.755905 196.140021 
L 103.080885 196.140021 
L 104.055823 219.066478 
L 104.380803 211.424325 
L 105.030762 211.424325 
L 105.355741 219.066478 
L 106.0057 219.066478 
L 106.33068 226.70863 
L 107.630598 226.70863 
L 107.955577 234.350782 
L 108.280557 226.70863 
L 108.930516 241.992934 
L 110.555414 241.992934 
L 110.880393 249.635087 
L 112.180311 249.635087 
L 112.505291 257.277239 
L 112.83027 249.635087 
L 113.15525 257.277239 
L 113.480229 257.277239 
L 113.805209 272.561543 
L 114.130188 272.561543 
L 114.455168 280.203696 
L 114.780147 264.919391 
L 115.105127 272.561543 
L 116.405045 272.561543 
L 116.730025 280.203696 
L 117.055004 280.203696 
L 117.379984 272.561543 
L 117.704963 272.561543 
L 118.029943 280.203696 
L 118.354922 280.203696 
L 118.679902 272.561543 
L 119.329861 287.845848 
L 119.97982 287.845848 
L 120.304799 280.203696 
L 120.629779 280.203696 
L 120.954758 287.845848 
L 121.279738 280.203696 
L 121.604717 287.845848 
L 122.904636 287.845848 
L 123.229615 280.203696 
L 123.554595 287.845848 
L 123.879574 272.561543 
L 124.854513 295.488 
L 125.179492 287.845848 
L 126.154431 287.845848 
L 126.47941 280.203696 
L 127.129369 280.203696 
L 127.454349 264.919391 
L 127.779328 264.919391 
L 128.104308 272.561543 
L 128.429287 257.277239 
L 128.754267 264.919391 
L 129.079247 249.635087 
L 129.404226 257.277239 
L 129.729206 257.277239 
L 130.054185 264.919391 
L 130.379165 249.635087 
L 131.029124 249.635087 
L 131.354103 241.992934 
L 132.329042 241.992934 
L 132.654021 234.350782 
L 132.979001 241.992934 
L 133.30398 234.350782 
L 133.62896 234.350782 
L 133.953939 241.992934 
L 134.278919 226.70863 
L 134.603898 234.350782 
L 134.928878 234.350782 
L 135.253857 249.635087 
L 135.578837 234.350782 
L 135.903817 234.350782 
L 136.228796 226.70863 
L 136.553776 234.350782 
L 136.878755 226.70863 
L 137.203735 226.70863 
L 137.528714 234.350782 
L 137.853694 226.70863 
L 138.178673 226.70863 
L 138.828632 211.424325 
L 139.153612 219.066478 
L 139.478591 203.782173 
L 139.803571 219.066478 
L 140.45353 219.066478 
L 141.103489 203.782173 
L 141.753448 203.782173 
L 142.078428 196.140021 
L 142.403407 203.782173 
L 142.728387 196.140021 
L 143.378346 196.140021 
L 143.703325 188.497869 
L 144.353284 188.497869 
L 144.678264 180.855716 
L 145.003243 188.497869 
L 145.328223 188.497869 
L 145.653202 196.140021 
L 145.978182 180.855716 
L 146.628141 180.855716 
L 146.95312 173.213564 
L 147.2781 173.213564 
L 147.603079 180.855716 
L 148.253038 165.571412 
L 148.578018 173.213564 
L 149.227977 157.92926 
L 149.552957 157.92926 
L 149.877936 150.287108 
L 150.202916 157.92926 
L 150.852875 157.92926 
L 151.177854 150.287108 
L 151.827813 150.287108 
L 152.152793 142.644955 
L 153.127731 142.644955 
L 153.452711 127.360651 
L 153.77769 135.002803 
L 154.10267 135.002803 
L 154.427649 127.360651 
L 154.752629 135.002803 
L 155.077609 127.360651 
L 155.727568 127.360651 
L 156.052547 119.718499 
L 156.377527 127.360651 
L 156.702506 119.718499 
L 157.027486 119.718499 
L 157.352465 112.076346 
L 157.677445 119.718499 
L 158.002424 119.718499 
L 158.652383 104.434194 
L 158.977363 112.076346 
L 159.302342 104.434194 
L 159.952301 104.434194 
L 160.277281 96.792042 
L 160.60226 104.434194 
L 160.92724 104.434194 
L 161.252219 96.792042 
L 161.577199 96.792042 
L 161.902179 89.14989 
L 162.227158 96.792042 
L 162.552138 89.14989 
L 163.527076 89.14989 
L 163.852056 81.507737 
L 164.177035 89.14989 
L 164.502015 81.507737 
L 165.151974 81.507737 
L 165.476953 66.223433 
L 165.801933 81.507737 
L 166.126912 89.14989 
L 166.451892 89.14989 
L 167.101851 73.865585 
L 167.42683 81.507737 
L 167.75181 73.865585 
L 168.401769 73.865585 
L 168.726749 81.507737 
L 169.051728 66.223433 
L 169.376708 73.865585 
L 169.701687 66.223433 
L 170.026667 66.223433 
L 170.351646 81.507737 
L 170.676626 58.581281 
L 171.001605 73.865585 
L 171.651564 73.865585 
L 171.976544 66.223433 
L 172.301523 73.865585 
L 173.601441 73.865585 
L 173.926421 81.507737 
L 174.2514 73.865585 
L 174.57638 81.507737 
L 175.226339 81.507737 
L 175.551319 89.14989 
L 175.876298 81.507737 
L 176.526257 96.792042 
L 177.501196 96.792042 
L 177.826175 104.434194 
L 178.476134 104.434194 
L 178.801114 112.076346 
L 179.451073 112.076346 
L 179.776052 119.718499 
L 180.101032 112.076346 
L 180.426011 112.076346 
L 180.750991 119.718499 
L 181.075971 112.076346 
L 181.40095 119.718499 
L 181.72593 119.718499 
L 182.050909 127.360651 
L 182.375889 119.718499 
L 182.700868 119.718499 
L 183.025848 127.360651 
L 183.350827 119.718499 
L 183.675807 119.718499 
L 184.325766 135.002803 
L 184.650745 127.360651 
L 185.625684 127.360651 
L 185.950663 135.002803 
L 186.275643 127.360651 
L 187.250581 150.287108 
L 187.575561 142.644955 
L 187.900541 142.644955 
L 188.22552 150.287108 
L 188.5505 150.287108 
L 188.875479 142.644955 
L 189.200459 150.287108 
L 189.850418 150.287108 
L 190.175397 157.92926 
L 191.150336 157.92926 
L 191.475315 150.287108 
L 191.800295 165.571412 
L 192.125274 165.571412 
L 192.450254 173.213564 
L 192.775233 165.571412 
L 193.100213 173.213564 
L 194.725111 173.213564 
L 195.05009 180.855716 
L 196.674988 180.855716 
L 196.999967 188.497869 
L 197.324947 188.497869 
L 197.649926 196.140021 
L 198.299885 196.140021 
L 198.624865 203.782173 
L 199.274824 203.782173 
L 199.924783 219.066478 
L 200.249762 211.424325 
L 201.224701 211.424325 
L 201.549681 226.70863 
L 201.87466 219.066478 
L 202.19964 219.066478 
L 202.849599 234.350782 
L 203.174578 234.350782 
L 203.499558 226.70863 
L 203.824537 234.350782 
L 204.799476 234.350782 
L 205.124455 241.992934 
L 205.449435 234.350782 
L 205.774414 241.992934 
L 206.099394 241.992934 
L 206.424373 234.350782 
L 206.749353 241.992934 
L 207.074333 241.992934 
L 207.724292 257.277239 
L 209.02421 257.277239 
L 209.349189 264.919391 
L 209.674169 257.277239 
L 209.999148 264.919391 
L 210.649107 264.919391 
L 210.974087 272.561543 
L 211.299066 272.561543 
L 211.624046 264.919391 
L 211.949025 280.203696 
L 212.274005 264.919391 
L 213.248943 287.845848 
L 213.573923 280.203696 
L 214.223882 280.203696 
L 214.548862 287.845848 
L 214.873841 280.203696 
L 215.84878 280.203696 
L 216.173759 287.845848 
L 216.823718 272.561543 
L 217.148698 287.845848 
L 217.473677 272.561543 
L 217.798657 280.203696 
L 218.123636 295.488 
L 218.773595 295.488 
L 219.098575 287.845848 
L 219.423554 295.488 
L 220.073514 280.203696 
L 220.723473 295.488 
L 221.373432 280.203696 
L 222.023391 280.203696 
L 222.34837 287.845848 
L 222.67335 264.919391 
L 223.323309 280.203696 
L 223.973268 280.203696 
L 224.623227 264.919391 
L 224.948206 264.919391 
L 225.273186 257.277239 
L 225.923145 257.277239 
L 226.248124 249.635087 
L 226.573104 257.277239 
L 226.898084 241.992934 
L 227.548043 241.992934 
L 227.873022 234.350782 
L 228.198002 241.992934 
L 228.522981 241.992934 
L 228.847961 249.635087 
L 229.17294 234.350782 
L 229.49792 234.350782 
L 229.822899 241.992934 
L 230.147879 234.350782 
L 230.797838 234.350782 
L 231.122817 241.992934 
L 231.772776 226.70863 
L 232.747715 226.70863 
L 233.072695 219.066478 
L 233.722654 234.350782 
L 234.047633 234.350782 
L 234.372613 219.066478 
L 234.697592 219.066478 
L 235.022572 226.70863 
L 235.347551 211.424325 
L 235.99751 211.424325 
L 236.32249 219.066478 
L 236.647469 203.782173 
L 236.972449 211.424325 
L 237.297428 203.782173 
L 237.947387 203.782173 
L 238.272367 188.497869 
L 238.922326 203.782173 
L 239.247305 203.782173 
L 239.897265 188.497869 
L 240.222244 196.140021 
L 240.547224 196.140021 
L 240.872203 180.855716 
L 241.197183 188.497869 
L 241.522162 188.497869 
L 241.847142 180.855716 
L 242.172121 188.497869 
L 242.497101 180.855716 
L 243.14706 180.855716 
L 243.472039 165.571412 
L 243.797019 180.855716 
L 244.121998 180.855716 
L 244.446978 188.497869 
L 245.096937 157.92926 
L 245.421916 165.571412 
L 245.746896 165.571412 
L 246.071876 157.92926 
L 246.721835 157.92926 
L 247.046814 150.287108 
L 247.696773 150.287108 
L 248.021753 135.002803 
L 248.346732 142.644955 
L 248.671712 127.360651 
L 248.996691 142.644955 
L 249.64665 142.644955 
L 249.97163 127.360651 
L 250.296609 135.002803 
L 250.621589 135.002803 
L 250.946568 127.360651 
L 251.921507 127.360651 
L 252.246486 119.718499 
L 252.571466 127.360651 
L 253.221425 112.076346 
L 253.546405 119.718499 
L 253.871384 104.434194 
L 254.196364 112.076346 
L 254.521343 112.076346 
L 254.846323 119.718499 
L 255.171302 104.434194 
L 255.821261 104.434194 
L 256.146241 96.792042 
L 256.47122 104.434194 
L 256.7962 96.792042 
L 257.121179 104.434194 
L 257.446159 96.792042 
L 257.771138 96.792042 
L 258.421097 81.507737 
L 258.746077 89.14989 
L 259.071057 81.507737 
L 259.396036 89.14989 
L 260.370975 89.14989 
L 260.695954 73.865585 
L 261.020934 81.507737 
L 261.670893 81.507737 
L 261.995872 73.865585 
L 262.320852 81.507737 
L 262.645831 73.865585 
L 262.970811 81.507737 
L 263.29579 66.223433 
L 263.62077 66.223433 
L 263.945749 73.865585 
L 264.270729 66.223433 
L 264.595708 73.865585 
L 264.920688 73.865585 
L 265.245667 81.507737 
L 265.570647 66.223433 
L 265.895627 66.223433 
L 266.220606 73.865585 
L 266.545586 73.865585 
L 266.870565 66.223433 
L 267.195545 66.223433 
L 267.520524 73.865585 
L 267.845504 66.223433 
L 268.170483 73.865585 
L 268.495463 66.223433 
L 268.820442 66.223433 
L 269.145422 81.507737 
L 269.470401 66.223433 
L 269.795381 81.507737 
L 270.12036 89.14989 
L 270.44534 89.14989 
L 270.770319 81.507737 
L 271.420278 81.507737 
L 271.745258 89.14989 
L 272.070238 81.507737 
L 272.395217 96.792042 
L 272.720197 104.434194 
L 273.045176 89.14989 
L 273.370156 96.792042 
L 274.020115 96.792042 
L 274.345094 112.076346 
L 274.670074 104.434194 
L 274.995053 112.076346 
L 275.320033 112.076346 
L 275.645012 119.718499 
L 277.919869 119.718499 
L 278.244848 112.076346 
L 278.569828 119.718499 
L 279.219787 119.718499 
L 279.544767 135.002803 
L 279.869746 112.076346 
L 280.194726 127.360651 
L 280.844685 142.644955 
L 281.169664 127.360651 
L 281.494644 127.360651 
L 281.819623 135.002803 
L 282.144603 127.360651 
L 282.469582 135.002803 
L 282.794562 135.002803 
L 283.119541 142.644955 
L 284.09448 142.644955 
L 284.419459 135.002803 
L 284.744439 150.287108 
L 285.069419 142.644955 
L 285.394398 150.287108 
L 285.719378 150.287108 
L 286.044357 157.92926 
L 287.019296 157.92926 
L 287.344275 165.571412 
L 287.669255 157.92926 
L 288.319214 173.213564 
L 288.644193 165.571412 
L 288.969173 173.213564 
L 289.294152 165.571412 
L 289.619132 165.571412 
L 289.944111 180.855716 
L 290.269091 157.92926 
L 290.59407 173.213564 
L 291.244029 188.497869 
L 291.569009 180.855716 
L 291.893989 180.855716 
L 292.218968 188.497869 
L 292.543948 188.497869 
L 292.868927 196.140021 
L 293.518886 196.140021 
L 293.843866 188.497869 
L 294.168845 196.140021 
L 294.818804 196.140021 
L 295.143784 203.782173 
L 295.468763 196.140021 
L 295.793743 211.424325 
L 296.118722 219.066478 
L 296.443702 219.066478 
L 296.768681 211.424325 
L 297.093661 219.066478 
L 297.41864 219.066478 
L 297.74362 226.70863 
L 300.018477 226.70863 
L 300.343456 241.992934 
L 300.668436 226.70863 
L 301.643374 249.635087 
L 301.968354 241.992934 
L 302.293333 241.992934 
L 302.618313 249.635087 
L 303.268272 249.635087 
L 303.593251 257.277239 
L 303.918231 257.277239 
L 304.24321 249.635087 
L 304.56819 249.635087 
L 304.89317 257.277239 
L 305.218149 257.277239 
L 305.543129 264.919391 
L 305.868108 257.277239 
L 306.193088 272.561543 
L 306.518067 272.561543 
L 306.843047 280.203696 
L 307.168026 280.203696 
L 307.493006 272.561543 
L 307.817985 280.203696 
L 308.142965 272.561543 
L 308.467944 272.561543 
L 308.792924 280.203696 
L 309.442883 280.203696 
L 309.767862 272.561543 
L 310.092842 280.203696 
L 310.417821 280.203696 
L 310.742801 287.845848 
L 311.067781 272.561543 
L 311.71774 287.845848 
L 312.042719 287.845848 
L 312.367699 295.488 
L 312.692678 280.203696 
L 313.017658 287.845848 
L 313.342637 287.845848 
L 313.667617 280.203696 
L 313.992596 287.845848 
L 314.967535 287.845848 
L 315.292514 280.203696 
L 315.617494 287.845848 
L 315.942473 287.845848 
L 316.267453 272.561543 
L 316.592432 287.845848 
L 316.917412 287.845848 
L 317.242391 295.488 
L 317.892351 280.203696 
L 318.21733 280.203696 
L 318.54231 272.561543 
L 319.517248 272.561543 
L 319.842228 264.919391 
L 320.167207 264.919391 
L 320.492187 257.277239 
L 321.142146 257.277239 
L 321.467125 241.992934 
L 322.117084 257.277239 
L 322.442064 257.277239 
L 323.092023 241.992934 
L 323.417002 249.635087 
L 323.741982 241.992934 
L 324.066962 249.635087 
L 324.391941 241.992934 
L 324.716921 241.992934 
L 325.0419 234.350782 
L 325.36688 241.992934 
L 326.016839 226.70863 
L 326.341818 234.350782 
L 326.666798 226.70863 
L 326.991777 234.350782 
L 327.316757 234.350782 
L 327.641736 241.992934 
L 327.966716 234.350782 
L 328.616675 234.350782 
L 328.941654 226.70863 
L 330.241572 226.70863 
L 330.566552 211.424325 
L 331.541491 211.424325 
L 331.86647 203.782173 
L 332.19145 211.424325 
L 333.166388 211.424325 
L 333.491368 196.140021 
L 333.816347 196.140021 
L 334.141327 203.782173 
L 334.466306 188.497869 
L 334.791286 196.140021 
L 335.766224 196.140021 
L 336.416183 180.855716 
L 336.741163 188.497869 
L 337.066143 180.855716 
L 337.391122 180.855716 
L 337.716102 188.497869 
L 338.041081 188.497869 
L 338.366061 180.855716 
L 339.01602 180.855716 
L 339.340999 173.213564 
L 340.640917 173.213564 
L 340.965897 165.571412 
L 341.290876 165.571412 
L 341.615856 157.92926 
L 341.940835 157.92926 
L 342.265815 150.287108 
L 342.915774 150.287108 
L 343.240753 157.92926 
L 343.565733 142.644955 
L 343.890713 150.287108 
L 344.540672 135.002803 
L 344.865651 142.644955 
L 345.190631 135.002803 
L 345.51561 135.002803 
L 345.84059 127.360651 
L 347.140508 127.360651 
L 347.465487 112.076346 
L 348.440426 135.002803 
L 348.765405 119.718499 
L 349.415364 119.718499 
L 349.740344 112.076346 
L 350.390303 112.076346 
L 350.715283 119.718499 
L 351.040262 104.434194 
L 351.690221 104.434194 
L 352.015201 96.792042 
L 352.34018 96.792042 
L 352.66516 89.14989 
L 353.315119 104.434194 
L 353.640098 96.792042 
L 353.965078 81.507737 
L 354.290057 81.507737 
L 354.615037 89.14989 
L 354.940016 89.14989 
L 355.264996 81.507737 
L 356.239934 81.507737 
L 356.564914 89.14989 
L 357.214873 73.865585 
L 357.539853 81.507737 
L 357.864832 66.223433 
L 358.189812 89.14989 
L 358.839771 89.14989 
L 359.16475 73.865585 
L 360.139689 73.865585 
L 360.464668 66.223433 
L 360.789648 66.223433 
L 361.114627 73.865585 
L 361.439607 66.223433 
L 361.764586 81.507737 
L 362.414545 66.223433 
L 362.739525 73.865585 
L 363.064505 58.581281 
L 363.389484 73.865585 
L 363.714464 73.865585 
L 364.039443 81.507737 
L 364.364423 66.223433 
L 364.689402 66.223433 
L 365.339361 81.507737 
L 365.664341 73.865585 
L 365.98932 81.507737 
L 366.639279 81.507737 
L 366.964259 89.14989 
L 367.289238 89.14989 
L 367.614218 81.507737 
L 367.939197 89.14989 
L 368.264177 81.507737 
L 368.589156 96.792042 
L 368.914136 89.14989 
L 369.239115 104.434194 
L 369.889075 104.434194 
L 370.214054 112.076346 
L 370.539034 104.434194 
L 370.864013 104.434194 
L 371.513972 119.718499 
L 371.838952 112.076346 
L 372.163931 119.718499 
L 372.488911 119.718499 
L 372.81389 112.076346 
L 373.13887 119.718499 
L 373.463849 112.076346 
L 374.113808 127.360651 
L 375.088747 127.360651 
L 375.413726 119.718499 
L 375.738706 127.360651 
L 378.013563 127.360651 
L 378.338542 135.002803 
L 378.663522 127.360651 
L 379.63846 150.287108 
L 379.96344 142.644955 
L 380.288419 150.287108 
L 381.263358 150.287108 
L 381.588337 157.92926 
L 381.913317 157.92926 
L 382.238296 150.287108 
L 382.563276 157.92926 
L 382.888256 157.92926 
L 383.213235 150.287108 
L 383.538215 165.571412 
L 383.863194 150.287108 
L 384.188174 165.571412 
L 384.513153 173.213564 
L 386.78801 173.213564 
L 387.112989 180.855716 
L 388.412907 180.855716 
L 388.737887 188.497869 
L 389.062867 180.855716 
L 389.387846 196.140021 
L 390.037805 211.424325 
L 390.362785 203.782173 
L 391.337723 203.782173 
L 391.662703 211.424325 
L 391.987682 211.424325 
L 392.312662 219.066478 
L 392.637641 211.424325 
L 392.962621 219.066478 
L 393.61258 219.066478 
L 393.937559 226.70863 
L 394.262539 219.066478 
L 394.587518 234.350782 
L 394.912498 234.350782 
L 395.237477 241.992934 
L 395.562457 234.350782 
L 396.862375 234.350782 
L 397.187355 241.992934 
L 397.512334 241.992934 
L 397.837314 234.350782 
L 398.162293 249.635087 
L 398.487273 241.992934 
L 398.487273 241.992934 
" clip-path="url(#p15dd8a48e0)" style="fill: none; stroke: #ff7f0e; stroke-width: 1.5; stroke-linecap: square"/>
   </g>
   <g id="line2d_14">
    <path d="M 73.832727 153.839258 
L 76.107584 153.785763 
L 77.732482 153.930964 
L 79.357379 153.869827 
L 82.932154 153.892753 
L 84.882031 153.930964 
L 87.156888 153.793405 
L 91.056642 153.91568 
L 93.006519 153.793405 
L 95.281376 153.8469 
L 98.206192 153.892753 
L 101.455987 153.839258 
L 104.705782 153.80869 
L 106.655659 153.862185 
L 109.905455 153.8469 
L 111.530352 153.823974 
L 114.130188 153.862185 
L 116.730025 153.831616 
L 118.029943 153.8469 
L 119.65484 153.816332 
L 121.929697 153.831616 
L 123.879574 153.839258 
L 125.829451 153.801047 
L 126.80439 153.793405 
L 134.603898 153.900395 
L 136.228796 153.908038 
L 138.503653 153.747552 
L 143.053366 153.854542 
L 144.353284 153.770479 
L 148.578018 153.900395 
L 150.527895 153.778121 
L 158.652383 153.900395 
L 160.277281 153.801047 
L 163.527076 153.854542 
L 398.487273 153.816332 
L 398.487273 153.816332 
" clip-path="url(#p15dd8a48e0)" style="fill: none; stroke: #2ca02c; stroke-width: 1.5; stroke-linecap: square"/>
   </g>
   <g id="patch_3">
    <path d="M 57.6 307.584 
L 57.6 41.472 
" style="fill: none; stroke: #000000; stroke-width: 0.8; stroke-linejoin: miter; stroke-linecap: square"/>
   </g>
   <g id="patch_4">
    <path d="M 414.72 307.584 
L 414.72 41.472 
" style="fill: none; stroke: #000000; stroke-width: 0.8; stroke-linejoin: miter; stroke-linecap: square"/>
   </g>
   <g id="patch_5">
    <path d="M 57.6 307.584 
L 414.72 307.584 
" style="fill: none; stroke: #000000; stroke-width: 0.8; stroke-linejoin: miter; stroke-linecap: square"/>
   </g>
   <g id="patch_6">
    <path d="M 57.6 41.472 
L 414.72 41.472 
" style="fill: none; stroke: #000000; stroke-width: 0.8; stroke-linejoin: miter; stroke-linecap: square"/>
   </g>
  </g>
 </g>
 <defs>
  <clipPath id="p15dd8a48e0">
   <rect x="57.6" y="41.472" width="357.12" height="266.112"/>
  </clipPath>
 </defs>
</svg>
