<?xml version="1.0" encoding="utf-8" standalone="no"?>
<!DOCTYPE svg PUBLIC "-//W3C//DTD SVG 1.1//EN"
  "http://www.w3.org/Graphics/SVG/1.1/DTD/svg11.dtd">
<svg xmlns:xlink="http://www.w3.org/1999/xlink" width="460.8pt" height="345.6pt" viewBox="0 0 460.8 345.6" xmlns="http://www.w3.org/2000/svg" version="1.1">
 <metadata>
  <rdf:RDF xmlns:dc="http://purl.org/dc/elements/1.1/" xmlns:cc="http://creativecommons.org/ns#" xmlns:rdf="http://www.w3.org/1999/02/22-rdf-syntax-ns#">
   <cc:Work>
    <dc:type rdf:resource="http://purl.org/dc/dcmitype/StillImage"/>
    <dc:date>2025-12-31T13:35:36.838088</dc:date>
    <dc:format>image/svg+xml</dc:format>
    <dc:creator>
     <cc:Agent>
      <dc:title>Matplotlib v3.10.8, https://matplotlib.org/</dc:title>
     </cc:Agent>
    </dc:creator>
   </cc:Work>
  </rdf:RDF>
 </metadata>
 <defs>
  <style type="text/css">*{stroke-linejoin: round; stroke-linecap: butt}</style>
 </defs>
 <g id="figure_1">
  <g id="patch_1">
   <path d="M 0 345.6 
L 460.8 345.6 
L 460.8 0 
L 0 0 
z
" style="fill: #ffffff"/>
  </g>
  <g id="axes_1">
   <g id="patch_2">
    <path d="M 57.6 307.584 
L 414.72 307.584 
L 414.72 41.472 
L 57.6 41.472 
z
" style="fill: #ffffff"/>
   </g>
   <g id="matplotlib.axis_1">
    <g id="xtick_1">
     <g id="line2d_1">
      <defs>
       <path id="m7b0595dad1" d="M 0 0 
L 0 3.5 
" style="stroke: #000000; stroke-width: 0.8"/>
      </defs>
      <g>
       <use xlink:href="#m7b0595dad1" x="73.832727" y="307.584" style="stroke: #000000; stroke-width: 0.8"/>
      </g>
     </g>
     <g id="text_1">
      <!-- 0 -->
      <g transform="translate(70.651477 322.182437) scale(0.1 -0.1)">
       <defs>
        <path id="DejaVuSans-30" d="M 2034 4250 
Q 1547 4250 1301 3770 
Q 1056 3291 1056 2328 
Q 1056 1369 1301 889 
Q 1547 409 2034 409 
Q 2525 409 2770 889 
Q 3016 1369 3016 2328 
Q 3016 3291 2770 3770 
Q 2525 4250 2034 4250 
z
M 2034 4750 
Q 2819 4750 3233 4129 
Q 3647 3509 3647 2328 
Q 3647 1150 3233 529 
Q 2819 -91 2034 -91 
Q 1250 -91 836 529 
Q 422 1150 422 2328 
Q 422 3509 836 4129 
Q 1250 4750 2034 4750 
z
" transform="scale(0.015625)"/>
       </defs>
       <use xlink:href="#DejaVuSans-30"/>
      </g>
     </g>
    </g>
    <g id="xtick_2">
     <g id="line2d_2">
      <g>
       <use xlink:href="#m7b0595dad1" x="138.828632" y="307.584" style="stroke: #000000; stroke-width: 0.8"/>
      </g>
     </g>
     <g id="text_2">
      <!-- 1 -->
      <g transform="translate(135.647382 322.182437) scale(0.1 -0.1)">
       <defs>
        <path id="DejaVuSans-31" d="M 794 531 
L 1825 531 
L 1825 4091 
L 703 3866 
L 703 4441 
L 1819 4666 
L 2450 4666 
L 2450 531 
L 3481 531 
L 3481 0 
L 794 0 
L 794 531 
z
" transform="scale(0.015625)"/>
       </defs>
       <use xlink:href="#DejaVuSans-31"/>
      </g>
     </g>
    </g>
    <g id="xtick_3">
     <g id="line2d_3">
      <g>
       <use xlink:href="#m7b0595dad1" x="203.824537" y="307.584" style="stroke: #000000; stroke-width: 0.8"/>
      </g>
     </g>
     <g id="text_3">
      <!-- 2 -->
      <g transform="translate(200.643287 322.182437) scale(0.1 -0.1)">
       <defs>
        <path id="DejaVuSans-32" d="M 1228 531 
L 3431 531 
L 3431 0 
L 469 0 
L 469 531 
Q 828 903 1448 1529 
Q 2069 2156 2228 2338 
Q 2531 2678 2651 2914 
Q 2772 3150 2772 3378 
Q 2772 3750 2511 3984 
Q 2250 4219 1831 4219 
Q 1534 4219 1204 4116 
Q 875 4013 500 3803 
L 500 4441 
Q 881 4594 1212 4672 
Q 1544 4750 1819 4750 
Q 2544 4750 2975 4387 
Q 3406 4025 3406 3419 
Q 3406 3131 3298 2873 
Q 3191 2616 2906 2266 
Q 2828 2175 2409 1742 
Q 1991 1309 1228 531 
z
" transform="scale(0.015625)"/>
       </defs>
       <use xlink:href="#DejaVuSans-32"/>
      </g>
     </g>
    </g>
    <g id="xtick_4">
     <g id="line2d_4">
      <g>
       <use xlink:href="#m7b0595dad1" x="268.820442" y="307.584" style="stroke: #000000; stroke-width: 0.8"/>
      </g>
     </g>
     <g id="text_4">
      <!-- 3 -->
      <g transform="translate(265.639192 322.182437) scale(0.1 -0.1)">
       <defs>
        <path id="DejaVuSans-33" d="M 2597 2516 
Q 3050 2419 3304 2112 
Q 3559 1806 3559 1356 
Q 3559 666 3084 287 
Q 2609 -91 1734 -91 
Q 1441 -91 1130 -33 
Q 819 25 488 141 
L 488 750 
Q 750 597 1062 519 
Q 1375 441 1716 441 
Q 2309 441 2620 675 
Q 2931 909 2931 1356 
Q 2931 1769 2642 2001 
Q 2353 2234 1838 2234 
L 1294 2234 
L 1294 2753 
L 1863 2753 
Q 2328 2753 2575 2939 
Q 2822 3125 2822 3475 
Q 2822 3834 2567 4026 
Q 2313 4219 1838 4219 
Q 1578 4219 1281 4162 
Q 984 4106 628 3988 
L 628 4550 
Q 988 4650 1302 4700 
Q 1616 4750 1894 4750 
Q 2613 4750 3031 4423 
Q 3450 4097 3450 3541 
Q 3450 3153 3228 2886 
Q 3006 2619 2597 2516 
z
" transform="scale(0.015625)"/>
       </defs>
       <use xlink:href="#DejaVuSans-33"/>
      </g>
     </g>
    </g>
    <g id="xtick_5">
     <g id="line2d_5">
      <g>
       <use xlink:href="#m7b0595dad1" x="333.816347" y="307.584" style="stroke: #000000; stroke-width: 0.8"/>
      </g>
     </g>
     <g id="text_5">
      <!-- 4 -->
      <g transform="translate(330.635097 322.182437) scale(0.1 -0.1)">
       <defs>
        <path id="DejaVuSans-34" d="M 2419 4116 
L 825 1625 
L 2419 1625 
L 2419 4116 
z
M 2253 4666 
L 3047 4666 
L 3047 1625 
L 3713 1625 
L 3713 1100 
L 3047 1100 
L 3047 0 
L 2419 0 
L 2419 1100 
L 313 1100 
L 313 1709 
L 2253 4666 
z
" transform="scale(0.015625)"/>
       </defs>
       <use xlink:href="#DejaVuSans-34"/>
      </g>
     </g>
    </g>
    <g id="xtick_6">
     <g id="line2d_6">
      <g>
       <use xlink:href="#m7b0595dad1" x="398.812252" y="307.584" style="stroke: #000000; stroke-width: 0.8"/>
      </g>
     </g>
     <g id="text_6">
      <!-- 5 -->
      <g transform="translate(395.631002 322.182437) scale(0.1 -0.1)">
       <defs>
        <path id="DejaVuSans-35" d="M 691 4666 
L 3169 4666 
L 3169 4134 
L 1269 4134 
L 1269 2991 
Q 1406 3038 1543 3061 
Q 1681 3084 1819 3084 
Q 2600 3084 3056 2656 
Q 3513 2228 3513 1497 
Q 3513 744 3044 326 
Q 2575 -91 1722 -91 
Q 1428 -91 1123 -41 
Q 819 9 494 109 
L 494 744 
Q 775 591 1075 516 
Q 1375 441 1709 441 
Q 2250 441 2565 725 
Q 2881 1009 2881 1497 
Q 2881 1984 2565 2268 
Q 2250 2553 1709 2553 
Q 1456 2553 1204 2497 
Q 953 2441 691 2322 
L 691 4666 
z
" transform="scale(0.015625)"/>
       </defs>
       <use xlink:href="#DejaVuSans-35"/>
      </g>
     </g>
    </g>
    <g id="text_7">
     <!-- 1e−7 -->
     <g transform="translate(387.462188 334.860562) scale(0.1 -0.1)">
      <defs>
       <path id="DejaVuSans-65" d="M 3597 1894 
L 3597 1613 
L 953 1613 
Q 991 1019 1311 708 
Q 1631 397 2203 397 
Q 2534 397 2845 478 
Q 3156 559 3463 722 
L 3463 178 
Q 3153 47 2828 -22 
Q 2503 -91 2169 -91 
Q 1331 -91 842 396 
Q 353 884 353 1716 
Q 353 2575 817 3079 
Q 1281 3584 2069 3584 
Q 2775 3584 3186 3129 
Q 3597 2675 3597 1894 
z
M 3022 2063 
Q 3016 2534 2758 2815 
Q 2500 3097 2075 3097 
Q 1594 3097 1305 2825 
Q 1016 2553 972 2059 
L 3022 2063 
z
" transform="scale(0.015625)"/>
       <path id="DejaVuSans-2212" d="M 678 2272 
L 4684 2272 
L 4684 1741 
L 678 1741 
L 678 2272 
z
" transform="scale(0.015625)"/>
       <path id="DejaVuSans-37" d="M 525 4666 
L 3525 4666 
L 3525 4397 
L 1831 0 
L 1172 0 
L 2766 4134 
L 525 4134 
L 525 4666 
z
" transform="scale(0.015625)"/>
      </defs>
      <use xlink:href="#DejaVuSans-31"/>
      <use xlink:href="#DejaVuSans-65" transform="translate(63.623047 0)"/>
      <use xlink:href="#DejaVuSans-2212" transform="translate(125.146484 0)"/>
      <use xlink:href="#DejaVuSans-37" transform="translate(208.935547 0)"/>
     </g>
    </g>
   </g>
   <g id="matplotlib.axis_2">
    <g id="ytick_1">
     <g id="line2d_7">
      <defs>
       <path id="mf17e87782f" d="M 0 0 
L -3.5 0 
" style="stroke: #000000; stroke-width: 0.8"/>
      </defs>
      <g>
       <use xlink:href="#mf17e87782f" x="57.6" y="299.254008" style="stroke: #000000; stroke-width: 0.8"/>
      </g>
     </g>
     <g id="text_8">
      <!-- 0 -->
      <g transform="translate(44.2375 303.053227) scale(0.1 -0.1)">
       <use xlink:href="#DejaVuSans-30"/>
      </g>
     </g>
    </g>
    <g id="ytick_2">
     <g id="line2d_8">
      <g>
       <use xlink:href="#mf17e87782f" x="57.6" y="245.228141" style="stroke: #000000; stroke-width: 0.8"/>
      </g>
     </g>
     <g id="text_9">
      <!-- 10 -->
      <g transform="translate(37.875 249.02736) scale(0.1 -0.1)">
       <use xlink:href="#DejaVuSans-31"/>
       <use xlink:href="#DejaVuSans-30" transform="translate(63.623047 0)"/>
      </g>
     </g>
    </g>
    <g id="ytick_3">
     <g id="line2d_9">
      <g>
       <use xlink:href="#mf17e87782f" x="57.6" y="191.202274" style="stroke: #000000; stroke-width: 0.8"/>
      </g>
     </g>
     <g id="text_10">
      <!-- 20 -->
      <g transform="translate(37.875 195.001492) scale(0.1 -0.1)">
       <use xlink:href="#DejaVuSans-32"/>
       <use xlink:href="#DejaVuSans-30" transform="translate(63.623047 0)"/>
      </g>
     </g>
    </g>
    <g id="ytick_4">
     <g id="line2d_10">
      <g>
       <use xlink:href="#mf17e87782f" x="57.6" y="137.176406" style="stroke: #000000; stroke-width: 0.8"/>
      </g>
     </g>
     <g id="text_11">
      <!-- 30 -->
      <g transform="translate(37.875 140.975625) scale(0.1 -0.1)">
       <use xlink:href="#DejaVuSans-33"/>
       <use xlink:href="#DejaVuSans-30" transform="translate(63.623047 0)"/>
      </g>
     </g>
    </g>
    <g id="ytick_5">
     <g id="line2d_11">
      <g>
       <use xlink:href="#mf17e87782f" x="57.6" y="83.150539" style="stroke: #000000; stroke-width: 0.8"/>
      </g>
     </g>
     <g id="text_12">
      <!-- 40 -->
      <g transform="translate(37.875 86.949758) scale(0.1 -0.1)">
       <use xlink:href="#DejaVuSans-34"/>
       <use xlink:href="#DejaVuSans-30" transform="translate(63.623047 0)"/>
      </g>
     </g>
    </g>
   </g>
   <g id="line2d_12">
    <path d="M 73.832727 164.928144 
L 74.157707 165.096974 
L 74.807666 165.096974 
L 75.457625 163.999574 
L 75.782604 163.830743 
L 77.082523 164.083989 
L 77.407502 163.999574 
L 78.382441 164.590482 
L 79.0324 163.999574 
L 79.357379 163.999574 
L 80.007338 164.25282 
L 80.332318 164.168405 
L 80.657297 163.915158 
L 80.982277 163.830743 
L 81.632236 164.25282 
L 82.607174 163.408666 
L 83.257133 163.408666 
L 84.232072 162.902173 
L 84.557052 163.15542 
L 85.207011 164.083989 
L 85.53199 164.083989 
L 86.181949 163.408666 
L 86.506929 163.32425 
L 86.831908 163.577497 
L 87.156888 163.577497 
L 87.481867 163.408666 
L 88.131826 162.564512 
L 88.456806 162.564512 
L 89.431744 163.239835 
L 89.756724 163.32425 
L 90.406683 163.999574 
L 90.731663 163.999574 
L 91.381622 163.239835 
L 91.706601 162.817758 
L 92.35656 162.733343 
L 93.331499 162.817758 
L 93.656478 163.071004 
L 94.306437 163.830743 
L 94.956396 163.830743 
L 95.281376 163.493081 
L 95.606355 163.408666 
L 95.931335 163.15542 
L 96.906274 161.804773 
L 97.556233 162.142435 
L 97.881212 162.733343 
L 98.206192 163.071004 
L 98.531171 162.986589 
L 98.856151 163.15542 
L 99.831089 164.083989 
L 100.156069 163.915158 
L 100.481048 163.239835 
L 101.131007 162.564512 
L 101.455987 162.395681 
L 101.780966 162.480096 
L 102.430925 161.973604 
L 102.755905 161.973604 
L 103.080885 162.395681 
L 103.730844 163.493081 
L 104.055823 163.408666 
L 105.030762 162.058019 
L 105.680721 161.973604 
L 106.33068 161.551527 
L 106.655659 161.129449 
L 106.980639 161.29828 
L 107.305618 161.889188 
L 107.630598 162.733343 
L 107.955577 163.15542 
L 108.280557 163.239835 
L 108.605536 162.733343 
L 108.930516 162.480096 
L 109.255495 162.395681 
L 109.580475 162.648927 
L 109.905455 162.480096 
L 110.880393 160.960619 
L 111.205373 160.791788 
L 111.530352 161.045034 
L 111.855332 161.467111 
L 112.505291 162.733343 
L 112.83027 162.986589 
L 113.480229 162.311265 
L 113.805209 162.395681 
L 114.455168 163.239835 
L 114.780147 163.071004 
L 115.430106 161.635942 
L 115.755086 161.467111 
L 116.080066 161.551527 
L 116.730025 162.22685 
L 117.704963 162.564512 
L 118.029943 163.071004 
L 118.354922 163.15542 
L 118.679902 162.986589 
L 119.004881 163.071004 
L 119.329861 162.902173 
L 119.97982 162.311265 
L 120.304799 162.058019 
L 120.629779 161.973604 
L 120.954758 162.142435 
L 121.604717 162.902173 
L 121.929697 163.15542 
L 122.579656 162.733343 
L 122.904636 162.733343 
L 123.229615 163.239835 
L 123.554595 163.408666 
L 123.879574 163.408666 
L 124.529533 162.142435 
L 124.854513 161.889188 
L 125.179492 162.395681 
L 125.504472 163.408666 
L 125.829451 163.915158 
L 126.154431 163.830743 
L 126.80439 162.564512 
L 127.129369 162.480096 
L 127.454349 162.733343 
L 127.779328 163.239835 
L 128.429287 163.15542 
L 129.404226 163.239835 
L 130.379165 163.661912 
L 130.704144 163.493081 
L 131.679083 162.480096 
L 132.004062 162.564512 
L 132.654021 163.661912 
L 132.979001 163.915158 
L 133.30398 163.830743 
L 134.603898 164.083989 
L 134.928878 163.915158 
L 135.578837 163.15542 
L 135.903817 163.071004 
L 137.203735 163.999574 
L 137.528714 164.168405 
L 138.503653 163.746328 
L 139.153612 163.999574 
L 139.478591 164.168405 
L 140.12855 163.746328 
L 140.45353 163.746328 
L 140.778509 163.915158 
L 141.103489 164.421651 
L 141.428468 164.674897 
L 141.753448 164.759313 
L 142.078428 164.674897 
L 142.403407 164.337236 
L 142.728387 164.25282 
L 143.053366 163.999574 
L 143.703325 163.830743 
L 144.353284 164.421651 
L 145.328223 163.830743 
L 145.653202 163.915158 
L 145.978182 164.25282 
L 146.628141 164.674897 
L 147.2781 164.506066 
L 147.603079 164.168405 
L 148.253038 163.999574 
L 148.578018 164.25282 
L 149.227977 165.519051 
L 149.552957 165.350221 
L 150.202916 164.506066 
L 150.527895 164.506066 
L 151.177854 165.350221 
L 151.502834 165.18139 
L 152.152793 163.746328 
L 152.477772 163.661912 
L 152.802752 163.999574 
L 153.127731 164.590482 
L 153.77769 164.843728 
L 154.427649 165.096974 
L 154.752629 165.265805 
L 155.402588 165.18139 
L 156.377527 164.337236 
L 156.702506 164.337236 
L 157.027486 164.506066 
L 157.677445 165.096974 
L 158.002424 165.012559 
L 158.652383 164.337236 
L 159.627322 165.434636 
L 159.952301 165.265805 
L 160.60226 164.083989 
L 160.92724 164.083989 
L 161.577199 164.674897 
L 161.902179 165.012559 
L 163.202097 164.759313 
L 163.527076 164.759313 
L 164.177035 165.012559 
L 164.826994 164.759313 
L 165.151974 164.421651 
L 166.126912 163.999574 
L 166.776871 164.25282 
L 167.75181 164.674897 
L 168.401769 164.759313 
L 169.051728 165.096974 
L 169.376708 165.096974 
L 170.026667 163.999574 
L 170.351646 163.830743 
L 171.326585 164.083989 
L 171.976544 163.915158 
L 172.951482 164.506066 
L 173.601441 163.915158 
L 173.926421 163.915158 
L 174.57638 164.25282 
L 175.551319 163.830743 
L 175.876298 163.999574 
L 176.526257 163.999574 
L 177.176216 163.32425 
L 178.151155 163.32425 
L 178.801114 162.902173 
L 179.126093 163.071004 
L 179.776052 163.999574 
L 180.101032 163.999574 
L 180.426011 163.746328 
L 180.750991 163.239835 
L 181.075971 163.15542 
L 181.72593 163.493081 
L 182.050909 163.32425 
L 182.700868 162.480096 
L 183.025848 162.480096 
L 184.000786 163.15542 
L 184.650745 163.577497 
L 184.975725 163.830743 
L 185.300704 163.830743 
L 185.625684 163.661912 
L 186.275643 162.817758 
L 187.575561 162.564512 
L 189.200459 163.746328 
L 189.525438 163.746328 
L 189.850418 163.493081 
L 190.175397 163.408666 
L 190.500377 163.071004 
L 191.150336 162.058019 
L 191.475315 161.804773 
L 192.125274 162.058019 
L 192.775233 163.071004 
L 193.100213 162.986589 
L 193.750172 163.408666 
L 194.400131 164.083989 
L 194.725111 164.083989 
L 195.37507 162.986589 
L 195.700049 162.648927 
L 196.025029 162.480096 
L 196.674988 162.395681 
L 196.999967 162.058019 
L 197.324947 161.973604 
L 198.299885 163.408666 
L 198.624865 163.408666 
L 198.949844 163.239835 
L 199.599803 162.142435 
L 200.574742 162.058019 
L 201.224701 161.382696 
L 201.549681 161.382696 
L 202.524619 163.239835 
L 202.849599 163.32425 
L 203.499558 162.564512 
L 203.824537 162.480096 
L 204.149517 162.733343 
L 204.474496 162.648927 
L 205.124455 161.635942 
L 205.449435 161.045034 
L 205.774414 160.791788 
L 206.099394 160.876203 
L 206.749353 162.058019 
L 207.074333 162.733343 
L 207.399312 162.986589 
L 208.049271 162.395681 
L 208.374251 162.480096 
L 209.02421 163.15542 
L 209.349189 163.15542 
L 210.324128 161.467111 
L 210.649107 161.551527 
L 211.299066 162.22685 
L 211.624046 162.395681 
L 211.949025 162.311265 
L 212.274005 162.564512 
L 212.598984 162.986589 
L 212.923964 163.15542 
L 213.898903 162.902173 
L 214.548862 162.311265 
L 214.873841 162.058019 
L 215.198821 161.973604 
L 215.84878 162.564512 
L 216.173759 162.986589 
L 216.498739 163.15542 
L 216.823718 163.15542 
L 217.148698 162.817758 
L 217.473677 162.902173 
L 218.123636 163.577497 
L 218.448616 163.493081 
L 219.423554 161.973604 
L 219.748534 162.395681 
L 220.398493 163.999574 
L 220.723473 163.915158 
L 221.373432 162.733343 
L 221.698411 162.395681 
L 222.34837 163.239835 
L 222.67335 163.408666 
L 222.998329 163.239835 
L 223.973268 163.32425 
L 224.948206 163.746328 
L 225.273186 163.661912 
L 225.923145 162.986589 
L 226.248124 162.480096 
L 226.573104 162.480096 
L 226.898084 162.902173 
L 227.223063 163.746328 
L 227.873022 163.999574 
L 228.198002 163.830743 
L 229.17294 164.083989 
L 229.822899 163.661912 
L 230.472858 163.071004 
L 231.122817 163.661912 
L 232.422735 164.083989 
L 232.747715 163.830743 
L 233.397674 163.746328 
L 234.047633 163.999574 
L 234.372613 163.999574 
L 235.022572 163.746328 
L 235.672531 164.337236 
L 235.99751 164.674897 
L 236.32249 164.759313 
L 236.972449 164.337236 
L 237.297428 163.999574 
L 237.622408 163.999574 
L 237.947387 163.830743 
L 238.272367 163.830743 
L 238.597346 163.999574 
L 238.922326 164.337236 
L 239.247305 164.25282 
L 239.572285 163.915158 
L 240.222244 163.830743 
L 240.547224 164.083989 
L 240.872203 164.506066 
L 241.197183 164.674897 
L 241.522162 164.674897 
L 242.497101 163.830743 
L 243.14706 164.083989 
L 243.797019 165.350221 
L 244.121998 165.603467 
L 244.771957 164.421651 
L 245.096937 164.421651 
L 245.746896 165.265805 
L 246.071876 165.096974 
L 247.046814 163.661912 
L 248.021753 164.759313 
L 248.671712 164.843728 
L 249.321671 165.18139 
L 249.97163 165.096974 
L 250.296609 164.928144 
L 250.621589 164.590482 
L 251.271548 164.337236 
L 252.246486 165.012559 
L 252.571466 165.012559 
L 253.221425 164.337236 
L 253.546405 164.506066 
L 254.196364 165.350221 
L 254.521343 165.265805 
L 255.171302 164.168405 
L 255.496282 164.168405 
L 255.821261 164.337236 
L 256.47122 164.928144 
L 256.7962 165.012559 
L 257.446159 164.674897 
L 258.096118 164.674897 
L 258.746077 165.012559 
L 259.071057 164.928144 
L 260.695954 163.746328 
L 261.020934 163.915158 
L 261.345913 164.25282 
L 262.970811 164.674897 
L 263.62077 165.18139 
L 263.945749 165.096974 
L 264.920688 163.577497 
L 265.245667 163.830743 
L 265.895627 164.083989 
L 266.545586 163.830743 
L 266.870565 163.915158 
L 267.520524 164.337236 
L 267.845504 164.168405 
L 268.170483 163.830743 
L 268.495463 163.746328 
L 269.145422 164.168405 
L 269.470401 164.083989 
L 270.12036 163.661912 
L 270.770319 163.999574 
L 271.095299 163.999574 
L 272.070238 163.239835 
L 272.395217 163.32425 
L 272.720197 163.239835 
L 273.370156 162.817758 
L 273.695135 162.902173 
L 274.345094 163.915158 
L 274.670074 163.999574 
L 274.995053 163.746328 
L 275.320033 163.32425 
L 275.645012 163.15542 
L 276.294971 163.408666 
L 276.619951 163.32425 
L 277.26991 162.564512 
L 277.594889 162.564512 
L 278.894808 163.15542 
L 279.544767 163.915158 
L 279.869746 164.083989 
L 280.519705 163.408666 
L 280.844685 162.902173 
L 281.169664 162.733343 
L 281.494644 162.817758 
L 281.819623 162.648927 
L 282.794562 162.986589 
L 283.119541 163.493081 
L 283.7695 163.915158 
L 285.069419 163.15542 
L 286.044357 161.804773 
L 286.369337 161.804773 
L 286.694316 162.058019 
L 287.344275 163.071004 
L 287.669255 163.071004 
L 287.994234 163.239835 
L 288.969173 164.168405 
L 289.294152 163.999574 
L 289.944111 162.986589 
L 290.59407 162.395681 
L 290.91905 162.480096 
L 291.244029 162.395681 
L 291.569009 161.973604 
L 291.893989 161.889188 
L 292.218968 162.22685 
L 292.868927 163.32425 
L 293.193907 163.493081 
L 293.518886 163.239835 
L 294.168845 162.311265 
L 294.493825 162.142435 
L 294.818804 162.142435 
L 295.468763 161.804773 
L 295.793743 161.382696 
L 296.118722 161.29828 
L 296.443702 161.720357 
L 297.093661 163.32425 
L 297.41864 163.32425 
L 298.0686 162.648927 
L 299.043538 162.733343 
L 299.368518 162.311265 
L 300.018477 161.213865 
L 300.343456 160.791788 
L 300.668436 160.960619 
L 301.318395 161.973604 
L 301.968354 162.986589 
L 302.293333 162.817758 
L 302.618313 162.395681 
L 302.943292 162.480096 
L 303.593251 163.15542 
L 303.918231 163.32425 
L 304.89317 161.382696 
L 305.543129 161.804773 
L 306.193088 162.22685 
L 306.518067 162.22685 
L 306.843047 162.480096 
L 307.168026 162.902173 
L 307.817985 162.986589 
L 308.792924 162.648927 
L 309.442883 162.058019 
L 309.767862 161.889188 
L 310.092842 161.973604 
L 310.742801 162.817758 
L 311.067781 163.071004 
L 311.71774 162.817758 
L 312.042719 162.648927 
L 312.692678 163.408666 
L 313.017658 163.408666 
L 313.342637 162.902173 
L 313.667617 162.142435 
L 313.992596 161.889188 
L 314.317576 162.22685 
L 314.967535 163.830743 
L 315.292514 163.746328 
L 315.617494 163.32425 
L 315.942473 162.648927 
L 316.267453 162.311265 
L 317.242391 163.239835 
L 317.892351 163.15542 
L 318.21733 163.239835 
L 318.54231 163.15542 
L 319.192269 163.577497 
L 319.517248 163.661912 
L 320.167207 163.239835 
L 320.492187 162.733343 
L 321.142146 162.395681 
L 321.467125 162.817758 
L 321.792105 163.493081 
L 322.117084 163.830743 
L 322.442064 163.915158 
L 323.092023 163.830743 
L 323.741982 164.168405 
L 324.716921 163.32425 
L 325.0419 162.986589 
L 325.36688 163.15542 
L 326.016839 163.830743 
L 326.991777 163.999574 
L 327.966716 163.746328 
L 328.616675 164.083989 
L 329.591613 163.746328 
L 329.916593 163.999574 
L 330.566552 164.674897 
L 331.216511 164.759313 
L 331.541491 164.337236 
L 332.19145 163.999574 
L 333.166388 164.083989 
L 333.491368 164.337236 
L 334.141327 164.083989 
L 334.466306 163.830743 
L 334.791286 163.830743 
L 335.116265 164.083989 
L 335.441245 164.506066 
L 335.766224 164.674897 
L 336.416183 164.590482 
L 336.741163 164.168405 
L 337.066143 163.999574 
L 337.391122 163.999574 
L 337.716102 164.25282 
L 338.69104 165.687882 
L 339.340999 164.590482 
L 339.665979 164.506066 
L 340.315938 165.265805 
L 340.640917 165.265805 
L 340.965897 164.674897 
L 341.290876 163.830743 
L 341.615856 163.661912 
L 341.940835 163.999574 
L 342.265815 164.506066 
L 342.590794 164.674897 
L 342.915774 164.674897 
L 344.215692 165.265805 
L 344.540672 165.265805 
L 344.865651 165.096974 
L 345.51561 164.421651 
L 346.165569 164.506066 
L 346.815528 165.096974 
L 347.140508 165.012559 
L 347.790467 164.421651 
L 348.115446 164.590482 
L 348.765405 165.350221 
L 349.090385 165.434636 
L 349.740344 164.25282 
L 350.065324 163.999574 
L 350.390303 164.25282 
L 351.040262 164.928144 
L 351.365242 165.096974 
L 351.690221 164.759313 
L 352.66516 164.843728 
L 353.315119 165.096974 
L 354.290057 164.590482 
L 354.615037 164.25282 
L 355.264996 163.915158 
L 356.564914 164.506066 
L 357.864832 164.928144 
L 358.189812 165.096974 
L 358.514791 165.096974 
L 359.48973 163.746328 
L 359.814709 163.830743 
L 360.139689 164.083989 
L 360.789648 163.999574 
L 361.439607 163.915158 
L 361.764586 164.25282 
L 362.414545 164.337236 
L 362.739525 163.915158 
L 363.064505 163.830743 
L 363.714464 164.168405 
L 365.014382 163.915158 
L 365.339361 164.25282 
L 365.98932 163.830743 
L 366.3143 163.493081 
L 366.639279 163.32425 
L 366.964259 163.408666 
L 367.614218 163.15542 
L 367.939197 162.986589 
L 368.264177 163.15542 
L 368.589156 163.493081 
L 368.914136 163.999574 
L 369.239115 164.083989 
L 369.564095 163.830743 
L 369.889075 163.408666 
L 370.214054 163.239835 
L 370.864013 163.493081 
L 371.188993 163.408666 
L 371.838952 162.648927 
L 372.163931 162.564512 
L 372.488911 162.648927 
L 372.81389 163.071004 
L 373.788829 163.408666 
L 374.113808 163.830743 
L 374.438788 163.915158 
L 374.763767 163.746328 
L 375.738706 162.648927 
L 376.063686 162.564512 
L 376.713645 162.648927 
L 377.038624 162.648927 
L 378.013563 163.746328 
L 378.663522 163.661912 
L 378.988501 163.408666 
L 379.63846 163.15542 
L 380.613399 161.804773 
L 380.938378 161.804773 
L 381.263358 161.973604 
L 381.913317 162.986589 
L 382.888256 163.32425 
L 383.538215 164.168405 
L 383.863194 164.083989 
L 384.188174 163.32425 
L 384.838133 162.733343 
L 385.163112 162.480096 
L 385.813071 162.395681 
L 386.138051 162.058019 
L 386.46303 161.889188 
L 386.78801 162.22685 
L 387.437969 163.32425 
L 387.762948 163.493081 
L 388.412907 162.817758 
L 388.737887 162.311265 
L 389.062867 162.142435 
L 389.387846 162.142435 
L 390.037805 161.720357 
L 390.687764 161.29828 
L 391.012744 161.720357 
L 391.337723 162.648927 
L 391.662703 163.239835 
L 391.987682 163.408666 
L 392.312662 163.15542 
L 392.637641 162.648927 
L 392.962621 162.564512 
L 393.61258 162.733343 
L 394.262539 161.804773 
L 394.587518 161.213865 
L 394.912498 160.876203 
L 395.237477 160.876203 
L 395.887437 161.889188 
L 396.537396 162.986589 
L 396.862375 162.902173 
L 397.187355 162.480096 
L 397.512334 162.311265 
L 397.837314 162.648927 
L 398.162293 163.15542 
L 398.487273 163.239835 
L 398.487273 163.239835 
" clip-path="url(#pf00dbc0d7d)" style="fill: none; stroke: #1f77b4; stroke-width: 1.5; stroke-linecap: square"/>
   </g>
   <g id="line2d_13">
    <path d="M 73.832727 291.179842 
L 398.487273 291.162959 
L 398.487273 291.162959 
" clip-path="url(#pf00dbc0d7d)" style="fill: none; stroke: #ff7f0e; stroke-width: 1.5; stroke-linecap: square"/>
   </g>
   <g id="line2d_14">
    <path d="M 73.832727 54.49657 
L 74.482686 54.074493 
L 75.132645 54.327739 
L 75.457625 54.327739 
L 75.782604 53.905662 
L 76.107584 53.736831 
L 76.432563 53.821246 
L 77.082523 54.49657 
L 77.407502 54.580985 
L 77.732482 54.327739 
L 78.70742 54.749816 
L 79.0324 54.6654 
L 80.007338 53.990077 
L 81.632236 54.412154 
L 82.282195 55.256308 
L 82.607174 55.256308 
L 82.932154 55.003062 
L 83.257133 54.49657 
L 83.907093 54.074493 
L 84.232072 54.074493 
L 84.557052 54.243323 
L 84.882031 54.158908 
L 85.207011 54.327739 
L 85.53199 54.243323 
L 86.181949 54.6654 
L 86.831908 54.6654 
L 87.806847 55.171893 
L 88.456806 54.749816 
L 88.781785 54.49657 
L 89.106765 54.074493 
L 89.431744 53.905662 
L 89.756724 54.074493 
L 90.081704 54.074493 
L 90.406683 54.412154 
L 90.731663 54.412154 
L 91.056642 54.918647 
L 91.706601 55.340724 
L 93.006519 54.412154 
L 93.331499 54.243323 
L 94.306437 54.412154 
L 94.631417 54.412154 
L 94.956396 54.580985 
L 95.606355 54.412154 
L 95.931335 54.158908 
L 96.256314 54.074493 
L 96.581294 54.243323 
L 97.231253 54.834231 
L 97.556233 54.834231 
L 98.531171 54.327739 
L 99.18113 54.580985 
L 99.50611 54.243323 
L 99.831089 54.074493 
L 100.156069 54.327739 
L 100.806028 55.171893 
L 101.131007 55.171893 
L 101.455987 54.918647 
L 102.105946 54.243323 
L 102.430925 54.243323 
L 102.755905 54.49657 
L 103.080885 54.580985 
L 103.730844 54.327739 
L 104.380803 55.003062 
L 104.705782 55.003062 
L 105.680721 53.821246 
L 106.0057 54.074493 
L 106.33068 54.49657 
L 106.655659 54.6654 
L 107.305618 53.990077 
L 107.630598 54.074493 
L 108.280557 54.834231 
L 108.605536 54.6654 
L 108.930516 53.990077 
L 109.255495 53.905662 
L 109.905455 55.003062 
L 110.230434 55.003062 
L 110.880393 53.990077 
L 111.205373 54.158908 
L 111.855332 55.003062 
L 112.83027 54.49657 
L 113.480229 54.834231 
L 113.805209 54.834231 
L 114.130188 54.49657 
L 114.455168 54.412154 
L 115.105127 54.749816 
L 115.755086 54.6654 
L 116.080066 54.327739 
L 116.405045 54.327739 
L 117.055004 54.6654 
L 117.704963 54.6654 
L 118.029943 54.49657 
L 118.354922 54.49657 
L 119.004881 54.749816 
L 119.329861 54.6654 
L 120.304799 54.834231 
L 121.279738 54.412154 
L 121.929697 54.412154 
L 122.254676 54.749816 
L 122.579656 54.749816 
L 122.904636 55.087478 
L 123.554595 54.918647 
L 123.879574 54.6654 
L 124.529533 54.580985 
L 125.179492 54.749816 
L 125.829451 54.580985 
L 126.80439 55.003062 
L 127.129369 54.580985 
L 127.779328 54.327739 
L 128.104308 54.580985 
L 128.754267 54.49657 
L 129.079247 54.327739 
L 130.054185 54.749816 
L 130.379165 54.6654 
L 130.704144 54.412154 
L 131.029124 54.327739 
L 131.354103 54.580985 
L 131.679083 54.580985 
L 132.329042 54.074493 
L 132.654021 54.158908 
L 132.979001 54.412154 
L 133.30398 54.834231 
L 133.62896 54.834231 
L 135.253857 54.074493 
L 135.903817 54.074493 
L 136.878755 54.749816 
L 137.528714 54.412154 
L 137.853694 54.749816 
L 138.503653 54.749816 
L 138.828632 54.412154 
L 139.153612 53.905662 
L 139.478591 53.905662 
L 140.45353 54.327739 
L 141.103489 54.412154 
L 141.753448 54.749816 
L 142.078428 54.749816 
L 142.728387 54.327739 
L 143.378346 54.580985 
L 143.703325 54.49657 
L 144.028305 54.158908 
L 144.353284 53.990077 
L 145.003243 54.327739 
L 145.653202 54.243323 
L 146.303161 54.158908 
L 146.628141 54.243323 
L 146.95312 54.49657 
L 147.603079 54.49657 
L 147.928059 54.327739 
L 148.578018 54.580985 
L 149.227977 54.6654 
L 150.202916 54.6654 
L 150.527895 54.412154 
L 150.852875 54.412154 
L 151.177854 54.6654 
L 151.502834 54.749816 
L 152.152793 54.6654 
L 153.452711 54.580985 
L 153.77769 54.327739 
L 154.427649 54.074493 
L 155.077609 54.327739 
L 155.402588 54.243323 
L 155.727568 53.905662 
L 156.052547 53.905662 
L 156.702506 54.580985 
L 157.027486 54.749816 
L 157.352465 54.580985 
L 157.677445 54.243323 
L 158.002424 54.074493 
L 158.327404 54.243323 
L 158.652383 54.580985 
L 158.977363 54.412154 
L 159.302342 54.074493 
L 159.627322 53.990077 
L 159.952301 54.074493 
L 160.277281 54.49657 
L 160.60226 54.6654 
L 161.252219 54.327739 
L 162.552138 54.6654 
L 163.527076 53.905662 
L 163.852056 53.905662 
L 164.502015 54.158908 
L 165.151974 53.736831 
L 165.476953 53.821246 
L 165.801933 54.158908 
L 166.126912 54.243323 
L 166.776871 53.990077 
L 167.101851 53.821246 
L 167.42683 54.074493 
L 167.75181 54.6654 
L 168.07679 54.834231 
L 168.401769 54.6654 
L 168.726749 54.074493 
L 169.376708 54.327739 
L 169.701687 54.580985 
L 170.026667 54.412154 
L 170.676626 53.736831 
L 171.326585 54.158908 
L 171.651564 54.49657 
L 171.976544 54.6654 
L 172.301523 54.49657 
L 172.626503 54.49657 
L 173.276462 54.834231 
L 173.601441 54.834231 
L 174.2514 54.158908 
L 174.57638 53.990077 
L 176.201278 54.412154 
L 176.526257 54.6654 
L 176.851237 55.087478 
L 177.176216 55.256308 
L 177.501196 55.003062 
L 178.151155 54.327739 
L 178.476134 54.243323 
L 178.801114 54.327739 
L 179.126093 54.243323 
L 179.451073 54.327739 
L 179.776052 54.243323 
L 180.750991 54.6654 
L 181.40095 54.834231 
L 181.72593 54.749816 
L 182.700868 55.171893 
L 183.675807 54.243323 
L 184.325766 53.990077 
L 184.650745 53.990077 
L 184.975725 54.158908 
L 185.950663 55.087478 
L 186.275643 55.340724 
L 186.600622 55.256308 
L 187.250581 54.580985 
L 187.900541 54.243323 
L 188.22552 54.243323 
L 189.200459 54.749816 
L 189.525438 54.580985 
L 189.850418 54.580985 
L 190.175397 54.327739 
L 190.500377 54.327739 
L 190.825356 54.158908 
L 191.150336 54.243323 
L 191.800295 54.834231 
L 192.125274 54.834231 
L 193.100213 54.412154 
L 194.725111 54.327739 
L 195.37507 55.003062 
L 195.700049 55.256308 
L 196.350008 54.6654 
L 196.674988 54.243323 
L 197.974906 54.49657 
L 198.299885 54.412154 
L 198.624865 54.580985 
L 198.949844 54.918647 
L 199.274824 55.087478 
L 199.599803 54.918647 
L 199.924783 54.074493 
L 200.249762 53.905662 
L 200.574742 53.990077 
L 200.899722 54.6654 
L 201.224701 54.834231 
L 201.87466 53.905662 
L 202.19964 53.990077 
L 202.849599 54.918647 
L 203.174578 54.749816 
L 203.499558 54.158908 
L 203.824537 53.905662 
L 204.474496 55.171893 
L 204.799476 55.256308 
L 205.449435 54.074493 
L 205.774414 53.990077 
L 206.424373 55.003062 
L 206.749353 55.003062 
L 207.074333 54.6654 
L 207.724292 54.6654 
L 208.049271 54.834231 
L 208.374251 54.834231 
L 209.02421 54.49657 
L 209.999148 54.834231 
L 210.324128 54.49657 
L 210.649107 54.49657 
L 210.974087 54.327739 
L 211.624046 54.580985 
L 212.274005 54.6654 
L 212.598984 54.49657 
L 213.248943 54.580985 
L 213.898903 54.6654 
L 214.873841 54.749816 
L 215.198821 54.834231 
L 215.5238 54.412154 
L 215.84878 54.243323 
L 216.173759 54.243323 
L 216.823718 54.6654 
L 217.148698 54.834231 
L 218.123636 54.834231 
L 219.098575 54.412154 
L 219.423554 54.412154 
L 219.748534 54.580985 
L 220.723473 54.6654 
L 221.048452 54.834231 
L 221.698411 54.6654 
L 222.023391 54.327739 
L 222.67335 54.412154 
L 222.998329 54.49657 
L 223.648288 54.412154 
L 224.948206 54.749816 
L 225.273186 54.49657 
L 225.598165 54.49657 
L 225.923145 54.327739 
L 226.248124 54.412154 
L 226.573104 54.243323 
L 227.223063 54.243323 
L 228.198002 54.918647 
L 229.17294 54.243323 
L 230.147879 54.074493 
L 230.472858 54.074493 
L 231.122817 54.49657 
L 231.447797 54.580985 
L 232.097756 54.49657 
L 232.747715 54.834231 
L 233.397674 54.412154 
L 233.722654 53.905662 
L 234.372613 53.990077 
L 235.672531 54.412154 
L 235.99751 54.6654 
L 236.647469 54.749816 
L 237.297428 54.327739 
L 237.622408 54.412154 
L 237.947387 54.6654 
L 238.272367 54.580985 
L 238.922326 53.990077 
L 239.572285 54.49657 
L 240.872203 54.074493 
L 241.197183 54.327739 
L 241.847142 54.49657 
L 242.497101 54.412154 
L 242.82208 54.412154 
L 243.472039 54.6654 
L 243.797019 54.749816 
L 244.121998 54.580985 
L 244.771957 54.580985 
L 245.096937 54.412154 
L 245.421916 54.412154 
L 245.746896 54.6654 
L 246.396855 54.749816 
L 247.371794 54.580985 
L 248.021753 54.49657 
L 248.671712 54.158908 
L 249.321671 54.158908 
L 249.64665 54.327739 
L 249.97163 54.243323 
L 250.296609 53.905662 
L 250.621589 53.905662 
L 250.946568 54.158908 
L 251.596527 54.834231 
L 252.571466 53.990077 
L 252.896446 54.327739 
L 253.221425 54.49657 
L 253.546405 54.412154 
L 254.196364 53.905662 
L 254.521343 53.990077 
L 255.171302 54.6654 
L 255.821261 54.243323 
L 257.121179 54.49657 
L 257.446159 54.412154 
L 257.771138 53.990077 
L 258.421097 54.074493 
L 259.071057 54.158908 
L 259.721016 53.568 
L 260.045995 53.652415 
L 260.370975 54.074493 
L 260.695954 54.243323 
L 261.020934 54.243323 
L 261.670893 53.905662 
L 262.645831 54.749816 
L 262.970811 54.580985 
L 263.29579 54.243323 
L 263.62077 54.074493 
L 263.945749 54.074493 
L 264.270729 54.412154 
L 264.595708 54.49657 
L 264.920688 53.990077 
L 265.245667 53.736831 
L 265.570647 53.821246 
L 266.545586 54.580985 
L 267.195545 54.49657 
L 267.520524 54.49657 
L 267.845504 54.749816 
L 268.170483 54.749816 
L 268.495463 54.49657 
L 268.820442 54.074493 
L 269.145422 53.905662 
L 269.795381 54.327739 
L 270.12036 54.074493 
L 270.770319 54.327739 
L 271.745258 55.340724 
L 272.720197 54.243323 
L 273.370156 54.074493 
L 273.695135 54.243323 
L 274.670074 54.327739 
L 274.995053 54.49657 
L 275.645012 54.580985 
L 275.969992 54.749816 
L 276.294971 54.6654 
L 276.94493 55.003062 
L 277.26991 55.003062 
L 277.594889 54.834231 
L 278.244848 54.158908 
L 278.569828 53.905662 
L 279.544767 54.243323 
L 280.844685 55.171893 
L 281.169664 55.171893 
L 281.819623 54.49657 
L 282.794562 54.327739 
L 283.119541 54.327739 
L 283.444521 54.49657 
L 283.7695 54.412154 
L 284.419459 54.49657 
L 284.744439 54.49657 
L 285.719378 54.074493 
L 286.369337 54.834231 
L 286.694316 54.918647 
L 287.019296 54.6654 
L 287.344275 54.6654 
L 287.669255 54.49657 
L 287.994234 54.6654 
L 288.644193 54.412154 
L 288.969173 54.327739 
L 289.294152 54.412154 
L 289.619132 54.6654 
L 290.269091 55.340724 
L 290.59407 55.171893 
L 290.91905 54.580985 
L 291.244029 54.243323 
L 292.543948 54.49657 
L 293.193907 54.580985 
L 293.518886 54.749816 
L 293.843866 55.087478 
L 294.168845 54.834231 
L 294.818804 53.821246 
L 295.143784 53.990077 
L 295.468763 54.6654 
L 295.793743 54.918647 
L 296.443702 54.074493 
L 296.768681 53.990077 
L 297.41864 54.749816 
L 297.74362 54.749816 
L 298.0686 54.243323 
L 298.393579 53.990077 
L 298.718559 54.243323 
L 299.043538 54.918647 
L 299.368518 55.087478 
L 299.693497 54.749816 
L 300.018477 53.990077 
L 300.343456 53.990077 
L 300.993415 54.834231 
L 301.318395 54.834231 
L 301.968354 54.412154 
L 302.293333 54.412154 
L 302.943292 54.749816 
L 303.268272 54.49657 
L 303.918231 54.243323 
L 304.24321 54.49657 
L 304.56819 54.580985 
L 305.543129 54.074493 
L 306.193088 54.49657 
L 307.168026 54.412154 
L 307.493006 54.327739 
L 307.817985 54.412154 
L 308.142965 54.6654 
L 308.467944 54.580985 
L 309.442883 54.749816 
L 310.417821 54.243323 
L 311.067781 54.327739 
L 311.39276 54.6654 
L 311.71774 54.6654 
L 312.042719 54.834231 
L 312.692678 54.749816 
L 313.342637 54.49657 
L 314.967535 54.580985 
L 315.292514 54.749816 
L 316.267453 54.6654 
L 316.917412 54.327739 
L 317.567371 54.580985 
L 318.21733 54.243323 
L 319.192269 54.749816 
L 320.167207 54.327739 
L 320.817166 54.49657 
L 321.792105 54.327739 
L 322.117084 54.327739 
L 322.442064 54.6654 
L 322.767043 54.834231 
L 323.741982 54.412154 
L 325.0419 54.074493 
L 325.36688 54.243323 
L 325.691859 54.580985 
L 326.016839 54.6654 
L 326.341818 54.580985 
L 327.641736 54.834231 
L 327.966716 54.49657 
L 328.291695 53.905662 
L 328.616675 53.821246 
L 329.591613 54.327739 
L 329.916593 54.158908 
L 330.566552 54.49657 
L 330.891532 54.834231 
L 331.541491 54.580985 
L 331.86647 54.327739 
L 332.841409 54.49657 
L 333.816347 54.074493 
L 334.141327 54.327739 
L 334.791286 54.412154 
L 335.116265 54.074493 
L 335.441245 54.074493 
L 336.416183 54.49657 
L 338.041081 54.580985 
L 338.366061 54.834231 
L 339.01602 54.580985 
L 339.665979 54.412154 
L 340.965897 54.6654 
L 342.265815 54.6654 
L 343.240753 54.158908 
L 344.540672 54.243323 
L 344.865651 53.990077 
L 345.51561 54.074493 
L 346.165569 54.918647 
L 346.490549 54.749816 
L 346.815528 54.412154 
L 347.140508 54.243323 
L 347.790467 54.6654 
L 348.440426 54.327739 
L 348.765405 53.990077 
L 349.090385 54.074493 
L 349.740344 54.749816 
L 350.065324 54.749816 
L 350.715283 54.327739 
L 351.690221 54.749816 
L 352.015201 54.580985 
L 352.34018 54.243323 
L 352.66516 54.158908 
L 352.990139 54.243323 
L 353.965078 53.990077 
L 354.290057 53.736831 
L 354.615037 53.821246 
L 355.264996 54.412154 
L 355.589975 54.412154 
L 355.914955 54.074493 
L 356.239934 53.905662 
L 356.564914 53.990077 
L 356.889894 54.580985 
L 357.214873 54.834231 
L 357.539853 54.6654 
L 357.864832 54.327739 
L 358.514791 54.243323 
L 359.16475 54.49657 
L 359.814709 53.821246 
L 360.139689 53.821246 
L 360.789648 54.49657 
L 361.764586 54.49657 
L 362.414545 54.749816 
L 362.739525 54.749816 
L 363.714464 53.990077 
L 364.364423 54.243323 
L 365.014382 54.074493 
L 365.339361 54.243323 
L 365.98932 55.171893 
L 366.3143 55.256308 
L 366.639279 55.003062 
L 367.289238 54.243323 
L 367.614218 54.074493 
L 367.939197 54.243323 
L 369.239115 54.327739 
L 369.564095 54.49657 
L 370.214054 54.580985 
L 371.838952 55.003062 
L 372.163931 54.918647 
L 372.488911 54.6654 
L 373.13887 53.990077 
L 374.113808 54.074493 
L 374.438788 54.327739 
L 374.763767 54.834231 
L 375.413726 55.256308 
L 376.063686 55.003062 
L 376.713645 54.327739 
L 377.363604 54.243323 
L 377.688583 54.412154 
L 378.663522 54.49657 
L 378.988501 54.580985 
L 379.313481 54.327739 
L 380.288419 54.158908 
L 381.263358 54.918647 
L 381.588337 54.918647 
L 381.913317 54.49657 
L 382.238296 54.412154 
L 382.888256 54.49657 
L 383.213235 54.243323 
L 383.538215 54.158908 
L 383.863194 54.327739 
L 384.838133 55.256308 
L 385.163112 55.087478 
L 385.813071 54.243323 
L 386.46303 54.412154 
L 386.78801 54.6654 
L 387.112989 54.49657 
L 387.762948 54.49657 
L 388.412907 55.087478 
L 388.737887 55.003062 
L 389.387846 53.905662 
L 389.712826 53.905662 
L 390.037805 54.580985 
L 390.362785 54.918647 
L 390.687764 54.6654 
L 391.012744 53.990077 
L 391.337723 54.074493 
L 391.662703 54.412154 
L 391.987682 55.003062 
L 392.312662 54.834231 
L 392.962621 53.905662 
L 393.937559 55.087478 
L 394.262539 54.834231 
L 394.587518 54.243323 
L 394.912498 53.905662 
L 395.562457 54.918647 
L 395.887437 54.918647 
L 396.537396 54.49657 
L 397.187355 54.918647 
L 397.512334 54.749816 
L 397.837314 54.749816 
L 398.162293 54.412154 
L 398.487273 54.580985 
L 398.487273 54.580985 
" clip-path="url(#pf00dbc0d7d)" style="fill: none; stroke: #2ca02c; stroke-width: 1.5; stroke-linecap: square"/>
   </g>
   <g id="line2d_15">
    <path d="M 73.832727 295.403585 
L 78.057461 295.395143 
L 82.282195 295.395143 
L 85.53199 295.420468 
L 398.487273 295.420468 
L 398.487273 295.420468 
" clip-path="url(#pf00dbc0d7d)" style="fill: none; stroke: #d62728; stroke-width: 1.5; stroke-linecap: square"/>
   </g>
   <g id="patch_3">
    <path d="M 57.6 307.584 
L 57.6 41.472 
" style="fill: none; stroke: #000000; stroke-width: 0.8; stroke-linejoin: miter; stroke-linecap: square"/>
   </g>
   <g id="patch_4">
    <path d="M 414.72 307.584 
L 414.72 41.472 
" style="fill: none; stroke: #000000; stroke-width: 0.8; stroke-linejoin: miter; stroke-linecap: square"/>
   </g>
   <g id="patch_5">
    <path d="M 57.6 307.584 
L 414.72 307.584 
" style="fill: none; stroke: #000000; stroke-width: 0.8; stroke-linejoin: miter; stroke-linecap: square"/>
   </g>
   <g id="patch_6">
    <path d="M 57.6 41.472 
L 414.72 41.472 
" style="fill: none; stroke: #000000; stroke-width: 0.8; stroke-linejoin: miter; stroke-linecap: square"/>
   </g>
  </g>
 </g>
 <defs>
  <clipPath id="pf00dbc0d7d">
   <rect x="57.6" y="41.472" width="357.12" height="266.112"/>
  </clipPath>
 </defs>
</svg>
