<?xml version="1.0" encoding="utf-8" standalone="no"?>
<!DOCTYPE svg PUBLIC "-//W3C//DTD SVG 1.1//EN"
  "http://www.w3.org/Graphics/SVG/1.1/DTD/svg11.dtd">
<svg xmlns:xlink="http://www.w3.org/1999/xlink" width="460.8pt" height="345.6pt" viewBox="0 0 460.8 345.6" xmlns="http://www.w3.org/2000/svg" version="1.1">
 <metadata>
  <rdf:RDF xmlns:dc="http://purl.org/dc/elements/1.1/" xmlns:cc="http://creativecommons.org/ns#" xmlns:rdf="http://www.w3.org/1999/02/22-rdf-syntax-ns#">
   <cc:Work>
    <dc:type rdf:resource="http://purl.org/dc/dcmitype/StillImage"/>
    <dc:date>2025-12-26T15:10:27.383498</dc:date>
    <dc:format>image/svg+xml</dc:format>
    <dc:creator>
     <cc:Agent>
      <dc:title>Matplotlib v3.10.8, https://matplotlib.org/</dc:title>
     </cc:Agent>
    </dc:creator>
   </cc:Work>
  </rdf:RDF>
 </metadata>
 <defs>
  <style type="text/css">*{stroke-linejoin: round; stroke-linecap: butt}</style>
 </defs>
 <g id="figure_1">
  <g id="patch_1">
   <path d="M 0 345.6 
L 460.8 345.6 
L 460.8 0 
L 0 0 
z
" style="fill: #ffffff"/>
  </g>
  <g id="axes_1">
   <g id="patch_2">
    <path d="M 57.6 307.584 
L 414.72 307.584 
L 414.72 41.472 
L 57.6 41.472 
z
" style="fill: #ffffff"/>
   </g>
   <g id="matplotlib.axis_1">
    <g id="xtick_1">
     <g id="line2d_1">
      <defs>
       <path id="m1c5d3a809e" d="M 0 0 
L 0 3.5 
" style="stroke: #000000; stroke-width: 0.8"/>
      </defs>
      <g>
       <use xlink:href="#m1c5d3a809e" x="73.832727" y="307.584" style="stroke: #000000; stroke-width: 0.8"/>
      </g>
     </g>
     <g id="text_1">
      <!-- 0 -->
      <g transform="translate(70.651477 322.182437) scale(0.1 -0.1)">
       <defs>
        <path id="DejaVuSans-30" d="M 2034 4250 
Q 1547 4250 1301 3770 
Q 1056 3291 1056 2328 
Q 1056 1369 1301 889 
Q 1547 409 2034 409 
Q 2525 409 2770 889 
Q 3016 1369 3016 2328 
Q 3016 3291 2770 3770 
Q 2525 4250 2034 4250 
z
M 2034 4750 
Q 2819 4750 3233 4129 
Q 3647 3509 3647 2328 
Q 3647 1150 3233 529 
Q 2819 -91 2034 -91 
Q 1250 -91 836 529 
Q 422 1150 422 2328 
Q 422 3509 836 4129 
Q 1250 4750 2034 4750 
z
" transform="scale(0.015625)"/>
       </defs>
       <use xlink:href="#DejaVuSans-30"/>
      </g>
     </g>
    </g>
    <g id="xtick_2">
     <g id="line2d_2">
      <g>
       <use xlink:href="#m1c5d3a809e" x="138.828632" y="307.584" style="stroke: #000000; stroke-width: 0.8"/>
      </g>
     </g>
     <g id="text_2">
      <!-- 1 -->
      <g transform="translate(135.647382 322.182437) scale(0.1 -0.1)">
       <defs>
        <path id="DejaVuSans-31" d="M 794 531 
L 1825 531 
L 1825 4091 
L 703 3866 
L 703 4441 
L 1819 4666 
L 2450 4666 
L 2450 531 
L 3481 531 
L 3481 0 
L 794 0 
L 794 531 
z
" transform="scale(0.015625)"/>
       </defs>
       <use xlink:href="#DejaVuSans-31"/>
      </g>
     </g>
    </g>
    <g id="xtick_3">
     <g id="line2d_3">
      <g>
       <use xlink:href="#m1c5d3a809e" x="203.824537" y="307.584" style="stroke: #000000; stroke-width: 0.8"/>
      </g>
     </g>
     <g id="text_3">
      <!-- 2 -->
      <g transform="translate(200.643287 322.182437) scale(0.1 -0.1)">
       <defs>
        <path id="DejaVuSans-32" d="M 1228 531 
L 3431 531 
L 3431 0 
L 469 0 
L 469 531 
Q 828 903 1448 1529 
Q 2069 2156 2228 2338 
Q 2531 2678 2651 2914 
Q 2772 3150 2772 3378 
Q 2772 3750 2511 3984 
Q 2250 4219 1831 4219 
Q 1534 4219 1204 4116 
Q 875 4013 500 3803 
L 500 4441 
Q 881 4594 1212 4672 
Q 1544 4750 1819 4750 
Q 2544 4750 2975 4387 
Q 3406 4025 3406 3419 
Q 3406 3131 3298 2873 
Q 3191 2616 2906 2266 
Q 2828 2175 2409 1742 
Q 1991 1309 1228 531 
z
" transform="scale(0.015625)"/>
       </defs>
       <use xlink:href="#DejaVuSans-32"/>
      </g>
     </g>
    </g>
    <g id="xtick_4">
     <g id="line2d_4">
      <g>
       <use xlink:href="#m1c5d3a809e" x="268.820442" y="307.584" style="stroke: #000000; stroke-width: 0.8"/>
      </g>
     </g>
     <g id="text_4">
      <!-- 3 -->
      <g transform="translate(265.639192 322.182437) scale(0.1 -0.1)">
       <defs>
        <path id="DejaVuSans-33" d="M 2597 2516 
Q 3050 2419 3304 2112 
Q 3559 1806 3559 1356 
Q 3559 666 3084 287 
Q 2609 -91 1734 -91 
Q 1441 -91 1130 -33 
Q 819 25 488 141 
L 488 750 
Q 750 597 1062 519 
Q 1375 441 1716 441 
Q 2309 441 2620 675 
Q 2931 909 2931 1356 
Q 2931 1769 2642 2001 
Q 2353 2234 1838 2234 
L 1294 2234 
L 1294 2753 
L 1863 2753 
Q 2328 2753 2575 2939 
Q 2822 3125 2822 3475 
Q 2822 3834 2567 4026 
Q 2313 4219 1838 4219 
Q 1578 4219 1281 4162 
Q 984 4106 628 3988 
L 628 4550 
Q 988 4650 1302 4700 
Q 1616 4750 1894 4750 
Q 2613 4750 3031 4423 
Q 3450 4097 3450 3541 
Q 3450 3153 3228 2886 
Q 3006 2619 2597 2516 
z
" transform="scale(0.015625)"/>
       </defs>
       <use xlink:href="#DejaVuSans-33"/>
      </g>
     </g>
    </g>
    <g id="xtick_5">
     <g id="line2d_5">
      <g>
       <use xlink:href="#m1c5d3a809e" x="333.816347" y="307.584" style="stroke: #000000; stroke-width: 0.8"/>
      </g>
     </g>
     <g id="text_5">
      <!-- 4 -->
      <g transform="translate(330.635097 322.182437) scale(0.1 -0.1)">
       <defs>
        <path id="DejaVuSans-34" d="M 2419 4116 
L 825 1625 
L 2419 1625 
L 2419 4116 
z
M 2253 4666 
L 3047 4666 
L 3047 1625 
L 3713 1625 
L 3713 1100 
L 3047 1100 
L 3047 0 
L 2419 0 
L 2419 1100 
L 313 1100 
L 313 1709 
L 2253 4666 
z
" transform="scale(0.015625)"/>
       </defs>
       <use xlink:href="#DejaVuSans-34"/>
      </g>
     </g>
    </g>
    <g id="xtick_6">
     <g id="line2d_6">
      <g>
       <use xlink:href="#m1c5d3a809e" x="398.812252" y="307.584" style="stroke: #000000; stroke-width: 0.8"/>
      </g>
     </g>
     <g id="text_6">
      <!-- 5 -->
      <g transform="translate(395.631002 322.182437) scale(0.1 -0.1)">
       <defs>
        <path id="DejaVuSans-35" d="M 691 4666 
L 3169 4666 
L 3169 4134 
L 1269 4134 
L 1269 2991 
Q 1406 3038 1543 3061 
Q 1681 3084 1819 3084 
Q 2600 3084 3056 2656 
Q 3513 2228 3513 1497 
Q 3513 744 3044 326 
Q 2575 -91 1722 -91 
Q 1428 -91 1123 -41 
Q 819 9 494 109 
L 494 744 
Q 775 591 1075 516 
Q 1375 441 1709 441 
Q 2250 441 2565 725 
Q 2881 1009 2881 1497 
Q 2881 1984 2565 2268 
Q 2250 2553 1709 2553 
Q 1456 2553 1204 2497 
Q 953 2441 691 2322 
L 691 4666 
z
" transform="scale(0.015625)"/>
       </defs>
       <use xlink:href="#DejaVuSans-35"/>
      </g>
     </g>
    </g>
    <g id="text_7">
     <!-- 1e−7 -->
     <g transform="translate(387.462188 334.860562) scale(0.1 -0.1)">
      <defs>
       <path id="DejaVuSans-65" d="M 3597 1894 
L 3597 1613 
L 953 1613 
Q 991 1019 1311 708 
Q 1631 397 2203 397 
Q 2534 397 2845 478 
Q 3156 559 3463 722 
L 3463 178 
Q 3153 47 2828 -22 
Q 2503 -91 2169 -91 
Q 1331 -91 842 396 
Q 353 884 353 1716 
Q 353 2575 817 3079 
Q 1281 3584 2069 3584 
Q 2775 3584 3186 3129 
Q 3597 2675 3597 1894 
z
M 3022 2063 
Q 3016 2534 2758 2815 
Q 2500 3097 2075 3097 
Q 1594 3097 1305 2825 
Q 1016 2553 972 2059 
L 3022 2063 
z
" transform="scale(0.015625)"/>
       <path id="DejaVuSans-2212" d="M 678 2272 
L 4684 2272 
L 4684 1741 
L 678 1741 
L 678 2272 
z
" transform="scale(0.015625)"/>
       <path id="DejaVuSans-37" d="M 525 4666 
L 3525 4666 
L 3525 4397 
L 1831 0 
L 1172 0 
L 2766 4134 
L 525 4134 
L 525 4666 
z
" transform="scale(0.015625)"/>
      </defs>
      <use xlink:href="#DejaVuSans-31"/>
      <use xlink:href="#DejaVuSans-65" transform="translate(63.623047 0)"/>
      <use xlink:href="#DejaVuSans-2212" transform="translate(125.146484 0)"/>
      <use xlink:href="#DejaVuSans-37" transform="translate(208.935547 0)"/>
     </g>
    </g>
   </g>
   <g id="matplotlib.axis_2">
    <g id="ytick_1">
     <g id="line2d_7">
      <defs>
       <path id="mee75032382" d="M 0 0 
L -3.5 0 
" style="stroke: #000000; stroke-width: 0.8"/>
      </defs>
      <g>
       <use xlink:href="#mee75032382" x="57.6" y="290.905732" style="stroke: #000000; stroke-width: 0.8"/>
      </g>
     </g>
     <g id="text_8">
      <!-- −200 -->
      <g transform="translate(23.132812 294.70495) scale(0.1 -0.1)">
       <use xlink:href="#DejaVuSans-2212"/>
       <use xlink:href="#DejaVuSans-32" transform="translate(83.789062 0)"/>
       <use xlink:href="#DejaVuSans-30" transform="translate(147.412109 0)"/>
       <use xlink:href="#DejaVuSans-30" transform="translate(211.035156 0)"/>
      </g>
     </g>
    </g>
    <g id="ytick_2">
     <g id="line2d_8">
      <g>
       <use xlink:href="#mee75032382" x="57.6" y="233.983373" style="stroke: #000000; stroke-width: 0.8"/>
      </g>
     </g>
     <g id="text_9">
      <!-- −100 -->
      <g transform="translate(23.132812 237.782592) scale(0.1 -0.1)">
       <use xlink:href="#DejaVuSans-2212"/>
       <use xlink:href="#DejaVuSans-31" transform="translate(83.789062 0)"/>
       <use xlink:href="#DejaVuSans-30" transform="translate(147.412109 0)"/>
       <use xlink:href="#DejaVuSans-30" transform="translate(211.035156 0)"/>
      </g>
     </g>
    </g>
    <g id="ytick_3">
     <g id="line2d_9">
      <g>
       <use xlink:href="#mee75032382" x="57.6" y="177.061014" style="stroke: #000000; stroke-width: 0.8"/>
      </g>
     </g>
     <g id="text_10">
      <!-- 0 -->
      <g transform="translate(44.2375 180.860233) scale(0.1 -0.1)">
       <use xlink:href="#DejaVuSans-30"/>
      </g>
     </g>
    </g>
    <g id="ytick_4">
     <g id="line2d_10">
      <g>
       <use xlink:href="#mee75032382" x="57.6" y="120.138655" style="stroke: #000000; stroke-width: 0.8"/>
      </g>
     </g>
     <g id="text_11">
      <!-- 100 -->
      <g transform="translate(31.5125 123.937874) scale(0.1 -0.1)">
       <use xlink:href="#DejaVuSans-31"/>
       <use xlink:href="#DejaVuSans-30" transform="translate(63.623047 0)"/>
       <use xlink:href="#DejaVuSans-30" transform="translate(127.246094 0)"/>
      </g>
     </g>
    </g>
    <g id="ytick_5">
     <g id="line2d_11">
      <g>
       <use xlink:href="#mee75032382" x="57.6" y="63.216296" style="stroke: #000000; stroke-width: 0.8"/>
      </g>
     </g>
     <g id="text_12">
      <!-- 200 -->
      <g transform="translate(31.5125 67.015515) scale(0.1 -0.1)">
       <use xlink:href="#DejaVuSans-32"/>
       <use xlink:href="#DejaVuSans-30" transform="translate(63.623047 0)"/>
       <use xlink:href="#DejaVuSans-30" transform="translate(127.246094 0)"/>
      </g>
     </g>
    </g>
   </g>
   <g id="line2d_12">
    <path d="M 73.832727 259.911529 
L 74.157707 267.026824 
L 74.807666 267.026824 
L 75.457625 274.142118 
L 75.782604 270.584471 
L 76.432563 277.699765 
L 77.732482 277.699765 
L 78.057461 288.372706 
L 78.70742 281.257412 
L 79.0324 291.930353 
L 79.357379 291.930353 
L 79.682359 288.372706 
L 80.007338 291.930353 
L 80.657297 291.930353 
L 80.982277 288.372706 
L 81.632236 295.488 
L 81.957215 291.930353 
L 82.282195 291.930353 
L 82.607174 295.488 
L 82.932154 291.930353 
L 83.257133 295.488 
L 83.907093 288.372706 
L 84.232072 288.372706 
L 84.557052 291.930353 
L 85.53199 291.930353 
L 85.85697 288.372706 
L 86.181949 288.372706 
L 86.506929 284.815059 
L 87.156888 284.815059 
L 87.481867 281.257412 
L 87.806847 281.257412 
L 88.131826 274.142118 
L 88.456806 281.257412 
L 89.106765 274.142118 
L 89.431744 274.142118 
L 89.756724 277.699765 
L 90.081704 270.584471 
L 90.731663 270.584471 
L 91.056642 263.469176 
L 91.706601 263.469176 
L 92.031581 259.911529 
L 92.35656 259.911529 
L 92.68154 252.796235 
L 93.006519 256.353882 
L 93.331499 249.238588 
L 93.656478 252.796235 
L 94.306437 245.680941 
L 94.956396 245.680941 
L 95.281376 242.123294 
L 95.606355 242.123294 
L 96.581294 231.450353 
L 96.906274 231.450353 
L 97.231253 235.008 
L 97.556233 227.892706 
L 97.881212 224.335059 
L 98.206192 224.335059 
L 98.531171 220.777412 
L 98.856151 220.777412 
L 99.18113 213.662118 
L 99.50611 210.104471 
L 99.831089 213.662118 
L 100.156069 213.662118 
L 100.481048 206.546824 
L 101.131007 206.546824 
L 101.455987 202.989176 
L 101.780966 202.989176 
L 102.105946 195.873882 
L 102.430925 199.431529 
L 102.755905 199.431529 
L 103.080885 192.316235 
L 103.730844 185.200941 
L 104.055823 188.758588 
L 104.380803 185.200941 
L 104.705782 185.200941 
L 105.030762 181.643294 
L 105.355741 185.200941 
L 106.0057 178.085647 
L 106.33068 181.643294 
L 107.305618 170.970353 
L 107.630598 174.528 
L 107.955577 170.970353 
L 108.280557 163.855059 
L 108.605536 163.855059 
L 108.930516 156.739765 
L 109.255495 163.855059 
L 109.580475 156.739765 
L 109.905455 153.182118 
L 110.555414 153.182118 
L 110.880393 146.066824 
L 111.530352 146.066824 
L 111.855332 138.951529 
L 112.180311 135.393882 
L 112.505291 135.393882 
L 112.83027 131.836235 
L 113.15525 131.836235 
L 113.480229 121.163294 
L 113.805209 121.163294 
L 114.130188 117.605647 
L 114.455168 117.605647 
L 114.780147 114.048 
L 115.105127 106.932706 
L 115.430106 106.932706 
L 115.755086 110.490353 
L 116.080066 99.817412 
L 116.730025 99.817412 
L 117.055004 96.259765 
L 117.379984 89.144471 
L 118.354922 89.144471 
L 118.679902 82.029176 
L 119.004881 82.029176 
L 119.329861 78.471529 
L 119.65484 78.471529 
L 120.304799 71.356235 
L 120.629779 71.356235 
L 120.954758 74.913882 
L 121.279738 71.356235 
L 121.929697 71.356235 
L 122.579656 64.240941 
L 122.904636 64.240941 
L 123.229615 60.683294 
L 123.554595 67.798588 
L 123.879574 60.683294 
L 124.204554 64.240941 
L 124.529533 57.125647 
L 124.854513 60.683294 
L 125.179492 60.683294 
L 125.504472 53.568 
L 126.154431 60.683294 
L 126.47941 57.125647 
L 127.129369 64.240941 
L 127.779328 57.125647 
L 128.104308 60.683294 
L 128.429287 60.683294 
L 128.754267 67.798588 
L 129.079247 64.240941 
L 129.404226 64.240941 
L 129.729206 60.683294 
L 130.054185 67.798588 
L 130.704144 67.798588 
L 131.354103 74.913882 
L 131.679083 71.356235 
L 132.004062 78.471529 
L 132.329042 78.471529 
L 132.654021 74.913882 
L 133.30398 82.029176 
L 133.62896 82.029176 
L 134.278919 89.144471 
L 134.603898 89.144471 
L 134.928878 85.586824 
L 135.253857 96.259765 
L 135.578837 92.702118 
L 135.903817 92.702118 
L 136.228796 96.259765 
L 136.553776 103.375059 
L 136.878755 99.817412 
L 137.528714 106.932706 
L 138.178673 106.932706 
L 138.828632 114.048 
L 139.478591 114.048 
L 139.803571 117.605647 
L 140.12855 117.605647 
L 140.45353 121.163294 
L 140.778509 121.163294 
L 141.103489 124.720941 
L 141.428468 124.720941 
L 141.753448 131.836235 
L 142.078428 128.278588 
L 142.728387 135.393882 
L 143.378346 135.393882 
L 143.703325 138.951529 
L 144.028305 146.066824 
L 145.328223 146.066824 
L 145.653202 153.182118 
L 146.303161 153.182118 
L 146.628141 160.297412 
L 147.603079 160.297412 
L 148.253038 167.412706 
L 148.578018 163.855059 
L 149.227977 170.970353 
L 149.877936 170.970353 
L 150.202916 174.528 
L 150.852875 174.528 
L 151.177854 178.085647 
L 151.502834 178.085647 
L 152.152793 185.200941 
L 152.477772 185.200941 
L 153.127731 192.316235 
L 153.77769 192.316235 
L 154.752629 202.989176 
L 155.077609 202.989176 
L 155.402588 206.546824 
L 155.727568 206.546824 
L 156.052547 217.219765 
L 156.377527 213.662118 
L 156.702506 213.662118 
L 157.352465 227.892706 
L 157.677445 227.892706 
L 158.327404 235.008 
L 158.652383 235.008 
L 159.952301 249.238588 
L 160.277281 249.238588 
L 160.60226 252.796235 
L 160.92724 252.796235 
L 161.252219 259.911529 
L 161.577199 256.353882 
L 161.902179 259.911529 
L 162.227158 267.026824 
L 162.877117 267.026824 
L 163.527076 274.142118 
L 163.852056 274.142118 
L 164.177035 277.699765 
L 164.826994 277.699765 
L 165.151974 281.257412 
L 165.801933 281.257412 
L 166.451892 288.372706 
L 166.776871 284.815059 
L 167.101851 284.815059 
L 167.42683 291.930353 
L 168.401769 291.930353 
L 168.726749 295.488 
L 169.051728 291.930353 
L 169.701687 291.930353 
L 170.026667 295.488 
L 170.351646 291.930353 
L 170.676626 295.488 
L 171.001605 295.488 
L 171.326585 291.930353 
L 171.651564 291.930353 
L 171.976544 288.372706 
L 172.301523 288.372706 
L 172.626503 291.930353 
L 172.951482 291.930353 
L 173.276462 288.372706 
L 173.601441 291.930353 
L 173.926421 291.930353 
L 174.57638 284.815059 
L 175.226339 284.815059 
L 175.876298 277.699765 
L 176.201278 277.699765 
L 176.526257 274.142118 
L 176.851237 277.699765 
L 177.176216 274.142118 
L 177.501196 274.142118 
L 177.826175 270.584471 
L 178.151155 274.142118 
L 178.476134 267.026824 
L 179.126093 267.026824 
L 179.776052 259.911529 
L 180.426011 259.911529 
L 181.075971 252.796235 
L 181.40095 252.796235 
L 181.72593 249.238588 
L 182.050909 249.238588 
L 182.700868 242.123294 
L 183.025848 245.680941 
L 183.675807 238.565647 
L 184.325766 238.565647 
L 184.650745 231.450353 
L 184.975725 227.892706 
L 185.625684 227.892706 
L 186.275643 220.777412 
L 186.600622 220.777412 
L 186.925602 213.662118 
L 187.250581 217.219765 
L 187.900541 210.104471 
L 188.5505 210.104471 
L 189.200459 202.989176 
L 189.525438 202.989176 
L 189.850418 195.873882 
L 190.825356 195.873882 
L 191.150336 192.316235 
L 191.475315 192.316235 
L 191.800295 185.200941 
L 192.775233 185.200941 
L 193.100213 181.643294 
L 193.425192 181.643294 
L 193.750172 185.200941 
L 194.075152 178.085647 
L 194.400131 174.528 
L 194.725111 178.085647 
L 195.700049 167.412706 
L 196.350008 167.412706 
L 197.324947 156.739765 
L 197.649926 156.739765 
L 198.299885 149.624471 
L 198.949844 149.624471 
L 199.274824 142.509176 
L 199.599803 138.951529 
L 199.924783 142.509176 
L 200.249762 135.393882 
L 201.224701 124.720941 
L 201.549681 124.720941 
L 201.87466 121.163294 
L 202.19964 114.048 
L 202.524619 114.048 
L 203.499558 103.375059 
L 203.824537 103.375059 
L 204.474496 96.259765 
L 205.124455 96.259765 
L 205.449435 92.702118 
L 205.774414 85.586824 
L 206.749353 85.586824 
L 207.074333 82.029176 
L 207.399312 82.029176 
L 207.724292 74.913882 
L 208.049271 78.471529 
L 208.374251 71.356235 
L 209.349189 71.356235 
L 209.999148 64.240941 
L 210.324128 67.798588 
L 210.649107 67.798588 
L 210.974087 64.240941 
L 211.299066 64.240941 
L 211.624046 60.683294 
L 211.949025 64.240941 
L 212.274005 64.240941 
L 212.923964 57.125647 
L 213.248943 60.683294 
L 213.573923 57.125647 
L 214.223882 57.125647 
L 214.548862 60.683294 
L 215.198821 60.683294 
L 215.5238 64.240941 
L 215.84878 64.240941 
L 216.173759 60.683294 
L 216.498739 60.683294 
L 217.148698 67.798588 
L 217.473677 64.240941 
L 217.798657 71.356235 
L 218.123636 64.240941 
L 218.448616 67.798588 
L 218.773595 67.798588 
L 219.098575 71.356235 
L 219.423554 71.356235 
L 219.748534 78.471529 
L 220.073514 74.913882 
L 220.723473 82.029176 
L 221.698411 82.029176 
L 222.67335 92.702118 
L 222.998329 92.702118 
L 223.323309 89.144471 
L 223.648288 96.259765 
L 224.298247 96.259765 
L 224.948206 103.375059 
L 225.273186 103.375059 
L 225.598165 106.932706 
L 225.923145 106.932706 
L 226.248124 110.490353 
L 226.573104 106.932706 
L 227.548043 117.605647 
L 228.522981 117.605647 
L 228.847961 124.720941 
L 229.17294 124.720941 
L 229.49792 128.278588 
L 229.822899 128.278588 
L 230.147879 135.393882 
L 230.472858 131.836235 
L 230.797838 138.951529 
L 232.097756 138.951529 
L 232.422735 146.066824 
L 232.747715 146.066824 
L 233.072695 149.624471 
L 233.397674 149.624471 
L 233.722654 146.066824 
L 234.047633 153.182118 
L 234.372613 153.182118 
L 235.347551 163.855059 
L 235.672531 160.297412 
L 236.32249 167.412706 
L 236.647469 167.412706 
L 236.972449 163.855059 
L 237.297428 170.970353 
L 237.947387 170.970353 
L 238.272367 174.528 
L 238.922326 174.528 
L 239.247305 181.643294 
L 239.572285 178.085647 
L 240.547224 188.758588 
L 241.197183 188.758588 
L 241.522162 195.873882 
L 242.172121 195.873882 
L 242.82208 202.989176 
L 243.14706 202.989176 
L 243.472039 210.104471 
L 244.121998 210.104471 
L 244.446978 217.219765 
L 245.746896 231.450353 
L 246.071876 231.450353 
L 247.046814 242.123294 
L 247.371794 242.123294 
L 248.671712 256.353882 
L 248.996691 256.353882 
L 249.64665 263.469176 
L 249.97163 263.469176 
L 250.296609 267.026824 
L 250.621589 267.026824 
L 250.946568 270.584471 
L 251.271548 270.584471 
L 251.921507 277.699765 
L 252.571466 277.699765 
L 252.896446 281.257412 
L 253.221425 281.257412 
L 253.546405 284.815059 
L 253.871384 281.257412 
L 254.196364 284.815059 
L 254.521343 281.257412 
L 254.846323 291.930353 
L 255.496282 284.815059 
L 255.821261 291.930353 
L 256.146241 295.488 
L 256.47122 291.930353 
L 256.7962 291.930353 
L 257.121179 295.488 
L 257.446159 291.930353 
L 257.771138 295.488 
L 258.421097 295.488 
L 258.746077 291.930353 
L 259.396036 291.930353 
L 259.721016 288.372706 
L 260.045995 295.488 
L 260.370975 288.372706 
L 260.695954 288.372706 
L 261.020934 291.930353 
L 261.345913 291.930353 
L 261.670893 288.372706 
L 261.995872 291.930353 
L 262.320852 291.930353 
L 262.645831 281.257412 
L 262.970811 281.257412 
L 263.29579 284.815059 
L 263.945749 277.699765 
L 264.595708 277.699765 
L 264.920688 270.584471 
L 265.245667 277.699765 
L 265.570647 270.584471 
L 265.895627 270.584471 
L 266.220606 267.026824 
L 266.545586 270.584471 
L 267.195545 263.469176 
L 267.520524 263.469176 
L 268.170483 256.353882 
L 268.820442 256.353882 
L 269.145422 252.796235 
L 269.470401 252.796235 
L 270.12036 245.680941 
L 270.770319 245.680941 
L 271.095299 238.565647 
L 271.745258 238.565647 
L 272.070238 235.008 
L 272.720197 235.008 
L 273.695135 224.335059 
L 274.020115 224.335059 
L 274.345094 220.777412 
L 274.995053 220.777412 
L 275.320033 213.662118 
L 275.969992 206.546824 
L 276.94493 206.546824 
L 277.594889 199.431529 
L 277.919869 199.431529 
L 278.244848 195.873882 
L 278.894808 195.873882 
L 279.219787 192.316235 
L 279.544767 192.316235 
L 279.869746 188.758588 
L 280.194726 188.758588 
L 280.519705 185.200941 
L 281.169664 185.200941 
L 281.819623 178.085647 
L 282.144603 181.643294 
L 282.469582 174.528 
L 283.119541 174.528 
L 283.7695 167.412706 
L 284.09448 167.412706 
L 284.419459 163.855059 
L 284.744439 163.855059 
L 285.719378 153.182118 
L 286.044357 153.182118 
L 287.019296 142.509176 
L 287.344275 142.509176 
L 287.669255 135.393882 
L 287.994234 138.951529 
L 288.644193 131.836235 
L 288.969173 124.720941 
L 289.294152 124.720941 
L 289.944111 117.605647 
L 290.269091 117.605647 
L 290.59407 114.048 
L 290.91905 106.932706 
L 291.244029 106.932706 
L 291.893989 99.817412 
L 292.218968 99.817412 
L 292.868927 92.702118 
L 293.518886 92.702118 
L 294.493825 82.029176 
L 295.143784 82.029176 
L 295.793743 74.913882 
L 296.118722 67.798588 
L 296.443702 74.913882 
L 297.093661 67.798588 
L 297.41864 71.356235 
L 297.74362 67.798588 
L 298.718559 67.798588 
L 299.368518 60.683294 
L 300.018477 60.683294 
L 300.343456 64.240941 
L 300.668436 57.125647 
L 300.993415 60.683294 
L 301.318395 57.125647 
L 301.643374 60.683294 
L 301.968354 60.683294 
L 302.293333 57.125647 
L 302.618313 60.683294 
L 303.593251 60.683294 
L 303.918231 64.240941 
L 304.24321 60.683294 
L 304.56819 64.240941 
L 304.89317 64.240941 
L 305.218149 60.683294 
L 305.543129 67.798588 
L 305.868108 67.798588 
L 306.193088 64.240941 
L 306.518067 64.240941 
L 306.843047 74.913882 
L 307.168026 71.356235 
L 307.817985 71.356235 
L 308.142965 78.471529 
L 308.467944 74.913882 
L 308.792924 82.029176 
L 309.117903 85.586824 
L 309.767862 85.586824 
L 310.417821 92.702118 
L 311.71774 92.702118 
L 312.042719 99.817412 
L 312.692678 99.817412 
L 313.017658 103.375059 
L 313.342637 110.490353 
L 313.667617 106.932706 
L 314.317576 114.048 
L 314.642555 110.490353 
L 315.292514 117.605647 
L 315.617494 117.605647 
L 315.942473 121.163294 
L 316.917412 121.163294 
L 317.567371 128.278588 
L 317.892351 128.278588 
L 318.21733 131.836235 
L 318.54231 138.951529 
L 319.192269 138.951529 
L 319.517248 142.509176 
L 320.167207 142.509176 
L 320.492187 149.624471 
L 320.817166 149.624471 
L 321.142146 153.182118 
L 321.467125 149.624471 
L 321.792105 153.182118 
L 322.117084 149.624471 
L 322.442064 156.739765 
L 322.767043 156.739765 
L 323.741982 167.412706 
L 324.066962 163.855059 
L 324.716921 170.970353 
L 325.0419 167.412706 
L 325.36688 167.412706 
L 325.691859 174.528 
L 326.341818 174.528 
L 326.666798 178.085647 
L 327.316757 178.085647 
L 327.966716 185.200941 
L 328.291695 185.200941 
L 328.616675 188.758588 
L 328.941654 188.758588 
L 329.916593 199.431529 
L 330.241572 199.431529 
L 330.566552 202.989176 
L 330.891532 202.989176 
L 331.216511 206.546824 
L 331.541491 213.662118 
L 331.86647 210.104471 
L 332.19145 217.219765 
L 332.516429 217.219765 
L 332.841409 224.335059 
L 333.166388 224.335059 
L 334.791286 242.123294 
L 335.441245 242.123294 
L 335.766224 245.680941 
L 336.091204 252.796235 
L 336.416183 252.796235 
L 337.066143 259.911529 
L 337.716102 259.911529 
L 338.366061 267.026824 
L 338.69104 267.026824 
L 339.01602 270.584471 
L 339.340999 277.699765 
L 339.665979 274.142118 
L 339.990958 277.699765 
L 340.965897 277.699765 
L 341.290876 284.815059 
L 341.615856 288.372706 
L 341.940835 288.372706 
L 342.265815 284.815059 
L 342.915774 284.815059 
L 343.240753 288.372706 
L 343.890713 288.372706 
L 344.540672 295.488 
L 344.865651 291.930353 
L 345.190631 295.488 
L 345.51561 291.930353 
L 345.84059 291.930353 
L 346.165569 288.372706 
L 346.490549 295.488 
L 346.815528 295.488 
L 347.140508 291.930353 
L 348.115446 291.930353 
L 348.440426 295.488 
L 348.765405 288.372706 
L 349.090385 288.372706 
L 349.415364 291.930353 
L 350.065324 284.815059 
L 350.390303 288.372706 
L 351.040262 281.257412 
L 351.365242 281.257412 
L 351.690221 277.699765 
L 352.34018 277.699765 
L 352.66516 274.142118 
L 352.990139 274.142118 
L 353.315119 267.026824 
L 353.640098 270.584471 
L 354.290057 263.469176 
L 354.615037 263.469176 
L 354.940016 267.026824 
L 355.264996 259.911529 
L 355.589975 259.911529 
L 355.914955 263.469176 
L 356.239934 256.353882 
L 356.564914 256.353882 
L 356.889894 249.238588 
L 357.214873 252.796235 
L 357.539853 249.238588 
L 357.864832 249.238588 
L 358.514791 242.123294 
L 358.839771 242.123294 
L 359.48973 235.008 
L 360.139689 235.008 
L 360.464668 231.450353 
L 361.114627 231.450353 
L 361.439607 224.335059 
L 361.764586 220.777412 
L 362.739525 220.777412 
L 363.064505 213.662118 
L 363.389484 213.662118 
L 363.714464 206.546824 
L 364.039443 213.662118 
L 364.689402 199.431529 
L 365.014382 202.989176 
L 365.339361 202.989176 
L 365.664341 195.873882 
L 365.98932 199.431529 
L 366.639279 192.316235 
L 366.964259 192.316235 
L 367.289238 188.758588 
L 367.939197 188.758588 
L 368.914136 178.085647 
L 369.239115 181.643294 
L 369.564095 178.085647 
L 369.889075 178.085647 
L 370.214054 174.528 
L 370.539034 174.528 
L 370.864013 170.970353 
L 371.188993 174.528 
L 371.513972 170.970353 
L 371.838952 163.855059 
L 372.163931 163.855059 
L 372.488911 160.297412 
L 372.81389 160.297412 
L 373.13887 156.739765 
L 373.463849 156.739765 
L 374.113808 149.624471 
L 374.438788 149.624471 
L 374.763767 142.509176 
L 375.088747 138.951529 
L 375.738706 138.951529 
L 376.063686 131.836235 
L 376.713645 131.836235 
L 377.038624 128.278588 
L 377.363604 121.163294 
L 377.688583 117.605647 
L 378.338542 117.605647 
L 378.988501 103.375059 
L 379.313481 99.817412 
L 379.63846 103.375059 
L 379.96344 96.259765 
L 380.288419 92.702118 
L 380.613399 96.259765 
L 380.938378 96.259765 
L 381.263358 89.144471 
L 381.913317 89.144471 
L 382.238296 85.586824 
L 382.563276 78.471529 
L 382.888256 82.029176 
L 383.213235 78.471529 
L 383.538215 78.471529 
L 384.513153 67.798588 
L 384.838133 71.356235 
L 385.163112 67.798588 
L 386.138051 67.798588 
L 386.46303 60.683294 
L 387.112989 67.798588 
L 387.437969 60.683294 
L 387.762948 60.683294 
L 388.087928 57.125647 
L 388.737887 64.240941 
L 389.062867 60.683294 
L 389.387846 60.683294 
L 389.712826 57.125647 
L 390.037805 60.683294 
L 390.362785 57.125647 
L 391.012744 57.125647 
L 391.337723 64.240941 
L 391.662703 60.683294 
L 391.987682 64.240941 
L 392.312662 64.240941 
L 392.637641 60.683294 
L 392.962621 64.240941 
L 393.2876 64.240941 
L 393.937559 71.356235 
L 394.262539 71.356235 
L 394.587518 74.913882 
L 394.912498 67.798588 
L 395.237477 74.913882 
L 395.562457 74.913882 
L 395.887437 78.471529 
L 396.212416 78.471529 
L 396.537396 82.029176 
L 396.862375 78.471529 
L 397.187355 85.586824 
L 397.837314 92.702118 
L 398.162293 89.144471 
L 398.487273 89.144471 
L 398.487273 89.144471 
" clip-path="url(#p07a4f44a84)" style="fill: none; stroke: #1f77b4; stroke-width: 1.5; stroke-linecap: square"/>
   </g>
   <g id="line2d_13">
    <path d="M 73.832727 104.997317 
L 74.157707 104.997317 
L 74.482686 108.554964 
L 74.807666 108.554964 
L 75.132645 112.112611 
L 75.782604 112.112611 
L 76.107584 119.227905 
L 76.432563 115.670258 
L 77.082523 122.785552 
L 77.407502 119.227905 
L 77.732482 122.785552 
L 78.057461 129.900846 
L 78.382441 126.343199 
L 78.70742 129.900846 
L 79.0324 129.900846 
L 79.357379 133.458493 
L 79.682359 133.458493 
L 80.007338 137.01614 
L 80.657297 137.01614 
L 80.982277 140.573787 
L 81.632236 140.573787 
L 82.282195 147.689081 
L 82.607174 147.689081 
L 82.932154 151.246728 
L 83.257133 158.362022 
L 84.232072 158.362022 
L 84.557052 165.477317 
L 84.882031 165.477317 
L 85.85697 176.150258 
L 86.181949 172.592611 
L 87.156888 172.592611 
L 87.481867 183.265552 
L 87.806847 179.707905 
L 88.131826 183.265552 
L 88.456806 193.938493 
L 89.106765 193.938493 
L 89.431744 197.49614 
L 89.756724 193.938493 
L 90.081704 201.053787 
L 90.406683 201.053787 
L 91.056642 208.169081 
L 91.706601 208.169081 
L 92.031581 211.726728 
L 92.35656 211.726728 
L 92.68154 215.284375 
L 93.006519 215.284375 
L 93.331499 222.399669 
L 93.656478 222.399669 
L 94.306437 229.514964 
L 94.631417 229.514964 
L 94.956396 233.072611 
L 95.281376 229.514964 
L 96.256314 240.187905 
L 96.906274 240.187905 
L 97.231253 243.745552 
L 97.556233 243.745552 
L 97.881212 250.860846 
L 98.206192 247.303199 
L 98.531171 254.418493 
L 99.18113 261.533787 
L 99.50611 261.533787 
L 99.831089 257.97614 
L 100.156069 261.533787 
L 100.481048 257.97614 
L 100.806028 261.533787 
L 101.131007 268.649081 
L 101.455987 268.649081 
L 101.780966 265.091434 
L 102.105946 268.649081 
L 102.755905 268.649081 
L 103.080885 272.206728 
L 103.405864 268.649081 
L 103.730844 275.764375 
L 104.055823 279.322022 
L 104.380803 279.322022 
L 104.705782 275.764375 
L 105.030762 275.764375 
L 105.355741 279.322022 
L 106.0057 279.322022 
L 106.33068 282.879669 
L 106.980639 282.879669 
L 107.305618 279.322022 
L 107.630598 282.879669 
L 107.955577 279.322022 
L 108.280557 282.879669 
L 108.605536 279.322022 
L 108.930516 286.437317 
L 110.555414 286.437317 
L 110.880393 282.879669 
L 111.205373 282.879669 
L 111.855332 289.994964 
L 112.180311 282.879669 
L 113.480229 282.879669 
L 113.805209 279.322022 
L 114.130188 286.437317 
L 114.455168 286.437317 
L 115.105127 279.322022 
L 115.430106 282.879669 
L 115.755086 282.879669 
L 116.080066 275.764375 
L 116.405045 279.322022 
L 117.055004 279.322022 
L 117.379984 275.764375 
L 117.704963 275.764375 
L 118.029943 272.206728 
L 118.679902 272.206728 
L 119.004881 268.649081 
L 120.304799 268.649081 
L 120.629779 261.533787 
L 120.954758 261.533787 
L 121.604717 254.418493 
L 121.929697 257.97614 
L 122.254676 257.97614 
L 123.229615 247.303199 
L 123.879574 247.303199 
L 124.204554 243.745552 
L 124.529533 243.745552 
L 124.854513 240.187905 
L 125.504472 240.187905 
L 125.829451 236.630258 
L 126.154431 236.630258 
L 126.80439 229.514964 
L 127.129369 229.514964 
L 128.754267 211.726728 
L 129.079247 211.726728 
L 129.404226 208.169081 
L 129.729206 211.726728 
L 130.054185 208.169081 
L 130.379165 208.169081 
L 130.704144 204.611434 
L 131.029124 204.611434 
L 131.354103 197.49614 
L 131.679083 201.053787 
L 132.004062 193.938493 
L 132.329042 193.938493 
L 132.654021 197.49614 
L 132.979001 186.823199 
L 133.62896 179.707905 
L 133.953939 179.707905 
L 134.278919 183.265552 
L 134.603898 176.150258 
L 134.928878 176.150258 
L 135.253857 179.707905 
L 135.903817 172.592611 
L 136.228796 165.477317 
L 136.553776 165.477317 
L 136.878755 161.919669 
L 137.203735 161.919669 
L 137.528714 158.362022 
L 137.853694 158.362022 
L 138.178673 154.804375 
L 138.503653 154.804375 
L 138.828632 147.689081 
L 139.153612 144.131434 
L 139.478591 147.689081 
L 139.803571 140.573787 
L 140.12855 140.573787 
L 140.45353 144.131434 
L 141.428468 133.458493 
L 141.753448 133.458493 
L 142.078428 129.900846 
L 143.053366 129.900846 
L 144.028305 119.227905 
L 144.353284 122.785552 
L 145.003243 115.670258 
L 145.328223 119.227905 
L 145.978182 119.227905 
L 146.303161 112.112611 
L 146.95312 112.112611 
L 147.603079 104.997317 
L 147.928059 108.554964 
L 148.253038 108.554964 
L 148.578018 104.997317 
L 148.902998 104.997317 
L 149.227977 101.439669 
L 149.552957 101.439669 
L 149.877936 104.997317 
L 150.202916 97.882022 
L 150.852875 104.997317 
L 151.177854 104.997317 
L 151.827813 97.882022 
L 152.152793 97.882022 
L 152.477772 94.324375 
L 152.802752 97.882022 
L 154.10267 97.882022 
L 154.427649 94.324375 
L 154.752629 94.324375 
L 155.077609 97.882022 
L 155.402588 94.324375 
L 156.052547 101.439669 
L 156.377527 101.439669 
L 156.702506 97.882022 
L 157.352465 97.882022 
L 157.677445 101.439669 
L 158.002424 97.882022 
L 158.327404 101.439669 
L 159.627322 101.439669 
L 159.952301 97.882022 
L 160.277281 101.439669 
L 160.60226 101.439669 
L 160.92724 108.554964 
L 161.252219 108.554964 
L 161.577199 112.112611 
L 161.902179 108.554964 
L 162.552138 108.554964 
L 162.877117 112.112611 
L 163.202097 112.112611 
L 163.852056 119.227905 
L 164.177035 112.112611 
L 164.502015 115.670258 
L 164.826994 115.670258 
L 165.476953 122.785552 
L 165.801933 119.227905 
L 166.126912 122.785552 
L 166.451892 129.900846 
L 166.776871 133.458493 
L 167.101851 129.900846 
L 167.42683 133.458493 
L 168.07679 133.458493 
L 169.051728 144.131434 
L 169.701687 144.131434 
L 170.026667 140.573787 
L 170.351646 147.689081 
L 170.676626 151.246728 
L 171.001605 151.246728 
L 171.326585 154.804375 
L 171.651564 161.919669 
L 172.626503 161.919669 
L 172.951482 169.034964 
L 173.276462 169.034964 
L 173.601441 165.477317 
L 173.926421 176.150258 
L 174.2514 176.150258 
L 174.57638 179.707905 
L 174.90136 176.150258 
L 175.226339 176.150258 
L 175.551319 179.707905 
L 175.876298 190.380846 
L 176.201278 183.265552 
L 176.851237 197.49614 
L 177.176216 201.053787 
L 177.501196 197.49614 
L 177.826175 201.053787 
L 178.151155 197.49614 
L 179.451073 211.726728 
L 179.776052 211.726728 
L 180.101032 215.284375 
L 180.426011 211.726728 
L 181.075971 218.842022 
L 181.40095 218.842022 
L 181.72593 225.957317 
L 182.050909 229.514964 
L 182.375889 229.514964 
L 182.700868 233.072611 
L 183.025848 233.072611 
L 183.350827 236.630258 
L 184.000786 236.630258 
L 184.650745 243.745552 
L 185.625684 243.745552 
L 185.950663 247.303199 
L 186.275643 254.418493 
L 186.600622 250.860846 
L 187.575561 261.533787 
L 187.900541 261.533787 
L 188.22552 257.97614 
L 188.5505 261.533787 
L 188.875479 261.533787 
L 189.525438 268.649081 
L 190.500377 268.649081 
L 190.825356 272.206728 
L 191.150336 272.206728 
L 191.475315 275.764375 
L 192.125274 275.764375 
L 192.450254 279.322022 
L 193.100213 279.322022 
L 193.425192 275.764375 
L 193.750172 279.322022 
L 194.400131 279.322022 
L 194.725111 282.879669 
L 195.05009 282.879669 
L 195.37507 286.437317 
L 195.700049 282.879669 
L 196.025029 282.879669 
L 196.350008 279.322022 
L 196.674988 282.879669 
L 196.999967 282.879669 
L 197.649926 289.994964 
L 197.974906 286.437317 
L 198.299885 286.437317 
L 198.624865 282.879669 
L 198.949844 289.994964 
L 199.599803 282.879669 
L 200.249762 289.994964 
L 200.574742 282.879669 
L 201.224701 282.879669 
L 201.549681 279.322022 
L 201.87466 286.437317 
L 202.19964 279.322022 
L 202.524619 282.879669 
L 202.849599 282.879669 
L 203.174578 286.437317 
L 203.824537 279.322022 
L 204.149517 279.322022 
L 204.474496 275.764375 
L 204.799476 279.322022 
L 205.124455 279.322022 
L 205.774414 272.206728 
L 206.424373 272.206728 
L 206.749353 268.649081 
L 207.074333 272.206728 
L 207.399312 265.091434 
L 207.724292 265.091434 
L 208.049271 268.649081 
L 209.02421 257.97614 
L 209.349189 261.533787 
L 209.999148 254.418493 
L 210.649107 254.418493 
L 211.624046 243.745552 
L 211.949025 243.745552 
L 212.274005 247.303199 
L 212.598984 236.630258 
L 212.923964 240.187905 
L 213.573923 240.187905 
L 213.898903 233.072611 
L 214.548862 233.072611 
L 214.873841 229.514964 
L 215.198821 222.399669 
L 215.5238 225.957317 
L 215.84878 225.957317 
L 216.173759 218.842022 
L 216.498739 215.284375 
L 216.823718 215.284375 
L 217.148698 208.169081 
L 217.473677 208.169081 
L 217.798657 201.053787 
L 218.123636 208.169081 
L 218.448616 204.611434 
L 218.773595 208.169081 
L 219.098575 201.053787 
L 219.748534 193.938493 
L 220.073514 193.938493 
L 220.398493 186.823199 
L 220.723473 193.938493 
L 221.373432 186.823199 
L 221.698411 176.150258 
L 222.023391 176.150258 
L 222.34837 179.707905 
L 222.67335 179.707905 
L 222.998329 169.034964 
L 223.323309 176.150258 
L 223.973268 169.034964 
L 224.298247 169.034964 
L 224.623227 161.919669 
L 224.948206 161.919669 
L 225.273186 158.362022 
L 225.598165 158.362022 
L 226.248124 151.246728 
L 226.573104 151.246728 
L 227.223063 144.131434 
L 227.548043 144.131434 
L 228.198002 137.01614 
L 228.522981 140.573787 
L 228.847961 140.573787 
L 229.822899 129.900846 
L 230.147879 129.900846 
L 230.472858 126.343199 
L 231.447797 126.343199 
L 232.097756 119.227905 
L 232.422735 119.227905 
L 232.747715 115.670258 
L 233.072695 115.670258 
L 233.397674 112.112611 
L 233.722654 115.670258 
L 234.372613 115.670258 
L 234.697592 112.112611 
L 235.347551 112.112611 
L 235.672531 108.554964 
L 235.99751 108.554964 
L 236.32249 104.997317 
L 236.647469 104.997317 
L 236.972449 101.439669 
L 237.297428 104.997317 
L 237.622408 97.882022 
L 237.947387 97.882022 
L 238.272367 101.439669 
L 238.597346 97.882022 
L 238.922326 101.439669 
L 239.247305 101.439669 
L 239.572285 104.997317 
L 239.897265 97.882022 
L 240.547224 97.882022 
L 240.872203 94.324375 
L 241.197183 97.882022 
L 242.497101 97.882022 
L 242.82208 94.324375 
L 243.797019 94.324375 
L 244.446978 101.439669 
L 244.771957 101.439669 
L 245.096937 97.882022 
L 245.746896 97.882022 
L 246.071876 101.439669 
L 248.346732 101.439669 
L 248.671712 104.997317 
L 248.996691 97.882022 
L 249.321671 104.997317 
L 249.97163 112.112611 
L 250.946568 112.112611 
L 251.271548 115.670258 
L 251.921507 115.670258 
L 252.246486 119.227905 
L 253.546405 119.227905 
L 253.871384 122.785552 
L 254.196364 119.227905 
L 254.521343 126.343199 
L 255.171302 133.458493 
L 255.496282 129.900846 
L 256.146241 137.01614 
L 256.47122 137.01614 
L 257.446159 147.689081 
L 258.096118 147.689081 
L 258.421097 151.246728 
L 258.746077 147.689081 
L 259.071057 158.362022 
L 259.396036 151.246728 
L 259.721016 158.362022 
L 260.370975 165.477317 
L 261.020934 165.477317 
L 261.345913 172.592611 
L 261.670893 169.034964 
L 261.995872 169.034964 
L 262.320852 179.707905 
L 262.645831 183.265552 
L 262.970811 183.265552 
L 263.29579 176.150258 
L 263.62077 183.265552 
L 263.945749 179.707905 
L 264.270729 193.938493 
L 264.595708 183.265552 
L 264.920688 193.938493 
L 265.245667 193.938493 
L 265.570647 204.611434 
L 265.895627 201.053787 
L 266.220606 204.611434 
L 266.870565 204.611434 
L 267.845504 215.284375 
L 268.170483 215.284375 
L 268.495463 211.726728 
L 269.470401 222.399669 
L 269.795381 222.399669 
L 270.770319 233.072611 
L 271.095299 233.072611 
L 271.745258 240.187905 
L 272.070238 240.187905 
L 272.395217 236.630258 
L 272.720197 243.745552 
L 273.045176 247.303199 
L 273.370156 243.745552 
L 273.695135 243.745552 
L 274.020115 250.860846 
L 274.345094 250.860846 
L 274.670074 254.418493 
L 274.995053 254.418493 
L 275.320033 257.97614 
L 275.645012 257.97614 
L 276.294971 265.091434 
L 276.619951 261.533787 
L 276.94493 265.091434 
L 277.26991 261.533787 
L 277.594889 268.649081 
L 277.919869 268.649081 
L 278.244848 275.764375 
L 278.894808 268.649081 
L 279.219787 272.206728 
L 279.544767 272.206728 
L 279.869746 275.764375 
L 280.194726 272.206728 
L 280.519705 275.764375 
L 280.844685 282.879669 
L 281.169664 279.322022 
L 281.494644 282.879669 
L 281.819623 279.322022 
L 282.144603 282.879669 
L 282.469582 279.322022 
L 283.119541 286.437317 
L 283.444521 286.437317 
L 284.09448 279.322022 
L 284.419459 282.879669 
L 284.744439 279.322022 
L 285.069419 286.437317 
L 285.394398 282.879669 
L 286.044357 289.994964 
L 286.369337 286.437317 
L 287.019296 286.437317 
L 287.344275 289.994964 
L 287.994234 282.879669 
L 288.644193 289.994964 
L 288.969173 282.879669 
L 290.269091 282.879669 
L 290.59407 275.764375 
L 291.244029 282.879669 
L 291.569009 279.322022 
L 291.893989 279.322022 
L 292.218968 275.764375 
L 292.543948 279.322022 
L 293.193907 272.206728 
L 293.518886 275.764375 
L 293.843866 275.764375 
L 294.818804 265.091434 
L 295.143784 268.649081 
L 295.793743 261.533787 
L 296.118722 265.091434 
L 296.443702 261.533787 
L 297.74362 261.533787 
L 298.0686 257.97614 
L 298.393579 250.860846 
L 298.718559 254.418493 
L 299.693497 243.745552 
L 300.343456 243.745552 
L 300.993415 236.630258 
L 301.968354 236.630258 
L 302.293333 233.072611 
L 302.618313 225.957317 
L 302.943292 225.957317 
L 303.268272 218.842022 
L 304.24321 218.842022 
L 304.89317 211.726728 
L 305.218149 211.726728 
L 305.543129 204.611434 
L 305.868108 204.611434 
L 306.193088 201.053787 
L 307.168026 201.053787 
L 307.493006 193.938493 
L 308.142965 193.938493 
L 308.467944 186.823199 
L 309.442883 186.823199 
L 309.767862 183.265552 
L 310.092842 176.150258 
L 310.417821 179.707905 
L 310.742801 172.592611 
L 311.067781 176.150258 
L 311.39276 165.477317 
L 311.71774 169.034964 
L 312.367699 169.034964 
L 312.692678 165.477317 
L 313.017658 158.362022 
L 313.342637 161.919669 
L 313.667617 154.804375 
L 313.992596 154.804375 
L 314.317576 151.246728 
L 314.642555 151.246728 
L 315.617494 140.573787 
L 316.267453 140.573787 
L 316.592432 133.458493 
L 316.917412 133.458493 
L 317.242391 137.01614 
L 317.567371 137.01614 
L 317.892351 129.900846 
L 318.54231 129.900846 
L 318.867289 126.343199 
L 319.192269 126.343199 
L 319.517248 122.785552 
L 320.167207 122.785552 
L 321.142146 112.112611 
L 321.467125 115.670258 
L 321.792105 108.554964 
L 322.117084 112.112611 
L 322.442064 112.112611 
L 322.767043 115.670258 
L 323.092023 108.554964 
L 323.741982 108.554964 
L 324.066962 104.997317 
L 325.0419 104.997317 
L 325.36688 101.439669 
L 326.016839 101.439669 
L 326.341818 97.882022 
L 326.666798 101.439669 
L 326.991777 97.882022 
L 327.316757 97.882022 
L 327.641736 101.439669 
L 327.966716 101.439669 
L 328.616675 94.324375 
L 328.941654 97.882022 
L 330.566552 97.882022 
L 330.891532 94.324375 
L 331.216511 94.324375 
L 331.541491 97.882022 
L 331.86647 97.882022 
L 332.19145 90.766728 
L 332.516429 97.882022 
L 332.841409 101.439669 
L 333.166388 101.439669 
L 333.491368 97.882022 
L 333.816347 101.439669 
L 334.141327 97.882022 
L 334.466306 101.439669 
L 335.116265 101.439669 
L 335.441245 104.997317 
L 335.766224 101.439669 
L 336.091204 104.997317 
L 336.416183 101.439669 
L 336.741163 101.439669 
L 337.066143 104.997317 
L 337.391122 101.439669 
L 337.716102 108.554964 
L 338.041081 112.112611 
L 338.69104 112.112611 
L 339.01602 115.670258 
L 339.990958 115.670258 
L 340.315938 119.227905 
L 340.640917 119.227905 
L 340.965897 122.785552 
L 341.290876 119.227905 
L 341.615856 126.343199 
L 341.940835 122.785552 
L 342.265815 126.343199 
L 342.590794 126.343199 
L 342.915774 133.458493 
L 343.240753 137.01614 
L 343.565733 137.01614 
L 343.890713 140.573787 
L 344.215692 137.01614 
L 344.540672 144.131434 
L 344.865651 140.573787 
L 345.84059 151.246728 
L 346.490549 151.246728 
L 346.815528 154.804375 
L 347.140508 151.246728 
L 347.465487 158.362022 
L 347.790467 158.362022 
L 348.115446 161.919669 
L 348.440426 169.034964 
L 348.765405 169.034964 
L 349.090385 172.592611 
L 349.740344 172.592611 
L 350.065324 176.150258 
L 350.390303 172.592611 
L 350.715283 183.265552 
L 351.040262 186.823199 
L 351.365242 186.823199 
L 351.690221 183.265552 
L 352.015201 186.823199 
L 352.34018 186.823199 
L 352.66516 193.938493 
L 352.990139 190.380846 
L 353.315119 197.49614 
L 353.965078 204.611434 
L 354.290057 201.053787 
L 354.615037 208.169081 
L 355.589975 208.169081 
L 355.914955 215.284375 
L 356.239934 218.842022 
L 356.889894 218.842022 
L 357.214873 222.399669 
L 357.539853 222.399669 
L 357.864832 225.957317 
L 358.189812 225.957317 
L 358.514791 229.514964 
L 358.839771 236.630258 
L 359.16475 240.187905 
L 359.48973 236.630258 
L 359.814709 236.630258 
L 360.139689 243.745552 
L 360.464668 240.187905 
L 360.789648 247.303199 
L 361.114627 247.303199 
L 361.439607 250.860846 
L 362.089566 250.860846 
L 362.414545 254.418493 
L 362.739525 254.418493 
L 363.064505 257.97614 
L 363.389484 254.418493 
L 363.714464 261.533787 
L 364.039443 265.091434 
L 364.364423 261.533787 
L 364.689402 265.091434 
L 365.014382 265.091434 
L 365.339361 268.649081 
L 365.664341 268.649081 
L 365.98932 272.206728 
L 366.3143 272.206728 
L 366.639279 275.764375 
L 366.964259 268.649081 
L 367.289238 272.206728 
L 367.939197 272.206728 
L 368.264177 275.764375 
L 368.589156 275.764375 
L 369.239115 282.879669 
L 369.564095 282.879669 
L 369.889075 279.322022 
L 370.214054 279.322022 
L 370.539034 282.879669 
L 370.864013 282.879669 
L 371.188993 286.437317 
L 372.163931 286.437317 
L 372.488911 282.879669 
L 373.788829 282.879669 
L 374.438788 289.994964 
L 374.763767 289.994964 
L 375.413726 282.879669 
L 375.738706 286.437317 
L 376.063686 282.879669 
L 376.388665 286.437317 
L 377.363604 286.437317 
L 378.013563 279.322022 
L 378.338542 279.322022 
L 378.663522 282.879669 
L 378.988501 275.764375 
L 379.313481 282.879669 
L 379.96344 282.879669 
L 380.288419 279.322022 
L 380.613399 279.322022 
L 381.263358 272.206728 
L 382.238296 272.206728 
L 382.563276 268.649081 
L 382.888256 268.649081 
L 383.538215 261.533787 
L 383.863194 265.091434 
L 384.188174 257.97614 
L 384.838133 265.091434 
L 385.813071 254.418493 
L 386.138051 254.418493 
L 386.78801 247.303199 
L 387.112989 250.860846 
L 387.437969 250.860846 
L 387.762948 243.745552 
L 388.087928 243.745552 
L 388.737887 236.630258 
L 389.062867 236.630258 
L 389.387846 233.072611 
L 390.037805 233.072611 
L 391.012744 222.399669 
L 391.337723 222.399669 
L 391.987682 215.284375 
L 392.312662 218.842022 
L 392.637641 218.842022 
L 392.962621 211.726728 
L 393.61258 204.611434 
L 394.262539 204.611434 
L 394.587518 197.49614 
L 395.237477 197.49614 
L 395.562457 201.053787 
L 395.887437 193.938493 
L 396.212416 193.938493 
L 397.187355 183.265552 
L 397.512334 186.823199 
L 397.837314 183.265552 
L 398.162293 176.150258 
L 398.487273 176.150258 
L 398.487273 176.150258 
" clip-path="url(#p07a4f44a84)" style="fill: none; stroke: #ff7f0e; stroke-width: 1.5; stroke-linecap: square"/>
   </g>
   <g id="line2d_14">
    <path d="M 73.832727 163.218564 
L 84.882031 163.111834 
L 89.431744 163.094046 
L 92.35656 163.147411 
L 398.487273 163.111834 
L 398.487273 163.111834 
" clip-path="url(#p07a4f44a84)" style="fill: none; stroke: #2ca02c; stroke-width: 1.5; stroke-linecap: square"/>
   </g>
   <g id="patch_3">
    <path d="M 57.6 307.584 
L 57.6 41.472 
" style="fill: none; stroke: #000000; stroke-width: 0.8; stroke-linejoin: miter; stroke-linecap: square"/>
   </g>
   <g id="patch_4">
    <path d="M 414.72 307.584 
L 414.72 41.472 
" style="fill: none; stroke: #000000; stroke-width: 0.8; stroke-linejoin: miter; stroke-linecap: square"/>
   </g>
   <g id="patch_5">
    <path d="M 57.6 307.584 
L 414.72 307.584 
" style="fill: none; stroke: #000000; stroke-width: 0.8; stroke-linejoin: miter; stroke-linecap: square"/>
   </g>
   <g id="patch_6">
    <path d="M 57.6 41.472 
L 414.72 41.472 
" style="fill: none; stroke: #000000; stroke-width: 0.8; stroke-linejoin: miter; stroke-linecap: square"/>
   </g>
  </g>
 </g>
 <defs>
  <clipPath id="p07a4f44a84">
   <rect x="57.6" y="41.472" width="357.12" height="266.112"/>
  </clipPath>
 </defs>
</svg>
