<?xml version="1.0" encoding="utf-8" standalone="no"?>
<!DOCTYPE svg PUBLIC "-//W3C//DTD SVG 1.1//EN"
  "http://www.w3.org/Graphics/SVG/1.1/DTD/svg11.dtd">
<svg xmlns:xlink="http://www.w3.org/1999/xlink" width="460.8pt" height="345.6pt" viewBox="0 0 460.8 345.6" xmlns="http://www.w3.org/2000/svg" version="1.1">
 <metadata>
  <rdf:RDF xmlns:dc="http://purl.org/dc/elements/1.1/" xmlns:cc="http://creativecommons.org/ns#" xmlns:rdf="http://www.w3.org/1999/02/22-rdf-syntax-ns#">
   <cc:Work>
    <dc:type rdf:resource="http://purl.org/dc/dcmitype/StillImage"/>
    <dc:date>2025-12-26T14:29:50.626146</dc:date>
    <dc:format>image/svg+xml</dc:format>
    <dc:creator>
     <cc:Agent>
      <dc:title>Matplotlib v3.10.8, https://matplotlib.org/</dc:title>
     </cc:Agent>
    </dc:creator>
   </cc:Work>
  </rdf:RDF>
 </metadata>
 <defs>
  <style type="text/css">*{stroke-linejoin: round; stroke-linecap: butt}</style>
 </defs>
 <g id="figure_1">
  <g id="patch_1">
   <path d="M 0 345.6 
L 460.8 345.6 
L 460.8 0 
L 0 0 
z
" style="fill: #ffffff"/>
  </g>
  <g id="axes_1">
   <g id="patch_2">
    <path d="M 57.6 307.584 
L 414.72 307.584 
L 414.72 41.472 
L 57.6 41.472 
z
" style="fill: #ffffff"/>
   </g>
   <g id="matplotlib.axis_1">
    <g id="xtick_1">
     <g id="line2d_1">
      <defs>
       <path id="m58d45d2b3e" d="M 0 0 
L 0 3.5 
" style="stroke: #000000; stroke-width: 0.8"/>
      </defs>
      <g>
       <use xlink:href="#m58d45d2b3e" x="73.832727" y="307.584" style="stroke: #000000; stroke-width: 0.8"/>
      </g>
     </g>
     <g id="text_1">
      <!-- 0 -->
      <g transform="translate(70.651477 322.182437) scale(0.1 -0.1)">
       <defs>
        <path id="DejaVuSans-30" d="M 2034 4250 
Q 1547 4250 1301 3770 
Q 1056 3291 1056 2328 
Q 1056 1369 1301 889 
Q 1547 409 2034 409 
Q 2525 409 2770 889 
Q 3016 1369 3016 2328 
Q 3016 3291 2770 3770 
Q 2525 4250 2034 4250 
z
M 2034 4750 
Q 2819 4750 3233 4129 
Q 3647 3509 3647 2328 
Q 3647 1150 3233 529 
Q 2819 -91 2034 -91 
Q 1250 -91 836 529 
Q 422 1150 422 2328 
Q 422 3509 836 4129 
Q 1250 4750 2034 4750 
z
" transform="scale(0.015625)"/>
       </defs>
       <use xlink:href="#DejaVuSans-30"/>
      </g>
     </g>
    </g>
    <g id="xtick_2">
     <g id="line2d_2">
      <g>
       <use xlink:href="#m58d45d2b3e" x="138.828632" y="307.584" style="stroke: #000000; stroke-width: 0.8"/>
      </g>
     </g>
     <g id="text_2">
      <!-- 1 -->
      <g transform="translate(135.647382 322.182437) scale(0.1 -0.1)">
       <defs>
        <path id="DejaVuSans-31" d="M 794 531 
L 1825 531 
L 1825 4091 
L 703 3866 
L 703 4441 
L 1819 4666 
L 2450 4666 
L 2450 531 
L 3481 531 
L 3481 0 
L 794 0 
L 794 531 
z
" transform="scale(0.015625)"/>
       </defs>
       <use xlink:href="#DejaVuSans-31"/>
      </g>
     </g>
    </g>
    <g id="xtick_3">
     <g id="line2d_3">
      <g>
       <use xlink:href="#m58d45d2b3e" x="203.824537" y="307.584" style="stroke: #000000; stroke-width: 0.8"/>
      </g>
     </g>
     <g id="text_3">
      <!-- 2 -->
      <g transform="translate(200.643287 322.182437) scale(0.1 -0.1)">
       <defs>
        <path id="DejaVuSans-32" d="M 1228 531 
L 3431 531 
L 3431 0 
L 469 0 
L 469 531 
Q 828 903 1448 1529 
Q 2069 2156 2228 2338 
Q 2531 2678 2651 2914 
Q 2772 3150 2772 3378 
Q 2772 3750 2511 3984 
Q 2250 4219 1831 4219 
Q 1534 4219 1204 4116 
Q 875 4013 500 3803 
L 500 4441 
Q 881 4594 1212 4672 
Q 1544 4750 1819 4750 
Q 2544 4750 2975 4387 
Q 3406 4025 3406 3419 
Q 3406 3131 3298 2873 
Q 3191 2616 2906 2266 
Q 2828 2175 2409 1742 
Q 1991 1309 1228 531 
z
" transform="scale(0.015625)"/>
       </defs>
       <use xlink:href="#DejaVuSans-32"/>
      </g>
     </g>
    </g>
    <g id="xtick_4">
     <g id="line2d_4">
      <g>
       <use xlink:href="#m58d45d2b3e" x="268.820442" y="307.584" style="stroke: #000000; stroke-width: 0.8"/>
      </g>
     </g>
     <g id="text_4">
      <!-- 3 -->
      <g transform="translate(265.639192 322.182437) scale(0.1 -0.1)">
       <defs>
        <path id="DejaVuSans-33" d="M 2597 2516 
Q 3050 2419 3304 2112 
Q 3559 1806 3559 1356 
Q 3559 666 3084 287 
Q 2609 -91 1734 -91 
Q 1441 -91 1130 -33 
Q 819 25 488 141 
L 488 750 
Q 750 597 1062 519 
Q 1375 441 1716 441 
Q 2309 441 2620 675 
Q 2931 909 2931 1356 
Q 2931 1769 2642 2001 
Q 2353 2234 1838 2234 
L 1294 2234 
L 1294 2753 
L 1863 2753 
Q 2328 2753 2575 2939 
Q 2822 3125 2822 3475 
Q 2822 3834 2567 4026 
Q 2313 4219 1838 4219 
Q 1578 4219 1281 4162 
Q 984 4106 628 3988 
L 628 4550 
Q 988 4650 1302 4700 
Q 1616 4750 1894 4750 
Q 2613 4750 3031 4423 
Q 3450 4097 3450 3541 
Q 3450 3153 3228 2886 
Q 3006 2619 2597 2516 
z
" transform="scale(0.015625)"/>
       </defs>
       <use xlink:href="#DejaVuSans-33"/>
      </g>
     </g>
    </g>
    <g id="xtick_5">
     <g id="line2d_5">
      <g>
       <use xlink:href="#m58d45d2b3e" x="333.816347" y="307.584" style="stroke: #000000; stroke-width: 0.8"/>
      </g>
     </g>
     <g id="text_5">
      <!-- 4 -->
      <g transform="translate(330.635097 322.182437) scale(0.1 -0.1)">
       <defs>
        <path id="DejaVuSans-34" d="M 2419 4116 
L 825 1625 
L 2419 1625 
L 2419 4116 
z
M 2253 4666 
L 3047 4666 
L 3047 1625 
L 3713 1625 
L 3713 1100 
L 3047 1100 
L 3047 0 
L 2419 0 
L 2419 1100 
L 313 1100 
L 313 1709 
L 2253 4666 
z
" transform="scale(0.015625)"/>
       </defs>
       <use xlink:href="#DejaVuSans-34"/>
      </g>
     </g>
    </g>
    <g id="xtick_6">
     <g id="line2d_6">
      <g>
       <use xlink:href="#m58d45d2b3e" x="398.812252" y="307.584" style="stroke: #000000; stroke-width: 0.8"/>
      </g>
     </g>
     <g id="text_6">
      <!-- 5 -->
      <g transform="translate(395.631002 322.182437) scale(0.1 -0.1)">
       <defs>
        <path id="DejaVuSans-35" d="M 691 4666 
L 3169 4666 
L 3169 4134 
L 1269 4134 
L 1269 2991 
Q 1406 3038 1543 3061 
Q 1681 3084 1819 3084 
Q 2600 3084 3056 2656 
Q 3513 2228 3513 1497 
Q 3513 744 3044 326 
Q 2575 -91 1722 -91 
Q 1428 -91 1123 -41 
Q 819 9 494 109 
L 494 744 
Q 775 591 1075 516 
Q 1375 441 1709 441 
Q 2250 441 2565 725 
Q 2881 1009 2881 1497 
Q 2881 1984 2565 2268 
Q 2250 2553 1709 2553 
Q 1456 2553 1204 2497 
Q 953 2441 691 2322 
L 691 4666 
z
" transform="scale(0.015625)"/>
       </defs>
       <use xlink:href="#DejaVuSans-35"/>
      </g>
     </g>
    </g>
    <g id="text_7">
     <!-- 1e−7 -->
     <g transform="translate(387.462188 334.860562) scale(0.1 -0.1)">
      <defs>
       <path id="DejaVuSans-65" d="M 3597 1894 
L 3597 1613 
L 953 1613 
Q 991 1019 1311 708 
Q 1631 397 2203 397 
Q 2534 397 2845 478 
Q 3156 559 3463 722 
L 3463 178 
Q 3153 47 2828 -22 
Q 2503 -91 2169 -91 
Q 1331 -91 842 396 
Q 353 884 353 1716 
Q 353 2575 817 3079 
Q 1281 3584 2069 3584 
Q 2775 3584 3186 3129 
Q 3597 2675 3597 1894 
z
M 3022 2063 
Q 3016 2534 2758 2815 
Q 2500 3097 2075 3097 
Q 1594 3097 1305 2825 
Q 1016 2553 972 2059 
L 3022 2063 
z
" transform="scale(0.015625)"/>
       <path id="DejaVuSans-2212" d="M 678 2272 
L 4684 2272 
L 4684 1741 
L 678 1741 
L 678 2272 
z
" transform="scale(0.015625)"/>
       <path id="DejaVuSans-37" d="M 525 4666 
L 3525 4666 
L 3525 4397 
L 1831 0 
L 1172 0 
L 2766 4134 
L 525 4134 
L 525 4666 
z
" transform="scale(0.015625)"/>
      </defs>
      <use xlink:href="#DejaVuSans-31"/>
      <use xlink:href="#DejaVuSans-65" transform="translate(63.623047 0)"/>
      <use xlink:href="#DejaVuSans-2212" transform="translate(125.146484 0)"/>
      <use xlink:href="#DejaVuSans-37" transform="translate(208.935547 0)"/>
     </g>
    </g>
   </g>
   <g id="matplotlib.axis_2">
    <g id="ytick_1">
     <g id="line2d_7">
      <defs>
       <path id="mf81c29c620" d="M 0 0 
L -3.5 0 
" style="stroke: #000000; stroke-width: 0.8"/>
      </defs>
      <g>
       <use xlink:href="#mf81c29c620" x="57.6" y="269.706252" style="stroke: #000000; stroke-width: 0.8"/>
      </g>
     </g>
     <g id="text_8">
      <!-- −200 -->
      <g transform="translate(23.132812 273.50547) scale(0.1 -0.1)">
       <use xlink:href="#DejaVuSans-2212"/>
       <use xlink:href="#DejaVuSans-32" transform="translate(83.789062 0)"/>
       <use xlink:href="#DejaVuSans-30" transform="translate(147.412109 0)"/>
       <use xlink:href="#DejaVuSans-30" transform="translate(211.035156 0)"/>
      </g>
     </g>
    </g>
    <g id="ytick_2">
     <g id="line2d_8">
      <g>
       <use xlink:href="#mf81c29c620" x="57.6" y="214.410255" style="stroke: #000000; stroke-width: 0.8"/>
      </g>
     </g>
     <g id="text_9">
      <!-- −100 -->
      <g transform="translate(23.132812 218.209474) scale(0.1 -0.1)">
       <use xlink:href="#DejaVuSans-2212"/>
       <use xlink:href="#DejaVuSans-31" transform="translate(83.789062 0)"/>
       <use xlink:href="#DejaVuSans-30" transform="translate(147.412109 0)"/>
       <use xlink:href="#DejaVuSans-30" transform="translate(211.035156 0)"/>
      </g>
     </g>
    </g>
    <g id="ytick_3">
     <g id="line2d_9">
      <g>
       <use xlink:href="#mf81c29c620" x="57.6" y="159.114258" style="stroke: #000000; stroke-width: 0.8"/>
      </g>
     </g>
     <g id="text_10">
      <!-- 0 -->
      <g transform="translate(44.2375 162.913477) scale(0.1 -0.1)">
       <use xlink:href="#DejaVuSans-30"/>
      </g>
     </g>
    </g>
    <g id="ytick_4">
     <g id="line2d_10">
      <g>
       <use xlink:href="#mf81c29c620" x="57.6" y="103.818262" style="stroke: #000000; stroke-width: 0.8"/>
      </g>
     </g>
     <g id="text_11">
      <!-- 100 -->
      <g transform="translate(31.5125 107.617481) scale(0.1 -0.1)">
       <use xlink:href="#DejaVuSans-31"/>
       <use xlink:href="#DejaVuSans-30" transform="translate(63.623047 0)"/>
       <use xlink:href="#DejaVuSans-30" transform="translate(127.246094 0)"/>
      </g>
     </g>
    </g>
    <g id="ytick_5">
     <g id="line2d_11">
      <g>
       <use xlink:href="#mf81c29c620" x="57.6" y="48.522265" style="stroke: #000000; stroke-width: 0.8"/>
      </g>
     </g>
     <g id="text_12">
      <!-- 200 -->
      <g transform="translate(31.5125 52.321484) scale(0.1 -0.1)">
       <use xlink:href="#DejaVuSans-32"/>
       <use xlink:href="#DejaVuSans-30" transform="translate(63.623047 0)"/>
       <use xlink:href="#DejaVuSans-30" transform="translate(127.246094 0)"/>
      </g>
     </g>
    </g>
   </g>
   <g id="line2d_12">
    <path d="M 73.832727 206.834733 
L 74.157707 206.834733 
L 74.807666 199.922734 
L 75.132645 203.378733 
L 75.457625 199.922734 
L 75.782604 193.010735 
L 76.107584 196.466734 
L 76.432563 193.010735 
L 76.757543 193.010735 
L 77.732482 182.642737 
L 78.057461 186.098736 
L 78.70742 179.186737 
L 79.0324 182.642737 
L 79.357379 182.642737 
L 79.682359 179.186737 
L 80.007338 179.186737 
L 80.657297 172.274738 
L 81.307256 172.274738 
L 81.957215 165.362739 
L 82.607174 165.362739 
L 82.932154 158.45074 
L 83.257133 161.90674 
L 83.582113 158.45074 
L 84.557052 158.45074 
L 84.882031 154.994741 
L 85.207011 154.994741 
L 86.181949 144.626743 
L 86.506929 144.626743 
L 86.831908 148.082742 
L 87.156888 141.170743 
L 87.481867 141.170743 
L 87.806847 137.714744 
L 88.131826 137.714744 
L 88.456806 141.170743 
L 89.106765 134.258744 
L 89.431744 134.258744 
L 89.756724 137.714744 
L 90.081704 130.802745 
L 91.056642 130.802745 
L 91.381622 123.890746 
L 91.706601 123.890746 
L 92.031581 127.346746 
L 92.35656 127.346746 
L 92.68154 123.890746 
L 93.006519 123.890746 
L 93.331499 120.434747 
L 93.656478 120.434747 
L 93.981458 116.978747 
L 94.956396 116.978747 
L 95.281376 110.066748 
L 95.606355 113.522748 
L 95.931335 113.522748 
L 96.906274 103.15475 
L 97.231253 106.610749 
L 97.556233 106.610749 
L 97.881212 103.15475 
L 98.206192 103.15475 
L 98.531171 99.69875 
L 99.18113 99.69875 
L 99.50611 96.242751 
L 100.156069 96.242751 
L 100.481048 89.330752 
L 101.131007 96.242751 
L 102.105946 85.874752 
L 102.430925 85.874752 
L 102.755905 89.330752 
L 103.080885 85.874752 
L 103.405864 85.874752 
L 103.730844 82.418753 
L 104.055823 85.874752 
L 104.705782 78.962754 
L 105.355741 85.874752 
L 105.680721 78.962754 
L 106.0057 82.418753 
L 106.655659 82.418753 
L 107.305618 75.506754 
L 107.955577 82.418753 
L 108.280557 78.962754 
L 109.255495 78.962754 
L 109.580475 82.418753 
L 109.905455 78.962754 
L 110.230434 78.962754 
L 110.555414 82.418753 
L 110.880393 78.962754 
L 111.205373 82.418753 
L 111.530352 82.418753 
L 111.855332 78.962754 
L 112.180311 78.962754 
L 112.505291 82.418753 
L 112.83027 78.962754 
L 113.15525 85.874752 
L 113.480229 82.418753 
L 113.805209 82.418753 
L 114.130188 78.962754 
L 114.455168 85.874752 
L 114.780147 85.874752 
L 115.105127 82.418753 
L 115.755086 89.330752 
L 116.080066 85.874752 
L 116.730025 92.786751 
L 117.704963 92.786751 
L 118.679902 103.15475 
L 119.004881 103.15475 
L 119.329861 99.69875 
L 119.65484 103.15475 
L 119.97982 99.69875 
L 120.954758 110.066748 
L 121.279738 106.610749 
L 121.604717 113.522748 
L 121.929697 113.522748 
L 122.254676 116.978747 
L 123.229615 116.978747 
L 123.554595 123.890746 
L 123.879574 120.434747 
L 124.204554 123.890746 
L 124.529533 123.890746 
L 124.854513 130.802745 
L 125.829451 130.802745 
L 126.154431 137.714744 
L 126.47941 134.258744 
L 127.129369 141.170743 
L 127.454349 137.714744 
L 127.779328 137.714744 
L 128.429287 144.626743 
L 128.754267 144.626743 
L 129.079247 148.082742 
L 129.729206 148.082742 
L 130.054185 154.994741 
L 130.379165 151.538742 
L 131.029124 158.45074 
L 131.679083 158.45074 
L 132.329042 165.362739 
L 133.30398 165.362739 
L 133.953939 172.274738 
L 134.928878 172.274738 
L 135.253857 175.730738 
L 135.903817 175.730738 
L 136.228796 182.642737 
L 136.553776 182.642737 
L 136.878755 179.186737 
L 137.528714 186.098736 
L 138.178673 186.098736 
L 138.503653 189.554735 
L 138.828632 189.554735 
L 139.153612 196.466734 
L 139.478591 189.554735 
L 139.803571 193.010735 
L 140.12855 193.010735 
L 140.45353 196.466734 
L 140.778509 193.010735 
L 141.103489 199.922734 
L 141.428468 196.466734 
L 141.753448 203.378733 
L 142.078428 199.922734 
L 142.728387 206.834733 
L 143.053366 206.834733 
L 143.378346 203.378733 
L 143.703325 206.834733 
L 144.028305 206.834733 
L 144.353284 210.290732 
L 144.678264 210.290732 
L 145.003243 213.746731 
L 145.328223 210.290732 
L 145.978182 217.202731 
L 146.303161 213.746731 
L 146.628141 220.65873 
L 146.95312 224.11473 
L 147.2781 217.202731 
L 147.603079 224.11473 
L 148.578018 224.11473 
L 148.902998 227.570729 
L 149.552957 227.570729 
L 149.877936 231.026729 
L 150.202916 231.026729 
L 150.527895 227.570729 
L 150.852875 234.482728 
L 151.502834 234.482728 
L 152.152793 241.394727 
L 152.477772 234.482728 
L 152.802752 237.938727 
L 153.127731 237.938727 
L 153.452711 234.482728 
L 154.10267 241.394727 
L 154.427649 241.394727 
L 154.752629 237.938727 
L 155.727568 237.938727 
L 156.052547 244.850726 
L 156.377527 241.394727 
L 157.352465 241.394727 
L 157.677445 237.938727 
L 158.002424 241.394727 
L 159.952301 241.394727 
L 160.277281 237.938727 
L 160.60226 237.938727 
L 160.92724 231.026729 
L 161.252219 237.938727 
L 161.577199 234.482728 
L 161.902179 234.482728 
L 162.227158 231.026729 
L 162.552138 234.482728 
L 162.877117 231.026729 
L 163.202097 231.026729 
L 163.527076 234.482728 
L 164.177035 227.570729 
L 165.151974 227.570729 
L 165.476953 224.11473 
L 165.801933 224.11473 
L 166.126912 217.202731 
L 166.451892 220.65873 
L 166.776871 217.202731 
L 167.75181 217.202731 
L 168.07679 213.746731 
L 168.726749 213.746731 
L 169.376708 206.834733 
L 169.701687 206.834733 
L 170.026667 203.378733 
L 170.351646 206.834733 
L 170.676626 199.922734 
L 171.001605 199.922734 
L 171.326585 196.466734 
L 171.976544 196.466734 
L 172.301523 193.010735 
L 172.951482 193.010735 
L 173.276462 186.098736 
L 173.926421 186.098736 
L 174.2514 182.642737 
L 174.57638 182.642737 
L 174.90136 179.186737 
L 175.226339 179.186737 
L 175.551319 175.730738 
L 176.201278 175.730738 
L 176.526257 172.274738 
L 177.176216 172.274738 
L 177.501196 165.362739 
L 177.826175 168.818739 
L 178.151155 168.818739 
L 178.801114 161.90674 
L 179.126093 161.90674 
L 179.776052 154.994741 
L 180.426011 154.994741 
L 180.750991 158.45074 
L 181.075971 151.538742 
L 181.72593 144.626743 
L 182.050909 148.082742 
L 182.375889 144.626743 
L 183.350827 144.626743 
L 183.675807 141.170743 
L 184.325766 141.170743 
L 184.975725 134.258744 
L 185.300704 134.258744 
L 185.625684 130.802745 
L 185.950663 134.258744 
L 186.275643 130.802745 
L 186.600622 130.802745 
L 186.925602 123.890746 
L 187.250581 130.802745 
L 187.575561 130.802745 
L 187.900541 123.890746 
L 188.5505 123.890746 
L 188.875479 116.978747 
L 189.200459 123.890746 
L 189.525438 116.978747 
L 190.175397 116.978747 
L 190.500377 113.522748 
L 190.825356 113.522748 
L 191.150336 116.978747 
L 192.125274 106.610749 
L 192.450254 113.522748 
L 192.775233 106.610749 
L 193.100213 106.610749 
L 193.425192 103.15475 
L 193.750172 106.610749 
L 194.075152 99.69875 
L 194.400131 103.15475 
L 195.37507 92.786751 
L 195.700049 96.242751 
L 196.350008 96.242751 
L 196.674988 92.786751 
L 196.999967 92.786751 
L 197.324947 85.874752 
L 197.649926 89.330752 
L 197.974906 85.874752 
L 198.299885 89.330752 
L 198.949844 89.330752 
L 199.274824 82.418753 
L 199.599803 85.874752 
L 200.249762 85.874752 
L 200.574742 82.418753 
L 201.87466 82.418753 
L 202.19964 78.962754 
L 203.824537 78.962754 
L 204.149517 82.418753 
L 204.474496 75.506754 
L 204.799476 78.962754 
L 205.774414 78.962754 
L 206.099394 75.506754 
L 206.749353 82.418753 
L 207.074333 78.962754 
L 207.399312 78.962754 
L 207.724292 82.418753 
L 208.374251 82.418753 
L 208.69923 78.962754 
L 209.02421 82.418753 
L 209.349189 89.330752 
L 209.674169 85.874752 
L 209.999148 85.874752 
L 210.324128 89.330752 
L 210.649107 85.874752 
L 210.974087 85.874752 
L 211.299066 89.330752 
L 211.624046 89.330752 
L 211.949025 92.786751 
L 212.274005 89.330752 
L 212.598984 92.786751 
L 212.923964 89.330752 
L 213.573923 96.242751 
L 213.898903 92.786751 
L 214.223882 99.69875 
L 214.873841 99.69875 
L 215.198821 103.15475 
L 215.5238 99.69875 
L 215.84878 103.15475 
L 216.173759 103.15475 
L 216.498739 106.610749 
L 216.823718 106.610749 
L 217.473677 113.522748 
L 218.123636 113.522748 
L 218.773595 120.434747 
L 219.098575 120.434747 
L 219.748534 127.346746 
L 220.073514 123.890746 
L 220.723473 130.802745 
L 221.698411 130.802745 
L 222.34837 137.714744 
L 222.998329 137.714744 
L 223.323309 134.258744 
L 223.648288 144.626743 
L 223.973268 144.626743 
L 224.298247 141.170743 
L 224.623227 148.082742 
L 224.948206 151.538742 
L 225.273186 148.082742 
L 225.923145 154.994741 
L 226.898084 154.994741 
L 227.223063 158.45074 
L 227.548043 158.45074 
L 227.873022 161.90674 
L 228.198002 158.45074 
L 228.522981 158.45074 
L 228.847961 165.362739 
L 229.49792 165.362739 
L 229.822899 172.274738 
L 231.772776 172.274738 
L 232.097756 179.186737 
L 232.422735 179.186737 
L 232.747715 182.642737 
L 233.722654 182.642737 
L 234.047633 189.554735 
L 234.697592 189.554735 
L 235.022572 193.010735 
L 235.672531 193.010735 
L 235.99751 196.466734 
L 236.972449 196.466734 
L 237.297428 199.922734 
L 237.622408 199.922734 
L 237.947387 203.378733 
L 238.272367 199.922734 
L 238.597346 203.378733 
L 238.922326 203.378733 
L 239.247305 206.834733 
L 239.572285 206.834733 
L 239.897265 210.290732 
L 240.222244 210.290732 
L 240.547224 217.202731 
L 240.872203 210.290732 
L 241.197183 213.746731 
L 241.522162 220.65873 
L 241.847142 213.746731 
L 242.172121 217.202731 
L 242.497101 217.202731 
L 242.82208 220.65873 
L 243.472039 220.65873 
L 243.797019 224.11473 
L 244.121998 224.11473 
L 244.446978 227.570729 
L 244.771957 224.11473 
L 245.746896 234.482728 
L 246.071876 227.570729 
L 246.396855 234.482728 
L 246.721835 234.482728 
L 247.046814 231.026729 
L 247.696773 237.938727 
L 248.021753 234.482728 
L 248.346732 237.938727 
L 248.996691 237.938727 
L 249.321671 234.482728 
L 249.64665 241.394727 
L 249.97163 237.938727 
L 250.296609 237.938727 
L 250.621589 241.394727 
L 253.546405 241.394727 
L 253.871384 237.938727 
L 254.521343 237.938727 
L 254.846323 241.394727 
L 255.171302 241.394727 
L 255.496282 237.938727 
L 255.821261 237.938727 
L 256.146241 241.394727 
L 256.47122 237.938727 
L 257.121179 237.938727 
L 257.771138 231.026729 
L 258.096118 234.482728 
L 258.421097 231.026729 
L 258.746077 234.482728 
L 259.071057 231.026729 
L 259.396036 231.026729 
L 259.721016 227.570729 
L 260.045995 231.026729 
L 260.695954 224.11473 
L 261.020934 227.570729 
L 261.345913 227.570729 
L 261.670893 220.65873 
L 261.995872 224.11473 
L 262.970811 213.746731 
L 263.945749 213.746731 
L 264.270729 210.290732 
L 264.595708 210.290732 
L 264.920688 206.834733 
L 265.570647 206.834733 
L 265.895627 199.922734 
L 266.220606 203.378733 
L 266.545586 203.378733 
L 266.870565 199.922734 
L 267.520524 199.922734 
L 267.845504 193.010735 
L 268.820442 193.010735 
L 269.470401 186.098736 
L 269.795381 186.098736 
L 270.12036 182.642737 
L 270.44534 186.098736 
L 270.770319 182.642737 
L 271.095299 175.730738 
L 271.420278 182.642737 
L 271.745258 179.186737 
L 272.070238 172.274738 
L 272.720197 172.274738 
L 273.370156 165.362739 
L 273.695135 168.818739 
L 274.020115 168.818739 
L 274.670074 161.90674 
L 274.995053 161.90674 
L 275.320033 154.994741 
L 275.645012 158.45074 
L 275.969992 154.994741 
L 276.94493 154.994741 
L 277.26991 148.082742 
L 277.594889 151.538742 
L 277.919869 148.082742 
L 278.244848 148.082742 
L 278.894808 141.170743 
L 279.219787 144.626743 
L 279.544767 141.170743 
L 279.869746 141.170743 
L 280.194726 137.714744 
L 280.519705 137.714744 
L 280.844685 134.258744 
L 281.169664 134.258744 
L 281.494644 130.802745 
L 281.819623 134.258744 
L 282.144603 134.258744 
L 282.469582 127.346746 
L 283.119541 127.346746 
L 283.444521 123.890746 
L 284.09448 123.890746 
L 284.419459 120.434747 
L 284.744439 123.890746 
L 285.069419 120.434747 
L 285.394398 120.434747 
L 285.719378 113.522748 
L 286.044357 116.978747 
L 286.369337 116.978747 
L 286.694316 110.066748 
L 287.019296 113.522748 
L 287.344275 113.522748 
L 287.669255 110.066748 
L 288.644193 110.066748 
L 288.969173 103.15475 
L 289.294152 103.15475 
L 289.619132 106.610749 
L 289.944111 106.610749 
L 290.91905 96.242751 
L 291.244029 99.69875 
L 291.569009 96.242751 
L 292.543948 96.242751 
L 292.868927 89.330752 
L 293.193907 89.330752 
L 293.518886 92.786751 
L 293.843866 89.330752 
L 294.168845 89.330752 
L 294.493825 85.874752 
L 296.118722 85.874752 
L 296.443702 82.418753 
L 296.768681 82.418753 
L 297.093661 78.962754 
L 297.41864 82.418753 
L 297.74362 82.418753 
L 298.0686 78.962754 
L 298.393579 82.418753 
L 298.718559 82.418753 
L 299.043538 78.962754 
L 299.368518 78.962754 
L 299.693497 75.506754 
L 300.343456 82.418753 
L 300.668436 75.506754 
L 300.993415 78.962754 
L 301.318395 75.506754 
L 301.643374 78.962754 
L 302.618313 78.962754 
L 302.943292 82.418753 
L 303.268272 78.962754 
L 303.593251 82.418753 
L 304.24321 82.418753 
L 304.56819 78.962754 
L 304.89317 82.418753 
L 305.218149 82.418753 
L 305.543129 85.874752 
L 305.868108 85.874752 
L 306.193088 82.418753 
L 306.518067 82.418753 
L 306.843047 85.874752 
L 307.493006 85.874752 
L 308.142965 92.786751 
L 308.467944 89.330752 
L 309.117903 96.242751 
L 309.442883 96.242751 
L 309.767862 92.786751 
L 310.092842 99.69875 
L 310.417821 99.69875 
L 310.742801 103.15475 
L 311.067781 99.69875 
L 311.39276 103.15475 
L 311.71774 103.15475 
L 312.042719 106.610749 
L 312.692678 106.610749 
L 313.017658 113.522748 
L 313.342637 116.978747 
L 313.667617 113.522748 
L 313.992596 116.978747 
L 314.317576 116.978747 
L 314.642555 120.434747 
L 314.967535 116.978747 
L 315.942473 127.346746 
L 316.267453 127.346746 
L 316.592432 130.802745 
L 316.917412 123.890746 
L 317.242391 130.802745 
L 317.892351 130.802745 
L 318.54231 137.714744 
L 318.867289 137.714744 
L 319.192269 141.170743 
L 319.842228 141.170743 
L 320.167207 144.626743 
L 320.492187 144.626743 
L 321.142146 151.538742 
L 321.467125 148.082742 
L 321.792105 151.538742 
L 322.117084 151.538742 
L 322.442064 154.994741 
L 323.092023 154.994741 
L 323.741982 161.90674 
L 324.391941 161.90674 
L 325.0419 168.818739 
L 325.691859 168.818739 
L 326.016839 172.274738 
L 326.991777 172.274738 
L 327.316757 175.730738 
L 328.291695 175.730738 
L 328.616675 182.642737 
L 329.266634 182.642737 
L 329.916593 189.554735 
L 330.241572 186.098736 
L 330.566552 189.554735 
L 330.891532 189.554735 
L 331.216511 193.010735 
L 332.19145 193.010735 
L 332.516429 196.466734 
L 332.841409 196.466734 
L 333.166388 199.922734 
L 333.816347 199.922734 
L 334.141327 206.834733 
L 334.466306 203.378733 
L 334.791286 203.378733 
L 335.116265 206.834733 
L 335.766224 206.834733 
L 336.091204 210.290732 
L 336.416183 210.290732 
L 336.741163 213.746731 
L 337.716102 213.746731 
L 338.041081 217.202731 
L 338.69104 217.202731 
L 339.01602 220.65873 
L 339.340999 227.570729 
L 339.665979 224.11473 
L 339.990958 224.11473 
L 340.315938 231.026729 
L 340.640917 227.570729 
L 340.965897 227.570729 
L 341.290876 231.026729 
L 341.940835 231.026729 
L 342.265815 234.482728 
L 342.590794 234.482728 
L 342.915774 231.026729 
L 343.240753 237.938727 
L 343.565733 234.482728 
L 343.890713 234.482728 
L 344.540672 241.394727 
L 344.865651 234.482728 
L 345.51561 241.394727 
L 346.815528 241.394727 
L 347.140508 244.850726 
L 347.465487 237.938727 
L 347.790467 241.394727 
L 348.115446 237.938727 
L 348.440426 241.394727 
L 349.740344 241.394727 
L 350.065324 237.938727 
L 350.715283 244.850726 
L 351.040262 237.938727 
L 352.34018 237.938727 
L 352.66516 234.482728 
L 352.990139 237.938727 
L 353.315119 234.482728 
L 353.640098 234.482728 
L 353.965078 237.938727 
L 354.290057 231.026729 
L 354.615037 234.482728 
L 354.940016 234.482728 
L 355.264996 227.570729 
L 355.589975 227.570729 
L 355.914955 231.026729 
L 356.239934 227.570729 
L 356.889894 227.570729 
L 357.539853 220.65873 
L 358.189812 220.65873 
L 358.514791 217.202731 
L 358.839771 217.202731 
L 359.16475 213.746731 
L 360.139689 213.746731 
L 360.464668 210.290732 
L 361.114627 210.290732 
L 361.764586 203.378733 
L 362.414545 203.378733 
L 363.064505 196.466734 
L 363.714464 196.466734 
L 364.039443 193.010735 
L 364.364423 193.010735 
L 364.689402 189.554735 
L 365.014382 189.554735 
L 365.664341 182.642737 
L 365.98932 186.098736 
L 366.639279 179.186737 
L 366.964259 179.186737 
L 367.289238 175.730738 
L 367.939197 175.730738 
L 368.914136 165.362739 
L 369.239115 168.818739 
L 369.889075 161.90674 
L 370.214054 161.90674 
L 370.539034 165.362739 
L 370.864013 158.45074 
L 371.188993 161.90674 
L 372.488911 148.082742 
L 372.81389 151.538742 
L 373.13887 151.538742 
L 373.463849 148.082742 
L 373.788829 148.082742 
L 374.113808 144.626743 
L 374.438788 148.082742 
L 375.088747 141.170743 
L 375.413726 141.170743 
L 375.738706 144.626743 
L 376.063686 137.714744 
L 377.038624 137.714744 
L 377.688583 130.802745 
L 378.338542 130.802745 
L 378.663522 127.346746 
L 378.988501 127.346746 
L 379.313481 123.890746 
L 379.63846 127.346746 
L 379.96344 120.434747 
L 380.288419 120.434747 
L 380.613399 123.890746 
L 380.938378 123.890746 
L 381.263358 116.978747 
L 382.238296 116.978747 
L 382.563276 113.522748 
L 382.888256 113.522748 
L 383.213235 110.066748 
L 383.538215 113.522748 
L 383.863194 106.610749 
L 384.188174 110.066748 
L 384.513153 103.15475 
L 384.838133 110.066748 
L 385.488092 103.15475 
L 385.813071 103.15475 
L 386.138051 106.610749 
L 386.46303 99.69875 
L 387.112989 99.69875 
L 387.762948 92.786751 
L 388.087928 92.786751 
L 388.412907 96.242751 
L 389.062867 89.330752 
L 389.387846 89.330752 
L 389.712826 85.874752 
L 390.037805 89.330752 
L 390.687764 82.418753 
L 391.012744 82.418753 
L 391.337723 89.330752 
L 391.662703 82.418753 
L 391.987682 85.874752 
L 392.312662 85.874752 
L 392.962621 78.962754 
L 393.2876 82.418753 
L 394.262539 82.418753 
L 394.587518 78.962754 
L 394.912498 78.962754 
L 395.237477 82.418753 
L 395.562457 82.418753 
L 395.887437 78.962754 
L 396.212416 78.962754 
L 396.537396 85.874752 
L 396.862375 75.506754 
L 397.187355 82.418753 
L 397.837314 82.418753 
L 398.162293 78.962754 
L 398.487273 82.418753 
L 398.487273 82.418753 
" clip-path="url(#pc4168bf9fe)" style="fill: none; stroke: #1f77b4; stroke-width: 1.5; stroke-linecap: square"/>
   </g>
   <g id="line2d_13">
    <path d="M 73.832727 260.928 
L 74.807666 260.928 
L 75.132645 269.568 
L 75.457625 269.568 
L 75.782604 260.928 
L 76.107584 269.568 
L 76.757543 269.568 
L 77.082523 278.208 
L 77.407502 260.928 
L 77.732482 278.208 
L 78.057461 278.208 
L 78.382441 286.848 
L 78.70742 269.568 
L 79.0324 278.208 
L 79.682359 278.208 
L 80.007338 269.568 
L 80.332318 269.568 
L 80.657297 278.208 
L 80.982277 278.208 
L 81.307256 269.568 
L 81.632236 278.208 
L 81.957215 269.568 
L 82.282195 278.208 
L 82.607174 269.568 
L 83.257133 286.848 
L 83.582113 286.848 
L 83.907093 269.568 
L 84.232072 286.848 
L 84.557052 278.208 
L 84.882031 278.208 
L 85.207011 269.568 
L 85.53199 269.568 
L 85.85697 278.208 
L 86.181949 260.928 
L 87.481867 260.928 
L 87.806847 252.288 
L 88.131826 260.928 
L 89.106765 260.928 
L 89.431744 243.648 
L 90.081704 243.648 
L 90.406683 235.008 
L 90.731663 243.648 
L 91.056642 235.008 
L 92.031581 235.008 
L 92.35656 226.368 
L 92.68154 235.008 
L 93.006519 226.368 
L 93.331499 235.008 
L 93.656478 235.008 
L 93.981458 243.648 
L 94.306437 226.368 
L 94.631417 226.368 
L 94.956396 235.008 
L 95.281376 217.728 
L 95.606355 226.368 
L 95.931335 226.368 
L 96.256314 235.008 
L 96.581294 217.728 
L 96.906274 209.088 
L 97.556233 209.088 
L 97.881212 217.728 
L 98.206192 209.088 
L 98.531171 209.088 
L 98.856151 217.728 
L 99.18113 217.728 
L 99.50611 200.448 
L 100.481048 200.448 
L 100.806028 191.808 
L 101.131007 200.448 
L 101.455987 200.448 
L 101.780966 183.168 
L 102.430925 183.168 
L 102.755905 174.528 
L 103.080885 191.808 
L 103.405864 174.528 
L 103.730844 183.168 
L 104.705782 183.168 
L 105.030762 174.528 
L 105.680721 174.528 
L 106.0057 165.888 
L 106.33068 174.528 
L 106.655659 174.528 
L 106.980639 165.888 
L 107.305618 165.888 
L 107.630598 157.248 
L 108.280557 157.248 
L 108.605536 148.608 
L 108.930516 157.248 
L 109.255495 157.248 
L 109.580475 165.888 
L 109.905455 148.608 
L 110.230434 148.608 
L 110.555414 139.968 
L 111.530352 139.968 
L 111.855332 131.328 
L 112.83027 131.328 
L 113.15525 122.688 
L 113.480229 122.688 
L 113.805209 114.048 
L 114.455168 131.328 
L 114.780147 131.328 
L 115.105127 122.688 
L 115.755086 122.688 
L 116.080066 114.048 
L 117.055004 114.048 
L 117.379984 105.408 
L 118.029943 105.408 
L 118.354922 96.768 
L 118.679902 105.408 
L 119.004881 96.768 
L 119.329861 96.768 
L 119.65484 105.408 
L 119.97982 105.408 
L 120.304799 96.768 
L 120.629779 96.768 
L 120.954758 88.128 
L 122.254676 88.128 
L 122.579656 79.488 
L 122.904636 79.488 
L 123.229615 70.848 
L 123.554595 70.848 
L 123.879574 79.488 
L 124.204554 70.848 
L 124.529533 79.488 
L 124.854513 96.768 
L 125.179492 88.128 
L 125.504472 70.848 
L 125.829451 79.488 
L 126.154431 70.848 
L 126.80439 70.848 
L 127.129369 79.488 
L 127.454349 70.848 
L 128.104308 70.848 
L 128.429287 62.208 
L 128.754267 62.208 
L 129.079247 79.488 
L 129.404226 53.568 
L 130.054185 88.128 
L 130.704144 70.848 
L 131.029124 70.848 
L 131.354103 79.488 
L 131.679083 70.848 
L 132.654021 70.848 
L 132.979001 62.208 
L 133.30398 79.488 
L 133.62896 79.488 
L 133.953939 70.848 
L 134.278919 79.488 
L 134.603898 70.848 
L 134.928878 96.768 
L 135.578837 96.768 
L 135.903817 88.128 
L 136.228796 88.128 
L 136.553776 96.768 
L 136.878755 96.768 
L 137.203735 105.408 
L 137.528714 96.768 
L 137.853694 105.408 
L 138.178673 96.768 
L 138.503653 114.048 
L 138.828632 105.408 
L 139.478591 105.408 
L 139.803571 96.768 
L 140.12855 114.048 
L 140.45353 122.688 
L 143.378346 122.688 
L 143.703325 131.328 
L 144.028305 114.048 
L 144.678264 131.328 
L 145.003243 114.048 
L 145.328223 131.328 
L 145.978182 148.608 
L 146.303161 139.968 
L 147.603079 139.968 
L 148.253038 157.248 
L 148.578018 148.608 
L 149.552957 148.608 
L 149.877936 157.248 
L 150.202916 148.608 
L 150.527895 157.248 
L 150.852875 174.528 
L 151.177854 174.528 
L 151.502834 165.888 
L 152.152793 165.888 
L 152.477772 157.248 
L 152.802752 174.528 
L 153.452711 174.528 
L 153.77769 165.888 
L 154.10267 183.168 
L 154.427649 174.528 
L 154.752629 174.528 
L 155.077609 183.168 
L 155.402588 174.528 
L 156.377527 200.448 
L 156.702506 191.808 
L 157.027486 191.808 
L 157.352465 200.448 
L 158.327404 200.448 
L 158.652383 209.088 
L 158.977363 200.448 
L 159.302342 209.088 
L 159.627322 209.088 
L 159.952301 200.448 
L 160.277281 217.728 
L 160.60226 209.088 
L 161.577199 235.008 
L 162.227158 217.728 
L 162.552138 226.368 
L 162.877117 226.368 
L 163.202097 235.008 
L 165.151974 235.008 
L 165.476953 243.648 
L 165.801933 235.008 
L 166.776871 260.928 
L 167.101851 243.648 
L 167.42683 252.288 
L 169.376708 252.288 
L 169.701687 260.928 
L 170.026667 260.928 
L 170.351646 252.288 
L 170.676626 269.568 
L 171.001605 252.288 
L 171.326585 269.568 
L 171.651564 269.568 
L 171.976544 278.208 
L 172.301523 269.568 
L 173.276462 269.568 
L 173.601441 260.928 
L 174.2514 278.208 
L 174.57638 260.928 
L 174.90136 269.568 
L 175.551319 269.568 
L 175.876298 278.208 
L 176.201278 269.568 
L 176.526257 278.208 
L 176.851237 278.208 
L 177.176216 286.848 
L 177.501196 278.208 
L 178.476134 278.208 
L 178.801114 269.568 
L 179.126093 269.568 
L 179.451073 278.208 
L 179.776052 269.568 
L 180.750991 269.568 
L 181.075971 278.208 
L 181.40095 269.568 
L 181.72593 278.208 
L 182.375889 278.208 
L 182.700868 260.928 
L 183.025848 260.928 
L 183.350827 269.568 
L 184.000786 252.288 
L 184.325766 260.928 
L 184.650745 260.928 
L 184.975725 252.288 
L 185.300704 252.288 
L 185.950663 235.008 
L 186.275643 243.648 
L 186.600622 235.008 
L 186.925602 235.008 
L 187.575561 252.288 
L 187.900541 235.008 
L 188.875479 235.008 
L 189.200459 226.368 
L 189.525438 235.008 
L 189.850418 235.008 
L 190.500377 217.728 
L 191.150336 217.728 
L 191.475315 226.368 
L 191.800295 217.728 
L 192.125274 217.728 
L 192.450254 226.368 
L 192.775233 226.368 
L 193.100213 217.728 
L 193.425192 217.728 
L 193.750172 209.088 
L 195.37507 209.088 
L 196.025029 191.808 
L 196.350008 191.808 
L 196.674988 200.448 
L 196.999967 183.168 
L 197.324947 200.448 
L 197.974906 200.448 
L 198.624865 183.168 
L 198.949844 191.808 
L 199.274824 183.168 
L 199.599803 183.168 
L 199.924783 174.528 
L 200.249762 183.168 
L 200.574742 165.888 
L 200.899722 174.528 
L 201.224701 174.528 
L 201.549681 165.888 
L 201.87466 174.528 
L 202.19964 157.248 
L 202.849599 174.528 
L 203.174578 174.528 
L 203.824537 157.248 
L 204.474496 157.248 
L 204.799476 148.608 
L 205.124455 148.608 
L 205.449435 157.248 
L 206.099394 139.968 
L 206.424373 139.968 
L 206.749353 131.328 
L 207.074333 139.968 
L 207.399312 131.328 
L 207.724292 139.968 
L 208.374251 139.968 
L 208.69923 131.328 
L 209.349189 131.328 
L 209.674169 122.688 
L 209.999148 122.688 
L 210.324128 114.048 
L 210.649107 131.328 
L 210.974087 114.048 
L 212.274005 114.048 
L 212.598984 105.408 
L 212.923964 114.048 
L 213.573923 114.048 
L 213.898903 105.408 
L 214.223882 105.408 
L 214.548862 96.768 
L 215.198821 96.768 
L 215.5238 105.408 
L 216.173759 88.128 
L 216.823718 88.128 
L 217.148698 79.488 
L 217.473677 88.128 
L 217.798657 79.488 
L 218.448616 96.768 
L 218.773595 96.768 
L 219.423554 79.488 
L 220.073514 79.488 
L 220.398493 70.848 
L 221.048452 88.128 
L 221.373432 70.848 
L 221.698411 79.488 
L 222.023391 62.208 
L 222.34837 79.488 
L 222.67335 79.488 
L 222.998329 62.208 
L 223.323309 79.488 
L 223.973268 79.488 
L 224.298247 70.848 
L 224.623227 70.848 
L 224.948206 62.208 
L 225.273186 70.848 
L 226.898084 70.848 
L 227.223063 62.208 
L 227.548043 62.208 
L 227.873022 70.848 
L 228.198002 62.208 
L 228.522981 79.488 
L 228.847961 79.488 
L 229.17294 70.848 
L 229.49792 70.848 
L 229.822899 79.488 
L 230.797838 79.488 
L 231.122817 88.128 
L 232.747715 88.128 
L 233.072695 96.768 
L 233.397674 96.768 
L 233.722654 105.408 
L 234.047633 105.408 
L 234.697592 122.688 
L 235.022572 114.048 
L 236.32249 114.048 
L 236.647469 122.688 
L 236.972449 114.048 
L 237.947387 114.048 
L 238.272367 122.688 
L 238.597346 114.048 
L 239.572285 139.968 
L 239.897265 122.688 
L 240.222244 122.688 
L 240.547224 131.328 
L 240.872203 122.688 
L 241.197183 122.688 
L 241.522162 131.328 
L 242.172121 131.328 
L 242.497101 139.968 
L 242.82208 139.968 
L 243.14706 131.328 
L 243.472039 139.968 
L 243.797019 131.328 
L 244.121998 148.608 
L 244.446978 157.248 
L 244.771957 157.248 
L 245.096937 148.608 
L 245.421916 157.248 
L 245.746896 148.608 
L 246.396855 165.888 
L 247.046814 165.888 
L 247.371794 157.248 
L 247.696773 165.888 
L 248.021753 165.888 
L 248.346732 157.248 
L 248.671712 174.528 
L 248.996691 157.248 
L 249.321671 174.528 
L 249.64665 183.168 
L 249.97163 183.168 
L 250.296609 174.528 
L 250.621589 183.168 
L 250.946568 174.528 
L 251.596527 174.528 
L 252.246486 191.808 
L 252.571466 183.168 
L 252.896446 191.808 
L 253.546405 191.808 
L 253.871384 209.088 
L 254.196364 191.808 
L 254.521343 200.448 
L 254.846323 217.728 
L 255.171302 217.728 
L 255.496282 209.088 
L 255.821261 209.088 
L 256.146241 217.728 
L 256.47122 209.088 
L 257.121179 226.368 
L 258.096118 226.368 
L 258.421097 217.728 
L 258.746077 217.728 
L 259.071057 235.008 
L 259.396036 226.368 
L 259.721016 226.368 
L 260.045995 243.648 
L 260.695954 243.648 
L 261.020934 235.008 
L 261.345913 243.648 
L 263.945749 243.648 
L 264.270729 252.288 
L 264.595708 243.648 
L 264.920688 260.928 
L 265.245667 269.568 
L 265.570647 269.568 
L 265.895627 252.288 
L 266.545586 269.568 
L 266.870565 260.928 
L 267.195545 260.928 
L 267.520524 269.568 
L 267.845504 269.568 
L 268.170483 260.928 
L 268.495463 269.568 
L 268.820442 269.568 
L 269.145422 260.928 
L 269.470401 269.568 
L 269.795381 260.928 
L 270.12036 278.208 
L 270.44534 286.848 
L 270.770319 286.848 
L 271.095299 269.568 
L 271.420278 278.208 
L 271.745258 278.208 
L 272.070238 269.568 
L 272.395217 269.568 
L 273.045176 286.848 
L 273.370156 278.208 
L 274.020115 278.208 
L 274.345094 269.568 
L 274.670074 278.208 
L 274.995053 269.568 
L 275.645012 286.848 
L 275.969992 286.848 
L 276.294971 269.568 
L 276.619951 278.208 
L 276.94493 269.568 
L 277.26991 278.208 
L 277.594889 260.928 
L 277.919869 269.568 
L 278.244848 269.568 
L 278.569828 260.928 
L 279.219787 260.928 
L 279.544767 252.288 
L 279.869746 260.928 
L 280.194726 243.648 
L 280.844685 260.928 
L 281.169664 260.928 
L 281.494644 243.648 
L 282.794562 243.648 
L 283.119541 235.008 
L 283.444521 243.648 
L 283.7695 235.008 
L 284.09448 235.008 
L 284.419459 226.368 
L 284.744439 226.368 
L 285.069419 235.008 
L 285.394398 217.728 
L 285.719378 235.008 
L 286.044357 235.008 
L 286.369337 243.648 
L 286.694316 226.368 
L 287.344275 226.368 
L 287.669255 217.728 
L 287.994234 217.728 
L 288.319214 226.368 
L 288.969173 209.088 
L 289.294152 217.728 
L 289.944111 200.448 
L 290.269091 209.088 
L 290.59407 200.448 
L 290.91905 209.088 
L 291.244029 209.088 
L 291.569009 217.728 
L 291.893989 200.448 
L 292.218968 191.808 
L 292.543948 200.448 
L 292.868927 200.448 
L 293.193907 191.808 
L 293.518886 191.808 
L 293.843866 200.448 
L 294.168845 183.168 
L 294.493825 191.808 
L 295.143784 174.528 
L 295.468763 183.168 
L 295.793743 174.528 
L 296.118722 183.168 
L 296.768681 183.168 
L 297.093661 174.528 
L 297.74362 174.528 
L 298.0686 165.888 
L 299.043538 165.888 
L 299.368518 157.248 
L 299.693497 165.888 
L 300.343456 148.608 
L 300.668436 157.248 
L 300.993415 139.968 
L 301.643374 157.248 
L 301.968354 157.248 
L 302.293333 148.608 
L 302.943292 148.608 
L 303.593251 131.328 
L 303.918231 131.328 
L 304.24321 139.968 
L 304.56819 131.328 
L 304.89317 131.328 
L 305.543129 114.048 
L 305.868108 122.688 
L 306.193088 105.408 
L 306.518067 122.688 
L 306.843047 131.328 
L 307.168026 131.328 
L 307.817985 114.048 
L 308.792924 114.048 
L 309.117903 105.408 
L 309.442883 114.048 
L 309.767862 96.768 
L 310.092842 105.408 
L 310.417821 105.408 
L 310.742801 88.128 
L 311.067781 96.768 
L 311.71774 96.768 
L 312.042719 105.408 
L 312.367699 96.768 
L 312.692678 96.768 
L 313.342637 79.488 
L 313.667617 88.128 
L 313.992596 88.128 
L 314.317576 96.768 
L 314.642555 79.488 
L 315.292514 79.488 
L 315.617494 70.848 
L 316.592432 70.848 
L 317.242391 88.128 
L 317.567371 88.128 
L 317.892351 70.848 
L 318.21733 70.848 
L 318.54231 79.488 
L 318.867289 70.848 
L 319.192269 70.848 
L 319.517248 79.488 
L 320.167207 62.208 
L 320.492187 70.848 
L 320.817166 70.848 
L 321.142146 62.208 
L 321.467125 79.488 
L 321.792105 53.568 
L 322.117084 70.848 
L 322.442064 70.848 
L 322.767043 79.488 
L 323.092023 70.848 
L 323.741982 70.848 
L 324.066962 62.208 
L 324.716921 79.488 
L 325.0419 79.488 
L 325.36688 70.848 
L 325.691859 79.488 
L 326.016839 79.488 
L 326.341818 70.848 
L 326.666798 88.128 
L 326.991777 79.488 
L 327.641736 96.768 
L 329.266634 96.768 
L 329.591613 105.408 
L 330.241572 105.408 
L 330.566552 96.768 
L 330.891532 114.048 
L 331.216511 105.408 
L 331.541491 105.408 
L 331.86647 114.048 
L 332.19145 105.408 
L 332.516429 114.048 
L 332.841409 131.328 
L 333.166388 131.328 
L 333.491368 122.688 
L 335.116265 122.688 
L 335.441245 131.328 
L 335.766224 122.688 
L 336.091204 131.328 
L 336.416183 122.688 
L 336.741163 122.688 
L 337.066143 131.328 
L 337.391122 122.688 
L 338.041081 139.968 
L 338.69104 139.968 
L 339.01602 148.608 
L 339.340999 139.968 
L 339.665979 139.968 
L 339.990958 148.608 
L 340.315938 148.608 
L 340.640917 157.248 
L 340.965897 148.608 
L 341.290876 157.248 
L 341.615856 148.608 
L 341.940835 148.608 
L 342.265815 157.248 
L 342.590794 148.608 
L 342.915774 165.888 
L 343.565733 183.168 
L 343.890713 165.888 
L 344.215692 165.888 
L 344.540672 174.528 
L 344.865651 174.528 
L 345.190631 165.888 
L 345.51561 183.168 
L 345.84059 183.168 
L 346.165569 174.528 
L 347.140508 174.528 
L 347.465487 183.168 
L 348.115446 183.168 
L 348.440426 200.448 
L 348.765405 200.448 
L 349.090385 191.808 
L 349.415364 191.808 
L 349.740344 200.448 
L 350.065324 200.448 
L 350.390303 191.808 
L 350.715283 209.088 
L 352.34018 209.088 
L 352.66516 217.728 
L 352.990139 209.088 
L 353.315119 226.368 
L 353.640098 235.008 
L 354.615037 235.008 
L 354.940016 226.368 
L 355.589975 226.368 
L 355.914955 235.008 
L 356.239934 235.008 
L 356.564914 226.368 
L 356.889894 243.648 
L 357.214873 235.008 
L 357.539853 235.008 
L 357.864832 243.648 
L 358.189812 235.008 
L 358.514791 243.648 
L 358.839771 260.928 
L 359.16475 260.928 
L 359.48973 243.648 
L 359.814709 260.928 
L 360.139689 252.288 
L 360.464668 260.928 
L 360.789648 252.288 
L 361.439607 269.568 
L 361.764586 260.928 
L 362.739525 260.928 
L 363.064505 269.568 
L 363.389484 260.928 
L 363.714464 260.928 
L 364.039443 278.208 
L 364.364423 278.208 
L 364.689402 269.568 
L 365.339361 269.568 
L 365.664341 278.208 
L 365.98932 269.568 
L 366.3143 278.208 
L 366.639279 278.208 
L 366.964259 269.568 
L 367.289238 269.568 
L 367.614218 278.208 
L 367.939197 269.568 
L 368.264177 278.208 
L 368.589156 260.928 
L 368.914136 278.208 
L 369.564095 295.488 
L 369.889075 278.208 
L 370.214054 278.208 
L 370.539034 286.848 
L 371.188993 269.568 
L 371.513972 278.208 
L 371.838952 278.208 
L 372.163931 269.568 
L 373.463849 269.568 
L 373.788829 260.928 
L 374.113808 269.568 
L 374.763767 269.568 
L 375.088747 260.928 
L 375.738706 260.928 
L 376.063686 252.288 
L 376.388665 252.288 
L 376.713645 243.648 
L 377.038624 243.648 
L 377.363604 235.008 
L 377.688583 243.648 
L 378.013563 243.648 
L 378.338542 235.008 
L 378.663522 243.648 
L 378.988501 226.368 
L 379.313481 243.648 
L 379.96344 243.648 
L 380.288419 235.008 
L 380.613399 235.008 
L 380.938378 226.368 
L 381.263358 235.008 
L 381.588337 226.368 
L 382.563276 226.368 
L 382.888256 217.728 
L 383.213235 217.728 
L 383.538215 209.088 
L 383.863194 217.728 
L 384.188174 209.088 
L 384.838133 226.368 
L 385.163112 226.368 
L 385.813071 209.088 
L 386.138051 209.088 
L 386.46303 200.448 
L 386.78801 200.448 
L 387.112989 209.088 
L 387.437969 200.448 
L 388.087928 200.448 
L 388.412907 191.808 
L 388.737887 191.808 
L 389.062867 200.448 
L 389.387846 191.808 
L 390.362785 191.808 
L 391.012744 174.528 
L 391.337723 183.168 
L 391.662703 174.528 
L 391.987682 183.168 
L 392.312662 174.528 
L 392.637641 183.168 
L 392.962621 165.888 
L 393.2876 174.528 
L 393.937559 157.248 
L 394.262539 165.888 
L 394.587518 157.248 
L 394.912498 174.528 
L 395.562457 174.528 
L 395.887437 157.248 
L 396.537396 157.248 
L 396.862375 148.608 
L 397.187355 148.608 
L 397.512334 157.248 
L 398.162293 139.968 
L 398.487273 148.608 
L 398.487273 148.608 
" clip-path="url(#pc4168bf9fe)" style="fill: none; stroke: #ff7f0e; stroke-width: 1.5; stroke-linecap: square"/>
   </g>
   <g id="line2d_14">
    <path d="M 73.832727 147.334276 
L 80.007338 147.303172 
L 83.582113 147.306628 
L 93.006519 147.31354 
L 95.281376 147.327364 
L 98.856151 147.285892 
L 109.905455 147.29626 
L 112.180311 147.372292 
L 114.455168 147.368836 
L 125.179492 147.361924 
L 127.454349 147.337732 
L 130.054185 147.306628 
L 133.62896 147.351556 
L 135.253857 147.316996 
L 140.778509 147.327364 
L 143.378346 147.341188 
L 147.603079 147.320452 
L 150.202916 147.337732 
L 153.127731 147.33082 
L 156.052547 147.337732 
L 159.627322 147.3481 
L 166.451892 147.31354 
L 176.201278 147.320452 
L 178.801114 147.323908 
L 182.050909 147.327364 
L 186.275643 147.306628 
L 195.700049 147.316996 
L 197.974906 147.379204 
L 201.224701 147.310084 
L 211.624046 147.33082 
L 213.573923 147.303172 
L 216.173759 147.358468 
L 226.573104 147.334276 
L 228.522981 147.389572 
L 232.097756 147.3481 
L 240.872203 147.337732 
L 245.746896 147.33082 
L 248.346732 147.361924 
L 251.921507 147.344644 
L 257.446159 147.358468 
L 271.745258 147.310084 
L 274.020115 147.351556 
L 276.619951 147.310084 
L 281.494644 147.310084 
L 291.244029 147.303172 
L 294.168845 147.358468 
L 297.41864 147.316996 
L 300.993415 147.320452 
L 302.943292 147.316996 
L 304.89317 147.375748 
L 316.917412 147.358468 
L 319.517248 147.316996 
L 322.117084 147.316996 
L 324.716921 147.375748 
L 327.316757 147.327364 
L 331.541491 147.361924 
L 335.766224 147.334276 
L 344.865651 147.334276 
L 346.815528 147.320452 
L 353.640098 147.361924 
L 367.939197 147.316996 
L 370.539034 147.320452 
L 398.487273 147.306628 
L 398.487273 147.306628 
" clip-path="url(#pc4168bf9fe)" style="fill: none; stroke: #2ca02c; stroke-width: 1.5; stroke-linecap: square"/>
   </g>
   <g id="patch_3">
    <path d="M 57.6 307.584 
L 57.6 41.472 
" style="fill: none; stroke: #000000; stroke-width: 0.8; stroke-linejoin: miter; stroke-linecap: square"/>
   </g>
   <g id="patch_4">
    <path d="M 414.72 307.584 
L 414.72 41.472 
" style="fill: none; stroke: #000000; stroke-width: 0.8; stroke-linejoin: miter; stroke-linecap: square"/>
   </g>
   <g id="patch_5">
    <path d="M 57.6 307.584 
L 414.72 307.584 
" style="fill: none; stroke: #000000; stroke-width: 0.8; stroke-linejoin: miter; stroke-linecap: square"/>
   </g>
   <g id="patch_6">
    <path d="M 57.6 41.472 
L 414.72 41.472 
" style="fill: none; stroke: #000000; stroke-width: 0.8; stroke-linejoin: miter; stroke-linecap: square"/>
   </g>
  </g>
 </g>
 <defs>
  <clipPath id="pc4168bf9fe">
   <rect x="57.6" y="41.472" width="357.12" height="266.112"/>
  </clipPath>
 </defs>
</svg>
